<?xml version="1.0" encoding="UTF-8" standalone="no"?>
<!-- Created with Inkscape (http://www.inkscape.org/) -->

<svg
   xmlns:dc="http://purl.org/dc/elements/1.1/"
   xmlns:cc="http://creativecommons.org/ns#"
   xmlns:rdf="http://www.w3.org/1999/02/22-rdf-syntax-ns#"
   xmlns:svg="http://www.w3.org/2000/svg"
   xmlns="http://www.w3.org/2000/svg"
   xmlns:sodipodi="http://sodipodi.sourceforge.net/DTD/sodipodi-0.dtd"
   xmlns:inkscape="http://www.inkscape.org/namespaces/inkscape"
   width="1387.29"
   height="1387.29"
   id="svg2"
   version="1.1"
   inkscape:version="0.48.2 r9819"
   sodipodi:docname="Breed-Darkling.svg">
  <defs
     id="defs4" />
  <sodipodi:namedview
     id="base"
     pagecolor="#ffffff"
     bordercolor="#666666"
     borderopacity="1.0"
     inkscape:pageopacity="0.0"
     inkscape:pageshadow="2"
     inkscape:zoom="0.24748737"
     inkscape:cx="1063.9443"
     inkscape:cy="718.46876"
     inkscape:document-units="px"
     inkscape:current-layer="layer1"
     showgrid="false"
     fit-margin-top="0"
     fit-margin-left="0"
     fit-margin-right="0"
     fit-margin-bottom="0"
     inkscape:window-width="1606"
     inkscape:window-height="1029"
     inkscape:window-x="70"
     inkscape:window-y="-4"
     inkscape:window-maximized="1" />
  <metadata
     id="metadata7">
    <rdf:RDF>
      <cc:Work
         rdf:about="">
        <dc:format>image/svg+xml</dc:format>
        <dc:type
           rdf:resource="http://purl.org/dc/dcmitype/StillImage" />
        <dc:title></dc:title>
      </cc:Work>
    </rdf:RDF>
  </metadata>
  <g
     inkscape:label="Layer 1"
     inkscape:groupmode="layer"
     id="layer1"
     transform="translate(-497.80433,108.08561)">
    <path
       id="path4210"
       style="fill:#000000;fill-opacity:1"
       d="m 1183.3652,494.7688 c 6.5893,-14.5884 24.668,-57.7143 24.668,-58.8444 0,-0.6596 -76.3892,-0.4542 -90.0418,0.2422 l -12.5418,0.6397 3.8979,8.1063 c 2.1438,4.4584 7.0506,15.7562 10.9039,25.1062 7.9049,19.1808 16.4964,38.3778 18.0137,40.25 0.7434,0.9174 5.8721,1.25 19.2738,1.25 l 18.2607,0 7.5656,-16.75 z m 46.8663,34.9315 c 8.4159,-3.7886 21.6895,-9.9355 29.4968,-13.6597 l 14.1952,-6.7713 -6.6952,-7.6253 c -3.6823,-4.1938 -14.3,-17.0001 -23.5948,-28.4584 -19.9215,-24.5584 -26.6217,-32.0625 -27.651,-30.9689 -0.4152,0.4412 -5.0346,10.9271 -10.2655,23.3021 -5.2308,12.375 -12.0245,28.0897 -15.0972,34.9216 -3.0726,6.8319 -5.5866,12.9875 -5.5866,13.6791 0,2.2471 11.5767,18.7963 15.8362,22.6384 l 4.1453,3.739 4.9576,-1.9541 c 2.7266,-1.0747 11.8433,-5.0538 20.2592,-8.8425 z m -104.8935,-8.3162 4.628,-7.4253 -3.936,-8.1999 c -2.1647,-4.5099 -7.4052,-16.6032 -11.6454,-26.874 -8.3209,-20.1551 -16.2468,-36.5944 -17.8514,-37.026 -0.55,-0.1479 -3.5569,3.2026 -6.6819,7.4455 -3.1251,4.2429 -15.3835,19.4144 -27.241,33.7144 -11.8575,14.3 -21.5631,26.2829 -21.5681,26.6287 0,0.3458 1.4535,1.215 3.241,1.9317 1.7875,0.7166 13.375,6.0006 25.75,11.7422 12.375,5.7416 26.325,11.9509 31,13.7984 l 8.5,3.3592 5.5884,-5.8347 c 3.0736,-3.2091 7.6709,-9.1762 10.2164,-13.2602 z m 45.1952,158.7502 5,0.054 8.7294,-9.396 c 12.1576,-13.0861 11.7482,-11.2217 12.5774,-57.2739 1.1273,-62.6072 1.0766,-64.7815 -1.6303,-69.8542 -1.2779,-2.3948 -4.8884,-7.1198 -8.0233,-10.5 -3.1349,-3.3802 -6.9317,-7.7696 -8.4373,-9.7543 l -2.7375,-3.6085 -19.5111,0.3131 c -10.7312,0.1722 -19.907,0.5577 -20.3908,0.8567 -0.4838,0.299 -2.5697,3.1319 -4.6354,6.2954 -2.0657,3.1635 -5.8902,8.6768 -8.4988,12.2518 -6.5504,8.977 -7.3295,12.5378 -6.454,29.5 0.3974,7.7 1.0195,30.2053 1.3824,50.0117 l 0.6598,36.0116 2.6407,4.4884 c 4.1634,7.0766 14.0394,18.3121 17.8523,20.3097 3.0696,1.6082 4.8224,1.7288 14.9765,1.0306 6.325,-0.435 13.75,-0.7664 16.5,-0.7365 z m 105.5,-74.6155 c 0,-47.4627 -0.3861,-86 -0.8617,-86 -0.4739,0 -6.4364,2.6117 -13.25,5.8038 -6.8136,3.1921 -22.1343,10.0274 -34.046,15.1897 l -21.6577,9.386 -0.567,13.0603 c -1.1653,26.8441 -2.4438,95.0842 -1.7931,95.7099 2.0651,1.9863 68.4747,32.6962 70.9255,32.7983 0.9907,0.041 1.25,-17.7869 1.25,-85.948 z m -225.6181,81.5274 c 11.844,-5.0589 58.7231,-27.2971 59.8622,-28.3971 0.7644,-0.7381 -0.8469,-91.8399 -1.8157,-102.6565 l -0.5397,-6.0263 -29.9092,-13.2245 c -16.45,-7.2734 -32.175,-14.1176 -34.9443,-15.2091 l -5.0352,-1.9847 0,85.9854 c 0,53.9738 0.3556,85.9854 0.9553,85.9854 0.5254,0 5.6674,-2.0127 11.4266,-4.4726 z m 181.8824,62.7226 c 13.9045,-19.2944 21.8816,-29.7678 32.1231,-42.1757 3.2381,-3.9231 5.6797,-7.3405 5.4259,-7.5943 -0.9318,-0.9318 -50.652,-24.3937 -61.2519,-28.9034 -8.992,-3.8257 -11.0821,-4.3976 -11.7446,-3.2137 -0.4432,0.792 -3.7334,5.1257 -7.3114,9.6303 -3.5779,4.5046 -6.5054,8.4904 -6.5054,8.8574 0,3.0264 34.254,82.1494 35.5642,82.1494 0.1033,0 6.2683,-8.4375 13.7001,-18.75 z m -128.9137,3.6968 c 8.3058,-18.7173 27.6494,-65.5041 27.6494,-66.8765 0,-1.201 -11.0214,-15.8747 -13.8381,-18.4237 -1.7388,-1.5737 -3.0392,-1.113 -23.2519,8.2378 -24.7101,11.4315 -49.1486,23.0209 -49.694,23.5663 -0.2066,0.2066 2.4081,3.6772 5.8103,7.7124 6.0453,7.1701 10.3663,12.8443 34.3919,45.1621 6.4706,8.7039 11.935,15.6549 12.1432,15.4468 0.2081,-0.2082 3.2633,-6.8795 6.7892,-14.8252 z m 104.0526,15.5532 c -0.315,-1.1 -6.1461,-15.05 -12.9579,-31 -6.8118,-15.95 -13.8709,-33.0312 -15.6869,-37.9582 l -3.3018,-8.9581 -17.9017,0.041 -17.9016,0.041 -10.4088,24.417 c -10.5344,24.7115 -23.2445,54.9171 -23.2445,55.2406 0,0.097 22.9446,0.1763 50.988,0.1763 50.5124,0 50.9827,-0.019 50.4152,-2 z m -293.8731,509.3308 c -2.7334,-0.523 -5.5459,-1.429 -6.25,-2.0133 -1.9077,-1.5833 -1.5497,-7.32 0.7974,-12.776 1.9406,-4.5111 2.5565,-5.0304 9.3482,-7.8812 8.9494,-3.7567 25.0316,-9.8959 41.5743,-15.8706 16.8042,-6.0692 31.3827,-13.6502 49.4777,-25.7292 33.0658,-22.0724 44.2235,-33.7185 66.0689,-68.961 9.6135,-15.5091 10.8716,-20.3247 13.9419,-53.3642 1.9132,-20.5879 1.9075,-35.5397 -0.024,-61.8334 -1.9755,-26.898 -3.8617,-43.375 -7.029,-61.4019 -3.4727,-19.7652 -11.905,-57.0891 -14.8616,-65.7819 -5.4592,-16.0508 -14.6131,-29.716 -24.4134,-36.4449 -2.5634,-1.7601 -8.3073,-6.4409 -12.7642,-10.4018 -4.8594,-4.3187 -11.2645,-8.7913 -16,-11.1725 -15.4237,-7.7558 -26.8774,-18.4198 -49.4019,-45.9957 -16.9729,-20.7792 -20.5589,-26.3765 -32.4845,-50.7032 -19.9061,-40.606 -29.9216,-70.4583 -34.9799,-104.2606 -8.0374,-53.71 -0.6137,-113.8417 19.0141,-154.0144 4.2628,-8.7248 7.0433,-12.9092 12.293,-18.5 7.2695,-7.7419 28.2507,-34.3529 34.8688,-44.225 13.4035,-19.9935 19.9918,-42.0334 20.9953,-70.235 0.8868,-24.92128 -1.7172,-36.3579 -13.7391,-60.33992 -15.1643,-30.25095 -35.4511,-53.13568 -66.4624,-74.97376 -12.5473,-8.83576 -22.2654,-16.6546 -23.9286,-19.25203 -0.7745,-1.20961 -1.5574,-3.27488 -1.7398,-4.58949 -0.2729,-1.96743 0.3083,-2.61336 3.2862,-3.65188 5.6873,-1.98341 546.7796,-3.1491 552.324,-1.18989 8.5157,3.00922 7.4892,7.0513 -4.1638,16.3959 -4.8279,3.87154 -13.503,10.31549 -19.278,14.31988 -16.2769,11.28638 -26.1629,19.2968 -32.9686,26.71382 -18.8156,20.50547 -39.1475,56.81627 -43.5648,77.80237 -2.273,10.79913 -2.2511,35.3479 0.044,49.5 3.3374,20.5772 7.0688,30.431 17.105,45.1701 6.3227,9.2854 29.242,38.6701 38.4191,49.257 22.2221,25.6354 36.6548,89.5817 33.0096,146.2529 -2.9654,46.1007 -14.031,84.2717 -38.7938,133.82 -9.216,18.4404 -14.5183,26.7952 -23.1646,36.5 -3.675,4.125 -10.978,12.6894 -16.2287,19.0319 -14.3662,17.3535 -24.0832,26.4505 -37.3513,34.9681 -18.757,12.0413 -27.3808,18.6689 -37.6011,28.8974 -14.5413,14.553 -18.9668,23.9235 -26.0233,55.1026 -14.2583,63.0005 -19.6219,121.0577 -15.3819,166.5 2.7666,29.6509 4.319,35.4881 13.9729,52.5383 16.2539,28.7067 37.1353,49.6463 73.0273,73.231 20.8061,13.6716 43.0428,23.6778 66.0315,29.7131 13.8789,3.6437 20.5482,6.9518 24.8642,12.3331 2.5909,3.2305 3.0635,4.6803 3.0822,9.4557 l 0.022,5.6402 -4,1.2175 c -2.8014,0.8526 -14.7368,1.2404 -39.8322,1.2942 l -35.8321,0.077 -11.6679,-10.7812 c -6.4173,-5.9297 -22.3006,-19.6091 -35.2962,-30.3987 -12.9956,-10.7896 -23.9331,-20.1107 -24.3056,-20.7134 -0.3726,-0.6028 -1.5759,-1.5768 -2.6742,-2.1646 -1.7419,-0.9323 -1.6513,-0.5181 0.7103,3.2446 8.5087,13.557 26.5958,38.4979 39.9403,55.075 l 4.6382,5.7617 -39.2276,-0.2617 -39.2275,-0.2617 -4.7352,-23.5 c -4.8134,-23.8881 -10.1201,-47.2487 -14.425,-63.5 l -2.3841,-9 -0.073,6 c -0.04,3.3 0.5857,10.275 1.3905,15.5 0.8047,5.225 2.1714,19.175 3.0372,31 1.4516,19.8282 3.6061,37.6014 4.9975,41.2274 0.8406,2.1905 -4.1697,2.7488 -24.7837,2.7616 l -17.75,0.011 -0.034,-14.75 c -0.044,-19.2493 -3.1863,-54.25 -4.8706,-54.25 -0.8946,0 -1.891,2.7063 -11.5973,31.5 -4.6351,13.75 -9.4826,27.7 -10.7721,31 l -2.3446,6 -18.1703,0.2725 -18.1704,0.2725 0.5007,-2.7725 c 0.4876,-2.6997 4.4583,-37.9051 4.4583,-39.5287 0,-1.7817 -3.8088,1.3781 -6.565,5.4464 -1.606,2.3704 -7.9902,10.5198 -14.1872,18.1098 -6.197,7.5901 -11.9897,14.9026 -12.8726,16.25 l -1.6052,2.45 -25.326,0 c -17.3379,0 -25.5404,-0.3469 -26.0057,-1.0998 -0.3739,-0.6049 0.2584,-2.2924 1.4051,-3.75 1.1466,-1.4576 7.4817,-10.3002 14.0779,-19.6502 6.5962,-9.35 15.5665,-21.95 19.9339,-28 4.3675,-6.05 7.7872,-11.162 7.5994,-11.3601 -1.0617,-1.1196 -53.4351,43.0629 -64.4315,54.3548 -4.1123,4.2228 -8.3873,8.2015 -9.5,8.8415 -2.5468,1.4651 -67.6761,1.8946 -74.993,0.4946 z"
       inkscape:connector-curvature="0" />
    <path
       style="fill:#000000;fill-opacity:1"
       d="m 1059.0332,153.01468 c -36.1313,-7.49977 -72.6883,-36.9501 -71.3885,-76.80882 -1.264,-23.28553 2.6244,-49.33745 21.7552,-64.98139 11.9549,-21.33917 40.5326,-15.7396 53.6652,-34.67341 13.7737,-20.02335 24.5286,-43.9939 47.4499,-55.42116 21.4828,-17.41868 44.2309,-1.98807 65.0399,3.86997 20.6795,-11.3073 40.3243,13.36086 61.0298,5.04279 19.7783,-13.82531 36.1492,-36.26536 62.6867,-36.98131 23.3458,-5.61778 41.0312,10.82053 61.1171,18.34479 10.4429,8.98748 41.7309,-10.64536 39.5795,1.12202 -15.7331,19.38149 -44.027,29.03919 -67.4762,18.63288 -20.262,-10.07552 -46.1578,-2.69404 -55.7112,18.49694 -10.0244,17.4921 -31.6066,23.25831 -50.2388,19.49218 -10.7776,0.0309 -36.0661,16.44134 -30.2403,21.90099 19.3354,-10.04859 39.4803,8.96936 56.8902,3.37045 17.6089,-13.58707 35.3429,-36.89605 60.2562,-32.16381 21.2683,0.94736 28.058,25.87207 46.1514,31.29521 20.4718,-10.04745 43.4425,-32.831 68.3904,-16.73754 18.9308,10.60249 42.079,23.72406 62.6904,8.85471 10.6421,-8.41206 40.8748,-12.36778 43.2591,-0.61436 -25.8554,0.31882 -41.5878,27.7182 -68.1068,28.19926 -20.6085,8.77551 -44.651,-11.09587 -62.6351,3.78715 -15.0869,15.93319 -38.6022,28.48969 -60.5426,26.03509 -13.8021,-15.00259 -33.1552,-15.71926 -44.5977,2.84799 -15.6305,16.99029 -41.7898,26.742 -64.5208,22.36478 -12.8937,-8.16599 -30.3755,-3.24954 -40.4109,6.25833 19.6566,-1.90493 35.5849,10.21515 52.2064,14.90159 23.2477,-13.85576 51.0063,-3.00559 74.0494,6.12564 22.8001,-9.07612 41.657,-31.25071 67.5655,-29.5966 -25.2361,11.51922 -38.6204,42.97751 -67.6663,46.80818 -19.2025,0.17115 -40.5575,-5.08374 -57.0152,8.14602 -19.4557,13.17688 -41.3135,29.93806 -66.373,23.10256 -14.8243,-7.08985 -29.8404,-13.99784 -46.9234,-11.14984 -8.7994,-1.3282 -16.5025,1.92266 -23.9355,6.30107 -20.3055,9.85526 -43.1517,18.22137 -66,13.82765 z"
       id="path4194"
       inkscape:connector-curvature="0" />
  </g>
</svg>
