<?xml version="1.0" encoding="UTF-8" standalone="no"?>
<!-- Created with Inkscape (http://www.inkscape.org/) -->

<svg
   xmlns:dc="http://purl.org/dc/elements/1.1/"
   xmlns:cc="http://creativecommons.org/ns#"
   xmlns:rdf="http://www.w3.org/1999/02/22-rdf-syntax-ns#"
   xmlns:svg="http://www.w3.org/2000/svg"
   xmlns="http://www.w3.org/2000/svg"
   xmlns:sodipodi="http://sodipodi.sourceforge.net/DTD/sodipodi-0.dtd"
   xmlns:inkscape="http://www.inkscape.org/namespaces/inkscape"
   width="301.67999"
   height="301.67999"
   id="svg5002"
   version="1.1"
   inkscape:version="0.48.2 r9819"
   sodipodi:docname="Breed-Ithaeur.svg">
  <defs
     id="defs5004" />
  <sodipodi:namedview
     id="base"
     pagecolor="#ffffff"
     bordercolor="#666666"
     borderopacity="1.0"
     inkscape:pageopacity="0.0"
     inkscape:pageshadow="2"
     inkscape:zoom="1.4"
     inkscape:cx="240.94701"
     inkscape:cy="142.45207"
     inkscape:document-units="px"
     inkscape:current-layer="layer1"
     showgrid="false"
     fit-margin-top="0"
     fit-margin-left="0"
     fit-margin-right="0"
     fit-margin-bottom="0"
     inkscape:window-width="1606"
     inkscape:window-height="1029"
     inkscape:window-x="70"
     inkscape:window-y="-4"
     inkscape:window-maximized="1" />
  <metadata
     id="metadata5007">
    <rdf:RDF>
      <cc:Work
         rdf:about="">
        <dc:format>image/svg+xml</dc:format>
        <dc:type
           rdf:resource="http://purl.org/dc/dcmitype/StillImage" />
        <dc:title />
      </cc:Work>
    </rdf:RDF>
  </metadata>
  <g
     inkscape:label="Layer 1"
     inkscape:groupmode="layer"
     id="layer1"
     transform="translate(-197.13187,-354.94372)">
    <path
       style="fill:#000000;fill-opacity:1;fill-rule:nonzero;stroke:none"
       d="m 353.34205,365.81153 c -3.50625,0.065 -2.59625,0.56625 -4.53125,0.40625 -5.74875,0.0687 -10.34875,0.295 -14.34375,1.25 -4.72375,0.38625 -26.18375,6.61 -20.0625,5.875 -2.73125,0.74 -5.50625,1.38125 -8.21875,2.25 -2.48,1.43 -0.9675,1.3425 -5.71875,3.53125 -8.11376,3.545 -8.50626,3.24 -2.25,0.125 -7.79376,3.285 -15.76375,7.46125 -23.03125,13.125 -1.90625,1.29125 -3.57375,2.88875 -5.3125,4.4375 l -1.4375,1.28125 c -1.04545,-0.0425 -2.19581,0.48246 -2.03125,0.53125 -0.1775,0.23875 -0.48105,-0.0163 0.0312,0.21875 0.22625,0.31125 0.38,0.6775 0.4375,1.0625 l 0.0312,0.59375 c -1.17055,-1.39286 -1.33051,-1.52851 -1.3125,-1.5 l -0.0312,0 -0.0312,0.0312 -0.75,0.5625 c -4.10375,2.82625 -7.28,6.47375 -10.28125,9.9375 -3.01,3.94 -5.8875,5.82625 -9.34375,10.4375 -1.40125,1.89625 -2.615,4.46 -3.53125,6.03125 -0.51988,0.84507 -1.20883,2.01031 -1.46875,3.46875 -0.53237,-0.0241 0.64651,0.0274 -0.65625,-0.0312 l 0,0.0312 -0.0937,0.0937 -0.1875,0.21875 -0.40625,0.4375 -1.34375,1.5625 c -0.92375,0.94875 -1.26625,1.82625 -1.625,2.375 -0.66875,1.1075 -0.86625,1.0875 -0.21875,-0.84375 -3.5975,8.91875 -7.60125,17.85125 -12.15625,27 -0.32606,0.81291 -0.63562,1.59605 -0.9375,2.375 -5.02179,-2.53253 -9.75595,-5.06464 -12.8125,-7.25 -10.4075,-5.20625 -8.84375,2.08375 -8.40625,2.75 3.09118,6.70546 8.19502,9.14089 17.5625,15.09375 -0.63886,2.26536 -0.92158,3.79859 -0.6875,4.1875 -0.90625,2.82 -2.7275,6.195 -2.21875,12.0625 0.86,3.2725 -0.9325,9.7575 -0.875,15.34375 -0.38875,5.88875 -0.3678,12.1925 -0.0312,18.5 0.295,4.5725 1.73875,6.4925 0.875,7.03125 l 0,0.0312 c 0.34477,1.46326 0.12874,0.51361 0.78125,3.28125 -0.31219,0.057 -0.57563,0.11375 -0.375,0.1875 0,0.24125 -0.0175,0.62 0,1.21875 0.0425,0.36375 0.0137,0.59125 0.15625,1.0625 l 0.1875,0.625 0.0625,0.15625 0.0312,0.0625 c 3.47852,-0.59205 3.52032,-0.60942 3.78125,-0.65625 -0.12893,-0.16362 0.2499,0.30845 0.59375,0.75 -0.16551,0.35781 -0.33223,0.80308 -0.46875,1.3125 -0.0425,1.5475 0.3125,2.445 0.5,2.71875 0.11844,0.23873 0.27085,0.50913 0.40625,0.78125 -7.53265,3.5564 -15.30596,8.00478 -20.03125,11.5625 -9.54875,9.37125 -0.7625,9.12 -0.25,9.09375 7.82018,-0.92769 11.29571,-5.54786 23.1875,-9.625 l 1.1875,3.40625 c 2.3675,7.05875 4.50875,13.82875 7.5,19.1875 2.9275,5.68875 6.8475,8.595 8.25,10.21875 1.33625,2.4 1.2275,2.58875 0.6875,1.75 1.10375,1.94875 2.20875,4.49625 3.96875,6.9375 0.39625,0.6275 0.9375,1.18625 1.46875,1.75 l 0.40625,0.4375 0.1875,0.1875 0.0937,0.125 0.0625,0.0312 0,0.0312 0.0312,0 c -2.32799,2.51671 1.39938,-1.52139 2.59375,-2.8125 0.0352,0.0513 0.0548,0.0694 0.0937,0.125 10.65625,12.95375 30.4925,31.42 34,31.65625 3.8075,3.26875 8.2875,6.23375 3.34375,3.5 5.76125,3.65375 10.41,5.63375 14.1875,7.375 l 0.6875,0.3125 0.1875,0.0937 c 2.85789,-1.92421 1.72796,-1.16387 1.4375,-0.96875 l 2.1875,0.75 c 1.615,0.57125 3.11125,1.11 4.625,1.65625 6.10125,2.02875 12.14625,4.665 25.59375,7.15625 -9.355,-1.8175 -4.9975,0.0701 -18.0625,-4.09375 5.425,2.45625 13.77,5.0025 28.28125,6.84375 3.7925,-1.14875 11.12,-3.3625 16.1875,-3.34375 5.38,0.3075 12.335,0.67125 17.75,-0.5625 2.47375,-0.76375 5.35,-1.265 8.25,-1.96875 6.83625,-0.86875 10.2675,-3.7725 10.96875,-4 0.7275,-0.52625 -0.78125,1.97625 -5.8125,3.84375 20.45625,-7.5875 30.725,-14.67625 43.6875,-26.53125 0.58531,-0.49082 0.4842,-0.25133 -0.46875,0.6875 2.62661,-2.47 5.07306,-5.11531 7.4375,-7.8125 1.305,-1.6375 2.7025,-3.225 3.9375,-4.90625 l 1.875,-2.5 0.46875,-0.625 c -0.13,0.40375 1.13375,-3.54125 0.59375,-1.875 l 0,-0.0312 0,-0.0625 0,-0.0937 0,-0.1875 0,-0.375 0,-0.84375 c 0.23686,-0.34512 0.51055,-0.69819 0.78125,-1.09375 0.62848,-0.86764 1.16393,-1.88551 1.71875,-2.8125 -0.0121,-10e-4 0.34203,0.0387 0.28125,0.0312 l 0,-0.0312 0,-0.0312 0.0312,-0.0312 0.0625,-0.0937 0.46875,-0.8125 c 0.665,-1.1125 0.9575,-2.035 1.4375,-2.84375 0.40125,-0.845 0.89875,-1.40875 1.34375,-1.96875 l 0.0625,-0.125 c -0.89273,-0.73249 0.13854,0.0975 -0.4375,-0.375 l -0.125,0.21875 -0.4375,0.5625 0.5,-0.75 0.0312,-0.0625 c 0.0423,0.0347 -0.0121,-0.005 0.0312,0.0312 l 0.0312,-0.0312 c -0.0681,-0.0558 0.0343,0.0225 -0.0312,-0.0312 l 0.1875,-0.28125 0.0312,-0.0625 c -0.20678,-0.16964 -0.47831,-0.38238 -0.46875,-0.375 0.32422,-0.77428 0.84927,-1.73631 1.5625,-2.78125 1.47375,-2.1825 2.17875,-4.9575 2.34375,-7.375 0.19018,-2.35776 0.17804,-4.36066 0.53125,-5.96875 1.02649,-0.77458 4.9219,-3.72325 2.59375,-1.96875 l 0.0312,-0.0312 0.0312,-0.0625 0.0937,-0.28125 0.1875,-0.5625 0.625,-0.78125 c 1.06509,0.87052 2.15138,1.74961 3.3125,2.75 3.62125,2.69 7.1125,5.31375 10.71875,8.21875 0.95875,0.86875 1.7475,1.80875 2.5625,2.71875 -1.005,-1.2425 -2.0525,-2.51625 -3.21875,-3.90625 -1.4825,-1.87625 -4.5825,-2.7875 -7.4375,-5.15625 -0.505,-0.3 0.37625,-1.06375 -0.65625,-1.65625 -1.76159,-1.26377 -3.39991,-2.29295 -4.9375,-3.5 1.19121,-2.51141 2.77676,-4.94992 3.875,-7.875 1.545,-2.87375 1.16,-7.15375 1.15625,-9.09375 -0.007,-0.585 -0.0319,-1.22625 0.0312,-1.6875 l 0.0312,-0.75 0.0312,-0.40625 0,-0.1875 0,-0.0312 c -0.56632,-0.69211 -1.52511,-1.89744 -1.25,-1.5625 l -0.0312,-0.3125 -0.0937,-2.125 c -0.24,-3.385 -1.49625,-6.17375 -1.8125,-8.59375 -0.0562,-0.995 2.5e-4,-1.1425 0.0937,-0.96875 -0.96,-3.83625 -1.20875,-8.07375 -1.125,-15.6875 l -0.15625,5.75 c -0.65968,-2.32465 0.79449,-5.17656 -0.84375,-8.59375 0.0345,-0.0308 0.0597,-0.0593 0.0937,-0.0937 -0.0448,0 -0.0825,-0.002 -0.125,0 -0.23937,-0.48482 -0.5587,-0.96035 -0.9375,-1.46875 -1.15714,0.30978 -1.7295,1.15008 -2.03125,1.875 0.0419,-0.58795 0.14142,-1.13275 0.53125,-1.375 0.73375,-2.99 -1.22,-2.155 -1.15625,-2.71875 -0.3675,-0.275 -0.56125,-0.48875 -0.625,-0.6875 -0.0825,-0.0962 -0.0287,-0.2375 -0.0625,-0.34375 -0.0734,-0.1075 -0.0563,-0.11485 -0.0312,-0.0937 4e-4,-0.0196 -0.0441,-0.13371 -0.625,-0.90625 l -0.1875,0 c -0.16021,0.0181 -0.28418,0.0309 -0.375,0.0625 0.0656,0.0455 0.19929,0.30143 0.34375,0.5625 -0.66786,-0.0975 -1.65625,-0.46581 -1.65625,0.65625 -0.0795,0.42397 -0.16639,0.83028 -0.25,1.25 -0.0311,-0.0763 -0.0667,-0.13819 -0.0937,-0.21875 0.0287,0.0935 0.0282,0.19064 0.0625,0.28125 -0.83214,4.16548 -1.80793,8.13513 -2.6875,12.03125 -0.0816,0.36156 -0.17096,0.73325 -0.25,1.09375 -0.005,0.0222 -0.0262,0.0404 -0.0312,0.0625 -0.54969,2.39516 -1.05813,4.81187 -1.40625,7.25 -0.2525,-1.69375 -0.5025,-4.13375 -0.125,-8.21875 0.195,-2.035 0.5525,-4.46625 1.0625,-7.40625 0.245,-1.4675 0.52875,-3.0775 0.8125,-4.8125 l 0.25,-1.34375 c 0.12375,-0.76125 -0.0775,0.5075 0.21875,-0.9375 0.2289,-0.72855 0.55058,-1.31977 1.125,-1.75 0.0312,0.0139 0.0631,0.0171 0.0937,0.0312 0.85139,0.53373 2.05208,-0.0365 2.6875,-0.65625 0.0527,0.003 0.091,10e-4 0.15625,0 0.32,0.0463 0.19125,0.0194 0.25,0.0312 l 0.0312,0.0312 c -0.46741,-0.72832 3.91807,6.12958 2.125,3.34375 -1.97611,-3.55893 -2.21684,-3.97294 -2.15625,-3.875 -0.006,-0.002 -0.0223,-0.0263 -0.0312,-0.0312 0.0188,-0.0419 0.0527,-0.086 0.0625,-0.125 0.73625,-0.66 1.6375,-1.15375 2.65625,-1.34375 2.16375,-0.7175 3.93375,0.59375 6.3125,0.59375 1.23837,0.0485 2.421,-0.19445 3.59375,-0.5 -0.55268,0.10129 -1.10554,0.17294 -1.65625,0.21875 1.78174,-0.27648 3.5,-0.91719 5.46875,-1.3125 -0.6325,-0.63 -1.25,-1.25 -1.25,-1.25 1.67119,-2.23157 3.80497,-4.45815 5.59375,-6.6875 0.012,-0.008 0.0199,-0.0233 0.0312,-0.0312 0.64504,-0.43074 1.36437,-0.73699 2.1875,-0.84375 0.80986,0.36145 1.90909,0.68877 2.8125,0.5625 0.14273,0.0201 0.29401,0.0226 0.4375,0.0312 0.0926,0.006 0.18855,0.0312 0.28125,0.0312 0,-0.1127 0.0232,-0.20632 0.0312,-0.3125 0.45647,-0.27333 0.7515,-0.7574 0.78125,-1.59375 0.68063,-1.185 2.37002,-2.01166 3.125,-3.3125 0.0185,-0.0319 0.0451,-0.0614 0.0625,-0.0937 0.38643,-0.59064 0.59531,-1.30406 0.4375,-2.25 0,-1.26125 2.5,-1.27375 2.5,-1.90625 0,-2.52125 0.008,-5.66375 -0.625,-8.1875 -0.30795,-1.84771 -0.70472,-3.61014 -1.125,-5.34375 0.10572,0.36608 0.21095,0.7295 0.3125,1.09375 -2.40062,-10.22596 -4.24776,-17.43093 -5.15625,-22.125 l 0.1875,0 c -0.0848,-0.18917 -0.092,-0.20554 -0.15625,-0.34375 0.0663,-0.13873 0.15765,-0.26758 0.25,-0.40625 -0.1365,0 -0.27689,0.006 -0.40625,0 -0.0405,-0.22249 -0.0892,-0.47623 -0.125,-0.6875 -0.006,-0.026 0.006,-0.067 0,-0.0937 0.18365,-1.65406 -0.27154,-2.93456 -0.4375,-3.90625 -0.145,-0.62125 -0.2425,-1.1025 -0.3125,-1.5625 l -0.0625,-0.625 0,-0.0312 0,-0.0312 c -0.37698,0.0614 0.0882,-0.0136 -0.1875,0.0312 l 0,0.0625 0,0.0312 c -0.0359,-0.0242 -0.094,-0.0446 -0.15625,-0.0625 -0.80642,0.13155 -0.81731,0.13532 -0.75,0.125 -0.004,-0.0123 -0.0271,-0.019 -0.0312,-0.0312 0.56941,-0.0928 0.57255,-0.10243 0.71875,-0.125 -0.15877,-0.0318 -0.42443,-0.0389 -0.75,-0.0312 -0.23546,0.006 -0.46652,0.0308 -0.8125,0.0625 0.005,0.0739 -0.005,0.14395 0,0.21875 -0.11276,0.018 0.20565,-0.034 0.1875,-0.0312 -0.0603,0.009 0.13874,-0.0145 0.625,-0.0937 3e-4,0.0102 -3.5e-4,0.0211 0,0.0312 0.0864,-0.0135 -0.71564,0.10309 -0.65625,0.0937 -0.006,0.005 -0.025,-0.005 -0.0312,0 0.008,-10e-4 -0.11817,0.0301 -0.125,0.0312 0.001,0.0213 -10e-4,0.0411 0,0.0625 -0.0227,0.0182 -0.0396,0.0442 -0.0625,0.0625 l -0.0312,-0.0625 0,-0.0312 c -0.0316,0.005 -0.10344,0.0175 -0.1875,0.0312 l 0,0.0625 0.0625,0.15625 c -0.21694,0.17432 -0.44004,0.32673 -0.65625,0.5 -0.27097,-0.94926 -0.53143,-1.89545 -0.8125,-2.9375 0.18564,1.04208 0.36545,2.08602 0.5625,3.125 -0.0226,0.018 -0.04,0.0447 -0.0625,0.0625 -0.94356,-4.46261 -1.51366,-9.02221 -3.21875,-13.15625 0.0193,-0.002 0.0464,-0.0188 0.0625,-0.0312 -0.0823,-0.18203 -0.16374,-0.31827 -0.21875,-0.40625 -0.006,-0.0128 -0.0257,-0.0186 -0.0312,-0.0312 -0.40046,-0.91504 -0.87037,-1.82369 -1.40625,-2.6875 0.0317,-0.0349 0.0736,-0.0659 0.125,-0.0937 0.46875,0.68375 0.97125,1.4675 1.53125,2.34375 1.56,2.71594 2.5448,6.44947 3.40625,10.125 -0.53247,-2.35518 -1.06016,-4.72519 -1.875,-7.0625 -0.66,-1.7575 -1.4175,-3.50125 -2.4375,-5.09375 l -0.34375,-0.59375 c -0.2291,0.0891 -0.38207,0.15207 -0.53125,0.21875 -1.24917,0.55839 0.0337,0.40497 -0.34375,0.71875 l 0.4375,1.28125 c 0.27625,0.85875 0.635,1.67625 0.84375,2.5625 0.2375,2.46375 0.40125,4.94 0.53125,7.4375 0.3575,1.3825 0.82375,3.14125 1.0625,4.09375 0.12955,0.76315 0.31528,1.35988 0.5,1.90625 -0.16575,0.13626 -0.3214,0.26087 -0.5,0.40625 -0.69742,0.51336 -1.29423,1.24359 -1.875,2.09375 -0.62861,-0.71246 -0.72008,-1.95425 -0.8125,-3.3125 0.32144,-0.33258 0.44442,-0.72556 0.625,-1.15625 l -0.65625,0.625 c -0.0884,-1.18271 -0.23329,-2.40673 -0.78125,-3.40625 -0.4525,-0.83375 0.135,-2.74375 -1.5,-4.25 -0.71443,-0.6374 -1.48376,-1.15998 -1.875,-1.59375 10e-4,-0.046 2.3e-4,-0.0676 0,-0.125 0.0348,0.0524 0.0838,0.0872 0.0937,0.0625 l -0.0937,-0.125 c 3.7e-4,-0.0936 -0.0138,-0.23692 0,-0.21875 l 0.0625,-0.65625 0,-0.34375 0,-0.1875 0.0312,-0.0625 0,-0.0625 0,-0.0312 c -0.57186,-0.23822 -1.36627,-0.56477 -1.28125,-0.53125 0.19897,-0.0111 -0.12702,0.014 0.125,0 l -0.0625,-0.0625 -0.1875,-0.21875 -0.71875,-0.90625 c -1.05125,-1.12125 -1.68875,-2.62125 -2.65625,-4.21875 -0.39,-0.79 -1.00125,-1.61125 -1.65625,-2.40625 l -0.46875,-0.59375 -0.25,-0.28125 -0.0625,-0.0625 -0.0312,-0.0625 c 0.86819,-1.11624 -0.21419,0.28382 -0.96875,1.25 -0.0517,-0.0334 -0.10236,-0.0614 -0.15625,-0.0937 0.0418,0.0418 0.0842,0.0825 0.125,0.125 -0.75397,0.96554 -1.14826,1.51591 -0.9375,1.25 l 0.0937,0.0937 c 0.22625,0.21 0.52125,0.30625 0.71875,0.5625 0.91125,0.87625 1.3575,2.4875 2.3125,4.34375 1.55742,2.46562 1.99884,1.6754 1.65625,3.6875 -0.42735,-1.15859 -0.97278,-2.30786 -1.65625,-3.25 0.254,0.26926 0.63901,0.71892 1.59375,2 -3.1775,-4.14875 -5.44,-7.50375 -8.0625,-11.59375 l -0.125,-0.71875 c -0.0612,0.54625 -2.08625,-2.25625 -5.03125,-5.5 -0.005,-0.41027 -1.40573,-1.05485 -2.09375,-0.5 l -1.6875,-2.875 c -0.92731,-1.67517 -1.87318,-3.17374 -2.75,-4.34375 -2.93412,-4.91711 -6.26932,-9.48706 -10,-13.84375 3.23107,3.25226 5.58993,5.726 9.875,12.90625 0.355,-0.32125 -4.72125,-8.85625 -4.625,-8.96875 -3.49125,-4.875 -8.0525,-9.50625 -13.03125,-13 -4.71625,-3.745 -10.1,-7.21875 -15.59375,-9.625 -3.16,-1.23125 -4.91125,-2.60625 -8.21875,-4.125 -0.80875,-0.36375 -1.71375,-0.46375 -2.625,-0.5625 l -0.34375,-0.0312 -0.0937,0 -0.0312,0 c 0.0887,-0.68625 -0.97375,5.925 -0.5,3.125 l 0.125,0.0625 0.53125,0.15625 1.0625,0.34375 c 0.9996,0.4116 2.05054,0.86234 2.4375,1.4375 -0.0668,0.0605 -0.12021,0.0913 -0.1875,0.15625 -0.25371,0.36194 -0.42717,0.32563 -0.65625,1 l -0.21875,-0.0937 -0.15625,-0.0312 -0.0937,-0.0312 -0.0312,-0.0312 c 0.15007,-0.12582 -0.48789,0.34965 -0.71875,0.53125 -0.81047,-0.53479 -1.46914,-0.68996 -2.03125,-0.78125 0.61058,-1.48532 1.1368,-2.83339 0.4375,-1.1875 l -0.0937,-0.0937 -0.28125,-0.1875 c -0.35125,-0.24375 -0.69625,-0.4975 -1.09375,-0.5625 -1.64125,-0.35 -2.53125,0.15625 -2.9375,0.125 -0.1825,-0.18 -0.145,0.225 -0.21875,0.34375 l 0.125,-0.125 0.0625,-0.0312 c 0.0254,0.89359 0.0187,0.53543 0.0312,0.96875 0.19947,-0.0448 0.39044,-0.10216 0.625,-0.1875 0.52375,-0.13625 1.04,-0.495 2.15625,-0.28125 0.27,0.0175 0.51,0.19 0.78125,0.34375 l 0.21875,0.125 0.0937,0.0625 0.0625,0.0312 c 0.22156,-0.53198 -0.1426,0.33332 -0.25,0.59375 -0.19876,-0.0279 -0.44632,-0.0571 -0.59375,-0.0937 -0.6491,-0.12918 -0.61905,-0.13535 -0.5625,-0.125 2.9e-4,0.0361 -0.018,0.0602 -0.0312,0.0937 -0.34707,-0.10761 -0.71512,-0.091 -1.09375,-0.0312 0.15645,0.0494 0.32787,0.10199 0.5,0.15625 0.006,0.0385 -0.0106,0.0356 0,0.0937 0.0105,0.0642 0.0297,0.1065 0.0312,0.15625 0.0649,-0.0218 0.12926,-0.0356 0.1875,-0.0625 -0.0902,-0.0336 -0.1374,-0.0931 -0.15625,-0.15625 -0.003,0.002 -0.0242,-0.0147 -0.0312,-0.0312 0.10756,0.0337 0.20284,0.0639 0.3125,0.0937 -0.0438,0.0274 -0.0736,0.07 -0.125,0.0937 0.11797,0.0439 0.3375,0.0869 0.6875,0.1875 0.18249,0.0695 0.40633,0.067 0.6875,0.0937 -0.29959,0.72293 -0.45501,1.10369 -0.375,0.90625 l -0.0312,0 -0.375,-0.0312 c -0.5575,-0.04 -1.1525,-0.1175 -1.59375,-0.25 0.005,0.0206 -0.004,0.0433 0,0.0625 -0.0327,-0.029 -0.0632,-0.0618 -0.0937,-0.0937 0.0336,0.01 0.0462,0.01 0.0937,0.0312 -0.017,-0.0668 -0.0369,-0.10493 -0.0625,-0.1875 -0.0235,0.038 -0.0728,0.074 -0.0937,0.0937 -0.14238,-0.16719 -0.26466,-0.3693 -0.34375,-0.625 l 0,-0.0312 0.0312,-0.0312 c 0.0114,0.0152 -0.0685,-0.0701 -0.0625,-0.0625 -0.0138,-0.0277 -0.0212,-0.039 -0.0312,-0.0625 -0.0286,-0.0669 -0.0484,-0.13361 -0.0625,-0.1875 -0.0212,0.004 -0.0413,-0.003 -0.0625,0 -0.0862,-0.12369 -0.13577,-0.17331 -0.4375,-0.59375 0.008,0.26863 0.0276,0.53816 0.0312,0.65625 -0.46955,0.0238 -0.91999,-0.077 -1.3125,-0.46875 l 0.375,-0.34375 0.1875,-0.21875 c 0.044,0.11542 0.0704,0.23245 0.0937,0.3125 0.18906,0.0544 0.3992,0.0399 0.59375,0 -0.98867,-1.3769 -2.14471,-3.01367 -1.34375,-1.90625 0.0686,0.0949 -0.22959,-0.30092 -0.125,-0.15625 l 0.0312,-0.0625 c -0.1061,-0.0469 -0.14123,-0.0135 -0.84375,-0.1875 -0.36187,-0.16031 -1.03844,-0.087 -1.65625,0.0625 -0.16466,-7.7e-4 -0.46657,5.9e-4 -0.78125,0 -0.37434,-1.44134 -0.87896,-3.42146 -0.46875,-1.8125 l -0.0312,0 -0.53125,-0.1875 -1.0625,-0.3125 c -2.82,-0.86375 -5.775,-1.8675 -8.84375,-2.59375 -3.08625,-0.83 -6.77,-0.59625 -9.46875,-0.4375 -2.46375,0.185 -5.9275,-1.02 -9.0625,-0.625 1.83375,0.1175 4.02375,0.255 2.78125,0.4375 -5.3125,0.22875 -14.7975,-1.24125 -13.5625,-1.3125 0.33125,-0.0306 0.65516,-0.0426 0.96875,-0.0312 -0.77387,-0.0341 -1.57944,0.002 -2.375,0.0937 0.11684,-0.28614 0.65565,-1.594 0.34375,-0.84375 -0.5475,-0.43375 -1.2225,-0.81625 -1.875,-1.0625 z m 13.71875,2.71875 c -0.39,-0.0225 -0.71875,-0.0387 -1.03125,-0.0625 l -1,0.0937 2.03125,-0.0312 z m -1.03125,-0.0625 3.5,-0.375 c -5.30125,0.145 -5.01625,0.25875 -3.5,0.375 z m 33.875,6.375 c 0.004,-0.006 0.003,-0.0778 0,-0.1875 -0.008,-0.004 -0.0548,0.004 -0.0625,0 0.0187,0.07 0.0559,0.19823 0.0625,0.1875 z m 1.34375,1.90625 c 0.0293,0.0408 0.003,0.0231 0.0312,0.0625 -10e-4,-0.0383 0.001,-0.0519 0,-0.0937 -0.012,0.003 -0.0193,0.0288 -0.0312,0.0312 z m -0.59375,0 c -0.0328,-0.009 -0.0607,-0.0181 -0.0937,-0.0312 -0.0936,-0.057 -0.15733,-0.0706 -0.1875,-0.0625 -0.17367,0.0464 0.52496,0.91162 0.28125,0.0937 z m 1.125,0.65625 c 0.0417,-0.007 0.0829,-0.024 0.125,-0.0312 -0.007,0.0373 0.0656,0.14678 0.15625,0.3125 0.005,0.007 -0.006,0.0247 0,0.0312 0.0333,0.0602 0.10817,0.13858 0.15625,0.21875 -0.0227,-0.0634 -0.0671,-0.11703 -0.0937,-0.1875 0.0957,0.0548 0.26341,0.0444 0.46875,0.0312 -0.27118,-0.17522 -0.52283,-0.38405 -0.625,-0.40625 0.23981,-0.0423 0.48262,-0.0877 0.71875,-0.125 -0.58724,-0.18532 -1.01609,-0.26087 -0.90625,0.15625 z m 0.8125,0.375 c 0.32053,0.2071 0.64385,0.32534 0.625,-0.125 -0.20382,0.0686 -0.42342,0.11221 -0.625,0.125 z m -0.375,0.15625 c 0.0399,0.11139 0.0964,0.25274 0.125,0.34375 0.0124,-0.022 0.0192,-0.0342 0.0312,-0.0625 -0.0811,-0.12815 -0.0985,-0.18505 -0.15625,-0.28125 z m 1.59375,-0.75 c -9.2e-4,-0.1129 -0.0793,-0.24023 -0.25,-0.375 0.13073,0.3151 0.14732,0.30905 0.15625,0.3125 -0.008,-0.0167 -0.007,-0.0143 0,0.0312 1.5e-4,-3.4e-4 0.0312,5.4e-4 0.0312,0 -0.0101,-0.002 0.0692,0.0326 0.0625,0.0312 z m 81.0625,66.40625 c 0.0162,-0.003 0.0889,-0.0303 0.0937,-0.0312 0.0562,-0.009 -0.17632,0.0132 -0.0937,0 l 0,0.0312 z m 1.65625,-0.3125 c 0.031,0.006 0.0367,0.0238 0.0625,0.0312 0.16894,-0.0276 -0.0748,0.006 0.15625,-0.0312 l 0,-0.0312 -0.0312,0 c 0.0412,-0.007 -0.1494,0.0254 -0.1875,0.0312 z m 6.625,29.78125 c 0.45174,1.9243 0.88425,3.71656 1.375,5.875 -0.32132,-1.86455 -0.8109,-3.8516 -1.375,-5.875 z m -19.40625,31.1875 c 0.95961,-0.17586 1.90937,-0.42844 2.8125,-0.78125 -0.92853,0.23506 -1.86987,0.53566 -2.8125,0.78125 z m -121.3125,-137.375 c 0.48473,0.0193 1.05969,0.13751 1.71875,0.4375 l 0.34375,0.25 c -0.0415,0.10421 -0.0566,0.0956 -0.0937,0.1875 -0.20073,0.0296 -0.39467,0.0872 -0.59375,0.125 0.005,-0.14203 0.0432,-0.25478 0.0312,-0.4375 -2.65625,-0.7375 -4.015,0.75125 -6.59375,0.5 -4.62375,0.325 -9.75,1.1625 -13.625,2.15625 1.11315,-0.22401 2.43989,-0.44075 3.875,-0.65625 -4.40644,1.25413 -8.81357,1.27281 -13.21875,2.53125 -4.73086,1.47861 -9.45593,3.02284 -14.125,4.71875 3.07841,-1.1578 6.45002,-2.43122 10.75,-4.0625 l -1.15625,0.28125 c 3.74875,-2.1475 10.9425,-3.00375 18.03125,-4.4375 3.625,-0.51125 7.38375,-0.9425 10.96875,-1.0625 1.39969,0.27656 2.23332,-0.5893 3.6875,-0.53125 z m -1.625,1.09375 c -0.0103,0.0251 -0.0205,0.035 -0.0312,0.0625 0.011,0.0154 0.0221,0.0449 0.0312,0.0625 -0.21764,0.0561 -0.43957,0.0937 -0.65625,0.0937 -0.42186,0 -0.84445,0.0168 -1.28125,0.0312 0.6406,-0.0761 1.28934,-0.17107 1.9375,-0.25 z m 1.875,0.125 c 0.0418,0.004 0.0833,-0.005 0.125,0 l -0.0937,0.0312 c -0.0109,-0.009 -0.0204,-0.0226 -0.0312,-0.0312 z m -1.84375,0.0937 c 0.0117,0.0314 0.0249,0.0598 0.0312,0.0937 -0.0163,0.0145 -0.0494,0.0147 -0.0625,0.0312 -0.61704,0.41904 -0.49193,0.63976 0.0625,0.75 0.0325,0.0229 0.0982,0.0855 0.15625,0.125 -0.45217,-0.0659 -0.875,-0.0754 -0.875,-0.375 0.15781,-0.31531 0.40205,-0.50729 0.6875,-0.625 z m 7.3125,1.125 c 8.66799,-0.20694 16.6236,1.16653 20.90625,0.28125 6.82937,-0.19359 18.27905,4.87584 14.46875,4 0.81657,0.29779 1.41187,0.58301 1.84375,0.84375 -4.35335,-1.26056 -8.71187,-3.09772 -13.6875,-3.71875 -3.78625,0 -7.5575,0.605 -11.34375,-0.65625 l -5.6875,0 c -2.27683,0 -4.39247,-0.52172 -6.5,-0.75 z m -6.15625,0.5 c 0.0214,-3.3e-4 0.0397,3e-5 0.0625,0 0.0741,0.10295 0.19306,0.12551 0.375,0.0312 0.0506,0.007 0.10162,0.02 0.15625,0.0312 -0.17646,0.0646 -0.35274,0.11093 -0.53125,0.1875 0,-0.1051 -0.0382,-0.16948 -0.0625,-0.25 z m 53.8125,2.75 c 0.76375,0.11875 1.59375,0.0412 2.3125,0.34375 3.06625,1.1425 5.04,2.77375 7.8125,3.75 5.2175,2.2725 10.295,5.31125 14.5625,9 l 1.6875,0.0625 c 3.9725,2.955 10.905,10.60375 11.46875,12.46875 -2.62125,-2.77125 -4.86125,-6.1475 -8.15625,-8.21875 0.40594,0.44125 0.75122,0.79248 1.125,1.1875 -4.00971,-3.33724 -8.0223,-6.23005 -12.03125,-9.09375 -4.41625,-2.52375 -8.21125,-4.42125 -12.625,-6.3125 -1.86125,-1.24206 -3.72808,-2.48886 -6.1875,-2.53125 -7.5e-4,-0.18877 0.001,-0.39109 0.0312,-0.65625 z m -14.90625,0.25 c 1.11263,0.36336 1.89073,0.58461 2.4375,0.71875 -0.65554,-0.23023 -1.46266,-0.47469 -2.4375,-0.71875 z m 14.875,0.4375 c 1.90156,0.61955 4.9434,1.27361 5.5625,3.75 0,0.32484 -0.50825,0.63987 -0.90625,0.96875 -0.0603,-0.23462 -0.11446,-0.48396 -0.0937,-0.75 0.19691,-0.0618 0.0556,-0.003 0.625,-0.1875 l -0.28125,-0.0312 c -0.0947,-0.01 -0.19109,-0.0323 -0.28125,-0.0625 0.0214,-0.11377 0.0577,-0.2239 0.0937,-0.34375 -0.425,-1.1725 -1.9025,-1.675 -3.125,-2.15625 -0.37945,-0.71849 -1.57458,0.52498 -1.59375,-1.1875 z m -10.53125,1.5625 c 0.0978,0.0364 0.0374,0.0559 0.59375,0.21875 -0.0215,-0.0613 0.007,-0.16002 0.0625,-0.21875 0.0136,0.0107 0.0186,0.0208 0.0312,0.0312 0.0405,0.27947 0.13554,0.59276 0.3125,0.90625 -0.0112,4.1e-4 -0.0197,0 -0.0312,0 -0.63125,0 -1.28125,0.007 -1.28125,-0.625 l 0.3125,-0.3125 z m 1.6875,0.96875 c 0.33781,0.25616 0.81936,0.36696 2.125,0.25 0.6175,0.2 0.9925,0.0724 1.3125,-0.0625 0.0829,0.18701 0.13575,0.30331 0.1875,0.4375 -1.21633,0.55261 -1.85727,-0.64851 -3.09375,-0.0312 -0.28286,0 -0.44387,-0.26124 -0.53125,-0.59375 z m 8.125,2.125 c 0.50683,0.0609 1.10568,0.22393 1.8125,0.6875 -0.3457,0.27543 -0.13262,0.0837 -1.15625,0.90625 -0.37816,-0.13419 -0.78706,-0.22221 -1.21875,-0.28125 0.0273,-0.0478 0.29536,-0.66713 0.5625,-1.3125 z m 2.8125,0.3125 0.25,0.0937 0.25,0.0937 c -0.0103,0.18314 0.0311,0.3725 0.0625,0.5625 l -0.3125,0.125 c -0.15707,-0.23693 -0.33699,-0.43903 -0.5625,-0.625 0.0148,-0.0107 0.58882,-0.47321 0.3125,-0.25 z m -102.5625,0.28125 c -1.83595,0.7208 -3.63342,1.4988 -5.4375,2.28125 1.7175,-0.77222 3.48579,-1.51853 5.4375,-2.28125 z m -2.9375,0.21875 c -3.52502,2.05972 -10.10065,5.31235 -13.65625,7.5 -3.56885,1.9748 -7.01248,4.15541 -10.3125,6.5625 3.23011,-3.20996 -0.19296,-2.08318 10.9375,-8.9375 9.82626,-4.6225 -1.53375,1.55375 -2.25,2.34375 4.95375,-2.77375 10.0525,-5.28375 15.28125,-7.46875 z m 104.78125,0.0625 c 0.14098,0.10688 0.29086,0.20745 0.4375,0.34375 0.10656,0.15431 0.18835,0.32534 0.28125,0.5 -0.10649,-0.0276 -0.2042,-0.0697 -0.3125,-0.0937 0,0.15812 0.009,0.32191 0,0.46875 -0.37796,-0.10366 -1.23405,-0.31117 -0.65625,-0.15625 0.14423,0.043 0.37452,0.12206 0.65625,0.25 -0.0398,0.39313 -0.1887,0.6875 -0.625,0.6875 -0.07,-0.2792 -0.1733,-0.50516 -0.3125,-0.6875 0.002,-0.004 3.7e-4,-0.0251 0,-0.0312 -0.0118,0.002 -0.0286,-0.0256 -0.0625,-0.0312 -0.005,-0.006 -0.026,0.006 -0.0312,0 -0.10476,-0.11876 -0.21342,-0.22957 -0.34375,-0.3125 l 0,-0.0937 0,-0.0312 0,-0.0312 0,-0.0312 c -0.20774,0.16404 0.30124,-0.21636 0.96875,-0.75 z m -0.25,1.0625 0,-0.0312 -0.0625,0 c 0.0152,0.004 0.0458,0.0263 0.0625,0.0312 z m 4.125,-0.9375 1.5625,0 c 2.6289,3.15531 6.57,3.24964 8.90625,5.75 l -0.34375,0 c -0.0322,0.003 -0.0618,-5.6e-4 -0.0937,0 -1.69755,-1.64623 -4.4011,-2.60814 -6.6875,-3.59375 -0.70808,-0.51702 -1.45376,-1.02889 -2.25,-1.53125 -0.38063,-0.19313 -0.72641,-0.4175 -1.09375,-0.625 z m -2.90625,0.21875 c 0.12735,0.0408 0.25052,0.0801 0.375,0.125 0.0425,0.14698 0.0892,0.28822 0.15625,0.40625 l 0.125,0.21875 c -0.0917,-0.0334 -0.18827,-0.0632 -0.28125,-0.0937 -0.10214,-0.22838 -0.24047,-0.44998 -0.375,-0.65625 z m -1.53125,0.65625 c -0.0384,0.017 -0.0378,0.0537 -0.0312,0.0937 0.0131,5.4e-4 0.013,-0.002 0.0312,0 0.0269,-0.0387 0.0816,-0.0472 0.125,-0.0625 -0.0467,-0.004 -0.10275,-0.0412 -0.125,-0.0312 z m -0.0312,0.0937 c -0.11766,-0.005 -0.0325,0.0706 0.0312,0.125 -0.0172,-0.0425 -0.0238,-0.0796 -0.0312,-0.125 z m 3.71875,0.6875 0.875,0.0312 c 1.6225,1.02432 3.05875,2.25782 4.5625,3.3125 1.19,0.825 2.41625,1.64375 3.8125,1.96875 0.30637,0.1204 0.62104,0.19893 0.9375,0.25 0.073,0.096 0.1254,0.20966 0.1875,0.3125 -4.04878,-0.56782 -6.81495,-3.98982 -10.375,-5.875 z m 11.8125,4.84375 c 0.2157,0.3204 0.42478,0.6683 0.59375,1.0625 -0.0745,0.007 -0.14508,-0.006 -0.21875,0 0.0311,-0.21277 -0.0784,-0.27613 -0.21875,-0.28125 l 0.1875,0.28125 c -0.33902,0.0243 -0.67842,0.0453 -1,0.0312 0.10526,-0.17874 0.10892,-0.17881 0.1875,-0.3125 0.13711,0.083 0.42555,-0.007 0.625,0 l -0.3125,-0.5 c 0.0373,-0.0638 0.13341,-0.24181 0.15625,-0.28125 z m -150.4375,12.84375 c -0.38803,0.35063 -0.77404,0.70303 -1.15625,1.0625 l -0.0312,-0.0312 c -0.0278,-0.0332 -0.0651,-0.0614 -0.0937,-0.0937 0.44694,-0.32531 0.87749,-0.6387 1.28125,-0.9375 z m -1.96875,1.4375 c 0.12209,0.0186 0.26076,0.0505 0.34375,0.0625 -0.41799,0.39964 -0.83933,0.80807 -1.25,1.21875 -0.0917,-0.18322 -0.19018,-0.3179 -0.28125,-0.40625 0.42266,-0.30178 0.79718,-0.59299 1.1875,-0.875 z m 90.28125,1.0625 c 2.0001,0.0718 4.00844,0.13361 5.96875,0.21875 0.62875,0 1.8675,1.2625 2.5,0 0,1.2625 1.2775,0.65625 1.90625,0.65625 9.4625,1.89 18.29375,5.67875 27.125,10.09375 10.21188,5.57095 18.01038,13.8788 23.6875,23.90625 0.10858,0.19178 0.23673,0.36946 0.34375,0.5625 0.10231,0.19454 0.17816,0.36354 0.28125,0.5625 0.72239,1.39413 1.46266,2.87609 2.21875,4.5 l 0.125,0.125 c 0.84464,1.83679 1.62211,3.73246 2.34375,5.65625 0.23508,0.70589 0.44169,1.41226 0.65625,2.125 0.0833,0.47441 0.20206,1.05225 0.4375,1.96875 -0.0944,-0.445 -0.12569,-0.72788 -0.125,-0.875 2.42935,8.51612 3.46875,17.4829 3.46875,26.4375 l 0,7.59375 c -1.08514,0.80805 -2.20304,1.46173 -3.1875,1.59375 -1.11128,-0.18046 -1.71184,-0.27018 -1.40625,-0.21875 l 0,0.0312 0,0.0312 0,0.0312 -0.0625,0.4375 0,0.375 -0.15625,0.0312 -4.78125,2.40625 c -3.22375,1.345 -6.39375,2.95875 -9.78125,4.15625 -21.56625,8.18625 -43.17625,11.22875 -67,9.8125 -12.90375,-1.015 -25.11875,-3.605 -36.8125,-7.09375 -19.78758,-6.32405 -39.07747,-11.56397 -58,-20.03125 0.40422,-2.05132 0.93237,-4.06228 1.5625,-6.0625 3.325,-10.59875 9.61625,-20.20125 17.0625,-28.6875 19.2461,-21.30105 29.39875,-24.72875 38.84375,-31.28125 -4.59773,1.25303 -14.74668,7.4084 -16.625,8.25 9.39763,-6.13869 19.70397,-10.62322 30.59375,-13.9375 5.66699,-1.7251 11.53634,-2.67185 17.4375,-3.15625 -3.3216,0.86856 -6.49864,2.09472 -9.34375,3.65625 -3.43875,1.53375 -6.4825,4.10875 -9.71875,7.0625 -8.64,7.445 -13.935,18.1125 -14.65625,29.59375 -0.82125,11.71875 4.35875,23.58875 12.96875,31.875 4.6475,4.425 10.0275,6.415 14.875,7.9375 3.4425,1.37375 7.10125,3.0625 10.125,3.65625 4.72,0.98875 9.0125,0.7025 12.90625,-0.15625 -4.39125,0.5525 -7.69125,0.76505 -12.5625,0 -3.21375,-0.5775 2.545,-0.91375 4.625,-1.15625 0.905,-0.19125 2.21125,1.27375 3.15625,0.96875 2.01125,0.06 3.84375,-0.53875 5.90625,-1.125 0.86125,-0.34375 0.9375,0.84375 1.375,0.625 2.93125,-0.74625 4.625,-2.85375 6.4375,-3.125 1.36375,-0.34 2.59,-0.72375 3.8125,-1.0625 0.73125,-0.30875 1.43,-0.7 2.125,-1.15625 l 1.1875,-1.0625 c 2.79125,-2.76375 5.36875,-6.30125 7.125,-9.78125 l -0.0937,0 c -1.22125,1.88375 -2.69125,3.6425 -4.875,4.6875 0.8775,-0.5175 1.0225,-0.2175 0.25,0.65625 l -1,0.1875 c 1.1975,-1.6475 2.33625,-3.15375 4.0625,-4.1875 10e-4,-0.001 0.29375,-0.81375 0.4375,-1.21875 0.5125,-0.4 0.80125,-0.18 1.125,-0.125 l 0.59375,-1.1875 c -0.88375,0.5975 -3.2625,2.38625 -3.25,2.375 -3.33,4.30625 -7.74875,7.30875 -12.46875,8.90625 -0.285,0.32375 -0.4625,0.6625 -1,0.6875 -0.44375,-0.0737 -0.85375,-0.0975 -1.25,-0.0625 -0.69375,0.22875 -1.41,0.36125 -2.125,0.46875 l -0.75,0.25 c -0.3775,0.20875 -0.25095,0.35125 0.0312,0.46875 -0.3625,-0.0775 -0.7375,-0.1166 -1.1875,-0.0937 l 0.9375,-0.3125 0.21875,-0.0625 0.34375,-0.1875 c -1.6275,0.345 -3.2925,0.365 -4.9375,0.46875 -0.37125,0.0837 -0.74,0.0762 -1.03125,0.125 -1.18375,0.13875 -2.39,0.35125 -3.09375,-0.28125 l -0.875,-0.125 0.15625,0.125 -0.3125,-0.15625 c -1.23,-0.145 -2.4775,-0.3125 -3.6875,-0.625 -2.3725,-0.495 -4.71,-1.215 -7,-2.1875 -14.605,-5.88625 -26.04125,-19.62625 -23.4375,-35.78125 1.43875,-8.5525 6.23,-16.01875 12.34375,-21.03125 11.6725,-10.3275 28.7775,-11.775 40.40625,-0.78125 4.645,3.60875 11.20875,11.1175 11.46875,15.75 1.19231,2.97116 2.93617,3.84866 4.4375,3.875 -0.17824,1.44503 0.0832,2.89468 0.28125,4.375 l 0.5625,-0.875 c -0.055,-1.11375 -0.3625,-1.23125 -0.625,-0.25 0.40562,-1.12375 0.54375,-2.22328 0.5625,-3.3125 1.15614,-0.20255 2.04462,-0.84084 2.1875,-1.21875 3.65786,-5.54029 1.41341,-10.67487 -4.28125,-20.28125 2.45712,4.68974 -6.2793,-4.43164 -11.6875,-9.59375 -2.4582,-3.11367 -6.13211,-5.21365 -10.40625,-6.4375 z m -95.875,2.28125 c -5.41884,4.4751 -9.46541,10.75476 -14.875,15.625 -1.8925,1.8925 -3.77125,5.04 -5.03125,7.5625 -0.50871,1.01743 -1.40936,2.03068 -1.75,3.375 -0.0877,-0.004 -0.66201,-0.0353 -0.5625,-0.0312 0.0901,-0.70773 0.68938,-1.59219 0.78125,-2.0625 1.03375,-1.93 1.85,-4.19125 3.03125,-6.21875 6.3189,-6.56025 13.22183,-14.56082 18.40625,-18.25 z m 191.5,13.4375 c 1.12719,-0.24536 2.62273,2.52352 5.09375,6.40625 -0.0573,-0.0761 -0.12833,-0.14311 -0.1875,-0.21875 -0.0204,-0.0315 -0.042,-0.0623 -0.0625,-0.0937 -1.30306,-2.00424 -2.68249,-3.94944 -4.3125,-5.8125 -0.2029,-0.2029 -0.41356,-0.2653 -0.59375,-0.25 0.0214,-0.007 0.0408,-0.0265 0.0625,-0.0312 z m -0.78125,0.75 c 0.0276,-0.006 0.0637,0.007 0.0937,0 -0.01,0.0557 -0.0312,0.0996 -0.0312,0.15625 -0.0238,-0.0509 -0.0387,-0.10541 -0.0625,-0.15625 z m -165.28125,1.5 c -3.58671,2.97741 -11.21732,8.96482 -19.90625,18.28125 -1.28704,0.42069 4.98329,-5.6847 6.6875,-7.34375 l -2.09375,1.9375 c 0.15722,-0.22961 0.38101,-0.50819 0.59375,-0.78125 0.72611,-0.69618 1.45084,-1.38045 2.1875,-2.0625 3.94219,-3.74531 8.13602,-7.08215 12.53125,-10.03125 z m -40.3125,3.0625 c 0.0789,0 0.15765,0.0264 0.21875,0.0625 -0.14346,0.0196 -0.29029,0.0338 -0.40625,0.0625 0.0641,-0.0416 0.12177,-0.0856 0.1875,-0.125 z m 0.28125,0.125 c 0.24586,0.21789 0.34513,0.71639 0.375,1.1875 -0.008,-0.006 -0.4802,-0.60397 -0.5,-0.625 -0.0421,-0.20496 -0.10192,-0.36604 -0.125,-0.34375 -0.13375,0.1625 -0.82375,0.60375 -0.96875,0.65625 -0.0405,0.017 -0.12046,0.048 -0.15625,0.0625 -0.026,-0.0315 -0.0572,-0.0964 -0.0625,-0.15625 -8.7e-4,-0.01 9e-5,-0.0211 0,-0.0312 0.21854,-0.20082 0.44805,-0.38938 0.6875,-0.5625 0.22366,-0.0763 0.48713,-0.1254 0.75,-0.1875 z m -2.46875,2.0625 c 0.17984,-0.0725 0.0381,0.32125 -0.875,1.75 l -1.46875,1.90625 c -0.20424,0.44492 -0.45007,0.8646 -0.71875,1.28125 -0.29133,0.33747 -0.56713,0.69434 -0.875,1.03125 l -0.125,-0.0937 c 1.35234,-1.66363 2.3945,-3.80343 3.71875,-5.59375 0.13451,-0.1227 0.27722,-0.25443 0.34375,-0.28125 z m 2.34375,0.6875 c -1.1123,2.1876 -2.28831,4.32064 -3.9375,5.96875 -0.38703,0.38742 -0.73387,0.73166 -1.09375,1.09375 l 0.625,-0.78125 c 0.38,-0.5125 0.85375,-1.0775 1.125,-1.5625 1.16562,-1.79752 2.14968,-3.69206 3.28125,-4.71875 z m 216.78125,1.875 c 0.74115,0.584 1.2219,0.93439 1.5625,1.15625 0.14743,0.3054 0.50103,0.84792 1.0625,1.65625 0.20245,0.36723 0.41676,0.72433 0.625,1.09375 -0.0754,-0.18511 -0.14584,-0.37428 -0.21875,-0.5625 0.57272,0.80096 1.44086,2.0157 2.46875,3.34375 l -0.125,0.125 -0.0312,0.0312 c 0.12703,-0.007 0.27924,-0.0315 0.28125,-0.0312 0.17002,0.21919 0.25364,0.35874 0.4375,0.59375 l 0.0312,-0.0312 c -0.13365,-0.19252 -0.2901,-0.42955 -0.375,-0.5625 -0.0305,0.002 0.42149,-0.005 0.34375,0 0.0388,0.0377 0.052,0.0519 0.0937,0.0937 l 0.21875,0.21875 0.1875,-0.1875 c 1.96625,0.61125 0.53,0.37875 0.96875,0.625 l 0,0.875 c -0.28875,0.8625 1.23,1.65625 2.40625,2.8125 1.10997,2.4335 1.55686,5.06979 1.90625,7.59375 l -0.40625,0.34375 c -0.0399,-0.60887 -0.0312,-1.22384 -0.0312,-1.84375 -0.6325,-1.89375 -1.25,-3.17125 -1.25,-5.0625 -0.6325,-1.26125 -2.52625,-1.86375 -3.15625,-3.125 l 0,-1.90625 -0.625,0.625 c -0.46177,-0.36968 -0.85125,-0.77163 -1.21875,-1.1875 0.54886,0.67818 -0.0312,2.49171 -0.0312,3.71875 0,0.63125 1.25,0.6175 1.25,1.25 0,1.26125 0.6375,3.15625 -0.625,3.15625 -0.43462,0 -0.77541,-0.33086 -1.0625,-0.75 0.99049,1.14413 2.12625,0.0453 1.3125,-1.5625 0.002,-0.62563 -0.0419,-0.71905 -0.1875,-0.78125 0.005,-0.004 -0.004,-0.0281 0,-0.0312 -0.20014,-0.0831 -0.58091,-0.10691 -1.3125,-1.3125 -0.02,-1.02875 0.21275,-2.23375 0.0937,-3.03125 -1.6475,-0.78125 -2.365,-5.415 -4.59375,-7.34375 z m 6.375,7.125 -0.0937,0.0625 -0.1875,0.1875 c 0.0137,0.0197 0.0174,0.0421 0.0312,0.0625 0.84407,0.0271 0.52193,-0.0668 0.40625,-0.125 0.006,-0.003 -0.015,-0.0288 0,-0.0312 l -0.15625,-0.15625 z m -0.25,0.3125 c -0.0146,-4.7e-4 -0.0159,5.3e-4 -0.0312,0 0.11739,0.14998 0.15809,0.21845 0.28125,0.375 -0.11568,-0.1608 -0.15744,-0.24243 -0.25,-0.375 z m -0.0312,0 c -0.011,-0.014 -0.0203,-0.0174 -0.0312,-0.0312 l -0.0312,0.0312 c 0.0337,0.001 0.0318,-10e-4 0.0625,0 z m 25.8125,-7.0625 c -0.19219,-0.0188 -0.45063,0.0281 -0.8125,0.28125 -0.31875,0.50875 -0.9375,1.53125 -0.9375,1.53125 -2.4225,1.27125 -4.1125,3.4625 -5.8125,5.625 l 1.25,-0.46875 c 1.06,-1.16125 0.975,-1.4975 -0.1875,-0.6875 2.74875,-1.76375 4.92125,-3.85125 7,-6.125 -0.17937,-0.0431 -0.30781,-0.13749 -0.5,-0.15625 z m -34.6875,0.3125 c 0.27281,0.33333 0.56101,0.67215 0.84375,1 2.48491,3.56363 3.30145,4.67141 3.65625,5.21875 -0.12941,-0.11813 -0.26138,-0.20889 -0.40625,-0.28125 -1.55133,-1.99494 -2.84694,-3.96915 -4.09375,-5.9375 z m 15.53125,1.125 c 0.003,-0.006 0.0279,0.006 0.0312,0 0.13949,0.38192 0.2487,0.76786 0.375,1.15625 -0.22915,-0.38994 -0.57621,-0.85603 -0.40625,-1.15625 z m -9.40625,2.28125 c 0.3973,0.94065 0.87736,1.81029 1.71875,2.46875 -0.67207,-0.78277 -1.22766,-1.60946 -1.71875,-2.46875 z m -229.28125,0.5 c -0.0126,0.17069 -2.20217,2.80101 -3.53125,5.40625 0.86223,-1.84628 1.88228,-3.62433 3.28125,-5.21875 0.17641,-0.16359 0.2524,-0.22001 0.25,-0.1875 z m 1.21875,0.3125 c 0.0415,0.0476 0.0705,0.10188 0.0937,0.1875 -0.0202,0.0217 -0.0423,0.0408 -0.0625,0.0625 l -0.125,-0.125 c 0.034,-0.0393 0.0599,-0.0858 0.0937,-0.125 z m -0.78125,0.125 c -0.95107,0.87039 -1.70048,1.92952 -2.375,3.0625 l -0.75,0.90625 c 0.52637,-0.90158 1.02813,-1.63468 1.53125,-2.25 0.32687,-0.515 1.02641,-1.32531 1.59375,-1.71875 z m 2.53125,0.375 c 0.0523,0.0211 0.69614,0.25442 0.6875,0.25 -0.2687,0.2721 -0.52511,0.54822 -0.78125,0.8125 0.0617,-0.62248 0.0148,-0.26101 0.0937,-1.0625 z m 228.4375,0.9375 c -0.004,-0.065 0.0977,-0.002 0.25,0.125 l -0.125,0.125 c -0.0484,-0.0897 -0.1229,-0.21701 -0.125,-0.25 z m 2.71875,1.875 0.0312,0.46875 c 0.009,0.008 0.0212,0.0179 0.0312,0.0312 0.0208,0.11901 0.0196,0.20271 0.0312,0.25 -0.0356,-0.0419 -0.0348,-0.0844 -0.0625,-0.125 l 0,0.25 c -0.0327,-0.18904 -0.0657,-0.25294 -0.0625,-0.3125 -0.10643,-0.18891 -0.10166,-0.39341 0.0312,-0.5625 z m -0.0312,0.5625 c 0.0139,0.0247 0.0453,0.0374 0.0625,0.0625 l 0,-0.15625 c -0.0258,-0.0222 -0.0592,0.0326 -0.0625,0.0937 z m 6.4375,-0.3125 c 0.64484,3.01121 1.16671,6.04042 1.875,8.875 0,0.41975 0.12173,0.89614 0.28125,1.40625 -0.23898,0.19098 -0.48875,0.37372 -0.71875,0.5625 -0.44679,-4.29201 -1.01644,-8.12918 -1.4375,-10.84375 z m -241.28125,0.84375 c 0.004,0.0632 0.0209,0.12315 0.0312,0.1875 0.012,0.0741 0.0175,0.14315 0.0312,0.21875 0.003,6.9e-4 0.34736,0.0398 0.59375,0.0625 -0.13468,0.16475 -0.27247,0.33071 -0.40625,0.5 -0.0182,0.0231 -0.0443,0.0393 -0.0625,0.0625 -0.0309,-0.0293 -0.0418,-0.0564 0.0625,-0.0625 -0.1144,-0.19422 -0.15398,-0.37791 -0.1875,-0.5625 -0.002,-4.4e-4 -0.43036,-0.036 -0.375,-0.0312 -0.082,0.0965 -0.16879,0.18411 -0.25,0.28125 l -0.125,0.15625 c -0.0348,-0.15861 -0.0515,-0.31576 -0.0625,-0.46875 -0.0972,-0.008 0.502,0.0369 0.4375,0.0312 0.10631,-0.12511 0.20506,-0.25099 0.3125,-0.375 z m -2.21875,0.1875 c 0.0748,0.007 0.18001,0.0276 0.21875,0.0312 -1.34734,2.7278 -2.24779,5.8061 -3.375,8.4375 -2.78277,6.67689 -6.54557,12.87712 -9.125,19.4375 -0.18114,-0.0896 -0.35041,-0.19149 -0.53125,-0.28125 2.04253,-4.86042 4.53066,-9.67438 6.90625,-14.4375 2.07907,-3.67739 3.19597,-7.76109 4.84375,-11.59375 -0.19506,0.48614 -0.35703,0.965 -0.4375,1.40625 0.51901,-1.13514 1.01133,-2.12347 1.5,-3 z m 1.65625,1 c 0.24192,0.0246 0.45844,0.0557 0.59375,0.0625 -0.12437,0.16044 -0.25084,0.3032 -0.375,0.46875 -0.0905,-0.18138 -0.15965,-0.35633 -0.21875,-0.53125 z m 232.15625,1.375 c 0.211,0.12156 0.31313,0.19228 0.375,0.21875 0.0873,0.61253 0.0735,1.1468 0.125,1.5 -0.12615,-0.35834 -0.30706,-1.02523 -0.5,-1.71875 z m 13.90625,5.28125 c 0.007,0.10782 0.0232,0.20514 0.0312,0.3125 -0.022,-0.0652 -0.0396,-0.12157 -0.0625,-0.1875 l -0.0312,-0.0937 c 0.0167,-0.0148 0.0458,-0.0165 0.0625,-0.0312 z m 1.8125,0.0937 0.0625,0.4375 c -0.18368,-0.10719 -0.13586,-0.2684 -0.0625,-0.4375 z m -2.03125,0.0937 0.0937,0.3125 c 0.12616,0.39169 0.25891,0.68671 0.375,1.03125 0.15985,0.82628 0.34009,1.61497 0.46875,2.40625 0.10717,0.6005 0.12953,1.18297 0.0625,1.75 l -0.15625,-0.375 c -0.52493,-1.36718 -0.99891,-2.92185 -1.46875,-4.5625 0.20782,-0.18987 0.41688,-0.37642 0.625,-0.5625 z m -0.875,0.78125 c 0.0853,0.44555 0.15909,0.901 0.25,1.34375 -0.10367,-0.42733 -0.22076,-0.85086 -0.3125,-1.28125 0.0219,-0.0202 0.0406,-0.0424 0.0625,-0.0625 z m -0.875,0.875 c 0.29294,0.90049 0.62302,1.86284 0.5625,2.71875 -0.15835,-0.52142 -0.27969,-1.01186 -0.4375,-1.46875 0.13619,0.57402 0.29296,1.12564 0.4375,1.65625 -0.10509,0.71055 -0.53071,1.33769 -1.5625,1.75 -0.55125,0 -1.11673,0.0144 -1.25,-0.40625 -0.003,-0.008 0.002,-0.0226 0,-0.0312 1.30488,-0.4717 0.91442,0.24383 1.78125,-0.5625 -0.0283,-0.36248 -0.0938,-0.70408 -0.125,-1.0625 -0.11125,0.77625 -0.69125,0.775 -0.6875,1.1875 l -0.0312,0.21875 c -0.83867,0.0133 -0.63608,0.0234 -0.96875,0.0312 -0.10723,0.003 -0.24388,-0.002 -0.3125,0 l -0.46875,-0.5 c 0.68774,-0.81981 1.38478,-1.63968 2.09375,-2.46875 0.15237,0.43862 0.28816,0.80992 0.34375,1.15625 -0.0433,-0.4813 -0.0774,-0.96556 -0.125,-1.4375 0.11726,-0.13673 0.22532,-0.26878 0.34375,-0.40625 0.12738,-0.1369 0.27711,-0.24429 0.40625,-0.375 z m -4.96875,0.21875 c 0.087,0.64118 0.1949,1.28983 0.28125,1.90625 0.0466,0.42256 0.42145,1.01483 0.8125,1.53125 -0.0877,0.1349 -0.16102,0.26692 -0.25,0.40625 -0.84917,-1.11275 -1.14417,-2.36089 -1.25,-3.65625 0.12948,-0.0733 0.27026,-0.12003 0.40625,-0.1875 z m 1.4375,3.875 c 0.0258,0.0298 0.0372,0.0342 0.0625,0.0625 l -0.0312,0.0312 c 0.042,-0.004 0.0413,-0.002 0.0625,0 0.0125,0.0138 0.0194,0.0179 0.0312,0.0312 -0.0914,0.0954 -0.59431,0.30495 0.1875,0.1875 0.31246,0.30595 0.54735,0.45979 0.34375,0.0937 0.21926,-0.10098 0.39911,-0.15746 0.5625,-0.21875 -0.12393,0.53521 -0.59375,1 -0.59375,1 -0.35702,-0.2679 -0.67409,-0.55251 -0.9375,-0.84375 0.0987,-0.11804 0.21392,-0.22595 0.3125,-0.34375 z m -93.5,0.40625 c -0.24125,1.14625 -0.72,2.295 -1.125,3.5625 -0.5625,1.63375 0.2875,4.02375 -0.34375,6.84375 -0.0162,0.46375 -1.0125,-0.0163 -1.125,0.875 -0.52625,1.9975 -0.69625,3.94125 -1.78125,5.625 -0.26625,0.92125 -1.975,1.48375 -2.34375,2.28125 -0.7775,1.91375 -3.66875,6.98125 -1.40625,4.5625 3.185,-3.865 4.7175,-6.81375 6.15625,-10.875 0.965,-3.4025 1.2625,-6.735 1.4375,-10.15625 0.1375,-0.945 0.39875,-1.83125 0.53125,-2.71875 z m 99.78125,1.28125 c 0.0294,0.0131 0.0572,0.032 0.0937,0.0312 -0.0225,0.0317 -0.0389,0.0623 -0.0625,0.0937 -0.0165,-0.0396 -0.0149,-0.0853 -0.0312,-0.125 z m -103.96875,1.59375 -0.5,2.25 c 0.1525,-0.3625 0.35125,-0.72125 0.625,-1.0625 0.225,-0.4675 0.0288,-0.76875 -0.125,-1.1875 z m -1.15625,4.25 -0.125,0.375 0,0.375 0.125,-0.75 z m -0.125,0.75 -0.21875,1.1875 c 0.1875,-0.38875 0.4175,-0.69375 0.65625,-0.96875 -0.23625,0.185 -0.43,0.20875 -0.4375,-0.21875 z m -0.21875,1.1875 c -0.2325,0.5325 -0.5525,1.125 -0.71875,1.90625 0.3225,-0.63 0.60625,-1.24875 0.71875,-1.90625 z m -159.8439,15.15645 c 0.23131,0.14958 0.42,0.2834 0.65625,0.4375 -1.33221,3.98118 -2.4025,7.9305 -2.78125,12.09375 0,0.81304 0.11194,1.62922 0.25,2.4375 -0.19741,-0.26032 -0.39783,-0.76995 -0.625,-2.0625 0.895,4.3075 0.5188,8.29125 0.0625,12.625 0.03,-2.05375 0.12125,-4.34375 0.28125,-6.8125 0.0888,-2.2025 -1.045,-4.89 -0.46875,-7.875 0.3664,-3.54548 1.36315,-7.16425 2.625,-10.84375 z m 116.4375,2 c 1.6125,0.0262 2.6125,0.9925 3.5625,1.8125 -1.22375,-0.0813 -2.6125,-0.9025 -3.5625,-1.8125 z m -88.5,12.09375 c 12.2391,6.02377 28.53641,8.92022 42.5,14.125 4.2675,1.5375 8.985,2.5825 14.25,3.96875 12.44063,3.7244 25.01946,5.73035 37.8125,6.25 -12.84107,0.43498 -25.16244,2.00876 -37.125,4.1875 -19.08727,3.88622 -35.66278,9.82754 -53.65625,15.125 -4.41345,-8.31654 -3.58896,-18.91511 -4.53125,-28.8125 -0.22634,-4.90217 0.0884,-9.71627 0.75,-14.84375 z m 181.6875,1.6875 c 0.2146,0.30622 0.34297,0.59996 0.28125,0.90625 -2.15505,1.34315 -4.43766,2.68912 -7.21875,4.21875 -3.8225,1.8925 2.07125,-2.5825 4.28125,-4.3125 0.57718,-0.50337 1.67788,-0.60857 2.65625,-0.8125 z m 0.21875,1.28125 c 0.0196,1.4003 0.33673,2.79287 -0.3125,4.1875 -0.20875,0.44841 -0.51852,0.89352 -0.96875,1.34375 -0.0703,0.10547 -0.10856,0.20696 -0.15625,0.3125 0.0546,-0.20269 0.14299,-0.42014 0.25,-0.625 -0.16408,0.28596 -0.29608,0.56918 -0.34375,0.875 -0.10799,0.35964 -0.0862,0.70238 0,1.0625 0.01,0.0411 0.02,0.0839 0.0312,0.125 0.0217,0.10909 0.0328,0.20325 0.0625,0.3125 0.009,0.0218 0.0228,0.0407 0.0312,0.0625 0.32275,1.13272 1.02977,2.27506 1.59375,3.1875 -0.01,0.0605 0.0234,0.1006 0.0937,0.125 0.011,0.0178 0.021,0.0449 0.0312,0.0625 0.0307,-0.0192 0.0644,-0.014 0.0937,-0.0312 0.035,3.2e-4 0.0803,0.005 0.125,0 0.0291,0.0718 0.0704,0.14696 0.0937,0.21875 0,-0.11112 0.0272,-0.20613 0.0625,-0.28125 0.12193,-0.0214 0.22619,-0.0412 0.40625,-0.0937 -0.0111,-0.032 -0.0195,-0.062 -0.0312,-0.0937 1.83494,-0.25725 2.13682,3.6543 4.9375,4.0625 0.0543,-0.16451 0.15433,-0.30396 0.28125,-0.4375 0.005,-0.006 0.0264,0.006 0.0312,0 1.14774,-0.0115 2.73199,-0.69353 4.09375,-1.09375 0.90429,-0.0484 1.81215,-0.0211 2.71875,0 2.32884,0.64439 4.50809,1.07878 6.8125,1.25 -1.16477,0.14906 -0.86982,0.39819 1.5625,0.71875 2.06281,0.0919 3.77218,-0.54221 5.53125,-0.0625 -0.65144,0.60847 -0.96047,1.48307 -1.1875,2.375 -0.0387,10e-4 -0.08,0.3875 -0.125,0.5625 l -0.28125,1.34375 -0.5625,2.75 c -0.7625,3.69125 -1.57625,7.5025 -2.0625,10.71875 -1,6.48 -0.63625,10.4125 0.21875,6.1875 -0.24536,4.64395 1.31853,12.16562 -0.65625,19.875 -0.78634,-0.62532 -1.56232,-1.22952 -2.34375,-1.84375 0.2596,-1.19928 0.48566,-2.59438 0.625,-4.28125 1.39,-14.56 -0.4875,17.875 1.28125,-3.6875 -0.68375,-5.305 -0.62225,-11.38125 0.0312,-16.84375 -1.78625,6.9225 -1.71375,14.85875 -1.78125,20.5 9.8e-4,1.46074 -0.16408,2.80913 -0.4375,4.09375 -1.62589,-1.27599 -3.25337,-2.55179 -4.875,-3.78125 -0.5825,-0.1275 -1.06875,-0.1275 -1.59375,-0.65625 -0.34875,-0.485 -0.74,-0.9225 -1.15625,-1.3125 l -2.53125,-1.8125 -0.96875,-0.5625 c -0.5575,-0.22375 -0.54625,0.03 -0.34375,0.375 -0.31375,-0.40125 -0.705,-0.80375 -1.21875,-1.1875 -0.8525,-0.4425 -1.71625,-0.92625 -2.5625,-1.53125 1.0525,0.49375 1.89875,1.01375 2.5625,1.53125 l 1.5625,0.8125 0.5,0.21875 c -1.92875,-1.42 -3.985,-2.63375 -5.96875,-3.96875 -0.47875,-0.26 -0.93125,-0.52875 -1.3125,-0.71875 -1.52125,-0.805 -3.12125,-1.46125 -3.78125,-2.46875 l -1.125,-0.625 0.1875,0.1875 -0.375,-0.3125 -4.6875,-2.71875 c -3.18125,-1.55125 -6.3075,-3.34 -9.6875,-4.75 -18.13737,-8.21012 -36.76745,-11.59333 -56.75,-12.25 10.98384,-0.38532 22.14301,-1.78598 33.5625,-4.0625 7.85125,-1.83625 14.3375,-4.87 20.34375,-7.84375 4.5075,-1.88375 9.495,-3.51625 13.0625,-5.28125 2.70354,-1.36208 5.13775,-2.77402 7.40625,-4.21875 z m -213.28125,0.5 c -0.10875,8.06125 0.36125,9.27125 -0.28125,24.53125 0.53875,-11.75438 0.9075,-13.48234 1.25,-13.15625 -0.4917,6.86971 -0.66038,13.8033 -0.34375,20.53125 -0.30876,1.16151 -0.41546,2.33354 -0.375,3.46875 -0.0105,-0.0318 -0.0206,-0.062 -0.0312,-0.0937 -1.99625,-11.54125 -1.04,-23.295 -0.21875,-35.28125 z m 198.5,0.65625 c -1.43,0.96875 -3.605,1.55 -5.4375,1.6875 1.835,-1.26625 3.75375,-1.48 5.4375,-1.6875 z m 13.5625,6.84375 c 0.19158,0.37698 0.4056,0.77939 0.65625,1.15625 -0.22494,-0.29879 -0.46224,-0.69914 -0.65625,-1.15625 z m 35.90625,4.34375 c 1.34301,-0.0384 2.65735,0.25447 3.6875,0.75 -1.01262,-0.1352 -1.94806,-0.35631 -2.71875,-0.6875 -0.34609,-0.0281 -0.66694,-0.0592 -0.96875,-0.0625 z m -6.0625,4.4375 -0.0312,0.0312 -0.0312,0.21875 c -0.0728,0.24113 -0.089,0.50518 -0.0937,0.78125 l 0.15625,-0.96875 0,-0.0625 z m 5,0.5 c -0.1991,0.0345 -0.37545,0.26208 -0.75,0.53125 0.0744,-0.0451 0.0245,0.003 0.125,-0.0625 0.76,-0.50125 0.33625,-0.42875 1.9375,0.59375 -0.75937,-0.83125 -1.04703,-1.10844 -1.3125,-1.0625 z m -2.78125,0.53125 c 0.22487,0.45697 0.47275,1.03346 0.71875,1.75 -0.12522,-0.11037 -0.23698,-0.24571 -0.34375,-0.375 -0.17406,-0.21077 -0.31004,-0.44427 -0.375,-0.71875 0.0289,-0.18026 0.005,-0.30913 -0.0312,-0.4375 0.004,-0.0721 0.0176,-0.14223 0.0312,-0.21875 z m 1.75,0.28125 0.3125,0.0937 c -0.11899,-0.0485 -0.22338,-0.0886 -0.3125,-0.0937 z m -242.8125,12.4375 c 0.3398,-0.047 0.60839,0.22133 0.71875,0.5625 -0.0842,-0.008 -0.34196,-0.0378 -0.28125,-0.0312 l -0.0312,0 0,0.0312 -0.0937,0.0937 -0.0937,0.0937 c -0.0193,-0.0151 -0.0292,-0.0123 -0.0625,-0.0312 5.4e-4,0.03 0.001,0.0593 0,0.0937 l -0.0312,0.0312 c -0.007,-0.0544 -0.007,-0.12842 -0.0312,-0.1875 0.0388,0.0189 0.0341,0.0463 0.0625,0.0625 -0.002,-0.11273 -0.0448,-0.13831 -0.0937,-0.0937 -0.001,0.009 3.1e-4,-0.007 0,0.0312 -0.0108,0.0116 -0.048,0.0188 -0.0625,0.0312 0.002,0.01 0.026,0.02 0.0312,0.0312 -0.0339,0.0455 -0.0816,0.10206 -0.125,0.1875 -0.12549,10e-4 -0.24286,0.005 -0.40625,0 0.0889,-0.0129 0.15794,-0.0266 0.28125,-0.0312 -0.26674,0.005 -0.70078,0.004 -0.5625,0 0.0548,0.002 0.10297,0.0294 0.15625,0.0312 -0.0922,0.0198 -0.16649,0.0332 -0.21875,0.0625 0.0148,-0.0325 0.0472,-0.0613 0.0625,-0.0937 0.0956,-0.20256 0.19679,-0.42247 0.3125,-0.625 0.1575,-0.1575 0.32203,-0.22969 0.46875,-0.25 z m 136.65625,0.21875 c 9.73753,0.0259 19.635,0.93328 29.90625,3.1875 7.085,1.64125 13.56875,2.40875 19.59375,4.125 4.34875,1.3975 8.5375,3.9625 11.84375,5.59375 5.19375,2.60125 9.7975,4.6925 14.15625,6.875 -4.68625,-2.73625 -8.32375,-4.35125 -13.71875,-6.9375 -3.645,-1.64625 3.2125,-0.18625 5.6875,0.9375 1.135,0.32375 2.0675,2.3125 3.1875,2.625 2.16,1.23125 4.34125,2.03875 6.8125,3.15625 1.1125,0.385 0.3525,1.30875 0.90625,1.5 3.17125,1.795 6.3625,2.1975 8.125,3.78125 1.3625,1.175 2.50375,2.33125 3.65625,3.40625 0.65043,0.56012 1.3159,1.108 2.03125,1.625 -0.99771,2.47578 -2.36618,4.85702 -3.84375,7.5625 -3.7325,6.8625 -7.505,13.32 -11.53125,19.1875 -2.1125,2.61375 -3.85125,6.41875 -6.3125,7.96875 -2.33,3.92875 -3.535,5.13875 -6.125,7.6875 -4.34,3.96875 -9.67375,7.42625 -14.375,9.5625 -2.16875,0.85875 -5.13875,1.85125 -7.625,3.03125 -2.59125,1.12875 -3.69875,1.68125 -6.0625,1.375 -3.89958,-0.035 -7.62841,-0.004 -11.0625,0.46875 5.65697,-5.31957 10.82617,-13.66279 11.125,-20.09375 -1.05375,-11.44125 -6.6325,-4.91375 -6.75,-4.96875 -1.01096,1.03716 -1.6846,2.06745 -2.25,3.125 l 0,-1.125 -0.125,0.0625 0.0937,1.125 c -1.91574,3.61719 -2.39944,7.45393 -8.96875,12.09375 5.66625,-4.26125 -1.36125,6.41875 -9.0625,6.53125 -8.65992,0.57144 -19.281,4.79939 -28.09375,0.46875 -0.002,0.008 0.0389,-0.24964 0.0312,-0.21875 l -0.125,-0.0625 -0.25,-0.0937 -1.03125,-0.40625 c -0.0223,-0.008 -0.0403,-0.0233 -0.0625,-0.0312 -0.29282,-0.18093 -0.58699,-0.35969 -0.875,-0.5625 -2.12375,-1.455 -4.45125,-2.9975 -6.6875,-5.21875 -10.4625,-12.16625 -14.915,-30.0375 -1.75,-42.125 3.215,-3.10375 6.135,-6.19375 9.625,-8.40625 2.635,-1.44375 5.8825,-1.8 8.1875,-2.25 3.6525,-0.79 6.82,-1.26 9.9375,-1.5 -3.45625,-0.0575 -5.9975,0.3375 -9.75,1.25 -2.5375,0.585 1.47125,-1.9 3.28125,-2.3125 0.74875,-0.31875 2.00875,0.8075 2.71875,0.59375 1.615,-0.0525 3.11125,-0.51375 4.90625,-0.625 0.785,-0.1875 0.53375,0.925 0.90625,0.875 2.3025,0.10625 4.47875,-0.76725 5.875,0.0312 1.035,0.59 1.90125,1.20125 2.75,1.75 0.5375,0.35125 1.0275,0.74125 1.625,1.03125 l 1.28125,0.40625 c 2.93875,1.215 6.0525,3.48375 8.5,6.1875 l 0.0625,-0.125 c -1.34625,-1.63625 -2.43875,-3.2925 -3.59375,-5.3125 0.50375,0.87 0.17875,0.995 -0.625,0.28125 l -0.21875,-1 c 1.5675,1.09 3.29125,2.23125 3.65625,4.25 -10e-4,-0.002 0.70375,0.49625 1.0625,0.75 0.24375,0.575 -0.085,0.74625 -0.28125,1.03125 l 0.71875,1.03125 c 0.155,-1.11 -1.05375,-3.7975 -1.0625,-3.8125 -3.4825,-4.35125 -7.89125,-7.5075 -12.6875,-9.375 -0.455,0.0937 -0.8275,0.25225 -1.28125,-0.0312 -0.3225,-0.3125 -0.6675,-0.5475 -1.03125,-0.75 -0.70875,-0.27 -1.425,-0.4375 -2.15625,-0.59375 l -0.78125,-0.0625 0.375,-0.0312 c -1.67125,-0.45375 -3.38,-0.6175 -5.09375,-0.84375 -0.39125,-0.0237 -0.7875,0.0657 -1.09375,0.0937 -1.2425,0.17375 -2.45,0.27125 -3.25,-0.21875 l -0.90625,0.0312 0.1875,0.0937 -0.34375,-0.0625 c -1.3,0.0537 -2.6125,0.11875 -3.90625,0.34375 -2.54125,0.3175 -5.11125,0.9075 -7.625,1.75 -16.115,4.85875 -29.465,20.14625 -27.5625,39.125 0.58577,5.99286 2.41359,11.6423 5.15625,16.78125 -14.92993,-7.30732 -31.23717,-20.47645 -42.1875,-33.53125 -5.56516,-6.80777 -10.1001,-13.72645 -14.34375,-21.375 11.60287,-3.36164 24.3643,-9.02429 36.3125,-11.8125 4.27126,-0.9425 8.6875,-2.31125 13.75,-3.46875 16.40781,-2.99922 32.20828,-5.44939 48.4375,-5.40625 z m 27.375,63.65625 c 0.3225,-0.10625 0.67125,-0.0175 0.875,-0.625 -0.10125,-0.43125 -0.28125,-1.28125 -0.28125,-1.28125 1.00625,-1.80125 0.74,-3.8275 0.34375,-5.78125 l -0.5625,0.875 c 0.0762,1.115 0.4125,1.2475 0.65625,0.25 -0.6,2.28125 -1.055,4.3675 -1.03125,6.5625 z m -163.3125,-63 c 0.0105,1e-5 0.0513,-9e-5 0.0625,0 l 0,0.28125 c -0.0446,0.001 -0.0873,5.8e-4 -0.125,0 -0.0262,-0.0279 -0.0642,-0.0378 -0.0937,-0.0625 -0.005,-0.004 0.005,-0.0269 0,-0.0312 -0.019,-0.0216 -0.0637,-0.0395 -0.0937,-0.0625 -0.077,-0.0591 -0.13129,-0.12539 0.25,-0.125 z m -0.15625,0.25 c 0.0151,0.01 0.0154,0.0217 0.0312,0.0312 -0.0422,-0.002 -0.0803,0.005 -0.125,0 0.031,-0.005 0.0805,-0.0242 0.0937,-0.0312 z m -1.53125,0.15625 c 0.0392,0.20687 0.19025,0.43313 0.0312,0.59375 l 0,0.15625 0,0.0937 c 0.69314,0.28657 -0.0922,-0.0238 0.34375,0.15625 -0.0146,0.0514 -0.0172,0.10422 -0.0312,0.15625 0.21928,0.11378 0.4801,0.24421 0.75,0.375 0.005,0.0334 -0.003,0.0569 0,0.0937 -0.0166,-0.006 -0.29714,-0.1306 -0.8125,-0.34375 -0.0242,0.0948 -0.0413,0.18626 -0.0625,0.28125 -0.0104,0.0418 -0.0223,0.083 -0.0312,0.125 l -0.0937,0.0312 c 0.0288,-0.0588 0.0275,0.0563 0.0625,0.21875 0.001,0.007 -9.5e-4,0.0238 0,0.0312 -0.0966,0.54272 -0.13458,1.0932 -0.125,1.65625 -0.0257,0.26162 -0.0497,0.47875 -0.0625,0.78125 -0.26215,0.33082 0.0118,1.32679 0.3125,2.1875 0.15262,1.12239 0.30985,2.26289 0.375,3.4375 0.0813,0.735 0.0712,1.465 0.0312,2.21875 l -0.0312,0.5625 c -3.015,0.8025 -0.99125,-0.17125 -1.71875,-0.1875 -0.10875,-0.4775 -0.10525,-0.915 -0.0937,-1.28125 0.0362,-0.76625 -0.0412,-1.2175 -0.21875,-1.28125 l -0.25,-0.125 -0.0625,-0.0312 c -0.31509,-1.29394 -0.31906,-1.41512 -0.3125,-1.4375 0.0206,0.0547 0.0372,0.0469 0,-0.125 l 0.125,-0.15625 c 0.16,-0.2 0.2925,-0.39375 0.34375,-0.65625 0.007,-0.0218 0.0247,-0.0404 0.0312,-0.0625 0.009,-0.0295 -0.008,-0.0637 0,-0.0937 0.2166,-0.81415 0.10231,-1.83374 -0.1875,-2.84375 -0.0355,-1.0251 0.0155,-2.09937 0.25,-3.1875 0.0137,0.25927 0.0162,0.52266 0.0312,0.78125 0.23625,0.71016 0.56699,1.59968 0.78125,2.53125 -0.078,-1.22775 -0.0364,-2.42478 0.28125,-3.625 0.8394,0.3477 0.23179,0.0874 0.625,0.25 0.0115,-0.0451 0.0504,-0.0801 0.0625,-0.125 -0.2308,-0.11976 -0.44599,-0.24152 -0.625,-0.34375 0.0795,-0.27148 0.17078,-0.54151 0.28125,-0.8125 z m 2.3125,0.28125 c 0.0384,0.0174 0.0843,0.0138 0.125,0.0312 0.0589,0.097 0.0891,0.20595 0.125,0.3125 -0.26577,-0.11037 -0.38423,-0.17791 -0.40625,-0.1875 l 0.15625,-0.15625 z m -0.28125,0.28125 c 0.47163,0.19597 0.53014,0.19336 0.59375,0.21875 -0.0737,0.19658 -0.11218,0.38195 -0.15625,0.5625 0.0804,0.007 -0.38358,-0.0598 -0.40625,-0.0625 -0.0133,-0.23017 -0.0497,-0.46293 -0.0937,-0.65625 l 0.0625,-0.0625 z m 0.6875,0.5 c 0.0232,0.0929 0.048,0.1866 0.0625,0.28125 0.0333,0.003 -0.19105,-0.003 -0.15625,0 l 0.0937,-0.28125 z m 189.03125,0.46875 c 2.23875,0.36875 3.8225,1.4825 5.03125,2.75 -1.61,-0.59375 -3.59625,-1.55625 -5.03125,-2.75 z m -191.4375,0.0937 c 0.34824,0.0345 0.86052,0.0703 0.78125,0.0625 0.001,0.0254 -6.1e-4,0.0672 0,0.0937 -0.3999,-0.0469 -0.81053,-0.10172 -0.75,-0.0937 -0.0113,-0.0268 -0.0199,-0.062 -0.0312,-0.0625 z m 1.0625,0.0312 c 0.0558,0.0265 0.0984,0.0671 0.15625,0.0937 -0.11477,-0.0114 0.62141,0.0407 0.53125,0.0312 9e-5,-0.0312 1.7e-4,-0.063 0,-0.0937 -0.0655,-0.0275 0.34351,0.13817 0.3125,0.125 -0.002,-1.6e-4 0.0325,0.0319 0.0312,0.0312 -0.009,-0.004 0.12496,0.0319 0.125,0.0312 0.002,-0.0102 -0.002,-0.021 0,-0.0312 0.0128,10e-4 0.22821,0.0234 0.3125,0.0312 4.4e-4,0.0309 1.4e-4,0.0633 0,0.0937 -0.0354,-0.004 -0.0252,0.004 -0.0625,0 0.0142,0.006 0.0438,0.0241 0.0625,0.0312 -0.0162,1.53199 -0.71089,3.18456 0.1875,4.53125 0.50765,1.52196 0.99399,3.46024 0.84375,5.46875 l -0.125,-0.0312 -0.0625,0 -0.0312,0 c -0.19672,-0.25132 0.24441,0.31342 0.21875,0.28125 l -0.15625,0 -0.0312,-0.0312 -0.0312,0 c 0.38235,0.49102 -0.0109,-0.005 0.1875,0.25 -0.0424,0.33457 -0.10352,0.66409 -0.1875,1 0.45045,0 0.90774,-0.0101 1.125,0.21875 0.0106,0.0112 0.0217,0.0191 0.0312,0.0312 0.009,0.011 0.0205,0.0178 0.0312,0.0312 l 0,0.0312 c 0.044,0.08 0.0625,0.18739 0.0625,0.3125 0,0.63125 -1.255,1.27125 -0.625,2.53125 0.13414,0.40242 0.28919,0.77442 0.46875,1.125 -0.0715,0.0322 -0.14717,0.0619 -0.21875,0.0937 -0.58794,-1.01328 -0.96081,-2.11321 -0.21875,-3.28125 0.86,-1.30875 -0.555,0.36125 -0.96875,-1.71875 0.165,-0.87 0.189,-1.735 0.0937,-2.5625 -0.37077,-2.22549 -1.13627,-4.36157 -1.15625,-5.96875 -0.0944,0.568 -0.15367,1.13419 -0.0937,1.6875 -0.27014,-1.40662 -0.14915,-2.81195 -0.125,-3.96875 0.0976,0.0408 -0.51562,-0.2202 -0.4375,-0.1875 -0.21097,-0.0249 -0.0964,-0.01 -0.28125,-0.0312 0.004,-0.0222 0.0268,-0.0403 0.0312,-0.0625 -0.026,-0.0109 0.29379,0.11233 0.25,0.0937 0.11838,0.014 0.0331,0.0172 0.15625,0.0312 -0.094,-0.0435 -0.16091,-0.0831 -0.25,-0.125 0.0342,0.003 -0.18647,-0.0342 -0.15625,-0.0312 0.004,-0.0199 -0.004,-0.0426 0,-0.0625 z m 0.40625,0.21875 c 0.0925,0.0429 0.18386,0.0805 0.28125,0.125 6.1e-4,-0.0322 -4e-4,-0.062 0,-0.0937 -0.22358,-0.0264 -0.0618,-0.005 -0.28125,-0.0312 z m 0.28125,0.0312 c 0.22358,0.0264 0.0676,0.006 0.28125,0.0312 0.004,-0.0407 0.0258,-0.0825 0.0312,-0.125 0.0149,0.002 -0.36575,-0.0365 -0.3125,-0.0312 -1.2e-4,0.0416 5.4e-4,0.0826 0,0.125 z m 0.28125,0.0312 c -0.006,0.0602 -0.0283,0.13148 -0.0312,0.1875 -0.0268,0.48453 0.0614,0.82954 0.125,0.875 -0.0324,-0.38934 0.005,-0.72828 0.0625,-1.0625 -0.1109,-0.0132 -0.0391,0.0139 -0.15625,0 z m 0.15625,0 c 0.20215,0.024 0.11089,0.0115 0.28125,0.0312 -0.0542,-0.0222 -0.24992,-0.094 -0.25,-0.0937 -0.004,0.0222 -0.0275,0.0404 -0.0312,0.0625 z m -0.1875,0.1875 c -0.0788,-0.0356 -0.17415,-0.0903 -0.25,-0.125 -2e-4,0.0107 2.2e-4,0.0208 0,0.0312 -0.0547,-0.0229 0.29917,0.11454 0.25,0.0937 z m -0.0312,2.1875 c 0.0998,-0.60041 0.24775,-1.18076 0.40625,-1.65625 -0.30349,0.44088 -0.41429,1.00936 -0.40625,1.65625 z m -2.875,0.5625 c 0.0405,0.5474 0.12002,1.09963 0.1875,1.65625 0.013,-0.5488 -0.0721,-1.10381 -0.1875,-1.65625 z m 0.1875,1.75 c -0.0377,0.8966 -0.31498,1.75203 -1,2.4375 1.89125,0.63 0.65,2.52 1.28125,3.78125 0.27134,-2.17342 -0.0379,-4.22883 -0.28125,-6.21875 z m -1.78125,4.71875 c 0.0265,0.11242 -0.0279,-0.0557 0,0.0625 l -0.0312,0 c -0.008,0.007 0.0274,-0.0421 0.0312,-0.0625 z m 4.53125,0.0937 c 0.005,0.0937 0.0291,0.18609 0.0312,0.28125 -0.0132,0.0244 -0.0192,0.0419 -0.0312,0.0625 0.003,-0.1159 -10e-4,-0.22865 0,-0.34375 z m 135.125,5.90625 c 0.27144,0.002 0.56189,0.003 0.84375,0 0.0396,0.0109 0.0866,0.0189 0.125,0.0312 l 1.03125,0.0625 0.21875,0.0312 c -0.43875,0.0475 -0.34375,0.2525 -0.125,0.46875 -0.30875,-0.21 -0.685,-0.41 -1.125,-0.5625 -0.32235,-0.0158 -0.6366,-0.0172 -0.96875,-0.0312 z m -17.90625,1.15625 c 0.51085,-0.0279 1.01578,0.0163 1.5,0.125 -1.13125,0.48875 -2.64,0.93125 -4.0625,0.8125 0.83359,-0.60781 1.71108,-0.89097 2.5625,-0.9375 z m 129.46875,0.5 0.0312,0 0.0937,0.0625 0.0312,0.0312 0,0.0312 c -0.01,0.0292 -0.0238,0.0403 -0.0312,0.0625 -0.24284,-0.29642 0.15941,0.15964 -0.125,-0.1875 z m -1.28125,2.34375 c 0.10936,0.3451 0.23783,0.65676 0.40625,0.90625 -0.24141,-0.0773 -0.40625,-0.24688 -0.40625,-0.5625 0,-0.1217 5e-5,-0.22489 0,-0.34375 z m 1.1875,1.625 c -0.17796,1.69642 -0.0715,3.3808 -0.0312,5.0625 0.3275,3.46625 -0.99,6.89625 -2.40625,9.75 -0.1557,0.35907 -0.30813,0.71295 -0.46875,1.0625 -0.15242,-0.23478 -0.32508,-0.4677 -0.5,-0.71875 1.10952,-2.07253 2.20683,-4.1442 2.84375,-6.375 0.58774,-2.93523 0.12263,-5.84755 0.5625,-8.78125 z m -241.34375,4.90625 c 1.18961,3.34177 2.35931,6.78062 3.59375,10.3125 -0.5127,-1.09922 -0.91072,-1.84699 -0.96875,-1.71875 -0.33181,-1.49922 -0.9811,-3.67471 -1.90625,-6.25 -0.25318,-0.70633 -0.56321,-1.52271 -0.84375,-2.28125 0.0474,-0.028 0.0758,-0.0339 0.125,-0.0625 z m 144.84375,0.875 c -0.15498,0.0446 -0.0841,0.24531 0.375,0.6875 2.6025,2.715 4.29875,4.695 5.84375,7.9375 1.59,2.4775 2.88625,5.15875 3.84375,8.1875 0.23375,0.855 0.31125,1.68125 0.28125,2.53125 0.125,-1.1175 0.0225,-2.21125 -0.0312,-3.46875 0.075,-1.71 -1.9225,-3.25125 -2.90625,-5.46875 -0.24,-0.31625 0.90625,-0.66125 0.34375,-1.28125 -1.05625,-1.5525 -2.0325,-2.76375 -2.9375,-4.125 -0.61625,-0.4825 -0.04,-2.29125 -0.78125,-2.71875 -0.97313,-1.06969 -3.56631,-2.41496 -4.03125,-2.28125 z m 77.65625,0.25 c 0.0245,0.017 0.0379,0.0456 0.0625,0.0625 l 1.75,1 c 0.20141,0.12007 0.41436,0.24836 0.625,0.375 -0.78774,1.97557 -1.86793,3.9367 -3.3125,5.84375 -6.215,10.71625 -13.52,22.04625 -20.34375,30.40625 -0.33375,0.235 -0.20375,-0.2075 0.1875,-1.0625 0.72375,-1.67875 2.04,-1.78 2.71875,-3.375 1.83,-2.9275 4.2225,-6.47875 5.46875,-8.78125 3.47375,-5.43625 5.87125,-9.39 6.5625,-9.59375 6.86875,-12.10125 5.605,-11.22 4.78125,-10.53125 -0.435,0.3275 -0.80285,0.56 -0.0937,-0.96875 0.3299,-0.87655 0.95066,-1.82684 1.59375,-3.375 z m -67,6.53125 c 0.225,0.73125 0.60875,1.345 0.875,2 -0.0812,-0.62875 -0.42875,-1.26875 -0.875,-2 z m 0.875,2 c 0.0712,0.4625 0.1,0.895 0.0625,1.28125 0.0875,-0.305 0.215,-0.47125 0.46875,-0.0937 l -0.53125,-1.1875 z m 0.53125,1.1875 0.34375,0.75 -0.125,-0.40625 -0.21875,-0.34375 z m 80.6875,0 0.65625,0.5 c -0.28164,0.6094 -0.56123,1.20807 -0.8125,1.8125 -0.18887,-0.29432 -0.37946,-0.593 -0.5625,-0.90625 0.23713,-0.47082 0.47054,-0.93993 0.71875,-1.40625 z m -1.25,2.53125 c 0.25371,0.20214 0.52971,0.42374 0.78125,0.625 -0.027,0.0731 -0.0679,0.14593 -0.0937,0.21875 l -0.65625,2.0625 -0.1875,0.5 c -2.21125,1.67625 -0.79875,0.50375 -1.40625,0.90625 -0.22375,0.0675 -0.56125,0.14875 -0.59375,0.25 0.059,-0.23992 -0.27657,0.2148 -0.15625,-0.1875 -0.34795,0.33968 0.77675,0.27344 -1.28125,1 -0.0281,-0.14166 -0.0877,-0.28028 -0.15625,-0.40625 -0.0351,0.0102 -0.0787,0.0311 -0.0937,0.0312 0.0111,-0.0156 0.0372,-0.0401 0.0625,-0.0625 -0.0155,-0.0289 -0.0184,-0.0667 -0.0312,-0.0937 l -0.0312,-0.0937 c 0.0192,-0.0746 0.042,-0.14416 0.0625,-0.21875 0.0116,-0.0422 0.0198,-0.0827 0.0312,-0.125 l 0.0937,0.0937 c -0.0265,0.004 -0.0417,0.0256 -0.0625,0.0312 0.0283,0.002 0.0797,0.006 0.0937,0 l 0.15625,0.15625 c -0.0935,0.0385 -0.13515,0.0798 -0.25,0.125 0.021,0.0117 -0.0119,0.0802 -0.0625,0.125 0.007,0.013 0.0246,0.0185 0.0312,0.0312 0.0618,-0.018 0.26107,-0.0989 0.40625,-0.15625 l 0.21875,0.21875 0,-0.28125 c 0.15032,-0.0618 0.20864,-0.0887 0.4375,-0.1875 l -0.1875,-0.0625 -0.0312,-0.0312 c -0.0456,0.022 -0.16055,0.0679 -0.21875,0.0937 l 0,-0.15625 0.21875,0.0625 c 0.88802,-0.42859 -0.37717,-0.154 0.0625,-0.4375 l -0.0937,-0.0625 c 0.27427,-0.11255 -1.50182,0.61895 1.5,-0.625 l -0.0312,-0.0312 -0.0625,-0.0937 -0.0625,-0.0625 c 0.2078,-0.0215 0.375,-0.0312 0.375,-0.0312 0.0242,-0.0848 0.0685,-0.16574 0.0937,-0.25 0.41982,-0.17412 -0.24496,0.11127 0.25,-0.0937 l -0.15625,-0.1875 c 0.29014,-0.88356 0.63714,-1.74363 1.03125,-2.59375 z m -2.3125,4.375 c 0.0202,-0.0197 0.0312,-0.0397 0.0625,-0.0625 l 0.15625,-0.46875 c -0.12028,0.2747 -0.18612,0.42213 -0.21875,0.53125 z m -76.1875,-3.9375 c 0,0.4275 -0.0675,0.86375 -0.1875,1.3125 -0.0275,0.5475 0.28875,0.76875 0.59375,1.125 l -0.40625,-2.4375 z m 87.9375,1.09375 c 0.7175,0.75375 1.4725,1.38375 2.21875,2 -0.55,-0.65375 -1.2775,-1.3175 -2.21875,-2 z m 2.21875,2 c 0.40875,0.48375 0.74875,0.96125 1,1.40625 -0.145,-0.37625 -0.145,-0.62875 0.375,-0.3125 l -1.375,-1.09375 z m -13.59375,-0.34375 c -0.92684,0.38407 -0.93822,0.41787 -1.0625,0.46875 0.30817,-0.2466 0.7112,-0.40048 1.0625,-0.46875 z m 15,1.4375 0.84375,0.71875 -0.40625,-0.4375 -0.4375,-0.28125 z m 3.0625,2.90625 c 0.355,0.45125 0.6675,0.93125 0.9375,1.46875 0.43625,0.6 0.8825,0.6775 1.4375,0.90625 l -2.375,-2.375 z m -18.875,3.25 c 0.13625,0.0863 0.28875,1.2775 -0.0625,3.375 -0.1625,2.19375 -2.2025,5.01625 -3.25,6.75 -0.0566,0.0963 -0.10057,0.21328 -0.15625,0.3125 0.0312,0.0252 -0.30491,-0.2349 -0.4375,-0.34375 0.46024,-0.7951 0.97278,-1.59224 1.5,-2.34375 1.72,-2.28625 2.33,-5.3275 2.40625,-7.75 z m -224.4375,1.3125 c 0.39197,0.61289 3.53809,4.12362 4.375,4.75 0.0155,0.0116 0.0487,0.0529 0.0625,0.0625 2.23813,2.44275 3.64679,5.37689 5.1875,8.125 -2.66914,-3.85745 -4.74339,-5.9384 -9.625,-12.9375 z m 53.25,7.5625 c 5.28125,4.45 10.03375,7.9125 14.125,9.78125 2.58875,0.6625 3.6925,3.00625 5.53125,3.375 0.89875,0.23375 1.8625,0.41625 2.84375,0.5625 l 1.5,0.53125 0.1875,0.0625 c 0.0619,0.4352 0.0666,-0.0552 0.15625,0.6875 0.89611,0.20617 1.71338,0.50349 2.5,0.78125 0.33851,0.56316 0.70188,1.10769 1.0625,1.65625 -1.27327,-0.51239 -2.49404,-1.13041 -3.78125,-1.53125 l 0.21875,-0.28125 0.0625,-0.0625 c -0.0527,-0.52183 -0.0381,-0.36019 -0.0625,-0.5625 -0.23734,-0.0546 -0.47169,-0.11505 -0.71875,-0.15625 l -0.0937,-0.0312 c -1.85025,-1.01288 -4.20729,-0.52453 -6,-2.3125 -1.26,-1.26375 -2.51875,-2.53125 -3.78125,-2.53125 -1.8925,-0.63125 -3.13875,-1.89375 -5.03125,-3.15625 -1.71496,-1.05538 -3.36431,-2.17909 -4.96875,-3.34375 -0.27231,-0.42233 -1.25814,-1.37866 -3.75,-3.46875 z m 167.25,1.28125 c -0.0613,-0.0505 0.50266,0.39753 0.4375,0.34375 -0.051,0.0918 -0.1063,0.18751 -0.15625,0.28125 0.0492,0.0411 -0.53372,-0.42336 -0.4375,-0.34375 0.0525,-0.0946 0.10205,-0.18699 0.15625,-0.28125 z m 35.125,0.125 0.46875,1.28125 c 1.155,1.0675 1.49125,0.94875 0.6875,-0.21875 1.74875,2.75625 3.78375,4.985 6.03125,7.09375 0.0913,-0.35625 0.37,-0.58125 -0.125,-1.3125 -0.50375,-0.3275 -1.5,-0.96875 -1.5,-0.96875 -1.2325,-2.44375 -3.39625,-4.1675 -5.5625,-5.875 z m -35.28125,0.1875 c -0.0891,-0.0737 0.45434,0.38372 0.40625,0.34375 -0.67655,0.71619 -1.18905,1.52716 -1.625,2.34375 0.29205,-0.8954 0.72501,-1.79534 1.21875,-2.6875 z m 0.34375,0.53125 c -0.90228,1.74722 -1.58562,3.68915 -1.34375,4.625 -0.10117,-0.0107 1.16672,0.1335 0.78125,0.0937 -0.33788,0.69382 -0.79879,1.48893 -1.375,2.4375 -5.19383,-0.54249 -3.15345,-0.35643 -2.6875,-0.3125 0.28054,-0.38757 0.57685,-0.77185 0.84375,-1.15625 0.0465,0.0711 0.0969,0.14579 0.1875,0.1875 0.008,0.0217 0.0231,0.0407 0.0312,0.0625 0.0127,-0.019 0.0193,-0.0434 0.0312,-0.0625 0.0568,0.0198 0.11176,0.0251 0.1875,0.0312 l 0.4375,-0.78125 c -0.23597,-0.0251 0.5846,0.0755 1.0625,0.125 l 0,-0.0312 0,-0.125 c -0.0148,-0.0375 -0.0193,-0.084 -0.0312,-0.125 -1.01062,-0.10553 -0.63693,-0.0686 -0.875,-0.0937 l 0.1875,-0.375 c -0.0673,0.12607 -0.14909,0.24987 -0.21875,0.375 -0.0385,-0.004 -0.13436,0.002 -0.15625,0 0.0734,-0.13509 0.14732,-0.2681 0.21875,-0.40625 0.0988,0.0103 0.0663,0.0225 0.15625,0.0312 0.33877,0.0353 0.42239,0.0447 0.59375,0.0625 -0.0392,-0.54911 0.066,-1.24603 0.25,-1.9375 0.003,-0.009 -0.003,-0.022 0,-0.0312 0.55671,-0.84856 1.12092,-1.69193 1.71875,-2.59375 z m -1.96875,4.5625 c 0.0113,0.158 0.0568,0.27746 0.0937,0.40625 0.68565,0.0716 -0.59662,-0.0616 0.59375,0.0625 l 0,-0.0312 0,-0.0625 -0.0312,-0.1875 c -0.014,-0.0366 -0.0207,-0.0843 -0.0312,-0.125 0.0808,0.008 -0.44472,-0.0438 -0.625,-0.0625 z m 3,-3.875 -0.125,0.40625 c -0.26,0.74 -0.51625,1.46125 -0.875,2.3125 l 0.53125,-0.8125 c -0.22413,0.42843 -0.48136,0.87222 -0.71875,1.34375 -0.028,0.0193 -0.0278,0.0331 -0.0625,0.0625 -0.0824,0.17898 -0.18739,0.3988 -0.28125,0.59375 -0.06,-0.0488 0.003,-0.36 0.0312,-0.625 0.0875,-0.575 0.36125,-1.31125 0.65625,-1.90625 0.36148,-0.71336 0.67548,-1.20773 0.84375,-1.375 z m -208.96875,0.21875 c 0.21637,0.25966 0.43962,0.52115 0.65625,0.78125 -0.38564,-0.31633 -0.70952,-0.39518 -0.9375,-0.0625 0.0828,-0.24395 0.1682,-0.49265 0.28125,-0.71875 z m -0.59375,2.1875 c -0.005,0.20904 -0.004,0.41647 0,0.625 -0.0119,-0.0192 -0.0197,-0.0432 -0.0312,-0.0625 0.005,-0.18784 0.0128,-0.37721 0.0312,-0.5625 z m -0.0312,1.1875 c 0.0214,0.0289 0.0405,0.0648 0.0625,0.0937 0.0446,0.60923 0.13404,1.21415 0.28125,1.78125 -0.0206,-0.0318 -0.0421,-0.0624 -0.0625,-0.0937 -0.15205,-0.57368 -0.25257,-1.18438 -0.28125,-1.78125 z m 204.71875,0.0937 c 0.15036,0.0157 0.0372,0.0162 0.1875,0.0312 -0.003,0.18391 -0.002,0.31371 0.0312,0.375 0.0315,0.003 -0.22582,-0.004 -0.1875,0 -0.0128,-0.13752 -0.0295,-0.26479 -0.0312,-0.40625 z m 0.65625,0.0625 c 0.16378,0.0171 0.0654,0.0159 0.21875,0.0312 -0.0848,0.12526 -0.16501,0.25043 -0.25,0.375 0.005,3.9e-4 -0.2807,-0.0343 -0.25,-0.0312 0.0806,-0.049 0.16496,-0.18685 0.28125,-0.375 z m -0.59375,0.59375 c 0.0364,0.004 0.46866,0.0692 0.40625,0.0625 -0.08,0.11674 -0.17033,0.22833 -0.25,0.34375 -0.0386,-0.0529 -0.0944,-0.0965 -0.125,-0.15625 -0.0165,-0.0799 -0.0192,-0.16834 -0.0312,-0.25 z m 0.6875,0.0937 c -0.0341,-0.004 0.19089,0.004 0.15625,0 -0.12034,0.20858 -0.24375,0.42172 -0.375,0.625 -0.0398,-0.0238 -0.0582,-0.066 -0.0937,-0.0937 0.10762,-0.1717 0.21154,-0.3528 0.3125,-0.53125 z m -206.53125,0.65625 0.21875,0.15625 c 0.38549,0.56248 0.7773,1.1104 1.21875,1.625 -0.56828,-0.64598 -1.17388,-1.37503 -1.4375,-1.78125 z m 1.4375,0.625 c 0.0228,0.0298 0.0395,0.0646 0.0625,0.0937 0.0616,0.19914 0.117,0.39916 0.1875,0.59375 -0.0888,-0.22167 -0.17729,-0.4546 -0.25,-0.6875 z m 203.4375,0.625 c 0.88178,0.0963 2.30831,0.26712 2.71875,0.3125 -0.49568,0.80507 -1.05694,1.67944 -1.8125,2.71875 l -0.3125,0.40625 0,-0.0625 c -0.028,0.0772 -0.087,0.169 -0.0937,0.1875 l -0.40625,0.5625 -0.0937,0.125 0,0.6875 c -0.0276,0.0762 -0.0354,0.0996 -0.0312,0.0937 0.005,-0.001 0.0174,0.005 -0.0937,0.3125 l 0.125,-0.1875 0,0.125 0,0.40625 c -0.23375,0.7475 0.5475,-1.35125 -0.5,1.75 l -0.125,0.15625 -0.5625,0.71875 c -1.44375,1.96625 -3.23,4.2175 -5.46875,6.78125 -1.70375,1.16125 0.61375,-1.57625 3.03125,-4.6875 l 1.75,-2.375 c 0.43125,-0.86875 0.23125,0.35125 1.15625,-2.1875 l -0.0625,-1.21875 -0.0625,-1 0,-0.21875 c -0.10732,0.27934 -0.0631,0.063 -0.0937,0.125 -0.0198,-0.01 -0.0299,-0.0343 -0.0625,-0.0312 -1.08375,6.8725 -6.60375,10.84625 -8.71875,13.125 1.81375,-2.45375 4.245,-5.38875 6.25,-8.15625 l 1.46875,-2 c 0.49375,-1.695 0.0813,-1.77375 0.15625,-2.65625 -0.1575,-0.36375 1.1325,-1.8925 1.1875,-2.4375 -0.4975,0.62875 -1.1975,1.7325 -1.53125,1.96875 -0.0775,1.02125 0.295,1.605 -0.15625,3 l -3.1875,4.5 c -2.04319,2.2015 -2.19384,2.00537 -2.03125,1.46875 1.67747,-2.04681 3.32073,-4.18794 4.96875,-6.46875 l 0,-2.5 c 0.96936,-1.16468 1.80617,-2.26331 2.59375,-3.34375 z m 0,4.25 0,-0.53125 0,-0.1875 0,-0.0937 0,-0.0625 c -1.11276,3.07181 -0.33072,0.89983 -0.59375,1.625 l 0.21875,-0.3125 0.375,-0.4375 z m -197.96885,-4.1559 c 6.40476,7.63419 13.013,15.27759 20.25,22.125 -2.89707,-2.08269 -4.84938,-3.03119 -12.46875,-11.875 5.63139,5.35777 -5.85937,-7.33328 -7.78125,-10.25 z m 171.59375,0.0312 c -1.15394,1.35644 -1.89876,2.26323 -2.34375,2.875 -0.56099,0.53594 -1.10097,1.06998 -1.625,1.59375 -2.58874,2.01321 -5.19603,3.84605 -7.84375,5.46875 3.70136,-2.33106 8.11064,-5.85681 11.8125,-9.9375 z m -177,0.5 c 0.30659,0.35242 0.6579,0.67654 1,1 -0.21821,-0.13525 -0.5883,-0.5371 -1,-1 z m 0.46875,0.0312 c 0.19621,0.36754 0.44343,0.69399 0.71875,1 -0.008,0.0213 -0.009,0.0303 -0.0312,0.0312 -0.259,-0.31292 -0.4885,-0.65795 -0.6875,-1.03125 z m 0.65625,0.21875 c 0.20337,0.10465 0.45121,0.17752 0.5625,0.3125 -0.18575,-0.10757 -0.44921,-0.19346 -0.5625,-0.3125 z m 0.15625,1.03125 c -0.14091,0.10436 -0.27453,0.21145 -0.5,0.34375 -0.0198,-0.0309 -0.0424,-0.063 -0.0625,-0.0937 0.24704,-0.10222 0.40243,-0.1674 0.5625,-0.25 z m 62.96875,4.25 c -0.0347,-0.10503 0.0805,0.31777 0.125,0.46875 -0.15672,-0.0409 -0.30908,-0.093 -0.46875,-0.125 l 0.34375,-0.34375 z m 99.03125,5.0625 c -2.55223,1.43303 -5.16576,2.6472 -7.90625,3.46875 -3.1856,1.06327 -5.92203,3.00411 -8.96875,3.21875 2.05587,-0.57354 5.57606,-1.78475 12.03125,-4.90625 1.03789,0.003 2.77549,-0.64407 4.84375,-1.78125 z m -122.53125,23.21875 c 2.788,1.86626 5.681,3.584 8.6875,5.125 -1.25769,-0.49605 -2.64156,-1.10563 -4.28125,-2 -2.33406,-1.6026 -3.58254,-2.48644 -4.40625,-3.125 z m 112.4375,9.09375 c -1.67875,3.16875 -24.5425,8.36875 -35.34375,7.3125 -3.705,-0.4075 -8.045,-0.0737 -12.28125,1 -2.05375,0.505 -4.66,0.93 -6.53125,1.53125 -0.34375,0.3075 -2.8575,1.5525 -4.09375,0.25 -0.95,-0.8775 -1.2425,-0.82 -2.8125,-1.09375 -9.45375,-1.3225 -18.79875,-4.1325 -27.28125,-6.84375 -0.28547,-0.63984 4.82212,0.5197 6.53125,0.65625 7.36586,2.37737 14.77154,4.394 22.625,5.53125 0.21056,0.0972 0.42396,0.18227 0.625,0.28125 0.0327,0.0161 0.0618,0.0465 0.0937,0.0625 0.29369,0.2034 0.55716,0.40416 0.8125,0.59375 0.55461,0.41181 1.0805,0.70866 1.8125,0.34375 0.20544,-0.13692 0.43744,-0.23448 0.65625,-0.34375 0.0331,-0.0165 0.0608,-0.0465 0.0937,-0.0625 1.08763,-0.41085 2.21216,-0.71997 3.34375,-0.96875 0.0101,-0.002 0.0216,0.002 0.0312,0 0.21872,-0.048 0.43774,-0.0786 0.65625,-0.125 0.2663,-0.0534 0.52741,-0.0939 0.78125,-0.15625 0.0319,-0.007 0.0623,-0.0245 0.0937,-0.0312 0.0223,-0.005 0.0402,-0.0258 0.0625,-0.0312 4.02416,-0.98665 7.96153,-1.8155 11.84375,-1.90625 2.08299,0.18138 4.09921,0.25008 6.0625,0.21875 3.87902,0.15973 7.62695,-0.0969 11.6875,-1 1.16213,-0.23238 2.34267,-0.38472 3.53125,-0.53125 -0.50864,0.10621 -1.01151,0.20783 -1.625,0.3125 0.97834,-0.17216 1.72821,-0.30721 2.53125,-0.4375 2.33816,-0.2723 4.6755,-0.50682 6.90625,-1.03125 2.63455,-0.45124 4.02025,-1.00954 9.1875,-3.53125 z"
       id="path252"
       inkscape:connector-curvature="0" />
  </g>
</svg>
