<?xml version="1.0" encoding="UTF-8" standalone="no"?>
<!-- Created with Inkscape (http://www.inkscape.org/) -->

<svg
   xmlns:dc="http://purl.org/dc/elements/1.1/"
   xmlns:cc="http://creativecommons.org/ns#"
   xmlns:rdf="http://www.w3.org/1999/02/22-rdf-syntax-ns#"
   xmlns:svg="http://www.w3.org/2000/svg"
   xmlns="http://www.w3.org/2000/svg"
   xmlns:sodipodi="http://sodipodi.sourceforge.net/DTD/sodipodi-0.dtd"
   xmlns:inkscape="http://www.inkscape.org/namespaces/inkscape"
   width="407.06"
   height="407.06"
   id="svg4614"
   version="1.1"
   inkscape:version="0.48.2 r9819"
   sodipodi:docname="Breed-Elodoth.svg">
  <defs
     id="defs4616" />
  <sodipodi:namedview
     id="base"
     pagecolor="#ffffff"
     bordercolor="#666666"
     borderopacity="1.0"
     inkscape:pageopacity="0.0"
     inkscape:pageshadow="2"
     inkscape:zoom="1.4"
     inkscape:cx="63.667868"
     inkscape:cy="161.23207"
     inkscape:document-units="px"
     inkscape:current-layer="layer1"
     showgrid="false"
     fit-margin-top="0"
     fit-margin-left="0"
     fit-margin-right="0"
     fit-margin-bottom="0"
     inkscape:window-width="1606"
     inkscape:window-height="1029"
     inkscape:window-x="70"
     inkscape:window-y="-4"
     inkscape:window-maximized="1" />
  <metadata
     id="metadata4619">
    <rdf:RDF>
      <cc:Work
         rdf:about="">
        <dc:format>image/svg+xml</dc:format>
        <dc:type
           rdf:resource="http://purl.org/dc/dcmitype/StillImage" />
        <dc:title />
      </cc:Work>
    </rdf:RDF>
  </metadata>
  <g
     inkscape:label="Layer 1"
     inkscape:groupmode="layer"
     id="layer1"
     transform="translate(17.847067,-215.94939)">
    <path
       style="fill:#000000;fill-opacity:1;fill-rule:nonzero;stroke:none"
       d="m 192.46543,284.56878 c -3.48375,0.0625 -2.525,0.5325 -4.4375,0.375 -5.6625,0.0625 -10.22,0.30875 -14.15625,1.25 -4.645,0.3875 -25.78375,6.4925 -19.75,5.78125 -2.68875,0.7275 -5.39125,1.33625 -8.0625,2.1875 -2.43875,1.41375 -0.98,1.34375 -5.65625,3.5 -7.9875,3.48875 -8.37625,3.19375 -2.21875,0.125 -7.6725,3.23125 -15.5325,7.33 -22.6875,12.90625 -1.8775,1.2725 -3.50625,2.88125 -5.21875,4.40625 l -1.40625,1.25 c -1.03194,-0.0347 -2.16964,0.45356 -2,0.5 -0.1675,0.24 -0.49495,-0.009 0.0312,0.25 0.225,0.30625 0.3775,0.65375 0.4375,1.03125 l 0.0312,0.59375 c -1.11179,-1.31995 -1.21104,-1.40341 -1.21875,-1.40625 -0.0212,-0.0269 -0.0335,-0.0577 -0.0625,-0.0937 l -0.0312,0.0312 -0.0625,0.0312 -0.75,0.53125 c -4.045,2.785 -7.14,6.37 -10.09375,9.78125 -2.96625,3.88125 -5.805,5.73125 -9.21875,10.28125 -1.38,1.8675 -2.57,4.39625 -3.46875,5.9375 -0.51132,0.83224 -1.21112,1.96379 -1.46875,3.40625 0.0432,0.002 -0.32873,-0.0197 -0.59375,-0.0312 l -0.0312,0.0312 -0.0937,0.0937 -0.1875,0.21875 -0.375,0.40625 -1.34375,1.5625 c -0.91125,0.93625 -1.24,1.8025 -1.59375,2.34375 -0.66,1.09 -0.85375,1.0625 -0.21875,-0.84375 -1.78596,4.43153 -3.71136,8.86182 -5.71875,13.3125 -5.95535,0.004 -11.75025,0.3056 -17,0.65625 -0.0725,0.7375 2.93125,-0.4 3.15625,0.59375 -7.80125,0.41625 -15.79375,0.45125 -23.71875,1.84375 -1.45875,0.0875 -3.29625,0.07 -4,-0.0312 -2.59125,0.28625 -1.4125,0.71375 -3.28125,1.0625 l -0.40625,-0.59375 c -2.57,1.21125 -4.1675,0.2175 -6.65625,1.3125 -0.0575,0.30375 -0.96375,0.615 -1.875,0.875 -0.26875,-0.665 -2.765,0.895 -2.84375,0.28125 l -0.0312,0.0625 c -0.5525,0.195 -0.91375,0.39375 -1.625,0.53125 -1.03875,0.465 -9.80125,6.4925 -10.53125,7.5 l -0.5,0.15625 c -1.35875,0.83625 -1.66625,1.64375 -0.8125,1.28125 l -1.6875,0.96875 0.15625,-0.15625 -1.65625,0.96875 c -0.33375,0.145 -0.8675,0.14375 -0.59375,-0.46875 -0.7675,0.9 -1.68,1.7775 -2.65625,2.375 2.72,-1.7575 6.32875,-3.04 9.34375,-4 -0.9775,0.8675 -3.16125,1.71 -4.3125,2.5 -1.71375,0.345 -4.68,2.3575 -7.09375,3.8125 -0.41875,0.4875 -0.17625,1.3925 -1.40625,2.15625 -0.88125,0.11625 -1.105,1.155 -2.21875,1.75 0.71875,-1.1875 1.7625,-2.09 2.75,-3.0625 -0.61875,-0.30625 -2.6675,2.15 -3.5625,2.84375 -0.2775,0.4075 -1.9625,2.71 -2.8125,4.25 -0.0564,-0.61662 -0.53143,-0.0593 -1.0625,0.625 0.14439,-0.58772 0.25253,-1.12723 0.3125,-1.375 0.0154,-0.12912 -0.16354,0.52303 -0.40625,1.5 -0.27664,0.35733 -0.54908,0.71553 -0.8125,0.96875 -0.57,1.09625 -0.6775,1.9275 -0.28125,1.5625 0.0777,0.14059 0.31079,-0.10173 0.59375,-0.46875 -0.68849,2.89604 -1.45175,6.35691 -1.0625,5.65625 0.19,-0.31167 0.3013,-0.31556 0.375,-0.21875 -0.0174,0.16205 0.0172,0.26767 0.125,0.25 0.0778,0.1889 0.17091,0.31261 0.40625,-0.125 l 0,-0.4375 c 1.99345,-4.39418 1.99043,4.91231 4.21875,0.0625 -1.6175,1.7775 -0.51375,-0.9725 0.34375,-3.21875 0.2825,-0.12 1.18875,-0.8225 2.3125,-2.0625 0.7475,-1.22375 0.23375,-0.87375 0.21875,-1.21875 0.6025,-0.56625 1.59375,-1.72 1.8125,-1.28125 0.3575,-1.14125 1.4475,-1.0625 2.21875,-2.125 0.63625,-1.00125 -0.21375,-0.1037 0.1875,-0.875 1.1725,-1.33875 3.2425,-2.645 4.375,-3.4375 0.67375,-0.0162 2.3325,-0.43125 1.78125,0.78125 -2.0625,1.49375 0.195,-1.4075 -1.84375,0.34375 1.47375,0.0162 -1.73375,1.655 -1.65625,2.46875 0.93875,-0.205 2.265,-1.22875 3.3125,-2.1875 l -0.28125,0.0625 c 0.84625,-0.94125 2.91875,-2.39625 4.34375,-2.65625 -0.10625,0.43875 0.51875,0.33875 -0.21875,0.875 l 1.46875,-0.8125 c 0.13375,-0.20125 0.27,-0.41 -0.1875,-0.21875 0.57125,-0.62625 1.33375,-0.96375 2,-1.03125 0.0489,0.0309 0.50284,-0.19209 1.09375,-0.5625 0.009,0.01 0.0577,0.007 0.15625,-0.0312 0.875,-0.41375 12.47875,-6.91125 13.5625,-6.3125 0.8825,-0.29875 1.92625,-0.70125 1.625,-0.96875 1.5775,-0.22 -0.2675,0.74 0.90625,0.78125 0.0113,-0.0587 -0.13125,-0.1425 0.21875,-0.21875 l 1.15625,0.1875 c 2.22875,-1.14625 5.84125,-1.295 8.21875,-2.4375 -0.655,0.5125 -1.34625,1.3175 -2.875,1.96875 l -0.3125,-0.125 c -0.21125,0.13125 -1.49,0.58 -1.375,0.90625 1.5425,-0.1725 2.8475,-0.42 4.375,-1.09375 0.3125,0.0312 0.65875,0.0462 0.90625,0.0937 l -0.0312,-0.125 c 0.56375,0.10625 0.50875,0.1425 0.34375,0.3125 l -0.0937,0.125 c 1.11,0.745 5.8625,-1.695 8.75,-1.59375 0.81,-0.24375 0.0563,-0.18 1.0625,-0.5 2.9275,0.0362 4.93625,0.08 7.96875,0.0625 0.92125,-0.52375 0.98875,-0.68625 -0.21875,-1.03125 l 2.28125,-0.0625 c -1.9725,1.3075 4.3525,0.77125 2.15625,2.09375 0.68,0.22125 2.025,0.2063 3.28125,-0.0625 0.11125,-0.29375 0.275,-0.82 1.875,-0.875 1.65989,0.22311 2.00617,0.26709 2.71875,0.375 -0.24662,0.50074 -0.4688,0.99774 -0.71875,1.5 -0.0305,0.0761 -0.0635,0.14295 -0.0937,0.21875 -0.89276,-0.005 -1.79433,-0.0118 -2.6875,0 0.85027,0.0883 1.70616,0.20799 2.5625,0.3125 -3.45428,8.67559 -5.51356,15.44633 -4.96875,16.34375 -0.89625,2.7775 -2.6875,6.11625 -2.1875,11.90625 0.845,3.20375 -0.9325,9.59875 -0.875,15.09375 -0.049,0.74016 -0.0884,1.49699 -0.125,2.25 -6.00477,0.25695 -12.08239,0.53201 -18.125,1.59375 -1.4575,0.0875 -3.265,0.07 -3.96875,-0.0312 -2.5925,0.28625 -1.4125,0.6825 -3.28125,1.03125 l -0.40625,-0.59375 c -2.57,1.21125 -4.1675,0.24875 -6.65625,1.34375 -0.0575,0.30375 -0.99375,0.615 -1.90625,0.875 -0.25867,-0.64006 -2.59988,0.78343 -2.84375,0.34375 -0.55125,0.195 -0.94375,0.39375 -1.65625,0.53125 -1.0375,0.46375 -9.8025,6.46125 -10.53125,7.46875 l -0.5,0.1875 c -1.35875,0.83625 -1.665,1.64375 -0.8125,1.28125 l -1.6875,0.96875 0.1875,-0.15625 -1.6875,0.96875 c -0.3325,0.145 -0.8375,0.1125 -0.5625,-0.5 -0.76875,0.9 -1.71125,1.8075 -2.6875,2.40625 2.72,-1.7575 6.32875,-3.07125 9.34375,-4.03125 -0.97875,0.8675 -3.13,1.74125 -4.28125,2.53125 -1.7125,0.345 -4.71125,2.3575 -7.125,3.8125 -0.42,0.4875 -0.145,1.36125 -1.375,2.125 -0.88125,0.11625 -1.10625,1.155 -2.21875,1.75 0.7175,-1.1875 1.7625,-2.05875 2.75,-3.03125 -0.61875,-0.3075 -2.69875,2.15 -3.59375,2.84375 -0.2775,0.4075 -1.96375,2.67875 -2.8125,4.21875 -0.0562,-0.61394 -0.53409,-0.0552 -1.0625,0.625 0.14349,-0.58403 0.24419,-1.06225 0.3125,-1.34375 0.0154,-0.12909 -0.16364,0.49212 -0.40625,1.46875 -0.27821,0.35914 -0.54719,0.74535 -0.8125,1 -0.57,1.09625 -0.64625,1.9275 -0.25,1.5625 0.0722,0.13063 0.27639,-0.0539 0.53125,-0.375 -0.68134,2.87338 -1.38473,6.22245 -1,5.53125 0.18959,-0.31208 0.27019,-0.31556 0.34375,-0.21875 -0.018,0.16374 0.0164,0.26777 0.125,0.25 0.0784,0.19178 0.16828,0.34764 0.40625,-0.0937 l 0,-0.46875 c 1.98776,-4.36401 1.99255,4.93779 4.21875,0.0937 -1.61875,1.7775 -0.48125,-0.9725 0.375,-3.21875 0.28375,-0.12 1.18875,-0.8225 2.3125,-2.0625 0.74625,-1.22375 0.20125,-0.87375 0.1875,-1.21875 0.60125,-0.56625 1.5925,-1.75125 1.8125,-1.3125 0.3575,-1.14125 1.44875,-1.0625 2.21875,-2.125 0.6375,-1.00125 -0.21375,-0.0712 0.1875,-0.84375 1.17375,-1.3375 3.27375,-2.675 4.40625,-3.46875 0.675,-0.015 2.33125,-0.4 1.78125,0.8125 -2.06375,1.49375 0.1625,-1.43875 -1.875,0.3125 1.4725,0.0163 -1.70125,1.655 -1.625,2.46875 0.94,-0.205 2.265,-1.1975 3.3125,-2.15625 l -0.3125,0.0625 c 0.8475,-0.94125 2.91875,-2.39625 4.34375,-2.65625 -0.1075,0.43875 0.5175,0.34 -0.21875,0.875 l 1.5,-0.8125 c 0.13375,-0.20125 0.27,-0.40875 -0.1875,-0.21875 0.57125,-0.625 1.30125,-0.96375 1.96875,-1.03125 0.0503,0.0318 0.57386,-0.28024 1.21875,-0.6875 -0.13282,0.10142 -0.13469,0.14 0.0625,0.0625 0.875,-0.41375 12.4475,-6.88 13.53125,-6.28125 0.88375,-0.29875 1.9575,-0.70125 1.65625,-0.96875 1.5775,-0.22 -0.29875,0.74 0.875,0.78125 0.01,-0.0588 -0.13125,-0.1425 0.21875,-0.21875 l 1.15625,0.15625 c 2.2275,-1.14625 5.8725,-1.26375 8.25,-2.40625 -0.65625,0.5125 -1.3775,1.3175 -2.90625,1.96875 l -0.3125,-0.125 c -0.21125,0.13125 -1.49125,0.58 -1.375,0.90625 1.5425,-0.1725 2.84875,-0.45 4.375,-1.125 0.31375,0.0325 0.68875,0.0775 0.9375,0.125 l -0.0625,-0.125 c 0.5625,0.10625 0.50875,0.1425 0.34375,0.3125 l -0.0937,0.0937 c 1.11125,0.745 5.86125,-1.66375 8.75,-1.5625 0.80875,-0.24375 0.0563,-0.18 1.0625,-0.5 2.22494,0.0275 4.01636,0.0564 6.03125,0.0625 0.0355,2.03188 0.10964,4.07942 0.21875,6.125 0.3,4.5225 1.705,6.4025 0.875,6.90625 0.34067,1.44808 0.16307,0.62634 0.78125,3.25 -0.32,0.0572 -0.57562,0.11812 -0.375,0.1875 10e-4,0.23625 -0.0476,0.6275 -0.0312,1.21875 0.0425,0.36 0.0138,0.56375 0.15625,1.03125 l 0.21875,0.625 0.0625,0.15625 0.0312,0.0937 c 2.95724,-0.50173 3.34498,-0.58444 3.75,-0.65625 -0.0915,-0.11589 0.21293,0.30997 0.53125,0.71875 -0.1599,0.35436 -0.3284,0.78296 -0.46875,1.28125 -0.0438,1.53625 0.315,2.42 0.5,2.6875 0.40148,0.81036 0.94693,1.82902 1.34375,2.5 -0.32204,0.44738 -0.64342,1.18351 -0.34375,2.71875 l 0.25,0.65625 0.4375,1.3125 0.9375,2.625 1.8125,5.15625 c 2.33,6.94875 4.4575,13.62875 7.40625,18.90625 2.88625,5.60375 6.71,8.4725 8.09375,10.0625 1.31375,2.36125 1.22,2.54375 0.6875,1.71875 1.085,1.91625 2.1725,4.40375 3.90625,6.8125 0.39,0.61875 0.91375,1.195 1.4375,1.75 l 0.40625,0.40625 0.1875,0.21875 0.0937,0.0937 0.0625,0.0625 c 1.09889,-1.18481 0.31098,-0.28473 2.59375,-2.75 0.0324,0.0473 0.0267,0.074 0.0625,0.125 10.495,12.745 30.03875,30.93375 33.5,31.15625 3.745,3.22125 8.14875,6.15875 3.28125,3.46875 5.67375,3.59625 10.24875,5.505 13.96875,7.21875 l 0.6875,0.34375 0.15625,0.0625 0.0312,0 c 2.82115,-1.89808 1.68672,-1.12561 1.40625,-0.9375 l 2.125,0.75 c 1.59,0.56125 3.105,1.0875 4.59375,1.625 6.00625,1.99875 11.9475,4.5825 25.1875,7.03125 -9.21,-1.78875 -4.92,0.0738 -17.78125,-4.03125 5.3475,2.425 13.50875,4.9475 27.84375,6.75 3.71,-1.1225 10.9625,-3.30375 15.9375,-3.28125 5.2875,0.3025 12.135,0.65125 17.46875,-0.5625 2.43,-0.75375 5.27,-1.27375 8.125,-1.96875 6.73375,-0.85625 10.12,-3.68375 10.8125,-3.90625 0.72125,-0.5175 -0.75875,1.93625 -5.71875,3.78125 20.15125,-7.4675 30.22875,-14.44875 43,-26.125 0.43502,-0.36506 0.51848,-0.29216 0.125,0.15625 2.36625,-2.27611 4.59732,-4.70084 6.75,-7.15625 1.285,-1.6125 2.62875,-3.15875 3.84375,-4.8125 l 1.875,-2.46875 0.4375,-0.625 c -0.5375,1.66125 0.75625,-2.2775 0.625,-1.875 l 0,-0.0312 0,-0.0625 0,-0.0937 0,-0.1875 0,-0.375 0,-0.8125 c 0.23169,-0.33713 0.4546,-0.67667 0.71875,-1.0625 0.62438,-0.86625 1.19853,-1.86033 1.75,-2.78125 -10e-4,-5.3e-4 0.26645,0.0368 0.21875,0.0312 l 0,-0.0312 0.0312,0 0.0312,-0.0625 0.0625,-0.0937 0.4375,-0.8125 c 0.65625,-1.0975 0.96625,-1.9875 1.4375,-2.78125 0.39375,-0.83125 0.87625,-1.39 1.3125,-1.9375 l 0.0625,-0.125 c -0.8633,-0.70771 0.1281,0.1197 -0.4375,-0.34375 l -0.0312,0.0625 -0.0937,0.125 -0.4375,0.5625 0.5,-0.75 0.0312,-0.0312 c 0.0431,0.0353 -0.0135,-0.005 0.0312,0.0312 l 0.0312,-0.0312 0,-0.0312 c -0.0152,-0.0125 -0.0176,-0.0199 -0.0312,-0.0312 l 0.1875,-0.28125 0.0312,-0.0312 c -0.19127,-0.15718 -0.43569,-0.34183 -0.4375,-0.34375 0.31596,-0.76586 0.82141,-1.74069 1.53125,-2.78125 1.455,-2.15625 2.15,-4.8975 2.3125,-7.28125 0.14009,-1.72262 0.19583,-3.24118 0.34375,-4.5625 1.44801,-0.003 3.05873,-0.13512 1.03125,0.4375 5.17125,-1.6425 10.625,-2 15.4375,-3.96875 17.68,-3.92625 36.5725,-10.99625 51.125,-23.5 l -0.5625,0.0312 c 5.06875,-4.35625 8.38875,-9.22875 13.71875,-15.0625 3.02625,-4.88625 6.20875,-12.26625 5.625,-14.875 2.325,-5.7975 2.42625,-8.4475 3.25,-14.40625 -1.04625,1.39 0.25,-5.92 -0.90625,-3.0625 -1.90125,3.59375 -0.9875,3.99625 -2.5625,6.96875 l 0.28125,0 c -5.3025,14.355 -15.42,25.905 -28.46875,34.15625 -8.1625,6.39875 -19.09,10.5125 -29.59375,13.96875 -6.51419,2.19963 -13.52122,4.01949 -20.28125,5.53125 1.20164,-2.80235 0.91209,-6.59692 0.90625,-8.375 -0.007,-0.57375 -0.0625,-1.20375 0,-1.65625 l 0.0312,-0.75 0.0312,-0.375 0,-0.1875 0.0312,-0.0625 c -2.50104,-3.05225 -1.08493,-1.32973 -1.25,-1.53125 l -0.0312,-0.3125 -0.125,-2.0625 c -0.2375,-3.3425 -1.44,-6.12625 -1.75,-8.5 -0.0525,-0.97875 -7e-4,-1.10875 0.0937,-0.9375 -0.95125,-3.77 -1.20625,-7.9425 -1.125,-15.4375 l -0.15625,5.65625 c -0.51883,-1.7972 0.23783,-3.89544 -0.1875,-6.34375 0.007,-0.005 0.0232,0.005 0.0312,0 l 0.0937,-0.0625 c -0.0386,0.0161 -0.0654,0.0138 -0.0937,0.0312 0.0319,-0.0724 0.0398,-0.16208 0,-0.28125 -0.008,0.0969 -0.0488,0.12238 -0.0625,0.1875 -0.0295,-0.15538 -0.0539,-0.31051 -0.0937,-0.46875 0.0717,-0.0457 0.0323,-0.0851 -0.0312,-0.125 -0.0228,-0.0843 -0.0364,-0.16488 -0.0625,-0.25 -0.11866,-0.38627 -0.27102,-0.78421 -0.46875,-1.1875 0.03,-0.0273 0.0636,-0.0325 0.0937,-0.0625 -0.0331,0 -0.062,-8.7e-4 -0.0937,0 -0.17521,-0.35154 -0.40374,-0.70073 -0.65625,-1.0625 0.23629,-0.57203 0.64457,-1.53778 0.34375,-0.8125 l 0,-0.0312 0,-0.0625 -0.0312,-0.125 -0.0312,-0.1875 c 2.80454,-0.57805 5.5802,-1.19616 8.15625,-2.25 17.68,-3.92625 36.5425,-11.0275 51.09375,-23.53125 l -0.53125,0.0625 c 5.0675,-4.3575 8.3875,-9.26 13.71875,-15.09375 3.02625,-4.88625 6.2075,-12.26625 5.625,-14.875 2.325,-5.7975 2.4275,-8.41625 3.25,-14.375 -1.04625,1.39 0.24875,-5.92 -0.90625,-3.0625 -1.9025,3.595 -1.01875,3.99625 -2.59375,6.96875 l 0.28125,-0.0312 c -5.3025,14.355 -15.38875,25.905 -28.4375,34.15625 -7.36909,5.77678 -17.00002,9.68733 -26.53125,12.9375 0.77302,-0.76051 1.76872,-1.43684 2.3125,-2.375 0.011,-0.019 0.0206,-0.0433 0.0312,-0.0625 0.0606,-0.0889 0.10491,-0.1865 0.15625,-0.28125 0.29011,-0.53543 0.44831,-1.15306 0.3125,-1.96875 0,-1.2425 2.46875,-1.25375 2.46875,-1.875 0,-2.4825 0.0287,-5.57875 -0.59375,-8.0625 -0.27039,-1.62128 -0.60637,-3.18833 -0.96875,-4.71875 0.0827,0.29061 0.17026,0.58582 0.25,0.875 -2.40086,-10.23602 -4.2526,-17.41792 -5.15625,-22.09375 l 0.1875,0 c -0.0717,-0.1586 -0.0993,-0.15896 -0.15625,-0.28125 0.0741,-0.16939 0.13716,-0.33068 0.25,-0.5 -0.13433,0 -0.27749,0.007 -0.40625,0 -0.0384,-0.21212 -0.0909,-0.45448 -0.125,-0.65625 -0.006,-0.0261 0.006,-0.067 0,-0.0937 0.1855,-1.64027 -0.27307,-2.88538 -0.4375,-3.84375 -0.14375,-0.61125 -0.2125,-1.11125 -0.28125,-1.5625 l -0.0625,-0.59375 -0.0312,-0.0312 0,-0.0312 c 0.16812,-0.0274 -0.26837,0.0446 -0.1875,0.0312 l 0,0.0625 0,0.0312 c -0.0336,-0.0216 -0.0694,-0.046 -0.125,-0.0625 0.12407,-0.0206 -0.18019,0.0277 -0.78125,0.125 -0.003,-0.009 0.003,-0.022 0,-0.0312 -0.0606,0.009 -0.25394,0.0329 0.71875,-0.125 -0.16176,-0.0322 -0.44477,-0.0398 -0.78125,-0.0312 -0.23057,0.006 -0.47806,0.0325 -0.8125,0.0625 0.005,0.0733 0.0268,0.14445 0.0312,0.21875 0.16602,-0.0278 0.88602,-0.14111 0.78125,-0.125 2.9e-4,0.0101 -3.5e-4,0.0213 0,0.0312 -0.6154,0.0997 -0.52382,0.0825 -0.78125,0.125 0.009,0.14791 0.0198,0.28966 0.0312,0.4375 -0.0223,-0.0659 -0.0393,-0.12092 -0.0625,-0.1875 l -0.0625,-0.1875 0,-0.0312 c -0.0401,0.007 -0.26633,0.0387 -0.21875,0.0312 l 0.0312,0.0625 0.0625,0.15625 0.0937,0.3125 c 0.11057,0.34293 0.21012,0.60107 0.3125,0.90625 0.16129,0.8577 0.36619,1.68364 0.5,2.5 0.10173,0.5686 0.11907,1.11823 0.0625,1.65625 l -0.125,-0.3125 c -0.825,-2.145 -1.5125,-4.6325 -2.28125,-7.46875 0.25791,1.45063 0.47972,2.90568 0.78125,4.34375 -1.10991,-4.78005 -1.6569,-9.73521 -3.5,-14.1875 0.0407,0.0133 0.0639,0.0229 0.0937,0 -0.1625,-0.35859 -0.25222,-0.53316 -0.3125,-0.53125 -0.38328,-0.86523 -0.83556,-1.71292 -1.34375,-2.53125 0.0341,-0.0465 0.0904,-0.0895 0.15625,-0.125 0.4625,0.6725 0.98,1.45125 1.53125,2.3125 0.17848,0.31 0.3361,0.66497 0.5,1 0.13301,0.41451 0.24187,0.8325 0.34375,1.25 -0.0271,-0.24758 -0.0521,-0.50258 -0.0937,-0.75 0.90847,2.0018 1.58525,4.36365 2.1875,6.78125 -0.41391,-1.76437 -0.86,-3.5375 -1.46875,-5.28125 -0.2583,-0.68747 -0.54914,-1.35921 -0.84375,-2.03125 -0.15362,-0.7694 -0.33226,-1.53639 -0.5,-2.3125 l -0.9375,-1.34375 c 0.2531,0.75987 0.53445,1.51908 0.8125,2.28125 -0.27596,-0.53822 -0.5773,-1.08069 -0.90625,-1.59375 l -0.34375,-0.59375 c -0.2817,0.10969 -0.36812,0.14252 -0.53125,0.21875 -1.07688,0.5032 -0.0103,0.41588 -0.375,0.71875 l 0.4375,1.25 c 0.2725,0.84375 0.6375,1.65875 0.84375,2.53125 0.2275,2.42625 0.4075,4.85375 0.53125,7.3125 0.35125,1.35875 0.795,3.09875 1.03125,4.03125 0.315,1.86125 1.0075,2.94375 1,3.84375 -0.115,0.75875 -0.65,0.75125 -0.65625,1.1875 l 0,0.1875 c -0.82128,0.013 -0.64093,0.0238 -0.96875,0.0312 -0.10567,0.002 -0.24451,-0.002 -0.3125,0 l -0.84375,-0.875 c -1.2675,-1.36125 -0.3675,-4.86125 -1.625,-7.15625 -0.44375,-0.81625 0.115,-2.7275 -1.5,-4.21875 -0.70536,-0.62909 -1.46086,-1.10727 -1.84375,-1.53125 10e-4,-0.0563 2.4e-4,-0.0872 0,-0.15625 l 0,-0.0312 c 2.1e-4,-0.093 0.0174,-0.23769 0.0312,-0.21875 l 0.0312,-0.65625 0.0312,-0.34375 0,-0.15625 0,-0.0937 0,-0.0312 0,-0.0312 c -0.55037,-0.22916 -1.34046,-0.57977 -1.21875,-0.53125 0.15851,-0.009 -0.095,0.0105 0.0937,0 l 0,-0.0312 -0.0625,-0.0625 -0.15625,-0.21875 -0.75,-0.875 c -1.03375,-1.10125 -1.64,-2.58125 -2.59375,-4.15625 -0.3825,-0.77625 -0.97875,-1.56 -1.625,-2.34375 l -0.46875,-0.59375 -0.21875,-0.28125 -0.0625,-0.0937 -0.0312,-0.0312 c 0.86782,-1.1163 -0.214,0.28402 -0.96875,1.25 -0.064,-0.0422 -0.12008,-0.0846 -0.1875,-0.125 0.0525,0.0525 0.10527,0.10265 0.15625,0.15625 -0.75137,0.96178 -1.17913,1.48417 -0.96875,1.21875 l 0,0.0312 0.0312,0 0.0625,0.0625 c 0.22125,0.20625 0.525,0.31125 0.71875,0.5625 0.8925,0.8575 1.34,2.45125 2.28125,4.28125 1.529,2.42314 1.9468,1.63788 1.625,3.5625 -0.40982,-1.10079 -0.91885,-2.19014 -1.5625,-3.09375 0.13288,0.14776 0.31899,0.32764 0.5625,0.625 -2.62478,-3.50209 -4.66828,-6.53796 -6.96875,-10.125 l -0.125,-0.71875 c -0.065,0.54 -2.06625,-2.215 -4.96875,-5.40625 -8.6e-4,-0.40326 -1.37908,-1.01365 -2.0625,-0.46875 l -1.65625,-2.84375 c -0.91931,-1.66103 -1.84872,-3.15876 -2.71875,-4.3125 -2.8438,-4.76624 -6.08603,-9.21181 -9.6875,-13.4375 3.10755,3.12923 5.41347,5.5978 9.5625,12.5625 0.35375,-0.31875 -4.60125,-8.73125 -4.5,-8.84375 -7.01625,-9.6875 -17.61,-17.2775 -28.21875,-22.28125 -3.11375,-1.2125 -4.8,-2.565 -8.0625,-4.0625 -0.7975,-0.35875 -1.725,-0.43375 -2.625,-0.53125 l -0.3125,-0.0625 -0.0937,0 -0.0312,0 c -0.19748,1.14997 -0.61478,3.55869 -0.53125,3.125 l 0.125,0.0625 0.53125,0.15625 1.0625,0.34375 c 0.97006,0.3984 1.98664,0.82461 2.375,1.375 -0.0616,0.0562 -0.094,0.0973 -0.15625,0.15625 -0.24503,0.34713 -0.46526,0.32492 -0.6875,0.9375 l -0.1875,-0.0625 -0.15625,-0.0312 -0.0625,-0.0312 -0.0312,-0.0312 c 4.4e-4,-4.1e-4 -0.0316,3.6e-4 -0.0312,0 -0.0403,0.0337 -0.0593,0.0648 -0.0937,0.0937 0.01,-0.009 -0.0538,0.0503 -0.0312,0.0312 -0.004,10e-4 -0.45618,0.34735 -0.53125,0.40625 -0.007,-0.005 -0.0239,0.005 -0.0312,0 -0.80416,-0.53163 -1.44537,-0.69101 -2,-0.78125 0.22955,-0.55392 0.30761,-0.75887 0.46875,-1.15625 l -0.125,-0.0937 -0.25,-0.1875 c -0.34875,-0.24 -0.70125,-0.4975 -1.09375,-0.5625 -1.62875,-0.34875 -2.50875,0.15625 -2.90625,0.125 -0.17375,-0.19375 -0.1425,0.25125 -0.21875,0.375 l 0.125,-0.125 0.0312,-0.0312 0.0312,0 c 0.0295,0.86755 0.0161,0.50863 0.0312,0.9375 0.19552,-0.0448 0.3944,-0.10331 0.625,-0.1875 0.51875,-0.135 1.0175,-0.495 2.125,-0.28125 0.26625,0.0162 0.5125,0.1925 0.78125,0.34375 l 0.1875,0.125 0.125,0.0625 0.0312,0.0312 c -0.10927,0.26542 -0.30237,0.71793 -0.25,0.59375 -0.19828,-0.0279 -0.44713,-0.0886 -0.59375,-0.125 -0.7068,-0.15588 -0.67525,-0.15559 -0.59375,-0.125 0.005,-0.007 0.009,-0.0194 -0.0312,0 -0.003,0.0347 -0.0237,0.046 -0.0312,0.0937 -0.31944,-0.0756 -0.6521,-0.0552 -1,0 0.16283,0.0514 0.35213,0.10339 0.53125,0.15625 0.005,0.0291 -0.007,0.0249 0,0.0625 0.022,0.1377 0.0152,0.23844 0,0.3125 0.13936,-0.0306 0.2732,-0.069 0.34375,-0.15625 0.11988,0.0334 0.24009,0.0495 0.5,0.125 0.17403,0.0664 0.421,0.0688 0.6875,0.0937 0.0269,-0.062 0.39712,-0.92436 -0.375,0.9375 l -0.0312,0 -0.375,-0.0312 c -0.5525,-0.0387 -1.12875,-0.12 -1.5625,-0.25 -0.0191,-0.078 -0.0306,-0.14949 -0.0625,-0.25 -0.0237,0.0542 -0.0399,0.0984 -0.0625,0.125 -0.1363,-0.16149 -0.23497,-0.38193 -0.3125,-0.625 l 0,-0.0312 c 0.0114,0.0152 -0.0684,-0.0701 -0.0625,-0.0625 0.002,0.002 -0.001,-0.0328 0,-0.0312 -0.0504,-0.1009 -0.0744,-0.14863 -0.0937,-0.21875 -0.0209,0.004 -0.0416,-0.003 -0.0625,0 -0.0876,-0.12585 -0.13368,-0.16935 -0.4375,-0.59375 0.01,0.27473 0.0264,0.5353 0.0312,0.65625 -0.47008,0.0218 -0.9262,-0.0828 -1.3125,-0.46875 l 0.5625,-0.53125 c 0.0376,0.10006 0.0712,0.20815 0.0937,0.28125 0.17657,0.0505 0.3815,0.035 0.5625,0 -1.07027,-1.49412 -2.74416,-3.84222 -1.4375,-2.03125 l 0,-0.0312 0.0312,-0.0312 c -0.10191,-0.0461 -0.11773,-0.0476 -0.8125,-0.21875 -0.37806,-0.16781 -1.0809,-0.07 -1.71875,0.0937 -0.15143,-7.6e-4 -0.39825,7.5e-4 -0.65625,0 -0.37042,-1.42924 -0.87399,-3.37559 -0.46875,-1.78125 l -0.0312,-0.0312 -0.53125,-0.15625 -1.03125,-0.3125 c -2.775,-0.85125 -5.69625,-1.8475 -8.71875,-2.5625 -3.04,-0.81625 -6.69125,-0.5625 -9.34375,-0.40625 -2.41625,0.18375 -5.82,-1.015 -8.90625,-0.625 1.805,0.11625 3.97375,0.25625 2.75,0.4375 -5.2275,0.2225 -14.5875,-1.235 -13.375,-1.3125 0.6525,-0.0612 1.25,0.0159 1.875,0.0312 -1.02908,-0.11659 -2.12312,-0.12443 -3.21875,0 0.20328,-0.49405 0.41701,-0.95231 0.34375,-0.78125 -0.54,-0.43 -1.22875,-0.81875 -1.875,-1.0625 z m 13.5,2.6875 c -0.38375,-0.0238 -0.72375,-0.04 -1.03125,-0.0625 l -0.9375,0.0937 1.96875,-0.0312 z m -1.03125,-0.0625 3.4375,-0.375 c -5.2175,0.14375 -4.93,0.25875 -3.4375,0.375 z m 34.09375,8.15625 c -0.0321,-0.009 -0.0615,-0.0185 -0.0937,-0.0312 -0.62651,-0.38743 0.40866,1.05122 0.0937,0.0312 z m 0.625,0.0625 c -0.001,-0.0392 0.002,-0.051 0,-0.0937 -0.0118,0.003 -0.0196,0.0288 -0.0312,0.0312 0.0294,0.0411 0.003,0.0228 0.0312,0.0625 z m 0.5,0.59375 c 0.0423,-0.007 0.0828,-0.0238 0.125,-0.0312 -0.0267,0.0384 0.0779,0.24721 0.3125,0.625 -0.0548,-0.15524 -0.0737,-0.29701 -0.15625,-0.5 0.13336,0.12418 0.48411,0.44443 0.8125,0.40625 -0.33965,-0.10683 -0.82504,-0.54312 -0.9375,-0.53125 0.23963,-0.0434 0.4796,-0.0871 0.71875,-0.125 -0.5819,-0.18358 -0.99109,-0.26366 -0.875,0.15625 z m 1.09375,0.5 c 0.14732,0.0463 0.27889,0.0392 0.3125,-0.125 -0.0401,0.009 -0.078,0.0297 -0.125,0.0312 -0.063,0.0461 -0.11814,0.0858 -0.1875,0.0937 z m -0.65625,0.0937 c 0.0279,0.0791 0.0722,0.18215 0.0937,0.25 0.0119,-0.0272 0.0198,-0.0269 0.0312,-0.0625 -0.057,-0.0886 -0.0802,-0.11533 -0.125,-0.1875 z m 42.75,20.625 c 2.315,2.90125 4.3525,5.98125 6.3125,9.125 -4.2775,-7.3775 -6.28375,-9.14 -6.3125,-9.125 z m 38.59375,43.9375 c 0.0177,-0.003 0.062,-0.026 0.0937,-0.0312 -6.3e-4,-0.0105 6.3e-4,-0.0208 0,-0.0312 -0.0205,0.003 -0.057,0.0252 -0.0937,0.0312 l 0,0.0312 z m 1.65625,-0.3125 c 0.0341,0.007 0.0347,0.0231 0.0625,0.0312 -0.0201,0.003 0.17964,-0.0403 0.125,-0.0312 l 0,-0.0312 c -0.37162,0.0602 0.066,-0.01 -0.1875,0.0312 z m -17.96875,87.84375 0.34375,1.28125 c -0.14625,-0.67125 -0.25375,-1.10125 -0.34375,-1.28125 z m -222.65625,54.1563 c -0.9325,-1.69 -1.8725,-2.885 -2.65625,-3.59375 0.84875,0.95875 2.0775,2.72625 2.65625,3.59375 z m -2.65625,-3.59375 c -0.59375,-0.57375 -0.9325,-0.9 -0.625,-0.46875 l 0.625,0.46875 z m 111.28125,-213.625 c 0.47838,0.0194 1.00375,0.14063 1.65625,0.4375 l 0.375,0.21875 c -0.0414,0.10315 -0.0568,0.0965 -0.0937,0.1875 -0.20109,0.0293 -0.3943,0.0874 -0.59375,0.125 0.005,-0.13776 0.0412,-0.23065 0.0312,-0.40625 -2.62625,-0.72875 -3.95875,0.7475 -6.5,0.5 -4.55125,0.32125 -9.59375,1.145 -13.40625,2.125 1.08288,-0.21785 2.39166,-0.4102 3.78125,-0.625 -4.32405,1.22382 -8.64462,1.23382 -12.96875,2.46875 -4.74839,1.48412 -9.48156,3.04374 -14.15625,4.75 3.07591,-1.15811 6.44974,-2.43616 10.8125,-4.09375 l -1.125,0.25 c 3.6875,-2.1175 10.77375,-2.965 17.75,-4.375 3.57,-0.50375 7.25125,-0.945 10.78125,-1.0625 1.37906,0.27375 2.22111,-0.55824 3.65625,-0.5 z m -1.625,1.09375 c -0.01,0.0238 -0.0212,0.0366 -0.0312,0.0625 0.0127,0.0173 0.0205,0.0423 0.0312,0.0625 -0.20219,0.0489 -0.42115,0.0625 -0.625,0.0625 -0.37482,0 -0.76921,0.0192 -1.15625,0.0312 0.58934,-0.0711 1.18548,-0.14609 1.78125,-0.21875 z m 0.0312,0.1875 c 0.0165,0.0422 0.0239,0.0786 0.0312,0.125 -0.0161,0.0143 -0.0497,0.0149 -0.0625,0.0312 -0.59624,0.4047 -0.49011,0.60813 0.0312,0.71875 0.0567,0.0387 0.14071,0.10486 0.21875,0.15625 -0.43883,-0.0699 -0.875,-0.1099 -0.875,-0.40625 0.15531,-0.31031 0.37557,-0.50822 0.65625,-0.625 z m 7.6875,1.125 c 8.35358,-0.14914 15.95609,1.11227 20.09375,0.25 6.81573,-0.18942 18.25471,4.92865 14.0625,3.90625 0.90879,0.31895 1.54062,0.59737 2,0.875 -4.28381,-1.24166 -8.57137,-3.04516 -13.46875,-3.65625 -3.72625,0 -7.46125,0.61625 -11.1875,-0.625 l -5.5625,0 c -2.34058,0 -4.5095,-0.51071 -6.6875,-0.71875 0.25006,-0.007 0.50118,-0.0269 0.75,-0.0312 z m -6.5625,0.5 c 0.0312,-7.8e-4 0.0596,0 0.0937,0 0.0726,0.10102 0.16458,0.12441 0.34375,0.0312 0.0498,0.007 0.10226,0.0199 0.15625,0.0312 -0.17383,0.0635 -0.35552,0.11215 -0.53125,0.1875 0,-0.10354 -0.039,-0.17045 -0.0625,-0.25 z m 53,2.6875 c 0.75375,0.11875 1.575,0.0449 2.28125,0.34375 3.02375,1.12625 4.955,2.72625 7.6875,3.6875 5.135,2.2375 10.11375,5.21 14.3125,8.84375 l 1.6875,0.0937 c 3.9075,2.9125 10.7325,10.4125 11.28125,12.25 -2.58125,-2.7275 -4.78625,-6.025 -8.03125,-8.0625 0.35231,0.38375 0.64116,0.68342 0.96875,1.03125 -3.90503,-3.24118 -7.81381,-6.05435 -11.71875,-8.84375 -4.34625,-2.485 -8.06125,-4.325 -12.40625,-6.1875 -1.83976,-1.22651 -3.68868,-2.46826 -6.125,-2.5 3e-5,-0.18823 0.0319,-0.39164 0.0625,-0.65625 z m -0.0625,0.6875 c 1.87062,0.61209 4.8881,1.24115 5.5,3.6875 0,0.32883 -0.50485,0.66805 -0.90625,1 -0.0654,-0.23949 -0.0829,-0.50822 -0.0625,-0.78125 0.20211,-0.0629 0.0466,-0.0126 0.59375,-0.1875 l -0.28125,0 c -0.0947,-0.01 -0.19287,-0.0336 -0.28125,-0.0625 0.0213,-0.12339 0.0543,-0.24428 0.0937,-0.375 -0.41875,-1.15125 -1.86,-1.62 -3.0625,-2.09375 -0.37043,-0.7128 -1.58191,0.51798 -1.59375,-1.1875 z m -5.8125,1.375 c 0.0117,0.0359 0.0233,0.0846 0.0312,0.125 0.002,-0.0262 4.2e-4,-0.0477 0,-0.125 -0.004,-0.002 -0.0273,0.002 -0.0312,0 z m -3.875,0.15625 c 0.0138,0.0109 0.018,0.0206 0.0312,0.0312 0.0406,0.27966 0.10424,0.59368 0.28125,0.90625 -0.0118,4.8e-4 -0.0189,0 -0.0312,0 -0.6225,0 -1.25,-0.004 -1.25,-0.625 l 0.28125,-0.28125 c 0.0989,0.0367 0.0598,0.0197 0.625,0.1875 -0.0275,-0.0688 -0.0147,-0.1625 0.0625,-0.21875 z m 1,0.96875 c 0.33287,0.24953 0.81468,0.33634 2.09375,0.21875 0.6075,0.19625 0.9675,0.1 1.28125,-0.0312 0.0815,0.18681 0.13654,0.30357 0.1875,0.4375 -1.19661,0.5427 -1.81439,-0.63973 -3.03125,-0.0312 -0.2813,0 -0.4444,-0.25871 -0.53125,-0.59375 z m 6.21875,1.59375 c 0.11769,0.0344 0.22406,0.0961 0.34375,0.125 -0.0116,0.0203 -0.0172,0.0433 -0.0312,0.0625 -0.1771,-0.0497 -0.29707,-0.0827 -0.3125,-0.1875 z m 1.78125,0.46875 c 0.50706,0.0597 1.09768,0.21274 1.8125,0.6875 -0.34066,0.27097 -0.14211,0.0674 -1.1875,0.90625 -0.36279,-0.12808 -0.77657,-0.22026 -1.1875,-0.28125 0.029,-0.0505 0.28977,-0.65913 0.5625,-1.3125 z m 2.75,0.3125 0.0312,0 0.25,0.0937 0.21875,0.0625 c -0.0143,0.19026 -8e-4,0.39333 0.0312,0.59375 l -0.25,0.0937 c -0.15522,-0.23134 -0.33994,-0.44357 -0.5625,-0.625 -0.008,0.008 0.52951,-0.41917 0.28125,-0.21875 z m -103.84375,0.5 c -3.51753,2.06541 -10.1042,5.34564 -13.5625,7.5 -3.46789,1.92593 -6.82267,4.0339 -10.03125,6.375 3.23455,-3.20919 -0.21531,-2.06844 10.78125,-8.84375 9.6775,-4.54625 -1.51625,1.53125 -2.21875,2.3125 4.87625,-2.73125 9.885,-5.1925 15.03125,-7.34375 z m 103.15625,0.0625 c 0.13966,0.10606 0.29212,0.20849 0.4375,0.34375 0.10869,0.15886 0.18647,0.31955 0.28125,0.5 -0.10481,-0.0272 -0.2059,-0.07 -0.3125,-0.0937 0,0.16783 0.0127,0.34384 0,0.5 -0.12911,-0.0348 -0.16303,-0.047 -0.21875,-0.0625 0.0485,0.0205 0.13306,0.0697 0.1875,0.0937 -0.0393,0.40287 -0.1561,0.71875 -0.59375,0.71875 -0.0694,-0.27746 -0.17406,-0.50599 -0.3125,-0.6875 0.002,-0.004 2.6e-4,-0.0253 0,-0.0312 -0.0119,0.002 -0.0284,-0.0251 -0.0625,-0.0312 -0.005,-0.006 -0.0262,0.006 -0.0312,0 -0.11856,-0.1358 -0.2237,-0.25348 -0.375,-0.34375 l 0,-0.0625 0.0312,-0.0625 0,-0.0312 c -0.20942,0.16522 0.3039,-0.21981 0.96875,-0.75 z m 3.875,0.125 1.5,0 c 2.59003,3.10845 6.45754,3.19201 8.75,5.65625 l -0.34375,0 c -0.0316,0.003 -0.0624,-6.4e-4 -0.0937,0 -1.66545,-1.6141 -4.31764,-2.56559 -6.5625,-3.53125 -0.70418,-0.51446 -1.42532,-1.03131 -2.21875,-1.53125 -0.35423,-0.18007 -0.69036,-0.39914 -1.03125,-0.59375 z m -2.875,0.21875 c 0.0854,0.028 0.16591,0.0639 0.25,0.0937 0.0438,0.16967 0.11168,0.30335 0.1875,0.4375 l 0.125,0.21875 c -0.074,-0.0265 -0.14388,-0.069 -0.21875,-0.0937 -0.1004,-0.22648 -0.21199,-0.45147 -0.34375,-0.65625 z m -1.4375,0.65625 c -0.1243,-0.01 -0.1673,0.0315 -0.15625,0.0937 0.0131,6.8e-4 0.0125,-0.003 0.0312,0 0.0263,-0.0387 0.0822,-0.0784 0.125,-0.0937 z m -0.15625,0.0937 c -0.10506,-0.005 -0.0306,0.0439 0.0312,0.0937 -0.015,-0.0349 -0.0251,-0.0593 -0.0312,-0.0937 z m 0.34375,-0.0625 0,0.0312 c -0.27928,-0.0734 0.31422,0.0933 0.3125,0.0937 -0.12153,-0.0482 -0.2317,-0.10142 -0.3125,-0.125 z m 3.3125,0.75 0.9375,0.0312 c 1.57401,1.00265 2.94375,2.22422 4.40625,3.25 1.17125,0.8125 2.4075,1.62 3.78125,1.9375 0.27495,0.10813 0.56076,0.16797 0.84375,0.21875 0.0692,0.0887 0.15918,0.18672 0.21875,0.28125 -3.9679,-0.57076 -6.69231,-3.87201 -10.1875,-5.71875 z m 11.625,4.75 c 0.21423,0.31747 0.42584,0.63981 0.59375,1.03125 -0.0754,0.008 -0.14425,-0.006 -0.21875,0 0.0196,-0.18566 -0.0566,-0.24521 -0.1875,-0.25 l 0.125,0.25 c -0.30895,0.0208 -0.61214,0.0428 -0.90625,0.0312 0.0901,-0.15268 0.0869,-0.16361 0.15625,-0.28125 0.13359,0.083 0.42859,-0.007 0.625,0 l -0.3125,-0.53125 c 0.031,-0.053 0.10487,-0.21539 0.125,-0.25 z m -148.3125,12.875 c -0.293,0.2669 -0.58542,0.54046 -0.875,0.8125 l -0.0312,-0.0312 c -0.0284,-0.0341 -0.0641,-0.0605 -0.0937,-0.0937 0.33035,-0.24058 0.69382,-0.46173 1,-0.6875 z m -1.65625,1.1875 c 0.10876,0.0168 0.23538,0.0511 0.3125,0.0625 -0.42088,0.40205 -0.83669,0.80537 -1.25,1.21875 -0.0994,-0.1988 -0.18271,-0.31941 -0.28125,-0.40625 0.43017,-0.30718 0.82253,-0.58855 1.21875,-0.875 z m 78.25,0.84375 c 5.57366,-0.029 11.08297,0.20453 16.4375,0.4375 0.62,0 1.8775,1.24125 2.5,0 0,1.24125 1.225,0.59375 1.84375,0.59375 9.31375,1.8625 18.025,5.5925 26.71875,9.9375 10.05182,5.48448 17.7507,13.65491 23.34375,23.53125 0.10697,0.18889 0.20707,0.37237 0.3125,0.5625 0.10226,0.19454 0.17819,0.36347 0.28125,0.5625 0.71069,1.37252 1.44359,2.83891 2.1875,4.4375 l 0.125,0.125 c 0.83214,1.809 1.60196,3.66843 2.3125,5.5625 0.2235,0.67103 0.42059,1.35399 0.625,2.03125 0.0803,0.47294 0.19579,1.0577 0.4375,2 -0.12787,-0.60586 -0.16803,-0.86874 -0.125,-0.9375 2.40596,8.40907 3.40625,17.24741 3.40625,26.09375 l 0,10.5625 c 0,0.62125 -0.62875,0.5975 -1.25,1.21875 -0.50178,-0.50178 -1.77828,-0.59316 -1.9375,-1.59375 -0.0805,0.21638 -0.23521,0.375 -0.53125,0.375 1.24,1.2425 3.715,2.4775 3.09375,3.71875 0,1.86375 0.61375,3.7325 -1.25,5.59375 -1.23541,1.85497 1.23934,3.67875 1.875,5.53125 0.0244,-0.58188 0.61009,-0.5625 1.21875,-0.5625 0.22069,0.14693 0.43506,0.31 0.625,0.5 -0.60953,0.0243 -1.22743,0.0428 -1.84375,0.0625 -6.46088,0.20596 -13.23867,0.17128 -19.5625,0.0937 0.205,0.015 0.40125,0.045 0.53125,0.0625 -5.81125,-0.145 -10.08625,-1.30375 -15.71875,-1.71875 0.005,0.22125 -0.845,0.125 -1.28125,0.1875 -0.88125,-0.49375 -33.28,-3.075 -34.96875,-4.90625 l -1.78125,-0.375 c -11.80125,-3.89375 -21.105,-9.835 -30.3125,-15.34375 -2.21875,-0.70625 -4.645,-1.5825 -6.59375,-2.0625 -1.40625,-1.29875 -2.135,-0.7275 -4.03125,-1.9375 -3.99,-4.58 -7.365,-5.48 -5.125,-3.40625 -4.2625,-2.04625 -8.38375,-4.445 -12.1875,-6.3125 l -5.5,-2.15625 c -1.5775,-0.6 -2.33625,-1.2575 -2.90625,-2.0625 -4.08625,-1.51625 -2.67125,-1.47875 -6.84375,-3.40625 -0.73375,-1.18625 -11.17875,-3.0875 -12.375,-3.53125 l 0.75,0.125 c -3.70319,-1.27875 -6.3945,-2.83703 -9.625,-4.03125 2.29437,-3.35078 4.84258,-6.56069 7.53125,-9.625 18.9375,-20.96375 28.93125,-24.34125 38.21875,-30.8125 -4.47231,1.21488 -14.29309,7.12472 -16.3125,8.0625 9.23358,-6.01386 19.36969,-10.40217 30.0625,-13.65625 8.925,-2.71641 18.33556,-3.48293 27.625,-3.53125 z m -83.75,2.4375 c -5.34328,4.39848 -9.31911,10.57082 -14.65625,15.375 -0.63532,0.6349 -1.26381,1.43285 -1.875,2.28125 0.0578,-0.27715 0.1246,-0.52112 0.21875,-0.90625 -4.46911,7.14273 -3.70905,6.16367 -3.15625,5.75 -0.0513,0.10062 -0.10692,0.21369 -0.15625,0.3125 -0.497,0.993 -1.37791,2.00174 -1.71875,3.3125 -0.80649,-0.036 -0.25276,-0.0177 -0.5625,-0.0312 0.10191,-0.693 0.66378,-1.57286 0.75,-2.03125 1.01625,-1.8975 1.8375,-4.09625 3,-6.09375 6.23698,-6.47083 13.04531,-14.35357 18.15625,-17.96875 z m 56.71875,3.4375 c -1.14485,0.0905 -7.86484,1.65094 -12.34375,4.125 -2.61125,1.6725 8.75625,-3.20625 12.46875,-4.0625 0.0864,-0.048 0.0386,-0.0754 -0.125,-0.0625 z m 131.75,9.78125 c 1.11234,-0.24206 2.57266,2.48867 5,6.3125 -0.0564,-0.0748 -0.12923,-0.14442 -0.1875,-0.21875 -0.0206,-0.0316 -0.0419,-0.0623 -0.0625,-0.0937 -1.28609,-1.97345 -2.64584,-3.88575 -4.25,-5.71875 -0.19969,-0.19969 -0.38677,-0.26632 -0.5625,-0.25 0.0211,-0.007 0.0411,-0.0267 0.0625,-0.0312 z m -0.78125,0.75 c 0.0276,-0.006 0.0633,0.007 0.0937,0 -0.009,0.0551 -0.0312,0.10034 -0.0312,0.15625 -0.0237,-0.0507 -0.0388,-0.10562 -0.0625,-0.15625 z m -162.75,1.5625 c -3.56108,2.95894 -11.04409,8.80689 -19.53125,17.90625 -1.24125,0.39938 4.65682,-5.3315 6.5,-7.125 l -2,1.8125 c 0.15438,-0.22634 0.38468,-0.51206 0.59375,-0.78125 0.71437,-0.6842 1.43182,-1.36051 2.15625,-2.03125 3.85903,-3.66635 7.98042,-6.89303 12.28125,-9.78125 z m -39.59375,2.9375 c 0.044,0 0.0873,0.0195 0.125,0.0312 -0.0676,0.0101 -0.15769,0.019 -0.21875,0.0312 0.032,-0.0199 0.0615,-0.0431 0.0937,-0.0625 z m 0.21875,0.0937 c 0.26419,0.18362 0.35379,0.67368 0.375,1.15625 -0.40038,-0.49973 -0.68247,-0.85776 -0.5,-0.625 -0.0385,-0.17397 -0.0747,-0.30324 -0.0937,-0.28125 -0.12875,0.1625 -0.795,0.57375 -0.9375,0.625 -0.007,0.0206 -0.0225,0.017 -0.0312,0.0312 -0.0267,0.011 -0.0691,0.0526 -0.0937,0.0625 -0.053,-0.007 -0.0841,-0.0559 -0.0937,-0.15625 -8e-4,-0.008 2.3e-4,-0.0226 0,-0.0312 0.2444,-0.22431 0.51028,-0.43593 0.78125,-0.625 0.1877,-0.061 0.37919,-0.10497 0.59375,-0.15625 z m -2.40625,2.03125 c 0.17813,-0.0706 0.0225,0.3125 -0.875,1.71875 l -1.40625,1.90625 c -0.17717,0.38749 -0.39577,0.76083 -0.625,1.125 -0.31489,0.36801 -0.66462,0.72656 -1,1.09375 l -0.0625,-0.0625 c 1.33349,-1.64566 2.37153,-3.77447 3.6875,-5.53125 0.11227,-0.0993 0.2231,-0.22694 0.28125,-0.25 z m 2.25,0.78125 c -1.07776,2.12138 -2.21006,4.17989 -3.8125,5.78125 -0.30754,0.3077 -0.58588,0.58367 -0.875,0.875 l 0.4375,-0.53125 c 0.375,-0.50875 0.8575,-1.055 1.125,-1.53125 1.12053,-1.731 2.04836,-3.57139 3.125,-4.59375 z m 213.46875,1.78125 c 0.73121,0.57161 1.19456,0.90795 1.53125,1.125 0.15626,0.3255 0.51465,0.93143 1.15625,1.84375 0.15129,0.27535 0.31389,0.53708 0.46875,0.8125 -0.05,-0.12309 -0.10765,-0.25031 -0.15625,-0.375 0.55363,0.76995 1.44553,1.8852 2.40625,3.125 l -0.0312,0.0312 -0.125,0.0937 -0.0312,0.0312 c 0.12618,-0.007 0.27866,-2.2e-4 0.28125,0 0.16944,0.21815 0.28534,0.32844 0.46875,0.5625 -0.14376,-0.2078 -0.31896,-0.45517 -0.40625,-0.59375 -0.0222,0.002 0.45968,-0.005 0.375,0 0.0481,0.0463 0.0714,0.0719 0.125,0.125 l 0.1875,0.1875 0.1875,-0.1875 c 1.95875,0.61375 0.5325,0.41125 0.96875,0.65625 l 0,0.875 c -0.285,0.84125 1.18375,1.57875 2.34375,2.71875 1.42875,3.13125 1.78375,6.6175 2.21875,9.71875 0.059,0.55448 0.65321,1.39634 1.15625,1.96875 l -0.0312,0.0937 c 0.55913,-0.0521 -0.74359,0.37947 0.3125,0.21875 0.2968,0.28823 0.51479,0.41457 0.3125,0.0625 0.21136,-0.0962 0.37262,-0.15912 0.53125,-0.21875 -0.12602,0.52883 -0.5625,1 -0.5625,1 -2.485,-1.8625 -2.46875,-4.32875 -2.46875,-6.8125 -0.6225,-1.8625 -1.25,-3.10625 -1.25,-4.96875 -0.6225,-1.24125 -2.47375,-1.88375 -3.09375,-3.125 l 0,-1.84375 -0.625,0.625 c -0.38175,-0.30562 -0.74776,-0.63017 -1.0625,-0.96875 0.29728,0.78965 -0.1875,2.35141 -0.1875,3.4375 0,0.62125 1.25,0.62875 1.25,1.25 0,1.24125 0.6175,3.09375 -0.625,3.09375 -0.57408,0 -1.0081,-0.52608 -1.3125,-1.15625 1.0199,1.70666 2.43771,0.60506 1.5625,-1.125 0,-0.6393 -0.0331,-0.72244 -0.1875,-0.78125 0.005,-0.004 -0.003,-0.0281 0,-0.0312 -0.004,7.3e-4 -0.0274,-9.1e-4 -0.0312,0 -0.20887,-0.0718 -0.58391,-0.18266 -1.25,-1.28125 -0.0213,-1.01375 0.21135,-2.18875 0.0937,-2.96875 -1.61875,-0.76 -2.31625,-5.32875 -4.5,-7.21875 z m 6.25,6.96875 -0.0937,0.0937 -0.1875,0.1875 c 0.006,0.008 -0.006,0.0234 0,0.0312 l -0.0312,0.0312 c 0.43672,0.0163 0.60451,-0.0138 0.65625,-0.0312 -0.0741,-0.0402 -0.28062,-0.1044 -0.15625,-0.125 l -0.1875,-0.1875 z m -9,-6.3125 c 0.26692,0.32504 0.53619,0.64923 0.8125,0.96875 2.45407,3.51718 3.24857,4.62001 3.59375,5.15625 -0.12177,-0.10872 -0.23963,-0.21356 -0.375,-0.28125 -1.52341,-1.95949 -2.80295,-3.9091 -4.03125,-5.84375 z m 15.28125,1.09375 c 0.14091,0.38444 0.279,0.76512 0.40625,1.15625 -0.227,-0.38369 -0.57664,-0.85984 -0.40625,-1.15625 z m -9.375,2.0625 c 0.40708,0.99873 0.89703,1.93171 1.78125,2.625 -0.70708,-0.82547 -1.27028,-1.7177 -1.78125,-2.625 z m -225.59375,0.65625 c -0.0153,0.22528 -3.82375,4.77188 -4.375,7.8125 0.51326,-1.12004 1.0174,-2.07319 1.5,-2.9375 0.32042,0.0291 -0.0817,0.007 0.1875,0.0312 -1.31909,2.67946 -2.20361,5.69285 -3.3125,8.28125 -0.32202,0.77266 -0.65471,1.55178 -1,2.3125 -0.17852,-0.003 -0.35293,0.003 -0.53125,0 2.33299,-5.17937 3.40921,-10.89783 7.28125,-15.3125 0.17407,-0.16094 0.25219,-0.21968 0.25,-0.1875 z m 1.1875,0.3125 c 0.0394,0.0363 0.0683,0.0908 0.0937,0.15625 -0.0254,0.0272 -0.0371,0.0666 -0.0625,0.0937 l -0.125,-0.125 c 0.0341,-0.0394 0.0598,-0.0857 0.0937,-0.125 z m -0.625,0.0937 c -0.96141,0.85935 -1.76131,1.87162 -2.4375,3 l -0.53125,0.65625 c 0.44567,-0.73467 0.88311,-1.41303 1.3125,-1.9375 0.34422,-0.54456 1.07451,-1.37215 1.65625,-1.71875 z m 2.375,0.4375 c 0.0433,0.0159 1.15536,0.48901 0.65625,0.28125 -0.26135,0.26645 -0.50113,0.52209 -0.75,0.78125 0.0225,-0.22345 0.0108,-0.22234 0.0937,-1.0625 z m 224.84375,0.90625 c -0.004,-0.0641 0.10098,0.001 0.25,0.125 l -0.125,0.125 c -0.0474,-0.0885 -0.12308,-0.21732 -0.125,-0.25 z m 2.6875,1.875 0.0312,0.40625 c 0.0178,0.006 0.0366,0.0559 0.0625,0.0937 0.0122,0.068 -0.009,0.11653 0,0.15625 -0.0325,-0.0405 -0.038,-0.0858 -0.0625,-0.125 l 0,0.3125 c -0.0331,-0.19112 -0.0345,-0.28423 -0.0312,-0.34375 -0.10378,-0.1839 -0.13136,-0.33754 0,-0.5 z m 6.3125,0.21875 c 0.63539,2.96829 1.14555,5.95578 1.84375,8.75 0,1.18333 1.00368,2.86647 0.9375,4.25 -0.14927,-0.49262 -0.31863,-0.97183 -0.46875,-1.40625 0.13909,0.5849 0.28963,1.14834 0.4375,1.6875 -0.002,0.0109 0.002,0.0204 0,0.0312 -0.12563,0.65426 -0.56055,1.23711 -1.53125,1.625 -0.5425,0 -1.08969,0.0101 -1.21875,-0.40625 1.29598,-0.46641 0.86056,0.22748 1.71875,-0.5625 -0.43313,-5.52375 -1.20203,-10.61609 -1.71875,-13.96875 z m -237.5,0.8125 c 0.004,0.0675 0.0199,0.11868 0.0312,0.1875 0.0108,0.0672 0.0192,0.1504 0.0312,0.21875 -0.11633,-0.0108 0.75169,0.0742 0.625,0.0625 -0.15637,0.19231 -0.31331,0.39524 -0.46875,0.59375 -0.0721,-0.0439 -0.10745,-0.0863 0.0312,-0.0937 -0.11516,-0.19651 -0.15456,-0.37655 -0.1875,-0.5625 0.0697,0.006 -0.4003,-0.0337 -0.375,-0.0312 -0.0816,0.096 -0.16916,0.18461 -0.25,0.28125 l -0.0625,0.0937 c -0.0277,-0.13633 -0.084,-0.2742 -0.0937,-0.40625 0.0619,0.006 0.43365,0.034 0.40625,0.0312 0.10579,-0.12442 0.20559,-0.25169 0.3125,-0.375 z m -0.5,1.1875 c 0.21702,0.0218 0.43922,0.0565 0.5625,0.0625 -0.12323,0.15934 -0.25175,0.30443 -0.375,0.46875 -0.0877,-0.17582 -0.12956,-0.36162 -0.1875,-0.53125 z m 228.46875,1.40625 c 0.1813,0.10408 0.28492,0.16117 0.34375,0.1875 0.0749,0.52575 0.0944,0.97239 0.125,1.3125 -0.11041,-0.34639 -0.30608,-0.91145 -0.46875,-1.5 z m 15.46875,5.21875 0.0625,0.4375 c -0.14987,-0.10922 -0.13372,-0.27608 -0.0625,-0.4375 z m -1.03125,7.4375 c 0.0284,0.0124 0.0583,0.032 0.0937,0.0312 -0.0221,0.0312 -0.0392,0.0627 -0.0625,0.0937 -0.0165,-0.0396 -0.0149,-0.0853 -0.0312,-0.125 z m -255.46875,8.1875 c 0.21241,0.007 0.4223,0.0265 0.59375,0.0625 -0.12999,0.27976 -0.24793,0.5632 -0.375,0.84375 -0.20754,-0.004 -0.41678,0.004 -0.625,0 0.13829,-0.30194 0.26543,-0.60469 0.40625,-0.90625 z m -0.65625,1.46875 c 0.18681,0.0246 0.37623,0.0377 0.5625,0.0625 -0.7718,1.74194 -1.46415,3.51595 -2.0625,5.3125 -2.485,6.83 -4.9725,13.045 -5.59375,19.875 0,0.82531 0.11343,1.6494 0.25,2.46875 -0.20966,-0.23607 -0.41578,-0.73012 -0.65625,-2.09375 0.88125,4.24 0.5413,8.1725 0.0937,12.4375 0.0275,-2.02125 0.125,-4.28875 0.28125,-6.71875 0.0863,-2.165 -1.0675,-4.81 -0.5,-7.75 0.58125,-5.63375 2.83625,-11.46875 5.09375,-17.40625 0.74664,-2.06749 1.60497,-4.13782 2.53125,-6.1875 z m -50.21875,1.8125 c -1.86228,0.91139 -4.99068,2.65207 -6.65625,3.65625 2.28984,-1.48854 5.51023,-3.67033 5.46875,-3.375 0.49916,-0.19542 0.8492,-0.23584 1.1875,-0.28125 z m 83.84375,0.53125 c 0.5475,2.5225 11.9175,7.53875 12.34375,7.15625 2.60875,0.4325 5.1875,1.1775 7.8125,1.90625 16.86625,5.03 32.15125,15.99125 50.625,26.59375 10.50125,6.29875 41.05375,14.27 52.75,16.0625 l 5.0625,0.875 c -2.82125,-0.585 -2.815,-0.52 -5.625,-1.15625 7.24125,0.305 13.7725,0.265 20.0625,0.25 -1.07875,-0.4225 -1.25,-0.7575 -3.8125,-1.5 l 3.15625,0.5 c 2.97375,-0.89 9.63,-0.4625 12.78125,-0.90625 -0.68875,0.54 1.785,0.70625 3.96875,0.84375 l -0.84375,-0.375 c 8.28625,0.2825 17.89625,-0.40375 25.28125,-1.0625 1.03,-0.0812 1.82625,0.0637 2.3125,0.21875 l 6.71875,-1.15625 -0.21875,1 c -0.74875,3.63375 -1.555,7.36375 -2.03125,10.53125 -0.98,6.38125 -0.63,10.28625 0.21875,6.125 -0.325,6.3875 2.875,18.27125 -4.875,28.5 -0.21617,0.37259 -0.43748,0.75106 -0.65625,1.125 -0.4193,0.0445 -0.85319,0.0534 -1.28125,0.0937 2.7334,-5.22312 1.87934,-4.64623 1.25,-4.125 -0.43,0.32125 -0.7888,0.53875 -0.0937,-0.96875 0.68375,-1.815 2.68625,-3.9525 3.28125,-11.125 1.37125,-14.3225 -0.4575,17.585 1.28125,-3.625 -0.68,-5.22125 -0.635,-11.21375 0,-16.59375 -1.7575,6.81375 -1.65375,14.64375 -1.71875,20.1875 0.005,5.8325 -2.45,9.85 -5.3125,15.09375 -0.25133,0.46245 -0.49832,0.91637 -0.75,1.375 -8.66597,0.67755 -18.77586,0.64208 -27.90625,0.53125 -5.53463,-0.20024 -9.7025,-1.25442 -15.15625,-1.65625 0.005,0.22 -0.8775,0.125 -1.3125,0.1875 -0.88125,-0.49375 -33.28,-3.10625 -34.96875,-4.9375 l -1.78125,-0.34375 c -11.8025,-3.89375 -21.10625,-9.835 -30.3125,-15.34375 -2.21875,-0.70625 -4.645,-1.61375 -6.59375,-2.09375 -1.405,-1.29875 -2.13625,-0.7275 -4.03125,-1.9375 -3.99125,-4.58 -7.36625,-5.44875 -5.125,-3.375 -4.26375,-2.04625 -8.38375,-4.445 -12.1875,-6.3125 l -5.5,-2.1875 c -1.5775,-0.6 -2.335,-1.22625 -2.90625,-2.03125 -4.08625,-1.51625 -2.6725,-1.51 -6.84375,-3.4375 -0.73375,-1.18625 -11.17875,-3.0875 -12.375,-3.53125 l 0.75,0.125 c -5.01,-1.73 -8.10625,-3.975 -13.28125,-5.125 -4.45627,-1.17154 -9.10127,-1.89796 -13.78125,-2.34375 -0.0652,-0.99922 -0.12479,-1.98103 -0.21875,-2.96875 -0.25625,-5.54 0.1625,-10.945 1.03125,-16.875 0.0263,-5.42375 0.92625,-10.83625 2.5625,-16.03125 0.59666,-1.90192 1.28245,-3.75869 2.0625,-5.59375 2.14055,-0.0462 4.22047,-0.2151 6.1875,-0.5625 z m 229.96875,9.90625 c 0.40921,1.746 0.77734,3.34296 1.21875,5.28125 -0.29094,-1.68313 -0.72006,-3.4608 -1.21875,-5.28125 z m -344.5,3.03125 c -0.10998,0.27515 -0.36577,0.74312 -0.59375,1.1875 -0.0888,0.17311 -0.12416,0.28886 -0.21875,0.46875 0.0212,-0.11568 0.0435,-0.27245 0.0625,-0.375 -0.60467,0.38305 -1.40753,2.26885 -1.78125,3.375 0.22613,0.11053 0.39751,-0.22586 0.5,-0.1875 -0.0444,0.36929 -0.14617,0.85338 -0.28125,1.34375 -0.0594,0.17513 -0.13465,0.32856 -0.1875,0.5 l -0.15625,0.25 c -0.075,0.33431 -0.15142,0.64362 -0.25,0.96875 -0.11924,0.26875 -0.26066,0.49359 -0.4375,0.65625 -0.002,-0.26875 0.2775,-0.7575 0.4375,-1.125 -0.5591,0.84474 -0.0439,-1.7813 0.53125,-4.25 0.61405,-0.81541 1.4652,-2.12825 1.71875,-2 0.0126,-0.0676 -0.01,-0.10473 0,-0.15625 l 0.65625,-0.65625 z m -0.65625,0.8125 c -0.0234,0.12523 -0.062,0.29741 -0.0937,0.46875 0.0506,-0.0321 0.10913,-0.0844 0.15625,-0.0937 0.0253,-0.25983 0.002,-0.34255 -0.0625,-0.375 z m -0.65625,5.03125 c 0.18942,-0.039 0.33157,0.0647 0.34375,0.28125 -0.32802,0.57745 -0.44896,0.34033 -0.4375,-0.25 0.0284,-0.0105 0.0677,-0.026 0.0937,-0.0312 z m 281.25,3.5 c -0.11403,0.34348 -0.0936,0.61132 -0.0625,0.84375 0.0773,-0.23297 0.0625,-0.53312 0.0625,-0.84375 z m -207.4375,5.59375 c -0.0762,5.89177 0.16202,8.10922 0.0312,15 -0.30128,0.0131 -0.60453,0.0183 -0.90625,0.0312 0.15923,-4.96737 0.52987,-9.98329 0.875,-15.03125 z m 0.90625,11.15625 c 0.0129,0.001 0.0185,0.0231 0.0312,0.0312 -0.0709,1.00946 -0.13059,2.01974 -0.1875,3.03125 -0.11186,0.007 -0.23235,0.0238 -0.34375,0.0312 -0.0151,0.15601 0.14018,0.19264 0.34375,0.21875 -0.009,0.16734 -0.0225,0.33262 -0.0312,0.5 -0.1455,0.007 -0.29189,0.0249 -0.4375,0.0312 0.23242,-2.79684 0.43536,-3.8655 0.625,-3.84375 z m 243.8125,8.28125 0.0312,0.1875 -0.0312,0 -0.625,0.0937 c -0.0609,0.012 -0.12591,0.0443 -0.1875,0.0625 0.1238,-0.0389 0.26078,-0.0523 0.375,-0.0625 l 0.46875,-0.0625 0.0312,0.125 0,0.0625 c 0.25466,-0.61157 -0.10595,0.26234 -0.28125,0.6875 -0.0688,-0.0964 -0.14532,-0.18326 -0.21875,-0.28125 -1.02028,0.27253 -1.61403,0.96722 -1.9375,1.625 0.0509,-0.47135 0.14437,-0.89453 0.46875,-1.09375 0.0956,-0.38856 0.14238,-0.69877 0.15625,-0.96875 0.58863,-0.12282 1.16313,-0.25423 1.75,-0.375 z m 0.5,0.125 -0.15625,0.0312 -0.125,0.0312 0.3125,-0.0312 0.0312,-0.0312 -0.0625,0 z m -1.6875,0.375 c -0.13056,0.0627 -0.24876,0.13669 -0.375,0.21875 0.12642,-0.0823 0.24713,-0.15581 0.375,-0.21875 z m -8.25,0.6875 c 0.58747,0.12624 1.76608,0.0646 2.53125,0.0625 -0.0288,0.13323 -0.0335,0.27341 -0.0625,0.40625 -4.9e-4,0.002 -0.0309,-0.002 -0.0312,0 -0.69022,3.15778 -1.44284,6.20825 -2.125,9.21875 -0.0236,0.10412 -0.0391,0.20848 -0.0625,0.3125 -0.21085,0.89213 -0.40059,1.79152 -0.59375,2.6875 -0.38919,1.8053 -0.73851,3.60562 -1,5.4375 -0.255,-1.66875 -0.52125,-4.03875 -0.15625,-8.0625 0.18875,-2.00375 0.5325,-4.41625 1.03125,-7.3125 0.13983,-0.84188 0.30486,-1.81902 0.46875,-2.75 z m 10.96875,2.375 0,0.125 c 0.0823,-0.0486 0.1469,-0.0989 0,-0.125 z m 0,0.125 c -0.0809,0.0478 -0.16027,0.10039 0,0.125 l 0,-0.125 z m -245.8125,0.71875 c -4.4e-4,0.14561 5e-5,0.292 0,0.4375 -0.066,-0.11305 -0.31912,-0.21839 -0.71875,-0.34375 -0.0613,-0.0192 -0.086,-0.0424 -0.15625,-0.0625 l 0.15625,0 0.71875,-0.0312 z m 0,0.625 c 0.002,2.28632 0.0806,4.56215 0.1875,6.8125 -0.34789,1.24019 -0.42906,2.47889 -0.375,3.6875 -0.0261,-0.0817 -0.0348,-0.16872 -0.0625,-0.25 -0.56242,-3.24293 -0.84301,-6.505 -1,-9.78125 0.21299,-6.5e-4 0.37043,0.001 0.59375,0 0.345,-0.19641 0.57374,-0.34219 0.65625,-0.46875 z m -37.46875,5.03125 c -1.93142,0.94839 -5.24507,2.80745 -6.84375,3.78125 2.29126,-1.48408 5.73035,-3.80595 5.6875,-3.5 0.47953,-0.18773 0.82878,-0.23742 1.15625,-0.28125 z m 40.03125,0.0312 c 0.33193,-0.0442 0.60603,0.2237 0.71875,0.5625 -0.087,-0.008 -0.34267,-0.038 -0.28125,-0.0312 l -0.0312,0 0,0.0312 -0.0937,0.0937 -0.0937,0.0937 c -0.0224,-0.0159 -0.0232,-0.01 -0.0625,-0.0312 -1.9e-4,0.0296 10e-4,0.0591 0,0.0937 -0.008,-0.0128 -0.0292,-0.0192 -0.0312,-0.0312 -0.01,-0.0375 0.006,-0.0645 0,-0.0937 0.0151,0.008 0.0182,0.0242 0.0312,0.0312 7.3e-4,-0.11114 -0.0162,-0.13788 -0.0625,-0.0937 -6.1e-4,10e-4 -0.0309,-0.006 -0.0312,0 5.5e-4,-0.0133 0.007,0.024 0,0.0312 -0.004,0.004 0.004,0.0265 0,0.0312 0.002,0.005 -0.003,0.0256 0,0.0312 -0.0324,0.0451 -0.083,0.10304 -0.125,0.1875 -0.12309,7.1e-4 -0.24641,0.005 -0.40625,0 0.0766,-0.01 0.14954,-0.0269 0.25,-0.0312 -0.2532,0.005 -0.66177,0.003 -0.53125,0 0.0427,10e-4 0.0833,0.0297 0.125,0.0312 -0.0695,0.0144 -0.10971,0.0427 -0.15625,0.0625 0.0135,-0.03 0.0174,-0.0639 0.0312,-0.0937 0.0976,-0.20999 0.19263,-0.41534 0.3125,-0.625 0.155,-0.15531 0.29418,-0.23094 0.4375,-0.25 z m 43.84375,0.46875 c 0.54625,2.5225 11.91875,7.57 12.34375,7.1875 2.61,0.4325 5.22,1.14625 7.84375,1.875 16.86625,5.03 32.15125,16.02375 50.625,26.625 10.50125,6.3 41.02125,14.27125 52.71875,16.0625 l 5.09375,0.875 c -2.82125,-0.5875 -2.84625,-0.55125 -5.65625,-1.1875 7.24125,0.305 13.77125,0.29625 20.0625,0.28125 -1.07875,-0.4225 -1.25125,-0.79 -3.8125,-1.53125 l 3.15625,0.5 c 2.975,-0.89 9.66,-0.43 12.8125,-0.875 -0.69,0.54125 1.75375,0.70625 3.9375,0.84375 l -0.84375,-0.40625 c 3.67787,0.12537 7.59221,0.0697 11.46875,-0.0937 -1.14325,1.82428 -2.28541,3.61822 -3.46875,5.34375 -2.07375,2.565 -3.81125,6.30375 -6.21875,7.8125 -2.31,3.88875 -3.4775,5.07875 -6.03125,7.59375 -4.26625,3.9025 -9.50125,7.305 -14.125,9.40625 -2.1275,0.8425 -5.0825,1.8075 -7.53125,2.96875 -2.555,1.1125 -3.6125,1.675 -5.9375,1.375 -4.66625,-0.0425 -9.07875,5e-4 -13.03125,0.8125 -3.515,0.70875 -6.15125,0.8525 -8.71875,0.8125 -1.20125,0.0112 -2.315,-0.0163 -3.28125,-0.0312 l -1.34375,-0.0312 -0.15625,0 -0.0937,0 -0.0312,0 -0.0312,0 c -3.9e-4,-0.10209 4e-5,0.39121 0,0.46875 -1e-5,0.0103 0,0.0495 0,0.0625 -2e-5,0.23464 3e-5,0.37606 0,1.125 -0.001,-0.14299 6e-4,0.25619 0,0.65625 -0.34577,-1.44014 -0.81785,-0.29031 -2.84375,-0.6875 -0.33355,0.0126 -0.67084,0.0186 -1.03125,0.0625 -0.19467,-0.18575 1.17144,1.14659 -1.1875,-1.125 l -0.65625,0.125 c -0.66085,0.24782 -1.2052,0.38974 -1.65625,0.84375 l -0.53125,-0.0937 c -1.65625,-0.29625 -3.05875,-0.1325 -4.59375,-0.21875 -5.14497,0.11583 -10.34081,-1.19341 -15.5625,-2.28125 0.2974,-1.52592 0.66287,-3.46149 0.5625,-3.03125 l -0.125,-0.0625 -0.25,-0.0937 -1.03125,-0.375 c -1.39125,-0.49625 -2.63375,-1.085 -4.125,-1.5 -1.1625,-0.325 -3.69375,-1.05875 -3.75,-1.03125 -1.47569,-0.69538 -3.20661,-1.25261 -5.21875,-1.4375 0.64216,0.36582 1.0879,0.7993 0.8125,1.1875 0.1667,0.0522 0.31406,0.0494 0.40625,-0.0312 1.24875,0.0763 2.26625,0.4975 3.375,0.875 0.76361,0.20512 2.68798,0.5968 4.46875,1.09375 0.01,0.003 0.0215,-0.003 0.0312,0 0.0514,0.0502 0.0957,0.1138 0.15625,0.1875 0.0935,0.10317 0.177,0.2419 0.25,0.375 -0.12984,-0.003 -0.26929,-0.005 -0.40625,0 0.1496,0.0707 0.30889,0.15745 0.53125,0.34375 -0.15075,-0.005 -0.31042,-0.009 -0.46875,0 l 0.125,0.46875 0,0.0312 c -0.14067,-0.0592 0.88612,0.36119 0.46875,0.1875 l 0,-0.0312 0,-0.0312 -0.0625,-0.46875 c -0.0116,-0.0514 -0.0149,-0.10535 -0.0312,-0.15625 0.15174,0.12942 0.28787,0.2824 0.46875,0.5 0.33639,0.63156 0.44385,1.16727 0.40625,1.59375 -0.35449,-0.13058 -0.70798,-0.27852 -1.0625,-0.40625 -0.009,-0.003 -0.0221,0.003 -0.0312,0 -0.38816,-0.13966 -0.76767,-0.30666 -1.15625,-0.4375 -0.0185,-0.006 -0.044,0.006 -0.0625,0 -0.0436,-0.0146 -0.0814,-0.048 -0.125,-0.0625 l -0.25,-0.25 -0.1875,-0.25 -0.125,-0.0937 -0.0312,-0.0625 c 0.0261,-0.0401 -0.19752,0.22801 -0.21875,0.25 -0.009,-0.0222 -0.0312,-0.0361 -0.0312,-0.0625 -0.0424,0.0424 -0.10862,0.0826 -0.15625,0.125 0.0409,0.0126 0.0851,0.0161 0.125,0.0312 -0.021,0.0241 -0.091,0.11504 -0.125,0.15625 -0.0359,-0.034 -0.0593,-0.0607 -0.0937,-0.0937 0.0323,-0.0272 0.0633,-0.0665 0.0937,-0.0937 -0.0832,-0.0255 -0.16659,-0.0377 -0.25,-0.0625 l 0.625,-0.3125 c 0.16254,0.0551 0.26211,0.0797 0.5625,0.1875 0.0188,-0.1125 -0.0181,-0.18984 -0.0625,-0.25 -0.13447,-0.0183 -0.22296,-0.0184 -0.34375,-0.0312 l 0.25,-0.125 c 0.0616,-0.0201 0.12662,-0.0139 0.1875,-0.0312 -0.27153,-0.11345 0.67779,0.27659 1.21875,0.5 l 0,-0.0312 0,-0.1875 c 0.27329,0.11503 -0.46486,-0.19414 -0.90625,-0.375 0.2657,-0.0576 0.53214,-0.11081 0.78125,-0.125 l 0,-0.0312 c -0.0474,-0.1149 -0.14219,-0.22277 -0.21875,-0.3125 -0.33321,0.0198 -0.68753,0.0774 -1.0625,0.15625 l -0.125,0.0625 c -1.71013,-0.70388 -2.77718,-1.1408 -2.28125,-0.9375 l -0.0312,0.0312 -0.0937,0.0625 c -0.14079,0.19156 -0.56739,0.40111 -1.21875,1.0625 -0.008,-0.004 -0.0234,0.004 -0.0312,0 -1.24113,-0.61621 -3.0778,-1.25 -4.3125,-1.25 -1.24125,0 -0.009,-1.84375 -1.25,-1.84375 -3.33921,0.55448 -5.69056,-1.39296 -8.375,-2.25 l 0.1875,-0.25 0.0625,-0.0625 c -0.0524,-0.52076 -0.0383,-0.36061 -0.0625,-0.5625 -0.23502,-0.0539 -0.47406,-0.11562 -0.71875,-0.15625 l -0.125,-0.0312 c -0.008,-0.004 -0.023,0.004 -0.0312,0 -1.80909,-0.95165 -4.07038,-0.54264 -5.8125,-2.28125 -1.24125,-1.24375 -2.5075,-2.5 -3.75,-2.5 -1.86375,-0.62125 -3.105,-1.85125 -4.96875,-3.09375 -1.68393,-1.03639 -3.30044,-2.13689 -4.875,-3.28125 -0.26669,-0.41734 -1.20461,-1.37958 -3.65625,-3.4375 5.195,4.3825 9.84875,7.81875 13.875,9.65625 2.55,0.65375 3.62875,2.95125 5.4375,3.3125 0.88375,0.22875 1.84625,0.38875 2.8125,0.53125 l 1.5,0.53125 0.15625,0.0625 c 0.0619,0.43324 0.0672,-0.0536 0.15625,0.6875 1.64514,0.3776 3.07406,1.03484 4.40625,1.375 0.7625,0.2125 1.495,0.305 2.1875,0.28125 0.34875,0.04 0.695,-0.085 1.03125,-0.125 -0.10478,-0.10032 -0.0505,-0.15258 0.0625,-0.15625 -16.22436,-6.15049 -35.53567,-21.00496 -47.90625,-35.75 -7.20625,-8.81625 -12.6675,-17.82625 -18,-28.40625 -2.88278,-3.68689 -4.30433,-8.02934 -5.0625,-12.65625 5.42451,0.53946 10.57708,0.72036 15.1875,-0.0937 z m 55.78125,76.90625 c 0.62714,0.23774 1.25764,0.50769 1.875,0.71875 0.0316,0.003 0.0624,-0.003 0.0937,0 -0.73941,-0.42123 -1.65932,-0.7288 -1.96875,-0.71875 z m 10.90625,4.40625 c 0.0537,-0.003 0.10357,0.002 0.15625,0 -0.11615,-0.0549 -0.2457,-0.12344 -0.3125,-0.15625 0.0421,0.0372 0.0754,0.0615 0.15625,0.15625 z m -0.96875,0.75 c 0.0713,0.01 0.11121,0.0203 0.1875,0.0312 0.20611,0.0353 0.54409,0.10578 1,0.65625 0.0407,-0.003 0.0844,-0.0298 0.125,-0.0312 -0.14695,-0.32644 -0.37925,-0.5519 -0.625,-0.53125 -0.41274,-0.1396 -0.78708,-0.50367 -0.5,-0.125 -0.10099,-0.0172 -0.18373,-0.007 -0.21875,-0.0625 0.009,0.0115 0.0146,0.0399 0.0312,0.0625 z m 1.3125,0.65625 c 0.004,0.009 -0.004,0.0226 0,0.0312 0.0723,-0.002 0.15016,-0.0318 0.21875,-0.0312 -0.0693,-0.002 -0.14879,-0.002 -0.21875,0 z m 0,0.0312 c -0.0408,10e-4 -0.0833,-0.002 -0.125,0 0.0719,0.0869 0.14097,0.16879 0.21875,0.28125 -0.0279,-0.0994 -0.0553,-0.1921 -0.0937,-0.28125 z m -8.46875,-3.9375 c -0.5001,-0.15656 -1.13875,-0.59875 -0.8125,0.6875 0.065,0.15875 -0.0213,0.37375 -0.1875,0.46875 0.9524,-0.41432 1.04781,-0.4421 1.0625,-0.4375 -0.0349,0.021 -0.0142,0.024 0.0625,0 -0.0271,-0.10137 -0.0668,-0.32525 -0.125,-0.6875 0.007,-0.008 -0.006,-0.0229 0,-0.0312 z m -101.68745,-78.406 c 0.0107,2e-5 0.0511,-1e-4 0.0625,0 l 0,0.28125 c -0.047,4.8e-4 -0.0858,0.002 -0.125,0 -0.0258,-0.0275 -0.0639,-0.0379 -0.0937,-0.0625 -0.005,-0.004 0.005,-0.0269 0,-0.0312 -0.0214,-0.0238 -0.0619,-0.0374 -0.0937,-0.0625 -0.0702,-0.0553 -0.11287,-0.12553 0.25,-0.125 z m -0.34375,0.25 c 0.10032,-0.004 0.1619,0.0135 0.1875,0 0.0156,0.01 0.0145,0.0211 0.0312,0.0312 -0.0778,-0.006 -0.17052,-0.0172 -0.21875,-0.0312 z m -1.3125,0.21875 c 0.0575,0.18723 0.17554,0.38981 0.0312,0.53125 l 0,0.15625 0,0.0625 0,0.0312 c 0.67828,0.28057 -0.0871,-0.0531 0.34375,0.125 -0.0185,0.0645 -0.045,0.12212 -0.0625,0.1875 0.21597,0.11144 0.48509,0.21592 0.75,0.34375 0.005,0.0324 -0.003,0.0575 0,0.0937 -0.0249,-0.01 -0.29379,-0.11098 -0.78125,-0.3125 -0.0218,0.0857 -0.0431,0.1643 -0.0625,0.25 -0.0103,0.0411 -0.022,0.0837 -0.0312,0.125 l -0.0937,0.0312 c -0.0362,-0.0362 0.0101,0.055 0.0312,0.21875 0.009,0.0545 0.003,0.13699 0,0.21875 -0.0429,0.28925 -0.0521,0.57947 -0.0625,0.875 -0.0461,0.38933 -0.10304,0.81893 -0.125,1.34375 -0.27733,0.34476 0.0561,1.42651 0.375,2.3125 0.14477,1.04952 0.28192,2.12164 0.34375,3.21875 0.08,0.72375 0.0701,1.44375 0.0312,2.1875 l -0.0312,0.5625 c -3.00875,0.795 -0.96375,-0.2025 -1.6875,-0.21875 -0.10875,-0.47125 -0.1038,-0.89 -0.0937,-1.25 0.0362,-0.75625 -0.0487,-1.1925 -0.21875,-1.25 l -0.25,-0.0937 -0.0625,-0.0312 c -0.31401,-1.29015 -0.31887,-1.41415 -0.3125,-1.4375 0.0204,0.0541 0.0372,0.0462 0,-0.125 l 0.0937,-0.15625 c 0.15625,-0.195 0.29375,-0.3975 0.34375,-0.65625 0.0103,-0.0309 0.0221,-0.0623 0.0312,-0.0937 -0.003,-0.0312 0.002,-0.063 0,-0.0937 0.19001,-0.75227 0.0971,-1.66423 -0.15625,-2.59375 -0.047,-1.10777 -0.0259,-2.28465 0.25,-3.46875 0.0163,0.31143 0.0131,0.62747 0.0312,0.9375 0.2325,0.69891 0.57024,1.55172 0.78125,2.46875 -0.0747,-1.19224 -0.0497,-2.36155 0.25,-3.53125 0.84147,0.34833 0.23503,0.0888 0.625,0.25 0.0109,-0.0429 0.0199,-0.0824 0.0312,-0.125 -0.22033,-0.11369 -0.42059,-0.21472 -0.59375,-0.3125 0.0723,-0.25776 0.18074,-0.52418 0.28125,-0.78125 z m 2.3125,0.1875 c 0.0246,0.0112 0.037,0.0511 0.0625,0.0625 0.0631,0.10335 0.10392,0.21009 0.15625,0.3125 -0.27094,-0.11243 -0.38585,-0.17855 -0.40625,-0.1875 l 0.1875,-0.1875 z m -0.28125,0.28125 c 0.48385,0.2009 0.58341,0.27778 0.59375,0.28125 -0.0622,0.17195 -0.11665,0.34111 -0.15625,0.5 0.089,0.008 -0.41402,-0.0285 -0.4375,-0.0312 -0.0125,-0.23621 -0.0487,-0.45879 -0.0937,-0.65625 l 0.0937,-0.0937 z m 0.6875,0.5625 c 0.018,0.081 0.0199,0.16769 0.0312,0.25 0.0265,0.002 -0.15283,-0.003 -0.125,0 l 0.0937,-0.25 z m -2.4375,0.5 c -0.6987,-0.0684 0.69626,0.0854 0.78125,0.0937 6.9e-4,0.0176 -3.5e-4,0.0441 0,0.0625 -0.59673,-0.0728 0.63941,0.0745 -0.75,-0.0937 -0.0159,-0.0356 -0.0558,-0.0437 -0.0625,-0.0312 l 0.0312,-0.0312 z m 1.125,0.0625 c 0.0435,0.0205 0.0803,0.0416 0.125,0.0625 0.24842,0.0244 0.13106,0.0263 0.5,0.0625 2.4e-4,-0.0411 2.1e-4,-0.0847 0,-0.125 -0.0749,-0.0314 0.37277,0.16862 0.34375,0.15625 -0.002,-9.5e-4 0.0331,7.7e-4 0.0312,0 0.30114,0.0296 0.0891,0.0344 0.375,0.0625 9e-5,0.0317 5.2e-4,0.062 0,0.0937 -0.002,0.10637 -0.0237,0.20495 -0.0312,0.3125 -7.1e-4,-3e-4 6.7e-4,0.0315 0,0.0312 -0.10436,1.40673 -0.59421,2.90515 0.21875,4.125 0.49811,1.49331 0.9851,3.37702 0.84375,5.34375 l -0.125,-0.0312 -0.0625,0 -0.0312,0 c -0.0484,-0.0608 0.14068,0.18038 0.21875,0.28125 l -0.15625,0 -0.0312,0 -0.0312,0 c 0.38287,0.49061 -0.0108,-0.004 0.1875,0.25 -0.0414,0.3191 -0.10718,0.64795 -0.1875,0.96875 0.46594,0 0.9503,-0.0131 1.15625,0.25 0.0687,0.0877 0.0937,0.21969 0.0937,0.375 0,0.62125 -1.24625,1.26 -0.625,2.5 0.27276,0.81827 0.68999,1.49474 1.09375,2.125 l -0.1875,0.125 c -0.86872,-1.28072 -1.86987,-2.71324 -0.875,-4.28125 0.84125,-1.2875 -0.55,0.34375 -0.96875,-1.71875 0.16375,-0.85625 0.1863,-1.68625 0.0937,-2.5 -0.37066,-2.21947 -1.12765,-4.3788 -1.125,-5.96875 -0.10331,0.58344 -0.15419,1.1788 -0.0937,1.75 -0.26563,-1.38726 -0.14926,-2.76951 -0.125,-3.90625 0.0984,0.041 -0.51441,-0.21963 -0.4375,-0.1875 -0.0586,-0.007 -0.1192,0.0122 -0.21875,0 0.004,-0.0199 -0.004,-0.0426 0,-0.0625 -0.0236,-0.01 0.25528,0.0778 0.21875,0.0625 0.0513,0.006 0.16283,0.0281 0.1875,0.0312 -0.0944,-0.0435 -0.16057,-0.0832 -0.25,-0.125 -0.0766,-0.008 -0.0968,0.006 -0.15625,0 0.004,-0.0217 0.0268,-0.0408 0.0312,-0.0625 z m 0.375,0.1875 c 0.0833,0.0384 0.16274,0.0853 0.25,0.125 6.2e-4,-0.0317 -4.1e-4,-0.0625 0,-0.0937 0.005,3.1e-4 -0.21727,-0.0271 -0.25,-0.0312 z m 0.25,0.0312 c -0.006,-3.9e-4 0.35945,0.0365 0.3125,0.0312 0.003,-0.0316 0.0272,-0.0611 0.0312,-0.0937 -0.27342,-0.0269 -0.091,-0.006 -0.34375,-0.0312 -1.8e-4,0.0308 4.1e-4,0.0625 0,0.0937 z m 0.3125,0.0312 c -0.006,0.0615 -0.0282,0.13042 -0.0312,0.1875 0.0476,0.0214 0.10756,0.0407 0.15625,0.0625 0.0108,-0.0714 0.0192,-0.14752 0.0312,-0.21875 0.0303,0.003 -0.18001,-0.034 -0.15625,-0.0312 z m 0.15625,0.0312 c -0.054,-0.006 0.34464,0.0385 0.28125,0.0312 -0.064,-0.0262 -0.24375,-0.0915 -0.25,-0.0937 -0.004,0.0216 -0.0276,0.041 -0.0312,0.0625 z m -0.0312,0.21875 c -10e-4,0.0102 0.002,0.0211 0,0.0312 -0.0442,-0.0184 0.29951,0.1015 0.28125,0.0937 -0.0929,-0.0411 -0.19212,-0.0851 -0.28125,-0.125 z m 0,0.0312 c 0.0251,0.0105 -0.18675,-0.0752 -0.15625,-0.0625 -0.0209,0.45978 0.0625,0.76786 0.125,0.8125 -0.024,-0.275 -0.003,-0.51391 0.0312,-0.75 z m -0.0312,0.75 c -0.15317,0.35279 -0.18674,0.7628 -0.1875,1.21875 0.0997,-0.56279 0.25711,-1.11647 0.40625,-1.5625 -0.0723,0.10471 -0.16754,0.2258 -0.21875,0.34375 z m -0.125,-0.8125 c 4.2e-4,-0.009 -4.9e-4,-0.022 0,-0.0312 -0.0871,-0.0392 -0.19779,-0.087 -0.28125,-0.125 -2e-4,0.0106 2.3e-4,0.0206 0,0.0312 -0.0636,-0.0265 0.33702,0.14826 0.28125,0.125 z m -2.90625,2.5 c 0.0439,0.66731 0.10333,1.34992 0.1875,2.03125 0.046,-0.66189 -0.0373,-1.36198 -0.1875,-2.03125 z m 0.1875,2.03125 c -0.0578,0.83298 -0.32851,1.60977 -0.96875,2.25 1.8625,0.62 0.62875,2.47625 1.25,3.71875 0.26167,-2.0923 -0.0443,-4.05046 -0.28125,-5.96875 z m -1.75,4.53125 c 0.0264,0.11211 -0.0278,-0.0554 0,0.0625 l -0.0312,0 0.0312,-0.0625 z m 248.09375,0.34375 c 0.50011,1.90453 1.24248,4.51215 0.96875,2.8125 -0.30716,-1.15368 -0.68392,-1.95448 -0.96875,-2.8125 z m -315.6875,0.625 c -0.15429,0.38791 -0.43834,1.00529 -0.78125,1.65625 0.0227,-0.12391 0.0423,-0.29719 0.0625,-0.40625 -0.60584,0.36064 -1.43553,2.25924 -1.8125,3.375 0.22528,0.11053 0.42848,-0.22586 0.53125,-0.1875 -0.0511,0.445 -0.24478,1.03669 -0.40625,1.625 -0.0233,0.0735 -0.0401,0.14619 -0.0625,0.21875 l -0.15625,0.28125 c -0.0821,0.36814 -0.2081,0.71374 -0.3125,1.0625 -0.10857,0.22443 -0.22058,0.42074 -0.375,0.5625 -10e-4,-0.26875 0.24625,-0.79 0.40625,-1.15625 -0.55901,0.84461 -0.0127,-1.75039 0.5625,-4.21875 0.63459,-0.84229 1.49862,-2.2687 1.71875,-2.03125 0.0101,-0.0541 -0.008,-0.0811 0,-0.125 l 0.625,-0.65625 z m -0.625,0.78125 c -0.0233,0.12426 -0.0622,0.29904 -0.0937,0.46875 0.0451,-0.0268 0.0828,-0.0539 0.125,-0.0625 0.0222,-0.22578 0.0156,-0.35569 -0.0312,-0.40625 z m -0.6875,5.03125 c 0.18949,-0.0388 0.33157,0.0652 0.34375,0.28125 -0.33293,0.58552 -0.45238,0.35949 -0.4375,-0.25 0.0324,-0.0125 0.0644,-0.0252 0.0937,-0.0312 z m 316.1875,0.6875 0.0312,0 0.125,0.0625 0,0.0312 0.0312,0.0312 c -0.01,0.0294 -0.0239,0.0402 -0.0312,0.0625 -0.0429,-0.0523 -0.0873,-0.10336 -0.15625,-0.1875 z m -239.71875,0.0312 c 0.48149,0.73451 0.95802,1.38347 1.28125,2.03125 0,0 -1.21875,0.5975 -1.21875,1.21875 2.06926,5.17886 3.73192,10.36778 5.65625,15.90625 -0.56562,-1.21809 -0.99986,-2.07368 -1.0625,-1.9375 -0.32388,-1.47638 -0.96236,-3.6158 -1.875,-6.15625 -0.55625,-1.5525 -1.20375,-3.2325 -1.875,-5 l -1,-2.71875 c 0.42375,-1.615 1.75625,-1.06125 0.5625,-2.15625 -0.13677,-0.30666 -0.31504,-0.61085 -0.53125,-0.9375 -0.009,0.0262 0.0995,-0.35919 0.0625,-0.25 z m 238.46875,2.3125 c 0.10467,0.32945 0.2159,0.63333 0.375,0.875 -0.22032,-0.0738 -0.375,-0.23227 -0.375,-0.53125 0,-0.12197 10e-5,-0.22466 0,-0.34375 z m 1.15625,1.5625 c -0.1777,1.67927 -0.0731,3.33584 -0.0312,5 0.2365,2.4937 -0.38077,4.99523 -1.28125,7.25 -0.23715,0.0496 -0.48263,0.10751 -0.71875,0.15625 0.59731,-1.21125 1.13293,-2.43344 1.5,-3.71875 0.57935,-2.89444 0.0972,-5.79291 0.53125,-8.6875 z m -27.6875,26.625 c -3.88022,5.99141 -7.8609,11.70463 -11.71875,16.4375 -0.33125,0.23 -0.22875,-0.22 0.15625,-1.0625 0.7175,-1.66125 1.98875,-1.7425 2.65625,-3.3125 1.8,-2.885 4.18375,-6.35875 5.40625,-8.625 0.86149,-1.34829 1.43954,-2.21518 2.15625,-3.34375 0.44942,-0.022 0.89664,-0.0692 1.34375,-0.0937 z m 20.09375,2.03125 c 0.135,0.085 0.2837,1.245 -0.0625,3.3125 -0.1575,2.165 -2.1625,4.9875 -3.1875,6.6875 -0.053,0.09 -0.10412,0.18866 -0.15625,0.28125 0.0355,0.0287 -0.31319,-0.24153 -0.4375,-0.34375 0.45152,-0.78004 0.95081,-1.54358 1.46875,-2.28125 1.695,-2.255 2.3,-5.27 2.375,-7.65625 z m -220.96875,1.3125 c 0.35747,0.55418 2.99212,3.42105 4.0625,4.375 2.406,2.4849 3.83663,5.55577 5.4375,8.40625 -2.6457,-3.8219 -4.67666,-5.86148 -9.5,-12.78125 z m 217.09375,8.6875 c 0.26557,0.21756 0.0879,0.0881 0.4375,0.375 -0.0181,0.0325 -0.0446,0.0611 -0.0625,0.0937 -0.0335,0.0613 -0.0608,0.12545 -0.0937,0.1875 0.004,0.004 -0.0352,-0.0343 -0.0312,-0.0312 0.0461,0.0373 -0.32607,-0.27762 -0.40625,-0.34375 0.0527,-0.0945 0.10212,-0.18709 0.15625,-0.28125 z m -0.1875,0.34375 c -0.085,-0.0703 0.45139,0.35009 0.40625,0.3125 -0.005,0.006 0.005,0.0257 0,0.0312 -0.004,-0.003 0.0344,0.034 0.0312,0.0312 -0.9191,1.74336 -1.61801,3.7292 -1.375,4.65625 -0.11281,-0.0119 1.10893,0.1302 0.75,0.0937 -0.33112,0.68399 -0.75435,1.47707 -1.3125,2.40625 -4.54718,-0.47143 -3.16537,-0.35441 -2.71875,-0.3125 0.27987,-0.38843 0.5764,-0.77116 0.84375,-1.15625 0.0464,0.0733 0.0941,0.14535 0.1875,0.1875 0.0105,0.0312 0.0195,0.0645 0.0312,0.0937 0.0125,-0.0188 0.0188,-0.0435 0.0312,-0.0625 0.0555,0.0185 0.11397,0.0253 0.1875,0.0312 l 0.4375,-0.78125 c 0.53646,0.0556 2.01789,0.22484 1.0625,0.125 l 0,-0.0312 0,-0.125 c -0.0145,-0.0363 -0.0197,-0.0852 -0.0312,-0.125 -1.04337,-0.10923 -0.68063,-0.0699 -0.90625,-0.0937 l 0.21875,-0.375 c 0.33512,0.035 0.42981,0.0454 0.59375,0.0625 -0.038,-0.53564 0.0691,-1.2287 0.25,-1.90625 0.0114,-0.0413 0.0192,-0.0836 0.0312,-0.125 0.55075,-0.84355 1.09028,-1.69382 1.6875,-2.59375 -0.63778,0.6837 -1.14405,1.41194 -1.5625,2.1875 0.28117,-0.84059 0.69186,-1.69265 1.15625,-2.53125 z m -1.5625,4.96875 c 0.011,0.15538 0.0567,0.28035 0.0937,0.40625 0.68372,0.0716 -0.59262,-0.0615 0.59375,0.0625 l 0,-0.0312 0,-0.0312 0,-0.0312 -0.0312,-0.1875 c -0.0138,-0.0353 -0.021,-0.0856 -0.0312,-0.125 0.0938,0.01 -0.45253,-0.0445 -0.625,-0.0625 z m 2.90625,-3.71875 -0.0937,0.3125 c -0.25375,0.73 -0.49125,1.44375 -0.84375,2.28125 l 0.53125,-0.8125 c -0.22169,0.4226 -0.46093,0.87342 -0.6875,1.34375 -0.0333,0.0209 -0.0493,0.025 -0.0937,0.0625 -0.0701,0.15347 -0.1714,0.33471 -0.25,0.5 -0.0151,-0.0599 0.0176,-0.21172 0.0312,-0.34375 0.0843,-0.0775 0.15317,-0.1016 0.21875,-0.15625 l 0.25,-0.59375 -0.46875,0.6875 c 0.006,-0.0499 -0.006,-0.0733 0,-0.125 0.085,-0.56 0.36625,-1.29125 0.65625,-1.875 0.30062,-0.5925 0.57266,-1.05672 0.75,-1.28125 z m -1.40625,0.0312 c -0.22953,0.28778 -0.42944,0.59452 -0.625,0.90625 0.18879,-0.30039 0.39625,-0.61219 0.625,-0.90625 z m -204.25,0.0937 c 0.20674,0.24808 0.41803,0.50151 0.625,0.75 -0.32742,-0.2682 -0.62627,-0.37264 -0.84375,-0.1875 0.071,-0.19213 0.1286,-0.38221 0.21875,-0.5625 z m -0.625,2.375 c -8.1e-4,0.10536 0.0297,0.2073 0.0312,0.3125 -0.0119,-0.0193 -0.0194,-0.0431 -0.0312,-0.0625 0.004,-0.0818 -0.006,-0.16865 0,-0.25 z m -0.0312,0.875 c 0.0329,0.0449 0.0593,0.0786 0.0937,0.125 0.0421,0.60189 0.10659,1.18916 0.25,1.75 -0.0258,-0.0398 -0.0371,-0.0858 -0.0625,-0.125 -0.14372,-0.57511 -0.26297,-1.15348 -0.28125,-1.75 z m 201.53125,0.15625 c 0.15082,0.0158 0.0369,0.0156 0.1875,0.0312 -0.003,0.18087 -8.3e-4,0.31489 0.0312,0.375 0.0318,0.003 -0.22642,-0.0352 -0.1875,-0.0312 -0.0105,-0.12557 -0.0301,-0.24617 -0.0312,-0.375 z m 0.65625,0.0625 c 0.16357,0.0171 0.0659,0.0154 0.21875,0.0312 -0.0795,0.1186 -0.17025,0.22583 -0.25,0.34375 0.004,3.6e-4 -0.24331,-0.0337 -0.21875,-0.0312 0.0739,-0.0595 0.14972,-0.18035 0.25,-0.34375 z m 0.4375,0.0312 c 0.0998,0.0104 0.0653,0.0219 0.15625,0.0312 -0.0683,0.12787 -0.148,0.24811 -0.21875,0.375 -0.0289,-0.003 -0.10721,-0.0293 -0.125,-0.0312 0.0652,-0.12438 0.12389,-0.24802 0.1875,-0.375 z m -1.03125,0.5625 c 0.32546,0.034 0.0971,0.0303 0.40625,0.0625 -0.0797,0.11702 -0.17053,0.22846 -0.25,0.34375 -0.047,-0.0623 -0.0895,-0.14655 -0.125,-0.21875 -0.0121,-0.0629 -0.022,-0.12355 -0.0312,-0.1875 z m 0.71875,0.0937 c 0.0567,0.006 0.0427,-0.005 0.0937,0 -0.11516,0.19902 -0.21844,0.39965 -0.34375,0.59375 -0.0284,-0.0168 -0.0363,-0.0436 -0.0625,-0.0625 0.10634,-0.17241 0.21306,-0.35001 0.3125,-0.53125 z m -203.34375,0.625 0.125,0.0937 c 0.19895,0.29348 0.41174,0.59334 0.625,0.875 -0.30628,-0.38089 -0.59746,-0.73397 -0.75,-0.96875 z m 1.375,0.5625 c 0.0269,0.0355 0.0666,0.0586 0.0937,0.0937 0.2506,0.83254 0.63287,1.60299 1.1875,2.21875 -0.008,0.0209 -0.0405,0.0305 -0.0625,0.0312 -0.53606,-0.6523 -0.95718,-1.45845 -1.21875,-2.34375 z m 174.40625,0.6875 c -1.21771,1.43022 -1.96593,2.41645 -2.40625,3.03125 -0.53309,0.51042 -1.06368,1.00143 -1.5625,1.5 -2.75195,2.14027 -5.51383,4.09774 -8.34375,5.78125 3.79634,-2.29586 8.44098,-6.02111 12.3125,-10.3125 z m 25.875,0 c 0.9011,0.0981 1.84612,0.22456 2.71875,0.3125 -0.48062,0.78834 -1.03731,1.66353 -1.78125,2.6875 l -0.3125,0.375 0,-0.0625 c 0.0124,-0.0348 -0.0714,0.15698 -0.0937,0.21875 l -0.40625,0.53125 -0.0625,0.0937 0,0.71875 c -0.0206,0.0571 -0.21991,0.63722 -0.125,0.375 l 0.125,-0.21875 0,0.15625 0,0.40625 c -0.0581,0.18594 -0.0532,0.20172 -0.0312,0.15625 0.007,0.0126 -0.0255,0.15927 -0.5,1.5625 l -0.125,0.1875 -0.53125,0.6875 c -1.4225,1.93625 -3.17,4.165 -5.375,6.6875 -1.68375,1.1375 0.59,-1.56375 2.96875,-4.625 l 1.71875,-2.34375 c 0.42625,-0.8625 0.20375,0.34 1.125,-2.1875 l -0.0312,-1.15625 -0.0625,-1 -0.0312,-0.21875 c -0.0441,0.11469 -0.0465,0.11641 -0.0312,0.0625 -6.5e-4,6e-4 -0.0299,0.0596 -0.0312,0.0625 -0.0205,-0.0215 -0.0479,-0.0356 -0.0937,-0.0312 -0.0416,0.26421 -0.10181,0.52567 -0.15625,0.78125 -0.0171,0.0475 -0.0123,0.009 -0.0312,0.0625 -1.36034,6.24794 -6.37594,9.95105 -8.375,12.09375 1.7825,-2.4175 4.1825,-5.3075 6.15625,-8.03125 l 1.40625,-1.96875 c 0.49,-1.68125 0.11245,-1.75125 0.1875,-2.625 -0.16125,-0.345 1.105,-1.84125 1.15625,-2.375 -0.48875,0.615 -1.17625,1.71 -1.5,1.9375 -0.0775,1.00625 0.29125,1.56 -0.15625,2.9375 l -3.125,4.4375 c -2.05423,2.20924 -2.17427,1.96072 -2,1.40625 1.64407,-2.00801 3.26,-4.1085 4.875,-6.34375 l 0,-2.46875 c 0.95045,-1.14193 1.76294,-2.22204 2.53125,-3.28125 z m 0.0625,4.15625 0,-0.5 0,-0.1875 0,-0.0937 0,-0.0625 c 0.083,-0.2322 -1.11981,3.07903 -0.59375,1.625 l 0.21875,-0.3125 0.375,-0.46875 z m -194.78125,-3.9058 c 6.24891,7.44903 12.69942,14.87546 19.75,21.5625 -2.82008,-2.01283 -4.81016,-2.9828 -12.25,-11.625 5.4585,5.18206 -5.34558,-6.80936 -7.5,-9.9375 z m -4.375,0.5625 c 0.20841,0.11675 0.47343,0.1973 0.59375,0.34375 -0.19921,-0.11442 -0.50457,-0.20937 -0.59375,-0.34375 z m 0.1875,1.0625 c -0.1401,0.10457 -0.27603,0.21083 -0.5,0.34375 -0.02,-0.0312 -0.0421,-0.0626 -0.0625,-0.0937 0.24523,-0.10331 0.40351,-0.16683 0.5625,-0.25 z m 161.6875,3.53125 c -2.9525,2.35 -7.8,4.47125 -13.03125,6 2.57125,-0.0325 11.04875,-3.82625 13.03125,-6 z m -99.71875,0.625 c 0.0251,0.0849 0.0549,0.23835 0.125,0.46875 -0.15815,-0.0416 -0.30749,-0.0928 -0.46875,-0.125 l 0.34375,-0.34375 z m 16.21875,5.09375 c 3.43019,1.42091 1.884,0.7885 1.71875,0.71875 l -0.5,0.21875 -0.15625,0.0625 c -0.28338,-0.0719 -0.25839,-0.004 -0.1875,0.0625 0.0286,-2.2e-4 0.065,7.9e-4 0.0937,0 l -0.0937,0.0312 -0.0937,0.0625 -0.0625,0.0312 c -0.0182,-0.0185 -0.0473,-0.0467 -0.0625,-0.0625 l 0.0625,-0.0625 c -0.0405,0.002 -0.0891,-0.003 -0.125,0 -0.23313,-0.24422 -0.32187,-0.35 -0.15625,-0.1875 -0.027,-0.0408 0.13042,0.19586 0.125,0.1875 -0.26078,0.0298 -0.38655,0.0951 -0.46875,0.1875 -0.46716,-0.12196 -0.93757,-0.2436 -1.40625,-0.34375 0.01,-0.0194 0.0326,-0.0433 0.0312,-0.0625 0.47625,-0.36375 0.91625,-0.6 1.09375,-0.71875 l 0.1875,-0.0937 0,-0.0312 z m 0.71875,1.0625 c 0.0825,0.0213 0.1328,0.0319 0.15625,0.0312 0.0234,-5.9e-4 0.02,-0.0123 0,-0.0312 -0.0477,3.7e-4 -0.11396,-0.002 -0.15625,0 z m 3.0625,-1.0625 c 0.42018,0.12582 0.84892,0.23603 1.21875,0.375 l -0.71875,0.0312 c -0.18198,-0.19754 -0.35715,-0.31361 -0.5,-0.40625 z m 76,0.65625 c -2.05299,1.06474 -4.13155,2.00214 -6.3125,2.65625 -3.16982,1.05767 -5.8729,3.03929 -8.90625,3.21875 2.00671,-0.55586 5.48607,-1.7536 11.9375,-4.875 0.76817,0.006 1.89908,-0.34852 3.28125,-1 z m -75.15625,0.21875 c 0.53501,0.19974 1.08516,0.4047 1.59375,0.59375 l 1.25,0.46875 0.0625,0.0312 c -0.0931,0.48312 -0.0382,0.39065 -0.3125,1.8125 0.26727,-1.3879 0.47428,-2.49058 0.34375,-1.8125 l 0.53125,0.1875 0.125,0.0625 0.0937,0.0312 0.0312,0 c 0.33393,-1.71972 -0.0785,0.40096 -0.375,1.9375 -0.12382,-0.0256 -0.25117,-0.0371 -0.375,-0.0625 l -0.40625,-0.0937 c 0.0194,-0.10056 0.0122,-0.0259 0.0312,-0.125 0.14473,0.02 0.29275,0.0312 0.4375,0.0312 -0.14505,-0.058 -0.29253,-0.0991 -0.4375,-0.15625 -0.70094,-0.2764 -1.39383,-0.5524 -2.09375,-0.8125 0.0362,-0.37476 0.028,-0.80649 -0.0312,-1.34375 -0.17182,-0.30806 -0.31622,-0.53719 -0.46875,-0.75 z m -4,0.28125 c 0.002,0.003 0.0501,0.0413 0.0625,0.0625 0.0402,0.0689 0.0834,0.18772 0.125,0.25 -0.12807,-0.0369 -0.24666,-0.0899 -0.375,-0.125 l 0.1875,-0.1875 z m 0.5,0.5625 c 0.006,-0.005 0.0251,0.005 0.0312,0 0.0298,0.0205 0.0881,0.0671 0.125,0.0937 -0.0651,0.0794 -0.1241,0.1624 -0.21875,0.28125 0.31547,0.13038 0.3917,0.15308 0.625,0.25 l -0.0312,0.0312 -0.0937,0.0625 -0.0312,0 0,0.0312 0.0312,0 0.1875,-0.0937 c 0.20179,0.0839 0.49405,0.22083 0.5625,0.25 0.0406,0.0173 0.36576,0.13346 0.34375,0.125 -0.0559,0.0915 -0.14617,0.19796 -0.28125,0.3125 -0.12481,-0.0526 -0.21569,-0.0714 -0.34375,-0.125 -0.0376,0.0434 -0.0923,0.0851 -0.125,0.125 0.0115,0.0174 -0.0115,0.014 0,0.0312 l 0,0.0312 c 0.0518,0.0494 0.12725,0.10843 0.1875,0.15625 0.0108,0.009 0.0203,0.0228 0.0312,0.0312 -0.36795,0.29969 -0.50149,0.61405 -0.75,0.625 0.23451,-0.41684 0.30237,-0.56103 0.375,-0.6875 -0.40195,0.52664 -0.35969,0.6725 -0.71875,0.3125 -0.0333,-0.03 -0.0607,-0.043 -0.0937,-0.0625 -0.0187,-0.01 -0.0374,-0.03 -0.0625,-0.0312 -0.12245,-0.0589 -0.24393,-0.14134 -0.4375,-0.3125 0.0338,-0.13145 0.11022,-0.3224 0.21875,-0.5625 -0.17511,0.22487 -0.22102,0.23633 -0.375,0.4375 -0.0775,-0.0848 -0.18553,-0.24352 -0.28125,-0.375 0.13334,-0.12743 0.27044,-0.24754 0.4375,-0.375 0.0947,0.0379 0.18353,0.0855 0.28125,0.125 -0.027,0.0567 -0.0395,0.13654 -0.0625,0.1875 0.0651,-0.0836 0.0611,-0.0746 0.125,-0.15625 0.27807,0.11277 0.52513,0.19339 0.8125,0.3125 l -0.3125,-0.375 -0.21875,-0.28125 c -0.0327,-0.0135 -0.0293,-0.0175 -0.0625,-0.0312 l -0.0625,-0.0937 c -0.008,0.0152 -0.0236,0.0164 -0.0312,0.0312 -0.0337,-0.0139 -0.0286,-0.0173 -0.0625,-0.0312 0.10209,-0.0769 0.18637,-0.17268 0.28125,-0.25 z m 0.46875,1.03125 0.25,0.3125 c 0.0431,-0.055 0.10231,-0.1042 0.15625,-0.15625 -0.14228,-0.0595 -0.26257,-0.0967 -0.40625,-0.15625 z m 0.40625,0.15625 c 0.0133,0.006 0.018,0.0258 0.0312,0.0312 0.0895,-0.10324 0.15903,-0.19007 0.28125,-0.3125 -0.0136,0.0214 -0.15496,0.12924 -0.3125,0.28125 z m -0.15625,0.15625 c -0.0483,0.0617 -0.0779,0.13038 -0.0937,0.1875 0.0302,-0.0396 0.0893,-0.11211 0.125,-0.15625 l -0.0312,-0.0312 z m -0.21875,-0.96875 c 0.13947,0.1069 0.1249,0.059 0.25,0.15625 l -0.0625,0.0312 c -0.0648,-0.0576 -0.14432,-0.0995 -0.1875,-0.1875 z m 0.84375,0.0625 c 0.15394,0.0951 0.26152,0.20743 0.28125,0.34375 -0.0866,-0.0966 -0.17259,-0.20179 -0.28125,-0.34375 z m -0.5625,0.125 c 0.17007,0.13224 0.30505,0.21785 0.3125,0.21875 -0.11347,-0.0338 -0.25335,-0.0906 -0.375,-0.1875 0.0201,-0.0123 0.042,-0.0193 0.0625,-0.0312 z m 1.5625,0.59375 c 0.0638,6e-5 0.12366,0.0271 0.1875,0.0312 -0.0203,0.0846 -0.0599,0.14783 -0.0937,0.21875 l -0.0937,-0.0312 -0.125,-0.0312 -0.0312,-0.0312 -0.125,-0.125 c 0.0955,-0.0104 0.18571,-0.0313 0.28125,-0.0312 z m 0.21875,0.0312 c 0.33114,0.0252 0.66918,0.11734 1,0.21875 -0.0228,0.0959 -0.0293,0.19588 -0.0625,0.28125 l -0.96875,-0.25 c 0.0194,-0.0826 0.0258,-0.15761 0.0312,-0.25 z m 1.40625,0.34375 c 0.70425,0.24814 1.38973,0.55302 2.09375,0.65625 -0.0188,0.0973 -0.0131,0.0308 -0.0312,0.125 l -2.09375,-0.53125 c 0.0173,-0.0738 0.0179,-0.16846 0.0312,-0.25 z m -1.9375,0.625 c 0.282,0.12491 0.59717,0.22945 0.9375,0.34375 -0.0341,0.0452 -0.0677,0.11729 -0.0937,0.15625 l -0.4375,0.375 c -0.1102,-0.0135 -0.19909,-0.009 -0.25,0.0312 l -0.0937,0.0625 c -0.0616,-0.015 -0.0979,-0.0463 -0.15625,-0.0625 -0.10495,-0.15716 -0.33216,-0.49843 -0.3125,-0.46875 0.11905,0.17918 0.26074,0.43742 0.28125,0.46875 -0.23798,-0.0674 -0.44051,-0.14182 -0.625,-0.21875 0.0799,-0.0542 0.20049,-0.16848 0.3125,-0.28125 0.0721,-0.0726 0.11594,-0.12658 0.21875,-0.21875 l 0.21875,-0.1875 z m -1.875,0.25 c 0.0382,0.0268 0.12106,0.0695 0.15625,0.0937 0.0366,0.0917 0.048,0.1416 0.15625,0.375 0.46788,0.4022 1.1213,0.67217 1.875,0.875 -0.0114,0.45078 0.1035,0.39366 0.59375,0.53125 0.0878,0.0291 0.23549,0.0853 0.34375,0.125 -0.93897,-0.0888 -1.92031,-0.25949 -2.90625,-0.65625 -0.37261,-0.28259 -0.66904,-0.63566 -0.9375,-0.96875 0.18895,0.0909 0.43172,0.21383 0.375,0.1875 0.20833,-0.338 0.23678,-0.37826 0.34375,-0.5625 z m 3.375,0.28125 c 0.68191,0.20331 1.48289,0.38333 2.3125,0.5625 -0.0396,0.20462 -0.10522,0.65393 -0.0937,0.59375 -0.71229,-0.15416 -1.44294,-0.29631 -2.0625,-0.4375 -0.29442,-0.0964 -0.50595,-0.15078 -0.71875,-0.21875 0.16582,-0.11152 0.37843,-0.25273 0.5625,-0.5 z m 2.34375,0.5625 c 0.27039,0.0582 0.49886,0.13099 0.78125,0.1875 -0.0511,0.26062 -0.14394,0.69907 -0.125,0.59375 -0.26186,-0.0553 -0.49093,-0.10024 -0.75,-0.15625 0.0349,-0.1807 0.0178,-0.23067 0.0937,-0.625 z m 0.96875,0.21875 c 2.48839,0.49087 5.36053,0.92281 8.09375,1.40625 12.005,1.61375 6.73875,1.74125 -0.8125,0.5625 -2.4322,-0.36252 -5.00632,-0.87068 -7.40625,-1.375 0.0556,-0.2791 0.0668,-0.29917 0.125,-0.59375 z m -0.21875,1.15625 c 0.12285,0.0326 0.25735,0.0576 0.375,0.0937 -0.13052,-0.0262 -0.27257,-0.0426 -0.40625,-0.0625 0.003,-0.0141 0.0284,-0.017 0.0312,-0.0312 z m 26.46875,2.46875 0.0312,0 0.0312,0.0312 0.0312,0.0312 -0.0312,0.0312 c -0.0356,-0.0342 -0.0343,-0.0667 -0.0625,-0.0937 z m -1.34375,0.4375 c 0.004,0.0246 -0.004,0.005 0,0.0312 -0.098,0.35082 -0.20873,0.57511 -0.3125,0.75 -0.0318,0.004 -0.0619,0.0268 -0.0937,0.0312 0.003,-0.0864 -0.0268,-0.18257 -0.0312,-0.28125 0.0597,-0.14631 0.11738,-0.27648 0.15625,-0.4375 0.0203,-0.006 0.23333,-0.0786 0.28125,-0.0937 z m -72.15625,13.5625 c 2.64209,1.76694 5.3767,3.40456 8.21875,4.875 -1.16516,-0.46852 -2.4425,-1.02896 -3.9375,-1.84375 -2.252,-1.54735 -3.46825,-2.40222 -4.28125,-3.03125 z m 110.625,8.90625 c -1.645,3.13 -24.18,8.25125 -34.8125,7.21875 -3.645,-0.40375 -7.895,-0.0875 -12.0625,0.96875 -2.02125,0.49625 -4.6,0.94 -6.4375,1.53125 -0.33,0.3 -2.81375,1.505 -4.03125,0.21875 -0.9375,-0.8625 -1.2,-0.79125 -2.75,-1.0625 -9.3075,-1.3 -18.5225,-4.05125 -26.875,-6.71875 -0.28078,-0.6419 4.83499,0.51428 6.46875,0.625 3.60464,1.16441 7.23202,2.23272 10.90625,3.15625 0.022,0.006 0.0405,0.0258 0.0625,0.0312 3.69692,0.92723 7.44515,1.69279 11.3125,2.25 0.19582,0.0907 0.3751,0.18912 0.5625,0.28125 0.0333,0.0164 0.0608,0.0463 0.0937,0.0625 0.0496,0.0344 0.10839,0.0588 0.15625,0.0937 0.0525,0.0385 0.10549,0.0863 0.15625,0.125 0.15869,0.12331 0.30803,0.23122 0.46875,0.34375 0.54964,0.41024 1.05213,0.70721 1.78125,0.34375 0.16944,-0.11304 0.35229,-0.18766 0.53125,-0.28125 1.13183,-0.45057 2.28479,-0.76986 3.46875,-1.03125 0.23742,-0.0524 0.48154,-0.10587 0.71875,-0.15625 0.26237,-0.0524 0.53126,-0.095 0.78125,-0.15625 0.0314,-0.007 0.0624,-0.0245 0.0937,-0.0312 0.01,-0.003 0.0215,0.003 0.0312,0 3.97459,-0.97434 7.8546,-1.81647 11.6875,-1.90625 2.06292,0.17914 4.05635,0.25158 6,0.21875 3.80807,0.15397 7.47471,-0.11095 11.46875,-1 1.23498,-0.24695 2.48569,-0.40905 3.75,-0.5625 -0.5631,0.12331 -1.15921,0.2215 -1.875,0.34375 1.09882,-0.19416 1.96705,-0.32775 2.84375,-0.46875 0.0419,-0.005 0.0831,-0.0264 0.125,-0.0312 2.11219,-0.24442 4.23222,-0.46719 6.25,-0.9375 2.62743,-0.44335 4.00827,-0.96683 9.125,-3.46875 z"
       id="path248"
       inkscape:connector-curvature="0" />
  </g>
</svg>
