<?xml version="1.0" encoding="UTF-8" standalone="no"?>
<!-- Created with Inkscape (http://www.inkscape.org/) -->

<svg
   xmlns:dc="http://purl.org/dc/elements/1.1/"
   xmlns:cc="http://creativecommons.org/ns#"
   xmlns:rdf="http://www.w3.org/1999/02/22-rdf-syntax-ns#"
   xmlns:svg="http://www.w3.org/2000/svg"
   xmlns="http://www.w3.org/2000/svg"
   xmlns:sodipodi="http://sodipodi.sourceforge.net/DTD/sodipodi-0.dtd"
   xmlns:inkscape="http://www.inkscape.org/namespaces/inkscape"
   width="493.04001"
   height="493.04001"
   id="svg4189"
   version="1.1"
   inkscape:version="0.48.2 r9819"
   sodipodi:docname="Faction-GhostWolves.svg">
  <defs
     id="defs4191">
    <clipPath
       clipPathUnits="userSpaceOnUse"
       id="clipPath118">
      <path
         inkscape:connector-curvature="0"
         d="m 263.128,296.5 396.45,0 0,-276.5 -396.45,0 0,276.5 z"
         id="path120" />
    </clipPath>
  </defs>
  <sodipodi:namedview
     id="base"
     pagecolor="#ffffff"
     bordercolor="#666666"
     borderopacity="1.0"
     inkscape:pageopacity="0.0"
     inkscape:pageshadow="2"
     inkscape:zoom="0.35"
     inkscape:cx="-505.96265"
     inkscape:cy="381.97554"
     inkscape:document-units="px"
     inkscape:current-layer="layer1"
     showgrid="false"
     inkscape:window-width="1606"
     inkscape:window-height="1029"
     inkscape:window-x="70"
     inkscape:window-y="-4"
     inkscape:window-maximized="1"
     fit-margin-top="0"
     fit-margin-left="0"
     fit-margin-right="0"
     fit-margin-bottom="0" />
  <metadata
     id="metadata4194">
    <rdf:RDF>
      <cc:Work
         rdf:about="">
        <dc:format>image/svg+xml</dc:format>
        <dc:type
           rdf:resource="http://purl.org/dc/dcmitype/StillImage" />
        <dc:title />
      </cc:Work>
    </rdf:RDF>
  </metadata>
  <g
     inkscape:label="Layer 1"
     inkscape:groupmode="layer"
     id="layer1"
     transform="translate(-214.19692,-185.1628)">
    <path
       style="fill:#000000;fill-opacity:1;fill-rule:nonzero;stroke:none"
       d="m 474.75,259.09375 c -0.97828,-0.0838 -1.9575,0.28625 -2.125,1.125 0.4475,1.005 0.44,3.01375 1.78125,3.125 0,-0.2225 -0.12995,-0.45 0.0937,-0.5625 0.67125,0.22375 1.57125,-1.34125 1.90625,0 0.67,-0.2225 0.2325,-1.45375 0.34375,-2.125 -0.0556,-0.95 -1.02172,-1.47875 -2,-1.5625 z m 17.90625,8.3125 c -1.69078,0 -3.43687,0.2 -5.28125,0.3125 -0.11125,0 -0.2375,-0.1375 -0.125,-0.25 -1.90125,-0.22375 -3.3575,0.455 -4.8125,0.34375 l 0,-0.0937 c -0.89375,0.44625 -2.43625,0.0838 -3.21875,0.53125 -0.78375,-0.33625 -1.90875,0.58625 -3.25,0.25 -0.22375,0.7825 -1.45875,0.6475 -1.90625,0.3125 -2.235,0.55875 -4.5775,1.115 -6.8125,1.5625 -0.67125,0.67 -2.23625,1.005 -2.90625,0.78125 l 0,0.25 c -0.7825,0.33625 -1.78125,0.87125 -2.5625,0.3125 -1.34125,0.67 -3.36,0.3375 -4.03125,1.34375 -1.00625,-0.22375 -2.015,1.2375 -3.46875,1.125 -1.1175,0.67125 -3.02625,0.8925 -4.03125,0.78125 -1.78875,0.33625 -3.01375,1.57125 -5.25,1.125 -1.22875,0.55875 -2.4575,1.0025 -3.6875,1.5625 -0.67,0 -1.56625,1.1001 -2.125,0.0937 0.67125,-0.335 0.77,-1.4475 2,-1 0.89375,-0.67 2.25625,-1.79125 3.375,-1.34375 0.55875,-0.55875 1.655,-0.2 2.4375,-0.3125 0.67125,-0.89375 2.45875,-0.22125 2.90625,-1.5625 0.55875,-0.895 -0.33375,-2.1425 -0.78125,-2.8125 -1.78875,0 -1.43,-2.21875 -3.21875,-2.21875 -0.67125,0.4475 -1.57125,0.31125 -1.90625,1.09375 -1.23,-0.33625 -2.695,0.56625 -3.8125,1.125 0.22375,3.13 -3.44375,2.56875 -4.5625,4.46875 -0.44625,1.45375 0.6425,1.57 0.53125,2.6875 0.55875,1.45375 2.01125,0.12 2.90625,0.34375 -0.55875,0.335 -0.89625,1.44625 -2.125,1 -1.56625,1.22875 -3.46625,2.1325 -5.03125,3.25 -1.1175,-0.4475 -1.11125,0.99125 -1.78125,0.65625 l 0,-0.0937 c -0.67125,0.55875 -1.66,0.67375 -2.21875,1.34375 -0.895,-0.335 -1.81,1.31625 -3.375,1.09375 -0.44625,1.56375 -3.1025,1.35375 -3.4375,3.03125 -2.46,0 -3.92375,2.67 -6.71875,2.78125 -0.335,0.89375 -1.46375,0.56125 -1.6875,1.34375 -1.565,-0.1125 -1.90875,1.9075 -3.25,1.125 -0.22375,0.335 -0.9925,0.3425 -0.65625,1.125 -0.67125,0.33625 -1.34375,1.34 -2.125,0.78125 l -0.34375,0.875 c -1.4525,-0.1125 -1.34625,2.03125 -2.6875,1.25 -1.23,0.335 -1.78875,1.45875 -2.90625,1.90625 -0.895,0.22375 -0.315,1.67875 -1.65625,1.34375 -0.7825,1.1175 -1.575,2.2225 -2.46875,2.78125 -0.1125,0.335 -1.5625,0.44875 -1.5625,1.34375 -4.13625,2.6825 -7.72625,6.14375 -11.75,8.9375 -0.55875,0.11125 10e-4,1.24125 -0.78125,0.90625 -2.46,2.79375 -6.01375,4.02625 -8.25,7.15625 -0.22375,0.33625 -0.90625,0.44125 -0.90625,1 -2.3475,1.34125 -4.02375,3.46125 -5.8125,5.25 -1.23,0.67125 -2.22625,2.0125 -3.34375,2.90625 -2.12375,2.12375 -4.0325,4.3675 -6.15625,6.15625 -1.45375,2.45875 -3.7875,3.55375 -4.90625,6.125 -0.7825,0.1125 -0.79,1.00875 -1.125,1.34375 -1.23,0.67125 -1.35875,2.58375 -2.8125,3.03125 -1.1175,1.67625 -1.9925,3.695 -3.78125,4.8125 -0.44625,1.78875 -1.5775,3.1375 -3.03125,4.03125 -0.55875,2.235 -2.6725,3.43875 -3.34375,5.5625 -0.67,0.4475 -0.7975,1.57 -1.46875,1.90625 -0.11125,1.4525 -2.21,1.47125 -1.875,2.8125 -0.11125,2.9075 -2.485,4.5675 -3.15625,7.25 1.45375,-1.00625 2.015,-3.3425 3.46875,-4.125 l 0.34375,0.65625 c -1.45375,1.78875 -1.455,4.4825 -2.125,6.71875 0,0.335 0.795,0.335 0.90625,0 -0.44625,-1.11875 0.45125,-2.11375 0.5625,-3.34375 1.23,-1.45375 0.87625,-4.04875 3,-4.71875 0.4475,-0.33625 0.11875,-1.31625 1.125,-1.09375 0.33625,-0.44625 1.1075,-1.36125 0.4375,-2.03125 1.565,-1.23 2.24,-3.35375 3.46875,-5.03125 1.00625,-1.56375 2.12875,-3.12625 3.46875,-4.46875 0.67125,0 -0.225,-1.33625 0.78125,-1 -0.1125,3.12875 -1.23125,5.8125 -2.125,8.71875 -0.56,0.11125 -0.4375,0.6775 -0.4375,1.125 -0.2225,2.57125 -1.5575,4.22875 -1.78125,6.6875 -1.34125,1.00625 -0.90625,3.365 -1.6875,4.59375 -0.1125,0.56 -0.78625,0.8875 -0.5625,1.78125 -0.4475,1.9 -1.1025,3.58125 -1.4375,5.59375 -1.11875,1.1175 -0.34625,3.7 -1.6875,4.59375 -0.335,1.565 -0.44,3.2475 -1,4.8125 -0.89375,0.44625 0.21125,2.32125 -0.90625,2.65625 0.55875,1.78875 -1.1025,2.68625 -0.65625,3.46875 1.45375,-0.67 2.23,-2.2225 3.90625,-2.78125 1.11875,-0.1125 1.555,-1.55875 3.34375,-1 0.7825,-1.23 2.80625,-0.7925 3.8125,-1.6875 2.45875,-0.11125 4.56875,-0.6675 6.46875,-1.5625 5.255,-0.4475 10.18,0.88125 14.875,-0.125 2.235,-0.4475 4.35375,-0.775 6.03125,-1.78125 2.01125,0.22375 3.355,-0.33875 5.03125,-0.5625 0,-0.55875 -0.34,-1.57 0.21875,-1.90625 -0.4475,-0.89375 0.80375,-2.5425 0.46875,-3.4375 0.89375,0.22375 0.6625,-1.6975 1.78125,-1.25 -0.4475,1.005 -0.58,2.14125 -0.46875,3.59375 -0.11125,1.1175 -0.98125,1.775 -1.09375,2.78125 l 0.65625,0 c -0.4475,-1.6775 1.79125,-1.1225 1.34375,-2.6875 0.1125,-0.4475 -0.67,-0.90125 0,-1.125 l 0.125,-1.875 0.4375,0 c -0.11125,-0.335 0.215,-1.03125 -0.34375,-1.03125 0.895,-1.22875 1.575,-2.5525 2.46875,-3.78125 -0.335,-1.565 0.6775,-1.89875 1.125,-2.90625 0.89375,-3.68875 3.22375,-6.13875 5.125,-9.15625 2.12375,-1.11875 2.22875,-4.03 4.6875,-4.8125 -0.11125,1.67625 -1.10125,3.24 -2.21875,4.46875 -0.4475,1.34125 -1.33875,2.46625 -1.5625,4.03125 -2.0125,2.6825 -2.6925,6.13 -4.59375,8.8125 0.4475,1.3425 -1.01,1.22125 -0.5625,2.5625 -1.34125,1.9 -1.78875,4.69625 -2.125,7.15625 1.23,0.335 1.80125,-0.55375 3.03125,-0.21875 l 0,-0.4375 c 1.9,-0.335 1.43625,-2.69 2.21875,-4.03125 0.67125,-1.00625 0.69625,-2.6725 1.03125,-4.125 -0.4475,-2.23625 1.9025,-2.1225 2.125,-3.6875 0.22375,-2.0125 1.78125,-2.92 1.78125,-5.15625 0.67125,-0.335 1.32625,-0.775 1.4375,-1.78125 1.23,-0.67 0.7925,-2.8075 2.46875,-3.03125 -0.22375,-1.11875 0.78125,-0.98 0.78125,-1.875 1.34125,-1.34125 1.46125,-4.03125 4.03125,-4.03125 0.1125,-2.12375 1.57375,-3.5875 3.25,-4.59375 2.45875,-3.24125 6.59375,-4.3425 9.5,-7.25 l 0.65625,0.3125 c 0.11125,-0.4475 0.6875,-0.2225 0.6875,-0.78125 2.3475,-0.895 4.58,-2.21375 7.375,-2.4375 1.23,-1.1175 3.445,-1.0075 4.5625,-2.125 0.895,-0.335 1.7925,-1.5725 2.6875,-1.125 1.4525,-1.565 4.3675,-1.22625 6.15625,-2.34375 0.4475,-0.67125 1.11875,-1.01875 2.125,-0.90625 1.45375,-0.895 2.91625,-1.455 4.59375,-2.125 0.67125,-0.78375 1.20375,-1.67875 2.65625,-1.34375 0.55875,-2.0113 4.04875,-0.33125 4.71875,-2.34375 1.11875,-1.1175 2.77125,0.99375 3.21875,-0.90625 0.55875,-0.1125 0.80875,0.33875 1.03125,0.5625 l 2.65625,-1 c -0.33625,-0.11125 0.12875,-0.9875 0.6875,-0.875 0.1125,0.11125 0.21875,0.20125 0.21875,0.3125 2.235,0.7825 2.3625,-1.3175 4.375,-1.09375 0.44625,-0.7825 1.665,-0.44875 2,-1.34375 1.0075,0.225 2.565,-0.33875 3.90625,-0.5625 l 0,-0.21875 c 0.22375,-0.11125 0.35125,-0.80375 0.6875,-0.46875 l 0,0.46875 c 2.57125,0.895 2.79125,-1.36625 4.46875,-1.8125 2.0125,-1.1175 3.7925,0.47125 5.46875,1.03125 1.00625,0 1.67375,-1.02625 2.34375,-1.25 l 0,0.125 c 1.34125,-0.335 3.02375,-0.21875 4.03125,-1 1.22875,0.335 1.9,-0.78375 2.90625,0 1.67625,-0.44875 3.23375,-0.0163 4.6875,-0.6875 l 0,0.34375 c 0.335,0.11125 0.57125,0.005 0.90625,-0.21875 0.895,0 3.02,1.10135 4.25,0.0937 0.89375,0 1.6725,-0.42885 2.34375,-0.0937 l 0.875,-0.34375 c 1.67625,0.55875 3.13625,-0.89375 4.03125,0 l 0,-0.125 c 0.67,-0.11125 1.785,-0.21 2.34375,0.125 2.125,-0.4475 5.14,0.12125 7.375,-0.4375 0.33625,-0.22375 0.34375,0.21375 0.34375,0.4375 0.67125,0.335 0.8025,-0.325 1.25,-0.4375 1.67625,0.7825 3.80125,0.665 5.8125,1 1.23,1.23 2.675,1.795 4.6875,1.90625 0.895,1.23 2.44875,1.33875 4.125,1.5625 2.01375,1.00625 5.0375,0.445 6.9375,1.5625 1.56625,1.565 4.8,0.76125 6.8125,1.65625 1.7875,0.7825 3.23875,1.90125 5.25,2.125 1.56625,1.565 5.03375,0.35 6.375,2.25 1.4525,1.56625 4.685,1.01125 6.25,2.6875 2.795,0 5.39,0.78 7.625,1.5625 0.895,1.34125 3.2375,0.66875 4.46875,1.5625 1.1175,-0.22375 4.355,0.67125 5.25,-0.78125 1.1175,1.565 3.46625,1.0125 5.03125,1.90625 0.55875,0.55875 1.44125,0.44625 2,0.78125 1.67625,-0.55875 4.13625,0.1075 5.8125,-0.5625 3.13,-0.895 5.82625,-2.23875 8.84375,-3.46875 0.78375,-1.3425 3.685,0.002 4.46875,-1.5625 2.45875,0.11125 3.13375,-2.23625 5.59375,-2.125 0.89375,-0.44625 2.12875,-0.3425 2.6875,-1.125 1.22875,0.1125 2.32375,-0.56625 3.21875,-1.125 1.78875,0.4475 2.36375,-0.665 3.59375,-1 0.4475,-1.34125 2.2175,-1.12375 3,-1.90625 1.23,-0.895 1.46625,-2.57125 3.03125,-2.90625 0.335,-1.90125 2.22625,-2.6625 3.34375,-3.78125 0.55875,-1.00625 -10e-4,-3.01875 1.5625,-2.90625 0.4475,-1.45375 2.3475,-1.5775 2.90625,-3.03125 1.22875,-0.11125 1.3425,-1.6725 2.125,-2.34375 0.895,-0.44625 1.23125,-1.12875 2.125,-1.6875 0.67,-1.34125 2.3475,-1.54625 2.90625,-3 -1.005,-1.005 -1.105,0.55 -2,0.4375 -1.1175,1.78875 -3.14,3.48375 -4.59375,4.9375 -1.00625,0.22375 -0.7575,1.5625 -1.875,1.5625 -0.895,2.235 -3.81,1.985 -5.375,3.4375 -1.34125,3.24125 -5.69375,2.465 -7.59375,4.8125 -1.1175,0.67 -1.7975,2.14875 -3.25,1.8125 0.11125,-0.67 0.55625,-1.34875 1.5625,-1.125 0.55875,-0.7825 1.125,-1.56625 1.90625,-2.125 0.44875,-1.4525 2.235,-1.11375 2.90625,-2.34375 0.67,-0.4475 0.55625,-1.45625 1.5625,-1.34375 0.22375,-1.45375 2.21375,-1.46625 2.4375,-3.03125 -0.22375,-1.67625 2.135,-0.99375 1.6875,-2.78125 1.1175,-0.895 0.3375,-2.80625 1.34375,-3.8125 -0.4475,-0.4475 -0.11,-1.445 -0.78125,-1.78125 -1.00625,-0.7825 -1.90125,0.1075 -2.90625,0.21875 0.11125,-1.67625 -0.55625,-2.91 -1.5625,-3.46875 l 0,0.125 c -2.0125,-0.335 -1.91,1.8825 -3.25,2.21875 -0.22375,-0.1125 -0.0937,-0.44625 -0.0937,-0.78125 -1.1175,-0.55875 -1.235,-1.89875 -1.90625,-2.90625 -2.235,-0.89375 -2.35375,-3.5775 -4.03125,-5.03125 0,-0.89375 1.22,-1.99 0.4375,-2.4375 0,0.335 -0.55875,0.325 0,0.4375 l -1.09375,1.34375 c -0.55875,0.7825 -0.24625,1.89125 0.3125,2.5625 -0.335,1.4525 0.46,2.115 0.125,3.34375 -1.4525,-0.89375 -1.57375,-2.7825 -2.46875,-4.125 -0.22375,-1.7875 -2.015,-3.23875 -1.34375,-5.25 -0.4475,0 -0.1075,-0.665 -0.21875,-1 -1.1175,-1.1175 -0.2225,-4.1375 -0.78125,-5.03125 0,-1.23 -1.105,-1.46375 -2,-1.6875 l -0.5625,1.125 c 0.895,0.895 0.33875,2.89 0.5625,4.34375 0.4475,2.6825 1.1025,5.47375 1.4375,8.15625 -2.90625,-1.23 -4.0325,-4.115 -5.375,-6.6875 -1.23,-0.2225 -1.7625,-2.00875 -2.65625,-1.5625 -1.45375,0.225 -1.24,-1.35625 -1.6875,-2.25 -0.55875,-1.4525 -2.23375,-1.44 -3.6875,-2 -0.22375,-1.565 -1.56625,-2.00375 -2.125,-3.34375 -2.0125,-0.225 -1.5725,-3.26125 -4.03125,-2.03125 -0.7825,-0.56 0.10625,-1.12875 0.21875,-1.6875 -1.565,0.7825 -1.10625,3.26875 -1.21875,5.28125 -0.67125,0.56 0.22375,0.99875 0,1.78125 2.12375,-0.11125 1.34625,2.4675 2.6875,3.25 -0.335,0.2225 -0.46,0.55 -0.90625,0.4375 -1.67625,-1.34125 -3.24875,-2.69 -4.8125,-4.03125 -1.455,-0.55875 -2.32875,-2.13375 -3.78125,-2.46875 -3.35375,-2.23625 -6.39125,-5.00625 -9.96875,-6.90625 -2.34625,0.11125 -3.00625,-2.1325 -4.90625,-2.46875 -2.795,-0.55875 -4.2575,-3.13 -7.5,-2.90625 -1.4525,-1.0075 -3.355,-1.235 -5.03125,-1.90625 -4.80625,-0.67125 -8.58875,-3.02 -14.625,-2.125 -1.00625,-1.34125 -2.5825,0.44375 -3.8125,-0.5625 -2.12375,0.11125 -3.135,-1.34 -5.59375,-0.78125 -3.35375,-0.67125 -7.15,-0.88875 -11.0625,-1 -0.2225,-1.00625 1.34375,-0.0125 1.34375,-0.90625 -1.9,-0.895 -3.9125,0.675 -5.8125,-0.21875 -3.24125,0.55875 -8.0525,0.009 -10.625,0.34375 l 0,-0.125 -1.65625,0 c -0.55875,0.11125 -2.4675,-0.19625 -3.25,0.25 -1.00625,0.4475 -1.58,-0.78125 -2.25,0 -0.55875,0 -1.4325,0.30875 -1.65625,-0.25 l -2.03125,0 c -1.565,-0.67125 -3.18422,-0.84375 -4.875,-0.84375 z m 102.25,16.15625 0,0.34375 0.4375,0 0,-0.34375 -0.4375,0 z m 107.875,0.5625 c -0.4475,0.22375 -0.34875,1.45125 -0.125,1.5625 l -0.65625,0 0,0.46875 c -1.1175,1.11875 -1.0075,3.0075 -2.125,4.125 0.67,2.235 -1.56625,4.7125 0.78125,5.71875 0.7825,0.335 1.00375,-0.35625 1.5625,-0.46875 2.68375,0 1.78375,-3.115 3.125,-4.34375 0.895,-0.44875 0.22,-2.23125 1.5625,-2.34375 0.89375,-1.005 -0.21625,-1.57 -1,-1.90625 -0.22375,-0.55875 0.2275,-0.79 0.5625,-1.125 -0.4475,-1.11875 -1.33375,-1.46375 -2.5625,-1.6875 -0.22375,0.1125 -1.01375,0.4475 -1.125,0 z m -104.125,9.625 c 0.12857,0.1544 0.26883,0.2831 0.5,0.4375 -0.5094,0.21808 -0.48012,-0.16419 -0.5,-0.4375 z m -2.625,1.90625 c 1.0075,0.11125 0.7675,1.44125 1.4375,2 -0.7825,-0.335 -1.32625,-1.10625 -1.4375,-2 z m 42.71875,3.4375 c -1.20524,0.24018 -0.66734,2.17844 -1.15625,3.15625 0.335,2.01125 -2.23125,3.69 -0.21875,5.03125 0.335,0.67125 1.0225,0.005 1.46875,-0.21875 l 0.21875,0.78125 0.65625,-1.5625 c 1.9,-0.22375 0.33875,-3.1375 1.34375,-4.03125 0.67125,-0.1125 0.79875,0.9025 1.46875,0.34375 -1.89875,0 -0.56125,-2.81625 -2.125,-3.375 0.11125,0.1125 -1,0.46495 -1,-0.0937 -0.25141,-0.0419 -0.48407,-0.0657 -0.65625,-0.0312 z m 40.4375,14.21875 c -1.6775,1.23 -2.78125,2.69625 -2.78125,5.15625 l -1,-0.5625 c -0.67125,0.67125 -0.55875,2.34875 -2.125,2.125 -0.89375,1.00625 -0.58625,1.6625 -0.25,2.78125 0.11125,0.67 1.12125,0.004 1.34375,0.5625 1.11875,-0.335 1.3425,-1.34375 2.125,-2.125 1.4525,0.44625 1.9175,-0.6775 2.8125,-1.125 l 0,-1.4375 c -1.3425,-1.78875 1.34,-1.805 0.78125,-3.59375 0.11125,-0.895 -0.0125,-1.66875 -0.90625,-1.78125 z m 12.4375,3.46875 c -0.60223,0.0997 -0.56844,1.57063 -1.15625,1.90625 -0.55875,1.78875 -2.4375,2.56375 -2.4375,4.6875 0.89375,0.335 1.11125,-0.32875 1,-1 1.005,-1.9 2.1275,-3.59125 3.46875,-5.15625 -0.39094,-0.36312 -0.67426,-0.47074 -0.875,-0.4375 z M 687.46875,323.5 C 686.91,324.73 686,325.4975 686,327.0625 c -0.4475,-0.11125 -0.65125,0.44625 -0.875,0.78125 -0.67125,2.46 -2.11875,4.4825 -3.125,6.71875 -1.565,1.67625 -2.37125,4.1375 -4.71875,5.03125 -0.89375,1.67625 -3.0175,1.9025 -2.90625,4.25 -0.67,0.67125 -0.87,1.66375 -1.875,2 -0.7825,1.34125 -1.68625,2.68875 -2.46875,4.03125 -0.55875,1.005 -2.0075,1.31875 -2.34375,2.4375 -2.45875,0.44625 -1.69375,4.02625 -4.375,4.25 -0.6725,0 -0.23125,-0.89625 -0.34375,-1.34375 l -0.4375,0 c 0,0.4475 0.1287,1.14625 -0.0937,1.59375 -1.23,0.22375 -1.35625,1.7675 -2.25,2.4375 -1.23125,1.34125 -2.89125,3.02 -4.34375,4.25 -1.6775,2.3475 -3.59875,3.92625 -5.5,5.9375 -3.24125,2.90625 -6.915,6.13375 -10.15625,9.375 -1.45375,0 -0.9175,2.01875 -2.59375,1.90625 0.11125,0.78375 -0.6525,0.66375 -0.875,1 -0.7825,-0.67125 -1.3475,0.78875 -1.90625,1.125 -1.1175,0.55875 -1.8925,1.6675 -2.5625,2.5625 -2.23625,2.01125 -5.13625,2.81625 -6.8125,5.5 -1.22875,0.7825 -2.025,1.5375 -3.03125,2.65625 -1.005,0.22375 -1.8025,1.35625 -2.25,2.25 -1.11875,0.67125 -1.55125,0.56625 -2.78125,0.34375 0.1125,-0.55875 0.44125,-1.12 1,-1.34375 0.7825,-3.01875 4.81,-2.58875 5.59375,-5.71875 1.1175,-0.1125 1.575,-1.31625 2.46875,-1.875 1.45375,-1.78875 3.12625,-3.80125 5.25,-5.03125 0.56,-1.45375 2.00375,-2.3775 2.5625,-3.71875 1.78875,-1.00625 3.36,-2.43875 4.8125,-3.78125 0.67125,-0.78125 0.67125,-2.25 2.125,-2.25 0.78125,-0.67125 1.91,-1.88625 1.6875,-2.78125 1.23,-0.11125 1.20875,-0.995 1.65625,-2 1.34,-0.56 1.79625,-2.03875 3.25,-2.375 0.4475,-0.335 0.87875,-0.78125 0.65625,-1.5625 -1.11875,0.335 -2.00375,1.33625 -2.5625,2.34375 -1.4525,-0.22375 -0.765,1.80375 -2.21875,1.46875 -1.45375,1.34125 -2.46625,2.5825 -4.03125,3.8125 -6.3725,3.3525 -12.85375,6.6925 -18.21875,11.5 -0.1125,0.55875 -1.11125,0.004 -1,0.5625 0.1125,0.22375 -0.35625,0.21875 -0.46875,0.21875 -0.22375,1.1175 -1.12375,1.115 -1.90625,1.5625 -0.55875,-1.34125 1.3575,-0.98875 1.46875,-2.21875 0.22375,-1.78875 2.0125,-1.56875 2.125,-3.46875 0.67,-0.335 0.6775,-1.5725 1.90625,-1.125 0.33625,-0.55875 0.4275,-1.115 0.875,-1.5625 1.34,-0.2225 1.2525,-2.0125 2.59375,-2.125 0.11125,-1.67625 2.54875,-1.13125 2.4375,-3.03125 0.335,-0.895 2.03125,-0.22125 2.03125,-1.5625 0.78375,-0.11125 1.0975,-1.00875 1.65625,-1.34375 0.44625,-1.34125 2.36875,-1.235 2.59375,-2.6875 0.11125,-0.67125 1.3175,0.225 1.09375,-0.78125 0.7825,-0.11125 0.68625,-0.98125 1.46875,-1.09375 1.00625,-1.1175 2.12,-2.1325 3.125,-3.25 0.895,-0.33625 0.8825,-1.33875 2,-1.5625 0.33625,-0.1125 0.33625,-0.88875 0,-1 l -1.65625,1.34375 c 0,1.1175 -1.45125,1.1 -1.5625,2.21875 -1.56625,0.55875 -2.6875,1.89625 -3.46875,3.125 -1.56625,-0.335 -1.24,1.57625 -2.46875,1.6875 -2.235,1.34125 -3.68375,3.5825 -6.03125,4.8125 -0.895,1.005 -1.90125,2.12375 -2.90625,2.90625 -0.89375,0.11125 -0.68125,1.455 -1.6875,1.34375 -0.22375,-0.1125 -0.0937,-0.44625 -0.0937,-0.78125 0.33625,-0.33625 0.31125,-1.25 1.09375,-1.25 0,-1.23 0.9025,-2.0075 1.125,-3.125 1.45375,-0.22375 0.89375,-2.55375 2.90625,-2.21875 0.44625,-2.01125 2.3625,-2.48875 3.59375,-3.71875 0.78125,-0.67 1.10125,-2.21375 2.21875,-2.4375 0.2225,-1.45375 2.1375,-1.2475 2.25,-2.8125 0.67,-0.11125 0.88875,-0.89125 1,-1.5625 l -0.34375,0 c -0.4475,0.7825 -1.68125,1.23125 -1.90625,2.125 -1.56375,1.45375 -2.44375,3.13125 -4.34375,4.25 -0.4475,1.4525 -2.2225,1.46625 -2.78125,3.03125 -1.11875,0.33625 -1.57,1.545 -2.6875,1.65625 0.4475,-1.22875 1.20625,-2.3475 2.4375,-2.90625 0.7825,-1.6775 2.595,-2.55125 3.9375,-3.78125 0.335,-0.4475 0.31125,-1.2325 1.09375,-1.34375 1.1175,-1.90125 3.2575,-3.02375 4.375,-4.8125 1.78875,-1.00625 -1.4675,-2.01125 0.65625,-2.90625 1.45375,-0.67 2.4725,-1.67125 3.03125,-3.125 -1.1175,0.7825 -2.33875,1.57375 -3.34375,2.46875 -0.895,0.2225 -1.24375,1.5575 -2.25,1.78125 -0.55875,0.44625 -1.5625,0.23 -1.5625,1.125 -7.26625,4.36 -13.29625,10.17125 -20.5625,14.53125 0,1.22875 -2.12625,0.755 -1.34375,2.65625 -1.00625,1.34125 -2.35375,2.15125 -4.03125,2.375 -1.7875,1.7875 -2.6925,4.01125 -4.59375,5.6875 -2.57,1.45375 -1.565,5.46625 -2.90625,7.8125 1.00625,1.23 1.795,2.925 1.90625,4.9375 1.565,1.34125 1.78375,3.90375 3.125,5.46875 0.895,3.12875 4.59625,3.90625 5.9375,6.8125 2.3475,0.67 2.24125,3.915 4.8125,4.25 4.9175,2.795 1.8925,11.74625 2.5625,17 1.78875,-0.67 3.01625,-1.9125 4.46875,-3.03125 1.23,-0.11125 1.58375,-1.53875 2.8125,-1.875 0.335,-1.78875 2.56625,-1.3675 3.125,-3.15625 l 0.3125,0.25 c 1.67625,-1.67625 3.475,-3.03 5.375,-4.59375 0.335,-1.78875 2.69625,-1.44375 3.03125,-3.34375 1.56625,-0.67125 2.23875,-2.5925 3.46875,-3.375 0.7825,-0.67125 1.2175,-1.79375 2,-2.6875 1.3425,-0.33625 1.45375,-2.2325 2.90625,-2.34375 0.7825,-1.23 2.1375,-2.44 3.03125,-3.78125 1.67625,0.22375 0.64375,-2.2425 2.65625,-1.90625 0.7825,-0.56 0.58875,-1.8975 1.59375,-2.34375 1.34125,-0.4475 2.115,-1.7975 3.34375,-2.46875 -0.2225,-1.78875 1.8875,-0.90375 2,-2.46875 1.34125,-0.1125 1.14125,-2.01375 2.59375,-2.125 0.11125,-1.11875 1.78625,-0.8775 1.5625,-2.21875 l -0.6875,0 c -1.4525,1.565 -2.8975,3.25125 -4.6875,4.59375 0,0.55875 -1.0175,-0.12125 -0.90625,0.4375 -2.23625,1.9 -4.5625,3.7875 -6.6875,5.6875 0,1.565 -1.8975,1.22625 -2.34375,2.34375 -1.56625,1.34125 -3.255,3.03 -5.15625,3.8125 -0.67,1.565 -2.33625,2.1325 -3.34375,3.25 -0.44625,1.9 -2.79375,1.65375 -3.6875,3.21875 -1.78875,2.235 -4.25125,3.9125 -6.375,5.8125 -0.89375,0.335 -0.57,1.6875 -1.6875,1.6875 -0.1125,-0.11125 -0.125,-0.12 -0.125,-0.34375 -1.67625,1.67625 -3.895,2.81375 -5.125,4.9375 -0.11125,0.55875 -1.335,-0.225 -1,0.78125 -0.335,0 -0.67,0.0987 -0.78125,-0.125 -0.335,-1.78875 1.2175,-1.8825 2,-3 1.6775,0 1.3325,-2.34875 3.34375,-2.125 0.55875,-1.11875 1.8075,-1.90375 2.03125,-3.46875 1.00625,0.11125 0.53875,-1.455 1.65625,-1.34375 0.22375,-1.34125 1.9275,-1.35125 2.375,-2.46875 1.1175,-0.335 1.21125,-2.2375 3,-2.125 0.2225,-1.6775 1.91375,-2.01125 3.03125,-2.90625 0.22375,-1.56375 2.11125,-1.34875 2,-3.25 1.56375,-0.22375 1.6675,-1.98125 3.34375,-2.09375 1.11875,-2.46 3.48375,-3.8125 4.9375,-5.9375 1.34125,0.33625 0.78375,-1.5675 2.125,-1.34375 0.7825,-1.9 2.45875,-2.6675 3.6875,-4.34375 1.90125,-2.125 4.0225,-4.1475 5.8125,-6.71875 -0.335,-1.34125 0.875,-1.3375 0.875,-2.34375 -0.22375,-0.67125 0.3625,-2.03125 -0.53125,-2.03125 -1.1175,0.4475 0.21,1.0125 -0.125,1.90625 -1.11875,0.67125 -0.1225,2.90125 -1.6875,3.125 -0.1125,1.45375 -1.6725,1.7925 -2.34375,2.6875 -0.55875,0.2225 -0.006,1.68375 -1.125,1.125 -0.44625,1.23 -1.655,1.79375 -2.4375,2.6875 -0.2225,0.22375 -0.45875,0.78125 -0.90625,0.78125 -1.11875,1.11875 -2.35625,2.13125 -3.25,3.25 -2.9075,2.235 -5.5725,4.78625 -8.03125,7.46875 -1.79,0.7825 -2.68625,2.5825 -4.25,3.8125 -1.6775,0.7825 -2.56875,2.68625 -4.46875,3.46875 0.1125,-0.4475 -0.7775,-0.24125 -0.21875,-0.6875 1.78875,-0.55875 2.46375,-2.3275 3.46875,-3.78125 1.90125,-1.1175 3.445,-2.80125 4.5625,-4.8125 1.23,0.11125 1.24375,-1.11625 2.25,-1.5625 0.335,-1.78875 2.91125,-1.57625 2.6875,-3.8125 1.34125,-1.1175 2.7875,-2.1275 3.90625,-3.46875 1.34125,-0.55875 1.905,-2.0125 2.6875,-2.90625 1.23,-0.4475 2.12875,-1.32 2.6875,-2.4375 1.565,-0.4475 1.67125,-2.23625 3.125,-2.90625 0.44625,-0.22375 0,-1.34375 0.78125,-1.34375 0.4475,-1.78875 2.12875,-2.26125 2.6875,-3.9375 l -0.6875,-0.3125 c -0.6725,1.4525 -1.57,2.66875 -2.6875,3.5625 0.11125,2.0125 -2.45125,1.78625 -2.5625,3.6875 -2.45875,1.22875 -3.58625,3.80625 -6.15625,4.8125 -0.55875,1.34125 -2.10625,2.0025 -3,2.5625 0.89375,-1.9 2.66375,-3.35375 3.78125,-5.03125 3.0175,-3.0175 5.25375,-5.91375 7.9375,-9.15625 1.00625,0.1125 1.0175,-1.0075 1.6875,-1.34375 0.335,-2.235 2.56625,-2.46875 3.125,-4.59375 1.6775,-1.005 1.9175,-2.99375 3.59375,-4 0.4475,-2.0125 2.23625,-2.8 2.90625,-4.8125 0.67125,-0.895 1.66875,-1.23375 1.78125,-2.6875 1.90125,0 1.33375,-2.235 2.5625,-2.90625 0.22375,-1.565 1.665,-1.7975 2,-3.25 0.895,0 0.575,-1.125 1.46875,-1.125 0.1125,-1.565 1.46,-2.2075 1.90625,-3.4375 3.13,-2.6825 4.8,-6.61 6.8125,-10.1875 1.56375,-1.34125 1.78125,-4.03 3.90625,-4.8125 0.11125,-0.55875 -0.215,-1.32 0.34375,-1.65625 0,0.1125 0.0937,0.0888 0.0937,0.3125 l 0.6875,-1.09375 c 0,-1.565 1.1075,-3.025 1.21875,-4.03125 0.335,0.11125 0.8,-0.24125 0.6875,-0.6875 -1.1175,-0.67125 -2.45375,0.004 -3.125,0.5625 -0.335,0.11125 -0.335,0.79375 0,0.90625 -1.22875,0.67125 -1.01875,2.2225 -2.25,2.78125 -0.11125,0.44625 -1.125,0.44625 -1.125,0 1.34125,-0.335 0.58125,-2.2225 1.8125,-2.78125 0.335,-0.55875 0.885,-1.55625 0.4375,-2.5625 z m -68.53125,4.5625 0,0.46875 -0.34375,0 c 0,-0.1125 0.2325,-0.3575 0.34375,-0.46875 z m -120.84375,3.46875 0.5625,1 c 2.6825,2.23625 5.82125,4.0225 8.28125,6.59375 3.46625,4.58375 7.25625,8.83 9.15625,14.53125 1.1175,0.89375 0.78,2.93125 1.5625,3.9375 0,1.9 1.58125,2.22 0.6875,4.34375 -1.78875,-0.78375 -2.8025,-2.5775 -4.03125,-4.03125 -1.56625,-0.55875 -2.47625,-1.99375 -3.59375,-3 -3.2425,-1.56625 -4.4725,-5.4725 -7.9375,-6.8125 -2.0125,-2.68375 -4.69625,-5.05125 -7.9375,-6.28125 1.565,2.34875 3.2475,4.80875 4.8125,7.15625 0.335,1.67625 1.4675,2.69 2.25,4.03125 -0.335,0.895 0.5425,2.46875 -0.6875,2.46875 -1.78875,0.335 -1.9875,-1.12 -3.21875,-1.34375 -4.695,-3.35375 -9.64,-6.16875 -14,-9.96875 -2.68375,-0.78375 -4.79,-2.4575 -7.25,-3.6875 -1.565,0.22375 -1.89125,-1.7775 -3.34375,-1.21875 3.13,3.0175 6.6925,5.365 9.375,8.71875 1.45375,2.23625 3.0325,4.68375 4.375,7.03125 1.565,0.22375 0.002,2.6775 1.34375,3.125 0.22375,1.6775 0.75875,3.59125 1.09375,5.15625 -0.89375,-0.22375 0.2425,1.335 -0.875,1 0,-0.33625 -0.6925,-0.20875 -0.46875,-0.65625 -0.7825,-0.55875 -1.67875,-1.02625 -2.125,-2.03125 -1.45375,-0.56 -1.43625,-2.46375 -3,-2.6875 -1.79,-2.57125 -3.80375,-4.6675 -6.375,-6.34375 -1.78875,-2.46 -4.70625,-3.25125 -6.71875,-5.375 -1.67625,-0.4475 -2.7775,-1.8025 -4.34375,-2.25 3.13125,2.23625 4.675,5.72625 6.6875,8.96875 1.67625,2.12375 0.89875,6.0325 2.6875,8.15625 -1.0075,0 -1.66875,-1.02625 -2.5625,-1.25 -2.795,-0.67 -3.1425,-3.45375 -5.9375,-4.125 -1.565,-1.1175 -3.22,-1.89 -4.5625,-3.34375 -2.6825,-0.44625 -4.71375,-2.24875 -7.0625,-3.03125 -1.4525,-0.895 -3.91375,-0.22125 -5.03125,-1.5625 -1.565,-0.22375 -3.34625,-0.65625 -4.6875,-0.65625 L 450.375,350.75 c 4.5825,1.4525 6.915,5.58875 10.15625,8.71875 0.4475,1.1175 1.90125,1.7025 2.125,3.15625 0.7825,1.34125 1.79,2.5425 2.125,4.21875 -1.67625,0 -2.89875,-1.445 -4.6875,-1.78125 -0.89375,-0.55875 -2.235,-0.10625 -2.90625,-1 -1.4525,0.11125 -1.47,-0.335 -2.8125,0 -2.235,-1.00625 -4.78625,-1.46375 -7.46875,-1.6875 1.67625,2.3475 4.2475,3.7025 5.8125,5.9375 0.55875,1.78875 3.01625,3.58625 1.5625,5.375 -2.90625,0.22375 -6.2625,-0.33875 -9.28125,-0.5625 -0.11125,1.11875 -1.665,0.20375 -2,0.875 -2.57125,-0.55875 -3.7025,0.8925 -5.9375,0.78125 -0.4475,-0.4475 -1.5525,-0.31635 -2,-0.0937 -2.235,0.67125 -4.6075,1.2275 -6.84375,1.5625 l 0,-0.125 c -2.57125,0.67 -3.885,2.79375 -6.34375,3.6875 -0.7825,1.78875 -1.59125,3.82 -3.15625,4.9375 -0.1125,1.45375 -1.66,1.45 -2.21875,2.34375 -2.12375,1.9 -5.15375,2.89 -7.5,4.34375 -1.56625,0.44625 -2.5775,1.2525 -4.03125,1.8125 -0.4475,0.11125 -0.4325,-0.245 -0.65625,-0.46875 -1.34125,0.11125 -3.685,-0.2275 -5.25,-0.5625 l -0.6875,-0.53125 c -1.00625,-0.22375 -1.43625,0.3075 -2.21875,0.53125 -1.34125,0.2225 -2.0075,-0.30875 -3.125,-0.53125 -0.4475,0 -1.01375,-0.12125 -1.125,0.4375 -3.0175,0.55875 -6.36125,0.34125 -9.15625,1.125 -0.1125,0 -0.23625,-0.1075 -0.125,-0.21875 -1.34125,-0.33625 -1.78375,0.55375 -3.125,0.21875 -1.34125,0.335 -3.1375,0.65625 -4.03125,0.65625 -3.68875,1.45375 -7.71625,2.36125 -12.1875,2.25 l 0,-0.21875 c -3.13,-0.22375 -7.2675,-0.58125 -10.0625,0.3125 -0.44625,1.45375 -1.77125,-0.67125 -2.21875,0.78125 -3.0175,-0.11125 -5.25125,1.0075 -7.375,2.125 -0.1125,0 -0.25,-0.1075 -0.25,-0.21875 -0.67125,-0.1125 -1.2325,0.11125 -1.34375,0.78125 -1.78875,0.4475 -3.46125,1.4525 -4.46875,2.90625 -2.905,2.90625 -7.585,3.7025 -10.9375,5.9375 -2.12375,1.34125 -4.03125,3.33375 -6.9375,3.78125 -1.22875,1.4525 -3.34125,1.44875 -4.90625,2.34375 -2.3475,0.335 -2.5725,2.6875 -5.03125,2.6875 -0.22375,1.00625 -1.58375,0.90375 -2.03125,1.6875 -2.12375,0.44625 -2.8,2.68625 -4.8125,3.46875 -2.23625,1.565 -6.0225,1.23875 -8.59375,2.46875 -1.34125,-0.55875 -3.565,-0.004 -4.90625,-0.5625 -2.3475,0.67125 -3.59125,-1.34 -5.15625,-0.78125 -1.9,-0.89375 -3.69375,-1.68625 -5.59375,-2.46875 -2.46,-0.895 -4.69375,-2.35375 -6.59375,-4.03125 -1.3425,-0.67 -2.4625,-1.88625 -3.46875,-2.78125 -0.22375,-1.67625 -2.46,-1.7825 -2.125,-3.90625 -1.45375,-0.7825 -1.54875,-2.935 -2.21875,-4.5 -0.22375,-2.12375 0.55,-3.9975 0.4375,-5.5625 l 0.125,0 0,-1.5625 c 0.7825,-1.67625 1.77,-3.03375 3,-4.375 2.46,-1.4525 4.36875,-3.6975 8.28125,-3.25 0.67,0.4475 0.3425,0 1.125,0 1.23,0.67 2.68125,1.01875 4.46875,0.90625 0.895,0.7825 2.4675,0.44875 3.25,1.34375 2.57125,-0.33625 3.5525,1.5675 6.125,1.34375 l 0,-0.21875 c 2.57,0.22375 4.92375,1.21875 7.71875,1.21875 0.67125,-0.89375 1.36,0.675 2.03125,-0.21875 6.48375,1.34125 11.51125,-1.01375 16.09375,-3.25 4.58375,-2.45875 8.69875,-6.26375 10.375,-11.40625 -0.7825,0 -0.785,0.89625 -1.34375,1.34375 -1.9,1.4525 -4.025,2.46625 -5.8125,4.03125 -2.795,1.23 -5.695,3.89625 -9.71875,2.21875 -1.00625,-1.005 0.6875,-1.23 0.6875,-2.125 1.6775,-0.44625 2.11375,-2.12375 3.34375,-2.90625 0,-0.335 0.33875,-0.3125 0.5625,-0.3125 0.1125,-1.00625 1.33375,-1.03 1.78125,-1.8125 1.6775,-2.01125 3.4575,-3.68375 4.6875,-6.03125 0.895,0.1125 0.445,-1.2275 0.78125,-1.5625 2.3475,-3.8 4.265,-8.36125 3.59375,-14.0625 -1.34,2.90625 -3.12125,5.2375 -5.46875,7.25 -1.45375,0.4475 -1.91625,2.46875 -3.59375,2.46875 -1.67625,1.23 -3.69375,1.7925 -5.59375,2.6875 -1.78875,-0.33625 -3.02375,0.6526 -4.8125,0.0937 0.7825,-1.1175 1.4775,-2.01625 1.8125,-3.46875 1.34125,-0.895 1.1,-3.3325 2.21875,-4.5625 0.335,-1.34125 0.3425,-2.91375 1.125,-4.03125 0,-7.155 -1.35875,-13.315 -6.5,-16.78125 0.335,2.23625 1.36625,4.60625 1.03125,7.625 0.2225,2.45875 -1.34625,3.6625 -1.90625,5.5625 -1.4525,3.2425 -4.48375,5.47375 -6.71875,8.15625 -3.2425,2.68375 -6.825,4.83625 -10.625,6.625 -2.3475,0 -3.56625,-2.355 -6.25,-1.125 0,-1.23 0.235,-2.7875 0.90625,-3.90625 0.67,-3.13 -0.002,-7.74 -0.5625,-11.09375 -1.7875,-2.795 -2.90125,-6.5775 -6.03125,-8.03125 1.00625,2.795 1.5675,6.93375 0.5625,10.0625 l 0.0937,0 c 0,1.0075 -1.55875,2.115 -1,3.34375 l -0.4375,0 c -1.34125,3.01875 -2.3575,6.4925 -5.375,8.28125 -1.1175,2.12375 -3.25125,3.35625 -5.375,4.25 -2.12375,-0.67 0.34125,-2.79625 -0.21875,-4.25 -0.11125,-1.67625 -0.4375,-2.805 -0.4375,-4.59375 -1.67625,-2.3475 -3.04,-4.81 -5.5,-6.375 0.56,2.23625 1.0225,5.4825 0.6875,7.71875 l -0.125,0 c 0.7825,2.6825 -1.4425,3.14 -1.21875,5.375 -1.00625,0.33625 -0.77125,1.56125 -1.21875,2.34375 -2.12375,1.34125 -3.26875,3.67125 -5.28125,5.125 -1.34125,0.55875 -1.66625,2.245 -3.34375,2.46875 -0.22375,1.11875 -1.7725,0.78125 -2.21875,1.5625 -1.3425,-0.11125 -1.235,1.3475 -1.90625,1.90625 -1.7875,1.1175 -2.46625,3.47125 -4.03125,4.8125 -1.00625,-0.67125 -0.33875,-2.4575 -0.5625,-3.6875 -0.55875,-0.22375 -0.1125,-1.00875 0,-1.34375 -0.33625,-1.34125 -0.33625,-3.45875 0,-4.6875 -0.55875,-5.36625 3.13625,-7.7175 4.8125,-11.40625 -3.9125,1.45375 -6.81375,5.24 -8.9375,8.59375 -0.89375,1.11875 -1.45375,3.36125 -2.125,4.03125 -2.12375,4.4725 -2.57625,10.72875 -2.6875,16.09375 0.335,4.13625 -1.00625,8.9625 0.78125,12.875 l -0.21875,0.21875 c -0.33625,-0.89375 -1.44625,-1.3425 -1.78125,-2.125 -1.565,-0.7825 -1.455,-2.69 -2.125,-4.03125 -3.69,-3.80125 -3.91375,-9.94125 -5.03125,-15.53125 -0.1125,2.795 -0.80375,5.3575 -0.46875,8.375 -0.55875,0.67125 -0.2,1.7925 -0.3125,2.6875 0.67125,1.9 -0.36,4.80125 1.09375,6.03125 0,1.78875 0.12875,3.69 0.6875,5.03125 0.22375,2.90625 2.115,4.5675 2.5625,7.25 0.67125,2.0125 2.58875,3.595 2.8125,5.71875 -4.47125,-2.45875 -8.6075,-5.935 -10.84375,-10.40625 -0.7825,-1.565 -1.45,-3.00625 -1.5625,-4.90625 -1.1175,2.90625 0.2175,5.92875 1,8.5 1.565,1.22875 1.65375,3.79625 3.21875,5.25 0.67,1.34125 1.68125,2.225 2.6875,3.34375 0.44625,0.335 1.5675,0.11375 1.34375,1.34375 3.35375,2.12375 6.0425,5.02875 9.84375,6.59375 0.11125,1.23 2.25,0.23875 2.25,1.46875 -1.34125,0.55875 -3.025,0.545 -4.03125,0.65625 -3.35375,-0.55875 -5.58125,-2.23875 -8.375,-3.46875 0,0.22375 -0.0225,0.35625 0.3125,0.46875 1.1175,3.3525 2.575,6.5725 5.59375,8.25 2.235,1.56375 4.93375,2.46625 7.28125,4.03125 2.23625,0.4475 4.2425,1.2325 6.8125,1.34375 3.46625,1.00625 8.05625,0.21 11.96875,0.65625 -3.465,3.2425 -7.28625,5.58875 -12.875,5.8125 -0.89375,0.7825 -3.22625,-0.31 -3.5625,1.03125 l 0.21875,0 c 3.465,1.56375 8.28375,1.11625 12.53125,1.5625 1.00625,-0.2225 1.87875,0.67125 2.4375,0 1.3425,0.4475 2.9125,-0.555 4.8125,-0.21875 1.34125,-0.33625 2.565,-0.58875 3.90625,-0.8125 3.24125,-1.4525 5.815,-4.22625 9.28125,-5.34375 0.7825,-1.90125 3.25125,-1.915 5.375,-2.25 1.67625,-0.1125 3.7975,-0.66125 5.25,-0.4375 2.23625,-0.335 3.68375,-0.55875 6.03125,0 0.33625,-0.67 0.91,0.11125 1.46875,0 1.565,-0.55875 3.56875,-0.2325 5.46875,-0.34375 0.4475,0.55875 0.785,0 1.34375,0 0.7825,1.1175 3.45625,0.4425 2.5625,2.34375 0.55875,0.67125 -0.1075,2.36125 0.5625,3.03125 -0.22375,2.68375 -0.68125,3.455 -1.6875,5.46875 -0.22375,0.78125 -1.00375,0.78875 -1.5625,1.125 -1.23,1.56375 -0.76,4.24 -2.4375,5.46875 -1.00625,2.34875 -2.14375,4.46625 -4.15625,6.03125 -1.565,0.67 -1.685,2.6875 -3.25,3.46875 -3.04125,2.92125 -12.395,3.48125 -14.40625,4.375 -0.895,-0.55875 -4.81125,0.10625 -5.59375,0.21875 -1.4525,0.335 -3.01625,0.5575 -4.46875,0.78125 -2.12375,1.4525 -2.58375,4.03625 -3.8125,5.9375 -0.1125,1.005 0.11125,1.79 0.78125,2.125 1.3425,3.35375 3.60625,6.4625 6.625,8.25 2.12375,2.23625 4.47125,4.93375 5.8125,8.0625 1.34125,1.00625 2.21,6.48125 2.65625,7.375 0.7825,3.5775 1.59375,7.8075 2.375,10.9375 -0.55875,1.23 0,2.5975 0,3.9375 0.55875,4.20375 10.1475,8.2125 10.59375,8.4375 5.36625,-0.895 10.505,-0.0612 15.3125,-1.625 2.795,-0.1125 3.80875,-0.235 6.15625,-0.90625 2.0125,1.11875 3.59625,2.8 4.9375,4.8125 0.7825,-0.67125 0.19625,-2.24375 0.53125,-3.25 2.0125,1.1175 4.24875,1.5675 7.15625,1.34375 1.78875,0.67125 2.36375,2.5825 3.59375,3.8125 1.56375,-3.69 -1.10875,-6.36625 -2.5625,-8.9375 0,-0.7825 -0.0288,-1.6775 0.53125,-2.125 -0.11125,-2.34625 0.23,-3.46625 -1,-5.03125 -1.1175,-2.6825 -0.9825,-6.14875 -3.21875,-7.9375 -3.24125,-0.7825 -4.695,-3.915 -8.71875,-3.46875 -1.45375,0.4475 -3.355,0.1075 -5.03125,0.21875 -6.65125,0.0562 -9.295,-15.6375 -9.40625,-16.53125 1.4525,-2.68375 3.805,-4.2475 6.375,-5.8125 2.09625,-1.90125 13.9625,-4.2625 14.96875,-5.15625 4.30375,-1.37 10.5175,-0.44625 11.1875,-0.78125 1.11875,0.44625 1.9,1.23375 2.90625,1.90625 2.57,-0.1125 3.5875,-1.8025 5.375,-3.03125 0.33625,-2.46 1.45375,-4.3575 2.125,-6.59375 0.335,-1.56375 1.12375,-2.66375 1.90625,-3.78125 0,-2.46 2.66,-2.92625 3.21875,-4.9375 0.335,-0.55875 0.3425,-1.44625 1.125,-1.78125 l 0.34375,1.34375 c -0.2525,1.48125 -0.9575,9.01125 -3.25,11.5 -0.55875,0.89375 -0.905,2.03 -1.6875,2.8125 -2.87875,2.5425 -3.57125,6.93125 -3.90625,7.9375 l 0.125,0 c -0.67,0.67125 1.3275,4.8975 2.78125,5.34375 2.235,0.89375 3.26125,3.0425 4.9375,4.71875 2.57125,1.5925 7.92125,9.04125 9.375,10.71875 -0.33625,0.7825 0.32625,1.00375 0.4375,1.5625 -0.22375,2.0125 1.12,3.13625 1.34375,4.8125 0.55875,0.895 2.44125,4.3 3,4.1875 0.89375,1.565 4.145,4.075 6.15625,4.1875 2.3475,1.00625 6.50125,1.9125 8.625,0.90625 1.565,0.22375 2.005,-1.34 3.90625,-0.78125 3.13,-1.23 5.605,-2.9125 9.40625,-1.90625 1.4525,-1.1175 3.01,1.01375 5.46875,0.34375 1.34125,-1.22875 3.2475,0 4.8125,0 1.78875,0.4475 2.78375,2.0075 4.125,3.125 0.39125,-3.6325 -2.1325,-4.5775 -3.25,-6.03125 -1.565,-1.565 -1.8975,-4.2425 -2.34375,-6.8125 l -3.21875,-6.28125 c 0,0 -1.37,-0.56625 -1.59375,-1.125 -1.9,-1.00625 -3.78625,-2.10125 -5.6875,-3.21875 -0.55875,-0.335 -1.45,-0.21875 -1.5625,-1 -3.04625,-1.51 -7.68375,-1.71625 -10.03125,-2.5 -0.22375,-0.67 -5.73125,-7.8275 -6.625,-10.59375 -0.22375,-0.89375 -0.895,-1.905 0,-2.6875 -0.67125,-2.0125 1.12125,-3.34875 0.5625,-6.03125 0.89375,-0.67125 0.32,-2.36 1.4375,-3.03125 0.89375,-0.335 0.9125,-1.4325 2.03125,-1.65625 0.11125,-1.23 1.12375,-1.6725 1.90625,-2.34375 0.67125,-0.335 0.645,-2.13 1.875,-1.125 0.78125,-1.005 2.35,-1.23625 3.46875,-1.90625 0.11125,-1.23125 1.58375,-0.66375 2.03125,-1.78125 1.4525,0.335 0.765,-1.79 2.21875,-1.34375 -0.335,-1.6775 2.13375,-0.01 1.6875,-1.6875 0.44625,-0.44625 0.5575,-1.22375 1.5625,-1 2.46,-1.4525 3.80875,-4.26125 6.15625,-5.9375 0.1125,0 0.2051,0.13875 0.0937,0.25 3.57625,-0.55875 5.83125,1.00875 8.625,1.34375 1.6775,0.22375 2.77375,0.9825 4.5625,1.09375 2.795,1.00625 5.495,2.3475 8.625,2.90625 3.24125,0.55875 6.26125,1.005 10.0625,0.78125 2.12375,1.00625 4.3575,-0.55125 6.59375,0.34375 2.235,-1.00625 5.58,-0.34 8.375,-0.5625 1.00625,0.335 -0.0937,1.02125 -0.0937,1.46875 -2.34875,1.565 -2.8075,4.905 -5.9375,5.6875 -1.23,2.0125 -3.6975,2.45875 -5.375,3.6875 0.7825,0.7825 2.4575,0.32625 3.6875,0.4375 0.78125,-0.55875 7.295,-0.33875 10.84375,-1.875 1.1175,0 1.57,-1.24125 2.6875,-0.90625 -1.00625,2.0125 -2.805,3.5825 -4.59375,4.8125 1.23,1.23 4.14375,0.4325 6.15625,0.65625 2.68375,0.2225 3.915,-1.43375 6.375,-1.65625 3.68875,-3.35375 6.02625,1.77125 9.15625,2.21875 1.9,0.44625 3.59625,1.2325 5.71875,1.34375 2.9075,1.79 5.375,3.69375 8.28125,5.59375 2.0125,0.67125 7.475,7.71625 8.59375,9.28125 0.78125,2.3475 2.02125,4.3575 3.25,6.59375 0.1125,1.78875 1.79375,3.56875 2.6875,5.46875 1.23,1.565 1.67625,3.58 3.6875,4.25 0.7825,1.45375 2.11,3.0125 3.5625,3.90625 2.3475,0.22375 4.8075,0.5575 7.15625,0.78125 2.6825,1.90125 4.1425,-1.11625 6.9375,-0.78125 1.78875,-0.7825 3.34375,0.4475 5.46875,0 2.23625,2.90625 5.02125,0.11375 8.375,1.34375 l 0,-0.21875 c 0.335,-0.22375 3.82,1.6725 4.9375,3.125 -0.1125,-0.335 0.215,-2.11 -0.34375,-2.78125 -2.1225,-2.23625 -0.22125,-7.2675 -1.5625,-10.0625 -0.67125,-3.24125 -3.8175,-5.0275 -5.71875,-7.375 -1.7875,-0.55875 -3.6625,-0.89 -4.78125,-2.34375 -1.22875,-0.1125 -1.9,-1.00875 -2.90625,-1.34375 -0.89375,-1.1175 -2.68625,-1.1325 -3.46875,-2.25 -1.45375,-0.33625 -3.025,-0.2175 -4.03125,-1 -3.80125,1.45375 -11.1775,-24.145 -11.625,-25.375 0.33625,-0.55875 -0.11125,-2.69125 0,-3.25 -0.7825,-1.1175 0.4475,-2.575 0,-3.46875 -0.67125,-0.55875 0.23125,-1.115 0.34375,-1.5625 -0.78375,-0.67 0.43375,-1.5475 -0.125,-2.21875 0.67125,-0.67 -0.9975,-1.44625 0.34375,-1.78125 1.67625,1.4525 3.57375,3.21625 5.25,4.78125 2.0125,2.12375 17.6725,12.7625 21.25,15.78125 2.6825,0.89375 8.58375,5.0175 9.03125,5.6875 1.67625,-0.22375 4.82375,4.355 6.5,5.25 3.13,3.5775 7.6975,6.0475 10.15625,10.40625 0.335,0.4475 0.3425,1.34375 1.125,1.34375 0.22375,1.34125 1.45,1.795 1.5625,3.25 1.005,1.56375 3.36125,2.675 4.03125,4.6875 2.3475,2.57125 5.94,3.5625 9.40625,3.5625 l 0,0.25 c 0.44625,0.11125 1.08875,-0.22875 1.3125,0.21875 1.565,0.22375 2.695,-0.21875 3.8125,-0.21875 0.6725,0.22375 1.69,-0.5675 3.03125,-0.34375 4.695,-1.6775 6.91875,1.79625 9.9375,3.25 0.44625,-1.565 -0.78125,-1.815 -0.78125,-3.15625 0.7825,-0.22375 0.78875,-0.98625 1.90625,-0.875 1.67625,0.78375 3.22,-0.4475 5.34375,0 2.23625,0.22375 4.15,1.31875 5.15625,3.21875 1.34125,-2.12375 -0.5425,-3.6725 -1.4375,-5.125 -0.11125,-5.47625 -1.0075,-10.5225 -5.03125,-13.09375 -1.1175,-2.45875 -3.92625,-2.78875 -5.9375,-3.90625 -1.45375,-0.895 -3.70125,-0.56125 -5.15625,-1.34375 -3.8,-0.33625 -6.59375,-2.24 -8.71875,-4.8125 -1.56375,-0.78125 -2.11375,-2.78875 -3.34375,-3.90625 0.22375,-1.34 -18.4425,-25.14875 -18.21875,-26.9375 -0.895,-1.1175 -1.6825,-1.99625 -1.90625,-3.5625 1.34125,-0.67 3.57375,-1.9175 5.25,-0.6875 0.33625,-0.22375 1.115,-0.3176 1.5625,-0.0937 1.22875,0.7825 2.91375,0.99375 4.03125,2 1.4525,-0.22375 1.565,1.005 2.90625,0.78125 2.3475,1.4525 4.93,2.69375 7.5,3.8125 0.895,0.67 1.78875,0 2.90625,0 4.5825,3.465 20.66,12.6275 23.59375,16.875 3.80125,4.36 7.695,8.81875 13.84375,9.9375 0.335,0.22375 0.78875,-0.67125 1.125,0 1.4525,0.4475 1.775,-1.1025 2.78125,-1.4375 0.11125,-2.57 -3.68,-2.48125 -2.5625,-5.5 2.125,-4.9175 -4.8075,0.0225 -5.8125,-3.21875 -1.0075,-1.34125 0.55875,-2.7075 0,-4.71875 l -0.34375,0 c -0.22375,0.55875 -0.76625,0.7 -1.4375,0.8125 -1.4525,0.11125 -2.91875,-0.0163 -3.8125,-0.6875 0.335,-1.6775 0.675,-4.47 -0.21875,-5.8125 -0.7825,0.67125 -1.675,1.0175 -2.90625,0.90625 -0.55875,-0.225 -1.1125,-0.8025 -1,-1.25 -0.1125,-0.4475 0.67875,-0.54875 0.34375,-1.21875 1.23,-1.1175 -0.13625,-3.9 1.09375,-4.90625 0.55875,-0.55875 1.0125,-1.23125 1.90625,-1.34375 0.335,0.33625 1.13875,0.20375 1.25,0.875 -0.11125,1.00625 0.215,2.235 -0.34375,2.90625 0.67,1.11875 1.33875,-0.53625 2.34375,-0.3125 0.1125,-1.23 1.68625,-0.8975 2.46875,-1.34375 1.3425,-0.22375 1.0925,1.20875 1.875,1.65625 0.67,1.00625 0.0275,2.23625 -0.53125,2.90625 1.565,-0.22375 3.66875,0.44375 4.5625,-0.5625 1.565,-0.335 2.69,-0.64375 4.03125,0.25 1.4525,1.78875 -0.33,3.68 -0.21875,5.46875 2.46,1.565 4.13375,-1.01875 6.59375,-0.90625 0.55875,0.67 1.8875,0.8 2,2.03125 0.89375,2.57 -0.31875,5.9025 -2.21875,7.46875 l 0.34375,0.46875 c 4.02375,-0.22375 6.24,-2.465 8.8125,-4.8125 1.4525,-0.89375 3.02875,1.56625 4.59375,0 0.55875,-0.335 0.325,-1.57625 1.21875,-1.6875 1.0075,-1.7875 3.14375,-2.5575 5.15625,-2.78125 l 0,0.0937 c 1.1175,0.1125 1.785,-0.11125 2.34375,-0.78125 -1.005,-3.355 1.57125,-3.79125 1.90625,-6.25 0.335,-2.68375 -0.45625,-5.57875 -2.46875,-7.03125 -5.47625,-1.56625 -10.0525,-4.92125 -13.40625,-9.28125 -3.13,-3.465 -5.82625,-7.39125 -8.84375,-10.96875 -1.88125,-2.8625 0.89,-8.9375 0.21875,-11.84375 -2.955,-4.0225 -15.315,-17.1725 -16.71875,-20.84375 -1.22875,-0.55875 -5.69125,-10.115 -0.71875,-14.375 2.795,-2.68375 4.1375,-6.1475 7.15625,-8.71875 0.96125,-1.26375 2.0125,-1.78875 2.125,-2.90625 -1.1175,0.11125 -2.80125,-0.4425 -4.03125,-0.21875 -5.6075,-0.0575 -12.32,1.65625 -17.53125,4.8125 -2.23625,0.44625 -3.4775,3.56875 -5.9375,2.5625 -0.335,-1.67625 -1.795,-2.58625 -1.90625,-4.375 -0.89375,-1.6775 -1.215,-3.9 -2.78125,-4.90625 -0.67,5.8125 -3.9125,9.72375 -5.8125,14.53125 l -0.34375,0 -1.6875,-4.8125 c -0.89375,-4.13625 -2.78125,-7.25875 -4.90625,-10.5 -0.78125,0.67125 -0.32625,2.225 -0.4375,3.34375 -1.34125,1.67625 -1.565,4.13625 -2.90625,5.8125 -1.005,-2.45875 -1.7,-5.11625 -2.59375,-7.6875 -2.795,-7.0425 -4.91625,-14.54875 -9.5,-20.25 0.335,1.6775 0.335,4.26 0,5.9375 0.67125,2.45875 -0.0838,5.13875 -0.53125,7.375 -0.67,1.34125 -0.80125,3.4725 -2.03125,4.03125 -3.57625,-5.7 -4.4525,-13.5275 -9.59375,-18 -1.23,-2.6825 -3.60625,-4.49875 -6.625,-5.28125 2.3475,4.36 4.1475,9.08 4.59375,14.78125 -0.11125,0.7825 -0.76625,1.2325 -1.4375,1.34375 -0.89375,-0.11125 -1.6825,-0.23 -1.90625,-1.125 0.22375,-1.7875 -1.575,-2.23375 -1.6875,-3.6875 -2.57,-1.56375 -3.6975,-4.2425 -6.15625,-6.03125 -0.335,-0.22375 -0.4275,-0.90625 -0.875,-0.90625 -2.57,-2.12375 -5.1425,-4.26 -7.9375,-5.9375 -0.67125,-1.67625 -3.03375,-0.98 -3.59375,-2.65625 -1.4525,-0.895 -3.22125,-1.4625 -4.5625,-2.46875 -2.45875,-1.34125 -4.93375,-2.69 -7.28125,-4.03125 z m 153.15625,6.25 0.4375,0 -0.4375,0 z m 41.71875,1.78125 c -0.1062,-0.008 -0.24227,0.0174 -0.375,0.0312 -0.67125,0.67125 -1.5575,0.7575 -1.78125,1.875 -0.78375,0 -0.44875,1.125 -1.34375,1.125 -1.56375,0.335 -0.76125,2.48 -1.65625,3.375 0.1125,0.2225 -0.2275,1.8975 0.21875,2.34375 0.55875,1.23 0.99875,-0.33125 1.78125,0.5625 0.11125,-1.22875 1.68375,-1.14625 1.90625,-2.375 0.67125,-1.23 2.34375,-1.77375 2.34375,-3.5625 -0.73359,-0.83789 0.49932,-3.26125 -1.09375,-3.375 z m -43.75,1.6875 c -1.14048,0 -0.67214,1.307 -1.125,1.96875 0.55299,-0.50501 1.03135,-1.12167 1.125,-1.96875 z m -4.125,4.8125 c -0.4475,0.22375 -0.2175,1.2275 -1,0.78125 0,0.42859 -0.13135,0.75285 -0.34375,1 0.16598,-0.0709 0.47812,0 0.6875,0 -0.11125,-0.895 1.4375,-0.8875 0.65625,-1.78125 z m 8.53125,0.75 c -0.14678,-0.0139 -0.30094,0.003 -0.46875,0.0312 -0.55875,1.23 -1.45875,1.895 -1.90625,3.125 l 0.4375,0 c 0.22375,-1.6775 2.79875,-0.64875 2.6875,-2.4375 0,-0.41906 -0.30967,-0.67709 -0.75,-0.71875 z m 8.34375,0.0312 c -0.22375,1.00625 -1.46,1.3375 -1.125,2.34375 0.7825,-0.33625 0.47625,-1.65625 1.59375,-1.65625 0.2225,-0.44625 -0.3575,-0.46375 -0.46875,-0.6875 z m -78.25,0.34375 -0.21875,0.21875 c -1.22875,-0.4475 -1.22625,1.2375 -2.34375,1.125 -1.23125,1.45375 -3.79625,2.2375 -3.125,5.03125 0.2225,1.23 1.89125,1.45875 2.5625,1.90625 1.11875,0 1.79375,-0.46375 2.6875,-0.6875 0,0.4475 0.66125,0.33375 0.4375,0.78125 l -2.4375,1 0,0.6875 c 0.7825,0.67125 1.66875,-0.23125 2.5625,-0.34375 3.2425,0.67125 4.14375,-1.9 6.15625,-2.90625 -0.2225,-0.89375 0.44375,-2.33875 -0.5625,-2.5625 -1.45375,-0.22375 -2.4625,0.4375 -3.46875,0.4375 0.11125,-0.335 0.2275,-0.45125 0.5625,-0.5625 0.11125,-1.23 -0.115,-2.105 -0.5625,-3 -0.7825,-0.335 -1.355,-1.125 -2.25,-1.125 z m 59.96875,0.71875 c -0.63484,0.66628 -1.82077,0.86335 -2.0625,1.75 0.67125,0.225 0.67875,-0.24625 1.125,-0.46875 0.22375,-0.33625 0.90625,-0.44125 0.90625,-1 -0.0278,-0.13969 -0.0107,-0.22365 0.0312,-0.28125 z m 15.9375,1.96875 0.125,0.875 0.21875,-0.875 -0.34375,0 z m -8.5,0.4375 c -0.67,0.1125 -1.12,0.785 -1.34375,1.34375 -1.27094,0 -0.99686,1.53208 -1.65625,2.21875 0.22024,-0.2973 0.50546,-0.53322 0.875,-0.65625 0.2225,-1.565 2.01375,-1.34125 2.125,-2.90625 z m -3,3.5625 c -0.0942,0.0981 -0.20406,0.19406 -0.34375,0.25 -0.56,0.7825 -2.125,0.98875 -2.125,2.21875 l 0.4375,0 c 0.22375,-0.22375 0.32875,-0.8925 1,-0.78125 0.42474,-0.49513 0.65177,-1.17524 1.03125,-1.6875 z m -296.8125,-2.65625 0.46875,0 c -0.11125,0.895 -0.79,1.325 -1.125,2.21875 l -0.90625,0.125 c 0.11125,-1.22875 2.01,-0.77875 1.5625,-2.34375 z m 291.875,0.21875 -0.4375,0.875 0.65625,0 -0.21875,-0.875 z m -1.34375,1.5625 0,0.4375 0.46875,0 0,-0.4375 -0.46875,0 z m 15.3125,0.34375 c -0.1125,0.56 -0.87125,0.98625 -0.3125,1.65625 l 1,-1.4375 -0.6875,-0.21875 z m -15.625,0.78125 c -0.55875,0 -0.8025,0.66875 -1.25,0.78125 -0.67,1.00625 -1.46,1.22625 -1.90625,2.34375 1.565,-0.67 2.37375,-1.78375 3.15625,-3.125 z m 14.34375,1.3125 c -0.78465,0.15271 -0.40078,1.39797 -1.28125,1.59375 -0.22375,0.335 -0.875,0.44 -0.875,1 1.565,-0.1125 1.6675,-1.8925 2.5625,-2.5625 -0.16781,-0.028 -0.29416,-0.0532 -0.40625,-0.0312 z m -10.78125,1.125 c -0.22375,0.55875 -1,0.7975 -1,1.46875 0.55875,-0.33625 1.67,-0.575 1,-1.46875 z m 8.0625,1.8125 c 0.33625,1.23 -0.8975,1.00875 -1.34375,1.34375 -0.44875,1.67625 -2.45875,2.235 -2.90625,3.6875 1.1175,0.33625 0.54375,-1.125 1.4375,-1.125 0.7825,-1.565 2.915,-2.00625 3.25,-3.90625 l -0.4375,0 z M 336,368.875 l 0.46875,0 0,0.4375 -0.46875,0 0,-0.4375 z m 288.78125,0.78125 c 0.0926,-0.0227 0.20062,-0.0278 0.3125,0 -0.22375,0.22375 -0.465,0.4325 -0.6875,0.65625 -0.0844,-0.33562 0.0973,-0.58799 0.375,-0.65625 z m 46.09375,0.28125 c -0.0877,0.008 -0.18328,0.0345 -0.28125,0.0625 -0.22375,1.565 -2.13,1.9925 -1.90625,3.78125 1.22875,0.1125 0.43625,2.24625 2,1.6875 0.225,-0.56 0.23625,-1.23125 0.90625,-1.34375 0.55875,-0.89375 1.1075,-2.35125 0.4375,-3.46875 -0.19578,-0.39156 -0.54272,-0.77711 -1.15625,-0.71875 z M 623.75,370.75 c 0.10139,-0.0227 0.23187,0.003 0.34375,0.0312 l -0.6875,0.65625 c -0.16781,-0.33562 0.0396,-0.61924 0.34375,-0.6875 z m -1,3.5 c 0.11125,0.44625 -0.24,0.76875 -0.6875,0.65625 0.22375,-0.22375 0.46375,-0.4325 0.6875,-0.65625 z m 46.28125,2.125 c 0.4475,1.1175 -0.78625,1.105 -0.5625,2 l 0.4375,0 c -0.335,-1.11875 0.8925,-0.99375 0.78125,-2 l -0.65625,0 z m -2.125,4.34375 c -0.1125,0.4475 -1.0175,0.235 -0.90625,0.90625 l 0.65625,0 c 0.33625,-0.11125 0.3625,-0.79375 0.25,-0.90625 z m -1.03125,1.5625 c -0.335,0.2225 -1.3225,0.325 -0.875,1.21875 0.44625,-0.2225 0.76375,-0.7725 0.875,-1.21875 z m -2,1.5625 0,0.6875 c 0.44625,0.22375 0.8,-0.24125 0.6875,-0.6875 l -0.6875,0 z m -322.9375,3.59375 0.0937,1.09375 c -0.7825,-0.11125 -0.0937,-0.535 -0.0937,-1.09375 z M 340.375,389 l 0.0937,0.4375 0,0.21875 L 340.375,389 z m 295.34375,2.4375 0.0937,0.125 0,0.21875 -0.0937,-0.34375 z m -1.3125,4.40625 c -0.16766,0.22344 -0.37,0.42 -0.59375,0.53125 0.11188,-0.22312 0.37016,-0.36359 0.59375,-0.53125 z m -296.375,0.0937 0,0.4375 -0.34375,0 c 0,-0.11125 0.23125,-0.32625 0.34375,-0.4375 z M 588.1875,417.7187 c 3.2425,-0.11125 5.375,1.11625 8.28125,1.5625 1.78875,1.90125 3.465,3.81375 5.03125,5.9375 -2.125,-0.7825 -4.57625,-2.0075 -6.8125,-3.125 -3.01875,-0.22375 -5.04625,-2.3625 -6.5,-4.375 z M 548.5,449.125 c 0.895,0.55875 0.4575,2.0075 1.6875,2.34375 0.335,1.1175 1.23125,1.815 1.34375,3.15625 1.34125,0.55875 1.225,2.33 2.34375,3 0.22375,1.45375 1.6825,2.14125 1.90625,3.59375 1.45375,2.23625 3.45625,4.46125 5.46875,6.25 0.33625,-0.4475 0.33875,-1.46 1.34375,-1.125 0.22375,-1.00625 1.6825,-0.6825 1.90625,-1.6875 1.45375,-0.89375 2.6775,-1.7625 3.90625,-2.65625 l 0,0.0937 1.25,-0.5625 c 0.44625,-1.1175 2.0125,-1.1225 2.90625,-1.90625 -1.7875,-1.1175 -3.9225,-2.105 -5.375,-3.78125 -3.2425,0.67 -4.92,-1.12375 -7.15625,-1.90625 -0.67,-1.22875 -2.56,-1.01125 -3.34375,-1.90625 -1.56375,0 -2.56875,-1.00375 -3.6875,-1.5625 -1.565,-0.4475 -2.71125,-1.34375 -4.5,-1.34375 z m -43.90625,15.53125 c -0.89375,1.4525 -2.7,1.4525 -3.59375,2.90625 -1.4525,0.89375 0.5675,1.47625 0.34375,2.59375 1.11875,0.7825 0.56375,2.8925 1.90625,3.5625 0.11125,1.90125 1,3.35 1,5.25 1.34,1.78875 1.91,4.0275 2.46875,6.375 -0.4475,3.24125 3.555,1.89625 5.34375,3.125 0.44625,1.1175 2.45875,0.695 2.90625,1.8125 1.9,-0.11125 2.79125,3.12875 4.46875,0.78125 1.67625,-1.90125 4.9175,-1.4525 6.59375,-3.6875 2.45875,-0.56 4.275,-2.12375 6.0625,-3.6875 l -0.90625,-0.34375 c -1.34125,-1.90125 -3.13875,-3.58625 -5.375,-4.59375 -1.9,-2.1225 -5.59125,-1.8975 -7.15625,-4.46875 -1.45375,-0.7825 -2.77125,-1.56125 -4,-2.34375 -3.80125,-2.0125 -6.5975,-5.04625 -10.0625,-7.28125 z m -127.21875,6.375 c -0.4475,0.7825 -1.4725,0.45375 -2.03125,1.125 -1.565,-0.22375 -1.3325,1.45125 -2.5625,1.5625 -0.335,1.6775 -2.34375,2.13125 -2.34375,4.03125 -1.3425,1.22875 -0.68125,3.70375 -1.6875,5.15625 0.22375,1.11875 -0.44875,2.57125 0.78125,2.90625 0,1.6775 2.12875,1.55625 1.90625,3.34375 1.1175,0.895 1.00625,2.66875 2.125,3.5625 1.78875,0.55875 3.79625,0.80625 5.25,1.8125 -0.22375,-0.7825 -0.5575,-1.5925 -0.78125,-2.375 0.7825,-1.45375 -0.4475,-2.68 0,-4.46875 -1.23,-1.6775 -2.125,-4.33375 -1.34375,-6.90625 1.11875,-1.34 0.11,-4.135 0.78125,-5.8125 0.335,-1.565 0.6887,-2.59625 -0.0937,-3.9375 z m 96.5625,15.875 c -1.4525,0.895 -2.77,2.1325 -4,3.25 0,0.4475 -0.5575,0.10625 -0.78125,0.21875 -0.4475,1.11875 -1.895,1.12 -2.34375,2.125 -1.67625,0.895 -3.5825,2.02875 -4.8125,3.59375 -1.7875,0.55875 -3.02875,1.89875 -4.59375,2.90625 -1.34125,0 -2.12375,1.205 -2.90625,1.875 l -0.65625,-0.3125 -0.46875,0.875 c -1.45375,0.1125 -1.3225,1.78625 -3,1.5625 -1.45375,1.34125 -2.8,2.7975 -4.8125,3.46875 -1.005,1.1175 -2.67375,1.8025 -3.34375,3.03125 -1.34125,0.4475 -2.695,0.77875 -3.8125,1.5625 -2.12375,0.22375 -2.56375,2.795 -4.6875,2.90625 -0.55875,2.23625 -3.4625,1.355 -4.46875,3.03125 -1.45375,0.67 -3.1325,1.42625 -4.25,2.65625 -1.6775,0 -2.685,1.2575 -3.46875,2.375 -2.3475,0.1125 -2.34875,2.99125 -5.03125,2.65625 -0.335,1.4525 -2.3525,0.69375 -2.6875,1.8125 -0.7825,0.55875 -2.00875,0.3375 -2.34375,1.34375 -2.12375,0.335 -3.57875,0.8825 -5.03125,2 -2.9075,0.33625 -4.48,-1.45375 -6.15625,-2.90625 -2.0125,0.67 -2.245,-1.23625 -3.25,-1.90625 -2.23625,-2.45875 -5.69875,-0.89625 -9.5,-1.34375 -3.465,-0.67 -7.13375,0.0163 -9.59375,1.46875 -0.44625,-0.55875 -0.7925,0.5401 -1.6875,0.0937 -2.90625,1.9 -7.2525,2.03125 -11.5,2.03125 1.1175,0.67 0.98125,2.105 1.875,3 0.55875,1.34125 2.245,1.56 2.46875,3.125 0.895,1.00625 1.23375,2.14625 2.6875,2.59375 -0.67125,1.67625 1.79125,0.66625 1.34375,2.34375 0.55875,0.67125 1.455,0.65875 1.34375,2 -1.565,1.565 -4.0275,2.1225 -5.59375,3.6875 -1.56375,0.7825 -3.70375,1.23 -5.15625,2.125 l 0,0.46875 c -0.55875,0.335 -1.0975,1.10375 -1.65625,0.65625 -2.0125,1.9 -4.7025,2.90875 -6.9375,4.25 -0.89375,1.34 -2.45875,1.7925 -3.6875,2.6875 -0.67125,0.335 -1.35625,0.66875 -1.46875,1.5625 0.7825,-0.22375 1.1225,-0.79 1.90625,-1.125 3.465,-1.56625 6.5975,-3.56 10.0625,-5.125 -0.44625,-2.23625 2.79,-0.3375 3.125,-2.125 1.34125,0.22375 1.02375,-1.81375 2.8125,-1.03125 1.45375,-0.55875 2.46125,-1.7625 4.25,-1.875 1.11875,-1.22875 2.67125,-1.90375 4.125,-2.6875 0.44625,2.12375 -2.55625,1.9975 -3.5625,3.5625 -1.22875,0.55875 -2.475,1.12875 -3.59375,1.6875 -0.7825,1.7875 -3.22625,1.67125 -4.34375,3.125 -0.7825,1.7875 -2.7025,2.69375 -4.15625,3.8125 -0.7825,0.55875 -1.8825,0.99875 -2.21875,1.78125 0.33625,0 0.32625,0.55875 0.4375,0 0.335,-0.335 1.3525,-0.55875 1.6875,0 -0.335,0 -0.22625,0.34375 -0.5625,0.34375 l 0.5625,0.4375 c -0.44625,0 -0.335,0.67875 -0.78125,0.34375 -1.23,-1.565 -1.69,0.755 -3.03125,0.53125 -1.00625,2.3475 -4.14875,2.145 -5.9375,3.375 -1.565,-0.1125 -2.55375,0.55125 -3,1.78125 -2.795,1.1175 -4.92875,2.90875 -7.5,4.25 -1.565,0.67 -3.13125,1.89875 -5.03125,0.78125 -0.1125,1.005 -1.22875,1.12625 -0.78125,2.46875 -0.895,1.4525 -2.7975,1.31625 -4.25,1.875 -0.44875,0.67125 -1.2125,0.92375 -2.21875,0.8125 -0.1125,1.34125 -1.00375,-0.475 -1.5625,0.53125 l 0.21875,0.34375 c -0.67125,0.55875 -0.66875,-0.006 -1.5625,0.21875 -1.78875,1.56375 -4.02375,2.79125 -5.8125,4.46875 -1.78875,-0.33625 -1.58625,1.68 -3.375,1.34375 -0.44625,0.67 -1.7725,1.0175 -2.21875,0.90625 l -2.6875,0.78125 c -0.67125,1.7875 -2.3375,0.003 -3.34375,1.34375 -1.11875,0.44625 -1.11875,2.01 -2.90625,1.5625 -1.00625,1.34375 -3.46,1.01875 -3.90625,3.03125 -1.00625,0 -1.7975,-0.12125 -2.46875,0.4375 -1.00625,0.22375 -2.03125,0.5525 -2.8125,1 l 1.34375,0.6875 c -0.4475,0.67125 -0.31625,1.535 -0.875,2.09375 -0.67,-0.11125 -1.25,0.12875 -1.25,0.6875 1.22875,0.56 1.24875,-0.795 2.03125,-0.90625 1.34125,1.1175 1.565,-1.77375 2.90625,-0.65625 1.6775,-1.23 3.685,-1.90875 5.25,-3.25 0.78125,0.11125 1.34375,-0.11 1.34375,-0.78125 1.45375,-0.22375 2.33375,-1.5525 3.5625,-2 1.23,0.22375 2.46625,-1 4.03125,-1 1.565,-0.89375 3.46625,-1.48125 5.03125,-2.375 3.80125,-2.3475 7.815,-4.4625 12.0625,-6.25 1.3425,0 2.13125,-0.89625 3.25,-1.34375 2.235,-0.2225 3.13,-2.67125 5.8125,-2 l 0,0.5625 c -0.22375,0.78125 -1.00375,0.7575 -1.5625,1.09375 0,1.4525 -2.13875,0.78375 -2.25,2.125 -1.78875,0.335 -2.765,1.45375 -4.21875,2.125 -0.67,0.4475 0.2,0.80375 0.3125,1.25 1.005,0.335 1.24375,-0.55375 2.25,-0.21875 0.67125,-1.9 3.00625,-1.56875 4.125,-2.6875 0,-1.56375 1.79875,-1.24375 2.46875,-2.25 1.90125,-2.6825 6.465,-2.01875 8.8125,-4.03125 3.13,-1.34125 7.18125,-3.23875 11.09375,-4.46875 0.78375,1.00625 0.995,-1.3175 2,-0.3125 0.1125,-1.22875 1.8875,-0.565 2,-1.90625 1.23,-0.11125 2.23625,-0.6675 2.90625,-1.5625 3.01875,0.1125 4.24375,-2.6925 7.375,-2.46875 1.005,-1.00625 2.46625,-1.3375 4.03125,-1.5625 1.78875,0.1125 2.14,1.91 3.59375,2.46875 0.89375,-0.22375 1.0975,0.325 1.65625,0.4375 0.895,0 1.785,0.12125 2.34375,-0.4375 0.335,-0.335 1.03125,-0.4725 1.03125,-1.03125 -0.55875,0 -0.2325,-0.665 -0.34375,-1 -0.4475,-1.45375 -1.2225,-2.34625 -1.78125,-3.6875 0.89375,-0.895 2.21625,-1.88 3.78125,-1.65625 0.55875,1.1175 2.025,1.32875 3.03125,2 1.67625,1.7875 4.35875,2.80125 6.59375,4.03125 1.78875,1.78875 4.355,2.45625 6.03125,4.46875 0.4475,0.4475 1.34,0.34375 1.5625,1.125 2.68375,0.895 4.255,3.0125 6.9375,3.90625 0.55875,1.00625 2.55625,0.65375 3.5625,1.4375 2.45875,1.78875 6.04625,1.90625 8.28125,4.03125 3.35375,1.22875 6.3925,2.9175 9.96875,3.8125 0.56,0.4475 1.08875,0.67375 1.3125,1.34375 2.34625,1.1175 4.70875,2.22875 7.28125,3.125 1.005,-0.4475 2.0025,0.5625 3.34375,0.5625 2.3475,0.44625 4.70125,1.31625 6.9375,1.875 0.89375,1.11875 2.8075,0.3375 3.8125,1.34375 0.1125,-1.11875 -1.57625,-0.5425 -1.6875,-1.4375 1.45375,-0.22375 3.68125,-1.5824 4.6875,0.0937 2.3475,0.22375 5.0325,1.78625 7.15625,0.78125 0.67125,1.34125 1.90375,-0.105 2.6875,1.125 l 0,-0.3125 c -0.1125,-0.22375 0.33875,-0.25 0.5625,-0.25 0.22375,0.1125 0.0138,0.33875 0.125,0.5625 0.895,-0.1125 1.7625,-0.8751 2.65625,-0.0937 0.4475,0.1125 0.1225,0.88 0.90625,0.65625 0,-1.1175 1.665,-0.205 2,-0.875 1.79,0.89375 3.23875,-0.33625 5.25,0 0.6725,0 1.36125,-0.92125 2.03125,-0.25 0.67125,-0.1125 1.57125,0.22875 1.90625,-0.21875 0.56,-0.56 1.7725,-0.11625 2.21875,0.21875 0.1125,-1.11875 1.58375,-0.11 2.03125,-0.78125 0.67125,0.67125 1.56625,-0.22875 2.125,0.21875 0.335,-0.1125 1.2275,-0.4475 1.5625,0 0,-1.00625 1.32125,-0.11 1.65625,-0.78125 1.56375,0.55875 1.92125,-1.76 3.375,-0.53125 0,-0.11125 -0.1299,-0.45125 0.0937,-0.5625 0.55875,-0.2225 0.57125,0.45125 0.90625,0.5625 1.23,0.11125 2.3425,-0.11125 3.125,-0.78125 3.57625,0 6.49,-1.37125 9.84375,-1.59375 1.565,-1.23 4.685,-0.8975 6.25,-1.34375 2.46,-0.55875 6.38375,-1.87125 9.625,-1.3125 -0.1125,-0.89375 1.125,-0.22625 1.125,-0.5625 1.34,-0.2225 2.22625,-1.12875 3.34375,-1.6875 0.7825,-0.78125 2.795,-0.56 2.90625,-2.125 1.00625,1.00625 1.1275,-0.7775 2.46875,-0.21875 0.22375,-0.895 1.45125,-0.56 1.5625,-1.34375 0.895,0.67125 1.65,-0.2325 2.65625,-0.34375 0.22375,0.67 0.89625,0.005 1.34375,-0.21875 -0.22375,-1.78875 1.69625,-0.115 2.03125,-1.34375 l -0.5625,-0.4375 c 0.67,-0.11125 1.77125,-0.22875 2.21875,0.21875 1.00625,-1.11875 1.68125,-0.22625 2.6875,-1.34375 1.4525,0 1.92,-1.125 3.375,-1.125 2.01125,-1.34 4.1125,-2.6575 6.125,-4 0.895,-1.7875 3.26625,-1.91125 3.9375,-3.8125 2.3475,-0.67125 3.78625,-2.465 5.6875,-4.03125 1.67625,-1.005 3.4625,-2.13 4.46875,-4.03125 3.2425,-2.45875 5.37375,-5.36125 8.28125,-8.15625 2.23625,-2.23625 3.47,-5.4775 5.59375,-7.9375 -0.4475,-1.1175 0.64625,-1.2225 1.09375,-1.78125 -0.22375,-1.56625 1.25375,-1.575 1.8125,-2.46875 0.335,-1.9 2.1025,-2.56875 2.4375,-4.46875 2.01125,-3.01875 3.475,-6.5875 5.375,-9.71875 0.335,-2.34625 2.69,-5.14375 1.125,-7.15625 -1.3425,0 -1.55875,0.99375 -1.78125,2 -1.34125,2.90625 -3.2525,5.505 -4.59375,8.1875 -2.46,3.35375 -4.13875,7.03375 -6.375,10.5 -2.4575,3.24125 -4.905,6.58 -7.8125,9.375 -0.55875,1.3425 -2.0125,2.0125 -2.90625,2.90625 -2.125,1.34125 -3.46375,4.16 -5.8125,4.71875 0,-0.33625 -0.005,-0.79375 0.21875,-0.90625 1.00625,-1.9 3.4725,-2.5775 4.03125,-4.8125 -0.78125,0.22375 -1.1325,1.34375 -2.25,1.34375 -0.335,1.67625 -2.56625,1.34125 -3.125,2.90625 -0.55875,0.55875 -1.00375,-0.8875 -1.5625,-1 -0.55875,0.56 -1.35625,0.905 -1.46875,1.6875 -3.68875,2.6825 -6.695,6.14375 -10.71875,8.15625 -0.22375,1.34125 -2.00875,0.645 -2.34375,1.875 -1.56625,0.78375 -3.015,1.6825 -4.46875,2.6875 -1.67625,1.00625 -3.69375,1.68625 -5.59375,2.46875 -0.55875,1.34125 -2.57375,0.66875 -3.46875,1.5625 0.1125,-0.4475 -0.7775,-0.20875 -0.21875,-0.65625 0.7825,-0.2225 1.44375,-0.67375 2.5625,-0.5625 0,-0.67 -0.12,-1.1275 -0.34375,-1.6875 0.33625,-0.2225 0.455,-0.7675 1.125,-0.65625 0,0 0.125,0.10625 0.125,0.21875 l 0.65625,-0.21875 c 0.1125,-0.89375 1.6825,-0.8075 1.90625,-1.8125 1.00625,-0.895 2.68625,-0.88125 3.46875,-2 0.22375,-1.34 2.21875,-0.45375 2.21875,-1.90625 1.45375,-1.23 3.485,-1.565 4.9375,-2.90625 1.90125,0.22375 2.105,-1.90125 3.78125,-2.125 0.67125,-1.23 1.78875,-1.905 2.90625,-2.6875 1.90125,0.7825 1.9225,-1.34375 3.375,-1.34375 0.335,-1.565 2.11,-1.31625 2.78125,-2.65625 l -1.34375,0.0937 c -0.55875,1.22875 -2.11,0.78875 -2.78125,1.90625 -2.46,0.7825 -4.1575,2.57 -6.28125,3.6875 -1.23,1.56625 -3.68625,1.35 -4.46875,3.25 -1.90125,-0.67125 -1.33625,1.90375 -3.125,1.34375 -2.68375,2.125 -6.03125,3.2225 -8.15625,5.90625 -1.4525,0.335 -2.01,1.45125 -3.6875,1.5625 -1.005,1.23125 -1.88625,2.02 -2.78125,3.25 -1.1175,-0.89375 -1.47125,0.5675 -2.8125,0.34375 -0.67125,0.335 -1.665,0.2175 -2,1 -1.00625,0.1125 -2.015,0.45375 -2.6875,1.125 -1.4525,0.11125 -2.9075,2.01375 -4.25,0.5625 0.4475,-0.895 2.01625,-0.12875 2.6875,-0.6875 0.55875,-2.0125 3.23875,-1.45875 4.46875,-2.6875 l -0.21875,-0.65625 c -0.4475,0.55875 -1.8075,-0.12625 -2.03125,0.65625 -0.895,0.11125 -2.11625,0.23625 -2.5625,0.125 -1.6775,0.11125 -3.695,-0.2375 -4.8125,-0.125 -0.7825,-0.55875 0.3525,-0.87125 0.6875,-1.09375 1.1175,-2.125 4.03,-2.12625 4.8125,-4.25 l 1,0.4375 c 0.4475,-0.7825 2.005,-0.3275 1.78125,-1.78125 0.55875,-0.7825 1.77875,-0.79 2.5625,-1.125 1.565,0 2.46625,-1.01375 4.03125,-1.125 1.00625,-0.895 3.0075,-0.8725 3.34375,-2.4375 L 540.5625,552.09375 537.90625,554 c -1.45375,0.22375 -2.9125,0.45 -4.03125,1.34375 -2.3475,0.1125 -4.36875,0.66875 -6.15625,1.5625 C 525.93,556.235 525.715,558.3325 524.375,557.4375 l 0,0.125 c -0.4475,0 -0.24,0.79125 -0.6875,0.34375 l 0,-0.125 c -1.565,0.4475 -3.21625,1.00375 -4.78125,1.5625 C 517.34,558.785 517.22875,560.2375 516,560.125 c -1.67625,0.33625 -3.355,0.5575 -5.03125,0.78125 -1.79,0.895 -3.585,1.79125 -6.15625,1.34375 -1.9,0.22375 -3.345,0.78625 -5.46875,0.5625 -3.2425,0.11125 -5.045,0.55875 -8.0625,0 -0.7825,-0.335 -0.89625,0.7825 -1.34375,0 l -1,0 c -2.5725,-0.4475 -5.80375,-0.115 -8.375,-0.5625 -1.34125,-0.22375 -1.68125,0.22875 -2.6875,-0.21875 -0.4475,0.1125 -1.23125,-0.22875 -1.34375,0.21875 -1.1175,0.335 -1.68625,-0.325 -2.46875,-0.4375 -0.335,-0.22375 -0.77625,0.67125 -1,0 -1.565,0.67125 -1.675,-1.4625 -2.90625,-0.34375 -1.4525,-0.67125 -3.70375,-0.8925 -5.15625,-0.78125 -2.125,-0.2225 -3.02375,-2.01 -5.59375,-1.5625 -0.33625,-0.7825 -1.7725,-0.003 -1.4375,-1.34375 -1.23,0.4475 -0.995,-0.9875 -2,-0.875 l 0,0.21875 c -0.56,-0.67125 -2.1425,-0.4675 -2.8125,-1.25 -1.565,-0.335 -3.47,-0.31125 -4.8125,-1.09375 -1.9,-0.22375 -2.005,-0.5575 -3.90625,-0.78125 -0.7825,-0.56 -2.235,-1.005 -2.90625,-0.78125 -2.6825,-1.565 -6.15,-1.80375 -7.9375,-4.375 -1.34125,-0.11125 -1.7925,-1.2225 -2.6875,-1.78125 -1.4525,0.2225 -0.98375,-1.67875 -2.4375,-1.34375 -1.23,-1.565 -2.685,-2.67625 -4.25,-3.90625 -0.7825,-1.00625 -1.68625,-1.68625 -2.46875,-2.46875 1.11875,-1.1175 2.46625,-1.8975 4.03125,-2.34375 1.22875,-1.34125 2.9975,-1.79375 4.5625,-2.6875 0.55875,-0.4475 1.03,-1.795 1.8125,-1.125 -0.11125,-1.4525 1.9025,-0.3325 2.125,-1.5625 2.0125,-0.335 4.11375,-0.79125 5.34375,-2.46875 0.7825,-0.4475 2.2325,-0.0838 2.34375,-1.3125 1.4525,0.55875 1.14,-1.34 2.59375,-0.78125 l 0,-0.34375 c 0.55875,-0.1125 1.0975,-1.02875 1.65625,-0.46875 l 0.34375,-0.875 c 1.11875,0.4475 1.12875,1.68125 1.6875,2.6875 1.67625,-0.22375 2.895,-1.24375 4.125,-2.25 2.45875,-1.00625 4.36625,-2.77875 6.9375,-3.5625 0.67125,-0.4475 0.8825,-1.59 2,-1.03125 L 461,521.78125 c -0.33625,0.33625 -1.03125,0.45875 -1.03125,0.90625 0.11125,0 0.2325,0.1075 0.34375,0.21875 0.895,-0.335 2.02875,-1.57375 2.8125,-2.46875 -0.225,0 -0.45,0.1299 -0.5625,-0.0937 0.78375,0 0.435,-1.125 1.21875,-1.125 1.7875,-1.00625 3.685,-3.465 6.03125,-2.125 l 0.21875,-0.65625 c -0.11125,0 -0.45125,0.0975 -0.5625,-0.125 -0.335,-1.1175 0.80375,-1.00875 1.25,-1.34375 1.90125,-0.895 3.3475,-2.34875 6.03125,-2.125 0.335,-0.55875 0.325,-1.54375 1.21875,-1.65625 1.11875,0.22375 1.4725,-0.89875 2.8125,-0.5625 l 0,-0.21875 c 1.78875,-1.45375 4.56,-1.48 6.125,-3.15625 -0.895,-1.565 -1.87375,-3.00625 -2.65625,-4.90625 -1.23,-0.67125 -0.69875,-2.69875 -1.59375,-3.59375 -0.89375,-1.565 -1.98625,-3.335 -2.65625,-5.125 -1.90125,-2.4575 -3.715,-4.48375 -6.0625,-6.71875 z m 133.34375,6.65625 c -0.096,0.006 -0.20078,0.0347 -0.3125,0.0625 -1.22875,0.7825 -2.91125,1.44 -2.6875,3.5625 -0.55875,1.90125 -0.775,4.02875 -1.78125,5.59375 0.7825,0.89375 -1.1175,1.245 0,2.25 0.7825,0.55875 1.46125,0.79 2.46875,1.125 1.34125,-0.89375 1.3525,-2.48375 1.6875,-3.9375 0.22375,-1.4525 1.4525,-2.22625 2.125,-3.34375 0.335,-1.23 -0.78375,-1.79375 0,-2.6875 -0.89625,-0.7825 0.65255,-1.32875 0.0937,-2 -0.58734,-0.19469 -0.92147,-0.66407 -1.59375,-0.625 z m -171.4375,14.03125 c -0.4475,0.22375 -1.0225,0.5575 -1.46875,0.78125 -1.34125,1.565 -3.47125,2.2475 -4.8125,3.8125 -2.79375,1.005 -5.4725,2.11875 -8.15625,3.125 -0.89375,2.235 1.36,1.33875 2.03125,2.34375 2.3475,-1.005 4.13875,-2.35 6.375,-3.46875 0.67125,-1.565 3.34375,-0.87625 3.34375,-3 1.67625,0.1125 1.67125,-1.57 3.125,-1.90625 0.55875,-0.44625 0.1225,-1.35125 -0.4375,-1.6875 z m 37.3125,1.34375 c 0.22375,0 0.125,0.4325 0.125,0.65625 l -0.4375,0 0.3125,-0.65625 z m -2.125,1 c 0.33625,0.22375 0.5725,0.77625 0.125,1 l -1,0 0.875,-1 z m -2,1.6875 c -0.11125,0.55875 -0.54875,0.76875 -1.21875,0.65625 0,-0.67 0.88375,-0.4325 1.21875,-0.65625 z m -1.75,0.9375 c 0.12787,0.007 0.25234,0.0206 0.40625,0.0625 -0.78375,1.23 -2.78,1.00125 -3.5625,2.34375 -0.67125,0.335 -1.4675,0.5575 -2.25,0.78125 l 0,-0.65625 c 1.78875,0.22375 2.14,-1.45125 3.59375,-1.5625 0,0.11125 0.1075,0.1075 0.21875,0.21875 0.39156,-0.48891 0.69867,-1.23322 1.59375,-1.1875 z m -6.21875,3.3125 c 0.11016,-0.0227 0.235,-0.0278 0.375,0 -0.22375,0.22375 -0.45875,0.76875 -0.90625,0.65625 0,-0.33469 0.20078,-0.58805 0.53125,-0.65625 z m -1.875,1.125 0.46875,0 -0.34375,0.3125 -0.125,-0.3125 z m 5.375,0.21875 0.125,0.4375 0,0.21875 -0.125,-0.65625 z m -1.125,3 0.6875,0 -0.6875,0 z m -16.90625,7.6875 c -0.1557,-7.9e-4 -0.3217,0.0141 -0.46875,0.0312 -2.05875,0.24013 -3.23187,1.83187 -5.1875,2.125 -2.0125,0 -1.69,2.13625 -3.03125,3.03125 -0.89375,-1.1175 -0.77,1.0025 -2,0.21875 -0.67,1.23125 -2.46,1.675 -2.125,3.6875 1.34125,-0.22375 0.55125,1.675 1.78125,1.5625 0,-0.4475 0.665,-0.10625 1,-0.21875 0,-0.22375 -0.0975,-0.45 0.125,-0.5625 0.33625,-0.11125 0.54375,0.10625 0.65625,0.21875 1.4525,-0.4475 2.34625,-1.235 3.6875,-1.90625 1.1175,0.1125 1.23125,-1.0125 2.125,-1.125 0.4475,-0.335 1.1375,-0.995 2.03125,-1.21875 0.7825,-1.565 2.65625,-2.5625 2.65625,-4.6875 L 447,527.9375 c -0.16765,-0.014 -0.31305,-0.0305 -0.46875,-0.0312 z M 573.375,539.6875 c -0.36622,0.11697 -0.20369,0.82869 -0.375,1 0.33625,0 0.875,-0.46 0.875,-0.90625 -0.12578,-0.0559 -0.22492,-0.082 -0.3125,-0.0937 -0.0766,-0.0104 -0.13518,-0.0167 -0.1875,0 z m -1.9375,1.9375 c -0.30363,0.0524 -0.51156,0.41438 -0.34375,0.75 0.44625,0.11125 0.76875,-0.24 0.65625,-0.6875 -0.11156,-0.0559 -0.21129,-0.08 -0.3125,-0.0625 z m -17.59375,2.5 c -1.51814,0.0788 -1.85914,1.75906 -3.3125,2.03125 -0.55875,2.12375 -3.035,2.345 -3.59375,4.46875 1.00625,1.00625 1.115,-0.535 1.5625,-1.09375 0.11125,-0.22375 0.5575,-0.34875 0.78125,-0.125 0.4475,1.11875 1.47625,2.005 2.59375,1 1.00625,-1.56625 3.3575,-2.55875 3.46875,-4.90625 l -0.21875,-1.125 c -0.5032,-0.18867 -0.93091,-0.26819 -1.28125,-0.25 z m -179.375,3.15625 0.34375,0 c -0.335,0.7825 -1.36,1.2225 -2.03125,1.78125 -1.005,1.6775 -3.90125,0.9 -4.90625,2.6875 -1.11875,-0.335 -1.13875,0.785 -1.25,1.34375 -0.89375,0.22375 -0.98125,1.12 -1.875,1.34375 0.2225,-0.4475 0.30875,-0.90125 -0.25,-1.125 -0.55875,0.33625 -1.44625,0.3425 -1.78125,1.125 l -0.875,0 c 0.22375,-0.67125 0.54375,-1.2225 1.4375,-1 1.45375,-0.89375 3.24375,-1.34625 4.25,-2.6875 1.005,-1.23 3.25375,-0.7775 3.8125,-2.34375 1.4525,0.22375 2.3425,-0.45375 3.125,-1.125 z m 130.125,0 c -0.4475,0.55875 -1.46625,0.21875 -2.25,0.21875 0.1125,0.89375 -0.3325,2.00875 0.5625,2.34375 0.7825,0.67125 1.785,-0.004 2.34375,-0.5625 -0.335,-0.67125 0.5725,-2.2225 -0.65625,-2 z m -5.0625,3.28125 c -0.89422,-0.0139 -1.8175,0.19625 -2.65625,0.53125 -1.7875,-1.00625 -1.35875,1.7775 -2.8125,0.4375 -0.44625,0.78125 -1.665,0.67375 -2,1.34375 l -0.4375,-0.21875 c -1.23,0.44625 0,1.5475 0,2.21875 1.23,-0.1125 2.89125,0.45625 3.5625,-0.4375 2.235,1.1175 4.6875,-0.89875 7.59375,-0.5625 l 0,-0.4375 c -0.55875,-0.11125 -0.21875,-0.8975 -0.21875,-1.34375 l -0.3125,0 c -0.4475,0 -0.13875,-0.5575 -0.25,-0.78125 -0.72688,-0.50312 -1.57453,-0.73609 -2.46875,-0.75 z m 70.5625,1.3125 c 0.1125,0.44625 -0.46375,0.65125 -0.6875,0.875 -0.1125,-0.4475 0.46375,-0.54 0.6875,-0.875 z m -209.03125,2.65625 0.0937,0.125 0,0.21875 -0.0937,-0.34375 z m -11.75,1.03125 c -0.30416,0.0943 -0.51156,0.405 -0.34375,0.65625 0.335,0.22375 0.8,-0.20875 0.6875,-0.65625 -0.11187,-0.0278 -0.24236,-0.0314 -0.34375,0 z m 12.1875,0.3125 0.4375,0 -0.21875,0.34375 L 361.5,555.875 z m -14.4375,1.03125 0.34375,0.65625 0.34375,-0.34375 -0.6875,-0.3125 z m 178.78125,7.96875 c 0.0932,0.005 0.20063,0.0345 0.3125,0.0625 -0.33625,1.11875 -2.12875,0.66875 -2.6875,1.5625 -2.0125,0.1125 -3.44875,1.00375 -5.125,1.5625 -0.895,0 -1.905,1.1225 -2.6875,0.5625 -0.67,0.1125 -1.235,1.00125 -1.90625,0.21875 -2.12375,0.67125 -4.82375,1.03 -6.5,1.8125 -0.78125,0.2225 -2.21875,0.0888 -3,0.3125 -1.00625,0.1125 -2.36125,-0.215 -3.03125,0.34375 l -0.65625,-0.34375 c -0.2225,-1.23 1.2275,-0.65625 1.5625,-1.4375 1.11875,-0.78375 3.13125,-0.45 4.25,-1.34375 3.12875,0.335 5.35875,-0.44875 7.59375,-1.34375 3.80125,0 6.14,-2.12625 10.5,-1.34375 0.41906,-0.0834 0.6583,-0.49414 1.125,-0.59375 0.0778,-0.0166 0.15679,-0.0362 0.25,-0.0312 z m 23.78125,3.875 0.34375,0 -0.21875,0.65625 -0.125,-0.65625 z m -40,3.78125 1,0 -1.25,0.90625 c -0.67,-0.33625 -0.085,-0.68125 0.25,-0.90625 z m -9.0625,2.375 0.65625,0 -0.3125,1 c -0.4475,-0.55875 -1.6775,-0.004 -2.125,-0.5625 0,-0.33375 1.44625,0.12125 1.78125,-0.4375 z m -213.0625,14.75 0.4375,0 -0.4375,0 z m 0.5625,1.34375 0,0.65625 c 0.11125,0.1125 0.45,-0.1 0.5625,0.125 -0.1125,1.565 -2.02125,1.1 -2.46875,2.21875 -0.11125,0.44625 -1.005,0.23625 -0.78125,0.90625 -0.895,-0.11125 -1.36125,0.8763 -2.03125,0.0937 -0.7825,0.335 -0.325,1.59125 -0.4375,2.375 0.55875,0.44625 1.56125,-0.2275 2.34375,-0.5625 0.22375,0.1125 0.0125,0.3375 0.125,0.5625 l 0.34375,0 c 0.11125,-1.79 1.2225,0.21625 1.78125,-1.125 1.67625,-0.225 2.4475,-1.68125 4.125,-1.90625 1.22875,-0.78125 -0.004,-1.78125 -0.5625,-2.5625 -0.895,-0.33625 -1.10625,-0.4475 -2,0 -0.56,0 -0.44125,-0.78125 -1,-0.78125 z m 5.03125,1.875 0.21875,0.46875 0.21875,-0.46875 -0.4375,0 z m -17.125,5.15625 c -0.895,0.4475 -0.56,1.6775 -1.34375,2.125 0.4475,0.335 1.23125,0.65625 1.34375,1.4375 l 1.34375,0 c 1.34125,0.4475 1.25,-1.10625 1.25,-2 -1.1175,-0.33625 -1.47625,-1.45125 -2.59375,-1.5625 z m -6.4375,1.84375 c -0.26717,0.0157 -0.53312,0.11344 -0.8125,0.28125 0.2225,1.23 -1.79625,0.43625 -1.125,2 1.22875,-0.33375 3.575,0.78875 3.6875,-1 -0.25219,-0.75469 -0.9485,-1.32848 -1.75,-1.28125 z"
       id="path126"
       inkscape:connector-curvature="0" />
  </g>
</svg>
