<?xml version="1.0" encoding="UTF-8" standalone="no"?>
<!-- Created with Inkscape (http://www.inkscape.org/) -->

<svg
   xmlns:dc="http://purl.org/dc/elements/1.1/"
   xmlns:cc="http://creativecommons.org/ns#"
   xmlns:rdf="http://www.w3.org/1999/02/22-rdf-syntax-ns#"
   xmlns:svg="http://www.w3.org/2000/svg"
   xmlns="http://www.w3.org/2000/svg"
   xmlns:sodipodi="http://sodipodi.sourceforge.net/DTD/sodipodi-0.dtd"
   xmlns:inkscape="http://www.inkscape.org/namespaces/inkscape"
   width="445.78"
   height="445.78"
   id="svg4953"
   version="1.1"
   inkscape:version="0.48.2 r9819"
   sodipodi:docname="Faction-BoneShadows.svg">
  <defs
     id="defs4955" />
  <sodipodi:namedview
     id="base"
     pagecolor="#ffffff"
     bordercolor="#666666"
     borderopacity="1.0"
     inkscape:pageopacity="0.0"
     inkscape:pageshadow="2"
     inkscape:zoom="0.98994949"
     inkscape:cx="50.976735"
     inkscape:cy="168.49378"
     inkscape:document-units="px"
     inkscape:current-layer="layer1"
     showgrid="false"
     fit-margin-top="0"
     fit-margin-left="0"
     fit-margin-right="0"
     fit-margin-bottom="0"
     inkscape:window-width="1606"
     inkscape:window-height="1029"
     inkscape:window-x="70"
     inkscape:window-y="-4"
     inkscape:window-maximized="1" />
  <metadata
     id="metadata4958">
    <rdf:RDF>
      <cc:Work
         rdf:about="">
        <dc:format>image/svg+xml</dc:format>
        <dc:type
           rdf:resource="http://purl.org/dc/dcmitype/StillImage" />
      </cc:Work>
    </rdf:RDF>
  </metadata>
  <g
     inkscape:label="Layer 1"
     inkscape:groupmode="layer"
     id="layer1"
     transform="translate(-291.46026,-315.7174)">
    <g
       id="g3013"
       transform="translate(58,0)">
      <path
         d="m 540.33975,325.14199 c 0.56125,1.26375 0.8425,2.53 0.7025,4.21625 -0.7025,0.84375 -1.82875,1.265 -3.23375,0.98375 -0.7025,-0.42125 -1.12375,-1.9675 -2.53,-1.125 l -0.56125,-0.14 c 1.26375,-1.265 -0.84375,-1.8275 -0.28125,-3.2325 -0.84375,-0.7025 -1.12375,-1.9675 -0.98375,-3.37375 0,-0.84375 1.68625,0.28125 1.265,-0.98375 1.8275,1.405 3.51375,2.67125 5.6225,3.655"
         style="fill:#000000;fill-opacity:1;fill-rule:nonzero;stroke:none"
         id="path130"
         inkscape:connector-curvature="0" />
      <path
         d="m 442.231,323.45574 c 0,1.405 -1.265,1.68625 -2.53,1.545 -0.84375,0.14125 -1.265,-0.7025 -1.68625,-1.265 -0.4225,-0.84375 0.56125,-0.84375 0.9825,-1.265 0.70375,0.84375 2.81125,-0.28125 3.23375,0.985"
         style="fill:#000000;fill-opacity:1;fill-rule:nonzero;stroke:none"
         id="path132"
         inkscape:connector-curvature="0" />
      <path
         d="m 417.91475,324.29824 c 0.8425,0.98375 -0.28125,2.1075 -0.4225,3.0925 -1.54625,1.12375 0.4225,2.81125 -1.68625,3.65375 -1.68625,0.4225 -2.81125,0.84375 -4.21625,-0.28125 -1.8275,-1.12375 0.7025,-1.82625 0.42125,-3.2325 l 0.42125,0 c 1.125,-1.54625 2.39,-5.48125 5.4825,-3.2325"
         style="fill:#000000;fill-opacity:1;fill-rule:nonzero;stroke:none"
         id="path134"
         inkscape:connector-curvature="0" />
      <path
         d="m 521.0835,317.83324 c 2.81125,2.81125 4.6375,6.04375 6.74625,8.995 1.265,1.9675 1.545,4.63875 3.795,5.7625 -0.7025,1.40625 1.12375,0.5625 0.98375,1.68625 1.68625,2.9525 1.9675,6.8875 3.65375,9.69875 -0.8425,1.6875 1.6875,1.6875 0.4225,2.9525 0.98375,1.405 0.84375,2.67 0.28125,4.35625 -0.985,0.4225 -0.84375,1.6875 -1.40625,2.39 -1.265,0.5625 -1.12375,1.9675 -2.53,2.38875 -0.42125,1.125 -2.52875,0.2825 -2.52875,1.96875 -1.12625,-0.14 -2.25,0.14 -2.53125,0.98375 0.14125,-0.14125 0,-0.14125 -0.14,-0.28125 -4.0775,0.84375 -6.60625,3.795 -9.4175,6.325 -0.70375,1.68625 -2.81125,2.24875 -4.2175,3.37375 -0.8425,1.265 -3.51375,0.42125 -3.3725,2.24875 l 1.40625,-0.14 c -3.51375,2.38875 -7.0275,4.91875 -10.4025,7.44875 -0.98375,-0.28125 -1.265,0.42125 -1.9675,0.5625 l 0,0.42125 c -0.9825,0.14 -2.10875,0 -1.8275,-1.265 2.25,-3.65375 7.0275,-4.92 9.2775,-8.71375 1.265,-0.4225 1.54625,-1.82875 2.53,-2.67125 2.53,-2.53 4.35625,-5.4825 6.60625,-8.1525 0.28,-0.7025 0.9825,-1.405 0.9825,-2.10875 -2.52875,0 -2.81125,2.53125 -4.91875,2.9525 -0.8425,1.54625 -2.95125,1.54625 -3.51375,3.3725 -1.8275,1.265 -3.65375,2.9525 -4.77875,4.63875 -2.53,0.14 -2.67125,3.0925 -4.91875,3.795 -0.28125,1.8275 -2.53,1.54625 -2.81125,3.37375 -1.6875,0.5625 -2.10875,2.67125 -3.51375,3.37375 0,1.12375 -0.70375,1.405 -1.40625,1.68625 -0.28125,0.98375 -1.12375,1.405 -1.68625,2.10875 l 0,-0.28125 c -0.4225,-0.4225 -0.56375,0.42125 -0.84375,0.5625 -1.405,2.67 -5.2,2.38875 -5.34125,6.04375 0.98375,0.56125 0.84375,1.68625 1.265,2.53 0.14,0.5625 -0.14,1.265 0.28125,1.68625 3.51375,-0.7025 3.795,-5.06 6.88625,-5.48125 0.985,1.405 -0.42125,2.52875 -1.26375,3.3725 -0.5625,0.28125 -0.7025,1.125 -1.12375,1.6875 -0.845,0.7025 -0.985,2.38875 -2.53125,2.24875 -0.14,0.7025 -0.42125,1.12375 -0.98375,1.12375 0.5625,0.70375 -0.5625,3.0925 0.84375,3.515 -0.985,1.12375 0.28125,1.9675 0.14,3.3725 0.7025,-0.7025 1.405,-1.265 1.68625,-2.38875 0.985,-0.14125 1.40625,0.28 1.8275,0.8425 0.14125,2.10875 -2.95125,1.125 -2.38875,3.655 -1.68625,-0.14125 -0.7025,2.1075 -0.98375,3.0925 0.7025,0.98375 0,2.95125 0.7025,3.935 l 0,3.0925 c -4.6375,0.28125 -9.5575,0.98375 -13.77375,0.7025 -3.79625,-0.56125 -8.29375,0.28125 -10.54375,-2.67 -5.6225,-0.98375 -9.27625,-4.63875 -14.335,-6.46625 -2.9525,0.5625 -3.79625,-2.1075 -6.88875,-1.68625 -1.12375,0.14 -0.8425,-1.40625 -2.2475,-0.98375 0.56125,-0.5625 1.12375,-0.84375 1.405,-1.6875 -1.265,-2.52875 -1.54625,-5.90375 -3.65375,-7.73 -0.985,-1.6875 -2.53125,-2.81125 -2.39,-5.20125 -0.5625,-0.8425 -1.9675,-0.8425 -1.40625,-2.38875 -1.9675,-2.10875 -4.21625,-4.21625 -6.88625,-5.20125 -1.125,0.28125 -1.54625,-0.42125 -2.39,-0.7025 -0.98375,1.265 0.5625,1.9675 0.98375,2.81125 l 0.42125,0 c 0.7025,1.54625 -0.14,2.53 -0.42125,3.93625 -0.98375,0 -2.24875,1.545 -2.95125,0 -3.2325,-0.84375 -3.655,-4.49875 -5.2,-7.0275 -1.6875,-2.25 -3.655,-4.49875 -5.76375,-6.46625 -3.51375,-0.5625 -4.3575,-4.21625 -5.7625,-6.8875 0.5625,-1.125 -0.42125,-2.53 -0.28125,-3.93625 -0.8425,-5.34 -0.14,-11.94625 0.5625,-16.30375 1.9675,-0.7025 1.8275,-3.51375 3.935,-3.795 1.40625,-3.655 4.3575,-5.6225 7.31,-8.0125 1.68625,-0.14 2.1075,-2.38875 4.21625,-2.1075 0.42125,-1.125 2.53,-0.42125 3.09125,-1.265 0.5625,-0.28125 1.125,0.84375 1.40625,0 1.405,0 2.67,0.28125 4.21625,0.7025 2.24875,0.28125 4.63875,0.7025 6.8875,0.98375 3.795,0.5625 5.6225,0.98375 8.99625,2.39 2.1075,2.24875 4.91875,4.075 7.44875,5.90375 1.9675,0 1.54625,2.24875 2.81125,3.09125 2.24875,0.4225 1.8275,3.23375 3.51375,4.07625 1.8275,1.54625 3.0925,3.655 5.48125,4.77875 0.84375,1.54625 2.1075,2.67125 3.93625,2.9525 0.7025,-1.54625 2.39,-2.24875 3.3725,-3.37375 2.25,-2.81125 4.78,-5.2 7.8725,-7.0275 1.82625,-2.24875 4.4975,-3.795 6.18375,-6.185 -0.70375,-0.5625 -2.10875,-0.28125 -1.9675,-1.54625 -0.14125,-0.7025 0.7025,-1.265 1.12375,-1.68625 2.81125,-0.28125 3.515,-3.23375 5.6225,-4.3575 1.26625,-1.12375 2.67125,-3.3725 4.78,-2.39 1.96625,-0.42125 2.24875,-2.38875 4.21625,-2.95125 0,-0.5625 0.7025,-0.7025 1.125,-1.12375 0.42125,-0.98375 2.38875,-0.84375 2.66875,-1.96875 2.39,-1.26375 5.6225,-1.9675 7.45125,-3.0925 1.12375,0.985 1.96625,-0.42125 3.3725,-0.14 -0.985,-0.7025 -0.8425,-2.67 -0.42125,-3.51375 0.5625,-0.8425 1.545,-0.7025 2.52875,-0.7025 1.5475,0.42125 1.26625,0.28125 2.67125,0.98375 l 0.70375,1.125 z m -3.79625,0.28 c -0.14,2.39 2.53,2.81125 4.2175,3.51375 -1.54625,-0.8425 -0.985,-3.65375 -3.2325,-3.51375 -0.42125,0.985 -0.42125,-0.56125 -0.985,0 m -29.51625,20.24 -0.5625,0 0.5625,0.4225 0,-0.4225 z m 18.975,20.8025 c -1.265,1.265 -3.37375,1.40625 -4.4975,2.81125 -0.4225,0.28125 -1.40625,0.14125 -1.54625,0.5625 -1.12375,0.42125 -0.98375,1.9675 -2.39,1.6875 l 0,0.42125 c 0,0.56125 -0.5625,0.28125 -0.8425,0.28125 0,1.68625 -2.53125,0.7025 -2.39,2.38875 -2.38875,0.28125 -2.38875,3.51375 -4.77875,3.655 -2.67,2.81125 -5.34125,5.34 -7.87125,8.15125 0.42125,0.985 0.56125,2.10875 1.265,2.81125 2.81,-2.2475 5.34125,-4.6375 8.01125,-7.30875 0.7025,-0.7025 0.84375,-1.405 1.6875,-1.68625 0.28125,-1.54625 1.68625,-1.265 2.2475,-2.38875 1.96875,-0.985 2.53125,-3.0925 4.35875,-4.3575 1.405,-0.28125 1.545,-2.10875 3.2325,-2.10875 0.98375,-2.10875 3.37375,-2.67 4.35625,-4.92 l -0.8425,0 z m 9.13625,5.90375 c 0.98375,-0.14 1.405,-1.12375 2.24875,-1.8275 -1.265,-0.7025 -1.40625,1.265 -2.24875,1.8275"
         style="fill:#000000;fill-opacity:1;fill-rule:nonzero;stroke:none"
         id="path136"
         inkscape:connector-curvature="0" />
      <path
         d="m 526.5635,374.33574 c -0.42125,0.84375 -0.42125,1.8275 -1.545,1.9675 -1.26625,-0.14 -1.6875,-0.9825 -2.10875,-1.9675 0,-0.7025 0,-1.405 0.7025,-1.68625 1.96875,-0.42125 2.10875,0.98375 2.95125,1.68625"
         style="fill:#000000;fill-opacity:1;fill-rule:nonzero;stroke:none"
         id="path138"
         inkscape:connector-curvature="0" />
      <path
         d="m 510.681,382.48824 c -0.28125,2.10875 -2.95125,2.24875 -3.3725,4.2175 -1.9675,1.545 -5.06,2.2475 -5.76375,5.05875 -1.405,0.14125 -2.52875,-0.14 -3.2325,-0.9825 -0.98375,-3.23375 3.65375,-3.93625 4.3575,-6.6075 0.7025,-0.56125 1.265,-0.8425 2.24875,-0.7025 2.53,1.6875 3.0925,-1.54625 5.7625,-0.98375"
         style="fill:#000000;fill-opacity:1;fill-rule:nonzero;stroke:none"
         id="path140"
         inkscape:connector-curvature="0" />
      <path
         d="m 418.61725,384.31574 c 0.28125,0.84375 0.84375,1.265 0.5625,2.39 -1.125,0.98375 -2.10875,-0.28125 -3.0925,-0.7025 -0.14125,-0.70375 -1.265,-1.40625 -0.42125,-2.10875 0.98375,-0.84375 2.10875,0 2.95125,0.42125"
         style="fill:#000000;fill-opacity:1;fill-rule:nonzero;stroke:none"
         id="path142"
         inkscape:connector-curvature="0" />
      <path
         d="m 431.68975,392.88949 c -0.14125,1.54625 0.7025,2.10875 0.42125,3.655 -0.70375,0.5625 -1.265,0.7025 -2.25,0.5625 -1.12375,-2.39 -4.77875,-4.77875 -3.09125,-7.87125 2.67,0.14 3.51375,2.24875 4.92,3.65375"
         style="fill:#000000;fill-opacity:1;fill-rule:nonzero;stroke:none"
         id="path144"
         inkscape:connector-curvature="0" />
      <path
         d="m 424.661,399.35574 c 0,0.8425 -1.405,0.7025 -1.54625,0.14 -0.56125,-0.5625 -0.98375,-1.54625 -0.28125,-2.10875 1.6875,-0.42125 0.4225,1.6875 1.8275,1.96875"
         style="fill:#000000;fill-opacity:1;fill-rule:nonzero;stroke:none"
         id="path146"
         inkscape:connector-curvature="0" />
      <path
         d="m 346.65225,359.01574 c 1.9675,3.37375 4.2175,6.465 7.16875,8.995 -0.4225,1.8275 1.8275,0.985 1.9675,2.53125 1.125,0 0.7025,1.405 1.68625,1.545 1.6875,2.39 4.2175,4.63875 6.46625,6.8875 -0.14125,0 -0.28125,0.14 -0.42125,0.14 0.14,0.28125 -0.14125,0.56375 0.28,0.70375 l 0.84375,-0.4225 c 0.14125,1.54625 2.24875,1.265 1.9675,2.9525 1.54625,0.84375 2.39,1.9675 3.37375,3.3725 0.84375,0 1.40625,1.8275 3.0925,1.8275 1.54625,2.67125 5.2,3.93625 6.74625,6.8875 1.265,-0.28125 1.40625,1.54625 2.53,0.5625 1.265,0.14 1.40625,2.53 2.53,1.8275 1.265,1.12375 2.95125,1.26375 3.93625,2.53 1.9675,0.98375 4.4975,1.68625 6.465,2.53 0.70375,-0.70375 1.8275,0.7025 2.67125,-0.14125 0.42125,0.5625 1.405,0.14125 2.1075,0.28125 l 0.28125,-0.28125 c 5.06,-0.14 8.715,1.6875 14.19625,0.98375 0,0.4225 0.4225,0.28125 0.4225,0.70375 3.2325,-0.5625 6.325,0.8425 9.5575,1.265 1.68625,0.42125 3.51375,0.7025 5.34,1.12375 1.82875,0.28125 3.79625,0.7025 5.76375,0.98375 2.81125,-0.7025 3.795,1.125 6.18375,0.985 0.4225,0.42125 2.67125,0.42125 3.51375,1.405 2.67125,-0.28125 3.655,1.8275 5.76375,2.24875 3.51375,0.98375 5.7625,3.795 9.6975,4.07625 0.14,0.56249 0.8425,0.84249 0.985,0.56249 2.66875,0 3.3725,3.51375 6.1825,2.1075 2.81375,-0.7025 3.51625,1.54625 6.3275,0.70375 0.7025,0.56125 2.3875,0.56125 3.09125,0 4.21625,0.28 8.01125,-0.14125 11.525,-0.985 1.6875,0.4225 3.2325,0.7025 4.92,0.985 0,0.28 -0.14,0.56125 0.14125,0.7025 0.7025,-0.7025 1.9675,0.42125 2.53,0.98375 0.56125,2.38875 2.67,3.2325 3.3725,5.62125 0.7025,0.985 1.265,2.10875 1.68625,3.375 -0.28125,3.09125 3.0925,5.05875 4.35875,7.73 1.405,1.68625 2.67,4.07625 5.7625,3.51375 1.9675,1.40625 4.91875,1.40625 7.30875,2.38875 6.74625,-0.9825 9.83875,3.0925 16.0225,3.0925 4.92,1.125 10.12,2.25 14.9,3.93625 1.26375,1.26375 3.65375,1.26375 5.6225,1.68625 3.2325,1.9675 7.0275,3.0925 9.83875,5.6225 2.2475,0.7025 3.795,2.10875 6.04375,2.81125 1.82625,1.265 5.05875,0.56125 6.74625,1.9675 3.0925,-0.14125 4.21625,1.9675 7.0275,2.10875 3.51375,2.81125 8.715,3.795 14.3375,3.795 0.56125,-0.28125 1.12375,0.8425 1.405,0 0.8425,0.42125 2.10875,-0.28125 3.51375,0 l 0,0.14 c 2.10875,-0.28125 5.20125,1.125 7.73125,0.14 l 1.68625,0.985 c -2.67125,4.77875 -5.4825,9.5575 -6.7475,15.32 -1.685,2.24875 -3.3725,4.49875 -5.06,6.46625 -1.68625,-0.14125 -0.7025,2.24875 -2.1075,2.38875 -0.42125,2.39 -1.26625,3.93625 -2.24875,5.90375 -0.14125,0.84375 0.56125,0.7025 -0.14125,1.12375 -1.9675,2.81125 -1.12375,8.29375 -0.8425,11.8075 l -0.14125,0 c 0,7.59 -3.3725,14.05625 -4.92,20.9425 -2.24875,3.2325 -4.21625,7.0275 -6.605,10.12 -0.7025,1.82625 -2.39,3.2325 -4.07625,4.07625 l -0.7025,-0.42125 c 0.7025,-1.68625 1.54625,-3.93625 0.7025,-6.045 0.42125,-2.10875 0,-3.09125 -0.14,-5.34125 0.98375,-3.79375 -2.25,-4.77875 -2.53,-7.58875 l -0.7025,-0.5625 c -3.0925,2.67 -5.20125,6.465 -8.575,8.855 -1.6875,0.98375 -3.0925,2.24875 -4.35625,3.655 0.7025,0.28 0,1.12375 0.14,1.545 0.14125,2.95125 -0.985,4.0775 -0.5625,7.59125 -1.405,0.28 0,2.53 -1.125,2.95125 -0.14,2.67125 -1.685,5.4825 -2.53,8.15125 2.10875,0 3.51375,0.56375 5.34125,0.845 1.125,2.2475 -1.8275,4.35625 -2.67,6.605 -1.405,1.265 -2.53,2.9525 -3.37375,4.63875 -1.6875,0.56125 -0.8425,2.95125 -2.53,3.3725 -1.265,3.0925 -2.1075,6.325 -4.35625,8.43375 0,-0.14 -0.14125,-0.14 -0.14125,-0.28125 -1.125,1.405 -2.67,2.81125 -4.3575,3.37375 -2.1075,0.42125 -2.9525,0.5625 -5.34,0.28125 -2.53125,-1.405 -4.35875,-1.265 -7.02875,-2.53 -3.0925,-1.405 -5.2,-4.07625 -8.1525,-5.90375 l 0,-0.42125 c -3.935,-2.1075 -8.1525,-3.37375 -12.2275,-5.2 -0.7025,0 -1.26625,-0.1425 -1.6875,-0.4225 -2.81125,-0.14125 -6.04375,-0.4225 -8.85375,-0.4225 -0.985,-0.9825 -2.67125,-0.56125 -3.9375,-0.42125 -0.9825,0.28125 -2.3875,-1.12375 -3.65375,-0.14 -0.98375,-0.5625 -2.53,0.42125 -3.795,0.28125 l -6.88625,0 c 0,-0.14125 -0.14125,-0.14125 -0.28125,-0.28125 -0.70375,0.56125 -2.25,-0.84375 -2.9525,-0.28125 -1.125,-1.265 -2.67,0.98375 -3.3725,-0.7025 -5.6225,-0.42125 -11.8075,-0.7025 -16.5875,-0.985 -0.7025,1.125 -2.53,0.1425 -3.51375,0.985 l 0,-0.14 c -0.9825,0.7025 -1.9675,-0.985 -3.09125,0.14 -0.98375,-0.7025 -2.67125,-0.28125 -3.93625,-0.42125 l 0,-0.14125 c -4.3575,0.28125 -8.4325,1.54625 -13.21125,1.54625 -0.70375,1.12375 -0.5625,0 -1.6875,0.28125 -1.9675,0.56125 -3.795,1.9675 -5.7625,1.40625 l -0.42125,0.9825 c -2.81125,1.125 -4.3575,3.23375 -6.7475,4.77875 0,0.70375 -1.26375,0 -1.26375,0.70375 -0.985,2.53 -4.2175,2.95125 -4.92,5.6225 -1.6875,3.0925 -4.63875,5.34 -5.34125,9.135 -2.24875,2.25 0,5.4825 -0.7025,8.855 -1.96875,-0.8425 -3.0925,-2.3875 -4.4975,-3.935 -1.125,-1.26375 -1.8275,-2.53 -3.37375,-3.2325 -5.20125,-7.30875 -11.9475,-12.79125 -19.25625,-17.2875 -1.125,-1.40625 -2.67,-2.10875 -4.3575,-2.95375 -2.10875,-1.545 -3.935,-4.075 -6.74625,-5.05875 -0.28125,-0.98375 -0.98375,-1.6875 -2.10875,-1.96875 -1.125,-2.39 -2.53,-4.7775 -3.655,-7.1675 -0.28125,-0.42125 -0.7025,-1.12375 -0.98375,-1.6875 -0.84375,-3.2325 -2.53,-5.9025 -2.53,-9.69875 -1.405,0 -1.265,1.5475 -2.1075,2.10875 0.56125,2.53125 -0.84375,4.07625 -0.14125,6.46625 -0.5625,0.8425 -0.98375,3.2325 -0.42125,4.49875 -0.7025,2.1075 -0.4225,5.05875 0,7.1675 1.8275,3.2325 1.68625,8.01125 3.935,10.9625 -2.24875,-1.545 -4.3575,-4.21625 -5.90375,-6.74625 -2.2475,-4.35625 -3.935,-9.13625 -6.04375,-13.4925 0,-2.39 -1.405,-3.795 -1.26375,-6.045 -1.265,-0.28 -0.5625,-2.10875 -0.70375,-3.09125 -2.67,-3.23375 -0.7025,-9.4175 -0.98375,-13.2125 1.125,-1.125 -0.84375,-2.25 0.28125,-3.51375 -0.98375,-1.6875 0.5625,-3.0925 0,-5.20125 -0.84375,-0.28125 -0.7025,1.125 -1.125,1.54625 -2.53,0.98375 -3.09125,3.795 -5.48125,4.91875 -0.42125,0.985 -2.10875,1.125 -2.67,2.53125 -1.40625,0 -1.265,1.545 -2.53,1.96625 -2.10875,1.96875 -4.49875,4.0775 -7.0275,5.76375 0,-0.14125 -0.14125,-0.28125 -0.2825,-0.42125 -1.12375,0 -0.42125,1.8275 -1.82625,1.40625 -1.125,1.82625 -3.37375,2.1075 -5.06,3.3725 -2.39,1.54625 -5.48125,2.38875 -8.57375,3.0925 l -0.5625,0 c 1.12375,-1.6875 2.53,-2.81125 3.935,-4.2175 0.84375,-2.1075 3.37375,-2.67125 4.21625,-4.77875 5.3425,-4.4975 6.8875,-11.80625 11.8075,-16.58625 0,-1.12375 1.125,-2.95 1.68625,-4.4975 1.265,-1.68625 1.125,-4.4975 3.0925,-5.7625 0.5625,-2.53 1.40625,-4.91875 1.8275,-7.59 0.14,-1.68625 0.28125,-3.2325 0.42125,-5.06 -1.405,0.7025 -3.2325,1.6875 -4.63875,2.53 -4.21625,1.125 -7.58875,3.23375 -12.50875,3.37375 0.42125,-0.84375 1.8275,-1.125 2.53,-1.8275 5.2,-3.655 8.1525,-9.5575 11.80625,-14.4775 l 0,-0.98375 c 1.265,-0.14125 0.98375,-1.54625 1.54625,-2.38875 1.125,-0.84375 -0.14,-1.26625 0.98375,-2.25 -1.405,-0.42125 -2.81125,0.98375 -4.4975,0.84375 -2.38875,0.28125 -3.655,1.9675 -5.48125,2.95125 l -0.42125,-0.42125 c -0.56375,0.98375 -1.6875,0.98375 -2.53125,1.40625 -1.68625,0.14 -1.82625,-0.2825 -2.95125,0.7025 -0.8425,-0.14125 -2.95125,-0.28125 -3.795,0.42125 -1.125,1.125 -1.9675,-0.5625 -2.81125,0.84375 -2.67,-0.42125 -4.07625,0.98375 -7.16875,0 -2.1075,0.42125 -5.90375,0.98375 -7.1675,-0.42125 10.54125,-1.6875 18.55375,-7.8725 23.61375,-16.305 3.65375,-4.49875 6.74625,-9.5575 10.11875,-14.3375 0.4225,-0.7025 0.4225,-2.1075 0.4225,-3.09125 l -3.0925,-0.28125 0,-0.14125 c -1.9675,0.14125 -4.6375,-0.8425 -7.44875,-0.42125 0.14,-0.28125 0,-0.28125 -0.14125,-0.42125 -1.125,0.5625 -3.3725,0.42125 -4.3575,0.14 -1.54625,0.14 -3.0925,-0.8425 -5.2,-0.42125 -0.4225,-0.14125 -0.70375,-1.265 -0.98375,-0.42125 -0.14125,0.14 -0.28125,0.28 -0.28125,0.42125 l -0.42125,0 c -0.14125,-0.42125 0.14,-0.84375 -0.14125,-0.985 0,1.125 -1.54625,0.4225 -2.24875,0.56375 -2.9525,-0.70375 -6.04375,-1.125 -9.2775,-1.6875 -6.18375,-0.7025 -9.83875,-4.92 -15.32,-6.74625 0,-0.7025 -1.12375,0.14 -0.7025,-0.84375 3.0925,0.84375 6.465,1.265 10.26,1.12375 1.125,-0.7025 2.95125,-0.9825 4.77875,-0.42125 0.70375,-0.56125 2.81125,-0.14 3.2325,-0.28125 1.6875,0.4225 4.49875,-0.7025 6.185,-0.42125 2.10875,-1.125 5.90375,0 7.30875,-2.24875 1.125,1.12375 1.265,-1.12375 2.81125,-0.42125 3.37375,-2.53125 8.1525,-3.0925 11.245,-6.045 1.12375,-0.14 1.54625,-1.265 2.39,-1.68625 -2.9525,-0.7025 -5.6225,-1.8275 -8.0125,-3.0925 -1.6875,-0.14 -2.24875,-1.9675 -4.07625,-1.82625 -1.265,-1.96875 -3.795,-1.54625 -4.91875,-3.655 l -0.5625,0 c -0.7025,-1.8275 -3.23375,-1.8275 -3.655,-3.93625 -0.7025,-0.56125 -1.125,-0.8425 -1.405,-1.68625 3.2325,1.9675 7.73,4.07625 11.525,3.93625 0.5625,0.14 2.10875,0.8425 3.37375,0.28125 l 0,-0.14125 c 1.54625,0.28125 3.37375,0.98375 4.92,0.28125 0.7025,0.5625 1.68625,0 2.81125,-0.14 3.935,-0.70375 8.01125,-1.54625 11.525,-3.23375 1.125,-0.14 1.54625,-1.265 2.39,-1.9675 -1.125,-1.40625 -2.10875,-2.9525 -3.0925,-4.21625 -1.125,-2.25 -1.68625,-5.06125 -3.37375,-6.74749 0.7025,-0.56125 -0.28125,-1.12375 0,-2.24875 -1.12375,-1.9675 -2.10875,-3.935 -1.6875,-7.0275 -1.68625,-1.54625 -0.8425,-4.92 -1.9675,-6.8875 0.84375,-4.07625 1.125,-8.57375 0.985,-13.3525 0.14,0 0.28,0 0.28,-0.14125 -0.42125,-2.24875 -0.42125,-6.18375 0,-7.58875 -1.12375,-1.82875 -0.7025,-5.3425 -0.28,-7.59 -0.4225,-1.96875 0.7025,-3.655 0,-5.20125 0.42125,-1.265 0.42125,-3.37375 0,-4.63875 -0.28125,-1.405 1.68625,-5.34125 2.1075,-1.68625 m 125.23625,75.75999 c -1.5475,-0.14125 -2.67125,0.14 -3.795,0.7025 0,3.0925 -4.35875,1.68625 -6.04375,2.95125 -7.02875,0.28125 -14.75875,-0.42125 -21.08375,0.70375 -1.6875,0.56125 -2.53,1.54625 -2.81125,3.3725 -3.795,0.5625 -6.8875,1.6875 -10.54125,2.39 -2.53125,2.38875 -8.99625,-0.7025 -10.6825,2.67 -5.90375,-0.98375 -8.85625,1.9675 -14.3375,1.40625 -2.67,1.82625 -6.74625,1.82625 -10.12,2.67 -4.91875,0.28125 -8.71375,2.10875 -13.4925,2.39 -2.25,2.1075 -5.90375,2.38875 -7.59,5.06 -2.25,0.7025 -3.23375,3.51375 -5.90375,3.37375 -0.5625,1.12375 -1.6875,1.9675 -1.6875,3.51375 -0.98375,0.42125 -2.1075,0.9825 -2.1075,2.24875 0.5625,2.81125 -0.98375,4.91875 0,7.30875 -0.14,0.56125 0.28125,1.54625 -0.28125,1.68625 0.28125,5.48125 -0.84375,12.08875 0.98375,16.445 1.9675,0.5625 0.5625,4.21625 3.37375,3.795 0.5625,1.265 2.67,0.5625 3.3725,1.6875 0.28125,0.98375 1.6875,0.8425 2.53,1.265 1.265,0.7025 2.9525,1.12375 4.2175,1.9675 2.53,-0.14125 3.0925,2.1075 5.06,2.67 3.0925,3.655 6.18375,7.16875 7.73,11.66625 0.14125,5.34125 1.8275,9.5575 5.06,12.65 0.42125,0.84375 2.25,-0.28125 2.39,0.98375 1.54625,-0.42125 3.0925,-0.42125 4.3575,-0.42125 l 0,0.14125 c 4.35625,0 5.7625,-4.63875 10.26,-4.3575 0.70375,-0.985 2.67125,-0.985 3.2325,-2.39 1.40625,-0.7025 3.0925,-1.265 4.07625,-2.24875 l 0,0.5625 c -0.14,-0.28125 -0.28,-1.54625 0.98375,-1.405 5.4825,-3.655 16.445,-5.90375 22.91125,-1.96875 4.07625,1.68625 7.73,4.3575 9.97875,8.1525 1.265,2.67 2.39,5.2 2.9525,8.43375 -0.4225,4.075 -1.6875,7.59 -4.21625,10.26125 -0.84375,0.42125 -1.82875,0.8425 -2.39,1.685 -2.10875,0.84375 -4.77875,1.5475 -5.90375,3.51375 3.515,0.5625 6.325,-0.9825 9.5575,0 0.70375,1.12625 1.265,-0.8425 1.8275,0.28125 1.265,0.14125 2.81125,-0.28125 3.795,0.42125 1.8275,-0.42125 3.2325,0.70375 4.3575,0.28125 3.37375,1.8275 7.0275,3.0925 10.12,5.4825 2.67125,-1.405 5.4825,1.125 9.2775,0.28125 2.81125,1.125 4.49625,0.70375 7.3075,1.68625 2.67125,0 5.4825,1.265 7.73125,1.125 l 0,0.28 c 3.51375,0.4225 7.45,0.28125 10.8225,1.26625 2.81125,-0.14 5.06125,1.545 7.30875,1.265 1.26625,0.7025 2.81125,0.9825 4.0775,1.8275 1.545,0.42125 3.51375,0.42125 4.7775,1.26375 2.39,-0.14 3.37375,1.6875 5.06125,2.39 1.405,1.12375 3.65375,0.84375 4.35625,2.67125 2.53,1.26375 4.49875,2.52875 7.02875,3.3725 2.2475,0.14125 3.65375,1.54625 5.62125,1.68625 2.39,-2.67 3.2325,-6.74625 6.04375,-8.995 0.70375,-1.8275 -1.12375,-1.265 -1.68625,-2.1075 0,-2.10875 2.53125,-1.96875 3.0925,-3.655 1.405,-5.06 4.07625,-9.5575 2.81125,-16.0225 l -4.92,4.6375 c -3.51375,2.53 -6.325,6.04375 -10.54125,7.44875 -1.6875,-1.405 -0.28125,-5.05875 -1.265,-7.0275 -0.84375,-0.98375 -1.54625,0.5625 -1.9675,1.26625 -4.0775,2.95 -8.715,8.4325 -15.18,4.6375 -0.7025,-1.405 1.12375,-2.39 1.12375,-4.07625 1.125,-0.28125 0.14,-2.39 1.26625,-2.67 -0.70375,-2.53125 1.405,-4.78 -0.56375,-6.325 -0.98375,2.10875 -3.795,1.545 -4.91875,3.3725 -3.2325,0.28125 -4.92,2.67125 -8.855,1.68625 -0.28125,0.4225 -0.98375,0.4225 -1.265,0 -0.2825,-0.5625 -0.84375,-1.265 -0.5625,-2.2475 1.8275,-3.0925 2.10875,-8.435 0.98375,-12.22875 l -0.84375,0.42125 c -0.5625,1.54625 -2.2475,2.24875 -3.2325,3.3725 -2.24875,1.265 -4.77875,3.0925 -7.73,2.25 -2.25,-3.37375 1.545,-6.74625 -0.7025,-10.26125 -0.42125,-0.5625 -0.5625,-1.54625 -1.125,-1.8275 -1.125,2.25 -3.0925,3.93625 -5.06,5.06 -4.49875,-2.67 -9.4175,-5.2 -11.66625,-10.26 0.5625,-2.24875 -1.12375,-3.0925 -1.265,-4.3575 l 0.28125,0 c -2.67,-3.3725 -5.34125,-7.0275 -9.5575,-8.715 -2.25,-1.12375 -4.49875,-2.1075 -6.325,-3.79375 2.2475,-1.6875 5.62125,-2.24875 8.85375,-2.24875 l 0,0.14 c 0.845,-0.4225 2.53,-0.4225 3.0925,-0.28125 1.6875,-0.84375 3.2325,0.14125 4.92,0.28125 0.42125,0.5625 1.6875,-0.14 2.10875,0.7025 2.81125,-0.14 4.21625,1.265 6.465,1.68625 0.84375,1.125 2.24875,1.40625 2.67125,2.67125 l 0.5625,0 c 0.7025,1.8275 2.81125,2.1075 4.91875,2.38875 0.70375,-0.14 2.24875,0.5625 2.10875,-0.7025 2.10875,-2.53 4.92,-4.6375 8.2925,-5.6225 1.82625,-0.7025 5.34,0 6.46625,-0.7025 1.82625,0.42125 1.685,-0.7025 2.2475,-1.68625 0.4225,-0.5625 1.26625,-0.98375 2.10875,-0.5625 1.54625,2.39 4.35625,4.07625 5.7625,6.7475 1.5475,1.82625 2.25,3.935 3.51375,5.9025 1.26625,-1.54625 1.5475,-3.795 2.39,-5.7625 0.14125,-2.95125 0.84375,-6.04375 1.265,-8.855 2.24875,-2.10875 4.2175,0.5625 6.325,1.12375 5.7625,2.9525 8.0125,9.2775 9.6975,15.6025 1.82875,-1.40625 3.0925,-3.51375 3.9375,-5.76375 1.82625,-2.95125 1.96625,-7.1675 4.21625,-9.83875 2.24875,-1.12375 3.79375,0.7025 5.7625,1.26625 0,1.12375 0.98375,1.545 1.68625,2.2475 3.3725,6.46625 5.7625,13.635 5.6225,22.48875 l 0.56125,0 c -0.14,-1.405 1.6875,-0.9825 1.96875,-1.9675 1.96875,-2.81 3.795,-5.2 4.4975,-8.71375 0.985,-1.265 0.5625,-3.51375 1.6875,-4.77875 2.38875,1.265 3.935,3.37375 5.2,5.90375 0,2.52875 0.98375,4.6375 2.9525,5.48125 l 0.56125,-1.54625 c 0.28125,-4.77875 0.98375,-12.0875 -0.7025,-15.46125 -2.53,-2.10875 -5.34125,-4.07625 -7.02875,-6.8875 -0.42125,-0.84375 -0.8425,-1.9675 -0.42125,-2.67 -0.7025,-1.6875 0.42125,-3.2325 0,-5.34125 1.12375,-1.125 -0.42125,-2.10875 0,-3.655 -0.42125,-0.8425 -0.28125,-1.9675 -1.26375,-2.53 -0.14125,-1.9675 -2.67125,-1.12375 -3.795,-1.9675 -1.6875,-2.10875 -5.06125,-2.24875 -8.0125,-2.53 -0.8425,-0.14 -0.7025,-1.125 -0.7025,-1.9675 0.42125,-0.84375 1.265,-1.125 2.39,-0.98375 0.8425,-0.28125 1.68625,-0.28125 2.52875,0 1.54625,-1.265 3.65375,-1.54625 5.4825,-2.39 0.8425,-0.8425 2.53,-0.8425 2.38875,-2.53 -1.8275,-1.265 -4.3575,-1.54625 -6.605,-2.24875 -1.82875,0.5625 -2.10875,-1.265 -2.81125,-1.68625 -1.96875,-0.14125 -3.37375,-1.125 -5.06125,-1.6875 -1.545,0.14125 -2.67,-1.68625 -3.935,-1.12375 -3.2325,-2.53 -9.27625,-1.6875 -12.65,-3.93625 -1.54625,-0.28 -2.81125,-0.98375 -3.65375,-1.9675 -2.53125,-0.28125 -4.64,-0.84375 -6.46625,-2.24875 -1.40625,-1.8275 -4.49875,-1.8275 -7.16875,-2.24875 -3.2325,-0.84375 -7.59,-0.98375 -10.6825,-1.125 l 0,-0.28125 c -1.12375,0 -2.53,0.28125 -2.95125,-0.5625 -1.405,0 -3.37375,-0.14 -3.935,0 -0.14125,-0.14 -0.28125,-0.28 -0.14125,-0.42125 -0.70375,0.14125 -1.68625,-0.28125 -2.10875,0.42125 -2.24875,-1.405 -7.3075,-0.28 -8.855,-0.8425 -2.81125,1.405 -3.0925,-1.8275 -5.6225,-1.265 -5.62125,-4.77875 -10.4,-10.6825 -16.86625,-14.4775 -1.545,0 -2.53,-1.125 -3.65375,-1.68625 m 2.67,12.50875 c -2.67,-1.12375 -5.2,-0.8425 -7.87125,-0.14 -2.53,0.5625 -5.2,0.7025 -7.87125,1.12375 -1.265,0.84375 -2.81125,-0.14 -4.3575,0 -1.265,-1.82625 -4.6375,-0.28125 -6.18375,-1.68625 -3.0925,0.84375 -6.8875,0.84375 -9.2775,2.67125 -0.14,1.82625 -2.38875,1.405 -3.3725,2.2475 0.42125,1.40625 1.9675,0.2825 2.39,-0.42125 2.67,0.84375 3.2325,-1.405 6.0425,-0.56125 3.515,-1.8275 7.16875,0.42125 10.82375,0.56125 2.95125,-0.14 2.52875,2.81125 4.3575,4.07625 2.81125,1.265 2.53,5.06 5.34125,6.325 2.81,5.06 8.4325,7.16875 14.195,8.57375 -1.26375,0.5625 -2.38875,0.84375 -3.51375,1.54625 -3.2325,-0.14 -4.21625,-0.14 -6.74625,-1.12375 -1.40625,0.42125 -2.24875,-0.4225 -3.51375,-0.28125 -2.39,-0.4225 -4.2175,-1.405 -6.325,-1.9675 -0.56375,-0.5625 -2.24875,-0.5625 -2.81125,0 -0.42125,1.545 0.5625,2.38875 0.42125,3.795 1.68625,2.24875 1.265,5.34125 0.84375,8.4325 0.28,0 0.28,0.14125 0.42125,0.14125 -2.1075,2.95125 -4.77875,5.48125 -8.57375,5.7625 -4.3575,-1.125 -8.01125,0.7025 -12.0875,0.98375 -0.98375,0.84375 -3.93625,-0.14 -4.2175,0.84375 1.6875,-0.98375 2.39,2.1075 4.0775,1.265 2.1075,0.7025 4.4975,-0.84375 6.465,0 1.54625,0.28125 2.67125,-1.265 3.795,0 -0.42125,1.68625 -0.84375,3.2325 -1.6875,4.63875 -0.28,2.81125 -2.38875,4.4975 -4.6375,5.06 -0.84375,1.82625 -3.51375,0.8425 -4.3575,2.2475 -3.2325,1.26625 -6.18375,2.39 -9.83875,2.81125 -0.84375,1.125 -2.38875,1.54625 -3.2325,2.81125 -2.10875,-0.28 -1.9675,2.24875 -4.2175,1.96875 -0.28125,1.265 -2.38875,1.265 -1.8275,2.38875 -0.8425,-0.28 -1.405,0.28125 -1.405,0.985 -1.265,0.28 -2.10875,1.82625 -2.95125,2.67 -0.98375,1.265 -2.24875,3.0925 -3.93625,3.51375 l 1.265,0.5625 c 0.7025,-0.5625 1.6875,-0.70375 2.24875,-1.54625 2.10875,-0.14 0.84375,-3.795 3.0925,-2.67125 l 0,-0.56125 c -0.28125,-0.84375 0.42125,-1.40625 1.40625,-1.125 -0.14125,-0.98375 0.98375,-0.8425 1.265,-1.405 0.28125,-0.28125 0.28125,-0.7025 0.8425,-0.5625 1.265,-0.70375 1.96875,-1.54625 3.515,-1.68625 0.8425,-1.6875 3.51375,-0.84375 4.77875,-2.10875 1.26375,0 1.82625,-1.40625 3.0925,-0.7025 1.545,-1.125 3.3725,-1.8275 5.62125,-1.9675 0.84375,-0.2825 1.68625,-0.70375 2.53,-0.985 0.84375,0.42125 2.10875,-0.56125 3.2325,-0.7025 2.10875,-0.7025 3.655,-2.53 5.20125,-3.655 1.54625,-0.7025 1.68625,-2.52875 2.10875,-3.65375 0.42125,-2.24875 1.68625,-4.2175 3.3725,-5.90375 0.7025,-1.54625 2.24875,-1.9675 3.37375,-3.3725 2.81125,-2.53125 5.4825,-5.3425 5.2,-10.26125 -0.28125,-1.54625 -0.84375,-3.37375 -0.84375,-4.92 0.98375,0.14125 2.25,-0.28 2.81125,0.4225 1.405,1.8275 3.93625,-0.84375 4.91875,1.265 2.67125,0.14 5.4825,1.265 8.15375,0.42125 0.8425,0.84375 1.8275,-0.28125 2.67,-0.42125 1.82875,0.7025 2.39,-1.6875 4.07625,-1.125 l 0,0.14125 c 5.06,-0.84375 7.16875,-5.76375 12.0875,-7.02875 2.39,-3.09125 -1.82625,-3.51375 -2.81125,-5.48125 -2.67,-0.7025 -4.35625,-4.07625 -6.465,-6.18375 -2.67125,-3.23375 -7.1675,-4.63875 -11.10375,-6.045 m 59.8775,59.315 c -1.12375,5.06 -1.96875,10.12 -5.34125,13.49375 -1.405,1.54625 -2.1075,3.655 -3.795,4.77875 -1.6875,-4.77875 -3.795,-8.995 -7.16875,-12.50875 -1.8275,0 -2.10875,-2.9525 -4.2175,-1.40625 -2.2475,1.8275 -5.19875,2.81125 -7.87,4.07625 -1.26625,1.68625 -3.0925,2.39 -5.06,3.0925 0.28,2.95125 2.24875,4.77875 2.24875,7.87 0.28125,1.26625 -0.14,3.37375 1.68625,3.0925 2.24875,-1.82625 4.3575,-3.2325 6.7475,-4.77875 0.7025,-0.14 0.42125,0.7025 0.5625,0.98375 1.96625,3.37375 2.81125,7.45 2.95125,12.0875 -0.42125,1.265 0.7025,1.82875 1.545,1.82875 1.5475,-1.26625 3.795,-1.6875 4.49875,-3.79625 2.52875,-1.68625 2.67125,-5.2 5.06,-7.0275 1.265,0.98375 1.54625,2.53 2.24875,3.655 1.265,4.07625 2.39,8.01125 2.81125,12.50875 0.8425,0.985 1.68625,-0.14 2.53,-0.28125 2.81125,-2.53 5.34,-5.48125 6.60625,-9.13625 1.82625,0 1.265,2.39 2.39,3.23375 0.28125,1.405 0.7025,2.81 0.98375,4.21625 0.8425,0.5625 0.9825,2.9525 2.53,1.68625 1.82625,-1.405 3.0925,-2.67 4.91875,-4.075 2.24875,-0.5625 2.95125,-2.8125 4.92,-4.07625 1.68625,-1.6875 2.24875,-4.77875 5.48125,-4.63875 2.24875,-6.7475 -0.14,-13.775 -3.09125,-18.55375 0.7025,-1.54625 -1.40625,-1.9675 -1.40625,-3.655 -1.8275,0.4225 0.14,3.79625 -1.8275,4.07625 -1.8275,3.51375 -4.2175,6.185 -7.16875,8.85625 -0.8425,2.24875 -3.0925,3.79375 -5.4825,3.79375 -0.42125,-4.075 -1.82625,-7.44875 -2.66875,-11.10375 -1.96875,-2.67 -2.9525,-6.18375 -5.6225,-8.2925"
         style="fill:#000000;fill-opacity:1;fill-rule:nonzero;stroke:none"
         id="path148"
         inkscape:connector-curvature="0" />
      <path
         d="m 497.46975,594.02573 c 0.14,0.8425 -2.10875,1.6875 -0.28125,2.39 l 0.28125,0 c 0,0.56125 -0.98375,0.7025 -1.54625,1.12375 -0.4225,1.54625 -1.54625,0 -2.24875,0 -0.845,-0.7025 0.42125,-1.9675 0.98375,-2.53 0.56125,-0.84375 1.54625,-1.12375 2.81125,-0.98375"
         style="fill:#000000;fill-opacity:1;fill-rule:nonzero;stroke:none"
         id="path150"
         inkscape:connector-curvature="0" />
      <path
         d="m 523.191,602.31948 c 0.56125,1.685 -0.98375,1.82625 -1.54625,2.67 -2.53,0.84375 -3.93625,-1.54625 -6.465,-1.6875 -1.54625,-0.28 0,-1.545 0,-2.24875 2.2475,-0.5625 4.21625,1.40625 7.30875,0.70375 l 0.7025,0.5625 z"
         style="fill:#000000;fill-opacity:1;fill-rule:nonzero;stroke:none"
         id="path152"
         inkscape:connector-curvature="0" />
      <path
         d="m 378.4185,604.28573 c -0.14125,1.125 -0.84375,1.5475 -2.24875,1.40625 -0.7025,-0.56125 -1.40625,-1.6875 -0.5625,-2.53 1.265,-1.12375 2.10875,0.5625 2.81125,1.12375"
         style="fill:#000000;fill-opacity:1;fill-rule:nonzero;stroke:none"
         id="path154"
         inkscape:connector-curvature="0" />
      <path
         d="m 367.59475,622.55823 c -0.28125,3.51375 -0.8425,6.60625 -2.67,8.99625 -0.98375,0.28125 -1.54625,-0.28125 -1.8275,-0.84375 0.14125,-2.67 -1.8275,-6.04375 0.28125,-8.01125 0.7025,-1.125 3.795,-2.38875 4.21625,-0.14125"
         style="fill:#000000;fill-opacity:1;fill-rule:nonzero;stroke:none"
         id="path156"
         inkscape:connector-curvature="0" />
      <path
         d="m 364.92475,650.52948 -0.5625,0 0,-0.5625 c 0.14,0.14125 0.4225,0.42125 0.5625,0.5625"
         style="fill:#000000;fill-opacity:1;fill-rule:nonzero;stroke:none"
         id="path158"
         inkscape:connector-curvature="0" />
      <path
         d="m 472.16975,655.87073 -0.14125,-0.42125 0.14125,0.14 0,0.28125 z"
         style="fill:#000000;fill-opacity:1;fill-rule:nonzero;stroke:none"
         id="path160"
         inkscape:connector-curvature="0" />
      <path
         d="m 361.55225,660.78948 c 0.42125,1.125 -0.70375,1.26625 -1.54625,1.125 l -1.265,-0.98375 c 0.14,-0.70375 -0.28125,-2.38875 -1.125,-2.95125 l 0,-0.84375 c 1.405,0.98375 3.65375,1.54625 3.93625,3.65375"
         style="fill:#000000;fill-opacity:1;fill-rule:nonzero;stroke:none"
         id="path162"
         inkscape:connector-curvature="0" />
      <path
         d="m 506.32475,658.54198 c -0.84375,0.8425 0.28125,2.95125 -1.12375,3.3725 -1.12625,0.14125 -1.96875,0 -2.53125,-0.8425 -0.28,-1.40625 0.5625,-2.10875 0.7025,-3.375 1.265,-0.14 2.10875,0.4225 2.9525,0.845"
         style="fill:#000000;fill-opacity:1;fill-rule:nonzero;stroke:none"
         id="path164"
         inkscape:connector-curvature="0" />
      <path
         d="m 431.68975,668.94198 c -0.2825,0.7025 -0.70375,1.26625 -1.54625,1.40625 -0.985,0 -1.265,-0.985 -1.96875,-1.40625 -0.28125,-1.68625 1.96875,-0.8425 2.39,-2.10875 0.5625,0.4225 0.98375,1.26625 1.125,2.10875"
         style="fill:#000000;fill-opacity:1;fill-rule:nonzero;stroke:none"
         id="path166"
         inkscape:connector-curvature="0" />
      <path
         d="m 441.106,681.73323 c 0,1.8275 0.5625,2.95125 0.4225,4.92 -0.70375,0.28 -0.985,0.9825 -1.40625,1.685 -2.1075,-0.42125 -3.51375,-1.685 -2.81125,-4.49625 -0.98375,-1.12625 0.42125,-2.25 0,-3.795 0.42125,-0.70375 1.40625,-0.56375 1.9675,-0.985 1.40625,0.14 1.265,1.8275 1.8275,2.67125"
         style="fill:#000000;fill-opacity:1;fill-rule:nonzero;stroke:none"
         id="path168"
         inkscape:connector-curvature="0" />
      <path
         d="m 581.52225,681.73323 0,0.42125 c -1.405,-0.42125 -2.10875,-1.68625 -3.935,-1.405 1.96625,-0.5625 2.3875,0.8425 3.935,0.98375"
         style="fill:#000000;fill-opacity:1;fill-rule:nonzero;stroke:none"
         id="path170"
         inkscape:connector-curvature="0" />
      <path
         d="m 584.89475,682.71573 -0.42125,0.56375 -2.53,-1.26625 c 1.54625,-0.42125 1.54625,0.845 2.95125,0.7025"
         style="fill:#000000;fill-opacity:1;fill-rule:nonzero;stroke:none"
         id="path172"
         inkscape:connector-curvature="0" />
      <path
         d="m 589.53225,692.27573 c -1.12375,-0.14125 -2.2475,-0.845 -2.81,-1.82875 1.265,0.14125 2.38875,0.98375 2.81,1.82875"
         style="fill:#000000;fill-opacity:1;fill-rule:nonzero;stroke:none"
         id="path174"
         inkscape:connector-curvature="0" />
      <path
         d="m 580.95975,694.80448 0.5625,0 -0.5625,0 z"
         style="fill:#000000;fill-opacity:1;fill-rule:nonzero;stroke:none"
         id="path176"
         inkscape:connector-curvature="0" />
      <path
         d="m 600.356,697.33448 c 0,0.7025 -0.42125,1.8275 -1.54625,1.40625 -0.84375,-1.40625 -4.21625,0.14 -3.655,-2.53 1.26625,-1.125 2.67125,0.8425 3.655,-0.7025 0.84375,0.14 1.9675,0.56125 1.54625,1.82625"
         style="fill:#000000;fill-opacity:1;fill-rule:nonzero;stroke:none"
         id="path178"
         inkscape:connector-curvature="0" />
      <path
         d="m 475.261,575.05073 c 0.28125,1.405 -0.56125,3.51375 -0.7025,5.34125 0.98375,2.2475 -0.56125,4.35625 0,7.0275 -0.98375,1.12375 0,1.6875 -0.28,3.37375 -0.70375,1.6875 -0.14125,3.935 -1.12625,5.34125 1.96875,1.405 -0.8425,3.795 1.12625,5.05875 l 0,0.70375 c 2.2475,0.28125 5.62125,-1.125 7.3075,-0.14 0.7025,-1.26625 2.67125,0.42125 3.93625,0.14 0.7025,1.54625 2.95125,-0.98375 3.935,0.84375 1.9675,0.28125 3.655,0.98375 6.04375,0.7025 1.54625,0.28125 3.2325,0.7025 4.92,0.98375 3.65375,1.125 7.73,0.4225 10.54125,2.38875 0.14,-0.14 0.28125,-0.14 0.14,-0.28 1.5475,0.28 3.65625,0.56125 4.78,1.12375 l 0,-0.14125 c 3.935,-0.14 5.6225,2.81125 9.5575,2.67125 1.5475,1.26625 4.07625,1.26625 6.185,1.6875 0.42125,0.98375 1.6875,0.8425 2.67,1.405 2.67125,0.56125 4.21625,2.53 6.325,3.93625 0.84375,1.265 1.68625,1.82625 2.81125,2.95 2.24875,0.70375 2.1075,3.375 3.93625,4.49875 0.14,1.405 -0.28125,3.0925 0.42125,4.07625 -0.98375,0.985 0.42125,2.53 -0.42125,3.3725 0.8425,2.53125 -1.125,4.49875 -1.405,6.7475 l 0.14,0 c -0.14,1.8275 -1.26625,2.53 -0.985,4.4975 -0.42125,0.98375 -0.56125,2.10875 -1.26375,2.81125 -0.5625,2.1075 -1.96875,4.77875 -3.51375,7.0275 -0.4225,0.4225 0.14,1.96875 -0.985,1.82875 -0.5625,4.35625 -5.34,4.91875 -6.46625,8.995 -0.8425,1.265 -2.2475,2.38875 -2.66875,4.07625 -1.40625,0.14 -1.26625,1.96625 -3.2325,1.26375 -0.845,1.6875 -1.5475,3.0925 -2.53125,4.64 -0.84375,-0.7025 -3.09125,1.26375 -2.81125,-1.12625 2.67125,-0.9825 2.81125,-4.49625 4.91875,-6.325 0.28125,-0.28 0,-0.7025 0.14125,-0.9825 -1.12375,-0.28125 -1.12375,1.8275 -2.67,1.12375 -1.54625,1.40625 -1.8275,3.655 -3.79625,4.3575 -1.26375,3.51375 -2.3875,6.74625 -2.81125,10.6825 0.28125,0.8425 0.56375,2.10875 1.26625,2.67 0.8425,0.5625 2.67125,0.5625 3.37375,0 0.56125,0.14125 2.24875,0 3.2325,-0.14 2.67,-1.265 5.48125,0.56125 8.2925,-0.5625 0.98375,-0.42125 2.53,-0.28125 3.23375,-1.265 3.65375,0 6.18375,-1.265 9.6975,-1.54625 l 3.2325,-0.14 0,0.14 c 0.7025,0.14125 2.9525,0.14125 4.3575,0.14125 l 0,0.14 c 4.49875,-0.42125 10.12,1.265 14.75875,2.53 1.68625,0.5625 3.935,0.98375 5.48125,1.68625 1.54625,0.985 3.51375,0.84375 5.06,1.6875 1.9675,1.12375 3.93625,1.96625 5.7625,3.0925 0,-0.7025 0.7025,-0.28125 0.98375,-0.4225 l 0,0.5625 c -2.67,-0.42125 -4.6375,-1.8275 -7.0275,-2.67125 -1.265,-0.14 -2.53,-0.7025 -3.51375,-1.26375 -2.81125,0.8425 -4.4975,-1.8275 -7.44875,-1.6875 -0.845,-1.12375 -2.81125,-1.265 -4.49875,-0.98375 l 0,0.14125 c -0.8425,-0.14125 -1.68625,-0.98375 -2.39,-0.28125 -0.8425,-0.28125 -1.96625,-0.7025 -2.66875,-0.28125 -1.96875,-1.6875 -4.78,0.28125 -6.60625,-0.42125 0,-0.1425 -0.1425,-0.2825 -0.1425,-0.2825 l -0.8425,0.2825 c 0,-0.1425 -0.14,-0.2825 -0.28125,-0.2825 -0.42125,0.14 -2.24875,0.14 -2.81125,0 -2.81125,0.70375 -5.6225,1.26625 -8.43375,1.96875 0,1.40625 -3.51375,0 -1.68625,1.54625 1.82875,0 2.67125,-1.54625 4.4975,-1.40625 1.26625,-0.7025 3.37375,0.14 4.63875,-0.5625 2.39,-0.28 4.3575,0.14125 6.045,0.98375 1.12375,-0.42125 1.405,0.5625 2.24875,0.42125 -2.39,0.42375 -3.655,-0.7025 -5.90375,-0.28 -0.4225,1.68625 2.24875,0.28 2.9525,1.125 1.12375,0 2.66875,0.42125 3.3725,-0.28125 4.07625,0.5625 9.2775,1.68625 14.33625,1.68625 1.125,0.98375 2.67125,0.8425 3.37375,2.24875 -0.5625,0.5625 -1.125,1.9675 -2.38875,0.98375 -0.1425,0 -0.1425,0 -0.2825,0.14 1.26625,0.5625 2.24875,1.82875 3.93625,1.5475 0,-0.28125 0,-0.70375 -0.42125,-0.70375 l -0.2825,0 c 1.5475,-0.7025 1.96875,1.6875 3.515,1.8275 0,0.42125 0,0.98375 0.5625,0.7025 l 0.8425,-0.28125 c -0.28125,0.42125 -0.42125,1.12375 0.28125,1.26625 1.125,-0.1425 0.8425,1.26375 1.6875,1.545 0.98375,0.42125 1.82625,1.12375 1.96625,1.96875 -1.96625,0.28125 -2.1075,-1.96875 -3.79375,-2.25 -0.98375,-0.56125 -2.53125,-1.545 -3.795,-0.7025 -1.8275,-1.54625 -5.20125,-1.125 -6.74625,-3.09125 -1.82875,0.14 -2.81125,-1.6875 -4.35875,-0.985 -0.28125,-0.5625 -1.26375,-0.14125 -1.96625,-0.28125 l 0,-0.28125 c -0.28125,0.42125 -2.10875,-0.56125 -2.67125,0.28125 -2.53,-0.98375 -5.06,0.14 -7.59125,0.28125 -5.48,0.84375 -11.52375,0.84375 -16.30375,2.67 -1.82625,-1.12375 -3.0925,0.7025 -4.6375,0.985 l 0,0.42125 c -1.5475,-0.70375 -1.96875,1.405 -2.9525,0.28125 -2.81125,2.39 -6.465,3.795 -10.11875,5.06125 -1.26625,1.26375 -3.515,1.82625 -4.49875,3.09 -0.84375,0.1425 -1.82625,1.26625 -2.67125,0.2825 -3.0925,0 -4.6375,2.9525 -8.01125,1.405 -0.28,0.5625 -1.265,0.14125 -1.9675,0.28125 -2.10875,-1.265 -3.935,1.12375 -5.76375,0 -0.56125,0.7025 -1.82625,0.28125 -2.67,0.42125 l 0,-0.28125 c -0.98375,-0.56125 -2.81125,0.84375 -3.0925,-1.26375 -0.98375,0 -0.8425,-1.40625 -1.68625,-1.6875 -1.125,-1.12375 -1.40625,-2.53 -2.10875,-3.935 -1.12375,0.7025 -0.56125,2.81125 -1.82625,3.0925 3.65375,-4.4975 -2.95125,-7.59 0.28125,-12.37 l -0.985,-0.42125 c 0.56375,-1.40625 1.40625,-2.81125 1.8275,-4.075 l -0.14,0 c 1.405,-3.515 2.53,-7.31 5.20125,-9.98125 0.8425,-1.96625 1.685,-3.935 3.3725,-5.05875 1.54625,-1.8275 1.265,-5.6225 5.06,-5.06125 0.56125,-0.42125 0.98375,-1.545 1.68625,-0.7025 l 0,0.5625 c -1.265,-0.42125 -0.28,1.265 -0.9825,1.265 -2.10875,1.40625 -2.53125,4.3575 -3.9375,6.18375 -0.9825,1.96875 -1.405,4.2175 -2.10875,6.325 -1.685,1.125 -3.65375,2.67125 -3.65375,4.92 1.125,0.42125 0.28125,-0.98375 1.125,-0.98375 1.82625,-0.14 1.265,-2.53 2.81125,-3.09125 0.98375,-0.7025 0.84375,-2.67125 1.9675,-2.9525 0.14,-1.125 0.56125,-2.10875 1.6875,-2.10875 0,-1.82625 1.96625,-1.68625 2.24875,-3.3725 1.265,-0.7025 1.68625,-2.10875 2.81,-2.9525 1.54625,-2.53 2.95125,-4.6375 5.4825,-6.18375 0.9825,-2.39 3.65375,-3.23375 4.92,-5.6225 1.26375,-0.7025 1.545,-2.53125 2.67,-3.795 0.14125,-1.405 1.12375,-2.81125 0.28125,-4.3575 -1.26625,-0.70375 -2.95125,-0.84375 -4.0775,-0.84375 -0.9825,0.70375 -2.95125,0 -3.935,0.70375 -0.56125,-0.42125 -2.39,0.42125 -3.0925,-0.42125 -2.53,0.56125 -4.21625,1.96625 -7.44875,1.405 -1.125,0.98375 -2.95125,0.8425 -4.49875,1.405 -0.7025,0.14 -1.685,-0.28125 -2.1075,0.2825 -4.07625,-0.2825 -6.04375,0.42125 -8.995,0.7025 l -1.26625,0.28 c -0.56125,-0.9825 -0.98375,0.5625 -1.68625,0.4225 -2.38875,1.12375 -6.605,0.14 -7.1675,3.3725 -1.54625,0.5625 0.42125,1.6875 -0.84375,2.25 0.42125,0.7025 -0.28125,2.53 0.42125,3.2325 -0.7025,2.24875 0,5.6225 -0.42125,7.73 l 0.14,0 c -0.98375,0.70375 0.42125,1.9675 -0.42125,2.39 0.14,0.56125 -0.28125,1.40625 0.42125,1.54625 -0.7025,0.98375 0,2.95 -0.7025,3.935 0.5625,1.54625 0.14,4.4975 0.28125,5.6225 -0.28125,1.54625 -0.28125,3.51375 0,4.91875 -0.5625,0.5625 -0.14125,1.8275 -0.28125,2.67125 0.98375,2.24875 -0.5625,4.21625 0,6.74625 l -0.14,0 c 0,2.24875 -0.5625,5.6225 -0.84375,7.45 1.12375,1.12375 -0.8425,2.24875 0.28125,3.2325 -1.26625,0.7025 -0.7025,3.0925 -1.26625,4.3575 0.2825,1.26375 -0.7025,1.6875 -0.56125,2.53 l -0.7025,-0.42125 0.14,0 -0.14,-1.6875 c -1.265,-0.14 -2.25,1.54625 -3.655,0.42125 -0.14,-1.12375 0,-1.96625 0.84375,-2.53 l 2.10875,1.6875 c 0.7025,-0.42125 0.7025,-1.5475 0.7025,-2.67125 0.56125,-0.98375 -0.98375,-2.53 0,-3.935 -0.14125,-0.8425 0.28,-2.10875 -0.28125,-2.67125 -0.28125,-1.9675 0.56125,-4.92 -0.7025,-6.18375 0.14,-3.655 -0.7025,-6.46625 -0.28125,-10.12 -1.8275,-0.5625 0.42125,-1.6875 -0.70375,-2.53 0.4225,-2.39 0.4225,-5.90375 0,-8.29375 0.985,-1.68625 -0.7025,-3.51375 0.14,-5.2 -0.8425,0 -1.12375,0.7025 -0.9825,1.68625 l 0,0.28125 c -1.54625,-1.545 0.9825,-4.07625 -0.84375,-5.48125 0.14125,0 0.28125,-0.14 0.28125,-0.28125 0.28125,-0.5625 -0.42125,-0.4225 -0.42125,-0.98375 -0.7025,0.42125 -0.28125,1.54625 -0.42125,2.39 l -0.14125,0 c -0.70375,2.38875 -0.84375,6.605 -1.125,9.83875 l -0.28125,0 c 0.845,0.56125 -0.8425,1.54625 0.28125,2.24875 -0.8425,0.8425 0,4.21625 -0.7025,5.7625 1.12375,1.68625 -1.12375,3.795 0.7025,5.06 0.42125,2.39 -1.12375,3.93625 0,5.90375 0.14,1.54625 -0.42125,2.24875 -1.12375,3.09125 -0.14125,2.67125 0.28125,6.60625 -0.28125,8.29375 l 0.7025,0.42125 c -0.7025,1.96875 -0.28125,6.74625 -0.42125,8.99625 -0.5625,0.14 -0.14125,1.12375 -0.28125,1.68625 0.14,0 0.14,0.14 0.28125,0.14 -0.28125,0.42125 -0.42125,1.6875 0.42125,1.6875 -0.7025,1.545 -0.14,4.35625 -0.42125,5.62125 -0.28125,-0.14 -0.84375,0 -0.5625,0.4225 0,0.7025 0.7025,1.405 0,1.82625 l -0.56125,0 c -0.56375,2.25 0.28,3.93625 0.56125,5.76375 l -0.56125,0 c 0,-0.5625 0.14,-1.125 -0.1425,-1.6875 l -0.8425,0.985 -0.42125,-1.82875 c -1.8275,0.14 0.28,1.6875 -0.84375,2.67125 1.68625,2.10875 -0.28125,4.4975 0.42125,7.30875 -0.56125,1.265 -0.42125,1.54625 -0.42125,3.09375 -0.14,-0.14125 -0.14,0 -0.28125,0.14 0.7025,0.8425 -0.28,0.9825 -0.14,1.82625 l -0.42125,0 c 0,-1.82625 -0.14125,-2.9525 0.42125,-5.06 -0.5625,-1.9675 0.98375,-3.3725 0,-5.06 0.42125,-1.545 -0.98375,-2.38875 0,-3.51375 -0.42125,-1.8275 -0.70375,-3.79375 -0.98375,-5.6225 0,-4.6375 -0.28125,-5.2 0,-9.97875 -0.14125,-1.8275 -1.265,-3.65375 -0.4225,-5.4825 0.14125,-2.10875 -0.14,-3.935 -0.98375,-5.48125 0,-0.42125 0.5625,-0.84375 0,-1.265 l 0,-3.935 c 0.14125,-0.5625 0,-2.10875 -0.14,-3.2325 l -0.14125,0 c 0,-0.28125 0.5625,-1.26625 0,-1.6875 -0.28,-2.81125 0.4225,-6.325 -0.56125,-8.715 -0.14125,1.5475 -1.125,3.2325 -0.5625,4.35875 -0.7025,4.075 0.7025,5.7625 0.28125,9.13625 l -1.265,0 c -0.28125,-1.6875 -0.70375,-3.51375 -0.98375,-5.20125 -0.84375,0 -0.7025,2.24875 -1.125,3.51375 -0.42125,3.795 -0.7025,7.59 -0.7025,11.10375 0.28125,1.405 -0.14125,2.81125 0.7025,3.93625 -0.5625,1.685 0.28125,5.7625 0,7.87 -1.265,0.84375 0.84375,1.8275 -0.7025,2.38875 -0.5625,0 -0.28125,-1.96625 0.14,-2.52875 0,-2.24875 -0.28125,-4.07625 -0.7025,-6.045 -0.98375,-3.3725 -0.5625,-7.73 -1.68625,-11.1025 l 0.42125,-0.42125 c -0.84375,-2.53125 0,-6.185 -0.7025,-8.715 0.42125,-0.14125 0.42125,-1.265 0,-1.405 -0.14125,0 -0.14125,-0.1425 -0.4225,-0.1425 0.70375,-1.26375 0,-3.65375 0.70375,-4.91875 -0.5625,-0.42125 -0.14,-1.54625 -0.28125,-2.38875 l 0.14125,0 c -0.14125,-2.81125 -0.70375,-5.06 -0.56375,-9.2775 0,-0.7025 -0.7025,-1.12375 0,-1.68625 0.4225,-6.325 -0.7025,-11.66625 -0.28,-17.99125 -0.7025,-0.56125 -0.28125,-1.8275 -0.28125,-2.67 0.8425,-0.7025 -0.28125,-1.405 -0.42125,-2.10875 -0.5625,-0.28125 -1.54625,0 -1.96875,0.28 -0.28125,0.2825 -0.14,0.845 -0.14,1.26625 -1.125,0.28125 -1.40625,-0.42125 -2.10875,-0.7025 -1.405,0.8425 1.265,2.95125 -0.7025,4.07625 -1.265,1.12375 -2.10875,-0.5625 -2.81125,-1.125 -0.28125,-0.98375 -1.8275,-1.265 -1.68625,-2.67 -1.54625,-0.42125 -2.81125,0.14 -4.07625,0.42125 0,-0.14 0,-0.28125 -0.14125,-0.28125 -0.28,0 -0.84375,0 -0.7025,0.42125 l 0,0.5625 c -5.48125,0.42125 -8.855,1.96875 -14.4775,1.40625 -4.075,-0.2825 -6.04375,2.67 -8.4325,4.6375 -1.125,0.5625 -2.10875,1.6875 -2.81125,2.39 -0.14125,1.12375 0.42125,2.53 -0.5625,3.37375 -0.5625,1.12375 -1.68625,1.9675 -2.67125,2.53 1.6875,1.26375 2.81125,-0.7025 3.795,-1.40625 2.25,-0.7025 4.3575,-2.24875 5.4825,-4.3575 1.405,-0.28 1.54625,-1.8275 2.67,-2.67 0.84375,0 1.6875,1.12375 0.84375,1.8275 -0.28125,0.42125 -0.98375,0.42125 -0.7025,0.98375 2.1075,0.14 1.9675,-4.3575 4.075,-2.53 0.70375,3.2325 -3.2325,2.81125 -3.09125,5.6225 -0.14125,0 -0.5625,-0.14125 -0.5625,0.14 0,0.28125 -0.14,0.5625 0.14,0.7025 2.39,-1.405 4.49875,-3.0925 6.045,-5.34125 1.9675,0.2825 1.9675,-1.82625 3.51375,-2.1075 0.98375,-0.28125 0.42125,-1.5475 0.56125,-2.39 -0.14,0 -0.14,-0.14 -0.42125,-0.14 l 0.42125,-0.84375 c 1.125,0.5625 1.265,2.1075 1.125,3.795 -2.10875,1.12375 0,3.37375 -1.8275,4.4975 0.5625,1.40625 -1.405,2.95125 -1.12375,4.07625 -1.125,0 -0.84375,1.265 -1.40625,1.8275 0.28125,2.10875 -2.38875,1.9675 -2.38875,3.93625 -2.67125,2.2475 -4.07625,6.325 -8.43375,6.88625 -2.24875,0.84375 -3.37375,3.0925 -6.74625,2.53125 l -1.125,0.28 0,-0.14 c -0.28125,0.42125 -1.8275,-0.14 -2.24875,0.5625 -3.2325,0.42125 -4.3575,-2.25 -7.59,-1.6875 -1.125,-1.12375 -3.2325,-0.7025 -3.51375,-2.39 -3.51375,1.26625 -5.4825,-1.9675 -7.45,-3.795 -1.125,1.40625 1.125,1.6875 0.42125,3.37375 1.265,0.42125 1.54625,1.6875 2.67125,2.24875 0.42125,0.98375 1.8275,1.405 1.265,3.2325 -2.1075,0.4225 -1.125,-2.10875 -2.81125,-2.38875 -1.265,-1.265 -2.81125,-3.23375 -5.06,-3.37375 -0.98375,0.8425 -1.9675,-0.14 -3.0925,-0.28125 -0.42125,0.98375 -0.7025,2.81125 -2.1075,1.8275 -0.5625,0.5625 -1.54625,0.4225 -2.53,0.4225 -0.84375,0 -0.28125,-1.12625 -1.40625,-0.98375 0,-0.4225 0.14125,-0.985 -0.14,-1.26625 l -0.84375,0.28125 c -1.8275,-2.1075 -4.3575,-3.935 -5.7625,-6.185 -1.265,-1.685 -2.95125,-3.2325 -3.655,-5.34 -0.7025,-2.24875 -1.68625,-4.2175 -1.68625,-6.8875 3.3725,-0.28125 1.405,4.2175 3.795,5.06 0.28125,-0.28125 0.14,-0.7025 0.28125,-0.98375 l 0.42125,0 c -1.9675,2.38875 1.40625,3.51375 2.10875,5.2 0.8425,0.42125 1.265,1.125 2.67,0.84375 0.5625,-0.98375 -0.42125,-1.54625 -0.56125,-2.38875 l 0.14,0 c -0.84375,-1.26625 2.38875,-1.26625 1.265,-2.67125 0.5625,-0.42125 0.14,-1.54625 0.28125,-2.39 -0.84375,-0.42125 0.42125,-2.39 -0.98375,-2.53 0.5625,-1.9675 -0.4225,-3.51375 0.14,-5.34 l -0.14,0 c 0.28,-1.6875 -0.14125,-1.96875 0,-4.2175 l 0.14,0 c 0.84375,-1.9675 -0.8425,-4.77875 0.14,-7.30875 -0.28,-2.81125 0.70375,-4.78 0.84375,-7.0275 -0.98375,-0.28125 -0.42125,0.8425 -0.98375,1.12375 l 0,1.265 -0.42125,0 c 0,-1.82625 -0.42125,-1.9675 0.28125,-3.37375 0.14,-2.38875 0.98375,-5.05875 0.7025,-6.88625 0.8425,-4.63875 3.2325,-8.1525 5.7625,-11.6675 1.8275,-4.6375 3.795,-9.5575 8.57375,-11.665 0.28125,-0.28125 0.14125,-0.70375 0.14125,-0.985 l 1.12375,0.28125 -0.28,0.845 c 0.14,0.28 0.42125,0.14 0.7025,0.14 0.14,0.7025 -0.985,0.7025 -0.5625,1.405 -0.4225,0.84375 -1.96875,1.96875 -2.81125,3.2325 -1.405,1.40625 -1.54625,3.51375 -2.67125,5.06125 0,0.28 0.4225,0.14 0.56375,0.14 -0.2825,0.98375 -0.70375,2.10875 -0.84375,3.0925 1.68625,-1.265 5.06,-1.265 4.77875,-4.4975 -0.28125,-1.6875 2.1075,-0.70375 2.67,-1.6875 0.84375,0 1.8275,0.5625 1.6875,1.6875 1.68625,-0.56375 3.2325,-1.26625 4.91875,-1.96875 l 0,0.14125 c 2.53,-1.12375 6.60625,-1.12375 8.99625,-2.81125 1.68625,0.42125 1.68625,-1.265 3.51375,-0.7025 1.9675,-0.28125 2.81125,-2.10875 5.06,-1.96875 1.54625,-1.12375 4.21625,-0.7025 5.9025,-1.68625 1.8275,0.28125 2.67125,-0.70375 4.49875,-0.4225 l 0,0.1425 c 0.42125,-0.42375 2.1075,0.28 2.67,-0.42375 3.655,0.985 7.45,-0.56125 10.6825,0 3.655,-0.42125 6.74625,-1.685 9.98,-2.66875 0.56125,-2.10875 -0.4225,-5.06125 -0.5625,-7.59125 0.7025,-0.28125 0.7025,-1.405 0.7025,-2.24875 -0.14,-0.14125 -0.14,-0.14125 -0.28125,-0.14125 0.98375,-0.9825 -0.5625,-1.545 0,-2.95125 -1.82625,-0.7025 0.42125,-2.2475 -0.7025,-3.51375 0.98375,-1.265 -0.42125,-2.38875 -0.14125,-4.07625 l -0.28,0 c 0.7025,-0.7025 0.14,-2.10875 -0.28125,-2.81125 0.56125,-0.56125 -0.70375,-2.39 0.7025,-2.67 0.14,0 0.5625,0.14 0.7025,-0.14125 -0.84375,-0.8425 -0.14,-2.10875 0.5625,-2.53 2.39,0.28125 4.07625,-0.5625 6.18375,-0.7025 2.53125,-0.14 5.06,-1.265 7.73125,-0.42125 6.60625,0.98375 11.38375,-1.6875 17.71,-0.28125 0.14,0.7025 1.125,0.28125 1.68625,0.28125 m -1.40625,15.60125 -0.42125,0 0.14125,0.4225 0.28,-0.4225 z m -99.6525,38.3725 c -1.26625,1.68625 -1.54625,3.93625 -2.39,5.9025 l 0.5625,0 c 0.42125,-1.96625 1.8275,-3.935 1.8275,-5.9025 m 38.7925,36.545 -0.5625,0.8425 0.5625,-0.8425 z m 35.42,0.9825 c -0.28125,1.6875 0.70375,2.9525 0,4.2175 1.40625,-1.125 0.42125,-2.53 0,-4.2175 m 3.51375,6.60625 -0.14,-1.26375 -0.28125,1.26375 0.42125,0 z m 14.75875,0.845 c 0.985,1.26375 -0.7025,2.1075 -0.42125,3.51375 0.9825,1.12375 -0.28125,2.67 0.14,3.65375 -0.28125,1.265 1.40625,2.39 -0.14,2.95125 0.42125,1.265 0.56125,2.81125 1.26375,3.795 -0.56125,-2.81125 -0.56125,-6.88625 0,-9.6975 -0.56125,-1.54625 -0.56125,-4.07625 0,-5.6225 -0.98375,-0.28125 -0.28125,1.265 -0.8425,1.40625 m -18.2725,-0.4225 c -0.42125,1.8275 -0.7025,7.0275 0.14125,8.57375 0,-3.51375 0.14,-5.2 -0.14125,-8.57375 m 41.0425,13.2125 -0.5625,0 c -0.42125,0.14 -0.42125,0.98375 -0.14,1.12375 l 0.7025,-1.12375 z m -22.48875,2.39 0.14,1.12375 -0.14,-1.12375 z m 101.06,0 -1.8275,0 c 0.5625,0.14 1.405,0.28125 1.8275,0.8425 l 0,-0.8425 z m -19.3975,0.98375 1.125,0 -1.125,0 z m 20.24125,0 c 0,0.7025 1.12375,0.56125 1.545,0.28 l -1.545,-0.28 z m -101.90375,1.26375 0.14,2.9525 -0.14,-2.9525 z m -9.98,12.36875 -0.14,-1.12375 -0.28125,1.405 0.42125,-0.28125 z m 0,27.54875 -0.42125,0 0,0.4225 0.42125,0 0,-0.4225 z m 0.84375,2.10875 -0.28125,-1.54625 0,1.54625 0.28125,0 z"
         style="fill:#000000;fill-opacity:1;fill-rule:nonzero;stroke:none"
         id="path180"
         inkscape:connector-curvature="0" />
      <path
         d="m 467.81225,736.55073 c -0.2825,1.405 1.265,3.09125 -0.56375,3.65375 -0.14,0.7025 -0.28,1.96875 0.28125,2.38875 -1.545,1.54625 1.6875,4.49875 -1.545,4.3575 0.28125,-0.7025 -0.5625,-0.7025 -0.7025,-0.98375 l -0.28125,0 c 0.14,-0.84375 0.14,-2.38875 0,-3.2325 0.98375,-2.25 -0.985,-5.06125 0.5625,-7.02875 1.405,-0.42125 1.405,0.70375 2.24875,0.845"
         style="fill:#000000;fill-opacity:1;fill-rule:nonzero;stroke:none"
         id="path182"
         inkscape:connector-curvature="0" />
      <path
         d="m 455.72475,751.02573 -0.5625,0 0,-0.56125 0.5625,0 0,0.56125 z"
         style="fill:#000000;fill-opacity:1;fill-rule:nonzero;stroke:none"
         id="path184"
         inkscape:connector-curvature="0" />
      <path
         d="m 466.82725,756.36823 c -0.42125,1.68625 0.985,4.78 -1.26375,5.06 l 0,-0.14 c -0.4225,-0.28125 -0.98375,0.7025 -1.26625,-0.14 -0.98375,-0.42375 -0.28125,-1.82875 -1.405,-2.25 0.28125,-1.6875 1.96875,-4.92 3.935,-2.53"
         style="fill:#000000;fill-opacity:1;fill-rule:nonzero;stroke:none"
         id="path186"
         inkscape:connector-curvature="0" />
      <path
         d="m 537.92975,724.99198 2.08625,-0.03 c -0.40625,-0.025 -0.7425,-0.0538 -1.06875,-0.0788 l -1.0175,0.10875 z"
         style="fill:#000000;fill-opacity:1;fill-rule:nonzero;stroke:none"
         id="path496"
         inkscape:connector-curvature="0" />
      <path
         d="m 538.94725,724.88323 3.64125,-0.39125 c -5.51875,0.15125 -5.21875,0.26875 -3.64125,0.39125"
         style="fill:#000000;fill-opacity:1;fill-rule:nonzero;stroke:none"
         id="path498"
         inkscape:connector-curvature="0" />
    </g>
  </g>
</svg>
