<?xml version="1.0" encoding="UTF-8" standalone="no"?>
<!DOCTYPE svg PUBLIC "-//W3C//DTD SVG 1.1//EN"
 "http://www.w3.org/Graphics/SVG/1.1/DTD/svg11.dtd">
<!-- Generated by graphviz version 2.26.3 (20100126.1600)
 -->
<!-- Title: G Pages: 1 -->
<svg width="1016pt" height="146pt"
 viewBox="0.00 0.00 1016.00 146.00" xmlns="http://www.w3.org/2000/svg" xmlns:xlink="http://www.w3.org/1999/xlink">
<g id="graph1" class="graph" transform="scale(1 1) rotate(0) translate(4 142)">
<title>G</title>
<polygon fill="white" stroke="white" points="-4,5 -4,-142 1013,-142 1013,5 -4,5"/>
<!-- Node1 -->
<g id="node1" class="node"><title>Node1</title>
<polygon fill="#bfbfbf" stroke="black" points="329.5,-116.5 329.5,-137.5 502.5,-137.5 502.5,-116.5 329.5,-116.5"/>
<text text-anchor="middle" x="416" y="-124.5" font-family="DejaVuSans" font-size="10.00">src/Widgets/AdvantagesWidget.h</text>
</g>
<!-- Node2 -->
<g id="node3" class="node"><title>Node2</title>
<polygon fill="white" stroke="#bfbfbf" points="-0.5,-58.5 -0.5,-79.5 80.5,-79.5 80.5,-58.5 -0.5,-58.5"/>
<text text-anchor="middle" x="40" y="-66.5" font-family="DejaVuSans" font-size="10.00">QVBoxLayout</text>
</g>
<!-- Node1&#45;&gt;Node2 -->
<g id="edge2" class="edge"><title>Node1&#45;&gt;Node2</title>
<path fill="none" stroke="midnightblue" d="M329.64,-116.457C265.993,-108.252 177.117,-95.8906 90.5847,-80.1979"/>
<polygon fill="midnightblue" stroke="midnightblue" points="91.0587,-76.7266 80.5919,-78.3688 89.7982,-83.6122 91.0587,-76.7266"/>
</g>
<!-- Node3 -->
<g id="node5" class="node"><title>Node3</title>
<polygon fill="white" stroke="#bfbfbf" points="98,-58.5 98,-79.5 174,-79.5 174,-58.5 98,-58.5"/>
<text text-anchor="middle" x="136" y="-66.5" font-family="DejaVuSans" font-size="10.00">QGridLayout</text>
</g>
<!-- Node1&#45;&gt;Node3 -->
<g id="edge4" class="edge"><title>Node1&#45;&gt;Node3</title>
<path fill="none" stroke="midnightblue" d="M361.29,-116.459C316.225,-107.664 250.408,-94.5613 183.997,-80.1752"/>
<polygon fill="midnightblue" stroke="midnightblue" points="184.713,-76.749 174.197,-78.0437 183.225,-83.5891 184.713,-76.749"/>
</g>
<!-- Node4 -->
<g id="node7" class="node"><title>Node4</title>
<polygon fill="white" stroke="#bfbfbf" points="192,-58.5 192,-79.5 242,-79.5 242,-58.5 192,-58.5"/>
<text text-anchor="middle" x="217" y="-66.5" font-family="DejaVuSans" font-size="10.00">QLabel</text>
</g>
<!-- Node1&#45;&gt;Node4 -->
<g id="edge6" class="edge"><title>Node1&#45;&gt;Node4</title>
<path fill="none" stroke="midnightblue" d="M377.546,-116.462C346.128,-107.759 300.342,-94.8659 251.933,-80.2207"/>
<polygon fill="midnightblue" stroke="midnightblue" points="252.805,-76.8279 242.22,-77.269 250.77,-83.5254 252.805,-76.8279"/>
</g>
<!-- Node5 -->
<g id="node9" class="node"><title>Node5</title>
<polygon fill="white" stroke="#bfbfbf" points="259.5,-58.5 259.5,-79.5 322.5,-79.5 322.5,-58.5 259.5,-58.5"/>
<text text-anchor="middle" x="291" y="-66.5" font-family="DejaVuSans" font-size="10.00">QSpinBox</text>
</g>
<!-- Node1&#45;&gt;Node5 -->
<g id="edge8" class="edge"><title>Node1&#45;&gt;Node5</title>
<path fill="none" stroke="midnightblue" d="M393.363,-116.497C373.752,-107.397 345.154,-94.1273 323.167,-83.9253"/>
<polygon fill="midnightblue" stroke="midnightblue" points="324.435,-80.6554 313.891,-79.6212 321.488,-87.0051 324.435,-80.6554"/>
</g>
<!-- Node6 -->
<g id="node11" class="node"><title>Node6</title>
<a xlink:href="_trait_dots_8h.html" target="_top" xlink:title="TraitDots.h">
<polygon fill="white" stroke="black" points="340,-58.5 340,-79.5 408,-79.5 408,-58.5 340,-58.5"/>
<text text-anchor="middle" x="374" y="-66.5" font-family="DejaVuSans" font-size="10.00">TraitDots.h</text>
</a>
</g>
<!-- Node1&#45;&gt;Node6 -->
<g id="edge10" class="edge"><title>Node1&#45;&gt;Node6</title>
<path fill="none" stroke="midnightblue" d="M408.297,-116.362C402.554,-108.431 394.557,-97.3885 387.73,-87.9606"/>
<polygon fill="midnightblue" stroke="midnightblue" points="390.355,-85.6173 381.655,-79.5707 384.685,-89.7229 390.355,-85.6173"/>
</g>
<!-- Node10 -->
<g id="node19" class="node"><title>Node10</title>
<polygon fill="white" stroke="#bfbfbf" points="490,-0.5 490,-21.5 546,-21.5 546,-0.5 490,-0.5"/>
<text text-anchor="middle" x="518" y="-8.5" font-family="DejaVuSans" font-size="10.00">QWidget</text>
</g>
<!-- Node1&#45;&gt;Node10 -->
<g id="edge36" class="edge"><title>Node1&#45;&gt;Node10</title>
<path fill="none" stroke="midnightblue" d="M446.909,-116.39C464.568,-108.833 485.765,-96.9785 499,-80 509.713,-66.2563 514.391,-46.8618 516.43,-32.1333"/>
<polygon fill="midnightblue" stroke="midnightblue" points="519.936,-32.2691 517.532,-21.9506 512.977,-31.516 519.936,-32.2691"/>
</g>
<!-- Node11 -->
<g id="node21" class="node"><title>Node11</title>
<a xlink:href="_squares_8h.html" target="_top" xlink:title="Squares.h">
<polygon fill="white" stroke="black" points="425.5,-58.5 425.5,-79.5 490.5,-79.5 490.5,-58.5 425.5,-58.5"/>
<text text-anchor="middle" x="458" y="-66.5" font-family="DejaVuSans" font-size="10.00">Squares.h</text>
</a>
</g>
<!-- Node1&#45;&gt;Node11 -->
<g id="edge20" class="edge"><title>Node1&#45;&gt;Node11</title>
<path fill="none" stroke="midnightblue" d="M423.703,-116.362C429.446,-108.431 437.443,-97.3885 444.27,-87.9606"/>
<polygon fill="midnightblue" stroke="midnightblue" points="447.315,-89.7229 450.345,-79.5707 441.645,-85.6173 447.315,-89.7229"/>
</g>
<!-- Node12 -->
<g id="node27" class="node"><title>Node12</title>
<polygon fill="white" stroke="#bfbfbf" points="545.5,-58.5 545.5,-79.5 694.5,-79.5 694.5,-58.5 545.5,-58.5"/>
<text text-anchor="middle" x="620" y="-66.5" font-family="DejaVuSans" font-size="10.00">Storage/StorageTemplate.h</text>
</g>
<!-- Node1&#45;&gt;Node12 -->
<g id="edge30" class="edge"><title>Node1&#45;&gt;Node12</title>
<path fill="none" stroke="midnightblue" d="M452.943,-116.497C486.632,-106.918 536.573,-92.7196 573.074,-82.3418"/>
<polygon fill="midnightblue" stroke="midnightblue" points="574.326,-85.6245 582.988,-79.5231 572.412,-78.8913 574.326,-85.6245"/>
</g>
<!-- Node13 -->
<g id="node29" class="node"><title>Node13</title>
<polygon fill="white" stroke="#bfbfbf" points="712,-58.5 712,-79.5 864,-79.5 864,-58.5 712,-58.5"/>
<text text-anchor="middle" x="788" y="-66.5" font-family="DejaVuSans" font-size="10.00">Storage/StorageCharacter.h</text>
</g>
<!-- Node1&#45;&gt;Node13 -->
<g id="edge32" class="edge"><title>Node1&#45;&gt;Node13</title>
<path fill="none" stroke="midnightblue" d="M483.366,-116.497C547.294,-106.529 643.311,-91.5591 710.411,-81.0973"/>
<polygon fill="midnightblue" stroke="midnightblue" points="711.166,-84.5219 720.507,-79.5231 710.087,-77.6055 711.166,-84.5219"/>
</g>
<!-- Node14 -->
<g id="node31" class="node"><title>Node14</title>
<polygon fill="white" stroke="#bfbfbf" points="882,-58.5 882,-79.5 1008,-79.5 1008,-58.5 882,-58.5"/>
<text text-anchor="middle" x="945" y="-66.5" font-family="DejaVuSans" font-size="10.00">Calc/CalcAdvantages.h</text>
</g>
<!-- Node1&#45;&gt;Node14 -->
<g id="edge34" class="edge"><title>Node1&#45;&gt;Node14</title>
<path fill="none" stroke="midnightblue" d="M502.906,-119.343C592.703,-111.138 737.172,-97.1267 871.726,-80.1164"/>
<polygon fill="midnightblue" stroke="midnightblue" points="872.33,-83.5679 881.809,-78.8338 871.447,-76.6239 872.33,-83.5679"/>
</g>
<!-- Node7 -->
<g id="node13" class="node"><title>Node7</title>
<polygon fill="white" stroke="#bfbfbf" points="297.5,-0.5 297.5,-21.5 346.5,-21.5 346.5,-0.5 297.5,-0.5"/>
<text text-anchor="middle" x="322" y="-8.5" font-family="DejaVuSans" font-size="10.00">QColor</text>
</g>
<!-- Node6&#45;&gt;Node7 -->
<g id="edge12" class="edge"><title>Node6&#45;&gt;Node7</title>
<path fill="none" stroke="midnightblue" d="M364.462,-58.3619C357.132,-50.1861 346.837,-38.7025 338.219,-29.0907"/>
<polygon fill="midnightblue" stroke="midnightblue" points="340.759,-26.68 331.477,-21.5707 335.547,-31.3528 340.759,-26.68"/>
</g>
<!-- Node8 -->
<g id="node15" class="node"><title>Node8</title>
<polygon fill="white" stroke="#bfbfbf" points="363.5,-0.5 363.5,-21.5 404.5,-21.5 404.5,-0.5 363.5,-0.5"/>
<text text-anchor="middle" x="384" y="-8.5" font-family="DejaVuSans" font-size="10.00">QList</text>
</g>
<!-- Node6&#45;&gt;Node8 -->
<g id="edge14" class="edge"><title>Node6&#45;&gt;Node8</title>
<path fill="none" stroke="midnightblue" d="M375.834,-58.3619C377.131,-50.8401 378.911,-40.5187 380.477,-31.4308"/>
<polygon fill="midnightblue" stroke="midnightblue" points="383.927,-32.02 382.177,-21.5707 377.029,-30.8306 383.927,-32.02"/>
</g>
<!-- Node9 -->
<g id="node17" class="node"><title>Node9</title>
<polygon fill="white" stroke="#bfbfbf" points="421.5,-0.5 421.5,-21.5 472.5,-21.5 472.5,-0.5 421.5,-0.5"/>
<text text-anchor="middle" x="447" y="-8.5" font-family="DejaVuSans" font-size="10.00">QEvent</text>
</g>
<!-- Node6&#45;&gt;Node9 -->
<g id="edge16" class="edge"><title>Node6&#45;&gt;Node9</title>
<path fill="none" stroke="midnightblue" d="M387.389,-58.3619C398.091,-49.859 413.296,-37.7785 425.671,-27.9466"/>
<polygon fill="midnightblue" stroke="midnightblue" points="428.043,-30.5318 433.696,-21.5707 423.689,-25.0511 428.043,-30.5318"/>
</g>
<!-- Node6&#45;&gt;Node10 -->
<g id="edge18" class="edge"><title>Node6&#45;&gt;Node10</title>
<path fill="none" stroke="midnightblue" d="M400.077,-58.4966C423.075,-49.2337 456.8,-35.6499 482.3,-25.3793"/>
<polygon fill="midnightblue" stroke="midnightblue" points="483.662,-28.6039 491.63,-21.6212 481.047,-22.1108 483.662,-28.6039"/>
</g>
<!-- Node11&#45;&gt;Node7 -->
<g id="edge22" class="edge"><title>Node11&#45;&gt;Node7</title>
<path fill="none" stroke="midnightblue" d="M433.371,-58.4966C411.843,-49.3154 380.36,-35.8889 356.355,-25.6516"/>
<polygon fill="midnightblue" stroke="midnightblue" points="357.476,-22.3247 346.905,-21.6212 354.73,-28.7636 357.476,-22.3247"/>
</g>
<!-- Node11&#45;&gt;Node8 -->
<g id="edge24" class="edge"><title>Node11&#45;&gt;Node8</title>
<path fill="none" stroke="midnightblue" d="M444.427,-58.3619C433.579,-49.859 418.166,-37.7785 405.621,-27.9466"/>
<polygon fill="midnightblue" stroke="midnightblue" points="407.516,-24.9848 397.487,-21.5707 403.198,-30.4942 407.516,-24.9848"/>
</g>
<!-- Node11&#45;&gt;Node9 -->
<g id="edge26" class="edge"><title>Node11&#45;&gt;Node9</title>
<path fill="none" stroke="midnightblue" d="M455.982,-58.3619C454.556,-50.8401 452.598,-40.5187 450.875,-31.4308"/>
<polygon fill="midnightblue" stroke="midnightblue" points="454.307,-30.7433 449.005,-21.5707 447.429,-32.0477 454.307,-30.7433"/>
</g>
<!-- Node11&#45;&gt;Node10 -->
<g id="edge28" class="edge"><title>Node11&#45;&gt;Node10</title>
<path fill="none" stroke="midnightblue" d="M469.005,-58.3619C477.547,-50.1043 489.58,-38.4725 499.583,-28.8029"/>
<polygon fill="midnightblue" stroke="midnightblue" points="502.308,-31.0374 507.065,-21.5707 497.442,-26.0044 502.308,-31.0374"/>
</g>
</g>
</svg>
