<?xml version="1.0" encoding="UTF-8" standalone="no"?>
<!DOCTYPE svg PUBLIC "-//W3C//DTD SVG 1.1//EN"
 "http://www.w3.org/Graphics/SVG/1.1/DTD/svg11.dtd">
<!-- Generated by graphviz version 2.26.3 (20100126.1600)
 -->
<!-- Title: G Pages: 1 -->
<svg width="680pt" height="146pt"
 viewBox="0.00 0.00 680.00 146.00" xmlns="http://www.w3.org/2000/svg" xmlns:xlink="http://www.w3.org/1999/xlink">
<g id="graph1" class="graph" transform="scale(1 1) rotate(0) translate(4 142)">
<title>G</title>
<polygon fill="white" stroke="white" points="-4,5 -4,-142 677,-142 677,5 -4,5"/>
<!-- Node1 -->
<g id="node1" class="node"><title>Node1</title>
<polygon fill="#bfbfbf" stroke="black" points="245.5,-116.5 245.5,-137.5 418.5,-137.5 418.5,-116.5 245.5,-116.5"/>
<text text-anchor="middle" x="332" y="-124.5" font-family="DejaVuSans" font-size="10.00">src/Widgets/AdvantagesWidget.h</text>
</g>
<!-- Node2 -->
<g id="node3" class="node"><title>Node2</title>
<polygon fill="white" stroke="#bfbfbf" points="-0.5,-58.5 -0.5,-79.5 80.5,-79.5 80.5,-58.5 -0.5,-58.5"/>
<text text-anchor="middle" x="40" y="-66.5" font-family="DejaVuSans" font-size="10.00">QVBoxLayout</text>
</g>
<!-- Node1&#45;&gt;Node2 -->
<g id="edge2" class="edge"><title>Node1&#45;&gt;Node2</title>
<path fill="none" stroke="midnightblue" d="M274.949,-116.462C227.955,-107.668 159.316,-94.5671 90.737,-80.326"/>
<polygon fill="midnightblue" stroke="midnightblue" points="91.1256,-76.8318 80.6217,-78.2169 89.6968,-83.6844 91.1256,-76.8318"/>
</g>
<!-- Node3 -->
<g id="node5" class="node"><title>Node3</title>
<polygon fill="white" stroke="#bfbfbf" points="98,-58.5 98,-79.5 174,-79.5 174,-58.5 98,-58.5"/>
<text text-anchor="middle" x="136" y="-66.5" font-family="DejaVuSans" font-size="10.00">QGridLayout</text>
</g>
<!-- Node1&#45;&gt;Node3 -->
<g id="edge4" class="edge"><title>Node1&#45;&gt;Node3</title>
<path fill="none" stroke="midnightblue" d="M296.506,-116.497C264.276,-106.959 216.566,-92.8408 181.536,-82.475"/>
<polygon fill="midnightblue" stroke="midnightblue" points="182.143,-79.0045 171.561,-79.5231 180.156,-85.7168 182.143,-79.0045"/>
</g>
<!-- Node4 -->
<g id="node7" class="node"><title>Node4</title>
<polygon fill="white" stroke="#bfbfbf" points="192,-58.5 192,-79.5 242,-79.5 242,-58.5 192,-58.5"/>
<text text-anchor="middle" x="217" y="-66.5" font-family="DejaVuSans" font-size="10.00">QLabel</text>
</g>
<!-- Node1&#45;&gt;Node4 -->
<g id="edge6" class="edge"><title>Node1&#45;&gt;Node4</title>
<path fill="none" stroke="midnightblue" d="M311.174,-116.497C293.294,-107.479 267.293,-94.3649 247.139,-84.2006"/>
<polygon fill="midnightblue" stroke="midnightblue" points="248.564,-80.9994 238.059,-79.6212 245.412,-87.2495 248.564,-80.9994"/>
</g>
<!-- Node5 -->
<g id="node9" class="node"><title>Node5</title>
<polygon fill="white" stroke="#bfbfbf" points="259.5,-58.5 259.5,-79.5 322.5,-79.5 322.5,-58.5 259.5,-58.5"/>
<text text-anchor="middle" x="291" y="-66.5" font-family="DejaVuSans" font-size="10.00">QSpinBox</text>
</g>
<!-- Node1&#45;&gt;Node5 -->
<g id="edge8" class="edge"><title>Node1&#45;&gt;Node5</title>
<path fill="none" stroke="midnightblue" d="M324.48,-116.362C318.874,-108.431 311.068,-97.3885 304.403,-87.9606"/>
<polygon fill="midnightblue" stroke="midnightblue" points="307.103,-85.7161 298.472,-79.5707 301.387,-89.7568 307.103,-85.7161"/>
</g>
<!-- Node6 -->
<g id="node11" class="node"><title>Node6</title>
<a xlink:href="_trait_dots_8h.html" target="_top" xlink:title="TraitDots.h">
<polygon fill="white" stroke="black" points="340,-58.5 340,-79.5 408,-79.5 408,-58.5 340,-58.5"/>
<text text-anchor="middle" x="374" y="-66.5" font-family="DejaVuSans" font-size="10.00">TraitDots.h</text>
</a>
</g>
<!-- Node1&#45;&gt;Node6 -->
<g id="edge10" class="edge"><title>Node1&#45;&gt;Node6</title>
<path fill="none" stroke="midnightblue" d="M339.703,-116.362C345.446,-108.431 353.443,-97.3885 360.27,-87.9606"/>
<polygon fill="midnightblue" stroke="midnightblue" points="363.315,-89.7229 366.345,-79.5707 357.645,-85.6173 363.315,-89.7229"/>
</g>
<!-- Node10 -->
<g id="node19" class="node"><title>Node10</title>
<polygon fill="white" stroke="#bfbfbf" points="490,-0.5 490,-21.5 546,-21.5 546,-0.5 490,-0.5"/>
<text text-anchor="middle" x="518" y="-8.5" font-family="DejaVuSans" font-size="10.00">QWidget</text>
</g>
<!-- Node1&#45;&gt;Node10 -->
<g id="edge32" class="edge"><title>Node1&#45;&gt;Node10</title>
<path fill="none" stroke="midnightblue" d="M392.449,-116.45C433.838,-108.056 483.868,-95.2173 499,-80 511.619,-67.3094 516.053,-47.0557 517.517,-31.7673"/>
<polygon fill="midnightblue" stroke="midnightblue" points="521.017,-31.8866 518.134,-21.6916 514.03,-31.4593 521.017,-31.8866"/>
</g>
<!-- Node11 -->
<g id="node21" class="node"><title>Node11</title>
<a xlink:href="_squares_8h.html" target="_top" xlink:title="Squares.h">
<polygon fill="white" stroke="black" points="425.5,-58.5 425.5,-79.5 490.5,-79.5 490.5,-58.5 425.5,-58.5"/>
<text text-anchor="middle" x="458" y="-66.5" font-family="DejaVuSans" font-size="10.00">Squares.h</text>
</a>
</g>
<!-- Node1&#45;&gt;Node11 -->
<g id="edge20" class="edge"><title>Node1&#45;&gt;Node11</title>
<path fill="none" stroke="midnightblue" d="M354.818,-116.497C374.586,-107.397 403.413,-94.1273 425.576,-83.9253"/>
<polygon fill="midnightblue" stroke="midnightblue" points="427.306,-86.982 434.926,-79.6212 424.379,-80.6234 427.306,-86.982"/>
</g>
<!-- Node12 -->
<g id="node27" class="node"><title>Node12</title>
<polygon fill="white" stroke="#bfbfbf" points="546,-58.5 546,-79.5 672,-79.5 672,-58.5 546,-58.5"/>
<text text-anchor="middle" x="609" y="-66.5" font-family="DejaVuSans" font-size="10.00">Calc/CalcAdvantages.h</text>
</g>
<!-- Node1&#45;&gt;Node12 -->
<g id="edge30" class="edge"><title>Node1&#45;&gt;Node12</title>
<path fill="none" stroke="midnightblue" d="M382.163,-116.497C428.983,-106.693 498.919,-92.0496 548.746,-81.6165"/>
<polygon fill="midnightblue" stroke="midnightblue" points="549.673,-84.9983 558.743,-79.5231 548.238,-78.1468 549.673,-84.9983"/>
</g>
<!-- Node7 -->
<g id="node13" class="node"><title>Node7</title>
<polygon fill="white" stroke="#bfbfbf" points="297.5,-0.5 297.5,-21.5 346.5,-21.5 346.5,-0.5 297.5,-0.5"/>
<text text-anchor="middle" x="322" y="-8.5" font-family="DejaVuSans" font-size="10.00">QColor</text>
</g>
<!-- Node6&#45;&gt;Node7 -->
<g id="edge12" class="edge"><title>Node6&#45;&gt;Node7</title>
<path fill="none" stroke="midnightblue" d="M364.462,-58.3619C357.132,-50.1861 346.837,-38.7025 338.219,-29.0907"/>
<polygon fill="midnightblue" stroke="midnightblue" points="340.759,-26.68 331.477,-21.5707 335.547,-31.3528 340.759,-26.68"/>
</g>
<!-- Node8 -->
<g id="node15" class="node"><title>Node8</title>
<polygon fill="white" stroke="#bfbfbf" points="363.5,-0.5 363.5,-21.5 404.5,-21.5 404.5,-0.5 363.5,-0.5"/>
<text text-anchor="middle" x="384" y="-8.5" font-family="DejaVuSans" font-size="10.00">QList</text>
</g>
<!-- Node6&#45;&gt;Node8 -->
<g id="edge14" class="edge"><title>Node6&#45;&gt;Node8</title>
<path fill="none" stroke="midnightblue" d="M375.834,-58.3619C377.131,-50.8401 378.911,-40.5187 380.477,-31.4308"/>
<polygon fill="midnightblue" stroke="midnightblue" points="383.927,-32.02 382.177,-21.5707 377.029,-30.8306 383.927,-32.02"/>
</g>
<!-- Node9 -->
<g id="node17" class="node"><title>Node9</title>
<polygon fill="white" stroke="#bfbfbf" points="421.5,-0.5 421.5,-21.5 472.5,-21.5 472.5,-0.5 421.5,-0.5"/>
<text text-anchor="middle" x="447" y="-8.5" font-family="DejaVuSans" font-size="10.00">QEvent</text>
</g>
<!-- Node6&#45;&gt;Node9 -->
<g id="edge16" class="edge"><title>Node6&#45;&gt;Node9</title>
<path fill="none" stroke="midnightblue" d="M387.389,-58.3619C398.091,-49.859 413.296,-37.7785 425.671,-27.9466"/>
<polygon fill="midnightblue" stroke="midnightblue" points="428.043,-30.5318 433.696,-21.5707 423.689,-25.0511 428.043,-30.5318"/>
</g>
<!-- Node6&#45;&gt;Node10 -->
<g id="edge18" class="edge"><title>Node6&#45;&gt;Node10</title>
<path fill="none" stroke="midnightblue" d="M400.077,-58.4966C423.075,-49.2337 456.8,-35.6499 482.3,-25.3793"/>
<polygon fill="midnightblue" stroke="midnightblue" points="483.662,-28.6039 491.63,-21.6212 481.047,-22.1108 483.662,-28.6039"/>
</g>
<!-- Node11&#45;&gt;Node7 -->
<g id="edge22" class="edge"><title>Node11&#45;&gt;Node7</title>
<path fill="none" stroke="midnightblue" d="M433.371,-58.4966C411.843,-49.3154 380.36,-35.8889 356.355,-25.6516"/>
<polygon fill="midnightblue" stroke="midnightblue" points="357.476,-22.3247 346.905,-21.6212 354.73,-28.7636 357.476,-22.3247"/>
</g>
<!-- Node11&#45;&gt;Node8 -->
<g id="edge24" class="edge"><title>Node11&#45;&gt;Node8</title>
<path fill="none" stroke="midnightblue" d="M444.427,-58.3619C433.579,-49.859 418.166,-37.7785 405.621,-27.9466"/>
<polygon fill="midnightblue" stroke="midnightblue" points="407.516,-24.9848 397.487,-21.5707 403.198,-30.4942 407.516,-24.9848"/>
</g>
<!-- Node11&#45;&gt;Node9 -->
<g id="edge26" class="edge"><title>Node11&#45;&gt;Node9</title>
<path fill="none" stroke="midnightblue" d="M455.982,-58.3619C454.556,-50.8401 452.598,-40.5187 450.875,-31.4308"/>
<polygon fill="midnightblue" stroke="midnightblue" points="454.307,-30.7433 449.005,-21.5707 447.429,-32.0477 454.307,-30.7433"/>
</g>
<!-- Node11&#45;&gt;Node10 -->
<g id="edge28" class="edge"><title>Node11&#45;&gt;Node10</title>
<path fill="none" stroke="midnightblue" d="M469.005,-58.3619C477.547,-50.1043 489.58,-38.4725 499.583,-28.8029"/>
<polygon fill="midnightblue" stroke="midnightblue" points="502.308,-31.0374 507.065,-21.5707 497.442,-26.0044 502.308,-31.0374"/>
</g>
</g>
</svg>
