<?xml version="1.0" encoding="UTF-8" standalone="no"?>
<!DOCTYPE svg PUBLIC "-//W3C//DTD SVG 1.1//EN"
 "http://www.w3.org/Graphics/SVG/1.1/DTD/svg11.dtd">
<!-- Generated by graphviz version 2.26.3 (20100126.1600)
 -->
<!-- Title: G Pages: 1 -->
<svg width="1183pt" height="204pt"
 viewBox="0.00 0.00 1183.00 204.00" xmlns="http://www.w3.org/2000/svg" xmlns:xlink="http://www.w3.org/1999/xlink">
<g id="graph1" class="graph" transform="scale(1 1) rotate(0) translate(4 200)">
<title>G</title>
<polygon fill="white" stroke="white" points="-4,5 -4,-200 1180,-200 1180,5 -4,5"/>
<!-- Node1 -->
<g id="node1" class="node"><title>Node1</title>
<polygon fill="#bfbfbf" stroke="black" points="178,-174.5 178,-195.5 362,-195.5 362,-174.5 178,-174.5"/>
<text text-anchor="middle" x="270" y="-182.5" font-family="DejaVuSans" font-size="10.00">src/Widgets/AdvantagesWidget.cpp</text>
</g>
<!-- Node2 -->
<g id="node3" class="node"><title>Node2</title>
<polygon fill="white" stroke="#bfbfbf" points="0,-116.5 0,-137.5 54,-137.5 54,-116.5 0,-116.5"/>
<text text-anchor="middle" x="27" y="-124.5" font-family="DejaVuSans" font-size="10.00">QDialog</text>
</g>
<!-- Node1&#45;&gt;Node2 -->
<g id="edge2" class="edge"><title>Node1&#45;&gt;Node2</title>
<path fill="none" stroke="midnightblue" d="M218.704,-174.447C178.876,-166.005 122.085,-153.43 63.8095,-138.09"/>
<polygon fill="midnightblue" stroke="midnightblue" points="64.6291,-134.686 54.0657,-135.503 62.8325,-141.452 64.6291,-134.686"/>
</g>
<!-- Node3 -->
<g id="node5" class="node"><title>Node3</title>
<polygon fill="white" stroke="#bfbfbf" points="72,-116.5 72,-137.5 128,-137.5 128,-116.5 72,-116.5"/>
<text text-anchor="middle" x="100" y="-124.5" font-family="DejaVuSans" font-size="10.00">QDebug</text>
</g>
<!-- Node1&#45;&gt;Node3 -->
<g id="edge4" class="edge"><title>Node1&#45;&gt;Node3</title>
<path fill="none" stroke="midnightblue" d="M239.214,-174.497C210.76,-164.789 168.395,-150.335 137.877,-139.923"/>
<polygon fill="midnightblue" stroke="midnightblue" points="138.614,-136.476 128.019,-136.559 136.353,-143.101 138.614,-136.476"/>
</g>
<!-- Node4 -->
<g id="node7" class="node"><title>Node4</title>
<polygon fill="white" stroke="#bfbfbf" points="145.5,-116.5 145.5,-137.5 258.5,-137.5 258.5,-116.5 145.5,-116.5"/>
<text text-anchor="middle" x="202" y="-124.5" font-family="DejaVuSans" font-size="10.00">Datatypes/cv_Trait.h</text>
</g>
<!-- Node1&#45;&gt;Node4 -->
<g id="edge6" class="edge"><title>Node1&#45;&gt;Node4</title>
<path fill="none" stroke="midnightblue" d="M257.528,-174.362C247.655,-165.941 233.667,-154.011 222.202,-144.231"/>
<polygon fill="midnightblue" stroke="midnightblue" points="224.273,-141.397 214.393,-137.571 219.73,-146.723 224.273,-141.397"/>
</g>
<!-- Node5 -->
<g id="node9" class="node"><title>Node5</title>
<polygon fill="white" stroke="#bfbfbf" points="275.5,-116.5 275.5,-137.5 402.5,-137.5 402.5,-116.5 275.5,-116.5"/>
<text text-anchor="middle" x="339" y="-124.5" font-family="DejaVuSans" font-size="10.00">Exceptions/Exception.h</text>
</g>
<!-- Node1&#45;&gt;Node5 -->
<g id="edge8" class="edge"><title>Node1&#45;&gt;Node5</title>
<path fill="none" stroke="midnightblue" d="M282.656,-174.362C292.674,-165.941 306.867,-154.011 318.501,-144.231"/>
<polygon fill="midnightblue" stroke="midnightblue" points="321.022,-146.684 326.425,-137.571 316.518,-141.326 321.022,-146.684"/>
</g>
<!-- Node6 -->
<g id="node11" class="node"><title>Node6</title>
<polygon fill="white" stroke="#bfbfbf" points="419.5,-116.5 419.5,-137.5 508.5,-137.5 508.5,-116.5 419.5,-116.5"/>
<text text-anchor="middle" x="464" y="-124.5" font-family="DejaVuSans" font-size="10.00">Config/Config.h</text>
</g>
<!-- Node1&#45;&gt;Node6 -->
<g id="edge10" class="edge"><title>Node1&#45;&gt;Node6</title>
<path fill="none" stroke="midnightblue" d="M305.132,-174.497C337.033,-164.959 384.257,-150.841 418.928,-140.475"/>
<polygon fill="midnightblue" stroke="midnightblue" points="420.224,-143.741 428.802,-137.523 418.219,-137.034 420.224,-143.741"/>
</g>
<!-- Node7 -->
<g id="node13" class="node"><title>Node7</title>
<a xlink:href="_advantages_widget_8h.html" target="_top" xlink:title="AdvantagesWidget.h">
<polygon fill="white" stroke="black" points="525.5,-116.5 525.5,-137.5 640.5,-137.5 640.5,-116.5 525.5,-116.5"/>
<text text-anchor="middle" x="583" y="-124.5" font-family="DejaVuSans" font-size="10.00">AdvantagesWidget.h</text>
</a>
</g>
<!-- Node1&#45;&gt;Node7 -->
<g id="edge12" class="edge"><title>Node1&#45;&gt;Node7</title>
<path fill="none" stroke="midnightblue" d="M326.682,-174.497C380.029,-164.611 459.934,-149.805 516.32,-139.356"/>
<polygon fill="midnightblue" stroke="midnightblue" points="517.017,-142.787 526.212,-137.523 515.741,-135.904 517.017,-142.787"/>
</g>
<!-- Node8 -->
<g id="node15" class="node"><title>Node8</title>
<polygon fill="white" stroke="#bfbfbf" points="166.5,-58.5 166.5,-79.5 247.5,-79.5 247.5,-58.5 166.5,-58.5"/>
<text text-anchor="middle" x="207" y="-66.5" font-family="DejaVuSans" font-size="10.00">QVBoxLayout</text>
</g>
<!-- Node7&#45;&gt;Node8 -->
<g id="edge14" class="edge"><title>Node7&#45;&gt;Node8</title>
<path fill="none" stroke="midnightblue" d="M525.422,-117.306C522.576,-116.857 519.756,-116.42 517,-116 404.402,-98.8548 372.934,-100.723 257.525,-80.1738"/>
<polygon fill="midnightblue" stroke="midnightblue" points="258.05,-76.7123 247.589,-78.3867 256.811,-83.6017 258.05,-76.7123"/>
</g>
<!-- Node9 -->
<g id="node17" class="node"><title>Node9</title>
<polygon fill="white" stroke="#bfbfbf" points="265,-58.5 265,-79.5 341,-79.5 341,-58.5 265,-58.5"/>
<text text-anchor="middle" x="303" y="-66.5" font-family="DejaVuSans" font-size="10.00">QGridLayout</text>
</g>
<!-- Node7&#45;&gt;Node9 -->
<g id="edge16" class="edge"><title>Node7&#45;&gt;Node9</title>
<path fill="none" stroke="midnightblue" d="M528.29,-116.459C483.225,-107.664 417.408,-94.5613 350.997,-80.1752"/>
<polygon fill="midnightblue" stroke="midnightblue" points="351.713,-76.749 341.197,-78.0437 350.225,-83.5891 351.713,-76.749"/>
</g>
<!-- Node10 -->
<g id="node19" class="node"><title>Node10</title>
<polygon fill="white" stroke="#bfbfbf" points="359,-58.5 359,-79.5 409,-79.5 409,-58.5 359,-58.5"/>
<text text-anchor="middle" x="384" y="-66.5" font-family="DejaVuSans" font-size="10.00">QLabel</text>
</g>
<!-- Node7&#45;&gt;Node10 -->
<g id="edge18" class="edge"><title>Node7&#45;&gt;Node10</title>
<path fill="none" stroke="midnightblue" d="M544.546,-116.462C513.128,-107.759 467.342,-94.8659 418.933,-80.2207"/>
<polygon fill="midnightblue" stroke="midnightblue" points="419.805,-76.8279 409.22,-77.269 417.77,-83.5254 419.805,-76.8279"/>
</g>
<!-- Node11 -->
<g id="node21" class="node"><title>Node11</title>
<polygon fill="white" stroke="#bfbfbf" points="426.5,-58.5 426.5,-79.5 489.5,-79.5 489.5,-58.5 426.5,-58.5"/>
<text text-anchor="middle" x="458" y="-66.5" font-family="DejaVuSans" font-size="10.00">QSpinBox</text>
</g>
<!-- Node7&#45;&gt;Node11 -->
<g id="edge20" class="edge"><title>Node7&#45;&gt;Node11</title>
<path fill="none" stroke="midnightblue" d="M560.363,-116.497C540.752,-107.397 512.154,-94.1273 490.167,-83.9253"/>
<polygon fill="midnightblue" stroke="midnightblue" points="491.435,-80.6554 480.891,-79.6212 488.488,-87.0051 491.435,-80.6554"/>
</g>
<!-- Node12 -->
<g id="node23" class="node"><title>Node12</title>
<a xlink:href="_trait_dots_8h.html" target="_top" xlink:title="TraitDots.h">
<polygon fill="white" stroke="black" points="507,-58.5 507,-79.5 575,-79.5 575,-58.5 507,-58.5"/>
<text text-anchor="middle" x="541" y="-66.5" font-family="DejaVuSans" font-size="10.00">TraitDots.h</text>
</a>
</g>
<!-- Node7&#45;&gt;Node12 -->
<g id="edge22" class="edge"><title>Node7&#45;&gt;Node12</title>
<path fill="none" stroke="midnightblue" d="M575.297,-116.362C569.554,-108.431 561.557,-97.3885 554.73,-87.9606"/>
<polygon fill="midnightblue" stroke="midnightblue" points="557.355,-85.6173 548.655,-79.5707 551.685,-89.7229 557.355,-85.6173"/>
</g>
<!-- Node16 -->
<g id="node31" class="node"><title>Node16</title>
<polygon fill="white" stroke="#bfbfbf" points="657,-0.5 657,-21.5 713,-21.5 713,-0.5 657,-0.5"/>
<text text-anchor="middle" x="685" y="-8.5" font-family="DejaVuSans" font-size="10.00">QWidget</text>
</g>
<!-- Node7&#45;&gt;Node16 -->
<g id="edge48" class="edge"><title>Node7&#45;&gt;Node16</title>
<path fill="none" stroke="midnightblue" d="M613.909,-116.39C631.568,-108.833 652.765,-96.9785 666,-80 676.713,-66.2563 681.391,-46.8618 683.43,-32.1333"/>
<polygon fill="midnightblue" stroke="midnightblue" points="686.936,-32.2691 684.532,-21.9506 679.977,-31.516 686.936,-32.2691"/>
</g>
<!-- Node17 -->
<g id="node33" class="node"><title>Node17</title>
<a xlink:href="_squares_8h.html" target="_top" xlink:title="Squares.h">
<polygon fill="white" stroke="black" points="592.5,-58.5 592.5,-79.5 657.5,-79.5 657.5,-58.5 592.5,-58.5"/>
<text text-anchor="middle" x="625" y="-66.5" font-family="DejaVuSans" font-size="10.00">Squares.h</text>
</a>
</g>
<!-- Node7&#45;&gt;Node17 -->
<g id="edge32" class="edge"><title>Node7&#45;&gt;Node17</title>
<path fill="none" stroke="midnightblue" d="M590.703,-116.362C596.446,-108.431 604.443,-97.3885 611.27,-87.9606"/>
<polygon fill="midnightblue" stroke="midnightblue" points="614.315,-89.7229 617.345,-79.5707 608.645,-85.6173 614.315,-89.7229"/>
</g>
<!-- Node18 -->
<g id="node39" class="node"><title>Node18</title>
<polygon fill="white" stroke="#bfbfbf" points="712.5,-58.5 712.5,-79.5 861.5,-79.5 861.5,-58.5 712.5,-58.5"/>
<text text-anchor="middle" x="787" y="-66.5" font-family="DejaVuSans" font-size="10.00">Storage/StorageTemplate.h</text>
</g>
<!-- Node7&#45;&gt;Node18 -->
<g id="edge42" class="edge"><title>Node7&#45;&gt;Node18</title>
<path fill="none" stroke="midnightblue" d="M619.943,-116.497C653.632,-106.918 703.573,-92.7196 740.074,-82.3418"/>
<polygon fill="midnightblue" stroke="midnightblue" points="741.326,-85.6245 749.988,-79.5231 739.412,-78.8913 741.326,-85.6245"/>
</g>
<!-- Node19 -->
<g id="node41" class="node"><title>Node19</title>
<polygon fill="white" stroke="#bfbfbf" points="879,-58.5 879,-79.5 1031,-79.5 1031,-58.5 879,-58.5"/>
<text text-anchor="middle" x="955" y="-66.5" font-family="DejaVuSans" font-size="10.00">Storage/StorageCharacter.h</text>
</g>
<!-- Node7&#45;&gt;Node19 -->
<g id="edge44" class="edge"><title>Node7&#45;&gt;Node19</title>
<path fill="none" stroke="midnightblue" d="M640.717,-118.001C704.225,-108.099 806.636,-92.132 877.198,-81.1304"/>
<polygon fill="midnightblue" stroke="midnightblue" points="878.028,-84.5434 887.369,-79.5445 876.95,-77.6269 878.028,-84.5434"/>
</g>
<!-- Node20 -->
<g id="node43" class="node"><title>Node20</title>
<polygon fill="white" stroke="#bfbfbf" points="1049,-58.5 1049,-79.5 1175,-79.5 1175,-58.5 1049,-58.5"/>
<text text-anchor="middle" x="1112" y="-66.5" font-family="DejaVuSans" font-size="10.00">Calc/CalcAdvantages.h</text>
</g>
<!-- Node7&#45;&gt;Node20 -->
<g id="edge46" class="edge"><title>Node7&#45;&gt;Node20</title>
<path fill="none" stroke="midnightblue" d="M640.818,-121.971C725.692,-114.387 889.243,-99.0024 1038.54,-80.1395"/>
<polygon fill="midnightblue" stroke="midnightblue" points="1039.33,-83.5674 1048.81,-78.8338 1038.45,-76.6234 1039.33,-83.5674"/>
</g>
<!-- Node13 -->
<g id="node25" class="node"><title>Node13</title>
<polygon fill="white" stroke="#bfbfbf" points="464.5,-0.5 464.5,-21.5 513.5,-21.5 513.5,-0.5 464.5,-0.5"/>
<text text-anchor="middle" x="489" y="-8.5" font-family="DejaVuSans" font-size="10.00">QColor</text>
</g>
<!-- Node12&#45;&gt;Node13 -->
<g id="edge24" class="edge"><title>Node12&#45;&gt;Node13</title>
<path fill="none" stroke="midnightblue" d="M531.462,-58.3619C524.132,-50.1861 513.837,-38.7025 505.219,-29.0907"/>
<polygon fill="midnightblue" stroke="midnightblue" points="507.759,-26.68 498.477,-21.5707 502.547,-31.3528 507.759,-26.68"/>
</g>
<!-- Node14 -->
<g id="node27" class="node"><title>Node14</title>
<polygon fill="white" stroke="#bfbfbf" points="530.5,-0.5 530.5,-21.5 571.5,-21.5 571.5,-0.5 530.5,-0.5"/>
<text text-anchor="middle" x="551" y="-8.5" font-family="DejaVuSans" font-size="10.00">QList</text>
</g>
<!-- Node12&#45;&gt;Node14 -->
<g id="edge26" class="edge"><title>Node12&#45;&gt;Node14</title>
<path fill="none" stroke="midnightblue" d="M542.834,-58.3619C544.131,-50.8401 545.911,-40.5187 547.477,-31.4308"/>
<polygon fill="midnightblue" stroke="midnightblue" points="550.927,-32.02 549.177,-21.5707 544.029,-30.8306 550.927,-32.02"/>
</g>
<!-- Node15 -->
<g id="node29" class="node"><title>Node15</title>
<polygon fill="white" stroke="#bfbfbf" points="588.5,-0.5 588.5,-21.5 639.5,-21.5 639.5,-0.5 588.5,-0.5"/>
<text text-anchor="middle" x="614" y="-8.5" font-family="DejaVuSans" font-size="10.00">QEvent</text>
</g>
<!-- Node12&#45;&gt;Node15 -->
<g id="edge28" class="edge"><title>Node12&#45;&gt;Node15</title>
<path fill="none" stroke="midnightblue" d="M554.389,-58.3619C565.091,-49.859 580.296,-37.7785 592.671,-27.9466"/>
<polygon fill="midnightblue" stroke="midnightblue" points="595.043,-30.5318 600.696,-21.5707 590.689,-25.0511 595.043,-30.5318"/>
</g>
<!-- Node12&#45;&gt;Node16 -->
<g id="edge30" class="edge"><title>Node12&#45;&gt;Node16</title>
<path fill="none" stroke="midnightblue" d="M567.077,-58.4966C590.075,-49.2337 623.8,-35.6499 649.3,-25.3793"/>
<polygon fill="midnightblue" stroke="midnightblue" points="650.662,-28.6039 658.63,-21.6212 648.047,-22.1108 650.662,-28.6039"/>
</g>
<!-- Node17&#45;&gt;Node13 -->
<g id="edge34" class="edge"><title>Node17&#45;&gt;Node13</title>
<path fill="none" stroke="midnightblue" d="M600.371,-58.4966C578.843,-49.3154 547.36,-35.8889 523.355,-25.6516"/>
<polygon fill="midnightblue" stroke="midnightblue" points="524.476,-22.3247 513.905,-21.6212 521.73,-28.7636 524.476,-22.3247"/>
</g>
<!-- Node17&#45;&gt;Node14 -->
<g id="edge36" class="edge"><title>Node17&#45;&gt;Node14</title>
<path fill="none" stroke="midnightblue" d="M611.427,-58.3619C600.579,-49.859 585.166,-37.7785 572.621,-27.9466"/>
<polygon fill="midnightblue" stroke="midnightblue" points="574.516,-24.9848 564.487,-21.5707 570.198,-30.4942 574.516,-24.9848"/>
</g>
<!-- Node17&#45;&gt;Node15 -->
<g id="edge38" class="edge"><title>Node17&#45;&gt;Node15</title>
<path fill="none" stroke="midnightblue" d="M622.982,-58.3619C621.556,-50.8401 619.598,-40.5187 617.875,-31.4308"/>
<polygon fill="midnightblue" stroke="midnightblue" points="621.307,-30.7433 616.005,-21.5707 614.429,-32.0477 621.307,-30.7433"/>
</g>
<!-- Node17&#45;&gt;Node16 -->
<g id="edge40" class="edge"><title>Node17&#45;&gt;Node16</title>
<path fill="none" stroke="midnightblue" d="M636.005,-58.3619C644.547,-50.1043 656.58,-38.4725 666.583,-28.8029"/>
<polygon fill="midnightblue" stroke="midnightblue" points="669.308,-31.0374 674.065,-21.5707 664.442,-26.0044 669.308,-31.0374"/>
</g>
</g>
</svg>
