<?xml version="1.0" encoding="UTF-8" standalone="no"?>
<!DOCTYPE svg PUBLIC "-//W3C//DTD SVG 1.1//EN"
 "http://www.w3.org/Graphics/SVG/1.1/DTD/svg11.dtd">
<!-- Generated by graphviz version 2.26.3 (20100126.1600)
 -->
<!-- Title: G Pages: 1 -->
<svg width="1562pt" height="436pt"
 viewBox="0.00 0.00 1562.00 436.00" xmlns="http://www.w3.org/2000/svg" xmlns:xlink="http://www.w3.org/1999/xlink">
<g id="graph1" class="graph" transform="scale(1 1) rotate(0) translate(4 432)">
<title>G</title>
<polygon fill="white" stroke="white" points="-4,5 -4,-432 1559,-432 1559,5 -4,5"/>
<!-- Node1 -->
<g id="node1" class="node"><title>Node1</title>
<polygon fill="#bfbfbf" stroke="black" points="282.5,-406.5 282.5,-427.5 455.5,-427.5 455.5,-406.5 282.5,-406.5"/>
<text text-anchor="middle" x="369" y="-414.5" font-family="DejaVuSans" font-size="10.00">src/Widgets/AdvantagesWidget.h</text>
</g>
<!-- Node2 -->
<g id="node3" class="node"><title>Node2</title>
<polygon fill="white" stroke="#bfbfbf" points="-0.5,-348.5 -0.5,-369.5 80.5,-369.5 80.5,-348.5 -0.5,-348.5"/>
<text text-anchor="middle" x="40" y="-356.5" font-family="DejaVuSans" font-size="10.00">QVBoxLayout</text>
</g>
<!-- Node1&#45;&gt;Node2 -->
<g id="edge2" class="edge"><title>Node1&#45;&gt;Node2</title>
<path fill="none" stroke="midnightblue" d="M299.769,-406.456C245.316,-397.914 167.305,-385.134 90.4579,-370.22"/>
<polygon fill="midnightblue" stroke="midnightblue" points="91.0916,-366.778 80.606,-368.295 89.7491,-373.648 91.0916,-366.778"/>
</g>
<!-- Node3 -->
<g id="node5" class="node"><title>Node3</title>
<polygon fill="white" stroke="#bfbfbf" points="98,-348.5 98,-369.5 174,-369.5 174,-348.5 98,-348.5"/>
<text text-anchor="middle" x="136" y="-356.5" font-family="DejaVuSans" font-size="10.00">QGridLayout</text>
</g>
<!-- Node1&#45;&gt;Node3 -->
<g id="edge4" class="edge"><title>Node1&#45;&gt;Node3</title>
<path fill="none" stroke="midnightblue" d="M326.805,-406.497C286.498,-396.463 225.823,-381.359 183.761,-370.889"/>
<polygon fill="midnightblue" stroke="midnightblue" points="184.572,-367.484 174.023,-368.465 182.882,-374.277 184.572,-367.484"/>
</g>
<!-- Node4 -->
<g id="node7" class="node"><title>Node4</title>
<polygon fill="white" stroke="#bfbfbf" points="192,-348.5 192,-369.5 242,-369.5 242,-348.5 192,-348.5"/>
<text text-anchor="middle" x="217" y="-356.5" font-family="DejaVuSans" font-size="10.00">QLabel</text>
</g>
<!-- Node1&#45;&gt;Node4 -->
<g id="edge6" class="edge"><title>Node1&#45;&gt;Node4</title>
<path fill="none" stroke="midnightblue" d="M341.474,-406.497C316.33,-396.902 279.037,-382.672 251.828,-372.29"/>
<polygon fill="midnightblue" stroke="midnightblue" points="252.892,-368.949 242.301,-368.654 250.396,-375.489 252.892,-368.949"/>
</g>
<!-- Node5 -->
<g id="node9" class="node"><title>Node5</title>
<polygon fill="white" stroke="#bfbfbf" points="259.5,-348.5 259.5,-369.5 322.5,-369.5 322.5,-348.5 259.5,-348.5"/>
<text text-anchor="middle" x="291" y="-356.5" font-family="DejaVuSans" font-size="10.00">QSpinBox</text>
</g>
<!-- Node1&#45;&gt;Node5 -->
<g id="edge8" class="edge"><title>Node1&#45;&gt;Node5</title>
<path fill="none" stroke="midnightblue" d="M354.694,-406.362C343.149,-397.777 326.7,-385.546 313.41,-375.664"/>
<polygon fill="midnightblue" stroke="midnightblue" points="315.329,-372.729 305.216,-369.571 311.152,-378.346 315.329,-372.729"/>
</g>
<!-- Node6 -->
<g id="node11" class="node"><title>Node6</title>
<a xlink:href="_trait_dots_8h.html" target="_top" xlink:title="TraitDots.h">
<polygon fill="white" stroke="black" points="354,-290.5 354,-311.5 422,-311.5 422,-290.5 354,-290.5"/>
<text text-anchor="middle" x="388" y="-298.5" font-family="DejaVuSans" font-size="10.00">TraitDots.h</text>
</a>
</g>
<!-- Node1&#45;&gt;Node6 -->
<g id="edge10" class="edge"><title>Node1&#45;&gt;Node6</title>
<path fill="none" stroke="midnightblue" d="M370.753,-406.295C373.892,-387.131 380.522,-346.654 384.586,-321.843"/>
<polygon fill="midnightblue" stroke="midnightblue" points="388.088,-322.113 386.251,-311.679 381.18,-320.982 388.088,-322.113"/>
</g>
<!-- Node10 -->
<g id="node19" class="node"><title>Node10</title>
<polygon fill="white" stroke="#bfbfbf" points="259,-232.5 259,-253.5 315,-253.5 315,-232.5 259,-232.5"/>
<text text-anchor="middle" x="287" y="-240.5" font-family="DejaVuSans" font-size="10.00">QWidget</text>
</g>
<!-- Node1&#45;&gt;Node10 -->
<g id="edge128" class="edge"><title>Node1&#45;&gt;Node10</title>
<path fill="none" stroke="midnightblue" d="M363.994,-406.377C350.645,-378.051 314.026,-300.349 296.54,-263.242"/>
<polygon fill="midnightblue" stroke="midnightblue" points="299.579,-261.481 292.15,-253.928 293.247,-264.466 299.579,-261.481"/>
</g>
<!-- Node11 -->
<g id="node21" class="node"><title>Node11</title>
<a xlink:href="_squares_8h.html" target="_top" xlink:title="Squares.h">
<polygon fill="white" stroke="black" points="439.5,-290.5 439.5,-311.5 504.5,-311.5 504.5,-290.5 439.5,-290.5"/>
<text text-anchor="middle" x="472" y="-298.5" font-family="DejaVuSans" font-size="10.00">Squares.h</text>
</a>
</g>
<!-- Node1&#45;&gt;Node11 -->
<g id="edge20" class="edge"><title>Node1&#45;&gt;Node11</title>
<path fill="none" stroke="midnightblue" d="M378.505,-406.295C396.134,-386.441 434.077,-343.709 455.818,-319.224"/>
<polygon fill="midnightblue" stroke="midnightblue" points="458.495,-321.481 462.518,-311.679 453.261,-316.833 458.495,-321.481"/>
</g>
<!-- Node12 -->
<g id="node27" class="node"><title>Node12</title>
<a xlink:href="_storage_template_8h.html" target="_top" xlink:title="../Storage/StorageTemplate.h">
<polygon fill="white" stroke="black" points="543,-232.5 543,-253.5 701,-253.5 701,-232.5 543,-232.5"/>
<text text-anchor="middle" x="622" y="-240.5" font-family="DejaVuSans" font-size="10.00">../Storage/StorageTemplate.h</text>
</a>
</g>
<!-- Node1&#45;&gt;Node12 -->
<g id="edge30" class="edge"><title>Node1&#45;&gt;Node12</title>
<path fill="none" stroke="midnightblue" d="M384.445,-406.377C427.054,-377.073 546.497,-294.927 597.936,-259.55"/>
<polygon fill="midnightblue" stroke="midnightblue" points="600.179,-262.255 606.435,-253.705 596.212,-256.488 600.179,-262.255"/>
</g>
<!-- Node25 -->
<g id="node70" class="node"><title>Node25</title>
<a xlink:href="_storage_character_8h.html" target="_top" xlink:title="../Storage/StorageCharacter.h">
<polygon fill="white" stroke="black" points="705.5,-290.5 705.5,-311.5 866.5,-311.5 866.5,-290.5 705.5,-290.5"/>
<text text-anchor="middle" x="786" y="-298.5" font-family="DejaVuSans" font-size="10.00">../Storage/StorageCharacter.h</text>
</a>
</g>
<!-- Node1&#45;&gt;Node25 -->
<g id="edge90" class="edge"><title>Node1&#45;&gt;Node25</title>
<path fill="none" stroke="midnightblue" d="M427.302,-406.428C471.48,-397.936 533.5,-384.983 587,-370 644.618,-353.864 709.883,-330.165 749.478,-315.164"/>
<polygon fill="midnightblue" stroke="midnightblue" points="750.872,-318.378 758.971,-311.548 748.38,-311.837 750.872,-318.378"/>
</g>
<!-- Node27 -->
<g id="node82" class="node"><title>Node27</title>
<a xlink:href="_calc_advantages_8h.html" target="_top" xlink:title="../Calc/CalcAdvantages.h">
<polygon fill="white" stroke="black" points="919.5,-348.5 919.5,-369.5 1054.5,-369.5 1054.5,-348.5 919.5,-348.5"/>
<text text-anchor="middle" x="987" y="-356.5" font-family="DejaVuSans" font-size="10.00">../Calc/CalcAdvantages.h</text>
</a>
</g>
<!-- Node1&#45;&gt;Node27 -->
<g id="edge110" class="edge"><title>Node1&#45;&gt;Node27</title>
<path fill="none" stroke="midnightblue" d="M455.581,-408.874C576.181,-397.556 792.939,-377.213 908.855,-366.334"/>
<polygon fill="midnightblue" stroke="midnightblue" points="909.441,-369.794 919.07,-365.375 908.787,-362.825 909.441,-369.794"/>
</g>
<!-- Node7 -->
<g id="node13" class="node"><title>Node7</title>
<polygon fill="white" stroke="#bfbfbf" points="438.5,-232.5 438.5,-253.5 487.5,-253.5 487.5,-232.5 438.5,-232.5"/>
<text text-anchor="middle" x="463" y="-240.5" font-family="DejaVuSans" font-size="10.00">QColor</text>
</g>
<!-- Node6&#45;&gt;Node7 -->
<g id="edge12" class="edge"><title>Node6&#45;&gt;Node7</title>
<path fill="none" stroke="midnightblue" d="M401.756,-290.362C412.751,-281.859 428.373,-269.779 441.086,-259.947"/>
<polygon fill="midnightblue" stroke="midnightblue" points="443.562,-262.457 449.331,-253.571 439.279,-256.919 443.562,-262.457"/>
</g>
<!-- Node8 -->
<g id="node15" class="node"><title>Node8</title>
<polygon fill="white" stroke="#bfbfbf" points="465.5,-58.5 465.5,-79.5 506.5,-79.5 506.5,-58.5 465.5,-58.5"/>
<text text-anchor="middle" x="486" y="-66.5" font-family="DejaVuSans" font-size="10.00">QList</text>
</g>
<!-- Node6&#45;&gt;Node8 -->
<g id="edge14" class="edge"><title>Node6&#45;&gt;Node8</title>
<path fill="none" stroke="midnightblue" d="M379.167,-290.328C369.121,-276.84 354.966,-252.865 362,-232 382.662,-170.713 436.565,-114.226 466.04,-86.6601"/>
<polygon fill="midnightblue" stroke="midnightblue" points="468.654,-89.0112 473.657,-79.672 463.922,-83.8529 468.654,-89.0112"/>
</g>
<!-- Node9 -->
<g id="node17" class="node"><title>Node9</title>
<polygon fill="white" stroke="#bfbfbf" points="370.5,-232.5 370.5,-253.5 421.5,-253.5 421.5,-232.5 370.5,-232.5"/>
<text text-anchor="middle" x="396" y="-240.5" font-family="DejaVuSans" font-size="10.00">QEvent</text>
</g>
<!-- Node6&#45;&gt;Node9 -->
<g id="edge16" class="edge"><title>Node6&#45;&gt;Node9</title>
<path fill="none" stroke="midnightblue" d="M389.467,-290.362C390.494,-282.922 391.898,-272.743 393.141,-263.728"/>
<polygon fill="midnightblue" stroke="midnightblue" points="396.643,-263.955 394.542,-253.571 389.708,-262.999 396.643,-263.955"/>
</g>
<!-- Node6&#45;&gt;Node10 -->
<g id="edge18" class="edge"><title>Node6&#45;&gt;Node10</title>
<path fill="none" stroke="midnightblue" d="M369.475,-290.362C354.099,-281.532 332.004,-268.844 314.553,-258.822"/>
<polygon fill="midnightblue" stroke="midnightblue" points="315.822,-255.515 305.408,-253.571 312.336,-261.586 315.822,-255.515"/>
</g>
<!-- Node11&#45;&gt;Node7 -->
<g id="edge22" class="edge"><title>Node11&#45;&gt;Node7</title>
<path fill="none" stroke="midnightblue" d="M470.349,-290.362C469.195,-282.922 467.615,-272.743 466.216,-263.728"/>
<polygon fill="midnightblue" stroke="midnightblue" points="469.632,-262.916 464.64,-253.571 462.715,-263.989 469.632,-262.916"/>
</g>
<!-- Node11&#45;&gt;Node8 -->
<g id="edge24" class="edge"><title>Node11&#45;&gt;Node8</title>
<path fill="none" stroke="midnightblue" d="M479.284,-290.372C485.099,-281.201 492.786,-267.362 496,-254 503.373,-223.348 493.591,-131.165 488.603,-89.6555"/>
<polygon fill="midnightblue" stroke="midnightblue" points="492.062,-89.1017 487.369,-79.6027 485.114,-89.9547 492.062,-89.1017"/>
</g>
<!-- Node11&#45;&gt;Node9 -->
<g id="edge26" class="edge"><title>Node11&#45;&gt;Node9</title>
<path fill="none" stroke="midnightblue" d="M458.06,-290.362C446.812,-281.777 430.784,-269.546 417.835,-259.664"/>
<polygon fill="midnightblue" stroke="midnightblue" points="419.924,-256.855 409.851,-253.571 415.677,-262.42 419.924,-256.855"/>
</g>
<!-- Node11&#45;&gt;Node10 -->
<g id="edge28" class="edge"><title>Node11&#45;&gt;Node10</title>
<path fill="none" stroke="midnightblue" d="M439.352,-290.764C407.39,-280.744 358.72,-265.485 325.028,-254.922"/>
<polygon fill="midnightblue" stroke="midnightblue" points="325.677,-251.458 315.088,-251.806 323.583,-258.137 325.677,-251.458"/>
</g>
<!-- Node12&#45;&gt;Node8 -->
<g id="edge32" class="edge"><title>Node12&#45;&gt;Node8</title>
<path fill="none" stroke="midnightblue" d="M599.282,-232.484C583.58,-224.312 563.067,-211.73 549,-196 520.305,-163.911 501.412,-116.388 492.322,-89.4994"/>
<polygon fill="midnightblue" stroke="midnightblue" points="495.542,-88.0835 489.123,-79.6546 488.885,-90.2468 495.542,-88.0835"/>
</g>
<!-- Node13 -->
<g id="node30" class="node"><title>Node13</title>
<polygon fill="white" stroke="#bfbfbf" points="562.5,-0.5 562.5,-21.5 631.5,-21.5 631.5,-0.5 562.5,-0.5"/>
<text text-anchor="middle" x="597" y="-8.5" font-family="DejaVuSans" font-size="10.00">QStringList</text>
</g>
<!-- Node12&#45;&gt;Node13 -->
<g id="edge34" class="edge"><title>Node12&#45;&gt;Node13</title>
<path fill="none" stroke="midnightblue" d="M590.575,-232.415C570.923,-224.635 546.012,-212.533 528,-196 483.469,-155.126 473.392,-138.181 457,-80 454.348,-70.5886 451.291,-65.9383 457,-58 468.391,-42.1605 515.718,-28.543 552.227,-20.1037"/>
<polygon fill="midnightblue" stroke="midnightblue" points="553.21,-23.4703 562.199,-17.8631 551.675,-16.6406 553.21,-23.4703"/>
</g>
<!-- Node14 -->
<g id="node32" class="node"><title>Node14</title>
<a xlink:href="cv___trait_8h.html" target="_top" xlink:title="../Datatypes/cv_Trait.h">
<polygon fill="white" stroke="black" points="782,-174.5 782,-195.5 904,-195.5 904,-174.5 782,-174.5"/>
<text text-anchor="middle" x="843" y="-182.5" font-family="DejaVuSans" font-size="10.00">../Datatypes/cv_Trait.h</text>
</a>
</g>
<!-- Node12&#45;&gt;Node14 -->
<g id="edge36" class="edge"><title>Node12&#45;&gt;Node14</title>
<path fill="none" stroke="midnightblue" d="M662.021,-232.497C698.83,-222.836 753.546,-208.477 793.174,-198.077"/>
<polygon fill="midnightblue" stroke="midnightblue" points="794.12,-201.447 802.904,-195.523 792.343,-194.676 794.12,-201.447"/>
</g>
<!-- Node20 -->
<g id="node53" class="node"><title>Node20</title>
<a xlink:href="cv___identity_list_8h.html" target="_top" xlink:title="../Datatypes/cv_IdentityList.h">
<polygon fill="white" stroke="black" points="557.5,-174.5 557.5,-195.5 712.5,-195.5 712.5,-174.5 557.5,-174.5"/>
<text text-anchor="middle" x="635" y="-182.5" font-family="DejaVuSans" font-size="10.00">../Datatypes/cv_IdentityList.h</text>
</a>
</g>
<!-- Node12&#45;&gt;Node20 -->
<g id="edge66" class="edge"><title>Node12&#45;&gt;Node20</title>
<path fill="none" stroke="midnightblue" d="M624.384,-232.362C626.07,-224.84 628.384,-214.519 630.421,-205.431"/>
<polygon fill="midnightblue" stroke="midnightblue" points="633.859,-206.094 632.631,-195.571 627.028,-204.563 633.859,-206.094"/>
</g>
<!-- Node23 -->
<g id="node65" class="node"><title>Node23</title>
<a xlink:href="cv___super_effect_8h.html" target="_top" xlink:title="../Datatypes/cv_SuperEffect.h">
<polygon fill="white" stroke="black" points="1012,-116.5 1012,-137.5 1170,-137.5 1170,-116.5 1012,-116.5"/>
<text text-anchor="middle" x="1091" y="-124.5" font-family="DejaVuSans" font-size="10.00">../Datatypes/cv_SuperEffect.h</text>
</a>
</g>
<!-- Node12&#45;&gt;Node23 -->
<g id="edge84" class="edge"><title>Node12&#45;&gt;Node23</title>
<path fill="none" stroke="midnightblue" d="M701.125,-238.035C760.768,-232.442 843.828,-220.661 913,-196 931.382,-189.447 933.216,-182.035 951,-174 980.757,-160.556 1015.56,-148.856 1043.02,-140.492"/>
<polygon fill="midnightblue" stroke="midnightblue" points="1044.2,-143.79 1052.78,-137.565 1042.19,-137.085 1044.2,-143.79"/>
</g>
<!-- Node24 -->
<g id="node68" class="node"><title>Node24</title>
<polygon fill="white" stroke="#bfbfbf" points="959.5,-174.5 959.5,-195.5 1014.5,-195.5 1014.5,-174.5 959.5,-174.5"/>
<text text-anchor="middle" x="987" y="-182.5" font-family="DejaVuSans" font-size="10.00">QObject</text>
</g>
<!-- Node12&#45;&gt;Node24 -->
<g id="edge88" class="edge"><title>Node12&#45;&gt;Node24</title>
<path fill="none" stroke="midnightblue" d="M701.017,-234.184C766.901,-226.201 863.051,-213.082 946,-196 947.083,-195.777 948.179,-195.542 949.285,-195.298"/>
<polygon fill="midnightblue" stroke="midnightblue" points="950.404,-198.63 959.317,-192.902 948.778,-191.821 950.404,-198.63"/>
</g>
<!-- Node14&#45;&gt;Node8 -->
<g id="edge42" class="edge"><title>Node14&#45;&gt;Node8</title>
<path fill="none" stroke="midnightblue" d="M781.763,-180.95C728.598,-175.771 650.411,-164.099 587,-138 584.864,-137.121 538.972,-105.561 509.792,-85.4324"/>
<polygon fill="midnightblue" stroke="midnightblue" points="511.558,-82.3985 501.339,-79.5994 507.582,-88.1599 511.558,-82.3985"/>
</g>
<!-- Node14&#45;&gt;Node13 -->
<g id="edge44" class="edge"><title>Node14&#45;&gt;Node13</title>
<path fill="none" stroke="midnightblue" d="M820.279,-174.327C802.106,-165.448 776.244,-152.034 755,-138 702.082,-103.042 645.371,-54.367 616.431,-28.6106"/>
<polygon fill="midnightblue" stroke="midnightblue" points="618.486,-25.7533 608.702,-21.6883 613.816,-30.9674 618.486,-25.7533"/>
</g>
<!-- Node15 -->
<g id="node34" class="node"><title>Node15</title>
<polygon fill="white" stroke="#bfbfbf" points="869.5,-116.5 869.5,-137.5 918.5,-137.5 918.5,-116.5 869.5,-116.5"/>
<text text-anchor="middle" x="894" y="-124.5" font-family="DejaVuSans" font-size="10.00">QFlags</text>
</g>
<!-- Node14&#45;&gt;Node15 -->
<g id="edge38" class="edge"><title>Node14&#45;&gt;Node15</title>
<path fill="none" stroke="midnightblue" d="M852.354,-174.362C859.543,-166.186 869.641,-154.702 878.093,-145.091"/>
<polygon fill="midnightblue" stroke="midnightblue" points="880.73,-147.392 884.705,-137.571 875.473,-142.769 880.73,-147.392"/>
</g>
<!-- Node16 -->
<g id="node36" class="node"><title>Node16</title>
<polygon fill="white" stroke="#bfbfbf" points="972.5,-0.5 972.5,-21.5 1025.5,-21.5 1025.5,-0.5 972.5,-0.5"/>
<text text-anchor="middle" x="999" y="-8.5" font-family="DejaVuSans" font-size="10.00">QString</text>
</g>
<!-- Node14&#45;&gt;Node16 -->
<g id="edge40" class="edge"><title>Node14&#45;&gt;Node16</title>
<path fill="none" stroke="midnightblue" d="M870.054,-174.439C887.851,-166.468 910.766,-154.143 927,-138 958.574,-106.603 980.72,-58.4895 991.509,-31.3886"/>
<polygon fill="midnightblue" stroke="midnightblue" points="994.875,-32.3851 995.2,-21.7953 988.342,-29.8712 994.875,-32.3851"/>
</g>
<!-- Node17 -->
<g id="node40" class="node"><title>Node17</title>
<a xlink:href="cv___species_8h.html" target="_top" xlink:title="cv_Species.h">
<polygon fill="white" stroke="black" points="1012.5,-58.5 1012.5,-79.5 1091.5,-79.5 1091.5,-58.5 1012.5,-58.5"/>
<text text-anchor="middle" x="1052" y="-66.5" font-family="DejaVuSans" font-size="10.00">cv_Species.h</text>
</a>
</g>
<!-- Node14&#45;&gt;Node17 -->
<g id="edge46" class="edge"><title>Node14&#45;&gt;Node17</title>
<path fill="none" stroke="midnightblue" d="M875.573,-174.5C899.645,-166.132 932.818,-153.302 960,-138 986.464,-123.102 1013.96,-101.548 1031.92,-86.5071"/>
<polygon fill="midnightblue" stroke="midnightblue" points="1034.57,-88.8477 1039.92,-79.7045 1030.04,-83.514 1034.57,-88.8477"/>
</g>
<!-- Node18 -->
<g id="node43" class="node"><title>Node18</title>
<a xlink:href="cv___trait_detail_8h.html" target="_top" xlink:title="cv_TraitDetail.h">
<polygon fill="white" stroke="black" points="763.5,-116.5 763.5,-137.5 852.5,-137.5 852.5,-116.5 763.5,-116.5"/>
<text text-anchor="middle" x="808" y="-124.5" font-family="DejaVuSans" font-size="10.00">cv_TraitDetail.h</text>
</a>
</g>
<!-- Node14&#45;&gt;Node18 -->
<g id="edge50" class="edge"><title>Node14&#45;&gt;Node18</title>
<path fill="none" stroke="midnightblue" d="M836.58,-174.362C831.844,-166.513 825.268,-155.616 819.618,-146.253"/>
<polygon fill="midnightblue" stroke="midnightblue" points="822.542,-144.324 814.379,-137.571 816.549,-147.941 822.542,-144.324"/>
</g>
<!-- Node19 -->
<g id="node49" class="node"><title>Node19</title>
<a xlink:href="cv___abstract_trait_8h.html" target="_top" xlink:title="cv_AbstractTrait.h">
<polygon fill="white" stroke="black" points="1225.5,-116.5 1225.5,-137.5 1326.5,-137.5 1326.5,-116.5 1225.5,-116.5"/>
<text text-anchor="middle" x="1276" y="-124.5" font-family="DejaVuSans" font-size="10.00">cv_AbstractTrait.h</text>
</a>
</g>
<!-- Node14&#45;&gt;Node19 -->
<g id="edge60" class="edge"><title>Node14&#45;&gt;Node19</title>
<path fill="none" stroke="midnightblue" d="M904.12,-176.813C986.697,-165.752 1133.01,-146.153 1215.35,-135.124"/>
<polygon fill="midnightblue" stroke="midnightblue" points="1215.86,-138.587 1225.31,-133.79 1214.93,-131.649 1215.86,-138.587"/>
</g>
<!-- Node17&#45;&gt;Node16 -->
<g id="edge48" class="edge"><title>Node17&#45;&gt;Node16</title>
<path fill="none" stroke="midnightblue" d="M1042.28,-58.3619C1034.81,-50.1861 1024.31,-38.7025 1015.53,-29.0907"/>
<polygon fill="midnightblue" stroke="midnightblue" points="1017.99,-26.5918 1008.66,-21.5707 1012.82,-31.3138 1017.99,-26.5918"/>
</g>
<!-- Node18&#45;&gt;Node8 -->
<g id="edge54" class="edge"><title>Node18&#45;&gt;Node8</title>
<path fill="none" stroke="midnightblue" d="M763.227,-118.935C696.691,-106.951 573.446,-84.7511 516.413,-74.4782"/>
<polygon fill="midnightblue" stroke="midnightblue" points="517.025,-71.0322 506.563,-72.7039 515.784,-77.9213 517.025,-71.0322"/>
</g>
<!-- Node18&#45;&gt;Node13 -->
<g id="edge56" class="edge"><title>Node18&#45;&gt;Node13</title>
<path fill="none" stroke="midnightblue" d="M801.909,-116.479C792.619,-101.347 773.486,-73.5526 750,-58 717.178,-36.2648 673.828,-24.1924 641.654,-17.7444"/>
<polygon fill="midnightblue" stroke="midnightblue" points="642.104,-14.2676 631.627,-15.8434 640.8,-21.145 642.104,-14.2676"/>
</g>
<!-- Node18&#45;&gt;Node16 -->
<g id="edge52" class="edge"><title>Node18&#45;&gt;Node16</title>
<path fill="none" stroke="midnightblue" d="M825.626,-116.295C859.398,-95.7846 933.369,-50.8594 972.89,-26.8575"/>
<polygon fill="midnightblue" stroke="midnightblue" points="974.962,-29.6942 981.692,-21.5117 971.328,-23.7111 974.962,-29.6942"/>
</g>
<!-- Node18&#45;&gt;Node17 -->
<g id="edge58" class="edge"><title>Node18&#45;&gt;Node17</title>
<path fill="none" stroke="midnightblue" d="M852.187,-116.497C894.486,-106.442 958.204,-91.2957 1002.26,-80.8227"/>
<polygon fill="midnightblue" stroke="midnightblue" points="1003.26,-84.1828 1012.18,-78.465 1001.64,-77.3725 1003.26,-84.1828"/>
</g>
<!-- Node19&#45;&gt;Node16 -->
<g id="edge62" class="edge"><title>Node19&#45;&gt;Node16</title>
<path fill="none" stroke="midnightblue" d="M1250.44,-116.295C1200.53,-95.3952 1090.09,-49.1446 1033.66,-25.5132"/>
<polygon fill="midnightblue" stroke="midnightblue" points="1034.68,-22.1461 1024.1,-21.5117 1031.97,-28.6028 1034.68,-22.1461"/>
</g>
<!-- Node19&#45;&gt;Node17 -->
<g id="edge64" class="edge"><title>Node19&#45;&gt;Node17</title>
<path fill="none" stroke="midnightblue" d="M1235.44,-116.497C1197.78,-106.746 1141.63,-92.2077 1101.38,-81.786"/>
<polygon fill="midnightblue" stroke="midnightblue" points="1102.07,-78.349 1091.51,-79.2305 1100.31,-85.1255 1102.07,-78.349"/>
</g>
<!-- Node20&#45;&gt;Node8 -->
<g id="edge82" class="edge"><title>Node20&#45;&gt;Node8</title>
<path fill="none" stroke="midnightblue" d="M613.38,-174.478C596.471,-165.782 572.763,-152.539 554,-138 534.44,-122.844 514.903,-102.318 501.823,-87.6012"/>
<polygon fill="midnightblue" stroke="midnightblue" points="504.13,-84.922 494.916,-79.6916 498.857,-89.5262 504.13,-84.922"/>
</g>
<!-- Node20&#45;&gt;Node16 -->
<g id="edge68" class="edge"><title>Node20&#45;&gt;Node16</title>
<path fill="none" stroke="midnightblue" d="M652.206,-174.426C675.258,-160.418 717.602,-135.238 755,-116 810.179,-87.6145 824.972,-82.4607 882,-58 908.932,-46.4479 939.693,-34.1248 962.912,-24.9962"/>
<polygon fill="midnightblue" stroke="midnightblue" points="964.335,-28.1981 972.369,-21.2912 961.781,-21.6805 964.335,-28.1981"/>
</g>
<!-- Node21 -->
<g id="node56" class="node"><title>Node21</title>
<a xlink:href="cv___identity_8h.html" target="_top" xlink:title="cv_Identity.h">
<polygon fill="white" stroke="black" points="595.5,-116.5 595.5,-137.5 670.5,-137.5 670.5,-116.5 595.5,-116.5"/>
<text text-anchor="middle" x="633" y="-124.5" font-family="DejaVuSans" font-size="10.00">cv_Identity.h</text>
</a>
</g>
<!-- Node20&#45;&gt;Node21 -->
<g id="edge70" class="edge"><title>Node20&#45;&gt;Node21</title>
<path fill="none" stroke="midnightblue" d="M634.633,-174.362C634.377,-166.922 634.026,-156.743 633.715,-147.728"/>
<polygon fill="midnightblue" stroke="midnightblue" points="637.207,-147.444 633.365,-137.571 630.211,-147.685 637.207,-147.444"/>
</g>
<!-- Node21&#45;&gt;Node13 -->
<g id="edge72" class="edge"><title>Node21&#45;&gt;Node13</title>
<path fill="none" stroke="midnightblue" d="M599.451,-116.403C582.31,-109.091 563.002,-97.4759 553,-80 542.664,-61.9391 558.558,-41.958 574.052,-28.1662"/>
<polygon fill="midnightblue" stroke="midnightblue" points="576.536,-30.6523 581.976,-21.5611 572.054,-25.2752 576.536,-30.6523"/>
</g>
<!-- Node21&#45;&gt;Node16 -->
<g id="edge74" class="edge"><title>Node21&#45;&gt;Node16</title>
<path fill="none" stroke="midnightblue" d="M637.617,-116.28C644.965,-100.631 660.891,-71.89 684,-58 730.299,-30.1715 889.424,-17.4434 962.176,-12.9764"/>
<polygon fill="midnightblue" stroke="midnightblue" points="962.485,-16.4643 972.26,-12.3765 962.069,-9.47666 962.485,-16.4643"/>
</g>
<!-- Node22 -->
<g id="node60" class="node"><title>Node22</title>
<a xlink:href="cv___name_8h.html" target="_top" xlink:title="cv_Name.h">
<polygon fill="white" stroke="black" points="561.5,-58.5 561.5,-79.5 632.5,-79.5 632.5,-58.5 561.5,-58.5"/>
<text text-anchor="middle" x="597" y="-66.5" font-family="DejaVuSans" font-size="10.00">cv_Name.h</text>
</a>
</g>
<!-- Node21&#45;&gt;Node22 -->
<g id="edge76" class="edge"><title>Node21&#45;&gt;Node22</title>
<path fill="none" stroke="midnightblue" d="M626.397,-116.362C621.525,-108.513 614.762,-97.6159 608.95,-88.2527"/>
<polygon fill="midnightblue" stroke="midnightblue" points="611.809,-86.2213 603.561,-79.5707 605.861,-89.9129 611.809,-86.2213"/>
</g>
<!-- Node22&#45;&gt;Node13 -->
<g id="edge78" class="edge"><title>Node22&#45;&gt;Node13</title>
<path fill="none" stroke="midnightblue" d="M597,-58.3619C597,-50.9219 597,-40.7427 597,-31.7276"/>
<polygon fill="midnightblue" stroke="midnightblue" points="600.5,-31.5706 597,-21.5707 593.5,-31.5707 600.5,-31.5706"/>
</g>
<!-- Node22&#45;&gt;Node16 -->
<g id="edge80" class="edge"><title>Node22&#45;&gt;Node16</title>
<path fill="none" stroke="midnightblue" d="M632.52,-60.6385C637.045,-59.6877 641.623,-58.7812 646,-58 760.732,-37.5253 897.899,-21.7197 962.252,-14.8087"/>
<polygon fill="midnightblue" stroke="midnightblue" points="962.733,-18.2773 972.306,-13.7379 961.992,-11.3167 962.733,-18.2773"/>
</g>
<!-- Node23&#45;&gt;Node17 -->
<g id="edge86" class="edge"><title>Node23&#45;&gt;Node17</title>
<path fill="none" stroke="midnightblue" d="M1083.85,-116.362C1078.51,-108.431 1071.09,-97.3885 1064.75,-87.9606"/>
<polygon fill="midnightblue" stroke="midnightblue" points="1067.59,-85.9161 1059.11,-79.5707 1061.78,-89.8221 1067.59,-85.9161"/>
</g>
<!-- Node25&#45;&gt;Node12 -->
<g id="edge106" class="edge"><title>Node25&#45;&gt;Node12</title>
<path fill="none" stroke="midnightblue" d="M756.301,-290.497C729.68,-281.082 690.438,-267.204 661.239,-256.877"/>
<polygon fill="midnightblue" stroke="midnightblue" points="662.35,-253.558 651.755,-253.523 660.016,-260.157 662.35,-253.558"/>
</g>
<!-- Node25&#45;&gt;Node14 -->
<g id="edge96" class="edge"><title>Node25&#45;&gt;Node14</title>
<path fill="none" stroke="midnightblue" d="M791.26,-290.295C800.804,-270.872 821.106,-229.556 833.248,-204.846"/>
<polygon fill="midnightblue" stroke="midnightblue" points="836.484,-206.198 837.752,-195.679 830.201,-203.111 836.484,-206.198"/>
</g>
<!-- Node25&#45;&gt;Node20 -->
<g id="edge94" class="edge"><title>Node25&#45;&gt;Node20</title>
<path fill="none" stroke="midnightblue" d="M775.21,-290.062C760.943,-275.874 734.714,-250.729 710,-232 695.031,-220.656 677.259,-209.431 662.773,-200.796"/>
<polygon fill="midnightblue" stroke="midnightblue" points="664.186,-197.567 653.791,-195.521 660.641,-203.603 664.186,-197.567"/>
</g>
<!-- Node25&#45;&gt;Node21 -->
<g id="edge92" class="edge"><title>Node25&#45;&gt;Node21</title>
<path fill="none" stroke="midnightblue" d="M783.014,-290.5C775.863,-266.973 755.72,-209.333 721,-174 707.402,-160.162 688.855,-149.435 672.294,-141.746"/>
<polygon fill="midnightblue" stroke="midnightblue" points="673.387,-138.403 662.825,-137.57 670.562,-144.808 673.387,-138.403"/>
</g>
<!-- Node25&#45;&gt;Node24 -->
<g id="edge108" class="edge"><title>Node25&#45;&gt;Node24</title>
<path fill="none" stroke="midnightblue" d="M804.549,-290.295C840.239,-269.698 918.591,-224.48 960.047,-200.555"/>
<polygon fill="midnightblue" stroke="midnightblue" points="961.874,-203.542 968.786,-195.512 958.375,-197.479 961.874,-203.542"/>
</g>
<!-- Node26 -->
<g id="node75" class="node"><title>Node26</title>
<a xlink:href="cv___derangement_8h.html" target="_top" xlink:title="../Datatypes/cv_Derangement.h">
<polygon fill="white" stroke="black" points="1152,-174.5 1152,-195.5 1322,-195.5 1322,-174.5 1152,-174.5"/>
<text text-anchor="middle" x="1237" y="-182.5" font-family="DejaVuSans" font-size="10.00">../Datatypes/cv_Derangement.h</text>
</a>
</g>
<!-- Node25&#45;&gt;Node26 -->
<g id="edge98" class="edge"><title>Node25&#45;&gt;Node26</title>
<path fill="none" stroke="midnightblue" d="M827.219,-290.398C910.008,-269.104 1096.26,-221.199 1186.33,-198.033"/>
<polygon fill="midnightblue" stroke="midnightblue" points="1187.23,-201.416 1196.04,-195.535 1185.48,-194.637 1187.23,-201.416"/>
</g>
<!-- Node26&#45;&gt;Node16 -->
<g id="edge100" class="edge"><title>Node26&#45;&gt;Node16</title>
<path fill="none" stroke="midnightblue" d="M1276.31,-174.494C1311.48,-163.089 1354.69,-142.848 1335,-116 1298.94,-66.8283 1114.96,-30.518 1035.56,-16.8937"/>
<polygon fill="midnightblue" stroke="midnightblue" points="1035.96,-13.4124 1025.52,-15.1966 1034.8,-20.3145 1035.96,-13.4124"/>
</g>
<!-- Node26&#45;&gt;Node17 -->
<g id="edge102" class="edge"><title>Node26&#45;&gt;Node17</title>
<path fill="none" stroke="midnightblue" d="M1230.63,-174.403C1221.14,-159.431 1201.91,-132.119 1179,-116 1155.85,-99.7106 1126.38,-88.3469 1101.66,-80.8789"/>
<polygon fill="midnightblue" stroke="midnightblue" points="1102.32,-77.4263 1091.74,-78.0113 1100.37,-84.1509 1102.32,-77.4263"/>
</g>
<!-- Node26&#45;&gt;Node19 -->
<g id="edge104" class="edge"><title>Node26&#45;&gt;Node19</title>
<path fill="none" stroke="midnightblue" d="M1244.15,-174.362C1249.49,-166.431 1256.91,-155.389 1263.25,-145.961"/>
<polygon fill="midnightblue" stroke="midnightblue" points="1266.22,-147.822 1268.89,-137.571 1260.41,-143.916 1266.22,-147.822"/>
</g>
<!-- Node27&#45;&gt;Node24 -->
<g id="edge126" class="edge"><title>Node27&#45;&gt;Node24</title>
<path fill="none" stroke="midnightblue" d="M987,-348.377C987,-320.293 987,-243.673 987,-206.203"/>
<polygon fill="midnightblue" stroke="midnightblue" points="990.5,-205.928 987,-195.928 983.5,-205.928 990.5,-205.928"/>
</g>
<!-- Node27&#45;&gt;Node25 -->
<g id="edge112" class="edge"><title>Node27&#45;&gt;Node25</title>
<path fill="none" stroke="midnightblue" d="M950.6,-348.497C917.406,-338.918 868.201,-324.72 832.236,-314.342"/>
<polygon fill="midnightblue" stroke="midnightblue" points="833.046,-310.933 822.468,-311.523 831.105,-317.658 833.046,-310.933"/>
</g>
<!-- Node28 -->
<g id="node85" class="node"><title>Node28</title>
<a xlink:href="_config_8h.html" target="_top" xlink:title="../Config/Config.h">
<polygon fill="white" stroke="black" points="1424,-290.5 1424,-311.5 1522,-311.5 1522,-290.5 1424,-290.5"/>
<text text-anchor="middle" x="1473" y="-298.5" font-family="DejaVuSans" font-size="10.00">../Config/Config.h</text>
</a>
</g>
<!-- Node27&#45;&gt;Node28 -->
<g id="edge114" class="edge"><title>Node27&#45;&gt;Node28</title>
<path fill="none" stroke="midnightblue" d="M1054.62,-352.487C1137.56,-344.251 1282.37,-329.072 1406,-312 1408.5,-311.654 1411.06,-311.289 1413.64,-310.911"/>
<polygon fill="midnightblue" stroke="midnightblue" points="1414.28,-314.353 1423.65,-309.396 1413.24,-307.432 1414.28,-314.353"/>
</g>
<!-- Node30 -->
<g id="node91" class="node"><title>Node30</title>
<a xlink:href="cv___shape_8h.html" target="_top" xlink:title="../Datatypes/cv_Shape.h">
<polygon fill="white" stroke="black" points="1320,-58.5 1320,-79.5 1454,-79.5 1454,-58.5 1320,-58.5"/>
<text text-anchor="middle" x="1387" y="-66.5" font-family="DejaVuSans" font-size="10.00">../Datatypes/cv_Shape.h</text>
</a>
</g>
<!-- Node27&#45;&gt;Node30 -->
<g id="edge122" class="edge"><title>Node27&#45;&gt;Node30</title>
<path fill="none" stroke="midnightblue" d="M1054.79,-353.613C1170.08,-342.565 1392,-312.3 1392,-243 1392,-243 1392,-243 1392,-185 1392,-151.567 1389.9,-112.763 1388.42,-89.5824"/>
<polygon fill="midnightblue" stroke="midnightblue" points="1391.91,-89.2966 1387.76,-79.5495 1384.93,-89.7588 1391.91,-89.2966"/>
</g>
<!-- Node28&#45;&gt;Node7 -->
<g id="edge118" class="edge"><title>Node28&#45;&gt;Node7</title>
<path fill="none" stroke="midnightblue" d="M1423.99,-300.337C1284.47,-298.064 873.372,-288.688 534,-254 522.124,-252.786 509.205,-250.943 497.682,-249.11"/>
<polygon fill="midnightblue" stroke="midnightblue" points="497.998,-245.615 487.563,-247.448 496.863,-252.522 497.998,-245.615"/>
</g>
<!-- Node28&#45;&gt;Node16 -->
<g id="edge116" class="edge"><title>Node28&#45;&gt;Node16</title>
<path fill="none" stroke="midnightblue" d="M1474.37,-290.465C1476.88,-270.119 1482,-223.985 1482,-185 1482,-185 1482,-185 1482,-127 1482,-95.1919 1487.3,-78.5283 1463,-58 1430.56,-30.5929 1139.67,-16.5415 1035.72,-12.3621"/>
<polygon fill="midnightblue" stroke="midnightblue" points="1035.82,-8.86341 1025.69,-11.9663 1035.54,-15.858 1035.82,-8.86341"/>
</g>
<!-- Node29 -->
<g id="node89" class="node"><title>Node29</title>
<polygon fill="white" stroke="#bfbfbf" points="1509.5,-232.5 1509.5,-253.5 1554.5,-253.5 1554.5,-232.5 1509.5,-232.5"/>
<text text-anchor="middle" x="1532" y="-240.5" font-family="DejaVuSans" font-size="10.00">QFont</text>
</g>
<!-- Node28&#45;&gt;Node29 -->
<g id="edge120" class="edge"><title>Node28&#45;&gt;Node29</title>
<path fill="none" stroke="midnightblue" d="M1483.82,-290.362C1492.22,-282.104 1504.05,-270.472 1513.89,-260.803"/>
<polygon fill="midnightblue" stroke="midnightblue" points="1516.57,-263.077 1521.25,-253.571 1511.66,-258.085 1516.57,-263.077"/>
</g>
<!-- Node30&#45;&gt;Node16 -->
<g id="edge124" class="edge"><title>Node30&#45;&gt;Node16</title>
<path fill="none" stroke="midnightblue" d="M1319.86,-58.9634C1237.68,-46.6783 1101.41,-26.308 1036.11,-16.5477"/>
<polygon fill="midnightblue" stroke="midnightblue" points="1036.3,-13.0365 1025.89,-15.0195 1035.26,-19.9595 1036.3,-13.0365"/>
</g>
</g>
</svg>
