<?xml version="1.0" encoding="UTF-8" standalone="no"?>
<!DOCTYPE svg PUBLIC "-//W3C//DTD SVG 1.1//EN"
 "http://www.w3.org/Graphics/SVG/1.1/DTD/svg11.dtd">
<!-- Generated by graphviz version 2.26.3 (20100126.1600)
 -->
<!-- Title: G Pages: 1 -->
<svg width="972pt" height="320pt"
 viewBox="0.00 0.00 972.00 320.00" xmlns="http://www.w3.org/2000/svg" xmlns:xlink="http://www.w3.org/1999/xlink">
<g id="graph1" class="graph" transform="scale(1 1) rotate(0) translate(4 316)">
<title>G</title>
<polygon fill="white" stroke="white" points="-4,5 -4,-316 969,-316 969,5 -4,5"/>
<!-- Node1 -->
<g id="node1" class="node"><title>Node1</title>
<polygon fill="#bfbfbf" stroke="black" points="398.5,-290.5 398.5,-311.5 567.5,-311.5 567.5,-290.5 398.5,-290.5"/>
<text text-anchor="middle" x="483" y="-298.5" font-family="DejaVuSans" font-size="10.00">src/Widgets/AttributeWidget.cpp</text>
</g>
<!-- Node2 -->
<g id="node3" class="node"><title>Node2</title>
<polygon fill="white" stroke="#bfbfbf" points="185.5,-232.5 185.5,-253.5 266.5,-253.5 266.5,-232.5 185.5,-232.5"/>
<text text-anchor="middle" x="226" y="-240.5" font-family="DejaVuSans" font-size="10.00">QVBoxLayout</text>
</g>
<!-- Node1&#45;&gt;Node2 -->
<g id="edge2" class="edge"><title>Node1&#45;&gt;Node2</title>
<path fill="none" stroke="midnightblue" d="M436.459,-290.497C391.314,-280.308 323.006,-264.892 276.548,-254.408"/>
<polygon fill="midnightblue" stroke="midnightblue" points="277.218,-250.971 266.692,-252.184 275.677,-257.799 277.218,-250.971"/>
</g>
<!-- Node3 -->
<g id="node5" class="node"><title>Node3</title>
<polygon fill="white" stroke="#bfbfbf" points="283.5,-232.5 283.5,-253.5 354.5,-253.5 354.5,-232.5 283.5,-232.5"/>
<text text-anchor="middle" x="319" y="-240.5" font-family="DejaVuSans" font-size="10.00">QGroupBox</text>
</g>
<!-- Node1&#45;&gt;Node3 -->
<g id="edge4" class="edge"><title>Node1&#45;&gt;Node3</title>
<path fill="none" stroke="midnightblue" d="M453.301,-290.497C426.68,-281.082 387.438,-267.204 358.239,-256.877"/>
<polygon fill="midnightblue" stroke="midnightblue" points="359.35,-253.558 348.755,-253.523 357.016,-260.157 359.35,-253.558"/>
</g>
<!-- Node4 -->
<g id="node7" class="node"><title>Node4</title>
<polygon fill="white" stroke="#bfbfbf" points="372,-232.5 372,-253.5 428,-253.5 428,-232.5 372,-232.5"/>
<text text-anchor="middle" x="400" y="-240.5" font-family="DejaVuSans" font-size="10.00">QDebug</text>
</g>
<!-- Node1&#45;&gt;Node4 -->
<g id="edge6" class="edge"><title>Node1&#45;&gt;Node4</title>
<path fill="none" stroke="midnightblue" d="M467.777,-290.362C455.375,-281.696 437.654,-269.313 423.443,-259.382"/>
<polygon fill="midnightblue" stroke="midnightblue" points="425.329,-256.43 415.127,-253.571 421.319,-262.168 425.329,-256.43"/>
</g>
<!-- Node5 -->
<g id="node9" class="node"><title>Node5</title>
<a xlink:href="_chara_trait_8h.html" target="_top" xlink:title="CharaTrait.h">
<polygon fill="white" stroke="black" points="446,-232.5 446,-253.5 520,-253.5 520,-232.5 446,-232.5"/>
<text text-anchor="middle" x="483" y="-240.5" font-family="DejaVuSans" font-size="10.00">CharaTrait.h</text>
</a>
</g>
<!-- Node1&#45;&gt;Node5 -->
<g id="edge8" class="edge"><title>Node1&#45;&gt;Node5</title>
<path fill="none" stroke="midnightblue" d="M483,-290.362C483,-282.922 483,-272.743 483,-263.728"/>
<polygon fill="midnightblue" stroke="midnightblue" points="486.5,-263.571 483,-253.571 479.5,-263.571 486.5,-263.571"/>
</g>
<!-- Node23 -->
<g id="node46" class="node"><title>Node23</title>
<polygon fill="white" stroke="#bfbfbf" points="656,-232.5 656,-253.5 782,-253.5 782,-232.5 656,-232.5"/>
<text text-anchor="middle" x="719" y="-240.5" font-family="DejaVuSans" font-size="10.00">Calc/CalcAdvantages.h</text>
</g>
<!-- Node1&#45;&gt;Node23 -->
<g id="edge46" class="edge"><title>Node1&#45;&gt;Node23</title>
<path fill="none" stroke="midnightblue" d="M525.738,-290.497C565.212,-280.795 623.97,-266.355 666.329,-255.945"/>
<polygon fill="midnightblue" stroke="midnightblue" points="667.306,-259.309 676.182,-253.523 665.636,-252.511 667.306,-259.309"/>
</g>
<!-- Node24 -->
<g id="node48" class="node"><title>Node24</title>
<polygon fill="white" stroke="#bfbfbf" points="799.5,-232.5 799.5,-253.5 964.5,-253.5 964.5,-232.5 799.5,-232.5"/>
<text text-anchor="middle" x="882" y="-240.5" font-family="DejaVuSans" font-size="10.00">Widgets/Dialogs/MessageBox.h</text>
</g>
<!-- Node1&#45;&gt;Node24 -->
<g id="edge48" class="edge"><title>Node1&#45;&gt;Node24</title>
<path fill="none" stroke="midnightblue" d="M555.256,-290.497C624.105,-280.488 727.656,-265.436 799.664,-254.969"/>
<polygon fill="midnightblue" stroke="midnightblue" points="800.216,-258.425 809.609,-253.523 799.209,-251.498 800.216,-258.425"/>
</g>
<!-- Node25 -->
<g id="node50" class="node"><title>Node25</title>
<a xlink:href="_attribute_widget_8h.html" target="_top" xlink:title="AttributeWidget.h">
<polygon fill="white" stroke="black" points="538,-232.5 538,-253.5 638,-253.5 638,-232.5 538,-232.5"/>
<text text-anchor="middle" x="588" y="-240.5" font-family="DejaVuSans" font-size="10.00">AttributeWidget.h</text>
</a>
</g>
<!-- Node1&#45;&gt;Node25 -->
<g id="edge50" class="edge"><title>Node1&#45;&gt;Node25</title>
<path fill="none" stroke="midnightblue" d="M502.259,-290.362C518.466,-281.409 541.853,-268.491 560.109,-258.406"/>
<polygon fill="midnightblue" stroke="midnightblue" points="561.802,-261.47 568.863,-253.571 558.418,-255.342 561.802,-261.47"/>
</g>
<!-- Node6 -->
<g id="node11" class="node"><title>Node6</title>
<polygon fill="white" stroke="#bfbfbf" points="407,-174.5 407,-195.5 559,-195.5 559,-174.5 407,-174.5"/>
<text text-anchor="middle" x="483" y="-182.5" font-family="DejaVuSans" font-size="10.00">Storage/StorageCharacter.h</text>
</g>
<!-- Node5&#45;&gt;Node6 -->
<g id="edge10" class="edge"><title>Node5&#45;&gt;Node6</title>
<path fill="none" stroke="midnightblue" d="M483,-232.362C483,-224.922 483,-214.743 483,-205.728"/>
<polygon fill="midnightblue" stroke="midnightblue" points="486.5,-205.571 483,-195.571 479.5,-205.571 486.5,-205.571"/>
</g>
<!-- Node7 -->
<g id="node13" class="node"><title>Node7</title>
<a xlink:href="_trait_line_8h.html" target="_top" xlink:title="TraitLine.h">
<polygon fill="white" stroke="black" points="324.5,-174.5 324.5,-195.5 389.5,-195.5 389.5,-174.5 324.5,-174.5"/>
<text text-anchor="middle" x="357" y="-182.5" font-family="DejaVuSans" font-size="10.00">TraitLine.h</text>
</a>
</g>
<!-- Node5&#45;&gt;Node7 -->
<g id="edge12" class="edge"><title>Node5&#45;&gt;Node7</title>
<path fill="none" stroke="midnightblue" d="M460.182,-232.497C440.414,-223.397 411.587,-210.127 389.424,-199.925"/>
<polygon fill="midnightblue" stroke="midnightblue" points="390.621,-196.623 380.074,-195.621 387.694,-202.982 390.621,-196.623"/>
</g>
<!-- Node8 -->
<g id="node15" class="node"><title>Node8</title>
<polygon fill="white" stroke="#bfbfbf" points="212.5,-116.5 212.5,-137.5 281.5,-137.5 281.5,-116.5 212.5,-116.5"/>
<text text-anchor="middle" x="247" y="-124.5" font-family="DejaVuSans" font-size="10.00">QStringList</text>
</g>
<!-- Node7&#45;&gt;Node8 -->
<g id="edge14" class="edge"><title>Node7&#45;&gt;Node8</title>
<path fill="none" stroke="midnightblue" d="M337.08,-174.497C320.054,-165.519 295.331,-152.484 276.091,-142.339"/>
<polygon fill="midnightblue" stroke="midnightblue" points="277.622,-139.189 267.144,-137.621 274.357,-145.381 277.622,-139.189"/>
</g>
<!-- Node9 -->
<g id="node17" class="node"><title>Node9</title>
<polygon fill="white" stroke="#bfbfbf" points="299,-116.5 299,-137.5 381,-137.5 381,-116.5 299,-116.5"/>
<text text-anchor="middle" x="340" y="-124.5" font-family="DejaVuSans" font-size="10.00">QHBoxLayout</text>
</g>
<!-- Node7&#45;&gt;Node9 -->
<g id="edge16" class="edge"><title>Node7&#45;&gt;Node9</title>
<path fill="none" stroke="midnightblue" d="M353.882,-174.362C351.677,-166.84 348.652,-156.519 345.988,-147.431"/>
<polygon fill="midnightblue" stroke="midnightblue" points="349.27,-146.182 343.098,-137.571 342.552,-148.151 349.27,-146.182"/>
</g>
<!-- Node10 -->
<g id="node19" class="node"><title>Node10</title>
<polygon fill="white" stroke="#bfbfbf" points="729,-116.5 729,-137.5 779,-137.5 779,-116.5 729,-116.5"/>
<text text-anchor="middle" x="754" y="-124.5" font-family="DejaVuSans" font-size="10.00">QLabel</text>
</g>
<!-- Node7&#45;&gt;Node10 -->
<g id="edge18" class="edge"><title>Node7&#45;&gt;Node10</title>
<path fill="none" stroke="midnightblue" d="M389.571,-175.786C392.41,-175.128 395.248,-174.52 398,-174 536.321,-147.867 577.389,-167.396 718.981,-137.858"/>
<polygon fill="midnightblue" stroke="midnightblue" points="719.853,-141.251 728.903,-135.743 718.393,-134.405 719.853,-141.251"/>
</g>
<!-- Node11 -->
<g id="node21" class="node"><title>Node11</title>
<polygon fill="white" stroke="#bfbfbf" points="399,-116.5 399,-137.5 479,-137.5 479,-116.5 399,-116.5"/>
<text text-anchor="middle" x="439" y="-124.5" font-family="DejaVuSans" font-size="10.00">QPushButton</text>
</g>
<!-- Node7&#45;&gt;Node11 -->
<g id="edge20" class="edge"><title>Node7&#45;&gt;Node11</title>
<path fill="none" stroke="midnightblue" d="M372.04,-174.362C384.293,-165.696 401.799,-153.313 415.839,-143.382"/>
<polygon fill="midnightblue" stroke="midnightblue" points="417.912,-146.203 424.055,-137.571 413.87,-140.488 417.912,-146.203"/>
</g>
<!-- Node12 -->
<g id="node23" class="node"><title>Node12</title>
<polygon fill="white" stroke="#bfbfbf" points="497,-116.5 497,-137.5 559,-137.5 559,-116.5 497,-116.5"/>
<text text-anchor="middle" x="528" y="-124.5" font-family="DejaVuSans" font-size="10.00">QLineEdit</text>
</g>
<!-- Node7&#45;&gt;Node12 -->
<g id="edge22" class="edge"><title>Node7&#45;&gt;Node12</title>
<path fill="none" stroke="midnightblue" d="M387.967,-174.497C415.844,-165.041 456.997,-151.083 487.482,-140.743"/>
<polygon fill="midnightblue" stroke="midnightblue" points="488.629,-144.05 496.975,-137.523 486.381,-137.421 488.629,-144.05"/>
</g>
<!-- Node13 -->
<g id="node25" class="node"><title>Node13</title>
<a xlink:href="_trait_dots_8h.html" target="_top" xlink:title="TraitDots.h">
<polygon fill="white" stroke="black" points="89,-116.5 89,-137.5 157,-137.5 157,-116.5 89,-116.5"/>
<text text-anchor="middle" x="123" y="-124.5" font-family="DejaVuSans" font-size="10.00">TraitDots.h</text>
</a>
</g>
<!-- Node7&#45;&gt;Node13 -->
<g id="edge24" class="edge"><title>Node7&#45;&gt;Node13</title>
<path fill="none" stroke="midnightblue" d="M324.463,-176.935C283.484,-166.778 212.905,-149.284 167.102,-137.931"/>
<polygon fill="midnightblue" stroke="midnightblue" points="167.707,-134.475 157.159,-135.467 166.023,-141.27 167.707,-134.475"/>
</g>
<!-- Node17 -->
<g id="node33" class="node"><title>Node17</title>
<polygon fill="white" stroke="#bfbfbf" points="192,-58.5 192,-79.5 248,-79.5 248,-58.5 192,-58.5"/>
<text text-anchor="middle" x="220" y="-66.5" font-family="DejaVuSans" font-size="10.00">QWidget</text>
</g>
<!-- Node7&#45;&gt;Node17 -->
<g id="edge44" class="edge"><title>Node7&#45;&gt;Node17</title>
<path fill="none" stroke="midnightblue" d="M324.385,-179.607C283.886,-172.168 218.367,-157.443 204,-138 193.449,-123.721 199.888,-103.602 207.509,-88.7716"/>
<polygon fill="midnightblue" stroke="midnightblue" points="210.647,-90.3318 212.521,-79.9039 204.553,-86.8874 210.647,-90.3318"/>
</g>
<!-- Node18 -->
<g id="node35" class="node"><title>Node18</title>
<a xlink:href="_trait_specialties_8h.html" target="_top" xlink:title="TraitSpecialties.h">
<polygon fill="white" stroke="black" points="614.5,-116.5 614.5,-137.5 711.5,-137.5 711.5,-116.5 614.5,-116.5"/>
<text text-anchor="middle" x="663" y="-124.5" font-family="DejaVuSans" font-size="10.00">TraitSpecialties.h</text>
</a>
</g>
<!-- Node7&#45;&gt;Node18 -->
<g id="edge34" class="edge"><title>Node7&#45;&gt;Node18</title>
<path fill="none" stroke="midnightblue" d="M389.611,-175.978C392.441,-175.278 395.266,-174.608 398,-174 468.487,-158.325 550.443,-144.447 604.334,-135.909"/>
<polygon fill="midnightblue" stroke="midnightblue" points="605.06,-139.338 614.394,-134.326 603.971,-132.423 605.06,-139.338"/>
</g>
<!-- Node14 -->
<g id="node27" class="node"><title>Node14</title>
<polygon fill="white" stroke="#bfbfbf" points="67.5,-58.5 67.5,-79.5 116.5,-79.5 116.5,-58.5 67.5,-58.5"/>
<text text-anchor="middle" x="92" y="-66.5" font-family="DejaVuSans" font-size="10.00">QColor</text>
</g>
<!-- Node13&#45;&gt;Node14 -->
<g id="edge26" class="edge"><title>Node13&#45;&gt;Node14</title>
<path fill="none" stroke="midnightblue" d="M117.314,-116.362C113.163,-108.595 107.416,-97.8426 102.447,-88.5458"/>
<polygon fill="midnightblue" stroke="midnightblue" points="105.45,-86.7401 97.6498,-79.5707 99.2769,-90.0398 105.45,-86.7401"/>
</g>
<!-- Node15 -->
<g id="node29" class="node"><title>Node15</title>
<polygon fill="white" stroke="#bfbfbf" points="133.5,-58.5 133.5,-79.5 174.5,-79.5 174.5,-58.5 133.5,-58.5"/>
<text text-anchor="middle" x="154" y="-66.5" font-family="DejaVuSans" font-size="10.00">QList</text>
</g>
<!-- Node13&#45;&gt;Node15 -->
<g id="edge28" class="edge"><title>Node13&#45;&gt;Node15</title>
<path fill="none" stroke="midnightblue" d="M128.686,-116.362C132.837,-108.595 138.584,-97.8426 143.553,-88.5458"/>
<polygon fill="midnightblue" stroke="midnightblue" points="146.723,-90.0398 148.35,-79.5707 140.55,-86.7401 146.723,-90.0398"/>
</g>
<!-- Node16 -->
<g id="node31" class="node"><title>Node16</title>
<polygon fill="white" stroke="#bfbfbf" points="-0.5,-58.5 -0.5,-79.5 50.5,-79.5 50.5,-58.5 -0.5,-58.5"/>
<text text-anchor="middle" x="25" y="-66.5" font-family="DejaVuSans" font-size="10.00">QEvent</text>
</g>
<!-- Node13&#45;&gt;Node16 -->
<g id="edge30" class="edge"><title>Node13&#45;&gt;Node16</title>
<path fill="none" stroke="midnightblue" d="M105.025,-116.362C90.1058,-107.532 68.6674,-94.844 51.7344,-84.8224"/>
<polygon fill="midnightblue" stroke="midnightblue" points="53.2492,-81.6519 42.8608,-79.5707 49.6839,-87.6759 53.2492,-81.6519"/>
</g>
<!-- Node13&#45;&gt;Node17 -->
<g id="edge32" class="edge"><title>Node13&#45;&gt;Node17</title>
<path fill="none" stroke="midnightblue" d="M140.791,-116.362C155.559,-107.532 176.778,-94.844 193.538,-84.8224"/>
<polygon fill="midnightblue" stroke="midnightblue" points="195.535,-87.7066 202.321,-79.5707 191.943,-81.6987 195.535,-87.7066"/>
</g>
<!-- Node19 -->
<g id="node37" class="node"><title>Node19</title>
<polygon fill="white" stroke="#bfbfbf" points="636.5,-58.5 636.5,-79.5 689.5,-79.5 689.5,-58.5 636.5,-58.5"/>
<text text-anchor="middle" x="663" y="-66.5" font-family="DejaVuSans" font-size="10.00">QString</text>
</g>
<!-- Node18&#45;&gt;Node19 -->
<g id="edge36" class="edge"><title>Node18&#45;&gt;Node19</title>
<path fill="none" stroke="midnightblue" d="M663,-116.362C663,-108.922 663,-98.7427 663,-89.7276"/>
<polygon fill="midnightblue" stroke="midnightblue" points="666.5,-89.5706 663,-79.5707 659.5,-89.5707 666.5,-89.5706"/>
</g>
<!-- Node20 -->
<g id="node39" class="node"><title>Node20</title>
<polygon fill="white" stroke="#bfbfbf" points="706.5,-58.5 706.5,-79.5 847.5,-79.5 847.5,-58.5 706.5,-58.5"/>
<text text-anchor="middle" x="777" y="-66.5" font-family="DejaVuSans" font-size="10.00">Datatypes/cv_TraitDetail.h</text>
</g>
<!-- Node18&#45;&gt;Node20 -->
<g id="edge38" class="edge"><title>Node18&#45;&gt;Node20</title>
<path fill="none" stroke="midnightblue" d="M683.645,-116.497C701.37,-107.479 727.145,-94.3649 747.123,-84.2006"/>
<polygon fill="midnightblue" stroke="midnightblue" points="748.798,-87.2753 756.124,-79.6212 745.624,-81.0364 748.798,-87.2753"/>
</g>
<!-- Node21 -->
<g id="node41" class="node"><title>Node21</title>
<a xlink:href="_checked_list_8h.html" target="_top" xlink:title="CheckedList.h">
<polygon fill="white" stroke="black" points="536.5,-58.5 536.5,-79.5 619.5,-79.5 619.5,-58.5 536.5,-58.5"/>
<text text-anchor="middle" x="578" y="-66.5" font-family="DejaVuSans" font-size="10.00">CheckedList.h</text>
</a>
</g>
<!-- Node18&#45;&gt;Node21 -->
<g id="edge40" class="edge"><title>Node18&#45;&gt;Node21</title>
<path fill="none" stroke="midnightblue" d="M647.41,-116.362C634.709,-107.696 616.562,-95.3126 602.008,-85.3819"/>
<polygon fill="midnightblue" stroke="midnightblue" points="603.724,-82.316 593.491,-79.5707 599.779,-88.0982 603.724,-82.316"/>
</g>
<!-- Node22 -->
<g id="node43" class="node"><title>Node22</title>
<polygon fill="white" stroke="#bfbfbf" points="541.5,-0.5 541.5,-21.5 614.5,-21.5 614.5,-0.5 541.5,-0.5"/>
<text text-anchor="middle" x="578" y="-8.5" font-family="DejaVuSans" font-size="10.00">QListWidget</text>
</g>
<!-- Node21&#45;&gt;Node22 -->
<g id="edge42" class="edge"><title>Node21&#45;&gt;Node22</title>
<path fill="none" stroke="midnightblue" d="M578,-58.3619C578,-50.9219 578,-40.7427 578,-31.7276"/>
<polygon fill="midnightblue" stroke="midnightblue" points="581.5,-31.5706 578,-21.5707 574.5,-31.5707 581.5,-31.5706"/>
</g>
<!-- Node25&#45;&gt;Node6 -->
<g id="edge56" class="edge"><title>Node25&#45;&gt;Node6</title>
<path fill="none" stroke="midnightblue" d="M568.741,-232.362C552.534,-223.409 529.147,-210.491 510.891,-200.406"/>
<polygon fill="midnightblue" stroke="midnightblue" points="512.582,-197.342 502.137,-195.571 509.198,-203.47 512.582,-197.342"/>
</g>
<!-- Node25&#45;&gt;Node10 -->
<g id="edge54" class="edge"><title>Node25&#45;&gt;Node10</title>
<path fill="none" stroke="midnightblue" d="M625.803,-232.49C648.789,-224.859 677.875,-212.89 700,-196 717.823,-182.394 733.024,-161.579 742.714,-146.369"/>
<polygon fill="midnightblue" stroke="midnightblue" points="745.764,-148.092 748.01,-137.737 739.797,-144.431 745.764,-148.092"/>
</g>
<!-- Node25&#45;&gt;Node17 -->
<g id="edge58" class="edge"><title>Node25&#45;&gt;Node17</title>
<path fill="none" stroke="midnightblue" d="M590.068,-232.277C594.109,-207.773 600.07,-147.373 568,-116 546.089,-94.5649 343.834,-77.802 258.111,-71.5992"/>
<polygon fill="midnightblue" stroke="midnightblue" points="258.239,-68.0995 248.015,-70.8786 257.74,-75.0817 258.239,-68.0995"/>
</g>
<!-- Node26 -->
<g id="node52" class="node"><title>Node26</title>
<polygon fill="white" stroke="#bfbfbf" points="615,-174.5 615,-195.5 691,-195.5 691,-174.5 615,-174.5"/>
<text text-anchor="middle" x="653" y="-182.5" font-family="DejaVuSans" font-size="10.00">QGridLayout</text>
</g>
<!-- Node25&#45;&gt;Node26 -->
<g id="edge52" class="edge"><title>Node25&#45;&gt;Node26</title>
<path fill="none" stroke="midnightblue" d="M599.922,-232.362C609.359,-223.941 622.73,-212.011 633.69,-202.231"/>
<polygon fill="midnightblue" stroke="midnightblue" points="636.022,-204.84 641.154,-195.571 631.362,-199.617 636.022,-204.84"/>
</g>
</g>
</svg>
