<?xml version="1.0" encoding="UTF-8" standalone="no"?>
<!DOCTYPE svg PUBLIC "-//W3C//DTD SVG 1.1//EN"
 "http://www.w3.org/Graphics/SVG/1.1/DTD/svg11.dtd">
<!-- Generated by graphviz version 2.26.3 (20100126.1600)
 -->
<!-- Title: G Pages: 1 -->
<svg width="1440pt" height="320pt"
 viewBox="0.00 0.00 1439.81 320.00" xmlns="http://www.w3.org/2000/svg" xmlns:xlink="http://www.w3.org/1999/xlink">
<g id="graph1" class="graph" transform="scale(1 1) rotate(0) translate(4 316)">
<title>G</title>
<polygon fill="white" stroke="white" points="-4,5 -4,-316 1436.81,-316 1436.81,5 -4,5"/>
<!-- Node1 -->
<g id="node1" class="node"><title>Node1</title>
<polygon fill="#bfbfbf" stroke="black" points="367.312,-290.5 367.312,-311.5 536.312,-311.5 536.312,-290.5 367.312,-290.5"/>
<text text-anchor="middle" x="451.812" y="-298.5" font-family="DejaVuSans" font-size="10.00">src/Widgets/AttributeWidget.cpp</text>
</g>
<!-- Node2 -->
<g id="node3" class="node"><title>Node2</title>
<polygon fill="white" stroke="#bfbfbf" points="116.812,-116.5 116.812,-137.5 198.812,-137.5 198.812,-116.5 116.812,-116.5"/>
<text text-anchor="middle" x="157.812" y="-124.5" font-family="DejaVuSans" font-size="10.00">QHBoxLayout</text>
</g>
<!-- Node1&#45;&gt;Node2 -->
<g id="edge2" class="edge"><title>Node1&#45;&gt;Node2</title>
<path fill="none" stroke="midnightblue" d="M367.188,-297.965C245.788,-292.729 34.1541,-279.962 10.8117,-254 -30.2213,-208.362 61.3569,-163.435 117.751,-141.268"/>
<polygon fill="midnightblue" stroke="midnightblue" points="119.075,-144.509 127.153,-137.654 116.563,-137.975 119.075,-144.509"/>
</g>
<!-- Node3 -->
<g id="node5" class="node"><title>Node3</title>
<polygon fill="white" stroke="#bfbfbf" points="19.3117,-232.5 19.3117,-253.5 100.312,-253.5 100.312,-232.5 19.3117,-232.5"/>
<text text-anchor="middle" x="59.8117" y="-240.5" font-family="DejaVuSans" font-size="10.00">QVBoxLayout</text>
</g>
<!-- Node1&#45;&gt;Node3 -->
<g id="edge4" class="edge"><title>Node1&#45;&gt;Node3</title>
<path fill="none" stroke="midnightblue" d="M367.274,-291.439C300.036,-283.366 203.38,-270.722 110.27,-254.162"/>
<polygon fill="midnightblue" stroke="midnightblue" points="110.861,-250.712 100.4,-252.39 109.624,-257.602 110.861,-250.712"/>
</g>
<!-- Node4 -->
<g id="node7" class="node"><title>Node4</title>
<polygon fill="white" stroke="#bfbfbf" points="117.312,-232.5 117.312,-253.5 188.312,-253.5 188.312,-232.5 117.312,-232.5"/>
<text text-anchor="middle" x="152.812" y="-240.5" font-family="DejaVuSans" font-size="10.00">QGroupBox</text>
</g>
<!-- Node1&#45;&gt;Node4 -->
<g id="edge6" class="edge"><title>Node1&#45;&gt;Node4</title>
<path fill="none" stroke="midnightblue" d="M392.598,-290.471C341.869,-281.306 266.908,-267.421 201.812,-254 200.723,-253.776 199.621,-253.546 198.51,-253.313"/>
<polygon fill="midnightblue" stroke="midnightblue" points="198.886,-249.814 188.375,-251.137 197.417,-256.658 198.886,-249.814"/>
</g>
<!-- Node5 -->
<g id="node9" class="node"><title>Node5</title>
<polygon fill="white" stroke="#bfbfbf" points="429.312,-116.5 429.312,-137.5 498.312,-137.5 498.312,-116.5 429.312,-116.5"/>
<text text-anchor="middle" x="463.812" y="-124.5" font-family="DejaVuSans" font-size="10.00">QStringList</text>
</g>
<!-- Node1&#45;&gt;Node5 -->
<g id="edge8" class="edge"><title>Node1&#45;&gt;Node5</title>
<path fill="none" stroke="midnightblue" d="M367.224,-293.516C313.711,-286.83 251.571,-274.777 234.812,-254 219.124,-234.551 236.405,-189.117 252.812,-174 276.666,-152.02 364.509,-138.294 419.05,-131.697"/>
<polygon fill="midnightblue" stroke="midnightblue" points="419.631,-135.153 429.154,-130.51 418.814,-128.201 419.631,-135.153"/>
</g>
<!-- Node6 -->
<g id="node11" class="node"><title>Node6</title>
<polygon fill="white" stroke="#bfbfbf" points="243.812,-232.5 243.812,-253.5 299.812,-253.5 299.812,-232.5 243.812,-232.5"/>
<text text-anchor="middle" x="271.812" y="-240.5" font-family="DejaVuSans" font-size="10.00">QDebug</text>
</g>
<!-- Node1&#45;&gt;Node6 -->
<g id="edge10" class="edge"><title>Node1&#45;&gt;Node6</title>
<path fill="none" stroke="midnightblue" d="M419.215,-290.497C388.366,-280.556 342.074,-265.64 309.619,-255.182"/>
<polygon fill="midnightblue" stroke="midnightblue" points="310.615,-251.826 300.023,-252.09 308.468,-258.489 310.615,-251.826"/>
</g>
<!-- Node7 -->
<g id="node13" class="node"><title>Node7</title>
<a xlink:href="_chara_trait_8h.html" target="_top" xlink:title="CharaTrait.h">
<polygon fill="white" stroke="black" points="355.812,-232.5 355.812,-253.5 429.812,-253.5 429.812,-232.5 355.812,-232.5"/>
<text text-anchor="middle" x="392.812" y="-240.5" font-family="DejaVuSans" font-size="10.00">CharaTrait.h</text>
</a>
</g>
<!-- Node1&#45;&gt;Node7 -->
<g id="edge12" class="edge"><title>Node1&#45;&gt;Node7</title>
<path fill="none" stroke="midnightblue" d="M440.99,-290.362C432.59,-282.104 420.758,-270.472 410.921,-260.803"/>
<polygon fill="midnightblue" stroke="midnightblue" points="413.149,-258.085 403.565,-253.571 408.242,-263.077 413.149,-258.085"/>
</g>
<!-- Node9 -->
<g id="node17" class="node"><title>Node9</title>
<polygon fill="white" stroke="#bfbfbf" points="261.312,-174.5 261.312,-195.5 374.312,-195.5 374.312,-174.5 261.312,-174.5"/>
<text text-anchor="middle" x="317.812" y="-182.5" font-family="DejaVuSans" font-size="10.00">Datatypes/cv_Trait.h</text>
</g>
<!-- Node1&#45;&gt;Node9 -->
<g id="edge56" class="edge"><title>Node1&#45;&gt;Node9</title>
<path fill="none" stroke="midnightblue" d="M410.399,-290.438C389.094,-283.199 364.051,-271.641 346.812,-254 333.803,-240.689 326.273,-220.673 322.163,-205.621"/>
<polygon fill="midnightblue" stroke="midnightblue" points="325.515,-204.593 319.745,-195.706 318.714,-206.251 325.515,-204.593"/>
</g>
<!-- Node24 -->
<g id="node51" class="node"><title>Node24</title>
<polygon fill="white" stroke="#bfbfbf" points="447.812,-232.5 447.812,-253.5 573.812,-253.5 573.812,-232.5 447.812,-232.5"/>
<text text-anchor="middle" x="510.812" y="-240.5" font-family="DejaVuSans" font-size="10.00">Calc/CalcAdvantages.h</text>
</g>
<!-- Node1&#45;&gt;Node24 -->
<g id="edge54" class="edge"><title>Node1&#45;&gt;Node24</title>
<path fill="none" stroke="midnightblue" d="M462.633,-290.362C471.033,-282.104 482.866,-270.472 492.702,-260.803"/>
<polygon fill="midnightblue" stroke="midnightblue" points="495.381,-263.077 500.059,-253.571 490.474,-258.085 495.381,-263.077"/>
</g>
<!-- Node25 -->
<g id="node54" class="node"><title>Node25</title>
<polygon fill="white" stroke="#bfbfbf" points="591.312,-232.5 591.312,-253.5 716.312,-253.5 716.312,-232.5 591.312,-232.5"/>
<text text-anchor="middle" x="653.812" y="-240.5" font-family="DejaVuSans" font-size="10.00">Datatypes/cv_Shape.h</text>
</g>
<!-- Node1&#45;&gt;Node25 -->
<g id="edge58" class="edge"><title>Node1&#45;&gt;Node25</title>
<path fill="none" stroke="midnightblue" d="M488.392,-290.497C521.751,-280.918 571.202,-266.72 607.345,-256.342"/>
<polygon fill="midnightblue" stroke="midnightblue" points="608.517,-259.647 617.162,-253.523 606.585,-252.919 608.517,-259.647"/>
</g>
<!-- Node26 -->
<g id="node56" class="node"><title>Node26</title>
<polygon fill="white" stroke="#bfbfbf" points="733.312,-232.5 733.312,-253.5 860.312,-253.5 860.312,-232.5 733.312,-232.5"/>
<text text-anchor="middle" x="796.812" y="-240.5" font-family="DejaVuSans" font-size="10.00">Exceptions/Exception.h</text>
</g>
<!-- Node1&#45;&gt;Node26 -->
<g id="edge60" class="edge"><title>Node1&#45;&gt;Node26</title>
<path fill="none" stroke="midnightblue" d="M514.289,-290.497C573.333,-280.57 661.893,-265.682 724.086,-255.226"/>
<polygon fill="midnightblue" stroke="midnightblue" points="724.936,-258.633 734.218,-253.523 723.776,-251.729 724.936,-258.633"/>
</g>
<!-- Node27 -->
<g id="node58" class="node"><title>Node27</title>
<polygon fill="white" stroke="#bfbfbf" points="877.312,-232.5 877.312,-253.5 966.312,-253.5 966.312,-232.5 877.312,-232.5"/>
<text text-anchor="middle" x="921.812" y="-240.5" font-family="DejaVuSans" font-size="10.00">Config/Config.h</text>
</g>
<!-- Node1&#45;&gt;Node27 -->
<g id="edge62" class="edge"><title>Node1&#45;&gt;Node27</title>
<path fill="none" stroke="midnightblue" d="M536.383,-293.779C618.538,-286.236 746.986,-273.051 866.95,-254.198"/>
<polygon fill="midnightblue" stroke="midnightblue" points="867.719,-257.62 877.046,-252.594 866.621,-250.706 867.719,-257.62"/>
</g>
<!-- Node28 -->
<g id="node60" class="node"><title>Node28</title>
<polygon fill="white" stroke="#bfbfbf" points="983.312,-232.5 983.312,-253.5 1132.31,-253.5 1132.31,-232.5 983.312,-232.5"/>
<text text-anchor="middle" x="1057.81" y="-240.5" font-family="DejaVuSans" font-size="10.00">Storage/StorageTemplate.h</text>
</g>
<!-- Node1&#45;&gt;Node28 -->
<g id="edge64" class="edge"><title>Node1&#45;&gt;Node28</title>
<path fill="none" stroke="midnightblue" d="M536.618,-294.484C638.037,-286.442 813.187,-271.763 973.147,-254.153"/>
<polygon fill="midnightblue" stroke="midnightblue" points="973.619,-257.622 983.173,-253.043 972.849,-250.664 973.619,-257.622"/>
</g>
<!-- Node29 -->
<g id="node62" class="node"><title>Node29</title>
<polygon fill="white" stroke="#bfbfbf" points="1149.31,-232.5 1149.31,-253.5 1314.31,-253.5 1314.31,-232.5 1149.31,-232.5"/>
<text text-anchor="middle" x="1231.81" y="-240.5" font-family="DejaVuSans" font-size="10.00">Widgets/Dialogs/MessageBox.h</text>
</g>
<!-- Node1&#45;&gt;Node29 -->
<g id="edge66" class="edge"><title>Node1&#45;&gt;Node29</title>
<path fill="none" stroke="midnightblue" d="M536.516,-296.648C664.653,-289.748 915.674,-274.995 1138.74,-254.16"/>
<polygon fill="midnightblue" stroke="midnightblue" points="1139.38,-257.616 1149,-253.196 1138.72,-250.647 1139.38,-257.616"/>
</g>
<!-- Node30 -->
<g id="node64" class="node"><title>Node30</title>
<a xlink:href="_attribute_widget_8h.html" target="_top" xlink:title="AttributeWidget.h">
<polygon fill="white" stroke="black" points="1331.81,-232.5 1331.81,-253.5 1431.81,-253.5 1431.81,-232.5 1331.81,-232.5"/>
<text text-anchor="middle" x="1381.81" y="-240.5" font-family="DejaVuSans" font-size="10.00">AttributeWidget.h</text>
</a>
</g>
<!-- Node1&#45;&gt;Node30 -->
<g id="edge68" class="edge"><title>Node1&#45;&gt;Node30</title>
<path fill="none" stroke="midnightblue" d="M536.515,-300.091C690.822,-297.633 1028.12,-288.557 1321.68,-253.996"/>
<polygon fill="midnightblue" stroke="midnightblue" points="1322.15,-257.465 1331.67,-252.809 1321.32,-250.514 1322.15,-257.465"/>
</g>
<!-- Node8 -->
<g id="node15" class="node"><title>Node8</title>
<polygon fill="white" stroke="#bfbfbf" points="850.812,-174.5 850.812,-195.5 1002.81,-195.5 1002.81,-174.5 850.812,-174.5"/>
<text text-anchor="middle" x="926.812" y="-182.5" font-family="DejaVuSans" font-size="10.00">Storage/StorageCharacter.h</text>
</g>
<!-- Node7&#45;&gt;Node8 -->
<g id="edge14" class="edge"><title>Node7&#45;&gt;Node8</title>
<path fill="none" stroke="midnightblue" d="M429.878,-233.67C432.891,-233.054 435.896,-232.487 438.812,-232 578.478,-208.691 742.706,-195.828 840.591,-189.678"/>
<polygon fill="midnightblue" stroke="midnightblue" points="840.965,-193.162 850.729,-189.05 840.532,-186.175 840.965,-193.162"/>
</g>
<!-- Node7&#45;&gt;Node9 -->
<g id="edge16" class="edge"><title>Node7&#45;&gt;Node9</title>
<path fill="none" stroke="midnightblue" d="M379.056,-232.362C368.06,-223.859 352.439,-211.779 339.725,-201.947"/>
<polygon fill="midnightblue" stroke="midnightblue" points="341.532,-198.919 331.481,-195.571 337.25,-204.457 341.532,-198.919"/>
</g>
<!-- Node10 -->
<g id="node19" class="node"><title>Node10</title>
<polygon fill="white" stroke="#bfbfbf" points="338.312,-58.5 338.312,-79.5 479.312,-79.5 479.312,-58.5 338.312,-58.5"/>
<text text-anchor="middle" x="408.812" y="-66.5" font-family="DejaVuSans" font-size="10.00">Datatypes/cv_TraitDetail.h</text>
</g>
<!-- Node7&#45;&gt;Node10 -->
<g id="edge18" class="edge"><title>Node7&#45;&gt;Node10</title>
<path fill="none" stroke="midnightblue" d="M393.788,-232.377C396.371,-204.293 403.416,-127.673 406.862,-90.2027"/>
<polygon fill="midnightblue" stroke="midnightblue" points="410.376,-90.2062 407.807,-79.9277 403.406,-89.5652 410.376,-90.2062"/>
</g>
<!-- Node11 -->
<g id="node21" class="node"><title>Node11</title>
<a xlink:href="_trait_line_8h.html" target="_top" xlink:title="TraitLine.h">
<polygon fill="white" stroke="black" points="637.312,-174.5 637.312,-195.5 702.312,-195.5 702.312,-174.5 637.312,-174.5"/>
<text text-anchor="middle" x="669.812" y="-182.5" font-family="DejaVuSans" font-size="10.00">TraitLine.h</text>
</a>
</g>
<!-- Node7&#45;&gt;Node11 -->
<g id="edge20" class="edge"><title>Node7&#45;&gt;Node11</title>
<path fill="none" stroke="midnightblue" d="M429.944,-234.006C432.941,-233.315 435.925,-232.639 438.812,-232 504.381,-217.494 580.8,-202.274 627.221,-193.215"/>
<polygon fill="midnightblue" stroke="midnightblue" points="628.074,-196.615 637.221,-191.268 626.736,-189.744 628.074,-196.615"/>
</g>
<!-- Node11&#45;&gt;Node2 -->
<g id="edge24" class="edge"><title>Node11&#45;&gt;Node2</title>
<path fill="none" stroke="midnightblue" d="M637.005,-181.284C550.177,-171.448 313.875,-144.679 209.06,-132.805"/>
<polygon fill="midnightblue" stroke="midnightblue" points="209.367,-129.318 199.037,-131.67 208.579,-136.273 209.367,-129.318"/>
</g>
<!-- Node11&#45;&gt;Node5 -->
<g id="edge22" class="edge"><title>Node11&#45;&gt;Node5</title>
<path fill="none" stroke="midnightblue" d="M637.17,-175.81C602.386,-166.016 547.096,-150.449 508.332,-139.535"/>
<polygon fill="midnightblue" stroke="midnightblue" points="508.937,-136.069 498.362,-136.728 507.039,-142.807 508.937,-136.069"/>
</g>
<!-- Node12 -->
<g id="node25" class="node"><title>Node12</title>
<polygon fill="white" stroke="#bfbfbf" points="1028.81,-116.5 1028.81,-137.5 1078.81,-137.5 1078.81,-116.5 1028.81,-116.5"/>
<text text-anchor="middle" x="1053.81" y="-124.5" font-family="DejaVuSans" font-size="10.00">QLabel</text>
</g>
<!-- Node11&#45;&gt;Node12 -->
<g id="edge26" class="edge"><title>Node11&#45;&gt;Node12</title>
<path fill="none" stroke="midnightblue" d="M702.551,-180.055C774.119,-169.245 944.01,-143.585 1018.16,-132.385"/>
<polygon fill="midnightblue" stroke="midnightblue" points="1019.02,-135.795 1028.38,-130.841 1017.97,-128.873 1019.02,-135.795"/>
</g>
<!-- Node13 -->
<g id="node27" class="node"><title>Node13</title>
<polygon fill="white" stroke="#bfbfbf" points="629.812,-116.5 629.812,-137.5 709.812,-137.5 709.812,-116.5 629.812,-116.5"/>
<text text-anchor="middle" x="669.812" y="-124.5" font-family="DejaVuSans" font-size="10.00">QPushButton</text>
</g>
<!-- Node11&#45;&gt;Node13 -->
<g id="edge28" class="edge"><title>Node11&#45;&gt;Node13</title>
<path fill="none" stroke="midnightblue" d="M669.812,-174.362C669.812,-166.922 669.812,-156.743 669.812,-147.728"/>
<polygon fill="midnightblue" stroke="midnightblue" points="673.312,-147.571 669.812,-137.571 666.312,-147.571 673.312,-147.571"/>
</g>
<!-- Node14 -->
<g id="node29" class="node"><title>Node14</title>
<polygon fill="white" stroke="#bfbfbf" points="727.812,-116.5 727.812,-137.5 789.812,-137.5 789.812,-116.5 727.812,-116.5"/>
<text text-anchor="middle" x="758.812" y="-124.5" font-family="DejaVuSans" font-size="10.00">QLineEdit</text>
</g>
<!-- Node11&#45;&gt;Node14 -->
<g id="edge30" class="edge"><title>Node11&#45;&gt;Node14</title>
<path fill="none" stroke="midnightblue" d="M686.136,-174.362C699.56,-165.614 718.795,-153.079 734.104,-143.101"/>
<polygon fill="midnightblue" stroke="midnightblue" points="736.124,-145.963 742.591,-137.571 732.302,-140.098 736.124,-145.963"/>
</g>
<!-- Node15 -->
<g id="node31" class="node"><title>Node15</title>
<a xlink:href="_trait_dots_8h.html" target="_top" xlink:title="TraitDots.h">
<polygon fill="white" stroke="black" points="807.812,-116.5 807.812,-137.5 875.812,-137.5 875.812,-116.5 807.812,-116.5"/>
<text text-anchor="middle" x="841.812" y="-124.5" font-family="DejaVuSans" font-size="10.00">TraitDots.h</text>
</a>
</g>
<!-- Node11&#45;&gt;Node15 -->
<g id="edge32" class="edge"><title>Node11&#45;&gt;Node15</title>
<path fill="none" stroke="midnightblue" d="M700.96,-174.497C729,-165.041 770.393,-151.083 801.057,-140.743"/>
<polygon fill="midnightblue" stroke="midnightblue" points="802.248,-144.035 810.605,-137.523 800.011,-137.402 802.248,-144.035"/>
</g>
<!-- Node19 -->
<g id="node39" class="node"><title>Node19</title>
<polygon fill="white" stroke="#bfbfbf" points="910.812,-58.5 910.812,-79.5 966.812,-79.5 966.812,-58.5 910.812,-58.5"/>
<text text-anchor="middle" x="938.812" y="-66.5" font-family="DejaVuSans" font-size="10.00">QWidget</text>
</g>
<!-- Node11&#45;&gt;Node19 -->
<g id="edge52" class="edge"><title>Node11&#45;&gt;Node19</title>
<path fill="none" stroke="midnightblue" d="M702.497,-180.62C754.861,-173.149 854.724,-156.904 884.812,-138 904.118,-125.87 919.328,-104.289 928.621,-88.4839"/>
<polygon fill="midnightblue" stroke="midnightblue" points="931.804,-89.9622 933.626,-79.5251 925.693,-86.5482 931.804,-89.9622"/>
</g>
<!-- Node20 -->
<g id="node41" class="node"><title>Node20</title>
<a xlink:href="_trait_specialties_8h.html" target="_top" xlink:title="TraitSpecialties.h">
<polygon fill="white" stroke="black" points="515.312,-116.5 515.312,-137.5 612.312,-137.5 612.312,-116.5 515.312,-116.5"/>
<text text-anchor="middle" x="563.812" y="-124.5" font-family="DejaVuSans" font-size="10.00">TraitSpecialties.h</text>
</a>
</g>
<!-- Node11&#45;&gt;Node20 -->
<g id="edge42" class="edge"><title>Node11&#45;&gt;Node20</title>
<path fill="none" stroke="midnightblue" d="M650.37,-174.362C634.008,-165.409 610.398,-152.491 591.968,-142.406"/>
<polygon fill="midnightblue" stroke="midnightblue" points="593.583,-139.3 583.13,-137.571 590.223,-145.441 593.583,-139.3"/>
</g>
<!-- Node16 -->
<g id="node33" class="node"><title>Node16</title>
<polygon fill="white" stroke="#bfbfbf" points="786.312,-58.5 786.312,-79.5 835.312,-79.5 835.312,-58.5 786.312,-58.5"/>
<text text-anchor="middle" x="810.812" y="-66.5" font-family="DejaVuSans" font-size="10.00">QColor</text>
</g>
<!-- Node15&#45;&gt;Node16 -->
<g id="edge34" class="edge"><title>Node15&#45;&gt;Node16</title>
<path fill="none" stroke="midnightblue" d="M836.126,-116.362C831.974,-108.595 826.228,-97.8426 821.259,-88.5458"/>
<polygon fill="midnightblue" stroke="midnightblue" points="824.262,-86.7401 816.462,-79.5707 818.089,-90.0398 824.262,-86.7401"/>
</g>
<!-- Node17 -->
<g id="node35" class="node"><title>Node17</title>
<polygon fill="white" stroke="#bfbfbf" points="852.312,-58.5 852.312,-79.5 893.312,-79.5 893.312,-58.5 852.312,-58.5"/>
<text text-anchor="middle" x="872.812" y="-66.5" font-family="DejaVuSans" font-size="10.00">QList</text>
</g>
<!-- Node15&#45;&gt;Node17 -->
<g id="edge36" class="edge"><title>Node15&#45;&gt;Node17</title>
<path fill="none" stroke="midnightblue" d="M847.498,-116.362C851.649,-108.595 857.396,-97.8426 862.365,-88.5458"/>
<polygon fill="midnightblue" stroke="midnightblue" points="865.535,-90.0398 867.162,-79.5707 859.361,-86.7401 865.535,-90.0398"/>
</g>
<!-- Node18 -->
<g id="node37" class="node"><title>Node18</title>
<polygon fill="white" stroke="#bfbfbf" points="718.312,-58.5 718.312,-79.5 769.312,-79.5 769.312,-58.5 718.312,-58.5"/>
<text text-anchor="middle" x="743.812" y="-66.5" font-family="DejaVuSans" font-size="10.00">QEvent</text>
</g>
<!-- Node15&#45;&gt;Node18 -->
<g id="edge38" class="edge"><title>Node15&#45;&gt;Node18</title>
<path fill="none" stroke="midnightblue" d="M823.837,-116.362C808.917,-107.532 787.479,-94.844 770.546,-84.8224"/>
<polygon fill="midnightblue" stroke="midnightblue" points="772.061,-81.6519 761.672,-79.5707 768.496,-87.6759 772.061,-81.6519"/>
</g>
<!-- Node15&#45;&gt;Node19 -->
<g id="edge40" class="edge"><title>Node15&#45;&gt;Node19</title>
<path fill="none" stroke="midnightblue" d="M859.603,-116.362C874.37,-107.532 895.59,-94.844 912.35,-84.8224"/>
<polygon fill="midnightblue" stroke="midnightblue" points="914.347,-87.7066 921.133,-79.5707 910.754,-81.6987 914.347,-87.7066"/>
</g>
<!-- Node20&#45;&gt;Node10 -->
<g id="edge46" class="edge"><title>Node20&#45;&gt;Node10</title>
<path fill="none" stroke="midnightblue" d="M535.742,-116.497C510.801,-107.164 474.138,-93.4447 446.62,-83.1475"/>
<polygon fill="midnightblue" stroke="midnightblue" points="447.526,-79.7497 436.934,-79.5231 445.073,-86.3058 447.526,-79.7497"/>
</g>
<!-- Node21 -->
<g id="node43" class="node"><title>Node21</title>
<polygon fill="white" stroke="#bfbfbf" points="610.312,-58.5 610.312,-79.5 663.312,-79.5 663.312,-58.5 610.312,-58.5"/>
<text text-anchor="middle" x="636.812" y="-66.5" font-family="DejaVuSans" font-size="10.00">QString</text>
</g>
<!-- Node20&#45;&gt;Node21 -->
<g id="edge44" class="edge"><title>Node20&#45;&gt;Node21</title>
<path fill="none" stroke="midnightblue" d="M577.201,-116.362C587.903,-107.859 603.108,-95.7785 615.482,-85.9466"/>
<polygon fill="midnightblue" stroke="midnightblue" points="617.855,-88.5318 623.507,-79.5707 613.5,-83.0511 617.855,-88.5318"/>
</g>
<!-- Node22 -->
<g id="node46" class="node"><title>Node22</title>
<a xlink:href="_checked_list_8h.html" target="_top" xlink:title="CheckedList.h">
<polygon fill="white" stroke="black" points="510.312,-58.5 510.312,-79.5 593.312,-79.5 593.312,-58.5 510.312,-58.5"/>
<text text-anchor="middle" x="551.812" y="-66.5" font-family="DejaVuSans" font-size="10.00">CheckedList.h</text>
</a>
</g>
<!-- Node20&#45;&gt;Node22 -->
<g id="edge48" class="edge"><title>Node20&#45;&gt;Node22</title>
<path fill="none" stroke="midnightblue" d="M561.611,-116.362C560.054,-108.84 557.919,-98.5187 556.039,-89.4308"/>
<polygon fill="midnightblue" stroke="midnightblue" points="559.452,-88.6541 553.999,-79.5707 552.597,-90.0724 559.452,-88.6541"/>
</g>
<!-- Node23 -->
<g id="node48" class="node"><title>Node23</title>
<polygon fill="white" stroke="#bfbfbf" points="515.312,-0.5 515.312,-21.5 588.312,-21.5 588.312,-0.5 515.312,-0.5"/>
<text text-anchor="middle" x="551.812" y="-8.5" font-family="DejaVuSans" font-size="10.00">QListWidget</text>
</g>
<!-- Node22&#45;&gt;Node23 -->
<g id="edge50" class="edge"><title>Node22&#45;&gt;Node23</title>
<path fill="none" stroke="midnightblue" d="M551.812,-58.3619C551.812,-50.9219 551.812,-40.7427 551.812,-31.7276"/>
<polygon fill="midnightblue" stroke="midnightblue" points="555.312,-31.5706 551.812,-21.5707 548.312,-31.5707 555.312,-31.5706"/>
</g>
<!-- Node30&#45;&gt;Node8 -->
<g id="edge74" class="edge"><title>Node30&#45;&gt;Node8</title>
<path fill="none" stroke="midnightblue" d="M1331.64,-233.412C1328.65,-232.915 1325.7,-232.44 1322.81,-232 1216.48,-215.796 1093.37,-201.95 1013,-193.568"/>
<polygon fill="midnightblue" stroke="midnightblue" points="1013.24,-190.074 1002.93,-192.523 1012.51,-197.036 1013.24,-190.074"/>
</g>
<!-- Node30&#45;&gt;Node12 -->
<g id="edge72" class="edge"><title>Node30&#45;&gt;Node12</title>
<path fill="none" stroke="midnightblue" d="M1351.73,-232.491C1324.56,-222.99 1283.49,-208.603 1247.81,-196 1192.12,-176.328 1127.5,-153.305 1088.68,-139.452"/>
<polygon fill="midnightblue" stroke="midnightblue" points="1089.51,-136.032 1078.91,-135.967 1087.15,-142.625 1089.51,-136.032"/>
</g>
<!-- Node30&#45;&gt;Node19 -->
<g id="edge76" class="edge"><title>Node30&#45;&gt;Node19</title>
<path fill="none" stroke="midnightblue" d="M1360.07,-232.469C1311.85,-209.369 1191.97,-153.339 1087.81,-116 1050.42,-102.595 1007.05,-89.1461 976.776,-80.0904"/>
<polygon fill="midnightblue" stroke="midnightblue" points="977.622,-76.6906 967.039,-77.1942 975.626,-83.4001 977.622,-76.6906"/>
</g>
<!-- Node31 -->
<g id="node66" class="node"><title>Node31</title>
<polygon fill="white" stroke="#bfbfbf" points="1343.81,-174.5 1343.81,-195.5 1419.81,-195.5 1419.81,-174.5 1343.81,-174.5"/>
<text text-anchor="middle" x="1381.81" y="-182.5" font-family="DejaVuSans" font-size="10.00">QGridLayout</text>
</g>
<!-- Node30&#45;&gt;Node31 -->
<g id="edge70" class="edge"><title>Node30&#45;&gt;Node31</title>
<path fill="none" stroke="midnightblue" d="M1381.81,-232.362C1381.81,-224.922 1381.81,-214.743 1381.81,-205.728"/>
<polygon fill="midnightblue" stroke="midnightblue" points="1385.31,-205.571 1381.81,-195.571 1378.31,-205.571 1385.31,-205.571"/>
</g>
</g>
</svg>
