<?xml version="1.0" encoding="UTF-8" standalone="no"?>
<!DOCTYPE svg PUBLIC "-//W3C//DTD SVG 1.1//EN"
 "http://www.w3.org/Graphics/SVG/1.1/DTD/svg11.dtd">
<!-- Generated by graphviz version 2.26.3 (20100126.1600)
 -->
<!-- Title: G Pages: 1 -->
<svg width="1258pt" height="320pt"
 viewBox="0.00 0.00 1257.66 320.00" xmlns="http://www.w3.org/2000/svg" xmlns:xlink="http://www.w3.org/1999/xlink">
<g id="graph1" class="graph" transform="scale(1 1) rotate(0) translate(4 316)">
<title>G</title>
<polygon fill="white" stroke="white" points="-4,5 -4,-316 1254.66,-316 1254.66,5 -4,5"/>
<!-- Node1 -->
<g id="node1" class="node"><title>Node1</title>
<polygon fill="#bfbfbf" stroke="black" points="308.165,-290.5 308.165,-311.5 477.165,-311.5 477.165,-290.5 308.165,-290.5"/>
<text text-anchor="middle" x="392.665" y="-298.5" font-family="DejaVuSans" font-size="10.00">src/Widgets/AttributeWidget.cpp</text>
</g>
<!-- Node2 -->
<g id="node3" class="node"><title>Node2</title>
<polygon fill="white" stroke="#bfbfbf" points="116.665,-116.5 116.665,-137.5 198.665,-137.5 198.665,-116.5 116.665,-116.5"/>
<text text-anchor="middle" x="157.665" y="-124.5" font-family="DejaVuSans" font-size="10.00">QHBoxLayout</text>
</g>
<!-- Node1&#45;&gt;Node2 -->
<g id="edge2" class="edge"><title>Node1&#45;&gt;Node2</title>
<path fill="none" stroke="midnightblue" d="M307.953,-296.438C201.43,-289.82 30.0328,-275.897 10.6648,-254 -29.9961,-208.03 61.4252,-163.243 117.698,-141.185"/>
<polygon fill="midnightblue" stroke="midnightblue" points="118.994,-144.437 127.079,-137.589 116.488,-137.9 118.994,-144.437"/>
</g>
<!-- Node3 -->
<g id="node5" class="node"><title>Node3</title>
<polygon fill="white" stroke="#bfbfbf" points="19.1648,-232.5 19.1648,-253.5 100.165,-253.5 100.165,-232.5 19.1648,-232.5"/>
<text text-anchor="middle" x="59.6648" y="-240.5" font-family="DejaVuSans" font-size="10.00">QVBoxLayout</text>
</g>
<!-- Node1&#45;&gt;Node3 -->
<g id="edge4" class="edge"><title>Node1&#45;&gt;Node3</title>
<path fill="none" stroke="midnightblue" d="M322.147,-290.47C266.921,-281.961 187.941,-269.218 110.231,-254.236"/>
<polygon fill="midnightblue" stroke="midnightblue" points="110.753,-250.772 100.269,-252.302 109.419,-257.644 110.753,-250.772"/>
</g>
<!-- Node4 -->
<g id="node7" class="node"><title>Node4</title>
<polygon fill="white" stroke="#bfbfbf" points="117.165,-232.5 117.165,-253.5 188.165,-253.5 188.165,-232.5 117.165,-232.5"/>
<text text-anchor="middle" x="152.665" y="-240.5" font-family="DejaVuSans" font-size="10.00">QGroupBox</text>
</g>
<!-- Node1&#45;&gt;Node4 -->
<g id="edge6" class="edge"><title>Node1&#45;&gt;Node4</title>
<path fill="none" stroke="midnightblue" d="M349.203,-290.497C306.469,-280.169 241.509,-264.471 198.105,-253.981"/>
<polygon fill="midnightblue" stroke="midnightblue" points="198.918,-250.577 188.375,-251.63 197.273,-257.381 198.918,-250.577"/>
</g>
<!-- Node5 -->
<g id="node9" class="node"><title>Node5</title>
<polygon fill="white" stroke="#bfbfbf" points="429.165,-116.5 429.165,-137.5 498.165,-137.5 498.165,-116.5 429.165,-116.5"/>
<text text-anchor="middle" x="463.665" y="-124.5" font-family="DejaVuSans" font-size="10.00">QStringList</text>
</g>
<!-- Node1&#45;&gt;Node5 -->
<g id="edge8" class="edge"><title>Node1&#45;&gt;Node5</title>
<path fill="none" stroke="midnightblue" d="M330.852,-290.425C291.788,-282.34 246.513,-269.886 234.665,-254 228.819,-246.162 233.199,-241.667 234.665,-232 238.71,-205.314 232.816,-192.289 252.665,-174 276.519,-152.02 364.362,-138.294 418.903,-131.697"/>
<polygon fill="midnightblue" stroke="midnightblue" points="419.484,-135.153 429.007,-130.51 418.667,-128.201 419.484,-135.153"/>
</g>
<!-- Node6 -->
<g id="node11" class="node"><title>Node6</title>
<polygon fill="white" stroke="#bfbfbf" points="243.665,-232.5 243.665,-253.5 299.665,-253.5 299.665,-232.5 243.665,-232.5"/>
<text text-anchor="middle" x="271.665" y="-240.5" font-family="DejaVuSans" font-size="10.00">QDebug</text>
</g>
<!-- Node1&#45;&gt;Node6 -->
<g id="edge10" class="edge"><title>Node1&#45;&gt;Node6</title>
<path fill="none" stroke="midnightblue" d="M370.753,-290.497C351.854,-281.438 324.334,-268.246 303.089,-258.063"/>
<polygon fill="midnightblue" stroke="midnightblue" points="304.353,-254.788 293.823,-253.621 301.328,-261.1 304.353,-254.788"/>
</g>
<!-- Node7 -->
<g id="node13" class="node"><title>Node7</title>
<a xlink:href="_chara_trait_8h.html" target="_top" xlink:title="CharaTrait.h">
<polygon fill="white" stroke="black" points="355.665,-232.5 355.665,-253.5 429.665,-253.5 429.665,-232.5 355.665,-232.5"/>
<text text-anchor="middle" x="392.665" y="-240.5" font-family="DejaVuSans" font-size="10.00">CharaTrait.h</text>
</a>
</g>
<!-- Node1&#45;&gt;Node7 -->
<g id="edge12" class="edge"><title>Node1&#45;&gt;Node7</title>
<path fill="none" stroke="midnightblue" d="M392.665,-290.362C392.665,-282.922 392.665,-272.743 392.665,-263.728"/>
<polygon fill="midnightblue" stroke="midnightblue" points="396.165,-263.571 392.665,-253.571 389.165,-263.571 396.165,-263.571"/>
</g>
<!-- Node9 -->
<g id="node17" class="node"><title>Node9</title>
<polygon fill="white" stroke="#bfbfbf" points="261.165,-174.5 261.165,-195.5 374.165,-195.5 374.165,-174.5 261.165,-174.5"/>
<text text-anchor="middle" x="317.665" y="-182.5" font-family="DejaVuSans" font-size="10.00">Datatypes/cv_Trait.h</text>
</g>
<!-- Node1&#45;&gt;Node9 -->
<g id="edge56" class="edge"><title>Node1&#45;&gt;Node9</title>
<path fill="none" stroke="midnightblue" d="M380.003,-290.479C369.927,-281.586 356.014,-268.076 346.665,-254 336.697,-238.991 329.019,-219.999 324.075,-205.741"/>
<polygon fill="midnightblue" stroke="midnightblue" points="327.288,-204.308 320.835,-195.906 320.64,-206.499 327.288,-204.308"/>
</g>
<!-- Node24 -->
<g id="node51" class="node"><title>Node24</title>
<polygon fill="white" stroke="#bfbfbf" points="447.665,-232.5 447.665,-253.5 573.665,-253.5 573.665,-232.5 447.665,-232.5"/>
<text text-anchor="middle" x="510.665" y="-240.5" font-family="DejaVuSans" font-size="10.00">Calc/CalcAdvantages.h</text>
</g>
<!-- Node1&#45;&gt;Node24 -->
<g id="edge54" class="edge"><title>Node1&#45;&gt;Node24</title>
<path fill="none" stroke="midnightblue" d="M414.034,-290.497C432.464,-281.438 459.302,-268.246 480.02,-258.063"/>
<polygon fill="midnightblue" stroke="midnightblue" points="481.626,-261.174 489.056,-253.621 478.538,-254.891 481.626,-261.174"/>
</g>
<!-- Node25 -->
<g id="node54" class="node"><title>Node25</title>
<polygon fill="white" stroke="#bfbfbf" points="591.165,-232.5 591.165,-253.5 716.165,-253.5 716.165,-232.5 591.165,-232.5"/>
<text text-anchor="middle" x="653.665" y="-240.5" font-family="DejaVuSans" font-size="10.00">Datatypes/cv_Shape.h</text>
</g>
<!-- Node1&#45;&gt;Node25 -->
<g id="edge58" class="edge"><title>Node1&#45;&gt;Node25</title>
<path fill="none" stroke="midnightblue" d="M439.93,-290.497C483.861,-280.734 549.392,-266.172 596.302,-255.747"/>
<polygon fill="midnightblue" stroke="midnightblue" points="597.308,-259.109 606.311,-253.523 595.79,-252.276 597.308,-259.109"/>
</g>
<!-- Node26 -->
<g id="node56" class="node"><title>Node26</title>
<polygon fill="white" stroke="#bfbfbf" points="733.165,-232.5 733.165,-253.5 860.165,-253.5 860.165,-232.5 733.165,-232.5"/>
<text text-anchor="middle" x="796.665" y="-240.5" font-family="DejaVuSans" font-size="10.00">Exceptions/Exception.h</text>
</g>
<!-- Node1&#45;&gt;Node26 -->
<g id="edge60" class="edge"><title>Node1&#45;&gt;Node26</title>
<path fill="none" stroke="midnightblue" d="M468.849,-290.457C533.797,-281.413 629.932,-267.896 722.917,-254.247"/>
<polygon fill="midnightblue" stroke="midnightblue" points="723.683,-257.672 733.067,-252.755 722.664,-250.747 723.683,-257.672"/>
</g>
<!-- Node27 -->
<g id="node58" class="node"><title>Node27</title>
<polygon fill="white" stroke="#bfbfbf" points="877.165,-232.5 877.165,-253.5 966.165,-253.5 966.165,-232.5 877.165,-232.5"/>
<text text-anchor="middle" x="921.665" y="-240.5" font-family="DejaVuSans" font-size="10.00">Config/Config.h</text>
</g>
<!-- Node1&#45;&gt;Node27 -->
<g id="edge62" class="edge"><title>Node1&#45;&gt;Node27</title>
<path fill="none" stroke="midnightblue" d="M477.267,-295.373C570.47,-288.557 724.947,-275.442 866.721,-254.183"/>
<polygon fill="midnightblue" stroke="midnightblue" points="867.544,-257.598 876.906,-252.638 866.494,-250.677 867.544,-257.598"/>
</g>
<!-- Node28 -->
<g id="node60" class="node"><title>Node28</title>
<polygon fill="white" stroke="#bfbfbf" points="983.165,-232.5 983.165,-253.5 1132.16,-253.5 1132.16,-232.5 983.165,-232.5"/>
<text text-anchor="middle" x="1057.66" y="-240.5" font-family="DejaVuSans" font-size="10.00">Storage/StorageTemplate.h</text>
</g>
<!-- Node1&#45;&gt;Node28 -->
<g id="edge64" class="edge"><title>Node1&#45;&gt;Node28</title>
<path fill="none" stroke="midnightblue" d="M477.611,-295.508C589.018,-287.998 790.809,-273.341 972.994,-254.139"/>
<polygon fill="midnightblue" stroke="midnightblue" points="973.455,-257.61 983.03,-253.075 972.716,-250.649 973.455,-257.61"/>
</g>
<!-- Node29 -->
<g id="node62" class="node"><title>Node29</title>
<a xlink:href="_attribute_widget_8h.html" target="_top" xlink:title="AttributeWidget.h">
<polygon fill="white" stroke="black" points="1149.66,-232.5 1149.66,-253.5 1249.66,-253.5 1249.66,-232.5 1149.66,-232.5"/>
<text text-anchor="middle" x="1199.66" y="-240.5" font-family="DejaVuSans" font-size="10.00">AttributeWidget.h</text>
</a>
</g>
<!-- Node1&#45;&gt;Node29 -->
<g id="edge66" class="edge"><title>Node1&#45;&gt;Node29</title>
<path fill="none" stroke="midnightblue" d="M477.388,-299.029C614.477,-295.098 893.535,-284.03 1139.32,-254.037"/>
<polygon fill="midnightblue" stroke="midnightblue" points="1140.02,-257.476 1149.52,-252.779 1139.16,-250.529 1140.02,-257.476"/>
</g>
<!-- Node8 -->
<g id="node15" class="node"><title>Node8</title>
<polygon fill="white" stroke="#bfbfbf" points="781.665,-174.5 781.665,-195.5 933.665,-195.5 933.665,-174.5 781.665,-174.5"/>
<text text-anchor="middle" x="857.665" y="-182.5" font-family="DejaVuSans" font-size="10.00">Storage/StorageCharacter.h</text>
</g>
<!-- Node7&#45;&gt;Node8 -->
<g id="edge14" class="edge"><title>Node7&#45;&gt;Node8</title>
<path fill="none" stroke="midnightblue" d="M429.74,-233.72C432.75,-233.093 435.753,-232.509 438.665,-232 552.989,-211.997 686.427,-198.743 771.448,-191.551"/>
<polygon fill="midnightblue" stroke="midnightblue" points="771.898,-195.025 781.572,-190.704 771.315,-188.05 771.898,-195.025"/>
</g>
<!-- Node7&#45;&gt;Node9 -->
<g id="edge16" class="edge"><title>Node7&#45;&gt;Node9</title>
<path fill="none" stroke="midnightblue" d="M378.909,-232.362C367.914,-223.859 352.292,-211.779 339.578,-201.947"/>
<polygon fill="midnightblue" stroke="midnightblue" points="341.385,-198.919 331.334,-195.571 337.103,-204.457 341.385,-198.919"/>
</g>
<!-- Node10 -->
<g id="node19" class="node"><title>Node10</title>
<polygon fill="white" stroke="#bfbfbf" points="338.165,-58.5 338.165,-79.5 479.165,-79.5 479.165,-58.5 338.165,-58.5"/>
<text text-anchor="middle" x="408.665" y="-66.5" font-family="DejaVuSans" font-size="10.00">Datatypes/cv_TraitDetail.h</text>
</g>
<!-- Node7&#45;&gt;Node10 -->
<g id="edge18" class="edge"><title>Node7&#45;&gt;Node10</title>
<path fill="none" stroke="midnightblue" d="M393.642,-232.377C396.224,-204.293 403.269,-127.673 406.715,-90.2027"/>
<polygon fill="midnightblue" stroke="midnightblue" points="410.229,-90.2062 407.66,-79.9277 403.259,-89.5652 410.229,-90.2062"/>
</g>
<!-- Node11 -->
<g id="node21" class="node"><title>Node11</title>
<a xlink:href="_trait_line_8h.html" target="_top" xlink:title="TraitLine.h">
<polygon fill="white" stroke="black" points="637.165,-174.5 637.165,-195.5 702.165,-195.5 702.165,-174.5 637.165,-174.5"/>
<text text-anchor="middle" x="669.665" y="-182.5" font-family="DejaVuSans" font-size="10.00">TraitLine.h</text>
</a>
</g>
<!-- Node7&#45;&gt;Node11 -->
<g id="edge20" class="edge"><title>Node7&#45;&gt;Node11</title>
<path fill="none" stroke="midnightblue" d="M429.797,-234.006C432.794,-233.315 435.778,-232.639 438.665,-232 504.235,-217.494 580.653,-202.274 627.074,-193.215"/>
<polygon fill="midnightblue" stroke="midnightblue" points="627.927,-196.615 637.074,-191.268 626.589,-189.744 627.927,-196.615"/>
</g>
<!-- Node11&#45;&gt;Node2 -->
<g id="edge24" class="edge"><title>Node11&#45;&gt;Node2</title>
<path fill="none" stroke="midnightblue" d="M636.858,-181.284C550.031,-171.448 313.728,-144.679 208.913,-132.805"/>
<polygon fill="midnightblue" stroke="midnightblue" points="209.22,-129.318 198.89,-131.67 208.432,-136.273 209.22,-129.318"/>
</g>
<!-- Node11&#45;&gt;Node5 -->
<g id="edge22" class="edge"><title>Node11&#45;&gt;Node5</title>
<path fill="none" stroke="midnightblue" d="M637.023,-175.81C602.239,-166.016 546.949,-150.449 508.185,-139.535"/>
<polygon fill="midnightblue" stroke="midnightblue" points="508.79,-136.069 498.215,-136.728 506.892,-142.807 508.79,-136.069"/>
</g>
<!-- Node12 -->
<g id="node25" class="node"><title>Node12</title>
<polygon fill="white" stroke="#bfbfbf" points="960.665,-116.5 960.665,-137.5 1010.66,-137.5 1010.66,-116.5 960.665,-116.5"/>
<text text-anchor="middle" x="985.665" y="-124.5" font-family="DejaVuSans" font-size="10.00">QLabel</text>
</g>
<!-- Node11&#45;&gt;Node12 -->
<g id="edge26" class="edge"><title>Node11&#45;&gt;Node12</title>
<path fill="none" stroke="midnightblue" d="M702.292,-179.011C762.068,-168.04 888.662,-144.804 950.367,-133.479"/>
<polygon fill="midnightblue" stroke="midnightblue" points="951.196,-136.885 960.4,-131.637 949.932,-130 951.196,-136.885"/>
</g>
<!-- Node13 -->
<g id="node27" class="node"><title>Node13</title>
<polygon fill="white" stroke="#bfbfbf" points="629.665,-116.5 629.665,-137.5 709.665,-137.5 709.665,-116.5 629.665,-116.5"/>
<text text-anchor="middle" x="669.665" y="-124.5" font-family="DejaVuSans" font-size="10.00">QPushButton</text>
</g>
<!-- Node11&#45;&gt;Node13 -->
<g id="edge28" class="edge"><title>Node11&#45;&gt;Node13</title>
<path fill="none" stroke="midnightblue" d="M669.665,-174.362C669.665,-166.922 669.665,-156.743 669.665,-147.728"/>
<polygon fill="midnightblue" stroke="midnightblue" points="673.165,-147.571 669.665,-137.571 666.165,-147.571 673.165,-147.571"/>
</g>
<!-- Node14 -->
<g id="node29" class="node"><title>Node14</title>
<polygon fill="white" stroke="#bfbfbf" points="727.665,-116.5 727.665,-137.5 789.665,-137.5 789.665,-116.5 727.665,-116.5"/>
<text text-anchor="middle" x="758.665" y="-124.5" font-family="DejaVuSans" font-size="10.00">QLineEdit</text>
</g>
<!-- Node11&#45;&gt;Node14 -->
<g id="edge30" class="edge"><title>Node11&#45;&gt;Node14</title>
<path fill="none" stroke="midnightblue" d="M685.989,-174.362C699.413,-165.614 718.648,-153.079 733.957,-143.101"/>
<polygon fill="midnightblue" stroke="midnightblue" points="735.977,-145.963 742.444,-137.571 732.155,-140.098 735.977,-145.963"/>
</g>
<!-- Node15 -->
<g id="node31" class="node"><title>Node15</title>
<a xlink:href="_trait_dots_8h.html" target="_top" xlink:title="TraitDots.h">
<polygon fill="white" stroke="black" points="807.665,-116.5 807.665,-137.5 875.665,-137.5 875.665,-116.5 807.665,-116.5"/>
<text text-anchor="middle" x="841.665" y="-124.5" font-family="DejaVuSans" font-size="10.00">TraitDots.h</text>
</a>
</g>
<!-- Node11&#45;&gt;Node15 -->
<g id="edge32" class="edge"><title>Node11&#45;&gt;Node15</title>
<path fill="none" stroke="midnightblue" d="M700.813,-174.497C728.853,-165.041 770.247,-151.083 800.91,-140.743"/>
<polygon fill="midnightblue" stroke="midnightblue" points="802.101,-144.035 810.458,-137.523 799.864,-137.402 802.101,-144.035"/>
</g>
<!-- Node19 -->
<g id="node39" class="node"><title>Node19</title>
<polygon fill="white" stroke="#bfbfbf" points="891.665,-58.5 891.665,-79.5 947.665,-79.5 947.665,-58.5 891.665,-58.5"/>
<text text-anchor="middle" x="919.665" y="-66.5" font-family="DejaVuSans" font-size="10.00">QWidget</text>
</g>
<!-- Node11&#45;&gt;Node19 -->
<g id="edge52" class="edge"><title>Node11&#45;&gt;Node19</title>
<path fill="none" stroke="midnightblue" d="M702.368,-181.308C755.254,-174.779 856.481,-159.797 884.665,-138 900.204,-125.982 909.412,-105.176 914.45,-89.5452"/>
<polygon fill="midnightblue" stroke="midnightblue" points="917.875,-90.3014 917.299,-79.7223 911.152,-88.3516 917.875,-90.3014"/>
</g>
<!-- Node20 -->
<g id="node41" class="node"><title>Node20</title>
<a xlink:href="_trait_specialties_8h.html" target="_top" xlink:title="TraitSpecialties.h">
<polygon fill="white" stroke="black" points="515.165,-116.5 515.165,-137.5 612.165,-137.5 612.165,-116.5 515.165,-116.5"/>
<text text-anchor="middle" x="563.665" y="-124.5" font-family="DejaVuSans" font-size="10.00">TraitSpecialties.h</text>
</a>
</g>
<!-- Node11&#45;&gt;Node20 -->
<g id="edge42" class="edge"><title>Node11&#45;&gt;Node20</title>
<path fill="none" stroke="midnightblue" d="M650.223,-174.362C633.861,-165.409 610.251,-152.491 591.821,-142.406"/>
<polygon fill="midnightblue" stroke="midnightblue" points="593.436,-139.3 582.984,-137.571 590.076,-145.441 593.436,-139.3"/>
</g>
<!-- Node16 -->
<g id="node33" class="node"><title>Node16</title>
<polygon fill="white" stroke="#bfbfbf" points="767.165,-58.5 767.165,-79.5 816.165,-79.5 816.165,-58.5 767.165,-58.5"/>
<text text-anchor="middle" x="791.665" y="-66.5" font-family="DejaVuSans" font-size="10.00">QColor</text>
</g>
<!-- Node15&#45;&gt;Node16 -->
<g id="edge34" class="edge"><title>Node15&#45;&gt;Node16</title>
<path fill="none" stroke="midnightblue" d="M832.494,-116.362C825.516,-108.268 815.744,-96.9318 807.509,-87.3796"/>
<polygon fill="midnightblue" stroke="midnightblue" points="809.958,-84.8595 800.777,-79.5707 804.656,-89.4301 809.958,-84.8595"/>
</g>
<!-- Node17 -->
<g id="node35" class="node"><title>Node17</title>
<polygon fill="white" stroke="#bfbfbf" points="833.165,-58.5 833.165,-79.5 874.165,-79.5 874.165,-58.5 833.165,-58.5"/>
<text text-anchor="middle" x="853.665" y="-66.5" font-family="DejaVuSans" font-size="10.00">QList</text>
</g>
<!-- Node15&#45;&gt;Node17 -->
<g id="edge36" class="edge"><title>Node15&#45;&gt;Node17</title>
<path fill="none" stroke="midnightblue" d="M843.866,-116.362C845.422,-108.84 847.557,-98.5187 849.438,-89.4308"/>
<polygon fill="midnightblue" stroke="midnightblue" points="852.879,-90.0724 851.478,-79.5707 846.024,-88.6541 852.879,-90.0724"/>
</g>
<!-- Node18 -->
<g id="node37" class="node"><title>Node18</title>
<polygon fill="white" stroke="#bfbfbf" points="699.165,-58.5 699.165,-79.5 750.165,-79.5 750.165,-58.5 699.165,-58.5"/>
<text text-anchor="middle" x="724.665" y="-66.5" font-family="DejaVuSans" font-size="10.00">QEvent</text>
</g>
<!-- Node15&#45;&gt;Node18 -->
<g id="edge38" class="edge"><title>Node15&#45;&gt;Node18</title>
<path fill="none" stroke="midnightblue" d="M820.477,-116.497C802.203,-107.438 775.592,-94.2462 755.05,-84.0628"/>
<polygon fill="midnightblue" stroke="midnightblue" points="756.604,-80.9269 746.09,-79.6212 753.495,-87.1986 756.604,-80.9269"/>
</g>
<!-- Node15&#45;&gt;Node19 -->
<g id="edge40" class="edge"><title>Node15&#45;&gt;Node19</title>
<path fill="none" stroke="midnightblue" d="M855.971,-116.362C867.516,-107.777 883.965,-95.5459 897.255,-85.6636"/>
<polygon fill="midnightblue" stroke="midnightblue" points="899.513,-88.3463 905.449,-79.5707 895.336,-82.7291 899.513,-88.3463"/>
</g>
<!-- Node20&#45;&gt;Node10 -->
<g id="edge46" class="edge"><title>Node20&#45;&gt;Node10</title>
<path fill="none" stroke="midnightblue" d="M535.595,-116.497C510.654,-107.164 473.991,-93.4447 446.473,-83.1475"/>
<polygon fill="midnightblue" stroke="midnightblue" points="447.379,-79.7497 436.787,-79.5231 444.926,-86.3058 447.379,-79.7497"/>
</g>
<!-- Node21 -->
<g id="node43" class="node"><title>Node21</title>
<polygon fill="white" stroke="#bfbfbf" points="610.165,-58.5 610.165,-79.5 663.165,-79.5 663.165,-58.5 610.165,-58.5"/>
<text text-anchor="middle" x="636.665" y="-66.5" font-family="DejaVuSans" font-size="10.00">QString</text>
</g>
<!-- Node20&#45;&gt;Node21 -->
<g id="edge44" class="edge"><title>Node20&#45;&gt;Node21</title>
<path fill="none" stroke="midnightblue" d="M577.054,-116.362C587.756,-107.859 602.961,-95.7785 615.335,-85.9466"/>
<polygon fill="midnightblue" stroke="midnightblue" points="617.708,-88.5318 623.36,-79.5707 613.353,-83.0511 617.708,-88.5318"/>
</g>
<!-- Node22 -->
<g id="node46" class="node"><title>Node22</title>
<a xlink:href="_checked_list_8h.html" target="_top" xlink:title="CheckedList.h">
<polygon fill="white" stroke="black" points="510.165,-58.5 510.165,-79.5 593.165,-79.5 593.165,-58.5 510.165,-58.5"/>
<text text-anchor="middle" x="551.665" y="-66.5" font-family="DejaVuSans" font-size="10.00">CheckedList.h</text>
</a>
</g>
<!-- Node20&#45;&gt;Node22 -->
<g id="edge48" class="edge"><title>Node20&#45;&gt;Node22</title>
<path fill="none" stroke="midnightblue" d="M561.464,-116.362C559.908,-108.84 557.772,-98.5187 555.892,-89.4308"/>
<polygon fill="midnightblue" stroke="midnightblue" points="559.305,-88.6541 553.852,-79.5707 552.451,-90.0724 559.305,-88.6541"/>
</g>
<!-- Node23 -->
<g id="node48" class="node"><title>Node23</title>
<polygon fill="white" stroke="#bfbfbf" points="515.165,-0.5 515.165,-21.5 588.165,-21.5 588.165,-0.5 515.165,-0.5"/>
<text text-anchor="middle" x="551.665" y="-8.5" font-family="DejaVuSans" font-size="10.00">QListWidget</text>
</g>
<!-- Node22&#45;&gt;Node23 -->
<g id="edge50" class="edge"><title>Node22&#45;&gt;Node23</title>
<path fill="none" stroke="midnightblue" d="M551.665,-58.3619C551.665,-50.9219 551.665,-40.7427 551.665,-31.7276"/>
<polygon fill="midnightblue" stroke="midnightblue" points="555.165,-31.5706 551.665,-21.5707 548.165,-31.5707 555.165,-31.5706"/>
</g>
<!-- Node29&#45;&gt;Node8 -->
<g id="edge72" class="edge"><title>Node29&#45;&gt;Node8</title>
<path fill="none" stroke="midnightblue" d="M1149.46,-233.571C1146.49,-233.034 1143.54,-232.506 1140.66,-232 1070.45,-219.625 990.267,-206.393 933.222,-197.132"/>
<polygon fill="midnightblue" stroke="midnightblue" points="933.636,-193.654 923.205,-195.508 932.516,-200.564 933.636,-193.654"/>
</g>
<!-- Node29&#45;&gt;Node12 -->
<g id="edge70" class="edge"><title>Node29&#45;&gt;Node12</title>
<path fill="none" stroke="midnightblue" d="M1170.68,-232.469C1147.87,-223.769 1115.55,-210.524 1088.66,-196 1059.63,-180.314 1028.43,-158.668 1008.07,-143.828"/>
<polygon fill="midnightblue" stroke="midnightblue" points="1009.92,-140.839 999.79,-137.728 1005.77,-146.476 1009.92,-140.839"/>
</g>
<!-- Node29&#45;&gt;Node19 -->
<g id="edge74" class="edge"><title>Node29&#45;&gt;Node19</title>
<path fill="none" stroke="midnightblue" d="M1186.21,-232.261C1157,-209.227 1085.12,-154.079 1019.66,-116 998.813,-103.869 974.317,-92.3152 954.788,-83.6984"/>
<polygon fill="midnightblue" stroke="midnightblue" points="955.923,-80.3752 945.357,-79.5939 953.13,-86.7937 955.923,-80.3752"/>
</g>
<!-- Node30 -->
<g id="node64" class="node"><title>Node30</title>
<polygon fill="white" stroke="#bfbfbf" points="1161.66,-174.5 1161.66,-195.5 1237.66,-195.5 1237.66,-174.5 1161.66,-174.5"/>
<text text-anchor="middle" x="1199.66" y="-182.5" font-family="DejaVuSans" font-size="10.00">QGridLayout</text>
</g>
<!-- Node29&#45;&gt;Node30 -->
<g id="edge68" class="edge"><title>Node29&#45;&gt;Node30</title>
<path fill="none" stroke="midnightblue" d="M1199.66,-232.362C1199.66,-224.922 1199.66,-214.743 1199.66,-205.728"/>
<polygon fill="midnightblue" stroke="midnightblue" points="1203.16,-205.571 1199.66,-195.571 1196.16,-205.571 1203.16,-205.571"/>
</g>
</g>
</svg>
