<?xml version="1.0" encoding="UTF-8" standalone="no"?>
<!DOCTYPE svg PUBLIC "-//W3C//DTD SVG 1.1//EN"
 "http://www.w3.org/Graphics/SVG/1.1/DTD/svg11.dtd">
<!-- Generated by graphviz version 2.26.3 (20100126.1600)
 -->
<!-- Title: G Pages: 1 -->
<svg width="1608pt" height="436pt"
 viewBox="0.00 0.00 1608.00 436.00" xmlns="http://www.w3.org/2000/svg" xmlns:xlink="http://www.w3.org/1999/xlink">
<g id="graph1" class="graph" transform="scale(1 1) rotate(0) translate(4 432)">
<title>G</title>
<polygon fill="white" stroke="white" points="-4,5 -4,-432 1605,-432 1605,5 -4,5"/>
<!-- Node1 -->
<g id="node1" class="node"><title>Node1</title>
<polygon fill="#bfbfbf" stroke="black" points="983.5,-406.5 983.5,-427.5 1152.5,-427.5 1152.5,-406.5 983.5,-406.5"/>
<text text-anchor="middle" x="1068" y="-414.5" font-family="DejaVuSans" font-size="10.00">src/Widgets/AttributeWidget.cpp</text>
</g>
<!-- Node2 -->
<g id="node3" class="node"><title>Node2</title>
<polygon fill="white" stroke="#bfbfbf" points="66,-232.5 66,-253.5 148,-253.5 148,-232.5 66,-232.5"/>
<text text-anchor="middle" x="107" y="-240.5" font-family="DejaVuSans" font-size="10.00">QHBoxLayout</text>
</g>
<!-- Node1&#45;&gt;Node2 -->
<g id="edge2" class="edge"><title>Node1&#45;&gt;Node2</title>
<path fill="none" stroke="midnightblue" d="M983.338,-412.455C847.672,-404.763 587.628,-388.227 497,-370 362.261,-342.902 209.007,-284.475 141.745,-257.362"/>
<polygon fill="midnightblue" stroke="midnightblue" points="143.04,-254.11 132.458,-253.597 140.41,-260.597 143.04,-254.11"/>
</g>
<!-- Node3 -->
<g id="node5" class="node"><title>Node3</title>
<polygon fill="white" stroke="#bfbfbf" points="1357.5,-348.5 1357.5,-369.5 1438.5,-369.5 1438.5,-348.5 1357.5,-348.5"/>
<text text-anchor="middle" x="1398" y="-356.5" font-family="DejaVuSans" font-size="10.00">QVBoxLayout</text>
</g>
<!-- Node1&#45;&gt;Node3 -->
<g id="edge4" class="edge"><title>Node1&#45;&gt;Node3</title>
<path fill="none" stroke="midnightblue" d="M1133.35,-406.482C1189.34,-397.324 1272.09,-383.443 1344,-370 1345.08,-369.798 1346.17,-369.592 1347.28,-369.382"/>
<polygon fill="midnightblue" stroke="midnightblue" points="1348.19,-372.771 1357.34,-367.429 1346.85,-365.899 1348.19,-372.771"/>
</g>
<!-- Node4 -->
<g id="node7" class="node"><title>Node4</title>
<polygon fill="white" stroke="#bfbfbf" points="1455.5,-348.5 1455.5,-369.5 1526.5,-369.5 1526.5,-348.5 1455.5,-348.5"/>
<text text-anchor="middle" x="1491" y="-356.5" font-family="DejaVuSans" font-size="10.00">QGroupBox</text>
</g>
<!-- Node1&#45;&gt;Node4 -->
<g id="edge6" class="edge"><title>Node1&#45;&gt;Node4</title>
<path fill="none" stroke="midnightblue" d="M1152.75,-409.468C1227.52,-402.138 1339.59,-389.494 1445.19,-370.191"/>
<polygon fill="midnightblue" stroke="midnightblue" points="1445.86,-373.625 1455.06,-368.363 1444.59,-366.742 1445.86,-373.625"/>
</g>
<!-- Node5 -->
<g id="node9" class="node"><title>Node5</title>
<polygon fill="white" stroke="#bfbfbf" points="584.5,-0.5 584.5,-21.5 653.5,-21.5 653.5,-0.5 584.5,-0.5"/>
<text text-anchor="middle" x="619" y="-8.5" font-family="DejaVuSans" font-size="10.00">QStringList</text>
</g>
<!-- Node1&#45;&gt;Node5 -->
<g id="edge8" class="edge"><title>Node1&#45;&gt;Node5</title>
<path fill="none" stroke="midnightblue" d="M983.303,-412.226C730.698,-397.43 0,-350.366 0,-301 0,-301 0,-301 0,-127 0,-68.5333 432.137,-26.7867 574.278,-14.6365"/>
<polygon fill="midnightblue" stroke="midnightblue" points="574.724,-18.1114 584.393,-13.7801 574.134,-11.1363 574.724,-18.1114"/>
</g>
<!-- Node6 -->
<g id="node11" class="node"><title>Node6</title>
<polygon fill="white" stroke="#bfbfbf" points="1544,-348.5 1544,-369.5 1600,-369.5 1600,-348.5 1544,-348.5"/>
<text text-anchor="middle" x="1572" y="-356.5" font-family="DejaVuSans" font-size="10.00">QDebug</text>
</g>
<!-- Node1&#45;&gt;Node6 -->
<g id="edge10" class="edge"><title>Node1&#45;&gt;Node6</title>
<path fill="none" stroke="midnightblue" d="M1152.64,-413.287C1244.54,-408.172 1395.6,-396.603 1533.92,-369.912"/>
<polygon fill="midnightblue" stroke="midnightblue" points="1534.72,-373.322 1543.86,-367.964 1533.37,-366.453 1534.72,-373.322"/>
</g>
<!-- Node7 -->
<g id="node13" class="node"><title>Node7</title>
<a xlink:href="_chara_trait_8h.html" target="_top" xlink:title="CharaTrait.h">
<polygon fill="white" stroke="black" points="722,-348.5 722,-369.5 796,-369.5 796,-348.5 722,-348.5"/>
<text text-anchor="middle" x="759" y="-356.5" font-family="DejaVuSans" font-size="10.00">CharaTrait.h</text>
</a>
</g>
<!-- Node1&#45;&gt;Node7 -->
<g id="edge12" class="edge"><title>Node1&#45;&gt;Node7</title>
<path fill="none" stroke="midnightblue" d="M1012.04,-406.497C953.101,-395.433 861.32,-378.206 805.999,-367.822"/>
<polygon fill="midnightblue" stroke="midnightblue" points="806.584,-364.37 796.109,-365.966 805.292,-371.25 806.584,-364.37"/>
</g>
<!-- Node14 -->
<g id="node32" class="node"><title>Node14</title>
<a xlink:href="cv___trait_8h.html" target="_top" xlink:title="../Datatypes/cv_Trait.h">
<polygon fill="white" stroke="black" points="888,-174.5 888,-195.5 1010,-195.5 1010,-174.5 888,-174.5"/>
<text text-anchor="middle" x="949" y="-182.5" font-family="DejaVuSans" font-size="10.00">../Datatypes/cv_Trait.h</text>
</a>
</g>
<!-- Node1&#45;&gt;Node14 -->
<g id="edge148" class="edge"><title>Node1&#45;&gt;Node14</title>
<path fill="none" stroke="midnightblue" d="M1040.56,-406.484C1024.08,-398.792 1004.03,-386.761 992,-370 955.733,-319.484 949.564,-242.998 948.83,-206.219"/>
<polygon fill="midnightblue" stroke="midnightblue" points="952.327,-205.73 948.752,-195.757 945.327,-205.783 952.327,-205.73"/>
</g>
<!-- Node20 -->
<g id="node57" class="node"><title>Node20</title>
<a xlink:href="_storage_template_8h.html" target="_top" xlink:title="StorageTemplate.h">
<polygon fill="white" stroke="black" points="732.5,-232.5 732.5,-253.5 839.5,-253.5 839.5,-232.5 732.5,-232.5"/>
<text text-anchor="middle" x="786" y="-240.5" font-family="DejaVuSans" font-size="10.00">StorageTemplate.h</text>
</a>
</g>
<!-- Node1&#45;&gt;Node20 -->
<g id="edge166" class="edge"><title>Node1&#45;&gt;Node20</title>
<path fill="none" stroke="midnightblue" d="M1038.45,-406.353C1016.02,-397.777 984.75,-384.75 959,-370 943.272,-360.991 851.495,-292.297 808.371,-259.861"/>
<polygon fill="midnightblue" stroke="midnightblue" points="810.287,-256.922 800.192,-253.705 806.077,-262.515 810.287,-256.922"/>
</g>
<!-- Node34 -->
<g id="node99" class="node"><title>Node34</title>
<a xlink:href="_calc_advantages_8h.html" target="_top" xlink:title="../Calc/CalcAdvantages.h">
<polygon fill="white" stroke="black" points="1000.5,-348.5 1000.5,-369.5 1135.5,-369.5 1135.5,-348.5 1000.5,-348.5"/>
<text text-anchor="middle" x="1068" y="-356.5" font-family="DejaVuSans" font-size="10.00">../Calc/CalcAdvantages.h</text>
</a>
</g>
<!-- Node1&#45;&gt;Node34 -->
<g id="edge130" class="edge"><title>Node1&#45;&gt;Node34</title>
<path fill="none" stroke="midnightblue" d="M1068,-406.362C1068,-398.922 1068,-388.743 1068,-379.728"/>
<polygon fill="midnightblue" stroke="midnightblue" points="1071.5,-379.571 1068,-369.571 1064.5,-379.571 1071.5,-379.571"/>
</g>
<!-- Node35 -->
<g id="node102" class="node"><title>Node35</title>
<a xlink:href="_config_8h.html" target="_top" xlink:title="../Config/Config.h">
<polygon fill="white" stroke="black" points="1479,-232.5 1479,-253.5 1577,-253.5 1577,-232.5 1479,-232.5"/>
<text text-anchor="middle" x="1528" y="-240.5" font-family="DejaVuSans" font-size="10.00">../Config/Config.h</text>
</a>
</g>
<!-- Node1&#45;&gt;Node35 -->
<g id="edge164" class="edge"><title>Node1&#45;&gt;Node35</title>
<path fill="none" stroke="midnightblue" d="M1099.12,-406.435C1126.72,-397.018 1168.11,-382.786 1204,-370 1274.46,-344.893 1292.34,-339.251 1362,-312 1408.03,-293.994 1460.64,-271.86 1494.07,-257.596"/>
<polygon fill="midnightblue" stroke="midnightblue" points="1495.56,-260.763 1503.38,-253.614 1492.81,-254.327 1495.56,-260.763"/>
</g>
<!-- Node37 -->
<g id="node108" class="node"><title>Node37</title>
<a xlink:href="cv___shape_8h.html" target="_top" xlink:title="../Datatypes/cv_Shape.h">
<polygon fill="white" stroke="black" points="1085,-232.5 1085,-253.5 1219,-253.5 1219,-232.5 1085,-232.5"/>
<text text-anchor="middle" x="1152" y="-240.5" font-family="DejaVuSans" font-size="10.00">../Datatypes/cv_Shape.h</text>
</a>
</g>
<!-- Node1&#45;&gt;Node37 -->
<g id="edge150" class="edge"><title>Node1&#45;&gt;Node37</title>
<path fill="none" stroke="midnightblue" d="M1097.96,-406.449C1114.49,-398.966 1133.71,-387.166 1144,-370 1163.68,-337.17 1160.38,-290.61 1156.2,-263.94"/>
<polygon fill="midnightblue" stroke="midnightblue" points="1159.6,-263.066 1154.42,-253.825 1152.71,-264.281 1159.6,-263.066"/>
</g>
<!-- Node38 -->
<g id="node114" class="node"><title>Node38</title>
<a xlink:href="_exception_8h_source.html" target="_top" xlink:title="../Exceptions/Exception.h">
<polygon fill="white" stroke="black" points="1182,-290.5 1182,-311.5 1318,-311.5 1318,-290.5 1182,-290.5"/>
<text text-anchor="middle" x="1250" y="-298.5" font-family="DejaVuSans" font-size="10.00">../Exceptions/Exception.h</text>
</a>
</g>
<!-- Node1&#45;&gt;Node38 -->
<g id="edge152" class="edge"><title>Node1&#45;&gt;Node38</title>
<path fill="none" stroke="midnightblue" d="M1100.5,-406.391C1123,-398.253 1153.07,-385.75 1177,-370 1198.88,-355.599 1220.21,-334.347 1234.11,-319.239"/>
<polygon fill="midnightblue" stroke="midnightblue" points="1236.93,-321.334 1241.02,-311.56 1231.73,-316.651 1236.93,-321.334"/>
</g>
<!-- Node39 -->
<g id="node123" class="node"><title>Node39</title>
<a xlink:href="_attribute_widget_8h.html" target="_top" xlink:title="AttributeWidget.h">
<polygon fill="white" stroke="black" points="506,-348.5 506,-369.5 606,-369.5 606,-348.5 506,-348.5"/>
<text text-anchor="middle" x="556" y="-356.5" font-family="DejaVuSans" font-size="10.00">AttributeWidget.h</text>
</a>
</g>
<!-- Node1&#45;&gt;Node39 -->
<g id="edge168" class="edge"><title>Node1&#45;&gt;Node39</title>
<path fill="none" stroke="midnightblue" d="M983.454,-407.422C879.938,-395.696 707.204,-376.129 616.245,-365.825"/>
<polygon fill="midnightblue" stroke="midnightblue" points="616.432,-362.324 606.102,-364.676 615.644,-369.279 616.432,-362.324"/>
</g>
<!-- Node8 -->
<g id="node15" class="node"><title>Node8</title>
<a xlink:href="_storage_character_8h.html" target="_top" xlink:title="../Storage/StorageCharacter.h">
<polygon fill="white" stroke="black" points="678.5,-290.5 678.5,-311.5 839.5,-311.5 839.5,-290.5 678.5,-290.5"/>
<text text-anchor="middle" x="759" y="-298.5" font-family="DejaVuSans" font-size="10.00">../Storage/StorageCharacter.h</text>
</a>
</g>
<!-- Node7&#45;&gt;Node8 -->
<g id="edge14" class="edge"><title>Node7&#45;&gt;Node8</title>
<path fill="none" stroke="midnightblue" d="M759,-348.362C759,-340.922 759,-330.743 759,-321.728"/>
<polygon fill="midnightblue" stroke="midnightblue" points="762.5,-321.571 759,-311.571 755.5,-321.571 762.5,-321.571"/>
</g>
<!-- Node7&#45;&gt;Node14 -->
<g id="edge92" class="edge"><title>Node7&#45;&gt;Node14</title>
<path fill="none" stroke="midnightblue" d="M785.662,-348.415C804.318,-340.209 829.17,-327.617 848,-312 886.599,-279.986 920.354,-231.087 937.338,-204.265"/>
<polygon fill="midnightblue" stroke="midnightblue" points="940.317,-206.102 942.626,-195.762 934.372,-202.405 940.317,-206.102"/>
</g>
<!-- Node17 -->
<g id="node42" class="node"><title>Node17</title>
<a xlink:href="cv___trait_detail_8h.html" target="_top" xlink:title="cv_TraitDetail.h">
<polygon fill="white" stroke="black" points="581.5,-116.5 581.5,-137.5 670.5,-137.5 670.5,-116.5 581.5,-116.5"/>
<text text-anchor="middle" x="626" y="-124.5" font-family="DejaVuSans" font-size="10.00">cv_TraitDetail.h</text>
</a>
</g>
<!-- Node7&#45;&gt;Node17 -->
<g id="edge94" class="edge"><title>Node7&#45;&gt;Node17</title>
<path fill="none" stroke="midnightblue" d="M723.89,-348.413C705.256,-341.061 683.485,-329.404 670,-312 631.7,-262.571 625.988,-185.014 625.608,-148.009"/>
<polygon fill="midnightblue" stroke="midnightblue" points="629.108,-147.91 625.631,-137.902 622.108,-147.894 629.108,-147.91"/>
</g>
<!-- Node23 -->
<g id="node71" class="node"><title>Node23</title>
<a xlink:href="_trait_line_8h.html" target="_top" xlink:title="TraitLine.h">
<polygon fill="white" stroke="black" points="335.5,-290.5 335.5,-311.5 400.5,-311.5 400.5,-290.5 335.5,-290.5"/>
<text text-anchor="middle" x="368" y="-298.5" font-family="DejaVuSans" font-size="10.00">TraitLine.h</text>
</a>
</g>
<!-- Node7&#45;&gt;Node23 -->
<g id="edge96" class="edge"><title>Node7&#45;&gt;Node23</title>
<path fill="none" stroke="midnightblue" d="M721.863,-353.491C649.129,-342.702 488.281,-318.842 411.041,-307.385"/>
<polygon fill="midnightblue" stroke="midnightblue" points="411.121,-303.858 400.715,-305.853 410.093,-310.782 411.121,-303.858"/>
</g>
<!-- Node9 -->
<g id="node17" class="node"><title>Node9</title>
<a xlink:href="cv___identity_8h.html" target="_top" xlink:title="../Datatypes/cv_Identity.h">
<polygon fill="white" stroke="black" points="725.5,-116.5 725.5,-137.5 862.5,-137.5 862.5,-116.5 725.5,-116.5"/>
<text text-anchor="middle" x="794" y="-124.5" font-family="DejaVuSans" font-size="10.00">../Datatypes/cv_Identity.h</text>
</a>
</g>
<!-- Node8&#45;&gt;Node9 -->
<g id="edge16" class="edge"><title>Node8&#45;&gt;Node9</title>
<path fill="none" stroke="midnightblue" d="M745.875,-290.487C735.99,-281.797 722.986,-268.557 716,-254 700.519,-221.743 688.674,-204.73 707,-174 715.811,-159.226 731.053,-148.816 746.343,-141.619"/>
<polygon fill="midnightblue" stroke="midnightblue" points="748.011,-144.711 755.812,-137.542 745.243,-138.282 748.011,-144.711"/>
</g>
<!-- Node12 -->
<g id="node26" class="node"><title>Node12</title>
<a xlink:href="cv___identity_list_8h.html" target="_top" xlink:title="../Datatypes/cv_IdentityList.h">
<polygon fill="white" stroke="black" points="715.5,-174.5 715.5,-195.5 870.5,-195.5 870.5,-174.5 715.5,-174.5"/>
<text text-anchor="middle" x="793" y="-182.5" font-family="DejaVuSans" font-size="10.00">../Datatypes/cv_IdentityList.h</text>
</a>
</g>
<!-- Node8&#45;&gt;Node12 -->
<g id="edge28" class="edge"><title>Node8&#45;&gt;Node12</title>
<path fill="none" stroke="midnightblue" d="M746.68,-290.185C732.712,-276.551 713.2,-252.424 724,-232 731.212,-218.362 744.354,-207.94 757.249,-200.417"/>
<polygon fill="midnightblue" stroke="midnightblue" points="758.919,-203.494 766.061,-195.668 755.598,-197.331 758.919,-203.494"/>
</g>
<!-- Node8&#45;&gt;Node14 -->
<g id="edge36" class="edge"><title>Node8&#45;&gt;Node14</title>
<path fill="none" stroke="midnightblue" d="M780.596,-290.46C798.856,-281.344 825.554,-267.534 848,-254 875.723,-237.284 906.243,-216.009 926.398,-201.532"/>
<polygon fill="midnightblue" stroke="midnightblue" points="928.568,-204.283 934.623,-195.589 924.468,-198.609 928.568,-204.283"/>
</g>
<!-- Node19 -->
<g id="node52" class="node"><title>Node19</title>
<a xlink:href="cv___derangement_8h.html" target="_top" xlink:title="../Datatypes/cv_Derangement.h">
<polygon fill="white" stroke="black" points="1242,-174.5 1242,-195.5 1412,-195.5 1412,-174.5 1242,-174.5"/>
<text text-anchor="middle" x="1327" y="-182.5" font-family="DejaVuSans" font-size="10.00">../Datatypes/cv_Derangement.h</text>
</a>
</g>
<!-- Node8&#45;&gt;Node19 -->
<g id="edge66" class="edge"><title>Node8&#45;&gt;Node19</title>
<path fill="none" stroke="midnightblue" d="M807.089,-290.451C889.139,-272.466 1049.88,-237.287 1076,-232 1137.38,-219.575 1207.45,-206.551 1257.93,-197.372"/>
<polygon fill="midnightblue" stroke="midnightblue" points="1258.86,-200.761 1268.08,-195.531 1257.61,-193.873 1258.86,-200.761"/>
</g>
<!-- Node8&#45;&gt;Node20 -->
<g id="edge74" class="edge"><title>Node8&#45;&gt;Node20</title>
<path fill="none" stroke="midnightblue" d="M763.952,-290.362C767.53,-282.677 772.468,-272.069 776.764,-262.84"/>
<polygon fill="midnightblue" stroke="midnightblue" points="780.032,-264.114 781.079,-253.571 773.686,-261.159 780.032,-264.114"/>
</g>
<!-- Node22 -->
<g id="node66" class="node"><title>Node22</title>
<polygon fill="white" stroke="#bfbfbf" points="1131.5,-174.5 1131.5,-195.5 1186.5,-195.5 1186.5,-174.5 1131.5,-174.5"/>
<text text-anchor="middle" x="1159" y="-182.5" font-family="DejaVuSans" font-size="10.00">QObject</text>
</g>
<!-- Node8&#45;&gt;Node22 -->
<g id="edge90" class="edge"><title>Node8&#45;&gt;Node22</title>
<path fill="none" stroke="midnightblue" d="M795.558,-290.398C871.417,-268.399 1045.22,-217.996 1121.71,-195.814"/>
<polygon fill="midnightblue" stroke="midnightblue" points="1122.78,-199.149 1131.4,-193.003 1120.83,-192.426 1122.78,-199.149"/>
</g>
<!-- Node9&#45;&gt;Node5 -->
<g id="edge18" class="edge"><title>Node9&#45;&gt;Node5</title>
<path fill="none" stroke="midnightblue" d="M782.475,-116.38C766.646,-102.099 736.953,-76.3766 709,-58 690.731,-45.9897 669.038,-34.5846 651.528,-26.0176"/>
<polygon fill="midnightblue" stroke="midnightblue" points="652.807,-22.7489 642.278,-21.5643 649.77,-29.0559 652.807,-22.7489"/>
</g>
<!-- Node10 -->
<g id="node20" class="node"><title>Node10</title>
<polygon fill="white" stroke="#bfbfbf" points="1020.5,-0.5 1020.5,-21.5 1073.5,-21.5 1073.5,-0.5 1020.5,-0.5"/>
<text text-anchor="middle" x="1047" y="-8.5" font-family="DejaVuSans" font-size="10.00">QString</text>
</g>
<!-- Node9&#45;&gt;Node10 -->
<g id="edge20" class="edge"><title>Node9&#45;&gt;Node10</title>
<path fill="none" stroke="midnightblue" d="M804.84,-116.324C820.711,-101.256 851.787,-73.8274 883,-58 924.176,-37.1203 976.011,-24.2424 1010.26,-17.363"/>
<polygon fill="midnightblue" stroke="midnightblue" points="1011.14,-20.7573 1020.29,-15.4183 1009.81,-13.8852 1011.14,-20.7573"/>
</g>
<!-- Node11 -->
<g id="node22" class="node"><title>Node11</title>
<a xlink:href="cv___name_8h.html" target="_top" xlink:title="cv_Name.h">
<polygon fill="white" stroke="black" points="760.5,-58.5 760.5,-79.5 831.5,-79.5 831.5,-58.5 760.5,-58.5"/>
<text text-anchor="middle" x="796" y="-66.5" font-family="DejaVuSans" font-size="10.00">cv_Name.h</text>
</a>
</g>
<!-- Node9&#45;&gt;Node11 -->
<g id="edge22" class="edge"><title>Node9&#45;&gt;Node11</title>
<path fill="none" stroke="midnightblue" d="M794.367,-116.362C794.623,-108.922 794.974,-98.7427 795.285,-89.7276"/>
<polygon fill="midnightblue" stroke="midnightblue" points="798.789,-89.6854 795.635,-79.5707 791.793,-89.4441 798.789,-89.6854"/>
</g>
<!-- Node11&#45;&gt;Node5 -->
<g id="edge24" class="edge"><title>Node11&#45;&gt;Node5</title>
<path fill="none" stroke="midnightblue" d="M763.947,-58.4966C735.091,-49.0411 692.494,-35.0829 660.939,-24.7428"/>
<polygon fill="midnightblue" stroke="midnightblue" points="661.706,-21.3111 651.113,-21.5231 659.526,-27.963 661.706,-21.3111"/>
</g>
<!-- Node11&#45;&gt;Node10 -->
<g id="edge26" class="edge"><title>Node11&#45;&gt;Node10</title>
<path fill="none" stroke="midnightblue" d="M831.696,-60.7516C879.107,-49.7961 962.425,-30.5431 1010.32,-19.4747"/>
<polygon fill="midnightblue" stroke="midnightblue" points="1011.31,-22.8386 1020.27,-17.177 1009.74,-16.0183 1011.31,-22.8386"/>
</g>
<!-- Node12&#45;&gt;Node9 -->
<g id="edge32" class="edge"><title>Node12&#45;&gt;Node9</title>
<path fill="none" stroke="midnightblue" d="M793.183,-174.362C793.312,-166.922 793.487,-156.743 793.643,-147.728"/>
<polygon fill="midnightblue" stroke="midnightblue" points="797.145,-147.63 793.818,-137.571 790.146,-147.509 797.145,-147.63"/>
</g>
<!-- Node12&#45;&gt;Node10 -->
<g id="edge30" class="edge"><title>Node12&#45;&gt;Node10</title>
<path fill="none" stroke="midnightblue" d="M811.548,-174.406C827.521,-165.145 851.079,-151.157 871,-138 927.859,-100.448 992.212,-52.5755 1025.1,-27.7025"/>
<polygon fill="midnightblue" stroke="midnightblue" points="1027.28,-30.4406 1033.13,-21.6092 1023.05,-24.863 1027.28,-30.4406"/>
</g>
<!-- Node13 -->
<g id="node30" class="node"><title>Node13</title>
<polygon fill="white" stroke="#bfbfbf" points="495.5,-58.5 495.5,-79.5 536.5,-79.5 536.5,-58.5 495.5,-58.5"/>
<text text-anchor="middle" x="516" y="-66.5" font-family="DejaVuSans" font-size="10.00">QList</text>
</g>
<!-- Node12&#45;&gt;Node13 -->
<g id="edge34" class="edge"><title>Node12&#45;&gt;Node13</title>
<path fill="none" stroke="midnightblue" d="M715.383,-174.572C646.031,-164.612 553.342,-149.465 540,-138 526.067,-126.027 520.217,-105.514 517.764,-89.9576"/>
<polygon fill="midnightblue" stroke="midnightblue" points="521.198,-89.201 516.512,-79.6991 514.25,-90.0497 521.198,-89.201"/>
</g>
<!-- Node14&#45;&gt;Node5 -->
<g id="edge44" class="edge"><title>Node14&#45;&gt;Node5</title>
<path fill="none" stroke="midnightblue" d="M887.93,-174.9C824.169,-163.996 731.436,-146.985 717,-138 674.276,-111.408 643.04,-59.0828 628.36,-30.5997"/>
<polygon fill="midnightblue" stroke="midnightblue" points="631.465,-28.9835 623.866,-21.6005 625.203,-32.1107 631.465,-28.9835"/>
</g>
<!-- Node14&#45;&gt;Node10 -->
<g id="edge40" class="edge"><title>Node14&#45;&gt;Node10</title>
<path fill="none" stroke="midnightblue" d="M954.983,-174.377C971.005,-145.93 1015.07,-67.6838 1035.87,-30.7689"/>
<polygon fill="midnightblue" stroke="midnightblue" points="1038.99,-32.3584 1040.85,-21.9277 1032.89,-28.9232 1038.99,-32.3584"/>
</g>
<!-- Node14&#45;&gt;Node13 -->
<g id="edge42" class="edge"><title>Node14&#45;&gt;Node13</title>
<path fill="none" stroke="midnightblue" d="M887.937,-175.262C884.917,-174.825 881.925,-174.402 879,-174 743.336,-155.368 693.258,-203.499 573,-138 552.24,-126.693 536.023,-104.455 526.282,-88.2726"/>
<polygon fill="midnightblue" stroke="midnightblue" points="529.311,-86.5177 521.31,-79.5726 523.233,-89.9913 529.311,-86.5177"/>
</g>
<!-- Node15 -->
<g id="node34" class="node"><title>Node15</title>
<polygon fill="white" stroke="#bfbfbf" points="917.5,-116.5 917.5,-137.5 966.5,-137.5 966.5,-116.5 917.5,-116.5"/>
<text text-anchor="middle" x="942" y="-124.5" font-family="DejaVuSans" font-size="10.00">QFlags</text>
</g>
<!-- Node14&#45;&gt;Node15 -->
<g id="edge38" class="edge"><title>Node14&#45;&gt;Node15</title>
<path fill="none" stroke="midnightblue" d="M947.716,-174.362C946.818,-166.922 945.59,-156.743 944.502,-147.728"/>
<polygon fill="midnightblue" stroke="midnightblue" points="947.949,-147.079 943.276,-137.571 940.999,-147.918 947.949,-147.079"/>
</g>
<!-- Node16 -->
<g id="node39" class="node"><title>Node16</title>
<a xlink:href="cv___species_8h.html" target="_top" xlink:title="cv_Species.h">
<polygon fill="white" stroke="black" points="1060.5,-58.5 1060.5,-79.5 1139.5,-79.5 1139.5,-58.5 1060.5,-58.5"/>
<text text-anchor="middle" x="1100" y="-66.5" font-family="DejaVuSans" font-size="10.00">cv_Species.h</text>
</a>
</g>
<!-- Node14&#45;&gt;Node16 -->
<g id="edge46" class="edge"><title>Node14&#45;&gt;Node16</title>
<path fill="none" stroke="midnightblue" d="M962.935,-174.295C989.229,-154.096 1046.35,-110.216 1077.92,-85.9632"/>
<polygon fill="midnightblue" stroke="midnightblue" points="1080.3,-88.5468 1086.1,-79.6792 1076.04,-82.9957 1080.3,-88.5468"/>
</g>
<!-- Node14&#45;&gt;Node17 -->
<g id="edge50" class="edge"><title>Node14&#45;&gt;Node17</title>
<path fill="none" stroke="midnightblue" d="M888.445,-174.471C834.709,-165.078 754.085,-150.861 684,-138 682.916,-137.801 681.821,-137.6 680.718,-137.396"/>
<polygon fill="midnightblue" stroke="midnightblue" points="681.11,-133.909 670.638,-135.521 679.83,-140.791 681.11,-133.909"/>
</g>
<!-- Node18 -->
<g id="node48" class="node"><title>Node18</title>
<a xlink:href="cv___abstract_trait_8h.html" target="_top" xlink:title="cv_AbstractTrait.h">
<polygon fill="white" stroke="black" points="1273.5,-116.5 1273.5,-137.5 1374.5,-137.5 1374.5,-116.5 1273.5,-116.5"/>
<text text-anchor="middle" x="1324" y="-124.5" font-family="DejaVuSans" font-size="10.00">cv_AbstractTrait.h</text>
</a>
</g>
<!-- Node14&#45;&gt;Node18 -->
<g id="edge60" class="edge"><title>Node14&#45;&gt;Node18</title>
<path fill="none" stroke="midnightblue" d="M1010.08,-175.391C1013.1,-174.92 1016.08,-174.454 1019,-174 1103.75,-160.811 1201.78,-145.738 1263.33,-136.295"/>
<polygon fill="midnightblue" stroke="midnightblue" points="1263.91,-139.747 1273.26,-134.771 1262.85,-132.828 1263.91,-139.747"/>
</g>
<!-- Node16&#45;&gt;Node10 -->
<g id="edge48" class="edge"><title>Node16&#45;&gt;Node10</title>
<path fill="none" stroke="midnightblue" d="M1090.28,-58.3619C1082.81,-50.1861 1072.31,-38.7025 1063.53,-29.0907"/>
<polygon fill="midnightblue" stroke="midnightblue" points="1065.99,-26.5918 1056.66,-21.5707 1060.82,-31.3138 1065.99,-26.5918"/>
</g>
<!-- Node17&#45;&gt;Node5 -->
<g id="edge56" class="edge"><title>Node17&#45;&gt;Node5</title>
<path fill="none" stroke="midnightblue" d="M625.354,-116.295C624.198,-97.1314 621.755,-56.654 620.258,-31.8434"/>
<polygon fill="midnightblue" stroke="midnightblue" points="623.741,-31.4502 619.644,-21.6792 616.753,-31.8719 623.741,-31.4502"/>
</g>
<!-- Node17&#45;&gt;Node10 -->
<g id="edge52" class="edge"><title>Node17&#45;&gt;Node10</title>
<path fill="none" stroke="midnightblue" d="M641.109,-116.464C663.986,-101.051 709.287,-72.6067 752,-58 841.434,-27.4161 953.046,-16.5577 1009.93,-12.8397"/>
<polygon fill="midnightblue" stroke="midnightblue" points="1010.46,-16.3139 1020.22,-12.2065 1010.03,-9.32711 1010.46,-16.3139"/>
</g>
<!-- Node17&#45;&gt;Node13 -->
<g id="edge54" class="edge"><title>Node17&#45;&gt;Node13</title>
<path fill="none" stroke="midnightblue" d="M606.08,-116.497C589.054,-107.519 564.331,-94.4835 545.091,-84.3387"/>
<polygon fill="midnightblue" stroke="midnightblue" points="546.622,-81.1894 536.144,-79.6212 543.357,-87.3814 546.622,-81.1894"/>
</g>
<!-- Node17&#45;&gt;Node16 -->
<g id="edge58" class="edge"><title>Node17&#45;&gt;Node16</title>
<path fill="none" stroke="midnightblue" d="M670.593,-121.544C759.335,-110.685 957.478,-86.4394 1050.27,-75.085"/>
<polygon fill="midnightblue" stroke="midnightblue" points="1050.75,-78.5526 1060.25,-73.8638 1049.9,-71.6044 1050.75,-78.5526"/>
</g>
<!-- Node18&#45;&gt;Node10 -->
<g id="edge62" class="edge"><title>Node18&#45;&gt;Node10</title>
<path fill="none" stroke="midnightblue" d="M1298.44,-116.295C1248.53,-95.3952 1138.09,-49.1446 1081.66,-25.5132"/>
<polygon fill="midnightblue" stroke="midnightblue" points="1082.68,-22.1461 1072.1,-21.5117 1079.97,-28.6028 1082.68,-22.1461"/>
</g>
<!-- Node18&#45;&gt;Node16 -->
<g id="edge64" class="edge"><title>Node18&#45;&gt;Node16</title>
<path fill="none" stroke="midnightblue" d="M1283.44,-116.497C1245.78,-106.746 1189.63,-92.2077 1149.38,-81.786"/>
<polygon fill="midnightblue" stroke="midnightblue" points="1150.07,-78.349 1139.51,-79.2305 1148.31,-85.1255 1150.07,-78.349"/>
</g>
<!-- Node19&#45;&gt;Node10 -->
<g id="edge68" class="edge"><title>Node19&#45;&gt;Node10</title>
<path fill="none" stroke="midnightblue" d="M1346.58,-174.267C1368.37,-160.914 1398.6,-137.275 1383,-116 1346.94,-66.8283 1162.96,-30.518 1083.56,-16.8937"/>
<polygon fill="midnightblue" stroke="midnightblue" points="1083.96,-13.4124 1073.52,-15.1966 1082.8,-20.3145 1083.96,-13.4124"/>
</g>
<!-- Node19&#45;&gt;Node16 -->
<g id="edge70" class="edge"><title>Node19&#45;&gt;Node16</title>
<path fill="none" stroke="midnightblue" d="M1313.77,-174.261C1295.25,-159.609 1260.13,-133.214 1227,-116 1200.85,-102.411 1169.85,-90.8604 1145.03,-82.6104"/>
<polygon fill="midnightblue" stroke="midnightblue" points="1146.09,-79.2746 1135.5,-79.5025 1143.92,-85.9299 1146.09,-79.2746"/>
</g>
<!-- Node19&#45;&gt;Node18 -->
<g id="edge72" class="edge"><title>Node19&#45;&gt;Node18</title>
<path fill="none" stroke="midnightblue" d="M1326.45,-174.362C1326.06,-166.922 1325.54,-156.743 1325.07,-147.728"/>
<polygon fill="midnightblue" stroke="midnightblue" points="1328.56,-147.376 1324.55,-137.571 1321.57,-147.738 1328.56,-147.376"/>
</g>
<!-- Node20&#45;&gt;Node5 -->
<g id="edge78" class="edge"><title>Node20&#45;&gt;Node5</title>
<path fill="none" stroke="midnightblue" d="M732.273,-240.527C613.576,-233.768 335.35,-210.371 283,-138 272.628,-123.661 268.061,-79.0681 288,-58 307.409,-37.4923 488.556,-21.0055 574.347,-14.2759"/>
<polygon fill="midnightblue" stroke="midnightblue" points="574.62,-17.7653 584.32,-13.5039 574.08,-10.7862 574.62,-17.7653"/>
</g>
<!-- Node20&#45;&gt;Node12 -->
<g id="edge82" class="edge"><title>Node20&#45;&gt;Node12</title>
<path fill="none" stroke="midnightblue" d="M787.284,-232.362C788.182,-224.922 789.41,-214.743 790.498,-205.728"/>
<polygon fill="midnightblue" stroke="midnightblue" points="794.001,-205.918 791.724,-195.571 787.051,-205.079 794.001,-205.918"/>
</g>
<!-- Node20&#45;&gt;Node13 -->
<g id="edge76" class="edge"><title>Node20&#45;&gt;Node13</title>
<path fill="none" stroke="midnightblue" d="M745.338,-232.44C678.389,-214.183 549.597,-175.105 522,-138 511.821,-124.314 511.08,-104.612 512.443,-89.7608"/>
<polygon fill="midnightblue" stroke="midnightblue" points="515.955,-89.8983 513.774,-79.5303 509.013,-88.9952 515.955,-89.8983"/>
</g>
<!-- Node20&#45;&gt;Node14 -->
<g id="edge80" class="edge"><title>Node20&#45;&gt;Node14</title>
<path fill="none" stroke="midnightblue" d="M815.518,-232.497C841.976,-223.082 880.979,-209.204 910,-198.877"/>
<polygon fill="midnightblue" stroke="midnightblue" points="911.179,-202.173 919.427,-195.523 908.832,-195.578 911.179,-202.173"/>
</g>
<!-- Node21 -->
<g id="node63" class="node"><title>Node21</title>
<a xlink:href="cv___super_effect_8h.html" target="_top" xlink:title="../Datatypes/cv_SuperEffect.h">
<polygon fill="white" stroke="black" points="1060,-116.5 1060,-137.5 1218,-137.5 1218,-116.5 1060,-116.5"/>
<text text-anchor="middle" x="1139" y="-124.5" font-family="DejaVuSans" font-size="10.00">../Datatypes/cv_SuperEffect.h</text>
</a>
</g>
<!-- Node20&#45;&gt;Node21 -->
<g id="edge84" class="edge"><title>Node20&#45;&gt;Node21</title>
<path fill="none" stroke="midnightblue" d="M839.562,-239.294C914.063,-233.351 1044.4,-219.862 1085,-196 1104.66,-184.447 1119.81,-162.768 1128.99,-146.782"/>
<polygon fill="midnightblue" stroke="midnightblue" points="1132.22,-148.162 1133.92,-137.705 1126.07,-144.82 1132.22,-148.162"/>
</g>
<!-- Node20&#45;&gt;Node22 -->
<g id="edge88" class="edge"><title>Node20&#45;&gt;Node22</title>
<path fill="none" stroke="midnightblue" d="M839.53,-237.449C905.436,-230.151 1020.61,-215.882 1118,-196 1119.08,-195.779 1120.18,-195.546 1121.29,-195.303"/>
<polygon fill="midnightblue" stroke="midnightblue" points="1122.4,-198.635 1131.32,-192.915 1120.78,-191.826 1122.4,-198.635"/>
</g>
<!-- Node21&#45;&gt;Node16 -->
<g id="edge86" class="edge"><title>Node21&#45;&gt;Node16</title>
<path fill="none" stroke="midnightblue" d="M1131.85,-116.362C1126.51,-108.431 1119.09,-97.3885 1112.75,-87.9606"/>
<polygon fill="midnightblue" stroke="midnightblue" points="1115.59,-85.9161 1107.11,-79.5707 1109.78,-89.8221 1115.59,-85.9161"/>
</g>
<!-- Node23&#45;&gt;Node2 -->
<g id="edge100" class="edge"><title>Node23&#45;&gt;Node2</title>
<path fill="none" stroke="midnightblue" d="M335.472,-293.772C290.925,-283.872 210.485,-265.997 157.916,-254.315"/>
<polygon fill="midnightblue" stroke="midnightblue" points="158.638,-250.89 148.117,-252.137 157.119,-257.723 158.638,-250.89"/>
</g>
<!-- Node23&#45;&gt;Node5 -->
<g id="edge98" class="edge"><title>Node23&#45;&gt;Node5</title>
<path fill="none" stroke="midnightblue" d="M335.402,-297.68C302.833,-292.886 252.864,-281.359 219,-254 189.082,-229.829 173.837,-210.488 186,-174 206.379,-112.863 217.434,-90.6429 273,-58 323.086,-28.5764 492.088,-16.8667 573.893,-12.8389"/>
<polygon fill="midnightblue" stroke="midnightblue" points="574.543,-16.3121 584.365,-12.3419 574.211,-9.31995 574.543,-16.3121"/>
</g>
<!-- Node24 -->
<g id="node75" class="node"><title>Node24</title>
<polygon fill="white" stroke="#bfbfbf" points="544,-232.5 544,-253.5 594,-253.5 594,-232.5 544,-232.5"/>
<text text-anchor="middle" x="569" y="-240.5" font-family="DejaVuSans" font-size="10.00">QLabel</text>
</g>
<!-- Node23&#45;&gt;Node24 -->
<g id="edge102" class="edge"><title>Node23&#45;&gt;Node24</title>
<path fill="none" stroke="midnightblue" d="M400.741,-291.552C437.347,-280.989 496.401,-263.949 533.928,-253.12"/>
<polygon fill="midnightblue" stroke="midnightblue" points="535.268,-256.377 543.905,-250.241 533.327,-249.651 535.268,-256.377"/>
</g>
<!-- Node25 -->
<g id="node77" class="node"><title>Node25</title>
<polygon fill="white" stroke="#bfbfbf" points="328,-232.5 328,-253.5 408,-253.5 408,-232.5 328,-232.5"/>
<text text-anchor="middle" x="368" y="-240.5" font-family="DejaVuSans" font-size="10.00">QPushButton</text>
</g>
<!-- Node23&#45;&gt;Node25 -->
<g id="edge104" class="edge"><title>Node23&#45;&gt;Node25</title>
<path fill="none" stroke="midnightblue" d="M368,-290.362C368,-282.922 368,-272.743 368,-263.728"/>
<polygon fill="midnightblue" stroke="midnightblue" points="371.5,-263.571 368,-253.571 364.5,-263.571 371.5,-263.571"/>
</g>
<!-- Node26 -->
<g id="node79" class="node"><title>Node26</title>
<polygon fill="white" stroke="#bfbfbf" points="426,-232.5 426,-253.5 488,-253.5 488,-232.5 426,-232.5"/>
<text text-anchor="middle" x="457" y="-240.5" font-family="DejaVuSans" font-size="10.00">QLineEdit</text>
</g>
<!-- Node23&#45;&gt;Node26 -->
<g id="edge106" class="edge"><title>Node23&#45;&gt;Node26</title>
<path fill="none" stroke="midnightblue" d="M384.324,-290.362C397.748,-281.614 416.983,-269.079 432.293,-259.101"/>
<polygon fill="midnightblue" stroke="midnightblue" points="434.312,-261.963 440.78,-253.571 430.491,-256.098 434.312,-261.963"/>
</g>
<!-- Node27 -->
<g id="node81" class="node"><title>Node27</title>
<a xlink:href="_trait_dots_8h.html" target="_top" xlink:title="TraitDots.h">
<polygon fill="white" stroke="black" points="242,-232.5 242,-253.5 310,-253.5 310,-232.5 242,-232.5"/>
<text text-anchor="middle" x="276" y="-240.5" font-family="DejaVuSans" font-size="10.00">TraitDots.h</text>
</a>
</g>
<!-- Node23&#45;&gt;Node27 -->
<g id="edge108" class="edge"><title>Node23&#45;&gt;Node27</title>
<path fill="none" stroke="midnightblue" d="M351.126,-290.362C337.249,-281.614 317.366,-269.079 301.54,-259.101"/>
<polygon fill="midnightblue" stroke="midnightblue" points="303.093,-255.943 292.767,-253.571 299.36,-261.864 303.093,-255.943"/>
</g>
<!-- Node30 -->
<g id="node88" class="node"><title>Node30</title>
<polygon fill="white" stroke="#bfbfbf" points="195,-174.5 195,-195.5 251,-195.5 251,-174.5 195,-174.5"/>
<text text-anchor="middle" x="223" y="-182.5" font-family="DejaVuSans" font-size="10.00">QWidget</text>
</g>
<!-- Node23&#45;&gt;Node30 -->
<g id="edge128" class="edge"><title>Node23&#45;&gt;Node30</title>
<path fill="none" stroke="midnightblue" d="M335.496,-293.781C299.94,-285.205 246.228,-270.032 233,-254 222.073,-240.757 220.185,-221.006 220.674,-206.025"/>
<polygon fill="midnightblue" stroke="midnightblue" points="224.191,-205.906 221.4,-195.685 217.208,-205.415 224.191,-205.906"/>
</g>
<!-- Node31 -->
<g id="node90" class="node"><title>Node31</title>
<a xlink:href="_trait_specialties_8h.html" target="_top" xlink:title="TraitSpecialties.h">
<polygon fill="white" stroke="black" points="467.5,-174.5 467.5,-195.5 564.5,-195.5 564.5,-174.5 467.5,-174.5"/>
<text text-anchor="middle" x="516" y="-182.5" font-family="DejaVuSans" font-size="10.00">TraitSpecialties.h</text>
</a>
</g>
<!-- Node23&#45;&gt;Node31 -->
<g id="edge118" class="edge"><title>Node23&#45;&gt;Node31</title>
<path fill="none" stroke="midnightblue" d="M400.697,-297.507C429.944,-292.658 471.95,-281.157 497,-254 508.949,-241.045 513.49,-221.263 515.163,-206.197"/>
<polygon fill="midnightblue" stroke="midnightblue" points="518.687,-206.024 515.96,-195.786 511.707,-205.49 518.687,-206.024"/>
</g>
<!-- Node27&#45;&gt;Node13 -->
<g id="edge112" class="edge"><title>Node27&#45;&gt;Node13</title>
<path fill="none" stroke="midnightblue" d="M290.652,-232.377C330.988,-203.134 443.907,-121.267 492.869,-85.77"/>
<polygon fill="midnightblue" stroke="midnightblue" points="495.193,-88.408 501.235,-79.7046 491.084,-82.7407 495.193,-88.408"/>
</g>
<!-- Node28 -->
<g id="node83" class="node"><title>Node28</title>
<polygon fill="white" stroke="#bfbfbf" points="1027.5,-174.5 1027.5,-195.5 1076.5,-195.5 1076.5,-174.5 1027.5,-174.5"/>
<text text-anchor="middle" x="1052" y="-182.5" font-family="DejaVuSans" font-size="10.00">QColor</text>
</g>
<!-- Node27&#45;&gt;Node28 -->
<g id="edge110" class="edge"><title>Node27&#45;&gt;Node28</title>
<path fill="none" stroke="midnightblue" d="M310.141,-233.613C313.122,-232.992 316.105,-232.44 319,-232 623.673,-185.669 711.012,-252.322 1017.27,-195.904"/>
<polygon fill="midnightblue" stroke="midnightblue" points="1018.14,-199.302 1027.32,-194.022 1016.85,-192.421 1018.14,-199.302"/>
</g>
<!-- Node29 -->
<g id="node86" class="node"><title>Node29</title>
<polygon fill="white" stroke="#bfbfbf" points="268.5,-174.5 268.5,-195.5 319.5,-195.5 319.5,-174.5 268.5,-174.5"/>
<text text-anchor="middle" x="294" y="-182.5" font-family="DejaVuSans" font-size="10.00">QEvent</text>
</g>
<!-- Node27&#45;&gt;Node29 -->
<g id="edge114" class="edge"><title>Node27&#45;&gt;Node29</title>
<path fill="none" stroke="midnightblue" d="M279.301,-232.362C281.661,-224.758 284.909,-214.294 287.751,-205.135"/>
<polygon fill="midnightblue" stroke="midnightblue" points="291.098,-206.159 290.719,-195.571 284.413,-204.084 291.098,-206.159"/>
</g>
<!-- Node27&#45;&gt;Node30 -->
<g id="edge116" class="edge"><title>Node27&#45;&gt;Node30</title>
<path fill="none" stroke="midnightblue" d="M266.279,-232.362C258.808,-224.186 248.314,-212.702 239.531,-203.091"/>
<polygon fill="midnightblue" stroke="midnightblue" points="241.989,-200.592 232.659,-195.571 236.821,-205.314 241.989,-200.592"/>
</g>
<!-- Node31&#45;&gt;Node10 -->
<g id="edge120" class="edge"><title>Node31&#45;&gt;Node10</title>
<path fill="none" stroke="midnightblue" d="M508.049,-174.207C491.305,-150.081 456.383,-91.2947 487,-58 522.378,-19.5281 890.888,-12.5314 1010.05,-11.2726"/>
<polygon fill="midnightblue" stroke="midnightblue" points="1010.18,-14.7716 1020.14,-11.1736 1010.11,-7.77198 1010.18,-14.7716"/>
</g>
<!-- Node31&#45;&gt;Node17 -->
<g id="edge122" class="edge"><title>Node31&#45;&gt;Node17</title>
<path fill="none" stroke="midnightblue" d="M535.92,-174.497C552.946,-165.519 577.669,-152.484 596.909,-142.339"/>
<polygon fill="midnightblue" stroke="midnightblue" points="598.643,-145.381 605.856,-137.621 595.378,-139.189 598.643,-145.381"/>
</g>
<!-- Node32 -->
<g id="node94" class="node"><title>Node32</title>
<a xlink:href="_checked_list_8h.html" target="_top" xlink:title="CheckedList.h">
<polygon fill="white" stroke="black" points="291.5,-116.5 291.5,-137.5 374.5,-137.5 374.5,-116.5 291.5,-116.5"/>
<text text-anchor="middle" x="333" y="-124.5" font-family="DejaVuSans" font-size="10.00">CheckedList.h</text>
</a>
</g>
<!-- Node31&#45;&gt;Node32 -->
<g id="edge124" class="edge"><title>Node31&#45;&gt;Node32</title>
<path fill="none" stroke="midnightblue" d="M482.86,-174.497C452.897,-165 408.604,-150.962 375.938,-140.609"/>
<polygon fill="midnightblue" stroke="midnightblue" points="376.792,-137.208 366.202,-137.523 374.677,-143.881 376.792,-137.208"/>
</g>
<!-- Node33 -->
<g id="node96" class="node"><title>Node33</title>
<polygon fill="white" stroke="#bfbfbf" points="296.5,-58.5 296.5,-79.5 369.5,-79.5 369.5,-58.5 296.5,-58.5"/>
<text text-anchor="middle" x="333" y="-66.5" font-family="DejaVuSans" font-size="10.00">QListWidget</text>
</g>
<!-- Node32&#45;&gt;Node33 -->
<g id="edge126" class="edge"><title>Node32&#45;&gt;Node33</title>
<path fill="none" stroke="midnightblue" d="M333,-116.362C333,-108.922 333,-98.7427 333,-89.7276"/>
<polygon fill="midnightblue" stroke="midnightblue" points="336.5,-89.5706 333,-79.5707 329.5,-89.5707 336.5,-89.5706"/>
</g>
<!-- Node34&#45;&gt;Node8 -->
<g id="edge132" class="edge"><title>Node34&#45;&gt;Node8</title>
<path fill="none" stroke="midnightblue" d="M1012.04,-348.497C959.486,-338.632 880.82,-323.866 825.174,-313.421"/>
<polygon fill="midnightblue" stroke="midnightblue" points="825.537,-309.928 815.063,-311.523 824.245,-316.808 825.537,-309.928"/>
</g>
<!-- Node34&#45;&gt;Node22 -->
<g id="edge146" class="edge"><title>Node34&#45;&gt;Node22</title>
<path fill="none" stroke="midnightblue" d="M1065.54,-348.458C1060.78,-325.337 1052.68,-269.266 1076,-232 1086.36,-215.455 1104.77,-204.182 1121.63,-196.834"/>
<polygon fill="midnightblue" stroke="midnightblue" points="1123.32,-199.924 1131.3,-192.95 1120.72,-193.428 1123.32,-199.924"/>
</g>
<!-- Node34&#45;&gt;Node35 -->
<g id="edge134" class="edge"><title>Node34&#45;&gt;Node35</title>
<path fill="none" stroke="midnightblue" d="M1135.63,-352.233C1188.7,-345.619 1263.91,-333.345 1327,-312 1347.34,-305.121 1350.07,-297.983 1370,-290 1404.16,-276.316 1443.87,-264.521 1474.93,-256.169"/>
<polygon fill="midnightblue" stroke="midnightblue" points="1475.92,-259.527 1484.69,-253.581 1474.13,-252.761 1475.92,-259.527"/>
</g>
<!-- Node34&#45;&gt;Node37 -->
<g id="edge142" class="edge"><title>Node34&#45;&gt;Node37</title>
<path fill="none" stroke="midnightblue" d="M1075.75,-348.295C1090,-328.613 1120.54,-286.45 1138.34,-261.867"/>
<polygon fill="midnightblue" stroke="midnightblue" points="1141.24,-263.831 1144.27,-253.679 1135.57,-259.726 1141.24,-263.831"/>
</g>
<!-- Node35&#45;&gt;Node10 -->
<g id="edge136" class="edge"><title>Node35&#45;&gt;Node10</title>
<path fill="none" stroke="midnightblue" d="M1537.68,-232.361C1545.13,-223.4 1554.84,-209.856 1559,-196 1561.81,-186.635 1561.53,-183.444 1559,-174 1543.59,-116.493 1541.93,-90.4346 1492,-58 1458.06,-35.9496 1184.46,-18.6524 1083.9,-12.983"/>
<polygon fill="midnightblue" stroke="midnightblue" points="1083.8,-9.4719 1073.62,-12.4099 1083.41,-16.4611 1083.8,-9.4719"/>
</g>
<!-- Node35&#45;&gt;Node28 -->
<g id="edge138" class="edge"><title>Node35&#45;&gt;Node28</title>
<path fill="none" stroke="midnightblue" d="M1478.99,-237.922C1402.75,-229.887 1251.19,-213.362 1123,-196 1111.17,-194.398 1098.26,-192.456 1086.74,-190.653"/>
<polygon fill="midnightblue" stroke="midnightblue" points="1087.03,-187.157 1076.61,-189.049 1085.94,-194.07 1087.03,-187.157"/>
</g>
<!-- Node36 -->
<g id="node106" class="node"><title>Node36</title>
<polygon fill="white" stroke="#bfbfbf" points="1505.5,-174.5 1505.5,-195.5 1550.5,-195.5 1550.5,-174.5 1505.5,-174.5"/>
<text text-anchor="middle" x="1528" y="-182.5" font-family="DejaVuSans" font-size="10.00">QFont</text>
</g>
<!-- Node35&#45;&gt;Node36 -->
<g id="edge140" class="edge"><title>Node35&#45;&gt;Node36</title>
<path fill="none" stroke="midnightblue" d="M1528,-232.362C1528,-224.922 1528,-214.743 1528,-205.728"/>
<polygon fill="midnightblue" stroke="midnightblue" points="1531.5,-205.571 1528,-195.571 1524.5,-205.571 1531.5,-205.571"/>
</g>
<!-- Node37&#45;&gt;Node10 -->
<g id="edge144" class="edge"><title>Node37&#45;&gt;Node10</title>
<path fill="none" stroke="midnightblue" d="M1219.3,-240.809C1290.41,-236.91 1395.72,-226.078 1421,-196 1427.29,-188.515 1422.76,-183.618 1421,-174 1408.25,-104.414 1377.65,-84.3568 1312,-58 1234.52,-26.8939 1136.09,-16.3133 1083.71,-12.7596"/>
<polygon fill="midnightblue" stroke="midnightblue" points="1083.76,-9.25603 1073.56,-12.1208 1083.32,-16.2422 1083.76,-9.25603"/>
</g>
<!-- Node38&#45;&gt;Node9 -->
<g id="edge160" class="edge"><title>Node38&#45;&gt;Node9</title>
<path fill="none" stroke="midnightblue" d="M1252.15,-290.251C1254.44,-276.268 1256.77,-251.343 1249,-232 1235.87,-199.319 1226.42,-189.916 1195,-174 1180.81,-166.813 985.131,-146.187 872.472,-134.795"/>
<polygon fill="midnightblue" stroke="midnightblue" points="872.806,-131.311 862.505,-133.789 872.103,-138.275 872.806,-131.311"/>
</g>
<!-- Node38&#45;&gt;Node10 -->
<g id="edge154" class="edge"><title>Node38&#45;&gt;Node10</title>
<path fill="none" stroke="midnightblue" d="M1292.92,-290.413C1337.63,-276.84 1405.34,-248.519 1436,-196 1447.97,-175.499 1426.47,-127.345 1419,-116 1396.79,-82.2487 1385.84,-74.5911 1349,-58 1302.18,-36.912 1153.51,-20.8437 1083.77,-14.2603"/>
<polygon fill="midnightblue" stroke="midnightblue" points="1083.96,-10.763 1073.68,-13.322 1083.32,-17.7329 1083.96,-10.763"/>
</g>
<!-- Node38&#45;&gt;Node14 -->
<g id="edge156" class="edge"><title>Node38&#45;&gt;Node14</title>
<path fill="none" stroke="midnightblue" d="M1249.85,-290.288C1249.03,-274.918 1245.1,-246.83 1228,-232 1226.02,-230.279 1102.03,-209.86 1020.03,-196.508"/>
<polygon fill="midnightblue" stroke="midnightblue" points="1020.43,-193.028 1010,-194.876 1019.31,-199.937 1020.43,-193.028"/>
</g>
<!-- Node38&#45;&gt;Node35 -->
<g id="edge162" class="edge"><title>Node38&#45;&gt;Node35</title>
<path fill="none" stroke="midnightblue" d="M1300.34,-290.497C1347.77,-280.602 1418.84,-265.775 1468.92,-255.325"/>
<polygon fill="midnightblue" stroke="midnightblue" points="1469.89,-258.699 1478.96,-253.231 1468.46,-251.847 1469.89,-258.699"/>
</g>
<!-- Node38&#45;&gt;Node37 -->
<g id="edge158" class="edge"><title>Node38&#45;&gt;Node37</title>
<path fill="none" stroke="midnightblue" d="M1232.03,-290.362C1217.11,-281.532 1195.67,-268.844 1178.73,-258.822"/>
<polygon fill="midnightblue" stroke="midnightblue" points="1180.25,-255.652 1169.86,-253.571 1176.68,-261.676 1180.25,-255.652"/>
</g>
<!-- Node39&#45;&gt;Node8 -->
<g id="edge174" class="edge"><title>Node39&#45;&gt;Node8</title>
<path fill="none" stroke="midnightblue" d="M592.762,-348.497C626.286,-338.918 675.982,-324.72 712.304,-314.342"/>
<polygon fill="midnightblue" stroke="midnightblue" points="713.516,-317.636 722.169,-311.523 711.592,-310.905 713.516,-317.636"/>
</g>
<!-- Node39&#45;&gt;Node24 -->
<g id="edge172" class="edge"><title>Node39&#45;&gt;Node24</title>
<path fill="none" stroke="midnightblue" d="M539.999,-348.371C522.478,-335.312 498.213,-312.153 509,-290 515.278,-277.107 526.994,-266.707 538.418,-259"/>
<polygon fill="midnightblue" stroke="midnightblue" points="540.377,-261.903 547.002,-253.635 536.667,-255.967 540.377,-261.903"/>
</g>
<!-- Node39&#45;&gt;Node30 -->
<g id="edge176" class="edge"><title>Node39&#45;&gt;Node30</title>
<path fill="none" stroke="midnightblue" d="M505.832,-356.211C390.706,-348.654 113.126,-323.463 57,-254 20.4549,-208.771 125.03,-192.829 184.671,-187.501"/>
<polygon fill="midnightblue" stroke="midnightblue" points="185.212,-190.968 194.888,-186.652 184.632,-183.992 185.212,-190.968"/>
</g>
<!-- Node40 -->
<g id="node125" class="node"><title>Node40</title>
<polygon fill="white" stroke="#bfbfbf" points="518,-290.5 518,-311.5 594,-311.5 594,-290.5 518,-290.5"/>
<text text-anchor="middle" x="556" y="-298.5" font-family="DejaVuSans" font-size="10.00">QGridLayout</text>
</g>
<!-- Node39&#45;&gt;Node40 -->
<g id="edge170" class="edge"><title>Node39&#45;&gt;Node40</title>
<path fill="none" stroke="midnightblue" d="M556,-348.362C556,-340.922 556,-330.743 556,-321.728"/>
<polygon fill="midnightblue" stroke="midnightblue" points="559.5,-321.571 556,-311.571 552.5,-321.571 559.5,-321.571"/>
</g>
</g>
</svg>
