<?xml version="1.0" encoding="UTF-8" standalone="no"?>
<!DOCTYPE svg PUBLIC "-//W3C//DTD SVG 1.1//EN"
 "http://www.w3.org/Graphics/SVG/1.1/DTD/svg11.dtd">
<!-- Generated by graphviz version 2.26.3 (20100126.1600)
 -->
<!-- Title: G Pages: 1 -->
<svg width="490pt" height="88pt"
 viewBox="0.00 0.00 490.00 88.00" xmlns="http://www.w3.org/2000/svg" xmlns:xlink="http://www.w3.org/1999/xlink">
<g id="graph1" class="graph" transform="scale(1 1) rotate(0) translate(4 84)">
<title>G</title>
<polygon fill="white" stroke="white" points="-4,5 -4,-84 487,-84 487,5 -4,5"/>
<!-- Node1 -->
<g id="node1" class="node"><title>Node1</title>
<polygon fill="#bfbfbf" stroke="black" points="224.5,-58.5 224.5,-79.5 367.5,-79.5 367.5,-58.5 224.5,-58.5"/>
<text text-anchor="middle" x="296" y="-66.5" font-family="DejaVuSans" font-size="10.00">src/Calc/CalcAdvantages.h</text>
</g>
<!-- Node2 -->
<g id="node3" class="node"><title>Node2</title>
<polygon fill="white" stroke="#bfbfbf" points="0,-0.5 0,-21.5 152,-21.5 152,-0.5 0,-0.5"/>
<text text-anchor="middle" x="76" y="-8.5" font-family="DejaVuSans" font-size="10.00">Storage/StorageCharacter.h</text>
</g>
<!-- Node1&#45;&gt;Node2 -->
<g id="edge2" class="edge"><title>Node1&#45;&gt;Node2</title>
<path fill="none" stroke="midnightblue" d="M256.16,-58.4966C219.517,-48.8364 165.049,-34.4765 125.601,-24.0765"/>
<polygon fill="midnightblue" stroke="midnightblue" points="126.477,-20.688 115.915,-21.5231 124.692,-27.4568 126.477,-20.688"/>
</g>
<!-- Node3 -->
<g id="node5" class="node"><title>Node3</title>
<polygon fill="white" stroke="#bfbfbf" points="169.5,-0.5 169.5,-21.5 294.5,-21.5 294.5,-0.5 169.5,-0.5"/>
<text text-anchor="middle" x="232" y="-8.5" font-family="DejaVuSans" font-size="10.00">Datatypes/cv_Shape.h</text>
</g>
<!-- Node1&#45;&gt;Node3 -->
<g id="edge4" class="edge"><title>Node1&#45;&gt;Node3</title>
<path fill="none" stroke="midnightblue" d="M284.261,-58.3619C275.059,-50.0226 262.06,-38.2418 251.328,-28.5162"/>
<polygon fill="midnightblue" stroke="midnightblue" points="253.424,-25.6924 243.664,-21.5707 248.724,-30.8793 253.424,-25.6924"/>
</g>
<!-- Node4 -->
<g id="node7" class="node"><title>Node4</title>
<polygon fill="white" stroke="#bfbfbf" points="312,-0.5 312,-21.5 410,-21.5 410,-0.5 312,-0.5"/>
<text text-anchor="middle" x="361" y="-8.5" font-family="DejaVuSans" font-size="10.00">Datatypes/Trait.h</text>
</g>
<!-- Node1&#45;&gt;Node4 -->
<g id="edge6" class="edge"><title>Node1&#45;&gt;Node4</title>
<path fill="none" stroke="midnightblue" d="M307.922,-58.3619C317.359,-49.9408 330.73,-38.0105 341.69,-28.2308"/>
<polygon fill="midnightblue" stroke="midnightblue" points="344.022,-30.8401 349.154,-21.5707 339.362,-25.6171 344.022,-30.8401"/>
</g>
<!-- Node5 -->
<g id="node9" class="node"><title>Node5</title>
<polygon fill="white" stroke="#bfbfbf" points="427.5,-0.5 427.5,-21.5 482.5,-21.5 482.5,-0.5 427.5,-0.5"/>
<text text-anchor="middle" x="455" y="-8.5" font-family="DejaVuSans" font-size="10.00">QObject</text>
</g>
<!-- Node1&#45;&gt;Node5 -->
<g id="edge8" class="edge"><title>Node1&#45;&gt;Node5</title>
<path fill="none" stroke="midnightblue" d="M324.794,-58.4966C350.891,-48.9769 389.499,-34.8933 417.901,-24.5329"/>
<polygon fill="midnightblue" stroke="midnightblue" points="419.289,-27.7522 427.484,-21.0371 416.89,-21.176 419.289,-27.7522"/>
</g>
</g>
</svg>
