<?xml version="1.0" encoding="UTF-8" standalone="no"?>
<!DOCTYPE svg PUBLIC "-//W3C//DTD SVG 1.1//EN"
 "http://www.w3.org/Graphics/SVG/1.1/DTD/svg11.dtd">
<!-- Generated by graphviz version 2.26.3 (20100126.1600)
 -->
<!-- Title: G Pages: 1 -->
<svg width="480pt" height="146pt"
 viewBox="0.00 0.00 480.00 146.00" xmlns="http://www.w3.org/2000/svg" xmlns:xlink="http://www.w3.org/1999/xlink">
<g id="graph1" class="graph" transform="scale(1 1) rotate(0) translate(4 142)">
<title>G</title>
<polygon fill="white" stroke="white" points="-4,5 -4,-142 477,-142 477,5 -4,5"/>
<!-- Node1 -->
<g id="node1" class="node"><title>Node1</title>
<polygon fill="#bfbfbf" stroke="black" points="66.5,-116.5 66.5,-137.5 221.5,-137.5 221.5,-116.5 66.5,-116.5"/>
<text text-anchor="middle" x="144" y="-124.5" font-family="DejaVuSans" font-size="10.00">src/Calc/CalcAdvantages.cpp</text>
</g>
<!-- Node2 -->
<g id="node3" class="node"><title>Node2</title>
<polygon fill="white" stroke="#bfbfbf" points="7,-58.5 7,-79.5 63,-79.5 63,-58.5 7,-58.5"/>
<text text-anchor="middle" x="35" y="-66.5" font-family="DejaVuSans" font-size="10.00">QDebug</text>
</g>
<!-- Node1&#45;&gt;Node2 -->
<g id="edge2" class="edge"><title>Node1&#45;&gt;Node2</title>
<path fill="none" stroke="midnightblue" d="M124.261,-116.497C107.39,-107.519 82.8915,-94.4835 63.8262,-84.3387"/>
<polygon fill="midnightblue" stroke="midnightblue" points="65.4327,-81.2289 54.9606,-79.6212 62.1445,-87.4086 65.4327,-81.2289"/>
</g>
<!-- Node3 -->
<g id="node5" class="node"><title>Node3</title>
<polygon fill="white" stroke="#bfbfbf" points="80.5,-58.5 80.5,-79.5 207.5,-79.5 207.5,-58.5 80.5,-58.5"/>
<text text-anchor="middle" x="144" y="-66.5" font-family="DejaVuSans" font-size="10.00">Exceptions/Exception.h</text>
</g>
<!-- Node1&#45;&gt;Node3 -->
<g id="edge4" class="edge"><title>Node1&#45;&gt;Node3</title>
<path fill="none" stroke="midnightblue" d="M144,-116.362C144,-108.922 144,-98.7427 144,-89.7276"/>
<polygon fill="midnightblue" stroke="midnightblue" points="147.5,-89.5706 144,-79.5707 140.5,-89.5707 147.5,-89.5706"/>
</g>
<!-- Node4 -->
<g id="node7" class="node"><title>Node4</title>
<a xlink:href="_calc_advantages_8h.html" target="_top" xlink:title="CalcAdvantages.h">
<polygon fill="white" stroke="black" points="224.5,-58.5 224.5,-79.5 327.5,-79.5 327.5,-58.5 224.5,-58.5"/>
<text text-anchor="middle" x="276" y="-66.5" font-family="DejaVuSans" font-size="10.00">CalcAdvantages.h</text>
</a>
</g>
<!-- Node1&#45;&gt;Node4 -->
<g id="edge6" class="edge"><title>Node1&#45;&gt;Node4</title>
<path fill="none" stroke="midnightblue" d="M167.904,-116.497C188.8,-107.315 219.356,-93.8889 242.655,-83.6516"/>
<polygon fill="midnightblue" stroke="midnightblue" points="244.08,-86.8483 251.828,-79.6212 241.264,-80.4397 244.08,-86.8483"/>
</g>
<!-- Node5 -->
<g id="node9" class="node"><title>Node5</title>
<polygon fill="white" stroke="#bfbfbf" points="0,-0.5 0,-21.5 152,-21.5 152,-0.5 0,-0.5"/>
<text text-anchor="middle" x="76" y="-8.5" font-family="DejaVuSans" font-size="10.00">Storage/StorageCharacter.h</text>
</g>
<!-- Node4&#45;&gt;Node5 -->
<g id="edge8" class="edge"><title>Node4&#45;&gt;Node5</title>
<path fill="none" stroke="midnightblue" d="M239.782,-58.4966C206.753,-48.9183 157.792,-34.7196 122.006,-24.3418"/>
<polygon fill="midnightblue" stroke="midnightblue" points="122.866,-20.9469 112.286,-21.5231 120.916,-27.6699 122.866,-20.9469"/>
</g>
<!-- Node6 -->
<g id="node11" class="node"><title>Node6</title>
<polygon fill="white" stroke="#bfbfbf" points="169.5,-0.5 169.5,-21.5 258.5,-21.5 258.5,-0.5 169.5,-0.5"/>
<text text-anchor="middle" x="214" y="-8.5" font-family="DejaVuSans" font-size="10.00">Config/Config.h</text>
</g>
<!-- Node4&#45;&gt;Node6 -->
<g id="edge10" class="edge"><title>Node4&#45;&gt;Node6</title>
<path fill="none" stroke="midnightblue" d="M264.628,-58.3619C255.714,-50.0226 243.121,-38.2418 232.724,-28.5162"/>
<polygon fill="midnightblue" stroke="midnightblue" points="234.993,-25.8463 225.3,-21.5707 230.211,-30.9582 234.993,-25.8463"/>
</g>
<!-- Node7 -->
<g id="node13" class="node"><title>Node7</title>
<polygon fill="white" stroke="#bfbfbf" points="275.5,-0.5 275.5,-21.5 400.5,-21.5 400.5,-0.5 275.5,-0.5"/>
<text text-anchor="middle" x="338" y="-8.5" font-family="DejaVuSans" font-size="10.00">Datatypes/cv_Shape.h</text>
</g>
<!-- Node4&#45;&gt;Node7 -->
<g id="edge12" class="edge"><title>Node4&#45;&gt;Node7</title>
<path fill="none" stroke="midnightblue" d="M287.372,-58.3619C296.286,-50.0226 308.879,-38.2418 319.276,-28.5162"/>
<polygon fill="midnightblue" stroke="midnightblue" points="321.789,-30.9582 326.7,-21.5707 317.007,-25.8463 321.789,-30.9582"/>
</g>
<!-- Node8 -->
<g id="node15" class="node"><title>Node8</title>
<polygon fill="white" stroke="#bfbfbf" points="417.5,-0.5 417.5,-21.5 472.5,-21.5 472.5,-0.5 417.5,-0.5"/>
<text text-anchor="middle" x="445" y="-8.5" font-family="DejaVuSans" font-size="10.00">QObject</text>
</g>
<!-- Node4&#45;&gt;Node8 -->
<g id="edge14" class="edge"><title>Node4&#45;&gt;Node8</title>
<path fill="none" stroke="midnightblue" d="M306.605,-58.4966C334.977,-48.7594 377.262,-34.2472 407.62,-23.8285"/>
<polygon fill="midnightblue" stroke="midnightblue" points="409.099,-27.0216 417.421,-20.465 406.826,-20.4007 409.099,-27.0216"/>
</g>
</g>
</svg>
