<?xml version="1.0" encoding="UTF-8" standalone="no"?>
<!DOCTYPE svg PUBLIC "-//W3C//DTD SVG 1.1//EN"
 "http://www.w3.org/Graphics/SVG/1.1/DTD/svg11.dtd">
<!-- Generated by graphviz version 2.26.3 (20100126.1600)
 -->
<!-- Title: G Pages: 1 -->
<svg width="374pt" height="88pt"
 viewBox="0.00 0.00 374.00 88.00" xmlns="http://www.w3.org/2000/svg" xmlns:xlink="http://www.w3.org/1999/xlink">
<g id="graph1" class="graph" transform="scale(1 1) rotate(0) translate(4 84)">
<title>G</title>
<polygon fill="white" stroke="white" points="-4,5 -4,-84 371,-84 371,5 -4,5"/>
<!-- Node1 -->
<g id="node1" class="node"><title>Node1</title>
<polygon fill="#bfbfbf" stroke="black" points="160.5,-58.5 160.5,-79.5 303.5,-79.5 303.5,-58.5 160.5,-58.5"/>
<text text-anchor="middle" x="232" y="-66.5" font-family="DejaVuSans" font-size="10.00">src/Calc/CalcAdvantages.h</text>
</g>
<!-- Node2 -->
<g id="node3" class="node"><title>Node2</title>
<polygon fill="white" stroke="#bfbfbf" points="0,-0.5 0,-21.5 152,-21.5 152,-0.5 0,-0.5"/>
<text text-anchor="middle" x="76" y="-8.5" font-family="DejaVuSans" font-size="10.00">Storage/StorageCharacter.h</text>
</g>
<!-- Node1&#45;&gt;Node2 -->
<g id="edge2" class="edge"><title>Node1&#45;&gt;Node2</title>
<path fill="none" stroke="midnightblue" d="M203.75,-58.4966C178.538,-49.1229 141.424,-35.3242 113.688,-25.0122"/>
<polygon fill="midnightblue" stroke="midnightblue" points="114.896,-21.7274 104.303,-21.5231 112.457,-28.2886 114.896,-21.7274"/>
</g>
<!-- Node3 -->
<g id="node5" class="node"><title>Node3</title>
<polygon fill="white" stroke="#bfbfbf" points="169.5,-0.5 169.5,-21.5 294.5,-21.5 294.5,-0.5 169.5,-0.5"/>
<text text-anchor="middle" x="232" y="-8.5" font-family="DejaVuSans" font-size="10.00">Datatypes/cv_Shape.h</text>
</g>
<!-- Node1&#45;&gt;Node3 -->
<g id="edge4" class="edge"><title>Node1&#45;&gt;Node3</title>
<path fill="none" stroke="midnightblue" d="M232,-58.3619C232,-50.9219 232,-40.7427 232,-31.7276"/>
<polygon fill="midnightblue" stroke="midnightblue" points="235.5,-31.5706 232,-21.5707 228.5,-31.5707 235.5,-31.5706"/>
</g>
<!-- Node4 -->
<g id="node7" class="node"><title>Node4</title>
<polygon fill="white" stroke="#bfbfbf" points="311.5,-0.5 311.5,-21.5 366.5,-21.5 366.5,-0.5 311.5,-0.5"/>
<text text-anchor="middle" x="339" y="-8.5" font-family="DejaVuSans" font-size="10.00">QObject</text>
</g>
<!-- Node1&#45;&gt;Node4 -->
<g id="edge6" class="edge"><title>Node1&#45;&gt;Node4</title>
<path fill="none" stroke="midnightblue" d="M251.625,-58.3619C268.141,-49.4094 291.974,-36.4908 310.578,-26.4064"/>
<polygon fill="midnightblue" stroke="midnightblue" points="312.375,-29.4132 319.499,-21.5707 309.04,-23.2592 312.375,-29.4132"/>
</g>
</g>
</svg>
