<?xml version="1.0" encoding="UTF-8" standalone="no"?>
<!DOCTYPE svg PUBLIC "-//W3C//DTD SVG 1.1//EN"
 "http://www.w3.org/Graphics/SVG/1.1/DTD/svg11.dtd">
<!-- Generated by graphviz version 2.26.3 (20100126.1600)
 -->
<!-- Title: G Pages: 1 -->
<svg width="392pt" height="262pt"
 viewBox="0.00 0.00 392.00 262.00" xmlns="http://www.w3.org/2000/svg" xmlns:xlink="http://www.w3.org/1999/xlink">
<g id="graph1" class="graph" transform="scale(1 1) rotate(0) translate(4 258)">
<title>G</title>
<polygon fill="white" stroke="white" points="-4,5 -4,-258 389,-258 389,5 -4,5"/>
<!-- Node1 -->
<g id="node1" class="node"><title>Node1</title>
<polygon fill="#bfbfbf" stroke="black" points="-0.5,-232.5 -0.5,-253.5 174.5,-253.5 174.5,-232.5 -0.5,-232.5"/>
<text text-anchor="middle" x="87" y="-240.5" font-family="DejaVuSans" font-size="10.00">src/Widgets/CharaSpecialties.cpp</text>
</g>
<!-- Node2 -->
<g id="node3" class="node"><title>Node2</title>
<polygon fill="white" stroke="#bfbfbf" points="10,-174.5 10,-195.5 66,-195.5 66,-174.5 10,-174.5"/>
<text text-anchor="middle" x="38" y="-182.5" font-family="DejaVuSans" font-size="10.00">QDebug</text>
</g>
<!-- Node1&#45;&gt;Node2 -->
<g id="edge2" class="edge"><title>Node1&#45;&gt;Node2</title>
<path fill="none" stroke="midnightblue" d="M78.0126,-232.362C71.1745,-224.268 61.5976,-212.932 53.5276,-203.38"/>
<polygon fill="midnightblue" stroke="midnightblue" points="56.0575,-200.951 46.9304,-195.571 50.7103,-205.468 56.0575,-200.951"/>
</g>
<!-- Node3 -->
<g id="node5" class="node"><title>Node3</title>
<a xlink:href="_chara_specialties_8h.html" target="_top" xlink:title="CharaSpecialties.h">
<polygon fill="white" stroke="black" points="84,-174.5 84,-195.5 190,-195.5 190,-174.5 84,-174.5"/>
<text text-anchor="middle" x="137" y="-182.5" font-family="DejaVuSans" font-size="10.00">CharaSpecialties.h</text>
</a>
</g>
<!-- Node1&#45;&gt;Node3 -->
<g id="edge4" class="edge"><title>Node1&#45;&gt;Node3</title>
<path fill="none" stroke="midnightblue" d="M96.1708,-232.362C103.148,-224.268 112.921,-212.932 121.156,-203.38"/>
<polygon fill="midnightblue" stroke="midnightblue" points="124.009,-205.43 127.887,-195.571 118.707,-200.859 124.009,-205.43"/>
</g>
<!-- Node4 -->
<g id="node7" class="node"><title>Node4</title>
<polygon fill="white" stroke="#bfbfbf" points="7.5,-58.5 7.5,-79.5 60.5,-79.5 60.5,-58.5 7.5,-58.5"/>
<text text-anchor="middle" x="34" y="-66.5" font-family="DejaVuSans" font-size="10.00">QString</text>
</g>
<!-- Node3&#45;&gt;Node4 -->
<g id="edge6" class="edge"><title>Node3&#45;&gt;Node4</title>
<path fill="none" stroke="midnightblue" d="M104.851,-174.459C86.8236,-166.979 65.3446,-155.179 52,-138 41.3484,-124.288 36.9652,-104.891 35.1792,-90.1527"/>
<polygon fill="midnightblue" stroke="midnightblue" points="38.6442,-89.6068 34.2588,-79.9622 31.6726,-90.2366 38.6442,-89.6068"/>
</g>
<!-- Node5 -->
<g id="node9" class="node"><title>Node5</title>
<polygon fill="white" stroke="#bfbfbf" points="61,-116.5 61,-137.5 213,-137.5 213,-116.5 61,-116.5"/>
<text text-anchor="middle" x="137" y="-124.5" font-family="DejaVuSans" font-size="10.00">Storage/StorageCharacter.h</text>
</g>
<!-- Node3&#45;&gt;Node5 -->
<g id="edge8" class="edge"><title>Node3&#45;&gt;Node5</title>
<path fill="none" stroke="midnightblue" d="M137,-174.362C137,-166.922 137,-156.743 137,-147.728"/>
<polygon fill="midnightblue" stroke="midnightblue" points="140.5,-147.571 137,-137.571 133.5,-147.571 140.5,-147.571"/>
</g>
<!-- Node6 -->
<g id="node11" class="node"><title>Node6</title>
<a xlink:href="_trait_specialties_8h.html" target="_top" xlink:title="TraitSpecialties.h">
<polygon fill="white" stroke="black" points="230.5,-116.5 230.5,-137.5 327.5,-137.5 327.5,-116.5 230.5,-116.5"/>
<text text-anchor="middle" x="279" y="-124.5" font-family="DejaVuSans" font-size="10.00">TraitSpecialties.h</text>
</a>
</g>
<!-- Node3&#45;&gt;Node6 -->
<g id="edge10" class="edge"><title>Node3&#45;&gt;Node6</title>
<path fill="none" stroke="midnightblue" d="M162.715,-174.497C185.293,-165.275 218.358,-151.769 243.463,-141.515"/>
<polygon fill="midnightblue" stroke="midnightblue" points="245.062,-144.643 252.996,-137.621 242.415,-138.162 245.062,-144.643"/>
</g>
<!-- Node6&#45;&gt;Node4 -->
<g id="edge12" class="edge"><title>Node6&#45;&gt;Node4</title>
<path fill="none" stroke="midnightblue" d="M234.632,-116.497C187.653,-105.375 114.362,-88.0244 70.5751,-77.6586"/>
<polygon fill="midnightblue" stroke="midnightblue" points="71.1792,-74.2049 60.6418,-75.307 69.5665,-81.0167 71.1792,-74.2049"/>
</g>
<!-- Node7 -->
<g id="node14" class="node"><title>Node7</title>
<polygon fill="white" stroke="#bfbfbf" points="143.5,-58.5 143.5,-79.5 284.5,-79.5 284.5,-58.5 143.5,-58.5"/>
<text text-anchor="middle" x="214" y="-66.5" font-family="DejaVuSans" font-size="10.00">Datatypes/cv_TraitDetail.h</text>
</g>
<!-- Node6&#45;&gt;Node7 -->
<g id="edge14" class="edge"><title>Node6&#45;&gt;Node7</title>
<path fill="none" stroke="midnightblue" d="M267.078,-116.362C257.641,-107.941 244.27,-96.0105 233.31,-86.2308"/>
<polygon fill="midnightblue" stroke="midnightblue" points="235.638,-83.6171 225.846,-79.5707 230.978,-88.8401 235.638,-83.6171"/>
</g>
<!-- Node8 -->
<g id="node16" class="node"><title>Node8</title>
<a xlink:href="_checked_list_8h.html" target="_top" xlink:title="CheckedList.h">
<polygon fill="white" stroke="black" points="301.5,-58.5 301.5,-79.5 384.5,-79.5 384.5,-58.5 301.5,-58.5"/>
<text text-anchor="middle" x="343" y="-66.5" font-family="DejaVuSans" font-size="10.00">CheckedList.h</text>
</a>
</g>
<!-- Node6&#45;&gt;Node8 -->
<g id="edge16" class="edge"><title>Node6&#45;&gt;Node8</title>
<path fill="none" stroke="midnightblue" d="M290.739,-116.362C299.941,-108.023 312.94,-96.2418 323.672,-86.5162"/>
<polygon fill="midnightblue" stroke="midnightblue" points="326.276,-88.8793 331.336,-79.5707 321.576,-83.6924 326.276,-88.8793"/>
</g>
<!-- Node9 -->
<g id="node18" class="node"><title>Node9</title>
<polygon fill="white" stroke="#bfbfbf" points="306.5,-0.5 306.5,-21.5 379.5,-21.5 379.5,-0.5 306.5,-0.5"/>
<text text-anchor="middle" x="343" y="-8.5" font-family="DejaVuSans" font-size="10.00">QListWidget</text>
</g>
<!-- Node8&#45;&gt;Node9 -->
<g id="edge18" class="edge"><title>Node8&#45;&gt;Node9</title>
<path fill="none" stroke="midnightblue" d="M343,-58.3619C343,-50.9219 343,-40.7427 343,-31.7276"/>
<polygon fill="midnightblue" stroke="midnightblue" points="346.5,-31.5706 343,-21.5707 339.5,-31.5707 346.5,-31.5706"/>
</g>
</g>
</svg>
