<?xml version="1.0" encoding="UTF-8" standalone="no"?>
<!DOCTYPE svg PUBLIC "-//W3C//DTD SVG 1.1//EN"
 "http://www.w3.org/Graphics/SVG/1.1/DTD/svg11.dtd">
<!-- Generated by graphviz version 2.26.3 (20100126.1600)
 -->
<!-- Title: G Pages: 1 -->
<svg width="2020pt" height="436pt"
 viewBox="0.00 0.00 2020.19 436.00" xmlns="http://www.w3.org/2000/svg" xmlns:xlink="http://www.w3.org/1999/xlink">
<g id="graph1" class="graph" transform="scale(1 1) rotate(0) translate(4 432)">
<title>G</title>
<polygon fill="white" stroke="white" points="-4,5 -4,-432 2017.19,-432 2017.19,5 -4,5"/>
<!-- Node1 -->
<g id="node1" class="node"><title>Node1</title>
<polygon fill="#bfbfbf" stroke="black" points="1265.69,-406.5 1265.69,-427.5 1408.69,-427.5 1408.69,-406.5 1265.69,-406.5"/>
<text text-anchor="middle" x="1337.19" y="-414.5" font-family="DejaVuSans" font-size="10.00">src/Widgets/CharaTrait.cpp</text>
</g>
<!-- Node2 -->
<g id="node3" class="node"><title>Node2</title>
<polygon fill="white" stroke="#bfbfbf" points="1012.19,-348.5 1012.19,-369.5 1068.19,-369.5 1068.19,-348.5 1012.19,-348.5"/>
<text text-anchor="middle" x="1040.19" y="-356.5" font-family="DejaVuSans" font-size="10.00">QDebug</text>
</g>
<!-- Node1&#45;&gt;Node2 -->
<g id="edge2" class="edge"><title>Node1&#45;&gt;Node2</title>
<path fill="none" stroke="midnightblue" d="M1267.23,-406.499C1217.01,-398.465 1147.57,-386.352 1078.17,-370.058"/>
<polygon fill="midnightblue" stroke="midnightblue" points="1078.92,-366.638 1068.38,-367.731 1077.3,-373.448 1078.92,-366.638"/>
</g>
<!-- Node3 -->
<g id="node5" class="node"><title>Node3</title>
<a xlink:href="_string_bool_parser_8h.html" target="_top" xlink:title="../Parser/StringBoolParser.h">
<polygon fill="white" stroke="black" points="1264.19,-232.5 1264.19,-253.5 1410.19,-253.5 1410.19,-232.5 1264.19,-232.5"/>
<text text-anchor="middle" x="1337.19" y="-240.5" font-family="DejaVuSans" font-size="10.00">../Parser/StringBoolParser.h</text>
</a>
</g>
<!-- Node1&#45;&gt;Node3 -->
<g id="edge4" class="edge"><title>Node1&#45;&gt;Node3</title>
<path fill="none" stroke="midnightblue" d="M1337.19,-406.377C1337.19,-378.293 1337.19,-301.673 1337.19,-264.203"/>
<polygon fill="midnightblue" stroke="midnightblue" points="1340.69,-263.928 1337.19,-253.928 1333.69,-263.928 1340.69,-263.928"/>
</g>
<!-- Node13 -->
<g id="node33" class="node"><title>Node13</title>
<a xlink:href="_exception_8h_source.html" target="_top" xlink:title="../Exceptions/Exception.h">
<polygon fill="white" stroke="black" points="1560.19,-232.5 1560.19,-253.5 1696.19,-253.5 1696.19,-232.5 1560.19,-232.5"/>
<text text-anchor="middle" x="1628.19" y="-240.5" font-family="DejaVuSans" font-size="10.00">../Exceptions/Exception.h</text>
</a>
</g>
<!-- Node1&#45;&gt;Node13 -->
<g id="edge40" class="edge"><title>Node1&#45;&gt;Node13</title>
<path fill="none" stroke="midnightblue" d="M1354.95,-406.377C1404.27,-376.891 1543.06,-293.905 1601.6,-258.896"/>
<polygon fill="midnightblue" stroke="midnightblue" points="1603.5,-261.841 1610.29,-253.705 1599.91,-255.833 1603.5,-261.841"/>
</g>
<!-- Node20 -->
<g id="node55" class="node"><title>Node20</title>
<a xlink:href="_message_box_8h.html" target="_top" xlink:title="Dialogs/MessageBox.h">
<polygon fill="white" stroke="black" points="1757.69,-290.5 1757.69,-311.5 1882.69,-311.5 1882.69,-290.5 1757.69,-290.5"/>
<text text-anchor="middle" x="1820.19" y="-298.5" font-family="DejaVuSans" font-size="10.00">Dialogs/MessageBox.h</text>
</a>
</g>
<!-- Node1&#45;&gt;Node20 -->
<g id="edge70" class="edge"><title>Node1&#45;&gt;Node20</title>
<path fill="none" stroke="midnightblue" d="M1381.33,-406.398C1470.18,-385.061 1670.27,-337.004 1766.51,-313.893"/>
<polygon fill="midnightblue" stroke="midnightblue" points="1767.42,-317.274 1776.32,-311.535 1765.78,-310.467 1767.42,-317.274"/>
</g>
<!-- Node23 -->
<g id="node63" class="node"><title>Node23</title>
<a xlink:href="_chara_trait_8h.html" target="_top" xlink:title="CharaTrait.h">
<polygon fill="white" stroke="black" points="1086.19,-348.5 1086.19,-369.5 1160.19,-369.5 1160.19,-348.5 1086.19,-348.5"/>
<text text-anchor="middle" x="1123.19" y="-356.5" font-family="DejaVuSans" font-size="10.00">CharaTrait.h</text>
</a>
</g>
<!-- Node1&#45;&gt;Node23 -->
<g id="edge80" class="edge"><title>Node1&#45;&gt;Node23</title>
<path fill="none" stroke="midnightblue" d="M1298.44,-406.497C1262.39,-396.728 1208.61,-382.152 1170.15,-371.726"/>
<polygon fill="midnightblue" stroke="midnightblue" points="1170.79,-368.275 1160.22,-369.037 1168.96,-375.031 1170.79,-368.275"/>
</g>
<!-- Node4 -->
<g id="node7" class="node"><title>Node4</title>
<a xlink:href="cv___species_8h.html" target="_top" xlink:title="../Datatypes/cv_Species.h">
<polygon fill="white" stroke="black" points="1221.19,-58.5 1221.19,-79.5 1361.19,-79.5 1361.19,-58.5 1221.19,-58.5"/>
<text text-anchor="middle" x="1291.19" y="-66.5" font-family="DejaVuSans" font-size="10.00">../Datatypes/cv_Species.h</text>
</a>
</g>
<!-- Node3&#45;&gt;Node4 -->
<g id="edge6" class="edge"><title>Node3&#45;&gt;Node4</title>
<path fill="none" stroke="midnightblue" d="M1387.13,-232.471C1461.25,-214.629 1586.68,-174.59 1538.19,-116 1517.22,-90.6636 1435.36,-78.8699 1371.55,-73.4544"/>
<polygon fill="midnightblue" stroke="midnightblue" points="1371.73,-69.9573 1361.48,-72.6389 1371.16,-76.9345 1371.73,-69.9573"/>
</g>
<!-- Node6 -->
<g id="node11" class="node"><title>Node6</title>
<a xlink:href="cv___trait_8h.html" target="_top" xlink:title="../Datatypes/cv_Trait.h">
<polygon fill="white" stroke="black" points="1276.19,-174.5 1276.19,-195.5 1398.19,-195.5 1398.19,-174.5 1276.19,-174.5"/>
<text text-anchor="middle" x="1337.19" y="-182.5" font-family="DejaVuSans" font-size="10.00">../Datatypes/cv_Trait.h</text>
</a>
</g>
<!-- Node3&#45;&gt;Node6 -->
<g id="edge10" class="edge"><title>Node3&#45;&gt;Node6</title>
<path fill="none" stroke="midnightblue" d="M1337.19,-232.362C1337.19,-224.922 1337.19,-214.743 1337.19,-205.728"/>
<polygon fill="midnightblue" stroke="midnightblue" points="1340.69,-205.571 1337.19,-195.571 1333.69,-205.571 1340.69,-205.571"/>
</g>
<!-- Node12 -->
<g id="node31" class="node"><title>Node12</title>
<polygon fill="white" stroke="#bfbfbf" points="928.689,-174.5 928.689,-195.5 983.689,-195.5 983.689,-174.5 928.689,-174.5"/>
<text text-anchor="middle" x="956.189" y="-182.5" font-family="DejaVuSans" font-size="10.00">QObject</text>
</g>
<!-- Node3&#45;&gt;Node12 -->
<g id="edge38" class="edge"><title>Node3&#45;&gt;Node12</title>
<path fill="none" stroke="midnightblue" d="M1264.15,-234.505C1196.48,-226.207 1093.18,-212.446 1004.19,-196 1000.76,-195.367 997.215,-194.657 993.666,-193.911"/>
<polygon fill="midnightblue" stroke="midnightblue" points="994.29,-190.464 983.773,-191.744 992.792,-197.302 994.29,-190.464"/>
</g>
<!-- Node5 -->
<g id="node9" class="node"><title>Node5</title>
<polygon fill="white" stroke="#bfbfbf" points="1264.69,-0.5 1264.69,-21.5 1317.69,-21.5 1317.69,-0.5 1264.69,-0.5"/>
<text text-anchor="middle" x="1291.19" y="-8.5" font-family="DejaVuSans" font-size="10.00">QString</text>
</g>
<!-- Node4&#45;&gt;Node5 -->
<g id="edge8" class="edge"><title>Node4&#45;&gt;Node5</title>
<path fill="none" stroke="midnightblue" d="M1291.19,-58.3619C1291.19,-50.9219 1291.19,-40.7427 1291.19,-31.7276"/>
<polygon fill="midnightblue" stroke="midnightblue" points="1294.69,-31.5706 1291.19,-21.5707 1287.69,-31.5707 1294.69,-31.5706"/>
</g>
<!-- Node6&#45;&gt;Node4 -->
<g id="edge20" class="edge"><title>Node6&#45;&gt;Node4</title>
<path fill="none" stroke="midnightblue" d="M1348.14,-174.431C1361.03,-160.642 1379.37,-135.927 1368.19,-116 1360.2,-101.771 1345.97,-91.3396 1331.89,-83.9711"/>
<polygon fill="midnightblue" stroke="midnightblue" points="1333.25,-80.7447 1322.73,-79.5621 1330.22,-87.0523 1333.25,-80.7447"/>
</g>
<!-- Node6&#45;&gt;Node5 -->
<g id="edge14" class="edge"><title>Node6&#45;&gt;Node5</title>
<path fill="none" stroke="midnightblue" d="M1398.3,-178.987C1450.89,-172.4 1520.93,-159.76 1538.19,-138 1544.27,-130.339 1543.58,-124.155 1538.19,-116 1491,-44.6587 1384.48,-21.6408 1327.98,-14.3268"/>
<polygon fill="midnightblue" stroke="midnightblue" points="1328.39,-10.8503 1318.04,-13.1358 1327.55,-17.8006 1328.39,-10.8503"/>
</g>
<!-- Node7 -->
<g id="node13" class="node"><title>Node7</title>
<polygon fill="white" stroke="#bfbfbf" points="1414.69,-116.5 1414.69,-137.5 1463.69,-137.5 1463.69,-116.5 1414.69,-116.5"/>
<text text-anchor="middle" x="1439.19" y="-124.5" font-family="DejaVuSans" font-size="10.00">QFlags</text>
</g>
<!-- Node6&#45;&gt;Node7 -->
<g id="edge12" class="edge"><title>Node6&#45;&gt;Node7</title>
<path fill="none" stroke="midnightblue" d="M1355.9,-174.362C1371.57,-165.45 1394.15,-152.609 1411.85,-142.545"/>
<polygon fill="midnightblue" stroke="midnightblue" points="1413.64,-145.556 1420.6,-137.571 1410.18,-139.471 1413.64,-145.556"/>
</g>
<!-- Node8 -->
<g id="node16" class="node"><title>Node8</title>
<polygon fill="white" stroke="#bfbfbf" points="776.689,-58.5 776.689,-79.5 817.689,-79.5 817.689,-58.5 776.689,-58.5"/>
<text text-anchor="middle" x="797.189" y="-66.5" font-family="DejaVuSans" font-size="10.00">QList</text>
</g>
<!-- Node6&#45;&gt;Node8 -->
<g id="edge16" class="edge"><title>Node6&#45;&gt;Node8</title>
<path fill="none" stroke="midnightblue" d="M1276.14,-175.153C1273.12,-174.745 1270.12,-174.358 1267.19,-174 1175.74,-162.843 935.749,-180.84 854.189,-138 833.261,-127.007 817.076,-104.71 807.388,-88.4278"/>
<polygon fill="midnightblue" stroke="midnightblue" points="810.409,-86.6584 802.448,-79.6668 804.311,-90.0966 810.409,-86.6584"/>
</g>
<!-- Node9 -->
<g id="node18" class="node"><title>Node9</title>
<polygon fill="white" stroke="#bfbfbf" points="494.689,-0.5 494.689,-21.5 563.689,-21.5 563.689,-0.5 494.689,-0.5"/>
<text text-anchor="middle" x="529.189" y="-8.5" font-family="DejaVuSans" font-size="10.00">QStringList</text>
</g>
<!-- Node6&#45;&gt;Node9 -->
<g id="edge18" class="edge"><title>Node6&#45;&gt;Node9</title>
<path fill="none" stroke="midnightblue" d="M1309.89,-174.41C1271.55,-159.814 1199.34,-133.353 1136.19,-116 930.019,-59.3442 675.664,-27.1411 574.126,-15.7516"/>
<polygon fill="midnightblue" stroke="midnightblue" points="574.254,-12.2444 563.929,-14.6205 573.482,-19.2018 574.254,-12.2444"/>
</g>
<!-- Node10 -->
<g id="node21" class="node"><title>Node10</title>
<a xlink:href="cv___trait_detail_8h.html" target="_top" xlink:title="cv_TraitDetail.h">
<polygon fill="white" stroke="black" points="862.689,-116.5 862.689,-137.5 951.689,-137.5 951.689,-116.5 862.689,-116.5"/>
<text text-anchor="middle" x="907.189" y="-124.5" font-family="DejaVuSans" font-size="10.00">cv_TraitDetail.h</text>
</a>
</g>
<!-- Node6&#45;&gt;Node10 -->
<g id="edge22" class="edge"><title>Node6&#45;&gt;Node10</title>
<path fill="none" stroke="midnightblue" d="M1276.13,-175.26C1273.11,-174.824 1270.11,-174.401 1267.19,-174 1134.27,-155.771 1097.51,-159.775 961.895,-138.18"/>
<polygon fill="midnightblue" stroke="midnightblue" points="962.387,-134.714 951.957,-136.58 961.274,-141.625 962.387,-134.714"/>
</g>
<!-- Node11 -->
<g id="node27" class="node"><title>Node11</title>
<a xlink:href="cv___abstract_trait_8h.html" target="_top" xlink:title="cv_AbstractTrait.h">
<polygon fill="white" stroke="black" points="1258.69,-116.5 1258.69,-137.5 1359.69,-137.5 1359.69,-116.5 1258.69,-116.5"/>
<text text-anchor="middle" x="1309.19" y="-124.5" font-family="DejaVuSans" font-size="10.00">cv_AbstractTrait.h</text>
</a>
</g>
<!-- Node6&#45;&gt;Node11 -->
<g id="edge32" class="edge"><title>Node6&#45;&gt;Node11</title>
<path fill="none" stroke="midnightblue" d="M1332.05,-174.362C1328.34,-166.677 1323.22,-156.069 1318.77,-146.84"/>
<polygon fill="midnightblue" stroke="midnightblue" points="1321.79,-145.055 1314.29,-137.571 1315.49,-148.098 1321.79,-145.055"/>
</g>
<!-- Node10&#45;&gt;Node4 -->
<g id="edge30" class="edge"><title>Node10&#45;&gt;Node4</title>
<path fill="none" stroke="midnightblue" d="M951.97,-117.497C954.748,-116.972 957.505,-116.469 960.189,-116 1045.44,-101.117 1143.66,-87.6273 1210.83,-78.9566"/>
<polygon fill="midnightblue" stroke="midnightblue" points="1211.45,-82.4058 1220.92,-77.6599 1210.56,-75.4628 1211.45,-82.4058"/>
</g>
<!-- Node10&#45;&gt;Node5 -->
<g id="edge24" class="edge"><title>Node10&#45;&gt;Node5</title>
<path fill="none" stroke="midnightblue" d="M942.285,-116.398C1014.78,-94.4972 1180.47,-44.4456 1254.4,-22.1136"/>
<polygon fill="midnightblue" stroke="midnightblue" points="1255.64,-25.3945 1264.2,-19.1522 1253.62,-18.6936 1255.64,-25.3945"/>
</g>
<!-- Node10&#45;&gt;Node8 -->
<g id="edge26" class="edge"><title>Node10&#45;&gt;Node8</title>
<path fill="none" stroke="midnightblue" d="M887.269,-116.497C870.243,-107.519 845.52,-94.4835 826.28,-84.3387"/>
<polygon fill="midnightblue" stroke="midnightblue" points="827.811,-81.1894 817.333,-79.6212 824.546,-87.3814 827.811,-81.1894"/>
</g>
<!-- Node10&#45;&gt;Node9 -->
<g id="edge28" class="edge"><title>Node10&#45;&gt;Node9</title>
<path fill="none" stroke="midnightblue" d="M898.227,-116.302C884.478,-100.682 856.564,-71.9768 826.189,-58 782.118,-37.7208 645.492,-22.1141 573.933,-15.0843"/>
<polygon fill="midnightblue" stroke="midnightblue" points="574.157,-11.5897 563.866,-14.1098 573.482,-18.5571 574.157,-11.5897"/>
</g>
<!-- Node11&#45;&gt;Node4 -->
<g id="edge36" class="edge"><title>Node11&#45;&gt;Node4</title>
<path fill="none" stroke="midnightblue" d="M1305.89,-116.362C1303.53,-108.758 1300.28,-98.294 1297.44,-89.1349"/>
<polygon fill="midnightblue" stroke="midnightblue" points="1300.78,-88.0839 1294.47,-79.5707 1294.09,-90.1587 1300.78,-88.0839"/>
</g>
<!-- Node11&#45;&gt;Node5 -->
<g id="edge34" class="edge"><title>Node11&#45;&gt;Node5</title>
<path fill="none" stroke="midnightblue" d="M1330.56,-116.423C1353.05,-103.769 1383.47,-81.3504 1370.19,-58 1360.89,-41.6485 1343.41,-30.3907 1327.25,-23.0025"/>
<polygon fill="midnightblue" stroke="midnightblue" points="1328.53,-19.7459 1317.96,-19.0903 1325.82,-26.1972 1328.53,-19.7459"/>
</g>
<!-- Node13&#45;&gt;Node5 -->
<g id="edge42" class="edge"><title>Node13&#45;&gt;Node5</title>
<path fill="none" stroke="midnightblue" d="M1676.44,-232.426C1710.84,-223.796 1752.77,-210.666 1763.19,-196 1787.7,-161.506 1839.4,-148.53 1740.19,-58 1709.92,-30.383 1429.55,-16.5246 1327.83,-12.3737"/>
<polygon fill="midnightblue" stroke="midnightblue" points="1327.85,-8.8719 1317.72,-11.9693 1327.57,-15.8663 1327.85,-8.8719"/>
</g>
<!-- Node13&#45;&gt;Node6 -->
<g id="edge44" class="edge"><title>Node13&#45;&gt;Node6</title>
<path fill="none" stroke="midnightblue" d="M1575.49,-232.497C1526.1,-222.652 1452.22,-207.927 1399.83,-197.486"/>
<polygon fill="midnightblue" stroke="midnightblue" points="1400.48,-194.045 1389.99,-195.523 1399.11,-200.91 1400.48,-194.045"/>
</g>
<!-- Node14 -->
<g id="node37" class="node"><title>Node14</title>
<a xlink:href="cv___shape_8h.html" target="_top" xlink:title="../Datatypes/cv_Shape.h">
<polygon fill="white" stroke="black" points="1578.19,-58.5 1578.19,-79.5 1712.19,-79.5 1712.19,-58.5 1578.19,-58.5"/>
<text text-anchor="middle" x="1645.19" y="-66.5" font-family="DejaVuSans" font-size="10.00">../Datatypes/cv_Shape.h</text>
</a>
</g>
<!-- Node13&#45;&gt;Node14 -->
<g id="edge46" class="edge"><title>Node13&#45;&gt;Node14</title>
<path fill="none" stroke="midnightblue" d="M1629.23,-232.377C1631.97,-204.293 1639.46,-127.673 1643.12,-90.2027"/>
<polygon fill="midnightblue" stroke="midnightblue" points="1646.63,-90.2207 1644.12,-79.9277 1639.67,-89.54 1646.63,-90.2207"/>
</g>
<!-- Node15 -->
<g id="node40" class="node"><title>Node15</title>
<a xlink:href="cv___identity_8h.html" target="_top" xlink:title="../Datatypes/cv_Identity.h">
<polygon fill="white" stroke="black" points="518.689,-116.5 518.689,-137.5 655.689,-137.5 655.689,-116.5 518.689,-116.5"/>
<text text-anchor="middle" x="587.189" y="-124.5" font-family="DejaVuSans" font-size="10.00">../Datatypes/cv_Identity.h</text>
</a>
</g>
<!-- Node13&#45;&gt;Node15 -->
<g id="edge50" class="edge"><title>Node13&#45;&gt;Node15</title>
<path fill="none" stroke="midnightblue" d="M1559.88,-238.544C1433.97,-230.098 1169.87,-211.244 1079.19,-196 1039.86,-189.388 1031.42,-181.203 992.189,-174 879.743,-153.351 747.974,-140.049 666.023,-133.043"/>
<polygon fill="midnightblue" stroke="midnightblue" points="666.293,-129.553 656.034,-132.199 665.704,-136.529 666.293,-129.553"/>
</g>
<!-- Node17 -->
<g id="node48" class="node"><title>Node17</title>
<a xlink:href="_config_8h.html" target="_top" xlink:title="../Config/Config.h">
<polygon fill="white" stroke="black" points="1656.19,-174.5 1656.19,-195.5 1754.19,-195.5 1754.19,-174.5 1656.19,-174.5"/>
<text text-anchor="middle" x="1705.19" y="-182.5" font-family="DejaVuSans" font-size="10.00">../Config/Config.h</text>
</a>
</g>
<!-- Node13&#45;&gt;Node17 -->
<g id="edge62" class="edge"><title>Node13&#45;&gt;Node17</title>
<path fill="none" stroke="midnightblue" d="M1642.31,-232.362C1653.71,-223.777 1669.95,-211.546 1683.07,-201.664"/>
<polygon fill="midnightblue" stroke="midnightblue" points="1685.27,-204.383 1691.16,-195.571 1681.06,-198.792 1685.27,-204.383"/>
</g>
<!-- Node14&#45;&gt;Node5 -->
<g id="edge48" class="edge"><title>Node14&#45;&gt;Node5</title>
<path fill="none" stroke="midnightblue" d="M1581.08,-58.4966C1507.03,-46.3632 1387.72,-26.8157 1327.89,-17.0127"/>
<polygon fill="midnightblue" stroke="midnightblue" points="1328.21,-13.5191 1317.78,-15.3561 1327.08,-20.427 1328.21,-13.5191"/>
</g>
<!-- Node15&#45;&gt;Node5 -->
<g id="edge54" class="edge"><title>Node15&#45;&gt;Node5</title>
<path fill="none" stroke="midnightblue" d="M601.002,-116.288C622.389,-100.373 665.419,-70.9702 707.189,-58 810.118,-26.0398 1142.82,-14.7862 1254.35,-11.858"/>
<polygon fill="midnightblue" stroke="midnightblue" points="1254.53,-15.3546 1264.44,-11.6002 1254.36,-8.35691 1254.53,-15.3546"/>
</g>
<!-- Node15&#45;&gt;Node9 -->
<g id="edge52" class="edge"><title>Node15&#45;&gt;Node9</title>
<path fill="none" stroke="midnightblue" d="M559.872,-116.429C544.328,-108.832 526.21,-96.9217 517.189,-80 509.181,-64.9768 513.522,-45.7464 519.1,-31.4051"/>
<polygon fill="midnightblue" stroke="midnightblue" points="522.431,-32.5218 523.221,-21.9565 516.015,-29.7233 522.431,-32.5218"/>
</g>
<!-- Node16 -->
<g id="node44" class="node"><title>Node16</title>
<a xlink:href="cv___name_8h.html" target="_top" xlink:title="cv_Name.h">
<polygon fill="white" stroke="black" points="525.689,-58.5 525.689,-79.5 596.689,-79.5 596.689,-58.5 525.689,-58.5"/>
<text text-anchor="middle" x="561.189" y="-66.5" font-family="DejaVuSans" font-size="10.00">cv_Name.h</text>
</a>
</g>
<!-- Node15&#45;&gt;Node16 -->
<g id="edge56" class="edge"><title>Node15&#45;&gt;Node16</title>
<path fill="none" stroke="midnightblue" d="M582.421,-116.362C578.975,-108.677 574.22,-98.0686 570.083,-88.8399"/>
<polygon fill="midnightblue" stroke="midnightblue" points="573.212,-87.264 565.928,-79.5707 566.825,-90.1275 573.212,-87.264"/>
</g>
<!-- Node16&#45;&gt;Node5 -->
<g id="edge60" class="edge"><title>Node16&#45;&gt;Node5</title>
<path fill="none" stroke="midnightblue" d="M596.932,-60.3174C601.378,-59.4324 605.876,-58.6293 610.189,-58 854.266,-22.3916 1151.61,-13.6168 1254.27,-11.5803"/>
<polygon fill="midnightblue" stroke="midnightblue" points="1254.49,-15.0768 1264.42,-11.3885 1254.36,-8.07804 1254.49,-15.0768"/>
</g>
<!-- Node16&#45;&gt;Node9 -->
<g id="edge58" class="edge"><title>Node16&#45;&gt;Node9</title>
<path fill="none" stroke="midnightblue" d="M555.32,-58.3619C551.035,-50.5949 545.103,-39.8426 539.973,-30.5458"/>
<polygon fill="midnightblue" stroke="midnightblue" points="542.917,-28.6357 535.021,-21.5707 536.788,-32.0172 542.917,-28.6357"/>
</g>
<!-- Node17&#45;&gt;Node5 -->
<g id="edge64" class="edge"><title>Node17&#45;&gt;Node5</title>
<path fill="none" stroke="midnightblue" d="M1711.41,-174.178C1724.4,-149.992 1750.86,-91.0913 1721.19,-58 1695.1,-28.9025 1427.12,-16.0493 1327.89,-12.2619"/>
<polygon fill="midnightblue" stroke="midnightblue" points="1327.85,-8.7584 1317.73,-11.8837 1327.59,-15.7535 1327.85,-8.7584"/>
</g>
<!-- Node18 -->
<g id="node51" class="node"><title>Node18</title>
<polygon fill="white" stroke="#bfbfbf" points="1480.69,-116.5 1480.69,-137.5 1529.69,-137.5 1529.69,-116.5 1480.69,-116.5"/>
<text text-anchor="middle" x="1505.19" y="-124.5" font-family="DejaVuSans" font-size="10.00">QColor</text>
</g>
<!-- Node17&#45;&gt;Node18 -->
<g id="edge66" class="edge"><title>Node17&#45;&gt;Node18</title>
<path fill="none" stroke="midnightblue" d="M1668.97,-174.497C1632.29,-163.86 1575.97,-147.525 1539.85,-137.053"/>
<polygon fill="midnightblue" stroke="midnightblue" points="1540.37,-133.558 1529.79,-134.134 1538.42,-140.281 1540.37,-133.558"/>
</g>
<!-- Node19 -->
<g id="node53" class="node"><title>Node19</title>
<polygon fill="white" stroke="#bfbfbf" points="1667.69,-116.5 1667.69,-137.5 1712.69,-137.5 1712.69,-116.5 1667.69,-116.5"/>
<text text-anchor="middle" x="1690.19" y="-124.5" font-family="DejaVuSans" font-size="10.00">QFont</text>
</g>
<!-- Node17&#45;&gt;Node19 -->
<g id="edge68" class="edge"><title>Node17&#45;&gt;Node19</title>
<path fill="none" stroke="midnightblue" d="M1702.44,-174.362C1700.49,-166.84 1697.82,-156.519 1695.47,-147.431"/>
<polygon fill="midnightblue" stroke="midnightblue" points="1698.82,-146.376 1692.92,-137.571 1692.04,-148.128 1698.82,-146.376"/>
</g>
<!-- Node20&#45;&gt;Node5 -->
<g id="edge72" class="edge"><title>Node20&#45;&gt;Node5</title>
<path fill="none" stroke="midnightblue" d="M1820.19,-290.444C1820.19,-270.062 1820.19,-223.868 1820.19,-185 1820.19,-185 1820.19,-185 1820.19,-127 1820.19,-87.5044 1798.96,-76.728 1764.19,-58 1726.04,-37.4529 1432.09,-18.9838 1327.77,-13.0142"/>
<polygon fill="midnightblue" stroke="midnightblue" points="1327.89,-9.51559 1317.71,-12.4438 1327.49,-16.5044 1327.89,-9.51559"/>
</g>
<!-- Node20&#45;&gt;Node13 -->
<g id="edge76" class="edge"><title>Node20&#45;&gt;Node13</title>
<path fill="none" stroke="midnightblue" d="M1785.42,-290.497C1753.85,-280.959 1707.11,-266.841 1672.8,-256.475"/>
<polygon fill="midnightblue" stroke="midnightblue" points="1673.61,-253.064 1663.02,-253.523 1671.58,-259.765 1673.61,-253.064"/>
</g>
<!-- Node21 -->
<g id="node58" class="node"><title>Node21</title>
<polygon fill="white" stroke="#bfbfbf" points="1950.19,-232.5 1950.19,-253.5 2012.19,-253.5 2012.19,-232.5 1950.19,-232.5"/>
<text text-anchor="middle" x="1981.19" y="-240.5" font-family="DejaVuSans" font-size="10.00">QSqlError</text>
</g>
<!-- Node20&#45;&gt;Node21 -->
<g id="edge74" class="edge"><title>Node20&#45;&gt;Node21</title>
<path fill="none" stroke="midnightblue" d="M1849.35,-290.497C1875.37,-281.123 1913.67,-267.324 1942.29,-257.012"/>
<polygon fill="midnightblue" stroke="midnightblue" points="1943.76,-260.205 1951.98,-253.523 1941.38,-253.62 1943.76,-260.205"/>
</g>
<!-- Node22 -->
<g id="node61" class="node"><title>Node22</title>
<polygon fill="white" stroke="#bfbfbf" points="1847.69,-232.5 1847.69,-253.5 1932.69,-253.5 1932.69,-232.5 1847.69,-232.5"/>
<text text-anchor="middle" x="1890.19" y="-240.5" font-family="DejaVuSans" font-size="10.00">QMessageBox</text>
</g>
<!-- Node20&#45;&gt;Node22 -->
<g id="edge78" class="edge"><title>Node20&#45;&gt;Node22</title>
<path fill="none" stroke="midnightblue" d="M1833.03,-290.362C1843.19,-281.941 1857.59,-270.011 1869.39,-260.231"/>
<polygon fill="midnightblue" stroke="midnightblue" points="1871.96,-262.646 1877.43,-253.571 1867.5,-257.256 1871.96,-262.646"/>
</g>
<!-- Node23&#45;&gt;Node6 -->
<g id="edge122" class="edge"><title>Node23&#45;&gt;Node6</title>
<path fill="none" stroke="midnightblue" d="M1132.69,-348.213C1153.4,-325.086 1204.81,-269.769 1255.19,-232 1271.21,-219.988 1290.6,-208.747 1306.49,-200.272"/>
<polygon fill="midnightblue" stroke="midnightblue" points="1308.16,-203.351 1315.4,-195.616 1304.91,-197.147 1308.16,-203.351"/>
</g>
<!-- Node23&#45;&gt;Node10 -->
<g id="edge124" class="edge"><title>Node23&#45;&gt;Node10</title>
<path fill="none" stroke="midnightblue" d="M1117.76,-348.128C1102.01,-317.444 1053.49,-228.844 992.189,-174 977.482,-160.841 958.458,-149.891 942.137,-141.881"/>
<polygon fill="midnightblue" stroke="midnightblue" points="943.43,-138.62 932.893,-137.509 940.437,-144.948 943.43,-138.62"/>
</g>
<!-- Node24 -->
<g id="node65" class="node"><title>Node24</title>
<a xlink:href="_storage_character_8h.html" target="_top" xlink:title="../Storage/StorageCharacter.h">
<polygon fill="white" stroke="black" points="871.689,-290.5 871.689,-311.5 1032.69,-311.5 1032.69,-290.5 871.689,-290.5"/>
<text text-anchor="middle" x="952.189" y="-298.5" font-family="DejaVuSans" font-size="10.00">../Storage/StorageCharacter.h</text>
</a>
</g>
<!-- Node23&#45;&gt;Node24 -->
<g id="edge82" class="edge"><title>Node23&#45;&gt;Node24</title>
<path fill="none" stroke="midnightblue" d="M1092.22,-348.497C1064.34,-339.041 1023.19,-325.083 992.707,-314.743"/>
<polygon fill="midnightblue" stroke="midnightblue" points="993.809,-311.421 983.214,-311.523 991.56,-318.05 993.809,-311.421"/>
</g>
<!-- Node29 -->
<g id="node92" class="node"><title>Node29</title>
<a xlink:href="_trait_line_8h.html" target="_top" xlink:title="TraitLine.h">
<polygon fill="white" stroke="black" points="197.689,-232.5 197.689,-253.5 262.689,-253.5 262.689,-232.5 197.689,-232.5"/>
<text text-anchor="middle" x="230.189" y="-240.5" font-family="DejaVuSans" font-size="10.00">TraitLine.h</text>
</a>
</g>
<!-- Node23&#45;&gt;Node29 -->
<g id="edge126" class="edge"><title>Node23&#45;&gt;Node29</title>
<path fill="none" stroke="midnightblue" d="M1086.11,-349.758C1083.1,-349.122 1080.1,-348.526 1077.19,-348 771.168,-292.62 397.612,-257.47 272.954,-246.603"/>
<polygon fill="midnightblue" stroke="midnightblue" points="272.961,-243.091 262.696,-245.715 272.357,-250.065 272.961,-243.091"/>
</g>
<!-- Node24&#45;&gt;Node6 -->
<g id="edge94" class="edge"><title>Node24&#45;&gt;Node6</title>
<path fill="none" stroke="midnightblue" d="M987.376,-290.398C1057.55,-269.255 1214.8,-221.877 1292.28,-198.53"/>
<polygon fill="midnightblue" stroke="midnightblue" points="1293.66,-201.771 1302.22,-195.535 1291.64,-195.069 1293.66,-201.771"/>
</g>
<!-- Node24&#45;&gt;Node12 -->
<g id="edge120" class="edge"><title>Node24&#45;&gt;Node12</title>
<path fill="none" stroke="midnightblue" d="M952.558,-290.295C953.219,-271.131 954.615,-230.654 955.471,-205.843"/>
<polygon fill="midnightblue" stroke="midnightblue" points="958.974,-205.794 955.821,-195.679 951.978,-205.553 958.974,-205.794"/>
</g>
<!-- Node24&#45;&gt;Node15 -->
<g id="edge84" class="edge"><title>Node24&#45;&gt;Node15</title>
<path fill="none" stroke="midnightblue" d="M871.729,-290.455C802.713,-277.92 703.828,-251.265 635.189,-196 618.593,-182.637 605.313,-162.07 596.966,-146.865"/>
<polygon fill="midnightblue" stroke="midnightblue" points="599.947,-145.012 592.207,-137.777 593.745,-148.259 599.947,-145.012"/>
</g>
<!-- Node25 -->
<g id="node68" class="node"><title>Node25</title>
<a xlink:href="cv___identity_list_8h.html" target="_top" xlink:title="../Datatypes/cv_IdentityList.h">
<polygon fill="white" stroke="black" points="643.689,-174.5 643.689,-195.5 798.689,-195.5 798.689,-174.5 643.689,-174.5"/>
<text text-anchor="middle" x="721.189" y="-182.5" font-family="DejaVuSans" font-size="10.00">../Datatypes/cv_IdentityList.h</text>
</a>
</g>
<!-- Node24&#45;&gt;Node25 -->
<g id="edge86" class="edge"><title>Node24&#45;&gt;Node25</title>
<path fill="none" stroke="midnightblue" d="M909.713,-290.43C881.43,-282.491 843.955,-270.204 813.189,-254 786.168,-239.768 758.59,-217.908 740.77,-202.617"/>
<polygon fill="midnightblue" stroke="midnightblue" points="742.684,-199.643 732.85,-195.701 738.08,-204.915 742.684,-199.643"/>
</g>
<!-- Node26 -->
<g id="node74" class="node"><title>Node26</title>
<a xlink:href="cv___derangement_8h.html" target="_top" xlink:title="../Datatypes/cv_Derangement.h">
<polygon fill="white" stroke="black" points="1088.19,-174.5 1088.19,-195.5 1258.19,-195.5 1258.19,-174.5 1088.19,-174.5"/>
<text text-anchor="middle" x="1173.19" y="-182.5" font-family="DejaVuSans" font-size="10.00">../Datatypes/cv_Derangement.h</text>
</a>
</g>
<!-- Node24&#45;&gt;Node26 -->
<g id="edge96" class="edge"><title>Node24&#45;&gt;Node26</title>
<path fill="none" stroke="midnightblue" d="M972.584,-290.295C1011.99,-269.612 1098.7,-224.099 1144.13,-200.254"/>
<polygon fill="midnightblue" stroke="midnightblue" points="1145.94,-203.258 1153.16,-195.512 1142.68,-197.06 1145.94,-203.258"/>
</g>
<!-- Node27 -->
<g id="node79" class="node"><title>Node27</title>
<a xlink:href="_storage_template_8h.html" target="_top" xlink:title="StorageTemplate.h">
<polygon fill="white" stroke="black" points="821.689,-232.5 821.689,-253.5 928.689,-253.5 928.689,-232.5 821.689,-232.5"/>
<text text-anchor="middle" x="875.189" y="-240.5" font-family="DejaVuSans" font-size="10.00">StorageTemplate.h</text>
</a>
</g>
<!-- Node24&#45;&gt;Node27 -->
<g id="edge104" class="edge"><title>Node24&#45;&gt;Node27</title>
<path fill="none" stroke="midnightblue" d="M938.066,-290.362C926.67,-281.777 910.431,-269.546 897.312,-259.664"/>
<polygon fill="midnightblue" stroke="midnightblue" points="899.316,-256.792 889.223,-253.571 895.105,-262.383 899.316,-256.792"/>
</g>
<!-- Node25&#45;&gt;Node5 -->
<g id="edge88" class="edge"><title>Node25&#45;&gt;Node5</title>
<path fill="none" stroke="midnightblue" d="M721.546,-174.283C723.013,-149.245 730.469,-86.8533 768.189,-58 806.639,-28.5892 1141.3,-15.6281 1254.19,-12.0663"/>
<polygon fill="midnightblue" stroke="midnightblue" points="1254.52,-15.5579 1264.4,-11.7507 1254.3,-8.56127 1254.52,-15.5579"/>
</g>
<!-- Node25&#45;&gt;Node8 -->
<g id="edge92" class="edge"><title>Node25&#45;&gt;Node8</title>
<path fill="none" stroke="midnightblue" d="M728.203,-174.295C741.041,-154.7 768.48,-112.82 784.616,-88.1913"/>
<polygon fill="midnightblue" stroke="midnightblue" points="787.64,-89.9619 790.193,-79.6792 781.785,-86.1257 787.64,-89.9619"/>
</g>
<!-- Node25&#45;&gt;Node15 -->
<g id="edge90" class="edge"><title>Node25&#45;&gt;Node15</title>
<path fill="none" stroke="midnightblue" d="M696.923,-174.497C675.711,-165.315 644.691,-151.889 621.04,-141.652"/>
<polygon fill="midnightblue" stroke="midnightblue" points="622.296,-138.381 611.728,-137.621 619.515,-144.806 622.296,-138.381"/>
</g>
<!-- Node26&#45;&gt;Node4 -->
<g id="edge100" class="edge"><title>Node26&#45;&gt;Node4</title>
<path fill="none" stroke="midnightblue" d="M1184.08,-174.295C1204.36,-154.355 1248.12,-111.337 1272.98,-86.9056"/>
<polygon fill="midnightblue" stroke="midnightblue" points="1275.65,-89.1856 1280.33,-79.6792 1270.74,-84.1937 1275.65,-89.1856"/>
</g>
<!-- Node26&#45;&gt;Node5 -->
<g id="edge98" class="edge"><title>Node26&#45;&gt;Node5</title>
<path fill="none" stroke="midnightblue" d="M1173.91,-174.283C1175.99,-150.813 1183.83,-94.0896 1212.19,-58 1223.38,-43.7636 1240.16,-32.9146 1255.39,-25.2467"/>
<polygon fill="midnightblue" stroke="midnightblue" points="1257.07,-28.3257 1264.61,-20.8816 1254.07,-21.9995 1257.07,-28.3257"/>
</g>
<!-- Node26&#45;&gt;Node11 -->
<g id="edge102" class="edge"><title>Node26&#45;&gt;Node11</title>
<path fill="none" stroke="midnightblue" d="M1197.82,-174.497C1219.35,-165.315 1250.83,-151.889 1274.83,-141.652"/>
<polygon fill="midnightblue" stroke="midnightblue" points="1276.46,-144.764 1284.28,-137.621 1273.71,-138.325 1276.46,-144.764"/>
</g>
<!-- Node27&#45;&gt;Node6 -->
<g id="edge110" class="edge"><title>Node27&#45;&gt;Node6</title>
<path fill="none" stroke="midnightblue" d="M928.847,-237.195C1002.44,-229.094 1139.06,-213.558 1265.85,-196.149"/>
<polygon fill="midnightblue" stroke="midnightblue" points="1266.7,-199.565 1276.13,-194.73 1265.74,-192.63 1266.7,-199.565"/>
</g>
<!-- Node27&#45;&gt;Node8 -->
<g id="edge106" class="edge"><title>Node27&#45;&gt;Node8</title>
<path fill="none" stroke="midnightblue" d="M869.694,-232.398C860.026,-213.598 839.547,-173.088 824.189,-138 817.12,-121.848 809.881,-103.213 804.68,-89.3829"/>
<polygon fill="midnightblue" stroke="midnightblue" points="807.906,-88.0156 801.137,-79.8648 801.346,-90.4576 807.906,-88.0156"/>
</g>
<!-- Node27&#45;&gt;Node9 -->
<g id="edge108" class="edge"><title>Node27&#45;&gt;Node9</title>
<path fill="none" stroke="midnightblue" d="M821.362,-236.079C728.376,-222.827 544.305,-190.437 510.189,-138 488.736,-105.025 505.885,-57.1691 518.613,-30.6133"/>
<polygon fill="midnightblue" stroke="midnightblue" points="521.804,-32.0583 523.185,-21.5539 515.555,-28.9045 521.804,-32.0583"/>
</g>
<!-- Node27&#45;&gt;Node12 -->
<g id="edge118" class="edge"><title>Node27&#45;&gt;Node12</title>
<path fill="none" stroke="midnightblue" d="M890.046,-232.362C902.035,-223.777 919.117,-211.546 932.918,-201.664"/>
<polygon fill="midnightblue" stroke="midnightblue" points="935.334,-204.238 941.427,-195.571 931.259,-198.547 935.334,-204.238"/>
</g>
<!-- Node27&#45;&gt;Node25 -->
<g id="edge112" class="edge"><title>Node27&#45;&gt;Node25</title>
<path fill="none" stroke="midnightblue" d="M847.301,-232.497C822.521,-223.164 786.094,-209.445 758.753,-199.147"/>
<polygon fill="midnightblue" stroke="midnightblue" points="759.722,-195.772 749.13,-195.523 757.255,-202.323 759.722,-195.772"/>
</g>
<!-- Node28 -->
<g id="node85" class="node"><title>Node28</title>
<a xlink:href="cv___super_effect_8h.html" target="_top" xlink:title="../Datatypes/cv_SuperEffect.h">
<polygon fill="white" stroke="black" points="969.189,-116.5 969.189,-137.5 1127.19,-137.5 1127.19,-116.5 969.189,-116.5"/>
<text text-anchor="middle" x="1048.19" y="-124.5" font-family="DejaVuSans" font-size="10.00">../Datatypes/cv_SuperEffect.h</text>
</a>
</g>
<!-- Node27&#45;&gt;Node28 -->
<g id="edge114" class="edge"><title>Node27&#45;&gt;Node28</title>
<path fill="none" stroke="midnightblue" d="M879.518,-232.356C886.141,-217.327 900.162,-189.945 920.189,-174 939.797,-158.389 965.08,-147.651 987.99,-140.426"/>
<polygon fill="midnightblue" stroke="midnightblue" points="989.062,-143.759 997.64,-137.541 987.056,-137.053 989.062,-143.759"/>
</g>
<!-- Node28&#45;&gt;Node4 -->
<g id="edge116" class="edge"><title>Node28&#45;&gt;Node4</title>
<path fill="none" stroke="midnightblue" d="M1092.19,-116.497C1132.93,-106.775 1193.6,-92.2938 1237.23,-81.8787"/>
<polygon fill="midnightblue" stroke="midnightblue" points="1238.19,-85.2491 1247.1,-79.5231 1236.56,-78.4404 1238.19,-85.2491"/>
</g>
<!-- Node29&#45;&gt;Node9 -->
<g id="edge128" class="edge"><title>Node29&#45;&gt;Node9</title>
<path fill="none" stroke="midnightblue" d="M197.661,-241.128C141.067,-237.118 28.2137,-225.535 4.18935,-196 -1.98069,-188.415 -0.227963,-182.723 4.18935,-174 48.8673,-85.7723 365.278,-33.5685 484.178,-16.8842"/>
<polygon fill="midnightblue" stroke="midnightblue" points="484.965,-20.3087 494.39,-15.4706 484.005,-13.3748 484.965,-20.3087"/>
</g>
<!-- Node30 -->
<g id="node95" class="node"><title>Node30</title>
<polygon fill="white" stroke="#bfbfbf" points="22.1894,-174.5 22.1894,-195.5 104.189,-195.5 104.189,-174.5 22.1894,-174.5"/>
<text text-anchor="middle" x="63.1894" y="-182.5" font-family="DejaVuSans" font-size="10.00">QHBoxLayout</text>
</g>
<!-- Node29&#45;&gt;Node30 -->
<g id="edge130" class="edge"><title>Node29&#45;&gt;Node30</title>
<path fill="none" stroke="midnightblue" d="M199.947,-232.497C172.839,-223.082 132.879,-209.204 103.146,-198.877"/>
<polygon fill="midnightblue" stroke="midnightblue" points="104.083,-195.498 93.4885,-195.523 101.787,-202.11 104.083,-195.498"/>
</g>
<!-- Node31 -->
<g id="node97" class="node"><title>Node31</title>
<polygon fill="white" stroke="#bfbfbf" points="122.189,-174.5 122.189,-195.5 172.189,-195.5 172.189,-174.5 122.189,-174.5"/>
<text text-anchor="middle" x="147.189" y="-182.5" font-family="DejaVuSans" font-size="10.00">QLabel</text>
</g>
<!-- Node29&#45;&gt;Node31 -->
<g id="edge132" class="edge"><title>Node29&#45;&gt;Node31</title>
<path fill="none" stroke="midnightblue" d="M214.966,-232.362C202.564,-223.696 184.844,-211.313 170.632,-201.382"/>
<polygon fill="midnightblue" stroke="midnightblue" points="172.518,-198.43 162.316,-195.571 168.508,-204.168 172.518,-198.43"/>
</g>
<!-- Node32 -->
<g id="node99" class="node"><title>Node32</title>
<polygon fill="white" stroke="#bfbfbf" points="190.189,-174.5 190.189,-195.5 270.189,-195.5 270.189,-174.5 190.189,-174.5"/>
<text text-anchor="middle" x="230.189" y="-182.5" font-family="DejaVuSans" font-size="10.00">QPushButton</text>
</g>
<!-- Node29&#45;&gt;Node32 -->
<g id="edge134" class="edge"><title>Node29&#45;&gt;Node32</title>
<path fill="none" stroke="midnightblue" d="M230.189,-232.362C230.189,-224.922 230.189,-214.743 230.189,-205.728"/>
<polygon fill="midnightblue" stroke="midnightblue" points="233.689,-205.571 230.189,-195.571 226.689,-205.571 233.689,-205.571"/>
</g>
<!-- Node33 -->
<g id="node101" class="node"><title>Node33</title>
<polygon fill="white" stroke="#bfbfbf" points="288.189,-174.5 288.189,-195.5 350.189,-195.5 350.189,-174.5 288.189,-174.5"/>
<text text-anchor="middle" x="319.189" y="-182.5" font-family="DejaVuSans" font-size="10.00">QLineEdit</text>
</g>
<!-- Node29&#45;&gt;Node33 -->
<g id="edge136" class="edge"><title>Node29&#45;&gt;Node33</title>
<path fill="none" stroke="midnightblue" d="M246.513,-232.362C259.937,-223.614 279.172,-211.079 294.482,-201.101"/>
<polygon fill="midnightblue" stroke="midnightblue" points="296.502,-203.963 302.969,-195.571 292.68,-198.098 296.502,-203.963"/>
</g>
<!-- Node34 -->
<g id="node103" class="node"><title>Node34</title>
<a xlink:href="_trait_dots_8h.html" target="_top" xlink:title="TraitDots.h">
<polygon fill="white" stroke="black" points="368.189,-174.5 368.189,-195.5 436.189,-195.5 436.189,-174.5 368.189,-174.5"/>
<text text-anchor="middle" x="402.189" y="-182.5" font-family="DejaVuSans" font-size="10.00">TraitDots.h</text>
</a>
</g>
<!-- Node29&#45;&gt;Node34 -->
<g id="edge138" class="edge"><title>Node29&#45;&gt;Node34</title>
<path fill="none" stroke="midnightblue" d="M261.337,-232.497C289.378,-223.041 330.771,-209.083 361.435,-198.743"/>
<polygon fill="midnightblue" stroke="midnightblue" points="362.626,-202.035 370.983,-195.523 360.389,-195.402 362.626,-202.035"/>
</g>
<!-- Node36 -->
<g id="node109" class="node"><title>Node36</title>
<polygon fill="white" stroke="#bfbfbf" points="92.1894,-116.5 92.1894,-137.5 148.189,-137.5 148.189,-116.5 92.1894,-116.5"/>
<text text-anchor="middle" x="120.189" y="-124.5" font-family="DejaVuSans" font-size="10.00">QWidget</text>
</g>
<!-- Node29&#45;&gt;Node36 -->
<g id="edge158" class="edge"><title>Node29&#45;&gt;Node36</title>
<path fill="none" stroke="midnightblue" d="M197.643,-240.818C142.87,-236.395 35.9985,-224.278 13.1894,-196 -10.0302,-167.213 42.8116,-146.58 82.2071,-135.74"/>
<polygon fill="midnightblue" stroke="midnightblue" points="83.0981,-139.125 91.8788,-133.196 81.3174,-132.355 83.0981,-139.125"/>
</g>
<!-- Node37 -->
<g id="node111" class="node"><title>Node37</title>
<a xlink:href="_trait_specialties_8h.html" target="_top" xlink:title="TraitSpecialties.h">
<polygon fill="white" stroke="black" points="453.689,-174.5 453.689,-195.5 550.689,-195.5 550.689,-174.5 453.689,-174.5"/>
<text text-anchor="middle" x="502.189" y="-182.5" font-family="DejaVuSans" font-size="10.00">TraitSpecialties.h</text>
</a>
</g>
<!-- Node29&#45;&gt;Node37 -->
<g id="edge148" class="edge"><title>Node29&#45;&gt;Node37</title>
<path fill="none" stroke="midnightblue" d="M262.729,-236.061C307.332,-226.55 388.22,-209.302 443.535,-197.507"/>
<polygon fill="midnightblue" stroke="midnightblue" points="444.501,-200.88 453.551,-195.371 443.041,-194.034 444.501,-200.88"/>
</g>
<!-- Node34&#45;&gt;Node8 -->
<g id="edge142" class="edge"><title>Node34&#45;&gt;Node8</title>
<path fill="none" stroke="midnightblue" d="M436.394,-175.962C439.361,-175.266 442.324,-174.601 445.189,-174 541.73,-153.758 570.58,-169.099 664.189,-138 703.764,-124.852 745.93,-101.113 771.923,-85.2031"/>
<polygon fill="midnightblue" stroke="midnightblue" points="774.085,-87.9801 780.732,-79.7299 770.391,-82.0342 774.085,-87.9801"/>
</g>
<!-- Node34&#45;&gt;Node18 -->
<g id="edge140" class="edge"><title>Node34&#45;&gt;Node18</title>
<path fill="none" stroke="midnightblue" d="M436.323,-175.561C439.306,-174.952 442.291,-174.417 445.189,-174 893.958,-109.504 1020.86,-217.444 1470.52,-137.859"/>
<polygon fill="midnightblue" stroke="midnightblue" points="1471.3,-141.275 1480.52,-136.067 1470.06,-134.385 1471.3,-141.275"/>
</g>
<!-- Node35 -->
<g id="node107" class="node"><title>Node35</title>
<polygon fill="white" stroke="#bfbfbf" points="274.689,-116.5 274.689,-137.5 325.689,-137.5 325.689,-116.5 274.689,-116.5"/>
<text text-anchor="middle" x="300.189" y="-124.5" font-family="DejaVuSans" font-size="10.00">QEvent</text>
</g>
<!-- Node34&#45;&gt;Node35 -->
<g id="edge144" class="edge"><title>Node34&#45;&gt;Node35</title>
<path fill="none" stroke="midnightblue" d="M383.481,-174.362C367.809,-165.45 345.225,-152.609 327.527,-142.545"/>
<polygon fill="midnightblue" stroke="midnightblue" points="329.202,-139.471 318.779,-137.571 325.742,-145.556 329.202,-139.471"/>
</g>
<!-- Node34&#45;&gt;Node36 -->
<g id="edge146" class="edge"><title>Node34&#45;&gt;Node36</title>
<path fill="none" stroke="midnightblue" d="M367.964,-176.06C365.001,-175.342 362.045,-174.646 359.189,-174 288.631,-158.051 205.653,-142.431 158.358,-133.821"/>
<polygon fill="midnightblue" stroke="midnightblue" points="158.725,-130.331 148.261,-131.991 157.476,-137.218 158.725,-130.331"/>
</g>
<!-- Node37&#45;&gt;Node5 -->
<g id="edge150" class="edge"><title>Node37&#45;&gt;Node5</title>
<path fill="none" stroke="midnightblue" d="M500.29,-174.402C498.281,-159.676 496.994,-132.931 510.189,-116 537.944,-80.3855 563.4,-97.0981 605.189,-80 627.66,-70.8064 631.631,-63.8685 655.189,-58 769.92,-29.42 1135.91,-15.8138 1254.04,-12.0895"/>
<polygon fill="midnightblue" stroke="midnightblue" points="1254.48,-15.5777 1264.37,-11.7695 1254.26,-8.58111 1254.48,-15.5777"/>
</g>
<!-- Node37&#45;&gt;Node10 -->
<g id="edge152" class="edge"><title>Node37&#45;&gt;Node10</title>
<path fill="none" stroke="midnightblue" d="M551.042,-178.004C626.949,-167.133 772.733,-146.256 852.216,-134.873"/>
<polygon fill="midnightblue" stroke="midnightblue" points="853.105,-138.281 862.508,-133.399 852.113,-131.352 853.105,-138.281"/>
</g>
<!-- Node38 -->
<g id="node115" class="node"><title>Node38</title>
<a xlink:href="_checked_list_8h.html" target="_top" xlink:title="CheckedList.h">
<polygon fill="white" stroke="black" points="342.689,-116.5 342.689,-137.5 425.689,-137.5 425.689,-116.5 342.689,-116.5"/>
<text text-anchor="middle" x="384.189" y="-124.5" font-family="DejaVuSans" font-size="10.00">CheckedList.h</text>
</a>
</g>
<!-- Node37&#45;&gt;Node38 -->
<g id="edge154" class="edge"><title>Node37&#45;&gt;Node38</title>
<path fill="none" stroke="midnightblue" d="M480.82,-174.497C462.39,-165.438 435.552,-152.246 414.834,-142.063"/>
<polygon fill="midnightblue" stroke="midnightblue" points="416.316,-138.891 405.798,-137.621 413.229,-145.174 416.316,-138.891"/>
</g>
<!-- Node39 -->
<g id="node117" class="node"><title>Node39</title>
<polygon fill="white" stroke="#bfbfbf" points="347.689,-58.5 347.689,-79.5 420.689,-79.5 420.689,-58.5 347.689,-58.5"/>
<text text-anchor="middle" x="384.189" y="-66.5" font-family="DejaVuSans" font-size="10.00">QListWidget</text>
</g>
<!-- Node38&#45;&gt;Node39 -->
<g id="edge156" class="edge"><title>Node38&#45;&gt;Node39</title>
<path fill="none" stroke="midnightblue" d="M384.189,-116.362C384.189,-108.922 384.189,-98.7427 384.189,-89.7276"/>
<polygon fill="midnightblue" stroke="midnightblue" points="387.689,-89.5706 384.189,-79.5707 380.689,-89.5707 387.689,-89.5706"/>
</g>
</g>
</svg>
