<?xml version="1.0" encoding="UTF-8" standalone="no"?>
<!DOCTYPE svg PUBLIC "-//W3C//DTD SVG 1.1//EN"
 "http://www.w3.org/Graphics/SVG/1.1/DTD/svg11.dtd">
<!-- Generated by graphviz version 2.26.3 (20100126.1600)
 -->
<!-- Title: G Pages: 1 -->
<svg width="716pt" height="146pt"
 viewBox="0.00 0.00 716.00 146.00" xmlns="http://www.w3.org/2000/svg" xmlns:xlink="http://www.w3.org/1999/xlink">
<g id="graph1" class="graph" transform="scale(1 1) rotate(0) translate(4 142)">
<title>G</title>
<polygon fill="white" stroke="white" points="-4,5 -4,-142 713,-142 713,5 -4,5"/>
<!-- Node1 -->
<g id="node1" class="node"><title>Node1</title>
<polygon fill="#bfbfbf" stroke="black" points="169.5,-116.5 169.5,-137.5 330.5,-137.5 330.5,-116.5 169.5,-116.5"/>
<text text-anchor="middle" x="250" y="-124.5" font-family="DejaVuSans" font-size="10.00">src/Widgets/CharaSpecies.cpp</text>
</g>
<!-- Node2 -->
<g id="node3" class="node"><title>Node2</title>
<polygon fill="white" stroke="#bfbfbf" points="0,-58.5 0,-79.5 56,-79.5 56,-58.5 0,-58.5"/>
<text text-anchor="middle" x="28" y="-66.5" font-family="DejaVuSans" font-size="10.00">QDebug</text>
</g>
<!-- Node1&#45;&gt;Node2 -->
<g id="edge2" class="edge"><title>Node1&#45;&gt;Node2</title>
<path fill="none" stroke="midnightblue" d="M206.51,-116.475C171.065,-107.779 119.492,-94.8596 65.917,-80.1867"/>
<polygon fill="midnightblue" stroke="midnightblue" points="66.8185,-76.8047 56.2482,-77.5253 64.9607,-83.5537 66.8185,-76.8047"/>
</g>
<!-- Node3 -->
<g id="node5" class="node"><title>Node3</title>
<polygon fill="white" stroke="#bfbfbf" points="73.5,-58.5 73.5,-79.5 222.5,-79.5 222.5,-58.5 73.5,-58.5"/>
<text text-anchor="middle" x="148" y="-66.5" font-family="DejaVuSans" font-size="10.00">Storage/StorageTemplate.h</text>
</g>
<!-- Node1&#45;&gt;Node3 -->
<g id="edge4" class="edge"><title>Node1&#45;&gt;Node3</title>
<path fill="none" stroke="midnightblue" d="M231.292,-116.362C215.619,-107.45 193.036,-94.6087 175.337,-84.5447"/>
<polygon fill="midnightblue" stroke="midnightblue" points="177.013,-81.4712 166.59,-79.5707 173.553,-87.5562 177.013,-81.4712"/>
</g>
<!-- Node4 -->
<g id="node7" class="node"><title>Node4</title>
<polygon fill="white" stroke="#bfbfbf" points="174,-0.5 174,-21.5 326,-21.5 326,-0.5 174,-0.5"/>
<text text-anchor="middle" x="250" y="-8.5" font-family="DejaVuSans" font-size="10.00">Storage/StorageCharacter.h</text>
</g>
<!-- Node1&#45;&gt;Node4 -->
<g id="edge6" class="edge"><title>Node1&#45;&gt;Node4</title>
<path fill="none" stroke="midnightblue" d="M250,-116.295C250,-97.1314 250,-56.654 250,-31.8434"/>
<polygon fill="midnightblue" stroke="midnightblue" points="253.5,-31.6792 250,-21.6792 246.5,-31.6792 253.5,-31.6792"/>
</g>
<!-- Node5 -->
<g id="node9" class="node"><title>Node5</title>
<polygon fill="white" stroke="#bfbfbf" points="277.5,-58.5 277.5,-79.5 404.5,-79.5 404.5,-58.5 277.5,-58.5"/>
<text text-anchor="middle" x="341" y="-66.5" font-family="DejaVuSans" font-size="10.00">Exceptions/Exception.h</text>
</g>
<!-- Node1&#45;&gt;Node5 -->
<g id="edge8" class="edge"><title>Node1&#45;&gt;Node5</title>
<path fill="none" stroke="midnightblue" d="M266.691,-116.362C280.416,-107.614 300.084,-95.0786 315.737,-85.1015"/>
<polygon fill="midnightblue" stroke="midnightblue" points="317.863,-87.8969 324.415,-79.5707 314.101,-81.994 317.863,-87.8969"/>
</g>
<!-- Node6 -->
<g id="node11" class="node"><title>Node6</title>
<a xlink:href="_chara_species_8h.html" target="_top" xlink:title="CharaSpecies.h">
<polygon fill="white" stroke="black" points="422,-58.5 422,-79.5 514,-79.5 514,-58.5 422,-58.5"/>
<text text-anchor="middle" x="468" y="-66.5" font-family="DejaVuSans" font-size="10.00">CharaSpecies.h</text>
</a>
</g>
<!-- Node1&#45;&gt;Node6 -->
<g id="edge10" class="edge"><title>Node1&#45;&gt;Node6</title>
<path fill="none" stroke="midnightblue" d="M289.478,-116.497C325.633,-106.877 379.304,-92.5981 418.353,-82.209"/>
<polygon fill="midnightblue" stroke="midnightblue" points="419.684,-85.4766 428.448,-79.5231 417.884,-78.7119 419.684,-85.4766"/>
</g>
<!-- Node6&#45;&gt;Node4 -->
<g id="edge12" class="edge"><title>Node6&#45;&gt;Node4</title>
<path fill="none" stroke="midnightblue" d="M428.522,-58.4966C392.367,-48.8773 338.696,-34.5981 299.647,-24.209"/>
<polygon fill="midnightblue" stroke="midnightblue" points="300.116,-20.7119 289.552,-21.5231 298.316,-27.4766 300.116,-20.7119"/>
</g>
<!-- Node7 -->
<g id="node14" class="node"><title>Node7</title>
<polygon fill="white" stroke="#bfbfbf" points="343.5,-0.5 343.5,-21.5 456.5,-21.5 456.5,-0.5 343.5,-0.5"/>
<text text-anchor="middle" x="400" y="-8.5" font-family="DejaVuSans" font-size="10.00">Datatypes/cv_Trait.h</text>
</g>
<!-- Node6&#45;&gt;Node7 -->
<g id="edge14" class="edge"><title>Node6&#45;&gt;Node7</title>
<path fill="none" stroke="midnightblue" d="M455.528,-58.3619C445.655,-49.9408 431.667,-38.0105 420.202,-28.2308"/>
<polygon fill="midnightblue" stroke="midnightblue" points="422.273,-25.3972 412.393,-21.5707 417.73,-30.7231 422.273,-25.3972"/>
</g>
<!-- Node8 -->
<g id="node16" class="node"><title>Node8</title>
<polygon fill="white" stroke="#bfbfbf" points="473.5,-0.5 473.5,-21.5 614.5,-21.5 614.5,-0.5 473.5,-0.5"/>
<text text-anchor="middle" x="544" y="-8.5" font-family="DejaVuSans" font-size="10.00">Datatypes/cv_TraitDetail.h</text>
</g>
<!-- Node6&#45;&gt;Node8 -->
<g id="edge16" class="edge"><title>Node6&#45;&gt;Node8</title>
<path fill="none" stroke="midnightblue" d="M481.94,-58.3619C493.188,-49.7773 509.216,-37.5459 522.165,-27.6636"/>
<polygon fill="midnightblue" stroke="midnightblue" points="524.323,-30.4198 530.149,-21.5707 520.076,-24.8551 524.323,-30.4198"/>
</g>
<!-- Node9 -->
<g id="node18" class="node"><title>Node9</title>
<polygon fill="white" stroke="#bfbfbf" points="631.5,-0.5 631.5,-21.5 708.5,-21.5 708.5,-0.5 631.5,-0.5"/>
<text text-anchor="middle" x="670" y="-8.5" font-family="DejaVuSans" font-size="10.00">QComboBox</text>
</g>
<!-- Node6&#45;&gt;Node9 -->
<g id="edge18" class="edge"><title>Node6&#45;&gt;Node9</title>
<path fill="none" stroke="midnightblue" d="M504.581,-58.4966C537.94,-48.9183 587.39,-34.7196 623.534,-24.3418"/>
<polygon fill="midnightblue" stroke="midnightblue" points="624.705,-27.647 633.351,-21.5231 622.773,-20.9188 624.705,-27.647"/>
</g>
</g>
</svg>
