<?xml version="1.0" encoding="UTF-8" standalone="no"?>
<!DOCTYPE svg PUBLIC "-//W3C//DTD SVG 1.1//EN"
 "http://www.w3.org/Graphics/SVG/1.1/DTD/svg11.dtd">
<!-- Generated by graphviz version 2.26.3 (20100126.1600)
 -->
<!-- Title: G Pages: 1 -->
<svg width="542pt" height="88pt"
 viewBox="0.00 0.00 542.00 88.00" xmlns="http://www.w3.org/2000/svg" xmlns:xlink="http://www.w3.org/1999/xlink">
<g id="graph1" class="graph" transform="scale(1 1) rotate(0) translate(4 84)">
<title>G</title>
<polygon fill="white" stroke="white" points="-4,5 -4,-84 539,-84 539,5 -4,5"/>
<!-- Node1 -->
<g id="node1" class="node"><title>Node1</title>
<polygon fill="#bfbfbf" stroke="black" points="223.5,-58.5 223.5,-79.5 372.5,-79.5 372.5,-58.5 223.5,-58.5"/>
<text text-anchor="middle" x="298" y="-66.5" font-family="DejaVuSans" font-size="10.00">src/Widgets/CharaSpecies.h</text>
</g>
<!-- Node2 -->
<g id="node3" class="node"><title>Node2</title>
<polygon fill="white" stroke="#bfbfbf" points="0,-0.5 0,-21.5 152,-21.5 152,-0.5 0,-0.5"/>
<text text-anchor="middle" x="76" y="-8.5" font-family="DejaVuSans" font-size="10.00">Storage/StorageCharacter.h</text>
</g>
<!-- Node1&#45;&gt;Node2 -->
<g id="edge2" class="edge"><title>Node1&#45;&gt;Node2</title>
<path fill="none" stroke="midnightblue" d="M257.797,-58.4966C220.822,-48.8364 165.858,-34.4765 126.052,-24.0765"/>
<polygon fill="midnightblue" stroke="midnightblue" points="126.838,-20.6646 116.278,-21.5231 125.068,-27.4372 126.838,-20.6646"/>
</g>
<!-- Node3 -->
<g id="node5" class="node"><title>Node3</title>
<polygon fill="white" stroke="#bfbfbf" points="169.5,-0.5 169.5,-21.5 282.5,-21.5 282.5,-0.5 169.5,-0.5"/>
<text text-anchor="middle" x="226" y="-8.5" font-family="DejaVuSans" font-size="10.00">Datatypes/cv_Trait.h</text>
</g>
<!-- Node1&#45;&gt;Node3 -->
<g id="edge4" class="edge"><title>Node1&#45;&gt;Node3</title>
<path fill="none" stroke="midnightblue" d="M284.794,-58.3619C274.239,-49.859 259.242,-37.7785 247.037,-27.9466"/>
<polygon fill="midnightblue" stroke="midnightblue" points="249.105,-25.1183 239.122,-21.5707 244.714,-30.5696 249.105,-25.1183"/>
</g>
<!-- Node4 -->
<g id="node7" class="node"><title>Node4</title>
<polygon fill="white" stroke="#bfbfbf" points="299.5,-0.5 299.5,-21.5 440.5,-21.5 440.5,-0.5 299.5,-0.5"/>
<text text-anchor="middle" x="370" y="-8.5" font-family="DejaVuSans" font-size="10.00">Datatypes/cv_TraitDetail.h</text>
</g>
<!-- Node1&#45;&gt;Node4 -->
<g id="edge6" class="edge"><title>Node1&#45;&gt;Node4</title>
<path fill="none" stroke="midnightblue" d="M311.206,-58.3619C321.761,-49.859 336.758,-37.7785 348.963,-27.9466"/>
<polygon fill="midnightblue" stroke="midnightblue" points="351.286,-30.5696 356.878,-21.5707 346.895,-25.1183 351.286,-30.5696"/>
</g>
<!-- Node5 -->
<g id="node9" class="node"><title>Node5</title>
<polygon fill="white" stroke="#bfbfbf" points="457.5,-0.5 457.5,-21.5 534.5,-21.5 534.5,-0.5 457.5,-0.5"/>
<text text-anchor="middle" x="496" y="-8.5" font-family="DejaVuSans" font-size="10.00">QComboBox</text>
</g>
<!-- Node1&#45;&gt;Node5 -->
<g id="edge8" class="edge"><title>Node1&#45;&gt;Node5</title>
<path fill="none" stroke="midnightblue" d="M333.856,-58.4966C366.555,-48.9183 415.026,-34.7196 450.454,-24.3418"/>
<polygon fill="midnightblue" stroke="midnightblue" points="451.464,-27.6932 460.076,-21.5231 449.496,-20.9754 451.464,-27.6932"/>
</g>
</g>
</svg>
