<?xml version="1.0" encoding="UTF-8" standalone="no"?>
<!DOCTYPE svg PUBLIC "-//W3C//DTD SVG 1.1//EN"
 "http://www.w3.org/Graphics/SVG/1.1/DTD/svg11.dtd">
<!-- Generated by graphviz version 2.26.3 (20100126.1600)
 -->
<!-- Title: G Pages: 1 -->
<svg width="254pt" height="88pt"
 viewBox="0.00 0.00 254.00 88.00" xmlns="http://www.w3.org/2000/svg" xmlns:xlink="http://www.w3.org/1999/xlink">
<g id="graph1" class="graph" transform="scale(1 1) rotate(0) translate(4 84)">
<title>G</title>
<polygon fill="white" stroke="white" points="-4,5 -4,-84 251,-84 251,5 -4,5"/>
<!-- Node1 -->
<g id="node1" class="node"><title>Node1</title>
<polygon fill="#bfbfbf" stroke="black" points="67.5,-58.5 67.5,-79.5 216.5,-79.5 216.5,-58.5 67.5,-58.5"/>
<text text-anchor="middle" x="142" y="-66.5" font-family="DejaVuSans" font-size="10.00">src/Widgets/CharaSpecies.h</text>
</g>
<!-- Node2 -->
<g id="node3" class="node"><title>Node2</title>
<polygon fill="white" stroke="#bfbfbf" points="0,-0.5 0,-21.5 152,-21.5 152,-0.5 0,-0.5"/>
<text text-anchor="middle" x="76" y="-8.5" font-family="DejaVuSans" font-size="10.00">Storage/StorageCharacter.h</text>
</g>
<!-- Node1&#45;&gt;Node2 -->
<g id="edge2" class="edge"><title>Node1&#45;&gt;Node2</title>
<path fill="none" stroke="midnightblue" d="M129.895,-58.3619C120.312,-49.9408 106.736,-38.0105 95.6074,-28.2308"/>
<polygon fill="midnightblue" stroke="midnightblue" points="97.8508,-25.5427 88.0287,-21.5707 93.2299,-30.8009 97.8508,-25.5427"/>
</g>
<!-- Node3 -->
<g id="node5" class="node"><title>Node3</title>
<polygon fill="white" stroke="#bfbfbf" points="169.5,-0.5 169.5,-21.5 246.5,-21.5 246.5,-0.5 169.5,-0.5"/>
<text text-anchor="middle" x="208" y="-8.5" font-family="DejaVuSans" font-size="10.00">QComboBox</text>
</g>
<!-- Node1&#45;&gt;Node3 -->
<g id="edge4" class="edge"><title>Node1&#45;&gt;Node3</title>
<path fill="none" stroke="midnightblue" d="M154.105,-58.3619C163.688,-49.9408 177.264,-38.0105 188.393,-28.2308"/>
<polygon fill="midnightblue" stroke="midnightblue" points="190.77,-30.8009 195.971,-21.5707 186.149,-25.5427 190.77,-30.8009"/>
</g>
</g>
</svg>
