<?xml version="1.0" encoding="UTF-8" standalone="no"?>
<!DOCTYPE svg PUBLIC "-//W3C//DTD SVG 1.1//EN"
 "http://www.w3.org/Graphics/SVG/1.1/DTD/svg11.dtd">
<!-- Generated by graphviz version 2.26.3 (20100126.1600)
 -->
<!-- Title: G Pages: 1 -->
<svg width="1034pt" height="262pt"
 viewBox="0.00 0.00 1034.00 262.00" xmlns="http://www.w3.org/2000/svg" xmlns:xlink="http://www.w3.org/1999/xlink">
<g id="graph1" class="graph" transform="scale(1 1) rotate(0) translate(4 258)">
<title>G</title>
<polygon fill="white" stroke="white" points="-4,5 -4,-258 1031,-258 1031,5 -4,5"/>
<!-- Node1 -->
<g id="node1" class="node"><title>Node1</title>
<polygon fill="#bfbfbf" stroke="black" points="202.5,-232.5 202.5,-253.5 333.5,-253.5 333.5,-232.5 202.5,-232.5"/>
<text text-anchor="middle" x="268" y="-240.5" font-family="DejaVuSans" font-size="10.00">src/Widgets/CharaTrait.h</text>
</g>
<!-- Node2 -->
<g id="node3" class="node"><title>Node2</title>
<polygon fill="white" stroke="#bfbfbf" points="0,-174.5 0,-195.5 152,-195.5 152,-174.5 0,-174.5"/>
<text text-anchor="middle" x="76" y="-182.5" font-family="DejaVuSans" font-size="10.00">Storage/StorageCharacter.h</text>
</g>
<!-- Node1&#45;&gt;Node2 -->
<g id="edge2" class="edge"><title>Node1&#45;&gt;Node2</title>
<path fill="none" stroke="midnightblue" d="M233.23,-232.497C201.658,-222.959 154.921,-208.841 120.607,-198.475"/>
<polygon fill="midnightblue" stroke="midnightblue" points="121.42,-195.064 110.835,-195.523 119.396,-201.765 121.42,-195.064"/>
</g>
<!-- Node3 -->
<g id="node5" class="node"><title>Node3</title>
<polygon fill="white" stroke="#bfbfbf" points="169.5,-174.5 169.5,-195.5 282.5,-195.5 282.5,-174.5 169.5,-174.5"/>
<text text-anchor="middle" x="226" y="-182.5" font-family="DejaVuSans" font-size="10.00">Datatypes/cv_Trait.h</text>
</g>
<!-- Node1&#45;&gt;Node3 -->
<g id="edge4" class="edge"><title>Node1&#45;&gt;Node3</title>
<path fill="none" stroke="midnightblue" d="M260.297,-232.362C254.554,-224.431 246.557,-213.389 239.73,-203.961"/>
<polygon fill="midnightblue" stroke="midnightblue" points="242.355,-201.617 233.655,-195.571 236.685,-205.723 242.355,-201.617"/>
</g>
<!-- Node4 -->
<g id="node7" class="node"><title>Node4</title>
<polygon fill="white" stroke="#bfbfbf" points="220.5,-58.5 220.5,-79.5 361.5,-79.5 361.5,-58.5 220.5,-58.5"/>
<text text-anchor="middle" x="291" y="-66.5" font-family="DejaVuSans" font-size="10.00">Datatypes/cv_TraitDetail.h</text>
</g>
<!-- Node1&#45;&gt;Node4 -->
<g id="edge6" class="edge"><title>Node1&#45;&gt;Node4</title>
<path fill="none" stroke="midnightblue" d="M274.983,-232.327C280.558,-223.13 287.926,-209.275 291,-196 299.492,-159.326 296.657,-115.081 293.826,-89.6758"/>
<polygon fill="midnightblue" stroke="midnightblue" points="297.297,-89.2208 292.607,-79.7207 290.349,-90.0722 297.297,-89.2208"/>
</g>
<!-- Node5 -->
<g id="node9" class="node"><title>Node5</title>
<a xlink:href="_trait_line_8h.html" target="_top" xlink:title="TraitLine.h">
<polygon fill="white" stroke="black" points="639.5,-174.5 639.5,-195.5 704.5,-195.5 704.5,-174.5 639.5,-174.5"/>
<text text-anchor="middle" x="672" y="-182.5" font-family="DejaVuSans" font-size="10.00">TraitLine.h</text>
</a>
</g>
<!-- Node1&#45;&gt;Node5 -->
<g id="edge8" class="edge"><title>Node1&#45;&gt;Node5</title>
<path fill="none" stroke="midnightblue" d="M333.809,-233.552C417.176,-221.584 558.475,-201.298 629.117,-191.157"/>
<polygon fill="midnightblue" stroke="midnightblue" points="630.019,-194.563 639.42,-189.677 629.024,-187.634 630.019,-194.563"/>
</g>
<!-- Node6 -->
<g id="node11" class="node"><title>Node6</title>
<polygon fill="white" stroke="#bfbfbf" points="460.5,-116.5 460.5,-137.5 529.5,-137.5 529.5,-116.5 460.5,-116.5"/>
<text text-anchor="middle" x="495" y="-124.5" font-family="DejaVuSans" font-size="10.00">QStringList</text>
</g>
<!-- Node5&#45;&gt;Node6 -->
<g id="edge10" class="edge"><title>Node5&#45;&gt;Node6</title>
<path fill="none" stroke="midnightblue" d="M639.947,-174.497C611.091,-165.041 568.494,-151.083 536.939,-140.743"/>
<polygon fill="midnightblue" stroke="midnightblue" points="537.706,-137.311 527.113,-137.523 535.526,-143.963 537.706,-137.311"/>
</g>
<!-- Node7 -->
<g id="node13" class="node"><title>Node7</title>
<polygon fill="white" stroke="#bfbfbf" points="547,-116.5 547,-137.5 629,-137.5 629,-116.5 547,-116.5"/>
<text text-anchor="middle" x="588" y="-124.5" font-family="DejaVuSans" font-size="10.00">QHBoxLayout</text>
</g>
<!-- Node5&#45;&gt;Node7 -->
<g id="edge12" class="edge"><title>Node5&#45;&gt;Node7</title>
<path fill="none" stroke="midnightblue" d="M656.593,-174.362C644.042,-165.696 626.108,-153.313 611.725,-143.382"/>
<polygon fill="midnightblue" stroke="midnightblue" points="613.527,-140.372 603.309,-137.571 609.55,-146.133 613.527,-140.372"/>
</g>
<!-- Node8 -->
<g id="node15" class="node"><title>Node8</title>
<polygon fill="white" stroke="#bfbfbf" points="647,-116.5 647,-137.5 697,-137.5 697,-116.5 647,-116.5"/>
<text text-anchor="middle" x="672" y="-124.5" font-family="DejaVuSans" font-size="10.00">QLabel</text>
</g>
<!-- Node5&#45;&gt;Node8 -->
<g id="edge14" class="edge"><title>Node5&#45;&gt;Node8</title>
<path fill="none" stroke="midnightblue" d="M672,-174.362C672,-166.922 672,-156.743 672,-147.728"/>
<polygon fill="midnightblue" stroke="midnightblue" points="675.5,-147.571 672,-137.571 668.5,-147.571 675.5,-147.571"/>
</g>
<!-- Node9 -->
<g id="node17" class="node"><title>Node9</title>
<polygon fill="white" stroke="#bfbfbf" points="715,-116.5 715,-137.5 795,-137.5 795,-116.5 715,-116.5"/>
<text text-anchor="middle" x="755" y="-124.5" font-family="DejaVuSans" font-size="10.00">QPushButton</text>
</g>
<!-- Node5&#45;&gt;Node9 -->
<g id="edge16" class="edge"><title>Node5&#45;&gt;Node9</title>
<path fill="none" stroke="midnightblue" d="M687.223,-174.362C699.625,-165.696 717.346,-153.313 731.557,-143.382"/>
<polygon fill="midnightblue" stroke="midnightblue" points="733.681,-146.168 739.873,-137.571 729.671,-140.43 733.681,-146.168"/>
</g>
<!-- Node10 -->
<g id="node19" class="node"><title>Node10</title>
<polygon fill="white" stroke="#bfbfbf" points="813,-116.5 813,-137.5 875,-137.5 875,-116.5 813,-116.5"/>
<text text-anchor="middle" x="844" y="-124.5" font-family="DejaVuSans" font-size="10.00">QLineEdit</text>
</g>
<!-- Node5&#45;&gt;Node10 -->
<g id="edge18" class="edge"><title>Node5&#45;&gt;Node10</title>
<path fill="none" stroke="midnightblue" d="M703.148,-174.497C731.189,-165.041 772.582,-151.083 803.245,-140.743"/>
<polygon fill="midnightblue" stroke="midnightblue" points="804.436,-144.035 812.794,-137.523 802.2,-137.402 804.436,-144.035"/>
</g>
<!-- Node11 -->
<g id="node21" class="node"><title>Node11</title>
<a xlink:href="_trait_dots_8h.html" target="_top" xlink:title="TraitDots.h">
<polygon fill="white" stroke="black" points="893,-116.5 893,-137.5 961,-137.5 961,-116.5 893,-116.5"/>
<text text-anchor="middle" x="927" y="-124.5" font-family="DejaVuSans" font-size="10.00">TraitDots.h</text>
</a>
</g>
<!-- Node5&#45;&gt;Node11 -->
<g id="edge20" class="edge"><title>Node5&#45;&gt;Node11</title>
<path fill="none" stroke="midnightblue" d="M704.761,-178.08C744.524,-169.606 813.855,-154.591 882.619,-138.281"/>
<polygon fill="midnightblue" stroke="midnightblue" points="883.841,-141.588 892.757,-135.866 882.218,-134.779 883.841,-141.588"/>
</g>
<!-- Node15 -->
<g id="node29" class="node"><title>Node15</title>
<polygon fill="white" stroke="#bfbfbf" points="970,-58.5 970,-79.5 1026,-79.5 1026,-58.5 970,-58.5"/>
<text text-anchor="middle" x="998" y="-66.5" font-family="DejaVuSans" font-size="10.00">QWidget</text>
</g>
<!-- Node5&#45;&gt;Node15 -->
<g id="edge40" class="edge"><title>Node5&#45;&gt;Node15</title>
<path fill="none" stroke="midnightblue" d="M704.704,-183.819C773.331,-180.722 929.385,-170.234 970,-138 984.892,-126.181 991.914,-105.17 995.194,-89.4294"/>
<polygon fill="midnightblue" stroke="midnightblue" points="998.647,-90.004 996.918,-79.5512 991.751,-88.8007 998.647,-90.004"/>
</g>
<!-- Node16 -->
<g id="node31" class="node"><title>Node16</title>
<a xlink:href="_trait_specialties_8h.html" target="_top" xlink:title="TraitSpecialties.h">
<polygon fill="white" stroke="black" points="346.5,-116.5 346.5,-137.5 443.5,-137.5 443.5,-116.5 346.5,-116.5"/>
<text text-anchor="middle" x="395" y="-124.5" font-family="DejaVuSans" font-size="10.00">TraitSpecialties.h</text>
</a>
</g>
<!-- Node5&#45;&gt;Node16 -->
<g id="edge30" class="edge"><title>Node5&#45;&gt;Node16</title>
<path fill="none" stroke="midnightblue" d="M639.41,-178.176C593.81,-168.628 510.215,-151.124 453.634,-139.277"/>
<polygon fill="midnightblue" stroke="midnightblue" points="454.254,-135.831 443.749,-137.207 452.819,-142.683 454.254,-135.831"/>
</g>
<!-- Node12 -->
<g id="node23" class="node"><title>Node12</title>
<polygon fill="white" stroke="#bfbfbf" points="777.5,-58.5 777.5,-79.5 826.5,-79.5 826.5,-58.5 777.5,-58.5"/>
<text text-anchor="middle" x="802" y="-66.5" font-family="DejaVuSans" font-size="10.00">QColor</text>
</g>
<!-- Node11&#45;&gt;Node12 -->
<g id="edge22" class="edge"><title>Node11&#45;&gt;Node12</title>
<path fill="none" stroke="midnightblue" d="M904.363,-116.497C884.752,-107.397 856.154,-94.1273 834.167,-83.9253"/>
<polygon fill="midnightblue" stroke="midnightblue" points="835.435,-80.6554 824.891,-79.6212 832.488,-87.0051 835.435,-80.6554"/>
</g>
<!-- Node13 -->
<g id="node25" class="node"><title>Node13</title>
<polygon fill="white" stroke="#bfbfbf" points="843.5,-58.5 843.5,-79.5 884.5,-79.5 884.5,-58.5 843.5,-58.5"/>
<text text-anchor="middle" x="864" y="-66.5" font-family="DejaVuSans" font-size="10.00">QList</text>
</g>
<!-- Node11&#45;&gt;Node13 -->
<g id="edge24" class="edge"><title>Node11&#45;&gt;Node13</title>
<path fill="none" stroke="midnightblue" d="M915.445,-116.362C906.387,-108.023 893.59,-96.2418 883.026,-86.5162"/>
<polygon fill="midnightblue" stroke="midnightblue" points="885.21,-83.7688 875.482,-79.5707 880.468,-88.9187 885.21,-83.7688"/>
</g>
<!-- Node14 -->
<g id="node27" class="node"><title>Node14</title>
<polygon fill="white" stroke="#bfbfbf" points="901.5,-58.5 901.5,-79.5 952.5,-79.5 952.5,-58.5 901.5,-58.5"/>
<text text-anchor="middle" x="927" y="-66.5" font-family="DejaVuSans" font-size="10.00">QEvent</text>
</g>
<!-- Node11&#45;&gt;Node14 -->
<g id="edge26" class="edge"><title>Node11&#45;&gt;Node14</title>
<path fill="none" stroke="midnightblue" d="M927,-116.362C927,-108.922 927,-98.7427 927,-89.7276"/>
<polygon fill="midnightblue" stroke="midnightblue" points="930.5,-89.5706 927,-79.5707 923.5,-89.5707 930.5,-89.5706"/>
</g>
<!-- Node11&#45;&gt;Node15 -->
<g id="edge28" class="edge"><title>Node11&#45;&gt;Node15</title>
<path fill="none" stroke="midnightblue" d="M940.022,-116.362C950.431,-107.859 965.219,-95.7785 977.255,-85.9466"/>
<polygon fill="midnightblue" stroke="midnightblue" points="979.53,-88.6077 985.06,-79.5707 975.101,-83.1866 979.53,-88.6077"/>
</g>
<!-- Node16&#45;&gt;Node4 -->
<g id="edge34" class="edge"><title>Node16&#45;&gt;Node4</title>
<path fill="none" stroke="midnightblue" d="M375.925,-116.362C359.945,-107.45 336.919,-94.6087 318.873,-84.5447"/>
<polygon fill="midnightblue" stroke="midnightblue" points="320.393,-81.3846 309.954,-79.5707 316.983,-87.4982 320.393,-81.3846"/>
</g>
<!-- Node17 -->
<g id="node33" class="node"><title>Node17</title>
<polygon fill="white" stroke="#bfbfbf" points="378.5,-58.5 378.5,-79.5 431.5,-79.5 431.5,-58.5 378.5,-58.5"/>
<text text-anchor="middle" x="405" y="-66.5" font-family="DejaVuSans" font-size="10.00">QString</text>
</g>
<!-- Node16&#45;&gt;Node17 -->
<g id="edge32" class="edge"><title>Node16&#45;&gt;Node17</title>
<path fill="none" stroke="midnightblue" d="M396.834,-116.362C398.131,-108.84 399.911,-98.5187 401.477,-89.4308"/>
<polygon fill="midnightblue" stroke="midnightblue" points="404.927,-90.02 403.177,-79.5707 398.029,-88.8306 404.927,-90.02"/>
</g>
<!-- Node18 -->
<g id="node36" class="node"><title>Node18</title>
<a xlink:href="_checked_list_8h.html" target="_top" xlink:title="CheckedList.h">
<polygon fill="white" stroke="black" points="448.5,-58.5 448.5,-79.5 531.5,-79.5 531.5,-58.5 448.5,-58.5"/>
<text text-anchor="middle" x="490" y="-66.5" font-family="DejaVuSans" font-size="10.00">CheckedList.h</text>
</a>
</g>
<!-- Node16&#45;&gt;Node18 -->
<g id="edge36" class="edge"><title>Node16&#45;&gt;Node18</title>
<path fill="none" stroke="midnightblue" d="M412.424,-116.362C426.887,-107.532 447.669,-94.844 464.084,-84.8224"/>
<polygon fill="midnightblue" stroke="midnightblue" points="465.975,-87.7688 472.686,-79.5707 462.327,-81.7943 465.975,-87.7688"/>
</g>
<!-- Node19 -->
<g id="node38" class="node"><title>Node19</title>
<polygon fill="white" stroke="#bfbfbf" points="453.5,-0.5 453.5,-21.5 526.5,-21.5 526.5,-0.5 453.5,-0.5"/>
<text text-anchor="middle" x="490" y="-8.5" font-family="DejaVuSans" font-size="10.00">QListWidget</text>
</g>
<!-- Node18&#45;&gt;Node19 -->
<g id="edge38" class="edge"><title>Node18&#45;&gt;Node19</title>
<path fill="none" stroke="midnightblue" d="M490,-58.3619C490,-50.9219 490,-40.7427 490,-31.7276"/>
<polygon fill="midnightblue" stroke="midnightblue" points="493.5,-31.5706 490,-21.5707 486.5,-31.5707 493.5,-31.5706"/>
</g>
</g>
</svg>
