<?xml version="1.0" encoding="UTF-8" standalone="no"?>
<!DOCTYPE svg PUBLIC "-//W3C//DTD SVG 1.1//EN"
 "http://www.w3.org/Graphics/SVG/1.1/DTD/svg11.dtd">
<!-- Generated by graphviz version 2.26.3 (20100126.1600)
 -->
<!-- Title: G Pages: 1 -->
<svg width="345pt" height="146pt"
 viewBox="0.00 0.00 345.00 146.00" xmlns="http://www.w3.org/2000/svg" xmlns:xlink="http://www.w3.org/1999/xlink">
<g id="graph1" class="graph" transform="scale(1 1) rotate(0) translate(4 142)">
<title>G</title>
<polygon fill="white" stroke="white" points="-4,5 -4,-142 342,-142 342,5 -4,5"/>
<!-- Node1 -->
<g id="node1" class="node"><title>Node1</title>
<polygon fill="#bfbfbf" stroke="black" points="90,-116.5 90,-137.5 254,-137.5 254,-116.5 90,-116.5"/>
<text text-anchor="middle" x="172" y="-124.5" font-family="DejaVuSans" font-size="10.00">src/Widgets/CharaSpecialties.h</text>
</g>
<!-- Node2 -->
<g id="node3" class="node"><title>Node2</title>
<a xlink:href="_main_window_8h.html" target="_top" xlink:title="src/MainWindow.h">
<polygon fill="white" stroke="black" points="45,-58.5 45,-79.5 145,-79.5 145,-58.5 45,-58.5"/>
<text text-anchor="middle" x="95" y="-66.5" font-family="DejaVuSans" font-size="10.00">src/MainWindow.h</text>
</a>
</g>
<!-- Node1&#45;&gt;Node2 -->
<g id="edge2" class="edge"><title>Node1&#45;&gt;Node2</title>
<path fill="none" stroke="midnightblue" d="M149.774,-110.259C136.639,-100.364 120.405,-88.1361 109.033,-79.5707"/>
<polygon fill="midnightblue" stroke="midnightblue" points="147.784,-113.141 157.877,-116.362 151.995,-107.55 147.784,-113.141"/>
</g>
<!-- Node5 -->
<g id="node9" class="node"><title>Node5</title>
<a xlink:href="_chara_specialties_8cpp.html" target="_top" xlink:title="src/Widgets/CharaSpecialties.cpp">
<polygon fill="white" stroke="black" points="162.5,-58.5 162.5,-79.5 337.5,-79.5 337.5,-58.5 162.5,-58.5"/>
<text text-anchor="middle" x="250" y="-66.5" font-family="DejaVuSans" font-size="10.00">src/Widgets/CharaSpecialties.cpp</text>
</a>
</g>
<!-- Node1&#45;&gt;Node5 -->
<g id="edge8" class="edge"><title>Node1&#45;&gt;Node5</title>
<path fill="none" stroke="midnightblue" d="M194.514,-110.259C207.821,-100.364 224.265,-88.1361 235.784,-79.5707"/>
<polygon fill="midnightblue" stroke="midnightblue" points="192.243,-107.586 186.306,-116.362 196.42,-113.203 192.243,-107.586"/>
</g>
<!-- Node3 -->
<g id="node5" class="node"><title>Node3</title>
<a xlink:href="main_8cpp.html" target="_top" xlink:title="src/main.cpp">
<polygon fill="white" stroke="black" points="0,-0.5 0,-21.5 78,-21.5 78,-0.5 0,-0.5"/>
<text text-anchor="middle" x="39" y="-8.5" font-family="DejaVuSans" font-size="10.00">src/main.cpp</text>
</a>
</g>
<!-- Node2&#45;&gt;Node3 -->
<g id="edge4" class="edge"><title>Node2&#45;&gt;Node3</title>
<path fill="none" stroke="midnightblue" d="M77.7346,-51.118C68.3882,-41.4377 57.1612,-29.8098 49.2061,-21.5707"/>
<polygon fill="midnightblue" stroke="midnightblue" points="75.2648,-53.599 84.7287,-58.3619 80.3007,-48.7368 75.2648,-53.599"/>
</g>
<!-- Node4 -->
<g id="node7" class="node"><title>Node4</title>
<a xlink:href="_main_window_8cpp.html" target="_top" xlink:title="src/MainWindow.cpp">
<polygon fill="white" stroke="black" points="95.5,-0.5 95.5,-21.5 206.5,-21.5 206.5,-0.5 95.5,-0.5"/>
<text text-anchor="middle" x="151" y="-8.5" font-family="DejaVuSans" font-size="10.00">src/MainWindow.cpp</text>
</a>
</g>
<!-- Node2&#45;&gt;Node4 -->
<g id="edge6" class="edge"><title>Node2&#45;&gt;Node4</title>
<path fill="none" stroke="midnightblue" d="M112.265,-51.118C121.612,-41.4377 132.839,-29.8098 140.794,-21.5707"/>
<polygon fill="midnightblue" stroke="midnightblue" points="109.699,-48.7368 105.271,-58.3619 114.735,-53.599 109.699,-48.7368"/>
</g>
</g>
</svg>
