<?xml version="1.0" encoding="UTF-8" standalone="no"?>
<!DOCTYPE svg PUBLIC "-//W3C//DTD SVG 1.1//EN"
 "http://www.w3.org/Graphics/SVG/1.1/DTD/svg11.dtd">
<!-- Generated by graphviz version 2.26.3 (20100126.1600)
 -->
<!-- Title: G Pages: 1 -->
<svg width="1198pt" height="436pt"
 viewBox="0.00 0.00 1198.25 436.00" xmlns="http://www.w3.org/2000/svg" xmlns:xlink="http://www.w3.org/1999/xlink">
<g id="graph1" class="graph" transform="scale(1 1) rotate(0) translate(4 432)">
<title>G</title>
<polygon fill="white" stroke="white" points="-4,5 -4,-432 1195.25,-432 1195.25,5 -4,5"/>
<!-- Node1 -->
<g id="node1" class="node"><title>Node1</title>
<polygon fill="#bfbfbf" stroke="black" points="585.435,-406.5 585.435,-427.5 746.435,-427.5 746.435,-406.5 585.435,-406.5"/>
<text text-anchor="middle" x="665.935" y="-414.5" font-family="DejaVuSans" font-size="10.00">src/Widgets/CharaSpecies.cpp</text>
</g>
<!-- Node2 -->
<g id="node3" class="node"><title>Node2</title>
<polygon fill="white" stroke="#bfbfbf" points="472.935,-348.5 472.935,-369.5 528.935,-369.5 528.935,-348.5 472.935,-348.5"/>
<text text-anchor="middle" x="500.935" y="-356.5" font-family="DejaVuSans" font-size="10.00">QDebug</text>
</g>
<!-- Node1&#45;&gt;Node2 -->
<g id="edge2" class="edge"><title>Node1&#45;&gt;Node2</title>
<path fill="none" stroke="midnightblue" d="M636.055,-406.497C608.688,-396.877 568.063,-382.596 538.507,-372.207"/>
<polygon fill="midnightblue" stroke="midnightblue" points="539.538,-368.859 528.943,-368.845 537.216,-375.463 539.538,-368.859"/>
</g>
<!-- Node3 -->
<g id="node5" class="node"><title>Node3</title>
<a xlink:href="_storage_template_8h.html" target="_top" xlink:title="../Storage/StorageTemplate.h">
<polygon fill="white" stroke="black" points="863.935,-232.5 863.935,-253.5 1021.94,-253.5 1021.94,-232.5 863.935,-232.5"/>
<text text-anchor="middle" x="942.935" y="-240.5" font-family="DejaVuSans" font-size="10.00">../Storage/StorageTemplate.h</text>
</a>
</g>
<!-- Node1&#45;&gt;Node3 -->
<g id="edge4" class="edge"><title>Node1&#45;&gt;Node3</title>
<path fill="none" stroke="midnightblue" d="M734.042,-406.483C792.501,-393.923 874.868,-367.217 923.935,-312 935.642,-298.826 940.209,-279.068 941.954,-264.066"/>
<polygon fill="midnightblue" stroke="midnightblue" points="945.475,-263.963 942.81,-253.709 938.498,-263.387 945.475,-263.963"/>
</g>
<!-- Node17 -->
<g id="node49" class="node"><title>Node17</title>
<a xlink:href="_storage_character_8h.html" target="_top" xlink:title="../Storage/StorageCharacter.h">
<polygon fill="white" stroke="black" points="754.435,-290.5 754.435,-311.5 915.435,-311.5 915.435,-290.5 754.435,-290.5"/>
<text text-anchor="middle" x="834.935" y="-298.5" font-family="DejaVuSans" font-size="10.00">../Storage/StorageCharacter.h</text>
</a>
</g>
<!-- Node1&#45;&gt;Node17 -->
<g id="edge64" class="edge"><title>Node1&#45;&gt;Node17</title>
<path fill="none" stroke="midnightblue" d="M681.532,-406.295C711.212,-385.923 775.984,-341.464 811.121,-317.346"/>
<polygon fill="midnightblue" stroke="midnightblue" points="813.113,-320.224 819.377,-311.679 809.152,-314.453 813.113,-320.224"/>
</g>
<!-- Node19 -->
<g id="node61" class="node"><title>Node19</title>
<a xlink:href="_exception_8h_source.html" target="_top" xlink:title="../Exceptions/Exception.h">
<polygon fill="white" stroke="black" points="242.935,-232.5 242.935,-253.5 378.935,-253.5 378.935,-232.5 242.935,-232.5"/>
<text text-anchor="middle" x="310.935" y="-240.5" font-family="DejaVuSans" font-size="10.00">../Exceptions/Exception.h</text>
</a>
</g>
<!-- Node1&#45;&gt;Node19 -->
<g id="edge84" class="edge"><title>Node1&#45;&gt;Node19</title>
<path fill="none" stroke="midnightblue" d="M647.042,-406.346C622.236,-392.466 577.221,-367.652 537.935,-348 469.918,-313.976 388.715,-277.359 344.207,-257.623"/>
<polygon fill="midnightblue" stroke="midnightblue" points="345.583,-254.405 335.022,-253.559 342.751,-260.806 345.583,-254.405"/>
</g>
<!-- Node24 -->
<g id="node76" class="node"><title>Node24</title>
<a xlink:href="_chara_species_8h.html" target="_top" xlink:title="CharaSpecies.h">
<polygon fill="white" stroke="black" points="619.935,-348.5 619.935,-369.5 711.935,-369.5 711.935,-348.5 619.935,-348.5"/>
<text text-anchor="middle" x="665.935" y="-356.5" font-family="DejaVuSans" font-size="10.00">CharaSpecies.h</text>
</a>
</g>
<!-- Node1&#45;&gt;Node24 -->
<g id="edge104" class="edge"><title>Node1&#45;&gt;Node24</title>
<path fill="none" stroke="midnightblue" d="M665.935,-406.362C665.935,-398.922 665.935,-388.743 665.935,-379.728"/>
<polygon fill="midnightblue" stroke="midnightblue" points="669.436,-379.571 665.935,-369.571 662.436,-379.571 669.436,-379.571"/>
</g>
<!-- Node4 -->
<g id="node7" class="node"><title>Node4</title>
<polygon fill="white" stroke="#bfbfbf" points="815.435,-58.5 815.435,-79.5 856.435,-79.5 856.435,-58.5 815.435,-58.5"/>
<text text-anchor="middle" x="835.935" y="-66.5" font-family="DejaVuSans" font-size="10.00">QList</text>
</g>
<!-- Node3&#45;&gt;Node4 -->
<g id="edge6" class="edge"><title>Node3&#45;&gt;Node4</title>
<path fill="none" stroke="midnightblue" d="M932.979,-232.287C924.676,-223.065 912.812,-209.197 903.935,-196 879.767,-160.068 857.185,-114.646 845.099,-89.0072"/>
<polygon fill="midnightblue" stroke="midnightblue" points="848.119,-87.2011 840.724,-79.6133 841.773,-90.1561 848.119,-87.2011"/>
</g>
<!-- Node5 -->
<g id="node9" class="node"><title>Node5</title>
<polygon fill="white" stroke="#bfbfbf" points="959.435,-0.5 959.435,-21.5 1028.44,-21.5 1028.44,-0.5 959.435,-0.5"/>
<text text-anchor="middle" x="993.935" y="-8.5" font-family="DejaVuSans" font-size="10.00">QStringList</text>
</g>
<!-- Node3&#45;&gt;Node5 -->
<g id="edge8" class="edge"><title>Node3&#45;&gt;Node5</title>
<path fill="none" stroke="midnightblue" d="M990.133,-232.42C1024.09,-223.74 1065.65,-210.546 1075.94,-196 1095.99,-167.647 1128.15,-181.535 1052.94,-58 1045.34,-45.5212 1033.16,-34.9927 1021.83,-27.0846"/>
<polygon fill="midnightblue" stroke="midnightblue" points="1023.7,-24.1282 1013.43,-21.5592 1019.86,-29.9773 1023.7,-24.1282"/>
</g>
<!-- Node6 -->
<g id="node11" class="node"><title>Node6</title>
<a xlink:href="cv___trait_8h.html" target="_top" xlink:title="../Datatypes/cv_Trait.h">
<polygon fill="white" stroke="black" points="482.935,-174.5 482.935,-195.5 604.935,-195.5 604.935,-174.5 482.935,-174.5"/>
<text text-anchor="middle" x="543.935" y="-182.5" font-family="DejaVuSans" font-size="10.00">../Datatypes/cv_Trait.h</text>
</a>
</g>
<!-- Node3&#45;&gt;Node6 -->
<g id="edge10" class="edge"><title>Node3&#45;&gt;Node6</title>
<path fill="none" stroke="midnightblue" d="M870.68,-232.497C798.184,-221.958 687.214,-205.828 615.106,-195.346"/>
<polygon fill="midnightblue" stroke="midnightblue" points="615.597,-191.88 605.197,-193.905 614.59,-198.807 615.597,-191.88"/>
</g>
<!-- Node12 -->
<g id="node32" class="node"><title>Node12</title>
<a xlink:href="cv___identity_list_8h.html" target="_top" xlink:title="../Datatypes/cv_IdentityList.h">
<polygon fill="white" stroke="black" points="912.435,-174.5 912.435,-195.5 1067.44,-195.5 1067.44,-174.5 912.435,-174.5"/>
<text text-anchor="middle" x="989.935" y="-182.5" font-family="DejaVuSans" font-size="10.00">../Datatypes/cv_IdentityList.h</text>
</a>
</g>
<!-- Node3&#45;&gt;Node12 -->
<g id="edge40" class="edge"><title>Node3&#45;&gt;Node12</title>
<path fill="none" stroke="midnightblue" d="M951.556,-232.362C958.115,-224.268 967.301,-212.932 975.042,-203.38"/>
<polygon fill="midnightblue" stroke="midnightblue" points="977.793,-205.544 981.37,-195.571 972.354,-201.136 977.793,-205.544"/>
</g>
<!-- Node15 -->
<g id="node44" class="node"><title>Node15</title>
<a xlink:href="cv___super_effect_8h.html" target="_top" xlink:title="../Datatypes/cv_SuperEffect.h">
<polygon fill="white" stroke="black" points="660.935,-174.5 660.935,-195.5 818.935,-195.5 818.935,-174.5 660.935,-174.5"/>
<text text-anchor="middle" x="739.935" y="-182.5" font-family="DejaVuSans" font-size="10.00">../Datatypes/cv_SuperEffect.h</text>
</a>
</g>
<!-- Node3&#45;&gt;Node15 -->
<g id="edge58" class="edge"><title>Node3&#45;&gt;Node15</title>
<path fill="none" stroke="midnightblue" d="M906.174,-232.497C872.649,-222.918 822.954,-208.72 786.632,-198.342"/>
<polygon fill="midnightblue" stroke="midnightblue" points="787.343,-194.905 776.766,-195.523 785.42,-201.636 787.343,-194.905"/>
</g>
<!-- Node16 -->
<g id="node47" class="node"><title>Node16</title>
<polygon fill="white" stroke="#bfbfbf" points="1122.44,-174.5 1122.44,-195.5 1177.44,-195.5 1177.44,-174.5 1122.44,-174.5"/>
<text text-anchor="middle" x="1149.94" y="-182.5" font-family="DejaVuSans" font-size="10.00">QObject</text>
</g>
<!-- Node3&#45;&gt;Node16 -->
<g id="edge62" class="edge"><title>Node3&#45;&gt;Node16</title>
<path fill="none" stroke="midnightblue" d="M980.422,-232.497C1017.8,-222.023 1074.9,-206.025 1112.32,-195.539"/>
<polygon fill="midnightblue" stroke="midnightblue" points="1113.64,-198.805 1122.32,-192.737 1111.75,-192.065 1113.64,-198.805"/>
</g>
<!-- Node6&#45;&gt;Node4 -->
<g id="edge16" class="edge"><title>Node6&#45;&gt;Node4</title>
<path fill="none" stroke="midnightblue" d="M605.185,-178.992C668.485,-171.811 762.136,-158.178 791.935,-138 809.403,-126.172 821.409,-104.854 828.414,-89.0325"/>
<polygon fill="midnightblue" stroke="midnightblue" points="831.733,-90.1638 832.301,-79.5842 825.259,-87.5001 831.733,-90.1638"/>
</g>
<!-- Node6&#45;&gt;Node5 -->
<g id="edge18" class="edge"><title>Node6&#45;&gt;Node5</title>
<path fill="none" stroke="midnightblue" d="M605.12,-177.123C659.708,-169.122 734.651,-155.44 758.935,-138 792.615,-113.813 773.635,-82.7061 806.935,-58 829.227,-41.4619 901.107,-26.6278 948.977,-18.2297"/>
<polygon fill="midnightblue" stroke="midnightblue" points="949.837,-21.6333 959.098,-16.4869 948.649,-14.7349 949.837,-21.6333"/>
</g>
<!-- Node7 -->
<g id="node13" class="node"><title>Node7</title>
<polygon fill="white" stroke="#bfbfbf" points="519.435,-116.5 519.435,-137.5 568.435,-137.5 568.435,-116.5 519.435,-116.5"/>
<text text-anchor="middle" x="543.935" y="-124.5" font-family="DejaVuSans" font-size="10.00">QFlags</text>
</g>
<!-- Node6&#45;&gt;Node7 -->
<g id="edge12" class="edge"><title>Node6&#45;&gt;Node7</title>
<path fill="none" stroke="midnightblue" d="M543.935,-174.362C543.935,-166.922 543.935,-156.743 543.935,-147.728"/>
<polygon fill="midnightblue" stroke="midnightblue" points="547.436,-147.571 543.935,-137.571 540.436,-147.571 547.436,-147.571"/>
</g>
<!-- Node8 -->
<g id="node15" class="node"><title>Node8</title>
<polygon fill="white" stroke="#bfbfbf" points="425.435,-0.5 425.435,-21.5 478.435,-21.5 478.435,-0.5 425.435,-0.5"/>
<text text-anchor="middle" x="451.935" y="-8.5" font-family="DejaVuSans" font-size="10.00">QString</text>
</g>
<!-- Node6&#45;&gt;Node8 -->
<g id="edge14" class="edge"><title>Node6&#45;&gt;Node8</title>
<path fill="none" stroke="midnightblue" d="M486.442,-174.417C448.736,-166.174 404.369,-153.533 392.935,-138 367.075,-102.867 406.454,-54.5902 432.321,-28.8563"/>
<polygon fill="midnightblue" stroke="midnightblue" points="435.049,-31.0889 439.828,-21.6331 430.195,-26.0447 435.049,-31.0889"/>
</g>
<!-- Node9 -->
<g id="node19" class="node"><title>Node9</title>
<a xlink:href="cv___species_8h.html" target="_top" xlink:title="cv_Species.h">
<polygon fill="white" stroke="black" points="518.435,-58.5 518.435,-79.5 597.435,-79.5 597.435,-58.5 518.435,-58.5"/>
<text text-anchor="middle" x="557.935" y="-66.5" font-family="DejaVuSans" font-size="10.00">cv_Species.h</text>
</a>
</g>
<!-- Node6&#45;&gt;Node9 -->
<g id="edge20" class="edge"><title>Node6&#45;&gt;Node9</title>
<path fill="none" stroke="midnightblue" d="M554.226,-174.475C562.154,-165.58 572.489,-152.07 576.935,-138 582.117,-121.602 576.142,-102.767 569.56,-88.9221"/>
<polygon fill="midnightblue" stroke="midnightblue" points="572.542,-87.0726 564.81,-79.8296 566.338,-90.3137 572.542,-87.0726"/>
</g>
<!-- Node10 -->
<g id="node22" class="node"><title>Node10</title>
<a xlink:href="cv___trait_detail_8h.html" target="_top" xlink:title="cv_TraitDetail.h">
<polygon fill="white" stroke="black" points="661.435,-116.5 661.435,-137.5 750.435,-137.5 750.435,-116.5 661.435,-116.5"/>
<text text-anchor="middle" x="705.935" y="-124.5" font-family="DejaVuSans" font-size="10.00">cv_TraitDetail.h</text>
</a>
</g>
<!-- Node6&#45;&gt;Node10 -->
<g id="edge24" class="edge"><title>Node6&#45;&gt;Node10</title>
<path fill="none" stroke="midnightblue" d="M573.272,-174.497C599.454,-165.123 637.995,-151.324 666.798,-141.012"/>
<polygon fill="midnightblue" stroke="midnightblue" points="668.308,-144.189 676.543,-137.523 665.949,-137.599 668.308,-144.189"/>
</g>
<!-- Node11 -->
<g id="node28" class="node"><title>Node11</title>
<a xlink:href="cv___abstract_trait_8h.html" target="_top" xlink:title="cv_AbstractTrait.h">
<polygon fill="white" stroke="black" points="401.435,-116.5 401.435,-137.5 502.435,-137.5 502.435,-116.5 401.435,-116.5"/>
<text text-anchor="middle" x="451.935" y="-124.5" font-family="DejaVuSans" font-size="10.00">cv_AbstractTrait.h</text>
</a>
</g>
<!-- Node6&#45;&gt;Node11 -->
<g id="edge34" class="edge"><title>Node6&#45;&gt;Node11</title>
<path fill="none" stroke="midnightblue" d="M527.061,-174.362C513.185,-165.614 493.301,-153.079 477.476,-143.101"/>
<polygon fill="midnightblue" stroke="midnightblue" points="479.029,-139.943 468.703,-137.571 475.295,-145.864 479.029,-139.943"/>
</g>
<!-- Node9&#45;&gt;Node8 -->
<g id="edge22" class="edge"><title>Node9&#45;&gt;Node8</title>
<path fill="none" stroke="midnightblue" d="M538.493,-58.3619C522.132,-49.4094 498.522,-36.4908 480.092,-26.4064"/>
<polygon fill="midnightblue" stroke="midnightblue" points="481.707,-23.3004 471.254,-21.5707 478.347,-29.4412 481.707,-23.3004"/>
</g>
<!-- Node10&#45;&gt;Node4 -->
<g id="edge28" class="edge"><title>Node10&#45;&gt;Node4</title>
<path fill="none" stroke="midnightblue" d="M729.477,-116.497C750.861,-106.956 782.519,-92.8322 805.754,-82.4655"/>
<polygon fill="midnightblue" stroke="midnightblue" points="807.436,-85.5478 815.142,-78.277 804.584,-79.1552 807.436,-85.5478"/>
</g>
<!-- Node10&#45;&gt;Node5 -->
<g id="edge30" class="edge"><title>Node10&#45;&gt;Node5</title>
<path fill="none" stroke="midnightblue" d="M711.685,-116.432C720.678,-100.978 739.593,-72.4822 763.935,-58 794.664,-39.7183 891.32,-24.4176 949.093,-16.5999"/>
<polygon fill="midnightblue" stroke="midnightblue" points="949.606,-20.0627 959.056,-15.2737 948.682,-13.1239 949.606,-20.0627"/>
</g>
<!-- Node10&#45;&gt;Node8 -->
<g id="edge26" class="edge"><title>Node10&#45;&gt;Node8</title>
<path fill="none" stroke="midnightblue" d="M693.464,-116.486C675.277,-101.616 639.931,-74.426 605.935,-58 567.553,-39.4544 520.252,-26.3259 488.278,-18.7415"/>
<polygon fill="midnightblue" stroke="midnightblue" points="488.998,-15.3156 478.467,-16.474 487.422,-22.1359 488.998,-15.3156"/>
</g>
<!-- Node10&#45;&gt;Node9 -->
<g id="edge32" class="edge"><title>Node10&#45;&gt;Node9</title>
<path fill="none" stroke="midnightblue" d="M679.134,-116.497C655.497,-107.234 620.835,-93.6499 594.628,-83.3793"/>
<polygon fill="midnightblue" stroke="midnightblue" points="595.626,-80.0113 585.038,-79.6212 593.071,-86.5287 595.626,-80.0113"/>
</g>
<!-- Node11&#45;&gt;Node8 -->
<g id="edge36" class="edge"><title>Node11&#45;&gt;Node8</title>
<path fill="none" stroke="midnightblue" d="M451.935,-116.295C451.935,-97.1314 451.935,-56.654 451.935,-31.8434"/>
<polygon fill="midnightblue" stroke="midnightblue" points="455.436,-31.6792 451.935,-21.6792 448.436,-31.6792 455.436,-31.6792"/>
</g>
<!-- Node11&#45;&gt;Node9 -->
<g id="edge38" class="edge"><title>Node11&#45;&gt;Node9</title>
<path fill="none" stroke="midnightblue" d="M471.377,-116.362C487.739,-107.409 511.349,-94.4908 529.779,-84.4064"/>
<polygon fill="midnightblue" stroke="midnightblue" points="531.524,-87.4412 538.617,-79.5707 528.164,-81.3004 531.524,-87.4412"/>
</g>
<!-- Node12&#45;&gt;Node4 -->
<g id="edge56" class="edge"><title>Node12&#45;&gt;Node4</title>
<path fill="none" stroke="midnightblue" d="M971.807,-174.5C956.519,-165.408 934.263,-151.611 915.935,-138 893.992,-121.704 870.487,-100.999 854.674,-86.5397"/>
<polygon fill="midnightblue" stroke="midnightblue" points="856.879,-83.8118 847.155,-79.6045 852.133,-88.9572 856.879,-83.8118"/>
</g>
<!-- Node12&#45;&gt;Node8 -->
<g id="edge42" class="edge"><title>Node12&#45;&gt;Node8</title>
<path fill="none" stroke="midnightblue" d="M980.312,-174.445C953.586,-145.247 879.467,-65.0794 864.935,-58 798.932,-25.8455 576.933,-15.1132 488.619,-12.0629"/>
<polygon fill="midnightblue" stroke="midnightblue" points="488.642,-8.5618 478.531,-11.728 488.41,-15.5579 488.642,-8.5618"/>
</g>
<!-- Node13 -->
<g id="node35" class="node"><title>Node13</title>
<a xlink:href="cv___identity_8h.html" target="_top" xlink:title="cv_Identity.h">
<polygon fill="white" stroke="black" points="957.435,-116.5 957.435,-137.5 1032.44,-137.5 1032.44,-116.5 957.435,-116.5"/>
<text text-anchor="middle" x="994.935" y="-124.5" font-family="DejaVuSans" font-size="10.00">cv_Identity.h</text>
</a>
</g>
<!-- Node12&#45;&gt;Node13 -->
<g id="edge44" class="edge"><title>Node12&#45;&gt;Node13</title>
<path fill="none" stroke="midnightblue" d="M990.853,-174.362C991.494,-166.922 992.371,-156.743 993.149,-147.728"/>
<polygon fill="midnightblue" stroke="midnightblue" points="996.652,-147.834 994.024,-137.571 989.678,-147.233 996.652,-147.834"/>
</g>
<!-- Node13&#45;&gt;Node5 -->
<g id="edge46" class="edge"><title>Node13&#45;&gt;Node5</title>
<path fill="none" stroke="midnightblue" d="M1009.22,-116.427C1024.9,-103.422 1046.75,-80.3171 1037.94,-58 1033.41,-46.5388 1024.62,-36.2323 1016.08,-28.2117"/>
<polygon fill="midnightblue" stroke="midnightblue" points="1018.27,-25.474 1008.44,-21.5208 1013.66,-30.7411 1018.27,-25.474"/>
</g>
<!-- Node13&#45;&gt;Node8 -->
<g id="edge48" class="edge"><title>Node13&#45;&gt;Node8</title>
<path fill="none" stroke="midnightblue" d="M985.34,-116.355C970.354,-100.527 939.697,-71.2355 906.935,-58 831.162,-27.3877 583.127,-15.6188 488.797,-12.1811"/>
<polygon fill="midnightblue" stroke="midnightblue" points="488.712,-8.67596 478.594,-11.8201 488.464,-15.6716 488.712,-8.67596"/>
</g>
<!-- Node14 -->
<g id="node39" class="node"><title>Node14</title>
<a xlink:href="cv___name_8h.html" target="_top" xlink:title="cv_Name.h">
<polygon fill="white" stroke="black" points="958.435,-58.5 958.435,-79.5 1029.44,-79.5 1029.44,-58.5 958.435,-58.5"/>
<text text-anchor="middle" x="993.935" y="-66.5" font-family="DejaVuSans" font-size="10.00">cv_Name.h</text>
</a>
</g>
<!-- Node13&#45;&gt;Node14 -->
<g id="edge50" class="edge"><title>Node13&#45;&gt;Node14</title>
<path fill="none" stroke="midnightblue" d="M994.752,-116.362C994.624,-108.922 994.448,-98.7427 994.293,-89.7276"/>
<polygon fill="midnightblue" stroke="midnightblue" points="997.79,-89.5088 994.118,-79.5707 990.791,-89.6295 997.79,-89.5088"/>
</g>
<!-- Node14&#45;&gt;Node5 -->
<g id="edge52" class="edge"><title>Node14&#45;&gt;Node5</title>
<path fill="none" stroke="midnightblue" d="M993.935,-58.3619C993.935,-50.9219 993.935,-40.7427 993.935,-31.7276"/>
<polygon fill="midnightblue" stroke="midnightblue" points="997.436,-31.5706 993.935,-21.5707 990.436,-31.5707 997.436,-31.5706"/>
</g>
<!-- Node14&#45;&gt;Node8 -->
<g id="edge54" class="edge"><title>Node14&#45;&gt;Node8</title>
<path fill="none" stroke="midnightblue" d="M958.176,-60.4268C953.733,-59.5231 949.241,-58.6856 944.935,-58 775.539,-31.0212 570.754,-17.5477 488.618,-12.9149"/>
<polygon fill="midnightblue" stroke="midnightblue" points="488.716,-9.41504 478.537,-12.3562 488.328,-16.4043 488.716,-9.41504"/>
</g>
<!-- Node15&#45;&gt;Node9 -->
<g id="edge60" class="edge"><title>Node15&#45;&gt;Node9</title>
<path fill="none" stroke="midnightblue" d="M718.39,-174.372C700.504,-165.311 674.584,-151.625 652.935,-138 626.754,-121.522 598.229,-100.333 579.34,-85.8086"/>
<polygon fill="midnightblue" stroke="midnightblue" points="581.431,-83.0014 571.382,-79.6452 577.145,-88.5356 581.431,-83.0014"/>
</g>
<!-- Node17&#45;&gt;Node3 -->
<g id="edge80" class="edge"><title>Node17&#45;&gt;Node3</title>
<path fill="none" stroke="midnightblue" d="M854.493,-290.497C871.134,-281.56 895.263,-268.602 914.116,-258.477"/>
<polygon fill="midnightblue" stroke="midnightblue" points="916.004,-261.436 923.158,-253.621 912.692,-255.269 916.004,-261.436"/>
</g>
<!-- Node17&#45;&gt;Node6 -->
<g id="edge70" class="edge"><title>Node17&#45;&gt;Node6</title>
<path fill="none" stroke="midnightblue" d="M808.34,-290.398C755.841,-269.471 638.864,-222.841 579.689,-199.252"/>
<polygon fill="midnightblue" stroke="midnightblue" points="580.949,-195.987 570.364,-195.535 578.357,-202.489 580.949,-195.987"/>
</g>
<!-- Node17&#45;&gt;Node12 -->
<g id="edge68" class="edge"><title>Node17&#45;&gt;Node12</title>
<path fill="none" stroke="midnightblue" d="M835.105,-290.424C835.915,-275.479 839.572,-248.198 854.935,-232 870.047,-216.067 890.841,-205.533 911.584,-198.569"/>
<polygon fill="midnightblue" stroke="midnightblue" points="912.897,-201.827 921.412,-195.522 910.824,-195.141 912.897,-201.827"/>
</g>
<!-- Node17&#45;&gt;Node13 -->
<g id="edge66" class="edge"><title>Node17&#45;&gt;Node13</title>
<path fill="none" stroke="midnightblue" d="M908.053,-290.487C1001.93,-275.203 1156.31,-243.396 1185.94,-196 1191.12,-187.709 1191.97,-181.696 1185.94,-174 1168.44,-151.684 1093.28,-138.543 1042.62,-132.064"/>
<polygon fill="midnightblue" stroke="midnightblue" points="1042.88,-128.569 1032.53,-130.819 1042.02,-135.517 1042.88,-128.569"/>
</g>
<!-- Node17&#45;&gt;Node16 -->
<g id="edge82" class="edge"><title>Node17&#45;&gt;Node16</title>
<path fill="none" stroke="midnightblue" d="M899.047,-290.5C938.046,-282.929 988.372,-271.02 1030.94,-254 1065.98,-239.988 1103.1,-216.983 1126.38,-201.427"/>
<polygon fill="midnightblue" stroke="midnightblue" points="1128.57,-204.172 1134.89,-195.664 1124.65,-198.377 1128.57,-204.172"/>
</g>
<!-- Node18 -->
<g id="node54" class="node"><title>Node18</title>
<a xlink:href="cv___derangement_8h.html" target="_top" xlink:title="../Datatypes/cv_Derangement.h">
<polygon fill="white" stroke="black" points="291.935,-174.5 291.935,-195.5 461.935,-195.5 461.935,-174.5 291.935,-174.5"/>
<text text-anchor="middle" x="376.935" y="-182.5" font-family="DejaVuSans" font-size="10.00">../Datatypes/cv_Derangement.h</text>
</a>
</g>
<!-- Node17&#45;&gt;Node18 -->
<g id="edge72" class="edge"><title>Node17&#45;&gt;Node18</title>
<path fill="none" stroke="midnightblue" d="M793.077,-290.398C709.003,-269.104 519.858,-221.199 428.395,-198.033"/>
<polygon fill="midnightblue" stroke="midnightblue" points="429.084,-194.598 418.531,-195.535 427.366,-201.383 429.084,-194.598"/>
</g>
<!-- Node18&#45;&gt;Node8 -->
<g id="edge74" class="edge"><title>Node18&#45;&gt;Node8</title>
<path fill="none" stroke="midnightblue" d="M371.908,-174.197C361.937,-151.038 342.475,-95.6619 364.935,-58 375.943,-39.5429 396.987,-27.8984 415.621,-20.817"/>
<polygon fill="midnightblue" stroke="midnightblue" points="416.79,-24.1161 425.08,-17.518 414.485,-17.5066 416.79,-24.1161"/>
</g>
<!-- Node18&#45;&gt;Node9 -->
<g id="edge76" class="edge"><title>Node18&#45;&gt;Node9</title>
<path fill="none" stroke="midnightblue" d="M376.289,-174.356C375.985,-159.327 377.762,-131.946 392.935,-116 408.807,-99.3199 465.689,-85.6447 508.257,-77.4286"/>
<polygon fill="midnightblue" stroke="midnightblue" points="509.01,-80.8484 518.19,-75.5591 507.715,-73.9692 509.01,-80.8484"/>
</g>
<!-- Node18&#45;&gt;Node11 -->
<g id="edge78" class="edge"><title>Node18&#45;&gt;Node11</title>
<path fill="none" stroke="midnightblue" d="M390.692,-174.362C401.687,-165.859 417.308,-153.779 430.022,-143.947"/>
<polygon fill="midnightblue" stroke="midnightblue" points="432.497,-146.457 438.266,-137.571 428.215,-140.919 432.497,-146.457"/>
</g>
<!-- Node19&#45;&gt;Node6 -->
<g id="edge88" class="edge"><title>Node19&#45;&gt;Node6</title>
<path fill="none" stroke="midnightblue" d="M353.13,-232.497C392.102,-222.795 450.114,-208.355 491.934,-197.945"/>
<polygon fill="midnightblue" stroke="midnightblue" points="492.803,-201.335 501.662,-195.523 491.112,-194.542 492.803,-201.335"/>
</g>
<!-- Node19&#45;&gt;Node8 -->
<g id="edge86" class="edge"><title>Node19&#45;&gt;Node8</title>
<path fill="none" stroke="midnightblue" d="M291.838,-232.48C242.048,-203.769 115.772,-121.937 169.935,-58 185.645,-39.4556 342.395,-21.7748 415.167,-14.4918"/>
<polygon fill="midnightblue" stroke="midnightblue" points="415.661,-17.9602 425.268,-13.4939 414.972,-10.9941 415.661,-17.9602"/>
</g>
<!-- Node19&#45;&gt;Node13 -->
<g id="edge94" class="edge"><title>Node19&#45;&gt;Node13</title>
<path fill="none" stroke="midnightblue" d="M379.254,-239.345C499.636,-232.479 744.685,-216.482 827.935,-196 878.395,-183.586 933.475,-158.347 966.069,-142.079"/>
<polygon fill="midnightblue" stroke="midnightblue" points="967.693,-145.18 975.038,-137.544 964.534,-138.933 967.693,-145.18"/>
</g>
<!-- Node20 -->
<g id="node65" class="node"><title>Node20</title>
<a xlink:href="cv___shape_8h.html" target="_top" xlink:title="../Datatypes/cv_Shape.h">
<polygon fill="white" stroke="black" points="178.935,-58.5 178.935,-79.5 312.935,-79.5 312.935,-58.5 178.935,-58.5"/>
<text text-anchor="middle" x="245.935" y="-66.5" font-family="DejaVuSans" font-size="10.00">../Datatypes/cv_Shape.h</text>
</a>
</g>
<!-- Node19&#45;&gt;Node20 -->
<g id="edge90" class="edge"><title>Node19&#45;&gt;Node20</title>
<path fill="none" stroke="midnightblue" d="M303.433,-232.218C297.256,-222.955 288.619,-209.064 282.935,-196 267.212,-159.863 255.943,-115.106 250.221,-89.5245"/>
<polygon fill="midnightblue" stroke="midnightblue" points="253.591,-88.5473 248.049,-79.5173 246.75,-90.0321 253.591,-88.5473"/>
</g>
<!-- Node21 -->
<g id="node69" class="node"><title>Node21</title>
<a xlink:href="_config_8h.html" target="_top" xlink:title="../Config/Config.h">
<polygon fill="white" stroke="black" points="4.93542,-174.5 4.93542,-195.5 102.935,-195.5 102.935,-174.5 4.93542,-174.5"/>
<text text-anchor="middle" x="53.9354" y="-182.5" font-family="DejaVuSans" font-size="10.00">../Config/Config.h</text>
</a>
</g>
<!-- Node19&#45;&gt;Node21 -->
<g id="edge96" class="edge"><title>Node19&#45;&gt;Node21</title>
<path fill="none" stroke="midnightblue" d="M264.395,-232.497C221.136,-222.734 156.61,-208.172 110.419,-197.747"/>
<polygon fill="midnightblue" stroke="midnightblue" points="111.089,-194.31 100.563,-195.523 109.548,-201.139 111.089,-194.31"/>
</g>
<!-- Node20&#45;&gt;Node8 -->
<g id="edge92" class="edge"><title>Node20&#45;&gt;Node8</title>
<path fill="none" stroke="midnightblue" d="M283.24,-58.4966C320.758,-47.9336 378.232,-31.7514 415.454,-21.2715"/>
<polygon fill="midnightblue" stroke="midnightblue" points="416.705,-24.5555 425.382,-18.4762 414.808,-17.8175 416.705,-24.5555"/>
</g>
<!-- Node21&#45;&gt;Node8 -->
<g id="edge98" class="edge"><title>Node21&#45;&gt;Node8</title>
<path fill="none" stroke="midnightblue" d="M36.8157,-174.464C17.3581,-161.117 -10.0045,-137.287 3.93542,-116 49.4341,-46.5216 316.558,-20.6386 415.284,-13.3674"/>
<polygon fill="midnightblue" stroke="midnightblue" points="415.661,-16.8495 425.386,-12.6455 415.162,-9.86731 415.661,-16.8495"/>
</g>
<!-- Node22 -->
<g id="node72" class="node"><title>Node22</title>
<polygon fill="white" stroke="#bfbfbf" points="74.4354,-116.5 74.4354,-137.5 123.435,-137.5 123.435,-116.5 74.4354,-116.5"/>
<text text-anchor="middle" x="98.9354" y="-124.5" font-family="DejaVuSans" font-size="10.00">QColor</text>
</g>
<!-- Node21&#45;&gt;Node22 -->
<g id="edge100" class="edge"><title>Node21&#45;&gt;Node22</title>
<path fill="none" stroke="midnightblue" d="M62.1891,-174.362C68.4056,-166.35 77.0868,-155.161 84.4504,-145.67"/>
<polygon fill="midnightblue" stroke="midnightblue" points="87.3694,-147.617 90.7341,-137.571 81.8387,-143.326 87.3694,-147.617"/>
</g>
<!-- Node23 -->
<g id="node74" class="node"><title>Node23</title>
<polygon fill="white" stroke="#bfbfbf" points="12.4354,-116.5 12.4354,-137.5 57.4354,-137.5 57.4354,-116.5 12.4354,-116.5"/>
<text text-anchor="middle" x="34.9354" y="-124.5" font-family="DejaVuSans" font-size="10.00">QFont</text>
</g>
<!-- Node21&#45;&gt;Node23 -->
<g id="edge102" class="edge"><title>Node21&#45;&gt;Node23</title>
<path fill="none" stroke="midnightblue" d="M50.4505,-174.362C47.9597,-166.758 44.5317,-156.294 41.5313,-147.135"/>
<polygon fill="midnightblue" stroke="midnightblue" points="44.8375,-145.984 38.3982,-137.571 38.1853,-148.163 44.8375,-145.984"/>
</g>
<!-- Node24&#45;&gt;Node6 -->
<g id="edge108" class="edge"><title>Node24&#45;&gt;Node6</title>
<path fill="none" stroke="midnightblue" d="M653.485,-348.17C643.473,-339.098 629.399,-325.498 618.935,-312 591.652,-276.803 566.825,-230.816 553.708,-204.943"/>
<polygon fill="midnightblue" stroke="midnightblue" points="556.727,-203.155 549.126,-195.775 550.466,-206.285 556.727,-203.155"/>
</g>
<!-- Node24&#45;&gt;Node10 -->
<g id="edge110" class="edge"><title>Node24&#45;&gt;Node10</title>
<path fill="none" stroke="midnightblue" d="M661.715,-348.358C650.766,-318.994 624.171,-234.973 651.935,-174 657.529,-161.717 668.093,-151.397 678.406,-143.586"/>
<polygon fill="midnightblue" stroke="midnightblue" points="680.721,-146.237 686.894,-137.626 676.698,-140.508 680.721,-146.237"/>
</g>
<!-- Node24&#45;&gt;Node17 -->
<g id="edge106" class="edge"><title>Node24&#45;&gt;Node17</title>
<path fill="none" stroke="midnightblue" d="M696.54,-348.497C723.972,-339.082 764.411,-325.204 794.5,-314.877"/>
<polygon fill="midnightblue" stroke="midnightblue" points="795.951,-318.08 804.273,-311.523 793.679,-311.459 795.951,-318.08"/>
</g>
<!-- Node25 -->
<g id="node81" class="node"><title>Node25</title>
<polygon fill="white" stroke="#bfbfbf" points="660.435,-290.5 660.435,-311.5 737.435,-311.5 737.435,-290.5 660.435,-290.5"/>
<text text-anchor="middle" x="698.935" y="-298.5" font-family="DejaVuSans" font-size="10.00">QComboBox</text>
</g>
<!-- Node24&#45;&gt;Node25 -->
<g id="edge112" class="edge"><title>Node24&#45;&gt;Node25</title>
<path fill="none" stroke="midnightblue" d="M671.988,-348.362C676.407,-340.595 682.525,-329.843 687.815,-320.546"/>
<polygon fill="midnightblue" stroke="midnightblue" points="691.018,-321.993 692.921,-311.571 684.934,-318.531 691.018,-321.993"/>
</g>
</g>
</svg>
