<?xml version="1.0" encoding="UTF-8" standalone="no"?>
<!DOCTYPE svg PUBLIC "-//W3C//DTD SVG 1.1//EN"
 "http://www.w3.org/Graphics/SVG/1.1/DTD/svg11.dtd">
<!-- Generated by graphviz version 2.26.3 (20100126.1600)
 -->
<!-- Title: G Pages: 1 -->
<svg width="897pt" height="262pt"
 viewBox="0.00 0.00 897.00 262.00" xmlns="http://www.w3.org/2000/svg" xmlns:xlink="http://www.w3.org/1999/xlink">
<g id="graph1" class="graph" transform="scale(1 1) rotate(0) translate(4 258)">
<title>G</title>
<polygon fill="white" stroke="white" points="-4,5 -4,-258 894,-258 894,5 -4,5"/>
<!-- Node1 -->
<g id="node1" class="node"><title>Node1</title>
<polygon fill="#bfbfbf" stroke="black" points="209.5,-232.5 209.5,-253.5 340.5,-253.5 340.5,-232.5 209.5,-232.5"/>
<text text-anchor="middle" x="275" y="-240.5" font-family="DejaVuSans" font-size="10.00">src/Widgets/CharaTrait.h</text>
</g>
<!-- Node2 -->
<g id="node3" class="node"><title>Node2</title>
<polygon fill="white" stroke="#bfbfbf" points="136,-174.5 136,-195.5 288,-195.5 288,-174.5 136,-174.5"/>
<text text-anchor="middle" x="212" y="-182.5" font-family="DejaVuSans" font-size="10.00">Storage/StorageCharacter.h</text>
</g>
<!-- Node1&#45;&gt;Node2 -->
<g id="edge2" class="edge"><title>Node1&#45;&gt;Node2</title>
<path fill="none" stroke="midnightblue" d="M263.445,-232.362C254.387,-224.023 241.59,-212.242 231.026,-202.516"/>
<polygon fill="midnightblue" stroke="midnightblue" points="233.21,-199.769 223.482,-195.571 228.468,-204.919 233.21,-199.769"/>
</g>
<!-- Node3 -->
<g id="node5" class="node"><title>Node3</title>
<a xlink:href="_trait_line_8h.html" target="_top" xlink:title="TraitLine.h">
<polygon fill="white" stroke="black" points="305.5,-174.5 305.5,-195.5 370.5,-195.5 370.5,-174.5 305.5,-174.5"/>
<text text-anchor="middle" x="338" y="-182.5" font-family="DejaVuSans" font-size="10.00">TraitLine.h</text>
</a>
</g>
<!-- Node1&#45;&gt;Node3 -->
<g id="edge4" class="edge"><title>Node1&#45;&gt;Node3</title>
<path fill="none" stroke="midnightblue" d="M286.555,-232.362C295.613,-224.023 308.41,-212.242 318.974,-202.516"/>
<polygon fill="midnightblue" stroke="midnightblue" points="321.532,-204.919 326.518,-195.571 316.79,-199.769 321.532,-204.919"/>
</g>
<!-- Node4 -->
<g id="node7" class="node"><title>Node4</title>
<polygon fill="white" stroke="#bfbfbf" points="-0.5,-116.5 -0.5,-137.5 68.5,-137.5 68.5,-116.5 -0.5,-116.5"/>
<text text-anchor="middle" x="34" y="-124.5" font-family="DejaVuSans" font-size="10.00">QStringList</text>
</g>
<!-- Node3&#45;&gt;Node4 -->
<g id="edge6" class="edge"><title>Node3&#45;&gt;Node4</title>
<path fill="none" stroke="midnightblue" d="M305.398,-175.938C302.566,-175.247 299.738,-174.59 297,-174 203.265,-153.809 175.737,-157.992 78.6116,-138.207"/>
<polygon fill="midnightblue" stroke="midnightblue" points="79.1743,-134.75 68.6724,-136.149 77.755,-141.604 79.1743,-134.75"/>
</g>
<!-- Node5 -->
<g id="node9" class="node"><title>Node5</title>
<polygon fill="white" stroke="#bfbfbf" points="86,-116.5 86,-137.5 168,-137.5 168,-116.5 86,-116.5"/>
<text text-anchor="middle" x="127" y="-124.5" font-family="DejaVuSans" font-size="10.00">QHBoxLayout</text>
</g>
<!-- Node3&#45;&gt;Node5 -->
<g id="edge8" class="edge"><title>Node3&#45;&gt;Node5</title>
<path fill="none" stroke="midnightblue" d="M305.494,-176.065C270.646,-166.486 214.957,-151.178 175.049,-140.208"/>
<polygon fill="midnightblue" stroke="midnightblue" points="175.835,-136.794 165.265,-137.518 173.98,-143.544 175.835,-136.794"/>
</g>
<!-- Node6 -->
<g id="node11" class="node"><title>Node6</title>
<polygon fill="white" stroke="#bfbfbf" points="186,-116.5 186,-137.5 236,-137.5 236,-116.5 186,-116.5"/>
<text text-anchor="middle" x="211" y="-124.5" font-family="DejaVuSans" font-size="10.00">QLabel</text>
</g>
<!-- Node3&#45;&gt;Node6 -->
<g id="edge10" class="edge"><title>Node3&#45;&gt;Node6</title>
<path fill="none" stroke="midnightblue" d="M315.001,-174.497C294.987,-165.356 265.759,-152.008 243.381,-141.788"/>
<polygon fill="midnightblue" stroke="midnightblue" points="244.807,-138.592 234.257,-137.621 241.899,-144.959 244.807,-138.592"/>
</g>
<!-- Node7 -->
<g id="node13" class="node"><title>Node7</title>
<polygon fill="white" stroke="#bfbfbf" points="254,-116.5 254,-137.5 334,-137.5 334,-116.5 254,-116.5"/>
<text text-anchor="middle" x="294" y="-124.5" font-family="DejaVuSans" font-size="10.00">QPushButton</text>
</g>
<!-- Node3&#45;&gt;Node7 -->
<g id="edge12" class="edge"><title>Node3&#45;&gt;Node7</title>
<path fill="none" stroke="midnightblue" d="M329.93,-174.362C323.851,-166.35 315.363,-155.161 308.163,-145.67"/>
<polygon fill="midnightblue" stroke="midnightblue" points="310.851,-143.422 302.019,-137.571 305.275,-147.653 310.851,-143.422"/>
</g>
<!-- Node8 -->
<g id="node15" class="node"><title>Node8</title>
<polygon fill="white" stroke="#bfbfbf" points="352,-116.5 352,-137.5 414,-137.5 414,-116.5 352,-116.5"/>
<text text-anchor="middle" x="383" y="-124.5" font-family="DejaVuSans" font-size="10.00">QLineEdit</text>
</g>
<!-- Node3&#45;&gt;Node8 -->
<g id="edge14" class="edge"><title>Node3&#45;&gt;Node8</title>
<path fill="none" stroke="midnightblue" d="M346.254,-174.362C352.47,-166.35 361.151,-155.161 368.515,-145.67"/>
<polygon fill="midnightblue" stroke="midnightblue" points="371.434,-147.617 374.799,-137.571 365.903,-143.326 371.434,-147.617"/>
</g>
<!-- Node9 -->
<g id="node17" class="node"><title>Node9</title>
<a xlink:href="_trait_dots_8h.html" target="_top" xlink:title="TraitDots.h">
<polygon fill="white" stroke="black" points="432,-116.5 432,-137.5 500,-137.5 500,-116.5 432,-116.5"/>
<text text-anchor="middle" x="466" y="-124.5" font-family="DejaVuSans" font-size="10.00">TraitDots.h</text>
</a>
</g>
<!-- Node3&#45;&gt;Node9 -->
<g id="edge16" class="edge"><title>Node3&#45;&gt;Node9</title>
<path fill="none" stroke="midnightblue" d="M361.18,-174.497C381.352,-165.356 410.81,-152.008 433.364,-141.788"/>
<polygon fill="midnightblue" stroke="midnightblue" points="434.896,-144.937 442.56,-137.621 432.007,-138.561 434.896,-144.937"/>
</g>
<!-- Node13 -->
<g id="node25" class="node"><title>Node13</title>
<polygon fill="white" stroke="#bfbfbf" points="505,-58.5 505,-79.5 561,-79.5 561,-58.5 505,-58.5"/>
<text text-anchor="middle" x="533" y="-66.5" font-family="DejaVuSans" font-size="10.00">QWidget</text>
</g>
<!-- Node3&#45;&gt;Node13 -->
<g id="edge36" class="edge"><title>Node3&#45;&gt;Node13</title>
<path fill="none" stroke="midnightblue" d="M370.747,-179.718C414.555,-172.044 489.047,-156.668 509,-138 522.415,-125.449 528.332,-105.012 530.942,-89.6306"/>
<polygon fill="midnightblue" stroke="midnightblue" points="534.439,-89.8894 532.318,-79.5091 527.503,-88.9466 534.439,-89.8894"/>
</g>
<!-- Node14 -->
<g id="node27" class="node"><title>Node14</title>
<a xlink:href="_trait_specialties_8h.html" target="_top" xlink:title="TraitSpecialties.h">
<polygon fill="white" stroke="black" points="614.5,-116.5 614.5,-137.5 711.5,-137.5 711.5,-116.5 614.5,-116.5"/>
<text text-anchor="middle" x="663" y="-124.5" font-family="DejaVuSans" font-size="10.00">TraitSpecialties.h</text>
</a>
</g>
<!-- Node3&#45;&gt;Node14 -->
<g id="edge26" class="edge"><title>Node3&#45;&gt;Node14</title>
<path fill="none" stroke="midnightblue" d="M370.65,-179.173C425.233,-169.432 535.75,-149.709 604.169,-137.499"/>
<polygon fill="midnightblue" stroke="midnightblue" points="605.131,-140.883 614.36,-135.68 603.901,-133.992 605.131,-140.883"/>
</g>
<!-- Node10 -->
<g id="node19" class="node"><title>Node10</title>
<polygon fill="white" stroke="#bfbfbf" points="312.5,-58.5 312.5,-79.5 361.5,-79.5 361.5,-58.5 312.5,-58.5"/>
<text text-anchor="middle" x="337" y="-66.5" font-family="DejaVuSans" font-size="10.00">QColor</text>
</g>
<!-- Node9&#45;&gt;Node10 -->
<g id="edge18" class="edge"><title>Node9&#45;&gt;Node10</title>
<path fill="none" stroke="midnightblue" d="M442.639,-116.497C422.309,-107.356 392.622,-94.0082 369.891,-83.7883"/>
<polygon fill="midnightblue" stroke="midnightblue" points="371.179,-80.5298 360.623,-79.6212 368.308,-86.9142 371.179,-80.5298"/>
</g>
<!-- Node11 -->
<g id="node21" class="node"><title>Node11</title>
<polygon fill="white" stroke="#bfbfbf" points="378.5,-58.5 378.5,-79.5 419.5,-79.5 419.5,-58.5 378.5,-58.5"/>
<text text-anchor="middle" x="399" y="-66.5" font-family="DejaVuSans" font-size="10.00">QList</text>
</g>
<!-- Node9&#45;&gt;Node11 -->
<g id="edge20" class="edge"><title>Node9&#45;&gt;Node11</title>
<path fill="none" stroke="midnightblue" d="M453.711,-116.362C443.983,-107.941 430.202,-96.0105 418.905,-86.2308"/>
<polygon fill="midnightblue" stroke="midnightblue" points="421.062,-83.4695 411.211,-79.5707 416.481,-88.7619 421.062,-83.4695"/>
</g>
<!-- Node12 -->
<g id="node23" class="node"><title>Node12</title>
<polygon fill="white" stroke="#bfbfbf" points="436.5,-58.5 436.5,-79.5 487.5,-79.5 487.5,-58.5 436.5,-58.5"/>
<text text-anchor="middle" x="462" y="-66.5" font-family="DejaVuSans" font-size="10.00">QEvent</text>
</g>
<!-- Node9&#45;&gt;Node12 -->
<g id="edge22" class="edge"><title>Node9&#45;&gt;Node12</title>
<path fill="none" stroke="midnightblue" d="M465.266,-116.362C464.753,-108.922 464.051,-98.7427 463.429,-89.7276"/>
<polygon fill="midnightblue" stroke="midnightblue" points="466.909,-89.3061 462.729,-79.5707 459.925,-89.7878 466.909,-89.3061"/>
</g>
<!-- Node9&#45;&gt;Node13 -->
<g id="edge24" class="edge"><title>Node9&#45;&gt;Node13</title>
<path fill="none" stroke="midnightblue" d="M478.289,-116.362C488.017,-107.941 501.798,-96.0105 513.095,-86.2308"/>
<polygon fill="midnightblue" stroke="midnightblue" points="515.519,-88.7619 520.789,-79.5707 510.938,-83.4695 515.519,-88.7619"/>
</g>
<!-- Node15 -->
<g id="node29" class="node"><title>Node15</title>
<polygon fill="white" stroke="#bfbfbf" points="578.5,-58.5 578.5,-79.5 631.5,-79.5 631.5,-58.5 578.5,-58.5"/>
<text text-anchor="middle" x="605" y="-66.5" font-family="DejaVuSans" font-size="10.00">QString</text>
</g>
<!-- Node14&#45;&gt;Node15 -->
<g id="edge28" class="edge"><title>Node14&#45;&gt;Node15</title>
<path fill="none" stroke="midnightblue" d="M652.362,-116.362C644.104,-108.104 632.472,-96.4725 622.803,-86.8029"/>
<polygon fill="midnightblue" stroke="midnightblue" points="625.117,-84.1669 615.571,-79.5707 620.167,-89.1166 625.117,-84.1669"/>
</g>
<!-- Node16 -->
<g id="node31" class="node"><title>Node16</title>
<polygon fill="white" stroke="#bfbfbf" points="648.5,-58.5 648.5,-79.5 789.5,-79.5 789.5,-58.5 648.5,-58.5"/>
<text text-anchor="middle" x="719" y="-66.5" font-family="DejaVuSans" font-size="10.00">Datatypes/cv_TraitDetail.h</text>
</g>
<!-- Node14&#45;&gt;Node16 -->
<g id="edge30" class="edge"><title>Node14&#45;&gt;Node16</title>
<path fill="none" stroke="midnightblue" d="M673.271,-116.362C681.244,-108.104 692.475,-96.4725 701.811,-86.8029"/>
<polygon fill="midnightblue" stroke="midnightblue" points="704.366,-89.1958 708.794,-79.5707 699.33,-84.3336 704.366,-89.1958"/>
</g>
<!-- Node17 -->
<g id="node33" class="node"><title>Node17</title>
<a xlink:href="_checked_list_8h.html" target="_top" xlink:title="CheckedList.h">
<polygon fill="white" stroke="black" points="806.5,-58.5 806.5,-79.5 889.5,-79.5 889.5,-58.5 806.5,-58.5"/>
<text text-anchor="middle" x="848" y="-66.5" font-family="DejaVuSans" font-size="10.00">CheckedList.h</text>
</a>
</g>
<!-- Node14&#45;&gt;Node17 -->
<g id="edge32" class="edge"><title>Node14&#45;&gt;Node17</title>
<path fill="none" stroke="midnightblue" d="M696.502,-116.497C726.793,-107 771.57,-92.9619 804.593,-82.6087"/>
<polygon fill="midnightblue" stroke="midnightblue" points="805.94,-85.8544 814.435,-79.5231 803.846,-79.175 805.94,-85.8544"/>
</g>
<!-- Node18 -->
<g id="node35" class="node"><title>Node18</title>
<polygon fill="white" stroke="#bfbfbf" points="811.5,-0.5 811.5,-21.5 884.5,-21.5 884.5,-0.5 811.5,-0.5"/>
<text text-anchor="middle" x="848" y="-8.5" font-family="DejaVuSans" font-size="10.00">QListWidget</text>
</g>
<!-- Node17&#45;&gt;Node18 -->
<g id="edge34" class="edge"><title>Node17&#45;&gt;Node18</title>
<path fill="none" stroke="midnightblue" d="M848,-58.3619C848,-50.9219 848,-40.7427 848,-31.7276"/>
<polygon fill="midnightblue" stroke="midnightblue" points="851.5,-31.5706 848,-21.5707 844.5,-31.5707 851.5,-31.5706"/>
</g>
</g>
</svg>
