<?xml version="1.0" encoding="UTF-8" standalone="no"?>
<!DOCTYPE svg PUBLIC "-//W3C//DTD SVG 1.1//EN"
 "http://www.w3.org/Graphics/SVG/1.1/DTD/svg11.dtd">
<!-- Generated by graphviz version 2.26.3 (20100126.1600)
 -->
<!-- Title: G Pages: 1 -->
<svg width="810pt" height="320pt"
 viewBox="0.00 0.00 810.00 320.00" xmlns="http://www.w3.org/2000/svg" xmlns:xlink="http://www.w3.org/1999/xlink">
<g id="graph1" class="graph" transform="scale(1 1) rotate(0) translate(4 316)">
<title>G</title>
<polygon fill="white" stroke="white" points="-4,5 -4,-316 807,-316 807,5 -4,5"/>
<!-- Node1 -->
<g id="node1" class="node"><title>Node1</title>
<polygon fill="#bfbfbf" stroke="black" points="202.5,-290.5 202.5,-311.5 345.5,-311.5 345.5,-290.5 202.5,-290.5"/>
<text text-anchor="middle" x="274" y="-298.5" font-family="DejaVuSans" font-size="10.00">src/Widgets/CharaTrait.cpp</text>
</g>
<!-- Node2 -->
<g id="node3" class="node"><title>Node2</title>
<polygon fill="white" stroke="#bfbfbf" points="71,-232.5 71,-253.5 127,-253.5 127,-232.5 71,-232.5"/>
<text text-anchor="middle" x="99" y="-240.5" font-family="DejaVuSans" font-size="10.00">QDebug</text>
</g>
<!-- Node1&#45;&gt;Node2 -->
<g id="edge2" class="edge"><title>Node1&#45;&gt;Node2</title>
<path fill="none" stroke="midnightblue" d="M242.309,-290.497C212.713,-280.688 168.496,-266.033 137.013,-255.599"/>
<polygon fill="midnightblue" stroke="midnightblue" points="137.867,-252.195 127.274,-252.371 135.665,-258.839 137.867,-252.195"/>
</g>
<!-- Node3 -->
<g id="node5" class="node"><title>Node3</title>
<polygon fill="white" stroke="#bfbfbf" points="144.5,-232.5 144.5,-253.5 281.5,-253.5 281.5,-232.5 144.5,-232.5"/>
<text text-anchor="middle" x="213" y="-240.5" font-family="DejaVuSans" font-size="10.00">Parser/StringBoolParser.h</text>
</g>
<!-- Node1&#45;&gt;Node3 -->
<g id="edge4" class="edge"><title>Node1&#45;&gt;Node3</title>
<path fill="none" stroke="midnightblue" d="M262.812,-290.362C254.041,-282.023 241.651,-270.242 231.422,-260.516"/>
<polygon fill="midnightblue" stroke="midnightblue" points="233.776,-257.925 224.117,-253.571 228.953,-262.998 233.776,-257.925"/>
</g>
<!-- Node4 -->
<g id="node7" class="node"><title>Node4</title>
<a xlink:href="_message_box_8h.html" target="_top" xlink:title="Dialogs/MessageBox.h">
<polygon fill="white" stroke="black" points="509.5,-232.5 509.5,-253.5 634.5,-253.5 634.5,-232.5 509.5,-232.5"/>
<text text-anchor="middle" x="572" y="-240.5" font-family="DejaVuSans" font-size="10.00">Dialogs/MessageBox.h</text>
</a>
</g>
<!-- Node1&#45;&gt;Node4 -->
<g id="edge6" class="edge"><title>Node1&#45;&gt;Node4</title>
<path fill="none" stroke="midnightblue" d="M327.966,-290.497C378.546,-280.652 454.202,-265.927 507.848,-255.486"/>
<polygon fill="midnightblue" stroke="midnightblue" points="508.786,-258.869 517.933,-253.523 507.449,-251.998 508.786,-258.869"/>
</g>
<!-- Node9 -->
<g id="node17" class="node"><title>Node9</title>
<a xlink:href="_chara_trait_8h.html" target="_top" xlink:title="CharaTrait.h">
<polygon fill="white" stroke="black" points="299,-232.5 299,-253.5 373,-253.5 373,-232.5 299,-232.5"/>
<text text-anchor="middle" x="336" y="-240.5" font-family="DejaVuSans" font-size="10.00">CharaTrait.h</text>
</a>
</g>
<!-- Node1&#45;&gt;Node9 -->
<g id="edge16" class="edge"><title>Node1&#45;&gt;Node9</title>
<path fill="none" stroke="midnightblue" d="M285.372,-290.362C294.286,-282.023 306.879,-270.242 317.276,-260.516"/>
<polygon fill="midnightblue" stroke="midnightblue" points="319.789,-262.958 324.7,-253.571 315.007,-257.846 319.789,-262.958"/>
</g>
<!-- Node5 -->
<g id="node9" class="node"><title>Node5</title>
<polygon fill="white" stroke="#bfbfbf" points="370.5,-58.5 370.5,-79.5 423.5,-79.5 423.5,-58.5 370.5,-58.5"/>
<text text-anchor="middle" x="397" y="-66.5" font-family="DejaVuSans" font-size="10.00">QString</text>
</g>
<!-- Node4&#45;&gt;Node5 -->
<g id="edge8" class="edge"><title>Node4&#45;&gt;Node5</title>
<path fill="none" stroke="midnightblue" d="M589.503,-232.481C601.405,-224.228 616.185,-211.549 623,-196 637.274,-163.435 645.437,-143.583 623,-116 599.55,-87.1716 491.468,-75.4458 433.683,-71.1726"/>
<polygon fill="midnightblue" stroke="midnightblue" points="433.731,-67.6674 423.51,-70.459 433.241,-74.6503 433.731,-67.6674"/>
</g>
<!-- Node6 -->
<g id="node11" class="node"><title>Node6</title>
<polygon fill="white" stroke="#bfbfbf" points="670,-174.5 670,-195.5 732,-195.5 732,-174.5 670,-174.5"/>
<text text-anchor="middle" x="701" y="-182.5" font-family="DejaVuSans" font-size="10.00">QSqlError</text>
</g>
<!-- Node4&#45;&gt;Node6 -->
<g id="edge10" class="edge"><title>Node4&#45;&gt;Node6</title>
<path fill="none" stroke="midnightblue" d="M595.361,-232.497C615.691,-223.356 645.378,-210.008 668.109,-199.788"/>
<polygon fill="midnightblue" stroke="midnightblue" points="669.692,-202.914 677.377,-195.621 666.821,-196.53 669.692,-202.914"/>
</g>
<!-- Node7 -->
<g id="node13" class="node"><title>Node7</title>
<polygon fill="white" stroke="#bfbfbf" points="385.5,-174.5 385.5,-195.5 512.5,-195.5 512.5,-174.5 385.5,-174.5"/>
<text text-anchor="middle" x="449" y="-182.5" font-family="DejaVuSans" font-size="10.00">Exceptions/Exception.h</text>
</g>
<!-- Node4&#45;&gt;Node7 -->
<g id="edge12" class="edge"><title>Node4&#45;&gt;Node7</title>
<path fill="none" stroke="midnightblue" d="M549.726,-232.497C530.428,-223.397 502.287,-210.127 480.652,-199.925"/>
<polygon fill="midnightblue" stroke="midnightblue" points="482.062,-196.721 471.524,-195.621 479.076,-203.052 482.062,-196.721"/>
</g>
<!-- Node8 -->
<g id="node15" class="node"><title>Node8</title>
<polygon fill="white" stroke="#bfbfbf" points="529.5,-174.5 529.5,-195.5 614.5,-195.5 614.5,-174.5 529.5,-174.5"/>
<text text-anchor="middle" x="572" y="-182.5" font-family="DejaVuSans" font-size="10.00">QMessageBox</text>
</g>
<!-- Node4&#45;&gt;Node8 -->
<g id="edge14" class="edge"><title>Node4&#45;&gt;Node8</title>
<path fill="none" stroke="midnightblue" d="M572,-232.362C572,-224.922 572,-214.743 572,-205.728"/>
<polygon fill="midnightblue" stroke="midnightblue" points="575.5,-205.571 572,-195.571 568.5,-205.571 575.5,-205.571"/>
</g>
<!-- Node10 -->
<g id="node19" class="node"><title>Node10</title>
<polygon fill="white" stroke="#bfbfbf" points="134,-174.5 134,-195.5 286,-195.5 286,-174.5 134,-174.5"/>
<text text-anchor="middle" x="210" y="-182.5" font-family="DejaVuSans" font-size="10.00">Storage/StorageCharacter.h</text>
</g>
<!-- Node9&#45;&gt;Node10 -->
<g id="edge18" class="edge"><title>Node9&#45;&gt;Node10</title>
<path fill="none" stroke="midnightblue" d="M313.182,-232.497C293.414,-223.397 264.587,-210.127 242.424,-199.925"/>
<polygon fill="midnightblue" stroke="midnightblue" points="243.621,-196.623 233.074,-195.621 240.694,-202.982 243.621,-196.623"/>
</g>
<!-- Node11 -->
<g id="node21" class="node"><title>Node11</title>
<a xlink:href="_trait_line_8h.html" target="_top" xlink:title="TraitLine.h">
<polygon fill="white" stroke="black" points="303.5,-174.5 303.5,-195.5 368.5,-195.5 368.5,-174.5 303.5,-174.5"/>
<text text-anchor="middle" x="336" y="-182.5" font-family="DejaVuSans" font-size="10.00">TraitLine.h</text>
</a>
</g>
<!-- Node9&#45;&gt;Node11 -->
<g id="edge20" class="edge"><title>Node9&#45;&gt;Node11</title>
<path fill="none" stroke="midnightblue" d="M336,-232.362C336,-224.922 336,-214.743 336,-205.728"/>
<polygon fill="midnightblue" stroke="midnightblue" points="339.5,-205.571 336,-195.571 332.5,-205.571 339.5,-205.571"/>
</g>
<!-- Node12 -->
<g id="node23" class="node"><title>Node12</title>
<polygon fill="white" stroke="#bfbfbf" points="199.5,-116.5 199.5,-137.5 268.5,-137.5 268.5,-116.5 199.5,-116.5"/>
<text text-anchor="middle" x="234" y="-124.5" font-family="DejaVuSans" font-size="10.00">QStringList</text>
</g>
<!-- Node11&#45;&gt;Node12 -->
<g id="edge22" class="edge"><title>Node11&#45;&gt;Node12</title>
<path fill="none" stroke="midnightblue" d="M317.292,-174.362C301.619,-165.45 279.036,-152.609 261.337,-142.545"/>
<polygon fill="midnightblue" stroke="midnightblue" points="263.013,-139.471 252.59,-137.571 259.553,-145.556 263.013,-139.471"/>
</g>
<!-- Node13 -->
<g id="node25" class="node"><title>Node13</title>
<polygon fill="white" stroke="#bfbfbf" points="286,-116.5 286,-137.5 368,-137.5 368,-116.5 286,-116.5"/>
<text text-anchor="middle" x="327" y="-124.5" font-family="DejaVuSans" font-size="10.00">QHBoxLayout</text>
</g>
<!-- Node11&#45;&gt;Node13 -->
<g id="edge24" class="edge"><title>Node11&#45;&gt;Node13</title>
<path fill="none" stroke="midnightblue" d="M334.349,-174.362C333.195,-166.922 331.615,-156.743 330.216,-147.728"/>
<polygon fill="midnightblue" stroke="midnightblue" points="333.632,-146.916 328.64,-137.571 326.715,-147.989 333.632,-146.916"/>
</g>
<!-- Node14 -->
<g id="node27" class="node"><title>Node14</title>
<polygon fill="white" stroke="#bfbfbf" points="386,-116.5 386,-137.5 436,-137.5 436,-116.5 386,-116.5"/>
<text text-anchor="middle" x="411" y="-124.5" font-family="DejaVuSans" font-size="10.00">QLabel</text>
</g>
<!-- Node11&#45;&gt;Node14 -->
<g id="edge26" class="edge"><title>Node11&#45;&gt;Node14</title>
<path fill="none" stroke="midnightblue" d="M349.756,-174.362C360.751,-165.859 376.373,-153.779 389.086,-143.947"/>
<polygon fill="midnightblue" stroke="midnightblue" points="391.562,-146.457 397.331,-137.571 387.279,-140.919 391.562,-146.457"/>
</g>
<!-- Node15 -->
<g id="node29" class="node"><title>Node15</title>
<polygon fill="white" stroke="#bfbfbf" points="454,-116.5 454,-137.5 534,-137.5 534,-116.5 454,-116.5"/>
<text text-anchor="middle" x="494" y="-124.5" font-family="DejaVuSans" font-size="10.00">QPushButton</text>
</g>
<!-- Node11&#45;&gt;Node15 -->
<g id="edge28" class="edge"><title>Node11&#45;&gt;Node15</title>
<path fill="none" stroke="midnightblue" d="M364.613,-174.497C390.148,-165.123 427.737,-151.324 455.829,-141.012"/>
<polygon fill="midnightblue" stroke="midnightblue" points="457.152,-144.255 465.334,-137.523 454.74,-137.684 457.152,-144.255"/>
</g>
<!-- Node16 -->
<g id="node31" class="node"><title>Node16</title>
<polygon fill="white" stroke="#bfbfbf" points="552,-116.5 552,-137.5 614,-137.5 614,-116.5 552,-116.5"/>
<text text-anchor="middle" x="583" y="-124.5" font-family="DejaVuSans" font-size="10.00">QLineEdit</text>
</g>
<!-- Node11&#45;&gt;Node16 -->
<g id="edge30" class="edge"><title>Node11&#45;&gt;Node16</title>
<path fill="none" stroke="midnightblue" d="M368.637,-176.091C371.461,-175.366 374.278,-174.66 377,-174 447.358,-156.943 468.012,-156.061 541.829,-138.198"/>
<polygon fill="midnightblue" stroke="midnightblue" points="542.716,-141.584 551.6,-135.81 541.055,-134.784 542.716,-141.584"/>
</g>
<!-- Node17 -->
<g id="node33" class="node"><title>Node17</title>
<a xlink:href="_trait_dots_8h.html" target="_top" xlink:title="TraitDots.h">
<polygon fill="white" stroke="black" points="670,-116.5 670,-137.5 738,-137.5 738,-116.5 670,-116.5"/>
<text text-anchor="middle" x="704" y="-124.5" font-family="DejaVuSans" font-size="10.00">TraitDots.h</text>
</a>
</g>
<!-- Node11&#45;&gt;Node17 -->
<g id="edge32" class="edge"><title>Node11&#45;&gt;Node17</title>
<path fill="none" stroke="midnightblue" d="M368.59,-175.88C371.424,-175.201 374.257,-174.563 377,-174 404.175,-168.422 577.049,-144.43 659.873,-133.043"/>
<polygon fill="midnightblue" stroke="midnightblue" points="660.557,-136.482 669.987,-131.654 659.604,-129.547 660.557,-136.482"/>
</g>
<!-- Node21 -->
<g id="node41" class="node"><title>Node21</title>
<polygon fill="white" stroke="#bfbfbf" points="746,-58.5 746,-79.5 802,-79.5 802,-58.5 746,-58.5"/>
<text text-anchor="middle" x="774" y="-66.5" font-family="DejaVuSans" font-size="10.00">QWidget</text>
</g>
<!-- Node11&#45;&gt;Node21 -->
<g id="edge52" class="edge"><title>Node11&#45;&gt;Node21</title>
<path fill="none" stroke="midnightblue" d="M368.564,-175.743C371.404,-175.094 374.245,-174.5 377,-174 458.282,-159.246 681.105,-187.824 747,-138 762.09,-126.591 768.753,-105.519 771.691,-89.6519"/>
<polygon fill="midnightblue" stroke="midnightblue" points="775.164,-90.0899 773.188,-79.681 768.242,-89.0506 775.164,-90.0899"/>
</g>
<!-- Node22 -->
<g id="node43" class="node"><title>Node22</title>
<a xlink:href="_trait_specialties_8h.html" target="_top" xlink:title="TraitSpecialties.h">
<polygon fill="white" stroke="black" points="85.5,-116.5 85.5,-137.5 182.5,-137.5 182.5,-116.5 85.5,-116.5"/>
<text text-anchor="middle" x="134" y="-124.5" font-family="DejaVuSans" font-size="10.00">TraitSpecialties.h</text>
</a>
</g>
<!-- Node11&#45;&gt;Node22 -->
<g id="edge42" class="edge"><title>Node11&#45;&gt;Node22</title>
<path fill="none" stroke="midnightblue" d="M303.096,-175.552C269.743,-165.976 217.845,-151.074 180.339,-140.305"/>
<polygon fill="midnightblue" stroke="midnightblue" points="181.231,-136.92 170.653,-137.524 179.299,-143.648 181.231,-136.92"/>
</g>
<!-- Node18 -->
<g id="node35" class="node"><title>Node18</title>
<polygon fill="white" stroke="#bfbfbf" points="679.5,-58.5 679.5,-79.5 728.5,-79.5 728.5,-58.5 679.5,-58.5"/>
<text text-anchor="middle" x="704" y="-66.5" font-family="DejaVuSans" font-size="10.00">QColor</text>
</g>
<!-- Node17&#45;&gt;Node18 -->
<g id="edge34" class="edge"><title>Node17&#45;&gt;Node18</title>
<path fill="none" stroke="midnightblue" d="M704,-116.362C704,-108.922 704,-98.7427 704,-89.7276"/>
<polygon fill="midnightblue" stroke="midnightblue" points="707.5,-89.5706 704,-79.5707 700.5,-89.5707 707.5,-89.5706"/>
</g>
<!-- Node19 -->
<g id="node37" class="node"><title>Node19</title>
<polygon fill="white" stroke="#bfbfbf" points="553.5,-58.5 553.5,-79.5 594.5,-79.5 594.5,-58.5 553.5,-58.5"/>
<text text-anchor="middle" x="574" y="-66.5" font-family="DejaVuSans" font-size="10.00">QList</text>
</g>
<!-- Node17&#45;&gt;Node19 -->
<g id="edge36" class="edge"><title>Node17&#45;&gt;Node19</title>
<path fill="none" stroke="midnightblue" d="M680.458,-116.497C659.074,-106.956 627.417,-92.8322 604.181,-82.4655"/>
<polygon fill="midnightblue" stroke="midnightblue" points="605.352,-79.1552 594.793,-78.277 602.5,-85.5478 605.352,-79.1552"/>
</g>
<!-- Node20 -->
<g id="node39" class="node"><title>Node20</title>
<polygon fill="white" stroke="#bfbfbf" points="611.5,-58.5 611.5,-79.5 662.5,-79.5 662.5,-58.5 611.5,-58.5"/>
<text text-anchor="middle" x="637" y="-66.5" font-family="DejaVuSans" font-size="10.00">QEvent</text>
</g>
<!-- Node17&#45;&gt;Node20 -->
<g id="edge38" class="edge"><title>Node17&#45;&gt;Node20</title>
<path fill="none" stroke="midnightblue" d="M691.711,-116.362C681.983,-107.941 668.202,-96.0105 656.905,-86.2308"/>
<polygon fill="midnightblue" stroke="midnightblue" points="659.062,-83.4695 649.211,-79.5707 654.481,-88.7619 659.062,-83.4695"/>
</g>
<!-- Node17&#45;&gt;Node21 -->
<g id="edge40" class="edge"><title>Node17&#45;&gt;Node21</title>
<path fill="none" stroke="midnightblue" d="M716.839,-116.362C727.002,-107.941 741.401,-96.0105 753.204,-86.2308"/>
<polygon fill="midnightblue" stroke="midnightblue" points="755.775,-88.6459 761.242,-79.5707 751.309,-83.2558 755.775,-88.6459"/>
</g>
<!-- Node22&#45;&gt;Node5 -->
<g id="edge44" class="edge"><title>Node22&#45;&gt;Node5</title>
<path fill="none" stroke="midnightblue" d="M181.627,-116.497C232.959,-105.176 313.554,-87.4025 360.226,-77.1098"/>
<polygon fill="midnightblue" stroke="midnightblue" points="361.194,-80.4805 370.206,-74.9089 359.687,-73.6447 361.194,-80.4805"/>
</g>
<!-- Node23 -->
<g id="node46" class="node"><title>Node23</title>
<polygon fill="white" stroke="#bfbfbf" points="-0.5,-58.5 -0.5,-79.5 140.5,-79.5 140.5,-58.5 -0.5,-58.5"/>
<text text-anchor="middle" x="70" y="-66.5" font-family="DejaVuSans" font-size="10.00">Datatypes/cv_TraitDetail.h</text>
</g>
<!-- Node22&#45;&gt;Node23 -->
<g id="edge46" class="edge"><title>Node22&#45;&gt;Node23</title>
<path fill="none" stroke="midnightblue" d="M122.261,-116.362C113.059,-108.023 100.06,-96.2418 89.3283,-86.5162"/>
<polygon fill="midnightblue" stroke="midnightblue" points="91.4244,-83.6924 81.6642,-79.5707 86.7237,-88.8793 91.4244,-83.6924"/>
</g>
<!-- Node24 -->
<g id="node48" class="node"><title>Node24</title>
<a xlink:href="_checked_list_8h.html" target="_top" xlink:title="CheckedList.h">
<polygon fill="white" stroke="black" points="157.5,-58.5 157.5,-79.5 240.5,-79.5 240.5,-58.5 157.5,-58.5"/>
<text text-anchor="middle" x="199" y="-66.5" font-family="DejaVuSans" font-size="10.00">CheckedList.h</text>
</a>
</g>
<!-- Node22&#45;&gt;Node24 -->
<g id="edge48" class="edge"><title>Node22&#45;&gt;Node24</title>
<path fill="none" stroke="midnightblue" d="M145.922,-116.362C155.359,-107.941 168.73,-96.0105 179.69,-86.2308"/>
<polygon fill="midnightblue" stroke="midnightblue" points="182.022,-88.8401 187.154,-79.5707 177.362,-83.6171 182.022,-88.8401"/>
</g>
<!-- Node25 -->
<g id="node50" class="node"><title>Node25</title>
<polygon fill="white" stroke="#bfbfbf" points="162.5,-0.5 162.5,-21.5 235.5,-21.5 235.5,-0.5 162.5,-0.5"/>
<text text-anchor="middle" x="199" y="-8.5" font-family="DejaVuSans" font-size="10.00">QListWidget</text>
</g>
<!-- Node24&#45;&gt;Node25 -->
<g id="edge50" class="edge"><title>Node24&#45;&gt;Node25</title>
<path fill="none" stroke="midnightblue" d="M199,-58.3619C199,-50.9219 199,-40.7427 199,-31.7276"/>
<polygon fill="midnightblue" stroke="midnightblue" points="202.5,-31.5706 199,-21.5707 195.5,-31.5707 202.5,-31.5706"/>
</g>
</g>
</svg>
