<?xml version="1.0" encoding="UTF-8" standalone="no"?>
<!DOCTYPE svg PUBLIC "-//W3C//DTD SVG 1.1//EN"
 "http://www.w3.org/Graphics/SVG/1.1/DTD/svg11.dtd">
<!-- Generated by graphviz version 2.26.3 (20100126.1600)
 -->
<!-- Title: G Pages: 1 -->
<svg width="396pt" height="262pt"
 viewBox="0.00 0.00 396.00 262.00" xmlns="http://www.w3.org/2000/svg" xmlns:xlink="http://www.w3.org/1999/xlink">
<g id="graph1" class="graph" transform="scale(1 1) rotate(0) translate(4 258)">
<title>G</title>
<polygon fill="white" stroke="white" points="-4,5 -4,-258 393,-258 393,5 -4,5"/>
<!-- Node1 -->
<g id="node1" class="node"><title>Node1</title>
<polygon fill="#bfbfbf" stroke="black" points="9.5,-232.5 9.5,-253.5 184.5,-253.5 184.5,-232.5 9.5,-232.5"/>
<text text-anchor="middle" x="97" y="-240.5" font-family="DejaVuSans" font-size="10.00">src/Widgets/CharaSpecialties.cpp</text>
</g>
<!-- Node2 -->
<g id="node3" class="node"><title>Node2</title>
<polygon fill="white" stroke="#bfbfbf" points="20,-174.5 20,-195.5 76,-195.5 76,-174.5 20,-174.5"/>
<text text-anchor="middle" x="48" y="-182.5" font-family="DejaVuSans" font-size="10.00">QDebug</text>
</g>
<!-- Node1&#45;&gt;Node2 -->
<g id="edge2" class="edge"><title>Node1&#45;&gt;Node2</title>
<path fill="none" stroke="midnightblue" d="M88.0126,-232.362C81.1745,-224.268 71.5976,-212.932 63.5276,-203.38"/>
<polygon fill="midnightblue" stroke="midnightblue" points="66.0575,-200.951 56.9304,-195.571 60.7103,-205.468 66.0575,-200.951"/>
</g>
<!-- Node3 -->
<g id="node5" class="node"><title>Node3</title>
<a xlink:href="_chara_specialties_8h.html" target="_top" xlink:title="CharaSpecialties.h">
<polygon fill="white" stroke="black" points="94,-174.5 94,-195.5 200,-195.5 200,-174.5 94,-174.5"/>
<text text-anchor="middle" x="147" y="-182.5" font-family="DejaVuSans" font-size="10.00">CharaSpecialties.h</text>
</a>
</g>
<!-- Node1&#45;&gt;Node3 -->
<g id="edge4" class="edge"><title>Node1&#45;&gt;Node3</title>
<path fill="none" stroke="midnightblue" d="M106.171,-232.362C113.148,-224.268 122.921,-212.932 131.156,-203.38"/>
<polygon fill="midnightblue" stroke="midnightblue" points="134.009,-205.43 137.887,-195.571 128.707,-200.859 134.009,-205.43"/>
</g>
<!-- Node4 -->
<g id="node7" class="node"><title>Node4</title>
<polygon fill="white" stroke="#bfbfbf" points="0,-116.5 0,-137.5 152,-137.5 152,-116.5 0,-116.5"/>
<text text-anchor="middle" x="76" y="-124.5" font-family="DejaVuSans" font-size="10.00">Storage/StorageCharacter.h</text>
</g>
<!-- Node3&#45;&gt;Node4 -->
<g id="edge6" class="edge"><title>Node3&#45;&gt;Node4</title>
<path fill="none" stroke="midnightblue" d="M133.978,-174.362C123.569,-165.859 108.781,-153.779 96.7449,-143.947"/>
<polygon fill="midnightblue" stroke="midnightblue" points="98.8987,-141.187 88.9399,-137.571 94.4701,-146.608 98.8987,-141.187"/>
</g>
<!-- Node5 -->
<g id="node9" class="node"><title>Node5</title>
<a xlink:href="_trait_specialties_8h.html" target="_top" xlink:title="TraitSpecialties.h">
<polygon fill="white" stroke="black" points="169.5,-116.5 169.5,-137.5 266.5,-137.5 266.5,-116.5 169.5,-116.5"/>
<text text-anchor="middle" x="218" y="-124.5" font-family="DejaVuSans" font-size="10.00">TraitSpecialties.h</text>
</a>
</g>
<!-- Node3&#45;&gt;Node5 -->
<g id="edge8" class="edge"><title>Node3&#45;&gt;Node5</title>
<path fill="none" stroke="midnightblue" d="M160.022,-174.362C170.431,-165.859 185.219,-153.779 197.255,-143.947"/>
<polygon fill="midnightblue" stroke="midnightblue" points="199.53,-146.608 205.06,-137.571 195.101,-141.187 199.53,-146.608"/>
</g>
<!-- Node6 -->
<g id="node11" class="node"><title>Node6</title>
<polygon fill="white" stroke="#bfbfbf" points="77.5,-58.5 77.5,-79.5 130.5,-79.5 130.5,-58.5 77.5,-58.5"/>
<text text-anchor="middle" x="104" y="-66.5" font-family="DejaVuSans" font-size="10.00">QString</text>
</g>
<!-- Node5&#45;&gt;Node6 -->
<g id="edge10" class="edge"><title>Node5&#45;&gt;Node6</title>
<path fill="none" stroke="midnightblue" d="M197.355,-116.497C179.63,-107.479 153.855,-94.3649 133.877,-84.2006"/>
<polygon fill="midnightblue" stroke="midnightblue" points="135.376,-81.0364 124.876,-79.6212 132.202,-87.2753 135.376,-81.0364"/>
</g>
<!-- Node7 -->
<g id="node13" class="node"><title>Node7</title>
<polygon fill="white" stroke="#bfbfbf" points="147.5,-58.5 147.5,-79.5 288.5,-79.5 288.5,-58.5 147.5,-58.5"/>
<text text-anchor="middle" x="218" y="-66.5" font-family="DejaVuSans" font-size="10.00">Datatypes/cv_TraitDetail.h</text>
</g>
<!-- Node5&#45;&gt;Node7 -->
<g id="edge12" class="edge"><title>Node5&#45;&gt;Node7</title>
<path fill="none" stroke="midnightblue" d="M218,-116.362C218,-108.922 218,-98.7427 218,-89.7276"/>
<polygon fill="midnightblue" stroke="midnightblue" points="221.5,-89.5706 218,-79.5707 214.5,-89.5707 221.5,-89.5706"/>
</g>
<!-- Node8 -->
<g id="node15" class="node"><title>Node8</title>
<a xlink:href="_checked_list_8h.html" target="_top" xlink:title="CheckedList.h">
<polygon fill="white" stroke="black" points="305.5,-58.5 305.5,-79.5 388.5,-79.5 388.5,-58.5 305.5,-58.5"/>
<text text-anchor="middle" x="347" y="-66.5" font-family="DejaVuSans" font-size="10.00">CheckedList.h</text>
</a>
</g>
<!-- Node5&#45;&gt;Node8 -->
<g id="edge14" class="edge"><title>Node5&#45;&gt;Node8</title>
<path fill="none" stroke="midnightblue" d="M241.361,-116.497C261.691,-107.356 291.378,-94.0082 314.109,-83.7883"/>
<polygon fill="midnightblue" stroke="midnightblue" points="315.692,-86.9142 323.377,-79.6212 312.821,-80.5298 315.692,-86.9142"/>
</g>
<!-- Node9 -->
<g id="node17" class="node"><title>Node9</title>
<polygon fill="white" stroke="#bfbfbf" points="310.5,-0.5 310.5,-21.5 383.5,-21.5 383.5,-0.5 310.5,-0.5"/>
<text text-anchor="middle" x="347" y="-8.5" font-family="DejaVuSans" font-size="10.00">QListWidget</text>
</g>
<!-- Node8&#45;&gt;Node9 -->
<g id="edge16" class="edge"><title>Node8&#45;&gt;Node9</title>
<path fill="none" stroke="midnightblue" d="M347,-58.3619C347,-50.9219 347,-40.7427 347,-31.7276"/>
<polygon fill="midnightblue" stroke="midnightblue" points="350.5,-31.5706 347,-21.5707 343.5,-31.5707 350.5,-31.5706"/>
</g>
</g>
</svg>
