<?xml version="1.0" encoding="UTF-8" standalone="no"?>
<!DOCTYPE svg PUBLIC "-//W3C//DTD SVG 1.1//EN"
 "http://www.w3.org/Graphics/SVG/1.1/DTD/svg11.dtd">
<!-- Generated by graphviz version 2.26.3 (20100126.1600)
 -->
<!-- Title: G Pages: 1 -->
<svg width="931pt" height="436pt"
 viewBox="0.00 0.00 931.00 436.00" xmlns="http://www.w3.org/2000/svg" xmlns:xlink="http://www.w3.org/1999/xlink">
<g id="graph1" class="graph" transform="scale(1 1) rotate(0) translate(4 432)">
<title>G</title>
<polygon fill="white" stroke="white" points="-4,5 -4,-432 928,-432 928,5 -4,5"/>
<!-- Node1 -->
<g id="node1" class="node"><title>Node1</title>
<polygon fill="#bfbfbf" stroke="black" points="211.5,-406.5 211.5,-427.5 388.5,-427.5 388.5,-406.5 211.5,-406.5"/>
<text text-anchor="middle" x="300" y="-414.5" font-family="DejaVuSans" font-size="10.00">src/Widgets/CharaComboTrait.cpp</text>
</g>
<!-- Node2 -->
<g id="node3" class="node"><title>Node2</title>
<polygon fill="white" stroke="#bfbfbf" points="222,-348.5 222,-369.5 278,-369.5 278,-348.5 222,-348.5"/>
<text text-anchor="middle" x="250" y="-356.5" font-family="DejaVuSans" font-size="10.00">QDebug</text>
</g>
<!-- Node1&#45;&gt;Node2 -->
<g id="edge2" class="edge"><title>Node1&#45;&gt;Node2</title>
<path fill="none" stroke="midnightblue" d="M290.829,-406.362C283.852,-398.268 274.079,-386.932 265.844,-377.38"/>
<polygon fill="midnightblue" stroke="midnightblue" points="268.293,-374.859 259.113,-369.571 262.991,-379.43 268.293,-374.859"/>
</g>
<!-- Node3 -->
<g id="node5" class="node"><title>Node3</title>
<a xlink:href="_chara_combo_trait_8h.html" target="_top" xlink:title="CharaComboTrait.h">
<polygon fill="white" stroke="black" points="296,-348.5 296,-369.5 404,-369.5 404,-348.5 296,-348.5"/>
<text text-anchor="middle" x="350" y="-356.5" font-family="DejaVuSans" font-size="10.00">CharaComboTrait.h</text>
</a>
</g>
<!-- Node1&#45;&gt;Node3 -->
<g id="edge4" class="edge"><title>Node1&#45;&gt;Node3</title>
<path fill="none" stroke="midnightblue" d="M309.171,-406.362C316.148,-398.268 325.921,-386.932 334.156,-377.38"/>
<polygon fill="midnightblue" stroke="midnightblue" points="337.009,-379.43 340.887,-369.571 331.707,-374.859 337.009,-379.43"/>
</g>
<!-- Node4 -->
<g id="node7" class="node"><title>Node4</title>
<polygon fill="white" stroke="#bfbfbf" points="264.5,-290.5 264.5,-311.5 341.5,-311.5 341.5,-290.5 264.5,-290.5"/>
<text text-anchor="middle" x="303" y="-298.5" font-family="DejaVuSans" font-size="10.00">QComboBox</text>
</g>
<!-- Node3&#45;&gt;Node4 -->
<g id="edge6" class="edge"><title>Node3&#45;&gt;Node4</title>
<path fill="none" stroke="midnightblue" d="M341.379,-348.362C334.82,-340.268 325.634,-328.932 317.894,-319.38"/>
<polygon fill="midnightblue" stroke="midnightblue" points="320.581,-317.136 311.566,-311.571 315.142,-321.544 320.581,-317.136"/>
</g>
<!-- Node5 -->
<g id="node9" class="node"><title>Node5</title>
<a xlink:href="_chara_trait_8h.html" target="_top" xlink:title="CharaTrait.h">
<polygon fill="white" stroke="black" points="359,-290.5 359,-311.5 433,-311.5 433,-290.5 359,-290.5"/>
<text text-anchor="middle" x="396" y="-298.5" font-family="DejaVuSans" font-size="10.00">CharaTrait.h</text>
</a>
</g>
<!-- Node3&#45;&gt;Node5 -->
<g id="edge8" class="edge"><title>Node3&#45;&gt;Node5</title>
<path fill="none" stroke="midnightblue" d="M358.437,-348.362C364.792,-340.35 373.666,-329.161 381.193,-319.67"/>
<polygon fill="midnightblue" stroke="midnightblue" points="384.145,-321.581 387.616,-311.571 378.66,-317.231 384.145,-321.581"/>
</g>
<!-- Node6 -->
<g id="node11" class="node"><title>Node6</title>
<a xlink:href="_storage_character_8h.html" target="_top" xlink:title="../Storage/StorageCharacter.h">
<polygon fill="white" stroke="black" points="134.5,-232.5 134.5,-253.5 295.5,-253.5 295.5,-232.5 134.5,-232.5"/>
<text text-anchor="middle" x="215" y="-240.5" font-family="DejaVuSans" font-size="10.00">../Storage/StorageCharacter.h</text>
</a>
</g>
<!-- Node5&#45;&gt;Node6 -->
<g id="edge10" class="edge"><title>Node5&#45;&gt;Node6</title>
<path fill="none" stroke="midnightblue" d="M363.222,-290.497C333.587,-281 289.778,-266.962 257.469,-256.609"/>
<polygon fill="midnightblue" stroke="midnightblue" points="258.43,-253.242 247.839,-253.523 256.294,-259.908 258.43,-253.242"/>
</g>
<!-- Node7 -->
<g id="node13" class="node"><title>Node7</title>
<a xlink:href="cv___trait_8h.html" target="_top" xlink:title="../Datatypes/cv_Trait.h">
<polygon fill="white" stroke="black" points="238,-174.5 238,-195.5 360,-195.5 360,-174.5 238,-174.5"/>
<text text-anchor="middle" x="299" y="-182.5" font-family="DejaVuSans" font-size="10.00">../Datatypes/cv_Trait.h</text>
</a>
</g>
<!-- Node5&#45;&gt;Node7 -->
<g id="edge50" class="edge"><title>Node5&#45;&gt;Node7</title>
<path fill="none" stroke="midnightblue" d="M387.048,-290.295C370.518,-270.527 335.024,-228.08 314.507,-203.544"/>
<polygon fill="midnightblue" stroke="midnightblue" points="317.03,-201.105 307.93,-195.679 311.66,-205.596 317.03,-201.105"/>
</g>
<!-- Node13 -->
<g id="node26" class="node"><title>Node13</title>
<a xlink:href="cv___trait_detail_8h.html" target="_top" xlink:title="cv_TraitDetail.h">
<polygon fill="white" stroke="black" points="445.5,-116.5 445.5,-137.5 534.5,-137.5 534.5,-116.5 445.5,-116.5"/>
<text text-anchor="middle" x="490" y="-124.5" font-family="DejaVuSans" font-size="10.00">cv_TraitDetail.h</text>
</a>
</g>
<!-- Node5&#45;&gt;Node13 -->
<g id="edge52" class="edge"><title>Node5&#45;&gt;Node13</title>
<path fill="none" stroke="midnightblue" d="M398.542,-290.479C404.319,-267.869 419.909,-213.497 445,-174 451.864,-163.195 461.468,-152.747 470.041,-144.457"/>
<polygon fill="midnightblue" stroke="midnightblue" points="472.58,-146.876 477.517,-137.502 467.812,-141.751 472.58,-146.876"/>
</g>
<!-- Node17 -->
<g id="node44" class="node"><title>Node17</title>
<a xlink:href="_trait_line_8h.html" target="_top" xlink:title="TraitLine.h">
<polygon fill="white" stroke="black" points="582.5,-232.5 582.5,-253.5 647.5,-253.5 647.5,-232.5 582.5,-232.5"/>
<text text-anchor="middle" x="615" y="-240.5" font-family="DejaVuSans" font-size="10.00">TraitLine.h</text>
</a>
</g>
<!-- Node5&#45;&gt;Node17 -->
<g id="edge54" class="edge"><title>Node5&#45;&gt;Node17</title>
<path fill="none" stroke="midnightblue" d="M433.15,-291.161C471.738,-280.942 532.023,-264.976 572.487,-254.259"/>
<polygon fill="midnightblue" stroke="midnightblue" points="573.552,-257.598 582.323,-251.654 571.76,-250.831 573.552,-257.598"/>
</g>
<!-- Node6&#45;&gt;Node7 -->
<g id="edge12" class="edge"><title>Node6&#45;&gt;Node7</title>
<path fill="none" stroke="midnightblue" d="M230.407,-232.362C242.958,-223.696 260.892,-211.313 275.275,-201.382"/>
<polygon fill="midnightblue" stroke="midnightblue" points="277.45,-204.133 283.691,-195.571 273.473,-198.372 277.45,-204.133"/>
</g>
<!-- Node14 -->
<g id="node32" class="node"><title>Node14</title>
<a xlink:href="cv___name_list_8h.html" target="_top" xlink:title="../Datatypes/cv_NameList.h">
<polygon fill="white" stroke="black" points="-0.5,-174.5 -0.5,-195.5 148.5,-195.5 148.5,-174.5 -0.5,-174.5"/>
<text text-anchor="middle" x="74" y="-182.5" font-family="DejaVuSans" font-size="10.00">../Datatypes/cv_NameList.h</text>
</a>
</g>
<!-- Node6&#45;&gt;Node14 -->
<g id="edge36" class="edge"><title>Node6&#45;&gt;Node14</title>
<path fill="none" stroke="midnightblue" d="M189.466,-232.497C167.047,-223.275 134.215,-209.769 109.287,-199.515"/>
<polygon fill="midnightblue" stroke="midnightblue" points="110.4,-196.189 99.8206,-195.621 107.737,-202.662 110.4,-196.189"/>
</g>
<!-- Node16 -->
<g id="node40" class="node"><title>Node16</title>
<polygon fill="white" stroke="#bfbfbf" points="165.5,-174.5 165.5,-195.5 220.5,-195.5 220.5,-174.5 165.5,-174.5"/>
<text text-anchor="middle" x="193" y="-182.5" font-family="DejaVuSans" font-size="10.00">QObject</text>
</g>
<!-- Node6&#45;&gt;Node16 -->
<g id="edge48" class="edge"><title>Node6&#45;&gt;Node16</title>
<path fill="none" stroke="midnightblue" d="M210.965,-232.362C208.081,-224.758 204.112,-214.294 200.637,-205.135"/>
<polygon fill="midnightblue" stroke="midnightblue" points="203.829,-203.679 197.01,-195.571 197.284,-206.162 203.829,-203.679"/>
</g>
<!-- Node8 -->
<g id="node15" class="node"><title>Node8</title>
<polygon fill="white" stroke="#bfbfbf" points="265.5,-116.5 265.5,-137.5 314.5,-137.5 314.5,-116.5 265.5,-116.5"/>
<text text-anchor="middle" x="290" y="-124.5" font-family="DejaVuSans" font-size="10.00">QFlags</text>
</g>
<!-- Node7&#45;&gt;Node8 -->
<g id="edge14" class="edge"><title>Node7&#45;&gt;Node8</title>
<path fill="none" stroke="midnightblue" d="M297.349,-174.362C296.195,-166.922 294.615,-156.743 293.216,-147.728"/>
<polygon fill="midnightblue" stroke="midnightblue" points="296.632,-146.916 291.64,-137.571 289.715,-147.989 296.632,-146.916"/>
</g>
<!-- Node9 -->
<g id="node17" class="node"><title>Node9</title>
<polygon fill="white" stroke="#bfbfbf" points="325.5,-0.5 325.5,-21.5 378.5,-21.5 378.5,-0.5 325.5,-0.5"/>
<text text-anchor="middle" x="352" y="-8.5" font-family="DejaVuSans" font-size="10.00">QString</text>
</g>
<!-- Node7&#45;&gt;Node9 -->
<g id="edge16" class="edge"><title>Node7&#45;&gt;Node9</title>
<path fill="none" stroke="midnightblue" d="M285.144,-174.337C275.206,-165.753 262.619,-152.722 257,-138 253.513,-128.865 253.883,-125.267 257,-116 269.705,-78.2321 304.408,-46.1958 328.158,-27.7745"/>
<polygon fill="midnightblue" stroke="midnightblue" points="330.459,-30.4235 336.351,-21.6183 326.254,-24.8271 330.459,-30.4235"/>
</g>
<!-- Node10 -->
<g id="node19" class="node"><title>Node10</title>
<polygon fill="white" stroke="#bfbfbf" points="397.5,-58.5 397.5,-79.5 438.5,-79.5 438.5,-58.5 397.5,-58.5"/>
<text text-anchor="middle" x="418" y="-66.5" font-family="DejaVuSans" font-size="10.00">QList</text>
</g>
<!-- Node7&#45;&gt;Node10 -->
<g id="edge18" class="edge"><title>Node7&#45;&gt;Node10</title>
<path fill="none" stroke="midnightblue" d="M309.982,-174.295C330.438,-154.355 374.568,-111.337 399.631,-86.9056"/>
<polygon fill="midnightblue" stroke="midnightblue" points="402.327,-89.1657 407.045,-79.6792 397.441,-84.1532 402.327,-89.1657"/>
</g>
<!-- Node11 -->
<g id="node21" class="node"><title>Node11</title>
<polygon fill="white" stroke="#bfbfbf" points="309.5,-58.5 309.5,-79.5 378.5,-79.5 378.5,-58.5 309.5,-58.5"/>
<text text-anchor="middle" x="344" y="-66.5" font-family="DejaVuSans" font-size="10.00">QStringList</text>
</g>
<!-- Node7&#45;&gt;Node11 -->
<g id="edge20" class="edge"><title>Node7&#45;&gt;Node11</title>
<path fill="none" stroke="midnightblue" d="M305.083,-174.425C310.302,-165.061 317.786,-150.913 323,-138 329.363,-122.242 334.882,-103.799 338.663,-89.947"/>
<polygon fill="midnightblue" stroke="midnightblue" points="342.131,-90.5238 341.306,-79.9612 335.364,-88.7329 342.131,-90.5238"/>
</g>
<!-- Node12 -->
<g id="node23" class="node"><title>Node12</title>
<a xlink:href="cv___species_8h.html" target="_top" xlink:title="cv_Species.h">
<polygon fill="white" stroke="black" points="493.5,-58.5 493.5,-79.5 572.5,-79.5 572.5,-58.5 493.5,-58.5"/>
<text text-anchor="middle" x="533" y="-66.5" font-family="DejaVuSans" font-size="10.00">cv_Species.h</text>
</a>
</g>
<!-- Node7&#45;&gt;Node12 -->
<g id="edge22" class="edge"><title>Node7&#45;&gt;Node12</title>
<path fill="none" stroke="midnightblue" d="M360.106,-181.873C424.663,-177.14 520.235,-165.568 543,-138 554.147,-124.501 549.507,-104.233 543.361,-89.1515"/>
<polygon fill="midnightblue" stroke="midnightblue" points="546.377,-87.33 539.04,-79.6864 540.009,-90.2369 546.377,-87.33"/>
</g>
<!-- Node7&#45;&gt;Node13 -->
<g id="edge26" class="edge"><title>Node7&#45;&gt;Node13</title>
<path fill="none" stroke="midnightblue" d="M333.589,-174.497C364.996,-164.959 411.49,-150.841 445.625,-140.475"/>
<polygon fill="midnightblue" stroke="midnightblue" points="446.795,-143.778 455.346,-137.523 444.761,-137.08 446.795,-143.778"/>
</g>
<!-- Node12&#45;&gt;Node9 -->
<g id="edge24" class="edge"><title>Node12&#45;&gt;Node9</title>
<path fill="none" stroke="midnightblue" d="M500.222,-58.4966C468.648,-48.3789 420.985,-33.1057 388.282,-22.6264"/>
<polygon fill="midnightblue" stroke="midnightblue" points="389.239,-19.2577 378.648,-19.5391 387.103,-25.9238 389.239,-19.2577"/>
</g>
<!-- Node13&#45;&gt;Node9 -->
<g id="edge28" class="edge"><title>Node13&#45;&gt;Node9</title>
<path fill="none" stroke="midnightblue" d="M485.641,-116.387C479.131,-101.642 465.613,-74.8755 447,-58 430.051,-42.6336 407.158,-31.1073 388.092,-23.3154"/>
<polygon fill="midnightblue" stroke="midnightblue" points="389.11,-19.9559 378.522,-19.5807 386.565,-26.4769 389.11,-19.9559"/>
</g>
<!-- Node13&#45;&gt;Node10 -->
<g id="edge30" class="edge"><title>Node13&#45;&gt;Node10</title>
<path fill="none" stroke="midnightblue" d="M476.794,-116.362C466.239,-107.859 451.242,-95.7785 439.037,-85.9466"/>
<polygon fill="midnightblue" stroke="midnightblue" points="441.105,-83.1183 431.122,-79.5707 436.714,-88.5696 441.105,-83.1183"/>
</g>
<!-- Node13&#45;&gt;Node11 -->
<g id="edge32" class="edge"><title>Node13&#45;&gt;Node11</title>
<path fill="none" stroke="midnightblue" d="M463.561,-116.497C440.244,-107.234 406.05,-93.6499 380.196,-83.3793"/>
<polygon fill="midnightblue" stroke="midnightblue" points="381.322,-80.0605 370.736,-79.6212 378.737,-86.566 381.322,-80.0605"/>
</g>
<!-- Node13&#45;&gt;Node12 -->
<g id="edge34" class="edge"><title>Node13&#45;&gt;Node12</title>
<path fill="none" stroke="midnightblue" d="M497.887,-116.362C503.827,-108.35 512.122,-97.1605 519.159,-87.6696"/>
<polygon fill="midnightblue" stroke="midnightblue" points="522.019,-89.6883 525.163,-79.5707 516.396,-85.5193 522.019,-89.6883"/>
</g>
<!-- Node14&#45;&gt;Node9 -->
<g id="edge38" class="edge"><title>Node14&#45;&gt;Node9</title>
<path fill="none" stroke="midnightblue" d="M74.5515,-174.113C75.7951,-159.529 79.8409,-133.466 93,-116 146.873,-44.4962 257.637,-21.5196 315.295,-14.2631"/>
<polygon fill="midnightblue" stroke="midnightblue" points="315.89,-17.7175 325.418,-13.0829 315.08,-10.7646 315.89,-17.7175"/>
</g>
<!-- Node14&#45;&gt;Node10 -->
<g id="edge46" class="edge"><title>Node14&#45;&gt;Node10</title>
<path fill="none" stroke="midnightblue" d="M99.7996,-174.427C134.996,-160.198 200.188,-134.535 257,-116 313.996,-97.4053 329.825,-98.0356 387,-80 387.211,-79.9334 387.423,-79.8664 387.635,-79.7988"/>
<polygon fill="midnightblue" stroke="midnightblue" points="389.014,-83.0283 397.392,-76.5418 386.798,-76.3885 389.014,-83.0283"/>
</g>
<!-- Node15 -->
<g id="node35" class="node"><title>Node15</title>
<a xlink:href="cv___name_8h.html" target="_top" xlink:title="cv_Name.h">
<polygon fill="white" stroke="black" points="101.5,-116.5 101.5,-137.5 172.5,-137.5 172.5,-116.5 101.5,-116.5"/>
<text text-anchor="middle" x="137" y="-124.5" font-family="DejaVuSans" font-size="10.00">cv_Name.h</text>
</a>
</g>
<!-- Node14&#45;&gt;Node15 -->
<g id="edge40" class="edge"><title>Node14&#45;&gt;Node15</title>
<path fill="none" stroke="midnightblue" d="M85.5552,-174.362C94.6134,-166.023 107.41,-154.242 117.974,-144.516"/>
<polygon fill="midnightblue" stroke="midnightblue" points="120.532,-146.919 125.518,-137.571 115.79,-141.769 120.532,-146.919"/>
</g>
<!-- Node15&#45;&gt;Node9 -->
<g id="edge44" class="edge"><title>Node15&#45;&gt;Node9</title>
<path fill="none" stroke="midnightblue" d="M147.973,-116.362C163.702,-101.589 194.072,-74.7879 224,-58 253.292,-41.5686 289.43,-28.9143 315.83,-20.8972"/>
<polygon fill="midnightblue" stroke="midnightblue" points="316.841,-24.2481 325.436,-18.0535 314.854,-17.536 316.841,-24.2481"/>
</g>
<!-- Node15&#45;&gt;Node11 -->
<g id="edge42" class="edge"><title>Node15&#45;&gt;Node11</title>
<path fill="none" stroke="midnightblue" d="M172.585,-117.029C207.708,-107.188 261.513,-92.1123 299.457,-81.4807"/>
<polygon fill="midnightblue" stroke="midnightblue" points="300.539,-84.8122 309.224,-78.7439 298.651,-78.0718 300.539,-84.8122"/>
</g>
<!-- Node17&#45;&gt;Node11 -->
<g id="edge56" class="edge"><title>Node17&#45;&gt;Node11</title>
<path fill="none" stroke="midnightblue" d="M582.46,-240.055C546.29,-235.478 487.397,-224.041 445,-196 402.753,-168.058 370.027,-116.718 354.289,-88.6306"/>
<polygon fill="midnightblue" stroke="midnightblue" points="357.303,-86.8463 349.443,-79.7419 351.157,-90.1972 357.303,-86.8463"/>
</g>
<!-- Node18 -->
<g id="node47" class="node"><title>Node18</title>
<polygon fill="white" stroke="#bfbfbf" points="820,-174.5 820,-195.5 902,-195.5 902,-174.5 820,-174.5"/>
<text text-anchor="middle" x="861" y="-182.5" font-family="DejaVuSans" font-size="10.00">QHBoxLayout</text>
</g>
<!-- Node17&#45;&gt;Node18 -->
<g id="edge58" class="edge"><title>Node17&#45;&gt;Node18</title>
<path fill="none" stroke="midnightblue" d="M647.667,-235.298C689.153,-225.517 761.195,-208.531 809.961,-197.034"/>
<polygon fill="midnightblue" stroke="midnightblue" points="811.064,-200.37 819.994,-194.668 809.458,-193.556 811.064,-200.37"/>
</g>
<!-- Node19 -->
<g id="node49" class="node"><title>Node19</title>
<polygon fill="white" stroke="#bfbfbf" points="454,-174.5 454,-195.5 504,-195.5 504,-174.5 454,-174.5"/>
<text text-anchor="middle" x="479" y="-182.5" font-family="DejaVuSans" font-size="10.00">QLabel</text>
</g>
<!-- Node17&#45;&gt;Node19 -->
<g id="edge60" class="edge"><title>Node17&#45;&gt;Node19</title>
<path fill="none" stroke="midnightblue" d="M590.371,-232.497C568.843,-223.315 537.36,-209.889 513.355,-199.652"/>
<polygon fill="midnightblue" stroke="midnightblue" points="514.476,-196.325 503.905,-195.621 511.73,-202.764 514.476,-196.325"/>
</g>
<!-- Node20 -->
<g id="node51" class="node"><title>Node20</title>
<polygon fill="white" stroke="#bfbfbf" points="522,-174.5 522,-195.5 602,-195.5 602,-174.5 522,-174.5"/>
<text text-anchor="middle" x="562" y="-182.5" font-family="DejaVuSans" font-size="10.00">QPushButton</text>
</g>
<!-- Node17&#45;&gt;Node20 -->
<g id="edge62" class="edge"><title>Node17&#45;&gt;Node20</title>
<path fill="none" stroke="midnightblue" d="M605.279,-232.362C597.808,-224.186 587.314,-212.702 578.531,-203.091"/>
<polygon fill="midnightblue" stroke="midnightblue" points="580.989,-200.592 571.659,-195.571 575.821,-205.314 580.989,-200.592"/>
</g>
<!-- Node21 -->
<g id="node53" class="node"><title>Node21</title>
<a xlink:href="_trait_dots_8h.html" target="_top" xlink:title="TraitDots.h">
<polygon fill="white" stroke="black" points="734,-174.5 734,-195.5 802,-195.5 802,-174.5 734,-174.5"/>
<text text-anchor="middle" x="768" y="-182.5" font-family="DejaVuSans" font-size="10.00">TraitDots.h</text>
</a>
</g>
<!-- Node17&#45;&gt;Node21 -->
<g id="edge64" class="edge"><title>Node17&#45;&gt;Node21</title>
<path fill="none" stroke="midnightblue" d="M642.707,-232.497C667.326,-223.164 703.517,-209.445 730.68,-199.147"/>
<polygon fill="midnightblue" stroke="midnightblue" points="732.131,-202.341 740.241,-195.523 729.65,-195.795 732.131,-202.341"/>
</g>
<!-- Node22 -->
<g id="node55" class="node"><title>Node22</title>
<polygon fill="white" stroke="#bfbfbf" points="867,-116.5 867,-137.5 923,-137.5 923,-116.5 867,-116.5"/>
<text text-anchor="middle" x="895" y="-124.5" font-family="DejaVuSans" font-size="10.00">QWidget</text>
</g>
<!-- Node17&#45;&gt;Node22 -->
<g id="edge82" class="edge"><title>Node17&#45;&gt;Node22</title>
<path fill="none" stroke="midnightblue" d="M647.767,-240.177C721.23,-233.519 894.023,-215.885 911,-196 922.659,-182.344 915.812,-161.819 907.778,-146.703"/>
<polygon fill="midnightblue" stroke="midnightblue" points="910.573,-144.549 902.509,-137.677 904.528,-148.078 910.573,-144.549"/>
</g>
<!-- Node24 -->
<g id="node60" class="node"><title>Node24</title>
<a xlink:href="_trait_specialties_8h.html" target="_top" xlink:title="TraitSpecialties.h">
<polygon fill="white" stroke="black" points="619.5,-174.5 619.5,-195.5 716.5,-195.5 716.5,-174.5 619.5,-174.5"/>
<text text-anchor="middle" x="668" y="-182.5" font-family="DejaVuSans" font-size="10.00">TraitSpecialties.h</text>
</a>
</g>
<!-- Node17&#45;&gt;Node24 -->
<g id="edge72" class="edge"><title>Node17&#45;&gt;Node24</title>
<path fill="none" stroke="midnightblue" d="M624.721,-232.362C632.192,-224.186 642.686,-212.702 651.469,-203.091"/>
<polygon fill="midnightblue" stroke="midnightblue" points="654.179,-205.314 658.341,-195.571 649.011,-200.592 654.179,-205.314"/>
</g>
<!-- Node21&#45;&gt;Node10 -->
<g id="edge70" class="edge"><title>Node21&#45;&gt;Node10</title>
<path fill="none" stroke="midnightblue" d="M736.012,-174.398C668.895,-152.154 514.156,-100.869 448.425,-79.0836"/>
<polygon fill="midnightblue" stroke="midnightblue" points="449.26,-75.6733 438.667,-75.8495 447.058,-82.3178 449.26,-75.6733"/>
</g>
<!-- Node21&#45;&gt;Node22 -->
<g id="edge66" class="edge"><title>Node21&#45;&gt;Node22</title>
<path fill="none" stroke="midnightblue" d="M790.999,-174.497C811.013,-165.356 840.241,-152.008 862.619,-141.788"/>
<polygon fill="midnightblue" stroke="midnightblue" points="864.101,-144.959 871.743,-137.621 861.193,-138.592 864.101,-144.959"/>
</g>
<!-- Node23 -->
<g id="node57" class="node"><title>Node23</title>
<polygon fill="white" stroke="#bfbfbf" points="765.5,-116.5 765.5,-137.5 814.5,-137.5 814.5,-116.5 765.5,-116.5"/>
<text text-anchor="middle" x="790" y="-124.5" font-family="DejaVuSans" font-size="10.00">QColor</text>
</g>
<!-- Node21&#45;&gt;Node23 -->
<g id="edge68" class="edge"><title>Node21&#45;&gt;Node23</title>
<path fill="none" stroke="midnightblue" d="M772.035,-174.362C774.919,-166.758 778.888,-156.294 782.363,-147.135"/>
<polygon fill="midnightblue" stroke="midnightblue" points="785.716,-148.162 785.99,-137.571 779.171,-145.679 785.716,-148.162"/>
</g>
<!-- Node24&#45;&gt;Node9 -->
<g id="edge74" class="edge"><title>Node24&#45;&gt;Node9</title>
<path fill="none" stroke="midnightblue" d="M664.023,-174.419C654.14,-149.674 625.97,-87.87 581,-58 549.89,-37.3359 445.152,-22.0915 388.731,-15.1545"/>
<polygon fill="midnightblue" stroke="midnightblue" points="389.134,-11.6778 378.787,-13.9564 388.297,-18.6275 389.134,-11.6778"/>
</g>
<!-- Node24&#45;&gt;Node13 -->
<g id="edge76" class="edge"><title>Node24&#45;&gt;Node13</title>
<path fill="none" stroke="midnightblue" d="M635.766,-174.497C606.747,-165.041 563.91,-151.083 532.176,-140.743"/>
<polygon fill="midnightblue" stroke="midnightblue" points="532.887,-137.293 522.295,-137.523 530.719,-143.949 532.887,-137.293"/>
</g>
<!-- Node25 -->
<g id="node64" class="node"><title>Node25</title>
<a xlink:href="_checked_list_8h.html" target="_top" xlink:title="CheckedList.h">
<polygon fill="white" stroke="black" points="665.5,-116.5 665.5,-137.5 748.5,-137.5 748.5,-116.5 665.5,-116.5"/>
<text text-anchor="middle" x="707" y="-124.5" font-family="DejaVuSans" font-size="10.00">CheckedList.h</text>
</a>
</g>
<!-- Node24&#45;&gt;Node25 -->
<g id="edge78" class="edge"><title>Node24&#45;&gt;Node25</title>
<path fill="none" stroke="midnightblue" d="M675.153,-174.362C680.486,-166.431 687.911,-155.389 694.251,-145.961"/>
<polygon fill="midnightblue" stroke="midnightblue" points="697.217,-147.822 699.892,-137.571 691.408,-143.916 697.217,-147.822"/>
</g>
<!-- Node26 -->
<g id="node66" class="node"><title>Node26</title>
<polygon fill="white" stroke="#bfbfbf" points="670.5,-58.5 670.5,-79.5 743.5,-79.5 743.5,-58.5 670.5,-58.5"/>
<text text-anchor="middle" x="707" y="-66.5" font-family="DejaVuSans" font-size="10.00">QListWidget</text>
</g>
<!-- Node25&#45;&gt;Node26 -->
<g id="edge80" class="edge"><title>Node25&#45;&gt;Node26</title>
<path fill="none" stroke="midnightblue" d="M707,-116.362C707,-108.922 707,-98.7427 707,-89.7276"/>
<polygon fill="midnightblue" stroke="midnightblue" points="710.5,-89.5706 707,-79.5707 703.5,-89.5707 710.5,-89.5706"/>
</g>
</g>
</svg>
