<?xml version="1.0" encoding="UTF-8" standalone="no"?>
<!DOCTYPE svg PUBLIC "-//W3C//DTD SVG 1.1//EN"
 "http://www.w3.org/Graphics/SVG/1.1/DTD/svg11.dtd">
<!-- Generated by graphviz version 2.26.3 (20100126.1600)
 -->
<!-- Title: G Pages: 1 -->
<svg width="1638pt" height="378pt"
 viewBox="0.00 0.00 1637.52 378.00" xmlns="http://www.w3.org/2000/svg" xmlns:xlink="http://www.w3.org/1999/xlink">
<g id="graph1" class="graph" transform="scale(1 1) rotate(0) translate(4 374)">
<title>G</title>
<polygon fill="white" stroke="white" points="-4,5 -4,-374 1634.52,-374 1634.52,5 -4,5"/>
<!-- Node1 -->
<g id="node1" class="node"><title>Node1</title>
<polygon fill="#bfbfbf" stroke="black" points="585.5,-348.5 585.5,-369.5 716.5,-369.5 716.5,-348.5 585.5,-348.5"/>
<text text-anchor="middle" x="651" y="-356.5" font-family="DejaVuSans" font-size="10.00">src/Widgets/CharaTrait.h</text>
</g>
<!-- Node2 -->
<g id="node3" class="node"><title>Node2</title>
<a xlink:href="_storage_character_8h.html" target="_top" xlink:title="../Storage/StorageCharacter.h">
<polygon fill="white" stroke="black" points="630.5,-290.5 630.5,-311.5 791.5,-311.5 791.5,-290.5 630.5,-290.5"/>
<text text-anchor="middle" x="711" y="-298.5" font-family="DejaVuSans" font-size="10.00">../Storage/StorageCharacter.h</text>
</a>
</g>
<!-- Node1&#45;&gt;Node2 -->
<g id="edge2" class="edge"><title>Node1&#45;&gt;Node2</title>
<path fill="none" stroke="midnightblue" d="M662.005,-348.362C670.547,-340.104 682.58,-328.472 692.583,-318.803"/>
<polygon fill="midnightblue" stroke="midnightblue" points="695.308,-321.037 700.065,-311.571 690.442,-316.004 695.308,-321.037"/>
</g>
<!-- Node9 -->
<g id="node21" class="node"><title>Node9</title>
<a xlink:href="cv___trait_8h.html" target="_top" xlink:title="../Datatypes/cv_Trait.h">
<polygon fill="white" stroke="black" points="363,-174.5 363,-195.5 485,-195.5 485,-174.5 363,-174.5"/>
<text text-anchor="middle" x="424" y="-182.5" font-family="DejaVuSans" font-size="10.00">../Datatypes/cv_Trait.h</text>
</a>
</g>
<!-- Node1&#45;&gt;Node9 -->
<g id="edge80" class="edge"><title>Node1&#45;&gt;Node9</title>
<path fill="none" stroke="midnightblue" d="M633.209,-348.358C618.183,-339.18 596.258,-325.335 578,-312 527.822,-275.352 472.388,-227.74 443.675,-202.5"/>
<polygon fill="midnightblue" stroke="midnightblue" points="445.798,-199.705 435.984,-195.711 441.165,-204.953 445.798,-199.705"/>
</g>
<!-- Node12 -->
<g id="node31" class="node"><title>Node12</title>
<a xlink:href="cv___trait_detail_8h.html" target="_top" xlink:title="cv_TraitDetail.h">
<polygon fill="white" stroke="black" points="547.5,-116.5 547.5,-137.5 636.5,-137.5 636.5,-116.5 547.5,-116.5"/>
<text text-anchor="middle" x="592" y="-124.5" font-family="DejaVuSans" font-size="10.00">cv_TraitDetail.h</text>
</a>
</g>
<!-- Node1&#45;&gt;Node12 -->
<g id="edge82" class="edge"><title>Node1&#45;&gt;Node12</title>
<path fill="none" stroke="midnightblue" d="M642.785,-348.43C636.116,-339.296 627.023,-325.476 622,-312 600.864,-255.299 594.605,-183.346 592.762,-148.225"/>
<polygon fill="midnightblue" stroke="midnightblue" points="596.239,-147.634 592.291,-137.802 589.246,-147.95 596.239,-147.634"/>
</g>
<!-- Node18 -->
<g id="node60" class="node"><title>Node18</title>
<a xlink:href="_trait_line_8h.html" target="_top" xlink:title="TraitLine.h">
<polygon fill="white" stroke="black" points="1324.5,-232.5 1324.5,-253.5 1389.5,-253.5 1389.5,-232.5 1324.5,-232.5"/>
<text text-anchor="middle" x="1357" y="-240.5" font-family="DejaVuSans" font-size="10.00">TraitLine.h</text>
</a>
</g>
<!-- Node1&#45;&gt;Node18 -->
<g id="edge84" class="edge"><title>Node1&#45;&gt;Node18</title>
<path fill="none" stroke="midnightblue" d="M715.211,-348.45C857.235,-325.114 1194.86,-269.641 1314.26,-250.022"/>
<polygon fill="midnightblue" stroke="midnightblue" points="1314.83,-253.475 1324.13,-248.4 1313.7,-246.568 1314.83,-253.475"/>
</g>
<!-- Node3 -->
<g id="node5" class="node"><title>Node3</title>
<a xlink:href="cv___identity_8h.html" target="_top" xlink:title="../Datatypes/cv_Identity.h">
<polygon fill="white" stroke="black" points="881.5,-116.5 881.5,-137.5 1018.5,-137.5 1018.5,-116.5 881.5,-116.5"/>
<text text-anchor="middle" x="950" y="-124.5" font-family="DejaVuSans" font-size="10.00">../Datatypes/cv_Identity.h</text>
</a>
</g>
<!-- Node2&#45;&gt;Node3 -->
<g id="edge4" class="edge"><title>Node2&#45;&gt;Node3</title>
<path fill="none" stroke="midnightblue" d="M756.39,-290.498C827.882,-272.922 961.353,-235.564 988,-196 999.216,-179.347 985.07,-159.102 970.962,-144.861"/>
<polygon fill="midnightblue" stroke="midnightblue" points="972.968,-141.941 963.29,-137.628 968.166,-147.035 972.968,-141.941"/>
</g>
<!-- Node7 -->
<g id="node15" class="node"><title>Node7</title>
<a xlink:href="cv___identity_list_8h.html" target="_top" xlink:title="../Datatypes/cv_IdentityList.h">
<polygon fill="white" stroke="black" points="714.5,-174.5 714.5,-195.5 869.5,-195.5 869.5,-174.5 714.5,-174.5"/>
<text text-anchor="middle" x="792" y="-182.5" font-family="DejaVuSans" font-size="10.00">../Datatypes/cv_IdentityList.h</text>
</a>
</g>
<!-- Node2&#45;&gt;Node7 -->
<g id="edge16" class="edge"><title>Node2&#45;&gt;Node7</title>
<path fill="none" stroke="midnightblue" d="M731.121,-290.438C744.846,-282.244 762.394,-269.656 773,-254 782.774,-239.573 787.541,-220.244 789.854,-205.714"/>
<polygon fill="midnightblue" stroke="midnightblue" points="793.337,-206.074 791.187,-195.699 786.398,-205.15 793.337,-206.074"/>
</g>
<!-- Node2&#45;&gt;Node9 -->
<g id="edge24" class="edge"><title>Node2&#45;&gt;Node9</title>
<path fill="none" stroke="midnightblue" d="M690.087,-290.462C661.535,-276.273 608.575,-250.655 562,-232 530.926,-219.554 495.126,-207.423 467.778,-198.604"/>
<polygon fill="midnightblue" stroke="midnightblue" points="468.699,-195.224 458.108,-195.51 466.566,-201.891 468.699,-195.224"/>
</g>
<!-- Node14 -->
<g id="node41" class="node"><title>Node14</title>
<a xlink:href="cv___derangement_8h.html" target="_top" xlink:title="../Datatypes/cv_Derangement.h">
<polygon fill="white" stroke="black" points="0,-174.5 0,-195.5 170,-195.5 170,-174.5 0,-174.5"/>
<text text-anchor="middle" x="85" y="-182.5" font-family="DejaVuSans" font-size="10.00">../Datatypes/cv_Derangement.h</text>
</a>
</g>
<!-- Node2&#45;&gt;Node14 -->
<g id="edge54" class="edge"><title>Node2&#45;&gt;Node14</title>
<path fill="none" stroke="midnightblue" d="M654.065,-290.45C538.268,-268.992 275.825,-220.361 152.023,-197.42"/>
<polygon fill="midnightblue" stroke="midnightblue" points="152.387,-193.928 141.917,-195.547 151.112,-200.81 152.387,-193.928"/>
</g>
<!-- Node15 -->
<g id="node46" class="node"><title>Node15</title>
<a xlink:href="_storage_template_8h.html" target="_top" xlink:title="StorageTemplate.h">
<polygon fill="white" stroke="black" points="657.5,-232.5 657.5,-253.5 764.5,-253.5 764.5,-232.5 657.5,-232.5"/>
<text text-anchor="middle" x="711" y="-240.5" font-family="DejaVuSans" font-size="10.00">StorageTemplate.h</text>
</a>
</g>
<!-- Node2&#45;&gt;Node15 -->
<g id="edge62" class="edge"><title>Node2&#45;&gt;Node15</title>
<path fill="none" stroke="midnightblue" d="M711,-290.362C711,-282.922 711,-272.743 711,-263.728"/>
<polygon fill="midnightblue" stroke="midnightblue" points="714.5,-263.571 711,-253.571 707.5,-263.571 714.5,-263.571"/>
</g>
<!-- Node17 -->
<g id="node55" class="node"><title>Node17</title>
<polygon fill="white" stroke="#bfbfbf" points="924.5,-174.5 924.5,-195.5 979.5,-195.5 979.5,-174.5 924.5,-174.5"/>
<text text-anchor="middle" x="952" y="-182.5" font-family="DejaVuSans" font-size="10.00">QObject</text>
</g>
<!-- Node2&#45;&gt;Node17 -->
<g id="edge78" class="edge"><title>Node2&#45;&gt;Node17</title>
<path fill="none" stroke="midnightblue" d="M733.241,-290.295C776.392,-269.525 871.56,-223.718 920.927,-199.956"/>
<polygon fill="midnightblue" stroke="midnightblue" points="922.669,-203.002 930.161,-195.512 919.633,-196.695 922.669,-203.002"/>
</g>
<!-- Node4 -->
<g id="node7" class="node"><title>Node4</title>
<polygon fill="white" stroke="#bfbfbf" points="943.5,-0.5 943.5,-21.5 1012.5,-21.5 1012.5,-0.5 943.5,-0.5"/>
<text text-anchor="middle" x="978" y="-8.5" font-family="DejaVuSans" font-size="10.00">QStringList</text>
</g>
<!-- Node3&#45;&gt;Node4 -->
<g id="edge6" class="edge"><title>Node3&#45;&gt;Node4</title>
<path fill="none" stroke="midnightblue" d="M963.533,-116.267C973.238,-107.646 985.527,-94.6003 991,-80 996.933,-64.1734 992.625,-45.2493 987.43,-31.2259"/>
<polygon fill="midnightblue" stroke="midnightblue" points="990.499,-29.4893 983.439,-21.5898 984.032,-32.168 990.499,-29.4893"/>
</g>
<!-- Node5 -->
<g id="node9" class="node"><title>Node5</title>
<polygon fill="white" stroke="#bfbfbf" points="565.5,-0.5 565.5,-21.5 618.5,-21.5 618.5,-0.5 565.5,-0.5"/>
<text text-anchor="middle" x="592" y="-8.5" font-family="DejaVuSans" font-size="10.00">QString</text>
</g>
<!-- Node3&#45;&gt;Node5 -->
<g id="edge8" class="edge"><title>Node3&#45;&gt;Node5</title>
<path fill="none" stroke="midnightblue" d="M939.753,-116.393C924.108,-100.889 892.628,-72.3306 860,-58 819.031,-40.0058 691.923,-22.9041 628.608,-15.2289"/>
<polygon fill="midnightblue" stroke="midnightblue" points="628.999,-11.7507 618.653,-14.0362 628.166,-18.701 628.999,-11.7507"/>
</g>
<!-- Node6 -->
<g id="node11" class="node"><title>Node6</title>
<a xlink:href="cv___name_8h.html" target="_top" xlink:title="cv_Name.h">
<polygon fill="white" stroke="black" points="911.5,-58.5 911.5,-79.5 982.5,-79.5 982.5,-58.5 911.5,-58.5"/>
<text text-anchor="middle" x="947" y="-66.5" font-family="DejaVuSans" font-size="10.00">cv_Name.h</text>
</a>
</g>
<!-- Node3&#45;&gt;Node6 -->
<g id="edge10" class="edge"><title>Node3&#45;&gt;Node6</title>
<path fill="none" stroke="midnightblue" d="M949.45,-116.362C949.065,-108.922 948.538,-98.7427 948.072,-89.7276"/>
<polygon fill="midnightblue" stroke="midnightblue" points="951.559,-89.3765 947.547,-79.5707 944.568,-89.7381 951.559,-89.3765"/>
</g>
<!-- Node6&#45;&gt;Node4 -->
<g id="edge12" class="edge"><title>Node6&#45;&gt;Node4</title>
<path fill="none" stroke="midnightblue" d="M952.686,-58.3619C956.837,-50.5949 962.584,-39.8426 967.553,-30.5458"/>
<polygon fill="midnightblue" stroke="midnightblue" points="970.723,-32.0398 972.35,-21.5707 964.55,-28.7401 970.723,-32.0398"/>
</g>
<!-- Node6&#45;&gt;Node5 -->
<g id="edge14" class="edge"><title>Node6&#45;&gt;Node5</title>
<path fill="none" stroke="midnightblue" d="M911.465,-60.7228C906.942,-59.7578 902.369,-58.825 898,-58 801.294,-39.7407 686.382,-23.557 628.781,-15.8209"/>
<polygon fill="midnightblue" stroke="midnightblue" points="629.085,-12.3305 618.709,-14.4761 628.158,-19.2689 629.085,-12.3305"/>
</g>
<!-- Node7&#45;&gt;Node3 -->
<g id="edge20" class="edge"><title>Node7&#45;&gt;Node3</title>
<path fill="none" stroke="midnightblue" d="M820.613,-174.497C846.148,-165.123 883.737,-151.324 911.829,-141.012"/>
<polygon fill="midnightblue" stroke="midnightblue" points="913.152,-144.255 921.334,-137.523 910.74,-137.684 913.152,-144.255"/>
</g>
<!-- Node7&#45;&gt;Node5 -->
<g id="edge18" class="edge"><title>Node7&#45;&gt;Node5</title>
<path fill="none" stroke="midnightblue" d="M789.927,-174.369C784.629,-150.058 768.292,-90.0381 731,-58 702.048,-33.1273 659.37,-21.2695 628.952,-15.7122"/>
<polygon fill="midnightblue" stroke="midnightblue" points="629.188,-12.2029 618.746,-13.9983 628.028,-19.1063 629.188,-12.2029"/>
</g>
<!-- Node8 -->
<g id="node19" class="node"><title>Node8</title>
<polygon fill="white" stroke="#bfbfbf" points="681.5,-58.5 681.5,-79.5 722.5,-79.5 722.5,-58.5 681.5,-58.5"/>
<text text-anchor="middle" x="702" y="-66.5" font-family="DejaVuSans" font-size="10.00">QList</text>
</g>
<!-- Node7&#45;&gt;Node8 -->
<g id="edge22" class="edge"><title>Node7&#45;&gt;Node8</title>
<path fill="none" stroke="midnightblue" d="M783.694,-174.295C768.424,-154.613 735.712,-112.45 716.638,-87.8668"/>
<polygon fill="midnightblue" stroke="midnightblue" points="719.181,-85.4346 710.286,-79.6792 713.65,-89.7256 719.181,-85.4346"/>
</g>
<!-- Node9&#45;&gt;Node4 -->
<g id="edge32" class="edge"><title>Node9&#45;&gt;Node4</title>
<path fill="none" stroke="midnightblue" d="M403.022,-174.496C379.188,-161.181 345.708,-137.385 363,-116 399.134,-71.3142 798.001,-28.5581 933.365,-15.2414"/>
<polygon fill="midnightblue" stroke="midnightblue" points="933.785,-18.7171 943.397,-14.261 933.104,-11.7503 933.785,-18.7171"/>
</g>
<!-- Node9&#45;&gt;Node5 -->
<g id="edge28" class="edge"><title>Node9&#45;&gt;Node5</title>
<path fill="none" stroke="midnightblue" d="M380.393,-174.359C361.471,-167.342 341.127,-156.004 330,-138 311.307,-107.755 307.186,-85.271 330,-58 358.299,-24.1727 490.05,-14.6604 555.253,-12.0099"/>
<polygon fill="midnightblue" stroke="midnightblue" points="555.632,-15.4983 565.494,-11.628 555.371,-8.50317 555.632,-15.4983"/>
</g>
<!-- Node9&#45;&gt;Node8 -->
<g id="edge30" class="edge"><title>Node9&#45;&gt;Node8</title>
<path fill="none" stroke="midnightblue" d="M485.244,-176.592C541.02,-168.113 618.584,-154.013 645,-138 664.916,-125.927 681.051,-104.337 691.005,-88.5135"/>
<polygon fill="midnightblue" stroke="midnightblue" points="694.243,-89.9195 696.382,-79.543 688.239,-86.3205 694.243,-89.9195"/>
</g>
<!-- Node10 -->
<g id="node23" class="node"><title>Node10</title>
<polygon fill="white" stroke="#bfbfbf" points="229.5,-116.5 229.5,-137.5 278.5,-137.5 278.5,-116.5 229.5,-116.5"/>
<text text-anchor="middle" x="254" y="-124.5" font-family="DejaVuSans" font-size="10.00">QFlags</text>
</g>
<!-- Node9&#45;&gt;Node10 -->
<g id="edge26" class="edge"><title>Node9&#45;&gt;Node10</title>
<path fill="none" stroke="midnightblue" d="M393.214,-174.497C363.728,-164.437 319.304,-149.28 288.606,-138.807"/>
<polygon fill="midnightblue" stroke="midnightblue" points="289.357,-135.365 278.763,-135.448 287.097,-141.99 289.357,-135.365"/>
</g>
<!-- Node11 -->
<g id="node28" class="node"><title>Node11</title>
<a xlink:href="cv___species_8h.html" target="_top" xlink:title="cv_Species.h">
<polygon fill="white" stroke="black" points="187.5,-58.5 187.5,-79.5 266.5,-79.5 266.5,-58.5 187.5,-58.5"/>
<text text-anchor="middle" x="227" y="-66.5" font-family="DejaVuSans" font-size="10.00">cv_Species.h</text>
</a>
</g>
<!-- Node9&#45;&gt;Node11 -->
<g id="edge34" class="edge"><title>Node9&#45;&gt;Node11</title>
<path fill="none" stroke="midnightblue" d="M362.799,-179.137C309.641,-172.628 238.502,-160.017 221,-138 210.179,-124.387 213.499,-104.133 218.436,-89.0864"/>
<polygon fill="midnightblue" stroke="midnightblue" points="221.742,-90.2397 221.959,-79.6471 215.184,-87.7922 221.742,-90.2397"/>
</g>
<!-- Node9&#45;&gt;Node12 -->
<g id="edge38" class="edge"><title>Node9&#45;&gt;Node12</title>
<path fill="none" stroke="midnightblue" d="M454.424,-174.497C481.694,-165.082 521.893,-151.204 551.804,-140.877"/>
<polygon fill="midnightblue" stroke="midnightblue" points="553.209,-144.095 561.519,-137.523 550.925,-137.478 553.209,-144.095"/>
</g>
<!-- Node13 -->
<g id="node37" class="node"><title>Node13</title>
<a xlink:href="cv___abstract_trait_8h.html" target="_top" xlink:title="cv_AbstractTrait.h">
<polygon fill="white" stroke="black" points="73.5,-116.5 73.5,-137.5 174.5,-137.5 174.5,-116.5 73.5,-116.5"/>
<text text-anchor="middle" x="124" y="-124.5" font-family="DejaVuSans" font-size="10.00">cv_AbstractTrait.h</text>
</a>
</g>
<!-- Node9&#45;&gt;Node13 -->
<g id="edge48" class="edge"><title>Node9&#45;&gt;Node13</title>
<path fill="none" stroke="midnightblue" d="M369.672,-174.497C317.534,-164.417 238.929,-149.22 184.744,-138.744"/>
<polygon fill="midnightblue" stroke="midnightblue" points="185.405,-135.307 174.923,-136.845 184.077,-142.18 185.405,-135.307"/>
</g>
<!-- Node11&#45;&gt;Node5 -->
<g id="edge36" class="edge"><title>Node11&#45;&gt;Node5</title>
<path fill="none" stroke="midnightblue" d="M266.517,-62.2331C274.925,-60.8155 283.754,-59.3437 292,-58 386.831,-42.548 498.689,-25.2758 555.266,-16.6069"/>
<polygon fill="midnightblue" stroke="midnightblue" points="556.141,-20.0137 565.496,-15.0408 555.082,-13.0943 556.141,-20.0137"/>
</g>
<!-- Node12&#45;&gt;Node4 -->
<g id="edge44" class="edge"><title>Node12&#45;&gt;Node4</title>
<path fill="none" stroke="midnightblue" d="M600.955,-116.286C614.694,-100.646 642.597,-71.9153 673,-58 718.504,-37.1732 860.013,-21.7143 933.179,-14.8796"/>
<polygon fill="midnightblue" stroke="midnightblue" points="933.821,-18.3354 943.459,-13.9342 933.18,-11.3649 933.821,-18.3354"/>
</g>
<!-- Node12&#45;&gt;Node5 -->
<g id="edge40" class="edge"><title>Node12&#45;&gt;Node5</title>
<path fill="none" stroke="midnightblue" d="M592,-116.295C592,-97.1314 592,-56.654 592,-31.8434"/>
<polygon fill="midnightblue" stroke="midnightblue" points="595.5,-31.6792 592,-21.6792 588.5,-31.6792 595.5,-31.6792"/>
</g>
<!-- Node12&#45;&gt;Node8 -->
<g id="edge42" class="edge"><title>Node12&#45;&gt;Node8</title>
<path fill="none" stroke="midnightblue" d="M611.92,-116.497C628.946,-107.519 653.669,-94.4835 672.909,-84.3387"/>
<polygon fill="midnightblue" stroke="midnightblue" points="674.643,-87.3814 681.856,-79.6212 671.378,-81.1894 674.643,-87.3814"/>
</g>
<!-- Node12&#45;&gt;Node11 -->
<g id="edge46" class="edge"><title>Node12&#45;&gt;Node11</title>
<path fill="none" stroke="midnightblue" d="M547.214,-117.524C544.438,-116.993 541.683,-116.48 539,-116 446.74,-99.4897 338.432,-84.0538 276.742,-75.6314"/>
<polygon fill="midnightblue" stroke="midnightblue" points="276.896,-72.1202 266.516,-74.2412 275.953,-79.0564 276.896,-72.1202"/>
</g>
<!-- Node13&#45;&gt;Node5 -->
<g id="edge50" class="edge"><title>Node13&#45;&gt;Node5</title>
<path fill="none" stroke="midnightblue" d="M129.015,-116.422C137.099,-100.681 154.607,-71.5029 179,-58 243.234,-22.4426 466.277,-13.7169 555.093,-11.6332"/>
<polygon fill="midnightblue" stroke="midnightblue" points="555.318,-15.1292 565.239,-11.4106 555.165,-8.13084 555.318,-15.1292"/>
</g>
<!-- Node13&#45;&gt;Node11 -->
<g id="edge52" class="edge"><title>Node13&#45;&gt;Node11</title>
<path fill="none" stroke="midnightblue" d="M142.892,-116.362C158.718,-107.45 181.523,-94.6087 199.395,-84.5447"/>
<polygon fill="midnightblue" stroke="midnightblue" points="201.232,-87.5271 208.228,-79.5707 197.797,-81.4276 201.232,-87.5271"/>
</g>
<!-- Node14&#45;&gt;Node5 -->
<g id="edge56" class="edge"><title>Node14&#45;&gt;Node5</title>
<path fill="none" stroke="midnightblue" d="M74.5887,-174.374C62.3392,-160.525 44.9826,-135.744 56,-116 79.921,-73.1321 103.549,-73.8791 150,-58 224.805,-32.4286 462.993,-17.6832 555.123,-12.8145"/>
<polygon fill="midnightblue" stroke="midnightblue" points="555.555,-16.2968 565.36,-12.2826 555.192,-9.30627 555.555,-16.2968"/>
</g>
<!-- Node14&#45;&gt;Node11 -->
<g id="edge58" class="edge"><title>Node14&#45;&gt;Node11</title>
<path fill="none" stroke="midnightblue" d="M76.4991,-174.139C66.2136,-159.583 51.8168,-133.552 65,-116 78.5956,-97.8993 134.856,-84.5194 177.289,-76.7601"/>
<polygon fill="midnightblue" stroke="midnightblue" points="177.964,-80.1952 187.199,-75.0028 176.741,-73.3027 177.964,-80.1952"/>
</g>
<!-- Node14&#45;&gt;Node13 -->
<g id="edge60" class="edge"><title>Node14&#45;&gt;Node13</title>
<path fill="none" stroke="midnightblue" d="M92.1532,-174.362C97.4858,-166.431 104.911,-155.389 111.251,-145.961"/>
<polygon fill="midnightblue" stroke="midnightblue" points="114.217,-147.822 116.892,-137.571 108.408,-143.916 114.217,-147.822"/>
</g>
<!-- Node15&#45;&gt;Node4 -->
<g id="edge66" class="edge"><title>Node15&#45;&gt;Node4</title>
<path fill="none" stroke="midnightblue" d="M760.697,-232.468C794.502,-224.474 839.848,-212.111 878,-196 895.978,-188.408 898.175,-181.943 916,-174 963.372,-152.89 996.504,-179.95 1027,-138 1051.83,-103.847 1018.13,-55.507 995.511,-29.4173"/>
<polygon fill="midnightblue" stroke="midnightblue" points="997.93,-26.8732 988.643,-21.7746 992.724,-31.5521 997.93,-26.8732"/>
</g>
<!-- Node15&#45;&gt;Node7 -->
<g id="edge70" class="edge"><title>Node15&#45;&gt;Node7</title>
<path fill="none" stroke="midnightblue" d="M725.857,-232.362C737.846,-223.777 754.927,-211.546 768.728,-201.664"/>
<polygon fill="midnightblue" stroke="midnightblue" points="771.145,-204.238 777.238,-195.571 767.069,-198.547 771.145,-204.238"/>
</g>
<!-- Node15&#45;&gt;Node8 -->
<g id="edge64" class="edge"><title>Node15&#45;&gt;Node8</title>
<path fill="none" stroke="midnightblue" d="M709.619,-232.193C708.459,-222.68 706.857,-208.443 706,-196 703.425,-158.594 702.506,-114.875 702.179,-89.7151"/>
<polygon fill="midnightblue" stroke="midnightblue" points="705.677,-89.5111 702.067,-79.5504 698.678,-89.5885 705.677,-89.5111"/>
</g>
<!-- Node15&#45;&gt;Node9 -->
<g id="edge68" class="edge"><title>Node15&#45;&gt;Node9</title>
<path fill="none" stroke="midnightblue" d="M659.026,-232.497C610.415,-222.673 537.753,-207.988 486.107,-197.551"/>
<polygon fill="midnightblue" stroke="midnightblue" points="486.566,-194.073 476.071,-195.523 485.18,-200.935 486.566,-194.073"/>
</g>
<!-- Node16 -->
<g id="node52" class="node"><title>Node16</title>
<a xlink:href="cv___super_effect_8h.html" target="_top" xlink:title="../Datatypes/cv_SuperEffect.h">
<polygon fill="white" stroke="black" points="372,-116.5 372,-137.5 530,-137.5 530,-116.5 372,-116.5"/>
<text text-anchor="middle" x="451" y="-124.5" font-family="DejaVuSans" font-size="10.00">../Datatypes/cv_SuperEffect.h</text>
</a>
</g>
<!-- Node15&#45;&gt;Node16 -->
<g id="edge72" class="edge"><title>Node15&#45;&gt;Node16</title>
<path fill="none" stroke="midnightblue" d="M687.006,-232.295C640.259,-211.438 536.926,-165.336 483.859,-141.66"/>
<polygon fill="midnightblue" stroke="midnightblue" points="485.119,-138.39 474.561,-137.512 482.267,-144.782 485.119,-138.39"/>
</g>
<!-- Node15&#45;&gt;Node17 -->
<g id="edge76" class="edge"><title>Node15&#45;&gt;Node17</title>
<path fill="none" stroke="midnightblue" d="M757.574,-232.489C798.172,-223.224 858.596,-209.184 911,-196 912.072,-195.73 913.159,-195.454 914.256,-195.174"/>
<polygon fill="midnightblue" stroke="midnightblue" points="915.447,-198.481 924.242,-192.573 913.683,-191.707 915.447,-198.481"/>
</g>
<!-- Node16&#45;&gt;Node11 -->
<g id="edge74" class="edge"><title>Node16&#45;&gt;Node11</title>
<path fill="none" stroke="midnightblue" d="M410.435,-116.497C372.778,-106.746 316.63,-92.2077 276.38,-81.786"/>
<polygon fill="midnightblue" stroke="midnightblue" points="277.069,-78.349 266.511,-79.2305 275.314,-85.1255 277.069,-78.349"/>
</g>
<!-- Node18&#45;&gt;Node4 -->
<g id="edge86" class="edge"><title>Node18&#45;&gt;Node4</title>
<path fill="none" stroke="midnightblue" d="M1389.89,-240.004C1446.66,-234.253 1559.98,-220.06 1591,-196 1620.77,-172.915 1643.39,-144.709 1619,-116 1580.13,-70.2459 1162.38,-27.956 1022.98,-15.0273"/>
<polygon fill="midnightblue" stroke="midnightblue" points="1022.95,-11.5091 1012.67,-14.077 1022.3,-18.4796 1022.95,-11.5091"/>
</g>
<!-- Node19 -->
<g id="node63" class="node"><title>Node19</title>
<polygon fill="white" stroke="#bfbfbf" points="1149,-174.5 1149,-195.5 1231,-195.5 1231,-174.5 1149,-174.5"/>
<text text-anchor="middle" x="1190" y="-182.5" font-family="DejaVuSans" font-size="10.00">QHBoxLayout</text>
</g>
<!-- Node18&#45;&gt;Node19 -->
<g id="edge88" class="edge"><title>Node18&#45;&gt;Node19</title>
<path fill="none" stroke="midnightblue" d="M1326.76,-232.497C1299.65,-223.082 1259.69,-209.204 1229.96,-198.877"/>
<polygon fill="midnightblue" stroke="midnightblue" points="1230.89,-195.498 1220.3,-195.523 1228.6,-202.11 1230.89,-195.498"/>
</g>
<!-- Node20 -->
<g id="node65" class="node"><title>Node20</title>
<polygon fill="white" stroke="#bfbfbf" points="1249,-174.5 1249,-195.5 1299,-195.5 1299,-174.5 1249,-174.5"/>
<text text-anchor="middle" x="1274" y="-182.5" font-family="DejaVuSans" font-size="10.00">QLabel</text>
</g>
<!-- Node18&#45;&gt;Node20 -->
<g id="edge90" class="edge"><title>Node18&#45;&gt;Node20</title>
<path fill="none" stroke="midnightblue" d="M1341.78,-232.362C1329.37,-223.696 1311.65,-211.313 1297.44,-201.382"/>
<polygon fill="midnightblue" stroke="midnightblue" points="1299.33,-198.43 1289.13,-195.571 1295.32,-204.168 1299.33,-198.43"/>
</g>
<!-- Node21 -->
<g id="node67" class="node"><title>Node21</title>
<polygon fill="white" stroke="#bfbfbf" points="1317,-174.5 1317,-195.5 1397,-195.5 1397,-174.5 1317,-174.5"/>
<text text-anchor="middle" x="1357" y="-182.5" font-family="DejaVuSans" font-size="10.00">QPushButton</text>
</g>
<!-- Node18&#45;&gt;Node21 -->
<g id="edge92" class="edge"><title>Node18&#45;&gt;Node21</title>
<path fill="none" stroke="midnightblue" d="M1357,-232.362C1357,-224.922 1357,-214.743 1357,-205.728"/>
<polygon fill="midnightblue" stroke="midnightblue" points="1360.5,-205.571 1357,-195.571 1353.5,-205.571 1360.5,-205.571"/>
</g>
<!-- Node22 -->
<g id="node69" class="node"><title>Node22</title>
<polygon fill="white" stroke="#bfbfbf" points="1415,-174.5 1415,-195.5 1477,-195.5 1477,-174.5 1415,-174.5"/>
<text text-anchor="middle" x="1446" y="-182.5" font-family="DejaVuSans" font-size="10.00">QLineEdit</text>
</g>
<!-- Node18&#45;&gt;Node22 -->
<g id="edge94" class="edge"><title>Node18&#45;&gt;Node22</title>
<path fill="none" stroke="midnightblue" d="M1373.32,-232.362C1386.75,-223.614 1405.98,-211.079 1421.29,-201.101"/>
<polygon fill="midnightblue" stroke="midnightblue" points="1423.31,-203.963 1429.78,-195.571 1419.49,-198.098 1423.31,-203.963"/>
</g>
<!-- Node23 -->
<g id="node71" class="node"><title>Node23</title>
<a xlink:href="_trait_dots_8h.html" target="_top" xlink:title="TraitDots.h">
<polygon fill="white" stroke="black" points="1495,-174.5 1495,-195.5 1563,-195.5 1563,-174.5 1495,-174.5"/>
<text text-anchor="middle" x="1529" y="-182.5" font-family="DejaVuSans" font-size="10.00">TraitDots.h</text>
</a>
</g>
<!-- Node18&#45;&gt;Node23 -->
<g id="edge96" class="edge"><title>Node18&#45;&gt;Node23</title>
<path fill="none" stroke="midnightblue" d="M1388.15,-232.497C1416.19,-223.041 1457.58,-209.083 1488.25,-198.743"/>
<polygon fill="midnightblue" stroke="midnightblue" points="1489.44,-202.035 1497.79,-195.523 1487.2,-195.402 1489.44,-202.035"/>
</g>
<!-- Node26 -->
<g id="node78" class="node"><title>Node26</title>
<polygon fill="white" stroke="#bfbfbf" points="1554,-116.5 1554,-137.5 1610,-137.5 1610,-116.5 1554,-116.5"/>
<text text-anchor="middle" x="1582" y="-124.5" font-family="DejaVuSans" font-size="10.00">QWidget</text>
</g>
<!-- Node18&#45;&gt;Node26 -->
<g id="edge116" class="edge"><title>Node18&#45;&gt;Node26</title>
<path fill="none" stroke="midnightblue" d="M1389.7,-240.336C1443.6,-235.242 1547.59,-222.215 1572,-196 1583.88,-183.24 1585.56,-162.995 1584.75,-147.728"/>
<polygon fill="midnightblue" stroke="midnightblue" points="1588.23,-147.31 1583.84,-137.668 1581.26,-147.944 1588.23,-147.31"/>
</g>
<!-- Node27 -->
<g id="node80" class="node"><title>Node27</title>
<a xlink:href="_trait_specialties_8h.html" target="_top" xlink:title="TraitSpecialties.h">
<polygon fill="white" stroke="black" points="1034.5,-174.5 1034.5,-195.5 1131.5,-195.5 1131.5,-174.5 1034.5,-174.5"/>
<text text-anchor="middle" x="1083" y="-182.5" font-family="DejaVuSans" font-size="10.00">TraitSpecialties.h</text>
</a>
</g>
<!-- Node18&#45;&gt;Node27 -->
<g id="edge106" class="edge"><title>Node18&#45;&gt;Node27</title>
<path fill="none" stroke="midnightblue" d="M1324.49,-236.119C1279.52,-226.599 1197.56,-209.25 1141.72,-197.429"/>
<polygon fill="midnightblue" stroke="midnightblue" points="1142.12,-193.936 1131.61,-195.289 1140.67,-200.784 1142.12,-193.936"/>
</g>
<!-- Node23&#45;&gt;Node8 -->
<g id="edge100" class="edge"><title>Node23&#45;&gt;Node8</title>
<path fill="none" stroke="midnightblue" d="M1494.86,-175.636C1491.88,-175.01 1488.89,-174.451 1486,-174 1216.34,-131.988 1139.27,-197.849 873,-138 821.119,-126.339 764.573,-100.761 731.257,-84.236"/>
<polygon fill="midnightblue" stroke="midnightblue" points="732.603,-80.9954 722.097,-79.6289 729.458,-87.249 732.603,-80.9954"/>
</g>
<!-- Node24 -->
<g id="node73" class="node"><title>Node24</title>
<polygon fill="white" stroke="#bfbfbf" points="1487.5,-116.5 1487.5,-137.5 1536.5,-137.5 1536.5,-116.5 1487.5,-116.5"/>
<text text-anchor="middle" x="1512" y="-124.5" font-family="DejaVuSans" font-size="10.00">QColor</text>
</g>
<!-- Node23&#45;&gt;Node24 -->
<g id="edge98" class="edge"><title>Node23&#45;&gt;Node24</title>
<path fill="none" stroke="midnightblue" d="M1525.88,-174.362C1523.68,-166.84 1520.65,-156.519 1517.99,-147.431"/>
<polygon fill="midnightblue" stroke="midnightblue" points="1521.27,-146.182 1515.1,-137.571 1514.55,-148.151 1521.27,-146.182"/>
</g>
<!-- Node25 -->
<g id="node76" class="node"><title>Node25</title>
<polygon fill="white" stroke="#bfbfbf" points="1419.5,-116.5 1419.5,-137.5 1470.5,-137.5 1470.5,-116.5 1419.5,-116.5"/>
<text text-anchor="middle" x="1445" y="-124.5" font-family="DejaVuSans" font-size="10.00">QEvent</text>
</g>
<!-- Node23&#45;&gt;Node25 -->
<g id="edge102" class="edge"><title>Node23&#45;&gt;Node25</title>
<path fill="none" stroke="midnightblue" d="M1513.59,-174.362C1501.04,-165.696 1483.11,-153.313 1468.73,-143.382"/>
<polygon fill="midnightblue" stroke="midnightblue" points="1470.53,-140.372 1460.31,-137.571 1466.55,-146.133 1470.53,-140.372"/>
</g>
<!-- Node23&#45;&gt;Node26 -->
<g id="edge104" class="edge"><title>Node23&#45;&gt;Node26</title>
<path fill="none" stroke="midnightblue" d="M1538.72,-174.362C1546.19,-166.186 1556.69,-154.702 1565.47,-145.091"/>
<polygon fill="midnightblue" stroke="midnightblue" points="1568.18,-147.314 1572.34,-137.571 1563.01,-142.592 1568.18,-147.314"/>
</g>
<!-- Node27&#45;&gt;Node5 -->
<g id="edge108" class="edge"><title>Node27&#45;&gt;Node5</title>
<path fill="none" stroke="midnightblue" d="M1034.3,-179.323C990.691,-173.036 925.686,-160.65 873,-138 814.452,-112.829 811.737,-84.9787 754,-58 712.885,-38.7882 662.184,-25.6131 628.568,-18.2062"/>
<polygon fill="midnightblue" stroke="midnightblue" points="629.226,-14.7677 618.714,-16.0924 627.758,-21.612 629.226,-14.7677"/>
</g>
<!-- Node27&#45;&gt;Node12 -->
<g id="edge110" class="edge"><title>Node27&#45;&gt;Node12</title>
<path fill="none" stroke="midnightblue" d="M1034.13,-179.227C942.033,-168.348 743.406,-144.885 646.883,-133.483"/>
<polygon fill="midnightblue" stroke="midnightblue" points="647.09,-129.983 636.748,-132.286 646.269,-136.935 647.09,-129.983"/>
</g>
<!-- Node28 -->
<g id="node84" class="node"><title>Node28</title>
<a xlink:href="_checked_list_8h.html" target="_top" xlink:title="CheckedList.h">
<polygon fill="white" stroke="black" points="1073.5,-116.5 1073.5,-137.5 1156.5,-137.5 1156.5,-116.5 1073.5,-116.5"/>
<text text-anchor="middle" x="1115" y="-124.5" font-family="DejaVuSans" font-size="10.00">CheckedList.h</text>
</a>
</g>
<!-- Node27&#45;&gt;Node28 -->
<g id="edge112" class="edge"><title>Node27&#45;&gt;Node28</title>
<path fill="none" stroke="midnightblue" d="M1088.87,-174.362C1093.15,-166.595 1099.09,-155.843 1104.22,-146.546"/>
<polygon fill="midnightblue" stroke="midnightblue" points="1107.4,-148.017 1109.17,-137.571 1101.27,-144.636 1107.4,-148.017"/>
</g>
<!-- Node29 -->
<g id="node86" class="node"><title>Node29</title>
<polygon fill="white" stroke="#bfbfbf" points="1078.5,-58.5 1078.5,-79.5 1151.5,-79.5 1151.5,-58.5 1078.5,-58.5"/>
<text text-anchor="middle" x="1115" y="-66.5" font-family="DejaVuSans" font-size="10.00">QListWidget</text>
</g>
<!-- Node28&#45;&gt;Node29 -->
<g id="edge114" class="edge"><title>Node28&#45;&gt;Node29</title>
<path fill="none" stroke="midnightblue" d="M1115,-116.362C1115,-108.922 1115,-98.7427 1115,-89.7276"/>
<polygon fill="midnightblue" stroke="midnightblue" points="1118.5,-89.5706 1115,-79.5707 1111.5,-89.5707 1118.5,-89.5706"/>
</g>
</g>
</svg>
