<?xml version="1.0" encoding="UTF-8" standalone="no"?>
<!DOCTYPE svg PUBLIC "-//W3C//DTD SVG 1.1//EN"
 "http://www.w3.org/Graphics/SVG/1.1/DTD/svg11.dtd">
<!-- Generated by graphviz version 2.26.3 (20100126.1600)
 -->
<!-- Title: G Pages: 1 -->
<svg width="994pt" height="378pt"
 viewBox="0.00 0.00 994.49 378.00" xmlns="http://www.w3.org/2000/svg" xmlns:xlink="http://www.w3.org/1999/xlink">
<g id="graph1" class="graph" transform="scale(1 1) rotate(0) translate(4 374)">
<title>G</title>
<polygon fill="white" stroke="white" points="-4,5 -4,-374 991.488,-374 991.488,5 -4,5"/>
<!-- Node1 -->
<g id="node1" class="node"><title>Node1</title>
<polygon fill="#bfbfbf" stroke="black" points="587.696,-348.5 587.696,-369.5 736.696,-369.5 736.696,-348.5 587.696,-348.5"/>
<text text-anchor="middle" x="662.196" y="-356.5" font-family="DejaVuSans" font-size="10.00">src/Widgets/CharaSpecies.h</text>
</g>
<!-- Node2 -->
<g id="node3" class="node"><title>Node2</title>
<a xlink:href="_storage_character_8h.html" target="_top" xlink:title="../Storage/StorageCharacter.h">
<polygon fill="white" stroke="black" points="635.696,-290.5 635.696,-311.5 796.696,-311.5 796.696,-290.5 635.696,-290.5"/>
<text text-anchor="middle" x="716.196" y="-298.5" font-family="DejaVuSans" font-size="10.00">../Storage/StorageCharacter.h</text>
</a>
</g>
<!-- Node1&#45;&gt;Node2 -->
<g id="edge2" class="edge"><title>Node1&#45;&gt;Node2</title>
<path fill="none" stroke="midnightblue" d="M672.101,-348.362C679.713,-340.186 690.404,-328.702 699.353,-319.091"/>
<polygon fill="midnightblue" stroke="midnightblue" points="702.102,-321.275 706.355,-311.571 696.979,-316.505 702.102,-321.275"/>
</g>
<!-- Node9 -->
<g id="node21" class="node"><title>Node9</title>
<a xlink:href="cv___trait_8h.html" target="_top" xlink:title="../Datatypes/cv_Trait.h">
<polygon fill="white" stroke="black" points="458.196,-174.5 458.196,-195.5 580.196,-195.5 580.196,-174.5 458.196,-174.5"/>
<text text-anchor="middle" x="519.196" y="-182.5" font-family="DejaVuSans" font-size="10.00">../Datatypes/cv_Trait.h</text>
</a>
</g>
<!-- Node1&#45;&gt;Node9 -->
<g id="edge80" class="edge"><title>Node1&#45;&gt;Node9</title>
<path fill="none" stroke="midnightblue" d="M642.32,-348.391C627.76,-339.925 608.181,-327.019 594.196,-312 563.541,-279.077 539.64,-231.531 527.659,-204.938"/>
<polygon fill="midnightblue" stroke="midnightblue" points="530.757,-203.286 523.531,-195.538 524.348,-206.101 530.757,-203.286"/>
</g>
<!-- Node12 -->
<g id="node31" class="node"><title>Node12</title>
<a xlink:href="cv___trait_detail_8h.html" target="_top" xlink:title="cv_TraitDetail.h">
<polygon fill="white" stroke="black" points="487.696,-116.5 487.696,-137.5 576.696,-137.5 576.696,-116.5 487.696,-116.5"/>
<text text-anchor="middle" x="532.196" y="-124.5" font-family="DejaVuSans" font-size="10.00">cv_TraitDetail.h</text>
</a>
</g>
<!-- Node1&#45;&gt;Node12 -->
<g id="edge82" class="edge"><title>Node1&#45;&gt;Node12</title>
<path fill="none" stroke="midnightblue" d="M652.293,-348.187C644.47,-339.124 633.805,-325.529 627.196,-312 599.274,-254.839 623.792,-227.387 589.196,-174 581.381,-161.94 569.487,-151.433 558.583,-143.43"/>
<polygon fill="midnightblue" stroke="midnightblue" points="560.356,-140.4 550.147,-137.567 556.361,-146.148 560.356,-140.4"/>
</g>
<!-- Node18 -->
<g id="node60" class="node"><title>Node18</title>
<polygon fill="white" stroke="#bfbfbf" points="813.696,-290.5 813.696,-311.5 890.696,-311.5 890.696,-290.5 813.696,-290.5"/>
<text text-anchor="middle" x="852.196" y="-298.5" font-family="DejaVuSans" font-size="10.00">QComboBox</text>
</g>
<!-- Node1&#45;&gt;Node18 -->
<g id="edge84" class="edge"><title>Node1&#45;&gt;Node18</title>
<path fill="none" stroke="midnightblue" d="M696.604,-348.497C727.847,-338.959 774.097,-324.841 808.054,-314.475"/>
<polygon fill="midnightblue" stroke="midnightblue" points="809.182,-317.79 817.724,-311.523 807.138,-311.095 809.182,-317.79"/>
</g>
<!-- Node3 -->
<g id="node5" class="node"><title>Node3</title>
<a xlink:href="cv___identity_8h.html" target="_top" xlink:title="../Datatypes/cv_Identity.h">
<polygon fill="white" stroke="black" points="783.696,-116.5 783.696,-137.5 920.696,-137.5 920.696,-116.5 783.696,-116.5"/>
<text text-anchor="middle" x="852.196" y="-124.5" font-family="DejaVuSans" font-size="10.00">../Datatypes/cv_Identity.h</text>
</a>
</g>
<!-- Node2&#45;&gt;Node3 -->
<g id="edge4" class="edge"><title>Node2&#45;&gt;Node3</title>
<path fill="none" stroke="midnightblue" d="M758.55,-290.491C826.712,-272.615 955.708,-234.469 981.196,-196 999.819,-167.893 964.44,-150.382 926.057,-140.036"/>
<polygon fill="midnightblue" stroke="midnightblue" points="926.818,-136.618 916.265,-137.558 925.101,-143.404 926.818,-136.618"/>
</g>
<!-- Node7 -->
<g id="node15" class="node"><title>Node7</title>
<a xlink:href="cv___identity_list_8h.html" target="_top" xlink:title="../Datatypes/cv_IdentityList.h">
<polygon fill="white" stroke="black" points="707.696,-174.5 707.696,-195.5 862.696,-195.5 862.696,-174.5 707.696,-174.5"/>
<text text-anchor="middle" x="785.196" y="-182.5" font-family="DejaVuSans" font-size="10.00">../Datatypes/cv_IdentityList.h</text>
</a>
</g>
<!-- Node2&#45;&gt;Node7 -->
<g id="edge16" class="edge"><title>Node2&#45;&gt;Node7</title>
<path fill="none" stroke="midnightblue" d="M731.447,-290.32C742.626,-281.727 757.339,-268.692 766.196,-254 775.193,-239.076 780.035,-219.795 782.574,-205.409"/>
<polygon fill="midnightblue" stroke="midnightblue" points="786.034,-205.933 784.097,-195.517 779.116,-204.867 786.034,-205.933"/>
</g>
<!-- Node2&#45;&gt;Node9 -->
<g id="edge24" class="edge"><title>Node2&#45;&gt;Node9</title>
<path fill="none" stroke="midnightblue" d="M698.016,-290.295C663.11,-269.741 586.566,-224.67 545.869,-200.706"/>
<polygon fill="midnightblue" stroke="midnightblue" points="547.441,-197.57 537.048,-195.512 543.889,-203.602 547.441,-197.57"/>
</g>
<!-- Node14 -->
<g id="node41" class="node"><title>Node14</title>
<a xlink:href="cv___derangement_8h.html" target="_top" xlink:title="../Datatypes/cv_Derangement.h">
<polygon fill="white" stroke="black" points="18.1962,-174.5 18.1962,-195.5 188.196,-195.5 188.196,-174.5 18.1962,-174.5"/>
<text text-anchor="middle" x="103.196" y="-182.5" font-family="DejaVuSans" font-size="10.00">../Datatypes/cv_Derangement.h</text>
</a>
</g>
<!-- Node2&#45;&gt;Node14 -->
<g id="edge54" class="edge"><title>Node2&#45;&gt;Node14</title>
<path fill="none" stroke="midnightblue" d="M660.444,-290.45C547.051,-268.992 290.059,-220.361 168.827,-197.42"/>
<polygon fill="midnightblue" stroke="midnightblue" points="169.408,-193.967 158.931,-195.547 168.106,-200.845 169.408,-193.967"/>
</g>
<!-- Node15 -->
<g id="node46" class="node"><title>Node15</title>
<a xlink:href="_storage_template_8h.html" target="_top" xlink:title="StorageTemplate.h">
<polygon fill="white" stroke="black" points="650.696,-232.5 650.696,-253.5 757.696,-253.5 757.696,-232.5 650.696,-232.5"/>
<text text-anchor="middle" x="704.196" y="-240.5" font-family="DejaVuSans" font-size="10.00">StorageTemplate.h</text>
</a>
</g>
<!-- Node2&#45;&gt;Node15 -->
<g id="edge62" class="edge"><title>Node2&#45;&gt;Node15</title>
<path fill="none" stroke="midnightblue" d="M713.995,-290.362C712.439,-282.84 710.303,-272.519 708.423,-263.431"/>
<polygon fill="midnightblue" stroke="midnightblue" points="711.837,-262.654 706.383,-253.571 704.982,-264.072 711.837,-262.654"/>
</g>
<!-- Node17 -->
<g id="node55" class="node"><title>Node17</title>
<polygon fill="white" stroke="#bfbfbf" points="917.696,-174.5 917.696,-195.5 972.696,-195.5 972.696,-174.5 917.696,-174.5"/>
<text text-anchor="middle" x="945.196" y="-182.5" font-family="DejaVuSans" font-size="10.00">QObject</text>
</g>
<!-- Node2&#45;&gt;Node17 -->
<g id="edge78" class="edge"><title>Node2&#45;&gt;Node17</title>
<path fill="none" stroke="midnightblue" d="M737.329,-290.295C778.247,-269.568 868.385,-223.909 915.377,-200.105"/>
<polygon fill="midnightblue" stroke="midnightblue" points="917.106,-203.153 924.445,-195.512 913.942,-196.908 917.106,-203.153"/>
</g>
<!-- Node4 -->
<g id="node7" class="node"><title>Node4</title>
<polygon fill="white" stroke="#bfbfbf" points="812.696,-0.5 812.696,-21.5 881.696,-21.5 881.696,-0.5 812.696,-0.5"/>
<text text-anchor="middle" x="847.196" y="-8.5" font-family="DejaVuSans" font-size="10.00">QStringList</text>
</g>
<!-- Node3&#45;&gt;Node4 -->
<g id="edge6" class="edge"><title>Node3&#45;&gt;Node4</title>
<path fill="none" stroke="midnightblue" d="M865.099,-116.469C879.536,-103.319 899.841,-79.8843 891.196,-58 886.669,-46.5388 877.88,-36.2323 869.34,-28.2117"/>
<polygon fill="midnightblue" stroke="midnightblue" points="871.527,-25.474 861.697,-21.5208 866.916,-30.7411 871.527,-25.474"/>
</g>
<!-- Node5 -->
<g id="node9" class="node"><title>Node5</title>
<polygon fill="white" stroke="#bfbfbf" points="456.696,-0.5 456.696,-21.5 509.696,-21.5 509.696,-0.5 456.696,-0.5"/>
<text text-anchor="middle" x="483.196" y="-8.5" font-family="DejaVuSans" font-size="10.00">QString</text>
</g>
<!-- Node3&#45;&gt;Node5 -->
<g id="edge8" class="edge"><title>Node3&#45;&gt;Node5</title>
<path fill="none" stroke="midnightblue" d="M841.683,-116.376C825.641,-100.851 793.399,-72.2649 760.196,-58 717.531,-39.6696 585.103,-22.6069 520.036,-15.066"/>
<polygon fill="midnightblue" stroke="midnightblue" points="520.156,-11.5569 509.823,-13.8965 519.359,-18.5114 520.156,-11.5569"/>
</g>
<!-- Node6 -->
<g id="node11" class="node"><title>Node6</title>
<a xlink:href="cv___name_8h.html" target="_top" xlink:title="cv_Name.h">
<polygon fill="white" stroke="black" points="811.696,-58.5 811.696,-79.5 882.696,-79.5 882.696,-58.5 811.696,-58.5"/>
<text text-anchor="middle" x="847.196" y="-66.5" font-family="DejaVuSans" font-size="10.00">cv_Name.h</text>
</a>
</g>
<!-- Node3&#45;&gt;Node6 -->
<g id="edge10" class="edge"><title>Node3&#45;&gt;Node6</title>
<path fill="none" stroke="midnightblue" d="M851.279,-116.362C850.638,-108.922 849.76,-98.7427 848.983,-89.7276"/>
<polygon fill="midnightblue" stroke="midnightblue" points="852.453,-89.2331 848.107,-79.5707 845.479,-89.8343 852.453,-89.2331"/>
</g>
<!-- Node6&#45;&gt;Node4 -->
<g id="edge12" class="edge"><title>Node6&#45;&gt;Node4</title>
<path fill="none" stroke="midnightblue" d="M847.196,-58.3619C847.196,-50.9219 847.196,-40.7427 847.196,-31.7276"/>
<polygon fill="midnightblue" stroke="midnightblue" points="850.696,-31.5706 847.196,-21.5707 843.696,-31.5707 850.696,-31.5706"/>
</g>
<!-- Node6&#45;&gt;Node5 -->
<g id="edge14" class="edge"><title>Node6&#45;&gt;Node5</title>
<path fill="none" stroke="midnightblue" d="M811.664,-60.7048C807.141,-59.7428 802.567,-58.8156 798.196,-58 697.951,-39.2951 578.658,-23.1478 519.788,-15.5809"/>
<polygon fill="midnightblue" stroke="midnightblue" points="520.218,-12.1075 509.855,-14.312 519.331,-19.051 520.218,-12.1075"/>
</g>
<!-- Node7&#45;&gt;Node3 -->
<g id="edge20" class="edge"><title>Node7&#45;&gt;Node3</title>
<path fill="none" stroke="midnightblue" d="M797.485,-174.362C807.213,-165.941 820.994,-154.011 832.292,-144.231"/>
<polygon fill="midnightblue" stroke="midnightblue" points="834.715,-146.762 839.985,-137.571 830.134,-141.469 834.715,-146.762"/>
</g>
<!-- Node7&#45;&gt;Node5 -->
<g id="edge18" class="edge"><title>Node7&#45;&gt;Node5</title>
<path fill="none" stroke="midnightblue" d="M781.007,-174.363C770.621,-149.5 741.154,-87.4567 695.196,-58 666.482,-39.5957 572.453,-23.7285 519.781,-16.0058"/>
<polygon fill="midnightblue" stroke="midnightblue" points="520.227,-12.534 509.83,-14.5716 519.228,-19.4624 520.227,-12.534"/>
</g>
<!-- Node8 -->
<g id="node19" class="node"><title>Node8</title>
<polygon fill="white" stroke="#bfbfbf" points="645.696,-58.5 645.696,-79.5 686.696,-79.5 686.696,-58.5 645.696,-58.5"/>
<text text-anchor="middle" x="666.196" y="-66.5" font-family="DejaVuSans" font-size="10.00">QList</text>
</g>
<!-- Node7&#45;&gt;Node8 -->
<g id="edge22" class="edge"><title>Node7&#45;&gt;Node8</title>
<path fill="none" stroke="midnightblue" d="M774.214,-174.295C753.758,-154.355 709.628,-111.337 684.565,-86.9056"/>
<polygon fill="midnightblue" stroke="midnightblue" points="686.755,-84.1532 677.152,-79.6792 681.869,-89.1657 686.755,-84.1532"/>
</g>
<!-- Node9&#45;&gt;Node4 -->
<g id="edge32" class="edge"><title>Node9&#45;&gt;Node4</title>
<path fill="none" stroke="midnightblue" d="M537.7,-174.459C551.783,-165.848 571.083,-152.726 585.196,-138 614.539,-107.384 602.372,-82.1995 637.196,-58 663.569,-39.6735 749.229,-24.765 802.652,-16.9488"/>
<polygon fill="midnightblue" stroke="midnightblue" points="803.154,-20.4127 812.555,-15.527 802.159,-13.4838 803.154,-20.4127"/>
</g>
<!-- Node9&#45;&gt;Node5 -->
<g id="edge28" class="edge"><title>Node9&#45;&gt;Node5</title>
<path fill="none" stroke="midnightblue" d="M505.986,-174.198C496.514,-165.541 484.524,-152.48 479.196,-138 466.066,-102.314 472.432,-57.1053 477.991,-31.3777"/>
<polygon fill="midnightblue" stroke="midnightblue" points="481.402,-32.1626 480.266,-21.6289 474.585,-30.5723 481.402,-32.1626"/>
</g>
<!-- Node9&#45;&gt;Node8 -->
<g id="edge30" class="edge"><title>Node9&#45;&gt;Node8</title>
<path fill="none" stroke="midnightblue" d="M551.967,-174.383C572.535,-166.59 598.748,-154.485 618.196,-138 634.45,-124.223 647.778,-103.714 656.23,-88.6354"/>
<polygon fill="midnightblue" stroke="midnightblue" points="659.415,-90.1019 661.062,-79.6358 653.248,-86.7907 659.415,-90.1019"/>
</g>
<!-- Node10 -->
<g id="node23" class="node"><title>Node10</title>
<polygon fill="white" stroke="#bfbfbf" points="383.696,-116.5 383.696,-137.5 432.696,-137.5 432.696,-116.5 383.696,-116.5"/>
<text text-anchor="middle" x="408.196" y="-124.5" font-family="DejaVuSans" font-size="10.00">QFlags</text>
</g>
<!-- Node9&#45;&gt;Node10 -->
<g id="edge26" class="edge"><title>Node9&#45;&gt;Node10</title>
<path fill="none" stroke="midnightblue" d="M499.095,-174.497C481.914,-165.519 456.966,-152.484 437.551,-142.339"/>
<polygon fill="midnightblue" stroke="midnightblue" points="439.007,-139.15 428.523,-137.621 435.765,-145.354 439.007,-139.15"/>
</g>
<!-- Node11 -->
<g id="node28" class="node"><title>Node11</title>
<a xlink:href="cv___species_8h.html" target="_top" xlink:title="cv_Species.h">
<polygon fill="white" stroke="black" points="263.696,-58.5 263.696,-79.5 342.696,-79.5 342.696,-58.5 263.696,-58.5"/>
<text text-anchor="middle" x="303.196" y="-66.5" font-family="DejaVuSans" font-size="10.00">cv_Species.h</text>
</a>
</g>
<!-- Node9&#45;&gt;Node11 -->
<g id="edge34" class="edge"><title>Node9&#45;&gt;Node11</title>
<path fill="none" stroke="midnightblue" d="M468.852,-174.476C440.071,-167.051 404.071,-155.301 375.196,-138 352.766,-124.56 331.741,-102.963 318.271,-87.5103"/>
<polygon fill="midnightblue" stroke="midnightblue" points="320.741,-85.0117 311.604,-79.6489 315.403,-89.5393 320.741,-85.0117"/>
</g>
<!-- Node9&#45;&gt;Node12 -->
<g id="edge38" class="edge"><title>Node9&#45;&gt;Node12</title>
<path fill="none" stroke="midnightblue" d="M521.581,-174.362C523.266,-166.84 525.58,-156.519 527.617,-147.431"/>
<polygon fill="midnightblue" stroke="midnightblue" points="531.055,-148.094 529.827,-137.571 524.224,-146.563 531.055,-148.094"/>
</g>
<!-- Node13 -->
<g id="node37" class="node"><title>Node13</title>
<a xlink:href="cv___abstract_trait_8h.html" target="_top" xlink:title="cv_AbstractTrait.h">
<polygon fill="white" stroke="black" points="13.6962,-116.5 13.6962,-137.5 114.696,-137.5 114.696,-116.5 13.6962,-116.5"/>
<text text-anchor="middle" x="64.1962" y="-124.5" font-family="DejaVuSans" font-size="10.00">cv_AbstractTrait.h</text>
</a>
</g>
<!-- Node9&#45;&gt;Node13 -->
<g id="edge48" class="edge"><title>Node9&#45;&gt;Node13</title>
<path fill="none" stroke="midnightblue" d="M457.833,-177.178C370.567,-166.054 211.591,-145.789 124.764,-134.721"/>
<polygon fill="midnightblue" stroke="midnightblue" points="125.161,-131.243 114.799,-133.45 124.276,-138.187 125.161,-131.243"/>
</g>
<!-- Node11&#45;&gt;Node5 -->
<g id="edge36" class="edge"><title>Node11&#45;&gt;Node5</title>
<path fill="none" stroke="midnightblue" d="M335.793,-58.4966C367.193,-48.3789 414.592,-33.1057 447.114,-22.6264"/>
<polygon fill="midnightblue" stroke="midnightblue" points="448.251,-25.9374 456.696,-19.5391 446.104,-19.2748 448.251,-25.9374"/>
</g>
<!-- Node12&#45;&gt;Node4 -->
<g id="edge44" class="edge"><title>Node12&#45;&gt;Node4</title>
<path fill="none" stroke="midnightblue" d="M537.908,-116.367C546.852,-100.83 565.705,-72.2296 590.196,-58 625.582,-37.4404 738.78,-22.5122 802.508,-15.492"/>
<polygon fill="midnightblue" stroke="midnightblue" points="803.103,-18.9481 812.669,-14.3934 802.351,-11.9886 803.103,-18.9481"/>
</g>
<!-- Node12&#45;&gt;Node5 -->
<g id="edge40" class="edge"><title>Node12&#45;&gt;Node5</title>
<path fill="none" stroke="midnightblue" d="M527.674,-116.295C519.506,-96.9588 502.172,-55.9229 491.719,-31.1767"/>
<polygon fill="midnightblue" stroke="midnightblue" points="494.823,-29.5291 487.707,-21.6792 488.374,-32.253 494.823,-29.5291"/>
</g>
<!-- Node12&#45;&gt;Node8 -->
<g id="edge42" class="edge"><title>Node12&#45;&gt;Node8</title>
<path fill="none" stroke="midnightblue" d="M556.463,-116.497C578.868,-106.799 612.215,-92.365 636.264,-81.9556"/>
<polygon fill="midnightblue" stroke="midnightblue" points="637.835,-85.0895 645.622,-77.9052 635.055,-78.6655 637.835,-85.0895"/>
</g>
<!-- Node12&#45;&gt;Node11 -->
<g id="edge46" class="edge"><title>Node12&#45;&gt;Node11</title>
<path fill="none" stroke="midnightblue" d="M490.726,-116.497C451.909,-106.665 393.872,-91.9659 352.657,-81.5272"/>
<polygon fill="midnightblue" stroke="midnightblue" points="353.379,-78.0996 342.826,-79.0371 351.66,-84.8853 353.379,-78.0996"/>
</g>
<!-- Node13&#45;&gt;Node5 -->
<g id="edge50" class="edge"><title>Node13&#45;&gt;Node5</title>
<path fill="none" stroke="midnightblue" d="M89.7637,-116.432C126.049,-101.743 194.796,-75.0405 255.196,-58 321.775,-39.2162 401.25,-24.5393 446.612,-16.8748"/>
<polygon fill="midnightblue" stroke="midnightblue" points="447.282,-20.3115 456.569,-15.2128 446.129,-13.4071 447.282,-20.3115"/>
</g>
<!-- Node13&#45;&gt;Node11 -->
<g id="edge52" class="edge"><title>Node13&#45;&gt;Node11</title>
<path fill="none" stroke="midnightblue" d="M107.477,-116.497C148.574,-106.523 210.311,-91.5412 253.424,-81.0786"/>
<polygon fill="midnightblue" stroke="midnightblue" points="254.521,-84.414 263.414,-78.6543 252.87,-77.6115 254.521,-84.414"/>
</g>
<!-- Node14&#45;&gt;Node5 -->
<g id="edge56" class="edge"><title>Node14&#45;&gt;Node5</title>
<path fill="none" stroke="midnightblue" d="M63.5617,-174.394C28.4583,-162.974 -14.4087,-142.78 5.19617,-116 57.6691,-44.3239 343.324,-19.6859 446.228,-13.0641"/>
<polygon fill="midnightblue" stroke="midnightblue" points="446.685,-16.5425 456.448,-12.4275 446.25,-9.55606 446.685,-16.5425"/>
</g>
<!-- Node14&#45;&gt;Node11 -->
<g id="edge58" class="edge"><title>Node14&#45;&gt;Node11</title>
<path fill="none" stroke="midnightblue" d="M109.488,-174.294C118.891,-159.19 138.009,-131.718 161.196,-116 188.981,-97.1659 224.909,-85.3688 253.674,-78.3042"/>
<polygon fill="midnightblue" stroke="midnightblue" points="254.586,-81.6856 263.525,-75.9989 252.991,-74.8697 254.586,-81.6856"/>
</g>
<!-- Node14&#45;&gt;Node13 -->
<g id="edge60" class="edge"><title>Node14&#45;&gt;Node13</title>
<path fill="none" stroke="midnightblue" d="M96.043,-174.362C90.7104,-166.431 83.285,-155.389 76.9456,-145.961"/>
<polygon fill="midnightblue" stroke="midnightblue" points="79.7885,-143.916 71.304,-137.571 73.9796,-147.822 79.7885,-143.916"/>
</g>
<!-- Node15&#45;&gt;Node4 -->
<g id="edge66" class="edge"><title>Node15&#45;&gt;Node4</title>
<path fill="none" stroke="midnightblue" d="M757.917,-237.705C815.336,-228.633 901.812,-204.11 929.196,-138 943.354,-103.82 928.225,-87.7221 906.196,-58 897.31,-46.0109 884.645,-35.3826 873.325,-27.2792"/>
<polygon fill="midnightblue" stroke="midnightblue" points="875.246,-24.3524 865.016,-21.5939 871.293,-30.1295 875.246,-24.3524"/>
</g>
<!-- Node15&#45;&gt;Node7 -->
<g id="edge70" class="edge"><title>Node15&#45;&gt;Node7</title>
<path fill="none" stroke="midnightblue" d="M719.053,-232.362C731.042,-223.777 748.123,-211.546 761.925,-201.664"/>
<polygon fill="midnightblue" stroke="midnightblue" points="764.341,-204.238 770.434,-195.571 760.265,-198.547 764.341,-204.238"/>
</g>
<!-- Node15&#45;&gt;Node8 -->
<g id="edge64" class="edge"><title>Node15&#45;&gt;Node8</title>
<path fill="none" stroke="midnightblue" d="M701.876,-232.377C695.716,-204.172 678.865,-127.012 670.721,-89.7203"/>
<polygon fill="midnightblue" stroke="midnightblue" points="674.136,-88.9507 668.583,-79.9277 667.297,-90.4442 674.136,-88.9507"/>
</g>
<!-- Node15&#45;&gt;Node9 -->
<g id="edge68" class="edge"><title>Node15&#45;&gt;Node9</title>
<path fill="none" stroke="midnightblue" d="M670.694,-232.497C640.404,-223 595.627,-208.962 562.603,-198.609"/>
<polygon fill="midnightblue" stroke="midnightblue" points="563.35,-195.175 552.761,-195.523 561.256,-201.854 563.35,-195.175"/>
</g>
<!-- Node16 -->
<g id="node52" class="node"><title>Node16</title>
<a xlink:href="cv___super_effect_8h.html" target="_top" xlink:title="../Datatypes/cv_SuperEffect.h">
<polygon fill="white" stroke="black" points="170.196,-116.5 170.196,-137.5 328.196,-137.5 328.196,-116.5 170.196,-116.5"/>
<text text-anchor="middle" x="249.196" y="-124.5" font-family="DejaVuSans" font-size="10.00">../Datatypes/cv_SuperEffect.h</text>
</a>
</g>
<!-- Node15&#45;&gt;Node16 -->
<g id="edge72" class="edge"><title>Node15&#45;&gt;Node16</title>
<path fill="none" stroke="midnightblue" d="M650.446,-235.492C598.482,-227.671 517.764,-214.038 449.196,-196 390.743,-180.623 324.8,-156.505 285.148,-141.237"/>
<polygon fill="midnightblue" stroke="midnightblue" points="286.243,-137.907 275.654,-137.556 283.713,-144.434 286.243,-137.907"/>
</g>
<!-- Node15&#45;&gt;Node17 -->
<g id="edge76" class="edge"><title>Node15&#45;&gt;Node17</title>
<path fill="none" stroke="midnightblue" d="M750.77,-232.489C791.368,-223.224 851.792,-209.184 904.196,-196 905.268,-195.73 906.355,-195.454 907.452,-195.174"/>
<polygon fill="midnightblue" stroke="midnightblue" points="908.643,-198.481 917.438,-192.573 906.879,-191.707 908.643,-198.481"/>
</g>
<!-- Node16&#45;&gt;Node11 -->
<g id="edge74" class="edge"><title>Node16&#45;&gt;Node11</title>
<path fill="none" stroke="midnightblue" d="M259.101,-116.362C266.713,-108.186 277.404,-96.7025 286.353,-87.0907"/>
<polygon fill="midnightblue" stroke="midnightblue" points="289.102,-89.2746 293.355,-79.5707 283.979,-84.5046 289.102,-89.2746"/>
</g>
</g>
</svg>
