<?xml version="1.0" encoding="UTF-8" standalone="no"?>
<!DOCTYPE svg PUBLIC "-//W3C//DTD SVG 1.1//EN"
 "http://www.w3.org/Graphics/SVG/1.1/DTD/svg11.dtd">
<!-- Generated by graphviz version 2.26.3 (20100126.1600)
 -->
<!-- Title: G Pages: 1 -->
<svg width="417pt" height="204pt"
 viewBox="0.00 0.00 417.00 204.00" xmlns="http://www.w3.org/2000/svg" xmlns:xlink="http://www.w3.org/1999/xlink">
<g id="graph1" class="graph" transform="scale(1 1) rotate(0) translate(4 200)">
<title>G</title>
<polygon fill="white" stroke="white" points="-4,5 -4,-200 414,-200 414,5 -4,5"/>
<!-- Node1 -->
<g id="node1" class="node"><title>Node1</title>
<polygon fill="#bfbfbf" stroke="black" points="172.5,-174.5 172.5,-195.5 321.5,-195.5 321.5,-174.5 172.5,-174.5"/>
<text text-anchor="middle" x="247" y="-182.5" font-family="DejaVuSans" font-size="10.00">src/Widgets/CharaSpecies.h</text>
</g>
<!-- Node2 -->
<g id="node3" class="node"><title>Node2</title>
<a xlink:href="_info_widget_8h.html" target="_top" xlink:title="src/Widgets/InfoWidget.h">
<polygon fill="white" stroke="black" points="98.5,-116.5 98.5,-137.5 231.5,-137.5 231.5,-116.5 98.5,-116.5"/>
<text text-anchor="middle" x="165" y="-124.5" font-family="DejaVuSans" font-size="10.00">src/Widgets/InfoWidget.h</text>
</a>
</g>
<!-- Node1&#45;&gt;Node2 -->
<g id="edge2" class="edge"><title>Node1&#45;&gt;Node2</title>
<path fill="none" stroke="midnightblue" d="M223.73,-168.541C209.672,-158.597 192.17,-146.218 179.945,-137.571"/>
<polygon fill="midnightblue" stroke="midnightblue" points="221.775,-171.445 231.96,-174.362 225.817,-165.73 221.775,-171.445"/>
</g>
<!-- Node7 -->
<g id="node13" class="node"><title>Node7</title>
<a xlink:href="_chara_species_8cpp.html" target="_top" xlink:title="src/Widgets/CharaSpecies.cpp">
<polygon fill="white" stroke="black" points="248.5,-116.5 248.5,-137.5 409.5,-137.5 409.5,-116.5 248.5,-116.5"/>
<text text-anchor="middle" x="329" y="-124.5" font-family="DejaVuSans" font-size="10.00">src/Widgets/CharaSpecies.cpp</text>
</a>
</g>
<!-- Node1&#45;&gt;Node7 -->
<g id="edge12" class="edge"><title>Node1&#45;&gt;Node7</title>
<path fill="none" stroke="midnightblue" d="M270.27,-168.541C284.328,-158.597 301.83,-146.218 314.055,-137.571"/>
<polygon fill="midnightblue" stroke="midnightblue" points="268.183,-165.73 262.04,-174.362 272.225,-171.445 268.183,-165.73"/>
</g>
<!-- Node3 -->
<g id="node5" class="node"><title>Node3</title>
<a xlink:href="_main_window_8h.html" target="_top" xlink:title="src/MainWindow.h">
<polygon fill="white" stroke="black" points="45,-58.5 45,-79.5 145,-79.5 145,-58.5 45,-58.5"/>
<text text-anchor="middle" x="95" y="-66.5" font-family="DejaVuSans" font-size="10.00">src/MainWindow.h</text>
</a>
</g>
<!-- Node2&#45;&gt;Node3 -->
<g id="edge4" class="edge"><title>Node2&#45;&gt;Node3</title>
<path fill="none" stroke="midnightblue" d="M144.453,-109.975C132.573,-100.132 117.997,-88.0545 107.758,-79.5707"/>
<polygon fill="midnightblue" stroke="midnightblue" points="142.228,-112.677 152.161,-116.362 146.694,-107.287 142.228,-112.677"/>
</g>
<!-- Node6 -->
<g id="node11" class="node"><title>Node6</title>
<a xlink:href="_info_widget_8cpp.html" target="_top" xlink:title="src/Widgets/InfoWidget.cpp">
<polygon fill="white" stroke="black" points="163,-58.5 163,-79.5 307,-79.5 307,-58.5 163,-58.5"/>
<text text-anchor="middle" x="235" y="-66.5" font-family="DejaVuSans" font-size="10.00">src/Widgets/InfoWidget.cpp</text>
</a>
</g>
<!-- Node2&#45;&gt;Node6 -->
<g id="edge10" class="edge"><title>Node2&#45;&gt;Node6</title>
<path fill="none" stroke="midnightblue" d="M185.547,-109.975C197.427,-100.132 212.003,-88.0545 222.242,-79.5707"/>
<polygon fill="midnightblue" stroke="midnightblue" points="183.306,-107.287 177.839,-116.362 187.772,-112.677 183.306,-107.287"/>
</g>
<!-- Node4 -->
<g id="node7" class="node"><title>Node4</title>
<a xlink:href="main_8cpp.html" target="_top" xlink:title="src/main.cpp">
<polygon fill="white" stroke="black" points="0,-0.5 0,-21.5 78,-21.5 78,-0.5 0,-0.5"/>
<text text-anchor="middle" x="39" y="-8.5" font-family="DejaVuSans" font-size="10.00">src/main.cpp</text>
</a>
</g>
<!-- Node3&#45;&gt;Node4 -->
<g id="edge6" class="edge"><title>Node3&#45;&gt;Node4</title>
<path fill="none" stroke="midnightblue" d="M77.7346,-51.118C68.3882,-41.4377 57.1612,-29.8098 49.2061,-21.5707"/>
<polygon fill="midnightblue" stroke="midnightblue" points="75.2648,-53.599 84.7287,-58.3619 80.3007,-48.7368 75.2648,-53.599"/>
</g>
<!-- Node5 -->
<g id="node9" class="node"><title>Node5</title>
<a xlink:href="_main_window_8cpp.html" target="_top" xlink:title="src/MainWindow.cpp">
<polygon fill="white" stroke="black" points="95.5,-0.5 95.5,-21.5 206.5,-21.5 206.5,-0.5 95.5,-0.5"/>
<text text-anchor="middle" x="151" y="-8.5" font-family="DejaVuSans" font-size="10.00">src/MainWindow.cpp</text>
</a>
</g>
<!-- Node3&#45;&gt;Node5 -->
<g id="edge8" class="edge"><title>Node3&#45;&gt;Node5</title>
<path fill="none" stroke="midnightblue" d="M112.265,-51.118C121.612,-41.4377 132.839,-29.8098 140.794,-21.5707"/>
<polygon fill="midnightblue" stroke="midnightblue" points="109.699,-48.7368 105.271,-58.3619 114.735,-53.599 109.699,-48.7368"/>
</g>
</g>
</svg>
