<?xml version="1.0" encoding="UTF-8" standalone="no"?>
<!DOCTYPE svg PUBLIC "-//W3C//DTD SVG 1.1//EN"
 "http://www.w3.org/Graphics/SVG/1.1/DTD/svg11.dtd">
<!-- Generated by graphviz version 2.26.3 (20100126.1600)
 -->
<!-- Title: G Pages: 1 -->
<svg width="632pt" height="88pt"
 viewBox="0.00 0.00 632.00 88.00" xmlns="http://www.w3.org/2000/svg" xmlns:xlink="http://www.w3.org/1999/xlink">
<g id="graph1" class="graph" transform="scale(1 1) rotate(0) translate(4 84)">
<title>G</title>
<polygon fill="white" stroke="white" points="-4,5 -4,-84 629,-84 629,5 -4,5"/>
<!-- Node1 -->
<g id="node1" class="node"><title>Node1</title>
<polygon fill="#bfbfbf" stroke="black" points="213,-58.5 213,-79.5 345,-79.5 345,-58.5 213,-58.5"/>
<text text-anchor="middle" x="279" y="-66.5" font-family="DejaVuSans" font-size="10.00">src/Widgets/CheckTrait.h</text>
</g>
<!-- Node2 -->
<g id="node3" class="node"><title>Node2</title>
<polygon fill="white" stroke="#bfbfbf" points="0,-0.5 0,-21.5 82,-21.5 82,-0.5 0,-0.5"/>
<text text-anchor="middle" x="41" y="-8.5" font-family="DejaVuSans" font-size="10.00">QHBoxLayout</text>
</g>
<!-- Node1&#45;&gt;Node2 -->
<g id="edge2" class="edge"><title>Node1&#45;&gt;Node2</title>
<path fill="none" stroke="midnightblue" d="M235.9,-58.4966C195.472,-48.6444 134.984,-33.9037 92.1333,-23.4611"/>
<polygon fill="midnightblue" stroke="midnightblue" points="92.7312,-20.0044 82.1868,-21.0371 91.0738,-26.8054 92.7312,-20.0044"/>
</g>
<!-- Node3 -->
<g id="node5" class="node"><title>Node3</title>
<polygon fill="white" stroke="#bfbfbf" points="100,-0.5 100,-21.5 162,-21.5 162,-0.5 100,-0.5"/>
<text text-anchor="middle" x="131" y="-8.5" font-family="DejaVuSans" font-size="10.00">QLineEdit</text>
</g>
<!-- Node1&#45;&gt;Node3 -->
<g id="edge4" class="edge"><title>Node1&#45;&gt;Node3</title>
<path fill="none" stroke="midnightblue" d="M252.198,-58.4966C228.562,-49.2337 193.9,-35.6499 167.692,-25.3793"/>
<polygon fill="midnightblue" stroke="midnightblue" points="168.69,-22.0113 158.102,-21.6212 166.136,-28.5287 168.69,-22.0113"/>
</g>
<!-- Node4 -->
<g id="node7" class="node"><title>Node4</title>
<polygon fill="white" stroke="#bfbfbf" points="179.5,-0.5 179.5,-21.5 250.5,-21.5 250.5,-0.5 179.5,-0.5"/>
<text text-anchor="middle" x="215" y="-8.5" font-family="DejaVuSans" font-size="10.00">QCheckBox</text>
</g>
<!-- Node1&#45;&gt;Node4 -->
<g id="edge6" class="edge"><title>Node1&#45;&gt;Node4</title>
<path fill="none" stroke="midnightblue" d="M267.261,-58.3619C258.059,-50.0226 245.06,-38.2418 234.328,-28.5162"/>
<polygon fill="midnightblue" stroke="midnightblue" points="236.424,-25.6924 226.664,-21.5707 231.724,-30.8793 236.424,-25.6924"/>
</g>
<!-- Node5 -->
<g id="node9" class="node"><title>Node5</title>
<polygon fill="white" stroke="#bfbfbf" points="268,-0.5 268,-21.5 420,-21.5 420,-0.5 268,-0.5"/>
<text text-anchor="middle" x="344" y="-8.5" font-family="DejaVuSans" font-size="10.00">Storage/StorageCharacter.h</text>
</g>
<!-- Node1&#45;&gt;Node5 -->
<g id="edge8" class="edge"><title>Node1&#45;&gt;Node5</title>
<path fill="none" stroke="midnightblue" d="M290.922,-58.3619C300.359,-49.9408 313.73,-38.0105 324.69,-28.2308"/>
<polygon fill="midnightblue" stroke="midnightblue" points="327.022,-30.8401 332.154,-21.5707 322.362,-25.6171 327.022,-30.8401"/>
</g>
<!-- Node6 -->
<g id="node11" class="node"><title>Node6</title>
<polygon fill="white" stroke="#bfbfbf" points="437.5,-0.5 437.5,-21.5 550.5,-21.5 550.5,-0.5 437.5,-0.5"/>
<text text-anchor="middle" x="494" y="-8.5" font-family="DejaVuSans" font-size="10.00">Datatypes/cv_Trait.h</text>
</g>
<!-- Node1&#45;&gt;Node6 -->
<g id="edge10" class="edge"><title>Node1&#45;&gt;Node6</title>
<path fill="none" stroke="midnightblue" d="M317.935,-58.4966C353.593,-48.8773 406.524,-34.5981 445.036,-24.209"/>
<polygon fill="midnightblue" stroke="midnightblue" points="446.249,-27.5069 454.992,-21.5231 444.426,-20.7485 446.249,-27.5069"/>
</g>
<!-- Node7 -->
<g id="node13" class="node"><title>Node7</title>
<polygon fill="white" stroke="#bfbfbf" points="568,-0.5 568,-21.5 624,-21.5 624,-0.5 568,-0.5"/>
<text text-anchor="middle" x="596" y="-8.5" font-family="DejaVuSans" font-size="10.00">QWidget</text>
</g>
<!-- Node1&#45;&gt;Node7 -->
<g id="edge12" class="edge"><title>Node1&#45;&gt;Node7</title>
<path fill="none" stroke="midnightblue" d="M345.077,-60.2432C399.764,-52.4638 479.614,-39.8823 557.793,-22.0806"/>
<polygon fill="midnightblue" stroke="midnightblue" points="558.857,-25.4273 567.813,-19.7678 557.282,-18.6066 558.857,-25.4273"/>
</g>
</g>
</svg>
