<?xml version="1.0" encoding="UTF-8" standalone="no"?>
<!DOCTYPE svg PUBLIC "-//W3C//DTD SVG 1.1//EN"
 "http://www.w3.org/Graphics/SVG/1.1/DTD/svg11.dtd">
<!-- Generated by graphviz version 2.26.3 (20100126.1600)
 -->
<!-- Title: G Pages: 1 -->
<svg width="160pt" height="146pt"
 viewBox="0.00 0.00 160.00 146.00" xmlns="http://www.w3.org/2000/svg" xmlns:xlink="http://www.w3.org/1999/xlink">
<g id="graph1" class="graph" transform="scale(1 1) rotate(0) translate(4 142)">
<title>G</title>
<polygon fill="white" stroke="white" points="-4,5 -4,-142 157,-142 157,5 -4,5"/>
<!-- Node1 -->
<g id="node1" class="node"><title>Node1</title>
<polygon fill="#bfbfbf" stroke="black" points="0,-116.5 0,-137.5 152,-137.5 152,-116.5 0,-116.5"/>
<text text-anchor="middle" x="76" y="-124.5" font-family="DejaVuSans" font-size="10.00">src/Widgets/CheckedList.cpp</text>
</g>
<!-- Node2 -->
<g id="node3" class="node"><title>Node2</title>
<a xlink:href="_checked_list_8h.html" target="_top" xlink:title="CheckedList.h">
<polygon fill="white" stroke="black" points="34.5,-58.5 34.5,-79.5 117.5,-79.5 117.5,-58.5 34.5,-58.5"/>
<text text-anchor="middle" x="76" y="-66.5" font-family="DejaVuSans" font-size="10.00">CheckedList.h</text>
</a>
</g>
<!-- Node1&#45;&gt;Node2 -->
<g id="edge2" class="edge"><title>Node1&#45;&gt;Node2</title>
<path fill="none" stroke="midnightblue" d="M76,-116.362C76,-108.922 76,-98.7427 76,-89.7276"/>
<polygon fill="midnightblue" stroke="midnightblue" points="79.5001,-89.5706 76,-79.5707 72.5001,-89.5707 79.5001,-89.5706"/>
</g>
<!-- Node3 -->
<g id="node5" class="node"><title>Node3</title>
<polygon fill="white" stroke="#bfbfbf" points="39.5,-0.5 39.5,-21.5 112.5,-21.5 112.5,-0.5 39.5,-0.5"/>
<text text-anchor="middle" x="76" y="-8.5" font-family="DejaVuSans" font-size="10.00">QListWidget</text>
</g>
<!-- Node2&#45;&gt;Node3 -->
<g id="edge4" class="edge"><title>Node2&#45;&gt;Node3</title>
<path fill="none" stroke="midnightblue" d="M76,-58.3619C76,-50.9219 76,-40.7427 76,-31.7276"/>
<polygon fill="midnightblue" stroke="midnightblue" points="79.5001,-31.5706 76,-21.5707 72.5001,-31.5707 79.5001,-31.5706"/>
</g>
</g>
</svg>
