<?xml version="1.0" encoding="UTF-8" standalone="no"?>
<!DOCTYPE svg PUBLIC "-//W3C//DTD SVG 1.1//EN"
 "http://www.w3.org/Graphics/SVG/1.1/DTD/svg11.dtd">
<!-- Generated by graphviz version 2.26.3 (20100126.1600)
 -->
<!-- Title: G Pages: 1 -->
<svg width="995pt" height="378pt"
 viewBox="0.00 0.00 994.76 378.00" xmlns="http://www.w3.org/2000/svg" xmlns:xlink="http://www.w3.org/1999/xlink">
<g id="graph1" class="graph" transform="scale(1 1) rotate(0) translate(4 374)">
<title>G</title>
<polygon fill="white" stroke="white" points="-4,5 -4,-374 991.762,-374 991.762,5 -4,5"/>
<!-- Node1 -->
<g id="node1" class="node"><title>Node1</title>
<polygon fill="#bfbfbf" stroke="black" points="469.196,-348.5 469.196,-369.5 601.196,-369.5 601.196,-348.5 469.196,-348.5"/>
<text text-anchor="middle" x="535.196" y="-356.5" font-family="DejaVuSans" font-size="10.00">src/Widgets/CheckTrait.h</text>
</g>
<!-- Node2 -->
<g id="node3" class="node"><title>Node2</title>
<polygon fill="white" stroke="#bfbfbf" points="289.196,-290.5 289.196,-311.5 371.196,-311.5 371.196,-290.5 289.196,-290.5"/>
<text text-anchor="middle" x="330.196" y="-298.5" font-family="DejaVuSans" font-size="10.00">QHBoxLayout</text>
</g>
<!-- Node1&#45;&gt;Node2 -->
<g id="edge2" class="edge"><title>Node1&#45;&gt;Node2</title>
<path fill="none" stroke="midnightblue" d="M498.072,-348.497C464.218,-338.918 414.033,-324.72 377.352,-314.342"/>
<polygon fill="midnightblue" stroke="midnightblue" points="377.965,-310.878 367.39,-311.523 376.059,-317.613 377.965,-310.878"/>
</g>
<!-- Node3 -->
<g id="node5" class="node"><title>Node3</title>
<polygon fill="white" stroke="#bfbfbf" points="389.196,-290.5 389.196,-311.5 451.196,-311.5 451.196,-290.5 389.196,-290.5"/>
<text text-anchor="middle" x="420.196" y="-298.5" font-family="DejaVuSans" font-size="10.00">QLineEdit</text>
</g>
<!-- Node1&#45;&gt;Node3 -->
<g id="edge4" class="edge"><title>Node1&#45;&gt;Node3</title>
<path fill="none" stroke="midnightblue" d="M514.371,-348.497C496.49,-339.479 470.489,-326.365 450.335,-316.201"/>
<polygon fill="midnightblue" stroke="midnightblue" points="451.76,-312.999 441.255,-311.621 448.608,-319.249 451.76,-312.999"/>
</g>
<!-- Node4 -->
<g id="node7" class="node"><title>Node4</title>
<polygon fill="white" stroke="#bfbfbf" points="468.696,-290.5 468.696,-311.5 539.696,-311.5 539.696,-290.5 468.696,-290.5"/>
<text text-anchor="middle" x="504.196" y="-298.5" font-family="DejaVuSans" font-size="10.00">QCheckBox</text>
</g>
<!-- Node1&#45;&gt;Node4 -->
<g id="edge6" class="edge"><title>Node1&#45;&gt;Node4</title>
<path fill="none" stroke="midnightblue" d="M529.51,-348.362C525.359,-340.595 519.612,-329.843 514.643,-320.546"/>
<polygon fill="midnightblue" stroke="midnightblue" points="517.647,-318.74 509.846,-311.571 511.473,-322.04 517.647,-318.74"/>
</g>
<!-- Node5 -->
<g id="node9" class="node"><title>Node5</title>
<a xlink:href="_storage_character_8h.html" target="_top" xlink:title="../Storage/StorageCharacter.h">
<polygon fill="white" stroke="black" points="600.696,-290.5 600.696,-311.5 761.696,-311.5 761.696,-290.5 600.696,-290.5"/>
<text text-anchor="middle" x="681.196" y="-298.5" font-family="DejaVuSans" font-size="10.00">../Storage/StorageCharacter.h</text>
</a>
</g>
<!-- Node1&#45;&gt;Node5 -->
<g id="edge8" class="edge"><title>Node1&#45;&gt;Node5</title>
<path fill="none" stroke="midnightblue" d="M561.636,-348.497C584.953,-339.234 619.147,-325.65 645,-315.379"/>
<polygon fill="midnightblue" stroke="midnightblue" points="646.459,-318.566 654.46,-311.621 643.874,-312.06 646.459,-318.566"/>
</g>
<!-- Node12 -->
<g id="node27" class="node"><title>Node12</title>
<a xlink:href="cv___trait_8h.html" target="_top" xlink:title="../Datatypes/cv_Trait.h">
<polygon fill="white" stroke="black" points="485.196,-174.5 485.196,-195.5 607.196,-195.5 607.196,-174.5 485.196,-174.5"/>
<text text-anchor="middle" x="546.196" y="-182.5" font-family="DejaVuSans" font-size="10.00">../Datatypes/cv_Trait.h</text>
</a>
</g>
<!-- Node1&#45;&gt;Node12 -->
<g id="edge86" class="edge"><title>Node1&#45;&gt;Node12</title>
<path fill="none" stroke="midnightblue" d="M539.032,-348.345C542.207,-338.93 546.465,-324.752 548.196,-312 553.238,-274.86 550.703,-231.054 548.43,-205.805"/>
<polygon fill="midnightblue" stroke="midnightblue" points="551.889,-205.213 547.432,-195.601 544.922,-205.894 551.889,-205.213"/>
</g>
<!-- Node21 -->
<g id="node65" class="node"><title>Node21</title>
<polygon fill="white" stroke="#bfbfbf" points="779.196,-290.5 779.196,-311.5 835.196,-311.5 835.196,-290.5 779.196,-290.5"/>
<text text-anchor="middle" x="807.196" y="-298.5" font-family="DejaVuSans" font-size="10.00">QWidget</text>
</g>
<!-- Node1&#45;&gt;Node21 -->
<g id="edge88" class="edge"><title>Node1&#45;&gt;Node21</title>
<path fill="none" stroke="midnightblue" d="M595.908,-348.437C641.234,-340.19 704.859,-327.854 769.093,-312.125"/>
<polygon fill="midnightblue" stroke="midnightblue" points="770.121,-315.476 778.987,-309.676 768.439,-308.681 770.121,-315.476"/>
</g>
<!-- Node6 -->
<g id="node11" class="node"><title>Node6</title>
<a xlink:href="cv___identity_8h.html" target="_top" xlink:title="../Datatypes/cv_Identity.h">
<polygon fill="white" stroke="black" points="783.696,-116.5 783.696,-137.5 920.696,-137.5 920.696,-116.5 783.696,-116.5"/>
<text text-anchor="middle" x="852.196" y="-124.5" font-family="DejaVuSans" font-size="10.00">../Datatypes/cv_Identity.h</text>
</a>
</g>
<!-- Node5&#45;&gt;Node6 -->
<g id="edge10" class="edge"><title>Node5&#45;&gt;Node6</title>
<path fill="none" stroke="midnightblue" d="M733.139,-290.454C811.125,-273.432 952.427,-237.577 981.196,-196 1000.51,-168.082 964.487,-150.506 925.645,-140.084"/>
<polygon fill="midnightblue" stroke="midnightblue" points="926.293,-136.638 915.741,-137.587 924.582,-143.426 926.293,-136.638"/>
</g>
<!-- Node10 -->
<g id="node21" class="node"><title>Node10</title>
<a xlink:href="cv___identity_list_8h.html" target="_top" xlink:title="../Datatypes/cv_IdentityList.h">
<polygon fill="white" stroke="black" points="707.696,-174.5 707.696,-195.5 862.696,-195.5 862.696,-174.5 707.696,-174.5"/>
<text text-anchor="middle" x="785.196" y="-182.5" font-family="DejaVuSans" font-size="10.00">../Datatypes/cv_IdentityList.h</text>
</a>
</g>
<!-- Node5&#45;&gt;Node10 -->
<g id="edge22" class="edge"><title>Node5&#45;&gt;Node10</title>
<path fill="none" stroke="midnightblue" d="M700.953,-290.496C715.387,-282.084 734.713,-269.2 748.196,-254 760.971,-239.599 770.935,-220.014 777.289,-205.389"/>
<polygon fill="midnightblue" stroke="midnightblue" points="780.683,-206.339 781.266,-195.76 774.213,-203.667 780.683,-206.339"/>
</g>
<!-- Node5&#45;&gt;Node12 -->
<g id="edge30" class="edge"><title>Node5&#45;&gt;Node12</title>
<path fill="none" stroke="midnightblue" d="M667.958,-290.301C656.336,-280.857 639.02,-266.662 624.196,-254 603.943,-236.701 581.169,-216.462 565.483,-202.395"/>
<polygon fill="midnightblue" stroke="midnightblue" points="567.754,-199.731 557.977,-195.65 563.076,-204.937 567.754,-199.731"/>
</g>
<!-- Node17 -->
<g id="node47" class="node"><title>Node17</title>
<a xlink:href="cv___derangement_8h.html" target="_top" xlink:title="../Datatypes/cv_Derangement.h">
<polygon fill="white" stroke="black" points="18.1962,-174.5 18.1962,-195.5 188.196,-195.5 188.196,-174.5 18.1962,-174.5"/>
<text text-anchor="middle" x="103.196" y="-182.5" font-family="DejaVuSans" font-size="10.00">../Datatypes/cv_Derangement.h</text>
</a>
</g>
<!-- Node5&#45;&gt;Node17 -->
<g id="edge60" class="edge"><title>Node5&#45;&gt;Node17</title>
<path fill="none" stroke="midnightblue" d="M628.627,-290.45C521.924,-269.035 280.362,-220.556 165.77,-197.558"/>
<polygon fill="midnightblue" stroke="midnightblue" points="166.242,-194.083 155.749,-195.547 164.865,-200.946 166.242,-194.083"/>
</g>
<!-- Node18 -->
<g id="node52" class="node"><title>Node18</title>
<a xlink:href="_storage_template_8h.html" target="_top" xlink:title="StorageTemplate.h">
<polygon fill="white" stroke="black" points="632.696,-232.5 632.696,-253.5 739.696,-253.5 739.696,-232.5 632.696,-232.5"/>
<text text-anchor="middle" x="686.196" y="-240.5" font-family="DejaVuSans" font-size="10.00">StorageTemplate.h</text>
</a>
</g>
<!-- Node5&#45;&gt;Node18 -->
<g id="edge68" class="edge"><title>Node5&#45;&gt;Node18</title>
<path fill="none" stroke="midnightblue" d="M682.113,-290.362C682.755,-282.922 683.632,-272.743 684.409,-263.728"/>
<polygon fill="midnightblue" stroke="midnightblue" points="687.913,-263.834 685.285,-253.571 680.939,-263.233 687.913,-263.834"/>
</g>
<!-- Node20 -->
<g id="node61" class="node"><title>Node20</title>
<polygon fill="white" stroke="#bfbfbf" points="917.696,-174.5 917.696,-195.5 972.696,-195.5 972.696,-174.5 917.696,-174.5"/>
<text text-anchor="middle" x="945.196" y="-182.5" font-family="DejaVuSans" font-size="10.00">QObject</text>
</g>
<!-- Node5&#45;&gt;Node20 -->
<g id="edge84" class="edge"><title>Node5&#45;&gt;Node20</title>
<path fill="none" stroke="midnightblue" d="M705.559,-290.295C753.026,-269.438 857.949,-223.336 911.831,-199.66"/>
<polygon fill="midnightblue" stroke="midnightblue" points="913.526,-202.739 921.273,-195.512 910.71,-196.33 913.526,-202.739"/>
</g>
<!-- Node7 -->
<g id="node13" class="node"><title>Node7</title>
<polygon fill="white" stroke="#bfbfbf" points="812.696,-0.5 812.696,-21.5 881.696,-21.5 881.696,-0.5 812.696,-0.5"/>
<text text-anchor="middle" x="847.196" y="-8.5" font-family="DejaVuSans" font-size="10.00">QStringList</text>
</g>
<!-- Node6&#45;&gt;Node7 -->
<g id="edge12" class="edge"><title>Node6&#45;&gt;Node7</title>
<path fill="none" stroke="midnightblue" d="M865.099,-116.469C879.536,-103.319 899.841,-79.8843 891.196,-58 886.669,-46.5388 877.88,-36.2323 869.34,-28.2117"/>
<polygon fill="midnightblue" stroke="midnightblue" points="871.527,-25.474 861.697,-21.5208 866.916,-30.7411 871.527,-25.474"/>
</g>
<!-- Node8 -->
<g id="node15" class="node"><title>Node8</title>
<polygon fill="white" stroke="#bfbfbf" points="456.696,-0.5 456.696,-21.5 509.696,-21.5 509.696,-0.5 456.696,-0.5"/>
<text text-anchor="middle" x="483.196" y="-8.5" font-family="DejaVuSans" font-size="10.00">QString</text>
</g>
<!-- Node6&#45;&gt;Node8 -->
<g id="edge14" class="edge"><title>Node6&#45;&gt;Node8</title>
<path fill="none" stroke="midnightblue" d="M841.683,-116.376C825.641,-100.851 793.399,-72.2649 760.196,-58 717.531,-39.6696 585.103,-22.6069 520.036,-15.066"/>
<polygon fill="midnightblue" stroke="midnightblue" points="520.156,-11.5569 509.823,-13.8965 519.359,-18.5114 520.156,-11.5569"/>
</g>
<!-- Node9 -->
<g id="node17" class="node"><title>Node9</title>
<a xlink:href="cv___name_8h.html" target="_top" xlink:title="cv_Name.h">
<polygon fill="white" stroke="black" points="811.696,-58.5 811.696,-79.5 882.696,-79.5 882.696,-58.5 811.696,-58.5"/>
<text text-anchor="middle" x="847.196" y="-66.5" font-family="DejaVuSans" font-size="10.00">cv_Name.h</text>
</a>
</g>
<!-- Node6&#45;&gt;Node9 -->
<g id="edge16" class="edge"><title>Node6&#45;&gt;Node9</title>
<path fill="none" stroke="midnightblue" d="M851.279,-116.362C850.638,-108.922 849.76,-98.7427 848.983,-89.7276"/>
<polygon fill="midnightblue" stroke="midnightblue" points="852.453,-89.2331 848.107,-79.5707 845.479,-89.8343 852.453,-89.2331"/>
</g>
<!-- Node9&#45;&gt;Node7 -->
<g id="edge18" class="edge"><title>Node9&#45;&gt;Node7</title>
<path fill="none" stroke="midnightblue" d="M847.196,-58.3619C847.196,-50.9219 847.196,-40.7427 847.196,-31.7276"/>
<polygon fill="midnightblue" stroke="midnightblue" points="850.696,-31.5706 847.196,-21.5707 843.696,-31.5707 850.696,-31.5706"/>
</g>
<!-- Node9&#45;&gt;Node8 -->
<g id="edge20" class="edge"><title>Node9&#45;&gt;Node8</title>
<path fill="none" stroke="midnightblue" d="M811.664,-60.7048C807.141,-59.7428 802.567,-58.8156 798.196,-58 697.951,-39.2951 578.658,-23.1478 519.788,-15.5809"/>
<polygon fill="midnightblue" stroke="midnightblue" points="520.218,-12.1075 509.855,-14.312 519.331,-19.051 520.218,-12.1075"/>
</g>
<!-- Node10&#45;&gt;Node6 -->
<g id="edge26" class="edge"><title>Node10&#45;&gt;Node6</title>
<path fill="none" stroke="midnightblue" d="M797.485,-174.362C807.213,-165.941 820.994,-154.011 832.292,-144.231"/>
<polygon fill="midnightblue" stroke="midnightblue" points="834.715,-146.762 839.985,-137.571 830.134,-141.469 834.715,-146.762"/>
</g>
<!-- Node10&#45;&gt;Node8 -->
<g id="edge24" class="edge"><title>Node10&#45;&gt;Node8</title>
<path fill="none" stroke="midnightblue" d="M781.007,-174.363C770.621,-149.5 741.154,-87.4567 695.196,-58 666.482,-39.5957 572.453,-23.7285 519.781,-16.0058"/>
<polygon fill="midnightblue" stroke="midnightblue" points="520.227,-12.534 509.83,-14.5716 519.228,-19.4624 520.227,-12.534"/>
</g>
<!-- Node11 -->
<g id="node25" class="node"><title>Node11</title>
<polygon fill="white" stroke="#bfbfbf" points="645.696,-58.5 645.696,-79.5 686.696,-79.5 686.696,-58.5 645.696,-58.5"/>
<text text-anchor="middle" x="666.196" y="-66.5" font-family="DejaVuSans" font-size="10.00">QList</text>
</g>
<!-- Node10&#45;&gt;Node11 -->
<g id="edge28" class="edge"><title>Node10&#45;&gt;Node11</title>
<path fill="none" stroke="midnightblue" d="M774.214,-174.295C753.758,-154.355 709.628,-111.337 684.565,-86.9056"/>
<polygon fill="midnightblue" stroke="midnightblue" points="686.755,-84.1532 677.152,-79.6792 681.869,-89.1657 686.755,-84.1532"/>
</g>
<!-- Node12&#45;&gt;Node7 -->
<g id="edge38" class="edge"><title>Node12&#45;&gt;Node7</title>
<path fill="none" stroke="midnightblue" d="M555.546,-174.458C563.685,-165.115 575.643,-150.98 585.196,-138 610.334,-103.847 602.372,-82.1995 637.196,-58 663.569,-39.6735 749.229,-24.765 802.652,-16.9488"/>
<polygon fill="midnightblue" stroke="midnightblue" points="803.154,-20.4127 812.555,-15.527 802.159,-13.4838 803.154,-20.4127"/>
</g>
<!-- Node12&#45;&gt;Node8 -->
<g id="edge34" class="edge"><title>Node12&#45;&gt;Node8</title>
<path fill="none" stroke="midnightblue" d="M520.696,-174.488C505.658,-166.797 487.915,-154.766 479.196,-138 461.485,-103.941 469.702,-57.5006 476.78,-31.2506"/>
<polygon fill="midnightblue" stroke="midnightblue" points="480.144,-32.2149 479.57,-21.6356 473.422,-30.264 480.144,-32.2149"/>
</g>
<!-- Node12&#45;&gt;Node11 -->
<g id="edge36" class="edge"><title>Node12&#45;&gt;Node11</title>
<path fill="none" stroke="midnightblue" d="M566.626,-174.482C581.921,-165.973 602.774,-152.974 618.196,-138 633.312,-123.324 646.645,-103.255 655.398,-88.5447"/>
<polygon fill="midnightblue" stroke="midnightblue" points="658.499,-90.1734 660.462,-79.7619 652.435,-86.677 658.499,-90.1734"/>
</g>
<!-- Node13 -->
<g id="node29" class="node"><title>Node13</title>
<polygon fill="white" stroke="#bfbfbf" points="383.696,-116.5 383.696,-137.5 432.696,-137.5 432.696,-116.5 383.696,-116.5"/>
<text text-anchor="middle" x="408.196" y="-124.5" font-family="DejaVuSans" font-size="10.00">QFlags</text>
</g>
<!-- Node12&#45;&gt;Node13 -->
<g id="edge32" class="edge"><title>Node12&#45;&gt;Node13</title>
<path fill="none" stroke="midnightblue" d="M521.205,-174.497C499.126,-165.217 466.728,-151.6 442.276,-141.323"/>
<polygon fill="midnightblue" stroke="midnightblue" points="443.576,-138.073 433.001,-137.425 440.864,-144.526 443.576,-138.073"/>
</g>
<!-- Node14 -->
<g id="node34" class="node"><title>Node14</title>
<a xlink:href="cv___species_8h.html" target="_top" xlink:title="cv_Species.h">
<polygon fill="white" stroke="black" points="263.696,-58.5 263.696,-79.5 342.696,-79.5 342.696,-58.5 263.696,-58.5"/>
<text text-anchor="middle" x="303.196" y="-66.5" font-family="DejaVuSans" font-size="10.00">cv_Species.h</text>
</a>
</g>
<!-- Node12&#45;&gt;Node14 -->
<g id="edge40" class="edge"><title>Node12&#45;&gt;Node14</title>
<path fill="none" stroke="midnightblue" d="M484.794,-175.762C450.887,-168.832 408.935,-157.147 375.196,-138 352.327,-125.022 331.252,-103.158 317.891,-87.5183"/>
<polygon fill="midnightblue" stroke="midnightblue" points="320.376,-85.0316 311.299,-79.5663 314.986,-89.4988 320.376,-85.0316"/>
</g>
<!-- Node15 -->
<g id="node37" class="node"><title>Node15</title>
<a xlink:href="cv___trait_detail_8h.html" target="_top" xlink:title="cv_TraitDetail.h">
<polygon fill="white" stroke="black" points="487.696,-116.5 487.696,-137.5 576.696,-137.5 576.696,-116.5 487.696,-116.5"/>
<text text-anchor="middle" x="532.196" y="-124.5" font-family="DejaVuSans" font-size="10.00">cv_TraitDetail.h</text>
</a>
</g>
<!-- Node12&#45;&gt;Node15 -->
<g id="edge44" class="edge"><title>Node12&#45;&gt;Node15</title>
<path fill="none" stroke="midnightblue" d="M543.628,-174.362C541.813,-166.84 539.321,-156.519 537.128,-147.431"/>
<polygon fill="midnightblue" stroke="midnightblue" points="540.496,-146.47 534.748,-137.571 533.692,-148.113 540.496,-146.47"/>
</g>
<!-- Node16 -->
<g id="node43" class="node"><title>Node16</title>
<a xlink:href="cv___abstract_trait_8h.html" target="_top" xlink:title="cv_AbstractTrait.h">
<polygon fill="white" stroke="black" points="13.6962,-116.5 13.6962,-137.5 114.696,-137.5 114.696,-116.5 13.6962,-116.5"/>
<text text-anchor="middle" x="64.1962" y="-124.5" font-family="DejaVuSans" font-size="10.00">cv_AbstractTrait.h</text>
</a>
</g>
<!-- Node12&#45;&gt;Node16 -->
<g id="edge54" class="edge"><title>Node12&#45;&gt;Node16</title>
<path fill="none" stroke="midnightblue" d="M485.151,-177.654C392.49,-166.504 217.369,-145.432 124.907,-134.305"/>
<polygon fill="midnightblue" stroke="midnightblue" points="125.212,-130.817 114.866,-133.097 124.376,-137.767 125.212,-130.817"/>
</g>
<!-- Node14&#45;&gt;Node8 -->
<g id="edge42" class="edge"><title>Node14&#45;&gt;Node8</title>
<path fill="none" stroke="midnightblue" d="M335.793,-58.4966C367.193,-48.3789 414.592,-33.1057 447.114,-22.6264"/>
<polygon fill="midnightblue" stroke="midnightblue" points="448.251,-25.9374 456.696,-19.5391 446.104,-19.2748 448.251,-25.9374"/>
</g>
<!-- Node15&#45;&gt;Node7 -->
<g id="edge50" class="edge"><title>Node15&#45;&gt;Node7</title>
<path fill="none" stroke="midnightblue" d="M537.908,-116.367C546.852,-100.83 565.705,-72.2296 590.196,-58 625.582,-37.4404 738.78,-22.5122 802.508,-15.492"/>
<polygon fill="midnightblue" stroke="midnightblue" points="803.103,-18.9481 812.669,-14.3934 802.351,-11.9886 803.103,-18.9481"/>
</g>
<!-- Node15&#45;&gt;Node8 -->
<g id="edge46" class="edge"><title>Node15&#45;&gt;Node8</title>
<path fill="none" stroke="midnightblue" d="M527.674,-116.295C519.506,-96.9588 502.172,-55.9229 491.719,-31.1767"/>
<polygon fill="midnightblue" stroke="midnightblue" points="494.823,-29.5291 487.707,-21.6792 488.374,-32.253 494.823,-29.5291"/>
</g>
<!-- Node15&#45;&gt;Node11 -->
<g id="edge48" class="edge"><title>Node15&#45;&gt;Node11</title>
<path fill="none" stroke="midnightblue" d="M556.463,-116.497C578.868,-106.799 612.215,-92.365 636.264,-81.9556"/>
<polygon fill="midnightblue" stroke="midnightblue" points="637.835,-85.0895 645.622,-77.9052 635.055,-78.6655 637.835,-85.0895"/>
</g>
<!-- Node15&#45;&gt;Node14 -->
<g id="edge52" class="edge"><title>Node15&#45;&gt;Node14</title>
<path fill="none" stroke="midnightblue" d="M490.726,-116.497C451.909,-106.665 393.872,-91.9659 352.657,-81.5272"/>
<polygon fill="midnightblue" stroke="midnightblue" points="353.379,-78.0996 342.826,-79.0371 351.66,-84.8853 353.379,-78.0996"/>
</g>
<!-- Node16&#45;&gt;Node8 -->
<g id="edge56" class="edge"><title>Node16&#45;&gt;Node8</title>
<path fill="none" stroke="midnightblue" d="M89.7637,-116.432C126.049,-101.743 194.796,-75.0405 255.196,-58 321.775,-39.2162 401.25,-24.5393 446.612,-16.8748"/>
<polygon fill="midnightblue" stroke="midnightblue" points="447.282,-20.3115 456.569,-15.2128 446.129,-13.4071 447.282,-20.3115"/>
</g>
<!-- Node16&#45;&gt;Node14 -->
<g id="edge58" class="edge"><title>Node16&#45;&gt;Node14</title>
<path fill="none" stroke="midnightblue" d="M107.477,-116.497C148.574,-106.523 210.311,-91.5412 253.424,-81.0786"/>
<polygon fill="midnightblue" stroke="midnightblue" points="254.521,-84.414 263.414,-78.6543 252.87,-77.6115 254.521,-84.414"/>
</g>
<!-- Node17&#45;&gt;Node8 -->
<g id="edge62" class="edge"><title>Node17&#45;&gt;Node8</title>
<path fill="none" stroke="midnightblue" d="M63.5617,-174.394C28.4583,-162.974 -14.4087,-142.78 5.19617,-116 57.6691,-44.3239 343.324,-19.6859 446.228,-13.0641"/>
<polygon fill="midnightblue" stroke="midnightblue" points="446.685,-16.5425 456.448,-12.4275 446.25,-9.55606 446.685,-16.5425"/>
</g>
<!-- Node17&#45;&gt;Node14 -->
<g id="edge64" class="edge"><title>Node17&#45;&gt;Node14</title>
<path fill="none" stroke="midnightblue" d="M109.488,-174.294C118.891,-159.19 138.009,-131.718 161.196,-116 188.981,-97.1659 224.909,-85.3688 253.674,-78.3042"/>
<polygon fill="midnightblue" stroke="midnightblue" points="254.586,-81.6856 263.525,-75.9989 252.991,-74.8697 254.586,-81.6856"/>
</g>
<!-- Node17&#45;&gt;Node16 -->
<g id="edge66" class="edge"><title>Node17&#45;&gt;Node16</title>
<path fill="none" stroke="midnightblue" d="M96.043,-174.362C90.7104,-166.431 83.285,-155.389 76.9456,-145.961"/>
<polygon fill="midnightblue" stroke="midnightblue" points="79.7885,-143.916 71.304,-137.571 73.9796,-147.822 79.7885,-143.916"/>
</g>
<!-- Node18&#45;&gt;Node7 -->
<g id="edge72" class="edge"><title>Node18&#45;&gt;Node7</title>
<path fill="none" stroke="midnightblue" d="M740.064,-237.052C778.583,-231.011 830.58,-219.099 871.196,-196 902.885,-177.978 915.245,-171.68 929.196,-138 943.354,-103.82 928.225,-87.7221 906.196,-58 897.31,-46.0109 884.645,-35.3826 873.325,-27.2792"/>
<polygon fill="midnightblue" stroke="midnightblue" points="875.246,-24.3524 865.016,-21.5939 871.293,-30.1295 875.246,-24.3524"/>
</g>
<!-- Node18&#45;&gt;Node10 -->
<g id="edge76" class="edge"><title>Node18&#45;&gt;Node10</title>
<path fill="none" stroke="midnightblue" d="M704.354,-232.362C719.426,-223.532 741.083,-210.844 758.189,-200.822"/>
<polygon fill="midnightblue" stroke="midnightblue" points="760.294,-203.646 767.153,-195.571 756.756,-197.606 760.294,-203.646"/>
</g>
<!-- Node18&#45;&gt;Node11 -->
<g id="edge70" class="edge"><title>Node18&#45;&gt;Node11</title>
<path fill="none" stroke="midnightblue" d="M684.975,-232.377C681.747,-204.293 672.94,-127.673 668.633,-90.2027"/>
<polygon fill="midnightblue" stroke="midnightblue" points="672.071,-89.4626 667.452,-79.9277 665.117,-90.262 672.071,-89.4626"/>
</g>
<!-- Node18&#45;&gt;Node12 -->
<g id="edge74" class="edge"><title>Node18&#45;&gt;Node12</title>
<path fill="none" stroke="midnightblue" d="M660.843,-232.497C638.583,-223.275 605.985,-209.769 581.233,-199.515"/>
<polygon fill="midnightblue" stroke="midnightblue" points="582.412,-196.215 571.834,-195.621 579.733,-202.682 582.412,-196.215"/>
</g>
<!-- Node19 -->
<g id="node58" class="node"><title>Node19</title>
<a xlink:href="cv___super_effect_8h.html" target="_top" xlink:title="../Datatypes/cv_SuperEffect.h">
<polygon fill="white" stroke="black" points="170.196,-116.5 170.196,-137.5 328.196,-137.5 328.196,-116.5 170.196,-116.5"/>
<text text-anchor="middle" x="249.196" y="-124.5" font-family="DejaVuSans" font-size="10.00">../Datatypes/cv_SuperEffect.h</text>
</a>
</g>
<!-- Node18&#45;&gt;Node19 -->
<g id="edge78" class="edge"><title>Node18&#45;&gt;Node19</title>
<path fill="none" stroke="midnightblue" d="M634.154,-232.485C591.498,-223.596 529.664,-210.088 476.196,-196 411.023,-178.827 336.427,-155.419 291.078,-140.761"/>
<polygon fill="midnightblue" stroke="midnightblue" points="291.899,-137.348 281.307,-137.592 289.74,-144.006 291.899,-137.348"/>
</g>
<!-- Node18&#45;&gt;Node20 -->
<g id="edge82" class="edge"><title>Node18&#45;&gt;Node20</title>
<path fill="none" stroke="midnightblue" d="M738.781,-232.428C783.039,-223.347 847.936,-209.603 904.196,-196 905.271,-195.74 906.36,-195.473 907.459,-195.2"/>
<polygon fill="midnightblue" stroke="midnightblue" points="908.635,-198.512 917.455,-192.643 906.9,-191.731 908.635,-198.512"/>
</g>
<!-- Node19&#45;&gt;Node14 -->
<g id="edge80" class="edge"><title>Node19&#45;&gt;Node14</title>
<path fill="none" stroke="midnightblue" d="M259.101,-116.362C266.713,-108.186 277.404,-96.7025 286.353,-87.0907"/>
<polygon fill="midnightblue" stroke="midnightblue" points="289.102,-89.2746 293.355,-79.5707 283.979,-84.5046 289.102,-89.2746"/>
</g>
</g>
</svg>
