<?xml version="1.0" encoding="UTF-8" standalone="no"?>
<!DOCTYPE svg PUBLIC "-//W3C//DTD SVG 1.1//EN"
 "http://www.w3.org/Graphics/SVG/1.1/DTD/svg11.dtd">
<!-- Generated by graphviz version 2.26.3 (20100126.1600)
 -->
<!-- Title: G Pages: 1 -->
<svg width="1245pt" height="436pt"
 viewBox="0.00 0.00 1244.91 436.00" xmlns="http://www.w3.org/2000/svg" xmlns:xlink="http://www.w3.org/1999/xlink">
<g id="graph1" class="graph" transform="scale(1 1) rotate(0) translate(4 432)">
<title>G</title>
<polygon fill="white" stroke="white" points="-4,5 -4,-432 1241.91,-432 1241.91,5 -4,5"/>
<!-- Node1 -->
<g id="node1" class="node"><title>Node1</title>
<polygon fill="#bfbfbf" stroke="black" points="69.3559,-406.5 69.3559,-427.5 212.356,-427.5 212.356,-406.5 69.3559,-406.5"/>
<text text-anchor="middle" x="140.856" y="-414.5" font-family="DejaVuSans" font-size="10.00">src/Widgets/CheckTrait.cpp</text>
</g>
<!-- Node2 -->
<g id="node3" class="node"><title>Node2</title>
<polygon fill="white" stroke="#bfbfbf" points="8.85588,-348.5 8.85588,-369.5 64.8559,-369.5 64.8559,-348.5 8.85588,-348.5"/>
<text text-anchor="middle" x="36.8559" y="-356.5" font-family="DejaVuSans" font-size="10.00">QDebug</text>
</g>
<!-- Node1&#45;&gt;Node2 -->
<g id="edge2" class="edge"><title>Node1&#45;&gt;Node2</title>
<path fill="none" stroke="midnightblue" d="M121.781,-406.362C105.801,-397.45 82.7748,-384.609 64.7292,-374.545"/>
<polygon fill="midnightblue" stroke="midnightblue" points="66.2486,-371.385 55.8102,-369.571 62.839,-377.498 66.2486,-371.385"/>
</g>
<!-- Node3 -->
<g id="node5" class="node"><title>Node3</title>
<a xlink:href="_exception_8h_source.html" target="_top" xlink:title="../Exceptions/Exception.h">
<polygon fill="white" stroke="black" points="120.856,-232.5 120.856,-253.5 256.856,-253.5 256.856,-232.5 120.856,-232.5"/>
<text text-anchor="middle" x="188.856" y="-240.5" font-family="DejaVuSans" font-size="10.00">../Exceptions/Exception.h</text>
</a>
</g>
<!-- Node1&#45;&gt;Node3 -->
<g id="edge4" class="edge"><title>Node1&#45;&gt;Node3</title>
<path fill="none" stroke="midnightblue" d="M143.786,-406.377C151.567,-378.172 172.853,-301.012 183.14,-263.72"/>
<polygon fill="midnightblue" stroke="midnightblue" points="186.556,-264.498 185.841,-253.928 179.808,-262.637 186.556,-264.498"/>
</g>
<!-- Node15 -->
<g id="node42" class="node"><title>Node15</title>
<a xlink:href="_config_8h.html" target="_top" xlink:title="../Config/Config.h">
<polygon fill="white" stroke="black" points="24.8559,-174.5 24.8559,-195.5 122.856,-195.5 122.856,-174.5 24.8559,-174.5"/>
<text text-anchor="middle" x="73.8559" y="-182.5" font-family="DejaVuSans" font-size="10.00">../Config/Config.h</text>
</a>
</g>
<!-- Node1&#45;&gt;Node15 -->
<g id="edge62" class="edge"><title>Node1&#45;&gt;Node15</title>
<path fill="none" stroke="midnightblue" d="M137.803,-406.429C127.448,-370.573 93.5426,-253.169 79.7605,-205.446"/>
<polygon fill="midnightblue" stroke="midnightblue" points="83.064,-204.27 76.9268,-195.634 76.3388,-206.212 83.064,-204.27"/>
</g>
<!-- Node18 -->
<g id="node50" class="node"><title>Node18</title>
<a xlink:href="_check_trait_8h.html" target="_top" xlink:title="CheckTrait.h">
<polygon fill="white" stroke="black" points="653.856,-348.5 653.856,-369.5 727.856,-369.5 727.856,-348.5 653.856,-348.5"/>
<text text-anchor="middle" x="690.856" y="-356.5" font-family="DejaVuSans" font-size="10.00">CheckTrait.h</text>
</a>
</g>
<!-- Node1&#45;&gt;Node18 -->
<g id="edge64" class="edge"><title>Node1&#45;&gt;Node18</title>
<path fill="none" stroke="midnightblue" d="M212.477,-409.447C326.718,-397.4 547.126,-374.157 643.644,-363.979"/>
<polygon fill="midnightblue" stroke="midnightblue" points="644.112,-367.449 653.689,-362.919 643.377,-360.487 644.112,-367.449"/>
</g>
<!-- Node4 -->
<g id="node7" class="node"><title>Node4</title>
<polygon fill="white" stroke="#bfbfbf" points="354.356,-0.5 354.356,-21.5 407.356,-21.5 407.356,-0.5 354.356,-0.5"/>
<text text-anchor="middle" x="380.856" y="-8.5" font-family="DejaVuSans" font-size="10.00">QString</text>
</g>
<!-- Node3&#45;&gt;Node4 -->
<g id="edge6" class="edge"><title>Node3&#45;&gt;Node4</title>
<path fill="none" stroke="midnightblue" d="M188.181,-232.146C186.849,-200.738 187.403,-108.781 234.856,-58 249.812,-41.9946 305.851,-27.1485 343.987,-18.5829"/>
<polygon fill="midnightblue" stroke="midnightblue" points="345.202,-21.8996 354.219,-16.3377 343.702,-15.0623 345.202,-21.8996"/>
</g>
<!-- Node5 -->
<g id="node9" class="node"><title>Node5</title>
<a xlink:href="cv___trait_8h.html" target="_top" xlink:title="../Datatypes/cv_Trait.h">
<polygon fill="white" stroke="black" points="486.856,-174.5 486.856,-195.5 608.856,-195.5 608.856,-174.5 486.856,-174.5"/>
<text text-anchor="middle" x="547.856" y="-182.5" font-family="DejaVuSans" font-size="10.00">../Datatypes/cv_Trait.h</text>
</a>
</g>
<!-- Node3&#45;&gt;Node5 -->
<g id="edge8" class="edge"><title>Node3&#45;&gt;Node5</title>
<path fill="none" stroke="midnightblue" d="M253.868,-232.497C316.682,-222.348 411.598,-207.014 476.477,-196.532"/>
<polygon fill="midnightblue" stroke="midnightblue" points="477.308,-199.943 486.622,-194.893 476.192,-193.033 477.308,-199.943"/>
</g>
<!-- Node12 -->
<g id="node31" class="node"><title>Node12</title>
<a xlink:href="cv___shape_8h.html" target="_top" xlink:title="../Datatypes/cv_Shape.h">
<polygon fill="white" stroke="black" points="26.8559,-58.5 26.8559,-79.5 160.856,-79.5 160.856,-58.5 26.8559,-58.5"/>
<text text-anchor="middle" x="93.8559" y="-66.5" font-family="DejaVuSans" font-size="10.00">../Datatypes/cv_Shape.h</text>
</a>
</g>
<!-- Node3&#45;&gt;Node12 -->
<g id="edge38" class="edge"><title>Node3&#45;&gt;Node12</title>
<path fill="none" stroke="midnightblue" d="M185.14,-232.336C177.097,-209.905 156.777,-156.567 131.856,-116 125.677,-105.942 117.59,-95.6471 110.466,-87.2664"/>
<polygon fill="midnightblue" stroke="midnightblue" points="112.984,-84.8295 103.768,-79.6032 107.713,-89.436 112.984,-84.8295"/>
</g>
<!-- Node13 -->
<g id="node34" class="node"><title>Node13</title>
<a xlink:href="cv___identity_8h.html" target="_top" xlink:title="../Datatypes/cv_Identity.h">
<polygon fill="white" stroke="black" points="1024.36,-116.5 1024.36,-137.5 1161.36,-137.5 1161.36,-116.5 1024.36,-116.5"/>
<text text-anchor="middle" x="1092.86" y="-124.5" font-family="DejaVuSans" font-size="10.00">../Datatypes/cv_Identity.h</text>
</a>
</g>
<!-- Node3&#45;&gt;Node13 -->
<g id="edge42" class="edge"><title>Node3&#45;&gt;Node13</title>
<path fill="none" stroke="midnightblue" d="M257.03,-241.758C460.699,-237.743 1052.47,-223.73 1082.86,-196 1095.81,-184.182 1097.3,-163.649 1096.16,-148.045"/>
<polygon fill="midnightblue" stroke="midnightblue" points="1099.6,-147.29 1094.99,-137.75 1092.64,-148.082 1099.6,-147.29"/>
</g>
<!-- Node3&#45;&gt;Node15 -->
<g id="edge54" class="edge"><title>Node3&#45;&gt;Node15</title>
<path fill="none" stroke="midnightblue" d="M168.03,-232.497C150.15,-223.479 124.148,-210.365 103.995,-200.201"/>
<polygon fill="midnightblue" stroke="midnightblue" points="105.42,-196.999 94.9152,-195.621 102.268,-203.249 105.42,-196.999"/>
</g>
<!-- Node5&#45;&gt;Node4 -->
<g id="edge12" class="edge"><title>Node5&#45;&gt;Node4</title>
<path fill="none" stroke="midnightblue" d="M486.729,-176.311C423.433,-166.69 332.303,-150.844 321.856,-138 294.069,-103.84 335.134,-54.4455 361.534,-28.4724"/>
<polygon fill="midnightblue" stroke="midnightblue" points="364.021,-30.9368 368.843,-21.5027 359.19,-25.8709 364.021,-30.9368"/>
</g>
<!-- Node6 -->
<g id="node11" class="node"><title>Node6</title>
<polygon fill="white" stroke="#bfbfbf" points="486.356,-116.5 486.356,-137.5 535.356,-137.5 535.356,-116.5 486.356,-116.5"/>
<text text-anchor="middle" x="510.856" y="-124.5" font-family="DejaVuSans" font-size="10.00">QFlags</text>
</g>
<!-- Node5&#45;&gt;Node6 -->
<g id="edge10" class="edge"><title>Node5&#45;&gt;Node6</title>
<path fill="none" stroke="midnightblue" d="M541.07,-174.362C536.063,-166.513 529.111,-155.616 523.138,-146.253"/>
<polygon fill="midnightblue" stroke="midnightblue" points="525.928,-144.119 517.599,-137.571 520.027,-147.884 525.928,-144.119"/>
</g>
<!-- Node7 -->
<g id="node14" class="node"><title>Node7</title>
<polygon fill="white" stroke="#bfbfbf" points="886.356,-58.5 886.356,-79.5 927.356,-79.5 927.356,-58.5 886.356,-58.5"/>
<text text-anchor="middle" x="906.856" y="-66.5" font-family="DejaVuSans" font-size="10.00">QList</text>
</g>
<!-- Node5&#45;&gt;Node7 -->
<g id="edge14" class="edge"><title>Node5&#45;&gt;Node7</title>
<path fill="none" stroke="midnightblue" d="M609.037,-181.465C687.479,-175.97 818.227,-163.274 858.856,-138 877.253,-126.555 890.457,-105.176 898.302,-89.2352"/>
<polygon fill="midnightblue" stroke="midnightblue" points="901.687,-90.2522 902.685,-79.7045 895.327,-87.3275 901.687,-90.2522"/>
</g>
<!-- Node8 -->
<g id="node16" class="node"><title>Node8</title>
<polygon fill="white" stroke="#bfbfbf" points="1053.36,-0.5 1053.36,-21.5 1122.36,-21.5 1122.36,-0.5 1053.36,-0.5"/>
<text text-anchor="middle" x="1087.86" y="-8.5" font-family="DejaVuSans" font-size="10.00">QStringList</text>
</g>
<!-- Node5&#45;&gt;Node8 -->
<g id="edge16" class="edge"><title>Node5&#45;&gt;Node8</title>
<path fill="none" stroke="midnightblue" d="M609.122,-180.382C679.896,-174.068 791.075,-160.834 825.856,-138 861.305,-114.726 843.032,-82.1995 877.856,-58 904.228,-39.6735 989.888,-24.765 1043.31,-16.9488"/>
<polygon fill="midnightblue" stroke="midnightblue" points="1043.81,-20.4127 1053.21,-15.527 1042.82,-13.4838 1043.81,-20.4127"/>
</g>
<!-- Node9 -->
<g id="node18" class="node"><title>Node9</title>
<a xlink:href="cv___species_8h.html" target="_top" xlink:title="cv_Species.h">
<polygon fill="white" stroke="black" points="414.356,-58.5 414.356,-79.5 493.356,-79.5 493.356,-58.5 414.356,-58.5"/>
<text text-anchor="middle" x="453.856" y="-66.5" font-family="DejaVuSans" font-size="10.00">cv_Species.h</text>
</a>
</g>
<!-- Node5&#45;&gt;Node9 -->
<g id="edge18" class="edge"><title>Node5&#45;&gt;Node9</title>
<path fill="none" stroke="midnightblue" d="M524.814,-174.443C509.572,-166.402 490.195,-153.994 477.856,-138 466.99,-123.916 460.827,-104.554 457.474,-89.9247"/>
<polygon fill="midnightblue" stroke="midnightblue" points="460.844,-88.931 455.428,-79.8256 453.984,-90.3215 460.844,-88.931"/>
</g>
<!-- Node10 -->
<g id="node21" class="node"><title>Node10</title>
<a xlink:href="cv___trait_detail_8h.html" target="_top" xlink:title="cv_TraitDetail.h">
<polygon fill="white" stroke="black" points="728.356,-116.5 728.356,-137.5 817.356,-137.5 817.356,-116.5 728.356,-116.5"/>
<text text-anchor="middle" x="772.856" y="-124.5" font-family="DejaVuSans" font-size="10.00">cv_TraitDetail.h</text>
</a>
</g>
<!-- Node5&#45;&gt;Node10 -->
<g id="edge22" class="edge"><title>Node5&#45;&gt;Node10</title>
<path fill="none" stroke="midnightblue" d="M588.602,-174.497C626.077,-164.836 681.783,-150.477 722.128,-140.077"/>
<polygon fill="midnightblue" stroke="midnightblue" points="723.224,-143.409 732.034,-137.523 721.477,-136.63 723.224,-143.409"/>
</g>
<!-- Node11 -->
<g id="node27" class="node"><title>Node11</title>
<a xlink:href="cv___abstract_trait_8h.html" target="_top" xlink:title="cv_AbstractTrait.h">
<polygon fill="white" stroke="black" points="330.356,-116.5 330.356,-137.5 431.356,-137.5 431.356,-116.5 330.356,-116.5"/>
<text text-anchor="middle" x="380.856" y="-124.5" font-family="DejaVuSans" font-size="10.00">cv_AbstractTrait.h</text>
</a>
</g>
<!-- Node5&#45;&gt;Node11 -->
<g id="edge32" class="edge"><title>Node5&#45;&gt;Node11</title>
<path fill="none" stroke="midnightblue" d="M517.613,-174.497C490.506,-165.082 450.546,-151.204 420.813,-140.877"/>
<polygon fill="midnightblue" stroke="midnightblue" points="421.75,-137.498 411.155,-137.523 419.453,-144.11 421.75,-137.498"/>
</g>
<!-- Node9&#45;&gt;Node4 -->
<g id="edge20" class="edge"><title>Node9&#45;&gt;Node4</title>
<path fill="none" stroke="midnightblue" d="M440.467,-58.3619C429.765,-49.859 414.56,-37.7785 402.185,-27.9466"/>
<polygon fill="midnightblue" stroke="midnightblue" points="404.167,-25.0511 394.16,-21.5707 399.813,-30.5318 404.167,-25.0511"/>
</g>
<!-- Node10&#45;&gt;Node4 -->
<g id="edge24" class="edge"><title>Node10&#45;&gt;Node4</title>
<path fill="none" stroke="midnightblue" d="M737.029,-116.398C662.658,-94.3904 492.226,-43.9566 417.314,-21.7887"/>
<polygon fill="midnightblue" stroke="midnightblue" points="417.98,-18.3357 407.398,-18.8543 415.994,-25.048 417.98,-18.3357"/>
</g>
<!-- Node10&#45;&gt;Node7 -->
<g id="edge26" class="edge"><title>Node10&#45;&gt;Node7</title>
<path fill="none" stroke="midnightblue" d="M797.122,-116.497C819.527,-106.799 852.875,-92.365 876.924,-81.9556"/>
<polygon fill="midnightblue" stroke="midnightblue" points="878.495,-85.0895 886.282,-77.9052 875.714,-78.6655 878.495,-85.0895"/>
</g>
<!-- Node10&#45;&gt;Node8 -->
<g id="edge28" class="edge"><title>Node10&#45;&gt;Node8</title>
<path fill="none" stroke="midnightblue" d="M778.567,-116.367C787.512,-100.83 806.365,-72.2296 830.856,-58 866.242,-37.4404 979.44,-22.5122 1043.17,-15.492"/>
<polygon fill="midnightblue" stroke="midnightblue" points="1043.76,-18.9481 1053.33,-14.3934 1043.01,-11.9886 1043.76,-18.9481"/>
</g>
<!-- Node10&#45;&gt;Node9 -->
<g id="edge30" class="edge"><title>Node10&#45;&gt;Node9</title>
<path fill="none" stroke="midnightblue" d="M728.342,-117.661C725.472,-117.09 722.625,-116.532 719.856,-116 644.574,-101.54 556.977,-86.3834 503.487,-77.3154"/>
<polygon fill="midnightblue" stroke="midnightblue" points="504.026,-73.8569 493.582,-75.6398 502.858,-80.7588 504.026,-73.8569"/>
</g>
<!-- Node11&#45;&gt;Node4 -->
<g id="edge34" class="edge"><title>Node11&#45;&gt;Node4</title>
<path fill="none" stroke="midnightblue" d="M380.856,-116.295C380.856,-97.1314 380.856,-56.654 380.856,-31.8434"/>
<polygon fill="midnightblue" stroke="midnightblue" points="384.356,-31.6792 380.856,-21.6792 377.356,-31.6792 384.356,-31.6792"/>
</g>
<!-- Node11&#45;&gt;Node9 -->
<g id="edge36" class="edge"><title>Node11&#45;&gt;Node9</title>
<path fill="none" stroke="midnightblue" d="M394.245,-116.362C404.947,-107.859 420.152,-95.7785 432.527,-85.9466"/>
<polygon fill="midnightblue" stroke="midnightblue" points="434.899,-88.5318 440.551,-79.5707 430.545,-83.0511 434.899,-88.5318"/>
</g>
<!-- Node12&#45;&gt;Node4 -->
<g id="edge40" class="edge"><title>Node12&#45;&gt;Node4</title>
<path fill="none" stroke="midnightblue" d="M145.829,-58.4966C203.136,-46.9155 293.866,-28.5798 344.188,-18.4103"/>
<polygon fill="midnightblue" stroke="midnightblue" points="345.177,-21.7811 354.286,-16.3695 343.791,-14.9198 345.177,-21.7811"/>
</g>
<!-- Node13&#45;&gt;Node4 -->
<g id="edge46" class="edge"><title>Node13&#45;&gt;Node4</title>
<path fill="none" stroke="midnightblue" d="M1082.76,-116.242C1067.02,-100.267 1034.87,-70.7863 1000.86,-58 946.303,-37.4923 542.583,-18.138 417.616,-12.5849"/>
<polygon fill="midnightblue" stroke="midnightblue" points="417.56,-9.07908 407.415,-12.1348 417.251,-16.0723 417.56,-9.07908"/>
</g>
<!-- Node13&#45;&gt;Node8 -->
<g id="edge44" class="edge"><title>Node13&#45;&gt;Node8</title>
<path fill="none" stroke="midnightblue" d="M1105.76,-116.469C1120.2,-103.319 1140.5,-79.8843 1131.86,-58 1127.33,-46.5388 1118.54,-36.2323 1110,-28.2117"/>
<polygon fill="midnightblue" stroke="midnightblue" points="1112.19,-25.474 1102.36,-21.5208 1107.58,-30.7411 1112.19,-25.474"/>
</g>
<!-- Node14 -->
<g id="node38" class="node"><title>Node14</title>
<a xlink:href="cv___name_8h.html" target="_top" xlink:title="cv_Name.h">
<polygon fill="white" stroke="black" points="1052.36,-58.5 1052.36,-79.5 1123.36,-79.5 1123.36,-58.5 1052.36,-58.5"/>
<text text-anchor="middle" x="1087.86" y="-66.5" font-family="DejaVuSans" font-size="10.00">cv_Name.h</text>
</a>
</g>
<!-- Node13&#45;&gt;Node14 -->
<g id="edge48" class="edge"><title>Node13&#45;&gt;Node14</title>
<path fill="none" stroke="midnightblue" d="M1091.94,-116.362C1091.3,-108.922 1090.42,-98.7427 1089.64,-89.7276"/>
<polygon fill="midnightblue" stroke="midnightblue" points="1093.11,-89.2331 1088.77,-79.5707 1086.14,-89.8343 1093.11,-89.2331"/>
</g>
<!-- Node14&#45;&gt;Node4 -->
<g id="edge52" class="edge"><title>Node14&#45;&gt;Node4</title>
<path fill="none" stroke="midnightblue" d="M1052.11,-60.3275C1047.67,-59.4408 1043.17,-58.6345 1038.86,-58 804.082,-23.4611 518.3,-14.0429 417.877,-11.7073"/>
<polygon fill="midnightblue" stroke="midnightblue" points="417.725,-8.20313 407.65,-11.4793 417.569,-15.2014 417.725,-8.20313"/>
</g>
<!-- Node14&#45;&gt;Node8 -->
<g id="edge50" class="edge"><title>Node14&#45;&gt;Node8</title>
<path fill="none" stroke="midnightblue" d="M1087.86,-58.3619C1087.86,-50.9219 1087.86,-40.7427 1087.86,-31.7276"/>
<polygon fill="midnightblue" stroke="midnightblue" points="1091.36,-31.5706 1087.86,-21.5707 1084.36,-31.5707 1091.36,-31.5706"/>
</g>
<!-- Node15&#45;&gt;Node4 -->
<g id="edge56" class="edge"><title>Node15&#45;&gt;Node4</title>
<path fill="none" stroke="midnightblue" d="M46.538,-174.429C30.9948,-166.832 12.8763,-154.922 3.85588,-138 -7.23849,-117.188 8.72801,-66.191 17.8559,-58 41.9152,-36.4101 257.06,-19.4481 344.326,-13.3969"/>
<polygon fill="midnightblue" stroke="midnightblue" points="344.575,-16.8881 354.313,-12.7135 344.097,-9.90447 344.575,-16.8881"/>
</g>
<!-- Node16 -->
<g id="node45" class="node"><title>Node16</title>
<polygon fill="white" stroke="#bfbfbf" points="12.3559,-116.5 12.3559,-137.5 61.3559,-137.5 61.3559,-116.5 12.3559,-116.5"/>
<text text-anchor="middle" x="36.8559" y="-124.5" font-family="DejaVuSans" font-size="10.00">QColor</text>
</g>
<!-- Node15&#45;&gt;Node16 -->
<g id="edge58" class="edge"><title>Node15&#45;&gt;Node16</title>
<path fill="none" stroke="midnightblue" d="M67.0695,-174.362C62.0625,-166.513 55.1108,-155.616 49.1378,-146.253"/>
<polygon fill="midnightblue" stroke="midnightblue" points="51.9282,-144.119 43.5992,-137.571 46.0267,-147.884 51.9282,-144.119"/>
</g>
<!-- Node17 -->
<g id="node47" class="node"><title>Node17</title>
<polygon fill="white" stroke="#bfbfbf" points="78.3559,-116.5 78.3559,-137.5 123.356,-137.5 123.356,-116.5 78.3559,-116.5"/>
<text text-anchor="middle" x="100.856" y="-124.5" font-family="DejaVuSans" font-size="10.00">QFont</text>
</g>
<!-- Node15&#45;&gt;Node17 -->
<g id="edge60" class="edge"><title>Node15&#45;&gt;Node17</title>
<path fill="none" stroke="midnightblue" d="M78.8081,-174.362C82.3857,-166.677 87.3239,-156.069 91.6201,-146.84"/>
<polygon fill="midnightblue" stroke="midnightblue" points="94.8877,-148.114 95.9351,-137.571 88.5417,-145.159 94.8877,-148.114"/>
</g>
<!-- Node18&#45;&gt;Node5 -->
<g id="edge112" class="edge"><title>Node18&#45;&gt;Node5</title>
<path fill="none" stroke="midnightblue" d="M653.822,-354.971C625.573,-349.854 588.024,-338.257 566.856,-312 542.26,-281.491 542.483,-233.002 545.038,-205.608"/>
<polygon fill="midnightblue" stroke="midnightblue" points="548.525,-205.919 546.168,-195.59 541.569,-205.134 548.525,-205.919"/>
</g>
<!-- Node19 -->
<g id="node52" class="node"><title>Node19</title>
<polygon fill="white" stroke="#bfbfbf" points="995.856,-290.5 995.856,-311.5 1077.86,-311.5 1077.86,-290.5 995.856,-290.5"/>
<text text-anchor="middle" x="1036.86" y="-298.5" font-family="DejaVuSans" font-size="10.00">QHBoxLayout</text>
</g>
<!-- Node18&#45;&gt;Node19 -->
<g id="edge66" class="edge"><title>Node18&#45;&gt;Node19</title>
<path fill="none" stroke="midnightblue" d="M727.894,-353.836C782.251,-346.102 887.029,-330.599 985.845,-312.114"/>
<polygon fill="midnightblue" stroke="midnightblue" points="986.516,-315.549 995.695,-310.257 985.219,-308.67 986.516,-315.549"/>
</g>
<!-- Node20 -->
<g id="node54" class="node"><title>Node20</title>
<polygon fill="white" stroke="#bfbfbf" points="575.856,-290.5 575.856,-311.5 637.856,-311.5 637.856,-290.5 575.856,-290.5"/>
<text text-anchor="middle" x="606.856" y="-298.5" font-family="DejaVuSans" font-size="10.00">QLineEdit</text>
</g>
<!-- Node18&#45;&gt;Node20 -->
<g id="edge68" class="edge"><title>Node18&#45;&gt;Node20</title>
<path fill="none" stroke="midnightblue" d="M675.449,-348.362C662.898,-339.696 644.964,-327.313 630.581,-317.382"/>
<polygon fill="midnightblue" stroke="midnightblue" points="632.383,-314.372 622.165,-311.571 628.405,-320.133 632.383,-314.372"/>
</g>
<!-- Node21 -->
<g id="node56" class="node"><title>Node21</title>
<polygon fill="white" stroke="#bfbfbf" points="655.356,-290.5 655.356,-311.5 726.356,-311.5 726.356,-290.5 655.356,-290.5"/>
<text text-anchor="middle" x="690.856" y="-298.5" font-family="DejaVuSans" font-size="10.00">QCheckBox</text>
</g>
<!-- Node18&#45;&gt;Node21 -->
<g id="edge70" class="edge"><title>Node18&#45;&gt;Node21</title>
<path fill="none" stroke="midnightblue" d="M690.856,-348.362C690.856,-340.922 690.856,-330.743 690.856,-321.728"/>
<polygon fill="midnightblue" stroke="midnightblue" points="694.356,-321.571 690.856,-311.571 687.356,-321.571 694.356,-321.571"/>
</g>
<!-- Node22 -->
<g id="node58" class="node"><title>Node22</title>
<a xlink:href="_storage_character_8h.html" target="_top" xlink:title="../Storage/StorageCharacter.h">
<polygon fill="white" stroke="black" points="817.356,-290.5 817.356,-311.5 978.356,-311.5 978.356,-290.5 817.356,-290.5"/>
<text text-anchor="middle" x="897.856" y="-298.5" font-family="DejaVuSans" font-size="10.00">../Storage/StorageCharacter.h</text>
</a>
</g>
<!-- Node18&#45;&gt;Node22 -->
<g id="edge72" class="edge"><title>Node18&#45;&gt;Node22</title>
<path fill="none" stroke="midnightblue" d="M727.863,-348.631C761.984,-339.07 812.826,-324.825 850.017,-314.404"/>
<polygon fill="midnightblue" stroke="midnightblue" points="851.435,-317.642 860.12,-311.573 849.547,-310.901 851.435,-317.642"/>
</g>
<!-- Node28 -->
<g id="node85" class="node"><title>Node28</title>
<polygon fill="white" stroke="#bfbfbf" points="743.856,-290.5 743.856,-311.5 799.856,-311.5 799.856,-290.5 743.856,-290.5"/>
<text text-anchor="middle" x="771.856" y="-298.5" font-family="DejaVuSans" font-size="10.00">QWidget</text>
</g>
<!-- Node18&#45;&gt;Node28 -->
<g id="edge114" class="edge"><title>Node18&#45;&gt;Node28</title>
<path fill="none" stroke="midnightblue" d="M705.713,-348.362C717.701,-339.777 734.783,-327.546 748.584,-317.664"/>
<polygon fill="midnightblue" stroke="midnightblue" points="751.001,-320.238 757.093,-311.571 746.925,-314.547 751.001,-320.238"/>
</g>
<!-- Node22&#45;&gt;Node5 -->
<g id="edge84" class="edge"><title>Node22&#45;&gt;Node5</title>
<path fill="none" stroke="midnightblue" d="M865.868,-290.398C802.335,-269.342 660.288,-222.263 589.545,-198.817"/>
<polygon fill="midnightblue" stroke="midnightblue" points="590.236,-195.359 579.643,-195.535 588.034,-202.004 590.236,-195.359"/>
</g>
<!-- Node22&#45;&gt;Node13 -->
<g id="edge74" class="edge"><title>Node22&#45;&gt;Node13</title>
<path fill="none" stroke="midnightblue" d="M960.073,-290.456C1047.35,-274.239 1199.07,-240.342 1230.86,-196 1251.78,-166.814 1212.94,-149.274 1171.2,-139.186"/>
<polygon fill="midnightblue" stroke="midnightblue" points="1171.95,-135.767 1161.42,-136.962 1170.4,-142.592 1171.95,-135.767"/>
</g>
<!-- Node23 -->
<g id="node61" class="node"><title>Node23</title>
<a xlink:href="cv___identity_list_8h.html" target="_top" xlink:title="../Datatypes/cv_IdentityList.h">
<polygon fill="white" stroke="black" points="919.356,-174.5 919.356,-195.5 1074.36,-195.5 1074.36,-174.5 919.356,-174.5"/>
<text text-anchor="middle" x="996.856" y="-182.5" font-family="DejaVuSans" font-size="10.00">../Datatypes/cv_IdentityList.h</text>
</a>
</g>
<!-- Node22&#45;&gt;Node23 -->
<g id="edge76" class="edge"><title>Node22&#45;&gt;Node23</title>
<path fill="none" stroke="midnightblue" d="M915.817,-290.374C929.182,-281.809 947.219,-268.786 959.856,-254 972.363,-239.366 982.356,-219.806 988.788,-205.249"/>
<polygon fill="midnightblue" stroke="midnightblue" points="992.165,-206.249 992.828,-195.675 985.715,-203.528 992.165,-206.249"/>
</g>
<!-- Node24 -->
<g id="node67" class="node"><title>Node24</title>
<a xlink:href="cv___derangement_8h.html" target="_top" xlink:title="../Datatypes/cv_Derangement.h">
<polygon fill="white" stroke="black" points="256.856,-174.5 256.856,-195.5 426.856,-195.5 426.856,-174.5 256.856,-174.5"/>
<text text-anchor="middle" x="341.856" y="-182.5" font-family="DejaVuSans" font-size="10.00">../Datatypes/cv_Derangement.h</text>
</a>
</g>
<!-- Node22&#45;&gt;Node24 -->
<g id="edge86" class="edge"><title>Node22&#45;&gt;Node24</title>
<path fill="none" stroke="midnightblue" d="M847.041,-290.398C744.356,-268.975 512.564,-220.615 402.314,-197.614"/>
<polygon fill="midnightblue" stroke="midnightblue" points="402.856,-194.151 392.352,-195.535 401.426,-201.004 402.856,-194.151"/>
</g>
<!-- Node25 -->
<g id="node72" class="node"><title>Node25</title>
<a xlink:href="_storage_template_8h.html" target="_top" xlink:title="StorageTemplate.h">
<polygon fill="white" stroke="black" points="844.356,-232.5 844.356,-253.5 951.356,-253.5 951.356,-232.5 844.356,-232.5"/>
<text text-anchor="middle" x="897.856" y="-240.5" font-family="DejaVuSans" font-size="10.00">StorageTemplate.h</text>
</a>
</g>
<!-- Node22&#45;&gt;Node25 -->
<g id="edge94" class="edge"><title>Node22&#45;&gt;Node25</title>
<path fill="none" stroke="midnightblue" d="M897.856,-290.362C897.856,-282.922 897.856,-272.743 897.856,-263.728"/>
<polygon fill="midnightblue" stroke="midnightblue" points="901.356,-263.571 897.856,-253.571 894.356,-263.571 901.356,-263.571"/>
</g>
<!-- Node27 -->
<g id="node81" class="node"><title>Node27</title>
<polygon fill="white" stroke="#bfbfbf" points="1167.36,-174.5 1167.36,-195.5 1222.36,-195.5 1222.36,-174.5 1167.36,-174.5"/>
<text text-anchor="middle" x="1194.86" y="-182.5" font-family="DejaVuSans" font-size="10.00">QObject</text>
</g>
<!-- Node22&#45;&gt;Node27 -->
<g id="edge110" class="edge"><title>Node22&#45;&gt;Node27</title>
<path fill="none" stroke="midnightblue" d="M925,-290.398C978.581,-269.471 1097.97,-222.841 1158.37,-199.252"/>
<polygon fill="midnightblue" stroke="midnightblue" points="1159.84,-202.433 1167.88,-195.535 1157.29,-195.913 1159.84,-202.433"/>
</g>
<!-- Node23&#45;&gt;Node4 -->
<g id="edge78" class="edge"><title>Node23&#45;&gt;Node4</title>
<path fill="none" stroke="midnightblue" d="M995.404,-174.47C991.308,-149.279 977.144,-85.5829 935.856,-58 892.874,-29.2852 534.499,-15.7492 417.584,-12.0685"/>
<polygon fill="midnightblue" stroke="midnightblue" points="417.46,-8.56315 407.357,-11.7525 417.244,-15.5598 417.46,-8.56315"/>
</g>
<!-- Node23&#45;&gt;Node7 -->
<g id="edge82" class="edge"><title>Node23&#45;&gt;Node7</title>
<path fill="none" stroke="midnightblue" d="M988.55,-174.295C973.28,-154.613 940.567,-112.45 921.494,-87.8668"/>
<polygon fill="midnightblue" stroke="midnightblue" points="924.037,-85.4346 915.141,-79.6792 918.506,-89.7256 924.037,-85.4346"/>
</g>
<!-- Node23&#45;&gt;Node13 -->
<g id="edge80" class="edge"><title>Node23&#45;&gt;Node13</title>
<path fill="none" stroke="midnightblue" d="M1014.46,-174.362C1029.08,-165.532 1050.08,-152.844 1066.67,-142.822"/>
<polygon fill="midnightblue" stroke="midnightblue" points="1068.61,-145.738 1075.36,-137.571 1064.99,-139.746 1068.61,-145.738"/>
</g>
<!-- Node24&#45;&gt;Node4 -->
<g id="edge88" class="edge"><title>Node24&#45;&gt;Node4</title>
<path fill="none" stroke="midnightblue" d="M300.549,-174.374C281.956,-167.306 261.77,-155.92 250.856,-138 232.362,-107.633 230.431,-87.1035 250.856,-58 261.898,-42.2662 310.022,-27.8203 344.497,-19.2109"/>
<polygon fill="midnightblue" stroke="midnightblue" points="345.369,-22.6009 354.259,-16.8364 343.715,-15.7992 345.369,-22.6009"/>
</g>
<!-- Node24&#45;&gt;Node9 -->
<g id="edge90" class="edge"><title>Node24&#45;&gt;Node9</title>
<path fill="none" stroke="midnightblue" d="M333.51,-174.252C323.401,-159.824 309.202,-133.937 321.856,-116 331.768,-101.949 370.989,-89.0833 404.125,-80.379"/>
<polygon fill="midnightblue" stroke="midnightblue" points="405.35,-83.6787 414.174,-77.8146 403.619,-76.8961 405.35,-83.6787"/>
</g>
<!-- Node24&#45;&gt;Node11 -->
<g id="edge92" class="edge"><title>Node24&#45;&gt;Node11</title>
<path fill="none" stroke="midnightblue" d="M349.009,-174.362C354.342,-166.431 361.767,-155.389 368.106,-145.961"/>
<polygon fill="midnightblue" stroke="midnightblue" points="371.072,-147.822 373.748,-137.571 365.264,-143.916 371.072,-147.822"/>
</g>
<!-- Node25&#45;&gt;Node5 -->
<g id="edge100" class="edge"><title>Node25&#45;&gt;Node5</title>
<path fill="none" stroke="midnightblue" d="M844.317,-234.128C784.028,-224.137 685.785,-207.857 619.063,-196.8"/>
<polygon fill="midnightblue" stroke="midnightblue" points="619.483,-193.322 609.046,-195.14 618.339,-200.228 619.483,-193.322"/>
</g>
<!-- Node25&#45;&gt;Node7 -->
<g id="edge96" class="edge"><title>Node25&#45;&gt;Node7</title>
<path fill="none" stroke="midnightblue" d="M898.405,-232.377C899.858,-204.293 903.821,-127.673 905.759,-90.2027"/>
<polygon fill="midnightblue" stroke="midnightblue" points="909.269,-90.0952 906.291,-79.9277 902.279,-89.7335 909.269,-90.0952"/>
</g>
<!-- Node25&#45;&gt;Node8 -->
<g id="edge98" class="edge"><title>Node25&#45;&gt;Node8</title>
<path fill="none" stroke="midnightblue" d="M951.357,-237.758C993.953,-231.952 1054.13,-220.021 1101.86,-196 1137.34,-178.141 1153.21,-174.068 1169.86,-138 1182.05,-111.563 1147.18,-58.4376 1146.86,-58 1137.97,-46.0109 1125.3,-35.3826 1113.98,-27.2792"/>
<polygon fill="midnightblue" stroke="midnightblue" points="1115.91,-24.3524 1105.68,-21.5939 1111.95,-30.1295 1115.91,-24.3524"/>
</g>
<!-- Node25&#45;&gt;Node23 -->
<g id="edge102" class="edge"><title>Node25&#45;&gt;Node23</title>
<path fill="none" stroke="midnightblue" d="M916.014,-232.362C931.086,-223.532 952.743,-210.844 969.849,-200.822"/>
<polygon fill="midnightblue" stroke="midnightblue" points="971.954,-203.646 978.813,-195.571 968.415,-197.606 971.954,-203.646"/>
</g>
<!-- Node26 -->
<g id="node78" class="node"><title>Node26</title>
<a xlink:href="cv___super_effect_8h.html" target="_top" xlink:title="../Datatypes/cv_SuperEffect.h">
<polygon fill="white" stroke="black" points="552.856,-116.5 552.856,-137.5 710.856,-137.5 710.856,-116.5 552.856,-116.5"/>
<text text-anchor="middle" x="631.856" y="-124.5" font-family="DejaVuSans" font-size="10.00">../Datatypes/cv_SuperEffect.h</text>
</a>
</g>
<!-- Node25&#45;&gt;Node26 -->
<g id="edge104" class="edge"><title>Node25&#45;&gt;Node26</title>
<path fill="none" stroke="midnightblue" d="M873.308,-232.295C825.383,-211.395 719.325,-165.145 665.136,-141.513"/>
<polygon fill="midnightblue" stroke="midnightblue" points="666.526,-138.301 655.96,-137.512 663.727,-144.717 666.526,-138.301"/>
</g>
<!-- Node25&#45;&gt;Node27 -->
<g id="edge108" class="edge"><title>Node25&#45;&gt;Node27</title>
<path fill="none" stroke="midnightblue" d="M951.555,-234.435C1003.53,-225.841 1084.43,-211.66 1153.86,-196 1154.93,-195.757 1156.03,-195.504 1157.13,-195.244"/>
<polygon fill="midnightblue" stroke="midnightblue" points="1158.28,-198.565 1167.14,-192.76 1156.59,-191.771 1158.28,-198.565"/>
</g>
<!-- Node26&#45;&gt;Node9 -->
<g id="edge106" class="edge"><title>Node26&#45;&gt;Node9</title>
<path fill="none" stroke="midnightblue" d="M599.621,-116.497C570.603,-107.041 527.765,-93.0829 496.032,-82.7428"/>
<polygon fill="midnightblue" stroke="midnightblue" points="496.743,-79.2934 486.151,-79.5231 494.574,-85.949 496.743,-79.2934"/>
</g>
</g>
</svg>
