<?xml version="1.0" encoding="UTF-8" standalone="no"?>
<!DOCTYPE svg PUBLIC "-//W3C//DTD SVG 1.1//EN"
 "http://www.w3.org/Graphics/SVG/1.1/DTD/svg11.dtd">
<!-- Generated by graphviz version 2.26.3 (20100126.1600)
 -->
<!-- Title: G Pages: 1 -->
<svg width="502pt" height="88pt"
 viewBox="0.00 0.00 502.00 88.00" xmlns="http://www.w3.org/2000/svg" xmlns:xlink="http://www.w3.org/1999/xlink">
<g id="graph1" class="graph" transform="scale(1 1) rotate(0) translate(4 84)">
<title>G</title>
<polygon fill="white" stroke="white" points="-4,5 -4,-84 499,-84 499,5 -4,5"/>
<!-- Node1 -->
<g id="node1" class="node"><title>Node1</title>
<polygon fill="#bfbfbf" stroke="black" points="149,-58.5 149,-79.5 281,-79.5 281,-58.5 149,-58.5"/>
<text text-anchor="middle" x="215" y="-66.5" font-family="DejaVuSans" font-size="10.00">src/Widgets/CheckTrait.h</text>
</g>
<!-- Node2 -->
<g id="node3" class="node"><title>Node2</title>
<polygon fill="white" stroke="#bfbfbf" points="0,-0.5 0,-21.5 82,-21.5 82,-0.5 0,-0.5"/>
<text text-anchor="middle" x="41" y="-8.5" font-family="DejaVuSans" font-size="10.00">QHBoxLayout</text>
</g>
<!-- Node1&#45;&gt;Node2 -->
<g id="edge2" class="edge"><title>Node1&#45;&gt;Node2</title>
<path fill="none" stroke="midnightblue" d="M183.49,-58.4966C155.123,-49.0411 113.249,-35.0829 82.2284,-24.7428"/>
<polygon fill="midnightblue" stroke="midnightblue" points="83.1628,-21.365 72.5692,-21.5231 80.9492,-28.0058 83.1628,-21.365"/>
</g>
<!-- Node3 -->
<g id="node5" class="node"><title>Node3</title>
<polygon fill="white" stroke="#bfbfbf" points="100,-0.5 100,-21.5 162,-21.5 162,-0.5 100,-0.5"/>
<text text-anchor="middle" x="131" y="-8.5" font-family="DejaVuSans" font-size="10.00">QLineEdit</text>
</g>
<!-- Node1&#45;&gt;Node3 -->
<g id="edge4" class="edge"><title>Node1&#45;&gt;Node3</title>
<path fill="none" stroke="midnightblue" d="M199.593,-58.3619C187.042,-49.6955 169.108,-37.3126 154.725,-27.3819"/>
<polygon fill="midnightblue" stroke="midnightblue" points="156.527,-24.3725 146.309,-21.5707 152.55,-30.1327 156.527,-24.3725"/>
</g>
<!-- Node4 -->
<g id="node7" class="node"><title>Node4</title>
<polygon fill="white" stroke="#bfbfbf" points="179.5,-0.5 179.5,-21.5 250.5,-21.5 250.5,-0.5 179.5,-0.5"/>
<text text-anchor="middle" x="215" y="-8.5" font-family="DejaVuSans" font-size="10.00">QCheckBox</text>
</g>
<!-- Node1&#45;&gt;Node4 -->
<g id="edge6" class="edge"><title>Node1&#45;&gt;Node4</title>
<path fill="none" stroke="midnightblue" d="M215,-58.3619C215,-50.9219 215,-40.7427 215,-31.7276"/>
<polygon fill="midnightblue" stroke="midnightblue" points="218.5,-31.5706 215,-21.5707 211.5,-31.5707 218.5,-31.5706"/>
</g>
<!-- Node5 -->
<g id="node9" class="node"><title>Node5</title>
<polygon fill="white" stroke="#bfbfbf" points="268,-0.5 268,-21.5 420,-21.5 420,-0.5 268,-0.5"/>
<text text-anchor="middle" x="344" y="-8.5" font-family="DejaVuSans" font-size="10.00">Storage/StorageCharacter.h</text>
</g>
<!-- Node1&#45;&gt;Node5 -->
<g id="edge8" class="edge"><title>Node1&#45;&gt;Node5</title>
<path fill="none" stroke="midnightblue" d="M238.361,-58.4966C258.691,-49.3562 288.378,-36.0082 311.109,-25.7883"/>
<polygon fill="midnightblue" stroke="midnightblue" points="312.692,-28.9142 320.377,-21.6212 309.821,-22.5298 312.692,-28.9142"/>
</g>
<!-- Node6 -->
<g id="node11" class="node"><title>Node6</title>
<polygon fill="white" stroke="#bfbfbf" points="438,-0.5 438,-21.5 494,-21.5 494,-0.5 438,-0.5"/>
<text text-anchor="middle" x="466" y="-8.5" font-family="DejaVuSans" font-size="10.00">QWidget</text>
</g>
<!-- Node1&#45;&gt;Node6 -->
<g id="edge10" class="edge"><title>Node1&#45;&gt;Node6</title>
<path fill="none" stroke="midnightblue" d="M268.021,-58.4749C309.19,-50.0485 367.899,-37.481 427.77,-22.1982"/>
<polygon fill="midnightblue" stroke="midnightblue" points="428.966,-25.5044 437.777,-19.6208 427.22,-18.7256 428.966,-25.5044"/>
</g>
</g>
</svg>
