<?xml version="1.0" encoding="UTF-8" standalone="no"?>
<!DOCTYPE svg PUBLIC "-//W3C//DTD SVG 1.1//EN"
 "http://www.w3.org/Graphics/SVG/1.1/DTD/svg11.dtd">
<!-- Generated by graphviz version 2.26.3 (20100126.1600)
 -->
<!-- Title: G Pages: 1 -->
<svg width="713pt" height="146pt"
 viewBox="0.00 0.00 713.00 146.00" xmlns="http://www.w3.org/2000/svg" xmlns:xlink="http://www.w3.org/1999/xlink">
<g id="graph1" class="graph" transform="scale(1 1) rotate(0) translate(4 142)">
<title>G</title>
<polygon fill="white" stroke="white" points="-4,5 -4,-142 710,-142 710,5 -4,5"/>
<!-- Node1 -->
<g id="node1" class="node"><title>Node1</title>
<polygon fill="#bfbfbf" stroke="black" points="127.5,-116.5 127.5,-137.5 270.5,-137.5 270.5,-116.5 127.5,-116.5"/>
<text text-anchor="middle" x="199" y="-124.5" font-family="DejaVuSans" font-size="10.00">src/Widgets/CheckTrait.cpp</text>
</g>
<!-- Node2 -->
<g id="node3" class="node"><title>Node2</title>
<polygon fill="white" stroke="#bfbfbf" points="0,-58.5 0,-79.5 56,-79.5 56,-58.5 0,-58.5"/>
<text text-anchor="middle" x="28" y="-66.5" font-family="DejaVuSans" font-size="10.00">QDebug</text>
</g>
<!-- Node1&#45;&gt;Node2 -->
<g id="edge2" class="edge"><title>Node1&#45;&gt;Node2</title>
<path fill="none" stroke="midnightblue" d="M168.033,-116.497C139.287,-106.747 96.426,-92.2088 65.7002,-81.7872"/>
<polygon fill="midnightblue" stroke="midnightblue" points="66.7784,-78.4571 56.184,-78.5595 64.5299,-85.0862 66.7784,-78.4571"/>
</g>
<!-- Node3 -->
<g id="node5" class="node"><title>Node3</title>
<polygon fill="white" stroke="#bfbfbf" points="73.5,-58.5 73.5,-79.5 200.5,-79.5 200.5,-58.5 73.5,-58.5"/>
<text text-anchor="middle" x="137" y="-66.5" font-family="DejaVuSans" font-size="10.00">Exceptions/Exception.h</text>
</g>
<!-- Node1&#45;&gt;Node3 -->
<g id="edge4" class="edge"><title>Node1&#45;&gt;Node3</title>
<path fill="none" stroke="midnightblue" d="M187.628,-116.362C178.714,-108.023 166.121,-96.2418 155.724,-86.5162"/>
<polygon fill="midnightblue" stroke="midnightblue" points="157.993,-83.8463 148.3,-79.5707 153.211,-88.9582 157.993,-83.8463"/>
</g>
<!-- Node4 -->
<g id="node7" class="node"><title>Node4</title>
<polygon fill="white" stroke="#bfbfbf" points="217.5,-58.5 217.5,-79.5 306.5,-79.5 306.5,-58.5 217.5,-58.5"/>
<text text-anchor="middle" x="262" y="-66.5" font-family="DejaVuSans" font-size="10.00">Config/Config.h</text>
</g>
<!-- Node1&#45;&gt;Node4 -->
<g id="edge6" class="edge"><title>Node1&#45;&gt;Node4</title>
<path fill="none" stroke="midnightblue" d="M210.555,-116.362C219.613,-108.023 232.41,-96.2418 242.974,-86.5162"/>
<polygon fill="midnightblue" stroke="midnightblue" points="245.532,-88.9187 250.518,-79.5707 240.79,-83.7688 245.532,-88.9187"/>
</g>
<!-- Node5 -->
<g id="node9" class="node"><title>Node5</title>
<a xlink:href="_check_trait_8h.html" target="_top" xlink:title="CheckTrait.h">
<polygon fill="white" stroke="black" points="324,-58.5 324,-79.5 398,-79.5 398,-58.5 324,-58.5"/>
<text text-anchor="middle" x="361" y="-66.5" font-family="DejaVuSans" font-size="10.00">CheckTrait.h</text>
</a>
</g>
<!-- Node1&#45;&gt;Node5 -->
<g id="edge8" class="edge"><title>Node1&#45;&gt;Node5</title>
<path fill="none" stroke="midnightblue" d="M228.337,-116.497C254.519,-107.123 293.06,-93.3242 321.863,-83.0122"/>
<polygon fill="midnightblue" stroke="midnightblue" points="323.373,-86.189 331.608,-79.5231 321.013,-79.5987 323.373,-86.189"/>
</g>
<!-- Node6 -->
<g id="node11" class="node"><title>Node6</title>
<polygon fill="white" stroke="#bfbfbf" points="81,-0.5 81,-21.5 163,-21.5 163,-0.5 81,-0.5"/>
<text text-anchor="middle" x="122" y="-8.5" font-family="DejaVuSans" font-size="10.00">QHBoxLayout</text>
</g>
<!-- Node5&#45;&gt;Node6 -->
<g id="edge10" class="edge"><title>Node5&#45;&gt;Node6</title>
<path fill="none" stroke="midnightblue" d="M323.918,-60.0011C283.449,-50.1801 218.392,-34.3921 173.099,-23.4007"/>
<polygon fill="midnightblue" stroke="midnightblue" points="173.725,-19.9509 163.181,-20.9938 172.074,-26.7534 173.725,-19.9509"/>
</g>
<!-- Node7 -->
<g id="node13" class="node"><title>Node7</title>
<polygon fill="white" stroke="#bfbfbf" points="181,-0.5 181,-21.5 243,-21.5 243,-0.5 181,-0.5"/>
<text text-anchor="middle" x="212" y="-8.5" font-family="DejaVuSans" font-size="10.00">QLineEdit</text>
</g>
<!-- Node5&#45;&gt;Node7 -->
<g id="edge12" class="edge"><title>Node5&#45;&gt;Node7</title>
<path fill="none" stroke="midnightblue" d="M334.017,-58.4966C310.147,-49.2048 275.106,-35.5649 248.693,-25.2832"/>
<polygon fill="midnightblue" stroke="midnightblue" points="249.622,-21.889 239.033,-21.5231 247.083,-28.4122 249.622,-21.889"/>
</g>
<!-- Node8 -->
<g id="node15" class="node"><title>Node8</title>
<polygon fill="white" stroke="#bfbfbf" points="260.5,-0.5 260.5,-21.5 331.5,-21.5 331.5,-0.5 260.5,-0.5"/>
<text text-anchor="middle" x="296" y="-8.5" font-family="DejaVuSans" font-size="10.00">QCheckBox</text>
</g>
<!-- Node5&#45;&gt;Node8 -->
<g id="edge14" class="edge"><title>Node5&#45;&gt;Node8</title>
<path fill="none" stroke="midnightblue" d="M349.078,-58.3619C339.641,-49.9408 326.27,-38.0105 315.31,-28.2308"/>
<polygon fill="midnightblue" stroke="midnightblue" points="317.638,-25.6171 307.846,-21.5707 312.978,-30.8401 317.638,-25.6171"/>
</g>
<!-- Node9 -->
<g id="node17" class="node"><title>Node9</title>
<polygon fill="white" stroke="#bfbfbf" points="349,-0.5 349,-21.5 501,-21.5 501,-0.5 349,-0.5"/>
<text text-anchor="middle" x="425" y="-8.5" font-family="DejaVuSans" font-size="10.00">Storage/StorageCharacter.h</text>
</g>
<!-- Node5&#45;&gt;Node9 -->
<g id="edge16" class="edge"><title>Node5&#45;&gt;Node9</title>
<path fill="none" stroke="midnightblue" d="M372.739,-58.3619C381.941,-50.0226 394.94,-38.2418 405.672,-28.5162"/>
<polygon fill="midnightblue" stroke="midnightblue" points="408.276,-30.8793 413.336,-21.5707 403.576,-25.6924 408.276,-30.8793"/>
</g>
<!-- Node10 -->
<g id="node19" class="node"><title>Node10</title>
<polygon fill="white" stroke="#bfbfbf" points="518.5,-0.5 518.5,-21.5 631.5,-21.5 631.5,-0.5 518.5,-0.5"/>
<text text-anchor="middle" x="575" y="-8.5" font-family="DejaVuSans" font-size="10.00">Datatypes/cv_Trait.h</text>
</g>
<!-- Node5&#45;&gt;Node10 -->
<g id="edge18" class="edge"><title>Node5&#45;&gt;Node10</title>
<path fill="none" stroke="midnightblue" d="M398.276,-58.8972C433.673,-49.3037 487.1,-34.8233 525.942,-24.2961"/>
<polygon fill="midnightblue" stroke="midnightblue" points="527.246,-27.569 535.982,-21.5749 525.415,-20.8127 527.246,-27.569"/>
</g>
<!-- Node11 -->
<g id="node21" class="node"><title>Node11</title>
<polygon fill="white" stroke="#bfbfbf" points="649,-0.5 649,-21.5 705,-21.5 705,-0.5 649,-0.5"/>
<text text-anchor="middle" x="677" y="-8.5" font-family="DejaVuSans" font-size="10.00">QWidget</text>
</g>
<!-- Node5&#45;&gt;Node11 -->
<g id="edge20" class="edge"><title>Node5&#45;&gt;Node11</title>
<path fill="none" stroke="midnightblue" d="M398.293,-64.194C450.18,-57.1858 547.218,-42.9174 638.823,-22.071"/>
<polygon fill="midnightblue" stroke="midnightblue" points="639.856,-25.4248 648.813,-19.766 638.282,-18.604 639.856,-25.4248"/>
</g>
</g>
</svg>
