<?xml version="1.0" encoding="UTF-8" standalone="no"?>
<!DOCTYPE svg PUBLIC "-//W3C//DTD SVG 1.1//EN"
 "http://www.w3.org/Graphics/SVG/1.1/DTD/svg11.dtd">
<!-- Generated by graphviz version 2.26.3 (20100126.1600)
 -->
<!-- Title: G Pages: 1 -->
<svg width="6121pt" height="262pt"
 viewBox="0.00 0.00 6121.21 262.00" xmlns="http://www.w3.org/2000/svg" xmlns:xlink="http://www.w3.org/1999/xlink">
<g id="graph1" class="graph" transform="scale(1 1) rotate(0) translate(4 258)">
<title>G</title>
<polygon fill="white" stroke="white" points="-4,5 -4,-258 6118.21,-258 6118.21,5 -4,5"/>
<!-- Node1 -->
<g id="node1" class="node"><title>Node1</title>
<polygon fill="#bfbfbf" stroke="black" points="3877.21,-232.5 3877.21,-253.5 3983.21,-253.5 3983.21,-232.5 3877.21,-232.5"/>
<text text-anchor="middle" x="3930.21" y="-240.5" font-family="DejaVuSans" font-size="10.00">src/Config/Config.h</text>
</g>
<!-- Node2 -->
<g id="node3" class="node"><title>Node2</title>
<a xlink:href="_exception_8h_source.html" target="_top" xlink:title="src/Exceptions/Exception.h">
<polygon fill="white" stroke="black" points="2802.21,-174.5 2802.21,-195.5 2946.21,-195.5 2946.21,-174.5 2802.21,-174.5"/>
<text text-anchor="middle" x="2874.21" y="-182.5" font-family="DejaVuSans" font-size="10.00">src/Exceptions/Exception.h</text>
</a>
</g>
<!-- Node1&#45;&gt;Node2 -->
<g id="edge2" class="edge"><title>Node1&#45;&gt;Node2</title>
<path fill="none" stroke="midnightblue" d="M3867.01,-239.529C3681.97,-229.365 3142.1,-199.714 2946.25,-188.957"/>
<polygon fill="midnightblue" stroke="midnightblue" points="3866.94,-243.03 3877.12,-240.084 3867.32,-236.041 3866.94,-243.03"/>
</g>
<!-- Node4 -->
<g id="node7" class="node"><title>Node4</title>
<a xlink:href="_config_8cpp.html" target="_top" xlink:title="src/Config/Config.cpp">
<polygon fill="white" stroke="black" points="71.7084,-116.5 71.7084,-137.5 188.708,-137.5 188.708,-116.5 71.7084,-116.5"/>
<text text-anchor="middle" x="130.208" y="-124.5" font-family="DejaVuSans" font-size="10.00">src/Config/Config.cpp</text>
</a>
</g>
<!-- Node1&#45;&gt;Node4 -->
<g id="edge98" class="edge"><title>Node1&#45;&gt;Node4</title>
<path fill="none" stroke="midnightblue" d="M3866.93,-242.699C3431.57,-240.55 886.718,-226.742 544.208,-196 410.852,-184.031 255.643,-153.695 178.656,-137.526"/>
<polygon fill="midnightblue" stroke="midnightblue" points="3867.11,-246.2 3877.12,-242.749 3867.14,-239.2 3867.11,-246.2"/>
</g>
<!-- Node12 -->
<g id="node23" class="node"><title>Node12</title>
<a xlink:href="_draw_sheet_8cpp.html" target="_top" xlink:title="src/Draw/DrawSheet.cpp">
<polygon fill="white" stroke="black" points="5109.21,-58.5 5109.21,-79.5 5243.21,-79.5 5243.21,-58.5 5109.21,-58.5"/>
<text text-anchor="middle" x="5176.21" y="-66.5" font-family="DejaVuSans" font-size="10.00">src/Draw/DrawSheet.cpp</text>
</a>
</g>
<!-- Node1&#45;&gt;Node12 -->
<g id="edge100" class="edge"><title>Node1&#45;&gt;Node12</title>
<path fill="none" stroke="midnightblue" d="M3993.67,-241.753C4232.35,-236.502 5067.16,-212.886 5157.21,-138 5174.5,-123.62 5176.84,-95.0817 5176.72,-79.5941"/>
<polygon fill="midnightblue" stroke="midnightblue" points="3993.34,-238.259 3983.42,-241.975 3993.5,-245.257 3993.34,-238.259"/>
</g>
<!-- Node14 -->
<g id="node27" class="node"><title>Node14</title>
<a xlink:href="_read_xml_8cpp.html" target="_top" xlink:title="src/IO/ReadXml.cpp">
<polygon fill="white" stroke="black" points="206.208,-116.5 206.208,-137.5 314.208,-137.5 314.208,-116.5 206.208,-116.5"/>
<text text-anchor="middle" x="260.208" y="-124.5" font-family="DejaVuSans" font-size="10.00">src/IO/ReadXml.cpp</text>
</a>
</g>
<!-- Node1&#45;&gt;Node14 -->
<g id="edge102" class="edge"><title>Node1&#45;&gt;Node14</title>
<path fill="none" stroke="midnightblue" d="M3866.75,-242.556C3444.8,-239.541 1051.47,-221.415 728.208,-196 577.352,-184.139 401.22,-153.609 314.339,-137.427"/>
<polygon fill="midnightblue" stroke="midnightblue" points="3866.91,-246.057 3876.93,-242.629 3866.96,-239.058 3866.91,-246.057"/>
</g>
<!-- Node15 -->
<g id="node29" class="node"><title>Node15</title>
<a xlink:href="_read_xml_character_8cpp.html" target="_top" xlink:title="src/IO/ReadXmlCharacter.cpp">
<polygon fill="white" stroke="black" points="331.708,-116.5 331.708,-137.5 486.708,-137.5 486.708,-116.5 331.708,-116.5"/>
<text text-anchor="middle" x="409.208" y="-124.5" font-family="DejaVuSans" font-size="10.00">src/IO/ReadXmlCharacter.cpp</text>
</a>
</g>
<!-- Node1&#45;&gt;Node15 -->
<g id="edge104" class="edge"><title>Node1&#45;&gt;Node15</title>
<path fill="none" stroke="midnightblue" d="M3867.05,-242.445C3462.04,-238.828 1236.74,-218.07 935.208,-196 766.882,-183.68 570.017,-153.642 471.72,-137.565"/>
<polygon fill="midnightblue" stroke="midnightblue" points="3867.09,-245.945 3877.12,-242.535 3867.15,-238.946 3867.09,-245.945"/>
</g>
<!-- Node16 -->
<g id="node31" class="node"><title>Node16</title>
<a xlink:href="_read_xml_template_8cpp.html" target="_top" xlink:title="src/IO/ReadXmlTemplate.cpp">
<polygon fill="white" stroke="black" points="504.208,-116.5 504.208,-137.5 656.208,-137.5 656.208,-116.5 504.208,-116.5"/>
<text text-anchor="middle" x="580.208" y="-124.5" font-family="DejaVuSans" font-size="10.00">src/IO/ReadXmlTemplate.cpp</text>
</a>
</g>
<!-- Node1&#45;&gt;Node16 -->
<g id="edge106" class="edge"><title>Node1&#45;&gt;Node16</title>
<path fill="none" stroke="midnightblue" d="M3866.78,-242.777C3506.47,-241.381 1714.17,-232.673 1163.21,-196 976.849,-183.596 758.561,-153.594 649.545,-137.545"/>
<polygon fill="midnightblue" stroke="midnightblue" points="3867,-246.278 3877.02,-242.816 3867.03,-239.278 3867,-246.278"/>
</g>
<!-- Node17 -->
<g id="node33" class="node"><title>Node17</title>
<a xlink:href="_settings_8cpp.html" target="_top" xlink:title="src/IO/Settings.cpp">
<polygon fill="white" stroke="black" points="673.708,-116.5 673.708,-137.5 780.708,-137.5 780.708,-116.5 673.708,-116.5"/>
<text text-anchor="middle" x="727.208" y="-124.5" font-family="DejaVuSans" font-size="10.00">src/IO/Settings.cpp</text>
</a>
</g>
<!-- Node1&#45;&gt;Node17 -->
<g id="edge108" class="edge"><title>Node1&#45;&gt;Node17</title>
<path fill="none" stroke="midnightblue" d="M3866.72,-242.745C3598.94,-241.445 2535.34,-234.032 1662.21,-196 1273.72,-179.078 1175.22,-184.924 789.208,-138 786.495,-137.67 783.721,-137.3 780.923,-136.9"/>
<polygon fill="midnightblue" stroke="midnightblue" points="3867,-246.246 3877.02,-242.794 3867.04,-239.246 3867,-246.246"/>
</g>
<!-- Node18 -->
<g id="node35" class="node"><title>Node18</title>
<a xlink:href="_write_xml_character_8cpp.html" target="_top" xlink:title="src/IO/WriteXmlCharacter.cpp">
<polygon fill="white" stroke="black" points="797.708,-116.5 797.708,-137.5 952.708,-137.5 952.708,-116.5 797.708,-116.5"/>
<text text-anchor="middle" x="875.208" y="-124.5" font-family="DejaVuSans" font-size="10.00">src/IO/WriteXmlCharacter.cpp</text>
</a>
</g>
<!-- Node1&#45;&gt;Node18 -->
<g id="edge110" class="edge"><title>Node1&#45;&gt;Node18</title>
<path fill="none" stroke="midnightblue" d="M3867,-241.557C3491.89,-232.875 1554.54,-186.335 961.208,-138 958.508,-137.78 955.762,-137.537 952.991,-137.274"/>
<polygon fill="midnightblue" stroke="midnightblue" points="3867.04,-245.059 3877.12,-241.791 3867.2,-238.061 3867.04,-245.059"/>
</g>
<!-- Node20 -->
<g id="node39" class="node"><title>Node20</title>
<a xlink:href="_main_window_8cpp.html" target="_top" xlink:title="src/MainWindow.cpp">
<polygon fill="white" stroke="black" points="2008.71,-0.5 2008.71,-21.5 2119.71,-21.5 2119.71,-0.5 2008.71,-0.5"/>
<text text-anchor="middle" x="2064.21" y="-8.5" font-family="DejaVuSans" font-size="10.00">src/MainWindow.cpp</text>
</a>
</g>
<!-- Node1&#45;&gt;Node20 -->
<g id="edge112" class="edge"><title>Node1&#45;&gt;Node20</title>
<path fill="none" stroke="midnightblue" d="M3866.89,-242.608C3371.97,-239.5 141.969,-218.369 98.2084,-196 69.6356,-181.394 65.2716,-168.471 55.2084,-138 -6.63443,49.2558 -123.697,-108.721 423.208,-58 741.059,-28.5218 1759.06,-14.6461 2008.6,-11.6377"/>
<polygon fill="midnightblue" stroke="midnightblue" points="3867.03,-246.109 3877.05,-242.672 3867.08,-239.109 3867.03,-246.109"/>
</g>
<!-- Node22 -->
<g id="node43" class="node"><title>Node22</title>
<a xlink:href="_message_box_8cpp.html" target="_top" xlink:title="src/Widgets/Dialogs/MessageBox.cpp">
<polygon fill="white" stroke="black" points="432.208,-58.5 432.208,-79.5 626.208,-79.5 626.208,-58.5 432.208,-58.5"/>
<text text-anchor="middle" x="529.208" y="-66.5" font-family="DejaVuSans" font-size="10.00">src/Widgets/Dialogs/MessageBox.cpp</text>
</a>
</g>
<!-- Node1&#45;&gt;Node22 -->
<g id="edge126" class="edge"><title>Node1&#45;&gt;Node22</title>
<path fill="none" stroke="midnightblue" d="M3866.71,-242.802C3418.6,-241.318 739.803,-231.027 380.208,-196 237.655,-182.114 154.92,-248.014 63.2084,-138 56.9475,-130.49 56.6505,-123.253 63.2084,-116 87.4428,-89.1984 302.683,-76.9566 432.002,-71.9769"/>
<polygon fill="midnightblue" stroke="midnightblue" points="3866.87,-246.302 3876.88,-242.835 3866.89,-239.302 3866.87,-246.302"/>
</g>
<!-- Node23 -->
<g id="node46" class="node"><title>Node23</title>
<a xlink:href="_string_bool_parser_8cpp.html" target="_top" xlink:title="src/Parser/StringBoolParser.cpp">
<polygon fill="white" stroke="black" points="3166.21,-116.5 3166.21,-137.5 3332.21,-137.5 3332.21,-116.5 3166.21,-116.5"/>
<text text-anchor="middle" x="3249.21" y="-124.5" font-family="DejaVuSans" font-size="10.00">src/Parser/StringBoolParser.cpp</text>
</a>
</g>
<!-- Node1&#45;&gt;Node23 -->
<g id="edge114" class="edge"><title>Node1&#45;&gt;Node23</title>
<path fill="none" stroke="midnightblue" d="M3867.04,-233.237C3807.47,-223.95 3715.7,-209.44 3636.21,-196 3518.95,-176.176 3382.02,-151.371 3306.53,-137.55"/>
<polygon fill="midnightblue" stroke="midnightblue" points="3866.63,-236.715 3877.05,-234.795 3867.71,-229.798 3866.63,-236.715"/>
</g>
<!-- Node24 -->
<g id="node48" class="node"><title>Node24</title>
<a xlink:href="_storage_template_8cpp.html" target="_top" xlink:title="src/Storage/StorageTemplate.cpp">
<polygon fill="white" stroke="black" points="3349.71,-116.5 3349.71,-137.5 3526.71,-137.5 3526.71,-116.5 3349.71,-116.5"/>
<text text-anchor="middle" x="3438.21" y="-124.5" font-family="DejaVuSans" font-size="10.00">src/Storage/StorageTemplate.cpp</text>
</a>
</g>
<!-- Node1&#45;&gt;Node24 -->
<g id="edge118" class="edge"><title>Node1&#45;&gt;Node24</title>
<path fill="none" stroke="midnightblue" d="M3875.22,-230.035C3776.97,-206.871 3573.15,-158.817 3482.89,-137.535"/>
<polygon fill="midnightblue" stroke="midnightblue" points="3874.71,-233.51 3885.24,-232.398 3876.31,-226.697 3874.71,-233.51"/>
</g>
<!-- Node25 -->
<g id="node50" class="node"><title>Node25</title>
<a xlink:href="_advantages_widget_8cpp.html" target="_top" xlink:title="src/Widgets/AdvantagesWidget.cpp">
<polygon fill="white" stroke="black" points="5524.21,-58.5 5524.21,-79.5 5708.21,-79.5 5708.21,-58.5 5524.21,-58.5"/>
<text text-anchor="middle" x="5616.21" y="-66.5" font-family="DejaVuSans" font-size="10.00">src/Widgets/AdvantagesWidget.cpp</text>
</a>
</g>
<!-- Node1&#45;&gt;Node25 -->
<g id="edge120" class="edge"><title>Node1&#45;&gt;Node25</title>
<path fill="none" stroke="midnightblue" d="M3993.31,-242.22C4236.82,-239.015 5115.6,-225.61 5393.21,-196 5428.92,-192.191 5688.2,-165.581 5711.21,-138 5732.49,-112.484 5688.16,-91.488 5653.14,-79.6002"/>
<polygon fill="midnightblue" stroke="midnightblue" points="3993.16,-238.721 3983.21,-242.352 3993.25,-245.721 3993.16,-238.721"/>
</g>
<!-- Node26 -->
<g id="node52" class="node"><title>Node26</title>
<a xlink:href="_attribute_widget_8cpp.html" target="_top" xlink:title="src/Widgets/AttributeWidget.cpp">
<polygon fill="white" stroke="black" points="5203.71,-116.5 5203.71,-137.5 5372.71,-137.5 5372.71,-116.5 5203.71,-116.5"/>
<text text-anchor="middle" x="5288.21" y="-124.5" font-family="DejaVuSans" font-size="10.00">src/Widgets/AttributeWidget.cpp</text>
</a>
</g>
<!-- Node1&#45;&gt;Node26 -->
<g id="edge122" class="edge"><title>Node1&#45;&gt;Node26</title>
<path fill="none" stroke="midnightblue" d="M3993.65,-242.743C4233.43,-241.486 5076.52,-234.353 5190.21,-196 5226.29,-183.828 5260.86,-153.799 5277.65,-137.663"/>
<polygon fill="midnightblue" stroke="midnightblue" points="3993.35,-239.245 3983.36,-242.796 3993.38,-246.245 3993.35,-239.245"/>
</g>
<!-- Node28 -->
<g id="node57" class="node"><title>Node28</title>
<a xlink:href="_check_trait_8cpp.html" target="_top" xlink:title="src/Widgets/CheckTrait.cpp">
<polygon fill="white" stroke="black" points="3543.71,-116.5 3543.71,-137.5 3686.71,-137.5 3686.71,-116.5 3543.71,-116.5"/>
<text text-anchor="middle" x="3615.21" y="-124.5" font-family="DejaVuSans" font-size="10.00">src/Widgets/CheckTrait.cpp</text>
</a>
</g>
<!-- Node1&#45;&gt;Node28 -->
<g id="edge124" class="edge"><title>Node1&#45;&gt;Node28</title>
<path fill="none" stroke="midnightblue" d="M3891.7,-228.819C3827.64,-205.227 3700.61,-158.451 3643.82,-137.535"/>
<polygon fill="midnightblue" stroke="midnightblue" points="3890.83,-232.227 3901.42,-232.398 3893.24,-225.658 3890.83,-232.227"/>
</g>
<!-- Node30 -->
<g id="node61" class="node"><title>Node30</title>
<a xlink:href="_select_merits_dialog_8cpp.html" target="_top" xlink:title="src/Widgets/Dialogs/SelectMeritsDialog.cpp">
<polygon fill="white" stroke="black" points="3704.21,-116.5 3704.21,-137.5 3926.21,-137.5 3926.21,-116.5 3704.21,-116.5"/>
<text text-anchor="middle" x="3815.21" y="-124.5" font-family="DejaVuSans" font-size="10.00">src/Widgets/Dialogs/SelectMeritsDialog.cpp</text>
</a>
</g>
<!-- Node1&#45;&gt;Node30 -->
<g id="edge128" class="edge"><title>Node1&#45;&gt;Node30</title>
<path fill="none" stroke="midnightblue" d="M3912.43,-225.063C3888.19,-200.615 3845.54,-157.6 3825.8,-137.679"/>
<polygon fill="midnightblue" stroke="midnightblue" points="3910.07,-227.657 3919.6,-232.295 3915.04,-222.729 3910.07,-227.657"/>
</g>
<!-- Node31 -->
<g id="node63" class="node"><title>Node31</title>
<a xlink:href="_settings_dialog_8cpp.html" target="_top" xlink:title="src/Widgets/Dialogs/SettingsDialog.cpp">
<polygon fill="white" stroke="black" points="3943.71,-116.5 3943.71,-137.5 4146.71,-137.5 4146.71,-116.5 3943.71,-116.5"/>
<text text-anchor="middle" x="4045.21" y="-124.5" font-family="DejaVuSans" font-size="10.00">src/Widgets/Dialogs/SettingsDialog.cpp</text>
</a>
</g>
<!-- Node1&#45;&gt;Node31 -->
<g id="edge130" class="edge"><title>Node1&#45;&gt;Node31</title>
<path fill="none" stroke="midnightblue" d="M3947.99,-225.063C3972.23,-200.615 4014.87,-157.6 4034.62,-137.679"/>
<polygon fill="midnightblue" stroke="midnightblue" points="3945.38,-222.729 3940.82,-232.295 3950.35,-227.657 3945.38,-222.729"/>
</g>
<!-- Node32 -->
<g id="node65" class="node"><title>Node32</title>
<a xlink:href="_flaw_widget_8cpp.html" target="_top" xlink:title="src/Widgets/FlawWidget.cpp">
<polygon fill="white" stroke="black" points="4163.71,-116.5 4163.71,-137.5 4310.71,-137.5 4310.71,-116.5 4163.71,-116.5"/>
<text text-anchor="middle" x="4237.21" y="-124.5" font-family="DejaVuSans" font-size="10.00">src/Widgets/FlawWidget.cpp</text>
</a>
</g>
<!-- Node1&#45;&gt;Node32 -->
<g id="edge132" class="edge"><title>Node1&#45;&gt;Node32</title>
<path fill="none" stroke="midnightblue" d="M3967.74,-228.819C4030.18,-205.227 4153.97,-158.451 4209.33,-137.535"/>
<polygon fill="midnightblue" stroke="midnightblue" points="3966.38,-225.59 3958.27,-232.398 3968.86,-232.138 3966.38,-225.59"/>
</g>
<!-- Node33 -->
<g id="node67" class="node"><title>Node33</title>
<a xlink:href="_info_widget_8cpp.html" target="_top" xlink:title="src/Widgets/InfoWidget.cpp">
<polygon fill="white" stroke="black" points="4328.21,-116.5 4328.21,-137.5 4472.21,-137.5 4472.21,-116.5 4328.21,-116.5"/>
<text text-anchor="middle" x="4400.21" y="-124.5" font-family="DejaVuSans" font-size="10.00">src/Widgets/InfoWidget.cpp</text>
</a>
</g>
<!-- Node1&#45;&gt;Node33 -->
<g id="edge134" class="edge"><title>Node1&#45;&gt;Node33</title>
<path fill="none" stroke="midnightblue" d="M3983.02,-229.965C4076.99,-206.774 4271.38,-158.795 4357.52,-137.535"/>
<polygon fill="midnightblue" stroke="midnightblue" points="3982.03,-226.604 3973.16,-232.398 3983.71,-233.4 3982.03,-226.604"/>
</g>
<!-- Node34 -->
<g id="node69" class="node"><title>Node34</title>
<a xlink:href="_merit_widget_8cpp.html" target="_top" xlink:title="src/Widgets/MeritWidget.cpp">
<polygon fill="white" stroke="black" points="4489.71,-116.5 4489.71,-137.5 4640.71,-137.5 4640.71,-116.5 4489.71,-116.5"/>
<text text-anchor="middle" x="4565.21" y="-124.5" font-family="DejaVuSans" font-size="10.00">src/Widgets/MeritWidget.cpp</text>
</a>
</g>
<!-- Node1&#45;&gt;Node34 -->
<g id="edge136" class="edge"><title>Node1&#45;&gt;Node34</title>
<path fill="none" stroke="midnightblue" d="M3993.3,-231.474C4116.68,-208.935 4388.22,-159.332 4507.31,-137.578"/>
<polygon fill="midnightblue" stroke="midnightblue" points="3992.46,-228.069 3983.26,-233.309 3993.72,-234.955 3992.46,-228.069"/>
</g>
<!-- Node35 -->
<g id="node71" class="node"><title>Node35</title>
<a xlink:href="_power_widget_8cpp.html" target="_top" xlink:title="src/Widgets/PowerWidget.cpp">
<polygon fill="white" stroke="black" points="4657.71,-116.5 4657.71,-137.5 4812.71,-137.5 4812.71,-116.5 4657.71,-116.5"/>
<text text-anchor="middle" x="4735.21" y="-124.5" font-family="DejaVuSans" font-size="10.00">src/Widgets/PowerWidget.cpp</text>
</a>
</g>
<!-- Node1&#45;&gt;Node35 -->
<g id="edge140" class="edge"><title>Node1&#45;&gt;Node35</title>
<path fill="none" stroke="midnightblue" d="M3993.16,-234.127C4059.76,-224.726 4167.9,-209.416 4261.21,-196 4403.81,-175.496 4570.49,-151.142 4663.35,-137.541"/>
<polygon fill="midnightblue" stroke="midnightblue" points="3992.66,-230.664 3983.24,-235.528 3993.64,-237.596 3992.66,-230.664"/>
</g>
<!-- Node36 -->
<g id="node73" class="node"><title>Node36</title>
<a xlink:href="_skill_widget_8cpp.html" target="_top" xlink:title="src/Widgets/SkillWidget.cpp">
<polygon fill="white" stroke="black" points="4830.21,-116.5 4830.21,-137.5 4976.21,-137.5 4976.21,-116.5 4830.21,-116.5"/>
<text text-anchor="middle" x="4903.21" y="-124.5" font-family="DejaVuSans" font-size="10.00">src/Widgets/SkillWidget.cpp</text>
</a>
</g>
<!-- Node1&#45;&gt;Node36 -->
<g id="edge142" class="edge"><title>Node1&#45;&gt;Node36</title>
<path fill="none" stroke="midnightblue" d="M3993.52,-236.026C4075.09,-227 4221.26,-210.687 4346.21,-196 4557.43,-171.172 4610.25,-165.028 4821.21,-138 4824.06,-137.635 4826.96,-137.26 4829.9,-136.878"/>
<polygon fill="midnightblue" stroke="midnightblue" points="3992.97,-232.565 3983.42,-237.143 3993.74,-239.523 3992.97,-232.565"/>
</g>
<!-- Node37 -->
<g id="node75" class="node"><title>Node37</title>
<a xlink:href="_calc_advantages_8h.html" target="_top" xlink:title="src/Calc/CalcAdvantages.h">
<polygon fill="white" stroke="black" points="5241.71,-174.5 5241.71,-195.5 5384.71,-195.5 5384.71,-174.5 5241.71,-174.5"/>
<text text-anchor="middle" x="5313.21" y="-182.5" font-family="DejaVuSans" font-size="10.00">src/Calc/CalcAdvantages.h</text>
</a>
</g>
<!-- Node1&#45;&gt;Node37 -->
<g id="edge76" class="edge"><title>Node1&#45;&gt;Node37</title>
<path fill="none" stroke="midnightblue" d="M3993.53,-241.485C4219.27,-235.961 4984.06,-216.175 5228.21,-196 5232.51,-195.645 5236.93,-195.229 5241.38,-194.77"/>
<polygon fill="midnightblue" stroke="midnightblue" points="3993.42,-237.986 3983.51,-241.729 3993.59,-244.984 3993.42,-237.986"/>
</g>
<!-- Node42 -->
<g id="node100" class="node"><title>Node42</title>
<a xlink:href="_storage_character_8cpp.html" target="_top" xlink:title="src/Storage/StorageCharacter.cpp">
<polygon fill="white" stroke="black" points="5599.21,-174.5 5599.21,-195.5 5779.21,-195.5 5779.21,-174.5 5599.21,-174.5"/>
<text text-anchor="middle" x="5689.21" y="-182.5" font-family="DejaVuSans" font-size="10.00">src/Storage/StorageCharacter.cpp</text>
</a>
</g>
<!-- Node1&#45;&gt;Node42 -->
<g id="edge116" class="edge"><title>Node1&#45;&gt;Node42</title>
<path fill="none" stroke="midnightblue" d="M3993.51,-241.856C4256.88,-236.993 5266.99,-217.316 5585.21,-196 5589.74,-195.697 5594.37,-195.348 5599.05,-194.965"/>
<polygon fill="midnightblue" stroke="midnightblue" points="3993.29,-238.359 3983.35,-242.043 3993.42,-245.358 3993.29,-238.359"/>
</g>
<!-- Node43 -->
<g id="node112" class="node"><title>Node43</title>
<a xlink:href="_morality_widget_8cpp.html" target="_top" xlink:title="src/Widgets/MoralityWidget.cpp">
<polygon fill="white" stroke="black" points="5797.21,-174.5 5797.21,-195.5 5961.21,-195.5 5961.21,-174.5 5797.21,-174.5"/>
<text text-anchor="middle" x="5879.21" y="-182.5" font-family="DejaVuSans" font-size="10.00">src/Widgets/MoralityWidget.cpp</text>
</a>
</g>
<!-- Node1&#45;&gt;Node43 -->
<g id="edge138" class="edge"><title>Node1&#45;&gt;Node43</title>
<path fill="none" stroke="midnightblue" d="M3993.68,-242.206C4277.02,-238.535 5428,-222.267 5788.21,-196 5791.07,-195.792 5793.97,-195.558 5796.9,-195.304"/>
<polygon fill="midnightblue" stroke="midnightblue" points="3993.54,-238.707 3983.58,-242.336 3993.63,-245.707 3993.54,-238.707"/>
</g>
<!-- Node44 -->
<g id="node116" class="node"><title>Node44</title>
<a xlink:href="_trait_line_8cpp.html" target="_top" xlink:title="src/Widgets/TraitLine.cpp">
<polygon fill="white" stroke="black" points="5979.21,-174.5 5979.21,-195.5 6113.21,-195.5 6113.21,-174.5 5979.21,-174.5"/>
<text text-anchor="middle" x="6046.21" y="-182.5" font-family="DejaVuSans" font-size="10.00">src/Widgets/TraitLine.cpp</text>
</a>
</g>
<!-- Node1&#45;&gt;Node44 -->
<g id="edge144" class="edge"><title>Node1&#45;&gt;Node44</title>
<path fill="none" stroke="midnightblue" d="M3993.91,-242.569C4294.45,-240.378 5572.47,-229.243 5970.21,-196 5973.13,-195.756 5976.11,-195.472 5979.12,-195.158"/>
<polygon fill="midnightblue" stroke="midnightblue" points="3993.61,-239.071 3983.64,-242.643 3993.66,-246.071 3993.61,-239.071"/>
</g>
<!-- Node3 -->
<g id="node5" class="node"><title>Node3</title>
<a xlink:href="_calc_advantages_8cpp.html" target="_top" xlink:title="src/Calc/CalcAdvantages.cpp">
<polygon fill="white" stroke="black" points="4993.71,-116.5 4993.71,-137.5 5148.71,-137.5 5148.71,-116.5 4993.71,-116.5"/>
<text text-anchor="middle" x="5071.21" y="-124.5" font-family="DejaVuSans" font-size="10.00">src/Calc/CalcAdvantages.cpp</text>
</a>
</g>
<!-- Node2&#45;&gt;Node3 -->
<g id="edge4" class="edge"><title>Node2&#45;&gt;Node3</title>
<path fill="none" stroke="midnightblue" d="M2956.47,-184.324C3294.81,-181.366 4580.2,-168.326 4985.21,-138 4987.91,-137.798 4990.66,-137.569 4993.43,-137.32"/>
<polygon fill="midnightblue" stroke="midnightblue" points="2956.23,-180.826 2946.26,-184.413 2956.29,-187.826 2956.23,-180.826"/>
</g>
<!-- Node2&#45;&gt;Node4 -->
<g id="edge6" class="edge"><title>Node2&#45;&gt;Node4</title>
<path fill="none" stroke="midnightblue" d="M2791.69,-184.266C2369.47,-180.412 460.473,-161.795 197.208,-138 194.508,-137.756 191.752,-137.467 188.973,-137.143"/>
<polygon fill="midnightblue" stroke="midnightblue" points="2791.94,-187.768 2801.98,-184.359 2792.01,-180.768 2791.94,-187.768"/>
</g>
<!-- Node5 -->
<g id="node9" class="node"><title>Node5</title>
<a xlink:href="cv___abstract_trait_8cpp.html" target="_top" xlink:title="src/Datatypes/cv_AbstractTrait.cpp">
<polygon fill="white" stroke="black" points="1596.21,-116.5 1596.21,-137.5 1778.21,-137.5 1778.21,-116.5 1596.21,-116.5"/>
<text text-anchor="middle" x="1687.21" y="-124.5" font-family="DejaVuSans" font-size="10.00">src/Datatypes/cv_AbstractTrait.cpp</text>
</a>
</g>
<!-- Node2&#45;&gt;Node5 -->
<g id="edge8" class="edge"><title>Node2&#45;&gt;Node5</title>
<path fill="none" stroke="midnightblue" d="M2791.91,-183.305C2610.34,-179.157 2161.75,-166.666 1787.21,-138 1784.33,-137.78 1781.42,-137.543 1778.47,-137.291"/>
<polygon fill="midnightblue" stroke="midnightblue" points="2791.85,-186.805 2801.92,-183.532 2792,-179.806 2791.85,-186.805"/>
</g>
<!-- Node6 -->
<g id="node11" class="node"><title>Node6</title>
<a xlink:href="cv___derangement_8cpp.html" target="_top" xlink:title="src/Datatypes/cv_Derangement.cpp">
<polygon fill="white" stroke="black" points="1795.71,-116.5 1795.71,-137.5 1984.71,-137.5 1984.71,-116.5 1795.71,-116.5"/>
<text text-anchor="middle" x="1890.21" y="-124.5" font-family="DejaVuSans" font-size="10.00">src/Datatypes/cv_Derangement.cpp</text>
</a>
</g>
<!-- Node2&#45;&gt;Node6 -->
<g id="edge10" class="edge"><title>Node2&#45;&gt;Node6</title>
<path fill="none" stroke="midnightblue" d="M2791.73,-182.062C2635.66,-176.179 2286.49,-161.467 1993.21,-138 1990.43,-137.778 1987.61,-137.542 1984.76,-137.295"/>
<polygon fill="midnightblue" stroke="midnightblue" points="2792.05,-185.577 2802.18,-182.454 2792.32,-178.582 2792.05,-185.577"/>
</g>
<!-- Node7 -->
<g id="node13" class="node"><title>Node7</title>
<a xlink:href="cv___identity_8cpp.html" target="_top" xlink:title="src/Datatypes/cv_Identity.cpp">
<polygon fill="white" stroke="black" points="2002.21,-116.5 2002.21,-137.5 2158.21,-137.5 2158.21,-116.5 2002.21,-116.5"/>
<text text-anchor="middle" x="2080.21" y="-124.5" font-family="DejaVuSans" font-size="10.00">src/Datatypes/cv_Identity.cpp</text>
</a>
</g>
<!-- Node2&#45;&gt;Node7 -->
<g id="edge12" class="edge"><title>Node2&#45;&gt;Node7</title>
<path fill="none" stroke="midnightblue" d="M2792.05,-181.125C2660.11,-174.546 2392.91,-159.751 2167.21,-138 2164.33,-137.723 2161.4,-137.426 2158.44,-137.114"/>
<polygon fill="midnightblue" stroke="midnightblue" points="2791.92,-184.623 2802.08,-181.623 2792.27,-177.632 2791.92,-184.623"/>
</g>
<!-- Node8 -->
<g id="node15" class="node"><title>Node8</title>
<a xlink:href="cv___shape_8cpp.html" target="_top" xlink:title="src/Datatypes/cv_Shape.cpp">
<polygon fill="white" stroke="black" points="2175.71,-116.5 2175.71,-137.5 2328.71,-137.5 2328.71,-116.5 2175.71,-116.5"/>
<text text-anchor="middle" x="2252.21" y="-124.5" font-family="DejaVuSans" font-size="10.00">src/Datatypes/cv_Shape.cpp</text>
</a>
</g>
<!-- Node2&#45;&gt;Node8 -->
<g id="edge14" class="edge"><title>Node2&#45;&gt;Node8</title>
<path fill="none" stroke="midnightblue" d="M2791.76,-178.85C2686.27,-170.735 2497.93,-155.426 2337.21,-138 2334.55,-137.711 2331.84,-137.409 2329.1,-137.096"/>
<polygon fill="midnightblue" stroke="midnightblue" points="2791.79,-182.362 2802.02,-179.636 2792.32,-175.382 2791.79,-182.362"/>
</g>
<!-- Node9 -->
<g id="node17" class="node"><title>Node9</title>
<a xlink:href="cv___species_8cpp.html" target="_top" xlink:title="src/Datatypes/cv_Species.cpp">
<polygon fill="white" stroke="black" points="2346.21,-116.5 2346.21,-137.5 2506.21,-137.5 2506.21,-116.5 2346.21,-116.5"/>
<text text-anchor="middle" x="2426.21" y="-124.5" font-family="DejaVuSans" font-size="10.00">src/Datatypes/cv_Species.cpp</text>
</a>
</g>
<!-- Node2&#45;&gt;Node9 -->
<g id="edge16" class="edge"><title>Node2&#45;&gt;Node9</title>
<path fill="none" stroke="midnightblue" d="M2791.54,-174.297C2710.25,-163.774 2586.99,-147.816 2506.53,-137.399"/>
<polygon fill="midnightblue" stroke="midnightblue" points="2791.36,-177.804 2801.73,-175.617 2792.26,-170.862 2791.36,-177.804"/>
</g>
<!-- Node10 -->
<g id="node19" class="node"><title>Node10</title>
<a xlink:href="cv___super_effect_8cpp.html" target="_top" xlink:title="src/Datatypes/cv_SuperEffect.cpp">
<polygon fill="white" stroke="black" points="2524.21,-116.5 2524.21,-137.5 2702.21,-137.5 2702.21,-116.5 2524.21,-116.5"/>
<text text-anchor="middle" x="2613.21" y="-124.5" font-family="DejaVuSans" font-size="10.00">src/Datatypes/cv_SuperEffect.cpp</text>
</a>
</g>
<!-- Node2&#45;&gt;Node10 -->
<g id="edge18" class="edge"><title>Node2&#45;&gt;Node10</title>
<path fill="none" stroke="midnightblue" d="M2816.94,-172.274C2770.06,-161.855 2704.52,-147.292 2660.56,-137.523"/>
<polygon fill="midnightblue" stroke="midnightblue" points="2816.42,-175.744 2826.94,-174.497 2817.94,-168.911 2816.42,-175.744"/>
</g>
<!-- Node11 -->
<g id="node21" class="node"><title>Node11</title>
<a xlink:href="cv___trait_8cpp.html" target="_top" xlink:title="src/Datatypes/cv_Trait.cpp">
<polygon fill="white" stroke="black" points="2720.21,-116.5 2720.21,-137.5 2862.21,-137.5 2862.21,-116.5 2720.21,-116.5"/>
<text text-anchor="middle" x="2791.21" y="-124.5" font-family="DejaVuSans" font-size="10.00">src/Datatypes/cv_Trait.cpp</text>
</a>
</g>
<!-- Node2&#45;&gt;Node11 -->
<g id="edge20" class="edge"><title>Node2&#45;&gt;Node11</title>
<path fill="none" stroke="midnightblue" d="M2850.65,-168.541C2836.43,-158.597 2818.71,-146.218 2806.34,-137.571"/>
<polygon fill="midnightblue" stroke="midnightblue" points="2848.78,-171.503 2858.98,-174.362 2852.79,-165.765 2848.78,-171.503"/>
</g>
<!-- Node2&#45;&gt;Node12 -->
<g id="edge22" class="edge"><title>Node2&#45;&gt;Node12</title>
<path fill="none" stroke="midnightblue" d="M2943.48,-172.476C2982.92,-164.456 3032.95,-152.777 3076.21,-138 3098.42,-130.414 3101.34,-121.266 3124.21,-116 3222.93,-93.2662 4765.89,-73.8298 5108.96,-69.7757"/>
<polygon fill="midnightblue" stroke="midnightblue" points="2942.54,-169.093 2933.43,-174.487 2943.92,-175.957 2942.54,-169.093"/>
</g>
<!-- Node13 -->
<g id="node25" class="node"><title>Node13</title>
<a xlink:href="_exception_8cpp.html" target="_top" xlink:title="src/Exceptions/Exception.cpp">
<polygon fill="white" stroke="black" points="2879.71,-116.5 2879.71,-137.5 3034.71,-137.5 3034.71,-116.5 2879.71,-116.5"/>
<text text-anchor="middle" x="2957.21" y="-124.5" font-family="DejaVuSans" font-size="10.00">src/Exceptions/Exception.cpp</text>
</a>
</g>
<!-- Node2&#45;&gt;Node13 -->
<g id="edge24" class="edge"><title>Node2&#45;&gt;Node13</title>
<path fill="none" stroke="midnightblue" d="M2897.76,-168.541C2911.99,-158.597 2929.71,-146.218 2942.08,-137.571"/>
<polygon fill="midnightblue" stroke="midnightblue" points="2895.62,-165.765 2889.43,-174.362 2899.63,-171.503 2895.62,-165.765"/>
</g>
<!-- Node2&#45;&gt;Node14 -->
<g id="edge26" class="edge"><title>Node2&#45;&gt;Node14</title>
<path fill="none" stroke="midnightblue" d="M2791.61,-184.238C2381.42,-180.35 573.144,-161.977 323.208,-138 320.335,-137.724 317.395,-137.391 314.432,-137.015"/>
<polygon fill="midnightblue" stroke="midnightblue" points="2791.87,-187.74 2801.9,-184.335 2791.93,-180.741 2791.87,-187.74"/>
</g>
<!-- Node2&#45;&gt;Node15 -->
<g id="edge28" class="edge"><title>Node2&#45;&gt;Node15</title>
<path fill="none" stroke="midnightblue" d="M2791.97,-184.563C2427.54,-182.445 955.938,-171.918 495.208,-138 492.506,-137.801 489.759,-137.576 486.986,-137.329"/>
<polygon fill="midnightblue" stroke="midnightblue" points="2792.15,-188.064 2802.17,-184.622 2792.19,-181.064 2792.15,-188.064"/>
</g>
<!-- Node2&#45;&gt;Node16 -->
<g id="edge30" class="edge"><title>Node2&#45;&gt;Node16</title>
<path fill="none" stroke="midnightblue" d="M2791.91,-184.434C2443.77,-181.858 1090.52,-169.952 665.208,-138 662.389,-137.788 659.52,-137.547 656.624,-137.283"/>
<polygon fill="midnightblue" stroke="midnightblue" points="2792.13,-187.936 2802.16,-184.51 2792.19,-180.936 2792.13,-187.936"/>
</g>
<!-- Node2&#45;&gt;Node17 -->
<g id="edge32" class="edge"><title>Node2&#45;&gt;Node17</title>
<path fill="none" stroke="midnightblue" d="M2792.07,-184.829C2456.44,-183.869 1188.04,-177.641 789.208,-138 786.489,-137.73 783.709,-137.407 780.907,-137.046"/>
<polygon fill="midnightblue" stroke="midnightblue" points="2792.19,-188.329 2802.2,-184.857 2792.21,-181.329 2792.19,-188.329"/>
</g>
<!-- Node2&#45;&gt;Node18 -->
<g id="edge34" class="edge"><title>Node2&#45;&gt;Node18</title>
<path fill="none" stroke="midnightblue" d="M2792.11,-184.107C2474.41,-180.476 1325.27,-165.682 961.208,-138 958.507,-137.795 955.76,-137.564 952.988,-137.312"/>
<polygon fill="midnightblue" stroke="midnightblue" points="2792.13,-187.607 2802.17,-184.221 2792.21,-180.608 2792.13,-187.607"/>
</g>
<!-- Node19 -->
<g id="node37" class="node"><title>Node19</title>
<a xlink:href="_message_box_8h.html" target="_top" xlink:title="src/Widgets/Dialogs/MessageBox.h">
<polygon fill="white" stroke="black" points="970.208,-116.5 970.208,-137.5 1152.21,-137.5 1152.21,-116.5 970.208,-116.5"/>
<text text-anchor="middle" x="1061.21" y="-124.5" font-family="DejaVuSans" font-size="10.00">src/Widgets/Dialogs/MessageBox.h</text>
</a>
</g>
<!-- Node2&#45;&gt;Node19 -->
<g id="edge36" class="edge"><title>Node2&#45;&gt;Node19</title>
<path fill="none" stroke="midnightblue" d="M2791.96,-183.576C2496.35,-178.328 1488.17,-159.263 1166.21,-138 1161.64,-137.698 1156.96,-137.35 1152.23,-136.968"/>
<polygon fill="midnightblue" stroke="midnightblue" points="2792.12,-187.08 2802.18,-183.757 2792.24,-180.081 2792.12,-187.08"/>
</g>
<!-- Node2&#45;&gt;Node20 -->
<g id="edge44" class="edge"><title>Node2&#45;&gt;Node20</title>
<path fill="none" stroke="midnightblue" d="M2956.5,-177.043C3013.67,-168.357 3074.43,-150.748 3043.21,-116 2981.09,-46.8597 2317.85,-19.4111 2119.76,-12.7189"/>
<polygon fill="midnightblue" stroke="midnightblue" points="2955.66,-173.627 2946.26,-178.513 2956.66,-180.556 2955.66,-173.627"/>
</g>
<!-- Node21 -->
<g id="node41" class="node"><title>Node21</title>
<a xlink:href="_chara_trait_8cpp.html" target="_top" xlink:title="src/Widgets/CharaTrait.cpp">
<polygon fill="white" stroke="black" points="1103.71,-58.5 1103.71,-79.5 1246.71,-79.5 1246.71,-58.5 1103.71,-58.5"/>
<text text-anchor="middle" x="1175.21" y="-66.5" font-family="DejaVuSans" font-size="10.00">src/Widgets/CharaTrait.cpp</text>
</a>
</g>
<!-- Node2&#45;&gt;Node21 -->
<g id="edge56" class="edge"><title>Node2&#45;&gt;Node21</title>
<path fill="none" stroke="midnightblue" d="M2792.16,-183.956C2460.06,-179.572 1231.68,-161.776 1199.21,-138 1180.58,-124.362 1176.31,-95.2409 1175.4,-79.5446"/>
<polygon fill="midnightblue" stroke="midnightblue" points="2792.15,-187.456 2802.19,-184.088 2792.24,-180.456 2792.15,-187.456"/>
</g>
<!-- Node2&#45;&gt;Node23 -->
<g id="edge46" class="edge"><title>Node2&#45;&gt;Node23</title>
<path fill="none" stroke="midnightblue" d="M2952.29,-172.923C3019.89,-162.468 3116.69,-147.497 3181.17,-137.523"/>
<polygon fill="midnightblue" stroke="midnightblue" points="2951.47,-169.509 2942.12,-174.497 2952.54,-176.427 2951.47,-169.509"/>
</g>
<!-- Node2&#45;&gt;Node24 -->
<g id="edge48" class="edge"><title>Node2&#45;&gt;Node24</title>
<path fill="none" stroke="midnightblue" d="M2956.46,-177.038C3049.78,-167.933 3206.49,-152.417 3341.21,-138 3343.99,-137.702 3346.81,-137.398 3349.67,-137.087"/>
<polygon fill="midnightblue" stroke="midnightblue" points="2955.85,-173.581 2946.24,-178.035 2956.53,-180.548 2955.85,-173.581"/>
</g>
<!-- Node2&#45;&gt;Node25 -->
<g id="edge50" class="edge"><title>Node2&#45;&gt;Node25</title>
<path fill="none" stroke="midnightblue" d="M2956.61,-174.686C3003.63,-167.369 3063.18,-155.657 3114.21,-138 3134.5,-130.98 3136.38,-121.188 3157.21,-116 3410.93,-52.8053 5249.19,-95.5097 5510.21,-80 5514.73,-79.7311 5519.36,-79.413 5524.04,-79.0574"/>
<polygon fill="midnightblue" stroke="midnightblue" points="2955.83,-171.264 2946.47,-176.227 2956.88,-178.185 2955.83,-171.264"/>
</g>
<!-- Node2&#45;&gt;Node26 -->
<g id="edge52" class="edge"><title>Node2&#45;&gt;Node26</title>
<path fill="none" stroke="midnightblue" d="M2956.58,-184.003C3311.98,-179.595 4715.93,-161.046 5157.21,-138 5172.25,-137.214 5188.24,-136.103 5203.7,-134.885"/>
<polygon fill="midnightblue" stroke="midnightblue" points="2956.33,-180.506 2946.38,-184.13 2956.42,-187.505 2956.33,-180.506"/>
</g>
<!-- Node27 -->
<g id="node54" class="node"><title>Node27</title>
<a xlink:href="_chara_species_8cpp.html" target="_top" xlink:title="src/Widgets/CharaSpecies.cpp">
<polygon fill="white" stroke="black" points="1207.71,-116.5 1207.71,-137.5 1368.71,-137.5 1368.71,-116.5 1207.71,-116.5"/>
<text text-anchor="middle" x="1288.21" y="-124.5" font-family="DejaVuSans" font-size="10.00">src/Widgets/CharaSpecies.cpp</text>
</a>
</g>
<!-- Node2&#45;&gt;Node27 -->
<g id="edge54" class="edge"><title>Node2&#45;&gt;Node27</title>
<path fill="none" stroke="midnightblue" d="M2791.77,-183.408C2520.26,-178.009 1655.56,-159.526 1377.21,-138 1374.57,-137.796 1371.89,-137.57 1369.18,-137.327"/>
<polygon fill="midnightblue" stroke="midnightblue" points="2791.88,-186.911 2801.95,-183.61 2792.02,-179.912 2791.88,-186.911"/>
</g>
<!-- Node2&#45;&gt;Node28 -->
<g id="edge58" class="edge"><title>Node2&#45;&gt;Node28</title>
<path fill="none" stroke="midnightblue" d="M2956.5,-180.889C3081.68,-174.242 3327.36,-159.656 3535.21,-138 3538,-137.709 3540.84,-137.397 3543.71,-137.068"/>
<polygon fill="midnightblue" stroke="midnightblue" points="2956.04,-177.409 2946.23,-181.431 2956.41,-184.399 2956.04,-177.409"/>
</g>
<!-- Node29 -->
<g id="node59" class="node"><title>Node29</title>
<a xlink:href="_name_dialog_8cpp.html" target="_top" xlink:title="src/Widgets/Dialogs/NameDialog.cpp">
<polygon fill="white" stroke="black" points="1386.21,-116.5 1386.21,-137.5 1578.21,-137.5 1578.21,-116.5 1386.21,-116.5"/>
<text text-anchor="middle" x="1482.21" y="-124.5" font-family="DejaVuSans" font-size="10.00">src/Widgets/Dialogs/NameDialog.cpp</text>
</a>
</g>
<!-- Node2&#45;&gt;Node29 -->
<g id="edge60" class="edge"><title>Node2&#45;&gt;Node29</title>
<path fill="none" stroke="midnightblue" d="M2791.85,-183.93C2587.62,-180.854 2041.49,-170.054 1587.21,-138 1584.28,-137.794 1581.31,-137.57 1578.32,-137.332"/>
<polygon fill="midnightblue" stroke="midnightblue" points="2791.85,-187.43 2801.9,-184.079 2791.96,-180.431 2791.85,-187.43"/>
</g>
<!-- Node2&#45;&gt;Node30 -->
<g id="edge62" class="edge"><title>Node2&#45;&gt;Node30</title>
<path fill="none" stroke="midnightblue" d="M2956.83,-181.207C3104.92,-174.2 3425.3,-158.09 3695.21,-138 3698.13,-137.783 3701.09,-137.556 3704.08,-137.322"/>
<polygon fill="midnightblue" stroke="midnightblue" points="2956.29,-177.728 2946.47,-181.696 2956.62,-184.721 2956.29,-177.728"/>
</g>
<!-- Node2&#45;&gt;Node31 -->
<g id="edge64" class="edge"><title>Node2&#45;&gt;Node31</title>
<path fill="none" stroke="midnightblue" d="M2956.43,-182.909C3134.84,-178.032 3570.8,-164.272 3935.21,-138 3937.98,-137.8 3940.8,-137.587 3943.64,-137.364"/>
<polygon fill="midnightblue" stroke="midnightblue" points="2956.23,-179.413 2946.33,-183.183 2956.42,-186.411 2956.23,-179.413"/>
</g>
<!-- Node2&#45;&gt;Node32 -->
<g id="edge66" class="edge"><title>Node2&#45;&gt;Node32</title>
<path fill="none" stroke="midnightblue" d="M2956.6,-183.02C3201.26,-176.976 3921.03,-157.956 4155.21,-138 4157.93,-137.768 4160.69,-137.51 4163.49,-137.231"/>
<polygon fill="midnightblue" stroke="midnightblue" points="2956.26,-179.527 2946.35,-183.273 2956.44,-186.525 2956.26,-179.527"/>
</g>
<!-- Node2&#45;&gt;Node33 -->
<g id="edge68" class="edge"><title>Node2&#45;&gt;Node33</title>
<path fill="none" stroke="midnightblue" d="M2956.92,-183.426C3222.47,-178.197 4051.71,-160.454 4319.21,-138 4322.04,-137.763 4324.92,-137.495 4327.83,-137.204"/>
<polygon fill="midnightblue" stroke="midnightblue" points="2956.51,-179.933 2946.58,-183.629 2956.65,-186.932 2956.51,-179.933"/>
</g>
<!-- Node2&#45;&gt;Node34 -->
<g id="edge70" class="edge"><title>Node2&#45;&gt;Node34</title>
<path fill="none" stroke="midnightblue" d="M2956.84,-183.688C3241.5,-178.994 4180.44,-162.03 4481.21,-138 4483.99,-137.777 4486.83,-137.527 4489.69,-137.255"/>
<polygon fill="midnightblue" stroke="midnightblue" points="2956.53,-180.192 2946.58,-183.856 2956.64,-187.191 2956.53,-180.192"/>
</g>
<!-- Node2&#45;&gt;Node35 -->
<g id="edge72" class="edge"><title>Node2&#45;&gt;Node35</title>
<path fill="none" stroke="midnightblue" d="M2956.65,-183.921C3259.98,-179.78 4313.77,-163.827 4649.21,-138 4651.91,-137.792 4654.66,-137.559 4657.43,-137.305"/>
<polygon fill="midnightblue" stroke="midnightblue" points="2956.56,-180.422 2946.61,-184.058 2956.65,-187.421 2956.56,-180.422"/>
</g>
<!-- Node2&#45;&gt;Node36 -->
<g id="edge74" class="edge"><title>Node2&#45;&gt;Node36</title>
<path fill="none" stroke="midnightblue" d="M2956.41,-184.214C3277.85,-180.953 4450.24,-167.271 4821.21,-138 4824.07,-137.774 4826.99,-137.516 4829.93,-137.233"/>
<polygon fill="midnightblue" stroke="midnightblue" points="2956.2,-180.715 2946.24,-184.316 2956.28,-187.715 2956.2,-180.715"/>
</g>
<!-- Node19&#45;&gt;Node20 -->
<g id="edge38" class="edge"><title>Node19&#45;&gt;Node20</title>
<path fill="none" stroke="midnightblue" d="M1065.44,-106.269C1069.92,-90.1747 1078.7,-68.8342 1095.21,-58 1133.56,-32.8347 1808.5,-16.4611 2008.69,-12.1423"/>
<polygon fill="midnightblue" stroke="midnightblue" points="1061.95,-105.836 1062.99,-116.379 1068.75,-107.485 1061.95,-105.836"/>
</g>
<!-- Node19&#45;&gt;Node21 -->
<g id="edge40" class="edge"><title>Node19&#45;&gt;Node21</title>
<path fill="none" stroke="midnightblue" d="M1090.83,-111.932C1110.75,-101.793 1136.54,-88.6748 1154.33,-79.6212"/>
<polygon fill="midnightblue" stroke="midnightblue" points="1089.18,-108.843 1081.85,-116.497 1092.35,-115.081 1089.18,-108.843"/>
</g>
<!-- Node19&#45;&gt;Node22 -->
<g id="edge42" class="edge"><title>Node19&#45;&gt;Node22</title>
<path fill="none" stroke="midnightblue" d="M959.993,-115.868C838.885,-102.623 711.313,-88.7574 626.151,-79.5137"/>
<polygon fill="midnightblue" stroke="midnightblue" points="959.869,-119.375 970.191,-116.983 960.63,-112.417 959.869,-119.375"/>
</g>
<!-- Node37&#45;&gt;Node3 -->
<g id="edge78" class="edge"><title>Node37&#45;&gt;Node3</title>
<path fill="none" stroke="midnightblue" d="M5259.56,-172.142C5216.13,-161.733 5155.7,-147.251 5115.11,-137.523"/>
<polygon fill="midnightblue" stroke="midnightblue" points="5258.84,-175.569 5269.38,-174.497 5260.48,-168.762 5258.84,-175.569"/>
</g>
<!-- Node37&#45;&gt;Node26 -->
<g id="edge96" class="edge"><title>Node37&#45;&gt;Node26</title>
<path fill="none" stroke="midnightblue" d="M5304.62,-165.079C5300.64,-155.842 5296.07,-145.239 5292.76,-137.571"/>
<polygon fill="midnightblue" stroke="midnightblue" points="5301.45,-166.564 5308.62,-174.362 5307.88,-163.793 5301.45,-166.564"/>
</g>
<!-- Node38 -->
<g id="node78" class="node"><title>Node38</title>
<a xlink:href="_draw_sheet_8h.html" target="_top" xlink:title="src/Draw/DrawSheet.h">
<polygon fill="white" stroke="black" points="5390.21,-116.5 5390.21,-137.5 5512.21,-137.5 5512.21,-116.5 5390.21,-116.5"/>
<text text-anchor="middle" x="5451.21" y="-124.5" font-family="DejaVuSans" font-size="10.00">src/Draw/DrawSheet.h</text>
</a>
</g>
<!-- Node37&#45;&gt;Node38 -->
<g id="edge80" class="edge"><title>Node37&#45;&gt;Node38</title>
<path fill="none" stroke="midnightblue" d="M5347.43,-170.615C5371.77,-160.389 5403.91,-146.88 5425.94,-137.621"/>
<polygon fill="midnightblue" stroke="midnightblue" points="5346.06,-167.395 5338.2,-174.497 5348.77,-173.849 5346.06,-167.395"/>
</g>
<!-- Node41 -->
<g id="node86" class="node"><title>Node41</title>
<a xlink:href="_advantages_widget_8h.html" target="_top" xlink:title="src/Widgets/AdvantagesWidget.h">
<polygon fill="white" stroke="black" points="5529.71,-116.5 5529.71,-137.5 5702.71,-137.5 5702.71,-116.5 5529.71,-116.5"/>
<text text-anchor="middle" x="5616.21" y="-124.5" font-family="DejaVuSans" font-size="10.00">src/Widgets/AdvantagesWidget.h</text>
</a>
</g>
<!-- Node37&#45;&gt;Node41 -->
<g id="edge90" class="edge"><title>Node37&#45;&gt;Node41</title>
<path fill="none" stroke="midnightblue" d="M5377.99,-172.6C5432.52,-162.161 5509.66,-147.394 5561.23,-137.523"/>
<polygon fill="midnightblue" stroke="midnightblue" points="5377.24,-169.179 5368.08,-174.497 5378.56,-176.054 5377.24,-169.179"/>
</g>
<!-- Node38&#45;&gt;Node12 -->
<g id="edge82" class="edge"><title>Node38&#45;&gt;Node12</title>
<path fill="none" stroke="midnightblue" d="M5391.49,-114.404C5342.05,-103.977 5272.62,-89.333 5226.1,-79.5231"/>
<polygon fill="midnightblue" stroke="midnightblue" points="5390.9,-117.858 5401.41,-116.497 5392.35,-111.008 5390.9,-117.858"/>
</g>
<!-- Node39 -->
<g id="node81" class="node"><title>Node39</title>
<a xlink:href="_main_window_8h.html" target="_top" xlink:title="src/MainWindow.h">
<polygon fill="white" stroke="black" points="5401.21,-58.5 5401.21,-79.5 5501.21,-79.5 5501.21,-58.5 5401.21,-58.5"/>
<text text-anchor="middle" x="5451.21" y="-66.5" font-family="DejaVuSans" font-size="10.00">src/MainWindow.h</text>
</a>
</g>
<!-- Node38&#45;&gt;Node39 -->
<g id="edge84" class="edge"><title>Node38&#45;&gt;Node39</title>
<path fill="none" stroke="midnightblue" d="M5451.21,-106.191C5451.21,-97.1684 5451.21,-86.9941 5451.21,-79.5707"/>
<polygon fill="midnightblue" stroke="midnightblue" points="5447.71,-106.362 5451.21,-116.362 5454.71,-106.362 5447.71,-106.362"/>
</g>
<!-- Node39&#45;&gt;Node20 -->
<g id="edge88" class="edge"><title>Node39&#45;&gt;Node20</title>
<path fill="none" stroke="midnightblue" d="M5390.95,-65.0331C5351.5,-62.5932 5298.81,-59.6309 5252.21,-58 4607.05,-35.4224 2490.98,-14.9695 2119.98,-11.5126"/>
<polygon fill="midnightblue" stroke="midnightblue" points="5390.74,-68.5267 5400.94,-65.6571 5391.17,-61.5403 5390.74,-68.5267"/>
</g>
<!-- Node40 -->
<g id="node83" class="node"><title>Node40</title>
<a xlink:href="main_8cpp.html" target="_top" xlink:title="src/main.cpp">
<polygon fill="white" stroke="black" points="5412.21,-0.5 5412.21,-21.5 5490.21,-21.5 5490.21,-0.5 5412.21,-0.5"/>
<text text-anchor="middle" x="5451.21" y="-8.5" font-family="DejaVuSans" font-size="10.00">src/main.cpp</text>
</a>
</g>
<!-- Node39&#45;&gt;Node40 -->
<g id="edge86" class="edge"><title>Node39&#45;&gt;Node40</title>
<path fill="none" stroke="midnightblue" d="M5451.21,-48.1906C5451.21,-39.1684 5451.21,-28.9941 5451.21,-21.5707"/>
<polygon fill="midnightblue" stroke="midnightblue" points="5447.71,-48.3619 5451.21,-58.3619 5454.71,-48.3619 5447.71,-48.3619"/>
</g>
<!-- Node41&#45;&gt;Node25 -->
<g id="edge94" class="edge"><title>Node41&#45;&gt;Node25</title>
<path fill="none" stroke="midnightblue" d="M5616.21,-106.191C5616.21,-97.1684 5616.21,-86.9941 5616.21,-79.5707"/>
<polygon fill="midnightblue" stroke="midnightblue" points="5612.71,-106.362 5616.21,-116.362 5619.71,-106.362 5612.71,-106.362"/>
</g>
<!-- Node41&#45;&gt;Node39 -->
<g id="edge92" class="edge"><title>Node41&#45;&gt;Node39</title>
<path fill="none" stroke="midnightblue" d="M5576.79,-113.144C5547.43,-102.823 5507.95,-88.9439 5481.14,-79.5231"/>
<polygon fill="midnightblue" stroke="midnightblue" points="5575.73,-116.482 5586.33,-116.497 5578.05,-109.878 5575.73,-116.482"/>
</g>
</g>
</svg>
