<?xml version="1.0" encoding="UTF-8" standalone="no"?>
<!DOCTYPE svg PUBLIC "-//W3C//DTD SVG 1.1//EN"
 "http://www.w3.org/Graphics/SVG/1.1/DTD/svg11.dtd">
<!-- Generated by graphviz version 2.26.3 (20100126.1600)
 -->
<!-- Title: G Pages: 1 -->
<svg width="372pt" height="146pt"
 viewBox="0.00 0.00 372.00 146.00" xmlns="http://www.w3.org/2000/svg" xmlns:xlink="http://www.w3.org/1999/xlink">
<g id="graph1" class="graph" transform="scale(1 1) rotate(0) translate(4 142)">
<title>G</title>
<polygon fill="white" stroke="white" points="-4,5 -4,-142 369,-142 369,5 -4,5"/>
<!-- Node1 -->
<g id="node1" class="node"><title>Node1</title>
<polygon fill="#bfbfbf" stroke="black" points="110.5,-116.5 110.5,-137.5 227.5,-137.5 227.5,-116.5 110.5,-116.5"/>
<text text-anchor="middle" x="169" y="-124.5" font-family="DejaVuSans" font-size="10.00">src/Config/Config.cpp</text>
</g>
<!-- Node2 -->
<g id="node3" class="node"><title>Node2</title>
<polygon fill="white" stroke="#bfbfbf" points="0,-58.5 0,-79.5 88,-79.5 88,-58.5 0,-58.5"/>
<text text-anchor="middle" x="44" y="-66.5" font-family="DejaVuSans" font-size="10.00">CMakeConfig.h</text>
</g>
<!-- Node1&#45;&gt;Node2 -->
<g id="edge2" class="edge"><title>Node1&#45;&gt;Node2</title>
<path fill="none" stroke="midnightblue" d="M146.363,-116.497C126.752,-107.397 98.1536,-94.1273 76.1667,-83.9253"/>
<polygon fill="midnightblue" stroke="midnightblue" points="77.4348,-80.6554 66.8906,-79.6212 74.4885,-87.0051 77.4348,-80.6554"/>
</g>
<!-- Node3 -->
<g id="node5" class="node"><title>Node3</title>
<polygon fill="white" stroke="#bfbfbf" points="105.5,-58.5 105.5,-79.5 232.5,-79.5 232.5,-58.5 105.5,-58.5"/>
<text text-anchor="middle" x="169" y="-66.5" font-family="DejaVuSans" font-size="10.00">Exceptions/Exception.h</text>
</g>
<!-- Node1&#45;&gt;Node3 -->
<g id="edge4" class="edge"><title>Node1&#45;&gt;Node3</title>
<path fill="none" stroke="midnightblue" d="M169,-116.362C169,-108.922 169,-98.7427 169,-89.7276"/>
<polygon fill="midnightblue" stroke="midnightblue" points="172.5,-89.5706 169,-79.5707 165.5,-89.5707 172.5,-89.5706"/>
</g>
<!-- Node4 -->
<g id="node7" class="node"><title>Node4</title>
<a xlink:href="_config_8h.html" target="_top" xlink:title="Config.h">
<polygon fill="white" stroke="black" points="250,-58.5 250,-79.5 306,-79.5 306,-58.5 250,-58.5"/>
<text text-anchor="middle" x="278" y="-66.5" font-family="DejaVuSans" font-size="10.00">Config.h</text>
</a>
</g>
<!-- Node1&#45;&gt;Node4 -->
<g id="edge6" class="edge"><title>Node1&#45;&gt;Node4</title>
<path fill="none" stroke="midnightblue" d="M188.739,-116.497C205.61,-107.519 230.109,-94.4835 249.174,-84.3387"/>
<polygon fill="midnightblue" stroke="midnightblue" points="250.856,-87.4086 258.039,-79.6212 247.567,-81.2289 250.856,-87.4086"/>
</g>
<!-- Node5 -->
<g id="node9" class="node"><title>Node5</title>
<polygon fill="white" stroke="#bfbfbf" points="183.5,-0.5 183.5,-21.5 236.5,-21.5 236.5,-0.5 183.5,-0.5"/>
<text text-anchor="middle" x="210" y="-8.5" font-family="DejaVuSans" font-size="10.00">QString</text>
</g>
<!-- Node4&#45;&gt;Node5 -->
<g id="edge8" class="edge"><title>Node4&#45;&gt;Node5</title>
<path fill="none" stroke="midnightblue" d="M265.528,-58.3619C255.655,-49.9408 241.667,-38.0105 230.202,-28.2308"/>
<polygon fill="midnightblue" stroke="midnightblue" points="232.273,-25.3972 222.393,-21.5707 227.73,-30.7231 232.273,-25.3972"/>
</g>
<!-- Node6 -->
<g id="node11" class="node"><title>Node6</title>
<polygon fill="white" stroke="#bfbfbf" points="253.5,-0.5 253.5,-21.5 302.5,-21.5 302.5,-0.5 253.5,-0.5"/>
<text text-anchor="middle" x="278" y="-8.5" font-family="DejaVuSans" font-size="10.00">QColor</text>
</g>
<!-- Node4&#45;&gt;Node6 -->
<g id="edge10" class="edge"><title>Node4&#45;&gt;Node6</title>
<path fill="none" stroke="midnightblue" d="M278,-58.3619C278,-50.9219 278,-40.7427 278,-31.7276"/>
<polygon fill="midnightblue" stroke="midnightblue" points="281.5,-31.5706 278,-21.5707 274.5,-31.5707 281.5,-31.5706"/>
</g>
<!-- Node7 -->
<g id="node13" class="node"><title>Node7</title>
<polygon fill="white" stroke="#bfbfbf" points="319.5,-0.5 319.5,-21.5 364.5,-21.5 364.5,-0.5 319.5,-0.5"/>
<text text-anchor="middle" x="342" y="-8.5" font-family="DejaVuSans" font-size="10.00">QFont</text>
</g>
<!-- Node4&#45;&gt;Node7 -->
<g id="edge12" class="edge"><title>Node4&#45;&gt;Node7</title>
<path fill="none" stroke="midnightblue" d="M289.739,-58.3619C298.941,-50.0226 311.94,-38.2418 322.672,-28.5162"/>
<polygon fill="midnightblue" stroke="midnightblue" points="325.276,-30.8793 330.336,-21.5707 320.576,-25.6924 325.276,-30.8793"/>
</g>
</g>
</svg>
