<?xml version="1.0" encoding="UTF-8" standalone="no"?>
<!DOCTYPE svg PUBLIC "-//W3C//DTD SVG 1.1//EN"
 "http://www.w3.org/Graphics/SVG/1.1/DTD/svg11.dtd">
<!-- Generated by graphviz version 2.26.3 (20100126.1600)
 -->
<!-- Title: G Pages: 1 -->
<svg width="874pt" height="320pt"
 viewBox="0.00 0.00 874.31 320.00" xmlns="http://www.w3.org/2000/svg" xmlns:xlink="http://www.w3.org/1999/xlink">
<g id="graph1" class="graph" transform="scale(1 1) rotate(0) translate(4 316)">
<title>G</title>
<polygon fill="white" stroke="white" points="-4,5 -4,-316 871.306,-316 871.306,5 -4,5"/>
<!-- Node1 -->
<g id="node1" class="node"><title>Node1</title>
<polygon fill="#bfbfbf" stroke="black" points="396.806,-290.5 396.806,-311.5 513.806,-311.5 513.806,-290.5 396.806,-290.5"/>
<text text-anchor="middle" x="455.306" y="-298.5" font-family="DejaVuSans" font-size="10.00">src/Config/Config.cpp</text>
</g>
<!-- Node2 -->
<g id="node3" class="node"><title>Node2</title>
<polygon fill="white" stroke="#bfbfbf" points="281.306,-232.5 281.306,-253.5 369.306,-253.5 369.306,-232.5 281.306,-232.5"/>
<text text-anchor="middle" x="325.306" y="-240.5" font-family="DejaVuSans" font-size="10.00">CMakeConfig.h</text>
</g>
<!-- Node1&#45;&gt;Node2 -->
<g id="edge2" class="edge"><title>Node1&#45;&gt;Node2</title>
<path fill="none" stroke="midnightblue" d="M431.764,-290.497C411.277,-281.356 381.359,-268.008 358.453,-257.788"/>
<polygon fill="midnightblue" stroke="midnightblue" points="359.671,-254.499 349.113,-253.621 356.819,-260.892 359.671,-254.499"/>
</g>
<!-- Node3 -->
<g id="node5" class="node"><title>Node3</title>
<a xlink:href="_exception_8h_source.html" target="_top" xlink:title="../Exceptions/Exception.h">
<polygon fill="white" stroke="black" points="387.306,-232.5 387.306,-253.5 523.306,-253.5 523.306,-232.5 387.306,-232.5"/>
<text text-anchor="middle" x="455.306" y="-240.5" font-family="DejaVuSans" font-size="10.00">../Exceptions/Exception.h</text>
</a>
</g>
<!-- Node1&#45;&gt;Node3 -->
<g id="edge4" class="edge"><title>Node1&#45;&gt;Node3</title>
<path fill="none" stroke="midnightblue" d="M455.306,-290.362C455.306,-282.922 455.306,-272.743 455.306,-263.728"/>
<polygon fill="midnightblue" stroke="midnightblue" points="458.807,-263.571 455.306,-253.571 451.807,-263.571 458.807,-263.571"/>
</g>
<!-- Node15 -->
<g id="node42" class="node"><title>Node15</title>
<a xlink:href="_config_8h.html" target="_top" xlink:title="../Config/Config.h">
<polygon fill="white" stroke="black" points="679.306,-174.5 679.306,-195.5 777.306,-195.5 777.306,-174.5 679.306,-174.5"/>
<text text-anchor="middle" x="728.306" y="-182.5" font-family="DejaVuSans" font-size="10.00">../Config/Config.h</text>
</a>
</g>
<!-- Node1&#45;&gt;Node15 -->
<g id="edge62" class="edge"><title>Node1&#45;&gt;Node15</title>
<path fill="none" stroke="midnightblue" d="M480.5,-290.295C529.687,-269.395 638.535,-223.145 694.15,-199.513"/>
<polygon fill="midnightblue" stroke="midnightblue" points="695.733,-202.644 703.568,-195.512 692.995,-196.201 695.733,-202.644"/>
</g>
<!-- Node4 -->
<g id="node7" class="node"><title>Node4</title>
<polygon fill="white" stroke="#bfbfbf" points="282.806,-0.5 282.806,-21.5 335.806,-21.5 335.806,-0.5 282.806,-0.5"/>
<text text-anchor="middle" x="309.306" y="-8.5" font-family="DejaVuSans" font-size="10.00">QString</text>
</g>
<!-- Node3&#45;&gt;Node4 -->
<g id="edge6" class="edge"><title>Node3&#45;&gt;Node4</title>
<path fill="none" stroke="midnightblue" d="M386.971,-232.499C305.885,-219.924 180.318,-200.044 170.306,-196 86.8507,-162.291 45.6768,-159.935 4.30641,-80 -0.187834,-71.3163 -2.05929,-65.4218 4.30641,-58 21.5877,-37.8517 194.895,-20.732 272.301,-14.0264"/>
<polygon fill="midnightblue" stroke="midnightblue" points="272.895,-17.4885 282.561,-13.1501 272.299,-10.5139 272.895,-17.4885"/>
</g>
<!-- Node5 -->
<g id="node9" class="node"><title>Node5</title>
<a xlink:href="cv___trait_8h.html" target="_top" xlink:title="../Datatypes/cv_Trait.h">
<polygon fill="white" stroke="black" points="324.306,-174.5 324.306,-195.5 446.306,-195.5 446.306,-174.5 324.306,-174.5"/>
<text text-anchor="middle" x="385.306" y="-182.5" font-family="DejaVuSans" font-size="10.00">../Datatypes/cv_Trait.h</text>
</a>
</g>
<!-- Node3&#45;&gt;Node5 -->
<g id="edge8" class="edge"><title>Node3&#45;&gt;Node5</title>
<path fill="none" stroke="midnightblue" d="M442.467,-232.362C432.304,-223.941 417.905,-212.011 406.102,-202.231"/>
<polygon fill="midnightblue" stroke="midnightblue" points="407.997,-199.256 398.064,-195.571 403.531,-204.646 407.997,-199.256"/>
</g>
<!-- Node12 -->
<g id="node31" class="node"><title>Node12</title>
<a xlink:href="cv___shape_8h.html" target="_top" xlink:title="../Datatypes/cv_Shape.h">
<polygon fill="white" stroke="black" points="13.3064,-58.5 13.3064,-79.5 147.306,-79.5 147.306,-58.5 13.3064,-58.5"/>
<text text-anchor="middle" x="80.3064" y="-66.5" font-family="DejaVuSans" font-size="10.00">../Datatypes/cv_Shape.h</text>
</a>
</g>
<!-- Node3&#45;&gt;Node12 -->
<g id="edge38" class="edge"><title>Node3&#45;&gt;Node12</title>
<path fill="none" stroke="midnightblue" d="M397.438,-232.442C308.855,-215.204 145.448,-178.82 103.306,-138 90.2423,-125.346 84.598,-105.087 82.1598,-89.7881"/>
<polygon fill="midnightblue" stroke="midnightblue" points="85.612,-89.1886 80.8908,-79.7039 78.6668,-90.0626 85.612,-89.1886"/>
</g>
<!-- Node13 -->
<g id="node34" class="node"><title>Node13</title>
<a xlink:href="cv___identity_8h.html" target="_top" xlink:title="../Datatypes/cv_Identity.h">
<polygon fill="white" stroke="black" points="509.806,-174.5 509.806,-195.5 646.806,-195.5 646.806,-174.5 509.806,-174.5"/>
<text text-anchor="middle" x="578.306" y="-182.5" font-family="DejaVuSans" font-size="10.00">../Datatypes/cv_Identity.h</text>
</a>
</g>
<!-- Node3&#45;&gt;Node13 -->
<g id="edge42" class="edge"><title>Node3&#45;&gt;Node13</title>
<path fill="none" stroke="midnightblue" d="M477.581,-232.497C496.878,-223.397 525.019,-210.127 546.654,-199.925"/>
<polygon fill="midnightblue" stroke="midnightblue" points="548.23,-203.052 555.782,-195.621 545.244,-196.721 548.23,-203.052"/>
</g>
<!-- Node3&#45;&gt;Node15 -->
<g id="edge54" class="edge"><title>Node3&#45;&gt;Node15</title>
<path fill="none" stroke="midnightblue" d="M504.745,-232.497C551.032,-222.663 620.244,-207.958 669.38,-197.519"/>
<polygon fill="midnightblue" stroke="midnightblue" points="670.182,-200.927 679.236,-195.425 668.727,-194.08 670.182,-200.927"/>
</g>
<!-- Node5&#45;&gt;Node4 -->
<g id="edge12" class="edge"><title>Node5&#45;&gt;Node4</title>
<path fill="none" stroke="midnightblue" d="M346.236,-174.392C327.999,-167.267 307.995,-155.826 297.306,-138 286.864,-120.584 297.539,-62.953 304.436,-31.6572"/>
<polygon fill="midnightblue" stroke="midnightblue" points="307.874,-32.3218 306.677,-21.7948 301.048,-30.7706 307.874,-32.3218"/>
</g>
<!-- Node6 -->
<g id="node11" class="node"><title>Node6</title>
<polygon fill="white" stroke="#bfbfbf" points="449.806,-116.5 449.806,-137.5 498.806,-137.5 498.806,-116.5 449.806,-116.5"/>
<text text-anchor="middle" x="474.306" y="-124.5" font-family="DejaVuSans" font-size="10.00">QFlags</text>
</g>
<!-- Node5&#45;&gt;Node6 -->
<g id="edge10" class="edge"><title>Node5&#45;&gt;Node6</title>
<path fill="none" stroke="midnightblue" d="M401.63,-174.362C415.054,-165.614 434.289,-153.079 449.599,-143.101"/>
<polygon fill="midnightblue" stroke="midnightblue" points="451.619,-145.963 458.086,-137.571 447.797,-140.098 451.619,-145.963"/>
</g>
<!-- Node7 -->
<g id="node14" class="node"><title>Node7</title>
<polygon fill="white" stroke="#bfbfbf" points="388.806,-58.5 388.806,-79.5 429.806,-79.5 429.806,-58.5 388.806,-58.5"/>
<text text-anchor="middle" x="409.306" y="-66.5" font-family="DejaVuSans" font-size="10.00">QList</text>
</g>
<!-- Node5&#45;&gt;Node7 -->
<g id="edge14" class="edge"><title>Node5&#45;&gt;Node7</title>
<path fill="none" stroke="midnightblue" d="M390.33,-174.44C394.54,-165.085 400.327,-150.943 403.306,-138 406.931,-122.254 408.403,-104.027 408.985,-90.2623"/>
<polygon fill="midnightblue" stroke="midnightblue" points="412.494,-90.0007 409.291,-79.9016 405.497,-89.7938 412.494,-90.0007"/>
</g>
<!-- Node8 -->
<g id="node16" class="node"><title>Node8</title>
<polygon fill="white" stroke="#bfbfbf" points="510.806,-58.5 510.806,-79.5 579.806,-79.5 579.806,-58.5 510.806,-58.5"/>
<text text-anchor="middle" x="545.306" y="-66.5" font-family="DejaVuSans" font-size="10.00">QStringList</text>
</g>
<!-- Node5&#45;&gt;Node8 -->
<g id="edge16" class="edge"><title>Node5&#45;&gt;Node8</title>
<path fill="none" stroke="midnightblue" d="M434.643,-174.464C458.696,-167.357 486.785,-155.91 507.306,-138 522.291,-124.922 532.515,-104.433 538.55,-89.1754"/>
<polygon fill="midnightblue" stroke="midnightblue" points="541.904,-90.1969 542.067,-79.6033 535.333,-87.783 541.904,-90.1969"/>
</g>
<!-- Node9 -->
<g id="node18" class="node"><title>Node9</title>
<a xlink:href="cv___species_8h.html" target="_top" xlink:title="cv_Species.h">
<polygon fill="white" stroke="black" points="202.806,-58.5 202.806,-79.5 281.806,-79.5 281.806,-58.5 202.806,-58.5"/>
<text text-anchor="middle" x="242.306" y="-66.5" font-family="DejaVuSans" font-size="10.00">cv_Species.h</text>
</a>
</g>
<!-- Node5&#45;&gt;Node9 -->
<g id="edge18" class="edge"><title>Node5&#45;&gt;Node9</title>
<path fill="none" stroke="midnightblue" d="M329.623,-174.481C306.689,-167.585 281.517,-156.309 264.306,-138 251.972,-124.878 246.553,-104.839 244.172,-89.7315"/>
<polygon fill="midnightblue" stroke="midnightblue" points="247.64,-89.2571 242.92,-79.7717 240.695,-90.1302 247.64,-89.2571"/>
</g>
<!-- Node10 -->
<g id="node21" class="node"><title>Node10</title>
<a xlink:href="cv___trait_detail_8h.html" target="_top" xlink:title="cv_TraitDetail.h">
<polygon fill="white" stroke="black" points="305.806,-116.5 305.806,-137.5 394.806,-137.5 394.806,-116.5 305.806,-116.5"/>
<text text-anchor="middle" x="350.306" y="-124.5" font-family="DejaVuSans" font-size="10.00">cv_TraitDetail.h</text>
</a>
</g>
<!-- Node5&#45;&gt;Node10 -->
<g id="edge22" class="edge"><title>Node5&#45;&gt;Node10</title>
<path fill="none" stroke="midnightblue" d="M378.887,-174.362C374.151,-166.513 367.575,-155.616 361.924,-146.253"/>
<polygon fill="midnightblue" stroke="midnightblue" points="364.849,-144.324 356.685,-137.571 358.855,-147.941 364.849,-144.324"/>
</g>
<!-- Node11 -->
<g id="node27" class="node"><title>Node11</title>
<a xlink:href="cv___abstract_trait_8h.html" target="_top" xlink:title="cv_AbstractTrait.h">
<polygon fill="white" stroke="black" points="111.806,-116.5 111.806,-137.5 212.806,-137.5 212.806,-116.5 111.806,-116.5"/>
<text text-anchor="middle" x="162.306" y="-124.5" font-family="DejaVuSans" font-size="10.00">cv_AbstractTrait.h</text>
</a>
</g>
<!-- Node5&#45;&gt;Node11 -->
<g id="edge32" class="edge"><title>Node5&#45;&gt;Node11</title>
<path fill="none" stroke="midnightblue" d="M344.923,-174.497C307.781,-164.836 252.57,-150.477 212.583,-140.077"/>
<polygon fill="midnightblue" stroke="midnightblue" points="213.325,-136.653 202.766,-137.523 211.563,-143.428 213.325,-136.653"/>
</g>
<!-- Node9&#45;&gt;Node4 -->
<g id="edge20" class="edge"><title>Node9&#45;&gt;Node4</title>
<path fill="none" stroke="midnightblue" d="M254.595,-58.3619C264.323,-49.9408 278.105,-38.0105 289.402,-28.2308"/>
<polygon fill="midnightblue" stroke="midnightblue" points="291.826,-30.7619 297.095,-21.5707 287.244,-25.4695 291.826,-30.7619"/>
</g>
<!-- Node10&#45;&gt;Node4 -->
<g id="edge24" class="edge"><title>Node10&#45;&gt;Node4</title>
<path fill="none" stroke="midnightblue" d="M346.523,-116.295C339.688,-96.9588 325.184,-55.9229 316.438,-31.1767"/>
<polygon fill="midnightblue" stroke="midnightblue" points="319.713,-29.9412 313.081,-21.6792 313.114,-32.274 319.713,-29.9412"/>
</g>
<!-- Node10&#45;&gt;Node7 -->
<g id="edge26" class="edge"><title>Node10&#45;&gt;Node7</title>
<path fill="none" stroke="midnightblue" d="M361.128,-116.362C369.528,-108.104 381.36,-96.4725 391.197,-86.8029"/>
<polygon fill="midnightblue" stroke="midnightblue" points="393.876,-89.077 398.554,-79.5707 388.969,-84.0851 393.876,-89.077"/>
</g>
<!-- Node10&#45;&gt;Node8 -->
<g id="edge28" class="edge"><title>Node10&#45;&gt;Node8</title>
<path fill="none" stroke="midnightblue" d="M385.619,-116.497C417.885,-106.9 465.744,-92.6647 500.652,-82.2817"/>
<polygon fill="midnightblue" stroke="midnightblue" points="501.997,-85.5335 510.584,-79.3277 500.001,-78.824 501.997,-85.5335"/>
</g>
<!-- Node10&#45;&gt;Node9 -->
<g id="edge30" class="edge"><title>Node10&#45;&gt;Node9</title>
<path fill="none" stroke="midnightblue" d="M330.748,-116.497C314.108,-107.56 289.979,-94.602 271.126,-84.4772"/>
<polygon fill="midnightblue" stroke="midnightblue" points="272.55,-81.2691 262.084,-79.6212 269.238,-87.436 272.55,-81.2691"/>
</g>
<!-- Node11&#45;&gt;Node4 -->
<g id="edge34" class="edge"><title>Node11&#45;&gt;Node4</title>
<path fill="none" stroke="midnightblue" d="M164.674,-116.207C168.476,-101.25 177.306,-74.2313 194.306,-58 215.969,-37.3167 247.969,-25.2429 272.717,-18.5242"/>
<polygon fill="midnightblue" stroke="midnightblue" points="273.656,-21.8969 282.487,-16.0436 271.933,-15.1122 273.656,-21.8969"/>
</g>
<!-- Node11&#45;&gt;Node9 -->
<g id="edge36" class="edge"><title>Node11&#45;&gt;Node9</title>
<path fill="none" stroke="midnightblue" d="M176.98,-116.362C188.821,-107.777 205.691,-95.5459 219.322,-85.6636"/>
<polygon fill="midnightblue" stroke="midnightblue" points="221.684,-88.274 227.726,-79.5707 217.576,-82.6067 221.684,-88.274"/>
</g>
<!-- Node12&#45;&gt;Node4 -->
<g id="edge40" class="edge"><title>Node12&#45;&gt;Node4</title>
<path fill="none" stroke="midnightblue" d="M121.777,-58.4966C164.908,-47.5724 231.769,-30.6383 272.915,-20.2171"/>
<polygon fill="midnightblue" stroke="midnightblue" points="273.957,-23.5637 282.792,-17.7155 272.238,-16.778 273.957,-23.5637"/>
</g>
<!-- Node13&#45;&gt;Node4 -->
<g id="edge46" class="edge"><title>Node13&#45;&gt;Node4</title>
<path fill="none" stroke="midnightblue" d="M620.978,-174.424C639.839,-167.395 660.217,-156.029 671.306,-138 697.52,-95.382 623.708,-64.1664 611.306,-58 565.323,-35.1361 416.223,-19.9775 346.23,-13.9434"/>
<polygon fill="midnightblue" stroke="midnightblue" points="346.36,-10.442 336.101,-13.0864 345.77,-17.4171 346.36,-10.442"/>
</g>
<!-- Node13&#45;&gt;Node8 -->
<g id="edge44" class="edge"><title>Node13&#45;&gt;Node8</title>
<path fill="none" stroke="midnightblue" d="M575.261,-174.295C569.785,-155.045 558.19,-114.289 551.141,-89.5091"/>
<polygon fill="midnightblue" stroke="midnightblue" points="554.447,-88.3399 548.344,-79.6792 547.714,-90.2553 554.447,-88.3399"/>
</g>
<!-- Node14 -->
<g id="node38" class="node"><title>Node14</title>
<a xlink:href="cv___name_8h.html" target="_top" xlink:title="cv_Name.h">
<polygon fill="white" stroke="black" points="591.806,-116.5 591.806,-137.5 662.806,-137.5 662.806,-116.5 591.806,-116.5"/>
<text text-anchor="middle" x="627.306" y="-124.5" font-family="DejaVuSans" font-size="10.00">cv_Name.h</text>
</a>
</g>
<!-- Node13&#45;&gt;Node14 -->
<g id="edge48" class="edge"><title>Node13&#45;&gt;Node14</title>
<path fill="none" stroke="midnightblue" d="M587.294,-174.362C594.132,-166.268 603.709,-154.932 611.779,-145.38"/>
<polygon fill="midnightblue" stroke="midnightblue" points="614.596,-147.468 618.376,-137.571 609.249,-142.951 614.596,-147.468"/>
</g>
<!-- Node14&#45;&gt;Node4 -->
<g id="edge52" class="edge"><title>Node14&#45;&gt;Node4</title>
<path fill="none" stroke="midnightblue" d="M624.476,-116.386C619.75,-100.872 608.697,-72.3009 588.306,-58 549.751,-30.9602 412.435,-18.0591 345.929,-13.2862"/>
<polygon fill="midnightblue" stroke="midnightblue" points="346.108,-9.79024 335.889,-12.589 345.623,-16.7734 346.108,-9.79024"/>
</g>
<!-- Node14&#45;&gt;Node8 -->
<g id="edge50" class="edge"><title>Node14&#45;&gt;Node8</title>
<path fill="none" stroke="midnightblue" d="M612.266,-116.362C600.014,-107.696 582.507,-95.3126 568.467,-85.3819"/>
<polygon fill="midnightblue" stroke="midnightblue" points="570.436,-82.4879 560.251,-79.5707 566.394,-88.2028 570.436,-82.4879"/>
</g>
<!-- Node15&#45;&gt;Node4 -->
<g id="edge56" class="edge"><title>Node15&#45;&gt;Node4</title>
<path fill="none" stroke="midnightblue" d="M724.928,-174.448C716.228,-149.207 690.441,-85.4111 644.306,-58 594.457,-28.3818 422.197,-16.4917 346.025,-12.6026"/>
<polygon fill="midnightblue" stroke="midnightblue" points="346.097,-9.10206 335.937,-12.106 345.753,-16.0936 346.097,-9.10206"/>
</g>
<!-- Node16 -->
<g id="node45" class="node"><title>Node16</title>
<polygon fill="white" stroke="#bfbfbf" points="755.806,-116.5 755.806,-137.5 804.806,-137.5 804.806,-116.5 755.806,-116.5"/>
<text text-anchor="middle" x="780.306" y="-124.5" font-family="DejaVuSans" font-size="10.00">QColor</text>
</g>
<!-- Node15&#45;&gt;Node16 -->
<g id="edge58" class="edge"><title>Node15&#45;&gt;Node16</title>
<path fill="none" stroke="midnightblue" d="M737.844,-174.362C745.174,-166.186 755.47,-154.702 764.087,-145.091"/>
<polygon fill="midnightblue" stroke="midnightblue" points="766.76,-147.353 770.829,-137.571 761.548,-142.68 766.76,-147.353"/>
</g>
<!-- Node17 -->
<g id="node47" class="node"><title>Node17</title>
<polygon fill="white" stroke="#bfbfbf" points="821.806,-116.5 821.806,-137.5 866.806,-137.5 866.806,-116.5 821.806,-116.5"/>
<text text-anchor="middle" x="844.306" y="-124.5" font-family="DejaVuSans" font-size="10.00">QFont</text>
</g>
<!-- Node15&#45;&gt;Node17 -->
<g id="edge60" class="edge"><title>Node15&#45;&gt;Node17</title>
<path fill="none" stroke="midnightblue" d="M749.313,-174.497C767.349,-165.479 793.577,-152.365 813.905,-142.201"/>
<polygon fill="midnightblue" stroke="midnightblue" points="815.685,-145.224 823.064,-137.621 812.554,-138.963 815.685,-145.224"/>
</g>
</g>
</svg>
