<?xml version="1.0" encoding="UTF-8" standalone="no"?>
<!DOCTYPE svg PUBLIC "-//W3C//DTD SVG 1.1//EN"
 "http://www.w3.org/Graphics/SVG/1.1/DTD/svg11.dtd">
<!-- Generated by graphviz version 2.26.3 (20100126.1600)
 -->
<!-- Title: G Pages: 1 -->
<svg width="252pt" height="88pt"
 viewBox="0.00 0.00 252.00 88.00" xmlns="http://www.w3.org/2000/svg" xmlns:xlink="http://www.w3.org/1999/xlink">
<g id="graph1" class="graph" transform="scale(1 1) rotate(0) translate(4 84)">
<title>G</title>
<polygon fill="white" stroke="white" points="-4,5 -4,-84 249,-84 249,5 -4,5"/>
<!-- Node1 -->
<g id="node1" class="node"><title>Node1</title>
<polygon fill="#bfbfbf" stroke="black" points="70,-58.5 70,-79.5 176,-79.5 176,-58.5 70,-58.5"/>
<text text-anchor="middle" x="123" y="-66.5" font-family="DejaVuSans" font-size="10.00">src/Config/Config.h</text>
</g>
<!-- Node2 -->
<g id="node3" class="node"><title>Node2</title>
<a xlink:href="_config_8cpp.html" target="_top" xlink:title="src/Config/Config.cpp">
<polygon fill="white" stroke="black" points="-0.5,-0.5 -0.5,-21.5 116.5,-21.5 116.5,-0.5 -0.5,-0.5"/>
<text text-anchor="middle" x="58" y="-8.5" font-family="DejaVuSans" font-size="10.00">src/Config/Config.cpp</text>
</a>
</g>
<!-- Node1&#45;&gt;Node2 -->
<g id="edge2" class="edge"><title>Node1&#45;&gt;Node2</title>
<path fill="none" stroke="midnightblue" d="M103.602,-51.6908C92.6289,-41.8996 79.2628,-29.973 69.8464,-21.5707"/>
<polygon fill="midnightblue" stroke="midnightblue" points="101.286,-54.3155 111.078,-58.3619 105.947,-49.0925 101.286,-54.3155"/>
</g>
<!-- Node3 -->
<g id="node5" class="node"><title>Node3</title>
<a xlink:href="_main_window_8cpp.html" target="_top" xlink:title="src/MainWindow.cpp">
<polygon fill="white" stroke="black" points="133.5,-0.5 133.5,-21.5 244.5,-21.5 244.5,-0.5 133.5,-0.5"/>
<text text-anchor="middle" x="189" y="-8.5" font-family="DejaVuSans" font-size="10.00">src/MainWindow.cpp</text>
</a>
</g>
<!-- Node1&#45;&gt;Node3 -->
<g id="edge4" class="edge"><title>Node1&#45;&gt;Node3</title>
<path fill="none" stroke="midnightblue" d="M142.697,-51.6908C153.838,-41.8996 167.41,-29.973 176.971,-21.5707"/>
<polygon fill="midnightblue" stroke="midnightblue" points="140.307,-49.1316 135.105,-58.3619 144.928,-54.3898 140.307,-49.1316"/>
</g>
</g>
</svg>
