<?xml version="1.0" encoding="UTF-8" standalone="no"?>
<!DOCTYPE svg PUBLIC "-//W3C//DTD SVG 1.1//EN"
 "http://www.w3.org/Graphics/SVG/1.1/DTD/svg11.dtd">
<!-- Generated by graphviz version 2.26.3 (20100126.1600)
 -->
<!-- Title: G Pages: 1 -->
<svg width="414pt" height="88pt"
 viewBox="0.00 0.00 414.00 88.00" xmlns="http://www.w3.org/2000/svg" xmlns:xlink="http://www.w3.org/1999/xlink">
<g id="graph1" class="graph" transform="scale(1 1) rotate(0) translate(4 84)">
<title>G</title>
<polygon fill="white" stroke="white" points="-4,5 -4,-84 411,-84 411,5 -4,5"/>
<!-- Node1 -->
<g id="node1" class="node"><title>Node1</title>
<polygon fill="#bfbfbf" stroke="black" points="204.5,-58.5 204.5,-79.5 311.5,-79.5 311.5,-58.5 204.5,-58.5"/>
<text text-anchor="middle" x="258" y="-66.5" font-family="DejaVuSans" font-size="10.00">src/Calc/Creation.h</text>
</g>
<!-- Node2 -->
<g id="node3" class="node"><title>Node2</title>
<polygon fill="white" stroke="#bfbfbf" points="0,-0.5 0,-21.5 164,-21.5 164,-0.5 0,-0.5"/>
<text text-anchor="middle" x="82" y="-8.5" font-family="DejaVuSans" font-size="10.00">Datatypes/cv_CreationPoints.h</text>
</g>
<!-- Node1&#45;&gt;Node2 -->
<g id="edge2" class="edge"><title>Node1&#45;&gt;Node2</title>
<path fill="none" stroke="midnightblue" d="M226.128,-58.4966C197.435,-49.0411 155.079,-35.0829 123.702,-24.7428"/>
<polygon fill="midnightblue" stroke="midnightblue" points="124.525,-21.3289 113.932,-21.5231 122.334,-27.9772 124.525,-21.3289"/>
</g>
<!-- Node3 -->
<g id="node5" class="node"><title>Node3</title>
<polygon fill="white" stroke="#bfbfbf" points="182,-0.5 182,-21.5 334,-21.5 334,-0.5 182,-0.5"/>
<text text-anchor="middle" x="258" y="-8.5" font-family="DejaVuSans" font-size="10.00">Storage/StorageCharacter.h</text>
</g>
<!-- Node1&#45;&gt;Node3 -->
<g id="edge4" class="edge"><title>Node1&#45;&gt;Node3</title>
<path fill="none" stroke="midnightblue" d="M258,-58.3619C258,-50.9219 258,-40.7427 258,-31.7276"/>
<polygon fill="midnightblue" stroke="midnightblue" points="261.5,-31.5706 258,-21.5707 254.5,-31.5707 261.5,-31.5706"/>
</g>
<!-- Node4 -->
<g id="node7" class="node"><title>Node4</title>
<polygon fill="white" stroke="#bfbfbf" points="351.5,-0.5 351.5,-21.5 406.5,-21.5 406.5,-0.5 351.5,-0.5"/>
<text text-anchor="middle" x="379" y="-8.5" font-family="DejaVuSans" font-size="10.00">QObject</text>
</g>
<!-- Node1&#45;&gt;Node4 -->
<g id="edge6" class="edge"><title>Node1&#45;&gt;Node4</title>
<path fill="none" stroke="midnightblue" d="M279.912,-58.4966C298.811,-49.4378 326.331,-36.2462 347.576,-26.0628"/>
<polygon fill="midnightblue" stroke="midnightblue" points="349.337,-29.0999 356.842,-21.6212 346.311,-22.7876 349.337,-29.0999"/>
</g>
</g>
</svg>
