<?xml version="1.0" encoding="UTF-8" standalone="no"?>
<!DOCTYPE svg PUBLIC "-//W3C//DTD SVG 1.1//EN"
 "http://www.w3.org/Graphics/SVG/1.1/DTD/svg11.dtd">
<!-- Generated by graphviz version 2.26.3 (20100126.1600)
 -->
<!-- Title: G Pages: 1 -->
<svg width="414pt" height="146pt"
 viewBox="0.00 0.00 414.00 146.00" xmlns="http://www.w3.org/2000/svg" xmlns:xlink="http://www.w3.org/1999/xlink">
<g id="graph1" class="graph" transform="scale(1 1) rotate(0) translate(4 142)">
<title>G</title>
<polygon fill="white" stroke="white" points="-4,5 -4,-142 411,-142 411,5 -4,5"/>
<!-- Node1 -->
<g id="node1" class="node"><title>Node1</title>
<polygon fill="#bfbfbf" stroke="black" points="104,-116.5 104,-137.5 222,-137.5 222,-116.5 104,-116.5"/>
<text text-anchor="middle" x="163" y="-124.5" font-family="DejaVuSans" font-size="10.00">src/Calc/Creation.cpp</text>
</g>
<!-- Node2 -->
<g id="node3" class="node"><title>Node2</title>
<polygon fill="white" stroke="#bfbfbf" points="45,-58.5 45,-79.5 101,-79.5 101,-58.5 45,-58.5"/>
<text text-anchor="middle" x="73" y="-66.5" font-family="DejaVuSans" font-size="10.00">QDebug</text>
</g>
<!-- Node1&#45;&gt;Node2 -->
<g id="edge2" class="edge"><title>Node1&#45;&gt;Node2</title>
<path fill="none" stroke="midnightblue" d="M146.493,-116.362C132.918,-107.614 113.467,-95.0786 97.985,-85.1015"/>
<polygon fill="midnightblue" stroke="midnightblue" points="99.7044,-82.0457 89.4027,-79.5707 95.9125,-87.9297 99.7044,-82.0457"/>
</g>
<!-- Node3 -->
<g id="node5" class="node"><title>Node3</title>
<polygon fill="white" stroke="#bfbfbf" points="118.5,-58.5 118.5,-79.5 207.5,-79.5 207.5,-58.5 118.5,-58.5"/>
<text text-anchor="middle" x="163" y="-66.5" font-family="DejaVuSans" font-size="10.00">Config/Config.h</text>
</g>
<!-- Node1&#45;&gt;Node3 -->
<g id="edge4" class="edge"><title>Node1&#45;&gt;Node3</title>
<path fill="none" stroke="midnightblue" d="M163,-116.362C163,-108.922 163,-98.7427 163,-89.7276"/>
<polygon fill="midnightblue" stroke="midnightblue" points="166.5,-89.5706 163,-79.5707 159.5,-89.5707 166.5,-89.5706"/>
</g>
<!-- Node4 -->
<g id="node7" class="node"><title>Node4</title>
<a xlink:href="_creation_8h.html" target="_top" xlink:title="Creation.h">
<polygon fill="white" stroke="black" points="225,-58.5 225,-79.5 291,-79.5 291,-58.5 225,-58.5"/>
<text text-anchor="middle" x="258" y="-66.5" font-family="DejaVuSans" font-size="10.00">Creation.h</text>
</a>
</g>
<!-- Node1&#45;&gt;Node4 -->
<g id="edge6" class="edge"><title>Node1&#45;&gt;Node4</title>
<path fill="none" stroke="midnightblue" d="M180.424,-116.362C194.887,-107.532 215.669,-94.844 232.084,-84.8224"/>
<polygon fill="midnightblue" stroke="midnightblue" points="233.975,-87.7688 240.686,-79.5707 230.327,-81.7943 233.975,-87.7688"/>
</g>
<!-- Node5 -->
<g id="node9" class="node"><title>Node5</title>
<polygon fill="white" stroke="#bfbfbf" points="0,-0.5 0,-21.5 164,-21.5 164,-0.5 0,-0.5"/>
<text text-anchor="middle" x="82" y="-8.5" font-family="DejaVuSans" font-size="10.00">Datatypes/cv_CreationPoints.h</text>
</g>
<!-- Node4&#45;&gt;Node5 -->
<g id="edge8" class="edge"><title>Node4&#45;&gt;Node5</title>
<path fill="none" stroke="midnightblue" d="M226.128,-58.4966C197.435,-49.0411 155.079,-35.0829 123.702,-24.7428"/>
<polygon fill="midnightblue" stroke="midnightblue" points="124.525,-21.3289 113.932,-21.5231 122.334,-27.9772 124.525,-21.3289"/>
</g>
<!-- Node6 -->
<g id="node11" class="node"><title>Node6</title>
<polygon fill="white" stroke="#bfbfbf" points="182,-0.5 182,-21.5 334,-21.5 334,-0.5 182,-0.5"/>
<text text-anchor="middle" x="258" y="-8.5" font-family="DejaVuSans" font-size="10.00">Storage/StorageCharacter.h</text>
</g>
<!-- Node4&#45;&gt;Node6 -->
<g id="edge10" class="edge"><title>Node4&#45;&gt;Node6</title>
<path fill="none" stroke="midnightblue" d="M258,-58.3619C258,-50.9219 258,-40.7427 258,-31.7276"/>
<polygon fill="midnightblue" stroke="midnightblue" points="261.5,-31.5706 258,-21.5707 254.5,-31.5707 261.5,-31.5706"/>
</g>
<!-- Node7 -->
<g id="node13" class="node"><title>Node7</title>
<polygon fill="white" stroke="#bfbfbf" points="351.5,-0.5 351.5,-21.5 406.5,-21.5 406.5,-0.5 351.5,-0.5"/>
<text text-anchor="middle" x="379" y="-8.5" font-family="DejaVuSans" font-size="10.00">QObject</text>
</g>
<!-- Node4&#45;&gt;Node7 -->
<g id="edge12" class="edge"><title>Node4&#45;&gt;Node7</title>
<path fill="none" stroke="midnightblue" d="M279.912,-58.4966C298.811,-49.4378 326.331,-36.2462 347.576,-26.0628"/>
<polygon fill="midnightblue" stroke="midnightblue" points="349.337,-29.0999 356.842,-21.6212 346.311,-22.7876 349.337,-29.0999"/>
</g>
</g>
</svg>
