<?xml version="1.0" encoding="UTF-8" standalone="no"?>
<!DOCTYPE svg PUBLIC "-//W3C//DTD SVG 1.1//EN"
 "http://www.w3.org/Graphics/SVG/1.1/DTD/svg11.dtd">
<!-- Generated by graphviz version 2.26.3 (20100126.1600)
 -->
<!-- Title: G Pages: 1 -->
<svg width="601pt" height="146pt"
 viewBox="0.00 0.00 601.00 146.00" xmlns="http://www.w3.org/2000/svg" xmlns:xlink="http://www.w3.org/1999/xlink">
<g id="graph1" class="graph" transform="scale(1 1) rotate(0) translate(4 142)">
<title>G</title>
<polygon fill="white" stroke="white" points="-4,5 -4,-142 598,-142 598,5 -4,5"/>
<!-- Node1 -->
<g id="node1" class="node"><title>Node1</title>
<polygon fill="#bfbfbf" stroke="black" points="140,-116.5 140,-137.5 258,-137.5 258,-116.5 140,-116.5"/>
<text text-anchor="middle" x="199" y="-124.5" font-family="DejaVuSans" font-size="10.00">src/Calc/Creation.cpp</text>
</g>
<!-- Node2 -->
<g id="node3" class="node"><title>Node2</title>
<polygon fill="white" stroke="#bfbfbf" points="0,-58.5 0,-79.5 56,-79.5 56,-58.5 0,-58.5"/>
<text text-anchor="middle" x="28" y="-66.5" font-family="DejaVuSans" font-size="10.00">QDebug</text>
</g>
<!-- Node1&#45;&gt;Node2 -->
<g id="edge2" class="edge"><title>Node1&#45;&gt;Node2</title>
<path fill="none" stroke="midnightblue" d="M168.033,-116.497C139.287,-106.747 96.426,-92.2088 65.7002,-81.7872"/>
<polygon fill="midnightblue" stroke="midnightblue" points="66.7784,-78.4571 56.184,-78.5595 64.5299,-85.0862 66.7784,-78.4571"/>
</g>
<!-- Node3 -->
<g id="node5" class="node"><title>Node3</title>
<polygon fill="white" stroke="#bfbfbf" points="73.5,-58.5 73.5,-79.5 200.5,-79.5 200.5,-58.5 73.5,-58.5"/>
<text text-anchor="middle" x="137" y="-66.5" font-family="DejaVuSans" font-size="10.00">Exceptions/Exception.h</text>
</g>
<!-- Node1&#45;&gt;Node3 -->
<g id="edge4" class="edge"><title>Node1&#45;&gt;Node3</title>
<path fill="none" stroke="midnightblue" d="M187.628,-116.362C178.714,-108.023 166.121,-96.2418 155.724,-86.5162"/>
<polygon fill="midnightblue" stroke="midnightblue" points="157.993,-83.8463 148.3,-79.5707 153.211,-88.9582 157.993,-83.8463"/>
</g>
<!-- Node4 -->
<g id="node7" class="node"><title>Node4</title>
<polygon fill="white" stroke="#bfbfbf" points="217.5,-58.5 217.5,-79.5 306.5,-79.5 306.5,-58.5 217.5,-58.5"/>
<text text-anchor="middle" x="262" y="-66.5" font-family="DejaVuSans" font-size="10.00">Config/Config.h</text>
</g>
<!-- Node1&#45;&gt;Node4 -->
<g id="edge6" class="edge"><title>Node1&#45;&gt;Node4</title>
<path fill="none" stroke="midnightblue" d="M210.555,-116.362C219.613,-108.023 232.41,-96.2418 242.974,-86.5162"/>
<polygon fill="midnightblue" stroke="midnightblue" points="245.532,-88.9187 250.518,-79.5707 240.79,-83.7688 245.532,-88.9187"/>
</g>
<!-- Node5 -->
<g id="node9" class="node"><title>Node5</title>
<a xlink:href="_creation_8h.html" target="_top" xlink:title="Creation.h">
<polygon fill="white" stroke="black" points="324,-58.5 324,-79.5 390,-79.5 390,-58.5 324,-58.5"/>
<text text-anchor="middle" x="357" y="-66.5" font-family="DejaVuSans" font-size="10.00">Creation.h</text>
</a>
</g>
<!-- Node1&#45;&gt;Node5 -->
<g id="edge8" class="edge"><title>Node1&#45;&gt;Node5</title>
<path fill="none" stroke="midnightblue" d="M227.613,-116.497C253.148,-107.123 290.737,-93.3242 318.829,-83.0122"/>
<polygon fill="midnightblue" stroke="midnightblue" points="320.152,-86.2548 328.334,-79.5231 317.74,-79.6835 320.152,-86.2548"/>
</g>
<!-- Node6 -->
<g id="node11" class="node"><title>Node6</title>
<polygon fill="white" stroke="#bfbfbf" points="56.5,-0.5 56.5,-21.5 169.5,-21.5 169.5,-0.5 56.5,-0.5"/>
<text text-anchor="middle" x="113" y="-8.5" font-family="DejaVuSans" font-size="10.00">Datatypes/cv_Trait.h</text>
</g>
<!-- Node5&#45;&gt;Node6 -->
<g id="edge10" class="edge"><title>Node5&#45;&gt;Node6</title>
<path fill="none" stroke="midnightblue" d="M323.551,-60.1507C320.661,-59.4132 317.781,-58.6875 315,-58 266.182,-45.9303 210.508,-33.0412 169.988,-23.8191"/>
<polygon fill="midnightblue" stroke="midnightblue" points="170.553,-20.3584 160.026,-21.5562 169.003,-27.1845 170.553,-20.3584"/>
</g>
<!-- Node7 -->
<g id="node13" class="node"><title>Node7</title>
<polygon fill="white" stroke="#bfbfbf" points="187,-0.5 187,-21.5 351,-21.5 351,-0.5 187,-0.5"/>
<text text-anchor="middle" x="269" y="-8.5" font-family="DejaVuSans" font-size="10.00">Datatypes/cv_CreationPoints.h</text>
</g>
<!-- Node5&#45;&gt;Node7 -->
<g id="edge12" class="edge"><title>Node5&#45;&gt;Node7</title>
<path fill="none" stroke="midnightblue" d="M340.859,-58.3619C327.586,-49.6138 308.568,-37.0786 293.43,-27.1015"/>
<polygon fill="midnightblue" stroke="midnightblue" points="295.314,-24.1515 285.038,-21.5707 291.462,-29.9962 295.314,-24.1515"/>
</g>
<!-- Node8 -->
<g id="node15" class="node"><title>Node8</title>
<polygon fill="white" stroke="#bfbfbf" points="369,-0.5 369,-21.5 521,-21.5 521,-0.5 369,-0.5"/>
<text text-anchor="middle" x="445" y="-8.5" font-family="DejaVuSans" font-size="10.00">Storage/StorageCharacter.h</text>
</g>
<!-- Node5&#45;&gt;Node8 -->
<g id="edge14" class="edge"><title>Node5&#45;&gt;Node8</title>
<path fill="none" stroke="midnightblue" d="M373.141,-58.3619C386.414,-49.6138 405.432,-37.0786 420.57,-27.1015"/>
<polygon fill="midnightblue" stroke="midnightblue" points="422.538,-29.9962 428.962,-21.5707 418.686,-24.1515 422.538,-29.9962"/>
</g>
<!-- Node9 -->
<g id="node17" class="node"><title>Node9</title>
<polygon fill="white" stroke="#bfbfbf" points="538.5,-0.5 538.5,-21.5 593.5,-21.5 593.5,-0.5 538.5,-0.5"/>
<text text-anchor="middle" x="566" y="-8.5" font-family="DejaVuSans" font-size="10.00">QObject</text>
</g>
<!-- Node5&#45;&gt;Node9 -->
<g id="edge16" class="edge"><title>Node5&#45;&gt;Node9</title>
<path fill="none" stroke="midnightblue" d="M390.251,-60.2968C423.101,-51.6259 475.02,-37.7282 528.181,-22.4763"/>
<polygon fill="midnightblue" stroke="midnightblue" points="529.477,-25.7453 538.118,-19.6137 527.54,-19.0189 529.477,-25.7453"/>
</g>
</g>
</svg>
