<?xml version="1.0" encoding="UTF-8" standalone="no"?>
<!DOCTYPE svg PUBLIC "-//W3C//DTD SVG 1.1//EN"
 "http://www.w3.org/Graphics/SVG/1.1/DTD/svg11.dtd">
<!-- Generated by graphviz version 2.26.3 (20100126.1600)
 -->
<!-- Title: G Pages: 1 -->
<svg width="544pt" height="88pt"
 viewBox="0.00 0.00 544.00 88.00" xmlns="http://www.w3.org/2000/svg" xmlns:xlink="http://www.w3.org/1999/xlink">
<g id="graph1" class="graph" transform="scale(1 1) rotate(0) translate(4 84)">
<title>G</title>
<polygon fill="white" stroke="white" points="-4,5 -4,-84 541,-84 541,5 -4,5"/>
<!-- Node1 -->
<g id="node1" class="node"><title>Node1</title>
<polygon fill="#bfbfbf" stroke="black" points="246.5,-58.5 246.5,-79.5 353.5,-79.5 353.5,-58.5 246.5,-58.5"/>
<text text-anchor="middle" x="300" y="-66.5" font-family="DejaVuSans" font-size="10.00">src/Calc/Creation.h</text>
</g>
<!-- Node2 -->
<g id="node3" class="node"><title>Node2</title>
<polygon fill="white" stroke="#bfbfbf" points="-0.5,-0.5 -0.5,-21.5 112.5,-21.5 112.5,-0.5 -0.5,-0.5"/>
<text text-anchor="middle" x="56" y="-8.5" font-family="DejaVuSans" font-size="10.00">Datatypes/cv_Trait.h</text>
</g>
<!-- Node1&#45;&gt;Node2 -->
<g id="edge2" class="edge"><title>Node1&#45;&gt;Node2</title>
<path fill="none" stroke="midnightblue" d="M255.813,-58.4966C214.916,-48.775 153.995,-34.2938 110.179,-23.8787"/>
<polygon fill="midnightblue" stroke="midnightblue" points="110.808,-20.4306 100.269,-21.5231 109.189,-27.2409 110.808,-20.4306"/>
</g>
<!-- Node3 -->
<g id="node5" class="node"><title>Node3</title>
<polygon fill="white" stroke="#bfbfbf" points="130,-0.5 130,-21.5 294,-21.5 294,-0.5 130,-0.5"/>
<text text-anchor="middle" x="212" y="-8.5" font-family="DejaVuSans" font-size="10.00">Datatypes/cv_CreationPoints.h</text>
</g>
<!-- Node1&#45;&gt;Node3 -->
<g id="edge4" class="edge"><title>Node1&#45;&gt;Node3</title>
<path fill="none" stroke="midnightblue" d="M283.859,-58.3619C270.586,-49.6138 251.568,-37.0786 236.43,-27.1015"/>
<polygon fill="midnightblue" stroke="midnightblue" points="238.314,-24.1515 228.038,-21.5707 234.462,-29.9962 238.314,-24.1515"/>
</g>
<!-- Node4 -->
<g id="node7" class="node"><title>Node4</title>
<polygon fill="white" stroke="#bfbfbf" points="312,-0.5 312,-21.5 464,-21.5 464,-0.5 312,-0.5"/>
<text text-anchor="middle" x="388" y="-8.5" font-family="DejaVuSans" font-size="10.00">Storage/StorageCharacter.h</text>
</g>
<!-- Node1&#45;&gt;Node4 -->
<g id="edge6" class="edge"><title>Node1&#45;&gt;Node4</title>
<path fill="none" stroke="midnightblue" d="M316.141,-58.3619C329.414,-49.6138 348.432,-37.0786 363.57,-27.1015"/>
<polygon fill="midnightblue" stroke="midnightblue" points="365.538,-29.9962 371.962,-21.5707 361.686,-24.1515 365.538,-29.9962"/>
</g>
<!-- Node5 -->
<g id="node9" class="node"><title>Node5</title>
<polygon fill="white" stroke="#bfbfbf" points="481.5,-0.5 481.5,-21.5 536.5,-21.5 536.5,-0.5 481.5,-0.5"/>
<text text-anchor="middle" x="509" y="-8.5" font-family="DejaVuSans" font-size="10.00">QObject</text>
</g>
<!-- Node1&#45;&gt;Node5 -->
<g id="edge8" class="edge"><title>Node1&#45;&gt;Node5</title>
<path fill="none" stroke="midnightblue" d="M340.299,-58.4335C373.298,-49.6957 421.429,-36.7571 471.43,-22.4054"/>
<polygon fill="midnightblue" stroke="midnightblue" points="472.478,-25.746 481.118,-19.6137 470.539,-19.0198 472.478,-25.746"/>
</g>
</g>
</svg>
