<?xml version="1.0" encoding="UTF-8" standalone="no"?>
<!DOCTYPE svg PUBLIC "-//W3C//DTD SVG 1.1//EN"
 "http://www.w3.org/Graphics/SVG/1.1/DTD/svg11.dtd">
<!-- Generated by graphviz version 2.26.3 (20100126.1600)
 -->
<!-- Title: G Pages: 1 -->
<svg width="430pt" height="146pt"
 viewBox="0.00 0.00 430.00 146.00" xmlns="http://www.w3.org/2000/svg" xmlns:xlink="http://www.w3.org/1999/xlink">
<g id="graph1" class="graph" transform="scale(1 1) rotate(0) translate(4 142)">
<title>G</title>
<polygon fill="white" stroke="white" points="-4,5 -4,-142 427,-142 427,5 -4,5"/>
<!-- Node1 -->
<g id="node1" class="node"><title>Node1</title>
<polygon fill="#bfbfbf" stroke="black" points="120,-116.5 120,-137.5 238,-137.5 238,-116.5 120,-116.5"/>
<text text-anchor="middle" x="179" y="-124.5" font-family="DejaVuSans" font-size="10.00">src/Calc/Creation.cpp</text>
</g>
<!-- Node2 -->
<g id="node3" class="node"><title>Node2</title>
<polygon fill="white" stroke="#bfbfbf" points="61,-58.5 61,-79.5 117,-79.5 117,-58.5 61,-58.5"/>
<text text-anchor="middle" x="89" y="-66.5" font-family="DejaVuSans" font-size="10.00">QDebug</text>
</g>
<!-- Node1&#45;&gt;Node2 -->
<g id="edge2" class="edge"><title>Node1&#45;&gt;Node2</title>
<path fill="none" stroke="midnightblue" d="M162.493,-116.362C148.918,-107.614 129.467,-95.0786 113.985,-85.1015"/>
<polygon fill="midnightblue" stroke="midnightblue" points="115.704,-82.0457 105.403,-79.5707 111.912,-87.9297 115.704,-82.0457"/>
</g>
<!-- Node3 -->
<g id="node5" class="node"><title>Node3</title>
<polygon fill="white" stroke="#bfbfbf" points="134.5,-58.5 134.5,-79.5 223.5,-79.5 223.5,-58.5 134.5,-58.5"/>
<text text-anchor="middle" x="179" y="-66.5" font-family="DejaVuSans" font-size="10.00">Config/Config.h</text>
</g>
<!-- Node1&#45;&gt;Node3 -->
<g id="edge4" class="edge"><title>Node1&#45;&gt;Node3</title>
<path fill="none" stroke="midnightblue" d="M179,-116.362C179,-108.922 179,-98.7427 179,-89.7276"/>
<polygon fill="midnightblue" stroke="midnightblue" points="182.5,-89.5706 179,-79.5707 175.5,-89.5707 182.5,-89.5706"/>
</g>
<!-- Node4 -->
<g id="node7" class="node"><title>Node4</title>
<a xlink:href="_creation_8h.html" target="_top" xlink:title="Creation.h">
<polygon fill="white" stroke="black" points="241,-58.5 241,-79.5 307,-79.5 307,-58.5 241,-58.5"/>
<text text-anchor="middle" x="274" y="-66.5" font-family="DejaVuSans" font-size="10.00">Creation.h</text>
</a>
</g>
<!-- Node1&#45;&gt;Node4 -->
<g id="edge6" class="edge"><title>Node1&#45;&gt;Node4</title>
<path fill="none" stroke="midnightblue" d="M196.424,-116.362C210.887,-107.532 231.669,-94.844 248.084,-84.8224"/>
<polygon fill="midnightblue" stroke="midnightblue" points="249.975,-87.7688 256.686,-79.5707 246.327,-81.7943 249.975,-87.7688"/>
</g>
<!-- Node5 -->
<g id="node9" class="node"><title>Node5</title>
<polygon fill="white" stroke="#bfbfbf" points="0,-0.5 0,-21.5 180,-21.5 180,-0.5 0,-0.5"/>
<text text-anchor="middle" x="90" y="-8.5" font-family="DejaVuSans" font-size="10.00">Datatypes/cv_CreationPointsList.h</text>
</g>
<!-- Node4&#45;&gt;Node5 -->
<g id="edge8" class="edge"><title>Node4&#45;&gt;Node5</title>
<path fill="none" stroke="midnightblue" d="M240.679,-58.4966C210.552,-49.0001 166.017,-34.9619 133.172,-24.6087"/>
<polygon fill="midnightblue" stroke="midnightblue" points="133.973,-21.1914 123.384,-21.5231 131.869,-27.8676 133.973,-21.1914"/>
</g>
<!-- Node6 -->
<g id="node11" class="node"><title>Node6</title>
<polygon fill="white" stroke="#bfbfbf" points="198,-0.5 198,-21.5 350,-21.5 350,-0.5 198,-0.5"/>
<text text-anchor="middle" x="274" y="-8.5" font-family="DejaVuSans" font-size="10.00">Storage/StorageCharacter.h</text>
</g>
<!-- Node4&#45;&gt;Node6 -->
<g id="edge10" class="edge"><title>Node4&#45;&gt;Node6</title>
<path fill="none" stroke="midnightblue" d="M274,-58.3619C274,-50.9219 274,-40.7427 274,-31.7276"/>
<polygon fill="midnightblue" stroke="midnightblue" points="277.5,-31.5706 274,-21.5707 270.5,-31.5707 277.5,-31.5706"/>
</g>
<!-- Node7 -->
<g id="node13" class="node"><title>Node7</title>
<polygon fill="white" stroke="#bfbfbf" points="367.5,-0.5 367.5,-21.5 422.5,-21.5 422.5,-0.5 367.5,-0.5"/>
<text text-anchor="middle" x="395" y="-8.5" font-family="DejaVuSans" font-size="10.00">QObject</text>
</g>
<!-- Node4&#45;&gt;Node7 -->
<g id="edge12" class="edge"><title>Node4&#45;&gt;Node7</title>
<path fill="none" stroke="midnightblue" d="M295.912,-58.4966C314.811,-49.4378 342.331,-36.2462 363.576,-26.0628"/>
<polygon fill="midnightblue" stroke="midnightblue" points="365.337,-29.0999 372.842,-21.6212 362.311,-22.7876 365.337,-29.0999"/>
</g>
</g>
</svg>
