<?xml version="1.0" encoding="UTF-8" standalone="no"?>
<!DOCTYPE svg PUBLIC "-//W3C//DTD SVG 1.1//EN"
 "http://www.w3.org/Graphics/SVG/1.1/DTD/svg11.dtd">
<!-- Generated by graphviz version 2.26.3 (20100126.1600)
 -->
<!-- Title: G Pages: 1 -->
<svg width="320pt" height="88pt"
 viewBox="0.00 0.00 320.00 88.00" xmlns="http://www.w3.org/2000/svg" xmlns:xlink="http://www.w3.org/1999/xlink">
<g id="graph1" class="graph" transform="scale(1 1) rotate(0) translate(4 84)">
<title>G</title>
<polygon fill="white" stroke="white" points="-4,5 -4,-84 317,-84 317,5 -4,5"/>
<!-- Node1 -->
<g id="node1" class="node"><title>Node1</title>
<polygon fill="#bfbfbf" stroke="black" points="36.5,-58.5 36.5,-79.5 239.5,-79.5 239.5,-58.5 36.5,-58.5"/>
<text text-anchor="middle" x="138" y="-66.5" font-family="DejaVuSans" font-size="10.00">src/Widgets/DerangementComboBox.h</text>
</g>
<!-- Node2 -->
<g id="node3" class="node"><title>Node2</title>
<polygon fill="white" stroke="#bfbfbf" points="-0.5,-0.5 -0.5,-21.5 40.5,-21.5 40.5,-0.5 -0.5,-0.5"/>
<text text-anchor="middle" x="20" y="-8.5" font-family="DejaVuSans" font-size="10.00">QList</text>
</g>
<!-- Node1&#45;&gt;Node2 -->
<g id="edge2" class="edge"><title>Node1&#45;&gt;Node2</title>
<path fill="none" stroke="midnightblue" d="M116.631,-58.4966C97.9706,-49.3245 70.6907,-35.9157 49.8709,-25.6823"/>
<polygon fill="midnightblue" stroke="midnightblue" points="51.3323,-22.5007 40.8138,-21.2305 48.2444,-28.7828 51.3323,-22.5007"/>
</g>
<!-- Node3 -->
<g id="node5" class="node"><title>Node3</title>
<polygon fill="white" stroke="#bfbfbf" points="57.5,-0.5 57.5,-21.5 218.5,-21.5 218.5,-0.5 57.5,-0.5"/>
<text text-anchor="middle" x="138" y="-8.5" font-family="DejaVuSans" font-size="10.00">Datatypes/cv_Derangement.h</text>
</g>
<!-- Node1&#45;&gt;Node3 -->
<g id="edge4" class="edge"><title>Node1&#45;&gt;Node3</title>
<path fill="none" stroke="midnightblue" d="M138,-58.3619C138,-50.9219 138,-40.7427 138,-31.7276"/>
<polygon fill="midnightblue" stroke="midnightblue" points="141.5,-31.5706 138,-21.5707 134.5,-31.5707 141.5,-31.5706"/>
</g>
<!-- Node4 -->
<g id="node7" class="node"><title>Node4</title>
<polygon fill="white" stroke="#bfbfbf" points="235.5,-0.5 235.5,-21.5 312.5,-21.5 312.5,-0.5 235.5,-0.5"/>
<text text-anchor="middle" x="274" y="-8.5" font-family="DejaVuSans" font-size="10.00">QComboBox</text>
</g>
<!-- Node1&#45;&gt;Node4 -->
<g id="edge6" class="edge"><title>Node1&#45;&gt;Node4</title>
<path fill="none" stroke="midnightblue" d="M162.629,-58.4966C184.157,-49.3154 215.64,-35.8889 239.645,-25.6516"/>
<polygon fill="midnightblue" stroke="midnightblue" points="241.27,-28.7636 249.095,-21.6212 238.524,-22.3247 241.27,-28.7636"/>
</g>
</g>
</svg>
