<?xml version="1.0" encoding="UTF-8" standalone="no"?>
<!DOCTYPE svg PUBLIC "-//W3C//DTD SVG 1.1//EN"
 "http://www.w3.org/Graphics/SVG/1.1/DTD/svg11.dtd">
<!-- Generated by graphviz version 2.26.3 (20100126.1600)
 -->
<!-- Title: G Pages: 1 -->
<svg width="404pt" height="88pt"
 viewBox="0.00 0.00 404.00 88.00" xmlns="http://www.w3.org/2000/svg" xmlns:xlink="http://www.w3.org/1999/xlink">
<g id="graph1" class="graph" transform="scale(1 1) rotate(0) translate(4 84)">
<title>G</title>
<polygon fill="white" stroke="white" points="-4,5 -4,-84 401,-84 401,5 -4,5"/>
<!-- Node1 -->
<g id="node1" class="node"><title>Node1</title>
<polygon fill="#bfbfbf" stroke="black" points="108.5,-58.5 108.5,-79.5 311.5,-79.5 311.5,-58.5 108.5,-58.5"/>
<text text-anchor="middle" x="210" y="-66.5" font-family="DejaVuSans" font-size="10.00">src/Widgets/DerangementComboBox.h</text>
</g>
<!-- Node2 -->
<g id="node3" class="node"><title>Node2</title>
<a xlink:href="_derangement_combo_box_8cpp.html" target="_top" xlink:title="src/Widgets/DerangementComboBox.cpp">
<polygon fill="white" stroke="black" points="0,-0.5 0,-21.5 214,-21.5 214,-0.5 0,-0.5"/>
<text text-anchor="middle" x="107" y="-8.5" font-family="DejaVuSans" font-size="10.00">src/Widgets/DerangementComboBox.cpp</text>
</a>
</g>
<!-- Node1&#45;&gt;Node2 -->
<g id="edge2" class="edge"><title>Node1&#45;&gt;Node2</title>
<path fill="none" stroke="midnightblue" d="M182.259,-53.379C164.362,-43.3011 141.563,-30.4624 125.772,-21.5707"/>
<polygon fill="midnightblue" stroke="midnightblue" points="180.677,-56.505 191.108,-58.3619 184.112,-50.4055 180.677,-56.505"/>
</g>
<!-- Node3 -->
<g id="node5" class="node"><title>Node3</title>
<a xlink:href="_morality_widget_8cpp.html" target="_top" xlink:title="src/Widgets/MoralityWidget.cpp">
<polygon fill="white" stroke="black" points="232,-0.5 232,-21.5 396,-21.5 396,-0.5 232,-0.5"/>
<text text-anchor="middle" x="314" y="-8.5" font-family="DejaVuSans" font-size="10.00">src/Widgets/MoralityWidget.cpp</text>
</a>
</g>
<!-- Node1&#45;&gt;Node3 -->
<g id="edge4" class="edge"><title>Node1&#45;&gt;Node3</title>
<path fill="none" stroke="midnightblue" d="M238.01,-53.379C256.081,-43.3011 279.102,-30.4624 295.046,-21.5707"/>
<polygon fill="midnightblue" stroke="midnightblue" points="236.104,-50.4344 229.075,-58.3619 239.514,-56.548 236.104,-50.4344"/>
</g>
</g>
</svg>
