<?xml version="1.0" encoding="UTF-8" standalone="no"?>
<!DOCTYPE svg PUBLIC "-//W3C//DTD SVG 1.1//EN"
 "http://www.w3.org/Graphics/SVG/1.1/DTD/svg11.dtd">
<!-- Generated by graphviz version 2.26.3 (20100126.1600)
 -->
<!-- Title: G Pages: 1 -->
<svg width="656pt" height="146pt"
 viewBox="0.00 0.00 656.00 146.00" xmlns="http://www.w3.org/2000/svg" xmlns:xlink="http://www.w3.org/1999/xlink">
<g id="graph1" class="graph" transform="scale(1 1) rotate(0) translate(4 142)">
<title>G</title>
<polygon fill="white" stroke="white" points="-4,5 -4,-142 653,-142 653,5 -4,5"/>
<!-- Node1 -->
<g id="node1" class="node"><title>Node1</title>
<polygon fill="#bfbfbf" stroke="black" points="132,-116.5 132,-137.5 266,-137.5 266,-116.5 132,-116.5"/>
<text text-anchor="middle" x="199" y="-124.5" font-family="DejaVuSans" font-size="10.00">src/Draw/DrawSheet.cpp</text>
</g>
<!-- Node2 -->
<g id="node3" class="node"><title>Node2</title>
<polygon fill="white" stroke="#bfbfbf" points="-0.5,-58.5 -0.5,-79.5 44.5,-79.5 44.5,-58.5 -0.5,-58.5"/>
<text text-anchor="middle" x="22" y="-66.5" font-family="DejaVuSans" font-size="10.00">QFont</text>
</g>
<!-- Node1&#45;&gt;Node2 -->
<g id="edge2" class="edge"><title>Node1&#45;&gt;Node2</title>
<path fill="none" stroke="midnightblue" d="M165.274,-116.454C137.649,-107.747 97.3262,-94.8809 54.1956,-80.3517"/>
<polygon fill="midnightblue" stroke="midnightblue" points="55.2543,-77.0151 44.6601,-77.1276 53.0121,-83.6463 55.2543,-77.0151"/>
</g>
<!-- Node3 -->
<g id="node5" class="node"><title>Node3</title>
<polygon fill="white" stroke="#bfbfbf" points="61.5,-58.5 61.5,-79.5 118.5,-79.5 118.5,-58.5 61.5,-58.5"/>
<text text-anchor="middle" x="90" y="-66.5" font-family="DejaVuSans" font-size="10.00">QPainter</text>
</g>
<!-- Node1&#45;&gt;Node3 -->
<g id="edge4" class="edge"><title>Node1&#45;&gt;Node3</title>
<path fill="none" stroke="midnightblue" d="M179.261,-116.497C162.39,-107.519 137.891,-94.4835 118.826,-84.3387"/>
<polygon fill="midnightblue" stroke="midnightblue" points="120.433,-81.2289 109.961,-79.6212 117.144,-87.4086 120.433,-81.2289"/>
</g>
<!-- Node4 -->
<g id="node7" class="node"><title>Node4</title>
<polygon fill="white" stroke="#bfbfbf" points="136,-58.5 136,-79.5 192,-79.5 192,-58.5 136,-58.5"/>
<text text-anchor="middle" x="164" y="-66.5" font-family="DejaVuSans" font-size="10.00">QDebug</text>
</g>
<!-- Node1&#45;&gt;Node4 -->
<g id="edge6" class="edge"><title>Node1&#45;&gt;Node4</title>
<path fill="none" stroke="midnightblue" d="M192.58,-116.362C187.844,-108.513 181.268,-97.6159 175.618,-88.2527"/>
<polygon fill="midnightblue" stroke="midnightblue" points="178.542,-86.3242 170.379,-79.5707 172.549,-89.9409 178.542,-86.3242"/>
</g>
<!-- Node5 -->
<g id="node9" class="node"><title>Node5</title>
<polygon fill="white" stroke="#bfbfbf" points="209.5,-58.5 209.5,-79.5 260.5,-79.5 260.5,-58.5 209.5,-58.5"/>
<text text-anchor="middle" x="235" y="-66.5" font-family="DejaVuSans" font-size="10.00">math.h</text>
</g>
<!-- Node1&#45;&gt;Node5 -->
<g id="edge8" class="edge"><title>Node1&#45;&gt;Node5</title>
<path fill="none" stroke="midnightblue" d="M205.603,-116.362C210.475,-108.513 217.238,-97.6159 223.05,-88.2527"/>
<polygon fill="midnightblue" stroke="midnightblue" points="226.139,-89.9129 228.439,-79.5707 220.191,-86.2213 226.139,-89.9129"/>
</g>
<!-- Node6 -->
<g id="node11" class="node"><title>Node6</title>
<polygon fill="white" stroke="#bfbfbf" points="277.5,-58.5 277.5,-79.5 404.5,-79.5 404.5,-58.5 277.5,-58.5"/>
<text text-anchor="middle" x="341" y="-66.5" font-family="DejaVuSans" font-size="10.00">Exceptions/Exception.h</text>
</g>
<!-- Node1&#45;&gt;Node6 -->
<g id="edge10" class="edge"><title>Node1&#45;&gt;Node6</title>
<path fill="none" stroke="midnightblue" d="M224.715,-116.497C247.293,-107.275 280.358,-93.7695 305.463,-83.5153"/>
<polygon fill="midnightblue" stroke="midnightblue" points="307.062,-86.6427 314.996,-79.6212 304.415,-80.1624 307.062,-86.6427"/>
</g>
<!-- Node7 -->
<g id="node13" class="node"><title>Node7</title>
<a xlink:href="_draw_sheet_8h.html" target="_top" xlink:title="DrawSheet.h">
<polygon fill="white" stroke="black" points="422,-58.5 422,-79.5 500,-79.5 500,-58.5 422,-58.5"/>
<text text-anchor="middle" x="461" y="-66.5" font-family="DejaVuSans" font-size="10.00">DrawSheet.h</text>
</a>
</g>
<!-- Node1&#45;&gt;Node7 -->
<g id="edge12" class="edge"><title>Node1&#45;&gt;Node7</title>
<path fill="none" stroke="midnightblue" d="M247.473,-116.485C288.662,-107.521 349.633,-94.1822 411.962,-80.2202"/>
<polygon fill="midnightblue" stroke="midnightblue" points="412.982,-83.5783 421.974,-77.9746 411.45,-76.748 412.982,-83.5783"/>
</g>
<!-- Node8 -->
<g id="node15" class="node"><title>Node8</title>
<polygon fill="white" stroke="#bfbfbf" points="310,-0.5 310,-21.5 366,-21.5 366,-0.5 310,-0.5"/>
<text text-anchor="middle" x="338" y="-8.5" font-family="DejaVuSans" font-size="10.00">QPrinter</text>
</g>
<!-- Node7&#45;&gt;Node8 -->
<g id="edge14" class="edge"><title>Node7&#45;&gt;Node8</title>
<path fill="none" stroke="midnightblue" d="M438.726,-58.4966C419.428,-49.397 391.287,-36.1273 369.652,-25.9253"/>
<polygon fill="midnightblue" stroke="midnightblue" points="371.062,-22.7206 360.524,-21.6212 368.076,-29.052 371.062,-22.7206"/>
</g>
<!-- Node9 -->
<g id="node17" class="node"><title>Node9</title>
<polygon fill="white" stroke="#bfbfbf" points="383.5,-0.5 383.5,-21.5 432.5,-21.5 432.5,-0.5 383.5,-0.5"/>
<text text-anchor="middle" x="408" y="-8.5" font-family="DejaVuSans" font-size="10.00">QColor</text>
</g>
<!-- Node7&#45;&gt;Node9 -->
<g id="edge16" class="edge"><title>Node7&#45;&gt;Node9</title>
<path fill="none" stroke="midnightblue" d="M451.279,-58.3619C443.808,-50.1861 433.314,-38.7025 424.531,-29.0907"/>
<polygon fill="midnightblue" stroke="midnightblue" points="426.989,-26.5918 417.659,-21.5707 421.821,-31.3138 426.989,-26.5918"/>
</g>
<!-- Node10 -->
<g id="node19" class="node"><title>Node10</title>
<polygon fill="white" stroke="#bfbfbf" points="450,-0.5 450,-21.5 576,-21.5 576,-0.5 450,-0.5"/>
<text text-anchor="middle" x="513" y="-8.5" font-family="DejaVuSans" font-size="10.00">Calc/CalcAdvantages.h</text>
</g>
<!-- Node7&#45;&gt;Node10 -->
<g id="edge18" class="edge"><title>Node7&#45;&gt;Node10</title>
<path fill="none" stroke="midnightblue" d="M470.538,-58.3619C477.868,-50.1861 488.163,-38.7025 496.781,-29.0907"/>
<polygon fill="midnightblue" stroke="midnightblue" points="499.453,-31.3528 503.523,-21.5707 494.241,-26.68 499.453,-31.3528"/>
</g>
<!-- Node11 -->
<g id="node21" class="node"><title>Node11</title>
<polygon fill="white" stroke="#bfbfbf" points="593.5,-0.5 593.5,-21.5 648.5,-21.5 648.5,-0.5 593.5,-0.5"/>
<text text-anchor="middle" x="621" y="-8.5" font-family="DejaVuSans" font-size="10.00">QObject</text>
</g>
<!-- Node7&#45;&gt;Node11 -->
<g id="edge20" class="edge"><title>Node7&#45;&gt;Node11</title>
<path fill="none" stroke="midnightblue" d="M489.975,-58.4966C516.236,-48.9769 555.087,-34.8933 583.668,-24.5329"/>
<polygon fill="midnightblue" stroke="midnightblue" points="585.103,-27.7357 593.311,-21.0371 582.717,-21.1547 585.103,-27.7357"/>
</g>
</g>
</svg>
