<?xml version="1.0" encoding="UTF-8" standalone="no"?>
<!DOCTYPE svg PUBLIC "-//W3C//DTD SVG 1.1//EN"
 "http://www.w3.org/Graphics/SVG/1.1/DTD/svg11.dtd">
<!-- Generated by graphviz version 2.26.3 (20100126.1600)
 -->
<!-- Title: G Pages: 1 -->
<svg width="1160pt" height="436pt"
 viewBox="0.00 0.00 1160.08 436.00" xmlns="http://www.w3.org/2000/svg" xmlns:xlink="http://www.w3.org/1999/xlink">
<g id="graph1" class="graph" transform="scale(1 1) rotate(0) translate(4 432)">
<title>G</title>
<polygon fill="white" stroke="white" points="-4,5 -4,-432 1157.08,-432 1157.08,5 -4,5"/>
<!-- Node1 -->
<g id="node1" class="node"><title>Node1</title>
<polygon fill="#bfbfbf" stroke="black" points="732.079,-406.5 732.079,-427.5 854.079,-427.5 854.079,-406.5 732.079,-406.5"/>
<text text-anchor="middle" x="793.079" y="-414.5" font-family="DejaVuSans" font-size="10.00">src/Draw/DrawSheet.h</text>
</g>
<!-- Node2 -->
<g id="node3" class="node"><title>Node2</title>
<polygon fill="white" stroke="#bfbfbf" points="633.079,-348.5 633.079,-369.5 689.079,-369.5 689.079,-348.5 633.079,-348.5"/>
<text text-anchor="middle" x="661.079" y="-356.5" font-family="DejaVuSans" font-size="10.00">QPrinter</text>
</g>
<!-- Node1&#45;&gt;Node2 -->
<g id="edge2" class="edge"><title>Node1&#45;&gt;Node2</title>
<path fill="none" stroke="midnightblue" d="M769.175,-406.497C748.28,-397.315 717.723,-383.889 694.424,-373.652"/>
<polygon fill="midnightblue" stroke="midnightblue" points="695.815,-370.44 685.252,-369.621 692.999,-376.848 695.815,-370.44"/>
</g>
<!-- Node3 -->
<g id="node5" class="node"><title>Node3</title>
<polygon fill="white" stroke="#bfbfbf" points="1008.58,-232.5 1008.58,-253.5 1057.58,-253.5 1057.58,-232.5 1008.58,-232.5"/>
<text text-anchor="middle" x="1033.08" y="-240.5" font-family="DejaVuSans" font-size="10.00">QColor</text>
</g>
<!-- Node1&#45;&gt;Node3 -->
<g id="edge4" class="edge"><title>Node1&#45;&gt;Node3</title>
<path fill="none" stroke="midnightblue" d="M849.606,-406.434C892.233,-397.565 946.291,-384.112 964.079,-370 968.754,-366.292 1004.58,-297.973 1022.68,-263.11"/>
<polygon fill="midnightblue" stroke="midnightblue" points="1025.98,-264.347 1027.48,-253.858 1019.77,-261.126 1025.98,-264.347"/>
</g>
<!-- Node4 -->
<g id="node7" class="node"><title>Node4</title>
<a xlink:href="_storage_character_8h.html" target="_top" xlink:title="../Storage/StorageCharacter.h">
<polygon fill="white" stroke="black" points="533.579,-290.5 533.579,-311.5 694.579,-311.5 694.579,-290.5 533.579,-290.5"/>
<text text-anchor="middle" x="614.079" y="-298.5" font-family="DejaVuSans" font-size="10.00">../Storage/StorageCharacter.h</text>
</a>
</g>
<!-- Node1&#45;&gt;Node4 -->
<g id="edge6" class="edge"><title>Node1&#45;&gt;Node4</title>
<path fill="none" stroke="midnightblue" d="M779.591,-406.422C761.488,-392.409 728.129,-367.224 698.079,-348 680.429,-336.708 659.916,-325.202 643.58,-316.4"/>
<polygon fill="midnightblue" stroke="midnightblue" points="644.968,-313.174 634.498,-311.553 641.672,-319.349 644.968,-313.174"/>
</g>
<!-- Node13 -->
<g id="node32" class="node"><title>Node13</title>
<a xlink:href="cv___species_8h.html" target="_top" xlink:title="cv_Species.h">
<polygon fill="white" stroke="black" points="646.579,-58.5 646.579,-79.5 725.579,-79.5 725.579,-58.5 646.579,-58.5"/>
<text text-anchor="middle" x="686.079" y="-66.5" font-family="DejaVuSans" font-size="10.00">cv_Species.h</text>
</a>
</g>
<!-- Node1&#45;&gt;Node13 -->
<g id="edge102" class="edge"><title>Node1&#45;&gt;Node13</title>
<path fill="none" stroke="midnightblue" d="M793.079,-406.444C793.079,-386.062 793.079,-339.868 793.079,-301 793.079,-301 793.079,-301 793.079,-185 793.079,-153.192 793.943,-140.843 774.079,-116 762.506,-101.525 745.234,-90.9398 729.049,-83.521"/>
<polygon fill="midnightblue" stroke="midnightblue" points="730.266,-80.2349 719.696,-79.5134 727.509,-86.6691 730.266,-80.2349"/>
</g>
<!-- Node19 -->
<g id="node59" class="node"><title>Node19</title>
<polygon fill="white" stroke="#bfbfbf" points="622.579,-174.5 622.579,-195.5 677.579,-195.5 677.579,-174.5 622.579,-174.5"/>
<text text-anchor="middle" x="650.079" y="-182.5" font-family="DejaVuSans" font-size="10.00">QObject</text>
</g>
<!-- Node1&#45;&gt;Node19 -->
<g id="edge106" class="edge"><title>Node1&#45;&gt;Node19</title>
<path fill="none" stroke="midnightblue" d="M786.563,-406.429C764.276,-370.271 690.875,-251.186 661.948,-204.255"/>
<polygon fill="midnightblue" stroke="midnightblue" points="664.86,-202.31 656.634,-195.634 658.901,-205.983 664.86,-202.31"/>
</g>
<!-- Node20 -->
<g id="node62" class="node"><title>Node20</title>
<a xlink:href="_calc_advantages_8h.html" target="_top" xlink:title="../Calc/CalcAdvantages.h">
<polygon fill="white" stroke="black" points="820.579,-348.5 820.579,-369.5 955.579,-369.5 955.579,-348.5 820.579,-348.5"/>
<text text-anchor="middle" x="888.079" y="-356.5" font-family="DejaVuSans" font-size="10.00">../Calc/CalcAdvantages.h</text>
</a>
</g>
<!-- Node1&#45;&gt;Node20 -->
<g id="edge84" class="edge"><title>Node1&#45;&gt;Node20</title>
<path fill="none" stroke="midnightblue" d="M810.504,-406.362C824.967,-397.532 845.749,-384.844 862.163,-374.822"/>
<polygon fill="midnightblue" stroke="midnightblue" points="864.054,-377.769 870.765,-369.571 860.407,-371.794 864.054,-377.769"/>
</g>
<!-- Node23 -->
<g id="node71" class="node"><title>Node23</title>
<a xlink:href="cv___shape_8h.html" target="_top" xlink:title="../Datatypes/cv_Shape.h">
<polygon fill="white" stroke="black" points="1018.08,-290.5 1018.08,-311.5 1152.08,-311.5 1152.08,-290.5 1018.08,-290.5"/>
<text text-anchor="middle" x="1085.08" y="-298.5" font-family="DejaVuSans" font-size="10.00">../Datatypes/cv_Shape.h</text>
</a>
</g>
<!-- Node1&#45;&gt;Node23 -->
<g id="edge104" class="edge"><title>Node1&#45;&gt;Node23</title>
<path fill="none" stroke="midnightblue" d="M854.355,-411.295C897.94,-405.381 956.887,-393.521 1004.08,-370 1029.42,-357.369 1053.46,-335.127 1068.66,-319.311"/>
<polygon fill="midnightblue" stroke="midnightblue" points="1071.5,-321.406 1075.77,-311.711 1066.38,-316.624 1071.5,-321.406"/>
</g>
<!-- Node5 -->
<g id="node9" class="node"><title>Node5</title>
<a xlink:href="cv___identity_8h.html" target="_top" xlink:title="../Datatypes/cv_Identity.h">
<polygon fill="white" stroke="black" points="14.5794,-116.5 14.5794,-137.5 151.579,-137.5 151.579,-116.5 14.5794,-116.5"/>
<text text-anchor="middle" x="83.0794" y="-124.5" font-family="DejaVuSans" font-size="10.00">../Datatypes/cv_Identity.h</text>
</a>
</g>
<!-- Node4&#45;&gt;Node5 -->
<g id="edge8" class="edge"><title>Node4&#45;&gt;Node5</title>
<path fill="none" stroke="midnightblue" d="M533.391,-295.323C403.879,-284.511 158.04,-256.436 98.0794,-196 85.643,-183.465 82.4527,-163.192 82.0409,-147.857"/>
<polygon fill="midnightblue" stroke="midnightblue" points="85.5417,-147.778 82.1396,-137.744 78.542,-147.709 85.5417,-147.778"/>
</g>
<!-- Node9 -->
<g id="node19" class="node"><title>Node9</title>
<a xlink:href="cv___identity_list_8h.html" target="_top" xlink:title="../Datatypes/cv_IdentityList.h">
<polygon fill="white" stroke="black" points="106.579,-174.5 106.579,-195.5 261.579,-195.5 261.579,-174.5 106.579,-174.5"/>
<text text-anchor="middle" x="184.079" y="-182.5" font-family="DejaVuSans" font-size="10.00">../Datatypes/cv_IdentityList.h</text>
</a>
</g>
<!-- Node4&#45;&gt;Node9 -->
<g id="edge20" class="edge"><title>Node4&#45;&gt;Node9</title>
<path fill="none" stroke="midnightblue" d="M572.93,-290.429C536.418,-281.008 481.648,-266.774 434.079,-254 363.496,-235.045 281.914,-212.388 231.657,-198.343"/>
<polygon fill="midnightblue" stroke="midnightblue" points="232.303,-194.889 221.73,-195.567 230.418,-201.631 232.303,-194.889"/>
</g>
<!-- Node11 -->
<g id="node25" class="node"><title>Node11</title>
<a xlink:href="cv___trait_8h.html" target="_top" xlink:title="../Datatypes/cv_Trait.h">
<polygon fill="white" stroke="black" points="435.079,-174.5 435.079,-195.5 557.079,-195.5 557.079,-174.5 435.079,-174.5"/>
<text text-anchor="middle" x="496.079" y="-182.5" font-family="DejaVuSans" font-size="10.00">../Datatypes/cv_Trait.h</text>
</a>
</g>
<!-- Node4&#45;&gt;Node11 -->
<g id="edge28" class="edge"><title>Node4&#45;&gt;Node11</title>
<path fill="none" stroke="midnightblue" d="M606.462,-290.042C596.31,-275.834 577.373,-250.665 558.079,-232 546.63,-220.924 532.571,-210.078 520.737,-201.601"/>
<polygon fill="midnightblue" stroke="midnightblue" points="522.399,-198.491 512.202,-195.616 518.38,-204.223 522.399,-198.491"/>
</g>
<!-- Node16 -->
<g id="node45" class="node"><title>Node16</title>
<a xlink:href="cv___derangement_8h.html" target="_top" xlink:title="../Datatypes/cv_Derangement.h">
<polygon fill="white" stroke="black" points="822.079,-174.5 822.079,-195.5 992.079,-195.5 992.079,-174.5 822.079,-174.5"/>
<text text-anchor="middle" x="907.079" y="-182.5" font-family="DejaVuSans" font-size="10.00">../Datatypes/cv_Derangement.h</text>
</a>
</g>
<!-- Node4&#45;&gt;Node16 -->
<g id="edge58" class="edge"><title>Node4&#45;&gt;Node16</title>
<path fill="none" stroke="midnightblue" d="M640.858,-290.398C693.717,-269.471 811.498,-222.841 871.081,-199.252"/>
<polygon fill="midnightblue" stroke="midnightblue" points="872.46,-202.471 880.469,-195.535 869.883,-195.962 872.46,-202.471"/>
</g>
<!-- Node17 -->
<g id="node50" class="node"><title>Node17</title>
<a xlink:href="_storage_template_8h.html" target="_top" xlink:title="StorageTemplate.h">
<polygon fill="white" stroke="black" points="442.579,-232.5 442.579,-253.5 549.579,-253.5 549.579,-232.5 442.579,-232.5"/>
<text text-anchor="middle" x="496.079" y="-240.5" font-family="DejaVuSans" font-size="10.00">StorageTemplate.h</text>
</a>
</g>
<!-- Node4&#45;&gt;Node17 -->
<g id="edge66" class="edge"><title>Node4&#45;&gt;Node17</title>
<path fill="none" stroke="midnightblue" d="M592.711,-290.497C574.28,-281.438 547.442,-268.246 526.724,-258.063"/>
<polygon fill="midnightblue" stroke="midnightblue" points="528.207,-254.891 517.688,-253.621 525.119,-261.174 528.207,-254.891"/>
</g>
<!-- Node4&#45;&gt;Node19 -->
<g id="edge82" class="edge"><title>Node4&#45;&gt;Node19</title>
<path fill="none" stroke="midnightblue" d="M617.402,-290.295C623.376,-271.045 636.024,-230.289 643.715,-205.509"/>
<polygon fill="midnightblue" stroke="midnightblue" points="647.144,-206.267 646.765,-195.679 640.458,-204.192 647.144,-206.267"/>
</g>
<!-- Node6 -->
<g id="node11" class="node"><title>Node6</title>
<polygon fill="white" stroke="#bfbfbf" points="53.5794,-0.5 53.5794,-21.5 122.579,-21.5 122.579,-0.5 53.5794,-0.5"/>
<text text-anchor="middle" x="88.0794" y="-8.5" font-family="DejaVuSans" font-size="10.00">QStringList</text>
</g>
<!-- Node5&#45;&gt;Node6 -->
<g id="edge10" class="edge"><title>Node5&#45;&gt;Node6</title>
<path fill="none" stroke="midnightblue" d="M70.1767,-116.469C55.7396,-103.319 35.4343,-79.8843 44.0794,-58 48.607,-46.5388 57.3956,-36.2323 65.9354,-28.2117"/>
<polygon fill="midnightblue" stroke="midnightblue" points="68.3597,-30.7411 73.5786,-21.5208 63.7489,-25.474 68.3597,-30.7411"/>
</g>
<!-- Node7 -->
<g id="node13" class="node"><title>Node7</title>
<polygon fill="white" stroke="#bfbfbf" points="586.579,-0.5 586.579,-21.5 639.579,-21.5 639.579,-0.5 586.579,-0.5"/>
<text text-anchor="middle" x="613.079" y="-8.5" font-family="DejaVuSans" font-size="10.00">QString</text>
</g>
<!-- Node5&#45;&gt;Node7 -->
<g id="edge12" class="edge"><title>Node5&#45;&gt;Node7</title>
<path fill="none" stroke="midnightblue" d="M93.222,-116.375C109.034,-100.573 141.27,-71.3159 175.079,-58 247.976,-29.2891 484.748,-16.4295 576.389,-12.439"/>
<polygon fill="midnightblue" stroke="midnightblue" points="576.73,-15.9278 586.573,-12.0063 576.433,-8.9341 576.73,-15.9278"/>
</g>
<!-- Node8 -->
<g id="node15" class="node"><title>Node8</title>
<a xlink:href="cv___name_8h.html" target="_top" xlink:title="cv_Name.h">
<polygon fill="white" stroke="black" points="52.5794,-58.5 52.5794,-79.5 123.579,-79.5 123.579,-58.5 52.5794,-58.5"/>
<text text-anchor="middle" x="88.0794" y="-66.5" font-family="DejaVuSans" font-size="10.00">cv_Name.h</text>
</a>
</g>
<!-- Node5&#45;&gt;Node8 -->
<g id="edge14" class="edge"><title>Node5&#45;&gt;Node8</title>
<path fill="none" stroke="midnightblue" d="M83.9965,-116.362C84.6379,-108.922 85.5154,-98.7427 86.2926,-89.7276"/>
<polygon fill="midnightblue" stroke="midnightblue" points="89.7963,-89.8343 87.1682,-79.5707 82.8221,-89.2331 89.7963,-89.8343"/>
</g>
<!-- Node8&#45;&gt;Node6 -->
<g id="edge16" class="edge"><title>Node8&#45;&gt;Node6</title>
<path fill="none" stroke="midnightblue" d="M88.0794,-58.3619C88.0794,-50.9219 88.0794,-40.7427 88.0794,-31.7276"/>
<polygon fill="midnightblue" stroke="midnightblue" points="91.5795,-31.5706 88.0794,-21.5707 84.5795,-31.5707 91.5795,-31.5706"/>
</g>
<!-- Node8&#45;&gt;Node7 -->
<g id="edge18" class="edge"><title>Node8&#45;&gt;Node7</title>
<path fill="none" stroke="midnightblue" d="M123.841,-60.441C128.284,-59.5348 132.776,-58.6929 137.079,-58 299.692,-31.8202 496.064,-17.9941 576.268,-13.0943"/>
<polygon fill="midnightblue" stroke="midnightblue" points="576.582,-16.5818 586.354,-12.488 576.162,-9.59443 576.582,-16.5818"/>
</g>
<!-- Node9&#45;&gt;Node5 -->
<g id="edge24" class="edge"><title>Node9&#45;&gt;Node5</title>
<path fill="none" stroke="midnightblue" d="M165.554,-174.362C150.178,-165.532 128.084,-152.844 110.632,-142.822"/>
<polygon fill="midnightblue" stroke="midnightblue" points="111.902,-139.515 101.487,-137.571 108.416,-145.586 111.902,-139.515"/>
</g>
<!-- Node9&#45;&gt;Node7 -->
<g id="edge22" class="edge"><title>Node9&#45;&gt;Node7</title>
<path fill="none" stroke="midnightblue" d="M185.293,-174.314C188.747,-149.343 201.049,-87.0854 240.079,-58 266.765,-38.1138 487.692,-20.0814 576.412,-13.5718"/>
<polygon fill="midnightblue" stroke="midnightblue" points="576.834,-17.0504 586.554,-12.8357 576.327,-10.0688 576.834,-17.0504"/>
</g>
<!-- Node10 -->
<g id="node23" class="node"><title>Node10</title>
<polygon fill="white" stroke="#bfbfbf" points="248.579,-58.5 248.579,-79.5 289.579,-79.5 289.579,-58.5 248.579,-58.5"/>
<text text-anchor="middle" x="269.079" y="-66.5" font-family="DejaVuSans" font-size="10.00">QList</text>
</g>
<!-- Node9&#45;&gt;Node10 -->
<g id="edge26" class="edge"><title>Node9&#45;&gt;Node10</title>
<path fill="none" stroke="midnightblue" d="M191.924,-174.295C206.345,-154.613 237.241,-112.45 255.255,-87.8668"/>
<polygon fill="midnightblue" stroke="midnightblue" points="258.167,-89.8142 261.254,-79.6792 252.52,-85.6768 258.167,-89.8142"/>
</g>
<!-- Node11&#45;&gt;Node6 -->
<g id="edge36" class="edge"><title>Node11&#45;&gt;Node6</title>
<path fill="none" stroke="midnightblue" d="M434.857,-175.042C406.892,-168.175 374.615,-156.765 350.079,-138 316.396,-112.237 332.903,-82.1995 298.079,-58 271.707,-39.6735 186.047,-24.765 132.624,-16.9488"/>
<polygon fill="midnightblue" stroke="midnightblue" points="133.117,-13.4838 122.721,-15.527 132.122,-20.4127 133.117,-13.4838"/>
</g>
<!-- Node11&#45;&gt;Node7 -->
<g id="edge32" class="edge"><title>Node11&#45;&gt;Node7</title>
<path fill="none" stroke="midnightblue" d="M503.222,-174.377C522.432,-145.809 575.413,-67.017 600.102,-30.2999"/>
<polygon fill="midnightblue" stroke="midnightblue" points="603.056,-32.1792 605.731,-21.9277 597.247,-28.2732 603.056,-32.1792"/>
</g>
<!-- Node11&#45;&gt;Node10 -->
<g id="edge34" class="edge"><title>Node11&#45;&gt;Node10</title>
<path fill="none" stroke="midnightblue" d="M438.691,-174.417C394.12,-165.383 336.701,-151.71 317.079,-138 299.417,-125.659 286.161,-104.599 278.104,-88.9839"/>
<polygon fill="midnightblue" stroke="midnightblue" points="281.088,-87.1167 273.566,-79.6552 274.793,-90.1788 281.088,-87.1167"/>
</g>
<!-- Node12 -->
<g id="node27" class="node"><title>Node12</title>
<polygon fill="white" stroke="#bfbfbf" points="464.579,-116.5 464.579,-137.5 513.579,-137.5 513.579,-116.5 464.579,-116.5"/>
<text text-anchor="middle" x="489.079" y="-124.5" font-family="DejaVuSans" font-size="10.00">QFlags</text>
</g>
<!-- Node11&#45;&gt;Node12 -->
<g id="edge30" class="edge"><title>Node11&#45;&gt;Node12</title>
<path fill="none" stroke="midnightblue" d="M494.796,-174.362C493.898,-166.922 492.669,-156.743 491.581,-147.728"/>
<polygon fill="midnightblue" stroke="midnightblue" points="495.028,-147.079 490.355,-137.571 488.079,-147.918 495.028,-147.079"/>
</g>
<!-- Node11&#45;&gt;Node13 -->
<g id="edge38" class="edge"><title>Node11&#45;&gt;Node13</title>
<path fill="none" stroke="midnightblue" d="M510.629,-174.451C530.14,-160.47 566.04,-135.321 598.079,-116 616.851,-104.68 638.571,-93.0651 655.735,-84.2139"/>
<polygon fill="midnightblue" stroke="midnightblue" points="657.446,-87.2704 664.755,-79.6004 654.258,-81.0383 657.446,-87.2704"/>
</g>
<!-- Node14 -->
<g id="node35" class="node"><title>Node14</title>
<a xlink:href="cv___trait_detail_8h.html" target="_top" xlink:title="cv_TraitDetail.h">
<polygon fill="white" stroke="black" points="358.579,-116.5 358.579,-137.5 447.579,-137.5 447.579,-116.5 358.579,-116.5"/>
<text text-anchor="middle" x="403.079" y="-124.5" font-family="DejaVuSans" font-size="10.00">cv_TraitDetail.h</text>
</a>
</g>
<!-- Node11&#45;&gt;Node14 -->
<g id="edge42" class="edge"><title>Node11&#45;&gt;Node14</title>
<path fill="none" stroke="midnightblue" d="M479.022,-174.362C464.995,-165.614 444.895,-153.079 428.897,-143.101"/>
<polygon fill="midnightblue" stroke="midnightblue" points="430.366,-139.893 420.029,-137.571 426.662,-145.832 430.366,-139.893"/>
</g>
<!-- Node15 -->
<g id="node41" class="node"><title>Node15</title>
<a xlink:href="cv___abstract_trait_8h.html" target="_top" xlink:title="cv_AbstractTrait.h">
<polygon fill="white" stroke="black" points="858.579,-116.5 858.579,-137.5 959.579,-137.5 959.579,-116.5 858.579,-116.5"/>
<text text-anchor="middle" x="909.079" y="-124.5" font-family="DejaVuSans" font-size="10.00">cv_AbstractTrait.h</text>
</a>
</g>
<!-- Node11&#45;&gt;Node15 -->
<g id="edge52" class="edge"><title>Node11&#45;&gt;Node15</title>
<path fill="none" stroke="midnightblue" d="M557.464,-176.379C635.742,-165.386 770.274,-146.493 848.274,-135.539"/>
<polygon fill="midnightblue" stroke="midnightblue" points="849.012,-138.97 858.428,-134.113 848.038,-132.038 849.012,-138.97"/>
</g>
<!-- Node13&#45;&gt;Node7 -->
<g id="edge40" class="edge"><title>Node13&#45;&gt;Node7</title>
<path fill="none" stroke="midnightblue" d="M672.69,-58.3619C661.988,-49.859 646.783,-37.7785 634.409,-27.9466"/>
<polygon fill="midnightblue" stroke="midnightblue" points="636.391,-25.0511 626.384,-21.5707 632.036,-30.5318 636.391,-25.0511"/>
</g>
<!-- Node14&#45;&gt;Node6 -->
<g id="edge48" class="edge"><title>Node14&#45;&gt;Node6</title>
<path fill="none" stroke="midnightblue" d="M397.368,-116.367C388.424,-100.83 369.571,-72.2296 345.079,-58 309.693,-37.4404 196.496,-22.5122 132.768,-15.492"/>
<polygon fill="midnightblue" stroke="midnightblue" points="132.925,-11.9886 122.606,-14.3934 132.172,-18.9481 132.925,-11.9886"/>
</g>
<!-- Node14&#45;&gt;Node7 -->
<g id="edge44" class="edge"><title>Node14&#45;&gt;Node7</title>
<path fill="none" stroke="midnightblue" d="M421.962,-116.434C446.25,-102.857 489.758,-78.5819 527.079,-58 546.135,-47.4911 567.616,-35.7514 584.343,-26.6338"/>
<polygon fill="midnightblue" stroke="midnightblue" points="586.48,-29.4551 593.588,-21.5976 583.132,-23.308 586.48,-29.4551"/>
</g>
<!-- Node14&#45;&gt;Node10 -->
<g id="edge46" class="edge"><title>Node14&#45;&gt;Node10</title>
<path fill="none" stroke="midnightblue" d="M378.813,-116.497C356.408,-106.799 323.061,-92.365 299.011,-81.9556"/>
<polygon fill="midnightblue" stroke="midnightblue" points="300.221,-78.6655 289.654,-77.9052 297.44,-85.0895 300.221,-78.6655"/>
</g>
<!-- Node14&#45;&gt;Node13 -->
<g id="edge50" class="edge"><title>Node14&#45;&gt;Node13</title>
<path fill="none" stroke="midnightblue" d="M447.61,-117.747C450.476,-117.155 453.318,-116.569 456.079,-116 518.185,-103.209 589.754,-88.6059 636.345,-79.1174"/>
<polygon fill="midnightblue" stroke="midnightblue" points="637.083,-82.539 646.183,-77.114 635.686,-75.6797 637.083,-82.539"/>
</g>
<!-- Node15&#45;&gt;Node7 -->
<g id="edge54" class="edge"><title>Node15&#45;&gt;Node7</title>
<path fill="none" stroke="midnightblue" d="M882.413,-116.437C848.115,-102.863 786.693,-78.5904 734.079,-58 705.674,-46.8835 673.481,-34.3835 649.446,-25.0705"/>
<polygon fill="midnightblue" stroke="midnightblue" points="650.596,-21.7628 640.007,-21.4146 648.068,-28.2902 650.596,-21.7628"/>
</g>
<!-- Node15&#45;&gt;Node13 -->
<g id="edge56" class="edge"><title>Node15&#45;&gt;Node13</title>
<path fill="none" stroke="midnightblue" d="M868.696,-116.497C831.322,-106.776 775.654,-92.2974 735.611,-81.8826"/>
<polygon fill="midnightblue" stroke="midnightblue" points="736.347,-78.4576 725.788,-79.3277 734.585,-85.2322 736.347,-78.4576"/>
</g>
<!-- Node16&#45;&gt;Node7 -->
<g id="edge60" class="edge"><title>Node16&#45;&gt;Node7</title>
<path fill="none" stroke="midnightblue" d="M928.19,-174.483C951.707,-161.348 984.411,-137.928 968.079,-116 929.469,-64.1581 732.366,-28.9596 649.673,-16.2558"/>
<polygon fill="midnightblue" stroke="midnightblue" points="650.122,-12.7841 639.711,-14.7497 649.076,-19.7055 650.122,-12.7841"/>
</g>
<!-- Node16&#45;&gt;Node13 -->
<g id="edge62" class="edge"><title>Node16&#45;&gt;Node13</title>
<path fill="none" stroke="midnightblue" d="M893.813,-174.337C875.245,-159.773 840.069,-133.479 807.079,-116 782.163,-102.798 752.697,-91.2733 729.081,-82.9403"/>
<polygon fill="midnightblue" stroke="midnightblue" points="729.943,-79.535 719.348,-79.5688 727.652,-86.1494 729.943,-79.535"/>
</g>
<!-- Node16&#45;&gt;Node15 -->
<g id="edge64" class="edge"><title>Node16&#45;&gt;Node15</title>
<path fill="none" stroke="midnightblue" d="M907.446,-174.362C907.703,-166.922 908.054,-156.743 908.365,-147.728"/>
<polygon fill="midnightblue" stroke="midnightblue" points="911.868,-147.685 908.715,-137.571 904.872,-147.444 911.868,-147.685"/>
</g>
<!-- Node17&#45;&gt;Node6 -->
<g id="edge70" class="edge"><title>Node17&#45;&gt;Node6</title>
<path fill="none" stroke="midnightblue" d="M442.414,-239.609C348.948,-233.216 160.312,-218.015 98.0794,-196 52.5105,-179.879 29.4289,-180.323 6.07942,-138 -16.5182,-97.0402 32.1034,-51.551 63.725,-27.6961"/>
<polygon fill="midnightblue" stroke="midnightblue" points="66.1097,-30.2885 72.1198,-21.5632 61.9804,-24.6361 66.1097,-30.2885"/>
</g>
<!-- Node17&#45;&gt;Node9 -->
<g id="edge74" class="edge"><title>Node17&#45;&gt;Node9</title>
<path fill="none" stroke="midnightblue" d="M442.445,-233.029C389.356,-223.16 307.95,-208.027 250.733,-197.391"/>
<polygon fill="midnightblue" stroke="midnightblue" points="251.172,-193.912 240.7,-195.526 249.892,-200.794 251.172,-193.912"/>
</g>
<!-- Node17&#45;&gt;Node10 -->
<g id="edge68" class="edge"><title>Node17&#45;&gt;Node10</title>
<path fill="none" stroke="midnightblue" d="M456.182,-232.446C410.317,-218.326 335.758,-188.961 292.079,-138 280.424,-124.401 274.623,-104.689 271.768,-89.8124"/>
<polygon fill="midnightblue" stroke="midnightblue" points="275.162,-88.8736 270.11,-79.5605 268.251,-89.991 275.162,-88.8736"/>
</g>
<!-- Node17&#45;&gt;Node11 -->
<g id="edge72" class="edge"><title>Node17&#45;&gt;Node11</title>
<path fill="none" stroke="midnightblue" d="M496.079,-232.362C496.079,-224.922 496.079,-214.743 496.079,-205.728"/>
<polygon fill="midnightblue" stroke="midnightblue" points="499.58,-205.571 496.079,-195.571 492.58,-205.571 499.58,-205.571"/>
</g>
<!-- Node18 -->
<g id="node56" class="node"><title>Node18</title>
<a xlink:href="cv___super_effect_8h.html" target="_top" xlink:title="../Datatypes/cv_SuperEffect.h">
<polygon fill="white" stroke="black" points="607.079,-116.5 607.079,-137.5 765.079,-137.5 765.079,-116.5 607.079,-116.5"/>
<text text-anchor="middle" x="686.079" y="-124.5" font-family="DejaVuSans" font-size="10.00">../Datatypes/cv_SuperEffect.h</text>
</a>
</g>
<!-- Node17&#45;&gt;Node18 -->
<g id="edge76" class="edge"><title>Node17&#45;&gt;Node18</title>
<path fill="none" stroke="midnightblue" d="M513.614,-232.295C547.208,-211.785 620.792,-166.859 660.106,-142.857"/>
<polygon fill="midnightblue" stroke="midnightblue" points="662.151,-145.71 668.862,-137.512 658.503,-139.735 662.151,-145.71"/>
</g>
<!-- Node17&#45;&gt;Node19 -->
<g id="edge80" class="edge"><title>Node17&#45;&gt;Node19</title>
<path fill="none" stroke="midnightblue" d="M523.968,-232.497C548.825,-223.135 585.402,-209.359 612.771,-199.051"/>
<polygon fill="midnightblue" stroke="midnightblue" points="614.274,-202.225 622.399,-195.425 611.807,-195.674 614.274,-202.225"/>
</g>
<!-- Node18&#45;&gt;Node13 -->
<g id="edge78" class="edge"><title>Node18&#45;&gt;Node13</title>
<path fill="none" stroke="midnightblue" d="M686.079,-116.362C686.079,-108.922 686.079,-98.7427 686.079,-89.7276"/>
<polygon fill="midnightblue" stroke="midnightblue" points="689.58,-89.5706 686.079,-79.5707 682.58,-89.5707 689.58,-89.5706"/>
</g>
<!-- Node20&#45;&gt;Node4 -->
<g id="edge86" class="edge"><title>Node20&#45;&gt;Node4</title>
<path fill="none" stroke="midnightblue" d="M838.46,-348.497C792.147,-338.693 722.969,-324.05 673.681,-313.616"/>
<polygon fill="midnightblue" stroke="midnightblue" points="674.3,-310.17 663.792,-311.523 672.85,-317.018 674.3,-310.17"/>
</g>
<!-- Node20&#45;&gt;Node19 -->
<g id="edge100" class="edge"><title>Node20&#45;&gt;Node19</title>
<path fill="none" stroke="midnightblue" d="M880.662,-348.304C863.576,-324.378 819.056,-265.973 769.079,-232 744.054,-214.988 711.964,-202.772 687.415,-195.066"/>
<polygon fill="midnightblue" stroke="midnightblue" points="688.321,-191.683 677.736,-192.136 686.294,-198.383 688.321,-191.683"/>
</g>
<!-- Node21 -->
<g id="node65" class="node"><title>Node21</title>
<a xlink:href="_config_8h.html" target="_top" xlink:title="../Config/Config.h">
<polygon fill="white" stroke="black" points="864.079,-290.5 864.079,-311.5 962.079,-311.5 962.079,-290.5 864.079,-290.5"/>
<text text-anchor="middle" x="913.079" y="-298.5" font-family="DejaVuSans" font-size="10.00">../Config/Config.h</text>
</a>
</g>
<!-- Node20&#45;&gt;Node21 -->
<g id="edge88" class="edge"><title>Node20&#45;&gt;Node21</title>
<path fill="none" stroke="midnightblue" d="M892.665,-348.362C895.977,-340.677 900.55,-330.069 904.528,-320.84"/>
<polygon fill="midnightblue" stroke="midnightblue" points="907.779,-322.139 908.523,-311.571 901.351,-319.368 907.779,-322.139"/>
</g>
<!-- Node20&#45;&gt;Node23 -->
<g id="edge96" class="edge"><title>Node20&#45;&gt;Node23</title>
<path fill="none" stroke="midnightblue" d="M923.755,-348.497C956.149,-338.959 1004.1,-324.841 1039.31,-314.475"/>
<polygon fill="midnightblue" stroke="midnightblue" points="1040.73,-317.705 1049.34,-311.523 1038.76,-310.99 1040.73,-317.705"/>
</g>
<!-- Node21&#45;&gt;Node3 -->
<g id="edge92" class="edge"><title>Node21&#45;&gt;Node3</title>
<path fill="none" stroke="midnightblue" d="M934.811,-290.497C953.553,-281.438 980.846,-268.246 1001.92,-258.063"/>
<polygon fill="midnightblue" stroke="midnightblue" points="1003.62,-261.124 1011.1,-253.621 1000.58,-254.822 1003.62,-261.124"/>
</g>
<!-- Node21&#45;&gt;Node7 -->
<g id="edge90" class="edge"><title>Node21&#45;&gt;Node7</title>
<path fill="none" stroke="midnightblue" d="M926.837,-290.234C947.628,-272.984 986.205,-236.905 1001.08,-196 1013.5,-161.839 1005.84,-145.118 984.079,-116 955.595,-77.8801 938.461,-75.1678 894.079,-58 810.61,-25.7126 704.758,-15.5871 649.86,-12.4251"/>
<polygon fill="midnightblue" stroke="midnightblue" points="649.752,-8.91457 639.581,-11.881 649.382,-15.9048 649.752,-8.91457"/>
</g>
<!-- Node22 -->
<g id="node69" class="node"><title>Node22</title>
<polygon fill="white" stroke="#bfbfbf" points="896.579,-232.5 896.579,-253.5 941.579,-253.5 941.579,-232.5 896.579,-232.5"/>
<text text-anchor="middle" x="919.079" y="-240.5" font-family="DejaVuSans" font-size="10.00">QFont</text>
</g>
<!-- Node21&#45;&gt;Node22 -->
<g id="edge94" class="edge"><title>Node21&#45;&gt;Node22</title>
<path fill="none" stroke="midnightblue" d="M914.18,-290.362C914.95,-282.922 916.003,-272.743 916.935,-263.728"/>
<polygon fill="midnightblue" stroke="midnightblue" points="920.438,-263.878 917.986,-253.571 913.475,-263.157 920.438,-263.878"/>
</g>
<!-- Node23&#45;&gt;Node7 -->
<g id="edge98" class="edge"><title>Node23&#45;&gt;Node7</title>
<path fill="none" stroke="midnightblue" d="M1085.08,-290.444C1085.08,-270.062 1085.08,-223.868 1085.08,-185 1085.08,-185 1085.08,-185 1085.08,-127 1085.08,-37.4882 760.909,-16.6705 649.871,-12.1654"/>
<polygon fill="midnightblue" stroke="midnightblue" points="649.936,-8.66539 639.809,-11.7786 649.667,-15.6602 649.936,-8.66539"/>
</g>
</g>
</svg>
