<?xml version="1.0" encoding="UTF-8" standalone="no"?>
<!DOCTYPE svg PUBLIC "-//W3C//DTD SVG 1.1//EN"
 "http://www.w3.org/Graphics/SVG/1.1/DTD/svg11.dtd">
<!-- Generated by graphviz version 2.26.3 (20100126.1600)
 -->
<!-- Title: G Pages: 1 -->
<svg width="321pt" height="146pt"
 viewBox="0.00 0.00 321.00 146.00" xmlns="http://www.w3.org/2000/svg" xmlns:xlink="http://www.w3.org/1999/xlink">
<g id="graph1" class="graph" transform="scale(1 1) rotate(0) translate(4 142)">
<title>G</title>
<polygon fill="white" stroke="white" points="-4,5 -4,-142 318,-142 318,5 -4,5"/>
<!-- Node1 -->
<g id="node1" class="node"><title>Node1</title>
<polygon fill="#bfbfbf" stroke="black" points="73,-116.5 73,-137.5 195,-137.5 195,-116.5 73,-116.5"/>
<text text-anchor="middle" x="134" y="-124.5" font-family="DejaVuSans" font-size="10.00">src/Draw/DrawSheet.h</text>
</g>
<!-- Node2 -->
<g id="node3" class="node"><title>Node2</title>
<a xlink:href="_draw_sheet_8cpp.html" target="_top" xlink:title="src/Draw/DrawSheet.cpp">
<polygon fill="white" stroke="black" points="0,-58.5 0,-79.5 134,-79.5 134,-58.5 0,-58.5"/>
<text text-anchor="middle" x="67" y="-66.5" font-family="DejaVuSans" font-size="10.00">src/Draw/DrawSheet.cpp</text>
</a>
</g>
<!-- Node1&#45;&gt;Node2 -->
<g id="edge2" class="edge"><title>Node1&#45;&gt;Node2</title>
<path fill="none" stroke="midnightblue" d="M114.005,-109.691C102.694,-99.8996 88.917,-87.973 79.2109,-79.5707"/>
<polygon fill="midnightblue" stroke="midnightblue" points="111.86,-112.463 121.711,-116.362 116.441,-107.171 111.86,-112.463"/>
</g>
<!-- Node3 -->
<g id="node5" class="node"><title>Node3</title>
<a xlink:href="_main_window_8h.html" target="_top" xlink:title="src/MainWindow.h">
<polygon fill="white" stroke="black" points="152,-58.5 152,-79.5 252,-79.5 252,-58.5 152,-58.5"/>
<text text-anchor="middle" x="202" y="-66.5" font-family="DejaVuSans" font-size="10.00">src/MainWindow.h</text>
</a>
</g>
<!-- Node1&#45;&gt;Node3 -->
<g id="edge4" class="edge"><title>Node1&#45;&gt;Node3</title>
<path fill="none" stroke="midnightblue" d="M154.294,-109.691C165.773,-99.8996 179.756,-87.973 189.607,-79.5707"/>
<polygon fill="midnightblue" stroke="midnightblue" points="151.809,-107.209 146.472,-116.362 156.352,-112.535 151.809,-107.209"/>
</g>
<!-- Node4 -->
<g id="node7" class="node"><title>Node4</title>
<a xlink:href="main_8cpp.html" target="_top" xlink:title="src/main.cpp">
<polygon fill="white" stroke="black" points="107,-0.5 107,-21.5 185,-21.5 185,-0.5 107,-0.5"/>
<text text-anchor="middle" x="146" y="-8.5" font-family="DejaVuSans" font-size="10.00">src/main.cpp</text>
</a>
</g>
<!-- Node3&#45;&gt;Node4 -->
<g id="edge6" class="edge"><title>Node3&#45;&gt;Node4</title>
<path fill="none" stroke="midnightblue" d="M184.735,-51.118C175.388,-41.4377 164.161,-29.8098 156.206,-21.5707"/>
<polygon fill="midnightblue" stroke="midnightblue" points="182.265,-53.599 191.729,-58.3619 187.301,-48.7368 182.265,-53.599"/>
</g>
<!-- Node5 -->
<g id="node9" class="node"><title>Node5</title>
<a xlink:href="_main_window_8cpp.html" target="_top" xlink:title="src/MainWindow.cpp">
<polygon fill="white" stroke="black" points="202.5,-0.5 202.5,-21.5 313.5,-21.5 313.5,-0.5 202.5,-0.5"/>
<text text-anchor="middle" x="258" y="-8.5" font-family="DejaVuSans" font-size="10.00">src/MainWindow.cpp</text>
</a>
</g>
<!-- Node3&#45;&gt;Node5 -->
<g id="edge8" class="edge"><title>Node3&#45;&gt;Node5</title>
<path fill="none" stroke="midnightblue" d="M219.265,-51.118C228.612,-41.4377 239.839,-29.8098 247.794,-21.5707"/>
<polygon fill="midnightblue" stroke="midnightblue" points="216.699,-48.7368 212.271,-58.3619 221.735,-53.599 216.699,-48.7368"/>
</g>
</g>
</svg>
