<?xml version="1.0" encoding="UTF-8" standalone="no"?>
<!DOCTYPE svg PUBLIC "-//W3C//DTD SVG 1.1//EN"
 "http://www.w3.org/Graphics/SVG/1.1/DTD/svg11.dtd">
<!-- Generated by graphviz version 2.26.3 (20100126.1600)
 -->
<!-- Title: G Pages: 1 -->
<svg width="346pt" height="88pt"
 viewBox="0.00 0.00 346.00 88.00" xmlns="http://www.w3.org/2000/svg" xmlns:xlink="http://www.w3.org/1999/xlink">
<g id="graph1" class="graph" transform="scale(1 1) rotate(0) translate(4 84)">
<title>G</title>
<polygon fill="white" stroke="white" points="-4,5 -4,-84 343,-84 343,5 -4,5"/>
<!-- Node1 -->
<g id="node1" class="node"><title>Node1</title>
<polygon fill="#bfbfbf" stroke="black" points="89,-58.5 89,-79.5 211,-79.5 211,-58.5 89,-58.5"/>
<text text-anchor="middle" x="150" y="-66.5" font-family="DejaVuSans" font-size="10.00">src/Draw/DrawSheet.h</text>
</g>
<!-- Node2 -->
<g id="node3" class="node"><title>Node2</title>
<polygon fill="white" stroke="#bfbfbf" points="0,-0.5 0,-21.5 56,-21.5 56,-0.5 0,-0.5"/>
<text text-anchor="middle" x="28" y="-8.5" font-family="DejaVuSans" font-size="10.00">QPrinter</text>
</g>
<!-- Node1&#45;&gt;Node2 -->
<g id="edge2" class="edge"><title>Node1&#45;&gt;Node2</title>
<path fill="none" stroke="midnightblue" d="M127.907,-58.4966C108.766,-49.397 80.8539,-36.1273 59.3947,-25.9253"/>
<polygon fill="midnightblue" stroke="midnightblue" points="60.8753,-22.7539 50.3412,-21.6212 57.8698,-29.0758 60.8753,-22.7539"/>
</g>
<!-- Node3 -->
<g id="node5" class="node"><title>Node3</title>
<polygon fill="white" stroke="#bfbfbf" points="73.5,-0.5 73.5,-21.5 122.5,-21.5 122.5,-0.5 73.5,-0.5"/>
<text text-anchor="middle" x="98" y="-8.5" font-family="DejaVuSans" font-size="10.00">QColor</text>
</g>
<!-- Node1&#45;&gt;Node3 -->
<g id="edge4" class="edge"><title>Node1&#45;&gt;Node3</title>
<path fill="none" stroke="midnightblue" d="M140.462,-58.3619C133.132,-50.1861 122.837,-38.7025 114.219,-29.0907"/>
<polygon fill="midnightblue" stroke="midnightblue" points="116.759,-26.68 107.477,-21.5707 111.547,-31.3528 116.759,-26.68"/>
</g>
<!-- Node4 -->
<g id="node7" class="node"><title>Node4</title>
<polygon fill="white" stroke="#bfbfbf" points="140,-0.5 140,-21.5 266,-21.5 266,-0.5 140,-0.5"/>
<text text-anchor="middle" x="203" y="-8.5" font-family="DejaVuSans" font-size="10.00">Calc/CalcAdvantages.h</text>
</g>
<!-- Node1&#45;&gt;Node4 -->
<g id="edge6" class="edge"><title>Node1&#45;&gt;Node4</title>
<path fill="none" stroke="midnightblue" d="M159.721,-58.3619C167.192,-50.1861 177.686,-38.7025 186.469,-29.0907"/>
<polygon fill="midnightblue" stroke="midnightblue" points="189.179,-31.3138 193.341,-21.5707 184.011,-26.5918 189.179,-31.3138"/>
</g>
<!-- Node5 -->
<g id="node9" class="node"><title>Node5</title>
<polygon fill="white" stroke="#bfbfbf" points="283.5,-0.5 283.5,-21.5 338.5,-21.5 338.5,-0.5 283.5,-0.5"/>
<text text-anchor="middle" x="311" y="-8.5" font-family="DejaVuSans" font-size="10.00">QObject</text>
</g>
<!-- Node1&#45;&gt;Node5 -->
<g id="edge8" class="edge"><title>Node1&#45;&gt;Node5</title>
<path fill="none" stroke="midnightblue" d="M179.156,-58.4966C205.662,-48.9477 244.915,-34.8069 273.699,-24.4376"/>
<polygon fill="midnightblue" stroke="midnightblue" points="275.183,-27.6231 283.405,-20.9409 272.811,-21.0374 275.183,-27.6231"/>
</g>
</g>
</svg>
