<?xml version="1.0" encoding="UTF-8" standalone="no"?>
<!DOCTYPE svg PUBLIC "-//W3C//DTD SVG 1.1//EN"
 "http://www.w3.org/Graphics/SVG/1.1/DTD/svg11.dtd">
<!-- Generated by graphviz version 2.26.3 (20100126.1600)
 -->
<!-- Title: G Pages: 1 -->
<svg width="1240pt" height="494pt"
 viewBox="0.00 0.00 1240.07 494.00" xmlns="http://www.w3.org/2000/svg" xmlns:xlink="http://www.w3.org/1999/xlink">
<g id="graph1" class="graph" transform="scale(1 1) rotate(0) translate(4 490)">
<title>G</title>
<polygon fill="white" stroke="white" points="-4,5 -4,-490 1237.07,-490 1237.07,5 -4,5"/>
<!-- Node1 -->
<g id="node1" class="node"><title>Node1</title>
<polygon fill="#bfbfbf" stroke="black" points="680.074,-464.5 680.074,-485.5 814.074,-485.5 814.074,-464.5 680.074,-464.5"/>
<text text-anchor="middle" x="747.074" y="-472.5" font-family="DejaVuSans" font-size="10.00">src/Draw/DrawSheet.cpp</text>
</g>
<!-- Node2 -->
<g id="node3" class="node"><title>Node2</title>
<polygon fill="white" stroke="#bfbfbf" points="1187.57,-232.5 1187.57,-253.5 1232.57,-253.5 1232.57,-232.5 1187.57,-232.5"/>
<text text-anchor="middle" x="1210.07" y="-240.5" font-family="DejaVuSans" font-size="10.00">QFont</text>
</g>
<!-- Node1&#45;&gt;Node2 -->
<g id="edge2" class="edge"><title>Node1&#45;&gt;Node2</title>
<path fill="none" stroke="midnightblue" d="M814.551,-464.512C857.493,-456.801 913.891,-444.739 962.074,-428 1069.85,-390.559 1119.59,-400.919 1191.07,-312 1202.12,-298.264 1206.76,-278.567 1208.7,-263.731"/>
<polygon fill="midnightblue" stroke="midnightblue" points="1212.21,-263.811 1209.72,-253.513 1205.24,-263.116 1212.21,-263.811"/>
</g>
<!-- Node3 -->
<g id="node5" class="node"><title>Node3</title>
<polygon fill="white" stroke="#bfbfbf" points="532.574,-406.5 532.574,-427.5 589.574,-427.5 589.574,-406.5 532.574,-406.5"/>
<text text-anchor="middle" x="561.074" y="-414.5" font-family="DejaVuSans" font-size="10.00">QPainter</text>
</g>
<!-- Node1&#45;&gt;Node3 -->
<g id="edge4" class="edge"><title>Node1&#45;&gt;Node3</title>
<path fill="none" stroke="midnightblue" d="M713.391,-464.497C681.323,-454.497 633.108,-439.462 599.544,-428.996"/>
<polygon fill="midnightblue" stroke="midnightblue" points="600.22,-425.541 589.632,-425.905 598.137,-432.223 600.22,-425.541"/>
</g>
<!-- Node4 -->
<g id="node7" class="node"><title>Node4</title>
<polygon fill="white" stroke="#bfbfbf" points="607.074,-406.5 607.074,-427.5 663.074,-427.5 663.074,-406.5 607.074,-406.5"/>
<text text-anchor="middle" x="635.074" y="-414.5" font-family="DejaVuSans" font-size="10.00">QDebug</text>
</g>
<!-- Node1&#45;&gt;Node4 -->
<g id="edge6" class="edge"><title>Node1&#45;&gt;Node4</title>
<path fill="none" stroke="midnightblue" d="M726.791,-464.497C709.456,-455.519 684.283,-442.484 664.693,-432.339"/>
<polygon fill="midnightblue" stroke="midnightblue" points="666.073,-429.112 655.584,-427.621 662.854,-435.328 666.073,-429.112"/>
</g>
<!-- Node5 -->
<g id="node9" class="node"><title>Node5</title>
<polygon fill="white" stroke="#bfbfbf" points="680.574,-406.5 680.574,-427.5 731.574,-427.5 731.574,-406.5 680.574,-406.5"/>
<text text-anchor="middle" x="706.074" y="-414.5" font-family="DejaVuSans" font-size="10.00">math.h</text>
</g>
<!-- Node1&#45;&gt;Node5 -->
<g id="edge8" class="edge"><title>Node1&#45;&gt;Node5</title>
<path fill="none" stroke="midnightblue" d="M739.554,-464.362C733.948,-456.431 726.142,-445.389 719.477,-435.961"/>
<polygon fill="midnightblue" stroke="midnightblue" points="722.177,-433.716 713.546,-427.571 716.461,-437.757 722.177,-433.716"/>
</g>
<!-- Node6 -->
<g id="node11" class="node"><title>Node6</title>
<a xlink:href="_storage_template_8h.html" target="_top" xlink:title="../Storage/StorageTemplate.h">
<polygon fill="white" stroke="black" points="184.074,-232.5 184.074,-253.5 342.074,-253.5 342.074,-232.5 184.074,-232.5"/>
<text text-anchor="middle" x="263.074" y="-240.5" font-family="DejaVuSans" font-size="10.00">../Storage/StorageTemplate.h</text>
</a>
</g>
<!-- Node1&#45;&gt;Node6 -->
<g id="edge10" class="edge"><title>Node1&#45;&gt;Node6</title>
<path fill="none" stroke="midnightblue" d="M679.634,-467.763C634.291,-461.236 573.931,-449.271 524.074,-428 423.23,-384.977 322.719,-298.305 281.988,-260.88"/>
<polygon fill="midnightblue" stroke="midnightblue" points="284.152,-258.113 274.441,-253.876 279.39,-263.244 284.152,-258.113"/>
</g>
<!-- Node20 -->
<g id="node55" class="node"><title>Node20</title>
<a xlink:href="_exception_8h_source.html" target="_top" xlink:title="../Exceptions/Exception.h">
<polygon fill="white" stroke="black" points="883.074,-348.5 883.074,-369.5 1019.07,-369.5 1019.07,-348.5 883.074,-348.5"/>
<text text-anchor="middle" x="951.074" y="-356.5" font-family="DejaVuSans" font-size="10.00">../Exceptions/Exception.h</text>
</a>
</g>
<!-- Node1&#45;&gt;Node20 -->
<g id="edge70" class="edge"><title>Node1&#45;&gt;Node20</title>
<path fill="none" stroke="midnightblue" d="M767.748,-464.488C785.897,-455.163 812.935,-441.039 836.074,-428 867.233,-410.442 902.404,-389.112 925.553,-374.858"/>
<polygon fill="midnightblue" stroke="midnightblue" points="927.43,-377.813 934.099,-369.581 923.752,-371.857 927.43,-377.813"/>
</g>
<!-- Node22 -->
<g id="node63" class="node"><title>Node22</title>
<a xlink:href="_config_8h.html" target="_top" xlink:title="../Config/Config.h">
<polygon fill="white" stroke="black" points="1084.07,-290.5 1084.07,-311.5 1182.07,-311.5 1182.07,-290.5 1084.07,-290.5"/>
<text text-anchor="middle" x="1133.07" y="-298.5" font-family="DejaVuSans" font-size="10.00">../Config/Config.h</text>
</a>
</g>
<!-- Node1&#45;&gt;Node22 -->
<g id="edge90" class="edge"><title>Node1&#45;&gt;Node22</title>
<path fill="none" stroke="midnightblue" d="M794.856,-464.448C856.954,-449.447 967.442,-418.295 1052.07,-370 1076.39,-356.122 1100.31,-334.488 1115.78,-319.148"/>
<polygon fill="midnightblue" stroke="midnightblue" points="1118.52,-321.351 1123.05,-311.774 1113.54,-316.435 1118.52,-321.351"/>
</g>
<!-- Node24 -->
<g id="node70" class="node"><title>Node24</title>
<a xlink:href="_draw_sheet_8h.html" target="_top" xlink:title="DrawSheet.h">
<polygon fill="white" stroke="black" points="749.074,-406.5 749.074,-427.5 827.074,-427.5 827.074,-406.5 749.074,-406.5"/>
<text text-anchor="middle" x="788.074" y="-414.5" font-family="DejaVuSans" font-size="10.00">DrawSheet.h</text>
</a>
</g>
<!-- Node1&#45;&gt;Node24 -->
<g id="edge92" class="edge"><title>Node1&#45;&gt;Node24</title>
<path fill="none" stroke="midnightblue" d="M754.594,-464.362C760.2,-456.431 768.006,-445.389 774.671,-435.961"/>
<polygon fill="midnightblue" stroke="midnightblue" points="777.687,-437.757 780.601,-427.571 771.971,-433.716 777.687,-437.757"/>
</g>
<!-- Node7 -->
<g id="node13" class="node"><title>Node7</title>
<polygon fill="white" stroke="#bfbfbf" points="257.574,-58.5 257.574,-79.5 298.574,-79.5 298.574,-58.5 257.574,-58.5"/>
<text text-anchor="middle" x="278.074" y="-66.5" font-family="DejaVuSans" font-size="10.00">QList</text>
</g>
<!-- Node6&#45;&gt;Node7 -->
<g id="edge12" class="edge"><title>Node6&#45;&gt;Node7</title>
<path fill="none" stroke="midnightblue" d="M235.756,-232.429C220.213,-224.832 202.094,-212.922 193.074,-196 188.474,-187.372 189.811,-183.217 193.074,-174 205.788,-138.087 236.59,-105.474 257.406,-86.4328"/>
<polygon fill="midnightblue" stroke="midnightblue" points="259.954,-88.8511 265.103,-79.5914 255.303,-83.6194 259.954,-88.8511"/>
</g>
<!-- Node8 -->
<g id="node15" class="node"><title>Node8</title>
<polygon fill="white" stroke="#bfbfbf" points="94.5738,-0.5 94.5738,-21.5 163.574,-21.5 163.574,-0.5 94.5738,-0.5"/>
<text text-anchor="middle" x="129.074" y="-8.5" font-family="DejaVuSans" font-size="10.00">QStringList</text>
</g>
<!-- Node6&#45;&gt;Node8 -->
<g id="edge14" class="edge"><title>Node6&#45;&gt;Node8</title>
<path fill="none" stroke="midnightblue" d="M213.486,-232.432C165.542,-219.29 95.5315,-191.699 63.0738,-138 51.3422,-118.591 70.9232,-71.5131 79.0738,-58 85.9269,-46.638 96.2808,-36.2663 105.792,-28.1738"/>
<polygon fill="midnightblue" stroke="midnightblue" points="108.248,-30.6895 113.825,-21.6813 103.847,-25.2454 108.248,-30.6895"/>
</g>
<!-- Node9 -->
<g id="node17" class="node"><title>Node9</title>
<a xlink:href="cv___trait_8h.html" target="_top" xlink:title="../Datatypes/cv_Trait.h">
<polygon fill="white" stroke="black" points="416.074,-174.5 416.074,-195.5 538.074,-195.5 538.074,-174.5 416.074,-174.5"/>
<text text-anchor="middle" x="477.074" y="-182.5" font-family="DejaVuSans" font-size="10.00">../Datatypes/cv_Trait.h</text>
</a>
</g>
<!-- Node6&#45;&gt;Node9 -->
<g id="edge16" class="edge"><title>Node6&#45;&gt;Node9</title>
<path fill="none" stroke="midnightblue" d="M301.828,-232.497C337.319,-222.877 390.005,-208.598 428.337,-198.209"/>
<polygon fill="midnightblue" stroke="midnightblue" points="429.511,-201.517 438.247,-195.523 427.68,-194.761 429.511,-201.517"/>
</g>
<!-- Node15 -->
<g id="node38" class="node"><title>Node15</title>
<a xlink:href="cv___identity_list_8h.html" target="_top" xlink:title="../Datatypes/cv_IdentityList.h">
<polygon fill="white" stroke="black" points="201.574,-174.5 201.574,-195.5 356.574,-195.5 356.574,-174.5 201.574,-174.5"/>
<text text-anchor="middle" x="279.074" y="-182.5" font-family="DejaVuSans" font-size="10.00">../Datatypes/cv_IdentityList.h</text>
</a>
</g>
<!-- Node6&#45;&gt;Node15 -->
<g id="edge46" class="edge"><title>Node6&#45;&gt;Node15</title>
<path fill="none" stroke="midnightblue" d="M266.008,-232.362C268.083,-224.84 270.931,-214.519 273.438,-205.431"/>
<polygon fill="midnightblue" stroke="midnightblue" points="276.872,-206.141 276.158,-195.571 270.124,-204.28 276.872,-206.141"/>
</g>
<!-- Node18 -->
<g id="node50" class="node"><title>Node18</title>
<a xlink:href="cv___super_effect_8h.html" target="_top" xlink:title="../Datatypes/cv_SuperEffect.h">
<polygon fill="white" stroke="black" points="602.074,-116.5 602.074,-137.5 760.074,-137.5 760.074,-116.5 602.074,-116.5"/>
<text text-anchor="middle" x="681.074" y="-124.5" font-family="DejaVuSans" font-size="10.00">../Datatypes/cv_SuperEffect.h</text>
</a>
</g>
<!-- Node6&#45;&gt;Node18 -->
<g id="edge64" class="edge"><title>Node6&#45;&gt;Node18</title>
<path fill="none" stroke="midnightblue" d="M342.097,-236.578C399.974,-230.286 479.823,-218.268 547.074,-196 587.071,-182.756 629.765,-158.876 655.94,-142.978"/>
<polygon fill="midnightblue" stroke="midnightblue" points="657.8,-145.943 664.478,-137.718 654.128,-139.983 657.8,-145.943"/>
</g>
<!-- Node19 -->
<g id="node53" class="node"><title>Node19</title>
<polygon fill="white" stroke="#bfbfbf" points="15.5738,-174.5 15.5738,-195.5 70.5738,-195.5 70.5738,-174.5 15.5738,-174.5"/>
<text text-anchor="middle" x="43.0738" y="-182.5" font-family="DejaVuSans" font-size="10.00">QObject</text>
</g>
<!-- Node6&#45;&gt;Node19 -->
<g id="edge68" class="edge"><title>Node6&#45;&gt;Node19</title>
<path fill="none" stroke="midnightblue" d="M222.536,-232.422C186.245,-222.936 131.587,-208.611 84.0738,-196 83.0053,-195.716 81.9213,-195.428 80.8272,-195.137"/>
<polygon fill="midnightblue" stroke="midnightblue" points="81.4215,-191.673 70.8571,-192.476 79.616,-198.436 81.4215,-191.673"/>
</g>
<!-- Node9&#45;&gt;Node7 -->
<g id="edge22" class="edge"><title>Node9&#45;&gt;Node7</title>
<path fill="none" stroke="midnightblue" d="M422.371,-174.411C381.148,-165.53 328.942,-152.071 312.074,-138 297.076,-125.489 288.118,-104.753 283.193,-89.2734"/>
<polygon fill="midnightblue" stroke="midnightblue" points="286.528,-88.207 280.404,-79.5618 279.8,-90.1395 286.528,-88.207"/>
</g>
<!-- Node9&#45;&gt;Node8 -->
<g id="edge24" class="edge"><title>Node9&#45;&gt;Node8</title>
<path fill="none" stroke="midnightblue" d="M417.953,-174.454C393.083,-167.543 365.29,-156.264 345.074,-138 315.865,-111.612 337.363,-83.1393 307.074,-58 286.895,-41.2524 219.453,-26.6645 173.628,-18.3484"/>
<polygon fill="midnightblue" stroke="midnightblue" points="174.089,-14.8756 163.631,-16.5709 172.864,-21.7675 174.089,-14.8756"/>
</g>
<!-- Node10 -->
<g id="node19" class="node"><title>Node10</title>
<polygon fill="white" stroke="#bfbfbf" points="459.574,-116.5 459.574,-137.5 508.574,-137.5 508.574,-116.5 459.574,-116.5"/>
<text text-anchor="middle" x="484.074" y="-124.5" font-family="DejaVuSans" font-size="10.00">QFlags</text>
</g>
<!-- Node9&#45;&gt;Node10 -->
<g id="edge18" class="edge"><title>Node9&#45;&gt;Node10</title>
<path fill="none" stroke="midnightblue" d="M478.358,-174.362C479.256,-166.922 480.484,-156.743 481.572,-147.728"/>
<polygon fill="midnightblue" stroke="midnightblue" points="485.075,-147.918 482.798,-137.571 478.125,-147.079 485.075,-147.918"/>
</g>
<!-- Node11 -->
<g id="node21" class="node"><title>Node11</title>
<polygon fill="white" stroke="#bfbfbf" points="693.574,-0.5 693.574,-21.5 746.574,-21.5 746.574,-0.5 693.574,-0.5"/>
<text text-anchor="middle" x="720.074" y="-8.5" font-family="DejaVuSans" font-size="10.00">QString</text>
</g>
<!-- Node9&#45;&gt;Node11 -->
<g id="edge20" class="edge"><title>Node9&#45;&gt;Node11</title>
<path fill="none" stroke="midnightblue" d="M486.875,-174.476C500.36,-160.303 525.738,-134.703 550.074,-116 596.711,-80.1573 656.146,-45.7319 690.967,-26.5703"/>
<polygon fill="midnightblue" stroke="midnightblue" points="693.005,-29.4457 700.105,-21.582 689.651,-23.3016 693.005,-29.4457"/>
</g>
<!-- Node12 -->
<g id="node25" class="node"><title>Node12</title>
<a xlink:href="cv___species_8h.html" target="_top" xlink:title="cv_Species.h">
<polygon fill="white" stroke="black" points="680.574,-58.5 680.574,-79.5 759.574,-79.5 759.574,-58.5 680.574,-58.5"/>
<text text-anchor="middle" x="720.074" y="-66.5" font-family="DejaVuSans" font-size="10.00">cv_Species.h</text>
</a>
</g>
<!-- Node9&#45;&gt;Node12 -->
<g id="edge26" class="edge"><title>Node9&#45;&gt;Node12</title>
<path fill="none" stroke="midnightblue" d="M492.704,-174.449C514.522,-160.016 555.647,-133.873 593.074,-116 620.231,-103.031 651.983,-91.2805 676.945,-82.7724"/>
<polygon fill="midnightblue" stroke="midnightblue" points="678.136,-86.0644 686.5,-79.5604 675.906,-79.4293 678.136,-86.0644"/>
</g>
<!-- Node13 -->
<g id="node28" class="node"><title>Node13</title>
<a xlink:href="cv___trait_detail_8h.html" target="_top" xlink:title="cv_TraitDetail.h">
<polygon fill="white" stroke="black" points="353.574,-116.5 353.574,-137.5 442.574,-137.5 442.574,-116.5 353.574,-116.5"/>
<text text-anchor="middle" x="398.074" y="-124.5" font-family="DejaVuSans" font-size="10.00">cv_TraitDetail.h</text>
</a>
</g>
<!-- Node9&#45;&gt;Node13 -->
<g id="edge30" class="edge"><title>Node9&#45;&gt;Node13</title>
<path fill="none" stroke="midnightblue" d="M462.584,-174.362C450.891,-165.777 434.231,-153.546 420.771,-143.664"/>
<polygon fill="midnightblue" stroke="midnightblue" points="422.604,-140.667 412.472,-137.571 418.461,-146.31 422.604,-140.667"/>
</g>
<!-- Node14 -->
<g id="node34" class="node"><title>Node14</title>
<a xlink:href="cv___abstract_trait_8h.html" target="_top" xlink:title="cv_AbstractTrait.h">
<polygon fill="white" stroke="black" points="853.574,-116.5 853.574,-137.5 954.574,-137.5 954.574,-116.5 853.574,-116.5"/>
<text text-anchor="middle" x="904.074" y="-124.5" font-family="DejaVuSans" font-size="10.00">cv_AbstractTrait.h</text>
</a>
</g>
<!-- Node9&#45;&gt;Node14 -->
<g id="edge40" class="edge"><title>Node9&#45;&gt;Node14</title>
<path fill="none" stroke="midnightblue" d="M538.252,-176.69C619.524,-165.651 762.239,-146.266 843.303,-135.255"/>
<polygon fill="midnightblue" stroke="midnightblue" points="843.919,-138.703 853.357,-133.889 842.977,-131.767 843.919,-138.703"/>
</g>
<!-- Node12&#45;&gt;Node11 -->
<g id="edge28" class="edge"><title>Node12&#45;&gt;Node11</title>
<path fill="none" stroke="midnightblue" d="M720.074,-58.3619C720.074,-50.9219 720.074,-40.7427 720.074,-31.7276"/>
<polygon fill="midnightblue" stroke="midnightblue" points="723.574,-31.5706 720.074,-21.5707 716.574,-31.5707 723.574,-31.5706"/>
</g>
<!-- Node13&#45;&gt;Node7 -->
<g id="edge34" class="edge"><title>Node13&#45;&gt;Node7</title>
<path fill="none" stroke="midnightblue" d="M376.343,-116.497C357.249,-107.268 329.281,-93.75 308.06,-83.4932"/>
<polygon fill="midnightblue" stroke="midnightblue" points="309.367,-80.2376 298.84,-79.0371 306.321,-86.5401 309.367,-80.2376"/>
</g>
<!-- Node13&#45;&gt;Node8 -->
<g id="edge36" class="edge"><title>Node13&#45;&gt;Node8</title>
<path fill="none" stroke="midnightblue" d="M392.291,-116.487C383.256,-101.103 364.288,-72.6958 340.074,-58 312.552,-41.297 227.154,-25.8728 173.813,-17.5151"/>
<polygon fill="midnightblue" stroke="midnightblue" points="174.016,-14.005 163.599,-15.9395 172.949,-20.9232 174.016,-14.005"/>
</g>
<!-- Node13&#45;&gt;Node11 -->
<g id="edge32" class="edge"><title>Node13&#45;&gt;Node11</title>
<path fill="none" stroke="midnightblue" d="M413.823,-116.361C436.72,-101.338 480.966,-73.9642 522.074,-58 576.456,-36.8807 643.062,-23.4517 683.496,-16.5789"/>
<polygon fill="midnightblue" stroke="midnightblue" points="684.141,-20.0198 693.435,-14.9324 682.997,-13.1139 684.141,-20.0198"/>
</g>
<!-- Node13&#45;&gt;Node12 -->
<g id="edge38" class="edge"><title>Node13&#45;&gt;Node12</title>
<path fill="none" stroke="midnightblue" d="M442.586,-117.655C445.457,-117.085 448.305,-116.529 451.074,-116 527.412,-101.413 616.291,-86.2347 670.344,-77.2041"/>
<polygon fill="midnightblue" stroke="midnightblue" points="671.06,-80.6331 680.349,-75.5365 669.909,-73.7284 671.06,-80.6331"/>
</g>
<!-- Node14&#45;&gt;Node11 -->
<g id="edge42" class="edge"><title>Node14&#45;&gt;Node11</title>
<path fill="none" stroke="midnightblue" d="M887.093,-116.295C854.56,-95.7846 783.299,-50.8594 745.227,-26.8575"/>
<polygon fill="midnightblue" stroke="midnightblue" points="747.073,-23.884 736.747,-21.5117 743.34,-29.8055 747.073,-23.884"/>
</g>
<!-- Node14&#45;&gt;Node12 -->
<g id="edge44" class="edge"><title>Node14&#45;&gt;Node12</title>
<path fill="none" stroke="midnightblue" d="M870.753,-116.497C840.626,-107 796.091,-92.9619 763.246,-82.6087"/>
<polygon fill="midnightblue" stroke="midnightblue" points="764.047,-79.1914 753.457,-79.5231 761.942,-85.8676 764.047,-79.1914"/>
</g>
<!-- Node15&#45;&gt;Node7 -->
<g id="edge62" class="edge"><title>Node15&#45;&gt;Node7</title>
<path fill="none" stroke="midnightblue" d="M277.596,-174.199C276.373,-164.689 274.734,-150.455 274.074,-138 273.22,-121.899 274.364,-103.689 275.645,-90.0216"/>
<polygon fill="midnightblue" stroke="midnightblue" points="279.159,-90.0628 276.711,-79.7547 272.197,-89.3395 279.159,-90.0628"/>
</g>
<!-- Node15&#45;&gt;Node11 -->
<g id="edge48" class="edge"><title>Node15&#45;&gt;Node11</title>
<path fill="none" stroke="midnightblue" d="M271.03,-174.25C254.081,-150.211 218.666,-91.5926 249.074,-58 278.065,-25.9722 577.212,-14.8489 683.143,-11.8972"/>
<polygon fill="midnightblue" stroke="midnightblue" points="683.452,-15.3902 693.354,-11.6215 683.263,-8.3928 683.452,-15.3902"/>
</g>
<!-- Node16 -->
<g id="node41" class="node"><title>Node16</title>
<a xlink:href="cv___identity_8h.html" target="_top" xlink:title="cv_Identity.h">
<polygon fill="white" stroke="black" points="71.5738,-116.5 71.5738,-137.5 146.574,-137.5 146.574,-116.5 71.5738,-116.5"/>
<text text-anchor="middle" x="109.074" y="-124.5" font-family="DejaVuSans" font-size="10.00">cv_Identity.h</text>
</a>
</g>
<!-- Node15&#45;&gt;Node16 -->
<g id="edge50" class="edge"><title>Node15&#45;&gt;Node16</title>
<path fill="none" stroke="midnightblue" d="M248.288,-174.497C220.693,-165.082 180.015,-151.204 149.749,-140.877"/>
<polygon fill="midnightblue" stroke="midnightblue" points="150.512,-137.44 139.917,-137.523 148.251,-144.065 150.512,-137.44"/>
</g>
<!-- Node16&#45;&gt;Node8 -->
<g id="edge52" class="edge"><title>Node16&#45;&gt;Node8</title>
<path fill="none" stroke="midnightblue" d="M100.429,-116.142C90.6479,-102.463 77.0588,-78.2892 85.0738,-58 89.6014,-46.5388 98.39,-36.2323 106.93,-28.2117"/>
<polygon fill="midnightblue" stroke="midnightblue" points="109.354,-30.7411 114.573,-21.5208 104.743,-25.474 109.354,-30.7411"/>
</g>
<!-- Node16&#45;&gt;Node11 -->
<g id="edge54" class="edge"><title>Node16&#45;&gt;Node11</title>
<path fill="none" stroke="midnightblue" d="M123.555,-116.418C147.936,-98.8189 196.437,-64.7892 216.074,-58 302.608,-28.0822 582.192,-15.7291 683.22,-12.1684"/>
<polygon fill="midnightblue" stroke="midnightblue" points="683.385,-15.6648 693.259,-11.823 683.145,-8.66899 683.385,-15.6648"/>
</g>
<!-- Node17 -->
<g id="node45" class="node"><title>Node17</title>
<a xlink:href="cv___name_8h.html" target="_top" xlink:title="cv_Name.h">
<polygon fill="white" stroke="black" points="93.5738,-58.5 93.5738,-79.5 164.574,-79.5 164.574,-58.5 93.5738,-58.5"/>
<text text-anchor="middle" x="129.074" y="-66.5" font-family="DejaVuSans" font-size="10.00">cv_Name.h</text>
</a>
</g>
<!-- Node16&#45;&gt;Node17 -->
<g id="edge56" class="edge"><title>Node16&#45;&gt;Node17</title>
<path fill="none" stroke="midnightblue" d="M112.742,-116.362C115.364,-108.758 118.972,-98.294 122.131,-89.1349"/>
<polygon fill="midnightblue" stroke="midnightblue" points="125.478,-90.1654 125.429,-79.5707 118.86,-87.8834 125.478,-90.1654"/>
</g>
<!-- Node17&#45;&gt;Node8 -->
<g id="edge58" class="edge"><title>Node17&#45;&gt;Node8</title>
<path fill="none" stroke="midnightblue" d="M129.074,-58.3619C129.074,-50.9219 129.074,-40.7427 129.074,-31.7276"/>
<polygon fill="midnightblue" stroke="midnightblue" points="132.574,-31.5706 129.074,-21.5707 125.574,-31.5707 132.574,-31.5706"/>
</g>
<!-- Node17&#45;&gt;Node11 -->
<g id="edge60" class="edge"><title>Node17&#45;&gt;Node11</title>
<path fill="none" stroke="midnightblue" d="M164.828,-60.3911C169.271,-59.4935 173.766,-58.6672 178.074,-58 366.682,-28.7873 595.237,-16.4084 683.161,-12.4893"/>
<polygon fill="midnightblue" stroke="midnightblue" points="683.577,-15.9746 693.415,-12.0424 683.272,-8.98119 683.577,-15.9746"/>
</g>
<!-- Node18&#45;&gt;Node12 -->
<g id="edge66" class="edge"><title>Node18&#45;&gt;Node12</title>
<path fill="none" stroke="midnightblue" d="M688.227,-116.362C693.56,-108.431 700.985,-97.3885 707.324,-87.9606"/>
<polygon fill="midnightblue" stroke="midnightblue" points="710.29,-89.8221 712.966,-79.5707 704.481,-85.9161 710.29,-89.8221"/>
</g>
<!-- Node20&#45;&gt;Node9 -->
<g id="edge74" class="edge"><title>Node20&#45;&gt;Node9</title>
<path fill="none" stroke="midnightblue" d="M956.6,-348.342C963.412,-333.545 972.54,-306.716 959.074,-290 908.302,-226.978 669.799,-199.782 548.421,-189.862"/>
<polygon fill="midnightblue" stroke="midnightblue" points="548.361,-186.346 538.114,-189.038 547.803,-193.324 548.361,-186.346"/>
</g>
<!-- Node20&#45;&gt;Node11 -->
<g id="edge72" class="edge"><title>Node20&#45;&gt;Node11</title>
<path fill="none" stroke="midnightblue" d="M957.424,-348.452C962.869,-339.105 970.669,-324.967 976.074,-312 1009.76,-231.175 1033.55,-195.139 996.074,-116 982.563,-87.4691 981.541,-75.2056 955.074,-58 922.809,-37.0254 814.467,-21.8222 756.842,-15.0014"/>
<polygon fill="midnightblue" stroke="midnightblue" points="757.039,-11.5009 746.702,-13.8259 756.233,-18.4543 757.039,-11.5009"/>
</g>
<!-- Node20&#45;&gt;Node16 -->
<g id="edge80" class="edge"><title>Node20&#45;&gt;Node16</title>
<path fill="none" stroke="midnightblue" d="M882.877,-354.805C748.629,-346.353 454.418,-326.819 354.074,-312 234.372,-294.322 198.653,-303.124 88.0738,-254 41.8328,-233.458 -20.2096,-216.612 7.07379,-174 19.2812,-154.934 41.3981,-143.494 61.9242,-136.685"/>
<polygon fill="midnightblue" stroke="midnightblue" points="62.9518,-140.031 71.511,-133.787 60.926,-133.331 62.9518,-140.031"/>
</g>
<!-- Node21 -->
<g id="node59" class="node"><title>Node21</title>
<a xlink:href="cv___shape_8h.html" target="_top" xlink:title="../Datatypes/cv_Shape.h">
<polygon fill="white" stroke="black" points="816.074,-290.5 816.074,-311.5 950.074,-311.5 950.074,-290.5 816.074,-290.5"/>
<text text-anchor="middle" x="883.074" y="-298.5" font-family="DejaVuSans" font-size="10.00">../Datatypes/cv_Shape.h</text>
</a>
</g>
<!-- Node20&#45;&gt;Node21 -->
<g id="edge76" class="edge"><title>Node20&#45;&gt;Node21</title>
<path fill="none" stroke="midnightblue" d="M938.602,-348.362C928.729,-339.941 914.741,-328.011 903.275,-318.231"/>
<polygon fill="midnightblue" stroke="midnightblue" points="905.347,-315.397 895.467,-311.571 900.804,-320.723 905.347,-315.397"/>
</g>
<!-- Node20&#45;&gt;Node22 -->
<g id="edge82" class="edge"><title>Node20&#45;&gt;Node22</title>
<path fill="none" stroke="midnightblue" d="M984.033,-348.497C1013.83,-339 1057.88,-324.962 1090.37,-314.609"/>
<polygon fill="midnightblue" stroke="midnightblue" points="1091.59,-317.894 1100.05,-311.523 1089.46,-311.225 1091.59,-317.894"/>
</g>
<!-- Node21&#45;&gt;Node11 -->
<g id="edge78" class="edge"><title>Node21&#45;&gt;Node11</title>
<path fill="none" stroke="midnightblue" d="M902.108,-290.46C929.166,-274.247 977.624,-240.357 997.074,-196 1007.77,-171.599 979.379,-118.311 978.074,-116 961.34,-86.3638 957.251,-75.521 928.074,-58 899.568,-40.8827 808.661,-24.6471 756.956,-16.4832"/>
<polygon fill="midnightblue" stroke="midnightblue" points="757.28,-12.9916 746.861,-14.9131 756.204,-19.9084 757.28,-12.9916"/>
</g>
<!-- Node22&#45;&gt;Node2 -->
<g id="edge88" class="edge"><title>Node22&#45;&gt;Node2</title>
<path fill="none" stroke="midnightblue" d="M1147.2,-290.362C1158.59,-281.777 1174.83,-269.546 1187.95,-259.664"/>
<polygon fill="midnightblue" stroke="midnightblue" points="1190.16,-262.383 1196.04,-253.571 1185.95,-256.792 1190.16,-262.383"/>
</g>
<!-- Node22&#45;&gt;Node11 -->
<g id="edge84" class="edge"><title>Node22&#45;&gt;Node11</title>
<path fill="none" stroke="midnightblue" d="M1137.29,-290.319C1144.89,-270.1 1160.07,-224.7 1160.07,-185 1160.07,-185 1160.07,-185 1160.07,-127 1160.07,-77.2997 1117.87,-77.3016 1072.07,-58 1015.71,-34.2457 835.26,-19.0795 756.934,-13.4586"/>
<polygon fill="midnightblue" stroke="midnightblue" points="756.805,-9.94084 746.584,-12.7289 756.313,-16.9235 756.805,-9.94084"/>
</g>
<!-- Node23 -->
<g id="node66" class="node"><title>Node23</title>
<polygon fill="white" stroke="#bfbfbf" points="1083.57,-232.5 1083.57,-253.5 1132.57,-253.5 1132.57,-232.5 1083.57,-232.5"/>
<text text-anchor="middle" x="1108.07" y="-240.5" font-family="DejaVuSans" font-size="10.00">QColor</text>
</g>
<!-- Node22&#45;&gt;Node23 -->
<g id="edge86" class="edge"><title>Node22&#45;&gt;Node23</title>
<path fill="none" stroke="midnightblue" d="M1128.49,-290.362C1125.18,-282.677 1120.6,-272.069 1116.63,-262.84"/>
<polygon fill="midnightblue" stroke="midnightblue" points="1119.8,-261.368 1112.63,-253.571 1113.37,-264.139 1119.8,-261.368"/>
</g>
<!-- Node24&#45;&gt;Node12 -->
<g id="edge128" class="edge"><title>Node24&#45;&gt;Node12</title>
<path fill="none" stroke="midnightblue" d="M788.074,-406.444C788.074,-386.062 788.074,-339.868 788.074,-301 788.074,-301 788.074,-301 788.074,-185 788.074,-153.192 785.358,-143.323 769.074,-116 762.353,-104.722 752.205,-94.3618 742.885,-86.2547"/>
<polygon fill="midnightblue" stroke="midnightblue" points="744.95,-83.421 735.014,-79.744 740.488,-88.8148 744.95,-83.421"/>
</g>
<!-- Node24&#45;&gt;Node19 -->
<g id="edge132" class="edge"><title>Node24&#45;&gt;Node19</title>
<path fill="none" stroke="midnightblue" d="M748.83,-407.76C745.872,-407.139 742.929,-406.545 740.074,-406 636.285,-386.185 609.038,-388.872 505.074,-370 381.743,-347.612 349.824,-345.631 229.074,-312 153.788,-291.031 116.823,-310.734 63.0738,-254 50.7184,-240.958 45.935,-220.749 44.1143,-205.566"/>
<polygon fill="midnightblue" stroke="midnightblue" points="47.5986,-205.233 43.2462,-195.573 40.6249,-205.839 47.5986,-205.233"/>
</g>
<!-- Node24&#45;&gt;Node21 -->
<g id="edge130" class="edge"><title>Node24&#45;&gt;Node21</title>
<path fill="none" stroke="midnightblue" d="M796.841,-406.295C813.03,-386.527 847.793,-344.08 867.887,-319.544"/>
<polygon fill="midnightblue" stroke="midnightblue" points="870.7,-321.633 874.328,-311.679 865.284,-317.198 870.7,-321.633"/>
</g>
<!-- Node24&#45;&gt;Node23 -->
<g id="edge96" class="edge"><title>Node24&#45;&gt;Node23</title>
<path fill="none" stroke="midnightblue" d="M827.27,-413.246C886.76,-406.906 996.29,-392.523 1028.07,-370 1061.72,-346.157 1052.76,-324.681 1075.07,-290 1081.16,-280.541 1088.29,-270.291 1094.36,-261.785"/>
<polygon fill="midnightblue" stroke="midnightblue" points="1097.21,-263.817 1100.22,-253.658 1091.53,-259.724 1097.21,-263.817"/>
</g>
<!-- Node25 -->
<g id="node72" class="node"><title>Node25</title>
<polygon fill="white" stroke="#bfbfbf" points="514.074,-348.5 514.074,-369.5 570.074,-369.5 570.074,-348.5 514.074,-348.5"/>
<text text-anchor="middle" x="542.074" y="-356.5" font-family="DejaVuSans" font-size="10.00">QPrinter</text>
</g>
<!-- Node24&#45;&gt;Node25 -->
<g id="edge94" class="edge"><title>Node24&#45;&gt;Node25</title>
<path fill="none" stroke="midnightblue" d="M748.804,-407.984C691.824,-394.898 592.103,-371.976 584.074,-370 582.839,-369.696 581.584,-369.384 580.317,-369.067"/>
<polygon fill="midnightblue" stroke="midnightblue" points="581.066,-365.646 570.511,-366.57 579.338,-372.43 581.066,-365.646"/>
</g>
<!-- Node26 -->
<g id="node75" class="node"><title>Node26</title>
<a xlink:href="_storage_character_8h.html" target="_top" xlink:title="../Storage/StorageCharacter.h">
<polygon fill="white" stroke="black" points="362.574,-290.5 362.574,-311.5 523.574,-311.5 523.574,-290.5 362.574,-290.5"/>
<text text-anchor="middle" x="443.074" y="-298.5" font-family="DejaVuSans" font-size="10.00">../Storage/StorageCharacter.h</text>
</a>
</g>
<!-- Node24&#45;&gt;Node26 -->
<g id="edge98" class="edge"><title>Node24&#45;&gt;Node26</title>
<path fill="none" stroke="midnightblue" d="M749.039,-407.508C706.332,-396.904 640.788,-379.929 617.074,-370 599.073,-362.463 596.822,-356.113 579.074,-348 550.063,-334.738 516.158,-323.013 489.459,-314.591"/>
<polygon fill="midnightblue" stroke="midnightblue" points="490.192,-311.154 479.604,-311.529 488.114,-317.839 490.192,-311.154"/>
</g>
<!-- Node28 -->
<g id="node87" class="node"><title>Node28</title>
<a xlink:href="_calc_advantages_8h.html" target="_top" xlink:title="../Calc/CalcAdvantages.h">
<polygon fill="white" stroke="black" points="625.574,-348.5 625.574,-369.5 760.574,-369.5 760.574,-348.5 625.574,-348.5"/>
<text text-anchor="middle" x="693.074" y="-356.5" font-family="DejaVuSans" font-size="10.00">../Calc/CalcAdvantages.h</text>
</a>
</g>
<!-- Node24&#45;&gt;Node28 -->
<g id="edge118" class="edge"><title>Node24&#45;&gt;Node28</title>
<path fill="none" stroke="midnightblue" d="M770.649,-406.362C756.187,-397.532 735.404,-384.844 718.99,-374.822"/>
<polygon fill="midnightblue" stroke="midnightblue" points="720.747,-371.794 710.388,-369.571 717.099,-377.769 720.747,-371.794"/>
</g>
<!-- Node26&#45;&gt;Node6 -->
<g id="edge114" class="edge"><title>Node26&#45;&gt;Node6</title>
<path fill="none" stroke="midnightblue" d="M410.477,-290.497C381.005,-281 337.438,-266.962 305.308,-256.609"/>
<polygon fill="midnightblue" stroke="midnightblue" points="306.323,-253.259 295.732,-253.523 304.176,-259.921 306.323,-253.259"/>
</g>
<!-- Node26&#45;&gt;Node9 -->
<g id="edge104" class="edge"><title>Node26&#45;&gt;Node9</title>
<path fill="none" stroke="midnightblue" d="M446.211,-290.295C451.854,-271.045 463.799,-230.289 471.063,-205.509"/>
<polygon fill="midnightblue" stroke="midnightblue" points="474.49,-206.26 473.944,-195.679 467.772,-204.291 474.49,-206.26"/>
</g>
<!-- Node26&#45;&gt;Node15 -->
<g id="edge102" class="edge"><title>Node26&#45;&gt;Node15</title>
<path fill="none" stroke="midnightblue" d="M429.562,-290.431C411.805,-276.642 379.53,-251.927 351.074,-232 335.828,-221.323 318.353,-209.897 304.437,-200.985"/>
<polygon fill="midnightblue" stroke="midnightblue" points="306.18,-197.945 295.865,-195.524 302.419,-203.849 306.18,-197.945"/>
</g>
<!-- Node26&#45;&gt;Node16 -->
<g id="edge100" class="edge"><title>Node26&#45;&gt;Node16</title>
<path fill="none" stroke="midnightblue" d="M362.318,-294.706C294.548,-288.021 204.266,-275.4 175.074,-254 139.178,-227.686 121.203,-176.022 113.644,-147.364"/>
<polygon fill="midnightblue" stroke="midnightblue" points="117.031,-146.48 111.241,-137.607 110.234,-148.154 117.031,-146.48"/>
</g>
<!-- Node26&#45;&gt;Node19 -->
<g id="edge116" class="edge"><title>Node26&#45;&gt;Node19</title>
<path fill="none" stroke="midnightblue" d="M362.513,-294.046C282.873,-286.284 167.152,-272.363 126.074,-254 99.7058,-242.213 75.0015,-219.607 59.516,-203.482"/>
<polygon fill="midnightblue" stroke="midnightblue" points="61.6751,-200.665 52.2984,-195.733 56.5526,-205.436 61.6751,-200.665"/>
</g>
<!-- Node27 -->
<g id="node80" class="node"><title>Node27</title>
<a xlink:href="cv___derangement_8h.html" target="_top" xlink:title="../Datatypes/cv_Derangement.h">
<polygon fill="white" stroke="black" points="818.074,-174.5 818.074,-195.5 988.074,-195.5 988.074,-174.5 818.074,-174.5"/>
<text text-anchor="middle" x="903.074" y="-182.5" font-family="DejaVuSans" font-size="10.00">../Datatypes/cv_Derangement.h</text>
</a>
</g>
<!-- Node26&#45;&gt;Node27 -->
<g id="edge106" class="edge"><title>Node26&#45;&gt;Node27</title>
<path fill="none" stroke="midnightblue" d="M485.115,-290.398C569.557,-269.104 759.527,-221.199 851.39,-198.033"/>
<polygon fill="midnightblue" stroke="midnightblue" points="852.456,-201.374 861.296,-195.535 850.744,-194.587 852.456,-201.374"/>
</g>
<!-- Node27&#45;&gt;Node11 -->
<g id="edge108" class="edge"><title>Node27&#45;&gt;Node11</title>
<path fill="none" stroke="midnightblue" d="M924.258,-174.277C946.941,-161.309 977.809,-138.419 963.074,-116 916.951,-45.8254 812.871,-22.3338 757.067,-14.635"/>
<polygon fill="midnightblue" stroke="midnightblue" points="757.271,-11.1326 746.908,-13.335 756.383,-18.076 757.271,-11.1326"/>
</g>
<!-- Node27&#45;&gt;Node12 -->
<g id="edge110" class="edge"><title>Node27&#45;&gt;Node12</title>
<path fill="none" stroke="midnightblue" d="M888.261,-174.337C868.79,-160.448 833.382,-135.624 802.074,-116 784.524,-105 764.345,-93.4206 748.396,-84.5079"/>
<polygon fill="midnightblue" stroke="midnightblue" points="749.988,-81.3885 739.547,-79.5929 746.589,-87.5081 749.988,-81.3885"/>
</g>
<!-- Node27&#45;&gt;Node14 -->
<g id="edge112" class="edge"><title>Node27&#45;&gt;Node14</title>
<path fill="none" stroke="midnightblue" d="M903.257,-174.362C903.385,-166.922 903.561,-156.743 903.716,-147.728"/>
<polygon fill="midnightblue" stroke="midnightblue" points="907.219,-147.63 903.892,-137.571 900.22,-147.509 907.219,-147.63"/>
</g>
<!-- Node28&#45;&gt;Node19 -->
<g id="edge126" class="edge"><title>Node28&#45;&gt;Node19</title>
<path fill="none" stroke="midnightblue" d="M625.466,-350.505C476.964,-331.386 131.979,-284.282 88.0738,-254 70.5937,-241.944 58.2528,-220.662 50.9697,-204.911"/>
<polygon fill="midnightblue" stroke="midnightblue" points="54.0887,-203.305 46.9109,-195.512 47.6623,-206.081 54.0887,-203.305"/>
</g>
<!-- Node28&#45;&gt;Node21 -->
<g id="edge124" class="edge"><title>Node28&#45;&gt;Node21</title>
<path fill="none" stroke="midnightblue" d="M727.481,-348.497C758.725,-338.959 804.974,-324.841 838.931,-314.475"/>
<polygon fill="midnightblue" stroke="midnightblue" points="840.059,-317.79 848.602,-311.523 838.015,-311.095 840.059,-317.79"/>
</g>
<!-- Node28&#45;&gt;Node22 -->
<g id="edge122" class="edge"><title>Node28&#45;&gt;Node22</title>
<path fill="none" stroke="midnightblue" d="M760.86,-350.065C846.51,-338.774 992.533,-319.526 1073.89,-308.801"/>
<polygon fill="midnightblue" stroke="midnightblue" points="1074.51,-312.25 1083.96,-307.473 1073.59,-305.31 1074.51,-312.25"/>
</g>
<!-- Node28&#45;&gt;Node26 -->
<g id="edge120" class="edge"><title>Node28&#45;&gt;Node26</title>
<path fill="none" stroke="midnightblue" d="M647.801,-348.497C605.809,-338.755 543.215,-324.233 498.302,-313.813"/>
<polygon fill="midnightblue" stroke="midnightblue" points="498.964,-310.374 488.432,-311.523 497.382,-317.193 498.964,-310.374"/>
</g>
</g>
</svg>
