<?xml version="1.0" encoding="UTF-8" standalone="no"?>
<!DOCTYPE svg PUBLIC "-//W3C//DTD SVG 1.1//EN"
 "http://www.w3.org/Graphics/SVG/1.1/DTD/svg11.dtd">
<!-- Generated by graphviz version 2.26.3 (20100126.1600)
 -->
<!-- Title: G Pages: 1 -->
<svg width="1166pt" height="146pt"
 viewBox="0.00 0.00 1166.00 146.00" xmlns="http://www.w3.org/2000/svg" xmlns:xlink="http://www.w3.org/1999/xlink">
<g id="graph1" class="graph" transform="scale(1 1) rotate(0) translate(4 142)">
<title>G</title>
<polygon fill="white" stroke="white" points="-4,5 -4,-142 1163,-142 1163,5 -4,5"/>
<!-- Node1 -->
<g id="node1" class="node"><title>Node1</title>
<polygon fill="#bfbfbf" stroke="black" points="226,-116.5 226,-137.5 360,-137.5 360,-116.5 226,-116.5"/>
<text text-anchor="middle" x="293" y="-124.5" font-family="DejaVuSans" font-size="10.00">src/Draw/DrawSheet.cpp</text>
</g>
<!-- Node2 -->
<g id="node3" class="node"><title>Node2</title>
<polygon fill="white" stroke="#bfbfbf" points="-0.5,-58.5 -0.5,-79.5 44.5,-79.5 44.5,-58.5 -0.5,-58.5"/>
<text text-anchor="middle" x="22" y="-66.5" font-family="DejaVuSans" font-size="10.00">QFont</text>
</g>
<!-- Node1&#45;&gt;Node2 -->
<g id="edge2" class="edge"><title>Node1&#45;&gt;Node2</title>
<path fill="none" stroke="midnightblue" d="M225.917,-116.593C179.813,-108.813 117.12,-97.0008 54.2463,-80.0861"/>
<polygon fill="midnightblue" stroke="midnightblue" points="55.1333,-76.7002 44.5643,-77.4406 53.2882,-83.4527 55.1333,-76.7002"/>
</g>
<!-- Node3 -->
<g id="node5" class="node"><title>Node3</title>
<polygon fill="white" stroke="#bfbfbf" points="61.5,-58.5 61.5,-79.5 118.5,-79.5 118.5,-58.5 61.5,-58.5"/>
<text text-anchor="middle" x="90" y="-66.5" font-family="DejaVuSans" font-size="10.00">QPainter</text>
</g>
<!-- Node1&#45;&gt;Node3 -->
<g id="edge4" class="edge"><title>Node1&#45;&gt;Node3</title>
<path fill="none" stroke="midnightblue" d="M255.381,-116.5C223.814,-107.655 177.282,-94.5398 128.463,-80.4042"/>
<polygon fill="midnightblue" stroke="midnightblue" points="129.252,-76.9887 118.672,-77.5644 127.301,-83.7117 129.252,-76.9887"/>
</g>
<!-- Node4 -->
<g id="node7" class="node"><title>Node4</title>
<polygon fill="white" stroke="#bfbfbf" points="136,-58.5 136,-79.5 192,-79.5 192,-58.5 136,-58.5"/>
<text text-anchor="middle" x="164" y="-66.5" font-family="DejaVuSans" font-size="10.00">QDebug</text>
</g>
<!-- Node1&#45;&gt;Node4 -->
<g id="edge6" class="edge"><title>Node1&#45;&gt;Node4</title>
<path fill="none" stroke="midnightblue" d="M269.639,-116.497C249.309,-107.356 219.622,-94.0082 196.891,-83.7883"/>
<polygon fill="midnightblue" stroke="midnightblue" points="198.179,-80.5298 187.623,-79.6212 195.308,-86.9142 198.179,-80.5298"/>
</g>
<!-- Node5 -->
<g id="node9" class="node"><title>Node5</title>
<polygon fill="white" stroke="#bfbfbf" points="209.5,-58.5 209.5,-79.5 260.5,-79.5 260.5,-58.5 209.5,-58.5"/>
<text text-anchor="middle" x="235" y="-66.5" font-family="DejaVuSans" font-size="10.00">math.h</text>
</g>
<!-- Node1&#45;&gt;Node5 -->
<g id="edge8" class="edge"><title>Node1&#45;&gt;Node5</title>
<path fill="none" stroke="midnightblue" d="M282.362,-116.362C274.104,-108.104 262.472,-96.4725 252.803,-86.8029"/>
<polygon fill="midnightblue" stroke="midnightblue" points="255.117,-84.1669 245.571,-79.5707 250.167,-89.1166 255.117,-84.1669"/>
</g>
<!-- Node6 -->
<g id="node11" class="node"><title>Node6</title>
<polygon fill="white" stroke="#bfbfbf" points="277.5,-58.5 277.5,-79.5 426.5,-79.5 426.5,-58.5 277.5,-58.5"/>
<text text-anchor="middle" x="352" y="-66.5" font-family="DejaVuSans" font-size="10.00">Storage/StorageTemplate.h</text>
</g>
<!-- Node1&#45;&gt;Node6 -->
<g id="edge10" class="edge"><title>Node1&#45;&gt;Node6</title>
<path fill="none" stroke="midnightblue" d="M303.822,-116.362C312.221,-108.104 324.054,-96.4725 333.89,-86.8029"/>
<polygon fill="midnightblue" stroke="midnightblue" points="336.569,-89.077 341.247,-79.5707 331.662,-84.0851 336.569,-89.077"/>
</g>
<!-- Node7 -->
<g id="node13" class="node"><title>Node7</title>
<polygon fill="white" stroke="#bfbfbf" points="443.5,-58.5 443.5,-79.5 570.5,-79.5 570.5,-58.5 443.5,-58.5"/>
<text text-anchor="middle" x="507" y="-66.5" font-family="DejaVuSans" font-size="10.00">Exceptions/Exception.h</text>
</g>
<!-- Node1&#45;&gt;Node7 -->
<g id="edge12" class="edge"><title>Node1&#45;&gt;Node7</title>
<path fill="none" stroke="midnightblue" d="M331.754,-116.497C367.246,-106.877 419.931,-92.5981 458.264,-82.209"/>
<polygon fill="midnightblue" stroke="midnightblue" points="459.437,-85.5172 468.174,-79.5231 457.606,-78.7609 459.437,-85.5172"/>
</g>
<!-- Node8 -->
<g id="node15" class="node"><title>Node8</title>
<polygon fill="white" stroke="#bfbfbf" points="587.5,-58.5 587.5,-79.5 676.5,-79.5 676.5,-58.5 587.5,-58.5"/>
<text text-anchor="middle" x="632" y="-66.5" font-family="DejaVuSans" font-size="10.00">Config/Config.h</text>
</g>
<!-- Node1&#45;&gt;Node8 -->
<g id="edge14" class="edge"><title>Node1&#45;&gt;Node8</title>
<path fill="none" stroke="midnightblue" d="M360.171,-116.773C415.836,-108.112 497.284,-95.0126 577.244,-80.2772"/>
<polygon fill="midnightblue" stroke="midnightblue" points="578.299,-83.6414 587.494,-78.3777 577.023,-76.7586 578.299,-83.6414"/>
</g>
<!-- Node9 -->
<g id="node17" class="node"><title>Node9</title>
<a xlink:href="_draw_sheet_8h.html" target="_top" xlink:title="DrawSheet.h">
<polygon fill="white" stroke="black" points="694,-58.5 694,-79.5 772,-79.5 772,-58.5 694,-58.5"/>
<text text-anchor="middle" x="733" y="-66.5" font-family="DejaVuSans" font-size="10.00">DrawSheet.h</text>
</a>
</g>
<!-- Node1&#45;&gt;Node9 -->
<g id="edge16" class="edge"><title>Node1&#45;&gt;Node9</title>
<path fill="none" stroke="midnightblue" d="M360.249,-121.123C436.44,-113.974 564.482,-100.477 683.74,-80.0816"/>
<polygon fill="midnightblue" stroke="midnightblue" points="684.519,-83.4989 693.776,-78.3451 683.326,-76.6014 684.519,-83.4989"/>
</g>
<!-- Node10 -->
<g id="node19" class="node"><title>Node10</title>
<polygon fill="white" stroke="#bfbfbf" points="360,-0.5 360,-21.5 416,-21.5 416,-0.5 360,-0.5"/>
<text text-anchor="middle" x="388" y="-8.5" font-family="DejaVuSans" font-size="10.00">QPrinter</text>
</g>
<!-- Node9&#45;&gt;Node10 -->
<g id="edge18" class="edge"><title>Node9&#45;&gt;Node10</title>
<path fill="none" stroke="midnightblue" d="M693.765,-59.7138C690.805,-59.1037 687.859,-58.5245 685,-58 573.394,-37.526 540.786,-46.183 426.043,-21.9738"/>
<polygon fill="midnightblue" stroke="midnightblue" points="426.68,-18.5308 416.168,-19.8528 425.21,-25.3747 426.68,-18.5308"/>
</g>
<!-- Node11 -->
<g id="node21" class="node"><title>Node11</title>
<polygon fill="white" stroke="#bfbfbf" points="433.5,-0.5 433.5,-21.5 482.5,-21.5 482.5,-0.5 433.5,-0.5"/>
<text text-anchor="middle" x="458" y="-8.5" font-family="DejaVuSans" font-size="10.00">QColor</text>
</g>
<!-- Node9&#45;&gt;Node11 -->
<g id="edge20" class="edge"><title>Node9&#45;&gt;Node11</title>
<path fill="none" stroke="midnightblue" d="M693.997,-59.9184C690.956,-59.2542 687.93,-58.6073 685,-58 602.234,-40.8448 577.671,-43.6776 492.587,-22.1827"/>
<polygon fill="midnightblue" stroke="midnightblue" points="493.313,-18.7557 482.756,-19.6605 491.573,-25.5361 493.313,-18.7557"/>
</g>
<!-- Node12 -->
<g id="node23" class="node"><title>Node12</title>
<polygon fill="white" stroke="#bfbfbf" points="500,-0.5 500,-21.5 652,-21.5 652,-0.5 500,-0.5"/>
<text text-anchor="middle" x="576" y="-8.5" font-family="DejaVuSans" font-size="10.00">Storage/StorageCharacter.h</text>
</g>
<!-- Node9&#45;&gt;Node12 -->
<g id="edge22" class="edge"><title>Node9&#45;&gt;Node12</title>
<path fill="none" stroke="midnightblue" d="M704.568,-58.4966C679.195,-49.1229 641.843,-35.3242 613.93,-25.0122"/>
<polygon fill="midnightblue" stroke="midnightblue" points="615.078,-21.7054 604.485,-21.5231 612.652,-28.2716 615.078,-21.7054"/>
</g>
<!-- Node13 -->
<g id="node25" class="node"><title>Node13</title>
<polygon fill="white" stroke="#bfbfbf" points="670,-0.5 670,-21.5 796,-21.5 796,-0.5 670,-0.5"/>
<text text-anchor="middle" x="733" y="-8.5" font-family="DejaVuSans" font-size="10.00">Calc/CalcAdvantages.h</text>
</g>
<!-- Node9&#45;&gt;Node13 -->
<g id="edge24" class="edge"><title>Node9&#45;&gt;Node13</title>
<path fill="none" stroke="midnightblue" d="M733,-58.3619C733,-50.9219 733,-40.7427 733,-31.7276"/>
<polygon fill="midnightblue" stroke="midnightblue" points="736.5,-31.5706 733,-21.5707 729.5,-31.5707 736.5,-31.5706"/>
</g>
<!-- Node14 -->
<g id="node27" class="node"><title>Node14</title>
<polygon fill="white" stroke="#bfbfbf" points="813.5,-0.5 813.5,-21.5 944.5,-21.5 944.5,-0.5 813.5,-0.5"/>
<text text-anchor="middle" x="879" y="-8.5" font-family="DejaVuSans" font-size="10.00">Datatypes/cv_Species.h</text>
</g>
<!-- Node9&#45;&gt;Node14 -->
<g id="edge26" class="edge"><title>Node9&#45;&gt;Node14</title>
<path fill="none" stroke="midnightblue" d="M759.439,-58.4966C782.756,-49.2337 816.95,-35.6499 842.804,-25.3793"/>
<polygon fill="midnightblue" stroke="midnightblue" points="844.263,-28.566 852.264,-21.6212 841.678,-22.0605 844.263,-28.566"/>
</g>
<!-- Node15 -->
<g id="node29" class="node"><title>Node15</title>
<polygon fill="white" stroke="#bfbfbf" points="961.5,-0.5 961.5,-21.5 1086.5,-21.5 1086.5,-0.5 961.5,-0.5"/>
<text text-anchor="middle" x="1024" y="-8.5" font-family="DejaVuSans" font-size="10.00">Datatypes/cv_Shape.h</text>
</g>
<!-- Node9&#45;&gt;Node15 -->
<g id="edge28" class="edge"><title>Node9&#45;&gt;Node15</title>
<path fill="none" stroke="midnightblue" d="M772.246,-61.1779C820.688,-51.5227 903.68,-34.9813 961.064,-23.544"/>
<polygon fill="midnightblue" stroke="midnightblue" points="961.987,-26.929 971.11,-21.5417 960.618,-20.064 961.987,-26.929"/>
</g>
<!-- Node16 -->
<g id="node31" class="node"><title>Node16</title>
<polygon fill="white" stroke="#bfbfbf" points="1103.5,-0.5 1103.5,-21.5 1158.5,-21.5 1158.5,-0.5 1103.5,-0.5"/>
<text text-anchor="middle" x="1131" y="-8.5" font-family="DejaVuSans" font-size="10.00">QObject</text>
</g>
<!-- Node9&#45;&gt;Node16 -->
<g id="edge30" class="edge"><title>Node9&#45;&gt;Node16</title>
<path fill="none" stroke="midnightblue" d="M772.205,-66.0749C837.263,-60.7529 971.677,-47.7745 1093.36,-22.1068"/>
<polygon fill="midnightblue" stroke="midnightblue" points="1094.17,-25.5123 1103.21,-19.9935 1092.7,-18.6679 1094.17,-25.5123"/>
</g>
</g>
</svg>
