<?xml version="1.0" encoding="UTF-8" standalone="no"?>
<!DOCTYPE svg PUBLIC "-//W3C//DTD SVG 1.1//EN"
 "http://www.w3.org/Graphics/SVG/1.1/DTD/svg11.dtd">
<!-- Generated by graphviz version 2.26.3 (20100126.1600)
 -->
<!-- Title: G Pages: 1 -->
<svg width="584pt" height="88pt"
 viewBox="0.00 0.00 584.00 88.00" xmlns="http://www.w3.org/2000/svg" xmlns:xlink="http://www.w3.org/1999/xlink">
<g id="graph1" class="graph" transform="scale(1 1) rotate(0) translate(4 84)">
<title>G</title>
<polygon fill="white" stroke="white" points="-4,5 -4,-84 581,-84 581,5 -4,5"/>
<!-- Node1 -->
<g id="node1" class="node"><title>Node1</title>
<polygon fill="#bfbfbf" stroke="black" points="190,-58.5 190,-79.5 334,-79.5 334,-58.5 190,-58.5"/>
<text text-anchor="middle" x="262" y="-66.5" font-family="DejaVuSans" font-size="10.00">src/Exceptions/Exception.h</text>
</g>
<!-- Node2 -->
<g id="node3" class="node"><title>Node2</title>
<polygon fill="white" stroke="#bfbfbf" points="-0.5,-0.5 -0.5,-21.5 52.5,-21.5 52.5,-0.5 -0.5,-0.5"/>
<text text-anchor="middle" x="26" y="-8.5" font-family="DejaVuSans" font-size="10.00">QString</text>
</g>
<!-- Node1&#45;&gt;Node2 -->
<g id="edge2" class="edge"><title>Node1&#45;&gt;Node2</title>
<path fill="none" stroke="midnightblue" d="M212.178,-58.4377C173.578,-50.0082 118.577,-37.4644 62.4429,-22.2771"/>
<polygon fill="midnightblue" stroke="midnightblue" points="63.261,-18.8724 52.6922,-19.615 61.4173,-25.6252 63.261,-18.8724"/>
</g>
<!-- Node3 -->
<g id="node5" class="node"><title>Node3</title>
<polygon fill="white" stroke="#bfbfbf" points="69.5,-0.5 69.5,-21.5 182.5,-21.5 182.5,-0.5 69.5,-0.5"/>
<text text-anchor="middle" x="126" y="-8.5" font-family="DejaVuSans" font-size="10.00">Datatypes/cv_Trait.h</text>
</g>
<!-- Node1&#45;&gt;Node3 -->
<g id="edge4" class="edge"><title>Node1&#45;&gt;Node3</title>
<path fill="none" stroke="midnightblue" d="M237.371,-58.4966C215.843,-49.3154 184.36,-35.8889 160.355,-25.6516"/>
<polygon fill="midnightblue" stroke="midnightblue" points="161.476,-22.3247 150.905,-21.6212 158.73,-28.7636 161.476,-22.3247"/>
</g>
<!-- Node4 -->
<g id="node7" class="node"><title>Node4</title>
<polygon fill="white" stroke="#bfbfbf" points="199.5,-0.5 199.5,-21.5 324.5,-21.5 324.5,-0.5 199.5,-0.5"/>
<text text-anchor="middle" x="262" y="-8.5" font-family="DejaVuSans" font-size="10.00">Datatypes/cv_Shape.h</text>
</g>
<!-- Node1&#45;&gt;Node4 -->
<g id="edge6" class="edge"><title>Node1&#45;&gt;Node4</title>
<path fill="none" stroke="midnightblue" d="M262,-58.3619C262,-50.9219 262,-40.7427 262,-31.7276"/>
<polygon fill="midnightblue" stroke="midnightblue" points="265.5,-31.5706 262,-21.5707 258.5,-31.5707 265.5,-31.5706"/>
</g>
<!-- Node5 -->
<g id="node9" class="node"><title>Node5</title>
<polygon fill="white" stroke="#bfbfbf" points="342,-0.5 342,-21.5 470,-21.5 470,-0.5 342,-0.5"/>
<text text-anchor="middle" x="406" y="-8.5" font-family="DejaVuSans" font-size="10.00">Datatypes/cv_Identity.h</text>
</g>
<!-- Node1&#45;&gt;Node5 -->
<g id="edge8" class="edge"><title>Node1&#45;&gt;Node5</title>
<path fill="none" stroke="midnightblue" d="M288.077,-58.4966C311.075,-49.2337 344.8,-35.6499 370.3,-25.3793"/>
<polygon fill="midnightblue" stroke="midnightblue" points="371.662,-28.6039 379.63,-21.6212 369.047,-22.1108 371.662,-28.6039"/>
</g>
<!-- Node6 -->
<g id="node11" class="node"><title>Node6</title>
<polygon fill="white" stroke="#bfbfbf" points="487.5,-0.5 487.5,-21.5 576.5,-21.5 576.5,-0.5 487.5,-0.5"/>
<text text-anchor="middle" x="532" y="-8.5" font-family="DejaVuSans" font-size="10.00">Config/Config.h</text>
</g>
<!-- Node1&#45;&gt;Node6 -->
<g id="edge10" class="edge"><title>Node1&#45;&gt;Node6</title>
<path fill="none" stroke="midnightblue" d="M310.895,-58.4966C357.855,-48.4088 428.673,-33.1962 477.443,-22.7196"/>
<polygon fill="midnightblue" stroke="midnightblue" points="478.457,-26.0817 487.499,-20.5595 476.987,-19.2379 478.457,-26.0817"/>
</g>
</g>
</svg>
