<?xml version="1.0" encoding="UTF-8" standalone="no"?>
<!DOCTYPE svg PUBLIC "-//W3C//DTD SVG 1.1//EN"
 "http://www.w3.org/Graphics/SVG/1.1/DTD/svg11.dtd">
<!-- Generated by graphviz version 2.26.3 (20100126.1600)
 -->
<!-- Title: G Pages: 1 -->
<svg width="626pt" height="146pt"
 viewBox="0.00 0.00 626.00 146.00" xmlns="http://www.w3.org/2000/svg" xmlns:xlink="http://www.w3.org/1999/xlink">
<g id="graph1" class="graph" transform="scale(1 1) rotate(0) translate(4 142)">
<title>G</title>
<polygon fill="white" stroke="white" points="-4,5 -4,-142 623,-142 623,5 -4,5"/>
<!-- Node1 -->
<g id="node1" class="node"><title>Node1</title>
<polygon fill="#bfbfbf" stroke="black" points="144.5,-116.5 144.5,-137.5 299.5,-137.5 299.5,-116.5 144.5,-116.5"/>
<text text-anchor="middle" x="222" y="-124.5" font-family="DejaVuSans" font-size="10.00">src/Exceptions/Exception.cpp</text>
</g>
<!-- Node2 -->
<g id="node3" class="node"><title>Node2</title>
<polygon fill="white" stroke="#bfbfbf" points="121.5,-58.5 121.5,-79.5 176.5,-79.5 176.5,-58.5 121.5,-58.5"/>
<text text-anchor="middle" x="149" y="-66.5" font-family="DejaVuSans" font-size="10.00">QObject</text>
</g>
<!-- Node1&#45;&gt;Node2 -->
<g id="edge2" class="edge"><title>Node1&#45;&gt;Node2</title>
<path fill="none" stroke="midnightblue" d="M208.611,-116.362C197.909,-107.859 182.704,-95.7785 170.329,-85.9466"/>
<polygon fill="midnightblue" stroke="midnightblue" points="172.311,-83.0511 162.304,-79.5707 167.957,-88.5318 172.311,-83.0511"/>
</g>
<!-- Node3 -->
<g id="node5" class="node"><title>Node3</title>
<polygon fill="white" stroke="#bfbfbf" points="194,-58.5 194,-79.5 250,-79.5 250,-58.5 194,-58.5"/>
<text text-anchor="middle" x="222" y="-66.5" font-family="DejaVuSans" font-size="10.00">QDebug</text>
</g>
<!-- Node1&#45;&gt;Node3 -->
<g id="edge4" class="edge"><title>Node1&#45;&gt;Node3</title>
<path fill="none" stroke="midnightblue" d="M222,-116.362C222,-108.922 222,-98.7427 222,-89.7276"/>
<polygon fill="midnightblue" stroke="midnightblue" points="225.5,-89.5706 222,-79.5707 218.5,-89.5707 225.5,-89.5706"/>
</g>
<!-- Node4 -->
<g id="node7" class="node"><title>Node4</title>
<a xlink:href="_exception_8h.html" target="_top" xlink:title="Exception.h">
<polygon fill="white" stroke="black" points="268,-58.5 268,-79.5 340,-79.5 340,-58.5 268,-58.5"/>
<text text-anchor="middle" x="304" y="-66.5" font-family="DejaVuSans" font-size="10.00">Exception.h</text>
</a>
</g>
<!-- Node1&#45;&gt;Node4 -->
<g id="edge6" class="edge"><title>Node1&#45;&gt;Node4</title>
<path fill="none" stroke="midnightblue" d="M237.04,-116.362C249.293,-107.696 266.799,-95.3126 280.839,-85.3819"/>
<polygon fill="midnightblue" stroke="midnightblue" points="282.912,-88.2028 289.055,-79.5707 278.87,-82.4879 282.912,-88.2028"/>
</g>
<!-- Node5 -->
<g id="node9" class="node"><title>Node5</title>
<polygon fill="white" stroke="#bfbfbf" points="-0.5,-0.5 -0.5,-21.5 52.5,-21.5 52.5,-0.5 -0.5,-0.5"/>
<text text-anchor="middle" x="26" y="-8.5" font-family="DejaVuSans" font-size="10.00">QString</text>
</g>
<!-- Node4&#45;&gt;Node5 -->
<g id="edge8" class="edge"><title>Node4&#45;&gt;Node5</title>
<path fill="none" stroke="midnightblue" d="M267.694,-59.9274C264.757,-59.2539 261.832,-58.603 259,-58 174.594,-40.0273 149.577,-43.1916 62.4349,-22.1525"/>
<polygon fill="midnightblue" stroke="midnightblue" points="63.2019,-18.7369 52.656,-19.7541 61.5344,-25.5354 63.2019,-18.7369"/>
</g>
<!-- Node6 -->
<g id="node11" class="node"><title>Node6</title>
<polygon fill="white" stroke="#bfbfbf" points="70,-0.5 70,-21.5 224,-21.5 224,-0.5 70,-0.5"/>
<text text-anchor="middle" x="147" y="-8.5" font-family="DejaVuSans" font-size="10.00">Datatypes/cv_AbstractTrait.h</text>
</g>
<!-- Node4&#45;&gt;Node6 -->
<g id="edge10" class="edge"><title>Node4&#45;&gt;Node6</title>
<path fill="none" stroke="midnightblue" d="M275.568,-58.4966C250.195,-49.1229 212.843,-35.3242 184.93,-25.0122"/>
<polygon fill="midnightblue" stroke="midnightblue" points="186.078,-21.7054 175.485,-21.5231 183.652,-28.2716 186.078,-21.7054"/>
</g>
<!-- Node7 -->
<g id="node13" class="node"><title>Node7</title>
<polygon fill="white" stroke="#bfbfbf" points="241.5,-0.5 241.5,-21.5 366.5,-21.5 366.5,-0.5 241.5,-0.5"/>
<text text-anchor="middle" x="304" y="-8.5" font-family="DejaVuSans" font-size="10.00">Datatypes/cv_Shape.h</text>
</g>
<!-- Node4&#45;&gt;Node7 -->
<g id="edge12" class="edge"><title>Node4&#45;&gt;Node7</title>
<path fill="none" stroke="midnightblue" d="M304,-58.3619C304,-50.9219 304,-40.7427 304,-31.7276"/>
<polygon fill="midnightblue" stroke="midnightblue" points="307.5,-31.5706 304,-21.5707 300.5,-31.5707 307.5,-31.5706"/>
</g>
<!-- Node8 -->
<g id="node15" class="node"><title>Node8</title>
<polygon fill="white" stroke="#bfbfbf" points="384,-0.5 384,-21.5 512,-21.5 512,-0.5 384,-0.5"/>
<text text-anchor="middle" x="448" y="-8.5" font-family="DejaVuSans" font-size="10.00">Datatypes/cv_Identity.h</text>
</g>
<!-- Node4&#45;&gt;Node8 -->
<g id="edge14" class="edge"><title>Node4&#45;&gt;Node8</title>
<path fill="none" stroke="midnightblue" d="M330.077,-58.4966C353.075,-49.2337 386.8,-35.6499 412.3,-25.3793"/>
<polygon fill="midnightblue" stroke="midnightblue" points="413.662,-28.6039 421.63,-21.6212 411.047,-22.1108 413.662,-28.6039"/>
</g>
<!-- Node9 -->
<g id="node17" class="node"><title>Node9</title>
<polygon fill="white" stroke="#bfbfbf" points="529.5,-0.5 529.5,-21.5 618.5,-21.5 618.5,-0.5 529.5,-0.5"/>
<text text-anchor="middle" x="574" y="-8.5" font-family="DejaVuSans" font-size="10.00">Config/Config.h</text>
</g>
<!-- Node4&#45;&gt;Node9 -->
<g id="edge16" class="edge"><title>Node4&#45;&gt;Node9</title>
<path fill="none" stroke="midnightblue" d="M340.133,-61.238C386.032,-51.3783 465.682,-34.2683 519.108,-22.7915"/>
<polygon fill="midnightblue" stroke="midnightblue" points="520.053,-26.1684 529.095,-20.6462 518.583,-19.3246 520.053,-26.1684"/>
</g>
</g>
</svg>
