<?xml version="1.0" encoding="UTF-8" standalone="no"?>
<!DOCTYPE svg PUBLIC "-//W3C//DTD SVG 1.1//EN"
 "http://www.w3.org/Graphics/SVG/1.1/DTD/svg11.dtd">
<!-- Generated by graphviz version 2.26.3 (20100126.1600)
 -->
<!-- Title: G Pages: 1 -->
<svg width="548pt" height="204pt"
 viewBox="0.00 0.00 548.00 204.00" xmlns="http://www.w3.org/2000/svg" xmlns:xlink="http://www.w3.org/1999/xlink">
<g id="graph1" class="graph" transform="scale(1 1) rotate(0) translate(4 200)">
<title>G</title>
<polygon fill="white" stroke="white" points="-4,5 -4,-200 545,-200 545,5 -4,5"/>
<!-- Node1 -->
<g id="node1" class="node"><title>Node1</title>
<polygon fill="#bfbfbf" stroke="black" points="39,-174.5 39,-195.5 255,-195.5 255,-174.5 39,-174.5"/>
<text text-anchor="middle" x="147" y="-182.5" font-family="DejaVuSans" font-size="10.00">src/Exceptions/ExceptionMessageBox.cpp</text>
</g>
<!-- Node2 -->
<g id="node3" class="node"><title>Node2</title>
<polygon fill="white" stroke="#bfbfbf" points="-0.5,-116.5 -0.5,-137.5 54.5,-137.5 54.5,-116.5 -0.5,-116.5"/>
<text text-anchor="middle" x="27" y="-124.5" font-family="DejaVuSans" font-size="10.00">QObject</text>
</g>
<!-- Node1&#45;&gt;Node2 -->
<g id="edge2" class="edge"><title>Node1&#45;&gt;Node2</title>
<path fill="none" stroke="midnightblue" d="M125.269,-174.497C106.526,-165.438 79.2335,-152.246 58.1643,-142.063"/>
<polygon fill="midnightblue" stroke="midnightblue" points="59.5015,-138.822 48.9749,-137.621 56.4553,-145.124 59.5015,-138.822"/>
</g>
<!-- Node3 -->
<g id="node5" class="node"><title>Node3</title>
<polygon fill="white" stroke="#bfbfbf" points="72,-116.5 72,-137.5 128,-137.5 128,-116.5 72,-116.5"/>
<text text-anchor="middle" x="100" y="-124.5" font-family="DejaVuSans" font-size="10.00">QDebug</text>
</g>
<!-- Node1&#45;&gt;Node3 -->
<g id="edge4" class="edge"><title>Node1&#45;&gt;Node3</title>
<path fill="none" stroke="midnightblue" d="M138.379,-174.362C131.82,-166.268 122.634,-154.932 114.894,-145.38"/>
<polygon fill="midnightblue" stroke="midnightblue" points="117.581,-143.136 108.566,-137.571 112.142,-147.544 117.581,-143.136"/>
</g>
<!-- Node4 -->
<g id="node7" class="node"><title>Node4</title>
<a xlink:href="_config_8h.html" target="_top" xlink:title="../Config/Config.h">
<polygon fill="white" stroke="black" points="146,-116.5 146,-137.5 244,-137.5 244,-116.5 146,-116.5"/>
<text text-anchor="middle" x="195" y="-124.5" font-family="DejaVuSans" font-size="10.00">../Config/Config.h</text>
</a>
</g>
<!-- Node1&#45;&gt;Node4 -->
<g id="edge6" class="edge"><title>Node1&#45;&gt;Node4</title>
<path fill="none" stroke="midnightblue" d="M155.804,-174.362C162.502,-166.268 171.884,-154.932 179.789,-145.38"/>
<polygon fill="midnightblue" stroke="midnightblue" points="182.573,-147.506 186.252,-137.571 177.18,-143.043 182.573,-147.506"/>
</g>
<!-- Node7 -->
<g id="node13" class="node"><title>Node7</title>
<a xlink:href="_exception_message_box_8h_source.html" target="_top" xlink:title="ExceptionMessageBox.h">
<polygon fill="white" stroke="black" points="261.5,-116.5 261.5,-137.5 394.5,-137.5 394.5,-116.5 261.5,-116.5"/>
<text text-anchor="middle" x="328" y="-124.5" font-family="DejaVuSans" font-size="10.00">ExceptionMessageBox.h</text>
</a>
</g>
<!-- Node1&#45;&gt;Node7 -->
<g id="edge12" class="edge"><title>Node1&#45;&gt;Node7</title>
<path fill="none" stroke="midnightblue" d="M179.778,-174.497C209.413,-165 253.222,-150.962 285.531,-140.609"/>
<polygon fill="midnightblue" stroke="midnightblue" points="286.706,-143.908 295.161,-137.523 284.57,-137.242 286.706,-143.908"/>
</g>
<!-- Node5 -->
<g id="node9" class="node"><title>Node5</title>
<polygon fill="white" stroke="#bfbfbf" points="231.5,-0.5 231.5,-21.5 284.5,-21.5 284.5,-0.5 231.5,-0.5"/>
<text text-anchor="middle" x="258" y="-8.5" font-family="DejaVuSans" font-size="10.00">QString</text>
</g>
<!-- Node4&#45;&gt;Node5 -->
<g id="edge8" class="edge"><title>Node4&#45;&gt;Node5</title>
<path fill="none" stroke="midnightblue" d="M186.254,-116.097C176.044,-101.949 161.886,-76.8446 173,-58 183.552,-40.1072 203.631,-28.5514 221.625,-21.377"/>
<polygon fill="midnightblue" stroke="midnightblue" points="223.142,-24.5492 231.333,-17.8296 220.739,-17.9744 223.142,-24.5492"/>
</g>
<!-- Node6 -->
<g id="node11" class="node"><title>Node6</title>
<polygon fill="white" stroke="#bfbfbf" points="181.5,-58.5 181.5,-79.5 230.5,-79.5 230.5,-58.5 181.5,-58.5"/>
<text text-anchor="middle" x="206" y="-66.5" font-family="DejaVuSans" font-size="10.00">QColor</text>
</g>
<!-- Node4&#45;&gt;Node6 -->
<g id="edge10" class="edge"><title>Node4&#45;&gt;Node6</title>
<path fill="none" stroke="midnightblue" d="M197.018,-116.362C198.444,-108.84 200.402,-98.5187 202.125,-89.4308"/>
<polygon fill="midnightblue" stroke="midnightblue" points="205.571,-90.0477 203.995,-79.5707 198.693,-88.7433 205.571,-90.0477"/>
</g>
<!-- Node7&#45;&gt;Node5 -->
<g id="edge14" class="edge"><title>Node7&#45;&gt;Node5</title>
<path fill="none" stroke="midnightblue" d="M312.439,-116.384C301.033,-107.825 286.025,-94.8046 277,-80 267.93,-65.1206 263.095,-45.8349 260.577,-31.4367"/>
<polygon fill="midnightblue" stroke="midnightblue" points="264.035,-30.8935 259.072,-21.5331 257.115,-31.9455 264.035,-30.8935"/>
</g>
<!-- Node8 -->
<g id="node16" class="node"><title>Node8</title>
<polygon fill="white" stroke="#bfbfbf" points="286,-58.5 286,-79.5 348,-79.5 348,-58.5 286,-58.5"/>
<text text-anchor="middle" x="317" y="-66.5" font-family="DejaVuSans" font-size="10.00">QSqlError</text>
</g>
<!-- Node7&#45;&gt;Node8 -->
<g id="edge16" class="edge"><title>Node7&#45;&gt;Node8</title>
<path fill="none" stroke="midnightblue" d="M325.982,-116.362C324.556,-108.84 322.598,-98.5187 320.875,-89.4308"/>
<polygon fill="midnightblue" stroke="midnightblue" points="324.307,-88.7433 319.005,-79.5707 317.429,-90.0477 324.307,-88.7433"/>
</g>
<!-- Node9 -->
<g id="node18" class="node"><title>Node9</title>
<a xlink:href="_exception_8h_source.html" target="_top" xlink:title="Exception.h">
<polygon fill="white" stroke="black" points="366,-58.5 366,-79.5 438,-79.5 438,-58.5 366,-58.5"/>
<text text-anchor="middle" x="402" y="-66.5" font-family="DejaVuSans" font-size="10.00">Exception.h</text>
</a>
</g>
<!-- Node7&#45;&gt;Node9 -->
<g id="edge18" class="edge"><title>Node7&#45;&gt;Node9</title>
<path fill="none" stroke="midnightblue" d="M341.573,-116.362C352.421,-107.859 367.834,-95.7785 380.379,-85.9466"/>
<polygon fill="midnightblue" stroke="midnightblue" points="382.802,-88.4942 388.513,-79.5707 378.484,-82.9848 382.802,-88.4942"/>
</g>
<!-- Node10 -->
<g id="node21" class="node"><title>Node10</title>
<polygon fill="white" stroke="#bfbfbf" points="455.5,-58.5 455.5,-79.5 540.5,-79.5 540.5,-58.5 455.5,-58.5"/>
<text text-anchor="middle" x="498" y="-66.5" font-family="DejaVuSans" font-size="10.00">QMessageBox</text>
</g>
<!-- Node7&#45;&gt;Node10 -->
<g id="edge22" class="edge"><title>Node7&#45;&gt;Node10</title>
<path fill="none" stroke="midnightblue" d="M358.786,-116.497C386.38,-107.082 427.058,-93.2036 457.325,-82.8773"/>
<polygon fill="midnightblue" stroke="midnightblue" points="458.822,-86.0646 467.157,-79.5231 456.562,-79.4396 458.822,-86.0646"/>
</g>
<!-- Node9&#45;&gt;Node5 -->
<g id="edge20" class="edge"><title>Node9&#45;&gt;Node5</title>
<path fill="none" stroke="midnightblue" d="M375.923,-58.4966C352.925,-49.2337 319.2,-35.6499 293.7,-25.3793"/>
<polygon fill="midnightblue" stroke="midnightblue" points="294.953,-22.1108 284.37,-21.6212 292.338,-28.6039 294.953,-22.1108"/>
</g>
</g>
</svg>
