<?xml version="1.0" encoding="UTF-8" standalone="no"?>
<!DOCTYPE svg PUBLIC "-//W3C//DTD SVG 1.1//EN"
 "http://www.w3.org/Graphics/SVG/1.1/DTD/svg11.dtd">
<!-- Generated by graphviz version 2.26.3 (20100126.1600)
 -->
<!-- Title: G Pages: 1 -->
<svg width="928pt" height="320pt"
 viewBox="0.00 0.00 927.63 320.00" xmlns="http://www.w3.org/2000/svg" xmlns:xlink="http://www.w3.org/1999/xlink">
<g id="graph1" class="graph" transform="scale(1 1) rotate(0) translate(4 316)">
<title>G</title>
<polygon fill="white" stroke="white" points="-4,5 -4,-316 924.628,-316 924.628,5 -4,5"/>
<!-- Node1 -->
<g id="node1" class="node"><title>Node1</title>
<polygon fill="#bfbfbf" stroke="black" points="432.128,-290.5 432.128,-311.5 587.128,-311.5 587.128,-290.5 432.128,-290.5"/>
<text text-anchor="middle" x="509.628" y="-298.5" font-family="DejaVuSans" font-size="10.00">src/Exceptions/Exception.cpp</text>
</g>
<!-- Node2 -->
<g id="node3" class="node"><title>Node2</title>
<polygon fill="white" stroke="#bfbfbf" points="409.128,-232.5 409.128,-253.5 464.128,-253.5 464.128,-232.5 409.128,-232.5"/>
<text text-anchor="middle" x="436.628" y="-240.5" font-family="DejaVuSans" font-size="10.00">QObject</text>
</g>
<!-- Node1&#45;&gt;Node2 -->
<g id="edge2" class="edge"><title>Node1&#45;&gt;Node2</title>
<path fill="none" stroke="midnightblue" d="M496.239,-290.362C485.537,-281.859 470.332,-269.779 457.957,-259.947"/>
<polygon fill="midnightblue" stroke="midnightblue" points="459.939,-257.051 449.933,-253.571 455.585,-262.532 459.939,-257.051"/>
</g>
<!-- Node3 -->
<g id="node5" class="node"><title>Node3</title>
<polygon fill="white" stroke="#bfbfbf" points="481.628,-232.5 481.628,-253.5 537.628,-253.5 537.628,-232.5 481.628,-232.5"/>
<text text-anchor="middle" x="509.628" y="-240.5" font-family="DejaVuSans" font-size="10.00">QDebug</text>
</g>
<!-- Node1&#45;&gt;Node3 -->
<g id="edge4" class="edge"><title>Node1&#45;&gt;Node3</title>
<path fill="none" stroke="midnightblue" d="M509.628,-290.362C509.628,-282.922 509.628,-272.743 509.628,-263.728"/>
<polygon fill="midnightblue" stroke="midnightblue" points="513.128,-263.571 509.628,-253.571 506.128,-263.571 513.128,-263.571"/>
</g>
<!-- Node4 -->
<g id="node7" class="node"><title>Node4</title>
<a xlink:href="_exception_8h_source.html" target="_top" xlink:title="Exception.h">
<polygon fill="white" stroke="black" points="555.628,-232.5 555.628,-253.5 627.628,-253.5 627.628,-232.5 555.628,-232.5"/>
<text text-anchor="middle" x="591.628" y="-240.5" font-family="DejaVuSans" font-size="10.00">Exception.h</text>
</a>
</g>
<!-- Node1&#45;&gt;Node4 -->
<g id="edge6" class="edge"><title>Node1&#45;&gt;Node4</title>
<path fill="none" stroke="midnightblue" d="M524.668,-290.362C536.921,-281.696 554.428,-269.313 568.468,-259.382"/>
<polygon fill="midnightblue" stroke="midnightblue" points="570.54,-262.203 576.683,-253.571 566.498,-256.488 570.54,-262.203"/>
</g>
<!-- Node5 -->
<g id="node9" class="node"><title>Node5</title>
<polygon fill="white" stroke="#bfbfbf" points="449.128,-0.5 449.128,-21.5 502.128,-21.5 502.128,-0.5 449.128,-0.5"/>
<text text-anchor="middle" x="475.628" y="-8.5" font-family="DejaVuSans" font-size="10.00">QString</text>
</g>
<!-- Node4&#45;&gt;Node5 -->
<g id="edge8" class="edge"><title>Node4&#45;&gt;Node5</title>
<path fill="none" stroke="midnightblue" d="M591.118,-232.366C589.202,-202.308 580.339,-115.197 540.628,-58 531.745,-45.2052 518.216,-34.6187 505.796,-26.7534"/>
<polygon fill="midnightblue" stroke="midnightblue" points="507.411,-23.6408 497.031,-21.5145 503.819,-29.6493 507.411,-23.6408"/>
</g>
<!-- Node6 -->
<g id="node11" class="node"><title>Node6</title>
<a xlink:href="cv___trait_8h.html" target="_top" xlink:title="../Datatypes/cv_Trait.h">
<polygon fill="white" stroke="black" points="310.628,-174.5 310.628,-195.5 432.628,-195.5 432.628,-174.5 310.628,-174.5"/>
<text text-anchor="middle" x="371.628" y="-182.5" font-family="DejaVuSans" font-size="10.00">../Datatypes/cv_Trait.h</text>
</a>
</g>
<!-- Node4&#45;&gt;Node6 -->
<g id="edge10" class="edge"><title>Node4&#45;&gt;Node6</title>
<path fill="none" stroke="midnightblue" d="M555.3,-233.422C518.77,-223.792 462.178,-208.872 421.466,-198.139"/>
<polygon fill="midnightblue" stroke="midnightblue" points="422.302,-194.74 411.74,-195.575 420.517,-201.509 422.302,-194.74"/>
</g>
<!-- Node13 -->
<g id="node33" class="node"><title>Node13</title>
<a xlink:href="cv___shape_8h.html" target="_top" xlink:title="../Datatypes/cv_Shape.h">
<polygon fill="white" stroke="black" points="619.628,-58.5 619.628,-79.5 753.628,-79.5 753.628,-58.5 619.628,-58.5"/>
<text text-anchor="middle" x="686.628" y="-66.5" font-family="DejaVuSans" font-size="10.00">../Datatypes/cv_Shape.h</text>
</a>
</g>
<!-- Node4&#45;&gt;Node13 -->
<g id="edge40" class="edge"><title>Node4&#45;&gt;Node13</title>
<path fill="none" stroke="midnightblue" d="M597.428,-232.377C612.96,-203.93 655.68,-125.684 675.835,-88.7689"/>
<polygon fill="midnightblue" stroke="midnightblue" points="678.942,-90.382 680.662,-79.9277 672.798,-87.0275 678.942,-90.382"/>
</g>
<!-- Node14 -->
<g id="node36" class="node"><title>Node14</title>
<a xlink:href="cv___identity_8h.html" target="_top" xlink:title="../Datatypes/cv_Identity.h">
<polygon fill="white" stroke="black" points="11.1281,-174.5 11.1281,-195.5 148.128,-195.5 148.128,-174.5 11.1281,-174.5"/>
<text text-anchor="middle" x="79.6281" y="-182.5" font-family="DejaVuSans" font-size="10.00">../Datatypes/cv_Identity.h</text>
</a>
</g>
<!-- Node4&#45;&gt;Node14 -->
<g id="edge44" class="edge"><title>Node4&#45;&gt;Node14</title>
<path fill="none" stroke="midnightblue" d="M555.37,-233.677C552.423,-233.06 549.482,-232.49 546.628,-232 411.356,-208.776 251.924,-195.766 158.684,-189.583"/>
<polygon fill="midnightblue" stroke="midnightblue" points="158.689,-186.076 148.482,-188.917 158.232,-193.062 158.689,-186.076"/>
</g>
<!-- Node16 -->
<g id="node44" class="node"><title>Node16</title>
<a xlink:href="_config_8h.html" target="_top" xlink:title="../Config/Config.h">
<polygon fill="white" stroke="black" points="758.628,-174.5 758.628,-195.5 856.628,-195.5 856.628,-174.5 758.628,-174.5"/>
<text text-anchor="middle" x="807.628" y="-182.5" font-family="DejaVuSans" font-size="10.00">../Config/Config.h</text>
</a>
</g>
<!-- Node4&#45;&gt;Node16 -->
<g id="edge56" class="edge"><title>Node4&#45;&gt;Node16</title>
<path fill="none" stroke="midnightblue" d="M627.782,-233.292C663.653,-223.66 718.878,-208.831 758.668,-198.147"/>
<polygon fill="midnightblue" stroke="midnightblue" points="759.68,-201.499 768.43,-195.525 757.864,-194.739 759.68,-201.499"/>
</g>
<!-- Node6&#45;&gt;Node5 -->
<g id="edge14" class="edge"><title>Node6&#45;&gt;Node5</title>
<path fill="none" stroke="midnightblue" d="M432.764,-175.197C473.623,-167.254 522.1,-154.65 534.628,-138 560.856,-103.141 521.33,-54.754 495.341,-28.9298"/>
<polygon fill="midnightblue" stroke="midnightblue" points="497.433,-26.086 487.798,-21.6797 492.582,-31.1328 497.433,-26.086"/>
</g>
<!-- Node7 -->
<g id="node13" class="node"><title>Node7</title>
<polygon fill="white" stroke="#bfbfbf" points="321.128,-116.5 321.128,-137.5 370.128,-137.5 370.128,-116.5 321.128,-116.5"/>
<text text-anchor="middle" x="345.628" y="-124.5" font-family="DejaVuSans" font-size="10.00">QFlags</text>
</g>
<!-- Node6&#45;&gt;Node7 -->
<g id="edge12" class="edge"><title>Node6&#45;&gt;Node7</title>
<path fill="none" stroke="midnightblue" d="M366.859,-174.362C363.414,-166.677 358.659,-156.069 354.522,-146.84"/>
<polygon fill="midnightblue" stroke="midnightblue" points="357.651,-145.264 350.367,-137.571 351.264,-148.127 357.651,-145.264"/>
</g>
<!-- Node8 -->
<g id="node16" class="node"><title>Node8</title>
<polygon fill="white" stroke="#bfbfbf" points="261.128,-58.5 261.128,-79.5 302.128,-79.5 302.128,-58.5 261.128,-58.5"/>
<text text-anchor="middle" x="281.628" y="-66.5" font-family="DejaVuSans" font-size="10.00">QList</text>
</g>
<!-- Node6&#45;&gt;Node8 -->
<g id="edge16" class="edge"><title>Node6&#45;&gt;Node8</title>
<path fill="none" stroke="midnightblue" d="M354.271,-174.437C341.415,-165.905 324.193,-152.896 312.628,-138 301.222,-123.309 292.948,-103.755 287.832,-89.2149"/>
<polygon fill="midnightblue" stroke="midnightblue" points="291.132,-88.0468 284.665,-79.6548 284.488,-90.2481 291.132,-88.0468"/>
</g>
<!-- Node9 -->
<g id="node18" class="node"><title>Node9</title>
<polygon fill="white" stroke="#bfbfbf" points="96.1281,-58.5 96.1281,-79.5 165.128,-79.5 165.128,-58.5 96.1281,-58.5"/>
<text text-anchor="middle" x="130.628" y="-66.5" font-family="DejaVuSans" font-size="10.00">QStringList</text>
</g>
<!-- Node6&#45;&gt;Node9 -->
<g id="edge18" class="edge"><title>Node6&#45;&gt;Node9</title>
<path fill="none" stroke="midnightblue" d="M310.457,-176.444C259.124,-168.264 190.738,-154.719 168.628,-138 152.675,-125.936 142.548,-105.137 136.796,-89.52"/>
<polygon fill="midnightblue" stroke="midnightblue" points="140.001,-88.0697 133.496,-79.7074 133.366,-90.3014 140.001,-88.0697"/>
</g>
<!-- Node10 -->
<g id="node20" class="node"><title>Node10</title>
<a xlink:href="cv___species_8h.html" target="_top" xlink:title="cv_Species.h">
<polygon fill="white" stroke="black" points="364.128,-58.5 364.128,-79.5 443.128,-79.5 443.128,-58.5 364.128,-58.5"/>
<text text-anchor="middle" x="403.628" y="-66.5" font-family="DejaVuSans" font-size="10.00">cv_Species.h</text>
</a>
</g>
<!-- Node6&#45;&gt;Node10 -->
<g id="edge20" class="edge"><title>Node6&#45;&gt;Node10</title>
<path fill="none" stroke="midnightblue" d="M374.581,-174.295C379.892,-155.045 391.135,-114.289 397.97,-89.5091"/>
<polygon fill="midnightblue" stroke="midnightblue" points="401.397,-90.2499 400.682,-79.6792 394.649,-88.3884 401.397,-90.2499"/>
</g>
<!-- Node11 -->
<g id="node23" class="node"><title>Node11</title>
<a xlink:href="cv___trait_detail_8h.html" target="_top" xlink:title="cv_TraitDetail.h">
<polygon fill="white" stroke="black" points="177.128,-116.5 177.128,-137.5 266.128,-137.5 266.128,-116.5 177.128,-116.5"/>
<text text-anchor="middle" x="221.628" y="-124.5" font-family="DejaVuSans" font-size="10.00">cv_TraitDetail.h</text>
</a>
</g>
<!-- Node6&#45;&gt;Node11 -->
<g id="edge24" class="edge"><title>Node6&#45;&gt;Node11</title>
<path fill="none" stroke="midnightblue" d="M344.464,-174.497C320.328,-165.164 284.847,-151.445 258.216,-141.147"/>
<polygon fill="midnightblue" stroke="midnightblue" points="259.432,-137.865 248.843,-137.523 256.908,-144.394 259.432,-137.865"/>
</g>
<!-- Node12 -->
<g id="node29" class="node"><title>Node12</title>
<a xlink:href="cv___abstract_trait_8h.html" target="_top" xlink:title="cv_AbstractTrait.h">
<polygon fill="white" stroke="black" points="425.128,-116.5 425.128,-137.5 526.128,-137.5 526.128,-116.5 425.128,-116.5"/>
<text text-anchor="middle" x="475.628" y="-124.5" font-family="DejaVuSans" font-size="10.00">cv_AbstractTrait.h</text>
</a>
</g>
<!-- Node6&#45;&gt;Node12 -->
<g id="edge34" class="edge"><title>Node6&#45;&gt;Node12</title>
<path fill="none" stroke="midnightblue" d="M390.703,-174.362C406.683,-165.45 429.709,-152.609 447.755,-142.545"/>
<polygon fill="midnightblue" stroke="midnightblue" points="449.645,-145.498 456.674,-137.571 446.235,-139.385 449.645,-145.498"/>
</g>
<!-- Node10&#45;&gt;Node5 -->
<g id="edge22" class="edge"><title>Node10&#45;&gt;Node5</title>
<path fill="none" stroke="midnightblue" d="M416.834,-58.3619C427.389,-49.859 442.386,-37.7785 454.591,-27.9466"/>
<polygon fill="midnightblue" stroke="midnightblue" points="456.914,-30.5696 462.506,-21.5707 452.523,-25.1183 456.914,-30.5696"/>
</g>
<!-- Node11&#45;&gt;Node5 -->
<g id="edge26" class="edge"><title>Node11&#45;&gt;Node5</title>
<path fill="none" stroke="midnightblue" d="M223.335,-116.288C226.372,-100.918 234.22,-72.8295 252.628,-58 280.851,-35.2646 382.875,-21.0002 438.625,-14.7255"/>
<polygon fill="midnightblue" stroke="midnightblue" points="439.235,-18.1797 448.795,-13.6118 438.473,-11.2213 439.235,-18.1797"/>
</g>
<!-- Node11&#45;&gt;Node8 -->
<g id="edge28" class="edge"><title>Node11&#45;&gt;Node8</title>
<path fill="none" stroke="midnightblue" d="M232.633,-116.362C241.175,-108.104 253.208,-96.4725 263.211,-86.8029"/>
<polygon fill="midnightblue" stroke="midnightblue" points="265.936,-89.0374 270.693,-79.5707 261.07,-84.0044 265.936,-89.0374"/>
</g>
<!-- Node11&#45;&gt;Node9 -->
<g id="edge30" class="edge"><title>Node11&#45;&gt;Node9</title>
<path fill="none" stroke="midnightblue" d="M204.937,-116.362C191.212,-107.614 171.545,-95.0786 155.891,-85.1015"/>
<polygon fill="midnightblue" stroke="midnightblue" points="157.527,-81.994 147.213,-79.5707 153.765,-87.8969 157.527,-81.994"/>
</g>
<!-- Node11&#45;&gt;Node10 -->
<g id="edge32" class="edge"><title>Node11&#45;&gt;Node10</title>
<path fill="none" stroke="midnightblue" d="M254.587,-116.497C284.386,-107 328.437,-92.9619 360.925,-82.6087"/>
<polygon fill="midnightblue" stroke="midnightblue" points="362.142,-85.8942 370.607,-79.5231 360.017,-79.2247 362.142,-85.8942"/>
</g>
<!-- Node12&#45;&gt;Node5 -->
<g id="edge36" class="edge"><title>Node12&#45;&gt;Node5</title>
<path fill="none" stroke="midnightblue" d="M475.628,-116.295C475.628,-97.1314 475.628,-56.654 475.628,-31.8434"/>
<polygon fill="midnightblue" stroke="midnightblue" points="479.128,-31.6792 475.628,-21.6792 472.128,-31.6792 479.128,-31.6792"/>
</g>
<!-- Node12&#45;&gt;Node10 -->
<g id="edge38" class="edge"><title>Node12&#45;&gt;Node10</title>
<path fill="none" stroke="midnightblue" d="M462.422,-116.362C451.867,-107.859 436.87,-95.7785 424.665,-85.9466"/>
<polygon fill="midnightblue" stroke="midnightblue" points="426.734,-83.1183 416.75,-79.5707 422.342,-88.5696 426.734,-83.1183"/>
</g>
<!-- Node13&#45;&gt;Node5 -->
<g id="edge42" class="edge"><title>Node13&#45;&gt;Node5</title>
<path fill="none" stroke="midnightblue" d="M648.418,-58.4966C609.608,-47.8285 549.947,-31.4289 511.864,-20.9604"/>
<polygon fill="midnightblue" stroke="midnightblue" points="512.771,-17.5802 502.201,-18.3044 510.916,-24.3298 512.771,-17.5802"/>
</g>
<!-- Node14&#45;&gt;Node5 -->
<g id="edge48" class="edge"><title>Node14&#45;&gt;Node5</title>
<path fill="none" stroke="midnightblue" d="M49.2715,-174.407C32.9027,-166.959 14.1527,-155.209 4.62812,-138 -19.2707,-94.8197 59.3923,-60.0212 63.6281,-58 129.732,-26.4571 351.04,-15.3641 439.066,-12.1401"/>
<polygon fill="midnightblue" stroke="midnightblue" points="439.25,-15.6359 449.121,-11.7851 439.003,-8.64022 439.25,-15.6359"/>
</g>
<!-- Node14&#45;&gt;Node9 -->
<g id="edge46" class="edge"><title>Node14&#45;&gt;Node9</title>
<path fill="none" stroke="midnightblue" d="M84.3347,-174.295C92.8739,-154.872 111.039,-113.556 121.903,-88.8462"/>
<polygon fill="midnightblue" stroke="midnightblue" points="125.112,-90.2422 125.933,-79.6792 118.704,-87.4248 125.112,-90.2422"/>
</g>
<!-- Node15 -->
<g id="node40" class="node"><title>Node15</title>
<a xlink:href="cv___name_8h.html" target="_top" xlink:title="cv_Name.h">
<polygon fill="white" stroke="black" points="13.1281,-116.5 13.1281,-137.5 84.1281,-137.5 84.1281,-116.5 13.1281,-116.5"/>
<text text-anchor="middle" x="48.6281" y="-124.5" font-family="DejaVuSans" font-size="10.00">cv_Name.h</text>
</a>
</g>
<!-- Node14&#45;&gt;Node15 -->
<g id="edge50" class="edge"><title>Node14&#45;&gt;Node15</title>
<path fill="none" stroke="midnightblue" d="M73.9422,-174.362C69.7909,-166.595 64.044,-155.843 59.075,-146.546"/>
<polygon fill="midnightblue" stroke="midnightblue" points="62.0785,-144.74 54.2779,-137.571 55.905,-148.04 62.0785,-144.74"/>
</g>
<!-- Node15&#45;&gt;Node5 -->
<g id="edge54" class="edge"><title>Node15&#45;&gt;Node5</title>
<path fill="none" stroke="midnightblue" d="M51.3745,-116.263C55.9934,-100.593 66.9111,-71.8246 87.6281,-58 116.538,-38.7081 347.705,-20.1907 438.861,-13.5654"/>
<polygon fill="midnightblue" stroke="midnightblue" points="439.286,-17.044 449.009,-12.8351 438.783,-10.0621 439.286,-17.044"/>
</g>
<!-- Node15&#45;&gt;Node9 -->
<g id="edge52" class="edge"><title>Node15&#45;&gt;Node9</title>
<path fill="none" stroke="midnightblue" d="M63.6682,-116.362C75.9207,-107.696 93.4276,-95.3126 107.468,-85.3819"/>
<polygon fill="midnightblue" stroke="midnightblue" points="109.54,-88.2028 115.683,-79.5707 105.498,-82.4879 109.54,-88.2028"/>
</g>
<!-- Node16&#45;&gt;Node5 -->
<g id="edge58" class="edge"><title>Node16&#45;&gt;Node5</title>
<path fill="none" stroke="midnightblue" d="M805.264,-174.127C798.987,-146.272 781.113,-73.4531 762.628,-58 725.306,-26.8001 581.567,-15.9403 512.756,-12.4772"/>
<polygon fill="midnightblue" stroke="midnightblue" points="512.538,-8.96295 502.383,-11.9829 512.205,-15.955 512.538,-8.96295"/>
</g>
<!-- Node17 -->
<g id="node47" class="node"><title>Node17</title>
<polygon fill="white" stroke="#bfbfbf" points="809.128,-116.5 809.128,-137.5 858.128,-137.5 858.128,-116.5 809.128,-116.5"/>
<text text-anchor="middle" x="833.628" y="-124.5" font-family="DejaVuSans" font-size="10.00">QColor</text>
</g>
<!-- Node16&#45;&gt;Node17 -->
<g id="edge60" class="edge"><title>Node16&#45;&gt;Node17</title>
<path fill="none" stroke="midnightblue" d="M812.397,-174.362C815.842,-166.677 820.597,-156.069 824.734,-146.84"/>
<polygon fill="midnightblue" stroke="midnightblue" points="827.993,-148.127 828.89,-137.571 821.605,-145.264 827.993,-148.127"/>
</g>
<!-- Node18 -->
<g id="node49" class="node"><title>Node18</title>
<polygon fill="white" stroke="#bfbfbf" points="875.128,-116.5 875.128,-137.5 920.128,-137.5 920.128,-116.5 875.128,-116.5"/>
<text text-anchor="middle" x="897.628" y="-124.5" font-family="DejaVuSans" font-size="10.00">QFont</text>
</g>
<!-- Node16&#45;&gt;Node18 -->
<g id="edge62" class="edge"><title>Node16&#45;&gt;Node18</title>
<path fill="none" stroke="midnightblue" d="M824.136,-174.362C837.71,-165.614 857.161,-153.079 872.643,-143.101"/>
<polygon fill="midnightblue" stroke="midnightblue" points="874.716,-145.93 881.225,-137.571 870.924,-140.046 874.716,-145.93"/>
</g>
</g>
</svg>
