<?xml version="1.0" encoding="UTF-8" standalone="no"?>
<!DOCTYPE svg PUBLIC "-//W3C//DTD SVG 1.1//EN"
 "http://www.w3.org/Graphics/SVG/1.1/DTD/svg11.dtd">
<!-- Generated by graphviz version 2.26.3 (20100126.1600)
 -->
<!-- Title: G Pages: 1 -->
<svg width="626pt" height="88pt"
 viewBox="0.00 0.00 626.00 88.00" xmlns="http://www.w3.org/2000/svg" xmlns:xlink="http://www.w3.org/1999/xlink">
<g id="graph1" class="graph" transform="scale(1 1) rotate(0) translate(4 84)">
<title>G</title>
<polygon fill="white" stroke="white" points="-4,5 -4,-84 623,-84 623,5 -4,5"/>
<!-- Node1 -->
<g id="node1" class="node"><title>Node1</title>
<polygon fill="#bfbfbf" stroke="black" points="232,-58.5 232,-79.5 376,-79.5 376,-58.5 232,-58.5"/>
<text text-anchor="middle" x="304" y="-66.5" font-family="DejaVuSans" font-size="10.00">src/Exceptions/Exception.h</text>
</g>
<!-- Node2 -->
<g id="node3" class="node"><title>Node2</title>
<polygon fill="white" stroke="#bfbfbf" points="-0.5,-0.5 -0.5,-21.5 52.5,-21.5 52.5,-0.5 -0.5,-0.5"/>
<text text-anchor="middle" x="26" y="-8.5" font-family="DejaVuSans" font-size="10.00">QString</text>
</g>
<!-- Node1&#45;&gt;Node2 -->
<g id="edge2" class="edge"><title>Node1&#45;&gt;Node2</title>
<path fill="none" stroke="midnightblue" d="M238.837,-58.465C192.054,-50.427 127.363,-38.3473 62.6307,-22.2358"/>
<polygon fill="midnightblue" stroke="midnightblue" points="63.2161,-18.7739 52.6638,-19.7227 61.5046,-25.5615 63.2161,-18.7739"/>
</g>
<!-- Node3 -->
<g id="node5" class="node"><title>Node3</title>
<polygon fill="white" stroke="#bfbfbf" points="70,-0.5 70,-21.5 224,-21.5 224,-0.5 70,-0.5"/>
<text text-anchor="middle" x="147" y="-8.5" font-family="DejaVuSans" font-size="10.00">Datatypes/cv_AbstractTrait.h</text>
</g>
<!-- Node1&#45;&gt;Node3 -->
<g id="edge4" class="edge"><title>Node1&#45;&gt;Node3</title>
<path fill="none" stroke="midnightblue" d="M275.568,-58.4966C250.195,-49.1229 212.843,-35.3242 184.93,-25.0122"/>
<polygon fill="midnightblue" stroke="midnightblue" points="186.078,-21.7054 175.485,-21.5231 183.652,-28.2716 186.078,-21.7054"/>
</g>
<!-- Node4 -->
<g id="node7" class="node"><title>Node4</title>
<polygon fill="white" stroke="#bfbfbf" points="241.5,-0.5 241.5,-21.5 366.5,-21.5 366.5,-0.5 241.5,-0.5"/>
<text text-anchor="middle" x="304" y="-8.5" font-family="DejaVuSans" font-size="10.00">Datatypes/cv_Shape.h</text>
</g>
<!-- Node1&#45;&gt;Node4 -->
<g id="edge6" class="edge"><title>Node1&#45;&gt;Node4</title>
<path fill="none" stroke="midnightblue" d="M304,-58.3619C304,-50.9219 304,-40.7427 304,-31.7276"/>
<polygon fill="midnightblue" stroke="midnightblue" points="307.5,-31.5706 304,-21.5707 300.5,-31.5707 307.5,-31.5706"/>
</g>
<!-- Node5 -->
<g id="node9" class="node"><title>Node5</title>
<polygon fill="white" stroke="#bfbfbf" points="384,-0.5 384,-21.5 512,-21.5 512,-0.5 384,-0.5"/>
<text text-anchor="middle" x="448" y="-8.5" font-family="DejaVuSans" font-size="10.00">Datatypes/cv_Identity.h</text>
</g>
<!-- Node1&#45;&gt;Node5 -->
<g id="edge8" class="edge"><title>Node1&#45;&gt;Node5</title>
<path fill="none" stroke="midnightblue" d="M330.077,-58.4966C353.075,-49.2337 386.8,-35.6499 412.3,-25.3793"/>
<polygon fill="midnightblue" stroke="midnightblue" points="413.662,-28.6039 421.63,-21.6212 411.047,-22.1108 413.662,-28.6039"/>
</g>
<!-- Node6 -->
<g id="node11" class="node"><title>Node6</title>
<polygon fill="white" stroke="#bfbfbf" points="529.5,-0.5 529.5,-21.5 618.5,-21.5 618.5,-0.5 529.5,-0.5"/>
<text text-anchor="middle" x="574" y="-8.5" font-family="DejaVuSans" font-size="10.00">Config/Config.h</text>
</g>
<!-- Node1&#45;&gt;Node6 -->
<g id="edge10" class="edge"><title>Node1&#45;&gt;Node6</title>
<path fill="none" stroke="midnightblue" d="M352.895,-58.4966C399.855,-48.4088 470.673,-33.1962 519.443,-22.7196"/>
<polygon fill="midnightblue" stroke="midnightblue" points="520.457,-26.0817 529.499,-20.5595 518.987,-19.2379 520.457,-26.0817"/>
</g>
</g>
</svg>
