<?xml version="1.0" encoding="UTF-8" standalone="no"?>
<!DOCTYPE svg PUBLIC "-//W3C//DTD SVG 1.1//EN"
 "http://www.w3.org/Graphics/SVG/1.1/DTD/svg11.dtd">
<!-- Generated by graphviz version 2.26.3 (20100126.1600)
 -->
<!-- Title: G Pages: 1 -->
<svg width="1378pt" height="436pt"
 viewBox="0.00 0.00 1378.17 436.00" xmlns="http://www.w3.org/2000/svg" xmlns:xlink="http://www.w3.org/1999/xlink">
<g id="graph1" class="graph" transform="scale(1 1) rotate(0) translate(4 432)">
<title>G</title>
<polygon fill="white" stroke="white" points="-4,5 -4,-432 1375.17,-432 1375.17,5 -4,5"/>
<!-- Node1 -->
<g id="node1" class="node"><title>Node1</title>
<polygon fill="#bfbfbf" stroke="black" points="248.5,-406.5 248.5,-427.5 395.5,-427.5 395.5,-406.5 248.5,-406.5"/>
<text text-anchor="middle" x="322" y="-414.5" font-family="DejaVuSans" font-size="10.00">src/Widgets/FlawWidget.cpp</text>
</g>
<!-- Node2 -->
<g id="node3" class="node"><title>Node2</title>
<polygon fill="white" stroke="#bfbfbf" points="-0.5,-348.5 -0.5,-369.5 80.5,-369.5 80.5,-348.5 -0.5,-348.5"/>
<text text-anchor="middle" x="40" y="-356.5" font-family="DejaVuSans" font-size="10.00">QVBoxLayout</text>
</g>
<!-- Node1&#45;&gt;Node2 -->
<g id="edge2" class="edge"><title>Node1&#45;&gt;Node2</title>
<path fill="none" stroke="midnightblue" d="M267.789,-406.412C222.83,-397.552 156.963,-384.391 90.8137,-370.359"/>
<polygon fill="midnightblue" stroke="midnightblue" points="91.1365,-366.85 80.627,-368.192 89.6797,-373.696 91.1365,-366.85"/>
</g>
<!-- Node3 -->
<g id="node5" class="node"><title>Node3</title>
<polygon fill="white" stroke="#bfbfbf" points="97.5,-348.5 97.5,-369.5 168.5,-369.5 168.5,-348.5 97.5,-348.5"/>
<text text-anchor="middle" x="133" y="-356.5" font-family="DejaVuSans" font-size="10.00">QGroupBox</text>
</g>
<!-- Node1&#45;&gt;Node3 -->
<g id="edge4" class="edge"><title>Node1&#45;&gt;Node3</title>
<path fill="none" stroke="midnightblue" d="M287.774,-406.497C256.695,-396.959 210.688,-382.841 176.91,-372.475"/>
<polygon fill="midnightblue" stroke="midnightblue" points="177.877,-369.111 167.291,-369.523 175.824,-375.803 177.877,-369.111"/>
</g>
<!-- Node4 -->
<g id="node7" class="node"><title>Node4</title>
<polygon fill="white" stroke="#bfbfbf" points="186,-348.5 186,-369.5 242,-369.5 242,-348.5 186,-348.5"/>
<text text-anchor="middle" x="214" y="-356.5" font-family="DejaVuSans" font-size="10.00">QDebug</text>
</g>
<!-- Node1&#45;&gt;Node4 -->
<g id="edge6" class="edge"><title>Node1&#45;&gt;Node4</title>
<path fill="none" stroke="midnightblue" d="M302.442,-406.497C285.802,-397.56 261.673,-384.602 242.82,-374.477"/>
<polygon fill="midnightblue" stroke="midnightblue" points="244.243,-371.269 233.777,-369.621 240.931,-377.436 244.243,-371.269"/>
</g>
<!-- Node5 -->
<g id="node9" class="node"><title>Node5</title>
<a xlink:href="_check_trait_8h.html" target="_top" xlink:title="CheckTrait.h">
<polygon fill="white" stroke="black" points="566,-348.5 566,-369.5 640,-369.5 640,-348.5 566,-348.5"/>
<text text-anchor="middle" x="603" y="-356.5" font-family="DejaVuSans" font-size="10.00">CheckTrait.h</text>
</a>
</g>
<!-- Node1&#45;&gt;Node5 -->
<g id="edge8" class="edge"><title>Node1&#45;&gt;Node5</title>
<path fill="none" stroke="midnightblue" d="M372.887,-406.497C424.97,-395.746 505.25,-379.176 555.909,-368.72"/>
<polygon fill="midnightblue" stroke="midnightblue" points="556.853,-372.099 565.939,-366.65 555.438,-365.243 556.853,-372.099"/>
</g>
<!-- Node16 -->
<g id="node35" class="node"><title>Node16</title>
<a xlink:href="cv___trait_8h.html" target="_top" xlink:title="../Datatypes/cv_Trait.h">
<polygon fill="white" stroke="black" points="411,-174.5 411,-195.5 533,-195.5 533,-174.5 411,-174.5"/>
<text text-anchor="middle" x="472" y="-182.5" font-family="DejaVuSans" font-size="10.00">../Datatypes/cv_Trait.h</text>
</a>
</g>
<!-- Node1&#45;&gt;Node16 -->
<g id="edge98" class="edge"><title>Node1&#45;&gt;Node16</title>
<path fill="none" stroke="midnightblue" d="M328.835,-406.429C352.213,-370.271 429.207,-251.186 459.551,-204.255"/>
<polygon fill="midnightblue" stroke="midnightblue" points="462.635,-205.932 465.125,-195.634 456.756,-202.131 462.635,-205.932"/>
</g>
<!-- Node22 -->
<g id="node60" class="node"><title>Node22</title>
<a xlink:href="_storage_template_8h.html" target="_top" xlink:title="StorageTemplate.h">
<polygon fill="white" stroke="black" points="1116.5,-232.5 1116.5,-253.5 1223.5,-253.5 1223.5,-232.5 1116.5,-232.5"/>
<text text-anchor="middle" x="1170" y="-240.5" font-family="DejaVuSans" font-size="10.00">StorageTemplate.h</text>
</a>
</g>
<!-- Node1&#45;&gt;Node22 -->
<g id="edge122" class="edge"><title>Node1&#45;&gt;Node22</title>
<path fill="none" stroke="midnightblue" d="M395.627,-414.28C547.489,-408.288 890.889,-392.654 1006,-370 1086.4,-354.178 1133.03,-378.431 1181,-312 1191.15,-297.936 1186.53,-278.055 1180.47,-263.243"/>
<polygon fill="midnightblue" stroke="midnightblue" points="1183.56,-261.569 1176.21,-253.932 1177.19,-264.482 1183.56,-261.569"/>
</g>
<!-- Node26 -->
<g id="node76" class="node"><title>Node26</title>
<a xlink:href="_exception_8h_source.html" target="_top" xlink:title="../Exceptions/Exception.h">
<polygon fill="white" stroke="black" points="254,-232.5 254,-253.5 390,-253.5 390,-232.5 254,-232.5"/>
<text text-anchor="middle" x="322" y="-240.5" font-family="DejaVuSans" font-size="10.00">../Exceptions/Exception.h</text>
</a>
</g>
<!-- Node1&#45;&gt;Node26 -->
<g id="edge100" class="edge"><title>Node1&#45;&gt;Node26</title>
<path fill="none" stroke="midnightblue" d="M322,-406.377C322,-378.293 322,-301.673 322,-264.203"/>
<polygon fill="midnightblue" stroke="midnightblue" points="325.5,-263.928 322,-253.928 318.5,-263.928 325.5,-263.928"/>
</g>
<!-- Node28 -->
<g id="node84" class="node"><title>Node28</title>
<a xlink:href="_config_8h.html" target="_top" xlink:title="../Config/Config.h">
<polygon fill="white" stroke="black" points="118,-174.5 118,-195.5 216,-195.5 216,-174.5 118,-174.5"/>
<text text-anchor="middle" x="167" y="-182.5" font-family="DejaVuSans" font-size="10.00">../Config/Config.h</text>
</a>
</g>
<!-- Node1&#45;&gt;Node28 -->
<g id="edge120" class="edge"><title>Node1&#45;&gt;Node28</title>
<path fill="none" stroke="midnightblue" d="M314.937,-406.429C290.73,-370.195 210.886,-250.688 179.669,-203.962"/>
<polygon fill="midnightblue" stroke="midnightblue" points="182.57,-202.004 174.104,-195.634 176.749,-205.893 182.57,-202.004"/>
</g>
<!-- Node31 -->
<g id="node93" class="node"><title>Node31</title>
<a xlink:href="_flaw_widget_8h.html" target="_top" xlink:title="FlawWidget.h">
<polygon fill="white" stroke="black" points="919,-348.5 919,-369.5 997,-369.5 997,-348.5 919,-348.5"/>
<text text-anchor="middle" x="958" y="-356.5" font-family="DejaVuSans" font-size="10.00">FlawWidget.h</text>
</a>
</g>
<!-- Node1&#45;&gt;Node31 -->
<g id="edge124" class="edge"><title>Node1&#45;&gt;Node31</title>
<path fill="none" stroke="midnightblue" d="M395.579,-410.29C526.719,-398.331 797.509,-373.636 908.699,-363.496"/>
<polygon fill="midnightblue" stroke="midnightblue" points="909.31,-366.955 918.951,-362.561 908.675,-359.984 909.31,-366.955"/>
</g>
<!-- Node6 -->
<g id="node11" class="node"><title>Node6</title>
<polygon fill="white" stroke="#bfbfbf" points="652,-290.5 652,-311.5 734,-311.5 734,-290.5 652,-290.5"/>
<text text-anchor="middle" x="693" y="-298.5" font-family="DejaVuSans" font-size="10.00">QHBoxLayout</text>
</g>
<!-- Node5&#45;&gt;Node6 -->
<g id="edge10" class="edge"><title>Node5&#45;&gt;Node6</title>
<path fill="none" stroke="midnightblue" d="M619.507,-348.362C633.082,-339.614 652.533,-327.079 668.015,-317.101"/>
<polygon fill="midnightblue" stroke="midnightblue" points="670.088,-319.93 676.597,-311.571 666.296,-314.046 670.088,-319.93"/>
</g>
<!-- Node7 -->
<g id="node13" class="node"><title>Node7</title>
<polygon fill="white" stroke="#bfbfbf" points="572,-290.5 572,-311.5 634,-311.5 634,-290.5 572,-290.5"/>
<text text-anchor="middle" x="603" y="-298.5" font-family="DejaVuSans" font-size="10.00">QLineEdit</text>
</g>
<!-- Node5&#45;&gt;Node7 -->
<g id="edge12" class="edge"><title>Node5&#45;&gt;Node7</title>
<path fill="none" stroke="midnightblue" d="M603,-348.362C603,-340.922 603,-330.743 603,-321.728"/>
<polygon fill="midnightblue" stroke="midnightblue" points="606.5,-321.571 603,-311.571 599.5,-321.571 606.5,-321.571"/>
</g>
<!-- Node8 -->
<g id="node15" class="node"><title>Node8</title>
<polygon fill="white" stroke="#bfbfbf" points="483.5,-290.5 483.5,-311.5 554.5,-311.5 554.5,-290.5 483.5,-290.5"/>
<text text-anchor="middle" x="519" y="-298.5" font-family="DejaVuSans" font-size="10.00">QCheckBox</text>
</g>
<!-- Node5&#45;&gt;Node8 -->
<g id="edge14" class="edge"><title>Node5&#45;&gt;Node8</title>
<path fill="none" stroke="midnightblue" d="M587.593,-348.362C575.042,-339.696 557.108,-327.313 542.725,-317.382"/>
<polygon fill="midnightblue" stroke="midnightblue" points="544.527,-314.372 534.309,-311.571 540.55,-320.133 544.527,-314.372"/>
</g>
<!-- Node9 -->
<g id="node17" class="node"><title>Node9</title>
<a xlink:href="_storage_character_8h.html" target="_top" xlink:title="../Storage/StorageCharacter.h">
<polygon fill="white" stroke="black" points="751.5,-290.5 751.5,-311.5 912.5,-311.5 912.5,-290.5 751.5,-290.5"/>
<text text-anchor="middle" x="832" y="-298.5" font-family="DejaVuSans" font-size="10.00">../Storage/StorageCharacter.h</text>
</a>
</g>
<!-- Node5&#45;&gt;Node9 -->
<g id="edge16" class="edge"><title>Node5&#45;&gt;Node9</title>
<path fill="none" stroke="midnightblue" d="M640.047,-349.617C678.134,-339.97 737.746,-324.872 780.431,-314.061"/>
<polygon fill="midnightblue" stroke="midnightblue" points="781.516,-317.397 790.351,-311.549 779.798,-310.611 781.516,-317.397"/>
</g>
<!-- Node5&#45;&gt;Node16 -->
<g id="edge94" class="edge"><title>Node5&#45;&gt;Node16</title>
<path fill="none" stroke="midnightblue" d="M565.874,-350.296C532.092,-341.546 485.885,-327.207 475,-312 452.548,-280.633 459.374,-232.846 465.953,-205.717"/>
<polygon fill="midnightblue" stroke="midnightblue" points="469.408,-206.339 468.581,-195.777 462.641,-204.55 469.408,-206.339"/>
</g>
<!-- Node25 -->
<g id="node73" class="node"><title>Node25</title>
<polygon fill="white" stroke="#bfbfbf" points="930,-290.5 930,-311.5 986,-311.5 986,-290.5 930,-290.5"/>
<text text-anchor="middle" x="958" y="-298.5" font-family="DejaVuSans" font-size="10.00">QWidget</text>
</g>
<!-- Node5&#45;&gt;Node25 -->
<g id="edge96" class="edge"><title>Node5&#45;&gt;Node25</title>
<path fill="none" stroke="midnightblue" d="M640.035,-355.257C697.865,-349.038 813.21,-335.131 919.865,-312.017"/>
<polygon fill="midnightblue" stroke="midnightblue" points="920.812,-315.393 929.826,-309.826 919.308,-308.556 920.812,-315.393"/>
</g>
<!-- Node10 -->
<g id="node19" class="node"><title>Node10</title>
<a xlink:href="cv___identity_8h.html" target="_top" xlink:title="../Datatypes/cv_Identity.h">
<polygon fill="white" stroke="black" points="1130.5,-116.5 1130.5,-137.5 1267.5,-137.5 1267.5,-116.5 1130.5,-116.5"/>
<text text-anchor="middle" x="1199" y="-124.5" font-family="DejaVuSans" font-size="10.00">../Datatypes/cv_Identity.h</text>
</a>
</g>
<!-- Node9&#45;&gt;Node10 -->
<g id="edge18" class="edge"><title>Node9&#45;&gt;Node10</title>
<path fill="none" stroke="midnightblue" d="M912.522,-290.978C915.383,-290.644 918.216,-290.317 921,-290 1074.17,-272.544 1119.41,-301.731 1266,-254 1314.85,-238.093 1340.35,-240.521 1366,-196 1370.88,-187.527 1371.9,-181.794 1366,-174 1354.65,-159.013 1314.65,-147.465 1276.65,-139.567"/>
<polygon fill="midnightblue" stroke="midnightblue" points="1277.02,-136.073 1266.53,-137.538 1275.65,-142.936 1277.02,-136.073"/>
</g>
<!-- Node14 -->
<g id="node29" class="node"><title>Node14</title>
<a xlink:href="cv___identity_list_8h.html" target="_top" xlink:title="../Datatypes/cv_IdentityList.h">
<polygon fill="white" stroke="black" points="1092.5,-174.5 1092.5,-195.5 1247.5,-195.5 1247.5,-174.5 1092.5,-174.5"/>
<text text-anchor="middle" x="1170" y="-182.5" font-family="DejaVuSans" font-size="10.00">../Datatypes/cv_IdentityList.h</text>
</a>
</g>
<!-- Node9&#45;&gt;Node14 -->
<g id="edge30" class="edge"><title>Node9&#45;&gt;Node14</title>
<path fill="none" stroke="midnightblue" d="M862.891,-290.398C924.246,-269.342 1061.42,-222.263 1129.74,-198.817"/>
<polygon fill="midnightblue" stroke="midnightblue" points="1130.98,-202.092 1139.3,-195.535 1128.71,-195.471 1130.98,-202.092"/>
</g>
<!-- Node9&#45;&gt;Node16 -->
<g id="edge38" class="edge"><title>Node9&#45;&gt;Node16</title>
<path fill="none" stroke="midnightblue" d="M799.098,-290.398C733.616,-269.299 587.045,-222.07 514.434,-198.673"/>
<polygon fill="midnightblue" stroke="midnightblue" points="515.287,-195.271 504.695,-195.535 513.14,-201.933 515.287,-195.271"/>
</g>
<!-- Node21 -->
<g id="node55" class="node"><title>Node21</title>
<a xlink:href="cv___derangement_8h.html" target="_top" xlink:title="../Datatypes/cv_Derangement.h">
<polygon fill="white" stroke="black" points="551,-174.5 551,-195.5 721,-195.5 721,-174.5 551,-174.5"/>
<text text-anchor="middle" x="636" y="-182.5" font-family="DejaVuSans" font-size="10.00">../Datatypes/cv_Derangement.h</text>
</a>
</g>
<!-- Node9&#45;&gt;Node21 -->
<g id="edge68" class="edge"><title>Node9&#45;&gt;Node21</title>
<path fill="none" stroke="midnightblue" d="M813.912,-290.295C779.184,-269.741 703.028,-224.67 662.537,-200.706"/>
<polygon fill="midnightblue" stroke="midnightblue" points="664.15,-197.593 653.761,-195.512 660.584,-203.617 664.15,-197.593"/>
</g>
<!-- Node9&#45;&gt;Node22 -->
<g id="edge76" class="edge"><title>Node9&#45;&gt;Node22</title>
<path fill="none" stroke="midnightblue" d="M893.209,-290.497C953.579,-280.137 1045.44,-264.374 1106.57,-253.884"/>
<polygon fill="midnightblue" stroke="midnightblue" points="1107.22,-257.324 1116.48,-252.184 1106.03,-250.425 1107.22,-257.324"/>
</g>
<!-- Node24 -->
<g id="node69" class="node"><title>Node24</title>
<polygon fill="white" stroke="#bfbfbf" points="1302.5,-174.5 1302.5,-195.5 1357.5,-195.5 1357.5,-174.5 1302.5,-174.5"/>
<text text-anchor="middle" x="1330" y="-182.5" font-family="DejaVuSans" font-size="10.00">QObject</text>
</g>
<!-- Node9&#45;&gt;Node24 -->
<g id="edge92" class="edge"><title>Node9&#45;&gt;Node24</title>
<path fill="none" stroke="midnightblue" d="M912.527,-291.019C915.386,-290.674 918.217,-290.333 921,-290 1059.16,-273.466 1101.99,-303.583 1232,-254 1262.82,-242.245 1293.05,-218.586 1311.61,-202.276"/>
<polygon fill="midnightblue" stroke="midnightblue" points="1313.95,-204.874 1319.04,-195.58 1309.27,-199.673 1313.95,-204.874"/>
</g>
<!-- Node11 -->
<g id="node21" class="node"><title>Node11</title>
<polygon fill="white" stroke="#bfbfbf" points="1159.5,-0.5 1159.5,-21.5 1228.5,-21.5 1228.5,-0.5 1159.5,-0.5"/>
<text text-anchor="middle" x="1194" y="-8.5" font-family="DejaVuSans" font-size="10.00">QStringList</text>
</g>
<!-- Node10&#45;&gt;Node11 -->
<g id="edge20" class="edge"><title>Node10&#45;&gt;Node11</title>
<path fill="none" stroke="midnightblue" d="M1211.9,-116.469C1226.34,-103.319 1246.65,-79.8843 1238,-58 1233.47,-46.5388 1224.68,-36.2323 1216.14,-28.2117"/>
<polygon fill="midnightblue" stroke="midnightblue" points="1218.33,-25.474 1208.5,-21.5208 1213.72,-30.7411 1218.33,-25.474"/>
</g>
<!-- Node12 -->
<g id="node23" class="node"><title>Node12</title>
<polygon fill="white" stroke="#bfbfbf" points="537.5,-0.5 537.5,-21.5 590.5,-21.5 590.5,-0.5 537.5,-0.5"/>
<text text-anchor="middle" x="564" y="-8.5" font-family="DejaVuSans" font-size="10.00">QString</text>
</g>
<!-- Node10&#45;&gt;Node12 -->
<g id="edge22" class="edge"><title>Node10&#45;&gt;Node12</title>
<path fill="none" stroke="midnightblue" d="M1188.89,-116.287C1173.12,-100.372 1140.94,-70.9677 1107,-58 1014.06,-22.4958 707.443,-13.6071 600.882,-11.5646"/>
<polygon fill="midnightblue" stroke="midnightblue" points="600.689,-8.06057 590.627,-11.3775 600.562,-15.0594 600.689,-8.06057"/>
</g>
<!-- Node13 -->
<g id="node25" class="node"><title>Node13</title>
<a xlink:href="cv___name_8h.html" target="_top" xlink:title="cv_Name.h">
<polygon fill="white" stroke="black" points="1158.5,-58.5 1158.5,-79.5 1229.5,-79.5 1229.5,-58.5 1158.5,-58.5"/>
<text text-anchor="middle" x="1194" y="-66.5" font-family="DejaVuSans" font-size="10.00">cv_Name.h</text>
</a>
</g>
<!-- Node10&#45;&gt;Node13 -->
<g id="edge24" class="edge"><title>Node10&#45;&gt;Node13</title>
<path fill="none" stroke="midnightblue" d="M1198.08,-116.362C1197.44,-108.922 1196.56,-98.7427 1195.79,-89.7276"/>
<polygon fill="midnightblue" stroke="midnightblue" points="1199.26,-89.2331 1194.91,-79.5707 1192.28,-89.8343 1199.26,-89.2331"/>
</g>
<!-- Node13&#45;&gt;Node11 -->
<g id="edge26" class="edge"><title>Node13&#45;&gt;Node11</title>
<path fill="none" stroke="midnightblue" d="M1194,-58.3619C1194,-50.9219 1194,-40.7427 1194,-31.7276"/>
<polygon fill="midnightblue" stroke="midnightblue" points="1197.5,-31.5706 1194,-21.5707 1190.5,-31.5707 1197.5,-31.5706"/>
</g>
<!-- Node13&#45;&gt;Node12 -->
<g id="edge28" class="edge"><title>Node13&#45;&gt;Node12</title>
<path fill="none" stroke="midnightblue" d="M1158.25,-60.3669C1153.81,-59.4734 1149.31,-58.6548 1145,-58 940.733,-26.9663 692.739,-15.5387 600.689,-12.1834"/>
<polygon fill="midnightblue" stroke="midnightblue" points="600.618,-8.6788 590.5,-11.8221 600.37,-15.6744 600.618,-8.6788"/>
</g>
<!-- Node14&#45;&gt;Node10 -->
<g id="edge34" class="edge"><title>Node14&#45;&gt;Node10</title>
<path fill="none" stroke="midnightblue" d="M1175.32,-174.362C1179.2,-166.595 1184.58,-155.843 1189.23,-146.546"/>
<polygon fill="midnightblue" stroke="midnightblue" points="1192.37,-148.08 1193.71,-137.571 1186.11,-144.95 1192.37,-148.08"/>
</g>
<!-- Node14&#45;&gt;Node12 -->
<g id="edge32" class="edge"><title>Node14&#45;&gt;Node12</title>
<path fill="none" stroke="midnightblue" d="M1158.91,-174.206C1149.16,-164.701 1134.6,-150.469 1122,-138 1086.26,-102.632 1087.46,-79.4951 1042,-58 963.812,-21.0276 698.476,-13.1131 600.63,-11.4408"/>
<polygon fill="midnightblue" stroke="midnightblue" points="600.673,-7.94119 590.619,-11.2818 600.562,-14.9403 600.673,-7.94119"/>
</g>
<!-- Node15 -->
<g id="node33" class="node"><title>Node15</title>
<polygon fill="white" stroke="#bfbfbf" points="992.5,-58.5 992.5,-79.5 1033.5,-79.5 1033.5,-58.5 992.5,-58.5"/>
<text text-anchor="middle" x="1013" y="-66.5" font-family="DejaVuSans" font-size="10.00">QList</text>
</g>
<!-- Node14&#45;&gt;Node15 -->
<g id="edge36" class="edge"><title>Node14&#45;&gt;Node15</title>
<path fill="none" stroke="midnightblue" d="M1148.94,-174.367C1132.14,-165.512 1108.29,-152.109 1089,-138 1067.64,-122.377 1045.49,-101.662 1030.65,-87.0183"/>
<polygon fill="midnightblue" stroke="midnightblue" points="1032.76,-84.1753 1023.21,-79.5789 1027.81,-89.125 1032.76,-84.1753"/>
</g>
<!-- Node16&#45;&gt;Node11 -->
<g id="edge46" class="edge"><title>Node16&#45;&gt;Node11</title>
<path fill="none" stroke="midnightblue" d="M533.051,-175.171C536.074,-174.758 539.07,-174.365 542,-174 628.367,-163.239 857.494,-182.989 932,-138 968.302,-116.08 949.176,-82.1995 984,-58 1010.37,-39.6735 1096.03,-24.765 1149.46,-16.9488"/>
<polygon fill="midnightblue" stroke="midnightblue" points="1149.96,-20.4127 1159.36,-15.527 1148.96,-13.4838 1149.96,-20.4127"/>
</g>
<!-- Node16&#45;&gt;Node12 -->
<g id="edge42" class="edge"><title>Node16&#45;&gt;Node12</title>
<path fill="none" stroke="midnightblue" d="M453.481,-174.444C433.593,-161.635 406.317,-138.9 418,-116 440.825,-71.2584 492.62,-41.2842 527.96,-25.186"/>
<polygon fill="midnightblue" stroke="midnightblue" points="529.707,-28.2411 537.454,-21.0128 526.891,-21.8329 529.707,-28.2411"/>
</g>
<!-- Node16&#45;&gt;Node15 -->
<g id="edge44" class="edge"><title>Node16&#45;&gt;Node15</title>
<path fill="none" stroke="midnightblue" d="M533.048,-175.146C536.072,-174.739 539.069,-174.355 542,-174 635.657,-162.67 883.316,-185.198 965,-138 984.043,-126.996 997.301,-105.033 1004.99,-88.8282"/>
<polygon fill="midnightblue" stroke="midnightblue" points="1008.21,-90.1937 1009.05,-79.6324 1001.81,-87.363 1008.21,-90.1937"/>
</g>
<!-- Node17 -->
<g id="node37" class="node"><title>Node17</title>
<polygon fill="white" stroke="#bfbfbf" points="322.5,-116.5 322.5,-137.5 371.5,-137.5 371.5,-116.5 322.5,-116.5"/>
<text text-anchor="middle" x="347" y="-124.5" font-family="DejaVuSans" font-size="10.00">QFlags</text>
</g>
<!-- Node16&#45;&gt;Node17 -->
<g id="edge40" class="edge"><title>Node16&#45;&gt;Node17</title>
<path fill="none" stroke="midnightblue" d="M449.363,-174.497C429.752,-165.397 401.154,-152.127 379.167,-141.925"/>
<polygon fill="midnightblue" stroke="midnightblue" points="380.435,-138.655 369.891,-137.621 377.488,-145.005 380.435,-138.655"/>
</g>
<!-- Node18 -->
<g id="node42" class="node"><title>Node18</title>
<a xlink:href="cv___species_8h.html" target="_top" xlink:title="cv_Species.h">
<polygon fill="white" stroke="black" points="524.5,-58.5 524.5,-79.5 603.5,-79.5 603.5,-58.5 524.5,-58.5"/>
<text text-anchor="middle" x="564" y="-66.5" font-family="DejaVuSans" font-size="10.00">cv_Species.h</text>
</a>
</g>
<!-- Node16&#45;&gt;Node18 -->
<g id="edge48" class="edge"><title>Node16&#45;&gt;Node18</title>
<path fill="none" stroke="midnightblue" d="M491.914,-174.353C505.858,-166.038 524.061,-153.338 536,-138 547.137,-123.692 554.475,-104.352 558.834,-89.7873"/>
<polygon fill="midnightblue" stroke="midnightblue" points="562.32,-90.3136 561.6,-79.7432 555.571,-88.4549 562.32,-90.3136"/>
</g>
<!-- Node19 -->
<g id="node45" class="node"><title>Node19</title>
<a xlink:href="cv___trait_detail_8h.html" target="_top" xlink:title="cv_TraitDetail.h">
<polygon fill="white" stroke="black" points="834.5,-116.5 834.5,-137.5 923.5,-137.5 923.5,-116.5 834.5,-116.5"/>
<text text-anchor="middle" x="879" y="-124.5" font-family="DejaVuSans" font-size="10.00">cv_TraitDetail.h</text>
</a>
</g>
<!-- Node16&#45;&gt;Node19 -->
<g id="edge52" class="edge"><title>Node16&#45;&gt;Node19</title>
<path fill="none" stroke="midnightblue" d="M533.067,-175.294C536.087,-174.849 539.077,-174.415 542,-174 664.772,-156.576 698.791,-158.814 824.234,-138.208"/>
<polygon fill="midnightblue" stroke="midnightblue" points="824.935,-141.64 834.227,-136.55 823.789,-134.734 824.935,-141.64"/>
</g>
<!-- Node20 -->
<g id="node51" class="node"><title>Node20</title>
<a xlink:href="cv___abstract_trait_8h.html" target="_top" xlink:title="cv_AbstractTrait.h">
<polygon fill="white" stroke="black" points="426.5,-116.5 426.5,-137.5 527.5,-137.5 527.5,-116.5 426.5,-116.5"/>
<text text-anchor="middle" x="477" y="-124.5" font-family="DejaVuSans" font-size="10.00">cv_AbstractTrait.h</text>
</a>
</g>
<!-- Node16&#45;&gt;Node20 -->
<g id="edge62" class="edge"><title>Node16&#45;&gt;Node20</title>
<path fill="none" stroke="midnightblue" d="M472.917,-174.362C473.558,-166.922 474.436,-156.743 475.213,-147.728"/>
<polygon fill="midnightblue" stroke="midnightblue" points="478.717,-147.834 476.089,-137.571 471.743,-147.233 478.717,-147.834"/>
</g>
<!-- Node18&#45;&gt;Node12 -->
<g id="edge50" class="edge"><title>Node18&#45;&gt;Node12</title>
<path fill="none" stroke="midnightblue" d="M564,-58.3619C564,-50.9219 564,-40.7427 564,-31.7276"/>
<polygon fill="midnightblue" stroke="midnightblue" points="567.5,-31.5706 564,-21.5707 560.5,-31.5707 567.5,-31.5706"/>
</g>
<!-- Node19&#45;&gt;Node11 -->
<g id="edge58" class="edge"><title>Node19&#45;&gt;Node11</title>
<path fill="none" stroke="midnightblue" d="M884.711,-116.367C893.656,-100.83 912.509,-72.2296 937,-58 972.386,-37.4404 1085.58,-22.5122 1149.31,-15.492"/>
<polygon fill="midnightblue" stroke="midnightblue" points="1149.91,-18.9481 1159.47,-14.3934 1149.15,-11.9886 1149.91,-18.9481"/>
</g>
<!-- Node19&#45;&gt;Node12 -->
<g id="edge54" class="edge"><title>Node19&#45;&gt;Node12</title>
<path fill="none" stroke="midnightblue" d="M850.211,-116.398C792.689,-95.2156 663.656,-47.6986 600.384,-24.3985"/>
<polygon fill="midnightblue" stroke="midnightblue" points="601.408,-21.046 590.815,-20.8746 598.989,-27.6148 601.408,-21.046"/>
</g>
<!-- Node19&#45;&gt;Node15 -->
<g id="edge56" class="edge"><title>Node19&#45;&gt;Node15</title>
<path fill="none" stroke="midnightblue" d="M903.266,-116.497C925.671,-106.799 959.019,-92.365 983.068,-81.9556"/>
<polygon fill="midnightblue" stroke="midnightblue" points="984.639,-85.0895 992.426,-77.9052 981.858,-78.6655 984.639,-85.0895"/>
</g>
<!-- Node19&#45;&gt;Node18 -->
<g id="edge60" class="edge"><title>Node19&#45;&gt;Node18</title>
<path fill="none" stroke="midnightblue" d="M834.485,-117.67C831.615,-117.096 828.768,-116.535 826,-116 752.201,-101.725 666.412,-86.6159 613.662,-77.4956"/>
<polygon fill="midnightblue" stroke="midnightblue" points="614.016,-74.0049 603.566,-75.7534 612.825,-80.903 614.016,-74.0049"/>
</g>
<!-- Node20&#45;&gt;Node12 -->
<g id="edge64" class="edge"><title>Node20&#45;&gt;Node12</title>
<path fill="none" stroke="midnightblue" d="M481.95,-116.141C488.637,-102.039 501.411,-76.9851 516,-58 524.135,-47.414 534.591,-36.8978 543.668,-28.5056"/>
<polygon fill="midnightblue" stroke="midnightblue" points="546.105,-31.021 551.195,-21.729 541.421,-25.8186 546.105,-31.021"/>
</g>
<!-- Node20&#45;&gt;Node18 -->
<g id="edge66" class="edge"><title>Node20&#45;&gt;Node18</title>
<path fill="none" stroke="midnightblue" d="M492.957,-116.362C505.957,-107.696 524.531,-95.3126 539.427,-85.3819"/>
<polygon fill="midnightblue" stroke="midnightblue" points="541.765,-88.0299 548.144,-79.5707 537.882,-82.2055 541.765,-88.0299"/>
</g>
<!-- Node21&#45;&gt;Node12 -->
<g id="edge70" class="edge"><title>Node21&#45;&gt;Node12</title>
<path fill="none" stroke="midnightblue" d="M636.09,-174.429C635.855,-151.722 632.962,-97.1729 612,-58 605.871,-46.547 595.99,-36.1635 586.781,-28.0867"/>
<polygon fill="midnightblue" stroke="midnightblue" points="588.906,-25.3015 578.973,-21.6138 584.438,-30.6905 588.906,-25.3015"/>
</g>
<!-- Node21&#45;&gt;Node18 -->
<g id="edge72" class="edge"><title>Node21&#45;&gt;Node18</title>
<path fill="none" stroke="midnightblue" d="M629.355,-174.295C617.193,-154.7 591.199,-112.82 575.912,-88.1913"/>
<polygon fill="midnightblue" stroke="midnightblue" points="578.876,-86.3298 570.628,-79.6792 572.928,-90.0214 578.876,-86.3298"/>
</g>
<!-- Node21&#45;&gt;Node20 -->
<g id="edge74" class="edge"><title>Node21&#45;&gt;Node20</title>
<path fill="none" stroke="midnightblue" d="M607.206,-174.497C581.509,-165.123 543.682,-151.324 515.413,-141.012"/>
<polygon fill="midnightblue" stroke="midnightblue" points="516.442,-137.662 505.848,-137.523 514.043,-144.238 516.442,-137.662"/>
</g>
<!-- Node22&#45;&gt;Node11 -->
<g id="edge80" class="edge"><title>Node22&#45;&gt;Node11</title>
<path fill="none" stroke="midnightblue" d="M1201.62,-232.332C1219.77,-224.755 1241.73,-212.898 1256,-196 1273.59,-175.168 1271.49,-164.892 1276,-138 1282.11,-101.513 1275.03,-87.7221 1253,-58 1244.11,-46.0109 1231.45,-35.3826 1220.13,-27.2792"/>
<polygon fill="midnightblue" stroke="midnightblue" points="1222.05,-24.3524 1211.82,-21.5939 1218.1,-30.1295 1222.05,-24.3524"/>
</g>
<!-- Node22&#45;&gt;Node14 -->
<g id="edge84" class="edge"><title>Node22&#45;&gt;Node14</title>
<path fill="none" stroke="midnightblue" d="M1170,-232.362C1170,-224.922 1170,-214.743 1170,-205.728"/>
<polygon fill="midnightblue" stroke="midnightblue" points="1173.5,-205.571 1170,-195.571 1166.5,-205.571 1173.5,-205.571"/>
</g>
<!-- Node22&#45;&gt;Node15 -->
<g id="edge78" class="edge"><title>Node22&#45;&gt;Node15</title>
<path fill="none" stroke="midnightblue" d="M1141.86,-232.434C1123.68,-224.531 1100.44,-212.284 1084,-196 1052.47,-164.772 1030.78,-116.595 1020.27,-89.4383"/>
<polygon fill="midnightblue" stroke="midnightblue" points="1023.46,-87.9674 1016.68,-79.8236 1016.9,-90.4162 1023.46,-87.9674"/>
</g>
<!-- Node22&#45;&gt;Node16 -->
<g id="edge82" class="edge"><title>Node22&#45;&gt;Node16</title>
<path fill="none" stroke="midnightblue" d="M1116.1,-240.443C1008.95,-235.04 761.425,-220.959 543.089,-196.048"/>
<polygon fill="midnightblue" stroke="midnightblue" points="543.378,-192.558 533.043,-194.891 542.578,-199.512 543.378,-192.558"/>
</g>
<!-- Node23 -->
<g id="node66" class="node"><title>Node23</title>
<a xlink:href="cv___super_effect_8h.html" target="_top" xlink:title="../Datatypes/cv_SuperEffect.h">
<polygon fill="white" stroke="black" points="659,-116.5 659,-137.5 817,-137.5 817,-116.5 659,-116.5"/>
<text text-anchor="middle" x="738" y="-124.5" font-family="DejaVuSans" font-size="10.00">../Datatypes/cv_SuperEffect.h</text>
</a>
</g>
<!-- Node22&#45;&gt;Node23 -->
<g id="edge86" class="edge"><title>Node22&#45;&gt;Node23</title>
<path fill="none" stroke="midnightblue" d="M1130.52,-232.398C1051.38,-211.147 873.532,-163.393 787.064,-140.174"/>
<polygon fill="midnightblue" stroke="midnightblue" points="787.8,-136.748 777.234,-137.535 785.985,-143.509 787.8,-136.748"/>
</g>
<!-- Node22&#45;&gt;Node24 -->
<g id="edge90" class="edge"><title>Node22&#45;&gt;Node24</title>
<path fill="none" stroke="midnightblue" d="M1198.97,-232.497C1225.24,-222.977 1264.09,-208.893 1292.67,-198.533"/>
<polygon fill="midnightblue" stroke="midnightblue" points="1294.1,-201.736 1302.31,-195.037 1291.72,-195.155 1294.1,-201.736"/>
</g>
<!-- Node23&#45;&gt;Node18 -->
<g id="edge88" class="edge"><title>Node23&#45;&gt;Node18</title>
<path fill="none" stroke="midnightblue" d="M706.49,-116.497C678.123,-107.041 636.249,-93.0829 605.228,-82.7428"/>
<polygon fill="midnightblue" stroke="midnightblue" points="606.163,-79.365 595.569,-79.5231 603.949,-86.0058 606.163,-79.365"/>
</g>
<!-- Node26&#45;&gt;Node10 -->
<g id="edge110" class="edge"><title>Node26&#45;&gt;Node10</title>
<path fill="none" stroke="midnightblue" d="M390.3,-235.794C471.397,-227.086 610.7,-211.643 730,-196 868.233,-177.874 1028.88,-153.524 1121.76,-139.123"/>
<polygon fill="midnightblue" stroke="midnightblue" points="1122.57,-142.539 1131.91,-137.546 1121.49,-135.622 1122.57,-142.539"/>
</g>
<!-- Node26&#45;&gt;Node12 -->
<g id="edge102" class="edge"><title>Node26&#45;&gt;Node12</title>
<path fill="none" stroke="midnightblue" d="M317.428,-232.4C308.178,-209.165 290.07,-152.88 314,-116 361.16,-43.3193 469.724,-20.873 527.028,-13.9968"/>
<polygon fill="midnightblue" stroke="midnightblue" points="527.549,-17.4606 537.105,-12.8854 526.781,-10.5028 527.549,-17.4606"/>
</g>
<!-- Node26&#45;&gt;Node16 -->
<g id="edge104" class="edge"><title>Node26&#45;&gt;Node16</title>
<path fill="none" stroke="midnightblue" d="M349.164,-232.497C373.3,-223.164 408.781,-209.445 435.412,-199.147"/>
<polygon fill="midnightblue" stroke="midnightblue" points="436.72,-202.394 444.785,-195.523 434.196,-195.865 436.72,-202.394"/>
</g>
<!-- Node27 -->
<g id="node80" class="node"><title>Node27</title>
<a xlink:href="cv___shape_8h.html" target="_top" xlink:title="../Datatypes/cv_Shape.h">
<polygon fill="white" stroke="black" points="195,-58.5 195,-79.5 329,-79.5 329,-58.5 195,-58.5"/>
<text text-anchor="middle" x="262" y="-66.5" font-family="DejaVuSans" font-size="10.00">../Datatypes/cv_Shape.h</text>
</a>
</g>
<!-- Node26&#45;&gt;Node27 -->
<g id="edge106" class="edge"><title>Node26&#45;&gt;Node27</title>
<path fill="none" stroke="midnightblue" d="M309.469,-232.373C300.035,-223.62 287.632,-210.351 281,-196 264.95,-161.272 261.88,-116.035 261.6,-89.9839"/>
<polygon fill="midnightblue" stroke="midnightblue" points="265.101,-89.7839 261.626,-79.775 258.101,-89.766 265.101,-89.7839"/>
</g>
<!-- Node26&#45;&gt;Node28 -->
<g id="edge112" class="edge"><title>Node26&#45;&gt;Node28</title>
<path fill="none" stroke="midnightblue" d="M293.931,-232.497C268.99,-223.164 232.326,-209.445 204.808,-199.147"/>
<polygon fill="midnightblue" stroke="midnightblue" points="205.714,-195.75 195.122,-195.523 203.261,-202.306 205.714,-195.75"/>
</g>
<!-- Node27&#45;&gt;Node12 -->
<g id="edge108" class="edge"><title>Node27&#45;&gt;Node12</title>
<path fill="none" stroke="midnightblue" d="M316.69,-58.4966C377.722,-46.7752 474.782,-28.1346 527.321,-18.0444"/>
<polygon fill="midnightblue" stroke="midnightblue" points="528.051,-21.4683 537.211,-16.1449 526.73,-14.5939 528.051,-21.4683"/>
</g>
<!-- Node28&#45;&gt;Node12 -->
<g id="edge114" class="edge"><title>Node28&#45;&gt;Node12</title>
<path fill="none" stroke="midnightblue" d="M164.812,-174.266C160.504,-149.737 153.923,-89.2908 186,-58 210.219,-34.3746 437.276,-18.4865 527.395,-13.063"/>
<polygon fill="midnightblue" stroke="midnightblue" points="527.659,-16.5536 537.434,-12.4681 527.245,-9.56582 527.659,-16.5536"/>
</g>
<!-- Node29 -->
<g id="node87" class="node"><title>Node29</title>
<polygon fill="white" stroke="#bfbfbf" points="90.5,-116.5 90.5,-137.5 139.5,-137.5 139.5,-116.5 90.5,-116.5"/>
<text text-anchor="middle" x="115" y="-124.5" font-family="DejaVuSans" font-size="10.00">QColor</text>
</g>
<!-- Node28&#45;&gt;Node29 -->
<g id="edge116" class="edge"><title>Node28&#45;&gt;Node29</title>
<path fill="none" stroke="midnightblue" d="M157.462,-174.362C150.132,-166.186 139.837,-154.702 131.219,-145.091"/>
<polygon fill="midnightblue" stroke="midnightblue" points="133.759,-142.68 124.477,-137.571 128.547,-147.353 133.759,-142.68"/>
</g>
<!-- Node30 -->
<g id="node89" class="node"><title>Node30</title>
<polygon fill="white" stroke="#bfbfbf" points="28.5,-116.5 28.5,-137.5 73.5,-137.5 73.5,-116.5 28.5,-116.5"/>
<text text-anchor="middle" x="51" y="-124.5" font-family="DejaVuSans" font-size="10.00">QFont</text>
</g>
<!-- Node28&#45;&gt;Node30 -->
<g id="edge118" class="edge"><title>Node28&#45;&gt;Node30</title>
<path fill="none" stroke="midnightblue" d="M145.993,-174.497C127.957,-165.479 101.73,-152.365 81.4011,-142.201"/>
<polygon fill="midnightblue" stroke="midnightblue" points="82.752,-138.963 72.2424,-137.621 79.6215,-145.224 82.752,-138.963"/>
</g>
<!-- Node31&#45;&gt;Node6 -->
<g id="edge126" class="edge"><title>Node31&#45;&gt;Node6</title>
<path fill="none" stroke="midnightblue" d="M918.764,-350.439C877.682,-341.472 811.012,-326.91 744.075,-312.234"/>
<polygon fill="midnightblue" stroke="midnightblue" points="744.717,-308.792 734.2,-310.068 743.218,-315.629 744.717,-308.792"/>
</g>
<!-- Node31&#45;&gt;Node9 -->
<g id="edge134" class="edge"><title>Node31&#45;&gt;Node9</title>
<path fill="none" stroke="midnightblue" d="M935.182,-348.497C915.414,-339.397 886.587,-326.127 864.424,-315.925"/>
<polygon fill="midnightblue" stroke="midnightblue" points="865.621,-312.623 855.074,-311.621 862.694,-318.982 865.621,-312.623"/>
</g>
<!-- Node31&#45;&gt;Node22 -->
<g id="edge132" class="edge"><title>Node31&#45;&gt;Node22</title>
<path fill="none" stroke="midnightblue" d="M997.058,-355.403C1050.27,-349.642 1141.43,-336.43 1163,-312 1174.48,-298.999 1175.26,-278.784 1173.74,-263.589"/>
<polygon fill="midnightblue" stroke="midnightblue" points="1177.19,-263.011 1172.35,-253.587 1170.26,-263.973 1177.19,-263.011"/>
</g>
<!-- Node31&#45;&gt;Node25 -->
<g id="edge136" class="edge"><title>Node31&#45;&gt;Node25</title>
<path fill="none" stroke="midnightblue" d="M958,-348.362C958,-340.922 958,-330.743 958,-321.728"/>
<polygon fill="midnightblue" stroke="midnightblue" points="961.5,-321.571 958,-311.571 954.5,-321.571 961.5,-321.571"/>
</g>
<!-- Node32 -->
<g id="node96" class="node"><title>Node32</title>
<polygon fill="white" stroke="#bfbfbf" points="1003.5,-290.5 1003.5,-311.5 1076.5,-311.5 1076.5,-290.5 1003.5,-290.5"/>
<text text-anchor="middle" x="1040" y="-298.5" font-family="DejaVuSans" font-size="10.00">QScrollArea</text>
</g>
<!-- Node31&#45;&gt;Node32 -->
<g id="edge128" class="edge"><title>Node31&#45;&gt;Node32</title>
<path fill="none" stroke="midnightblue" d="M973.04,-348.362C985.293,-339.696 1002.8,-327.313 1016.84,-317.382"/>
<polygon fill="midnightblue" stroke="midnightblue" points="1018.91,-320.203 1025.06,-311.571 1014.87,-314.488 1018.91,-320.203"/>
</g>
<!-- Node33 -->
<g id="node98" class="node"><title>Node33</title>
<polygon fill="white" stroke="#bfbfbf" points="1094,-290.5 1094,-311.5 1154,-311.5 1154,-290.5 1094,-290.5"/>
<text text-anchor="middle" x="1124" y="-298.5" font-family="DejaVuSans" font-size="10.00">QToolBox</text>
</g>
<!-- Node31&#45;&gt;Node33 -->
<g id="edge130" class="edge"><title>Node31&#45;&gt;Node33</title>
<path fill="none" stroke="midnightblue" d="M988.061,-348.497C1015.01,-339.082 1054.73,-325.204 1084.28,-314.877"/>
<polygon fill="midnightblue" stroke="midnightblue" points="1085.6,-318.126 1093.88,-311.523 1083.29,-311.517 1085.6,-318.126"/>
</g>
</g>
</svg>
