<?xml version="1.0" encoding="UTF-8" standalone="no"?>
<!DOCTYPE svg PUBLIC "-//W3C//DTD SVG 1.1//EN"
 "http://www.w3.org/Graphics/SVG/1.1/DTD/svg11.dtd">
<!-- Generated by graphviz version 2.26.3 (20100126.1600)
 -->
<!-- Title: G Pages: 1 -->
<svg width="923pt" height="378pt"
 viewBox="0.00 0.00 923.37 378.00" xmlns="http://www.w3.org/2000/svg" xmlns:xlink="http://www.w3.org/1999/xlink">
<g id="graph1" class="graph" transform="scale(1 1) rotate(0) translate(4 374)">
<title>G</title>
<polygon fill="white" stroke="white" points="-4,5 -4,-374 920.371,-374 920.371,5 -4,5"/>
<!-- Node1 -->
<g id="node1" class="node"><title>Node1</title>
<polygon fill="#bfbfbf" stroke="black" points="181,-348.5 181,-369.5 317,-369.5 317,-348.5 181,-348.5"/>
<text text-anchor="middle" x="249" y="-356.5" font-family="DejaVuSans" font-size="10.00">src/Widgets/FlawWidget.h</text>
</g>
<!-- Node2 -->
<g id="node3" class="node"><title>Node2</title>
<polygon fill="white" stroke="#bfbfbf" points="0,-290.5 0,-311.5 82,-311.5 82,-290.5 0,-290.5"/>
<text text-anchor="middle" x="41" y="-298.5" font-family="DejaVuSans" font-size="10.00">QHBoxLayout</text>
</g>
<!-- Node1&#45;&gt;Node2 -->
<g id="edge2" class="edge"><title>Node1&#45;&gt;Node2</title>
<path fill="none" stroke="midnightblue" d="M211.333,-348.497C176.983,-338.918 126.063,-324.72 88.8464,-314.342"/>
<polygon fill="midnightblue" stroke="midnightblue" points="89.3105,-310.838 78.7379,-311.523 87.4303,-317.581 89.3105,-310.838"/>
</g>
<!-- Node3 -->
<g id="node5" class="node"><title>Node3</title>
<polygon fill="white" stroke="#bfbfbf" points="99.5,-290.5 99.5,-311.5 172.5,-311.5 172.5,-290.5 99.5,-290.5"/>
<text text-anchor="middle" x="136" y="-298.5" font-family="DejaVuSans" font-size="10.00">QScrollArea</text>
</g>
<!-- Node1&#45;&gt;Node3 -->
<g id="edge4" class="edge"><title>Node1&#45;&gt;Node3</title>
<path fill="none" stroke="midnightblue" d="M228.537,-348.497C210.967,-339.479 185.418,-326.365 165.615,-316.201"/>
<polygon fill="midnightblue" stroke="midnightblue" points="167.188,-313.074 156.693,-311.621 163.991,-319.301 167.188,-313.074"/>
</g>
<!-- Node4 -->
<g id="node7" class="node"><title>Node4</title>
<polygon fill="white" stroke="#bfbfbf" points="190,-290.5 190,-311.5 250,-311.5 250,-290.5 190,-290.5"/>
<text text-anchor="middle" x="220" y="-298.5" font-family="DejaVuSans" font-size="10.00">QToolBox</text>
</g>
<!-- Node1&#45;&gt;Node4 -->
<g id="edge6" class="edge"><title>Node1&#45;&gt;Node4</title>
<path fill="none" stroke="midnightblue" d="M243.681,-348.362C239.797,-340.595 234.421,-329.843 229.773,-320.546"/>
<polygon fill="midnightblue" stroke="midnightblue" points="232.888,-318.95 225.285,-311.571 226.627,-322.08 232.888,-318.95"/>
</g>
<!-- Node5 -->
<g id="node9" class="node"><title>Node5</title>
<a xlink:href="_storage_template_8h.html" target="_top" xlink:title="../Storage/StorageTemplate.h">
<polygon fill="white" stroke="black" points="200,-232.5 200,-253.5 358,-253.5 358,-232.5 200,-232.5"/>
<text text-anchor="middle" x="279" y="-240.5" font-family="DejaVuSans" font-size="10.00">../Storage/StorageTemplate.h</text>
</a>
</g>
<!-- Node1&#45;&gt;Node5 -->
<g id="edge8" class="edge"><title>Node1&#45;&gt;Node5</title>
<path fill="none" stroke="midnightblue" d="M251.769,-348.295C256.747,-329.045 267.287,-288.289 273.696,-263.509"/>
<polygon fill="midnightblue" stroke="midnightblue" points="277.123,-264.237 276.238,-253.679 270.346,-262.484 277.123,-264.237"/>
</g>
<!-- Node19 -->
<g id="node53" class="node"><title>Node19</title>
<a xlink:href="_storage_character_8h.html" target="_top" xlink:title="../Storage/StorageCharacter.h">
<polygon fill="white" stroke="black" points="305.5,-290.5 305.5,-311.5 466.5,-311.5 466.5,-290.5 305.5,-290.5"/>
<text text-anchor="middle" x="386" y="-298.5" font-family="DejaVuSans" font-size="10.00">../Storage/StorageCharacter.h</text>
</a>
</g>
<!-- Node1&#45;&gt;Node19 -->
<g id="edge68" class="edge"><title>Node1&#45;&gt;Node19</title>
<path fill="none" stroke="midnightblue" d="M273.81,-348.497C295.496,-339.315 327.211,-325.889 351.392,-315.652"/>
<polygon fill="midnightblue" stroke="midnightblue" points="353.068,-318.743 360.912,-311.621 350.339,-312.297 353.068,-318.743"/>
</g>
<!-- Node21 -->
<g id="node65" class="node"><title>Node21</title>
<polygon fill="white" stroke="#bfbfbf" points="484,-290.5 484,-311.5 540,-311.5 540,-290.5 484,-290.5"/>
<text text-anchor="middle" x="512" y="-298.5" font-family="DejaVuSans" font-size="10.00">QWidget</text>
</g>
<!-- Node1&#45;&gt;Node21 -->
<g id="edge88" class="edge"><title>Node1&#45;&gt;Node21</title>
<path fill="none" stroke="midnightblue" d="M306.426,-348.438C349.958,-340.117 411.441,-327.696 473.777,-312.172"/>
<polygon fill="midnightblue" stroke="midnightblue" points="474.942,-315.488 483.786,-309.654 473.234,-308.699 474.942,-315.488"/>
</g>
<!-- Node6 -->
<g id="node11" class="node"><title>Node6</title>
<polygon fill="white" stroke="#bfbfbf" points="298.5,-58.5 298.5,-79.5 339.5,-79.5 339.5,-58.5 298.5,-58.5"/>
<text text-anchor="middle" x="319" y="-66.5" font-family="DejaVuSans" font-size="10.00">QList</text>
</g>
<!-- Node5&#45;&gt;Node6 -->
<g id="edge10" class="edge"><title>Node5&#45;&gt;Node6</title>
<path fill="none" stroke="midnightblue" d="M281.442,-232.377C287.926,-204.172 305.664,-127.012 314.237,-89.7203"/>
<polygon fill="midnightblue" stroke="midnightblue" points="317.658,-90.4577 316.488,-79.9277 310.836,-88.8893 317.658,-90.4577"/>
</g>
<!-- Node7 -->
<g id="node13" class="node"><title>Node7</title>
<polygon fill="white" stroke="#bfbfbf" points="72.5,-0.5 72.5,-21.5 141.5,-21.5 141.5,-0.5 72.5,-0.5"/>
<text text-anchor="middle" x="107" y="-8.5" font-family="DejaVuSans" font-size="10.00">QStringList</text>
</g>
<!-- Node5&#45;&gt;Node7 -->
<g id="edge12" class="edge"><title>Node5&#45;&gt;Node7</title>
<path fill="none" stroke="midnightblue" d="M214.112,-232.468C166.447,-223.766 106.565,-210.521 86,-196 53.8457,-173.295 38.034,-154.08 48,-116 56.585,-83.1965 77.9681,-49.8193 92.4905,-29.7581"/>
<polygon fill="midnightblue" stroke="midnightblue" points="95.4519,-31.6411 98.6096,-21.5277 89.8343,-27.4646 95.4519,-31.6411"/>
</g>
<!-- Node8 -->
<g id="node15" class="node"><title>Node8</title>
<a xlink:href="cv___trait_8h.html" target="_top" xlink:title="../Datatypes/cv_Trait.h">
<polygon fill="white" stroke="black" points="322,-174.5 322,-195.5 444,-195.5 444,-174.5 322,-174.5"/>
<text text-anchor="middle" x="383" y="-182.5" font-family="DejaVuSans" font-size="10.00">../Datatypes/cv_Trait.h</text>
</a>
</g>
<!-- Node5&#45;&gt;Node8 -->
<g id="edge14" class="edge"><title>Node5&#45;&gt;Node8</title>
<path fill="none" stroke="midnightblue" d="M298.075,-232.362C314.055,-223.45 337.081,-210.609 355.127,-200.545"/>
<polygon fill="midnightblue" stroke="midnightblue" points="357.017,-203.498 364.046,-195.571 353.607,-197.385 357.017,-203.498"/>
</g>
<!-- Node14 -->
<g id="node36" class="node"><title>Node14</title>
<a xlink:href="cv___identity_list_8h.html" target="_top" xlink:title="../Datatypes/cv_IdentityList.h">
<polygon fill="white" stroke="black" points="94.5,-174.5 94.5,-195.5 249.5,-195.5 249.5,-174.5 94.5,-174.5"/>
<text text-anchor="middle" x="172" y="-182.5" font-family="DejaVuSans" font-size="10.00">../Datatypes/cv_IdentityList.h</text>
</a>
</g>
<!-- Node5&#45;&gt;Node14 -->
<g id="edge44" class="edge"><title>Node5&#45;&gt;Node14</title>
<path fill="none" stroke="midnightblue" d="M259.375,-232.362C242.859,-223.409 219.026,-210.491 200.422,-200.406"/>
<polygon fill="midnightblue" stroke="midnightblue" points="201.96,-197.259 191.501,-195.571 198.625,-203.413 201.96,-197.259"/>
</g>
<!-- Node17 -->
<g id="node48" class="node"><title>Node17</title>
<a xlink:href="cv___super_effect_8h.html" target="_top" xlink:title="../Datatypes/cv_SuperEffect.h">
<polygon fill="white" stroke="black" points="587,-116.5 587,-137.5 745,-137.5 745,-116.5 587,-116.5"/>
<text text-anchor="middle" x="666" y="-124.5" font-family="DejaVuSans" font-size="10.00">../Datatypes/cv_SuperEffect.h</text>
</a>
</g>
<!-- Node5&#45;&gt;Node17 -->
<g id="edge62" class="edge"><title>Node5&#45;&gt;Node17</title>
<path fill="none" stroke="midnightblue" d="M331.955,-232.477C367.058,-224.591 413.71,-212.349 453,-196 471.018,-188.503 472.977,-181.484 491,-174 526.83,-159.121 568.752,-147.67 602.581,-139.798"/>
<polygon fill="midnightblue" stroke="midnightblue" points="603.376,-143.206 612.348,-137.571 601.821,-136.381 603.376,-143.206"/>
</g>
<!-- Node18 -->
<g id="node51" class="node"><title>Node18</title>
<polygon fill="white" stroke="#bfbfbf" points="499.5,-174.5 499.5,-195.5 554.5,-195.5 554.5,-174.5 499.5,-174.5"/>
<text text-anchor="middle" x="527" y="-182.5" font-family="DejaVuSans" font-size="10.00">QObject</text>
</g>
<!-- Node5&#45;&gt;Node18 -->
<g id="edge66" class="edge"><title>Node5&#45;&gt;Node18</title>
<path fill="none" stroke="midnightblue" d="M328.061,-232.423C370.084,-223.23 432.163,-209.329 486,-196 487.073,-195.734 488.161,-195.462 489.259,-195.185"/>
<polygon fill="midnightblue" stroke="midnightblue" points="490.444,-198.494 499.249,-192.602 488.691,-191.717 490.444,-198.494"/>
</g>
<!-- Node8&#45;&gt;Node6 -->
<g id="edge20" class="edge"><title>Node8&#45;&gt;Node6</title>
<path fill="none" stroke="midnightblue" d="M365.827,-174.449C353.787,-166.098 338.399,-153.311 330,-138 321.898,-123.23 319.349,-104.179 318.713,-89.8387"/>
<polygon fill="midnightblue" stroke="midnightblue" points="322.207,-89.4605 318.543,-79.5195 315.208,-89.5758 322.207,-89.4605"/>
</g>
<!-- Node8&#45;&gt;Node7 -->
<g id="edge22" class="edge"><title>Node8&#45;&gt;Node7</title>
<path fill="none" stroke="midnightblue" d="M321.902,-175.831C263.414,-163.858 176.786,-137.23 126,-80 114.302,-66.8179 109.734,-47.0605 107.986,-32.0612"/>
<polygon fill="midnightblue" stroke="midnightblue" points="111.442,-31.383 107.128,-21.7063 104.466,-31.9612 111.442,-31.383"/>
</g>
<!-- Node9 -->
<g id="node17" class="node"><title>Node9</title>
<polygon fill="white" stroke="#bfbfbf" points="482.5,-116.5 482.5,-137.5 531.5,-137.5 531.5,-116.5 482.5,-116.5"/>
<text text-anchor="middle" x="507" y="-124.5" font-family="DejaVuSans" font-size="10.00">QFlags</text>
</g>
<!-- Node8&#45;&gt;Node9 -->
<g id="edge16" class="edge"><title>Node8&#45;&gt;Node9</title>
<path fill="none" stroke="midnightblue" d="M405.455,-174.497C424.91,-165.397 453.28,-152.127 475.091,-141.925"/>
<polygon fill="midnightblue" stroke="midnightblue" points="476.717,-145.028 484.293,-137.621 473.752,-138.688 476.717,-145.028"/>
</g>
<!-- Node10 -->
<g id="node19" class="node"><title>Node10</title>
<polygon fill="white" stroke="#bfbfbf" points="408.5,-0.5 408.5,-21.5 461.5,-21.5 461.5,-0.5 408.5,-0.5"/>
<text text-anchor="middle" x="435" y="-8.5" font-family="DejaVuSans" font-size="10.00">QString</text>
</g>
<!-- Node8&#45;&gt;Node10 -->
<g id="edge18" class="edge"><title>Node8&#45;&gt;Node10</title>
<path fill="none" stroke="midnightblue" d="M401.434,-174.467C413.749,-166.287 428.938,-153.702 436,-138 451.59,-103.337 445.732,-57.774 440.241,-31.7054"/>
<polygon fill="midnightblue" stroke="midnightblue" points="443.62,-30.7804 437.974,-21.8153 436.797,-32.3445 443.62,-30.7804"/>
</g>
<!-- Node11 -->
<g id="node23" class="node"><title>Node11</title>
<a xlink:href="cv___species_8h.html" target="_top" xlink:title="cv_Species.h">
<polygon fill="white" stroke="black" points="572.5,-58.5 572.5,-79.5 651.5,-79.5 651.5,-58.5 572.5,-58.5"/>
<text text-anchor="middle" x="612" y="-66.5" font-family="DejaVuSans" font-size="10.00">cv_Species.h</text>
</a>
</g>
<!-- Node8&#45;&gt;Node11 -->
<g id="edge24" class="edge"><title>Node8&#45;&gt;Node11</title>
<path fill="none" stroke="midnightblue" d="M441.237,-174.476C472.032,-167.248 509.638,-155.688 540,-138 562.594,-124.838 583.589,-103.19 597.008,-87.6501"/>
<polygon fill="midnightblue" stroke="midnightblue" points="599.899,-89.6487 603.645,-79.738 594.536,-85.1499 599.899,-89.6487"/>
</g>
<!-- Node12 -->
<g id="node26" class="node"><title>Node12</title>
<a xlink:href="cv___trait_detail_8h.html" target="_top" xlink:title="cv_TraitDetail.h">
<polygon fill="white" stroke="black" points="338.5,-116.5 338.5,-137.5 427.5,-137.5 427.5,-116.5 338.5,-116.5"/>
<text text-anchor="middle" x="383" y="-124.5" font-family="DejaVuSans" font-size="10.00">cv_TraitDetail.h</text>
</a>
</g>
<!-- Node8&#45;&gt;Node12 -->
<g id="edge28" class="edge"><title>Node8&#45;&gt;Node12</title>
<path fill="none" stroke="midnightblue" d="M383,-174.362C383,-166.922 383,-156.743 383,-147.728"/>
<polygon fill="midnightblue" stroke="midnightblue" points="386.5,-147.571 383,-137.571 379.5,-147.571 386.5,-147.571"/>
</g>
<!-- Node13 -->
<g id="node32" class="node"><title>Node13</title>
<a xlink:href="cv___abstract_trait_8h.html" target="_top" xlink:title="cv_AbstractTrait.h">
<polygon fill="white" stroke="black" points="800.5,-116.5 800.5,-137.5 901.5,-137.5 901.5,-116.5 800.5,-116.5"/>
<text text-anchor="middle" x="851" y="-124.5" font-family="DejaVuSans" font-size="10.00">cv_AbstractTrait.h</text>
</a>
</g>
<!-- Node8&#45;&gt;Node13 -->
<g id="edge38" class="edge"><title>Node8&#45;&gt;Node13</title>
<path fill="none" stroke="midnightblue" d="M444.183,-177.418C534.006,-166.286 700.587,-145.641 790.194,-134.536"/>
<polygon fill="midnightblue" stroke="midnightblue" points="790.709,-137.999 800.203,-133.295 789.848,-131.052 790.709,-137.999"/>
</g>
<!-- Node11&#45;&gt;Node10 -->
<g id="edge26" class="edge"><title>Node11&#45;&gt;Node10</title>
<path fill="none" stroke="midnightblue" d="M579.947,-58.4966C549.383,-48.4814 503.404,-33.4147 471.457,-22.9464"/>
<polygon fill="midnightblue" stroke="midnightblue" points="472.208,-19.5094 461.615,-19.7214 470.028,-26.1614 472.208,-19.5094"/>
</g>
<!-- Node12&#45;&gt;Node6 -->
<g id="edge32" class="edge"><title>Node12&#45;&gt;Node6</title>
<path fill="none" stroke="midnightblue" d="M371.261,-116.362C362.059,-108.023 349.06,-96.2418 338.328,-86.5162"/>
<polygon fill="midnightblue" stroke="midnightblue" points="340.424,-83.6924 330.664,-79.5707 335.724,-88.8793 340.424,-83.6924"/>
</g>
<!-- Node12&#45;&gt;Node7 -->
<g id="edge34" class="edge"><title>Node12&#45;&gt;Node7</title>
<path fill="none" stroke="midnightblue" d="M380.743,-116.477C376.863,-101.08 367.399,-72.655 348,-58 317.695,-35.1062 212.814,-21.3118 151.858,-15.0414"/>
<polygon fill="midnightblue" stroke="midnightblue" points="152.042,-11.5424 141.743,-14.0284 151.345,-18.5076 152.042,-11.5424"/>
</g>
<!-- Node12&#45;&gt;Node10 -->
<g id="edge30" class="edge"><title>Node12&#45;&gt;Node10</title>
<path fill="none" stroke="midnightblue" d="M387.799,-116.295C396.505,-96.8724 415.027,-55.5561 426.103,-30.8462"/>
<polygon fill="midnightblue" stroke="midnightblue" points="429.316,-32.236 430.213,-21.6792 422.928,-29.3726 429.316,-32.236"/>
</g>
<!-- Node12&#45;&gt;Node11 -->
<g id="edge36" class="edge"><title>Node12&#45;&gt;Node11</title>
<path fill="none" stroke="midnightblue" d="M424.47,-116.497C463.288,-106.665 521.324,-91.9659 562.539,-81.5272"/>
<polygon fill="midnightblue" stroke="midnightblue" points="563.536,-84.8853 572.371,-79.0371 561.817,-78.0996 563.536,-84.8853"/>
</g>
<!-- Node13&#45;&gt;Node10 -->
<g id="edge40" class="edge"><title>Node13&#45;&gt;Node10</title>
<path fill="none" stroke="midnightblue" d="M825.426,-116.455C789.133,-101.791 720.377,-75.12 660,-58 594.601,-39.4562 516.614,-24.7808 471.747,-17.0362"/>
<polygon fill="midnightblue" stroke="midnightblue" points="472.065,-13.5399 461.619,-15.3088 470.888,-20.4402 472.065,-13.5399"/>
</g>
<!-- Node13&#45;&gt;Node11 -->
<g id="edge42" class="edge"><title>Node13&#45;&gt;Node11</title>
<path fill="none" stroke="midnightblue" d="M807.719,-116.497C766.623,-106.523 704.885,-91.5412 661.772,-81.0786"/>
<polygon fill="midnightblue" stroke="midnightblue" points="662.326,-77.6115 651.783,-78.6543 660.675,-84.414 662.326,-77.6115"/>
</g>
<!-- Node14&#45;&gt;Node6 -->
<g id="edge60" class="edge"><title>Node14&#45;&gt;Node6</title>
<path fill="none" stroke="midnightblue" d="M177.305,-174.38C185.124,-159.628 201.001,-132.853 221,-116 240.964,-99.1762 267.975,-86.8089 288.583,-78.9953"/>
<polygon fill="midnightblue" stroke="midnightblue" points="289.924,-82.2318 298.127,-75.5257 287.533,-75.6531 289.924,-82.2318"/>
</g>
<!-- Node14&#45;&gt;Node10 -->
<g id="edge46" class="edge"><title>Node14&#45;&gt;Node10</title>
<path fill="none" stroke="midnightblue" d="M173.473,-174.097C175.923,-159.494 182.027,-133.408 196,-116 203.682,-106.429 278.861,-63.1512 290,-58 325.559,-41.5562 368.483,-28.413 398.362,-20.2523"/>
<polygon fill="midnightblue" stroke="midnightblue" points="399.599,-23.5445 408.353,-17.5763 397.787,-16.7828 399.599,-23.5445"/>
</g>
<!-- Node15 -->
<g id="node39" class="node"><title>Node15</title>
<a xlink:href="cv___identity_8h.html" target="_top" xlink:title="cv_Identity.h">
<polygon fill="white" stroke="black" points="56.5,-116.5 56.5,-137.5 131.5,-137.5 131.5,-116.5 56.5,-116.5"/>
<text text-anchor="middle" x="94" y="-124.5" font-family="DejaVuSans" font-size="10.00">cv_Identity.h</text>
</a>
</g>
<!-- Node14&#45;&gt;Node15 -->
<g id="edge48" class="edge"><title>Node14&#45;&gt;Node15</title>
<path fill="none" stroke="midnightblue" d="M157.694,-174.362C146.149,-165.777 129.7,-153.546 116.41,-143.664"/>
<polygon fill="midnightblue" stroke="midnightblue" points="118.329,-140.729 108.216,-137.571 114.152,-146.346 118.329,-140.729"/>
</g>
<!-- Node15&#45;&gt;Node7 -->
<g id="edge50" class="edge"><title>Node15&#45;&gt;Node7</title>
<path fill="none" stroke="midnightblue" d="M92.7876,-116.175C91.5008,-102.529 90.0276,-78.3908 93,-58 94.3126,-48.9958 96.9692,-39.3181 99.619,-31.0986"/>
<polygon fill="midnightblue" stroke="midnightblue" points="102.934,-32.2223 102.87,-21.6276 96.3129,-29.9496 102.934,-32.2223"/>
</g>
<!-- Node15&#45;&gt;Node10 -->
<g id="edge52" class="edge"><title>Node15&#45;&gt;Node10</title>
<path fill="none" stroke="midnightblue" d="M123.435,-116.405C147.938,-107.364 183.602,-93.6882 214,-80 233.574,-71.1857 236.951,-65.6733 257,-58 304.409,-39.8552 361.504,-26.1344 398.02,-18.3321"/>
<polygon fill="midnightblue" stroke="midnightblue" points="399.134,-21.6746 408.203,-16.196 397.697,-14.8237 399.134,-21.6746"/>
</g>
<!-- Node16 -->
<g id="node43" class="node"><title>Node16</title>
<a xlink:href="cv___name_8h.html" target="_top" xlink:title="cv_Name.h">
<polygon fill="white" stroke="black" points="134.5,-58.5 134.5,-79.5 205.5,-79.5 205.5,-58.5 134.5,-58.5"/>
<text text-anchor="middle" x="170" y="-66.5" font-family="DejaVuSans" font-size="10.00">cv_Name.h</text>
</a>
</g>
<!-- Node15&#45;&gt;Node16 -->
<g id="edge54" class="edge"><title>Node15&#45;&gt;Node16</title>
<path fill="none" stroke="midnightblue" d="M107.94,-116.362C119.188,-107.777 135.216,-95.5459 148.165,-85.6636"/>
<polygon fill="midnightblue" stroke="midnightblue" points="150.323,-88.4198 156.149,-79.5707 146.076,-82.8551 150.323,-88.4198"/>
</g>
<!-- Node16&#45;&gt;Node7 -->
<g id="edge56" class="edge"><title>Node16&#45;&gt;Node7</title>
<path fill="none" stroke="midnightblue" d="M158.445,-58.3619C149.387,-50.0226 136.59,-38.2418 126.026,-28.5162"/>
<polygon fill="midnightblue" stroke="midnightblue" points="128.21,-25.7688 118.482,-21.5707 123.468,-30.9187 128.21,-25.7688"/>
</g>
<!-- Node16&#45;&gt;Node10 -->
<g id="edge58" class="edge"><title>Node16&#45;&gt;Node10</title>
<path fill="none" stroke="midnightblue" d="M205.588,-60.982C210.102,-59.9736 214.658,-58.9597 219,-58 282.006,-44.0733 355.424,-28.1661 398.399,-18.8874"/>
<polygon fill="midnightblue" stroke="midnightblue" points="399.349,-22.2631 408.385,-16.7323 397.872,-15.4206 399.349,-22.2631"/>
</g>
<!-- Node17&#45;&gt;Node11 -->
<g id="edge64" class="edge"><title>Node17&#45;&gt;Node11</title>
<path fill="none" stroke="midnightblue" d="M656.096,-116.362C648.484,-108.186 637.792,-96.7025 628.843,-87.0907"/>
<polygon fill="midnightblue" stroke="midnightblue" points="631.217,-84.5046 621.842,-79.5707 626.094,-89.2746 631.217,-84.5046"/>
</g>
<!-- Node19&#45;&gt;Node5 -->
<g id="edge84" class="edge"><title>Node19&#45;&gt;Node5</title>
<path fill="none" stroke="midnightblue" d="M366.375,-290.362C349.859,-281.409 326.026,-268.491 307.422,-258.406"/>
<polygon fill="midnightblue" stroke="midnightblue" points="308.96,-255.259 298.501,-253.571 305.625,-261.413 308.96,-255.259"/>
</g>
<!-- Node19&#45;&gt;Node8 -->
<g id="edge74" class="edge"><title>Node19&#45;&gt;Node8</title>
<path fill="none" stroke="midnightblue" d="M385.723,-290.295C385.228,-271.131 384.181,-230.654 383.539,-205.843"/>
<polygon fill="midnightblue" stroke="midnightblue" points="387.034,-205.585 383.276,-195.679 380.036,-205.766 387.034,-205.585"/>
</g>
<!-- Node19&#45;&gt;Node14 -->
<g id="edge72" class="edge"><title>Node19&#45;&gt;Node14</title>
<path fill="none" stroke="midnightblue" d="M308.325,-290.472C261.586,-282.618 207.949,-270.412 191,-254 178.071,-241.481 173.69,-221.04 172.323,-205.649"/>
<polygon fill="midnightblue" stroke="midnightblue" points="175.811,-205.318 171.781,-195.52 168.821,-205.692 175.811,-205.318"/>
</g>
<!-- Node19&#45;&gt;Node15 -->
<g id="edge70" class="edge"><title>Node19&#45;&gt;Node15</title>
<path fill="none" stroke="midnightblue" d="M306.863,-290.498C266.077,-283.35 216.181,-271.856 174,-254 130.864,-235.739 108.211,-237.241 86,-196 77.9015,-180.963 81.212,-161.446 85.7866,-147.008"/>
<polygon fill="midnightblue" stroke="midnightblue" points="89.1048,-148.123 89.196,-137.529 82.518,-145.754 89.1048,-148.123"/>
</g>
<!-- Node19&#45;&gt;Node18 -->
<g id="edge86" class="edge"><title>Node19&#45;&gt;Node18</title>
<path fill="none" stroke="midnightblue" d="M399.012,-290.295C423.46,-270.182 476.446,-226.59 506.002,-202.275"/>
<polygon fill="midnightblue" stroke="midnightblue" points="508.52,-204.735 514.019,-195.679 504.073,-199.33 508.52,-204.735"/>
</g>
<!-- Node20 -->
<g id="node58" class="node"><title>Node20</title>
<a xlink:href="cv___derangement_8h.html" target="_top" xlink:title="../Datatypes/cv_Derangement.h">
<polygon fill="white" stroke="black" points="727,-174.5 727,-195.5 897,-195.5 897,-174.5 727,-174.5"/>
<text text-anchor="middle" x="812" y="-182.5" font-family="DejaVuSans" font-size="10.00">../Datatypes/cv_Derangement.h</text>
</a>
</g>
<!-- Node19&#45;&gt;Node20 -->
<g id="edge76" class="edge"><title>Node19&#45;&gt;Node20</title>
<path fill="none" stroke="midnightblue" d="M424.934,-290.398C502.976,-269.147 678.351,-221.393 763.618,-198.174"/>
<polygon fill="midnightblue" stroke="midnightblue" points="764.581,-201.54 773.311,-195.535 762.742,-194.786 764.581,-201.54"/>
</g>
<!-- Node20&#45;&gt;Node10 -->
<g id="edge78" class="edge"><title>Node20&#45;&gt;Node10</title>
<path fill="none" stroke="midnightblue" d="M851.15,-174.478C886.51,-162.995 930.146,-142.636 910,-116 856.797,-45.6567 574.237,-20.2033 471.977,-13.2143"/>
<polygon fill="midnightblue" stroke="midnightblue" points="472.025,-9.7099 461.816,-12.5405 471.562,-16.6946 472.025,-9.7099"/>
</g>
<!-- Node20&#45;&gt;Node11 -->
<g id="edge80" class="edge"><title>Node20&#45;&gt;Node11</title>
<path fill="none" stroke="midnightblue" d="M805.708,-174.294C796.305,-159.19 777.187,-131.718 754,-116 726.216,-97.1659 690.287,-85.3688 661.522,-78.3042"/>
<polygon fill="midnightblue" stroke="midnightblue" points="662.206,-74.8697 651.671,-75.9989 660.61,-81.6856 662.206,-74.8697"/>
</g>
<!-- Node20&#45;&gt;Node13 -->
<g id="edge82" class="edge"><title>Node20&#45;&gt;Node13</title>
<path fill="none" stroke="midnightblue" d="M819.153,-174.362C824.486,-166.431 831.911,-155.389 838.251,-145.961"/>
<polygon fill="midnightblue" stroke="midnightblue" points="841.217,-147.822 843.892,-137.571 835.408,-143.916 841.217,-147.822"/>
</g>
</g>
</svg>
