<?xml version="1.0" encoding="UTF-8" standalone="no"?>
<!DOCTYPE svg PUBLIC "-//W3C//DTD SVG 1.1//EN"
 "http://www.w3.org/Graphics/SVG/1.1/DTD/svg11.dtd">
<!-- Generated by graphviz version 2.26.3 (20100126.1600)
 -->
<!-- Title: G Pages: 1 -->
<svg width="966pt" height="146pt"
 viewBox="0.00 0.00 966.00 146.00" xmlns="http://www.w3.org/2000/svg" xmlns:xlink="http://www.w3.org/1999/xlink">
<g id="graph1" class="graph" transform="scale(1 1) rotate(0) translate(4 142)">
<title>G</title>
<polygon fill="white" stroke="white" points="-4,5 -4,-142 963,-142 963,5 -4,5"/>
<!-- Node1 -->
<g id="node1" class="node"><title>Node1</title>
<polygon fill="#bfbfbf" stroke="black" points="389.5,-116.5 389.5,-137.5 536.5,-137.5 536.5,-116.5 389.5,-116.5"/>
<text text-anchor="middle" x="463" y="-124.5" font-family="DejaVuSans" font-size="10.00">src/Widgets/FlawWidget.cpp</text>
</g>
<!-- Node2 -->
<g id="node3" class="node"><title>Node2</title>
<polygon fill="white" stroke="#bfbfbf" points="125.5,-58.5 125.5,-79.5 206.5,-79.5 206.5,-58.5 125.5,-58.5"/>
<text text-anchor="middle" x="166" y="-66.5" font-family="DejaVuSans" font-size="10.00">QVBoxLayout</text>
</g>
<!-- Node1&#45;&gt;Node2 -->
<g id="edge2" class="edge"><title>Node1&#45;&gt;Node2</title>
<path fill="none" stroke="midnightblue" d="M404.515,-116.488C356.451,-107.718 286.335,-94.6282 216.473,-80.2638"/>
<polygon fill="midnightblue" stroke="midnightblue" points="217.121,-76.8237 206.619,-78.2287 215.705,-83.679 217.121,-76.8237"/>
</g>
<!-- Node3 -->
<g id="node5" class="node"><title>Node3</title>
<polygon fill="white" stroke="#bfbfbf" points="223.5,-58.5 223.5,-79.5 294.5,-79.5 294.5,-58.5 223.5,-58.5"/>
<text text-anchor="middle" x="259" y="-66.5" font-family="DejaVuSans" font-size="10.00">QGroupBox</text>
</g>
<!-- Node1&#45;&gt;Node3 -->
<g id="edge4" class="edge"><title>Node1&#45;&gt;Node3</title>
<path fill="none" stroke="midnightblue" d="M426.057,-116.497C391.948,-106.799 341.18,-92.365 304.568,-81.9556"/>
<polygon fill="midnightblue" stroke="midnightblue" points="305.219,-78.5019 294.643,-79.1337 303.304,-85.2351 305.219,-78.5019"/>
</g>
<!-- Node4 -->
<g id="node7" class="node"><title>Node4</title>
<polygon fill="white" stroke="#bfbfbf" points="312,-58.5 312,-79.5 368,-79.5 368,-58.5 312,-58.5"/>
<text text-anchor="middle" x="340" y="-66.5" font-family="DejaVuSans" font-size="10.00">QDebug</text>
</g>
<!-- Node1&#45;&gt;Node4 -->
<g id="edge6" class="edge"><title>Node1&#45;&gt;Node4</title>
<path fill="none" stroke="midnightblue" d="M440.726,-116.497C421.428,-107.397 393.287,-94.1273 371.652,-83.9253"/>
<polygon fill="midnightblue" stroke="midnightblue" points="373.062,-80.7206 362.524,-79.6212 370.076,-87.052 373.062,-80.7206"/>
</g>
<!-- Node5 -->
<g id="node9" class="node"><title>Node5</title>
<a xlink:href="_check_trait_8h.html" target="_top" xlink:title="CheckTrait.h">
<polygon fill="white" stroke="black" points="520,-58.5 520,-79.5 594,-79.5 594,-58.5 520,-58.5"/>
<text text-anchor="middle" x="557" y="-66.5" font-family="DejaVuSans" font-size="10.00">CheckTrait.h</text>
</a>
</g>
<!-- Node1&#45;&gt;Node5 -->
<g id="edge8" class="edge"><title>Node1&#45;&gt;Node5</title>
<path fill="none" stroke="midnightblue" d="M480.241,-116.362C494.552,-107.532 515.115,-94.844 531.357,-84.8224"/>
<polygon fill="midnightblue" stroke="midnightblue" points="533.196,-87.8004 539.868,-79.5707 529.52,-81.8431 533.196,-87.8004"/>
</g>
<!-- Node10 -->
<g id="node19" class="node"><title>Node10</title>
<polygon fill="white" stroke="#bfbfbf" points="845.5,-0.5 845.5,-21.5 958.5,-21.5 958.5,-0.5 845.5,-0.5"/>
<text text-anchor="middle" x="902" y="-8.5" font-family="DejaVuSans" font-size="10.00">Datatypes/cv_Trait.h</text>
</g>
<!-- Node1&#45;&gt;Node10 -->
<g id="edge22" class="edge"><title>Node1&#45;&gt;Node10</title>
<path fill="none" stroke="midnightblue" d="M501.222,-116.435C529.82,-107.991 569.588,-95.0951 603,-80 620.784,-71.9652 622.678,-64.7188 641,-58 650.121,-54.6551 760.703,-35.2847 834.97,-22.4781"/>
<polygon fill="midnightblue" stroke="midnightblue" points="835.934,-25.8638 845.194,-20.717 834.745,-18.9654 835.934,-25.8638"/>
</g>
<!-- Node12 -->
<g id="node24" class="node"><title>Node12</title>
<polygon fill="white" stroke="#bfbfbf" points="649.5,-58.5 649.5,-79.5 776.5,-79.5 776.5,-58.5 649.5,-58.5"/>
<text text-anchor="middle" x="713" y="-66.5" font-family="DejaVuSans" font-size="10.00">Exceptions/Exception.h</text>
</g>
<!-- Node1&#45;&gt;Node12 -->
<g id="edge24" class="edge"><title>Node1&#45;&gt;Node12</title>
<path fill="none" stroke="midnightblue" d="M508.273,-116.497C550.265,-106.755 612.859,-92.2328 657.772,-81.813"/>
<polygon fill="midnightblue" stroke="midnightblue" points="658.692,-85.1926 667.642,-79.5231 657.11,-78.3737 658.692,-85.1926"/>
</g>
<!-- Node13 -->
<g id="node26" class="node"><title>Node13</title>
<polygon fill="white" stroke="#bfbfbf" points="793.5,-58.5 793.5,-79.5 882.5,-79.5 882.5,-58.5 793.5,-58.5"/>
<text text-anchor="middle" x="838" y="-66.5" font-family="DejaVuSans" font-size="10.00">Config/Config.h</text>
</g>
<!-- Node1&#45;&gt;Node13 -->
<g id="edge26" class="edge"><title>Node1&#45;&gt;Node13</title>
<path fill="none" stroke="midnightblue" d="M536.736,-117.512C599.768,-109.108 693.116,-95.9739 783.112,-80.2677"/>
<polygon fill="midnightblue" stroke="midnightblue" points="783.974,-83.6698 793.217,-78.4906 782.762,-76.7756 783.974,-83.6698"/>
</g>
<!-- Node14 -->
<g id="node28" class="node"><title>Node14</title>
<polygon fill="white" stroke="#bfbfbf" points="-0.5,-0.5 -0.5,-21.5 148.5,-21.5 148.5,-0.5 -0.5,-0.5"/>
<text text-anchor="middle" x="74" y="-8.5" font-family="DejaVuSans" font-size="10.00">Storage/StorageTemplate.h</text>
</g>
<!-- Node1&#45;&gt;Node14 -->
<g id="edge28" class="edge"><title>Node1&#45;&gt;Node14</title>
<path fill="none" stroke="midnightblue" d="M453.345,-116.3C438.569,-100.678 408.706,-71.9702 377,-58 366.969,-53.5803 244.39,-35.3881 158.258,-22.9777"/>
<polygon fill="midnightblue" stroke="midnightblue" points="158.604,-19.4915 148.208,-21.5319 157.608,-26.4202 158.604,-19.4915"/>
</g>
<!-- Node15 -->
<g id="node30" class="node"><title>Node15</title>
<a xlink:href="_flaw_widget_8h.html" target="_top" xlink:title="FlawWidget.h">
<polygon fill="white" stroke="black" points="424,-58.5 424,-79.5 502,-79.5 502,-58.5 424,-58.5"/>
<text text-anchor="middle" x="463" y="-66.5" font-family="DejaVuSans" font-size="10.00">FlawWidget.h</text>
</a>
</g>
<!-- Node1&#45;&gt;Node15 -->
<g id="edge30" class="edge"><title>Node1&#45;&gt;Node15</title>
<path fill="none" stroke="midnightblue" d="M463,-116.362C463,-108.922 463,-98.7427 463,-89.7276"/>
<polygon fill="midnightblue" stroke="midnightblue" points="466.5,-89.5706 463,-79.5707 459.5,-89.5707 466.5,-89.5706"/>
</g>
<!-- Node6 -->
<g id="node11" class="node"><title>Node6</title>
<polygon fill="white" stroke="#bfbfbf" points="334,-0.5 334,-21.5 416,-21.5 416,-0.5 334,-0.5"/>
<text text-anchor="middle" x="375" y="-8.5" font-family="DejaVuSans" font-size="10.00">QHBoxLayout</text>
</g>
<!-- Node5&#45;&gt;Node6 -->
<g id="edge10" class="edge"><title>Node5&#45;&gt;Node6</title>
<path fill="none" stroke="midnightblue" d="M524.041,-58.4966C494.242,-49.0001 450.191,-34.9619 417.703,-24.6087"/>
<polygon fill="midnightblue" stroke="midnightblue" points="418.611,-21.2247 408.021,-21.5231 416.486,-27.8942 418.611,-21.2247"/>
</g>
<!-- Node7 -->
<g id="node13" class="node"><title>Node7</title>
<polygon fill="white" stroke="#bfbfbf" points="678,-0.5 678,-21.5 740,-21.5 740,-0.5 678,-0.5"/>
<text text-anchor="middle" x="709" y="-8.5" font-family="DejaVuSans" font-size="10.00">QLineEdit</text>
</g>
<!-- Node5&#45;&gt;Node7 -->
<g id="edge12" class="edge"><title>Node5&#45;&gt;Node7</title>
<path fill="none" stroke="midnightblue" d="M584.526,-58.4966C608.984,-49.1639 644.938,-35.4447 671.924,-25.1475"/>
<polygon fill="midnightblue" stroke="midnightblue" points="673.327,-28.3582 681.422,-21.5231 670.832,-21.8182 673.327,-28.3582"/>
</g>
<!-- Node8 -->
<g id="node15" class="node"><title>Node8</title>
<polygon fill="white" stroke="#bfbfbf" points="757.5,-0.5 757.5,-21.5 828.5,-21.5 828.5,-0.5 757.5,-0.5"/>
<text text-anchor="middle" x="793" y="-8.5" font-family="DejaVuSans" font-size="10.00">QCheckBox</text>
</g>
<!-- Node5&#45;&gt;Node8 -->
<g id="edge14" class="edge"><title>Node5&#45;&gt;Node8</title>
<path fill="none" stroke="midnightblue" d="M594.18,-59.956C630.827,-51.0287 688.691,-36.8993 747.615,-22.3358"/>
<polygon fill="midnightblue" stroke="midnightblue" points="748.595,-25.6989 757.462,-19.9003 746.914,-18.9037 748.595,-25.6989"/>
</g>
<!-- Node9 -->
<g id="node17" class="node"><title>Node9</title>
<polygon fill="white" stroke="#bfbfbf" points="434,-0.5 434,-21.5 586,-21.5 586,-0.5 434,-0.5"/>
<text text-anchor="middle" x="510" y="-8.5" font-family="DejaVuSans" font-size="10.00">Storage/StorageCharacter.h</text>
</g>
<!-- Node5&#45;&gt;Node9 -->
<g id="edge16" class="edge"><title>Node5&#45;&gt;Node9</title>
<path fill="none" stroke="midnightblue" d="M548.379,-58.3619C541.82,-50.2678 532.634,-38.9318 524.894,-29.3796"/>
<polygon fill="midnightblue" stroke="midnightblue" points="527.581,-27.1364 518.566,-21.5707 522.142,-31.5436 527.581,-27.1364"/>
</g>
<!-- Node5&#45;&gt;Node10 -->
<g id="edge18" class="edge"><title>Node5&#45;&gt;Node10</title>
<path fill="none" stroke="midnightblue" d="M594.275,-60.7062C598.889,-59.7545 603.548,-58.8294 608,-58 706.12,-39.721 733.617,-38.6472 835.218,-22.2715"/>
<polygon fill="midnightblue" stroke="midnightblue" points="835.976,-25.6944 845.286,-20.6379 834.855,-18.7847 835.976,-25.6944"/>
</g>
<!-- Node11 -->
<g id="node21" class="node"><title>Node11</title>
<polygon fill="white" stroke="#bfbfbf" points="604,-0.5 604,-21.5 660,-21.5 660,-0.5 604,-0.5"/>
<text text-anchor="middle" x="632" y="-8.5" font-family="DejaVuSans" font-size="10.00">QWidget</text>
</g>
<!-- Node5&#45;&gt;Node11 -->
<g id="edge20" class="edge"><title>Node5&#45;&gt;Node11</title>
<path fill="none" stroke="midnightblue" d="M570.756,-58.3619C581.751,-49.859 597.373,-37.7785 610.086,-27.9466"/>
<polygon fill="midnightblue" stroke="midnightblue" points="612.562,-30.4569 618.331,-21.5707 608.279,-24.9195 612.562,-30.4569"/>
</g>
<!-- Node15&#45;&gt;Node6 -->
<g id="edge32" class="edge"><title>Node15&#45;&gt;Node6</title>
<path fill="none" stroke="midnightblue" d="M446.859,-58.3619C433.586,-49.6138 414.568,-37.0786 399.43,-27.1015"/>
<polygon fill="midnightblue" stroke="midnightblue" points="401.314,-24.1515 391.038,-21.5707 397.462,-29.9962 401.314,-24.1515"/>
</g>
<!-- Node15&#45;&gt;Node9 -->
<g id="edge40" class="edge"><title>Node15&#45;&gt;Node9</title>
<path fill="none" stroke="midnightblue" d="M471.621,-58.3619C478.18,-50.2678 487.366,-38.9318 495.106,-29.3796"/>
<polygon fill="midnightblue" stroke="midnightblue" points="497.858,-31.5436 501.434,-21.5707 492.419,-27.1364 497.858,-31.5436"/>
</g>
<!-- Node15&#45;&gt;Node11 -->
<g id="edge42" class="edge"><title>Node15&#45;&gt;Node11</title>
<path fill="none" stroke="midnightblue" d="M493.605,-58.4966C521.806,-48.818 563.753,-34.4219 594.07,-24.0173"/>
<polygon fill="midnightblue" stroke="midnightblue" points="595.547,-27.211 603.869,-20.6543 593.275,-20.59 595.547,-27.211"/>
</g>
<!-- Node15&#45;&gt;Node14 -->
<g id="edge38" class="edge"><title>Node15&#45;&gt;Node14</title>
<path fill="none" stroke="midnightblue" d="M423.981,-60.5989C419.279,-59.6761 414.537,-58.7873 410,-58 385.772,-53.796 250.184,-35.078 158.826,-22.5699"/>
<polygon fill="midnightblue" stroke="midnightblue" points="159.128,-19.0788 148.746,-21.1905 158.179,-26.0141 159.128,-19.0788"/>
</g>
<!-- Node16 -->
<g id="node33" class="node"><title>Node16</title>
<polygon fill="white" stroke="#bfbfbf" points="243.5,-0.5 243.5,-21.5 316.5,-21.5 316.5,-0.5 243.5,-0.5"/>
<text text-anchor="middle" x="280" y="-8.5" font-family="DejaVuSans" font-size="10.00">QScrollArea</text>
</g>
<!-- Node15&#45;&gt;Node16 -->
<g id="edge34" class="edge"><title>Node15&#45;&gt;Node16</title>
<path fill="none" stroke="midnightblue" d="M429.86,-58.4966C399.897,-49.0001 355.604,-34.9619 322.938,-24.6087"/>
<polygon fill="midnightblue" stroke="midnightblue" points="323.792,-21.208 313.202,-21.5231 321.677,-27.8809 323.792,-21.208"/>
</g>
<!-- Node17 -->
<g id="node35" class="node"><title>Node17</title>
<polygon fill="white" stroke="#bfbfbf" points="166,-0.5 166,-21.5 226,-21.5 226,-0.5 166,-0.5"/>
<text text-anchor="middle" x="196" y="-8.5" font-family="DejaVuSans" font-size="10.00">QToolBox</text>
</g>
<!-- Node15&#45;&gt;Node17 -->
<g id="edge36" class="edge"><title>Node15&#45;&gt;Node17</title>
<path fill="none" stroke="midnightblue" d="M423.927,-60.8824C419.234,-59.9099 414.51,-58.9318 410,-58 335.274,-42.5593 313.808,-40.902 235.958,-22.1206"/>
<polygon fill="midnightblue" stroke="midnightblue" points="236.721,-18.7042 226.177,-19.7432 235.067,-25.5061 236.721,-18.7042"/>
</g>
</g>
</svg>
