<?xml version="1.0" encoding="UTF-8" standalone="no"?>
<!DOCTYPE svg PUBLIC "-//W3C//DTD SVG 1.1//EN"
 "http://www.w3.org/Graphics/SVG/1.1/DTD/svg11.dtd">
<!-- Generated by graphviz version 2.26.3 (20100126.1600)
 -->
<!-- Title: G Pages: 1 -->
<svg width="672pt" height="146pt"
 viewBox="0.00 0.00 672.00 146.00" xmlns="http://www.w3.org/2000/svg" xmlns:xlink="http://www.w3.org/1999/xlink">
<g id="graph1" class="graph" transform="scale(1 1) rotate(0) translate(4 142)">
<title>G</title>
<polygon fill="white" stroke="white" points="-4,5 -4,-142 669,-142 669,5 -4,5"/>
<!-- Node1 -->
<g id="node1" class="node"><title>Node1</title>
<polygon fill="#bfbfbf" stroke="black" points="182.5,-116.5 182.5,-137.5 329.5,-137.5 329.5,-116.5 182.5,-116.5"/>
<text text-anchor="middle" x="256" y="-124.5" font-family="DejaVuSans" font-size="10.00">src/Widgets/FlawWidget.cpp</text>
</g>
<!-- Node2 -->
<g id="node3" class="node"><title>Node2</title>
<polygon fill="white" stroke="#bfbfbf" points="-0.5,-58.5 -0.5,-79.5 80.5,-79.5 80.5,-58.5 -0.5,-58.5"/>
<text text-anchor="middle" x="40" y="-66.5" font-family="DejaVuSans" font-size="10.00">QVBoxLayout</text>
</g>
<!-- Node1&#45;&gt;Node2 -->
<g id="edge2" class="edge"><title>Node1&#45;&gt;Node2</title>
<path fill="none" stroke="midnightblue" d="M216.884,-116.497C181.06,-106.877 127.883,-92.5981 89.192,-82.209"/>
<polygon fill="midnightblue" stroke="midnightblue" points="89.7549,-78.7362 79.1893,-79.5231 87.9395,-85.4967 89.7549,-78.7362"/>
</g>
<!-- Node3 -->
<g id="node5" class="node"><title>Node3</title>
<polygon fill="white" stroke="#bfbfbf" points="97.5,-58.5 97.5,-79.5 168.5,-79.5 168.5,-58.5 97.5,-58.5"/>
<text text-anchor="middle" x="133" y="-66.5" font-family="DejaVuSans" font-size="10.00">QGroupBox</text>
</g>
<!-- Node1&#45;&gt;Node3 -->
<g id="edge4" class="edge"><title>Node1&#45;&gt;Node3</title>
<path fill="none" stroke="midnightblue" d="M233.726,-116.497C214.428,-107.397 186.287,-94.1273 164.652,-83.9253"/>
<polygon fill="midnightblue" stroke="midnightblue" points="166.062,-80.7206 155.524,-79.6212 163.076,-87.052 166.062,-80.7206"/>
</g>
<!-- Node4 -->
<g id="node7" class="node"><title>Node4</title>
<polygon fill="white" stroke="#bfbfbf" points="186,-58.5 186,-79.5 242,-79.5 242,-58.5 186,-58.5"/>
<text text-anchor="middle" x="214" y="-66.5" font-family="DejaVuSans" font-size="10.00">QDebug</text>
</g>
<!-- Node1&#45;&gt;Node4 -->
<g id="edge6" class="edge"><title>Node1&#45;&gt;Node4</title>
<path fill="none" stroke="midnightblue" d="M248.297,-116.362C242.554,-108.431 234.557,-97.3885 227.73,-87.9606"/>
<polygon fill="midnightblue" stroke="midnightblue" points="230.355,-85.6173 221.655,-79.5707 224.685,-89.7229 230.355,-85.6173"/>
</g>
<!-- Node5 -->
<g id="node9" class="node"><title>Node5</title>
<a xlink:href="_check_trait_8h.html" target="_top" xlink:title="CheckTrait.h">
<polygon fill="white" stroke="black" points="356,-58.5 356,-79.5 430,-79.5 430,-58.5 356,-58.5"/>
<text text-anchor="middle" x="393" y="-66.5" font-family="DejaVuSans" font-size="10.00">CheckTrait.h</text>
</a>
</g>
<!-- Node1&#45;&gt;Node5 -->
<g id="edge8" class="edge"><title>Node1&#45;&gt;Node5</title>
<path fill="none" stroke="midnightblue" d="M280.81,-116.497C302.496,-107.315 334.211,-93.8889 358.392,-83.6516"/>
<polygon fill="midnightblue" stroke="midnightblue" points="360.068,-86.7429 367.912,-79.6212 357.339,-80.2968 360.068,-86.7429"/>
</g>
<!-- Node11 -->
<g id="node21" class="node"><title>Node11</title>
<polygon fill="white" stroke="#bfbfbf" points="447.5,-58.5 447.5,-79.5 612.5,-79.5 612.5,-58.5 447.5,-58.5"/>
<text text-anchor="middle" x="530" y="-66.5" font-family="DejaVuSans" font-size="10.00">Widgets/Dialogs/MessageBox.h</text>
</g>
<!-- Node1&#45;&gt;Node11 -->
<g id="edge20" class="edge"><title>Node1&#45;&gt;Node11</title>
<path fill="none" stroke="midnightblue" d="M305.619,-116.497C351.932,-106.693 421.111,-92.0496 470.398,-81.6165"/>
<polygon fill="midnightblue" stroke="midnightblue" points="471.229,-85.0182 480.288,-79.5231 469.78,-78.1699 471.229,-85.0182"/>
</g>
<!-- Node12 -->
<g id="node23" class="node"><title>Node12</title>
<a xlink:href="_flaw_widget_8h.html" target="_top" xlink:title="FlawWidget.h">
<polygon fill="white" stroke="black" points="260,-58.5 260,-79.5 338,-79.5 338,-58.5 260,-58.5"/>
<text text-anchor="middle" x="299" y="-66.5" font-family="DejaVuSans" font-size="10.00">FlawWidget.h</text>
</a>
</g>
<!-- Node1&#45;&gt;Node12 -->
<g id="edge22" class="edge"><title>Node1&#45;&gt;Node12</title>
<path fill="none" stroke="midnightblue" d="M263.887,-116.362C269.827,-108.35 278.122,-97.1605 285.159,-87.6696"/>
<polygon fill="midnightblue" stroke="midnightblue" points="288.019,-89.6883 291.163,-79.5707 282.396,-85.5193 288.019,-89.6883"/>
</g>
<!-- Node6 -->
<g id="node11" class="node"><title>Node6</title>
<polygon fill="white" stroke="#bfbfbf" points="170,-0.5 170,-21.5 252,-21.5 252,-0.5 170,-0.5"/>
<text text-anchor="middle" x="211" y="-8.5" font-family="DejaVuSans" font-size="10.00">QHBoxLayout</text>
</g>
<!-- Node5&#45;&gt;Node6 -->
<g id="edge10" class="edge"><title>Node5&#45;&gt;Node6</title>
<path fill="none" stroke="midnightblue" d="M360.041,-58.4966C330.242,-49.0001 286.191,-34.9619 253.703,-24.6087"/>
<polygon fill="midnightblue" stroke="midnightblue" points="254.611,-21.2247 244.021,-21.5231 252.486,-27.8942 254.611,-21.2247"/>
</g>
<!-- Node7 -->
<g id="node13" class="node"><title>Node7</title>
<polygon fill="white" stroke="#bfbfbf" points="602,-0.5 602,-21.5 664,-21.5 664,-0.5 602,-0.5"/>
<text text-anchor="middle" x="633" y="-8.5" font-family="DejaVuSans" font-size="10.00">QLineEdit</text>
</g>
<!-- Node5&#45;&gt;Node7 -->
<g id="edge12" class="edge"><title>Node5&#45;&gt;Node7</title>
<path fill="none" stroke="midnightblue" d="M430.153,-60.0984C433.146,-59.3866 436.123,-58.6802 439,-58 504.331,-42.5528 523.205,-39.5747 591.598,-22.2975"/>
<polygon fill="midnightblue" stroke="midnightblue" points="592.756,-25.6147 601.588,-19.762 591.034,-18.8299 592.756,-25.6147"/>
</g>
<!-- Node8 -->
<g id="node15" class="node"><title>Node8</title>
<polygon fill="white" stroke="#bfbfbf" points="513.5,-0.5 513.5,-21.5 584.5,-21.5 584.5,-0.5 513.5,-0.5"/>
<text text-anchor="middle" x="549" y="-8.5" font-family="DejaVuSans" font-size="10.00">QCheckBox</text>
</g>
<!-- Node5&#45;&gt;Node8 -->
<g id="edge14" class="edge"><title>Node5&#45;&gt;Node8</title>
<path fill="none" stroke="midnightblue" d="M421.25,-58.4966C446.462,-49.1229 483.576,-35.3242 511.312,-25.0122"/>
<polygon fill="midnightblue" stroke="midnightblue" points="512.543,-28.2886 520.697,-21.5231 510.104,-21.7274 512.543,-28.2886"/>
</g>
<!-- Node9 -->
<g id="node17" class="node"><title>Node9</title>
<polygon fill="white" stroke="#bfbfbf" points="270,-0.5 270,-21.5 422,-21.5 422,-0.5 270,-0.5"/>
<text text-anchor="middle" x="346" y="-8.5" font-family="DejaVuSans" font-size="10.00">Storage/StorageCharacter.h</text>
</g>
<!-- Node5&#45;&gt;Node9 -->
<g id="edge16" class="edge"><title>Node5&#45;&gt;Node9</title>
<path fill="none" stroke="midnightblue" d="M384.379,-58.3619C377.82,-50.2678 368.634,-38.9318 360.894,-29.3796"/>
<polygon fill="midnightblue" stroke="midnightblue" points="363.581,-27.1364 354.566,-21.5707 358.142,-31.5436 363.581,-27.1364"/>
</g>
<!-- Node10 -->
<g id="node19" class="node"><title>Node10</title>
<polygon fill="white" stroke="#bfbfbf" points="440,-0.5 440,-21.5 496,-21.5 496,-0.5 440,-0.5"/>
<text text-anchor="middle" x="468" y="-8.5" font-family="DejaVuSans" font-size="10.00">QWidget</text>
</g>
<!-- Node5&#45;&gt;Node10 -->
<g id="edge18" class="edge"><title>Node5&#45;&gt;Node10</title>
<path fill="none" stroke="midnightblue" d="M406.756,-58.3619C417.751,-49.859 433.373,-37.7785 446.086,-27.9466"/>
<polygon fill="midnightblue" stroke="midnightblue" points="448.562,-30.4569 454.331,-21.5707 444.279,-24.9195 448.562,-30.4569"/>
</g>
<!-- Node12&#45;&gt;Node6 -->
<g id="edge24" class="edge"><title>Node12&#45;&gt;Node6</title>
<path fill="none" stroke="midnightblue" d="M282.859,-58.3619C269.586,-49.6138 250.568,-37.0786 235.43,-27.1015"/>
<polygon fill="midnightblue" stroke="midnightblue" points="237.314,-24.1515 227.038,-21.5707 233.462,-29.9962 237.314,-24.1515"/>
</g>
<!-- Node12&#45;&gt;Node9 -->
<g id="edge30" class="edge"><title>Node12&#45;&gt;Node9</title>
<path fill="none" stroke="midnightblue" d="M307.621,-58.3619C314.18,-50.2678 323.366,-38.9318 331.106,-29.3796"/>
<polygon fill="midnightblue" stroke="midnightblue" points="333.858,-31.5436 337.434,-21.5707 328.419,-27.1364 333.858,-31.5436"/>
</g>
<!-- Node12&#45;&gt;Node10 -->
<g id="edge32" class="edge"><title>Node12&#45;&gt;Node10</title>
<path fill="none" stroke="midnightblue" d="M329.605,-58.4966C357.806,-48.818 399.753,-34.4219 430.07,-24.0173"/>
<polygon fill="midnightblue" stroke="midnightblue" points="431.547,-27.211 439.869,-20.6543 429.275,-20.59 431.547,-27.211"/>
</g>
<!-- Node13 -->
<g id="node26" class="node"><title>Node13</title>
<polygon fill="white" stroke="#bfbfbf" points="79.5,-0.5 79.5,-21.5 152.5,-21.5 152.5,-0.5 79.5,-0.5"/>
<text text-anchor="middle" x="116" y="-8.5" font-family="DejaVuSans" font-size="10.00">QScrollArea</text>
</g>
<!-- Node12&#45;&gt;Node13 -->
<g id="edge26" class="edge"><title>Node12&#45;&gt;Node13</title>
<path fill="none" stroke="midnightblue" d="M265.86,-58.4966C235.897,-49.0001 191.604,-34.9619 158.938,-24.6087"/>
<polygon fill="midnightblue" stroke="midnightblue" points="159.792,-21.208 149.202,-21.5231 157.677,-27.8809 159.792,-21.208"/>
</g>
<!-- Node14 -->
<g id="node28" class="node"><title>Node14</title>
<polygon fill="white" stroke="#bfbfbf" points="2,-0.5 2,-21.5 62,-21.5 62,-0.5 2,-0.5"/>
<text text-anchor="middle" x="32" y="-8.5" font-family="DejaVuSans" font-size="10.00">QToolBox</text>
</g>
<!-- Node12&#45;&gt;Node14 -->
<g id="edge28" class="edge"><title>Node12&#45;&gt;Node14</title>
<path fill="none" stroke="midnightblue" d="M259.987,-59.964C256.949,-59.2893 253.926,-58.6277 251,-58 174.347,-41.5548 152.043,-41.0985 72.2024,-22.1628"/>
<polygon fill="midnightblue" stroke="midnightblue" points="72.7133,-18.6862 62.173,-19.7597 71.0821,-25.4936 72.7133,-18.6862"/>
</g>
</g>
</svg>
