<?xml version="1.0" encoding="UTF-8" standalone="no"?>
<!DOCTYPE svg PUBLIC "-//W3C//DTD SVG 1.1//EN"
 "http://www.w3.org/Graphics/SVG/1.1/DTD/svg11.dtd">
<!-- Generated by graphviz version 2.26.3 (20100126.1600)
 -->
<!-- Title: G Pages: 1 -->
<svg width="1014pt" height="146pt"
 viewBox="0.00 0.00 1014.00 146.00" xmlns="http://www.w3.org/2000/svg" xmlns:xlink="http://www.w3.org/1999/xlink">
<g id="graph1" class="graph" transform="scale(1 1) rotate(0) translate(4 142)">
<title>G</title>
<polygon fill="white" stroke="white" points="-4,5 -4,-142 1011,-142 1011,5 -4,5"/>
<!-- Node1 -->
<g id="node1" class="node"><title>Node1</title>
<polygon fill="#bfbfbf" stroke="black" points="378.5,-116.5 378.5,-137.5 525.5,-137.5 525.5,-116.5 378.5,-116.5"/>
<text text-anchor="middle" x="452" y="-124.5" font-family="DejaVuSans" font-size="10.00">src/Widgets/FlawWidget.cpp</text>
</g>
<!-- Node2 -->
<g id="node3" class="node"><title>Node2</title>
<polygon fill="white" stroke="#bfbfbf" points="67.5,-58.5 67.5,-79.5 148.5,-79.5 148.5,-58.5 67.5,-58.5"/>
<text text-anchor="middle" x="108" y="-66.5" font-family="DejaVuSans" font-size="10.00">QVBoxLayout</text>
</g>
<!-- Node1&#45;&gt;Node2 -->
<g id="edge2" class="edge"><title>Node1&#45;&gt;Node2</title>
<path fill="none" stroke="midnightblue" d="M378.431,-116.59C321.068,-108.171 239.177,-95.4947 158.891,-80.286"/>
<polygon fill="midnightblue" stroke="midnightblue" points="159.08,-76.7588 148.601,-78.3208 157.767,-83.6346 159.08,-76.7588"/>
</g>
<!-- Node3 -->
<g id="node5" class="node"><title>Node3</title>
<polygon fill="white" stroke="#bfbfbf" points="165.5,-58.5 165.5,-79.5 236.5,-79.5 236.5,-58.5 165.5,-58.5"/>
<text text-anchor="middle" x="201" y="-66.5" font-family="DejaVuSans" font-size="10.00">QGroupBox</text>
</g>
<!-- Node1&#45;&gt;Node3 -->
<g id="edge4" class="edge"><title>Node1&#45;&gt;Node3</title>
<path fill="none" stroke="midnightblue" d="M404.246,-116.466C364.461,-107.62 306.049,-94.4722 246.481,-80.3234"/>
<polygon fill="midnightblue" stroke="midnightblue" points="247.064,-76.8643 236.525,-77.9516 245.442,-83.6738 247.064,-76.8643"/>
</g>
<!-- Node4 -->
<g id="node7" class="node"><title>Node4</title>
<polygon fill="white" stroke="#bfbfbf" points="254,-58.5 254,-79.5 310,-79.5 310,-58.5 254,-58.5"/>
<text text-anchor="middle" x="282" y="-66.5" font-family="DejaVuSans" font-size="10.00">QDebug</text>
</g>
<!-- Node1&#45;&gt;Node4 -->
<g id="edge6" class="edge"><title>Node1&#45;&gt;Node4</title>
<path fill="none" stroke="midnightblue" d="M421.214,-116.497C392.76,-106.789 350.395,-92.3346 319.877,-81.9228"/>
<polygon fill="midnightblue" stroke="midnightblue" points="320.614,-78.476 310.019,-78.5595 318.353,-85.1011 320.614,-78.476"/>
</g>
<!-- Node5 -->
<g id="node9" class="node"><title>Node5</title>
<a xlink:href="_check_trait_8h.html" target="_top" xlink:title="CheckTrait.h">
<polygon fill="white" stroke="black" points="462,-58.5 462,-79.5 536,-79.5 536,-58.5 462,-58.5"/>
<text text-anchor="middle" x="499" y="-66.5" font-family="DejaVuSans" font-size="10.00">CheckTrait.h</text>
</a>
</g>
<!-- Node1&#45;&gt;Node5 -->
<g id="edge8" class="edge"><title>Node1&#45;&gt;Node5</title>
<path fill="none" stroke="midnightblue" d="M460.621,-116.362C467.18,-108.268 476.366,-96.9318 484.106,-87.3796"/>
<polygon fill="midnightblue" stroke="midnightblue" points="486.858,-89.5436 490.434,-79.5707 481.419,-85.1364 486.858,-89.5436"/>
</g>
<!-- Node10 -->
<g id="node19" class="node"><title>Node10</title>
<polygon fill="white" stroke="#bfbfbf" points="845.5,-0.5 845.5,-21.5 958.5,-21.5 958.5,-0.5 845.5,-0.5"/>
<text text-anchor="middle" x="902" y="-8.5" font-family="DejaVuSans" font-size="10.00">Datatypes/cv_Trait.h</text>
</g>
<!-- Node1&#45;&gt;Node10 -->
<g id="edge22" class="edge"><title>Node1&#45;&gt;Node10</title>
<path fill="none" stroke="midnightblue" d="M473.979,-116.331C492.94,-107.024 520.98,-93.0092 545,-80 562.16,-70.7062 564.556,-64.3753 583,-58 687.709,-21.8071 722.375,-38.4962 835.224,-22.1996"/>
<polygon fill="midnightblue" stroke="midnightblue" points="835.924,-25.6338 845.294,-20.6885 834.886,-18.7113 835.924,-25.6338"/>
</g>
<!-- Node12 -->
<g id="node24" class="node"><title>Node12</title>
<polygon fill="white" stroke="#bfbfbf" points="591.5,-58.5 591.5,-79.5 718.5,-79.5 718.5,-58.5 591.5,-58.5"/>
<text text-anchor="middle" x="655" y="-66.5" font-family="DejaVuSans" font-size="10.00">Exceptions/Exception.h</text>
</g>
<!-- Node1&#45;&gt;Node12 -->
<g id="edge24" class="edge"><title>Node1&#45;&gt;Node12</title>
<path fill="none" stroke="midnightblue" d="M488.762,-116.497C522.286,-106.918 571.982,-92.7196 608.304,-82.3418"/>
<polygon fill="midnightblue" stroke="midnightblue" points="609.516,-85.6357 618.169,-79.5231 607.592,-78.905 609.516,-85.6357"/>
</g>
<!-- Node13 -->
<g id="node26" class="node"><title>Node13</title>
<polygon fill="white" stroke="#bfbfbf" points="735.5,-58.5 735.5,-79.5 824.5,-79.5 824.5,-58.5 735.5,-58.5"/>
<text text-anchor="middle" x="780" y="-66.5" font-family="DejaVuSans" font-size="10.00">Config/Config.h</text>
</g>
<!-- Node1&#45;&gt;Node13 -->
<g id="edge26" class="edge"><title>Node1&#45;&gt;Node13</title>
<path fill="none" stroke="midnightblue" d="M517.404,-116.49C570.907,-107.74 648.788,-94.6538 725.637,-80.2166"/>
<polygon fill="midnightblue" stroke="midnightblue" points="726.312,-83.651 735.49,-78.357 725.014,-76.7725 726.312,-83.651"/>
</g>
<!-- Node14 -->
<g id="node28" class="node"><title>Node14</title>
<polygon fill="white" stroke="#bfbfbf" points="-0.5,-0.5 -0.5,-21.5 148.5,-21.5 148.5,-0.5 -0.5,-0.5"/>
<text text-anchor="middle" x="74" y="-8.5" font-family="DejaVuSans" font-size="10.00">Storage/StorageTemplate.h</text>
</g>
<!-- Node1&#45;&gt;Node14 -->
<g id="edge28" class="edge"><title>Node1&#45;&gt;Node14</title>
<path fill="none" stroke="midnightblue" d="M429.524,-116.392C410.14,-107.121 381.489,-93.1284 357,-80 339.801,-70.7793 337.284,-64.8229 319,-58 289.081,-46.835 212.332,-32.9371 152.635,-23.1597"/>
<polygon fill="midnightblue" stroke="midnightblue" points="152.89,-19.6552 142.458,-21.5055 151.766,-26.5646 152.89,-19.6552"/>
</g>
<!-- Node15 -->
<g id="node30" class="node"><title>Node15</title>
<polygon fill="white" stroke="#bfbfbf" points="841.5,-58.5 841.5,-79.5 1006.5,-79.5 1006.5,-58.5 841.5,-58.5"/>
<text text-anchor="middle" x="924" y="-66.5" font-family="DejaVuSans" font-size="10.00">Widgets/Dialogs/MessageBox.h</text>
</g>
<!-- Node1&#45;&gt;Node15 -->
<g id="edge30" class="edge"><title>Node1&#45;&gt;Node15</title>
<path fill="none" stroke="midnightblue" d="M525.75,-117.938C608.136,-107.814 741.653,-91.4071 831.103,-80.4153"/>
<polygon fill="midnightblue" stroke="midnightblue" points="831.745,-83.8628 841.244,-79.1692 830.892,-76.9151 831.745,-83.8628"/>
</g>
<!-- Node16 -->
<g id="node32" class="node"><title>Node16</title>
<a xlink:href="_flaw_widget_8h.html" target="_top" xlink:title="FlawWidget.h">
<polygon fill="white" stroke="black" points="366,-58.5 366,-79.5 444,-79.5 444,-58.5 366,-58.5"/>
<text text-anchor="middle" x="405" y="-66.5" font-family="DejaVuSans" font-size="10.00">FlawWidget.h</text>
</a>
</g>
<!-- Node1&#45;&gt;Node16 -->
<g id="edge32" class="edge"><title>Node1&#45;&gt;Node16</title>
<path fill="none" stroke="midnightblue" d="M443.379,-116.362C436.82,-108.268 427.634,-96.9318 419.894,-87.3796"/>
<polygon fill="midnightblue" stroke="midnightblue" points="422.581,-85.1364 413.566,-79.5707 417.142,-89.5436 422.581,-85.1364"/>
</g>
<!-- Node6 -->
<g id="node11" class="node"><title>Node6</title>
<polygon fill="white" stroke="#bfbfbf" points="408,-0.5 408,-21.5 490,-21.5 490,-0.5 408,-0.5"/>
<text text-anchor="middle" x="449" y="-8.5" font-family="DejaVuSans" font-size="10.00">QHBoxLayout</text>
</g>
<!-- Node5&#45;&gt;Node6 -->
<g id="edge10" class="edge"><title>Node5&#45;&gt;Node6</title>
<path fill="none" stroke="midnightblue" d="M489.829,-58.3619C482.852,-50.2678 473.079,-38.9318 464.844,-29.3796"/>
<polygon fill="midnightblue" stroke="midnightblue" points="467.293,-26.8595 458.113,-21.5707 461.991,-31.4301 467.293,-26.8595"/>
</g>
<!-- Node7 -->
<g id="node13" class="node"><title>Node7</title>
<polygon fill="white" stroke="#bfbfbf" points="678,-0.5 678,-21.5 740,-21.5 740,-0.5 678,-0.5"/>
<text text-anchor="middle" x="709" y="-8.5" font-family="DejaVuSans" font-size="10.00">QLineEdit</text>
</g>
<!-- Node5&#45;&gt;Node7 -->
<g id="edge12" class="edge"><title>Node5&#45;&gt;Node7</title>
<path fill="none" stroke="midnightblue" d="M536.06,-58.7643C573.027,-48.5545 629.682,-32.9069 667.982,-22.3289"/>
<polygon fill="midnightblue" stroke="midnightblue" points="669.075,-25.658 677.782,-19.622 667.211,-18.9106 669.075,-25.658"/>
</g>
<!-- Node8 -->
<g id="node15" class="node"><title>Node8</title>
<polygon fill="white" stroke="#bfbfbf" points="757.5,-0.5 757.5,-21.5 828.5,-21.5 828.5,-0.5 757.5,-0.5"/>
<text text-anchor="middle" x="793" y="-8.5" font-family="DejaVuSans" font-size="10.00">QCheckBox</text>
</g>
<!-- Node5&#45;&gt;Node8 -->
<g id="edge14" class="edge"><title>Node5&#45;&gt;Node8</title>
<path fill="none" stroke="midnightblue" d="M536.017,-60.8638C540.719,-59.8752 545.469,-58.8983 550,-58 635.065,-41.1369 659.436,-40.9047 747.177,-22.3066"/>
<polygon fill="midnightblue" stroke="midnightblue" points="747.981,-25.714 757.027,-20.1987 746.516,-18.869 747.981,-25.714"/>
</g>
<!-- Node9 -->
<g id="node17" class="node"><title>Node9</title>
<polygon fill="white" stroke="#bfbfbf" points="508,-0.5 508,-21.5 660,-21.5 660,-0.5 508,-0.5"/>
<text text-anchor="middle" x="584" y="-8.5" font-family="DejaVuSans" font-size="10.00">Storage/StorageCharacter.h</text>
</g>
<!-- Node5&#45;&gt;Node9 -->
<g id="edge16" class="edge"><title>Node5&#45;&gt;Node9</title>
<path fill="none" stroke="midnightblue" d="M514.59,-58.3619C527.291,-49.6955 545.438,-37.3126 559.992,-27.3819"/>
<polygon fill="midnightblue" stroke="midnightblue" points="562.221,-30.0982 568.509,-21.5707 558.276,-24.316 562.221,-30.0982"/>
</g>
<!-- Node5&#45;&gt;Node10 -->
<g id="edge18" class="edge"><title>Node5&#45;&gt;Node10</title>
<path fill="none" stroke="midnightblue" d="M536.251,-60.5713C540.869,-59.6427 545.535,-58.76 550,-58 673.514,-36.9749 708.076,-40.5277 835.177,-22.2184"/>
<polygon fill="midnightblue" stroke="midnightblue" points="835.912,-25.6483 845.302,-20.7421 834.902,-18.7216 835.912,-25.6483"/>
</g>
<!-- Node11 -->
<g id="node21" class="node"><title>Node11</title>
<polygon fill="white" stroke="#bfbfbf" points="334,-0.5 334,-21.5 390,-21.5 390,-0.5 334,-0.5"/>
<text text-anchor="middle" x="362" y="-8.5" font-family="DejaVuSans" font-size="10.00">QWidget</text>
</g>
<!-- Node5&#45;&gt;Node11 -->
<g id="edge20" class="edge"><title>Node5&#45;&gt;Node11</title>
<path fill="none" stroke="midnightblue" d="M474.19,-58.4966C452.504,-49.3154 420.789,-35.8889 396.608,-25.6516"/>
<polygon fill="midnightblue" stroke="midnightblue" points="397.661,-22.2968 387.088,-21.6212 394.932,-28.7429 397.661,-22.2968"/>
</g>
<!-- Node16&#45;&gt;Node6 -->
<g id="edge34" class="edge"><title>Node16&#45;&gt;Node6</title>
<path fill="none" stroke="midnightblue" d="M413.07,-58.3619C419.149,-50.3496 427.637,-39.1605 434.837,-29.6696"/>
<polygon fill="midnightblue" stroke="midnightblue" points="437.725,-31.653 440.981,-21.5707 432.149,-27.4222 437.725,-31.653"/>
</g>
<!-- Node16&#45;&gt;Node9 -->
<g id="edge42" class="edge"><title>Node16&#45;&gt;Node9</title>
<path fill="none" stroke="midnightblue" d="M437.416,-58.4966C466.724,-49.0001 510.048,-34.9619 542.001,-24.6087"/>
<polygon fill="midnightblue" stroke="midnightblue" points="543.089,-27.9352 551.524,-21.5231 540.932,-21.276 543.089,-27.9352"/>
</g>
<!-- Node16&#45;&gt;Node11 -->
<g id="edge44" class="edge"><title>Node16&#45;&gt;Node11</title>
<path fill="none" stroke="midnightblue" d="M397.113,-58.3619C391.173,-50.3496 382.878,-39.1605 375.841,-29.6696"/>
<polygon fill="midnightblue" stroke="midnightblue" points="378.604,-27.5193 369.837,-21.5707 372.981,-31.6883 378.604,-27.5193"/>
</g>
<!-- Node16&#45;&gt;Node14 -->
<g id="edge40" class="edge"><title>Node16&#45;&gt;Node14</title>
<path fill="none" stroke="midnightblue" d="M365.958,-60.7256C361.26,-59.7806 356.525,-58.8518 352,-58 284.072,-45.2133 206.496,-32.2324 150.585,-23.1622"/>
<polygon fill="midnightblue" stroke="midnightblue" points="150.835,-19.6572 140.404,-21.515 149.717,-26.5673 150.835,-19.6572"/>
</g>
<!-- Node17 -->
<g id="node35" class="node"><title>Node17</title>
<polygon fill="white" stroke="#bfbfbf" points="243.5,-0.5 243.5,-21.5 316.5,-21.5 316.5,-0.5 243.5,-0.5"/>
<text text-anchor="middle" x="280" y="-8.5" font-family="DejaVuSans" font-size="10.00">QScrollArea</text>
</g>
<!-- Node16&#45;&gt;Node17 -->
<g id="edge36" class="edge"><title>Node16&#45;&gt;Node17</title>
<path fill="none" stroke="midnightblue" d="M382.363,-58.4966C362.752,-49.397 334.154,-36.1273 312.167,-25.9253"/>
<polygon fill="midnightblue" stroke="midnightblue" points="313.435,-22.6554 302.891,-21.6212 310.488,-29.0051 313.435,-22.6554"/>
</g>
<!-- Node18 -->
<g id="node37" class="node"><title>Node18</title>
<polygon fill="white" stroke="#bfbfbf" points="166,-0.5 166,-21.5 226,-21.5 226,-0.5 166,-0.5"/>
<text text-anchor="middle" x="196" y="-8.5" font-family="DejaVuSans" font-size="10.00">QToolBox</text>
</g>
<!-- Node16&#45;&gt;Node18 -->
<g id="edge38" class="edge"><title>Node16&#45;&gt;Node18</title>
<path fill="none" stroke="midnightblue" d="M366.5,-58.4169C334.12,-49.5026 286.346,-36.3184 235.993,-22.2691"/>
<polygon fill="midnightblue" stroke="midnightblue" points="236.802,-18.8611 226.229,-19.5429 234.92,-25.6033 236.802,-18.8611"/>
</g>
</g>
</svg>
