<?xml version="1.0" encoding="UTF-8" standalone="no"?>
<!DOCTYPE svg PUBLIC "-//W3C//DTD SVG 1.1//EN"
 "http://www.w3.org/Graphics/SVG/1.1/DTD/svg11.dtd">
<!-- Generated by graphviz version 2.26.3 (20100126.1600)
 -->
<!-- Title: G Pages: 1 -->
<svg width="502pt" height="88pt"
 viewBox="0.00 0.00 502.00 88.00" xmlns="http://www.w3.org/2000/svg" xmlns:xlink="http://www.w3.org/1999/xlink">
<g id="graph1" class="graph" transform="scale(1 1) rotate(0) translate(4 84)">
<title>G</title>
<polygon fill="white" stroke="white" points="-4,5 -4,-84 499,-84 499,5 -4,5"/>
<!-- Node1 -->
<g id="node1" class="node"><title>Node1</title>
<polygon fill="#bfbfbf" stroke="black" points="152,-58.5 152,-79.5 288,-79.5 288,-58.5 152,-58.5"/>
<text text-anchor="middle" x="220" y="-66.5" font-family="DejaVuSans" font-size="10.00">src/Widgets/FlawWidget.h</text>
</g>
<!-- Node2 -->
<g id="node3" class="node"><title>Node2</title>
<polygon fill="white" stroke="#bfbfbf" points="0,-0.5 0,-21.5 82,-21.5 82,-0.5 0,-0.5"/>
<text text-anchor="middle" x="41" y="-8.5" font-family="DejaVuSans" font-size="10.00">QHBoxLayout</text>
</g>
<!-- Node1&#45;&gt;Node2 -->
<g id="edge2" class="edge"><title>Node1&#45;&gt;Node2</title>
<path fill="none" stroke="midnightblue" d="M187.584,-58.4966C158.276,-49.0001 114.952,-34.9619 82.9993,-24.6087"/>
<polygon fill="midnightblue" stroke="midnightblue" points="84.0683,-21.276 73.4763,-21.5231 81.9105,-27.9352 84.0683,-21.276"/>
</g>
<!-- Node3 -->
<g id="node5" class="node"><title>Node3</title>
<polygon fill="white" stroke="#bfbfbf" points="99.5,-0.5 99.5,-21.5 172.5,-21.5 172.5,-0.5 99.5,-0.5"/>
<text text-anchor="middle" x="136" y="-8.5" font-family="DejaVuSans" font-size="10.00">QScrollArea</text>
</g>
<!-- Node1&#45;&gt;Node3 -->
<g id="edge4" class="edge"><title>Node1&#45;&gt;Node3</title>
<path fill="none" stroke="midnightblue" d="M204.593,-58.3619C192.042,-49.6955 174.108,-37.3126 159.725,-27.3819"/>
<polygon fill="midnightblue" stroke="midnightblue" points="161.527,-24.3725 151.309,-21.5707 157.55,-30.1327 161.527,-24.3725"/>
</g>
<!-- Node4 -->
<g id="node7" class="node"><title>Node4</title>
<polygon fill="white" stroke="#bfbfbf" points="190,-0.5 190,-21.5 250,-21.5 250,-0.5 190,-0.5"/>
<text text-anchor="middle" x="220" y="-8.5" font-family="DejaVuSans" font-size="10.00">QToolBox</text>
</g>
<!-- Node1&#45;&gt;Node4 -->
<g id="edge6" class="edge"><title>Node1&#45;&gt;Node4</title>
<path fill="none" stroke="midnightblue" d="M220,-58.3619C220,-50.9219 220,-40.7427 220,-31.7276"/>
<polygon fill="midnightblue" stroke="midnightblue" points="223.5,-31.5706 220,-21.5707 216.5,-31.5707 223.5,-31.5706"/>
</g>
<!-- Node5 -->
<g id="node9" class="node"><title>Node5</title>
<polygon fill="white" stroke="#bfbfbf" points="268,-0.5 268,-21.5 420,-21.5 420,-0.5 268,-0.5"/>
<text text-anchor="middle" x="344" y="-8.5" font-family="DejaVuSans" font-size="10.00">Storage/StorageCharacter.h</text>
</g>
<!-- Node1&#45;&gt;Node5 -->
<g id="edge8" class="edge"><title>Node1&#45;&gt;Node5</title>
<path fill="none" stroke="midnightblue" d="M242.455,-58.4966C261.91,-49.397 290.28,-36.1273 312.091,-25.9253"/>
<polygon fill="midnightblue" stroke="midnightblue" points="313.717,-29.0285 321.293,-21.6212 310.752,-22.6878 313.717,-29.0285"/>
</g>
<!-- Node6 -->
<g id="node11" class="node"><title>Node6</title>
<polygon fill="white" stroke="#bfbfbf" points="438,-0.5 438,-21.5 494,-21.5 494,-0.5 438,-0.5"/>
<text text-anchor="middle" x="466" y="-8.5" font-family="DejaVuSans" font-size="10.00">QWidget</text>
</g>
<!-- Node1&#45;&gt;Node6 -->
<g id="edge10" class="edge"><title>Node1&#45;&gt;Node6</title>
<path fill="none" stroke="midnightblue" d="M271.34,-58.4693C311.552,-49.991 369.098,-37.3555 427.937,-22.1663"/>
<polygon fill="midnightblue" stroke="midnightblue" points="428.978,-25.5123 437.773,-19.6061 427.214,-18.738 428.978,-25.5123"/>
</g>
</g>
</svg>
