<?xml version="1.0" encoding="UTF-8" standalone="no"?>
<!DOCTYPE svg PUBLIC "-//W3C//DTD SVG 1.1//EN"
 "http://www.w3.org/Graphics/SVG/1.1/DTD/svg11.dtd">
<!-- Generated by graphviz version 2.26.3 (20100126.1600)
 -->
<!-- Title: G Pages: 1 -->
<svg width="652pt" height="204pt"
 viewBox="0.00 0.00 652.00 204.00" xmlns="http://www.w3.org/2000/svg" xmlns:xlink="http://www.w3.org/1999/xlink">
<g id="graph1" class="graph" transform="scale(1 1) rotate(0) translate(4 200)">
<title>G</title>
<polygon fill="white" stroke="white" points="-4,5 -4,-200 649,-200 649,5 -4,5"/>
<!-- Node1 -->
<g id="node1" class="node"><title>Node1</title>
<polygon fill="#bfbfbf" stroke="black" points="63,-174.5 63,-195.5 207,-195.5 207,-174.5 63,-174.5"/>
<text text-anchor="middle" x="135" y="-182.5" font-family="DejaVuSans" font-size="10.00">src/Widgets/InfoWidget.cpp</text>
</g>
<!-- Node2 -->
<g id="node3" class="node"><title>Node2</title>
<polygon fill="white" stroke="#bfbfbf" points="0,-116.5 0,-137.5 56,-137.5 56,-116.5 0,-116.5"/>
<text text-anchor="middle" x="28" y="-124.5" font-family="DejaVuSans" font-size="10.00">QDebug</text>
</g>
<!-- Node1&#45;&gt;Node2 -->
<g id="edge2" class="edge"><title>Node1&#45;&gt;Node2</title>
<path fill="none" stroke="midnightblue" d="M115.375,-174.362C98.8587,-165.409 75.0261,-152.491 56.4222,-142.406"/>
<polygon fill="midnightblue" stroke="midnightblue" points="57.9605,-139.259 47.501,-137.571 54.6246,-145.413 57.9605,-139.259"/>
</g>
<!-- Node3 -->
<g id="node5" class="node"><title>Node3</title>
<a xlink:href="_name_dialog_8h.html" target="_top" xlink:title="Dialogs/NameDialog.h">
<polygon fill="white" stroke="black" points="73.5,-116.5 73.5,-137.5 196.5,-137.5 196.5,-116.5 73.5,-116.5"/>
<text text-anchor="middle" x="135" y="-124.5" font-family="DejaVuSans" font-size="10.00">Dialogs/NameDialog.h</text>
</a>
</g>
<!-- Node1&#45;&gt;Node3 -->
<g id="edge4" class="edge"><title>Node1&#45;&gt;Node3</title>
<path fill="none" stroke="midnightblue" d="M135,-174.362C135,-166.922 135,-156.743 135,-147.728"/>
<polygon fill="midnightblue" stroke="midnightblue" points="138.5,-147.571 135,-137.571 131.5,-147.571 138.5,-147.571"/>
</g>
<!-- Node7 -->
<g id="node13" class="node"><title>Node7</title>
<a xlink:href="_info_widget_8h.html" target="_top" xlink:title="InfoWidget.h">
<polygon fill="white" stroke="black" points="293.5,-116.5 293.5,-137.5 368.5,-137.5 368.5,-116.5 293.5,-116.5"/>
<text text-anchor="middle" x="331" y="-124.5" font-family="DejaVuSans" font-size="10.00">InfoWidget.h</text>
</a>
</g>
<!-- Node1&#45;&gt;Node7 -->
<g id="edge12" class="edge"><title>Node1&#45;&gt;Node7</title>
<path fill="none" stroke="midnightblue" d="M170.494,-174.497C202.724,-164.959 250.434,-150.841 285.464,-140.475"/>
<polygon fill="midnightblue" stroke="midnightblue" points="286.844,-143.717 295.439,-137.523 284.857,-137.005 286.844,-143.717"/>
</g>
<!-- Node4 -->
<g id="node7" class="node"><title>Node4</title>
<polygon fill="white" stroke="#bfbfbf" points="138,-58.5 138,-79.5 214,-79.5 214,-58.5 138,-58.5"/>
<text text-anchor="middle" x="176" y="-66.5" font-family="DejaVuSans" font-size="10.00">QGridLayout</text>
</g>
<!-- Node3&#45;&gt;Node4 -->
<g id="edge6" class="edge"><title>Node3&#45;&gt;Node4</title>
<path fill="none" stroke="midnightblue" d="M142.52,-116.362C148.126,-108.431 155.932,-97.3885 162.597,-87.9606"/>
<polygon fill="midnightblue" stroke="midnightblue" points="165.613,-89.7568 168.528,-79.5707 159.897,-85.7161 165.613,-89.7568"/>
</g>
<!-- Node5 -->
<g id="node9" class="node"><title>Node5</title>
<polygon fill="white" stroke="#bfbfbf" points="139,-0.5 139,-21.5 291,-21.5 291,-0.5 139,-0.5"/>
<text text-anchor="middle" x="215" y="-8.5" font-family="DejaVuSans" font-size="10.00">Storage/StorageCharacter.h</text>
</g>
<!-- Node3&#45;&gt;Node5 -->
<g id="edge8" class="edge"><title>Node3&#45;&gt;Node5</title>
<path fill="none" stroke="midnightblue" d="M106.466,-116.444C77.4106,-104.06 39.0027,-82.1303 57,-58 67.8304,-43.4789 106.588,-31.8259 143.004,-23.7554"/>
<polygon fill="midnightblue" stroke="midnightblue" points="144.142,-27.0911 153.187,-21.5747 142.676,-20.2463 144.142,-27.0911"/>
</g>
<!-- Node6 -->
<g id="node11" class="node"><title>Node6</title>
<polygon fill="white" stroke="#bfbfbf" points="66,-58.5 66,-79.5 120,-79.5 120,-58.5 66,-58.5"/>
<text text-anchor="middle" x="93" y="-66.5" font-family="DejaVuSans" font-size="10.00">QDialog</text>
</g>
<!-- Node3&#45;&gt;Node6 -->
<g id="edge10" class="edge"><title>Node3&#45;&gt;Node6</title>
<path fill="none" stroke="midnightblue" d="M127.297,-116.362C121.554,-108.431 113.557,-97.3885 106.73,-87.9606"/>
<polygon fill="midnightblue" stroke="midnightblue" points="109.355,-85.6173 100.655,-79.5707 103.685,-89.7229 109.355,-85.6173"/>
</g>
<!-- Node7&#45;&gt;Node4 -->
<g id="edge16" class="edge"><title>Node7&#45;&gt;Node4</title>
<path fill="none" stroke="midnightblue" d="M302.931,-116.497C277.99,-107.164 241.326,-93.4447 213.808,-83.1475"/>
<polygon fill="midnightblue" stroke="midnightblue" points="214.714,-79.7497 204.122,-79.5231 212.261,-86.3058 214.714,-79.7497"/>
</g>
<!-- Node8 -->
<g id="node15" class="node"><title>Node8</title>
<polygon fill="white" stroke="#bfbfbf" points="232,-58.5 232,-79.5 282,-79.5 282,-58.5 232,-58.5"/>
<text text-anchor="middle" x="257" y="-66.5" font-family="DejaVuSans" font-size="10.00">QLabel</text>
</g>
<!-- Node7&#45;&gt;Node8 -->
<g id="edge14" class="edge"><title>Node7&#45;&gt;Node8</title>
<path fill="none" stroke="midnightblue" d="M317.427,-116.362C306.579,-107.859 291.166,-95.7785 278.621,-85.9466"/>
<polygon fill="midnightblue" stroke="midnightblue" points="280.516,-82.9848 270.487,-79.5707 276.198,-88.4942 280.516,-82.9848"/>
</g>
<!-- Node9 -->
<g id="node18" class="node"><title>Node9</title>
<polygon fill="white" stroke="#bfbfbf" points="300,-58.5 300,-79.5 362,-79.5 362,-58.5 300,-58.5"/>
<text text-anchor="middle" x="331" y="-66.5" font-family="DejaVuSans" font-size="10.00">QLineEdit</text>
</g>
<!-- Node7&#45;&gt;Node9 -->
<g id="edge18" class="edge"><title>Node7&#45;&gt;Node9</title>
<path fill="none" stroke="midnightblue" d="M331,-116.362C331,-108.922 331,-98.7427 331,-89.7276"/>
<polygon fill="midnightblue" stroke="midnightblue" points="334.5,-89.5706 331,-79.5707 327.5,-89.5707 334.5,-89.5706"/>
</g>
<!-- Node10 -->
<g id="node20" class="node"><title>Node10</title>
<polygon fill="white" stroke="#bfbfbf" points="380,-58.5 380,-79.5 460,-79.5 460,-58.5 380,-58.5"/>
<text text-anchor="middle" x="420" y="-66.5" font-family="DejaVuSans" font-size="10.00">QPushButton</text>
</g>
<!-- Node7&#45;&gt;Node10 -->
<g id="edge20" class="edge"><title>Node7&#45;&gt;Node10</title>
<path fill="none" stroke="midnightblue" d="M347.324,-116.362C360.748,-107.614 379.983,-95.0786 395.293,-85.1015"/>
<polygon fill="midnightblue" stroke="midnightblue" points="397.312,-87.9628 403.78,-79.5707 393.491,-82.0982 397.312,-87.9628"/>
</g>
<!-- Node11 -->
<g id="node22" class="node"><title>Node11</title>
<a xlink:href="_chara_species_8h.html" target="_top" xlink:title="CharaSpecies.h">
<polygon fill="white" stroke="black" points="478,-58.5 478,-79.5 570,-79.5 570,-58.5 478,-58.5"/>
<text text-anchor="middle" x="524" y="-66.5" font-family="DejaVuSans" font-size="10.00">CharaSpecies.h</text>
</a>
</g>
<!-- Node7&#45;&gt;Node11 -->
<g id="edge22" class="edge"><title>Node7&#45;&gt;Node11</title>
<path fill="none" stroke="midnightblue" d="M365.951,-116.497C397.687,-106.959 444.668,-92.8408 479.161,-82.475"/>
<polygon fill="midnightblue" stroke="midnightblue" points="480.414,-85.7531 488.984,-79.5231 478.399,-79.0492 480.414,-85.7531"/>
</g>
<!-- Node13 -->
<g id="node27" class="node"><title>Node13</title>
<polygon fill="white" stroke="#bfbfbf" points="588,-58.5 588,-79.5 644,-79.5 644,-58.5 588,-58.5"/>
<text text-anchor="middle" x="616" y="-66.5" font-family="DejaVuSans" font-size="10.00">QWidget</text>
</g>
<!-- Node7&#45;&gt;Node13 -->
<g id="edge28" class="edge"><title>Node7&#45;&gt;Node13</title>
<path fill="none" stroke="midnightblue" d="M368.647,-121.09C415.464,-113.474 497.99,-99.1707 577.603,-80.1695"/>
<polygon fill="midnightblue" stroke="midnightblue" points="578.9,-83.4567 587.799,-77.7058 577.256,-76.6525 578.9,-83.4567"/>
</g>
<!-- Node11&#45;&gt;Node5 -->
<g id="edge24" class="edge"><title>Node11&#45;&gt;Node5</title>
<path fill="none" stroke="midnightblue" d="M477.796,-59.709C474.82,-59.1261 471.869,-58.5522 469,-58 406.144,-45.8996 334.419,-32.6817 283.254,-23.354"/>
<polygon fill="midnightblue" stroke="midnightblue" points="283.77,-19.8904 273.304,-21.5418 282.515,-26.7771 283.77,-19.8904"/>
</g>
<!-- Node12 -->
<g id="node25" class="node"><title>Node12</title>
<polygon fill="white" stroke="#bfbfbf" points="485.5,-0.5 485.5,-21.5 562.5,-21.5 562.5,-0.5 485.5,-0.5"/>
<text text-anchor="middle" x="524" y="-8.5" font-family="DejaVuSans" font-size="10.00">QComboBox</text>
</g>
<!-- Node11&#45;&gt;Node12 -->
<g id="edge26" class="edge"><title>Node11&#45;&gt;Node12</title>
<path fill="none" stroke="midnightblue" d="M524,-58.3619C524,-50.9219 524,-40.7427 524,-31.7276"/>
<polygon fill="midnightblue" stroke="midnightblue" points="527.5,-31.5706 524,-21.5707 520.5,-31.5707 527.5,-31.5706"/>
</g>
</g>
</svg>
