<?xml version="1.0" encoding="UTF-8" standalone="no"?>
<!DOCTYPE svg PUBLIC "-//W3C//DTD SVG 1.1//EN"
 "http://www.w3.org/Graphics/SVG/1.1/DTD/svg11.dtd">
<!-- Generated by graphviz version 2.26.3 (20100126.1600)
 -->
<!-- Title: G Pages: 1 -->
<svg width="940pt" height="436pt"
 viewBox="0.00 0.00 940.43 436.00" xmlns="http://www.w3.org/2000/svg" xmlns:xlink="http://www.w3.org/1999/xlink">
<g id="graph1" class="graph" transform="scale(1 1) rotate(0) translate(4 432)">
<title>G</title>
<polygon fill="white" stroke="white" points="-4,5 -4,-432 937.435,-432 937.435,5 -4,5"/>
<!-- Node1 -->
<g id="node1" class="node"><title>Node1</title>
<polygon fill="#bfbfbf" stroke="black" points="421.606,-406.5 421.606,-427.5 554.606,-427.5 554.606,-406.5 421.606,-406.5"/>
<text text-anchor="middle" x="488.106" y="-414.5" font-family="DejaVuSans" font-size="10.00">src/Widgets/InfoWidget.h</text>
</g>
<!-- Node2 -->
<g id="node3" class="node"><title>Node2</title>
<polygon fill="white" stroke="#bfbfbf" points="169.106,-348.5 169.106,-369.5 245.106,-369.5 245.106,-348.5 169.106,-348.5"/>
<text text-anchor="middle" x="207.106" y="-356.5" font-family="DejaVuSans" font-size="10.00">QGridLayout</text>
</g>
<!-- Node1&#45;&gt;Node2 -->
<g id="edge2" class="edge"><title>Node1&#45;&gt;Node2</title>
<path fill="none" stroke="midnightblue" d="M433.158,-406.474C387.898,-397.687 321.798,-384.59 255.139,-370.181"/>
<polygon fill="midnightblue" stroke="midnightblue" points="255.817,-366.747 245.302,-368.046 254.332,-373.588 255.817,-366.747"/>
</g>
<!-- Node3 -->
<g id="node5" class="node"><title>Node3</title>
<polygon fill="white" stroke="#bfbfbf" points="263.106,-348.5 263.106,-369.5 325.106,-369.5 325.106,-348.5 263.106,-348.5"/>
<text text-anchor="middle" x="294.106" y="-356.5" font-family="DejaVuSans" font-size="10.00">QLineEdit</text>
</g>
<!-- Node1&#45;&gt;Node3 -->
<g id="edge4" class="edge"><title>Node1&#45;&gt;Node3</title>
<path fill="none" stroke="midnightblue" d="M452.974,-406.497C419.781,-396.573 369.999,-381.69 335.028,-371.235"/>
<polygon fill="midnightblue" stroke="midnightblue" points="335.719,-367.788 325.136,-368.277 333.714,-374.495 335.719,-367.788"/>
</g>
<!-- Node4 -->
<g id="node7" class="node"><title>Node4</title>
<polygon fill="white" stroke="#bfbfbf" points="343.106,-348.5 343.106,-369.5 423.106,-369.5 423.106,-348.5 343.106,-348.5"/>
<text text-anchor="middle" x="383.106" y="-356.5" font-family="DejaVuSans" font-size="10.00">QPushButton</text>
</g>
<!-- Node1&#45;&gt;Node4 -->
<g id="edge6" class="edge"><title>Node1&#45;&gt;Node4</title>
<path fill="none" stroke="midnightblue" d="M468.847,-406.362C452.64,-397.409 429.253,-384.491 410.997,-374.406"/>
<polygon fill="midnightblue" stroke="midnightblue" points="412.688,-371.342 402.242,-369.571 409.303,-377.47 412.688,-371.342"/>
</g>
<!-- Node5 -->
<g id="node9" class="node"><title>Node5</title>
<polygon fill="white" stroke="#bfbfbf" points="354.606,-290.5 354.606,-311.5 431.606,-311.5 431.606,-290.5 354.606,-290.5"/>
<text text-anchor="middle" x="393.106" y="-298.5" font-family="DejaVuSans" font-size="10.00">QComboBox</text>
</g>
<!-- Node1&#45;&gt;Node5 -->
<g id="edge8" class="edge"><title>Node1&#45;&gt;Node5</title>
<path fill="none" stroke="midnightblue" d="M479.412,-406.214C468.432,-392.609 448.94,-368.513 432.106,-348 424.438,-338.656 415.865,-328.314 408.714,-319.715"/>
<polygon fill="midnightblue" stroke="midnightblue" points="411.212,-317.245 402.123,-311.8 405.832,-321.724 411.212,-317.245"/>
</g>
<!-- Node6 -->
<g id="node11" class="node"><title>Node6</title>
<a xlink:href="_storage_character_8h.html" target="_top" xlink:title="../Storage/StorageCharacter.h">
<polygon fill="white" stroke="black" points="543.606,-290.5 543.606,-311.5 704.606,-311.5 704.606,-290.5 543.606,-290.5"/>
<text text-anchor="middle" x="624.106" y="-298.5" font-family="DejaVuSans" font-size="10.00">../Storage/StorageCharacter.h</text>
</a>
</g>
<!-- Node1&#45;&gt;Node6 -->
<g id="edge10" class="edge"><title>Node1&#45;&gt;Node6</title>
<path fill="none" stroke="midnightblue" d="M518.327,-406.341C537.583,-398.466 562.188,-386.286 580.106,-370 595.311,-356.18 607.379,-335.953 615.002,-320.969"/>
<polygon fill="midnightblue" stroke="midnightblue" points="618.342,-322.102 619.553,-311.576 612.042,-319.049 618.342,-322.102"/>
</g>
<!-- Node19 -->
<g id="node54" class="node"><title>Node19</title>
<a xlink:href="_storage_template_8h.html" target="_top" xlink:title="StorageTemplate.h">
<polygon fill="white" stroke="black" points="606.606,-232.5 606.606,-253.5 713.606,-253.5 713.606,-232.5 606.606,-232.5"/>
<text text-anchor="middle" x="660.106" y="-240.5" font-family="DejaVuSans" font-size="10.00">StorageTemplate.h</text>
</a>
</g>
<!-- Node1&#45;&gt;Node19 -->
<g id="edge88" class="edge"><title>Node1&#45;&gt;Node19</title>
<path fill="none" stroke="midnightblue" d="M554.122,-406.472C607.638,-394.024 679.493,-367.489 713.106,-312 724.643,-292.954 705.317,-272.962 686.847,-259.429"/>
<polygon fill="midnightblue" stroke="midnightblue" points="688.753,-256.493 678.535,-253.693 684.777,-262.254 688.753,-256.493"/>
</g>
<!-- Node22 -->
<g id="node67" class="node"><title>Node22</title>
<a xlink:href="_chara_species_8h.html" target="_top" xlink:title="CharaSpecies.h">
<polygon fill="white" stroke="black" points="479.106,-348.5 479.106,-369.5 571.106,-369.5 571.106,-348.5 479.106,-348.5"/>
<text text-anchor="middle" x="525.106" y="-356.5" font-family="DejaVuSans" font-size="10.00">CharaSpecies.h</text>
</a>
</g>
<!-- Node1&#45;&gt;Node22 -->
<g id="edge90" class="edge"><title>Node1&#45;&gt;Node22</title>
<path fill="none" stroke="midnightblue" d="M494.892,-406.362C499.899,-398.513 506.851,-387.616 512.824,-378.253"/>
<polygon fill="midnightblue" stroke="midnightblue" points="515.935,-379.884 518.362,-369.571 510.033,-376.119 515.935,-379.884"/>
</g>
<!-- Node23 -->
<g id="node73" class="node"><title>Node23</title>
<polygon fill="white" stroke="#bfbfbf" points="760.106,-348.5 760.106,-369.5 816.106,-369.5 816.106,-348.5 760.106,-348.5"/>
<text text-anchor="middle" x="788.106" y="-356.5" font-family="DejaVuSans" font-size="10.00">QWidget</text>
</g>
<!-- Node1&#45;&gt;Node23 -->
<g id="edge100" class="edge"><title>Node1&#45;&gt;Node23</title>
<path fill="none" stroke="midnightblue" d="M553.592,-406.483C605.907,-397.742 680.987,-384.437 746.106,-370 747.347,-369.725 748.608,-369.438 749.88,-369.142"/>
<polygon fill="midnightblue" stroke="midnightblue" points="750.822,-372.515 759.71,-366.749 749.166,-365.714 750.822,-372.515"/>
</g>
<!-- Node7 -->
<g id="node13" class="node"><title>Node7</title>
<a xlink:href="cv___identity_8h.html" target="_top" xlink:title="../Datatypes/cv_Identity.h">
<polygon fill="white" stroke="black" points="783.606,-116.5 783.606,-137.5 920.606,-137.5 920.606,-116.5 783.606,-116.5"/>
<text text-anchor="middle" x="852.106" y="-124.5" font-family="DejaVuSans" font-size="10.00">../Datatypes/cv_Identity.h</text>
</a>
</g>
<!-- Node6&#45;&gt;Node7 -->
<g id="edge12" class="edge"><title>Node6&#45;&gt;Node7</title>
<path fill="none" stroke="midnightblue" d="M682.114,-290.428C733.864,-277.653 806.885,-250.654 843.106,-196 852.465,-181.877 854.271,-162.519 853.99,-147.901"/>
<polygon fill="midnightblue" stroke="midnightblue" points="857.48,-147.613 853.459,-137.811 850.49,-147.981 857.48,-147.613"/>
</g>
<!-- Node11 -->
<g id="node23" class="node"><title>Node11</title>
<a xlink:href="cv___identity_list_8h.html" target="_top" xlink:title="../Datatypes/cv_IdentityList.h">
<polygon fill="white" stroke="black" points="679.606,-174.5 679.606,-195.5 834.606,-195.5 834.606,-174.5 679.606,-174.5"/>
<text text-anchor="middle" x="757.106" y="-182.5" font-family="DejaVuSans" font-size="10.00">../Datatypes/cv_IdentityList.h</text>
</a>
</g>
<!-- Node6&#45;&gt;Node11 -->
<g id="edge24" class="edge"><title>Node6&#45;&gt;Node11</title>
<path fill="none" stroke="midnightblue" d="M659.683,-290.341C679.955,-282.821 704.703,-271.02 722.106,-254 735.86,-240.548 745.18,-220.548 750.722,-205.539"/>
<polygon fill="midnightblue" stroke="midnightblue" points="754.177,-206.252 754.099,-195.657 747.553,-203.988 754.177,-206.252"/>
</g>
<!-- Node13 -->
<g id="node29" class="node"><title>Node13</title>
<a xlink:href="cv___trait_8h.html" target="_top" xlink:title="../Datatypes/cv_Trait.h">
<polygon fill="white" stroke="black" points="385.106,-174.5 385.106,-195.5 507.106,-195.5 507.106,-174.5 385.106,-174.5"/>
<text text-anchor="middle" x="446.106" y="-182.5" font-family="DejaVuSans" font-size="10.00">../Datatypes/cv_Trait.h</text>
</a>
</g>
<!-- Node6&#45;&gt;Node13 -->
<g id="edge32" class="edge"><title>Node6&#45;&gt;Node13</title>
<path fill="none" stroke="midnightblue" d="M607.679,-290.295C576.339,-269.871 507.85,-225.238 470.907,-201.162"/>
<polygon fill="midnightblue" stroke="midnightblue" points="472.525,-198.039 462.236,-195.512 468.703,-203.904 472.525,-198.039"/>
</g>
<!-- Node18 -->
<g id="node49" class="node"><title>Node18</title>
<a xlink:href="cv___derangement_8h.html" target="_top" xlink:title="../Datatypes/cv_Derangement.h">
<polygon fill="white" stroke="black" points="18.1056,-174.5 18.1056,-195.5 188.106,-195.5 188.106,-174.5 18.1056,-174.5"/>
<text text-anchor="middle" x="103.106" y="-182.5" font-family="DejaVuSans" font-size="10.00">../Datatypes/cv_Derangement.h</text>
</a>
</g>
<!-- Node6&#45;&gt;Node18 -->
<g id="edge62" class="edge"><title>Node6&#45;&gt;Node18</title>
<path fill="none" stroke="midnightblue" d="M576.489,-290.398C480.462,-269.018 263.942,-220.81 160.384,-197.753"/>
<polygon fill="midnightblue" stroke="midnightblue" points="160.945,-194.292 150.423,-195.535 159.423,-201.125 160.945,-194.292"/>
</g>
<!-- Node6&#45;&gt;Node19 -->
<g id="edge70" class="edge"><title>Node6&#45;&gt;Node19</title>
<path fill="none" stroke="midnightblue" d="M630.709,-290.362C635.58,-282.513 642.344,-271.616 648.156,-262.253"/>
<polygon fill="midnightblue" stroke="midnightblue" points="651.245,-263.913 653.545,-253.571 645.297,-260.221 651.245,-263.913"/>
</g>
<!-- Node21 -->
<g id="node63" class="node"><title>Node21</title>
<polygon fill="white" stroke="#bfbfbf" points="566.606,-174.5 566.606,-195.5 621.606,-195.5 621.606,-174.5 566.606,-174.5"/>
<text text-anchor="middle" x="594.106" y="-182.5" font-family="DejaVuSans" font-size="10.00">QObject</text>
</g>
<!-- Node6&#45;&gt;Node21 -->
<g id="edge86" class="edge"><title>Node6&#45;&gt;Node21</title>
<path fill="none" stroke="midnightblue" d="M616.423,-290.41C610.251,-281.263 601.993,-267.437 598.106,-254 593.527,-238.174 592.709,-219.477 592.935,-205.54"/>
<polygon fill="midnightblue" stroke="midnightblue" points="596.433,-205.647 593.288,-195.53 589.438,-205.4 596.433,-205.647"/>
</g>
<!-- Node8 -->
<g id="node15" class="node"><title>Node8</title>
<polygon fill="white" stroke="#bfbfbf" points="812.606,-0.5 812.606,-21.5 881.606,-21.5 881.606,-0.5 812.606,-0.5"/>
<text text-anchor="middle" x="847.106" y="-8.5" font-family="DejaVuSans" font-size="10.00">QStringList</text>
</g>
<!-- Node7&#45;&gt;Node8 -->
<g id="edge14" class="edge"><title>Node7&#45;&gt;Node8</title>
<path fill="none" stroke="midnightblue" d="M865.008,-116.469C879.445,-103.319 899.751,-79.8843 891.106,-58 886.578,-46.5388 877.789,-36.2323 869.25,-28.2117"/>
<polygon fill="midnightblue" stroke="midnightblue" points="871.436,-25.474 861.606,-21.5208 866.825,-30.7411 871.436,-25.474"/>
</g>
<!-- Node9 -->
<g id="node17" class="node"><title>Node9</title>
<polygon fill="white" stroke="#bfbfbf" points="401.606,-0.5 401.606,-21.5 454.606,-21.5 454.606,-0.5 401.606,-0.5"/>
<text text-anchor="middle" x="428.106" y="-8.5" font-family="DejaVuSans" font-size="10.00">QString</text>
</g>
<!-- Node7&#45;&gt;Node9 -->
<g id="edge16" class="edge"><title>Node7&#45;&gt;Node9</title>
<path fill="none" stroke="midnightblue" d="M841.642,-116.259C825.663,-100.583 793.501,-71.808 760.106,-58 707.293,-36.1633 540.196,-20.1754 465.186,-13.9099"/>
<polygon fill="midnightblue" stroke="midnightblue" points="465.065,-10.3882 454.812,-13.0565 464.491,-17.3646 465.065,-10.3882"/>
</g>
<!-- Node10 -->
<g id="node19" class="node"><title>Node10</title>
<a xlink:href="cv___name_8h.html" target="_top" xlink:title="cv_Name.h">
<polygon fill="white" stroke="black" points="811.606,-58.5 811.606,-79.5 882.606,-79.5 882.606,-58.5 811.606,-58.5"/>
<text text-anchor="middle" x="847.106" y="-66.5" font-family="DejaVuSans" font-size="10.00">cv_Name.h</text>
</a>
</g>
<!-- Node7&#45;&gt;Node10 -->
<g id="edge18" class="edge"><title>Node7&#45;&gt;Node10</title>
<path fill="none" stroke="midnightblue" d="M851.189,-116.362C850.547,-108.922 849.67,-98.7427 848.892,-89.7276"/>
<polygon fill="midnightblue" stroke="midnightblue" points="852.363,-89.2331 848.017,-79.5707 845.389,-89.8343 852.363,-89.2331"/>
</g>
<!-- Node10&#45;&gt;Node8 -->
<g id="edge20" class="edge"><title>Node10&#45;&gt;Node8</title>
<path fill="none" stroke="midnightblue" d="M847.106,-58.3619C847.106,-50.9219 847.106,-40.7427 847.106,-31.7276"/>
<polygon fill="midnightblue" stroke="midnightblue" points="850.606,-31.5706 847.106,-21.5707 843.606,-31.5707 850.606,-31.5706"/>
</g>
<!-- Node10&#45;&gt;Node9 -->
<g id="edge22" class="edge"><title>Node10&#45;&gt;Node9</title>
<path fill="none" stroke="midnightblue" d="M811.59,-60.6132C807.065,-59.6666 802.485,-58.768 798.106,-58 676.722,-36.7149 531.324,-21.1014 464.705,-14.4907"/>
<polygon fill="midnightblue" stroke="midnightblue" points="465,-11.0028 454.705,-13.5075 464.315,-17.9692 465,-11.0028"/>
</g>
<!-- Node11&#45;&gt;Node7 -->
<g id="edge28" class="edge"><title>Node11&#45;&gt;Node7</title>
<path fill="none" stroke="midnightblue" d="M774.53,-174.362C788.993,-165.532 809.775,-152.844 826.19,-142.822"/>
<polygon fill="midnightblue" stroke="midnightblue" points="828.08,-145.769 834.792,-137.571 824.433,-139.794 828.08,-145.769"/>
</g>
<!-- Node11&#45;&gt;Node9 -->
<g id="edge26" class="edge"><title>Node11&#45;&gt;Node9</title>
<path fill="none" stroke="midnightblue" d="M755.324,-174.35C750.556,-149.456 735.041,-87.3532 695.106,-58 659.091,-31.5286 529.554,-18.4659 465.086,-13.4864"/>
<polygon fill="midnightblue" stroke="midnightblue" points="465.184,-9.98408 454.951,-12.729 464.663,-16.9646 465.184,-9.98408"/>
</g>
<!-- Node12 -->
<g id="node27" class="node"><title>Node12</title>
<polygon fill="white" stroke="#bfbfbf" points="645.606,-58.5 645.606,-79.5 686.606,-79.5 686.606,-58.5 645.606,-58.5"/>
<text text-anchor="middle" x="666.106" y="-66.5" font-family="DejaVuSans" font-size="10.00">QList</text>
</g>
<!-- Node11&#45;&gt;Node12 -->
<g id="edge30" class="edge"><title>Node11&#45;&gt;Node12</title>
<path fill="none" stroke="midnightblue" d="M748.708,-174.295C733.268,-154.613 700.192,-112.45 680.906,-87.8668"/>
<polygon fill="midnightblue" stroke="midnightblue" points="683.409,-85.3868 674.483,-79.6792 677.902,-89.7074 683.409,-85.3868"/>
</g>
<!-- Node13&#45;&gt;Node8 -->
<g id="edge40" class="edge"><title>Node13&#45;&gt;Node8</title>
<path fill="none" stroke="midnightblue" d="M504.409,-174.465C531.038,-167.472 561.766,-156.123 585.106,-138 618.6,-111.992 602.282,-82.1995 637.106,-58 663.478,-39.6735 749.138,-24.765 802.561,-16.9488"/>
<polygon fill="midnightblue" stroke="midnightblue" points="803.063,-20.4127 812.464,-15.527 802.068,-13.4838 803.063,-20.4127"/>
</g>
<!-- Node13&#45;&gt;Node9 -->
<g id="edge36" class="edge"><title>Node13&#45;&gt;Node9</title>
<path fill="none" stroke="midnightblue" d="M435.815,-174.475C427.887,-165.58 417.552,-152.07 413.106,-138 401.633,-101.693 412.264,-57.035 420.532,-31.5091"/>
<polygon fill="midnightblue" stroke="midnightblue" points="423.921,-32.4156 423.859,-21.8209 417.301,-30.1417 423.921,-32.4156"/>
</g>
<!-- Node13&#45;&gt;Node12 -->
<g id="edge38" class="edge"><title>Node13&#45;&gt;Node12</title>
<path fill="none" stroke="midnightblue" d="M507.422,-178.713C542.403,-172.699 585.613,-160.946 618.106,-138 635.706,-125.571 648.972,-104.525 657.048,-88.9367"/>
<polygon fill="midnightblue" stroke="midnightblue" points="660.352,-90.148 661.599,-79.6269 654.063,-87.0737 660.352,-90.148"/>
</g>
<!-- Node14 -->
<g id="node31" class="node"><title>Node14</title>
<polygon fill="white" stroke="#bfbfbf" points="421.606,-116.5 421.606,-137.5 470.606,-137.5 470.606,-116.5 421.606,-116.5"/>
<text text-anchor="middle" x="446.106" y="-124.5" font-family="DejaVuSans" font-size="10.00">QFlags</text>
</g>
<!-- Node13&#45;&gt;Node14 -->
<g id="edge34" class="edge"><title>Node13&#45;&gt;Node14</title>
<path fill="none" stroke="midnightblue" d="M446.106,-174.362C446.106,-166.922 446.106,-156.743 446.106,-147.728"/>
<polygon fill="midnightblue" stroke="midnightblue" points="449.606,-147.571 446.106,-137.571 442.606,-147.571 449.606,-147.571"/>
</g>
<!-- Node15 -->
<g id="node36" class="node"><title>Node15</title>
<a xlink:href="cv___species_8h.html" target="_top" xlink:title="cv_Species.h">
<polygon fill="white" stroke="black" points="248.606,-58.5 248.606,-79.5 327.606,-79.5 327.606,-58.5 248.606,-58.5"/>
<text text-anchor="middle" x="288.106" y="-66.5" font-family="DejaVuSans" font-size="10.00">cv_Species.h</text>
</a>
</g>
<!-- Node13&#45;&gt;Node15 -->
<g id="edge42" class="edge"><title>Node13&#45;&gt;Node15</title>
<path fill="none" stroke="midnightblue" d="M431.089,-174.465C417.662,-165.007 397.481,-150.7 380.106,-138 356.032,-120.405 328.736,-99.856 310.17,-85.7877"/>
<polygon fill="midnightblue" stroke="midnightblue" points="312.135,-82.8855 302.053,-79.6289 307.904,-88.4619 312.135,-82.8855"/>
</g>
<!-- Node16 -->
<g id="node39" class="node"><title>Node16</title>
<a xlink:href="cv___trait_detail_8h.html" target="_top" xlink:title="cv_TraitDetail.h">
<polygon fill="white" stroke="black" points="487.606,-116.5 487.606,-137.5 576.606,-137.5 576.606,-116.5 487.606,-116.5"/>
<text text-anchor="middle" x="532.106" y="-124.5" font-family="DejaVuSans" font-size="10.00">cv_TraitDetail.h</text>
</a>
</g>
<!-- Node13&#45;&gt;Node16 -->
<g id="edge46" class="edge"><title>Node13&#45;&gt;Node16</title>
<path fill="none" stroke="midnightblue" d="M461.879,-174.362C474.729,-165.696 493.09,-153.313 507.815,-143.382"/>
<polygon fill="midnightblue" stroke="midnightblue" points="510.098,-146.064 516.432,-137.571 506.184,-140.26 510.098,-146.064"/>
</g>
<!-- Node17 -->
<g id="node45" class="node"><title>Node17</title>
<a xlink:href="cv___abstract_trait_8h.html" target="_top" xlink:title="cv_AbstractTrait.h">
<polygon fill="white" stroke="black" points="13.6056,-116.5 13.6056,-137.5 114.606,-137.5 114.606,-116.5 13.6056,-116.5"/>
<text text-anchor="middle" x="64.1056" y="-124.5" font-family="DejaVuSans" font-size="10.00">cv_AbstractTrait.h</text>
</a>
</g>
<!-- Node13&#45;&gt;Node17 -->
<g id="edge56" class="edge"><title>Node13&#45;&gt;Node17</title>
<path fill="none" stroke="midnightblue" d="M384.731,-175.681C313.269,-164.831 195.97,-147.021 124.801,-136.215"/>
<polygon fill="midnightblue" stroke="midnightblue" points="125.058,-132.715 114.646,-134.674 124.007,-139.635 125.058,-132.715"/>
</g>
<!-- Node15&#45;&gt;Node9 -->
<g id="edge44" class="edge"><title>Node15&#45;&gt;Node9</title>
<path fill="none" stroke="midnightblue" d="M313.459,-58.4966C335.719,-49.2746 368.317,-35.7695 393.069,-25.5153"/>
<polygon fill="midnightblue" stroke="midnightblue" points="394.569,-28.6822 402.468,-21.6212 391.89,-22.2152 394.569,-28.6822"/>
</g>
<!-- Node16&#45;&gt;Node8 -->
<g id="edge52" class="edge"><title>Node16&#45;&gt;Node8</title>
<path fill="none" stroke="midnightblue" d="M537.817,-116.367C546.762,-100.83 565.614,-72.2296 590.106,-58 625.492,-37.4404 738.689,-22.5122 802.417,-15.492"/>
<polygon fill="midnightblue" stroke="midnightblue" points="803.013,-18.9481 812.579,-14.3934 802.26,-11.9886 803.013,-18.9481"/>
</g>
<!-- Node16&#45;&gt;Node9 -->
<g id="edge48" class="edge"><title>Node16&#45;&gt;Node9</title>
<path fill="none" stroke="midnightblue" d="M522.508,-116.295C504.708,-96.4408 466.396,-53.709 444.444,-29.2239"/>
<polygon fill="midnightblue" stroke="midnightblue" points="446.962,-26.7885 437.68,-21.6792 441.75,-31.4613 446.962,-26.7885"/>
</g>
<!-- Node16&#45;&gt;Node12 -->
<g id="edge50" class="edge"><title>Node16&#45;&gt;Node12</title>
<path fill="none" stroke="midnightblue" d="M556.372,-116.497C578.777,-106.799 612.124,-92.365 636.174,-81.9556"/>
<polygon fill="midnightblue" stroke="midnightblue" points="637.745,-85.0895 645.532,-77.9052 634.964,-78.6655 637.745,-85.0895"/>
</g>
<!-- Node16&#45;&gt;Node15 -->
<g id="edge54" class="edge"><title>Node16&#45;&gt;Node15</title>
<path fill="none" stroke="midnightblue" d="M487.919,-116.497C445.62,-106.442 381.901,-91.2957 337.842,-80.8227"/>
<polygon fill="midnightblue" stroke="midnightblue" points="338.462,-77.3725 327.924,-78.465 336.843,-84.1828 338.462,-77.3725"/>
</g>
<!-- Node17&#45;&gt;Node9 -->
<g id="edge58" class="edge"><title>Node17&#45;&gt;Node9</title>
<path fill="none" stroke="midnightblue" d="M88.2342,-116.395C121.818,-101.898 184.771,-75.6827 240.106,-58 291.807,-41.4781 353.009,-27.1142 391.204,-18.7501"/>
<polygon fill="midnightblue" stroke="midnightblue" points="392.308,-22.0921 401.339,-16.5533 390.825,-15.251 392.308,-22.0921"/>
</g>
<!-- Node17&#45;&gt;Node15 -->
<g id="edge60" class="edge"><title>Node17&#45;&gt;Node15</title>
<path fill="none" stroke="midnightblue" d="M104.67,-116.497C142.327,-106.746 198.476,-92.2077 238.725,-81.786"/>
<polygon fill="midnightblue" stroke="midnightblue" points="239.791,-85.1255 248.595,-79.2305 238.037,-78.349 239.791,-85.1255"/>
</g>
<!-- Node18&#45;&gt;Node9 -->
<g id="edge64" class="edge"><title>Node18&#45;&gt;Node9</title>
<path fill="none" stroke="midnightblue" d="M63.566,-174.463C28.5354,-163.096 -14.2769,-142.941 5.10562,-116 50.6338,-52.7174 296.927,-23.2807 391.29,-14.2039"/>
<polygon fill="midnightblue" stroke="midnightblue" points="391.874,-17.6645 401.503,-13.2444 391.219,-10.6952 391.874,-17.6645"/>
</g>
<!-- Node18&#45;&gt;Node15 -->
<g id="edge66" class="edge"><title>Node18&#45;&gt;Node15</title>
<path fill="none" stroke="midnightblue" d="M109.473,-174.403C118.967,-159.431 138.196,-132.119 161.106,-116 184.258,-99.7106 213.727,-88.3469 238.449,-80.8789"/>
<polygon fill="midnightblue" stroke="midnightblue" points="239.733,-84.1509 248.368,-78.0113 237.789,-77.4263 239.733,-84.1509"/>
</g>
<!-- Node18&#45;&gt;Node17 -->
<g id="edge68" class="edge"><title>Node18&#45;&gt;Node17</title>
<path fill="none" stroke="midnightblue" d="M95.9524,-174.362C90.6198,-166.431 83.1945,-155.389 76.855,-145.961"/>
<polygon fill="midnightblue" stroke="midnightblue" points="79.6979,-143.916 71.2135,-137.571 73.889,-147.822 79.6979,-143.916"/>
</g>
<!-- Node19&#45;&gt;Node8 -->
<g id="edge74" class="edge"><title>Node19&#45;&gt;Node8</title>
<path fill="none" stroke="midnightblue" d="M713.779,-234.234C751.141,-226.941 801.518,-214.69 843.106,-196 885.156,-177.101 907.461,-178.705 929.106,-138 942.387,-113.024 909.501,-62.581 906.106,-58 897.22,-46.0109 884.554,-35.3826 873.235,-27.2792"/>
<polygon fill="midnightblue" stroke="midnightblue" points="875.155,-24.3524 864.926,-21.5939 871.202,-30.1295 875.155,-24.3524"/>
</g>
<!-- Node19&#45;&gt;Node11 -->
<g id="edge78" class="edge"><title>Node19&#45;&gt;Node11</title>
<path fill="none" stroke="midnightblue" d="M677.897,-232.362C692.664,-223.532 713.884,-210.844 730.644,-200.822"/>
<polygon fill="midnightblue" stroke="midnightblue" points="732.641,-203.707 739.427,-195.571 729.048,-197.699 732.641,-203.707"/>
</g>
<!-- Node19&#45;&gt;Node12 -->
<g id="edge72" class="edge"><title>Node19&#45;&gt;Node12</title>
<path fill="none" stroke="midnightblue" d="M660.472,-232.377C661.44,-204.293 664.082,-127.673 665.374,-90.2027"/>
<polygon fill="midnightblue" stroke="midnightblue" points="668.882,-90.0424 665.729,-79.9277 661.886,-89.8011 668.882,-90.0424"/>
</g>
<!-- Node19&#45;&gt;Node13 -->
<g id="edge76" class="edge"><title>Node19&#45;&gt;Node13</title>
<path fill="none" stroke="midnightblue" d="M621.352,-232.497C585.86,-222.877 533.175,-208.598 494.842,-198.209"/>
<polygon fill="midnightblue" stroke="midnightblue" points="495.499,-194.761 484.932,-195.523 493.668,-201.517 495.499,-194.761"/>
</g>
<!-- Node20 -->
<g id="node60" class="node"><title>Node20</title>
<a xlink:href="cv___super_effect_8h.html" target="_top" xlink:title="../Datatypes/cv_SuperEffect.h">
<polygon fill="white" stroke="black" points="170.106,-116.5 170.106,-137.5 328.106,-137.5 328.106,-116.5 170.106,-116.5"/>
<text text-anchor="middle" x="249.106" y="-124.5" font-family="DejaVuSans" font-size="10.00">../Datatypes/cv_SuperEffect.h</text>
</a>
</g>
<!-- Node19&#45;&gt;Node20 -->
<g id="edge80" class="edge"><title>Node19&#45;&gt;Node20</title>
<path fill="none" stroke="midnightblue" d="M606.466,-239.468C548.374,-234.425 453.622,-222.625 376.106,-196 338.061,-182.933 297.861,-159.173 273.125,-143.237"/>
<polygon fill="midnightblue" stroke="midnightblue" points="275.029,-140.299 264.744,-137.754 271.197,-146.157 275.029,-140.299"/>
</g>
<!-- Node19&#45;&gt;Node21 -->
<g id="edge84" class="edge"><title>Node19&#45;&gt;Node21</title>
<path fill="none" stroke="midnightblue" d="M648,-232.362C638.418,-223.941 624.842,-212.011 613.713,-202.231"/>
<polygon fill="midnightblue" stroke="midnightblue" points="615.956,-199.543 606.134,-195.571 611.336,-204.801 615.956,-199.543"/>
</g>
<!-- Node20&#45;&gt;Node15 -->
<g id="edge82" class="edge"><title>Node20&#45;&gt;Node15</title>
<path fill="none" stroke="midnightblue" d="M256.259,-116.362C261.591,-108.431 269.017,-97.3885 275.356,-87.9606"/>
<polygon fill="midnightblue" stroke="midnightblue" points="278.322,-89.8221 280.998,-79.5707 272.513,-85.9161 278.322,-89.8221"/>
</g>
<!-- Node22&#45;&gt;Node5 -->
<g id="edge98" class="edge"><title>Node22&#45;&gt;Node5</title>
<path fill="none" stroke="midnightblue" d="M501.201,-348.497C480.306,-339.315 449.749,-325.889 426.451,-315.652"/>
<polygon fill="midnightblue" stroke="midnightblue" points="427.841,-312.44 417.278,-311.621 425.025,-318.848 427.841,-312.44"/>
</g>
<!-- Node22&#45;&gt;Node6 -->
<g id="edge92" class="edge"><title>Node22&#45;&gt;Node6</title>
<path fill="none" stroke="midnightblue" d="M543.264,-348.362C558.335,-339.532 579.993,-326.844 597.098,-316.822"/>
<polygon fill="midnightblue" stroke="midnightblue" points="599.204,-319.646 606.063,-311.571 595.665,-313.606 599.204,-319.646"/>
</g>
<!-- Node22&#45;&gt;Node13 -->
<g id="edge94" class="edge"><title>Node22&#45;&gt;Node13</title>
<path fill="none" stroke="midnightblue" d="M519.684,-348.231C514.944,-338.743 507.927,-324.521 502.106,-312 484.683,-274.526 465.471,-230.264 454.687,-205.127"/>
<polygon fill="midnightblue" stroke="midnightblue" points="457.762,-203.418 450.611,-195.601 451.327,-206.172 457.762,-203.418"/>
</g>
<!-- Node22&#45;&gt;Node16 -->
<g id="edge96" class="edge"><title>Node22&#45;&gt;Node16</title>
<path fill="none" stroke="midnightblue" d="M525.425,-348.429C526.504,-312.648 530.034,-195.663 531.48,-147.748"/>
<polygon fill="midnightblue" stroke="midnightblue" points="534.982,-147.735 531.785,-137.634 527.985,-147.523 534.982,-147.735"/>
</g>
</g>
</svg>
