<?xml version="1.0" encoding="UTF-8" standalone="no"?>
<!DOCTYPE svg PUBLIC "-//W3C//DTD SVG 1.1//EN"
 "http://www.w3.org/Graphics/SVG/1.1/DTD/svg11.dtd">
<!-- Generated by graphviz version 2.26.3 (20100126.1600)
 -->
<!-- Title: G Pages: 1 -->
<svg width="1298pt" height="494pt"
 viewBox="0.00 0.00 1298.00 494.00" xmlns="http://www.w3.org/2000/svg" xmlns:xlink="http://www.w3.org/1999/xlink">
<g id="graph1" class="graph" transform="scale(1 1) rotate(0) translate(4 490)">
<title>G</title>
<polygon fill="white" stroke="white" points="-4,5 -4,-490 1295,-490 1295,5 -4,5"/>
<!-- Node1 -->
<g id="node1" class="node"><title>Node1</title>
<polygon fill="#bfbfbf" stroke="black" points="214,-464.5 214,-485.5 358,-485.5 358,-464.5 214,-464.5"/>
<text text-anchor="middle" x="286" y="-472.5" font-family="DejaVuSans" font-size="10.00">src/Widgets/InfoWidget.cpp</text>
</g>
<!-- Node2 -->
<g id="node3" class="node"><title>Node2</title>
<polygon fill="white" stroke="#bfbfbf" points="115,-406.5 115,-427.5 165,-427.5 165,-406.5 115,-406.5"/>
<text text-anchor="middle" x="140" y="-414.5" font-family="DejaVuSans" font-size="10.00">QLabel</text>
</g>
<!-- Node1&#45;&gt;Node2 -->
<g id="edge2" class="edge"><title>Node1&#45;&gt;Node2</title>
<path fill="none" stroke="midnightblue" d="M259.561,-464.497C235.806,-455.06 200.764,-441.139 174.751,-430.805"/>
<polygon fill="midnightblue" stroke="midnightblue" points="175.852,-427.476 165.266,-427.037 173.267,-433.982 175.852,-427.476"/>
</g>
<!-- Node3 -->
<g id="node5" class="node"><title>Node3</title>
<polygon fill="white" stroke="#bfbfbf" points="183,-406.5 183,-427.5 239,-427.5 239,-406.5 183,-406.5"/>
<text text-anchor="middle" x="211" y="-414.5" font-family="DejaVuSans" font-size="10.00">QDebug</text>
</g>
<!-- Node1&#45;&gt;Node3 -->
<g id="edge4" class="edge"><title>Node1&#45;&gt;Node3</title>
<path fill="none" stroke="midnightblue" d="M272.244,-464.362C261.249,-455.859 245.627,-443.779 232.914,-433.947"/>
<polygon fill="midnightblue" stroke="midnightblue" points="234.721,-430.919 224.669,-427.571 230.438,-436.457 234.721,-430.919"/>
</g>
<!-- Node4 -->
<g id="node7" class="node"><title>Node4</title>
<a xlink:href="_exception_8h_source.html" target="_top" xlink:title="../Exceptions/Exception.h">
<polygon fill="white" stroke="black" points="337,-232.5 337,-253.5 473,-253.5 473,-232.5 337,-232.5"/>
<text text-anchor="middle" x="405" y="-240.5" font-family="DejaVuSans" font-size="10.00">../Exceptions/Exception.h</text>
</a>
</g>
<!-- Node1&#45;&gt;Node4 -->
<g id="edge6" class="edge"><title>Node1&#45;&gt;Node4</title>
<path fill="none" stroke="midnightblue" d="M287.828,-464.301C291.96,-441.802 303.309,-388.342 324,-348 341.176,-314.511 369.446,-280.975 387.637,-261.109"/>
<polygon fill="midnightblue" stroke="midnightblue" points="390.272,-263.415 394.527,-253.712 385.15,-258.644 390.272,-263.415"/>
</g>
<!-- Node16 -->
<g id="node44" class="node"><title>Node16</title>
<a xlink:href="_config_8h.html" target="_top" xlink:title="../Config/Config.h">
<polygon fill="white" stroke="black" points="50,-174.5 50,-195.5 148,-195.5 148,-174.5 50,-174.5"/>
<text text-anchor="middle" x="99" y="-182.5" font-family="DejaVuSans" font-size="10.00">../Config/Config.h</text>
</a>
</g>
<!-- Node1&#45;&gt;Node16 -->
<g id="edge64" class="edge"><title>Node1&#45;&gt;Node16</title>
<path fill="none" stroke="midnightblue" d="M283.031,-464.222C277.688,-443.841 267,-398.182 267,-359 267,-359 267,-359 267,-301 267,-245.176 203.41,-214.134 154.475,-198.511"/>
<polygon fill="midnightblue" stroke="midnightblue" points="155.493,-195.162 144.907,-195.589 153.449,-201.857 155.493,-195.162"/>
</g>
<!-- Node19 -->
<g id="node52" class="node"><title>Node19</title>
<a xlink:href="_name_dialog_8h.html" target="_top" xlink:title="Dialogs/NameDialog.h">
<polygon fill="white" stroke="black" points="343.5,-406.5 343.5,-427.5 466.5,-427.5 466.5,-406.5 343.5,-406.5"/>
<text text-anchor="middle" x="405" y="-414.5" font-family="DejaVuSans" font-size="10.00">Dialogs/NameDialog.h</text>
</a>
</g>
<!-- Node1&#45;&gt;Node19 -->
<g id="edge66" class="edge"><title>Node1&#45;&gt;Node19</title>
<path fill="none" stroke="midnightblue" d="M307.55,-464.497C326.136,-455.438 353.202,-442.246 374.095,-432.063"/>
<polygon fill="midnightblue" stroke="midnightblue" points="375.753,-435.149 383.208,-427.621 372.686,-428.856 375.753,-435.149"/>
</g>
<!-- Node28 -->
<g id="node84" class="node"><title>Node28</title>
<a xlink:href="_info_widget_8h.html" target="_top" xlink:title="InfoWidget.h">
<polygon fill="white" stroke="black" points="632.5,-406.5 632.5,-427.5 707.5,-427.5 707.5,-406.5 632.5,-406.5"/>
<text text-anchor="middle" x="670" y="-414.5" font-family="DejaVuSans" font-size="10.00">InfoWidget.h</text>
</a>
</g>
<!-- Node1&#45;&gt;Node28 -->
<g id="edge112" class="edge"><title>Node1&#45;&gt;Node28</title>
<path fill="none" stroke="midnightblue" d="M355.54,-464.497C432.677,-452.846 555.076,-434.358 622.152,-424.227"/>
<polygon fill="midnightblue" stroke="midnightblue" points="623.061,-427.629 632.426,-422.675 622.016,-420.708 623.061,-427.629"/>
</g>
<!-- Node5 -->
<g id="node9" class="node"><title>Node5</title>
<polygon fill="white" stroke="#bfbfbf" points="579.5,-0.5 579.5,-21.5 632.5,-21.5 632.5,-0.5 579.5,-0.5"/>
<text text-anchor="middle" x="606" y="-8.5" font-family="DejaVuSans" font-size="10.00">QString</text>
</g>
<!-- Node4&#45;&gt;Node5 -->
<g id="edge8" class="edge"><title>Node4&#45;&gt;Node5</title>
<path fill="none" stroke="midnightblue" d="M403.136,-232.152C398.407,-200.76 389.349,-108.841 435,-58 452.795,-38.1815 524.649,-23.6829 569.359,-16.3661"/>
<polygon fill="midnightblue" stroke="midnightblue" points="569.949,-19.8163 579.274,-14.7879 568.849,-12.9034 569.949,-19.8163"/>
</g>
<!-- Node6 -->
<g id="node11" class="node"><title>Node6</title>
<a xlink:href="cv___trait_8h.html" target="_top" xlink:title="../Datatypes/cv_Trait.h">
<polygon fill="white" stroke="black" points="682,-174.5 682,-195.5 804,-195.5 804,-174.5 682,-174.5"/>
<text text-anchor="middle" x="743" y="-182.5" font-family="DejaVuSans" font-size="10.00">../Datatypes/cv_Trait.h</text>
</a>
</g>
<!-- Node4&#45;&gt;Node6 -->
<g id="edge10" class="edge"><title>Node4&#45;&gt;Node6</title>
<path fill="none" stroke="midnightblue" d="M466.209,-232.497C524.146,-222.555 611.089,-207.636 672.034,-197.178"/>
<polygon fill="midnightblue" stroke="midnightblue" points="672.697,-200.615 681.961,-195.474 671.513,-193.716 672.697,-200.615"/>
</g>
<!-- Node13 -->
<g id="node33" class="node"><title>Node13</title>
<a xlink:href="cv___shape_8h.html" target="_top" xlink:title="../Datatypes/cv_Shape.h">
<polygon fill="white" stroke="black" points="444,-58.5 444,-79.5 578,-79.5 578,-58.5 444,-58.5"/>
<text text-anchor="middle" x="511" y="-66.5" font-family="DejaVuSans" font-size="10.00">../Datatypes/cv_Shape.h</text>
</a>
</g>
<!-- Node4&#45;&gt;Node13 -->
<g id="edge40" class="edge"><title>Node4&#45;&gt;Node13</title>
<path fill="none" stroke="midnightblue" d="M411.471,-232.377C428.801,-203.93 476.468,-125.684 498.957,-88.7689"/>
<polygon fill="midnightblue" stroke="midnightblue" points="502.129,-90.2887 504.343,-79.9277 496.151,-86.6469 502.129,-90.2887"/>
</g>
<!-- Node14 -->
<g id="node36" class="node"><title>Node14</title>
<a xlink:href="cv___identity_8h.html" target="_top" xlink:title="../Datatypes/cv_Identity.h">
<polygon fill="white" stroke="black" points="203.5,-116.5 203.5,-137.5 340.5,-137.5 340.5,-116.5 203.5,-116.5"/>
<text text-anchor="middle" x="272" y="-124.5" font-family="DejaVuSans" font-size="10.00">../Datatypes/cv_Identity.h</text>
</a>
</g>
<!-- Node4&#45;&gt;Node14 -->
<g id="edge44" class="edge"><title>Node4&#45;&gt;Node14</title>
<path fill="none" stroke="midnightblue" d="M392.726,-232.295C369.665,-212.182 319.685,-168.59 291.807,-144.275"/>
<polygon fill="midnightblue" stroke="midnightblue" points="294.081,-141.615 284.244,-137.679 289.48,-146.89 294.081,-141.615"/>
</g>
<!-- Node4&#45;&gt;Node16 -->
<g id="edge56" class="edge"><title>Node4&#45;&gt;Node16</title>
<path fill="none" stroke="midnightblue" d="M349.586,-232.497C295.594,-222.263 213.777,-206.755 158.449,-196.268"/>
<polygon fill="midnightblue" stroke="midnightblue" points="158.916,-192.794 148.439,-194.371 157.612,-199.672 158.916,-192.794"/>
</g>
<!-- Node6&#45;&gt;Node5 -->
<g id="edge14" class="edge"><title>Node6&#45;&gt;Node5</title>
<path fill="none" stroke="midnightblue" d="M737.988,-174.287C723.759,-143.888 684.07,-59.1903 683,-58 671.15,-44.8129 654.723,-34.0981 640.085,-26.2476"/>
<polygon fill="midnightblue" stroke="midnightblue" points="641.288,-22.9323 630.79,-21.5052 638.106,-29.1677 641.288,-22.9323"/>
</g>
<!-- Node7 -->
<g id="node13" class="node"><title>Node7</title>
<polygon fill="white" stroke="#bfbfbf" points="729.5,-116.5 729.5,-137.5 778.5,-137.5 778.5,-116.5 729.5,-116.5"/>
<text text-anchor="middle" x="754" y="-124.5" font-family="DejaVuSans" font-size="10.00">QFlags</text>
</g>
<!-- Node6&#45;&gt;Node7 -->
<g id="edge12" class="edge"><title>Node6&#45;&gt;Node7</title>
<path fill="none" stroke="midnightblue" d="M745.018,-174.362C746.444,-166.84 748.402,-156.519 750.125,-147.431"/>
<polygon fill="midnightblue" stroke="midnightblue" points="753.571,-148.048 751.995,-137.571 746.693,-146.743 753.571,-148.048"/>
</g>
<!-- Node8 -->
<g id="node16" class="node"><title>Node8</title>
<polygon fill="white" stroke="#bfbfbf" points="633.5,-58.5 633.5,-79.5 674.5,-79.5 674.5,-58.5 633.5,-58.5"/>
<text text-anchor="middle" x="654" y="-66.5" font-family="DejaVuSans" font-size="10.00">QList</text>
</g>
<!-- Node6&#45;&gt;Node8 -->
<g id="edge16" class="edge"><title>Node6&#45;&gt;Node8</title>
<path fill="none" stroke="midnightblue" d="M727.496,-174.444C715.561,-165.729 699.254,-152.478 688,-138 676.393,-123.067 667.222,-103.539 661.345,-89.0701"/>
<polygon fill="midnightblue" stroke="midnightblue" points="664.539,-87.6248 657.66,-79.5668 658.012,-90.1557 664.539,-87.6248"/>
</g>
<!-- Node9 -->
<g id="node18" class="node"><title>Node9</title>
<polygon fill="white" stroke="#bfbfbf" points="217.5,-0.5 217.5,-21.5 286.5,-21.5 286.5,-0.5 217.5,-0.5"/>
<text text-anchor="middle" x="252" y="-8.5" font-family="DejaVuSans" font-size="10.00">QStringList</text>
</g>
<!-- Node6&#45;&gt;Node9 -->
<g id="edge18" class="edge"><title>Node6&#45;&gt;Node9</title>
<path fill="none" stroke="midnightblue" d="M681.819,-174.995C560.982,-154.721 300.764,-108.317 271,-80 257.961,-67.5951 253.595,-47.1389 252.261,-31.7132"/>
<polygon fill="midnightblue" stroke="midnightblue" points="255.748,-31.3667 251.745,-21.5571 248.757,-31.7218 255.748,-31.3667"/>
</g>
<!-- Node10 -->
<g id="node20" class="node"><title>Node10</title>
<a xlink:href="cv___species_8h.html" target="_top" xlink:title="cv_Species.h">
<polygon fill="white" stroke="black" points="919.5,-58.5 919.5,-79.5 998.5,-79.5 998.5,-58.5 919.5,-58.5"/>
<text text-anchor="middle" x="959" y="-66.5" font-family="DejaVuSans" font-size="10.00">cv_Species.h</text>
</a>
</g>
<!-- Node6&#45;&gt;Node10 -->
<g id="edge20" class="edge"><title>Node6&#45;&gt;Node10</title>
<path fill="none" stroke="midnightblue" d="M799.301,-174.461C828.741,-167.247 864.483,-155.706 893,-138 914.073,-124.916 933.06,-103.554 945.2,-88.0609"/>
<polygon fill="midnightblue" stroke="midnightblue" points="948.268,-89.8072 951.521,-79.724 942.69,-85.5781 948.268,-89.8072"/>
</g>
<!-- Node11 -->
<g id="node23" class="node"><title>Node11</title>
<a xlink:href="cv___trait_detail_8h.html" target="_top" xlink:title="cv_TraitDetail.h">
<polygon fill="white" stroke="black" points="795.5,-116.5 795.5,-137.5 884.5,-137.5 884.5,-116.5 795.5,-116.5"/>
<text text-anchor="middle" x="840" y="-124.5" font-family="DejaVuSans" font-size="10.00">cv_TraitDetail.h</text>
</a>
</g>
<!-- Node6&#45;&gt;Node11 -->
<g id="edge24" class="edge"><title>Node6&#45;&gt;Node11</title>
<path fill="none" stroke="midnightblue" d="M760.791,-174.362C775.559,-165.532 796.778,-152.844 813.538,-142.822"/>
<polygon fill="midnightblue" stroke="midnightblue" points="815.535,-145.707 822.321,-137.571 811.943,-139.699 815.535,-145.707"/>
</g>
<!-- Node12 -->
<g id="node29" class="node"><title>Node12</title>
<a xlink:href="cv___abstract_trait_8h.html" target="_top" xlink:title="cv_AbstractTrait.h">
<polygon fill="white" stroke="black" points="1115.5,-116.5 1115.5,-137.5 1216.5,-137.5 1216.5,-116.5 1115.5,-116.5"/>
<text text-anchor="middle" x="1166" y="-124.5" font-family="DejaVuSans" font-size="10.00">cv_AbstractTrait.h</text>
</a>
</g>
<!-- Node6&#45;&gt;Node12 -->
<g id="edge34" class="edge"><title>Node6&#45;&gt;Node12</title>
<path fill="none" stroke="midnightblue" d="M804.011,-178.178C874.314,-170.081 993.544,-155.624 1105.1,-138.243"/>
<polygon fill="midnightblue" stroke="midnightblue" points="1105.85,-141.669 1115.18,-136.661 1104.76,-134.754 1105.85,-141.669"/>
</g>
<!-- Node10&#45;&gt;Node5 -->
<g id="edge22" class="edge"><title>Node10&#45;&gt;Node5</title>
<path fill="none" stroke="midnightblue" d="M919.193,-62.4594C850.218,-51.1264 709.481,-28.0026 642.718,-17.0329"/>
<polygon fill="midnightblue" stroke="midnightblue" points="643.095,-13.5481 632.66,-15.3804 641.96,-20.4555 643.095,-13.5481"/>
</g>
<!-- Node11&#45;&gt;Node5 -->
<g id="edge26" class="edge"><title>Node11&#45;&gt;Node5</title>
<path fill="none" stroke="midnightblue" d="M832.167,-116.463C820.355,-101.311 796.523,-73.4922 770,-58 729.903,-34.579 677.408,-22.2171 642.74,-16.1531"/>
<polygon fill="midnightblue" stroke="midnightblue" points="643.025,-12.6525 632.587,-14.468 641.879,-19.5581 643.025,-12.6525"/>
</g>
<!-- Node11&#45;&gt;Node8 -->
<g id="edge28" class="edge"><title>Node11&#45;&gt;Node8</title>
<path fill="none" stroke="midnightblue" d="M806.317,-116.497C771.593,-105.669 717.935,-88.9367 684.448,-78.4945"/>
<polygon fill="midnightblue" stroke="midnightblue" points="685.335,-75.1049 674.746,-75.4692 683.251,-81.7875 685.335,-75.1049"/>
</g>
<!-- Node11&#45;&gt;Node9 -->
<g id="edge30" class="edge"><title>Node11&#45;&gt;Node9</title>
<path fill="none" stroke="midnightblue" d="M820.874,-116.289C791.987,-100.651 735.059,-71.9242 683,-58 610.898,-38.7152 391.857,-21.1037 296.806,-14.1461"/>
<polygon fill="midnightblue" stroke="midnightblue" points="296.88,-10.6424 286.653,-13.4091 296.373,-17.6241 296.88,-10.6424"/>
</g>
<!-- Node11&#45;&gt;Node10 -->
<g id="edge32" class="edge"><title>Node11&#45;&gt;Node10</title>
<path fill="none" stroke="midnightblue" d="M861.55,-116.497C880.136,-107.438 907.202,-94.2462 928.095,-84.0628"/>
<polygon fill="midnightblue" stroke="midnightblue" points="929.753,-87.1487 937.208,-79.6212 926.686,-80.8563 929.753,-87.1487"/>
</g>
<!-- Node12&#45;&gt;Node5 -->
<g id="edge36" class="edge"><title>Node12&#45;&gt;Node5</title>
<path fill="none" stroke="midnightblue" d="M1146.6,-116.35C1117.3,-100.791 1059.59,-72.1628 1007,-58 876.312,-22.8061 714.641,-13.9642 643.072,-11.7439"/>
<polygon fill="midnightblue" stroke="midnightblue" points="642.874,-8.23698 632.779,-11.4517 642.675,-15.2342 642.874,-8.23698"/>
</g>
<!-- Node12&#45;&gt;Node10 -->
<g id="edge38" class="edge"><title>Node12&#45;&gt;Node10</title>
<path fill="none" stroke="midnightblue" d="M1128.51,-116.497C1094.33,-106.918 1043.65,-92.7196 1006.62,-82.3418"/>
<polygon fill="midnightblue" stroke="midnightblue" points="1007.13,-78.8509 996.556,-79.5231 1005.24,-85.5914 1007.13,-78.8509"/>
</g>
<!-- Node13&#45;&gt;Node5 -->
<g id="edge42" class="edge"><title>Node13&#45;&gt;Node5</title>
<path fill="none" stroke="midnightblue" d="M528.424,-58.3619C542.887,-49.532 563.669,-36.844 580.084,-26.8224"/>
<polygon fill="midnightblue" stroke="midnightblue" points="581.975,-29.7688 588.686,-21.5707 578.327,-23.7943 581.975,-29.7688"/>
</g>
<!-- Node14&#45;&gt;Node5 -->
<g id="edge48" class="edge"><title>Node14&#45;&gt;Node5</title>
<path fill="none" stroke="midnightblue" d="M291.508,-116.474C326.368,-97.6883 396.27,-60.1386 402,-58 458.659,-36.8542 527.851,-23.3406 569.344,-16.4713"/>
<polygon fill="midnightblue" stroke="midnightblue" points="569.959,-19.9175 579.272,-14.8674 568.842,-13.0071 569.959,-19.9175"/>
</g>
<!-- Node14&#45;&gt;Node9 -->
<g id="edge46" class="edge"><title>Node14&#45;&gt;Node9</title>
<path fill="none" stroke="midnightblue" d="M261.071,-116.173C252.951,-107.308 242.529,-93.9886 238,-80 232.839,-64.0612 237.218,-45.4105 242.4,-31.5208"/>
<polygon fill="midnightblue" stroke="midnightblue" points="245.772,-32.5287 246.375,-21.9511 239.307,-29.8434 245.772,-32.5287"/>
</g>
<!-- Node15 -->
<g id="node40" class="node"><title>Node15</title>
<a xlink:href="cv___name_8h.html" target="_top" xlink:title="cv_Name.h">
<polygon fill="white" stroke="black" points="279.5,-58.5 279.5,-79.5 350.5,-79.5 350.5,-58.5 279.5,-58.5"/>
<text text-anchor="middle" x="315" y="-66.5" font-family="DejaVuSans" font-size="10.00">cv_Name.h</text>
</a>
</g>
<!-- Node14&#45;&gt;Node15 -->
<g id="edge50" class="edge"><title>Node14&#45;&gt;Node15</title>
<path fill="none" stroke="midnightblue" d="M279.887,-116.362C285.827,-108.35 294.122,-97.1605 301.159,-87.6696"/>
<polygon fill="midnightblue" stroke="midnightblue" points="304.019,-89.6883 307.163,-79.5707 298.396,-85.5193 304.019,-89.6883"/>
</g>
<!-- Node15&#45;&gt;Node5 -->
<g id="edge54" class="edge"><title>Node15&#45;&gt;Node5</title>
<path fill="none" stroke="midnightblue" d="M350.568,-60.8882C355.085,-59.8955 359.648,-58.9109 364,-58 436.634,-42.7973 521.89,-26.6279 569.352,-17.7751"/>
<polygon fill="midnightblue" stroke="midnightblue" points="570.26,-21.1664 579.45,-15.8956 568.979,-14.2846 570.26,-21.1664"/>
</g>
<!-- Node15&#45;&gt;Node9 -->
<g id="edge52" class="edge"><title>Node15&#45;&gt;Node9</title>
<path fill="none" stroke="midnightblue" d="M303.445,-58.3619C294.387,-50.0226 281.59,-38.2418 271.026,-28.5162"/>
<polygon fill="midnightblue" stroke="midnightblue" points="273.21,-25.7688 263.482,-21.5707 268.468,-30.9187 273.21,-25.7688"/>
</g>
<!-- Node16&#45;&gt;Node5 -->
<g id="edge58" class="edge"><title>Node16&#45;&gt;Node5</title>
<path fill="none" stroke="midnightblue" d="M109.465,-174.215C134.625,-149.032 201.584,-86.3474 271,-58 324.486,-36.1578 493.628,-20.1281 569.063,-13.8778"/>
<polygon fill="midnightblue" stroke="midnightblue" points="569.381,-17.3635 579.063,-13.0612 568.811,-10.3868 569.381,-17.3635"/>
</g>
<!-- Node17 -->
<g id="node47" class="node"><title>Node17</title>
<polygon fill="white" stroke="#bfbfbf" points="61.5,-116.5 61.5,-137.5 110.5,-137.5 110.5,-116.5 61.5,-116.5"/>
<text text-anchor="middle" x="86" y="-124.5" font-family="DejaVuSans" font-size="10.00">QColor</text>
</g>
<!-- Node16&#45;&gt;Node17 -->
<g id="edge60" class="edge"><title>Node16&#45;&gt;Node17</title>
<path fill="none" stroke="midnightblue" d="M96.6156,-174.362C94.9297,-166.84 92.6163,-156.519 90.5793,-147.431"/>
<polygon fill="midnightblue" stroke="midnightblue" points="93.9717,-146.563 88.3693,-137.571 87.1412,-148.094 93.9717,-146.563"/>
</g>
<!-- Node18 -->
<g id="node49" class="node"><title>Node18</title>
<polygon fill="white" stroke="#bfbfbf" points="-0.5,-116.5 -0.5,-137.5 44.5,-137.5 44.5,-116.5 -0.5,-116.5"/>
<text text-anchor="middle" x="22" y="-124.5" font-family="DejaVuSans" font-size="10.00">QFont</text>
</g>
<!-- Node16&#45;&gt;Node18 -->
<g id="edge62" class="edge"><title>Node16&#45;&gt;Node18</title>
<path fill="none" stroke="midnightblue" d="M84.877,-174.362C73.4802,-165.777 57.2419,-153.546 44.1223,-143.664"/>
<polygon fill="midnightblue" stroke="midnightblue" points="46.1268,-140.792 36.0335,-137.571 41.9152,-146.383 46.1268,-140.792"/>
</g>
<!-- Node20 -->
<g id="node54" class="node"><title>Node20</title>
<polygon fill="white" stroke="#bfbfbf" points="443,-348.5 443,-369.5 519,-369.5 519,-348.5 443,-348.5"/>
<text text-anchor="middle" x="481" y="-356.5" font-family="DejaVuSans" font-size="10.00">QGridLayout</text>
</g>
<!-- Node19&#45;&gt;Node20 -->
<g id="edge68" class="edge"><title>Node19&#45;&gt;Node20</title>
<path fill="none" stroke="midnightblue" d="M418.94,-406.362C430.188,-397.777 446.216,-385.546 459.165,-375.664"/>
<polygon fill="midnightblue" stroke="midnightblue" points="461.323,-378.42 467.149,-369.571 457.076,-372.855 461.323,-378.42"/>
</g>
<!-- Node21 -->
<g id="node56" class="node"><title>Node21</title>
<a xlink:href="_storage_character_8h.html" target="_top" xlink:title="../../Storage/StorageCharacter.h">
<polygon fill="white" stroke="black" points="574,-290.5 574,-311.5 744,-311.5 744,-290.5 574,-290.5"/>
<text text-anchor="middle" x="659" y="-298.5" font-family="DejaVuSans" font-size="10.00">../../Storage/StorageCharacter.h</text>
</a>
</g>
<!-- Node19&#45;&gt;Node21 -->
<g id="edge70" class="edge"><title>Node19&#45;&gt;Node21</title>
<path fill="none" stroke="midnightblue" d="M406.378,-406.301C408.947,-390.946 415.952,-362.878 434,-348 454.032,-331.486 511.825,-319.617 563.819,-311.938"/>
<polygon fill="midnightblue" stroke="midnightblue" points="564.388,-315.392 573.788,-310.505 563.392,-308.464 564.388,-315.392"/>
</g>
<!-- Node27 -->
<g id="node82" class="node"><title>Node27</title>
<polygon fill="white" stroke="#bfbfbf" points="333,-348.5 333,-369.5 387,-369.5 387,-348.5 333,-348.5"/>
<text text-anchor="middle" x="360" y="-356.5" font-family="DejaVuSans" font-size="10.00">QDialog</text>
</g>
<!-- Node19&#45;&gt;Node27 -->
<g id="edge110" class="edge"><title>Node19&#45;&gt;Node27</title>
<path fill="none" stroke="midnightblue" d="M396.746,-406.362C390.53,-398.35 381.849,-387.161 374.485,-377.67"/>
<polygon fill="midnightblue" stroke="midnightblue" points="377.097,-375.326 368.201,-369.571 371.566,-379.617 377.097,-375.326"/>
</g>
<!-- Node21&#45;&gt;Node6 -->
<g id="edge82" class="edge"><title>Node21&#45;&gt;Node6</title>
<path fill="none" stroke="midnightblue" d="M677.226,-290.326C690.185,-281.913 707.152,-269.104 718,-254 728.424,-239.486 734.93,-220.165 738.682,-205.661"/>
<polygon fill="midnightblue" stroke="midnightblue" points="742.15,-206.203 741.034,-195.667 735.336,-204.6 742.15,-206.203"/>
</g>
<!-- Node21&#45;&gt;Node14 -->
<g id="edge72" class="edge"><title>Node21&#45;&gt;Node14</title>
<path fill="none" stroke="midnightblue" d="M573.835,-298.166C488.828,-293.738 365.592,-282.475 328,-254 293.746,-228.053 280.041,-176.629 274.877,-147.813"/>
<polygon fill="midnightblue" stroke="midnightblue" points="278.286,-146.964 273.245,-137.645 271.374,-148.074 278.286,-146.964"/>
</g>
<!-- Node22 -->
<g id="node59" class="node"><title>Node22</title>
<a xlink:href="cv___identity_list_8h.html" target="_top" xlink:title="../Datatypes/cv_IdentityList.h">
<polygon fill="white" stroke="black" points="471.5,-174.5 471.5,-195.5 626.5,-195.5 626.5,-174.5 471.5,-174.5"/>
<text text-anchor="middle" x="549" y="-182.5" font-family="DejaVuSans" font-size="10.00">../Datatypes/cv_IdentityList.h</text>
</a>
</g>
<!-- Node21&#45;&gt;Node22 -->
<g id="edge74" class="edge"><title>Node21&#45;&gt;Node22</title>
<path fill="none" stroke="midnightblue" d="M640.793,-290.399C626.933,-281.755 607.93,-268.618 594,-254 579.891,-239.195 567.503,-219.4 559.316,-204.809"/>
<polygon fill="midnightblue" stroke="midnightblue" points="562.198,-202.782 554.35,-195.665 556.047,-206.123 562.198,-202.782"/>
</g>
<!-- Node23 -->
<g id="node65" class="node"><title>Node23</title>
<a xlink:href="cv___derangement_8h.html" target="_top" xlink:title="../Datatypes/cv_Derangement.h">
<polygon fill="white" stroke="black" points="1120,-174.5 1120,-195.5 1290,-195.5 1290,-174.5 1120,-174.5"/>
<text text-anchor="middle" x="1205" y="-182.5" font-family="DejaVuSans" font-size="10.00">../Datatypes/cv_Derangement.h</text>
</a>
</g>
<!-- Node21&#45;&gt;Node23 -->
<g id="edge84" class="edge"><title>Node21&#45;&gt;Node23</title>
<path fill="none" stroke="midnightblue" d="M708.901,-290.398C809.739,-268.975 1037.36,-220.615 1145.63,-197.614"/>
<polygon fill="midnightblue" stroke="midnightblue" points="1146.36,-201.037 1155.41,-195.535 1144.9,-194.19 1146.36,-201.037"/>
</g>
<!-- Node24 -->
<g id="node70" class="node"><title>Node24</title>
<a xlink:href="_storage_template_8h.html" target="_top" xlink:title="StorageTemplate.h">
<polygon fill="white" stroke="black" points="602.5,-232.5 602.5,-253.5 709.5,-253.5 709.5,-232.5 602.5,-232.5"/>
<text text-anchor="middle" x="656" y="-240.5" font-family="DejaVuSans" font-size="10.00">StorageTemplate.h</text>
</a>
</g>
<!-- Node21&#45;&gt;Node24 -->
<g id="edge92" class="edge"><title>Node21&#45;&gt;Node24</title>
<path fill="none" stroke="midnightblue" d="M658.45,-290.362C658.065,-282.922 657.538,-272.743 657.072,-263.728"/>
<polygon fill="midnightblue" stroke="midnightblue" points="660.559,-263.376 656.547,-253.571 653.568,-263.738 660.559,-263.376"/>
</g>
<!-- Node26 -->
<g id="node79" class="node"><title>Node26</title>
<polygon fill="white" stroke="#bfbfbf" points="859.5,-174.5 859.5,-195.5 914.5,-195.5 914.5,-174.5 859.5,-174.5"/>
<text text-anchor="middle" x="887" y="-182.5" font-family="DejaVuSans" font-size="10.00">QObject</text>
</g>
<!-- Node21&#45;&gt;Node26 -->
<g id="edge108" class="edge"><title>Node21&#45;&gt;Node26</title>
<path fill="none" stroke="midnightblue" d="M680.041,-290.295C720.78,-269.568 810.524,-223.909 857.311,-200.105"/>
<polygon fill="midnightblue" stroke="midnightblue" points="859.013,-203.166 866.339,-195.512 855.839,-196.927 859.013,-203.166"/>
</g>
<!-- Node22&#45;&gt;Node5 -->
<g id="edge76" class="edge"><title>Node22&#45;&gt;Node5</title>
<path fill="none" stroke="midnightblue" d="M553.164,-174.363C560.474,-155.508 575.893,-114.916 587,-80 592.112,-63.9303 597.144,-45.5062 600.744,-31.7406"/>
<polygon fill="midnightblue" stroke="midnightblue" points="604.19,-32.3908 603.298,-21.8336 597.412,-30.643 604.19,-32.3908"/>
</g>
<!-- Node22&#45;&gt;Node8 -->
<g id="edge80" class="edge"><title>Node22&#45;&gt;Node8</title>
<path fill="none" stroke="midnightblue" d="M558.69,-174.295C576.661,-154.441 615.341,-111.709 637.504,-87.2239"/>
<polygon fill="midnightblue" stroke="midnightblue" points="640.217,-89.4419 644.333,-79.6792 635.028,-84.7443 640.217,-89.4419"/>
</g>
<!-- Node22&#45;&gt;Node14 -->
<g id="edge78" class="edge"><title>Node22&#45;&gt;Node14</title>
<path fill="none" stroke="midnightblue" d="M498.837,-174.497C452.017,-164.693 382.081,-150.05 332.254,-139.616"/>
<polygon fill="midnightblue" stroke="midnightblue" points="332.762,-136.147 322.257,-137.523 331.327,-142.998 332.762,-136.147"/>
</g>
<!-- Node23&#45;&gt;Node5 -->
<g id="edge86" class="edge"><title>Node23&#45;&gt;Node5</title>
<path fill="none" stroke="midnightblue" d="M1217.75,-174.359C1233.07,-160.277 1255.05,-135.015 1241,-116 1188.77,-45.3406 1138.09,-75.5747 1052,-58 902.092,-27.3977 719.533,-16.0831 642.778,-12.477"/>
<polygon fill="midnightblue" stroke="midnightblue" points="642.812,-8.97503 632.664,-12.0181 642.495,-15.9678 642.812,-8.97503"/>
</g>
<!-- Node23&#45;&gt;Node10 -->
<g id="edge88" class="edge"><title>Node23&#45;&gt;Node10</title>
<path fill="none" stroke="midnightblue" d="M1213.41,-174.424C1224.02,-159.724 1239.27,-133.009 1225,-116 1197.95,-83.7471 1078.01,-73.6165 1008.78,-70.4421"/>
<polygon fill="midnightblue" stroke="midnightblue" points="1008.68,-66.9347 998.536,-70.0062 1008.38,-73.9284 1008.68,-66.9347"/>
</g>
<!-- Node23&#45;&gt;Node12 -->
<g id="edge90" class="edge"><title>Node23&#45;&gt;Node12</title>
<path fill="none" stroke="midnightblue" d="M1197.85,-174.362C1192.51,-166.431 1185.09,-155.389 1178.75,-145.961"/>
<polygon fill="midnightblue" stroke="midnightblue" points="1181.59,-143.916 1173.11,-137.571 1175.78,-147.822 1181.59,-143.916"/>
</g>
<!-- Node24&#45;&gt;Node6 -->
<g id="edge98" class="edge"><title>Node24&#45;&gt;Node6</title>
<path fill="none" stroke="midnightblue" d="M671.957,-232.362C684.957,-223.696 703.531,-211.313 718.427,-201.382"/>
<polygon fill="midnightblue" stroke="midnightblue" points="720.765,-204.03 727.144,-195.571 716.882,-198.206 720.765,-204.03"/>
</g>
<!-- Node24&#45;&gt;Node8 -->
<g id="edge94" class="edge"><title>Node24&#45;&gt;Node8</title>
<path fill="none" stroke="midnightblue" d="M655.878,-232.377C655.555,-204.293 654.674,-127.673 654.244,-90.2027"/>
<polygon fill="midnightblue" stroke="midnightblue" points="657.74,-89.8868 654.126,-79.9277 650.741,-89.9673 657.74,-89.8868"/>
</g>
<!-- Node24&#45;&gt;Node9 -->
<g id="edge96" class="edge"><title>Node24&#45;&gt;Node9</title>
<path fill="none" stroke="midnightblue" d="M602.283,-238.947C491.861,-229.382 245.489,-201.282 195,-138 167.954,-104.102 206.827,-55.3288 232.497,-29.1876"/>
<polygon fill="midnightblue" stroke="midnightblue" points="235.285,-31.3543 239.953,-21.8429 230.373,-26.3677 235.285,-31.3543"/>
</g>
<!-- Node24&#45;&gt;Node22 -->
<g id="edge100" class="edge"><title>Node24&#45;&gt;Node22</title>
<path fill="none" stroke="midnightblue" d="M636.375,-232.362C619.859,-223.409 596.026,-210.491 577.422,-200.406"/>
<polygon fill="midnightblue" stroke="midnightblue" points="578.96,-197.259 568.501,-195.571 575.625,-203.413 578.96,-197.259"/>
</g>
<!-- Node25 -->
<g id="node76" class="node"><title>Node25</title>
<a xlink:href="cv___super_effect_8h.html" target="_top" xlink:title="../Datatypes/cv_SuperEffect.h">
<polygon fill="white" stroke="black" points="940,-116.5 940,-137.5 1098,-137.5 1098,-116.5 940,-116.5"/>
<text text-anchor="middle" x="1019" y="-124.5" font-family="DejaVuSans" font-size="10.00">../Datatypes/cv_SuperEffect.h</text>
</a>
</g>
<!-- Node24&#45;&gt;Node25 -->
<g id="edge102" class="edge"><title>Node24&#45;&gt;Node25</title>
<path fill="none" stroke="midnightblue" d="M701.313,-232.439C733.219,-224.284 776.565,-211.742 813,-196 830.915,-188.26 833.016,-181.578 851,-174 885.652,-159.399 926.208,-147.905 958.791,-139.94"/>
<polygon fill="midnightblue" stroke="midnightblue" points="959.722,-143.316 968.631,-137.581 958.091,-136.508 959.722,-143.316"/>
</g>
<!-- Node24&#45;&gt;Node26 -->
<g id="edge106" class="edge"><title>Node24&#45;&gt;Node26</title>
<path fill="none" stroke="midnightblue" d="M699.831,-232.416C738.381,-223.046 795.985,-208.894 846,-196 847.07,-195.724 848.156,-195.443 849.252,-195.157"/>
<polygon fill="midnightblue" stroke="midnightblue" points="850.452,-198.461 859.231,-192.529 848.669,-191.692 850.452,-198.461"/>
</g>
<!-- Node25&#45;&gt;Node10 -->
<g id="edge104" class="edge"><title>Node25&#45;&gt;Node10</title>
<path fill="none" stroke="midnightblue" d="M1008,-116.362C999.453,-108.104 987.42,-96.4725 977.417,-86.8029"/>
<polygon fill="midnightblue" stroke="midnightblue" points="979.558,-84.0044 969.935,-79.5707 974.692,-89.0374 979.558,-84.0044"/>
</g>
<!-- Node28&#45;&gt;Node20 -->
<g id="edge114" class="edge"><title>Node28&#45;&gt;Node20</title>
<path fill="none" stroke="midnightblue" d="M635.774,-406.497C604.695,-396.959 558.688,-382.841 524.91,-372.475"/>
<polygon fill="midnightblue" stroke="midnightblue" points="525.877,-369.111 515.291,-369.523 523.824,-375.803 525.877,-369.111"/>
</g>
<!-- Node28&#45;&gt;Node21 -->
<g id="edge122" class="edge"><title>Node28&#45;&gt;Node21</title>
<path fill="none" stroke="midnightblue" d="M658.125,-406.36C649.299,-397.599 637.963,-384.327 633,-370 627.144,-353.095 635.43,-334.085 644.163,-320.305"/>
<polygon fill="midnightblue" stroke="midnightblue" points="647.309,-321.909 650.111,-311.691 641.549,-317.931 647.309,-321.909"/>
</g>
<!-- Node28&#45;&gt;Node24 -->
<g id="edge124" class="edge"><title>Node28&#45;&gt;Node24</title>
<path fill="none" stroke="midnightblue" d="M652.842,-406.344C627.952,-389.748 582.857,-355.11 565,-312 561.258,-302.967 559.914,-298.351 565,-290 574.038,-275.16 589.435,-264.801 605.02,-257.664"/>
<polygon fill="midnightblue" stroke="midnightblue" points="606.813,-260.709 614.693,-253.626 604.117,-254.249 606.813,-260.709"/>
</g>
<!-- Node29 -->
<g id="node87" class="node"><title>Node29</title>
<polygon fill="white" stroke="#bfbfbf" points="864,-348.5 864,-369.5 926,-369.5 926,-348.5 864,-348.5"/>
<text text-anchor="middle" x="895" y="-356.5" font-family="DejaVuSans" font-size="10.00">QLineEdit</text>
</g>
<!-- Node28&#45;&gt;Node29 -->
<g id="edge116" class="edge"><title>Node28&#45;&gt;Node29</title>
<path fill="none" stroke="midnightblue" d="M707.614,-407.673C742.987,-398.851 797.67,-385.083 853.817,-370.283"/>
<polygon fill="midnightblue" stroke="midnightblue" points="854.799,-373.644 863.573,-367.705 853.01,-366.876 854.799,-373.644"/>
</g>
<!-- Node30 -->
<g id="node89" class="node"><title>Node30</title>
<polygon fill="white" stroke="#bfbfbf" points="944,-348.5 944,-369.5 1024,-369.5 1024,-348.5 944,-348.5"/>
<text text-anchor="middle" x="984" y="-356.5" font-family="DejaVuSans" font-size="10.00">QPushButton</text>
</g>
<!-- Node28&#45;&gt;Node30 -->
<g id="edge118" class="edge"><title>Node28&#45;&gt;Node30</title>
<path fill="none" stroke="midnightblue" d="M707.841,-410.843C757.443,-402.65 847.381,-387.379 933.931,-370.153"/>
<polygon fill="midnightblue" stroke="midnightblue" points="934.802,-373.548 943.92,-368.153 933.428,-366.684 934.802,-373.548"/>
</g>
<!-- Node31 -->
<g id="node91" class="node"><title>Node31</title>
<polygon fill="white" stroke="#bfbfbf" points="761.5,-290.5 761.5,-311.5 838.5,-311.5 838.5,-290.5 761.5,-290.5"/>
<text text-anchor="middle" x="800" y="-298.5" font-family="DejaVuSans" font-size="10.00">QComboBox</text>
</g>
<!-- Node28&#45;&gt;Node31 -->
<g id="edge120" class="edge"><title>Node28&#45;&gt;Node31</title>
<path fill="none" stroke="midnightblue" d="M681.317,-406.348C695.899,-392.679 722.098,-368.308 745,-348 756.271,-338.005 769.054,-327.059 779.457,-318.247"/>
<polygon fill="midnightblue" stroke="midnightblue" points="781.833,-320.822 787.216,-311.697 777.317,-315.473 781.833,-320.822"/>
</g>
<!-- Node32 -->
<g id="node95" class="node"><title>Node32</title>
<a xlink:href="_chara_species_8h.html" target="_top" xlink:title="CharaSpecies.h">
<polygon fill="white" stroke="black" points="754,-348.5 754,-369.5 846,-369.5 846,-348.5 754,-348.5"/>
<text text-anchor="middle" x="800" y="-356.5" font-family="DejaVuSans" font-size="10.00">CharaSpecies.h</text>
</a>
</g>
<!-- Node28&#45;&gt;Node32 -->
<g id="edge126" class="edge"><title>Node28&#45;&gt;Node32</title>
<path fill="none" stroke="midnightblue" d="M693.542,-406.497C714.029,-397.356 743.947,-384.008 766.854,-373.788"/>
<polygon fill="midnightblue" stroke="midnightblue" points="768.488,-376.892 776.194,-369.621 765.635,-370.499 768.488,-376.892"/>
</g>
<!-- Node33 -->
<g id="node101" class="node"><title>Node33</title>
<polygon fill="white" stroke="#bfbfbf" points="642,-348.5 642,-369.5 698,-369.5 698,-348.5 642,-348.5"/>
<text text-anchor="middle" x="670" y="-356.5" font-family="DejaVuSans" font-size="10.00">QWidget</text>
</g>
<!-- Node28&#45;&gt;Node33 -->
<g id="edge136" class="edge"><title>Node28&#45;&gt;Node33</title>
<path fill="none" stroke="midnightblue" d="M670,-406.362C670,-398.922 670,-388.743 670,-379.728"/>
<polygon fill="midnightblue" stroke="midnightblue" points="673.5,-379.571 670,-369.571 666.5,-379.571 673.5,-379.571"/>
</g>
<!-- Node32&#45;&gt;Node6 -->
<g id="edge130" class="edge"><title>Node32&#45;&gt;Node6</title>
<path fill="none" stroke="midnightblue" d="M815.929,-348.346C826.954,-339.944 840.729,-327.139 847,-312 850.742,-302.967 850.72,-299.042 847,-290 831.194,-251.582 793.781,-219.759 768.414,-201.556"/>
<polygon fill="midnightblue" stroke="midnightblue" points="770.206,-198.539 759.999,-195.697 766.206,-204.284 770.206,-198.539"/>
</g>
<!-- Node32&#45;&gt;Node11 -->
<g id="edge132" class="edge"><title>Node32&#45;&gt;Node11</title>
<path fill="none" stroke="midnightblue" d="M817.996,-348.403C831.378,-339.853 849.423,-326.837 862,-312 899.665,-267.566 909.037,-252.551 923,-196 925.344,-186.507 927.924,-182.447 923,-174 914.505,-159.428 899.63,-149.011 884.797,-141.75"/>
<polygon fill="midnightblue" stroke="midnightblue" points="886.18,-138.534 875.624,-137.627 883.311,-144.919 886.18,-138.534"/>
</g>
<!-- Node32&#45;&gt;Node21 -->
<g id="edge128" class="edge"><title>Node32&#45;&gt;Node21</title>
<path fill="none" stroke="midnightblue" d="M774.466,-348.497C752.047,-339.275 719.215,-325.769 694.287,-315.515"/>
<polygon fill="midnightblue" stroke="midnightblue" points="695.4,-312.189 684.821,-311.621 692.737,-318.662 695.4,-312.189"/>
</g>
<!-- Node32&#45;&gt;Node31 -->
<g id="edge134" class="edge"><title>Node32&#45;&gt;Node31</title>
<path fill="none" stroke="midnightblue" d="M800,-348.362C800,-340.922 800,-330.743 800,-321.728"/>
<polygon fill="midnightblue" stroke="midnightblue" points="803.5,-321.571 800,-311.571 796.5,-321.571 803.5,-321.571"/>
</g>
</g>
</svg>
