<?xml version="1.0" encoding="UTF-8" standalone="no"?>
<!DOCTYPE svg PUBLIC "-//W3C//DTD SVG 1.1//EN"
 "http://www.w3.org/Graphics/SVG/1.1/DTD/svg11.dtd">
<!-- Generated by graphviz version 2.26.3 (20100126.1600)
 -->
<!-- Title: G Pages: 1 -->
<svg width="797pt" height="146pt"
 viewBox="0.00 0.00 797.00 146.00" xmlns="http://www.w3.org/2000/svg" xmlns:xlink="http://www.w3.org/1999/xlink">
<g id="graph1" class="graph" transform="scale(1 1) rotate(0) translate(4 142)">
<title>G</title>
<polygon fill="white" stroke="white" points="-4,5 -4,-142 794,-142 794,5 -4,5"/>
<!-- Node1 -->
<g id="node1" class="node"><title>Node1</title>
<polygon fill="#bfbfbf" stroke="black" points="283.5,-116.5 283.5,-137.5 416.5,-137.5 416.5,-116.5 283.5,-116.5"/>
<text text-anchor="middle" x="350" y="-124.5" font-family="DejaVuSans" font-size="10.00">src/Widgets/InfoWidget.h</text>
</g>
<!-- Node2 -->
<g id="node3" class="node"><title>Node2</title>
<polygon fill="white" stroke="#bfbfbf" points="0,-58.5 0,-79.5 50,-79.5 50,-58.5 0,-58.5"/>
<text text-anchor="middle" x="25" y="-66.5" font-family="DejaVuSans" font-size="10.00">QLabel</text>
</g>
<!-- Node1&#45;&gt;Node2 -->
<g id="edge2" class="edge"><title>Node1&#45;&gt;Node2</title>
<path fill="none" stroke="midnightblue" d="M283.26,-119.17C226.223,-111.807 141.895,-99.3388 60.0905,-79.996"/>
<polygon fill="midnightblue" stroke="midnightblue" points="60.6697,-76.5357 50.1288,-77.6029 59.0346,-83.342 60.6697,-76.5357"/>
</g>
<!-- Node3 -->
<g id="node5" class="node"><title>Node3</title>
<polygon fill="white" stroke="#bfbfbf" points="68,-58.5 68,-79.5 144,-79.5 144,-58.5 68,-58.5"/>
<text text-anchor="middle" x="106" y="-66.5" font-family="DejaVuSans" font-size="10.00">QGridLayout</text>
</g>
<!-- Node1&#45;&gt;Node3 -->
<g id="edge4" class="edge"><title>Node1&#45;&gt;Node3</title>
<path fill="none" stroke="midnightblue" d="M305.813,-116.497C263.004,-106.321 198.257,-90.93 154.153,-80.4462"/>
<polygon fill="midnightblue" stroke="midnightblue" points="154.781,-76.998 144.242,-78.0904 153.162,-83.8082 154.781,-76.998"/>
</g>
<!-- Node4 -->
<g id="node7" class="node"><title>Node4</title>
<polygon fill="white" stroke="#bfbfbf" points="162,-58.5 162,-79.5 224,-79.5 224,-58.5 162,-58.5"/>
<text text-anchor="middle" x="193" y="-66.5" font-family="DejaVuSans" font-size="10.00">QLineEdit</text>
</g>
<!-- Node1&#45;&gt;Node4 -->
<g id="edge6" class="edge"><title>Node1&#45;&gt;Node4</title>
<path fill="none" stroke="midnightblue" d="M321.568,-116.497C296.195,-107.123 258.843,-93.3242 230.93,-83.0122"/>
<polygon fill="midnightblue" stroke="midnightblue" points="232.078,-79.7054 221.485,-79.5231 229.652,-86.2716 232.078,-79.7054"/>
</g>
<!-- Node5 -->
<g id="node9" class="node"><title>Node5</title>
<polygon fill="white" stroke="#bfbfbf" points="242,-58.5 242,-79.5 322,-79.5 322,-58.5 242,-58.5"/>
<text text-anchor="middle" x="282" y="-66.5" font-family="DejaVuSans" font-size="10.00">QPushButton</text>
</g>
<!-- Node1&#45;&gt;Node5 -->
<g id="edge8" class="edge"><title>Node1&#45;&gt;Node5</title>
<path fill="none" stroke="midnightblue" d="M337.528,-116.362C327.655,-107.941 313.667,-96.0105 302.202,-86.2308"/>
<polygon fill="midnightblue" stroke="midnightblue" points="304.273,-83.3972 294.393,-79.5707 299.73,-88.7231 304.273,-83.3972"/>
</g>
<!-- Node6 -->
<g id="node11" class="node"><title>Node6</title>
<polygon fill="white" stroke="#bfbfbf" points="254.5,-0.5 254.5,-21.5 331.5,-21.5 331.5,-0.5 254.5,-0.5"/>
<text text-anchor="middle" x="293" y="-8.5" font-family="DejaVuSans" font-size="10.00">QComboBox</text>
</g>
<!-- Node1&#45;&gt;Node6 -->
<g id="edge10" class="edge"><title>Node1&#45;&gt;Node6</title>
<path fill="none" stroke="midnightblue" d="M348.44,-116.217C346.103,-102.197 340.874,-77.233 331,-58 325.68,-47.6384 317.83,-37.4261 310.643,-29.1817"/>
<polygon fill="midnightblue" stroke="midnightblue" points="313.116,-26.699 303.796,-21.6605 307.94,-31.4114 313.116,-26.699"/>
</g>
<!-- Node7 -->
<g id="node13" class="node"><title>Node7</title>
<polygon fill="white" stroke="#bfbfbf" points="349,-0.5 349,-21.5 501,-21.5 501,-0.5 349,-0.5"/>
<text text-anchor="middle" x="425" y="-8.5" font-family="DejaVuSans" font-size="10.00">Storage/StorageCharacter.h</text>
</g>
<!-- Node1&#45;&gt;Node7 -->
<g id="edge12" class="edge"><title>Node1&#45;&gt;Node7</title>
<path fill="none" stroke="midnightblue" d="M356.921,-116.295C369.591,-96.6998 396.668,-54.8198 412.592,-30.1913"/>
<polygon fill="midnightblue" stroke="midnightblue" points="415.605,-31.9772 418.095,-21.6792 409.727,-28.1765 415.605,-31.9772"/>
</g>
<!-- Node8 -->
<g id="node15" class="node"><title>Node8</title>
<polygon fill="white" stroke="#bfbfbf" points="525.5,-58.5 525.5,-79.5 674.5,-79.5 674.5,-58.5 525.5,-58.5"/>
<text text-anchor="middle" x="600" y="-66.5" font-family="DejaVuSans" font-size="10.00">Storage/StorageTemplate.h</text>
</g>
<!-- Node1&#45;&gt;Node8 -->
<g id="edge14" class="edge"><title>Node1&#45;&gt;Node8</title>
<path fill="none" stroke="midnightblue" d="M395.273,-116.497C437.265,-106.755 499.859,-92.2328 544.772,-81.813"/>
<polygon fill="midnightblue" stroke="midnightblue" points="545.692,-85.1926 554.642,-79.5231 544.11,-78.3737 545.692,-85.1926"/>
</g>
<!-- Node9 -->
<g id="node17" class="node"><title>Node9</title>
<a xlink:href="_chara_species_8h.html" target="_top" xlink:title="CharaSpecies.h">
<polygon fill="white" stroke="black" points="416,-58.5 416,-79.5 508,-79.5 508,-58.5 416,-58.5"/>
<text text-anchor="middle" x="462" y="-66.5" font-family="DejaVuSans" font-size="10.00">CharaSpecies.h</text>
</a>
</g>
<!-- Node1&#45;&gt;Node9 -->
<g id="edge16" class="edge"><title>Node1&#45;&gt;Node9</title>
<path fill="none" stroke="midnightblue" d="M370.282,-116.497C387.618,-107.519 412.79,-94.4835 432.38,-84.3387"/>
<polygon fill="midnightblue" stroke="midnightblue" points="434.22,-87.3278 441.49,-79.6212 431.001,-81.1118 434.22,-87.3278"/>
</g>
<!-- Node12 -->
<g id="node25" class="node"><title>Node12</title>
<polygon fill="white" stroke="#bfbfbf" points="692,-58.5 692,-79.5 748,-79.5 748,-58.5 692,-58.5"/>
<text text-anchor="middle" x="720" y="-66.5" font-family="DejaVuSans" font-size="10.00">QWidget</text>
</g>
<!-- Node1&#45;&gt;Node12 -->
<g id="edge26" class="edge"><title>Node1&#45;&gt;Node12</title>
<path fill="none" stroke="midnightblue" d="M416.54,-120.555C481.887,-113.561 584.492,-100.807 681.823,-80.0157"/>
<polygon fill="midnightblue" stroke="midnightblue" points="682.8,-83.3853 691.831,-77.845 681.316,-76.5443 682.8,-83.3853"/>
</g>
<!-- Node9&#45;&gt;Node6 -->
<g id="edge24" class="edge"><title>Node9&#45;&gt;Node6</title>
<path fill="none" stroke="midnightblue" d="M431.395,-58.4966C403.963,-49.082 363.524,-35.2036 333.436,-24.8773"/>
<polygon fill="midnightblue" stroke="midnightblue" points="334.257,-21.4588 323.662,-21.5231 331.984,-28.0797 334.257,-21.4588"/>
</g>
<!-- Node9&#45;&gt;Node7 -->
<g id="edge18" class="edge"><title>Node9&#45;&gt;Node7</title>
<path fill="none" stroke="midnightblue" d="M455.214,-58.3619C450.207,-50.5131 443.255,-39.6159 437.282,-30.2527"/>
<polygon fill="midnightblue" stroke="midnightblue" points="440.072,-28.1189 431.743,-21.5707 434.171,-31.8837 440.072,-28.1189"/>
</g>
<!-- Node10 -->
<g id="node20" class="node"><title>Node10</title>
<polygon fill="white" stroke="#bfbfbf" points="518.5,-0.5 518.5,-21.5 631.5,-21.5 631.5,-0.5 518.5,-0.5"/>
<text text-anchor="middle" x="575" y="-8.5" font-family="DejaVuSans" font-size="10.00">Datatypes/cv_Trait.h</text>
</g>
<!-- Node9&#45;&gt;Node10 -->
<g id="edge20" class="edge"><title>Node9&#45;&gt;Node10</title>
<path fill="none" stroke="midnightblue" d="M482.463,-58.4966C500.033,-49.4786 525.582,-36.3649 545.385,-26.2006"/>
<polygon fill="midnightblue" stroke="midnightblue" points="547.009,-29.3014 554.307,-21.6212 543.812,-23.0738 547.009,-29.3014"/>
</g>
<!-- Node11 -->
<g id="node22" class="node"><title>Node11</title>
<polygon fill="white" stroke="#bfbfbf" points="648.5,-0.5 648.5,-21.5 789.5,-21.5 789.5,-0.5 648.5,-0.5"/>
<text text-anchor="middle" x="719" y="-8.5" font-family="DejaVuSans" font-size="10.00">Datatypes/cv_TraitDetail.h</text>
</g>
<!-- Node9&#45;&gt;Node11 -->
<g id="edge22" class="edge"><title>Node9&#45;&gt;Node11</title>
<path fill="none" stroke="midnightblue" d="M508.243,-58.5638C551.462,-48.8102 616.096,-34.2235 662.384,-23.7772"/>
<polygon fill="midnightblue" stroke="midnightblue" points="663.277,-27.1638 672.261,-21.5482 661.736,-20.3355 663.277,-27.1638"/>
</g>
</g>
</svg>
