<?xml version="1.0" encoding="UTF-8" standalone="no"?>
<!DOCTYPE svg PUBLIC "-//W3C//DTD SVG 1.1//EN"
 "http://www.w3.org/Graphics/SVG/1.1/DTD/svg11.dtd">
<!-- Generated by graphviz version 2.26.3 (20100126.1600)
 -->
<!-- Title: G Pages: 1 -->
<svg width="3356pt" height="262pt"
 viewBox="0.00 0.00 3356.00 262.00" xmlns="http://www.w3.org/2000/svg" xmlns:xlink="http://www.w3.org/1999/xlink">
<g id="graph1" class="graph" transform="scale(1 1) rotate(0) translate(4 258)">
<title>G</title>
<polygon fill="white" stroke="white" points="-4,5 -4,-258 3353,-258 3353,5 -4,5"/>
<!-- Node1 -->
<g id="node1" class="node"><title>Node1</title>
<polygon fill="#bfbfbf" stroke="black" points="2124.5,-232.5 2124.5,-253.5 2235.5,-253.5 2235.5,-232.5 2124.5,-232.5"/>
<text text-anchor="middle" x="2180" y="-240.5" font-family="DejaVuSans" font-size="10.00">src/MainWindow.cpp</text>
</g>
<!-- Node2 -->
<g id="node3" class="node"><title>Node2</title>
<polygon fill="white" stroke="#bfbfbf" points="-0.5,-174.5 -0.5,-195.5 76.5,-195.5 76.5,-174.5 -0.5,-174.5"/>
<text text-anchor="middle" x="38" y="-182.5" font-family="DejaVuSans" font-size="10.00">QCloseEvent</text>
</g>
<!-- Node1&#45;&gt;Node2 -->
<g id="edge2" class="edge"><title>Node1&#45;&gt;Node2</title>
<path fill="none" stroke="midnightblue" d="M2124.47,-242.443C1817.65,-239.275 335.022,-222.757 86.5489,-195.872"/>
<polygon fill="midnightblue" stroke="midnightblue" points="86.9526,-192.395 76.6131,-194.707 86.1374,-199.347 86.9526,-192.395"/>
</g>
<!-- Node3 -->
<g id="node5" class="node"><title>Node3</title>
<polygon fill="white" stroke="#bfbfbf" points="94,-174.5 94,-195.5 132,-195.5 132,-174.5 94,-174.5"/>
<text text-anchor="middle" x="113" y="-182.5" font-family="DejaVuSans" font-size="10.00">QDir</text>
</g>
<!-- Node1&#45;&gt;Node3 -->
<g id="edge4" class="edge"><title>Node1&#45;&gt;Node3</title>
<path fill="none" stroke="midnightblue" d="M2124.3,-242.704C1818.01,-240.944 345.383,-230.724 146,-196 144.728,-195.779 143.439,-195.517 142.144,-195.225"/>
<polygon fill="midnightblue" stroke="midnightblue" points="142.867,-191.793 132.295,-192.499 141,-198.54 142.867,-191.793"/>
</g>
<!-- Node4 -->
<g id="node7" class="node"><title>Node4</title>
<polygon fill="white" stroke="#bfbfbf" points="178.5,-0.5 178.5,-21.5 217.5,-21.5 217.5,-0.5 178.5,-0.5"/>
<text text-anchor="middle" x="198" y="-8.5" font-family="DejaVuSans" font-size="10.00">QFile</text>
</g>
<!-- Node1&#45;&gt;Node4 -->
<g id="edge6" class="edge"><title>Node1&#45;&gt;Node4</title>
<path fill="none" stroke="midnightblue" d="M2124.21,-242.336C1949.17,-239.943 1395.27,-230.01 938,-196 705.215,-178.686 645.38,-181.281 416,-138 318.323,-119.57 261.627,-157.991 200,-80 189.358,-66.5317 189.998,-46.5342 192.627,-31.53"/>
<polygon fill="midnightblue" stroke="midnightblue" points="196.071,-32.1654 194.761,-21.6519 189.229,-30.6878 196.071,-32.1654"/>
</g>
<!-- Node5 -->
<g id="node9" class="node"><title>Node5</title>
<polygon fill="white" stroke="#bfbfbf" points="2461.5,-174.5 2461.5,-195.5 2530.5,-195.5 2530.5,-174.5 2461.5,-174.5"/>
<text text-anchor="middle" x="2496" y="-182.5" font-family="DejaVuSans" font-size="10.00">QFileDialog</text>
</g>
<!-- Node1&#45;&gt;Node5 -->
<g id="edge8" class="edge"><title>Node1&#45;&gt;Node5</title>
<path fill="none" stroke="midnightblue" d="M2235.59,-234.111C2289.9,-225.225 2374.84,-210.787 2448,-196 2449.09,-195.78 2450.19,-195.554 2451.3,-195.323"/>
<polygon fill="midnightblue" stroke="midnightblue" points="2452.4,-198.668 2461.44,-193.145 2450.93,-191.824 2452.4,-198.668"/>
</g>
<!-- Node6 -->
<g id="node11" class="node"><title>Node6</title>
<polygon fill="white" stroke="#bfbfbf" points="2651.5,-116.5 2651.5,-137.5 2736.5,-137.5 2736.5,-116.5 2651.5,-116.5"/>
<text text-anchor="middle" x="2694" y="-124.5" font-family="DejaVuSans" font-size="10.00">QMessageBox</text>
</g>
<!-- Node1&#45;&gt;Node6 -->
<g id="edge10" class="edge"><title>Node1&#45;&gt;Node6</title>
<path fill="none" stroke="midnightblue" d="M2235.55,-237.095C2284.08,-230.723 2355.84,-218.343 2415,-196 2433.26,-189.105 2434.73,-180.847 2453,-174 2531.44,-144.61 2555.79,-154.073 2638,-138 2639.07,-137.791 2640.15,-137.579 2641.24,-137.366"/>
<polygon fill="midnightblue" stroke="midnightblue" points="2642.06,-140.773 2651.2,-135.416 2640.71,-133.904 2642.06,-140.773"/>
</g>
<!-- Node7 -->
<g id="node13" class="node"><title>Node7</title>
<polygon fill="white" stroke="#bfbfbf" points="2548,-174.5 2548,-195.5 2624,-195.5 2624,-174.5 2548,-174.5"/>
<text text-anchor="middle" x="2586" y="-182.5" font-family="DejaVuSans" font-size="10.00">QPrintDialog</text>
</g>
<!-- Node1&#45;&gt;Node7 -->
<g id="edge12" class="edge"><title>Node1&#45;&gt;Node7</title>
<path fill="none" stroke="midnightblue" d="M2235.62,-237.458C2304.33,-230.225 2424.99,-216.265 2537.67,-196.107"/>
<polygon fill="midnightblue" stroke="midnightblue" points="2538.63,-199.49 2547.85,-194.265 2537.38,-192.602 2538.63,-199.49"/>
</g>
<!-- Node8 -->
<g id="node15" class="node"><title>Node8</title>
<polygon fill="white" stroke="#bfbfbf" points="2642,-174.5 2642,-195.5 2698,-195.5 2698,-174.5 2642,-174.5"/>
<text text-anchor="middle" x="2670" y="-182.5" font-family="DejaVuSans" font-size="10.00">QPrinter</text>
</g>
<!-- Node1&#45;&gt;Node8 -->
<g id="edge14" class="edge"><title>Node1&#45;&gt;Node8</title>
<path fill="none" stroke="midnightblue" d="M2235.58,-240.558C2319.58,-236.139 2483.88,-224.659 2631.69,-195.96"/>
<polygon fill="midnightblue" stroke="midnightblue" points="2632.72,-199.325 2641.85,-193.954 2631.36,-192.457 2632.72,-199.325"/>
</g>
<!-- Node9 -->
<g id="node17" class="node"><title>Node9</title>
<polygon fill="white" stroke="#bfbfbf" points="2715.5,-174.5 2715.5,-195.5 2766.5,-195.5 2766.5,-174.5 2715.5,-174.5"/>
<text text-anchor="middle" x="2741" y="-182.5" font-family="DejaVuSans" font-size="10.00">QTimer</text>
</g>
<!-- Node1&#45;&gt;Node9 -->
<g id="edge16" class="edge"><title>Node1&#45;&gt;Node9</title>
<path fill="none" stroke="midnightblue" d="M2235.59,-242.118C2330.55,-239.726 2529.98,-230.849 2705.26,-196.019"/>
<polygon fill="midnightblue" stroke="midnightblue" points="2706.06,-199.427 2715.17,-194.016 2704.68,-192.566 2706.06,-199.427"/>
</g>
<!-- Node10 -->
<g id="node19" class="node"><title>Node10</title>
<polygon fill="white" stroke="#bfbfbf" points="2784,-174.5 2784,-195.5 2840,-195.5 2840,-174.5 2784,-174.5"/>
<text text-anchor="middle" x="2812" y="-182.5" font-family="DejaVuSans" font-size="10.00">QDebug</text>
</g>
<!-- Node1&#45;&gt;Node10 -->
<g id="edge18" class="edge"><title>Node1&#45;&gt;Node10</title>
<path fill="none" stroke="midnightblue" d="M2235.94,-240.087C2359.83,-233.397 2655.13,-216.085 2773.94,-195.808"/>
<polygon fill="midnightblue" stroke="midnightblue" points="2774.64,-199.237 2783.87,-194.027 2773.41,-192.347 2774.64,-199.237"/>
</g>
<!-- Node11 -->
<g id="node21" class="node"><title>Node11</title>
<a xlink:href="_creation_8h.html" target="_top" xlink:title="Calc/Creation.h">
<polygon fill="white" stroke="black" points="818.5,-116.5 818.5,-137.5 907.5,-137.5 907.5,-116.5 818.5,-116.5"/>
<text text-anchor="middle" x="863" y="-124.5" font-family="DejaVuSans" font-size="10.00">Calc/Creation.h</text>
</a>
</g>
<!-- Node1&#45;&gt;Node11 -->
<g id="edge20" class="edge"><title>Node1&#45;&gt;Node11</title>
<path fill="none" stroke="midnightblue" d="M2124.2,-241.06C1994.67,-236.256 1663.61,-222.256 1388,-196 1215.82,-179.597 1013.15,-150.035 917.811,-135.516"/>
<polygon fill="midnightblue" stroke="midnightblue" points="918.237,-132.041 907.823,-133.99 917.18,-138.96 918.237,-132.041"/>
</g>
<!-- Node16 -->
<g id="node31" class="node"><title>Node16</title>
<a xlink:href="_config_8h.html" target="_top" xlink:title="Config/Config.h">
<polygon fill="white" stroke="black" points="2135.5,-174.5 2135.5,-195.5 2224.5,-195.5 2224.5,-174.5 2135.5,-174.5"/>
<text text-anchor="middle" x="2180" y="-182.5" font-family="DejaVuSans" font-size="10.00">Config/Config.h</text>
</a>
</g>
<!-- Node1&#45;&gt;Node16 -->
<g id="edge30" class="edge"><title>Node1&#45;&gt;Node16</title>
<path fill="none" stroke="midnightblue" d="M2180,-232.362C2180,-224.922 2180,-214.743 2180,-205.728"/>
<polygon fill="midnightblue" stroke="midnightblue" points="2183.5,-205.571 2180,-195.571 2176.5,-205.571 2183.5,-205.571"/>
</g>
<!-- Node20 -->
<g id="node39" class="node"><title>Node20</title>
<a xlink:href="cv___trait_8h.html" target="_top" xlink:title="Datatypes/cv_Trait.h">
<polygon fill="white" stroke="black" points="2005.5,-174.5 2005.5,-195.5 2118.5,-195.5 2118.5,-174.5 2005.5,-174.5"/>
<text text-anchor="middle" x="2062" y="-182.5" font-family="DejaVuSans" font-size="10.00">Datatypes/cv_Trait.h</text>
</a>
</g>
<!-- Node1&#45;&gt;Node20 -->
<g id="edge38" class="edge"><title>Node1&#45;&gt;Node20</title>
<path fill="none" stroke="midnightblue" d="M2158.63,-232.497C2140.2,-223.438 2113.36,-210.246 2092.64,-200.063"/>
<polygon fill="midnightblue" stroke="midnightblue" points="2094.13,-196.891 2083.61,-195.621 2091.04,-203.174 2094.13,-196.891"/>
</g>
<!-- Node27 -->
<g id="node61" class="node"><title>Node27</title>
<a xlink:href="_exception_8h.html" target="_top" xlink:title="Exceptions/Exception.h">
<polygon fill="white" stroke="black" points="1714.5,-116.5 1714.5,-137.5 1841.5,-137.5 1841.5,-116.5 1714.5,-116.5"/>
<text text-anchor="middle" x="1778" y="-124.5" font-family="DejaVuSans" font-size="10.00">Exceptions/Exception.h</text>
</a>
</g>
<!-- Node1&#45;&gt;Node27 -->
<g id="edge68" class="edge"><title>Node1&#45;&gt;Node27</title>
<path fill="none" stroke="midnightblue" d="M2124.42,-233.142C2080.47,-224.813 2017.77,-211.74 1964,-196 1909.99,-180.191 1849.15,-156.453 1812.2,-141.348"/>
<polygon fill="midnightblue" stroke="midnightblue" points="1813.47,-138.085 1802.89,-137.517 1810.81,-144.559 1813.47,-138.085"/>
</g>
<!-- Node31 -->
<g id="node71" class="node"><title>Node31</title>
<a xlink:href="_read_xml_template_8h.html" target="_top" xlink:title="IO/ReadXmlTemplate.h">
<polygon fill="white" stroke="black" points="424.5,-116.5 424.5,-137.5 547.5,-137.5 547.5,-116.5 424.5,-116.5"/>
<text text-anchor="middle" x="486" y="-124.5" font-family="DejaVuSans" font-size="10.00">IO/ReadXmlTemplate.h</text>
</a>
</g>
<!-- Node1&#45;&gt;Node31 -->
<g id="edge80" class="edge"><title>Node1&#45;&gt;Node31</title>
<path fill="none" stroke="midnightblue" d="M2124.46,-241.304C1974.53,-236.52 1549.1,-221.575 1196,-196 962.086,-179.058 685.725,-149.424 557.714,-135.146"/>
<polygon fill="midnightblue" stroke="midnightblue" points="557.971,-131.653 547.644,-134.02 557.193,-138.61 557.971,-131.653"/>
</g>
<!-- Node35 -->
<g id="node85" class="node"><title>Node35</title>
<a xlink:href="_settings_8h.html" target="_top" xlink:title="IO/Settings.h">
<polygon fill="white" stroke="black" points="2858,-174.5 2858,-195.5 2936,-195.5 2936,-174.5 2858,-174.5"/>
<text text-anchor="middle" x="2897" y="-182.5" font-family="DejaVuSans" font-size="10.00">IO/Settings.h</text>
</a>
</g>
<!-- Node1&#45;&gt;Node35 -->
<g id="edge100" class="edge"><title>Node1&#45;&gt;Node35</title>
<path fill="none" stroke="midnightblue" d="M2235.82,-242C2349.41,-239.332 2615.6,-229.859 2847.82,-195.979"/>
<polygon fill="midnightblue" stroke="midnightblue" points="2848.42,-199.428 2857.8,-194.504 2847.4,-192.503 2848.42,-199.428"/>
</g>
<!-- Node37 -->
<g id="node89" class="node"><title>Node37</title>
<a xlink:href="_storage_character_8h.html" target="_top" xlink:title="Storage/StorageCharacter.h">
<polygon fill="white" stroke="black" points="1225,-116.5 1225,-137.5 1377,-137.5 1377,-116.5 1225,-116.5"/>
<text text-anchor="middle" x="1301" y="-124.5" font-family="DejaVuSans" font-size="10.00">Storage/StorageCharacter.h</text>
</a>
</g>
<!-- Node1&#45;&gt;Node37 -->
<g id="edge104" class="edge"><title>Node1&#45;&gt;Node37</title>
<path fill="none" stroke="midnightblue" d="M2124.44,-242.015C1977.13,-238.99 1579.2,-228.011 1452,-196 1406.1,-184.448 1356.95,-159.321 1327.61,-142.791"/>
<polygon fill="midnightblue" stroke="midnightblue" points="1329.22,-139.684 1318.81,-137.754 1325.75,-145.759 1329.22,-139.684"/>
</g>
<!-- Node41 -->
<g id="node100" class="node"><title>Node41</title>
<a xlink:href="_storage_template_8h.html" target="_top" xlink:title="StorageTemplate.h">
<polygon fill="white" stroke="black" points="1531.5,-58.5 1531.5,-79.5 1638.5,-79.5 1638.5,-58.5 1531.5,-58.5"/>
<text text-anchor="middle" x="1585" y="-66.5" font-family="DejaVuSans" font-size="10.00">StorageTemplate.h</text>
</a>
</g>
<!-- Node1&#45;&gt;Node41 -->
<g id="edge140" class="edge"><title>Node1&#45;&gt;Node41</title>
<path fill="none" stroke="midnightblue" d="M2124.26,-237.521C2033.48,-227.11 1849.41,-199.743 1706,-138 1670.94,-122.907 1633.12,-100.196 1609.27,-84.9982"/>
<polygon fill="midnightblue" stroke="midnightblue" points="1611.15,-82.0456 1600.84,-79.5729 1607.35,-87.9305 1611.15,-82.0456"/>
</g>
<!-- Node45 -->
<g id="node116" class="node"><title>Node45</title>
<a xlink:href="_trait_line_8h.html" target="_top" xlink:title="Widgets/TraitLine.h">
<polygon fill="white" stroke="red" points="1941.5,-58.5 1941.5,-79.5 2046.5,-79.5 2046.5,-58.5 1941.5,-58.5"/>
<text text-anchor="middle" x="1994" y="-66.5" font-family="DejaVuSans" font-size="10.00">Widgets/TraitLine.h</text>
</a>
</g>
<!-- Node1&#45;&gt;Node45 -->
<g id="edge142" class="edge"><title>Node1&#45;&gt;Node45</title>
<path fill="none" stroke="midnightblue" d="M2124.41,-236.119C2076.57,-228.934 2012.82,-215.902 1997,-196 1972.77,-165.514 1980.54,-116.669 1987.69,-89.2903"/>
<polygon fill="midnightblue" stroke="midnightblue" points="1991.07,-90.1907 1990.43,-79.6154 1984.34,-88.2836 1991.07,-90.1907"/>
</g>
<!-- Node46 -->
<g id="node119" class="node"><title>Node46</title>
<a xlink:href="_message_box_8h.html" target="_top" xlink:title="Widgets/Dialogs/MessageBox.h">
<polygon fill="white" stroke="red" points="2241.5,-174.5 2241.5,-195.5 2406.5,-195.5 2406.5,-174.5 2241.5,-174.5"/>
<text text-anchor="middle" x="2324" y="-182.5" font-family="DejaVuSans" font-size="10.00">Widgets/Dialogs/MessageBox.h</text>
</a>
</g>
<!-- Node1&#45;&gt;Node46 -->
<g id="edge146" class="edge"><title>Node1&#45;&gt;Node46</title>
<path fill="none" stroke="midnightblue" d="M2206.08,-232.497C2229.07,-223.234 2262.8,-209.65 2288.3,-199.379"/>
<polygon fill="midnightblue" stroke="midnightblue" points="2289.66,-202.604 2297.63,-195.621 2287.05,-196.111 2289.66,-202.604"/>
</g>
<!-- Node47 -->
<g id="node123" class="node"><title>Node47</title>
<a xlink:href="_settings_dialog_8h.html" target="_top" xlink:title="Widgets/Dialogs/SettingsDialog.h">
<polygon fill="white" stroke="red" points="2954,-174.5 2954,-195.5 3128,-195.5 3128,-174.5 2954,-174.5"/>
<text text-anchor="middle" x="3041" y="-182.5" font-family="DejaVuSans" font-size="10.00">Widgets/Dialogs/SettingsDialog.h</text>
</a>
</g>
<!-- Node1&#45;&gt;Node47 -->
<g id="edge152" class="edge"><title>Node1&#45;&gt;Node47</title>
<path fill="none" stroke="midnightblue" d="M2235.75,-240.584C2360.56,-234.957 2672.17,-219.694 2943.85,-196.063"/>
<polygon fill="midnightblue" stroke="midnightblue" points="2944.24,-199.542 2953.9,-195.183 2943.63,-192.568 2944.24,-199.542"/>
</g>
<!-- Node48 -->
<g id="node125" class="node"><title>Node48</title>
<polygon fill="white" stroke="#bfbfbf" points="3146,-174.5 3146,-195.5 3234,-195.5 3234,-174.5 3146,-174.5"/>
<text text-anchor="middle" x="3190" y="-182.5" font-family="DejaVuSans" font-size="10.00">CMakeConfig.h</text>
</g>
<!-- Node1&#45;&gt;Node48 -->
<g id="edge154" class="edge"><title>Node1&#45;&gt;Node48</title>
<path fill="none" stroke="midnightblue" d="M2235.81,-241.402C2409.78,-236.242 2941.7,-219.084 3135.75,-195.949"/>
<polygon fill="midnightblue" stroke="midnightblue" points="3136.35,-199.402 3145.84,-194.701 3135.49,-192.455 3136.35,-199.402"/>
</g>
<!-- Node49 -->
<g id="node127" class="node"><title>Node49</title>
<a xlink:href="_main_window_8h.html" target="_top" xlink:title="MainWindow.h">
<polygon fill="white" stroke="red" points="1460.5,-174.5 1460.5,-195.5 1543.5,-195.5 1543.5,-174.5 1460.5,-174.5"/>
<text text-anchor="middle" x="1502" y="-182.5" font-family="DejaVuSans" font-size="10.00">MainWindow.h</text>
</a>
</g>
<!-- Node1&#45;&gt;Node49 -->
<g id="edge156" class="edge"><title>Node1&#45;&gt;Node49</title>
<path fill="none" stroke="midnightblue" d="M2124.14,-238.536C2023.12,-230.414 1803.29,-212.533 1618,-196 1596.98,-194.125 1573.83,-191.951 1553.78,-190.034"/>
<polygon fill="midnightblue" stroke="midnightblue" points="1553.89,-186.529 1543.6,-189.058 1553.22,-193.497 1553.89,-186.529"/>
</g>
<!-- Node50 -->
<g id="node132" class="node"><title>Node50</title>
<polygon fill="white" stroke="#bfbfbf" points="3252,-174.5 3252,-195.5 3348,-195.5 3348,-174.5 3252,-174.5"/>
<text text-anchor="middle" x="3300" y="-182.5" font-family="DejaVuSans" font-size="10.00">ui_MainWindow.h</text>
</g>
<!-- Node1&#45;&gt;Node50 -->
<g id="edge164" class="edge"><title>Node1&#45;&gt;Node50</title>
<path fill="none" stroke="midnightblue" d="M2235.56,-241.619C2422.08,-236.819 3025.71,-219.898 3241.88,-195.947"/>
<polygon fill="midnightblue" stroke="midnightblue" points="3242.34,-199.417 3251.88,-194.801 3241.54,-192.462 3242.34,-199.417"/>
</g>
<!-- Node12 -->
<g id="node23" class="node"><title>Node12</title>
<polygon fill="white" stroke="#bfbfbf" points="635.5,-0.5 635.5,-21.5 748.5,-21.5 748.5,-0.5 635.5,-0.5"/>
<text text-anchor="middle" x="692" y="-8.5" font-family="DejaVuSans" font-size="10.00">Datatypes/cv_Trait.h</text>
</g>
<!-- Node11&#45;&gt;Node12 -->
<g id="edge22" class="edge"><title>Node11&#45;&gt;Node12</title>
<path fill="none" stroke="midnightblue" d="M818.318,-124.981C754.923,-121.073 643.79,-110.021 619,-80 602.213,-59.6714 630.71,-39.29 656.861,-26.0073"/>
<polygon fill="midnightblue" stroke="midnightblue" points="658.458,-29.1229 665.935,-21.6168 655.409,-22.8217 658.458,-29.1229"/>
</g>
<!-- Node13 -->
<g id="node25" class="node"><title>Node13</title>
<polygon fill="white" stroke="#bfbfbf" points="836,-58.5 836,-79.5 1000,-79.5 1000,-58.5 836,-58.5"/>
<text text-anchor="middle" x="918" y="-66.5" font-family="DejaVuSans" font-size="10.00">Datatypes/cv_CreationPoints.h</text>
</g>
<!-- Node11&#45;&gt;Node13 -->
<g id="edge24" class="edge"><title>Node11&#45;&gt;Node13</title>
<path fill="none" stroke="midnightblue" d="M873.088,-116.362C880.841,-108.186 891.73,-96.7025 900.845,-87.0907"/>
<polygon fill="midnightblue" stroke="midnightblue" points="903.635,-89.2352 907.976,-79.5707 898.555,-84.4186 903.635,-89.2352"/>
</g>
<!-- Node14 -->
<g id="node27" class="node"><title>Node14</title>
<polygon fill="white" stroke="#bfbfbf" points="628,-58.5 628,-79.5 780,-79.5 780,-58.5 628,-58.5"/>
<text text-anchor="middle" x="704" y="-66.5" font-family="DejaVuSans" font-size="10.00">Storage/StorageCharacter.h</text>
</g>
<!-- Node11&#45;&gt;Node14 -->
<g id="edge26" class="edge"><title>Node11&#45;&gt;Node14</title>
<path fill="none" stroke="midnightblue" d="M834.206,-116.497C808.509,-107.123 770.682,-93.3242 742.413,-83.0122"/>
<polygon fill="midnightblue" stroke="midnightblue" points="743.442,-79.662 732.848,-79.5231 741.043,-86.2381 743.442,-79.662"/>
</g>
<!-- Node15 -->
<g id="node29" class="node"><title>Node15</title>
<polygon fill="white" stroke="#bfbfbf" points="947.5,-0.5 947.5,-21.5 1002.5,-21.5 1002.5,-0.5 947.5,-0.5"/>
<text text-anchor="middle" x="975" y="-8.5" font-family="DejaVuSans" font-size="10.00">QObject</text>
</g>
<!-- Node11&#45;&gt;Node15 -->
<g id="edge28" class="edge"><title>Node11&#45;&gt;Node15</title>
<path fill="none" stroke="midnightblue" d="M850.275,-116.379C834.987,-102.32 813.038,-77.083 827,-58 840.152,-40.0247 897.983,-25.6733 937.338,-17.7563"/>
<polygon fill="midnightblue" stroke="midnightblue" points="938.258,-21.1429 947.401,-15.79 936.915,-14.2728 938.258,-21.1429"/>
</g>
<!-- Node17 -->
<g id="node33" class="node"><title>Node17</title>
<polygon fill="white" stroke="#bfbfbf" points="2304.5,-0.5 2304.5,-21.5 2357.5,-21.5 2357.5,-0.5 2304.5,-0.5"/>
<text text-anchor="middle" x="2331" y="-8.5" font-family="DejaVuSans" font-size="10.00">QString</text>
</g>
<!-- Node16&#45;&gt;Node17 -->
<g id="edge32" class="edge"><title>Node16&#45;&gt;Node17</title>
<path fill="none" stroke="midnightblue" d="M2224.51,-175.655C2227.38,-175.085 2230.23,-174.529 2233,-174 2278.65,-165.277 2409.1,-173.577 2439,-138 2473,-97.54 2403.55,-50.1843 2360.93,-26.3553"/>
<polygon fill="midnightblue" stroke="midnightblue" points="2362.49,-23.2182 2352.03,-21.502 2359.13,-29.3634 2362.49,-23.2182"/>
</g>
<!-- Node18 -->
<g id="node35" class="node"><title>Node18</title>
<polygon fill="white" stroke="#bfbfbf" points="2485.5,-116.5 2485.5,-137.5 2534.5,-137.5 2534.5,-116.5 2485.5,-116.5"/>
<text text-anchor="middle" x="2510" y="-124.5" font-family="DejaVuSans" font-size="10.00">QColor</text>
</g>
<!-- Node16&#45;&gt;Node18 -->
<g id="edge34" class="edge"><title>Node16&#45;&gt;Node18</title>
<path fill="none" stroke="midnightblue" d="M2224.79,-175.524C2227.56,-174.993 2230.32,-174.48 2233,-174 2338.74,-155.078 2367.07,-160.985 2472,-138 2473.07,-137.765 2474.16,-137.516 2475.26,-137.256"/>
<polygon fill="midnightblue" stroke="midnightblue" points="2476.38,-140.583 2485.18,-134.694 2474.63,-133.805 2476.38,-140.583"/>
</g>
<!-- Node19 -->
<g id="node37" class="node"><title>Node19</title>
<polygon fill="white" stroke="#bfbfbf" points="2551.5,-116.5 2551.5,-137.5 2596.5,-137.5 2596.5,-116.5 2551.5,-116.5"/>
<text text-anchor="middle" x="2574" y="-124.5" font-family="DejaVuSans" font-size="10.00">QFont</text>
</g>
<!-- Node16&#45;&gt;Node19 -->
<g id="edge36" class="edge"><title>Node16&#45;&gt;Node19</title>
<path fill="none" stroke="midnightblue" d="M2224.77,-175.416C2227.55,-174.912 2230.31,-174.435 2233,-174 2366.72,-152.403 2406.06,-168.592 2541.56,-137.939"/>
<polygon fill="midnightblue" stroke="midnightblue" points="2542.53,-141.308 2551.49,-135.65 2540.96,-134.487 2542.53,-141.308"/>
</g>
<!-- Node20&#45;&gt;Node17 -->
<g id="edge42" class="edge"><title>Node20&#45;&gt;Node17</title>
<path fill="none" stroke="midnightblue" d="M2111.9,-174.467C2162.44,-163.437 2234.62,-146.554 2245,-138 2275.37,-112.963 2260.14,-90.0437 2283,-58 2290.75,-47.1319 2301.17,-36.5859 2310.32,-28.247"/>
<polygon fill="midnightblue" stroke="midnightblue" points="2312.75,-30.773 2317.93,-21.5343 2308.12,-25.5223 2312.75,-30.773"/>
</g>
<!-- Node21 -->
<g id="node41" class="node"><title>Node21</title>
<polygon fill="white" stroke="#bfbfbf" points="2081.5,-116.5 2081.5,-137.5 2130.5,-137.5 2130.5,-116.5 2081.5,-116.5"/>
<text text-anchor="middle" x="2106" y="-124.5" font-family="DejaVuSans" font-size="10.00">QFlags</text>
</g>
<!-- Node20&#45;&gt;Node21 -->
<g id="edge40" class="edge"><title>Node20&#45;&gt;Node21</title>
<path fill="none" stroke="midnightblue" d="M2070.07,-174.362C2076.15,-166.35 2084.64,-155.161 2091.84,-145.67"/>
<polygon fill="midnightblue" stroke="midnightblue" points="2094.73,-147.653 2097.98,-137.571 2089.15,-143.422 2094.73,-147.653"/>
</g>
<!-- Node22 -->
<g id="node44" class="node"><title>Node22</title>
<polygon fill="white" stroke="#bfbfbf" points="2019.5,-0.5 2019.5,-21.5 2060.5,-21.5 2060.5,-0.5 2019.5,-0.5"/>
<text text-anchor="middle" x="2040" y="-8.5" font-family="DejaVuSans" font-size="10.00">QList</text>
</g>
<!-- Node20&#45;&gt;Node22 -->
<g id="edge44" class="edge"><title>Node20&#45;&gt;Node22</title>
<path fill="none" stroke="midnightblue" d="M2055.32,-174.284C2049.98,-165.06 2042.93,-151.192 2040,-138 2037.88,-128.456 2038.08,-125.588 2040,-116 2043.4,-99.0033 2051.6,-96.9967 2055,-80 2056.92,-70.4121 2056.5,-67.6614 2055,-58 2053.59,-48.9549 2050.74,-39.2705 2047.91,-31.057"/>
<polygon fill="midnightblue" stroke="midnightblue" points="2051.16,-29.7736 2044.42,-21.5988 2044.59,-32.1923 2051.16,-29.7736"/>
</g>
<!-- Node23 -->
<g id="node46" class="node"><title>Node23</title>
<polygon fill="white" stroke="#bfbfbf" points="2077.5,-0.5 2077.5,-21.5 2146.5,-21.5 2146.5,-0.5 2077.5,-0.5"/>
<text text-anchor="middle" x="2112" y="-8.5" font-family="DejaVuSans" font-size="10.00">QStringList</text>
</g>
<!-- Node20&#45;&gt;Node23 -->
<g id="edge46" class="edge"><title>Node20&#45;&gt;Node23</title>
<path fill="none" stroke="midnightblue" d="M2063.06,-174.106C2064.56,-160.391 2067.7,-136.18 2073,-116 2080.99,-85.5905 2094.44,-51.7095 2103.27,-30.8721"/>
<polygon fill="midnightblue" stroke="midnightblue" points="2106.56,-32.0763 2107.3,-21.5072 2100.13,-29.3088 2106.56,-32.0763"/>
</g>
<!-- Node24 -->
<g id="node48" class="node"><title>Node24</title>
<a xlink:href="cv___species_8h.html" target="_top" xlink:title="cv_Species.h">
<polygon fill="white" stroke="black" points="2291.5,-58.5 2291.5,-79.5 2370.5,-79.5 2370.5,-58.5 2291.5,-58.5"/>
<text text-anchor="middle" x="2331" y="-66.5" font-family="DejaVuSans" font-size="10.00">cv_Species.h</text>
</a>
</g>
<!-- Node20&#45;&gt;Node24 -->
<g id="edge48" class="edge"><title>Node20&#45;&gt;Node24</title>
<path fill="none" stroke="midnightblue" d="M2118.6,-174.769C2177.98,-163.706 2264.57,-146.515 2278,-138 2297.12,-125.877 2312.02,-104.296 2321.09,-88.4877"/>
<polygon fill="midnightblue" stroke="midnightblue" points="2324.26,-89.984 2325.96,-79.5274 2318.11,-86.6377 2324.26,-89.984"/>
</g>
<!-- Node25 -->
<g id="node51" class="node"><title>Node25</title>
<a xlink:href="cv___trait_detail_8h.html" target="_top" xlink:title="cv_TraitDetail.h">
<polygon fill="white" stroke="black" points="2147.5,-116.5 2147.5,-137.5 2236.5,-137.5 2236.5,-116.5 2147.5,-116.5"/>
<text text-anchor="middle" x="2192" y="-124.5" font-family="DejaVuSans" font-size="10.00">cv_TraitDetail.h</text>
</a>
</g>
<!-- Node20&#45;&gt;Node25 -->
<g id="edge52" class="edge"><title>Node20&#45;&gt;Node25</title>
<path fill="none" stroke="midnightblue" d="M2085.54,-174.497C2106.03,-165.356 2135.95,-152.008 2158.85,-141.788"/>
<polygon fill="midnightblue" stroke="midnightblue" points="2160.49,-144.892 2168.19,-137.621 2157.64,-138.499 2160.49,-144.892"/>
</g>
<!-- Node26 -->
<g id="node57" class="node"><title>Node26</title>
<a xlink:href="cv___abstract_trait_8h.html" target="_top" xlink:title="cv_AbstractTrait.h">
<polygon fill="white" stroke="black" points="2329.5,-116.5 2329.5,-137.5 2430.5,-137.5 2430.5,-116.5 2329.5,-116.5"/>
<text text-anchor="middle" x="2380" y="-124.5" font-family="DejaVuSans" font-size="10.00">cv_AbstractTrait.h</text>
</a>
</g>
<!-- Node20&#45;&gt;Node26 -->
<g id="edge62" class="edge"><title>Node20&#45;&gt;Node26</title>
<path fill="none" stroke="midnightblue" d="M2118.85,-174.631C2175.31,-164.333 2261.56,-148.601 2319.32,-138.067"/>
<polygon fill="midnightblue" stroke="midnightblue" points="2320.2,-141.465 2329.41,-136.228 2318.94,-134.579 2320.2,-141.465"/>
</g>
<!-- Node24&#45;&gt;Node17 -->
<g id="edge50" class="edge"><title>Node24&#45;&gt;Node17</title>
<path fill="none" stroke="midnightblue" d="M2331,-58.3619C2331,-50.9219 2331,-40.7427 2331,-31.7276"/>
<polygon fill="midnightblue" stroke="midnightblue" points="2334.5,-31.5706 2331,-21.5707 2327.5,-31.5707 2334.5,-31.5706"/>
</g>
<!-- Node25&#45;&gt;Node17 -->
<g id="edge54" class="edge"><title>Node25&#45;&gt;Node17</title>
<path fill="none" stroke="midnightblue" d="M2199.27,-116.187C2209.41,-101.687 2228.91,-75.7176 2250,-58 2264.74,-45.6145 2283.18,-34.6304 2298.73,-26.4015"/>
<polygon fill="midnightblue" stroke="midnightblue" points="2300.7,-29.3289 2307.99,-21.646 2297.5,-23.1026 2300.7,-29.3289"/>
</g>
<!-- Node25&#45;&gt;Node22 -->
<g id="edge56" class="edge"><title>Node25&#45;&gt;Node22</title>
<path fill="none" stroke="midnightblue" d="M2177.97,-116.295C2151.5,-96.0955 2094.01,-52.2158 2062.23,-27.9632"/>
<polygon fill="midnightblue" stroke="midnightblue" points="2064.07,-24.9636 2053.99,-21.6792 2059.82,-30.5283 2064.07,-24.9636"/>
</g>
<!-- Node25&#45;&gt;Node23 -->
<g id="edge58" class="edge"><title>Node25&#45;&gt;Node23</title>
<path fill="none" stroke="midnightblue" d="M2189.33,-116.458C2185.39,-102.264 2177.05,-76.6407 2164,-58 2156.04,-46.6286 2144.85,-36.0599 2134.89,-27.8361"/>
<polygon fill="midnightblue" stroke="midnightblue" points="2136.92,-24.9798 2126.91,-21.5135 2132.57,-30.4667 2136.92,-24.9798"/>
</g>
<!-- Node25&#45;&gt;Node24 -->
<g id="edge60" class="edge"><title>Node25&#45;&gt;Node24</title>
<path fill="none" stroke="midnightblue" d="M2217.17,-116.497C2239.27,-107.275 2271.64,-93.7695 2296.21,-83.5153"/>
<polygon fill="midnightblue" stroke="midnightblue" points="2297.66,-86.7022 2305.55,-79.6212 2294.97,-80.2421 2297.66,-86.7022"/>
</g>
<!-- Node26&#45;&gt;Node17 -->
<g id="edge64" class="edge"><title>Node26&#45;&gt;Node17</title>
<path fill="none" stroke="midnightblue" d="M2382.29,-116.194C2384.73,-102.149 2387.22,-77.1578 2379,-58 2373.95,-46.228 2364.4,-35.9062 2355.14,-27.957"/>
<polygon fill="midnightblue" stroke="midnightblue" points="2357.19,-25.1168 2347.19,-21.6052 2352.82,-30.5839 2357.19,-25.1168"/>
</g>
<!-- Node26&#45;&gt;Node24 -->
<g id="edge66" class="edge"><title>Node26&#45;&gt;Node24</title>
<path fill="none" stroke="midnightblue" d="M2371.01,-116.362C2364.17,-108.268 2354.6,-96.9318 2346.53,-87.3796"/>
<polygon fill="midnightblue" stroke="midnightblue" points="2349.06,-84.9508 2339.93,-79.5707 2343.71,-89.4683 2349.06,-84.9508"/>
</g>
<!-- Node27&#45;&gt;Node12 -->
<g id="edge72" class="edge"><title>Node27&#45;&gt;Node12</title>
<path fill="none" stroke="midnightblue" d="M1714.31,-121.371C1661.73,-115.293 1585.82,-103.183 1523,-80 1504.69,-73.2436 1503.69,-63.6177 1485,-58 1450.49,-47.6257 943.548,-22.8538 758.757,-14.1161"/>
<polygon fill="midnightblue" stroke="midnightblue" points="758.781,-10.6135 748.627,-13.638 758.451,-17.6057 758.781,-10.6135"/>
</g>
<!-- Node27&#45;&gt;Node17 -->
<g id="edge70" class="edge"><title>Node27&#45;&gt;Node17</title>
<path fill="none" stroke="midnightblue" d="M1807.84,-116.36C1831.79,-107.5 1866.07,-94.0946 1895,-80 1912.54,-71.4521 1914.48,-64.1605 1933,-58 1999.7,-35.8085 2209.08,-19.3665 2294.34,-13.424"/>
<polygon fill="midnightblue" stroke="midnightblue" points="2294.6,-16.9142 2304.34,-12.7356 2294.12,-9.9307 2294.6,-16.9142"/>
</g>
<!-- Node28 -->
<g id="node65" class="node"><title>Node28</title>
<polygon fill="white" stroke="#bfbfbf" points="1761.5,-58.5 1761.5,-79.5 1886.5,-79.5 1886.5,-58.5 1761.5,-58.5"/>
<text text-anchor="middle" x="1824" y="-66.5" font-family="DejaVuSans" font-size="10.00">Datatypes/cv_Shape.h</text>
</g>
<!-- Node27&#45;&gt;Node28 -->
<g id="edge74" class="edge"><title>Node27&#45;&gt;Node28</title>
<path fill="none" stroke="midnightblue" d="M1786.44,-116.362C1792.79,-108.35 1801.67,-97.1605 1809.19,-87.6696"/>
<polygon fill="midnightblue" stroke="midnightblue" points="1812.14,-89.5805 1815.62,-79.5707 1806.66,-85.2308 1812.14,-89.5805"/>
</g>
<!-- Node29 -->
<g id="node67" class="node"><title>Node29</title>
<polygon fill="white" stroke="#bfbfbf" points="1348,-58.5 1348,-79.5 1476,-79.5 1476,-58.5 1348,-58.5"/>
<text text-anchor="middle" x="1412" y="-66.5" font-family="DejaVuSans" font-size="10.00">Datatypes/cv_Identity.h</text>
</g>
<!-- Node27&#45;&gt;Node29 -->
<g id="edge76" class="edge"><title>Node27&#45;&gt;Node29</title>
<path fill="none" stroke="midnightblue" d="M1714.25,-116.897C1650.74,-106.833 1553.3,-91.3913 1486.32,-80.7768"/>
<polygon fill="midnightblue" stroke="midnightblue" points="1486.67,-77.29 1476.25,-79.1817 1485.58,-84.2038 1486.67,-77.29"/>
</g>
<!-- Node30 -->
<g id="node69" class="node"><title>Node30</title>
<polygon fill="white" stroke="#bfbfbf" points="1655.5,-58.5 1655.5,-79.5 1744.5,-79.5 1744.5,-58.5 1655.5,-58.5"/>
<text text-anchor="middle" x="1700" y="-66.5" font-family="DejaVuSans" font-size="10.00">Config/Config.h</text>
</g>
<!-- Node27&#45;&gt;Node30 -->
<g id="edge78" class="edge"><title>Node27&#45;&gt;Node30</title>
<path fill="none" stroke="midnightblue" d="M1763.69,-116.362C1752.15,-107.777 1735.7,-95.5459 1722.41,-85.6636"/>
<polygon fill="midnightblue" stroke="midnightblue" points="1724.33,-82.7291 1714.22,-79.5707 1720.15,-88.3463 1724.33,-82.7291"/>
</g>
<!-- Node31&#45;&gt;Node4 -->
<g id="edge82" class="edge"><title>Node31&#45;&gt;Node4</title>
<path fill="none" stroke="midnightblue" d="M424.496,-123.761C354.703,-118.828 246.694,-106.979 217,-80 203.68,-67.8977 199.35,-47.4017 198.102,-31.8844"/>
<polygon fill="midnightblue" stroke="midnightblue" points="201.588,-31.4934 197.653,-21.6566 194.595,-31.8005 201.588,-31.4934"/>
</g>
<!-- Node31&#45;&gt;Node12 -->
<g id="edge88" class="edge"><title>Node31&#45;&gt;Node12</title>
<path fill="none" stroke="midnightblue" d="M492.896,-116.297C503.155,-101.197 523.842,-73.729 548,-58 572.037,-42.3503 601.73,-31.5044 627.896,-24.2097"/>
<polygon fill="midnightblue" stroke="midnightblue" points="628.973,-27.5448 637.733,-21.5852 627.169,-20.7814 628.973,-27.5448"/>
</g>
<!-- Node31&#45;&gt;Node15 -->
<g id="edge90" class="edge"><title>Node31&#45;&gt;Node15</title>
<path fill="none" stroke="midnightblue" d="M501.993,-116.343C526.199,-100.775 574.089,-72.135 619,-58 677.832,-39.4837 858.393,-21.5128 937.365,-14.3058"/>
<polygon fill="midnightblue" stroke="midnightblue" points="937.723,-17.7877 947.367,-13.401 937.093,-10.8162 937.723,-17.7877"/>
</g>
<!-- Node32 -->
<g id="node74" class="node"><title>Node32</title>
<polygon fill="white" stroke="#bfbfbf" points="225.5,-58.5 225.5,-79.5 374.5,-79.5 374.5,-58.5 225.5,-58.5"/>
<text text-anchor="middle" x="300" y="-66.5" font-family="DejaVuSans" font-size="10.00">Storage/StorageTemplate.h</text>
</g>
<!-- Node31&#45;&gt;Node32 -->
<g id="edge84" class="edge"><title>Node31&#45;&gt;Node32</title>
<path fill="none" stroke="midnightblue" d="M452.317,-116.497C421.863,-107 376.843,-92.9619 343.642,-82.6087"/>
<polygon fill="midnightblue" stroke="midnightblue" points="344.335,-79.1587 333.746,-79.5231 342.251,-85.8414 344.335,-79.1587"/>
</g>
<!-- Node33 -->
<g id="node76" class="node"><title>Node33</title>
<polygon fill="white" stroke="#bfbfbf" points="389.5,-0.5 389.5,-21.5 520.5,-21.5 520.5,-0.5 389.5,-0.5"/>
<text text-anchor="middle" x="455" y="-8.5" font-family="DejaVuSans" font-size="10.00">Datatypes/cv_Species.h</text>
</g>
<!-- Node31&#45;&gt;Node33 -->
<g id="edge86" class="edge"><title>Node31&#45;&gt;Node33</title>
<path fill="none" stroke="midnightblue" d="M483.139,-116.295C477.995,-97.0451 467.103,-56.2889 460.481,-31.5091"/>
<polygon fill="midnightblue" stroke="midnightblue" points="463.817,-30.4365 457.854,-21.6792 457.054,-32.2438 463.817,-30.4365"/>
</g>
<!-- Node34 -->
<g id="node80" class="node"><title>Node34</title>
<a xlink:href="_read_xml_8h.html" target="_top" xlink:title="ReadXml.h">
<polygon fill="white" stroke="red" points="391.5,-58.5 391.5,-79.5 458.5,-79.5 458.5,-58.5 391.5,-58.5"/>
<text text-anchor="middle" x="425" y="-66.5" font-family="DejaVuSans" font-size="10.00">ReadXml.h</text>
</a>
</g>
<!-- Node31&#45;&gt;Node34 -->
<g id="edge92" class="edge"><title>Node31&#45;&gt;Node34</title>
<path fill="none" stroke="midnightblue" d="M474.812,-116.362C466.041,-108.023 453.651,-96.2418 443.422,-86.5162"/>
<polygon fill="midnightblue" stroke="midnightblue" points="445.776,-83.9248 436.117,-79.5707 440.953,-88.9978 445.776,-83.9248"/>
</g>
<!-- Node34&#45;&gt;Node4 -->
<g id="edge94" class="edge"><title>Node34&#45;&gt;Node4</title>
<path fill="none" stroke="midnightblue" d="M391.08,-60.0932C388.347,-59.3826 385.628,-58.6778 383,-58 328.241,-43.8735 264.278,-27.6951 227.717,-18.478"/>
<polygon fill="midnightblue" stroke="midnightblue" points="228.278,-15.01 217.725,-15.9606 226.567,-21.7979 228.278,-15.01"/>
</g>
<!-- Node34&#45;&gt;Node12 -->
<g id="edge98" class="edge"><title>Node34&#45;&gt;Node12</title>
<path fill="none" stroke="midnightblue" d="M458.545,-61.713C502.361,-52.1949 579.79,-35.3752 633.398,-23.7301"/>
<polygon fill="midnightblue" stroke="midnightblue" points="634.421,-27.0894 643.451,-21.5463 632.935,-20.2489 634.421,-27.0894"/>
</g>
<!-- Node34&#45;&gt;Node33 -->
<g id="edge96" class="edge"><title>Node34&#45;&gt;Node33</title>
<path fill="none" stroke="midnightblue" d="M430.502,-58.3619C434.52,-50.5949 440.081,-39.8426 444.89,-30.5458"/>
<polygon fill="midnightblue" stroke="midnightblue" points="448.047,-32.0608 449.532,-21.5707 441.829,-28.8448 448.047,-32.0608"/>
</g>
<!-- Node36 -->
<g id="node87" class="node"><title>Node36</title>
<polygon fill="white" stroke="#bfbfbf" points="2865,-116.5 2865,-137.5 2929,-137.5 2929,-116.5 2865,-116.5"/>
<text text-anchor="middle" x="2897" y="-124.5" font-family="DejaVuSans" font-size="10.00">QSettings</text>
</g>
<!-- Node35&#45;&gt;Node36 -->
<g id="edge102" class="edge"><title>Node35&#45;&gt;Node36</title>
<path fill="none" stroke="midnightblue" d="M2897,-174.362C2897,-166.922 2897,-156.743 2897,-147.728"/>
<polygon fill="midnightblue" stroke="midnightblue" points="2900.5,-147.571 2897,-137.571 2893.5,-147.571 2900.5,-147.571"/>
</g>
<!-- Node37&#45;&gt;Node12 -->
<g id="edge110" class="edge"><title>Node37&#45;&gt;Node12</title>
<path fill="none" stroke="midnightblue" d="M1224.89,-121.065C1172.33,-115.08 1101.62,-103.228 1043,-80 1026.27,-73.3699 1025.84,-64.3531 1009,-58 964.537,-41.226 838.256,-25.9098 759.151,-17.5753"/>
<polygon fill="midnightblue" stroke="midnightblue" points="759.102,-14.0513 748.793,-16.4954 758.376,-21.0135 759.102,-14.0513"/>
</g>
<!-- Node37&#45;&gt;Node13 -->
<g id="edge116" class="edge"><title>Node37&#45;&gt;Node13</title>
<path fill="none" stroke="midnightblue" d="M1231.64,-116.497C1165.69,-106.509 1066.56,-91.4976 997.459,-81.0329"/>
<polygon fill="midnightblue" stroke="midnightblue" points="997.9,-77.5599 987.488,-79.5231 996.852,-84.481 997.9,-77.5599"/>
</g>
<!-- Node37&#45;&gt;Node15 -->
<g id="edge138" class="edge"><title>Node37&#45;&gt;Node15</title>
<path fill="none" stroke="midnightblue" d="M1224.86,-117.034C1182.59,-109.886 1129.69,-98.2246 1085,-80 1067.46,-72.8486 1025.57,-45.3652 998.838,-27.317"/>
<polygon fill="midnightblue" stroke="midnightblue" points="1000.65,-24.3184 990.412,-21.601 996.723,-30.1113 1000.65,-24.3184"/>
</g>
<!-- Node37&#45;&gt;Node29 -->
<g id="edge106" class="edge"><title>Node37&#45;&gt;Node29</title>
<path fill="none" stroke="midnightblue" d="M1321.1,-116.497C1338.28,-107.519 1363.23,-94.4835 1382.64,-84.3387"/>
<polygon fill="midnightblue" stroke="midnightblue" points="1384.43,-87.3544 1391.67,-79.6212 1381.19,-81.1503 1384.43,-87.3544"/>
</g>
<!-- Node38 -->
<g id="node92" class="node"><title>Node38</title>
<polygon fill="white" stroke="#bfbfbf" points="1209,-0.5 1209,-21.5 1355,-21.5 1355,-0.5 1209,-0.5"/>
<text text-anchor="middle" x="1282" y="-8.5" font-family="DejaVuSans" font-size="10.00">Datatypes/cv_IdentityList.h</text>
</g>
<!-- Node37&#45;&gt;Node38 -->
<g id="edge108" class="edge"><title>Node37&#45;&gt;Node38</title>
<path fill="none" stroke="midnightblue" d="M1299.25,-116.295C1296.11,-97.1314 1289.48,-56.654 1285.41,-31.8434"/>
<polygon fill="midnightblue" stroke="midnightblue" points="1288.82,-30.9819 1283.75,-21.6792 1281.91,-32.1135 1288.82,-30.9819"/>
</g>
<!-- Node39 -->
<g id="node95" class="node"><title>Node39</title>
<polygon fill="white" stroke="#bfbfbf" points="1373,-0.5 1373,-21.5 1471,-21.5 1471,-0.5 1373,-0.5"/>
<text text-anchor="middle" x="1422" y="-8.5" font-family="DejaVuSans" font-size="10.00">Datatypes/Trait.h</text>
</g>
<!-- Node37&#45;&gt;Node39 -->
<g id="edge112" class="edge"><title>Node37&#45;&gt;Node39</title>
<path fill="none" stroke="midnightblue" d="M1304.86,-116.012C1310.47,-101.313 1322.08,-75.12 1339,-58 1352.21,-44.6368 1370.01,-33.8871 1385.74,-26.059"/>
<polygon fill="midnightblue" stroke="midnightblue" points="1387.67,-29.0151 1395.21,-21.5652 1384.67,-22.6913 1387.67,-29.0151"/>
</g>
<!-- Node40 -->
<g id="node97" class="node"><title>Node40</title>
<polygon fill="white" stroke="#bfbfbf" points="1093.5,-58.5 1093.5,-79.5 1254.5,-79.5 1254.5,-58.5 1093.5,-58.5"/>
<text text-anchor="middle" x="1174" y="-66.5" font-family="DejaVuSans" font-size="10.00">Datatypes/cv_Derangement.h</text>
</g>
<!-- Node37&#45;&gt;Node40 -->
<g id="edge114" class="edge"><title>Node37&#45;&gt;Node40</title>
<path fill="none" stroke="midnightblue" d="M1278,-116.497C1257.99,-107.356 1228.76,-94.0082 1206.38,-83.7883"/>
<polygon fill="midnightblue" stroke="midnightblue" points="1207.81,-80.5918 1197.26,-79.6212 1204.9,-86.9592 1207.81,-80.5918"/>
</g>
<!-- Node37&#45;&gt;Node41 -->
<g id="edge118" class="edge"><title>Node37&#45;&gt;Node41</title>
<path fill="none" stroke="midnightblue" d="M1352.43,-116.497C1400.53,-106.673 1472.44,-91.9884 1523.54,-81.5512"/>
<polygon fill="midnightblue" stroke="midnightblue" points="1524.38,-84.9533 1533.47,-79.5231 1522.98,-78.0949 1524.38,-84.9533"/>
</g>
<!-- Node41&#45;&gt;Node12 -->
<g id="edge126" class="edge"><title>Node41&#45;&gt;Node12</title>
<path fill="none" stroke="midnightblue" d="M1531.31,-59.672C1526.82,-59.0474 1522.34,-58.4779 1518,-58 1371.35,-41.8358 928.173,-21.3488 758.798,-13.8854"/>
<polygon fill="midnightblue" stroke="midnightblue" points="758.91,-10.387 748.766,-13.4444 758.603,-17.3802 758.91,-10.387"/>
</g>
<!-- Node41&#45;&gt;Node15 -->
<g id="edge136" class="edge"><title>Node41&#45;&gt;Node15</title>
<path fill="none" stroke="midnightblue" d="M1531.3,-59.8123C1526.8,-59.1567 1522.33,-58.5417 1518,-58 1328.98,-34.3385 1101.45,-18.826 1012.87,-13.2785"/>
<polygon fill="midnightblue" stroke="midnightblue" points="1012.97,-9.77781 1002.77,-12.6515 1012.53,-16.7644 1012.97,-9.77781"/>
</g>
<!-- Node41&#45;&gt;Node22 -->
<g id="edge120" class="edge"><title>Node41&#45;&gt;Node22</title>
<path fill="none" stroke="midnightblue" d="M1638.73,-59.2147C1641.52,-58.785 1644.29,-58.3768 1647,-58 1804.07,-36.1329 1846.31,-52.1713 2002,-22 2004.48,-21.5198 2007.03,-20.9508 2009.58,-20.3284"/>
<polygon fill="midnightblue" stroke="midnightblue" points="2010.5,-23.7036 2019.26,-17.7378 2008.69,-16.9415 2010.5,-23.7036"/>
</g>
<!-- Node41&#45;&gt;Node23 -->
<g id="edge122" class="edge"><title>Node41&#45;&gt;Node23</title>
<path fill="none" stroke="midnightblue" d="M1638.72,-59.1619C1641.52,-58.746 1644.29,-58.3552 1647,-58 1830.36,-33.9634 1881.61,-52.7471 2067.28,-22.0766"/>
<polygon fill="midnightblue" stroke="midnightblue" points="2068.09,-25.4891 2077.37,-20.3823 2066.93,-18.5856 2068.09,-25.4891"/>
</g>
<!-- Node41&#45;&gt;Node38 -->
<g id="edge130" class="edge"><title>Node41&#45;&gt;Node38</title>
<path fill="none" stroke="midnightblue" d="M1531.18,-58.6976C1479.71,-48.8452 1402.02,-33.9734 1347.09,-23.4594"/>
<polygon fill="midnightblue" stroke="midnightblue" points="1347.59,-19.9917 1337.11,-21.5491 1346.27,-26.8669 1347.59,-19.9917"/>
</g>
<!-- Node41&#45;&gt;Node39 -->
<g id="edge128" class="edge"><title>Node41&#45;&gt;Node39</title>
<path fill="none" stroke="midnightblue" d="M1555.48,-58.4966C1529.02,-49.082 1490.02,-35.2036 1461,-24.8773"/>
<polygon fill="midnightblue" stroke="midnightblue" points="1462.17,-21.578 1451.57,-21.5231 1459.82,-28.173 1462.17,-21.578"/>
</g>
<!-- Node42 -->
<g id="node104" class="node"><title>Node42</title>
<polygon fill="white" stroke="#bfbfbf" points="1676.5,-0.5 1676.5,-21.5 1827.5,-21.5 1827.5,-0.5 1676.5,-0.5"/>
<text text-anchor="middle" x="1752" y="-8.5" font-family="DejaVuSans" font-size="10.00">Datatypes/cv_SpeciesTitle.h</text>
</g>
<!-- Node41&#45;&gt;Node42 -->
<g id="edge124" class="edge"><title>Node41&#45;&gt;Node42</title>
<path fill="none" stroke="midnightblue" d="M1615.24,-58.4966C1642.35,-49.082 1682.31,-35.2036 1712.04,-24.8773"/>
<polygon fill="midnightblue" stroke="midnightblue" points="1713.4,-28.1102 1721.7,-21.5231 1711.11,-21.4977 1713.4,-28.1102"/>
</g>
<!-- Node43 -->
<g id="node109" class="node"><title>Node43</title>
<polygon fill="white" stroke="#bfbfbf" points="1844.5,-0.5 1844.5,-21.5 1993.5,-21.5 1993.5,-0.5 1844.5,-0.5"/>
<text text-anchor="middle" x="1919" y="-8.5" font-family="DejaVuSans" font-size="10.00">Datatypes/cv_SuperEffect.h</text>
</g>
<!-- Node41&#45;&gt;Node43 -->
<g id="edge132" class="edge"><title>Node41&#45;&gt;Node43</title>
<path fill="none" stroke="midnightblue" d="M1638.77,-59.4457C1641.55,-58.9556 1644.31,-58.4714 1647,-58 1715.1,-46.0751 1792.83,-32.6639 1847.71,-23.2289"/>
<polygon fill="midnightblue" stroke="midnightblue" points="1848.42,-26.6582 1857.68,-21.5147 1847.23,-19.7593 1848.42,-26.6582"/>
</g>
<!-- Node44 -->
<g id="node111" class="node"><title>Node44</title>
<polygon fill="white" stroke="#bfbfbf" points="1489,-0.5 1489,-21.5 1659,-21.5 1659,-0.5 1489,-0.5"/>
<text text-anchor="middle" x="1574" y="-8.5" font-family="DejaVuSans" font-size="10.00">Datatypes/cv_CreationPoints2.h</text>
</g>
<!-- Node41&#45;&gt;Node44 -->
<g id="edge134" class="edge"><title>Node41&#45;&gt;Node44</title>
<path fill="none" stroke="midnightblue" d="M1582.98,-58.3619C1581.56,-50.8401 1579.6,-40.5187 1577.87,-31.4308"/>
<polygon fill="midnightblue" stroke="midnightblue" points="1581.31,-30.7433 1576,-21.5707 1574.43,-32.0477 1581.31,-30.7433"/>
</g>
<!-- Node45&#45;&gt;Node23 -->
<g id="edge144" class="edge"><title>Node45&#45;&gt;Node23</title>
<path fill="none" stroke="midnightblue" d="M2015.37,-58.4966C2033.8,-49.4378 2060.64,-36.2462 2081.36,-26.0628"/>
<polygon fill="midnightblue" stroke="midnightblue" points="2082.96,-29.1735 2090.39,-21.6212 2079.87,-22.8914 2082.96,-29.1735"/>
</g>
<!-- Node46&#45;&gt;Node6 -->
<g id="edge150" class="edge"><title>Node46&#45;&gt;Node6</title>
<path fill="none" stroke="midnightblue" d="M2400.94,-174.477C2464.6,-165.532 2557.34,-151.951 2638,-138 2639.07,-137.814 2640.16,-137.624 2641.25,-137.43"/>
<polygon fill="midnightblue" stroke="midnightblue" points="2642.02,-140.848 2651.23,-135.608 2640.77,-133.961 2642.02,-140.848"/>
</g>
<!-- Node46&#45;&gt;Node17 -->
<g id="edge148" class="edge"><title>Node46&#45;&gt;Node17</title>
<path fill="none" stroke="midnightblue" d="M2402.04,-174.46C2482.88,-163.165 2598.39,-145.81 2605,-138 2674.41,-56.013 2457.21,-23.9118 2367.71,-14.3615"/>
<polygon fill="midnightblue" stroke="midnightblue" points="2368.01,-10.8741 2357.7,-13.3315 2367.29,-17.8373 2368.01,-10.8741"/>
</g>
<!-- Node49&#45;&gt;Node11 -->
<g id="edge158" class="edge"><title>Node49&#45;&gt;Node11</title>
<path fill="none" stroke="midnightblue" d="M1460.07,-181.194C1348.27,-171.046 1043,-143.338 917.745,-131.969"/>
<polygon fill="midnightblue" stroke="midnightblue" points="917.891,-128.468 907.616,-131.05 917.259,-135.439 917.891,-128.468"/>
</g>
<!-- Node49&#45;&gt;Node37 -->
<g id="edge162" class="edge"><title>Node49&#45;&gt;Node37</title>
<path fill="none" stroke="midnightblue" d="M1465.6,-174.497C1432.41,-164.918 1383.2,-150.72 1347.24,-140.342"/>
<polygon fill="midnightblue" stroke="midnightblue" points="1348.05,-136.933 1337.47,-137.523 1346.11,-143.658 1348.05,-136.933"/>
</g>
<!-- Node49&#45;&gt;Node41 -->
<g id="edge160" class="edge"><title>Node49&#45;&gt;Node41</title>
<path fill="none" stroke="midnightblue" d="M1509.66,-174.295C1523.74,-154.613 1553.91,-112.45 1571.5,-87.8668"/>
<polygon fill="midnightblue" stroke="midnightblue" points="1574.39,-89.8485 1577.36,-79.6792 1568.69,-85.7751 1574.39,-89.8485"/>
</g>
</g>
</svg>
