<?xml version="1.0" encoding="UTF-8" standalone="no"?>
<!DOCTYPE svg PUBLIC "-//W3C//DTD SVG 1.1//EN"
 "http://www.w3.org/Graphics/SVG/1.1/DTD/svg11.dtd">
<!-- Generated by graphviz version 2.26.3 (20100126.1600)
 -->
<!-- Title: G Pages: 1 -->
<svg width="3148pt" height="262pt"
 viewBox="0.00 0.00 3148.00 262.00" xmlns="http://www.w3.org/2000/svg" xmlns:xlink="http://www.w3.org/1999/xlink">
<g id="graph1" class="graph" transform="scale(1 1) rotate(0) translate(4 258)">
<title>G</title>
<polygon fill="white" stroke="white" points="-4,5 -4,-258 3145,-258 3145,5 -4,5"/>
<!-- Node1 -->
<g id="node1" class="node"><title>Node1</title>
<polygon fill="#bfbfbf" stroke="black" points="524.5,-232.5 524.5,-253.5 635.5,-253.5 635.5,-232.5 524.5,-232.5"/>
<text text-anchor="middle" x="580" y="-240.5" font-family="DejaVuSans" font-size="10.00">src/MainWindow.cpp</text>
</g>
<!-- Node2 -->
<g id="node3" class="node"><title>Node2</title>
<polygon fill="white" stroke="#bfbfbf" points="-0.5,-174.5 -0.5,-195.5 76.5,-195.5 76.5,-174.5 -0.5,-174.5"/>
<text text-anchor="middle" x="38" y="-182.5" font-family="DejaVuSans" font-size="10.00">QCloseEvent</text>
</g>
<!-- Node1&#45;&gt;Node2 -->
<g id="edge2" class="edge"><title>Node1&#45;&gt;Node2</title>
<path fill="none" stroke="midnightblue" d="M524.38,-240.178C434.337,-235.07 250.96,-222.44 86.9227,-196.151"/>
<polygon fill="midnightblue" stroke="midnightblue" points="87.0776,-192.63 76.6457,-194.482 85.9552,-199.54 87.0776,-192.63"/>
</g>
<!-- Node3 -->
<g id="node5" class="node"><title>Node3</title>
<polygon fill="white" stroke="#bfbfbf" points="94,-174.5 94,-195.5 132,-195.5 132,-174.5 94,-174.5"/>
<text text-anchor="middle" x="113" y="-182.5" font-family="DejaVuSans" font-size="10.00">QDir</text>
</g>
<!-- Node1&#45;&gt;Node3 -->
<g id="edge4" class="edge"><title>Node1&#45;&gt;Node3</title>
<path fill="none" stroke="midnightblue" d="M524.432,-241.794C442.199,-238.976 283.453,-229.572 141.796,-195.645"/>
<polygon fill="midnightblue" stroke="midnightblue" points="142.605,-192.239 132.06,-193.267 140.944,-199.04 142.605,-192.239"/>
</g>
<!-- Node4 -->
<g id="node7" class="node"><title>Node4</title>
<polygon fill="white" stroke="#bfbfbf" points="149.5,-174.5 149.5,-195.5 218.5,-195.5 218.5,-174.5 149.5,-174.5"/>
<text text-anchor="middle" x="184" y="-182.5" font-family="DejaVuSans" font-size="10.00">QFileDialog</text>
</g>
<!-- Node1&#45;&gt;Node4 -->
<g id="edge6" class="edge"><title>Node1&#45;&gt;Node4</title>
<path fill="none" stroke="midnightblue" d="M524.339,-237.643C456.548,-230.662 338.422,-217.029 228.576,-196.15"/>
<polygon fill="midnightblue" stroke="midnightblue" points="229.136,-192.693 218.654,-194.239 227.812,-199.567 229.136,-192.693"/>
</g>
<!-- Node5 -->
<g id="node9" class="node"><title>Node5</title>
<polygon fill="white" stroke="#bfbfbf" points="236,-174.5 236,-195.5 312,-195.5 312,-174.5 236,-174.5"/>
<text text-anchor="middle" x="274" y="-182.5" font-family="DejaVuSans" font-size="10.00">QPrintDialog</text>
</g>
<!-- Node1&#45;&gt;Node5 -->
<g id="edge8" class="edge"><title>Node1&#45;&gt;Node5</title>
<path fill="none" stroke="midnightblue" d="M524.268,-233.722C473.968,-225.159 397.704,-211.71 322.329,-196.207"/>
<polygon fill="midnightblue" stroke="midnightblue" points="322.686,-192.706 312.184,-194.106 321.267,-199.561 322.686,-192.706"/>
</g>
<!-- Node6 -->
<g id="node11" class="node"><title>Node6</title>
<polygon fill="white" stroke="#bfbfbf" points="329.5,-174.5 329.5,-195.5 380.5,-195.5 380.5,-174.5 329.5,-174.5"/>
<text text-anchor="middle" x="355" y="-182.5" font-family="DejaVuSans" font-size="10.00">QTimer</text>
</g>
<!-- Node1&#45;&gt;Node6 -->
<g id="edge10" class="edge"><title>Node1&#45;&gt;Node6</title>
<path fill="none" stroke="midnightblue" d="M533.049,-232.436C496.433,-223.974 444.116,-211.397 390.272,-196.243"/>
<polygon fill="midnightblue" stroke="midnightblue" points="391.136,-192.85 380.56,-193.486 389.224,-199.584 391.136,-192.85"/>
</g>
<!-- Node7 -->
<g id="node13" class="node"><title>Node7</title>
<polygon fill="white" stroke="#bfbfbf" points="398,-174.5 398,-195.5 454,-195.5 454,-174.5 398,-174.5"/>
<text text-anchor="middle" x="426" y="-182.5" font-family="DejaVuSans" font-size="10.00">QDebug</text>
</g>
<!-- Node1&#45;&gt;Node7 -->
<g id="edge12" class="edge"><title>Node1&#45;&gt;Node7</title>
<path fill="none" stroke="midnightblue" d="M552.112,-232.497C527.332,-223.164 490.905,-209.445 463.564,-199.147"/>
<polygon fill="midnightblue" stroke="midnightblue" points="464.532,-195.772 453.941,-195.523 462.065,-202.323 464.532,-195.772"/>
</g>
<!-- Node8 -->
<g id="node15" class="node"><title>Node8</title>
<a xlink:href="_read_xml_template_8h.html" target="_top" xlink:title="IO/ReadXmlTemplate.h">
<polygon fill="white" stroke="black" points="1149.5,-116.5 1149.5,-137.5 1272.5,-137.5 1272.5,-116.5 1149.5,-116.5"/>
<text text-anchor="middle" x="1211" y="-124.5" font-family="DejaVuSans" font-size="10.00">IO/ReadXmlTemplate.h</text>
</a>
</g>
<!-- Node1&#45;&gt;Node8 -->
<g id="edge14" class="edge"><title>Node1&#45;&gt;Node8</title>
<path fill="none" stroke="midnightblue" d="M635.672,-238.367C708.904,-231.731 841.388,-217.852 953,-196 1029.57,-181.009 1116.96,-155.911 1167.85,-140.472"/>
<polygon fill="midnightblue" stroke="midnightblue" points="1168.99,-143.785 1177.53,-137.518 1166.95,-137.089 1168.99,-143.785"/>
</g>
<!-- Node12 -->
<g id="node23" class="node"><title>Node12</title>
<a xlink:href="_settings_8h.html" target="_top" xlink:title="IO/Settings.h">
<polygon fill="white" stroke="black" points="472,-174.5 472,-195.5 550,-195.5 550,-174.5 472,-174.5"/>
<text text-anchor="middle" x="511" y="-182.5" font-family="DejaVuSans" font-size="10.00">IO/Settings.h</text>
</a>
</g>
<!-- Node1&#45;&gt;Node12 -->
<g id="edge22" class="edge"><title>Node1&#45;&gt;Node12</title>
<path fill="none" stroke="midnightblue" d="M567.344,-232.362C557.326,-223.941 543.133,-212.011 531.499,-202.231"/>
<polygon fill="midnightblue" stroke="midnightblue" points="533.482,-199.326 523.575,-195.571 528.978,-204.684 533.482,-199.326"/>
</g>
<!-- Node14 -->
<g id="node27" class="node"><title>Node14</title>
<a xlink:href="_storage_template_8h.html" target="_top" xlink:title="Storage/StorageTemplate.h">
<polygon fill="white" stroke="black" points="877.5,-116.5 877.5,-137.5 1026.5,-137.5 1026.5,-116.5 877.5,-116.5"/>
<text text-anchor="middle" x="952" y="-124.5" font-family="DejaVuSans" font-size="10.00">Storage/StorageTemplate.h</text>
</a>
</g>
<!-- Node1&#45;&gt;Node14 -->
<g id="edge26" class="edge"><title>Node1&#45;&gt;Node14</title>
<path fill="none" stroke="midnightblue" d="M635.73,-238.944C729.551,-231.625 911.014,-215.176 933,-196 946.563,-184.171 950.861,-163.639 952.036,-148.039"/>
<polygon fill="midnightblue" stroke="midnightblue" points="955.544,-147.872 952.427,-137.746 948.549,-147.606 955.544,-147.872"/>
</g>
<!-- Node21 -->
<g id="node42" class="node"><title>Node21</title>
<a xlink:href="_trait_line_8h.html" target="_top" xlink:title="Widgets/TraitLine.h">
<polygon fill="white" stroke="black" points="2347.5,-116.5 2347.5,-137.5 2452.5,-137.5 2452.5,-116.5 2347.5,-116.5"/>
<text text-anchor="middle" x="2400" y="-124.5" font-family="DejaVuSans" font-size="10.00">Widgets/TraitLine.h</text>
</a>
</g>
<!-- Node1&#45;&gt;Node21 -->
<g id="edge42" class="edge"><title>Node1&#45;&gt;Node21</title>
<path fill="none" stroke="midnightblue" d="M635.726,-242.733C880.167,-241.344 1851.19,-233.495 1982,-196 2000.76,-190.623 2001.47,-180.113 2020,-174 2152.45,-130.314 2195.88,-157.39 2337.54,-138.105"/>
<polygon fill="midnightblue" stroke="midnightblue" points="2338.05,-141.568 2347.46,-136.701 2337.07,-134.637 2338.05,-141.568"/>
</g>
<!-- Node30 -->
<g id="node63" class="node"><title>Node30</title>
<a xlink:href="_message_box_8h.html" target="_top" xlink:title="Widgets/Dialogs/MessageBox.h">
<polygon fill="white" stroke="black" points="567.5,-174.5 567.5,-195.5 732.5,-195.5 732.5,-174.5 567.5,-174.5"/>
<text text-anchor="middle" x="650" y="-182.5" font-family="DejaVuSans" font-size="10.00">Widgets/Dialogs/MessageBox.h</text>
</a>
</g>
<!-- Node1&#45;&gt;Node30 -->
<g id="edge66" class="edge"><title>Node1&#45;&gt;Node30</title>
<path fill="none" stroke="midnightblue" d="M592.839,-232.362C603.002,-223.941 617.401,-212.011 629.204,-202.231"/>
<polygon fill="midnightblue" stroke="midnightblue" points="631.775,-204.646 637.242,-195.571 627.309,-199.256 631.775,-204.646"/>
</g>
<!-- Node34 -->
<g id="node72" class="node"><title>Node34</title>
<a xlink:href="_settings_dialog_8h.html" target="_top" xlink:title="Widgets/Dialogs/SettingsDialog.h">
<polygon fill="white" stroke="black" points="750,-174.5 750,-195.5 924,-195.5 924,-174.5 750,-174.5"/>
<text text-anchor="middle" x="837" y="-182.5" font-family="DejaVuSans" font-size="10.00">Widgets/Dialogs/SettingsDialog.h</text>
</a>
</g>
<!-- Node1&#45;&gt;Node34 -->
<g id="edge76" class="edge"><title>Node1&#45;&gt;Node34</title>
<path fill="none" stroke="midnightblue" d="M626.541,-232.497C669.799,-222.734 734.325,-208.172 780.516,-197.747"/>
<polygon fill="midnightblue" stroke="midnightblue" points="781.388,-201.139 790.372,-195.523 779.847,-194.31 781.388,-201.139"/>
</g>
<!-- Node36 -->
<g id="node76" class="node"><title>Node36</title>
<a xlink:href="_main_window_8h.html" target="_top" xlink:title="MainWindow.h">
<polygon fill="white" stroke="red" points="1890.5,-174.5 1890.5,-195.5 1973.5,-195.5 1973.5,-174.5 1890.5,-174.5"/>
<text text-anchor="middle" x="1932" y="-182.5" font-family="DejaVuSans" font-size="10.00">MainWindow.h</text>
</a>
</g>
<!-- Node1&#45;&gt;Node36 -->
<g id="edge80" class="edge"><title>Node1&#45;&gt;Node36</title>
<path fill="none" stroke="midnightblue" d="M635.521,-240.618C855.778,-231.169 1666.41,-196.394 1880.09,-187.227"/>
<polygon fill="midnightblue" stroke="midnightblue" points="1880.55,-190.71 1890.39,-186.785 1880.25,-183.717 1880.55,-190.71"/>
</g>
<!-- Node50 -->
<g id="node132" class="node"><title>Node50</title>
<polygon fill="white" stroke="#bfbfbf" points="2029,-174.5 2029,-195.5 2125,-195.5 2125,-174.5 2029,-174.5"/>
<text text-anchor="middle" x="2077" y="-182.5" font-family="DejaVuSans" font-size="10.00">ui_MainWindow.h</text>
</g>
<!-- Node1&#45;&gt;Node50 -->
<g id="edge164" class="edge"><title>Node1&#45;&gt;Node50</title>
<path fill="none" stroke="midnightblue" d="M635.812,-242.239C865.725,-238.938 1740.28,-224.721 2015,-196 2016.11,-195.883 2017.24,-195.759 2018.37,-195.626"/>
<polygon fill="midnightblue" stroke="midnightblue" points="2019.24,-199.042 2028.69,-194.258 2018.32,-192.103 2019.24,-199.042"/>
</g>
<!-- Node9 -->
<g id="node17" class="node"><title>Node9</title>
<polygon fill="white" stroke="#bfbfbf" points="1245.5,-58.5 1245.5,-79.5 1394.5,-79.5 1394.5,-58.5 1245.5,-58.5"/>
<text text-anchor="middle" x="1320" y="-66.5" font-family="DejaVuSans" font-size="10.00">Storage/StorageTemplate.h</text>
</g>
<!-- Node8&#45;&gt;Node9 -->
<g id="edge16" class="edge"><title>Node8&#45;&gt;Node9</title>
<path fill="none" stroke="midnightblue" d="M1230.74,-116.497C1247.61,-107.519 1272.11,-94.4835 1291.17,-84.3387"/>
<polygon fill="midnightblue" stroke="midnightblue" points="1292.86,-87.4086 1300.04,-79.6212 1289.57,-81.2289 1292.86,-87.4086"/>
</g>
<!-- Node10 -->
<g id="node19" class="node"><title>Node10</title>
<polygon fill="white" stroke="#bfbfbf" points="1411.5,-58.5 1411.5,-79.5 1466.5,-79.5 1466.5,-58.5 1411.5,-58.5"/>
<text text-anchor="middle" x="1439" y="-66.5" font-family="DejaVuSans" font-size="10.00">QObject</text>
</g>
<!-- Node8&#45;&gt;Node10 -->
<g id="edge18" class="edge"><title>Node8&#45;&gt;Node10</title>
<path fill="none" stroke="midnightblue" d="M1257.36,-116.427C1294.15,-107.86 1347.11,-95.1429 1401.36,-80.3668"/>
<polygon fill="midnightblue" stroke="midnightblue" points="1402.42,-83.7045 1411.14,-77.6835 1400.57,-76.9539 1402.42,-83.7045"/>
</g>
<!-- Node11 -->
<g id="node21" class="node"><title>Node11</title>
<a xlink:href="_read_xml_8h.html" target="_top" xlink:title="ReadXml.h">
<polygon fill="white" stroke="red" points="1501.5,-58.5 1501.5,-79.5 1568.5,-79.5 1568.5,-58.5 1501.5,-58.5"/>
<text text-anchor="middle" x="1535" y="-66.5" font-family="DejaVuSans" font-size="10.00">ReadXml.h</text>
</a>
</g>
<!-- Node8&#45;&gt;Node11 -->
<g id="edge20" class="edge"><title>Node8&#45;&gt;Node11</title>
<path fill="none" stroke="midnightblue" d="M1270.52,-116.494C1324.03,-107.026 1404.79,-92.6851 1475,-80 1480.34,-79.035 1485.95,-78.0155 1491.5,-77.002"/>
<polygon fill="midnightblue" stroke="midnightblue" points="1492.16,-80.4395 1501.37,-75.1973 1490.9,-73.5537 1492.16,-80.4395"/>
</g>
<!-- Node13 -->
<g id="node25" class="node"><title>Node13</title>
<polygon fill="white" stroke="#bfbfbf" points="360,-116.5 360,-137.5 424,-137.5 424,-116.5 360,-116.5"/>
<text text-anchor="middle" x="392" y="-124.5" font-family="DejaVuSans" font-size="10.00">QSettings</text>
</g>
<!-- Node12&#45;&gt;Node13 -->
<g id="edge24" class="edge"><title>Node12&#45;&gt;Node13</title>
<path fill="none" stroke="midnightblue" d="M489.45,-174.497C470.864,-165.438 443.798,-152.246 422.905,-142.063"/>
<polygon fill="midnightblue" stroke="midnightblue" points="424.314,-138.856 413.792,-137.621 421.247,-145.149 424.314,-138.856"/>
</g>
<!-- Node14&#45;&gt;Node10 -->
<g id="edge40" class="edge"><title>Node14&#45;&gt;Node10</title>
<path fill="none" stroke="midnightblue" d="M1026.64,-116.985C1029.46,-116.646 1032.26,-116.316 1035,-116 1194.91,-97.5874 1240.01,-111.57 1400.97,-80.1185"/>
<polygon fill="midnightblue" stroke="midnightblue" points="1402.1,-83.4613 1411.23,-78.0825 1400.74,-76.595 1402.1,-83.4613"/>
</g>
<!-- Node15 -->
<g id="node29" class="node"><title>Node15</title>
<polygon fill="white" stroke="#bfbfbf" points="1743.5,-0.5 1743.5,-21.5 1784.5,-21.5 1784.5,-0.5 1743.5,-0.5"/>
<text text-anchor="middle" x="1764" y="-8.5" font-family="DejaVuSans" font-size="10.00">QList</text>
</g>
<!-- Node14&#45;&gt;Node15 -->
<g id="edge28" class="edge"><title>Node14&#45;&gt;Node15</title>
<path fill="none" stroke="midnightblue" d="M877.345,-117.092C874.528,-116.723 871.739,-116.358 869,-116 742.983,-99.5485 500.951,-149.642 589,-58 609.424,-36.7428 1549.95,-15.5746 1733.23,-11.6475"/>
<polygon fill="midnightblue" stroke="midnightblue" points="1733.58,-15.141 1743.5,-11.4285 1733.43,-8.14258 1733.58,-15.141"/>
</g>
<!-- Node16 -->
<g id="node31" class="node"><title>Node16</title>
<polygon fill="white" stroke="#bfbfbf" points="1620.5,-58.5 1620.5,-79.5 1689.5,-79.5 1689.5,-58.5 1620.5,-58.5"/>
<text text-anchor="middle" x="1655" y="-66.5" font-family="DejaVuSans" font-size="10.00">QStringList</text>
</g>
<!-- Node14&#45;&gt;Node16 -->
<g id="edge30" class="edge"><title>Node14&#45;&gt;Node16</title>
<path fill="none" stroke="midnightblue" d="M1026.63,-116.875C1029.45,-116.566 1032.25,-116.273 1035,-116 1275.24,-92.1282 1336.87,-104.873 1577,-80 1587.72,-78.8895 1599.23,-77.4202 1610.03,-75.9183"/>
<polygon fill="midnightblue" stroke="midnightblue" points="1610.72,-79.3564 1620.12,-74.479 1609.73,-72.4266 1610.72,-79.3564"/>
</g>
<!-- Node17 -->
<g id="node33" class="node"><title>Node17</title>
<polygon fill="white" stroke="#bfbfbf" points="597.5,-58.5 597.5,-79.5 748.5,-79.5 748.5,-58.5 597.5,-58.5"/>
<text text-anchor="middle" x="673" y="-66.5" font-family="DejaVuSans" font-size="10.00">Datatypes/cv_SpeciesTitle.h</text>
</g>
<!-- Node14&#45;&gt;Node17 -->
<g id="edge32" class="edge"><title>Node14&#45;&gt;Node17</title>
<path fill="none" stroke="midnightblue" d="M901.475,-116.497C854.317,-106.693 783.876,-92.0496 733.69,-81.6165"/>
<polygon fill="midnightblue" stroke="midnightblue" points="734.123,-78.1317 723.62,-79.5231 732.698,-84.9852 734.123,-78.1317"/>
</g>
<!-- Node18 -->
<g id="node35" class="node"><title>Node18</title>
<polygon fill="white" stroke="#bfbfbf" points="766,-58.5 766,-79.5 864,-79.5 864,-58.5 766,-58.5"/>
<text text-anchor="middle" x="815" y="-66.5" font-family="DejaVuSans" font-size="10.00">Datatypes/Trait.h</text>
</g>
<!-- Node14&#45;&gt;Node18 -->
<g id="edge34" class="edge"><title>Node14&#45;&gt;Node18</title>
<path fill="none" stroke="midnightblue" d="M927.19,-116.497C905.504,-107.315 873.789,-93.8889 849.608,-83.6516"/>
<polygon fill="midnightblue" stroke="midnightblue" points="850.661,-80.2968 840.088,-79.6212 847.932,-86.7429 850.661,-80.2968"/>
</g>
<!-- Node19 -->
<g id="node37" class="node"><title>Node19</title>
<polygon fill="white" stroke="#bfbfbf" points="881.5,-58.5 881.5,-79.5 1030.5,-79.5 1030.5,-58.5 881.5,-58.5"/>
<text text-anchor="middle" x="956" y="-66.5" font-family="DejaVuSans" font-size="10.00">Datatypes/cv_SuperEffect.h</text>
</g>
<!-- Node14&#45;&gt;Node19 -->
<g id="edge36" class="edge"><title>Node14&#45;&gt;Node19</title>
<path fill="none" stroke="midnightblue" d="M952.734,-116.362C953.247,-108.922 953.949,-98.7427 954.571,-89.7276"/>
<polygon fill="midnightblue" stroke="midnightblue" points="958.075,-89.7878 955.271,-79.5707 951.091,-89.3061 958.075,-89.7878"/>
</g>
<!-- Node20 -->
<g id="node39" class="node"><title>Node20</title>
<polygon fill="white" stroke="#bfbfbf" points="1048,-58.5 1048,-79.5 1228,-79.5 1228,-58.5 1048,-58.5"/>
<text text-anchor="middle" x="1138" y="-66.5" font-family="DejaVuSans" font-size="10.00">Datatypes/cv_CreationPointsList.h</text>
</g>
<!-- Node14&#45;&gt;Node20 -->
<g id="edge38" class="edge"><title>Node14&#45;&gt;Node20</title>
<path fill="none" stroke="midnightblue" d="M985.683,-116.497C1016.14,-107 1061.16,-92.9619 1094.36,-82.6087"/>
<polygon fill="midnightblue" stroke="midnightblue" points="1095.75,-85.8414 1104.25,-79.5231 1093.67,-79.1587 1095.75,-85.8414"/>
</g>
<!-- Node21&#45;&gt;Node16 -->
<g id="edge44" class="edge"><title>Node21&#45;&gt;Node16</title>
<path fill="none" stroke="midnightblue" d="M2347.49,-117.115C2344.62,-116.706 2341.78,-116.33 2339,-116 2063.58,-83.3304 1991.42,-112.67 1716,-80 1710.79,-79.3821 1705.35,-78.6006 1699.96,-77.7402"/>
<polygon fill="midnightblue" stroke="midnightblue" points="1700.17,-74.2262 1689.73,-76.0108 1699.01,-81.1283 1700.17,-74.2262"/>
</g>
<!-- Node22 -->
<g id="node45" class="node"><title>Node22</title>
<polygon fill="white" stroke="#bfbfbf" points="2766,-58.5 2766,-79.5 2848,-79.5 2848,-58.5 2766,-58.5"/>
<text text-anchor="middle" x="2807" y="-66.5" font-family="DejaVuSans" font-size="10.00">QHBoxLayout</text>
</g>
<!-- Node21&#45;&gt;Node22 -->
<g id="edge46" class="edge"><title>Node21&#45;&gt;Node22</title>
<path fill="none" stroke="midnightblue" d="M2452.55,-117.375C2455.4,-116.898 2458.24,-116.437 2461,-116 2565.51,-99.4865 2688.35,-83.6429 2755.94,-75.232"/>
<polygon fill="midnightblue" stroke="midnightblue" points="2756.41,-78.7006 2765.9,-73.9963 2755.55,-71.7538 2756.41,-78.7006"/>
</g>
<!-- Node23 -->
<g id="node47" class="node"><title>Node23</title>
<polygon fill="white" stroke="#bfbfbf" points="2208,-58.5 2208,-79.5 2258,-79.5 2258,-58.5 2208,-58.5"/>
<text text-anchor="middle" x="2233" y="-66.5" font-family="DejaVuSans" font-size="10.00">QLabel</text>
</g>
<!-- Node21&#45;&gt;Node23 -->
<g id="edge48" class="edge"><title>Node21&#45;&gt;Node23</title>
<path fill="none" stroke="midnightblue" d="M2369.76,-116.497C2341.05,-106.525 2297.91,-91.5451 2267.79,-81.0826"/>
<polygon fill="midnightblue" stroke="midnightblue" points="2268.71,-77.696 2258.11,-77.7214 2266.41,-84.3086 2268.71,-77.696"/>
</g>
<!-- Node24 -->
<g id="node49" class="node"><title>Node24</title>
<polygon fill="white" stroke="#bfbfbf" points="2557,-58.5 2557,-79.5 2637,-79.5 2637,-58.5 2557,-58.5"/>
<text text-anchor="middle" x="2597" y="-66.5" font-family="DejaVuSans" font-size="10.00">QPushButton</text>
</g>
<!-- Node21&#45;&gt;Node24 -->
<g id="edge50" class="edge"><title>Node21&#45;&gt;Node24</title>
<path fill="none" stroke="midnightblue" d="M2435.68,-116.497C2468.07,-106.959 2516.02,-92.8408 2551.23,-82.475"/>
<polygon fill="midnightblue" stroke="midnightblue" points="2552.65,-85.7049 2561.26,-79.5231 2550.68,-78.9899 2552.65,-85.7049"/>
</g>
<!-- Node25 -->
<g id="node51" class="node"><title>Node25</title>
<polygon fill="white" stroke="#bfbfbf" points="2438,-58.5 2438,-79.5 2500,-79.5 2500,-58.5 2438,-58.5"/>
<text text-anchor="middle" x="2469" y="-66.5" font-family="DejaVuSans" font-size="10.00">QLineEdit</text>
</g>
<!-- Node21&#45;&gt;Node25 -->
<g id="edge52" class="edge"><title>Node21&#45;&gt;Node25</title>
<path fill="none" stroke="midnightblue" d="M2412.66,-116.362C2422.67,-107.941 2436.87,-96.0105 2448.5,-86.2308"/>
<polygon fill="midnightblue" stroke="midnightblue" points="2451.02,-88.6844 2456.42,-79.5707 2446.52,-83.326 2451.02,-88.6844"/>
</g>
<!-- Node26 -->
<g id="node53" class="node"><title>Node26</title>
<a xlink:href="_trait_dots_8h.html" target="_top" xlink:title="TraitDots.h">
<polygon fill="white" stroke="red" points="2276,-58.5 2276,-79.5 2344,-79.5 2344,-58.5 2276,-58.5"/>
<text text-anchor="middle" x="2310" y="-66.5" font-family="DejaVuSans" font-size="10.00">TraitDots.h</text>
</a>
</g>
<!-- Node21&#45;&gt;Node26 -->
<g id="edge54" class="edge"><title>Node21&#45;&gt;Node26</title>
<path fill="none" stroke="midnightblue" d="M2383.49,-116.362C2369.92,-107.614 2350.47,-95.0786 2334.99,-85.1015"/>
<polygon fill="midnightblue" stroke="midnightblue" points="2336.7,-82.0457 2326.4,-79.5707 2332.91,-87.9297 2336.7,-82.0457"/>
</g>
<!-- Node27 -->
<g id="node56" class="node"><title>Node27</title>
<polygon fill="white" stroke="#bfbfbf" points="2441,-0.5 2441,-21.5 2497,-21.5 2497,-0.5 2441,-0.5"/>
<text text-anchor="middle" x="2469" y="-8.5" font-family="DejaVuSans" font-size="10.00">QWidget</text>
</g>
<!-- Node21&#45;&gt;Node27 -->
<g id="edge64" class="edge"><title>Node21&#45;&gt;Node27</title>
<path fill="none" stroke="midnightblue" d="M2403.37,-116.225C2408.01,-102.213 2417.15,-77.2578 2429,-58 2435.3,-47.7644 2443.75,-37.4762 2451.27,-29.1461"/>
<polygon fill="midnightblue" stroke="midnightblue" points="2453.83,-31.5291 2458.09,-21.8252 2448.71,-26.759 2453.83,-31.5291"/>
</g>
<!-- Node28 -->
<g id="node58" class="node"><title>Node28</title>
<a xlink:href="_trait_specialties_8h.html" target="_top" xlink:title="TraitSpecialties.h">
<polygon fill="white" stroke="red" points="1724.5,-58.5 1724.5,-79.5 1821.5,-79.5 1821.5,-58.5 1724.5,-58.5"/>
<text text-anchor="middle" x="1773" y="-66.5" font-family="DejaVuSans" font-size="10.00">TraitSpecialties.h</text>
</a>
</g>
<!-- Node21&#45;&gt;Node28 -->
<g id="edge60" class="edge"><title>Node21&#45;&gt;Node28</title>
<path fill="none" stroke="midnightblue" d="M2347.48,-117.2C2344.61,-116.768 2341.77,-116.364 2339,-116 2154.69,-91.7863 1934.89,-77.7466 1831.82,-72.0277"/>
<polygon fill="midnightblue" stroke="midnightblue" points="1831.8,-68.5213 1821.62,-71.4679 1831.42,-75.5108 1831.8,-68.5213"/>
</g>
<!-- Node26&#45;&gt;Node15 -->
<g id="edge56" class="edge"><title>Node26&#45;&gt;Node15</title>
<path fill="none" stroke="midnightblue" d="M2275.84,-59.7442C2272.86,-59.095 2269.89,-58.5006 2267,-58 2089.97,-27.2816 1874.15,-15.6292 1795,-12.1997"/>
<polygon fill="midnightblue" stroke="midnightblue" points="1794.89,-8.69229 1784.76,-11.7693 1794.6,-15.6861 1794.89,-8.69229"/>
</g>
<!-- Node26&#45;&gt;Node27 -->
<g id="edge58" class="edge"><title>Node26&#45;&gt;Node27</title>
<path fill="none" stroke="midnightblue" d="M2338.79,-58.4966C2364.73,-49.0353 2403.03,-35.0659 2431.38,-24.724"/>
<polygon fill="midnightblue" stroke="midnightblue" points="2432.76,-27.9456 2440.95,-21.2305 2430.36,-21.3694 2432.76,-27.9456"/>
</g>
<!-- Node29 -->
<g id="node60" class="node"><title>Node29</title>
<polygon fill="white" stroke="#bfbfbf" points="1126.5,-0.5 1126.5,-21.5 1179.5,-21.5 1179.5,-0.5 1126.5,-0.5"/>
<text text-anchor="middle" x="1153" y="-8.5" font-family="DejaVuSans" font-size="10.00">QString</text>
</g>
<!-- Node28&#45;&gt;Node29 -->
<g id="edge62" class="edge"><title>Node28&#45;&gt;Node29</title>
<path fill="none" stroke="midnightblue" d="M1724.24,-61.4182C1715.51,-60.1843 1706.5,-58.9886 1698,-58 1507.19,-35.7992 1277.65,-19.3386 1189.72,-13.4077"/>
<polygon fill="midnightblue" stroke="midnightblue" points="1189.92,-9.91344 1179.71,-12.7369 1189.45,-16.8978 1189.92,-9.91344"/>
</g>
<!-- Node30&#45;&gt;Node29 -->
<g id="edge68" class="edge"><title>Node30&#45;&gt;Node29</title>
<path fill="none" stroke="midnightblue" d="M602.852,-174.491C583.307,-167.559 562.54,-156.253 551,-138 537.262,-116.271 557.977,-66.8247 569,-58 611.682,-23.8296 994.626,-13.9035 1116.16,-11.6009"/>
<polygon fill="midnightblue" stroke="midnightblue" points="1116.5,-15.0953 1126.44,-11.4128 1116.37,-8.09652 1116.5,-15.0953"/>
</g>
<!-- Node31 -->
<g id="node66" class="node"><title>Node31</title>
<polygon fill="white" stroke="#bfbfbf" points="442,-116.5 442,-137.5 504,-137.5 504,-116.5 442,-116.5"/>
<text text-anchor="middle" x="473" y="-124.5" font-family="DejaVuSans" font-size="10.00">QSqlError</text>
</g>
<!-- Node30&#45;&gt;Node31 -->
<g id="edge70" class="edge"><title>Node30&#45;&gt;Node31</title>
<path fill="none" stroke="midnightblue" d="M617.947,-174.497C588.821,-164.953 545.697,-150.822 514.057,-140.454"/>
<polygon fill="midnightblue" stroke="midnightblue" points="514.813,-137.019 504.221,-137.231 512.634,-143.67 514.813,-137.019"/>
</g>
<!-- Node32 -->
<g id="node68" class="node"><title>Node32</title>
<polygon fill="white" stroke="#bfbfbf" points="559.5,-116.5 559.5,-137.5 686.5,-137.5 686.5,-116.5 559.5,-116.5"/>
<text text-anchor="middle" x="623" y="-124.5" font-family="DejaVuSans" font-size="10.00">Exceptions/Exception.h</text>
</g>
<!-- Node30&#45;&gt;Node32 -->
<g id="edge72" class="edge"><title>Node30&#45;&gt;Node32</title>
<path fill="none" stroke="midnightblue" d="M645.048,-174.362C641.47,-166.677 636.532,-156.069 632.236,-146.84"/>
<polygon fill="midnightblue" stroke="midnightblue" points="635.314,-145.159 627.921,-137.571 628.968,-148.114 635.314,-145.159"/>
</g>
<!-- Node33 -->
<g id="node70" class="node"><title>Node33</title>
<polygon fill="white" stroke="#bfbfbf" points="703.5,-116.5 703.5,-137.5 788.5,-137.5 788.5,-116.5 703.5,-116.5"/>
<text text-anchor="middle" x="746" y="-124.5" font-family="DejaVuSans" font-size="10.00">QMessageBox</text>
</g>
<!-- Node30&#45;&gt;Node33 -->
<g id="edge74" class="edge"><title>Node30&#45;&gt;Node33</title>
<path fill="none" stroke="midnightblue" d="M667.608,-174.362C682.223,-165.532 703.224,-152.844 719.811,-142.822"/>
<polygon fill="midnightblue" stroke="midnightblue" points="721.754,-145.738 728.504,-137.571 718.135,-139.746 721.754,-145.738"/>
</g>
<!-- Node35 -->
<g id="node74" class="node"><title>Node35</title>
<polygon fill="white" stroke="#bfbfbf" points="806,-116.5 806,-137.5 860,-137.5 860,-116.5 806,-116.5"/>
<text text-anchor="middle" x="833" y="-124.5" font-family="DejaVuSans" font-size="10.00">QDialog</text>
</g>
<!-- Node34&#45;&gt;Node35 -->
<g id="edge78" class="edge"><title>Node34&#45;&gt;Node35</title>
<path fill="none" stroke="midnightblue" d="M836.266,-174.362C835.753,-166.922 835.051,-156.743 834.429,-147.728"/>
<polygon fill="midnightblue" stroke="midnightblue" points="837.909,-147.306 833.729,-137.571 830.925,-147.788 837.909,-147.306"/>
</g>
<!-- Node37 -->
<g id="node78" class="node"><title>Node37</title>
<a xlink:href="_creation_8h.html" target="_top" xlink:title="Calc/Creation.h">
<polygon fill="white" stroke="red" points="1043.5,-116.5 1043.5,-137.5 1132.5,-137.5 1132.5,-116.5 1043.5,-116.5"/>
<text text-anchor="middle" x="1088" y="-124.5" font-family="DejaVuSans" font-size="10.00">Calc/Creation.h</text>
</a>
</g>
<!-- Node36&#45;&gt;Node37 -->
<g id="edge82" class="edge"><title>Node36&#45;&gt;Node37</title>
<path fill="none" stroke="midnightblue" d="M1890.2,-184.65C1773.43,-183.22 1433.76,-175.968 1143.06,-138.122"/>
<polygon fill="midnightblue" stroke="midnightblue" points="1143.11,-134.598 1132.74,-136.762 1142.2,-141.538 1143.11,-134.598"/>
</g>
<!-- Node38 -->
<g id="node82" class="node"><title>Node38</title>
<a xlink:href="_draw_sheet_8h.html" target="_top" xlink:title="Draw/DrawSheet.h">
<polygon fill="white" stroke="red" points="1289.5,-116.5 1289.5,-137.5 1394.5,-137.5 1394.5,-116.5 1289.5,-116.5"/>
<text text-anchor="middle" x="1342" y="-124.5" font-family="DejaVuSans" font-size="10.00">Draw/DrawSheet.h</text>
</a>
</g>
<!-- Node36&#45;&gt;Node38 -->
<g id="edge88" class="edge"><title>Node36&#45;&gt;Node38</title>
<path fill="none" stroke="midnightblue" d="M1890.37,-182.577C1802.46,-177.186 1591.3,-162.789 1404.53,-138.115"/>
<polygon fill="midnightblue" stroke="midnightblue" points="1404.9,-134.634 1394.53,-136.781 1403.97,-141.573 1404.9,-134.634"/>
</g>
<!-- Node39 -->
<g id="node85" class="node"><title>Node39</title>
<a xlink:href="_read_xml_character_8h.html" target="_top" xlink:title="IO/ReadXmlCharacter.h">
<polygon fill="white" stroke="red" points="1556,-116.5 1556,-137.5 1682,-137.5 1682,-116.5 1556,-116.5"/>
<text text-anchor="middle" x="1619" y="-124.5" font-family="DejaVuSans" font-size="10.00">IO/ReadXmlCharacter.h</text>
</a>
</g>
<!-- Node36&#45;&gt;Node39 -->
<g id="edge92" class="edge"><title>Node36&#45;&gt;Node39</title>
<path fill="none" stroke="midnightblue" d="M1890.44,-177.298C1838.22,-167.622 1747.95,-150.895 1685.95,-139.405"/>
<polygon fill="midnightblue" stroke="midnightblue" points="1686.34,-135.918 1675.87,-137.537 1685.06,-142.801 1686.34,-135.918"/>
</g>
<!-- Node40 -->
<g id="node89" class="node"><title>Node40</title>
<a xlink:href="_write_xml_character_8h.html" target="_top" xlink:title="IO/WriteXmlCharacter.h">
<polygon fill="white" stroke="red" points="1412,-116.5 1412,-137.5 1538,-137.5 1538,-116.5 1412,-116.5"/>
<text text-anchor="middle" x="1475" y="-124.5" font-family="DejaVuSans" font-size="10.00">IO/WriteXmlCharacter.h</text>
</a>
</g>
<!-- Node36&#45;&gt;Node40 -->
<g id="edge98" class="edge"><title>Node36&#45;&gt;Node40</title>
<path fill="none" stroke="midnightblue" d="M1890.36,-180.333C1821.47,-172.521 1679.21,-156.006 1548.4,-138.163"/>
<polygon fill="midnightblue" stroke="midnightblue" points="1548.58,-134.655 1538.2,-136.766 1547.63,-141.591 1548.58,-134.655"/>
</g>
<!-- Node41 -->
<g id="node92" class="node"><title>Node41</title>
<a xlink:href="_info_widget_8h.html" target="_top" xlink:title="Widgets/InfoWidget.h">
<polygon fill="white" stroke="red" points="2470,-116.5 2470,-137.5 2586,-137.5 2586,-116.5 2470,-116.5"/>
<text text-anchor="middle" x="2528" y="-124.5" font-family="DejaVuSans" font-size="10.00">Widgets/InfoWidget.h</text>
</a>
</g>
<!-- Node36&#45;&gt;Node41 -->
<g id="edge102" class="edge"><title>Node36&#45;&gt;Node41</title>
<path fill="none" stroke="midnightblue" d="M1973.59,-179.43C1988.24,-177.566 2004.84,-175.566 2020,-174 2212.36,-154.135 2264.1,-161.687 2459.9,-138.053"/>
<polygon fill="midnightblue" stroke="midnightblue" points="2460.43,-141.513 2469.94,-136.829 2459.59,-134.565 2460.43,-141.513"/>
</g>
<!-- Node42 -->
<g id="node98" class="node"><title>Node42</title>
<a xlink:href="_attribute_widget_8h.html" target="_top" xlink:title="Widgets/AttributeWidget.h">
<polygon fill="white" stroke="red" points="2018,-116.5 2018,-137.5 2158,-137.5 2158,-116.5 2018,-116.5"/>
<text text-anchor="middle" x="2088" y="-124.5" font-family="DejaVuSans" font-size="10.00">Widgets/AttributeWidget.h</text>
</a>
</g>
<!-- Node36&#45;&gt;Node42 -->
<g id="edge112" class="edge"><title>Node36&#45;&gt;Node42</title>
<path fill="none" stroke="midnightblue" d="M1960.25,-174.497C1985.46,-165.123 2022.58,-151.324 2050.31,-141.012"/>
<polygon fill="midnightblue" stroke="midnightblue" points="2051.54,-144.289 2059.7,-137.523 2049.1,-137.727 2051.54,-144.289"/>
</g>
<!-- Node43 -->
<g id="node102" class="node"><title>Node43</title>
<a xlink:href="_skill_widget_8h.html" target="_top" xlink:title="Widgets/SkillWidget.h">
<polygon fill="white" stroke="red" points="3023.5,-116.5 3023.5,-137.5 3140.5,-137.5 3140.5,-116.5 3023.5,-116.5"/>
<text text-anchor="middle" x="3082" y="-124.5" font-family="DejaVuSans" font-size="10.00">Widgets/SkillWidget.h</text>
</a>
</g>
<!-- Node36&#45;&gt;Node43 -->
<g id="edge118" class="edge"><title>Node36&#45;&gt;Node43</title>
<path fill="none" stroke="midnightblue" d="M1973.55,-179.042C1988.2,-177.144 2004.81,-175.222 2020,-174 2457.75,-138.791 2572.94,-181.281 3013.1,-138.084"/>
<polygon fill="midnightblue" stroke="midnightblue" points="3013.62,-141.55 3023.23,-137.081 3012.93,-134.584 3013.62,-141.55"/>
</g>
<!-- Node44 -->
<g id="node106" class="node"><title>Node44</title>
<a xlink:href="_merit_widget_8h.html" target="_top" xlink:title="Widgets/MeritWidget.h">
<polygon fill="white" stroke="red" points="2604,-116.5 2604,-137.5 2726,-137.5 2726,-116.5 2604,-116.5"/>
<text text-anchor="middle" x="2665" y="-124.5" font-family="DejaVuSans" font-size="10.00">Widgets/MeritWidget.h</text>
</a>
</g>
<!-- Node36&#45;&gt;Node44 -->
<g id="edge124" class="edge"><title>Node36&#45;&gt;Node44</title>
<path fill="none" stroke="midnightblue" d="M1973.57,-179.268C1988.22,-177.39 2004.82,-175.422 2020,-174 2271.58,-150.424 2338.71,-165.496 2593.64,-138.058"/>
<polygon fill="midnightblue" stroke="midnightblue" points="2594.4,-141.496 2603.96,-136.935 2593.64,-134.537 2594.4,-141.496"/>
</g>
<!-- Node45 -->
<g id="node111" class="node"><title>Node45</title>
<a xlink:href="_morality_widget_8h.html" target="_top" xlink:title="Widgets/MoralityWidget.h">
<polygon fill="white" stroke="red" points="1864,-116.5 1864,-137.5 2000,-137.5 2000,-116.5 1864,-116.5"/>
<text text-anchor="middle" x="1932" y="-124.5" font-family="DejaVuSans" font-size="10.00">Widgets/MoralityWidget.h</text>
</a>
</g>
<!-- Node36&#45;&gt;Node45 -->
<g id="edge132" class="edge"><title>Node36&#45;&gt;Node45</title>
<path fill="none" stroke="midnightblue" d="M1932,-174.362C1932,-166.922 1932,-156.743 1932,-147.728"/>
<polygon fill="midnightblue" stroke="midnightblue" points="1935.5,-147.571 1932,-137.571 1928.5,-147.571 1935.5,-147.571"/>
</g>
<!-- Node46 -->
<g id="node115" class="node"><title>Node46</title>
<a xlink:href="_power_widget_8h.html" target="_top" xlink:title="Widgets/PowerWidget.h">
<polygon fill="white" stroke="red" points="2743.5,-116.5 2743.5,-137.5 2870.5,-137.5 2870.5,-116.5 2743.5,-116.5"/>
<text text-anchor="middle" x="2807" y="-124.5" font-family="DejaVuSans" font-size="10.00">Widgets/PowerWidget.h</text>
</a>
</g>
<!-- Node36&#45;&gt;Node46 -->
<g id="edge138" class="edge"><title>Node36&#45;&gt;Node46</title>
<path fill="none" stroke="midnightblue" d="M1973.56,-179.163C1988.21,-177.276 2004.82,-175.329 2020,-174 2333.56,-146.546 2416.66,-169.562 2733.05,-138.111"/>
<polygon fill="midnightblue" stroke="midnightblue" points="2733.84,-141.55 2743.44,-137.067 2733.14,-134.585 2733.84,-141.55"/>
</g>
<!-- Node47 -->
<g id="node120" class="node"><title>Node47</title>
<a xlink:href="_flaw_widget_8h.html" target="_top" xlink:title="Widgets/FlawWidget.h">
<polygon fill="white" stroke="red" points="2887.5,-116.5 2887.5,-137.5 3006.5,-137.5 3006.5,-116.5 2887.5,-116.5"/>
<text text-anchor="middle" x="2947" y="-124.5" font-family="DejaVuSans" font-size="10.00">Widgets/FlawWidget.h</text>
</a>
</g>
<!-- Node36&#45;&gt;Node47 -->
<g id="edge146" class="edge"><title>Node36&#45;&gt;Node47</title>
<path fill="none" stroke="midnightblue" d="M1973.56,-179.091C1988.21,-177.197 2004.81,-175.266 2020,-174 2397.45,-142.554 2497.09,-175.979 2877.17,-138.084"/>
<polygon fill="midnightblue" stroke="midnightblue" points="2877.75,-141.544 2887.35,-137.059 2877.05,-134.579 2877.75,-141.544"/>
</g>
<!-- Node48 -->
<g id="node124" class="node"><title>Node48</title>
<a xlink:href="_advantages_widget_8h.html" target="_top" xlink:title="Widgets/AdvantagesWidget.h">
<polygon fill="white" stroke="red" points="2175.5,-116.5 2175.5,-137.5 2330.5,-137.5 2330.5,-116.5 2175.5,-116.5"/>
<text text-anchor="middle" x="2253" y="-124.5" font-family="DejaVuSans" font-size="10.00">Widgets/AdvantagesWidget.h</text>
</a>
</g>
<!-- Node36&#45;&gt;Node48 -->
<g id="edge152" class="edge"><title>Node36&#45;&gt;Node48</title>
<path fill="none" stroke="midnightblue" d="M1973.72,-176.553C1978.2,-175.677 1982.69,-174.811 1987,-174 2052.59,-161.648 2127.47,-148.503 2181.03,-139.264"/>
<polygon fill="midnightblue" stroke="midnightblue" points="2181.86,-142.675 2191.12,-137.528 2180.67,-135.776 2181.86,-142.675"/>
</g>
<!-- Node49 -->
<g id="node129" class="node"><title>Node49</title>
<a xlink:href="_chara_specialties_8h.html" target="_top" xlink:title="Widgets/CharaSpecialties.h">
<polygon fill="white" stroke="red" points="1700,-116.5 1700,-137.5 1846,-137.5 1846,-116.5 1700,-116.5"/>
<text text-anchor="middle" x="1773" y="-124.5" font-family="DejaVuSans" font-size="10.00">Widgets/CharaSpecialties.h</text>
</a>
</g>
<!-- Node36&#45;&gt;Node49 -->
<g id="edge160" class="edge"><title>Node36&#45;&gt;Node49</title>
<path fill="none" stroke="midnightblue" d="M1903.21,-174.497C1877.51,-165.123 1839.68,-151.324 1811.41,-141.012"/>
<polygon fill="midnightblue" stroke="midnightblue" points="1812.44,-137.662 1801.85,-137.523 1810.04,-144.238 1812.44,-137.662"/>
</g>
<!-- Node37&#45;&gt;Node10 -->
<g id="edge86" class="edge"><title>Node37&#45;&gt;Node10</title>
<path fill="none" stroke="midnightblue" d="M1132.78,-117.483C1135.56,-116.962 1138.31,-116.463 1141,-116 1253.67,-96.5912 1286.43,-104.772 1401.32,-80.13"/>
<polygon fill="midnightblue" stroke="midnightblue" points="1402.18,-83.5239 1411.21,-77.9726 1400.69,-76.6848 1402.18,-83.5239"/>
</g>
<!-- Node37&#45;&gt;Node20 -->
<g id="edge84" class="edge"><title>Node37&#45;&gt;Node20</title>
<path fill="none" stroke="midnightblue" d="M1097.17,-116.362C1104.15,-108.268 1113.92,-96.9318 1122.16,-87.3796"/>
<polygon fill="midnightblue" stroke="midnightblue" points="1125.01,-89.4301 1128.89,-79.5707 1119.71,-84.8595 1125.01,-89.4301"/>
</g>
<!-- Node38&#45;&gt;Node10 -->
<g id="edge90" class="edge"><title>Node38&#45;&gt;Node10</title>
<path fill="none" stroke="midnightblue" d="M1359.79,-116.362C1374.56,-107.532 1395.78,-94.844 1412.54,-84.8224"/>
<polygon fill="midnightblue" stroke="midnightblue" points="1414.53,-87.7066 1421.32,-79.5707 1410.94,-81.6987 1414.53,-87.7066"/>
</g>
<!-- Node39&#45;&gt;Node10 -->
<g id="edge94" class="edge"><title>Node39&#45;&gt;Node10</title>
<path fill="none" stroke="midnightblue" d="M1586.4,-116.497C1555.37,-106.497 1508.71,-91.4623 1476.23,-80.996"/>
<polygon fill="midnightblue" stroke="midnightblue" points="1477.23,-77.6409 1466.64,-77.9052 1475.08,-84.3035 1477.23,-77.6409"/>
</g>
<!-- Node39&#45;&gt;Node11 -->
<g id="edge96" class="edge"><title>Node39&#45;&gt;Node11</title>
<path fill="none" stroke="midnightblue" d="M1603.59,-116.362C1591.04,-107.696 1573.11,-95.3126 1558.73,-85.3819"/>
<polygon fill="midnightblue" stroke="midnightblue" points="1560.53,-82.3725 1550.31,-79.5707 1556.55,-88.1327 1560.53,-82.3725"/>
</g>
<!-- Node40&#45;&gt;Node10 -->
<g id="edge100" class="edge"><title>Node40&#45;&gt;Node10</title>
<path fill="none" stroke="midnightblue" d="M1468.4,-116.362C1463.53,-108.513 1456.76,-97.6159 1450.95,-88.2527"/>
<polygon fill="midnightblue" stroke="midnightblue" points="1453.81,-86.2213 1445.56,-79.5707 1447.86,-89.9129 1453.81,-86.2213"/>
</g>
<!-- Node41&#45;&gt;Node23 -->
<g id="edge104" class="edge"><title>Node41&#45;&gt;Node23</title>
<path fill="none" stroke="midnightblue" d="M2469.98,-117.49C2409.5,-107.42 2317.73,-91.6702 2268.07,-79.9806"/>
<polygon fill="midnightblue" stroke="midnightblue" points="2268.69,-76.5279 2258.14,-77.5513 2267.02,-83.3274 2268.69,-76.5279"/>
</g>
<!-- Node41&#45;&gt;Node24 -->
<g id="edge108" class="edge"><title>Node41&#45;&gt;Node24</title>
<path fill="none" stroke="midnightblue" d="M2540.66,-116.362C2550.67,-107.941 2564.87,-96.0105 2576.5,-86.2308"/>
<polygon fill="midnightblue" stroke="midnightblue" points="2579.02,-88.6844 2584.42,-79.5707 2574.52,-83.326 2579.02,-88.6844"/>
</g>
<!-- Node41&#45;&gt;Node25 -->
<g id="edge106" class="edge"><title>Node41&#45;&gt;Node25</title>
<path fill="none" stroke="midnightblue" d="M2517.18,-116.362C2508.78,-108.104 2496.95,-96.4725 2487.11,-86.8029"/>
<polygon fill="midnightblue" stroke="midnightblue" points="2489.34,-84.0851 2479.75,-79.5707 2484.43,-89.077 2489.34,-84.0851"/>
</g>
<!-- Node41&#45;&gt;Node27 -->
<g id="edge110" class="edge"><title>Node41&#45;&gt;Node27</title>
<path fill="none" stroke="midnightblue" d="M2526.51,-116.178C2524.26,-102.117 2519.12,-77.107 2509,-58 2503.38,-47.3793 2495,-37.0435 2487.37,-28.7814"/>
<polygon fill="midnightblue" stroke="midnightblue" points="2489.85,-26.3159 2480.39,-21.5539 2484.82,-31.1786 2489.85,-26.3159"/>
</g>
<!-- Node42&#45;&gt;Node23 -->
<g id="edge114" class="edge"><title>Node42&#45;&gt;Node23</title>
<path fill="none" stroke="midnightblue" d="M2114.26,-116.497C2137.85,-107.06 2172.65,-93.139 2198.49,-82.8052"/>
<polygon fill="midnightblue" stroke="midnightblue" points="2199.92,-86.0008 2207.91,-79.0371 2197.32,-79.5014 2199.92,-86.0008"/>
</g>
<!-- Node42&#45;&gt;Node27 -->
<g id="edge116" class="edge"><title>Node42&#45;&gt;Node27</title>
<path fill="none" stroke="midnightblue" d="M2101.12,-116.471C2121.03,-101.066 2160.62,-72.6314 2199,-58 2277.98,-27.8863 2377.37,-16.9336 2430.81,-13.0503"/>
<polygon fill="midnightblue" stroke="midnightblue" points="2431.12,-16.5369 2440.86,-12.3643 2430.65,-9.55317 2431.12,-16.5369"/>
</g>
<!-- Node43&#45;&gt;Node22 -->
<g id="edge120" class="edge"><title>Node43&#45;&gt;Node22</title>
<path fill="none" stroke="midnightblue" d="M3032.2,-116.497C2982.97,-106.113 2907.99,-90.2991 2858.25,-79.81"/>
<polygon fill="midnightblue" stroke="midnightblue" points="2858.86,-76.3605 2848.35,-77.7214 2857.41,-83.2099 2858.86,-76.3605"/>
</g>
<!-- Node43&#45;&gt;Node27 -->
<g id="edge122" class="edge"><title>Node43&#45;&gt;Node27</title>
<path fill="none" stroke="midnightblue" d="M3058.17,-116.442C3022.25,-101 2951.75,-72.52 2889,-58 2750.86,-26.035 2581.95,-15.5469 2507.44,-12.3257"/>
<polygon fill="midnightblue" stroke="midnightblue" points="2507.28,-8.81635 2497.14,-11.9015 2506.99,-15.8104 2507.28,-8.81635"/>
</g>
<!-- Node44&#45;&gt;Node22 -->
<g id="edge126" class="edge"><title>Node44&#45;&gt;Node22</title>
<path fill="none" stroke="midnightblue" d="M2690.72,-116.497C2713.29,-107.275 2746.36,-93.7695 2771.46,-83.5153"/>
<polygon fill="midnightblue" stroke="midnightblue" points="2773.06,-86.6427 2781,-79.6212 2770.42,-80.1624 2773.06,-86.6427"/>
</g>
<!-- Node44&#45;&gt;Node24 -->
<g id="edge128" class="edge"><title>Node44&#45;&gt;Node24</title>
<path fill="none" stroke="midnightblue" d="M2652.53,-116.362C2642.65,-107.941 2628.67,-96.0105 2617.2,-86.2308"/>
<polygon fill="midnightblue" stroke="midnightblue" points="2619.27,-83.3972 2609.39,-79.5707 2614.73,-88.7231 2619.27,-83.3972"/>
</g>
<!-- Node44&#45;&gt;Node27 -->
<g id="edge130" class="edge"><title>Node44&#45;&gt;Node27</title>
<path fill="none" stroke="midnightblue" d="M2665.17,-116.277C2664.79,-101.152 2661.8,-73.6545 2646,-58 2626.53,-38.7032 2552.96,-24.0759 2507.03,-16.5841"/>
<polygon fill="midnightblue" stroke="midnightblue" points="2507.54,-13.1216 2497.11,-15.0077 2506.44,-20.0347 2507.54,-13.1216"/>
</g>
<!-- Node45&#45;&gt;Node23 -->
<g id="edge134" class="edge"><title>Node45&#45;&gt;Node23</title>
<path fill="none" stroke="midnightblue" d="M1986.51,-116.497C2047.85,-104.677 2145.69,-85.8233 2197.74,-75.7938"/>
<polygon fill="midnightblue" stroke="midnightblue" points="2198.66,-79.1807 2207.82,-73.8517 2197.34,-72.3071 2198.66,-79.1807"/>
</g>
<!-- Node45&#45;&gt;Node27 -->
<g id="edge136" class="edge"><title>Node45&#45;&gt;Node27</title>
<path fill="none" stroke="midnightblue" d="M1960.92,-116.387C2002.76,-101.397 2082.87,-74.0619 2153,-58 2251.95,-35.3394 2370.92,-21.0583 2430.72,-14.757"/>
<polygon fill="midnightblue" stroke="midnightblue" points="2431.24,-18.221 2440.83,-13.7081 2430.52,-11.2584 2431.24,-18.221"/>
</g>
<!-- Node46&#45;&gt;Node22 -->
<g id="edge140" class="edge"><title>Node46&#45;&gt;Node22</title>
<path fill="none" stroke="midnightblue" d="M2807,-116.362C2807,-108.922 2807,-98.7427 2807,-89.7276"/>
<polygon fill="midnightblue" stroke="midnightblue" points="2810.5,-89.5706 2807,-79.5707 2803.5,-89.5707 2810.5,-89.5706"/>
</g>
<!-- Node46&#45;&gt;Node24 -->
<g id="edge142" class="edge"><title>Node46&#45;&gt;Node24</title>
<path fill="none" stroke="midnightblue" d="M2768.97,-116.497C2734.14,-106.877 2682.44,-92.5981 2644.83,-82.209"/>
<polygon fill="midnightblue" stroke="midnightblue" points="2645.67,-78.8117 2635.1,-79.5231 2643.81,-85.5591 2645.67,-78.8117"/>
</g>
<!-- Node46&#45;&gt;Node27 -->
<g id="edge144" class="edge"><title>Node46&#45;&gt;Node27</title>
<path fill="none" stroke="midnightblue" d="M2788.42,-116.251C2761.99,-101.346 2711.66,-74.3901 2666,-58 2612.27,-38.7111 2547.45,-24.9835 2507.22,-17.522"/>
<polygon fill="midnightblue" stroke="midnightblue" points="2507.76,-14.0632 2497.3,-15.7163 2506.51,-20.9501 2507.76,-14.0632"/>
</g>
<!-- Node47&#45;&gt;Node22 -->
<g id="edge148" class="edge"><title>Node47&#45;&gt;Node22</title>
<path fill="none" stroke="midnightblue" d="M2921.65,-116.497C2899.39,-107.275 2866.79,-93.7695 2842.04,-83.5153"/>
<polygon fill="midnightblue" stroke="midnightblue" points="2843.22,-80.2152 2832.64,-79.6212 2840.54,-86.6822 2843.22,-80.2152"/>
</g>
<!-- Node47&#45;&gt;Node27 -->
<g id="edge150" class="edge"><title>Node47&#45;&gt;Node27</title>
<path fill="none" stroke="midnightblue" d="M2937.1,-116.429C2921.67,-100.699 2890.18,-71.5343 2857,-58 2794.05,-32.3213 2591.91,-18.0451 2507.06,-13.0546"/>
<polygon fill="midnightblue" stroke="midnightblue" points="2507.26,-9.5604 2497.07,-12.4785 2506.85,-16.5488 2507.26,-9.5604"/>
</g>
<!-- Node48&#45;&gt;Node23 -->
<g id="edge154" class="edge"><title>Node48&#45;&gt;Node23</title>
<path fill="none" stroke="midnightblue" d="M2249.33,-116.362C2246.71,-108.758 2243.1,-98.294 2239.94,-89.1349"/>
<polygon fill="midnightblue" stroke="midnightblue" points="2243.21,-87.8834 2236.65,-79.5707 2236.6,-90.1654 2243.21,-87.8834"/>
</g>
<!-- Node48&#45;&gt;Node26 -->
<g id="edge156" class="edge"><title>Node48&#45;&gt;Node26</title>
<path fill="none" stroke="midnightblue" d="M2263.45,-116.362C2271.57,-108.104 2283,-96.4725 2292.5,-86.8029"/>
<polygon fill="midnightblue" stroke="midnightblue" points="2295.1,-89.1562 2299.61,-79.5707 2290.11,-84.2497 2295.1,-89.1562"/>
</g>
<!-- Node48&#45;&gt;Node27 -->
<g id="edge158" class="edge"><title>Node48&#45;&gt;Node27</title>
<path fill="none" stroke="midnightblue" d="M2277.16,-116.438C2297.62,-107.308 2327.58,-93.4909 2353,-80 2384.98,-63.0272 2420.6,-41.4107 2443.83,-26.9366"/>
<polygon fill="midnightblue" stroke="midnightblue" points="2445.77,-29.8519 2452.39,-21.5778 2442.06,-23.9193 2445.77,-29.8519"/>
</g>
<!-- Node49&#45;&gt;Node28 -->
<g id="edge162" class="edge"><title>Node49&#45;&gt;Node28</title>
<path fill="none" stroke="midnightblue" d="M1773,-116.362C1773,-108.922 1773,-98.7427 1773,-89.7276"/>
<polygon fill="midnightblue" stroke="midnightblue" points="1776.5,-89.5706 1773,-79.5707 1769.5,-89.5707 1776.5,-89.5706"/>
</g>
</g>
</svg>
