<?xml version="1.0" encoding="UTF-8" standalone="no"?>
<!DOCTYPE svg PUBLIC "-//W3C//DTD SVG 1.1//EN"
 "http://www.w3.org/Graphics/SVG/1.1/DTD/svg11.dtd">
<!-- Generated by graphviz version 2.26.3 (20100126.1600)
 -->
<!-- Title: G Pages: 1 -->
<svg width="214pt" height="88pt"
 viewBox="0.00 0.00 214.00 88.00" xmlns="http://www.w3.org/2000/svg" xmlns:xlink="http://www.w3.org/1999/xlink">
<g id="graph1" class="graph" transform="scale(1 1) rotate(0) translate(4 84)">
<title>G</title>
<polygon fill="white" stroke="white" points="-4,5 -4,-84 211,-84 211,5 -4,5"/>
<!-- Node1 -->
<g id="node1" class="node"><title>Node1</title>
<polygon fill="#bfbfbf" stroke="black" points="45,-58.5 45,-79.5 145,-79.5 145,-58.5 45,-58.5"/>
<text text-anchor="middle" x="95" y="-66.5" font-family="DejaVuSans" font-size="10.00">src/MainWindow.h</text>
</g>
<!-- Node2 -->
<g id="node3" class="node"><title>Node2</title>
<a xlink:href="main_8cpp.html" target="_top" xlink:title="src/main.cpp">
<polygon fill="white" stroke="black" points="0,-0.5 0,-21.5 78,-21.5 78,-0.5 0,-0.5"/>
<text text-anchor="middle" x="39" y="-8.5" font-family="DejaVuSans" font-size="10.00">src/main.cpp</text>
</a>
</g>
<!-- Node1&#45;&gt;Node2 -->
<g id="edge2" class="edge"><title>Node1&#45;&gt;Node2</title>
<path fill="none" stroke="midnightblue" d="M77.7346,-51.118C68.3882,-41.4377 57.1612,-29.8098 49.2061,-21.5707"/>
<polygon fill="midnightblue" stroke="midnightblue" points="75.2648,-53.599 84.7287,-58.3619 80.3007,-48.7368 75.2648,-53.599"/>
</g>
<!-- Node3 -->
<g id="node5" class="node"><title>Node3</title>
<a xlink:href="_main_window_8cpp.html" target="_top" xlink:title="src/MainWindow.cpp">
<polygon fill="white" stroke="black" points="95.5,-0.5 95.5,-21.5 206.5,-21.5 206.5,-0.5 95.5,-0.5"/>
<text text-anchor="middle" x="151" y="-8.5" font-family="DejaVuSans" font-size="10.00">src/MainWindow.cpp</text>
</a>
</g>
<!-- Node1&#45;&gt;Node3 -->
<g id="edge4" class="edge"><title>Node1&#45;&gt;Node3</title>
<path fill="none" stroke="midnightblue" d="M112.265,-51.118C121.612,-41.4377 132.839,-29.8098 140.794,-21.5707"/>
<polygon fill="midnightblue" stroke="midnightblue" points="109.699,-48.7368 105.271,-58.3619 114.735,-53.599 109.699,-48.7368"/>
</g>
</g>
</svg>
