<?xml version="1.0" encoding="UTF-8" standalone="no"?>
<!DOCTYPE svg PUBLIC "-//W3C//DTD SVG 1.1//EN"
 "http://www.w3.org/Graphics/SVG/1.1/DTD/svg11.dtd">
<!-- Generated by graphviz version 2.26.3 (20100126.1600)
 -->
<!-- Title: G Pages: 1 -->
<svg width="3256pt" height="262pt"
 viewBox="0.00 0.00 3256.00 262.00" xmlns="http://www.w3.org/2000/svg" xmlns:xlink="http://www.w3.org/1999/xlink">
<g id="graph1" class="graph" transform="scale(1 1) rotate(0) translate(4 258)">
<title>G</title>
<polygon fill="white" stroke="white" points="-4,5 -4,-258 3253,-258 3253,5 -4,5"/>
<!-- Node1 -->
<g id="node1" class="node"><title>Node1</title>
<polygon fill="#bfbfbf" stroke="black" points="2024.5,-232.5 2024.5,-253.5 2135.5,-253.5 2135.5,-232.5 2024.5,-232.5"/>
<text text-anchor="middle" x="2080" y="-240.5" font-family="DejaVuSans" font-size="10.00">src/MainWindow.cpp</text>
</g>
<!-- Node2 -->
<g id="node3" class="node"><title>Node2</title>
<polygon fill="white" stroke="#bfbfbf" points="-0.5,-174.5 -0.5,-195.5 76.5,-195.5 76.5,-174.5 -0.5,-174.5"/>
<text text-anchor="middle" x="38" y="-182.5" font-family="DejaVuSans" font-size="10.00">QCloseEvent</text>
</g>
<!-- Node1&#45;&gt;Node2 -->
<g id="edge2" class="edge"><title>Node1&#45;&gt;Node2</title>
<path fill="none" stroke="midnightblue" d="M2024.18,-242.373C1725.89,-238.93 324.968,-221.591 86.7644,-195.894"/>
<polygon fill="midnightblue" stroke="midnightblue" points="86.9532,-192.392 76.6135,-194.703 86.1376,-199.344 86.9532,-192.392"/>
</g>
<!-- Node3 -->
<g id="node5" class="node"><title>Node3</title>
<polygon fill="white" stroke="#bfbfbf" points="94,-174.5 94,-195.5 132,-195.5 132,-174.5 94,-174.5"/>
<text text-anchor="middle" x="113" y="-182.5" font-family="DejaVuSans" font-size="10.00">QDir</text>
</g>
<!-- Node1&#45;&gt;Node3 -->
<g id="edge4" class="edge"><title>Node1&#45;&gt;Node3</title>
<path fill="none" stroke="midnightblue" d="M2024.39,-242.633C1727.41,-240.541 334.997,-229.031 146,-196 144.728,-195.778 143.439,-195.516 142.144,-195.223"/>
<polygon fill="midnightblue" stroke="midnightblue" points="142.867,-191.791 132.296,-192.495 140.999,-198.537 142.867,-191.791"/>
</g>
<!-- Node4 -->
<g id="node7" class="node"><title>Node4</title>
<polygon fill="white" stroke="#bfbfbf" points="178.5,-0.5 178.5,-21.5 217.5,-21.5 217.5,-0.5 178.5,-0.5"/>
<text text-anchor="middle" x="198" y="-8.5" font-family="DejaVuSans" font-size="10.00">QFile</text>
</g>
<!-- Node1&#45;&gt;Node4 -->
<g id="edge6" class="edge"><title>Node1&#45;&gt;Node4</title>
<path fill="none" stroke="midnightblue" d="M2024.15,-242.249C1765.22,-238.366 680.436,-217.56 352,-138 282.129,-121.075 242.991,-138.354 201,-80 191.178,-66.3501 191.217,-46.9467 193.261,-32.1908"/>
<polygon fill="midnightblue" stroke="midnightblue" points="196.771,-32.4448 195.085,-21.9851 189.88,-31.2135 196.771,-32.4448"/>
</g>
<!-- Node5 -->
<g id="node9" class="node"><title>Node5</title>
<polygon fill="white" stroke="#bfbfbf" points="2361.5,-174.5 2361.5,-195.5 2430.5,-195.5 2430.5,-174.5 2361.5,-174.5"/>
<text text-anchor="middle" x="2396" y="-182.5" font-family="DejaVuSans" font-size="10.00">QFileDialog</text>
</g>
<!-- Node1&#45;&gt;Node5 -->
<g id="edge8" class="edge"><title>Node1&#45;&gt;Node5</title>
<path fill="none" stroke="midnightblue" d="M2135.59,-234.111C2189.9,-225.225 2274.84,-210.787 2348,-196 2349.09,-195.78 2350.19,-195.554 2351.3,-195.323"/>
<polygon fill="midnightblue" stroke="midnightblue" points="2352.4,-198.668 2361.44,-193.145 2350.93,-191.824 2352.4,-198.668"/>
</g>
<!-- Node6 -->
<g id="node11" class="node"><title>Node6</title>
<polygon fill="white" stroke="#bfbfbf" points="2527.5,-116.5 2527.5,-137.5 2612.5,-137.5 2612.5,-116.5 2527.5,-116.5"/>
<text text-anchor="middle" x="2570" y="-124.5" font-family="DejaVuSans" font-size="10.00">QMessageBox</text>
</g>
<!-- Node1&#45;&gt;Node6 -->
<g id="edge10" class="edge"><title>Node1&#45;&gt;Node6</title>
<path fill="none" stroke="midnightblue" d="M2135.55,-237.095C2184.08,-230.723 2255.84,-218.343 2315,-196 2333.26,-189.105 2334.8,-181.04 2353,-174 2368.21,-168.118 2458.12,-149.478 2517.33,-137.515"/>
<polygon fill="midnightblue" stroke="midnightblue" points="2518.17,-140.917 2527.28,-135.509 2516.79,-134.055 2518.17,-140.917"/>
</g>
<!-- Node7 -->
<g id="node13" class="node"><title>Node7</title>
<polygon fill="white" stroke="#bfbfbf" points="2448,-174.5 2448,-195.5 2524,-195.5 2524,-174.5 2448,-174.5"/>
<text text-anchor="middle" x="2486" y="-182.5" font-family="DejaVuSans" font-size="10.00">QPrintDialog</text>
</g>
<!-- Node1&#45;&gt;Node7 -->
<g id="edge12" class="edge"><title>Node1&#45;&gt;Node7</title>
<path fill="none" stroke="midnightblue" d="M2135.62,-237.458C2204.33,-230.225 2324.99,-216.265 2437.67,-196.107"/>
<polygon fill="midnightblue" stroke="midnightblue" points="2438.63,-199.49 2447.85,-194.265 2437.38,-192.602 2438.63,-199.49"/>
</g>
<!-- Node8 -->
<g id="node15" class="node"><title>Node8</title>
<polygon fill="white" stroke="#bfbfbf" points="2542,-174.5 2542,-195.5 2598,-195.5 2598,-174.5 2542,-174.5"/>
<text text-anchor="middle" x="2570" y="-182.5" font-family="DejaVuSans" font-size="10.00">QPrinter</text>
</g>
<!-- Node1&#45;&gt;Node8 -->
<g id="edge14" class="edge"><title>Node1&#45;&gt;Node8</title>
<path fill="none" stroke="midnightblue" d="M2135.58,-240.558C2219.58,-236.139 2383.88,-224.659 2531.69,-195.96"/>
<polygon fill="midnightblue" stroke="midnightblue" points="2532.72,-199.325 2541.85,-193.954 2531.36,-192.457 2532.72,-199.325"/>
</g>
<!-- Node9 -->
<g id="node17" class="node"><title>Node9</title>
<polygon fill="white" stroke="#bfbfbf" points="2615.5,-174.5 2615.5,-195.5 2666.5,-195.5 2666.5,-174.5 2615.5,-174.5"/>
<text text-anchor="middle" x="2641" y="-182.5" font-family="DejaVuSans" font-size="10.00">QTimer</text>
</g>
<!-- Node1&#45;&gt;Node9 -->
<g id="edge16" class="edge"><title>Node1&#45;&gt;Node9</title>
<path fill="none" stroke="midnightblue" d="M2135.59,-242.118C2230.55,-239.726 2429.98,-230.849 2605.26,-196.019"/>
<polygon fill="midnightblue" stroke="midnightblue" points="2606.06,-199.427 2615.17,-194.016 2604.68,-192.566 2606.06,-199.427"/>
</g>
<!-- Node10 -->
<g id="node19" class="node"><title>Node10</title>
<polygon fill="white" stroke="#bfbfbf" points="2684,-174.5 2684,-195.5 2740,-195.5 2740,-174.5 2684,-174.5"/>
<text text-anchor="middle" x="2712" y="-182.5" font-family="DejaVuSans" font-size="10.00">QDebug</text>
</g>
<!-- Node1&#45;&gt;Node10 -->
<g id="edge18" class="edge"><title>Node1&#45;&gt;Node10</title>
<path fill="none" stroke="midnightblue" d="M2135.94,-240.087C2259.83,-233.397 2555.13,-216.085 2673.94,-195.808"/>
<polygon fill="midnightblue" stroke="midnightblue" points="2674.64,-199.237 2683.87,-194.027 2673.41,-192.347 2674.64,-199.237"/>
</g>
<!-- Node11 -->
<g id="node21" class="node"><title>Node11</title>
<a xlink:href="_creation_8h.html" target="_top" xlink:title="Calc/Creation.h">
<polygon fill="white" stroke="black" points="818.5,-116.5 818.5,-137.5 907.5,-137.5 907.5,-116.5 818.5,-116.5"/>
<text text-anchor="middle" x="863" y="-124.5" font-family="DejaVuSans" font-size="10.00">Calc/Creation.h</text>
</a>
</g>
<!-- Node1&#45;&gt;Node11 -->
<g id="edge20" class="edge"><title>Node1&#45;&gt;Node11</title>
<path fill="none" stroke="midnightblue" d="M2024.36,-241.351C1897.53,-237.209 1577.32,-224.586 1311,-196 1168.33,-180.686 1001.62,-152.182 917.494,-137.047"/>
<polygon fill="midnightblue" stroke="midnightblue" points="918.114,-133.603 907.651,-135.269 916.87,-140.491 918.114,-133.603"/>
</g>
<!-- Node16 -->
<g id="node31" class="node"><title>Node16</title>
<a xlink:href="_config_8h.html" target="_top" xlink:title="Config/Config.h">
<polygon fill="white" stroke="black" points="2035.5,-174.5 2035.5,-195.5 2124.5,-195.5 2124.5,-174.5 2035.5,-174.5"/>
<text text-anchor="middle" x="2080" y="-182.5" font-family="DejaVuSans" font-size="10.00">Config/Config.h</text>
</a>
</g>
<!-- Node1&#45;&gt;Node16 -->
<g id="edge30" class="edge"><title>Node1&#45;&gt;Node16</title>
<path fill="none" stroke="midnightblue" d="M2080,-232.362C2080,-224.922 2080,-214.743 2080,-205.728"/>
<polygon fill="midnightblue" stroke="midnightblue" points="2083.5,-205.571 2080,-195.571 2076.5,-205.571 2083.5,-205.571"/>
</g>
<!-- Node20 -->
<g id="node39" class="node"><title>Node20</title>
<a xlink:href="cv___trait_8h.html" target="_top" xlink:title="Datatypes/cv_Trait.h">
<polygon fill="white" stroke="black" points="1905.5,-174.5 1905.5,-195.5 2018.5,-195.5 2018.5,-174.5 1905.5,-174.5"/>
<text text-anchor="middle" x="1962" y="-182.5" font-family="DejaVuSans" font-size="10.00">Datatypes/cv_Trait.h</text>
</a>
</g>
<!-- Node1&#45;&gt;Node20 -->
<g id="edge38" class="edge"><title>Node1&#45;&gt;Node20</title>
<path fill="none" stroke="midnightblue" d="M2058.63,-232.497C2040.2,-223.438 2013.36,-210.246 1992.64,-200.063"/>
<polygon fill="midnightblue" stroke="midnightblue" points="1994.13,-196.891 1983.61,-195.621 1991.04,-203.174 1994.13,-196.891"/>
</g>
<!-- Node27 -->
<g id="node61" class="node"><title>Node27</title>
<a xlink:href="_exception_8h_source.html" target="_top" xlink:title="Exceptions/Exception.h">
<polygon fill="white" stroke="black" points="1599.5,-116.5 1599.5,-137.5 1726.5,-137.5 1726.5,-116.5 1599.5,-116.5"/>
<text text-anchor="middle" x="1663" y="-124.5" font-family="DejaVuSans" font-size="10.00">Exceptions/Exception.h</text>
</a>
</g>
<!-- Node1&#45;&gt;Node27 -->
<g id="edge68" class="edge"><title>Node1&#45;&gt;Node27</title>
<path fill="none" stroke="midnightblue" d="M2024.46,-237.119C1949.36,-228.709 1819.69,-212.44 1775,-196 1740.9,-183.456 1705.93,-159.857 1684.34,-143.787"/>
<polygon fill="midnightblue" stroke="midnightblue" points="1686.3,-140.878 1676.22,-137.622 1682.07,-146.455 1686.3,-140.878"/>
</g>
<!-- Node31 -->
<g id="node71" class="node"><title>Node31</title>
<a xlink:href="_read_xml_template_8h.html" target="_top" xlink:title="IO/ReadXmlTemplate.h">
<polygon fill="white" stroke="black" points="360.5,-116.5 360.5,-137.5 483.5,-137.5 483.5,-116.5 360.5,-116.5"/>
<text text-anchor="middle" x="422" y="-124.5" font-family="DejaVuSans" font-size="10.00">IO/ReadXmlTemplate.h</text>
</a>
</g>
<!-- Node1&#45;&gt;Node31 -->
<g id="edge80" class="edge"><title>Node1&#45;&gt;Node31</title>
<path fill="none" stroke="midnightblue" d="M2024.47,-241.067C1879.84,-235.844 1479.61,-220.193 1147,-196 907.275,-178.563 623.794,-148.974 493.734,-134.896"/>
<polygon fill="midnightblue" stroke="midnightblue" points="493.828,-131.386 483.509,-133.787 493.073,-138.345 493.828,-131.386"/>
</g>
<!-- Node35 -->
<g id="node85" class="node"><title>Node35</title>
<a xlink:href="_settings_8h.html" target="_top" xlink:title="IO/Settings.h">
<polygon fill="white" stroke="black" points="2758,-174.5 2758,-195.5 2836,-195.5 2836,-174.5 2758,-174.5"/>
<text text-anchor="middle" x="2797" y="-182.5" font-family="DejaVuSans" font-size="10.00">IO/Settings.h</text>
</a>
</g>
<!-- Node1&#45;&gt;Node35 -->
<g id="edge100" class="edge"><title>Node1&#45;&gt;Node35</title>
<path fill="none" stroke="midnightblue" d="M2135.82,-242C2249.41,-239.332 2515.6,-229.859 2747.82,-195.979"/>
<polygon fill="midnightblue" stroke="midnightblue" points="2748.42,-199.428 2757.8,-194.504 2747.4,-192.503 2748.42,-199.428"/>
</g>
<!-- Node37 -->
<g id="node89" class="node"><title>Node37</title>
<a xlink:href="_storage_character_8h.html" target="_top" xlink:title="Storage/StorageCharacter.h">
<polygon fill="white" stroke="black" points="1206,-116.5 1206,-137.5 1358,-137.5 1358,-116.5 1206,-116.5"/>
<text text-anchor="middle" x="1282" y="-124.5" font-family="DejaVuSans" font-size="10.00">Storage/StorageCharacter.h</text>
</a>
</g>
<!-- Node1&#45;&gt;Node37 -->
<g id="edge104" class="edge"><title>Node1&#45;&gt;Node37</title>
<path fill="none" stroke="midnightblue" d="M2024.43,-241.239C1926.64,-237.449 1717.7,-226.262 1544,-196 1465.37,-182.301 1375.87,-156.447 1324.45,-140.57"/>
<polygon fill="midnightblue" stroke="midnightblue" points="1325.28,-137.162 1314.69,-137.534 1323.2,-143.846 1325.28,-137.162"/>
</g>
<!-- Node40 -->
<g id="node98" class="node"><title>Node40</title>
<a xlink:href="_storage_template_8h.html" target="_top" xlink:title="StorageTemplate.h">
<polygon fill="white" stroke="black" points="1493.5,-58.5 1493.5,-79.5 1600.5,-79.5 1600.5,-58.5 1493.5,-58.5"/>
<text text-anchor="middle" x="1547" y="-66.5" font-family="DejaVuSans" font-size="10.00">StorageTemplate.h</text>
</a>
</g>
<!-- Node1&#45;&gt;Node40 -->
<g id="edge136" class="edge"><title>Node1&#45;&gt;Node40</title>
<path fill="none" stroke="midnightblue" d="M2024.32,-240.393C1953.61,-236.004 1828.36,-224.611 1725,-196 1662.46,-178.687 1640.39,-180.094 1591,-138 1575.21,-124.544 1563.12,-103.99 1555.64,-88.8132"/>
<polygon fill="midnightblue" stroke="midnightblue" points="1558.81,-87.322 1551.4,-79.7448 1552.47,-90.2861 1558.81,-87.322"/>
</g>
<!-- Node44 -->
<g id="node113" class="node"><title>Node44</title>
<a xlink:href="_trait_line_8h.html" target="_top" xlink:title="Widgets/TraitLine.h">
<polygon fill="white" stroke="red" points="1783.5,-174.5 1783.5,-195.5 1888.5,-195.5 1888.5,-174.5 1783.5,-174.5"/>
<text text-anchor="middle" x="1836" y="-182.5" font-family="DejaVuSans" font-size="10.00">Widgets/TraitLine.h</text>
</a>
</g>
<!-- Node1&#45;&gt;Node44 -->
<g id="edge138" class="edge"><title>Node1&#45;&gt;Node44</title>
<path fill="none" stroke="midnightblue" d="M2035.81,-232.497C1994.92,-222.775 1933.99,-208.294 1890.18,-197.879"/>
<polygon fill="midnightblue" stroke="midnightblue" points="1890.81,-194.431 1880.27,-195.523 1889.19,-201.241 1890.81,-194.431"/>
</g>
<!-- Node46 -->
<g id="node118" class="node"><title>Node46</title>
<a xlink:href="_message_box_8h.html" target="_top" xlink:title="Widgets/Dialogs/MessageBox.h">
<polygon fill="white" stroke="red" points="2141.5,-174.5 2141.5,-195.5 2306.5,-195.5 2306.5,-174.5 2141.5,-174.5"/>
<text text-anchor="middle" x="2224" y="-182.5" font-family="DejaVuSans" font-size="10.00">Widgets/Dialogs/MessageBox.h</text>
</a>
</g>
<!-- Node1&#45;&gt;Node46 -->
<g id="edge144" class="edge"><title>Node1&#45;&gt;Node46</title>
<path fill="none" stroke="midnightblue" d="M2106.08,-232.497C2129.07,-223.234 2162.8,-209.65 2188.3,-199.379"/>
<polygon fill="midnightblue" stroke="midnightblue" points="2189.66,-202.604 2197.63,-195.621 2187.05,-196.111 2189.66,-202.604"/>
</g>
<!-- Node47 -->
<g id="node122" class="node"><title>Node47</title>
<a xlink:href="_settings_dialog_8h.html" target="_top" xlink:title="Widgets/Dialogs/SettingsDialog.h">
<polygon fill="white" stroke="red" points="2854,-174.5 2854,-195.5 3028,-195.5 3028,-174.5 2854,-174.5"/>
<text text-anchor="middle" x="2941" y="-182.5" font-family="DejaVuSans" font-size="10.00">Widgets/Dialogs/SettingsDialog.h</text>
</a>
</g>
<!-- Node1&#45;&gt;Node47 -->
<g id="edge150" class="edge"><title>Node1&#45;&gt;Node47</title>
<path fill="none" stroke="midnightblue" d="M2135.75,-240.584C2260.56,-234.957 2572.17,-219.694 2843.85,-196.063"/>
<polygon fill="midnightblue" stroke="midnightblue" points="2844.24,-199.542 2853.9,-195.183 2843.63,-192.568 2844.24,-199.542"/>
</g>
<!-- Node48 -->
<g id="node124" class="node"><title>Node48</title>
<polygon fill="white" stroke="#bfbfbf" points="3046,-174.5 3046,-195.5 3134,-195.5 3134,-174.5 3046,-174.5"/>
<text text-anchor="middle" x="3090" y="-182.5" font-family="DejaVuSans" font-size="10.00">CMakeConfig.h</text>
</g>
<!-- Node1&#45;&gt;Node48 -->
<g id="edge152" class="edge"><title>Node1&#45;&gt;Node48</title>
<path fill="none" stroke="midnightblue" d="M2135.81,-241.402C2309.78,-236.242 2841.7,-219.084 3035.75,-195.949"/>
<polygon fill="midnightblue" stroke="midnightblue" points="3036.35,-199.402 3045.84,-194.701 3035.49,-192.455 3036.35,-199.402"/>
</g>
<!-- Node49 -->
<g id="node126" class="node"><title>Node49</title>
<a xlink:href="_main_window_8h.html" target="_top" xlink:title="MainWindow.h">
<polygon fill="white" stroke="red" points="1319.5,-174.5 1319.5,-195.5 1402.5,-195.5 1402.5,-174.5 1319.5,-174.5"/>
<text text-anchor="middle" x="1361" y="-182.5" font-family="DejaVuSans" font-size="10.00">MainWindow.h</text>
</a>
</g>
<!-- Node1&#45;&gt;Node49 -->
<g id="edge154" class="edge"><title>Node1&#45;&gt;Node49</title>
<path fill="none" stroke="midnightblue" d="M2024.33,-239.591C1915.06,-232.726 1664.86,-216.161 1455,-196 1441.32,-194.685 1426.53,-193.055 1412.84,-191.456"/>
<polygon fill="midnightblue" stroke="midnightblue" points="1412.95,-187.945 1402.61,-190.244 1412.13,-194.896 1412.95,-187.945"/>
</g>
<!-- Node50 -->
<g id="node131" class="node"><title>Node50</title>
<polygon fill="white" stroke="#bfbfbf" points="3152,-174.5 3152,-195.5 3248,-195.5 3248,-174.5 3152,-174.5"/>
<text text-anchor="middle" x="3200" y="-182.5" font-family="DejaVuSans" font-size="10.00">ui_MainWindow.h</text>
</g>
<!-- Node1&#45;&gt;Node50 -->
<g id="edge162" class="edge"><title>Node1&#45;&gt;Node50</title>
<path fill="none" stroke="midnightblue" d="M2135.56,-241.619C2322.08,-236.819 2925.71,-219.898 3141.88,-195.947"/>
<polygon fill="midnightblue" stroke="midnightblue" points="3142.34,-199.417 3151.88,-194.801 3141.54,-192.462 3142.34,-199.417"/>
</g>
<!-- Node12 -->
<g id="node23" class="node"><title>Node12</title>
<polygon fill="white" stroke="#bfbfbf" points="684.5,-0.5 684.5,-21.5 797.5,-21.5 797.5,-0.5 684.5,-0.5"/>
<text text-anchor="middle" x="741" y="-8.5" font-family="DejaVuSans" font-size="10.00">Datatypes/cv_Trait.h</text>
</g>
<!-- Node11&#45;&gt;Node12 -->
<g id="edge22" class="edge"><title>Node11&#45;&gt;Node12</title>
<path fill="none" stroke="midnightblue" d="M818.318,-124.981C754.923,-121.073 643.79,-110.021 619,-80 597.1,-53.4791 636.575,-35.2096 676.327,-24.1647"/>
<polygon fill="midnightblue" stroke="midnightblue" points="677.354,-27.5136 686.131,-21.5795 675.57,-20.7449 677.354,-27.5136"/>
</g>
<!-- Node13 -->
<g id="node25" class="node"><title>Node13</title>
<polygon fill="white" stroke="#bfbfbf" points="836,-58.5 836,-79.5 1000,-79.5 1000,-58.5 836,-58.5"/>
<text text-anchor="middle" x="918" y="-66.5" font-family="DejaVuSans" font-size="10.00">Datatypes/cv_CreationPoints.h</text>
</g>
<!-- Node11&#45;&gt;Node13 -->
<g id="edge24" class="edge"><title>Node11&#45;&gt;Node13</title>
<path fill="none" stroke="midnightblue" d="M873.088,-116.362C880.841,-108.186 891.73,-96.7025 900.845,-87.0907"/>
<polygon fill="midnightblue" stroke="midnightblue" points="903.635,-89.2352 907.976,-79.5707 898.555,-84.4186 903.635,-89.2352"/>
</g>
<!-- Node14 -->
<g id="node27" class="node"><title>Node14</title>
<polygon fill="white" stroke="#bfbfbf" points="628,-58.5 628,-79.5 780,-79.5 780,-58.5 628,-58.5"/>
<text text-anchor="middle" x="704" y="-66.5" font-family="DejaVuSans" font-size="10.00">Storage/StorageCharacter.h</text>
</g>
<!-- Node11&#45;&gt;Node14 -->
<g id="edge26" class="edge"><title>Node11&#45;&gt;Node14</title>
<path fill="none" stroke="midnightblue" d="M834.206,-116.497C808.509,-107.123 770.682,-93.3242 742.413,-83.0122"/>
<polygon fill="midnightblue" stroke="midnightblue" points="743.442,-79.662 732.848,-79.5231 741.043,-86.2381 743.442,-79.662"/>
</g>
<!-- Node15 -->
<g id="node29" class="node"><title>Node15</title>
<polygon fill="white" stroke="#bfbfbf" points="955.5,-0.5 955.5,-21.5 1010.5,-21.5 1010.5,-0.5 955.5,-0.5"/>
<text text-anchor="middle" x="983" y="-8.5" font-family="DejaVuSans" font-size="10.00">QObject</text>
</g>
<!-- Node11&#45;&gt;Node15 -->
<g id="edge28" class="edge"><title>Node11&#45;&gt;Node15</title>
<path fill="none" stroke="midnightblue" d="M850.233,-116.348C834.898,-102.254 812.897,-76.9787 827,-58 841.153,-38.9539 903.763,-24.6848 945.234,-17.1121"/>
<polygon fill="midnightblue" stroke="midnightblue" points="946.044,-20.5232 955.28,-15.3322 944.822,-13.6306 946.044,-20.5232"/>
</g>
<!-- Node17 -->
<g id="node33" class="node"><title>Node17</title>
<polygon fill="white" stroke="#bfbfbf" points="2182.5,-0.5 2182.5,-21.5 2235.5,-21.5 2235.5,-0.5 2182.5,-0.5"/>
<text text-anchor="middle" x="2209" y="-8.5" font-family="DejaVuSans" font-size="10.00">QString</text>
</g>
<!-- Node16&#45;&gt;Node17 -->
<g id="edge32" class="edge"><title>Node16&#45;&gt;Node17</title>
<path fill="none" stroke="midnightblue" d="M2124.53,-175.727C2127.39,-175.14 2130.24,-174.56 2133,-174 2213.81,-157.622 2262.66,-201.711 2315,-138 2348.21,-97.5829 2280.51,-50.391 2238.67,-26.5231"/>
<polygon fill="midnightblue" stroke="midnightblue" points="2240.37,-23.4634 2229.93,-21.6577 2236.97,-29.5797 2240.37,-23.4634"/>
</g>
<!-- Node18 -->
<g id="node35" class="node"><title>Node18</title>
<polygon fill="white" stroke="#bfbfbf" points="2361.5,-116.5 2361.5,-137.5 2410.5,-137.5 2410.5,-116.5 2361.5,-116.5"/>
<text text-anchor="middle" x="2386" y="-124.5" font-family="DejaVuSans" font-size="10.00">QColor</text>
</g>
<!-- Node16&#45;&gt;Node18 -->
<g id="edge34" class="edge"><title>Node16&#45;&gt;Node18</title>
<path fill="none" stroke="midnightblue" d="M2124.51,-175.632C2127.38,-175.068 2130.23,-174.519 2133,-174 2228.23,-156.152 2253.53,-159.506 2348,-138 2349.07,-137.756 2350.16,-137.5 2351.25,-137.233"/>
<polygon fill="midnightblue" stroke="midnightblue" points="2352.38,-140.555 2361.17,-134.635 2350.61,-133.784 2352.38,-140.555"/>
</g>
<!-- Node19 -->
<g id="node37" class="node"><title>Node19</title>
<polygon fill="white" stroke="#bfbfbf" points="2427.5,-116.5 2427.5,-137.5 2472.5,-137.5 2472.5,-116.5 2427.5,-116.5"/>
<text text-anchor="middle" x="2450" y="-124.5" font-family="DejaVuSans" font-size="10.00">QFont</text>
</g>
<!-- Node16&#45;&gt;Node19 -->
<g id="edge36" class="edge"><title>Node16&#45;&gt;Node19</title>
<path fill="none" stroke="midnightblue" d="M2124.77,-175.447C2127.55,-174.935 2130.31,-174.447 2133,-174 2256.17,-153.5 2292.52,-166.874 2417.53,-137.97"/>
<polygon fill="midnightblue" stroke="midnightblue" points="2418.55,-141.325 2427.48,-135.624 2416.95,-134.512 2418.55,-141.325"/>
</g>
<!-- Node20&#45;&gt;Node17 -->
<g id="edge42" class="edge"><title>Node20&#45;&gt;Node17</title>
<path fill="none" stroke="midnightblue" d="M2013.5,-174.448C2053.39,-165.433 2104.56,-151.77 2121,-138 2151.47,-112.474 2137.59,-90.126 2161,-58 2168.86,-47.2108 2179.29,-36.6731 2188.42,-28.3193"/>
<polygon fill="midnightblue" stroke="midnightblue" points="2190.85,-30.8426 2196.01,-21.5888 2186.2,-25.6056 2190.85,-30.8426"/>
</g>
<!-- Node21 -->
<g id="node41" class="node"><title>Node21</title>
<polygon fill="white" stroke="#bfbfbf" points="1919.5,-116.5 1919.5,-137.5 1968.5,-137.5 1968.5,-116.5 1919.5,-116.5"/>
<text text-anchor="middle" x="1944" y="-124.5" font-family="DejaVuSans" font-size="10.00">QFlags</text>
</g>
<!-- Node20&#45;&gt;Node21 -->
<g id="edge40" class="edge"><title>Node20&#45;&gt;Node21</title>
<path fill="none" stroke="midnightblue" d="M1958.7,-174.362C1956.34,-166.758 1953.09,-156.294 1950.25,-147.135"/>
<polygon fill="midnightblue" stroke="midnightblue" points="1953.59,-146.084 1947.28,-137.571 1946.9,-148.159 1953.59,-146.084"/>
</g>
<!-- Node22 -->
<g id="node44" class="node"><title>Node22</title>
<polygon fill="white" stroke="#bfbfbf" points="1974.5,-0.5 1974.5,-21.5 2015.5,-21.5 2015.5,-0.5 1974.5,-0.5"/>
<text text-anchor="middle" x="1995" y="-8.5" font-family="DejaVuSans" font-size="10.00">QList</text>
</g>
<!-- Node20&#45;&gt;Node22 -->
<g id="edge44" class="edge"><title>Node20&#45;&gt;Node22</title>
<path fill="none" stroke="midnightblue" d="M1965.98,-174.316C1969.35,-164.881 1974.1,-150.691 1977,-138 1985.44,-101.103 1990.61,-57.2168 1993.13,-31.8874"/>
<polygon fill="midnightblue" stroke="midnightblue" points="1996.64,-31.9335 1994.1,-21.6471 1989.67,-31.2708 1996.64,-31.9335"/>
</g>
<!-- Node23 -->
<g id="node46" class="node"><title>Node23</title>
<polygon fill="white" stroke="#bfbfbf" points="1888.5,-0.5 1888.5,-21.5 1957.5,-21.5 1957.5,-0.5 1888.5,-0.5"/>
<text text-anchor="middle" x="1923" y="-8.5" font-family="DejaVuSans" font-size="10.00">QStringList</text>
</g>
<!-- Node20&#45;&gt;Node23 -->
<g id="edge46" class="edge"><title>Node20&#45;&gt;Node23</title>
<path fill="none" stroke="midnightblue" d="M1944.5,-174.481C1932.59,-166.228 1917.82,-153.549 1911,-138 1900.22,-113.397 1922.12,-106.211 1928,-80 1930.14,-70.4592 1928.52,-67.7641 1928,-58 1927.55,-49.437 1926.63,-40.0333 1925.7,-31.9021"/>
<polygon fill="midnightblue" stroke="midnightblue" points="1929.16,-31.3069 1924.48,-21.8013 1922.21,-32.1501 1929.16,-31.3069"/>
</g>
<!-- Node24 -->
<g id="node48" class="node"><title>Node24</title>
<a xlink:href="cv___species_8h.html" target="_top" xlink:title="cv_Species.h">
<polygon fill="white" stroke="black" points="2169.5,-58.5 2169.5,-79.5 2248.5,-79.5 2248.5,-58.5 2169.5,-58.5"/>
<text text-anchor="middle" x="2209" y="-66.5" font-family="DejaVuSans" font-size="10.00">cv_Species.h</text>
</a>
</g>
<!-- Node20&#45;&gt;Node24 -->
<g id="edge48" class="edge"><title>Node20&#45;&gt;Node24</title>
<path fill="none" stroke="midnightblue" d="M2018.55,-175.342C2066.78,-166.353 2131.74,-152.236 2154,-138 2173.24,-125.698 2188.72,-104.328 2198.3,-88.6213"/>
<polygon fill="midnightblue" stroke="midnightblue" points="2201.48,-90.11 2203.48,-79.7052 2195.43,-86.5929 2201.48,-90.11"/>
</g>
<!-- Node25 -->
<g id="node51" class="node"><title>Node25</title>
<a xlink:href="cv___trait_detail_8h.html" target="_top" xlink:title="cv_TraitDetail.h">
<polygon fill="white" stroke="black" points="2023.5,-116.5 2023.5,-137.5 2112.5,-137.5 2112.5,-116.5 2023.5,-116.5"/>
<text text-anchor="middle" x="2068" y="-124.5" font-family="DejaVuSans" font-size="10.00">cv_TraitDetail.h</text>
</a>
</g>
<!-- Node20&#45;&gt;Node25 -->
<g id="edge52" class="edge"><title>Node20&#45;&gt;Node25</title>
<path fill="none" stroke="midnightblue" d="M1981.44,-174.362C1997.8,-165.409 2021.41,-152.491 2039.84,-142.406"/>
<polygon fill="midnightblue" stroke="midnightblue" points="2041.59,-145.441 2048.68,-137.571 2038.23,-139.3 2041.59,-145.441"/>
</g>
<!-- Node26 -->
<g id="node57" class="node"><title>Node26</title>
<a xlink:href="cv___abstract_trait_8h.html" target="_top" xlink:title="cv_AbstractTrait.h">
<polygon fill="white" stroke="black" points="2205.5,-116.5 2205.5,-137.5 2306.5,-137.5 2306.5,-116.5 2205.5,-116.5"/>
<text text-anchor="middle" x="2256" y="-124.5" font-family="DejaVuSans" font-size="10.00">cv_AbstractTrait.h</text>
</a>
</g>
<!-- Node20&#45;&gt;Node26 -->
<g id="edge62" class="edge"><title>Node20&#45;&gt;Node26</title>
<path fill="none" stroke="midnightblue" d="M2015.24,-174.497C2065.92,-164.499 2142.11,-149.467 2195.17,-139.001"/>
<polygon fill="midnightblue" stroke="midnightblue" points="2195.99,-142.407 2205.12,-137.037 2194.63,-135.539 2195.99,-142.407"/>
</g>
<!-- Node24&#45;&gt;Node17 -->
<g id="edge50" class="edge"><title>Node24&#45;&gt;Node17</title>
<path fill="none" stroke="midnightblue" d="M2209,-58.3619C2209,-50.9219 2209,-40.7427 2209,-31.7276"/>
<polygon fill="midnightblue" stroke="midnightblue" points="2212.5,-31.5706 2209,-21.5707 2205.5,-31.5707 2212.5,-31.5706"/>
</g>
<!-- Node25&#45;&gt;Node17 -->
<g id="edge54" class="edge"><title>Node25&#45;&gt;Node17</title>
<path fill="none" stroke="midnightblue" d="M2075.61,-116.209C2086.18,-101.734 2106.46,-75.7934 2128,-58 2142.95,-45.6526 2161.55,-34.6101 2177.15,-26.336"/>
<polygon fill="midnightblue" stroke="midnightblue" points="2179.14,-29.2497 2186.42,-21.5551 2175.93,-23.0285 2179.14,-29.2497"/>
</g>
<!-- Node25&#45;&gt;Node22 -->
<g id="edge56" class="edge"><title>Node25&#45;&gt;Node22</title>
<path fill="none" stroke="midnightblue" d="M2065.42,-116.058C2061.75,-101.868 2054.07,-76.7182 2042,-58 2034.94,-47.0497 2024.96,-36.615 2016.01,-28.3716"/>
<polygon fill="midnightblue" stroke="midnightblue" points="2018.32,-25.7424 2008.52,-21.7336 2013.68,-30.9833 2018.32,-25.7424"/>
</g>
<!-- Node25&#45;&gt;Node23 -->
<g id="edge58" class="edge"><title>Node25&#45;&gt;Node23</title>
<path fill="none" stroke="midnightblue" d="M2054.62,-116.295C2029.37,-96.0955 1974.52,-52.2158 1944.2,-27.9632"/>
<polygon fill="midnightblue" stroke="midnightblue" points="1946.34,-25.1931 1936.35,-21.6792 1941.97,-30.6592 1946.34,-25.1931"/>
</g>
<!-- Node25&#45;&gt;Node24 -->
<g id="edge60" class="edge"><title>Node25&#45;&gt;Node24</title>
<path fill="none" stroke="midnightblue" d="M2093.53,-116.497C2115.95,-107.275 2148.78,-93.7695 2173.71,-83.5153"/>
<polygon fill="midnightblue" stroke="midnightblue" points="2175.26,-86.6623 2183.18,-79.6212 2172.6,-80.1886 2175.26,-86.6623"/>
</g>
<!-- Node26&#45;&gt;Node17 -->
<g id="edge64" class="edge"><title>Node26&#45;&gt;Node17</title>
<path fill="none" stroke="midnightblue" d="M2258.73,-116.212C2261.71,-102.187 2265.08,-77.2169 2257,-58 2252.04,-46.1918 2242.5,-35.8648 2233.22,-27.9215"/>
<polygon fill="midnightblue" stroke="midnightblue" points="2235.26,-25.0721 2225.26,-21.5773 2230.9,-30.5466 2235.26,-25.0721"/>
</g>
<!-- Node26&#45;&gt;Node24 -->
<g id="edge66" class="edge"><title>Node26&#45;&gt;Node24</title>
<path fill="none" stroke="midnightblue" d="M2247.38,-116.362C2240.82,-108.268 2231.63,-96.9318 2223.89,-87.3796"/>
<polygon fill="midnightblue" stroke="midnightblue" points="2226.58,-85.1364 2217.57,-79.5707 2221.14,-89.5436 2226.58,-85.1364"/>
</g>
<!-- Node27&#45;&gt;Node12 -->
<g id="edge72" class="edge"><title>Node27&#45;&gt;Node12</title>
<path fill="none" stroke="midnightblue" d="M1608.02,-116.46C1572.2,-108.633 1524.88,-96.4634 1485,-80 1466.96,-72.554 1465.67,-63.6857 1447,-58 1416.73,-48.7824 977.855,-23.9567 807.711,-14.6181"/>
<polygon fill="midnightblue" stroke="midnightblue" points="807.802,-11.118 797.626,-14.0655 807.419,-18.1075 807.802,-11.118"/>
</g>
<!-- Node27&#45;&gt;Node17 -->
<g id="edge70" class="edge"><title>Node27&#45;&gt;Node17</title>
<path fill="none" stroke="midnightblue" d="M1712.9,-116.398C1821.5,-93.3253 2077.17,-39.0085 2172.4,-18.7753"/>
<polygon fill="midnightblue" stroke="midnightblue" points="2173.37,-22.1488 2182.42,-16.647 2171.91,-15.3017 2173.37,-22.1488"/>
</g>
<!-- Node28 -->
<g id="node65" class="node"><title>Node28</title>
<polygon fill="white" stroke="#bfbfbf" points="1617.5,-58.5 1617.5,-79.5 1742.5,-79.5 1742.5,-58.5 1617.5,-58.5"/>
<text text-anchor="middle" x="1680" y="-66.5" font-family="DejaVuSans" font-size="10.00">Datatypes/cv_Shape.h</text>
</g>
<!-- Node27&#45;&gt;Node28 -->
<g id="edge74" class="edge"><title>Node27&#45;&gt;Node28</title>
<path fill="none" stroke="midnightblue" d="M1666.12,-116.362C1668.32,-108.84 1671.35,-98.5187 1674.01,-89.4308"/>
<polygon fill="midnightblue" stroke="midnightblue" points="1677.45,-90.1514 1676.9,-79.5707 1670.73,-88.1825 1677.45,-90.1514"/>
</g>
<!-- Node29 -->
<g id="node67" class="node"><title>Node29</title>
<polygon fill="white" stroke="#bfbfbf" points="1310,-58.5 1310,-79.5 1438,-79.5 1438,-58.5 1310,-58.5"/>
<text text-anchor="middle" x="1374" y="-66.5" font-family="DejaVuSans" font-size="10.00">Datatypes/cv_Identity.h</text>
</g>
<!-- Node27&#45;&gt;Node29 -->
<g id="edge76" class="edge"><title>Node27&#45;&gt;Node29</title>
<path fill="none" stroke="midnightblue" d="M1610.66,-116.497C1561.71,-106.673 1488.55,-91.9884 1436.54,-81.5512"/>
<polygon fill="midnightblue" stroke="midnightblue" points="1436.93,-78.0592 1426.43,-79.5231 1435.55,-84.9224 1436.93,-78.0592"/>
</g>
<!-- Node30 -->
<g id="node69" class="node"><title>Node30</title>
<polygon fill="white" stroke="#bfbfbf" points="1759.5,-58.5 1759.5,-79.5 1848.5,-79.5 1848.5,-58.5 1759.5,-58.5"/>
<text text-anchor="middle" x="1804" y="-66.5" font-family="DejaVuSans" font-size="10.00">Config/Config.h</text>
</g>
<!-- Node27&#45;&gt;Node30 -->
<g id="edge78" class="edge"><title>Node27&#45;&gt;Node30</title>
<path fill="none" stroke="midnightblue" d="M1688.53,-116.497C1710.95,-107.275 1743.78,-93.7695 1768.71,-83.5153"/>
<polygon fill="midnightblue" stroke="midnightblue" points="1770.26,-86.6623 1778.18,-79.6212 1767.6,-80.1886 1770.26,-86.6623"/>
</g>
<!-- Node31&#45;&gt;Node4 -->
<g id="edge82" class="edge"><title>Node31&#45;&gt;Node4</title>
<path fill="none" stroke="midnightblue" d="M360.484,-119.894C307.822,-112.588 237.373,-99.5085 217,-80 204.002,-67.553 199.63,-47.1023 198.284,-31.6894"/>
<polygon fill="midnightblue" stroke="midnightblue" points="201.771,-31.3489 197.758,-21.5433 194.78,-31.7109 201.771,-31.3489"/>
</g>
<!-- Node31&#45;&gt;Node12 -->
<g id="edge88" class="edge"><title>Node31&#45;&gt;Node12</title>
<path fill="none" stroke="midnightblue" d="M440.604,-116.46C472.899,-98.2167 536.955,-62.2833 548,-58 588.879,-42.1472 636.757,-30.4481 674.599,-22.687"/>
<polygon fill="midnightblue" stroke="midnightblue" points="675.376,-26.1009 684.492,-20.7006 673.998,-19.2379 675.376,-26.1009"/>
</g>
<!-- Node31&#45;&gt;Node15 -->
<g id="edge90" class="edge"><title>Node31&#45;&gt;Node15</title>
<path fill="none" stroke="midnightblue" d="M446.689,-116.471C483.522,-101.198 555.352,-73.0812 619,-58 736.119,-30.2491 878.581,-17.8621 945.221,-13.2749"/>
<polygon fill="midnightblue" stroke="midnightblue" points="945.506,-16.7637 955.25,-12.6045 945.039,-9.77934 945.506,-16.7637"/>
</g>
<!-- Node32 -->
<g id="node74" class="node"><title>Node32</title>
<polygon fill="white" stroke="#bfbfbf" points="347.5,-58.5 347.5,-79.5 496.5,-79.5 496.5,-58.5 347.5,-58.5"/>
<text text-anchor="middle" x="422" y="-66.5" font-family="DejaVuSans" font-size="10.00">Storage/StorageTemplate.h</text>
</g>
<!-- Node31&#45;&gt;Node32 -->
<g id="edge84" class="edge"><title>Node31&#45;&gt;Node32</title>
<path fill="none" stroke="midnightblue" d="M422,-116.362C422,-108.922 422,-98.7427 422,-89.7276"/>
<polygon fill="midnightblue" stroke="midnightblue" points="425.5,-89.5706 422,-79.5707 418.5,-89.5707 425.5,-89.5706"/>
</g>
<!-- Node33 -->
<g id="node76" class="node"><title>Node33</title>
<polygon fill="white" stroke="#bfbfbf" points="244.5,-0.5 244.5,-21.5 375.5,-21.5 375.5,-0.5 244.5,-0.5"/>
<text text-anchor="middle" x="310" y="-8.5" font-family="DejaVuSans" font-size="10.00">Datatypes/cv_Species.h</text>
</g>
<!-- Node31&#45;&gt;Node33 -->
<g id="edge86" class="edge"><title>Node31&#45;&gt;Node33</title>
<path fill="none" stroke="midnightblue" d="M393.461,-116.45C375.793,-108.684 353.743,-96.5839 339,-80 326.773,-66.2463 319.199,-46.5925 314.872,-31.7761"/>
<polygon fill="midnightblue" stroke="midnightblue" points="318.224,-30.7627 312.274,-21.996 311.458,-32.5593 318.224,-30.7627"/>
</g>
<!-- Node34 -->
<g id="node80" class="node"><title>Node34</title>
<a xlink:href="_read_xml_8h.html" target="_top" xlink:title="ReadXml.h">
<polygon fill="white" stroke="red" points="225.5,-58.5 225.5,-79.5 292.5,-79.5 292.5,-58.5 225.5,-58.5"/>
<text text-anchor="middle" x="259" y="-66.5" font-family="DejaVuSans" font-size="10.00">ReadXml.h</text>
</a>
</g>
<!-- Node31&#45;&gt;Node34 -->
<g id="edge92" class="edge"><title>Node31&#45;&gt;Node34</title>
<path fill="none" stroke="midnightblue" d="M392.482,-116.497C366.024,-107.082 327.021,-93.2036 298,-82.8773"/>
<polygon fill="midnightblue" stroke="midnightblue" points="299.168,-79.578 288.573,-79.5231 296.821,-86.173 299.168,-79.578"/>
</g>
<!-- Node34&#45;&gt;Node4 -->
<g id="edge94" class="edge"><title>Node34&#45;&gt;Node4</title>
<path fill="none" stroke="midnightblue" d="M247.812,-58.3619C239.041,-50.0226 226.651,-38.2418 216.422,-28.5162"/>
<polygon fill="midnightblue" stroke="midnightblue" points="218.776,-25.9248 209.117,-21.5707 213.953,-30.9978 218.776,-25.9248"/>
</g>
<!-- Node34&#45;&gt;Node12 -->
<g id="edge98" class="edge"><title>Node34&#45;&gt;Node12</title>
<path fill="none" stroke="midnightblue" d="M292.846,-64.1917C307.087,-62.2086 323.841,-59.9282 339,-58 456.744,-43.0237 594.126,-27.3484 673.969,-18.4169"/>
<polygon fill="midnightblue" stroke="midnightblue" points="674.818,-21.8438 684.368,-17.2553 674.041,-14.8871 674.818,-21.8438"/>
</g>
<!-- Node34&#45;&gt;Node33 -->
<g id="edge96" class="edge"><title>Node34&#45;&gt;Node33</title>
<path fill="none" stroke="midnightblue" d="M268.354,-58.3619C275.543,-50.1861 285.641,-38.7025 294.093,-29.0907"/>
<polygon fill="midnightblue" stroke="midnightblue" points="296.73,-31.3916 300.705,-21.5707 291.473,-26.7692 296.73,-31.3916"/>
</g>
<!-- Node36 -->
<g id="node87" class="node"><title>Node36</title>
<polygon fill="white" stroke="#bfbfbf" points="2765,-116.5 2765,-137.5 2829,-137.5 2829,-116.5 2765,-116.5"/>
<text text-anchor="middle" x="2797" y="-124.5" font-family="DejaVuSans" font-size="10.00">QSettings</text>
</g>
<!-- Node35&#45;&gt;Node36 -->
<g id="edge102" class="edge"><title>Node35&#45;&gt;Node36</title>
<path fill="none" stroke="midnightblue" d="M2797,-174.362C2797,-166.922 2797,-156.743 2797,-147.728"/>
<polygon fill="midnightblue" stroke="midnightblue" points="2800.5,-147.571 2797,-137.571 2793.5,-147.571 2800.5,-147.571"/>
</g>
<!-- Node37&#45;&gt;Node12 -->
<g id="edge110" class="edge"><title>Node37&#45;&gt;Node12</title>
<path fill="none" stroke="midnightblue" d="M1205.9,-118.219C1159.02,-111.248 1098.28,-99.3667 1047,-80 1028.74,-73.1053 1027.34,-64.6771 1009,-58 942.874,-33.9218 862.95,-21.9509 807.683,-16.1502"/>
<polygon fill="midnightblue" stroke="midnightblue" points="807.96,-12.6604 797.659,-15.1373 807.256,-19.625 807.96,-12.6604"/>
</g>
<!-- Node37&#45;&gt;Node13 -->
<g id="edge114" class="edge"><title>Node37&#45;&gt;Node13</title>
<path fill="none" stroke="midnightblue" d="M1216.08,-116.497C1153.53,-106.529 1059.58,-91.5591 993.921,-81.0973"/>
<polygon fill="midnightblue" stroke="midnightblue" points="994.467,-77.6403 984.041,-79.5231 993.366,-84.5531 994.467,-77.6403"/>
</g>
<!-- Node37&#45;&gt;Node15 -->
<g id="edge134" class="edge"><title>Node37&#45;&gt;Node15</title>
<path fill="none" stroke="midnightblue" d="M1276.42,-116.402C1267.66,-100.91 1249.18,-72.3649 1225,-58 1190.98,-37.7899 1079.86,-22.2557 1020.76,-15.1858"/>
<polygon fill="midnightblue" stroke="midnightblue" points="1021.05,-11.6953 1010.71,-14.0047 1020.23,-18.6475 1021.05,-11.6953"/>
</g>
<!-- Node37&#45;&gt;Node29 -->
<g id="edge106" class="edge"><title>Node37&#45;&gt;Node29</title>
<path fill="none" stroke="midnightblue" d="M1298.87,-116.362C1312.75,-107.614 1332.63,-95.0786 1348.46,-85.1015"/>
<polygon fill="midnightblue" stroke="midnightblue" points="1350.64,-87.8645 1357.23,-79.5707 1346.91,-81.943 1350.64,-87.8645"/>
</g>
<!-- Node38 -->
<g id="node92" class="node"><title>Node38</title>
<polygon fill="white" stroke="#bfbfbf" points="1203,-0.5 1203,-21.5 1349,-21.5 1349,-0.5 1203,-0.5"/>
<text text-anchor="middle" x="1276" y="-8.5" font-family="DejaVuSans" font-size="10.00">Datatypes/cv_IdentityList.h</text>
</g>
<!-- Node37&#45;&gt;Node38 -->
<g id="edge108" class="edge"><title>Node37&#45;&gt;Node38</title>
<path fill="none" stroke="midnightblue" d="M1281.45,-116.295C1280.46,-97.1314 1278.36,-56.654 1277.08,-31.8434"/>
<polygon fill="midnightblue" stroke="midnightblue" points="1280.56,-31.485 1276.55,-21.6792 1273.57,-31.8467 1280.56,-31.485"/>
</g>
<!-- Node39 -->
<g id="node95" class="node"><title>Node39</title>
<polygon fill="white" stroke="#bfbfbf" points="1055.5,-58.5 1055.5,-79.5 1216.5,-79.5 1216.5,-58.5 1055.5,-58.5"/>
<text text-anchor="middle" x="1136" y="-66.5" font-family="DejaVuSans" font-size="10.00">Datatypes/cv_Derangement.h</text>
</g>
<!-- Node37&#45;&gt;Node39 -->
<g id="edge112" class="edge"><title>Node37&#45;&gt;Node39</title>
<path fill="none" stroke="midnightblue" d="M1255.56,-116.497C1232.24,-107.234 1198.05,-93.6499 1172.2,-83.3793"/>
<polygon fill="midnightblue" stroke="midnightblue" points="1173.32,-80.0605 1162.74,-79.6212 1170.74,-86.566 1173.32,-80.0605"/>
</g>
<!-- Node37&#45;&gt;Node40 -->
<g id="edge116" class="edge"><title>Node37&#45;&gt;Node40</title>
<path fill="none" stroke="midnightblue" d="M1329.99,-116.497C1374.69,-106.714 1441.41,-92.1107 1489.06,-81.6819"/>
<polygon fill="midnightblue" stroke="midnightblue" points="1489.9,-85.0803 1498.92,-79.5231 1488.4,-78.2421 1489.9,-85.0803"/>
</g>
<!-- Node40&#45;&gt;Node12 -->
<g id="edge124" class="edge"><title>Node40&#45;&gt;Node12</title>
<path fill="none" stroke="midnightblue" d="M1493.31,-59.7038C1488.81,-59.0721 1484.33,-58.4923 1480,-58 1414.28,-50.534 976.653,-24.6984 807.534,-14.8523"/>
<polygon fill="midnightblue" stroke="midnightblue" points="807.697,-11.356 797.511,-14.2692 807.291,-18.3442 807.697,-11.356"/>
</g>
<!-- Node40&#45;&gt;Node15 -->
<g id="edge132" class="edge"><title>Node40&#45;&gt;Node15</title>
<path fill="none" stroke="midnightblue" d="M1493.29,-59.8501C1488.8,-59.1861 1484.33,-58.5589 1480,-58 1309.13,-35.9207 1103.95,-19.7915 1020.77,-13.6849"/>
<polygon fill="midnightblue" stroke="midnightblue" points="1020.78,-10.1762 1010.55,-12.94 1020.27,-17.1577 1020.78,-10.1762"/>
</g>
<!-- Node40&#45;&gt;Node22 -->
<g id="edge118" class="edge"><title>Node40&#45;&gt;Node22</title>
<path fill="none" stroke="midnightblue" d="M1600.73,-59.2129C1603.52,-58.7836 1606.29,-58.3761 1609,-58 1763.71,-36.5054 1808.94,-57.6866 1964.38,-21.9211"/>
<polygon fill="midnightblue" stroke="midnightblue" points="1965.36,-25.288 1974.3,-19.5988 1963.76,-18.4726 1965.36,-25.288"/>
</g>
<!-- Node40&#45;&gt;Node23 -->
<g id="edge120" class="edge"><title>Node40&#45;&gt;Node23</title>
<path fill="none" stroke="midnightblue" d="M1600.74,-59.3171C1603.53,-58.8606 1606.3,-58.4188 1609,-58 1725.9,-39.8738 1758.98,-44.8122 1878.45,-22.1437"/>
<polygon fill="midnightblue" stroke="midnightblue" points="1879.19,-25.5656 1888.35,-20.2403 1877.86,-18.6915 1879.19,-25.5656"/>
</g>
<!-- Node40&#45;&gt;Node38 -->
<g id="edge126" class="edge"><title>Node40&#45;&gt;Node38</title>
<path fill="none" stroke="midnightblue" d="M1497.92,-58.4966C1452.12,-48.6931 1383.7,-34.0496 1334.95,-23.6165"/>
<polygon fill="midnightblue" stroke="midnightblue" points="1335.68,-20.1935 1325.17,-21.5231 1334.21,-27.0385 1335.68,-20.1935"/>
</g>
<!-- Node41 -->
<g id="node102" class="node"><title>Node41</title>
<polygon fill="white" stroke="#bfbfbf" points="1366.5,-0.5 1366.5,-21.5 1517.5,-21.5 1517.5,-0.5 1366.5,-0.5"/>
<text text-anchor="middle" x="1442" y="-8.5" font-family="DejaVuSans" font-size="10.00">Datatypes/cv_SpeciesTitle.h</text>
</g>
<!-- Node40&#45;&gt;Node41 -->
<g id="edge122" class="edge"><title>Node40&#45;&gt;Node41</title>
<path fill="none" stroke="midnightblue" d="M1527.74,-58.3619C1511.53,-49.4094 1488.15,-36.4908 1469.89,-26.4064"/>
<polygon fill="midnightblue" stroke="midnightblue" points="1471.58,-23.3422 1461.14,-21.5707 1468.2,-29.4696 1471.58,-23.3422"/>
</g>
<!-- Node42 -->
<g id="node106" class="node"><title>Node42</title>
<polygon fill="white" stroke="#bfbfbf" points="1534.5,-0.5 1534.5,-21.5 1683.5,-21.5 1683.5,-0.5 1534.5,-0.5"/>
<text text-anchor="middle" x="1609" y="-8.5" font-family="DejaVuSans" font-size="10.00">Datatypes/cv_SuperEffect.h</text>
</g>
<!-- Node40&#45;&gt;Node42 -->
<g id="edge128" class="edge"><title>Node40&#45;&gt;Node42</title>
<path fill="none" stroke="midnightblue" d="M1558.37,-58.3619C1567.29,-50.0226 1579.88,-38.2418 1590.28,-28.5162"/>
<polygon fill="midnightblue" stroke="midnightblue" points="1592.79,-30.9582 1597.7,-21.5707 1588.01,-25.8463 1592.79,-30.9582"/>
</g>
<!-- Node43 -->
<g id="node108" class="node"><title>Node43</title>
<polygon fill="white" stroke="#bfbfbf" points="1701,-0.5 1701,-21.5 1871,-21.5 1871,-0.5 1701,-0.5"/>
<text text-anchor="middle" x="1786" y="-8.5" font-family="DejaVuSans" font-size="10.00">Datatypes/cv_CreationPoints2.h</text>
</g>
<!-- Node40&#45;&gt;Node43 -->
<g id="edge130" class="edge"><title>Node40&#45;&gt;Node43</title>
<path fill="none" stroke="midnightblue" d="M1590.28,-58.4966C1630.26,-48.7955 1689.76,-34.3547 1732.66,-23.9445"/>
<polygon fill="midnightblue" stroke="midnightblue" points="1733.75,-27.2827 1742.64,-21.5231 1732.09,-20.4802 1733.75,-27.2827"/>
</g>
<!-- Node44&#45;&gt;Node23 -->
<g id="edge140" class="edge"><title>Node44&#45;&gt;Node23</title>
<path fill="none" stroke="midnightblue" d="M1841.31,-174.377C1855.47,-146.051 1894.33,-68.3488 1912.88,-31.2424"/>
<polygon fill="midnightblue" stroke="midnightblue" points="1916.19,-32.4373 1917.54,-21.9277 1909.93,-29.3067 1916.19,-32.4373"/>
</g>
<!-- Node45 -->
<g id="node116" class="node"><title>Node45</title>
<polygon fill="white" stroke="#bfbfbf" points="1744,-116.5 1744,-137.5 1826,-137.5 1826,-116.5 1744,-116.5"/>
<text text-anchor="middle" x="1785" y="-124.5" font-family="DejaVuSans" font-size="10.00">QHBoxLayout</text>
</g>
<!-- Node44&#45;&gt;Node45 -->
<g id="edge142" class="edge"><title>Node44&#45;&gt;Node45</title>
<path fill="none" stroke="midnightblue" d="M1826.65,-174.362C1819.46,-166.186 1809.36,-154.702 1800.91,-145.091"/>
<polygon fill="midnightblue" stroke="midnightblue" points="1803.53,-142.769 1794.29,-137.571 1798.27,-147.392 1803.53,-142.769"/>
</g>
<!-- Node46&#45;&gt;Node6 -->
<g id="edge148" class="edge"><title>Node46&#45;&gt;Node6</title>
<path fill="none" stroke="midnightblue" d="M2292.96,-174.485C2351.78,-165.358 2438.57,-151.517 2514,-138 2515.07,-137.808 2516.16,-137.612 2517.25,-137.413"/>
<polygon fill="midnightblue" stroke="midnightblue" points="2518.03,-140.827 2527.22,-135.555 2516.75,-133.945 2518.03,-140.827"/>
</g>
<!-- Node46&#45;&gt;Node17 -->
<g id="edge146" class="edge"><title>Node46&#45;&gt;Node17</title>
<path fill="none" stroke="midnightblue" d="M2293.72,-174.493C2367.74,-163.004 2474.95,-145.262 2481,-138 2549.23,-56.1643 2335.02,-24.0411 2245.96,-14.4211"/>
<polygon fill="midnightblue" stroke="midnightblue" points="2246.06,-10.9123 2235.75,-13.3576 2245.33,-17.8746 2246.06,-10.9123"/>
</g>
<!-- Node49&#45;&gt;Node11 -->
<g id="edge156" class="edge"><title>Node49&#45;&gt;Node11</title>
<path fill="none" stroke="midnightblue" d="M1319.4,-180.155C1229.67,-169.705 1017.99,-145.051 917.623,-133.362"/>
<polygon fill="midnightblue" stroke="midnightblue" points="918.023,-129.885 907.686,-132.204 917.214,-136.838 918.023,-129.885"/>
</g>
<!-- Node49&#45;&gt;Node37 -->
<g id="edge160" class="edge"><title>Node49&#45;&gt;Node37</title>
<path fill="none" stroke="midnightblue" d="M1346.51,-174.362C1334.82,-165.777 1318.16,-153.546 1304.7,-143.664"/>
<polygon fill="midnightblue" stroke="midnightblue" points="1306.53,-140.667 1296.4,-137.571 1302.39,-146.31 1306.53,-140.667"/>
</g>
<!-- Node49&#45;&gt;Node40 -->
<g id="edge158" class="edge"><title>Node49&#45;&gt;Node40</title>
<path fill="none" stroke="midnightblue" d="M1378.17,-174.295C1411.05,-153.785 1483.09,-108.859 1521.57,-84.8575"/>
<polygon fill="midnightblue" stroke="midnightblue" points="1523.51,-87.7733 1530.15,-79.5117 1519.81,-81.8337 1523.51,-87.7733"/>
</g>
</g>
</svg>
