<?xml version="1.0" encoding="UTF-8" standalone="no"?>
<!DOCTYPE svg PUBLIC "-//W3C//DTD SVG 1.1//EN"
 "http://www.w3.org/Graphics/SVG/1.1/DTD/svg11.dtd">
<!-- Generated by graphviz version 2.26.3 (20100126.1600)
 -->
<!-- Title: G Pages: 1 -->
<svg width="1867pt" height="436pt"
 viewBox="0.00 0.00 1866.73 436.00" xmlns="http://www.w3.org/2000/svg" xmlns:xlink="http://www.w3.org/1999/xlink">
<g id="graph1" class="graph" transform="scale(1 1) rotate(0) translate(4 432)">
<title>G</title>
<polygon fill="white" stroke="white" points="-4,5 -4,-432 1863.73,-432 1863.73,5 -4,5"/>
<!-- Node1 -->
<g id="node1" class="node"><title>Node1</title>
<polygon fill="#bfbfbf" stroke="black" points="541.5,-406.5 541.5,-427.5 692.5,-427.5 692.5,-406.5 541.5,-406.5"/>
<text text-anchor="middle" x="617" y="-414.5" font-family="DejaVuSans" font-size="10.00">src/Widgets/MeritWidget.cpp</text>
</g>
<!-- Node2 -->
<g id="node3" class="node"><title>Node2</title>
<polygon fill="white" stroke="#bfbfbf" points="373,-232.5 373,-253.5 449,-253.5 449,-232.5 373,-232.5"/>
<text text-anchor="middle" x="411" y="-240.5" font-family="DejaVuSans" font-size="10.00">QGridLayout</text>
</g>
<!-- Node1&#45;&gt;Node2 -->
<g id="edge2" class="edge"><title>Node1&#45;&gt;Node2</title>
<path fill="none" stroke="midnightblue" d="M541.264,-409.276C480.373,-398.563 398.809,-372.998 360,-312 348.249,-293.531 366.794,-273.529 384.726,-259.84"/>
<polygon fill="midnightblue" stroke="midnightblue" points="387.256,-262.333 393.344,-253.661 383.177,-256.644 387.256,-262.333"/>
</g>
<!-- Node3 -->
<g id="node5" class="node"><title>Node3</title>
<polygon fill="white" stroke="#bfbfbf" points="369,-290.5 369,-311.5 429,-311.5 429,-290.5 369,-290.5"/>
<text text-anchor="middle" x="399" y="-298.5" font-family="DejaVuSans" font-size="10.00">QToolBox</text>
</g>
<!-- Node1&#45;&gt;Node3 -->
<g id="edge4" class="edge"><title>Node1&#45;&gt;Node3</title>
<path fill="none" stroke="midnightblue" d="M596.882,-406.295C558.011,-385.612 472.48,-340.099 427.668,-316.254"/>
<polygon fill="midnightblue" stroke="midnightblue" points="429.227,-313.119 418.755,-311.512 425.939,-319.299 429.227,-313.119"/>
</g>
<!-- Node4 -->
<g id="node7" class="node"><title>Node4</title>
<polygon fill="white" stroke="#bfbfbf" points="864,-348.5 864,-369.5 920,-369.5 920,-348.5 864,-348.5"/>
<text text-anchor="middle" x="892" y="-356.5" font-family="DejaVuSans" font-size="10.00">QDebug</text>
</g>
<!-- Node1&#45;&gt;Node4 -->
<g id="edge6" class="edge"><title>Node1&#45;&gt;Node4</title>
<path fill="none" stroke="midnightblue" d="M678.493,-406.497C724.4,-398.281 788.84,-385.96 853.789,-370.146"/>
<polygon fill="midnightblue" stroke="midnightblue" points="854.92,-373.472 863.793,-367.683 853.246,-366.675 854.92,-373.472"/>
</g>
<!-- Node5 -->
<g id="node9" class="node"><title>Node5</title>
<a xlink:href="_chara_trait_8h.html" target="_top" xlink:title="CharaTrait.h">
<polygon fill="white" stroke="black" points="772,-348.5 772,-369.5 846,-369.5 846,-348.5 772,-348.5"/>
<text text-anchor="middle" x="809" y="-356.5" font-family="DejaVuSans" font-size="10.00">CharaTrait.h</text>
</a>
</g>
<!-- Node1&#45;&gt;Node5 -->
<g id="edge8" class="edge"><title>Node1&#45;&gt;Node5</title>
<path fill="none" stroke="midnightblue" d="M651.77,-406.497C683.342,-396.959 730.079,-382.841 764.393,-372.475"/>
<polygon fill="midnightblue" stroke="midnightblue" points="765.604,-375.765 774.165,-369.523 763.58,-369.064 765.604,-375.765"/>
</g>
<!-- Node34 -->
<g id="node97" class="node"><title>Node34</title>
<a xlink:href="_exception_8h_source.html" target="_top" xlink:title="../Exceptions/Exception.h">
<polygon fill="white" stroke="black" points="213,-232.5 213,-253.5 349,-253.5 349,-232.5 213,-232.5"/>
<text text-anchor="middle" x="281" y="-240.5" font-family="DejaVuSans" font-size="10.00">../Exceptions/Exception.h</text>
</a>
</g>
<!-- Node1&#45;&gt;Node34 -->
<g id="edge126" class="edge"><title>Node1&#45;&gt;Node34</title>
<path fill="none" stroke="midnightblue" d="M541.367,-406.586C485.947,-397.974 416.183,-384.79 391,-370 345.352,-343.192 309.143,-290.567 291.931,-262.202"/>
<polygon fill="midnightblue" stroke="midnightblue" points="294.939,-260.412 286.836,-253.585 288.913,-263.975 294.939,-260.412"/>
</g>
<!-- Node36 -->
<g id="node105" class="node"><title>Node36</title>
<a xlink:href="_config_8h.html" target="_top" xlink:title="../Config/Config.h">
<polygon fill="white" stroke="black" points="98,-174.5 98,-195.5 196,-195.5 196,-174.5 98,-174.5"/>
<text text-anchor="middle" x="147" y="-182.5" font-family="DejaVuSans" font-size="10.00">../Config/Config.h</text>
</a>
</g>
<!-- Node1&#45;&gt;Node36 -->
<g id="edge146" class="edge"><title>Node1&#45;&gt;Node36</title>
<path fill="none" stroke="midnightblue" d="M541.475,-412.567C488.32,-407.262 416.507,-395.606 358,-370 279.5,-335.644 265.935,-313.217 204,-254 187.817,-238.528 171.793,-218.612 160.876,-204.158"/>
<polygon fill="midnightblue" stroke="midnightblue" points="163.555,-201.894 154.783,-195.952 157.935,-206.067 163.555,-201.894"/>
</g>
<!-- Node38 -->
<g id="node112" class="node"><title>Node38</title>
<polygon fill="white" stroke="#bfbfbf" points="937.5,-348.5 937.5,-369.5 1034.5,-369.5 1034.5,-348.5 937.5,-348.5"/>
<text text-anchor="middle" x="986" y="-356.5" font-family="DejaVuSans" font-size="10.00">../CMakeConfig.h</text>
</g>
<!-- Node1&#45;&gt;Node38 -->
<g id="edge148" class="edge"><title>Node1&#45;&gt;Node38</title>
<path fill="none" stroke="midnightblue" d="M692.795,-406.472C753.715,-397.804 841.734,-384.822 927.323,-370.245"/>
<polygon fill="midnightblue" stroke="midnightblue" points="927.941,-373.691 937.206,-368.553 926.759,-366.791 927.941,-373.691"/>
</g>
<!-- Node39 -->
<g id="node114" class="node"><title>Node39</title>
<a xlink:href="_merit_widget_8h.html" target="_top" xlink:title="MeritWidget.h">
<polygon fill="white" stroke="black" points="672,-348.5 672,-369.5 754,-369.5 754,-348.5 672,-348.5"/>
<text text-anchor="middle" x="713" y="-356.5" font-family="DejaVuSans" font-size="10.00">MeritWidget.h</text>
</a>
</g>
<!-- Node1&#45;&gt;Node39 -->
<g id="edge150" class="edge"><title>Node1&#45;&gt;Node39</title>
<path fill="none" stroke="midnightblue" d="M634.608,-406.362C649.223,-397.532 670.224,-384.844 686.811,-374.822"/>
<polygon fill="midnightblue" stroke="midnightblue" points="688.754,-377.738 695.504,-369.571 685.135,-371.746 688.754,-377.738"/>
</g>
<!-- Node6 -->
<g id="node11" class="node"><title>Node6</title>
<a xlink:href="_storage_character_8h.html" target="_top" xlink:title="../Storage/StorageCharacter.h">
<polygon fill="white" stroke="black" points="896.5,-290.5 896.5,-311.5 1057.5,-311.5 1057.5,-290.5 896.5,-290.5"/>
<text text-anchor="middle" x="977" y="-298.5" font-family="DejaVuSans" font-size="10.00">../Storage/StorageCharacter.h</text>
</a>
</g>
<!-- Node5&#45;&gt;Node6 -->
<g id="edge10" class="edge"><title>Node5&#45;&gt;Node6</title>
<path fill="none" stroke="midnightblue" d="M839.424,-348.497C866.694,-339.082 906.893,-325.204 936.804,-314.877"/>
<polygon fill="midnightblue" stroke="midnightblue" points="938.209,-318.095 946.519,-311.523 935.925,-311.478 938.209,-318.095"/>
</g>
<!-- Node13 -->
<g id="node29" class="node"><title>Node13</title>
<a xlink:href="cv___trait_8h.html" target="_top" xlink:title="../Datatypes/cv_Trait.h">
<polygon fill="white" stroke="black" points="403,-174.5 403,-195.5 525,-195.5 525,-174.5 403,-174.5"/>
<text text-anchor="middle" x="464" y="-182.5" font-family="DejaVuSans" font-size="10.00">../Datatypes/cv_Trait.h</text>
</a>
</g>
<!-- Node5&#45;&gt;Node13 -->
<g id="edge88" class="edge"><title>Node5&#45;&gt;Node13</title>
<path fill="none" stroke="midnightblue" d="M806.337,-348.301C802.043,-333.206 792.171,-305.745 774,-290 763.541,-280.938 589.448,-224.853 506.848,-198.568"/>
<polygon fill="midnightblue" stroke="midnightblue" points="507.836,-195.209 497.246,-195.515 505.716,-201.88 507.836,-195.209"/>
</g>
<!-- Node16 -->
<g id="node39" class="node"><title>Node16</title>
<a xlink:href="cv___trait_detail_8h.html" target="_top" xlink:title="cv_TraitDetail.h">
<polygon fill="white" stroke="black" points="839.5,-116.5 839.5,-137.5 928.5,-137.5 928.5,-116.5 839.5,-116.5"/>
<text text-anchor="middle" x="884" y="-124.5" font-family="DejaVuSans" font-size="10.00">cv_TraitDetail.h</text>
</a>
</g>
<!-- Node5&#45;&gt;Node16 -->
<g id="edge90" class="edge"><title>Node5&#45;&gt;Node16</title>
<path fill="none" stroke="midnightblue" d="M812.417,-348.429C824.009,-312.573 861.963,-195.169 877.39,-147.446"/>
<polygon fill="midnightblue" stroke="midnightblue" points="880.817,-148.225 880.562,-137.634 874.156,-146.072 880.817,-148.225"/>
</g>
<!-- Node22 -->
<g id="node68" class="node"><title>Node22</title>
<a xlink:href="_trait_line_8h.html" target="_top" xlink:title="TraitLine.h">
<polygon fill="white" stroke="black" points="1616.5,-232.5 1616.5,-253.5 1681.5,-253.5 1681.5,-232.5 1616.5,-232.5"/>
<text text-anchor="middle" x="1649" y="-240.5" font-family="DejaVuSans" font-size="10.00">TraitLine.h</text>
</a>
</g>
<!-- Node5&#45;&gt;Node22 -->
<g id="edge92" class="edge"><title>Node5&#45;&gt;Node22</title>
<path fill="none" stroke="midnightblue" d="M846.054,-349.591C849.069,-348.993 852.079,-348.451 855,-348 1075.63,-313.927 1135.32,-345.693 1356,-312 1446.4,-298.198 1550.12,-271.024 1606.71,-255.208"/>
<polygon fill="midnightblue" stroke="midnightblue" points="1607.7,-258.565 1616.38,-252.488 1605.8,-251.827 1607.7,-258.565"/>
</g>
<!-- Node7 -->
<g id="node13" class="node"><title>Node7</title>
<a xlink:href="cv___identity_8h.html" target="_top" xlink:title="../Datatypes/cv_Identity.h">
<polygon fill="white" stroke="black" points="1097.5,-116.5 1097.5,-137.5 1234.5,-137.5 1234.5,-116.5 1097.5,-116.5"/>
<text text-anchor="middle" x="1166" y="-124.5" font-family="DejaVuSans" font-size="10.00">../Datatypes/cv_Identity.h</text>
</a>
</g>
<!-- Node6&#45;&gt;Node7 -->
<g id="edge12" class="edge"><title>Node6&#45;&gt;Node7</title>
<path fill="none" stroke="midnightblue" d="M1012.83,-290.493C1054.5,-276.274 1121.92,-246.672 1156,-196 1165.47,-181.914 1167.57,-162.552 1167.53,-147.923"/>
<polygon fill="midnightblue" stroke="midnightblue" points="1171.02,-147.693 1167.16,-137.825 1164.03,-147.944 1171.02,-147.693"/>
</g>
<!-- Node11 -->
<g id="node23" class="node"><title>Node11</title>
<a xlink:href="cv___identity_list_8h.html" target="_top" xlink:title="../Datatypes/cv_IdentityList.h">
<polygon fill="white" stroke="black" points="992.5,-174.5 992.5,-195.5 1147.5,-195.5 1147.5,-174.5 992.5,-174.5"/>
<text text-anchor="middle" x="1070" y="-182.5" font-family="DejaVuSans" font-size="10.00">../Datatypes/cv_IdentityList.h</text>
</a>
</g>
<!-- Node6&#45;&gt;Node11 -->
<g id="edge24" class="edge"><title>Node6&#45;&gt;Node11</title>
<path fill="none" stroke="midnightblue" d="M990.219,-290.243C1000.86,-281.213 1015.82,-267.634 1027,-254 1039.65,-238.569 1051.44,-219.138 1059.47,-204.831"/>
<polygon fill="midnightblue" stroke="midnightblue" points="1062.65,-206.309 1064.38,-195.857 1056.51,-202.946 1062.65,-206.309"/>
</g>
<!-- Node6&#45;&gt;Node13 -->
<g id="edge32" class="edge"><title>Node6&#45;&gt;Node13</title>
<path fill="none" stroke="midnightblue" d="M928.123,-290.42C885.512,-281.111 822.077,-267.046 767,-254 727.771,-244.708 718.252,-241.195 679,-232 626.714,-219.752 567.032,-206.786 523.837,-197.582"/>
<polygon fill="midnightblue" stroke="midnightblue" points="524.564,-194.158 514.055,-195.501 523.108,-201.005 524.564,-194.158"/>
</g>
<!-- Node18 -->
<g id="node49" class="node"><title>Node18</title>
<a xlink:href="cv___derangement_8h.html" target="_top" xlink:title="../Datatypes/cv_Derangement.h">
<polygon fill="white" stroke="black" points="543,-174.5 543,-195.5 713,-195.5 713,-174.5 543,-174.5"/>
<text text-anchor="middle" x="628" y="-182.5" font-family="DejaVuSans" font-size="10.00">../Datatypes/cv_Derangement.h</text>
</a>
</g>
<!-- Node6&#45;&gt;Node18 -->
<g id="edge62" class="edge"><title>Node6&#45;&gt;Node18</title>
<path fill="none" stroke="midnightblue" d="M945.103,-290.398C881.752,-269.342 740.111,-222.263 669.57,-198.817"/>
<polygon fill="midnightblue" stroke="midnightblue" points="670.29,-195.368 659.696,-195.535 668.082,-202.011 670.29,-195.368"/>
</g>
<!-- Node19 -->
<g id="node54" class="node"><title>Node19</title>
<a xlink:href="_storage_template_8h.html" target="_top" xlink:title="StorageTemplate.h">
<polygon fill="white" stroke="black" points="896.5,-232.5 896.5,-253.5 1003.5,-253.5 1003.5,-232.5 896.5,-232.5"/>
<text text-anchor="middle" x="950" y="-240.5" font-family="DejaVuSans" font-size="10.00">StorageTemplate.h</text>
</a>
</g>
<!-- Node6&#45;&gt;Node19 -->
<g id="edge70" class="edge"><title>Node6&#45;&gt;Node19</title>
<path fill="none" stroke="midnightblue" d="M972.048,-290.362C968.47,-282.677 963.532,-272.069 959.236,-262.84"/>
<polygon fill="midnightblue" stroke="midnightblue" points="962.314,-261.159 954.921,-253.571 955.968,-264.114 962.314,-261.159"/>
</g>
<!-- Node21 -->
<g id="node63" class="node"><title>Node21</title>
<polygon fill="white" stroke="#bfbfbf" points="920.5,-174.5 920.5,-195.5 975.5,-195.5 975.5,-174.5 920.5,-174.5"/>
<text text-anchor="middle" x="948" y="-182.5" font-family="DejaVuSans" font-size="10.00">QObject</text>
</g>
<!-- Node6&#45;&gt;Node21 -->
<g id="edge86" class="edge"><title>Node6&#45;&gt;Node21</title>
<path fill="none" stroke="midnightblue" d="M989.203,-290.246C1003.05,-276.674 1022.44,-252.612 1012,-232 1005.29,-218.738 992.873,-208.31 980.754,-200.681"/>
<polygon fill="midnightblue" stroke="midnightblue" points="982.469,-197.63 972.066,-195.62 978.945,-203.678 982.469,-197.63"/>
</g>
<!-- Node8 -->
<g id="node15" class="node"><title>Node8</title>
<polygon fill="white" stroke="#bfbfbf" points="1247.5,-0.5 1247.5,-21.5 1316.5,-21.5 1316.5,-0.5 1247.5,-0.5"/>
<text text-anchor="middle" x="1282" y="-8.5" font-family="DejaVuSans" font-size="10.00">QStringList</text>
</g>
<!-- Node7&#45;&gt;Node8 -->
<g id="edge14" class="edge"><title>Node7&#45;&gt;Node8</title>
<path fill="none" stroke="midnightblue" d="M1211.12,-116.41C1244.19,-107.628 1284.99,-94.3039 1295,-80 1305,-65.7192 1299.77,-45.8629 1293.21,-31.1159"/>
<polygon fill="midnightblue" stroke="midnightblue" points="1296.19,-29.2626 1288.62,-21.8541 1289.92,-32.3688 1296.19,-29.2626"/>
</g>
<!-- Node9 -->
<g id="node17" class="node"><title>Node9</title>
<polygon fill="white" stroke="#bfbfbf" points="712.5,-0.5 712.5,-21.5 765.5,-21.5 765.5,-0.5 712.5,-0.5"/>
<text text-anchor="middle" x="739" y="-8.5" font-family="DejaVuSans" font-size="10.00">QString</text>
</g>
<!-- Node7&#45;&gt;Node9 -->
<g id="edge16" class="edge"><title>Node7&#45;&gt;Node9</title>
<path fill="none" stroke="midnightblue" d="M1157.17,-116.478C1143.34,-100.812 1114.95,-71.729 1084,-58 1029.31,-33.7441 852.938,-18.8991 775.749,-13.4131"/>
<polygon fill="midnightblue" stroke="midnightblue" points="775.758,-9.90528 765.538,-12.7011 775.271,-16.8883 775.758,-9.90528"/>
</g>
<!-- Node10 -->
<g id="node19" class="node"><title>Node10</title>
<a xlink:href="cv___name_8h.html" target="_top" xlink:title="cv_Name.h">
<polygon fill="white" stroke="black" points="1215.5,-58.5 1215.5,-79.5 1286.5,-79.5 1286.5,-58.5 1215.5,-58.5"/>
<text text-anchor="middle" x="1251" y="-66.5" font-family="DejaVuSans" font-size="10.00">cv_Name.h</text>
</a>
</g>
<!-- Node7&#45;&gt;Node10 -->
<g id="edge18" class="edge"><title>Node7&#45;&gt;Node10</title>
<path fill="none" stroke="midnightblue" d="M1181.59,-116.362C1194.29,-107.696 1212.44,-95.3126 1226.99,-85.3819"/>
<polygon fill="midnightblue" stroke="midnightblue" points="1229.22,-88.0982 1235.51,-79.5707 1225.28,-82.316 1229.22,-88.0982"/>
</g>
<!-- Node10&#45;&gt;Node8 -->
<g id="edge20" class="edge"><title>Node10&#45;&gt;Node8</title>
<path fill="none" stroke="midnightblue" d="M1256.69,-58.3619C1260.84,-50.5949 1266.58,-39.8426 1271.55,-30.5458"/>
<polygon fill="midnightblue" stroke="midnightblue" points="1274.72,-32.0398 1276.35,-21.5707 1268.55,-28.7401 1274.72,-32.0398"/>
</g>
<!-- Node10&#45;&gt;Node9 -->
<g id="edge22" class="edge"><title>Node10&#45;&gt;Node9</title>
<path fill="none" stroke="midnightblue" d="M1215.24,-60.4524C1210.79,-59.5443 1206.3,-58.6988 1202,-58 1044.52,-32.4254 854.515,-18.3409 775.853,-13.2369"/>
<polygon fill="midnightblue" stroke="midnightblue" points="775.71,-9.72075 765.507,-12.5761 775.264,-16.7065 775.71,-9.72075"/>
</g>
<!-- Node11&#45;&gt;Node7 -->
<g id="edge28" class="edge"><title>Node11&#45;&gt;Node7</title>
<path fill="none" stroke="midnightblue" d="M1087.61,-174.362C1102.22,-165.532 1123.22,-152.844 1139.81,-142.822"/>
<polygon fill="midnightblue" stroke="midnightblue" points="1141.75,-145.738 1148.5,-137.571 1138.13,-139.746 1141.75,-145.738"/>
</g>
<!-- Node11&#45;&gt;Node9 -->
<g id="edge26" class="edge"><title>Node11&#45;&gt;Node9</title>
<path fill="none" stroke="midnightblue" d="M1066.29,-174.27C1057,-149.205 1030.22,-86.7588 985,-58 950.734,-36.2093 835.511,-21.196 775.709,-14.6706"/>
<polygon fill="midnightblue" stroke="midnightblue" points="775.882,-11.1692 765.567,-13.5874 775.138,-18.1296 775.882,-11.1692"/>
</g>
<!-- Node12 -->
<g id="node27" class="node"><title>Node12</title>
<polygon fill="white" stroke="#bfbfbf" points="935.5,-58.5 935.5,-79.5 976.5,-79.5 976.5,-58.5 935.5,-58.5"/>
<text text-anchor="middle" x="956" y="-66.5" font-family="DejaVuSans" font-size="10.00">QList</text>
</g>
<!-- Node11&#45;&gt;Node12 -->
<g id="edge30" class="edge"><title>Node11&#45;&gt;Node12</title>
<path fill="none" stroke="midnightblue" d="M1059.48,-174.295C1039.88,-154.355 997.607,-111.337 973.597,-86.9056"/>
<polygon fill="midnightblue" stroke="midnightblue" points="976.001,-84.3582 966.495,-79.6792 971.008,-89.2648 976.001,-84.3582"/>
</g>
<!-- Node13&#45;&gt;Node8 -->
<g id="edge40" class="edge"><title>Node13&#45;&gt;Node8</title>
<path fill="none" stroke="midnightblue" d="M525.05,-175.161C528.074,-174.75 531.07,-174.361 534,-174 712.477,-152.03 761.546,-177.402 937,-138 1056.46,-111.174 1190.6,-53.2448 1250.35,-25.8855"/>
<polygon fill="midnightblue" stroke="midnightblue" points="1252,-28.9763 1259.62,-21.6111 1249.07,-22.6193 1252,-28.9763"/>
</g>
<!-- Node13&#45;&gt;Node9 -->
<g id="edge36" class="edge"><title>Node13&#45;&gt;Node9</title>
<path fill="none" stroke="midnightblue" d="M402.658,-177.332C351.934,-168.403 292.235,-150.279 319,-116 366.6,-55.0345 609.14,-24.229 702.398,-14.4944"/>
<polygon fill="midnightblue" stroke="midnightblue" points="702.904,-17.961 712.496,-13.4622 702.192,-10.9973 702.904,-17.961"/>
</g>
<!-- Node13&#45;&gt;Node12 -->
<g id="edge38" class="edge"><title>Node13&#45;&gt;Node12</title>
<path fill="none" stroke="midnightblue" d="M482.653,-174.466C510.823,-159.054 566.323,-130.612 617,-116 727.448,-84.1544 864.562,-73.5993 924.964,-70.3428"/>
<polygon fill="midnightblue" stroke="midnightblue" points="925.516,-73.8193 935.326,-69.8162 925.161,-66.8283 925.516,-73.8193"/>
</g>
<!-- Node14 -->
<g id="node31" class="node"><title>Node14</title>
<polygon fill="white" stroke="#bfbfbf" points="327.5,-116.5 327.5,-137.5 376.5,-137.5 376.5,-116.5 327.5,-116.5"/>
<text text-anchor="middle" x="352" y="-124.5" font-family="DejaVuSans" font-size="10.00">QFlags</text>
</g>
<!-- Node13&#45;&gt;Node14 -->
<g id="edge34" class="edge"><title>Node13&#45;&gt;Node14</title>
<path fill="none" stroke="midnightblue" d="M443.718,-174.497C426.382,-165.519 401.21,-152.484 381.62,-142.339"/>
<polygon fill="midnightblue" stroke="midnightblue" points="382.999,-139.112 372.51,-137.621 379.78,-145.328 382.999,-139.112"/>
</g>
<!-- Node15 -->
<g id="node36" class="node"><title>Node15</title>
<a xlink:href="cv___species_8h.html" target="_top" xlink:title="cv_Species.h">
<polygon fill="white" stroke="black" points="626.5,-58.5 626.5,-79.5 705.5,-79.5 705.5,-58.5 626.5,-58.5"/>
<text text-anchor="middle" x="666" y="-66.5" font-family="DejaVuSans" font-size="10.00">cv_Species.h</text>
</a>
</g>
<!-- Node13&#45;&gt;Node15 -->
<g id="edge42" class="edge"><title>Node13&#45;&gt;Node15</title>
<path fill="none" stroke="midnightblue" d="M449.622,-174.297C432.338,-160.146 407.48,-134.809 423,-116 446.995,-86.9197 552.273,-75.6229 616.125,-71.3934"/>
<polygon fill="midnightblue" stroke="midnightblue" points="616.621,-74.8693 626.383,-70.7509 616.183,-67.883 616.621,-74.8693"/>
</g>
<!-- Node13&#45;&gt;Node16 -->
<g id="edge46" class="edge"><title>Node13&#45;&gt;Node16</title>
<path fill="none" stroke="midnightblue" d="M525.071,-175.321C528.089,-174.868 531.078,-174.426 534,-174 638.304,-158.803 760.368,-142.82 829.294,-133.961"/>
<polygon fill="midnightblue" stroke="midnightblue" points="830.006,-137.399 839.479,-132.654 829.115,-130.455 830.006,-137.399"/>
</g>
<!-- Node17 -->
<g id="node45" class="node"><title>Node17</title>
<a xlink:href="cv___abstract_trait_8h.html" target="_top" xlink:title="cv_AbstractTrait.h">
<polygon fill="white" stroke="black" points="431.5,-116.5 431.5,-137.5 532.5,-137.5 532.5,-116.5 431.5,-116.5"/>
<text text-anchor="middle" x="482" y="-124.5" font-family="DejaVuSans" font-size="10.00">cv_AbstractTrait.h</text>
</a>
</g>
<!-- Node13&#45;&gt;Node17 -->
<g id="edge56" class="edge"><title>Node13&#45;&gt;Node17</title>
<path fill="none" stroke="midnightblue" d="M467.301,-174.362C469.661,-166.758 472.909,-156.294 475.751,-147.135"/>
<polygon fill="midnightblue" stroke="midnightblue" points="479.098,-148.159 478.719,-137.571 472.413,-146.084 479.098,-148.159"/>
</g>
<!-- Node15&#45;&gt;Node9 -->
<g id="edge44" class="edge"><title>Node15&#45;&gt;Node9</title>
<path fill="none" stroke="midnightblue" d="M679.389,-58.3619C690.091,-49.859 705.296,-37.7785 717.671,-27.9466"/>
<polygon fill="midnightblue" stroke="midnightblue" points="720.043,-30.5318 725.696,-21.5707 715.689,-25.0511 720.043,-30.5318"/>
</g>
<!-- Node16&#45;&gt;Node8 -->
<g id="edge52" class="edge"><title>Node16&#45;&gt;Node8</title>
<path fill="none" stroke="midnightblue" d="M887.38,-116.267C892.922,-100.603 905.527,-71.8416 927,-58 977.424,-25.4967 1153.58,-15.2888 1237.24,-12.233"/>
<polygon fill="midnightblue" stroke="midnightblue" points="1237.58,-15.7235 1247.45,-11.8789 1237.33,-8.7277 1237.58,-15.7235"/>
</g>
<!-- Node16&#45;&gt;Node9 -->
<g id="edge48" class="edge"><title>Node16&#45;&gt;Node9</title>
<path fill="none" stroke="midnightblue" d="M876.804,-116.093C866.761,-101.485 847.355,-75.3945 826,-58 810.2,-45.1301 790.347,-34.0902 773.597,-25.9503"/>
<polygon fill="midnightblue" stroke="midnightblue" points="774.686,-22.5943 764.147,-21.5008 771.704,-28.9274 774.686,-22.5943"/>
</g>
<!-- Node16&#45;&gt;Node12 -->
<g id="edge50" class="edge"><title>Node16&#45;&gt;Node12</title>
<path fill="none" stroke="midnightblue" d="M897.206,-116.362C907.761,-107.859 922.758,-95.7785 934.963,-85.9466"/>
<polygon fill="midnightblue" stroke="midnightblue" points="937.286,-88.5696 942.878,-79.5707 932.895,-83.1183 937.286,-88.5696"/>
</g>
<!-- Node16&#45;&gt;Node15 -->
<g id="edge54" class="edge"><title>Node16&#45;&gt;Node15</title>
<path fill="none" stroke="midnightblue" d="M844.522,-116.497C808.367,-106.877 754.696,-92.5981 715.647,-82.209"/>
<polygon fill="midnightblue" stroke="midnightblue" points="716.116,-78.7119 705.552,-79.5231 714.316,-85.4766 716.116,-78.7119"/>
</g>
<!-- Node17&#45;&gt;Node9 -->
<g id="edge58" class="edge"><title>Node17&#45;&gt;Node9</title>
<path fill="none" stroke="midnightblue" d="M501.524,-116.322C527.675,-102.199 575.694,-76.893 618,-58 646.033,-45.4813 678.495,-32.9766 702.735,-24.0161"/>
<polygon fill="midnightblue" stroke="midnightblue" points="704.07,-27.2543 712.252,-20.5235 701.659,-20.6828 704.07,-27.2543"/>
</g>
<!-- Node17&#45;&gt;Node15 -->
<g id="edge60" class="edge"><title>Node17&#45;&gt;Node15</title>
<path fill="none" stroke="midnightblue" d="M515.321,-116.497C545.448,-107 589.983,-92.9619 622.828,-82.6087"/>
<polygon fill="midnightblue" stroke="midnightblue" points="624.131,-85.8676 632.616,-79.5231 622.027,-79.1914 624.131,-85.8676"/>
</g>
<!-- Node18&#45;&gt;Node9 -->
<g id="edge64" class="edge"><title>Node18&#45;&gt;Node9</title>
<path fill="none" stroke="midnightblue" d="M694.288,-174.443C734.655,-166.509 780.752,-154.224 793,-138 818.903,-103.688 781.964,-55.0816 757.552,-29.0767"/>
<polygon fill="midnightblue" stroke="midnightblue" points="759.938,-26.51 750.461,-21.7727 754.915,-31.3858 759.938,-26.51"/>
</g>
<!-- Node18&#45;&gt;Node15 -->
<g id="edge66" class="edge"><title>Node18&#45;&gt;Node15</title>
<path fill="none" stroke="midnightblue" d="M622.789,-174.273C616.777,-160.314 608.72,-135.415 617,-116 622.079,-104.092 631.818,-93.7503 641.285,-85.8235"/>
<polygon fill="midnightblue" stroke="midnightblue" points="643.668,-88.4041 649.41,-79.5002 639.368,-82.8799 643.668,-88.4041"/>
</g>
<!-- Node18&#45;&gt;Node17 -->
<g id="edge68" class="edge"><title>Node18&#45;&gt;Node17</title>
<path fill="none" stroke="midnightblue" d="M601.561,-174.497C578.244,-165.234 544.05,-151.65 518.196,-141.379"/>
<polygon fill="midnightblue" stroke="midnightblue" points="519.322,-138.06 508.736,-137.621 516.737,-144.566 519.322,-138.06"/>
</g>
<!-- Node19&#45;&gt;Node8 -->
<g id="edge74" class="edge"><title>Node19&#45;&gt;Node8</title>
<path fill="none" stroke="midnightblue" d="M1003.88,-232.828C1045.76,-224.415 1105.08,-211.38 1156,-196 1173.4,-190.743 1298.41,-152.781 1309,-138 1329.71,-109.083 1320.71,-92.2165 1311,-58 1308.19,-48.0813 1302.62,-38.2026 1297.11,-30.0804"/>
<polygon fill="midnightblue" stroke="midnightblue" points="1299.77,-27.7851 1291.06,-21.748 1294.1,-31.8969 1299.77,-27.7851"/>
</g>
<!-- Node19&#45;&gt;Node11 -->
<g id="edge78" class="edge"><title>Node19&#45;&gt;Node11</title>
<path fill="none" stroke="midnightblue" d="M971.731,-232.497C990.474,-223.438 1017.77,-210.246 1038.84,-200.063"/>
<polygon fill="midnightblue" stroke="midnightblue" points="1040.54,-203.124 1048.03,-195.621 1037.5,-196.822 1040.54,-203.124"/>
</g>
<!-- Node19&#45;&gt;Node12 -->
<g id="edge72" class="edge"><title>Node19&#45;&gt;Node12</title>
<path fill="none" stroke="midnightblue" d="M937.811,-232.424C928.75,-223.699 917.108,-210.443 912,-196 908.74,-186.782 909.078,-183.331 912,-174 917.822,-155.411 928.741,-155.642 937,-138 944.233,-122.55 949.173,-103.825 952.198,-89.7826"/>
<polygon fill="midnightblue" stroke="midnightblue" points="955.691,-90.1688 954.222,-79.6762 948.827,-88.7944 955.691,-90.1688"/>
</g>
<!-- Node19&#45;&gt;Node13 -->
<g id="edge76" class="edge"><title>Node19&#45;&gt;Node13</title>
<path fill="none" stroke="midnightblue" d="M896.388,-237.694C819.006,-229.869 671.269,-214.31 535.249,-196.125"/>
<polygon fill="midnightblue" stroke="midnightblue" points="535.438,-192.619 525.061,-194.755 534.505,-199.557 535.438,-192.619"/>
</g>
<!-- Node20 -->
<g id="node60" class="node"><title>Node20</title>
<a xlink:href="cv___super_effect_8h.html" target="_top" xlink:title="../Datatypes/cv_SuperEffect.h">
<polygon fill="white" stroke="black" points="626,-116.5 626,-137.5 784,-137.5 784,-116.5 626,-116.5"/>
<text text-anchor="middle" x="705" y="-124.5" font-family="DejaVuSans" font-size="10.00">../Datatypes/cv_SuperEffect.h</text>
</a>
</g>
<!-- Node19&#45;&gt;Node20 -->
<g id="edge80" class="edge"><title>Node19&#45;&gt;Node20</title>
<path fill="none" stroke="midnightblue" d="M927.39,-232.295C883.431,-211.482 786.372,-165.527 736.275,-141.808"/>
<polygon fill="midnightblue" stroke="midnightblue" points="737.737,-138.628 727.201,-137.512 734.742,-144.954 737.737,-138.628"/>
</g>
<!-- Node19&#45;&gt;Node21 -->
<g id="edge84" class="edge"><title>Node19&#45;&gt;Node21</title>
<path fill="none" stroke="midnightblue" d="M949.633,-232.362C949.377,-224.922 949.026,-214.743 948.715,-205.728"/>
<polygon fill="midnightblue" stroke="midnightblue" points="952.207,-205.444 948.365,-195.571 945.211,-205.685 952.207,-205.444"/>
</g>
<!-- Node20&#45;&gt;Node15 -->
<g id="edge82" class="edge"><title>Node20&#45;&gt;Node15</title>
<path fill="none" stroke="midnightblue" d="M697.847,-116.362C692.514,-108.431 685.089,-97.3885 678.749,-87.9606"/>
<polygon fill="midnightblue" stroke="midnightblue" points="681.592,-85.9161 673.108,-79.5707 675.783,-89.8221 681.592,-85.9161"/>
</g>
<!-- Node22&#45;&gt;Node8 -->
<g id="edge94" class="edge"><title>Node22&#45;&gt;Node8</title>
<path fill="none" stroke="midnightblue" d="M1650.02,-232.257C1651.66,-208.737 1652.42,-151.919 1626,-116 1593.02,-71.1625 1567.47,-76.577 1515,-58 1451.58,-35.5459 1374.43,-22.6292 1326.77,-16.2092"/>
<polygon fill="midnightblue" stroke="midnightblue" points="1327.14,-12.7279 1316.77,-14.8997 1326.23,-19.6687 1327.14,-12.7279"/>
</g>
<!-- Node23 -->
<g id="node71" class="node"><title>Node23</title>
<polygon fill="white" stroke="#bfbfbf" points="1339,-174.5 1339,-195.5 1421,-195.5 1421,-174.5 1339,-174.5"/>
<text text-anchor="middle" x="1380" y="-182.5" font-family="DejaVuSans" font-size="10.00">QHBoxLayout</text>
</g>
<!-- Node22&#45;&gt;Node23 -->
<g id="edge96" class="edge"><title>Node22&#45;&gt;Node23</title>
<path fill="none" stroke="midnightblue" d="M1616.34,-236.045C1575.45,-227.327 1503,-211.84 1431.31,-196.277"/>
<polygon fill="midnightblue" stroke="midnightblue" points="1431.71,-192.783 1421.2,-194.081 1430.23,-199.624 1431.71,-192.783"/>
</g>
<!-- Node24 -->
<g id="node73" class="node"><title>Node24</title>
<polygon fill="white" stroke="#bfbfbf" points="1795,-174.5 1795,-195.5 1845,-195.5 1845,-174.5 1795,-174.5"/>
<text text-anchor="middle" x="1820" y="-182.5" font-family="DejaVuSans" font-size="10.00">QLabel</text>
</g>
<!-- Node22&#45;&gt;Node24 -->
<g id="edge98" class="edge"><title>Node22&#45;&gt;Node24</title>
<path fill="none" stroke="midnightblue" d="M1679.97,-232.497C1709.67,-222.422 1754.44,-207.237 1785.32,-196.762"/>
<polygon fill="midnightblue" stroke="midnightblue" points="1786.48,-200.066 1794.82,-193.539 1784.23,-193.437 1786.48,-200.066"/>
</g>
<!-- Node25 -->
<g id="node75" class="node"><title>Node25</title>
<polygon fill="white" stroke="#bfbfbf" points="1241,-174.5 1241,-195.5 1321,-195.5 1321,-174.5 1241,-174.5"/>
<text text-anchor="middle" x="1281" y="-182.5" font-family="DejaVuSans" font-size="10.00">QPushButton</text>
</g>
<!-- Node22&#45;&gt;Node25 -->
<g id="edge100" class="edge"><title>Node22&#45;&gt;Node25</title>
<path fill="none" stroke="midnightblue" d="M1616.26,-238.995C1560.02,-231.939 1441.25,-216.266 1331.02,-196.088"/>
<polygon fill="midnightblue" stroke="midnightblue" points="1331.53,-192.624 1321.06,-194.249 1330.26,-199.507 1331.53,-192.624"/>
</g>
<!-- Node26 -->
<g id="node77" class="node"><title>Node26</title>
<polygon fill="white" stroke="#bfbfbf" points="1677,-174.5 1677,-195.5 1739,-195.5 1739,-174.5 1677,-174.5"/>
<text text-anchor="middle" x="1708" y="-182.5" font-family="DejaVuSans" font-size="10.00">QLineEdit</text>
</g>
<!-- Node22&#45;&gt;Node26 -->
<g id="edge102" class="edge"><title>Node22&#45;&gt;Node26</title>
<path fill="none" stroke="midnightblue" d="M1659.82,-232.362C1668.22,-224.104 1680.05,-212.472 1689.89,-202.803"/>
<polygon fill="midnightblue" stroke="midnightblue" points="1692.57,-205.077 1697.25,-195.571 1687.66,-200.085 1692.57,-205.077"/>
</g>
<!-- Node27 -->
<g id="node79" class="node"><title>Node27</title>
<a xlink:href="_trait_dots_8h.html" target="_top" xlink:title="TraitDots.h">
<polygon fill="white" stroke="black" points="1553,-174.5 1553,-195.5 1621,-195.5 1621,-174.5 1553,-174.5"/>
<text text-anchor="middle" x="1587" y="-182.5" font-family="DejaVuSans" font-size="10.00">TraitDots.h</text>
</a>
</g>
<!-- Node22&#45;&gt;Node27 -->
<g id="edge104" class="edge"><title>Node22&#45;&gt;Node27</title>
<path fill="none" stroke="midnightblue" d="M1637.63,-232.362C1628.71,-224.023 1616.12,-212.242 1605.72,-202.516"/>
<polygon fill="midnightblue" stroke="midnightblue" points="1607.99,-199.846 1598.3,-195.571 1603.21,-204.958 1607.99,-199.846"/>
</g>
<!-- Node30 -->
<g id="node86" class="node"><title>Node30</title>
<polygon fill="white" stroke="#bfbfbf" points="1739,-116.5 1739,-137.5 1795,-137.5 1795,-116.5 1739,-116.5"/>
<text text-anchor="middle" x="1767" y="-124.5" font-family="DejaVuSans" font-size="10.00">QWidget</text>
</g>
<!-- Node22&#45;&gt;Node30 -->
<g id="edge124" class="edge"><title>Node22&#45;&gt;Node30</title>
<path fill="none" stroke="midnightblue" d="M1681.95,-235.068C1703.67,-228.2 1731.12,-216.113 1748,-196 1759.33,-182.499 1763.94,-162.776 1765.79,-147.871"/>
<polygon fill="midnightblue" stroke="midnightblue" points="1769.31,-147.874 1766.74,-137.595 1762.34,-147.23 1769.31,-147.874"/>
</g>
<!-- Node31 -->
<g id="node88" class="node"><title>Node31</title>
<a xlink:href="_trait_specialties_8h.html" target="_top" xlink:title="TraitSpecialties.h">
<polygon fill="white" stroke="black" points="1438.5,-174.5 1438.5,-195.5 1535.5,-195.5 1535.5,-174.5 1438.5,-174.5"/>
<text text-anchor="middle" x="1487" y="-182.5" font-family="DejaVuSans" font-size="10.00">TraitSpecialties.h</text>
</a>
</g>
<!-- Node22&#45;&gt;Node31 -->
<g id="edge114" class="edge"><title>Node22&#45;&gt;Node31</title>
<path fill="none" stroke="midnightblue" d="M1619.66,-232.497C1593.48,-223.123 1554.94,-209.324 1526.14,-199.012"/>
<polygon fill="midnightblue" stroke="midnightblue" points="1526.99,-195.599 1516.39,-195.523 1524.63,-202.189 1526.99,-195.599"/>
</g>
<!-- Node27&#45;&gt;Node12 -->
<g id="edge108" class="edge"><title>Node27&#45;&gt;Node12</title>
<path fill="none" stroke="midnightblue" d="M1580.33,-174.293C1569.75,-158.384 1547.47,-128.989 1520,-116 1471.64,-93.1389 1097.5,-75.1643 986.773,-70.3032"/>
<polygon fill="midnightblue" stroke="midnightblue" points="986.752,-66.7991 976.61,-69.8615 986.449,-73.7925 986.752,-66.7991"/>
</g>
<!-- Node28 -->
<g id="node81" class="node"><title>Node28</title>
<polygon fill="white" stroke="#bfbfbf" points="1251.5,-116.5 1251.5,-137.5 1300.5,-137.5 1300.5,-116.5 1251.5,-116.5"/>
<text text-anchor="middle" x="1276" y="-124.5" font-family="DejaVuSans" font-size="10.00">QColor</text>
</g>
<!-- Node27&#45;&gt;Node28 -->
<g id="edge106" class="edge"><title>Node27&#45;&gt;Node28</title>
<path fill="none" stroke="midnightblue" d="M1552.79,-175.996C1549.82,-175.292 1546.86,-174.616 1544,-174 1460.79,-156.088 1361.95,-140.107 1310.7,-132.212"/>
<polygon fill="midnightblue" stroke="midnightblue" points="1310.92,-128.706 1300.51,-130.653 1309.87,-135.625 1310.92,-128.706"/>
</g>
<!-- Node29 -->
<g id="node84" class="node"><title>Node29</title>
<polygon fill="white" stroke="#bfbfbf" points="1566.5,-116.5 1566.5,-137.5 1617.5,-137.5 1617.5,-116.5 1566.5,-116.5"/>
<text text-anchor="middle" x="1592" y="-124.5" font-family="DejaVuSans" font-size="10.00">QEvent</text>
</g>
<!-- Node27&#45;&gt;Node29 -->
<g id="edge110" class="edge"><title>Node27&#45;&gt;Node29</title>
<path fill="none" stroke="midnightblue" d="M1587.92,-174.362C1588.56,-166.922 1589.44,-156.743 1590.21,-147.728"/>
<polygon fill="midnightblue" stroke="midnightblue" points="1593.72,-147.834 1591.09,-137.571 1586.74,-147.233 1593.72,-147.834"/>
</g>
<!-- Node27&#45;&gt;Node30 -->
<g id="edge112" class="edge"><title>Node27&#45;&gt;Node30</title>
<path fill="none" stroke="midnightblue" d="M1619.6,-174.497C1650.45,-164.556 1696.74,-149.64 1729.19,-139.182"/>
<polygon fill="midnightblue" stroke="midnightblue" points="1730.34,-142.489 1738.79,-136.09 1728.2,-135.826 1730.34,-142.489"/>
</g>
<!-- Node31&#45;&gt;Node9 -->
<g id="edge116" class="edge"><title>Node31&#45;&gt;Node9</title>
<path fill="none" stroke="midnightblue" d="M1461.59,-174.416C1427.26,-160.288 1364.03,-134.857 1309,-116 1223.87,-86.8249 1203.06,-76.5339 1115,-58 992.176,-32.1504 843.581,-18.7253 775.851,-13.5633"/>
<polygon fill="midnightblue" stroke="midnightblue" points="775.924,-10.0591 765.691,-12.8051 775.403,-17.0397 775.924,-10.0591"/>
</g>
<!-- Node31&#45;&gt;Node16 -->
<g id="edge118" class="edge"><title>Node31&#45;&gt;Node16</title>
<path fill="none" stroke="midnightblue" d="M1438.24,-175.242C1435.46,-174.793 1432.7,-174.375 1430,-174 1251.16,-149.116 1037.41,-135.296 938.796,-129.812"/>
<polygon fill="midnightblue" stroke="midnightblue" points="938.942,-126.315 928.765,-129.261 938.558,-133.305 938.942,-126.315"/>
</g>
<!-- Node32 -->
<g id="node92" class="node"><title>Node32</title>
<a xlink:href="_checked_list_8h.html" target="_top" xlink:title="CheckedList.h">
<polygon fill="white" stroke="black" points="1428.5,-116.5 1428.5,-137.5 1511.5,-137.5 1511.5,-116.5 1428.5,-116.5"/>
<text text-anchor="middle" x="1470" y="-124.5" font-family="DejaVuSans" font-size="10.00">CheckedList.h</text>
</a>
</g>
<!-- Node31&#45;&gt;Node32 -->
<g id="edge120" class="edge"><title>Node31&#45;&gt;Node32</title>
<path fill="none" stroke="midnightblue" d="M1483.88,-174.362C1481.68,-166.84 1478.65,-156.519 1475.99,-147.431"/>
<polygon fill="midnightblue" stroke="midnightblue" points="1479.27,-146.182 1473.1,-137.571 1472.55,-148.151 1479.27,-146.182"/>
</g>
<!-- Node33 -->
<g id="node94" class="node"><title>Node33</title>
<polygon fill="white" stroke="#bfbfbf" points="1433.5,-58.5 1433.5,-79.5 1506.5,-79.5 1506.5,-58.5 1433.5,-58.5"/>
<text text-anchor="middle" x="1470" y="-66.5" font-family="DejaVuSans" font-size="10.00">QListWidget</text>
</g>
<!-- Node32&#45;&gt;Node33 -->
<g id="edge122" class="edge"><title>Node32&#45;&gt;Node33</title>
<path fill="none" stroke="midnightblue" d="M1470,-116.362C1470,-108.922 1470,-98.7427 1470,-89.7276"/>
<polygon fill="midnightblue" stroke="midnightblue" points="1473.5,-89.5706 1470,-79.5707 1466.5,-89.5707 1473.5,-89.5706"/>
</g>
<!-- Node34&#45;&gt;Node7 -->
<g id="edge136" class="edge"><title>Node34&#45;&gt;Node7</title>
<path fill="none" stroke="midnightblue" d="M349.372,-233.765C354.32,-233.15 359.235,-232.555 364,-232 522.839,-213.493 563.378,-216.286 722,-196 854.116,-179.104 1007.5,-154.053 1095.02,-139.24"/>
<polygon fill="midnightblue" stroke="midnightblue" points="1095.83,-142.654 1105.1,-137.53 1094.66,-135.752 1095.83,-142.654"/>
</g>
<!-- Node34&#45;&gt;Node9 -->
<g id="edge128" class="edge"><title>Node34&#45;&gt;Node9</title>
<path fill="none" stroke="midnightblue" d="M281.183,-232.338C282.016,-209.454 286.415,-154.58 309,-116 328.561,-82.5867 338.78,-74.0806 374,-58 432.056,-31.4932 621.788,-17.7342 702.322,-12.9695"/>
<polygon fill="midnightblue" stroke="midnightblue" points="702.706,-16.4532 712.487,-12.3817 702.302,-9.46486 702.706,-16.4532"/>
</g>
<!-- Node34&#45;&gt;Node13 -->
<g id="edge130" class="edge"><title>Node34&#45;&gt;Node13</title>
<path fill="none" stroke="midnightblue" d="M314.14,-232.497C344.103,-223 388.396,-208.962 421.062,-198.609"/>
<polygon fill="midnightblue" stroke="midnightblue" points="422.323,-201.881 430.798,-195.523 420.208,-195.208 422.323,-201.881"/>
</g>
<!-- Node35 -->
<g id="node101" class="node"><title>Node35</title>
<a xlink:href="cv___shape_8h.html" target="_top" xlink:title="../Datatypes/cv_Shape.h">
<polygon fill="white" stroke="black" points="100,-58.5 100,-79.5 234,-79.5 234,-58.5 100,-58.5"/>
<text text-anchor="middle" x="167" y="-66.5" font-family="DejaVuSans" font-size="10.00">../Datatypes/cv_Shape.h</text>
</a>
</g>
<!-- Node34&#45;&gt;Node35 -->
<g id="edge132" class="edge"><title>Node34&#45;&gt;Node35</title>
<path fill="none" stroke="midnightblue" d="M273.26,-232.267C266.484,-222.801 256.431,-208.593 248,-196 222.715,-158.232 194.429,-113.211 178.871,-88.1923"/>
<polygon fill="midnightblue" stroke="midnightblue" points="181.81,-86.2914 173.564,-79.6397 175.862,-89.9822 181.81,-86.2914"/>
</g>
<!-- Node34&#45;&gt;Node36 -->
<g id="edge138" class="edge"><title>Node34&#45;&gt;Node36</title>
<path fill="none" stroke="midnightblue" d="M256.734,-232.497C235.522,-223.315 204.502,-209.889 180.85,-199.652"/>
<polygon fill="midnightblue" stroke="midnightblue" points="182.106,-196.381 171.539,-195.621 179.326,-202.806 182.106,-196.381"/>
</g>
<!-- Node35&#45;&gt;Node9 -->
<g id="edge134" class="edge"><title>Node35&#45;&gt;Node9</title>
<path fill="none" stroke="midnightblue" d="M234.158,-59.6717C238.84,-59.0854 243.489,-58.522 248,-58 417.333,-38.4054 620.203,-20.8656 702.068,-14.0328"/>
<polygon fill="midnightblue" stroke="midnightblue" points="702.674,-17.4946 712.349,-13.178 702.093,-10.5187 702.674,-17.4946"/>
</g>
<!-- Node36&#45;&gt;Node9 -->
<g id="edge140" class="edge"><title>Node36&#45;&gt;Node9</title>
<path fill="none" stroke="midnightblue" d="M135.421,-174.493C110.82,-150.954 58.1775,-93.2893 91,-58 111.942,-35.4837 567.509,-17.2202 701.963,-12.3053"/>
<polygon fill="midnightblue" stroke="midnightblue" points="702.298,-15.7955 712.165,-11.9355 702.044,-8.80009 702.298,-15.7955"/>
</g>
<!-- Node36&#45;&gt;Node28 -->
<g id="edge142" class="edge"><title>Node36&#45;&gt;Node28</title>
<path fill="none" stroke="midnightblue" d="M196.206,-182.778C246.055,-180.534 325.386,-176.983 394,-174 579.526,-165.935 1041.6,-171.982 1241.44,-137.812"/>
<polygon fill="midnightblue" stroke="midnightblue" points="1242.1,-141.249 1251.33,-136.047 1240.87,-134.358 1242.1,-141.249"/>
</g>
<!-- Node37 -->
<g id="node109" class="node"><title>Node37</title>
<polygon fill="white" stroke="#bfbfbf" points="-0.5,-116.5 -0.5,-137.5 44.5,-137.5 44.5,-116.5 -0.5,-116.5"/>
<text text-anchor="middle" x="22" y="-124.5" font-family="DejaVuSans" font-size="10.00">QFont</text>
</g>
<!-- Node36&#45;&gt;Node37 -->
<g id="edge144" class="edge"><title>Node36&#45;&gt;Node37</title>
<path fill="none" stroke="midnightblue" d="M124.363,-174.497C104.752,-165.397 76.1536,-152.127 54.1667,-141.925"/>
<polygon fill="midnightblue" stroke="midnightblue" points="55.4348,-138.655 44.8906,-137.621 52.4885,-145.005 55.4348,-138.655"/>
</g>
<!-- Node39&#45;&gt;Node3 -->
<g id="edge156" class="edge"><title>Node39&#45;&gt;Node3</title>
<path fill="none" stroke="midnightblue" d="M671.734,-353.337C619.659,-345.885 527.197,-331.641 439.046,-312.068"/>
<polygon fill="midnightblue" stroke="midnightblue" points="439.677,-308.623 429.153,-309.845 438.142,-315.452 439.677,-308.623"/>
</g>
<!-- Node39&#45;&gt;Node6 -->
<g id="edge162" class="edge"><title>Node39&#45;&gt;Node6</title>
<path fill="none" stroke="midnightblue" d="M754.2,-349.935C757.178,-349.28 760.135,-348.63 763,-348 815.795,-336.395 875.919,-323.191 918.967,-313.74"/>
<polygon fill="midnightblue" stroke="midnightblue" points="919.961,-317.105 928.978,-311.542 918.46,-310.268 919.961,-317.105"/>
</g>
<!-- Node39&#45;&gt;Node13 -->
<g id="edge164" class="edge"><title>Node39&#45;&gt;Node13</title>
<path fill="none" stroke="midnightblue" d="M698.507,-348.441C685.805,-339.087 666.936,-324.945 651,-312 608.941,-277.836 604.098,-262.038 559,-232 540.09,-219.404 517.32,-208.025 498.814,-199.619"/>
<polygon fill="midnightblue" stroke="midnightblue" points="500.127,-196.373 489.568,-195.504 497.281,-202.768 500.127,-196.373"/>
</g>
<!-- Node39&#45;&gt;Node16 -->
<g id="edge166" class="edge"><title>Node39&#45;&gt;Node16</title>
<path fill="none" stroke="midnightblue" d="M702.584,-348.109C690.797,-334.396 674.41,-310.188 684,-290 718.705,-216.945 803.948,-165.856 851.174,-142.09"/>
<polygon fill="midnightblue" stroke="midnightblue" points="852.936,-145.124 860.364,-137.569 849.846,-138.842 852.936,-145.124"/>
</g>
<!-- Node39&#45;&gt;Node19 -->
<g id="edge160" class="edge"><title>Node39&#45;&gt;Node19</title>
<path fill="none" stroke="midnightblue" d="M734.872,-348.295C777.307,-327.525 870.895,-281.718 919.443,-257.956"/>
<polygon fill="midnightblue" stroke="midnightblue" points="921.08,-261.052 928.524,-253.512 918.003,-254.764 921.08,-261.052"/>
</g>
<!-- Node39&#45;&gt;Node23 -->
<g id="edge152" class="edge"><title>Node39&#45;&gt;Node23</title>
<path fill="none" stroke="midnightblue" d="M754.131,-349.571C757.125,-349.001 760.105,-348.47 763,-348 913.43,-323.59 957.051,-352.388 1104,-312 1200.55,-285.463 1305.69,-228.442 1353.58,-200.744"/>
<polygon fill="midnightblue" stroke="midnightblue" points="1355.5,-203.675 1362.37,-195.613 1351.97,-197.629 1355.5,-203.675"/>
</g>
<!-- Node39&#45;&gt;Node25 -->
<g id="edge158" class="edge"><title>Node39&#45;&gt;Node25</title>
<path fill="none" stroke="midnightblue" d="M754.138,-349.614C757.131,-349.034 760.108,-348.489 763,-348 896.718,-325.404 937.525,-355.419 1066,-312 1142.8,-286.044 1222.13,-230.239 1259.31,-202.045"/>
<polygon fill="midnightblue" stroke="midnightblue" points="1261.61,-204.69 1267.41,-195.826 1257.35,-199.136 1261.61,-204.69"/>
</g>
<!-- Node39&#45;&gt;Node30 -->
<g id="edge174" class="edge"><title>Node39&#45;&gt;Node30</title>
<path fill="none" stroke="midnightblue" d="M754.125,-349.531C757.12,-348.971 760.102,-348.452 763,-348 932.8,-321.487 977,-329.144 1148,-312 1464.4,-280.28 1670.42,-455.642 1854,-196 1871.27,-171.57 1835.62,-151.401 1804.88,-139.305"/>
<polygon fill="midnightblue" stroke="midnightblue" points="1805.73,-135.888 1795.14,-135.667 1803.28,-142.445 1805.73,-135.888"/>
</g>
<!-- Node40 -->
<g id="node117" class="node"><title>Node40</title>
<polygon fill="white" stroke="#bfbfbf" points="692.5,-290.5 692.5,-311.5 765.5,-311.5 765.5,-290.5 692.5,-290.5"/>
<text text-anchor="middle" x="729" y="-298.5" font-family="DejaVuSans" font-size="10.00">QScrollArea</text>
</g>
<!-- Node39&#45;&gt;Node40 -->
<g id="edge154" class="edge"><title>Node39&#45;&gt;Node40</title>
<path fill="none" stroke="midnightblue" d="M715.935,-348.362C718.01,-340.84 720.857,-330.519 723.364,-321.431"/>
<polygon fill="midnightblue" stroke="midnightblue" points="726.799,-322.141 726.084,-311.571 720.051,-320.28 726.799,-322.141"/>
</g>
<!-- Node41 -->
<g id="node125" class="node"><title>Node41</title>
<a xlink:href="_select_merits_dialog_8h.html" target="_top" xlink:title="Dialogs/SelectMeritsDialog.h">
<polygon fill="white" stroke="black" points="446.5,-290.5 446.5,-311.5 599.5,-311.5 599.5,-290.5 446.5,-290.5"/>
<text text-anchor="middle" x="523" y="-298.5" font-family="DejaVuSans" font-size="10.00">Dialogs/SelectMeritsDialog.h</text>
</a>
</g>
<!-- Node39&#45;&gt;Node41 -->
<g id="edge168" class="edge"><title>Node39&#45;&gt;Node41</title>
<path fill="none" stroke="midnightblue" d="M678.592,-348.497C647.349,-338.959 601.099,-324.841 567.142,-314.475"/>
<polygon fill="midnightblue" stroke="midnightblue" points="568.058,-311.095 557.472,-311.523 566.015,-317.79 568.058,-311.095"/>
</g>
<!-- Node41&#45;&gt;Node2 -->
<g id="edge170" class="edge"><title>Node41&#45;&gt;Node2</title>
<path fill="none" stroke="midnightblue" d="M502.718,-290.497C485.382,-281.519 460.21,-268.484 440.62,-258.339"/>
<polygon fill="midnightblue" stroke="midnightblue" points="441.999,-255.112 431.51,-253.621 438.78,-261.328 441.999,-255.112"/>
</g>
<!-- Node42 -->
<g id="node128" class="node"><title>Node42</title>
<polygon fill="white" stroke="#bfbfbf" points="496,-232.5 496,-253.5 550,-253.5 550,-232.5 496,-232.5"/>
<text text-anchor="middle" x="523" y="-240.5" font-family="DejaVuSans" font-size="10.00">QDialog</text>
</g>
<!-- Node41&#45;&gt;Node42 -->
<g id="edge172" class="edge"><title>Node41&#45;&gt;Node42</title>
<path fill="none" stroke="midnightblue" d="M523,-290.362C523,-282.922 523,-272.743 523,-263.728"/>
<polygon fill="midnightblue" stroke="midnightblue" points="526.5,-263.571 523,-253.571 519.5,-263.571 526.5,-263.571"/>
</g>
</g>
</svg>
