<?xml version="1.0" encoding="UTF-8" standalone="no"?>
<!DOCTYPE svg PUBLIC "-//W3C//DTD SVG 1.1//EN"
 "http://www.w3.org/Graphics/SVG/1.1/DTD/svg11.dtd">
<!-- Generated by graphviz version 2.26.3 (20100126.1600)
 -->
<!-- Title: G Pages: 1 -->
<svg width="1265pt" height="320pt"
 viewBox="0.00 0.00 1265.00 320.00" xmlns="http://www.w3.org/2000/svg" xmlns:xlink="http://www.w3.org/1999/xlink">
<g id="graph1" class="graph" transform="scale(1 1) rotate(0) translate(4 316)">
<title>G</title>
<polygon fill="white" stroke="white" points="-4,5 -4,-316 1262,-316 1262,5 -4,5"/>
<!-- Node1 -->
<g id="node1" class="node"><title>Node1</title>
<polygon fill="#bfbfbf" stroke="black" points="758.5,-290.5 758.5,-311.5 909.5,-311.5 909.5,-290.5 758.5,-290.5"/>
<text text-anchor="middle" x="834" y="-298.5" font-family="DejaVuSans" font-size="10.00">src/Widgets/MeritWidget.cpp</text>
</g>
<!-- Node2 -->
<g id="node3" class="node"><title>Node2</title>
<polygon fill="white" stroke="#bfbfbf" points="691,-232.5 691,-253.5 747,-253.5 747,-232.5 691,-232.5"/>
<text text-anchor="middle" x="719" y="-240.5" font-family="DejaVuSans" font-size="10.00">QDebug</text>
</g>
<!-- Node1&#45;&gt;Node2 -->
<g id="edge2" class="edge"><title>Node1&#45;&gt;Node2</title>
<path fill="none" stroke="midnightblue" d="M813.174,-290.497C795.294,-281.479 769.293,-268.365 749.139,-258.201"/>
<polygon fill="midnightblue" stroke="midnightblue" points="750.564,-254.999 740.059,-253.621 747.412,-261.249 750.564,-254.999"/>
</g>
<!-- Node3 -->
<g id="node5" class="node"><title>Node3</title>
<a xlink:href="_chara_trait_8h.html" target="_top" xlink:title="CharaTrait.h">
<polygon fill="white" stroke="black" points="765,-232.5 765,-253.5 839,-253.5 839,-232.5 765,-232.5"/>
<text text-anchor="middle" x="802" y="-240.5" font-family="DejaVuSans" font-size="10.00">CharaTrait.h</text>
</a>
</g>
<!-- Node1&#45;&gt;Node3 -->
<g id="edge4" class="edge"><title>Node1&#45;&gt;Node3</title>
<path fill="none" stroke="midnightblue" d="M828.131,-290.362C823.845,-282.595 817.913,-271.843 812.784,-262.546"/>
<polygon fill="midnightblue" stroke="midnightblue" points="815.727,-260.636 807.832,-253.571 809.598,-264.017 815.727,-260.636"/>
</g>
<!-- Node21 -->
<g id="node42" class="node"><title>Node21</title>
<polygon fill="white" stroke="#bfbfbf" points="894.5,-232.5 894.5,-253.5 1059.5,-253.5 1059.5,-232.5 894.5,-232.5"/>
<text text-anchor="middle" x="977" y="-240.5" font-family="DejaVuSans" font-size="10.00">Widgets/Dialogs/MessageBox.h</text>
</g>
<!-- Node1&#45;&gt;Node21 -->
<g id="edge42" class="edge"><title>Node1&#45;&gt;Node21</title>
<path fill="none" stroke="midnightblue" d="M859.896,-290.497C882.633,-281.275 915.93,-267.769 941.212,-257.515"/>
<polygon fill="midnightblue" stroke="midnightblue" points="942.862,-260.623 950.813,-253.621 940.231,-254.136 942.862,-260.623"/>
</g>
<!-- Node22 -->
<g id="node44" class="node"><title>Node22</title>
<a xlink:href="_merit_widget_8h.html" target="_top" xlink:title="MeritWidget.h">
<polygon fill="white" stroke="black" points="847,-174.5 847,-195.5 929,-195.5 929,-174.5 847,-174.5"/>
<text text-anchor="middle" x="888" y="-182.5" font-family="DejaVuSans" font-size="10.00">MeritWidget.h</text>
</a>
</g>
<!-- Node1&#45;&gt;Node22 -->
<g id="edge44" class="edge"><title>Node1&#45;&gt;Node22</title>
<path fill="none" stroke="midnightblue" d="M838.983,-290.295C848.025,-270.872 867.258,-229.556 878.761,-204.846"/>
<polygon fill="midnightblue" stroke="midnightblue" points="881.981,-206.222 883.029,-195.679 875.635,-203.268 881.981,-206.222"/>
</g>
<!-- Node4 -->
<g id="node7" class="node"><title>Node4</title>
<polygon fill="white" stroke="#bfbfbf" points="726,-116.5 726,-137.5 878,-137.5 878,-116.5 726,-116.5"/>
<text text-anchor="middle" x="802" y="-124.5" font-family="DejaVuSans" font-size="10.00">Storage/StorageCharacter.h</text>
</g>
<!-- Node3&#45;&gt;Node4 -->
<g id="edge6" class="edge"><title>Node3&#45;&gt;Node4</title>
<path fill="none" stroke="midnightblue" d="M802,-232.295C802,-213.131 802,-172.654 802,-147.843"/>
<polygon fill="midnightblue" stroke="midnightblue" points="805.5,-147.679 802,-137.679 798.5,-147.679 805.5,-147.679"/>
</g>
<!-- Node5 -->
<g id="node9" class="node"><title>Node5</title>
<a xlink:href="_trait_line_8h.html" target="_top" xlink:title="TraitLine.h">
<polygon fill="white" stroke="black" points="405.5,-174.5 405.5,-195.5 470.5,-195.5 470.5,-174.5 405.5,-174.5"/>
<text text-anchor="middle" x="438" y="-182.5" font-family="DejaVuSans" font-size="10.00">TraitLine.h</text>
</a>
</g>
<!-- Node3&#45;&gt;Node5 -->
<g id="edge8" class="edge"><title>Node3&#45;&gt;Node5</title>
<path fill="none" stroke="midnightblue" d="M764.904,-233.833C761.898,-233.181 758.902,-232.56 756,-232 658.099,-213.098 541.96,-197.687 480.725,-190.101"/>
<polygon fill="midnightblue" stroke="midnightblue" points="481.015,-186.611 470.663,-188.864 480.161,-193.558 481.015,-186.611"/>
</g>
<!-- Node6 -->
<g id="node11" class="node"><title>Node6</title>
<polygon fill="white" stroke="#bfbfbf" points="403.5,-116.5 403.5,-137.5 472.5,-137.5 472.5,-116.5 403.5,-116.5"/>
<text text-anchor="middle" x="438" y="-124.5" font-family="DejaVuSans" font-size="10.00">QStringList</text>
</g>
<!-- Node5&#45;&gt;Node6 -->
<g id="edge10" class="edge"><title>Node5&#45;&gt;Node6</title>
<path fill="none" stroke="midnightblue" d="M438,-174.362C438,-166.922 438,-156.743 438,-147.728"/>
<polygon fill="midnightblue" stroke="midnightblue" points="441.5,-147.571 438,-137.571 434.5,-147.571 441.5,-147.571"/>
</g>
<!-- Node7 -->
<g id="node13" class="node"><title>Node7</title>
<polygon fill="white" stroke="#bfbfbf" points="626,-116.5 626,-137.5 708,-137.5 708,-116.5 626,-116.5"/>
<text text-anchor="middle" x="667" y="-124.5" font-family="DejaVuSans" font-size="10.00">QHBoxLayout</text>
</g>
<!-- Node5&#45;&gt;Node7 -->
<g id="edge12" class="edge"><title>Node5&#45;&gt;Node7</title>
<path fill="none" stroke="midnightblue" d="M470.81,-176.69C508.753,-167.08 571.667,-151.145 616.003,-139.916"/>
<polygon fill="midnightblue" stroke="midnightblue" points="616.89,-143.302 625.725,-137.454 615.171,-136.516 616.89,-143.302"/>
</g>
<!-- Node8 -->
<g id="node15" class="node"><title>Node8</title>
<polygon fill="white" stroke="#bfbfbf" points="50,-116.5 50,-137.5 100,-137.5 100,-116.5 50,-116.5"/>
<text text-anchor="middle" x="75" y="-124.5" font-family="DejaVuSans" font-size="10.00">QLabel</text>
</g>
<!-- Node5&#45;&gt;Node8 -->
<g id="edge14" class="edge"><title>Node5&#45;&gt;Node8</title>
<path fill="none" stroke="midnightblue" d="M405.439,-182.211C347.663,-176.862 223.386,-163.562 110.001,-137.928"/>
<polygon fill="midnightblue" stroke="midnightblue" points="110.646,-134.485 100.116,-135.655 109.078,-141.307 110.646,-134.485"/>
</g>
<!-- Node9 -->
<g id="node17" class="node"><title>Node9</title>
<polygon fill="white" stroke="#bfbfbf" points="528,-116.5 528,-137.5 608,-137.5 608,-116.5 528,-116.5"/>
<text text-anchor="middle" x="568" y="-124.5" font-family="DejaVuSans" font-size="10.00">QPushButton</text>
</g>
<!-- Node5&#45;&gt;Node9 -->
<g id="edge16" class="edge"><title>Node5&#45;&gt;Node9</title>
<path fill="none" stroke="midnightblue" d="M461.542,-174.497C482.029,-165.356 511.947,-152.008 534.854,-141.788"/>
<polygon fill="midnightblue" stroke="midnightblue" points="536.488,-144.892 544.194,-137.621 533.635,-138.499 536.488,-144.892"/>
</g>
<!-- Node10 -->
<g id="node19" class="node"><title>Node10</title>
<polygon fill="white" stroke="#bfbfbf" points="118,-116.5 118,-137.5 180,-137.5 180,-116.5 118,-116.5"/>
<text text-anchor="middle" x="149" y="-124.5" font-family="DejaVuSans" font-size="10.00">QLineEdit</text>
</g>
<!-- Node5&#45;&gt;Node10 -->
<g id="edge18" class="edge"><title>Node5&#45;&gt;Node10</title>
<path fill="none" stroke="midnightblue" d="M405.193,-179.688C359.218,-172.052 272.836,-157.01 190.179,-138.149"/>
<polygon fill="midnightblue" stroke="midnightblue" points="190.912,-134.726 180.381,-135.891 189.34,-141.547 190.912,-134.726"/>
</g>
<!-- Node11 -->
<g id="node21" class="node"><title>Node11</title>
<a xlink:href="_trait_dots_8h.html" target="_top" xlink:title="TraitDots.h">
<polygon fill="white" stroke="black" points="318,-116.5 318,-137.5 386,-137.5 386,-116.5 318,-116.5"/>
<text text-anchor="middle" x="352" y="-124.5" font-family="DejaVuSans" font-size="10.00">TraitDots.h</text>
</a>
</g>
<!-- Node5&#45;&gt;Node11 -->
<g id="edge20" class="edge"><title>Node5&#45;&gt;Node11</title>
<path fill="none" stroke="midnightblue" d="M422.226,-174.362C409.376,-165.696 391.015,-153.313 376.29,-143.382"/>
<polygon fill="midnightblue" stroke="midnightblue" points="377.921,-140.26 367.674,-137.571 374.007,-146.064 377.921,-140.26"/>
</g>
<!-- Node15 -->
<g id="node29" class="node"><title>Node15</title>
<polygon fill="white" stroke="#bfbfbf" points="520,-58.5 520,-79.5 576,-79.5 576,-58.5 520,-58.5"/>
<text text-anchor="middle" x="548" y="-66.5" font-family="DejaVuSans" font-size="10.00">QWidget</text>
</g>
<!-- Node5&#45;&gt;Node15 -->
<g id="edge40" class="edge"><title>Node5&#45;&gt;Node15</title>
<path fill="none" stroke="midnightblue" d="M448.151,-174.295C466.979,-154.441 507.5,-111.709 530.719,-87.2239"/>
<polygon fill="midnightblue" stroke="midnightblue" points="533.532,-89.3438 537.873,-79.6792 528.453,-84.5271 533.532,-89.3438"/>
</g>
<!-- Node16 -->
<g id="node31" class="node"><title>Node16</title>
<a xlink:href="_trait_specialties_8h.html" target="_top" xlink:title="TraitSpecialties.h">
<polygon fill="white" stroke="black" points="197.5,-116.5 197.5,-137.5 294.5,-137.5 294.5,-116.5 197.5,-116.5"/>
<text text-anchor="middle" x="246" y="-124.5" font-family="DejaVuSans" font-size="10.00">TraitSpecialties.h</text>
</a>
</g>
<!-- Node5&#45;&gt;Node16 -->
<g id="edge30" class="edge"><title>Node5&#45;&gt;Node16</title>
<path fill="none" stroke="midnightblue" d="M405.43,-175.161C373.977,-165.66 326.082,-151.191 290.996,-140.593"/>
<polygon fill="midnightblue" stroke="midnightblue" points="291.593,-137.117 281.008,-137.575 289.569,-143.818 291.593,-137.117"/>
</g>
<!-- Node12 -->
<g id="node23" class="node"><title>Node12</title>
<polygon fill="white" stroke="#bfbfbf" points="327.5,-58.5 327.5,-79.5 376.5,-79.5 376.5,-58.5 327.5,-58.5"/>
<text text-anchor="middle" x="352" y="-66.5" font-family="DejaVuSans" font-size="10.00">QColor</text>
</g>
<!-- Node11&#45;&gt;Node12 -->
<g id="edge22" class="edge"><title>Node11&#45;&gt;Node12</title>
<path fill="none" stroke="midnightblue" d="M352,-116.362C352,-108.922 352,-98.7427 352,-89.7276"/>
<polygon fill="midnightblue" stroke="midnightblue" points="355.5,-89.5706 352,-79.5707 348.5,-89.5707 355.5,-89.5706"/>
</g>
<!-- Node13 -->
<g id="node25" class="node"><title>Node13</title>
<polygon fill="white" stroke="#bfbfbf" points="393.5,-58.5 393.5,-79.5 434.5,-79.5 434.5,-58.5 393.5,-58.5"/>
<text text-anchor="middle" x="414" y="-66.5" font-family="DejaVuSans" font-size="10.00">QList</text>
</g>
<!-- Node11&#45;&gt;Node13 -->
<g id="edge24" class="edge"><title>Node11&#45;&gt;Node13</title>
<path fill="none" stroke="midnightblue" d="M363.372,-116.362C372.286,-108.023 384.879,-96.2418 395.276,-86.5162"/>
<polygon fill="midnightblue" stroke="midnightblue" points="397.789,-88.9582 402.7,-79.5707 393.007,-83.8463 397.789,-88.9582"/>
</g>
<!-- Node14 -->
<g id="node27" class="node"><title>Node14</title>
<polygon fill="white" stroke="#bfbfbf" points="451.5,-58.5 451.5,-79.5 502.5,-79.5 502.5,-58.5 451.5,-58.5"/>
<text text-anchor="middle" x="477" y="-66.5" font-family="DejaVuSans" font-size="10.00">QEvent</text>
</g>
<!-- Node11&#45;&gt;Node14 -->
<g id="edge26" class="edge"><title>Node11&#45;&gt;Node14</title>
<path fill="none" stroke="midnightblue" d="M374.637,-116.497C394.248,-107.397 422.846,-94.1273 444.833,-83.9253"/>
<polygon fill="midnightblue" stroke="midnightblue" points="446.512,-87.0051 454.109,-79.6212 443.565,-80.6554 446.512,-87.0051"/>
</g>
<!-- Node11&#45;&gt;Node15 -->
<g id="edge28" class="edge"><title>Node11&#45;&gt;Node15</title>
<path fill="none" stroke="midnightblue" d="M386.122,-116.93C416.31,-108.018 461.812,-94.5753 510.041,-80.2816"/>
<polygon fill="midnightblue" stroke="midnightblue" points="511.127,-83.6105 519.72,-77.4126 509.137,-76.8991 511.127,-83.6105"/>
</g>
<!-- Node17 -->
<g id="node33" class="node"><title>Node17</title>
<polygon fill="white" stroke="#bfbfbf" points="99.5,-58.5 99.5,-79.5 152.5,-79.5 152.5,-58.5 99.5,-58.5"/>
<text text-anchor="middle" x="126" y="-66.5" font-family="DejaVuSans" font-size="10.00">QString</text>
</g>
<!-- Node16&#45;&gt;Node17 -->
<g id="edge32" class="edge"><title>Node16&#45;&gt;Node17</title>
<path fill="none" stroke="midnightblue" d="M224.269,-116.497C205.526,-107.438 178.233,-94.2462 157.164,-84.0628"/>
<polygon fill="midnightblue" stroke="midnightblue" points="158.502,-80.8217 147.975,-79.6212 155.455,-87.1242 158.502,-80.8217"/>
</g>
<!-- Node18 -->
<g id="node35" class="node"><title>Node18</title>
<polygon fill="white" stroke="#bfbfbf" points="169.5,-58.5 169.5,-79.5 310.5,-79.5 310.5,-58.5 169.5,-58.5"/>
<text text-anchor="middle" x="240" y="-66.5" font-family="DejaVuSans" font-size="10.00">Datatypes/cv_TraitDetail.h</text>
</g>
<!-- Node16&#45;&gt;Node18 -->
<g id="edge34" class="edge"><title>Node16&#45;&gt;Node18</title>
<path fill="none" stroke="midnightblue" d="M244.9,-116.362C244.13,-108.922 243.077,-98.7427 242.144,-89.7276"/>
<polygon fill="midnightblue" stroke="midnightblue" points="245.604,-89.1574 241.094,-79.5707 238.641,-89.8777 245.604,-89.1574"/>
</g>
<!-- Node19 -->
<g id="node37" class="node"><title>Node19</title>
<a xlink:href="_checked_list_8h.html" target="_top" xlink:title="CheckedList.h">
<polygon fill="white" stroke="black" points="-0.5,-58.5 -0.5,-79.5 82.5,-79.5 82.5,-58.5 -0.5,-58.5"/>
<text text-anchor="middle" x="41" y="-66.5" font-family="DejaVuSans" font-size="10.00">CheckedList.h</text>
</a>
</g>
<!-- Node16&#45;&gt;Node19 -->
<g id="edge36" class="edge"><title>Node16&#45;&gt;Node19</title>
<path fill="none" stroke="midnightblue" d="M208.876,-116.497C175.021,-106.918 124.836,-92.7196 88.1563,-82.3418"/>
<polygon fill="midnightblue" stroke="midnightblue" points="88.7687,-78.8777 78.1936,-79.5231 86.863,-85.6133 88.7687,-78.8777"/>
</g>
<!-- Node20 -->
<g id="node39" class="node"><title>Node20</title>
<polygon fill="white" stroke="#bfbfbf" points="4.5,-0.5 4.5,-21.5 77.5,-21.5 77.5,-0.5 4.5,-0.5"/>
<text text-anchor="middle" x="41" y="-8.5" font-family="DejaVuSans" font-size="10.00">QListWidget</text>
</g>
<!-- Node19&#45;&gt;Node20 -->
<g id="edge38" class="edge"><title>Node19&#45;&gt;Node20</title>
<path fill="none" stroke="midnightblue" d="M41,-58.3619C41,-50.9219 41,-40.7427 41,-31.7276"/>
<polygon fill="midnightblue" stroke="midnightblue" points="44.5001,-31.5706 41,-21.5707 37.5001,-31.5707 44.5001,-31.5706"/>
</g>
<!-- Node22&#45;&gt;Node4 -->
<g id="edge54" class="edge"><title>Node22&#45;&gt;Node4</title>
<path fill="none" stroke="midnightblue" d="M872.226,-174.362C859.376,-165.696 841.015,-153.313 826.29,-143.382"/>
<polygon fill="midnightblue" stroke="midnightblue" points="827.921,-140.26 817.674,-137.571 824.007,-146.064 827.921,-140.26"/>
</g>
<!-- Node22&#45;&gt;Node7 -->
<g id="edge46" class="edge"><title>Node22&#45;&gt;Node7</title>
<path fill="none" stroke="midnightblue" d="M847.979,-174.497C811.17,-164.836 756.454,-150.477 716.826,-140.077"/>
<polygon fill="midnightblue" stroke="midnightblue" points="717.657,-136.676 707.096,-137.523 715.88,-143.447 717.657,-136.676"/>
</g>
<!-- Node22&#45;&gt;Node9 -->
<g id="edge52" class="edge"><title>Node22&#45;&gt;Node9</title>
<path fill="none" stroke="midnightblue" d="M846.562,-178.462C795.275,-170.228 705.036,-155.273 618.11,-138.154"/>
<polygon fill="midnightblue" stroke="midnightblue" points="618.567,-134.676 608.077,-136.165 617.206,-141.543 618.567,-134.676"/>
</g>
<!-- Node22&#45;&gt;Node15 -->
<g id="edge62" class="edge"><title>Node22&#45;&gt;Node15</title>
<path fill="none" stroke="midnightblue" d="M891.637,-174.389C896.032,-159.401 901.201,-132.069 887,-116 867.285,-93.6912 670.645,-77.5051 586.202,-71.529"/>
<polygon fill="midnightblue" stroke="midnightblue" points="586.224,-68.0222 576.005,-70.8186 585.738,-75.0053 586.224,-68.0222"/>
</g>
<!-- Node23 -->
<g id="node47" class="node"><title>Node23</title>
<polygon fill="white" stroke="#bfbfbf" points="933.5,-116.5 933.5,-137.5 1006.5,-137.5 1006.5,-116.5 933.5,-116.5"/>
<text text-anchor="middle" x="970" y="-124.5" font-family="DejaVuSans" font-size="10.00">QScrollArea</text>
</g>
<!-- Node22&#45;&gt;Node23 -->
<g id="edge48" class="edge"><title>Node22&#45;&gt;Node23</title>
<path fill="none" stroke="midnightblue" d="M903.04,-174.362C915.293,-165.696 932.799,-153.313 946.839,-143.382"/>
<polygon fill="midnightblue" stroke="midnightblue" points="948.912,-146.203 955.055,-137.571 944.87,-140.488 948.912,-146.203"/>
</g>
<!-- Node24 -->
<g id="node49" class="node"><title>Node24</title>
<polygon fill="white" stroke="#bfbfbf" points="1024,-116.5 1024,-137.5 1084,-137.5 1084,-116.5 1024,-116.5"/>
<text text-anchor="middle" x="1054" y="-124.5" font-family="DejaVuSans" font-size="10.00">QToolBox</text>
</g>
<!-- Node22&#45;&gt;Node24 -->
<g id="edge50" class="edge"><title>Node22&#45;&gt;Node24</title>
<path fill="none" stroke="midnightblue" d="M918.061,-174.497C945.007,-165.082 984.728,-151.204 1014.28,-140.877"/>
<polygon fill="midnightblue" stroke="midnightblue" points="1015.6,-144.126 1023.88,-137.523 1013.29,-137.517 1015.6,-144.126"/>
</g>
<!-- Node25 -->
<g id="node53" class="node"><title>Node25</title>
<a xlink:href="_select_merits_dialog_8h.html" target="_top" xlink:title="Dialogs/SelectMeritsDialog.h">
<polygon fill="white" stroke="black" points="1101.5,-116.5 1101.5,-137.5 1254.5,-137.5 1254.5,-116.5 1101.5,-116.5"/>
<text text-anchor="middle" x="1178" y="-124.5" font-family="DejaVuSans" font-size="10.00">Dialogs/SelectMeritsDialog.h</text>
</a>
</g>
<!-- Node22&#45;&gt;Node25 -->
<g id="edge56" class="edge"><title>Node22&#45;&gt;Node25</title>
<path fill="none" stroke="midnightblue" d="M929.242,-176.752C977.849,-167.03 1059.12,-150.775 1115.48,-139.503"/>
<polygon fill="midnightblue" stroke="midnightblue" points="1116.23,-142.922 1125.35,-137.529 1114.86,-136.058 1116.23,-142.922"/>
</g>
<!-- Node26 -->
<g id="node55" class="node"><title>Node26</title>
<polygon fill="white" stroke="#bfbfbf" points="1181,-58.5 1181,-79.5 1257,-79.5 1257,-58.5 1181,-58.5"/>
<text text-anchor="middle" x="1219" y="-66.5" font-family="DejaVuSans" font-size="10.00">QGridLayout</text>
</g>
<!-- Node25&#45;&gt;Node26 -->
<g id="edge58" class="edge"><title>Node25&#45;&gt;Node26</title>
<path fill="none" stroke="midnightblue" d="M1185.52,-116.362C1191.13,-108.431 1198.93,-97.3885 1205.6,-87.9606"/>
<polygon fill="midnightblue" stroke="midnightblue" points="1208.61,-89.7568 1211.53,-79.5707 1202.9,-85.7161 1208.61,-89.7568"/>
</g>
<!-- Node27 -->
<g id="node57" class="node"><title>Node27</title>
<polygon fill="white" stroke="#bfbfbf" points="1109,-58.5 1109,-79.5 1163,-79.5 1163,-58.5 1109,-58.5"/>
<text text-anchor="middle" x="1136" y="-66.5" font-family="DejaVuSans" font-size="10.00">QDialog</text>
</g>
<!-- Node25&#45;&gt;Node27 -->
<g id="edge60" class="edge"><title>Node25&#45;&gt;Node27</title>
<path fill="none" stroke="midnightblue" d="M1170.3,-116.362C1164.55,-108.431 1156.56,-97.3885 1149.73,-87.9606"/>
<polygon fill="midnightblue" stroke="midnightblue" points="1152.35,-85.6173 1143.65,-79.5707 1146.68,-89.7229 1152.35,-85.6173"/>
</g>
</g>
</svg>
