<?xml version="1.0" encoding="UTF-8" standalone="no"?>
<!DOCTYPE svg PUBLIC "-//W3C//DTD SVG 1.1//EN"
 "http://www.w3.org/Graphics/SVG/1.1/DTD/svg11.dtd">
<!-- Generated by graphviz version 2.26.3 (20100126.1600)
 -->
<!-- Title: G Pages: 1 -->
<svg width="490pt" height="88pt"
 viewBox="0.00 0.00 490.00 88.00" xmlns="http://www.w3.org/2000/svg" xmlns:xlink="http://www.w3.org/1999/xlink">
<g id="graph1" class="graph" transform="scale(1 1) rotate(0) translate(4 84)">
<title>G</title>
<polygon fill="white" stroke="white" points="-4,5 -4,-84 487,-84 487,5 -4,5"/>
<!-- Node1 -->
<g id="node1" class="node"><title>Node1</title>
<polygon fill="#bfbfbf" stroke="black" points="108,-58.5 108,-79.5 290,-79.5 290,-58.5 108,-58.5"/>
<text text-anchor="middle" x="199" y="-66.5" font-family="DejaVuSans" font-size="10.00">src/Widgets/Dialogs/MessageBox.h</text>
</g>
<!-- Node2 -->
<g id="node3" class="node"><title>Node2</title>
<a xlink:href="_main_window_8cpp.html" target="_top" xlink:title="src/MainWindow.cpp">
<polygon fill="white" stroke="black" points="-0.5,-0.5 -0.5,-21.5 110.5,-21.5 110.5,-0.5 -0.5,-0.5"/>
<text text-anchor="middle" x="55" y="-8.5" font-family="DejaVuSans" font-size="10.00">src/MainWindow.cpp</text>
</a>
</g>
<!-- Node1&#45;&gt;Node2 -->
<g id="edge2" class="edge"><title>Node1&#45;&gt;Node2</title>
<path fill="none" stroke="midnightblue" d="M163.623,-54.7509C138.194,-44.5086 104.458,-30.9206 81.3699,-21.6212"/>
<polygon fill="midnightblue" stroke="midnightblue" points="162.339,-58.007 172.923,-58.4966 164.954,-51.5139 162.339,-58.007"/>
</g>
<!-- Node3 -->
<g id="node5" class="node"><title>Node3</title>
<a xlink:href="_chara_trait_8cpp.html" target="_top" xlink:title="src/Widgets/CharaTrait.cpp">
<polygon fill="white" stroke="black" points="127.5,-0.5 127.5,-21.5 270.5,-21.5 270.5,-0.5 127.5,-0.5"/>
<text text-anchor="middle" x="199" y="-8.5" font-family="DejaVuSans" font-size="10.00">src/Widgets/CharaTrait.cpp</text>
</a>
</g>
<!-- Node1&#45;&gt;Node3 -->
<g id="edge4" class="edge"><title>Node1&#45;&gt;Node3</title>
<path fill="none" stroke="midnightblue" d="M199,-48.1906C199,-39.1684 199,-28.9941 199,-21.5707"/>
<polygon fill="midnightblue" stroke="midnightblue" points="195.5,-48.3619 199,-58.3619 202.5,-48.3619 195.5,-48.3619"/>
</g>
<!-- Node4 -->
<g id="node7" class="node"><title>Node4</title>
<a xlink:href="_message_box_8cpp.html" target="_top" xlink:title="src/Widgets/Dialogs/MessageBox.cpp">
<polygon fill="white" stroke="black" points="288,-0.5 288,-21.5 482,-21.5 482,-0.5 288,-0.5"/>
<text text-anchor="middle" x="385" y="-8.5" font-family="DejaVuSans" font-size="10.00">src/Widgets/Dialogs/MessageBox.cpp</text>
</a>
</g>
<!-- Node1&#45;&gt;Node4 -->
<g id="edge6" class="edge"><title>Node1&#45;&gt;Node4</title>
<path fill="none" stroke="midnightblue" d="M242.573,-55.4127C275.758,-45.0646 320.779,-31.0258 351.254,-21.5231"/>
<polygon fill="midnightblue" stroke="midnightblue" points="241.188,-52.1783 232.683,-58.4966 243.272,-58.861 241.188,-52.1783"/>
</g>
</g>
</svg>
