<?xml version="1.0" encoding="UTF-8" standalone="no"?>
<!DOCTYPE svg PUBLIC "-//W3C//DTD SVG 1.1//EN"
 "http://www.w3.org/Graphics/SVG/1.1/DTD/svg11.dtd">
<!-- Generated by graphviz version 2.26.3 (20100126.1600)
 -->
<!-- Title: G Pages: 1 -->
<svg width="995pt" height="320pt"
 viewBox="0.00 0.00 995.00 320.00" xmlns="http://www.w3.org/2000/svg" xmlns:xlink="http://www.w3.org/1999/xlink">
<g id="graph1" class="graph" transform="scale(1 1) rotate(0) translate(4 316)">
<title>G</title>
<polygon fill="white" stroke="white" points="-4,5 -4,-316 992,-316 992,5 -4,5"/>
<!-- Node1 -->
<g id="node1" class="node"><title>Node1</title>
<polygon fill="#bfbfbf" stroke="black" points="754,-290.5 754,-311.5 936,-311.5 936,-290.5 754,-290.5"/>
<text text-anchor="middle" x="845" y="-298.5" font-family="DejaVuSans" font-size="10.00">src/Widgets/Dialogs/MessageBox.h</text>
</g>
<!-- Node2 -->
<g id="node3" class="node"><title>Node2</title>
<polygon fill="white" stroke="#bfbfbf" points="492.5,-0.5 492.5,-21.5 545.5,-21.5 545.5,-0.5 492.5,-0.5"/>
<text text-anchor="middle" x="519" y="-8.5" font-family="DejaVuSans" font-size="10.00">QString</text>
</g>
<!-- Node1&#45;&gt;Node2 -->
<g id="edge2" class="edge"><title>Node1&#45;&gt;Node2</title>
<path fill="none" stroke="midnightblue" d="M849.688,-290.364C858.125,-270.219 875,-224.939 875,-185 875,-185 875,-185 875,-127 875,-74.0943 826.752,-78.5491 778,-58 703.145,-26.4484 607.371,-16.0528 555.818,-12.6455"/>
<polygon fill="midnightblue" stroke="midnightblue" points="556.008,-9.15072 545.814,-12.0362 555.583,-16.1378 556.008,-9.15072"/>
</g>
<!-- Node3 -->
<g id="node5" class="node"><title>Node3</title>
<polygon fill="white" stroke="#bfbfbf" points="785,-232.5 785,-253.5 847,-253.5 847,-232.5 785,-232.5"/>
<text text-anchor="middle" x="816" y="-240.5" font-family="DejaVuSans" font-size="10.00">QSqlError</text>
</g>
<!-- Node1&#45;&gt;Node3 -->
<g id="edge4" class="edge"><title>Node1&#45;&gt;Node3</title>
<path fill="none" stroke="midnightblue" d="M839.681,-290.362C835.797,-282.595 830.421,-271.843 825.773,-262.546"/>
<polygon fill="midnightblue" stroke="midnightblue" points="828.888,-260.95 821.285,-253.571 822.627,-264.08 828.888,-260.95"/>
</g>
<!-- Node4 -->
<g id="node7" class="node"><title>Node4</title>
<a xlink:href="_exception_8h_source.html" target="_top" xlink:title="../../Exceptions/Exception.h">
<polygon fill="white" stroke="black" points="579.5,-232.5 579.5,-253.5 724.5,-253.5 724.5,-232.5 579.5,-232.5"/>
<text text-anchor="middle" x="652" y="-240.5" font-family="DejaVuSans" font-size="10.00">../../Exceptions/Exception.h</text>
</a>
</g>
<!-- Node1&#45;&gt;Node4 -->
<g id="edge6" class="edge"><title>Node1&#45;&gt;Node4</title>
<path fill="none" stroke="midnightblue" d="M810.049,-290.497C778.313,-280.959 731.332,-266.841 696.839,-256.475"/>
<polygon fill="midnightblue" stroke="midnightblue" points="697.601,-253.049 687.016,-253.523 695.586,-259.753 697.601,-253.049"/>
</g>
<!-- Node18 -->
<g id="node50" class="node"><title>Node18</title>
<polygon fill="white" stroke="#bfbfbf" points="902.5,-232.5 902.5,-253.5 987.5,-253.5 987.5,-232.5 902.5,-232.5"/>
<text text-anchor="middle" x="945" y="-240.5" font-family="DejaVuSans" font-size="10.00">QMessageBox</text>
</g>
<!-- Node1&#45;&gt;Node18 -->
<g id="edge64" class="edge"><title>Node1&#45;&gt;Node18</title>
<path fill="none" stroke="midnightblue" d="M863.342,-290.362C878.566,-281.532 900.441,-268.844 917.72,-258.822"/>
<polygon fill="midnightblue" stroke="midnightblue" points="919.88,-261.615 926.775,-253.571 916.368,-255.56 919.88,-261.615"/>
</g>
<!-- Node4&#45;&gt;Node2 -->
<g id="edge8" class="edge"><title>Node4&#45;&gt;Node2</title>
<path fill="none" stroke="midnightblue" d="M654.47,-232.222C659.722,-210.016 672.926,-157.752 690,-116 700.267,-90.8925 725.72,-79.3599 709,-58 690.326,-34.1434 605.482,-20.7179 555.71,-14.7667"/>
<polygon fill="midnightblue" stroke="midnightblue" points="555.993,-11.2762 545.658,-13.6092 555.192,-18.2303 555.993,-11.2762"/>
</g>
<!-- Node5 -->
<g id="node10" class="node"><title>Node5</title>
<a xlink:href="cv___trait_8h.html" target="_top" xlink:title="../Datatypes/cv_Trait.h">
<polygon fill="white" stroke="black" points="241,-174.5 241,-195.5 363,-195.5 363,-174.5 241,-174.5"/>
<text text-anchor="middle" x="302" y="-182.5" font-family="DejaVuSans" font-size="10.00">../Datatypes/cv_Trait.h</text>
</a>
</g>
<!-- Node4&#45;&gt;Node5 -->
<g id="edge10" class="edge"><title>Node4&#45;&gt;Node5</title>
<path fill="none" stroke="midnightblue" d="M588.618,-232.497C527.846,-222.426 436.253,-207.248 373.043,-196.773"/>
<polygon fill="midnightblue" stroke="midnightblue" points="373.589,-193.316 363.151,-195.134 372.445,-200.222 373.589,-193.316"/>
</g>
<!-- Node12 -->
<g id="node32" class="node"><title>Node12</title>
<a xlink:href="cv___shape_8h.html" target="_top" xlink:title="../Datatypes/cv_Shape.h">
<polygon fill="white" stroke="black" points="566,-58.5 566,-79.5 700,-79.5 700,-58.5 566,-58.5"/>
<text text-anchor="middle" x="633" y="-66.5" font-family="DejaVuSans" font-size="10.00">../Datatypes/cv_Shape.h</text>
</a>
</g>
<!-- Node4&#45;&gt;Node12 -->
<g id="edge40" class="edge"><title>Node4&#45;&gt;Node12</title>
<path fill="none" stroke="midnightblue" d="M650.84,-232.377C647.773,-204.293 639.407,-127.673 635.315,-90.2027"/>
<polygon fill="midnightblue" stroke="midnightblue" points="638.758,-89.4887 634.193,-79.9277 631.8,-90.2486 638.758,-89.4887"/>
</g>
<!-- Node13 -->
<g id="node35" class="node"><title>Node13</title>
<a xlink:href="cv___identity_8h.html" target="_top" xlink:title="../Datatypes/cv_Identity.h">
<polygon fill="white" stroke="black" points="457.5,-174.5 457.5,-195.5 594.5,-195.5 594.5,-174.5 457.5,-174.5"/>
<text text-anchor="middle" x="526" y="-182.5" font-family="DejaVuSans" font-size="10.00">../Datatypes/cv_Identity.h</text>
</a>
</g>
<!-- Node4&#45;&gt;Node13 -->
<g id="edge44" class="edge"><title>Node4&#45;&gt;Node13</title>
<path fill="none" stroke="midnightblue" d="M629.182,-232.497C609.414,-223.397 580.587,-210.127 558.424,-199.925"/>
<polygon fill="midnightblue" stroke="midnightblue" points="559.621,-196.623 549.074,-195.621 556.694,-202.982 559.621,-196.623"/>
</g>
<!-- Node15 -->
<g id="node43" class="node"><title>Node15</title>
<a xlink:href="_config_8h.html" target="_top" xlink:title="../Config/Config.h">
<polygon fill="white" stroke="black" points="719,-174.5 719,-195.5 817,-195.5 817,-174.5 719,-174.5"/>
<text text-anchor="middle" x="768" y="-182.5" font-family="DejaVuSans" font-size="10.00">../Config/Config.h</text>
</a>
</g>
<!-- Node4&#45;&gt;Node15 -->
<g id="edge56" class="edge"><title>Node4&#45;&gt;Node15</title>
<path fill="none" stroke="midnightblue" d="M673.007,-232.497C691.043,-223.479 717.27,-210.365 737.599,-200.201"/>
<polygon fill="midnightblue" stroke="midnightblue" points="739.379,-203.224 746.758,-195.621 736.248,-196.963 739.379,-203.224"/>
</g>
<!-- Node5&#45;&gt;Node2 -->
<g id="edge14" class="edge"><title>Node5&#45;&gt;Node2</title>
<path fill="none" stroke="midnightblue" d="M309.679,-174.167C330.928,-144.236 389.319,-62.3237 395,-58 420.878,-38.3066 455.949,-26.0366 482.191,-18.9936"/>
<polygon fill="midnightblue" stroke="midnightblue" points="483.306,-22.3213 492.132,-16.4601 481.577,-15.5382 483.306,-22.3213"/>
</g>
<!-- Node6 -->
<g id="node12" class="node"><title>Node6</title>
<polygon fill="white" stroke="#bfbfbf" points="-0.5,-116.5 -0.5,-137.5 48.5,-137.5 48.5,-116.5 -0.5,-116.5"/>
<text text-anchor="middle" x="24" y="-124.5" font-family="DejaVuSans" font-size="10.00">QFlags</text>
</g>
<!-- Node5&#45;&gt;Node6 -->
<g id="edge12" class="edge"><title>Node5&#45;&gt;Node6</title>
<path fill="none" stroke="midnightblue" d="M240.837,-175.576C193.306,-167.726 125.618,-155.404 58.6357,-138.215"/>
<polygon fill="midnightblue" stroke="midnightblue" points="59.32,-134.777 48.7607,-135.644 57.556,-141.551 59.32,-134.777"/>
</g>
<!-- Node7 -->
<g id="node15" class="node"><title>Node7</title>
<polygon fill="white" stroke="#bfbfbf" points="305.5,-58.5 305.5,-79.5 346.5,-79.5 346.5,-58.5 305.5,-58.5"/>
<text text-anchor="middle" x="326" y="-66.5" font-family="DejaVuSans" font-size="10.00">QList</text>
</g>
<!-- Node5&#45;&gt;Node7 -->
<g id="edge16" class="edge"><title>Node5&#45;&gt;Node7</title>
<path fill="none" stroke="midnightblue" d="M306.686,-174.399C310.626,-165.018 316.069,-150.859 319,-138 322.595,-122.225 324.345,-104 325.196,-90.2426"/>
<polygon fill="midnightblue" stroke="midnightblue" points="328.71,-90.0538 325.72,-79.8896 321.719,-89.6998 328.71,-90.0538"/>
</g>
<!-- Node8 -->
<g id="node17" class="node"><title>Node8</title>
<polygon fill="white" stroke="#bfbfbf" points="403.5,-58.5 403.5,-79.5 472.5,-79.5 472.5,-58.5 403.5,-58.5"/>
<text text-anchor="middle" x="438" y="-66.5" font-family="DejaVuSans" font-size="10.00">QStringList</text>
</g>
<!-- Node5&#45;&gt;Node8 -->
<g id="edge18" class="edge"><title>Node5&#45;&gt;Node8</title>
<path fill="none" stroke="midnightblue" d="M329.469,-174.371C347.961,-166.299 372.137,-153.882 390,-138 405.924,-123.842 419.298,-103.387 427.851,-88.4246"/>
<polygon fill="midnightblue" stroke="midnightblue" points="431.003,-89.9558 432.753,-79.5066 424.869,-86.5836 431.003,-89.9558"/>
</g>
<!-- Node9 -->
<g id="node19" class="node"><title>Node9</title>
<a xlink:href="cv___species_8h.html" target="_top" xlink:title="cv_Species.h">
<polygon fill="white" stroke="black" points="160.5,-58.5 160.5,-79.5 239.5,-79.5 239.5,-58.5 160.5,-58.5"/>
<text text-anchor="middle" x="200" y="-66.5" font-family="DejaVuSans" font-size="10.00">cv_Species.h</text>
</a>
</g>
<!-- Node5&#45;&gt;Node9 -->
<g id="edge20" class="edge"><title>Node5&#45;&gt;Node9</title>
<path fill="none" stroke="midnightblue" d="M266.122,-174.482C247.489,-167.195 225.966,-155.577 213,-138 202.851,-124.242 199.92,-104.849 199.345,-90.1245"/>
<polygon fill="midnightblue" stroke="midnightblue" points="202.844,-89.9241 199.284,-79.9453 195.844,-89.9663 202.844,-89.9241"/>
</g>
<!-- Node10 -->
<g id="node22" class="node"><title>Node10</title>
<a xlink:href="cv___trait_detail_8h.html" target="_top" xlink:title="cv_TraitDetail.h">
<polygon fill="white" stroke="black" points="221.5,-116.5 221.5,-137.5 310.5,-137.5 310.5,-116.5 221.5,-116.5"/>
<text text-anchor="middle" x="266" y="-124.5" font-family="DejaVuSans" font-size="10.00">cv_TraitDetail.h</text>
</a>
</g>
<!-- Node5&#45;&gt;Node10 -->
<g id="edge24" class="edge"><title>Node5&#45;&gt;Node10</title>
<path fill="none" stroke="midnightblue" d="M295.397,-174.362C290.525,-166.513 283.762,-155.616 277.95,-146.253"/>
<polygon fill="midnightblue" stroke="midnightblue" points="280.809,-144.221 272.561,-137.571 274.861,-147.913 280.809,-144.221"/>
</g>
<!-- Node11 -->
<g id="node28" class="node"><title>Node11</title>
<a xlink:href="cv___abstract_trait_8h.html" target="_top" xlink:title="cv_AbstractTrait.h">
<polygon fill="white" stroke="black" points="65.5,-116.5 65.5,-137.5 166.5,-137.5 166.5,-116.5 65.5,-116.5"/>
<text text-anchor="middle" x="116" y="-124.5" font-family="DejaVuSans" font-size="10.00">cv_AbstractTrait.h</text>
</a>
</g>
<!-- Node5&#45;&gt;Node11 -->
<g id="edge34" class="edge"><title>Node5&#45;&gt;Node11</title>
<path fill="none" stroke="midnightblue" d="M268.317,-174.497C237.863,-165 192.843,-150.962 159.642,-140.609"/>
<polygon fill="midnightblue" stroke="midnightblue" points="160.335,-137.159 149.746,-137.523 158.251,-143.841 160.335,-137.159"/>
</g>
<!-- Node9&#45;&gt;Node2 -->
<g id="edge22" class="edge"><title>Node9&#45;&gt;Node2</title>
<path fill="none" stroke="midnightblue" d="M239.696,-61.712C246.47,-60.4713 253.436,-59.1972 260,-58 339.118,-43.5689 431.853,-26.7682 482.096,-17.6753"/>
<polygon fill="midnightblue" stroke="midnightblue" points="482.935,-21.0804 492.152,-15.8556 481.688,-14.1923 482.935,-21.0804"/>
</g>
<!-- Node10&#45;&gt;Node2 -->
<g id="edge26" class="edge"><title>Node10&#45;&gt;Node2</title>
<path fill="none" stroke="midnightblue" d="M267.709,-116.29C270.748,-100.923 278.598,-72.8379 297,-58 325.091,-35.3494 426.66,-21.0484 482.161,-14.7461"/>
<polygon fill="midnightblue" stroke="midnightblue" points="482.731,-18.2045 492.286,-13.6271 481.962,-11.2469 482.731,-18.2045"/>
</g>
<!-- Node10&#45;&gt;Node7 -->
<g id="edge28" class="edge"><title>Node10&#45;&gt;Node7</title>
<path fill="none" stroke="midnightblue" d="M277.005,-116.362C285.547,-108.104 297.58,-96.4725 307.583,-86.8029"/>
<polygon fill="midnightblue" stroke="midnightblue" points="310.308,-89.0374 315.065,-79.5707 305.442,-84.0044 310.308,-89.0374"/>
</g>
<!-- Node10&#45;&gt;Node8 -->
<g id="edge30" class="edge"><title>Node10&#45;&gt;Node8</title>
<path fill="none" stroke="midnightblue" d="M297.148,-116.497C325.189,-107.041 366.582,-93.0829 397.245,-82.7428"/>
<polygon fill="midnightblue" stroke="midnightblue" points="398.436,-86.035 406.794,-79.5231 396.2,-79.4019 398.436,-86.035"/>
</g>
<!-- Node10&#45;&gt;Node9 -->
<g id="edge32" class="edge"><title>Node10&#45;&gt;Node9</title>
<path fill="none" stroke="midnightblue" d="M253.895,-116.362C244.312,-107.941 230.736,-96.0105 219.607,-86.2308"/>
<polygon fill="midnightblue" stroke="midnightblue" points="221.851,-83.5427 212.029,-79.5707 217.23,-88.8009 221.851,-83.5427"/>
</g>
<!-- Node11&#45;&gt;Node2 -->
<g id="edge36" class="edge"><title>Node11&#45;&gt;Node2</title>
<path fill="none" stroke="midnightblue" d="M118.293,-116.304C122.247,-100.686 131.936,-71.9828 152,-58 178.809,-39.3172 394.859,-20.6409 482.381,-13.764"/>
<polygon fill="midnightblue" stroke="midnightblue" points="482.698,-17.25 492.396,-12.9846 482.155,-10.2711 482.698,-17.25"/>
</g>
<!-- Node11&#45;&gt;Node9 -->
<g id="edge38" class="edge"><title>Node11&#45;&gt;Node9</title>
<path fill="none" stroke="midnightblue" d="M131.407,-116.362C143.958,-107.696 161.892,-95.3126 176.275,-85.3819"/>
<polygon fill="midnightblue" stroke="midnightblue" points="178.45,-88.1327 184.691,-79.5707 174.473,-82.3725 178.45,-88.1327"/>
</g>
<!-- Node12&#45;&gt;Node2 -->
<g id="edge42" class="edge"><title>Node12&#45;&gt;Node2</title>
<path fill="none" stroke="midnightblue" d="M612.355,-58.4966C594.63,-49.4786 568.855,-36.3649 548.877,-26.2006"/>
<polygon fill="midnightblue" stroke="midnightblue" points="550.376,-23.0364 539.876,-21.6212 547.202,-29.2753 550.376,-23.0364"/>
</g>
<!-- Node13&#45;&gt;Node2 -->
<g id="edge48" class="edge"><title>Node13&#45;&gt;Node2</title>
<path fill="none" stroke="midnightblue" d="M536.29,-174.475C544.219,-165.58 554.554,-152.07 559,-138 561.946,-128.677 560.77,-125.616 559,-116 553.296,-85.0043 538.86,-51.311 528.985,-30.6703"/>
<polygon fill="midnightblue" stroke="midnightblue" points="532.109,-29.0913 524.563,-21.6551 525.825,-32.1745 532.109,-29.0913"/>
</g>
<!-- Node13&#45;&gt;Node8 -->
<g id="edge46" class="edge"><title>Node13&#45;&gt;Node8</title>
<path fill="none" stroke="midnightblue" d="M510.449,-174.48C498.487,-165.786 482.169,-152.544 471,-138 459.546,-123.085 450.665,-103.555 445.016,-89.0805"/>
<polygon fill="midnightblue" stroke="midnightblue" points="448.248,-87.7278 441.484,-79.5731 441.686,-90.166 448.248,-87.7278"/>
</g>
<!-- Node14 -->
<g id="node39" class="node"><title>Node14</title>
<a xlink:href="cv___name_8h.html" target="_top" xlink:title="cv_Name.h">
<polygon fill="white" stroke="black" points="479.5,-116.5 479.5,-137.5 550.5,-137.5 550.5,-116.5 479.5,-116.5"/>
<text text-anchor="middle" x="515" y="-124.5" font-family="DejaVuSans" font-size="10.00">cv_Name.h</text>
</a>
</g>
<!-- Node13&#45;&gt;Node14 -->
<g id="edge50" class="edge"><title>Node13&#45;&gt;Node14</title>
<path fill="none" stroke="midnightblue" d="M523.982,-174.362C522.556,-166.84 520.598,-156.519 518.875,-147.431"/>
<polygon fill="midnightblue" stroke="midnightblue" points="522.307,-146.743 517.005,-137.571 515.429,-148.048 522.307,-146.743"/>
</g>
<!-- Node14&#45;&gt;Node2 -->
<g id="edge54" class="edge"><title>Node14&#45;&gt;Node2</title>
<path fill="none" stroke="midnightblue" d="M515.369,-116.295C516.03,-97.1314 517.426,-56.654 518.281,-31.8434"/>
<polygon fill="midnightblue" stroke="midnightblue" points="521.785,-31.7939 518.632,-21.6792 514.789,-31.5526 521.785,-31.7939"/>
</g>
<!-- Node14&#45;&gt;Node8 -->
<g id="edge52" class="edge"><title>Node14&#45;&gt;Node8</title>
<path fill="none" stroke="midnightblue" d="M500.877,-116.362C489.48,-107.777 473.242,-95.5459 460.122,-85.6636"/>
<polygon fill="midnightblue" stroke="midnightblue" points="462.127,-82.7916 452.033,-79.5707 457.915,-88.3829 462.127,-82.7916"/>
</g>
<!-- Node15&#45;&gt;Node2 -->
<g id="edge58" class="edge"><title>Node15&#45;&gt;Node2</title>
<path fill="none" stroke="midnightblue" d="M785.241,-174.273C803.746,-161.301 829.087,-138.408 818,-116 799.157,-77.9163 780.626,-75.7051 742,-58 680.269,-29.7041 601.077,-18.2236 555.583,-13.7298"/>
<polygon fill="midnightblue" stroke="midnightblue" points="555.871,-10.2415 545.59,-12.8022 555.224,-17.2115 555.871,-10.2415"/>
</g>
<!-- Node16 -->
<g id="node46" class="node"><title>Node16</title>
<polygon fill="white" stroke="#bfbfbf" points="698.5,-116.5 698.5,-137.5 747.5,-137.5 747.5,-116.5 698.5,-116.5"/>
<text text-anchor="middle" x="723" y="-124.5" font-family="DejaVuSans" font-size="10.00">QColor</text>
</g>
<!-- Node15&#45;&gt;Node16 -->
<g id="edge60" class="edge"><title>Node15&#45;&gt;Node16</title>
<path fill="none" stroke="midnightblue" d="M759.746,-174.362C753.53,-166.35 744.849,-155.161 737.485,-145.67"/>
<polygon fill="midnightblue" stroke="midnightblue" points="740.097,-143.326 731.201,-137.571 734.566,-147.617 740.097,-143.326"/>
</g>
<!-- Node17 -->
<g id="node48" class="node"><title>Node17</title>
<polygon fill="white" stroke="#bfbfbf" points="764.5,-116.5 764.5,-137.5 809.5,-137.5 809.5,-116.5 764.5,-116.5"/>
<text text-anchor="middle" x="787" y="-124.5" font-family="DejaVuSans" font-size="10.00">QFont</text>
</g>
<!-- Node15&#45;&gt;Node17 -->
<g id="edge62" class="edge"><title>Node15&#45;&gt;Node17</title>
<path fill="none" stroke="midnightblue" d="M771.485,-174.362C773.976,-166.758 777.404,-156.294 780.404,-147.135"/>
<polygon fill="midnightblue" stroke="midnightblue" points="783.75,-148.163 783.537,-137.571 777.098,-145.984 783.75,-148.163"/>
</g>
</g>
</svg>
