<?xml version="1.0" encoding="UTF-8" standalone="no"?>
<!DOCTYPE svg PUBLIC "-//W3C//DTD SVG 1.1//EN"
 "http://www.w3.org/Graphics/SVG/1.1/DTD/svg11.dtd">
<!-- Generated by graphviz version 2.26.3 (20100126.1600)
 -->
<!-- Title: G Pages: 1 -->
<svg width="386pt" height="88pt"
 viewBox="0.00 0.00 386.00 88.00" xmlns="http://www.w3.org/2000/svg" xmlns:xlink="http://www.w3.org/1999/xlink">
<g id="graph1" class="graph" transform="scale(1 1) rotate(0) translate(4 84)">
<title>G</title>
<polygon fill="white" stroke="white" points="-4,5 -4,-84 383,-84 383,5 -4,5"/>
<!-- Node1 -->
<g id="node1" class="node"><title>Node1</title>
<polygon fill="#bfbfbf" stroke="black" points="66,-58.5 66,-79.5 248,-79.5 248,-58.5 66,-58.5"/>
<text text-anchor="middle" x="157" y="-66.5" font-family="DejaVuSans" font-size="10.00">src/Widgets/Dialogs/MessageBox.h</text>
</g>
<!-- Node2 -->
<g id="node3" class="node"><title>Node2</title>
<polygon fill="white" stroke="#bfbfbf" points="-0.5,-0.5 -0.5,-21.5 52.5,-21.5 52.5,-0.5 -0.5,-0.5"/>
<text text-anchor="middle" x="26" y="-8.5" font-family="DejaVuSans" font-size="10.00">QString</text>
</g>
<!-- Node1&#45;&gt;Node2 -->
<g id="edge2" class="edge"><title>Node1&#45;&gt;Node2</title>
<path fill="none" stroke="midnightblue" d="M133.277,-58.4966C112.632,-49.3562 82.4839,-36.0082 59.4011,-25.7883"/>
<polygon fill="midnightblue" stroke="midnightblue" points="60.5501,-22.4694 49.9893,-21.6212 57.7162,-28.8701 60.5501,-22.4694"/>
</g>
<!-- Node3 -->
<g id="node5" class="node"><title>Node3</title>
<polygon fill="white" stroke="#bfbfbf" points="70,-0.5 70,-21.5 132,-21.5 132,-0.5 70,-0.5"/>
<text text-anchor="middle" x="101" y="-8.5" font-family="DejaVuSans" font-size="10.00">QSqlError</text>
</g>
<!-- Node1&#45;&gt;Node3 -->
<g id="edge4" class="edge"><title>Node1&#45;&gt;Node3</title>
<path fill="none" stroke="midnightblue" d="M146.729,-58.3619C138.756,-50.1043 127.525,-38.4725 118.189,-28.8029"/>
<polygon fill="midnightblue" stroke="midnightblue" points="120.67,-26.3336 111.206,-21.5707 115.634,-31.1958 120.67,-26.3336"/>
</g>
<!-- Node4 -->
<g id="node7" class="node"><title>Node4</title>
<polygon fill="white" stroke="#bfbfbf" points="149.5,-0.5 149.5,-21.5 276.5,-21.5 276.5,-0.5 149.5,-0.5"/>
<text text-anchor="middle" x="213" y="-8.5" font-family="DejaVuSans" font-size="10.00">Exceptions/Exception.h</text>
</g>
<!-- Node1&#45;&gt;Node4 -->
<g id="edge6" class="edge"><title>Node1&#45;&gt;Node4</title>
<path fill="none" stroke="midnightblue" d="M167.271,-58.3619C175.244,-50.1043 186.475,-38.4725 195.811,-28.8029"/>
<polygon fill="midnightblue" stroke="midnightblue" points="198.366,-31.1958 202.794,-21.5707 193.33,-26.3336 198.366,-31.1958"/>
</g>
<!-- Node5 -->
<g id="node9" class="node"><title>Node5</title>
<polygon fill="white" stroke="#bfbfbf" points="293.5,-0.5 293.5,-21.5 378.5,-21.5 378.5,-0.5 293.5,-0.5"/>
<text text-anchor="middle" x="336" y="-8.5" font-family="DejaVuSans" font-size="10.00">QMessageBox</text>
</g>
<!-- Node1&#45;&gt;Node5 -->
<g id="edge8" class="edge"><title>Node1&#45;&gt;Node5</title>
<path fill="none" stroke="midnightblue" d="M189.416,-58.4966C218.724,-49.0001 262.048,-34.9619 294.001,-24.6087"/>
<polygon fill="midnightblue" stroke="midnightblue" points="295.089,-27.9352 303.524,-21.5231 292.932,-21.276 295.089,-27.9352"/>
</g>
</g>
</svg>
