<?xml version="1.0" encoding="UTF-8" standalone="no"?>
<!DOCTYPE svg PUBLIC "-//W3C//DTD SVG 1.1//EN"
 "http://www.w3.org/Graphics/SVG/1.1/DTD/svg11.dtd">
<!-- Generated by graphviz version 2.26.3 (20100126.1600)
 -->
<!-- Title: G Pages: 1 -->
<svg width="524pt" height="146pt"
 viewBox="0.00 0.00 524.00 146.00" xmlns="http://www.w3.org/2000/svg" xmlns:xlink="http://www.w3.org/1999/xlink">
<g id="graph1" class="graph" transform="scale(1 1) rotate(0) translate(4 142)">
<title>G</title>
<polygon fill="white" stroke="white" points="-4,5 -4,-142 521,-142 521,5 -4,5"/>
<!-- Node1 -->
<g id="node1" class="node"><title>Node1</title>
<polygon fill="#bfbfbf" stroke="black" points="48,-116.5 48,-137.5 242,-137.5 242,-116.5 48,-116.5"/>
<text text-anchor="middle" x="145" y="-124.5" font-family="DejaVuSans" font-size="10.00">src/Widgets/Dialogs/MessageBox.cpp</text>
</g>
<!-- Node2 -->
<g id="node3" class="node"><title>Node2</title>
<polygon fill="white" stroke="#bfbfbf" points="-0.5,-58.5 -0.5,-79.5 54.5,-79.5 54.5,-58.5 -0.5,-58.5"/>
<text text-anchor="middle" x="27" y="-66.5" font-family="DejaVuSans" font-size="10.00">QObject</text>
</g>
<!-- Node1&#45;&gt;Node2 -->
<g id="edge2" class="edge"><title>Node1&#45;&gt;Node2</title>
<path fill="none" stroke="midnightblue" d="M123.631,-116.497C105.201,-107.438 78.3629,-94.2462 57.6449,-84.0628"/>
<polygon fill="midnightblue" stroke="midnightblue" points="59.1271,-80.8914 48.6087,-79.6212 56.0392,-87.1735 59.1271,-80.8914"/>
</g>
<!-- Node3 -->
<g id="node5" class="node"><title>Node3</title>
<polygon fill="white" stroke="#bfbfbf" points="72,-58.5 72,-79.5 128,-79.5 128,-58.5 72,-58.5"/>
<text text-anchor="middle" x="100" y="-66.5" font-family="DejaVuSans" font-size="10.00">QDebug</text>
</g>
<!-- Node1&#45;&gt;Node3 -->
<g id="edge4" class="edge"><title>Node1&#45;&gt;Node3</title>
<path fill="none" stroke="midnightblue" d="M136.746,-116.362C130.53,-108.35 121.849,-97.1605 114.485,-87.6696"/>
<polygon fill="midnightblue" stroke="midnightblue" points="117.097,-85.326 108.201,-79.5707 111.566,-89.617 117.097,-85.326"/>
</g>
<!-- Node4 -->
<g id="node7" class="node"><title>Node4</title>
<polygon fill="white" stroke="#bfbfbf" points="145.5,-58.5 145.5,-79.5 234.5,-79.5 234.5,-58.5 145.5,-58.5"/>
<text text-anchor="middle" x="190" y="-66.5" font-family="DejaVuSans" font-size="10.00">Config/Config.h</text>
</g>
<!-- Node1&#45;&gt;Node4 -->
<g id="edge6" class="edge"><title>Node1&#45;&gt;Node4</title>
<path fill="none" stroke="midnightblue" d="M153.254,-116.362C159.47,-108.35 168.151,-97.1605 175.515,-87.6696"/>
<polygon fill="midnightblue" stroke="midnightblue" points="178.434,-89.617 181.799,-79.5707 172.903,-85.326 178.434,-89.617"/>
</g>
<!-- Node5 -->
<g id="node9" class="node"><title>Node5</title>
<a xlink:href="_message_box_8h.html" target="_top" xlink:title="MessageBox.h">
<polygon fill="white" stroke="black" points="252,-58.5 252,-79.5 338,-79.5 338,-58.5 252,-58.5"/>
<text text-anchor="middle" x="295" y="-66.5" font-family="DejaVuSans" font-size="10.00">MessageBox.h</text>
</a>
</g>
<!-- Node1&#45;&gt;Node5 -->
<g id="edge8" class="edge"><title>Node1&#45;&gt;Node5</title>
<path fill="none" stroke="midnightblue" d="M172.164,-116.497C196.3,-107.164 231.781,-93.4447 258.412,-83.1475"/>
<polygon fill="midnightblue" stroke="midnightblue" points="259.72,-86.394 267.785,-79.5231 257.196,-79.8651 259.72,-86.394"/>
</g>
<!-- Node6 -->
<g id="node11" class="node"><title>Node6</title>
<polygon fill="white" stroke="#bfbfbf" points="137.5,-0.5 137.5,-21.5 190.5,-21.5 190.5,-0.5 137.5,-0.5"/>
<text text-anchor="middle" x="164" y="-8.5" font-family="DejaVuSans" font-size="10.00">QString</text>
</g>
<!-- Node5&#45;&gt;Node6 -->
<g id="edge10" class="edge"><title>Node5&#45;&gt;Node6</title>
<path fill="none" stroke="midnightblue" d="M271.277,-58.4966C250.632,-49.3562 220.484,-36.0082 197.401,-25.7883"/>
<polygon fill="midnightblue" stroke="midnightblue" points="198.55,-22.4694 187.989,-21.6212 195.716,-28.8701 198.55,-22.4694"/>
</g>
<!-- Node7 -->
<g id="node13" class="node"><title>Node7</title>
<polygon fill="white" stroke="#bfbfbf" points="208,-0.5 208,-21.5 270,-21.5 270,-0.5 208,-0.5"/>
<text text-anchor="middle" x="239" y="-8.5" font-family="DejaVuSans" font-size="10.00">QSqlError</text>
</g>
<!-- Node5&#45;&gt;Node7 -->
<g id="edge12" class="edge"><title>Node5&#45;&gt;Node7</title>
<path fill="none" stroke="midnightblue" d="M284.729,-58.3619C276.756,-50.1043 265.525,-38.4725 256.189,-28.8029"/>
<polygon fill="midnightblue" stroke="midnightblue" points="258.67,-26.3336 249.206,-21.5707 253.634,-31.1958 258.67,-26.3336"/>
</g>
<!-- Node8 -->
<g id="node15" class="node"><title>Node8</title>
<polygon fill="white" stroke="#bfbfbf" points="287.5,-0.5 287.5,-21.5 414.5,-21.5 414.5,-0.5 287.5,-0.5"/>
<text text-anchor="middle" x="351" y="-8.5" font-family="DejaVuSans" font-size="10.00">Exceptions/Exception.h</text>
</g>
<!-- Node5&#45;&gt;Node8 -->
<g id="edge14" class="edge"><title>Node5&#45;&gt;Node8</title>
<path fill="none" stroke="midnightblue" d="M305.271,-58.3619C313.244,-50.1043 324.475,-38.4725 333.811,-28.8029"/>
<polygon fill="midnightblue" stroke="midnightblue" points="336.366,-31.1958 340.794,-21.5707 331.33,-26.3336 336.366,-31.1958"/>
</g>
<!-- Node9 -->
<g id="node17" class="node"><title>Node9</title>
<polygon fill="white" stroke="#bfbfbf" points="431.5,-0.5 431.5,-21.5 516.5,-21.5 516.5,-0.5 431.5,-0.5"/>
<text text-anchor="middle" x="474" y="-8.5" font-family="DejaVuSans" font-size="10.00">QMessageBox</text>
</g>
<!-- Node5&#45;&gt;Node9 -->
<g id="edge16" class="edge"><title>Node5&#45;&gt;Node9</title>
<path fill="none" stroke="midnightblue" d="M327.416,-58.4966C356.724,-49.0001 400.048,-34.9619 432.001,-24.6087"/>
<polygon fill="midnightblue" stroke="midnightblue" points="433.089,-27.9352 441.524,-21.5231 430.932,-21.276 433.089,-27.9352"/>
</g>
</g>
</svg>
