<?xml version="1.0" encoding="UTF-8" standalone="no"?>
<!DOCTYPE svg PUBLIC "-//W3C//DTD SVG 1.1//EN"
 "http://www.w3.org/Graphics/SVG/1.1/DTD/svg11.dtd">
<!-- Generated by graphviz version 2.26.3 (20100126.1600)
 -->
<!-- Title: G Pages: 1 -->
<svg width="976pt" height="378pt"
 viewBox="0.00 0.00 976.15 378.00" xmlns="http://www.w3.org/2000/svg" xmlns:xlink="http://www.w3.org/1999/xlink">
<g id="graph1" class="graph" transform="scale(1 1) rotate(0) translate(4 374)">
<title>G</title>
<polygon fill="white" stroke="white" points="-4,5 -4,-374 973.152,-374 973.152,5 -4,5"/>
<!-- Node1 -->
<g id="node1" class="node"><title>Node1</title>
<polygon fill="#bfbfbf" stroke="black" points="350.652,-348.5 350.652,-369.5 503.652,-369.5 503.652,-348.5 350.652,-348.5"/>
<text text-anchor="middle" x="427.152" y="-356.5" font-family="DejaVuSans" font-size="10.00">src/Widgets/MoralityWidget.h</text>
</g>
<!-- Node2 -->
<g id="node3" class="node"><title>Node2</title>
<polygon fill="white" stroke="#bfbfbf" points="201.152,-290.5 201.152,-311.5 277.152,-311.5 277.152,-290.5 201.152,-290.5"/>
<text text-anchor="middle" x="239.152" y="-298.5" font-family="DejaVuSans" font-size="10.00">QGridLayout</text>
</g>
<!-- Node1&#45;&gt;Node2 -->
<g id="edge2" class="edge"><title>Node1&#45;&gt;Node2</title>
<path fill="none" stroke="midnightblue" d="M393.107,-348.497C362.193,-338.959 316.43,-324.841 282.83,-314.475"/>
<polygon fill="midnightblue" stroke="midnightblue" points="283.849,-311.127 273.262,-311.523 281.785,-317.816 283.849,-311.127"/>
</g>
<!-- Node3 -->
<g id="node5" class="node"><title>Node3</title>
<polygon fill="white" stroke="#bfbfbf" points="295.152,-290.5 295.152,-311.5 345.152,-311.5 345.152,-290.5 295.152,-290.5"/>
<text text-anchor="middle" x="320.152" y="-298.5" font-family="DejaVuSans" font-size="10.00">QLabel</text>
</g>
<!-- Node1&#45;&gt;Node3 -->
<g id="edge4" class="edge"><title>Node1&#45;&gt;Node3</title>
<path fill="none" stroke="midnightblue" d="M407.527,-348.362C391.011,-339.409 367.178,-326.491 348.575,-316.406"/>
<polygon fill="midnightblue" stroke="midnightblue" points="350.113,-313.259 339.653,-311.571 346.777,-319.413 350.113,-313.259"/>
</g>
<!-- Node4 -->
<g id="node7" class="node"><title>Node4</title>
<a xlink:href="cv___species_8h.html" target="_top" xlink:title="../Datatypes/cv_Species.h">
<polygon fill="white" stroke="black" points="551.152,-58.5 551.152,-79.5 691.152,-79.5 691.152,-58.5 551.152,-58.5"/>
<text text-anchor="middle" x="621.152" y="-66.5" font-family="DejaVuSans" font-size="10.00">../Datatypes/cv_Species.h</text>
</a>
</g>
<!-- Node1&#45;&gt;Node4 -->
<g id="edge6" class="edge"><title>Node1&#45;&gt;Node4</title>
<path fill="none" stroke="midnightblue" d="M503.901,-355.268C634.071,-346.821 884.152,-320.508 884.152,-243 884.152,-243 884.152,-243 884.152,-185 884.152,-149.328 872.151,-136.774 843.152,-116 820.503,-99.774 755.109,-87.1302 701.12,-79.0636"/>
<polygon fill="midnightblue" stroke="midnightblue" points="701.586,-75.5946 691.185,-77.6109 700.573,-82.521 701.586,-75.5946"/>
</g>
<!-- Node6 -->
<g id="node11" class="node"><title>Node6</title>
<a xlink:href="_storage_template_8h.html" target="_top" xlink:title="../Storage/StorageTemplate.h">
<polygon fill="white" stroke="black" points="294.152,-232.5 294.152,-253.5 452.152,-253.5 452.152,-232.5 294.152,-232.5"/>
<text text-anchor="middle" x="373.152" y="-240.5" font-family="DejaVuSans" font-size="10.00">../Storage/StorageTemplate.h</text>
</a>
</g>
<!-- Node1&#45;&gt;Node6 -->
<g id="edge10" class="edge"><title>Node1&#45;&gt;Node6</title>
<path fill="none" stroke="midnightblue" d="M417.249,-348.187C409.427,-339.124 398.761,-325.529 392.152,-312 384.665,-296.672 379.744,-277.938 376.79,-263.861"/>
<polygon fill="midnightblue" stroke="midnightblue" points="380.164,-262.878 374.831,-253.724 373.292,-264.206 380.164,-262.878"/>
</g>
<!-- Node18 -->
<g id="node52" class="node"><title>Node18</title>
<a xlink:href="_storage_character_8h.html" target="_top" xlink:title="../Storage/StorageCharacter.h">
<polygon fill="white" stroke="black" points="400.652,-290.5 400.652,-311.5 561.652,-311.5 561.652,-290.5 400.652,-290.5"/>
<text text-anchor="middle" x="481.152" y="-298.5" font-family="DejaVuSans" font-size="10.00">../Storage/StorageCharacter.h</text>
</a>
</g>
<!-- Node1&#45;&gt;Node18 -->
<g id="edge68" class="edge"><title>Node1&#45;&gt;Node18</title>
<path fill="none" stroke="midnightblue" d="M437.057,-348.362C444.669,-340.186 455.36,-328.702 464.309,-319.091"/>
<polygon fill="midnightblue" stroke="midnightblue" points="467.058,-321.275 471.311,-311.571 461.935,-316.505 467.058,-321.275"/>
</g>
<!-- Node20 -->
<g id="node64" class="node"><title>Node20</title>
<polygon fill="white" stroke="#bfbfbf" points="912.152,-290.5 912.152,-311.5 968.152,-311.5 968.152,-290.5 912.152,-290.5"/>
<text text-anchor="middle" x="940.152" y="-298.5" font-family="DejaVuSans" font-size="10.00">QWidget</text>
</g>
<!-- Node1&#45;&gt;Node20 -->
<g id="edge88" class="edge"><title>Node1&#45;&gt;Node20</title>
<path fill="none" stroke="midnightblue" d="M503.937,-355.042C597.591,-349.364 760.452,-336.745 898.152,-312 899.404,-311.775 900.674,-311.532 901.953,-311.274"/>
<polygon fill="midnightblue" stroke="midnightblue" points="902.827,-314.665 911.82,-309.064 901.297,-307.834 902.827,-314.665"/>
</g>
<!-- Node5 -->
<g id="node9" class="node"><title>Node5</title>
<polygon fill="white" stroke="#bfbfbf" points="363.652,-0.5 363.652,-21.5 416.652,-21.5 416.652,-0.5 363.652,-0.5"/>
<text text-anchor="middle" x="390.152" y="-8.5" font-family="DejaVuSans" font-size="10.00">QString</text>
</g>
<!-- Node4&#45;&gt;Node5 -->
<g id="edge8" class="edge"><title>Node4&#45;&gt;Node5</title>
<path fill="none" stroke="midnightblue" d="M579.32,-58.4966C535.719,-47.5493 468.081,-30.5665 426.598,-20.1509"/>
<polygon fill="midnightblue" stroke="midnightblue" points="427.45,-16.7562 416.899,-17.7155 425.745,-23.5455 427.45,-16.7562"/>
</g>
<!-- Node7 -->
<g id="node13" class="node"><title>Node7</title>
<polygon fill="white" stroke="#bfbfbf" points="253.652,-58.5 253.652,-79.5 294.652,-79.5 294.652,-58.5 253.652,-58.5"/>
<text text-anchor="middle" x="274.152" y="-66.5" font-family="DejaVuSans" font-size="10.00">QList</text>
</g>
<!-- Node6&#45;&gt;Node7 -->
<g id="edge12" class="edge"><title>Node6&#45;&gt;Node7</title>
<path fill="none" stroke="midnightblue" d="M352.592,-232.34C337.811,-223.935 318.107,-211.129 304.152,-196 284.044,-174.2 278.738,-166.672 271.152,-138 266.99,-122.268 268.084,-103.823 270.031,-89.9642"/>
<polygon fill="midnightblue" stroke="midnightblue" points="273.505,-90.4102 271.692,-79.9718 266.6,-89.2629 273.505,-90.4102"/>
</g>
<!-- Node8 -->
<g id="node15" class="node"><title>Node8</title>
<polygon fill="white" stroke="#bfbfbf" points="27.6524,-0.5 27.6524,-21.5 96.6524,-21.5 96.6524,-0.5 27.6524,-0.5"/>
<text text-anchor="middle" x="62.1524" y="-8.5" font-family="DejaVuSans" font-size="10.00">QStringList</text>
</g>
<!-- Node6&#45;&gt;Node8 -->
<g id="edge14" class="edge"><title>Node6&#45;&gt;Node8</title>
<path fill="none" stroke="midnightblue" d="M294.136,-237.716C213.117,-231.19 93.4413,-218.145 53.1524,-196 16.4085,-175.803 -7.46328,-156.563 3.15236,-116 11.7373,-83.1965 33.1205,-49.8193 47.6429,-29.7581"/>
<polygon fill="midnightblue" stroke="midnightblue" points="50.6043,-31.6411 53.7619,-21.5277 44.9867,-27.4646 50.6043,-31.6411"/>
</g>
<!-- Node9 -->
<g id="node17" class="node"><title>Node9</title>
<a xlink:href="cv___trait_8h.html" target="_top" xlink:title="../Datatypes/cv_Trait.h">
<polygon fill="white" stroke="black" points="313.152,-174.5 313.152,-195.5 435.152,-195.5 435.152,-174.5 313.152,-174.5"/>
<text text-anchor="middle" x="374.152" y="-182.5" font-family="DejaVuSans" font-size="10.00">../Datatypes/cv_Trait.h</text>
</a>
</g>
<!-- Node6&#45;&gt;Node9 -->
<g id="edge16" class="edge"><title>Node6&#45;&gt;Node9</title>
<path fill="none" stroke="midnightblue" d="M373.336,-232.362C373.464,-224.922 373.64,-214.743 373.795,-205.728"/>
<polygon fill="midnightblue" stroke="midnightblue" points="377.297,-205.63 373.97,-195.571 370.298,-205.509 377.297,-205.63"/>
</g>
<!-- Node13 -->
<g id="node35" class="node"><title>Node13</title>
<a xlink:href="cv___identity_list_8h.html" target="_top" xlink:title="../Datatypes/cv_IdentityList.h">
<polygon fill="white" stroke="black" points="61.6524,-174.5 61.6524,-195.5 216.652,-195.5 216.652,-174.5 61.6524,-174.5"/>
<text text-anchor="middle" x="139.152" y="-182.5" font-family="DejaVuSans" font-size="10.00">../Datatypes/cv_IdentityList.h</text>
</a>
</g>
<!-- Node6&#45;&gt;Node13 -->
<g id="edge44" class="edge"><title>Node6&#45;&gt;Node13</title>
<path fill="none" stroke="midnightblue" d="M330.777,-232.497C291.638,-222.795 233.377,-208.355 191.377,-197.945"/>
<polygon fill="midnightblue" stroke="midnightblue" points="192.156,-194.532 181.607,-195.523 190.472,-201.326 192.156,-194.532"/>
</g>
<!-- Node16 -->
<g id="node47" class="node"><title>Node16</title>
<a xlink:href="cv___super_effect_8h.html" target="_top" xlink:title="../Datatypes/cv_SuperEffect.h">
<polygon fill="white" stroke="black" points="542.152,-116.5 542.152,-137.5 700.152,-137.5 700.152,-116.5 542.152,-116.5"/>
<text text-anchor="middle" x="621.152" y="-124.5" font-family="DejaVuSans" font-size="10.00">../Datatypes/cv_SuperEffect.h</text>
</a>
</g>
<!-- Node6&#45;&gt;Node16 -->
<g id="edge62" class="edge"><title>Node6&#45;&gt;Node16</title>
<path fill="none" stroke="midnightblue" d="M388.928,-232.356C414.332,-215.33 463.354,-182.97 482.152,-174 511.024,-160.224 545.018,-148.654 572.161,-140.44"/>
<polygon fill="midnightblue" stroke="midnightblue" points="573.24,-143.771 581.829,-137.568 571.246,-137.061 573.24,-143.771"/>
</g>
<!-- Node17 -->
<g id="node50" class="node"><title>Node17</title>
<polygon fill="white" stroke="#bfbfbf" points="490.652,-174.5 490.652,-195.5 545.652,-195.5 545.652,-174.5 490.652,-174.5"/>
<text text-anchor="middle" x="518.152" y="-182.5" font-family="DejaVuSans" font-size="10.00">QObject</text>
</g>
<!-- Node6&#45;&gt;Node17 -->
<g id="edge66" class="edge"><title>Node6&#45;&gt;Node17</title>
<path fill="none" stroke="midnightblue" d="M399.411,-232.497C422.568,-223.234 456.528,-209.65 482.204,-199.379"/>
<polygon fill="midnightblue" stroke="midnightblue" points="483.614,-202.585 491.599,-195.621 481.015,-196.086 483.614,-202.585"/>
</g>
<!-- Node9&#45;&gt;Node4 -->
<g id="edge26" class="edge"><title>Node9&#45;&gt;Node4</title>
<path fill="none" stroke="midnightblue" d="M405.039,-174.493C429.824,-165.708 465.289,-152.339 495.152,-138 512.745,-129.553 516.099,-125.487 533.152,-116 552.564,-105.201 574.612,-93.4263 591.783,-84.3636"/>
<polygon fill="midnightblue" stroke="midnightblue" points="593.555,-87.3865 600.773,-79.6313 590.294,-81.1923 593.555,-87.3865"/>
</g>
<!-- Node9&#45;&gt;Node5 -->
<g id="edge20" class="edge"><title>Node9&#45;&gt;Node5</title>
<path fill="none" stroke="midnightblue" d="M379.162,-174.464C383.309,-165.125 388.875,-150.991 391.152,-138 397.623,-101.086 395.061,-57.2056 392.608,-31.8817"/>
<polygon fill="midnightblue" stroke="midnightblue" points="396.057,-31.2186 391.521,-21.6439 389.096,-31.9575 396.057,-31.2186"/>
</g>
<!-- Node9&#45;&gt;Node7 -->
<g id="edge22" class="edge"><title>Node9&#45;&gt;Node7</title>
<path fill="none" stroke="midnightblue" d="M337.63,-174.449C319.044,-167.193 297.768,-155.615 285.152,-138 275.246,-124.168 272.893,-104.782 272.79,-90.0794"/>
<polygon fill="midnightblue" stroke="midnightblue" points="276.293,-90.0084 273.062,-79.9183 269.295,-89.821 276.293,-90.0084"/>
</g>
<!-- Node9&#45;&gt;Node8 -->
<g id="edge24" class="edge"><title>Node9&#45;&gt;Node8</title>
<path fill="none" stroke="midnightblue" d="M312.988,-179.496C246.602,-170.247 141.96,-145.575 81.1524,-80 69.0513,-66.9503 64.5436,-46.903 62.9204,-31.7737"/>
<polygon fill="midnightblue" stroke="midnightblue" points="66.4106,-31.5107 62.1809,-21.7968 59.4297,-32.0282 66.4106,-31.5107"/>
</g>
<!-- Node10 -->
<g id="node19" class="node"><title>Node10</title>
<polygon fill="white" stroke="#bfbfbf" points="437.652,-116.5 437.652,-137.5 486.652,-137.5 486.652,-116.5 437.652,-116.5"/>
<text text-anchor="middle" x="462.152" y="-124.5" font-family="DejaVuSans" font-size="10.00">QFlags</text>
</g>
<!-- Node9&#45;&gt;Node10 -->
<g id="edge18" class="edge"><title>Node9&#45;&gt;Node10</title>
<path fill="none" stroke="midnightblue" d="M390.293,-174.362C403.566,-165.614 422.585,-153.079 437.723,-143.101"/>
<polygon fill="midnightblue" stroke="midnightblue" points="439.691,-145.996 446.114,-137.571 435.838,-140.151 439.691,-145.996"/>
</g>
<!-- Node11 -->
<g id="node25" class="node"><title>Node11</title>
<a xlink:href="cv___trait_detail_8h.html" target="_top" xlink:title="cv_TraitDetail.h">
<polygon fill="white" stroke="black" points="293.652,-116.5 293.652,-137.5 382.652,-137.5 382.652,-116.5 293.652,-116.5"/>
<text text-anchor="middle" x="338.152" y="-124.5" font-family="DejaVuSans" font-size="10.00">cv_TraitDetail.h</text>
</a>
</g>
<!-- Node9&#45;&gt;Node11 -->
<g id="edge28" class="edge"><title>Node9&#45;&gt;Node11</title>
<path fill="none" stroke="midnightblue" d="M367.549,-174.362C362.678,-166.513 355.914,-155.616 350.102,-146.253"/>
<polygon fill="midnightblue" stroke="midnightblue" points="352.961,-144.221 344.713,-137.571 347.013,-147.913 352.961,-144.221"/>
</g>
<!-- Node12 -->
<g id="node31" class="node"><title>Node12</title>
<a xlink:href="cv___abstract_trait_8h.html" target="_top" xlink:title="cv_AbstractTrait.h">
<polygon fill="white" stroke="black" points="717.652,-116.5 717.652,-137.5 818.652,-137.5 818.652,-116.5 717.652,-116.5"/>
<text text-anchor="middle" x="768.152" y="-124.5" font-family="DejaVuSans" font-size="10.00">cv_AbstractTrait.h</text>
</a>
</g>
<!-- Node9&#45;&gt;Node12 -->
<g id="edge38" class="edge"><title>Node9&#45;&gt;Node12</title>
<path fill="none" stroke="midnightblue" d="M435.407,-177.246C500.503,-168.817 606.688,-154.527 707.588,-138.207"/>
<polygon fill="midnightblue" stroke="midnightblue" points="708.34,-141.631 717.648,-136.57 707.216,-134.722 708.34,-141.631"/>
</g>
<!-- Node11&#45;&gt;Node4 -->
<g id="edge36" class="edge"><title>Node11&#45;&gt;Node4</title>
<path fill="none" stroke="midnightblue" d="M382.682,-117.874C430.354,-108.103 506.32,-92.5345 559.674,-81.5998"/>
<polygon fill="midnightblue" stroke="midnightblue" points="560.601,-84.9827 569.694,-79.5462 559.195,-78.1253 560.601,-84.9827"/>
</g>
<!-- Node11&#45;&gt;Node5 -->
<g id="edge30" class="edge"><title>Node11&#45;&gt;Node5</title>
<path fill="none" stroke="midnightblue" d="M342.951,-116.295C351.658,-96.8724 370.179,-55.5561 381.256,-30.8462"/>
<polygon fill="midnightblue" stroke="midnightblue" points="384.468,-32.236 385.365,-21.6792 378.081,-29.3726 384.468,-32.236"/>
</g>
<!-- Node11&#45;&gt;Node7 -->
<g id="edge32" class="edge"><title>Node11&#45;&gt;Node7</title>
<path fill="none" stroke="midnightblue" d="M326.414,-116.362C317.212,-108.023 304.212,-96.2418 293.481,-86.5162"/>
<polygon fill="midnightblue" stroke="midnightblue" points="295.577,-83.6924 285.817,-79.5707 290.876,-88.8793 295.577,-83.6924"/>
</g>
<!-- Node11&#45;&gt;Node8 -->
<g id="edge34" class="edge"><title>Node11&#45;&gt;Node8</title>
<path fill="none" stroke="midnightblue" d="M335.895,-116.477C332.015,-101.08 322.551,-72.655 303.152,-58 272.848,-35.1062 167.966,-21.3118 107.011,-15.0414"/>
<polygon fill="midnightblue" stroke="midnightblue" points="107.195,-11.5424 96.8955,-14.0284 106.497,-18.5076 107.195,-11.5424"/>
</g>
<!-- Node12&#45;&gt;Node4 -->
<g id="edge42" class="edge"><title>Node12&#45;&gt;Node4</title>
<path fill="none" stroke="midnightblue" d="M741.532,-116.497C718.055,-107.234 683.627,-93.6499 657.597,-83.3793"/>
<polygon fill="midnightblue" stroke="midnightblue" points="658.658,-80.0358 648.072,-79.6212 656.089,-86.5473 658.658,-80.0358"/>
</g>
<!-- Node12&#45;&gt;Node5 -->
<g id="edge40" class="edge"><title>Node12&#45;&gt;Node5</title>
<path fill="none" stroke="midnightblue" d="M761.046,-116.264C750.035,-100.596 727.272,-71.8297 700.152,-58 652.989,-33.9489 498.525,-19.3124 427.048,-13.6691"/>
<polygon fill="midnightblue" stroke="midnightblue" points="426.962,-10.1521 416.722,-12.871 426.422,-17.1313 426.962,-10.1521"/>
</g>
<!-- Node13&#45;&gt;Node5 -->
<g id="edge46" class="edge"><title>Node13&#45;&gt;Node5</title>
<path fill="none" stroke="midnightblue" d="M139.412,-174.184C140.261,-159.679 143.582,-133.705 156.152,-116 162.986,-106.376 234.501,-63.0863 245.152,-58 280.506,-41.118 323.462,-28.0435 353.404,-20.0185"/>
<polygon fill="midnightblue" stroke="midnightblue" points="354.633,-23.3146 363.419,-17.3927 352.858,-16.5435 354.633,-23.3146"/>
</g>
<!-- Node13&#45;&gt;Node7 -->
<g id="edge60" class="edge"><title>Node13&#45;&gt;Node7</title>
<path fill="none" stroke="midnightblue" d="M142.493,-174.343C147.607,-159.547 158.663,-132.719 176.152,-116 186.568,-106.043 219.436,-91.2384 244.259,-80.914"/>
<polygon fill="midnightblue" stroke="midnightblue" points="245.726,-84.0956 253.648,-77.0612 243.068,-77.6197 245.726,-84.0956"/>
</g>
<!-- Node14 -->
<g id="node38" class="node"><title>Node14</title>
<a xlink:href="cv___identity_8h.html" target="_top" xlink:title="cv_Identity.h">
<polygon fill="white" stroke="black" points="11.6524,-116.5 11.6524,-137.5 86.6524,-137.5 86.6524,-116.5 11.6524,-116.5"/>
<text text-anchor="middle" x="49.1524" y="-124.5" font-family="DejaVuSans" font-size="10.00">cv_Identity.h</text>
</a>
</g>
<!-- Node13&#45;&gt;Node14 -->
<g id="edge48" class="edge"><title>Node13&#45;&gt;Node14</title>
<path fill="none" stroke="midnightblue" d="M122.645,-174.362C109.07,-165.614 89.6191,-153.079 74.1374,-143.101"/>
<polygon fill="midnightblue" stroke="midnightblue" points="75.8568,-140.046 65.5551,-137.571 72.0649,-145.93 75.8568,-140.046"/>
</g>
<!-- Node14&#45;&gt;Node5 -->
<g id="edge52" class="edge"><title>Node14&#45;&gt;Node5</title>
<path fill="none" stroke="midnightblue" d="M78.5879,-116.405C103.09,-107.364 138.754,-93.6882 169.152,-80 188.727,-71.1857 192.103,-65.6733 212.152,-58 259.561,-39.8552 316.657,-26.1344 353.172,-18.3321"/>
<polygon fill="midnightblue" stroke="midnightblue" points="354.287,-21.6746 363.355,-16.196 352.849,-14.8237 354.287,-21.6746"/>
</g>
<!-- Node14&#45;&gt;Node8 -->
<g id="edge50" class="edge"><title>Node14&#45;&gt;Node8</title>
<path fill="none" stroke="midnightblue" d="M47.9399,-116.175C46.6531,-102.529 45.18,-78.3908 48.1524,-58 49.4649,-48.9958 52.1216,-39.3181 54.7713,-31.0986"/>
<polygon fill="midnightblue" stroke="midnightblue" points="58.0861,-32.2223 58.0223,-21.6276 51.4652,-29.9496 58.0861,-32.2223"/>
</g>
<!-- Node15 -->
<g id="node42" class="node"><title>Node15</title>
<a xlink:href="cv___name_8h.html" target="_top" xlink:title="cv_Name.h">
<polygon fill="white" stroke="black" points="89.6524,-58.5 89.6524,-79.5 160.652,-79.5 160.652,-58.5 89.6524,-58.5"/>
<text text-anchor="middle" x="125.152" y="-66.5" font-family="DejaVuSans" font-size="10.00">cv_Name.h</text>
</a>
</g>
<!-- Node14&#45;&gt;Node15 -->
<g id="edge54" class="edge"><title>Node14&#45;&gt;Node15</title>
<path fill="none" stroke="midnightblue" d="M63.0919,-116.362C74.3408,-107.777 90.3681,-95.5459 103.317,-85.6636"/>
<polygon fill="midnightblue" stroke="midnightblue" points="105.475,-88.4198 111.301,-79.5707 101.228,-82.8551 105.475,-88.4198"/>
</g>
<!-- Node15&#45;&gt;Node5 -->
<g id="edge58" class="edge"><title>Node15&#45;&gt;Node5</title>
<path fill="none" stroke="midnightblue" d="M160.741,-60.982C165.254,-59.9736 169.811,-58.9597 174.152,-58 237.158,-44.0733 310.576,-28.1661 353.551,-18.8874"/>
<polygon fill="midnightblue" stroke="midnightblue" points="354.501,-22.2631 363.538,-16.7323 353.024,-15.4206 354.501,-22.2631"/>
</g>
<!-- Node15&#45;&gt;Node8 -->
<g id="edge56" class="edge"><title>Node15&#45;&gt;Node8</title>
<path fill="none" stroke="midnightblue" d="M113.597,-58.3619C104.539,-50.0226 91.7426,-38.2418 81.1786,-28.5162"/>
<polygon fill="midnightblue" stroke="midnightblue" points="83.3619,-25.7688 73.6343,-21.5707 78.6207,-30.9187 83.3619,-25.7688"/>
</g>
<!-- Node16&#45;&gt;Node4 -->
<g id="edge64" class="edge"><title>Node16&#45;&gt;Node4</title>
<path fill="none" stroke="midnightblue" d="M621.152,-116.362C621.152,-108.922 621.152,-98.7427 621.152,-89.7276"/>
<polygon fill="midnightblue" stroke="midnightblue" points="624.652,-89.5706 621.152,-79.5707 617.652,-89.5707 624.652,-89.5706"/>
</g>
<!-- Node18&#45;&gt;Node6 -->
<g id="edge84" class="edge"><title>Node18&#45;&gt;Node6</title>
<path fill="none" stroke="midnightblue" d="M461.594,-290.497C444.954,-281.56 420.825,-268.602 401.972,-258.477"/>
<polygon fill="midnightblue" stroke="midnightblue" points="403.396,-255.269 392.93,-253.621 400.084,-261.436 403.396,-255.269"/>
</g>
<!-- Node18&#45;&gt;Node9 -->
<g id="edge74" class="edge"><title>Node18&#45;&gt;Node9</title>
<path fill="none" stroke="midnightblue" d="M480.596,-290.499C479.316,-275.888 475.091,-249.279 461.152,-232 449.619,-217.703 432.528,-207.147 416.54,-199.701"/>
<polygon fill="midnightblue" stroke="midnightblue" points="417.87,-196.463 407.305,-195.673 415.071,-202.879 417.87,-196.463"/>
</g>
<!-- Node18&#45;&gt;Node13 -->
<g id="edge72" class="edge"><title>Node18&#45;&gt;Node13</title>
<path fill="none" stroke="midnightblue" d="M423.647,-290.467C384.1,-282.437 330.703,-270.032 285.152,-254 242.861,-239.115 196.432,-215.9 167.539,-200.572"/>
<polygon fill="midnightblue" stroke="midnightblue" points="168.912,-197.337 158.445,-195.699 165.606,-203.507 168.912,-197.337"/>
</g>
<!-- Node18&#45;&gt;Node14 -->
<g id="edge70" class="edge"><title>Node18&#45;&gt;Node14</title>
<path fill="none" stroke="midnightblue" d="M400.519,-293.08C288.525,-280.206 94.8983,-250.52 53.1524,-196 42.8049,-182.486 42.696,-162.765 44.6565,-147.863"/>
<polygon fill="midnightblue" stroke="midnightblue" points="48.1776,-148.039 46.4237,-137.59 41.2789,-146.852 48.1776,-148.039"/>
</g>
<!-- Node18&#45;&gt;Node17 -->
<g id="edge86" class="edge"><title>Node18&#45;&gt;Node17</title>
<path fill="none" stroke="midnightblue" d="M484.567,-290.295C490.707,-271.045 503.707,-230.289 511.611,-205.509"/>
<polygon fill="midnightblue" stroke="midnightblue" points="515.042,-206.27 514.746,-195.679 508.373,-204.143 515.042,-206.27"/>
</g>
<!-- Node19 -->
<g id="node57" class="node"><title>Node19</title>
<a xlink:href="cv___derangement_8h.html" target="_top" xlink:title="../Datatypes/cv_Derangement.h">
<polygon fill="white" stroke="black" points="684.152,-174.5 684.152,-195.5 854.152,-195.5 854.152,-174.5 684.152,-174.5"/>
<text text-anchor="middle" x="769.152" y="-182.5" font-family="DejaVuSans" font-size="10.00">../Datatypes/cv_Derangement.h</text>
</a>
</g>
<!-- Node18&#45;&gt;Node19 -->
<g id="edge76" class="edge"><title>Node18&#45;&gt;Node19</title>
<path fill="none" stroke="midnightblue" d="M507.474,-290.398C559.324,-269.514 674.725,-223.033 733.405,-199.398"/>
<polygon fill="midnightblue" stroke="midnightblue" points="735.028,-202.518 742.996,-195.535 732.413,-196.025 735.028,-202.518"/>
</g>
<!-- Node19&#45;&gt;Node4 -->
<g id="edge80" class="edge"><title>Node19&#45;&gt;Node4</title>
<path fill="none" stroke="midnightblue" d="M789.209,-174.385C811.984,-160.957 843.935,-137.043 827.152,-116 811.284,-96.104 752.103,-83.9685 701.221,-77.0257"/>
<polygon fill="midnightblue" stroke="midnightblue" points="701.542,-73.5378 691.171,-75.7056 700.63,-80.4782 701.542,-73.5378"/>
</g>
<!-- Node19&#45;&gt;Node5 -->
<g id="edge78" class="edge"><title>Node19&#45;&gt;Node5</title>
<path fill="none" stroke="midnightblue" d="M796.316,-174.398C823.214,-162.211 858.347,-140.681 843.152,-116 799.101,-44.446 527.164,-19.8331 427.077,-13.1332"/>
<polygon fill="midnightblue" stroke="midnightblue" points="427.045,-9.62396 416.84,-12.4708 426.593,-16.6094 427.045,-9.62396"/>
</g>
<!-- Node19&#45;&gt;Node12 -->
<g id="edge82" class="edge"><title>Node19&#45;&gt;Node12</title>
<path fill="none" stroke="midnightblue" d="M768.969,-174.362C768.841,-166.922 768.665,-156.743 768.51,-147.728"/>
<polygon fill="midnightblue" stroke="midnightblue" points="772.007,-147.509 768.335,-137.571 765.008,-147.63 772.007,-147.509"/>
</g>
</g>
</svg>
