<?xml version="1.0" encoding="UTF-8" standalone="no"?>
<!DOCTYPE svg PUBLIC "-//W3C//DTD SVG 1.1//EN"
 "http://www.w3.org/Graphics/SVG/1.1/DTD/svg11.dtd">
<!-- Generated by graphviz version 2.26.3 (20100126.1600)
 -->
<!-- Title: G Pages: 1 -->
<svg width="710pt" height="88pt"
 viewBox="0.00 0.00 710.00 88.00" xmlns="http://www.w3.org/2000/svg" xmlns:xlink="http://www.w3.org/1999/xlink">
<g id="graph1" class="graph" transform="scale(1 1) rotate(0) translate(4 84)">
<title>G</title>
<polygon fill="white" stroke="white" points="-4,5 -4,-84 707,-84 707,5 -4,5"/>
<!-- Node1 -->
<g id="node1" class="node"><title>Node1</title>
<polygon fill="#bfbfbf" stroke="black" points="228.5,-58.5 228.5,-79.5 381.5,-79.5 381.5,-58.5 228.5,-58.5"/>
<text text-anchor="middle" x="305" y="-66.5" font-family="DejaVuSans" font-size="10.00">src/Widgets/MoralityWidget.h</text>
</g>
<!-- Node2 -->
<g id="node3" class="node"><title>Node2</title>
<polygon fill="white" stroke="#bfbfbf" points="0,-0.5 0,-21.5 76,-21.5 76,-0.5 0,-0.5"/>
<text text-anchor="middle" x="38" y="-8.5" font-family="DejaVuSans" font-size="10.00">QGridLayout</text>
</g>
<!-- Node1&#45;&gt;Node2 -->
<g id="edge2" class="edge"><title>Node1&#45;&gt;Node2</title>
<path fill="none" stroke="midnightblue" d="M254.258,-58.4517C211.808,-49.5608 149.393,-36.3355 85.977,-22.192"/>
<polygon fill="midnightblue" stroke="midnightblue" points="86.7281,-18.7736 76.2053,-20.0071 85.2006,-25.605 86.7281,-18.7736"/>
</g>
<!-- Node3 -->
<g id="node5" class="node"><title>Node3</title>
<polygon fill="white" stroke="#bfbfbf" points="94,-0.5 94,-21.5 144,-21.5 144,-0.5 94,-0.5"/>
<text text-anchor="middle" x="119" y="-8.5" font-family="DejaVuSans" font-size="10.00">QLabel</text>
</g>
<!-- Node1&#45;&gt;Node3 -->
<g id="edge4" class="edge"><title>Node1&#45;&gt;Node3</title>
<path fill="none" stroke="midnightblue" d="M270.55,-58.4876C241.764,-49.6723 199.39,-36.6245 153.973,-22.2845"/>
<polygon fill="midnightblue" stroke="midnightblue" points="154.829,-18.8845 144.239,-19.206 152.718,-25.5586 154.829,-18.8845"/>
</g>
<!-- Node4 -->
<g id="node7" class="node"><title>Node4</title>
<polygon fill="white" stroke="#bfbfbf" points="161.5,-0.5 161.5,-21.5 292.5,-21.5 292.5,-0.5 161.5,-0.5"/>
<text text-anchor="middle" x="227" y="-8.5" font-family="DejaVuSans" font-size="10.00">Datatypes/cv_Species.h</text>
</g>
<!-- Node1&#45;&gt;Node4 -->
<g id="edge6" class="edge"><title>Node1&#45;&gt;Node4</title>
<path fill="none" stroke="midnightblue" d="M290.694,-58.3619C279.149,-49.7773 262.7,-37.5459 249.41,-27.6636"/>
<polygon fill="midnightblue" stroke="midnightblue" points="251.329,-24.7291 241.216,-21.5707 247.152,-30.3463 251.329,-24.7291"/>
</g>
<!-- Node5 -->
<g id="node9" class="node"><title>Node5</title>
<polygon fill="white" stroke="#bfbfbf" points="309.5,-0.5 309.5,-21.5 458.5,-21.5 458.5,-0.5 309.5,-0.5"/>
<text text-anchor="middle" x="384" y="-8.5" font-family="DejaVuSans" font-size="10.00">Storage/StorageTemplate.h</text>
</g>
<!-- Node1&#45;&gt;Node5 -->
<g id="edge8" class="edge"><title>Node1&#45;&gt;Node5</title>
<path fill="none" stroke="midnightblue" d="M319.49,-58.3619C331.183,-49.7773 347.843,-37.5459 361.303,-27.6636"/>
<polygon fill="midnightblue" stroke="midnightblue" points="363.613,-30.31 369.602,-21.5707 359.47,-24.6675 363.613,-30.31"/>
</g>
<!-- Node6 -->
<g id="node11" class="node"><title>Node6</title>
<polygon fill="white" stroke="#bfbfbf" points="476,-0.5 476,-21.5 628,-21.5 628,-0.5 476,-0.5"/>
<text text-anchor="middle" x="552" y="-8.5" font-family="DejaVuSans" font-size="10.00">Storage/StorageCharacter.h</text>
</g>
<!-- Node1&#45;&gt;Node6 -->
<g id="edge10" class="edge"><title>Node1&#45;&gt;Node6</title>
<path fill="none" stroke="midnightblue" d="M349.73,-58.4966C391.218,-48.7545 453.06,-34.2328 497.434,-23.813"/>
<polygon fill="midnightblue" stroke="midnightblue" points="498.251,-27.2165 507.186,-21.5231 496.651,-20.4018 498.251,-27.2165"/>
</g>
<!-- Node7 -->
<g id="node13" class="node"><title>Node7</title>
<polygon fill="white" stroke="#bfbfbf" points="646,-0.5 646,-21.5 702,-21.5 702,-0.5 646,-0.5"/>
<text text-anchor="middle" x="674" y="-8.5" font-family="DejaVuSans" font-size="10.00">QWidget</text>
</g>
<!-- Node1&#45;&gt;Node7 -->
<g id="edge12" class="edge"><title>Node1&#45;&gt;Node7</title>
<path fill="none" stroke="midnightblue" d="M381.723,-61.4072C447.071,-54.1921 543.54,-41.7772 636.028,-21.9741"/>
<polygon fill="midnightblue" stroke="midnightblue" points="636.802,-25.3876 645.83,-19.8437 635.315,-18.5473 636.802,-25.3876"/>
</g>
</g>
</svg>
