<?xml version="1.0" encoding="UTF-8" standalone="no"?>
<!DOCTYPE svg PUBLIC "-//W3C//DTD SVG 1.1//EN"
 "http://www.w3.org/Graphics/SVG/1.1/DTD/svg11.dtd">
<!-- Generated by graphviz version 2.26.3 (20100126.1600)
 -->
<!-- Title: G Pages: 1 -->
<svg width="396pt" height="88pt"
 viewBox="0.00 0.00 396.00 88.00" xmlns="http://www.w3.org/2000/svg" xmlns:xlink="http://www.w3.org/1999/xlink">
<g id="graph1" class="graph" transform="scale(1 1) rotate(0) translate(4 84)">
<title>G</title>
<polygon fill="white" stroke="white" points="-4,5 -4,-84 393,-84 393,5 -4,5"/>
<!-- Node1 -->
<g id="node1" class="node"><title>Node1</title>
<polygon fill="#bfbfbf" stroke="black" points="101.5,-58.5 101.5,-79.5 254.5,-79.5 254.5,-58.5 101.5,-58.5"/>
<text text-anchor="middle" x="178" y="-66.5" font-family="DejaVuSans" font-size="10.00">src/Widgets/MoralityWidget.h</text>
</g>
<!-- Node2 -->
<g id="node3" class="node"><title>Node2</title>
<polygon fill="white" stroke="#bfbfbf" points="0,-0.5 0,-21.5 76,-21.5 76,-0.5 0,-0.5"/>
<text text-anchor="middle" x="38" y="-8.5" font-family="DejaVuSans" font-size="10.00">QGridLayout</text>
</g>
<!-- Node1&#45;&gt;Node2 -->
<g id="edge2" class="edge"><title>Node1&#45;&gt;Node2</title>
<path fill="none" stroke="midnightblue" d="M152.647,-58.4966C130.387,-49.2746 97.7884,-35.7695 73.0369,-25.5153"/>
<polygon fill="midnightblue" stroke="midnightblue" points="74.2156,-22.2152 63.6374,-21.6212 71.5364,-28.6822 74.2156,-22.2152"/>
</g>
<!-- Node3 -->
<g id="node5" class="node"><title>Node3</title>
<polygon fill="white" stroke="#bfbfbf" points="94,-0.5 94,-21.5 144,-21.5 144,-0.5 94,-0.5"/>
<text text-anchor="middle" x="119" y="-8.5" font-family="DejaVuSans" font-size="10.00">QLabel</text>
</g>
<!-- Node1&#45;&gt;Node3 -->
<g id="edge4" class="edge"><title>Node1&#45;&gt;Node3</title>
<path fill="none" stroke="midnightblue" d="M167.178,-58.3619C158.779,-50.1043 146.946,-38.4725 137.11,-28.8029"/>
<polygon fill="midnightblue" stroke="midnightblue" points="139.338,-26.0851 129.753,-21.5707 134.431,-31.077 139.338,-26.0851"/>
</g>
<!-- Node4 -->
<g id="node7" class="node"><title>Node4</title>
<polygon fill="white" stroke="#bfbfbf" points="162,-0.5 162,-21.5 314,-21.5 314,-0.5 162,-0.5"/>
<text text-anchor="middle" x="238" y="-8.5" font-family="DejaVuSans" font-size="10.00">Storage/StorageCharacter.h</text>
</g>
<!-- Node1&#45;&gt;Node4 -->
<g id="edge6" class="edge"><title>Node1&#45;&gt;Node4</title>
<path fill="none" stroke="midnightblue" d="M189.005,-58.3619C197.547,-50.1043 209.58,-38.4725 219.583,-28.8029"/>
<polygon fill="midnightblue" stroke="midnightblue" points="222.308,-31.0374 227.065,-21.5707 217.442,-26.0044 222.308,-31.0374"/>
</g>
<!-- Node5 -->
<g id="node9" class="node"><title>Node5</title>
<polygon fill="white" stroke="#bfbfbf" points="332,-0.5 332,-21.5 388,-21.5 388,-0.5 332,-0.5"/>
<text text-anchor="middle" x="360" y="-8.5" font-family="DejaVuSans" font-size="10.00">QWidget</text>
</g>
<!-- Node1&#45;&gt;Node5 -->
<g id="edge8" class="edge"><title>Node1&#45;&gt;Node5</title>
<path fill="none" stroke="midnightblue" d="M210.959,-58.4966C242.244,-48.5268 289.236,-33.5512 322.065,-23.0891"/>
<polygon fill="midnightblue" stroke="midnightblue" points="323.301,-26.3688 331.766,-19.9976 321.175,-19.6993 323.301,-26.3688"/>
</g>
</g>
</svg>
