<?xml version="1.0" encoding="UTF-8" standalone="no"?>
<!DOCTYPE svg PUBLIC "-//W3C//DTD SVG 1.1//EN"
 "http://www.w3.org/Graphics/SVG/1.1/DTD/svg11.dtd">
<!-- Generated by graphviz version 2.26.3 (20100126.1600)
 -->
<!-- Title: G Pages: 1 -->
<svg width="326pt" height="88pt"
 viewBox="0.00 0.00 326.00 88.00" xmlns="http://www.w3.org/2000/svg" xmlns:xlink="http://www.w3.org/1999/xlink">
<g id="graph1" class="graph" transform="scale(1 1) rotate(0) translate(4 84)">
<title>G</title>
<polygon fill="white" stroke="white" points="-4,5 -4,-84 323,-84 323,5 -4,5"/>
<!-- Node1 -->
<g id="node1" class="node"><title>Node1</title>
<polygon fill="#bfbfbf" stroke="black" points="79.5,-58.5 79.5,-79.5 260.5,-79.5 260.5,-58.5 79.5,-58.5"/>
<text text-anchor="middle" x="170" y="-66.5" font-family="DejaVuSans" font-size="10.00">src/Widgets/Dialogs/NameDialog.h</text>
</g>
<!-- Node2 -->
<g id="node3" class="node"><title>Node2</title>
<polygon fill="white" stroke="#bfbfbf" points="0,-0.5 0,-21.5 76,-21.5 76,-0.5 0,-0.5"/>
<text text-anchor="middle" x="38" y="-8.5" font-family="DejaVuSans" font-size="10.00">QGridLayout</text>
</g>
<!-- Node1&#45;&gt;Node2 -->
<g id="edge2" class="edge"><title>Node1&#45;&gt;Node2</title>
<path fill="none" stroke="midnightblue" d="M146.096,-58.4966C125.2,-49.3154 94.6437,-35.8889 71.345,-25.6516"/>
<polygon fill="midnightblue" stroke="midnightblue" points="72.7356,-22.4397 62.1724,-21.6212 69.9197,-28.8483 72.7356,-22.4397"/>
</g>
<!-- Node3 -->
<g id="node5" class="node"><title>Node3</title>
<polygon fill="white" stroke="#bfbfbf" points="94,-0.5 94,-21.5 246,-21.5 246,-0.5 94,-0.5"/>
<text text-anchor="middle" x="170" y="-8.5" font-family="DejaVuSans" font-size="10.00">Storage/StorageCharacter.h</text>
</g>
<!-- Node1&#45;&gt;Node3 -->
<g id="edge4" class="edge"><title>Node1&#45;&gt;Node3</title>
<path fill="none" stroke="midnightblue" d="M170,-58.3619C170,-50.9219 170,-40.7427 170,-31.7276"/>
<polygon fill="midnightblue" stroke="midnightblue" points="173.5,-31.5706 170,-21.5707 166.5,-31.5707 173.5,-31.5706"/>
</g>
<!-- Node4 -->
<g id="node7" class="node"><title>Node4</title>
<polygon fill="white" stroke="#bfbfbf" points="264,-0.5 264,-21.5 318,-21.5 318,-0.5 264,-0.5"/>
<text text-anchor="middle" x="291" y="-8.5" font-family="DejaVuSans" font-size="10.00">QDialog</text>
</g>
<!-- Node1&#45;&gt;Node4 -->
<g id="edge6" class="edge"><title>Node1&#45;&gt;Node4</title>
<path fill="none" stroke="midnightblue" d="M191.912,-58.4966C210.811,-49.4378 238.331,-36.2462 259.576,-26.0628"/>
<polygon fill="midnightblue" stroke="midnightblue" points="261.337,-29.0999 268.842,-21.6212 258.311,-22.7876 261.337,-29.0999"/>
</g>
</g>
</svg>
