<?xml version="1.0" encoding="UTF-8" standalone="no"?>
<!DOCTYPE svg PUBLIC "-//W3C//DTD SVG 1.1//EN"
 "http://www.w3.org/Graphics/SVG/1.1/DTD/svg11.dtd">
<!-- Generated by graphviz version 2.26.3 (20100126.1600)
 -->
<!-- Title: G Pages: 1 -->
<svg width="674pt" height="146pt"
 viewBox="0.00 0.00 674.35 146.00" xmlns="http://www.w3.org/2000/svg" xmlns:xlink="http://www.w3.org/1999/xlink">
<g id="graph1" class="graph" transform="scale(1 1) rotate(0) translate(4 142)">
<title>G</title>
<polygon fill="white" stroke="white" points="-4,5 -4,-142 671.349,-142 671.349,5 -4,5"/>
<!-- Node1 -->
<g id="node1" class="node"><title>Node1</title>
<polygon fill="#bfbfbf" stroke="black" points="144.349,-116.5 144.349,-137.5 336.349,-137.5 336.349,-116.5 144.349,-116.5"/>
<text text-anchor="middle" x="240.349" y="-124.5" font-family="DejaVuSans" font-size="10.00">src/Widgets/Dialogs/NameDialog.cpp</text>
</g>
<!-- Node2 -->
<g id="node3" class="node"><title>Node2</title>
<polygon fill="white" stroke="#bfbfbf" points="113.349,-0.5 113.349,-21.5 189.349,-21.5 189.349,-0.5 113.349,-0.5"/>
<text text-anchor="middle" x="151.349" y="-8.5" font-family="DejaVuSans" font-size="10.00">QGridLayout</text>
</g>
<!-- Node1&#45;&gt;Node2 -->
<g id="edge2" class="edge"><title>Node1&#45;&gt;Node2</title>
<path fill="none" stroke="midnightblue" d="M144.279,-119.765C88.1136,-113.315 24.8929,-101.436 7.34915,-80 -22.444,-43.597 50.5269,-25.1371 103.119,-16.8274"/>
<polygon fill="midnightblue" stroke="midnightblue" points="103.958,-20.2409 113.329,-15.2985 102.921,-13.3181 103.958,-20.2409"/>
</g>
<!-- Node3 -->
<g id="node5" class="node"><title>Node3</title>
<polygon fill="white" stroke="#bfbfbf" points="15.8492,-58.5 15.8492,-79.5 84.8492,-79.5 84.8492,-58.5 15.8492,-58.5"/>
<text text-anchor="middle" x="50.3492" y="-66.5" font-family="DejaVuSans" font-size="10.00">QStringList</text>
</g>
<!-- Node1&#45;&gt;Node3 -->
<g id="edge4" class="edge"><title>Node1&#45;&gt;Node3</title>
<path fill="none" stroke="midnightblue" d="M205.942,-116.497C174.698,-106.959 128.448,-92.8408 94.4915,-82.475"/>
<polygon fill="midnightblue" stroke="midnightblue" points="95.4074,-79.0953 84.8212,-79.5231 93.3637,-85.7903 95.4074,-79.0953"/>
</g>
<!-- Node4 -->
<g id="node7" class="node"><title>Node4</title>
<polygon fill="white" stroke="#bfbfbf" points="102.349,-58.5 102.349,-79.5 158.349,-79.5 158.349,-58.5 102.349,-58.5"/>
<text text-anchor="middle" x="130.349" y="-66.5" font-family="DejaVuSans" font-size="10.00">QDebug</text>
</g>
<!-- Node1&#45;&gt;Node4 -->
<g id="edge6" class="edge"><title>Node1&#45;&gt;Node4</title>
<path fill="none" stroke="midnightblue" d="M220.429,-116.497C203.403,-107.519 178.68,-94.4835 159.44,-84.3387"/>
<polygon fill="midnightblue" stroke="midnightblue" points="160.971,-81.1894 150.493,-79.6212 157.706,-87.3814 160.971,-81.1894"/>
</g>
<!-- Node5 -->
<g id="node9" class="node"><title>Node5</title>
<polygon fill="white" stroke="#bfbfbf" points="176.349,-58.5 176.349,-79.5 304.349,-79.5 304.349,-58.5 176.349,-58.5"/>
<text text-anchor="middle" x="240.349" y="-66.5" font-family="DejaVuSans" font-size="10.00">Datatypes/cv_Identity.h</text>
</g>
<!-- Node1&#45;&gt;Node5 -->
<g id="edge8" class="edge"><title>Node1&#45;&gt;Node5</title>
<path fill="none" stroke="midnightblue" d="M240.349,-116.362C240.349,-108.922 240.349,-98.7427 240.349,-89.7276"/>
<polygon fill="midnightblue" stroke="midnightblue" points="243.849,-89.5706 240.349,-79.5707 236.849,-89.5707 243.849,-89.5706"/>
</g>
<!-- Node6 -->
<g id="node11" class="node"><title>Node6</title>
<polygon fill="white" stroke="#bfbfbf" points="321.849,-58.5 321.849,-79.5 448.849,-79.5 448.849,-58.5 321.849,-58.5"/>
<text text-anchor="middle" x="385.349" y="-66.5" font-family="DejaVuSans" font-size="10.00">Exceptions/Exception.h</text>
</g>
<!-- Node1&#45;&gt;Node6 -->
<g id="edge10" class="edge"><title>Node1&#45;&gt;Node6</title>
<path fill="none" stroke="midnightblue" d="M266.608,-116.497C289.765,-107.234 323.724,-93.6499 349.401,-83.3793"/>
<polygon fill="midnightblue" stroke="midnightblue" points="350.811,-86.5849 358.796,-79.6212 348.211,-80.0855 350.811,-86.5849"/>
</g>
<!-- Node7 -->
<g id="node13" class="node"><title>Node7</title>
<a xlink:href="_name_dialog_8h.html" target="_top" xlink:title="NameDialog.h">
<polygon fill="white" stroke="black" points="465.849,-58.5 465.849,-79.5 550.849,-79.5 550.849,-58.5 465.849,-58.5"/>
<text text-anchor="middle" x="508.349" y="-66.5" font-family="DejaVuSans" font-size="10.00">NameDialog.h</text>
</a>
</g>
<!-- Node1&#45;&gt;Node7 -->
<g id="edge12" class="edge"><title>Node1&#45;&gt;Node7</title>
<path fill="none" stroke="midnightblue" d="M288.882,-116.497C335.917,-106.317 407.064,-90.92 455.507,-80.4359"/>
<polygon fill="midnightblue" stroke="midnightblue" points="456.45,-83.8131 465.483,-78.277 454.969,-76.9715 456.45,-83.8131"/>
</g>
<!-- Node10 -->
<g id="node20" class="node"><title>Node10</title>
<polygon fill="white" stroke="#bfbfbf" points="568.349,-58.5 568.349,-79.5 666.349,-79.5 666.349,-58.5 568.349,-58.5"/>
<text text-anchor="middle" x="617.349" y="-66.5" font-family="DejaVuSans" font-size="10.00">ui_NameDialog.h</text>
</g>
<!-- Node1&#45;&gt;Node10 -->
<g id="edge20" class="edge"><title>Node1&#45;&gt;Node10</title>
<path fill="none" stroke="midnightblue" d="M317.842,-116.492C380.19,-107.827 470.302,-94.8332 558.426,-80.1074"/>
<polygon fill="midnightblue" stroke="midnightblue" points="559.045,-83.5526 568.327,-78.4441 557.885,-76.6493 559.045,-83.5526"/>
</g>
<!-- Node7&#45;&gt;Node2 -->
<g id="edge14" class="edge"><title>Node7&#45;&gt;Node2</title>
<path fill="none" stroke="midnightblue" d="M465.811,-59.6253C462.951,-59.0567 460.11,-58.5094 457.349,-58 366.662,-41.271 260.083,-25.8543 199.65,-17.5053"/>
<polygon fill="midnightblue" stroke="midnightblue" points="200.021,-14.0234 189.637,-16.1283 199.067,-20.9581 200.021,-14.0234"/>
</g>
<!-- Node8 -->
<g id="node16" class="node"><title>Node8</title>
<polygon fill="white" stroke="#bfbfbf" points="371.349,-0.5 371.349,-21.5 523.349,-21.5 523.349,-0.5 371.349,-0.5"/>
<text text-anchor="middle" x="447.349" y="-8.5" font-family="DejaVuSans" font-size="10.00">Storage/StorageCharacter.h</text>
</g>
<!-- Node7&#45;&gt;Node8 -->
<g id="edge16" class="edge"><title>Node7&#45;&gt;Node8</title>
<path fill="none" stroke="midnightblue" d="M497.161,-58.3619C488.39,-50.0226 476,-38.2418 465.771,-28.5162"/>
<polygon fill="midnightblue" stroke="midnightblue" points="468.125,-25.9248 458.467,-21.5707 463.302,-30.9978 468.125,-25.9248"/>
</g>
<!-- Node9 -->
<g id="node18" class="node"><title>Node9</title>
<polygon fill="white" stroke="#bfbfbf" points="541.349,-0.5 541.349,-21.5 595.349,-21.5 595.349,-0.5 541.349,-0.5"/>
<text text-anchor="middle" x="568.349" y="-8.5" font-family="DejaVuSans" font-size="10.00">QDialog</text>
</g>
<!-- Node7&#45;&gt;Node9 -->
<g id="edge18" class="edge"><title>Node7&#45;&gt;Node9</title>
<path fill="none" stroke="midnightblue" d="M519.354,-58.3619C527.896,-50.1043 539.929,-38.4725 549.932,-28.8029"/>
<polygon fill="midnightblue" stroke="midnightblue" points="552.657,-31.0374 557.414,-21.5707 547.791,-26.0044 552.657,-31.0374"/>
</g>
</g>
</svg>
