<?xml version="1.0" encoding="UTF-8" standalone="no"?>
<!DOCTYPE svg PUBLIC "-//W3C//DTD SVG 1.1//EN"
 "http://www.w3.org/Graphics/SVG/1.1/DTD/svg11.dtd">
<!-- Generated by graphviz version 2.26.3 (20100126.1600)
 -->
<!-- Title: G Pages: 1 -->
<svg width="943pt" height="378pt"
 viewBox="0.00 0.00 943.43 378.00" xmlns="http://www.w3.org/2000/svg" xmlns:xlink="http://www.w3.org/1999/xlink">
<g id="graph1" class="graph" transform="scale(1 1) rotate(0) translate(4 374)">
<title>G</title>
<polygon fill="white" stroke="white" points="-4,5 -4,-374 940.434,-374 940.434,5 -4,5"/>
<!-- Node1 -->
<g id="node1" class="node"><title>Node1</title>
<polygon fill="#bfbfbf" stroke="black" points="260.563,-348.5 260.563,-369.5 441.563,-369.5 441.563,-348.5 260.563,-348.5"/>
<text text-anchor="middle" x="351.063" y="-356.5" font-family="DejaVuSans" font-size="10.00">src/Widgets/Dialogs/NameDialog.h</text>
</g>
<!-- Node2 -->
<g id="node3" class="node"><title>Node2</title>
<polygon fill="white" stroke="#bfbfbf" points="172.063,-290.5 172.063,-311.5 248.063,-311.5 248.063,-290.5 172.063,-290.5"/>
<text text-anchor="middle" x="210.063" y="-298.5" font-family="DejaVuSans" font-size="10.00">QGridLayout</text>
</g>
<!-- Node1&#45;&gt;Node2 -->
<g id="edge2" class="edge"><title>Node1&#45;&gt;Node2</title>
<path fill="none" stroke="midnightblue" d="M325.529,-348.497C303.11,-339.275 270.278,-325.769 245.35,-315.515"/>
<polygon fill="midnightblue" stroke="midnightblue" points="246.463,-312.189 235.883,-311.621 243.8,-318.662 246.463,-312.189"/>
</g>
<!-- Node3 -->
<g id="node5" class="node"><title>Node3</title>
<a xlink:href="_storage_character_8h.html" target="_top" xlink:title="../../Storage/StorageCharacter.h">
<polygon fill="white" stroke="black" points="266.063,-290.5 266.063,-311.5 436.063,-311.5 436.063,-290.5 266.063,-290.5"/>
<text text-anchor="middle" x="351.063" y="-298.5" font-family="DejaVuSans" font-size="10.00">../../Storage/StorageCharacter.h</text>
</a>
</g>
<!-- Node1&#45;&gt;Node3 -->
<g id="edge4" class="edge"><title>Node1&#45;&gt;Node3</title>
<path fill="none" stroke="midnightblue" d="M351.063,-348.362C351.063,-340.922 351.063,-330.743 351.063,-321.728"/>
<polygon fill="midnightblue" stroke="midnightblue" points="354.563,-321.571 351.063,-311.571 347.563,-321.571 354.563,-321.571"/>
</g>
<!-- Node19 -->
<g id="node60" class="node"><title>Node19</title>
<polygon fill="white" stroke="#bfbfbf" points="454.063,-290.5 454.063,-311.5 508.063,-311.5 508.063,-290.5 454.063,-290.5"/>
<text text-anchor="middle" x="481.063" y="-298.5" font-family="DejaVuSans" font-size="10.00">QDialog</text>
</g>
<!-- Node1&#45;&gt;Node19 -->
<g id="edge82" class="edge"><title>Node1&#45;&gt;Node19</title>
<path fill="none" stroke="midnightblue" d="M374.605,-348.497C395.092,-339.356 425.01,-326.008 447.917,-315.788"/>
<polygon fill="midnightblue" stroke="midnightblue" points="449.55,-318.892 457.257,-311.621 446.698,-312.499 449.55,-318.892"/>
</g>
<!-- Node4 -->
<g id="node7" class="node"><title>Node4</title>
<a xlink:href="cv___identity_8h.html" target="_top" xlink:title="../Datatypes/cv_Identity.h">
<polygon fill="white" stroke="black" points="14.5628,-116.5 14.5628,-137.5 151.563,-137.5 151.563,-116.5 14.5628,-116.5"/>
<text text-anchor="middle" x="83.0628" y="-124.5" font-family="DejaVuSans" font-size="10.00">../Datatypes/cv_Identity.h</text>
</a>
</g>
<!-- Node3&#45;&gt;Node4 -->
<g id="edge6" class="edge"><title>Node3&#45;&gt;Node4</title>
<path fill="none" stroke="midnightblue" d="M277.493,-290.462C219.334,-278.098 140.884,-251.684 97.0628,-196 86.3407,-182.375 83.2023,-162.666 82.5354,-147.797"/>
<polygon fill="midnightblue" stroke="midnightblue" points="86.0326,-147.512 82.4226,-137.551 79.033,-147.589 86.0326,-147.512"/>
</g>
<!-- Node8 -->
<g id="node17" class="node"><title>Node8</title>
<a xlink:href="cv___identity_list_8h.html" target="_top" xlink:title="../Datatypes/cv_IdentityList.h">
<polygon fill="white" stroke="black" points="105.563,-174.5 105.563,-195.5 260.563,-195.5 260.563,-174.5 105.563,-174.5"/>
<text text-anchor="middle" x="183.063" y="-182.5" font-family="DejaVuSans" font-size="10.00">../Datatypes/cv_IdentityList.h</text>
</a>
</g>
<!-- Node3&#45;&gt;Node8 -->
<g id="edge18" class="edge"><title>Node3&#45;&gt;Node8</title>
<path fill="none" stroke="midnightblue" d="M320.446,-290.385C299.3,-282.244 271.125,-269.741 249.063,-254 228.984,-239.674 209.949,-218.691 197.528,-203.629"/>
<polygon fill="midnightblue" stroke="midnightblue" points="200.016,-201.139 191.021,-195.541 194.562,-205.526 200.016,-201.139"/>
</g>
<!-- Node10 -->
<g id="node23" class="node"><title>Node10</title>
<a xlink:href="cv___trait_8h.html" target="_top" xlink:title="../Datatypes/cv_Trait.h">
<polygon fill="white" stroke="black" points="331.063,-174.5 331.063,-195.5 453.063,-195.5 453.063,-174.5 331.063,-174.5"/>
<text text-anchor="middle" x="392.063" y="-182.5" font-family="DejaVuSans" font-size="10.00">../Datatypes/cv_Trait.h</text>
</a>
</g>
<!-- Node3&#45;&gt;Node10 -->
<g id="edge26" class="edge"><title>Node3&#45;&gt;Node10</title>
<path fill="none" stroke="midnightblue" d="M356.66,-290.394C361.458,-281.009 368.325,-266.849 373.063,-254 378.897,-238.178 383.885,-219.739 387.285,-205.905"/>
<polygon fill="midnightblue" stroke="midnightblue" points="390.747,-206.474 389.656,-195.935 383.937,-204.853 390.747,-206.474"/>
</g>
<!-- Node15 -->
<g id="node43" class="node"><title>Node15</title>
<a xlink:href="cv___derangement_8h.html" target="_top" xlink:title="../Datatypes/cv_Derangement.h">
<polygon fill="white" stroke="black" points="747.063,-174.5 747.063,-195.5 917.063,-195.5 917.063,-174.5 747.063,-174.5"/>
<text text-anchor="middle" x="832.063" y="-182.5" font-family="DejaVuSans" font-size="10.00">../Datatypes/cv_Derangement.h</text>
</a>
</g>
<!-- Node3&#45;&gt;Node15 -->
<g id="edge56" class="edge"><title>Node3&#45;&gt;Node15</title>
<path fill="none" stroke="midnightblue" d="M395.024,-290.398C483.499,-269.061 682.768,-221.004 778.602,-197.893"/>
<polygon fill="midnightblue" stroke="midnightblue" points="779.478,-201.282 788.378,-195.535 777.836,-194.477 779.478,-201.282"/>
</g>
<!-- Node16 -->
<g id="node48" class="node"><title>Node16</title>
<a xlink:href="_storage_template_8h.html" target="_top" xlink:title="StorageTemplate.h">
<polygon fill="white" stroke="black" points="257.563,-232.5 257.563,-253.5 364.563,-253.5 364.563,-232.5 257.563,-232.5"/>
<text text-anchor="middle" x="311.063" y="-240.5" font-family="DejaVuSans" font-size="10.00">StorageTemplate.h</text>
</a>
</g>
<!-- Node3&#45;&gt;Node16 -->
<g id="edge64" class="edge"><title>Node3&#45;&gt;Node16</title>
<path fill="none" stroke="midnightblue" d="M343.726,-290.362C338.257,-282.431 330.641,-271.389 324.139,-261.961"/>
<polygon fill="midnightblue" stroke="midnightblue" points="326.912,-259.816 318.353,-253.571 321.149,-263.79 326.912,-259.816"/>
</g>
<!-- Node18 -->
<g id="node57" class="node"><title>Node18</title>
<polygon fill="white" stroke="#bfbfbf" points="508.563,-174.5 508.563,-195.5 563.563,-195.5 563.563,-174.5 508.563,-174.5"/>
<text text-anchor="middle" x="536.063" y="-182.5" font-family="DejaVuSans" font-size="10.00">QObject</text>
</g>
<!-- Node3&#45;&gt;Node18 -->
<g id="edge80" class="edge"><title>Node3&#45;&gt;Node18</title>
<path fill="none" stroke="midnightblue" d="M368.136,-290.295C400.846,-269.785 472.494,-224.859 510.773,-200.857"/>
<polygon fill="midnightblue" stroke="midnightblue" points="512.686,-203.789 519.299,-195.512 508.967,-197.859 512.686,-203.789"/>
</g>
<!-- Node5 -->
<g id="node9" class="node"><title>Node5</title>
<polygon fill="white" stroke="#bfbfbf" points="85.5628,-0.5 85.5628,-21.5 154.563,-21.5 154.563,-0.5 85.5628,-0.5"/>
<text text-anchor="middle" x="120.063" y="-8.5" font-family="DejaVuSans" font-size="10.00">QStringList</text>
</g>
<!-- Node4&#45;&gt;Node5 -->
<g id="edge8" class="edge"><title>Node4&#45;&gt;Node5</title>
<path fill="none" stroke="midnightblue" d="M86.4774,-116.295C92.6174,-97.0451 105.617,-56.2889 113.521,-31.5091"/>
<polygon fill="midnightblue" stroke="midnightblue" points="116.952,-32.2699 116.657,-21.6792 110.283,-30.1427 116.952,-32.2699"/>
</g>
<!-- Node6 -->
<g id="node11" class="node"><title>Node6</title>
<polygon fill="white" stroke="#bfbfbf" points="427.563,-0.5 427.563,-21.5 480.563,-21.5 480.563,-0.5 427.563,-0.5"/>
<text text-anchor="middle" x="454.063" y="-8.5" font-family="DejaVuSans" font-size="10.00">QString</text>
</g>
<!-- Node4&#45;&gt;Node6 -->
<g id="edge10" class="edge"><title>Node4&#45;&gt;Node6</title>
<path fill="none" stroke="midnightblue" d="M120.946,-116.414C150.334,-107.779 191.855,-94.6452 227.063,-80 246.884,-71.7552 249.983,-65.5924 270.063,-58 319.675,-39.2409 379.596,-25.4981 417.277,-17.8752"/>
<polygon fill="midnightblue" stroke="midnightblue" points="418.161,-21.2681 427.289,-15.8883 416.798,-14.402 418.161,-21.2681"/>
</g>
<!-- Node7 -->
<g id="node13" class="node"><title>Node7</title>
<a xlink:href="cv___name_8h.html" target="_top" xlink:title="cv_Name.h">
<polygon fill="white" stroke="black" points="147.563,-58.5 147.563,-79.5 218.563,-79.5 218.563,-58.5 147.563,-58.5"/>
<text text-anchor="middle" x="183.063" y="-66.5" font-family="DejaVuSans" font-size="10.00">cv_Name.h</text>
</a>
</g>
<!-- Node4&#45;&gt;Node7 -->
<g id="edge12" class="edge"><title>Node4&#45;&gt;Node7</title>
<path fill="none" stroke="midnightblue" d="M101.404,-116.362C116.628,-107.532 138.504,-94.844 155.783,-84.8224"/>
<polygon fill="midnightblue" stroke="midnightblue" points="157.943,-87.6155 164.838,-79.5707 154.431,-81.5603 157.943,-87.6155"/>
</g>
<!-- Node7&#45;&gt;Node5 -->
<g id="edge14" class="edge"><title>Node7&#45;&gt;Node5</title>
<path fill="none" stroke="midnightblue" d="M171.508,-58.3619C162.449,-50.0226 149.653,-38.2418 139.089,-28.5162"/>
<polygon fill="midnightblue" stroke="midnightblue" points="141.272,-25.7688 131.545,-21.5707 136.531,-30.9187 141.272,-25.7688"/>
</g>
<!-- Node7&#45;&gt;Node6 -->
<g id="edge16" class="edge"><title>Node7&#45;&gt;Node6</title>
<path fill="none" stroke="midnightblue" d="M218.646,-60.9585C223.16,-59.954 227.718,-58.9475 232.063,-58 297.274,-43.778 373.401,-27.7956 417.436,-18.6115"/>
<polygon fill="midnightblue" stroke="midnightblue" points="418.31,-22.0047 427.386,-16.5382 416.882,-15.1519 418.31,-22.0047"/>
</g>
<!-- Node8&#45;&gt;Node4 -->
<g id="edge22" class="edge"><title>Node8&#45;&gt;Node4</title>
<path fill="none" stroke="midnightblue" d="M164.721,-174.362C149.497,-165.532 127.621,-152.844 110.343,-142.822"/>
<polygon fill="midnightblue" stroke="midnightblue" points="111.694,-139.56 101.288,-137.571 108.182,-145.615 111.694,-139.56"/>
</g>
<!-- Node8&#45;&gt;Node6 -->
<g id="edge20" class="edge"><title>Node8&#45;&gt;Node6</title>
<path fill="none" stroke="midnightblue" d="M186.041,-174.155C190.457,-159.618 199.894,-133.607 215.063,-116 230.35,-98.256 281.895,-68.0235 303.063,-58 340.406,-40.3172 386.025,-27.1825 417.285,-19.3592"/>
<polygon fill="midnightblue" stroke="midnightblue" points="418.421,-22.6849 427.304,-16.9108 416.759,-15.885 418.421,-22.6849"/>
</g>
<!-- Node9 -->
<g id="node21" class="node"><title>Node9</title>
<polygon fill="white" stroke="#bfbfbf" points="311.563,-58.5 311.563,-79.5 352.563,-79.5 352.563,-58.5 311.563,-58.5"/>
<text text-anchor="middle" x="332.063" y="-66.5" font-family="DejaVuSans" font-size="10.00">QList</text>
</g>
<!-- Node8&#45;&gt;Node9 -->
<g id="edge24" class="edge"><title>Node8&#45;&gt;Node9</title>
<path fill="none" stroke="midnightblue" d="M190.212,-174.034C200.202,-159.36 219.548,-133.196 241.063,-116 259.633,-101.158 283.627,-88.9994 302.314,-80.7696"/>
<polygon fill="midnightblue" stroke="midnightblue" points="303.721,-83.9744 311.545,-76.8306 300.974,-77.536 303.721,-83.9744"/>
</g>
<!-- Node10&#45;&gt;Node5 -->
<g id="edge34" class="edge"><title>Node10&#45;&gt;Node5</title>
<path fill="none" stroke="midnightblue" d="M330.805,-175.329C273.233,-163.046 188.702,-136.249 139.063,-80 127.401,-66.7857 122.83,-47.0317 121.071,-32.0419"/>
<polygon fill="midnightblue" stroke="midnightblue" points="124.527,-31.3677 120.204,-21.695 117.551,-31.9524 124.527,-31.3677"/>
</g>
<!-- Node10&#45;&gt;Node6 -->
<g id="edge30" class="edge"><title>Node10&#45;&gt;Node6</title>
<path fill="none" stroke="midnightblue" d="M416.129,-174.38C430.575,-166.585 447.719,-154.48 456.063,-138 473.32,-103.916 466.303,-57.799 459.964,-31.5465"/>
<polygon fill="midnightblue" stroke="midnightblue" points="463.28,-30.3922 457.361,-21.6045 456.508,-32.165 463.28,-30.3922"/>
</g>
<!-- Node10&#45;&gt;Node9 -->
<g id="edge32" class="edge"><title>Node10&#45;&gt;Node9</title>
<path fill="none" stroke="midnightblue" d="M379.646,-174.223C370.212,-165.387 357.613,-152.08 350.063,-138 342.03,-123.02 337.436,-104.262 334.903,-90.086"/>
<polygon fill="midnightblue" stroke="midnightblue" points="338.305,-89.1908 333.287,-79.8597 331.391,-90.2835 338.305,-89.1908"/>
</g>
<!-- Node11 -->
<g id="node25" class="node"><title>Node11</title>
<polygon fill="white" stroke="#bfbfbf" points="502.563,-116.5 502.563,-137.5 551.563,-137.5 551.563,-116.5 502.563,-116.5"/>
<text text-anchor="middle" x="527.063" y="-124.5" font-family="DejaVuSans" font-size="10.00">QFlags</text>
</g>
<!-- Node10&#45;&gt;Node11 -->
<g id="edge28" class="edge"><title>Node10&#45;&gt;Node11</title>
<path fill="none" stroke="midnightblue" d="M416.51,-174.497C437.881,-165.315 469.132,-151.889 492.96,-141.652"/>
<polygon fill="midnightblue" stroke="midnightblue" points="494.535,-144.784 502.341,-137.621 491.771,-138.353 494.535,-144.784"/>
</g>
<!-- Node12 -->
<g id="node30" class="node"><title>Node12</title>
<a xlink:href="cv___species_8h.html" target="_top" xlink:title="cv_Species.h">
<polygon fill="white" stroke="black" points="592.563,-58.5 592.563,-79.5 671.563,-79.5 671.563,-58.5 592.563,-58.5"/>
<text text-anchor="middle" x="632.063" y="-66.5" font-family="DejaVuSans" font-size="10.00">cv_Species.h</text>
</a>
</g>
<!-- Node10&#45;&gt;Node12 -->
<g id="edge36" class="edge"><title>Node10&#45;&gt;Node12</title>
<path fill="none" stroke="midnightblue" d="M453.184,-175.411C486.355,-168.406 527.18,-156.76 560.063,-138 582.902,-124.97 603.983,-103.115 617.354,-87.4925"/>
<polygon fill="midnightblue" stroke="midnightblue" points="620.253,-89.4788 623.951,-79.5499 614.869,-85.0062 620.253,-89.4788"/>
</g>
<!-- Node13 -->
<g id="node33" class="node"><title>Node13</title>
<a xlink:href="cv___trait_detail_8h.html" target="_top" xlink:title="cv_TraitDetail.h">
<polygon fill="white" stroke="black" points="358.563,-116.5 358.563,-137.5 447.563,-137.5 447.563,-116.5 358.563,-116.5"/>
<text text-anchor="middle" x="403.063" y="-124.5" font-family="DejaVuSans" font-size="10.00">cv_TraitDetail.h</text>
</a>
</g>
<!-- Node10&#45;&gt;Node13 -->
<g id="edge40" class="edge"><title>Node10&#45;&gt;Node13</title>
<path fill="none" stroke="midnightblue" d="M394.08,-174.362C395.507,-166.84 397.464,-156.519 399.188,-147.431"/>
<polygon fill="midnightblue" stroke="midnightblue" points="402.633,-148.048 401.058,-137.571 395.756,-146.743 402.633,-148.048"/>
</g>
<!-- Node14 -->
<g id="node39" class="node"><title>Node14</title>
<a xlink:href="cv___abstract_trait_8h.html" target="_top" xlink:title="cv_AbstractTrait.h">
<polygon fill="white" stroke="black" points="820.563,-116.5 820.563,-137.5 921.563,-137.5 921.563,-116.5 820.563,-116.5"/>
<text text-anchor="middle" x="871.063" y="-124.5" font-family="DejaVuSans" font-size="10.00">cv_AbstractTrait.h</text>
</a>
</g>
<!-- Node10&#45;&gt;Node14 -->
<g id="edge50" class="edge"><title>Node10&#45;&gt;Node14</title>
<path fill="none" stroke="midnightblue" d="M453.215,-177.595C545.349,-166.439 718.722,-145.446 810.505,-134.333"/>
<polygon fill="midnightblue" stroke="midnightblue" points="810.968,-137.802 820.475,-133.125 810.127,-130.853 810.968,-137.802"/>
</g>
<!-- Node12&#45;&gt;Node6 -->
<g id="edge38" class="edge"><title>Node12&#45;&gt;Node6</title>
<path fill="none" stroke="midnightblue" d="M599.828,-58.4966C569.092,-48.4814 522.853,-33.4147 490.726,-22.9464"/>
<polygon fill="midnightblue" stroke="midnightblue" points="491.421,-19.4918 480.829,-19.7214 489.252,-26.1474 491.421,-19.4918"/>
</g>
<!-- Node13&#45;&gt;Node5 -->
<g id="edge46" class="edge"><title>Node13&#45;&gt;Node5</title>
<path fill="none" stroke="midnightblue" d="M399.724,-116.438C394.263,-100.992 381.893,-72.5059 361.063,-58 329.896,-36.2952 225.352,-22.0346 164.682,-15.371"/>
<polygon fill="midnightblue" stroke="midnightblue" points="164.932,-11.8778 154.616,-14.2908 164.185,-18.8378 164.932,-11.8778"/>
</g>
<!-- Node13&#45;&gt;Node6 -->
<g id="edge42" class="edge"><title>Node13&#45;&gt;Node6</title>
<path fill="none" stroke="midnightblue" d="M407.769,-116.295C416.309,-96.8724 434.474,-55.5561 445.337,-30.8462"/>
<polygon fill="midnightblue" stroke="midnightblue" points="448.547,-32.2422 449.368,-21.6792 442.139,-29.4248 448.547,-32.2422"/>
</g>
<!-- Node13&#45;&gt;Node9 -->
<g id="edge44" class="edge"><title>Node13&#45;&gt;Node9</title>
<path fill="none" stroke="midnightblue" d="M390.04,-116.362C379.632,-107.859 364.843,-95.7785 352.808,-85.9466"/>
<polygon fill="midnightblue" stroke="midnightblue" points="354.961,-83.1866 345.003,-79.5707 350.533,-88.6077 354.961,-83.1866"/>
</g>
<!-- Node13&#45;&gt;Node12 -->
<g id="edge48" class="edge"><title>Node13&#45;&gt;Node12</title>
<path fill="none" stroke="midnightblue" d="M444.533,-116.497C483.35,-106.665 541.387,-91.9659 582.602,-81.5272"/>
<polygon fill="midnightblue" stroke="midnightblue" points="583.599,-84.8853 592.433,-79.0371 581.88,-78.0996 583.599,-84.8853"/>
</g>
<!-- Node14&#45;&gt;Node6 -->
<g id="edge52" class="edge"><title>Node14&#45;&gt;Node6</title>
<path fill="none" stroke="midnightblue" d="M845.491,-116.447C809.201,-101.775 740.448,-75.0933 680.063,-58 614.239,-39.3671 535.712,-24.6856 490.69,-16.9706"/>
<polygon fill="midnightblue" stroke="midnightblue" points="491.245,-13.5148 480.801,-15.296 490.076,-20.4166 491.245,-13.5148"/>
</g>
<!-- Node14&#45;&gt;Node12 -->
<g id="edge54" class="edge"><title>Node14&#45;&gt;Node12</title>
<path fill="none" stroke="midnightblue" d="M827.782,-116.497C786.685,-106.523 724.948,-91.5412 681.835,-81.0786"/>
<polygon fill="midnightblue" stroke="midnightblue" points="682.389,-77.6115 671.845,-78.6543 680.738,-84.414 682.389,-77.6115"/>
</g>
<!-- Node15&#45;&gt;Node6 -->
<g id="edge58" class="edge"><title>Node15&#45;&gt;Node6</title>
<path fill="none" stroke="midnightblue" d="M871.212,-174.478C906.573,-162.995 950.209,-142.636 930.063,-116 876.692,-45.434 592.94,-20.0927 490.764,-13.1759"/>
<polygon fill="midnightblue" stroke="midnightblue" points="490.824,-9.67241 480.616,-12.5096 490.365,-16.6574 490.824,-9.67241"/>
</g>
<!-- Node15&#45;&gt;Node12 -->
<g id="edge60" class="edge"><title>Node15&#45;&gt;Node12</title>
<path fill="none" stroke="midnightblue" d="M825.771,-174.294C816.368,-159.19 797.25,-131.718 774.063,-116 746.278,-97.1659 710.35,-85.3688 681.585,-78.3042"/>
<polygon fill="midnightblue" stroke="midnightblue" points="682.268,-74.8697 671.734,-75.9989 680.673,-81.6856 682.268,-74.8697"/>
</g>
<!-- Node15&#45;&gt;Node14 -->
<g id="edge62" class="edge"><title>Node15&#45;&gt;Node14</title>
<path fill="none" stroke="midnightblue" d="M839.216,-174.362C844.549,-166.431 851.974,-155.389 858.313,-145.961"/>
<polygon fill="midnightblue" stroke="midnightblue" points="861.279,-147.822 863.955,-137.571 855.471,-143.916 861.279,-147.822"/>
</g>
<!-- Node16&#45;&gt;Node5 -->
<g id="edge68" class="edge"><title>Node16&#45;&gt;Node5</title>
<path fill="none" stroke="midnightblue" d="M257.165,-236.508C212.917,-229.931 149.269,-217.571 97.0628,-196 52.7366,-177.685 29.1271,-180.051 6.06284,-138 -19.3041,-91.7507 45.748,-48.4059 87.724,-26.2943"/>
<polygon fill="midnightblue" stroke="midnightblue" points="89.4944,-29.3201 96.8029,-21.6496 86.3062,-23.0882 89.4944,-29.3201"/>
</g>
<!-- Node16&#45;&gt;Node8 -->
<g id="edge72" class="edge"><title>Node16&#45;&gt;Node8</title>
<path fill="none" stroke="midnightblue" d="M287.883,-232.497C267.711,-223.356 238.253,-210.008 215.699,-199.788"/>
<polygon fill="midnightblue" stroke="midnightblue" points="217.056,-196.561 206.503,-195.621 214.167,-202.937 217.056,-196.561"/>
</g>
<!-- Node16&#45;&gt;Node9 -->
<g id="edge66" class="edge"><title>Node16&#45;&gt;Node9</title>
<path fill="none" stroke="midnightblue" d="M312.345,-232.377C315.734,-204.293 324.982,-127.673 329.504,-90.2027"/>
<polygon fill="midnightblue" stroke="midnightblue" points="333.02,-90.2751 330.744,-79.9277 326.071,-89.4363 333.02,-90.2751"/>
</g>
<!-- Node16&#45;&gt;Node10 -->
<g id="edge70" class="edge"><title>Node16&#45;&gt;Node10</title>
<path fill="none" stroke="midnightblue" d="M325.919,-232.362C337.908,-223.777 354.99,-211.546 368.791,-201.664"/>
<polygon fill="midnightblue" stroke="midnightblue" points="371.207,-204.238 377.3,-195.571 367.132,-198.547 371.207,-204.238"/>
</g>
<!-- Node17 -->
<g id="node54" class="node"><title>Node17</title>
<a xlink:href="cv___super_effect_8h.html" target="_top" xlink:title="../Datatypes/cv_SuperEffect.h">
<polygon fill="white" stroke="black" points="607.063,-116.5 607.063,-137.5 765.063,-137.5 765.063,-116.5 607.063,-116.5"/>
<text text-anchor="middle" x="686.063" y="-124.5" font-family="DejaVuSans" font-size="10.00">../Datatypes/cv_SuperEffect.h</text>
</a>
</g>
<!-- Node16&#45;&gt;Node17 -->
<g id="edge74" class="edge"><title>Node16&#45;&gt;Node17</title>
<path fill="none" stroke="midnightblue" d="M353.637,-232.48C384.403,-224.226 426.609,-211.547 462.063,-196 479.935,-188.163 481.985,-181.35 500.063,-174 537.572,-158.75 581.402,-147.385 617.091,-139.654"/>
<polygon fill="midnightblue" stroke="midnightblue" points="617.871,-143.066 626.929,-137.569 616.42,-136.218 617.871,-143.066"/>
</g>
<!-- Node16&#45;&gt;Node18 -->
<g id="edge78" class="edge"><title>Node16&#45;&gt;Node18</title>
<path fill="none" stroke="midnightblue" d="M353.12,-232.41C390.439,-222.977 446.423,-208.736 495.063,-196 496.132,-195.72 497.217,-195.435 498.312,-195.147"/>
<polygon fill="midnightblue" stroke="midnightblue" points="499.518,-198.448 508.286,-192.501 497.723,-191.682 499.518,-198.448"/>
</g>
<!-- Node17&#45;&gt;Node12 -->
<g id="edge76" class="edge"><title>Node17&#45;&gt;Node12</title>
<path fill="none" stroke="midnightblue" d="M676.158,-116.362C668.546,-108.186 657.855,-96.7025 648.906,-87.0907"/>
<polygon fill="midnightblue" stroke="midnightblue" points="651.28,-84.5046 641.904,-79.5707 646.157,-89.2746 651.28,-84.5046"/>
</g>
</g>
</svg>
