<?xml version="1.0" encoding="UTF-8" standalone="no"?>
<!DOCTYPE svg PUBLIC "-//W3C//DTD SVG 1.1//EN"
 "http://www.w3.org/Graphics/SVG/1.1/DTD/svg11.dtd">
<!-- Generated by graphviz version 2.26.3 (20100126.1600)
 -->
<!-- Title: G Pages: 1 -->
<svg width="368pt" height="146pt"
 viewBox="0.00 0.00 368.00 146.00" xmlns="http://www.w3.org/2000/svg" xmlns:xlink="http://www.w3.org/1999/xlink">
<g id="graph1" class="graph" transform="scale(1 1) rotate(0) translate(4 142)">
<title>G</title>
<polygon fill="white" stroke="white" points="-4,5 -4,-142 365,-142 365,5 -4,5"/>
<!-- Node1 -->
<g id="node1" class="node"><title>Node1</title>
<polygon fill="#bfbfbf" stroke="black" points="62,-116.5 62,-137.5 254,-137.5 254,-116.5 62,-116.5"/>
<text text-anchor="middle" x="158" y="-124.5" font-family="DejaVuSans" font-size="10.00">src/Widgets/Dialogs/NameDialog.cpp</text>
</g>
<!-- Node2 -->
<g id="node3" class="node"><title>Node2</title>
<polygon fill="white" stroke="#bfbfbf" points="-0.5,-58.5 -0.5,-79.5 68.5,-79.5 68.5,-58.5 -0.5,-58.5"/>
<text text-anchor="middle" x="34" y="-66.5" font-family="DejaVuSans" font-size="10.00">QStringList</text>
</g>
<!-- Node1&#45;&gt;Node2 -->
<g id="edge2" class="edge"><title>Node1&#45;&gt;Node2</title>
<path fill="none" stroke="midnightblue" d="M135.545,-116.497C116.09,-107.397 87.7203,-94.1273 65.9093,-83.9253"/>
<polygon fill="midnightblue" stroke="midnightblue" points="67.2485,-80.6878 56.7074,-79.6212 64.2826,-87.0285 67.2485,-80.6878"/>
</g>
<!-- Node3 -->
<g id="node5" class="node"><title>Node3</title>
<polygon fill="white" stroke="#bfbfbf" points="86,-58.5 86,-79.5 142,-79.5 142,-58.5 86,-58.5"/>
<text text-anchor="middle" x="114" y="-66.5" font-family="DejaVuSans" font-size="10.00">QDebug</text>
</g>
<!-- Node1&#45;&gt;Node3 -->
<g id="edge4" class="edge"><title>Node1&#45;&gt;Node3</title>
<path fill="none" stroke="midnightblue" d="M149.93,-116.362C143.851,-108.35 135.363,-97.1605 128.163,-87.6696"/>
<polygon fill="midnightblue" stroke="midnightblue" points="130.851,-85.4222 122.019,-79.5707 125.275,-89.653 130.851,-85.4222"/>
</g>
<!-- Node4 -->
<g id="node7" class="node"><title>Node4</title>
<a xlink:href="_name_dialog_8h.html" target="_top" xlink:title="NameDialog.h">
<polygon fill="white" stroke="black" points="159.5,-58.5 159.5,-79.5 244.5,-79.5 244.5,-58.5 159.5,-58.5"/>
<text text-anchor="middle" x="202" y="-66.5" font-family="DejaVuSans" font-size="10.00">NameDialog.h</text>
</a>
</g>
<!-- Node1&#45;&gt;Node4 -->
<g id="edge6" class="edge"><title>Node1&#45;&gt;Node4</title>
<path fill="none" stroke="midnightblue" d="M166.07,-116.362C172.149,-108.35 180.637,-97.1605 187.837,-87.6696"/>
<polygon fill="midnightblue" stroke="midnightblue" points="190.725,-89.653 193.981,-79.5707 185.149,-85.4222 190.725,-89.653"/>
</g>
<!-- Node8 -->
<g id="node15" class="node"><title>Node8</title>
<polygon fill="white" stroke="#bfbfbf" points="262,-58.5 262,-79.5 360,-79.5 360,-58.5 262,-58.5"/>
<text text-anchor="middle" x="311" y="-66.5" font-family="DejaVuSans" font-size="10.00">ui_NameDialog.h</text>
</g>
<!-- Node1&#45;&gt;Node8 -->
<g id="edge14" class="edge"><title>Node1&#45;&gt;Node8</title>
<path fill="none" stroke="midnightblue" d="M185.707,-116.497C210.326,-107.164 246.517,-93.4447 273.68,-83.1475"/>
<polygon fill="midnightblue" stroke="midnightblue" points="275.131,-86.3406 283.241,-79.5231 272.65,-79.7951 275.131,-86.3406"/>
</g>
<!-- Node5 -->
<g id="node9" class="node"><title>Node5</title>
<polygon fill="white" stroke="#bfbfbf" points="32,-0.5 32,-21.5 108,-21.5 108,-0.5 32,-0.5"/>
<text text-anchor="middle" x="70" y="-8.5" font-family="DejaVuSans" font-size="10.00">QGridLayout</text>
</g>
<!-- Node4&#45;&gt;Node5 -->
<g id="edge8" class="edge"><title>Node4&#45;&gt;Node5</title>
<path fill="none" stroke="midnightblue" d="M178.096,-58.4966C157.2,-49.3154 126.644,-35.8889 103.345,-25.6516"/>
<polygon fill="midnightblue" stroke="midnightblue" points="104.736,-22.4397 94.1724,-21.6212 101.92,-28.8483 104.736,-22.4397"/>
</g>
<!-- Node6 -->
<g id="node11" class="node"><title>Node6</title>
<polygon fill="white" stroke="#bfbfbf" points="126,-0.5 126,-21.5 278,-21.5 278,-0.5 126,-0.5"/>
<text text-anchor="middle" x="202" y="-8.5" font-family="DejaVuSans" font-size="10.00">Storage/StorageCharacter.h</text>
</g>
<!-- Node4&#45;&gt;Node6 -->
<g id="edge10" class="edge"><title>Node4&#45;&gt;Node6</title>
<path fill="none" stroke="midnightblue" d="M202,-58.3619C202,-50.9219 202,-40.7427 202,-31.7276"/>
<polygon fill="midnightblue" stroke="midnightblue" points="205.5,-31.5706 202,-21.5707 198.5,-31.5707 205.5,-31.5706"/>
</g>
<!-- Node7 -->
<g id="node13" class="node"><title>Node7</title>
<polygon fill="white" stroke="#bfbfbf" points="296,-0.5 296,-21.5 350,-21.5 350,-0.5 296,-0.5"/>
<text text-anchor="middle" x="323" y="-8.5" font-family="DejaVuSans" font-size="10.00">QDialog</text>
</g>
<!-- Node4&#45;&gt;Node7 -->
<g id="edge12" class="edge"><title>Node4&#45;&gt;Node7</title>
<path fill="none" stroke="midnightblue" d="M223.912,-58.4966C242.811,-49.4378 270.331,-36.2462 291.576,-26.0628"/>
<polygon fill="midnightblue" stroke="midnightblue" points="293.337,-29.0999 300.842,-21.6212 290.311,-22.7876 293.337,-29.0999"/>
</g>
</g>
</svg>
