<?xml version="1.0" encoding="UTF-8" standalone="no"?>
<!DOCTYPE svg PUBLIC "-//W3C//DTD SVG 1.1//EN"
 "http://www.w3.org/Graphics/SVG/1.1/DTD/svg11.dtd">
<!-- Generated by graphviz version 2.26.3 (20100126.1600)
 -->
<!-- Title: G Pages: 1 -->
<svg width="1075pt" height="320pt"
 viewBox="0.00 0.00 1075.00 320.00" xmlns="http://www.w3.org/2000/svg" xmlns:xlink="http://www.w3.org/1999/xlink">
<g id="graph1" class="graph" transform="scale(1 1) rotate(0) translate(4 316)">
<title>G</title>
<polygon fill="white" stroke="white" points="-4,5 -4,-316 1072,-316 1072,5 -4,5"/>
<!-- Node1 -->
<g id="node1" class="node"><title>Node1</title>
<polygon fill="#bfbfbf" stroke="black" points="127.5,-290.5 127.5,-311.5 282.5,-311.5 282.5,-290.5 127.5,-290.5"/>
<text text-anchor="middle" x="205" y="-298.5" font-family="DejaVuSans" font-size="10.00">src/Widgets/PowerWidget.cpp</text>
</g>
<!-- Node2 -->
<g id="node3" class="node"><title>Node2</title>
<polygon fill="white" stroke="#bfbfbf" points="0,-232.5 0,-253.5 76,-253.5 76,-232.5 0,-232.5"/>
<text text-anchor="middle" x="38" y="-240.5" font-family="DejaVuSans" font-size="10.00">QGridLayout</text>
</g>
<!-- Node1&#45;&gt;Node2 -->
<g id="edge2" class="edge"><title>Node1&#45;&gt;Node2</title>
<path fill="none" stroke="midnightblue" d="M174.758,-290.497C147.65,-281.082 107.69,-267.204 77.957,-256.877"/>
<polygon fill="midnightblue" stroke="midnightblue" points="78.894,-253.498 68.2992,-253.523 76.5973,-260.11 78.894,-253.498"/>
</g>
<!-- Node3 -->
<g id="node5" class="node"><title>Node3</title>
<polygon fill="white" stroke="#bfbfbf" points="94,-232.5 94,-253.5 150,-253.5 150,-232.5 94,-232.5"/>
<text text-anchor="middle" x="122" y="-240.5" font-family="DejaVuSans" font-size="10.00">QDebug</text>
</g>
<!-- Node1&#45;&gt;Node3 -->
<g id="edge4" class="edge"><title>Node1&#45;&gt;Node3</title>
<path fill="none" stroke="midnightblue" d="M189.777,-290.362C177.375,-281.696 159.654,-269.313 145.443,-259.382"/>
<polygon fill="midnightblue" stroke="midnightblue" points="147.329,-256.43 137.127,-253.571 143.319,-262.168 147.329,-256.43"/>
</g>
<!-- Node4 -->
<g id="node7" class="node"><title>Node4</title>
<a xlink:href="_chara_trait_8h.html" target="_top" xlink:title="CharaTrait.h">
<polygon fill="white" stroke="black" points="168,-232.5 168,-253.5 242,-253.5 242,-232.5 168,-232.5"/>
<text text-anchor="middle" x="205" y="-240.5" font-family="DejaVuSans" font-size="10.00">CharaTrait.h</text>
</a>
</g>
<!-- Node1&#45;&gt;Node4 -->
<g id="edge6" class="edge"><title>Node1&#45;&gt;Node4</title>
<path fill="none" stroke="midnightblue" d="M205,-290.362C205,-282.922 205,-272.743 205,-263.728"/>
<polygon fill="midnightblue" stroke="midnightblue" points="208.5,-263.571 205,-253.571 201.5,-263.571 208.5,-263.571"/>
</g>
<!-- Node22 -->
<g id="node44" class="node"><title>Node22</title>
<polygon fill="white" stroke="#bfbfbf" points="259.5,-232.5 259.5,-253.5 424.5,-253.5 424.5,-232.5 259.5,-232.5"/>
<text text-anchor="middle" x="342" y="-240.5" font-family="DejaVuSans" font-size="10.00">Widgets/Dialogs/MessageBox.h</text>
</g>
<!-- Node1&#45;&gt;Node22 -->
<g id="edge44" class="edge"><title>Node1&#45;&gt;Node22</title>
<path fill="none" stroke="midnightblue" d="M229.81,-290.497C251.496,-281.315 283.211,-267.889 307.392,-257.652"/>
<polygon fill="midnightblue" stroke="midnightblue" points="309.068,-260.743 316.912,-253.621 306.339,-254.297 309.068,-260.743"/>
</g>
<!-- Node23 -->
<g id="node46" class="node"><title>Node23</title>
<a xlink:href="_power_widget_8h.html" target="_top" xlink:title="PowerWidget.h">
<polygon fill="white" stroke="black" points="376,-174.5 376,-195.5 462,-195.5 462,-174.5 376,-174.5"/>
<text text-anchor="middle" x="419" y="-182.5" font-family="DejaVuSans" font-size="10.00">PowerWidget.h</text>
</a>
</g>
<!-- Node1&#45;&gt;Node23 -->
<g id="edge46" class="edge"><title>Node1&#45;&gt;Node23</title>
<path fill="none" stroke="midnightblue" d="M282.707,-295.311C341.102,-289.23 414.139,-277.145 433,-254 444.275,-240.164 438.133,-219.664 430.775,-204.603"/>
<polygon fill="midnightblue" stroke="midnightblue" points="433.758,-202.761 425.935,-195.616 427.595,-206.08 433.758,-202.761"/>
</g>
<!-- Node5 -->
<g id="node9" class="node"><title>Node5</title>
<polygon fill="white" stroke="#bfbfbf" points="129,-116.5 129,-137.5 281,-137.5 281,-116.5 129,-116.5"/>
<text text-anchor="middle" x="205" y="-124.5" font-family="DejaVuSans" font-size="10.00">Storage/StorageCharacter.h</text>
</g>
<!-- Node4&#45;&gt;Node5 -->
<g id="edge8" class="edge"><title>Node4&#45;&gt;Node5</title>
<path fill="none" stroke="midnightblue" d="M205,-232.295C205,-213.131 205,-172.654 205,-147.843"/>
<polygon fill="midnightblue" stroke="midnightblue" points="208.5,-147.679 205,-137.679 201.5,-147.679 208.5,-147.679"/>
</g>
<!-- Node6 -->
<g id="node11" class="node"><title>Node6</title>
<a xlink:href="_trait_line_8h.html" target="_top" xlink:title="TraitLine.h">
<polygon fill="white" stroke="black" points="652.5,-174.5 652.5,-195.5 717.5,-195.5 717.5,-174.5 652.5,-174.5"/>
<text text-anchor="middle" x="685" y="-182.5" font-family="DejaVuSans" font-size="10.00">TraitLine.h</text>
</a>
</g>
<!-- Node4&#45;&gt;Node6 -->
<g id="edge10" class="edge"><title>Node4&#45;&gt;Node6</title>
<path fill="none" stroke="midnightblue" d="M242.073,-233.708C245.084,-233.084 248.087,-232.504 251,-232 393.113,-207.415 563.764,-193.41 641.997,-187.84"/>
<polygon fill="midnightblue" stroke="midnightblue" points="642.679,-191.301 652.41,-187.11 642.189,-184.318 642.679,-191.301"/>
</g>
<!-- Node7 -->
<g id="node13" class="node"><title>Node7</title>
<polygon fill="white" stroke="#bfbfbf" points="850.5,-116.5 850.5,-137.5 919.5,-137.5 919.5,-116.5 850.5,-116.5"/>
<text text-anchor="middle" x="885" y="-124.5" font-family="DejaVuSans" font-size="10.00">QStringList</text>
</g>
<!-- Node6&#45;&gt;Node7 -->
<g id="edge12" class="edge"><title>Node6&#45;&gt;Node7</title>
<path fill="none" stroke="midnightblue" d="M717.579,-175.552C750.967,-165.87 803.124,-150.744 840.347,-139.949"/>
<polygon fill="midnightblue" stroke="midnightblue" points="841.792,-143.175 850.421,-137.028 839.842,-136.452 841.792,-143.175"/>
</g>
<!-- Node8 -->
<g id="node15" class="node"><title>Node8</title>
<polygon fill="white" stroke="#bfbfbf" points="415,-116.5 415,-137.5 497,-137.5 497,-116.5 415,-116.5"/>
<text text-anchor="middle" x="456" y="-124.5" font-family="DejaVuSans" font-size="10.00">QHBoxLayout</text>
</g>
<!-- Node6&#45;&gt;Node8 -->
<g id="edge14" class="edge"><title>Node6&#45;&gt;Node8</title>
<path fill="none" stroke="midnightblue" d="M652.19,-176.69C614.247,-167.08 551.333,-151.145 506.997,-139.916"/>
<polygon fill="midnightblue" stroke="midnightblue" points="507.829,-136.516 497.275,-137.454 506.11,-143.302 507.829,-136.516"/>
</g>
<!-- Node9 -->
<g id="node17" class="node"><title>Node9</title>
<polygon fill="white" stroke="#bfbfbf" points="937,-116.5 937,-137.5 987,-137.5 987,-116.5 937,-116.5"/>
<text text-anchor="middle" x="962" y="-124.5" font-family="DejaVuSans" font-size="10.00">QLabel</text>
</g>
<!-- Node6&#45;&gt;Node9 -->
<g id="edge16" class="edge"><title>Node6&#45;&gt;Node9</title>
<path fill="none" stroke="midnightblue" d="M717.511,-180.006C762.556,-172.807 846.615,-158.363 927.06,-138.024"/>
<polygon fill="midnightblue" stroke="midnightblue" points="928.031,-141.388 936.849,-135.514 926.293,-134.607 928.031,-141.388"/>
</g>
<!-- Node10 -->
<g id="node19" class="node"><title>Node10</title>
<polygon fill="white" stroke="#bfbfbf" points="515,-116.5 515,-137.5 595,-137.5 595,-116.5 515,-116.5"/>
<text text-anchor="middle" x="555" y="-124.5" font-family="DejaVuSans" font-size="10.00">QPushButton</text>
</g>
<!-- Node6&#45;&gt;Node10 -->
<g id="edge18" class="edge"><title>Node6&#45;&gt;Node10</title>
<path fill="none" stroke="midnightblue" d="M661.458,-174.497C640.971,-165.356 611.053,-152.008 588.146,-141.788"/>
<polygon fill="midnightblue" stroke="midnightblue" points="589.365,-138.499 578.806,-137.621 586.512,-144.892 589.365,-138.499"/>
</g>
<!-- Node11 -->
<g id="node21" class="node"><title>Node11</title>
<polygon fill="white" stroke="#bfbfbf" points="1005,-116.5 1005,-137.5 1067,-137.5 1067,-116.5 1005,-116.5"/>
<text text-anchor="middle" x="1036" y="-124.5" font-family="DejaVuSans" font-size="10.00">QLineEdit</text>
</g>
<!-- Node6&#45;&gt;Node11 -->
<g id="edge20" class="edge"><title>Node6&#45;&gt;Node11</title>
<path fill="none" stroke="midnightblue" d="M717.916,-181.326C773.201,-174.874 888.331,-160.24 994.708,-138.096"/>
<polygon fill="midnightblue" stroke="midnightblue" points="995.581,-141.489 1004.64,-136.001 994.136,-134.64 995.581,-141.489"/>
</g>
<!-- Node12 -->
<g id="node23" class="node"><title>Node12</title>
<a xlink:href="_trait_dots_8h.html" target="_top" xlink:title="TraitDots.h">
<polygon fill="white" stroke="black" points="651,-116.5 651,-137.5 719,-137.5 719,-116.5 651,-116.5"/>
<text text-anchor="middle" x="685" y="-124.5" font-family="DejaVuSans" font-size="10.00">TraitDots.h</text>
</a>
</g>
<!-- Node6&#45;&gt;Node12 -->
<g id="edge22" class="edge"><title>Node6&#45;&gt;Node12</title>
<path fill="none" stroke="midnightblue" d="M685,-174.362C685,-166.922 685,-156.743 685,-147.728"/>
<polygon fill="midnightblue" stroke="midnightblue" points="688.5,-147.571 685,-137.571 681.5,-147.571 688.5,-147.571"/>
</g>
<!-- Node16 -->
<g id="node31" class="node"><title>Node16</title>
<polygon fill="white" stroke="#bfbfbf" points="462,-58.5 462,-79.5 518,-79.5 518,-58.5 462,-58.5"/>
<text text-anchor="middle" x="490" y="-66.5" font-family="DejaVuSans" font-size="10.00">QWidget</text>
</g>
<!-- Node6&#45;&gt;Node16 -->
<g id="edge42" class="edge"><title>Node6&#45;&gt;Node16</title>
<path fill="none" stroke="midnightblue" d="M674.839,-174.46C660.26,-159.803 632.062,-133.14 604,-116 580.128,-101.42 550.926,-89.4789 528.054,-81.2816"/>
<polygon fill="midnightblue" stroke="midnightblue" points="528.949,-77.8867 518.354,-77.892 526.64,-84.4949 528.949,-77.8867"/>
</g>
<!-- Node17 -->
<g id="node33" class="node"><title>Node17</title>
<a xlink:href="_trait_specialties_8h.html" target="_top" xlink:title="TraitSpecialties.h">
<polygon fill="white" stroke="black" points="736.5,-116.5 736.5,-137.5 833.5,-137.5 833.5,-116.5 736.5,-116.5"/>
<text text-anchor="middle" x="785" y="-124.5" font-family="DejaVuSans" font-size="10.00">TraitSpecialties.h</text>
</a>
</g>
<!-- Node6&#45;&gt;Node17 -->
<g id="edge32" class="edge"><title>Node6&#45;&gt;Node17</title>
<path fill="none" stroke="midnightblue" d="M703.342,-174.362C718.566,-165.532 740.441,-152.844 757.72,-142.822"/>
<polygon fill="midnightblue" stroke="midnightblue" points="759.88,-145.615 766.775,-137.571 756.368,-139.56 759.88,-145.615"/>
</g>
<!-- Node13 -->
<g id="node25" class="node"><title>Node13</title>
<polygon fill="white" stroke="#bfbfbf" points="535.5,-58.5 535.5,-79.5 584.5,-79.5 584.5,-58.5 535.5,-58.5"/>
<text text-anchor="middle" x="560" y="-66.5" font-family="DejaVuSans" font-size="10.00">QColor</text>
</g>
<!-- Node12&#45;&gt;Node13 -->
<g id="edge24" class="edge"><title>Node12&#45;&gt;Node13</title>
<path fill="none" stroke="midnightblue" d="M662.363,-116.497C642.752,-107.397 614.154,-94.1273 592.167,-83.9253"/>
<polygon fill="midnightblue" stroke="midnightblue" points="593.435,-80.6554 582.891,-79.6212 590.488,-87.0051 593.435,-80.6554"/>
</g>
<!-- Node14 -->
<g id="node27" class="node"><title>Node14</title>
<polygon fill="white" stroke="#bfbfbf" points="601.5,-58.5 601.5,-79.5 642.5,-79.5 642.5,-58.5 601.5,-58.5"/>
<text text-anchor="middle" x="622" y="-66.5" font-family="DejaVuSans" font-size="10.00">QList</text>
</g>
<!-- Node12&#45;&gt;Node14 -->
<g id="edge26" class="edge"><title>Node12&#45;&gt;Node14</title>
<path fill="none" stroke="midnightblue" d="M673.445,-116.362C664.387,-108.023 651.59,-96.2418 641.026,-86.5162"/>
<polygon fill="midnightblue" stroke="midnightblue" points="643.21,-83.7688 633.482,-79.5707 638.468,-88.9187 643.21,-83.7688"/>
</g>
<!-- Node15 -->
<g id="node29" class="node"><title>Node15</title>
<polygon fill="white" stroke="#bfbfbf" points="659.5,-58.5 659.5,-79.5 710.5,-79.5 710.5,-58.5 659.5,-58.5"/>
<text text-anchor="middle" x="685" y="-66.5" font-family="DejaVuSans" font-size="10.00">QEvent</text>
</g>
<!-- Node12&#45;&gt;Node15 -->
<g id="edge28" class="edge"><title>Node12&#45;&gt;Node15</title>
<path fill="none" stroke="midnightblue" d="M685,-116.362C685,-108.922 685,-98.7427 685,-89.7276"/>
<polygon fill="midnightblue" stroke="midnightblue" points="688.5,-89.5706 685,-79.5707 681.5,-89.5707 688.5,-89.5706"/>
</g>
<!-- Node12&#45;&gt;Node16 -->
<g id="edge30" class="edge"><title>Node12&#45;&gt;Node16</title>
<path fill="none" stroke="midnightblue" d="M650.587,-116.764C616.254,-106.553 563.633,-90.9011 528.069,-80.323"/>
<polygon fill="midnightblue" stroke="midnightblue" points="528.652,-76.8451 518.069,-77.3488 526.656,-83.5546 528.652,-76.8451"/>
</g>
<!-- Node18 -->
<g id="node35" class="node"><title>Node18</title>
<polygon fill="white" stroke="#bfbfbf" points="985.5,-58.5 985.5,-79.5 1038.5,-79.5 1038.5,-58.5 985.5,-58.5"/>
<text text-anchor="middle" x="1012" y="-66.5" font-family="DejaVuSans" font-size="10.00">QString</text>
</g>
<!-- Node17&#45;&gt;Node18 -->
<g id="edge34" class="edge"><title>Node17&#45;&gt;Node18</title>
<path fill="none" stroke="midnightblue" d="M831.776,-116.438C868.579,-107.928 921.356,-95.2848 975.53,-80.3086"/>
<polygon fill="midnightblue" stroke="midnightblue" points="976.606,-83.642 985.3,-77.5862 974.727,-76.8989 976.606,-83.642"/>
</g>
<!-- Node19 -->
<g id="node37" class="node"><title>Node19</title>
<polygon fill="white" stroke="#bfbfbf" points="727.5,-58.5 727.5,-79.5 868.5,-79.5 868.5,-58.5 727.5,-58.5"/>
<text text-anchor="middle" x="798" y="-66.5" font-family="DejaVuSans" font-size="10.00">Datatypes/cv_TraitDetail.h</text>
</g>
<!-- Node17&#45;&gt;Node19 -->
<g id="edge36" class="edge"><title>Node17&#45;&gt;Node19</title>
<path fill="none" stroke="midnightblue" d="M787.384,-116.362C789.07,-108.84 791.384,-98.5187 793.421,-89.4308"/>
<polygon fill="midnightblue" stroke="midnightblue" points="796.859,-90.0941 795.631,-79.5707 790.028,-88.563 796.859,-90.0941"/>
</g>
<!-- Node20 -->
<g id="node39" class="node"><title>Node20</title>
<a xlink:href="_checked_list_8h.html" target="_top" xlink:title="CheckedList.h">
<polygon fill="white" stroke="black" points="885.5,-58.5 885.5,-79.5 968.5,-79.5 968.5,-58.5 885.5,-58.5"/>
<text text-anchor="middle" x="927" y="-66.5" font-family="DejaVuSans" font-size="10.00">CheckedList.h</text>
</a>
</g>
<!-- Node17&#45;&gt;Node20 -->
<g id="edge38" class="edge"><title>Node17&#45;&gt;Node20</title>
<path fill="none" stroke="midnightblue" d="M810.715,-116.497C833.293,-107.275 866.358,-93.7695 891.463,-83.5153"/>
<polygon fill="midnightblue" stroke="midnightblue" points="893.062,-86.6427 900.996,-79.6212 890.415,-80.1624 893.062,-86.6427"/>
</g>
<!-- Node21 -->
<g id="node41" class="node"><title>Node21</title>
<polygon fill="white" stroke="#bfbfbf" points="890.5,-0.5 890.5,-21.5 963.5,-21.5 963.5,-0.5 890.5,-0.5"/>
<text text-anchor="middle" x="927" y="-8.5" font-family="DejaVuSans" font-size="10.00">QListWidget</text>
</g>
<!-- Node20&#45;&gt;Node21 -->
<g id="edge40" class="edge"><title>Node20&#45;&gt;Node21</title>
<path fill="none" stroke="midnightblue" d="M927,-58.3619C927,-50.9219 927,-40.7427 927,-31.7276"/>
<polygon fill="midnightblue" stroke="midnightblue" points="930.5,-31.5706 927,-21.5707 923.5,-31.5707 930.5,-31.5706"/>
</g>
<!-- Node23&#45;&gt;Node5 -->
<g id="edge54" class="edge"><title>Node23&#45;&gt;Node5</title>
<path fill="none" stroke="midnightblue" d="M380.246,-174.497C344.754,-164.877 292.069,-150.598 253.736,-140.209"/>
<polygon fill="midnightblue" stroke="midnightblue" points="254.394,-136.761 243.826,-137.523 252.563,-143.517 254.394,-136.761"/>
</g>
<!-- Node23&#45;&gt;Node8 -->
<g id="edge48" class="edge"><title>Node23&#45;&gt;Node8</title>
<path fill="none" stroke="midnightblue" d="M425.786,-174.362C430.793,-166.513 437.745,-155.616 443.718,-146.253"/>
<polygon fill="midnightblue" stroke="midnightblue" points="446.829,-147.884 449.257,-137.571 440.928,-144.119 446.829,-147.884"/>
</g>
<!-- Node23&#45;&gt;Node10 -->
<g id="edge52" class="edge"><title>Node23&#45;&gt;Node10</title>
<path fill="none" stroke="midnightblue" d="M443.629,-174.497C465.157,-165.315 496.64,-151.889 520.645,-141.652"/>
<polygon fill="midnightblue" stroke="midnightblue" points="522.27,-144.764 530.095,-137.621 519.524,-138.325 522.27,-144.764"/>
</g>
<!-- Node23&#45;&gt;Node16 -->
<g id="edge56" class="edge"><title>Node23&#45;&gt;Node16</title>
<path fill="none" stroke="midnightblue" d="M412.806,-174.419C405.362,-160.18 395.148,-134.507 406,-116 416.056,-98.8501 434.907,-87.4897 452.206,-80.2415"/>
<polygon fill="midnightblue" stroke="midnightblue" points="453.518,-83.4871 461.592,-76.6271 451.002,-76.9547 453.518,-83.4871"/>
</g>
<!-- Node24 -->
<g id="node49" class="node"><title>Node24</title>
<polygon fill="white" stroke="#bfbfbf" points="299,-116.5 299,-137.5 359,-137.5 359,-116.5 299,-116.5"/>
<text text-anchor="middle" x="329" y="-124.5" font-family="DejaVuSans" font-size="10.00">QToolBox</text>
</g>
<!-- Node23&#45;&gt;Node24 -->
<g id="edge50" class="edge"><title>Node23&#45;&gt;Node24</title>
<path fill="none" stroke="midnightblue" d="M402.493,-174.362C388.918,-165.614 369.467,-153.079 353.985,-143.101"/>
<polygon fill="midnightblue" stroke="midnightblue" points="355.704,-140.046 345.403,-137.571 351.912,-145.93 355.704,-140.046"/>
</g>
</g>
</svg>
