<?xml version="1.0" encoding="UTF-8" standalone="no"?>
<!DOCTYPE svg PUBLIC "-//W3C//DTD SVG 1.1//EN"
 "http://www.w3.org/Graphics/SVG/1.1/DTD/svg11.dtd">
<!-- Generated by graphviz version 2.26.3 (20100126.1600)
 -->
<!-- Title: G Pages: 1 -->
<svg width="758pt" height="146pt"
 viewBox="0.00 0.00 758.00 146.00" xmlns="http://www.w3.org/2000/svg" xmlns:xlink="http://www.w3.org/1999/xlink">
<g id="graph1" class="graph" transform="scale(1 1) rotate(0) translate(4 142)">
<title>G</title>
<polygon fill="white" stroke="white" points="-4,5 -4,-142 755,-142 755,5 -4,5"/>
<!-- Node1 -->
<g id="node1" class="node"><title>Node1</title>
<polygon fill="#bfbfbf" stroke="black" points="276,-116.5 276,-137.5 420,-137.5 420,-116.5 276,-116.5"/>
<text text-anchor="middle" x="348" y="-124.5" font-family="DejaVuSans" font-size="10.00">src/Widgets/PowerWidget.h</text>
</g>
<!-- Node2 -->
<g id="node3" class="node"><title>Node2</title>
<polygon fill="white" stroke="#bfbfbf" points="-0.5,-58.5 -0.5,-79.5 80.5,-79.5 80.5,-58.5 -0.5,-58.5"/>
<text text-anchor="middle" x="40" y="-66.5" font-family="DejaVuSans" font-size="10.00">QVBoxLayout</text>
</g>
<!-- Node1&#45;&gt;Node2 -->
<g id="edge2" class="edge"><title>Node1&#45;&gt;Node2</title>
<path fill="none" stroke="midnightblue" d="M285.849,-116.464C235.657,-107.786 162.957,-94.8352 90.7913,-80.3125"/>
<polygon fill="midnightblue" stroke="midnightblue" points="91.1098,-76.8061 80.6143,-78.2532 89.7214,-83.667 91.1098,-76.8061"/>
</g>
<!-- Node3 -->
<g id="node5" class="node"><title>Node3</title>
<polygon fill="white" stroke="#bfbfbf" points="98,-58.5 98,-79.5 178,-79.5 178,-58.5 98,-58.5"/>
<text text-anchor="middle" x="138" y="-66.5" font-family="DejaVuSans" font-size="10.00">QPushButton</text>
</g>
<!-- Node1&#45;&gt;Node3 -->
<g id="edge4" class="edge"><title>Node1&#45;&gt;Node3</title>
<path fill="none" stroke="midnightblue" d="M309.971,-116.497C275.142,-106.877 223.441,-92.5981 185.826,-82.209"/>
<polygon fill="midnightblue" stroke="midnightblue" points="186.672,-78.8117 176.101,-79.5231 184.808,-85.5591 186.672,-78.8117"/>
</g>
<!-- Node4 -->
<g id="node7" class="node"><title>Node4</title>
<polygon fill="white" stroke="#bfbfbf" points="195.5,-58.5 195.5,-79.5 336.5,-79.5 336.5,-58.5 195.5,-58.5"/>
<text text-anchor="middle" x="266" y="-66.5" font-family="DejaVuSans" font-size="10.00">Datatypes/cv_TraitDetail.h</text>
</g>
<!-- Node1&#45;&gt;Node4 -->
<g id="edge6" class="edge"><title>Node1&#45;&gt;Node4</title>
<path fill="none" stroke="midnightblue" d="M332.96,-116.362C320.707,-107.696 303.201,-95.3126 289.161,-85.3819"/>
<polygon fill="midnightblue" stroke="midnightblue" points="291.13,-82.4879 280.945,-79.5707 287.088,-88.2028 291.13,-82.4879"/>
</g>
<!-- Node5 -->
<g id="node9" class="node"><title>Node5</title>
<a xlink:href="_select_merits_dialog_8h.html" target="_top" xlink:title="Dialogs/SelectMeritsDialog.h">
<polygon fill="white" stroke="black" points="353.5,-58.5 353.5,-79.5 506.5,-79.5 506.5,-58.5 353.5,-58.5"/>
<text text-anchor="middle" x="430" y="-66.5" font-family="DejaVuSans" font-size="10.00">Dialogs/SelectMeritsDialog.h</text>
</a>
</g>
<!-- Node1&#45;&gt;Node5 -->
<g id="edge8" class="edge"><title>Node1&#45;&gt;Node5</title>
<path fill="none" stroke="midnightblue" d="M363.04,-116.362C375.293,-107.696 392.799,-95.3126 406.839,-85.3819"/>
<polygon fill="midnightblue" stroke="midnightblue" points="408.912,-88.2028 415.055,-79.5707 404.87,-82.4879 408.912,-88.2028"/>
</g>
<!-- Node8 -->
<g id="node15" class="node"><title>Node8</title>
<polygon fill="white" stroke="#bfbfbf" points="524,-58.5 524,-79.5 676,-79.5 676,-58.5 524,-58.5"/>
<text text-anchor="middle" x="600" y="-66.5" font-family="DejaVuSans" font-size="10.00">Storage/StorageCharacter.h</text>
</g>
<!-- Node1&#45;&gt;Node8 -->
<g id="edge14" class="edge"><title>Node1&#45;&gt;Node8</title>
<path fill="none" stroke="midnightblue" d="M393.635,-116.497C435.963,-106.755 499.058,-92.2328 544.33,-81.813"/>
<polygon fill="midnightblue" stroke="midnightblue" points="545.319,-85.1769 554.279,-79.5231 543.749,-78.3553 545.319,-85.1769"/>
</g>
<!-- Node9 -->
<g id="node17" class="node"><title>Node9</title>
<polygon fill="white" stroke="#bfbfbf" points="694,-58.5 694,-79.5 750,-79.5 750,-58.5 694,-58.5"/>
<text text-anchor="middle" x="722" y="-66.5" font-family="DejaVuSans" font-size="10.00">QWidget</text>
</g>
<!-- Node1&#45;&gt;Node9 -->
<g id="edge16" class="edge"><title>Node1&#45;&gt;Node9</title>
<path fill="none" stroke="midnightblue" d="M420.209,-120.108C486.548,-113.053 587.668,-100.483 683.932,-79.9894"/>
<polygon fill="midnightblue" stroke="midnightblue" points="684.797,-83.3835 693.832,-77.8499 683.318,-76.5415 684.797,-83.3835"/>
</g>
<!-- Node6 -->
<g id="node11" class="node"><title>Node6</title>
<polygon fill="white" stroke="#bfbfbf" points="350,-0.5 350,-21.5 426,-21.5 426,-0.5 350,-0.5"/>
<text text-anchor="middle" x="388" y="-8.5" font-family="DejaVuSans" font-size="10.00">QGridLayout</text>
</g>
<!-- Node5&#45;&gt;Node6 -->
<g id="edge10" class="edge"><title>Node5&#45;&gt;Node6</title>
<path fill="none" stroke="midnightblue" d="M422.297,-58.3619C416.554,-50.4313 408.557,-39.3885 401.73,-29.9606"/>
<polygon fill="midnightblue" stroke="midnightblue" points="404.355,-27.6173 395.655,-21.5707 398.685,-31.7229 404.355,-27.6173"/>
</g>
<!-- Node7 -->
<g id="node13" class="node"><title>Node7</title>
<polygon fill="white" stroke="#bfbfbf" points="444,-0.5 444,-21.5 498,-21.5 498,-0.5 444,-0.5"/>
<text text-anchor="middle" x="471" y="-8.5" font-family="DejaVuSans" font-size="10.00">QDialog</text>
</g>
<!-- Node5&#45;&gt;Node7 -->
<g id="edge12" class="edge"><title>Node5&#45;&gt;Node7</title>
<path fill="none" stroke="midnightblue" d="M437.52,-58.3619C443.126,-50.4313 450.932,-39.3885 457.597,-29.9606"/>
<polygon fill="midnightblue" stroke="midnightblue" points="460.613,-31.7568 463.528,-21.5707 454.897,-27.7161 460.613,-31.7568"/>
</g>
</g>
</svg>
