<?xml version="1.0" encoding="UTF-8" standalone="no"?>
<!DOCTYPE svg PUBLIC "-//W3C//DTD SVG 1.1//EN"
 "http://www.w3.org/Graphics/SVG/1.1/DTD/svg11.dtd">
<!-- Generated by graphviz version 2.26.3 (20100126.1600)
 -->
<!-- Title: G Pages: 1 -->
<svg width="1909pt" height="436pt"
 viewBox="0.00 0.00 1909.00 436.00" xmlns="http://www.w3.org/2000/svg" xmlns:xlink="http://www.w3.org/1999/xlink">
<g id="graph1" class="graph" transform="scale(1 1) rotate(0) translate(4 432)">
<title>G</title>
<polygon fill="white" stroke="white" points="-4,5 -4,-432 1906,-432 1906,5 -4,5"/>
<!-- Node1 -->
<g id="node1" class="node"><title>Node1</title>
<polygon fill="#bfbfbf" stroke="black" points="868.5,-406.5 868.5,-427.5 1023.5,-427.5 1023.5,-406.5 868.5,-406.5"/>
<text text-anchor="middle" x="946" y="-414.5" font-family="DejaVuSans" font-size="10.00">src/Widgets/PowerWidget.cpp</text>
</g>
<!-- Node2 -->
<g id="node3" class="node"><title>Node2</title>
<polygon fill="white" stroke="#bfbfbf" points="1825,-232.5 1825,-253.5 1901,-253.5 1901,-232.5 1825,-232.5"/>
<text text-anchor="middle" x="1863" y="-240.5" font-family="DejaVuSans" font-size="10.00">QGridLayout</text>
</g>
<!-- Node1&#45;&gt;Node2 -->
<g id="edge2" class="edge"><title>Node1&#45;&gt;Node2</title>
<path fill="none" stroke="midnightblue" d="M1023.6,-413.017C1230.46,-401.7 1783.52,-366.595 1844,-312 1857.36,-299.941 1861.68,-279.439 1862.92,-263.909"/>
<polygon fill="midnightblue" stroke="midnightblue" points="1866.43,-263.812 1863.36,-253.671 1859.43,-263.511 1866.43,-263.812"/>
</g>
<!-- Node3 -->
<g id="node5" class="node"><title>Node3</title>
<polygon fill="white" stroke="#bfbfbf" points="702,-348.5 702,-369.5 758,-369.5 758,-348.5 702,-348.5"/>
<text text-anchor="middle" x="730" y="-356.5" font-family="DejaVuSans" font-size="10.00">QDebug</text>
</g>
<!-- Node1&#45;&gt;Node3 -->
<g id="edge4" class="edge"><title>Node1&#45;&gt;Node3</title>
<path fill="none" stroke="midnightblue" d="M906.884,-406.497C867.489,-395.918 807.108,-379.705 768.084,-369.226"/>
<polygon fill="midnightblue" stroke="midnightblue" points="768.73,-365.776 758.165,-366.563 766.915,-372.536 768.73,-365.776"/>
</g>
<!-- Node4 -->
<g id="node7" class="node"><title>Node4</title>
<a xlink:href="_chara_trait_8h.html" target="_top" xlink:title="CharaTrait.h">
<polygon fill="white" stroke="black" points="909,-348.5 909,-369.5 983,-369.5 983,-348.5 909,-348.5"/>
<text text-anchor="middle" x="946" y="-356.5" font-family="DejaVuSans" font-size="10.00">CharaTrait.h</text>
</a>
</g>
<!-- Node1&#45;&gt;Node4 -->
<g id="edge6" class="edge"><title>Node1&#45;&gt;Node4</title>
<path fill="none" stroke="midnightblue" d="M946,-406.362C946,-398.922 946,-388.743 946,-379.728"/>
<polygon fill="midnightblue" stroke="midnightblue" points="949.5,-379.571 946,-369.571 942.5,-379.571 949.5,-379.571"/>
</g>
<!-- Node12 -->
<g id="node27" class="node"><title>Node12</title>
<a xlink:href="cv___trait_8h.html" target="_top" xlink:title="../Datatypes/cv_Trait.h">
<polygon fill="white" stroke="black" points="864,-174.5 864,-195.5 986,-195.5 986,-174.5 864,-174.5"/>
<text text-anchor="middle" x="925" y="-182.5" font-family="DejaVuSans" font-size="10.00">../Datatypes/cv_Trait.h</text>
</a>
</g>
<!-- Node1&#45;&gt;Node12 -->
<g id="edge124" class="edge"><title>Node1&#45;&gt;Node12</title>
<path fill="none" stroke="midnightblue" d="M930.401,-406.271C919.607,-397.831 906.124,-385.012 900,-370 877.036,-313.705 901.152,-240.573 915.68,-205.51"/>
<polygon fill="midnightblue" stroke="midnightblue" points="919.073,-206.48 919.818,-195.911 912.645,-203.709 919.073,-206.48"/>
</g>
<!-- Node18 -->
<g id="node52" class="node"><title>Node18</title>
<a xlink:href="_storage_template_8h.html" target="_top" xlink:title="StorageTemplate.h">
<polygon fill="white" stroke="black" points="1287.5,-232.5 1287.5,-253.5 1394.5,-253.5 1394.5,-232.5 1287.5,-232.5"/>
<text text-anchor="middle" x="1341" y="-240.5" font-family="DejaVuSans" font-size="10.00">StorageTemplate.h</text>
</a>
</g>
<!-- Node1&#45;&gt;Node18 -->
<g id="edge148" class="edge"><title>Node1&#45;&gt;Node18</title>
<path fill="none" stroke="midnightblue" d="M1023.65,-407.877C1128.78,-393.747 1307.81,-362.773 1347,-312 1357.63,-298.234 1354.33,-278 1349.45,-262.999"/>
<polygon fill="midnightblue" stroke="midnightblue" points="1352.73,-261.759 1345.97,-253.595 1346.16,-264.188 1352.73,-261.759"/>
</g>
<!-- Node33 -->
<g id="node96" class="node"><title>Node33</title>
<a xlink:href="_exception_8h_source.html" target="_top" xlink:title="../Exceptions/Exception.h">
<polygon fill="white" stroke="black" points="215,-232.5 215,-253.5 351,-253.5 351,-232.5 215,-232.5"/>
<text text-anchor="middle" x="283" y="-240.5" font-family="DejaVuSans" font-size="10.00">../Exceptions/Exception.h</text>
</a>
</g>
<!-- Node1&#45;&gt;Node33 -->
<g id="edge126" class="edge"><title>Node1&#45;&gt;Node33</title>
<path fill="none" stroke="midnightblue" d="M911.119,-406.434C883.341,-397.665 843.668,-384.347 810,-370 790.251,-361.585 787.215,-355.225 767,-348 628.197,-298.389 458.248,-268.136 361.114,-253.563"/>
<polygon fill="midnightblue" stroke="midnightblue" points="361.485,-250.08 351.079,-252.074 360.457,-257.004 361.485,-250.08"/>
</g>
<!-- Node35 -->
<g id="node104" class="node"><title>Node35</title>
<a xlink:href="_config_8h.html" target="_top" xlink:title="../Config/Config.h">
<polygon fill="white" stroke="black" points="50,-174.5 50,-195.5 148,-195.5 148,-174.5 50,-174.5"/>
<text text-anchor="middle" x="99" y="-182.5" font-family="DejaVuSans" font-size="10.00">../Config/Config.h</text>
</a>
</g>
<!-- Node1&#45;&gt;Node35 -->
<g id="edge146" class="edge"><title>Node1&#45;&gt;Node35</title>
<path fill="none" stroke="midnightblue" d="M868.284,-409.492C730.215,-394.088 435.14,-351.77 206,-254 173.979,-240.337 140.858,-217.369 120.111,-201.716"/>
<polygon fill="midnightblue" stroke="midnightblue" points="122.08,-198.816 112.016,-195.505 117.819,-204.369 122.08,-198.816"/>
</g>
<!-- Node37 -->
<g id="node112" class="node"><title>Node37</title>
<polygon fill="white" stroke="#bfbfbf" points="1393.5,-348.5 1393.5,-369.5 1490.5,-369.5 1490.5,-348.5 1393.5,-348.5"/>
<text text-anchor="middle" x="1442" y="-356.5" font-family="DejaVuSans" font-size="10.00">../CMakeConfig.h</text>
</g>
<!-- Node1&#45;&gt;Node37 -->
<g id="edge150" class="edge"><title>Node1&#45;&gt;Node37</title>
<path fill="none" stroke="midnightblue" d="M1023.81,-410.175C1110.82,-402.17 1255.83,-387.718 1380,-370 1381.08,-369.846 1382.17,-369.686 1383.27,-369.523"/>
<polygon fill="midnightblue" stroke="midnightblue" points="1383.97,-372.957 1393.31,-367.959 1382.89,-366.04 1383.97,-372.957"/>
</g>
<!-- Node38 -->
<g id="node114" class="node"><title>Node38</title>
<a xlink:href="_power_widget_8h.html" target="_top" xlink:title="PowerWidget.h">
<polygon fill="white" stroke="black" points="1009,-348.5 1009,-369.5 1095,-369.5 1095,-348.5 1009,-348.5"/>
<text text-anchor="middle" x="1052" y="-356.5" font-family="DejaVuSans" font-size="10.00">PowerWidget.h</text>
</a>
</g>
<!-- Node1&#45;&gt;Node38 -->
<g id="edge152" class="edge"><title>Node1&#45;&gt;Node38</title>
<path fill="none" stroke="midnightblue" d="M965.442,-406.362C981.804,-397.409 1005.41,-384.491 1023.84,-374.406"/>
<polygon fill="midnightblue" stroke="midnightblue" points="1025.59,-377.441 1032.68,-369.571 1022.23,-371.3 1025.59,-377.441"/>
</g>
<!-- Node5 -->
<g id="node9" class="node"><title>Node5</title>
<a xlink:href="_storage_character_8h.html" target="_top" xlink:title="../Storage/StorageCharacter.h">
<polygon fill="white" stroke="black" points="1079.5,-290.5 1079.5,-311.5 1240.5,-311.5 1240.5,-290.5 1079.5,-290.5"/>
<text text-anchor="middle" x="1160" y="-298.5" font-family="DejaVuSans" font-size="10.00">../Storage/StorageCharacter.h</text>
</a>
</g>
<!-- Node4&#45;&gt;Node5 -->
<g id="edge8" class="edge"><title>Node4&#45;&gt;Node5</title>
<path fill="none" stroke="midnightblue" d="M983.276,-348.897C1018.67,-339.304 1072.1,-324.823 1110.94,-314.296"/>
<polygon fill="midnightblue" stroke="midnightblue" points="1112.25,-317.569 1120.98,-311.575 1110.42,-310.813 1112.25,-317.569"/>
</g>
<!-- Node4&#45;&gt;Node12 -->
<g id="edge86" class="edge"><title>Node4&#45;&gt;Node12</title>
<path fill="none" stroke="midnightblue" d="M944.718,-348.377C941.328,-320.293 932.081,-243.673 927.559,-206.203"/>
<polygon fill="midnightblue" stroke="midnightblue" points="930.992,-205.436 926.319,-195.928 924.042,-206.275 930.992,-205.436"/>
</g>
<!-- Node15 -->
<g id="node37" class="node"><title>Node15</title>
<a xlink:href="cv___trait_detail_8h.html" target="_top" xlink:title="cv_TraitDetail.h">
<polygon fill="white" stroke="black" points="797.5,-116.5 797.5,-137.5 886.5,-137.5 886.5,-116.5 797.5,-116.5"/>
<text text-anchor="middle" x="842" y="-124.5" font-family="DejaVuSans" font-size="10.00">cv_TraitDetail.h</text>
</a>
</g>
<!-- Node4&#45;&gt;Node15 -->
<g id="edge88" class="edge"><title>Node4&#45;&gt;Node15</title>
<path fill="none" stroke="midnightblue" d="M954.521,-348.23C977.494,-317.813 1036.27,-229.848 995,-174 988.789,-165.595 937.041,-150.837 895.421,-140.096"/>
<polygon fill="midnightblue" stroke="midnightblue" points="896.191,-136.681 885.635,-137.596 894.458,-143.463 896.191,-136.681"/>
</g>
<!-- Node21 -->
<g id="node66" class="node"><title>Node21</title>
<a xlink:href="_trait_line_8h.html" target="_top" xlink:title="TraitLine.h">
<polygon fill="white" stroke="black" points="610.5,-232.5 610.5,-253.5 675.5,-253.5 675.5,-232.5 610.5,-232.5"/>
<text text-anchor="middle" x="643" y="-240.5" font-family="DejaVuSans" font-size="10.00">TraitLine.h</text>
</a>
</g>
<!-- Node4&#45;&gt;Node21 -->
<g id="edge90" class="edge"><title>Node4&#45;&gt;Node21</title>
<path fill="none" stroke="midnightblue" d="M926.107,-348.419C898.39,-333.951 846.333,-307.768 800,-290 762.005,-275.43 717.461,-262.47 685.545,-253.869"/>
<polygon fill="midnightblue" stroke="midnightblue" points="686.214,-250.425 675.65,-251.233 684.412,-257.189 686.214,-250.425"/>
</g>
<!-- Node6 -->
<g id="node11" class="node"><title>Node6</title>
<a xlink:href="cv___identity_8h.html" target="_top" xlink:title="../Datatypes/cv_Identity.h">
<polygon fill="white" stroke="black" points="1425.5,-116.5 1425.5,-137.5 1562.5,-137.5 1562.5,-116.5 1425.5,-116.5"/>
<text text-anchor="middle" x="1494" y="-124.5" font-family="DejaVuSans" font-size="10.00">../Datatypes/cv_Identity.h</text>
</a>
</g>
<!-- Node5&#45;&gt;Node6 -->
<g id="edge10" class="edge"><title>Node5&#45;&gt;Node6</title>
<path fill="none" stroke="midnightblue" d="M1238.83,-290.471C1299.94,-281.888 1386.63,-268.798 1462,-254 1571.38,-232.524 1636.89,-283.459 1706,-196 1712.06,-188.328 1712.12,-181.626 1706,-174 1689.26,-153.146 1625.98,-140.972 1572.87,-134.262"/>
<polygon fill="midnightblue" stroke="midnightblue" points="1573.1,-130.763 1562.75,-133.031 1572.25,-137.712 1573.1,-130.763"/>
</g>
<!-- Node10 -->
<g id="node21" class="node"><title>Node10</title>
<a xlink:href="cv___identity_list_8h.html" target="_top" xlink:title="../Datatypes/cv_IdentityList.h">
<polygon fill="white" stroke="black" points="1381.5,-174.5 1381.5,-195.5 1536.5,-195.5 1536.5,-174.5 1381.5,-174.5"/>
<text text-anchor="middle" x="1459" y="-182.5" font-family="DejaVuSans" font-size="10.00">../Datatypes/cv_IdentityList.h</text>
</a>
</g>
<!-- Node5&#45;&gt;Node10 -->
<g id="edge22" class="edge"><title>Node5&#45;&gt;Node10</title>
<path fill="none" stroke="midnightblue" d="M1175.09,-290.444C1197.04,-275.522 1239.47,-248.269 1279,-232 1315.56,-216.952 1358.32,-205.549 1392.98,-197.745"/>
<polygon fill="midnightblue" stroke="midnightblue" points="1393.98,-201.108 1403,-195.539 1392.48,-194.272 1393.98,-201.108"/>
</g>
<!-- Node5&#45;&gt;Node12 -->
<g id="edge30" class="edge"><title>Node5&#45;&gt;Node12</title>
<path fill="none" stroke="midnightblue" d="M1138.31,-290.295C1096.24,-269.525 1003.44,-223.718 955.299,-199.956"/>
<polygon fill="midnightblue" stroke="midnightblue" points="956.811,-196.8 946.295,-195.512 953.713,-203.076 956.811,-196.8"/>
</g>
<!-- Node17 -->
<g id="node47" class="node"><title>Node17</title>
<a xlink:href="cv___derangement_8h.html" target="_top" xlink:title="../Datatypes/cv_Derangement.h">
<polygon fill="white" stroke="black" points="1118,-174.5 1118,-195.5 1288,-195.5 1288,-174.5 1118,-174.5"/>
<text text-anchor="middle" x="1203" y="-182.5" font-family="DejaVuSans" font-size="10.00">../Datatypes/cv_Derangement.h</text>
</a>
</g>
<!-- Node5&#45;&gt;Node17 -->
<g id="edge60" class="edge"><title>Node5&#45;&gt;Node17</title>
<path fill="none" stroke="midnightblue" d="M1163.97,-290.295C1171.14,-270.959 1186.35,-229.923 1195.52,-205.177"/>
<polygon fill="midnightblue" stroke="midnightblue" points="1198.85,-206.272 1199.04,-195.679 1192.28,-203.839 1198.85,-206.272"/>
</g>
<!-- Node5&#45;&gt;Node18 -->
<g id="edge68" class="edge"><title>Node5&#45;&gt;Node18</title>
<path fill="none" stroke="midnightblue" d="M1192.78,-290.497C1222.41,-281 1266.22,-266.962 1298.53,-256.609"/>
<polygon fill="midnightblue" stroke="midnightblue" points="1299.71,-259.908 1308.16,-253.523 1297.57,-253.242 1299.71,-259.908"/>
</g>
<!-- Node20 -->
<g id="node61" class="node"><title>Node20</title>
<polygon fill="white" stroke="#bfbfbf" points="1642.5,-174.5 1642.5,-195.5 1697.5,-195.5 1697.5,-174.5 1642.5,-174.5"/>
<text text-anchor="middle" x="1670" y="-182.5" font-family="DejaVuSans" font-size="10.00">QObject</text>
</g>
<!-- Node5&#45;&gt;Node20 -->
<g id="edge84" class="edge"><title>Node5&#45;&gt;Node20</title>
<path fill="none" stroke="midnightblue" d="M1220.13,-290.411C1269.43,-281.478 1340.95,-267.949 1403,-254 1504.17,-231.255 1528.7,-222.325 1629,-196 1630.07,-195.719 1631.15,-195.434 1632.25,-195.145"/>
<polygon fill="midnightblue" stroke="midnightblue" points="1633.46,-198.446 1642.22,-192.496 1631.66,-191.68 1633.46,-198.446"/>
</g>
<!-- Node7 -->
<g id="node13" class="node"><title>Node7</title>
<polygon fill="white" stroke="#bfbfbf" points="1488.5,-0.5 1488.5,-21.5 1557.5,-21.5 1557.5,-0.5 1488.5,-0.5"/>
<text text-anchor="middle" x="1523" y="-8.5" font-family="DejaVuSans" font-size="10.00">QStringList</text>
</g>
<!-- Node6&#45;&gt;Node7 -->
<g id="edge12" class="edge"><title>Node6&#45;&gt;Node7</title>
<path fill="none" stroke="midnightblue" d="M1507.86,-116.337C1517.79,-107.753 1530.38,-94.7219 1536,-80 1542.09,-64.0544 1537.63,-44.9106 1532.34,-30.8371"/>
<polygon fill="midnightblue" stroke="midnightblue" points="1535.56,-29.4796 1528.48,-21.6036 1529.1,-32.1798 1535.56,-29.4796"/>
</g>
<!-- Node8 -->
<g id="node15" class="node"><title>Node8</title>
<polygon fill="white" stroke="#bfbfbf" points="903.5,-0.5 903.5,-21.5 956.5,-21.5 956.5,-0.5 903.5,-0.5"/>
<text text-anchor="middle" x="930" y="-8.5" font-family="DejaVuSans" font-size="10.00">QString</text>
</g>
<!-- Node6&#45;&gt;Node8 -->
<g id="edge14" class="edge"><title>Node6&#45;&gt;Node8</title>
<path fill="none" stroke="midnightblue" d="M1484.28,-116.337C1469.09,-100.487 1438.06,-71.1673 1405,-58 1325.32,-26.2634 1063.96,-15.1216 966.801,-12.0187"/>
<polygon fill="midnightblue" stroke="midnightblue" points="966.689,-8.51364 956.585,-11.703 966.472,-15.5103 966.689,-8.51364"/>
</g>
<!-- Node9 -->
<g id="node17" class="node"><title>Node9</title>
<a xlink:href="cv___name_8h.html" target="_top" xlink:title="cv_Name.h">
<polygon fill="white" stroke="black" points="1456.5,-58.5 1456.5,-79.5 1527.5,-79.5 1527.5,-58.5 1456.5,-58.5"/>
<text text-anchor="middle" x="1492" y="-66.5" font-family="DejaVuSans" font-size="10.00">cv_Name.h</text>
</a>
</g>
<!-- Node6&#45;&gt;Node9 -->
<g id="edge16" class="edge"><title>Node6&#45;&gt;Node9</title>
<path fill="none" stroke="midnightblue" d="M1493.63,-116.362C1493.38,-108.922 1493.03,-98.7427 1492.71,-89.7276"/>
<polygon fill="midnightblue" stroke="midnightblue" points="1496.21,-89.4441 1492.36,-79.5707 1489.21,-89.6854 1496.21,-89.4441"/>
</g>
<!-- Node9&#45;&gt;Node7 -->
<g id="edge18" class="edge"><title>Node9&#45;&gt;Node7</title>
<path fill="none" stroke="midnightblue" d="M1497.69,-58.3619C1501.84,-50.5949 1507.58,-39.8426 1512.55,-30.5458"/>
<polygon fill="midnightblue" stroke="midnightblue" points="1515.72,-32.0398 1517.35,-21.5707 1509.55,-28.7401 1515.72,-32.0398"/>
</g>
<!-- Node9&#45;&gt;Node8 -->
<g id="edge20" class="edge"><title>Node9&#45;&gt;Node8</title>
<path fill="none" stroke="midnightblue" d="M1456.24,-60.4114C1451.8,-59.5103 1447.31,-58.6777 1443,-58 1265.71,-30.0994 1051.16,-17.0607 966.691,-12.7277"/>
<polygon fill="midnightblue" stroke="midnightblue" points="966.743,-9.22596 956.58,-12.219 966.392,-16.2171 966.743,-9.22596"/>
</g>
<!-- Node10&#45;&gt;Node6 -->
<g id="edge26" class="edge"><title>Node10&#45;&gt;Node6</title>
<path fill="none" stroke="midnightblue" d="M1465.42,-174.362C1470.16,-166.513 1476.73,-155.616 1482.38,-146.253"/>
<polygon fill="midnightblue" stroke="midnightblue" points="1485.45,-147.941 1487.62,-137.571 1479.46,-144.324 1485.45,-147.941"/>
</g>
<!-- Node10&#45;&gt;Node8 -->
<g id="edge24" class="edge"><title>Node10&#45;&gt;Node8</title>
<path fill="none" stroke="midnightblue" d="M1437.93,-174.45C1389.47,-150.568 1265.91,-91.8233 1157,-58 1091.21,-37.5687 1011.92,-23.4474 966.588,-16.3321"/>
<polygon fill="midnightblue" stroke="midnightblue" points="967.053,-12.8624 956.636,-14.7972 965.986,-19.7807 967.053,-12.8624"/>
</g>
<!-- Node11 -->
<g id="node25" class="node"><title>Node11</title>
<polygon fill="white" stroke="#bfbfbf" points="809.5,-58.5 809.5,-79.5 850.5,-79.5 850.5,-58.5 809.5,-58.5"/>
<text text-anchor="middle" x="830" y="-66.5" font-family="DejaVuSans" font-size="10.00">QList</text>
</g>
<!-- Node10&#45;&gt;Node11 -->
<g id="edge28" class="edge"><title>Node10&#45;&gt;Node11</title>
<path fill="none" stroke="midnightblue" d="M1434.39,-174.444C1397.31,-159.005 1324.57,-130.529 1260,-116 1250.22,-113.8 957.685,-82.5807 860.815,-72.2746"/>
<polygon fill="midnightblue" stroke="midnightblue" points="861.085,-68.7837 850.771,-71.2064 860.345,-75.7444 861.085,-68.7837"/>
</g>
<!-- Node12&#45;&gt;Node7 -->
<g id="edge38" class="edge"><title>Node12&#45;&gt;Node7</title>
<path fill="none" stroke="midnightblue" d="M986.131,-180.022C1047.83,-173.947 1145.4,-161.45 1227,-138 1328.95,-108.701 1442.33,-53.0914 1494.23,-26.2498"/>
<polygon fill="midnightblue" stroke="midnightblue" points="1495.94,-29.3082 1503.19,-21.5855 1492.7,-23.0994 1495.94,-29.3082"/>
</g>
<!-- Node12&#45;&gt;Node8 -->
<g id="edge34" class="edge"><title>Node12&#45;&gt;Node8</title>
<path fill="none" stroke="midnightblue" d="M864.091,-174.482C791.356,-161.78 679.031,-141.657 676,-138 612.195,-61.0252 808.865,-26.3086 893.374,-15.2026"/>
<polygon fill="midnightblue" stroke="midnightblue" points="893.858,-18.6693 903.336,-13.9348 892.974,-11.7253 893.858,-18.6693"/>
</g>
<!-- Node12&#45;&gt;Node11 -->
<g id="edge36" class="edge"><title>Node12&#45;&gt;Node11</title>
<path fill="none" stroke="midnightblue" d="M876.394,-174.474C841.744,-165.87 799.509,-152.751 789,-138 777.02,-121.184 792.643,-100.719 807.93,-86.4622"/>
<polygon fill="midnightblue" stroke="midnightblue" points="810.523,-88.8436 815.745,-79.6249 805.914,-83.5752 810.523,-88.8436"/>
</g>
<!-- Node13 -->
<g id="node29" class="node"><title>Node13</title>
<polygon fill="white" stroke="#bfbfbf" points="693.5,-116.5 693.5,-137.5 742.5,-137.5 742.5,-116.5 693.5,-116.5"/>
<text text-anchor="middle" x="718" y="-124.5" font-family="DejaVuSans" font-size="10.00">QFlags</text>
</g>
<!-- Node12&#45;&gt;Node13 -->
<g id="edge32" class="edge"><title>Node12&#45;&gt;Node13</title>
<path fill="none" stroke="midnightblue" d="M886.71,-174.475C852.435,-165.024 800.824,-150.72 756,-138 754.774,-137.652 753.525,-137.297 752.264,-136.937"/>
<polygon fill="midnightblue" stroke="midnightblue" points="753.096,-133.534 742.519,-134.139 751.165,-140.262 753.096,-133.534"/>
</g>
<!-- Node14 -->
<g id="node34" class="node"><title>Node14</title>
<a xlink:href="cv___species_8h.html" target="_top" xlink:title="cv_Species.h">
<polygon fill="white" stroke="black" points="943.5,-58.5 943.5,-79.5 1022.5,-79.5 1022.5,-58.5 943.5,-58.5"/>
<text text-anchor="middle" x="983" y="-66.5" font-family="DejaVuSans" font-size="10.00">cv_Species.h</text>
</a>
</g>
<!-- Node12&#45;&gt;Node14 -->
<g id="edge40" class="edge"><title>Node12&#45;&gt;Node14</title>
<path fill="none" stroke="midnightblue" d="M863.884,-175.01C794.688,-163.406 690.734,-144.966 685,-138 678.786,-130.451 678.647,-123.433 685,-116 700.896,-97.4001 852.357,-80.9121 933.01,-73.3628"/>
<polygon fill="midnightblue" stroke="midnightblue" points="933.791,-76.8057 943.426,-72.4007 933.147,-69.8354 933.791,-76.8057"/>
</g>
<!-- Node12&#45;&gt;Node15 -->
<g id="edge44" class="edge"><title>Node12&#45;&gt;Node15</title>
<path fill="none" stroke="midnightblue" d="M909.777,-174.362C897.375,-165.696 879.654,-153.313 865.443,-143.382"/>
<polygon fill="midnightblue" stroke="midnightblue" points="867.329,-140.43 857.127,-137.571 863.319,-146.168 867.329,-140.43"/>
</g>
<!-- Node16 -->
<g id="node43" class="node"><title>Node16</title>
<a xlink:href="cv___abstract_trait_8h.html" target="_top" xlink:title="cv_AbstractTrait.h">
<polygon fill="white" stroke="black" points="1117.5,-116.5 1117.5,-137.5 1218.5,-137.5 1218.5,-116.5 1117.5,-116.5"/>
<text text-anchor="middle" x="1168" y="-124.5" font-family="DejaVuSans" font-size="10.00">cv_AbstractTrait.h</text>
</a>
</g>
<!-- Node12&#45;&gt;Node16 -->
<g id="edge54" class="edge"><title>Node12&#45;&gt;Node16</title>
<path fill="none" stroke="midnightblue" d="M969.005,-174.497C1009.74,-164.775 1070.41,-150.294 1114.04,-139.879"/>
<polygon fill="midnightblue" stroke="midnightblue" points="1115,-143.249 1123.91,-137.523 1113.37,-136.44 1115,-143.249"/>
</g>
<!-- Node14&#45;&gt;Node8 -->
<g id="edge42" class="edge"><title>Node14&#45;&gt;Node8</title>
<path fill="none" stroke="midnightblue" d="M973.279,-58.3619C965.808,-50.1861 955.314,-38.7025 946.531,-29.0907"/>
<polygon fill="midnightblue" stroke="midnightblue" points="948.989,-26.5918 939.659,-21.5707 943.821,-31.3138 948.989,-26.5918"/>
</g>
<!-- Node15&#45;&gt;Node7 -->
<g id="edge50" class="edge"><title>Node15&#45;&gt;Node7</title>
<path fill="none" stroke="midnightblue" d="M854.454,-116.387C875.445,-98.7399 917.307,-64.6404 935,-58 1034.35,-20.7124 1358.2,-12.9947 1477.95,-11.4075"/>
<polygon fill="midnightblue" stroke="midnightblue" points="1478.27,-14.9039 1488.23,-11.2799 1478.18,-7.90446 1478.27,-14.9039"/>
</g>
<!-- Node15&#45;&gt;Node8 -->
<g id="edge46" class="edge"><title>Node15&#45;&gt;Node8</title>
<path fill="none" stroke="midnightblue" d="M850.121,-116.295C865.052,-96.6135 897.038,-54.4504 915.687,-29.8668"/>
<polygon fill="midnightblue" stroke="midnightblue" points="918.643,-31.7615 921.899,-21.6792 913.066,-27.5308 918.643,-31.7615"/>
</g>
<!-- Node15&#45;&gt;Node11 -->
<g id="edge48" class="edge"><title>Node15&#45;&gt;Node11</title>
<path fill="none" stroke="midnightblue" d="M839.799,-116.362C838.243,-108.84 836.107,-98.5187 834.227,-89.4308"/>
<polygon fill="midnightblue" stroke="midnightblue" points="837.641,-88.6541 832.187,-79.5707 830.786,-90.0724 837.641,-88.6541"/>
</g>
<!-- Node15&#45;&gt;Node14 -->
<g id="edge52" class="edge"><title>Node15&#45;&gt;Node14</title>
<path fill="none" stroke="midnightblue" d="M867.534,-116.497C889.953,-107.275 922.785,-93.7695 947.713,-83.5153"/>
<polygon fill="midnightblue" stroke="midnightblue" points="949.263,-86.6623 957.179,-79.6212 946.6,-80.1886 949.263,-86.6623"/>
</g>
<!-- Node16&#45;&gt;Node8 -->
<g id="edge56" class="edge"><title>Node16&#45;&gt;Node8</title>
<path fill="none" stroke="midnightblue" d="M1147.21,-116.277C1120.45,-102.534 1072.46,-78.0833 1031,-58 1008.26,-46.9874 982.433,-34.9764 962.586,-25.853"/>
<polygon fill="midnightblue" stroke="midnightblue" points="963.913,-22.6107 953.364,-21.6233 960.994,-28.9735 963.913,-22.6107"/>
</g>
<!-- Node16&#45;&gt;Node14 -->
<g id="edge58" class="edge"><title>Node16&#45;&gt;Node14</title>
<path fill="none" stroke="midnightblue" d="M1134.5,-116.497C1104.21,-107 1059.43,-92.9619 1026.41,-82.6087"/>
<polygon fill="midnightblue" stroke="midnightblue" points="1027.15,-79.175 1016.56,-79.5231 1025.06,-85.8544 1027.15,-79.175"/>
</g>
<!-- Node17&#45;&gt;Node8 -->
<g id="edge62" class="edge"><title>Node17&#45;&gt;Node8</title>
<path fill="none" stroke="midnightblue" d="M1212.33,-174.344C1223.69,-160.021 1239.85,-134.252 1227,-116 1196.24,-72.3138 1039.42,-34.1472 966.888,-18.5236"/>
<polygon fill="midnightblue" stroke="midnightblue" points="967.332,-15.04 956.823,-16.3841 965.877,-21.887 967.332,-15.04"/>
</g>
<!-- Node17&#45;&gt;Node14 -->
<g id="edge64" class="edge"><title>Node17&#45;&gt;Node14</title>
<path fill="none" stroke="midnightblue" d="M1180.77,-174.361C1161.6,-165.072 1133.25,-151.069 1109,-138 1091.82,-128.743 1088.05,-125.487 1071,-116 1051.59,-105.201 1029.54,-93.4263 1012.37,-84.3636"/>
<polygon fill="midnightblue" stroke="midnightblue" points="1013.86,-81.1923 1003.38,-79.6313 1010.6,-87.3865 1013.86,-81.1923"/>
</g>
<!-- Node17&#45;&gt;Node16 -->
<g id="edge66" class="edge"><title>Node17&#45;&gt;Node16</title>
<path fill="none" stroke="midnightblue" d="M1196.58,-174.362C1191.84,-166.513 1185.27,-155.616 1179.62,-146.253"/>
<polygon fill="midnightblue" stroke="midnightblue" points="1182.54,-144.324 1174.38,-137.571 1176.55,-147.941 1182.54,-144.324"/>
</g>
<!-- Node18&#45;&gt;Node7 -->
<g id="edge72" class="edge"><title>Node18&#45;&gt;Node7</title>
<path fill="none" stroke="midnightblue" d="M1394.72,-232.808C1396.16,-232.536 1397.59,-232.266 1399,-232 1484.32,-215.911 1527.57,-255.278 1591,-196 1636.11,-153.843 1638.23,-111.263 1607,-58 1598.18,-42.9584 1582.59,-32.3703 1567.22,-25.1041"/>
<polygon fill="midnightblue" stroke="midnightblue" points="1568.31,-21.761 1557.74,-20.9991 1565.53,-28.1846 1568.31,-21.761"/>
</g>
<!-- Node18&#45;&gt;Node10 -->
<g id="edge76" class="edge"><title>Node18&#45;&gt;Node10</title>
<path fill="none" stroke="midnightblue" d="M1362.37,-232.497C1380.8,-223.438 1407.64,-210.246 1428.36,-200.063"/>
<polygon fill="midnightblue" stroke="midnightblue" points="1429.96,-203.174 1437.39,-195.621 1426.87,-196.891 1429.96,-203.174"/>
</g>
<!-- Node18&#45;&gt;Node11 -->
<g id="edge70" class="edge"><title>Node18&#45;&gt;Node11</title>
<path fill="none" stroke="midnightblue" d="M1335.64,-232.488C1328.14,-218.329 1313.55,-192.745 1297,-174 1283.63,-158.856 1245.57,-123.958 1227,-116 1218.55,-112.38 952.184,-82.5616 860.582,-72.3869"/>
<polygon fill="midnightblue" stroke="midnightblue" points="860.875,-68.898 850.55,-71.2736 860.103,-75.8553 860.875,-68.898"/>
</g>
<!-- Node18&#45;&gt;Node12 -->
<g id="edge74" class="edge"><title>Node18&#45;&gt;Node12</title>
<path fill="none" stroke="midnightblue" d="M1287.47,-235.536C1213.21,-225.183 1078.78,-206.441 996.152,-194.92"/>
<polygon fill="midnightblue" stroke="midnightblue" points="996.479,-191.432 986.092,-193.518 995.512,-198.365 996.479,-191.432"/>
</g>
<!-- Node19 -->
<g id="node58" class="node"><title>Node19</title>
<a xlink:href="cv___super_effect_8h.html" target="_top" xlink:title="../Datatypes/cv_SuperEffect.h">
<polygon fill="white" stroke="black" points="904,-116.5 904,-137.5 1062,-137.5 1062,-116.5 904,-116.5"/>
<text text-anchor="middle" x="983" y="-124.5" font-family="DejaVuSans" font-size="10.00">../Datatypes/cv_SuperEffect.h</text>
</a>
</g>
<!-- Node18&#45;&gt;Node19 -->
<g id="edge78" class="edge"><title>Node18&#45;&gt;Node19</title>
<path fill="none" stroke="midnightblue" d="M1287.23,-236.781C1239.39,-230.159 1168.06,-217.587 1109,-196 1098.83,-192.282 1044.47,-161.853 1010.56,-142.665"/>
<polygon fill="midnightblue" stroke="midnightblue" points="1012.01,-139.468 1001.59,-137.583 1008.56,-145.558 1012.01,-139.468"/>
</g>
<!-- Node18&#45;&gt;Node20 -->
<g id="edge82" class="edge"><title>Node18&#45;&gt;Node20</title>
<path fill="none" stroke="midnightblue" d="M1394.65,-235.887C1452.71,-227.807 1547.9,-213.451 1629,-196 1630.08,-195.767 1631.18,-195.524 1632.28,-195.273"/>
<polygon fill="midnightblue" stroke="midnightblue" points="1633.41,-198.599 1642.3,-192.835 1631.76,-191.797 1633.41,-198.599"/>
</g>
<!-- Node19&#45;&gt;Node14 -->
<g id="edge80" class="edge"><title>Node19&#45;&gt;Node14</title>
<path fill="none" stroke="midnightblue" d="M983,-116.362C983,-108.922 983,-98.7427 983,-89.7276"/>
<polygon fill="midnightblue" stroke="midnightblue" points="986.5,-89.5706 983,-79.5707 979.5,-89.5707 986.5,-89.5706"/>
</g>
<!-- Node21&#45;&gt;Node7 -->
<g id="edge92" class="edge"><title>Node21&#45;&gt;Node7</title>
<path fill="none" stroke="midnightblue" d="M675.752,-242.247C833.454,-238.498 1508.46,-221.039 1545,-196 1575.84,-174.868 1577.18,-152.872 1571,-116 1566.49,-89.1077 1562.48,-82.7317 1551,-58 1546.64,-48.6113 1540.92,-38.6983 1535.78,-30.4091"/>
<polygon fill="midnightblue" stroke="midnightblue" points="1538.66,-28.4123 1530.34,-21.8547 1532.76,-32.1704 1538.66,-28.4123"/>
</g>
<!-- Node22 -->
<g id="node69" class="node"><title>Node22</title>
<polygon fill="white" stroke="#bfbfbf" points="404,-174.5 404,-195.5 486,-195.5 486,-174.5 404,-174.5"/>
<text text-anchor="middle" x="445" y="-182.5" font-family="DejaVuSans" font-size="10.00">QHBoxLayout</text>
</g>
<!-- Node21&#45;&gt;Node22 -->
<g id="edge94" class="edge"><title>Node21&#45;&gt;Node22</title>
<path fill="none" stroke="midnightblue" d="M610.304,-233.422C577.775,-223.894 527.57,-209.187 491.021,-198.481"/>
<polygon fill="midnightblue" stroke="midnightblue" points="491.681,-195.027 481.1,-195.575 489.713,-201.745 491.681,-195.027"/>
</g>
<!-- Node23 -->
<g id="node71" class="node"><title>Node23</title>
<polygon fill="white" stroke="#bfbfbf" points="618,-174.5 618,-195.5 668,-195.5 668,-174.5 618,-174.5"/>
<text text-anchor="middle" x="643" y="-182.5" font-family="DejaVuSans" font-size="10.00">QLabel</text>
</g>
<!-- Node21&#45;&gt;Node23 -->
<g id="edge96" class="edge"><title>Node21&#45;&gt;Node23</title>
<path fill="none" stroke="midnightblue" d="M643,-232.362C643,-224.922 643,-214.743 643,-205.728"/>
<polygon fill="midnightblue" stroke="midnightblue" points="646.5,-205.571 643,-195.571 639.5,-205.571 646.5,-205.571"/>
</g>
<!-- Node24 -->
<g id="node73" class="node"><title>Node24</title>
<polygon fill="white" stroke="#bfbfbf" points="766,-174.5 766,-195.5 846,-195.5 846,-174.5 766,-174.5"/>
<text text-anchor="middle" x="806" y="-182.5" font-family="DejaVuSans" font-size="10.00">QPushButton</text>
</g>
<!-- Node21&#45;&gt;Node24 -->
<g id="edge98" class="edge"><title>Node21&#45;&gt;Node24</title>
<path fill="none" stroke="midnightblue" d="M672.518,-232.497C698.976,-223.082 737.979,-209.204 767,-198.877"/>
<polygon fill="midnightblue" stroke="midnightblue" points="768.179,-202.173 776.427,-195.523 765.832,-195.578 768.179,-202.173"/>
</g>
<!-- Node25 -->
<g id="node75" class="node"><title>Node25</title>
<polygon fill="white" stroke="#bfbfbf" points="686,-174.5 686,-195.5 748,-195.5 748,-174.5 686,-174.5"/>
<text text-anchor="middle" x="717" y="-182.5" font-family="DejaVuSans" font-size="10.00">QLineEdit</text>
</g>
<!-- Node21&#45;&gt;Node25 -->
<g id="edge100" class="edge"><title>Node21&#45;&gt;Node25</title>
<path fill="none" stroke="midnightblue" d="M656.573,-232.362C667.421,-223.859 682.834,-211.779 695.379,-201.947"/>
<polygon fill="midnightblue" stroke="midnightblue" points="697.802,-204.494 703.513,-195.571 693.484,-198.985 697.802,-204.494"/>
</g>
<!-- Node26 -->
<g id="node77" class="node"><title>Node26</title>
<a xlink:href="_trait_dots_8h.html" target="_top" xlink:title="TraitDots.h">
<polygon fill="white" stroke="black" points="318,-174.5 318,-195.5 386,-195.5 386,-174.5 318,-174.5"/>
<text text-anchor="middle" x="352" y="-182.5" font-family="DejaVuSans" font-size="10.00">TraitDots.h</text>
</a>
</g>
<!-- Node21&#45;&gt;Node26 -->
<g id="edge102" class="edge"><title>Node21&#45;&gt;Node26</title>
<path fill="none" stroke="midnightblue" d="M610.368,-237.493C564.629,-229.626 478.655,-214.304 396.018,-196.133"/>
<polygon fill="midnightblue" stroke="midnightblue" points="396.741,-192.709 386.221,-193.962 395.226,-199.543 396.741,-192.709"/>
</g>
<!-- Node29 -->
<g id="node84" class="node"><title>Node29</title>
<polygon fill="white" stroke="#bfbfbf" points="258,-116.5 258,-137.5 314,-137.5 314,-116.5 258,-116.5"/>
<text text-anchor="middle" x="286" y="-124.5" font-family="DejaVuSans" font-size="10.00">QWidget</text>
</g>
<!-- Node21&#45;&gt;Node29 -->
<g id="edge122" class="edge"><title>Node21&#45;&gt;Node29</title>
<path fill="none" stroke="midnightblue" d="M610.389,-240.36C530.903,-233.655 331.977,-215.135 309,-196 294.868,-184.231 289.371,-163.519 287.259,-147.849"/>
<polygon fill="midnightblue" stroke="midnightblue" points="290.706,-147.14 286.243,-137.531 283.74,-147.825 290.706,-147.14"/>
</g>
<!-- Node30 -->
<g id="node86" class="node"><title>Node30</title>
<a xlink:href="_trait_specialties_8h.html" target="_top" xlink:title="TraitSpecialties.h">
<polygon fill="white" stroke="black" points="503.5,-174.5 503.5,-195.5 600.5,-195.5 600.5,-174.5 503.5,-174.5"/>
<text text-anchor="middle" x="552" y="-182.5" font-family="DejaVuSans" font-size="10.00">TraitSpecialties.h</text>
</a>
</g>
<!-- Node21&#45;&gt;Node30 -->
<g id="edge112" class="edge"><title>Node21&#45;&gt;Node30</title>
<path fill="none" stroke="midnightblue" d="M626.309,-232.362C612.584,-223.614 592.916,-211.079 577.263,-201.101"/>
<polygon fill="midnightblue" stroke="midnightblue" points="578.899,-197.994 568.585,-195.571 575.137,-203.897 578.899,-197.994"/>
</g>
<!-- Node26&#45;&gt;Node11 -->
<g id="edge106" class="edge"><title>Node26&#45;&gt;Node11</title>
<path fill="none" stroke="midnightblue" d="M386.257,-176.192C389.213,-175.445 392.158,-174.706 395,-174 546.316,-136.385 727.734,-93.2139 799.054,-76.317"/>
<polygon fill="midnightblue" stroke="midnightblue" points="800.224,-79.6368 809.149,-73.9268 798.611,-72.8252 800.224,-79.6368"/>
</g>
<!-- Node27 -->
<g id="node79" class="node"><title>Node27</title>
<polygon fill="white" stroke="#bfbfbf" points="99.5,-116.5 99.5,-137.5 148.5,-137.5 148.5,-116.5 99.5,-116.5"/>
<text text-anchor="middle" x="124" y="-124.5" font-family="DejaVuSans" font-size="10.00">QColor</text>
</g>
<!-- Node26&#45;&gt;Node27 -->
<g id="edge104" class="edge"><title>Node26&#45;&gt;Node27</title>
<path fill="none" stroke="midnightblue" d="M317.866,-176.317C274.853,-165.375 201.357,-146.679 158.277,-135.72"/>
<polygon fill="midnightblue" stroke="midnightblue" points="159.088,-132.314 148.534,-133.241 157.362,-139.098 159.088,-132.314"/>
</g>
<!-- Node28 -->
<g id="node82" class="node"><title>Node28</title>
<polygon fill="white" stroke="#bfbfbf" points="331.5,-116.5 331.5,-137.5 382.5,-137.5 382.5,-116.5 331.5,-116.5"/>
<text text-anchor="middle" x="357" y="-124.5" font-family="DejaVuSans" font-size="10.00">QEvent</text>
</g>
<!-- Node26&#45;&gt;Node28 -->
<g id="edge108" class="edge"><title>Node26&#45;&gt;Node28</title>
<path fill="none" stroke="midnightblue" d="M352.917,-174.362C353.558,-166.922 354.436,-156.743 355.213,-147.728"/>
<polygon fill="midnightblue" stroke="midnightblue" points="358.717,-147.834 356.089,-137.571 351.743,-147.233 358.717,-147.834"/>
</g>
<!-- Node26&#45;&gt;Node29 -->
<g id="edge110" class="edge"><title>Node26&#45;&gt;Node29</title>
<path fill="none" stroke="midnightblue" d="M339.895,-174.362C330.312,-165.941 316.736,-154.011 305.607,-144.231"/>
<polygon fill="midnightblue" stroke="midnightblue" points="307.851,-141.543 298.029,-137.571 303.23,-146.801 307.851,-141.543"/>
</g>
<!-- Node30&#45;&gt;Node8 -->
<g id="edge114" class="edge"><title>Node30&#45;&gt;Node8</title>
<path fill="none" stroke="midnightblue" d="M558.894,-174.343C575.627,-149.435 621.082,-87.3038 676,-58 713.121,-38.1923 832.29,-22.1705 893.283,-15.0266"/>
<polygon fill="midnightblue" stroke="midnightblue" points="893.724,-18.4991 903.257,-13.8769 892.922,-11.5451 893.724,-18.4991"/>
</g>
<!-- Node30&#45;&gt;Node15 -->
<g id="edge116" class="edge"><title>Node30&#45;&gt;Node15</title>
<path fill="none" stroke="midnightblue" d="M600.539,-175.292C652.042,-164.992 733.26,-148.748 787.072,-137.986"/>
<polygon fill="midnightblue" stroke="midnightblue" points="788,-141.369 797.12,-135.976 786.628,-134.505 788,-141.369"/>
</g>
<!-- Node31 -->
<g id="node90" class="node"><title>Node31</title>
<a xlink:href="_checked_list_8h.html" target="_top" xlink:title="CheckedList.h">
<polygon fill="white" stroke="black" points="441.5,-116.5 441.5,-137.5 524.5,-137.5 524.5,-116.5 441.5,-116.5"/>
<text text-anchor="middle" x="483" y="-124.5" font-family="DejaVuSans" font-size="10.00">CheckedList.h</text>
</a>
</g>
<!-- Node30&#45;&gt;Node31 -->
<g id="edge118" class="edge"><title>Node30&#45;&gt;Node31</title>
<path fill="none" stroke="midnightblue" d="M539.344,-174.362C529.326,-165.941 515.133,-154.011 503.499,-144.231"/>
<polygon fill="midnightblue" stroke="midnightblue" points="505.482,-141.326 495.575,-137.571 500.978,-146.684 505.482,-141.326"/>
</g>
<!-- Node32 -->
<g id="node92" class="node"><title>Node32</title>
<polygon fill="white" stroke="#bfbfbf" points="446.5,-58.5 446.5,-79.5 519.5,-79.5 519.5,-58.5 446.5,-58.5"/>
<text text-anchor="middle" x="483" y="-66.5" font-family="DejaVuSans" font-size="10.00">QListWidget</text>
</g>
<!-- Node31&#45;&gt;Node32 -->
<g id="edge120" class="edge"><title>Node31&#45;&gt;Node32</title>
<path fill="none" stroke="midnightblue" d="M483,-116.362C483,-108.922 483,-98.7427 483,-89.7276"/>
<polygon fill="midnightblue" stroke="midnightblue" points="486.5,-89.5706 483,-79.5707 479.5,-89.5707 486.5,-89.5706"/>
</g>
<!-- Node33&#45;&gt;Node6 -->
<g id="edge136" class="edge"><title>Node33&#45;&gt;Node6</title>
<path fill="none" stroke="midnightblue" d="M351.03,-240.39C570.864,-231.883 1250.64,-204.993 1297,-196 1328.37,-189.915 1410,-159.47 1457.77,-141.115"/>
<polygon fill="midnightblue" stroke="midnightblue" points="1459.06,-144.368 1467.13,-137.505 1456.54,-137.837 1459.06,-144.368"/>
</g>
<!-- Node33&#45;&gt;Node8 -->
<g id="edge128" class="edge"><title>Node33&#45;&gt;Node8</title>
<path fill="none" stroke="midnightblue" d="M267.733,-232.196C257.169,-223.719 243.977,-210.886 238,-196 229.674,-175.265 243.147,-122.537 249,-116 307.611,-50.538 351.825,-75.1546 438,-58 605.892,-24.5784 810.911,-14.7041 893.222,-11.9736"/>
<polygon fill="midnightblue" stroke="midnightblue" points="893.441,-15.4685 903.326,-11.6543 893.22,-8.472 893.441,-15.4685"/>
</g>
<!-- Node33&#45;&gt;Node12 -->
<g id="edge130" class="edge"><title>Node33&#45;&gt;Node12</title>
<path fill="none" stroke="midnightblue" d="M351.402,-239.019C456.975,-232.512 666.179,-218.179 853.898,-196.06"/>
<polygon fill="midnightblue" stroke="midnightblue" points="854.436,-199.521 863.953,-194.865 853.61,-192.569 854.436,-199.521"/>
</g>
<!-- Node34 -->
<g id="node100" class="node"><title>Node34</title>
<a xlink:href="cv___shape_8h.html" target="_top" xlink:title="../Datatypes/cv_Shape.h">
<polygon fill="white" stroke="black" points="100,-58.5 100,-79.5 234,-79.5 234,-58.5 100,-58.5"/>
<text text-anchor="middle" x="167" y="-66.5" font-family="DejaVuSans" font-size="10.00">../Datatypes/cv_Shape.h</text>
</a>
</g>
<!-- Node33&#45;&gt;Node34 -->
<g id="edge132" class="edge"><title>Node33&#45;&gt;Node34</title>
<path fill="none" stroke="midnightblue" d="M252.001,-232.459C234.31,-224.927 213.112,-213.074 200,-196 175.84,-164.539 169.279,-117.121 167.554,-90.0081"/>
<polygon fill="midnightblue" stroke="midnightblue" points="171.037,-89.5626 167.073,-79.7371 164.044,-89.8899 171.037,-89.5626"/>
</g>
<!-- Node33&#45;&gt;Node35 -->
<g id="edge138" class="edge"><title>Node33&#45;&gt;Node35</title>
<path fill="none" stroke="midnightblue" d="M249.679,-232.497C219.552,-223 175.017,-208.962 142.172,-198.609"/>
<polygon fill="midnightblue" stroke="midnightblue" points="142.973,-195.191 132.384,-195.523 140.869,-201.868 142.973,-195.191"/>
</g>
<!-- Node34&#45;&gt;Node8 -->
<g id="edge134" class="edge"><title>Node34&#45;&gt;Node8</title>
<path fill="none" stroke="midnightblue" d="M234.143,-59.5336C238.828,-58.9802 243.482,-58.4619 248,-58 493.74,-32.8742 790.703,-17.5368 893.161,-12.6797"/>
<polygon fill="midnightblue" stroke="midnightblue" points="893.473,-16.169 903.297,-12.2035 893.144,-9.17675 893.473,-16.169"/>
</g>
<!-- Node35&#45;&gt;Node8 -->
<g id="edge140" class="edge"><title>Node35&#45;&gt;Node8</title>
<path fill="none" stroke="midnightblue" d="M93.8262,-174.401C82.8225,-150.156 60.4913,-90.2656 91,-58 118.925,-28.4674 734.171,-14.7331 892.904,-11.6736"/>
<polygon fill="midnightblue" stroke="midnightblue" points="893.179,-15.1691 903.11,-11.4795 893.045,-8.17037 893.179,-15.1691"/>
</g>
<!-- Node35&#45;&gt;Node27 -->
<g id="edge142" class="edge"><title>Node35&#45;&gt;Node27</title>
<path fill="none" stroke="midnightblue" d="M103.585,-174.362C106.898,-166.677 111.47,-156.069 115.448,-146.84"/>
<polygon fill="midnightblue" stroke="midnightblue" points="118.699,-148.139 119.444,-137.571 112.271,-145.368 118.699,-148.139"/>
</g>
<!-- Node36 -->
<g id="node108" class="node"><title>Node36</title>
<polygon fill="white" stroke="#bfbfbf" points="-0.5,-116.5 -0.5,-137.5 44.5,-137.5 44.5,-116.5 -0.5,-116.5"/>
<text text-anchor="middle" x="22" y="-124.5" font-family="DejaVuSans" font-size="10.00">QFont</text>
</g>
<!-- Node35&#45;&gt;Node36 -->
<g id="edge144" class="edge"><title>Node35&#45;&gt;Node36</title>
<path fill="none" stroke="midnightblue" d="M84.877,-174.362C73.4802,-165.777 57.2419,-153.546 44.1223,-143.664"/>
<polygon fill="midnightblue" stroke="midnightblue" points="46.1268,-140.792 36.0335,-137.571 41.9152,-146.383 46.1268,-140.792"/>
</g>
<!-- Node38&#45;&gt;Node5 -->
<g id="edge166" class="edge"><title>Node38&#45;&gt;Node5</title>
<path fill="none" stroke="midnightblue" d="M1071.56,-348.497C1088.2,-339.56 1112.33,-326.602 1131.18,-316.477"/>
<polygon fill="midnightblue" stroke="midnightblue" points="1133.07,-319.436 1140.22,-311.621 1129.76,-313.269 1133.07,-319.436"/>
</g>
<!-- Node38&#45;&gt;Node15 -->
<g id="edge158" class="edge"><title>Node38&#45;&gt;Node15</title>
<path fill="none" stroke="midnightblue" d="M1053.32,-348.092C1056.5,-316.538 1061.1,-224.225 1014,-174 1005.75,-165.199 943.749,-149.685 896.532,-138.9"/>
<polygon fill="midnightblue" stroke="midnightblue" points="897.232,-135.469 886.706,-136.674 895.686,-142.297 897.232,-135.469"/>
</g>
<!-- Node38&#45;&gt;Node24 -->
<g id="edge156" class="edge"><title>Node38&#45;&gt;Node24</title>
<path fill="none" stroke="midnightblue" d="M1036.98,-348.377C995.552,-319.073 879.414,-236.927 829.398,-201.55"/>
<polygon fill="midnightblue" stroke="midnightblue" points="831.319,-198.622 821.134,-195.705 827.277,-204.337 831.319,-198.622"/>
</g>
<!-- Node38&#45;&gt;Node29 -->
<g id="edge168" class="edge"><title>Node38&#45;&gt;Node29</title>
<path fill="none" stroke="midnightblue" d="M1008.85,-350.482C849.553,-318.946 303.119,-209.928 291,-196 279.644,-182.949 279.484,-162.741 281.516,-147.561"/>
<polygon fill="midnightblue" stroke="midnightblue" points="284.988,-148.022 283.255,-137.57 278.092,-146.822 284.988,-148.022"/>
</g>
<!-- Node39 -->
<g id="node116" class="node"><title>Node39</title>
<polygon fill="white" stroke="#bfbfbf" points="1257.5,-290.5 1257.5,-311.5 1338.5,-311.5 1338.5,-290.5 1257.5,-290.5"/>
<text text-anchor="middle" x="1298" y="-298.5" font-family="DejaVuSans" font-size="10.00">QVBoxLayout</text>
</g>
<!-- Node38&#45;&gt;Node39 -->
<g id="edge154" class="edge"><title>Node38&#45;&gt;Node39</title>
<path fill="none" stroke="midnightblue" d="M1095.13,-348.831C1137.66,-338.803 1202.64,-323.483 1247.55,-312.896"/>
<polygon fill="midnightblue" stroke="midnightblue" points="1248.44,-316.281 1257.37,-310.579 1246.84,-309.467 1248.44,-316.281"/>
</g>
<!-- Node40 -->
<g id="node120" class="node"><title>Node40</title>
<a xlink:href="_select_merits_dialog_8h.html" target="_top" xlink:title="Dialogs/SelectMeritsDialog.h">
<polygon fill="white" stroke="black" points="1682.5,-290.5 1682.5,-311.5 1835.5,-311.5 1835.5,-290.5 1682.5,-290.5"/>
<text text-anchor="middle" x="1759" y="-298.5" font-family="DejaVuSans" font-size="10.00">Dialogs/SelectMeritsDialog.h</text>
</a>
</g>
<!-- Node38&#45;&gt;Node40 -->
<g id="edge160" class="edge"><title>Node38&#45;&gt;Node40</title>
<path fill="none" stroke="midnightblue" d="M1095.16,-355.459C1209.09,-346.113 1519.6,-320.639 1672.12,-308.127"/>
<polygon fill="midnightblue" stroke="midnightblue" points="1672.7,-311.592 1682.38,-307.286 1672.13,-304.615 1672.7,-311.592"/>
</g>
<!-- Node40&#45;&gt;Node2 -->
<g id="edge162" class="edge"><title>Node40&#45;&gt;Node2</title>
<path fill="none" stroke="midnightblue" d="M1778.08,-290.362C1794.05,-281.45 1817.08,-268.609 1835.13,-258.545"/>
<polygon fill="midnightblue" stroke="midnightblue" points="1837.02,-261.498 1844.05,-253.571 1833.61,-255.385 1837.02,-261.498"/>
</g>
<!-- Node41 -->
<g id="node123" class="node"><title>Node41</title>
<polygon fill="white" stroke="#bfbfbf" points="1753,-232.5 1753,-253.5 1807,-253.5 1807,-232.5 1753,-232.5"/>
<text text-anchor="middle" x="1780" y="-240.5" font-family="DejaVuSans" font-size="10.00">QDialog</text>
</g>
<!-- Node40&#45;&gt;Node41 -->
<g id="edge164" class="edge"><title>Node40&#45;&gt;Node41</title>
<path fill="none" stroke="midnightblue" d="M1762.85,-290.362C1765.6,-282.758 1769.39,-272.294 1772.71,-263.135"/>
<polygon fill="midnightblue" stroke="midnightblue" points="1776.06,-264.165 1776.17,-253.571 1769.48,-261.782 1776.06,-264.165"/>
</g>
</g>
</svg>
