<?xml version="1.0" encoding="UTF-8" standalone="no"?>
<!DOCTYPE svg PUBLIC "-//W3C//DTD SVG 1.1//EN"
 "http://www.w3.org/Graphics/SVG/1.1/DTD/svg11.dtd">
<!-- Generated by graphviz version 2.26.3 (20100126.1600)
 -->
<!-- Title: G Pages: 1 -->
<svg width="384pt" height="146pt"
 viewBox="0.00 0.00 384.00 146.00" xmlns="http://www.w3.org/2000/svg" xmlns:xlink="http://www.w3.org/1999/xlink">
<g id="graph1" class="graph" transform="scale(1 1) rotate(0) translate(4 142)">
<title>G</title>
<polygon fill="white" stroke="white" points="-4,5 -4,-142 381,-142 381,5 -4,5"/>
<!-- Node1 -->
<g id="node1" class="node"><title>Node1</title>
<polygon fill="#bfbfbf" stroke="black" points="125.5,-116.5 125.5,-137.5 268.5,-137.5 268.5,-116.5 125.5,-116.5"/>
<text text-anchor="middle" x="197" y="-124.5" font-family="DejaVuSans" font-size="10.00">src/IO/ReadXmlCharacter.h</text>
</g>
<!-- Node2 -->
<g id="node3" class="node"><title>Node2</title>
<polygon fill="white" stroke="#bfbfbf" points="0,-58.5 0,-79.5 152,-79.5 152,-58.5 0,-58.5"/>
<text text-anchor="middle" x="76" y="-66.5" font-family="DejaVuSans" font-size="10.00">Storage/StorageCharacter.h</text>
</g>
<!-- Node1&#45;&gt;Node2 -->
<g id="edge2" class="edge"><title>Node1&#45;&gt;Node2</title>
<path fill="none" stroke="midnightblue" d="M175.088,-116.497C156.189,-107.438 128.669,-94.2462 107.424,-84.0628"/>
<polygon fill="midnightblue" stroke="midnightblue" points="108.689,-80.7876 98.1581,-79.6212 105.663,-87.0999 108.689,-80.7876"/>
</g>
<!-- Node3 -->
<g id="node5" class="node"><title>Node3</title>
<polygon fill="white" stroke="#bfbfbf" points="169.5,-58.5 169.5,-79.5 224.5,-79.5 224.5,-58.5 169.5,-58.5"/>
<text text-anchor="middle" x="197" y="-66.5" font-family="DejaVuSans" font-size="10.00">QObject</text>
</g>
<!-- Node1&#45;&gt;Node3 -->
<g id="edge4" class="edge"><title>Node1&#45;&gt;Node3</title>
<path fill="none" stroke="midnightblue" d="M197,-116.362C197,-108.922 197,-98.7427 197,-89.7276"/>
<polygon fill="midnightblue" stroke="midnightblue" points="200.5,-89.5706 197,-79.5707 193.5,-89.5707 200.5,-89.5706"/>
</g>
<!-- Node4 -->
<g id="node7" class="node"><title>Node4</title>
<a xlink:href="_read_xml_8h.html" target="_top" xlink:title="ReadXml.h">
<polygon fill="white" stroke="black" points="241.5,-58.5 241.5,-79.5 308.5,-79.5 308.5,-58.5 241.5,-58.5"/>
<text text-anchor="middle" x="275" y="-66.5" font-family="DejaVuSans" font-size="10.00">ReadXml.h</text>
</a>
</g>
<!-- Node1&#45;&gt;Node4 -->
<g id="edge6" class="edge"><title>Node1&#45;&gt;Node4</title>
<path fill="none" stroke="midnightblue" d="M211.306,-116.362C222.851,-107.777 239.3,-95.5459 252.59,-85.6636"/>
<polygon fill="midnightblue" stroke="midnightblue" points="254.848,-88.3463 260.784,-79.5707 250.671,-82.7291 254.848,-88.3463"/>
</g>
<!-- Node5 -->
<g id="node9" class="node"><title>Node5</title>
<polygon fill="white" stroke="#bfbfbf" points="209.5,-0.5 209.5,-21.5 248.5,-21.5 248.5,-0.5 209.5,-0.5"/>
<text text-anchor="middle" x="229" y="-8.5" font-family="DejaVuSans" font-size="10.00">QFile</text>
</g>
<!-- Node4&#45;&gt;Node5 -->
<g id="edge8" class="edge"><title>Node4&#45;&gt;Node5</title>
<path fill="none" stroke="midnightblue" d="M266.563,-58.3619C260.208,-50.3496 251.334,-39.1605 243.807,-29.6696"/>
<polygon fill="midnightblue" stroke="midnightblue" points="246.34,-27.2308 237.384,-21.5707 240.855,-31.5805 246.34,-27.2308"/>
</g>
<!-- Node6 -->
<g id="node11" class="node"><title>Node6</title>
<polygon fill="white" stroke="#bfbfbf" points="265.5,-0.5 265.5,-21.5 376.5,-21.5 376.5,-0.5 265.5,-0.5"/>
<text text-anchor="middle" x="321" y="-8.5" font-family="DejaVuSans" font-size="10.00">QXmlStreamReader</text>
</g>
<!-- Node4&#45;&gt;Node6 -->
<g id="edge10" class="edge"><title>Node4&#45;&gt;Node6</title>
<path fill="none" stroke="midnightblue" d="M283.437,-58.3619C289.792,-50.3496 298.666,-39.1605 306.193,-29.6696"/>
<polygon fill="midnightblue" stroke="midnightblue" points="309.145,-31.5805 312.616,-21.5707 303.66,-27.2308 309.145,-31.5805"/>
</g>
</g>
</svg>
