<?xml version="1.0" encoding="UTF-8" standalone="no"?>
<!DOCTYPE svg PUBLIC "-//W3C//DTD SVG 1.1//EN"
 "http://www.w3.org/Graphics/SVG/1.1/DTD/svg11.dtd">
<!-- Generated by graphviz version 2.26.3 (20100126.1600)
 -->
<!-- Title: G Pages: 1 -->
<svg width="452pt" height="88pt"
 viewBox="0.00 0.00 452.00 88.00" xmlns="http://www.w3.org/2000/svg" xmlns:xlink="http://www.w3.org/1999/xlink">
<g id="graph1" class="graph" transform="scale(1 1) rotate(0) translate(4 84)">
<title>G</title>
<polygon fill="white" stroke="white" points="-4,5 -4,-84 449,-84 449,5 -4,5"/>
<!-- Node1 -->
<g id="node1" class="node"><title>Node1</title>
<polygon fill="#bfbfbf" stroke="black" points="141.5,-58.5 141.5,-79.5 238.5,-79.5 238.5,-58.5 141.5,-58.5"/>
<text text-anchor="middle" x="190" y="-66.5" font-family="DejaVuSans" font-size="10.00">src/IO/ReadXml.h</text>
</g>
<!-- Node2 -->
<g id="node3" class="node"><title>Node2</title>
<polygon fill="white" stroke="#bfbfbf" points="-0.5,-0.5 -0.5,-21.5 38.5,-21.5 38.5,-0.5 -0.5,-0.5"/>
<text text-anchor="middle" x="19" y="-8.5" font-family="DejaVuSans" font-size="10.00">QFile</text>
</g>
<!-- Node1&#45;&gt;Node2 -->
<g id="edge2" class="edge"><title>Node1&#45;&gt;Node2</title>
<path fill="none" stroke="midnightblue" d="M156.01,-58.4273C128.965,-49.8821 89.9672,-37.2675 48.0784,-22.2766"/>
<polygon fill="midnightblue" stroke="midnightblue" points="49.1229,-18.9327 38.5285,-18.8353 46.7498,-25.5182 49.1229,-18.9327"/>
</g>
<!-- Node3 -->
<g id="node5" class="node"><title>Node3</title>
<polygon fill="white" stroke="#bfbfbf" points="55.5,-0.5 55.5,-21.5 186.5,-21.5 186.5,-0.5 55.5,-0.5"/>
<text text-anchor="middle" x="121" y="-8.5" font-family="DejaVuSans" font-size="10.00">Datatypes/cv_Species.h</text>
</g>
<!-- Node1&#45;&gt;Node3 -->
<g id="edge4" class="edge"><title>Node1&#45;&gt;Node3</title>
<path fill="none" stroke="midnightblue" d="M177.344,-58.3619C167.326,-49.9408 153.133,-38.0105 141.499,-28.2308"/>
<polygon fill="midnightblue" stroke="midnightblue" points="143.482,-25.326 133.575,-21.5707 138.978,-30.6844 143.482,-25.326"/>
</g>
<!-- Node4 -->
<g id="node7" class="node"><title>Node4</title>
<polygon fill="white" stroke="#bfbfbf" points="203.5,-0.5 203.5,-21.5 316.5,-21.5 316.5,-0.5 203.5,-0.5"/>
<text text-anchor="middle" x="260" y="-8.5" font-family="DejaVuSans" font-size="10.00">Datatypes/cv_Trait.h</text>
</g>
<!-- Node1&#45;&gt;Node4 -->
<g id="edge6" class="edge"><title>Node1&#45;&gt;Node4</title>
<path fill="none" stroke="midnightblue" d="M202.839,-58.3619C213.002,-49.9408 227.401,-38.0105 239.204,-28.2308"/>
<polygon fill="midnightblue" stroke="midnightblue" points="241.775,-30.6459 247.242,-21.5707 237.309,-25.2558 241.775,-30.6459"/>
</g>
<!-- Node5 -->
<g id="node9" class="node"><title>Node5</title>
<polygon fill="white" stroke="#bfbfbf" points="333.5,-0.5 333.5,-21.5 444.5,-21.5 444.5,-0.5 333.5,-0.5"/>
<text text-anchor="middle" x="389" y="-8.5" font-family="DejaVuSans" font-size="10.00">QXmlStreamReader</text>
</g>
<!-- Node1&#45;&gt;Node5 -->
<g id="edge8" class="edge"><title>Node1&#45;&gt;Node5</title>
<path fill="none" stroke="midnightblue" d="M226.037,-58.4966C258.901,-48.9183 307.617,-34.7196 343.224,-24.3418"/>
<polygon fill="midnightblue" stroke="midnightblue" points="344.274,-27.6815 352.895,-21.5231 342.315,-20.9611 344.274,-27.6815"/>
</g>
</g>
</svg>
