<?xml version="1.0" encoding="UTF-8" standalone="no"?>
<!DOCTYPE svg PUBLIC "-//W3C//DTD SVG 1.1//EN"
 "http://www.w3.org/Graphics/SVG/1.1/DTD/svg11.dtd">
<!-- Generated by graphviz version 2.26.3 (20100126.1600)
 -->
<!-- Title: G Pages: 1 -->
<svg width="360pt" height="146pt"
 viewBox="0.00 0.00 360.00 146.00" xmlns="http://www.w3.org/2000/svg" xmlns:xlink="http://www.w3.org/1999/xlink">
<g id="graph1" class="graph" transform="scale(1 1) rotate(0) translate(4 142)">
<title>G</title>
<polygon fill="white" stroke="white" points="-4,5 -4,-142 357,-142 357,5 -4,5"/>
<!-- Node1 -->
<g id="node1" class="node"><title>Node1</title>
<polygon fill="#bfbfbf" stroke="black" points="83,-116.5 83,-137.5 191,-137.5 191,-116.5 83,-116.5"/>
<text text-anchor="middle" x="137" y="-124.5" font-family="DejaVuSans" font-size="10.00">src/IO/ReadXml.cpp</text>
</g>
<!-- Node2 -->
<g id="node3" class="node"><title>Node2</title>
<polygon fill="white" stroke="#bfbfbf" points="0,-58.5 0,-79.5 56,-79.5 56,-58.5 0,-58.5"/>
<text text-anchor="middle" x="28" y="-66.5" font-family="DejaVuSans" font-size="10.00">QDebug</text>
</g>
<!-- Node1&#45;&gt;Node2 -->
<g id="edge2" class="edge"><title>Node1&#45;&gt;Node2</title>
<path fill="none" stroke="midnightblue" d="M117.261,-116.497C100.39,-107.519 75.8915,-94.4835 56.8262,-84.3387"/>
<polygon fill="midnightblue" stroke="midnightblue" points="58.4327,-81.2289 47.9606,-79.6212 55.1445,-87.4086 58.4327,-81.2289"/>
</g>
<!-- Node3 -->
<g id="node5" class="node"><title>Node3</title>
<polygon fill="white" stroke="#bfbfbf" points="73.5,-58.5 73.5,-79.5 200.5,-79.5 200.5,-58.5 73.5,-58.5"/>
<text text-anchor="middle" x="137" y="-66.5" font-family="DejaVuSans" font-size="10.00">Exceptions/Exception.h</text>
</g>
<!-- Node1&#45;&gt;Node3 -->
<g id="edge4" class="edge"><title>Node1&#45;&gt;Node3</title>
<path fill="none" stroke="midnightblue" d="M137,-116.362C137,-108.922 137,-98.7427 137,-89.7276"/>
<polygon fill="midnightblue" stroke="midnightblue" points="140.5,-89.5706 137,-79.5707 133.5,-89.5707 140.5,-89.5706"/>
</g>
<!-- Node4 -->
<g id="node7" class="node"><title>Node4</title>
<a xlink:href="_read_xml_8h.html" target="_top" xlink:title="ReadXml.h">
<polygon fill="white" stroke="black" points="217.5,-58.5 217.5,-79.5 284.5,-79.5 284.5,-58.5 217.5,-58.5"/>
<text text-anchor="middle" x="251" y="-66.5" font-family="DejaVuSans" font-size="10.00">ReadXml.h</text>
</a>
</g>
<!-- Node1&#45;&gt;Node4 -->
<g id="edge6" class="edge"><title>Node1&#45;&gt;Node4</title>
<path fill="none" stroke="midnightblue" d="M157.645,-116.497C175.37,-107.479 201.145,-94.3649 221.123,-84.2006"/>
<polygon fill="midnightblue" stroke="midnightblue" points="222.798,-87.2753 230.124,-79.6212 219.624,-81.0364 222.798,-87.2753"/>
</g>
<!-- Node5 -->
<g id="node9" class="node"><title>Node5</title>
<polygon fill="white" stroke="#bfbfbf" points="185.5,-0.5 185.5,-21.5 224.5,-21.5 224.5,-0.5 185.5,-0.5"/>
<text text-anchor="middle" x="205" y="-8.5" font-family="DejaVuSans" font-size="10.00">QFile</text>
</g>
<!-- Node4&#45;&gt;Node5 -->
<g id="edge8" class="edge"><title>Node4&#45;&gt;Node5</title>
<path fill="none" stroke="midnightblue" d="M242.563,-58.3619C236.208,-50.3496 227.334,-39.1605 219.807,-29.6696"/>
<polygon fill="midnightblue" stroke="midnightblue" points="222.34,-27.2308 213.384,-21.5707 216.855,-31.5805 222.34,-27.2308"/>
</g>
<!-- Node6 -->
<g id="node11" class="node"><title>Node6</title>
<polygon fill="white" stroke="#bfbfbf" points="241.5,-0.5 241.5,-21.5 352.5,-21.5 352.5,-0.5 241.5,-0.5"/>
<text text-anchor="middle" x="297" y="-8.5" font-family="DejaVuSans" font-size="10.00">QXmlStreamReader</text>
</g>
<!-- Node4&#45;&gt;Node6 -->
<g id="edge10" class="edge"><title>Node4&#45;&gt;Node6</title>
<path fill="none" stroke="midnightblue" d="M259.437,-58.3619C265.792,-50.3496 274.666,-39.1605 282.193,-29.6696"/>
<polygon fill="midnightblue" stroke="midnightblue" points="285.145,-31.5805 288.616,-21.5707 279.66,-27.2308 285.145,-31.5805"/>
</g>
</g>
</svg>
