<?xml version="1.0" encoding="UTF-8" standalone="no"?>
<!DOCTYPE svg PUBLIC "-//W3C//DTD SVG 1.1//EN"
 "http://www.w3.org/Graphics/SVG/1.1/DTD/svg11.dtd">
<!-- Generated by graphviz version 2.26.3 (20100126.1600)
 -->
<!-- Title: G Pages: 1 -->
<svg width="967pt" height="378pt"
 viewBox="0.00 0.00 966.91 378.00" xmlns="http://www.w3.org/2000/svg" xmlns:xlink="http://www.w3.org/1999/xlink">
<g id="graph1" class="graph" transform="scale(1 1) rotate(0) translate(4 374)">
<title>G</title>
<polygon fill="white" stroke="white" points="-4,5 -4,-374 963.914,-374 963.914,5 -4,5"/>
<!-- Node1 -->
<g id="node1" class="node"><title>Node1</title>
<polygon fill="#bfbfbf" stroke="black" points="527.414,-348.5 527.414,-369.5 670.414,-369.5 670.414,-348.5 527.414,-348.5"/>
<text text-anchor="middle" x="598.914" y="-356.5" font-family="DejaVuSans" font-size="10.00">src/IO/ReadXmlCharacter.h</text>
</g>
<!-- Node2 -->
<g id="node3" class="node"><title>Node2</title>
<polygon fill="white" stroke="#bfbfbf" points="626.414,-232.5 626.414,-253.5 665.414,-253.5 665.414,-232.5 626.414,-232.5"/>
<text text-anchor="middle" x="645.914" y="-240.5" font-family="DejaVuSans" font-size="10.00">QFile</text>
</g>
<!-- Node1&#45;&gt;Node2 -->
<g id="edge2" class="edge"><title>Node1&#45;&gt;Node2</title>
<path fill="none" stroke="midnightblue" d="M603.251,-348.295C611.086,-328.959 627.712,-287.923 637.739,-263.177"/>
<polygon fill="midnightblue" stroke="midnightblue" points="641.075,-264.262 641.587,-253.679 634.588,-261.633 641.075,-264.262"/>
</g>
<!-- Node3 -->
<g id="node5" class="node"><title>Node3</title>
<a xlink:href="_storage_template_8h.html" target="_top" xlink:title="../Storage/StorageTemplate.h">
<polygon fill="white" stroke="black" points="201.914,-232.5 201.914,-253.5 359.914,-253.5 359.914,-232.5 201.914,-232.5"/>
<text text-anchor="middle" x="280.914" y="-240.5" font-family="DejaVuSans" font-size="10.00">../Storage/StorageTemplate.h</text>
</a>
</g>
<!-- Node1&#45;&gt;Node3 -->
<g id="edge4" class="edge"><title>Node1&#45;&gt;Node3</title>
<path fill="none" stroke="midnightblue" d="M527.339,-355.982C451.033,-351.341 336.738,-339.846 303.914,-312 289.967,-300.168 284.439,-279.637 282.268,-264.037"/>
<polygon fill="midnightblue" stroke="midnightblue" points="285.715,-263.334 281.209,-253.745 278.751,-264.051 285.715,-263.334"/>
</g>
<!-- Node6 -->
<g id="node11" class="node"><title>Node6</title>
<a xlink:href="cv___trait_8h.html" target="_top" xlink:title="../Datatypes/cv_Trait.h">
<polygon fill="white" stroke="black" points="567.914,-174.5 567.914,-195.5 689.914,-195.5 689.914,-174.5 567.914,-174.5"/>
<text text-anchor="middle" x="628.914" y="-182.5" font-family="DejaVuSans" font-size="10.00">../Datatypes/cv_Trait.h</text>
</a>
</g>
<!-- Node1&#45;&gt;Node6 -->
<g id="edge86" class="edge"><title>Node1&#45;&gt;Node6</title>
<path fill="none" stroke="midnightblue" d="M600.201,-348.414C602.924,-326.562 609.696,-274.916 617.914,-232 619.58,-223.301 621.745,-213.774 623.713,-205.586"/>
<polygon fill="midnightblue" stroke="midnightblue" points="627.137,-206.321 626.129,-195.774 620.34,-204.647 627.137,-206.321"/>
</g>
<!-- Node9 -->
<g id="node19" class="node"><title>Node9</title>
<a xlink:href="cv___species_8h.html" target="_top" xlink:title="cv_Species.h">
<polygon fill="white" stroke="black" points="622.414,-58.5 622.414,-79.5 701.414,-79.5 701.414,-58.5 622.414,-58.5"/>
<text text-anchor="middle" x="661.914" y="-66.5" font-family="DejaVuSans" font-size="10.00">cv_Species.h</text>
</a>
</g>
<!-- Node1&#45;&gt;Node9 -->
<g id="edge84" class="edge"><title>Node1&#45;&gt;Node9</title>
<path fill="none" stroke="midnightblue" d="M670.469,-350.681C775.456,-336.451 958.914,-303.001 958.914,-243 958.914,-243 958.914,-243 958.914,-185 958.914,-139.706 924.169,-136.763 883.914,-116 829.228,-87.794 758.635,-76.5105 711.901,-71.9996"/>
<polygon fill="midnightblue" stroke="midnightblue" points="711.997,-68.4942 701.724,-71.0879 711.372,-75.4663 711.997,-68.4942"/>
</g>
<!-- Node16 -->
<g id="node47" class="node"><title>Node16</title>
<polygon fill="white" stroke="#bfbfbf" points="495.414,-174.5 495.414,-195.5 550.414,-195.5 550.414,-174.5 495.414,-174.5"/>
<text text-anchor="middle" x="522.914" y="-182.5" font-family="DejaVuSans" font-size="10.00">QObject</text>
</g>
<!-- Node1&#45;&gt;Node16 -->
<g id="edge88" class="edge"><title>Node1&#45;&gt;Node16</title>
<path fill="none" stroke="midnightblue" d="M594.274,-348.377C581.902,-320.051 547.963,-242.349 531.755,-205.242"/>
<polygon fill="midnightblue" stroke="midnightblue" points="534.897,-203.691 527.687,-195.928 528.482,-206.493 534.897,-203.691"/>
</g>
<!-- Node17 -->
<g id="node49" class="node"><title>Node17</title>
<a xlink:href="_storage_character_8h.html" target="_top" xlink:title="../Storage/StorageCharacter.h">
<polygon fill="white" stroke="black" points="312.414,-290.5 312.414,-311.5 473.414,-311.5 473.414,-290.5 312.414,-290.5"/>
<text text-anchor="middle" x="392.914" y="-298.5" font-family="DejaVuSans" font-size="10.00">../Storage/StorageCharacter.h</text>
</a>
</g>
<!-- Node1&#45;&gt;Node17 -->
<g id="edge64" class="edge"><title>Node1&#45;&gt;Node17</title>
<path fill="none" stroke="midnightblue" d="M561.609,-348.497C527.589,-338.918 477.159,-324.72 440.3,-314.342"/>
<polygon fill="midnightblue" stroke="midnightblue" points="440.863,-310.864 430.289,-311.523 438.966,-317.602 440.863,-310.864"/>
</g>
<!-- Node19 -->
<g id="node64" class="node"><title>Node19</title>
<a xlink:href="_read_xml_8h.html" target="_top" xlink:title="ReadXml.h">
<polygon fill="white" stroke="black" points="664.414,-290.5 664.414,-311.5 731.414,-311.5 731.414,-290.5 664.414,-290.5"/>
<text text-anchor="middle" x="697.914" y="-298.5" font-family="DejaVuSans" font-size="10.00">ReadXml.h</text>
</a>
</g>
<!-- Node1&#45;&gt;Node19 -->
<g id="edge90" class="edge"><title>Node1&#45;&gt;Node19</title>
<path fill="none" stroke="midnightblue" d="M617.072,-348.362C632.144,-339.532 653.801,-326.844 670.907,-316.822"/>
<polygon fill="midnightblue" stroke="midnightblue" points="673.012,-319.646 679.871,-311.571 669.473,-313.606 673.012,-319.646"/>
</g>
<!-- Node4 -->
<g id="node7" class="node"><title>Node4</title>
<polygon fill="white" stroke="#bfbfbf" points="268.414,-58.5 268.414,-79.5 309.414,-79.5 309.414,-58.5 268.414,-58.5"/>
<text text-anchor="middle" x="288.914" y="-66.5" font-family="DejaVuSans" font-size="10.00">QList</text>
</g>
<!-- Node3&#45;&gt;Node4 -->
<g id="edge6" class="edge"><title>Node3&#45;&gt;Node4</title>
<path fill="none" stroke="midnightblue" d="M281.132,-232.24C281.429,-218.662 282.027,-194.594 282.914,-174 284.172,-144.775 286.205,-111.007 287.551,-89.8271"/>
<polygon fill="midnightblue" stroke="midnightblue" points="291.051,-89.9313 288.201,-79.7271 284.066,-89.4815 291.051,-89.9313"/>
</g>
<!-- Node5 -->
<g id="node9" class="node"><title>Node5</title>
<polygon fill="white" stroke="#bfbfbf" points="4.41382,-0.5 4.41382,-21.5 73.4138,-21.5 73.4138,-0.5 4.41382,-0.5"/>
<text text-anchor="middle" x="38.9138" y="-8.5" font-family="DejaVuSans" font-size="10.00">QStringList</text>
</g>
<!-- Node3&#45;&gt;Node5 -->
<g id="edge8" class="edge"><title>Node3&#45;&gt;Node5</title>
<path fill="none" stroke="midnightblue" d="M201.719,-234.436C141.632,-226.696 65.0556,-213.785 38.9138,-196 6.52433,-173.965 -3.95812,-154.732 1.91382,-116 6.57319,-85.2666 19.9813,-51.7075 29.3067,-31.0029"/>
<polygon fill="midnightblue" stroke="midnightblue" points="32.5954,-32.2302 33.6218,-21.6852 26.2435,-29.2886 32.5954,-32.2302"/>
</g>
<!-- Node3&#45;&gt;Node6 -->
<g id="edge10" class="edge"><title>Node3&#45;&gt;Node6</title>
<path fill="none" stroke="midnightblue" d="M343.934,-232.497C404.141,-222.462 494.774,-207.357 557.598,-196.886"/>
<polygon fill="midnightblue" stroke="midnightblue" points="558.533,-200.279 567.822,-195.182 557.382,-193.374 558.533,-200.279"/>
</g>
<!-- Node12 -->
<g id="node32" class="node"><title>Node12</title>
<a xlink:href="cv___identity_list_8h.html" target="_top" xlink:title="../Datatypes/cv_IdentityList.h">
<polygon fill="white" stroke="black" points="47.4138,-174.5 47.4138,-195.5 202.414,-195.5 202.414,-174.5 47.4138,-174.5"/>
<text text-anchor="middle" x="124.914" y="-182.5" font-family="DejaVuSans" font-size="10.00">../Datatypes/cv_IdentityList.h</text>
</a>
</g>
<!-- Node3&#45;&gt;Node12 -->
<g id="edge40" class="edge"><title>Node3&#45;&gt;Node12</title>
<path fill="none" stroke="midnightblue" d="M252.663,-232.497C227.451,-223.123 190.338,-209.324 162.602,-199.012"/>
<polygon fill="midnightblue" stroke="midnightblue" points="163.81,-195.727 153.217,-195.523 161.371,-202.289 163.81,-195.727"/>
</g>
<!-- Node15 -->
<g id="node44" class="node"><title>Node15</title>
<a xlink:href="cv___super_effect_8h.html" target="_top" xlink:title="../Datatypes/cv_SuperEffect.h">
<polygon fill="white" stroke="black" points="436.914,-116.5 436.914,-137.5 594.914,-137.5 594.914,-116.5 436.914,-116.5"/>
<text text-anchor="middle" x="515.914" y="-124.5" font-family="DejaVuSans" font-size="10.00">../Datatypes/cv_SuperEffect.h</text>
</a>
</g>
<!-- Node3&#45;&gt;Node15 -->
<g id="edge58" class="edge"><title>Node3&#45;&gt;Node15</title>
<path fill="none" stroke="midnightblue" d="M280.479,-232.445C280.465,-217.27 282.83,-189.424 298.914,-174 309.385,-163.959 382.58,-149.474 441.109,-139.245"/>
<polygon fill="midnightblue" stroke="midnightblue" points="441.848,-142.669 451.104,-137.514 440.654,-135.771 441.848,-142.669"/>
</g>
<!-- Node3&#45;&gt;Node16 -->
<g id="edge62" class="edge"><title>Node3&#45;&gt;Node16</title>
<path fill="none" stroke="midnightblue" d="M331.959,-232.427C371.511,-223.992 427.876,-211.445 485.122,-196.369"/>
<polygon fill="midnightblue" stroke="midnightblue" points="486.297,-199.678 495.063,-193.727 484.499,-192.913 486.297,-199.678"/>
</g>
<!-- Node6&#45;&gt;Node4 -->
<g id="edge16" class="edge"><title>Node6&#45;&gt;Node4</title>
<path fill="none" stroke="midnightblue" d="M567.833,-175.383C564.818,-174.914 561.832,-174.451 558.914,-174 453.622,-157.73 407.515,-201.431 321.914,-138 306.224,-126.374 297.67,-105.335 293.232,-89.5342"/>
<polygon fill="midnightblue" stroke="midnightblue" points="296.577,-88.4802 290.779,-79.6123 289.781,-90.1601 296.577,-88.4802"/>
</g>
<!-- Node6&#45;&gt;Node5 -->
<g id="edge18" class="edge"><title>Node6&#45;&gt;Node5</title>
<path fill="none" stroke="midnightblue" d="M567.84,-175.339C564.822,-174.882 561.834,-174.433 558.914,-174 334.814,-140.76 220.842,-237.417 57.9138,-80 44.9711,-67.4951 40.5919,-47.052 39.2291,-31.6566"/>
<polygon fill="midnightblue" stroke="midnightblue" points="42.7164,-31.3244 38.6905,-21.5243 35.7263,-31.696 42.7164,-31.3244"/>
</g>
<!-- Node7 -->
<g id="node13" class="node"><title>Node7</title>
<polygon fill="white" stroke="#bfbfbf" points="806.414,-116.5 806.414,-137.5 855.414,-137.5 855.414,-116.5 806.414,-116.5"/>
<text text-anchor="middle" x="830.914" y="-124.5" font-family="DejaVuSans" font-size="10.00">QFlags</text>
</g>
<!-- Node6&#45;&gt;Node7 -->
<g id="edge12" class="edge"><title>Node6&#45;&gt;Node7</title>
<path fill="none" stroke="midnightblue" d="M665.723,-174.481C698.966,-164.975 749.226,-150.583 792.914,-138 794.139,-137.647 795.386,-137.288 796.646,-136.924"/>
<polygon fill="midnightblue" stroke="midnightblue" points="797.751,-140.248 806.387,-134.11 795.808,-133.523 797.751,-140.248"/>
</g>
<!-- Node8 -->
<g id="node15" class="node"><title>Node8</title>
<polygon fill="white" stroke="#bfbfbf" points="281.414,-0.5 281.414,-21.5 334.414,-21.5 334.414,-0.5 281.414,-0.5"/>
<text text-anchor="middle" x="307.914" y="-8.5" font-family="DejaVuSans" font-size="10.00">QString</text>
</g>
<!-- Node6&#45;&gt;Node8 -->
<g id="edge14" class="edge"><title>Node6&#45;&gt;Node8</title>
<path fill="none" stroke="midnightblue" d="M690.054,-181.352C752.198,-176.216 842.317,-164.344 863.914,-138 870.113,-130.438 869.477,-124.041 863.914,-116 804.357,-29.9291 458.694,-14.3956 344.509,-11.6065"/>
<polygon fill="midnightblue" stroke="midnightblue" points="344.584,-8.10737 334.507,-11.3808 344.426,-15.1056 344.584,-8.10737"/>
</g>
<!-- Node6&#45;&gt;Node9 -->
<g id="edge20" class="edge"><title>Node6&#45;&gt;Node9</title>
<path fill="none" stroke="midnightblue" d="M675.066,-174.415C708.582,-165.684 749.764,-152.425 759.914,-138 777.242,-113.373 743.663,-94.5398 711.194,-82.8194"/>
<polygon fill="midnightblue" stroke="midnightblue" points="712.256,-79.4836 701.661,-79.5578 709.99,-86.1066 712.256,-79.4836"/>
</g>
<!-- Node10 -->
<g id="node22" class="node"><title>Node10</title>
<a xlink:href="cv___trait_detail_8h.html" target="_top" xlink:title="cv_TraitDetail.h">
<polygon fill="white" stroke="black" points="330.414,-116.5 330.414,-137.5 419.414,-137.5 419.414,-116.5 330.414,-116.5"/>
<text text-anchor="middle" x="374.914" y="-124.5" font-family="DejaVuSans" font-size="10.00">cv_TraitDetail.h</text>
</a>
</g>
<!-- Node6&#45;&gt;Node10 -->
<g id="edge24" class="edge"><title>Node6&#45;&gt;Node10</title>
<path fill="none" stroke="midnightblue" d="M582.916,-174.497C539.854,-164.663 475.467,-149.961 429.751,-139.522"/>
<polygon fill="midnightblue" stroke="midnightblue" points="430.245,-136.045 419.716,-137.231 428.686,-142.869 430.245,-136.045"/>
</g>
<!-- Node11 -->
<g id="node28" class="node"><title>Node11</title>
<a xlink:href="cv___abstract_trait_8h.html" target="_top" xlink:title="cv_AbstractTrait.h">
<polygon fill="white" stroke="black" points="650.414,-116.5 650.414,-137.5 751.414,-137.5 751.414,-116.5 650.414,-116.5"/>
<text text-anchor="middle" x="700.914" y="-124.5" font-family="DejaVuSans" font-size="10.00">cv_AbstractTrait.h</text>
</a>
</g>
<!-- Node6&#45;&gt;Node11 -->
<g id="edge34" class="edge"><title>Node6&#45;&gt;Node11</title>
<path fill="none" stroke="midnightblue" d="M642.12,-174.362C652.675,-165.859 667.672,-153.779 679.877,-143.947"/>
<polygon fill="midnightblue" stroke="midnightblue" points="682.2,-146.57 687.792,-137.571 677.808,-141.118 682.2,-146.57"/>
</g>
<!-- Node9&#45;&gt;Node8 -->
<g id="edge22" class="edge"><title>Node9&#45;&gt;Node8</title>
<path fill="none" stroke="midnightblue" d="M622.336,-62.5155C553.319,-51.2076 411.917,-28.04 344.82,-17.0467"/>
<polygon fill="midnightblue" stroke="midnightblue" points="345.146,-13.5535 334.711,-15.3905 344.014,-20.4614 345.146,-13.5535"/>
</g>
<!-- Node10&#45;&gt;Node4 -->
<g id="edge28" class="edge"><title>Node10&#45;&gt;Node4</title>
<path fill="none" stroke="midnightblue" d="M359.14,-116.362C346.29,-107.696 327.929,-95.3126 313.204,-85.3819"/>
<polygon fill="midnightblue" stroke="midnightblue" points="314.835,-82.2604 304.588,-79.5707 310.921,-88.0639 314.835,-82.2604"/>
</g>
<!-- Node10&#45;&gt;Node5 -->
<g id="edge30" class="edge"><title>Node10&#45;&gt;Node5</title>
<path fill="none" stroke="midnightblue" d="M369.375,-116.324C360.679,-100.732 342.269,-72.0624 317.914,-58 278.818,-35.4268 152.025,-21.0386 83.6283,-14.7191"/>
<polygon fill="midnightblue" stroke="midnightblue" points="83.8511,-11.225 73.5763,-13.8096 83.2202,-18.1966 83.8511,-11.225"/>
</g>
<!-- Node10&#45;&gt;Node8 -->
<g id="edge26" class="edge"><title>Node10&#45;&gt;Node8</title>
<path fill="none" stroke="midnightblue" d="M372.584,-116.131C369.244,-102.018 362.22,-76.9527 350.914,-58 344.494,-47.2377 335.333,-36.7945 327.115,-28.4966"/>
<polygon fill="midnightblue" stroke="midnightblue" points="329.552,-25.9847 319.939,-21.5315 324.677,-31.0078 329.552,-25.9847"/>
</g>
<!-- Node10&#45;&gt;Node9 -->
<g id="edge32" class="edge"><title>Node10&#45;&gt;Node9</title>
<path fill="none" stroke="midnightblue" d="M419.443,-117.737C422.309,-117.147 425.152,-116.564 427.914,-116 491.457,-103.025 564.769,-88.3468 612.153,-78.8984"/>
<polygon fill="midnightblue" stroke="midnightblue" points="613.028,-82.293 622.151,-76.9058 611.659,-75.428 613.028,-82.293"/>
</g>
<!-- Node11&#45;&gt;Node8 -->
<g id="edge36" class="edge"><title>Node11&#45;&gt;Node8</title>
<path fill="none" stroke="midnightblue" d="M664.996,-116.398C590.435,-94.3904 419.568,-43.9566 344.465,-21.7887"/>
<polygon fill="midnightblue" stroke="midnightblue" points="345.105,-18.3284 334.524,-18.8543 343.124,-25.0421 345.105,-18.3284"/>
</g>
<!-- Node11&#45;&gt;Node9 -->
<g id="edge38" class="edge"><title>Node11&#45;&gt;Node9</title>
<path fill="none" stroke="midnightblue" d="M693.761,-116.362C688.428,-108.431 681.003,-97.3885 674.663,-87.9606"/>
<polygon fill="midnightblue" stroke="midnightblue" points="677.506,-85.9161 669.022,-79.5707 671.697,-89.8221 677.506,-85.9161"/>
</g>
<!-- Node12&#45;&gt;Node4 -->
<g id="edge56" class="edge"><title>Node12&#45;&gt;Node4</title>
<path fill="none" stroke="midnightblue" d="M130.25,-174.226C138.137,-159.29 154.231,-132.298 174.914,-116 199.778,-96.4065 233.955,-83.7667 258.39,-76.5847"/>
<polygon fill="midnightblue" stroke="midnightblue" points="259.523,-79.9021 268.21,-73.8365 257.636,-73.1611 259.523,-79.9021"/>
</g>
<!-- Node12&#45;&gt;Node8 -->
<g id="edge42" class="edge"><title>Node12&#45;&gt;Node8</title>
<path fill="none" stroke="midnightblue" d="M126.653,-174.163C129.439,-159.634 136.06,-133.633 149.914,-116 182.926,-73.9808 237.558,-43.0477 273.145,-26.0263"/>
<polygon fill="midnightblue" stroke="midnightblue" points="275.06,-28.9952 282.643,-21.5967 272.101,-22.6511 275.06,-28.9952"/>
</g>
<!-- Node13 -->
<g id="node35" class="node"><title>Node13</title>
<a xlink:href="cv___identity_8h.html" target="_top" xlink:title="cv_Identity.h">
<polygon fill="white" stroke="black" points="10.4138,-116.5 10.4138,-137.5 85.4138,-137.5 85.4138,-116.5 10.4138,-116.5"/>
<text text-anchor="middle" x="47.9138" y="-124.5" font-family="DejaVuSans" font-size="10.00">cv_Identity.h</text>
</a>
</g>
<!-- Node12&#45;&gt;Node13 -->
<g id="edge44" class="edge"><title>Node12&#45;&gt;Node13</title>
<path fill="none" stroke="midnightblue" d="M110.791,-174.362C99.394,-165.777 83.1557,-153.546 70.0361,-143.664"/>
<polygon fill="midnightblue" stroke="midnightblue" points="72.0406,-140.792 61.9473,-137.571 67.829,-146.383 72.0406,-140.792"/>
</g>
<!-- Node13&#45;&gt;Node5 -->
<g id="edge46" class="edge"><title>Node13&#45;&gt;Node5</title>
<path fill="none" stroke="midnightblue" d="M40.9306,-116.327C35.3559,-107.13 27.9879,-93.2753 24.9138,-80 21.1344,-63.6784 25.4151,-45.0549 30.2086,-31.273"/>
<polygon fill="midnightblue" stroke="midnightblue" points="33.5303,-32.386 33.8491,-21.796 26.9959,-29.8758 33.5303,-32.386"/>
</g>
<!-- Node13&#45;&gt;Node8 -->
<g id="edge48" class="edge"><title>Node13&#45;&gt;Node8</title>
<path fill="none" stroke="midnightblue" d="M70.5698,-116.337C90.4842,-106.916 120.214,-92.7343 145.914,-80 165.149,-70.4688 169.352,-66.8422 188.914,-58 216.189,-45.6714 247.721,-33.2996 271.471,-24.3459"/>
<polygon fill="midnightblue" stroke="midnightblue" points="273,-27.511 281.139,-20.7279 270.546,-20.955 273,-27.511"/>
</g>
<!-- Node14 -->
<g id="node39" class="node"><title>Node14</title>
<a xlink:href="cv___name_8h.html" target="_top" xlink:title="cv_Name.h">
<polygon fill="white" stroke="black" points="66.4138,-58.5 66.4138,-79.5 137.414,-79.5 137.414,-58.5 66.4138,-58.5"/>
<text text-anchor="middle" x="101.914" y="-66.5" font-family="DejaVuSans" font-size="10.00">cv_Name.h</text>
</a>
</g>
<!-- Node13&#45;&gt;Node14 -->
<g id="edge50" class="edge"><title>Node13&#45;&gt;Node14</title>
<path fill="none" stroke="midnightblue" d="M57.8183,-116.362C65.4302,-108.186 76.1218,-96.7025 85.0708,-87.0907"/>
<polygon fill="midnightblue" stroke="midnightblue" points="87.8196,-89.2746 92.0722,-79.5707 82.6963,-84.5046 87.8196,-89.2746"/>
</g>
<!-- Node14&#45;&gt;Node5 -->
<g id="edge52" class="edge"><title>Node14&#45;&gt;Node5</title>
<path fill="none" stroke="midnightblue" d="M90.3586,-58.3619C81.3004,-50.0226 68.5041,-38.2418 57.9401,-28.5162"/>
<polygon fill="midnightblue" stroke="midnightblue" points="60.1233,-25.7688 50.3957,-21.5707 55.3822,-30.9187 60.1233,-25.7688"/>
</g>
<!-- Node14&#45;&gt;Node8 -->
<g id="edge54" class="edge"><title>Node14&#45;&gt;Node8</title>
<path fill="none" stroke="midnightblue" d="M137.796,-58.8972C175.202,-48.3655 233.525,-31.9444 271.227,-21.3293"/>
<polygon fill="midnightblue" stroke="midnightblue" points="272.603,-24.5782 281.28,-18.4989 270.705,-17.8401 272.603,-24.5782"/>
</g>
<!-- Node15&#45;&gt;Node9 -->
<g id="edge60" class="edge"><title>Node15&#45;&gt;Node9</title>
<path fill="none" stroke="midnightblue" d="M542.353,-116.497C565.67,-107.234 599.864,-93.6499 625.718,-83.3793"/>
<polygon fill="midnightblue" stroke="midnightblue" points="627.176,-86.566 635.178,-79.6212 624.592,-80.0605 627.176,-86.566"/>
</g>
<!-- Node17&#45;&gt;Node3 -->
<g id="edge80" class="edge"><title>Node17&#45;&gt;Node3</title>
<path fill="none" stroke="midnightblue" d="M372.631,-290.497C355.296,-281.519 330.123,-268.484 310.533,-258.339"/>
<polygon fill="midnightblue" stroke="midnightblue" points="311.913,-255.112 301.424,-253.621 308.694,-261.328 311.913,-255.112"/>
</g>
<!-- Node17&#45;&gt;Node6 -->
<g id="edge70" class="edge"><title>Node17&#45;&gt;Node6</title>
<path fill="none" stroke="midnightblue" d="M414.693,-290.295C456.949,-269.525 550.142,-223.718 598.486,-199.956"/>
<polygon fill="midnightblue" stroke="midnightblue" points="600.097,-203.064 607.528,-195.512 597.01,-196.782 600.097,-203.064"/>
</g>
<!-- Node17&#45;&gt;Node12 -->
<g id="edge68" class="edge"><title>Node17&#45;&gt;Node12</title>
<path fill="none" stroke="midnightblue" d="M312.236,-292.553C274.201,-286.01 229.299,-274.436 192.914,-254 170.643,-241.491 150.864,-219.539 138.458,-203.751"/>
<polygon fill="midnightblue" stroke="midnightblue" points="141.19,-201.562 132.356,-195.713 135.615,-205.794 141.19,-201.562"/>
</g>
<!-- Node17&#45;&gt;Node13 -->
<g id="edge66" class="edge"><title>Node17&#45;&gt;Node13</title>
<path fill="none" stroke="midnightblue" d="M318.852,-290.475C224.229,-275.225 69.0361,-243.507 38.9138,-196 29.752,-181.551 33.4818,-161.971 38.6433,-147.359"/>
<polygon fill="midnightblue" stroke="midnightblue" points="42.0257,-148.327 42.4908,-137.743 35.5266,-145.727 42.0257,-148.327"/>
</g>
<!-- Node17&#45;&gt;Node16 -->
<g id="edge82" class="edge"><title>Node17&#45;&gt;Node16</title>
<path fill="none" stroke="midnightblue" d="M404.911,-290.295C427.355,-270.268 475.885,-226.964 503.202,-202.589"/>
<polygon fill="midnightblue" stroke="midnightblue" points="505.815,-204.949 510.946,-195.679 501.154,-199.726 505.815,-204.949"/>
</g>
<!-- Node18 -->
<g id="node54" class="node"><title>Node18</title>
<a xlink:href="cv___derangement_8h.html" target="_top" xlink:title="../Datatypes/cv_Derangement.h">
<polygon fill="white" stroke="black" points="307.914,-174.5 307.914,-195.5 477.914,-195.5 477.914,-174.5 307.914,-174.5"/>
<text text-anchor="middle" x="392.914" y="-182.5" font-family="DejaVuSans" font-size="10.00">../Datatypes/cv_Derangement.h</text>
</a>
</g>
<!-- Node17&#45;&gt;Node18 -->
<g id="edge72" class="edge"><title>Node17&#45;&gt;Node18</title>
<path fill="none" stroke="midnightblue" d="M392.914,-290.295C392.914,-271.131 392.914,-230.654 392.914,-205.843"/>
<polygon fill="midnightblue" stroke="midnightblue" points="396.414,-205.679 392.914,-195.679 389.414,-205.679 396.414,-205.679"/>
</g>
<!-- Node18&#45;&gt;Node8 -->
<g id="edge74" class="edge"><title>Node18&#45;&gt;Node8</title>
<path fill="none" stroke="midnightblue" d="M363.797,-174.404C344.528,-166.418 319.486,-154.089 300.914,-138 277.054,-117.33 269.474,-110.086 259.914,-80 256.953,-70.6814 256.125,-67.0137 259.914,-58 264.878,-46.1918 274.417,-35.8648 283.693,-27.9215"/>
<polygon fill="midnightblue" stroke="midnightblue" points="286.014,-30.5466 291.654,-21.5773 281.652,-25.0721 286.014,-30.5466"/>
</g>
<!-- Node18&#45;&gt;Node9 -->
<g id="edge76" class="edge"><title>Node18&#45;&gt;Node9</title>
<path fill="none" stroke="midnightblue" d="M462.271,-174.478C514.261,-165.684 580.333,-152.312 603.914,-138 623.966,-125.83 640.421,-104.257 650.616,-88.4635"/>
<polygon fill="midnightblue" stroke="midnightblue" points="653.865,-89.8624 656.131,-79.5128 647.905,-86.1902 653.865,-89.8624"/>
</g>
<!-- Node18&#45;&gt;Node11 -->
<g id="edge78" class="edge"><title>Node18&#45;&gt;Node11</title>
<path fill="none" stroke="midnightblue" d="M448.69,-174.497C502.79,-164.309 584.645,-148.895 640.322,-138.41"/>
<polygon fill="midnightblue" stroke="midnightblue" points="641.221,-141.802 650.401,-136.512 639.926,-134.923 641.221,-141.802"/>
</g>
<!-- Node19&#45;&gt;Node2 -->
<g id="edge92" class="edge"><title>Node19&#45;&gt;Node2</title>
<path fill="none" stroke="midnightblue" d="M688.376,-290.362C681.046,-282.186 670.751,-270.702 662.133,-261.091"/>
<polygon fill="midnightblue" stroke="midnightblue" points="664.672,-258.68 655.391,-253.571 659.46,-263.353 664.672,-258.68"/>
</g>
<!-- Node19&#45;&gt;Node6 -->
<g id="edge96" class="edge"><title>Node19&#45;&gt;Node6</title>
<path fill="none" stroke="midnightblue" d="M695.65,-290.091C692.381,-275.935 685.434,-250.823 673.914,-232 667.322,-221.229 657.907,-210.904 649.391,-202.688"/>
<polygon fill="midnightblue" stroke="midnightblue" points="651.647,-200.007 641.93,-195.784 646.893,-205.144 651.647,-200.007"/>
</g>
<!-- Node19&#45;&gt;Node9 -->
<g id="edge94" class="edge"><title>Node19&#45;&gt;Node9</title>
<path fill="none" stroke="midnightblue" d="M731.573,-293.932C768.786,-285.44 825.407,-270.29 839.914,-254 881.317,-207.51 902.626,-164.754 863.914,-116 845.246,-92.4896 765.19,-79.6657 711.641,-73.5817"/>
<polygon fill="midnightblue" stroke="midnightblue" points="711.962,-70.0961 701.641,-72.4883 711.201,-77.0546 711.962,-70.0961"/>
</g>
<!-- Node20 -->
<g id="node69" class="node"><title>Node20</title>
<polygon fill="white" stroke="#bfbfbf" points="720.414,-232.5 720.414,-253.5 831.414,-253.5 831.414,-232.5 720.414,-232.5"/>
<text text-anchor="middle" x="775.914" y="-240.5" font-family="DejaVuSans" font-size="10.00">QXmlStreamReader</text>
</g>
<!-- Node19&#45;&gt;Node20 -->
<g id="edge98" class="edge"><title>Node19&#45;&gt;Node20</title>
<path fill="none" stroke="midnightblue" d="M712.22,-290.362C723.765,-281.777 740.214,-269.546 753.504,-259.664"/>
<polygon fill="midnightblue" stroke="midnightblue" points="755.762,-262.346 761.698,-253.571 751.585,-256.729 755.762,-262.346"/>
</g>
</g>
</svg>
