<?xml version="1.0" encoding="UTF-8" standalone="no"?>
<!DOCTYPE svg PUBLIC "-//W3C//DTD SVG 1.1//EN"
 "http://www.w3.org/Graphics/SVG/1.1/DTD/svg11.dtd">
<!-- Generated by graphviz version 2.26.3 (20100126.1600)
 -->
<!-- Title: G Pages: 1 -->
<svg width="542pt" height="320pt"
 viewBox="0.00 0.00 542.00 320.00" xmlns="http://www.w3.org/2000/svg" xmlns:xlink="http://www.w3.org/1999/xlink">
<g id="graph1" class="graph" transform="scale(1 1) rotate(0) translate(4 316)">
<title>G</title>
<polygon fill="white" stroke="white" points="-4,5 -4,-316 539,-316 539,5 -4,5"/>
<!-- Node1 -->
<g id="node1" class="node"><title>Node1</title>
<polygon fill="#bfbfbf" stroke="black" points="216,-290.5 216,-311.5 350,-311.5 350,-290.5 216,-290.5"/>
<text text-anchor="middle" x="283" y="-298.5" font-family="DejaVuSans" font-size="10.00">src/IO/ReadTemplate.cpp</text>
</g>
<!-- Node2 -->
<g id="node3" class="node"><title>Node2</title>
<polygon fill="white" stroke="#bfbfbf" points="97,-232.5 97,-253.5 153,-253.5 153,-232.5 97,-232.5"/>
<text text-anchor="middle" x="125" y="-240.5" font-family="DejaVuSans" font-size="10.00">QDebug</text>
</g>
<!-- Node1&#45;&gt;Node2 -->
<g id="edge2" class="edge"><title>Node1&#45;&gt;Node2</title>
<path fill="none" stroke="midnightblue" d="M254.387,-290.497C228.693,-281.065 190.794,-267.152 162.647,-256.82"/>
<polygon fill="midnightblue" stroke="midnightblue" points="163.728,-253.488 153.134,-253.328 161.315,-260.059 163.728,-253.488"/>
</g>
<!-- Node3 -->
<g id="node5" class="node"><title>Node3</title>
<a xlink:href="_exception_8h_source.html" target="_top" xlink:title="../Exceptions/Exception.h">
<polygon fill="white" stroke="black" points="281,-232.5 281,-253.5 417,-253.5 417,-232.5 281,-232.5"/>
<text text-anchor="middle" x="349" y="-240.5" font-family="DejaVuSans" font-size="10.00">../Exceptions/Exception.h</text>
</a>
</g>
<!-- Node1&#45;&gt;Node3 -->
<g id="edge4" class="edge"><title>Node1&#45;&gt;Node3</title>
<path fill="none" stroke="midnightblue" d="M295.105,-290.362C304.688,-281.941 318.264,-270.011 329.393,-260.231"/>
<polygon fill="midnightblue" stroke="midnightblue" points="331.77,-262.801 336.971,-253.571 327.149,-257.543 331.77,-262.801"/>
</g>
<!-- Node11 -->
<g id="node27" class="node"><title>Node11</title>
<a xlink:href="_config_8h.html" target="_top" xlink:title="../Config/Config.h">
<polygon fill="white" stroke="black" points="435,-232.5 435,-253.5 533,-253.5 533,-232.5 435,-232.5"/>
<text text-anchor="middle" x="484" y="-240.5" font-family="DejaVuSans" font-size="10.00">../Config/Config.h</text>
</a>
</g>
<!-- Node1&#45;&gt;Node11 -->
<g id="edge32" class="edge"><title>Node1&#45;&gt;Node11</title>
<path fill="none" stroke="midnightblue" d="M319.4,-290.497C352.594,-280.918 401.799,-266.72 437.764,-256.342"/>
<polygon fill="midnightblue" stroke="midnightblue" points="438.895,-259.658 447.532,-253.523 436.954,-252.933 438.895,-259.658"/>
</g>
<!-- Node13 -->
<g id="node32" class="node"><title>Node13</title>
<a xlink:href="_read_template_8h.html" target="_top" xlink:title="ReadTemplate.h">
<polygon fill="white" stroke="black" points="171,-232.5 171,-253.5 263,-253.5 263,-232.5 171,-232.5"/>
<text text-anchor="middle" x="217" y="-240.5" font-family="DejaVuSans" font-size="10.00">ReadTemplate.h</text>
</a>
</g>
<!-- Node1&#45;&gt;Node13 -->
<g id="edge38" class="edge"><title>Node1&#45;&gt;Node13</title>
<path fill="none" stroke="midnightblue" d="M270.895,-290.362C261.312,-281.941 247.736,-270.011 236.607,-260.231"/>
<polygon fill="midnightblue" stroke="midnightblue" points="238.851,-257.543 229.029,-253.571 234.23,-262.801 238.851,-257.543"/>
</g>
<!-- Node4 -->
<g id="node7" class="node"><title>Node4</title>
<polygon fill="white" stroke="#bfbfbf" points="317.5,-0.5 317.5,-21.5 370.5,-21.5 370.5,-0.5 317.5,-0.5"/>
<text text-anchor="middle" x="344" y="-8.5" font-family="DejaVuSans" font-size="10.00">QString</text>
</g>
<!-- Node3&#45;&gt;Node4 -->
<g id="edge6" class="edge"><title>Node3&#45;&gt;Node4</title>
<path fill="none" stroke="midnightblue" d="M356.03,-232.177C374.012,-203.045 418.452,-120.923 392,-58 387.036,-46.1918 377.497,-35.8648 368.221,-27.9215"/>
<polygon fill="midnightblue" stroke="midnightblue" points="370.262,-25.0721 360.26,-21.5773 365.899,-30.5466 370.262,-25.0721"/>
</g>
<!-- Node5 -->
<g id="node9" class="node"><title>Node5</title>
<a xlink:href="cv___trait_8h.html" target="_top" xlink:title="../Datatypes/cv_Trait.h">
<polygon fill="white" stroke="black" points="184,-174.5 184,-195.5 306,-195.5 306,-174.5 184,-174.5"/>
<text text-anchor="middle" x="245" y="-182.5" font-family="DejaVuSans" font-size="10.00">../Datatypes/cv_Trait.h</text>
</a>
</g>
<!-- Node3&#45;&gt;Node5 -->
<g id="edge8" class="edge"><title>Node3&#45;&gt;Node5</title>
<path fill="none" stroke="midnightblue" d="M329.925,-232.362C313.945,-223.45 290.919,-210.609 272.873,-200.545"/>
<polygon fill="midnightblue" stroke="midnightblue" points="274.393,-197.385 263.954,-195.571 270.983,-203.498 274.393,-197.385"/>
</g>
<!-- Node5&#45;&gt;Node4 -->
<g id="edge12" class="edge"><title>Node5&#45;&gt;Node4</title>
<path fill="none" stroke="midnightblue" d="M196.439,-174.427C160.714,-165.655 116.319,-152.335 104,-138 80.6463,-110.824 71.1229,-85.5788 94,-58 120.654,-25.8681 244.294,-15.5619 307.129,-12.3691"/>
<polygon fill="midnightblue" stroke="midnightblue" points="307.569,-15.8523 317.393,-11.8836 307.239,-8.86012 307.569,-15.8523"/>
</g>
<!-- Node6 -->
<g id="node11" class="node"><title>Node6</title>
<polygon fill="white" stroke="#bfbfbf" points="123.5,-116.5 123.5,-137.5 172.5,-137.5 172.5,-116.5 123.5,-116.5"/>
<text text-anchor="middle" x="148" y="-124.5" font-family="DejaVuSans" font-size="10.00">QFlags</text>
</g>
<!-- Node5&#45;&gt;Node6 -->
<g id="edge10" class="edge"><title>Node5&#45;&gt;Node6</title>
<path fill="none" stroke="midnightblue" d="M227.209,-174.362C212.441,-165.532 191.222,-152.844 174.462,-142.822"/>
<polygon fill="midnightblue" stroke="midnightblue" points="176.057,-139.699 165.679,-137.571 172.465,-145.707 176.057,-139.699"/>
</g>
<!-- Node7 -->
<g id="node14" class="node"><title>Node7</title>
<polygon fill="white" stroke="#bfbfbf" points="102.5,-58.5 102.5,-79.5 143.5,-79.5 143.5,-58.5 102.5,-58.5"/>
<text text-anchor="middle" x="123" y="-66.5" font-family="DejaVuSans" font-size="10.00">QList</text>
</g>
<!-- Node5&#45;&gt;Node7 -->
<g id="edge14" class="edge"><title>Node5&#45;&gt;Node7</title>
<path fill="none" stroke="midnightblue" d="M199.536,-174.457C166.212,-165.702 125.099,-152.389 115,-138 105.189,-124.02 108.682,-104.39 113.761,-89.6407"/>
<polygon fill="midnightblue" stroke="midnightblue" points="117.183,-90.5013 117.572,-79.9137 110.665,-87.9474 117.183,-90.5013"/>
</g>
<!-- Node8 -->
<g id="node16" class="node"><title>Node8</title>
<polygon fill="white" stroke="#bfbfbf" points="171.5,-58.5 171.5,-79.5 240.5,-79.5 240.5,-58.5 171.5,-58.5"/>
<text text-anchor="middle" x="206" y="-66.5" font-family="DejaVuSans" font-size="10.00">QStringList</text>
</g>
<!-- Node5&#45;&gt;Node8 -->
<g id="edge16" class="edge"><title>Node5&#45;&gt;Node8</title>
<path fill="none" stroke="midnightblue" d="M237.757,-174.268C231.852,-165.034 223.741,-151.16 219,-138 213.328,-122.254 210.001,-103.551 208.135,-89.5917"/>
<polygon fill="midnightblue" stroke="midnightblue" points="211.598,-89.0741 206.934,-79.5608 204.647,-89.9058 211.598,-89.0741"/>
</g>
<!-- Node9 -->
<g id="node18" class="node"><title>Node9</title>
<a xlink:href="cv___species_8h.html" target="_top" xlink:title="cv_Species.h">
<polygon fill="white" stroke="black" points="304.5,-58.5 304.5,-79.5 383.5,-79.5 383.5,-58.5 304.5,-58.5"/>
<text text-anchor="middle" x="344" y="-66.5" font-family="DejaVuSans" font-size="10.00">cv_Species.h</text>
</a>
</g>
<!-- Node5&#45;&gt;Node9 -->
<g id="edge18" class="edge"><title>Node5&#45;&gt;Node9</title>
<path fill="none" stroke="midnightblue" d="M274.019,-174.478C291.196,-166.842 312.062,-154.874 325,-138 335.604,-124.171 340.292,-104.785 342.363,-90.0812"/>
<polygon fill="midnightblue" stroke="midnightblue" points="345.866,-90.2446 343.492,-79.9194 338.909,-89.4718 345.866,-90.2446"/>
</g>
<!-- Node10 -->
<g id="node21" class="node"><title>Node10</title>
<a xlink:href="cv___trait_detail_8h.html" target="_top" xlink:title="cv_TraitDetail.h">
<polygon fill="white" stroke="black" points="227.5,-116.5 227.5,-137.5 316.5,-137.5 316.5,-116.5 227.5,-116.5"/>
<text text-anchor="middle" x="272" y="-124.5" font-family="DejaVuSans" font-size="10.00">cv_TraitDetail.h</text>
</a>
</g>
<!-- Node5&#45;&gt;Node10 -->
<g id="edge22" class="edge"><title>Node5&#45;&gt;Node10</title>
<path fill="none" stroke="midnightblue" d="M249.952,-174.362C253.53,-166.677 258.468,-156.069 262.764,-146.84"/>
<polygon fill="midnightblue" stroke="midnightblue" points="266.032,-148.114 267.079,-137.571 259.686,-145.159 266.032,-148.114"/>
</g>
<!-- Node9&#45;&gt;Node4 -->
<g id="edge20" class="edge"><title>Node9&#45;&gt;Node4</title>
<path fill="none" stroke="midnightblue" d="M344,-58.3619C344,-50.9219 344,-40.7427 344,-31.7276"/>
<polygon fill="midnightblue" stroke="midnightblue" points="347.5,-31.5706 344,-21.5707 340.5,-31.5707 347.5,-31.5706"/>
</g>
<!-- Node10&#45;&gt;Node4 -->
<g id="edge24" class="edge"><title>Node10&#45;&gt;Node4</title>
<path fill="none" stroke="midnightblue" d="M274.171,-116.033C277.339,-101.814 284.178,-76.635 296,-58 303.055,-46.879 313.226,-36.4242 322.39,-28.2117"/>
<polygon fill="midnightblue" stroke="midnightblue" points="324.772,-30.7798 330.082,-21.6114 320.213,-25.4676 324.772,-30.7798"/>
</g>
<!-- Node10&#45;&gt;Node7 -->
<g id="edge26" class="edge"><title>Node10&#45;&gt;Node7</title>
<path fill="none" stroke="midnightblue" d="M245.017,-116.497C219.139,-106.423 180.133,-91.2396 153.223,-80.7646"/>
<polygon fill="midnightblue" stroke="midnightblue" points="154.143,-77.3668 143.554,-77.0009 151.603,-83.8901 154.143,-77.3668"/>
</g>
<!-- Node10&#45;&gt;Node8 -->
<g id="edge28" class="edge"><title>Node10&#45;&gt;Node8</title>
<path fill="none" stroke="midnightblue" d="M259.895,-116.362C250.312,-107.941 236.736,-96.0105 225.607,-86.2308"/>
<polygon fill="midnightblue" stroke="midnightblue" points="227.851,-83.5427 218.029,-79.5707 223.23,-88.8009 227.851,-83.5427"/>
</g>
<!-- Node10&#45;&gt;Node9 -->
<g id="edge30" class="edge"><title>Node10&#45;&gt;Node9</title>
<path fill="none" stroke="midnightblue" d="M285.206,-116.362C295.761,-107.859 310.758,-95.7785 322.963,-85.9466"/>
<polygon fill="midnightblue" stroke="midnightblue" points="325.286,-88.5696 330.878,-79.5707 320.895,-83.1183 325.286,-88.5696"/>
</g>
<!-- Node11&#45;&gt;Node4 -->
<g id="edge34" class="edge"><title>Node11&#45;&gt;Node4</title>
<path fill="none" stroke="midnightblue" d="M481.864,-232.346C475.4,-202.236 453.693,-115.001 409,-58 399.251,-45.5661 385.375,-34.9214 372.946,-26.9224"/>
<polygon fill="midnightblue" stroke="midnightblue" points="374.586,-23.8221 364.231,-21.5778 370.926,-29.7893 374.586,-23.8221"/>
</g>
<!-- Node12 -->
<g id="node30" class="node"><title>Node12</title>
<polygon fill="white" stroke="#bfbfbf" points="485.5,-174.5 485.5,-195.5 534.5,-195.5 534.5,-174.5 485.5,-174.5"/>
<text text-anchor="middle" x="510" y="-182.5" font-family="DejaVuSans" font-size="10.00">QColor</text>
</g>
<!-- Node11&#45;&gt;Node12 -->
<g id="edge36" class="edge"><title>Node11&#45;&gt;Node12</title>
<path fill="none" stroke="midnightblue" d="M488.769,-232.362C492.214,-224.677 496.969,-214.069 501.106,-204.84"/>
<polygon fill="midnightblue" stroke="midnightblue" points="504.365,-206.127 505.261,-195.571 497.977,-203.264 504.365,-206.127"/>
</g>
<!-- Node13&#45;&gt;Node5 -->
<g id="edge44" class="edge"><title>Node13&#45;&gt;Node5</title>
<path fill="none" stroke="midnightblue" d="M222.136,-232.362C225.846,-224.677 230.967,-214.069 235.422,-204.84"/>
<polygon fill="midnightblue" stroke="midnightblue" points="238.701,-206.098 239.897,-195.571 232.397,-203.055 238.701,-206.098"/>
</g>
<!-- Node13&#45;&gt;Node9 -->
<g id="edge42" class="edge"><title>Node13&#45;&gt;Node9</title>
<path fill="none" stroke="midnightblue" d="M252.614,-232.378C272.898,-224.871 297.647,-213.07 315,-196 335.546,-175.789 337.378,-166.049 344,-138 347.735,-122.177 347.51,-103.738 346.474,-89.9039"/>
<polygon fill="midnightblue" stroke="midnightblue" points="349.957,-89.5597 345.529,-79.9345 342.988,-90.2202 349.957,-89.5597"/>
</g>
<!-- Node14 -->
<g id="node34" class="node"><title>Node14</title>
<polygon fill="white" stroke="#bfbfbf" points="127.5,-174.5 127.5,-195.5 166.5,-195.5 166.5,-174.5 127.5,-174.5"/>
<text text-anchor="middle" x="147" y="-182.5" font-family="DejaVuSans" font-size="10.00">QFile</text>
</g>
<!-- Node13&#45;&gt;Node14 -->
<g id="edge40" class="edge"><title>Node13&#45;&gt;Node14</title>
<path fill="none" stroke="midnightblue" d="M204.161,-232.362C193.998,-223.941 179.599,-212.011 167.796,-202.231"/>
<polygon fill="midnightblue" stroke="midnightblue" points="169.691,-199.256 159.758,-195.571 165.225,-204.646 169.691,-199.256"/>
</g>
<!-- Node15 -->
<g id="node38" class="node"><title>Node15</title>
<polygon fill="white" stroke="#bfbfbf" points="-0.5,-174.5 -0.5,-195.5 110.5,-195.5 110.5,-174.5 -0.5,-174.5"/>
<text text-anchor="middle" x="55" y="-182.5" font-family="DejaVuSans" font-size="10.00">QXmlStreamReader</text>
</g>
<!-- Node13&#45;&gt;Node15 -->
<g id="edge46" class="edge"><title>Node13&#45;&gt;Node15</title>
<path fill="none" stroke="midnightblue" d="M187.663,-232.497C161.481,-223.123 122.94,-209.324 94.1375,-199.012"/>
<polygon fill="midnightblue" stroke="midnightblue" points="94.9866,-195.599 84.392,-195.523 92.627,-202.189 94.9866,-195.599"/>
</g>
</g>
</svg>
