<?xml version="1.0" encoding="UTF-8" standalone="no"?>
<!DOCTYPE svg PUBLIC "-//W3C//DTD SVG 1.1//EN"
 "http://www.w3.org/Graphics/SVG/1.1/DTD/svg11.dtd">
<!-- Generated by graphviz version 2.26.3 (20100126.1600)
 -->
<!-- Title: G Pages: 1 -->
<svg width="1223pt" height="378pt"
 viewBox="0.00 0.00 1223.00 378.00" xmlns="http://www.w3.org/2000/svg" xmlns:xlink="http://www.w3.org/1999/xlink">
<g id="graph1" class="graph" transform="scale(1 1) rotate(0) translate(4 374)">
<title>G</title>
<polygon fill="white" stroke="white" points="-4,5 -4,-374 1220,-374 1220,5 -4,5"/>
<!-- Node1 -->
<g id="node1" class="node"><title>Node1</title>
<polygon fill="#bfbfbf" stroke="black" points="158,-348.5 158,-369.5 310,-369.5 310,-348.5 158,-348.5"/>
<text text-anchor="middle" x="234" y="-356.5" font-family="DejaVuSans" font-size="10.00">src/IO/ReadXmlTemplate.cpp</text>
</g>
<!-- Node2 -->
<g id="node3" class="node"><title>Node2</title>
<polygon fill="white" stroke="#bfbfbf" points="54,-290.5 54,-311.5 110,-311.5 110,-290.5 54,-290.5"/>
<text text-anchor="middle" x="82" y="-298.5" font-family="DejaVuSans" font-size="10.00">QDebug</text>
</g>
<!-- Node1&#45;&gt;Node2 -->
<g id="edge2" class="edge"><title>Node1&#45;&gt;Node2</title>
<path fill="none" stroke="midnightblue" d="M206.474,-348.497C182.016,-339.164 146.062,-325.445 119.076,-315.147"/>
<polygon fill="midnightblue" stroke="midnightblue" points="120.168,-311.818 109.578,-311.523 117.673,-318.358 120.168,-311.818"/>
</g>
<!-- Node3 -->
<g id="node5" class="node"><title>Node3</title>
<a xlink:href="cv___super_effect_8h.html" target="_top" xlink:title="../Datatypes/cv_SuperEffect.h">
<polygon fill="white" stroke="black" points="337,-174.5 337,-195.5 495,-195.5 495,-174.5 337,-174.5"/>
<text text-anchor="middle" x="416" y="-182.5" font-family="DejaVuSans" font-size="10.00">../Datatypes/cv_SuperEffect.h</text>
</a>
</g>
<!-- Node1&#45;&gt;Node3 -->
<g id="edge4" class="edge"><title>Node1&#45;&gt;Node3</title>
<path fill="none" stroke="midnightblue" d="M245.111,-348.377C275.373,-319.446 359.511,-239.006 397.256,-202.92"/>
<polygon fill="midnightblue" stroke="midnightblue" points="399.76,-205.368 404.57,-195.928 394.923,-200.308 399.76,-205.368"/>
</g>
<!-- Node6 -->
<g id="node11" class="node"><title>Node6</title>
<a xlink:href="_exception_8h_source.html" target="_top" xlink:title="../Exceptions/Exception.h">
<polygon fill="white" stroke="black" points="166,-232.5 166,-253.5 302,-253.5 302,-232.5 166,-232.5"/>
<text text-anchor="middle" x="234" y="-240.5" font-family="DejaVuSans" font-size="10.00">../Exceptions/Exception.h</text>
</a>
</g>
<!-- Node1&#45;&gt;Node6 -->
<g id="edge10" class="edge"><title>Node1&#45;&gt;Node6</title>
<path fill="none" stroke="midnightblue" d="M234,-348.295C234,-329.131 234,-288.654 234,-263.843"/>
<polygon fill="midnightblue" stroke="midnightblue" points="237.5,-263.679 234,-253.679 230.5,-263.679 237.5,-263.679"/>
</g>
<!-- Node16 -->
<g id="node45" class="node"><title>Node16</title>
<a xlink:href="_config_8h.html" target="_top" xlink:title="../Config/Config.h">
<polygon fill="white" stroke="black" points="89,-174.5 89,-195.5 187,-195.5 187,-174.5 89,-174.5"/>
<text text-anchor="middle" x="138" y="-182.5" font-family="DejaVuSans" font-size="10.00">../Config/Config.h</text>
</a>
</g>
<!-- Node1&#45;&gt;Node16 -->
<g id="edge66" class="edge"><title>Node1&#45;&gt;Node16</title>
<path fill="none" stroke="midnightblue" d="M223.985,-348.231C207.664,-330.126 175.316,-291.847 157,-254 149.569,-238.645 144.643,-219.913 141.674,-205.843"/>
<polygon fill="midnightblue" stroke="midnightblue" points="145.048,-204.86 139.701,-195.713 138.177,-206.198 145.048,-204.86"/>
</g>
<!-- Node19 -->
<g id="node53" class="node"><title>Node19</title>
<a xlink:href="_read_xml_template_8h.html" target="_top" xlink:title="ReadXmlTemplate.h">
<polygon fill="white" stroke="black" points="629,-290.5 629,-311.5 739,-311.5 739,-290.5 629,-290.5"/>
<text text-anchor="middle" x="684" y="-298.5" font-family="DejaVuSans" font-size="10.00">ReadXmlTemplate.h</text>
</a>
</g>
<!-- Node1&#45;&gt;Node19 -->
<g id="edge68" class="edge"><title>Node1&#45;&gt;Node19</title>
<path fill="none" stroke="midnightblue" d="M310.082,-349.194C396.813,-338.015 537.125,-319.931 618.963,-309.383"/>
<polygon fill="midnightblue" stroke="midnightblue" points="619.419,-312.853 628.89,-308.103 618.525,-305.91 619.419,-312.853"/>
</g>
<!-- Node4 -->
<g id="node7" class="node"><title>Node4</title>
<a xlink:href="cv___species_8h.html" target="_top" xlink:title="cv_Species.h">
<polygon fill="white" stroke="black" points="463.5,-58.5 463.5,-79.5 542.5,-79.5 542.5,-58.5 463.5,-58.5"/>
<text text-anchor="middle" x="503" y="-66.5" font-family="DejaVuSans" font-size="10.00">cv_Species.h</text>
</a>
</g>
<!-- Node3&#45;&gt;Node4 -->
<g id="edge6" class="edge"><title>Node3&#45;&gt;Node4</title>
<path fill="none" stroke="midnightblue" d="M424.029,-174.295C438.79,-154.613 470.412,-112.45 488.85,-87.8668"/>
<polygon fill="midnightblue" stroke="midnightblue" points="491.791,-89.7792 494.991,-79.6792 486.191,-85.5792 491.791,-89.7792"/>
</g>
<!-- Node5 -->
<g id="node9" class="node"><title>Node5</title>
<polygon fill="white" stroke="#bfbfbf" points="514.5,-0.5 514.5,-21.5 567.5,-21.5 567.5,-0.5 514.5,-0.5"/>
<text text-anchor="middle" x="541" y="-8.5" font-family="DejaVuSans" font-size="10.00">QString</text>
</g>
<!-- Node4&#45;&gt;Node5 -->
<g id="edge8" class="edge"><title>Node4&#45;&gt;Node5</title>
<path fill="none" stroke="midnightblue" d="M509.97,-58.3619C515.166,-50.4313 522.401,-39.3885 528.578,-29.9606"/>
<polygon fill="midnightblue" stroke="midnightblue" points="531.522,-31.8534 534.074,-21.5707 525.666,-28.0172 531.522,-31.8534"/>
</g>
<!-- Node6&#45;&gt;Node5 -->
<g id="edge12" class="edge"><title>Node6&#45;&gt;Node5</title>
<path fill="none" stroke="midnightblue" d="M237.576,-232.377C246.918,-205.126 272.539,-133.639 290,-116 349.971,-55.4171 450.126,-28.0697 504.006,-17.206"/>
<polygon fill="midnightblue" stroke="midnightblue" points="504.984,-20.5817 514.139,-15.2481 503.656,-13.7088 504.984,-20.5817"/>
</g>
<!-- Node7 -->
<g id="node14" class="node"><title>Node7</title>
<a xlink:href="cv___trait_8h.html" target="_top" xlink:title="../Datatypes/cv_Trait.h">
<polygon fill="white" stroke="black" points="551,-174.5 551,-195.5 673,-195.5 673,-174.5 551,-174.5"/>
<text text-anchor="middle" x="612" y="-182.5" font-family="DejaVuSans" font-size="10.00">../Datatypes/cv_Trait.h</text>
</a>
</g>
<!-- Node6&#45;&gt;Node7 -->
<g id="edge14" class="edge"><title>Node6&#45;&gt;Node7</title>
<path fill="none" stroke="midnightblue" d="M302.015,-232.564C369.34,-222.233 472,-206.482 540.51,-195.969"/>
<polygon fill="midnightblue" stroke="midnightblue" points="541.428,-199.37 550.781,-194.393 540.366,-192.451 541.428,-199.37"/>
</g>
<!-- Node13 -->
<g id="node34" class="node"><title>Node13</title>
<a xlink:href="cv___shape_8h.html" target="_top" xlink:title="../Datatypes/cv_Shape.h">
<polygon fill="white" stroke="black" points="166,-58.5 166,-79.5 300,-79.5 300,-58.5 166,-58.5"/>
<text text-anchor="middle" x="233" y="-66.5" font-family="DejaVuSans" font-size="10.00">../Datatypes/cv_Shape.h</text>
</a>
</g>
<!-- Node6&#45;&gt;Node13 -->
<g id="edge42" class="edge"><title>Node6&#45;&gt;Node13</title>
<path fill="none" stroke="midnightblue" d="M233.939,-232.377C233.778,-204.293 233.337,-127.673 233.122,-90.2027"/>
<polygon fill="midnightblue" stroke="midnightblue" points="236.62,-89.9074 233.063,-79.9277 229.62,-89.9477 236.62,-89.9074"/>
</g>
<!-- Node14 -->
<g id="node37" class="node"><title>Node14</title>
<a xlink:href="cv___identity_8h.html" target="_top" xlink:title="../Datatypes/cv_Identity.h">
<polygon fill="white" stroke="black" points="930.5,-116.5 930.5,-137.5 1067.5,-137.5 1067.5,-116.5 930.5,-116.5"/>
<text text-anchor="middle" x="999" y="-124.5" font-family="DejaVuSans" font-size="10.00">../Datatypes/cv_Identity.h</text>
</a>
</g>
<!-- Node6&#45;&gt;Node14 -->
<g id="edge46" class="edge"><title>Node6&#45;&gt;Node14</title>
<path fill="none" stroke="midnightblue" d="M302.026,-240.441C500.002,-232.833 1062.74,-210.019 1076,-196 1094.89,-176.023 1063.61,-155.248 1035.43,-141.782"/>
<polygon fill="midnightblue" stroke="midnightblue" points="1036.62,-138.478 1026.07,-137.508 1033.71,-144.846 1036.62,-138.478"/>
</g>
<!-- Node6&#45;&gt;Node16 -->
<g id="edge58" class="edge"><title>Node6&#45;&gt;Node16</title>
<path fill="none" stroke="midnightblue" d="M216.392,-232.362C201.777,-223.532 180.776,-210.844 164.189,-200.822"/>
<polygon fill="midnightblue" stroke="midnightblue" points="165.865,-197.746 155.496,-195.571 162.246,-203.738 165.865,-197.746"/>
</g>
<!-- Node7&#45;&gt;Node4 -->
<g id="edge24" class="edge"><title>Node7&#45;&gt;Node4</title>
<path fill="none" stroke="midnightblue" d="M601.007,-174.334C591.374,-164.912 577.067,-150.729 565,-138 549.069,-121.195 531.476,-101.501 519.113,-87.4648"/>
<polygon fill="midnightblue" stroke="midnightblue" points="521.717,-85.1258 512.49,-79.9185 516.455,-89.7432 521.717,-85.1258"/>
</g>
<!-- Node7&#45;&gt;Node5 -->
<g id="edge18" class="edge"><title>Node7&#45;&gt;Node5</title>
<path fill="none" stroke="midnightblue" d="M607.666,-174.377C596.107,-146.051 564.401,-68.3488 549.26,-31.2424"/>
<polygon fill="midnightblue" stroke="midnightblue" points="552.478,-29.8642 545.459,-21.9277 545.997,-32.5089 552.478,-29.8642"/>
</g>
<!-- Node8 -->
<g id="node16" class="node"><title>Node8</title>
<polygon fill="white" stroke="#bfbfbf" points="712.5,-116.5 712.5,-137.5 761.5,-137.5 761.5,-116.5 712.5,-116.5"/>
<text text-anchor="middle" x="737" y="-124.5" font-family="DejaVuSans" font-size="10.00">QFlags</text>
</g>
<!-- Node7&#45;&gt;Node8 -->
<g id="edge16" class="edge"><title>Node7&#45;&gt;Node8</title>
<path fill="none" stroke="midnightblue" d="M634.637,-174.497C654.248,-165.397 682.846,-152.127 704.833,-141.925"/>
<polygon fill="midnightblue" stroke="midnightblue" points="706.512,-145.005 714.109,-137.621 703.565,-138.655 706.512,-145.005"/>
</g>
<!-- Node9 -->
<g id="node19" class="node"><title>Node9</title>
<polygon fill="white" stroke="#bfbfbf" points="787.5,-58.5 787.5,-79.5 828.5,-79.5 828.5,-58.5 787.5,-58.5"/>
<text text-anchor="middle" x="808" y="-66.5" font-family="DejaVuSans" font-size="10.00">QList</text>
</g>
<!-- Node7&#45;&gt;Node9 -->
<g id="edge20" class="edge"><title>Node7&#45;&gt;Node9</title>
<path fill="none" stroke="midnightblue" d="M662.237,-174.426C701.914,-165.289 753.287,-151.467 770,-138 785.574,-125.451 795.755,-104.72 801.623,-89.2522"/>
<polygon fill="midnightblue" stroke="midnightblue" points="805.019,-90.1442 805.009,-79.5493 798.41,-87.8376 805.019,-90.1442"/>
</g>
<!-- Node10 -->
<g id="node21" class="node"><title>Node10</title>
<polygon fill="white" stroke="#bfbfbf" points="1022.5,-0.5 1022.5,-21.5 1091.5,-21.5 1091.5,-0.5 1022.5,-0.5"/>
<text text-anchor="middle" x="1057" y="-8.5" font-family="DejaVuSans" font-size="10.00">QStringList</text>
</g>
<!-- Node7&#45;&gt;Node10 -->
<g id="edge22" class="edge"><title>Node7&#45;&gt;Node10</title>
<path fill="none" stroke="midnightblue" d="M673.051,-175.168C676.074,-174.756 679.07,-174.364 682,-174 725.625,-168.585 1046.36,-170.468 1076,-138 1102.77,-108.67 1083.09,-58.6702 1068.64,-30.9644"/>
<polygon fill="midnightblue" stroke="midnightblue" points="1071.52,-28.9362 1063.65,-21.8452 1065.38,-32.2975 1071.52,-28.9362"/>
</g>
<!-- Node11 -->
<g id="node24" class="node"><title>Node11</title>
<a xlink:href="cv___trait_detail_8h.html" target="_top" xlink:title="cv_TraitDetail.h">
<polygon fill="white" stroke="black" points="606.5,-116.5 606.5,-137.5 695.5,-137.5 695.5,-116.5 606.5,-116.5"/>
<text text-anchor="middle" x="651" y="-124.5" font-family="DejaVuSans" font-size="10.00">cv_TraitDetail.h</text>
</a>
</g>
<!-- Node7&#45;&gt;Node11 -->
<g id="edge26" class="edge"><title>Node7&#45;&gt;Node11</title>
<path fill="none" stroke="midnightblue" d="M619.153,-174.362C624.486,-166.431 631.911,-155.389 638.251,-145.961"/>
<polygon fill="midnightblue" stroke="midnightblue" points="641.217,-147.822 643.892,-137.571 635.408,-143.916 641.217,-147.822"/>
</g>
<!-- Node12 -->
<g id="node30" class="node"><title>Node12</title>
<a xlink:href="cv___abstract_trait_8h.html" target="_top" xlink:title="cv_AbstractTrait.h">
<polygon fill="white" stroke="black" points="298.5,-116.5 298.5,-137.5 399.5,-137.5 399.5,-116.5 298.5,-116.5"/>
<text text-anchor="middle" x="349" y="-124.5" font-family="DejaVuSans" font-size="10.00">cv_AbstractTrait.h</text>
</a>
</g>
<!-- Node7&#45;&gt;Node12 -->
<g id="edge36" class="edge"><title>Node7&#45;&gt;Node12</title>
<path fill="none" stroke="midnightblue" d="M564.373,-174.497C520.012,-164.714 453.795,-150.111 406.506,-139.682"/>
<polygon fill="midnightblue" stroke="midnightblue" points="407.236,-136.259 396.717,-137.523 405.728,-143.095 407.236,-136.259"/>
</g>
<!-- Node11&#45;&gt;Node4 -->
<g id="edge34" class="edge"><title>Node11&#45;&gt;Node4</title>
<path fill="none" stroke="midnightblue" d="M624.198,-116.497C600.562,-107.234 565.9,-93.6499 539.692,-83.3793"/>
<polygon fill="midnightblue" stroke="midnightblue" points="540.69,-80.0113 530.102,-79.6212 538.136,-86.5287 540.69,-80.0113"/>
</g>
<!-- Node11&#45;&gt;Node5 -->
<g id="edge28" class="edge"><title>Node11&#45;&gt;Node5</title>
<path fill="none" stroke="midnightblue" d="M642.779,-116.329C631.906,-102.431 611.905,-77.5969 593,-58 583.099,-47.7368 571.366,-37.0211 561.553,-28.4178"/>
<polygon fill="midnightblue" stroke="midnightblue" points="563.696,-25.6432 553.845,-21.7442 559.114,-30.9356 563.696,-25.6432"/>
</g>
<!-- Node11&#45;&gt;Node9 -->
<g id="edge30" class="edge"><title>Node11&#45;&gt;Node9</title>
<path fill="none" stroke="midnightblue" d="M679.432,-116.497C707.256,-106.218 749.483,-90.6178 777.874,-80.1293"/>
<polygon fill="midnightblue" stroke="midnightblue" points="779.126,-83.3982 787.293,-76.6496 776.7,-76.8319 779.126,-83.3982"/>
</g>
<!-- Node11&#45;&gt;Node10 -->
<g id="edge32" class="edge"><title>Node11&#45;&gt;Node10</title>
<path fill="none" stroke="midnightblue" d="M666.783,-116.271C690.202,-100.88 736.024,-72.7656 779,-58 858.369,-30.7305 956.119,-18.9061 1012.03,-14.0701"/>
<polygon fill="midnightblue" stroke="midnightblue" points="1012.63,-17.5329 1022.3,-13.2199 1012.05,-10.5568 1012.63,-17.5329"/>
</g>
<!-- Node12&#45;&gt;Node4 -->
<g id="edge40" class="edge"><title>Node12&#45;&gt;Node4</title>
<path fill="none" stroke="midnightblue" d="M376.888,-116.497C401.668,-107.164 438.095,-93.4447 465.436,-83.1475"/>
<polygon fill="midnightblue" stroke="midnightblue" points="466.935,-86.3231 475.059,-79.5231 464.468,-79.7723 466.935,-86.3231"/>
</g>
<!-- Node12&#45;&gt;Node5 -->
<g id="edge38" class="edge"><title>Node12&#45;&gt;Node5</title>
<path fill="none" stroke="midnightblue" d="M364.564,-116.329C385.019,-102.431 422.202,-77.5978 455,-58 473.437,-46.9836 494.6,-35.4043 511.32,-26.4955"/>
<polygon fill="midnightblue" stroke="midnightblue" points="513.397,-29.3562 520.596,-21.5832 510.121,-23.1701 513.397,-29.3562"/>
</g>
<!-- Node13&#45;&gt;Node5 -->
<g id="edge44" class="edge"><title>Node13&#45;&gt;Node5</title>
<path fill="none" stroke="midnightblue" d="M288.776,-58.4966C351.346,-46.714 451.044,-27.9398 504.428,-17.887"/>
<polygon fill="midnightblue" stroke="midnightblue" points="505.282,-21.2876 514.462,-15.9974 503.987,-14.4085 505.282,-21.2876"/>
</g>
<!-- Node14&#45;&gt;Node5 -->
<g id="edge50" class="edge"><title>Node14&#45;&gt;Node5</title>
<path fill="none" stroke="midnightblue" d="M988.822,-116.463C972.964,-100.776 940.669,-71.6671 907,-58 847.777,-33.9595 658.513,-18.8411 577.912,-13.3419"/>
<polygon fill="midnightblue" stroke="midnightblue" points="577.946,-9.83637 567.734,-12.6594 577.478,-16.8207 577.946,-9.83637"/>
</g>
<!-- Node14&#45;&gt;Node10 -->
<g id="edge48" class="edge"><title>Node14&#45;&gt;Node10</title>
<path fill="none" stroke="midnightblue" d="M1010.09,-116.392C1018.84,-107.449 1030.74,-93.9143 1038,-80 1045.89,-64.8739 1050.78,-46.1257 1053.62,-31.9914"/>
<polygon fill="midnightblue" stroke="midnightblue" points="1057.13,-32.268 1055.48,-21.8025 1050.24,-31.0131 1057.13,-32.268"/>
</g>
<!-- Node15 -->
<g id="node41" class="node"><title>Node15</title>
<a xlink:href="cv___name_8h.html" target="_top" xlink:title="cv_Name.h">
<polygon fill="white" stroke="black" points="958.5,-58.5 958.5,-79.5 1029.5,-79.5 1029.5,-58.5 958.5,-58.5"/>
<text text-anchor="middle" x="994" y="-66.5" font-family="DejaVuSans" font-size="10.00">cv_Name.h</text>
</a>
</g>
<!-- Node14&#45;&gt;Node15 -->
<g id="edge52" class="edge"><title>Node14&#45;&gt;Node15</title>
<path fill="none" stroke="midnightblue" d="M998.083,-116.362C997.442,-108.922 996.564,-98.7427 995.787,-89.7276"/>
<polygon fill="midnightblue" stroke="midnightblue" points="999.257,-89.2331 994.911,-79.5707 992.283,-89.8343 999.257,-89.2331"/>
</g>
<!-- Node15&#45;&gt;Node5 -->
<g id="edge56" class="edge"><title>Node15&#45;&gt;Node5</title>
<path fill="none" stroke="midnightblue" d="M958.492,-60.5688C953.965,-59.6296 949.384,-58.7449 945,-58 810.584,-35.1586 649.102,-20.0355 577.851,-13.9819"/>
<polygon fill="midnightblue" stroke="midnightblue" points="577.865,-10.4709 567.607,-13.1215 577.279,-17.4463 577.865,-10.4709"/>
</g>
<!-- Node15&#45;&gt;Node10 -->
<g id="edge54" class="edge"><title>Node15&#45;&gt;Node10</title>
<path fill="none" stroke="midnightblue" d="M1005.56,-58.3619C1014.61,-50.0226 1027.41,-38.2418 1037.97,-28.5162"/>
<polygon fill="midnightblue" stroke="midnightblue" points="1040.53,-30.9187 1045.52,-21.5707 1035.79,-25.7688 1040.53,-30.9187"/>
</g>
<!-- Node16&#45;&gt;Node5 -->
<g id="edge60" class="edge"><title>Node16&#45;&gt;Node5</title>
<path fill="none" stroke="midnightblue" d="M135.808,-174.261C131.491,-149.724 124.893,-89.2601 157,-58 181.649,-34.0007 412.813,-18.3109 504.138,-13.0025"/>
<polygon fill="midnightblue" stroke="midnightblue" points="504.523,-16.4863 514.307,-12.4209 504.123,-9.49772 504.523,-16.4863"/>
</g>
<!-- Node17 -->
<g id="node48" class="node"><title>Node17</title>
<polygon fill="white" stroke="#bfbfbf" points="-0.5,-116.5 -0.5,-137.5 48.5,-137.5 48.5,-116.5 -0.5,-116.5"/>
<text text-anchor="middle" x="24" y="-124.5" font-family="DejaVuSans" font-size="10.00">QColor</text>
</g>
<!-- Node16&#45;&gt;Node17 -->
<g id="edge62" class="edge"><title>Node16&#45;&gt;Node17</title>
<path fill="none" stroke="midnightblue" d="M117.355,-174.497C99.6303,-165.479 73.8552,-152.365 53.877,-142.201"/>
<polygon fill="midnightblue" stroke="midnightblue" points="55.3761,-139.036 44.8762,-137.621 52.2019,-145.275 55.3761,-139.036"/>
</g>
<!-- Node18 -->
<g id="node50" class="node"><title>Node18</title>
<polygon fill="white" stroke="#bfbfbf" points="65.5,-116.5 65.5,-137.5 110.5,-137.5 110.5,-116.5 65.5,-116.5"/>
<text text-anchor="middle" x="88" y="-124.5" font-family="DejaVuSans" font-size="10.00">QFont</text>
</g>
<!-- Node16&#45;&gt;Node18 -->
<g id="edge64" class="edge"><title>Node16&#45;&gt;Node18</title>
<path fill="none" stroke="midnightblue" d="M128.829,-174.362C121.852,-166.268 112.079,-154.932 103.844,-145.38"/>
<polygon fill="midnightblue" stroke="midnightblue" points="106.293,-142.859 97.1126,-137.571 100.991,-147.43 106.293,-142.859"/>
</g>
<!-- Node19&#45;&gt;Node4 -->
<g id="edge92" class="edge"><title>Node19&#45;&gt;Node4</title>
<path fill="none" stroke="midnightblue" d="M628.944,-292.862C538.332,-278.219 364.173,-244.383 328,-196 322.145,-188.169 322.691,-182.211 328,-174 349.17,-141.258 374.271,-157.559 408,-138 434.914,-122.393 463.503,-100.87 482.204,-86.0322"/>
<polygon fill="midnightblue" stroke="midnightblue" points="484.449,-88.7184 490.059,-79.7307 480.068,-83.2582 484.449,-88.7184"/>
</g>
<!-- Node19&#45;&gt;Node7 -->
<g id="edge94" class="edge"><title>Node19&#45;&gt;Node7</title>
<path fill="none" stroke="midnightblue" d="M672.546,-290.245C663.408,-281.216 650.736,-267.638 642,-254 632.231,-238.749 624.243,-219.777 618.973,-205.588"/>
<polygon fill="midnightblue" stroke="midnightblue" points="622.143,-204.056 615.489,-195.812 615.549,-206.407 622.143,-204.056"/>
</g>
<!-- Node20 -->
<g id="node55" class="node"><title>Node20</title>
<polygon fill="white" stroke="#bfbfbf" points="818.5,-174.5 818.5,-195.5 857.5,-195.5 857.5,-174.5 818.5,-174.5"/>
<text text-anchor="middle" x="838" y="-182.5" font-family="DejaVuSans" font-size="10.00">QFile</text>
</g>
<!-- Node19&#45;&gt;Node20 -->
<g id="edge70" class="edge"><title>Node19&#45;&gt;Node20</title>
<path fill="none" stroke="midnightblue" d="M698.212,-290.295C725.028,-270.096 783.283,-226.216 815.48,-201.963"/>
<polygon fill="midnightblue" stroke="midnightblue" points="817.941,-204.491 823.822,-195.679 813.729,-198.9 817.941,-204.491"/>
</g>
<!-- Node21 -->
<g id="node57" class="node"><title>Node21</title>
<a xlink:href="_storage_template_8h.html" target="_top" xlink:title="../Storage/StorageTemplate.h">
<polygon fill="white" stroke="black" points="806,-232.5 806,-253.5 964,-253.5 964,-232.5 806,-232.5"/>
<text text-anchor="middle" x="885" y="-240.5" font-family="DejaVuSans" font-size="10.00">../Storage/StorageTemplate.h</text>
</a>
</g>
<!-- Node19&#45;&gt;Node21 -->
<g id="edge72" class="edge"><title>Node19&#45;&gt;Node21</title>
<path fill="none" stroke="midnightblue" d="M720.4,-290.497C753.594,-280.918 802.799,-266.72 838.764,-256.342"/>
<polygon fill="midnightblue" stroke="midnightblue" points="839.895,-259.658 848.532,-253.523 837.954,-252.933 839.895,-259.658"/>
</g>
<!-- Node23 -->
<g id="node68" class="node"><title>Node23</title>
<polygon fill="white" stroke="#bfbfbf" points="1160.5,-174.5 1160.5,-195.5 1215.5,-195.5 1215.5,-174.5 1160.5,-174.5"/>
<text text-anchor="middle" x="1188" y="-182.5" font-family="DejaVuSans" font-size="10.00">QObject</text>
</g>
<!-- Node19&#45;&gt;Node23 -->
<g id="edge96" class="edge"><title>Node19&#45;&gt;Node23</title>
<path fill="none" stroke="midnightblue" d="M739.082,-294.531C797.594,-287.081 892.561,-273.334 973,-254 1036.34,-238.776 1108.04,-214.242 1150.56,-198.9"/>
<polygon fill="midnightblue" stroke="midnightblue" points="1152,-202.101 1160.21,-195.397 1149.61,-195.521 1152,-202.101"/>
</g>
<!-- Node24 -->
<g id="node73" class="node"><title>Node24</title>
<a xlink:href="_read_xml_8h.html" target="_top" xlink:title="ReadXml.h">
<polygon fill="white" stroke="black" points="650.5,-232.5 650.5,-253.5 717.5,-253.5 717.5,-232.5 650.5,-232.5"/>
<text text-anchor="middle" x="684" y="-240.5" font-family="DejaVuSans" font-size="10.00">ReadXml.h</text>
</a>
</g>
<!-- Node19&#45;&gt;Node24 -->
<g id="edge98" class="edge"><title>Node19&#45;&gt;Node24</title>
<path fill="none" stroke="midnightblue" d="M684,-290.362C684,-282.922 684,-272.743 684,-263.728"/>
<polygon fill="midnightblue" stroke="midnightblue" points="687.5,-263.571 684,-253.571 680.5,-263.571 687.5,-263.571"/>
</g>
<!-- Node21&#45;&gt;Node3 -->
<g id="edge88" class="edge"><title>Node21&#45;&gt;Node3</title>
<path fill="none" stroke="midnightblue" d="M805.971,-233.227C722.852,-222.948 592.303,-206.803 505.458,-196.063"/>
<polygon fill="midnightblue" stroke="midnightblue" points="505.707,-192.567 495.353,-194.813 504.848,-199.514 505.707,-192.567"/>
</g>
<!-- Node21&#45;&gt;Node7 -->
<g id="edge78" class="edge"><title>Node21&#45;&gt;Node7</title>
<path fill="none" stroke="midnightblue" d="M835.562,-232.497C789.418,-222.693 720.492,-208.05 671.384,-197.616"/>
<polygon fill="midnightblue" stroke="midnightblue" points="672.04,-194.178 661.531,-195.523 670.585,-201.025 672.04,-194.178"/>
</g>
<!-- Node21&#45;&gt;Node9 -->
<g id="edge74" class="edge"><title>Node21&#45;&gt;Node9</title>
<path fill="none" stroke="midnightblue" d="M882.91,-232.46C880.001,-218.704 874.153,-194.023 866,-174 853.254,-142.697 833.358,-108.883 820.5,-88.3226"/>
<polygon fill="midnightblue" stroke="midnightblue" points="823.289,-86.1847 814.978,-79.6143 817.378,-89.9337 823.289,-86.1847"/>
</g>
<!-- Node21&#45;&gt;Node10 -->
<g id="edge76" class="edge"><title>Node21&#45;&gt;Node10</title>
<path fill="none" stroke="midnightblue" d="M948.931,-232.459C1006.22,-222.382 1082.64,-207.12 1092,-196 1131.52,-149.043 1118.19,-115.599 1097,-58 1093,-47.1398 1085.26,-37.0779 1077.64,-29.0736"/>
<polygon fill="midnightblue" stroke="midnightblue" points="1079.81,-26.2934 1070.21,-21.8019 1074.91,-31.297 1079.81,-26.2934"/>
</g>
<!-- Node22 -->
<g id="node62" class="node"><title>Node22</title>
<a xlink:href="cv___identity_list_8h.html" target="_top" xlink:title="../Datatypes/cv_IdentityList.h">
<polygon fill="white" stroke="black" points="912.5,-174.5 912.5,-195.5 1067.5,-195.5 1067.5,-174.5 912.5,-174.5"/>
<text text-anchor="middle" x="990" y="-182.5" font-family="DejaVuSans" font-size="10.00">../Datatypes/cv_IdentityList.h</text>
</a>
</g>
<!-- Node21&#45;&gt;Node22 -->
<g id="edge80" class="edge"><title>Node21&#45;&gt;Node22</title>
<path fill="none" stroke="midnightblue" d="M904.259,-232.362C920.466,-223.409 943.853,-210.491 962.109,-200.406"/>
<polygon fill="midnightblue" stroke="midnightblue" points="963.802,-203.47 970.863,-195.571 960.418,-197.342 963.802,-203.47"/>
</g>
<!-- Node21&#45;&gt;Node23 -->
<g id="edge90" class="edge"><title>Node21&#45;&gt;Node23</title>
<path fill="none" stroke="midnightblue" d="M952.624,-232.484C1005.72,-223.839 1081.38,-210.661 1147,-196 1148.08,-195.759 1149.17,-195.508 1150.27,-195.25"/>
<polygon fill="midnightblue" stroke="midnightblue" points="1151.42,-198.572 1160.29,-192.775 1149.74,-191.777 1151.42,-198.572"/>
</g>
<!-- Node22&#45;&gt;Node5 -->
<g id="edge82" class="edge"><title>Node22&#45;&gt;Node5</title>
<path fill="none" stroke="midnightblue" d="M973.289,-174.46C959.208,-165.345 938.739,-151.535 922,-138 881.659,-105.382 883.571,-80.8585 837,-58 791.905,-35.8658 646.444,-20.3831 577.673,-14.1101"/>
<polygon fill="midnightblue" stroke="midnightblue" points="577.984,-10.6241 567.712,-13.2172 577.359,-17.5961 577.984,-10.6241"/>
</g>
<!-- Node22&#45;&gt;Node9 -->
<g id="edge86" class="edge"><title>Node22&#45;&gt;Node9</title>
<path fill="none" stroke="midnightblue" d="M961.941,-174.343C941.063,-165.852 912.276,-152.937 889,-138 865.699,-123.047 841.918,-101.952 826.206,-87.0327"/>
<polygon fill="midnightblue" stroke="midnightblue" points="828.397,-84.2832 818.77,-79.8589 823.537,-89.3209 828.397,-84.2832"/>
</g>
<!-- Node22&#45;&gt;Node14 -->
<g id="edge84" class="edge"><title>Node22&#45;&gt;Node14</title>
<path fill="none" stroke="midnightblue" d="M991.651,-174.362C992.805,-166.922 994.385,-156.743 995.784,-147.728"/>
<polygon fill="midnightblue" stroke="midnightblue" points="999.285,-147.989 997.36,-137.571 992.368,-146.916 999.285,-147.989"/>
</g>
<!-- Node24&#45;&gt;Node4 -->
<g id="edge102" class="edge"><title>Node24&#45;&gt;Node4</title>
<path fill="none" stroke="midnightblue" d="M650.275,-235.606C613.308,-226.868 557.211,-211.544 542,-196 513.644,-167.022 505.841,-117.961 503.735,-90.0595"/>
<polygon fill="midnightblue" stroke="midnightblue" points="507.216,-89.6233 503.151,-79.8396 500.228,-90.0233 507.216,-89.6233"/>
</g>
<!-- Node24&#45;&gt;Node7 -->
<g id="edge104" class="edge"><title>Node24&#45;&gt;Node7</title>
<path fill="none" stroke="midnightblue" d="M670.794,-232.362C660.239,-223.859 645.242,-211.779 633.037,-201.947"/>
<polygon fill="midnightblue" stroke="midnightblue" points="635.105,-199.118 625.122,-195.571 630.714,-204.57 635.105,-199.118"/>
</g>
<!-- Node24&#45;&gt;Node20 -->
<g id="edge100" class="edge"><title>Node24&#45;&gt;Node20</title>
<path fill="none" stroke="midnightblue" d="M713.08,-232.315C736.655,-223.617 770.966,-210.878 808.756,-196.442"/>
<polygon fill="midnightblue" stroke="midnightblue" points="810.347,-199.58 818.435,-192.736 807.844,-193.043 810.347,-199.58"/>
</g>
<!-- Node25 -->
<g id="node78" class="node"><title>Node25</title>
<polygon fill="white" stroke="#bfbfbf" points="690.5,-174.5 690.5,-195.5 801.5,-195.5 801.5,-174.5 690.5,-174.5"/>
<text text-anchor="middle" x="746" y="-182.5" font-family="DejaVuSans" font-size="10.00">QXmlStreamReader</text>
</g>
<!-- Node24&#45;&gt;Node25 -->
<g id="edge106" class="edge"><title>Node24&#45;&gt;Node25</title>
<path fill="none" stroke="midnightblue" d="M695.372,-232.362C704.286,-224.023 716.879,-212.242 727.276,-202.516"/>
<polygon fill="midnightblue" stroke="midnightblue" points="729.789,-204.958 734.7,-195.571 725.007,-199.846 729.789,-204.958"/>
</g>
</g>
</svg>
