<?xml version="1.0" encoding="UTF-8" standalone="no"?>
<!DOCTYPE svg PUBLIC "-//W3C//DTD SVG 1.1//EN"
 "http://www.w3.org/Graphics/SVG/1.1/DTD/svg11.dtd">
<!-- Generated by graphviz version 2.26.3 (20100126.1600)
 -->
<!-- Title: G Pages: 1 -->
<svg width="999pt" height="204pt"
 viewBox="0.00 0.00 999.00 204.00" xmlns="http://www.w3.org/2000/svg" xmlns:xlink="http://www.w3.org/1999/xlink">
<g id="graph1" class="graph" transform="scale(1 1) rotate(0) translate(4 200)">
<title>G</title>
<polygon fill="white" stroke="white" points="-4,5 -4,-200 996,-200 996,5 -4,5"/>
<!-- Node1 -->
<g id="node1" class="node"><title>Node1</title>
<polygon fill="#bfbfbf" stroke="black" points="317,-174.5 317,-195.5 469,-195.5 469,-174.5 317,-174.5"/>
<text text-anchor="middle" x="393" y="-182.5" font-family="DejaVuSans" font-size="10.00">src/IO/ReadXmlTemplate.cpp</text>
</g>
<!-- Node2 -->
<g id="node3" class="node"><title>Node2</title>
<polygon fill="white" stroke="#bfbfbf" points="0,-116.5 0,-137.5 56,-137.5 56,-116.5 0,-116.5"/>
<text text-anchor="middle" x="28" y="-124.5" font-family="DejaVuSans" font-size="10.00">QDebug</text>
</g>
<!-- Node1&#45;&gt;Node2 -->
<g id="edge2" class="edge"><title>Node1&#45;&gt;Node2</title>
<path fill="none" stroke="midnightblue" d="M316.875,-177.296C252.382,-170.036 157.378,-157.622 66.1287,-138.011"/>
<polygon fill="midnightblue" stroke="midnightblue" points="66.687,-134.551 56.1707,-135.839 65.1949,-141.39 66.687,-134.551"/>
</g>
<!-- Node3 -->
<g id="node5" class="node"><title>Node3</title>
<polygon fill="white" stroke="#bfbfbf" points="73.5,-116.5 73.5,-137.5 222.5,-137.5 222.5,-116.5 73.5,-116.5"/>
<text text-anchor="middle" x="148" y="-124.5" font-family="DejaVuSans" font-size="10.00">Datatypes/cv_SuperEffect.h</text>
</g>
<!-- Node1&#45;&gt;Node3 -->
<g id="edge4" class="edge"><title>Node1&#45;&gt;Node3</title>
<path fill="none" stroke="midnightblue" d="M348.632,-174.497C307.567,-164.775 246.396,-150.294 202.401,-139.879"/>
<polygon fill="midnightblue" stroke="midnightblue" points="202.988,-136.421 192.451,-137.523 201.376,-143.233 202.988,-136.421"/>
</g>
<!-- Node4 -->
<g id="node7" class="node"><title>Node4</title>
<polygon fill="white" stroke="#bfbfbf" points="239.5,-116.5 239.5,-137.5 390.5,-137.5 390.5,-116.5 239.5,-116.5"/>
<text text-anchor="middle" x="315" y="-124.5" font-family="DejaVuSans" font-size="10.00">Datatypes/cv_SpeciesTitle.h</text>
</g>
<!-- Node1&#45;&gt;Node4 -->
<g id="edge6" class="edge"><title>Node1&#45;&gt;Node4</title>
<path fill="none" stroke="midnightblue" d="M378.694,-174.362C367.149,-165.777 350.7,-153.546 337.41,-143.664"/>
<polygon fill="midnightblue" stroke="midnightblue" points="339.329,-140.729 329.216,-137.571 335.152,-146.346 339.329,-140.729"/>
</g>
<!-- Node5 -->
<g id="node9" class="node"><title>Node5</title>
<polygon fill="white" stroke="#bfbfbf" points="407.5,-116.5 407.5,-137.5 534.5,-137.5 534.5,-116.5 407.5,-116.5"/>
<text text-anchor="middle" x="471" y="-124.5" font-family="DejaVuSans" font-size="10.00">Exceptions/Exception.h</text>
</g>
<!-- Node1&#45;&gt;Node5 -->
<g id="edge8" class="edge"><title>Node1&#45;&gt;Node5</title>
<path fill="none" stroke="midnightblue" d="M407.306,-174.362C418.851,-165.777 435.3,-153.546 448.59,-143.664"/>
<polygon fill="midnightblue" stroke="midnightblue" points="450.848,-146.346 456.784,-137.571 446.671,-140.729 450.848,-146.346"/>
</g>
<!-- Node6 -->
<g id="node11" class="node"><title>Node6</title>
<polygon fill="white" stroke="#bfbfbf" points="551.5,-116.5 551.5,-137.5 640.5,-137.5 640.5,-116.5 551.5,-116.5"/>
<text text-anchor="middle" x="596" y="-124.5" font-family="DejaVuSans" font-size="10.00">Config/Config.h</text>
</g>
<!-- Node1&#45;&gt;Node6 -->
<g id="edge10" class="edge"><title>Node1&#45;&gt;Node6</title>
<path fill="none" stroke="midnightblue" d="M429.762,-174.497C463.286,-164.918 512.982,-150.72 549.304,-140.342"/>
<polygon fill="midnightblue" stroke="midnightblue" points="550.516,-143.636 559.169,-137.523 548.592,-136.905 550.516,-143.636"/>
</g>
<!-- Node7 -->
<g id="node13" class="node"><title>Node7</title>
<a xlink:href="_read_xml_template_8h.html" target="_top" xlink:title="ReadXmlTemplate.h">
<polygon fill="white" stroke="black" points="658,-116.5 658,-137.5 768,-137.5 768,-116.5 658,-116.5"/>
<text text-anchor="middle" x="713" y="-124.5" font-family="DejaVuSans" font-size="10.00">ReadXmlTemplate.h</text>
</a>
</g>
<!-- Node1&#45;&gt;Node7 -->
<g id="edge12" class="edge"><title>Node1&#45;&gt;Node7</title>
<path fill="none" stroke="midnightblue" d="M450.95,-174.497C506.424,-164.442 589.989,-149.296 647.771,-138.823"/>
<polygon fill="midnightblue" stroke="midnightblue" points="648.673,-142.216 657.888,-136.989 647.424,-135.329 648.673,-142.216"/>
</g>
<!-- Node8 -->
<g id="node15" class="node"><title>Node8</title>
<polygon fill="white" stroke="#bfbfbf" points="499.5,-0.5 499.5,-21.5 538.5,-21.5 538.5,-0.5 499.5,-0.5"/>
<text text-anchor="middle" x="519" y="-8.5" font-family="DejaVuSans" font-size="10.00">QFile</text>
</g>
<!-- Node7&#45;&gt;Node8 -->
<g id="edge14" class="edge"><title>Node7&#45;&gt;Node8</title>
<path fill="none" stroke="midnightblue" d="M692.095,-116.482C674.086,-107.268 647.515,-93.307 625,-80 596.219,-62.9901 564.18,-41.8074 542.937,-27.4316"/>
<polygon fill="midnightblue" stroke="midnightblue" points="544.773,-24.4474 534.535,-21.7194 540.837,-30.2362 544.773,-24.4474"/>
</g>
<!-- Node9 -->
<g id="node17" class="node"><title>Node9</title>
<polygon fill="white" stroke="#bfbfbf" points="770.5,-58.5 770.5,-79.5 919.5,-79.5 919.5,-58.5 770.5,-58.5"/>
<text text-anchor="middle" x="845" y="-66.5" font-family="DejaVuSans" font-size="10.00">Storage/StorageTemplate.h</text>
</g>
<!-- Node7&#45;&gt;Node9 -->
<g id="edge16" class="edge"><title>Node7&#45;&gt;Node9</title>
<path fill="none" stroke="midnightblue" d="M736.904,-116.497C757.8,-107.315 788.356,-93.8889 811.655,-83.6516"/>
<polygon fill="midnightblue" stroke="midnightblue" points="813.08,-86.8483 820.828,-79.6212 810.264,-80.4397 813.08,-86.8483"/>
</g>
<!-- Node10 -->
<g id="node19" class="node"><title>Node10</title>
<polygon fill="white" stroke="#bfbfbf" points="555.5,-0.5 555.5,-21.5 686.5,-21.5 686.5,-0.5 555.5,-0.5"/>
<text text-anchor="middle" x="621" y="-8.5" font-family="DejaVuSans" font-size="10.00">Datatypes/cv_Species.h</text>
</g>
<!-- Node7&#45;&gt;Node10 -->
<g id="edge18" class="edge"><title>Node7&#45;&gt;Node10</title>
<path fill="none" stroke="midnightblue" d="M687.567,-116.416C671.691,-108.571 652.05,-96.3975 640,-80 629.681,-65.9577 624.966,-46.5918 622.812,-31.9501"/>
<polygon fill="midnightblue" stroke="midnightblue" points="626.266,-31.3591 621.613,-21.8408 619.315,-32.1834 626.266,-31.3591"/>
</g>
<!-- Node11 -->
<g id="node21" class="node"><title>Node11</title>
<polygon fill="white" stroke="#bfbfbf" points="831.5,-0.5 831.5,-21.5 944.5,-21.5 944.5,-0.5 831.5,-0.5"/>
<text text-anchor="middle" x="888" y="-8.5" font-family="DejaVuSans" font-size="10.00">Datatypes/cv_Trait.h</text>
</g>
<!-- Node7&#45;&gt;Node11 -->
<g id="edge20" class="edge"><title>Node7&#45;&gt;Node11</title>
<path fill="none" stroke="midnightblue" d="M717.972,-116.377C725.498,-101.374 741.146,-74.024 762,-58 782.087,-42.5656 807.78,-31.7717 830.72,-24.4571"/>
<polygon fill="midnightblue" stroke="midnightblue" points="831.806,-27.7854 840.358,-21.532 829.773,-21.0871 831.806,-27.7854"/>
</g>
<!-- Node12 -->
<g id="node23" class="node"><title>Node12</title>
<polygon fill="white" stroke="#bfbfbf" points="936.5,-58.5 936.5,-79.5 991.5,-79.5 991.5,-58.5 936.5,-58.5"/>
<text text-anchor="middle" x="964" y="-66.5" font-family="DejaVuSans" font-size="10.00">QObject</text>
</g>
<!-- Node7&#45;&gt;Node12 -->
<g id="edge22" class="edge"><title>Node7&#45;&gt;Node12</title>
<path fill="none" stroke="midnightblue" d="M767.188,-116.425C808.536,-108.068 867.09,-95.6147 926.269,-80.3311"/>
<polygon fill="midnightblue" stroke="midnightblue" points="927.363,-83.6631 936.156,-77.7525 925.596,-76.8897 927.363,-83.6631"/>
</g>
<!-- Node13 -->
<g id="node25" class="node"><title>Node13</title>
<a xlink:href="_read_xml_8h.html" target="_top" xlink:title="ReadXml.h">
<polygon fill="white" stroke="black" points="648.5,-58.5 648.5,-79.5 715.5,-79.5 715.5,-58.5 648.5,-58.5"/>
<text text-anchor="middle" x="682" y="-66.5" font-family="DejaVuSans" font-size="10.00">ReadXml.h</text>
</a>
</g>
<!-- Node7&#45;&gt;Node13 -->
<g id="edge24" class="edge"><title>Node7&#45;&gt;Node13</title>
<path fill="none" stroke="midnightblue" d="M707.314,-116.362C703.163,-108.595 697.416,-97.8426 692.447,-88.5458"/>
<polygon fill="midnightblue" stroke="midnightblue" points="695.45,-86.7401 687.65,-79.5707 689.277,-90.0398 695.45,-86.7401"/>
</g>
<!-- Node13&#45;&gt;Node8 -->
<g id="edge26" class="edge"><title>Node13&#45;&gt;Node8</title>
<path fill="none" stroke="midnightblue" d="M650.505,-58.4262C625.048,-49.7932 588.086,-37.0652 547.972,-22.2823"/>
<polygon fill="midnightblue" stroke="midnightblue" points="549.138,-18.9817 538.545,-18.7913 546.707,-25.5461 549.138,-18.9817"/>
</g>
<!-- Node13&#45;&gt;Node10 -->
<g id="edge28" class="edge"><title>Node13&#45;&gt;Node10</title>
<path fill="none" stroke="midnightblue" d="M670.812,-58.3619C662.041,-50.0226 649.651,-38.2418 639.422,-28.5162"/>
<polygon fill="midnightblue" stroke="midnightblue" points="641.776,-25.9248 632.117,-21.5707 636.953,-30.9978 641.776,-25.9248"/>
</g>
<!-- Node13&#45;&gt;Node11 -->
<g id="edge30" class="edge"><title>Node13&#45;&gt;Node11</title>
<path fill="none" stroke="midnightblue" d="M715.556,-59.5522C749.569,-49.9756 802.494,-35.0744 840.743,-24.3054"/>
<polygon fill="midnightblue" stroke="midnightblue" points="841.944,-27.6034 850.621,-21.5241 840.047,-20.8653 841.944,-27.6034"/>
</g>
<!-- Node14 -->
<g id="node30" class="node"><title>Node14</title>
<polygon fill="white" stroke="#bfbfbf" points="703.5,-0.5 703.5,-21.5 814.5,-21.5 814.5,-0.5 703.5,-0.5"/>
<text text-anchor="middle" x="759" y="-8.5" font-family="DejaVuSans" font-size="10.00">QXmlStreamReader</text>
</g>
<!-- Node13&#45;&gt;Node14 -->
<g id="edge32" class="edge"><title>Node13&#45;&gt;Node14</title>
<path fill="none" stroke="midnightblue" d="M696.123,-58.3619C707.52,-49.7773 723.758,-37.5459 736.878,-27.6636"/>
<polygon fill="midnightblue" stroke="midnightblue" points="739.085,-30.3829 744.967,-21.5707 734.873,-24.7916 739.085,-30.3829"/>
</g>
</g>
</svg>
