<?xml version="1.0" encoding="UTF-8" standalone="no"?>
<!DOCTYPE svg PUBLIC "-//W3C//DTD SVG 1.1//EN"
 "http://www.w3.org/Graphics/SVG/1.1/DTD/svg11.dtd">
<!-- Generated by graphviz version 2.26.3 (20100126.1600)
 -->
<!-- Title: G Pages: 1 -->
<svg width="460pt" height="204pt"
 viewBox="0.00 0.00 460.00 204.00" xmlns="http://www.w3.org/2000/svg" xmlns:xlink="http://www.w3.org/1999/xlink">
<g id="graph1" class="graph" transform="scale(1 1) rotate(0) translate(4 200)">
<title>G</title>
<polygon fill="white" stroke="white" points="-4,5 -4,-200 457,-200 457,5 -4,5"/>
<!-- Node1 -->
<g id="node1" class="node"><title>Node1</title>
<polygon fill="#bfbfbf" stroke="black" points="61,-174.5 61,-195.5 213,-195.5 213,-174.5 61,-174.5"/>
<text text-anchor="middle" x="137" y="-182.5" font-family="DejaVuSans" font-size="10.00">src/IO/ReadXmlTemplate.cpp</text>
</g>
<!-- Node2 -->
<g id="node3" class="node"><title>Node2</title>
<polygon fill="white" stroke="#bfbfbf" points="0,-116.5 0,-137.5 56,-137.5 56,-116.5 0,-116.5"/>
<text text-anchor="middle" x="28" y="-124.5" font-family="DejaVuSans" font-size="10.00">QDebug</text>
</g>
<!-- Node1&#45;&gt;Node2 -->
<g id="edge2" class="edge"><title>Node1&#45;&gt;Node2</title>
<path fill="none" stroke="midnightblue" d="M117.261,-174.497C100.39,-165.519 75.8915,-152.484 56.8262,-142.339"/>
<polygon fill="midnightblue" stroke="midnightblue" points="58.4327,-139.229 47.9606,-137.621 55.1445,-145.409 58.4327,-139.229"/>
</g>
<!-- Node3 -->
<g id="node5" class="node"><title>Node3</title>
<polygon fill="white" stroke="#bfbfbf" points="73.5,-116.5 73.5,-137.5 200.5,-137.5 200.5,-116.5 73.5,-116.5"/>
<text text-anchor="middle" x="137" y="-124.5" font-family="DejaVuSans" font-size="10.00">Exceptions/Exception.h</text>
</g>
<!-- Node1&#45;&gt;Node3 -->
<g id="edge4" class="edge"><title>Node1&#45;&gt;Node3</title>
<path fill="none" stroke="midnightblue" d="M137,-174.362C137,-166.922 137,-156.743 137,-147.728"/>
<polygon fill="midnightblue" stroke="midnightblue" points="140.5,-147.571 137,-137.571 133.5,-147.571 140.5,-147.571"/>
</g>
<!-- Node4 -->
<g id="node7" class="node"><title>Node4</title>
<a xlink:href="_read_xml_template_8h.html" target="_top" xlink:title="ReadXmlTemplate.h">
<polygon fill="white" stroke="black" points="218,-116.5 218,-137.5 328,-137.5 328,-116.5 218,-116.5"/>
<text text-anchor="middle" x="273" y="-124.5" font-family="DejaVuSans" font-size="10.00">ReadXmlTemplate.h</text>
</a>
</g>
<!-- Node1&#45;&gt;Node4 -->
<g id="edge6" class="edge"><title>Node1&#45;&gt;Node4</title>
<path fill="none" stroke="midnightblue" d="M161.629,-174.497C183.157,-165.315 214.64,-151.889 238.645,-141.652"/>
<polygon fill="midnightblue" stroke="midnightblue" points="240.27,-144.764 248.095,-137.621 237.524,-138.325 240.27,-144.764"/>
</g>
<!-- Node5 -->
<g id="node9" class="node"><title>Node5</title>
<polygon fill="white" stroke="#bfbfbf" points="79.5,-58.5 79.5,-79.5 228.5,-79.5 228.5,-58.5 79.5,-58.5"/>
<text text-anchor="middle" x="154" y="-66.5" font-family="DejaVuSans" font-size="10.00">Storage/StorageTemplate.h</text>
</g>
<!-- Node4&#45;&gt;Node5 -->
<g id="edge8" class="edge"><title>Node4&#45;&gt;Node5</title>
<path fill="none" stroke="midnightblue" d="M251.45,-116.497C232.864,-107.438 205.798,-94.2462 184.905,-84.0628"/>
<polygon fill="midnightblue" stroke="midnightblue" points="186.314,-80.8563 175.792,-79.6212 183.247,-87.1487 186.314,-80.8563"/>
</g>
<!-- Node6 -->
<g id="node11" class="node"><title>Node6</title>
<polygon fill="white" stroke="#bfbfbf" points="245.5,-58.5 245.5,-79.5 300.5,-79.5 300.5,-58.5 245.5,-58.5"/>
<text text-anchor="middle" x="273" y="-66.5" font-family="DejaVuSans" font-size="10.00">QObject</text>
</g>
<!-- Node4&#45;&gt;Node6 -->
<g id="edge10" class="edge"><title>Node4&#45;&gt;Node6</title>
<path fill="none" stroke="midnightblue" d="M273,-116.362C273,-108.922 273,-98.7427 273,-89.7276"/>
<polygon fill="midnightblue" stroke="midnightblue" points="276.5,-89.5706 273,-79.5707 269.5,-89.5707 276.5,-89.5706"/>
</g>
<!-- Node7 -->
<g id="node13" class="node"><title>Node7</title>
<a xlink:href="_read_xml_8h.html" target="_top" xlink:title="ReadXml.h">
<polygon fill="white" stroke="black" points="317.5,-58.5 317.5,-79.5 384.5,-79.5 384.5,-58.5 317.5,-58.5"/>
<text text-anchor="middle" x="351" y="-66.5" font-family="DejaVuSans" font-size="10.00">ReadXml.h</text>
</a>
</g>
<!-- Node4&#45;&gt;Node7 -->
<g id="edge12" class="edge"><title>Node4&#45;&gt;Node7</title>
<path fill="none" stroke="midnightblue" d="M287.306,-116.362C298.851,-107.777 315.3,-95.5459 328.59,-85.6636"/>
<polygon fill="midnightblue" stroke="midnightblue" points="330.848,-88.3463 336.784,-79.5707 326.671,-82.7291 330.848,-88.3463"/>
</g>
<!-- Node8 -->
<g id="node15" class="node"><title>Node8</title>
<polygon fill="white" stroke="#bfbfbf" points="285.5,-0.5 285.5,-21.5 324.5,-21.5 324.5,-0.5 285.5,-0.5"/>
<text text-anchor="middle" x="305" y="-8.5" font-family="DejaVuSans" font-size="10.00">QFile</text>
</g>
<!-- Node7&#45;&gt;Node8 -->
<g id="edge14" class="edge"><title>Node7&#45;&gt;Node8</title>
<path fill="none" stroke="midnightblue" d="M342.563,-58.3619C336.208,-50.3496 327.334,-39.1605 319.807,-29.6696"/>
<polygon fill="midnightblue" stroke="midnightblue" points="322.34,-27.2308 313.384,-21.5707 316.855,-31.5805 322.34,-27.2308"/>
</g>
<!-- Node9 -->
<g id="node17" class="node"><title>Node9</title>
<polygon fill="white" stroke="#bfbfbf" points="341.5,-0.5 341.5,-21.5 452.5,-21.5 452.5,-0.5 341.5,-0.5"/>
<text text-anchor="middle" x="397" y="-8.5" font-family="DejaVuSans" font-size="10.00">QXmlStreamReader</text>
</g>
<!-- Node7&#45;&gt;Node9 -->
<g id="edge16" class="edge"><title>Node7&#45;&gt;Node9</title>
<path fill="none" stroke="midnightblue" d="M359.437,-58.3619C365.792,-50.3496 374.666,-39.1605 382.193,-29.6696"/>
<polygon fill="midnightblue" stroke="midnightblue" points="385.145,-31.5805 388.616,-21.5707 379.66,-27.2308 385.145,-31.5805"/>
</g>
</g>
</svg>
