<?xml version="1.0" encoding="UTF-8" standalone="no"?>
<!DOCTYPE svg PUBLIC "-//W3C//DTD SVG 1.1//EN"
 "http://www.w3.org/Graphics/SVG/1.1/DTD/svg11.dtd">
<!-- Generated by graphviz version 2.26.3 (20100126.1600)
 -->
<!-- Title: G Pages: 1 -->
<svg width="380pt" height="146pt"
 viewBox="0.00 0.00 380.00 146.00" xmlns="http://www.w3.org/2000/svg" xmlns:xlink="http://www.w3.org/1999/xlink">
<g id="graph1" class="graph" transform="scale(1 1) rotate(0) translate(4 142)">
<title>G</title>
<polygon fill="white" stroke="white" points="-4,5 -4,-142 377,-142 377,5 -4,5"/>
<!-- Node1 -->
<g id="node1" class="node"><title>Node1</title>
<polygon fill="#bfbfbf" stroke="black" points="123,-116.5 123,-137.5 263,-137.5 263,-116.5 123,-116.5"/>
<text text-anchor="middle" x="193" y="-124.5" font-family="DejaVuSans" font-size="10.00">src/IO/ReadXmlTemplate.h</text>
</g>
<!-- Node2 -->
<g id="node3" class="node"><title>Node2</title>
<polygon fill="white" stroke="#bfbfbf" points="-0.5,-58.5 -0.5,-79.5 148.5,-79.5 148.5,-58.5 -0.5,-58.5"/>
<text text-anchor="middle" x="74" y="-66.5" font-family="DejaVuSans" font-size="10.00">Storage/StorageTemplate.h</text>
</g>
<!-- Node1&#45;&gt;Node2 -->
<g id="edge2" class="edge"><title>Node1&#45;&gt;Node2</title>
<path fill="none" stroke="midnightblue" d="M171.45,-116.497C152.864,-107.438 125.798,-94.2462 104.905,-84.0628"/>
<polygon fill="midnightblue" stroke="midnightblue" points="106.314,-80.8563 95.7918,-79.6212 103.247,-87.1487 106.314,-80.8563"/>
</g>
<!-- Node3 -->
<g id="node5" class="node"><title>Node3</title>
<polygon fill="white" stroke="#bfbfbf" points="165.5,-58.5 165.5,-79.5 220.5,-79.5 220.5,-58.5 165.5,-58.5"/>
<text text-anchor="middle" x="193" y="-66.5" font-family="DejaVuSans" font-size="10.00">QObject</text>
</g>
<!-- Node1&#45;&gt;Node3 -->
<g id="edge4" class="edge"><title>Node1&#45;&gt;Node3</title>
<path fill="none" stroke="midnightblue" d="M193,-116.362C193,-108.922 193,-98.7427 193,-89.7276"/>
<polygon fill="midnightblue" stroke="midnightblue" points="196.5,-89.5706 193,-79.5707 189.5,-89.5707 196.5,-89.5706"/>
</g>
<!-- Node4 -->
<g id="node7" class="node"><title>Node4</title>
<a xlink:href="_read_xml_8h.html" target="_top" xlink:title="ReadXml.h">
<polygon fill="white" stroke="black" points="237.5,-58.5 237.5,-79.5 304.5,-79.5 304.5,-58.5 237.5,-58.5"/>
<text text-anchor="middle" x="271" y="-66.5" font-family="DejaVuSans" font-size="10.00">ReadXml.h</text>
</a>
</g>
<!-- Node1&#45;&gt;Node4 -->
<g id="edge6" class="edge"><title>Node1&#45;&gt;Node4</title>
<path fill="none" stroke="midnightblue" d="M207.306,-116.362C218.851,-107.777 235.3,-95.5459 248.59,-85.6636"/>
<polygon fill="midnightblue" stroke="midnightblue" points="250.848,-88.3463 256.784,-79.5707 246.671,-82.7291 250.848,-88.3463"/>
</g>
<!-- Node5 -->
<g id="node9" class="node"><title>Node5</title>
<polygon fill="white" stroke="#bfbfbf" points="205.5,-0.5 205.5,-21.5 244.5,-21.5 244.5,-0.5 205.5,-0.5"/>
<text text-anchor="middle" x="225" y="-8.5" font-family="DejaVuSans" font-size="10.00">QFile</text>
</g>
<!-- Node4&#45;&gt;Node5 -->
<g id="edge8" class="edge"><title>Node4&#45;&gt;Node5</title>
<path fill="none" stroke="midnightblue" d="M262.563,-58.3619C256.208,-50.3496 247.334,-39.1605 239.807,-29.6696"/>
<polygon fill="midnightblue" stroke="midnightblue" points="242.34,-27.2308 233.384,-21.5707 236.855,-31.5805 242.34,-27.2308"/>
</g>
<!-- Node6 -->
<g id="node11" class="node"><title>Node6</title>
<polygon fill="white" stroke="#bfbfbf" points="261.5,-0.5 261.5,-21.5 372.5,-21.5 372.5,-0.5 261.5,-0.5"/>
<text text-anchor="middle" x="317" y="-8.5" font-family="DejaVuSans" font-size="10.00">QXmlStreamReader</text>
</g>
<!-- Node4&#45;&gt;Node6 -->
<g id="edge10" class="edge"><title>Node4&#45;&gt;Node6</title>
<path fill="none" stroke="midnightblue" d="M279.437,-58.3619C285.792,-50.3496 294.666,-39.1605 302.193,-29.6696"/>
<polygon fill="midnightblue" stroke="midnightblue" points="305.145,-31.5805 308.616,-21.5707 299.66,-27.2308 305.145,-31.5805"/>
</g>
</g>
</svg>
