<?xml version="1.0" encoding="UTF-8" standalone="no"?>
<!DOCTYPE svg PUBLIC "-//W3C//DTD SVG 1.1//EN"
 "http://www.w3.org/Graphics/SVG/1.1/DTD/svg11.dtd">
<!-- Generated by graphviz version 2.26.3 (20100126.1600)
 -->
<!-- Title: G Pages: 1 -->
<svg width="1346pt" height="436pt"
 viewBox="0.00 0.00 1346.00 436.00" xmlns="http://www.w3.org/2000/svg" xmlns:xlink="http://www.w3.org/1999/xlink">
<g id="graph1" class="graph" transform="scale(1 1) rotate(0) translate(4 432)">
<title>G</title>
<polygon fill="white" stroke="white" points="-4,5 -4,-432 1343,-432 1343,5 -4,5"/>
<!-- Node1 -->
<g id="node1" class="node"><title>Node1</title>
<polygon fill="#bfbfbf" stroke="black" points="906.5,-406.5 906.5,-427.5 1061.5,-427.5 1061.5,-406.5 906.5,-406.5"/>
<text text-anchor="middle" x="984" y="-414.5" font-family="DejaVuSans" font-size="10.00">src/IO/ReadXmlCharacter.cpp</text>
</g>
<!-- Node2 -->
<g id="node3" class="node"><title>Node2</title>
<polygon fill="white" stroke="#bfbfbf" points="681,-348.5 681,-369.5 737,-369.5 737,-348.5 681,-348.5"/>
<text text-anchor="middle" x="709" y="-356.5" font-family="DejaVuSans" font-size="10.00">QDebug</text>
</g>
<!-- Node1&#45;&gt;Node2 -->
<g id="edge2" class="edge"><title>Node1&#45;&gt;Node2</title>
<path fill="none" stroke="midnightblue" d="M922.507,-406.497C876.6,-398.281 812.16,-385.96 747.211,-370.146"/>
<polygon fill="midnightblue" stroke="midnightblue" points="747.754,-366.675 737.207,-367.683 746.08,-373.472 747.754,-366.675"/>
</g>
<!-- Node3 -->
<g id="node5" class="node"><title>Node3</title>
<a xlink:href="_exception_8h_source.html" target="_top" xlink:title="../Exceptions/Exception.h">
<polygon fill="white" stroke="black" points="1090,-232.5 1090,-253.5 1226,-253.5 1226,-232.5 1090,-232.5"/>
<text text-anchor="middle" x="1158" y="-240.5" font-family="DejaVuSans" font-size="10.00">../Exceptions/Exception.h</text>
</a>
</g>
<!-- Node1&#45;&gt;Node3 -->
<g id="edge4" class="edge"><title>Node1&#45;&gt;Node3</title>
<path fill="none" stroke="midnightblue" d="M994.623,-406.377C1023.43,-377.567 1103.32,-297.678 1139.62,-261.376"/>
<polygon fill="midnightblue" stroke="midnightblue" points="1142.48,-263.474 1147.07,-253.928 1137.53,-258.524 1142.48,-263.474"/>
</g>
<!-- Node15 -->
<g id="node42" class="node"><title>Node15</title>
<a xlink:href="_config_8h.html" target="_top" xlink:title="../Config/Config.h">
<polygon fill="white" stroke="black" points="1201,-174.5 1201,-195.5 1299,-195.5 1299,-174.5 1201,-174.5"/>
<text text-anchor="middle" x="1250" y="-182.5" font-family="DejaVuSans" font-size="10.00">../Config/Config.h</text>
</a>
</g>
<!-- Node1&#45;&gt;Node15 -->
<g id="edge62" class="edge"><title>Node1&#45;&gt;Node15</title>
<path fill="none" stroke="midnightblue" d="M1013.84,-406.443C1067.22,-385.937 1178.75,-335.443 1235,-254 1244.77,-239.853 1248.34,-220.497 1249.57,-205.886"/>
<polygon fill="midnightblue" stroke="midnightblue" points="1253.07,-205.977 1250.11,-195.802 1246.08,-205.598 1253.07,-205.977"/>
</g>
<!-- Node18 -->
<g id="node50" class="node"><title>Node18</title>
<a xlink:href="_read_xml_character_8h.html" target="_top" xlink:title="ReadXmlCharacter.h">
<polygon fill="white" stroke="black" points="754.5,-348.5 754.5,-369.5 867.5,-369.5 867.5,-348.5 754.5,-348.5"/>
<text text-anchor="middle" x="811" y="-356.5" font-family="DejaVuSans" font-size="10.00">ReadXmlCharacter.h</text>
</a>
</g>
<!-- Node1&#45;&gt;Node18 -->
<g id="edge64" class="edge"><title>Node1&#45;&gt;Node18</title>
<path fill="none" stroke="midnightblue" d="M952.671,-406.497C924.467,-397.041 882.833,-383.083 851.991,-372.743"/>
<polygon fill="midnightblue" stroke="midnightblue" points="852.982,-369.383 842.388,-369.523 850.757,-376.02 852.982,-369.383"/>
</g>
<!-- Node4 -->
<g id="node7" class="node"><title>Node4</title>
<polygon fill="white" stroke="#bfbfbf" points="710.5,-0.5 710.5,-21.5 763.5,-21.5 763.5,-0.5 710.5,-0.5"/>
<text text-anchor="middle" x="737" y="-8.5" font-family="DejaVuSans" font-size="10.00">QString</text>
</g>
<!-- Node3&#45;&gt;Node4 -->
<g id="edge6" class="edge"><title>Node3&#45;&gt;Node4</title>
<path fill="none" stroke="midnightblue" d="M1161.15,-232.393C1169.8,-200.867 1190.24,-106.896 1143,-58 1117.55,-31.6556 868.964,-17.2299 773.801,-12.6368"/>
<polygon fill="midnightblue" stroke="midnightblue" points="773.92,-9.1386 763.766,-12.1616 773.589,-16.1308 773.92,-9.1386"/>
</g>
<!-- Node5 -->
<g id="node9" class="node"><title>Node5</title>
<a xlink:href="cv___trait_8h.html" target="_top" xlink:title="../Datatypes/cv_Trait.h">
<polygon fill="white" stroke="black" points="723,-174.5 723,-195.5 845,-195.5 845,-174.5 723,-174.5"/>
<text text-anchor="middle" x="784" y="-182.5" font-family="DejaVuSans" font-size="10.00">../Datatypes/cv_Trait.h</text>
</a>
</g>
<!-- Node3&#45;&gt;Node5 -->
<g id="edge8" class="edge"><title>Node3&#45;&gt;Node5</title>
<path fill="none" stroke="midnightblue" d="M1090.27,-232.497C1023.8,-222.188 922.813,-206.527 855.176,-196.038"/>
<polygon fill="midnightblue" stroke="midnightblue" points="855.451,-192.539 845.033,-194.465 854.378,-199.456 855.451,-192.539"/>
</g>
<!-- Node12 -->
<g id="node31" class="node"><title>Node12</title>
<a xlink:href="cv___shape_8h.html" target="_top" xlink:title="../Datatypes/cv_Shape.h">
<polygon fill="white" stroke="black" points="1000,-58.5 1000,-79.5 1134,-79.5 1134,-58.5 1000,-58.5"/>
<text text-anchor="middle" x="1067" y="-66.5" font-family="DejaVuSans" font-size="10.00">../Datatypes/cv_Shape.h</text>
</a>
</g>
<!-- Node3&#45;&gt;Node12 -->
<g id="edge38" class="edge"><title>Node3&#45;&gt;Node12</title>
<path fill="none" stroke="midnightblue" d="M1152.44,-232.377C1137.63,-204.051 1096.99,-126.349 1077.59,-89.2424"/>
<polygon fill="midnightblue" stroke="midnightblue" points="1080.45,-87.167 1072.72,-79.9277 1074.25,-90.4111 1080.45,-87.167"/>
</g>
<!-- Node13 -->
<g id="node34" class="node"><title>Node13</title>
<a xlink:href="cv___identity_8h.html" target="_top" xlink:title="../Datatypes/cv_Identity.h">
<polygon fill="white" stroke="black" points="51.5,-116.5 51.5,-137.5 188.5,-137.5 188.5,-116.5 51.5,-116.5"/>
<text text-anchor="middle" x="120" y="-124.5" font-family="DejaVuSans" font-size="10.00">../Datatypes/cv_Identity.h</text>
</a>
</g>
<!-- Node3&#45;&gt;Node13 -->
<g id="edge42" class="edge"><title>Node3&#45;&gt;Node13</title>
<path fill="none" stroke="midnightblue" d="M1089.86,-238.911C947.594,-230.23 623.101,-209.641 513,-196 394.408,-181.307 257.192,-155.085 180.301,-139.543"/>
<polygon fill="midnightblue" stroke="midnightblue" points="180.812,-136.075 170.316,-137.516 179.42,-142.935 180.812,-136.075"/>
</g>
<!-- Node3&#45;&gt;Node15 -->
<g id="edge54" class="edge"><title>Node3&#45;&gt;Node15</title>
<path fill="none" stroke="midnightblue" d="M1174.87,-232.362C1188.75,-223.614 1208.63,-211.079 1224.46,-201.101"/>
<polygon fill="midnightblue" stroke="midnightblue" points="1226.64,-203.864 1233.23,-195.571 1222.91,-197.943 1226.64,-203.864"/>
</g>
<!-- Node5&#45;&gt;Node4 -->
<g id="edge12" class="edge"><title>Node5&#45;&gt;Node4</title>
<path fill="none" stroke="midnightblue" d="M845.164,-180.963C901.613,-174.578 973.051,-158.151 947,-116 908.987,-54.4944 822.829,-27.8116 773.496,-17.2237"/>
<polygon fill="midnightblue" stroke="midnightblue" points="774.055,-13.7659 763.558,-15.2019 772.66,-20.6254 774.055,-13.7659"/>
</g>
<!-- Node6 -->
<g id="node11" class="node"><title>Node6</title>
<polygon fill="white" stroke="#bfbfbf" points="871.5,-116.5 871.5,-137.5 920.5,-137.5 920.5,-116.5 871.5,-116.5"/>
<text text-anchor="middle" x="896" y="-124.5" font-family="DejaVuSans" font-size="10.00">QFlags</text>
</g>
<!-- Node5&#45;&gt;Node6 -->
<g id="edge10" class="edge"><title>Node5&#45;&gt;Node6</title>
<path fill="none" stroke="midnightblue" d="M804.282,-174.497C821.618,-165.519 846.79,-152.484 866.38,-142.339"/>
<polygon fill="midnightblue" stroke="midnightblue" points="868.22,-145.328 875.49,-137.621 865.001,-139.112 868.22,-145.328"/>
</g>
<!-- Node7 -->
<g id="node14" class="node"><title>Node7</title>
<polygon fill="white" stroke="#bfbfbf" points="328.5,-58.5 328.5,-79.5 369.5,-79.5 369.5,-58.5 328.5,-58.5"/>
<text text-anchor="middle" x="349" y="-66.5" font-family="DejaVuSans" font-size="10.00">QList</text>
</g>
<!-- Node5&#45;&gt;Node7 -->
<g id="edge14" class="edge"><title>Node5&#45;&gt;Node7</title>
<path fill="none" stroke="midnightblue" d="M722.822,-176.781C715.471,-175.826 708.068,-174.88 701,-174 632.399,-165.458 450.397,-174.999 392,-138 374.199,-126.722 362.536,-105.131 355.906,-89.0911"/>
<polygon fill="midnightblue" stroke="midnightblue" points="359.09,-87.6178 352.262,-79.5168 352.548,-90.1077 359.09,-87.6178"/>
</g>
<!-- Node8 -->
<g id="node16" class="node"><title>Node8</title>
<polygon fill="white" stroke="#bfbfbf" points="90.5,-0.5 90.5,-21.5 159.5,-21.5 159.5,-0.5 90.5,-0.5"/>
<text text-anchor="middle" x="125" y="-8.5" font-family="DejaVuSans" font-size="10.00">QStringList</text>
</g>
<!-- Node5&#45;&gt;Node8 -->
<g id="edge16" class="edge"><title>Node5&#45;&gt;Node8</title>
<path fill="none" stroke="midnightblue" d="M722.81,-176.876C715.461,-175.905 708.062,-174.928 701,-174 639.675,-165.937 476.579,-172.138 425,-138 390.612,-115.24 411.761,-81.6794 378,-58 345.085,-34.9146 233.4,-21.0585 169.972,-14.865"/>
<polygon fill="midnightblue" stroke="midnightblue" points="170.136,-11.3649 159.849,-13.9016 169.473,-18.3334 170.136,-11.3649"/>
</g>
<!-- Node9 -->
<g id="node18" class="node"><title>Node9</title>
<a xlink:href="cv___species_8h.html" target="_top" xlink:title="cv_Species.h">
<polygon fill="white" stroke="black" points="697.5,-58.5 697.5,-79.5 776.5,-79.5 776.5,-58.5 697.5,-58.5"/>
<text text-anchor="middle" x="737" y="-66.5" font-family="DejaVuSans" font-size="10.00">cv_Species.h</text>
</a>
</g>
<!-- Node5&#45;&gt;Node9 -->
<g id="edge18" class="edge"><title>Node5&#45;&gt;Node9</title>
<path fill="none" stroke="midnightblue" d="M845.381,-177.302C896.131,-168.352 955.849,-150.214 929,-116 911.608,-93.8367 837.547,-80.7696 786.662,-74.2475"/>
<polygon fill="midnightblue" stroke="midnightblue" points="786.855,-70.7448 776.501,-72.9919 785.996,-77.692 786.855,-70.7448"/>
</g>
<!-- Node10 -->
<g id="node21" class="node"><title>Node10</title>
<a xlink:href="cv___trait_detail_8h.html" target="_top" xlink:title="cv_TraitDetail.h">
<polygon fill="white" stroke="black" points="433.5,-116.5 433.5,-137.5 522.5,-137.5 522.5,-116.5 433.5,-116.5"/>
<text text-anchor="middle" x="478" y="-124.5" font-family="DejaVuSans" font-size="10.00">cv_TraitDetail.h</text>
</a>
</g>
<!-- Node5&#45;&gt;Node10 -->
<g id="edge22" class="edge"><title>Node5&#45;&gt;Node10</title>
<path fill="none" stroke="midnightblue" d="M725.398,-174.473C676.383,-165.586 604.348,-152.336 532.634,-138.296"/>
<polygon fill="midnightblue" stroke="midnightblue" points="533.006,-134.803 522.519,-136.31 531.658,-141.672 533.006,-134.803"/>
</g>
<!-- Node11 -->
<g id="node27" class="node"><title>Node11</title>
<a xlink:href="cv___abstract_trait_8h.html" target="_top" xlink:title="cv_AbstractTrait.h">
<polygon fill="white" stroke="black" points="753.5,-116.5 753.5,-137.5 854.5,-137.5 854.5,-116.5 753.5,-116.5"/>
<text text-anchor="middle" x="804" y="-124.5" font-family="DejaVuSans" font-size="10.00">cv_AbstractTrait.h</text>
</a>
</g>
<!-- Node5&#45;&gt;Node11 -->
<g id="edge32" class="edge"><title>Node5&#45;&gt;Node11</title>
<path fill="none" stroke="midnightblue" d="M787.668,-174.362C790.29,-166.758 793.899,-156.294 797.057,-147.135"/>
<polygon fill="midnightblue" stroke="midnightblue" points="800.404,-148.165 800.355,-137.571 793.786,-145.883 800.404,-148.165"/>
</g>
<!-- Node9&#45;&gt;Node4 -->
<g id="edge20" class="edge"><title>Node9&#45;&gt;Node4</title>
<path fill="none" stroke="midnightblue" d="M737,-58.3619C737,-50.9219 737,-40.7427 737,-31.7276"/>
<polygon fill="midnightblue" stroke="midnightblue" points="740.5,-31.5706 737,-21.5707 733.5,-31.5707 740.5,-31.5706"/>
</g>
<!-- Node10&#45;&gt;Node4 -->
<g id="edge24" class="edge"><title>Node10&#45;&gt;Node4</title>
<path fill="none" stroke="midnightblue" d="M501.902,-116.295C548.469,-95.4385 651.405,-49.336 704.267,-25.6603"/>
<polygon fill="midnightblue" stroke="midnightblue" points="705.834,-28.7935 713.53,-21.5117 702.973,-22.405 705.834,-28.7935"/>
</g>
<!-- Node10&#45;&gt;Node7 -->
<g id="edge26" class="edge"><title>Node10&#45;&gt;Node7</title>
<path fill="none" stroke="midnightblue" d="M454.639,-116.497C433.42,-106.956 402.006,-92.8322 378.949,-82.4655"/>
<polygon fill="midnightblue" stroke="midnightblue" points="380.189,-79.1856 369.633,-78.277 377.319,-85.5699 380.189,-79.1856"/>
</g>
<!-- Node10&#45;&gt;Node8 -->
<g id="edge28" class="edge"><title>Node10&#45;&gt;Node8</title>
<path fill="none" stroke="midnightblue" d="M472.33,-116.295C463.439,-100.666 444.652,-71.9484 420,-58 378,-34.2365 241.172,-20.1854 169.579,-14.2838"/>
<polygon fill="midnightblue" stroke="midnightblue" points="169.758,-10.7869 159.509,-13.472 169.195,-17.7643 169.758,-10.7869"/>
</g>
<!-- Node10&#45;&gt;Node9 -->
<g id="edge30" class="edge"><title>Node10&#45;&gt;Node9</title>
<path fill="none" stroke="midnightblue" d="M522.524,-117.029C568.433,-106.749 639.853,-90.7548 687.507,-80.0833"/>
<polygon fill="midnightblue" stroke="midnightblue" points="688.304,-83.4916 697.298,-77.8909 686.775,-76.6608 688.304,-83.4916"/>
</g>
<!-- Node11&#45;&gt;Node4 -->
<g id="edge34" class="edge"><title>Node11&#45;&gt;Node4</title>
<path fill="none" stroke="midnightblue" d="M802.778,-116.031C800.807,-101.81 795.973,-76.6282 785,-58 778.407,-46.8076 768.466,-36.458 759.337,-28.3362"/>
<polygon fill="midnightblue" stroke="midnightblue" points="761.522,-25.5997 751.629,-21.8072 756.997,-30.9412 761.522,-25.5997"/>
</g>
<!-- Node11&#45;&gt;Node9 -->
<g id="edge36" class="edge"><title>Node11&#45;&gt;Node9</title>
<path fill="none" stroke="midnightblue" d="M791.711,-116.362C781.983,-107.941 768.202,-96.0105 756.905,-86.2308"/>
<polygon fill="midnightblue" stroke="midnightblue" points="759.062,-83.4695 749.211,-79.5707 754.481,-88.7619 759.062,-83.4695"/>
</g>
<!-- Node12&#45;&gt;Node4 -->
<g id="edge40" class="edge"><title>Node12&#45;&gt;Node4</title>
<path fill="none" stroke="midnightblue" d="M1007.24,-58.4966C939.222,-46.542 830.254,-27.3901 773.712,-17.4523"/>
<polygon fill="midnightblue" stroke="midnightblue" points="774.241,-13.9918 763.786,-15.7078 773.029,-20.8861 774.241,-13.9918"/>
</g>
<!-- Node13&#45;&gt;Node4 -->
<g id="edge46" class="edge"><title>Node13&#45;&gt;Node4</title>
<path fill="none" stroke="midnightblue" d="M130.114,-116.3C145.887,-100.401 178.075,-71.0177 212,-58 301.517,-23.6504 596.26,-14.0433 700.266,-11.6879"/>
<polygon fill="midnightblue" stroke="midnightblue" points="700.369,-15.1866 710.29,-11.4701 700.217,-8.1882 700.369,-15.1866"/>
</g>
<!-- Node13&#45;&gt;Node8 -->
<g id="edge44" class="edge"><title>Node13&#45;&gt;Node8</title>
<path fill="none" stroke="midnightblue" d="M107.097,-116.469C92.6602,-103.319 72.3549,-79.8843 81,-58 85.5276,-46.5388 94.3162,-36.2323 102.856,-28.2117"/>
<polygon fill="midnightblue" stroke="midnightblue" points="105.28,-30.7411 110.499,-21.5208 100.67,-25.474 105.28,-30.7411"/>
</g>
<!-- Node14 -->
<g id="node38" class="node"><title>Node14</title>
<a xlink:href="cv___name_8h.html" target="_top" xlink:title="cv_Name.h">
<polygon fill="white" stroke="black" points="89.5,-58.5 89.5,-79.5 160.5,-79.5 160.5,-58.5 89.5,-58.5"/>
<text text-anchor="middle" x="125" y="-66.5" font-family="DejaVuSans" font-size="10.00">cv_Name.h</text>
</a>
</g>
<!-- Node13&#45;&gt;Node14 -->
<g id="edge48" class="edge"><title>Node13&#45;&gt;Node14</title>
<path fill="none" stroke="midnightblue" d="M120.917,-116.362C121.558,-108.922 122.436,-98.7427 123.213,-89.7276"/>
<polygon fill="midnightblue" stroke="midnightblue" points="126.717,-89.8343 124.089,-79.5707 119.743,-89.2331 126.717,-89.8343"/>
</g>
<!-- Node14&#45;&gt;Node4 -->
<g id="edge52" class="edge"><title>Node14&#45;&gt;Node4</title>
<path fill="none" stroke="midnightblue" d="M160.752,-60.3777C165.196,-59.4823 169.691,-58.6603 174,-58 371.042,-27.805 610.067,-15.9306 700.223,-12.3186"/>
<polygon fill="midnightblue" stroke="midnightblue" points="700.611,-15.8062 710.467,-11.9184 700.338,-8.8115 700.611,-15.8062"/>
</g>
<!-- Node14&#45;&gt;Node8 -->
<g id="edge50" class="edge"><title>Node14&#45;&gt;Node8</title>
<path fill="none" stroke="midnightblue" d="M125,-58.3619C125,-50.9219 125,-40.7427 125,-31.7276"/>
<polygon fill="midnightblue" stroke="midnightblue" points="128.5,-31.5706 125,-21.5707 121.5,-31.5707 128.5,-31.5706"/>
</g>
<!-- Node15&#45;&gt;Node4 -->
<g id="edge56" class="edge"><title>Node15&#45;&gt;Node4</title>
<path fill="none" stroke="midnightblue" d="M1242.58,-174.349C1236.12,-164.935 1226.62,-150.758 1219,-138 1198.31,-103.339 1209.49,-80.5295 1176,-58 1142.9,-35.7362 873.362,-18.6032 773.788,-12.9777"/>
<polygon fill="midnightblue" stroke="midnightblue" points="773.779,-9.4719 763.6,-12.4089 773.389,-16.461 773.779,-9.4719"/>
</g>
<!-- Node16 -->
<g id="node45" class="node"><title>Node16</title>
<polygon fill="white" stroke="#bfbfbf" points="1289.5,-116.5 1289.5,-137.5 1338.5,-137.5 1338.5,-116.5 1289.5,-116.5"/>
<text text-anchor="middle" x="1314" y="-124.5" font-family="DejaVuSans" font-size="10.00">QColor</text>
</g>
<!-- Node15&#45;&gt;Node16 -->
<g id="edge58" class="edge"><title>Node15&#45;&gt;Node16</title>
<path fill="none" stroke="midnightblue" d="M1261.74,-174.362C1270.94,-166.023 1283.94,-154.242 1294.67,-144.516"/>
<polygon fill="midnightblue" stroke="midnightblue" points="1297.28,-146.879 1302.34,-137.571 1292.58,-141.692 1297.28,-146.879"/>
</g>
<!-- Node17 -->
<g id="node47" class="node"><title>Node17</title>
<polygon fill="white" stroke="#bfbfbf" points="1227.5,-116.5 1227.5,-137.5 1272.5,-137.5 1272.5,-116.5 1227.5,-116.5"/>
<text text-anchor="middle" x="1250" y="-124.5" font-family="DejaVuSans" font-size="10.00">QFont</text>
</g>
<!-- Node15&#45;&gt;Node17 -->
<g id="edge60" class="edge"><title>Node15&#45;&gt;Node17</title>
<path fill="none" stroke="midnightblue" d="M1250,-174.362C1250,-166.922 1250,-156.743 1250,-147.728"/>
<polygon fill="midnightblue" stroke="midnightblue" points="1253.5,-147.571 1250,-137.571 1246.5,-147.571 1253.5,-147.571"/>
</g>
<!-- Node18&#45;&gt;Node5 -->
<g id="edge112" class="edge"><title>Node18&#45;&gt;Node5</title>
<path fill="none" stroke="midnightblue" d="M807.202,-348.453C800.687,-329.737 787.633,-289.355 783,-254 781.73,-244.305 782.896,-241.777 783,-232 783.091,-223.472 783.274,-214.074 783.459,-205.938"/>
<polygon fill="midnightblue" stroke="midnightblue" points="786.961,-205.908 783.704,-195.826 779.963,-205.738 786.961,-205.908"/>
</g>
<!-- Node18&#45;&gt;Node9 -->
<g id="edge110" class="edge"><title>Node18&#45;&gt;Node9</title>
<path fill="none" stroke="midnightblue" d="M854.148,-348.496C925.913,-329.752 1062,-288.245 1062,-243 1062,-243 1062,-243 1062,-185 1062,-134.597 1017.9,-136.816 972,-116 911.684,-88.6481 835.519,-77.1392 786.535,-72.3461"/>
<polygon fill="midnightblue" stroke="midnightblue" points="786.789,-68.8548 776.51,-71.422 786.147,-75.8253 786.789,-68.8548"/>
</g>
<!-- Node19 -->
<g id="node52" class="node"><title>Node19</title>
<polygon fill="white" stroke="#bfbfbf" points="791.5,-232.5 791.5,-253.5 830.5,-253.5 830.5,-232.5 791.5,-232.5"/>
<text text-anchor="middle" x="811" y="-240.5" font-family="DejaVuSans" font-size="10.00">QFile</text>
</g>
<!-- Node18&#45;&gt;Node19 -->
<g id="edge66" class="edge"><title>Node18&#45;&gt;Node19</title>
<path fill="none" stroke="midnightblue" d="M811,-348.295C811,-329.131 811,-288.654 811,-263.843"/>
<polygon fill="midnightblue" stroke="midnightblue" points="814.5,-263.679 811,-253.679 807.5,-263.679 814.5,-263.679"/>
</g>
<!-- Node20 -->
<g id="node54" class="node"><title>Node20</title>
<a xlink:href="_storage_template_8h.html" target="_top" xlink:title="../Storage/StorageTemplate.h">
<polygon fill="white" stroke="black" points="253,-232.5 253,-253.5 411,-253.5 411,-232.5 253,-232.5"/>
<text text-anchor="middle" x="332" y="-240.5" font-family="DejaVuSans" font-size="10.00">../Storage/StorageTemplate.h</text>
</a>
</g>
<!-- Node18&#45;&gt;Node20 -->
<g id="edge68" class="edge"><title>Node18&#45;&gt;Node20</title>
<path fill="none" stroke="midnightblue" d="M767.222,-348.398C679.115,-327.061 480.674,-279.004 385.239,-255.893"/>
<polygon fill="midnightblue" stroke="midnightblue" points="386.046,-252.487 375.503,-253.535 384.398,-259.291 386.046,-252.487"/>
</g>
<!-- Node23 -->
<g id="node67" class="node"><title>Node23</title>
<polygon fill="white" stroke="#bfbfbf" points="-0.5,-174.5 -0.5,-195.5 54.5,-195.5 54.5,-174.5 -0.5,-174.5"/>
<text text-anchor="middle" x="27" y="-182.5" font-family="DejaVuSans" font-size="10.00">QObject</text>
</g>
<!-- Node18&#45;&gt;Node23 -->
<g id="edge114" class="edge"><title>Node18&#45;&gt;Node23</title>
<path fill="none" stroke="midnightblue" d="M754.326,-349.079C751.514,-348.69 748.727,-348.328 746,-348 523.472,-321.27 463.578,-351.729 243,-312 152.754,-295.746 108.868,-319.798 45,-254 32.5799,-241.204 28.4378,-220.964 27.1903,-205.707"/>
<polygon fill="midnightblue" stroke="midnightblue" points="30.6836,-205.48 26.7166,-195.656 23.6914,-205.81 30.6836,-205.48"/>
</g>
<!-- Node24 -->
<g id="node69" class="node"><title>Node24</title>
<a xlink:href="_storage_character_8h.html" target="_top" xlink:title="../Storage/StorageCharacter.h">
<polygon fill="white" stroke="black" points="251.5,-290.5 251.5,-311.5 412.5,-311.5 412.5,-290.5 251.5,-290.5"/>
<text text-anchor="middle" x="332" y="-298.5" font-family="DejaVuSans" font-size="10.00">../Storage/StorageCharacter.h</text>
</a>
</g>
<!-- Node18&#45;&gt;Node24 -->
<g id="edge90" class="edge"><title>Node18&#45;&gt;Node24</title>
<path fill="none" stroke="midnightblue" d="M754.308,-349.219C751.501,-348.793 748.72,-348.384 746,-348 635.015,-332.321 506.71,-318.403 422.713,-309.859"/>
<polygon fill="midnightblue" stroke="midnightblue" points="422.995,-306.37 412.693,-308.844 422.289,-313.334 422.995,-306.37"/>
</g>
<!-- Node26 -->
<g id="node84" class="node"><title>Node26</title>
<a xlink:href="_read_xml_8h.html" target="_top" xlink:title="ReadXml.h">
<polygon fill="white" stroke="black" points="869.5,-290.5 869.5,-311.5 936.5,-311.5 936.5,-290.5 869.5,-290.5"/>
<text text-anchor="middle" x="903" y="-298.5" font-family="DejaVuSans" font-size="10.00">ReadXml.h</text>
</a>
</g>
<!-- Node18&#45;&gt;Node26 -->
<g id="edge116" class="edge"><title>Node18&#45;&gt;Node26</title>
<path fill="none" stroke="midnightblue" d="M827.874,-348.362C841.751,-339.614 861.634,-327.079 877.46,-317.101"/>
<polygon fill="midnightblue" stroke="midnightblue" points="879.64,-319.864 886.233,-311.571 875.907,-313.943 879.64,-319.864"/>
</g>
<!-- Node20&#45;&gt;Node5 -->
<g id="edge74" class="edge"><title>Node20&#45;&gt;Node5</title>
<path fill="none" stroke="midnightblue" d="M411.194,-233.031C485.926,-223.596 601.095,-208.983 701,-196 704.863,-195.498 708.826,-194.981 712.827,-194.457"/>
<polygon fill="midnightblue" stroke="midnightblue" points="713.353,-197.918 722.812,-193.145 712.442,-190.977 713.353,-197.918"/>
</g>
<!-- Node20&#45;&gt;Node7 -->
<g id="edge70" class="edge"><title>Node20&#45;&gt;Node7</title>
<path fill="none" stroke="midnightblue" d="M333.038,-232.377C335.782,-204.293 343.268,-127.673 346.928,-90.2027"/>
<polygon fill="midnightblue" stroke="midnightblue" points="350.443,-90.2207 347.932,-79.9277 343.476,-89.54 350.443,-90.2207"/>
</g>
<!-- Node20&#45;&gt;Node8 -->
<g id="edge72" class="edge"><title>Node20&#45;&gt;Node8</title>
<path fill="none" stroke="midnightblue" d="M267.882,-232.473C229.567,-224.946 180.445,-213.093 139,-196 92.9164,-176.994 67.4943,-181.416 43,-138 20.0139,-97.2569 68.7879,-51.6827 100.538,-27.7561"/>
<polygon fill="midnightblue" stroke="midnightblue" points="102.954,-30.326 108.968,-21.6036 98.8271,-24.6718 102.954,-30.326"/>
</g>
<!-- Node21 -->
<g id="node59" class="node"><title>Node21</title>
<a xlink:href="cv___identity_list_8h.html" target="_top" xlink:title="../Datatypes/cv_IdentityList.h">
<polygon fill="white" stroke="black" points="147.5,-174.5 147.5,-195.5 302.5,-195.5 302.5,-174.5 147.5,-174.5"/>
<text text-anchor="middle" x="225" y="-182.5" font-family="DejaVuSans" font-size="10.00">../Datatypes/cv_IdentityList.h</text>
</a>
</g>
<!-- Node20&#45;&gt;Node21 -->
<g id="edge76" class="edge"><title>Node20&#45;&gt;Node21</title>
<path fill="none" stroke="midnightblue" d="M312.375,-232.362C295.859,-223.409 272.026,-210.491 253.422,-200.406"/>
<polygon fill="midnightblue" stroke="midnightblue" points="254.96,-197.259 244.501,-195.571 251.625,-203.413 254.96,-197.259"/>
</g>
<!-- Node22 -->
<g id="node64" class="node"><title>Node22</title>
<a xlink:href="cv___super_effect_8h.html" target="_top" xlink:title="../Datatypes/cv_SuperEffect.h">
<polygon fill="white" stroke="black" points="540,-116.5 540,-137.5 698,-137.5 698,-116.5 540,-116.5"/>
<text text-anchor="middle" x="619" y="-124.5" font-family="DejaVuSans" font-size="10.00">../Datatypes/cv_SuperEffect.h</text>
</a>
</g>
<!-- Node20&#45;&gt;Node22 -->
<g id="edge84" class="edge"><title>Node20&#45;&gt;Node22</title>
<path fill="none" stroke="midnightblue" d="M358.23,-232.398C409.9,-211.514 524.9,-165.033 583.377,-141.398"/>
<polygon fill="midnightblue" stroke="midnightblue" points="584.975,-144.527 592.935,-137.535 582.352,-138.038 584.975,-144.527"/>
</g>
<!-- Node20&#45;&gt;Node23 -->
<g id="edge88" class="edge"><title>Node20&#45;&gt;Node23</title>
<path fill="none" stroke="midnightblue" d="M276.767,-232.497C215.45,-220.836 118.127,-202.329 64.8787,-192.203"/>
<polygon fill="midnightblue" stroke="midnightblue" points="65.3182,-188.724 54.8403,-190.294 64.0104,-195.601 65.3182,-188.724"/>
</g>
<!-- Node21&#45;&gt;Node4 -->
<g id="edge78" class="edge"><title>Node21&#45;&gt;Node4</title>
<path fill="none" stroke="midnightblue" d="M228.135,-174.158C236.079,-148.85 259.594,-85.9161 304,-58 337.238,-37.105 601.523,-19.1799 700.101,-13.1578"/>
<polygon fill="midnightblue" stroke="midnightblue" points="700.427,-16.6446 710.197,-12.5474 700.004,-9.65733 700.427,-16.6446"/>
</g>
<!-- Node21&#45;&gt;Node7 -->
<g id="edge82" class="edge"><title>Node21&#45;&gt;Node7</title>
<path fill="none" stroke="midnightblue" d="M236.443,-174.295C257.851,-154.268 304.142,-110.964 330.198,-86.5893"/>
<polygon fill="midnightblue" stroke="midnightblue" points="332.673,-89.0668 337.584,-79.6792 327.89,-83.9548 332.673,-89.0668"/>
</g>
<!-- Node21&#45;&gt;Node13 -->
<g id="edge80" class="edge"><title>Node21&#45;&gt;Node13</title>
<path fill="none" stroke="midnightblue" d="M205.741,-174.362C189.534,-165.409 166.147,-152.491 147.891,-142.406"/>
<polygon fill="midnightblue" stroke="midnightblue" points="149.582,-139.342 139.137,-137.571 146.198,-145.47 149.582,-139.342"/>
</g>
<!-- Node22&#45;&gt;Node9 -->
<g id="edge86" class="edge"><title>Node22&#45;&gt;Node9</title>
<path fill="none" stroke="midnightblue" d="M640.369,-116.497C658.799,-107.438 685.637,-94.2462 706.355,-84.0628"/>
<polygon fill="midnightblue" stroke="midnightblue" points="707.961,-87.1735 715.391,-79.6212 704.873,-80.8914 707.961,-87.1735"/>
</g>
<!-- Node24&#45;&gt;Node5 -->
<g id="edge96" class="edge"><title>Node24&#45;&gt;Node5</title>
<path fill="none" stroke="midnightblue" d="M373.31,-290.398C456.283,-269.104 642.95,-221.199 733.215,-198.033"/>
<polygon fill="midnightblue" stroke="midnightblue" points="734.133,-201.411 742.949,-195.535 732.393,-194.631 734.133,-201.411"/>
</g>
<!-- Node24&#45;&gt;Node13 -->
<g id="edge92" class="edge"><title>Node24&#45;&gt;Node13</title>
<path fill="none" stroke="midnightblue" d="M292.312,-290.493C247.775,-276.554 176.823,-247.494 139,-196 128.684,-181.955 123.969,-162.59 121.813,-147.949"/>
<polygon fill="midnightblue" stroke="midnightblue" points="125.268,-147.358 120.614,-137.84 118.317,-148.183 125.268,-147.358"/>
</g>
<!-- Node24&#45;&gt;Node20 -->
<g id="edge106" class="edge"><title>Node24&#45;&gt;Node20</title>
<path fill="none" stroke="midnightblue" d="M332,-290.362C332,-282.922 332,-272.743 332,-263.728"/>
<polygon fill="midnightblue" stroke="midnightblue" points="335.5,-263.571 332,-253.571 328.5,-263.571 335.5,-263.571"/>
</g>
<!-- Node24&#45;&gt;Node21 -->
<g id="edge94" class="edge"><title>Node24&#45;&gt;Node21</title>
<path fill="none" stroke="midnightblue" d="M298.384,-290.487C279.845,-283.065 257.845,-271.315 244,-254 232.994,-240.235 228.351,-220.541 226.399,-205.713"/>
<polygon fill="midnightblue" stroke="midnightblue" points="229.855,-205.101 225.37,-195.503 222.891,-205.803 229.855,-205.101"/>
</g>
<!-- Node24&#45;&gt;Node23 -->
<g id="edge108" class="edge"><title>Node24&#45;&gt;Node23</title>
<path fill="none" stroke="midnightblue" d="M251.422,-294.036C184.996,-286.972 97.1404,-274.169 68,-254 50.9879,-242.226 39.9176,-220.899 33.6194,-205.061"/>
<polygon fill="midnightblue" stroke="midnightblue" points="36.8806,-203.788 30.1552,-195.601 30.3075,-206.195 36.8806,-203.788"/>
</g>
<!-- Node25 -->
<g id="node74" class="node"><title>Node25</title>
<a xlink:href="cv___derangement_8h.html" target="_top" xlink:title="../Datatypes/cv_Derangement.h">
<polygon fill="white" stroke="black" points="522,-174.5 522,-195.5 692,-195.5 692,-174.5 522,-174.5"/>
<text text-anchor="middle" x="607" y="-182.5" font-family="DejaVuSans" font-size="10.00">../Datatypes/cv_Derangement.h</text>
</a>
</g>
<!-- Node24&#45;&gt;Node25 -->
<g id="edge98" class="edge"><title>Node24&#45;&gt;Node25</title>
<path fill="none" stroke="midnightblue" d="M357.378,-290.295C406.925,-269.395 516.571,-223.145 572.594,-199.513"/>
<polygon fill="midnightblue" stroke="midnightblue" points="574.227,-202.623 582.08,-195.512 571.506,-196.173 574.227,-202.623"/>
</g>
<!-- Node25&#45;&gt;Node4 -->
<g id="edge100" class="edge"><title>Node25&#45;&gt;Node4</title>
<path fill="none" stroke="midnightblue" d="M521.715,-176.493C415.715,-162.718 256.101,-129.506 320,-58 345.15,-29.8559 602.837,-16.4785 700.104,-12.403"/>
<polygon fill="midnightblue" stroke="midnightblue" points="700.497,-15.8899 710.346,-11.9836 700.211,-8.89581 700.497,-15.8899"/>
</g>
<!-- Node25&#45;&gt;Node9 -->
<g id="edge102" class="edge"><title>Node25&#45;&gt;Node9</title>
<path fill="none" stroke="midnightblue" d="M645.144,-174.363C665.672,-166.996 690.16,-155.339 707,-138 720.035,-124.578 727.875,-104.575 732.253,-89.5571"/>
<polygon fill="midnightblue" stroke="midnightblue" points="735.695,-90.2294 734.853,-79.668 728.925,-88.449 735.695,-90.2294"/>
</g>
<!-- Node25&#45;&gt;Node11 -->
<g id="edge104" class="edge"><title>Node25&#45;&gt;Node11</title>
<path fill="none" stroke="midnightblue" d="M642.675,-174.497C675.07,-164.959 723.023,-150.841 758.231,-140.475"/>
<polygon fill="midnightblue" stroke="midnightblue" points="759.654,-143.705 768.258,-137.523 757.676,-136.99 759.654,-143.705"/>
</g>
<!-- Node26&#45;&gt;Node5 -->
<g id="edge122" class="edge"><title>Node26&#45;&gt;Node5</title>
<path fill="none" stroke="midnightblue" d="M925.579,-290.302C950.215,-277.174 984.023,-253.948 967,-232 953.076,-214.048 900.639,-201.762 855.445,-194.267"/>
<polygon fill="midnightblue" stroke="midnightblue" points="855.763,-190.774 845.335,-192.648 854.656,-197.686 855.763,-190.774"/>
</g>
<!-- Node26&#45;&gt;Node9 -->
<g id="edge120" class="edge"><title>Node26&#45;&gt;Node9</title>
<path fill="none" stroke="midnightblue" d="M936.54,-290.683C953.995,-283.415 973.776,-271.752 984,-254 1007.56,-213.092 1025.08,-187.454 947,-116 923.955,-94.9115 841.412,-81.3192 786.934,-74.4282"/>
<polygon fill="midnightblue" stroke="midnightblue" points="787.127,-70.9255 776.774,-73.1791 786.272,-77.8732 787.127,-70.9255"/>
</g>
<!-- Node26&#45;&gt;Node19 -->
<g id="edge118" class="edge"><title>Node26&#45;&gt;Node19</title>
<path fill="none" stroke="midnightblue" d="M886.126,-290.362C872.249,-281.614 852.366,-269.079 836.54,-259.101"/>
<polygon fill="midnightblue" stroke="midnightblue" points="838.093,-255.943 827.767,-253.571 834.36,-261.864 838.093,-255.943"/>
</g>
<!-- Node27 -->
<g id="node89" class="node"><title>Node27</title>
<polygon fill="white" stroke="#bfbfbf" points="847.5,-232.5 847.5,-253.5 958.5,-253.5 958.5,-232.5 847.5,-232.5"/>
<text text-anchor="middle" x="903" y="-240.5" font-family="DejaVuSans" font-size="10.00">QXmlStreamReader</text>
</g>
<!-- Node26&#45;&gt;Node27 -->
<g id="edge124" class="edge"><title>Node26&#45;&gt;Node27</title>
<path fill="none" stroke="midnightblue" d="M903,-290.362C903,-282.922 903,-272.743 903,-263.728"/>
<polygon fill="midnightblue" stroke="midnightblue" points="906.5,-263.571 903,-253.571 899.5,-263.571 906.5,-263.571"/>
</g>
</g>
</svg>
