<?xml version="1.0" encoding="UTF-8" standalone="no"?>
<!DOCTYPE svg PUBLIC "-//W3C//DTD SVG 1.1//EN"
 "http://www.w3.org/Graphics/SVG/1.1/DTD/svg11.dtd">
<!-- Generated by graphviz version 2.26.3 (20100126.1600)
 -->
<!-- Title: G Pages: 1 -->
<svg width="870pt" height="320pt"
 viewBox="0.00 0.00 869.68 320.00" xmlns="http://www.w3.org/2000/svg" xmlns:xlink="http://www.w3.org/1999/xlink">
<g id="graph1" class="graph" transform="scale(1 1) rotate(0) translate(4 316)">
<title>G</title>
<polygon fill="white" stroke="white" points="-4,5 -4,-316 866.676,-316 866.676,5 -4,5"/>
<!-- Node1 -->
<g id="node1" class="node"><title>Node1</title>
<polygon fill="#bfbfbf" stroke="black" points="542.203,-290.5 542.203,-311.5 682.203,-311.5 682.203,-290.5 542.203,-290.5"/>
<text text-anchor="middle" x="612.203" y="-298.5" font-family="DejaVuSans" font-size="10.00">src/IO/ReadXmlTemplate.h</text>
</g>
<!-- Node2 -->
<g id="node3" class="node"><title>Node2</title>
<polygon fill="white" stroke="#bfbfbf" points="809.703,-174.5 809.703,-195.5 848.703,-195.5 848.703,-174.5 809.703,-174.5"/>
<text text-anchor="middle" x="829.203" y="-182.5" font-family="DejaVuSans" font-size="10.00">QFile</text>
</g>
<!-- Node1&#45;&gt;Node2 -->
<g id="edge2" class="edge"><title>Node1&#45;&gt;Node2</title>
<path fill="none" stroke="midnightblue" d="M632.229,-290.295C670.921,-269.612 756.06,-224.099 800.667,-200.254"/>
<polygon fill="midnightblue" stroke="midnightblue" points="802.37,-203.313 809.539,-195.512 799.07,-197.139 802.37,-203.313"/>
</g>
<!-- Node3 -->
<g id="node5" class="node"><title>Node3</title>
<a xlink:href="_storage_template_8h.html" target="_top" xlink:title="../Storage/StorageTemplate.h">
<polygon fill="white" stroke="black" points="283.203,-232.5 283.203,-253.5 441.203,-253.5 441.203,-232.5 283.203,-232.5"/>
<text text-anchor="middle" x="362.203" y="-240.5" font-family="DejaVuSans" font-size="10.00">../Storage/StorageTemplate.h</text>
</a>
</g>
<!-- Node1&#45;&gt;Node3 -->
<g id="edge4" class="edge"><title>Node1&#45;&gt;Node3</title>
<path fill="none" stroke="midnightblue" d="M566.93,-290.497C524.939,-280.755 462.345,-266.233 417.432,-255.813"/>
<polygon fill="midnightblue" stroke="midnightblue" points="418.094,-252.374 407.561,-253.523 416.512,-259.193 418.094,-252.374"/>
</g>
<!-- Node6 -->
<g id="node11" class="node"><title>Node6</title>
<a xlink:href="cv___trait_8h.html" target="_top" xlink:title="../Datatypes/cv_Trait.h">
<polygon fill="white" stroke="black" points="407.203,-174.5 407.203,-195.5 529.203,-195.5 529.203,-174.5 407.203,-174.5"/>
<text text-anchor="middle" x="468.203" y="-182.5" font-family="DejaVuSans" font-size="10.00">../Datatypes/cv_Trait.h</text>
</a>
</g>
<!-- Node1&#45;&gt;Node6 -->
<g id="edge66" class="edge"><title>Node1&#45;&gt;Node6</title>
<path fill="none" stroke="midnightblue" d="M598.914,-290.295C573.839,-270.096 519.368,-226.216 489.261,-201.963"/>
<polygon fill="midnightblue" stroke="midnightblue" points="491.444,-199.227 481.46,-195.679 487.052,-204.678 491.444,-199.227"/>
</g>
<!-- Node9 -->
<g id="node19" class="node"><title>Node9</title>
<a xlink:href="cv___species_8h.html" target="_top" xlink:title="cv_Species.h">
<polygon fill="white" stroke="black" points="584.703,-58.5 584.703,-79.5 663.703,-79.5 663.703,-58.5 584.703,-58.5"/>
<text text-anchor="middle" x="624.203" y="-66.5" font-family="DejaVuSans" font-size="10.00">cv_Species.h</text>
</a>
</g>
<!-- Node1&#45;&gt;Node9 -->
<g id="edge64" class="edge"><title>Node1&#45;&gt;Node9</title>
<path fill="none" stroke="midnightblue" d="M682.292,-292.45C740.488,-281.198 819.599,-255.308 857.203,-196 871.422,-173.576 847,-124.731 837.203,-116 813.451,-94.8304 729.105,-81.2016 673.948,-74.3353"/>
<polygon fill="midnightblue" stroke="midnightblue" points="674.358,-70.8595 664.01,-73.1316 673.517,-77.8087 674.358,-70.8595"/>
</g>
<!-- Node16 -->
<g id="node47" class="node"><title>Node16</title>
<polygon fill="white" stroke="#bfbfbf" points="334.703,-174.5 334.703,-195.5 389.703,-195.5 389.703,-174.5 334.703,-174.5"/>
<text text-anchor="middle" x="362.203" y="-182.5" font-family="DejaVuSans" font-size="10.00">QObject</text>
</g>
<!-- Node1&#45;&gt;Node16 -->
<g id="edge68" class="edge"><title>Node1&#45;&gt;Node16</title>
<path fill="none" stroke="midnightblue" d="M589.132,-290.295C544.276,-269.482 445.236,-223.527 394.117,-199.808"/>
<polygon fill="midnightblue" stroke="midnightblue" points="395.402,-196.546 384.858,-195.512 392.456,-202.896 395.402,-196.546"/>
</g>
<!-- Node17 -->
<g id="node52" class="node"><title>Node17</title>
<a xlink:href="_read_xml_8h.html" target="_top" xlink:title="ReadXml.h">
<polygon fill="white" stroke="black" points="620.703,-232.5 620.703,-253.5 687.703,-253.5 687.703,-232.5 620.703,-232.5"/>
<text text-anchor="middle" x="654.203" y="-240.5" font-family="DejaVuSans" font-size="10.00">ReadXml.h</text>
</a>
</g>
<!-- Node1&#45;&gt;Node17 -->
<g id="edge70" class="edge"><title>Node1&#45;&gt;Node17</title>
<path fill="none" stroke="midnightblue" d="M619.907,-290.362C625.65,-282.431 633.646,-271.389 640.473,-261.961"/>
<polygon fill="midnightblue" stroke="midnightblue" points="643.518,-263.723 646.549,-253.571 637.849,-259.617 643.518,-263.723"/>
</g>
<!-- Node4 -->
<g id="node7" class="node"><title>Node4</title>
<polygon fill="white" stroke="#bfbfbf" points="230.703,-58.5 230.703,-79.5 271.703,-79.5 271.703,-58.5 230.703,-58.5"/>
<text text-anchor="middle" x="251.203" y="-66.5" font-family="DejaVuSans" font-size="10.00">QList</text>
</g>
<!-- Node3&#45;&gt;Node4 -->
<g id="edge6" class="edge"><title>Node3&#45;&gt;Node4</title>
<path fill="none" stroke="midnightblue" d="M346.381,-232.264C322.843,-215.315 279.234,-179.937 259.203,-138 252.067,-123.06 250.284,-104.298 250.165,-90.1112"/>
<polygon fill="midnightblue" stroke="midnightblue" points="253.669,-89.9385 250.356,-79.875 246.67,-89.808 253.669,-89.9385"/>
</g>
<!-- Node5 -->
<g id="node9" class="node"><title>Node5</title>
<polygon fill="white" stroke="#bfbfbf" points="4.70343,-0.5 4.70343,-21.5 73.7034,-21.5 73.7034,-0.5 4.70343,-0.5"/>
<text text-anchor="middle" x="39.2034" y="-8.5" font-family="DejaVuSans" font-size="10.00">QStringList</text>
</g>
<!-- Node3&#45;&gt;Node5 -->
<g id="edge8" class="edge"><title>Node3&#45;&gt;Node5</title>
<path fill="none" stroke="midnightblue" d="M282.827,-236.63C190.193,-228.455 47.2908,-213.253 29.2034,-196 -15.4052,-153.449 0.785493,-117.938 15.2034,-58 17.5136,-48.3962 22.1346,-38.5455 26.7103,-30.3593"/>
<polygon fill="midnightblue" stroke="midnightblue" points="29.8015,-32.0094 31.9199,-21.6285 23.7902,-28.4225 29.8015,-32.0094"/>
</g>
<!-- Node3&#45;&gt;Node6 -->
<g id="edge10" class="edge"><title>Node3&#45;&gt;Node6</title>
<path fill="none" stroke="midnightblue" d="M381.645,-232.362C398.007,-223.409 421.617,-210.491 440.047,-200.406"/>
<polygon fill="midnightblue" stroke="midnightblue" points="441.792,-203.441 448.885,-195.571 438.432,-197.3 441.792,-203.441"/>
</g>
<!-- Node12 -->
<g id="node32" class="node"><title>Node12</title>
<a xlink:href="cv___identity_list_8h.html" target="_top" xlink:title="../Datatypes/cv_IdentityList.h">
<polygon fill="white" stroke="black" points="37.7034,-174.5 37.7034,-195.5 192.703,-195.5 192.703,-174.5 37.7034,-174.5"/>
<text text-anchor="middle" x="115.203" y="-182.5" font-family="DejaVuSans" font-size="10.00">../Datatypes/cv_IdentityList.h</text>
</a>
</g>
<!-- Node3&#45;&gt;Node12 -->
<g id="edge40" class="edge"><title>Node3&#45;&gt;Node12</title>
<path fill="none" stroke="midnightblue" d="M317.474,-232.497C275.986,-222.755 214.143,-208.233 169.769,-197.813"/>
<polygon fill="midnightblue" stroke="midnightblue" points="170.552,-194.402 160.017,-195.523 168.952,-201.216 170.552,-194.402"/>
</g>
<!-- Node15 -->
<g id="node44" class="node"><title>Node15</title>
<a xlink:href="cv___super_effect_8h.html" target="_top" xlink:title="../Datatypes/cv_SuperEffect.h">
<polygon fill="white" stroke="black" points="652.203,-116.5 652.203,-137.5 810.203,-137.5 810.203,-116.5 652.203,-116.5"/>
<text text-anchor="middle" x="731.203" y="-124.5" font-family="DejaVuSans" font-size="10.00">../Datatypes/cv_SuperEffect.h</text>
</a>
</g>
<!-- Node3&#45;&gt;Node15 -->
<g id="edge58" class="edge"><title>Node3&#45;&gt;Node15</title>
<path fill="none" stroke="midnightblue" d="M405.524,-232.49C441.325,-223.552 493.366,-209.976 538.203,-196 593.089,-178.892 655.568,-155.896 694.195,-141.257"/>
<polygon fill="midnightblue" stroke="midnightblue" points="695.855,-144.371 703.957,-137.543 693.366,-137.828 695.855,-144.371"/>
</g>
<!-- Node3&#45;&gt;Node16 -->
<g id="edge62" class="edge"><title>Node3&#45;&gt;Node16</title>
<path fill="none" stroke="midnightblue" d="M362.203,-232.362C362.203,-224.922 362.203,-214.743 362.203,-205.728"/>
<polygon fill="midnightblue" stroke="midnightblue" points="365.704,-205.571 362.203,-195.571 358.704,-205.571 365.704,-205.571"/>
</g>
<!-- Node6&#45;&gt;Node4 -->
<g id="edge16" class="edge"><title>Node6&#45;&gt;Node4</title>
<path fill="none" stroke="midnightblue" d="M414.531,-174.456C361.742,-163.664 287.579,-147.209 277.203,-138 263.335,-125.692 256.837,-105.223 253.808,-89.7682"/>
<polygon fill="midnightblue" stroke="midnightblue" points="257.214,-88.9012 252.161,-79.589 250.304,-90.0199 257.214,-88.9012"/>
</g>
<!-- Node6&#45;&gt;Node5 -->
<g id="edge18" class="edge"><title>Node6&#45;&gt;Node5</title>
<path fill="none" stroke="midnightblue" d="M407.15,-175.194C404.127,-174.775 401.132,-174.374 398.203,-174 357.78,-168.835 60.569,-168.197 33.2034,-138 6.78552,-108.848 20.0609,-58.7297 30.5646,-30.9693"/>
<polygon fill="midnightblue" stroke="midnightblue" points="33.8828,-32.0987 34.3661,-21.5148 27.3881,-29.4872 33.8828,-32.0987"/>
</g>
<!-- Node7 -->
<g id="node13" class="node"><title>Node7</title>
<polygon fill="white" stroke="#bfbfbf" points="391.703,-116.5 391.703,-137.5 440.703,-137.5 440.703,-116.5 391.703,-116.5"/>
<text text-anchor="middle" x="416.203" y="-124.5" font-family="DejaVuSans" font-size="10.00">QFlags</text>
</g>
<!-- Node6&#45;&gt;Node7 -->
<g id="edge12" class="edge"><title>Node6&#45;&gt;Node7</title>
<path fill="none" stroke="midnightblue" d="M458.666,-174.362C451.336,-166.186 441.04,-154.702 432.423,-145.091"/>
<polygon fill="midnightblue" stroke="midnightblue" points="434.962,-142.68 425.681,-137.571 429.75,-147.353 434.962,-142.68"/>
</g>
<!-- Node8 -->
<g id="node15" class="node"><title>Node8</title>
<polygon fill="white" stroke="#bfbfbf" points="310.703,-0.5 310.703,-21.5 363.703,-21.5 363.703,-0.5 310.703,-0.5"/>
<text text-anchor="middle" x="337.203" y="-8.5" font-family="DejaVuSans" font-size="10.00">QString</text>
</g>
<!-- Node6&#45;&gt;Node8 -->
<g id="edge14" class="edge"><title>Node6&#45;&gt;Node8</title>
<path fill="none" stroke="midnightblue" d="M467.108,-174.481C465.248,-160.314 460.506,-134.721 449.203,-116 426.653,-78.6487 387.146,-46.1319 361.589,-27.5395"/>
<polygon fill="midnightblue" stroke="midnightblue" points="363.359,-24.5035 353.181,-21.5588 359.301,-30.2075 363.359,-24.5035"/>
</g>
<!-- Node6&#45;&gt;Node9 -->
<g id="edge20" class="edge"><title>Node6&#45;&gt;Node9</title>
<path fill="none" stroke="midnightblue" d="M529.426,-177.023C555.997,-170.592 585.483,-158.978 605.203,-138 617.462,-124.96 621.941,-104.75 623.514,-89.5669"/>
<polygon fill="midnightblue" stroke="midnightblue" points="627.006,-89.7944 624.215,-79.5738 620.023,-89.3041 627.006,-89.7944"/>
</g>
<!-- Node10 -->
<g id="node22" class="node"><title>Node10</title>
<a xlink:href="cv___trait_detail_8h.html" target="_top" xlink:title="cv_TraitDetail.h">
<polygon fill="white" stroke="black" points="285.703,-116.5 285.703,-137.5 374.703,-137.5 374.703,-116.5 285.703,-116.5"/>
<text text-anchor="middle" x="330.203" y="-124.5" font-family="DejaVuSans" font-size="10.00">cv_TraitDetail.h</text>
</a>
</g>
<!-- Node6&#45;&gt;Node10 -->
<g id="edge24" class="edge"><title>Node6&#45;&gt;Node10</title>
<path fill="none" stroke="midnightblue" d="M443.213,-174.497C421.27,-165.275 389.138,-151.769 364.74,-141.515"/>
<polygon fill="midnightblue" stroke="midnightblue" points="366.05,-138.269 355.475,-137.621 363.337,-144.722 366.05,-138.269"/>
</g>
<!-- Node11 -->
<g id="node28" class="node"><title>Node11</title>
<a xlink:href="cv___abstract_trait_8h.html" target="_top" xlink:title="cv_AbstractTrait.h">
<polygon fill="white" stroke="black" points="495.703,-116.5 495.703,-137.5 596.703,-137.5 596.703,-116.5 495.703,-116.5"/>
<text text-anchor="middle" x="546.203" y="-124.5" font-family="DejaVuSans" font-size="10.00">cv_AbstractTrait.h</text>
</a>
</g>
<!-- Node6&#45;&gt;Node11 -->
<g id="edge34" class="edge"><title>Node6&#45;&gt;Node11</title>
<path fill="none" stroke="midnightblue" d="M482.51,-174.362C494.055,-165.777 510.504,-153.546 523.794,-143.664"/>
<polygon fill="midnightblue" stroke="midnightblue" points="526.052,-146.346 531.988,-137.571 521.875,-140.729 526.052,-146.346"/>
</g>
<!-- Node9&#45;&gt;Node8 -->
<g id="edge22" class="edge"><title>Node9&#45;&gt;Node8</title>
<path fill="none" stroke="midnightblue" d="M584.599,-60.9962C528.836,-49.7272 427.961,-29.3413 373.848,-18.4056"/>
<polygon fill="midnightblue" stroke="midnightblue" points="374.488,-14.9643 363.993,-16.414 373.102,-21.8256 374.488,-14.9643"/>
</g>
<!-- Node10&#45;&gt;Node4 -->
<g id="edge28" class="edge"><title>Node10&#45;&gt;Node4</title>
<path fill="none" stroke="midnightblue" d="M315.714,-116.362C304.021,-107.777 287.361,-95.5459 273.9,-85.6636"/>
<polygon fill="midnightblue" stroke="midnightblue" points="275.734,-82.6675 265.601,-79.5707 271.591,-88.31 275.734,-82.6675"/>
</g>
<!-- Node10&#45;&gt;Node5 -->
<g id="edge30" class="edge"><title>Node10&#45;&gt;Node5</title>
<path fill="none" stroke="midnightblue" d="M325.655,-116.413C318.423,-100.935 302.773,-72.4081 280.203,-58 248.275,-37.6176 144.531,-22.8839 84.0697,-15.779"/>
<polygon fill="midnightblue" stroke="midnightblue" points="84.3681,-12.2903 74.0332,-14.6228 83.567,-19.2443 84.3681,-12.2903"/>
</g>
<!-- Node10&#45;&gt;Node8 -->
<g id="edge26" class="edge"><title>Node10&#45;&gt;Node8</title>
<path fill="none" stroke="midnightblue" d="M330.849,-116.295C332.006,-97.1314 334.448,-56.654 335.946,-31.8434"/>
<polygon fill="midnightblue" stroke="midnightblue" points="339.45,-31.8719 336.559,-21.6792 332.463,-31.4502 339.45,-31.8719"/>
</g>
<!-- Node10&#45;&gt;Node9 -->
<g id="edge32" class="edge"><title>Node10&#45;&gt;Node9</title>
<path fill="none" stroke="midnightblue" d="M374.728,-117.718C377.596,-117.133 380.44,-116.556 383.203,-116 449.334,-102.689 525.794,-87.8758 574.546,-78.5034"/>
<polygon fill="midnightblue" stroke="midnightblue" points="575.354,-81.9121 584.514,-76.5885 574.033,-75.0378 575.354,-81.9121"/>
</g>
<!-- Node11&#45;&gt;Node8 -->
<g id="edge36" class="edge"><title>Node11&#45;&gt;Node8</title>
<path fill="none" stroke="midnightblue" d="M539.007,-116.3C528.322,-101.202 506.854,-73.7383 482.203,-58 448.637,-36.5698 404.428,-24.0934 373.688,-17.4495"/>
<polygon fill="midnightblue" stroke="midnightblue" points="374.315,-14.0052 363.814,-15.4154 372.902,-20.8612 374.315,-14.0052"/>
</g>
<!-- Node11&#45;&gt;Node9 -->
<g id="edge38" class="edge"><title>Node11&#45;&gt;Node9</title>
<path fill="none" stroke="midnightblue" d="M560.51,-116.362C572.055,-107.777 588.504,-95.5459 601.794,-85.6636"/>
<polygon fill="midnightblue" stroke="midnightblue" points="604.052,-88.3463 609.988,-79.5707 599.875,-82.7291 604.052,-88.3463"/>
</g>
<!-- Node12&#45;&gt;Node4 -->
<g id="edge56" class="edge"><title>Node12&#45;&gt;Node4</title>
<path fill="none" stroke="midnightblue" d="M127.754,-174.295C151.335,-154.182 202.442,-110.59 230.95,-86.2752"/>
<polygon fill="midnightblue" stroke="midnightblue" points="233.346,-88.8316 238.683,-79.6792 228.803,-83.5058 233.346,-88.8316"/>
</g>
<!-- Node12&#45;&gt;Node8 -->
<g id="edge42" class="edge"><title>Node12&#45;&gt;Node8</title>
<path fill="none" stroke="midnightblue" d="M121.275,-174.463C135.689,-150.351 174.374,-90.7192 222.203,-58 246.347,-41.484 277.186,-29.2763 300.85,-21.4475"/>
<polygon fill="midnightblue" stroke="midnightblue" points="302.051,-24.738 310.512,-18.3606 299.921,-18.07 302.051,-24.738"/>
</g>
<!-- Node13 -->
<g id="node35" class="node"><title>Node13</title>
<a xlink:href="cv___identity_8h.html" target="_top" xlink:title="cv_Identity.h">
<polygon fill="white" stroke="black" points="41.7034,-116.5 41.7034,-137.5 116.703,-137.5 116.703,-116.5 41.7034,-116.5"/>
<text text-anchor="middle" x="79.2034" y="-124.5" font-family="DejaVuSans" font-size="10.00">cv_Identity.h</text>
</a>
</g>
<!-- Node12&#45;&gt;Node13 -->
<g id="edge44" class="edge"><title>Node12&#45;&gt;Node13</title>
<path fill="none" stroke="midnightblue" d="M108.6,-174.362C103.729,-166.513 96.965,-155.616 91.1534,-146.253"/>
<polygon fill="midnightblue" stroke="midnightblue" points="94.0119,-144.221 85.7645,-137.571 88.0645,-147.913 94.0119,-144.221"/>
</g>
<!-- Node13&#45;&gt;Node5 -->
<g id="edge46" class="edge"><title>Node13&#45;&gt;Node5</title>
<path fill="none" stroke="midnightblue" d="M73.8932,-116.363C69.3339,-106.958 62.7906,-92.7866 58.2034,-80 52.5091,-64.1274 47.5124,-45.6914 44.074,-31.8711"/>
<polygon fill="midnightblue" stroke="midnightblue" points="47.4188,-30.8119 41.667,-21.9143 40.6148,-32.4567 47.4188,-30.8119"/>
</g>
<!-- Node13&#45;&gt;Node8 -->
<g id="edge48" class="edge"><title>Node13&#45;&gt;Node8</title>
<path fill="none" stroke="midnightblue" d="M93.4759,-116.385C113.836,-101.638 152.794,-74.8687 189.203,-58 225.795,-41.047 270.157,-27.8584 300.715,-19.8235"/>
<polygon fill="midnightblue" stroke="midnightblue" points="301.707,-23.1823 310.517,-17.2982 299.96,-16.4036 301.707,-23.1823"/>
</g>
<!-- Node14 -->
<g id="node39" class="node"><title>Node14</title>
<a xlink:href="cv___name_8h.html" target="_top" xlink:title="cv_Name.h">
<polygon fill="white" stroke="black" points="66.7034,-58.5 66.7034,-79.5 137.703,-79.5 137.703,-58.5 66.7034,-58.5"/>
<text text-anchor="middle" x="102.203" y="-66.5" font-family="DejaVuSans" font-size="10.00">cv_Name.h</text>
</a>
</g>
<!-- Node13&#45;&gt;Node14 -->
<g id="edge50" class="edge"><title>Node13&#45;&gt;Node14</title>
<path fill="none" stroke="midnightblue" d="M83.422,-116.362C86.4372,-108.758 90.5869,-98.294 94.2189,-89.1349"/>
<polygon fill="midnightblue" stroke="midnightblue" points="97.5788,-90.1567 98.0116,-79.5707 91.0718,-87.5762 97.5788,-90.1567"/>
</g>
<!-- Node14&#45;&gt;Node5 -->
<g id="edge52" class="edge"><title>Node14&#45;&gt;Node5</title>
<path fill="none" stroke="midnightblue" d="M90.6483,-58.3619C81.59,-50.0226 68.7937,-38.2418 58.2297,-28.5162"/>
<polygon fill="midnightblue" stroke="midnightblue" points="60.413,-25.7688 50.6853,-21.5707 55.6718,-30.9187 60.413,-25.7688"/>
</g>
<!-- Node14&#45;&gt;Node8 -->
<g id="edge54" class="edge"><title>Node14&#45;&gt;Node8</title>
<path fill="none" stroke="midnightblue" d="M137.895,-60.191C181.969,-49.3131 256.531,-30.9106 300.89,-19.9624"/>
<polygon fill="midnightblue" stroke="midnightblue" points="301.808,-23.341 310.678,-17.5467 300.13,-16.545 301.808,-23.341"/>
</g>
<!-- Node15&#45;&gt;Node9 -->
<g id="edge60" class="edge"><title>Node15&#45;&gt;Node9</title>
<path fill="none" stroke="midnightblue" d="M711.578,-116.362C695.062,-107.409 671.229,-94.4908 652.626,-84.4064"/>
<polygon fill="midnightblue" stroke="midnightblue" points="654.164,-81.2592 643.704,-79.5707 650.828,-87.4132 654.164,-81.2592"/>
</g>
<!-- Node17&#45;&gt;Node2 -->
<g id="edge72" class="edge"><title>Node17&#45;&gt;Node2</title>
<path fill="none" stroke="midnightblue" d="M687.982,-232.882C715.866,-224.38 756.653,-211.598 800.083,-196.27"/>
<polygon fill="midnightblue" stroke="midnightblue" points="801.434,-199.505 809.682,-192.856 799.088,-192.91 801.434,-199.505"/>
</g>
<!-- Node17&#45;&gt;Node6 -->
<g id="edge76" class="edge"><title>Node17&#45;&gt;Node6</title>
<path fill="none" stroke="midnightblue" d="M620.52,-232.497C590.066,-223 545.047,-208.962 511.845,-198.609"/>
<polygon fill="midnightblue" stroke="midnightblue" points="512.538,-195.159 501.95,-195.523 510.454,-201.841 512.538,-195.159"/>
</g>
<!-- Node17&#45;&gt;Node9 -->
<g id="edge74" class="edge"><title>Node17&#45;&gt;Node9</title>
<path fill="none" stroke="midnightblue" d="M653.995,-232.492C654.295,-217.375 657.177,-189.6 673.203,-174 723.236,-125.298 862.405,-170.851 819.203,-116 801.427,-93.4303 725.559,-80.4296 673.867,-74.0388"/>
<polygon fill="midnightblue" stroke="midnightblue" points="674.219,-70.5561 663.875,-72.8478 673.391,-77.5069 674.219,-70.5561"/>
</g>
<!-- Node18 -->
<g id="node57" class="node"><title>Node18</title>
<polygon fill="white" stroke="#bfbfbf" points="681.703,-174.5 681.703,-195.5 792.703,-195.5 792.703,-174.5 681.703,-174.5"/>
<text text-anchor="middle" x="737.203" y="-182.5" font-family="DejaVuSans" font-size="10.00">QXmlStreamReader</text>
</g>
<!-- Node17&#45;&gt;Node18 -->
<g id="edge78" class="edge"><title>Node17&#45;&gt;Node18</title>
<path fill="none" stroke="midnightblue" d="M669.427,-232.362C681.829,-223.696 699.549,-211.313 713.76,-201.382"/>
<polygon fill="midnightblue" stroke="midnightblue" points="715.884,-204.168 722.076,-195.571 711.875,-198.43 715.884,-204.168"/>
</g>
</g>
</svg>
