<?xml version="1.0" encoding="UTF-8" standalone="no"?>
<!DOCTYPE svg PUBLIC "-//W3C//DTD SVG 1.1//EN"
 "http://www.w3.org/Graphics/SVG/1.1/DTD/svg11.dtd">
<!-- Generated by graphviz version 2.26.3 (20100126.1600)
 -->
<!-- Title: G Pages: 1 -->
<svg width="669pt" height="146pt"
 viewBox="0.00 0.00 669.00 146.00" xmlns="http://www.w3.org/2000/svg" xmlns:xlink="http://www.w3.org/1999/xlink">
<g id="graph1" class="graph" transform="scale(1 1) rotate(0) translate(4 142)">
<title>G</title>
<polygon fill="white" stroke="white" points="-4,5 -4,-142 666,-142 666,5 -4,5"/>
<!-- Node1 -->
<g id="node1" class="node"><title>Node1</title>
<polygon fill="#bfbfbf" stroke="black" points="171.5,-116.5 171.5,-137.5 314.5,-137.5 314.5,-116.5 171.5,-116.5"/>
<text text-anchor="middle" x="243" y="-124.5" font-family="DejaVuSans" font-size="10.00">src/IO/ReadXmlCharacter.h</text>
</g>
<!-- Node2 -->
<g id="node3" class="node"><title>Node2</title>
<polygon fill="white" stroke="#bfbfbf" points="-0.5,-0.5 -0.5,-21.5 38.5,-21.5 38.5,-0.5 -0.5,-0.5"/>
<text text-anchor="middle" x="19" y="-8.5" font-family="DejaVuSans" font-size="10.00">QFile</text>
</g>
<!-- Node1&#45;&gt;Node2 -->
<g id="edge2" class="edge"><title>Node1&#45;&gt;Node2</title>
<path fill="none" stroke="midnightblue" d="M211.154,-116.434C186.73,-107.855 152.488,-94.7868 124,-80 94.0157,-64.4368 61.8811,-42.4504 41.1722,-27.5087"/>
<polygon fill="midnightblue" stroke="midnightblue" points="43.1782,-24.6398 33.0361,-21.5757 39.0538,-30.2957 43.1782,-24.6398"/>
</g>
<!-- Node3 -->
<g id="node5" class="node"><title>Node3</title>
<polygon fill="white" stroke="#bfbfbf" points="270.5,-58.5 270.5,-79.5 419.5,-79.5 419.5,-58.5 270.5,-58.5"/>
<text text-anchor="middle" x="345" y="-66.5" font-family="DejaVuSans" font-size="10.00">Storage/StorageTemplate.h</text>
</g>
<!-- Node1&#45;&gt;Node3 -->
<g id="edge4" class="edge"><title>Node1&#45;&gt;Node3</title>
<path fill="none" stroke="midnightblue" d="M261.708,-116.362C277.381,-107.45 299.964,-94.6087 317.663,-84.5447"/>
<polygon fill="midnightblue" stroke="midnightblue" points="319.447,-87.5562 326.41,-79.5707 315.987,-81.4712 319.447,-87.5562"/>
</g>
<!-- Node4 -->
<g id="node7" class="node"><title>Node4</title>
<polygon fill="white" stroke="#bfbfbf" points="437,-58.5 437,-79.5 589,-79.5 589,-58.5 437,-58.5"/>
<text text-anchor="middle" x="513" y="-66.5" font-family="DejaVuSans" font-size="10.00">Storage/StorageCharacter.h</text>
</g>
<!-- Node1&#45;&gt;Node4 -->
<g id="edge6" class="edge"><title>Node1&#45;&gt;Node4</title>
<path fill="none" stroke="midnightblue" d="M291.895,-116.497C337.437,-106.714 405.416,-92.1107 453.964,-81.6819"/>
<polygon fill="midnightblue" stroke="midnightblue" points="454.971,-85.0453 464.013,-79.5231 453.501,-78.2014 454.971,-85.0453"/>
</g>
<!-- Node5 -->
<g id="node9" class="node"><title>Node5</title>
<polygon fill="white" stroke="#bfbfbf" points="55.5,-0.5 55.5,-21.5 186.5,-21.5 186.5,-0.5 55.5,-0.5"/>
<text text-anchor="middle" x="121" y="-8.5" font-family="DejaVuSans" font-size="10.00">Datatypes/cv_Species.h</text>
</g>
<!-- Node1&#45;&gt;Node5 -->
<g id="edge8" class="edge"><title>Node1&#45;&gt;Node5</title>
<path fill="none" stroke="midnightblue" d="M199.371,-116.411C178.689,-109.307 155.234,-97.8784 140,-80 128.57,-66.5853 123.973,-46.8531 122.146,-31.9224"/>
<polygon fill="midnightblue" stroke="midnightblue" points="125.602,-31.272 121.222,-21.625 118.63,-31.8979 125.602,-31.272"/>
</g>
<!-- Node6 -->
<g id="node11" class="node"><title>Node6</title>
<polygon fill="white" stroke="#bfbfbf" points="331.5,-0.5 331.5,-21.5 444.5,-21.5 444.5,-0.5 331.5,-0.5"/>
<text text-anchor="middle" x="388" y="-8.5" font-family="DejaVuSans" font-size="10.00">Datatypes/cv_Trait.h</text>
</g>
<!-- Node1&#45;&gt;Node6 -->
<g id="edge10" class="edge"><title>Node1&#45;&gt;Node6</title>
<path fill="none" stroke="midnightblue" d="M243.058,-116.23C243.714,-101.3 247.067,-74.3139 262,-58 277.584,-40.9746 299.922,-30.0897 321.474,-23.1416"/>
<polygon fill="midnightblue" stroke="midnightblue" points="322.708,-26.4261 331.293,-20.2183 320.71,-19.7171 322.708,-26.4261"/>
</g>
<!-- Node7 -->
<g id="node13" class="node"><title>Node7</title>
<polygon fill="white" stroke="#bfbfbf" points="606.5,-58.5 606.5,-79.5 661.5,-79.5 661.5,-58.5 606.5,-58.5"/>
<text text-anchor="middle" x="634" y="-66.5" font-family="DejaVuSans" font-size="10.00">QObject</text>
</g>
<!-- Node1&#45;&gt;Node7 -->
<g id="edge12" class="edge"><title>Node1&#45;&gt;Node7</title>
<path fill="none" stroke="midnightblue" d="M314.656,-121.012C384.531,-114.382 493.857,-101.911 596.319,-80.124"/>
<polygon fill="midnightblue" stroke="midnightblue" points="597.177,-83.5196 606.212,-77.9864 595.698,-76.6775 597.177,-83.5196"/>
</g>
<!-- Node8 -->
<g id="node15" class="node"><title>Node8</title>
<a xlink:href="_read_xml_8h.html" target="_top" xlink:title="ReadXml.h">
<polygon fill="white" stroke="black" points="148.5,-58.5 148.5,-79.5 215.5,-79.5 215.5,-58.5 148.5,-58.5"/>
<text text-anchor="middle" x="182" y="-66.5" font-family="DejaVuSans" font-size="10.00">ReadXml.h</text>
</a>
</g>
<!-- Node1&#45;&gt;Node8 -->
<g id="edge14" class="edge"><title>Node1&#45;&gt;Node8</title>
<path fill="none" stroke="midnightblue" d="M231.812,-116.362C223.041,-108.023 210.651,-96.2418 200.422,-86.5162"/>
<polygon fill="midnightblue" stroke="midnightblue" points="202.776,-83.9248 193.117,-79.5707 197.953,-88.9978 202.776,-83.9248"/>
</g>
<!-- Node8&#45;&gt;Node2 -->
<g id="edge16" class="edge"><title>Node8&#45;&gt;Node2</title>
<path fill="none" stroke="midnightblue" d="M150.505,-58.4262C125.048,-49.7932 88.0861,-37.0652 47.972,-22.2823"/>
<polygon fill="midnightblue" stroke="midnightblue" points="49.1377,-18.9817 38.5446,-18.7913 46.7069,-25.5461 49.1377,-18.9817"/>
</g>
<!-- Node8&#45;&gt;Node5 -->
<g id="edge18" class="edge"><title>Node8&#45;&gt;Node5</title>
<path fill="none" stroke="midnightblue" d="M170.812,-58.3619C162.041,-50.0226 149.651,-38.2418 139.422,-28.5162"/>
<polygon fill="midnightblue" stroke="midnightblue" points="141.776,-25.9248 132.117,-21.5707 136.953,-30.9978 141.776,-25.9248"/>
</g>
<!-- Node8&#45;&gt;Node6 -->
<g id="edge20" class="edge"><title>Node8&#45;&gt;Node6</title>
<path fill="none" stroke="midnightblue" d="M215.556,-59.5522C249.569,-49.9756 302.494,-35.0744 340.743,-24.3054"/>
<polygon fill="midnightblue" stroke="midnightblue" points="341.944,-27.6034 350.621,-21.5241 340.047,-20.8653 341.944,-27.6034"/>
</g>
<!-- Node9 -->
<g id="node20" class="node"><title>Node9</title>
<polygon fill="white" stroke="#bfbfbf" points="203.5,-0.5 203.5,-21.5 314.5,-21.5 314.5,-0.5 203.5,-0.5"/>
<text text-anchor="middle" x="259" y="-8.5" font-family="DejaVuSans" font-size="10.00">QXmlStreamReader</text>
</g>
<!-- Node8&#45;&gt;Node9 -->
<g id="edge22" class="edge"><title>Node8&#45;&gt;Node9</title>
<path fill="none" stroke="midnightblue" d="M196.123,-58.3619C207.52,-49.7773 223.758,-37.5459 236.878,-27.6636"/>
<polygon fill="midnightblue" stroke="midnightblue" points="239.085,-30.3829 244.967,-21.5707 234.873,-24.7916 239.085,-30.3829"/>
</g>
</g>
</svg>
