<?xml version="1.0" encoding="UTF-8" standalone="no"?>
<!DOCTYPE svg PUBLIC "-//W3C//DTD SVG 1.1//EN"
 "http://www.w3.org/Graphics/SVG/1.1/DTD/svg11.dtd">
<!-- Generated by graphviz version 2.26.3 (20100126.1600)
 -->
<!-- Title: G Pages: 1 -->
<svg width="499pt" height="146pt"
 viewBox="0.00 0.00 499.00 146.00" xmlns="http://www.w3.org/2000/svg" xmlns:xlink="http://www.w3.org/1999/xlink">
<g id="graph1" class="graph" transform="scale(1 1) rotate(0) translate(4 142)">
<title>G</title>
<polygon fill="white" stroke="white" points="-4,5 -4,-142 496,-142 496,5 -4,5"/>
<!-- Node1 -->
<g id="node1" class="node"><title>Node1</title>
<polygon fill="#bfbfbf" stroke="black" points="142,-116.5 142,-137.5 282,-137.5 282,-116.5 142,-116.5"/>
<text text-anchor="middle" x="212" y="-124.5" font-family="DejaVuSans" font-size="10.00">src/IO/ReadXmlTemplate.h</text>
</g>
<!-- Node2 -->
<g id="node3" class="node"><title>Node2</title>
<polygon fill="white" stroke="#bfbfbf" points="-0.5,-0.5 -0.5,-21.5 38.5,-21.5 38.5,-0.5 -0.5,-0.5"/>
<text text-anchor="middle" x="19" y="-8.5" font-family="DejaVuSans" font-size="10.00">QFile</text>
</g>
<!-- Node1&#45;&gt;Node2 -->
<g id="edge2" class="edge"><title>Node1&#45;&gt;Node2</title>
<path fill="none" stroke="midnightblue" d="M191.345,-116.449C173.549,-107.215 147.285,-93.2426 125,-80 96.2601,-62.9215 64.2128,-41.7518 42.9574,-27.3979"/>
<polygon fill="midnightblue" stroke="midnightblue" points="44.7904,-24.412 34.5498,-21.6953 40.861,-30.2052 44.7904,-24.412"/>
</g>
<!-- Node3 -->
<g id="node5" class="node"><title>Node3</title>
<polygon fill="white" stroke="#bfbfbf" points="270.5,-58.5 270.5,-79.5 419.5,-79.5 419.5,-58.5 270.5,-58.5"/>
<text text-anchor="middle" x="345" y="-66.5" font-family="DejaVuSans" font-size="10.00">Storage/StorageTemplate.h</text>
</g>
<!-- Node1&#45;&gt;Node3 -->
<g id="edge4" class="edge"><title>Node1&#45;&gt;Node3</title>
<path fill="none" stroke="midnightblue" d="M236.085,-116.497C257.139,-107.315 287.927,-93.8889 311.402,-83.6516"/>
<polygon fill="midnightblue" stroke="midnightblue" points="312.877,-86.8268 320.644,-79.6212 310.079,-80.4104 312.877,-86.8268"/>
</g>
<!-- Node4 -->
<g id="node7" class="node"><title>Node4</title>
<polygon fill="white" stroke="#bfbfbf" points="55.5,-0.5 55.5,-21.5 186.5,-21.5 186.5,-0.5 55.5,-0.5"/>
<text text-anchor="middle" x="121" y="-8.5" font-family="DejaVuSans" font-size="10.00">Datatypes/cv_Species.h</text>
</g>
<!-- Node1&#45;&gt;Node4 -->
<g id="edge6" class="edge"><title>Node1&#45;&gt;Node4</title>
<path fill="none" stroke="midnightblue" d="M186.914,-116.335C171.255,-108.457 151.882,-96.2765 140,-80 129.725,-65.9253 125.006,-46.5625 122.839,-31.9302"/>
<polygon fill="midnightblue" stroke="midnightblue" points="126.293,-31.3418 121.629,-21.8289 119.343,-32.1741 126.293,-31.3418"/>
</g>
<!-- Node5 -->
<g id="node9" class="node"><title>Node5</title>
<polygon fill="white" stroke="#bfbfbf" points="331.5,-0.5 331.5,-21.5 444.5,-21.5 444.5,-0.5 331.5,-0.5"/>
<text text-anchor="middle" x="388" y="-8.5" font-family="DejaVuSans" font-size="10.00">Datatypes/cv_Trait.h</text>
</g>
<!-- Node1&#45;&gt;Node5 -->
<g id="edge8" class="edge"><title>Node1&#45;&gt;Node5</title>
<path fill="none" stroke="midnightblue" d="M217.129,-116.38C224.877,-101.38 240.925,-74.0337 262,-58 282.242,-42.6001 308.073,-31.7958 331.07,-24.4645"/>
<polygon fill="midnightblue" stroke="midnightblue" points="332.177,-27.7864 340.729,-21.5319 330.143,-21.0884 332.177,-27.7864"/>
</g>
<!-- Node6 -->
<g id="node11" class="node"><title>Node6</title>
<polygon fill="white" stroke="#bfbfbf" points="436.5,-58.5 436.5,-79.5 491.5,-79.5 491.5,-58.5 436.5,-58.5"/>
<text text-anchor="middle" x="464" y="-66.5" font-family="DejaVuSans" font-size="10.00">QObject</text>
</g>
<!-- Node1&#45;&gt;Node6 -->
<g id="edge10" class="edge"><title>Node1&#45;&gt;Node6</title>
<path fill="none" stroke="midnightblue" d="M266.443,-116.445C307.984,-108.098 366.812,-95.6508 426.23,-80.3389"/>
<polygon fill="midnightblue" stroke="midnightblue" points="427.361,-83.6614 436.157,-77.7552 425.597,-76.8871 427.361,-83.6614"/>
</g>
<!-- Node7 -->
<g id="node13" class="node"><title>Node7</title>
<a xlink:href="_read_xml_8h.html" target="_top" xlink:title="ReadXml.h">
<polygon fill="white" stroke="black" points="148.5,-58.5 148.5,-79.5 215.5,-79.5 215.5,-58.5 148.5,-58.5"/>
<text text-anchor="middle" x="182" y="-66.5" font-family="DejaVuSans" font-size="10.00">ReadXml.h</text>
</a>
</g>
<!-- Node1&#45;&gt;Node7 -->
<g id="edge12" class="edge"><title>Node1&#45;&gt;Node7</title>
<path fill="none" stroke="midnightblue" d="M206.498,-116.362C202.48,-108.595 196.919,-97.8426 192.11,-88.5458"/>
<polygon fill="midnightblue" stroke="midnightblue" points="195.171,-86.8448 187.468,-79.5707 188.953,-90.0608 195.171,-86.8448"/>
</g>
<!-- Node7&#45;&gt;Node2 -->
<g id="edge14" class="edge"><title>Node7&#45;&gt;Node2</title>
<path fill="none" stroke="midnightblue" d="M150.505,-58.4262C125.048,-49.7932 88.0861,-37.0652 47.972,-22.2823"/>
<polygon fill="midnightblue" stroke="midnightblue" points="49.1377,-18.9817 38.5446,-18.7913 46.7069,-25.5461 49.1377,-18.9817"/>
</g>
<!-- Node7&#45;&gt;Node4 -->
<g id="edge16" class="edge"><title>Node7&#45;&gt;Node4</title>
<path fill="none" stroke="midnightblue" d="M170.812,-58.3619C162.041,-50.0226 149.651,-38.2418 139.422,-28.5162"/>
<polygon fill="midnightblue" stroke="midnightblue" points="141.776,-25.9248 132.117,-21.5707 136.953,-30.9978 141.776,-25.9248"/>
</g>
<!-- Node7&#45;&gt;Node5 -->
<g id="edge18" class="edge"><title>Node7&#45;&gt;Node5</title>
<path fill="none" stroke="midnightblue" d="M215.556,-59.5522C249.569,-49.9756 302.494,-35.0744 340.743,-24.3054"/>
<polygon fill="midnightblue" stroke="midnightblue" points="341.944,-27.6034 350.621,-21.5241 340.047,-20.8653 341.944,-27.6034"/>
</g>
<!-- Node8 -->
<g id="node18" class="node"><title>Node8</title>
<polygon fill="white" stroke="#bfbfbf" points="203.5,-0.5 203.5,-21.5 314.5,-21.5 314.5,-0.5 203.5,-0.5"/>
<text text-anchor="middle" x="259" y="-8.5" font-family="DejaVuSans" font-size="10.00">QXmlStreamReader</text>
</g>
<!-- Node7&#45;&gt;Node8 -->
<g id="edge20" class="edge"><title>Node7&#45;&gt;Node8</title>
<path fill="none" stroke="midnightblue" d="M196.123,-58.3619C207.52,-49.7773 223.758,-37.5459 236.878,-27.6636"/>
<polygon fill="midnightblue" stroke="midnightblue" points="239.085,-30.3829 244.967,-21.5707 234.873,-24.7916 239.085,-30.3829"/>
</g>
</g>
</svg>
