<?xml version="1.0" encoding="UTF-8" standalone="no"?>
<!DOCTYPE svg PUBLIC "-//W3C//DTD SVG 1.1//EN"
 "http://www.w3.org/Graphics/SVG/1.1/DTD/svg11.dtd">
<!-- Generated by graphviz version 2.26.3 (20100126.1600)
 -->
<!-- Title: G Pages: 1 -->
<svg width="1060pt" height="320pt"
 viewBox="0.00 0.00 1060.00 320.00" xmlns="http://www.w3.org/2000/svg" xmlns:xlink="http://www.w3.org/1999/xlink">
<g id="graph1" class="graph" transform="scale(1 1) rotate(0) translate(4 316)">
<title>G</title>
<polygon fill="white" stroke="white" points="-4,5 -4,-316 1057,-316 1057,5 -4,5"/>
<!-- Node1 -->
<g id="node1" class="node"><title>Node1</title>
<polygon fill="#bfbfbf" stroke="black" points="175,-290.5 175,-311.5 283,-311.5 283,-290.5 175,-290.5"/>
<text text-anchor="middle" x="229" y="-298.5" font-family="DejaVuSans" font-size="10.00">src/IO/ReadXml.cpp</text>
</g>
<!-- Node2 -->
<g id="node3" class="node"><title>Node2</title>
<polygon fill="white" stroke="#bfbfbf" points="97,-232.5 97,-253.5 153,-253.5 153,-232.5 97,-232.5"/>
<text text-anchor="middle" x="125" y="-240.5" font-family="DejaVuSans" font-size="10.00">QDebug</text>
</g>
<!-- Node1&#45;&gt;Node2 -->
<g id="edge2" class="edge"><title>Node1&#45;&gt;Node2</title>
<path fill="none" stroke="midnightblue" d="M209.925,-290.362C193.945,-281.45 170.919,-268.609 152.873,-258.545"/>
<polygon fill="midnightblue" stroke="midnightblue" points="154.393,-255.385 143.954,-253.571 150.983,-261.498 154.393,-255.385"/>
</g>
<!-- Node3 -->
<g id="node5" class="node"><title>Node3</title>
<a xlink:href="_exception_8h_source.html" target="_top" xlink:title="../Exceptions/Exception.h">
<polygon fill="white" stroke="black" points="209,-232.5 209,-253.5 345,-253.5 345,-232.5 209,-232.5"/>
<text text-anchor="middle" x="277" y="-240.5" font-family="DejaVuSans" font-size="10.00">../Exceptions/Exception.h</text>
</a>
</g>
<!-- Node1&#45;&gt;Node3 -->
<g id="edge4" class="edge"><title>Node1&#45;&gt;Node3</title>
<path fill="none" stroke="midnightblue" d="M237.804,-290.362C244.502,-282.268 253.884,-270.932 261.789,-261.38"/>
<polygon fill="midnightblue" stroke="midnightblue" points="264.573,-263.506 268.252,-253.571 259.18,-259.043 264.573,-263.506"/>
</g>
<!-- Node15 -->
<g id="node42" class="node"><title>Node15</title>
<a xlink:href="_config_8h.html" target="_top" xlink:title="../Config/Config.h">
<polygon fill="white" stroke="black" points="50,-174.5 50,-195.5 148,-195.5 148,-174.5 50,-174.5"/>
<text text-anchor="middle" x="99" y="-182.5" font-family="DejaVuSans" font-size="10.00">../Config/Config.h</text>
</a>
</g>
<!-- Node1&#45;&gt;Node15 -->
<g id="edge62" class="edge"><title>Node1&#45;&gt;Node15</title>
<path fill="none" stroke="midnightblue" d="M219.501,-290.197C206.939,-276.156 183.832,-251.169 162,-232 149.623,-221.133 134.912,-210.065 122.819,-201.401"/>
<polygon fill="midnightblue" stroke="midnightblue" points="124.734,-198.468 114.548,-195.555 120.694,-204.185 124.734,-198.468"/>
</g>
<!-- Node18 -->
<g id="node50" class="node"><title>Node18</title>
<a xlink:href="_read_xml_8h.html" target="_top" xlink:title="ReadXml.h">
<polygon fill="white" stroke="black" points="824.5,-232.5 824.5,-253.5 891.5,-253.5 891.5,-232.5 824.5,-232.5"/>
<text text-anchor="middle" x="858" y="-240.5" font-family="DejaVuSans" font-size="10.00">ReadXml.h</text>
</a>
</g>
<!-- Node1&#45;&gt;Node18 -->
<g id="edge64" class="edge"><title>Node1&#45;&gt;Node18</title>
<path fill="none" stroke="midnightblue" d="M283.173,-296.005C405.718,-284.705 702.24,-257.363 814.209,-247.038"/>
<polygon fill="midnightblue" stroke="midnightblue" points="814.82,-250.497 824.456,-246.093 814.177,-243.526 814.82,-250.497"/>
</g>
<!-- Node4 -->
<g id="node7" class="node"><title>Node4</title>
<polygon fill="white" stroke="#bfbfbf" points="320.5,-0.5 320.5,-21.5 373.5,-21.5 373.5,-0.5 320.5,-0.5"/>
<text text-anchor="middle" x="347" y="-8.5" font-family="DejaVuSans" font-size="10.00">QString</text>
</g>
<!-- Node3&#45;&gt;Node4 -->
<g id="edge6" class="edge"><title>Node3&#45;&gt;Node4</title>
<path fill="none" stroke="midnightblue" d="M245.464,-232.438C228.76,-225.048 209.734,-213.346 200,-196 195.215,-187.473 198.384,-183.643 200,-174 209.013,-120.215 203.048,-98.1067 240,-58 258.563,-37.8529 287.309,-25.8837 310.333,-19.0704"/>
<polygon fill="midnightblue" stroke="midnightblue" points="311.415,-22.4029 320.127,-16.3745 309.557,-15.6539 311.415,-22.4029"/>
</g>
<!-- Node5 -->
<g id="node9" class="node"><title>Node5</title>
<a xlink:href="cv___trait_8h.html" target="_top" xlink:title="../Datatypes/cv_Trait.h">
<polygon fill="white" stroke="black" points="565,-174.5 565,-195.5 687,-195.5 687,-174.5 565,-174.5"/>
<text text-anchor="middle" x="626" y="-182.5" font-family="DejaVuSans" font-size="10.00">../Datatypes/cv_Trait.h</text>
</a>
</g>
<!-- Node3&#45;&gt;Node5 -->
<g id="edge8" class="edge"><title>Node3&#45;&gt;Node5</title>
<path fill="none" stroke="midnightblue" d="M340.201,-232.497C400.581,-222.462 491.474,-207.357 554.479,-196.886"/>
<polygon fill="midnightblue" stroke="midnightblue" points="555.441,-200.274 564.732,-195.182 554.294,-193.369 555.441,-200.274"/>
</g>
<!-- Node12 -->
<g id="node31" class="node"><title>Node12</title>
<a xlink:href="cv___shape_8h.html" target="_top" xlink:title="../Datatypes/cv_Shape.h">
<polygon fill="white" stroke="black" points="280,-58.5 280,-79.5 414,-79.5 414,-58.5 280,-58.5"/>
<text text-anchor="middle" x="347" y="-66.5" font-family="DejaVuSans" font-size="10.00">../Datatypes/cv_Shape.h</text>
</a>
</g>
<!-- Node3&#45;&gt;Node12 -->
<g id="edge38" class="edge"><title>Node3&#45;&gt;Node12</title>
<path fill="none" stroke="midnightblue" d="M308.536,-232.438C325.24,-225.048 344.266,-213.346 354,-196 372.806,-162.488 362.81,-115.851 354.479,-89.4189"/>
<polygon fill="midnightblue" stroke="midnightblue" points="357.724,-88.0876 351.21,-79.7315 351.091,-90.3257 357.724,-88.0876"/>
</g>
<!-- Node13 -->
<g id="node34" class="node"><title>Node13</title>
<a xlink:href="cv___identity_8h.html" target="_top" xlink:title="../Datatypes/cv_Identity.h">
<polygon fill="white" stroke="black" points="208.5,-174.5 208.5,-195.5 345.5,-195.5 345.5,-174.5 208.5,-174.5"/>
<text text-anchor="middle" x="277" y="-182.5" font-family="DejaVuSans" font-size="10.00">../Datatypes/cv_Identity.h</text>
</a>
</g>
<!-- Node3&#45;&gt;Node13 -->
<g id="edge42" class="edge"><title>Node3&#45;&gt;Node13</title>
<path fill="none" stroke="midnightblue" d="M277,-232.362C277,-224.922 277,-214.743 277,-205.728"/>
<polygon fill="midnightblue" stroke="midnightblue" points="280.5,-205.571 277,-195.571 273.5,-205.571 280.5,-205.571"/>
</g>
<!-- Node3&#45;&gt;Node15 -->
<g id="edge54" class="edge"><title>Node3&#45;&gt;Node15</title>
<path fill="none" stroke="midnightblue" d="M244.766,-232.497C215.747,-223.041 172.91,-209.083 141.176,-198.743"/>
<polygon fill="midnightblue" stroke="midnightblue" points="141.887,-195.293 131.295,-195.523 139.719,-201.949 141.887,-195.293"/>
</g>
<!-- Node5&#45;&gt;Node4 -->
<g id="edge12" class="edge"><title>Node5&#45;&gt;Node4</title>
<path fill="none" stroke="midnightblue" d="M687.424,-176.518C732.071,-168.948 787.025,-156.223 801,-138 806.95,-130.241 805.064,-124.893 801,-116 784.63,-80.1777 770.007,-73.9586 734,-58 671.695,-30.386 467.924,-17.1323 383.817,-12.7342"/>
<polygon fill="midnightblue" stroke="midnightblue" points="383.868,-9.23231 373.702,-12.218 383.511,-16.2232 383.868,-9.23231"/>
</g>
<!-- Node6 -->
<g id="node11" class="node"><title>Node6</title>
<polygon fill="white" stroke="#bfbfbf" points="549.5,-116.5 549.5,-137.5 598.5,-137.5 598.5,-116.5 549.5,-116.5"/>
<text text-anchor="middle" x="574" y="-124.5" font-family="DejaVuSans" font-size="10.00">QFlags</text>
</g>
<!-- Node5&#45;&gt;Node6 -->
<g id="edge10" class="edge"><title>Node5&#45;&gt;Node6</title>
<path fill="none" stroke="midnightblue" d="M616.462,-174.362C609.132,-166.186 598.837,-154.702 590.219,-145.091"/>
<polygon fill="midnightblue" stroke="midnightblue" points="592.759,-142.68 583.477,-137.571 587.547,-147.353 592.759,-142.68"/>
</g>
<!-- Node7 -->
<g id="node14" class="node"><title>Node7</title>
<polygon fill="white" stroke="#bfbfbf" points="561.5,-58.5 561.5,-79.5 602.5,-79.5 602.5,-58.5 561.5,-58.5"/>
<text text-anchor="middle" x="582" y="-66.5" font-family="DejaVuSans" font-size="10.00">QList</text>
</g>
<!-- Node5&#45;&gt;Node7 -->
<g id="edge14" class="edge"><title>Node5&#45;&gt;Node7</title>
<path fill="none" stroke="midnightblue" d="M623.861,-174.48C620.899,-160.745 614.995,-136.087 607,-116 603.266,-106.619 598.166,-96.6846 593.546,-88.3782"/>
<polygon fill="midnightblue" stroke="midnightblue" points="596.467,-86.4362 588.454,-79.5056 590.396,-89.9209 596.467,-86.4362"/>
</g>
<!-- Node8 -->
<g id="node16" class="node"><title>Node8</title>
<polygon fill="white" stroke="#bfbfbf" points="431.5,-58.5 431.5,-79.5 500.5,-79.5 500.5,-58.5 431.5,-58.5"/>
<text text-anchor="middle" x="466" y="-66.5" font-family="DejaVuSans" font-size="10.00">QStringList</text>
</g>
<!-- Node5&#45;&gt;Node8 -->
<g id="edge16" class="edge"><title>Node5&#45;&gt;Node8</title>
<path fill="none" stroke="midnightblue" d="M564.971,-178.146C515.343,-171.166 451.01,-158.427 435,-138 422.97,-122.651 435.328,-101.891 447.828,-87.1629"/>
<polygon fill="midnightblue" stroke="midnightblue" points="450.498,-89.4286 454.633,-79.6738 445.318,-84.721 450.498,-89.4286"/>
</g>
<!-- Node9 -->
<g id="node18" class="node"><title>Node9</title>
<a xlink:href="cv___species_8h.html" target="_top" xlink:title="cv_Species.h">
<polygon fill="white" stroke="black" points="624.5,-58.5 624.5,-79.5 703.5,-79.5 703.5,-58.5 624.5,-58.5"/>
<text text-anchor="middle" x="664" y="-66.5" font-family="DejaVuSans" font-size="10.00">cv_Species.h</text>
</a>
</g>
<!-- Node5&#45;&gt;Node9 -->
<g id="edge18" class="edge"><title>Node5&#45;&gt;Node9</title>
<path fill="none" stroke="midnightblue" d="M629.507,-174.295C635.813,-155.045 649.164,-114.289 657.282,-89.5091"/>
<polygon fill="midnightblue" stroke="midnightblue" points="660.715,-90.2719 660.502,-79.6792 654.062,-88.0927 660.715,-90.2719"/>
</g>
<!-- Node10 -->
<g id="node21" class="node"><title>Node10</title>
<a xlink:href="cv___trait_detail_8h.html" target="_top" xlink:title="cv_TraitDetail.h">
<polygon fill="white" stroke="black" points="443.5,-116.5 443.5,-137.5 532.5,-137.5 532.5,-116.5 443.5,-116.5"/>
<text text-anchor="middle" x="488" y="-124.5" font-family="DejaVuSans" font-size="10.00">cv_TraitDetail.h</text>
</a>
</g>
<!-- Node5&#45;&gt;Node10 -->
<g id="edge22" class="edge"><title>Node5&#45;&gt;Node10</title>
<path fill="none" stroke="midnightblue" d="M601.009,-174.497C579.067,-165.275 546.934,-151.769 522.536,-141.515"/>
<polygon fill="midnightblue" stroke="midnightblue" points="523.846,-138.269 513.271,-137.621 521.134,-144.722 523.846,-138.269"/>
</g>
<!-- Node11 -->
<g id="node27" class="node"><title>Node11</title>
<a xlink:href="cv___abstract_trait_8h.html" target="_top" xlink:title="cv_AbstractTrait.h">
<polygon fill="white" stroke="black" points="691.5,-116.5 691.5,-137.5 792.5,-137.5 792.5,-116.5 691.5,-116.5"/>
<text text-anchor="middle" x="742" y="-124.5" font-family="DejaVuSans" font-size="10.00">cv_AbstractTrait.h</text>
</a>
</g>
<!-- Node5&#45;&gt;Node11 -->
<g id="edge32" class="edge"><title>Node5&#45;&gt;Node11</title>
<path fill="none" stroke="midnightblue" d="M647.007,-174.497C665.043,-165.479 691.27,-152.365 711.599,-142.201"/>
<polygon fill="midnightblue" stroke="midnightblue" points="713.379,-145.224 720.758,-137.621 710.248,-138.963 713.379,-145.224"/>
</g>
<!-- Node9&#45;&gt;Node4 -->
<g id="edge20" class="edge"><title>Node9&#45;&gt;Node4</title>
<path fill="none" stroke="midnightblue" d="M624.375,-60.6477C619.868,-59.7357 615.337,-58.8359 611,-58 529.958,-42.3793 434.551,-25.8533 383.543,-17.1674"/>
<polygon fill="midnightblue" stroke="midnightblue" points="384.097,-13.7115 373.652,-15.4867 382.924,-20.6125 384.097,-13.7115"/>
</g>
<!-- Node10&#45;&gt;Node4 -->
<g id="edge24" class="edge"><title>Node10&#45;&gt;Node4</title>
<path fill="none" stroke="midnightblue" d="M496.748,-116.159C507.346,-101.626 522.235,-75.6211 509,-58 493.971,-37.9907 426.805,-23.7501 383.815,-16.494"/>
<polygon fill="midnightblue" stroke="midnightblue" points="384.151,-13.0025 373.717,-14.8423 383.021,-19.9107 384.151,-13.0025"/>
</g>
<!-- Node10&#45;&gt;Node7 -->
<g id="edge26" class="edge"><title>Node10&#45;&gt;Node7</title>
<path fill="none" stroke="midnightblue" d="M505.241,-116.362C519.552,-107.532 540.115,-94.844 556.357,-84.8224"/>
<polygon fill="midnightblue" stroke="midnightblue" points="558.196,-87.8004 564.868,-79.5707 554.52,-81.8431 558.196,-87.8004"/>
</g>
<!-- Node10&#45;&gt;Node8 -->
<g id="edge28" class="edge"><title>Node10&#45;&gt;Node8</title>
<path fill="none" stroke="midnightblue" d="M483.965,-116.362C481.081,-108.758 477.112,-98.294 473.637,-89.1349"/>
<polygon fill="midnightblue" stroke="midnightblue" points="476.829,-87.6793 470.01,-79.5707 470.284,-90.1619 476.829,-87.6793"/>
</g>
<!-- Node10&#45;&gt;Node9 -->
<g id="edge30" class="edge"><title>Node10&#45;&gt;Node9</title>
<path fill="none" stroke="midnightblue" d="M519.872,-116.497C548.565,-107.041 590.921,-93.0829 622.298,-82.7428"/>
<polygon fill="midnightblue" stroke="midnightblue" points="623.666,-85.9772 632.068,-79.5231 621.475,-79.3289 623.666,-85.9772"/>
</g>
<!-- Node11&#45;&gt;Node4 -->
<g id="edge34" class="edge"><title>Node11&#45;&gt;Node4</title>
<path fill="none" stroke="midnightblue" d="M740.651,-116.36C738.072,-100.814 730.902,-72.2022 712,-58 686.016,-38.4768 470.743,-20.2961 383.505,-13.6579"/>
<polygon fill="midnightblue" stroke="midnightblue" points="383.757,-10.167 373.522,-12.9062 383.231,-17.1473 383.757,-10.167"/>
</g>
<!-- Node11&#45;&gt;Node9 -->
<g id="edge36" class="edge"><title>Node11&#45;&gt;Node9</title>
<path fill="none" stroke="midnightblue" d="M727.694,-116.362C716.149,-107.777 699.7,-95.5459 686.41,-85.6636"/>
<polygon fill="midnightblue" stroke="midnightblue" points="688.329,-82.7291 678.216,-79.5707 684.152,-88.3463 688.329,-82.7291"/>
</g>
<!-- Node12&#45;&gt;Node4 -->
<g id="edge40" class="edge"><title>Node12&#45;&gt;Node4</title>
<path fill="none" stroke="midnightblue" d="M347,-58.3619C347,-50.9219 347,-40.7427 347,-31.7276"/>
<polygon fill="midnightblue" stroke="midnightblue" points="350.5,-31.5706 347,-21.5707 343.5,-31.5707 350.5,-31.5706"/>
</g>
<!-- Node13&#45;&gt;Node4 -->
<g id="edge46" class="edge"><title>Node13&#45;&gt;Node4</title>
<path fill="none" stroke="midnightblue" d="M262.499,-174.479C252.096,-165.97 238.914,-152.97 233,-138 229.408,-128.906 230.82,-125.532 233,-116 239.383,-88.0963 241.276,-78.7441 261,-58 274.721,-43.5693 293.87,-32.5102 310.616,-24.7559"/>
<polygon fill="midnightblue" stroke="midnightblue" points="312.392,-27.7986 320.14,-20.5717 309.576,-21.3899 312.392,-27.7986"/>
</g>
<!-- Node13&#45;&gt;Node8 -->
<g id="edge44" class="edge"><title>Node13&#45;&gt;Node8</title>
<path fill="none" stroke="midnightblue" d="M294.442,-174.295C327.859,-153.785 401.057,-108.859 440.163,-84.8575"/>
<polygon fill="midnightblue" stroke="midnightblue" points="442.181,-87.7256 448.873,-79.5117 438.52,-81.7596 442.181,-87.7256"/>
</g>
<!-- Node14 -->
<g id="node38" class="node"><title>Node14</title>
<a xlink:href="cv___name_8h.html" target="_top" xlink:title="cv_Name.h">
<polygon fill="white" stroke="black" points="241.5,-116.5 241.5,-137.5 312.5,-137.5 312.5,-116.5 241.5,-116.5"/>
<text text-anchor="middle" x="277" y="-124.5" font-family="DejaVuSans" font-size="10.00">cv_Name.h</text>
</a>
</g>
<!-- Node13&#45;&gt;Node14 -->
<g id="edge48" class="edge"><title>Node13&#45;&gt;Node14</title>
<path fill="none" stroke="midnightblue" d="M277,-174.362C277,-166.922 277,-156.743 277,-147.728"/>
<polygon fill="midnightblue" stroke="midnightblue" points="280.5,-147.571 277,-137.571 273.5,-147.571 280.5,-147.571"/>
</g>
<!-- Node14&#45;&gt;Node4 -->
<g id="edge52" class="edge"><title>Node14&#45;&gt;Node4</title>
<path fill="none" stroke="midnightblue" d="M272.59,-116.412C267.397,-102.167 260.697,-76.4856 271,-58 279.694,-42.4015 295.935,-31.328 311.179,-23.8641"/>
<polygon fill="midnightblue" stroke="midnightblue" points="312.789,-26.9775 320.465,-19.6749 309.91,-20.5968 312.789,-26.9775"/>
</g>
<!-- Node14&#45;&gt;Node8 -->
<g id="edge50" class="edge"><title>Node14&#45;&gt;Node8</title>
<path fill="none" stroke="midnightblue" d="M311.226,-116.497C342.305,-106.959 388.312,-92.8408 422.09,-82.475"/>
<polygon fill="midnightblue" stroke="midnightblue" points="423.176,-85.8029 431.709,-79.5231 421.123,-79.1109 423.176,-85.8029"/>
</g>
<!-- Node15&#45;&gt;Node4 -->
<g id="edge56" class="edge"><title>Node15&#45;&gt;Node4</title>
<path fill="none" stroke="midnightblue" d="M103.764,-174.128C116.677,-144.856 152.045,-66.0431 162,-58 184.587,-39.7521 262.943,-24.4626 310.131,-16.6324"/>
<polygon fill="midnightblue" stroke="midnightblue" points="310.955,-20.0444 320.264,-14.9858 309.833,-13.1351 310.955,-20.0444"/>
</g>
<!-- Node16 -->
<g id="node45" class="node"><title>Node16</title>
<polygon fill="white" stroke="#bfbfbf" points="61.5,-116.5 61.5,-137.5 110.5,-137.5 110.5,-116.5 61.5,-116.5"/>
<text text-anchor="middle" x="86" y="-124.5" font-family="DejaVuSans" font-size="10.00">QColor</text>
</g>
<!-- Node15&#45;&gt;Node16 -->
<g id="edge58" class="edge"><title>Node15&#45;&gt;Node16</title>
<path fill="none" stroke="midnightblue" d="M96.6156,-174.362C94.9297,-166.84 92.6163,-156.519 90.5793,-147.431"/>
<polygon fill="midnightblue" stroke="midnightblue" points="93.9717,-146.563 88.3693,-137.571 87.1412,-148.094 93.9717,-146.563"/>
</g>
<!-- Node17 -->
<g id="node47" class="node"><title>Node17</title>
<polygon fill="white" stroke="#bfbfbf" points="-0.5,-116.5 -0.5,-137.5 44.5,-137.5 44.5,-116.5 -0.5,-116.5"/>
<text text-anchor="middle" x="22" y="-124.5" font-family="DejaVuSans" font-size="10.00">QFont</text>
</g>
<!-- Node15&#45;&gt;Node17 -->
<g id="edge60" class="edge"><title>Node15&#45;&gt;Node17</title>
<path fill="none" stroke="midnightblue" d="M84.877,-174.362C73.4802,-165.777 57.2419,-153.546 44.1223,-143.664"/>
<polygon fill="midnightblue" stroke="midnightblue" points="46.1268,-140.792 36.0335,-137.571 41.9152,-146.383 46.1268,-140.792"/>
</g>
<!-- Node18&#45;&gt;Node5 -->
<g id="edge70" class="edge"><title>Node18&#45;&gt;Node5</title>
<path fill="none" stroke="midnightblue" d="M824.265,-234.566C785.826,-224.956 722.556,-209.139 677.842,-197.96"/>
<polygon fill="midnightblue" stroke="midnightblue" points="678.584,-194.538 668.033,-195.508 676.886,-201.329 678.584,-194.538"/>
</g>
<!-- Node18&#45;&gt;Node9 -->
<g id="edge68" class="edge"><title>Node18&#45;&gt;Node9</title>
<path fill="none" stroke="midnightblue" d="M856.206,-232.467C851.557,-208.361 836.882,-148.744 801,-116 777.013,-94.1109 742.364,-82.3456 713.914,-76.0604"/>
<polygon fill="midnightblue" stroke="midnightblue" points="714.242,-72.5552 703.744,-73.9841 712.841,-79.4137 714.242,-72.5552"/>
</g>
<!-- Node19 -->
<g id="node52" class="node"><title>Node19</title>
<polygon fill="white" stroke="#bfbfbf" points="1013.5,-174.5 1013.5,-195.5 1052.5,-195.5 1052.5,-174.5 1013.5,-174.5"/>
<text text-anchor="middle" x="1033" y="-182.5" font-family="DejaVuSans" font-size="10.00">QFile</text>
</g>
<!-- Node18&#45;&gt;Node19 -->
<g id="edge66" class="edge"><title>Node18&#45;&gt;Node19</title>
<path fill="none" stroke="midnightblue" d="M891.778,-232.882C919.662,-224.38 960.45,-211.598 1003.88,-196.27"/>
<polygon fill="midnightblue" stroke="midnightblue" points="1005.23,-199.505 1013.48,-192.856 1002.88,-192.91 1005.23,-199.505"/>
</g>
<!-- Node20 -->
<g id="node56" class="node"><title>Node20</title>
<polygon fill="white" stroke="#bfbfbf" points="885.5,-174.5 885.5,-195.5 996.5,-195.5 996.5,-174.5 885.5,-174.5"/>
<text text-anchor="middle" x="941" y="-182.5" font-family="DejaVuSans" font-size="10.00">QXmlStreamReader</text>
</g>
<!-- Node18&#45;&gt;Node20 -->
<g id="edge72" class="edge"><title>Node18&#45;&gt;Node20</title>
<path fill="none" stroke="midnightblue" d="M873.223,-232.362C885.625,-223.696 903.346,-211.313 917.557,-201.382"/>
<polygon fill="midnightblue" stroke="midnightblue" points="919.681,-204.168 925.873,-195.571 915.671,-198.43 919.681,-204.168"/>
</g>
</g>
</svg>
