<?xml version="1.0" encoding="UTF-8" standalone="no"?>
<!DOCTYPE svg PUBLIC "-//W3C//DTD SVG 1.1//EN"
 "http://www.w3.org/Graphics/SVG/1.1/DTD/svg11.dtd">
<!-- Generated by graphviz version 2.26.3 (20100126.1600)
 -->
<!-- Title: G Pages: 1 -->
<svg width="520pt" height="204pt"
 viewBox="0.00 0.00 520.00 204.00" xmlns="http://www.w3.org/2000/svg" xmlns:xlink="http://www.w3.org/1999/xlink">
<g id="graph1" class="graph" transform="scale(1 1) rotate(0) translate(4 200)">
<title>G</title>
<polygon fill="white" stroke="white" points="-4,5 -4,-200 517,-200 517,5 -4,5"/>
<!-- Node1 -->
<g id="node1" class="node"><title>Node1</title>
<polygon fill="#bfbfbf" stroke="black" points="148.5,-174.5 148.5,-195.5 245.5,-195.5 245.5,-174.5 148.5,-174.5"/>
<text text-anchor="middle" x="197" y="-182.5" font-family="DejaVuSans" font-size="10.00">src/IO/ReadXml.h</text>
</g>
<!-- Node2 -->
<g id="node3" class="node"><title>Node2</title>
<a xlink:href="_read_xml_8cpp.html" target="_top" xlink:title="src/IO/ReadXml.cpp">
<polygon fill="white" stroke="black" points="0,-116.5 0,-137.5 108,-137.5 108,-116.5 0,-116.5"/>
<text text-anchor="middle" x="54" y="-124.5" font-family="DejaVuSans" font-size="10.00">src/IO/ReadXml.cpp</text>
</a>
</g>
<!-- Node1&#45;&gt;Node2 -->
<g id="edge2" class="edge"><title>Node1&#45;&gt;Node2</title>
<path fill="none" stroke="midnightblue" d="M161.534,-170.615C136.321,-160.389 103.013,-146.88 80.1868,-137.621"/>
<polygon fill="midnightblue" stroke="midnightblue" points="160.521,-173.981 171.104,-174.497 163.153,-167.495 160.521,-173.981"/>
</g>
<!-- Node3 -->
<g id="node5" class="node"><title>Node3</title>
<a xlink:href="_read_xml_character_8h.html" target="_top" xlink:title="src/IO/ReadXmlCharacter.h">
<polygon fill="white" stroke="black" points="125.5,-116.5 125.5,-137.5 268.5,-137.5 268.5,-116.5 125.5,-116.5"/>
<text text-anchor="middle" x="197" y="-124.5" font-family="DejaVuSans" font-size="10.00">src/IO/ReadXmlCharacter.h</text>
</a>
</g>
<!-- Node1&#45;&gt;Node3 -->
<g id="edge4" class="edge"><title>Node1&#45;&gt;Node3</title>
<path fill="none" stroke="midnightblue" d="M197,-164.191C197,-155.168 197,-144.994 197,-137.571"/>
<polygon fill="midnightblue" stroke="midnightblue" points="193.5,-164.362 197,-174.362 200.5,-164.362 193.5,-164.362"/>
</g>
<!-- Node8 -->
<g id="node15" class="node"><title>Node8</title>
<a xlink:href="_read_xml_template_8h.html" target="_top" xlink:title="src/IO/ReadXmlTemplate.h">
<polygon fill="white" stroke="black" points="286,-116.5 286,-137.5 426,-137.5 426,-116.5 286,-116.5"/>
<text text-anchor="middle" x="356" y="-124.5" font-family="DejaVuSans" font-size="10.00">src/IO/ReadXmlTemplate.h</text>
</a>
</g>
<!-- Node1&#45;&gt;Node8 -->
<g id="edge14" class="edge"><title>Node1&#45;&gt;Node8</title>
<path fill="none" stroke="midnightblue" d="M235.353,-171.009C263.609,-160.702 301.438,-146.903 327.152,-137.523"/>
<polygon fill="midnightblue" stroke="midnightblue" points="233.989,-167.782 225.794,-174.497 236.388,-174.358 233.989,-167.782"/>
</g>
<!-- Node4 -->
<g id="node7" class="node"><title>Node4</title>
<a xlink:href="_read_xml_character_8cpp.html" target="_top" xlink:title="src/IO/ReadXmlCharacter.cpp">
<polygon fill="white" stroke="black" points="14.5,-58.5 14.5,-79.5 169.5,-79.5 169.5,-58.5 14.5,-58.5"/>
<text text-anchor="middle" x="92" y="-66.5" font-family="DejaVuSans" font-size="10.00">src/IO/ReadXmlCharacter.cpp</text>
</a>
</g>
<!-- Node3&#45;&gt;Node4 -->
<g id="edge6" class="edge"><title>Node3&#45;&gt;Node4</title>
<path fill="none" stroke="midnightblue" d="M168.971,-111.517C150.689,-101.419 127.308,-88.5032 111.137,-79.5707"/>
<polygon fill="midnightblue" stroke="midnightblue" points="167.296,-114.59 177.741,-116.362 170.68,-108.463 167.296,-114.59"/>
</g>
<!-- Node5 -->
<g id="node9" class="node"><title>Node5</title>
<a xlink:href="_main_window_8h.html" target="_top" xlink:title="src/MainWindow.h">
<polygon fill="white" stroke="black" points="187,-58.5 187,-79.5 287,-79.5 287,-58.5 187,-58.5"/>
<text text-anchor="middle" x="237" y="-66.5" font-family="DejaVuSans" font-size="10.00">src/MainWindow.h</text>
</a>
</g>
<!-- Node3&#45;&gt;Node5 -->
<g id="edge8" class="edge"><title>Node3&#45;&gt;Node5</title>
<path fill="none" stroke="midnightblue" d="M210.132,-107.959C216.64,-98.522 224.253,-87.4835 229.71,-79.5707"/>
<polygon fill="midnightblue" stroke="midnightblue" points="207.133,-106.143 204.337,-116.362 212.895,-110.117 207.133,-106.143"/>
</g>
<!-- Node6 -->
<g id="node11" class="node"><title>Node6</title>
<a xlink:href="main_8cpp.html" target="_top" xlink:title="src/main.cpp">
<polygon fill="white" stroke="black" points="181,-0.5 181,-21.5 259,-21.5 259,-0.5 181,-0.5"/>
<text text-anchor="middle" x="220" y="-8.5" font-family="DejaVuSans" font-size="10.00">src/main.cpp</text>
</a>
</g>
<!-- Node5&#45;&gt;Node6 -->
<g id="edge10" class="edge"><title>Node5&#45;&gt;Node6</title>
<path fill="none" stroke="midnightblue" d="M230.988,-48.4876C228.322,-39.3924 225.298,-29.0756 223.098,-21.5707"/>
<polygon fill="midnightblue" stroke="midnightblue" points="227.71,-49.7501 233.882,-58.3619 234.428,-47.7811 227.71,-49.7501"/>
</g>
<!-- Node7 -->
<g id="node13" class="node"><title>Node7</title>
<a xlink:href="_main_window_8cpp.html" target="_top" xlink:title="src/MainWindow.cpp">
<polygon fill="white" stroke="black" points="276.5,-0.5 276.5,-21.5 387.5,-21.5 387.5,-0.5 276.5,-0.5"/>
<text text-anchor="middle" x="332" y="-8.5" font-family="DejaVuSans" font-size="10.00">src/MainWindow.cpp</text>
</a>
</g>
<!-- Node5&#45;&gt;Node7 -->
<g id="edge12" class="edge"><title>Node5&#45;&gt;Node7</title>
<path fill="none" stroke="midnightblue" d="M263.042,-53.1009C279.478,-43.0658 300.256,-30.3808 314.686,-21.5707"/>
<polygon fill="midnightblue" stroke="midnightblue" points="261.136,-50.1637 254.424,-58.3619 264.783,-56.1383 261.136,-50.1637"/>
</g>
<!-- Node8&#45;&gt;Node7 -->
<g id="edge18" class="edge"><title>Node8&#45;&gt;Node7</title>
<path fill="none" stroke="midnightblue" d="M351.75,-106.458C346.62,-81.6635 338.188,-40.9098 334.209,-21.6792"/>
<polygon fill="midnightblue" stroke="midnightblue" points="348.332,-107.211 353.785,-116.295 355.186,-105.793 348.332,-107.211"/>
</g>
<!-- Node9 -->
<g id="node17" class="node"><title>Node9</title>
<a xlink:href="_read_xml_template_8cpp.html" target="_top" xlink:title="src/IO/ReadXmlTemplate.cpp">
<polygon fill="white" stroke="black" points="360,-58.5 360,-79.5 512,-79.5 512,-58.5 360,-58.5"/>
<text text-anchor="middle" x="436" y="-66.5" font-family="DejaVuSans" font-size="10.00">src/IO/ReadXmlTemplate.cpp</text>
</a>
</g>
<!-- Node8&#45;&gt;Node9 -->
<g id="edge16" class="edge"><title>Node8&#45;&gt;Node9</title>
<path fill="none" stroke="midnightblue" d="M379.092,-110.259C392.739,-100.364 409.605,-88.1361 421.42,-79.5707"/>
<polygon fill="midnightblue" stroke="midnightblue" points="376.715,-107.659 370.673,-116.362 380.824,-113.326 376.715,-107.659"/>
</g>
</g>
</svg>
