<?xml version="1.0" encoding="UTF-8" standalone="no"?>
<!DOCTYPE svg PUBLIC "-//W3C//DTD SVG 1.1//EN"
 "http://www.w3.org/Graphics/SVG/1.1/DTD/svg11.dtd">
<!-- Generated by graphviz version 2.26.3 (20100126.1600)
 -->
<!-- Title: G Pages: 1 -->
<svg width="619pt" height="204pt"
 viewBox="0.00 0.00 619.00 204.00" xmlns="http://www.w3.org/2000/svg" xmlns:xlink="http://www.w3.org/1999/xlink">
<g id="graph1" class="graph" transform="scale(1 1) rotate(0) translate(4 200)">
<title>G</title>
<polygon fill="white" stroke="white" points="-4,5 -4,-200 616,-200 616,5 -4,5"/>
<!-- Node1 -->
<g id="node1" class="node"><title>Node1</title>
<polygon fill="#bfbfbf" stroke="black" points="193.5,-174.5 193.5,-195.5 404.5,-195.5 404.5,-174.5 193.5,-174.5"/>
<text text-anchor="middle" x="299" y="-182.5" font-family="DejaVuSans" font-size="10.00">src/Widgets/Dialogs/SelectMeritsDialog.h</text>
</g>
<!-- Node2 -->
<g id="node3" class="node"><title>Node2</title>
<a xlink:href="_merit_widget_8h.html" target="_top" xlink:title="src/Widgets/MeritWidget.h">
<polygon fill="white" stroke="black" points="69,-116.5 69,-137.5 209,-137.5 209,-116.5 69,-116.5"/>
<text text-anchor="middle" x="139" y="-124.5" font-family="DejaVuSans" font-size="10.00">src/Widgets/MeritWidget.h</text>
</a>
</g>
<!-- Node1&#45;&gt;Node2 -->
<g id="edge2" class="edge"><title>Node1&#45;&gt;Node2</title>
<path fill="none" stroke="midnightblue" d="M260.405,-171.009C231.972,-160.702 193.905,-146.903 168.029,-137.523"/>
<polygon fill="midnightblue" stroke="midnightblue" points="259.431,-174.379 270.025,-174.497 261.817,-167.798 259.431,-174.379"/>
</g>
<!-- Node7 -->
<g id="node13" class="node"><title>Node7</title>
<a xlink:href="_power_widget_8h.html" target="_top" xlink:title="src/Widgets/PowerWidget.h">
<polygon fill="white" stroke="black" points="227,-116.5 227,-137.5 371,-137.5 371,-116.5 227,-116.5"/>
<text text-anchor="middle" x="299" y="-124.5" font-family="DejaVuSans" font-size="10.00">src/Widgets/PowerWidget.h</text>
</a>
</g>
<!-- Node1&#45;&gt;Node7 -->
<g id="edge12" class="edge"><title>Node1&#45;&gt;Node7</title>
<path fill="none" stroke="midnightblue" d="M299,-164.191C299,-155.168 299,-144.994 299,-137.571"/>
<polygon fill="midnightblue" stroke="midnightblue" points="295.5,-164.362 299,-174.362 302.5,-164.362 295.5,-164.362"/>
</g>
<!-- Node9 -->
<g id="node18" class="node"><title>Node9</title>
<a xlink:href="_select_merits_dialog_8cpp.html" target="_top" xlink:title="src/Widgets/Dialogs/SelectMeritsDialog.cpp">
<polygon fill="white" stroke="black" points="389,-116.5 389,-137.5 611,-137.5 611,-116.5 389,-116.5"/>
<text text-anchor="middle" x="500" y="-124.5" font-family="DejaVuSans" font-size="10.00">src/Widgets/Dialogs/SelectMeritsDialog.cpp</text>
</a>
</g>
<!-- Node1&#45;&gt;Node9 -->
<g id="edge18" class="edge"><title>Node1&#45;&gt;Node9</title>
<path fill="none" stroke="midnightblue" d="M345.162,-171.68C381.108,-161.307 430.316,-147.108 463.532,-137.523"/>
<polygon fill="midnightblue" stroke="midnightblue" points="344.037,-168.361 335.4,-174.497 345.978,-175.087 344.037,-168.361"/>
</g>
<!-- Node3 -->
<g id="node5" class="node"><title>Node3</title>
<a xlink:href="_main_window_8h.html" target="_top" xlink:title="src/MainWindow.h">
<polygon fill="white" stroke="black" points="168,-58.5 168,-79.5 268,-79.5 268,-58.5 168,-58.5"/>
<text text-anchor="middle" x="218" y="-66.5" font-family="DejaVuSans" font-size="10.00">src/MainWindow.h</text>
</a>
</g>
<!-- Node2&#45;&gt;Node3 -->
<g id="edge4" class="edge"><title>Node2&#45;&gt;Node3</title>
<path fill="none" stroke="midnightblue" d="M161.803,-110.259C175.28,-100.364 191.935,-88.1361 203.602,-79.5707"/>
<polygon fill="midnightblue" stroke="midnightblue" points="159.479,-107.623 153.49,-116.362 163.622,-113.265 159.479,-107.623"/>
</g>
<!-- Node6 -->
<g id="node11" class="node"><title>Node6</title>
<a xlink:href="_merit_widget_8cpp.html" target="_top" xlink:title="src/Widgets/MeritWidget.cpp">
<polygon fill="white" stroke="black" points="-0.5,-58.5 -0.5,-79.5 150.5,-79.5 150.5,-58.5 -0.5,-58.5"/>
<text text-anchor="middle" x="75" y="-66.5" font-family="DejaVuSans" font-size="10.00">src/Widgets/MeritWidget.cpp</text>
</a>
</g>
<!-- Node2&#45;&gt;Node6 -->
<g id="edge10" class="edge"><title>Node2&#45;&gt;Node6</title>
<path fill="none" stroke="midnightblue" d="M119.585,-109.405C108.841,-99.6683 95.8457,-87.8914 86.6642,-79.5707"/>
<polygon fill="midnightblue" stroke="midnightblue" points="117.501,-112.24 127.261,-116.362 122.202,-107.053 117.501,-112.24"/>
</g>
<!-- Node4 -->
<g id="node7" class="node"><title>Node4</title>
<a xlink:href="main_8cpp.html" target="_top" xlink:title="src/main.cpp">
<polygon fill="white" stroke="black" points="123,-0.5 123,-21.5 201,-21.5 201,-0.5 123,-0.5"/>
<text text-anchor="middle" x="162" y="-8.5" font-family="DejaVuSans" font-size="10.00">src/main.cpp</text>
</a>
</g>
<!-- Node3&#45;&gt;Node4 -->
<g id="edge6" class="edge"><title>Node3&#45;&gt;Node4</title>
<path fill="none" stroke="midnightblue" d="M200.735,-51.118C191.388,-41.4377 180.161,-29.8098 172.206,-21.5707"/>
<polygon fill="midnightblue" stroke="midnightblue" points="198.265,-53.599 207.729,-58.3619 203.301,-48.7368 198.265,-53.599"/>
</g>
<!-- Node5 -->
<g id="node9" class="node"><title>Node5</title>
<a xlink:href="_main_window_8cpp.html" target="_top" xlink:title="src/MainWindow.cpp">
<polygon fill="white" stroke="black" points="218.5,-0.5 218.5,-21.5 329.5,-21.5 329.5,-0.5 218.5,-0.5"/>
<text text-anchor="middle" x="274" y="-8.5" font-family="DejaVuSans" font-size="10.00">src/MainWindow.cpp</text>
</a>
</g>
<!-- Node3&#45;&gt;Node5 -->
<g id="edge8" class="edge"><title>Node3&#45;&gt;Node5</title>
<path fill="none" stroke="midnightblue" d="M235.265,-51.118C244.612,-41.4377 255.839,-29.8098 263.794,-21.5707"/>
<polygon fill="midnightblue" stroke="midnightblue" points="232.699,-48.7368 228.271,-58.3619 237.735,-53.599 232.699,-48.7368"/>
</g>
<!-- Node7&#45;&gt;Node3 -->
<g id="edge14" class="edge"><title>Node7&#45;&gt;Node3</title>
<path fill="none" stroke="midnightblue" d="M275.62,-110.259C261.802,-100.364 244.725,-88.1361 232.762,-79.5707"/>
<polygon fill="midnightblue" stroke="midnightblue" points="273.975,-113.386 284.143,-116.362 278.05,-107.694 273.975,-113.386"/>
</g>
<!-- Node8 -->
<g id="node16" class="node"><title>Node8</title>
<a xlink:href="_power_widget_8cpp.html" target="_top" xlink:title="src/Widgets/PowerWidget.cpp">
<polygon fill="white" stroke="black" points="285.5,-58.5 285.5,-79.5 440.5,-79.5 440.5,-58.5 285.5,-58.5"/>
<text text-anchor="middle" x="363" y="-66.5" font-family="DejaVuSans" font-size="10.00">src/Widgets/PowerWidget.cpp</text>
</a>
</g>
<!-- Node7&#45;&gt;Node8 -->
<g id="edge16" class="edge"><title>Node7&#45;&gt;Node8</title>
<path fill="none" stroke="midnightblue" d="M318.415,-109.405C329.159,-99.6683 342.154,-87.8914 351.336,-79.5707"/>
<polygon fill="midnightblue" stroke="midnightblue" points="315.798,-107.053 310.739,-116.362 320.499,-112.24 315.798,-107.053"/>
</g>
</g>
</svg>
