<?xml version="1.0" encoding="UTF-8" standalone="no"?>
<!DOCTYPE svg PUBLIC "-//W3C//DTD SVG 1.1//EN"
 "http://www.w3.org/Graphics/SVG/1.1/DTD/svg11.dtd">
<!-- Generated by graphviz version 2.26.3 (20100126.1600)
 -->
<!-- Title: G Pages: 1 -->
<svg width="902pt" height="146pt"
 viewBox="0.00 0.00 901.80 146.00" xmlns="http://www.w3.org/2000/svg" xmlns:xlink="http://www.w3.org/1999/xlink">
<g id="graph1" class="graph" transform="scale(1 1) rotate(0) translate(4 142)">
<title>G</title>
<polygon fill="white" stroke="white" points="-4,5 -4,-142 898.795,-142 898.795,5 -4,5"/>
<!-- Node1 -->
<g id="node1" class="node"><title>Node1</title>
<polygon fill="#bfbfbf" stroke="black" points="231.795,-116.5 231.795,-137.5 453.795,-137.5 453.795,-116.5 231.795,-116.5"/>
<text text-anchor="middle" x="342.795" y="-124.5" font-family="DejaVuSans" font-size="10.00">src/Widgets/Dialogs/SelectMeritsDialog.cpp</text>
</g>
<!-- Node2 -->
<g id="node3" class="node"><title>Node2</title>
<polygon fill="white" stroke="#bfbfbf" points="258.795,-0.5 258.795,-21.5 334.795,-21.5 334.795,-0.5 258.795,-0.5"/>
<text text-anchor="middle" x="296.795" y="-8.5" font-family="DejaVuSans" font-size="10.00">QGridLayout</text>
</g>
<!-- Node1&#45;&gt;Node2 -->
<g id="edge2" class="edge"><title>Node1&#45;&gt;Node2</title>
<path fill="none" stroke="midnightblue" d="M231.712,-118.755C139.045,-110.717 19.7722,-97.2035 4.7953,-80 -1.62489,-72.6253 -1.54553,-65.443 4.7953,-58 20.3904,-39.694 169.533,-23.0109 248.413,-15.3787"/>
<polygon fill="midnightblue" stroke="midnightblue" points="248.972,-18.8413 258.594,-14.4061 248.307,-11.873 248.972,-18.8413"/>
</g>
<!-- Node3 -->
<g id="node5" class="node"><title>Node3</title>
<polygon fill="white" stroke="#bfbfbf" points="13.7953,-58.5 13.7953,-79.5 69.7953,-79.5 69.7953,-58.5 13.7953,-58.5"/>
<text text-anchor="middle" x="41.7953" y="-66.5" font-family="DejaVuSans" font-size="10.00">QDebug</text>
</g>
<!-- Node1&#45;&gt;Node3 -->
<g id="edge4" class="edge"><title>Node1&#45;&gt;Node3</title>
<path fill="none" stroke="midnightblue" d="M271.196,-116.493C220.233,-108.497 149.998,-96.4343 79.88,-80.0754"/>
<polygon fill="midnightblue" stroke="midnightblue" points="80.5257,-76.6317 69.9888,-77.7386 78.9162,-83.4441 80.5257,-76.6317"/>
</g>
<!-- Node4 -->
<g id="node7" class="node"><title>Node4</title>
<polygon fill="white" stroke="#bfbfbf" points="87.2953,-58.5 87.2953,-79.5 200.295,-79.5 200.295,-58.5 87.2953,-58.5"/>
<text text-anchor="middle" x="143.795" y="-66.5" font-family="DejaVuSans" font-size="10.00">Datatypes/cv_Trait.h</text>
</g>
<!-- Node1&#45;&gt;Node4 -->
<g id="edge6" class="edge"><title>Node1&#45;&gt;Node4</title>
<path fill="none" stroke="midnightblue" d="M306.758,-116.497C273.894,-106.918 225.178,-92.7196 189.571,-82.3418"/>
<polygon fill="midnightblue" stroke="midnightblue" points="190.48,-78.9611 179.9,-79.5231 188.521,-85.6815 190.48,-78.9611"/>
</g>
<!-- Node5 -->
<g id="node9" class="node"><title>Node5</title>
<polygon fill="white" stroke="#bfbfbf" points="217.295,-58.5 217.295,-79.5 344.295,-79.5 344.295,-58.5 217.295,-58.5"/>
<text text-anchor="middle" x="280.795" y="-66.5" font-family="DejaVuSans" font-size="10.00">Exceptions/Exception.h</text>
</g>
<!-- Node1&#45;&gt;Node5 -->
<g id="edge8" class="edge"><title>Node1&#45;&gt;Node5</title>
<path fill="none" stroke="midnightblue" d="M331.424,-116.362C322.509,-108.023 309.916,-96.2418 299.52,-86.5162"/>
<polygon fill="midnightblue" stroke="midnightblue" points="301.789,-83.8463 292.095,-79.5707 297.007,-88.9582 301.789,-83.8463"/>
</g>
<!-- Node6 -->
<g id="node11" class="node"><title>Node6</title>
<polygon fill="white" stroke="#bfbfbf" points="361.295,-58.5 361.295,-79.5 450.295,-79.5 450.295,-58.5 361.295,-58.5"/>
<text text-anchor="middle" x="405.795" y="-66.5" font-family="DejaVuSans" font-size="10.00">Config/Config.h</text>
</g>
<!-- Node1&#45;&gt;Node6 -->
<g id="edge10" class="edge"><title>Node1&#45;&gt;Node6</title>
<path fill="none" stroke="midnightblue" d="M354.35,-116.362C363.409,-108.023 376.205,-96.2418 386.769,-86.5162"/>
<polygon fill="midnightblue" stroke="midnightblue" points="389.327,-88.9187 394.313,-79.5707 384.586,-83.7688 389.327,-88.9187"/>
</g>
<!-- Node7 -->
<g id="node13" class="node"><title>Node7</title>
<polygon fill="white" stroke="#bfbfbf" points="467.295,-58.5 467.295,-79.5 616.295,-79.5 616.295,-58.5 467.295,-58.5"/>
<text text-anchor="middle" x="541.795" y="-66.5" font-family="DejaVuSans" font-size="10.00">Storage/StorageTemplate.h</text>
</g>
<!-- Node1&#45;&gt;Node7 -->
<g id="edge12" class="edge"><title>Node1&#45;&gt;Node7</title>
<path fill="none" stroke="midnightblue" d="M378.833,-116.497C411.696,-106.918 460.413,-92.7196 496.019,-82.3418"/>
<polygon fill="midnightblue" stroke="midnightblue" points="497.069,-85.6815 505.69,-79.5231 495.11,-78.9611 497.069,-85.6815"/>
</g>
<!-- Node8 -->
<g id="node15" class="node"><title>Node8</title>
<a xlink:href="_select_merits_dialog_8h.html" target="_top" xlink:title="SelectMeritsDialog.h">
<polygon fill="white" stroke="black" points="633.295,-58.5 633.295,-79.5 748.295,-79.5 748.295,-58.5 633.295,-58.5"/>
<text text-anchor="middle" x="690.795" y="-66.5" font-family="DejaVuSans" font-size="10.00">SelectMeritsDialog.h</text>
</a>
</g>
<!-- Node1&#45;&gt;Node8 -->
<g id="edge14" class="edge"><title>Node1&#45;&gt;Node8</title>
<path fill="none" stroke="midnightblue" d="M405.815,-116.497C467.136,-106.277 560.017,-90.7963 622.935,-80.31"/>
<polygon fill="midnightblue" stroke="midnightblue" points="623.866,-83.7033 633.154,-78.6069 622.715,-76.7986 623.866,-83.7033"/>
</g>
<!-- Node10 -->
<g id="node20" class="node"><title>Node10</title>
<polygon fill="white" stroke="#bfbfbf" points="765.795,-58.5 765.795,-79.5 893.795,-79.5 893.795,-58.5 765.795,-58.5"/>
<text text-anchor="middle" x="829.795" y="-66.5" font-family="DejaVuSans" font-size="10.00">ui_SelectMeritsDialog.h</text>
</g>
<!-- Node1&#45;&gt;Node10 -->
<g id="edge20" class="edge"><title>Node1&#45;&gt;Node10</title>
<path fill="none" stroke="midnightblue" d="M444.58,-116.492C526.003,-107.842 643.362,-94.8296 755.575,-80.1263"/>
<polygon fill="midnightblue" stroke="midnightblue" points="756.262,-83.5661 765.72,-78.7905 755.349,-76.626 756.262,-83.5661"/>
</g>
<!-- Node8&#45;&gt;Node2 -->
<g id="edge16" class="edge"><title>Node8&#45;&gt;Node2</title>
<path fill="none" stroke="midnightblue" d="M633.215,-59.3238C630.369,-58.8705 627.55,-58.4269 624.795,-58 525.712,-42.6461 409.504,-26.4125 345.421,-17.6145"/>
<polygon fill="midnightblue" stroke="midnightblue" points="345.598,-14.1061 335.215,-16.2157 344.647,-21.0412 345.598,-14.1061"/>
</g>
<!-- Node9 -->
<g id="node18" class="node"><title>Node9</title>
<polygon fill="white" stroke="#bfbfbf" points="663.795,-0.5 663.795,-21.5 717.795,-21.5 717.795,-0.5 663.795,-0.5"/>
<text text-anchor="middle" x="690.795" y="-8.5" font-family="DejaVuSans" font-size="10.00">QDialog</text>
</g>
<!-- Node8&#45;&gt;Node9 -->
<g id="edge18" class="edge"><title>Node8&#45;&gt;Node9</title>
<path fill="none" stroke="midnightblue" d="M690.795,-58.3619C690.795,-50.9219 690.795,-40.7427 690.795,-31.7276"/>
<polygon fill="midnightblue" stroke="midnightblue" points="694.295,-31.5706 690.795,-21.5707 687.295,-31.5707 694.295,-31.5706"/>
</g>
</g>
</svg>
