<?xml version="1.0" encoding="UTF-8" standalone="no"?>
<!DOCTYPE svg PUBLIC "-//W3C//DTD SVG 1.1//EN"
 "http://www.w3.org/Graphics/SVG/1.1/DTD/svg11.dtd">
<!-- Generated by graphviz version 2.26.3 (20100126.1600)
 -->
<!-- Title: G Pages: 1 -->
<svg width="1274pt" height="320pt"
 viewBox="0.00 0.00 1273.51 320.00" xmlns="http://www.w3.org/2000/svg" xmlns:xlink="http://www.w3.org/1999/xlink">
<g id="graph1" class="graph" transform="scale(1 1) rotate(0) translate(4 316)">
<title>G</title>
<polygon fill="white" stroke="white" points="-4,5 -4,-316 1270.51,-316 1270.51,5 -4,5"/>
<!-- Node1 -->
<g id="node1" class="node"><title>Node1</title>
<polygon fill="#bfbfbf" stroke="black" points="221,-290.5 221,-311.5 443,-311.5 443,-290.5 221,-290.5"/>
<text text-anchor="middle" x="332" y="-298.5" font-family="DejaVuSans" font-size="10.00">src/Widgets/Dialogs/SelectMeritsDialog.cpp</text>
</g>
<!-- Node2 -->
<g id="node3" class="node"><title>Node2</title>
<polygon fill="white" stroke="#bfbfbf" points="0,-174.5 0,-195.5 76,-195.5 76,-174.5 0,-174.5"/>
<text text-anchor="middle" x="38" y="-182.5" font-family="DejaVuSans" font-size="10.00">QGridLayout</text>
</g>
<!-- Node1&#45;&gt;Node2 -->
<g id="edge2" class="edge"><title>Node1&#45;&gt;Node2</title>
<path fill="none" stroke="midnightblue" d="M220.918,-294.025C155.554,-287.679 81.1037,-275.819 57,-254 43.6576,-241.922 39.331,-221.423 38.0892,-205.898"/>
<polygon fill="midnightblue" stroke="midnightblue" points="41.5755,-205.504 37.6454,-195.665 34.582,-205.807 41.5755,-205.504"/>
</g>
<!-- Node3 -->
<g id="node5" class="node"><title>Node3</title>
<polygon fill="white" stroke="#bfbfbf" points="198,-232.5 198,-253.5 254,-253.5 254,-232.5 198,-232.5"/>
<text text-anchor="middle" x="226" y="-240.5" font-family="DejaVuSans" font-size="10.00">QDebug</text>
</g>
<!-- Node1&#45;&gt;Node3 -->
<g id="edge4" class="edge"><title>Node1&#45;&gt;Node3</title>
<path fill="none" stroke="midnightblue" d="M312.558,-290.362C296.196,-281.409 272.587,-268.491 254.157,-258.406"/>
<polygon fill="midnightblue" stroke="midnightblue" points="255.771,-255.3 245.319,-253.571 252.411,-261.441 255.771,-255.3"/>
</g>
<!-- Node4 -->
<g id="node7" class="node"><title>Node4</title>
<a xlink:href="cv___trait_8h.html" target="_top" xlink:title="../../Datatypes/cv_Trait.h">
<polygon fill="white" stroke="black" points="523.5,-174.5 523.5,-195.5 654.5,-195.5 654.5,-174.5 523.5,-174.5"/>
<text text-anchor="middle" x="589" y="-182.5" font-family="DejaVuSans" font-size="10.00">../../Datatypes/cv_Trait.h</text>
</a>
</g>
<!-- Node1&#45;&gt;Node4 -->
<g id="edge6" class="edge"><title>Node1&#45;&gt;Node4</title>
<path fill="none" stroke="midnightblue" d="M365.955,-290.441C392.744,-281.725 430.828,-268.473 463,-254 498.496,-238.032 537.54,-215.89 562.615,-201.036"/>
<polygon fill="midnightblue" stroke="midnightblue" points="564.713,-203.859 571.504,-195.727 561.124,-197.849 564.713,-203.859"/>
</g>
<!-- Node12 -->
<g id="node30" class="node"><title>Node12</title>
<a xlink:href="_exception_8h_source.html" target="_top" xlink:title="../../Exceptions/Exception.h">
<polygon fill="white" stroke="black" points="309.5,-232.5 309.5,-253.5 454.5,-253.5 454.5,-232.5 309.5,-232.5"/>
<text text-anchor="middle" x="382" y="-240.5" font-family="DejaVuSans" font-size="10.00">../../Exceptions/Exception.h</text>
</a>
</g>
<!-- Node1&#45;&gt;Node12 -->
<g id="edge36" class="edge"><title>Node1&#45;&gt;Node12</title>
<path fill="none" stroke="midnightblue" d="M341.171,-290.362C348.148,-282.268 357.921,-270.932 366.156,-261.38"/>
<polygon fill="midnightblue" stroke="midnightblue" points="369.009,-263.43 372.887,-253.571 363.707,-258.859 369.009,-263.43"/>
</g>
<!-- Node16 -->
<g id="node45" class="node"><title>Node16</title>
<a xlink:href="_config_8h.html" target="_top" xlink:title="../Config/Config.h">
<polygon fill="white" stroke="black" points="167,-174.5 167,-195.5 265,-195.5 265,-174.5 167,-174.5"/>
<text text-anchor="middle" x="216" y="-182.5" font-family="DejaVuSans" font-size="10.00">../Config/Config.h</text>
</a>
</g>
<!-- Node1&#45;&gt;Node16 -->
<g id="edge66" class="edge"><title>Node1&#45;&gt;Node16</title>
<path fill="none" stroke="midnightblue" d="M321.295,-290.295C301.355,-270.355 258.337,-227.337 233.906,-202.906"/>
<polygon fill="midnightblue" stroke="midnightblue" points="236.225,-200.275 226.679,-195.679 231.275,-205.225 236.225,-200.275"/>
</g>
<!-- Node19 -->
<g id="node53" class="node"><title>Node19</title>
<a xlink:href="_storage_template_8h.html" target="_top" xlink:title="../../Storage/StorageTemplate.h">
<polygon fill="white" stroke="black" points="813.5,-232.5 813.5,-253.5 980.5,-253.5 980.5,-232.5 813.5,-232.5"/>
<text text-anchor="middle" x="897" y="-240.5" font-family="DejaVuSans" font-size="10.00">../../Storage/StorageTemplate.h</text>
</a>
</g>
<!-- Node1&#45;&gt;Node19 -->
<g id="edge68" class="edge"><title>Node1&#45;&gt;Node19</title>
<path fill="none" stroke="midnightblue" d="M434.317,-290.497C539.415,-279.708 701.617,-263.057 803.411,-252.607"/>
<polygon fill="midnightblue" stroke="midnightblue" points="803.784,-256.088 813.375,-251.585 803.069,-249.124 803.784,-256.088"/>
</g>
<!-- Node23 -->
<g id="node68" class="node"><title>Node23</title>
<a xlink:href="_select_merits_dialog_8h.html" target="_top" xlink:title="SelectMeritsDialog.h">
<polygon fill="white" stroke="black" points="65.5,-232.5 65.5,-253.5 180.5,-253.5 180.5,-232.5 65.5,-232.5"/>
<text text-anchor="middle" x="123" y="-240.5" font-family="DejaVuSans" font-size="10.00">SelectMeritsDialog.h</text>
</a>
</g>
<!-- Node1&#45;&gt;Node23 -->
<g id="edge90" class="edge"><title>Node1&#45;&gt;Node23</title>
<path fill="none" stroke="midnightblue" d="M294.152,-290.497C259.489,-280.877 208.035,-266.598 170.598,-256.209"/>
<polygon fill="midnightblue" stroke="midnightblue" points="171.491,-252.825 160.919,-253.523 169.619,-259.57 171.491,-252.825"/>
</g>
<!-- Node25 -->
<g id="node73" class="node"><title>Node25</title>
<polygon fill="white" stroke="#bfbfbf" points="998,-232.5 998,-253.5 1126,-253.5 1126,-232.5 998,-232.5"/>
<text text-anchor="middle" x="1062" y="-240.5" font-family="DejaVuSans" font-size="10.00">ui_SelectMeritsDialog.h</text>
</g>
<!-- Node1&#45;&gt;Node25 -->
<g id="edge96" class="edge"><title>Node1&#45;&gt;Node25</title>
<path fill="none" stroke="midnightblue" d="M443.256,-295.697C571.943,-288.959 790.372,-275.665 987.955,-254.044"/>
<polygon fill="midnightblue" stroke="midnightblue" points="988.387,-257.518 997.943,-252.942 987.619,-250.56 988.387,-257.518"/>
</g>
<!-- Node5 -->
<g id="node9" class="node"><title>Node5</title>
<polygon fill="white" stroke="#bfbfbf" points="686.5,-116.5 686.5,-137.5 735.5,-137.5 735.5,-116.5 686.5,-116.5"/>
<text text-anchor="middle" x="711" y="-124.5" font-family="DejaVuSans" font-size="10.00">QFlags</text>
</g>
<!-- Node4&#45;&gt;Node5 -->
<g id="edge8" class="edge"><title>Node4&#45;&gt;Node5</title>
<path fill="none" stroke="midnightblue" d="M611.093,-174.497C630.234,-165.397 658.146,-152.127 679.605,-141.925"/>
<polygon fill="midnightblue" stroke="midnightblue" points="681.13,-145.076 688.659,-137.621 678.125,-138.754 681.13,-145.076"/>
</g>
<!-- Node6 -->
<g id="node11" class="node"><title>Node6</title>
<polygon fill="white" stroke="#bfbfbf" points="493.5,-0.5 493.5,-21.5 546.5,-21.5 546.5,-0.5 493.5,-0.5"/>
<text text-anchor="middle" x="520" y="-8.5" font-family="DejaVuSans" font-size="10.00">QString</text>
</g>
<!-- Node4&#45;&gt;Node6 -->
<g id="edge10" class="edge"><title>Node4&#45;&gt;Node6</title>
<path fill="none" stroke="midnightblue" d="M523.24,-175.538C480.093,-167.83 429.28,-155.369 416,-138 384.54,-96.8524 450.174,-50.116 490.892,-26.4678"/>
<polygon fill="midnightblue" stroke="midnightblue" points="492.671,-29.4825 499.65,-21.5108 489.223,-23.3906 492.671,-29.4825"/>
</g>
<!-- Node7 -->
<g id="node13" class="node"><title>Node7</title>
<polygon fill="white" stroke="#bfbfbf" points="975.5,-58.5 975.5,-79.5 1016.5,-79.5 1016.5,-58.5 975.5,-58.5"/>
<text text-anchor="middle" x="996" y="-66.5" font-family="DejaVuSans" font-size="10.00">QList</text>
</g>
<!-- Node4&#45;&gt;Node7 -->
<g id="edge12" class="edge"><title>Node4&#45;&gt;Node7</title>
<path fill="none" stroke="midnightblue" d="M654.722,-179.868C754.043,-171.629 933.466,-154.678 958,-138 974.632,-126.693 984.696,-105.607 990.249,-89.7077"/>
<polygon fill="midnightblue" stroke="midnightblue" points="993.73,-90.3032 993.397,-79.7136 987.054,-88.1995 993.73,-90.3032"/>
</g>
<!-- Node8 -->
<g id="node15" class="node"><title>Node8</title>
<polygon fill="white" stroke="#bfbfbf" points="1147.5,-0.5 1147.5,-21.5 1216.5,-21.5 1216.5,-0.5 1147.5,-0.5"/>
<text text-anchor="middle" x="1182" y="-8.5" font-family="DejaVuSans" font-size="10.00">QStringList</text>
</g>
<!-- Node4&#45;&gt;Node8 -->
<g id="edge14" class="edge"><title>Node4&#45;&gt;Node8</title>
<path fill="none" stroke="midnightblue" d="M633.39,-174.452C664.918,-166.265 707.889,-153.678 744,-138 761.901,-130.228 764.136,-123.856 782,-116 860.878,-81.3128 883.717,-80.1117 967,-58 1025.29,-42.524 1093.44,-28.2642 1137.12,-19.6045"/>
<polygon fill="midnightblue" stroke="midnightblue" points="1138.01,-22.998 1147.14,-17.632 1136.65,-16.1299 1138.01,-22.998"/>
</g>
<!-- Node9 -->
<g id="node17" class="node"><title>Node9</title>
<a xlink:href="cv___species_8h.html" target="_top" xlink:title="cv_Species.h">
<polygon fill="white" stroke="black" points="513.5,-58.5 513.5,-79.5 592.5,-79.5 592.5,-58.5 513.5,-58.5"/>
<text text-anchor="middle" x="553" y="-66.5" font-family="DejaVuSans" font-size="10.00">cv_Species.h</text>
</a>
</g>
<!-- Node4&#45;&gt;Node9 -->
<g id="edge16" class="edge"><title>Node4&#45;&gt;Node9</title>
<path fill="none" stroke="midnightblue" d="M584.842,-174.255C581.241,-164.782 575.997,-150.569 572,-138 566.89,-121.93 561.858,-103.506 558.257,-89.7403"/>
<polygon fill="midnightblue" stroke="midnightblue" points="561.589,-88.6426 555.703,-79.8334 554.811,-90.3906 561.589,-88.6426"/>
</g>
<!-- Node10 -->
<g id="node20" class="node"><title>Node10</title>
<a xlink:href="cv___trait_detail_8h.html" target="_top" xlink:title="cv_TraitDetail.h">
<polygon fill="white" stroke="black" points="580.5,-116.5 580.5,-137.5 669.5,-137.5 669.5,-116.5 580.5,-116.5"/>
<text text-anchor="middle" x="625" y="-124.5" font-family="DejaVuSans" font-size="10.00">cv_TraitDetail.h</text>
</a>
</g>
<!-- Node4&#45;&gt;Node10 -->
<g id="edge20" class="edge"><title>Node4&#45;&gt;Node10</title>
<path fill="none" stroke="midnightblue" d="M595.603,-174.362C600.475,-166.513 607.238,-155.616 613.05,-146.253"/>
<polygon fill="midnightblue" stroke="midnightblue" points="616.139,-147.913 618.439,-137.571 610.191,-144.221 616.139,-147.913"/>
</g>
<!-- Node11 -->
<g id="node26" class="node"><title>Node11</title>
<a xlink:href="cv___abstract_trait_8h.html" target="_top" xlink:title="cv_AbstractTrait.h">
<polygon fill="white" stroke="black" points="424.5,-116.5 424.5,-137.5 525.5,-137.5 525.5,-116.5 424.5,-116.5"/>
<text text-anchor="middle" x="475" y="-124.5" font-family="DejaVuSans" font-size="10.00">cv_AbstractTrait.h</text>
</a>
</g>
<!-- Node4&#45;&gt;Node11 -->
<g id="edge30" class="edge"><title>Node4&#45;&gt;Node11</title>
<path fill="none" stroke="midnightblue" d="M568.355,-174.497C550.63,-165.479 524.855,-152.365 504.877,-142.201"/>
<polygon fill="midnightblue" stroke="midnightblue" points="506.376,-139.036 495.876,-137.621 503.202,-145.275 506.376,-139.036"/>
</g>
<!-- Node9&#45;&gt;Node6 -->
<g id="edge18" class="edge"><title>Node9&#45;&gt;Node6</title>
<path fill="none" stroke="midnightblue" d="M546.947,-58.3619C542.528,-50.5949 536.41,-39.8426 531.121,-30.5458"/>
<polygon fill="midnightblue" stroke="midnightblue" points="534.002,-28.5315 526.014,-21.5707 527.918,-31.9932 534.002,-28.5315"/>
</g>
<!-- Node10&#45;&gt;Node6 -->
<g id="edge22" class="edge"><title>Node10&#45;&gt;Node6</title>
<path fill="none" stroke="midnightblue" d="M623.596,-116.041C621.223,-101.374 615.207,-75.2177 601,-58 589.175,-43.6686 571.765,-32.7663 556.114,-25.0876"/>
<polygon fill="midnightblue" stroke="midnightblue" points="557.208,-21.7374 546.662,-20.7212 554.272,-28.0922 557.208,-21.7374"/>
</g>
<!-- Node10&#45;&gt;Node7 -->
<g id="edge24" class="edge"><title>Node10&#45;&gt;Node7</title>
<path fill="none" stroke="midnightblue" d="M669.784,-117.515C672.561,-116.986 675.317,-116.476 678,-116 783.051,-97.3515 908.547,-80.3443 965.366,-72.9272"/>
<polygon fill="midnightblue" stroke="midnightblue" points="966.006,-76.3735 975.472,-71.6147 965.104,-69.4318 966.006,-76.3735"/>
</g>
<!-- Node10&#45;&gt;Node8 -->
<g id="edge26" class="edge"><title>Node10&#45;&gt;Node8</title>
<path fill="none" stroke="midnightblue" d="M639.382,-116.444C661.624,-100.732 706.271,-71.5908 749,-58 820.538,-35.2458 1041.59,-19.5145 1137.19,-13.6003"/>
<polygon fill="midnightblue" stroke="midnightblue" points="1137.63,-17.0801 1147.39,-12.9767 1137.2,-10.0931 1137.63,-17.0801"/>
</g>
<!-- Node10&#45;&gt;Node9 -->
<g id="edge28" class="edge"><title>Node10&#45;&gt;Node9</title>
<path fill="none" stroke="midnightblue" d="M611.794,-116.362C601.239,-107.859 586.242,-95.7785 574.037,-85.9466"/>
<polygon fill="midnightblue" stroke="midnightblue" points="576.105,-83.1183 566.122,-79.5707 571.714,-88.5696 576.105,-83.1183"/>
</g>
<!-- Node11&#45;&gt;Node6 -->
<g id="edge32" class="edge"><title>Node11&#45;&gt;Node6</title>
<path fill="none" stroke="midnightblue" d="M479.153,-116.295C486.654,-96.9588 502.573,-55.9229 512.173,-31.1767"/>
<polygon fill="midnightblue" stroke="midnightblue" points="515.504,-32.2681 515.857,-21.6792 508.977,-29.7364 515.504,-32.2681"/>
</g>
<!-- Node11&#45;&gt;Node9 -->
<g id="edge34" class="edge"><title>Node11&#45;&gt;Node9</title>
<path fill="none" stroke="midnightblue" d="M489.306,-116.362C500.851,-107.777 517.3,-95.5459 530.59,-85.6636"/>
<polygon fill="midnightblue" stroke="midnightblue" points="532.848,-88.3463 538.784,-79.5707 528.671,-82.7291 532.848,-88.3463"/>
</g>
<!-- Node12&#45;&gt;Node4 -->
<g id="edge40" class="edge"><title>Node12&#45;&gt;Node4</title>
<path fill="none" stroke="midnightblue" d="M419.486,-232.497C453.671,-222.918 504.346,-208.72 541.384,-198.342"/>
<polygon fill="midnightblue" stroke="midnightblue" points="542.759,-201.591 551.444,-195.523 540.87,-194.851 542.759,-201.591"/>
</g>
<!-- Node12&#45;&gt;Node6 -->
<g id="edge38" class="edge"><title>Node12&#45;&gt;Node6</title>
<path fill="none" stroke="midnightblue" d="M380.992,-232.306C378.678,-201.334 376.261,-110.438 421,-58 437.097,-39.1324 462.471,-27.2931 483.499,-20.2167"/>
<polygon fill="midnightblue" stroke="midnightblue" points="484.614,-23.5352 493.109,-17.2039 482.52,-16.8558 484.614,-23.5352"/>
</g>
<!-- Node13 -->
<g id="node34" class="node"><title>Node13</title>
<a xlink:href="cv___shape_8h.html" target="_top" xlink:title="../Datatypes/cv_Shape.h">
<polygon fill="white" stroke="black" points="229,-58.5 229,-79.5 363,-79.5 363,-58.5 229,-58.5"/>
<text text-anchor="middle" x="296" y="-66.5" font-family="DejaVuSans" font-size="10.00">../Datatypes/cv_Shape.h</text>
</a>
</g>
<!-- Node12&#45;&gt;Node13 -->
<g id="edge42" class="edge"><title>Node12&#45;&gt;Node13</title>
<path fill="none" stroke="midnightblue" d="M372.187,-232.462C364.085,-223.346 352.707,-209.537 345,-196 324.845,-160.598 309.616,-115.291 301.818,-89.4689"/>
<polygon fill="midnightblue" stroke="midnightblue" points="305.118,-88.2862 298.938,-79.6808 298.403,-90.2621 305.118,-88.2862"/>
</g>
<!-- Node14 -->
<g id="node37" class="node"><title>Node14</title>
<a xlink:href="cv___identity_8h.html" target="_top" xlink:title="../Datatypes/cv_Identity.h">
<polygon fill="white" stroke="black" points="1118.5,-116.5 1118.5,-137.5 1255.5,-137.5 1255.5,-116.5 1118.5,-116.5"/>
<text text-anchor="middle" x="1187" y="-124.5" font-family="DejaVuSans" font-size="10.00">../Datatypes/cv_Identity.h</text>
</a>
</g>
<!-- Node12&#45;&gt;Node14 -->
<g id="edge46" class="edge"><title>Node12&#45;&gt;Node14</title>
<path fill="none" stroke="midnightblue" d="M454.502,-232.552C605.391,-210.809 952.098,-160.849 1108.24,-138.35"/>
<polygon fill="midnightblue" stroke="midnightblue" points="1108.84,-141.798 1118.24,-136.908 1107.85,-134.87 1108.84,-141.798"/>
</g>
<!-- Node12&#45;&gt;Node16 -->
<g id="edge58" class="edge"><title>Node12&#45;&gt;Node16</title>
<path fill="none" stroke="midnightblue" d="M351.939,-232.497C324.993,-223.082 285.272,-209.204 255.718,-198.877"/>
<polygon fill="midnightblue" stroke="midnightblue" points="256.713,-195.517 246.118,-195.523 254.404,-202.126 256.713,-195.517"/>
</g>
<!-- Node13&#45;&gt;Node6 -->
<g id="edge44" class="edge"><title>Node13&#45;&gt;Node6</title>
<path fill="none" stroke="midnightblue" d="M336.565,-58.4966C378.522,-47.6326 443.435,-30.8248 483.736,-20.3899"/>
<polygon fill="midnightblue" stroke="midnightblue" points="484.619,-23.7768 493.422,-17.8818 482.864,-17.0002 484.619,-23.7768"/>
</g>
<!-- Node14&#45;&gt;Node6 -->
<g id="edge50" class="edge"><title>Node14&#45;&gt;Node6</title>
<path fill="none" stroke="midnightblue" d="M1176.9,-116.267C1161.14,-100.325 1128.98,-70.8865 1095,-58 995.885,-20.4065 667.565,-12.8484 556.835,-11.3581"/>
<polygon fill="midnightblue" stroke="midnightblue" points="556.857,-7.85818 546.814,-11.232 556.769,-14.8576 556.857,-7.85818"/>
</g>
<!-- Node14&#45;&gt;Node8 -->
<g id="edge48" class="edge"><title>Node14&#45;&gt;Node8</title>
<path fill="none" stroke="midnightblue" d="M1199.9,-116.469C1214.34,-103.319 1234.65,-79.8843 1226,-58 1221.47,-46.5388 1212.68,-36.2323 1204.14,-28.2117"/>
<polygon fill="midnightblue" stroke="midnightblue" points="1206.33,-25.474 1196.5,-21.5208 1201.72,-30.7411 1206.33,-25.474"/>
</g>
<!-- Node15 -->
<g id="node41" class="node"><title>Node15</title>
<a xlink:href="cv___name_8h.html" target="_top" xlink:title="cv_Name.h">
<polygon fill="white" stroke="black" points="1146.5,-58.5 1146.5,-79.5 1217.5,-79.5 1217.5,-58.5 1146.5,-58.5"/>
<text text-anchor="middle" x="1182" y="-66.5" font-family="DejaVuSans" font-size="10.00">cv_Name.h</text>
</a>
</g>
<!-- Node14&#45;&gt;Node15 -->
<g id="edge52" class="edge"><title>Node14&#45;&gt;Node15</title>
<path fill="none" stroke="midnightblue" d="M1186.08,-116.362C1185.44,-108.922 1184.56,-98.7427 1183.79,-89.7276"/>
<polygon fill="midnightblue" stroke="midnightblue" points="1187.26,-89.2331 1182.91,-79.5707 1180.28,-89.8343 1187.26,-89.2331"/>
</g>
<!-- Node15&#45;&gt;Node6 -->
<g id="edge56" class="edge"><title>Node15&#45;&gt;Node6</title>
<path fill="none" stroke="midnightblue" d="M1146.25,-60.3493C1141.81,-59.4589 1137.31,-58.6457 1133,-58 916.03,-25.5021 652.296,-14.8908 556.765,-11.9703"/>
<polygon fill="midnightblue" stroke="midnightblue" points="556.841,-8.47115 546.742,-11.6736 556.634,-15.4681 556.841,-8.47115"/>
</g>
<!-- Node15&#45;&gt;Node8 -->
<g id="edge54" class="edge"><title>Node15&#45;&gt;Node8</title>
<path fill="none" stroke="midnightblue" d="M1182,-58.3619C1182,-50.9219 1182,-40.7427 1182,-31.7276"/>
<polygon fill="midnightblue" stroke="midnightblue" points="1185.5,-31.5706 1182,-21.5707 1178.5,-31.5707 1185.5,-31.5706"/>
</g>
<!-- Node16&#45;&gt;Node6 -->
<g id="edge60" class="edge"><title>Node16&#45;&gt;Node6</title>
<path fill="none" stroke="midnightblue" d="M212.298,-174.174C204.781,-149.982 190.795,-91.0687 220,-58 237.269,-38.4463 407.186,-21.032 483.371,-14.1387"/>
<polygon fill="midnightblue" stroke="midnightblue" points="483.824,-17.6122 493.473,-13.2367 483.202,-10.64 483.824,-17.6122"/>
</g>
<!-- Node17 -->
<g id="node48" class="node"><title>Node17</title>
<polygon fill="white" stroke="#bfbfbf" points="124.5,-116.5 124.5,-137.5 173.5,-137.5 173.5,-116.5 124.5,-116.5"/>
<text text-anchor="middle" x="149" y="-124.5" font-family="DejaVuSans" font-size="10.00">QColor</text>
</g>
<!-- Node16&#45;&gt;Node17 -->
<g id="edge62" class="edge"><title>Node16&#45;&gt;Node17</title>
<path fill="none" stroke="midnightblue" d="M203.711,-174.362C193.983,-165.941 180.202,-154.011 168.905,-144.231"/>
<polygon fill="midnightblue" stroke="midnightblue" points="171.062,-141.469 161.211,-137.571 166.481,-146.762 171.062,-141.469"/>
</g>
<!-- Node18 -->
<g id="node50" class="node"><title>Node18</title>
<polygon fill="white" stroke="#bfbfbf" points="62.5,-116.5 62.5,-137.5 107.5,-137.5 107.5,-116.5 62.5,-116.5"/>
<text text-anchor="middle" x="85" y="-124.5" font-family="DejaVuSans" font-size="10.00">QFont</text>
</g>
<!-- Node16&#45;&gt;Node18 -->
<g id="edge64" class="edge"><title>Node16&#45;&gt;Node18</title>
<path fill="none" stroke="midnightblue" d="M192.277,-174.497C171.245,-165.185 140.35,-151.506 117.11,-141.217"/>
<polygon fill="midnightblue" stroke="midnightblue" points="118.231,-137.885 107.67,-137.037 115.397,-144.286 118.231,-137.885"/>
</g>
<!-- Node19&#45;&gt;Node4 -->
<g id="edge74" class="edge"><title>Node19&#45;&gt;Node4</title>
<path fill="none" stroke="midnightblue" d="M841.224,-232.497C788.837,-222.632 710.426,-207.866 654.959,-197.421"/>
<polygon fill="midnightblue" stroke="midnightblue" points="655.356,-193.934 644.881,-195.523 654.061,-200.813 655.356,-193.934"/>
</g>
<!-- Node19&#45;&gt;Node7 -->
<g id="edge70" class="edge"><title>Node19&#45;&gt;Node7</title>
<path fill="none" stroke="midnightblue" d="M917.464,-232.368C931.489,-224.14 949.556,-211.541 961,-196 984.613,-163.933 992.297,-116.733 994.796,-89.8219"/>
<polygon fill="midnightblue" stroke="midnightblue" points="998.302,-89.8734 995.581,-79.634 991.323,-89.3355 998.302,-89.8734"/>
</g>
<!-- Node19&#45;&gt;Node8 -->
<g id="edge72" class="edge"><title>Node19&#45;&gt;Node8</title>
<path fill="none" stroke="midnightblue" d="M980.734,-232.994C1065.29,-222.454 1186.18,-206.024 1206,-196 1245.19,-176.182 1272.24,-159.137 1264,-116 1258.8,-88.762 1257.51,-80.2785 1241,-58 1232.11,-46.0109 1219.45,-35.3826 1208.13,-27.2792"/>
<polygon fill="midnightblue" stroke="midnightblue" points="1210.05,-24.3524 1199.82,-21.5939 1206.1,-30.1295 1210.05,-24.3524"/>
</g>
<!-- Node20 -->
<g id="node58" class="node"><title>Node20</title>
<a xlink:href="cv___identity_list_8h.html" target="_top" xlink:title="../Datatypes/cv_IdentityList.h">
<polygon fill="white" stroke="black" points="1042.5,-174.5 1042.5,-195.5 1197.5,-195.5 1197.5,-174.5 1042.5,-174.5"/>
<text text-anchor="middle" x="1120" y="-182.5" font-family="DejaVuSans" font-size="10.00">../Datatypes/cv_IdentityList.h</text>
</a>
</g>
<!-- Node19&#45;&gt;Node20 -->
<g id="edge76" class="edge"><title>Node19&#45;&gt;Node20</title>
<path fill="none" stroke="midnightblue" d="M937.384,-232.497C974.526,-222.836 1029.74,-208.477 1069.72,-198.077"/>
<polygon fill="midnightblue" stroke="midnightblue" points="1070.74,-201.428 1079.54,-195.523 1068.98,-194.653 1070.74,-201.428"/>
</g>
<!-- Node21 -->
<g id="node63" class="node"><title>Node21</title>
<a xlink:href="cv___super_effect_8h.html" target="_top" xlink:title="../Datatypes/cv_SuperEffect.h">
<polygon fill="white" stroke="black" points="791,-116.5 791,-137.5 949,-137.5 949,-116.5 791,-116.5"/>
<text text-anchor="middle" x="870" y="-124.5" font-family="DejaVuSans" font-size="10.00">../Datatypes/cv_SuperEffect.h</text>
</a>
</g>
<!-- Node19&#45;&gt;Node21 -->
<g id="edge84" class="edge"><title>Node19&#45;&gt;Node21</title>
<path fill="none" stroke="midnightblue" d="M894.508,-232.295C890.028,-213.045 880.541,-172.289 874.774,-147.509"/>
<polygon fill="midnightblue" stroke="midnightblue" points="878.162,-146.625 872.486,-137.679 871.344,-148.212 878.162,-146.625"/>
</g>
<!-- Node22 -->
<g id="node66" class="node"><title>Node22</title>
<polygon fill="white" stroke="#bfbfbf" points="897.5,-174.5 897.5,-195.5 952.5,-195.5 952.5,-174.5 897.5,-174.5"/>
<text text-anchor="middle" x="925" y="-182.5" font-family="DejaVuSans" font-size="10.00">QObject</text>
</g>
<!-- Node19&#45;&gt;Node22 -->
<g id="edge88" class="edge"><title>Node19&#45;&gt;Node22</title>
<path fill="none" stroke="midnightblue" d="M902.136,-232.362C905.846,-224.677 910.967,-214.069 915.422,-204.84"/>
<polygon fill="midnightblue" stroke="midnightblue" points="918.701,-206.098 919.897,-195.571 912.397,-203.055 918.701,-206.098"/>
</g>
<!-- Node20&#45;&gt;Node6 -->
<g id="edge78" class="edge"><title>Node20&#45;&gt;Node6</title>
<path fill="none" stroke="midnightblue" d="M1115.81,-174.314C1105.14,-148.776 1074.28,-84.3695 1025,-58 983.957,-36.04 666.16,-18.2906 556.816,-12.779"/>
<polygon fill="midnightblue" stroke="midnightblue" points="556.766,-9.27221 546.604,-12.2694 556.417,-16.2635 556.766,-9.27221"/>
</g>
<!-- Node20&#45;&gt;Node7 -->
<g id="edge82" class="edge"><title>Node20&#45;&gt;Node7</title>
<path fill="none" stroke="midnightblue" d="M1108.56,-174.295C1087.15,-154.268 1040.86,-110.964 1014.8,-86.5893"/>
<polygon fill="midnightblue" stroke="midnightblue" points="1017.11,-83.9548 1007.42,-79.6792 1012.33,-89.0668 1017.11,-83.9548"/>
</g>
<!-- Node20&#45;&gt;Node14 -->
<g id="edge80" class="edge"><title>Node20&#45;&gt;Node14</title>
<path fill="none" stroke="midnightblue" d="M1132.29,-174.362C1142.02,-165.941 1155.8,-154.011 1167.1,-144.231"/>
<polygon fill="midnightblue" stroke="midnightblue" points="1169.52,-146.762 1174.79,-137.571 1164.94,-141.469 1169.52,-146.762"/>
</g>
<!-- Node21&#45;&gt;Node9 -->
<g id="edge86" class="edge"><title>Node21&#45;&gt;Node9</title>
<path fill="none" stroke="midnightblue" d="M812.594,-116.497C752.674,-105.533 659.672,-88.5173 602.767,-78.1056"/>
<polygon fill="midnightblue" stroke="midnightblue" points="603.389,-74.6614 592.922,-76.3044 602.129,-81.5471 603.389,-74.6614"/>
</g>
<!-- Node23&#45;&gt;Node2 -->
<g id="edge92" class="edge"><title>Node23&#45;&gt;Node2</title>
<path fill="none" stroke="midnightblue" d="M107.41,-232.362C94.709,-223.696 76.5615,-211.313 62.0079,-201.382"/>
<polygon fill="midnightblue" stroke="midnightblue" points="63.7245,-198.316 53.4915,-195.571 59.779,-204.098 63.7245,-198.316"/>
</g>
<!-- Node24 -->
<g id="node71" class="node"><title>Node24</title>
<polygon fill="white" stroke="#bfbfbf" points="95,-174.5 95,-195.5 149,-195.5 149,-174.5 95,-174.5"/>
<text text-anchor="middle" x="122" y="-182.5" font-family="DejaVuSans" font-size="10.00">QDialog</text>
</g>
<!-- Node23&#45;&gt;Node24 -->
<g id="edge94" class="edge"><title>Node23&#45;&gt;Node24</title>
<path fill="none" stroke="midnightblue" d="M122.817,-232.362C122.688,-224.922 122.513,-214.743 122.357,-205.728"/>
<polygon fill="midnightblue" stroke="midnightblue" points="125.854,-205.509 122.182,-195.571 118.855,-205.63 125.854,-205.509"/>
</g>
</g>
</svg>
