<?xml version="1.0" encoding="UTF-8" standalone="no"?>
<!DOCTYPE svg PUBLIC "-//W3C//DTD SVG 1.1//EN"
 "http://www.w3.org/Graphics/SVG/1.1/DTD/svg11.dtd">
<!-- Generated by graphviz version 2.26.3 (20100126.1600)
 -->
<!-- Title: G Pages: 1 -->
<svg width="1068pt" height="146pt"
 viewBox="0.00 0.00 1068.00 146.00" xmlns="http://www.w3.org/2000/svg" xmlns:xlink="http://www.w3.org/1999/xlink">
<g id="graph1" class="graph" transform="scale(1 1) rotate(0) translate(4 142)">
<title>G</title>
<polygon fill="white" stroke="white" points="-4,5 -4,-142 1065,-142 1065,5 -4,5"/>
<!-- Node1 -->
<g id="node1" class="node"><title>Node1</title>
<polygon fill="#bfbfbf" stroke="black" points="343,-116.5 343,-137.5 489,-137.5 489,-116.5 343,-116.5"/>
<text text-anchor="middle" x="416" y="-124.5" font-family="DejaVuSans" font-size="10.00">src/Widgets/SelectWidget.h</text>
</g>
<!-- Node2 -->
<g id="node3" class="node"><title>Node2</title>
<polygon fill="white" stroke="#bfbfbf" points="-0.5,-58.5 -0.5,-79.5 80.5,-79.5 80.5,-58.5 -0.5,-58.5"/>
<text text-anchor="middle" x="40" y="-66.5" font-family="DejaVuSans" font-size="10.00">QVBoxLayout</text>
</g>
<!-- Node1&#45;&gt;Node2 -->
<g id="edge2" class="edge"><title>Node1&#45;&gt;Node2</title>
<path fill="none" stroke="midnightblue" d="M342.68,-118.126C278.568,-109.985 182.754,-96.9025 90.6441,-80.208"/>
<polygon fill="midnightblue" stroke="midnightblue" points="91.0586,-76.7258 80.5919,-78.3688 89.7987,-83.6115 91.0586,-76.7258"/>
</g>
<!-- Node3 -->
<g id="node5" class="node"><title>Node3</title>
<polygon fill="white" stroke="#bfbfbf" points="98,-58.5 98,-79.5 174,-79.5 174,-58.5 98,-58.5"/>
<text text-anchor="middle" x="136" y="-66.5" font-family="DejaVuSans" font-size="10.00">QGridLayout</text>
</g>
<!-- Node1&#45;&gt;Node3 -->
<g id="edge4" class="edge"><title>Node1&#45;&gt;Node3</title>
<path fill="none" stroke="midnightblue" d="M361.29,-116.459C316.225,-107.664 250.408,-94.5613 183.997,-80.1752"/>
<polygon fill="midnightblue" stroke="midnightblue" points="184.713,-76.749 174.197,-78.0437 183.225,-83.5891 184.713,-76.749"/>
</g>
<!-- Node4 -->
<g id="node7" class="node"><title>Node4</title>
<polygon fill="white" stroke="#bfbfbf" points="192,-58.5 192,-79.5 242,-79.5 242,-58.5 192,-58.5"/>
<text text-anchor="middle" x="217" y="-66.5" font-family="DejaVuSans" font-size="10.00">QLabel</text>
</g>
<!-- Node1&#45;&gt;Node4 -->
<g id="edge6" class="edge"><title>Node1&#45;&gt;Node4</title>
<path fill="none" stroke="midnightblue" d="M377.546,-116.462C346.128,-107.759 300.342,-94.8659 251.933,-80.2207"/>
<polygon fill="midnightblue" stroke="midnightblue" points="252.805,-76.8279 242.22,-77.269 250.77,-83.5254 252.805,-76.8279"/>
</g>
<!-- Node5 -->
<g id="node9" class="node"><title>Node5</title>
<polygon fill="white" stroke="#bfbfbf" points="259.5,-58.5 259.5,-79.5 322.5,-79.5 322.5,-58.5 259.5,-58.5"/>
<text text-anchor="middle" x="291" y="-66.5" font-family="DejaVuSans" font-size="10.00">QSpinBox</text>
</g>
<!-- Node1&#45;&gt;Node5 -->
<g id="edge8" class="edge"><title>Node1&#45;&gt;Node5</title>
<path fill="none" stroke="midnightblue" d="M393.363,-116.497C373.752,-107.397 345.154,-94.1273 323.167,-83.9253"/>
<polygon fill="midnightblue" stroke="midnightblue" points="324.435,-80.6554 313.891,-79.6212 321.488,-87.0051 324.435,-80.6554"/>
</g>
<!-- Node6 -->
<g id="node11" class="node"><title>Node6</title>
<a xlink:href="_trait_dots_8h.html" target="_top" xlink:title="TraitDots.h">
<polygon fill="white" stroke="black" points="340,-58.5 340,-79.5 408,-79.5 408,-58.5 340,-58.5"/>
<text text-anchor="middle" x="374" y="-66.5" font-family="DejaVuSans" font-size="10.00">TraitDots.h</text>
</a>
</g>
<!-- Node1&#45;&gt;Node6 -->
<g id="edge10" class="edge"><title>Node1&#45;&gt;Node6</title>
<path fill="none" stroke="midnightblue" d="M408.297,-116.362C402.554,-108.431 394.557,-97.3885 387.73,-87.9606"/>
<polygon fill="midnightblue" stroke="midnightblue" points="390.355,-85.6173 381.655,-79.5707 384.685,-89.7229 390.355,-85.6173"/>
</g>
<!-- Node11 -->
<g id="node21" class="node"><title>Node11</title>
<a xlink:href="_squares_8h.html" target="_top" xlink:title="Squares.h">
<polygon fill="white" stroke="black" points="425.5,-58.5 425.5,-79.5 490.5,-79.5 490.5,-58.5 425.5,-58.5"/>
<text text-anchor="middle" x="458" y="-66.5" font-family="DejaVuSans" font-size="10.00">Squares.h</text>
</a>
</g>
<!-- Node1&#45;&gt;Node11 -->
<g id="edge20" class="edge"><title>Node1&#45;&gt;Node11</title>
<path fill="none" stroke="midnightblue" d="M423.703,-116.362C429.446,-108.431 437.443,-97.3885 444.27,-87.9606"/>
<polygon fill="midnightblue" stroke="midnightblue" points="447.315,-89.7229 450.345,-79.5707 441.645,-85.6173 447.315,-89.7229"/>
</g>
<!-- Node12 -->
<g id="node27" class="node"><title>Node12</title>
<polygon fill="white" stroke="#bfbfbf" points="507.5,-58.5 507.5,-79.5 656.5,-79.5 656.5,-58.5 507.5,-58.5"/>
<text text-anchor="middle" x="582" y="-66.5" font-family="DejaVuSans" font-size="10.00">Storage/StorageTemplate.h</text>
</g>
<!-- Node1&#45;&gt;Node12 -->
<g id="edge30" class="edge"><title>Node1&#45;&gt;Node12</title>
<path fill="none" stroke="midnightblue" d="M446.061,-116.497C473.007,-107.082 512.728,-93.2036 542.282,-82.8773"/>
<polygon fill="midnightblue" stroke="midnightblue" points="543.596,-86.1257 551.882,-79.5231 541.287,-79.5174 543.596,-86.1257"/>
</g>
<!-- Node13 -->
<g id="node29" class="node"><title>Node13</title>
<polygon fill="white" stroke="#bfbfbf" points="674,-58.5 674,-79.5 826,-79.5 826,-58.5 674,-58.5"/>
<text text-anchor="middle" x="750" y="-66.5" font-family="DejaVuSans" font-size="10.00">Storage/StorageCharacter.h</text>
</g>
<!-- Node1&#45;&gt;Node13 -->
<g id="edge32" class="edge"><title>Node1&#45;&gt;Node13</title>
<path fill="none" stroke="midnightblue" d="M476.485,-116.497C533.529,-106.591 619.03,-91.7433 679.22,-81.2911"/>
<polygon fill="midnightblue" stroke="midnightblue" points="680.148,-84.6825 689.402,-79.5231 678.95,-77.7857 680.148,-84.6825"/>
</g>
<!-- Node14 -->
<g id="node31" class="node"><title>Node14</title>
<polygon fill="white" stroke="#bfbfbf" points="844,-58.5 844,-79.5 970,-79.5 970,-58.5 844,-58.5"/>
<text text-anchor="middle" x="907" y="-66.5" font-family="DejaVuSans" font-size="10.00">Calc/CalcAdvantages.h</text>
</g>
<!-- Node1&#45;&gt;Node14 -->
<g id="edge34" class="edge"><title>Node1&#45;&gt;Node14</title>
<path fill="none" stroke="midnightblue" d="M489.15,-119.688C570.648,-111.34 706.593,-96.8147 833.514,-80.1586"/>
<polygon fill="midnightblue" stroke="midnightblue" points="834.348,-83.5789 843.804,-78.8008 833.432,-76.6391 834.348,-83.5789"/>
</g>
<!-- Node15 -->
<g id="node33" class="node"><title>Node15</title>
<polygon fill="white" stroke="#bfbfbf" points="987.5,-58.5 987.5,-79.5 1060.5,-79.5 1060.5,-58.5 987.5,-58.5"/>
<text text-anchor="middle" x="1024" y="-66.5" font-family="DejaVuSans" font-size="10.00">QListWidget</text>
</g>
<!-- Node1&#45;&gt;Node15 -->
<g id="edge36" class="edge"><title>Node1&#45;&gt;Node15</title>
<path fill="none" stroke="midnightblue" d="M489.325,-124.539C595.251,-120.174 797.282,-108.812 977.343,-80.0809"/>
<polygon fill="midnightblue" stroke="midnightblue" points="977.946,-83.529 987.259,-78.4774 976.829,-76.6188 977.946,-83.529"/>
</g>
<!-- Node7 -->
<g id="node13" class="node"><title>Node7</title>
<polygon fill="white" stroke="#bfbfbf" points="426.5,-0.5 426.5,-21.5 475.5,-21.5 475.5,-0.5 426.5,-0.5"/>
<text text-anchor="middle" x="451" y="-8.5" font-family="DejaVuSans" font-size="10.00">QColor</text>
</g>
<!-- Node6&#45;&gt;Node7 -->
<g id="edge12" class="edge"><title>Node6&#45;&gt;Node7</title>
<path fill="none" stroke="midnightblue" d="M388.123,-58.3619C399.52,-49.7773 415.758,-37.5459 428.878,-27.6636"/>
<polygon fill="midnightblue" stroke="midnightblue" points="431.085,-30.3829 436.967,-21.5707 426.873,-24.7916 431.085,-30.3829"/>
</g>
<!-- Node8 -->
<g id="node15" class="node"><title>Node8</title>
<polygon fill="white" stroke="#bfbfbf" points="492.5,-0.5 492.5,-21.5 533.5,-21.5 533.5,-0.5 492.5,-0.5"/>
<text text-anchor="middle" x="513" y="-8.5" font-family="DejaVuSans" font-size="10.00">QList</text>
</g>
<!-- Node6&#45;&gt;Node8 -->
<g id="edge14" class="edge"><title>Node6&#45;&gt;Node8</title>
<path fill="none" stroke="midnightblue" d="M399.172,-58.4966C422.654,-48.6982 457.724,-34.0646 482.725,-23.6325"/>
<polygon fill="midnightblue" stroke="midnightblue" points="484.218,-26.8024 492.099,-19.7214 481.522,-20.3423 484.218,-26.8024"/>
</g>
<!-- Node9 -->
<g id="node17" class="node"><title>Node9</title>
<polygon fill="white" stroke="#bfbfbf" points="284.5,-0.5 284.5,-21.5 335.5,-21.5 335.5,-0.5 284.5,-0.5"/>
<text text-anchor="middle" x="310" y="-8.5" font-family="DejaVuSans" font-size="10.00">QEvent</text>
</g>
<!-- Node6&#45;&gt;Node9 -->
<g id="edge16" class="edge"><title>Node6&#45;&gt;Node9</title>
<path fill="none" stroke="midnightblue" d="M362.261,-58.3619C353.059,-50.0226 340.06,-38.2418 329.328,-28.5162"/>
<polygon fill="midnightblue" stroke="midnightblue" points="331.424,-25.6924 321.664,-21.5707 326.724,-30.8793 331.424,-25.6924"/>
</g>
<!-- Node10 -->
<g id="node19" class="node"><title>Node10</title>
<polygon fill="white" stroke="#bfbfbf" points="353,-0.5 353,-21.5 409,-21.5 409,-0.5 353,-0.5"/>
<text text-anchor="middle" x="381" y="-8.5" font-family="DejaVuSans" font-size="10.00">QWidget</text>
</g>
<!-- Node6&#45;&gt;Node10 -->
<g id="edge18" class="edge"><title>Node6&#45;&gt;Node10</title>
<path fill="none" stroke="midnightblue" d="M375.284,-58.3619C376.182,-50.9219 377.41,-40.7427 378.498,-31.7276"/>
<polygon fill="midnightblue" stroke="midnightblue" points="382.001,-31.918 379.724,-21.5707 375.051,-31.0792 382.001,-31.918"/>
</g>
<!-- Node11&#45;&gt;Node7 -->
<g id="edge22" class="edge"><title>Node11&#45;&gt;Node7</title>
<path fill="none" stroke="midnightblue" d="M456.716,-58.3619C455.818,-50.9219 454.59,-40.7427 453.502,-31.7276"/>
<polygon fill="midnightblue" stroke="midnightblue" points="456.949,-31.0792 452.276,-21.5707 449.999,-31.918 456.949,-31.0792"/>
</g>
<!-- Node11&#45;&gt;Node8 -->
<g id="edge24" class="edge"><title>Node11&#45;&gt;Node8</title>
<path fill="none" stroke="midnightblue" d="M468.088,-58.3619C475.841,-50.1861 486.73,-38.7025 495.845,-29.0907"/>
<polygon fill="midnightblue" stroke="midnightblue" points="498.635,-31.2352 502.976,-21.5707 493.555,-26.4186 498.635,-31.2352"/>
</g>
<!-- Node11&#45;&gt;Node9 -->
<g id="edge26" class="edge"><title>Node11&#45;&gt;Node9</title>
<path fill="none" stroke="midnightblue" d="M431.198,-58.4966C407.119,-49.0601 371.596,-35.139 345.227,-24.8052"/>
<polygon fill="midnightblue" stroke="midnightblue" points="346.2,-21.4272 335.612,-21.0371 343.645,-27.9446 346.2,-21.4272"/>
</g>
<!-- Node11&#45;&gt;Node10 -->
<g id="edge28" class="edge"><title>Node11&#45;&gt;Node10</title>
<path fill="none" stroke="midnightblue" d="M443.877,-58.3619C432.48,-49.7773 416.242,-37.5459 403.122,-27.6636"/>
<polygon fill="midnightblue" stroke="midnightblue" points="405.127,-24.7916 395.033,-21.5707 400.915,-30.3829 405.127,-24.7916"/>
</g>
</g>
</svg>
