<?xml version="1.0" encoding="UTF-8" standalone="no"?>
<!DOCTYPE svg PUBLIC "-//W3C//DTD SVG 1.1//EN"
 "http://www.w3.org/Graphics/SVG/1.1/DTD/svg11.dtd">
<!-- Generated by graphviz version 2.26.3 (20100126.1600)
 -->
<!-- Title: G Pages: 1 -->
<svg width="732pt" height="204pt"
 viewBox="0.00 0.00 732.00 204.00" xmlns="http://www.w3.org/2000/svg" xmlns:xlink="http://www.w3.org/1999/xlink">
<g id="graph1" class="graph" transform="scale(1 1) rotate(0) translate(4 200)">
<title>G</title>
<polygon fill="white" stroke="white" points="-4,5 -4,-200 729,-200 729,5 -4,5"/>
<!-- Node1 -->
<g id="node1" class="node"><title>Node1</title>
<polygon fill="#bfbfbf" stroke="black" points="208.5,-174.5 208.5,-195.5 365.5,-195.5 365.5,-174.5 208.5,-174.5"/>
<text text-anchor="middle" x="287" y="-182.5" font-family="DejaVuSans" font-size="10.00">src/Widgets/SelectWidget.cpp</text>
</g>
<!-- Node2 -->
<g id="node3" class="node"><title>Node2</title>
<polygon fill="white" stroke="#bfbfbf" points="214,-116.5 214,-137.5 270,-137.5 270,-116.5 214,-116.5"/>
<text text-anchor="middle" x="242" y="-124.5" font-family="DejaVuSans" font-size="10.00">QDebug</text>
</g>
<!-- Node1&#45;&gt;Node2 -->
<g id="edge2" class="edge"><title>Node1&#45;&gt;Node2</title>
<path fill="none" stroke="midnightblue" d="M278.746,-174.362C272.53,-166.35 263.849,-155.161 256.485,-145.67"/>
<polygon fill="midnightblue" stroke="midnightblue" points="259.097,-143.326 250.201,-137.571 253.566,-147.617 259.097,-143.326"/>
</g>
<!-- Node3 -->
<g id="node5" class="node"><title>Node3</title>
<a xlink:href="_select_widget_8h.html" target="_top" xlink:title="SelectWidget.h">
<polygon fill="white" stroke="black" points="288,-116.5 288,-137.5 376,-137.5 376,-116.5 288,-116.5"/>
<text text-anchor="middle" x="332" y="-124.5" font-family="DejaVuSans" font-size="10.00">SelectWidget.h</text>
</a>
</g>
<!-- Node1&#45;&gt;Node3 -->
<g id="edge4" class="edge"><title>Node1&#45;&gt;Node3</title>
<path fill="none" stroke="midnightblue" d="M295.254,-174.362C301.47,-166.35 310.151,-155.161 317.515,-145.67"/>
<polygon fill="midnightblue" stroke="midnightblue" points="320.434,-147.617 323.799,-137.571 314.903,-143.326 320.434,-147.617"/>
</g>
<!-- Node4 -->
<g id="node7" class="node"><title>Node4</title>
<polygon fill="white" stroke="#bfbfbf" points="-0.5,-58.5 -0.5,-79.5 80.5,-79.5 80.5,-58.5 -0.5,-58.5"/>
<text text-anchor="middle" x="40" y="-66.5" font-family="DejaVuSans" font-size="10.00">QVBoxLayout</text>
</g>
<!-- Node3&#45;&gt;Node4 -->
<g id="edge6" class="edge"><title>Node3&#45;&gt;Node4</title>
<path fill="none" stroke="midnightblue" d="M287.765,-117.759C284.8,-117.158 281.857,-116.567 279,-116 197.826,-99.8874 174.849,-97.5732 90.6355,-80.2949"/>
<polygon fill="midnightblue" stroke="midnightblue" points="91.1201,-76.8212 80.6192,-78.2289 89.706,-83.6769 91.1201,-76.8212"/>
</g>
<!-- Node5 -->
<g id="node9" class="node"><title>Node5</title>
<polygon fill="white" stroke="#bfbfbf" points="98,-58.5 98,-79.5 174,-79.5 174,-58.5 98,-58.5"/>
<text text-anchor="middle" x="136" y="-66.5" font-family="DejaVuSans" font-size="10.00">QGridLayout</text>
</g>
<!-- Node3&#45;&gt;Node5 -->
<g id="edge8" class="edge"><title>Node3&#45;&gt;Node5</title>
<path fill="none" stroke="midnightblue" d="M296.506,-116.497C264.276,-106.959 216.566,-92.8408 181.536,-82.475"/>
<polygon fill="midnightblue" stroke="midnightblue" points="182.143,-79.0045 171.561,-79.5231 180.156,-85.7168 182.143,-79.0045"/>
</g>
<!-- Node6 -->
<g id="node11" class="node"><title>Node6</title>
<polygon fill="white" stroke="#bfbfbf" points="192,-58.5 192,-79.5 242,-79.5 242,-58.5 192,-58.5"/>
<text text-anchor="middle" x="217" y="-66.5" font-family="DejaVuSans" font-size="10.00">QLabel</text>
</g>
<!-- Node3&#45;&gt;Node6 -->
<g id="edge10" class="edge"><title>Node3&#45;&gt;Node6</title>
<path fill="none" stroke="midnightblue" d="M311.174,-116.497C293.294,-107.479 267.293,-94.3649 247.139,-84.2006"/>
<polygon fill="midnightblue" stroke="midnightblue" points="248.564,-80.9994 238.059,-79.6212 245.412,-87.2495 248.564,-80.9994"/>
</g>
<!-- Node7 -->
<g id="node13" class="node"><title>Node7</title>
<polygon fill="white" stroke="#bfbfbf" points="259.5,-58.5 259.5,-79.5 322.5,-79.5 322.5,-58.5 259.5,-58.5"/>
<text text-anchor="middle" x="291" y="-66.5" font-family="DejaVuSans" font-size="10.00">QSpinBox</text>
</g>
<!-- Node3&#45;&gt;Node7 -->
<g id="edge12" class="edge"><title>Node3&#45;&gt;Node7</title>
<path fill="none" stroke="midnightblue" d="M324.48,-116.362C318.874,-108.431 311.068,-97.3885 304.403,-87.9606"/>
<polygon fill="midnightblue" stroke="midnightblue" points="307.103,-85.7161 298.472,-79.5707 301.387,-89.7568 307.103,-85.7161"/>
</g>
<!-- Node8 -->
<g id="node15" class="node"><title>Node8</title>
<a xlink:href="_trait_dots_8h.html" target="_top" xlink:title="TraitDots.h">
<polygon fill="white" stroke="black" points="340,-58.5 340,-79.5 408,-79.5 408,-58.5 340,-58.5"/>
<text text-anchor="middle" x="374" y="-66.5" font-family="DejaVuSans" font-size="10.00">TraitDots.h</text>
</a>
</g>
<!-- Node3&#45;&gt;Node8 -->
<g id="edge14" class="edge"><title>Node3&#45;&gt;Node8</title>
<path fill="none" stroke="midnightblue" d="M339.703,-116.362C345.446,-108.431 353.443,-97.3885 360.27,-87.9606"/>
<polygon fill="midnightblue" stroke="midnightblue" points="363.315,-89.7229 366.345,-79.5707 357.645,-85.6173 363.315,-89.7229"/>
</g>
<!-- Node13 -->
<g id="node25" class="node"><title>Node13</title>
<a xlink:href="_squares_8h.html" target="_top" xlink:title="Squares.h">
<polygon fill="white" stroke="black" points="425.5,-58.5 425.5,-79.5 490.5,-79.5 490.5,-58.5 425.5,-58.5"/>
<text text-anchor="middle" x="458" y="-66.5" font-family="DejaVuSans" font-size="10.00">Squares.h</text>
</a>
</g>
<!-- Node3&#45;&gt;Node13 -->
<g id="edge24" class="edge"><title>Node3&#45;&gt;Node13</title>
<path fill="none" stroke="midnightblue" d="M354.818,-116.497C374.586,-107.397 403.413,-94.1273 425.576,-83.9253"/>
<polygon fill="midnightblue" stroke="midnightblue" points="427.306,-86.982 434.926,-79.6212 424.379,-80.6234 427.306,-86.982"/>
</g>
<!-- Node14 -->
<g id="node31" class="node"><title>Node14</title>
<polygon fill="white" stroke="#bfbfbf" points="508,-58.5 508,-79.5 634,-79.5 634,-58.5 508,-58.5"/>
<text text-anchor="middle" x="571" y="-66.5" font-family="DejaVuSans" font-size="10.00">Calc/CalcAdvantages.h</text>
</g>
<!-- Node3&#45;&gt;Node14 -->
<g id="edge34" class="edge"><title>Node3&#45;&gt;Node14</title>
<path fill="none" stroke="midnightblue" d="M375.281,-116.497C415.257,-106.795 474.762,-92.3547 517.66,-81.9445"/>
<polygon fill="midnightblue" stroke="midnightblue" points="518.745,-85.2827 527.638,-79.5231 517.094,-78.4802 518.745,-85.2827"/>
</g>
<!-- Node15 -->
<g id="node33" class="node"><title>Node15</title>
<polygon fill="white" stroke="#bfbfbf" points="651.5,-58.5 651.5,-79.5 724.5,-79.5 724.5,-58.5 651.5,-58.5"/>
<text text-anchor="middle" x="688" y="-66.5" font-family="DejaVuSans" font-size="10.00">QListWidget</text>
</g>
<!-- Node3&#45;&gt;Node15 -->
<g id="edge36" class="edge"><title>Node3&#45;&gt;Node15</title>
<path fill="none" stroke="midnightblue" d="M376.25,-121.584C434.807,-114.137 541.424,-99.6114 641.273,-80.2274"/>
<polygon fill="midnightblue" stroke="midnightblue" points="642.084,-83.635 651.223,-78.2749 640.736,-76.766 642.084,-83.635"/>
</g>
<!-- Node9 -->
<g id="node17" class="node"><title>Node9</title>
<polygon fill="white" stroke="#bfbfbf" points="426.5,-0.5 426.5,-21.5 475.5,-21.5 475.5,-0.5 426.5,-0.5"/>
<text text-anchor="middle" x="451" y="-8.5" font-family="DejaVuSans" font-size="10.00">QColor</text>
</g>
<!-- Node8&#45;&gt;Node9 -->
<g id="edge16" class="edge"><title>Node8&#45;&gt;Node9</title>
<path fill="none" stroke="midnightblue" d="M388.123,-58.3619C399.52,-49.7773 415.758,-37.5459 428.878,-27.6636"/>
<polygon fill="midnightblue" stroke="midnightblue" points="431.085,-30.3829 436.967,-21.5707 426.873,-24.7916 431.085,-30.3829"/>
</g>
<!-- Node10 -->
<g id="node19" class="node"><title>Node10</title>
<polygon fill="white" stroke="#bfbfbf" points="492.5,-0.5 492.5,-21.5 533.5,-21.5 533.5,-0.5 492.5,-0.5"/>
<text text-anchor="middle" x="513" y="-8.5" font-family="DejaVuSans" font-size="10.00">QList</text>
</g>
<!-- Node8&#45;&gt;Node10 -->
<g id="edge18" class="edge"><title>Node8&#45;&gt;Node10</title>
<path fill="none" stroke="midnightblue" d="M399.172,-58.4966C422.654,-48.6982 457.724,-34.0646 482.725,-23.6325"/>
<polygon fill="midnightblue" stroke="midnightblue" points="484.218,-26.8024 492.099,-19.7214 481.522,-20.3423 484.218,-26.8024"/>
</g>
<!-- Node11 -->
<g id="node21" class="node"><title>Node11</title>
<polygon fill="white" stroke="#bfbfbf" points="284.5,-0.5 284.5,-21.5 335.5,-21.5 335.5,-0.5 284.5,-0.5"/>
<text text-anchor="middle" x="310" y="-8.5" font-family="DejaVuSans" font-size="10.00">QEvent</text>
</g>
<!-- Node8&#45;&gt;Node11 -->
<g id="edge20" class="edge"><title>Node8&#45;&gt;Node11</title>
<path fill="none" stroke="midnightblue" d="M362.261,-58.3619C353.059,-50.0226 340.06,-38.2418 329.328,-28.5162"/>
<polygon fill="midnightblue" stroke="midnightblue" points="331.424,-25.6924 321.664,-21.5707 326.724,-30.8793 331.424,-25.6924"/>
</g>
<!-- Node12 -->
<g id="node23" class="node"><title>Node12</title>
<polygon fill="white" stroke="#bfbfbf" points="353,-0.5 353,-21.5 409,-21.5 409,-0.5 353,-0.5"/>
<text text-anchor="middle" x="381" y="-8.5" font-family="DejaVuSans" font-size="10.00">QWidget</text>
</g>
<!-- Node8&#45;&gt;Node12 -->
<g id="edge22" class="edge"><title>Node8&#45;&gt;Node12</title>
<path fill="none" stroke="midnightblue" d="M375.284,-58.3619C376.182,-50.9219 377.41,-40.7427 378.498,-31.7276"/>
<polygon fill="midnightblue" stroke="midnightblue" points="382.001,-31.918 379.724,-21.5707 375.051,-31.0792 382.001,-31.918"/>
</g>
<!-- Node13&#45;&gt;Node9 -->
<g id="edge26" class="edge"><title>Node13&#45;&gt;Node9</title>
<path fill="none" stroke="midnightblue" d="M456.716,-58.3619C455.818,-50.9219 454.59,-40.7427 453.502,-31.7276"/>
<polygon fill="midnightblue" stroke="midnightblue" points="456.949,-31.0792 452.276,-21.5707 449.999,-31.918 456.949,-31.0792"/>
</g>
<!-- Node13&#45;&gt;Node10 -->
<g id="edge28" class="edge"><title>Node13&#45;&gt;Node10</title>
<path fill="none" stroke="midnightblue" d="M468.088,-58.3619C475.841,-50.1861 486.73,-38.7025 495.845,-29.0907"/>
<polygon fill="midnightblue" stroke="midnightblue" points="498.635,-31.2352 502.976,-21.5707 493.555,-26.4186 498.635,-31.2352"/>
</g>
<!-- Node13&#45;&gt;Node11 -->
<g id="edge30" class="edge"><title>Node13&#45;&gt;Node11</title>
<path fill="none" stroke="midnightblue" d="M431.198,-58.4966C407.119,-49.0601 371.596,-35.139 345.227,-24.8052"/>
<polygon fill="midnightblue" stroke="midnightblue" points="346.2,-21.4272 335.612,-21.0371 343.645,-27.9446 346.2,-21.4272"/>
</g>
<!-- Node13&#45;&gt;Node12 -->
<g id="edge32" class="edge"><title>Node13&#45;&gt;Node12</title>
<path fill="none" stroke="midnightblue" d="M443.877,-58.3619C432.48,-49.7773 416.242,-37.5459 403.122,-27.6636"/>
<polygon fill="midnightblue" stroke="midnightblue" points="405.127,-24.7916 395.033,-21.5707 400.915,-30.3829 405.127,-24.7916"/>
</g>
</g>
</svg>
