<?xml version="1.0" encoding="UTF-8" standalone="no"?>
<!DOCTYPE svg PUBLIC "-//W3C//DTD SVG 1.1//EN"
 "http://www.w3.org/Graphics/SVG/1.1/DTD/svg11.dtd">
<!-- Generated by graphviz version 2.26.3 (20100126.1600)
 -->
<!-- Title: G Pages: 1 -->
<svg width="218pt" height="88pt"
 viewBox="0.00 0.00 218.00 88.00" xmlns="http://www.w3.org/2000/svg" xmlns:xlink="http://www.w3.org/1999/xlink">
<g id="graph1" class="graph" transform="scale(1 1) rotate(0) translate(4 84)">
<title>G</title>
<polygon fill="white" stroke="white" points="-4,5 -4,-84 215,-84 215,5 -4,5"/>
<!-- Node1 -->
<g id="node1" class="node"><title>Node1</title>
<polygon fill="#bfbfbf" stroke="black" points="-0.5,-58.5 -0.5,-79.5 210.5,-79.5 210.5,-58.5 -0.5,-58.5"/>
<text text-anchor="middle" x="105" y="-66.5" font-family="DejaVuSans" font-size="10.00">src/Widgets/Dialogs/SelectMeritsDialog.h</text>
</g>
<!-- Node2 -->
<g id="node3" class="node"><title>Node2</title>
<polygon fill="white" stroke="#bfbfbf" points="26,-0.5 26,-21.5 102,-21.5 102,-0.5 26,-0.5"/>
<text text-anchor="middle" x="64" y="-8.5" font-family="DejaVuSans" font-size="10.00">QGridLayout</text>
</g>
<!-- Node1&#45;&gt;Node2 -->
<g id="edge2" class="edge"><title>Node1&#45;&gt;Node2</title>
<path fill="none" stroke="midnightblue" d="M97.48,-58.3619C91.8739,-50.4313 84.0678,-39.3885 77.4032,-29.9606"/>
<polygon fill="midnightblue" stroke="midnightblue" points="80.1028,-27.7161 71.4724,-21.5707 74.3867,-31.7568 80.1028,-27.7161"/>
</g>
<!-- Node3 -->
<g id="node5" class="node"><title>Node3</title>
<polygon fill="white" stroke="#bfbfbf" points="120,-0.5 120,-21.5 174,-21.5 174,-0.5 120,-0.5"/>
<text text-anchor="middle" x="147" y="-8.5" font-family="DejaVuSans" font-size="10.00">QDialog</text>
</g>
<!-- Node1&#45;&gt;Node3 -->
<g id="edge4" class="edge"><title>Node1&#45;&gt;Node3</title>
<path fill="none" stroke="midnightblue" d="M112.703,-58.3619C118.446,-50.4313 126.443,-39.3885 133.27,-29.9606"/>
<polygon fill="midnightblue" stroke="midnightblue" points="136.315,-31.7229 139.345,-21.5707 130.645,-27.6173 136.315,-31.7229"/>
</g>
</g>
</svg>
