<?xml version="1.0" encoding="UTF-8" standalone="no"?>
<!DOCTYPE svg PUBLIC "-//W3C//DTD SVG 1.1//EN"
 "http://www.w3.org/Graphics/SVG/1.1/DTD/svg11.dtd">
<!-- Generated by graphviz version 2.26.3 (20100126.1600)
 -->
<!-- Title: G Pages: 1 -->
<svg width="588pt" height="146pt"
 viewBox="0.00 0.00 588.00 146.00" xmlns="http://www.w3.org/2000/svg" xmlns:xlink="http://www.w3.org/1999/xlink">
<g id="graph1" class="graph" transform="scale(1 1) rotate(0) translate(4 142)">
<title>G</title>
<polygon fill="white" stroke="white" points="-4,5 -4,-142 585,-142 585,5 -4,5"/>
<!-- Node1 -->
<g id="node1" class="node"><title>Node1</title>
<polygon fill="#bfbfbf" stroke="black" points="151.5,-116.5 151.5,-137.5 354.5,-137.5 354.5,-116.5 151.5,-116.5"/>
<text text-anchor="middle" x="253" y="-124.5" font-family="DejaVuSans" font-size="10.00">src/Widgets/Dialogs/SettingsDialog.cpp</text>
</g>
<!-- Node2 -->
<g id="node3" class="node"><title>Node2</title>
<polygon fill="white" stroke="#bfbfbf" points="0,-58.5 0,-79.5 76,-79.5 76,-58.5 0,-58.5"/>
<text text-anchor="middle" x="38" y="-66.5" font-family="DejaVuSans" font-size="10.00">QGridLayout</text>
</g>
<!-- Node1&#45;&gt;Node2 -->
<g id="edge2" class="edge"><title>Node1&#45;&gt;Node2</title>
<path fill="none" stroke="midnightblue" d="M214.065,-116.497C178.185,-106.817 124.816,-92.42 86.2461,-82.0152"/>
<polygon fill="midnightblue" stroke="midnightblue" points="86.8502,-78.5531 76.2838,-79.3277 85.027,-85.3115 86.8502,-78.5531"/>
</g>
<!-- Node3 -->
<g id="node5" class="node"><title>Node3</title>
<polygon fill="white" stroke="#bfbfbf" points="93.5,-58.5 93.5,-79.5 162.5,-79.5 162.5,-58.5 93.5,-58.5"/>
<text text-anchor="middle" x="128" y="-66.5" font-family="DejaVuSans" font-size="10.00">QStringList</text>
</g>
<!-- Node1&#45;&gt;Node3 -->
<g id="edge4" class="edge"><title>Node1&#45;&gt;Node3</title>
<path fill="none" stroke="midnightblue" d="M230.363,-116.497C210.752,-107.397 182.154,-94.1273 160.167,-83.9253"/>
<polygon fill="midnightblue" stroke="midnightblue" points="161.435,-80.6554 150.891,-79.6212 158.488,-87.0051 161.435,-80.6554"/>
</g>
<!-- Node4 -->
<g id="node7" class="node"><title>Node4</title>
<polygon fill="white" stroke="#bfbfbf" points="180,-58.5 180,-79.5 236,-79.5 236,-58.5 180,-58.5"/>
<text text-anchor="middle" x="208" y="-66.5" font-family="DejaVuSans" font-size="10.00">QDebug</text>
</g>
<!-- Node1&#45;&gt;Node4 -->
<g id="edge6" class="edge"><title>Node1&#45;&gt;Node4</title>
<path fill="none" stroke="midnightblue" d="M244.746,-116.362C238.53,-108.35 229.849,-97.1605 222.485,-87.6696"/>
<polygon fill="midnightblue" stroke="midnightblue" points="225.097,-85.326 216.201,-79.5707 219.566,-89.617 225.097,-85.326"/>
</g>
<!-- Node5 -->
<g id="node9" class="node"><title>Node5</title>
<polygon fill="white" stroke="#bfbfbf" points="253.5,-58.5 253.5,-79.5 342.5,-79.5 342.5,-58.5 253.5,-58.5"/>
<text text-anchor="middle" x="298" y="-66.5" font-family="DejaVuSans" font-size="10.00">Config/Config.h</text>
</g>
<!-- Node1&#45;&gt;Node5 -->
<g id="edge8" class="edge"><title>Node1&#45;&gt;Node5</title>
<path fill="none" stroke="midnightblue" d="M261.254,-116.362C267.47,-108.35 276.151,-97.1605 283.515,-87.6696"/>
<polygon fill="midnightblue" stroke="midnightblue" points="286.434,-89.617 289.799,-79.5707 280.903,-85.326 286.434,-89.617"/>
</g>
<!-- Node6 -->
<g id="node11" class="node"><title>Node6</title>
<a xlink:href="_settings_dialog_8h.html" target="_top" xlink:title="SettingsDialog.h">
<polygon fill="white" stroke="black" points="359.5,-58.5 359.5,-79.5 454.5,-79.5 454.5,-58.5 359.5,-58.5"/>
<text text-anchor="middle" x="407" y="-66.5" font-family="DejaVuSans" font-size="10.00">SettingsDialog.h</text>
</a>
</g>
<!-- Node1&#45;&gt;Node6 -->
<g id="edge10" class="edge"><title>Node1&#45;&gt;Node6</title>
<path fill="none" stroke="midnightblue" d="M280.888,-116.497C305.668,-107.164 342.095,-93.4447 369.436,-83.1475"/>
<polygon fill="midnightblue" stroke="midnightblue" points="370.935,-86.3231 379.059,-79.5231 368.468,-79.7723 370.935,-86.3231"/>
</g>
<!-- Node8 -->
<g id="node15" class="node"><title>Node8</title>
<polygon fill="white" stroke="#bfbfbf" points="471.5,-58.5 471.5,-79.5 580.5,-79.5 580.5,-58.5 471.5,-58.5"/>
<text text-anchor="middle" x="526" y="-66.5" font-family="DejaVuSans" font-size="10.00">ui_SettingsDialog.h</text>
</g>
<!-- Node1&#45;&gt;Node8 -->
<g id="edge14" class="edge"><title>Node1&#45;&gt;Node8</title>
<path fill="none" stroke="midnightblue" d="M302.438,-116.497C348.582,-106.693 417.508,-92.0496 466.616,-81.6165"/>
<polygon fill="midnightblue" stroke="midnightblue" points="467.415,-85.0249 476.469,-79.5231 465.96,-78.1777 467.415,-85.0249"/>
</g>
<!-- Node7 -->
<g id="node13" class="node"><title>Node7</title>
<polygon fill="white" stroke="#bfbfbf" points="380,-0.5 380,-21.5 434,-21.5 434,-0.5 380,-0.5"/>
<text text-anchor="middle" x="407" y="-8.5" font-family="DejaVuSans" font-size="10.00">QDialog</text>
</g>
<!-- Node6&#45;&gt;Node7 -->
<g id="edge12" class="edge"><title>Node6&#45;&gt;Node7</title>
<path fill="none" stroke="midnightblue" d="M407,-58.3619C407,-50.9219 407,-40.7427 407,-31.7276"/>
<polygon fill="midnightblue" stroke="midnightblue" points="410.5,-31.5706 407,-21.5707 403.5,-31.5707 410.5,-31.5706"/>
</g>
</g>
</svg>
