<?xml version="1.0" encoding="UTF-8" standalone="no"?>
<!DOCTYPE svg PUBLIC "-//W3C//DTD SVG 1.1//EN"
 "http://www.w3.org/Graphics/SVG/1.1/DTD/svg11.dtd">
<!-- Generated by graphviz version 2.26.3 (20100126.1600)
 -->
<!-- Title: G Pages: 1 -->
<svg width="1036pt" height="320pt"
 viewBox="0.00 0.00 1036.00 320.00" xmlns="http://www.w3.org/2000/svg" xmlns:xlink="http://www.w3.org/1999/xlink">
<g id="graph1" class="graph" transform="scale(1 1) rotate(0) translate(4 316)">
<title>G</title>
<polygon fill="white" stroke="white" points="-4,5 -4,-316 1033,-316 1033,5 -4,5"/>
<!-- Node1 -->
<g id="node1" class="node"><title>Node1</title>
<polygon fill="#bfbfbf" stroke="black" points="516.5,-290.5 516.5,-311.5 719.5,-311.5 719.5,-290.5 516.5,-290.5"/>
<text text-anchor="middle" x="618" y="-298.5" font-family="DejaVuSans" font-size="10.00">src/Widgets/Dialogs/SettingsDialog.cpp</text>
</g>
<!-- Node2 -->
<g id="node3" class="node"><title>Node2</title>
<polygon fill="white" stroke="#bfbfbf" points="402,-232.5 402,-253.5 478,-253.5 478,-232.5 402,-232.5"/>
<text text-anchor="middle" x="440" y="-240.5" font-family="DejaVuSans" font-size="10.00">QGridLayout</text>
</g>
<!-- Node1&#45;&gt;Node2 -->
<g id="edge2" class="edge"><title>Node1&#45;&gt;Node2</title>
<path fill="none" stroke="midnightblue" d="M585.766,-290.497C556.747,-281.041 513.91,-267.083 482.176,-256.743"/>
<polygon fill="midnightblue" stroke="midnightblue" points="482.887,-253.293 472.295,-253.523 480.719,-259.949 482.887,-253.293"/>
</g>
<!-- Node3 -->
<g id="node5" class="node"><title>Node3</title>
<polygon fill="white" stroke="#bfbfbf" points="583.5,-58.5 583.5,-79.5 652.5,-79.5 652.5,-58.5 583.5,-58.5"/>
<text text-anchor="middle" x="618" y="-66.5" font-family="DejaVuSans" font-size="10.00">QStringList</text>
</g>
<!-- Node1&#45;&gt;Node3 -->
<g id="edge4" class="edge"><title>Node1&#45;&gt;Node3</title>
<path fill="none" stroke="midnightblue" d="M618,-290.429C618,-254.648 618,-137.663 618,-89.7481"/>
<polygon fill="midnightblue" stroke="midnightblue" points="621.5,-89.6335 618,-79.6335 614.5,-89.6335 621.5,-89.6335"/>
</g>
<!-- Node4 -->
<g id="node7" class="node"><title>Node4</title>
<polygon fill="white" stroke="#bfbfbf" points="534,-232.5 534,-253.5 590,-253.5 590,-232.5 534,-232.5"/>
<text text-anchor="middle" x="562" y="-240.5" font-family="DejaVuSans" font-size="10.00">QDebug</text>
</g>
<!-- Node1&#45;&gt;Node4 -->
<g id="edge6" class="edge"><title>Node1&#45;&gt;Node4</title>
<path fill="none" stroke="midnightblue" d="M607.729,-290.362C599.756,-282.104 588.525,-270.472 579.189,-260.803"/>
<polygon fill="midnightblue" stroke="midnightblue" points="581.67,-258.334 572.206,-253.571 576.634,-263.196 581.67,-258.334"/>
</g>
<!-- Node5 -->
<g id="node9" class="node"><title>Node5</title>
<a xlink:href="_config_8h.html" target="_top" xlink:title="../../Config/Config.h">
<polygon fill="white" stroke="black" points="84.5,-174.5 84.5,-195.5 191.5,-195.5 191.5,-174.5 84.5,-174.5"/>
<text text-anchor="middle" x="138" y="-182.5" font-family="DejaVuSans" font-size="10.00">../../Config/Config.h</text>
</a>
</g>
<!-- Node1&#45;&gt;Node5 -->
<g id="edge8" class="edge"><title>Node1&#45;&gt;Node5</title>
<path fill="none" stroke="midnightblue" d="M596.021,-290.331C577.06,-281.024 549.02,-267.009 525,-254 507.84,-244.706 505.466,-238.311 487,-232 435.647,-214.449 287.676,-198.637 201.791,-190.593"/>
<polygon fill="midnightblue" stroke="midnightblue" points="201.916,-187.09 191.636,-189.651 201.27,-194.06 201.916,-187.09"/>
</g>
<!-- Node9 -->
<g id="node17" class="node"><title>Node9</title>
<a xlink:href="_exception_8h_source.html" target="_top" xlink:title="../../Exceptions/Exception.h">
<polygon fill="white" stroke="black" points="645.5,-232.5 645.5,-253.5 790.5,-253.5 790.5,-232.5 645.5,-232.5"/>
<text text-anchor="middle" x="718" y="-240.5" font-family="DejaVuSans" font-size="10.00">../../Exceptions/Exception.h</text>
</a>
</g>
<!-- Node1&#45;&gt;Node9 -->
<g id="edge16" class="edge"><title>Node1&#45;&gt;Node9</title>
<path fill="none" stroke="midnightblue" d="M636.342,-290.362C651.566,-281.532 673.441,-268.844 690.72,-258.822"/>
<polygon fill="midnightblue" stroke="midnightblue" points="692.88,-261.615 699.775,-253.571 689.368,-255.56 692.88,-261.615"/>
</g>
<!-- Node19 -->
<g id="node53" class="node"><title>Node19</title>
<a xlink:href="_settings_dialog_8h.html" target="_top" xlink:title="SettingsDialog.h">
<polygon fill="white" stroke="black" points="807.5,-232.5 807.5,-253.5 902.5,-253.5 902.5,-232.5 807.5,-232.5"/>
<text text-anchor="middle" x="855" y="-240.5" font-family="DejaVuSans" font-size="10.00">SettingsDialog.h</text>
</a>
</g>
<!-- Node1&#45;&gt;Node19 -->
<g id="edge68" class="edge"><title>Node1&#45;&gt;Node19</title>
<path fill="none" stroke="midnightblue" d="M660.919,-290.497C700.56,-280.795 759.568,-266.355 802.106,-255.945"/>
<polygon fill="midnightblue" stroke="midnightblue" points="803.119,-259.3 812.001,-253.523 801.455,-252.501 803.119,-259.3"/>
</g>
<!-- Node21 -->
<g id="node57" class="node"><title>Node21</title>
<polygon fill="white" stroke="#bfbfbf" points="919.5,-232.5 919.5,-253.5 1028.5,-253.5 1028.5,-232.5 919.5,-232.5"/>
<text text-anchor="middle" x="974" y="-240.5" font-family="DejaVuSans" font-size="10.00">ui_SettingsDialog.h</text>
</g>
<!-- Node1&#45;&gt;Node21 -->
<g id="edge72" class="edge"><title>Node1&#45;&gt;Node21</title>
<path fill="none" stroke="midnightblue" d="M685.248,-290.483C742.342,-281.492 826.735,-268.057 909.313,-254.269"/>
<polygon fill="midnightblue" stroke="midnightblue" points="910.087,-257.688 919.372,-252.586 908.932,-250.784 910.087,-257.688"/>
</g>
<!-- Node6 -->
<g id="node11" class="node"><title>Node6</title>
<polygon fill="white" stroke="#bfbfbf" points="377.5,-0.5 377.5,-21.5 430.5,-21.5 430.5,-0.5 377.5,-0.5"/>
<text text-anchor="middle" x="404" y="-8.5" font-family="DejaVuSans" font-size="10.00">QString</text>
</g>
<!-- Node5&#45;&gt;Node6 -->
<g id="edge10" class="edge"><title>Node5&#45;&gt;Node6</title>
<path fill="none" stroke="midnightblue" d="M139.919,-174.183C144.892,-149.48 160.592,-88.6921 199,-58 224.686,-37.4745 315.686,-22.5678 367.393,-15.5324"/>
<polygon fill="midnightblue" stroke="midnightblue" points="368.034,-18.978 377.486,-14.1911 367.112,-12.039 368.034,-18.978"/>
</g>
<!-- Node7 -->
<g id="node13" class="node"><title>Node7</title>
<polygon fill="white" stroke="#bfbfbf" points="-0.5,-116.5 -0.5,-137.5 48.5,-137.5 48.5,-116.5 -0.5,-116.5"/>
<text text-anchor="middle" x="24" y="-124.5" font-family="DejaVuSans" font-size="10.00">QColor</text>
</g>
<!-- Node5&#45;&gt;Node7 -->
<g id="edge12" class="edge"><title>Node5&#45;&gt;Node7</title>
<path fill="none" stroke="midnightblue" d="M117.355,-174.497C99.6303,-165.479 73.8552,-152.365 53.877,-142.201"/>
<polygon fill="midnightblue" stroke="midnightblue" points="55.3761,-139.036 44.8762,-137.621 52.2019,-145.275 55.3761,-139.036"/>
</g>
<!-- Node8 -->
<g id="node15" class="node"><title>Node8</title>
<polygon fill="white" stroke="#bfbfbf" points="65.5,-116.5 65.5,-137.5 110.5,-137.5 110.5,-116.5 65.5,-116.5"/>
<text text-anchor="middle" x="88" y="-124.5" font-family="DejaVuSans" font-size="10.00">QFont</text>
</g>
<!-- Node5&#45;&gt;Node8 -->
<g id="edge14" class="edge"><title>Node5&#45;&gt;Node8</title>
<path fill="none" stroke="midnightblue" d="M128.829,-174.362C121.852,-166.268 112.079,-154.932 103.844,-145.38"/>
<polygon fill="midnightblue" stroke="midnightblue" points="106.293,-142.859 97.1126,-137.571 100.991,-147.43 106.293,-142.859"/>
</g>
<!-- Node9&#45;&gt;Node5 -->
<g id="edge66" class="edge"><title>Node9&#45;&gt;Node5</title>
<path fill="none" stroke="midnightblue" d="M645.423,-235.742C531.024,-224.302 310.629,-202.263 201.883,-191.388"/>
<polygon fill="midnightblue" stroke="midnightblue" points="202.014,-187.884 191.715,-190.371 201.317,-194.849 202.014,-187.884"/>
</g>
<!-- Node9&#45;&gt;Node6 -->
<g id="edge18" class="edge"><title>Node9&#45;&gt;Node6</title>
<path fill="none" stroke="midnightblue" d="M749.708,-232.489C769.947,-224.674 795.876,-212.506 815,-196 868.5,-149.823 941.527,-110.304 894,-58 863.652,-24.6022 549.824,-14.3207 440.953,-11.7456"/>
<polygon fill="midnightblue" stroke="midnightblue" points="440.854,-8.24248 430.777,-11.5134 440.694,-15.2407 440.854,-8.24248"/>
</g>
<!-- Node10 -->
<g id="node20" class="node"><title>Node10</title>
<a xlink:href="cv___trait_8h.html" target="_top" xlink:title="../Datatypes/cv_Trait.h">
<polygon fill="white" stroke="black" points="379,-174.5 379,-195.5 501,-195.5 501,-174.5 379,-174.5"/>
<text text-anchor="middle" x="440" y="-182.5" font-family="DejaVuSans" font-size="10.00">../Datatypes/cv_Trait.h</text>
</a>
</g>
<!-- Node9&#45;&gt;Node10 -->
<g id="edge20" class="edge"><title>Node9&#45;&gt;Node10</title>
<path fill="none" stroke="midnightblue" d="M667.656,-232.497C620.667,-222.693 550.479,-208.05 500.472,-197.616"/>
<polygon fill="midnightblue" stroke="midnightblue" points="500.942,-194.139 490.438,-195.523 499.512,-200.992 500.942,-194.139"/>
</g>
<!-- Node16 -->
<g id="node41" class="node"><title>Node16</title>
<a xlink:href="cv___shape_8h.html" target="_top" xlink:title="../Datatypes/cv_Shape.h">
<polygon fill="white" stroke="black" points="751,-58.5 751,-79.5 885,-79.5 885,-58.5 751,-58.5"/>
<text text-anchor="middle" x="818" y="-66.5" font-family="DejaVuSans" font-size="10.00">../Datatypes/cv_Shape.h</text>
</a>
</g>
<!-- Node9&#45;&gt;Node16 -->
<g id="edge50" class="edge"><title>Node9&#45;&gt;Node16</title>
<path fill="none" stroke="midnightblue" d="M747.652,-232.379C764.462,-224.818 784.395,-212.963 796,-196 818.001,-163.842 820.251,-116.675 819.44,-89.7941"/>
<polygon fill="midnightblue" stroke="midnightblue" points="822.927,-89.44 818.953,-79.6186 815.935,-89.7743 822.927,-89.44"/>
</g>
<!-- Node17 -->
<g id="node44" class="node"><title>Node17</title>
<a xlink:href="cv___identity_8h.html" target="_top" xlink:title="../Datatypes/cv_Identity.h">
<polygon fill="white" stroke="black" points="650.5,-174.5 650.5,-195.5 787.5,-195.5 787.5,-174.5 650.5,-174.5"/>
<text text-anchor="middle" x="719" y="-182.5" font-family="DejaVuSans" font-size="10.00">../Datatypes/cv_Identity.h</text>
</a>
</g>
<!-- Node9&#45;&gt;Node17 -->
<g id="edge54" class="edge"><title>Node9&#45;&gt;Node17</title>
<path fill="none" stroke="midnightblue" d="M718.183,-232.362C718.312,-224.922 718.487,-214.743 718.643,-205.728"/>
<polygon fill="midnightblue" stroke="midnightblue" points="722.145,-205.63 718.818,-195.571 715.146,-205.509 722.145,-205.63"/>
</g>
<!-- Node10&#45;&gt;Node3 -->
<g id="edge28" class="edge"><title>Node10&#45;&gt;Node3</title>
<path fill="none" stroke="midnightblue" d="M482.105,-174.429C506.654,-166.912 537.34,-155.086 561,-138 579.673,-124.516 595.832,-103.513 606.129,-88.219"/>
<polygon fill="midnightblue" stroke="midnightblue" points="609.245,-89.8467 611.752,-79.5527 603.372,-86.0365 609.245,-89.8467"/>
</g>
<!-- Node10&#45;&gt;Node6 -->
<g id="edge24" class="edge"><title>Node10&#45;&gt;Node6</title>
<path fill="none" stroke="midnightblue" d="M378.939,-181.932C314.117,-177.246 217.899,-165.71 195,-138 141.766,-73.5829 293.927,-33.1478 367.123,-17.8954"/>
<polygon fill="midnightblue" stroke="midnightblue" points="368.21,-21.2461 377.315,-15.8279 366.819,-14.3858 368.21,-21.2461"/>
</g>
<!-- Node11 -->
<g id="node22" class="node"><title>Node11</title>
<polygon fill="white" stroke="#bfbfbf" points="503.5,-116.5 503.5,-137.5 552.5,-137.5 552.5,-116.5 503.5,-116.5"/>
<text text-anchor="middle" x="528" y="-124.5" font-family="DejaVuSans" font-size="10.00">QFlags</text>
</g>
<!-- Node10&#45;&gt;Node11 -->
<g id="edge22" class="edge"><title>Node10&#45;&gt;Node11</title>
<path fill="none" stroke="midnightblue" d="M456.141,-174.362C469.414,-165.614 488.432,-153.079 503.57,-143.101"/>
<polygon fill="midnightblue" stroke="midnightblue" points="505.538,-145.996 511.962,-137.571 501.686,-140.151 505.538,-145.996"/>
</g>
<!-- Node12 -->
<g id="node25" class="node"><title>Node12</title>
<polygon fill="white" stroke="#bfbfbf" points="443.5,-58.5 443.5,-79.5 484.5,-79.5 484.5,-58.5 443.5,-58.5"/>
<text text-anchor="middle" x="464" y="-66.5" font-family="DejaVuSans" font-size="10.00">QList</text>
</g>
<!-- Node10&#45;&gt;Node12 -->
<g id="edge26" class="edge"><title>Node10&#45;&gt;Node12</title>
<path fill="none" stroke="midnightblue" d="M444.686,-174.399C448.626,-165.018 454.069,-150.859 457,-138 460.595,-122.225 462.345,-104 463.196,-90.2426"/>
<polygon fill="midnightblue" stroke="midnightblue" points="466.71,-90.0538 463.72,-79.8896 459.719,-89.6998 466.71,-90.0538"/>
</g>
<!-- Node13 -->
<g id="node28" class="node"><title>Node13</title>
<a xlink:href="cv___species_8h.html" target="_top" xlink:title="cv_Species.h">
<polygon fill="white" stroke="black" points="294.5,-58.5 294.5,-79.5 373.5,-79.5 373.5,-58.5 294.5,-58.5"/>
<text text-anchor="middle" x="334" y="-66.5" font-family="DejaVuSans" font-size="10.00">cv_Species.h</text>
</a>
</g>
<!-- Node10&#45;&gt;Node13 -->
<g id="edge30" class="edge"><title>Node10&#45;&gt;Node13</title>
<path fill="none" stroke="midnightblue" d="M404.944,-174.371C386.327,-167.006 364.555,-155.349 351,-138 340.347,-124.365 336.264,-104.96 334.75,-90.2"/>
<polygon fill="midnightblue" stroke="midnightblue" points="338.224,-89.7182 334.026,-79.9906 331.242,-90.213 338.224,-89.7182"/>
</g>
<!-- Node14 -->
<g id="node31" class="node"><title>Node14</title>
<a xlink:href="cv___trait_detail_8h.html" target="_top" xlink:title="cv_TraitDetail.h">
<polygon fill="white" stroke="black" points="359.5,-116.5 359.5,-137.5 448.5,-137.5 448.5,-116.5 359.5,-116.5"/>
<text text-anchor="middle" x="404" y="-124.5" font-family="DejaVuSans" font-size="10.00">cv_TraitDetail.h</text>
</a>
</g>
<!-- Node10&#45;&gt;Node14 -->
<g id="edge34" class="edge"><title>Node10&#45;&gt;Node14</title>
<path fill="none" stroke="midnightblue" d="M433.397,-174.362C428.525,-166.513 421.762,-155.616 415.95,-146.253"/>
<polygon fill="midnightblue" stroke="midnightblue" points="418.809,-144.221 410.561,-137.571 412.861,-147.913 418.809,-144.221"/>
</g>
<!-- Node15 -->
<g id="node37" class="node"><title>Node15</title>
<a xlink:href="cv___abstract_trait_8h.html" target="_top" xlink:title="cv_AbstractTrait.h">
<polygon fill="white" stroke="black" points="203.5,-116.5 203.5,-137.5 304.5,-137.5 304.5,-116.5 203.5,-116.5"/>
<text text-anchor="middle" x="254" y="-124.5" font-family="DejaVuSans" font-size="10.00">cv_AbstractTrait.h</text>
</a>
</g>
<!-- Node10&#45;&gt;Node15 -->
<g id="edge44" class="edge"><title>Node10&#45;&gt;Node15</title>
<path fill="none" stroke="midnightblue" d="M406.317,-174.497C375.863,-165 330.843,-150.962 297.642,-140.609"/>
<polygon fill="midnightblue" stroke="midnightblue" points="298.335,-137.159 287.746,-137.523 296.251,-143.841 298.335,-137.159"/>
</g>
<!-- Node13&#45;&gt;Node6 -->
<g id="edge32" class="edge"><title>Node13&#45;&gt;Node6</title>
<path fill="none" stroke="midnightblue" d="M346.839,-58.3619C357.002,-49.9408 371.401,-38.0105 383.204,-28.2308"/>
<polygon fill="midnightblue" stroke="midnightblue" points="385.775,-30.6459 391.242,-21.5707 381.309,-25.2558 385.775,-30.6459"/>
</g>
<!-- Node14&#45;&gt;Node3 -->
<g id="edge40" class="edge"><title>Node14&#45;&gt;Node3</title>
<path fill="none" stroke="midnightblue" d="M442.754,-116.497C479.572,-106.518 534.894,-91.524 573.501,-81.0606"/>
<polygon fill="midnightblue" stroke="midnightblue" points="574.689,-84.3649 583.425,-78.3708 572.858,-77.6087 574.689,-84.3649"/>
</g>
<!-- Node14&#45;&gt;Node6 -->
<g id="edge36" class="edge"><title>Node14&#45;&gt;Node6</title>
<path fill="none" stroke="midnightblue" d="M404,-116.295C404,-97.1314 404,-56.654 404,-31.8434"/>
<polygon fill="midnightblue" stroke="midnightblue" points="407.5,-31.6792 404,-21.6792 400.5,-31.6792 407.5,-31.6792"/>
</g>
<!-- Node14&#45;&gt;Node12 -->
<g id="edge38" class="edge"><title>Node14&#45;&gt;Node12</title>
<path fill="none" stroke="midnightblue" d="M415.005,-116.362C423.547,-108.104 435.58,-96.4725 445.583,-86.8029"/>
<polygon fill="midnightblue" stroke="midnightblue" points="448.308,-89.0374 453.065,-79.5707 443.442,-84.0044 448.308,-89.0374"/>
</g>
<!-- Node14&#45;&gt;Node13 -->
<g id="edge42" class="edge"><title>Node14&#45;&gt;Node13</title>
<path fill="none" stroke="midnightblue" d="M391.161,-116.362C380.998,-107.941 366.599,-96.0105 354.796,-86.2308"/>
<polygon fill="midnightblue" stroke="midnightblue" points="356.691,-83.2558 346.758,-79.5707 352.225,-88.6459 356.691,-83.2558"/>
</g>
<!-- Node15&#45;&gt;Node6 -->
<g id="edge46" class="edge"><title>Node15&#45;&gt;Node6</title>
<path fill="none" stroke="midnightblue" d="M256.284,-116.437C260.027,-101.507 268.832,-74.2459 286,-58 308.524,-36.6863 341.909,-24.6063 367.426,-18.047"/>
<polygon fill="midnightblue" stroke="midnightblue" points="368.566,-21.3731 377.476,-15.6405 366.935,-14.5655 368.566,-21.3731"/>
</g>
<!-- Node15&#45;&gt;Node13 -->
<g id="edge48" class="edge"><title>Node15&#45;&gt;Node13</title>
<path fill="none" stroke="midnightblue" d="M268.673,-116.362C280.514,-107.777 297.385,-95.5459 311.016,-85.6636"/>
<polygon fill="midnightblue" stroke="midnightblue" points="313.378,-88.274 319.42,-79.5707 309.269,-82.6067 313.378,-88.274"/>
</g>
<!-- Node16&#45;&gt;Node6 -->
<g id="edge52" class="edge"><title>Node16&#45;&gt;Node6</title>
<path fill="none" stroke="midnightblue" d="M750.562,-59.5522C662.298,-47.1867 510.666,-25.9435 440.986,-16.1817"/>
<polygon fill="midnightblue" stroke="midnightblue" points="441.312,-12.6932 430.923,-14.7718 440.341,-19.6255 441.312,-12.6932"/>
</g>
<!-- Node17&#45;&gt;Node3 -->
<g id="edge56" class="edge"><title>Node17&#45;&gt;Node3</title>
<path fill="none" stroke="midnightblue" d="M708.671,-174.348C699.629,-164.934 686.221,-150.757 675,-138 660.383,-121.382 644.385,-101.896 633.069,-87.8774"/>
<polygon fill="midnightblue" stroke="midnightblue" points="635.675,-85.5323 626.682,-79.9301 630.218,-89.9174 635.675,-85.5323"/>
</g>
<!-- Node17&#45;&gt;Node6 -->
<g id="edge58" class="edge"><title>Node17&#45;&gt;Node6</title>
<path fill="none" stroke="midnightblue" d="M733.871,-174.444C750.476,-161.269 773.704,-137.81 763,-116 744.434,-78.1726 726.626,-74.8405 688,-58 644.189,-38.899 507.31,-22.104 440.889,-14.8317"/>
<polygon fill="midnightblue" stroke="midnightblue" points="441.177,-11.3426 430.859,-13.7474 440.425,-18.302 441.177,-11.3426"/>
</g>
<!-- Node18 -->
<g id="node48" class="node"><title>Node18</title>
<a xlink:href="cv___name_8h.html" target="_top" xlink:title="cv_Name.h">
<polygon fill="white" stroke="black" points="683.5,-116.5 683.5,-137.5 754.5,-137.5 754.5,-116.5 683.5,-116.5"/>
<text text-anchor="middle" x="719" y="-124.5" font-family="DejaVuSans" font-size="10.00">cv_Name.h</text>
</a>
</g>
<!-- Node17&#45;&gt;Node18 -->
<g id="edge60" class="edge"><title>Node17&#45;&gt;Node18</title>
<path fill="none" stroke="midnightblue" d="M719,-174.362C719,-166.922 719,-156.743 719,-147.728"/>
<polygon fill="midnightblue" stroke="midnightblue" points="722.5,-147.571 719,-137.571 715.5,-147.571 722.5,-147.571"/>
</g>
<!-- Node18&#45;&gt;Node3 -->
<g id="edge62" class="edge"><title>Node18&#45;&gt;Node3</title>
<path fill="none" stroke="midnightblue" d="M700.475,-116.362C685.099,-107.532 663.004,-94.844 645.553,-84.8224"/>
<polygon fill="midnightblue" stroke="midnightblue" points="646.822,-81.5154 636.408,-79.5707 643.336,-87.5857 646.822,-81.5154"/>
</g>
<!-- Node18&#45;&gt;Node6 -->
<g id="edge64" class="edge"><title>Node18&#45;&gt;Node6</title>
<path fill="none" stroke="midnightblue" d="M713.289,-116.367C704.344,-100.83 685.491,-72.2296 661,-58 624.111,-36.5673 502.662,-21.2545 440.847,-14.6406"/>
<polygon fill="midnightblue" stroke="midnightblue" points="441.056,-11.1434 430.745,-13.5805 440.326,-18.1052 441.056,-11.1434"/>
</g>
<!-- Node20 -->
<g id="node55" class="node"><title>Node20</title>
<polygon fill="white" stroke="#bfbfbf" points="941,-174.5 941,-195.5 995,-195.5 995,-174.5 941,-174.5"/>
<text text-anchor="middle" x="968" y="-182.5" font-family="DejaVuSans" font-size="10.00">QDialog</text>
</g>
<!-- Node19&#45;&gt;Node20 -->
<g id="edge70" class="edge"><title>Node19&#45;&gt;Node20</title>
<path fill="none" stroke="midnightblue" d="M875.463,-232.497C893.033,-223.479 918.582,-210.365 938.385,-200.201"/>
<polygon fill="midnightblue" stroke="midnightblue" points="940.009,-203.301 947.307,-195.621 936.812,-197.074 940.009,-203.301"/>
</g>
</g>
</svg>
