<?xml version="1.0" encoding="UTF-8" standalone="no"?>
<!DOCTYPE svg PUBLIC "-//W3C//DTD SVG 1.1//EN"
 "http://www.w3.org/Graphics/SVG/1.1/DTD/svg11.dtd">
<!-- Generated by graphviz version 2.26.3 (20100126.1600)
 -->
<!-- Title: G Pages: 1 -->
<svg width="847pt" height="320pt"
 viewBox="0.00 0.00 846.55 320.00" xmlns="http://www.w3.org/2000/svg" xmlns:xlink="http://www.w3.org/1999/xlink">
<g id="graph1" class="graph" transform="scale(1 1) rotate(0) translate(4 316)">
<title>G</title>
<polygon fill="white" stroke="white" points="-4,5 -4,-316 843.549,-316 843.549,5 -4,5"/>
<!-- Node1 -->
<g id="node1" class="node"><title>Node1</title>
<polygon fill="#bfbfbf" stroke="black" points="599.049,-290.5 599.049,-311.5 706.049,-311.5 706.049,-290.5 599.049,-290.5"/>
<text text-anchor="middle" x="652.549" y="-298.5" font-family="DejaVuSans" font-size="10.00">src/IO/Settings.cpp</text>
</g>
<!-- Node2 -->
<g id="node3" class="node"><title>Node2</title>
<polygon fill="white" stroke="#bfbfbf" points="462.549,-232.5 462.549,-253.5 518.549,-253.5 518.549,-232.5 462.549,-232.5"/>
<text text-anchor="middle" x="490.549" y="-240.5" font-family="DejaVuSans" font-size="10.00">QDebug</text>
</g>
<!-- Node1&#45;&gt;Node2 -->
<g id="edge2" class="edge"><title>Node1&#45;&gt;Node2</title>
<path fill="none" stroke="midnightblue" d="M623.212,-290.497C596.622,-280.977 557.285,-266.893 528.347,-256.533"/>
<polygon fill="midnightblue" stroke="midnightblue" points="529.178,-253.113 518.583,-253.037 526.818,-259.703 529.178,-253.113"/>
</g>
<!-- Node3 -->
<g id="node5" class="node"><title>Node3</title>
<a xlink:href="_exception_8h_source.html" target="_top" xlink:title="../Exceptions/Exception.h">
<polygon fill="white" stroke="black" points="536.549,-232.5 536.549,-253.5 672.549,-253.5 672.549,-232.5 536.549,-232.5"/>
<text text-anchor="middle" x="604.549" y="-240.5" font-family="DejaVuSans" font-size="10.00">../Exceptions/Exception.h</text>
</a>
</g>
<!-- Node1&#45;&gt;Node3 -->
<g id="edge4" class="edge"><title>Node1&#45;&gt;Node3</title>
<path fill="none" stroke="midnightblue" d="M643.745,-290.362C637.046,-282.268 627.665,-270.932 619.759,-261.38"/>
<polygon fill="midnightblue" stroke="midnightblue" points="622.369,-259.043 613.297,-253.571 616.976,-263.506 622.369,-259.043"/>
</g>
<!-- Node15 -->
<g id="node42" class="node"><title>Node15</title>
<a xlink:href="_config_8h.html" target="_top" xlink:title="../Config/Config.h">
<polygon fill="white" stroke="black" points="651.549,-174.5 651.549,-195.5 749.549,-195.5 749.549,-174.5 651.549,-174.5"/>
<text text-anchor="middle" x="700.549" y="-182.5" font-family="DejaVuSans" font-size="10.00">../Config/Config.h</text>
</a>
</g>
<!-- Node1&#45;&gt;Node15 -->
<g id="edge62" class="edge"><title>Node1&#45;&gt;Node15</title>
<path fill="none" stroke="midnightblue" d="M660.393,-290.281C666.836,-281.055 675.806,-267.186 681.549,-254 688.361,-238.36 693.331,-219.649 696.476,-205.66"/>
<polygon fill="midnightblue" stroke="midnightblue" points="699.958,-206.11 698.606,-195.602 693.11,-204.659 699.958,-206.11"/>
</g>
<!-- Node18 -->
<g id="node50" class="node"><title>Node18</title>
<a xlink:href="_settings_8h.html" target="_top" xlink:title="Settings.h">
<polygon fill="white" stroke="black" points="747.049,-232.5 747.049,-253.5 812.049,-253.5 812.049,-232.5 747.049,-232.5"/>
<text text-anchor="middle" x="779.549" y="-240.5" font-family="DejaVuSans" font-size="10.00">Settings.h</text>
</a>
</g>
<!-- Node1&#45;&gt;Node18 -->
<g id="edge64" class="edge"><title>Node1&#45;&gt;Node18</title>
<path fill="none" stroke="midnightblue" d="M675.547,-290.497C695.562,-281.356 724.789,-268.008 747.167,-257.788"/>
<polygon fill="midnightblue" stroke="midnightblue" points="748.649,-260.959 756.292,-253.621 745.741,-254.592 748.649,-260.959"/>
</g>
<!-- Node4 -->
<g id="node7" class="node"><title>Node4</title>
<polygon fill="white" stroke="#bfbfbf" points="302.049,-0.5 302.049,-21.5 355.049,-21.5 355.049,-0.5 302.049,-0.5"/>
<text text-anchor="middle" x="328.549" y="-8.5" font-family="DejaVuSans" font-size="10.00">QString</text>
</g>
<!-- Node3&#45;&gt;Node4 -->
<g id="edge6" class="edge"><title>Node3&#45;&gt;Node4</title>
<path fill="none" stroke="midnightblue" d="M536.146,-232.974C533.243,-232.629 530.368,-232.302 527.549,-232 472.056,-226.05 66.9553,-234.498 26.5486,-196 -18.3681,-153.205 -2.08741,-95.2177 47.5486,-58 85.4881,-29.5525 224.233,-17.3524 291.495,-13.0201"/>
<polygon fill="midnightblue" stroke="midnightblue" points="291.885,-16.5027 301.65,-12.3911 291.452,-9.5161 291.885,-16.5027"/>
</g>
<!-- Node5 -->
<g id="node9" class="node"><title>Node5</title>
<a xlink:href="cv___trait_8h.html" target="_top" xlink:title="../Datatypes/cv_Trait.h">
<polygon fill="white" stroke="black" points="375.549,-174.5 375.549,-195.5 497.549,-195.5 497.549,-174.5 375.549,-174.5"/>
<text text-anchor="middle" x="436.549" y="-182.5" font-family="DejaVuSans" font-size="10.00">../Datatypes/cv_Trait.h</text>
</a>
</g>
<!-- Node3&#45;&gt;Node5 -->
<g id="edge8" class="edge"><title>Node3&#45;&gt;Node5</title>
<path fill="none" stroke="midnightblue" d="M574.125,-232.497C546.855,-223.082 506.656,-209.204 476.745,-198.877"/>
<polygon fill="midnightblue" stroke="midnightblue" points="477.624,-195.478 467.029,-195.523 475.34,-202.095 477.624,-195.478"/>
</g>
<!-- Node12 -->
<g id="node31" class="node"><title>Node12</title>
<a xlink:href="cv___shape_8h.html" target="_top" xlink:title="../Datatypes/cv_Shape.h">
<polygon fill="white" stroke="black" points="538.549,-58.5 538.549,-79.5 672.549,-79.5 672.549,-58.5 538.549,-58.5"/>
<text text-anchor="middle" x="605.549" y="-66.5" font-family="DejaVuSans" font-size="10.00">../Datatypes/cv_Shape.h</text>
</a>
</g>
<!-- Node3&#45;&gt;Node12 -->
<g id="edge38" class="edge"><title>Node3&#45;&gt;Node12</title>
<path fill="none" stroke="midnightblue" d="M604.61,-232.377C604.771,-204.293 605.211,-127.673 605.427,-90.2027"/>
<polygon fill="midnightblue" stroke="midnightblue" points="608.928,-89.9477 605.486,-79.9277 601.928,-89.9074 608.928,-89.9477"/>
</g>
<!-- Node13 -->
<g id="node34" class="node"><title>Node13</title>
<a xlink:href="cv___identity_8h.html" target="_top" xlink:title="../Datatypes/cv_Identity.h">
<polygon fill="white" stroke="black" points="35.0486,-174.5 35.0486,-195.5 172.049,-195.5 172.049,-174.5 35.0486,-174.5"/>
<text text-anchor="middle" x="103.549" y="-182.5" font-family="DejaVuSans" font-size="10.00">../Datatypes/cv_Identity.h</text>
</a>
</g>
<!-- Node3&#45;&gt;Node13 -->
<g id="edge42" class="edge"><title>Node3&#45;&gt;Node13</title>
<path fill="none" stroke="midnightblue" d="M536.544,-233.167C533.505,-232.765 530.496,-232.374 527.549,-232 407.346,-216.756 267.616,-201.801 182.407,-192.991"/>
<polygon fill="midnightblue" stroke="midnightblue" points="182.598,-189.492 172.291,-191.948 181.879,-196.455 182.598,-189.492"/>
</g>
<!-- Node3&#45;&gt;Node15 -->
<g id="edge54" class="edge"><title>Node3&#45;&gt;Node15</title>
<path fill="none" stroke="midnightblue" d="M622.156,-232.362C636.771,-223.532 657.772,-210.844 674.36,-200.822"/>
<polygon fill="midnightblue" stroke="midnightblue" points="676.303,-203.738 683.052,-195.571 672.683,-197.746 676.303,-203.738"/>
</g>
<!-- Node5&#45;&gt;Node4 -->
<g id="edge12" class="edge"><title>Node5&#45;&gt;Node4</title>
<path fill="none" stroke="midnightblue" d="M496.501,-174.402C533.978,-164.602 572.525,-146.767 557.549,-116 539.259,-78.4277 520.621,-77.2814 483.549,-58 445.392,-38.1552 397.502,-25.2465 365.129,-18.0694"/>
<polygon fill="midnightblue" stroke="midnightblue" points="365.707,-14.6139 355.196,-15.9391 364.239,-21.4583 365.707,-14.6139"/>
</g>
<!-- Node6 -->
<g id="node11" class="node"><title>Node6</title>
<polygon fill="white" stroke="#bfbfbf" points="500.049,-116.5 500.049,-137.5 549.049,-137.5 549.049,-116.5 500.049,-116.5"/>
<text text-anchor="middle" x="524.549" y="-124.5" font-family="DejaVuSans" font-size="10.00">QFlags</text>
</g>
<!-- Node5&#45;&gt;Node6 -->
<g id="edge10" class="edge"><title>Node5&#45;&gt;Node6</title>
<path fill="none" stroke="midnightblue" d="M452.689,-174.362C465.962,-165.614 484.981,-153.079 500.119,-143.101"/>
<polygon fill="midnightblue" stroke="midnightblue" points="502.087,-145.996 508.51,-137.571 498.235,-140.151 502.087,-145.996"/>
</g>
<!-- Node7 -->
<g id="node14" class="node"><title>Node7</title>
<polygon fill="white" stroke="#bfbfbf" points="434.049,-58.5 434.049,-79.5 475.049,-79.5 475.049,-58.5 434.049,-58.5"/>
<text text-anchor="middle" x="454.549" y="-66.5" font-family="DejaVuSans" font-size="10.00">QList</text>
</g>
<!-- Node5&#45;&gt;Node7 -->
<g id="edge14" class="edge"><title>Node5&#45;&gt;Node7</title>
<path fill="none" stroke="midnightblue" d="M441.512,-174.456C445.629,-165.111 451.177,-150.974 453.549,-138 456.443,-122.164 456.574,-103.941 456.046,-90.2011"/>
<polygon fill="midnightblue" stroke="midnightblue" points="459.522,-89.663 455.493,-79.8643 452.532,-90.037 459.522,-89.663"/>
</g>
<!-- Node8 -->
<g id="node16" class="node"><title>Node8</title>
<polygon fill="white" stroke="#bfbfbf" points="119.049,-58.5 119.049,-79.5 188.049,-79.5 188.049,-58.5 119.049,-58.5"/>
<text text-anchor="middle" x="153.549" y="-66.5" font-family="DejaVuSans" font-size="10.00">QStringList</text>
</g>
<!-- Node5&#45;&gt;Node8 -->
<g id="edge16" class="edge"><title>Node5&#45;&gt;Node8</title>
<path fill="none" stroke="midnightblue" d="M375.497,-179.242C312.745,-172.296 220.277,-158.879 191.549,-138 175.28,-126.176 165.162,-105.167 159.498,-89.4268"/>
<polygon fill="midnightblue" stroke="midnightblue" points="162.702,-87.9658 156.266,-79.5497 156.049,-90.1423 162.702,-87.9658"/>
</g>
<!-- Node9 -->
<g id="node18" class="node"><title>Node9</title>
<a xlink:href="cv___species_8h.html" target="_top" xlink:title="cv_Species.h">
<polygon fill="white" stroke="black" points="289.049,-58.5 289.049,-79.5 368.049,-79.5 368.049,-58.5 289.049,-58.5"/>
<text text-anchor="middle" x="328.549" y="-66.5" font-family="DejaVuSans" font-size="10.00">cv_Species.h</text>
</a>
</g>
<!-- Node5&#45;&gt;Node9 -->
<g id="edge18" class="edge"><title>Node5&#45;&gt;Node9</title>
<path fill="none" stroke="midnightblue" d="M402.115,-174.403C383.46,-167.002 361.447,-155.3 347.549,-138 336.51,-124.261 331.871,-104.564 329.929,-89.7288"/>
<polygon fill="midnightblue" stroke="midnightblue" points="333.385,-89.1139 328.907,-79.5115 326.419,-89.8101 333.385,-89.1139"/>
</g>
<!-- Node10 -->
<g id="node21" class="node"><title>Node10</title>
<a xlink:href="cv___trait_detail_8h.html" target="_top" xlink:title="cv_TraitDetail.h">
<polygon fill="white" stroke="black" points="356.049,-116.5 356.049,-137.5 445.049,-137.5 445.049,-116.5 356.049,-116.5"/>
<text text-anchor="middle" x="400.549" y="-124.5" font-family="DejaVuSans" font-size="10.00">cv_TraitDetail.h</text>
</a>
</g>
<!-- Node5&#45;&gt;Node10 -->
<g id="edge22" class="edge"><title>Node5&#45;&gt;Node10</title>
<path fill="none" stroke="midnightblue" d="M429.946,-174.362C425.074,-166.513 418.31,-155.616 412.499,-146.253"/>
<polygon fill="midnightblue" stroke="midnightblue" points="415.357,-144.221 407.11,-137.571 409.41,-147.913 415.357,-144.221"/>
</g>
<!-- Node11 -->
<g id="node27" class="node"><title>Node11</title>
<a xlink:href="cv___abstract_trait_8h.html" target="_top" xlink:title="cv_AbstractTrait.h">
<polygon fill="white" stroke="black" points="200.049,-116.5 200.049,-137.5 301.049,-137.5 301.049,-116.5 200.049,-116.5"/>
<text text-anchor="middle" x="250.549" y="-124.5" font-family="DejaVuSans" font-size="10.00">cv_AbstractTrait.h</text>
</a>
</g>
<!-- Node5&#45;&gt;Node11 -->
<g id="edge32" class="edge"><title>Node5&#45;&gt;Node11</title>
<path fill="none" stroke="midnightblue" d="M402.865,-174.497C372.411,-165 327.392,-150.962 294.19,-140.609"/>
<polygon fill="midnightblue" stroke="midnightblue" points="294.884,-137.159 284.295,-137.523 292.8,-143.841 294.884,-137.159"/>
</g>
<!-- Node9&#45;&gt;Node4 -->
<g id="edge20" class="edge"><title>Node9&#45;&gt;Node4</title>
<path fill="none" stroke="midnightblue" d="M328.549,-58.3619C328.549,-50.9219 328.549,-40.7427 328.549,-31.7276"/>
<polygon fill="midnightblue" stroke="midnightblue" points="332.049,-31.5706 328.549,-21.5707 325.049,-31.5707 332.049,-31.5706"/>
</g>
<!-- Node10&#45;&gt;Node4 -->
<g id="edge24" class="edge"><title>Node10&#45;&gt;Node4</title>
<path fill="none" stroke="midnightblue" d="M398.378,-116.033C395.209,-101.814 388.371,-76.635 376.549,-58 369.493,-46.879 359.323,-36.4242 350.158,-28.2117"/>
<polygon fill="midnightblue" stroke="midnightblue" points="352.335,-25.4676 342.467,-21.6114 347.776,-30.7798 352.335,-25.4676"/>
</g>
<!-- Node10&#45;&gt;Node7 -->
<g id="edge26" class="edge"><title>Node10&#45;&gt;Node7</title>
<path fill="none" stroke="midnightblue" d="M410.453,-116.362C418.065,-108.186 428.757,-96.7025 437.706,-87.0907"/>
<polygon fill="midnightblue" stroke="midnightblue" points="440.454,-89.2746 444.707,-79.5707 435.331,-84.5046 440.454,-89.2746"/>
</g>
<!-- Node10&#45;&gt;Node8 -->
<g id="edge28" class="edge"><title>Node10&#45;&gt;Node8</title>
<path fill="none" stroke="midnightblue" d="M355.819,-116.497C311.194,-106.018 243.019,-90.0093 198.364,-79.5234"/>
<polygon fill="midnightblue" stroke="midnightblue" points="198.914,-76.0576 188.379,-77.1788 197.314,-82.8722 198.914,-76.0576"/>
</g>
<!-- Node10&#45;&gt;Node9 -->
<g id="edge30" class="edge"><title>Node10&#45;&gt;Node9</title>
<path fill="none" stroke="midnightblue" d="M387.343,-116.362C376.787,-107.859 361.791,-95.7785 349.586,-85.9466"/>
<polygon fill="midnightblue" stroke="midnightblue" points="351.654,-83.1183 341.671,-79.5707 347.263,-88.5696 351.654,-83.1183"/>
</g>
<!-- Node11&#45;&gt;Node4 -->
<g id="edge34" class="edge"><title>Node11&#45;&gt;Node4</title>
<path fill="none" stroke="midnightblue" d="M253.843,-116.059C258.432,-101.869 267.658,-76.7198 280.549,-58 288.018,-47.1528 298.237,-36.7302 307.327,-28.4682"/>
<polygon fill="midnightblue" stroke="midnightblue" points="309.713,-31.0308 314.927,-21.8075 305.099,-25.7665 309.713,-31.0308"/>
</g>
<!-- Node11&#45;&gt;Node9 -->
<g id="edge36" class="edge"><title>Node11&#45;&gt;Node9</title>
<path fill="none" stroke="midnightblue" d="M264.855,-116.362C276.4,-107.777 292.849,-95.5459 306.139,-85.6636"/>
<polygon fill="midnightblue" stroke="midnightblue" points="308.397,-88.3463 314.333,-79.5707 304.22,-82.7291 308.397,-88.3463"/>
</g>
<!-- Node12&#45;&gt;Node4 -->
<g id="edge40" class="edge"><title>Node12&#45;&gt;Node4</title>
<path fill="none" stroke="midnightblue" d="M555.386,-58.4966C500.513,-47.0069 413.888,-28.8689 365.097,-18.6527"/>
<polygon fill="midnightblue" stroke="midnightblue" points="365.789,-15.2219 355.284,-16.5981 364.355,-22.0733 365.789,-15.2219"/>
</g>
<!-- Node13&#45;&gt;Node4 -->
<g id="edge46" class="edge"><title>Node13&#45;&gt;Node4</title>
<path fill="none" stroke="midnightblue" d="M72.4101,-174.334C55.9198,-166.911 37.1405,-155.21 27.5486,-138 3.00786,-93.9692 83.0746,-60.8275 88.5486,-58 123.44,-39.9775 233.223,-23.4599 291.446,-15.6829"/>
<polygon fill="midnightblue" stroke="midnightblue" points="292.23,-19.1099 301.687,-14.3341 291.316,-12.1698 292.23,-19.1099"/>
</g>
<!-- Node13&#45;&gt;Node8 -->
<g id="edge44" class="edge"><title>Node13&#45;&gt;Node8</title>
<path fill="none" stroke="midnightblue" d="M108.163,-174.295C116.497,-154.959 134.185,-113.923 144.852,-89.1767"/>
<polygon fill="midnightblue" stroke="midnightblue" points="148.201,-90.2479 148.945,-79.6792 141.773,-87.477 148.201,-90.2479"/>
</g>
<!-- Node14 -->
<g id="node38" class="node"><title>Node14</title>
<a xlink:href="cv___name_8h.html" target="_top" xlink:title="cv_Name.h">
<polygon fill="white" stroke="black" points="36.0486,-116.5 36.0486,-137.5 107.049,-137.5 107.049,-116.5 36.0486,-116.5"/>
<text text-anchor="middle" x="71.5486" y="-124.5" font-family="DejaVuSans" font-size="10.00">cv_Name.h</text>
</a>
</g>
<!-- Node13&#45;&gt;Node14 -->
<g id="edge48" class="edge"><title>Node13&#45;&gt;Node14</title>
<path fill="none" stroke="midnightblue" d="M97.6793,-174.362C93.394,-166.595 87.4617,-155.843 82.3325,-146.546"/>
<polygon fill="midnightblue" stroke="midnightblue" points="85.276,-144.636 77.3807,-137.571 79.147,-148.017 85.276,-144.636"/>
</g>
<!-- Node14&#45;&gt;Node4 -->
<g id="edge52" class="edge"><title>Node14&#45;&gt;Node4</title>
<path fill="none" stroke="midnightblue" d="M74.5446,-116.248C79.4223,-100.828 90.5986,-72.679 110.549,-58 138.966,-37.0904 237.413,-22.1315 291.774,-15.2482"/>
<polygon fill="midnightblue" stroke="midnightblue" points="292.211,-18.721 301.705,-14.0185 291.35,-11.774 292.211,-18.721"/>
</g>
<!-- Node14&#45;&gt;Node8 -->
<g id="edge50" class="edge"><title>Node14&#45;&gt;Node8</title>
<path fill="none" stroke="midnightblue" d="M86.5886,-116.362C98.8411,-107.696 116.348,-95.3126 130.388,-85.3819"/>
<polygon fill="midnightblue" stroke="midnightblue" points="132.461,-88.2028 138.604,-79.5707 128.419,-82.4879 132.461,-88.2028"/>
</g>
<!-- Node15&#45;&gt;Node4 -->
<g id="edge56" class="edge"><title>Node15&#45;&gt;Node4</title>
<path fill="none" stroke="midnightblue" d="M702.717,-174.285C706.986,-149.797 713.489,-89.4294 681.549,-58 659.233,-36.0418 451.243,-19.4078 365.367,-13.4192"/>
<polygon fill="midnightblue" stroke="midnightblue" points="365.498,-9.92006 355.281,-12.7259 365.018,-16.9036 365.498,-9.92006"/>
</g>
<!-- Node16 -->
<g id="node45" class="node"><title>Node16</title>
<polygon fill="white" stroke="#bfbfbf" points="728.049,-116.5 728.049,-137.5 777.049,-137.5 777.049,-116.5 728.049,-116.5"/>
<text text-anchor="middle" x="752.549" y="-124.5" font-family="DejaVuSans" font-size="10.00">QColor</text>
</g>
<!-- Node15&#45;&gt;Node16 -->
<g id="edge58" class="edge"><title>Node15&#45;&gt;Node16</title>
<path fill="none" stroke="midnightblue" d="M710.086,-174.362C717.416,-166.186 727.712,-154.702 736.329,-145.091"/>
<polygon fill="midnightblue" stroke="midnightblue" points="739.002,-147.353 743.071,-137.571 733.79,-142.68 739.002,-147.353"/>
</g>
<!-- Node17 -->
<g id="node47" class="node"><title>Node17</title>
<polygon fill="white" stroke="#bfbfbf" points="794.049,-116.5 794.049,-137.5 839.049,-137.5 839.049,-116.5 794.049,-116.5"/>
<text text-anchor="middle" x="816.549" y="-124.5" font-family="DejaVuSans" font-size="10.00">QFont</text>
</g>
<!-- Node15&#45;&gt;Node17 -->
<g id="edge60" class="edge"><title>Node15&#45;&gt;Node17</title>
<path fill="none" stroke="midnightblue" d="M721.555,-174.497C739.591,-165.479 765.819,-152.365 786.147,-142.201"/>
<polygon fill="midnightblue" stroke="midnightblue" points="787.927,-145.224 795.306,-137.621 784.797,-138.963 787.927,-145.224"/>
</g>
<!-- Node19 -->
<g id="node52" class="node"><title>Node19</title>
<polygon fill="white" stroke="#bfbfbf" points="767.549,-174.5 767.549,-195.5 831.549,-195.5 831.549,-174.5 767.549,-174.5"/>
<text text-anchor="middle" x="799.549" y="-182.5" font-family="DejaVuSans" font-size="10.00">QSettings</text>
</g>
<!-- Node18&#45;&gt;Node19 -->
<g id="edge66" class="edge"><title>Node18&#45;&gt;Node19</title>
<path fill="none" stroke="midnightblue" d="M783.217,-232.362C785.839,-224.758 789.447,-214.294 792.606,-205.135"/>
<polygon fill="midnightblue" stroke="midnightblue" points="795.952,-206.165 795.904,-195.571 789.335,-203.883 795.952,-206.165"/>
</g>
</g>
</svg>
