<?xml version="1.0" encoding="UTF-8" standalone="no"?>
<!DOCTYPE svg PUBLIC "-//W3C//DTD SVG 1.1//EN"
 "http://www.w3.org/Graphics/SVG/1.1/DTD/svg11.dtd">
<!-- Generated by graphviz version 2.26.3 (20100126.1600)
 -->
<!-- Title: G Pages: 1 -->
<svg width="952pt" height="378pt"
 viewBox="0.00 0.00 952.20 378.00" xmlns="http://www.w3.org/2000/svg" xmlns:xlink="http://www.w3.org/1999/xlink">
<g id="graph1" class="graph" transform="scale(1 1) rotate(0) translate(4 374)">
<title>G</title>
<polygon fill="white" stroke="white" points="-4,5 -4,-374 949.201,-374 949.201,5 -4,5"/>
<!-- Node1 -->
<g id="node1" class="node"><title>Node1</title>
<polygon fill="#bfbfbf" stroke="black" points="386.81,-348.5 386.81,-369.5 520.81,-369.5 520.81,-348.5 386.81,-348.5"/>
<text text-anchor="middle" x="453.81" y="-356.5" font-family="DejaVuSans" font-size="10.00">src/Widgets/SkillWidget.h</text>
</g>
<!-- Node2 -->
<g id="node3" class="node"><title>Node2</title>
<polygon fill="white" stroke="#bfbfbf" points="241.81,-290.5 241.81,-311.5 317.81,-311.5 317.81,-290.5 241.81,-290.5"/>
<text text-anchor="middle" x="279.81" y="-298.5" font-family="DejaVuSans" font-size="10.00">QGridLayout</text>
</g>
<!-- Node1&#45;&gt;Node2 -->
<g id="edge2" class="edge"><title>Node1&#45;&gt;Node2</title>
<path fill="none" stroke="midnightblue" d="M422.3,-348.497C393.933,-339.041 352.059,-325.083 321.039,-314.743"/>
<polygon fill="midnightblue" stroke="midnightblue" points="321.973,-311.365 311.379,-311.523 319.759,-318.006 321.973,-311.365"/>
</g>
<!-- Node3 -->
<g id="node5" class="node"><title>Node3</title>
<a xlink:href="cv___trait_detail_8h.html" target="_top" xlink:title="../Datatypes/cv_TraitDetail.h">
<polygon fill="white" stroke="black" points="586.81,-116.5 586.81,-137.5 736.81,-137.5 736.81,-116.5 586.81,-116.5"/>
<text text-anchor="middle" x="661.81" y="-124.5" font-family="DejaVuSans" font-size="10.00">../Datatypes/cv_TraitDetail.h</text>
</a>
</g>
<!-- Node1&#45;&gt;Node3 -->
<g id="edge4" class="edge"><title>Node1&#45;&gt;Node3</title>
<path fill="none" stroke="midnightblue" d="M482.191,-348.467C500.924,-340.509 525.173,-328.186 542.81,-312 596.588,-262.647 636.398,-183.864 653.119,-147.108"/>
<polygon fill="midnightblue" stroke="midnightblue" points="656.518,-148.08 657.388,-137.521 650.123,-145.233 656.518,-148.08"/>
</g>
<!-- Node8 -->
<g id="node16" class="node"><title>Node8</title>
<a xlink:href="_storage_template_8h.html" target="_top" xlink:title="../Storage/StorageTemplate.h">
<polygon fill="white" stroke="black" points="266.81,-232.5 266.81,-253.5 424.81,-253.5 424.81,-232.5 266.81,-232.5"/>
<text text-anchor="middle" x="345.81" y="-240.5" font-family="DejaVuSans" font-size="10.00">../Storage/StorageTemplate.h</text>
</a>
</g>
<!-- Node1&#45;&gt;Node8 -->
<g id="edge16" class="edge"><title>Node1&#45;&gt;Node8</title>
<path fill="none" stroke="midnightblue" d="M419.376,-348.403C400.721,-341.002 378.709,-329.3 364.81,-312 353.772,-298.261 349.133,-278.564 347.19,-263.729"/>
<polygon fill="midnightblue" stroke="midnightblue" points="350.646,-263.114 346.169,-253.512 343.681,-263.81 350.646,-263.114"/>
</g>
<!-- Node17 -->
<g id="node50" class="node"><title>Node17</title>
<a xlink:href="_storage_character_8h.html" target="_top" xlink:title="../Storage/StorageCharacter.h">
<polygon fill="white" stroke="black" points="373.31,-290.5 373.31,-311.5 534.31,-311.5 534.31,-290.5 373.31,-290.5"/>
<text text-anchor="middle" x="453.81" y="-298.5" font-family="DejaVuSans" font-size="10.00">../Storage/StorageCharacter.h</text>
</a>
</g>
<!-- Node1&#45;&gt;Node17 -->
<g id="edge66" class="edge"><title>Node1&#45;&gt;Node17</title>
<path fill="none" stroke="midnightblue" d="M453.81,-348.362C453.81,-340.922 453.81,-330.743 453.81,-321.728"/>
<polygon fill="midnightblue" stroke="midnightblue" points="457.31,-321.571 453.81,-311.571 450.31,-321.571 457.31,-321.571"/>
</g>
<!-- Node19 -->
<g id="node62" class="node"><title>Node19</title>
<polygon fill="white" stroke="#bfbfbf" points="623.81,-290.5 623.81,-311.5 679.81,-311.5 679.81,-290.5 623.81,-290.5"/>
<text text-anchor="middle" x="651.81" y="-298.5" font-family="DejaVuSans" font-size="10.00">QWidget</text>
</g>
<!-- Node1&#45;&gt;Node19 -->
<g id="edge86" class="edge"><title>Node1&#45;&gt;Node19</title>
<path fill="none" stroke="midnightblue" d="M489.667,-348.497C524.81,-338.202 578.173,-322.571 613.98,-312.082"/>
<polygon fill="midnightblue" stroke="midnightblue" points="614.971,-315.438 623.584,-309.268 613.003,-308.721 614.971,-315.438"/>
</g>
<!-- Node4 -->
<g id="node7" class="node"><title>Node4</title>
<polygon fill="white" stroke="#bfbfbf" points="577.31,-0.5 577.31,-21.5 630.31,-21.5 630.31,-0.5 577.31,-0.5"/>
<text text-anchor="middle" x="603.81" y="-8.5" font-family="DejaVuSans" font-size="10.00">QString</text>
</g>
<!-- Node3&#45;&gt;Node4 -->
<g id="edge6" class="edge"><title>Node3&#45;&gt;Node4</title>
<path fill="none" stroke="midnightblue" d="M656.458,-116.295C646.746,-96.8724 626.088,-55.5561 613.733,-30.8462"/>
<polygon fill="midnightblue" stroke="midnightblue" points="616.753,-29.0582 609.15,-21.6792 610.492,-32.1888 616.753,-29.0582"/>
</g>
<!-- Node5 -->
<g id="node9" class="node"><title>Node5</title>
<polygon fill="white" stroke="#bfbfbf" points="210.31,-58.5 210.31,-79.5 251.31,-79.5 251.31,-58.5 210.31,-58.5"/>
<text text-anchor="middle" x="230.81" y="-66.5" font-family="DejaVuSans" font-size="10.00">QList</text>
</g>
<!-- Node3&#45;&gt;Node5 -->
<g id="edge8" class="edge"><title>Node3&#45;&gt;Node5</title>
<path fill="none" stroke="midnightblue" d="M586.736,-116.897C490.584,-103.958 328.371,-82.1288 261.272,-73.0993"/>
<polygon fill="midnightblue" stroke="midnightblue" points="261.722,-69.6283 251.344,-71.7633 260.788,-76.5658 261.722,-69.6283"/>
</g>
<!-- Node6 -->
<g id="node11" class="node"><title>Node6</title>
<polygon fill="white" stroke="#bfbfbf" points="47.3103,-0.5 47.3103,-21.5 116.31,-21.5 116.31,-0.5 47.3103,-0.5"/>
<text text-anchor="middle" x="81.8103" y="-8.5" font-family="DejaVuSans" font-size="10.00">QStringList</text>
</g>
<!-- Node3&#45;&gt;Node6 -->
<g id="edge10" class="edge"><title>Node3&#45;&gt;Node6</title>
<path fill="none" stroke="midnightblue" d="M609.059,-116.45C495.959,-93.8297 231.868,-41.0116 126.439,-19.9257"/>
<polygon fill="midnightblue" stroke="midnightblue" points="126.938,-16.4563 116.446,-17.9271 125.565,-23.3204 126.938,-16.4563"/>
</g>
<!-- Node7 -->
<g id="node13" class="node"><title>Node7</title>
<a xlink:href="cv___species_8h.html" target="_top" xlink:title="cv_Species.h">
<polygon fill="white" stroke="black" points="701.31,-58.5 701.31,-79.5 780.31,-79.5 780.31,-58.5 701.31,-58.5"/>
<text text-anchor="middle" x="740.81" y="-66.5" font-family="DejaVuSans" font-size="10.00">cv_Species.h</text>
</a>
</g>
<!-- Node3&#45;&gt;Node7 -->
<g id="edge12" class="edge"><title>Node3&#45;&gt;Node7</title>
<path fill="none" stroke="midnightblue" d="M676.3,-116.362C687.993,-107.777 704.653,-95.5459 718.113,-85.6636"/>
<polygon fill="midnightblue" stroke="midnightblue" points="720.423,-88.31 726.412,-79.5707 716.28,-82.6675 720.423,-88.31"/>
</g>
<!-- Node7&#45;&gt;Node4 -->
<g id="edge14" class="edge"><title>Node7&#45;&gt;Node4</title>
<path fill="none" stroke="midnightblue" d="M716.001,-58.4966C694.314,-49.3154 662.6,-35.8889 638.418,-25.6516"/>
<polygon fill="midnightblue" stroke="midnightblue" points="639.472,-22.2968 628.898,-21.6212 636.743,-28.7429 639.472,-22.2968"/>
</g>
<!-- Node8&#45;&gt;Node5 -->
<g id="edge18" class="edge"><title>Node8&#45;&gt;Node5</title>
<path fill="none" stroke="midnightblue" d="M330.883,-232.326C308.147,-215.2 265.228,-179.283 243.81,-138 236.103,-123.144 232.924,-104.376 231.632,-90.1656"/>
<polygon fill="midnightblue" stroke="midnightblue" points="235.106,-89.6538 230.951,-79.9078 228.121,-90.1179 235.106,-89.6538"/>
</g>
<!-- Node8&#45;&gt;Node6 -->
<g id="edge20" class="edge"><title>Node8&#45;&gt;Node6</title>
<path fill="none" stroke="midnightblue" d="M266.631,-236.117C177.826,-227.659 43.9001,-212.401 26.8103,-196 -17.471,-153.504 0.111682,-110.554 31.8103,-58 38.6634,-46.638 49.0173,-36.2663 58.5287,-28.1738"/>
<polygon fill="midnightblue" stroke="midnightblue" points="60.9842,-30.6895 66.5613,-21.6813 56.5839,-25.2454 60.9842,-30.6895"/>
</g>
<!-- Node9 -->
<g id="node20" class="node"><title>Node9</title>
<a xlink:href="cv___trait_8h.html" target="_top" xlink:title="../Datatypes/cv_Trait.h">
<polygon fill="white" stroke="black" points="445.81,-174.5 445.81,-195.5 567.81,-195.5 567.81,-174.5 445.81,-174.5"/>
<text text-anchor="middle" x="506.81" y="-182.5" font-family="DejaVuSans" font-size="10.00">../Datatypes/cv_Trait.h</text>
</a>
</g>
<!-- Node8&#45;&gt;Node9 -->
<g id="edge22" class="edge"><title>Node8&#45;&gt;Node9</title>
<path fill="none" stroke="midnightblue" d="M374.966,-232.497C400.986,-223.123 439.29,-209.324 467.914,-199.012"/>
<polygon fill="midnightblue" stroke="midnightblue" points="469.378,-202.205 477.6,-195.523 467.005,-195.62 469.378,-202.205"/>
</g>
<!-- Node12 -->
<g id="node33" class="node"><title>Node12</title>
<a xlink:href="cv___identity_list_8h.html" target="_top" xlink:title="../Datatypes/cv_IdentityList.h">
<polygon fill="white" stroke="black" points="35.3103,-174.5 35.3103,-195.5 190.31,-195.5 190.31,-174.5 35.3103,-174.5"/>
<text text-anchor="middle" x="112.81" y="-182.5" font-family="DejaVuSans" font-size="10.00">../Datatypes/cv_IdentityList.h</text>
</a>
</g>
<!-- Node8&#45;&gt;Node12 -->
<g id="edge42" class="edge"><title>Node8&#45;&gt;Node12</title>
<path fill="none" stroke="midnightblue" d="M303.616,-232.497C264.644,-222.795 206.632,-208.355 164.812,-197.945"/>
<polygon fill="midnightblue" stroke="midnightblue" points="165.633,-194.542 155.084,-195.523 163.942,-201.335 165.633,-194.542"/>
</g>
<!-- Node15 -->
<g id="node45" class="node"><title>Node15</title>
<a xlink:href="cv___super_effect_8h.html" target="_top" xlink:title="../Datatypes/cv_SuperEffect.h">
<polygon fill="white" stroke="black" points="306.81,-116.5 306.81,-137.5 464.81,-137.5 464.81,-116.5 306.81,-116.5"/>
<text text-anchor="middle" x="385.81" y="-124.5" font-family="DejaVuSans" font-size="10.00">../Datatypes/cv_SuperEffect.h</text>
</a>
</g>
<!-- Node8&#45;&gt;Node15 -->
<g id="edge60" class="edge"><title>Node8&#45;&gt;Node15</title>
<path fill="none" stroke="midnightblue" d="M348.274,-232.086C351.497,-218.349 357.594,-194.116 364.81,-174 368.071,-164.91 372.321,-155.119 376.144,-146.839"/>
<polygon fill="midnightblue" stroke="midnightblue" points="379.385,-148.173 380.5,-137.637 373.058,-145.178 379.385,-148.173"/>
</g>
<!-- Node16 -->
<g id="node48" class="node"><title>Node16</title>
<polygon fill="white" stroke="#bfbfbf" points="373.31,-174.5 373.31,-195.5 428.31,-195.5 428.31,-174.5 373.31,-174.5"/>
<text text-anchor="middle" x="400.81" y="-182.5" font-family="DejaVuSans" font-size="10.00">QObject</text>
</g>
<!-- Node8&#45;&gt;Node16 -->
<g id="edge64" class="edge"><title>Node8&#45;&gt;Node16</title>
<path fill="none" stroke="midnightblue" d="M355.898,-232.362C363.651,-224.186 374.541,-212.702 383.655,-203.091"/>
<polygon fill="midnightblue" stroke="midnightblue" points="386.445,-205.235 390.786,-195.571 381.366,-200.419 386.445,-205.235"/>
</g>
<!-- Node9&#45;&gt;Node3 -->
<g id="edge34" class="edge"><title>Node9&#45;&gt;Node3</title>
<path fill="none" stroke="midnightblue" d="M534.88,-174.497C559.821,-165.164 596.484,-151.445 624.002,-141.147"/>
<polygon fill="midnightblue" stroke="midnightblue" points="625.549,-144.306 633.688,-137.523 623.096,-137.75 625.549,-144.306"/>
</g>
<!-- Node9&#45;&gt;Node4 -->
<g id="edge26" class="edge"><title>Node9&#45;&gt;Node4</title>
<path fill="none" stroke="midnightblue" d="M514.87,-174.47C521.851,-165.134 532.026,-151.002 539.81,-138 561.658,-101.508 583.083,-56.6208 594.76,-31.1609"/>
<polygon fill="midnightblue" stroke="midnightblue" points="598.056,-32.3686 599.008,-21.8166 591.684,-29.4719 598.056,-32.3686"/>
</g>
<!-- Node9&#45;&gt;Node5 -->
<g id="edge28" class="edge"><title>Node9&#45;&gt;Node5</title>
<path fill="none" stroke="midnightblue" d="M445.674,-174.521C376.383,-162.436 272.037,-143.521 264.81,-138 249.204,-126.077 240.308,-105.082 235.563,-89.373"/>
<polygon fill="midnightblue" stroke="midnightblue" points="238.889,-88.2644 232.909,-79.5183 232.13,-90.0844 238.889,-88.2644"/>
</g>
<!-- Node9&#45;&gt;Node6 -->
<g id="edge30" class="edge"><title>Node9&#45;&gt;Node6</title>
<path fill="none" stroke="midnightblue" d="M447.993,-174.496C390.394,-163.778 309.594,-147.418 297.81,-138 267.062,-113.425 290.1,-83.1393 259.81,-58 239.632,-41.2524 172.19,-26.6645 126.364,-18.3484"/>
<polygon fill="midnightblue" stroke="midnightblue" points="126.826,-14.8756 116.368,-16.5709 125.6,-21.7675 126.826,-14.8756"/>
</g>
<!-- Node9&#45;&gt;Node7 -->
<g id="edge32" class="edge"><title>Node9&#45;&gt;Node7</title>
<path fill="none" stroke="midnightblue" d="M567.826,-181.597C631.05,-176.645 723.682,-164.903 745.81,-138 756.844,-124.585 753.816,-104.305 749.091,-89.1987"/>
<polygon fill="midnightblue" stroke="midnightblue" points="752.363,-87.9537 745.702,-79.7149 745.772,-90.3095 752.363,-87.9537"/>
</g>
<!-- Node10 -->
<g id="node22" class="node"><title>Node10</title>
<polygon fill="white" stroke="#bfbfbf" points="482.31,-116.5 482.31,-137.5 531.31,-137.5 531.31,-116.5 482.31,-116.5"/>
<text text-anchor="middle" x="506.81" y="-124.5" font-family="DejaVuSans" font-size="10.00">QFlags</text>
</g>
<!-- Node9&#45;&gt;Node10 -->
<g id="edge24" class="edge"><title>Node9&#45;&gt;Node10</title>
<path fill="none" stroke="midnightblue" d="M506.81,-174.362C506.81,-166.922 506.81,-156.743 506.81,-147.728"/>
<polygon fill="midnightblue" stroke="midnightblue" points="510.31,-147.571 506.81,-137.571 503.31,-147.571 510.31,-147.571"/>
</g>
<!-- Node11 -->
<g id="node29" class="node"><title>Node11</title>
<a xlink:href="cv___abstract_trait_8h.html" target="_top" xlink:title="cv_AbstractTrait.h">
<polygon fill="white" stroke="black" points="830.31,-116.5 830.31,-137.5 931.31,-137.5 931.31,-116.5 830.31,-116.5"/>
<text text-anchor="middle" x="880.81" y="-124.5" font-family="DejaVuSans" font-size="10.00">cv_AbstractTrait.h</text>
</a>
</g>
<!-- Node9&#45;&gt;Node11 -->
<g id="edge36" class="edge"><title>Node9&#45;&gt;Node11</title>
<path fill="none" stroke="midnightblue" d="M568.15,-175.487C637.874,-164.675 750.977,-147.135 820.338,-136.378"/>
<polygon fill="midnightblue" stroke="midnightblue" points="820.899,-139.833 830.244,-134.842 819.826,-132.916 820.899,-139.833"/>
</g>
<!-- Node11&#45;&gt;Node4 -->
<g id="edge38" class="edge"><title>Node11&#45;&gt;Node4</title>
<path fill="none" stroke="midnightblue" d="M869.871,-116.467C853.543,-101.32 821.23,-73.5067 788.81,-58 740.307,-34.8005 678.975,-22.129 640.558,-15.9593"/>
<polygon fill="midnightblue" stroke="midnightblue" points="640.776,-12.4517 630.36,-14.3882 639.71,-19.3701 640.776,-12.4517"/>
</g>
<!-- Node11&#45;&gt;Node7 -->
<g id="edge40" class="edge"><title>Node11&#45;&gt;Node7</title>
<path fill="none" stroke="midnightblue" d="M855.457,-116.497C833.197,-107.275 800.599,-93.7695 775.847,-83.5153"/>
<polygon fill="midnightblue" stroke="midnightblue" points="777.026,-80.2152 766.448,-79.6212 774.347,-86.6822 777.026,-80.2152"/>
</g>
<!-- Node12&#45;&gt;Node4 -->
<g id="edge44" class="edge"><title>Node12&#45;&gt;Node4</title>
<path fill="none" stroke="midnightblue" d="M116.573,-174.41C126.198,-149.084 154.355,-85.1141 201.81,-58 263.673,-22.6544 479.785,-13.8142 566.948,-11.6664"/>
<polygon fill="midnightblue" stroke="midnightblue" points="567.244,-15.1606 577.161,-11.4311 567.083,-8.16244 567.244,-15.1606"/>
</g>
<!-- Node12&#45;&gt;Node5 -->
<g id="edge58" class="edge"><title>Node12&#45;&gt;Node5</title>
<path fill="none" stroke="midnightblue" d="M123.7,-174.295C143.984,-154.355 187.743,-111.337 212.596,-86.9056"/>
<polygon fill="midnightblue" stroke="midnightblue" points="215.269,-89.1856 219.947,-79.6792 210.362,-84.1937 215.269,-89.1856"/>
</g>
<!-- Node13 -->
<g id="node36" class="node"><title>Node13</title>
<a xlink:href="cv___identity_8h.html" target="_top" xlink:title="cv_Identity.h">
<polygon fill="white" stroke="black" points="24.3103,-116.5 24.3103,-137.5 99.3103,-137.5 99.3103,-116.5 24.3103,-116.5"/>
<text text-anchor="middle" x="61.8103" y="-124.5" font-family="DejaVuSans" font-size="10.00">cv_Identity.h</text>
</a>
</g>
<!-- Node12&#45;&gt;Node13 -->
<g id="edge46" class="edge"><title>Node12&#45;&gt;Node13</title>
<path fill="none" stroke="midnightblue" d="M103.456,-174.362C96.267,-166.186 86.1693,-154.702 77.7176,-145.091"/>
<polygon fill="midnightblue" stroke="midnightblue" points="80.3369,-142.769 71.1051,-137.571 75.0801,-147.392 80.3369,-142.769"/>
</g>
<!-- Node13&#45;&gt;Node4 -->
<g id="edge50" class="edge"><title>Node13&#45;&gt;Node4</title>
<path fill="none" stroke="midnightblue" d="M76.3023,-116.449C100.699,-98.8952 149.223,-64.9328 168.81,-58 242.081,-32.0656 476.191,-17.5601 567.166,-12.7842"/>
<polygon fill="midnightblue" stroke="midnightblue" points="567.474,-16.2731 577.28,-12.2626 567.113,-9.2824 567.474,-16.2731"/>
</g>
<!-- Node13&#45;&gt;Node6 -->
<g id="edge48" class="edge"><title>Node13&#45;&gt;Node6</title>
<path fill="none" stroke="midnightblue" d="M53.1652,-116.142C43.3844,-102.463 29.7952,-78.2892 37.8103,-58 42.3379,-46.5388 51.1265,-36.2323 59.6662,-28.2117"/>
<polygon fill="midnightblue" stroke="midnightblue" points="62.0905,-30.7411 67.3095,-21.5208 57.4798,-25.474 62.0905,-30.7411"/>
</g>
<!-- Node14 -->
<g id="node40" class="node"><title>Node14</title>
<a xlink:href="cv___name_8h.html" target="_top" xlink:title="cv_Name.h">
<polygon fill="white" stroke="black" points="46.3103,-58.5 46.3103,-79.5 117.31,-79.5 117.31,-58.5 46.3103,-58.5"/>
<text text-anchor="middle" x="81.8103" y="-66.5" font-family="DejaVuSans" font-size="10.00">cv_Name.h</text>
</a>
</g>
<!-- Node13&#45;&gt;Node14 -->
<g id="edge52" class="edge"><title>Node13&#45;&gt;Node14</title>
<path fill="none" stroke="midnightblue" d="M65.4786,-116.362C68.1005,-108.758 71.7089,-98.294 74.8672,-89.1349"/>
<polygon fill="midnightblue" stroke="midnightblue" points="78.214,-90.1654 78.1652,-79.5707 71.5964,-87.8834 78.214,-90.1654"/>
</g>
<!-- Node14&#45;&gt;Node4 -->
<g id="edge56" class="edge"><title>Node14&#45;&gt;Node4</title>
<path fill="none" stroke="midnightblue" d="M117.573,-60.4435C122.015,-59.5369 126.507,-58.6942 130.81,-58 292.4,-31.9335 487.533,-18.0452 567.231,-13.1116"/>
<polygon fill="midnightblue" stroke="midnightblue" points="567.485,-16.6027 577.254,-12.5009 567.059,-9.61561 567.485,-16.6027"/>
</g>
<!-- Node14&#45;&gt;Node6 -->
<g id="edge54" class="edge"><title>Node14&#45;&gt;Node6</title>
<path fill="none" stroke="midnightblue" d="M81.8103,-58.3619C81.8103,-50.9219 81.8103,-40.7427 81.8103,-31.7276"/>
<polygon fill="midnightblue" stroke="midnightblue" points="85.3104,-31.5706 81.8103,-21.5707 78.3104,-31.5707 85.3104,-31.5706"/>
</g>
<!-- Node15&#45;&gt;Node7 -->
<g id="edge62" class="edge"><title>Node15&#45;&gt;Node7</title>
<path fill="none" stroke="midnightblue" d="M450.098,-116.497C519.371,-105.179 628.128,-87.4101 691.132,-77.1165"/>
<polygon fill="midnightblue" stroke="midnightblue" points="691.909,-80.5359 701.214,-75.4692 690.781,-73.6275 691.909,-80.5359"/>
</g>
<!-- Node17&#45;&gt;Node8 -->
<g id="edge82" class="edge"><title>Node17&#45;&gt;Node8</title>
<path fill="none" stroke="midnightblue" d="M434.252,-290.497C417.612,-281.56 393.483,-268.602 374.63,-258.477"/>
<polygon fill="midnightblue" stroke="midnightblue" points="376.054,-255.269 365.588,-253.621 372.742,-261.436 376.054,-255.269"/>
</g>
<!-- Node17&#45;&gt;Node9 -->
<g id="edge72" class="edge"><title>Node17&#45;&gt;Node9</title>
<path fill="none" stroke="midnightblue" d="M458.701,-290.295C467.575,-270.872 486.453,-229.556 497.743,-204.846"/>
<polygon fill="midnightblue" stroke="midnightblue" points="500.959,-206.229 501.931,-195.679 494.592,-203.32 500.959,-206.229"/>
</g>
<!-- Node17&#45;&gt;Node12 -->
<g id="edge70" class="edge"><title>Node17&#45;&gt;Node12</title>
<path fill="none" stroke="midnightblue" d="M395.861,-290.418C356.351,-282.403 303.175,-270.034 257.81,-254 215.775,-239.142 169.673,-215.921 140.989,-200.583"/>
<polygon fill="midnightblue" stroke="midnightblue" points="142.422,-197.38 131.96,-195.708 139.096,-203.539 142.422,-197.38"/>
</g>
<!-- Node17&#45;&gt;Node13 -->
<g id="edge68" class="edge"><title>Node17&#45;&gt;Node13</title>
<path fill="none" stroke="midnightblue" d="M372.94,-293.365C260.685,-280.842 66.872,-251.583 26.8103,-196 15.2135,-179.91 28.638,-159.426 42.0782,-144.97"/>
<polygon fill="midnightblue" stroke="midnightblue" points="44.8147,-147.182 49.3878,-137.625 39.853,-142.244 44.8147,-147.182"/>
</g>
<!-- Node17&#45;&gt;Node16 -->
<g id="edge84" class="edge"><title>Node17&#45;&gt;Node16</title>
<path fill="none" stroke="midnightblue" d="M451.857,-290.32C449.061,-276.412 443.194,-251.568 433.81,-232 429.011,-221.992 422.145,-211.8 415.917,-203.476"/>
<polygon fill="midnightblue" stroke="midnightblue" points="418.671,-201.315 409.772,-195.565 413.143,-205.61 418.671,-201.315"/>
</g>
<!-- Node18 -->
<g id="node55" class="node"><title>Node18</title>
<a xlink:href="cv___derangement_8h.html" target="_top" xlink:title="../Datatypes/cv_Derangement.h">
<polygon fill="white" stroke="black" points="756.81,-174.5 756.81,-195.5 926.81,-195.5 926.81,-174.5 756.81,-174.5"/>
<text text-anchor="middle" x="841.81" y="-182.5" font-family="DejaVuSans" font-size="10.00">../Datatypes/cv_Derangement.h</text>
</a>
</g>
<!-- Node17&#45;&gt;Node18 -->
<g id="edge74" class="edge"><title>Node17&#45;&gt;Node18</title>
<path fill="none" stroke="midnightblue" d="M489.271,-290.398C559.991,-269.255 718.463,-221.877 796.555,-198.53"/>
<polygon fill="midnightblue" stroke="midnightblue" points="797.994,-201.753 806.572,-195.535 795.988,-195.046 797.994,-201.753"/>
</g>
<!-- Node18&#45;&gt;Node4 -->
<g id="edge76" class="edge"><title>Node18&#45;&gt;Node4</title>
<path fill="none" stroke="midnightblue" d="M882.232,-174.44C916.379,-163.356 957.171,-143.674 939.81,-116 907.368,-64.2859 720.933,-29.3401 640.613,-16.4854"/>
<polygon fill="midnightblue" stroke="midnightblue" points="640.882,-12.9848 630.459,-14.8881 639.794,-19.8997 640.882,-12.9848"/>
</g>
<!-- Node18&#45;&gt;Node7 -->
<g id="edge78" class="edge"><title>Node18&#45;&gt;Node7</title>
<path fill="none" stroke="midnightblue" d="M832.489,-174.295C815.203,-154.441 777.997,-111.709 756.678,-87.2239"/>
<polygon fill="midnightblue" stroke="midnightblue" points="759.315,-84.9228 750.109,-79.6792 754.036,-89.5194 759.315,-84.9228"/>
</g>
<!-- Node18&#45;&gt;Node11 -->
<g id="edge80" class="edge"><title>Node18&#45;&gt;Node11</title>
<path fill="none" stroke="midnightblue" d="M848.963,-174.362C854.296,-166.431 861.721,-155.389 868.061,-145.961"/>
<polygon fill="midnightblue" stroke="midnightblue" points="871.027,-147.822 873.702,-137.571 865.218,-143.916 871.027,-147.822"/>
</g>
</g>
</svg>
