<?xml version="1.0" encoding="UTF-8" standalone="no"?>
<!DOCTYPE svg PUBLIC "-//W3C//DTD SVG 1.1//EN"
 "http://www.w3.org/Graphics/SVG/1.1/DTD/svg11.dtd">
<!-- Generated by graphviz version 2.26.3 (20100126.1600)
 -->
<!-- Title: G Pages: 1 -->
<svg width="652pt" height="88pt"
 viewBox="0.00 0.00 652.00 88.00" xmlns="http://www.w3.org/2000/svg" xmlns:xlink="http://www.w3.org/1999/xlink">
<g id="graph1" class="graph" transform="scale(1 1) rotate(0) translate(4 84)">
<title>G</title>
<polygon fill="white" stroke="white" points="-4,5 -4,-84 649,-84 649,5 -4,5"/>
<!-- Node1 -->
<g id="node1" class="node"><title>Node1</title>
<polygon fill="#bfbfbf" stroke="black" points="259,-58.5 259,-79.5 393,-79.5 393,-58.5 259,-58.5"/>
<text text-anchor="middle" x="326" y="-66.5" font-family="DejaVuSans" font-size="10.00">src/Widgets/SkillWidget.h</text>
</g>
<!-- Node2 -->
<g id="node3" class="node"><title>Node2</title>
<polygon fill="white" stroke="#bfbfbf" points="0,-0.5 0,-21.5 76,-21.5 76,-0.5 0,-0.5"/>
<text text-anchor="middle" x="38" y="-8.5" font-family="DejaVuSans" font-size="10.00">QGridLayout</text>
</g>
<!-- Node1&#45;&gt;Node2 -->
<g id="edge2" class="edge"><title>Node1&#45;&gt;Node2</title>
<path fill="none" stroke="midnightblue" d="M268.906,-58.4866C222.289,-49.7609 154.453,-36.7434 86.255,-22.218"/>
<polygon fill="midnightblue" stroke="midnightblue" points="86.7039,-18.7349 76.1928,-20.0643 85.2387,-25.5799 86.7039,-18.7349"/>
</g>
<!-- Node3 -->
<g id="node5" class="node"><title>Node3</title>
<polygon fill="white" stroke="#bfbfbf" points="93.5,-0.5 93.5,-21.5 234.5,-21.5 234.5,-0.5 93.5,-0.5"/>
<text text-anchor="middle" x="164" y="-8.5" font-family="DejaVuSans" font-size="10.00">Datatypes/cv_TraitDetail.h</text>
</g>
<!-- Node1&#45;&gt;Node3 -->
<g id="edge4" class="edge"><title>Node1&#45;&gt;Node3</title>
<path fill="none" stroke="midnightblue" d="M296.663,-58.4966C270.481,-49.1229 231.94,-35.3242 203.137,-25.0122"/>
<polygon fill="midnightblue" stroke="midnightblue" points="203.987,-21.5987 193.392,-21.5231 201.627,-28.189 203.987,-21.5987"/>
</g>
<!-- Node4 -->
<g id="node7" class="node"><title>Node4</title>
<polygon fill="white" stroke="#bfbfbf" points="251.5,-0.5 251.5,-21.5 400.5,-21.5 400.5,-0.5 251.5,-0.5"/>
<text text-anchor="middle" x="326" y="-8.5" font-family="DejaVuSans" font-size="10.00">Storage/StorageTemplate.h</text>
</g>
<!-- Node1&#45;&gt;Node4 -->
<g id="edge6" class="edge"><title>Node1&#45;&gt;Node4</title>
<path fill="none" stroke="midnightblue" d="M326,-58.3619C326,-50.9219 326,-40.7427 326,-31.7276"/>
<polygon fill="midnightblue" stroke="midnightblue" points="329.5,-31.5706 326,-21.5707 322.5,-31.5707 329.5,-31.5706"/>
</g>
<!-- Node5 -->
<g id="node9" class="node"><title>Node5</title>
<polygon fill="white" stroke="#bfbfbf" points="418,-0.5 418,-21.5 570,-21.5 570,-0.5 418,-0.5"/>
<text text-anchor="middle" x="494" y="-8.5" font-family="DejaVuSans" font-size="10.00">Storage/StorageCharacter.h</text>
</g>
<!-- Node1&#45;&gt;Node5 -->
<g id="edge8" class="edge"><title>Node1&#45;&gt;Node5</title>
<path fill="none" stroke="midnightblue" d="M356.424,-58.4966C383.694,-49.082 423.893,-35.2036 453.804,-24.8773"/>
<polygon fill="midnightblue" stroke="midnightblue" points="455.209,-28.0949 463.519,-21.5231 452.925,-21.4781 455.209,-28.0949"/>
</g>
<!-- Node6 -->
<g id="node11" class="node"><title>Node6</title>
<polygon fill="white" stroke="#bfbfbf" points="588,-0.5 588,-21.5 644,-21.5 644,-0.5 588,-0.5"/>
<text text-anchor="middle" x="616" y="-8.5" font-family="DejaVuSans" font-size="10.00">QWidget</text>
</g>
<!-- Node1&#45;&gt;Node6 -->
<g id="edge10" class="edge"><title>Node1&#45;&gt;Node6</title>
<path fill="none" stroke="midnightblue" d="M393.258,-58.4881C442.073,-50.4031 509.852,-38.2421 577.78,-22.1234"/>
<polygon fill="midnightblue" stroke="midnightblue" points="578.895,-25.4552 587.801,-19.7165 577.26,-18.6488 578.895,-25.4552"/>
</g>
</g>
</svg>
