<?xml version="1.0" encoding="UTF-8" standalone="no"?>
<!DOCTYPE svg PUBLIC "-//W3C//DTD SVG 1.1//EN"
 "http://www.w3.org/Graphics/SVG/1.1/DTD/svg11.dtd">
<!-- Generated by graphviz version 2.26.3 (20100126.1600)
 -->
<!-- Title: G Pages: 1 -->
<svg width="823pt" height="320pt"
 viewBox="0.00 0.00 823.00 320.00" xmlns="http://www.w3.org/2000/svg" xmlns:xlink="http://www.w3.org/1999/xlink">
<g id="graph1" class="graph" transform="scale(1 1) rotate(0) translate(4 316)">
<title>G</title>
<polygon fill="white" stroke="white" points="-4,5 -4,-316 820,-316 820,5 -4,5"/>
<!-- Node1 -->
<g id="node1" class="node"><title>Node1</title>
<polygon fill="#bfbfbf" stroke="black" points="381,-290.5 381,-311.5 527,-311.5 527,-290.5 381,-290.5"/>
<text text-anchor="middle" x="454" y="-298.5" font-family="DejaVuSans" font-size="10.00">src/Widgets/SkillWidget.cpp</text>
</g>
<!-- Node2 -->
<g id="node3" class="node"><title>Node2</title>
<polygon fill="white" stroke="#bfbfbf" points="254.5,-232.5 254.5,-253.5 325.5,-253.5 325.5,-232.5 254.5,-232.5"/>
<text text-anchor="middle" x="290" y="-240.5" font-family="DejaVuSans" font-size="10.00">QGroupBox</text>
</g>
<!-- Node1&#45;&gt;Node2 -->
<g id="edge2" class="edge"><title>Node1&#45;&gt;Node2</title>
<path fill="none" stroke="midnightblue" d="M424.301,-290.497C397.68,-281.082 358.438,-267.204 329.239,-256.877"/>
<polygon fill="midnightblue" stroke="midnightblue" points="330.35,-253.558 319.755,-253.523 328.016,-260.157 330.35,-253.558"/>
</g>
<!-- Node3 -->
<g id="node5" class="node"><title>Node3</title>
<polygon fill="white" stroke="#bfbfbf" points="343,-232.5 343,-253.5 399,-253.5 399,-232.5 343,-232.5"/>
<text text-anchor="middle" x="371" y="-240.5" font-family="DejaVuSans" font-size="10.00">QDebug</text>
</g>
<!-- Node1&#45;&gt;Node3 -->
<g id="edge4" class="edge"><title>Node1&#45;&gt;Node3</title>
<path fill="none" stroke="midnightblue" d="M438.777,-290.362C426.375,-281.696 408.654,-269.313 394.443,-259.382"/>
<polygon fill="midnightblue" stroke="midnightblue" points="396.329,-256.43 386.127,-253.571 392.319,-262.168 396.329,-256.43"/>
</g>
<!-- Node4 -->
<g id="node7" class="node"><title>Node4</title>
<a xlink:href="_chara_trait_8h.html" target="_top" xlink:title="CharaTrait.h">
<polygon fill="white" stroke="black" points="417,-232.5 417,-253.5 491,-253.5 491,-232.5 417,-232.5"/>
<text text-anchor="middle" x="454" y="-240.5" font-family="DejaVuSans" font-size="10.00">CharaTrait.h</text>
</a>
</g>
<!-- Node1&#45;&gt;Node4 -->
<g id="edge6" class="edge"><title>Node1&#45;&gt;Node4</title>
<path fill="none" stroke="midnightblue" d="M454,-290.362C454,-282.922 454,-272.743 454,-263.728"/>
<polygon fill="midnightblue" stroke="midnightblue" points="457.5,-263.571 454,-253.571 450.5,-263.571 457.5,-263.571"/>
</g>
<!-- Node22 -->
<g id="node44" class="node"><title>Node22</title>
<polygon fill="white" stroke="#bfbfbf" points="605.5,-232.5 605.5,-253.5 770.5,-253.5 770.5,-232.5 605.5,-232.5"/>
<text text-anchor="middle" x="688" y="-240.5" font-family="DejaVuSans" font-size="10.00">Widgets/Dialogs/MessageBox.h</text>
</g>
<!-- Node1&#45;&gt;Node22 -->
<g id="edge44" class="edge"><title>Node1&#45;&gt;Node22</title>
<path fill="none" stroke="midnightblue" d="M496.376,-290.497C535.515,-280.795 593.776,-266.355 635.775,-255.945"/>
<polygon fill="midnightblue" stroke="midnightblue" points="636.681,-259.326 645.545,-253.523 634.997,-252.532 636.681,-259.326"/>
</g>
<!-- Node23 -->
<g id="node46" class="node"><title>Node23</title>
<a xlink:href="_skill_widget_8h.html" target="_top" xlink:title="SkillWidget.h">
<polygon fill="white" stroke="black" points="511.5,-232.5 511.5,-253.5 588.5,-253.5 588.5,-232.5 511.5,-232.5"/>
<text text-anchor="middle" x="550" y="-240.5" font-family="DejaVuSans" font-size="10.00">SkillWidget.h</text>
</a>
</g>
<!-- Node1&#45;&gt;Node23 -->
<g id="edge46" class="edge"><title>Node1&#45;&gt;Node23</title>
<path fill="none" stroke="midnightblue" d="M471.608,-290.362C486.223,-281.532 507.224,-268.844 523.811,-258.822"/>
<polygon fill="midnightblue" stroke="midnightblue" points="525.754,-261.738 532.504,-253.571 522.135,-255.746 525.754,-261.738"/>
</g>
<!-- Node5 -->
<g id="node9" class="node"><title>Node5</title>
<polygon fill="white" stroke="#bfbfbf" points="375,-174.5 375,-195.5 527,-195.5 527,-174.5 375,-174.5"/>
<text text-anchor="middle" x="451" y="-182.5" font-family="DejaVuSans" font-size="10.00">Storage/StorageCharacter.h</text>
</g>
<!-- Node4&#45;&gt;Node5 -->
<g id="edge8" class="edge"><title>Node4&#45;&gt;Node5</title>
<path fill="none" stroke="midnightblue" d="M453.45,-232.362C453.065,-224.922 452.538,-214.743 452.072,-205.728"/>
<polygon fill="midnightblue" stroke="midnightblue" points="455.559,-205.376 451.547,-195.571 448.568,-205.738 455.559,-205.376"/>
</g>
<!-- Node6 -->
<g id="node11" class="node"><title>Node6</title>
<a xlink:href="_trait_line_8h.html" target="_top" xlink:title="TraitLine.h">
<polygon fill="white" stroke="black" points="292.5,-174.5 292.5,-195.5 357.5,-195.5 357.5,-174.5 292.5,-174.5"/>
<text text-anchor="middle" x="325" y="-182.5" font-family="DejaVuSans" font-size="10.00">TraitLine.h</text>
</a>
</g>
<!-- Node4&#45;&gt;Node6 -->
<g id="edge10" class="edge"><title>Node4&#45;&gt;Node6</title>
<path fill="none" stroke="midnightblue" d="M430.639,-232.497C410.309,-223.356 380.622,-210.008 357.891,-199.788"/>
<polygon fill="midnightblue" stroke="midnightblue" points="359.179,-196.53 348.623,-195.621 356.308,-202.914 359.179,-196.53"/>
</g>
<!-- Node7 -->
<g id="node13" class="node"><title>Node7</title>
<polygon fill="white" stroke="#bfbfbf" points="212.5,-116.5 212.5,-137.5 281.5,-137.5 281.5,-116.5 212.5,-116.5"/>
<text text-anchor="middle" x="247" y="-124.5" font-family="DejaVuSans" font-size="10.00">QStringList</text>
</g>
<!-- Node6&#45;&gt;Node7 -->
<g id="edge12" class="edge"><title>Node6&#45;&gt;Node7</title>
<path fill="none" stroke="midnightblue" d="M310.694,-174.362C299.149,-165.777 282.7,-153.546 269.41,-143.664"/>
<polygon fill="midnightblue" stroke="midnightblue" points="271.329,-140.729 261.216,-137.571 267.152,-146.346 271.329,-140.729"/>
</g>
<!-- Node8 -->
<g id="node15" class="node"><title>Node8</title>
<polygon fill="white" stroke="#bfbfbf" points="697,-116.5 697,-137.5 779,-137.5 779,-116.5 697,-116.5"/>
<text text-anchor="middle" x="738" y="-124.5" font-family="DejaVuSans" font-size="10.00">QHBoxLayout</text>
</g>
<!-- Node6&#45;&gt;Node8 -->
<g id="edge14" class="edge"><title>Node6&#45;&gt;Node8</title>
<path fill="none" stroke="midnightblue" d="M357.571,-175.786C360.41,-175.128 363.248,-174.52 366,-174 504.321,-147.867 544.15,-160.884 686.863,-138.041"/>
<polygon fill="midnightblue" stroke="midnightblue" points="687.56,-141.474 696.866,-136.409 686.433,-134.565 687.56,-141.474"/>
</g>
<!-- Node9 -->
<g id="node17" class="node"><title>Node9</title>
<polygon fill="white" stroke="#bfbfbf" points="299,-116.5 299,-137.5 349,-137.5 349,-116.5 299,-116.5"/>
<text text-anchor="middle" x="324" y="-124.5" font-family="DejaVuSans" font-size="10.00">QLabel</text>
</g>
<!-- Node6&#45;&gt;Node9 -->
<g id="edge16" class="edge"><title>Node6&#45;&gt;Node9</title>
<path fill="none" stroke="midnightblue" d="M324.817,-174.362C324.688,-166.922 324.513,-156.743 324.357,-147.728"/>
<polygon fill="midnightblue" stroke="midnightblue" points="327.854,-147.509 324.182,-137.571 320.855,-147.63 327.854,-147.509"/>
</g>
<!-- Node10 -->
<g id="node19" class="node"><title>Node10</title>
<polygon fill="white" stroke="#bfbfbf" points="367,-116.5 367,-137.5 447,-137.5 447,-116.5 367,-116.5"/>
<text text-anchor="middle" x="407" y="-124.5" font-family="DejaVuSans" font-size="10.00">QPushButton</text>
</g>
<!-- Node6&#45;&gt;Node10 -->
<g id="edge18" class="edge"><title>Node6&#45;&gt;Node10</title>
<path fill="none" stroke="midnightblue" d="M340.04,-174.362C352.293,-165.696 369.799,-153.313 383.839,-143.382"/>
<polygon fill="midnightblue" stroke="midnightblue" points="385.912,-146.203 392.055,-137.571 381.87,-140.488 385.912,-146.203"/>
</g>
<!-- Node11 -->
<g id="node21" class="node"><title>Node11</title>
<polygon fill="white" stroke="#bfbfbf" points="465,-116.5 465,-137.5 527,-137.5 527,-116.5 465,-116.5"/>
<text text-anchor="middle" x="496" y="-124.5" font-family="DejaVuSans" font-size="10.00">QLineEdit</text>
</g>
<!-- Node6&#45;&gt;Node11 -->
<g id="edge20" class="edge"><title>Node6&#45;&gt;Node11</title>
<path fill="none" stroke="midnightblue" d="M355.967,-174.497C383.844,-165.041 424.997,-151.083 455.482,-140.743"/>
<polygon fill="midnightblue" stroke="midnightblue" points="456.629,-144.05 464.975,-137.523 454.381,-137.421 456.629,-144.05"/>
</g>
<!-- Node12 -->
<g id="node23" class="node"><title>Node12</title>
<a xlink:href="_trait_dots_8h.html" target="_top" xlink:title="TraitDots.h">
<polygon fill="white" stroke="black" points="89,-116.5 89,-137.5 157,-137.5 157,-116.5 89,-116.5"/>
<text text-anchor="middle" x="123" y="-124.5" font-family="DejaVuSans" font-size="10.00">TraitDots.h</text>
</a>
</g>
<!-- Node6&#45;&gt;Node12 -->
<g id="edge22" class="edge"><title>Node6&#45;&gt;Node12</title>
<path fill="none" stroke="midnightblue" d="M292.096,-175.552C258.024,-165.769 204.601,-150.43 166.936,-139.615"/>
<polygon fill="midnightblue" stroke="midnightblue" points="167.819,-136.228 157.242,-136.832 165.887,-142.956 167.819,-136.228"/>
</g>
<!-- Node16 -->
<g id="node31" class="node"><title>Node16</title>
<polygon fill="white" stroke="#bfbfbf" points="192,-58.5 192,-79.5 248,-79.5 248,-58.5 192,-58.5"/>
<text text-anchor="middle" x="220" y="-66.5" font-family="DejaVuSans" font-size="10.00">QWidget</text>
</g>
<!-- Node6&#45;&gt;Node16 -->
<g id="edge42" class="edge"><title>Node6&#45;&gt;Node16</title>
<path fill="none" stroke="midnightblue" d="M292.208,-176.736C260.026,-167.884 214.309,-153.064 204,-138 193.973,-123.349 200.345,-103.277 207.808,-88.5589"/>
<polygon fill="midnightblue" stroke="midnightblue" points="210.895,-90.2093 212.708,-79.7708 204.781,-86.8002 210.895,-90.2093"/>
</g>
<!-- Node17 -->
<g id="node33" class="node"><title>Node17</title>
<a xlink:href="_trait_specialties_8h.html" target="_top" xlink:title="TraitSpecialties.h">
<polygon fill="white" stroke="black" points="582.5,-116.5 582.5,-137.5 679.5,-137.5 679.5,-116.5 582.5,-116.5"/>
<text text-anchor="middle" x="631" y="-124.5" font-family="DejaVuSans" font-size="10.00">TraitSpecialties.h</text>
</a>
</g>
<!-- Node6&#45;&gt;Node17 -->
<g id="edge32" class="edge"><title>Node6&#45;&gt;Node17</title>
<path fill="none" stroke="midnightblue" d="M357.611,-175.978C360.441,-175.278 363.266,-174.608 366,-174 436.487,-158.325 518.443,-144.447 572.334,-135.909"/>
<polygon fill="midnightblue" stroke="midnightblue" points="573.06,-139.338 582.394,-134.326 571.971,-132.423 573.06,-139.338"/>
</g>
<!-- Node13 -->
<g id="node25" class="node"><title>Node13</title>
<polygon fill="white" stroke="#bfbfbf" points="67.5,-58.5 67.5,-79.5 116.5,-79.5 116.5,-58.5 67.5,-58.5"/>
<text text-anchor="middle" x="92" y="-66.5" font-family="DejaVuSans" font-size="10.00">QColor</text>
</g>
<!-- Node12&#45;&gt;Node13 -->
<g id="edge24" class="edge"><title>Node12&#45;&gt;Node13</title>
<path fill="none" stroke="midnightblue" d="M117.314,-116.362C113.163,-108.595 107.416,-97.8426 102.447,-88.5458"/>
<polygon fill="midnightblue" stroke="midnightblue" points="105.45,-86.7401 97.6498,-79.5707 99.2769,-90.0398 105.45,-86.7401"/>
</g>
<!-- Node14 -->
<g id="node27" class="node"><title>Node14</title>
<polygon fill="white" stroke="#bfbfbf" points="133.5,-58.5 133.5,-79.5 174.5,-79.5 174.5,-58.5 133.5,-58.5"/>
<text text-anchor="middle" x="154" y="-66.5" font-family="DejaVuSans" font-size="10.00">QList</text>
</g>
<!-- Node12&#45;&gt;Node14 -->
<g id="edge26" class="edge"><title>Node12&#45;&gt;Node14</title>
<path fill="none" stroke="midnightblue" d="M128.686,-116.362C132.837,-108.595 138.584,-97.8426 143.553,-88.5458"/>
<polygon fill="midnightblue" stroke="midnightblue" points="146.723,-90.0398 148.35,-79.5707 140.55,-86.7401 146.723,-90.0398"/>
</g>
<!-- Node15 -->
<g id="node29" class="node"><title>Node15</title>
<polygon fill="white" stroke="#bfbfbf" points="-0.5,-58.5 -0.5,-79.5 50.5,-79.5 50.5,-58.5 -0.5,-58.5"/>
<text text-anchor="middle" x="25" y="-66.5" font-family="DejaVuSans" font-size="10.00">QEvent</text>
</g>
<!-- Node12&#45;&gt;Node15 -->
<g id="edge28" class="edge"><title>Node12&#45;&gt;Node15</title>
<path fill="none" stroke="midnightblue" d="M105.025,-116.362C90.1058,-107.532 68.6674,-94.844 51.7344,-84.8224"/>
<polygon fill="midnightblue" stroke="midnightblue" points="53.2492,-81.6519 42.8608,-79.5707 49.6839,-87.6759 53.2492,-81.6519"/>
</g>
<!-- Node12&#45;&gt;Node16 -->
<g id="edge30" class="edge"><title>Node12&#45;&gt;Node16</title>
<path fill="none" stroke="midnightblue" d="M140.791,-116.362C155.559,-107.532 176.778,-94.844 193.538,-84.8224"/>
<polygon fill="midnightblue" stroke="midnightblue" points="195.535,-87.7066 202.321,-79.5707 191.943,-81.6987 195.535,-87.7066"/>
</g>
<!-- Node18 -->
<g id="node35" class="node"><title>Node18</title>
<polygon fill="white" stroke="#bfbfbf" points="604.5,-58.5 604.5,-79.5 657.5,-79.5 657.5,-58.5 604.5,-58.5"/>
<text text-anchor="middle" x="631" y="-66.5" font-family="DejaVuSans" font-size="10.00">QString</text>
</g>
<!-- Node17&#45;&gt;Node18 -->
<g id="edge34" class="edge"><title>Node17&#45;&gt;Node18</title>
<path fill="none" stroke="midnightblue" d="M631,-116.362C631,-108.922 631,-98.7427 631,-89.7276"/>
<polygon fill="midnightblue" stroke="midnightblue" points="634.5,-89.5706 631,-79.5707 627.5,-89.5707 634.5,-89.5706"/>
</g>
<!-- Node19 -->
<g id="node37" class="node"><title>Node19</title>
<polygon fill="white" stroke="#bfbfbf" points="674.5,-58.5 674.5,-79.5 815.5,-79.5 815.5,-58.5 674.5,-58.5"/>
<text text-anchor="middle" x="745" y="-66.5" font-family="DejaVuSans" font-size="10.00">Datatypes/cv_TraitDetail.h</text>
</g>
<!-- Node17&#45;&gt;Node19 -->
<g id="edge36" class="edge"><title>Node17&#45;&gt;Node19</title>
<path fill="none" stroke="midnightblue" d="M651.645,-116.497C669.37,-107.479 695.145,-94.3649 715.123,-84.2006"/>
<polygon fill="midnightblue" stroke="midnightblue" points="716.798,-87.2753 724.124,-79.6212 713.624,-81.0364 716.798,-87.2753"/>
</g>
<!-- Node20 -->
<g id="node39" class="node"><title>Node20</title>
<a xlink:href="_checked_list_8h.html" target="_top" xlink:title="CheckedList.h">
<polygon fill="white" stroke="black" points="504.5,-58.5 504.5,-79.5 587.5,-79.5 587.5,-58.5 504.5,-58.5"/>
<text text-anchor="middle" x="546" y="-66.5" font-family="DejaVuSans" font-size="10.00">CheckedList.h</text>
</a>
</g>
<!-- Node17&#45;&gt;Node20 -->
<g id="edge38" class="edge"><title>Node17&#45;&gt;Node20</title>
<path fill="none" stroke="midnightblue" d="M615.41,-116.362C602.709,-107.696 584.562,-95.3126 570.008,-85.3819"/>
<polygon fill="midnightblue" stroke="midnightblue" points="571.724,-82.316 561.491,-79.5707 567.779,-88.0982 571.724,-82.316"/>
</g>
<!-- Node21 -->
<g id="node41" class="node"><title>Node21</title>
<polygon fill="white" stroke="#bfbfbf" points="509.5,-0.5 509.5,-21.5 582.5,-21.5 582.5,-0.5 509.5,-0.5"/>
<text text-anchor="middle" x="546" y="-8.5" font-family="DejaVuSans" font-size="10.00">QListWidget</text>
</g>
<!-- Node20&#45;&gt;Node21 -->
<g id="edge40" class="edge"><title>Node20&#45;&gt;Node21</title>
<path fill="none" stroke="midnightblue" d="M546,-58.3619C546,-50.9219 546,-40.7427 546,-31.7276"/>
<polygon fill="midnightblue" stroke="midnightblue" points="549.5,-31.5706 546,-21.5707 542.5,-31.5707 549.5,-31.5706"/>
</g>
<!-- Node23&#45;&gt;Node5 -->
<g id="edge52" class="edge"><title>Node23&#45;&gt;Node5</title>
<path fill="none" stroke="midnightblue" d="M531.842,-232.362C516.77,-223.532 495.113,-210.844 478.007,-200.822"/>
<polygon fill="midnightblue" stroke="midnightblue" points="479.441,-197.606 469.043,-195.571 475.902,-203.646 479.441,-197.606"/>
</g>
<!-- Node23&#45;&gt;Node8 -->
<g id="edge48" class="edge"><title>Node23&#45;&gt;Node8</title>
<path fill="none" stroke="midnightblue" d="M584.488,-232.422C607.955,-224.371 639.14,-211.961 664,-196 686.2,-181.747 707.821,-160.469 721.902,-145.315"/>
<polygon fill="midnightblue" stroke="midnightblue" points="724.77,-147.363 728.905,-137.609 719.589,-142.656 724.77,-147.363"/>
</g>
<!-- Node23&#45;&gt;Node16 -->
<g id="edge54" class="edge"><title>Node23&#45;&gt;Node16</title>
<path fill="none" stroke="midnightblue" d="M552.621,-232.38C557.919,-208.093 566.925,-148.118 536,-116 516.947,-96.2119 338.148,-78.9042 258.251,-72.0879"/>
<polygon fill="midnightblue" stroke="midnightblue" points="258.37,-68.5856 248.111,-71.234 257.782,-75.5609 258.37,-68.5856"/>
</g>
<!-- Node24 -->
<g id="node49" class="node"><title>Node24</title>
<polygon fill="white" stroke="#bfbfbf" points="582.5,-174.5 582.5,-195.5 655.5,-195.5 655.5,-174.5 582.5,-174.5"/>
<text text-anchor="middle" x="619" y="-182.5" font-family="DejaVuSans" font-size="10.00">QScrollArea</text>
</g>
<!-- Node23&#45;&gt;Node24 -->
<g id="edge50" class="edge"><title>Node23&#45;&gt;Node24</title>
<path fill="none" stroke="midnightblue" d="M562.656,-232.362C572.674,-223.941 586.867,-212.011 598.501,-202.231"/>
<polygon fill="midnightblue" stroke="midnightblue" points="601.022,-204.684 606.425,-195.571 596.518,-199.326 601.022,-204.684"/>
</g>
</g>
</svg>
