<?xml version="1.0" encoding="UTF-8" standalone="no"?>
<!DOCTYPE svg PUBLIC "-//W3C//DTD SVG 1.1//EN"
 "http://www.w3.org/Graphics/SVG/1.1/DTD/svg11.dtd">
<!-- Generated by graphviz version 2.26.3 (20100126.1600)
 -->
<!-- Title: G Pages: 1 -->
<svg width="1784pt" height="436pt"
 viewBox="0.00 0.00 1784.38 436.00" xmlns="http://www.w3.org/2000/svg" xmlns:xlink="http://www.w3.org/1999/xlink">
<g id="graph1" class="graph" transform="scale(1 1) rotate(0) translate(4 432)">
<title>G</title>
<polygon fill="white" stroke="white" points="-4,5 -4,-432 1781.38,-432 1781.38,5 -4,5"/>
<!-- Node1 -->
<g id="node1" class="node"><title>Node1</title>
<polygon fill="#bfbfbf" stroke="black" points="195,-406.5 195,-427.5 341,-427.5 341,-406.5 195,-406.5"/>
<text text-anchor="middle" x="268" y="-414.5" font-family="DejaVuSans" font-size="10.00">src/Widgets/SkillWidget.cpp</text>
</g>
<!-- Node2 -->
<g id="node3" class="node"><title>Node2</title>
<polygon fill="white" stroke="#bfbfbf" points="-0.5,-348.5 -0.5,-369.5 70.5,-369.5 70.5,-348.5 -0.5,-348.5"/>
<text text-anchor="middle" x="35" y="-356.5" font-family="DejaVuSans" font-size="10.00">QGroupBox</text>
</g>
<!-- Node1&#45;&gt;Node2 -->
<g id="edge2" class="edge"><title>Node1&#45;&gt;Node2</title>
<path fill="none" stroke="midnightblue" d="M225.585,-406.468C189.448,-397.492 135.858,-384.172 80.5231,-370.378"/>
<polygon fill="midnightblue" stroke="midnightblue" points="81.0903,-366.912 70.5406,-367.889 79.3968,-373.704 81.0903,-366.912"/>
</g>
<!-- Node3 -->
<g id="node5" class="node"><title>Node3</title>
<polygon fill="white" stroke="#bfbfbf" points="88,-348.5 88,-369.5 144,-369.5 144,-348.5 88,-348.5"/>
<text text-anchor="middle" x="116" y="-356.5" font-family="DejaVuSans" font-size="10.00">QDebug</text>
</g>
<!-- Node1&#45;&gt;Node3 -->
<g id="edge4" class="edge"><title>Node1&#45;&gt;Node3</title>
<path fill="none" stroke="midnightblue" d="M240.474,-406.497C216.016,-397.164 180.062,-383.445 153.076,-373.147"/>
<polygon fill="midnightblue" stroke="midnightblue" points="154.168,-369.818 143.578,-369.523 151.673,-376.358 154.168,-369.818"/>
</g>
<!-- Node4 -->
<g id="node7" class="node"><title>Node4</title>
<a xlink:href="_chara_trait_8h.html" target="_top" xlink:title="CharaTrait.h">
<polygon fill="white" stroke="black" points="604,-348.5 604,-369.5 678,-369.5 678,-348.5 604,-348.5"/>
<text text-anchor="middle" x="641" y="-356.5" font-family="DejaVuSans" font-size="10.00">CharaTrait.h</text>
</a>
</g>
<!-- Node1&#45;&gt;Node4 -->
<g id="edge6" class="edge"><title>Node1&#45;&gt;Node4</title>
<path fill="none" stroke="midnightblue" d="M335.547,-406.497C410.177,-394.892 528.42,-376.506 593.74,-366.349"/>
<polygon fill="midnightblue" stroke="midnightblue" points="594.411,-369.787 603.754,-364.792 593.335,-362.87 594.411,-369.787"/>
</g>
<!-- Node12 -->
<g id="node27" class="node"><title>Node12</title>
<a xlink:href="cv___trait_8h.html" target="_top" xlink:title="../Datatypes/cv_Trait.h">
<polygon fill="white" stroke="black" points="303,-174.5 303,-195.5 425,-195.5 425,-174.5 303,-174.5"/>
<text text-anchor="middle" x="364" y="-182.5" font-family="DejaVuSans" font-size="10.00">../Datatypes/cv_Trait.h</text>
</a>
</g>
<!-- Node1&#45;&gt;Node12 -->
<g id="edge124" class="edge"><title>Node1&#45;&gt;Node12</title>
<path fill="none" stroke="midnightblue" d="M273.9,-406.215C287.787,-380.495 323.025,-313.278 345,-254 350.862,-238.188 355.848,-219.749 359.24,-205.912"/>
<polygon fill="midnightblue" stroke="midnightblue" points="362.703,-206.477 361.605,-195.939 355.892,-204.862 362.703,-206.477"/>
</g>
<!-- Node33 -->
<g id="node96" class="node"><title>Node33</title>
<a xlink:href="_exception_8h_source.html" target="_top" xlink:title="../Exceptions/Exception.h">
<polygon fill="white" stroke="black" points="200,-232.5 200,-253.5 336,-253.5 336,-232.5 200,-232.5"/>
<text text-anchor="middle" x="268" y="-240.5" font-family="DejaVuSans" font-size="10.00">../Exceptions/Exception.h</text>
</a>
</g>
<!-- Node1&#45;&gt;Node33 -->
<g id="edge126" class="edge"><title>Node1&#45;&gt;Node33</title>
<path fill="none" stroke="midnightblue" d="M268,-406.377C268,-378.293 268,-301.673 268,-264.203"/>
<polygon fill="midnightblue" stroke="midnightblue" points="271.5,-263.928 268,-253.928 264.5,-263.928 271.5,-263.928"/>
</g>
<!-- Node35 -->
<g id="node104" class="node"><title>Node35</title>
<a xlink:href="_config_8h.html" target="_top" xlink:title="../Config/Config.h">
<polygon fill="white" stroke="black" points="85,-174.5 85,-195.5 183,-195.5 183,-174.5 85,-174.5"/>
<text text-anchor="middle" x="134" y="-182.5" font-family="DejaVuSans" font-size="10.00">../Config/Config.h</text>
</a>
</g>
<!-- Node1&#45;&gt;Node35 -->
<g id="edge146" class="edge"><title>Node1&#45;&gt;Node35</title>
<path fill="none" stroke="midnightblue" d="M261.894,-406.429C241.053,-370.346 172.515,-251.683 145.292,-204.55"/>
<polygon fill="midnightblue" stroke="midnightblue" points="148.174,-202.542 140.142,-195.634 142.113,-206.043 148.174,-202.542"/>
</g>
<!-- Node37 -->
<g id="node111" class="node"><title>Node37</title>
<a xlink:href="_skill_widget_8h.html" target="_top" xlink:title="SkillWidget.h">
<polygon fill="white" stroke="black" points="1249.5,-348.5 1249.5,-369.5 1326.5,-369.5 1326.5,-348.5 1249.5,-348.5"/>
<text text-anchor="middle" x="1288" y="-356.5" font-family="DejaVuSans" font-size="10.00">SkillWidget.h</text>
</a>
</g>
<!-- Node1&#45;&gt;Node37 -->
<g id="edge148" class="edge"><title>Node1&#45;&gt;Node37</title>
<path fill="none" stroke="midnightblue" d="M341.356,-412.829C538.137,-401.639 1073.94,-371.172 1238.96,-361.788"/>
<polygon fill="midnightblue" stroke="midnightblue" points="1239.5,-365.263 1249.29,-361.201 1239.1,-358.275 1239.5,-365.263"/>
</g>
<!-- Node5 -->
<g id="node9" class="node"><title>Node5</title>
<a xlink:href="_storage_character_8h.html" target="_top" xlink:title="../Storage/StorageCharacter.h">
<polygon fill="white" stroke="black" points="1348.5,-290.5 1348.5,-311.5 1509.5,-311.5 1509.5,-290.5 1348.5,-290.5"/>
<text text-anchor="middle" x="1429" y="-298.5" font-family="DejaVuSans" font-size="10.00">../Storage/StorageCharacter.h</text>
</a>
</g>
<!-- Node4&#45;&gt;Node5 -->
<g id="edge8" class="edge"><title>Node4&#45;&gt;Node5</title>
<path fill="none" stroke="midnightblue" d="M678.286,-356.551C778.939,-349.896 1064.59,-330.721 1302,-312 1313.72,-311.076 1326.05,-310.061 1338.22,-309.034"/>
<polygon fill="midnightblue" stroke="midnightblue" points="1338.73,-312.504 1348.39,-308.17 1338.13,-305.529 1338.73,-312.504"/>
</g>
<!-- Node4&#45;&gt;Node12 -->
<g id="edge86" class="edge"><title>Node4&#45;&gt;Node12</title>
<path fill="none" stroke="midnightblue" d="M624.089,-348.377C577.245,-318.952 445.581,-236.246 389.65,-201.113"/>
<polygon fill="midnightblue" stroke="midnightblue" points="391.371,-198.06 381.041,-195.705 387.647,-203.988 391.371,-198.06"/>
</g>
<!-- Node15 -->
<g id="node37" class="node"><title>Node15</title>
<a xlink:href="cv___trait_detail_8h.html" target="_top" xlink:title="cv_TraitDetail.h">
<polygon fill="white" stroke="black" points="930.5,-116.5 930.5,-137.5 1019.5,-137.5 1019.5,-116.5 930.5,-116.5"/>
<text text-anchor="middle" x="975" y="-124.5" font-family="DejaVuSans" font-size="10.00">cv_TraitDetail.h</text>
</a>
</g>
<!-- Node4&#45;&gt;Node15 -->
<g id="edge88" class="edge"><title>Node4&#45;&gt;Node15</title>
<path fill="none" stroke="midnightblue" d="M642.634,-348.115C648.093,-315.812 668.821,-219.893 728,-174 735.603,-168.104 849.914,-148.032 920.329,-136.11"/>
<polygon fill="midnightblue" stroke="midnightblue" points="921.104,-139.529 930.382,-134.413 919.939,-132.627 921.104,-139.529"/>
</g>
<!-- Node21 -->
<g id="node66" class="node"><title>Node21</title>
<a xlink:href="_trait_line_8h.html" target="_top" xlink:title="TraitLine.h">
<polygon fill="white" stroke="black" points="1075.5,-232.5 1075.5,-253.5 1140.5,-253.5 1140.5,-232.5 1075.5,-232.5"/>
<text text-anchor="middle" x="1108" y="-240.5" font-family="DejaVuSans" font-size="10.00">TraitLine.h</text>
</a>
</g>
<!-- Node4&#45;&gt;Node21 -->
<g id="edge90" class="edge"><title>Node4&#45;&gt;Node21</title>
<path fill="none" stroke="midnightblue" d="M678.035,-349.801C763.619,-328.542 974.709,-276.109 1065.43,-253.573"/>
<polygon fill="midnightblue" stroke="midnightblue" points="1066.51,-256.912 1075.37,-251.104 1064.82,-250.118 1066.51,-256.912"/>
</g>
<!-- Node6 -->
<g id="node11" class="node"><title>Node6</title>
<a xlink:href="cv___identity_8h.html" target="_top" xlink:title="../Datatypes/cv_Identity.h">
<polygon fill="white" stroke="black" points="1544.5,-116.5 1544.5,-137.5 1681.5,-137.5 1681.5,-116.5 1544.5,-116.5"/>
<text text-anchor="middle" x="1613" y="-124.5" font-family="DejaVuSans" font-size="10.00">../Datatypes/cv_Identity.h</text>
</a>
</g>
<!-- Node5&#45;&gt;Node6 -->
<g id="edge10" class="edge"><title>Node5&#45;&gt;Node6</title>
<path fill="none" stroke="midnightblue" d="M1509.62,-292.103C1568.56,-280.74 1643.92,-254.874 1678,-196 1690.1,-175.095 1666.96,-155.479 1645.01,-142.547"/>
<polygon fill="midnightblue" stroke="midnightblue" points="1646.54,-139.393 1636.1,-137.596 1643.14,-145.512 1646.54,-139.393"/>
</g>
<!-- Node10 -->
<g id="node21" class="node"><title>Node10</title>
<a xlink:href="cv___identity_list_8h.html" target="_top" xlink:title="../Datatypes/cv_IdentityList.h">
<polygon fill="white" stroke="black" points="1514.5,-174.5 1514.5,-195.5 1669.5,-195.5 1669.5,-174.5 1514.5,-174.5"/>
<text text-anchor="middle" x="1592" y="-182.5" font-family="DejaVuSans" font-size="10.00">../Datatypes/cv_IdentityList.h</text>
</a>
</g>
<!-- Node5&#45;&gt;Node10 -->
<g id="edge22" class="edge"><title>Node5&#45;&gt;Node10</title>
<path fill="none" stroke="midnightblue" d="M1481.59,-290.459C1506.1,-283.425 1534.34,-272.044 1555,-254 1569.89,-240.997 1579.8,-220.499 1585.59,-205.218"/>
<polygon fill="midnightblue" stroke="midnightblue" points="1588.95,-206.223 1588.95,-195.629 1582.34,-203.911 1588.95,-206.223"/>
</g>
<!-- Node5&#45;&gt;Node12 -->
<g id="edge30" class="edge"><title>Node5&#45;&gt;Node12</title>
<path fill="none" stroke="midnightblue" d="M1348.3,-294.006C1204.14,-281.499 915.234,-256.379 893,-254 691.839,-232.479 639.27,-225.091 435.216,-196.147"/>
<polygon fill="midnightblue" stroke="midnightblue" points="435.46,-192.647 425.067,-194.707 434.476,-199.577 435.46,-192.647"/>
</g>
<!-- Node17 -->
<g id="node47" class="node"><title>Node17</title>
<a xlink:href="cv___derangement_8h.html" target="_top" xlink:title="../Datatypes/cv_Derangement.h">
<polygon fill="white" stroke="black" points="443,-174.5 443,-195.5 613,-195.5 613,-174.5 443,-174.5"/>
<text text-anchor="middle" x="528" y="-182.5" font-family="DejaVuSans" font-size="10.00">../Datatypes/cv_Derangement.h</text>
</a>
</g>
<!-- Node5&#45;&gt;Node17 -->
<g id="edge60" class="edge"><title>Node5&#45;&gt;Node17</title>
<path fill="none" stroke="midnightblue" d="M1348.25,-290.604C1180.78,-269.042 796.568,-219.577 619.918,-196.834"/>
<polygon fill="midnightblue" stroke="midnightblue" points="620.234,-193.346 609.868,-195.54 619.34,-200.289 620.234,-193.346"/>
</g>
<!-- Node18 -->
<g id="node52" class="node"><title>Node18</title>
<a xlink:href="_storage_template_8h.html" target="_top" xlink:title="StorageTemplate.h">
<polygon fill="white" stroke="black" points="1439.5,-232.5 1439.5,-253.5 1546.5,-253.5 1546.5,-232.5 1439.5,-232.5"/>
<text text-anchor="middle" x="1493" y="-240.5" font-family="DejaVuSans" font-size="10.00">StorageTemplate.h</text>
</a>
</g>
<!-- Node5&#45;&gt;Node18 -->
<g id="edge68" class="edge"><title>Node5&#45;&gt;Node18</title>
<path fill="none" stroke="midnightblue" d="M1440.74,-290.362C1449.94,-282.023 1462.94,-270.242 1473.67,-260.516"/>
<polygon fill="midnightblue" stroke="midnightblue" points="1476.28,-262.879 1481.34,-253.571 1471.58,-257.692 1476.28,-262.879"/>
</g>
<!-- Node20 -->
<g id="node61" class="node"><title>Node20</title>
<polygon fill="white" stroke="#bfbfbf" points="1404.5,-174.5 1404.5,-195.5 1459.5,-195.5 1459.5,-174.5 1404.5,-174.5"/>
<text text-anchor="middle" x="1432" y="-182.5" font-family="DejaVuSans" font-size="10.00">QObject</text>
</g>
<!-- Node5&#45;&gt;Node20 -->
<g id="edge84" class="edge"><title>Node5&#45;&gt;Node20</title>
<path fill="none" stroke="midnightblue" d="M1429.28,-290.295C1429.77,-271.131 1430.82,-230.654 1431.46,-205.843"/>
<polygon fill="midnightblue" stroke="midnightblue" points="1434.96,-205.766 1431.72,-195.679 1427.97,-205.585 1434.96,-205.766"/>
</g>
<!-- Node7 -->
<g id="node13" class="node"><title>Node7</title>
<polygon fill="white" stroke="#bfbfbf" points="1610.5,-0.5 1610.5,-21.5 1679.5,-21.5 1679.5,-0.5 1610.5,-0.5"/>
<text text-anchor="middle" x="1645" y="-8.5" font-family="DejaVuSans" font-size="10.00">QStringList</text>
</g>
<!-- Node6&#45;&gt;Node7 -->
<g id="edge12" class="edge"><title>Node6&#45;&gt;Node7</title>
<path fill="none" stroke="midnightblue" d="M1628.27,-116.196C1638.83,-107.719 1652.02,-94.8861 1658,-80 1664.36,-64.1614 1659.87,-45.0076 1654.5,-30.9029"/>
<polygon fill="midnightblue" stroke="midnightblue" points="1657.7,-29.4858 1650.58,-21.6446 1651.26,-32.2175 1657.7,-29.4858"/>
</g>
<!-- Node8 -->
<g id="node15" class="node"><title>Node8</title>
<polygon fill="white" stroke="#bfbfbf" points="711.5,-0.5 711.5,-21.5 764.5,-21.5 764.5,-0.5 711.5,-0.5"/>
<text text-anchor="middle" x="738" y="-8.5" font-family="DejaVuSans" font-size="10.00">QString</text>
</g>
<!-- Node6&#45;&gt;Node8 -->
<g id="edge14" class="edge"><title>Node6&#45;&gt;Node8</title>
<path fill="none" stroke="midnightblue" d="M1603.98,-116.441C1589.59,-100.443 1559.69,-70.5965 1527,-58 1456.34,-30.7714 920.978,-15.5562 774.786,-11.8802"/>
<polygon fill="midnightblue" stroke="midnightblue" points="774.639,-8.37557 764.555,-11.6259 774.465,-15.3734 774.639,-8.37557"/>
</g>
<!-- Node9 -->
<g id="node17" class="node"><title>Node9</title>
<a xlink:href="cv___name_8h.html" target="_top" xlink:title="cv_Name.h">
<polygon fill="white" stroke="black" points="1578.5,-58.5 1578.5,-79.5 1649.5,-79.5 1649.5,-58.5 1578.5,-58.5"/>
<text text-anchor="middle" x="1614" y="-66.5" font-family="DejaVuSans" font-size="10.00">cv_Name.h</text>
</a>
</g>
<!-- Node6&#45;&gt;Node9 -->
<g id="edge16" class="edge"><title>Node6&#45;&gt;Node9</title>
<path fill="none" stroke="midnightblue" d="M1613.18,-116.362C1613.31,-108.922 1613.49,-98.7427 1613.64,-89.7276"/>
<polygon fill="midnightblue" stroke="midnightblue" points="1617.14,-89.6295 1613.82,-79.5707 1610.15,-89.5088 1617.14,-89.6295"/>
</g>
<!-- Node9&#45;&gt;Node7 -->
<g id="edge18" class="edge"><title>Node9&#45;&gt;Node7</title>
<path fill="none" stroke="midnightblue" d="M1619.69,-58.3619C1623.84,-50.5949 1629.58,-39.8426 1634.55,-30.5458"/>
<polygon fill="midnightblue" stroke="midnightblue" points="1637.72,-32.0398 1639.35,-21.5707 1631.55,-28.7401 1637.72,-32.0398"/>
</g>
<!-- Node9&#45;&gt;Node8 -->
<g id="edge20" class="edge"><title>Node9&#45;&gt;Node8</title>
<path fill="none" stroke="midnightblue" d="M1578.26,-60.2666C1573.82,-59.3903 1569.32,-58.6031 1565,-58 1409.01,-36.209 914.502,-17.2989 774.976,-12.2933"/>
<polygon fill="midnightblue" stroke="midnightblue" points="774.925,-8.78932 764.806,-11.9306 774.675,-15.7849 774.925,-8.78932"/>
</g>
<!-- Node10&#45;&gt;Node6 -->
<g id="edge26" class="edge"><title>Node10&#45;&gt;Node6</title>
<path fill="none" stroke="midnightblue" d="M1595.85,-174.362C1598.6,-166.758 1602.39,-156.294 1605.71,-147.135"/>
<polygon fill="midnightblue" stroke="midnightblue" points="1609.06,-148.165 1609.17,-137.571 1602.48,-145.782 1609.06,-148.165"/>
</g>
<!-- Node10&#45;&gt;Node8 -->
<g id="edge24" class="edge"><title>Node10&#45;&gt;Node8</title>
<path fill="none" stroke="midnightblue" d="M1579.15,-174.403C1560.41,-159.432 1523.99,-132.121 1489,-116 1402.22,-76.0221 1376,-75.0755 1282,-58 1093.11,-23.6895 862.634,-14.2507 774.577,-11.8044"/>
<polygon fill="midnightblue" stroke="midnightblue" points="774.645,-8.3051 764.556,-11.5395 774.46,-15.3027 774.645,-8.3051"/>
</g>
<!-- Node11 -->
<g id="node25" class="node"><title>Node11</title>
<polygon fill="white" stroke="#bfbfbf" points="1232.5,-58.5 1232.5,-79.5 1273.5,-79.5 1273.5,-58.5 1232.5,-58.5"/>
<text text-anchor="middle" x="1253" y="-66.5" font-family="DejaVuSans" font-size="10.00">QList</text>
</g>
<!-- Node10&#45;&gt;Node11 -->
<g id="edge28" class="edge"><title>Node10&#45;&gt;Node11</title>
<path fill="none" stroke="midnightblue" d="M1571.45,-174.471C1535.78,-156.245 1465.04,-120.337 1453,-116 1394.63,-94.97 1323.24,-80.8187 1283.47,-73.908"/>
<polygon fill="midnightblue" stroke="midnightblue" points="1284.05,-70.4556 1273.6,-72.2291 1282.87,-77.3565 1284.05,-70.4556"/>
</g>
<!-- Node12&#45;&gt;Node7 -->
<g id="edge38" class="edge"><title>Node12&#45;&gt;Node7</title>
<path fill="none" stroke="midnightblue" d="M425.081,-175.385C428.096,-174.916 431.082,-174.452 434,-174 538.853,-157.764 569.904,-173.192 670,-138 688.41,-131.527 689.684,-122.734 708,-116 875.437,-54.4394 1437.01,-21.5903 1600.18,-13.188"/>
<polygon fill="midnightblue" stroke="midnightblue" points="1600.54,-16.6746 1610.35,-12.6699 1600.18,-9.68365 1600.54,-16.6746"/>
</g>
<!-- Node12&#45;&gt;Node8 -->
<g id="edge34" class="edge"><title>Node12&#45;&gt;Node8</title>
<path fill="none" stroke="midnightblue" d="M343.991,-174.423C321.266,-161.035 289.366,-137.161 306,-116 330.848,-84.389 601.464,-34.6716 701.29,-17.2675"/>
<polygon fill="midnightblue" stroke="midnightblue" points="701.974,-20.7013 711.229,-15.5434 700.778,-13.8043 701.974,-20.7013"/>
</g>
<!-- Node12&#45;&gt;Node11 -->
<g id="edge36" class="edge"><title>Node12&#45;&gt;Node11</title>
<path fill="none" stroke="midnightblue" d="M400.809,-174.481C434.052,-164.975 484.312,-150.583 528,-138 561.791,-128.267 569.361,-122.059 604,-116 848.362,-73.2589 913.972,-102.734 1161,-80 1181.39,-78.1234 1204.25,-75.3931 1222.08,-73.1222"/>
<polygon fill="midnightblue" stroke="midnightblue" points="1222.74,-76.5668 1232.21,-71.8138 1221.84,-69.6246 1222.74,-76.5668"/>
</g>
<!-- Node13 -->
<g id="node29" class="node"><title>Node13</title>
<polygon fill="white" stroke="#bfbfbf" points="314.5,-116.5 314.5,-137.5 363.5,-137.5 363.5,-116.5 314.5,-116.5"/>
<text text-anchor="middle" x="339" y="-124.5" font-family="DejaVuSans" font-size="10.00">QFlags</text>
</g>
<!-- Node12&#45;&gt;Node13 -->
<g id="edge32" class="edge"><title>Node12&#45;&gt;Node13</title>
<path fill="none" stroke="midnightblue" d="M359.415,-174.362C356.102,-166.677 351.53,-156.069 347.552,-146.84"/>
<polygon fill="midnightblue" stroke="midnightblue" points="350.729,-145.368 343.556,-137.571 344.301,-148.139 350.729,-145.368"/>
</g>
<!-- Node14 -->
<g id="node34" class="node"><title>Node14</title>
<a xlink:href="cv___species_8h.html" target="_top" xlink:title="cv_Species.h">
<polygon fill="white" stroke="black" points="650.5,-58.5 650.5,-79.5 729.5,-79.5 729.5,-58.5 650.5,-58.5"/>
<text text-anchor="middle" x="690" y="-66.5" font-family="DejaVuSans" font-size="10.00">cv_Species.h</text>
</a>
</g>
<!-- Node12&#45;&gt;Node14 -->
<g id="edge40" class="edge"><title>Node12&#45;&gt;Node14</title>
<path fill="none" stroke="midnightblue" d="M367.899,-174.35C374.188,-158.791 388.125,-130.162 410,-116 447.143,-91.9536 569.9,-78.519 639.921,-72.6387"/>
<polygon fill="midnightblue" stroke="midnightblue" points="640.587,-76.0959 650.269,-71.7924 640.017,-69.1192 640.587,-76.0959"/>
</g>
<!-- Node12&#45;&gt;Node15 -->
<g id="edge44" class="edge"><title>Node12&#45;&gt;Node15</title>
<path fill="none" stroke="midnightblue" d="M425.046,-175.127C428.071,-174.726 431.068,-174.347 434,-174 633.247,-150.41 684.365,-158.043 884,-138 895.634,-136.832 908.087,-135.428 919.929,-134.02"/>
<polygon fill="midnightblue" stroke="midnightblue" points="920.634,-137.461 930.143,-132.788 919.796,-130.511 920.634,-137.461"/>
</g>
<!-- Node16 -->
<g id="node43" class="node"><title>Node16</title>
<a xlink:href="cv___abstract_trait_8h.html" target="_top" xlink:title="cv_AbstractTrait.h">
<polygon fill="white" stroke="black" points="418.5,-116.5 418.5,-137.5 519.5,-137.5 519.5,-116.5 418.5,-116.5"/>
<text text-anchor="middle" x="469" y="-124.5" font-family="DejaVuSans" font-size="10.00">cv_AbstractTrait.h</text>
</a>
</g>
<!-- Node12&#45;&gt;Node16 -->
<g id="edge54" class="edge"><title>Node12&#45;&gt;Node16</title>
<path fill="none" stroke="midnightblue" d="M383.259,-174.362C399.466,-165.409 422.853,-152.491 441.109,-142.406"/>
<polygon fill="midnightblue" stroke="midnightblue" points="442.802,-145.47 449.863,-137.571 439.418,-139.342 442.802,-145.47"/>
</g>
<!-- Node14&#45;&gt;Node8 -->
<g id="edge42" class="edge"><title>Node14&#45;&gt;Node8</title>
<path fill="none" stroke="midnightblue" d="M698.804,-58.3619C705.502,-50.2678 714.884,-38.9318 722.789,-29.3796"/>
<polygon fill="midnightblue" stroke="midnightblue" points="725.573,-31.5061 729.252,-21.5707 720.18,-27.0431 725.573,-31.5061"/>
</g>
<!-- Node15&#45;&gt;Node7 -->
<g id="edge50" class="edge"><title>Node15&#45;&gt;Node7</title>
<path fill="none" stroke="midnightblue" d="M985.639,-116.269C1002.21,-100.33 1035.94,-70.8951 1071,-58 1168.01,-22.3184 1482.74,-13.6152 1600.23,-11.5873"/>
<polygon fill="midnightblue" stroke="midnightblue" points="1600.37,-15.0855 1610.32,-11.4214 1600.26,-8.08643 1600.37,-15.0855"/>
</g>
<!-- Node15&#45;&gt;Node8 -->
<g id="edge46" class="edge"><title>Node15&#45;&gt;Node8</title>
<path fill="none" stroke="midnightblue" d="M953.128,-116.295C910.693,-95.525 817.105,-49.7182 768.557,-25.9562"/>
<polygon fill="midnightblue" stroke="midnightblue" points="769.997,-22.7642 759.476,-21.5117 766.92,-29.0515 769.997,-22.7642"/>
</g>
<!-- Node15&#45;&gt;Node11 -->
<g id="edge48" class="edge"><title>Node15&#45;&gt;Node11</title>
<path fill="none" stroke="midnightblue" d="M1019.67,-117.681C1076.43,-105.838 1172.95,-85.7015 1222.16,-75.4341"/>
<polygon fill="midnightblue" stroke="midnightblue" points="1223.12,-78.8092 1232.2,-73.3405 1221.69,-71.9567 1223.12,-78.8092"/>
</g>
<!-- Node15&#45;&gt;Node14 -->
<g id="edge52" class="edge"><title>Node15&#45;&gt;Node14</title>
<path fill="none" stroke="midnightblue" d="M930.469,-117.938C878.698,-107.402 793.49,-90.061 739.633,-79.1008"/>
<polygon fill="midnightblue" stroke="midnightblue" points="740.125,-75.6292 729.628,-77.0647 738.729,-82.4886 740.125,-75.6292"/>
</g>
<!-- Node16&#45;&gt;Node8 -->
<g id="edge56" class="edge"><title>Node16&#45;&gt;Node8</title>
<path fill="none" stroke="midnightblue" d="M493.825,-116.295C542.29,-95.3952 649.544,-49.1446 704.344,-25.5132"/>
<polygon fill="midnightblue" stroke="midnightblue" points="705.827,-28.6854 713.624,-21.5117 703.055,-22.2576 705.827,-28.6854"/>
</g>
<!-- Node16&#45;&gt;Node14 -->
<g id="edge58" class="edge"><title>Node16&#45;&gt;Node14</title>
<path fill="none" stroke="midnightblue" d="M509.021,-116.497C545.945,-106.806 600.887,-92.387 640.544,-81.9795"/>
<polygon fill="midnightblue" stroke="midnightblue" points="641.492,-85.3491 650.276,-79.4252 639.715,-78.5784 641.492,-85.3491"/>
</g>
<!-- Node17&#45;&gt;Node8 -->
<g id="edge62" class="edge"><title>Node17&#45;&gt;Node8</title>
<path fill="none" stroke="midnightblue" d="M613.25,-175.139C717.141,-162.922 879.537,-143.091 884,-138 890.446,-130.648 888.538,-124.661 884,-116 870.954,-91.1015 854.888,-96.3181 832,-80 807.271,-62.3688 779.243,-41.7057 760.276,-27.6194"/>
<polygon fill="midnightblue" stroke="midnightblue" points="762.356,-24.8044 752.243,-21.6446 758.178,-30.4211 762.356,-24.8044"/>
</g>
<!-- Node17&#45;&gt;Node14 -->
<g id="edge64" class="edge"><title>Node17&#45;&gt;Node14</title>
<path fill="none" stroke="midnightblue" d="M538.141,-174.326C552.108,-159.982 578.448,-134.19 604,-116 620.917,-103.957 641.251,-92.7143 657.898,-84.2462"/>
<polygon fill="midnightblue" stroke="midnightblue" points="659.834,-87.1918 667.22,-79.5958 656.709,-80.9279 659.834,-87.1918"/>
</g>
<!-- Node17&#45;&gt;Node16 -->
<g id="edge66" class="edge"><title>Node17&#45;&gt;Node16</title>
<path fill="none" stroke="midnightblue" d="M517.178,-174.362C508.779,-166.104 496.946,-154.472 487.11,-144.803"/>
<polygon fill="midnightblue" stroke="midnightblue" points="489.338,-142.085 479.753,-137.571 484.431,-147.077 489.338,-142.085"/>
</g>
<!-- Node18&#45;&gt;Node7 -->
<g id="edge72" class="edge"><title>Node18&#45;&gt;Node7</title>
<path fill="none" stroke="midnightblue" d="M1546.65,-240.953C1613.99,-237.125 1723.76,-226.291 1749,-196 1788.26,-148.877 1782.26,-109.531 1749,-58 1735.82,-37.5727 1711.38,-25.9297 1689.5,-19.3431"/>
<polygon fill="midnightblue" stroke="midnightblue" points="1690.25,-15.9193 1679.68,-16.6592 1688.4,-22.6717 1690.25,-15.9193"/>
</g>
<!-- Node18&#45;&gt;Node10 -->
<g id="edge76" class="edge"><title>Node18&#45;&gt;Node10</title>
<path fill="none" stroke="midnightblue" d="M1511.16,-232.362C1526.23,-223.532 1547.89,-210.844 1564.99,-200.822"/>
<polygon fill="midnightblue" stroke="midnightblue" points="1567.1,-203.646 1573.96,-195.571 1563.56,-197.606 1567.1,-203.646"/>
</g>
<!-- Node18&#45;&gt;Node11 -->
<g id="edge70" class="edge"><title>Node18&#45;&gt;Node11</title>
<path fill="none" stroke="midnightblue" d="M1491.32,-232.113C1488.61,-217.529 1482.06,-191.466 1468,-174 1420.28,-114.745 1330.8,-86.5324 1283.73,-75.2741"/>
<polygon fill="midnightblue" stroke="midnightblue" points="1284.35,-71.8242 1273.82,-73.0045 1282.78,-78.6477 1284.35,-71.8242"/>
</g>
<!-- Node18&#45;&gt;Node12 -->
<g id="edge74" class="edge"><title>Node18&#45;&gt;Node12</title>
<path fill="none" stroke="midnightblue" d="M1439.3,-241.41C1255.5,-235.848 651.501,-216.527 435.043,-195.98"/>
<polygon fill="midnightblue" stroke="midnightblue" points="435.325,-192.491 425.032,-195.001 434.643,-199.458 435.325,-192.491"/>
</g>
<!-- Node19 -->
<g id="node58" class="node"><title>Node19</title>
<a xlink:href="cv___super_effect_8h.html" target="_top" xlink:title="../Datatypes/cv_SuperEffect.h">
<polygon fill="white" stroke="black" points="717,-116.5 717,-137.5 875,-137.5 875,-116.5 717,-116.5"/>
<text text-anchor="middle" x="796" y="-124.5" font-family="DejaVuSans" font-size="10.00">../Datatypes/cv_SuperEffect.h</text>
</a>
</g>
<!-- Node18&#45;&gt;Node19 -->
<g id="edge78" class="edge"><title>Node18&#45;&gt;Node19</title>
<path fill="none" stroke="midnightblue" d="M1439.23,-240.643C1268.33,-233.026 748.054,-208.826 736,-196 719.3,-178.231 744.244,-156.943 766.869,-142.757"/>
<polygon fill="midnightblue" stroke="midnightblue" points="768.864,-145.642 775.653,-137.508 765.274,-139.633 768.864,-145.642"/>
</g>
<!-- Node18&#45;&gt;Node20 -->
<g id="edge82" class="edge"><title>Node18&#45;&gt;Node20</title>
<path fill="none" stroke="midnightblue" d="M1481.81,-232.362C1473.04,-224.023 1460.65,-212.242 1450.42,-202.516"/>
<polygon fill="midnightblue" stroke="midnightblue" points="1452.78,-199.925 1443.12,-195.571 1447.95,-204.998 1452.78,-199.925"/>
</g>
<!-- Node19&#45;&gt;Node14 -->
<g id="edge80" class="edge"><title>Node19&#45;&gt;Node14</title>
<path fill="none" stroke="midnightblue" d="M776.558,-116.362C760.196,-107.409 736.587,-94.4908 718.157,-84.4064"/>
<polygon fill="midnightblue" stroke="midnightblue" points="719.771,-81.3004 709.319,-79.5707 716.411,-87.4412 719.771,-81.3004"/>
</g>
<!-- Node21&#45;&gt;Node7 -->
<g id="edge92" class="edge"><title>Node21&#45;&gt;Node7</title>
<path fill="none" stroke="midnightblue" d="M1140.61,-241.386C1258.64,-235.406 1657.74,-213.933 1678,-196 1725.52,-153.94 1681.77,-68.9891 1658.02,-30.6097"/>
<polygon fill="midnightblue" stroke="midnightblue" points="1660.8,-28.4644 1652.48,-21.91 1654.9,-32.2248 1660.8,-28.4644"/>
</g>
<!-- Node22 -->
<g id="node69" class="node"><title>Node22</title>
<polygon fill="white" stroke="#bfbfbf" points="983,-174.5 983,-195.5 1065,-195.5 1065,-174.5 983,-174.5"/>
<text text-anchor="middle" x="1024" y="-182.5" font-family="DejaVuSans" font-size="10.00">QHBoxLayout</text>
</g>
<!-- Node21&#45;&gt;Node22 -->
<g id="edge94" class="edge"><title>Node21&#45;&gt;Node22</title>
<path fill="none" stroke="midnightblue" d="M1092.59,-232.362C1080.04,-223.696 1062.11,-211.313 1047.73,-201.382"/>
<polygon fill="midnightblue" stroke="midnightblue" points="1049.53,-198.372 1039.31,-195.571 1045.55,-204.133 1049.53,-198.372"/>
</g>
<!-- Node23 -->
<g id="node71" class="node"><title>Node23</title>
<polygon fill="white" stroke="#bfbfbf" points="1083,-174.5 1083,-195.5 1133,-195.5 1133,-174.5 1083,-174.5"/>
<text text-anchor="middle" x="1108" y="-182.5" font-family="DejaVuSans" font-size="10.00">QLabel</text>
</g>
<!-- Node21&#45;&gt;Node23 -->
<g id="edge96" class="edge"><title>Node21&#45;&gt;Node23</title>
<path fill="none" stroke="midnightblue" d="M1108,-232.362C1108,-224.922 1108,-214.743 1108,-205.728"/>
<polygon fill="midnightblue" stroke="midnightblue" points="1111.5,-205.571 1108,-195.571 1104.5,-205.571 1111.5,-205.571"/>
</g>
<!-- Node24 -->
<g id="node73" class="node"><title>Node24</title>
<polygon fill="white" stroke="#bfbfbf" points="1151,-174.5 1151,-195.5 1231,-195.5 1231,-174.5 1151,-174.5"/>
<text text-anchor="middle" x="1191" y="-182.5" font-family="DejaVuSans" font-size="10.00">QPushButton</text>
</g>
<!-- Node21&#45;&gt;Node24 -->
<g id="edge98" class="edge"><title>Node21&#45;&gt;Node24</title>
<path fill="none" stroke="midnightblue" d="M1123.22,-232.362C1135.63,-223.696 1153.35,-211.313 1167.56,-201.382"/>
<polygon fill="midnightblue" stroke="midnightblue" points="1169.68,-204.168 1175.87,-195.571 1165.67,-198.43 1169.68,-204.168"/>
</g>
<!-- Node25 -->
<g id="node75" class="node"><title>Node25</title>
<polygon fill="white" stroke="#bfbfbf" points="1249,-174.5 1249,-195.5 1311,-195.5 1311,-174.5 1249,-174.5"/>
<text text-anchor="middle" x="1280" y="-182.5" font-family="DejaVuSans" font-size="10.00">QLineEdit</text>
</g>
<!-- Node21&#45;&gt;Node25 -->
<g id="edge100" class="edge"><title>Node21&#45;&gt;Node25</title>
<path fill="none" stroke="midnightblue" d="M1139.15,-232.497C1167.19,-223.041 1208.58,-209.083 1239.25,-198.743"/>
<polygon fill="midnightblue" stroke="midnightblue" points="1240.44,-202.035 1248.79,-195.523 1238.2,-195.402 1240.44,-202.035"/>
</g>
<!-- Node26 -->
<g id="node77" class="node"><title>Node26</title>
<a xlink:href="_trait_dots_8h.html" target="_top" xlink:title="TraitDots.h">
<polygon fill="white" stroke="black" points="859,-174.5 859,-195.5 927,-195.5 927,-174.5 859,-174.5"/>
<text text-anchor="middle" x="893" y="-182.5" font-family="DejaVuSans" font-size="10.00">TraitDots.h</text>
</a>
</g>
<!-- Node21&#45;&gt;Node26 -->
<g id="edge102" class="edge"><title>Node21&#45;&gt;Node26</title>
<path fill="none" stroke="midnightblue" d="M1075.35,-234.191C1038.34,-224.208 977.84,-207.887 936.768,-196.807"/>
<polygon fill="midnightblue" stroke="midnightblue" points="937.595,-193.405 927.028,-194.18 935.772,-200.164 937.595,-193.405"/>
</g>
<!-- Node29 -->
<g id="node84" class="node"><title>Node29</title>
<polygon fill="white" stroke="#bfbfbf" points="1311,-116.5 1311,-137.5 1367,-137.5 1367,-116.5 1311,-116.5"/>
<text text-anchor="middle" x="1339" y="-124.5" font-family="DejaVuSans" font-size="10.00">QWidget</text>
</g>
<!-- Node21&#45;&gt;Node29 -->
<g id="edge122" class="edge"><title>Node21&#45;&gt;Node29</title>
<path fill="none" stroke="midnightblue" d="M1140.76,-239.844C1193.65,-234.096 1294.52,-220.222 1320,-196 1333.04,-183.6 1337.41,-163.143 1338.74,-147.716"/>
<polygon fill="midnightblue" stroke="midnightblue" points="1342.25,-147.723 1339.26,-137.559 1335.25,-147.369 1342.25,-147.723"/>
</g>
<!-- Node30 -->
<g id="node86" class="node"><title>Node30</title>
<a xlink:href="_trait_specialties_8h.html" target="_top" xlink:title="TraitSpecialties.h">
<polygon fill="white" stroke="black" points="744.5,-174.5 744.5,-195.5 841.5,-195.5 841.5,-174.5 744.5,-174.5"/>
<text text-anchor="middle" x="793" y="-182.5" font-family="DejaVuSans" font-size="10.00">TraitSpecialties.h</text>
</a>
</g>
<!-- Node21&#45;&gt;Node30 -->
<g id="edge112" class="edge"><title>Node21&#45;&gt;Node30</title>
<path fill="none" stroke="midnightblue" d="M1075.4,-237.173C1028.25,-228.722 938.014,-212.458 851.488,-196.267"/>
<polygon fill="midnightblue" stroke="midnightblue" points="851.977,-192.798 841.503,-194.396 850.688,-199.678 851.977,-192.798"/>
</g>
<!-- Node26&#45;&gt;Node11 -->
<g id="edge106" class="edge"><title>Node26&#45;&gt;Node11</title>
<path fill="none" stroke="midnightblue" d="M927,-176.753C931.688,-175.749 936.453,-174.798 941,-174 1005.61,-162.658 1184.34,-180.869 1234,-138 1247.7,-126.174 1251.96,-105.47 1253.09,-89.8177"/>
<polygon fill="midnightblue" stroke="midnightblue" points="1256.6,-89.6282 1253.45,-79.5127 1249.6,-89.385 1256.6,-89.6282"/>
</g>
<!-- Node27 -->
<g id="node79" class="node"><title>Node27</title>
<polygon fill="white" stroke="#bfbfbf" points="612.5,-116.5 612.5,-137.5 661.5,-137.5 661.5,-116.5 612.5,-116.5"/>
<text text-anchor="middle" x="637" y="-124.5" font-family="DejaVuSans" font-size="10.00">QColor</text>
</g>
<!-- Node26&#45;&gt;Node27 -->
<g id="edge104" class="edge"><title>Node26&#45;&gt;Node27</title>
<path fill="none" stroke="midnightblue" d="M858.758,-176.131C855.799,-175.398 852.848,-174.678 850,-174 787.343,-159.077 713.921,-143.237 671.697,-134.285"/>
<polygon fill="midnightblue" stroke="midnightblue" points="672.167,-130.808 661.659,-132.163 670.719,-137.656 672.167,-130.808"/>
</g>
<!-- Node28 -->
<g id="node82" class="node"><title>Node28</title>
<polygon fill="white" stroke="#bfbfbf" points="1174.5,-116.5 1174.5,-137.5 1225.5,-137.5 1225.5,-116.5 1174.5,-116.5"/>
<text text-anchor="middle" x="1200" y="-124.5" font-family="DejaVuSans" font-size="10.00">QEvent</text>
</g>
<!-- Node26&#45;&gt;Node28 -->
<g id="edge108" class="edge"><title>Node26&#45;&gt;Node28</title>
<path fill="none" stroke="midnightblue" d="M927.029,-176.907C931.712,-175.879 936.468,-174.881 941,-174 1037.31,-155.282 1065.76,-161.247 1164.36,-138.152"/>
<polygon fill="midnightblue" stroke="midnightblue" points="1165.21,-141.548 1174.13,-135.825 1163.59,-134.739 1165.21,-141.548"/>
</g>
<!-- Node26&#45;&gt;Node29 -->
<g id="edge110" class="edge"><title>Node26&#45;&gt;Node29</title>
<path fill="none" stroke="midnightblue" d="M927.252,-176.645C931.857,-175.67 936.532,-174.756 941,-174 1084.73,-149.679 1122.48,-157.012 1267,-138 1277.93,-136.563 1289.76,-134.829 1300.61,-133.168"/>
<polygon fill="midnightblue" stroke="midnightblue" points="1301.31,-136.601 1310.66,-131.609 1300.24,-129.684 1301.31,-136.601"/>
</g>
<!-- Node30&#45;&gt;Node8 -->
<g id="edge114" class="edge"><title>Node30&#45;&gt;Node8</title>
<path fill="none" stroke="midnightblue" d="M841.5,-175.496C910.088,-162.028 1027.25,-138.91 1028,-138 1034.2,-130.438 1033.59,-124.023 1028,-116 998.171,-73.1814 845.651,-34.6966 774.561,-18.7683"/>
<polygon fill="midnightblue" stroke="midnightblue" points="775.207,-15.3268 764.687,-16.5841 773.695,-22.1615 775.207,-15.3268"/>
</g>
<!-- Node30&#45;&gt;Node15 -->
<g id="edge116" class="edge"><title>Node30&#45;&gt;Node15</title>
<path fill="none" stroke="midnightblue" d="M825.959,-174.497C855.758,-165 899.809,-150.962 932.297,-140.609"/>
<polygon fill="midnightblue" stroke="midnightblue" points="933.514,-143.894 941.979,-137.523 931.389,-137.225 933.514,-143.894"/>
</g>
<!-- Node31 -->
<g id="node90" class="node"><title>Node31</title>
<a xlink:href="_checked_list_8h.html" target="_top" xlink:title="CheckedList.h">
<polygon fill="white" stroke="black" points="1074.5,-116.5 1074.5,-137.5 1157.5,-137.5 1157.5,-116.5 1074.5,-116.5"/>
<text text-anchor="middle" x="1116" y="-124.5" font-family="DejaVuSans" font-size="10.00">CheckedList.h</text>
</a>
</g>
<!-- Node30&#45;&gt;Node31 -->
<g id="edge118" class="edge"><title>Node30&#45;&gt;Node31</title>
<path fill="none" stroke="midnightblue" d="M841.805,-175.51C844.576,-174.993 847.323,-174.487 850,-174 943.599,-156.986 967.459,-155.33 1061,-138 1062.08,-137.8 1063.17,-137.597 1064.26,-137.391"/>
<polygon fill="midnightblue" stroke="midnightblue" points="1065.12,-140.791 1074.28,-135.473 1063.8,-133.916 1065.12,-140.791"/>
</g>
<!-- Node32 -->
<g id="node92" class="node"><title>Node32</title>
<polygon fill="white" stroke="#bfbfbf" points="1079.5,-58.5 1079.5,-79.5 1152.5,-79.5 1152.5,-58.5 1079.5,-58.5"/>
<text text-anchor="middle" x="1116" y="-66.5" font-family="DejaVuSans" font-size="10.00">QListWidget</text>
</g>
<!-- Node31&#45;&gt;Node32 -->
<g id="edge120" class="edge"><title>Node31&#45;&gt;Node32</title>
<path fill="none" stroke="midnightblue" d="M1116,-116.362C1116,-108.922 1116,-98.7427 1116,-89.7276"/>
<polygon fill="midnightblue" stroke="midnightblue" points="1119.5,-89.5706 1116,-79.5707 1112.5,-89.5707 1119.5,-89.5706"/>
</g>
<!-- Node33&#45;&gt;Node6 -->
<g id="edge136" class="edge"><title>Node33&#45;&gt;Node6</title>
<path fill="none" stroke="midnightblue" d="M336.154,-242.091C483.103,-239.501 825.404,-229.911 936,-196 954.658,-190.279 955.351,-179.75 974,-174 1026.23,-157.893 1374.97,-138.812 1534.1,-130.82"/>
<polygon fill="midnightblue" stroke="midnightblue" points="1534.49,-134.305 1544.3,-130.31 1534.14,-127.314 1534.49,-134.305"/>
</g>
<!-- Node33&#45;&gt;Node8 -->
<g id="edge128" class="edge"><title>Node33&#45;&gt;Node8</title>
<path fill="none" stroke="midnightblue" d="M260.267,-232.156C238.899,-200.775 183.608,-108.882 230,-58 261.651,-23.2856 589.737,-13.8296 701.188,-11.6089"/>
<polygon fill="midnightblue" stroke="midnightblue" points="701.348,-15.1065 711.28,-11.4159 701.215,-8.10781 701.348,-15.1065"/>
</g>
<!-- Node33&#45;&gt;Node12 -->
<g id="edge130" class="edge"><title>Node33&#45;&gt;Node12</title>
<path fill="none" stroke="midnightblue" d="M285.608,-232.362C300.223,-223.532 321.224,-210.844 337.811,-200.822"/>
<polygon fill="midnightblue" stroke="midnightblue" points="339.754,-203.738 346.504,-195.571 336.135,-197.746 339.754,-203.738"/>
</g>
<!-- Node34 -->
<g id="node100" class="node"><title>Node34</title>
<a xlink:href="cv___shape_8h.html" target="_top" xlink:title="../Datatypes/cv_Shape.h">
<polygon fill="white" stroke="black" points="239,-58.5 239,-79.5 373,-79.5 373,-58.5 239,-58.5"/>
<text text-anchor="middle" x="306" y="-66.5" font-family="DejaVuSans" font-size="10.00">../Datatypes/cv_Shape.h</text>
</a>
</g>
<!-- Node33&#45;&gt;Node34 -->
<g id="edge132" class="edge"><title>Node33&#45;&gt;Node34</title>
<path fill="none" stroke="midnightblue" d="M266.458,-232.435C263.627,-210.19 259.089,-157.183 273,-116 276.505,-105.624 283.077,-95.4995 289.44,-87.3206"/>
<polygon fill="midnightblue" stroke="midnightblue" points="292.174,-89.5067 295.857,-79.5727 286.783,-85.0417 292.174,-89.5067"/>
</g>
<!-- Node33&#45;&gt;Node35 -->
<g id="edge138" class="edge"><title>Node33&#45;&gt;Node35</title>
<path fill="none" stroke="midnightblue" d="M243.734,-232.497C222.522,-223.315 191.502,-209.889 167.85,-199.652"/>
<polygon fill="midnightblue" stroke="midnightblue" points="169.106,-196.381 158.539,-195.621 166.326,-202.806 169.106,-196.381"/>
</g>
<!-- Node34&#45;&gt;Node8 -->
<g id="edge134" class="edge"><title>Node34&#45;&gt;Node8</title>
<path fill="none" stroke="midnightblue" d="M373.182,-59.8667C377.858,-59.234 382.499,-58.6069 387,-58 501.568,-42.5502 637.197,-24.4401 701.14,-15.9127"/>
<polygon fill="midnightblue" stroke="midnightblue" points="701.687,-19.3708 711.136,-14.5797 700.761,-12.4322 701.687,-19.3708"/>
</g>
<!-- Node35&#45;&gt;Node8 -->
<g id="edge140" class="edge"><title>Node35&#45;&gt;Node8</title>
<path fill="none" stroke="midnightblue" d="M138.516,-174.462C151.108,-145.308 186.375,-65.2452 197,-58 238.543,-29.6713 586.563,-15.9176 701.398,-12.1205"/>
<polygon fill="midnightblue" stroke="midnightblue" points="701.574,-15.6167 711.455,-11.7938 701.347,-8.6204 701.574,-15.6167"/>
</g>
<!-- Node35&#45;&gt;Node27 -->
<g id="edge142" class="edge"><title>Node35&#45;&gt;Node27</title>
<path fill="none" stroke="midnightblue" d="M183.146,-179.333C284.578,-167.637 514.922,-141.077 602.412,-130.988"/>
<polygon fill="midnightblue" stroke="midnightblue" points="602.821,-134.464 612.355,-129.842 602.02,-127.51 602.821,-134.464"/>
</g>
<!-- Node36 -->
<g id="node108" class="node"><title>Node36</title>
<polygon fill="white" stroke="#bfbfbf" points="100.5,-116.5 100.5,-137.5 145.5,-137.5 145.5,-116.5 100.5,-116.5"/>
<text text-anchor="middle" x="123" y="-124.5" font-family="DejaVuSans" font-size="10.00">QFont</text>
</g>
<!-- Node35&#45;&gt;Node36 -->
<g id="edge144" class="edge"><title>Node35&#45;&gt;Node36</title>
<path fill="none" stroke="midnightblue" d="M131.982,-174.362C130.556,-166.84 128.598,-156.519 126.875,-147.431"/>
<polygon fill="midnightblue" stroke="midnightblue" points="130.307,-146.743 125.005,-137.571 123.429,-148.048 130.307,-146.743"/>
</g>
<!-- Node37&#45;&gt;Node5 -->
<g id="edge156" class="edge"><title>Node37&#45;&gt;Node5</title>
<path fill="none" stroke="midnightblue" d="M1313.53,-348.497C1335.95,-339.275 1368.78,-325.769 1393.71,-315.515"/>
<polygon fill="midnightblue" stroke="midnightblue" points="1395.26,-318.662 1403.18,-311.621 1392.6,-312.189 1395.26,-318.662"/>
</g>
<!-- Node37&#45;&gt;Node15 -->
<g id="edge152" class="edge"><title>Node37&#45;&gt;Node15</title>
<path fill="none" stroke="midnightblue" d="M1249.5,-353.609C1134.77,-336.683 799.261,-280.641 736,-196 730.146,-188.168 729.789,-181.552 736,-174 741.877,-166.855 851.423,-147.512 920.144,-135.99"/>
<polygon fill="midnightblue" stroke="midnightblue" points="921.098,-139.379 930.385,-134.28 919.945,-132.474 921.098,-139.379"/>
</g>
<!-- Node37&#45;&gt;Node18 -->
<g id="edge154" class="edge"><title>Node37&#45;&gt;Node18</title>
<path fill="none" stroke="midnightblue" d="M1326.72,-356.831C1385.84,-352.619 1494.29,-341.046 1518,-312 1529.85,-297.479 1519.83,-276.858 1509.15,-261.946"/>
<polygon fill="midnightblue" stroke="midnightblue" points="1511.83,-259.692 1502.95,-253.914 1506.29,-263.969 1511.83,-259.692"/>
</g>
<!-- Node37&#45;&gt;Node29 -->
<g id="edge158" class="edge"><title>Node37&#45;&gt;Node29</title>
<path fill="none" stroke="midnightblue" d="M1292.73,-348.216C1303.73,-322.499 1330.77,-255.288 1340,-196 1342.48,-180.093 1342.08,-161.874 1341.14,-148.153"/>
<polygon fill="midnightblue" stroke="midnightblue" points="1344.6,-147.508 1340.28,-137.835 1337.62,-148.092 1344.6,-147.508"/>
</g>
<!-- Node38 -->
<g id="node113" class="node"><title>Node38</title>
<polygon fill="white" stroke="#bfbfbf" points="1217,-290.5 1217,-311.5 1293,-311.5 1293,-290.5 1217,-290.5"/>
<text text-anchor="middle" x="1255" y="-298.5" font-family="DejaVuSans" font-size="10.00">QGridLayout</text>
</g>
<!-- Node37&#45;&gt;Node38 -->
<g id="edge150" class="edge"><title>Node37&#45;&gt;Node38</title>
<path fill="none" stroke="midnightblue" d="M1281.95,-348.362C1277.53,-340.595 1271.41,-329.843 1266.12,-320.546"/>
<polygon fill="midnightblue" stroke="midnightblue" points="1269,-318.531 1261.01,-311.571 1262.92,-321.993 1269,-318.531"/>
</g>
</g>
</svg>
