<?xml version="1.0" encoding="UTF-8" standalone="no"?>
<!DOCTYPE svg PUBLIC "-//W3C//DTD SVG 1.1//EN"
 "http://www.w3.org/Graphics/SVG/1.1/DTD/svg11.dtd">
<!-- Generated by graphviz version 2.26.3 (20100126.1600)
 -->
<!-- Title: G Pages: 1 -->
<svg width="570pt" height="204pt"
 viewBox="0.00 0.00 570.00 204.00" xmlns="http://www.w3.org/2000/svg" xmlns:xlink="http://www.w3.org/1999/xlink">
<g id="graph1" class="graph" transform="scale(1 1) rotate(0) translate(4 200)">
<title>G</title>
<polygon fill="white" stroke="white" points="-4,5 -4,-200 567,-200 567,5 -4,5"/>
<!-- Node1 -->
<g id="node1" class="node"><title>Node1</title>
<polygon fill="#bfbfbf" stroke="black" points="163,-174.5 163,-195.5 329,-195.5 329,-174.5 163,-174.5"/>
<text text-anchor="middle" x="246" y="-182.5" font-family="DejaVuSans" font-size="10.00">src/Storage/StorageTemplate.h</text>
</g>
<!-- Node2 -->
<g id="node3" class="node"><title>Node2</title>
<a xlink:href="_main_window_8h.html" target="_top" xlink:title="src/MainWindow.h">
<polygon fill="white" stroke="black" points="6,-58.5 6,-79.5 106,-79.5 106,-58.5 6,-58.5"/>
<text text-anchor="middle" x="56" y="-66.5" font-family="DejaVuSans" font-size="10.00">src/MainWindow.h</text>
</a>
</g>
<!-- Node1&#45;&gt;Node2 -->
<g id="edge2" class="edge"><title>Node1&#45;&gt;Node2</title>
<path fill="none" stroke="midnightblue" d="M193.824,-171.554C170.068,-163.966 142.337,-152.956 120,-138 95.6979,-121.728 74.0907,-94.477 63.2913,-79.5557"/>
<polygon fill="midnightblue" stroke="midnightblue" points="192.805,-174.902 203.392,-174.497 194.863,-168.212 192.805,-174.902"/>
</g>
<!-- Node4 -->
<g id="node7" class="node"><title>Node4</title>
<a xlink:href="_main_window_8cpp.html" target="_top" xlink:title="src/MainWindow.cpp">
<polygon fill="white" stroke="black" points="95.5,-0.5 95.5,-21.5 206.5,-21.5 206.5,-0.5 95.5,-0.5"/>
<text text-anchor="middle" x="151" y="-8.5" font-family="DejaVuSans" font-size="10.00">src/MainWindow.cpp</text>
</a>
</g>
<!-- Node1&#45;&gt;Node4 -->
<g id="edge16" class="edge"><title>Node1&#45;&gt;Node4</title>
<path fill="none" stroke="midnightblue" d="M194.106,-170.52C178.177,-163.396 162.388,-152.997 153,-138 129.716,-100.804 141.423,-44.6949 147.79,-21.5526"/>
<polygon fill="midnightblue" stroke="midnightblue" points="192.873,-173.797 203.453,-174.346 195.525,-167.318 192.873,-173.797"/>
</g>
<!-- Node5 -->
<g id="node9" class="node"><title>Node5</title>
<a xlink:href="_storage_character_8h.html" target="_top" xlink:title="src/Storage/StorageCharacter.h">
<polygon fill="white" stroke="black" points="161.5,-116.5 161.5,-137.5 330.5,-137.5 330.5,-116.5 161.5,-116.5"/>
<text text-anchor="middle" x="246" y="-124.5" font-family="DejaVuSans" font-size="10.00">src/Storage/StorageCharacter.h</text>
</a>
</g>
<!-- Node1&#45;&gt;Node5 -->
<g id="edge8" class="edge"><title>Node1&#45;&gt;Node5</title>
<path fill="none" stroke="midnightblue" d="M246,-164.191C246,-155.168 246,-144.994 246,-137.571"/>
<polygon fill="midnightblue" stroke="midnightblue" points="242.5,-164.362 246,-174.362 249.5,-164.362 242.5,-164.362"/>
</g>
<!-- Node6 -->
<g id="node13" class="node"><title>Node6</title>
<a xlink:href="_storage_character_8cpp.html" target="_top" xlink:title="src/Storage/StorageCharacter.cpp">
<polygon fill="white" stroke="black" points="251,-58.5 251,-79.5 431,-79.5 431,-58.5 251,-58.5"/>
<text text-anchor="middle" x="341" y="-66.5" font-family="DejaVuSans" font-size="10.00">src/Storage/StorageCharacter.cpp</text>
</a>
</g>
<!-- Node1&#45;&gt;Node6 -->
<g id="edge18" class="edge"><title>Node1&#45;&gt;Node6</title>
<path fill="none" stroke="midnightblue" d="M297.372,-170.63C313.43,-163.496 329.432,-153.063 339,-138 350.309,-120.196 347.014,-94.2593 343.849,-79.7874"/>
<polygon fill="midnightblue" stroke="midnightblue" points="295.903,-167.449 287.96,-174.46 298.542,-173.933 295.903,-167.449"/>
</g>
<!-- Node7 -->
<g id="node17" class="node"><title>Node7</title>
<a xlink:href="_storage_template_8cpp.html" target="_top" xlink:title="src/Storage/StorageTemplate.cpp">
<polygon fill="white" stroke="black" points="385.5,-116.5 385.5,-137.5 562.5,-137.5 562.5,-116.5 385.5,-116.5"/>
<text text-anchor="middle" x="474" y="-124.5" font-family="DejaVuSans" font-size="10.00">src/Storage/StorageTemplate.cpp</text>
</a>
</g>
<!-- Node1&#45;&gt;Node7 -->
<g id="edge20" class="edge"><title>Node1&#45;&gt;Node7</title>
<path fill="none" stroke="midnightblue" d="M297.061,-172.011C337.943,-161.611 394.553,-147.21 432.633,-137.523"/>
<polygon fill="midnightblue" stroke="midnightblue" points="296.118,-168.639 287.289,-174.497 297.843,-175.423 296.118,-168.639"/>
</g>
<!-- Node3 -->
<g id="node5" class="node"><title>Node3</title>
<a xlink:href="main_8cpp.html" target="_top" xlink:title="src/main.cpp">
<polygon fill="white" stroke="black" points="0,-0.5 0,-21.5 78,-21.5 78,-0.5 0,-0.5"/>
<text text-anchor="middle" x="39" y="-8.5" font-family="DejaVuSans" font-size="10.00">src/main.cpp</text>
</a>
</g>
<!-- Node2&#45;&gt;Node3 -->
<g id="edge4" class="edge"><title>Node2&#45;&gt;Node3</title>
<path fill="none" stroke="midnightblue" d="M49.9877,-48.4876C47.3219,-39.3924 44.298,-29.0756 42.0983,-21.5707"/>
<polygon fill="midnightblue" stroke="midnightblue" points="46.7105,-49.7501 52.8819,-58.3619 53.4279,-47.7811 46.7105,-49.7501"/>
</g>
<!-- Node2&#45;&gt;Node4 -->
<g id="edge6" class="edge"><title>Node2&#45;&gt;Node4</title>
<path fill="none" stroke="midnightblue" d="M82.0416,-53.1009C98.4784,-43.0658 119.256,-30.3808 133.686,-21.5707"/>
<polygon fill="midnightblue" stroke="midnightblue" points="80.1357,-50.1637 73.4245,-58.3619 83.7833,-56.1383 80.1357,-50.1637"/>
</g>
<!-- Node5&#45;&gt;Node2 -->
<g id="edge10" class="edge"><title>Node5&#45;&gt;Node2</title>
<path fill="none" stroke="midnightblue" d="M201.928,-113.546C167.988,-103.186 121.736,-89.0668 90.4721,-79.5231"/>
<polygon fill="midnightblue" stroke="midnightblue" points="201.006,-116.924 211.592,-116.497 203.05,-110.229 201.006,-116.924"/>
</g>
<!-- Node5&#45;&gt;Node4 -->
<g id="edge12" class="edge"><title>Node5&#45;&gt;Node4</title>
<path fill="none" stroke="midnightblue" d="M230.787,-108.424C210.68,-83.8721 175.919,-41.4272 159.746,-21.6792"/>
<polygon fill="midnightblue" stroke="midnightblue" points="228.189,-110.776 237.233,-116.295 233.605,-106.341 228.189,-110.776"/>
</g>
<!-- Node5&#45;&gt;Node6 -->
<g id="edge14" class="edge"><title>Node5&#45;&gt;Node6</title>
<path fill="none" stroke="midnightblue" d="M272.042,-111.101C288.478,-101.066 309.256,-88.3808 323.686,-79.5707"/>
<polygon fill="midnightblue" stroke="midnightblue" points="270.136,-108.164 263.424,-116.362 273.783,-114.138 270.136,-108.164"/>
</g>
</g>
</svg>
