<?xml version="1.0" encoding="UTF-8" standalone="no"?>
<!DOCTYPE svg PUBLIC "-//W3C//DTD SVG 1.1//EN"
 "http://www.w3.org/Graphics/SVG/1.1/DTD/svg11.dtd">
<!-- Generated by graphviz version 2.26.3 (20100126.1600)
 -->
<!-- Title: G Pages: 1 -->
<svg width="270pt" height="88pt"
 viewBox="0.00 0.00 270.00 88.00" xmlns="http://www.w3.org/2000/svg" xmlns:xlink="http://www.w3.org/1999/xlink">
<g id="graph1" class="graph" transform="scale(1 1) rotate(0) translate(4 84)">
<title>G</title>
<polygon fill="white" stroke="white" points="-4,5 -4,-84 267,-84 267,5 -4,5"/>
<!-- Node1 -->
<g id="node1" class="node"><title>Node1</title>
<polygon fill="#bfbfbf" stroke="black" points="64,-58.5 64,-79.5 186,-79.5 186,-58.5 64,-58.5"/>
<text text-anchor="middle" x="125" y="-66.5" font-family="DejaVuSans" font-size="10.00">src/Storage/Storage.h</text>
</g>
<!-- Node2 -->
<g id="node3" class="node"><title>Node2</title>
<a xlink:href="_main_window_8cpp.html" target="_top" xlink:title="src/MainWindow.cpp">
<polygon fill="white" stroke="black" points="-0.5,-0.5 -0.5,-21.5 110.5,-21.5 110.5,-0.5 -0.5,-0.5"/>
<text text-anchor="middle" x="55" y="-8.5" font-family="DejaVuSans" font-size="10.00">src/MainWindow.cpp</text>
</a>
</g>
<!-- Node1&#45;&gt;Node2 -->
<g id="edge2" class="edge"><title>Node1&#45;&gt;Node2</title>
<path fill="none" stroke="midnightblue" d="M104.453,-51.9753C92.5725,-42.1315 77.9969,-30.0545 67.7577,-21.5707"/>
<polygon fill="midnightblue" stroke="midnightblue" points="102.228,-54.6768 112.161,-58.3619 106.694,-49.2866 102.228,-54.6768"/>
</g>
<!-- Node3 -->
<g id="node5" class="node"><title>Node3</title>
<a xlink:href="_storage_8cpp.html" target="_top" xlink:title="src/Storage/Storage.cpp">
<polygon fill="white" stroke="black" points="128,-0.5 128,-21.5 262,-21.5 262,-0.5 128,-0.5"/>
<text text-anchor="middle" x="195" y="-8.5" font-family="DejaVuSans" font-size="10.00">src/Storage/Storage.cpp</text>
</a>
</g>
<!-- Node1&#45;&gt;Node3 -->
<g id="edge4" class="edge"><title>Node1&#45;&gt;Node3</title>
<path fill="none" stroke="midnightblue" d="M145.547,-51.9753C157.427,-42.1315 172.003,-30.0545 182.242,-21.5707"/>
<polygon fill="midnightblue" stroke="midnightblue" points="143.306,-49.2866 137.839,-58.3619 147.772,-54.6768 143.306,-49.2866"/>
</g>
</g>
</svg>
