<?xml version="1.0" encoding="UTF-8" standalone="no"?>
<!DOCTYPE svg PUBLIC "-//W3C//DTD SVG 1.1//EN"
 "http://www.w3.org/Graphics/SVG/1.1/DTD/svg11.dtd">
<!-- Generated by graphviz version 2.26.3 (20100126.1600)
 -->
<!-- Title: G Pages: 1 -->
<svg width="1022pt" height="146pt"
 viewBox="0.00 0.00 1022.00 146.00" xmlns="http://www.w3.org/2000/svg" xmlns:xlink="http://www.w3.org/1999/xlink">
<g id="graph1" class="graph" transform="scale(1 1) rotate(0) translate(4 142)">
<title>G</title>
<polygon fill="white" stroke="white" points="-4,5 -4,-142 1019,-142 1019,5 -4,5"/>
<!-- Node1 -->
<g id="node1" class="node"><title>Node1</title>
<polygon fill="#bfbfbf" stroke="black" points="417.5,-116.5 417.5,-137.5 586.5,-137.5 586.5,-116.5 417.5,-116.5"/>
<text text-anchor="middle" x="502" y="-124.5" font-family="DejaVuSans" font-size="10.00">src/Storage/StorageCharacter.h</text>
</g>
<!-- Node2 -->
<g id="node3" class="node"><title>Node2</title>
<polygon fill="white" stroke="#bfbfbf" points="227,-58.5 227,-79.5 355,-79.5 355,-58.5 227,-58.5"/>
<text text-anchor="middle" x="291" y="-66.5" font-family="DejaVuSans" font-size="10.00">Datatypes/cv_Identity.h</text>
</g>
<!-- Node1&#45;&gt;Node2 -->
<g id="edge2" class="edge"><title>Node1&#45;&gt;Node2</title>
<path fill="none" stroke="midnightblue" d="M463.789,-116.497C428.795,-106.877 376.848,-92.5981 339.053,-82.209"/>
<polygon fill="midnightblue" stroke="midnightblue" points="339.852,-78.7988 329.282,-79.5231 337.997,-85.5485 339.852,-78.7988"/>
</g>
<!-- Node3 -->
<g id="node5" class="node"><title>Node3</title>
<polygon fill="white" stroke="#bfbfbf" points="0,-0.5 0,-21.5 146,-21.5 146,-0.5 0,-0.5"/>
<text text-anchor="middle" x="73" y="-8.5" font-family="DejaVuSans" font-size="10.00">Datatypes/cv_IdentityList.h</text>
</g>
<!-- Node1&#45;&gt;Node3 -->
<g id="edge4" class="edge"><title>Node1&#45;&gt;Node3</title>
<path fill="none" stroke="midnightblue" d="M475.082,-116.411C453.508,-107.581 422.702,-94.1896 397,-80 381.568,-71.4805 380.408,-64.441 364,-58 344.87,-50.4907 235.178,-33.9007 156.104,-22.5821"/>
<polygon fill="midnightblue" stroke="midnightblue" points="156.53,-19.1075 146.135,-21.1599 155.541,-26.0373 156.53,-19.1075"/>
</g>
<!-- Node4 -->
<g id="node7" class="node"><title>Node4</title>
<polygon fill="white" stroke="#bfbfbf" points="163.5,-0.5 163.5,-21.5 276.5,-21.5 276.5,-0.5 163.5,-0.5"/>
<text text-anchor="middle" x="220" y="-8.5" font-family="DejaVuSans" font-size="10.00">Datatypes/cv_Trait.h</text>
</g>
<!-- Node1&#45;&gt;Node4 -->
<g id="edge6" class="edge"><title>Node1&#45;&gt;Node4</title>
<path fill="none" stroke="midnightblue" d="M488.891,-116.354C469.777,-101.322 432.644,-73.9376 397,-58 361.865,-42.2902 320.382,-30.9285 286.41,-23.3155"/>
<polygon fill="midnightblue" stroke="midnightblue" points="287.099,-19.8835 276.583,-21.17 285.606,-26.7224 287.099,-19.8835"/>
</g>
<!-- Node5 -->
<g id="node9" class="node"><title>Node5</title>
<polygon fill="white" stroke="#bfbfbf" points="610.5,-58.5 610.5,-79.5 771.5,-79.5 771.5,-58.5 610.5,-58.5"/>
<text text-anchor="middle" x="691" y="-66.5" font-family="DejaVuSans" font-size="10.00">Datatypes/cv_Derangement.h</text>
</g>
<!-- Node1&#45;&gt;Node5 -->
<g id="edge8" class="edge"><title>Node1&#45;&gt;Node5</title>
<path fill="none" stroke="midnightblue" d="M536.226,-116.497C567.305,-106.959 613.312,-92.8408 647.09,-82.475"/>
<polygon fill="midnightblue" stroke="midnightblue" points="648.176,-85.8029 656.709,-79.5231 646.123,-79.1109 648.176,-85.8029"/>
</g>
<!-- Node6 -->
<g id="node11" class="node"><title>Node6</title>
<polygon fill="white" stroke="#bfbfbf" points="789,-58.5 789,-79.5 953,-79.5 953,-58.5 789,-58.5"/>
<text text-anchor="middle" x="871" y="-66.5" font-family="DejaVuSans" font-size="10.00">Datatypes/cv_CreationPoints.h</text>
</g>
<!-- Node1&#45;&gt;Node6 -->
<g id="edge10" class="edge"><title>Node1&#45;&gt;Node6</title>
<path fill="none" stroke="midnightblue" d="M568.823,-116.497C632.235,-106.529 727.478,-91.5591 794.036,-81.0973"/>
<polygon fill="midnightblue" stroke="midnightblue" points="794.716,-84.5334 804.052,-79.5231 793.629,-77.6183 794.716,-84.5334"/>
</g>
<!-- Node7 -->
<g id="node13" class="node"><title>Node7</title>
<a xlink:href="_storage_template_8h.html" target="_top" xlink:title="StorageTemplate.h">
<polygon fill="white" stroke="black" points="448.5,-58.5 448.5,-79.5 555.5,-79.5 555.5,-58.5 448.5,-58.5"/>
<text text-anchor="middle" x="502" y="-66.5" font-family="DejaVuSans" font-size="10.00">StorageTemplate.h</text>
</a>
</g>
<!-- Node1&#45;&gt;Node7 -->
<g id="edge12" class="edge"><title>Node1&#45;&gt;Node7</title>
<path fill="none" stroke="midnightblue" d="M502,-116.362C502,-108.922 502,-98.7427 502,-89.7276"/>
<polygon fill="midnightblue" stroke="midnightblue" points="505.5,-89.5706 502,-79.5707 498.5,-89.5707 505.5,-89.5706"/>
</g>
<!-- Node13 -->
<g id="node27" class="node"><title>Node13</title>
<polygon fill="white" stroke="#bfbfbf" points="959.5,-0.5 959.5,-21.5 1014.5,-21.5 1014.5,-0.5 959.5,-0.5"/>
<text text-anchor="middle" x="987" y="-8.5" font-family="DejaVuSans" font-size="10.00">QObject</text>
</g>
<!-- Node1&#45;&gt;Node13 -->
<g id="edge30" class="edge"><title>Node1&#45;&gt;Node13</title>
<path fill="none" stroke="midnightblue" d="M515.481,-116.434C538.187,-98.8575 583.398,-64.8618 602,-58 745.155,-5.19431 795.977,-50.875 949,-22.0742"/>
<polygon fill="midnightblue" stroke="midnightblue" points="950.09,-25.4272 959.229,-20.0676 948.742,-18.5581 950.09,-25.4272"/>
</g>
<!-- Node7&#45;&gt;Node3 -->
<g id="edge22" class="edge"><title>Node7&#45;&gt;Node3</title>
<path fill="none" stroke="midnightblue" d="M448.101,-61.713C374.61,-51.7771 242.267,-33.8845 156.045,-22.2275"/>
<polygon fill="midnightblue" stroke="midnightblue" points="156.406,-18.7445 146.027,-20.8731 155.468,-25.6814 156.406,-18.7445"/>
</g>
<!-- Node7&#45;&gt;Node4 -->
<g id="edge20" class="edge"><title>Node7&#45;&gt;Node4</title>
<path fill="none" stroke="midnightblue" d="M450.932,-58.4966C403.167,-48.6727 331.771,-33.9884 281.025,-23.5512"/>
<polygon fill="midnightblue" stroke="midnightblue" points="281.664,-20.1095 271.164,-21.5231 280.254,-26.966 281.664,-20.1095"/>
</g>
<!-- Node8 -->
<g id="node15" class="node"><title>Node8</title>
<polygon fill="white" stroke="#bfbfbf" points="481.5,-0.5 481.5,-21.5 522.5,-21.5 522.5,-0.5 481.5,-0.5"/>
<text text-anchor="middle" x="502" y="-8.5" font-family="DejaVuSans" font-size="10.00">QList</text>
</g>
<!-- Node7&#45;&gt;Node8 -->
<g id="edge14" class="edge"><title>Node7&#45;&gt;Node8</title>
<path fill="none" stroke="midnightblue" d="M502,-58.3619C502,-50.9219 502,-40.7427 502,-31.7276"/>
<polygon fill="midnightblue" stroke="midnightblue" points="505.5,-31.5706 502,-21.5707 498.5,-31.5707 505.5,-31.5706"/>
</g>
<!-- Node9 -->
<g id="node17" class="node"><title>Node9</title>
<polygon fill="white" stroke="#bfbfbf" points="539.5,-0.5 539.5,-21.5 608.5,-21.5 608.5,-0.5 539.5,-0.5"/>
<text text-anchor="middle" x="574" y="-8.5" font-family="DejaVuSans" font-size="10.00">QStringList</text>
</g>
<!-- Node7&#45;&gt;Node9 -->
<g id="edge16" class="edge"><title>Node7&#45;&gt;Node9</title>
<path fill="none" stroke="midnightblue" d="M515.206,-58.3619C525.761,-49.859 540.758,-37.7785 552.963,-27.9466"/>
<polygon fill="midnightblue" stroke="midnightblue" points="555.286,-30.5696 560.878,-21.5707 550.895,-25.1183 555.286,-30.5696"/>
</g>
<!-- Node10 -->
<g id="node19" class="node"><title>Node10</title>
<polygon fill="white" stroke="#bfbfbf" points="625.5,-0.5 625.5,-21.5 776.5,-21.5 776.5,-0.5 625.5,-0.5"/>
<text text-anchor="middle" x="701" y="-8.5" font-family="DejaVuSans" font-size="10.00">Datatypes/cv_SpeciesTitle.h</text>
</g>
<!-- Node7&#45;&gt;Node10 -->
<g id="edge18" class="edge"><title>Node7&#45;&gt;Node10</title>
<path fill="none" stroke="midnightblue" d="M538.037,-58.4966C570.901,-48.9183 619.617,-34.7196 655.224,-24.3418"/>
<polygon fill="midnightblue" stroke="midnightblue" points="656.274,-27.6815 664.895,-21.5231 654.315,-20.9611 656.274,-27.6815"/>
</g>
<!-- Node11 -->
<g id="node23" class="node"><title>Node11</title>
<polygon fill="white" stroke="#bfbfbf" points="793.5,-0.5 793.5,-21.5 942.5,-21.5 942.5,-0.5 793.5,-0.5"/>
<text text-anchor="middle" x="868" y="-8.5" font-family="DejaVuSans" font-size="10.00">Datatypes/cv_SuperEffect.h</text>
</g>
<!-- Node7&#45;&gt;Node11 -->
<g id="edge24" class="edge"><title>Node7&#45;&gt;Node11</title>
<path fill="none" stroke="midnightblue" d="M555.752,-60.1421C560.233,-59.4136 564.694,-58.6919 569,-58 644.038,-45.9427 729.726,-32.5074 790.079,-23.0997"/>
<polygon fill="midnightblue" stroke="midnightblue" points="790.95,-26.5063 800.292,-21.5085 789.872,-19.5898 790.95,-26.5063"/>
</g>
<!-- Node12 -->
<g id="node25" class="node"><title>Node12</title>
<polygon fill="white" stroke="#bfbfbf" points="294,-0.5 294,-21.5 464,-21.5 464,-0.5 294,-0.5"/>
<text text-anchor="middle" x="379" y="-8.5" font-family="DejaVuSans" font-size="10.00">Datatypes/cv_CreationPoints2.h</text>
</g>
<!-- Node7&#45;&gt;Node12 -->
<g id="edge26" class="edge"><title>Node7&#45;&gt;Node12</title>
<path fill="none" stroke="midnightblue" d="M479.726,-58.4966C460.428,-49.397 432.287,-36.1273 410.652,-25.9253"/>
<polygon fill="midnightblue" stroke="midnightblue" points="412.062,-22.7206 401.524,-21.6212 409.076,-29.052 412.062,-22.7206"/>
</g>
<!-- Node7&#45;&gt;Node13 -->
<g id="edge28" class="edge"><title>Node7&#45;&gt;Node13</title>
<path fill="none" stroke="midnightblue" d="M555.709,-59.8485C560.2,-59.1849 564.674,-58.5582 569,-58 734.907,-36.5889 781.929,-54.3801 949.346,-22.0336"/>
<polygon fill="midnightblue" stroke="midnightblue" points="950.095,-25.4534 959.234,-20.0925 948.747,-18.5845 950.095,-25.4534"/>
</g>
</g>
</svg>
