<?xml version="1.0" encoding="UTF-8" standalone="no"?>
<!DOCTYPE svg PUBLIC "-//W3C//DTD SVG 1.1//EN"
 "http://www.w3.org/Graphics/SVG/1.1/DTD/svg11.dtd">
<!-- Generated by graphviz version 2.26.3 (20100126.1600)
 -->
<!-- Title: G Pages: 1 -->
<svg width="834pt" height="88pt"
 viewBox="0.00 0.00 834.00 88.00" xmlns="http://www.w3.org/2000/svg" xmlns:xlink="http://www.w3.org/1999/xlink">
<g id="graph1" class="graph" transform="scale(1 1) rotate(0) translate(4 84)">
<title>G</title>
<polygon fill="white" stroke="white" points="-4,5 -4,-84 831,-84 831,5 -4,5"/>
<!-- Node1 -->
<g id="node1" class="node"><title>Node1</title>
<polygon fill="#bfbfbf" stroke="black" points="285,-58.5 285,-79.5 451,-79.5 451,-58.5 285,-58.5"/>
<text text-anchor="middle" x="368" y="-66.5" font-family="DejaVuSans" font-size="10.00">src/Storage/StorageTemplate.h</text>
</g>
<!-- Node2 -->
<g id="node3" class="node"><title>Node2</title>
<polygon fill="white" stroke="#bfbfbf" points="-0.5,-0.5 -0.5,-21.5 40.5,-21.5 40.5,-0.5 -0.5,-0.5"/>
<text text-anchor="middle" x="20" y="-8.5" font-family="DejaVuSans" font-size="10.00">QList</text>
</g>
<!-- Node1&#45;&gt;Node2 -->
<g id="edge2" class="edge"><title>Node1&#45;&gt;Node2</title>
<path fill="none" stroke="midnightblue" d="M284.732,-61.7118C222.192,-55.0918 134.491,-43.3748 50.4346,-21.9955"/>
<polygon fill="midnightblue" stroke="midnightblue" points="51.2924,-18.6022 40.734,-19.4803 49.5354,-25.3782 51.2924,-18.6022"/>
</g>
<!-- Node3 -->
<g id="node5" class="node"><title>Node3</title>
<polygon fill="white" stroke="#bfbfbf" points="57.5,-0.5 57.5,-21.5 126.5,-21.5 126.5,-0.5 57.5,-0.5"/>
<text text-anchor="middle" x="92" y="-8.5" font-family="DejaVuSans" font-size="10.00">QStringList</text>
</g>
<!-- Node1&#45;&gt;Node3 -->
<g id="edge4" class="edge"><title>Node1&#45;&gt;Node3</title>
<path fill="none" stroke="midnightblue" d="M311.327,-58.4128C266.347,-49.8176 201.636,-37.027 136.697,-22.3189"/>
<polygon fill="midnightblue" stroke="midnightblue" points="137.224,-18.8494 126.697,-20.0389 135.668,-25.6743 137.224,-18.8494"/>
</g>
<!-- Node4 -->
<g id="node7" class="node"><title>Node4</title>
<polygon fill="white" stroke="#bfbfbf" points="143.5,-0.5 143.5,-21.5 294.5,-21.5 294.5,-0.5 143.5,-0.5"/>
<text text-anchor="middle" x="219" y="-8.5" font-family="DejaVuSans" font-size="10.00">Datatypes/cv_SpeciesTitle.h</text>
</g>
<!-- Node1&#45;&gt;Node4 -->
<g id="edge6" class="edge"><title>Node1&#45;&gt;Node4</title>
<path fill="none" stroke="midnightblue" d="M341.017,-58.4966C317.147,-49.2048 282.106,-35.5649 255.693,-25.2832"/>
<polygon fill="midnightblue" stroke="midnightblue" points="256.622,-21.889 246.033,-21.5231 254.083,-28.4122 256.622,-21.889"/>
</g>
<!-- Node5 -->
<g id="node9" class="node"><title>Node5</title>
<polygon fill="white" stroke="#bfbfbf" points="311.5,-0.5 311.5,-21.5 424.5,-21.5 424.5,-0.5 311.5,-0.5"/>
<text text-anchor="middle" x="368" y="-8.5" font-family="DejaVuSans" font-size="10.00">Datatypes/cv_Trait.h</text>
</g>
<!-- Node1&#45;&gt;Node5 -->
<g id="edge8" class="edge"><title>Node1&#45;&gt;Node5</title>
<path fill="none" stroke="midnightblue" d="M368,-58.3619C368,-50.9219 368,-40.7427 368,-31.7276"/>
<polygon fill="midnightblue" stroke="midnightblue" points="371.5,-31.5706 368,-21.5707 364.5,-31.5707 371.5,-31.5706"/>
</g>
<!-- Node6 -->
<g id="node11" class="node"><title>Node6</title>
<polygon fill="white" stroke="#bfbfbf" points="442,-0.5 442,-21.5 588,-21.5 588,-0.5 442,-0.5"/>
<text text-anchor="middle" x="515" y="-8.5" font-family="DejaVuSans" font-size="10.00">Datatypes/cv_IdentityList.h</text>
</g>
<!-- Node1&#45;&gt;Node6 -->
<g id="edge10" class="edge"><title>Node1&#45;&gt;Node6</title>
<path fill="none" stroke="midnightblue" d="M394.621,-58.4966C418.097,-49.2337 452.525,-35.6499 478.556,-25.3793"/>
<polygon fill="midnightblue" stroke="midnightblue" points="480.063,-28.5473 488.081,-21.6212 477.494,-22.0358 480.063,-28.5473"/>
</g>
<!-- Node7 -->
<g id="node13" class="node"><title>Node7</title>
<polygon fill="white" stroke="#bfbfbf" points="605.5,-0.5 605.5,-21.5 754.5,-21.5 754.5,-0.5 605.5,-0.5"/>
<text text-anchor="middle" x="680" y="-8.5" font-family="DejaVuSans" font-size="10.00">Datatypes/cv_SuperEffect.h</text>
</g>
<!-- Node1&#45;&gt;Node7 -->
<g id="edge12" class="edge"><title>Node1&#45;&gt;Node7</title>
<path fill="none" stroke="midnightblue" d="M424.501,-58.4966C477.677,-48.6113 557.327,-33.8046 613.533,-23.356"/>
<polygon fill="midnightblue" stroke="midnightblue" points="614.201,-26.7919 623.393,-21.5231 612.922,-19.9098 614.201,-26.7919"/>
</g>
<!-- Node8 -->
<g id="node15" class="node"><title>Node8</title>
<polygon fill="white" stroke="#bfbfbf" points="771.5,-0.5 771.5,-21.5 826.5,-21.5 826.5,-0.5 771.5,-0.5"/>
<text text-anchor="middle" x="799" y="-8.5" font-family="DejaVuSans" font-size="10.00">QObject</text>
</g>
<!-- Node1&#45;&gt;Node8 -->
<g id="edge14" class="edge"><title>Node1&#45;&gt;Node8</title>
<path fill="none" stroke="midnightblue" d="M451.16,-63.4318C529.225,-57.2204 649.278,-45.1413 761.117,-22.1365"/>
<polygon fill="midnightblue" stroke="midnightblue" points="762.148,-25.4967 771.22,-20.0235 760.715,-18.6449 762.148,-25.4967"/>
</g>
</g>
</svg>
