<?xml version="1.0" encoding="UTF-8" standalone="no"?>
<!DOCTYPE svg PUBLIC "-//W3C//DTD SVG 1.1//EN"
 "http://www.w3.org/Graphics/SVG/1.1/DTD/svg11.dtd">
<!-- Generated by graphviz version 2.26.3 (20100126.1600)
 -->
<!-- Title: G Pages: 1 -->
<svg width="844pt" height="88pt"
 viewBox="0.00 0.00 844.00 88.00" xmlns="http://www.w3.org/2000/svg" xmlns:xlink="http://www.w3.org/1999/xlink">
<g id="graph1" class="graph" transform="scale(1 1) rotate(0) translate(4 84)">
<title>G</title>
<polygon fill="white" stroke="white" points="-4,5 -4,-84 841,-84 841,5 -4,5"/>
<!-- Node1 -->
<g id="node1" class="node"><title>Node1</title>
<polygon fill="#bfbfbf" stroke="black" points="278,-58.5 278,-79.5 444,-79.5 444,-58.5 278,-58.5"/>
<text text-anchor="middle" x="361" y="-66.5" font-family="DejaVuSans" font-size="10.00">src/Storage/StorageTemplate.h</text>
</g>
<!-- Node2 -->
<g id="node3" class="node"><title>Node2</title>
<polygon fill="white" stroke="#bfbfbf" points="-0.5,-0.5 -0.5,-21.5 40.5,-21.5 40.5,-0.5 -0.5,-0.5"/>
<text text-anchor="middle" x="20" y="-8.5" font-family="DejaVuSans" font-size="10.00">QList</text>
</g>
<!-- Node1&#45;&gt;Node2 -->
<g id="edge2" class="edge"><title>Node1&#45;&gt;Node2</title>
<path fill="none" stroke="midnightblue" d="M277.916,-61.3538C216.967,-54.6235 132.237,-42.9343 50.6663,-22.063"/>
<polygon fill="midnightblue" stroke="midnightblue" points="51.2959,-18.6102 40.7362,-19.472 49.5285,-25.3834 51.2959,-18.6102"/>
</g>
<!-- Node3 -->
<g id="node5" class="node"><title>Node3</title>
<polygon fill="white" stroke="#bfbfbf" points="57.5,-0.5 57.5,-21.5 126.5,-21.5 126.5,-0.5 57.5,-0.5"/>
<text text-anchor="middle" x="92" y="-8.5" font-family="DejaVuSans" font-size="10.00">QStringList</text>
</g>
<!-- Node1&#45;&gt;Node3 -->
<g id="edge4" class="edge"><title>Node1&#45;&gt;Node3</title>
<path fill="none" stroke="midnightblue" d="M306.966,-58.4798C263.327,-49.8203 200.104,-36.9091 136.497,-22.2861"/>
<polygon fill="midnightblue" stroke="midnightblue" points="137.232,-18.8639 126.701,-20.0209 135.655,-25.6839 137.232,-18.8639"/>
</g>
<!-- Node4 -->
<g id="node7" class="node"><title>Node4</title>
<polygon fill="white" stroke="#bfbfbf" points="143.5,-0.5 143.5,-21.5 294.5,-21.5 294.5,-0.5 143.5,-0.5"/>
<text text-anchor="middle" x="219" y="-8.5" font-family="DejaVuSans" font-size="10.00">Datatypes/cv_SpeciesTitle.h</text>
</g>
<!-- Node1&#45;&gt;Node4 -->
<g id="edge6" class="edge"><title>Node1&#45;&gt;Node4</title>
<path fill="none" stroke="midnightblue" d="M335.285,-58.4966C312.707,-49.2746 279.642,-35.7695 254.537,-25.5153"/>
<polygon fill="midnightblue" stroke="midnightblue" points="255.585,-22.1624 245.004,-21.6212 252.938,-28.6427 255.585,-22.1624"/>
</g>
<!-- Node5 -->
<g id="node9" class="node"><title>Node5</title>
<polygon fill="white" stroke="#bfbfbf" points="312,-0.5 312,-21.5 410,-21.5 410,-0.5 312,-0.5"/>
<text text-anchor="middle" x="361" y="-8.5" font-family="DejaVuSans" font-size="10.00">Datatypes/Trait.h</text>
</g>
<!-- Node1&#45;&gt;Node5 -->
<g id="edge8" class="edge"><title>Node1&#45;&gt;Node5</title>
<path fill="none" stroke="midnightblue" d="M361,-58.3619C361,-50.9219 361,-40.7427 361,-31.7276"/>
<polygon fill="midnightblue" stroke="midnightblue" points="364.5,-31.5706 361,-21.5707 357.5,-31.5707 364.5,-31.5706"/>
</g>
<!-- Node6 -->
<g id="node11" class="node"><title>Node6</title>
<polygon fill="white" stroke="#bfbfbf" points="427.5,-0.5 427.5,-21.5 576.5,-21.5 576.5,-0.5 427.5,-0.5"/>
<text text-anchor="middle" x="502" y="-8.5" font-family="DejaVuSans" font-size="10.00">Datatypes/cv_SuperEffect.h</text>
</g>
<!-- Node1&#45;&gt;Node6 -->
<g id="edge10" class="edge"><title>Node1&#45;&gt;Node6</title>
<path fill="none" stroke="midnightblue" d="M386.534,-58.4966C408.953,-49.2746 441.785,-35.7695 466.713,-25.5153"/>
<polygon fill="midnightblue" stroke="midnightblue" points="468.263,-28.6623 476.179,-21.6212 465.6,-22.1886 468.263,-28.6623"/>
</g>
<!-- Node7 -->
<g id="node13" class="node"><title>Node7</title>
<polygon fill="white" stroke="#bfbfbf" points="594,-0.5 594,-21.5 764,-21.5 764,-0.5 594,-0.5"/>
<text text-anchor="middle" x="679" y="-8.5" font-family="DejaVuSans" font-size="10.00">Datatypes/cv_CreationPoints2.h</text>
</g>
<!-- Node1&#45;&gt;Node7 -->
<g id="edge12" class="edge"><title>Node1&#45;&gt;Node7</title>
<path fill="none" stroke="midnightblue" d="M418.587,-58.4966C472.786,-48.6113 553.968,-33.8046 611.255,-23.356"/>
<polygon fill="midnightblue" stroke="midnightblue" points="612.095,-26.7606 621.305,-21.5231 610.839,-19.8742 612.095,-26.7606"/>
</g>
<!-- Node8 -->
<g id="node15" class="node"><title>Node8</title>
<polygon fill="white" stroke="#bfbfbf" points="781.5,-0.5 781.5,-21.5 836.5,-21.5 836.5,-0.5 781.5,-0.5"/>
<text text-anchor="middle" x="809" y="-8.5" font-family="DejaVuSans" font-size="10.00">QObject</text>
</g>
<!-- Node1&#45;&gt;Node8 -->
<g id="edge14" class="edge"><title>Node1&#45;&gt;Node8</title>
<path fill="none" stroke="midnightblue" d="M444.176,-63.9958C525.608,-58.0784 653.193,-46.0975 771.287,-22.0905"/>
<polygon fill="midnightblue" stroke="midnightblue" points="772.138,-25.4886 781.223,-20.0372 770.721,-18.6335 772.138,-25.4886"/>
</g>
</g>
</svg>
