<?xml version="1.0" encoding="UTF-8" standalone="no"?>
<!DOCTYPE svg PUBLIC "-//W3C//DTD SVG 1.1//EN"
 "http://www.w3.org/Graphics/SVG/1.1/DTD/svg11.dtd">
<!-- Generated by graphviz version 2.26.3 (20100126.1600)
 -->
<!-- Title: G Pages: 1 -->
<svg width="843pt" height="146pt"
 viewBox="0.00 0.00 843.00 146.00" xmlns="http://www.w3.org/2000/svg" xmlns:xlink="http://www.w3.org/1999/xlink">
<g id="graph1" class="graph" transform="scale(1 1) rotate(0) translate(4 142)">
<title>G</title>
<polygon fill="white" stroke="white" points="-4,5 -4,-142 840,-142 840,5 -4,5"/>
<!-- Node1 -->
<g id="node1" class="node"><title>Node1</title>
<polygon fill="#bfbfbf" stroke="black" points="91.5,-116.5 91.5,-137.5 268.5,-137.5 268.5,-116.5 91.5,-116.5"/>
<text text-anchor="middle" x="180" y="-124.5" font-family="DejaVuSans" font-size="10.00">src/Storage/StorageTemplate.cpp</text>
</g>
<!-- Node2 -->
<g id="node3" class="node"><title>Node2</title>
<polygon fill="white" stroke="#bfbfbf" points="0,-58.5 0,-79.5 56,-79.5 56,-58.5 0,-58.5"/>
<text text-anchor="middle" x="28" y="-66.5" font-family="DejaVuSans" font-size="10.00">QDebug</text>
</g>
<!-- Node1&#45;&gt;Node2 -->
<g id="edge2" class="edge"><title>Node1&#45;&gt;Node2</title>
<path fill="none" stroke="midnightblue" d="M152.474,-116.497C128.016,-107.164 92.0619,-93.4447 65.0761,-83.1475"/>
<polygon fill="midnightblue" stroke="midnightblue" points="66.1684,-79.8182 55.5777,-79.5231 63.6728,-86.3582 66.1684,-79.8182"/>
</g>
<!-- Node3 -->
<g id="node5" class="node"><title>Node3</title>
<polygon fill="white" stroke="#bfbfbf" points="73.5,-58.5 73.5,-79.5 162.5,-79.5 162.5,-58.5 73.5,-58.5"/>
<text text-anchor="middle" x="118" y="-66.5" font-family="DejaVuSans" font-size="10.00">Config/Config.h</text>
</g>
<!-- Node1&#45;&gt;Node3 -->
<g id="edge4" class="edge"><title>Node1&#45;&gt;Node3</title>
<path fill="none" stroke="midnightblue" d="M168.628,-116.362C159.714,-108.023 147.121,-96.2418 136.724,-86.5162"/>
<polygon fill="midnightblue" stroke="midnightblue" points="138.993,-83.8463 129.3,-79.5707 134.211,-88.9582 138.993,-83.8463"/>
</g>
<!-- Node4 -->
<g id="node7" class="node"><title>Node4</title>
<polygon fill="white" stroke="#bfbfbf" points="179.5,-58.5 179.5,-79.5 306.5,-79.5 306.5,-58.5 179.5,-58.5"/>
<text text-anchor="middle" x="243" y="-66.5" font-family="DejaVuSans" font-size="10.00">Exceptions/Exception.h</text>
</g>
<!-- Node1&#45;&gt;Node4 -->
<g id="edge6" class="edge"><title>Node1&#45;&gt;Node4</title>
<path fill="none" stroke="midnightblue" d="M191.555,-116.362C200.613,-108.023 213.41,-96.2418 223.974,-86.5162"/>
<polygon fill="midnightblue" stroke="midnightblue" points="226.532,-88.9187 231.518,-79.5707 221.79,-83.7688 226.532,-88.9187"/>
</g>
<!-- Node5 -->
<g id="node9" class="node"><title>Node5</title>
<a xlink:href="_storage_template_8h.html" target="_top" xlink:title="StorageTemplate.h">
<polygon fill="white" stroke="black" points="323.5,-58.5 323.5,-79.5 430.5,-79.5 430.5,-58.5 323.5,-58.5"/>
<text text-anchor="middle" x="377" y="-66.5" font-family="DejaVuSans" font-size="10.00">StorageTemplate.h</text>
</a>
</g>
<!-- Node1&#45;&gt;Node5 -->
<g id="edge8" class="edge"><title>Node1&#45;&gt;Node5</title>
<path fill="none" stroke="midnightblue" d="M215.675,-116.497C248.07,-106.959 296.023,-92.8408 331.231,-82.475"/>
<polygon fill="midnightblue" stroke="midnightblue" points="332.654,-85.7049 341.258,-79.5231 330.676,-78.9899 332.654,-85.7049"/>
</g>
<!-- Node6 -->
<g id="node11" class="node"><title>Node6</title>
<polygon fill="white" stroke="#bfbfbf" points="8.5,-0.5 8.5,-21.5 49.5,-21.5 49.5,-0.5 8.5,-0.5"/>
<text text-anchor="middle" x="29" y="-8.5" font-family="DejaVuSans" font-size="10.00">QList</text>
</g>
<!-- Node5&#45;&gt;Node6 -->
<g id="edge10" class="edge"><title>Node5&#45;&gt;Node6</title>
<path fill="none" stroke="midnightblue" d="M323.252,-59.3405C320.463,-58.8779 317.699,-58.4284 315,-58 204.314,-40.4347 171.57,-50.0474 59.715,-22.0446"/>
<polygon fill="midnightblue" stroke="midnightblue" points="60.284,-18.5778 49.7292,-19.4987 58.5545,-25.3608 60.284,-18.5778"/>
</g>
<!-- Node7 -->
<g id="node13" class="node"><title>Node7</title>
<polygon fill="white" stroke="#bfbfbf" points="66.5,-0.5 66.5,-21.5 135.5,-21.5 135.5,-0.5 66.5,-0.5"/>
<text text-anchor="middle" x="101" y="-8.5" font-family="DejaVuSans" font-size="10.00">QStringList</text>
</g>
<!-- Node5&#45;&gt;Node7 -->
<g id="edge12" class="edge"><title>Node5&#45;&gt;Node7</title>
<path fill="none" stroke="midnightblue" d="M323.157,-58.953C278.042,-50.3501 211.722,-37.2755 145.469,-22.267"/>
<polygon fill="midnightblue" stroke="midnightblue" points="146.224,-18.8496 135.697,-20.0389 144.668,-25.6744 146.224,-18.8496"/>
</g>
<!-- Node8 -->
<g id="node15" class="node"><title>Node8</title>
<polygon fill="white" stroke="#bfbfbf" points="152.5,-0.5 152.5,-21.5 303.5,-21.5 303.5,-0.5 152.5,-0.5"/>
<text text-anchor="middle" x="228" y="-8.5" font-family="DejaVuSans" font-size="10.00">Datatypes/cv_SpeciesTitle.h</text>
</g>
<!-- Node5&#45;&gt;Node8 -->
<g id="edge14" class="edge"><title>Node5&#45;&gt;Node8</title>
<path fill="none" stroke="midnightblue" d="M350.017,-58.4966C326.147,-49.2048 291.106,-35.5649 264.693,-25.2832"/>
<polygon fill="midnightblue" stroke="midnightblue" points="265.622,-21.889 255.033,-21.5231 263.083,-28.4122 265.622,-21.889"/>
</g>
<!-- Node9 -->
<g id="node17" class="node"><title>Node9</title>
<polygon fill="white" stroke="#bfbfbf" points="320.5,-0.5 320.5,-21.5 433.5,-21.5 433.5,-0.5 320.5,-0.5"/>
<text text-anchor="middle" x="377" y="-8.5" font-family="DejaVuSans" font-size="10.00">Datatypes/cv_Trait.h</text>
</g>
<!-- Node5&#45;&gt;Node9 -->
<g id="edge16" class="edge"><title>Node5&#45;&gt;Node9</title>
<path fill="none" stroke="midnightblue" d="M377,-58.3619C377,-50.9219 377,-40.7427 377,-31.7276"/>
<polygon fill="midnightblue" stroke="midnightblue" points="380.5,-31.5706 377,-21.5707 373.5,-31.5707 380.5,-31.5706"/>
</g>
<!-- Node10 -->
<g id="node19" class="node"><title>Node10</title>
<polygon fill="white" stroke="#bfbfbf" points="451,-0.5 451,-21.5 597,-21.5 597,-0.5 451,-0.5"/>
<text text-anchor="middle" x="524" y="-8.5" font-family="DejaVuSans" font-size="10.00">Datatypes/cv_IdentityList.h</text>
</g>
<!-- Node5&#45;&gt;Node10 -->
<g id="edge18" class="edge"><title>Node5&#45;&gt;Node10</title>
<path fill="none" stroke="midnightblue" d="M403.621,-58.4966C427.097,-49.2337 461.525,-35.6499 487.556,-25.3793"/>
<polygon fill="midnightblue" stroke="midnightblue" points="489.063,-28.5473 497.081,-21.6212 486.494,-22.0358 489.063,-28.5473"/>
</g>
<!-- Node11 -->
<g id="node21" class="node"><title>Node11</title>
<polygon fill="white" stroke="#bfbfbf" points="614.5,-0.5 614.5,-21.5 763.5,-21.5 763.5,-0.5 614.5,-0.5"/>
<text text-anchor="middle" x="689" y="-8.5" font-family="DejaVuSans" font-size="10.00">Datatypes/cv_SuperEffect.h</text>
</g>
<!-- Node5&#45;&gt;Node11 -->
<g id="edge20" class="edge"><title>Node5&#45;&gt;Node11</title>
<path fill="none" stroke="midnightblue" d="M430.635,-59.0294C483.723,-49.1604 565.13,-34.0272 622.346,-23.3908"/>
<polygon fill="midnightblue" stroke="midnightblue" points="623.187,-26.7945 632.379,-21.5257 621.908,-19.9124 623.187,-26.7945"/>
</g>
<!-- Node12 -->
<g id="node23" class="node"><title>Node12</title>
<polygon fill="white" stroke="#bfbfbf" points="780.5,-0.5 780.5,-21.5 835.5,-21.5 835.5,-0.5 780.5,-0.5"/>
<text text-anchor="middle" x="808" y="-8.5" font-family="DejaVuSans" font-size="10.00">QObject</text>
</g>
<!-- Node5&#45;&gt;Node12 -->
<g id="edge22" class="edge"><title>Node5&#45;&gt;Node12</title>
<path fill="none" stroke="midnightblue" d="M430.518,-65.6677C504.983,-60.3641 644.08,-48.0413 770.376,-22.0804"/>
<polygon fill="midnightblue" stroke="midnightblue" points="771.147,-25.4951 780.22,-20.0235 769.715,-18.643 771.147,-25.4951"/>
</g>
</g>
</svg>
