<?xml version="1.0" encoding="UTF-8" standalone="no"?>
<!DOCTYPE svg PUBLIC "-//W3C//DTD SVG 1.1//EN"
 "http://www.w3.org/Graphics/SVG/1.1/DTD/svg11.dtd">
<!-- Generated by graphviz version 2.26.3 (20100126.1600)
 -->
<!-- Title: G Pages: 1 -->
<svg width="1022pt" height="88pt"
 viewBox="0.00 0.00 1022.00 88.00" xmlns="http://www.w3.org/2000/svg" xmlns:xlink="http://www.w3.org/1999/xlink">
<g id="graph1" class="graph" transform="scale(1 1) rotate(0) translate(4 84)">
<title>G</title>
<polygon fill="white" stroke="white" points="-4,5 -4,-84 1019,-84 1019,5 -4,5"/>
<!-- Node1 -->
<g id="node1" class="node"><title>Node1</title>
<polygon fill="#bfbfbf" stroke="black" points="358,-58.5 358,-79.5 524,-79.5 524,-58.5 358,-58.5"/>
<text text-anchor="middle" x="441" y="-66.5" font-family="DejaVuSans" font-size="10.00">src/Storage/StorageTemplate.h</text>
</g>
<!-- Node2 -->
<g id="node3" class="node"><title>Node2</title>
<polygon fill="white" stroke="#bfbfbf" points="-0.5,-0.5 -0.5,-21.5 40.5,-21.5 40.5,-0.5 -0.5,-0.5"/>
<text text-anchor="middle" x="20" y="-8.5" font-family="DejaVuSans" font-size="10.00">QList</text>
</g>
<!-- Node1&#45;&gt;Node2 -->
<g id="edge2" class="edge"><title>Node1&#45;&gt;Node2</title>
<path fill="none" stroke="midnightblue" d="M357.738,-64.8955C280.004,-59.731 160.898,-48.4076 50.671,-21.984"/>
<polygon fill="midnightblue" stroke="midnightblue" points="51.2615,-18.5253 40.7164,-19.55 49.5989,-25.325 51.2615,-18.5253"/>
</g>
<!-- Node3 -->
<g id="node5" class="node"><title>Node3</title>
<polygon fill="white" stroke="#bfbfbf" points="57.5,-0.5 57.5,-21.5 126.5,-21.5 126.5,-0.5 57.5,-0.5"/>
<text text-anchor="middle" x="92" y="-8.5" font-family="DejaVuSans" font-size="10.00">QStringList</text>
</g>
<!-- Node1&#45;&gt;Node3 -->
<g id="edge4" class="edge"><title>Node1&#45;&gt;Node3</title>
<path fill="none" stroke="midnightblue" d="M357.814,-58.4681C298.586,-50.4482 216.936,-38.3395 136.922,-22.2634"/>
<polygon fill="midnightblue" stroke="midnightblue" points="137.163,-18.741 126.666,-20.179 135.769,-25.6007 137.163,-18.741"/>
</g>
<!-- Node4 -->
<g id="node7" class="node"><title>Node4</title>
<polygon fill="white" stroke="#bfbfbf" points="143.5,-0.5 143.5,-21.5 294.5,-21.5 294.5,-0.5 143.5,-0.5"/>
<text text-anchor="middle" x="219" y="-8.5" font-family="DejaVuSans" font-size="10.00">Datatypes/cv_SpeciesTitle.h</text>
</g>
<!-- Node1&#45;&gt;Node4 -->
<g id="edge6" class="edge"><title>Node1&#45;&gt;Node4</title>
<path fill="none" stroke="midnightblue" d="M400.797,-58.4966C363.822,-48.8364 308.858,-34.4765 269.052,-24.0765"/>
<polygon fill="midnightblue" stroke="midnightblue" points="269.838,-20.6646 259.278,-21.5231 268.068,-27.4372 269.838,-20.6646"/>
</g>
<!-- Node5 -->
<g id="node9" class="node"><title>Node5</title>
<polygon fill="white" stroke="#bfbfbf" points="311.5,-0.5 311.5,-21.5 424.5,-21.5 424.5,-0.5 311.5,-0.5"/>
<text text-anchor="middle" x="368" y="-8.5" font-family="DejaVuSans" font-size="10.00">Datatypes/cv_Trait.h</text>
</g>
<!-- Node1&#45;&gt;Node5 -->
<g id="edge8" class="edge"><title>Node1&#45;&gt;Node5</title>
<path fill="none" stroke="midnightblue" d="M427.611,-58.3619C416.909,-49.859 401.704,-37.7785 389.329,-27.9466"/>
<polygon fill="midnightblue" stroke="midnightblue" points="391.311,-25.0511 381.304,-21.5707 386.957,-30.5318 391.311,-25.0511"/>
</g>
<!-- Node6 -->
<g id="node11" class="node"><title>Node6</title>
<polygon fill="white" stroke="#bfbfbf" points="442,-0.5 442,-21.5 588,-21.5 588,-0.5 442,-0.5"/>
<text text-anchor="middle" x="515" y="-8.5" font-family="DejaVuSans" font-size="10.00">Datatypes/cv_IdentityList.h</text>
</g>
<!-- Node1&#45;&gt;Node6 -->
<g id="edge10" class="edge"><title>Node1&#45;&gt;Node6</title>
<path fill="none" stroke="midnightblue" d="M454.573,-58.3619C465.421,-49.859 480.834,-37.7785 493.379,-27.9466"/>
<polygon fill="midnightblue" stroke="midnightblue" points="495.802,-30.4942 501.513,-21.5707 491.484,-24.9848 495.802,-30.4942"/>
</g>
<!-- Node7 -->
<g id="node13" class="node"><title>Node7</title>
<polygon fill="white" stroke="#bfbfbf" points="605.5,-0.5 605.5,-21.5 754.5,-21.5 754.5,-0.5 605.5,-0.5"/>
<text text-anchor="middle" x="680" y="-8.5" font-family="DejaVuSans" font-size="10.00">Datatypes/cv_SuperEffect.h</text>
</g>
<!-- Node1&#45;&gt;Node7 -->
<g id="edge12" class="edge"><title>Node1&#45;&gt;Node7</title>
<path fill="none" stroke="midnightblue" d="M484.281,-58.4966C524.257,-48.7955 583.762,-34.3547 626.66,-23.9445"/>
<polygon fill="midnightblue" stroke="midnightblue" points="627.745,-27.2827 636.638,-21.5231 626.094,-20.4802 627.745,-27.2827"/>
</g>
<!-- Node8 -->
<g id="node15" class="node"><title>Node8</title>
<polygon fill="white" stroke="#bfbfbf" points="772,-0.5 772,-21.5 942,-21.5 942,-0.5 772,-0.5"/>
<text text-anchor="middle" x="857" y="-8.5" font-family="DejaVuSans" font-size="10.00">Datatypes/cv_CreationPoints2.h</text>
</g>
<!-- Node1&#45;&gt;Node8 -->
<g id="edge14" class="edge"><title>Node1&#45;&gt;Node8</title>
<path fill="none" stroke="midnightblue" d="M516.334,-58.4966C588.264,-48.468 696.521,-33.3744 771.616,-22.9045"/>
<polygon fill="midnightblue" stroke="midnightblue" points="772.103,-26.3705 781.524,-21.5231 771.137,-19.4376 772.103,-26.3705"/>
</g>
<!-- Node9 -->
<g id="node17" class="node"><title>Node9</title>
<polygon fill="white" stroke="#bfbfbf" points="959.5,-0.5 959.5,-21.5 1014.5,-21.5 1014.5,-0.5 959.5,-0.5"/>
<text text-anchor="middle" x="987" y="-8.5" font-family="DejaVuSans" font-size="10.00">QObject</text>
</g>
<!-- Node1&#45;&gt;Node9 -->
<g id="edge16" class="edge"><title>Node1&#45;&gt;Node9</title>
<path fill="none" stroke="midnightblue" d="M524.334,-66.547C623.749,-62.45 794.914,-51.6925 949.104,-22.0765"/>
<polygon fill="midnightblue" stroke="midnightblue" points="950.091,-25.45 959.235,-20.0983 948.75,-18.5797 950.091,-25.45"/>
</g>
</g>
</svg>
