<?xml version="1.0" encoding="UTF-8" standalone="no"?>
<!DOCTYPE svg PUBLIC "-//W3C//DTD SVG 1.1//EN"
 "http://www.w3.org/Graphics/SVG/1.1/DTD/svg11.dtd">
<!-- Generated by graphviz version 2.26.3 (20100126.1600)
 -->
<!-- Title: G Pages: 1 -->
<svg width="1022pt" height="146pt"
 viewBox="0.00 0.00 1022.00 146.00" xmlns="http://www.w3.org/2000/svg" xmlns:xlink="http://www.w3.org/1999/xlink">
<g id="graph1" class="graph" transform="scale(1 1) rotate(0) translate(4 142)">
<title>G</title>
<polygon fill="white" stroke="white" points="-4,5 -4,-142 1019,-142 1019,5 -4,5"/>
<!-- Node1 -->
<g id="node1" class="node"><title>Node1</title>
<polygon fill="#bfbfbf" stroke="black" points="155.5,-116.5 155.5,-137.5 332.5,-137.5 332.5,-116.5 155.5,-116.5"/>
<text text-anchor="middle" x="244" y="-124.5" font-family="DejaVuSans" font-size="10.00">src/Storage/StorageTemplate.cpp</text>
</g>
<!-- Node2 -->
<g id="node3" class="node"><title>Node2</title>
<polygon fill="white" stroke="#bfbfbf" points="64,-58.5 64,-79.5 120,-79.5 120,-58.5 64,-58.5"/>
<text text-anchor="middle" x="92" y="-66.5" font-family="DejaVuSans" font-size="10.00">QDebug</text>
</g>
<!-- Node1&#45;&gt;Node2 -->
<g id="edge2" class="edge"><title>Node1&#45;&gt;Node2</title>
<path fill="none" stroke="midnightblue" d="M216.474,-116.497C192.016,-107.164 156.062,-93.4447 129.076,-83.1475"/>
<polygon fill="midnightblue" stroke="midnightblue" points="130.168,-79.8182 119.578,-79.5231 127.673,-86.3582 130.168,-79.8182"/>
</g>
<!-- Node3 -->
<g id="node5" class="node"><title>Node3</title>
<polygon fill="white" stroke="#bfbfbf" points="137.5,-58.5 137.5,-79.5 226.5,-79.5 226.5,-58.5 137.5,-58.5"/>
<text text-anchor="middle" x="182" y="-66.5" font-family="DejaVuSans" font-size="10.00">Config/Config.h</text>
</g>
<!-- Node1&#45;&gt;Node3 -->
<g id="edge4" class="edge"><title>Node1&#45;&gt;Node3</title>
<path fill="none" stroke="midnightblue" d="M232.628,-116.362C223.714,-108.023 211.121,-96.2418 200.724,-86.5162"/>
<polygon fill="midnightblue" stroke="midnightblue" points="202.993,-83.8463 193.3,-79.5707 198.211,-88.9582 202.993,-83.8463"/>
</g>
<!-- Node4 -->
<g id="node7" class="node"><title>Node4</title>
<polygon fill="white" stroke="#bfbfbf" points="243.5,-58.5 243.5,-79.5 370.5,-79.5 370.5,-58.5 243.5,-58.5"/>
<text text-anchor="middle" x="307" y="-66.5" font-family="DejaVuSans" font-size="10.00">Exceptions/Exception.h</text>
</g>
<!-- Node1&#45;&gt;Node4 -->
<g id="edge6" class="edge"><title>Node1&#45;&gt;Node4</title>
<path fill="none" stroke="midnightblue" d="M255.555,-116.362C264.613,-108.023 277.41,-96.2418 287.974,-86.5162"/>
<polygon fill="midnightblue" stroke="midnightblue" points="290.532,-88.9187 295.518,-79.5707 285.79,-83.7688 290.532,-88.9187"/>
</g>
<!-- Node5 -->
<g id="node9" class="node"><title>Node5</title>
<a xlink:href="_storage_template_8h.html" target="_top" xlink:title="StorageTemplate.h">
<polygon fill="white" stroke="black" points="387.5,-58.5 387.5,-79.5 494.5,-79.5 494.5,-58.5 387.5,-58.5"/>
<text text-anchor="middle" x="441" y="-66.5" font-family="DejaVuSans" font-size="10.00">StorageTemplate.h</text>
</a>
</g>
<!-- Node1&#45;&gt;Node5 -->
<g id="edge8" class="edge"><title>Node1&#45;&gt;Node5</title>
<path fill="none" stroke="midnightblue" d="M279.675,-116.497C312.07,-106.959 360.023,-92.8408 395.231,-82.475"/>
<polygon fill="midnightblue" stroke="midnightblue" points="396.654,-85.7049 405.258,-79.5231 394.676,-78.9899 396.654,-85.7049"/>
</g>
<!-- Node6 -->
<g id="node11" class="node"><title>Node6</title>
<polygon fill="white" stroke="#bfbfbf" points="-0.5,-0.5 -0.5,-21.5 40.5,-21.5 40.5,-0.5 -0.5,-0.5"/>
<text text-anchor="middle" x="20" y="-8.5" font-family="DejaVuSans" font-size="10.00">QList</text>
</g>
<!-- Node5&#45;&gt;Node6 -->
<g id="edge10" class="edge"><title>Node5&#45;&gt;Node6</title>
<path fill="none" stroke="midnightblue" d="M387.267,-59.2398C384.474,-58.8035 381.705,-58.3871 379,-58 236.231,-37.571 194.333,-55.591 50.7691,-21.9775"/>
<polygon fill="midnightblue" stroke="midnightblue" points="51.2489,-18.4938 40.7096,-19.5776 49.6244,-25.3027 51.2489,-18.4938"/>
</g>
<!-- Node7 -->
<g id="node13" class="node"><title>Node7</title>
<polygon fill="white" stroke="#bfbfbf" points="57.5,-0.5 57.5,-21.5 126.5,-21.5 126.5,-0.5 57.5,-0.5"/>
<text text-anchor="middle" x="92" y="-8.5" font-family="DejaVuSans" font-size="10.00">QStringList</text>
</g>
<!-- Node5&#45;&gt;Node7 -->
<g id="edge12" class="edge"><title>Node5&#45;&gt;Node7</title>
<path fill="none" stroke="midnightblue" d="M387.248,-59.3646C384.46,-58.8957 381.698,-58.4382 379,-58 273.97,-40.9384 244.195,-43.4437 136.62,-22.1875"/>
<polygon fill="midnightblue" stroke="midnightblue" points="137.155,-18.7253 126.663,-20.1968 135.782,-25.5895 137.155,-18.7253"/>
</g>
<!-- Node8 -->
<g id="node15" class="node"><title>Node8</title>
<polygon fill="white" stroke="#bfbfbf" points="143.5,-0.5 143.5,-21.5 294.5,-21.5 294.5,-0.5 143.5,-0.5"/>
<text text-anchor="middle" x="219" y="-8.5" font-family="DejaVuSans" font-size="10.00">Datatypes/cv_SpeciesTitle.h</text>
</g>
<!-- Node5&#45;&gt;Node8 -->
<g id="edge14" class="edge"><title>Node5&#45;&gt;Node8</title>
<path fill="none" stroke="midnightblue" d="M400.797,-58.4966C363.822,-48.8364 308.858,-34.4765 269.052,-24.0765"/>
<polygon fill="midnightblue" stroke="midnightblue" points="269.838,-20.6646 259.278,-21.5231 268.068,-27.4372 269.838,-20.6646"/>
</g>
<!-- Node9 -->
<g id="node17" class="node"><title>Node9</title>
<polygon fill="white" stroke="#bfbfbf" points="311.5,-0.5 311.5,-21.5 424.5,-21.5 424.5,-0.5 311.5,-0.5"/>
<text text-anchor="middle" x="368" y="-8.5" font-family="DejaVuSans" font-size="10.00">Datatypes/cv_Trait.h</text>
</g>
<!-- Node5&#45;&gt;Node9 -->
<g id="edge16" class="edge"><title>Node5&#45;&gt;Node9</title>
<path fill="none" stroke="midnightblue" d="M427.611,-58.3619C416.909,-49.859 401.704,-37.7785 389.329,-27.9466"/>
<polygon fill="midnightblue" stroke="midnightblue" points="391.311,-25.0511 381.304,-21.5707 386.957,-30.5318 391.311,-25.0511"/>
</g>
<!-- Node10 -->
<g id="node19" class="node"><title>Node10</title>
<polygon fill="white" stroke="#bfbfbf" points="442,-0.5 442,-21.5 588,-21.5 588,-0.5 442,-0.5"/>
<text text-anchor="middle" x="515" y="-8.5" font-family="DejaVuSans" font-size="10.00">Datatypes/cv_IdentityList.h</text>
</g>
<!-- Node5&#45;&gt;Node10 -->
<g id="edge18" class="edge"><title>Node5&#45;&gt;Node10</title>
<path fill="none" stroke="midnightblue" d="M454.573,-58.3619C465.421,-49.859 480.834,-37.7785 493.379,-27.9466"/>
<polygon fill="midnightblue" stroke="midnightblue" points="495.802,-30.4942 501.513,-21.5707 491.484,-24.9848 495.802,-30.4942"/>
</g>
<!-- Node11 -->
<g id="node21" class="node"><title>Node11</title>
<polygon fill="white" stroke="#bfbfbf" points="605.5,-0.5 605.5,-21.5 754.5,-21.5 754.5,-0.5 605.5,-0.5"/>
<text text-anchor="middle" x="680" y="-8.5" font-family="DejaVuSans" font-size="10.00">Datatypes/cv_SuperEffect.h</text>
</g>
<!-- Node5&#45;&gt;Node11 -->
<g id="edge20" class="edge"><title>Node5&#45;&gt;Node11</title>
<path fill="none" stroke="midnightblue" d="M484.281,-58.4966C524.257,-48.7955 583.762,-34.3547 626.66,-23.9445"/>
<polygon fill="midnightblue" stroke="midnightblue" points="627.745,-27.2827 636.638,-21.5231 626.094,-20.4802 627.745,-27.2827"/>
</g>
<!-- Node12 -->
<g id="node23" class="node"><title>Node12</title>
<polygon fill="white" stroke="#bfbfbf" points="772,-0.5 772,-21.5 942,-21.5 942,-0.5 772,-0.5"/>
<text text-anchor="middle" x="857" y="-8.5" font-family="DejaVuSans" font-size="10.00">Datatypes/cv_CreationPoints2.h</text>
</g>
<!-- Node5&#45;&gt;Node12 -->
<g id="edge22" class="edge"><title>Node5&#45;&gt;Node12</title>
<path fill="none" stroke="midnightblue" d="M494.533,-61.5363C564.648,-51.7606 688.41,-34.5054 771.557,-22.9127"/>
<polygon fill="midnightblue" stroke="midnightblue" points="772.069,-26.3754 781.489,-21.5279 771.102,-19.4424 772.069,-26.3754"/>
</g>
<!-- Node13 -->
<g id="node25" class="node"><title>Node13</title>
<polygon fill="white" stroke="#bfbfbf" points="959.5,-0.5 959.5,-21.5 1014.5,-21.5 1014.5,-0.5 959.5,-0.5"/>
<text text-anchor="middle" x="987" y="-8.5" font-family="DejaVuSans" font-size="10.00">QObject</text>
</g>
<!-- Node5&#45;&gt;Node13 -->
<g id="edge24" class="edge"><title>Node5&#45;&gt;Node13</title>
<path fill="none" stroke="midnightblue" d="M494.744,-67.6549C586.509,-64.5741 779.24,-54.6922 949.354,-22.0266"/>
<polygon fill="midnightblue" stroke="midnightblue" points="950.091,-25.449 959.235,-20.0983 948.75,-18.5786 950.091,-25.449"/>
</g>
</g>
</svg>
