<?xml version="1.0" encoding="UTF-8" standalone="no"?>
<!DOCTYPE svg PUBLIC "-//W3C//DTD SVG 1.1//EN"
 "http://www.w3.org/Graphics/SVG/1.1/DTD/svg11.dtd">
<!-- Generated by graphviz version 2.26.3 (20100126.1600)
 -->
<!-- Title: G Pages: 1 -->
<svg width="1022pt" height="204pt"
 viewBox="0.00 0.00 1022.00 204.00" xmlns="http://www.w3.org/2000/svg" xmlns:xlink="http://www.w3.org/1999/xlink">
<g id="graph1" class="graph" transform="scale(1 1) rotate(0) translate(4 200)">
<title>G</title>
<polygon fill="white" stroke="white" points="-4,5 -4,-200 1019,-200 1019,5 -4,5"/>
<!-- Node1 -->
<g id="node1" class="node"><title>Node1</title>
<polygon fill="#bfbfbf" stroke="black" points="579,-174.5 579,-195.5 759,-195.5 759,-174.5 579,-174.5"/>
<text text-anchor="middle" x="669" y="-182.5" font-family="DejaVuSans" font-size="10.00">src/Storage/StorageCharacter.cpp</text>
</g>
<!-- Node2 -->
<g id="node3" class="node"><title>Node2</title>
<polygon fill="white" stroke="#bfbfbf" points="544,-116.5 544,-137.5 600,-137.5 600,-116.5 544,-116.5"/>
<text text-anchor="middle" x="572" y="-124.5" font-family="DejaVuSans" font-size="10.00">QDebug</text>
</g>
<!-- Node1&#45;&gt;Node2 -->
<g id="edge2" class="edge"><title>Node1&#45;&gt;Node2</title>
<path fill="none" stroke="midnightblue" d="M651.209,-174.362C636.441,-165.532 615.222,-152.844 598.462,-142.822"/>
<polygon fill="midnightblue" stroke="midnightblue" points="600.057,-139.699 589.679,-137.571 596.465,-145.707 600.057,-139.699"/>
</g>
<!-- Node3 -->
<g id="node5" class="node"><title>Node3</title>
<a xlink:href="_storage_template_8h.html" target="_top" xlink:title="StorageTemplate.h">
<polygon fill="white" stroke="black" points="270.5,-58.5 270.5,-79.5 377.5,-79.5 377.5,-58.5 270.5,-58.5"/>
<text text-anchor="middle" x="324" y="-66.5" font-family="DejaVuSans" font-size="10.00">StorageTemplate.h</text>
</a>
</g>
<!-- Node1&#45;&gt;Node3 -->
<g id="edge4" class="edge"><title>Node1&#45;&gt;Node3</title>
<path fill="none" stroke="midnightblue" d="M663.034,-174.299C653.707,-158.676 634.111,-129.966 609,-116 524.089,-68.7768 487.375,-94.9453 387.909,-80.2037"/>
<polygon fill="midnightblue" stroke="midnightblue" points="388.185,-76.7037 377.76,-78.5907 387.086,-83.6169 388.185,-76.7037"/>
</g>
<!-- Node12 -->
<g id="node23" class="node"><title>Node12</title>
<a xlink:href="_storage_character_8h.html" target="_top" xlink:title="StorageCharacter.h">
<polygon fill="white" stroke="black" points="656,-116.5 656,-137.5 766,-137.5 766,-116.5 656,-116.5"/>
<text text-anchor="middle" x="711" y="-124.5" font-family="DejaVuSans" font-size="10.00">StorageCharacter.h</text>
</a>
</g>
<!-- Node1&#45;&gt;Node12 -->
<g id="edge22" class="edge"><title>Node1&#45;&gt;Node12</title>
<path fill="none" stroke="midnightblue" d="M676.703,-174.362C682.446,-166.431 690.443,-155.389 697.27,-145.961"/>
<polygon fill="midnightblue" stroke="midnightblue" points="700.315,-147.723 703.345,-137.571 694.645,-143.617 700.315,-147.723"/>
</g>
<!-- Node16 -->
<g id="node35" class="node"><title>Node16</title>
<polygon fill="white" stroke="#bfbfbf" points="783.5,-116.5 783.5,-137.5 872.5,-137.5 872.5,-116.5 783.5,-116.5"/>
<text text-anchor="middle" x="828" y="-124.5" font-family="DejaVuSans" font-size="10.00">Config/Config.h</text>
</g>
<!-- Node1&#45;&gt;Node16 -->
<g id="edge38" class="edge"><title>Node1&#45;&gt;Node16</title>
<path fill="none" stroke="midnightblue" d="M697.794,-174.497C723.491,-165.123 761.318,-151.324 789.587,-141.012"/>
<polygon fill="midnightblue" stroke="midnightblue" points="790.957,-144.238 799.152,-137.523 788.558,-137.662 790.957,-144.238"/>
</g>
<!-- Node4 -->
<g id="node7" class="node"><title>Node4</title>
<polygon fill="white" stroke="#bfbfbf" points="187.5,-0.5 187.5,-21.5 228.5,-21.5 228.5,-0.5 187.5,-0.5"/>
<text text-anchor="middle" x="208" y="-8.5" font-family="DejaVuSans" font-size="10.00">QList</text>
</g>
<!-- Node3&#45;&gt;Node4 -->
<g id="edge6" class="edge"><title>Node3&#45;&gt;Node4</title>
<path fill="none" stroke="midnightblue" d="M302.993,-58.4966C284.844,-49.4222 258.402,-36.2009 238.021,-26.0103"/>
<polygon fill="midnightblue" stroke="midnightblue" points="239.36,-22.7669 228.85,-21.4252 236.229,-29.0279 239.36,-22.7669"/>
</g>
<!-- Node5 -->
<g id="node9" class="node"><title>Node5</title>
<polygon fill="white" stroke="#bfbfbf" points="245.5,-0.5 245.5,-21.5 314.5,-21.5 314.5,-0.5 245.5,-0.5"/>
<text text-anchor="middle" x="280" y="-8.5" font-family="DejaVuSans" font-size="10.00">QStringList</text>
</g>
<!-- Node3&#45;&gt;Node5 -->
<g id="edge8" class="edge"><title>Node3&#45;&gt;Node5</title>
<path fill="none" stroke="midnightblue" d="M315.93,-58.3619C309.851,-50.3496 301.363,-39.1605 294.163,-29.6696"/>
<polygon fill="midnightblue" stroke="midnightblue" points="296.851,-27.4222 288.019,-21.5707 291.275,-31.653 296.851,-27.4222"/>
</g>
<!-- Node6 -->
<g id="node11" class="node"><title>Node6</title>
<polygon fill="white" stroke="#bfbfbf" points="331.5,-0.5 331.5,-21.5 482.5,-21.5 482.5,-0.5 331.5,-0.5"/>
<text text-anchor="middle" x="407" y="-8.5" font-family="DejaVuSans" font-size="10.00">Datatypes/cv_SpeciesTitle.h</text>
</g>
<!-- Node3&#45;&gt;Node6 -->
<g id="edge10" class="edge"><title>Node3&#45;&gt;Node6</title>
<path fill="none" stroke="midnightblue" d="M339.223,-58.3619C351.625,-49.6955 369.346,-37.3126 383.557,-27.3819"/>
<polygon fill="midnightblue" stroke="midnightblue" points="385.681,-30.1676 391.873,-21.5707 381.671,-24.4297 385.681,-30.1676"/>
</g>
<!-- Node7 -->
<g id="node13" class="node"><title>Node7</title>
<polygon fill="white" stroke="#bfbfbf" points="665.5,-0.5 665.5,-21.5 778.5,-21.5 778.5,-0.5 665.5,-0.5"/>
<text text-anchor="middle" x="722" y="-8.5" font-family="DejaVuSans" font-size="10.00">Datatypes/cv_Trait.h</text>
</g>
<!-- Node3&#45;&gt;Node7 -->
<g id="edge12" class="edge"><title>Node3&#45;&gt;Node7</title>
<path fill="none" stroke="midnightblue" d="M377.745,-59.3171C380.535,-58.8606 383.299,-58.4188 386,-58 502.902,-39.8738 535.173,-40.1133 655.339,-22.2126"/>
<polygon fill="midnightblue" stroke="midnightblue" points="655.929,-25.6634 665.299,-20.7177 654.89,-18.7409 655.929,-25.6634"/>
</g>
<!-- Node8 -->
<g id="node15" class="node"><title>Node8</title>
<polygon fill="white" stroke="#bfbfbf" points="796,-0.5 796,-21.5 942,-21.5 942,-0.5 796,-0.5"/>
<text text-anchor="middle" x="869" y="-8.5" font-family="DejaVuSans" font-size="10.00">Datatypes/cv_IdentityList.h</text>
</g>
<!-- Node3&#45;&gt;Node8 -->
<g id="edge14" class="edge"><title>Node3&#45;&gt;Node8</title>
<path fill="none" stroke="midnightblue" d="M377.724,-59.1766C380.52,-58.7568 383.291,-58.3612 386,-58 560.165,-34.7759 607.473,-41.6375 785.728,-22.1001"/>
<polygon fill="midnightblue" stroke="midnightblue" points="786.149,-25.575 795.702,-20.9945 785.377,-18.6177 786.149,-25.575"/>
</g>
<!-- Node9 -->
<g id="node17" class="node"><title>Node9</title>
<polygon fill="white" stroke="#bfbfbf" points="499.5,-0.5 499.5,-21.5 648.5,-21.5 648.5,-0.5 499.5,-0.5"/>
<text text-anchor="middle" x="574" y="-8.5" font-family="DejaVuSans" font-size="10.00">Datatypes/cv_SuperEffect.h</text>
</g>
<!-- Node3&#45;&gt;Node9 -->
<g id="edge16" class="edge"><title>Node3&#45;&gt;Node9</title>
<path fill="none" stroke="midnightblue" d="M369.273,-58.4966C411.265,-48.7545 473.859,-34.2328 518.772,-23.813"/>
<polygon fill="midnightblue" stroke="midnightblue" points="519.692,-27.1926 528.642,-21.5231 518.11,-20.3737 519.692,-27.1926"/>
</g>
<!-- Node10 -->
<g id="node19" class="node"><title>Node10</title>
<polygon fill="white" stroke="#bfbfbf" points="0,-0.5 0,-21.5 170,-21.5 170,-0.5 0,-0.5"/>
<text text-anchor="middle" x="85" y="-8.5" font-family="DejaVuSans" font-size="10.00">Datatypes/cv_CreationPoints2.h</text>
</g>
<!-- Node3&#45;&gt;Node10 -->
<g id="edge18" class="edge"><title>Node3&#45;&gt;Node10</title>
<path fill="none" stroke="midnightblue" d="M280.719,-58.4966C240.743,-48.7955 181.238,-34.3547 138.34,-23.9445"/>
<polygon fill="midnightblue" stroke="midnightblue" points="138.906,-20.4802 128.362,-21.5231 137.255,-27.2827 138.906,-20.4802"/>
</g>
<!-- Node11 -->
<g id="node21" class="node"><title>Node11</title>
<polygon fill="white" stroke="#bfbfbf" points="959.5,-0.5 959.5,-21.5 1014.5,-21.5 1014.5,-0.5 959.5,-0.5"/>
<text text-anchor="middle" x="987" y="-8.5" font-family="DejaVuSans" font-size="10.00">QObject</text>
</g>
<!-- Node3&#45;&gt;Node11 -->
<g id="edge20" class="edge"><title>Node3&#45;&gt;Node11</title>
<path fill="none" stroke="midnightblue" d="M377.714,-59.0908C380.512,-58.6934 383.287,-58.3261 386,-58 632.529,-28.3709 701.634,-66.0505 949.23,-21.9883"/>
<polygon fill="midnightblue" stroke="midnightblue" points="950.032,-25.4003 959.25,-20.1782 948.787,-18.5118 950.032,-25.4003"/>
</g>
<!-- Node12&#45;&gt;Node3 -->
<g id="edge34" class="edge"><title>Node12&#45;&gt;Node3</title>
<path fill="none" stroke="midnightblue" d="M655.652,-118.085C651.036,-117.369 646.439,-116.666 642,-116 531.592,-99.4377 501.177,-98.1035 387.871,-80.2607"/>
<polygon fill="midnightblue" stroke="midnightblue" points="388.173,-76.7649 377.749,-78.6577 387.078,-83.6788 388.173,-76.7649"/>
</g>
<!-- Node12&#45;&gt;Node7 -->
<g id="edge28" class="edge"><title>Node12&#45;&gt;Node7</title>
<path fill="none" stroke="midnightblue" d="M764.918,-116.462C815.338,-106.063 884.055,-90.272 892,-80 897.982,-72.2659 897.922,-65.7808 892,-58 885.046,-48.8627 827.881,-34.2978 781.73,-23.8024"/>
<polygon fill="midnightblue" stroke="midnightblue" points="782.298,-20.3427 771.774,-21.5616 780.761,-27.1719 782.298,-20.3427"/>
</g>
<!-- Node12&#45;&gt;Node8 -->
<g id="edge26" class="edge"><title>Node12&#45;&gt;Node8</title>
<path fill="none" stroke="midnightblue" d="M766.085,-117.444C821.208,-107.323 899.094,-91.2804 908,-80 920.707,-63.9053 905.404,-43.167 890.396,-28.6453"/>
<polygon fill="midnightblue" stroke="midnightblue" points="892.479,-25.8094 882.724,-21.6756 887.772,-30.9905 892.479,-25.8094"/>
</g>
<!-- Node12&#45;&gt;Node11 -->
<g id="edge36" class="edge"><title>Node12&#45;&gt;Node11</title>
<path fill="none" stroke="midnightblue" d="M766.158,-116.624C824.615,-105.343 910.373,-87.8751 924,-80 945.25,-67.7197 963.389,-45.8524 974.67,-30.0203"/>
<polygon fill="midnightblue" stroke="midnightblue" points="977.732,-31.7433 980.492,-21.5142 971.956,-27.7896 977.732,-31.7433"/>
</g>
<!-- Node13 -->
<g id="node25" class="node"><title>Node13</title>
<polygon fill="white" stroke="#bfbfbf" points="395,-58.5 395,-79.5 523,-79.5 523,-58.5 395,-58.5"/>
<text text-anchor="middle" x="459" y="-66.5" font-family="DejaVuSans" font-size="10.00">Datatypes/cv_Identity.h</text>
</g>
<!-- Node12&#45;&gt;Node13 -->
<g id="edge24" class="edge"><title>Node12&#45;&gt;Node13</title>
<path fill="none" stroke="midnightblue" d="M665.365,-116.497C623.037,-106.755 559.942,-92.2328 514.67,-81.813"/>
<polygon fill="midnightblue" stroke="midnightblue" points="515.251,-78.3553 504.721,-79.5231 513.681,-85.1769 515.251,-78.3553"/>
</g>
<!-- Node14 -->
<g id="node29" class="node"><title>Node14</title>
<polygon fill="white" stroke="#bfbfbf" points="540.5,-58.5 540.5,-79.5 701.5,-79.5 701.5,-58.5 540.5,-58.5"/>
<text text-anchor="middle" x="621" y="-66.5" font-family="DejaVuSans" font-size="10.00">Datatypes/cv_Derangement.h</text>
</g>
<!-- Node12&#45;&gt;Node14 -->
<g id="edge30" class="edge"><title>Node12&#45;&gt;Node14</title>
<path fill="none" stroke="midnightblue" d="M694.493,-116.362C680.918,-107.614 661.467,-95.0786 645.985,-85.1015"/>
<polygon fill="midnightblue" stroke="midnightblue" points="647.704,-82.0457 637.403,-79.5707 643.912,-87.9297 647.704,-82.0457"/>
</g>
<!-- Node15 -->
<g id="node31" class="node"><title>Node15</title>
<polygon fill="white" stroke="#bfbfbf" points="719,-58.5 719,-79.5 883,-79.5 883,-58.5 719,-58.5"/>
<text text-anchor="middle" x="801" y="-66.5" font-family="DejaVuSans" font-size="10.00">Datatypes/cv_CreationPoints.h</text>
</g>
<!-- Node12&#45;&gt;Node15 -->
<g id="edge32" class="edge"><title>Node12&#45;&gt;Node15</title>
<path fill="none" stroke="midnightblue" d="M727.507,-116.362C741.082,-107.614 760.533,-95.0786 776.015,-85.1015"/>
<polygon fill="midnightblue" stroke="midnightblue" points="778.088,-87.9297 784.597,-79.5707 774.296,-82.0457 778.088,-87.9297"/>
</g>
</g>
</svg>
