<?xml version="1.0" encoding="UTF-8" standalone="no"?>
<!DOCTYPE svg PUBLIC "-//W3C//DTD SVG 1.1//EN"
 "http://www.w3.org/Graphics/SVG/1.1/DTD/svg11.dtd">
<!-- Generated by graphviz version 2.26.3 (20100126.1600)
 -->
<!-- Title: G Pages: 1 -->
<svg width="1138pt" height="146pt"
 viewBox="0.00 0.00 1138.00 146.00" xmlns="http://www.w3.org/2000/svg" xmlns:xlink="http://www.w3.org/1999/xlink">
<g id="graph1" class="graph" transform="scale(1 1) rotate(0) translate(4 142)">
<title>G</title>
<polygon fill="white" stroke="white" points="-4,5 -4,-142 1135,-142 1135,5 -4,5"/>
<!-- Node1 -->
<g id="node1" class="node"><title>Node1</title>
<polygon fill="#bfbfbf" stroke="black" points="359.5,-116.5 359.5,-137.5 528.5,-137.5 528.5,-116.5 359.5,-116.5"/>
<text text-anchor="middle" x="444" y="-124.5" font-family="DejaVuSans" font-size="10.00">src/Storage/StorageCharacter.h</text>
</g>
<!-- Node2 -->
<g id="node3" class="node"><title>Node2</title>
<polygon fill="white" stroke="#bfbfbf" points="172,-58.5 172,-79.5 300,-79.5 300,-58.5 172,-58.5"/>
<text text-anchor="middle" x="236" y="-66.5" font-family="DejaVuSans" font-size="10.00">Datatypes/cv_Identity.h</text>
</g>
<!-- Node1&#45;&gt;Node2 -->
<g id="edge2" class="edge"><title>Node1&#45;&gt;Node2</title>
<path fill="none" stroke="midnightblue" d="M406.333,-116.497C371.983,-106.918 321.063,-92.7196 283.846,-82.3418"/>
<polygon fill="midnightblue" stroke="midnightblue" points="284.311,-78.8377 273.738,-79.5231 282.43,-85.5805 284.311,-78.8377"/>
</g>
<!-- Node3 -->
<g id="node5" class="node"><title>Node3</title>
<polygon fill="white" stroke="#bfbfbf" points="0,-0.5 0,-21.5 146,-21.5 146,-0.5 0,-0.5"/>
<text text-anchor="middle" x="73" y="-8.5" font-family="DejaVuSans" font-size="10.00">Datatypes/cv_IdentityList.h</text>
</g>
<!-- Node1&#45;&gt;Node3 -->
<g id="edge4" class="edge"><title>Node1&#45;&gt;Node3</title>
<path fill="none" stroke="midnightblue" d="M418.304,-116.483C397.342,-107.593 367.186,-94.0846 342,-80 326.615,-71.3965 325.288,-64.739 309,-58 280.914,-46.3796 208.507,-32.7843 151.239,-23.2136"/>
<polygon fill="midnightblue" stroke="midnightblue" points="151.537,-19.7154 141.1,-21.5345 150.394,-26.6214 151.537,-19.7154"/>
</g>
<!-- Node4 -->
<g id="node7" class="node"><title>Node4</title>
<polygon fill="white" stroke="#bfbfbf" points="163.5,-0.5 163.5,-21.5 276.5,-21.5 276.5,-0.5 163.5,-0.5"/>
<text text-anchor="middle" x="220" y="-8.5" font-family="DejaVuSans" font-size="10.00">Datatypes/cv_Trait.h</text>
</g>
<!-- Node1&#45;&gt;Node4 -->
<g id="edge6" class="edge"><title>Node1&#45;&gt;Node4</title>
<path fill="none" stroke="midnightblue" d="M430.438,-116.347C411.463,-101.796 375.544,-75.5162 342,-58 316.624,-44.749 286.64,-33.1467 262.747,-24.785"/>
<polygon fill="midnightblue" stroke="midnightblue" points="263.841,-21.4601 253.247,-21.5175 261.565,-28.0796 263.841,-21.4601"/>
</g>
<!-- Node5 -->
<g id="node9" class="node"><title>Node5</title>
<polygon fill="white" stroke="#bfbfbf" points="294,-0.5 294,-21.5 392,-21.5 392,-0.5 294,-0.5"/>
<text text-anchor="middle" x="343" y="-8.5" font-family="DejaVuSans" font-size="10.00">Datatypes/Trait.h</text>
</g>
<!-- Node1&#45;&gt;Node5 -->
<g id="edge8" class="edge"><title>Node1&#45;&gt;Node5</title>
<path fill="none" stroke="midnightblue" d="M434.679,-116.295C417.392,-96.4408 380.186,-53.709 358.867,-29.2239"/>
<polygon fill="midnightblue" stroke="midnightblue" points="361.505,-26.9228 352.298,-21.6792 356.225,-31.5194 361.505,-26.9228"/>
</g>
<!-- Node6 -->
<g id="node11" class="node"><title>Node6</title>
<polygon fill="white" stroke="#bfbfbf" points="593.5,-58.5 593.5,-79.5 754.5,-79.5 754.5,-58.5 593.5,-58.5"/>
<text text-anchor="middle" x="674" y="-66.5" font-family="DejaVuSans" font-size="10.00">Datatypes/cv_Derangement.h</text>
</g>
<!-- Node1&#45;&gt;Node6 -->
<g id="edge10" class="edge"><title>Node1&#45;&gt;Node6</title>
<path fill="none" stroke="midnightblue" d="M485.651,-116.497C524.04,-106.816 581.145,-92.4156 622.407,-82.0105"/>
<polygon fill="midnightblue" stroke="midnightblue" points="623.43,-85.3621 632.271,-79.5231 621.718,-78.5746 623.43,-85.3621"/>
</g>
<!-- Node7 -->
<g id="node13" class="node"><title>Node7</title>
<polygon fill="white" stroke="#bfbfbf" points="772,-58.5 772,-79.5 936,-79.5 936,-58.5 772,-58.5"/>
<text text-anchor="middle" x="854" y="-66.5" font-family="DejaVuSans" font-size="10.00">Datatypes/cv_CreationPoints.h</text>
</g>
<!-- Node1&#45;&gt;Node7 -->
<g id="edge12" class="edge"><title>Node1&#45;&gt;Node7</title>
<path fill="none" stroke="midnightblue" d="M518.248,-116.497C588.995,-106.488 695.401,-91.436 769.394,-80.9686"/>
<polygon fill="midnightblue" stroke="midnightblue" points="770.202,-84.3893 779.613,-79.5231 769.221,-77.4583 770.202,-84.3893"/>
</g>
<!-- Node8 -->
<g id="node15" class="node"><title>Node8</title>
<a xlink:href="_storage_template_8h.html" target="_top" xlink:title="StorageTemplate.h">
<polygon fill="white" stroke="black" points="431.5,-58.5 431.5,-79.5 538.5,-79.5 538.5,-58.5 431.5,-58.5"/>
<text text-anchor="middle" x="485" y="-66.5" font-family="DejaVuSans" font-size="10.00">StorageTemplate.h</text>
</a>
</g>
<!-- Node1&#45;&gt;Node8 -->
<g id="edge14" class="edge"><title>Node1&#45;&gt;Node8</title>
<path fill="none" stroke="midnightblue" d="M451.52,-116.362C457.126,-108.431 464.932,-97.3885 471.597,-87.9606"/>
<polygon fill="midnightblue" stroke="midnightblue" points="474.613,-89.7568 477.528,-79.5707 468.897,-85.7161 474.613,-89.7568"/>
</g>
<!-- Node14 -->
<g id="node30" class="node"><title>Node14</title>
<polygon fill="white" stroke="#bfbfbf" points="1075.5,-0.5 1075.5,-21.5 1130.5,-21.5 1130.5,-0.5 1075.5,-0.5"/>
<text text-anchor="middle" x="1103" y="-8.5" font-family="DejaVuSans" font-size="10.00">QObject</text>
</g>
<!-- Node1&#45;&gt;Node14 -->
<g id="edge34" class="edge"><title>Node1&#45;&gt;Node14</title>
<path fill="none" stroke="midnightblue" d="M468.878,-116.454C489.941,-107.334 520.8,-93.5217 547,-80 564.342,-71.05 566.355,-63.761 585,-58 787.138,4.45632 853.85,-59.6311 1065.39,-21.9574"/>
<polygon fill="midnightblue" stroke="midnightblue" points="1066.04,-25.3959 1075.24,-20.1474 1064.78,-18.511 1066.04,-25.3959"/>
</g>
<!-- Node8&#45;&gt;Node3 -->
<g id="edge26" class="edge"><title>Node8&#45;&gt;Node3</title>
<path fill="none" stroke="midnightblue" d="M431.138,-61.4175C361.203,-51.5723 238.412,-34.2861 156.389,-22.7393"/>
<polygon fill="midnightblue" stroke="midnightblue" points="156.736,-19.2536 146.346,-21.3254 155.76,-26.1853 156.736,-19.2536"/>
</g>
<!-- Node8&#45;&gt;Node4 -->
<g id="edge22" class="edge"><title>Node8&#45;&gt;Node4</title>
<path fill="none" stroke="midnightblue" d="M437.01,-58.4966C392.312,-48.7136 325.592,-34.1107 277.943,-23.6819"/>
<polygon fill="midnightblue" stroke="midnightblue" points="278.597,-20.2421 268.08,-21.5231 277.1,-27.0803 278.597,-20.2421"/>
</g>
<!-- Node8&#45;&gt;Node5 -->
<g id="edge24" class="edge"><title>Node8&#45;&gt;Node5</title>
<path fill="none" stroke="midnightblue" d="M459.285,-58.4966C436.707,-49.2746 403.642,-35.7695 378.537,-25.5153"/>
<polygon fill="midnightblue" stroke="midnightblue" points="379.585,-22.1624 369.004,-21.6212 376.938,-28.6427 379.585,-22.1624"/>
</g>
<!-- Node9 -->
<g id="node17" class="node"><title>Node9</title>
<polygon fill="white" stroke="#bfbfbf" points="931.5,-0.5 931.5,-21.5 972.5,-21.5 972.5,-0.5 931.5,-0.5"/>
<text text-anchor="middle" x="952" y="-8.5" font-family="DejaVuSans" font-size="10.00">QList</text>
</g>
<!-- Node8&#45;&gt;Node9 -->
<g id="edge16" class="edge"><title>Node8&#45;&gt;Node9</title>
<path fill="none" stroke="midnightblue" d="M538.711,-59.8617C543.201,-59.1951 547.675,-58.5642 552,-58 713.063,-36.9873 759.866,-58.8222 921.5,-21.8867"/>
<polygon fill="midnightblue" stroke="midnightblue" points="922.35,-25.2824 931.298,-19.6086 920.765,-18.4643 922.35,-25.2824"/>
</g>
<!-- Node10 -->
<g id="node19" class="node"><title>Node10</title>
<polygon fill="white" stroke="#bfbfbf" points="989.5,-0.5 989.5,-21.5 1058.5,-21.5 1058.5,-0.5 989.5,-0.5"/>
<text text-anchor="middle" x="1024" y="-8.5" font-family="DejaVuSans" font-size="10.00">QStringList</text>
</g>
<!-- Node8&#45;&gt;Node10 -->
<g id="edge18" class="edge"><title>Node8&#45;&gt;Node10</title>
<path fill="none" stroke="midnightblue" d="M538.703,-59.7999C543.195,-59.147 547.672,-58.5361 552,-58 738.641,-34.8843 790.563,-53.1719 979.397,-22.0548"/>
<polygon fill="midnightblue" stroke="midnightblue" points="980.087,-25.4882 989.372,-20.3865 978.932,-18.5841 980.087,-25.4882"/>
</g>
<!-- Node11 -->
<g id="node21" class="node"><title>Node11</title>
<polygon fill="white" stroke="#bfbfbf" points="409.5,-0.5 409.5,-21.5 560.5,-21.5 560.5,-0.5 409.5,-0.5"/>
<text text-anchor="middle" x="485" y="-8.5" font-family="DejaVuSans" font-size="10.00">Datatypes/cv_SpeciesTitle.h</text>
</g>
<!-- Node8&#45;&gt;Node11 -->
<g id="edge20" class="edge"><title>Node8&#45;&gt;Node11</title>
<path fill="none" stroke="midnightblue" d="M485,-58.3619C485,-50.9219 485,-40.7427 485,-31.7276"/>
<polygon fill="midnightblue" stroke="midnightblue" points="488.5,-31.5706 485,-21.5707 481.5,-31.5707 488.5,-31.5706"/>
</g>
<!-- Node12 -->
<g id="node26" class="node"><title>Node12</title>
<polygon fill="white" stroke="#bfbfbf" points="577.5,-0.5 577.5,-21.5 726.5,-21.5 726.5,-0.5 577.5,-0.5"/>
<text text-anchor="middle" x="652" y="-8.5" font-family="DejaVuSans" font-size="10.00">Datatypes/cv_SuperEffect.h</text>
</g>
<!-- Node8&#45;&gt;Node12 -->
<g id="edge28" class="edge"><title>Node8&#45;&gt;Node12</title>
<path fill="none" stroke="midnightblue" d="M515.242,-58.4966C542.35,-49.082 582.31,-35.2036 612.043,-24.8773"/>
<polygon fill="midnightblue" stroke="midnightblue" points="613.403,-28.1102 621.701,-21.5231 611.106,-21.4977 613.403,-28.1102"/>
</g>
<!-- Node13 -->
<g id="node28" class="node"><title>Node13</title>
<polygon fill="white" stroke="#bfbfbf" points="744,-0.5 744,-21.5 914,-21.5 914,-0.5 744,-0.5"/>
<text text-anchor="middle" x="829" y="-8.5" font-family="DejaVuSans" font-size="10.00">Datatypes/cv_CreationPoints2.h</text>
</g>
<!-- Node8&#45;&gt;Node13 -->
<g id="edge30" class="edge"><title>Node8&#45;&gt;Node13</title>
<path fill="none" stroke="midnightblue" d="M538.75,-59.9375C597.314,-50.0633 691.327,-34.2122 756.416,-23.2379"/>
<polygon fill="midnightblue" stroke="midnightblue" points="757.326,-26.6341 766.605,-21.5202 756.162,-19.7315 757.326,-26.6341"/>
</g>
<!-- Node8&#45;&gt;Node14 -->
<g id="edge32" class="edge"><title>Node8&#45;&gt;Node14</title>
<path fill="none" stroke="midnightblue" d="M538.695,-59.7336C543.189,-59.0954 547.668,-58.5059 552,-58 776.56,-31.7747 839.554,-62.8559 1065.08,-22.0297"/>
<polygon fill="midnightblue" stroke="midnightblue" points="1066.04,-25.4111 1075.25,-20.1608 1064.78,-18.5265 1066.04,-25.4111"/>
</g>
</g>
</svg>
