<?xml version="1.0" encoding="UTF-8" standalone="no"?>
<!DOCTYPE svg PUBLIC "-//W3C//DTD SVG 1.1//EN"
 "http://www.w3.org/Graphics/SVG/1.1/DTD/svg11.dtd">
<!-- Generated by graphviz version 2.26.3 (20100126.1600)
 -->
<!-- Title: G Pages: 1 -->
<svg width="844pt" height="146pt"
 viewBox="0.00 0.00 844.00 146.00" xmlns="http://www.w3.org/2000/svg" xmlns:xlink="http://www.w3.org/1999/xlink">
<g id="graph1" class="graph" transform="scale(1 1) rotate(0) translate(4 142)">
<title>G</title>
<polygon fill="white" stroke="white" points="-4,5 -4,-142 841,-142 841,5 -4,5"/>
<!-- Node1 -->
<g id="node1" class="node"><title>Node1</title>
<polygon fill="#bfbfbf" stroke="black" points="138.5,-116.5 138.5,-137.5 315.5,-137.5 315.5,-116.5 138.5,-116.5"/>
<text text-anchor="middle" x="227" y="-124.5" font-family="DejaVuSans" font-size="10.00">src/Storage/StorageTemplate.cpp</text>
</g>
<!-- Node2 -->
<g id="node3" class="node"><title>Node2</title>
<polygon fill="white" stroke="#bfbfbf" points="90,-58.5 90,-79.5 146,-79.5 146,-58.5 90,-58.5"/>
<text text-anchor="middle" x="118" y="-66.5" font-family="DejaVuSans" font-size="10.00">QDebug</text>
</g>
<!-- Node1&#45;&gt;Node2 -->
<g id="edge2" class="edge"><title>Node1&#45;&gt;Node2</title>
<path fill="none" stroke="midnightblue" d="M207.261,-116.497C190.39,-107.519 165.891,-94.4835 146.826,-84.3387"/>
<polygon fill="midnightblue" stroke="midnightblue" points="148.433,-81.2289 137.961,-79.6212 145.144,-87.4086 148.433,-81.2289"/>
</g>
<!-- Node3 -->
<g id="node5" class="node"><title>Node3</title>
<polygon fill="white" stroke="#bfbfbf" points="163.5,-58.5 163.5,-79.5 290.5,-79.5 290.5,-58.5 163.5,-58.5"/>
<text text-anchor="middle" x="227" y="-66.5" font-family="DejaVuSans" font-size="10.00">Exceptions/Exception.h</text>
</g>
<!-- Node1&#45;&gt;Node3 -->
<g id="edge4" class="edge"><title>Node1&#45;&gt;Node3</title>
<path fill="none" stroke="midnightblue" d="M227,-116.362C227,-108.922 227,-98.7427 227,-89.7276"/>
<polygon fill="midnightblue" stroke="midnightblue" points="230.5,-89.5706 227,-79.5707 223.5,-89.5707 230.5,-89.5706"/>
</g>
<!-- Node4 -->
<g id="node7" class="node"><title>Node4</title>
<a xlink:href="_storage_template_8h.html" target="_top" xlink:title="StorageTemplate.h">
<polygon fill="white" stroke="black" points="307.5,-58.5 307.5,-79.5 414.5,-79.5 414.5,-58.5 307.5,-58.5"/>
<text text-anchor="middle" x="361" y="-66.5" font-family="DejaVuSans" font-size="10.00">StorageTemplate.h</text>
</a>
</g>
<!-- Node1&#45;&gt;Node4 -->
<g id="edge6" class="edge"><title>Node1&#45;&gt;Node4</title>
<path fill="none" stroke="midnightblue" d="M251.266,-116.497C272.478,-107.315 303.498,-93.8889 327.15,-83.6516"/>
<polygon fill="midnightblue" stroke="midnightblue" points="328.674,-86.8055 336.461,-79.6212 325.894,-80.3815 328.674,-86.8055"/>
</g>
<!-- Node5 -->
<g id="node9" class="node"><title>Node5</title>
<polygon fill="white" stroke="#bfbfbf" points="-0.5,-0.5 -0.5,-21.5 40.5,-21.5 40.5,-0.5 -0.5,-0.5"/>
<text text-anchor="middle" x="20" y="-8.5" font-family="DejaVuSans" font-size="10.00">QList</text>
</g>
<!-- Node4&#45;&gt;Node5 -->
<g id="edge8" class="edge"><title>Node4&#45;&gt;Node5</title>
<path fill="none" stroke="midnightblue" d="M307.25,-59.3532C304.461,-58.8873 301.698,-58.4335 299,-58 191.303,-40.6968 159.48,-49.5376 50.4644,-21.9916"/>
<polygon fill="midnightblue" stroke="midnightblue" points="51.2884,-18.5897 40.7318,-19.4887 49.545,-25.3691 51.2884,-18.5897"/>
</g>
<!-- Node6 -->
<g id="node11" class="node"><title>Node6</title>
<polygon fill="white" stroke="#bfbfbf" points="57.5,-0.5 57.5,-21.5 126.5,-21.5 126.5,-0.5 57.5,-0.5"/>
<text text-anchor="middle" x="92" y="-8.5" font-family="DejaVuSans" font-size="10.00">QStringList</text>
</g>
<!-- Node4&#45;&gt;Node6 -->
<g id="edge10" class="edge"><title>Node4&#45;&gt;Node6</title>
<path fill="none" stroke="midnightblue" d="M307.425,-58.5707C263.778,-49.9123 200.323,-36.9588 136.526,-22.2928"/>
<polygon fill="midnightblue" stroke="midnightblue" points="137.232,-18.8638 126.701,-20.0209 135.655,-25.6839 137.232,-18.8638"/>
</g>
<!-- Node7 -->
<g id="node13" class="node"><title>Node7</title>
<polygon fill="white" stroke="#bfbfbf" points="143.5,-0.5 143.5,-21.5 294.5,-21.5 294.5,-0.5 143.5,-0.5"/>
<text text-anchor="middle" x="219" y="-8.5" font-family="DejaVuSans" font-size="10.00">Datatypes/cv_SpeciesTitle.h</text>
</g>
<!-- Node4&#45;&gt;Node7 -->
<g id="edge12" class="edge"><title>Node4&#45;&gt;Node7</title>
<path fill="none" stroke="midnightblue" d="M335.285,-58.4966C312.707,-49.2746 279.642,-35.7695 254.537,-25.5153"/>
<polygon fill="midnightblue" stroke="midnightblue" points="255.585,-22.1624 245.004,-21.6212 252.938,-28.6427 255.585,-22.1624"/>
</g>
<!-- Node8 -->
<g id="node15" class="node"><title>Node8</title>
<polygon fill="white" stroke="#bfbfbf" points="312,-0.5 312,-21.5 410,-21.5 410,-0.5 312,-0.5"/>
<text text-anchor="middle" x="361" y="-8.5" font-family="DejaVuSans" font-size="10.00">Datatypes/Trait.h</text>
</g>
<!-- Node4&#45;&gt;Node8 -->
<g id="edge14" class="edge"><title>Node4&#45;&gt;Node8</title>
<path fill="none" stroke="midnightblue" d="M361,-58.3619C361,-50.9219 361,-40.7427 361,-31.7276"/>
<polygon fill="midnightblue" stroke="midnightblue" points="364.5,-31.5706 361,-21.5707 357.5,-31.5707 364.5,-31.5706"/>
</g>
<!-- Node9 -->
<g id="node17" class="node"><title>Node9</title>
<polygon fill="white" stroke="#bfbfbf" points="427.5,-0.5 427.5,-21.5 576.5,-21.5 576.5,-0.5 427.5,-0.5"/>
<text text-anchor="middle" x="502" y="-8.5" font-family="DejaVuSans" font-size="10.00">Datatypes/cv_SuperEffect.h</text>
</g>
<!-- Node4&#45;&gt;Node9 -->
<g id="edge16" class="edge"><title>Node4&#45;&gt;Node9</title>
<path fill="none" stroke="midnightblue" d="M386.534,-58.4966C408.953,-49.2746 441.785,-35.7695 466.713,-25.5153"/>
<polygon fill="midnightblue" stroke="midnightblue" points="468.263,-28.6623 476.179,-21.6212 465.6,-22.1886 468.263,-28.6623"/>
</g>
<!-- Node10 -->
<g id="node19" class="node"><title>Node10</title>
<polygon fill="white" stroke="#bfbfbf" points="594,-0.5 594,-21.5 764,-21.5 764,-0.5 594,-0.5"/>
<text text-anchor="middle" x="679" y="-8.5" font-family="DejaVuSans" font-size="10.00">Datatypes/cv_CreationPoints2.h</text>
</g>
<!-- Node4&#45;&gt;Node10 -->
<g id="edge18" class="edge"><title>Node4&#45;&gt;Node10</title>
<path fill="none" stroke="midnightblue" d="M414.585,-59.2267C468.799,-49.3386 552.771,-34.0228 611.499,-23.3115"/>
<polygon fill="midnightblue" stroke="midnightblue" points="612.217,-26.7383 621.427,-21.5007 610.961,-19.8519 612.217,-26.7383"/>
</g>
<!-- Node11 -->
<g id="node21" class="node"><title>Node11</title>
<polygon fill="white" stroke="#bfbfbf" points="781.5,-0.5 781.5,-21.5 836.5,-21.5 836.5,-0.5 781.5,-0.5"/>
<text text-anchor="middle" x="809" y="-8.5" font-family="DejaVuSans" font-size="10.00">QObject</text>
</g>
<!-- Node4&#45;&gt;Node11 -->
<g id="edge20" class="edge"><title>Node4&#45;&gt;Node11</title>
<path fill="none" stroke="midnightblue" d="M414.5,-66.0308C491.632,-61.0628 638.557,-49.0309 771.286,-22.0881"/>
<polygon fill="midnightblue" stroke="midnightblue" points="772.137,-25.4864 781.223,-20.0372 770.722,-18.6308 772.137,-25.4864"/>
</g>
</g>
</svg>
