<?xml version="1.0" encoding="UTF-8" standalone="no"?>
<!DOCTYPE svg PUBLIC "-//W3C//DTD SVG 1.1//EN"
 "http://www.w3.org/Graphics/SVG/1.1/DTD/svg11.dtd">
<!-- Generated by graphviz version 2.26.3 (20100126.1600)
 -->
<!-- Title: G Pages: 1 -->
<svg width="1138pt" height="88pt"
 viewBox="0.00 0.00 1138.00 88.00" xmlns="http://www.w3.org/2000/svg" xmlns:xlink="http://www.w3.org/1999/xlink">
<g id="graph1" class="graph" transform="scale(1 1) rotate(0) translate(4 84)">
<title>G</title>
<polygon fill="white" stroke="white" points="-4,5 -4,-84 1135,-84 1135,5 -4,5"/>
<!-- Node1 -->
<g id="node1" class="node"><title>Node1</title>
<polygon fill="#bfbfbf" stroke="black" points="408,-58.5 408,-79.5 574,-79.5 574,-58.5 408,-58.5"/>
<text text-anchor="middle" x="491" y="-66.5" font-family="DejaVuSans" font-size="10.00">src/Storage/StorageTemplate.h</text>
</g>
<!-- Node2 -->
<g id="node3" class="node"><title>Node2</title>
<polygon fill="white" stroke="#bfbfbf" points="-0.5,-0.5 -0.5,-21.5 40.5,-21.5 40.5,-0.5 -0.5,-0.5"/>
<text text-anchor="middle" x="20" y="-8.5" font-family="DejaVuSans" font-size="10.00">QList</text>
</g>
<!-- Node1&#45;&gt;Node2 -->
<g id="edge2" class="edge"><title>Node1&#45;&gt;Node2</title>
<path fill="none" stroke="midnightblue" d="M407.65,-66.4958C320.258,-62.4399 179.116,-51.8415 50.7161,-21.9597"/>
<polygon fill="midnightblue" stroke="midnightblue" points="51.2459,-18.4883 40.708,-19.5847 49.6296,-25.2991 51.2459,-18.4883"/>
</g>
<!-- Node3 -->
<g id="node5" class="node"><title>Node3</title>
<polygon fill="white" stroke="#bfbfbf" points="57.5,-0.5 57.5,-21.5 126.5,-21.5 126.5,-0.5 57.5,-0.5"/>
<text text-anchor="middle" x="92" y="-8.5" font-family="DejaVuSans" font-size="10.00">QStringList</text>
</g>
<!-- Node1&#45;&gt;Node3 -->
<g id="edge4" class="edge"><title>Node1&#45;&gt;Node3</title>
<path fill="none" stroke="midnightblue" d="M407.825,-60.8552C337.793,-53.3455 234.843,-40.7851 136.742,-22.1809"/>
<polygon fill="midnightblue" stroke="midnightblue" points="137.134,-18.6923 126.654,-20.2427 135.814,-25.5666 137.134,-18.6923"/>
</g>
<!-- Node4 -->
<g id="node7" class="node"><title>Node4</title>
<polygon fill="white" stroke="#bfbfbf" points="143.5,-0.5 143.5,-21.5 294.5,-21.5 294.5,-0.5 143.5,-0.5"/>
<text text-anchor="middle" x="219" y="-8.5" font-family="DejaVuSans" font-size="10.00">Datatypes/cv_SpeciesTitle.h</text>
</g>
<!-- Node1&#45;&gt;Node4 -->
<g id="edge6" class="edge"><title>Node1&#45;&gt;Node4</title>
<path fill="none" stroke="midnightblue" d="M441.743,-58.4966C395.768,-48.6931 327.094,-34.0496 278.167,-23.6165"/>
<polygon fill="midnightblue" stroke="midnightblue" points="278.86,-20.1856 268.35,-21.5231 277.4,-27.0317 278.86,-20.1856"/>
</g>
<!-- Node5 -->
<g id="node9" class="node"><title>Node5</title>
<polygon fill="white" stroke="#bfbfbf" points="311.5,-0.5 311.5,-21.5 424.5,-21.5 424.5,-0.5 311.5,-0.5"/>
<text text-anchor="middle" x="368" y="-8.5" font-family="DejaVuSans" font-size="10.00">Datatypes/cv_Trait.h</text>
</g>
<!-- Node1&#45;&gt;Node5 -->
<g id="edge8" class="edge"><title>Node1&#45;&gt;Node5</title>
<path fill="none" stroke="midnightblue" d="M468.726,-58.4966C449.428,-49.397 421.287,-36.1273 399.652,-25.9253"/>
<polygon fill="midnightblue" stroke="midnightblue" points="401.062,-22.7206 390.524,-21.6212 398.076,-29.052 401.062,-22.7206"/>
</g>
<!-- Node6 -->
<g id="node11" class="node"><title>Node6</title>
<polygon fill="white" stroke="#bfbfbf" points="442,-0.5 442,-21.5 540,-21.5 540,-0.5 442,-0.5"/>
<text text-anchor="middle" x="491" y="-8.5" font-family="DejaVuSans" font-size="10.00">Datatypes/Trait.h</text>
</g>
<!-- Node1&#45;&gt;Node6 -->
<g id="edge10" class="edge"><title>Node1&#45;&gt;Node6</title>
<path fill="none" stroke="midnightblue" d="M491,-58.3619C491,-50.9219 491,-40.7427 491,-31.7276"/>
<polygon fill="midnightblue" stroke="midnightblue" points="494.5,-31.5706 491,-21.5707 487.5,-31.5707 494.5,-31.5706"/>
</g>
<!-- Node7 -->
<g id="node13" class="node"><title>Node7</title>
<polygon fill="white" stroke="#bfbfbf" points="558,-0.5 558,-21.5 704,-21.5 704,-0.5 558,-0.5"/>
<text text-anchor="middle" x="631" y="-8.5" font-family="DejaVuSans" font-size="10.00">Datatypes/cv_IdentityList.h</text>
</g>
<!-- Node1&#45;&gt;Node7 -->
<g id="edge12" class="edge"><title>Node1&#45;&gt;Node7</title>
<path fill="none" stroke="midnightblue" d="M516.353,-58.4966C538.613,-49.2746 571.212,-35.7695 595.963,-25.5153"/>
<polygon fill="midnightblue" stroke="midnightblue" points="597.464,-28.6822 605.363,-21.6212 594.784,-22.2152 597.464,-28.6822"/>
</g>
<!-- Node8 -->
<g id="node15" class="node"><title>Node8</title>
<polygon fill="white" stroke="#bfbfbf" points="721.5,-0.5 721.5,-21.5 870.5,-21.5 870.5,-0.5 721.5,-0.5"/>
<text text-anchor="middle" x="796" y="-8.5" font-family="DejaVuSans" font-size="10.00">Datatypes/cv_SuperEffect.h</text>
</g>
<!-- Node1&#45;&gt;Node8 -->
<g id="edge14" class="edge"><title>Node1&#45;&gt;Node8</title>
<path fill="none" stroke="midnightblue" d="M546.233,-58.4966C598.109,-48.6317 675.757,-33.8659 730.683,-23.4209"/>
<polygon fill="midnightblue" stroke="midnightblue" points="731.493,-26.8297 740.663,-21.5231 730.185,-19.9529 731.493,-26.8297"/>
</g>
<!-- Node9 -->
<g id="node17" class="node"><title>Node9</title>
<polygon fill="white" stroke="#bfbfbf" points="888,-0.5 888,-21.5 1058,-21.5 1058,-0.5 888,-0.5"/>
<text text-anchor="middle" x="973" y="-8.5" font-family="DejaVuSans" font-size="10.00">Datatypes/cv_CreationPoints2.h</text>
</g>
<!-- Node1&#45;&gt;Node9 -->
<g id="edge16" class="edge"><title>Node1&#45;&gt;Node9</title>
<path fill="none" stroke="midnightblue" d="M574.133,-58.9964C658.538,-48.8398 789.073,-33.1323 877.631,-22.4759"/>
<polygon fill="midnightblue" stroke="midnightblue" points="878.168,-25.9366 887.678,-21.2669 877.332,-18.9868 878.168,-25.9366"/>
</g>
<!-- Node10 -->
<g id="node19" class="node"><title>Node10</title>
<polygon fill="white" stroke="#bfbfbf" points="1075.5,-0.5 1075.5,-21.5 1130.5,-21.5 1130.5,-0.5 1075.5,-0.5"/>
<text text-anchor="middle" x="1103" y="-8.5" font-family="DejaVuSans" font-size="10.00">QObject</text>
</g>
<!-- Node1&#45;&gt;Node10 -->
<g id="edge18" class="edge"><title>Node1&#45;&gt;Node10</title>
<path fill="none" stroke="midnightblue" d="M574.169,-64.4224C706.084,-56.8016 958.51,-40.6615 1065.36,-21.9469"/>
<polygon fill="midnightblue" stroke="midnightblue" points="1066.04,-25.3812 1075.24,-20.1279 1064.77,-18.497 1066.04,-25.3812"/>
</g>
</g>
</svg>
