<?xml version="1.0" encoding="UTF-8" standalone="no"?>
<!DOCTYPE svg PUBLIC "-//W3C//DTD SVG 1.1//EN"
 "http://www.w3.org/Graphics/SVG/1.1/DTD/svg11.dtd">
<!-- Generated by graphviz version 2.26.3 (20100126.1600)
 -->
<!-- Title: G Pages: 1 -->
<svg width="810pt" height="320pt"
 viewBox="0.00 0.00 810.00 320.00" xmlns="http://www.w3.org/2000/svg" xmlns:xlink="http://www.w3.org/1999/xlink">
<g id="graph1" class="graph" transform="scale(1 1) rotate(0) translate(4 316)">
<title>G</title>
<polygon fill="white" stroke="white" points="-4,5 -4,-316 807,-316 807,5 -4,5"/>
<!-- Node1 -->
<g id="node1" class="node"><title>Node1</title>
<polygon fill="#bfbfbf" stroke="black" points="261,-290.5 261,-311.5 383,-311.5 383,-290.5 261,-290.5"/>
<text text-anchor="middle" x="322" y="-298.5" font-family="DejaVuSans" font-size="10.00">src/Storage/Storage.h</text>
</g>
<!-- Node2 -->
<g id="node3" class="node"><title>Node2</title>
<polygon fill="white" stroke="#bfbfbf" points="-0.5,-232.5 -0.5,-253.5 54.5,-253.5 54.5,-232.5 -0.5,-232.5"/>
<text text-anchor="middle" x="27" y="-240.5" font-family="DejaVuSans" font-size="10.00">QObject</text>
</g>
<!-- Node1&#45;&gt;Node2 -->
<g id="edge2" class="edge"><title>Node1&#45;&gt;Node2</title>
<path fill="none" stroke="midnightblue" d="M260.907,-291.092C209.284,-282.386 133.5,-268.822 68,-254 66.9218,-253.756 65.8292,-253.503 64.7275,-253.242"/>
<polygon fill="midnightblue" stroke="midnightblue" points="65.2638,-249.769 54.7148,-250.754 63.5755,-256.563 65.2638,-249.769"/>
</g>
<!-- Node3 -->
<g id="node5" class="node"><title>Node3</title>
<polygon fill="white" stroke="#bfbfbf" points="276.5,-58.5 276.5,-79.5 317.5,-79.5 317.5,-58.5 276.5,-58.5"/>
<text text-anchor="middle" x="297" y="-66.5" font-family="DejaVuSans" font-size="10.00">QList</text>
</g>
<!-- Node1&#45;&gt;Node3 -->
<g id="edge4" class="edge"><title>Node1&#45;&gt;Node3</title>
<path fill="none" stroke="midnightblue" d="M292.323,-290.481C240.864,-270.336 137.125,-220.808 101,-138 97.0903,-129.038 94.9456,-123.678 101,-116 121.237,-90.3371 216.294,-77.1015 266.209,-71.8209"/>
<polygon fill="midnightblue" stroke="midnightblue" points="266.825,-75.2765 276.421,-70.7852 266.118,-68.3123 266.825,-75.2765"/>
</g>
<!-- Node4 -->
<g id="node7" class="node"><title>Node4</title>
<polygon fill="white" stroke="#bfbfbf" points="584.5,-58.5 584.5,-79.5 653.5,-79.5 653.5,-58.5 584.5,-58.5"/>
<text text-anchor="middle" x="619" y="-66.5" font-family="DejaVuSans" font-size="10.00">QStringList</text>
</g>
<!-- Node1&#45;&gt;Node4 -->
<g id="edge6" class="edge"><title>Node1&#45;&gt;Node4</title>
<path fill="none" stroke="midnightblue" d="M367.982,-290.381C419.684,-276.407 503.513,-247.378 558,-196 589.421,-166.372 606.517,-117.201 614.101,-89.538"/>
<polygon fill="midnightblue" stroke="midnightblue" points="617.516,-90.3125 616.63,-79.7548 610.738,-88.5608 617.516,-90.3125"/>
</g>
<!-- Node5 -->
<g id="node9" class="node"><title>Node5</title>
<a xlink:href="cv___trait_8h.html" target="_top" xlink:title="../Datatypes/cv_Trait.h">
<polygon fill="white" stroke="black" points="427,-174.5 427,-195.5 549,-195.5 549,-174.5 427,-174.5"/>
<text text-anchor="middle" x="488" y="-182.5" font-family="DejaVuSans" font-size="10.00">../Datatypes/cv_Trait.h</text>
</a>
</g>
<!-- Node1&#45;&gt;Node5 -->
<g id="edge8" class="edge"><title>Node1&#45;&gt;Node5</title>
<path fill="none" stroke="midnightblue" d="M339.026,-290.485C353.955,-281.16 376.158,-267.034 395,-254 419.836,-236.82 447.545,-216.045 466.205,-201.809"/>
<polygon fill="midnightblue" stroke="midnightblue" points="468.531,-204.436 474.342,-195.577 464.275,-198.878 468.531,-204.436"/>
</g>
<!-- Node9 -->
<g id="node20" class="node"><title>Node9</title>
<a xlink:href="cv___character_8h.html" target="_top" xlink:title="cv_Character.h">
<polygon fill="white" stroke="black" points="110,-116.5 110,-137.5 198,-137.5 198,-116.5 110,-116.5"/>
<text text-anchor="middle" x="154" y="-124.5" font-family="DejaVuSans" font-size="10.00">cv_Character.h</text>
</a>
</g>
<!-- Node1&#45;&gt;Node9 -->
<g id="edge36" class="edge"><title>Node1&#45;&gt;Node9</title>
<path fill="none" stroke="midnightblue" d="M301.425,-290.382C285.99,-281.821 264.877,-268.8 249,-254 213.303,-220.725 181.499,-172.652 165.308,-146.219"/>
<polygon fill="midnightblue" stroke="midnightblue" points="168.23,-144.287 160.071,-137.528 162.234,-147.9 168.23,-144.287"/>
</g>
<!-- Node11 -->
<g id="node30" class="node"><title>Node11</title>
<a xlink:href="cv___name_list_8h.html" target="_top" xlink:title="../Datatypes/cv_NameList.h">
<polygon fill="white" stroke="black" points="653.5,-174.5 653.5,-195.5 802.5,-195.5 802.5,-174.5 653.5,-174.5"/>
<text text-anchor="middle" x="728" y="-182.5" font-family="DejaVuSans" font-size="10.00">../Datatypes/cv_NameList.h</text>
</a>
</g>
<!-- Node1&#45;&gt;Node11 -->
<g id="edge38" class="edge"><title>Node1&#45;&gt;Node11</title>
<path fill="none" stroke="midnightblue" d="M383.21,-295.716C462.251,-288.248 595.007,-273.334 640,-254 667.745,-242.078 694.262,-219.17 710.801,-203.028"/>
<polygon fill="midnightblue" stroke="midnightblue" points="713.499,-205.278 718.08,-195.725 708.541,-200.337 713.499,-205.278"/>
</g>
<!-- Node13 -->
<g id="node38" class="node"><title>Node13</title>
<a xlink:href="_read_template_8h.html" target="_top" xlink:title="../Read/ReadTemplate.h">
<polygon fill="white" stroke="black" points="258,-232.5 258,-253.5 386,-253.5 386,-232.5 258,-232.5"/>
<text text-anchor="middle" x="322" y="-240.5" font-family="DejaVuSans" font-size="10.00">../Read/ReadTemplate.h</text>
</a>
</g>
<!-- Node1&#45;&gt;Node13 -->
<g id="edge50" class="edge"><title>Node1&#45;&gt;Node13</title>
<path fill="none" stroke="midnightblue" d="M322,-290.362C322,-282.922 322,-272.743 322,-263.728"/>
<polygon fill="midnightblue" stroke="midnightblue" points="325.5,-263.571 322,-253.571 318.5,-263.571 325.5,-263.571"/>
</g>
<!-- Node5&#45;&gt;Node3 -->
<g id="edge14" class="edge"><title>Node5&#45;&gt;Node3</title>
<path fill="none" stroke="midnightblue" d="M426.976,-174.948C369.904,-164.927 292.101,-149.423 283,-138 271.879,-124.041 277.999,-103.558 285.31,-88.5346"/>
<polygon fill="midnightblue" stroke="midnightblue" points="288.474,-90.0406 290.117,-79.574 282.305,-86.7313 288.474,-90.0406"/>
</g>
<!-- Node5&#45;&gt;Node4 -->
<g id="edge16" class="edge"><title>Node5&#45;&gt;Node4</title>
<path fill="none" stroke="midnightblue" d="M509.318,-174.398C525.333,-165.846 547.291,-152.828 564,-138 580.7,-123.18 596.212,-102.869 606.476,-88.1235"/>
<polygon fill="midnightblue" stroke="midnightblue" points="609.432,-90.0002 612.152,-79.7604 603.64,-86.0691 609.432,-90.0002"/>
</g>
<!-- Node6 -->
<g id="node11" class="node"><title>Node6</title>
<polygon fill="white" stroke="#bfbfbf" points="291.5,-116.5 291.5,-137.5 340.5,-137.5 340.5,-116.5 291.5,-116.5"/>
<text text-anchor="middle" x="316" y="-124.5" font-family="DejaVuSans" font-size="10.00">QFlags</text>
</g>
<!-- Node5&#45;&gt;Node6 -->
<g id="edge10" class="edge"><title>Node5&#45;&gt;Node6</title>
<path fill="none" stroke="midnightblue" d="M456.852,-174.497C426.715,-164.334 381.154,-148.97 350.067,-138.488"/>
<polygon fill="midnightblue" stroke="midnightblue" points="351.114,-135.147 340.52,-135.268 348.877,-141.78 351.114,-135.147"/>
</g>
<!-- Node7 -->
<g id="node13" class="node"><title>Node7</title>
<polygon fill="white" stroke="#bfbfbf" points="495.5,-0.5 495.5,-21.5 548.5,-21.5 548.5,-0.5 495.5,-0.5"/>
<text text-anchor="middle" x="522" y="-8.5" font-family="DejaVuSans" font-size="10.00">QString</text>
</g>
<!-- Node5&#45;&gt;Node7 -->
<g id="edge12" class="edge"><title>Node5&#45;&gt;Node7</title>
<path fill="none" stroke="midnightblue" d="M502.179,-174.408C512.349,-165.861 525.234,-152.845 531,-138 544.796,-102.484 535.932,-57.2163 528.67,-31.4321"/>
<polygon fill="midnightblue" stroke="midnightblue" points="531.962,-30.2253 525.726,-21.6598 525.259,-32.2444 531.962,-30.2253"/>
</g>
<!-- Node8 -->
<g id="node17" class="node"><title>Node8</title>
<a xlink:href="cv___species_8h.html" target="_top" xlink:title="cv_Species.h">
<polygon fill="white" stroke="black" points="367.5,-58.5 367.5,-79.5 446.5,-79.5 446.5,-58.5 367.5,-58.5"/>
<text text-anchor="middle" x="407" y="-66.5" font-family="DejaVuSans" font-size="10.00">cv_Species.h</text>
</a>
</g>
<!-- Node5&#45;&gt;Node8 -->
<g id="edge18" class="edge"><title>Node5&#45;&gt;Node8</title>
<path fill="none" stroke="midnightblue" d="M467.188,-174.382C453.256,-166.239 435.592,-153.735 425,-138 415.304,-123.597 410.829,-104.265 408.765,-89.7287"/>
<polygon fill="midnightblue" stroke="midnightblue" points="412.232,-89.2415 407.61,-79.7081 405.278,-90.0431 412.232,-89.2415"/>
</g>
<!-- Node5&#45;&gt;Node9 -->
<g id="edge22" class="edge"><title>Node5&#45;&gt;Node9</title>
<path fill="none" stroke="midnightblue" d="M427.515,-174.497C364.962,-163.634 268.19,-146.829 208.098,-136.394"/>
<polygon fill="midnightblue" stroke="midnightblue" points="208.503,-132.912 198.051,-134.65 207.305,-139.809 208.503,-132.912"/>
</g>
<!-- Node10 -->
<g id="node23" class="node"><title>Node10</title>
<a xlink:href="cv___trait_detail_8h.html" target="_top" xlink:title="cv_TraitDetail.h">
<polygon fill="white" stroke="black" points="433.5,-116.5 433.5,-137.5 522.5,-137.5 522.5,-116.5 433.5,-116.5"/>
<text text-anchor="middle" x="478" y="-124.5" font-family="DejaVuSans" font-size="10.00">cv_TraitDetail.h</text>
</a>
</g>
<!-- Node5&#45;&gt;Node10 -->
<g id="edge26" class="edge"><title>Node5&#45;&gt;Node10</title>
<path fill="none" stroke="midnightblue" d="M486.166,-174.362C484.869,-166.84 483.089,-156.519 481.523,-147.431"/>
<polygon fill="midnightblue" stroke="midnightblue" points="484.971,-146.831 479.823,-137.571 478.073,-148.02 484.971,-146.831"/>
</g>
<!-- Node8&#45;&gt;Node7 -->
<g id="edge20" class="edge"><title>Node8&#45;&gt;Node7</title>
<path fill="none" stroke="midnightblue" d="M427.826,-58.4966C445.706,-49.4786 471.707,-36.3649 491.861,-26.2006"/>
<polygon fill="midnightblue" stroke="midnightblue" points="493.588,-29.2495 500.941,-21.6212 490.436,-22.9994 493.588,-29.2495"/>
</g>
<!-- Node9&#45;&gt;Node7 -->
<g id="edge24" class="edge"><title>Node9&#45;&gt;Node7</title>
<path fill="none" stroke="midnightblue" d="M167.886,-116.283C188.532,-100.906 229.081,-72.8107 268,-58 341.956,-29.8562 434.631,-18.1805 485.087,-13.6418"/>
<polygon fill="midnightblue" stroke="midnightblue" points="485.525,-17.1172 495.191,-12.7783 484.929,-10.1426 485.525,-17.1172"/>
</g>
<!-- Node10&#45;&gt;Node3 -->
<g id="edge30" class="edge"><title>Node10&#45;&gt;Node3</title>
<path fill="none" stroke="midnightblue" d="M445.222,-116.497C411.762,-105.774 360.233,-89.2625 327.588,-78.8017"/>
<polygon fill="midnightblue" stroke="midnightblue" points="328.291,-75.3516 317.7,-75.633 326.155,-82.0177 328.291,-75.3516"/>
</g>
<!-- Node10&#45;&gt;Node4 -->
<g id="edge32" class="edge"><title>Node10&#45;&gt;Node4</title>
<path fill="none" stroke="midnightblue" d="M503.534,-116.497C525.953,-107.275 558.785,-93.7695 583.713,-83.5153"/>
<polygon fill="midnightblue" stroke="midnightblue" points="585.263,-86.6623 593.179,-79.6212 582.6,-80.1886 585.263,-86.6623"/>
</g>
<!-- Node10&#45;&gt;Node7 -->
<g id="edge28" class="edge"><title>Node10&#45;&gt;Node7</title>
<path fill="none" stroke="midnightblue" d="M482.061,-116.295C489.395,-96.9588 504.96,-55.9229 514.347,-31.1767"/>
<polygon fill="midnightblue" stroke="midnightblue" points="517.675,-32.2705 517.949,-21.6792 511.13,-29.7879 517.675,-32.2705"/>
</g>
<!-- Node10&#45;&gt;Node8 -->
<g id="edge34" class="edge"><title>Node10&#45;&gt;Node8</title>
<path fill="none" stroke="midnightblue" d="M464.978,-116.362C454.569,-107.859 439.781,-95.7785 427.745,-85.9466"/>
<polygon fill="midnightblue" stroke="midnightblue" points="429.899,-83.1866 419.94,-79.5707 425.47,-88.6077 429.899,-83.1866"/>
</g>
<!-- Node11&#45;&gt;Node3 -->
<g id="edge48" class="edge"><title>Node11&#45;&gt;Node3</title>
<path fill="none" stroke="midnightblue" d="M653.48,-180.526C591.102,-175.119 500.439,-163.348 425,-138 386.423,-125.038 345.675,-101.04 320.787,-85.0451"/>
<polygon fill="midnightblue" stroke="midnightblue" points="322.655,-82.0852 312.369,-79.5494 318.829,-87.9467 322.655,-82.0852"/>
</g>
<!-- Node11&#45;&gt;Node7 -->
<g id="edge40" class="edge"><title>Node11&#45;&gt;Node7</title>
<path fill="none" stroke="midnightblue" d="M731.451,-174.327C735.353,-160.426 740.278,-135.59 733,-116 721.147,-84.0967 711.622,-76.4142 683,-58 644.718,-33.3716 593.153,-21.2958 558.804,-15.6259"/>
<polygon fill="midnightblue" stroke="midnightblue" points="559.148,-12.1376 548.73,-14.0652 558.076,-19.055 559.148,-12.1376"/>
</g>
<!-- Node12 -->
<g id="node33" class="node"><title>Node12</title>
<a xlink:href="cv___name_8h.html" target="_top" xlink:title="cv_Name.h">
<polygon fill="white" stroke="black" points="653.5,-116.5 653.5,-137.5 724.5,-137.5 724.5,-116.5 653.5,-116.5"/>
<text text-anchor="middle" x="689" y="-124.5" font-family="DejaVuSans" font-size="10.00">cv_Name.h</text>
</a>
</g>
<!-- Node11&#45;&gt;Node12 -->
<g id="edge42" class="edge"><title>Node11&#45;&gt;Node12</title>
<path fill="none" stroke="midnightblue" d="M720.847,-174.362C715.514,-166.431 708.089,-155.389 701.749,-145.961"/>
<polygon fill="midnightblue" stroke="midnightblue" points="704.592,-143.916 696.108,-137.571 698.783,-147.822 704.592,-143.916"/>
</g>
<!-- Node12&#45;&gt;Node4 -->
<g id="edge44" class="edge"><title>Node12&#45;&gt;Node4</title>
<path fill="none" stroke="midnightblue" d="M676.161,-116.362C665.998,-107.941 651.599,-96.0105 639.796,-86.2308"/>
<polygon fill="midnightblue" stroke="midnightblue" points="641.691,-83.2558 631.758,-79.5707 637.225,-88.6459 641.691,-83.2558"/>
</g>
<!-- Node12&#45;&gt;Node7 -->
<g id="edge46" class="edge"><title>Node12&#45;&gt;Node7</title>
<path fill="none" stroke="midnightblue" d="M687.668,-116.337C685.232,-101.286 678.677,-73.8772 662,-58 633.806,-31.1572 589.807,-19.6222 558.67,-14.6794"/>
<polygon fill="midnightblue" stroke="midnightblue" points="559.04,-11.1967 548.644,-13.2432 558.047,-18.126 559.04,-11.1967"/>
</g>
<!-- Node13&#45;&gt;Node5 -->
<g id="edge56" class="edge"><title>Node13&#45;&gt;Node5</title>
<path fill="none" stroke="midnightblue" d="M352.061,-232.497C379.007,-223.082 418.728,-209.204 448.282,-198.877"/>
<polygon fill="midnightblue" stroke="midnightblue" points="449.596,-202.126 457.882,-195.523 447.287,-195.517 449.596,-202.126"/>
</g>
<!-- Node13&#45;&gt;Node8 -->
<g id="edge54" class="edge"><title>Node13&#45;&gt;Node8</title>
<path fill="none" stroke="midnightblue" d="M282.93,-232.392C264.692,-225.267 244.688,-213.826 234,-196 228.972,-187.614 230.64,-183.182 234,-174 252.911,-122.313 313.458,-94.5656 357.603,-80.8137"/>
<polygon fill="midnightblue" stroke="midnightblue" points="358.723,-84.1321 367.313,-77.9294 356.73,-77.4219 358.723,-84.1321"/>
</g>
<!-- Node14 -->
<g id="node40" class="node"><title>Node14</title>
<polygon fill="white" stroke="#bfbfbf" points="370.5,-174.5 370.5,-195.5 409.5,-195.5 409.5,-174.5 370.5,-174.5"/>
<text text-anchor="middle" x="390" y="-182.5" font-family="DejaVuSans" font-size="10.00">QFile</text>
</g>
<!-- Node13&#45;&gt;Node14 -->
<g id="edge52" class="edge"><title>Node13&#45;&gt;Node14</title>
<path fill="none" stroke="midnightblue" d="M334.472,-232.362C344.345,-223.941 358.333,-212.011 369.798,-202.231"/>
<polygon fill="midnightblue" stroke="midnightblue" points="372.27,-204.723 377.607,-195.571 367.727,-199.397 372.27,-204.723"/>
</g>
<!-- Node15 -->
<g id="node44" class="node"><title>Node15</title>
<polygon fill="white" stroke="#bfbfbf" points="242.5,-174.5 242.5,-195.5 353.5,-195.5 353.5,-174.5 242.5,-174.5"/>
<text text-anchor="middle" x="298" y="-182.5" font-family="DejaVuSans" font-size="10.00">QXmlStreamReader</text>
</g>
<!-- Node13&#45;&gt;Node15 -->
<g id="edge58" class="edge"><title>Node13&#45;&gt;Node15</title>
<path fill="none" stroke="midnightblue" d="M317.598,-232.362C314.418,-224.677 310.028,-214.069 306.21,-204.84"/>
<polygon fill="midnightblue" stroke="midnightblue" points="309.432,-203.473 302.374,-195.571 302.964,-206.149 309.432,-203.473"/>
</g>
</g>
</svg>
