<?xml version="1.0" encoding="UTF-8" standalone="no"?>
<!DOCTYPE svg PUBLIC "-//W3C//DTD SVG 1.1//EN"
 "http://www.w3.org/Graphics/SVG/1.1/DTD/svg11.dtd">
<!-- Generated by graphviz version 2.26.3 (20100126.1600)
 -->
<!-- Title: G Pages: 1 -->
<svg width="3366pt" height="262pt"
 viewBox="0.00 0.00 3366.33 262.00" xmlns="http://www.w3.org/2000/svg" xmlns:xlink="http://www.w3.org/1999/xlink">
<g id="graph1" class="graph" transform="scale(1 1) rotate(0) translate(4 258)">
<title>G</title>
<polygon fill="white" stroke="white" points="-4,5 -4,-258 3363.33,-258 3363.33,5 -4,5"/>
<!-- Node1 -->
<g id="node1" class="node"><title>Node1</title>
<polygon fill="#bfbfbf" stroke="black" points="1645.83,-232.5 1645.83,-253.5 1814.83,-253.5 1814.83,-232.5 1645.83,-232.5"/>
<text text-anchor="middle" x="1730.33" y="-240.5" font-family="DejaVuSans" font-size="10.00">src/Storage/StorageCharacter.h</text>
</g>
<!-- Node2 -->
<g id="node3" class="node"><title>Node2</title>
<a xlink:href="_calc_advantages_8h.html" target="_top" xlink:title="src/Calc/CalcAdvantages.h">
<polygon fill="white" stroke="black" points="352.833,-174.5 352.833,-195.5 495.833,-195.5 495.833,-174.5 352.833,-174.5"/>
<text text-anchor="middle" x="424.333" y="-182.5" font-family="DejaVuSans" font-size="10.00">src/Calc/CalcAdvantages.h</text>
</a>
</g>
<!-- Node1&#45;&gt;Node2 -->
<g id="edge2" class="edge"><title>Node1&#45;&gt;Node2</title>
<path fill="none" stroke="midnightblue" d="M1635.52,-240.666C1435.42,-235.422 955.317,-221.152 553.333,-196 534.714,-194.835 514.608,-193.269 495.936,-191.685"/>
<polygon fill="midnightblue" stroke="midnightblue" points="1635.61,-244.17 1645.7,-240.932 1635.79,-237.172 1635.61,-244.17"/>
</g>
<!-- Node4 -->
<g id="node7" class="node"><title>Node4</title>
<a xlink:href="_draw_sheet_8h.html" target="_top" xlink:title="src/Draw/DrawSheet.h">
<polygon fill="white" stroke="black" points="26.3334,-116.5 26.3334,-137.5 148.333,-137.5 148.333,-116.5 26.3334,-116.5"/>
<text text-anchor="middle" x="87.3334" y="-124.5" font-family="DejaVuSans" font-size="10.00">src/Draw/DrawSheet.h</text>
</a>
</g>
<!-- Node1&#45;&gt;Node4 -->
<g id="edge24" class="edge"><title>Node1&#45;&gt;Node4</title>
<path fill="none" stroke="midnightblue" d="M1635.62,-242.602C1365.39,-241.018 594.132,-233.267 344.333,-196 260.716,-183.525 165.318,-153.626 117.711,-137.589"/>
<polygon fill="midnightblue" stroke="midnightblue" points="1635.77,-246.102 1645.79,-242.66 1635.81,-239.103 1635.77,-246.102"/>
</g>
<!-- Node6 -->
<g id="node11" class="node"><title>Node6</title>
<a xlink:href="_main_window_8h.html" target="_top" xlink:title="src/MainWindow.h">
<polygon fill="white" stroke="black" points="1247.33,-58.5 1247.33,-79.5 1347.33,-79.5 1347.33,-58.5 1247.33,-58.5"/>
<text text-anchor="middle" x="1297.33" y="-66.5" font-family="DejaVuSans" font-size="10.00">src/MainWindow.h</text>
</a>
</g>
<!-- Node1&#45;&gt;Node6 -->
<g id="edge38" class="edge"><title>Node1&#45;&gt;Node6</title>
<path fill="none" stroke="midnightblue" d="M1635.35,-239.881C1495.74,-232.876 1246.69,-210.301 1201.33,-138 1184.1,-110.529 1224.71,-90.6838 1258.32,-79.5158"/>
<polygon fill="midnightblue" stroke="midnightblue" points="1635.47,-243.39 1645.62,-240.378 1635.8,-236.398 1635.47,-243.39"/>
</g>
<!-- Node8 -->
<g id="node15" class="node"><title>Node8</title>
<a xlink:href="_main_window_8cpp.html" target="_top" xlink:title="src/MainWindow.cpp">
<polygon fill="white" stroke="black" points="536.833,-0.5 536.833,-21.5 647.833,-21.5 647.833,-0.5 536.833,-0.5"/>
<text text-anchor="middle" x="592.333" y="-8.5" font-family="DejaVuSans" font-size="10.00">src/MainWindow.cpp</text>
</a>
</g>
<!-- Node1&#45;&gt;Node8 -->
<g id="edge96" class="edge"><title>Node1&#45;&gt;Node8</title>
<path fill="none" stroke="midnightblue" d="M1635.54,-241.246C1329.03,-235.404 376.667,-215.848 239.333,-196 138.404,-181.413 79.6665,-218.711 17.3334,-138 -4.39949,-109.86 -6.76231,-84.1456 17.3334,-58 34.7906,-39.0577 395.609,-20.204 536.585,-13.5322"/>
<polygon fill="midnightblue" stroke="midnightblue" points="1635.66,-244.749 1645.73,-241.44 1635.8,-237.75 1635.66,-244.749"/>
</g>
<!-- Node9 -->
<g id="node17" class="node"><title>Node9</title>
<a xlink:href="_advantages_widget_8h.html" target="_top" xlink:title="src/Widgets/AdvantagesWidget.h">
<polygon fill="white" stroke="black" points="337.833,-116.5 337.833,-137.5 510.833,-137.5 510.833,-116.5 337.833,-116.5"/>
<text text-anchor="middle" x="424.333" y="-124.5" font-family="DejaVuSans" font-size="10.00">src/Widgets/AdvantagesWidget.h</text>
</a>
</g>
<!-- Node1&#45;&gt;Node9 -->
<g id="edge88" class="edge"><title>Node1&#45;&gt;Node9</title>
<path fill="none" stroke="midnightblue" d="M1635.4,-242.352C1405.13,-240.232 821.787,-231.423 630.333,-196 562.464,-183.443 486.36,-153.579 448.476,-137.569"/>
<polygon fill="midnightblue" stroke="midnightblue" points="1635.4,-245.852 1645.44,-242.442 1635.47,-238.853 1635.4,-245.852"/>
</g>
<!-- Node12 -->
<g id="node25" class="node"><title>Node12</title>
<a xlink:href="_read_xml_character_8h.html" target="_top" xlink:title="src/IO/ReadXmlCharacter.h">
<polygon fill="white" stroke="black" points="638.833,-174.5 638.833,-195.5 781.833,-195.5 781.833,-174.5 638.833,-174.5"/>
<text text-anchor="middle" x="710.333" y="-182.5" font-family="DejaVuSans" font-size="10.00">src/IO/ReadXmlCharacter.h</text>
</a>
</g>
<!-- Node1&#45;&gt;Node12 -->
<g id="edge26" class="edge"><title>Node1&#45;&gt;Node12</title>
<path fill="none" stroke="midnightblue" d="M1635.51,-239.368C1470.93,-232.773 1121.78,-217.495 827.333,-196 812.683,-194.93 797.018,-193.592 782.069,-192.222"/>
<polygon fill="midnightblue" stroke="midnightblue" points="1635.47,-242.869 1645.6,-239.771 1635.75,-235.875 1635.47,-242.869"/>
</g>
<!-- Node14 -->
<g id="node30" class="node"><title>Node14</title>
<a xlink:href="_write_xml_character_8h.html" target="_top" xlink:title="src/IO/WriteXmlCharacter.h">
<polygon fill="white" stroke="black" points="835.833,-174.5 835.833,-195.5 978.833,-195.5 978.833,-174.5 835.833,-174.5"/>
<text text-anchor="middle" x="907.333" y="-182.5" font-family="DejaVuSans" font-size="10.00">src/IO/WriteXmlCharacter.h</text>
</a>
</g>
<!-- Node1&#45;&gt;Node14 -->
<g id="edge32" class="edge"><title>Node1&#45;&gt;Node14</title>
<path fill="none" stroke="midnightblue" d="M1635.4,-239.23C1493.95,-233.107 1219.6,-219.283 987.333,-196 984.683,-195.734 981.985,-195.447 979.262,-195.144"/>
<polygon fill="midnightblue" stroke="midnightblue" points="1635.62,-242.743 1645.76,-239.675 1635.92,-235.749 1635.62,-242.743"/>
</g>
<!-- Node16 -->
<g id="node36" class="node"><title>Node16</title>
<a xlink:href="_info_widget_8h.html" target="_top" xlink:title="src/Widgets/InfoWidget.h">
<polygon fill="white" stroke="black" points="2653.83,-116.5 2653.83,-137.5 2786.83,-137.5 2786.83,-116.5 2653.83,-116.5"/>
<text text-anchor="middle" x="2720.33" y="-124.5" font-family="DejaVuSans" font-size="10.00">src/Widgets/InfoWidget.h</text>
</a>
</g>
<!-- Node1&#45;&gt;Node16 -->
<g id="edge40" class="edge"><title>Node1&#45;&gt;Node16</title>
<path fill="none" stroke="midnightblue" d="M1825.56,-242.551C2090.13,-240.841 2817.04,-232.798 2852.33,-196 2879.81,-167.351 2826.88,-148.251 2780.08,-137.549"/>
<polygon fill="midnightblue" stroke="midnightblue" points="1825.18,-239.054 1815.21,-242.617 1825.23,-246.054 1825.18,-239.054"/>
</g>
<!-- Node18 -->
<g id="node41" class="node"><title>Node18</title>
<a xlink:href="_chara_species_8h.html" target="_top" xlink:title="src/Widgets/CharaSpecies.h">
<polygon fill="white" stroke="black" points="2342.83,-174.5 2342.83,-195.5 2491.83,-195.5 2491.83,-174.5 2342.83,-174.5"/>
<text text-anchor="middle" x="2417.33" y="-182.5" font-family="DejaVuSans" font-size="10.00">src/Widgets/CharaSpecies.h</text>
</a>
</g>
<!-- Node1&#45;&gt;Node18 -->
<g id="edge46" class="edge"><title>Node1&#45;&gt;Node18</title>
<path fill="none" stroke="midnightblue" d="M1825.36,-236.9C1943.6,-228.998 2151.61,-214.071 2329.33,-196 2333.62,-195.564 2338.03,-195.092 2342.47,-194.596"/>
<polygon fill="midnightblue" stroke="midnightblue" points="1825,-233.416 1815.26,-237.573 1825.47,-240.401 1825,-233.416"/>
</g>
<!-- Node19 -->
<g id="node44" class="node"><title>Node19</title>
<a xlink:href="_chara_species_8cpp.html" target="_top" xlink:title="src/Widgets/CharaSpecies.cpp">
<polygon fill="white" stroke="black" points="2437.83,-116.5 2437.83,-137.5 2598.83,-137.5 2598.83,-116.5 2437.83,-116.5"/>
<text text-anchor="middle" x="2518.33" y="-124.5" font-family="DejaVuSans" font-size="10.00">src/Widgets/CharaSpecies.cpp</text>
</a>
</g>
<!-- Node1&#45;&gt;Node19 -->
<g id="edge112" class="edge"><title>Node1&#45;&gt;Node19</title>
<path fill="none" stroke="midnightblue" d="M1825.19,-240.153C1962.91,-235.167 2211.08,-222.728 2296.33,-196 2314.95,-190.162 2316.26,-181.373 2334.33,-174 2375.09,-157.37 2423.37,-145.303 2460.25,-137.563"/>
<polygon fill="midnightblue" stroke="midnightblue" points="1824.93,-236.66 1815.07,-240.514 1825.18,-243.656 1824.93,-236.66"/>
</g>
<!-- Node20 -->
<g id="node46" class="node"><title>Node20</title>
<a xlink:href="_attribute_widget_8h.html" target="_top" xlink:title="src/Widgets/AttributeWidget.h">
<polygon fill="white" stroke="black" points="996.333,-174.5 996.333,-195.5 1154.33,-195.5 1154.33,-174.5 996.333,-174.5"/>
<text text-anchor="middle" x="1075.33" y="-182.5" font-family="DejaVuSans" font-size="10.00">src/Widgets/AttributeWidget.h</text>
</a>
</g>
<!-- Node1&#45;&gt;Node20 -->
<g id="edge52" class="edge"><title>Node1&#45;&gt;Node20</title>
<path fill="none" stroke="midnightblue" d="M1635.27,-236.049C1523.44,-227.641 1332.23,-212.541 1168.33,-196 1163.8,-195.543 1159.15,-195.054 1154.46,-194.546"/>
<polygon fill="midnightblue" stroke="midnightblue" points="1635.28,-239.559 1645.51,-236.817 1635.8,-232.579 1635.28,-239.559"/>
</g>
<!-- Node21 -->
<g id="node50" class="node"><title>Node21</title>
<a xlink:href="_skill_widget_8h.html" target="_top" xlink:title="src/Widgets/SkillWidget.h">
<polygon fill="white" stroke="black" points="1663.33,-174.5 1663.33,-195.5 1797.33,-195.5 1797.33,-174.5 1663.33,-174.5"/>
<text text-anchor="middle" x="1730.33" y="-182.5" font-family="DejaVuSans" font-size="10.00">src/Widgets/SkillWidget.h</text>
</a>
</g>
<!-- Node1&#45;&gt;Node21 -->
<g id="edge58" class="edge"><title>Node1&#45;&gt;Node21</title>
<path fill="none" stroke="midnightblue" d="M1730.33,-222.191C1730.33,-213.168 1730.33,-202.994 1730.33,-195.571"/>
<polygon fill="midnightblue" stroke="midnightblue" points="1726.83,-222.362 1730.33,-232.362 1733.83,-222.362 1726.83,-222.362"/>
</g>
<!-- Node23 -->
<g id="node55" class="node"><title>Node23</title>
<a xlink:href="_merit_widget_8h.html" target="_top" xlink:title="src/Widgets/MeritWidget.h">
<polygon fill="white" stroke="black" points="1815.33,-174.5 1815.33,-195.5 1955.33,-195.5 1955.33,-174.5 1815.33,-174.5"/>
<text text-anchor="middle" x="1885.33" y="-182.5" font-family="DejaVuSans" font-size="10.00">src/Widgets/MeritWidget.h</text>
</a>
</g>
<!-- Node1&#45;&gt;Node23 -->
<g id="edge64" class="edge"><title>Node1&#45;&gt;Node23</title>
<path fill="none" stroke="midnightblue" d="M1768.08,-228.874C1795.59,-218.582 1832.25,-204.862 1857.21,-195.523"/>
<polygon fill="midnightblue" stroke="midnightblue" points="1766.54,-225.714 1758.4,-232.497 1769,-232.27 1766.54,-225.714"/>
</g>
<!-- Node25 -->
<g id="node60" class="node"><title>Node25</title>
<a xlink:href="_morality_widget_8h.html" target="_top" xlink:title="src/Widgets/MoralityWidget.h">
<polygon fill="white" stroke="black" points="2134.83,-174.5 2134.83,-195.5 2287.83,-195.5 2287.83,-174.5 2134.83,-174.5"/>
<text text-anchor="middle" x="2211.33" y="-182.5" font-family="DejaVuSans" font-size="10.00">src/Widgets/MoralityWidget.h</text>
</a>
</g>
<!-- Node1&#45;&gt;Node25 -->
<g id="edge70" class="edge"><title>Node1&#45;&gt;Node25</title>
<path fill="none" stroke="midnightblue" d="M1825.04,-232.045C1905.28,-222.693 2023.38,-208.771 2126.33,-196 2128.99,-195.67 2131.7,-195.333 2134.43,-194.99"/>
<polygon fill="midnightblue" stroke="midnightblue" points="1824.48,-228.586 1814.95,-233.219 1825.29,-235.539 1824.48,-228.586"/>
</g>
<!-- Node27 -->
<g id="node65" class="node"><title>Node27</title>
<a xlink:href="_power_widget_8h.html" target="_top" xlink:title="src/Widgets/PowerWidget.h">
<polygon fill="white" stroke="black" points="1973.33,-174.5 1973.33,-195.5 2117.33,-195.5 2117.33,-174.5 1973.33,-174.5"/>
<text text-anchor="middle" x="2045.33" y="-182.5" font-family="DejaVuSans" font-size="10.00">src/Widgets/PowerWidget.h</text>
</a>
</g>
<!-- Node1&#45;&gt;Node27 -->
<g id="edge76" class="edge"><title>Node1&#45;&gt;Node27</title>
<path fill="none" stroke="midnightblue" d="M1797.33,-230.665C1854.04,-220.222 1934.46,-205.415 1988.18,-195.523"/>
<polygon fill="midnightblue" stroke="midnightblue" points="1796.58,-227.244 1787.38,-232.497 1797.85,-234.128 1796.58,-227.244"/>
</g>
<!-- Node29 -->
<g id="node70" class="node"><title>Node29</title>
<a xlink:href="_flaw_widget_8h.html" target="_top" xlink:title="src/Widgets/FlawWidget.h">
<polygon fill="white" stroke="black" points="2509.33,-174.5 2509.33,-195.5 2645.33,-195.5 2645.33,-174.5 2509.33,-174.5"/>
<text text-anchor="middle" x="2577.33" y="-182.5" font-family="DejaVuSans" font-size="10.00">src/Widgets/FlawWidget.h</text>
</a>
</g>
<!-- Node1&#45;&gt;Node29 -->
<g id="edge82" class="edge"><title>Node1&#45;&gt;Node29</title>
<path fill="none" stroke="midnightblue" d="M1825.35,-239.676C1970.93,-234.025 2257.83,-220.682 2500.33,-196 2503.15,-195.713 2506.03,-195.399 2508.93,-195.064"/>
<polygon fill="midnightblue" stroke="midnightblue" points="1824.97,-236.188 1815.12,-240.07 1825.24,-243.183 1824.97,-236.188"/>
</g>
<!-- Node31 -->
<g id="node76" class="node"><title>Node31</title>
<a xlink:href="_chara_specialties_8h.html" target="_top" xlink:title="src/Widgets/CharaSpecialties.h">
<polygon fill="white" stroke="black" points="1330.33,-174.5 1330.33,-195.5 1494.33,-195.5 1494.33,-174.5 1330.33,-174.5"/>
<text text-anchor="middle" x="1412.33" y="-182.5" font-family="DejaVuSans" font-size="10.00">src/Widgets/CharaSpecialties.h</text>
</a>
</g>
<!-- Node1&#45;&gt;Node31 -->
<g id="edge90" class="edge"><title>Node1&#45;&gt;Node31</title>
<path fill="none" stroke="midnightblue" d="M1662.7,-230.665C1605.45,-220.222 1524.26,-205.415 1470.03,-195.523"/>
<polygon fill="midnightblue" stroke="midnightblue" points="1662.28,-234.145 1672.75,-232.497 1663.54,-227.259 1662.28,-234.145"/>
</g>
<!-- Node33 -->
<g id="node82" class="node"><title>Node33</title>
<a xlink:href="_storage_character_8cpp.html" target="_top" xlink:title="src/Storage/StorageCharacter.cpp">
<polygon fill="white" stroke="black" points="2663.33,-174.5 2663.33,-195.5 2843.33,-195.5 2843.33,-174.5 2663.33,-174.5"/>
<text text-anchor="middle" x="2753.33" y="-182.5" font-family="DejaVuSans" font-size="10.00">src/Storage/StorageCharacter.cpp</text>
</a>
</g>
<!-- Node1&#45;&gt;Node33 -->
<g id="edge98" class="edge"><title>Node1&#45;&gt;Node33</title>
<path fill="none" stroke="midnightblue" d="M1824.86,-240.06C1992.26,-234.436 2351.72,-220.486 2654.33,-196 2657.26,-195.763 2660.24,-195.509 2663.25,-195.241"/>
<polygon fill="midnightblue" stroke="midnightblue" points="1824.72,-236.562 1814.85,-240.394 1824.96,-243.558 1824.72,-236.562"/>
</g>
<!-- Node34 -->
<g id="node84" class="node"><title>Node34</title>
<a xlink:href="_chara_trait_8h.html" target="_top" xlink:title="src/Widgets/CharaTrait.h">
<polygon fill="white" stroke="black" points="1514.83,-174.5 1514.83,-195.5 1645.83,-195.5 1645.83,-174.5 1514.83,-174.5"/>
<text text-anchor="middle" x="1580.33" y="-182.5" font-family="DejaVuSans" font-size="10.00">src/Widgets/CharaTrait.h</text>
</a>
</g>
<!-- Node1&#45;&gt;Node34 -->
<g id="edge100" class="edge"><title>Node1&#45;&gt;Node34</title>
<path fill="none" stroke="midnightblue" d="M1693.8,-228.874C1667.18,-218.582 1631.7,-204.862 1607.55,-195.523"/>
<polygon fill="midnightblue" stroke="midnightblue" points="1692.58,-232.155 1703.17,-232.497 1695.1,-225.626 1692.58,-232.155"/>
</g>
<!-- Node36 -->
<g id="node93" class="node"><title>Node36</title>
<a xlink:href="_check_trait_8h.html" target="_top" xlink:title="src/Widgets/CheckTrait.h">
<polygon fill="white" stroke="black" points="2899.33,-174.5 2899.33,-195.5 3031.33,-195.5 3031.33,-174.5 2899.33,-174.5"/>
<text text-anchor="middle" x="2965.33" y="-182.5" font-family="DejaVuSans" font-size="10.00">src/Widgets/CheckTrait.h</text>
</a>
</g>
<!-- Node1&#45;&gt;Node36 -->
<g id="edge114" class="edge"><title>Node1&#45;&gt;Node36</title>
<path fill="none" stroke="midnightblue" d="M1824.98,-242.22C2022.44,-239.918 2492.61,-230.909 2885.33,-196 2889.8,-195.603 2894.4,-195.133 2899.03,-194.615"/>
<polygon fill="midnightblue" stroke="midnightblue" points="1824.88,-238.721 1814.92,-242.335 1824.96,-245.721 1824.88,-238.721"/>
</g>
<!-- Node38 -->
<g id="node98" class="node"><title>Node38</title>
<a xlink:href="_name_dialog_8h.html" target="_top" xlink:title="src/Widgets/Dialogs/NameDialog.h">
<polygon fill="white" stroke="black" points="3048.83,-174.5 3048.83,-195.5 3229.83,-195.5 3229.83,-174.5 3048.83,-174.5"/>
<text text-anchor="middle" x="3139.33" y="-182.5" font-family="DejaVuSans" font-size="10.00">src/Widgets/Dialogs/NameDialog.h</text>
</a>
</g>
<!-- Node1&#45;&gt;Node38 -->
<g id="edge120" class="edge"><title>Node1&#45;&gt;Node38</title>
<path fill="none" stroke="midnightblue" d="M1825.16,-242.027C2041.1,-239.281 2585.95,-229.348 3040.33,-196 3043.09,-195.797 3045.89,-195.577 3048.72,-195.342"/>
<polygon fill="midnightblue" stroke="midnightblue" points="1825.08,-238.528 1815.13,-242.153 1825.17,-245.528 1825.08,-238.528"/>
</g>
<!-- Node3 -->
<g id="node5" class="node"><title>Node3</title>
<a xlink:href="_calc_advantages_8cpp.html" target="_top" xlink:title="src/Calc/CalcAdvantages.cpp">
<polygon fill="white" stroke="black" points="165.833,-116.5 165.833,-137.5 320.833,-137.5 320.833,-116.5 165.833,-116.5"/>
<text text-anchor="middle" x="243.333" y="-124.5" font-family="DejaVuSans" font-size="10.00">src/Calc/CalcAdvantages.cpp</text>
</a>
</g>
<!-- Node2&#45;&gt;Node3 -->
<g id="edge4" class="edge"><title>Node2&#45;&gt;Node3</title>
<path fill="none" stroke="midnightblue" d="M381.932,-171.413C349.639,-161.065 305.828,-147.026 276.173,-137.523"/>
<polygon fill="midnightblue" stroke="midnightblue" points="380.965,-174.778 391.556,-174.497 383.101,-168.112 380.965,-174.778"/>
</g>
<!-- Node2&#45;&gt;Node4 -->
<g id="edge6" class="edge"><title>Node2&#45;&gt;Node4</title>
<path fill="none" stroke="midnightblue" d="M353.414,-172.794C292.698,-162.345 206.189,-147.456 148.476,-137.523"/>
<polygon fill="midnightblue" stroke="midnightblue" points="352.856,-176.25 363.305,-174.497 354.044,-169.351 352.856,-176.25"/>
</g>
<!-- Node2&#45;&gt;Node9 -->
<g id="edge16" class="edge"><title>Node2&#45;&gt;Node9</title>
<path fill="none" stroke="midnightblue" d="M424.333,-164.191C424.333,-155.168 424.333,-144.994 424.333,-137.571"/>
<polygon fill="midnightblue" stroke="midnightblue" points="420.834,-164.362 424.333,-174.362 427.834,-164.362 420.834,-164.362"/>
</g>
<!-- Node11 -->
<g id="node22" class="node"><title>Node11</title>
<a xlink:href="_attribute_widget_8cpp.html" target="_top" xlink:title="src/Widgets/AttributeWidget.cpp">
<polygon fill="white" stroke="black" points="947.833,-116.5 947.833,-137.5 1116.83,-137.5 1116.83,-116.5 947.833,-116.5"/>
<text text-anchor="middle" x="1032.33" y="-124.5" font-family="DejaVuSans" font-size="10.00">src/Widgets/AttributeWidget.cpp</text>
</a>
</g>
<!-- Node2&#45;&gt;Node11 -->
<g id="edge22" class="edge"><title>Node2&#45;&gt;Node11</title>
<path fill="none" stroke="midnightblue" d="M506.046,-177.205C621.364,-166.204 830.8,-146.225 947.689,-135.075"/>
<polygon fill="midnightblue" stroke="midnightblue" points="505.489,-173.742 495.867,-178.176 506.154,-180.711 505.489,-173.742"/>
</g>
<!-- Node5 -->
<g id="node9" class="node"><title>Node5</title>
<a xlink:href="_draw_sheet_8cpp.html" target="_top" xlink:title="src/Draw/DrawSheet.cpp">
<polygon fill="white" stroke="black" points="26.3334,-58.5 26.3334,-79.5 160.333,-79.5 160.333,-58.5 26.3334,-58.5"/>
<text text-anchor="middle" x="93.3334" y="-66.5" font-family="DejaVuSans" font-size="10.00">src/Draw/DrawSheet.cpp</text>
</a>
</g>
<!-- Node4&#45;&gt;Node5 -->
<g id="edge8" class="edge"><title>Node4&#45;&gt;Node5</title>
<path fill="none" stroke="midnightblue" d="M89.4861,-106.191C90.4194,-97.1684 91.472,-86.9941 92.2399,-79.5707"/>
<polygon fill="midnightblue" stroke="midnightblue" points="85.9816,-106.055 88.4339,-116.362 92.9444,-106.775 85.9816,-106.055"/>
</g>
<!-- Node4&#45;&gt;Node6 -->
<g id="edge10" class="edge"><title>Node4&#45;&gt;Node6</title>
<path fill="none" stroke="midnightblue" d="M158.552,-116.007C393.452,-94.0641 1059.14,-75.2959 1247.29,-70.2982"/>
<polygon fill="midnightblue" stroke="midnightblue" points="157.982,-112.545 148.364,-116.988 158.653,-119.513 157.982,-112.545"/>
</g>
<!-- Node7 -->
<g id="node13" class="node"><title>Node7</title>
<a xlink:href="main_8cpp.html" target="_top" xlink:title="src/main.cpp">
<polygon fill="white" stroke="black" points="1258.33,-0.5 1258.33,-21.5 1336.33,-21.5 1336.33,-0.5 1258.33,-0.5"/>
<text text-anchor="middle" x="1297.33" y="-8.5" font-family="DejaVuSans" font-size="10.00">src/main.cpp</text>
</a>
</g>
<!-- Node6&#45;&gt;Node7 -->
<g id="edge12" class="edge"><title>Node6&#45;&gt;Node7</title>
<path fill="none" stroke="midnightblue" d="M1297.33,-48.1906C1297.33,-39.1684 1297.33,-28.9941 1297.33,-21.5707"/>
<polygon fill="midnightblue" stroke="midnightblue" points="1293.83,-48.3619 1297.33,-58.3619 1300.83,-48.3619 1293.83,-48.3619"/>
</g>
<!-- Node6&#45;&gt;Node8 -->
<g id="edge14" class="edge"><title>Node6&#45;&gt;Node8</title>
<path fill="none" stroke="midnightblue" d="M1237.06,-64.0411C1102.31,-52.9554 778.311,-26.3002 648,-15.5797"/>
<polygon fill="midnightblue" stroke="midnightblue" points="1236.94,-67.5435 1247.2,-64.8753 1237.52,-60.567 1236.94,-67.5435"/>
</g>
<!-- Node9&#45;&gt;Node6 -->
<g id="edge18" class="edge"><title>Node9&#45;&gt;Node6</title>
<path fill="none" stroke="midnightblue" d="M521.405,-115.854C801.662,-91.476 1124.97,-76.3312 1247.2,-71.0725"/>
<polygon fill="midnightblue" stroke="midnightblue" points="520.691,-112.403 511.035,-116.762 521.302,-119.376 520.691,-112.403"/>
</g>
<!-- Node10 -->
<g id="node20" class="node"><title>Node10</title>
<a xlink:href="_advantages_widget_8cpp.html" target="_top" xlink:title="src/Widgets/AdvantagesWidget.cpp">
<polygon fill="white" stroke="black" points="332.333,-58.5 332.333,-79.5 516.333,-79.5 516.333,-58.5 332.333,-58.5"/>
<text text-anchor="middle" x="424.333" y="-66.5" font-family="DejaVuSans" font-size="10.00">src/Widgets/AdvantagesWidget.cpp</text>
</a>
</g>
<!-- Node9&#45;&gt;Node10 -->
<g id="edge20" class="edge"><title>Node9&#45;&gt;Node10</title>
<path fill="none" stroke="midnightblue" d="M424.333,-106.191C424.333,-97.1684 424.333,-86.9941 424.333,-79.5707"/>
<polygon fill="midnightblue" stroke="midnightblue" points="420.834,-106.362 424.333,-116.362 427.834,-106.362 420.834,-106.362"/>
</g>
<!-- Node12&#45;&gt;Node6 -->
<g id="edge30" class="edge"><title>Node12&#45;&gt;Node6</title>
<path fill="none" stroke="midnightblue" d="M710.116,-164.029C711.174,-148.294 715.403,-127.552 729.333,-116 768.75,-83.3139 1115.79,-72.7576 1247.2,-69.9141"/>
<polygon fill="midnightblue" stroke="midnightblue" points="706.606,-164.302 709.813,-174.4 713.603,-164.506 706.606,-164.302"/>
</g>
<!-- Node13 -->
<g id="node27" class="node"><title>Node13</title>
<a xlink:href="_read_xml_character_8cpp.html" target="_top" xlink:title="src/IO/ReadXmlCharacter.cpp">
<polygon fill="white" stroke="black" points="527.833,-116.5 527.833,-137.5 682.833,-137.5 682.833,-116.5 527.833,-116.5"/>
<text text-anchor="middle" x="605.333" y="-124.5" font-family="DejaVuSans" font-size="10.00">src/IO/ReadXmlCharacter.cpp</text>
</a>
</g>
<!-- Node12&#45;&gt;Node13 -->
<g id="edge28" class="edge"><title>Node12&#45;&gt;Node13</title>
<path fill="none" stroke="midnightblue" d="M682.305,-169.517C664.023,-159.419 640.641,-146.503 624.47,-137.571"/>
<polygon fill="midnightblue" stroke="midnightblue" points="680.629,-172.59 691.075,-174.362 684.014,-166.463 680.629,-172.59"/>
</g>
<!-- Node14&#45;&gt;Node6 -->
<g id="edge36" class="edge"><title>Node14&#45;&gt;Node6</title>
<path fill="none" stroke="midnightblue" d="M911.284,-164.395C915.453,-148.555 923.683,-127.496 939.333,-116 963.678,-98.1174 1154.31,-80.519 1247.03,-72.9146"/>
<polygon fill="midnightblue" stroke="midnightblue" points="907.825,-163.817 909.004,-174.346 914.649,-165.38 907.825,-163.817"/>
</g>
<!-- Node15 -->
<g id="node32" class="node"><title>Node15</title>
<a xlink:href="_write_xml_character_8cpp.html" target="_top" xlink:title="src/IO/WriteXmlCharacter.cpp">
<polygon fill="white" stroke="black" points="737.833,-116.5 737.833,-137.5 892.833,-137.5 892.833,-116.5 737.833,-116.5"/>
<text text-anchor="middle" x="815.333" y="-124.5" font-family="DejaVuSans" font-size="10.00">src/IO/WriteXmlCharacter.cpp</text>
</a>
</g>
<!-- Node14&#45;&gt;Node15 -->
<g id="edge34" class="edge"><title>Node14&#45;&gt;Node15</title>
<path fill="none" stroke="midnightblue" d="M881.671,-168.821C865.824,-158.831 845.946,-146.299 832.101,-137.571"/>
<polygon fill="midnightblue" stroke="midnightblue" points="880.133,-171.99 890.459,-174.362 883.866,-166.068 880.133,-171.99"/>
</g>
<!-- Node16&#45;&gt;Node6 -->
<g id="edge42" class="edge"><title>Node16&#45;&gt;Node6</title>
<path fill="none" stroke="midnightblue" d="M2643.6,-116.292C2642.51,-116.191 2641.42,-116.093 2640.33,-116 2381.88,-93.7673 1559.07,-74.6954 1347.38,-70.0689"/>
<polygon fill="midnightblue" stroke="midnightblue" points="2643.3,-119.78 2653.6,-117.308 2644.01,-112.815 2643.3,-119.78"/>
</g>
<!-- Node17 -->
<g id="node39" class="node"><title>Node17</title>
<a xlink:href="_info_widget_8cpp.html" target="_top" xlink:title="src/Widgets/InfoWidget.cpp">
<polygon fill="white" stroke="black" points="2857.33,-58.5 2857.33,-79.5 3001.33,-79.5 3001.33,-58.5 2857.33,-58.5"/>
<text text-anchor="middle" x="2929.33" y="-66.5" font-family="DejaVuSans" font-size="10.00">src/Widgets/InfoWidget.cpp</text>
</a>
</g>
<!-- Node16&#45;&gt;Node17 -->
<g id="edge44" class="edge"><title>Node16&#45;&gt;Node17</title>
<path fill="none" stroke="midnightblue" d="M2767.85,-113.812C2805.27,-103.428 2856.73,-89.1487 2891.41,-79.5231"/>
<polygon fill="midnightblue" stroke="midnightblue" points="2766.88,-110.45 2758.18,-116.497 2768.75,-117.195 2766.88,-110.45"/>
</g>
<!-- Node18&#45;&gt;Node16 -->
<g id="edge48" class="edge"><title>Node18&#45;&gt;Node16</title>
<path fill="none" stroke="midnightblue" d="M2482.11,-172.6C2536.65,-162.161 2613.79,-147.394 2665.36,-137.523"/>
<polygon fill="midnightblue" stroke="midnightblue" points="2481.37,-169.179 2472.2,-174.497 2482.68,-176.054 2481.37,-169.179"/>
</g>
<!-- Node18&#45;&gt;Node19 -->
<g id="edge50" class="edge"><title>Node18&#45;&gt;Node19</title>
<path fill="none" stroke="midnightblue" d="M2444.54,-169.379C2462.09,-159.301 2484.44,-146.462 2499.93,-137.571"/>
<polygon fill="midnightblue" stroke="midnightblue" points="2442.79,-166.347 2435.86,-174.362 2446.27,-172.417 2442.79,-166.347"/>
</g>
<!-- Node20&#45;&gt;Node6 -->
<g id="edge54" class="edge"><title>Node20&#45;&gt;Node6</title>
<path fill="none" stroke="midnightblue" d="M1095.24,-167.551C1113.33,-152.37 1141.25,-130.578 1168.33,-116 1197.61,-100.238 1233.29,-87.698 1259.69,-79.5488"/>
<polygon fill="midnightblue" stroke="midnightblue" points="1092.53,-165.259 1087.2,-174.411 1097.08,-170.585 1092.53,-165.259"/>
</g>
<!-- Node20&#45;&gt;Node11 -->
<g id="edge56" class="edge"><title>Node20&#45;&gt;Node11</title>
<path fill="none" stroke="midnightblue" d="M1061.43,-166.25C1054.39,-156.75 1046.1,-145.565 1040.17,-137.571"/>
<polygon fill="midnightblue" stroke="midnightblue" points="1058.68,-168.413 1067.45,-174.362 1064.3,-164.244 1058.68,-168.413"/>
</g>
<!-- Node21&#45;&gt;Node6 -->
<g id="edge60" class="edge"><title>Node21&#45;&gt;Node6</title>
<path fill="none" stroke="midnightblue" d="M1798.99,-172.554C1851.2,-162.392 1915.39,-148.111 1923.33,-138 1929.37,-130.312 1929.98,-123.168 1923.33,-116 1903.82,-94.9644 1492.66,-76.7276 1347.52,-70.9237"/>
<polygon fill="midnightblue" stroke="midnightblue" points="1798.23,-169.137 1789.07,-174.465 1799.55,-176.011 1798.23,-169.137"/>
</g>
<!-- Node22 -->
<g id="node53" class="node"><title>Node22</title>
<a xlink:href="_skill_widget_8cpp.html" target="_top" xlink:title="src/Widgets/SkillWidget.cpp">
<polygon fill="white" stroke="black" points="1600.33,-116.5 1600.33,-137.5 1746.33,-137.5 1746.33,-116.5 1600.33,-116.5"/>
<text text-anchor="middle" x="1673.33" y="-124.5" font-family="DejaVuSans" font-size="10.00">src/Widgets/SkillWidget.cpp</text>
</a>
</g>
<!-- Node21&#45;&gt;Node22 -->
<g id="edge62" class="edge"><title>Node21&#45;&gt;Node22</title>
<path fill="none" stroke="midnightblue" d="M1712.76,-167.118C1703.25,-157.438 1691.82,-145.81 1683.72,-137.571"/>
<polygon fill="midnightblue" stroke="midnightblue" points="1710.37,-169.683 1719.88,-174.362 1715.37,-164.776 1710.37,-169.683"/>
</g>
<!-- Node23&#45;&gt;Node6 -->
<g id="edge66" class="edge"><title>Node23&#45;&gt;Node6</title>
<path fill="none" stroke="midnightblue" d="M1962.55,-172.797C2033.25,-161.249 2127.77,-144.715 2133.33,-138 2139.57,-130.47 2140.05,-123.105 2133.33,-116 2106.23,-87.3297 1523.73,-73.4831 1347.44,-69.9389"/>
<polygon fill="midnightblue" stroke="midnightblue" points="1961.61,-169.403 1952.3,-174.462 1962.73,-176.312 1961.61,-169.403"/>
</g>
<!-- Node24 -->
<g id="node58" class="node"><title>Node24</title>
<a xlink:href="_merit_widget_8cpp.html" target="_top" xlink:title="src/Widgets/MeritWidget.cpp">
<polygon fill="white" stroke="black" points="1763.83,-116.5 1763.83,-137.5 1914.83,-137.5 1914.83,-116.5 1763.83,-116.5"/>
<text text-anchor="middle" x="1839.33" y="-124.5" font-family="DejaVuSans" font-size="10.00">src/Widgets/MeritWidget.cpp</text>
</a>
</g>
<!-- Node23&#45;&gt;Node24 -->
<g id="edge68" class="edge"><title>Node23&#45;&gt;Node24</title>
<path fill="none" stroke="midnightblue" d="M1870.46,-166.25C1862.93,-156.75 1854.06,-145.565 1847.72,-137.571"/>
<polygon fill="midnightblue" stroke="midnightblue" points="1867.94,-168.702 1876.9,-174.362 1873.42,-164.352 1867.94,-168.702"/>
</g>
<!-- Node25&#45;&gt;Node6 -->
<g id="edge72" class="edge"><title>Node25&#45;&gt;Node6</title>
<path fill="none" stroke="midnightblue" d="M2297.81,-172.655C2337.88,-164.987 2379.3,-153.585 2391.33,-138 2397.31,-130.262 2398.1,-123.061 2391.33,-116 2354.8,-77.862 1557.14,-70.5198 1347.46,-69.2467"/>
<polygon fill="midnightblue" stroke="midnightblue" points="2297.14,-169.219 2287.94,-174.475 2298.41,-176.102 2297.14,-169.219"/>
</g>
<!-- Node26 -->
<g id="node63" class="node"><title>Node26</title>
<a xlink:href="_morality_widget_8cpp.html" target="_top" xlink:title="src/Widgets/MoralityWidget.cpp">
<polygon fill="white" stroke="black" points="2218.33,-116.5 2218.33,-137.5 2382.33,-137.5 2382.33,-116.5 2218.33,-116.5"/>
<text text-anchor="middle" x="2300.33" y="-124.5" font-family="DejaVuSans" font-size="10.00">src/Widgets/MoralityWidget.cpp</text>
</a>
</g>
<!-- Node25&#45;&gt;Node26 -->
<g id="edge74" class="edge"><title>Node25&#45;&gt;Node26</title>
<path fill="none" stroke="midnightblue" d="M2236.16,-168.821C2251.49,-158.831 2270.72,-146.299 2284.11,-137.571"/>
<polygon fill="midnightblue" stroke="midnightblue" points="2234.12,-165.97 2227.66,-174.362 2237.95,-171.834 2234.12,-165.97"/>
</g>
<!-- Node27&#45;&gt;Node6 -->
<g id="edge78" class="edge"><title>Node27&#45;&gt;Node6</title>
<path fill="none" stroke="midnightblue" d="M2095.82,-171.358C2132.32,-159.142 2171.62,-139.548 2149.33,-116 2121.65,-86.7468 1526,-73.2749 1347.47,-69.8844"/>
<polygon fill="midnightblue" stroke="midnightblue" points="2094.61,-168.072 2086.15,-174.454 2096.74,-174.739 2094.61,-168.072"/>
</g>
<!-- Node28 -->
<g id="node68" class="node"><title>Node28</title>
<a xlink:href="_power_widget_8cpp.html" target="_top" xlink:title="src/Widgets/PowerWidget.cpp">
<polygon fill="white" stroke="black" points="1969.83,-116.5 1969.83,-137.5 2124.83,-137.5 2124.83,-116.5 1969.83,-116.5"/>
<text text-anchor="middle" x="2047.33" y="-124.5" font-family="DejaVuSans" font-size="10.00">src/Widgets/PowerWidget.cpp</text>
</a>
</g>
<!-- Node27&#45;&gt;Node28 -->
<g id="edge80" class="edge"><title>Node27&#45;&gt;Node28</title>
<path fill="none" stroke="midnightblue" d="M2046.05,-164.191C2046.36,-155.168 2046.71,-144.994 2046.97,-137.571"/>
<polygon fill="midnightblue" stroke="midnightblue" points="2042.55,-164.247 2045.7,-174.362 2049.54,-164.488 2042.55,-164.247"/>
</g>
<!-- Node29&#45;&gt;Node6 -->
<g id="edge84" class="edge"><title>Node29&#45;&gt;Node6</title>
<path fill="none" stroke="midnightblue" d="M2595.45,-166.617C2608.27,-151.42 2620.95,-130.119 2607.33,-116 2585.05,-92.9044 1584.47,-74.0109 1347.34,-69.8526"/>
<polygon fill="midnightblue" stroke="midnightblue" points="2592.58,-164.575 2588.49,-174.347 2597.78,-169.261 2592.58,-164.575"/>
</g>
<!-- Node30 -->
<g id="node73" class="node"><title>Node30</title>
<a xlink:href="_flaw_widget_8cpp.html" target="_top" xlink:title="src/Widgets/FlawWidget.cpp">
<polygon fill="white" stroke="black" points="2803.83,-116.5 2803.83,-137.5 2950.83,-137.5 2950.83,-116.5 2803.83,-116.5"/>
<text text-anchor="middle" x="2877.33" y="-124.5" font-family="DejaVuSans" font-size="10.00">src/Widgets/FlawWidget.cpp</text>
</a>
</g>
<!-- Node29&#45;&gt;Node30 -->
<g id="edge86" class="edge"><title>Node29&#45;&gt;Node30</title>
<path fill="none" stroke="midnightblue" d="M2641.81,-172.535C2695.78,-162.099 2771.95,-147.374 2822.9,-137.523"/>
<polygon fill="midnightblue" stroke="midnightblue" points="2640.81,-169.162 2631.66,-174.497 2642.14,-176.035 2640.81,-169.162"/>
</g>
<!-- Node31&#45;&gt;Node6 -->
<g id="edge92" class="edge"><title>Node31&#45;&gt;Node6</title>
<path fill="none" stroke="midnightblue" d="M1411.08,-164.17C1409.2,-149.284 1404.58,-129.569 1393.33,-116 1378.77,-98.427 1356.04,-86.8906 1336.35,-79.6467"/>
<polygon fill="midnightblue" stroke="midnightblue" points="1407.62,-164.803 1412.05,-174.429 1414.59,-164.144 1407.62,-164.803"/>
</g>
<!-- Node32 -->
<g id="node79" class="node"><title>Node32</title>
<a xlink:href="_chara_specialties_8cpp.html" target="_top" xlink:title="src/Widgets/CharaSpecialties.cpp">
<polygon fill="white" stroke="black" points="1209.83,-116.5 1209.83,-137.5 1384.83,-137.5 1384.83,-116.5 1209.83,-116.5"/>
<text text-anchor="middle" x="1297.33" y="-124.5" font-family="DejaVuSans" font-size="10.00">src/Widgets/CharaSpecialties.cpp</text>
</a>
</g>
<!-- Node31&#45;&gt;Node32 -->
<g id="edge94" class="edge"><title>Node31&#45;&gt;Node32</title>
<path fill="none" stroke="midnightblue" d="M1382.46,-169.932C1362.35,-159.793 1336.34,-146.675 1318.39,-137.621"/>
<polygon fill="midnightblue" stroke="midnightblue" points="1381,-173.118 1391.51,-174.497 1384.16,-166.868 1381,-173.118"/>
</g>
<!-- Node34&#45;&gt;Node11 -->
<g id="edge102" class="edge"><title>Node34&#45;&gt;Node11</title>
<path fill="none" stroke="midnightblue" d="M1504.75,-174.172C1504.27,-174.114 1503.8,-174.057 1503.33,-174 1368.52,-157.652 1211.5,-142.826 1117.11,-134.368"/>
<polygon fill="midnightblue" stroke="midnightblue" points="1504.47,-177.665 1514.83,-175.449 1505.35,-170.72 1504.47,-177.665"/>
</g>
<!-- Node34&#45;&gt;Node22 -->
<g id="edge110" class="edge"><title>Node34&#45;&gt;Node22</title>
<path fill="none" stroke="midnightblue" d="M1606.27,-168.821C1622.29,-158.831 1642.39,-146.299 1656.38,-137.571"/>
<polygon fill="midnightblue" stroke="midnightblue" points="1604.02,-166.1 1597.39,-174.362 1607.73,-172.04 1604.02,-166.1"/>
</g>
<!-- Node34&#45;&gt;Node24 -->
<g id="edge106" class="edge"><title>Node34&#45;&gt;Node24</title>
<path fill="none" stroke="midnightblue" d="M1637.16,-172.274C1683.69,-161.855 1748.72,-147.292 1792.34,-137.523"/>
<polygon fill="midnightblue" stroke="midnightblue" points="1636.23,-168.896 1627.24,-174.497 1637.76,-175.727 1636.23,-168.896"/>
</g>
<!-- Node34&#45;&gt;Node28 -->
<g id="edge108" class="edge"><title>Node34&#45;&gt;Node28</title>
<path fill="none" stroke="midnightblue" d="M1656.1,-173.788C1770.78,-158.511 1892.61,-144.336 1969.7,-135.623"/>
<polygon fill="midnightblue" stroke="midnightblue" points="1655.53,-170.332 1646.09,-175.126 1656.46,-177.27 1655.53,-170.332"/>
</g>
<!-- Node35 -->
<g id="node87" class="node"><title>Node35</title>
<a xlink:href="_chara_trait_8cpp.html" target="_top" xlink:title="src/Widgets/CharaTrait.cpp">
<polygon fill="white" stroke="black" points="1439.83,-116.5 1439.83,-137.5 1582.83,-137.5 1582.83,-116.5 1439.83,-116.5"/>
<text text-anchor="middle" x="1511.33" y="-124.5" font-family="DejaVuSans" font-size="10.00">src/Widgets/CharaTrait.cpp</text>
</a>
</g>
<!-- Node34&#45;&gt;Node35 -->
<g id="edge104" class="edge"><title>Node34&#45;&gt;Node35</title>
<path fill="none" stroke="midnightblue" d="M1559.74,-167.691C1548.09,-157.9 1533.9,-145.973 1523.91,-137.571"/>
<polygon fill="midnightblue" stroke="midnightblue" points="1557.77,-170.607 1567.68,-174.362 1562.27,-165.248 1557.77,-170.607"/>
</g>
<!-- Node36&#45;&gt;Node30 -->
<g id="edge118" class="edge"><title>Node36&#45;&gt;Node30</title>
<path fill="none" stroke="midnightblue" d="M2940.79,-168.821C2925.63,-158.831 2906.62,-146.299 2893.37,-137.571"/>
<polygon fill="midnightblue" stroke="midnightblue" points="2938.92,-171.781 2949.19,-174.362 2942.77,-165.936 2938.92,-171.781"/>
</g>
<!-- Node37 -->
<g id="node95" class="node"><title>Node37</title>
<a xlink:href="_check_trait_8cpp.html" target="_top" xlink:title="src/Widgets/CheckTrait.cpp">
<polygon fill="white" stroke="black" points="2967.83,-116.5 2967.83,-137.5 3110.83,-137.5 3110.83,-116.5 2967.83,-116.5"/>
<text text-anchor="middle" x="3039.33" y="-124.5" font-family="DejaVuSans" font-size="10.00">src/Widgets/CheckTrait.cpp</text>
</a>
</g>
<!-- Node36&#45;&gt;Node37 -->
<g id="edge116" class="edge"><title>Node36&#45;&gt;Node37</title>
<path fill="none" stroke="midnightblue" d="M2987.05,-167.975C2999.61,-158.132 3015.02,-146.055 3025.85,-137.571"/>
<polygon fill="midnightblue" stroke="midnightblue" points="2984.62,-165.438 2978.91,-174.362 2988.94,-170.948 2984.62,-165.438"/>
</g>
<!-- Node38&#45;&gt;Node17 -->
<g id="edge124" class="edge"><title>Node38&#45;&gt;Node17</title>
<path fill="none" stroke="midnightblue" d="M3138.66,-164.351C3137.05,-148.96 3132.36,-128.519 3119.33,-116 3102.31,-99.6348 3047.75,-87.1849 3001.45,-79.2232"/>
<polygon fill="midnightblue" stroke="midnightblue" points="3135.18,-164.749 3139.37,-174.48 3142.16,-164.26 3135.18,-164.749"/>
</g>
<!-- Node39 -->
<g id="node100" class="node"><title>Node39</title>
<a xlink:href="_name_dialog_8cpp.html" target="_top" xlink:title="src/Widgets/Dialogs/NameDialog.cpp">
<polygon fill="white" stroke="black" points="3166.33,-116.5 3166.33,-137.5 3358.33,-137.5 3358.33,-116.5 3166.33,-116.5"/>
<text text-anchor="middle" x="3262.33" y="-124.5" font-family="DejaVuSans" font-size="10.00">src/Widgets/Dialogs/NameDialog.cpp</text>
</a>
</g>
<!-- Node38&#45;&gt;Node39 -->
<g id="edge122" class="edge"><title>Node38&#45;&gt;Node39</title>
<path fill="none" stroke="midnightblue" d="M3170.71,-170.206C3192.28,-160.031 3220.44,-146.757 3239.81,-137.621"/>
<polygon fill="midnightblue" stroke="midnightblue" points="3169.16,-167.066 3161.61,-174.497 3172.15,-173.397 3169.16,-167.066"/>
</g>
</g>
</svg>
