<?xml version="1.0" encoding="UTF-8" standalone="no"?>
<!DOCTYPE svg PUBLIC "-//W3C//DTD SVG 1.1//EN"
 "http://www.w3.org/Graphics/SVG/1.1/DTD/svg11.dtd">
<!-- Generated by graphviz version 2.26.3 (20100126.1600)
 -->
<!-- Title: G Pages: 1 -->
<svg width="1080pt" height="378pt"
 viewBox="0.00 0.00 1080.48 378.00" xmlns="http://www.w3.org/2000/svg" xmlns:xlink="http://www.w3.org/1999/xlink">
<g id="graph1" class="graph" transform="scale(1 1) rotate(0) translate(4 374)">
<title>G</title>
<polygon fill="white" stroke="white" points="-4,5 -4,-374 1077.48,-374 1077.48,5 -4,5"/>
<!-- Node1 -->
<g id="node1" class="node"><title>Node1</title>
<polygon fill="#bfbfbf" stroke="black" points="223.477,-348.5 223.477,-369.5 403.477,-369.5 403.477,-348.5 223.477,-348.5"/>
<text text-anchor="middle" x="313.477" y="-356.5" font-family="DejaVuSans" font-size="10.00">src/Storage/StorageCharacter.cpp</text>
</g>
<!-- Node2 -->
<g id="node3" class="node"><title>Node2</title>
<polygon fill="white" stroke="#bfbfbf" points="188.477,-290.5 188.477,-311.5 244.477,-311.5 244.477,-290.5 188.477,-290.5"/>
<text text-anchor="middle" x="216.477" y="-298.5" font-family="DejaVuSans" font-size="10.00">QDebug</text>
</g>
<!-- Node1&#45;&gt;Node2 -->
<g id="edge2" class="edge"><title>Node1&#45;&gt;Node2</title>
<path fill="none" stroke="midnightblue" d="M295.685,-348.362C280.918,-339.532 259.699,-326.844 242.938,-316.822"/>
<polygon fill="midnightblue" stroke="midnightblue" points="244.534,-313.699 234.155,-311.571 240.942,-319.707 244.534,-313.699"/>
</g>
<!-- Node3 -->
<g id="node5" class="node"><title>Node3</title>
<a xlink:href="_storage_template_8h.html" target="_top" xlink:title="StorageTemplate.h">
<polygon fill="white" stroke="black" points="219.977,-232.5 219.977,-253.5 326.977,-253.5 326.977,-232.5 219.977,-232.5"/>
<text text-anchor="middle" x="273.477" y="-240.5" font-family="DejaVuSans" font-size="10.00">StorageTemplate.h</text>
</a>
</g>
<!-- Node1&#45;&gt;Node3 -->
<g id="edge4" class="edge"><title>Node1&#45;&gt;Node3</title>
<path fill="none" stroke="midnightblue" d="M307.837,-348.409C303.011,-339.035 296.127,-324.88 291.477,-312 285.771,-296.196 281.056,-277.756 277.885,-263.917"/>
<polygon fill="midnightblue" stroke="midnightblue" points="281.256,-262.953 275.683,-253.943 274.421,-264.462 281.256,-262.953"/>
</g>
<!-- Node17 -->
<g id="node49" class="node"><title>Node17</title>
<a xlink:href="_storage_character_8h.html" target="_top" xlink:title="StorageCharacter.h">
<polygon fill="white" stroke="black" points="300.477,-290.5 300.477,-311.5 410.477,-311.5 410.477,-290.5 300.477,-290.5"/>
<text text-anchor="middle" x="355.477" y="-298.5" font-family="DejaVuSans" font-size="10.00">StorageCharacter.h</text>
</a>
</g>
<!-- Node1&#45;&gt;Node17 -->
<g id="edge64" class="edge"><title>Node1&#45;&gt;Node17</title>
<path fill="none" stroke="midnightblue" d="M321.18,-348.362C326.923,-340.431 334.92,-329.389 341.747,-319.961"/>
<polygon fill="midnightblue" stroke="midnightblue" points="344.792,-321.723 347.822,-311.571 339.122,-317.617 344.792,-321.723"/>
</g>
<!-- Node19 -->
<g id="node61" class="node"><title>Node19</title>
<a xlink:href="_config_8h.html" target="_top" xlink:title="../Config/Config.h">
<polygon fill="white" stroke="black" points="911.477,-290.5 911.477,-311.5 1009.48,-311.5 1009.48,-290.5 911.477,-290.5"/>
<text text-anchor="middle" x="960.477" y="-298.5" font-family="DejaVuSans" font-size="10.00">../Config/Config.h</text>
</a>
</g>
<!-- Node1&#45;&gt;Node19 -->
<g id="edge84" class="edge"><title>Node1&#45;&gt;Node19</title>
<path fill="none" stroke="midnightblue" d="M403.78,-350.905C538.236,-338.852 787.398,-316.516 901.111,-306.322"/>
<polygon fill="midnightblue" stroke="midnightblue" points="901.71,-309.782 911.358,-305.403 901.085,-302.81 901.71,-309.782"/>
</g>
<!-- Node4 -->
<g id="node7" class="node"><title>Node4</title>
<polygon fill="white" stroke="#bfbfbf" points="229.977,-58.5 229.977,-79.5 270.977,-79.5 270.977,-58.5 229.977,-58.5"/>
<text text-anchor="middle" x="250.477" y="-66.5" font-family="DejaVuSans" font-size="10.00">QList</text>
</g>
<!-- Node3&#45;&gt;Node4 -->
<g id="edge6" class="edge"><title>Node3&#45;&gt;Node4</title>
<path fill="none" stroke="midnightblue" d="M269.57,-232.336C266.296,-222.914 261.795,-208.732 259.477,-196 252.746,-159.038 250.986,-115.173 250.562,-89.8655"/>
<polygon fill="midnightblue" stroke="midnightblue" points="254.06,-89.5954 250.449,-79.6348 247.06,-89.673 254.06,-89.5954"/>
</g>
<!-- Node5 -->
<g id="node9" class="node"><title>Node5</title>
<polygon fill="white" stroke="#bfbfbf" points="28.9768,-0.5 28.9768,-21.5 97.9768,-21.5 97.9768,-0.5 28.9768,-0.5"/>
<text text-anchor="middle" x="63.4768" y="-8.5" font-family="DejaVuSans" font-size="10.00">QStringList</text>
</g>
<!-- Node3&#45;&gt;Node5 -->
<g id="edge8" class="edge"><title>Node3&#45;&gt;Node5</title>
<path fill="none" stroke="midnightblue" d="M219.813,-236.8C162.486,-229.306 76.2479,-215.262 49.4768,-196 -1.97504,-158.98 -11.6824,-116.179 13.4768,-58 18.5971,-46.1595 28.3312,-35.9269 37.8601,-28.0602"/>
<polygon fill="midnightblue" stroke="midnightblue" points="40.2523,-30.6365 46.0599,-21.7752 35.9939,-25.0807 40.2523,-30.6365"/>
</g>
<!-- Node6 -->
<g id="node11" class="node"><title>Node6</title>
<a xlink:href="cv___trait_8h.html" target="_top" xlink:title="../Datatypes/cv_Trait.h">
<polygon fill="white" stroke="black" points="268.477,-174.5 268.477,-195.5 390.477,-195.5 390.477,-174.5 268.477,-174.5"/>
<text text-anchor="middle" x="329.477" y="-182.5" font-family="DejaVuSans" font-size="10.00">../Datatypes/cv_Trait.h</text>
</a>
</g>
<!-- Node3&#45;&gt;Node6 -->
<g id="edge10" class="edge"><title>Node3&#45;&gt;Node6</title>
<path fill="none" stroke="midnightblue" d="M283.748,-232.362C291.721,-224.104 302.952,-212.472 312.288,-202.803"/>
<polygon fill="midnightblue" stroke="midnightblue" points="314.843,-205.196 319.271,-195.571 309.807,-200.334 314.843,-205.196"/>
</g>
<!-- Node12 -->
<g id="node32" class="node"><title>Node12</title>
<a xlink:href="cv___identity_list_8h.html" target="_top" xlink:title="../Datatypes/cv_IdentityList.h">
<polygon fill="white" stroke="black" points="57.9768,-174.5 57.9768,-195.5 212.977,-195.5 212.977,-174.5 57.9768,-174.5"/>
<text text-anchor="middle" x="135.477" y="-182.5" font-family="DejaVuSans" font-size="10.00">../Datatypes/cv_IdentityList.h</text>
</a>
</g>
<!-- Node3&#45;&gt;Node12 -->
<g id="edge40" class="edge"><title>Node3&#45;&gt;Node12</title>
<path fill="none" stroke="midnightblue" d="M248.486,-232.497C226.544,-223.275 194.411,-209.769 170.013,-199.515"/>
<polygon fill="midnightblue" stroke="midnightblue" points="171.323,-196.269 160.748,-195.621 168.611,-202.722 171.323,-196.269"/>
</g>
<!-- Node15 -->
<g id="node44" class="node"><title>Node15</title>
<a xlink:href="cv___super_effect_8h.html" target="_top" xlink:title="../Datatypes/cv_SuperEffect.h">
<polygon fill="white" stroke="black" points="554.477,-116.5 554.477,-137.5 712.477,-137.5 712.477,-116.5 554.477,-116.5"/>
<text text-anchor="middle" x="633.477" y="-124.5" font-family="DejaVuSans" font-size="10.00">../Datatypes/cv_SuperEffect.h</text>
</a>
</g>
<!-- Node3&#45;&gt;Node15 -->
<g id="edge58" class="edge"><title>Node3&#45;&gt;Node15</title>
<path fill="none" stroke="midnightblue" d="M306.2,-232.482C332.002,-223.789 368.65,-210.547 399.477,-196 417.125,-187.672 419.354,-181.24 437.477,-174 476.554,-158.389 522.167,-147.073 559.554,-139.462"/>
<polygon fill="midnightblue" stroke="midnightblue" points="560.244,-142.894 569.369,-137.51 558.878,-136.028 560.244,-142.894"/>
</g>
<!-- Node16 -->
<g id="node47" class="node"><title>Node16</title>
<polygon fill="white" stroke="#bfbfbf" points="445.977,-174.5 445.977,-195.5 500.977,-195.5 500.977,-174.5 445.977,-174.5"/>
<text text-anchor="middle" x="473.477" y="-182.5" font-family="DejaVuSans" font-size="10.00">QObject</text>
</g>
<!-- Node3&#45;&gt;Node16 -->
<g id="edge62" class="edge"><title>Node3&#45;&gt;Node16</title>
<path fill="none" stroke="midnightblue" d="M309.695,-232.497C345.502,-222.113 400.034,-206.298 436.204,-195.809"/>
<polygon fill="midnightblue" stroke="midnightblue" points="437.258,-199.148 445.887,-193.001 435.308,-192.425 437.258,-199.148"/>
</g>
<!-- Node6&#45;&gt;Node4 -->
<g id="edge16" class="edge"><title>Node6&#45;&gt;Node4</title>
<path fill="none" stroke="midnightblue" d="M322.186,-174.295C308.841,-154.7 280.32,-112.82 263.547,-88.1913"/>
<polygon fill="midnightblue" stroke="midnightblue" points="266.272,-85.9744 257.75,-79.6792 260.486,-89.9147 266.272,-85.9744"/>
</g>
<!-- Node6&#45;&gt;Node5 -->
<g id="edge18" class="edge"><title>Node6&#45;&gt;Node5</title>
<path fill="none" stroke="midnightblue" d="M313.238,-174.377C268.347,-145.013 142.339,-62.5869 88.4418,-27.3305"/>
<polygon fill="midnightblue" stroke="midnightblue" points="90.1259,-24.2498 79.8413,-21.7046 86.2939,-30.1079 90.1259,-24.2498"/>
</g>
<!-- Node7 -->
<g id="node13" class="node"><title>Node7</title>
<polygon fill="white" stroke="#bfbfbf" points="343.977,-116.5 343.977,-137.5 392.977,-137.5 392.977,-116.5 343.977,-116.5"/>
<text text-anchor="middle" x="368.477" y="-124.5" font-family="DejaVuSans" font-size="10.00">QFlags</text>
</g>
<!-- Node6&#45;&gt;Node7 -->
<g id="edge12" class="edge"><title>Node6&#45;&gt;Node7</title>
<path fill="none" stroke="midnightblue" d="M336.63,-174.362C341.963,-166.431 349.388,-155.389 355.727,-145.961"/>
<polygon fill="midnightblue" stroke="midnightblue" points="358.693,-147.822 361.369,-137.571 352.884,-143.916 358.693,-147.822"/>
</g>
<!-- Node8 -->
<g id="node15" class="node"><title>Node8</title>
<polygon fill="white" stroke="#bfbfbf" points="427.977,-0.5 427.977,-21.5 480.977,-21.5 480.977,-0.5 427.977,-0.5"/>
<text text-anchor="middle" x="454.477" y="-8.5" font-family="DejaVuSans" font-size="10.00">QString</text>
</g>
<!-- Node6&#45;&gt;Node8 -->
<g id="edge14" class="edge"><title>Node6&#45;&gt;Node8</title>
<path fill="none" stroke="midnightblue" d="M328.028,-174.047C326.667,-159.843 326.052,-134.679 335.477,-116 355.635,-76.0465 398.116,-44.5241 426.48,-26.8173"/>
<polygon fill="midnightblue" stroke="midnightblue" points="428.412,-29.7393 435.147,-21.5606 424.781,-23.7541 428.412,-29.7393"/>
</g>
<!-- Node9 -->
<g id="node19" class="node"><title>Node9</title>
<a xlink:href="cv___species_8h.html" target="_top" xlink:title="cv_Species.h">
<polygon fill="white" stroke="black" points="539.977,-58.5 539.977,-79.5 618.977,-79.5 618.977,-58.5 539.977,-58.5"/>
<text text-anchor="middle" x="579.477" y="-66.5" font-family="DejaVuSans" font-size="10.00">cv_Species.h</text>
</a>
</g>
<!-- Node6&#45;&gt;Node9 -->
<g id="edge20" class="edge"><title>Node6&#45;&gt;Node9</title>
<path fill="none" stroke="midnightblue" d="M390.883,-176.667C426.599,-169.946 471.516,-158.169 507.477,-138 530.411,-125.137 551.474,-103.251 564.814,-87.5756"/>
<polygon fill="midnightblue" stroke="midnightblue" points="567.729,-89.543 571.394,-79.6024 562.33,-85.0876 567.729,-89.543"/>
</g>
<!-- Node10 -->
<g id="node22" class="node"><title>Node10</title>
<a xlink:href="cv___trait_detail_8h.html" target="_top" xlink:title="cv_TraitDetail.h">
<polygon fill="white" stroke="black" points="409.977,-116.5 409.977,-137.5 498.977,-137.5 498.977,-116.5 409.977,-116.5"/>
<text text-anchor="middle" x="454.477" y="-124.5" font-family="DejaVuSans" font-size="10.00">cv_TraitDetail.h</text>
</a>
</g>
<!-- Node6&#45;&gt;Node10 -->
<g id="edge24" class="edge"><title>Node6&#45;&gt;Node10</title>
<path fill="none" stroke="midnightblue" d="M352.113,-174.497C371.725,-165.397 400.323,-152.127 422.31,-141.925"/>
<polygon fill="midnightblue" stroke="midnightblue" points="423.988,-145.005 431.586,-137.621 421.042,-138.655 423.988,-145.005"/>
</g>
<!-- Node11 -->
<g id="node28" class="node"><title>Node11</title>
<a xlink:href="cv___abstract_trait_8h.html" target="_top" xlink:title="cv_AbstractTrait.h">
<polygon fill="white" stroke="black" points="767.977,-116.5 767.977,-137.5 868.977,-137.5 868.977,-116.5 767.977,-116.5"/>
<text text-anchor="middle" x="818.477" y="-124.5" font-family="DejaVuSans" font-size="10.00">cv_AbstractTrait.h</text>
</a>
</g>
<!-- Node6&#45;&gt;Node11 -->
<g id="edge34" class="edge"><title>Node6&#45;&gt;Node11</title>
<path fill="none" stroke="midnightblue" d="M390.914,-177.713C484.991,-166.555 663.674,-145.361 757.484,-134.234"/>
<polygon fill="midnightblue" stroke="midnightblue" points="758.149,-137.68 767.667,-133.026 757.325,-130.729 758.149,-137.68"/>
</g>
<!-- Node9&#45;&gt;Node8 -->
<g id="edge22" class="edge"><title>Node9&#45;&gt;Node8</title>
<path fill="none" stroke="midnightblue" d="M556.84,-58.4966C537.229,-49.397 508.63,-36.1273 486.643,-25.9253"/>
<polygon fill="midnightblue" stroke="midnightblue" points="487.912,-22.6554 477.367,-21.6212 484.965,-29.0051 487.912,-22.6554"/>
</g>
<!-- Node10&#45;&gt;Node4 -->
<g id="edge28" class="edge"><title>Node10&#45;&gt;Node4</title>
<path fill="none" stroke="midnightblue" d="M414.493,-116.468C379.954,-107.246 328.766,-93.2802 284.477,-80 283.407,-79.6793 282.32,-79.3492 281.223,-79.0128"/>
<polygon fill="midnightblue" stroke="midnightblue" points="281.879,-75.5506 271.29,-75.8908 279.78,-82.2284 281.879,-75.5506"/>
</g>
<!-- Node10&#45;&gt;Node5 -->
<g id="edge30" class="edge"><title>Node10&#45;&gt;Node5</title>
<path fill="none" stroke="midnightblue" d="M431.13,-116.392C397.977,-101.655 335.099,-74.8963 279.477,-58 221.345,-40.3413 152.509,-26.5493 108.438,-18.5947"/>
<polygon fill="midnightblue" stroke="midnightblue" points="108.793,-15.103 98.3346,-16.7951 107.566,-21.9945 108.793,-15.103"/>
</g>
<!-- Node10&#45;&gt;Node8 -->
<g id="edge26" class="edge"><title>Node10&#45;&gt;Node8</title>
<path fill="none" stroke="midnightblue" d="M454.477,-116.295C454.477,-97.1314 454.477,-56.654 454.477,-31.8434"/>
<polygon fill="midnightblue" stroke="midnightblue" points="457.977,-31.6792 454.477,-21.6792 450.977,-31.6792 457.977,-31.6792"/>
</g>
<!-- Node10&#45;&gt;Node9 -->
<g id="edge32" class="edge"><title>Node10&#45;&gt;Node9</title>
<path fill="none" stroke="midnightblue" d="M477.113,-116.497C496.725,-107.397 525.323,-94.1273 547.31,-83.9253"/>
<polygon fill="midnightblue" stroke="midnightblue" points="548.988,-87.0051 556.586,-79.6212 546.042,-80.6554 548.988,-87.0051"/>
</g>
<!-- Node11&#45;&gt;Node8 -->
<g id="edge36" class="edge"><title>Node11&#45;&gt;Node8</title>
<path fill="none" stroke="midnightblue" d="M791.513,-116.473C754.736,-102.295 686.647,-76.6914 627.477,-58 580.747,-43.2385 526.054,-28.8552 490.872,-19.9692"/>
<polygon fill="midnightblue" stroke="midnightblue" points="491.601,-16.5438 481.05,-17.5034 489.896,-23.3331 491.601,-16.5438"/>
</g>
<!-- Node11&#45;&gt;Node9 -->
<g id="edge38" class="edge"><title>Node11&#45;&gt;Node9</title>
<path fill="none" stroke="midnightblue" d="M775.196,-116.497C734.099,-106.523 672.362,-91.5412 629.249,-81.0786"/>
<polygon fill="midnightblue" stroke="midnightblue" points="629.803,-77.6115 619.259,-78.6543 628.152,-84.414 629.803,-77.6115"/>
</g>
<!-- Node12&#45;&gt;Node4 -->
<g id="edge56" class="edge"><title>Node12&#45;&gt;Node4</title>
<path fill="none" stroke="midnightblue" d="M146.09,-174.295C165.858,-154.355 208.505,-111.337 232.726,-86.9056"/>
<polygon fill="midnightblue" stroke="midnightblue" points="235.335,-89.245 239.89,-79.6792 230.364,-84.3167 235.335,-89.245"/>
</g>
<!-- Node12&#45;&gt;Node8 -->
<g id="edge42" class="edge"><title>Node12&#45;&gt;Node8</title>
<path fill="none" stroke="midnightblue" d="M139.303,-174.315C148.846,-149.348 176.237,-87.0964 221.477,-58 253.497,-37.4059 360.403,-22.0822 417.61,-15.1302"/>
<polygon fill="midnightblue" stroke="midnightblue" points="418.169,-18.5885 427.684,-13.9301 417.341,-11.6376 418.169,-18.5885"/>
</g>
<!-- Node13 -->
<g id="node35" class="node"><title>Node13</title>
<a xlink:href="cv___identity_8h.html" target="_top" xlink:title="cv_Identity.h">
<polygon fill="white" stroke="black" points="23.9768,-116.5 23.9768,-137.5 98.9768,-137.5 98.9768,-116.5 23.9768,-116.5"/>
<text text-anchor="middle" x="61.4768" y="-124.5" font-family="DejaVuSans" font-size="10.00">cv_Identity.h</text>
</a>
</g>
<!-- Node12&#45;&gt;Node13 -->
<g id="edge44" class="edge"><title>Node12&#45;&gt;Node13</title>
<path fill="none" stroke="midnightblue" d="M121.904,-174.362C111.056,-165.859 95.6424,-153.779 83.0982,-143.947"/>
<polygon fill="midnightblue" stroke="midnightblue" points="84.9931,-140.985 74.9635,-137.571 80.6749,-146.494 84.9931,-140.985"/>
</g>
<!-- Node13&#45;&gt;Node5 -->
<g id="edge46" class="edge"><title>Node13&#45;&gt;Node5</title>
<path fill="none" stroke="midnightblue" d="M47.4762,-116.378C32.1128,-103.325 10.7175,-80.1732 19.4768,-58 24.0044,-46.5388 32.793,-36.2323 41.3327,-28.2117"/>
<polygon fill="midnightblue" stroke="midnightblue" points="43.757,-30.7411 48.976,-21.5208 39.1463,-25.474 43.757,-30.7411"/>
</g>
<!-- Node13&#45;&gt;Node8 -->
<g id="edge48" class="edge"><title>Node13&#45;&gt;Node8</title>
<path fill="none" stroke="midnightblue" d="M71.5479,-116.305C86.9406,-100.69 117.972,-71.9901 150.477,-58 197.952,-37.5664 347.431,-21.163 417.52,-14.3771"/>
<polygon fill="midnightblue" stroke="midnightblue" points="418.04,-17.8435 427.662,-13.4088 417.375,-10.8751 418.04,-17.8435"/>
</g>
<!-- Node14 -->
<g id="node39" class="node"><title>Node14</title>
<a xlink:href="cv___name_8h.html" target="_top" xlink:title="cv_Name.h">
<polygon fill="white" stroke="black" points="27.9768,-58.5 27.9768,-79.5 98.9768,-79.5 98.9768,-58.5 27.9768,-58.5"/>
<text text-anchor="middle" x="63.4768" y="-66.5" font-family="DejaVuSans" font-size="10.00">cv_Name.h</text>
</a>
</g>
<!-- Node13&#45;&gt;Node14 -->
<g id="edge50" class="edge"><title>Node13&#45;&gt;Node14</title>
<path fill="none" stroke="midnightblue" d="M61.8436,-116.362C62.1001,-108.922 62.4511,-98.7427 62.762,-89.7276"/>
<polygon fill="midnightblue" stroke="midnightblue" points="66.2655,-89.6854 63.1123,-79.5707 59.2696,-89.4441 66.2655,-89.6854"/>
</g>
<!-- Node14&#45;&gt;Node5 -->
<g id="edge52" class="edge"><title>Node14&#45;&gt;Node5</title>
<path fill="none" stroke="midnightblue" d="M63.4768,-58.3619C63.4768,-50.9219 63.4768,-40.7427 63.4768,-31.7276"/>
<polygon fill="midnightblue" stroke="midnightblue" points="66.9769,-31.5706 63.4768,-21.5707 59.9769,-31.5707 66.9769,-31.5706"/>
</g>
<!-- Node14&#45;&gt;Node8 -->
<g id="edge54" class="edge"><title>Node14&#45;&gt;Node8</title>
<path fill="none" stroke="midnightblue" d="M98.9997,-60.6562C103.524,-59.7024 108.101,-58.7904 112.477,-58 222.868,-38.0603 354.658,-22.1534 417.544,-15.0414"/>
<polygon fill="midnightblue" stroke="midnightblue" points="418.202,-18.4896 427.749,-13.8963 417.421,-11.5333 418.202,-18.4896"/>
</g>
<!-- Node15&#45;&gt;Node9 -->
<g id="edge60" class="edge"><title>Node15&#45;&gt;Node9</title>
<path fill="none" stroke="midnightblue" d="M623.572,-116.362C615.96,-108.186 605.269,-96.7025 596.32,-87.0907"/>
<polygon fill="midnightblue" stroke="midnightblue" points="598.694,-84.5046 589.318,-79.5707 593.571,-89.2746 598.694,-84.5046"/>
</g>
<!-- Node17&#45;&gt;Node3 -->
<g id="edge80" class="edge"><title>Node17&#45;&gt;Node3</title>
<path fill="none" stroke="midnightblue" d="M340.437,-290.362C328.184,-281.696 310.677,-269.313 296.637,-259.382"/>
<polygon fill="midnightblue" stroke="midnightblue" points="298.607,-256.488 288.421,-253.571 294.565,-262.203 298.607,-256.488"/>
</g>
<!-- Node17&#45;&gt;Node6 -->
<g id="edge70" class="edge"><title>Node17&#45;&gt;Node6</title>
<path fill="none" stroke="midnightblue" d="M353.077,-290.295C348.763,-271.045 339.628,-230.289 334.074,-205.509"/>
<polygon fill="midnightblue" stroke="midnightblue" points="337.473,-204.672 331.87,-195.679 330.642,-206.203 337.473,-204.672"/>
</g>
<!-- Node17&#45;&gt;Node12 -->
<g id="edge68" class="edge"><title>Node17&#45;&gt;Node12</title>
<path fill="none" stroke="midnightblue" d="M306.313,-290.445C277.427,-282.935 240.923,-271.108 211.477,-254 187.989,-240.354 165.527,-218.495 151.196,-203.042"/>
<polygon fill="midnightblue" stroke="midnightblue" points="153.787,-200.688 144.482,-195.623 148.597,-205.386 153.787,-200.688"/>
</g>
<!-- Node17&#45;&gt;Node13 -->
<g id="edge66" class="edge"><title>Node17&#45;&gt;Node13</title>
<path fill="none" stroke="midnightblue" d="M300.18,-290.441C219.794,-273.785 77.1972,-238.857 49.4768,-196 40.0336,-181.4 44.8845,-161.582 51.0069,-146.93"/>
<polygon fill="midnightblue" stroke="midnightblue" points="54.2381,-148.282 55.2886,-137.739 47.8929,-145.326 54.2381,-148.282"/>
</g>
<!-- Node17&#45;&gt;Node16 -->
<g id="edge82" class="edge"><title>Node17&#45;&gt;Node16</title>
<path fill="none" stroke="midnightblue" d="M366.366,-290.295C386.651,-270.355 430.41,-227.337 455.262,-202.906"/>
<polygon fill="midnightblue" stroke="midnightblue" points="457.936,-205.186 462.613,-195.679 453.029,-200.194 457.936,-205.186"/>
</g>
<!-- Node18 -->
<g id="node54" class="node"><title>Node18</title>
<a xlink:href="cv___derangement_8h.html" target="_top" xlink:title="../Datatypes/cv_Derangement.h">
<polygon fill="white" stroke="black" points="694.477,-174.5 694.477,-195.5 864.477,-195.5 864.477,-174.5 694.477,-174.5"/>
<text text-anchor="middle" x="779.477" y="-182.5" font-family="DejaVuSans" font-size="10.00">../Datatypes/cv_Derangement.h</text>
</a>
</g>
<!-- Node17&#45;&gt;Node18 -->
<g id="edge72" class="edge"><title>Node17&#45;&gt;Node18</title>
<path fill="none" stroke="midnightblue" d="M394.228,-290.398C471.903,-269.147 646.455,-221.393 731.322,-198.174"/>
<polygon fill="midnightblue" stroke="midnightblue" points="732.247,-201.55 740.969,-195.535 730.4,-194.798 732.247,-201.55"/>
</g>
<!-- Node18&#45;&gt;Node8 -->
<g id="edge74" class="edge"><title>Node18&#45;&gt;Node8</title>
<path fill="none" stroke="midnightblue" d="M818.619,-174.483C853.974,-163.005 897.605,-142.649 877.477,-116 830.545,-53.8652 585.66,-23.7705 491.456,-14.3596"/>
<polygon fill="midnightblue" stroke="midnightblue" points="491.549,-10.852 481.256,-13.363 490.868,-17.8189 491.549,-10.852"/>
</g>
<!-- Node18&#45;&gt;Node9 -->
<g id="edge76" class="edge"><title>Node18&#45;&gt;Node9</title>
<path fill="none" stroke="midnightblue" d="M773.185,-174.294C763.782,-159.19 744.663,-131.718 721.477,-116 693.692,-97.1659 657.764,-85.3688 628.999,-78.3042"/>
<polygon fill="midnightblue" stroke="midnightblue" points="629.682,-74.8697 619.148,-75.9989 628.087,-81.6856 629.682,-74.8697"/>
</g>
<!-- Node18&#45;&gt;Node11 -->
<g id="edge78" class="edge"><title>Node18&#45;&gt;Node11</title>
<path fill="none" stroke="midnightblue" d="M786.63,-174.362C791.963,-166.431 799.388,-155.389 805.727,-145.961"/>
<polygon fill="midnightblue" stroke="midnightblue" points="808.693,-147.822 811.369,-137.571 802.884,-143.916 808.693,-147.822"/>
</g>
<!-- Node19&#45;&gt;Node8 -->
<g id="edge86" class="edge"><title>Node19&#45;&gt;Node8</title>
<path fill="none" stroke="midnightblue" d="M956.414,-290.305C949.102,-270.063 934.477,-224.626 934.477,-185 934.477,-185 934.477,-185 934.477,-127 934.477,-35.953 604.059,-16.1349 491.506,-12.0253"/>
<polygon fill="midnightblue" stroke="midnightblue" points="491.427,-8.52061 481.312,-11.6748 491.186,-15.5165 491.427,-8.52061"/>
</g>
<!-- Node20 -->
<g id="node64" class="node"><title>Node20</title>
<polygon fill="white" stroke="#bfbfbf" points="961.977,-232.5 961.977,-253.5 1010.98,-253.5 1010.98,-232.5 961.977,-232.5"/>
<text text-anchor="middle" x="986.477" y="-240.5" font-family="DejaVuSans" font-size="10.00">QColor</text>
</g>
<!-- Node19&#45;&gt;Node20 -->
<g id="edge88" class="edge"><title>Node19&#45;&gt;Node20</title>
<path fill="none" stroke="midnightblue" d="M965.246,-290.362C968.691,-282.677 973.446,-272.069 977.583,-262.84"/>
<polygon fill="midnightblue" stroke="midnightblue" points="980.841,-264.127 981.738,-253.571 974.454,-261.264 980.841,-264.127"/>
</g>
<!-- Node21 -->
<g id="node66" class="node"><title>Node21</title>
<polygon fill="white" stroke="#bfbfbf" points="1027.98,-232.5 1027.98,-253.5 1072.98,-253.5 1072.98,-232.5 1027.98,-232.5"/>
<text text-anchor="middle" x="1050.48" y="-240.5" font-family="DejaVuSans" font-size="10.00">QFont</text>
</g>
<!-- Node19&#45;&gt;Node21 -->
<g id="edge90" class="edge"><title>Node19&#45;&gt;Node21</title>
<path fill="none" stroke="midnightblue" d="M976.984,-290.362C990.559,-281.614 1010.01,-269.079 1025.49,-259.101"/>
<polygon fill="midnightblue" stroke="midnightblue" points="1027.56,-261.93 1034.07,-253.571 1023.77,-256.046 1027.56,-261.93"/>
</g>
</g>
</svg>
