<?xml version="1.0" encoding="UTF-8" standalone="no"?>
<!DOCTYPE svg PUBLIC "-//W3C//DTD SVG 1.1//EN"
 "http://www.w3.org/Graphics/SVG/1.1/DTD/svg11.dtd">
<!-- Generated by graphviz version 2.26.3 (20100126.1600)
 -->
<!-- Title: G Pages: 1 -->
<svg width="1138pt" height="146pt"
 viewBox="0.00 0.00 1138.00 146.00" xmlns="http://www.w3.org/2000/svg" xmlns:xlink="http://www.w3.org/1999/xlink">
<g id="graph1" class="graph" transform="scale(1 1) rotate(0) translate(4 142)">
<title>G</title>
<polygon fill="white" stroke="white" points="-4,5 -4,-142 1135,-142 1135,5 -4,5"/>
<!-- Node1 -->
<g id="node1" class="node"><title>Node1</title>
<polygon fill="#bfbfbf" stroke="black" points="205.5,-116.5 205.5,-137.5 382.5,-137.5 382.5,-116.5 205.5,-116.5"/>
<text text-anchor="middle" x="294" y="-124.5" font-family="DejaVuSans" font-size="10.00">src/Storage/StorageTemplate.cpp</text>
</g>
<!-- Node2 -->
<g id="node3" class="node"><title>Node2</title>
<polygon fill="white" stroke="#bfbfbf" points="114,-58.5 114,-79.5 170,-79.5 170,-58.5 114,-58.5"/>
<text text-anchor="middle" x="142" y="-66.5" font-family="DejaVuSans" font-size="10.00">QDebug</text>
</g>
<!-- Node1&#45;&gt;Node2 -->
<g id="edge2" class="edge"><title>Node1&#45;&gt;Node2</title>
<path fill="none" stroke="midnightblue" d="M266.474,-116.497C242.016,-107.164 206.062,-93.4447 179.076,-83.1475"/>
<polygon fill="midnightblue" stroke="midnightblue" points="180.168,-79.8182 169.578,-79.5231 177.673,-86.3582 180.168,-79.8182"/>
</g>
<!-- Node3 -->
<g id="node5" class="node"><title>Node3</title>
<polygon fill="white" stroke="#bfbfbf" points="187.5,-58.5 187.5,-79.5 276.5,-79.5 276.5,-58.5 187.5,-58.5"/>
<text text-anchor="middle" x="232" y="-66.5" font-family="DejaVuSans" font-size="10.00">Config/Config.h</text>
</g>
<!-- Node1&#45;&gt;Node3 -->
<g id="edge4" class="edge"><title>Node1&#45;&gt;Node3</title>
<path fill="none" stroke="midnightblue" d="M282.628,-116.362C273.714,-108.023 261.121,-96.2418 250.724,-86.5162"/>
<polygon fill="midnightblue" stroke="midnightblue" points="252.993,-83.8463 243.3,-79.5707 248.211,-88.9582 252.993,-83.8463"/>
</g>
<!-- Node4 -->
<g id="node7" class="node"><title>Node4</title>
<polygon fill="white" stroke="#bfbfbf" points="293.5,-58.5 293.5,-79.5 420.5,-79.5 420.5,-58.5 293.5,-58.5"/>
<text text-anchor="middle" x="357" y="-66.5" font-family="DejaVuSans" font-size="10.00">Exceptions/Exception.h</text>
</g>
<!-- Node1&#45;&gt;Node4 -->
<g id="edge6" class="edge"><title>Node1&#45;&gt;Node4</title>
<path fill="none" stroke="midnightblue" d="M305.555,-116.362C314.613,-108.023 327.41,-96.2418 337.974,-86.5162"/>
<polygon fill="midnightblue" stroke="midnightblue" points="340.532,-88.9187 345.518,-79.5707 335.79,-83.7688 340.532,-88.9187"/>
</g>
<!-- Node5 -->
<g id="node9" class="node"><title>Node5</title>
<a xlink:href="_storage_template_8h.html" target="_top" xlink:title="StorageTemplate.h">
<polygon fill="white" stroke="black" points="437.5,-58.5 437.5,-79.5 544.5,-79.5 544.5,-58.5 437.5,-58.5"/>
<text text-anchor="middle" x="491" y="-66.5" font-family="DejaVuSans" font-size="10.00">StorageTemplate.h</text>
</a>
</g>
<!-- Node1&#45;&gt;Node5 -->
<g id="edge8" class="edge"><title>Node1&#45;&gt;Node5</title>
<path fill="none" stroke="midnightblue" d="M329.675,-116.497C362.07,-106.959 410.023,-92.8408 445.231,-82.475"/>
<polygon fill="midnightblue" stroke="midnightblue" points="446.654,-85.7049 455.258,-79.5231 444.676,-78.9899 446.654,-85.7049"/>
</g>
<!-- Node6 -->
<g id="node11" class="node"><title>Node6</title>
<polygon fill="white" stroke="#bfbfbf" points="-0.5,-0.5 -0.5,-21.5 40.5,-21.5 40.5,-0.5 -0.5,-0.5"/>
<text text-anchor="middle" x="20" y="-8.5" font-family="DejaVuSans" font-size="10.00">QList</text>
</g>
<!-- Node5&#45;&gt;Node6 -->
<g id="edge10" class="edge"><title>Node5&#45;&gt;Node6</title>
<path fill="none" stroke="midnightblue" d="M437.273,-59.1929C434.479,-58.7688 431.708,-58.3679 429,-58 264.182,-35.6095 216.105,-59.4589 50.7256,-21.9311"/>
<polygon fill="midnightblue" stroke="midnightblue" points="51.2322,-18.456 40.7009,-19.6145 49.6561,-25.2763 51.2322,-18.456"/>
</g>
<!-- Node7 -->
<g id="node13" class="node"><title>Node7</title>
<polygon fill="white" stroke="#bfbfbf" points="57.5,-0.5 57.5,-21.5 126.5,-21.5 126.5,-0.5 57.5,-0.5"/>
<text text-anchor="middle" x="92" y="-8.5" font-family="DejaVuSans" font-size="10.00">QStringList</text>
</g>
<!-- Node5&#45;&gt;Node7 -->
<g id="edge12" class="edge"><title>Node5&#45;&gt;Node7</title>
<path fill="none" stroke="midnightblue" d="M437.26,-59.2834C434.469,-58.8357 431.703,-58.4049 429,-58 301.989,-38.9708 266.107,-45.9952 136.553,-22.1223"/>
<polygon fill="midnightblue" stroke="midnightblue" points="137.121,-18.6679 126.648,-20.2711 135.835,-25.5488 137.121,-18.6679"/>
</g>
<!-- Node8 -->
<g id="node15" class="node"><title>Node8</title>
<polygon fill="white" stroke="#bfbfbf" points="143.5,-0.5 143.5,-21.5 294.5,-21.5 294.5,-0.5 143.5,-0.5"/>
<text text-anchor="middle" x="219" y="-8.5" font-family="DejaVuSans" font-size="10.00">Datatypes/cv_SpeciesTitle.h</text>
</g>
<!-- Node5&#45;&gt;Node8 -->
<g id="edge14" class="edge"><title>Node5&#45;&gt;Node8</title>
<path fill="none" stroke="midnightblue" d="M441.743,-58.4966C395.768,-48.6931 327.094,-34.0496 278.167,-23.6165"/>
<polygon fill="midnightblue" stroke="midnightblue" points="278.86,-20.1856 268.35,-21.5231 277.4,-27.0317 278.86,-20.1856"/>
</g>
<!-- Node9 -->
<g id="node17" class="node"><title>Node9</title>
<polygon fill="white" stroke="#bfbfbf" points="311.5,-0.5 311.5,-21.5 424.5,-21.5 424.5,-0.5 311.5,-0.5"/>
<text text-anchor="middle" x="368" y="-8.5" font-family="DejaVuSans" font-size="10.00">Datatypes/cv_Trait.h</text>
</g>
<!-- Node5&#45;&gt;Node9 -->
<g id="edge16" class="edge"><title>Node5&#45;&gt;Node9</title>
<path fill="none" stroke="midnightblue" d="M468.726,-58.4966C449.428,-49.397 421.287,-36.1273 399.652,-25.9253"/>
<polygon fill="midnightblue" stroke="midnightblue" points="401.062,-22.7206 390.524,-21.6212 398.076,-29.052 401.062,-22.7206"/>
</g>
<!-- Node10 -->
<g id="node19" class="node"><title>Node10</title>
<polygon fill="white" stroke="#bfbfbf" points="442,-0.5 442,-21.5 540,-21.5 540,-0.5 442,-0.5"/>
<text text-anchor="middle" x="491" y="-8.5" font-family="DejaVuSans" font-size="10.00">Datatypes/Trait.h</text>
</g>
<!-- Node5&#45;&gt;Node10 -->
<g id="edge18" class="edge"><title>Node5&#45;&gt;Node10</title>
<path fill="none" stroke="midnightblue" d="M491,-58.3619C491,-50.9219 491,-40.7427 491,-31.7276"/>
<polygon fill="midnightblue" stroke="midnightblue" points="494.5,-31.5706 491,-21.5707 487.5,-31.5707 494.5,-31.5706"/>
</g>
<!-- Node11 -->
<g id="node21" class="node"><title>Node11</title>
<polygon fill="white" stroke="#bfbfbf" points="558,-0.5 558,-21.5 704,-21.5 704,-0.5 558,-0.5"/>
<text text-anchor="middle" x="631" y="-8.5" font-family="DejaVuSans" font-size="10.00">Datatypes/cv_IdentityList.h</text>
</g>
<!-- Node5&#45;&gt;Node11 -->
<g id="edge20" class="edge"><title>Node5&#45;&gt;Node11</title>
<path fill="none" stroke="midnightblue" d="M516.353,-58.4966C538.613,-49.2746 571.212,-35.7695 595.963,-25.5153"/>
<polygon fill="midnightblue" stroke="midnightblue" points="597.464,-28.6822 605.363,-21.6212 594.784,-22.2152 597.464,-28.6822"/>
</g>
<!-- Node12 -->
<g id="node23" class="node"><title>Node12</title>
<polygon fill="white" stroke="#bfbfbf" points="721.5,-0.5 721.5,-21.5 870.5,-21.5 870.5,-0.5 721.5,-0.5"/>
<text text-anchor="middle" x="796" y="-8.5" font-family="DejaVuSans" font-size="10.00">Datatypes/cv_SuperEffect.h</text>
</g>
<!-- Node5&#45;&gt;Node12 -->
<g id="edge22" class="edge"><title>Node5&#45;&gt;Node12</title>
<path fill="none" stroke="midnightblue" d="M544.826,-58.7643C596.666,-48.9062 675.166,-33.9783 730.586,-23.4394"/>
<polygon fill="midnightblue" stroke="midnightblue" points="731.483,-26.8315 740.654,-21.5249 730.176,-19.9548 731.483,-26.8315"/>
</g>
<!-- Node13 -->
<g id="node25" class="node"><title>Node13</title>
<polygon fill="white" stroke="#bfbfbf" points="888,-0.5 888,-21.5 1058,-21.5 1058,-0.5 888,-0.5"/>
<text text-anchor="middle" x="973" y="-8.5" font-family="DejaVuSans" font-size="10.00">Datatypes/cv_CreationPoints2.h</text>
</g>
<!-- Node5&#45;&gt;Node13 -->
<g id="edge24" class="edge"><title>Node5&#45;&gt;Node13</title>
<path fill="none" stroke="midnightblue" d="M544.889,-62.5155C625.401,-52.8273 778.26,-34.4334 877.854,-22.4491"/>
<polygon fill="midnightblue" stroke="midnightblue" points="878.411,-25.9074 887.921,-21.2377 877.575,-18.9575 878.411,-25.9074"/>
</g>
<!-- Node14 -->
<g id="node27" class="node"><title>Node14</title>
<polygon fill="white" stroke="#bfbfbf" points="1075.5,-0.5 1075.5,-21.5 1130.5,-21.5 1130.5,-0.5 1075.5,-0.5"/>
<text text-anchor="middle" x="1103" y="-8.5" font-family="DejaVuSans" font-size="10.00">QObject</text>
</g>
<!-- Node5&#45;&gt;Node14 -->
<g id="edge26" class="edge"><title>Node5&#45;&gt;Node14</title>
<path fill="none" stroke="midnightblue" d="M544.702,-66.0985C664.262,-59.4059 950.297,-42.0472 1065.3,-21.9545"/>
<polygon fill="midnightblue" stroke="midnightblue" points="1066.04,-25.3783 1075.24,-20.1279 1064.77,-18.4936 1066.04,-25.3783"/>
</g>
</g>
</svg>
