<?xml version="1.0" encoding="UTF-8" standalone="no"?>
<!DOCTYPE svg PUBLIC "-//W3C//DTD SVG 1.1//EN"
 "http://www.w3.org/Graphics/SVG/1.1/DTD/svg11.dtd">
<!-- Generated by graphviz version 2.26.3 (20100126.1600)
 -->
<!-- Title: G Pages: 1 -->
<svg width="680pt" height="262pt"
 viewBox="0.00 0.00 679.67 262.00" xmlns="http://www.w3.org/2000/svg" xmlns:xlink="http://www.w3.org/1999/xlink">
<g id="graph1" class="graph" transform="scale(1 1) rotate(0) translate(4 258)">
<title>G</title>
<polygon fill="white" stroke="white" points="-4,5 -4,-258 676.668,-258 676.668,5 -4,5"/>
<!-- Node1 -->
<g id="node1" class="node"><title>Node1</title>
<polygon fill="#bfbfbf" stroke="black" points="191.979,-232.5 191.979,-253.5 357.979,-253.5 357.979,-232.5 191.979,-232.5"/>
<text text-anchor="middle" x="274.979" y="-240.5" font-family="DejaVuSans" font-size="10.00">src/Storage/StorageTemplate.h</text>
</g>
<!-- Node2 -->
<g id="node3" class="node"><title>Node2</title>
<polygon fill="white" stroke="#bfbfbf" points="218.479,-58.5 218.479,-79.5 259.479,-79.5 259.479,-58.5 218.479,-58.5"/>
<text text-anchor="middle" x="238.979" y="-66.5" font-family="DejaVuSans" font-size="10.00">QList</text>
</g>
<!-- Node1&#45;&gt;Node2 -->
<g id="edge2" class="edge"><title>Node1&#45;&gt;Node2</title>
<path fill="none" stroke="midnightblue" d="M272.782,-232.377C266.971,-204.293 251.119,-127.673 243.366,-90.2027"/>
<polygon fill="midnightblue" stroke="midnightblue" points="246.694,-89.0112 241.24,-79.9277 239.839,-90.4295 246.694,-89.0112"/>
</g>
<!-- Node3 -->
<g id="node5" class="node"><title>Node3</title>
<polygon fill="white" stroke="#bfbfbf" points="55.4793,-0.5 55.4793,-21.5 124.479,-21.5 124.479,-0.5 55.4793,-0.5"/>
<text text-anchor="middle" x="89.9793" y="-8.5" font-family="DejaVuSans" font-size="10.00">QStringList</text>
</g>
<!-- Node1&#45;&gt;Node3 -->
<g id="edge4" class="edge"><title>Node1&#45;&gt;Node3</title>
<path fill="none" stroke="midnightblue" d="M191.794,-238.897C125.975,-233.701 41.6532,-222.034 19.9793,-196 -19.6332,-148.419 7.16761,-111.114 38.9793,-58 45.9394,-46.3792 56.6313,-35.8953 66.431,-27.7934"/>
<polygon fill="midnightblue" stroke="midnightblue" points="68.647,-30.5035 74.3513,-21.5754 64.3244,-24.9975 68.647,-30.5035"/>
</g>
<!-- Node4 -->
<g id="node7" class="node"><title>Node4</title>
<a xlink:href="cv___trait_8h.html" target="_top" xlink:title="../Datatypes/cv_Trait.h">
<polygon fill="white" stroke="black" points="277.979,-174.5 277.979,-195.5 399.979,-195.5 399.979,-174.5 277.979,-174.5"/>
<text text-anchor="middle" x="338.979" y="-182.5" font-family="DejaVuSans" font-size="10.00">../Datatypes/cv_Trait.h</text>
</a>
</g>
<!-- Node1&#45;&gt;Node4 -->
<g id="edge6" class="edge"><title>Node1&#45;&gt;Node4</title>
<path fill="none" stroke="midnightblue" d="M286.718,-232.362C295.92,-224.023 308.919,-212.242 319.651,-202.516"/>
<polygon fill="midnightblue" stroke="midnightblue" points="322.256,-204.879 327.315,-195.571 317.555,-199.692 322.256,-204.879"/>
</g>
<!-- Node10 -->
<g id="node28" class="node"><title>Node10</title>
<a xlink:href="cv___identity_list_8h.html" target="_top" xlink:title="../Datatypes/cv_IdentityList.h">
<polygon fill="white" stroke="black" points="28.4793,-174.5 28.4793,-195.5 183.479,-195.5 183.479,-174.5 28.4793,-174.5"/>
<text text-anchor="middle" x="105.979" y="-182.5" font-family="DejaVuSans" font-size="10.00">../Datatypes/cv_IdentityList.h</text>
</a>
</g>
<!-- Node1&#45;&gt;Node10 -->
<g id="edge36" class="edge"><title>Node1&#45;&gt;Node10</title>
<path fill="none" stroke="midnightblue" d="M244.375,-232.497C216.942,-223.082 176.504,-209.204 146.415,-198.877"/>
<polygon fill="midnightblue" stroke="midnightblue" points="147.236,-195.459 136.641,-195.523 144.964,-202.08 147.236,-195.459"/>
</g>
<!-- Node13 -->
<g id="node40" class="node"><title>Node13</title>
<a xlink:href="cv___super_effect_8h.html" target="_top" xlink:title="../Datatypes/cv_SuperEffect.h">
<polygon fill="white" stroke="black" points="417.979,-174.5 417.979,-195.5 575.979,-195.5 575.979,-174.5 417.979,-174.5"/>
<text text-anchor="middle" x="496.979" y="-182.5" font-family="DejaVuSans" font-size="10.00">../Datatypes/cv_SuperEffect.h</text>
</a>
</g>
<!-- Node1&#45;&gt;Node13 -->
<g id="edge54" class="edge"><title>Node1&#45;&gt;Node13</title>
<path fill="none" stroke="midnightblue" d="M315.182,-232.497C352.157,-222.836 407.121,-208.477 446.928,-198.077"/>
<polygon fill="midnightblue" stroke="midnightblue" points="447.911,-201.437 456.701,-195.523 446.141,-194.665 447.911,-201.437"/>
</g>
<!-- Node14 -->
<g id="node43" class="node"><title>Node14</title>
<polygon fill="white" stroke="#bfbfbf" points="593.479,-174.5 593.479,-195.5 648.479,-195.5 648.479,-174.5 593.479,-174.5"/>
<text text-anchor="middle" x="620.979" y="-182.5" font-family="DejaVuSans" font-size="10.00">QObject</text>
</g>
<!-- Node1&#45;&gt;Node14 -->
<g id="edge58" class="edge"><title>Node1&#45;&gt;Node14</title>
<path fill="none" stroke="midnightblue" d="M358.161,-233.738C418.482,-226.246 502.104,-214.265 583.292,-196.171"/>
<polygon fill="midnightblue" stroke="midnightblue" points="584.198,-199.554 593.179,-193.934 582.653,-192.727 584.198,-199.554"/>
</g>
<!-- Node4&#45;&gt;Node2 -->
<g id="edge12" class="edge"><title>Node4&#45;&gt;Node2</title>
<path fill="none" stroke="midnightblue" d="M319.072,-174.391C304.813,-166.011 285.922,-153.214 272.979,-138 260.724,-123.594 251.623,-104.01 245.936,-89.3857"/>
<polygon fill="midnightblue" stroke="midnightblue" points="249.134,-87.9404 242.403,-79.7586 242.563,-90.3522 249.134,-87.9404"/>
</g>
<!-- Node4&#45;&gt;Node3 -->
<g id="edge14" class="edge"><title>Node4&#45;&gt;Node3</title>
<path fill="none" stroke="midnightblue" d="M330.565,-174.144C323.546,-164.836 313.511,-150.92 305.979,-138 286.155,-103.994 298.269,-83.1393 267.979,-58 247.801,-41.2524 180.359,-26.6645 134.533,-18.3484"/>
<polygon fill="midnightblue" stroke="midnightblue" points="134.995,-14.8756 124.537,-16.5709 133.769,-21.7675 134.995,-14.8756"/>
</g>
<!-- Node5 -->
<g id="node9" class="node"><title>Node5</title>
<polygon fill="white" stroke="#bfbfbf" points="314.479,-116.5 314.479,-137.5 363.479,-137.5 363.479,-116.5 314.479,-116.5"/>
<text text-anchor="middle" x="338.979" y="-124.5" font-family="DejaVuSans" font-size="10.00">QFlags</text>
</g>
<!-- Node4&#45;&gt;Node5 -->
<g id="edge8" class="edge"><title>Node4&#45;&gt;Node5</title>
<path fill="none" stroke="midnightblue" d="M338.979,-174.362C338.979,-166.922 338.979,-156.743 338.979,-147.728"/>
<polygon fill="midnightblue" stroke="midnightblue" points="342.479,-147.571 338.979,-137.571 335.479,-147.571 342.479,-147.571"/>
</g>
<!-- Node6 -->
<g id="node11" class="node"><title>Node6</title>
<polygon fill="white" stroke="#bfbfbf" points="398.479,-0.5 398.479,-21.5 451.479,-21.5 451.479,-0.5 398.479,-0.5"/>
<text text-anchor="middle" x="424.979" y="-8.5" font-family="DejaVuSans" font-size="10.00">QString</text>
</g>
<!-- Node4&#45;&gt;Node6 -->
<g id="edge10" class="edge"><title>Node4&#45;&gt;Node6</title>
<path fill="none" stroke="midnightblue" d="M389.376,-174.441C424.643,-165.911 467.287,-152.902 477.979,-138 502.971,-103.168 466.889,-54.7702 443.072,-28.937"/>
<polygon fill="midnightblue" stroke="midnightblue" points="445.589,-26.5055 436.155,-21.6843 440.523,-31.3365 445.589,-26.5055"/>
</g>
<!-- Node7 -->
<g id="node15" class="node"><title>Node7</title>
<a xlink:href="cv___species_8h.html" target="_top" xlink:title="cv_Species.h">
<polygon fill="white" stroke="black" points="562.479,-58.5 562.479,-79.5 641.479,-79.5 641.479,-58.5 562.479,-58.5"/>
<text text-anchor="middle" x="601.979" y="-66.5" font-family="DejaVuSans" font-size="10.00">cv_Species.h</text>
</a>
</g>
<!-- Node4&#45;&gt;Node7 -->
<g id="edge16" class="edge"><title>Node4&#45;&gt;Node7</title>
<path fill="none" stroke="midnightblue" d="M399.981,-175.405C486.232,-161.822 633.503,-138.558 633.979,-138 646.708,-123.083 633.901,-102.255 620.902,-87.3918"/>
<polygon fill="midnightblue" stroke="midnightblue" points="623.209,-84.7348 613.821,-79.824 618.097,-89.5174 623.209,-84.7348"/>
</g>
<!-- Node8 -->
<g id="node18" class="node"><title>Node8</title>
<a xlink:href="cv___trait_detail_8h.html" target="_top" xlink:title="cv_TraitDetail.h">
<polygon fill="white" stroke="black" points="380.479,-116.5 380.479,-137.5 469.479,-137.5 469.479,-116.5 380.479,-116.5"/>
<text text-anchor="middle" x="424.979" y="-124.5" font-family="DejaVuSans" font-size="10.00">cv_TraitDetail.h</text>
</a>
</g>
<!-- Node4&#45;&gt;Node8 -->
<g id="edge20" class="edge"><title>Node4&#45;&gt;Node8</title>
<path fill="none" stroke="midnightblue" d="M354.753,-174.362C367.603,-165.696 385.964,-153.313 400.689,-143.382"/>
<polygon fill="midnightblue" stroke="midnightblue" points="402.972,-146.064 409.306,-137.571 399.058,-140.26 402.972,-146.064"/>
</g>
<!-- Node9 -->
<g id="node24" class="node"><title>Node9</title>
<a xlink:href="cv___abstract_trait_8h.html" target="_top" xlink:title="cv_AbstractTrait.h">
<polygon fill="white" stroke="black" points="524.479,-116.5 524.479,-137.5 625.479,-137.5 625.479,-116.5 524.479,-116.5"/>
<text text-anchor="middle" x="574.979" y="-124.5" font-family="DejaVuSans" font-size="10.00">cv_AbstractTrait.h</text>
</a>
</g>
<!-- Node4&#45;&gt;Node9 -->
<g id="edge30" class="edge"><title>Node4&#45;&gt;Node9</title>
<path fill="none" stroke="midnightblue" d="M381.717,-174.497C421.191,-164.795 479.95,-150.355 522.308,-139.945"/>
<polygon fill="midnightblue" stroke="midnightblue" points="523.286,-143.309 532.161,-137.523 521.615,-136.511 523.286,-143.309"/>
</g>
<!-- Node7&#45;&gt;Node6 -->
<g id="edge18" class="edge"><title>Node7&#45;&gt;Node6</title>
<path fill="none" stroke="midnightblue" d="M569.926,-58.4966C539.362,-48.4814 493.383,-33.4147 461.437,-22.9464"/>
<polygon fill="midnightblue" stroke="midnightblue" points="462.187,-19.5094 451.595,-19.7214 460.008,-26.1614 462.187,-19.5094"/>
</g>
<!-- Node8&#45;&gt;Node2 -->
<g id="edge24" class="edge"><title>Node8&#45;&gt;Node2</title>
<path fill="none" stroke="midnightblue" d="M391.296,-116.497C356.573,-105.669 302.914,-88.9367 269.427,-78.4945"/>
<polygon fill="midnightblue" stroke="midnightblue" points="270.314,-75.1049 259.725,-75.4692 268.23,-81.7875 270.314,-75.1049"/>
</g>
<!-- Node8&#45;&gt;Node3 -->
<g id="edge26" class="edge"><title>Node8&#45;&gt;Node3</title>
<path fill="none" stroke="midnightblue" d="M409.26,-116.283C386.399,-101.166 342.197,-73.6783 300.979,-58 245.611,-36.939 178.304,-23.9815 134.83,-17.1414"/>
<polygon fill="midnightblue" stroke="midnightblue" points="135.267,-13.6675 124.852,-15.6132 134.207,-20.5869 135.267,-13.6675"/>
</g>
<!-- Node8&#45;&gt;Node6 -->
<g id="edge22" class="edge"><title>Node8&#45;&gt;Node6</title>
<path fill="none" stroke="midnightblue" d="M424.979,-116.295C424.979,-97.1314 424.979,-56.654 424.979,-31.8434"/>
<polygon fill="midnightblue" stroke="midnightblue" points="428.479,-31.6792 424.979,-21.6792 421.479,-31.6792 428.479,-31.6792"/>
</g>
<!-- Node8&#45;&gt;Node7 -->
<g id="edge28" class="edge"><title>Node8&#45;&gt;Node7</title>
<path fill="none" stroke="midnightblue" d="M457.033,-116.497C485.888,-107.041 528.485,-93.0829 560.04,-82.7428"/>
<polygon fill="midnightblue" stroke="midnightblue" points="561.453,-85.963 569.866,-79.5231 559.273,-79.3111 561.453,-85.963"/>
</g>
<!-- Node9&#45;&gt;Node6 -->
<g id="edge32" class="edge"><title>Node9&#45;&gt;Node6</title>
<path fill="none" stroke="midnightblue" d="M566.783,-116.172C555.41,-101.655 533.669,-75.6666 510.979,-58 494.931,-45.5045 475.119,-34.4305 458.557,-26.1751"/>
<polygon fill="midnightblue" stroke="midnightblue" points="459.758,-22.868 449.234,-21.6507 456.702,-29.1656 459.758,-22.868"/>
</g>
<!-- Node9&#45;&gt;Node7 -->
<g id="edge34" class="edge"><title>Node9&#45;&gt;Node7</title>
<path fill="none" stroke="midnightblue" d="M579.932,-116.362C583.509,-108.677 588.447,-98.0686 592.744,-88.8399"/>
<polygon fill="midnightblue" stroke="midnightblue" points="596.011,-90.1136 597.058,-79.5707 589.665,-87.1594 596.011,-90.1136"/>
</g>
<!-- Node10&#45;&gt;Node2 -->
<g id="edge52" class="edge"><title>Node10&#45;&gt;Node2</title>
<path fill="none" stroke="midnightblue" d="M118.253,-174.295C141.314,-154.182 191.294,-110.59 219.172,-86.2752"/>
<polygon fill="midnightblue" stroke="midnightblue" points="221.499,-88.89 226.735,-79.6792 216.898,-83.6145 221.499,-88.89"/>
</g>
<!-- Node10&#45;&gt;Node6 -->
<g id="edge38" class="edge"><title>Node10&#45;&gt;Node6</title>
<path fill="none" stroke="midnightblue" d="M111.234,-174.237C124.129,-149.101 159.97,-86.5115 209.979,-58 240.008,-40.88 334.992,-24.4817 388.111,-16.3371"/>
<polygon fill="midnightblue" stroke="midnightblue" points="388.78,-19.7758 398.145,-14.8205 387.734,-12.8544 388.78,-19.7758"/>
</g>
<!-- Node11 -->
<g id="node31" class="node"><title>Node11</title>
<a xlink:href="cv___identity_8h.html" target="_top" xlink:title="cv_Identity.h">
<polygon fill="white" stroke="black" points="32.4793,-116.5 32.4793,-137.5 107.479,-137.5 107.479,-116.5 32.4793,-116.5"/>
<text text-anchor="middle" x="69.9793" y="-124.5" font-family="DejaVuSans" font-size="10.00">cv_Identity.h</text>
</a>
</g>
<!-- Node10&#45;&gt;Node11 -->
<g id="edge40" class="edge"><title>Node10&#45;&gt;Node11</title>
<path fill="none" stroke="midnightblue" d="M99.3764,-174.362C94.5047,-166.513 87.7409,-155.616 81.9293,-146.253"/>
<polygon fill="midnightblue" stroke="midnightblue" points="84.7878,-144.221 76.5404,-137.571 78.8403,-147.913 84.7878,-144.221"/>
</g>
<!-- Node11&#45;&gt;Node3 -->
<g id="edge42" class="edge"><title>Node11&#45;&gt;Node3</title>
<path fill="none" stroke="midnightblue" d="M61.3343,-116.142C51.5534,-102.463 37.9643,-78.2892 45.9793,-58 50.5069,-46.5388 59.2955,-36.2323 67.8352,-28.2117"/>
<polygon fill="midnightblue" stroke="midnightblue" points="70.2595,-30.7411 75.4785,-21.5208 65.6488,-25.474 70.2595,-30.7411"/>
</g>
<!-- Node11&#45;&gt;Node6 -->
<g id="edge44" class="edge"><title>Node11&#45;&gt;Node6</title>
<path fill="none" stroke="midnightblue" d="M82.9019,-116.269C102.142,-100.876 140.031,-72.7587 176.979,-58 248.446,-29.4531 338.567,-17.9546 388.117,-13.5481"/>
<polygon fill="midnightblue" stroke="midnightblue" points="388.674,-17.0137 398.346,-12.6887 388.088,-10.0383 388.674,-17.0137"/>
</g>
<!-- Node12 -->
<g id="node35" class="node"><title>Node12</title>
<a xlink:href="cv___name_8h.html" target="_top" xlink:title="cv_Name.h">
<polygon fill="white" stroke="black" points="54.4793,-58.5 54.4793,-79.5 125.479,-79.5 125.479,-58.5 54.4793,-58.5"/>
<text text-anchor="middle" x="89.9793" y="-66.5" font-family="DejaVuSans" font-size="10.00">cv_Name.h</text>
</a>
</g>
<!-- Node11&#45;&gt;Node12 -->
<g id="edge46" class="edge"><title>Node11&#45;&gt;Node12</title>
<path fill="none" stroke="midnightblue" d="M73.6476,-116.362C76.2695,-108.758 79.8779,-98.294 83.0362,-89.1349"/>
<polygon fill="midnightblue" stroke="midnightblue" points="86.3831,-90.1654 86.3343,-79.5707 79.7655,-87.8834 86.3831,-90.1654"/>
</g>
<!-- Node12&#45;&gt;Node3 -->
<g id="edge48" class="edge"><title>Node12&#45;&gt;Node3</title>
<path fill="none" stroke="midnightblue" d="M89.9793,-58.3619C89.9793,-50.9219 89.9793,-40.7427 89.9793,-31.7276"/>
<polygon fill="midnightblue" stroke="midnightblue" points="93.4794,-31.5706 89.9793,-21.5707 86.4794,-31.5707 93.4794,-31.5706"/>
</g>
<!-- Node12&#45;&gt;Node6 -->
<g id="edge50" class="edge"><title>Node12&#45;&gt;Node6</title>
<path fill="none" stroke="midnightblue" d="M125.523,-60.7668C130.044,-59.7945 134.614,-58.8479 138.979,-58 228.123,-40.6845 333.713,-24.425 388.261,-16.3379"/>
<polygon fill="midnightblue" stroke="midnightblue" points="389.088,-19.7539 398.47,-14.8315 388.066,-12.8288 389.088,-19.7539"/>
</g>
<!-- Node13&#45;&gt;Node7 -->
<g id="edge56" class="edge"><title>Node13&#45;&gt;Node7</title>
<path fill="none" stroke="midnightblue" d="M566.624,-174.449C607.871,-166.619 654.462,-154.448 666.979,-138 681.937,-118.346 657.018,-98.0217 633.836,-84.5682"/>
<polygon fill="midnightblue" stroke="midnightblue" points="635.242,-81.3469 624.794,-79.5914 631.867,-87.4794 635.242,-81.3469"/>
</g>
</g>
</svg>
