<?xml version="1.0" encoding="UTF-8" standalone="no"?>
<!DOCTYPE svg PUBLIC "-//W3C//DTD SVG 1.1//EN"
 "http://www.w3.org/Graphics/SVG/1.1/DTD/svg11.dtd">
<!-- Generated by graphviz version 2.26.3 (20100126.1600)
 -->
<!-- Title: G Pages: 1 -->
<svg width="844pt" height="204pt"
 viewBox="0.00 0.00 844.00 204.00" xmlns="http://www.w3.org/2000/svg" xmlns:xlink="http://www.w3.org/1999/xlink">
<g id="graph1" class="graph" transform="scale(1 1) rotate(0) translate(4 200)">
<title>G</title>
<polygon fill="white" stroke="white" points="-4,5 -4,-200 841,-200 841,5 -4,5"/>
<!-- Node1 -->
<g id="node1" class="node"><title>Node1</title>
<polygon fill="#bfbfbf" stroke="black" points="265,-174.5 265,-195.5 445,-195.5 445,-174.5 265,-174.5"/>
<text text-anchor="middle" x="355" y="-182.5" font-family="DejaVuSans" font-size="10.00">src/Storage/StorageCharacter.cpp</text>
</g>
<!-- Node2 -->
<g id="node3" class="node"><title>Node2</title>
<polygon fill="white" stroke="#bfbfbf" points="226,-116.5 226,-137.5 282,-137.5 282,-116.5 226,-116.5"/>
<text text-anchor="middle" x="254" y="-124.5" font-family="DejaVuSans" font-size="10.00">QDebug</text>
</g>
<!-- Node1&#45;&gt;Node2 -->
<g id="edge2" class="edge"><title>Node1&#45;&gt;Node2</title>
<path fill="none" stroke="midnightblue" d="M336.475,-174.362C321.099,-165.532 299.004,-152.844 281.553,-142.822"/>
<polygon fill="midnightblue" stroke="midnightblue" points="282.822,-139.515 272.408,-137.571 279.336,-145.586 282.822,-139.515"/>
</g>
<!-- Node3 -->
<g id="node5" class="node"><title>Node3</title>
<a xlink:href="_storage_character_8h.html" target="_top" xlink:title="StorageCharacter.h">
<polygon fill="white" stroke="black" points="300,-116.5 300,-137.5 410,-137.5 410,-116.5 300,-116.5"/>
<text text-anchor="middle" x="355" y="-124.5" font-family="DejaVuSans" font-size="10.00">StorageCharacter.h</text>
</a>
</g>
<!-- Node1&#45;&gt;Node3 -->
<g id="edge4" class="edge"><title>Node1&#45;&gt;Node3</title>
<path fill="none" stroke="midnightblue" d="M355,-174.362C355,-166.922 355,-156.743 355,-147.728"/>
<polygon fill="midnightblue" stroke="midnightblue" points="358.5,-147.571 355,-137.571 351.5,-147.571 358.5,-147.571"/>
</g>
<!-- Node14 -->
<g id="node28" class="node"><title>Node14</title>
<polygon fill="white" stroke="#bfbfbf" points="427.5,-116.5 427.5,-137.5 516.5,-137.5 516.5,-116.5 427.5,-116.5"/>
<text text-anchor="middle" x="472" y="-124.5" font-family="DejaVuSans" font-size="10.00">Config/Config.h</text>
</g>
<!-- Node1&#45;&gt;Node14 -->
<g id="edge28" class="edge"><title>Node1&#45;&gt;Node14</title>
<path fill="none" stroke="midnightblue" d="M376.188,-174.497C394.462,-165.438 421.072,-152.246 441.615,-142.063"/>
<polygon fill="midnightblue" stroke="midnightblue" points="443.169,-145.199 450.574,-137.621 440.06,-138.927 443.169,-145.199"/>
</g>
<!-- Node4 -->
<g id="node7" class="node"><title>Node4</title>
<polygon fill="white" stroke="#bfbfbf" points="36,-58.5 36,-79.5 182,-79.5 182,-58.5 36,-58.5"/>
<text text-anchor="middle" x="109" y="-66.5" font-family="DejaVuSans" font-size="10.00">Datatypes/cv_IdentityList.h</text>
</g>
<!-- Node3&#45;&gt;Node4 -->
<g id="edge6" class="edge"><title>Node3&#45;&gt;Node4</title>
<path fill="none" stroke="midnightblue" d="M310.451,-116.497C269.218,-106.775 207.798,-92.2938 163.624,-81.8787"/>
<polygon fill="midnightblue" stroke="midnightblue" points="164.169,-78.4113 153.632,-79.5231 162.562,-85.2245 164.169,-78.4113"/>
</g>
<!-- Node5 -->
<g id="node9" class="node"><title>Node5</title>
<polygon fill="white" stroke="#bfbfbf" points="199.5,-58.5 199.5,-79.5 360.5,-79.5 360.5,-58.5 199.5,-58.5"/>
<text text-anchor="middle" x="280" y="-66.5" font-family="DejaVuSans" font-size="10.00">Datatypes/cv_Derangement.h</text>
</g>
<!-- Node3&#45;&gt;Node5 -->
<g id="edge8" class="edge"><title>Node3&#45;&gt;Node5</title>
<path fill="none" stroke="midnightblue" d="M341.244,-116.362C330.249,-107.859 314.627,-95.7785 301.914,-85.9466"/>
<polygon fill="midnightblue" stroke="midnightblue" points="303.721,-82.9195 293.669,-79.5707 299.438,-88.4569 303.721,-82.9195"/>
</g>
<!-- Node6 -->
<g id="node11" class="node"><title>Node6</title>
<a xlink:href="_storage_template_8h.html" target="_top" xlink:title="StorageTemplate.h">
<polygon fill="white" stroke="black" points="377.5,-58.5 377.5,-79.5 484.5,-79.5 484.5,-58.5 377.5,-58.5"/>
<text text-anchor="middle" x="431" y="-66.5" font-family="DejaVuSans" font-size="10.00">StorageTemplate.h</text>
</a>
</g>
<!-- Node3&#45;&gt;Node6 -->
<g id="edge10" class="edge"><title>Node3&#45;&gt;Node6</title>
<path fill="none" stroke="midnightblue" d="M368.94,-116.362C380.188,-107.777 396.216,-95.5459 409.165,-85.6636"/>
<polygon fill="midnightblue" stroke="midnightblue" points="411.323,-88.4198 417.149,-79.5707 407.076,-82.8551 411.323,-88.4198"/>
</g>
<!-- Node13 -->
<g id="node25" class="node"><title>Node13</title>
<polygon fill="white" stroke="#bfbfbf" points="781.5,-0.5 781.5,-21.5 836.5,-21.5 836.5,-0.5 781.5,-0.5"/>
<text text-anchor="middle" x="809" y="-8.5" font-family="DejaVuSans" font-size="10.00">QObject</text>
</g>
<!-- Node3&#45;&gt;Node13 -->
<g id="edge26" class="edge"><title>Node3&#45;&gt;Node13</title>
<path fill="none" stroke="midnightblue" d="M400.043,-116.474C475.139,-98.752 630.821,-61.2824 771.463,-22.3523"/>
<polygon fill="midnightblue" stroke="midnightblue" points="772.434,-25.7152 781.133,-19.6667 770.561,-18.9705 772.434,-25.7152"/>
</g>
<!-- Node7 -->
<g id="node13" class="node"><title>Node7</title>
<polygon fill="white" stroke="#bfbfbf" points="-0.5,-0.5 -0.5,-21.5 40.5,-21.5 40.5,-0.5 -0.5,-0.5"/>
<text text-anchor="middle" x="20" y="-8.5" font-family="DejaVuSans" font-size="10.00">QList</text>
</g>
<!-- Node6&#45;&gt;Node7 -->
<g id="edge12" class="edge"><title>Node6&#45;&gt;Node7</title>
<path fill="none" stroke="midnightblue" d="M377.265,-59.251C374.473,-58.8118 371.705,-58.3917 369,-58 230.539,-37.9495 189.924,-54.8465 50.4825,-21.9186"/>
<polygon fill="midnightblue" stroke="midnightblue" points="51.2529,-18.5042 40.7118,-19.5689 49.6162,-25.3102 51.2529,-18.5042"/>
</g>
<!-- Node8 -->
<g id="node15" class="node"><title>Node8</title>
<polygon fill="white" stroke="#bfbfbf" points="57.5,-0.5 57.5,-21.5 126.5,-21.5 126.5,-0.5 57.5,-0.5"/>
<text text-anchor="middle" x="92" y="-8.5" font-family="DejaVuSans" font-size="10.00">QStringList</text>
</g>
<!-- Node6&#45;&gt;Node8 -->
<g id="edge14" class="edge"><title>Node6&#45;&gt;Node8</title>
<path fill="none" stroke="midnightblue" d="M377.244,-59.385C374.457,-58.9108 371.696,-58.4465 369,-58 268.333,-41.3285 239.805,-42.9454 136.559,-22.1889"/>
<polygon fill="midnightblue" stroke="midnightblue" points="137.163,-18.7402 126.666,-20.1782 135.769,-25.5999 137.163,-18.7402"/>
</g>
<!-- Node9 -->
<g id="node17" class="node"><title>Node9</title>
<polygon fill="white" stroke="#bfbfbf" points="143.5,-0.5 143.5,-21.5 294.5,-21.5 294.5,-0.5 143.5,-0.5"/>
<text text-anchor="middle" x="219" y="-8.5" font-family="DejaVuSans" font-size="10.00">Datatypes/cv_SpeciesTitle.h</text>
</g>
<!-- Node6&#45;&gt;Node9 -->
<g id="edge16" class="edge"><title>Node6&#45;&gt;Node9</title>
<path fill="none" stroke="midnightblue" d="M392.608,-58.4966C357.448,-48.8773 305.255,-34.5981 267.281,-24.209"/>
<polygon fill="midnightblue" stroke="midnightblue" points="268.033,-20.7861 257.464,-21.5231 266.186,-27.5379 268.033,-20.7861"/>
</g>
<!-- Node10 -->
<g id="node19" class="node"><title>Node10</title>
<polygon fill="white" stroke="#bfbfbf" points="312,-0.5 312,-21.5 410,-21.5 410,-0.5 312,-0.5"/>
<text text-anchor="middle" x="361" y="-8.5" font-family="DejaVuSans" font-size="10.00">Datatypes/Trait.h</text>
</g>
<!-- Node6&#45;&gt;Node10 -->
<g id="edge18" class="edge"><title>Node6&#45;&gt;Node10</title>
<path fill="none" stroke="midnightblue" d="M418.161,-58.3619C407.998,-49.9408 393.599,-38.0105 381.796,-28.2308"/>
<polygon fill="midnightblue" stroke="midnightblue" points="383.691,-25.2558 373.758,-21.5707 379.225,-30.6459 383.691,-25.2558"/>
</g>
<!-- Node11 -->
<g id="node21" class="node"><title>Node11</title>
<polygon fill="white" stroke="#bfbfbf" points="427.5,-0.5 427.5,-21.5 576.5,-21.5 576.5,-0.5 427.5,-0.5"/>
<text text-anchor="middle" x="502" y="-8.5" font-family="DejaVuSans" font-size="10.00">Datatypes/cv_SuperEffect.h</text>
</g>
<!-- Node6&#45;&gt;Node11 -->
<g id="edge20" class="edge"><title>Node6&#45;&gt;Node11</title>
<path fill="none" stroke="midnightblue" d="M444.022,-58.3619C454.431,-49.859 469.219,-37.7785 481.255,-27.9466"/>
<polygon fill="midnightblue" stroke="midnightblue" points="483.53,-30.6077 489.06,-21.5707 479.101,-25.1866 483.53,-30.6077"/>
</g>
<!-- Node12 -->
<g id="node23" class="node"><title>Node12</title>
<polygon fill="white" stroke="#bfbfbf" points="594,-0.5 594,-21.5 764,-21.5 764,-0.5 594,-0.5"/>
<text text-anchor="middle" x="679" y="-8.5" font-family="DejaVuSans" font-size="10.00">Datatypes/cv_CreationPoints2.h</text>
</g>
<!-- Node6&#45;&gt;Node12 -->
<g id="edge22" class="edge"><title>Node6&#45;&gt;Node12</title>
<path fill="none" stroke="midnightblue" d="M475.911,-58.4966C517.567,-48.7545 579.66,-34.2328 624.213,-23.813"/>
<polygon fill="midnightblue" stroke="midnightblue" points="625.065,-27.2084 634.005,-21.5231 623.471,-20.3924 625.065,-27.2084"/>
</g>
<!-- Node6&#45;&gt;Node13 -->
<g id="edge24" class="edge"><title>Node6&#45;&gt;Node13</title>
<path fill="none" stroke="midnightblue" d="M484.783,-64.2943C550.495,-57.9504 665.118,-44.967 771.292,-22.1393"/>
<polygon fill="midnightblue" stroke="midnightblue" points="772.186,-25.5265 781.209,-19.9725 770.692,-18.6878 772.186,-25.5265"/>
</g>
</g>
</svg>
