<?xml version="1.0" encoding="UTF-8" standalone="no"?>
<!DOCTYPE svg PUBLIC "-//W3C//DTD SVG 1.1//EN"
 "http://www.w3.org/Graphics/SVG/1.1/DTD/svg11.dtd">
<!-- Generated by graphviz version 2.26.3 (20100126.1600)
 -->
<!-- Title: G Pages: 1 -->
<svg width="850pt" height="146pt"
 viewBox="0.00 0.00 850.00 146.00" xmlns="http://www.w3.org/2000/svg" xmlns:xlink="http://www.w3.org/1999/xlink">
<g id="graph1" class="graph" transform="scale(1 1) rotate(0) translate(4 142)">
<title>G</title>
<polygon fill="white" stroke="white" points="-4,5 -4,-142 847,-142 847,5 -4,5"/>
<!-- Node1 -->
<g id="node1" class="node"><title>Node1</title>
<polygon fill="#bfbfbf" stroke="black" points="306.5,-116.5 306.5,-137.5 475.5,-137.5 475.5,-116.5 306.5,-116.5"/>
<text text-anchor="middle" x="391" y="-124.5" font-family="DejaVuSans" font-size="10.00">src/Storage/StorageCharacter.h</text>
</g>
<!-- Node2 -->
<g id="node3" class="node"><title>Node2</title>
<polygon fill="white" stroke="#bfbfbf" points="116,-58.5 116,-79.5 244,-79.5 244,-58.5 116,-58.5"/>
<text text-anchor="middle" x="180" y="-66.5" font-family="DejaVuSans" font-size="10.00">Datatypes/cv_Identity.h</text>
</g>
<!-- Node1&#45;&gt;Node2 -->
<g id="edge2" class="edge"><title>Node1&#45;&gt;Node2</title>
<path fill="none" stroke="midnightblue" d="M352.789,-116.497C317.795,-106.877 265.848,-92.5981 228.053,-82.209"/>
<polygon fill="midnightblue" stroke="midnightblue" points="228.852,-78.7988 218.282,-79.5231 226.997,-85.5485 228.852,-78.7988"/>
</g>
<!-- Node3 -->
<g id="node5" class="node"><title>Node3</title>
<polygon fill="white" stroke="#bfbfbf" points="0,-0.5 0,-21.5 146,-21.5 146,-0.5 0,-0.5"/>
<text text-anchor="middle" x="73" y="-8.5" font-family="DejaVuSans" font-size="10.00">Datatypes/cv_IdentityList.h</text>
</g>
<!-- Node1&#45;&gt;Node3 -->
<g id="edge4" class="edge"><title>Node1&#45;&gt;Node3</title>
<path fill="none" stroke="midnightblue" d="M364.082,-116.411C342.508,-107.581 311.702,-94.1896 286,-80 270.568,-71.4805 269.083,-65.2151 253,-58 218.267,-42.4182 177.361,-31.2215 143.329,-23.675"/>
<polygon fill="midnightblue" stroke="midnightblue" points="143.977,-20.2344 133.464,-21.5462 142.501,-27.0769 143.977,-20.2344"/>
</g>
<!-- Node4 -->
<g id="node7" class="node"><title>Node4</title>
<polygon fill="white" stroke="#bfbfbf" points="163.5,-0.5 163.5,-21.5 276.5,-21.5 276.5,-0.5 163.5,-0.5"/>
<text text-anchor="middle" x="220" y="-8.5" font-family="DejaVuSans" font-size="10.00">Datatypes/cv_Trait.h</text>
</g>
<!-- Node1&#45;&gt;Node4 -->
<g id="edge6" class="edge"><title>Node1&#45;&gt;Node4</title>
<path fill="none" stroke="midnightblue" d="M375.219,-116.295C345.188,-95.9229 279.649,-51.4639 244.096,-27.3457"/>
<polygon fill="midnightblue" stroke="midnightblue" points="245.983,-24.3966 235.743,-21.6792 242.053,-30.1895 245.983,-24.3966"/>
</g>
<!-- Node5 -->
<g id="node9" class="node"><title>Node5</title>
<polygon fill="white" stroke="#bfbfbf" points="499.5,-58.5 499.5,-79.5 660.5,-79.5 660.5,-58.5 499.5,-58.5"/>
<text text-anchor="middle" x="580" y="-66.5" font-family="DejaVuSans" font-size="10.00">Datatypes/cv_Derangement.h</text>
</g>
<!-- Node1&#45;&gt;Node5 -->
<g id="edge8" class="edge"><title>Node1&#45;&gt;Node5</title>
<path fill="none" stroke="midnightblue" d="M425.226,-116.497C456.305,-106.959 502.312,-92.8408 536.09,-82.475"/>
<polygon fill="midnightblue" stroke="midnightblue" points="537.176,-85.8029 545.709,-79.5231 535.123,-79.1109 537.176,-85.8029"/>
</g>
<!-- Node6 -->
<g id="node11" class="node"><title>Node6</title>
<polygon fill="white" stroke="#bfbfbf" points="678,-58.5 678,-79.5 842,-79.5 842,-58.5 678,-58.5"/>
<text text-anchor="middle" x="760" y="-66.5" font-family="DejaVuSans" font-size="10.00">Datatypes/cv_CreationPoints.h</text>
</g>
<!-- Node1&#45;&gt;Node6 -->
<g id="edge10" class="edge"><title>Node1&#45;&gt;Node6</title>
<path fill="none" stroke="midnightblue" d="M457.823,-116.497C521.235,-106.529 616.478,-91.5591 683.036,-81.0973"/>
<polygon fill="midnightblue" stroke="midnightblue" points="683.716,-84.5334 693.052,-79.5231 682.629,-77.6183 683.716,-84.5334"/>
</g>
<!-- Node7 -->
<g id="node13" class="node"><title>Node7</title>
<a xlink:href="_storage_template_8h.html" target="_top" xlink:title="StorageTemplate.h">
<polygon fill="white" stroke="black" points="337.5,-58.5 337.5,-79.5 444.5,-79.5 444.5,-58.5 337.5,-58.5"/>
<text text-anchor="middle" x="391" y="-66.5" font-family="DejaVuSans" font-size="10.00">StorageTemplate.h</text>
</a>
</g>
<!-- Node1&#45;&gt;Node7 -->
<g id="edge12" class="edge"><title>Node1&#45;&gt;Node7</title>
<path fill="none" stroke="midnightblue" d="M391,-116.362C391,-108.922 391,-98.7427 391,-89.7276"/>
<polygon fill="midnightblue" stroke="midnightblue" points="394.5,-89.5706 391,-79.5707 387.5,-89.5707 394.5,-89.5706"/>
</g>
<!-- Node12 -->
<g id="node25" class="node"><title>Node12</title>
<polygon fill="white" stroke="#bfbfbf" points="771.5,-0.5 771.5,-21.5 826.5,-21.5 826.5,-0.5 771.5,-0.5"/>
<text text-anchor="middle" x="799" y="-8.5" font-family="DejaVuSans" font-size="10.00">QObject</text>
</g>
<!-- Node1&#45;&gt;Node12 -->
<g id="edge28" class="edge"><title>Node1&#45;&gt;Node12</title>
<path fill="none" stroke="midnightblue" d="M404.502,-116.49C427.24,-98.9994 472.499,-65.1289 491,-58 601.788,-15.3114 641.729,-46.1793 761.318,-22.0689"/>
<polygon fill="midnightblue" stroke="midnightblue" points="762.147,-25.4711 771.212,-19.9865 760.705,-18.6211 762.147,-25.4711"/>
</g>
<!-- Node7&#45;&gt;Node3 -->
<g id="edge22" class="edge"><title>Node7&#45;&gt;Node3</title>
<path fill="none" stroke="midnightblue" d="M337.415,-59.2267C283.201,-49.3386 199.229,-34.0228 140.501,-23.3115"/>
<polygon fill="midnightblue" stroke="midnightblue" points="141.039,-19.8519 130.573,-21.5007 139.783,-26.7383 141.039,-19.8519"/>
</g>
<!-- Node7&#45;&gt;Node4 -->
<g id="edge20" class="edge"><title>Node7&#45;&gt;Node4</title>
<path fill="none" stroke="midnightblue" d="M360.033,-58.4966C332.156,-49.0411 291.003,-35.0829 260.518,-24.7428"/>
<polygon fill="midnightblue" stroke="midnightblue" points="261.619,-21.4207 251.025,-21.5231 259.371,-28.0497 261.619,-21.4207"/>
</g>
<!-- Node8 -->
<g id="node15" class="node"><title>Node8</title>
<polygon fill="white" stroke="#bfbfbf" points="713.5,-0.5 713.5,-21.5 754.5,-21.5 754.5,-0.5 713.5,-0.5"/>
<text text-anchor="middle" x="734" y="-8.5" font-family="DejaVuSans" font-size="10.00">QList</text>
</g>
<!-- Node7&#45;&gt;Node8 -->
<g id="edge14" class="edge"><title>Node7&#45;&gt;Node8</title>
<path fill="none" stroke="midnightblue" d="M444.743,-60.0892C449.226,-59.3724 453.69,-58.6678 458,-58 564.418,-41.5105 595.787,-49.3423 703.318,-22.0528"/>
<polygon fill="midnightblue" stroke="midnightblue" points="704.459,-25.3731 713.267,-19.4843 702.71,-18.5953 704.459,-25.3731"/>
</g>
<!-- Node9 -->
<g id="node17" class="node"><title>Node9</title>
<polygon fill="white" stroke="#bfbfbf" points="293.5,-0.5 293.5,-21.5 362.5,-21.5 362.5,-0.5 293.5,-0.5"/>
<text text-anchor="middle" x="328" y="-8.5" font-family="DejaVuSans" font-size="10.00">QStringList</text>
</g>
<!-- Node7&#45;&gt;Node9 -->
<g id="edge16" class="edge"><title>Node7&#45;&gt;Node9</title>
<path fill="none" stroke="midnightblue" d="M379.445,-58.3619C370.387,-50.0226 357.59,-38.2418 347.026,-28.5162"/>
<polygon fill="midnightblue" stroke="midnightblue" points="349.21,-25.7688 339.482,-21.5707 344.468,-30.9187 349.21,-25.7688"/>
</g>
<!-- Node10 -->
<g id="node19" class="node"><title>Node10</title>
<polygon fill="white" stroke="#bfbfbf" points="379.5,-0.5 379.5,-21.5 530.5,-21.5 530.5,-0.5 379.5,-0.5"/>
<text text-anchor="middle" x="455" y="-8.5" font-family="DejaVuSans" font-size="10.00">Datatypes/cv_SpeciesTitle.h</text>
</g>
<!-- Node7&#45;&gt;Node10 -->
<g id="edge18" class="edge"><title>Node7&#45;&gt;Node10</title>
<path fill="none" stroke="midnightblue" d="M402.739,-58.3619C411.941,-50.0226 424.94,-38.2418 435.672,-28.5162"/>
<polygon fill="midnightblue" stroke="midnightblue" points="438.276,-30.8793 443.336,-21.5707 433.576,-25.6924 438.276,-30.8793"/>
</g>
<!-- Node11 -->
<g id="node23" class="node"><title>Node11</title>
<polygon fill="white" stroke="#bfbfbf" points="547.5,-0.5 547.5,-21.5 696.5,-21.5 696.5,-0.5 547.5,-0.5"/>
<text text-anchor="middle" x="622" y="-8.5" font-family="DejaVuSans" font-size="10.00">Datatypes/cv_SuperEffect.h</text>
</g>
<!-- Node7&#45;&gt;Node11 -->
<g id="edge24" class="edge"><title>Node7&#45;&gt;Node11</title>
<path fill="none" stroke="midnightblue" d="M432.832,-58.4966C471.388,-48.8159 528.741,-34.4156 570.182,-24.0105"/>
<polygon fill="midnightblue" stroke="midnightblue" points="571.243,-27.353 580.089,-21.5231 569.538,-20.5637 571.243,-27.353"/>
</g>
<!-- Node7&#45;&gt;Node12 -->
<g id="edge26" class="edge"><title>Node7&#45;&gt;Node12</title>
<path fill="none" stroke="midnightblue" d="M444.724,-59.9601C449.211,-59.2719 453.681,-58.6091 458,-58 589.991,-39.385 627.664,-49.5512 761.421,-22.0708"/>
<polygon fill="midnightblue" stroke="midnightblue" points="762.146,-25.495 771.22,-20.0262 760.716,-18.6425 762.146,-25.495"/>
</g>
</g>
</svg>
