<?xml version="1.0" encoding="UTF-8" standalone="no"?>
<!DOCTYPE svg PUBLIC "-//W3C//DTD SVG 1.1//EN"
 "http://www.w3.org/Graphics/SVG/1.1/DTD/svg11.dtd">
<!-- Generated by graphviz version 2.26.3 (20100126.1600)
 -->
<!-- Title: G Pages: 1 -->
<svg width="340pt" height="88pt"
 viewBox="0.00 0.00 340.00 88.00" xmlns="http://www.w3.org/2000/svg" xmlns:xlink="http://www.w3.org/1999/xlink">
<g id="graph1" class="graph" transform="scale(1 1) rotate(0) translate(4 84)">
<title>G</title>
<polygon fill="white" stroke="white" points="-4,5 -4,-84 337,-84 337,5 -4,5"/>
<!-- Node1 -->
<g id="node1" class="node"><title>Node1</title>
<polygon fill="#bfbfbf" stroke="black" points="126.5,-58.5 126.5,-79.5 281.5,-79.5 281.5,-58.5 126.5,-58.5"/>
<text text-anchor="middle" x="204" y="-66.5" font-family="DejaVuSans" font-size="10.00">src/Parser/StringBoolParser.h</text>
</g>
<!-- Node2 -->
<g id="node3" class="node"><title>Node2</title>
<polygon fill="white" stroke="#bfbfbf" points="-0.5,-0.5 -0.5,-21.5 130.5,-21.5 130.5,-0.5 -0.5,-0.5"/>
<text text-anchor="middle" x="65" y="-8.5" font-family="DejaVuSans" font-size="10.00">Datatypes/cv_Species.h</text>
</g>
<!-- Node1&#45;&gt;Node2 -->
<g id="edge2" class="edge"><title>Node1&#45;&gt;Node2</title>
<path fill="none" stroke="midnightblue" d="M178.828,-58.4966C156.727,-49.2746 124.361,-35.7695 99.7866,-25.5153"/>
<polygon fill="midnightblue" stroke="midnightblue" points="101.031,-22.2421 90.4543,-21.6212 98.3353,-28.7022 101.031,-22.2421"/>
</g>
<!-- Node3 -->
<g id="node5" class="node"><title>Node3</title>
<polygon fill="white" stroke="#bfbfbf" points="147.5,-0.5 147.5,-21.5 260.5,-21.5 260.5,-0.5 147.5,-0.5"/>
<text text-anchor="middle" x="204" y="-8.5" font-family="DejaVuSans" font-size="10.00">Datatypes/cv_Trait.h</text>
</g>
<!-- Node1&#45;&gt;Node3 -->
<g id="edge4" class="edge"><title>Node1&#45;&gt;Node3</title>
<path fill="none" stroke="midnightblue" d="M204,-58.3619C204,-50.9219 204,-40.7427 204,-31.7276"/>
<polygon fill="midnightblue" stroke="midnightblue" points="207.5,-31.5706 204,-21.5707 200.5,-31.5707 207.5,-31.5706"/>
</g>
<!-- Node4 -->
<g id="node7" class="node"><title>Node4</title>
<polygon fill="white" stroke="#bfbfbf" points="277.5,-0.5 277.5,-21.5 332.5,-21.5 332.5,-0.5 277.5,-0.5"/>
<text text-anchor="middle" x="305" y="-8.5" font-family="DejaVuSans" font-size="10.00">QObject</text>
</g>
<!-- Node1&#45;&gt;Node4 -->
<g id="edge6" class="edge"><title>Node1&#45;&gt;Node4</title>
<path fill="none" stroke="midnightblue" d="M222.525,-58.3619C237.901,-49.532 259.996,-36.844 277.447,-26.8224"/>
<polygon fill="midnightblue" stroke="midnightblue" points="279.664,-29.5857 286.592,-21.5707 276.178,-23.5154 279.664,-29.5857"/>
</g>
</g>
</svg>
