<?xml version="1.0" encoding="UTF-8" standalone="no"?>
<!DOCTYPE svg PUBLIC "-//W3C//DTD SVG 1.1//EN"
 "http://www.w3.org/Graphics/SVG/1.1/DTD/svg11.dtd">
<!-- Generated by graphviz version 2.26.3 (20100126.1600)
 -->
<!-- Title: G Pages: 1 -->
<svg width="925pt" height="320pt"
 viewBox="0.00 0.00 925.17 320.00" xmlns="http://www.w3.org/2000/svg" xmlns:xlink="http://www.w3.org/1999/xlink">
<g id="graph1" class="graph" transform="scale(1 1) rotate(0) translate(4 316)">
<title>G</title>
<polygon fill="white" stroke="white" points="-4,5 -4,-316 922.175,-316 922.175,5 -4,5"/>
<!-- Node1 -->
<g id="node1" class="node"><title>Node1</title>
<polygon fill="#bfbfbf" stroke="black" points="469.175,-290.5 469.175,-311.5 635.175,-311.5 635.175,-290.5 469.175,-290.5"/>
<text text-anchor="middle" x="552.175" y="-298.5" font-family="DejaVuSans" font-size="10.00">src/Parser/StringBoolParser.cpp</text>
</g>
<!-- Node2 -->
<g id="node3" class="node"><title>Node2</title>
<polygon fill="white" stroke="#bfbfbf" points="340.175,-232.5 340.175,-253.5 396.175,-253.5 396.175,-232.5 340.175,-232.5"/>
<text text-anchor="middle" x="368.175" y="-240.5" font-family="DejaVuSans" font-size="10.00">QDebug</text>
</g>
<!-- Node1&#45;&gt;Node2 -->
<g id="edge2" class="edge"><title>Node1&#45;&gt;Node2</title>
<path fill="none" stroke="midnightblue" d="M518.854,-290.497C487.131,-280.497 439.434,-265.462 406.231,-254.996"/>
<polygon fill="midnightblue" stroke="midnightblue" points="407.015,-251.574 396.426,-251.905 404.911,-258.25 407.015,-251.574"/>
</g>
<!-- Node3 -->
<g id="node5" class="node"><title>Node3</title>
<a xlink:href="_exception_8h_source.html" target="_top" xlink:title="../Exceptions/Exception.h">
<polygon fill="white" stroke="black" points="414.175,-232.5 414.175,-253.5 550.175,-253.5 550.175,-232.5 414.175,-232.5"/>
<text text-anchor="middle" x="482.175" y="-240.5" font-family="DejaVuSans" font-size="10.00">../Exceptions/Exception.h</text>
</a>
</g>
<!-- Node1&#45;&gt;Node3 -->
<g id="edge4" class="edge"><title>Node1&#45;&gt;Node3</title>
<path fill="none" stroke="midnightblue" d="M539.336,-290.362C529.172,-281.941 514.774,-270.011 502.971,-260.231"/>
<polygon fill="midnightblue" stroke="midnightblue" points="504.866,-257.256 494.932,-253.571 500.4,-262.646 504.866,-257.256"/>
</g>
<!-- Node15 -->
<g id="node42" class="node"><title>Node15</title>
<a xlink:href="_config_8h.html" target="_top" xlink:title="../Config/Config.h">
<polygon fill="white" stroke="black" points="730.175,-174.5 730.175,-195.5 828.175,-195.5 828.175,-174.5 730.175,-174.5"/>
<text text-anchor="middle" x="779.175" y="-182.5" font-family="DejaVuSans" font-size="10.00">../Config/Config.h</text>
</a>
</g>
<!-- Node1&#45;&gt;Node15 -->
<g id="edge62" class="edge"><title>Node1&#45;&gt;Node15</title>
<path fill="none" stroke="midnightblue" d="M590.046,-290.488C616.859,-282.317 653.23,-269.736 683.175,-254 711.22,-239.262 740.348,-217.211 759.055,-202.024"/>
<polygon fill="midnightblue" stroke="midnightblue" points="761.384,-204.64 766.876,-195.58 756.933,-199.238 761.384,-204.64"/>
</g>
<!-- Node18 -->
<g id="node50" class="node"><title>Node18</title>
<a xlink:href="_string_bool_parser_8h.html" target="_top" xlink:title="StringBoolParser.h">
<polygon fill="white" stroke="black" points="570.175,-232.5 570.175,-253.5 674.175,-253.5 674.175,-232.5 570.175,-232.5"/>
<text text-anchor="middle" x="622.175" y="-240.5" font-family="DejaVuSans" font-size="10.00">StringBoolParser.h</text>
</a>
</g>
<!-- Node1&#45;&gt;Node18 -->
<g id="edge64" class="edge"><title>Node1&#45;&gt;Node18</title>
<path fill="none" stroke="midnightblue" d="M565.014,-290.362C575.177,-281.941 589.576,-270.011 601.379,-260.231"/>
<polygon fill="midnightblue" stroke="midnightblue" points="603.95,-262.646 609.417,-253.571 599.484,-257.256 603.95,-262.646"/>
</g>
<!-- Node4 -->
<g id="node7" class="node"><title>Node4</title>
<polygon fill="white" stroke="#bfbfbf" points="310.675,-0.5 310.675,-21.5 363.675,-21.5 363.675,-0.5 310.675,-0.5"/>
<text text-anchor="middle" x="337.175" y="-8.5" font-family="DejaVuSans" font-size="10.00">QString</text>
</g>
<!-- Node3&#45;&gt;Node4 -->
<g id="edge6" class="edge"><title>Node3&#45;&gt;Node4</title>
<path fill="none" stroke="midnightblue" d="M414.161,-233.234C411.125,-232.814 408.118,-232.401 405.175,-232 281.727,-215.19 239.765,-249.342 127.175,-196 59.2679,-163.827 33.9438,-148.994 4.17472,-80 0.301084,-71.0223 -2.2379,-65.3813 4.17472,-58 23.4106,-35.8585 217.615,-19.5186 300.261,-13.5144"/>
<polygon fill="midnightblue" stroke="midnightblue" points="300.736,-16.9894 310.461,-12.7848 300.237,-10.0072 300.736,-16.9894"/>
</g>
<!-- Node5 -->
<g id="node9" class="node"><title>Node5</title>
<a xlink:href="cv___trait_8h.html" target="_top" xlink:title="../Datatypes/cv_Trait.h">
<polygon fill="white" stroke="black" points="421.175,-174.5 421.175,-195.5 543.175,-195.5 543.175,-174.5 421.175,-174.5"/>
<text text-anchor="middle" x="482.175" y="-182.5" font-family="DejaVuSans" font-size="10.00">../Datatypes/cv_Trait.h</text>
</a>
</g>
<!-- Node3&#45;&gt;Node5 -->
<g id="edge8" class="edge"><title>Node3&#45;&gt;Node5</title>
<path fill="none" stroke="midnightblue" d="M482.175,-232.362C482.175,-224.922 482.175,-214.743 482.175,-205.728"/>
<polygon fill="midnightblue" stroke="midnightblue" points="485.675,-205.571 482.175,-195.571 478.675,-205.571 485.675,-205.571"/>
</g>
<!-- Node12 -->
<g id="node31" class="node"><title>Node12</title>
<a xlink:href="cv___shape_8h.html" target="_top" xlink:title="../Datatypes/cv_Shape.h">
<polygon fill="white" stroke="black" points="13.1747,-58.5 13.1747,-79.5 147.175,-79.5 147.175,-58.5 13.1747,-58.5"/>
<text text-anchor="middle" x="80.1747" y="-66.5" font-family="DejaVuSans" font-size="10.00">../Datatypes/cv_Shape.h</text>
</a>
</g>
<!-- Node3&#45;&gt;Node12 -->
<g id="edge38" class="edge"><title>Node3&#45;&gt;Node12</title>
<path fill="none" stroke="midnightblue" d="M414.006,-233.262C317.64,-219.495 153.175,-196 153.175,-196 115.464,-170.449 94.7867,-118.48 85.7685,-89.57"/>
<polygon fill="midnightblue" stroke="midnightblue" points="89.0515,-88.328 82.8718,-79.7221 82.336,-90.3034 89.0515,-88.328"/>
</g>
<!-- Node13 -->
<g id="node34" class="node"><title>Node13</title>
<a xlink:href="cv___identity_8h.html" target="_top" xlink:title="../Datatypes/cv_Identity.h">
<polygon fill="white" stroke="black" points="161.675,-174.5 161.675,-195.5 298.675,-195.5 298.675,-174.5 161.675,-174.5"/>
<text text-anchor="middle" x="230.175" y="-182.5" font-family="DejaVuSans" font-size="10.00">../Datatypes/cv_Identity.h</text>
</a>
</g>
<!-- Node3&#45;&gt;Node13 -->
<g id="edge42" class="edge"><title>Node3&#45;&gt;Node13</title>
<path fill="none" stroke="midnightblue" d="M436.539,-232.497C394.212,-222.755 331.117,-208.233 285.845,-197.813"/>
<polygon fill="midnightblue" stroke="midnightblue" points="286.426,-194.355 275.896,-195.523 284.856,-201.177 286.426,-194.355"/>
</g>
<!-- Node3&#45;&gt;Node15 -->
<g id="edge54" class="edge"><title>Node3&#45;&gt;Node15</title>
<path fill="none" stroke="midnightblue" d="M535.959,-232.497C587.783,-222.376 666.02,-207.098 719.682,-196.618"/>
<polygon fill="midnightblue" stroke="midnightblue" points="720.594,-200.006 729.738,-194.654 719.252,-193.136 720.594,-200.006"/>
</g>
<!-- Node5&#45;&gt;Node4 -->
<g id="edge12" class="edge"><title>Node5&#45;&gt;Node4</title>
<path fill="none" stroke="midnightblue" d="M421.101,-175.862C397.42,-169.225 372.199,-157.77 356.175,-138 331.499,-107.556 331.752,-59.0422 334.333,-31.6276"/>
<polygon fill="midnightblue" stroke="midnightblue" points="337.821,-31.9317 335.474,-21.6002 330.866,-31.1405 337.821,-31.9317"/>
</g>
<!-- Node6 -->
<g id="node11" class="node"><title>Node6</title>
<polygon fill="white" stroke="#bfbfbf" points="508.675,-116.5 508.675,-137.5 557.675,-137.5 557.675,-116.5 508.675,-116.5"/>
<text text-anchor="middle" x="533.175" y="-124.5" font-family="DejaVuSans" font-size="10.00">QFlags</text>
</g>
<!-- Node5&#45;&gt;Node6 -->
<g id="edge10" class="edge"><title>Node5&#45;&gt;Node6</title>
<path fill="none" stroke="midnightblue" d="M491.529,-174.362C498.718,-166.186 508.816,-154.702 517.267,-145.091"/>
<polygon fill="midnightblue" stroke="midnightblue" points="519.905,-147.392 523.88,-137.571 514.648,-142.769 519.905,-147.392"/>
</g>
<!-- Node7 -->
<g id="node14" class="node"><title>Node7</title>
<polygon fill="white" stroke="#bfbfbf" points="431.675,-58.5 431.675,-79.5 472.675,-79.5 472.675,-58.5 431.675,-58.5"/>
<text text-anchor="middle" x="452.175" y="-66.5" font-family="DejaVuSans" font-size="10.00">QList</text>
</g>
<!-- Node5&#45;&gt;Node7 -->
<g id="edge14" class="edge"><title>Node5&#45;&gt;Node7</title>
<path fill="none" stroke="midnightblue" d="M479.406,-174.295C474.428,-155.045 463.887,-114.289 457.479,-89.5091"/>
<polygon fill="midnightblue" stroke="midnightblue" points="460.829,-88.4843 454.937,-79.6792 454.052,-90.237 460.829,-88.4843"/>
</g>
<!-- Node8 -->
<g id="node16" class="node"><title>Node8</title>
<polygon fill="white" stroke="#bfbfbf" points="240.675,-58.5 240.675,-79.5 309.675,-79.5 309.675,-58.5 240.675,-58.5"/>
<text text-anchor="middle" x="275.175" y="-66.5" font-family="DejaVuSans" font-size="10.00">QStringList</text>
</g>
<!-- Node5&#45;&gt;Node8 -->
<g id="edge16" class="edge"><title>Node5&#45;&gt;Node8</title>
<path fill="none" stroke="midnightblue" d="M420.88,-176.823C389.402,-170.286 351.766,-158.637 323.175,-138 305.704,-125.389 292.418,-104.371 284.302,-88.8393"/>
<polygon fill="midnightblue" stroke="midnightblue" points="287.289,-86.9845 279.723,-79.5685 281.013,-90.0844 287.289,-86.9845"/>
</g>
<!-- Node9 -->
<g id="node18" class="node"><title>Node9</title>
<a xlink:href="cv___species_8h.html" target="_top" xlink:title="cv_Species.h">
<polygon fill="white" stroke="black" points="545.675,-58.5 545.675,-79.5 624.675,-79.5 624.675,-58.5 545.675,-58.5"/>
<text text-anchor="middle" x="585.175" y="-66.5" font-family="DejaVuSans" font-size="10.00">cv_Species.h</text>
</a>
</g>
<!-- Node5&#45;&gt;Node9 -->
<g id="edge18" class="edge"><title>Node5&#45;&gt;Node9</title>
<path fill="none" stroke="midnightblue" d="M513.452,-174.478C531.323,-166.952 552.775,-155.099 566.175,-138 576.923,-124.284 581.597,-104.887 583.627,-90.1501"/>
<polygon fill="midnightblue" stroke="midnightblue" points="587.133,-90.277 584.72,-79.9607 580.173,-89.5303 587.133,-90.277"/>
</g>
<!-- Node10 -->
<g id="node21" class="node"><title>Node10</title>
<a xlink:href="cv___trait_detail_8h.html" target="_top" xlink:title="cv_TraitDetail.h">
<polygon fill="white" stroke="black" points="364.675,-116.5 364.675,-137.5 453.675,-137.5 453.675,-116.5 364.675,-116.5"/>
<text text-anchor="middle" x="409.175" y="-124.5" font-family="DejaVuSans" font-size="10.00">cv_TraitDetail.h</text>
</a>
</g>
<!-- Node5&#45;&gt;Node10 -->
<g id="edge22" class="edge"><title>Node5&#45;&gt;Node10</title>
<path fill="none" stroke="midnightblue" d="M468.785,-174.362C458.084,-165.859 442.879,-153.779 430.504,-143.947"/>
<polygon fill="midnightblue" stroke="midnightblue" points="432.486,-141.051 422.479,-137.571 428.131,-146.532 432.486,-141.051"/>
</g>
<!-- Node11 -->
<g id="node27" class="node"><title>Node11</title>
<a xlink:href="cv___abstract_trait_8h.html" target="_top" xlink:title="cv_AbstractTrait.h">
<polygon fill="white" stroke="black" points="650.675,-116.5 650.675,-137.5 751.675,-137.5 751.675,-116.5 650.675,-116.5"/>
<text text-anchor="middle" x="701.175" y="-124.5" font-family="DejaVuSans" font-size="10.00">cv_AbstractTrait.h</text>
</a>
</g>
<!-- Node5&#45;&gt;Node11 -->
<g id="edge32" class="edge"><title>Node5&#45;&gt;Node11</title>
<path fill="none" stroke="midnightblue" d="M521.834,-174.497C558.232,-164.857 612.301,-150.537 651.55,-140.143"/>
<polygon fill="midnightblue" stroke="midnightblue" points="652.67,-143.467 661.441,-137.523 650.878,-136.7 652.67,-143.467"/>
</g>
<!-- Node9&#45;&gt;Node4 -->
<g id="edge20" class="edge"><title>Node9&#45;&gt;Node4</title>
<path fill="none" stroke="midnightblue" d="M545.604,-59.7456C498.309,-48.6847 419.808,-30.3255 373.838,-19.5744"/>
<polygon fill="midnightblue" stroke="midnightblue" points="374.527,-16.1413 363.993,-17.272 372.933,-22.9574 374.527,-16.1413"/>
</g>
<!-- Node10&#45;&gt;Node4 -->
<g id="edge24" class="edge"><title>Node10&#45;&gt;Node4</title>
<path fill="none" stroke="midnightblue" d="M402.53,-116.295C390.368,-96.6998 364.373,-54.8198 349.087,-30.1913"/>
<polygon fill="midnightblue" stroke="midnightblue" points="352.051,-28.3298 343.803,-21.6792 346.103,-32.0214 352.051,-28.3298"/>
</g>
<!-- Node10&#45;&gt;Node7 -->
<g id="edge26" class="edge"><title>Node10&#45;&gt;Node7</title>
<path fill="none" stroke="midnightblue" d="M417.062,-116.362C423.002,-108.35 431.297,-97.1605 438.333,-87.6696"/>
<polygon fill="midnightblue" stroke="midnightblue" points="441.194,-89.6883 444.338,-79.5707 435.571,-85.5193 441.194,-89.6883"/>
</g>
<!-- Node10&#45;&gt;Node8 -->
<g id="edge28" class="edge"><title>Node10&#45;&gt;Node8</title>
<path fill="none" stroke="midnightblue" d="M384.908,-116.497C363.696,-107.315 332.677,-93.8889 309.025,-83.6516"/>
<polygon fill="midnightblue" stroke="midnightblue" points="310.281,-80.3815 299.713,-79.6212 307.5,-86.8055 310.281,-80.3815"/>
</g>
<!-- Node10&#45;&gt;Node9 -->
<g id="edge30" class="edge"><title>Node10&#45;&gt;Node9</title>
<path fill="none" stroke="midnightblue" d="M441.047,-116.497C469.74,-107.041 512.096,-93.0829 543.472,-82.7428"/>
<polygon fill="midnightblue" stroke="midnightblue" points="544.841,-85.9772 553.243,-79.5231 542.65,-79.3289 544.841,-85.9772"/>
</g>
<!-- Node11&#45;&gt;Node4 -->
<g id="edge34" class="edge"><title>Node11&#45;&gt;Node4</title>
<path fill="none" stroke="midnightblue" d="M694.056,-116.289C683.029,-100.652 660.245,-71.9246 633.175,-58 588.504,-35.0222 442.827,-19.9684 373.924,-13.9572"/>
<polygon fill="midnightblue" stroke="midnightblue" points="374.206,-10.4686 363.944,-13.1031 373.609,-17.4431 374.206,-10.4686"/>
</g>
<!-- Node11&#45;&gt;Node9 -->
<g id="edge36" class="edge"><title>Node11&#45;&gt;Node9</title>
<path fill="none" stroke="midnightblue" d="M680.168,-116.497C662.132,-107.479 635.905,-94.3649 615.576,-84.2006"/>
<polygon fill="midnightblue" stroke="midnightblue" points="616.927,-80.9629 606.417,-79.6212 613.796,-87.2239 616.927,-80.9629"/>
</g>
<!-- Node12&#45;&gt;Node4 -->
<g id="edge40" class="edge"><title>Node12&#45;&gt;Node4</title>
<path fill="none" stroke="midnightblue" d="M126.715,-58.4966C176.741,-47.2067 255.211,-29.4978 300.872,-19.1928"/>
<polygon fill="midnightblue" stroke="midnightblue" points="301.659,-22.6034 310.643,-16.9877 300.118,-15.7751 301.659,-22.6034"/>
</g>
<!-- Node13&#45;&gt;Node4 -->
<g id="edge46" class="edge"><title>Node13&#45;&gt;Node4</title>
<path fill="none" stroke="midnightblue" d="M199.036,-174.334C182.546,-166.911 163.767,-155.21 154.175,-138 149.414,-129.459 150.433,-125.033 154.175,-116 178.609,-57.0099 254.617,-29.6713 300.634,-18.2309"/>
<polygon fill="midnightblue" stroke="midnightblue" points="301.593,-21.6007 310.525,-15.9012 299.988,-14.7872 301.593,-21.6007"/>
</g>
<!-- Node13&#45;&gt;Node8 -->
<g id="edge44" class="edge"><title>Node13&#45;&gt;Node8</title>
<path fill="none" stroke="midnightblue" d="M234.328,-174.295C241.829,-154.959 257.748,-113.923 267.348,-89.1767"/>
<polygon fill="midnightblue" stroke="midnightblue" points="270.678,-90.2681 271.032,-79.6792 264.152,-87.7364 270.678,-90.2681"/>
</g>
<!-- Node14 -->
<g id="node38" class="node"><title>Node14</title>
<a xlink:href="cv___name_8h.html" target="_top" xlink:title="cv_Name.h">
<polygon fill="white" stroke="black" points="162.675,-116.5 162.675,-137.5 233.675,-137.5 233.675,-116.5 162.675,-116.5"/>
<text text-anchor="middle" x="198.175" y="-124.5" font-family="DejaVuSans" font-size="10.00">cv_Name.h</text>
</a>
</g>
<!-- Node13&#45;&gt;Node14 -->
<g id="edge48" class="edge"><title>Node13&#45;&gt;Node14</title>
<path fill="none" stroke="midnightblue" d="M224.305,-174.362C220.02,-166.595 214.088,-155.843 208.959,-146.546"/>
<polygon fill="midnightblue" stroke="midnightblue" points="211.902,-144.636 204.007,-137.571 205.773,-148.017 211.902,-144.636"/>
</g>
<!-- Node14&#45;&gt;Node4 -->
<g id="edge52" class="edge"><title>Node14&#45;&gt;Node4</title>
<path fill="none" stroke="midnightblue" d="M200.953,-116.281C205.307,-101.41 215.058,-74.4952 232.175,-58 251.255,-39.6119 278.762,-27.6593 300.836,-20.4107"/>
<polygon fill="midnightblue" stroke="midnightblue" points="302.028,-23.7057 310.546,-17.4051 299.958,-17.0187 302.028,-23.7057"/>
</g>
<!-- Node14&#45;&gt;Node8 -->
<g id="edge50" class="edge"><title>Node14&#45;&gt;Node8</title>
<path fill="none" stroke="midnightblue" d="M212.298,-116.362C223.695,-107.777 239.933,-95.5459 253.052,-85.6636"/>
<polygon fill="midnightblue" stroke="midnightblue" points="255.26,-88.3829 261.141,-79.5707 251.048,-82.7916 255.26,-88.3829"/>
</g>
<!-- Node15&#45;&gt;Node4 -->
<g id="edge56" class="edge"><title>Node15&#45;&gt;Node4</title>
<path fill="none" stroke="midnightblue" d="M778.669,-174.078C777.478,-159.454 773.492,-133.345 760.175,-116 729.12,-75.5514 709.301,-74.8622 661.175,-58 608.769,-39.6386 447.617,-21.9262 374.246,-14.5684"/>
<polygon fill="midnightblue" stroke="midnightblue" points="374.379,-11.0644 364.082,-13.5591 373.687,-18.0301 374.379,-11.0644"/>
</g>
<!-- Node16 -->
<g id="node45" class="node"><title>Node16</title>
<polygon fill="white" stroke="#bfbfbf" points="806.675,-116.5 806.675,-137.5 855.675,-137.5 855.675,-116.5 806.675,-116.5"/>
<text text-anchor="middle" x="831.175" y="-124.5" font-family="DejaVuSans" font-size="10.00">QColor</text>
</g>
<!-- Node15&#45;&gt;Node16 -->
<g id="edge58" class="edge"><title>Node15&#45;&gt;Node16</title>
<path fill="none" stroke="midnightblue" d="M788.712,-174.362C796.042,-166.186 806.338,-154.702 814.956,-145.091"/>
<polygon fill="midnightblue" stroke="midnightblue" points="817.628,-147.353 821.698,-137.571 812.416,-142.68 817.628,-147.353"/>
</g>
<!-- Node17 -->
<g id="node47" class="node"><title>Node17</title>
<polygon fill="white" stroke="#bfbfbf" points="872.675,-116.5 872.675,-137.5 917.675,-137.5 917.675,-116.5 872.675,-116.5"/>
<text text-anchor="middle" x="895.175" y="-124.5" font-family="DejaVuSans" font-size="10.00">QFont</text>
</g>
<!-- Node15&#45;&gt;Node17 -->
<g id="edge60" class="edge"><title>Node15&#45;&gt;Node17</title>
<path fill="none" stroke="midnightblue" d="M800.181,-174.497C818.218,-165.479 844.445,-152.365 864.774,-142.201"/>
<polygon fill="midnightblue" stroke="midnightblue" points="866.553,-145.224 873.932,-137.621 863.423,-138.963 866.553,-145.224"/>
</g>
<!-- Node18&#45;&gt;Node5 -->
<g id="edge68" class="edge"><title>Node18&#45;&gt;Node5</title>
<path fill="none" stroke="midnightblue" d="M596.822,-232.497C574.562,-223.275 541.963,-209.769 517.212,-199.515"/>
<polygon fill="midnightblue" stroke="midnightblue" points="518.39,-196.215 507.812,-195.621 515.711,-202.682 518.39,-196.215"/>
</g>
<!-- Node18&#45;&gt;Node9 -->
<g id="edge66" class="edge"><title>Node18&#45;&gt;Node9</title>
<path fill="none" stroke="midnightblue" d="M619.916,-232.377C613.918,-204.172 597.511,-127.012 589.581,-89.7203"/>
<polygon fill="midnightblue" stroke="midnightblue" points="593.002,-88.981 587.498,-79.9277 586.155,-90.437 593.002,-88.981"/>
</g>
<!-- Node19 -->
<g id="node54" class="node"><title>Node19</title>
<polygon fill="white" stroke="#bfbfbf" points="650.675,-174.5 650.675,-195.5 705.675,-195.5 705.675,-174.5 650.675,-174.5"/>
<text text-anchor="middle" x="678.175" y="-182.5" font-family="DejaVuSans" font-size="10.00">QObject</text>
</g>
<!-- Node18&#45;&gt;Node19 -->
<g id="edge70" class="edge"><title>Node18&#45;&gt;Node19</title>
<path fill="none" stroke="midnightblue" d="M632.446,-232.362C640.419,-224.104 651.65,-212.472 660.986,-202.803"/>
<polygon fill="midnightblue" stroke="midnightblue" points="663.541,-205.196 667.969,-195.571 658.505,-200.334 663.541,-205.196"/>
</g>
</g>
</svg>
