<?xml version="1.0" encoding="UTF-8" standalone="no"?>
<!DOCTYPE svg PUBLIC "-//W3C//DTD SVG 1.1//EN"
 "http://www.w3.org/Graphics/SVG/1.1/DTD/svg11.dtd">
<!-- Generated by graphviz version 2.26.3 (20100126.1600)
 -->
<!-- Title: G Pages: 1 -->
<svg width="387pt" height="262pt"
 viewBox="0.00 0.00 387.00 262.00" xmlns="http://www.w3.org/2000/svg" xmlns:xlink="http://www.w3.org/1999/xlink">
<g id="graph1" class="graph" transform="scale(1 1) rotate(0) translate(4 258)">
<title>G</title>
<polygon fill="white" stroke="white" points="-4,5 -4,-258 384,-258 384,5 -4,5"/>
<!-- Node1 -->
<g id="node1" class="node"><title>Node1</title>
<polygon fill="#bfbfbf" stroke="black" points="0,-232.5 0,-253.5 166,-253.5 166,-232.5 0,-232.5"/>
<text text-anchor="middle" x="83" y="-240.5" font-family="DejaVuSans" font-size="10.00">src/Widgets/TraitSpecialties.cpp</text>
</g>
<!-- Node2 -->
<g id="node3" class="node"><title>Node2</title>
<polygon fill="white" stroke="#bfbfbf" points="8,-174.5 8,-195.5 64,-195.5 64,-174.5 8,-174.5"/>
<text text-anchor="middle" x="36" y="-182.5" font-family="DejaVuSans" font-size="10.00">QDebug</text>
</g>
<!-- Node1&#45;&gt;Node2 -->
<g id="edge2" class="edge"><title>Node1&#45;&gt;Node2</title>
<path fill="none" stroke="midnightblue" d="M74.3795,-232.362C67.8205,-224.268 58.6344,-212.932 50.8938,-203.38"/>
<polygon fill="midnightblue" stroke="midnightblue" points="53.581,-201.136 44.5659,-195.571 48.1425,-205.544 53.581,-201.136"/>
</g>
<!-- Node3 -->
<g id="node5" class="node"><title>Node3</title>
<a xlink:href="_trait_specialties_8h.html" target="_top" xlink:title="TraitSpecialties.h">
<polygon fill="white" stroke="black" points="81.5,-174.5 81.5,-195.5 178.5,-195.5 178.5,-174.5 81.5,-174.5"/>
<text text-anchor="middle" x="130" y="-182.5" font-family="DejaVuSans" font-size="10.00">TraitSpecialties.h</text>
</a>
</g>
<!-- Node1&#45;&gt;Node3 -->
<g id="edge4" class="edge"><title>Node1&#45;&gt;Node3</title>
<path fill="none" stroke="midnightblue" d="M91.6205,-232.362C98.1795,-224.268 107.366,-212.932 115.106,-203.38"/>
<polygon fill="midnightblue" stroke="midnightblue" points="117.858,-205.544 121.434,-195.571 112.419,-201.136 117.858,-205.544"/>
</g>
<!-- Node4 -->
<g id="node7" class="node"><title>Node4</title>
<polygon fill="white" stroke="#bfbfbf" points="12.5,-0.5 12.5,-21.5 65.5,-21.5 65.5,-0.5 12.5,-0.5"/>
<text text-anchor="middle" x="39" y="-8.5" font-family="DejaVuSans" font-size="10.00">QString</text>
</g>
<!-- Node3&#45;&gt;Node4 -->
<g id="edge6" class="edge"><title>Node3&#45;&gt;Node4</title>
<path fill="none" stroke="midnightblue" d="M94.7813,-174.421C77.0203,-167.156 56.9695,-155.58 46,-138 25.6452,-105.379 29.7416,-58.379 34.4439,-31.6521"/>
<polygon fill="midnightblue" stroke="midnightblue" points="37.9371,-32.0266 36.4268,-21.5399 31.0679,-30.6796 37.9371,-32.0266"/>
</g>
<!-- Node5 -->
<g id="node9" class="node"><title>Node5</title>
<a xlink:href="cv___trait_detail_8h.html" target="_top" xlink:title="../Datatypes/cv_TraitDetail.h">
<polygon fill="white" stroke="black" points="55,-116.5 55,-137.5 205,-137.5 205,-116.5 55,-116.5"/>
<text text-anchor="middle" x="130" y="-124.5" font-family="DejaVuSans" font-size="10.00">../Datatypes/cv_TraitDetail.h</text>
</a>
</g>
<!-- Node3&#45;&gt;Node5 -->
<g id="edge8" class="edge"><title>Node3&#45;&gt;Node5</title>
<path fill="none" stroke="midnightblue" d="M130,-174.362C130,-166.922 130,-156.743 130,-147.728"/>
<polygon fill="midnightblue" stroke="midnightblue" points="133.5,-147.571 130,-137.571 126.5,-147.571 133.5,-147.571"/>
</g>
<!-- Node9 -->
<g id="node19" class="node"><title>Node9</title>
<a xlink:href="_checked_list_8h.html" target="_top" xlink:title="CheckedList.h">
<polygon fill="white" stroke="black" points="274.5,-116.5 274.5,-137.5 357.5,-137.5 357.5,-116.5 274.5,-116.5"/>
<text text-anchor="middle" x="316" y="-124.5" font-family="DejaVuSans" font-size="10.00">CheckedList.h</text>
</a>
</g>
<!-- Node3&#45;&gt;Node9 -->
<g id="edge20" class="edge"><title>Node3&#45;&gt;Node9</title>
<path fill="none" stroke="midnightblue" d="M163.683,-174.497C194.137,-165 239.157,-150.962 272.358,-140.609"/>
<polygon fill="midnightblue" stroke="midnightblue" points="273.749,-143.841 282.254,-137.523 271.665,-137.159 273.749,-143.841"/>
</g>
<!-- Node5&#45;&gt;Node4 -->
<g id="edge10" class="edge"><title>Node5&#45;&gt;Node4</title>
<path fill="none" stroke="midnightblue" d="M104.914,-116.335C89.2549,-108.457 69.8821,-96.2765 58,-80 47.7252,-65.9253 43.0059,-46.5625 40.8387,-31.9302"/>
<polygon fill="midnightblue" stroke="midnightblue" points="44.2934,-31.3418 39.6293,-21.8289 37.343,-32.1741 44.2934,-31.3418"/>
</g>
<!-- Node6 -->
<g id="node12" class="node"><title>Node6</title>
<polygon fill="white" stroke="#bfbfbf" points="66.5,-58.5 66.5,-79.5 107.5,-79.5 107.5,-58.5 66.5,-58.5"/>
<text text-anchor="middle" x="87" y="-66.5" font-family="DejaVuSans" font-size="10.00">QList</text>
</g>
<!-- Node5&#45;&gt;Node6 -->
<g id="edge12" class="edge"><title>Node5&#45;&gt;Node6</title>
<path fill="none" stroke="midnightblue" d="M122.113,-116.362C116.173,-108.35 107.878,-97.1605 100.841,-87.6696"/>
<polygon fill="midnightblue" stroke="midnightblue" points="103.604,-85.5193 94.8369,-79.5707 97.9809,-89.6883 103.604,-85.5193"/>
</g>
<!-- Node7 -->
<g id="node14" class="node"><title>Node7</title>
<polygon fill="white" stroke="#bfbfbf" points="124.5,-58.5 124.5,-79.5 193.5,-79.5 193.5,-58.5 124.5,-58.5"/>
<text text-anchor="middle" x="159" y="-66.5" font-family="DejaVuSans" font-size="10.00">QStringList</text>
</g>
<!-- Node5&#45;&gt;Node7 -->
<g id="edge14" class="edge"><title>Node5&#45;&gt;Node7</title>
<path fill="none" stroke="midnightblue" d="M135.319,-116.362C139.203,-108.595 144.579,-97.8426 149.227,-88.5458"/>
<polygon fill="midnightblue" stroke="midnightblue" points="152.373,-90.0802 153.715,-79.5707 146.112,-86.9497 152.373,-90.0802"/>
</g>
<!-- Node8 -->
<g id="node16" class="node"><title>Node8</title>
<a xlink:href="cv___species_8h.html" target="_top" xlink:title="cv_Species.h">
<polygon fill="white" stroke="black" points="210.5,-58.5 210.5,-79.5 289.5,-79.5 289.5,-58.5 210.5,-58.5"/>
<text text-anchor="middle" x="250" y="-66.5" font-family="DejaVuSans" font-size="10.00">cv_Species.h</text>
</a>
</g>
<!-- Node5&#45;&gt;Node8 -->
<g id="edge16" class="edge"><title>Node5&#45;&gt;Node8</title>
<path fill="none" stroke="midnightblue" d="M151.731,-116.497C170.474,-107.438 197.767,-94.2462 218.836,-84.0628"/>
<polygon fill="midnightblue" stroke="midnightblue" points="220.545,-87.1242 228.025,-79.6212 217.498,-80.8217 220.545,-87.1242"/>
</g>
<!-- Node8&#45;&gt;Node4 -->
<g id="edge18" class="edge"><title>Node8&#45;&gt;Node4</title>
<path fill="none" stroke="midnightblue" d="M211.789,-58.4966C172.98,-47.8285 113.319,-31.4289 75.2354,-20.9604"/>
<polygon fill="midnightblue" stroke="midnightblue" points="76.1431,-17.5802 65.573,-18.3044 74.2877,-24.3298 76.1431,-17.5802"/>
</g>
<!-- Node10 -->
<g id="node21" class="node"><title>Node10</title>
<polygon fill="white" stroke="#bfbfbf" points="306.5,-58.5 306.5,-79.5 379.5,-79.5 379.5,-58.5 306.5,-58.5"/>
<text text-anchor="middle" x="343" y="-66.5" font-family="DejaVuSans" font-size="10.00">QListWidget</text>
</g>
<!-- Node9&#45;&gt;Node10 -->
<g id="edge22" class="edge"><title>Node9&#45;&gt;Node10</title>
<path fill="none" stroke="midnightblue" d="M320.952,-116.362C324.53,-108.677 329.468,-98.0686 333.764,-88.8399"/>
<polygon fill="midnightblue" stroke="midnightblue" points="337.032,-90.1136 338.079,-79.5707 330.686,-87.1594 337.032,-90.1136"/>
</g>
</g>
</svg>
