<?xml version="1.0" encoding="UTF-8" standalone="no"?>
<!DOCTYPE svg PUBLIC "-//W3C//DTD SVG 1.1//EN"
 "http://www.w3.org/Graphics/SVG/1.1/DTD/svg11.dtd">
<!-- Generated by graphviz version 2.26.3 (20100126.1600)
 -->
<!-- Title: G Pages: 1 -->
<svg width="1064pt" height="204pt"
 viewBox="0.00 0.00 1064.00 204.00" xmlns="http://www.w3.org/2000/svg" xmlns:xlink="http://www.w3.org/1999/xlink">
<g id="graph1" class="graph" transform="scale(1 1) rotate(0) translate(4 200)">
<title>G</title>
<polygon fill="white" stroke="white" points="-4,5 -4,-200 1061,-200 1061,5 -4,5"/>
<!-- Node1 -->
<g id="node1" class="node"><title>Node1</title>
<polygon fill="#bfbfbf" stroke="black" points="589.5,-174.5 589.5,-195.5 714.5,-195.5 714.5,-174.5 589.5,-174.5"/>
<text text-anchor="middle" x="652" y="-182.5" font-family="DejaVuSans" font-size="10.00">src/Widgets/TraitDots.h</text>
</g>
<!-- Node2 -->
<g id="node3" class="node"><title>Node2</title>
<a xlink:href="_advantages_widget_8h.html" target="_top" xlink:title="src/Widgets/AdvantagesWidget.h">
<polygon fill="white" stroke="black" points="202.5,-116.5 202.5,-137.5 375.5,-137.5 375.5,-116.5 202.5,-116.5"/>
<text text-anchor="middle" x="289" y="-124.5" font-family="DejaVuSans" font-size="10.00">src/Widgets/AdvantagesWidget.h</text>
</a>
</g>
<!-- Node1&#45;&gt;Node2 -->
<g id="edge2" class="edge"><title>Node1&#45;&gt;Node2</title>
<path fill="none" stroke="midnightblue" d="M578.925,-173.324C513.342,-162.845 417.944,-147.603 354.721,-137.501"/>
<polygon fill="midnightblue" stroke="midnightblue" points="578.758,-176.842 589.185,-174.963 579.862,-169.929 578.758,-176.842"/>
</g>
<!-- Node7 -->
<g id="node13" class="node"><title>Node7</title>
<a xlink:href="_trait_line_8h.html" target="_top" xlink:title="src/Widgets/TraitLine.h">
<polygon fill="white" stroke="black" points="430,-116.5 430,-137.5 552,-137.5 552,-116.5 430,-116.5"/>
<text text-anchor="middle" x="491" y="-124.5" font-family="DejaVuSans" font-size="10.00">src/Widgets/TraitLine.h</text>
</a>
</g>
<!-- Node1&#45;&gt;Node7 -->
<g id="edge12" class="edge"><title>Node1&#45;&gt;Node7</title>
<path fill="none" stroke="midnightblue" d="M613.164,-171.009C584.553,-160.702 546.248,-146.903 520.211,-137.523"/>
<polygon fill="midnightblue" stroke="midnightblue" points="612.25,-174.4 622.844,-174.497 614.622,-167.814 612.25,-174.4"/>
</g>
<!-- Node15 -->
<g id="node30" class="node"><title>Node15</title>
<a xlink:href="_morality_widget_8cpp.html" target="_top" xlink:title="src/Widgets/MoralityWidget.cpp">
<polygon fill="white" stroke="black" points="570,-116.5 570,-137.5 734,-137.5 734,-116.5 570,-116.5"/>
<text text-anchor="middle" x="652" y="-124.5" font-family="DejaVuSans" font-size="10.00">src/Widgets/MoralityWidget.cpp</text>
</a>
</g>
<!-- Node1&#45;&gt;Node15 -->
<g id="edge30" class="edge"><title>Node1&#45;&gt;Node15</title>
<path fill="none" stroke="midnightblue" d="M652,-164.191C652,-155.168 652,-144.994 652,-137.571"/>
<polygon fill="midnightblue" stroke="midnightblue" points="648.5,-164.362 652,-174.362 655.5,-164.362 648.5,-164.362"/>
</g>
<!-- Node16 -->
<g id="node32" class="node"><title>Node16</title>
<a xlink:href="_select_widget_8h.html" target="_top" xlink:title="src/Widgets/SelectWidget.h">
<polygon fill="white" stroke="black" points="752,-116.5 752,-137.5 898,-137.5 898,-116.5 752,-116.5"/>
<text text-anchor="middle" x="825" y="-124.5" font-family="DejaVuSans" font-size="10.00">src/Widgets/SelectWidget.h</text>
</a>
</g>
<!-- Node1&#45;&gt;Node16 -->
<g id="edge32" class="edge"><title>Node1&#45;&gt;Node16</title>
<path fill="none" stroke="midnightblue" d="M692.927,-171.279C723.754,-160.944 765.39,-146.985 793.612,-137.523"/>
<polygon fill="midnightblue" stroke="midnightblue" points="691.698,-167.999 683.329,-174.497 693.923,-174.636 691.698,-167.999"/>
</g>
<!-- Node18 -->
<g id="node36" class="node"><title>Node18</title>
<a xlink:href="_trait_dots_8cpp.html" target="_top" xlink:title="src/Widgets/TraitDots.cpp">
<polygon fill="white" stroke="black" points="915.5,-116.5 915.5,-137.5 1052.5,-137.5 1052.5,-116.5 915.5,-116.5"/>
<text text-anchor="middle" x="984" y="-124.5" font-family="DejaVuSans" font-size="10.00">src/Widgets/TraitDots.cpp</text>
</a>
</g>
<!-- Node1&#45;&gt;Node18 -->
<g id="edge36" class="edge"><title>Node1&#45;&gt;Node18</title>
<path fill="none" stroke="midnightblue" d="M722.237,-172.73C782.034,-162.283 867.025,-147.435 923.765,-137.523"/>
<polygon fill="midnightblue" stroke="midnightblue" points="721.371,-169.328 712.123,-174.497 722.576,-176.223 721.371,-169.328"/>
</g>
<!-- Node3 -->
<g id="node5" class="node"><title>Node3</title>
<a xlink:href="_main_window_8h.html" target="_top" xlink:title="src/MainWindow.h">
<polygon fill="white" stroke="black" points="79,-58.5 79,-79.5 179,-79.5 179,-58.5 79,-58.5"/>
<text text-anchor="middle" x="129" y="-66.5" font-family="DejaVuSans" font-size="10.00">src/MainWindow.h</text>
</a>
</g>
<!-- Node2&#45;&gt;Node3 -->
<g id="edge4" class="edge"><title>Node2&#45;&gt;Node3</title>
<path fill="none" stroke="midnightblue" d="M250.405,-113.009C221.972,-102.702 183.905,-88.903 158.029,-79.5231"/>
<polygon fill="midnightblue" stroke="midnightblue" points="249.431,-116.379 260.025,-116.497 251.817,-109.798 249.431,-116.379"/>
</g>
<!-- Node6 -->
<g id="node11" class="node"><title>Node6</title>
<a xlink:href="_advantages_widget_8cpp.html" target="_top" xlink:title="src/Widgets/AdvantagesWidget.cpp">
<polygon fill="white" stroke="black" points="197,-58.5 197,-79.5 381,-79.5 381,-58.5 197,-58.5"/>
<text text-anchor="middle" x="289" y="-66.5" font-family="DejaVuSans" font-size="10.00">src/Widgets/AdvantagesWidget.cpp</text>
</a>
</g>
<!-- Node2&#45;&gt;Node6 -->
<g id="edge10" class="edge"><title>Node2&#45;&gt;Node6</title>
<path fill="none" stroke="midnightblue" d="M289,-106.191C289,-97.1684 289,-86.9941 289,-79.5707"/>
<polygon fill="midnightblue" stroke="midnightblue" points="285.5,-106.362 289,-116.362 292.5,-106.362 285.5,-106.362"/>
</g>
<!-- Node4 -->
<g id="node7" class="node"><title>Node4</title>
<a xlink:href="main_8cpp.html" target="_top" xlink:title="src/main.cpp">
<polygon fill="white" stroke="black" points="0,-0.5 0,-21.5 78,-21.5 78,-0.5 0,-0.5"/>
<text text-anchor="middle" x="39" y="-8.5" font-family="DejaVuSans" font-size="10.00">src/main.cpp</text>
</a>
</g>
<!-- Node3&#45;&gt;Node4 -->
<g id="edge6" class="edge"><title>Node3&#45;&gt;Node4</title>
<path fill="none" stroke="midnightblue" d="M103.895,-52.8215C88.3933,-42.8312 68.9471,-30.2993 55.4027,-21.5707"/>
<polygon fill="midnightblue" stroke="midnightblue" points="102.191,-55.8869 112.493,-58.3619 105.983,-50.0028 102.191,-55.8869"/>
</g>
<!-- Node5 -->
<g id="node9" class="node"><title>Node5</title>
<a xlink:href="_main_window_8cpp.html" target="_top" xlink:title="src/MainWindow.cpp">
<polygon fill="white" stroke="black" points="95.5,-0.5 95.5,-21.5 206.5,-21.5 206.5,-0.5 95.5,-0.5"/>
<text text-anchor="middle" x="151" y="-8.5" font-family="DejaVuSans" font-size="10.00">src/MainWindow.cpp</text>
</a>
</g>
<!-- Node3&#45;&gt;Node5 -->
<g id="edge8" class="edge"><title>Node3&#45;&gt;Node5</title>
<path fill="none" stroke="midnightblue" d="M136.668,-48.7838C140.145,-39.617 144.113,-29.1572 146.99,-21.5707"/>
<polygon fill="midnightblue" stroke="midnightblue" points="133.309,-47.7706 133.035,-58.3619 139.854,-50.2532 133.309,-47.7706"/>
</g>
<!-- Node7&#45;&gt;Node5 -->
<g id="edge14" class="edge"><title>Node7&#45;&gt;Node5</title>
<path fill="none" stroke="midnightblue" d="M468.918,-110.355C444.479,-92.2182 406.382,-64.8636 390,-58 373.302,-51.0039 271.994,-32.3359 206.748,-20.7424"/>
<polygon fill="midnightblue" stroke="midnightblue" points="466.827,-113.161 476.934,-116.336 471.013,-107.551 466.827,-113.161"/>
</g>
<!-- Node8 -->
<g id="node16" class="node"><title>Node8</title>
<a xlink:href="_chara_trait_8h.html" target="_top" xlink:title="src/Widgets/CharaTrait.h">
<polygon fill="white" stroke="black" points="436.5,-58.5 436.5,-79.5 567.5,-79.5 567.5,-58.5 436.5,-58.5"/>
<text text-anchor="middle" x="502" y="-66.5" font-family="DejaVuSans" font-size="10.00">src/Widgets/CharaTrait.h</text>
</a>
</g>
<!-- Node7&#45;&gt;Node8 -->
<g id="edge16" class="edge"><title>Node7&#45;&gt;Node8</title>
<path fill="none" stroke="midnightblue" d="M494.89,-106.488C496.615,-97.3924 498.572,-87.0756 499.995,-79.5707"/>
<polygon fill="midnightblue" stroke="midnightblue" points="491.442,-105.885 493.018,-116.362 498.32,-107.189 491.442,-105.885"/>
</g>
<!-- Node14 -->
<g id="node28" class="node"><title>Node14</title>
<a xlink:href="_trait_line_8cpp.html" target="_top" xlink:title="src/Widgets/TraitLine.cpp">
<polygon fill="white" stroke="black" points="585,-58.5 585,-79.5 719,-79.5 719,-58.5 585,-58.5"/>
<text text-anchor="middle" x="652" y="-66.5" font-family="DejaVuSans" font-size="10.00">src/Widgets/TraitLine.cpp</text>
</a>
</g>
<!-- Node7&#45;&gt;Node14 -->
<g id="edge28" class="edge"><title>Node7&#45;&gt;Node14</title>
<path fill="none" stroke="midnightblue" d="M529.836,-113.009C558.447,-102.702 596.752,-88.903 622.789,-79.5231"/>
<polygon fill="midnightblue" stroke="midnightblue" points="528.378,-109.814 520.156,-116.497 530.75,-116.4 528.378,-109.814"/>
</g>
<!-- Node9 -->
<g id="node18" class="node"><title>Node9</title>
<a xlink:href="_attribute_widget_8cpp.html" target="_top" xlink:title="src/Widgets/AttributeWidget.cpp">
<polygon fill="white" stroke="black" points="223.5,-0.5 223.5,-21.5 392.5,-21.5 392.5,-0.5 223.5,-0.5"/>
<text text-anchor="middle" x="308" y="-8.5" font-family="DejaVuSans" font-size="10.00">src/Widgets/AttributeWidget.cpp</text>
</a>
</g>
<!-- Node8&#45;&gt;Node9 -->
<g id="edge18" class="edge"><title>Node8&#45;&gt;Node9</title>
<path fill="none" stroke="midnightblue" d="M457,-55.5464C422.345,-45.1857 375.12,-31.0668 343.198,-21.5231"/>
<polygon fill="midnightblue" stroke="midnightblue" points="456.285,-58.9855 466.868,-58.4966 458.29,-52.2788 456.285,-58.9855"/>
</g>
<!-- Node10 -->
<g id="node20" class="node"><title>Node10</title>
<a xlink:href="_chara_trait_8cpp.html" target="_top" xlink:title="src/Widgets/CharaTrait.cpp">
<polygon fill="white" stroke="black" points="409.5,-0.5 409.5,-21.5 552.5,-21.5 552.5,-0.5 409.5,-0.5"/>
<text text-anchor="middle" x="481" y="-8.5" font-family="DejaVuSans" font-size="10.00">src/Widgets/CharaTrait.cpp</text>
</a>
</g>
<!-- Node8&#45;&gt;Node10 -->
<g id="edge20" class="edge"><title>Node8&#45;&gt;Node10</title>
<path fill="none" stroke="midnightblue" d="M494.68,-48.7838C491.361,-39.617 487.574,-29.1572 484.827,-21.5707"/>
<polygon fill="midnightblue" stroke="midnightblue" points="491.453,-50.1508 498.148,-58.3619 498.035,-47.7677 491.453,-50.1508"/>
</g>
<!-- Node11 -->
<g id="node22" class="node"><title>Node11</title>
<a xlink:href="_merit_widget_8cpp.html" target="_top" xlink:title="src/Widgets/MeritWidget.cpp">
<polygon fill="white" stroke="black" points="569.5,-0.5 569.5,-21.5 720.5,-21.5 720.5,-0.5 569.5,-0.5"/>
<text text-anchor="middle" x="645" y="-8.5" font-family="DejaVuSans" font-size="10.00">src/Widgets/MeritWidget.cpp</text>
</a>
</g>
<!-- Node8&#45;&gt;Node11 -->
<g id="edge22" class="edge"><title>Node8&#45;&gt;Node11</title>
<path fill="none" stroke="midnightblue" d="M537.466,-54.6153C562.679,-44.3889 595.987,-30.8796 618.813,-21.6212"/>
<polygon fill="midnightblue" stroke="midnightblue" points="535.847,-51.4946 527.896,-58.4966 538.479,-57.9814 535.847,-51.4946"/>
</g>
<!-- Node12 -->
<g id="node24" class="node"><title>Node12</title>
<a xlink:href="_power_widget_8cpp.html" target="_top" xlink:title="src/Widgets/PowerWidget.cpp">
<polygon fill="white" stroke="black" points="737.5,-0.5 737.5,-21.5 892.5,-21.5 892.5,-0.5 737.5,-0.5"/>
<text text-anchor="middle" x="815" y="-8.5" font-family="DejaVuSans" font-size="10.00">src/Widgets/PowerWidget.cpp</text>
</a>
</g>
<!-- Node8&#45;&gt;Node12 -->
<g id="edge24" class="edge"><title>Node8&#45;&gt;Node12</title>
<path fill="none" stroke="midnightblue" d="M568.567,-56.6648C624.923,-46.222 704.83,-31.415 758.212,-21.5231"/>
<polygon fill="midnightblue" stroke="midnightblue" points="567.877,-53.2331 558.682,-58.4966 569.152,-60.116 567.877,-53.2331"/>
</g>
<!-- Node13 -->
<g id="node26" class="node"><title>Node13</title>
<a xlink:href="_skill_widget_8cpp.html" target="_top" xlink:title="src/Widgets/SkillWidget.cpp">
<polygon fill="white" stroke="black" points="910,-0.5 910,-21.5 1056,-21.5 1056,-0.5 910,-0.5"/>
<text text-anchor="middle" x="983" y="-8.5" font-family="DejaVuSans" font-size="10.00">src/Widgets/SkillWidget.cpp</text>
</a>
</g>
<!-- Node8&#45;&gt;Node13 -->
<g id="edge26" class="edge"><title>Node8&#45;&gt;Node13</title>
<path fill="none" stroke="midnightblue" d="M577.844,-57.7935C721.821,-39.3194 759.989,-39.2655 901,-22 903.851,-21.6509 906.758,-21.2891 909.693,-20.9189"/>
<polygon fill="midnightblue" stroke="midnightblue" points="577.219,-54.3451 567.75,-59.0966 578.116,-61.2875 577.219,-54.3451"/>
</g>
<!-- Node17 -->
<g id="node34" class="node"><title>Node17</title>
<a xlink:href="_select_widget_8cpp.html" target="_top" xlink:title="src/Widgets/SelectWidget.cpp">
<polygon fill="white" stroke="black" points="746.5,-58.5 746.5,-79.5 903.5,-79.5 903.5,-58.5 746.5,-58.5"/>
<text text-anchor="middle" x="825" y="-66.5" font-family="DejaVuSans" font-size="10.00">src/Widgets/SelectWidget.cpp</text>
</a>
</g>
<!-- Node16&#45;&gt;Node17 -->
<g id="edge34" class="edge"><title>Node16&#45;&gt;Node17</title>
<path fill="none" stroke="midnightblue" d="M825,-106.191C825,-97.1684 825,-86.9941 825,-79.5707"/>
<polygon fill="midnightblue" stroke="midnightblue" points="821.5,-106.362 825,-116.362 828.5,-106.362 821.5,-106.362"/>
</g>
</g>
</svg>
