<?xml version="1.0" encoding="UTF-8" standalone="no"?>
<!DOCTYPE svg PUBLIC "-//W3C//DTD SVG 1.1//EN"
 "http://www.w3.org/Graphics/SVG/1.1/DTD/svg11.dtd">
<!-- Generated by graphviz version 2.26.3 (20100126.1600)
 -->
<!-- Title: G Pages: 1 -->
<svg width="1064pt" height="204pt"
 viewBox="0.00 0.00 1064.00 204.00" xmlns="http://www.w3.org/2000/svg" xmlns:xlink="http://www.w3.org/1999/xlink">
<g id="graph1" class="graph" transform="scale(1 1) rotate(0) translate(4 200)">
<title>G</title>
<polygon fill="white" stroke="white" points="-4,5 -4,-200 1061,-200 1061,5 -4,5"/>
<!-- Node1 -->
<g id="node1" class="node"><title>Node1</title>
<polygon fill="#bfbfbf" stroke="black" points="495.5,-174.5 495.5,-195.5 620.5,-195.5 620.5,-174.5 495.5,-174.5"/>
<text text-anchor="middle" x="558" y="-182.5" font-family="DejaVuSans" font-size="10.00">src/Widgets/TraitDots.h</text>
</g>
<!-- Node2 -->
<g id="node3" class="node"><title>Node2</title>
<a xlink:href="_advantages_widget_8h.html" target="_top" xlink:title="src/Widgets/AdvantagesWidget.h">
<polygon fill="white" stroke="black" points="202.5,-116.5 202.5,-137.5 375.5,-137.5 375.5,-116.5 202.5,-116.5"/>
<text text-anchor="middle" x="289" y="-124.5" font-family="DejaVuSans" font-size="10.00">src/Widgets/AdvantagesWidget.h</text>
</a>
</g>
<!-- Node1&#45;&gt;Node2 -->
<g id="edge2" class="edge"><title>Node1&#45;&gt;Node2</title>
<path fill="none" stroke="midnightblue" d="M499.28,-172.339C450.938,-161.916 383.208,-147.313 337.805,-137.523"/>
<polygon fill="midnightblue" stroke="midnightblue" points="498.773,-175.81 509.286,-174.497 500.248,-168.967 498.773,-175.81"/>
</g>
<!-- Node7 -->
<g id="node13" class="node"><title>Node7</title>
<a xlink:href="_trait_line_8h.html" target="_top" xlink:title="src/Widgets/TraitLine.h">
<polygon fill="white" stroke="black" points="417,-116.5 417,-137.5 539,-137.5 539,-116.5 417,-116.5"/>
<text text-anchor="middle" x="478" y="-124.5" font-family="DejaVuSans" font-size="10.00">src/Widgets/TraitLine.h</text>
</a>
</g>
<!-- Node1&#45;&gt;Node7 -->
<g id="edge12" class="edge"><title>Node1&#45;&gt;Node7</title>
<path fill="none" stroke="midnightblue" d="M534.908,-168.259C521.261,-158.364 504.395,-146.136 492.58,-137.571"/>
<polygon fill="midnightblue" stroke="midnightblue" points="533.176,-171.326 543.327,-174.362 537.285,-165.659 533.176,-171.326"/>
</g>
<!-- Node15 -->
<g id="node30" class="node"><title>Node15</title>
<a xlink:href="_morality_widget_8cpp.html" target="_top" xlink:title="src/Widgets/MoralityWidget.cpp">
<polygon fill="white" stroke="black" points="557,-116.5 557,-137.5 721,-137.5 721,-116.5 557,-116.5"/>
<text text-anchor="middle" x="639" y="-124.5" font-family="DejaVuSans" font-size="10.00">src/Widgets/MoralityWidget.cpp</text>
</a>
</g>
<!-- Node1&#45;&gt;Node15 -->
<g id="edge30" class="edge"><title>Node1&#45;&gt;Node15</title>
<path fill="none" stroke="midnightblue" d="M581.38,-168.259C595.198,-158.364 612.275,-146.136 624.238,-137.571"/>
<polygon fill="midnightblue" stroke="midnightblue" points="578.95,-165.694 572.857,-174.362 583.025,-171.386 578.95,-165.694"/>
</g>
<!-- Node16 -->
<g id="node32" class="node"><title>Node16</title>
<a xlink:href="_trait_dots_8cpp.html" target="_top" xlink:title="src/Widgets/TraitDots.cpp">
<polygon fill="white" stroke="black" points="738.5,-116.5 738.5,-137.5 875.5,-137.5 875.5,-116.5 738.5,-116.5"/>
<text text-anchor="middle" x="807" y="-124.5" font-family="DejaVuSans" font-size="10.00">src/Widgets/TraitDots.cpp</text>
</a>
</g>
<!-- Node1&#45;&gt;Node16 -->
<g id="edge32" class="edge"><title>Node1&#45;&gt;Node16</title>
<path fill="none" stroke="midnightblue" d="M612.917,-172.208C657.627,-161.794 719.972,-147.272 761.823,-137.523"/>
<polygon fill="midnightblue" stroke="midnightblue" points="612.037,-168.819 603.092,-174.497 613.625,-175.637 612.037,-168.819"/>
</g>
<!-- Node3 -->
<g id="node5" class="node"><title>Node3</title>
<a xlink:href="_main_window_8h.html" target="_top" xlink:title="src/MainWindow.h">
<polygon fill="white" stroke="black" points="79,-58.5 79,-79.5 179,-79.5 179,-58.5 79,-58.5"/>
<text text-anchor="middle" x="129" y="-66.5" font-family="DejaVuSans" font-size="10.00">src/MainWindow.h</text>
</a>
</g>
<!-- Node2&#45;&gt;Node3 -->
<g id="edge4" class="edge"><title>Node2&#45;&gt;Node3</title>
<path fill="none" stroke="midnightblue" d="M250.405,-113.009C221.972,-102.702 183.905,-88.903 158.029,-79.5231"/>
<polygon fill="midnightblue" stroke="midnightblue" points="249.431,-116.379 260.025,-116.497 251.817,-109.798 249.431,-116.379"/>
</g>
<!-- Node6 -->
<g id="node11" class="node"><title>Node6</title>
<a xlink:href="_advantages_widget_8cpp.html" target="_top" xlink:title="src/Widgets/AdvantagesWidget.cpp">
<polygon fill="white" stroke="black" points="197,-58.5 197,-79.5 381,-79.5 381,-58.5 197,-58.5"/>
<text text-anchor="middle" x="289" y="-66.5" font-family="DejaVuSans" font-size="10.00">src/Widgets/AdvantagesWidget.cpp</text>
</a>
</g>
<!-- Node2&#45;&gt;Node6 -->
<g id="edge10" class="edge"><title>Node2&#45;&gt;Node6</title>
<path fill="none" stroke="midnightblue" d="M289,-106.191C289,-97.1684 289,-86.9941 289,-79.5707"/>
<polygon fill="midnightblue" stroke="midnightblue" points="285.5,-106.362 289,-116.362 292.5,-106.362 285.5,-106.362"/>
</g>
<!-- Node4 -->
<g id="node7" class="node"><title>Node4</title>
<a xlink:href="main_8cpp.html" target="_top" xlink:title="src/main.cpp">
<polygon fill="white" stroke="black" points="0,-0.5 0,-21.5 78,-21.5 78,-0.5 0,-0.5"/>
<text text-anchor="middle" x="39" y="-8.5" font-family="DejaVuSans" font-size="10.00">src/main.cpp</text>
</a>
</g>
<!-- Node3&#45;&gt;Node4 -->
<g id="edge6" class="edge"><title>Node3&#45;&gt;Node4</title>
<path fill="none" stroke="midnightblue" d="M103.895,-52.8215C88.3933,-42.8312 68.9471,-30.2993 55.4027,-21.5707"/>
<polygon fill="midnightblue" stroke="midnightblue" points="102.191,-55.8869 112.493,-58.3619 105.983,-50.0028 102.191,-55.8869"/>
</g>
<!-- Node5 -->
<g id="node9" class="node"><title>Node5</title>
<a xlink:href="_main_window_8cpp.html" target="_top" xlink:title="src/MainWindow.cpp">
<polygon fill="white" stroke="black" points="95.5,-0.5 95.5,-21.5 206.5,-21.5 206.5,-0.5 95.5,-0.5"/>
<text text-anchor="middle" x="151" y="-8.5" font-family="DejaVuSans" font-size="10.00">src/MainWindow.cpp</text>
</a>
</g>
<!-- Node3&#45;&gt;Node5 -->
<g id="edge8" class="edge"><title>Node3&#45;&gt;Node5</title>
<path fill="none" stroke="midnightblue" d="M136.668,-48.7838C140.145,-39.617 144.113,-29.1572 146.99,-21.5707"/>
<polygon fill="midnightblue" stroke="midnightblue" points="133.309,-47.7706 133.035,-58.3619 139.854,-50.2532 133.309,-47.7706"/>
</g>
<!-- Node7&#45;&gt;Node5 -->
<g id="edge14" class="edge"><title>Node7&#45;&gt;Node5</title>
<path fill="none" stroke="midnightblue" d="M460.666,-109.275C444.034,-93.3439 417.455,-70.5769 390,-58 373.516,-50.4489 271.856,-31.9217 206.54,-20.5136"/>
<polygon fill="midnightblue" stroke="midnightblue" points="458.406,-111.96 467.992,-116.472 463.311,-106.967 458.406,-111.96"/>
</g>
<!-- Node8 -->
<g id="node16" class="node"><title>Node8</title>
<a xlink:href="_chara_trait_8h.html" target="_top" xlink:title="src/Widgets/CharaTrait.h">
<polygon fill="white" stroke="black" points="436.5,-58.5 436.5,-79.5 567.5,-79.5 567.5,-58.5 436.5,-58.5"/>
<text text-anchor="middle" x="502" y="-66.5" font-family="DejaVuSans" font-size="10.00">src/Widgets/CharaTrait.h</text>
</a>
</g>
<!-- Node7&#45;&gt;Node8 -->
<g id="edge16" class="edge"><title>Node7&#45;&gt;Node8</title>
<path fill="none" stroke="midnightblue" d="M486.243,-107.079C490.065,-97.8422 494.453,-87.2388 497.626,-79.5707"/>
<polygon fill="midnightblue" stroke="midnightblue" points="482.991,-105.783 482.402,-116.362 489.46,-108.46 482.991,-105.783"/>
</g>
<!-- Node14 -->
<g id="node28" class="node"><title>Node14</title>
<a xlink:href="_trait_line_8cpp.html" target="_top" xlink:title="src/Widgets/TraitLine.cpp">
<polygon fill="white" stroke="black" points="585,-58.5 585,-79.5 719,-79.5 719,-58.5 585,-58.5"/>
<text text-anchor="middle" x="652" y="-66.5" font-family="DejaVuSans" font-size="10.00">src/Widgets/TraitLine.cpp</text>
</a>
</g>
<!-- Node7&#45;&gt;Node14 -->
<g id="edge28" class="edge"><title>Node7&#45;&gt;Node14</title>
<path fill="none" stroke="midnightblue" d="M519.164,-113.279C550.169,-102.944 592.045,-88.9849 620.431,-79.5231"/>
<polygon fill="midnightblue" stroke="midnightblue" points="517.89,-110.014 509.51,-116.497 520.104,-116.655 517.89,-110.014"/>
</g>
<!-- Node9 -->
<g id="node18" class="node"><title>Node9</title>
<a xlink:href="_attribute_widget_8cpp.html" target="_top" xlink:title="src/Widgets/AttributeWidget.cpp">
<polygon fill="white" stroke="black" points="223.5,-0.5 223.5,-21.5 392.5,-21.5 392.5,-0.5 223.5,-0.5"/>
<text text-anchor="middle" x="308" y="-8.5" font-family="DejaVuSans" font-size="10.00">src/Widgets/AttributeWidget.cpp</text>
</a>
</g>
<!-- Node8&#45;&gt;Node9 -->
<g id="edge18" class="edge"><title>Node8&#45;&gt;Node9</title>
<path fill="none" stroke="midnightblue" d="M457,-55.5464C422.345,-45.1857 375.12,-31.0668 343.198,-21.5231"/>
<polygon fill="midnightblue" stroke="midnightblue" points="456.285,-58.9855 466.868,-58.4966 458.29,-52.2788 456.285,-58.9855"/>
</g>
<!-- Node10 -->
<g id="node20" class="node"><title>Node10</title>
<a xlink:href="_chara_trait_8cpp.html" target="_top" xlink:title="src/Widgets/CharaTrait.cpp">
<polygon fill="white" stroke="black" points="409.5,-0.5 409.5,-21.5 552.5,-21.5 552.5,-0.5 409.5,-0.5"/>
<text text-anchor="middle" x="481" y="-8.5" font-family="DejaVuSans" font-size="10.00">src/Widgets/CharaTrait.cpp</text>
</a>
</g>
<!-- Node8&#45;&gt;Node10 -->
<g id="edge20" class="edge"><title>Node8&#45;&gt;Node10</title>
<path fill="none" stroke="midnightblue" d="M494.68,-48.7838C491.361,-39.617 487.574,-29.1572 484.827,-21.5707"/>
<polygon fill="midnightblue" stroke="midnightblue" points="491.453,-50.1508 498.148,-58.3619 498.035,-47.7677 491.453,-50.1508"/>
</g>
<!-- Node11 -->
<g id="node22" class="node"><title>Node11</title>
<a xlink:href="_merit_widget_8cpp.html" target="_top" xlink:title="src/Widgets/MeritWidget.cpp">
<polygon fill="white" stroke="black" points="569.5,-0.5 569.5,-21.5 720.5,-21.5 720.5,-0.5 569.5,-0.5"/>
<text text-anchor="middle" x="645" y="-8.5" font-family="DejaVuSans" font-size="10.00">src/Widgets/MeritWidget.cpp</text>
</a>
</g>
<!-- Node8&#45;&gt;Node11 -->
<g id="edge22" class="edge"><title>Node8&#45;&gt;Node11</title>
<path fill="none" stroke="midnightblue" d="M537.466,-54.6153C562.679,-44.3889 595.987,-30.8796 618.813,-21.6212"/>
<polygon fill="midnightblue" stroke="midnightblue" points="535.847,-51.4946 527.896,-58.4966 538.479,-57.9814 535.847,-51.4946"/>
</g>
<!-- Node12 -->
<g id="node24" class="node"><title>Node12</title>
<a xlink:href="_power_widget_8cpp.html" target="_top" xlink:title="src/Widgets/PowerWidget.cpp">
<polygon fill="white" stroke="black" points="737.5,-0.5 737.5,-21.5 892.5,-21.5 892.5,-0.5 737.5,-0.5"/>
<text text-anchor="middle" x="815" y="-8.5" font-family="DejaVuSans" font-size="10.00">src/Widgets/PowerWidget.cpp</text>
</a>
</g>
<!-- Node8&#45;&gt;Node12 -->
<g id="edge24" class="edge"><title>Node8&#45;&gt;Node12</title>
<path fill="none" stroke="midnightblue" d="M568.567,-56.6648C624.923,-46.222 704.83,-31.415 758.212,-21.5231"/>
<polygon fill="midnightblue" stroke="midnightblue" points="567.877,-53.2331 558.682,-58.4966 569.152,-60.116 567.877,-53.2331"/>
</g>
<!-- Node13 -->
<g id="node26" class="node"><title>Node13</title>
<a xlink:href="_skill_widget_8cpp.html" target="_top" xlink:title="src/Widgets/SkillWidget.cpp">
<polygon fill="white" stroke="black" points="910,-0.5 910,-21.5 1056,-21.5 1056,-0.5 910,-0.5"/>
<text text-anchor="middle" x="983" y="-8.5" font-family="DejaVuSans" font-size="10.00">src/Widgets/SkillWidget.cpp</text>
</a>
</g>
<!-- Node8&#45;&gt;Node13 -->
<g id="edge26" class="edge"><title>Node8&#45;&gt;Node13</title>
<path fill="none" stroke="midnightblue" d="M577.844,-57.7935C721.821,-39.3194 759.989,-39.2655 901,-22 903.851,-21.6509 906.758,-21.2891 909.693,-20.9189"/>
<polygon fill="midnightblue" stroke="midnightblue" points="577.219,-54.3451 567.75,-59.0966 578.116,-61.2875 577.219,-54.3451"/>
</g>
</g>
</svg>
