<?xml version="1.0" encoding="UTF-8" standalone="no"?>
<!DOCTYPE svg PUBLIC "-//W3C//DTD SVG 1.1//EN"
 "http://www.w3.org/Graphics/SVG/1.1/DTD/svg11.dtd">
<!-- Generated by graphviz version 2.26.3 (20100126.1600)
 -->
<!-- Title: G Pages: 1 -->
<svg width="552pt" height="320pt"
 viewBox="0.00 0.00 552.00 320.00" xmlns="http://www.w3.org/2000/svg" xmlns:xlink="http://www.w3.org/1999/xlink">
<g id="graph1" class="graph" transform="scale(1 1) rotate(0) translate(4 316)">
<title>G</title>
<polygon fill="white" stroke="white" points="-4,5 -4,-316 549,-316 549,5 -4,5"/>
<!-- Node1 -->
<g id="node1" class="node"><title>Node1</title>
<polygon fill="#bfbfbf" stroke="black" points="148,-290.5 148,-311.5 274,-311.5 274,-290.5 148,-290.5"/>
<text text-anchor="middle" x="211" y="-298.5" font-family="DejaVuSans" font-size="10.00">src/Datatypes/Trait.cpp</text>
</g>
<!-- Node2 -->
<g id="node3" class="node"><title>Node2</title>
<polygon fill="white" stroke="#bfbfbf" points="0,-232.5 0,-253.5 56,-253.5 56,-232.5 0,-232.5"/>
<text text-anchor="middle" x="28" y="-240.5" font-family="DejaVuSans" font-size="10.00">QDebug</text>
</g>
<!-- Node1&#45;&gt;Node2 -->
<g id="edge2" class="edge"><title>Node1&#45;&gt;Node2</title>
<path fill="none" stroke="midnightblue" d="M177.86,-290.497C146.31,-280.497 98.8724,-265.462 65.8496,-254.996"/>
<polygon fill="midnightblue" stroke="midnightblue" points="66.6876,-251.59 56.0974,-251.905 64.5727,-258.263 66.6876,-251.59"/>
</g>
<!-- Node3 -->
<g id="node5" class="node"><title>Node3</title>
<polygon fill="white" stroke="#bfbfbf" points="73.5,-232.5 73.5,-253.5 200.5,-253.5 200.5,-232.5 73.5,-232.5"/>
<text text-anchor="middle" x="137" y="-240.5" font-family="DejaVuSans" font-size="10.00">Exceptions/Exception.h</text>
</g>
<!-- Node1&#45;&gt;Node3 -->
<g id="edge4" class="edge"><title>Node1&#45;&gt;Node3</title>
<path fill="none" stroke="midnightblue" d="M197.427,-290.362C186.579,-281.859 171.166,-269.779 158.621,-259.947"/>
<polygon fill="midnightblue" stroke="midnightblue" points="160.516,-256.985 150.487,-253.571 156.198,-262.494 160.516,-256.985"/>
</g>
<!-- Node4 -->
<g id="node7" class="node"><title>Node4</title>
<polygon fill="white" stroke="#bfbfbf" points="217.5,-232.5 217.5,-253.5 354.5,-253.5 354.5,-232.5 217.5,-232.5"/>
<text text-anchor="middle" x="286" y="-240.5" font-family="DejaVuSans" font-size="10.00">Parser/StringBoolParser.h</text>
</g>
<!-- Node1&#45;&gt;Node4 -->
<g id="edge6" class="edge"><title>Node1&#45;&gt;Node4</title>
<path fill="none" stroke="midnightblue" d="M224.756,-290.362C235.751,-281.859 251.373,-269.779 264.086,-259.947"/>
<polygon fill="midnightblue" stroke="midnightblue" points="266.562,-262.457 272.331,-253.571 262.279,-256.919 266.562,-262.457"/>
</g>
<!-- Node5 -->
<g id="node9" class="node"><title>Node5</title>
<a xlink:href="_trait_8h.html" target="_top" xlink:title="Trait.h">
<polygon fill="white" stroke="black" points="371.5,-232.5 371.5,-253.5 416.5,-253.5 416.5,-232.5 371.5,-232.5"/>
<text text-anchor="middle" x="394" y="-240.5" font-family="DejaVuSans" font-size="10.00">Trait.h</text>
</a>
</g>
<!-- Node1&#45;&gt;Node5 -->
<g id="edge8" class="edge"><title>Node1&#45;&gt;Node5</title>
<path fill="none" stroke="midnightblue" d="M246.451,-290.488C275.29,-281.837 317.248,-269.024 361.806,-254.323"/>
<polygon fill="midnightblue" stroke="midnightblue" points="362.96,-257.628 371.35,-251.158 360.757,-250.984 362.96,-257.628"/>
</g>
<!-- Node6 -->
<g id="node11" class="node"><title>Node6</title>
<a xlink:href="cv___trait_8h.html" target="_top" xlink:title="cv_Trait.h">
<polygon fill="white" stroke="black" points="325.5,-174.5 325.5,-195.5 386.5,-195.5 386.5,-174.5 325.5,-174.5"/>
<text text-anchor="middle" x="356" y="-182.5" font-family="DejaVuSans" font-size="10.00">cv_Trait.h</text>
</a>
</g>
<!-- Node5&#45;&gt;Node6 -->
<g id="edge10" class="edge"><title>Node5&#45;&gt;Node6</title>
<path fill="none" stroke="midnightblue" d="M387.03,-232.362C381.834,-224.431 374.599,-213.389 368.422,-203.961"/>
<polygon fill="midnightblue" stroke="midnightblue" points="371.334,-202.017 362.926,-195.571 365.478,-205.853 371.334,-202.017"/>
</g>
<!-- Node14 -->
<g id="node29" class="node"><title>Node14</title>
<polygon fill="white" stroke="#bfbfbf" points="403.5,-174.5 403.5,-195.5 458.5,-195.5 458.5,-174.5 403.5,-174.5"/>
<text text-anchor="middle" x="431" y="-182.5" font-family="DejaVuSans" font-size="10.00">QObject</text>
</g>
<!-- Node5&#45;&gt;Node14 -->
<g id="edge30" class="edge"><title>Node5&#45;&gt;Node14</title>
<path fill="none" stroke="midnightblue" d="M400.786,-232.362C405.793,-224.513 412.745,-213.616 418.718,-204.253"/>
<polygon fill="midnightblue" stroke="midnightblue" points="421.829,-205.884 424.257,-195.571 415.928,-202.119 421.829,-205.884"/>
</g>
<!-- Node7 -->
<g id="node13" class="node"><title>Node7</title>
<polygon fill="white" stroke="#bfbfbf" points="245.5,-116.5 245.5,-137.5 294.5,-137.5 294.5,-116.5 245.5,-116.5"/>
<text text-anchor="middle" x="270" y="-124.5" font-family="DejaVuSans" font-size="10.00">QFlags</text>
</g>
<!-- Node6&#45;&gt;Node7 -->
<g id="edge12" class="edge"><title>Node6&#45;&gt;Node7</title>
<path fill="none" stroke="midnightblue" d="M340.226,-174.362C327.376,-165.696 309.015,-153.313 294.29,-143.382"/>
<polygon fill="midnightblue" stroke="midnightblue" points="295.921,-140.26 285.674,-137.571 292.007,-146.064 295.921,-140.26"/>
</g>
<!-- Node8 -->
<g id="node15" class="node"><title>Node8</title>
<a xlink:href="cv___trait_detail_8h.html" target="_top" xlink:title="cv_TraitDetail.h">
<polygon fill="white" stroke="black" points="311.5,-116.5 311.5,-137.5 400.5,-137.5 400.5,-116.5 311.5,-116.5"/>
<text text-anchor="middle" x="356" y="-124.5" font-family="DejaVuSans" font-size="10.00">cv_TraitDetail.h</text>
</a>
</g>
<!-- Node6&#45;&gt;Node8 -->
<g id="edge14" class="edge"><title>Node6&#45;&gt;Node8</title>
<path fill="none" stroke="midnightblue" d="M356,-174.362C356,-166.922 356,-156.743 356,-147.728"/>
<polygon fill="midnightblue" stroke="midnightblue" points="359.5,-147.571 356,-137.571 352.5,-147.571 359.5,-147.571"/>
</g>
<!-- Node12 -->
<g id="node23" class="node"><title>Node12</title>
<a xlink:href="cv___abstract_trait_8h.html" target="_top" xlink:title="cv_AbstractTrait.h">
<polygon fill="white" stroke="black" points="417.5,-116.5 417.5,-137.5 518.5,-137.5 518.5,-116.5 417.5,-116.5"/>
<text text-anchor="middle" x="468" y="-124.5" font-family="DejaVuSans" font-size="10.00">cv_AbstractTrait.h</text>
</a>
</g>
<!-- Node6&#45;&gt;Node12 -->
<g id="edge22" class="edge"><title>Node6&#45;&gt;Node12</title>
<path fill="none" stroke="midnightblue" d="M376.282,-174.497C393.618,-165.519 418.79,-152.484 438.38,-142.339"/>
<polygon fill="midnightblue" stroke="midnightblue" points="440.22,-145.328 447.49,-137.621 437.001,-139.112 440.22,-145.328"/>
</g>
<!-- Node9 -->
<g id="node17" class="node"><title>Node9</title>
<polygon fill="white" stroke="#bfbfbf" points="372.5,-0.5 372.5,-21.5 425.5,-21.5 425.5,-0.5 372.5,-0.5"/>
<text text-anchor="middle" x="399" y="-8.5" font-family="DejaVuSans" font-size="10.00">QString</text>
</g>
<!-- Node8&#45;&gt;Node9 -->
<g id="edge16" class="edge"><title>Node8&#45;&gt;Node9</title>
<path fill="none" stroke="midnightblue" d="M341.149,-116.333C324.284,-102.851 300.616,-78.8814 313,-58 323.815,-39.7646 344.477,-28.1459 362.837,-21.023"/>
<polygon fill="midnightblue" stroke="midnightblue" points="364.194,-24.2551 372.443,-17.6059 361.848,-17.66 364.194,-24.2551"/>
</g>
<!-- Node10 -->
<g id="node19" class="node"><title>Node10</title>
<polygon fill="white" stroke="#bfbfbf" points="407.5,-58.5 407.5,-79.5 448.5,-79.5 448.5,-58.5 407.5,-58.5"/>
<text text-anchor="middle" x="428" y="-66.5" font-family="DejaVuSans" font-size="10.00">QList</text>
</g>
<!-- Node8&#45;&gt;Node10 -->
<g id="edge18" class="edge"><title>Node8&#45;&gt;Node10</title>
<path fill="none" stroke="midnightblue" d="M369.206,-116.362C379.761,-107.859 394.758,-95.7785 406.963,-85.9466"/>
<polygon fill="midnightblue" stroke="midnightblue" points="409.286,-88.5696 414.878,-79.5707 404.895,-83.1183 409.286,-88.5696"/>
</g>
<!-- Node11 -->
<g id="node21" class="node"><title>Node11</title>
<polygon fill="white" stroke="#bfbfbf" points="321.5,-58.5 321.5,-79.5 390.5,-79.5 390.5,-58.5 321.5,-58.5"/>
<text text-anchor="middle" x="356" y="-66.5" font-family="DejaVuSans" font-size="10.00">QStringList</text>
</g>
<!-- Node8&#45;&gt;Node11 -->
<g id="edge20" class="edge"><title>Node8&#45;&gt;Node11</title>
<path fill="none" stroke="midnightblue" d="M356,-116.362C356,-108.922 356,-98.7427 356,-89.7276"/>
<polygon fill="midnightblue" stroke="midnightblue" points="359.5,-89.5706 356,-79.5707 352.5,-89.5707 359.5,-89.5706"/>
</g>
<!-- Node12&#45;&gt;Node10 -->
<g id="edge24" class="edge"><title>Node12&#45;&gt;Node10</title>
<path fill="none" stroke="midnightblue" d="M460.663,-116.362C455.194,-108.431 447.578,-97.3885 441.076,-87.9606"/>
<polygon fill="midnightblue" stroke="midnightblue" points="443.849,-85.8157 435.29,-79.5707 438.086,-89.7899 443.849,-85.8157"/>
</g>
<!-- Node13 -->
<g id="node26" class="node"><title>Node13</title>
<a xlink:href="cv___species_8h.html" target="_top" xlink:title="cv_Species.h">
<polygon fill="white" stroke="black" points="465.5,-58.5 465.5,-79.5 544.5,-79.5 544.5,-58.5 465.5,-58.5"/>
<text text-anchor="middle" x="505" y="-66.5" font-family="DejaVuSans" font-size="10.00">cv_Species.h</text>
</a>
</g>
<!-- Node12&#45;&gt;Node13 -->
<g id="edge26" class="edge"><title>Node12&#45;&gt;Node13</title>
<path fill="none" stroke="midnightblue" d="M474.786,-116.362C479.793,-108.513 486.745,-97.6159 492.718,-88.2527"/>
<polygon fill="midnightblue" stroke="midnightblue" points="495.829,-89.8837 498.257,-79.5707 489.928,-86.1189 495.829,-89.8837"/>
</g>
<!-- Node13&#45;&gt;Node9 -->
<g id="edge28" class="edge"><title>Node13&#45;&gt;Node9</title>
<path fill="none" stroke="midnightblue" d="M485.558,-58.3619C469.196,-49.4094 445.587,-36.4908 427.157,-26.4064"/>
<polygon fill="midnightblue" stroke="midnightblue" points="428.771,-23.3004 418.319,-21.5707 425.411,-29.4412 428.771,-23.3004"/>
</g>
</g>
</svg>
