<?xml version="1.0" encoding="UTF-8" standalone="no"?>
<!DOCTYPE svg PUBLIC "-//W3C//DTD SVG 1.1//EN"
 "http://www.w3.org/Graphics/SVG/1.1/DTD/svg11.dtd">
<!-- Generated by graphviz version 2.26.3 (20100126.1600)
 -->
<!-- Title: G Pages: 1 -->
<svg width="318pt" height="204pt"
 viewBox="0.00 0.00 318.00 204.00" xmlns="http://www.w3.org/2000/svg" xmlns:xlink="http://www.w3.org/1999/xlink">
<g id="graph1" class="graph" transform="scale(1 1) rotate(0) translate(4 200)">
<title>G</title>
<polygon fill="white" stroke="white" points="-4,5 -4,-200 315,-200 315,5 -4,5"/>
<!-- Node1 -->
<g id="node1" class="node"><title>Node1</title>
<polygon fill="#bfbfbf" stroke="black" points="10,-174.5 10,-195.5 176,-195.5 176,-174.5 10,-174.5"/>
<text text-anchor="middle" x="93" y="-182.5" font-family="DejaVuSans" font-size="10.00">src/Widgets/TraitSpecialties.cpp</text>
</g>
<!-- Node2 -->
<g id="node3" class="node"><title>Node2</title>
<polygon fill="white" stroke="#bfbfbf" points="18,-116.5 18,-137.5 74,-137.5 74,-116.5 18,-116.5"/>
<text text-anchor="middle" x="46" y="-124.5" font-family="DejaVuSans" font-size="10.00">QDebug</text>
</g>
<!-- Node1&#45;&gt;Node2 -->
<g id="edge2" class="edge"><title>Node1&#45;&gt;Node2</title>
<path fill="none" stroke="midnightblue" d="M84.3795,-174.362C77.8205,-166.268 68.6344,-154.932 60.8938,-145.38"/>
<polygon fill="midnightblue" stroke="midnightblue" points="63.581,-143.136 54.5659,-137.571 58.1425,-147.544 63.581,-143.136"/>
</g>
<!-- Node3 -->
<g id="node5" class="node"><title>Node3</title>
<a xlink:href="_trait_specialties_8h.html" target="_top" xlink:title="TraitSpecialties.h">
<polygon fill="white" stroke="black" points="91.5,-116.5 91.5,-137.5 188.5,-137.5 188.5,-116.5 91.5,-116.5"/>
<text text-anchor="middle" x="140" y="-124.5" font-family="DejaVuSans" font-size="10.00">TraitSpecialties.h</text>
</a>
</g>
<!-- Node1&#45;&gt;Node3 -->
<g id="edge4" class="edge"><title>Node1&#45;&gt;Node3</title>
<path fill="none" stroke="midnightblue" d="M101.621,-174.362C108.18,-166.268 117.366,-154.932 125.106,-145.38"/>
<polygon fill="midnightblue" stroke="midnightblue" points="127.858,-147.544 131.434,-137.571 122.419,-143.136 127.858,-147.544"/>
</g>
<!-- Node4 -->
<g id="node7" class="node"><title>Node4</title>
<polygon fill="white" stroke="#bfbfbf" points="-0.5,-58.5 -0.5,-79.5 52.5,-79.5 52.5,-58.5 -0.5,-58.5"/>
<text text-anchor="middle" x="26" y="-66.5" font-family="DejaVuSans" font-size="10.00">QString</text>
</g>
<!-- Node3&#45;&gt;Node4 -->
<g id="edge6" class="edge"><title>Node3&#45;&gt;Node4</title>
<path fill="none" stroke="midnightblue" d="M119.355,-116.497C101.63,-107.479 75.8552,-94.3649 55.877,-84.2006"/>
<polygon fill="midnightblue" stroke="midnightblue" points="57.3761,-81.0364 46.8762,-79.6212 54.2019,-87.2753 57.3761,-81.0364"/>
</g>
<!-- Node5 -->
<g id="node9" class="node"><title>Node5</title>
<polygon fill="white" stroke="#bfbfbf" points="69.5,-58.5 69.5,-79.5 210.5,-79.5 210.5,-58.5 69.5,-58.5"/>
<text text-anchor="middle" x="140" y="-66.5" font-family="DejaVuSans" font-size="10.00">Datatypes/cv_TraitDetail.h</text>
</g>
<!-- Node3&#45;&gt;Node5 -->
<g id="edge8" class="edge"><title>Node3&#45;&gt;Node5</title>
<path fill="none" stroke="midnightblue" d="M140,-116.362C140,-108.922 140,-98.7427 140,-89.7276"/>
<polygon fill="midnightblue" stroke="midnightblue" points="143.5,-89.5706 140,-79.5707 136.5,-89.5707 143.5,-89.5706"/>
</g>
<!-- Node6 -->
<g id="node11" class="node"><title>Node6</title>
<a xlink:href="_checked_list_8h.html" target="_top" xlink:title="CheckedList.h">
<polygon fill="white" stroke="black" points="227.5,-58.5 227.5,-79.5 310.5,-79.5 310.5,-58.5 227.5,-58.5"/>
<text text-anchor="middle" x="269" y="-66.5" font-family="DejaVuSans" font-size="10.00">CheckedList.h</text>
</a>
</g>
<!-- Node3&#45;&gt;Node6 -->
<g id="edge10" class="edge"><title>Node3&#45;&gt;Node6</title>
<path fill="none" stroke="midnightblue" d="M163.361,-116.497C183.691,-107.356 213.378,-94.0082 236.109,-83.7883"/>
<polygon fill="midnightblue" stroke="midnightblue" points="237.692,-86.9142 245.377,-79.6212 234.821,-80.5298 237.692,-86.9142"/>
</g>
<!-- Node7 -->
<g id="node13" class="node"><title>Node7</title>
<polygon fill="white" stroke="#bfbfbf" points="232.5,-0.5 232.5,-21.5 305.5,-21.5 305.5,-0.5 232.5,-0.5"/>
<text text-anchor="middle" x="269" y="-8.5" font-family="DejaVuSans" font-size="10.00">QListWidget</text>
</g>
<!-- Node6&#45;&gt;Node7 -->
<g id="edge12" class="edge"><title>Node6&#45;&gt;Node7</title>
<path fill="none" stroke="midnightblue" d="M269,-58.3619C269,-50.9219 269,-40.7427 269,-31.7276"/>
<polygon fill="midnightblue" stroke="midnightblue" points="272.5,-31.5706 269,-21.5707 265.5,-31.5707 272.5,-31.5706"/>
</g>
</g>
</svg>
