<?xml version="1.0" encoding="UTF-8" standalone="no"?>
<!DOCTYPE svg PUBLIC "-//W3C//DTD SVG 1.1//EN"
 "http://www.w3.org/Graphics/SVG/1.1/DTD/svg11.dtd">
<!-- Generated by graphviz version 2.26.3 (20100126.1600)
 -->
<!-- Title: G Pages: 1 -->
<svg width="722pt" height="262pt"
 viewBox="0.00 0.00 722.00 262.00" xmlns="http://www.w3.org/2000/svg" xmlns:xlink="http://www.w3.org/1999/xlink">
<g id="graph1" class="graph" transform="scale(1 1) rotate(0) translate(4 258)">
<title>G</title>
<polygon fill="white" stroke="white" points="-4,5 -4,-258 719,-258 719,5 -4,5"/>
<!-- Node1 -->
<g id="node1" class="node"><title>Node1</title>
<polygon fill="#bfbfbf" stroke="black" points="312,-232.5 312,-253.5 434,-253.5 434,-232.5 312,-232.5"/>
<text text-anchor="middle" x="373" y="-240.5" font-family="DejaVuSans" font-size="10.00">src/Widgets/TraitLine.h</text>
</g>
<!-- Node2 -->
<g id="node3" class="node"><title>Node2</title>
<polygon fill="white" stroke="#bfbfbf" points="-0.5,-58.5 -0.5,-79.5 68.5,-79.5 68.5,-58.5 -0.5,-58.5"/>
<text text-anchor="middle" x="34" y="-66.5" font-family="DejaVuSans" font-size="10.00">QStringList</text>
</g>
<!-- Node1&#45;&gt;Node2 -->
<g id="edge2" class="edge"><title>Node1&#45;&gt;Node2</title>
<path fill="none" stroke="midnightblue" d="M311.883,-236.528C242.482,-228.495 134.076,-213.673 97,-196 61.7496,-179.197 47.0982,-173.578 31,-138 24.1463,-122.853 25.5969,-103.872 28.3668,-89.6541"/>
<polygon fill="midnightblue" stroke="midnightblue" points="31.7905,-90.3829 30.6265,-79.8523 24.9695,-88.8104 31.7905,-90.3829"/>
</g>
<!-- Node3 -->
<g id="node5" class="node"><title>Node3</title>
<polygon fill="white" stroke="#bfbfbf" points="386,-174.5 386,-195.5 468,-195.5 468,-174.5 386,-174.5"/>
<text text-anchor="middle" x="427" y="-182.5" font-family="DejaVuSans" font-size="10.00">QHBoxLayout</text>
</g>
<!-- Node1&#45;&gt;Node3 -->
<g id="edge4" class="edge"><title>Node1&#45;&gt;Node3</title>
<path fill="none" stroke="midnightblue" d="M382.904,-232.362C390.516,-224.186 401.208,-212.702 410.157,-203.091"/>
<polygon fill="midnightblue" stroke="midnightblue" points="412.906,-205.275 417.158,-195.571 407.783,-200.505 412.906,-205.275"/>
</g>
<!-- Node4 -->
<g id="node7" class="node"><title>Node4</title>
<polygon fill="white" stroke="#bfbfbf" points="486,-174.5 486,-195.5 536,-195.5 536,-174.5 486,-174.5"/>
<text text-anchor="middle" x="511" y="-182.5" font-family="DejaVuSans" font-size="10.00">QLabel</text>
</g>
<!-- Node1&#45;&gt;Node4 -->
<g id="edge6" class="edge"><title>Node1&#45;&gt;Node4</title>
<path fill="none" stroke="midnightblue" d="M397.991,-232.497C419.933,-223.275 452.066,-209.769 476.464,-199.515"/>
<polygon fill="midnightblue" stroke="midnightblue" points="477.866,-202.722 485.729,-195.621 475.154,-196.269 477.866,-202.722"/>
</g>
<!-- Node5 -->
<g id="node9" class="node"><title>Node5</title>
<polygon fill="white" stroke="#bfbfbf" points="554,-174.5 554,-195.5 634,-195.5 634,-174.5 554,-174.5"/>
<text text-anchor="middle" x="594" y="-182.5" font-family="DejaVuSans" font-size="10.00">QPushButton</text>
</g>
<!-- Node1&#45;&gt;Node5 -->
<g id="edge8" class="edge"><title>Node1&#45;&gt;Node5</title>
<path fill="none" stroke="midnightblue" d="M413.021,-232.497C449.83,-222.836 504.546,-208.477 544.174,-198.077"/>
<polygon fill="midnightblue" stroke="midnightblue" points="545.12,-201.447 553.904,-195.523 543.343,-194.676 545.12,-201.447"/>
</g>
<!-- Node6 -->
<g id="node11" class="node"><title>Node6</title>
<polygon fill="white" stroke="#bfbfbf" points="652,-174.5 652,-195.5 714,-195.5 714,-174.5 652,-174.5"/>
<text text-anchor="middle" x="683" y="-182.5" font-family="DejaVuSans" font-size="10.00">QLineEdit</text>
</g>
<!-- Node1&#45;&gt;Node6 -->
<g id="edge10" class="edge"><title>Node1&#45;&gt;Node6</title>
<path fill="none" stroke="midnightblue" d="M434.185,-234.066C486.872,-225.983 565.108,-213.053 641.799,-196.127"/>
<polygon fill="midnightblue" stroke="midnightblue" points="642.631,-199.527 651.629,-193.933 641.106,-192.696 642.631,-199.527"/>
</g>
<!-- Node7 -->
<g id="node13" class="node"><title>Node7</title>
<a xlink:href="_trait_dots_8h.html" target="_top" xlink:title="TraitDots.h">
<polygon fill="white" stroke="black" points="106,-174.5 106,-195.5 174,-195.5 174,-174.5 106,-174.5"/>
<text text-anchor="middle" x="140" y="-182.5" font-family="DejaVuSans" font-size="10.00">TraitDots.h</text>
</a>
</g>
<!-- Node1&#45;&gt;Node7 -->
<g id="edge12" class="edge"><title>Node1&#45;&gt;Node7</title>
<path fill="none" stroke="midnightblue" d="M330.805,-232.497C289.284,-222.161 226.15,-206.445 184.011,-195.956"/>
<polygon fill="midnightblue" stroke="midnightblue" points="184.853,-192.558 174.304,-193.539 183.162,-199.351 184.853,-192.558"/>
</g>
<!-- Node11 -->
<g id="node21" class="node"><title>Node11</title>
<polygon fill="white" stroke="#bfbfbf" points="183,-116.5 183,-137.5 239,-137.5 239,-116.5 183,-116.5"/>
<text text-anchor="middle" x="211" y="-124.5" font-family="DejaVuSans" font-size="10.00">QWidget</text>
</g>
<!-- Node1&#45;&gt;Node11 -->
<g id="edge42" class="edge"><title>Node1&#45;&gt;Node11</title>
<path fill="none" stroke="midnightblue" d="M335.768,-232.498C313.153,-224.87 284.582,-212.902 263,-196 245.756,-182.495 231.266,-161.949 221.999,-146.786"/>
<polygon fill="midnightblue" stroke="midnightblue" points="224.764,-144.584 216.686,-137.728 218.726,-148.125 224.764,-144.584"/>
</g>
<!-- Node12 -->
<g id="node23" class="node"><title>Node12</title>
<a xlink:href="_trait_specialties_8h.html" target="_top" xlink:title="TraitSpecialties.h">
<polygon fill="white" stroke="black" points="271.5,-174.5 271.5,-195.5 368.5,-195.5 368.5,-174.5 271.5,-174.5"/>
<text text-anchor="middle" x="320" y="-182.5" font-family="DejaVuSans" font-size="10.00">TraitSpecialties.h</text>
</a>
</g>
<!-- Node1&#45;&gt;Node12 -->
<g id="edge22" class="edge"><title>Node1&#45;&gt;Node12</title>
<path fill="none" stroke="midnightblue" d="M363.279,-232.362C355.808,-224.186 345.314,-212.702 336.531,-203.091"/>
<polygon fill="midnightblue" stroke="midnightblue" points="338.989,-200.592 329.659,-195.571 333.821,-205.314 338.989,-200.592"/>
</g>
<!-- Node8 -->
<g id="node15" class="node"><title>Node8</title>
<polygon fill="white" stroke="#bfbfbf" points="48.5,-116.5 48.5,-137.5 97.5,-137.5 97.5,-116.5 48.5,-116.5"/>
<text text-anchor="middle" x="73" y="-124.5" font-family="DejaVuSans" font-size="10.00">QColor</text>
</g>
<!-- Node7&#45;&gt;Node8 -->
<g id="edge14" class="edge"><title>Node7&#45;&gt;Node8</title>
<path fill="none" stroke="midnightblue" d="M127.711,-174.362C117.983,-165.941 104.202,-154.011 92.9045,-144.231"/>
<polygon fill="midnightblue" stroke="midnightblue" points="95.0623,-141.469 85.2109,-137.571 90.4808,-146.762 95.0623,-141.469"/>
</g>
<!-- Node9 -->
<g id="node17" class="node"><title>Node9</title>
<polygon fill="white" stroke="#bfbfbf" points="187.5,-58.5 187.5,-79.5 228.5,-79.5 228.5,-58.5 187.5,-58.5"/>
<text text-anchor="middle" x="208" y="-66.5" font-family="DejaVuSans" font-size="10.00">QList</text>
</g>
<!-- Node7&#45;&gt;Node9 -->
<g id="edge16" class="edge"><title>Node7&#45;&gt;Node9</title>
<path fill="none" stroke="midnightblue" d="M105.737,-176.349C68.9369,-165.373 18.4552,-144.399 40,-116 56.5302,-94.2106 133.355,-79.7727 177.171,-73.1586"/>
<polygon fill="midnightblue" stroke="midnightblue" points="177.895,-76.5902 187.284,-71.6824 176.883,-69.6636 177.895,-76.5902"/>
</g>
<!-- Node10 -->
<g id="node19" class="node"><title>Node10</title>
<polygon fill="white" stroke="#bfbfbf" points="114.5,-116.5 114.5,-137.5 165.5,-137.5 165.5,-116.5 114.5,-116.5"/>
<text text-anchor="middle" x="140" y="-124.5" font-family="DejaVuSans" font-size="10.00">QEvent</text>
</g>
<!-- Node7&#45;&gt;Node10 -->
<g id="edge18" class="edge"><title>Node7&#45;&gt;Node10</title>
<path fill="none" stroke="midnightblue" d="M140,-174.362C140,-166.922 140,-156.743 140,-147.728"/>
<polygon fill="midnightblue" stroke="midnightblue" points="143.5,-147.571 140,-137.571 136.5,-147.571 143.5,-147.571"/>
</g>
<!-- Node7&#45;&gt;Node11 -->
<g id="edge20" class="edge"><title>Node7&#45;&gt;Node11</title>
<path fill="none" stroke="midnightblue" d="M153.022,-174.362C163.431,-165.859 178.219,-153.779 190.255,-143.947"/>
<polygon fill="midnightblue" stroke="midnightblue" points="192.53,-146.608 198.06,-137.571 188.101,-141.187 192.53,-146.608"/>
</g>
<!-- Node13 -->
<g id="node25" class="node"><title>Node13</title>
<polygon fill="white" stroke="#bfbfbf" points="348.5,-0.5 348.5,-21.5 401.5,-21.5 401.5,-0.5 348.5,-0.5"/>
<text text-anchor="middle" x="375" y="-8.5" font-family="DejaVuSans" font-size="10.00">QString</text>
</g>
<!-- Node12&#45;&gt;Node13 -->
<g id="edge24" class="edge"><title>Node12&#45;&gt;Node13</title>
<path fill="none" stroke="midnightblue" d="M368.943,-174.839C425.473,-162.871 511.369,-143.873 516,-138 525.42,-126.055 533.362,-84.9456 513,-58 500.552,-41.5266 447.915,-26.9599 411.373,-18.5611"/>
<polygon fill="midnightblue" stroke="midnightblue" points="412.064,-15.129 401.54,-16.3593 410.534,-21.9599 412.064,-15.129"/>
</g>
<!-- Node14 -->
<g id="node27" class="node"><title>Node14</title>
<a xlink:href="cv___trait_detail_8h.html" target="_top" xlink:title="../Datatypes/cv_TraitDetail.h">
<polygon fill="white" stroke="black" points="257,-116.5 257,-137.5 407,-137.5 407,-116.5 257,-116.5"/>
<text text-anchor="middle" x="332" y="-124.5" font-family="DejaVuSans" font-size="10.00">../Datatypes/cv_TraitDetail.h</text>
</a>
</g>
<!-- Node12&#45;&gt;Node14 -->
<g id="edge26" class="edge"><title>Node12&#45;&gt;Node14</title>
<path fill="none" stroke="midnightblue" d="M322.201,-174.362C323.757,-166.84 325.893,-156.519 327.773,-147.431"/>
<polygon fill="midnightblue" stroke="midnightblue" points="331.214,-148.072 329.813,-137.571 324.359,-146.654 331.214,-148.072"/>
</g>
<!-- Node16 -->
<g id="node35" class="node"><title>Node16</title>
<a xlink:href="_checked_list_8h.html" target="_top" xlink:title="CheckedList.h">
<polygon fill="white" stroke="black" points="424.5,-116.5 424.5,-137.5 507.5,-137.5 507.5,-116.5 424.5,-116.5"/>
<text text-anchor="middle" x="466" y="-124.5" font-family="DejaVuSans" font-size="10.00">CheckedList.h</text>
</a>
</g>
<!-- Node12&#45;&gt;Node16 -->
<g id="edge38" class="edge"><title>Node12&#45;&gt;Node16</title>
<path fill="none" stroke="midnightblue" d="M346.439,-174.497C369.756,-165.234 403.95,-151.65 429.804,-141.379"/>
<polygon fill="midnightblue" stroke="midnightblue" points="431.263,-144.566 439.264,-137.621 428.678,-138.06 431.263,-144.566"/>
</g>
<!-- Node14&#45;&gt;Node2 -->
<g id="edge32" class="edge"><title>Node14&#45;&gt;Node2</title>
<path fill="none" stroke="midnightblue" d="M278.034,-116.497C220.836,-105.364 131.571,-87.9904 78.3307,-77.6281"/>
<polygon fill="midnightblue" stroke="midnightblue" points="78.9885,-74.1905 68.504,-75.7155 77.6511,-81.0616 78.9885,-74.1905"/>
</g>
<!-- Node14&#45;&gt;Node9 -->
<g id="edge30" class="edge"><title>Node14&#45;&gt;Node9</title>
<path fill="none" stroke="midnightblue" d="M309.545,-116.497C289.482,-107.113 259.939,-93.2938 237.884,-82.9781"/>
<polygon fill="midnightblue" stroke="midnightblue" points="239.181,-79.7209 228.64,-78.6543 236.216,-86.0616 239.181,-79.7209"/>
</g>
<!-- Node14&#45;&gt;Node13 -->
<g id="edge28" class="edge"><title>Node14&#45;&gt;Node13</title>
<path fill="none" stroke="midnightblue" d="M328.297,-116.227C324.121,-102.218 318.901,-77.2652 327,-58 331.964,-46.1918 341.503,-35.8648 350.779,-27.9215"/>
<polygon fill="midnightblue" stroke="midnightblue" points="353.101,-30.5466 358.74,-21.5773 348.738,-25.0721 353.101,-30.5466"/>
</g>
<!-- Node15 -->
<g id="node32" class="node"><title>Node15</title>
<a xlink:href="cv___species_8h.html" target="_top" xlink:title="cv_Species.h">
<polygon fill="white" stroke="black" points="335.5,-58.5 335.5,-79.5 414.5,-79.5 414.5,-58.5 335.5,-58.5"/>
<text text-anchor="middle" x="375" y="-66.5" font-family="DejaVuSans" font-size="10.00">cv_Species.h</text>
</a>
</g>
<!-- Node14&#45;&gt;Node15 -->
<g id="edge34" class="edge"><title>Node14&#45;&gt;Node15</title>
<path fill="none" stroke="midnightblue" d="M339.887,-116.362C345.827,-108.35 354.122,-97.1605 361.159,-87.6696"/>
<polygon fill="midnightblue" stroke="midnightblue" points="364.019,-89.6883 367.163,-79.5707 358.396,-85.5193 364.019,-89.6883"/>
</g>
<!-- Node15&#45;&gt;Node13 -->
<g id="edge36" class="edge"><title>Node15&#45;&gt;Node13</title>
<path fill="none" stroke="midnightblue" d="M375,-58.3619C375,-50.9219 375,-40.7427 375,-31.7276"/>
<polygon fill="midnightblue" stroke="midnightblue" points="378.5,-31.5706 375,-21.5707 371.5,-31.5707 378.5,-31.5706"/>
</g>
<!-- Node17 -->
<g id="node37" class="node"><title>Node17</title>
<polygon fill="white" stroke="#bfbfbf" points="431.5,-58.5 431.5,-79.5 504.5,-79.5 504.5,-58.5 431.5,-58.5"/>
<text text-anchor="middle" x="468" y="-66.5" font-family="DejaVuSans" font-size="10.00">QListWidget</text>
</g>
<!-- Node16&#45;&gt;Node17 -->
<g id="edge40" class="edge"><title>Node16&#45;&gt;Node17</title>
<path fill="none" stroke="midnightblue" d="M466.367,-116.362C466.623,-108.922 466.974,-98.7427 467.285,-89.7276"/>
<polygon fill="midnightblue" stroke="midnightblue" points="470.789,-89.6854 467.635,-79.5707 463.793,-89.4441 470.789,-89.6854"/>
</g>
</g>
</svg>
