<?xml version="1.0" encoding="UTF-8" standalone="no"?>
<!DOCTYPE svg PUBLIC "-//W3C//DTD SVG 1.1//EN"
 "http://www.w3.org/Graphics/SVG/1.1/DTD/svg11.dtd">
<!-- Generated by graphviz version 2.26.3 (20100126.1600)
 -->
<!-- Title: G Pages: 1 -->
<svg width="256pt" height="146pt"
 viewBox="0.00 0.00 256.00 146.00" xmlns="http://www.w3.org/2000/svg" xmlns:xlink="http://www.w3.org/1999/xlink">
<g id="graph1" class="graph" transform="scale(1 1) rotate(0) translate(4 142)">
<title>G</title>
<polygon fill="white" stroke="white" points="-4,5 -4,-142 253,-142 253,5 -4,5"/>
<!-- Node1 -->
<g id="node1" class="node"><title>Node1</title>
<polygon fill="#bfbfbf" stroke="black" points="11.5,-116.5 11.5,-137.5 148.5,-137.5 148.5,-116.5 11.5,-116.5"/>
<text text-anchor="middle" x="80" y="-124.5" font-family="DejaVuSans" font-size="10.00">src/Widgets/TraitDots.cpp</text>
</g>
<!-- Node2 -->
<g id="node3" class="node"><title>Node2</title>
<polygon fill="white" stroke="#bfbfbf" points="21,-58.5 21,-79.5 65,-79.5 65,-58.5 21,-58.5"/>
<text text-anchor="middle" x="43" y="-66.5" font-family="DejaVuSans" font-size="10.00">QtGui</text>
</g>
<!-- Node1&#45;&gt;Node2 -->
<g id="edge2" class="edge"><title>Node1&#45;&gt;Node2</title>
<path fill="none" stroke="midnightblue" d="M73.2136,-116.362C68.2066,-108.513 61.255,-97.6159 55.2819,-88.2527"/>
<polygon fill="midnightblue" stroke="midnightblue" points="58.0723,-86.1189 49.7433,-79.5707 52.1708,-89.8837 58.0723,-86.1189"/>
</g>
<!-- Node3 -->
<g id="node5" class="node"><title>Node3</title>
<a xlink:href="_trait_dots_8h.html" target="_top" xlink:title="TraitDots.h">
<polygon fill="white" stroke="black" points="83,-58.5 83,-79.5 151,-79.5 151,-58.5 83,-58.5"/>
<text text-anchor="middle" x="117" y="-66.5" font-family="DejaVuSans" font-size="10.00">TraitDots.h</text>
</a>
</g>
<!-- Node1&#45;&gt;Node3 -->
<g id="edge4" class="edge"><title>Node1&#45;&gt;Node3</title>
<path fill="none" stroke="midnightblue" d="M86.7864,-116.362C91.7934,-108.513 98.745,-97.6159 104.718,-88.2527"/>
<polygon fill="midnightblue" stroke="midnightblue" points="107.829,-89.8837 110.257,-79.5707 101.928,-86.1189 107.829,-89.8837"/>
</g>
<!-- Node4 -->
<g id="node7" class="node"><title>Node4</title>
<polygon fill="white" stroke="#bfbfbf" points="-0.5,-0.5 -0.5,-21.5 48.5,-21.5 48.5,-0.5 -0.5,-0.5"/>
<text text-anchor="middle" x="24" y="-8.5" font-family="DejaVuSans" font-size="10.00">QColor</text>
</g>
<!-- Node3&#45;&gt;Node4 -->
<g id="edge6" class="edge"><title>Node3&#45;&gt;Node4</title>
<path fill="none" stroke="midnightblue" d="M99.9424,-58.3619C85.9152,-49.6138 65.8157,-37.0786 49.8179,-27.1015"/>
<polygon fill="midnightblue" stroke="midnightblue" points="51.2868,-23.8927 40.9495,-21.5707 47.5825,-29.8323 51.2868,-23.8927"/>
</g>
<!-- Node5 -->
<g id="node9" class="node"><title>Node5</title>
<polygon fill="white" stroke="#bfbfbf" points="65.5,-0.5 65.5,-21.5 106.5,-21.5 106.5,-0.5 65.5,-0.5"/>
<text text-anchor="middle" x="86" y="-8.5" font-family="DejaVuSans" font-size="10.00">QList</text>
</g>
<!-- Node3&#45;&gt;Node5 -->
<g id="edge8" class="edge"><title>Node3&#45;&gt;Node5</title>
<path fill="none" stroke="midnightblue" d="M111.314,-58.3619C107.163,-50.5949 101.416,-39.8426 96.4469,-30.5458"/>
<polygon fill="midnightblue" stroke="midnightblue" points="99.4504,-28.7401 91.6498,-21.5707 93.2769,-32.0398 99.4504,-28.7401"/>
</g>
<!-- Node6 -->
<g id="node11" class="node"><title>Node6</title>
<polygon fill="white" stroke="#bfbfbf" points="123.5,-0.5 123.5,-21.5 174.5,-21.5 174.5,-0.5 123.5,-0.5"/>
<text text-anchor="middle" x="149" y="-8.5" font-family="DejaVuSans" font-size="10.00">QEvent</text>
</g>
<!-- Node3&#45;&gt;Node6 -->
<g id="edge10" class="edge"><title>Node3&#45;&gt;Node6</title>
<path fill="none" stroke="midnightblue" d="M122.869,-58.3619C127.155,-50.5949 133.087,-39.8426 138.216,-30.5458"/>
<polygon fill="midnightblue" stroke="midnightblue" points="141.402,-32.0172 143.168,-21.5707 135.273,-28.6357 141.402,-32.0172"/>
</g>
<!-- Node7 -->
<g id="node13" class="node"><title>Node7</title>
<polygon fill="white" stroke="#bfbfbf" points="192,-0.5 192,-21.5 248,-21.5 248,-0.5 192,-0.5"/>
<text text-anchor="middle" x="220" y="-8.5" font-family="DejaVuSans" font-size="10.00">QWidget</text>
</g>
<!-- Node3&#45;&gt;Node7 -->
<g id="edge12" class="edge"><title>Node3&#45;&gt;Node7</title>
<path fill="none" stroke="midnightblue" d="M135.892,-58.3619C151.718,-49.4502 174.523,-36.6087 192.395,-26.5447"/>
<polygon fill="midnightblue" stroke="midnightblue" points="194.232,-29.5271 201.228,-21.5707 190.797,-23.4276 194.232,-29.5271"/>
</g>
</g>
</svg>
