<?xml version="1.0" encoding="UTF-8" standalone="no"?>
<!DOCTYPE svg PUBLIC "-//W3C//DTD SVG 1.1//EN"
 "http://www.w3.org/Graphics/SVG/1.1/DTD/svg11.dtd">
<!-- Generated by graphviz version 2.26.3 (20100126.1600)
 -->
<!-- Title: G Pages: 1 -->
<svg width="633pt" height="262pt"
 viewBox="0.00 0.00 632.86 262.00" xmlns="http://www.w3.org/2000/svg" xmlns:xlink="http://www.w3.org/1999/xlink">
<g id="graph1" class="graph" transform="scale(1 1) rotate(0) translate(4 258)">
<title>G</title>
<polygon fill="white" stroke="white" points="-4,5 -4,-258 629.858,-258 629.858,5 -4,5"/>
<!-- Node1 -->
<g id="node1" class="node"><title>Node1</title>
<polygon fill="#bfbfbf" stroke="black" points="372.358,-232.5 372.358,-253.5 487.358,-253.5 487.358,-232.5 372.358,-232.5"/>
<text text-anchor="middle" x="429.858" y="-240.5" font-family="DejaVuSans" font-size="10.00">src/Datatypes/Trait.h</text>
</g>
<!-- Node2 -->
<g id="node3" class="node"><title>Node2</title>
<polygon fill="white" stroke="#bfbfbf" points="14.3576,-116.5 14.3576,-137.5 63.3576,-137.5 63.3576,-116.5 14.3576,-116.5"/>
<text text-anchor="middle" x="38.8576" y="-124.5" font-family="DejaVuSans" font-size="10.00">QFlags</text>
</g>
<!-- Node1&#45;&gt;Node2 -->
<g id="edge2" class="edge"><title>Node1&#45;&gt;Node2</title>
<path fill="none" stroke="midnightblue" d="M372.301,-233.841C326.834,-225.897 262.066,-213 206.858,-196 157.9,-180.925 103.421,-157.194 70.1452,-141.866"/>
<polygon fill="midnightblue" stroke="midnightblue" points="71.4805,-138.627 60.9366,-137.588 68.5315,-144.975 71.4805,-138.627"/>
</g>
<!-- Node3 -->
<g id="node5" class="node"><title>Node3</title>
<polygon fill="white" stroke="#bfbfbf" points="259.358,-0.5 259.358,-21.5 312.358,-21.5 312.358,-0.5 259.358,-0.5"/>
<text text-anchor="middle" x="285.858" y="-8.5" font-family="DejaVuSans" font-size="10.00">QString</text>
</g>
<!-- Node1&#45;&gt;Node3 -->
<g id="edge4" class="edge"><title>Node1&#45;&gt;Node3</title>
<path fill="none" stroke="midnightblue" d="M456.072,-232.409C471.255,-224.748 489.059,-212.776 497.858,-196 514.371,-164.512 508.429,-149.948 497.858,-116 488.548,-86.1024 483.399,-76.1151 457.858,-58 417.295,-29.2319 359.911,-18.0612 322.789,-13.7308"/>
<polygon fill="midnightblue" stroke="midnightblue" points="322.736,-10.2059 312.424,-12.638 322.002,-17.1673 322.736,-10.2059"/>
</g>
<!-- Node4 -->
<g id="node7" class="node"><title>Node4</title>
<polygon fill="white" stroke="#bfbfbf" points="408.358,-58.5 408.358,-79.5 449.358,-79.5 449.358,-58.5 408.358,-58.5"/>
<text text-anchor="middle" x="428.858" y="-66.5" font-family="DejaVuSans" font-size="10.00">QList</text>
</g>
<!-- Node1&#45;&gt;Node4 -->
<g id="edge6" class="edge"><title>Node1&#45;&gt;Node4</title>
<path fill="none" stroke="midnightblue" d="M447.36,-232.481C459.263,-224.228 474.042,-211.549 480.858,-196 495.131,-163.435 495.289,-148.495 480.858,-116 475.456,-103.836 465.178,-93.4865 455.176,-85.6217"/>
<polygon fill="midnightblue" stroke="midnightblue" points="457.092,-82.6872 446.953,-79.6143 452.963,-88.3395 457.092,-82.6872"/>
</g>
<!-- Node5 -->
<g id="node9" class="node"><title>Node5</title>
<polygon fill="white" stroke="#bfbfbf" points="118.358,-58.5 118.358,-79.5 187.358,-79.5 187.358,-58.5 118.358,-58.5"/>
<text text-anchor="middle" x="152.858" y="-66.5" font-family="DejaVuSans" font-size="10.00">QStringList</text>
</g>
<!-- Node1&#45;&gt;Node5 -->
<g id="edge8" class="edge"><title>Node1&#45;&gt;Node5</title>
<path fill="none" stroke="midnightblue" d="M371.963,-238.065C265.562,-227.583 46.0925,-198.9 5.85761,-138 -21.0227,-97.3136 55.5286,-80.1079 108.014,-73.227"/>
<polygon fill="midnightblue" stroke="midnightblue" points="108.652,-76.675 118.152,-71.9846 107.801,-69.727 108.652,-76.675"/>
</g>
<!-- Node6 -->
<g id="node11" class="node"><title>Node6</title>
<a xlink:href="cv___species_8h.html" target="_top" xlink:title="cv_Species.h">
<polygon fill="white" stroke="black" points="246.358,-58.5 246.358,-79.5 325.358,-79.5 325.358,-58.5 246.358,-58.5"/>
<text text-anchor="middle" x="285.858" y="-66.5" font-family="DejaVuSans" font-size="10.00">cv_Species.h</text>
</a>
</g>
<!-- Node1&#45;&gt;Node6 -->
<g id="edge10" class="edge"><title>Node1&#45;&gt;Node6</title>
<path fill="none" stroke="midnightblue" d="M431.446,-232.401C434.381,-208.672 438.009,-150.645 409.858,-116 391.658,-93.6014 361.548,-81.8691 335.557,-75.7279"/>
<polygon fill="midnightblue" stroke="midnightblue" points="335.973,-72.2377 325.462,-73.5659 334.507,-79.0825 335.973,-72.2377"/>
</g>
<!-- Node7 -->
<g id="node14" class="node"><title>Node7</title>
<a xlink:href="cv___trait_detail_8h.html" target="_top" xlink:title="cv_TraitDetail.h">
<polygon fill="white" stroke="black" points="312.358,-116.5 312.358,-137.5 401.358,-137.5 401.358,-116.5 312.358,-116.5"/>
<text text-anchor="middle" x="356.858" y="-124.5" font-family="DejaVuSans" font-size="10.00">cv_TraitDetail.h</text>
</a>
</g>
<!-- Node1&#45;&gt;Node7 -->
<g id="edge14" class="edge"><title>Node1&#45;&gt;Node7</title>
<path fill="none" stroke="midnightblue" d="M423.121,-232.295C410.789,-212.7 384.434,-170.82 368.935,-146.191"/>
<polygon fill="midnightblue" stroke="midnightblue" points="371.867,-144.279 363.578,-137.679 365.942,-148.007 371.867,-144.279"/>
</g>
<!-- Node8 -->
<g id="node20" class="node"><title>Node8</title>
<a xlink:href="cv___trait_8h.html" target="_top" xlink:title="cv_Trait.h">
<polygon fill="white" stroke="black" points="215.358,-174.5 215.358,-195.5 276.358,-195.5 276.358,-174.5 215.358,-174.5"/>
<text text-anchor="middle" x="245.858" y="-182.5" font-family="DejaVuSans" font-size="10.00">cv_Trait.h</text>
</a>
</g>
<!-- Node1&#45;&gt;Node8 -->
<g id="edge24" class="edge"><title>Node1&#45;&gt;Node8</title>
<path fill="none" stroke="midnightblue" d="M396.537,-232.497C365.565,-222.734 319.366,-208.171 286.296,-197.747"/>
<polygon fill="midnightblue" stroke="midnightblue" points="287.075,-194.323 276.485,-194.654 284.97,-200.999 287.075,-194.323"/>
</g>
<!-- Node10 -->
<g id="node32" class="node"><title>Node10</title>
<polygon fill="white" stroke="#bfbfbf" points="570.358,-174.5 570.358,-195.5 625.358,-195.5 625.358,-174.5 570.358,-174.5"/>
<text text-anchor="middle" x="597.858" y="-182.5" font-family="DejaVuSans" font-size="10.00">QObject</text>
</g>
<!-- Node1&#45;&gt;Node10 -->
<g id="edge44" class="edge"><title>Node1&#45;&gt;Node10</title>
<path fill="none" stroke="midnightblue" d="M460.281,-232.497C488.401,-222.789 530.268,-208.335 560.426,-197.923"/>
<polygon fill="midnightblue" stroke="midnightblue" points="561.858,-201.131 570.168,-194.559 559.573,-194.515 561.858,-201.131"/>
</g>
<!-- Node6&#45;&gt;Node3 -->
<g id="edge12" class="edge"><title>Node6&#45;&gt;Node3</title>
<path fill="none" stroke="midnightblue" d="M285.858,-58.3619C285.858,-50.9219 285.858,-40.7427 285.858,-31.7276"/>
<polygon fill="midnightblue" stroke="midnightblue" points="289.358,-31.5706 285.858,-21.5707 282.358,-31.5707 289.358,-31.5706"/>
</g>
<!-- Node7&#45;&gt;Node3 -->
<g id="edge16" class="edge"><title>Node7&#45;&gt;Node3</title>
<path fill="none" stroke="midnightblue" d="M354.876,-116.031C351.946,-101.81 345.507,-76.6288 333.858,-58 326.875,-46.8335 316.713,-36.3733 307.535,-28.169"/>
<polygon fill="midnightblue" stroke="midnightblue" points="309.703,-25.4174 299.828,-21.5788 305.154,-30.7377 309.703,-25.4174"/>
</g>
<!-- Node7&#45;&gt;Node4 -->
<g id="edge18" class="edge"><title>Node7&#45;&gt;Node4</title>
<path fill="none" stroke="midnightblue" d="M370.064,-116.362C380.619,-107.859 395.615,-95.7785 407.821,-85.9466"/>
<polygon fill="midnightblue" stroke="midnightblue" points="410.144,-88.5696 415.735,-79.5707 405.752,-83.1183 410.144,-88.5696"/>
</g>
<!-- Node7&#45;&gt;Node5 -->
<g id="edge20" class="edge"><title>Node7&#45;&gt;Node5</title>
<path fill="none" stroke="midnightblue" d="M319.915,-116.497C285.491,-106.709 234.099,-92.0981 197.415,-81.6684"/>
<polygon fill="midnightblue" stroke="midnightblue" points="198.061,-78.2133 187.485,-78.8451 196.147,-84.9465 198.061,-78.2133"/>
</g>
<!-- Node7&#45;&gt;Node6 -->
<g id="edge22" class="edge"><title>Node7&#45;&gt;Node6</title>
<path fill="none" stroke="midnightblue" d="M343.835,-116.362C333.426,-107.859 318.638,-95.7785 306.603,-85.9466"/>
<polygon fill="midnightblue" stroke="midnightblue" points="308.756,-83.1866 298.798,-79.5707 304.328,-88.6077 308.756,-83.1866"/>
</g>
<!-- Node8&#45;&gt;Node2 -->
<g id="edge26" class="edge"><title>Node8&#45;&gt;Node2</title>
<path fill="none" stroke="midnightblue" d="M215.3,-176.606C181.43,-167.277 125.198,-151.718 76.8576,-138 75.6312,-137.652 74.3828,-137.297 73.1221,-136.937"/>
<polygon fill="midnightblue" stroke="midnightblue" points="73.954,-133.534 63.3765,-134.139 72.0222,-140.262 73.954,-133.534"/>
</g>
<!-- Node8&#45;&gt;Node3 -->
<g id="edge28" class="edge"><title>Node8&#45;&gt;Node3</title>
<path fill="none" stroke="midnightblue" d="M215.094,-177.885C191.48,-171.069 159.379,-158.692 137.858,-138 110.702,-111.891 86.9127,-87.8763 109.858,-58 126.692,-36.0801 202.579,-22.1831 249.036,-15.5715"/>
<polygon fill="midnightblue" stroke="midnightblue" points="249.604,-19.0264 259.034,-14.1961 248.65,-12.0917 249.604,-19.0264"/>
</g>
<!-- Node8&#45;&gt;Node4 -->
<g id="edge30" class="edge"><title>Node8&#45;&gt;Node4</title>
<path fill="none" stroke="midnightblue" d="M276.382,-179.915C318.46,-172.313 391.211,-156.842 409.858,-138 422.447,-125.279 426.884,-105.029 428.358,-89.75"/>
<polygon fill="midnightblue" stroke="midnightblue" points="431.856,-89.8787 428.981,-79.6815 424.87,-89.4461 431.856,-89.8787"/>
</g>
<!-- Node8&#45;&gt;Node5 -->
<g id="edge32" class="edge"><title>Node8&#45;&gt;Node5</title>
<path fill="none" stroke="midnightblue" d="M215.254,-179.338C192.345,-173.323 162.534,-161.315 147.858,-138 138.796,-123.605 141.291,-104.019 145.329,-89.3918"/>
<polygon fill="midnightblue" stroke="midnightblue" points="148.696,-90.353 148.399,-79.7623 142.027,-88.2268 148.696,-90.353"/>
</g>
<!-- Node8&#45;&gt;Node6 -->
<g id="edge34" class="edge"><title>Node8&#45;&gt;Node6</title>
<path fill="none" stroke="midnightblue" d="M250.839,-174.319C255.132,-164.886 261.334,-150.697 265.858,-138 271.538,-122.054 276.817,-103.623 280.523,-89.8228"/>
<polygon fill="midnightblue" stroke="midnightblue" points="283.978,-90.4457 283.136,-79.8844 277.208,-88.6657 283.978,-90.4457"/>
</g>
<!-- Node8&#45;&gt;Node7 -->
<g id="edge36" class="edge"><title>Node8&#45;&gt;Node7</title>
<path fill="none" stroke="midnightblue" d="M265.959,-174.497C283.139,-165.519 308.087,-152.484 327.502,-142.339"/>
<polygon fill="midnightblue" stroke="midnightblue" points="329.289,-145.354 336.531,-137.621 326.047,-139.15 329.289,-145.354"/>
</g>
<!-- Node9 -->
<g id="node28" class="node"><title>Node9</title>
<a xlink:href="cv___abstract_trait_8h.html" target="_top" xlink:title="cv_AbstractTrait.h">
<polygon fill="white" stroke="black" points="156.358,-116.5 156.358,-137.5 257.358,-137.5 257.358,-116.5 156.358,-116.5"/>
<text text-anchor="middle" x="206.858" y="-124.5" font-family="DejaVuSans" font-size="10.00">cv_AbstractTrait.h</text>
</a>
</g>
<!-- Node8&#45;&gt;Node9 -->
<g id="edge38" class="edge"><title>Node8&#45;&gt;Node9</title>
<path fill="none" stroke="midnightblue" d="M238.704,-174.362C233.372,-166.431 225.946,-155.389 219.607,-145.961"/>
<polygon fill="midnightblue" stroke="midnightblue" points="222.45,-143.916 213.965,-137.571 216.641,-147.822 222.45,-143.916"/>
</g>
<!-- Node9&#45;&gt;Node3 -->
<g id="edge40" class="edge"><title>Node9&#45;&gt;Node3</title>
<path fill="none" stroke="midnightblue" d="M210.338,-116.066C215.161,-101.883 224.784,-76.7415 237.858,-58 245.392,-47.1983 255.619,-36.7811 264.697,-28.5108"/>
<polygon fill="midnightblue" stroke="midnightblue" points="267.085,-31.0722 272.283,-21.84 262.462,-25.8157 267.085,-31.0722"/>
</g>
<!-- Node9&#45;&gt;Node6 -->
<g id="edge42" class="edge"><title>Node9&#45;&gt;Node6</title>
<path fill="none" stroke="midnightblue" d="M221.347,-116.362C233.04,-107.777 249.7,-95.5459 263.161,-85.6636"/>
<polygon fill="midnightblue" stroke="midnightblue" points="265.47,-88.31 271.46,-79.5707 261.327,-82.6675 265.47,-88.31"/>
</g>
</g>
</svg>
