<?xml version="1.0" encoding="UTF-8" standalone="no"?>
<!DOCTYPE svg PUBLIC "-//W3C//DTD SVG 1.1//EN"
 "http://www.w3.org/Graphics/SVG/1.1/DTD/svg11.dtd">
<!-- Generated by graphviz version 2.26.3 (20100126.1600)
 -->
<!-- Title: G Pages: 1 -->
<svg width="256pt" height="88pt"
 viewBox="0.00 0.00 256.00 88.00" xmlns="http://www.w3.org/2000/svg" xmlns:xlink="http://www.w3.org/1999/xlink">
<g id="graph1" class="graph" transform="scale(1 1) rotate(0) translate(4 84)">
<title>G</title>
<polygon fill="white" stroke="white" points="-4,5 -4,-84 253,-84 253,5 -4,5"/>
<!-- Node1 -->
<g id="node1" class="node"><title>Node1</title>
<polygon fill="#bfbfbf" stroke="black" points="54.5,-58.5 54.5,-79.5 179.5,-79.5 179.5,-58.5 54.5,-58.5"/>
<text text-anchor="middle" x="117" y="-66.5" font-family="DejaVuSans" font-size="10.00">src/Widgets/TraitDots.h</text>
</g>
<!-- Node2 -->
<g id="node3" class="node"><title>Node2</title>
<polygon fill="white" stroke="#bfbfbf" points="-0.5,-0.5 -0.5,-21.5 48.5,-21.5 48.5,-0.5 -0.5,-0.5"/>
<text text-anchor="middle" x="24" y="-8.5" font-family="DejaVuSans" font-size="10.00">QColor</text>
</g>
<!-- Node1&#45;&gt;Node2 -->
<g id="edge2" class="edge"><title>Node1&#45;&gt;Node2</title>
<path fill="none" stroke="midnightblue" d="M99.9424,-58.3619C85.9152,-49.6138 65.8157,-37.0786 49.8179,-27.1015"/>
<polygon fill="midnightblue" stroke="midnightblue" points="51.2868,-23.8927 40.9495,-21.5707 47.5825,-29.8323 51.2868,-23.8927"/>
</g>
<!-- Node3 -->
<g id="node5" class="node"><title>Node3</title>
<polygon fill="white" stroke="#bfbfbf" points="65.5,-0.5 65.5,-21.5 106.5,-21.5 106.5,-0.5 65.5,-0.5"/>
<text text-anchor="middle" x="86" y="-8.5" font-family="DejaVuSans" font-size="10.00">QList</text>
</g>
<!-- Node1&#45;&gt;Node3 -->
<g id="edge4" class="edge"><title>Node1&#45;&gt;Node3</title>
<path fill="none" stroke="midnightblue" d="M111.314,-58.3619C107.163,-50.5949 101.416,-39.8426 96.4469,-30.5458"/>
<polygon fill="midnightblue" stroke="midnightblue" points="99.4504,-28.7401 91.6498,-21.5707 93.2769,-32.0398 99.4504,-28.7401"/>
</g>
<!-- Node4 -->
<g id="node7" class="node"><title>Node4</title>
<polygon fill="white" stroke="#bfbfbf" points="123.5,-0.5 123.5,-21.5 174.5,-21.5 174.5,-0.5 123.5,-0.5"/>
<text text-anchor="middle" x="149" y="-8.5" font-family="DejaVuSans" font-size="10.00">QEvent</text>
</g>
<!-- Node1&#45;&gt;Node4 -->
<g id="edge6" class="edge"><title>Node1&#45;&gt;Node4</title>
<path fill="none" stroke="midnightblue" d="M122.869,-58.3619C127.155,-50.5949 133.087,-39.8426 138.216,-30.5458"/>
<polygon fill="midnightblue" stroke="midnightblue" points="141.402,-32.0172 143.168,-21.5707 135.273,-28.6357 141.402,-32.0172"/>
</g>
<!-- Node5 -->
<g id="node9" class="node"><title>Node5</title>
<polygon fill="white" stroke="#bfbfbf" points="192,-0.5 192,-21.5 248,-21.5 248,-0.5 192,-0.5"/>
<text text-anchor="middle" x="220" y="-8.5" font-family="DejaVuSans" font-size="10.00">QWidget</text>
</g>
<!-- Node1&#45;&gt;Node5 -->
<g id="edge8" class="edge"><title>Node1&#45;&gt;Node5</title>
<path fill="none" stroke="midnightblue" d="M135.892,-58.3619C151.718,-49.4502 174.523,-36.6087 192.395,-26.5447"/>
<polygon fill="midnightblue" stroke="midnightblue" points="194.232,-29.5271 201.228,-21.5707 190.797,-23.4276 194.232,-29.5271"/>
</g>
</g>
</svg>
