<?xml version="1.0" encoding="UTF-8" standalone="no"?>
<!DOCTYPE svg PUBLIC "-//W3C//DTD SVG 1.1//EN"
 "http://www.w3.org/Graphics/SVG/1.1/DTD/svg11.dtd">
<!-- Generated by graphviz version 2.26.3 (20100126.1600)
 -->
<!-- Title: G Pages: 1 -->
<svg width="1442pt" height="378pt"
 viewBox="0.00 0.00 1442.39 378.00" xmlns="http://www.w3.org/2000/svg" xmlns:xlink="http://www.w3.org/1999/xlink">
<g id="graph1" class="graph" transform="scale(1 1) rotate(0) translate(4 374)">
<title>G</title>
<polygon fill="white" stroke="white" points="-4,5 -4,-374 1439.39,-374 1439.39,5 -4,5"/>
<!-- Node1 -->
<g id="node1" class="node"><title>Node1</title>
<polygon fill="#bfbfbf" stroke="black" points="958.39,-348.5 958.39,-369.5 1140.39,-369.5 1140.39,-348.5 958.39,-348.5"/>
<text text-anchor="middle" x="1049.39" y="-356.5" font-family="DejaVuSans" font-size="10.00">src/Widgets/VerticalTraitWidget.cpp</text>
</g>
<!-- Node2 -->
<g id="node3" class="node"><title>Node2</title>
<polygon fill="white" stroke="#bfbfbf" points="669.39,-290.5 669.39,-311.5 725.39,-311.5 725.39,-290.5 669.39,-290.5"/>
<text text-anchor="middle" x="697.39" y="-298.5" font-family="DejaVuSans" font-size="10.00">QDebug</text>
</g>
<!-- Node1&#45;&gt;Node2 -->
<g id="edge2" class="edge"><title>Node1&#45;&gt;Node2</title>
<path fill="none" stroke="midnightblue" d="M963.762,-348.494C901.275,-340.226 814.695,-327.525 739.39,-312 738.144,-311.743 736.88,-311.472 735.606,-311.191"/>
<polygon fill="midnightblue" stroke="midnightblue" points="736.297,-307.758 725.761,-308.865 734.688,-314.57 736.297,-307.758"/>
</g>
<!-- Node3 -->
<g id="node5" class="node"><title>Node3</title>
<a xlink:href="_chara_trait_8h.html" target="_top" xlink:title="CharaTrait.h">
<polygon fill="white" stroke="black" points="781.39,-290.5 781.39,-311.5 855.39,-311.5 855.39,-290.5 781.39,-290.5"/>
<text text-anchor="middle" x="818.39" y="-298.5" font-family="DejaVuSans" font-size="10.00">CharaTrait.h</text>
</a>
</g>
<!-- Node1&#45;&gt;Node3 -->
<g id="edge4" class="edge"><title>Node1&#45;&gt;Node3</title>
<path fill="none" stroke="midnightblue" d="M1007.56,-348.497C967.56,-338.454 907.334,-323.332 865.628,-312.861"/>
<polygon fill="midnightblue" stroke="midnightblue" points="866.263,-309.411 855.711,-310.371 864.558,-316.201 866.263,-309.411"/>
</g>
<!-- Node27 -->
<g id="node69" class="node"><title>Node27</title>
<a xlink:href="_exception_8h_source.html" target="_top" xlink:title="../Exceptions/Exception.h">
<polygon fill="white" stroke="black" points="1146.39,-232.5 1146.39,-253.5 1282.39,-253.5 1282.39,-232.5 1146.39,-232.5"/>
<text text-anchor="middle" x="1214.39" y="-240.5" font-family="DejaVuSans" font-size="10.00">../Exceptions/Exception.h</text>
</a>
</g>
<!-- Node1&#45;&gt;Node27 -->
<g id="edge84" class="edge"><title>Node1&#45;&gt;Node27</title>
<path fill="none" stroke="midnightblue" d="M1064.62,-348.295C1093.47,-328.009 1156.3,-283.84 1190.7,-259.653"/>
<polygon fill="midnightblue" stroke="midnightblue" points="1193.03,-262.294 1199.2,-253.679 1189.01,-256.567 1193.03,-262.294"/>
</g>
<!-- Node28 -->
<g id="node73" class="node"><title>Node28</title>
<a xlink:href="_config_8h.html" target="_top" xlink:title="../Config/Config.h">
<polygon fill="white" stroke="black" points="1336.39,-174.5 1336.39,-195.5 1434.39,-195.5 1434.39,-174.5 1336.39,-174.5"/>
<text text-anchor="middle" x="1385.39" y="-182.5" font-family="DejaVuSans" font-size="10.00">../Config/Config.h</text>
</a>
</g>
<!-- Node1&#45;&gt;Node28 -->
<g id="edge90" class="edge"><title>Node1&#45;&gt;Node28</title>
<path fill="none" stroke="midnightblue" d="M1079.47,-348.437C1126.28,-331.459 1218.71,-295.738 1291.39,-254 1318.21,-238.595 1346.51,-216.998 1364.96,-202.088"/>
<polygon fill="midnightblue" stroke="midnightblue" points="1367.41,-204.6 1372.94,-195.559 1362.98,-199.182 1367.41,-204.6"/>
</g>
<!-- Node29 -->
<g id="node77" class="node"><title>Node29</title>
<a xlink:href="_storage_template_8h.html" target="_top" xlink:title="../Storage/StorageTemplate.h">
<polygon fill="white" stroke="black" points="970.39,-232.5 970.39,-253.5 1128.39,-253.5 1128.39,-232.5 970.39,-232.5"/>
<text text-anchor="middle" x="1049.39" y="-240.5" font-family="DejaVuSans" font-size="10.00">../Storage/StorageTemplate.h</text>
</a>
</g>
<!-- Node1&#45;&gt;Node29 -->
<g id="edge96" class="edge"><title>Node1&#45;&gt;Node29</title>
<path fill="none" stroke="midnightblue" d="M1049.39,-348.295C1049.39,-329.131 1049.39,-288.654 1049.39,-263.843"/>
<polygon fill="midnightblue" stroke="midnightblue" points="1052.89,-263.679 1049.39,-253.679 1045.89,-263.679 1052.89,-263.679"/>
</g>
<!-- Node30 -->
<g id="node84" class="node"><title>Node30</title>
<polygon fill="white" stroke="#bfbfbf" points="1337.89,-290.5 1337.89,-311.5 1434.89,-311.5 1434.89,-290.5 1337.89,-290.5"/>
<text text-anchor="middle" x="1386.39" y="-298.5" font-family="DejaVuSans" font-size="10.00">../CMakeConfig.h</text>
</g>
<!-- Node1&#45;&gt;Node30 -->
<g id="edge108" class="edge"><title>Node1&#45;&gt;Node30</title>
<path fill="none" stroke="midnightblue" d="M1111.66,-348.472C1167.41,-339.02 1251.38,-324.715 1324.39,-312 1325.47,-311.812 1326.55,-311.623 1327.65,-311.431"/>
<polygon fill="midnightblue" stroke="midnightblue" points="1328.41,-314.851 1337.66,-309.676 1327.2,-307.956 1328.41,-314.851"/>
</g>
<!-- Node31 -->
<g id="node86" class="node"><title>Node31</title>
<a xlink:href="_vertical_trait_widget_8h.html" target="_top" xlink:title="VerticalTraitWidget.h">
<polygon fill="white" stroke="black" points="218.89,-232.5 218.89,-253.5 331.89,-253.5 331.89,-232.5 218.89,-232.5"/>
<text text-anchor="middle" x="275.39" y="-240.5" font-family="DejaVuSans" font-size="10.00">VerticalTraitWidget.h</text>
</a>
</g>
<!-- Node1&#45;&gt;Node31 -->
<g id="edge110" class="edge"><title>Node1&#45;&gt;Node31</title>
<path fill="none" stroke="midnightblue" d="M958.115,-351.772C903.075,-345.405 832.263,-333.614 772.39,-312 754.034,-305.374 752.954,-296.017 734.39,-290 663.245,-266.942 451.687,-252.516 342.401,-246.397"/>
<polygon fill="midnightblue" stroke="midnightblue" points="342.33,-242.888 332.153,-245.831 341.944,-249.877 342.33,-242.888"/>
</g>
<!-- Node4 -->
<g id="node7" class="node"><title>Node4</title>
<a xlink:href="_storage_character_8h.html" target="_top" xlink:title="../Storage/StorageCharacter.h">
<polygon fill="white" stroke="black" points="791.89,-232.5 791.89,-253.5 952.89,-253.5 952.89,-232.5 791.89,-232.5"/>
<text text-anchor="middle" x="872.39" y="-240.5" font-family="DejaVuSans" font-size="10.00">../Storage/StorageCharacter.h</text>
</a>
</g>
<!-- Node3&#45;&gt;Node4 -->
<g id="edge6" class="edge"><title>Node3&#45;&gt;Node4</title>
<path fill="none" stroke="midnightblue" d="M828.294,-290.362C835.906,-282.186 846.598,-270.702 855.547,-261.091"/>
<polygon fill="midnightblue" stroke="midnightblue" points="858.296,-263.275 862.548,-253.571 853.172,-258.505 858.296,-263.275"/>
</g>
<!-- Node5 -->
<g id="node9" class="node"><title>Node5</title>
<a xlink:href="cv___trait_8h.html" target="_top" xlink:title="../Datatypes/cv_Trait.h">
<polygon fill="white" stroke="black" points="811.39,-174.5 811.39,-195.5 933.39,-195.5 933.39,-174.5 811.39,-174.5"/>
<text text-anchor="middle" x="872.39" y="-182.5" font-family="DejaVuSans" font-size="10.00">../Datatypes/cv_Trait.h</text>
</a>
</g>
<!-- Node3&#45;&gt;Node5 -->
<g id="edge46" class="edge"><title>Node3&#45;&gt;Node5</title>
<path fill="none" stroke="midnightblue" d="M806.203,-290.458C791.829,-276.699 771.324,-252.017 783.39,-232 792.279,-217.252 807.513,-206.894 822.89,-199.731"/>
<polygon fill="midnightblue" stroke="midnightblue" points="824.596,-202.809 832.427,-195.674 821.855,-196.368 824.596,-202.809"/>
</g>
<!-- Node11 -->
<g id="node22" class="node"><title>Node11</title>
<a xlink:href="cv___trait_detail_8h.html" target="_top" xlink:title="cv_TraitDetail.h">
<polygon fill="white" stroke="black" points="542.89,-116.5 542.89,-137.5 631.89,-137.5 631.89,-116.5 542.89,-116.5"/>
<text text-anchor="middle" x="587.39" y="-124.5" font-family="DejaVuSans" font-size="10.00">cv_TraitDetail.h</text>
</a>
</g>
<!-- Node3&#45;&gt;Node11 -->
<g id="edge48" class="edge"><title>Node3&#45;&gt;Node11</title>
<path fill="none" stroke="midnightblue" d="M804.287,-290.377C765.464,-261.134 656.779,-179.267 609.653,-143.77"/>
<polygon fill="midnightblue" stroke="midnightblue" points="611.694,-140.926 601.601,-137.705 607.483,-146.517 611.694,-140.926"/>
</g>
<!-- Node15 -->
<g id="node40" class="node"><title>Node15</title>
<a xlink:href="_trait_line_8h.html" target="_top" xlink:title="TraitLine.h">
<polygon fill="white" stroke="black" points="478.89,-232.5 478.89,-253.5 543.89,-253.5 543.89,-232.5 478.89,-232.5"/>
<text text-anchor="middle" x="511.39" y="-240.5" font-family="DejaVuSans" font-size="10.00">TraitLine.h</text>
</a>
</g>
<!-- Node3&#45;&gt;Node15 -->
<g id="edge50" class="edge"><title>Node3&#45;&gt;Node15</title>
<path fill="none" stroke="midnightblue" d="M781.37,-292.875C776.669,-291.885 771.92,-290.904 767.39,-290 692.56,-275.065 605.061,-259.383 554.166,-250.437"/>
<polygon fill="midnightblue" stroke="midnightblue" points="554.639,-246.967 544.185,-248.687 553.43,-253.862 554.639,-246.967"/>
</g>
<!-- Node4&#45;&gt;Node5 -->
<g id="edge8" class="edge"><title>Node4&#45;&gt;Node5</title>
<path fill="none" stroke="midnightblue" d="M872.39,-232.362C872.39,-224.922 872.39,-214.743 872.39,-205.728"/>
<polygon fill="midnightblue" stroke="midnightblue" points="875.89,-205.571 872.39,-195.571 868.89,-205.571 875.89,-205.571"/>
</g>
<!-- Node12 -->
<g id="node28" class="node"><title>Node12</title>
<a xlink:href="cv___name_list_8h.html" target="_top" xlink:title="../Datatypes/cv_NameList.h">
<polygon fill="white" stroke="black" points="1060.89,-174.5 1060.89,-195.5 1209.89,-195.5 1209.89,-174.5 1060.89,-174.5"/>
<text text-anchor="middle" x="1135.39" y="-182.5" font-family="DejaVuSans" font-size="10.00">../Datatypes/cv_NameList.h</text>
</a>
</g>
<!-- Node4&#45;&gt;Node12 -->
<g id="edge32" class="edge"><title>Node4&#45;&gt;Node12</title>
<path fill="none" stroke="midnightblue" d="M920.017,-232.497C964.378,-222.714 1030.59,-208.111 1077.88,-197.682"/>
<polygon fill="midnightblue" stroke="midnightblue" points="1078.66,-201.095 1087.67,-195.523 1077.15,-194.259 1078.66,-201.095"/>
</g>
<!-- Node14 -->
<g id="node36" class="node"><title>Node14</title>
<polygon fill="white" stroke="#bfbfbf" points="950.89,-174.5 950.89,-195.5 1005.89,-195.5 1005.89,-174.5 950.89,-174.5"/>
<text text-anchor="middle" x="978.39" y="-182.5" font-family="DejaVuSans" font-size="10.00">QObject</text>
</g>
<!-- Node4&#45;&gt;Node14 -->
<g id="edge44" class="edge"><title>Node4&#45;&gt;Node14</title>
<path fill="none" stroke="midnightblue" d="M891.832,-232.362C908.193,-223.409 931.803,-210.491 950.233,-200.406"/>
<polygon fill="midnightblue" stroke="midnightblue" points="951.978,-203.441 959.071,-195.571 948.618,-197.3 951.978,-203.441"/>
</g>
<!-- Node6 -->
<g id="node11" class="node"><title>Node6</title>
<polygon fill="white" stroke="#bfbfbf" points="906.89,-116.5 906.89,-137.5 955.89,-137.5 955.89,-116.5 906.89,-116.5"/>
<text text-anchor="middle" x="931.39" y="-124.5" font-family="DejaVuSans" font-size="10.00">QFlags</text>
</g>
<!-- Node5&#45;&gt;Node6 -->
<g id="edge10" class="edge"><title>Node5&#45;&gt;Node6</title>
<path fill="none" stroke="midnightblue" d="M883.211,-174.362C891.611,-166.104 903.444,-154.472 913.28,-144.803"/>
<polygon fill="midnightblue" stroke="midnightblue" points="915.959,-147.077 920.637,-137.571 911.052,-142.085 915.959,-147.077"/>
</g>
<!-- Node7 -->
<g id="node13" class="node"><title>Node7</title>
<polygon fill="white" stroke="#bfbfbf" points="929.89,-0.5 929.89,-21.5 982.89,-21.5 982.89,-0.5 929.89,-0.5"/>
<text text-anchor="middle" x="956.39" y="-8.5" font-family="DejaVuSans" font-size="10.00">QString</text>
</g>
<!-- Node5&#45;&gt;Node7 -->
<g id="edge12" class="edge"><title>Node5&#45;&gt;Node7</title>
<path fill="none" stroke="midnightblue" d="M861.674,-174.291C840.004,-151.315 795.254,-96.2744 822.39,-58 833.908,-41.7546 884.253,-27.2955 919.834,-18.8379"/>
<polygon fill="midnightblue" stroke="midnightblue" points="920.933,-22.1761 929.887,-16.5128 919.356,-15.3561 920.933,-22.1761"/>
</g>
<!-- Node8 -->
<g id="node15" class="node"><title>Node8</title>
<polygon fill="white" stroke="#bfbfbf" points="962.89,-58.5 962.89,-79.5 1003.89,-79.5 1003.89,-58.5 962.89,-58.5"/>
<text text-anchor="middle" x="983.39" y="-66.5" font-family="DejaVuSans" font-size="10.00">QList</text>
</g>
<!-- Node5&#45;&gt;Node8 -->
<g id="edge14" class="edge"><title>Node5&#45;&gt;Node8</title>
<path fill="none" stroke="midnightblue" d="M908.883,-174.329C927.963,-166.995 950.23,-155.382 964.39,-138 975.521,-124.336 980.15,-104.631 982.065,-89.7736"/>
<polygon fill="midnightblue" stroke="midnightblue" points="985.576,-89.8303 983.063,-79.5378 978.609,-89.1509 985.576,-89.8303"/>
</g>
<!-- Node9 -->
<g id="node17" class="node"><title>Node9</title>
<polygon fill="white" stroke="#bfbfbf" points="830.89,-58.5 830.89,-79.5 899.89,-79.5 899.89,-58.5 830.89,-58.5"/>
<text text-anchor="middle" x="865.39" y="-66.5" font-family="DejaVuSans" font-size="10.00">QStringList</text>
</g>
<!-- Node5&#45;&gt;Node9 -->
<g id="edge16" class="edge"><title>Node5&#45;&gt;Node9</title>
<path fill="none" stroke="midnightblue" d="M871.744,-174.295C870.587,-155.131 868.145,-114.654 866.648,-89.8434"/>
<polygon fill="midnightblue" stroke="midnightblue" points="870.13,-89.4502 866.034,-79.6792 863.143,-89.8719 870.13,-89.4502"/>
</g>
<!-- Node10 -->
<g id="node19" class="node"><title>Node10</title>
<a xlink:href="cv___species_8h.html" target="_top" xlink:title="cv_Species.h">
<polygon fill="white" stroke="black" points="696.89,-58.5 696.89,-79.5 775.89,-79.5 775.89,-58.5 696.89,-58.5"/>
<text text-anchor="middle" x="736.39" y="-66.5" font-family="DejaVuSans" font-size="10.00">cv_Species.h</text>
</a>
</g>
<!-- Node5&#45;&gt;Node10 -->
<g id="edge18" class="edge"><title>Node5&#45;&gt;Node10</title>
<path fill="none" stroke="midnightblue" d="M847.859,-174.341C830.402,-166.02 807.013,-153.317 789.39,-138 772.93,-123.694 758.179,-103.578 748.444,-88.7557"/>
<polygon fill="midnightblue" stroke="midnightblue" points="751.126,-86.4509 742.804,-79.894 745.221,-90.2095 751.126,-86.4509"/>
</g>
<!-- Node5&#45;&gt;Node11 -->
<g id="edge22" class="edge"><title>Node5&#45;&gt;Node11</title>
<path fill="none" stroke="midnightblue" d="M820.778,-174.497C770.25,-164.214 693.554,-148.605 642.015,-138.117"/>
<polygon fill="midnightblue" stroke="midnightblue" points="642.555,-134.655 632.058,-136.09 641.159,-141.514 642.555,-134.655"/>
</g>
<!-- Node10&#45;&gt;Node7 -->
<g id="edge20" class="edge"><title>Node10&#45;&gt;Node7</title>
<path fill="none" stroke="midnightblue" d="M775.975,-58.5638C816.831,-47.7928 880.043,-31.1277 919.773,-20.6536"/>
<polygon fill="midnightblue" stroke="midnightblue" points="920.807,-24.0007 929.584,-18.067 919.022,-17.2319 920.807,-24.0007"/>
</g>
<!-- Node11&#45;&gt;Node7 -->
<g id="edge24" class="edge"><title>Node11&#45;&gt;Node7</title>
<path fill="none" stroke="midnightblue" d="M599.15,-116.434C617.04,-100.982 652.788,-72.4879 688.39,-58 766.778,-26.1009 866.706,-15.8308 919.634,-12.5395"/>
<polygon fill="midnightblue" stroke="midnightblue" points="920.097,-16.0188 929.881,-11.9539 919.698,-9.03025 920.097,-16.0188"/>
</g>
<!-- Node11&#45;&gt;Node8 -->
<g id="edge26" class="edge"><title>Node11&#45;&gt;Node8</title>
<path fill="none" stroke="midnightblue" d="M632.049,-120.465C694.059,-111.389 809.751,-94.4547 908.39,-80 922.877,-77.8771 938.937,-75.5217 952.468,-73.537"/>
<polygon fill="midnightblue" stroke="midnightblue" points="953.312,-76.9507 962.698,-72.0362 952.296,-70.0248 953.312,-76.9507"/>
</g>
<!-- Node11&#45;&gt;Node9 -->
<g id="edge28" class="edge"><title>Node11&#45;&gt;Node9</title>
<path fill="none" stroke="midnightblue" d="M632.055,-117.681C683.856,-106.874 768.753,-89.1616 820.605,-78.3436"/>
<polygon fill="midnightblue" stroke="midnightblue" points="821.441,-81.7447 830.515,-76.276 820.011,-74.8922 821.441,-81.7447"/>
</g>
<!-- Node11&#45;&gt;Node10 -->
<g id="edge30" class="edge"><title>Node11&#45;&gt;Node10</title>
<path fill="none" stroke="midnightblue" d="M614.373,-116.497C638.243,-107.205 673.283,-93.5649 699.697,-83.2832"/>
<polygon fill="midnightblue" stroke="midnightblue" points="701.307,-86.4122 709.356,-79.5231 698.768,-79.889 701.307,-86.4122"/>
</g>
<!-- Node12&#45;&gt;Node7 -->
<g id="edge34" class="edge"><title>Node12&#45;&gt;Node7</title>
<path fill="none" stroke="midnightblue" d="M1174.56,-174.498C1208.96,-163.221 1250.84,-143.188 1232.39,-116 1204.59,-75.0475 1061.71,-36.1381 993.167,-19.4874"/>
<polygon fill="midnightblue" stroke="midnightblue" points="993.764,-16.0314 983.223,-17.1018 992.131,-22.8383 993.764,-16.0314"/>
</g>
<!-- Node12&#45;&gt;Node8 -->
<g id="edge42" class="edge"><title>Node12&#45;&gt;Node8</title>
<path fill="none" stroke="midnightblue" d="M1133.63,-174.418C1130.62,-159.464 1123.1,-132.174 1106.39,-116 1080.9,-91.3324 1041.12,-79.3006 1013.74,-73.6496"/>
<polygon fill="midnightblue" stroke="midnightblue" points="1014.38,-70.2099 1003.9,-71.7832 1013.08,-77.0871 1014.38,-70.2099"/>
</g>
<!-- Node13 -->
<g id="node31" class="node"><title>Node13</title>
<a xlink:href="cv___name_8h.html" target="_top" xlink:title="cv_Name.h">
<polygon fill="white" stroke="black" points="1152.89,-116.5 1152.89,-137.5 1223.89,-137.5 1223.89,-116.5 1152.89,-116.5"/>
<text text-anchor="middle" x="1188.39" y="-124.5" font-family="DejaVuSans" font-size="10.00">cv_Name.h</text>
</a>
</g>
<!-- Node12&#45;&gt;Node13 -->
<g id="edge36" class="edge"><title>Node12&#45;&gt;Node13</title>
<path fill="none" stroke="midnightblue" d="M1145.11,-174.362C1152.58,-166.186 1163.08,-154.702 1171.86,-145.091"/>
<polygon fill="midnightblue" stroke="midnightblue" points="1174.57,-147.314 1178.73,-137.571 1169.4,-142.592 1174.57,-147.314"/>
</g>
<!-- Node13&#45;&gt;Node7 -->
<g id="edge40" class="edge"><title>Node13&#45;&gt;Node7</title>
<path fill="none" stroke="midnightblue" d="M1166.98,-116.295C1125.53,-95.5683 1034.21,-49.9089 986.6,-26.105"/>
<polygon fill="midnightblue" stroke="midnightblue" points="987.923,-22.8534 977.413,-21.5117 984.792,-29.1143 987.923,-22.8534"/>
</g>
<!-- Node13&#45;&gt;Node9 -->
<g id="edge38" class="edge"><title>Node13&#45;&gt;Node9</title>
<path fill="none" stroke="midnightblue" d="M1152.59,-120.571C1093.34,-109.933 975.032,-88.6881 910.284,-77.0614"/>
<polygon fill="midnightblue" stroke="midnightblue" points="910.83,-73.6037 900.369,-75.2811 909.593,-80.4935 910.83,-73.6037"/>
</g>
<!-- Node15&#45;&gt;Node9 -->
<g id="edge52" class="edge"><title>Node15&#45;&gt;Node9</title>
<path fill="none" stroke="midnightblue" d="M544.135,-238.218C572.608,-232.541 613.419,-220.547 640.39,-196 669.501,-169.506 647.951,-140.958 678.39,-116 699.959,-98.3145 772.688,-83.7378 820.831,-75.7168"/>
<polygon fill="midnightblue" stroke="midnightblue" points="821.398,-79.1707 830.704,-74.106 820.271,-72.262 821.398,-79.1707"/>
</g>
<!-- Node16 -->
<g id="node43" class="node"><title>Node16</title>
<polygon fill="white" stroke="#bfbfbf" points="303.39,-174.5 303.39,-195.5 385.39,-195.5 385.39,-174.5 303.39,-174.5"/>
<text text-anchor="middle" x="344.39" y="-182.5" font-family="DejaVuSans" font-size="10.00">QHBoxLayout</text>
</g>
<!-- Node15&#45;&gt;Node16 -->
<g id="edge54" class="edge"><title>Node15&#45;&gt;Node16</title>
<path fill="none" stroke="midnightblue" d="M481.147,-232.497C454.04,-223.082 414.08,-209.204 384.347,-198.877"/>
<polygon fill="midnightblue" stroke="midnightblue" points="385.284,-195.498 374.689,-195.523 382.987,-202.11 385.284,-195.498"/>
</g>
<!-- Node17 -->
<g id="node45" class="node"><title>Node17</title>
<polygon fill="white" stroke="#bfbfbf" points="403.39,-174.5 403.39,-195.5 453.39,-195.5 453.39,-174.5 403.39,-174.5"/>
<text text-anchor="middle" x="428.39" y="-182.5" font-family="DejaVuSans" font-size="10.00">QLabel</text>
</g>
<!-- Node15&#45;&gt;Node17 -->
<g id="edge56" class="edge"><title>Node15&#45;&gt;Node17</title>
<path fill="none" stroke="midnightblue" d="M496.166,-232.362C483.764,-223.696 466.044,-211.313 451.833,-201.382"/>
<polygon fill="midnightblue" stroke="midnightblue" points="453.719,-198.43 443.517,-195.571 449.709,-204.168 453.719,-198.43"/>
</g>
<!-- Node18 -->
<g id="node47" class="node"><title>Node18</title>
<polygon fill="white" stroke="#bfbfbf" points="471.39,-174.5 471.39,-195.5 551.39,-195.5 551.39,-174.5 471.39,-174.5"/>
<text text-anchor="middle" x="511.39" y="-182.5" font-family="DejaVuSans" font-size="10.00">QPushButton</text>
</g>
<!-- Node15&#45;&gt;Node18 -->
<g id="edge58" class="edge"><title>Node15&#45;&gt;Node18</title>
<path fill="none" stroke="midnightblue" d="M511.39,-232.362C511.39,-224.922 511.39,-214.743 511.39,-205.728"/>
<polygon fill="midnightblue" stroke="midnightblue" points="514.89,-205.571 511.39,-195.571 507.89,-205.571 514.89,-205.571"/>
</g>
<!-- Node19 -->
<g id="node49" class="node"><title>Node19</title>
<polygon fill="white" stroke="#bfbfbf" points="569.39,-174.5 569.39,-195.5 631.39,-195.5 631.39,-174.5 569.39,-174.5"/>
<text text-anchor="middle" x="600.39" y="-182.5" font-family="DejaVuSans" font-size="10.00">QLineEdit</text>
</g>
<!-- Node15&#45;&gt;Node19 -->
<g id="edge60" class="edge"><title>Node15&#45;&gt;Node19</title>
<path fill="none" stroke="midnightblue" d="M527.714,-232.362C541.138,-223.614 560.373,-211.079 575.682,-201.101"/>
<polygon fill="midnightblue" stroke="midnightblue" points="577.702,-203.963 584.169,-195.571 573.88,-198.098 577.702,-203.963"/>
</g>
<!-- Node20 -->
<g id="node51" class="node"><title>Node20</title>
<a xlink:href="_trait_dots_8h.html" target="_top" xlink:title="TraitDots.h">
<polygon fill="white" stroke="black" points="725.39,-174.5 725.39,-195.5 793.39,-195.5 793.39,-174.5 725.39,-174.5"/>
<text text-anchor="middle" x="759.39" y="-182.5" font-family="DejaVuSans" font-size="10.00">TraitDots.h</text>
</a>
</g>
<!-- Node15&#45;&gt;Node20 -->
<g id="edge62" class="edge"><title>Node15&#45;&gt;Node20</title>
<path fill="none" stroke="midnightblue" d="M544.066,-235.358C587.904,-225.106 665.912,-206.862 715.027,-195.375"/>
<polygon fill="midnightblue" stroke="midnightblue" points="716.106,-198.717 725.046,-193.032 714.512,-191.901 716.106,-198.717"/>
</g>
<!-- Node23 -->
<g id="node58" class="node"><title>Node23</title>
<polygon fill="white" stroke="#bfbfbf" points="89.3898,-116.5 89.3898,-137.5 145.39,-137.5 145.39,-116.5 89.3898,-116.5"/>
<text text-anchor="middle" x="117.39" y="-124.5" font-family="DejaVuSans" font-size="10.00">QWidget</text>
</g>
<!-- Node15&#45;&gt;Node23 -->
<g id="edge82" class="edge"><title>Node15&#45;&gt;Node23</title>
<path fill="none" stroke="midnightblue" d="M478.876,-240.789C393.639,-234.724 168.482,-216.883 142.39,-196 127.901,-184.404 121.807,-163.668 119.244,-147.946"/>
<polygon fill="midnightblue" stroke="midnightblue" points="122.661,-147.068 117.934,-137.586 115.717,-147.947 122.661,-147.068"/>
</g>
<!-- Node24 -->
<g id="node60" class="node"><title>Node24</title>
<a xlink:href="_trait_specialties_8h.html" target="_top" xlink:title="TraitSpecialties.h">
<polygon fill="white" stroke="black" points="150.89,-174.5 150.89,-195.5 247.89,-195.5 247.89,-174.5 150.89,-174.5"/>
<text text-anchor="middle" x="199.39" y="-182.5" font-family="DejaVuSans" font-size="10.00">TraitSpecialties.h</text>
</a>
</g>
<!-- Node15&#45;&gt;Node24 -->
<g id="edge72" class="edge"><title>Node15&#45;&gt;Node24</title>
<path fill="none" stroke="midnightblue" d="M478.883,-236.957C426.734,-227.263 323.621,-208.094 258.269,-195.946"/>
<polygon fill="midnightblue" stroke="midnightblue" points="258.59,-192.445 248.118,-194.059 257.31,-199.327 258.59,-192.445"/>
</g>
<!-- Node20&#45;&gt;Node8 -->
<g id="edge66" class="edge"><title>Node20&#45;&gt;Node8</title>
<path fill="none" stroke="midnightblue" d="M780.062,-174.295C820.002,-153.612 907.887,-108.099 953.933,-84.2543"/>
<polygon fill="midnightblue" stroke="midnightblue" points="955.821,-87.2182 963.091,-79.5117 952.602,-81.0023 955.821,-87.2182"/>
</g>
<!-- Node21 -->
<g id="node53" class="node"><title>Node21</title>
<polygon fill="white" stroke="#bfbfbf" points="1048.89,-116.5 1048.89,-137.5 1097.89,-137.5 1097.89,-116.5 1048.89,-116.5"/>
<text text-anchor="middle" x="1073.39" y="-124.5" font-family="DejaVuSans" font-size="10.00">QColor</text>
</g>
<!-- Node20&#45;&gt;Node21 -->
<g id="edge64" class="edge"><title>Node20&#45;&gt;Node21</title>
<path fill="none" stroke="midnightblue" d="M793.6,-175.99C796.566,-175.287 799.527,-174.614 802.39,-174 886.695,-155.935 986.891,-139.972 1038.62,-132.133"/>
<polygon fill="midnightblue" stroke="midnightblue" points="1039.24,-135.58 1048.6,-130.63 1038.19,-128.658 1039.24,-135.58"/>
</g>
<!-- Node22 -->
<g id="node56" class="node"><title>Node22</title>
<polygon fill="white" stroke="#bfbfbf" points="686.89,-116.5 686.89,-137.5 737.89,-137.5 737.89,-116.5 686.89,-116.5"/>
<text text-anchor="middle" x="712.39" y="-124.5" font-family="DejaVuSans" font-size="10.00">QEvent</text>
</g>
<!-- Node20&#45;&gt;Node22 -->
<g id="edge68" class="edge"><title>Node20&#45;&gt;Node22</title>
<path fill="none" stroke="midnightblue" d="M750.769,-174.362C744.21,-166.268 735.024,-154.932 727.284,-145.38"/>
<polygon fill="midnightblue" stroke="midnightblue" points="729.971,-143.136 720.956,-137.571 724.532,-147.544 729.971,-143.136"/>
</g>
<!-- Node20&#45;&gt;Node23 -->
<g id="edge70" class="edge"><title>Node20&#45;&gt;Node23</title>
<path fill="none" stroke="midnightblue" d="M725.293,-181.682C701.508,-179.408 669.026,-176.384 640.39,-174 427.812,-156.303 369.191,-176.458 155.484,-137.864"/>
<polygon fill="midnightblue" stroke="midnightblue" points="155.986,-134.397 145.52,-136.042 154.727,-141.283 155.986,-134.397"/>
</g>
<!-- Node24&#45;&gt;Node7 -->
<g id="edge74" class="edge"><title>Node24&#45;&gt;Node7</title>
<path fill="none" stroke="midnightblue" d="M231.217,-174.419C303.871,-150.6 487.839,-92.1909 645.39,-58 743.352,-36.7407 860.74,-21.8029 919.32,-15.0523"/>
<polygon fill="midnightblue" stroke="midnightblue" points="920.016,-18.4958 929.556,-13.8874 919.224,-11.5407 920.016,-18.4958"/>
</g>
<!-- Node24&#45;&gt;Node11 -->
<g id="edge76" class="edge"><title>Node24&#45;&gt;Node11</title>
<path fill="none" stroke="midnightblue" d="M248.101,-176.204C252.591,-175.44 257.072,-174.694 261.39,-174 356.647,-158.687 467.949,-143.143 532.769,-134.324"/>
<polygon fill="midnightblue" stroke="midnightblue" points="533.325,-137.781 542.763,-132.968 532.383,-130.844 533.325,-137.781"/>
</g>
<!-- Node25 -->
<g id="node64" class="node"><title>Node25</title>
<a xlink:href="_checked_list_8h.html" target="_top" xlink:title="CheckedList.h">
<polygon fill="white" stroke="black" points="162.89,-116.5 162.89,-137.5 245.89,-137.5 245.89,-116.5 162.89,-116.5"/>
<text text-anchor="middle" x="204.39" y="-124.5" font-family="DejaVuSans" font-size="10.00">CheckedList.h</text>
</a>
</g>
<!-- Node24&#45;&gt;Node25 -->
<g id="edge78" class="edge"><title>Node24&#45;&gt;Node25</title>
<path fill="none" stroke="midnightblue" d="M200.307,-174.362C200.948,-166.922 201.826,-156.743 202.603,-147.728"/>
<polygon fill="midnightblue" stroke="midnightblue" points="206.107,-147.834 203.479,-137.571 199.132,-147.233 206.107,-147.834"/>
</g>
<!-- Node26 -->
<g id="node66" class="node"><title>Node26</title>
<polygon fill="white" stroke="#bfbfbf" points="167.89,-58.5 167.89,-79.5 240.89,-79.5 240.89,-58.5 167.89,-58.5"/>
<text text-anchor="middle" x="204.39" y="-66.5" font-family="DejaVuSans" font-size="10.00">QListWidget</text>
</g>
<!-- Node25&#45;&gt;Node26 -->
<g id="edge80" class="edge"><title>Node25&#45;&gt;Node26</title>
<path fill="none" stroke="midnightblue" d="M204.39,-116.362C204.39,-108.922 204.39,-98.7427 204.39,-89.7276"/>
<polygon fill="midnightblue" stroke="midnightblue" points="207.89,-89.5706 204.39,-79.5707 200.89,-89.5707 207.89,-89.5706"/>
</g>
<!-- Node27&#45;&gt;Node5 -->
<g id="edge88" class="edge"><title>Node27&#45;&gt;Node5</title>
<path fill="none" stroke="midnightblue" d="M1152.46,-232.497C1093.65,-222.524 1005.31,-207.543 943.621,-197.08"/>
<polygon fill="midnightblue" stroke="midnightblue" points="944.019,-193.598 933.575,-195.376 942.849,-200.499 944.019,-193.598"/>
</g>
<!-- Node27&#45;&gt;Node7 -->
<g id="edge86" class="edge"><title>Node27&#45;&gt;Node7</title>
<path fill="none" stroke="midnightblue" d="M1222.21,-232.264C1237.62,-209.697 1268.7,-156.115 1248.39,-116 1228.71,-77.1406 1209.07,-75.9692 1169.39,-58 1111.07,-31.5889 1036.89,-19.5637 993.224,-14.442"/>
<polygon fill="midnightblue" stroke="midnightblue" points="993.398,-10.9399 983.072,-13.3117 992.623,-17.8969 993.398,-10.9399"/>
</g>
<!-- Node28&#45;&gt;Node7 -->
<g id="edge92" class="edge"><title>Node28&#45;&gt;Node7</title>
<path fill="none" stroke="midnightblue" d="M1385.24,-174.385C1384.26,-149.567 1378.06,-87.6157 1341.39,-58 1314.56,-36.3289 1084.06,-19.2406 993.094,-13.2809"/>
<polygon fill="midnightblue" stroke="midnightblue" points="993.171,-9.77868 982.966,-12.6258 992.719,-16.7641 993.171,-9.77868"/>
</g>
<!-- Node28&#45;&gt;Node21 -->
<g id="edge94" class="edge"><title>Node28&#45;&gt;Node21</title>
<path fill="none" stroke="midnightblue" d="M1336.3,-175.874C1272.78,-164.066 1163.69,-143.787 1108.12,-133.457"/>
<polygon fill="midnightblue" stroke="midnightblue" points="1108.54,-129.975 1098.07,-131.588 1107.26,-136.857 1108.54,-129.975"/>
</g>
<!-- Node29&#45;&gt;Node5 -->
<g id="edge102" class="edge"><title>Node29&#45;&gt;Node5</title>
<path fill="none" stroke="midnightblue" d="M1017.34,-232.497C988.481,-223.041 945.884,-209.083 914.329,-198.743"/>
<polygon fill="midnightblue" stroke="midnightblue" points="915.096,-195.311 904.503,-195.523 912.916,-201.963 915.096,-195.311"/>
</g>
<!-- Node29&#45;&gt;Node8 -->
<g id="edge98" class="edge"><title>Node29&#45;&gt;Node8</title>
<path fill="none" stroke="midnightblue" d="M1112.03,-232.415C1153.72,-224.13 1203.47,-211.44 1218.39,-196 1243.47,-170.041 1255.43,-143.79 1232.39,-116 1204.98,-82.9304 1074.5,-72.9642 1014.15,-70.0969"/>
<polygon fill="midnightblue" stroke="midnightblue" points="1014.22,-66.5966 1004.07,-69.6537 1013.91,-73.5898 1014.22,-66.5966"/>
</g>
<!-- Node29&#45;&gt;Node9 -->
<g id="edge100" class="edge"><title>Node29&#45;&gt;Node9</title>
<path fill="none" stroke="midnightblue" d="M1045.18,-232.409C1035.01,-208.183 1006.8,-148.328 964.39,-116 946.526,-102.384 924.085,-91.3308 905.087,-83.3726"/>
<polygon fill="midnightblue" stroke="midnightblue" points="906.374,-80.1176 895.791,-79.6065 903.745,-86.6054 906.374,-80.1176"/>
</g>
<!-- Node29&#45;&gt;Node12 -->
<g id="edge104" class="edge"><title>Node29&#45;&gt;Node12</title>
<path fill="none" stroke="midnightblue" d="M1065.16,-232.362C1078.01,-223.696 1096.37,-211.313 1111.1,-201.382"/>
<polygon fill="midnightblue" stroke="midnightblue" points="1113.38,-204.064 1119.72,-195.571 1109.47,-198.26 1113.38,-204.064"/>
</g>
<!-- Node29&#45;&gt;Node14 -->
<g id="edge106" class="edge"><title>Node29&#45;&gt;Node14</title>
<path fill="none" stroke="midnightblue" d="M1036.37,-232.362C1025.96,-223.859 1011.17,-211.779 999.135,-201.947"/>
<polygon fill="midnightblue" stroke="midnightblue" points="1001.29,-199.187 991.33,-195.571 996.86,-204.608 1001.29,-199.187"/>
</g>
<!-- Node31&#45;&gt;Node5 -->
<g id="edge114" class="edge"><title>Node31&#45;&gt;Node5</title>
<path fill="none" stroke="midnightblue" d="M332.063,-239.196C426.952,-232.551 624.182,-217.571 801.316,-196.067"/>
<polygon fill="midnightblue" stroke="midnightblue" points="801.839,-199.529 811.34,-194.84 800.989,-192.581 801.839,-199.529"/>
</g>
<!-- Node31&#45;&gt;Node11 -->
<g id="edge116" class="edge"><title>Node31&#45;&gt;Node11</title>
<path fill="none" stroke="midnightblue" d="M275.015,-232.313C275.106,-216.974 277.732,-188.924 294.39,-174 328.655,-143.3 457.719,-132.56 532.631,-128.872"/>
<polygon fill="midnightblue" stroke="midnightblue" points="533,-132.359 542.826,-128.397 532.674,-125.366 533,-132.359"/>
</g>
<!-- Node31&#45;&gt;Node23 -->
<g id="edge118" class="edge"><title>Node31&#45;&gt;Node23</title>
<path fill="none" stroke="midnightblue" d="M218.745,-241.356C147.991,-237.971 32.9648,-227.621 6.38979,-196 -18.3585,-166.553 38.3438,-145.848 79.4762,-135.221"/>
<polygon fill="midnightblue" stroke="midnightblue" points="80.4105,-138.595 89.2787,-132.798 78.731,-131.8 80.4105,-138.595"/>
</g>
<!-- Node32 -->
<g id="node88" class="node"><title>Node32</title>
<polygon fill="white" stroke="#bfbfbf" points="14.8898,-174.5 14.8898,-195.5 95.8898,-195.5 95.8898,-174.5 14.8898,-174.5"/>
<text text-anchor="middle" x="55.3898" y="-182.5" font-family="DejaVuSans" font-size="10.00">QVBoxLayout</text>
</g>
<!-- Node31&#45;&gt;Node32 -->
<g id="edge112" class="edge"><title>Node31&#45;&gt;Node32</title>
<path fill="none" stroke="midnightblue" d="M235.549,-232.497C198.907,-222.836 144.439,-208.477 104.99,-198.077"/>
<polygon fill="midnightblue" stroke="midnightblue" points="105.867,-194.688 95.3048,-195.523 104.082,-201.457 105.867,-194.688"/>
</g>
</g>
</svg>
