<?xml version="1.0" encoding="UTF-8" standalone="no"?>
<!DOCTYPE svg PUBLIC "-//W3C//DTD SVG 1.1//EN"
 "http://www.w3.org/Graphics/SVG/1.1/DTD/svg11.dtd">
<!-- Generated by graphviz version 2.26.3 (20100126.1600)
 -->
<!-- Title: G Pages: 1 -->
<svg width="364pt" height="262pt"
 viewBox="0.00 0.00 364.00 262.00" xmlns="http://www.w3.org/2000/svg" xmlns:xlink="http://www.w3.org/1999/xlink">
<g id="graph1" class="graph" transform="scale(1 1) rotate(0) translate(4 258)">
<title>G</title>
<polygon fill="white" stroke="white" points="-4,5 -4,-258 361,-258 361,5 -4,5"/>
<!-- Node1 -->
<g id="node1" class="node"><title>Node1</title>
<polygon fill="#bfbfbf" stroke="black" points="118,-232.5 118,-253.5 288,-253.5 288,-232.5 118,-232.5"/>
<text text-anchor="middle" x="203" y="-240.5" font-family="DejaVuSans" font-size="10.00">src/Widgets/VerticalTraitWidget.h</text>
</g>
<!-- Node2 -->
<g id="node3" class="node"><title>Node2</title>
<polygon fill="white" stroke="#bfbfbf" points="-0.5,-174.5 -0.5,-195.5 80.5,-195.5 80.5,-174.5 -0.5,-174.5"/>
<text text-anchor="middle" x="40" y="-182.5" font-family="DejaVuSans" font-size="10.00">QVBoxLayout</text>
</g>
<!-- Node1&#45;&gt;Node2 -->
<g id="edge2" class="edge"><title>Node1&#45;&gt;Node2</title>
<path fill="none" stroke="midnightblue" d="M173.482,-232.497C147.024,-223.082 108.021,-209.204 79,-198.877"/>
<polygon fill="midnightblue" stroke="midnightblue" points="80.1681,-195.578 69.5734,-195.523 77.8214,-202.173 80.1681,-195.578"/>
</g>
<!-- Node3 -->
<g id="node5" class="node"><title>Node3</title>
<a xlink:href="cv___trait_8h.html" target="_top" xlink:title="../Datatypes/cv_Trait.h">
<polygon fill="white" stroke="black" points="98,-174.5 98,-195.5 220,-195.5 220,-174.5 98,-174.5"/>
<text text-anchor="middle" x="159" y="-182.5" font-family="DejaVuSans" font-size="10.00">../Datatypes/cv_Trait.h</text>
</a>
</g>
<!-- Node1&#45;&gt;Node3 -->
<g id="edge4" class="edge"><title>Node1&#45;&gt;Node3</title>
<path fill="none" stroke="midnightblue" d="M194.93,-232.362C188.851,-224.35 180.363,-213.161 173.163,-203.67"/>
<polygon fill="midnightblue" stroke="midnightblue" points="175.851,-201.422 167.019,-195.571 170.275,-205.653 175.851,-201.422"/>
</g>
<!-- Node9 -->
<g id="node18" class="node"><title>Node9</title>
<a xlink:href="cv___trait_detail_8h.html" target="_top" xlink:title="cv_TraitDetail.h">
<polygon fill="white" stroke="black" points="203.5,-116.5 203.5,-137.5 292.5,-137.5 292.5,-116.5 203.5,-116.5"/>
<text text-anchor="middle" x="248" y="-124.5" font-family="DejaVuSans" font-size="10.00">cv_TraitDetail.h</text>
</a>
</g>
<!-- Node1&#45;&gt;Node9 -->
<g id="edge28" class="edge"><title>Node1&#45;&gt;Node9</title>
<path fill="none" stroke="midnightblue" d="M209.966,-232.161C215.702,-222.863 223.721,-208.953 229,-196 235.438,-180.202 240.436,-161.503 243.686,-147.558"/>
<polygon fill="midnightblue" stroke="midnightblue" points="247.159,-148.062 245.912,-137.541 240.326,-146.543 247.159,-148.062"/>
</g>
<!-- Node10 -->
<g id="node25" class="node"><title>Node10</title>
<polygon fill="white" stroke="#bfbfbf" points="276,-174.5 276,-195.5 332,-195.5 332,-174.5 276,-174.5"/>
<text text-anchor="middle" x="304" y="-182.5" font-family="DejaVuSans" font-size="10.00">QWidget</text>
</g>
<!-- Node1&#45;&gt;Node10 -->
<g id="edge30" class="edge"><title>Node1&#45;&gt;Node10</title>
<path fill="none" stroke="midnightblue" d="M221.525,-232.362C236.901,-223.532 258.996,-210.844 276.447,-200.822"/>
<polygon fill="midnightblue" stroke="midnightblue" points="278.664,-203.586 285.592,-195.571 275.178,-197.515 278.664,-203.586"/>
</g>
<!-- Node4 -->
<g id="node7" class="node"><title>Node4</title>
<polygon fill="white" stroke="#bfbfbf" points="61.5,-116.5 61.5,-137.5 110.5,-137.5 110.5,-116.5 61.5,-116.5"/>
<text text-anchor="middle" x="86" y="-124.5" font-family="DejaVuSans" font-size="10.00">QFlags</text>
</g>
<!-- Node3&#45;&gt;Node4 -->
<g id="edge6" class="edge"><title>Node3&#45;&gt;Node4</title>
<path fill="none" stroke="midnightblue" d="M145.611,-174.362C134.909,-165.859 119.704,-153.779 107.329,-143.947"/>
<polygon fill="midnightblue" stroke="midnightblue" points="109.311,-141.051 99.3044,-137.571 104.957,-146.532 109.311,-141.051"/>
</g>
<!-- Node5 -->
<g id="node9" class="node"><title>Node5</title>
<polygon fill="white" stroke="#bfbfbf" points="223.5,-0.5 223.5,-21.5 276.5,-21.5 276.5,-0.5 223.5,-0.5"/>
<text text-anchor="middle" x="250" y="-8.5" font-family="DejaVuSans" font-size="10.00">QString</text>
</g>
<!-- Node3&#45;&gt;Node5 -->
<g id="edge8" class="edge"><title>Node3&#45;&gt;Node5</title>
<path fill="none" stroke="midnightblue" d="M105.844,-174.406C85.7651,-167.541 64.9099,-156.309 53,-138 47.6684,-129.804 50.4381,-125.436 53,-116 60.8291,-87.1635 63.4067,-76.3356 87,-58 123.934,-29.2969 177.778,-18.1185 213.335,-13.7678"/>
<polygon fill="midnightblue" stroke="midnightblue" points="213.74,-17.2444 223.296,-12.6688 212.972,-10.2867 213.74,-17.2444"/>
</g>
<!-- Node6 -->
<g id="node11" class="node"><title>Node6</title>
<polygon fill="white" stroke="#bfbfbf" points="181.5,-58.5 181.5,-79.5 222.5,-79.5 222.5,-58.5 181.5,-58.5"/>
<text text-anchor="middle" x="202" y="-66.5" font-family="DejaVuSans" font-size="10.00">QList</text>
</g>
<!-- Node3&#45;&gt;Node6 -->
<g id="edge10" class="edge"><title>Node3&#45;&gt;Node6</title>
<path fill="none" stroke="midnightblue" d="M162.968,-174.295C170.136,-154.959 185.348,-113.923 194.521,-89.1767"/>
<polygon fill="midnightblue" stroke="midnightblue" points="197.847,-90.2723 198.041,-79.6792 191.284,-87.8392 197.847,-90.2723"/>
</g>
<!-- Node7 -->
<g id="node13" class="node"><title>Node7</title>
<polygon fill="white" stroke="#bfbfbf" points="95.5,-58.5 95.5,-79.5 164.5,-79.5 164.5,-58.5 95.5,-58.5"/>
<text text-anchor="middle" x="130" y="-66.5" font-family="DejaVuSans" font-size="10.00">QStringList</text>
</g>
<!-- Node3&#45;&gt;Node7 -->
<g id="edge12" class="edge"><title>Node3&#45;&gt;Node7</title>
<path fill="none" stroke="midnightblue" d="M156.324,-174.295C151.511,-155.045 141.322,-114.289 135.127,-89.5091"/>
<polygon fill="midnightblue" stroke="midnightblue" points="138.491,-88.5317 132.67,-79.6792 131.7,-90.2295 138.491,-88.5317"/>
</g>
<!-- Node8 -->
<g id="node15" class="node"><title>Node8</title>
<a xlink:href="cv___species_8h.html" target="_top" xlink:title="cv_Species.h">
<polygon fill="white" stroke="black" points="277.5,-58.5 277.5,-79.5 356.5,-79.5 356.5,-58.5 277.5,-58.5"/>
<text text-anchor="middle" x="317" y="-66.5" font-family="DejaVuSans" font-size="10.00">cv_Species.h</text>
</a>
</g>
<!-- Node3&#45;&gt;Node8 -->
<g id="edge14" class="edge"><title>Node3&#45;&gt;Node8</title>
<path fill="none" stroke="midnightblue" d="M206.946,-174.453C242.919,-165.596 288.093,-152.149 301,-138 312.821,-125.041 316.436,-105.102 317.32,-89.9837"/>
<polygon fill="midnightblue" stroke="midnightblue" points="320.829,-89.6344 317.554,-79.5583 313.831,-89.4771 320.829,-89.6344"/>
</g>
<!-- Node3&#45;&gt;Node9 -->
<g id="edge18" class="edge"><title>Node3&#45;&gt;Node9</title>
<path fill="none" stroke="midnightblue" d="M175.324,-174.362C188.748,-165.614 207.983,-153.079 223.293,-143.101"/>
<polygon fill="midnightblue" stroke="midnightblue" points="225.312,-145.963 231.78,-137.571 221.491,-140.098 225.312,-145.963"/>
</g>
<!-- Node8&#45;&gt;Node5 -->
<g id="edge16" class="edge"><title>Node8&#45;&gt;Node5</title>
<path fill="none" stroke="midnightblue" d="M304.711,-58.3619C294.983,-49.9408 281.202,-38.0105 269.905,-28.2308"/>
<polygon fill="midnightblue" stroke="midnightblue" points="272.062,-25.4695 262.211,-21.5707 267.481,-30.7619 272.062,-25.4695"/>
</g>
<!-- Node9&#45;&gt;Node5 -->
<g id="edge20" class="edge"><title>Node9&#45;&gt;Node5</title>
<path fill="none" stroke="midnightblue" d="M248.185,-116.295C248.515,-97.1314 249.213,-56.654 249.641,-31.8434"/>
<polygon fill="midnightblue" stroke="midnightblue" points="253.143,-31.7381 249.816,-21.6792 246.144,-31.6173 253.143,-31.7381"/>
</g>
<!-- Node9&#45;&gt;Node6 -->
<g id="edge22" class="edge"><title>Node9&#45;&gt;Node6</title>
<path fill="none" stroke="midnightblue" d="M239.563,-116.362C233.208,-108.35 224.334,-97.1605 216.807,-87.6696"/>
<polygon fill="midnightblue" stroke="midnightblue" points="219.34,-85.2308 210.384,-79.5707 213.855,-89.5805 219.34,-85.2308"/>
</g>
<!-- Node9&#45;&gt;Node7 -->
<g id="edge24" class="edge"><title>Node9&#45;&gt;Node7</title>
<path fill="none" stroke="midnightblue" d="M226.631,-116.497C208.201,-107.438 181.363,-94.2462 160.645,-84.0628"/>
<polygon fill="midnightblue" stroke="midnightblue" points="162.127,-80.8914 151.609,-79.6212 159.039,-87.1735 162.127,-80.8914"/>
</g>
<!-- Node9&#45;&gt;Node8 -->
<g id="edge26" class="edge"><title>Node9&#45;&gt;Node8</title>
<path fill="none" stroke="midnightblue" d="M260.656,-116.362C270.674,-107.941 284.867,-96.0105 296.501,-86.2308"/>
<polygon fill="midnightblue" stroke="midnightblue" points="299.022,-88.6844 304.425,-79.5707 294.518,-83.326 299.022,-88.6844"/>
</g>
</g>
</svg>
