<?xml version="1.0" encoding="UTF-8" standalone="no"?>
<!DOCTYPE svg PUBLIC "-//W3C//DTD SVG 1.1//EN"
 "http://www.w3.org/Graphics/SVG/1.1/DTD/svg11.dtd">
<!-- Generated by graphviz version 2.26.3 (20100126.1600)
 -->
<!-- Title: G Pages: 1 -->
<svg width="1021pt" height="378pt"
 viewBox="0.00 0.00 1020.58 378.00" xmlns="http://www.w3.org/2000/svg" xmlns:xlink="http://www.w3.org/1999/xlink">
<g id="graph1" class="graph" transform="scale(1 1) rotate(0) translate(4 374)">
<title>G</title>
<polygon fill="white" stroke="white" points="-4,5 -4,-374 1017.58,-374 1017.58,5 -4,5"/>
<!-- Node1 -->
<g id="node1" class="node"><title>Node1</title>
<polygon fill="#bfbfbf" stroke="black" points="379.5,-348.5 379.5,-369.5 522.5,-369.5 522.5,-348.5 379.5,-348.5"/>
<text text-anchor="middle" x="451" y="-356.5" font-family="DejaVuSans" font-size="10.00">src/IO/WriteXmlCharacter.h</text>
</g>
<!-- Node2 -->
<g id="node3" class="node"><title>Node2</title>
<polygon fill="white" stroke="#bfbfbf" points="-0.5,-290.5 -0.5,-311.5 38.5,-311.5 38.5,-290.5 -0.5,-290.5"/>
<text text-anchor="middle" x="19" y="-298.5" font-family="DejaVuSans" font-size="10.00">QFile</text>
</g>
<!-- Node1&#45;&gt;Node2 -->
<g id="edge2" class="edge"><title>Node1&#45;&gt;Node2</title>
<path fill="none" stroke="midnightblue" d="M379.268,-354.981C298.821,-349.452 164.836,-337.173 52,-312 50.9096,-311.757 49.8044,-311.491 48.6924,-311.208"/>
<polygon fill="midnightblue" stroke="midnightblue" points="49.2882,-307.736 38.7083,-308.299 47.3299,-314.456 49.2882,-307.736"/>
</g>
<!-- Node3 -->
<g id="node5" class="node"><title>Node3</title>
<polygon fill="white" stroke="#bfbfbf" points="417.5,-174.5 417.5,-195.5 472.5,-195.5 472.5,-174.5 417.5,-174.5"/>
<text text-anchor="middle" x="445" y="-182.5" font-family="DejaVuSans" font-size="10.00">QObject</text>
</g>
<!-- Node1&#45;&gt;Node3 -->
<g id="edge4" class="edge"><title>Node1&#45;&gt;Node3</title>
<path fill="none" stroke="midnightblue" d="M450.634,-348.377C449.665,-320.293 447.023,-243.673 445.731,-206.203"/>
<polygon fill="midnightblue" stroke="midnightblue" points="449.219,-205.801 445.377,-195.928 442.224,-206.042 449.219,-205.801"/>
</g>
<!-- Node4 -->
<g id="node7" class="node"><title>Node4</title>
<a xlink:href="_storage_character_8h.html" target="_top" xlink:title="../Storage/StorageCharacter.h">
<polygon fill="white" stroke="black" points="516.5,-290.5 516.5,-311.5 677.5,-311.5 677.5,-290.5 516.5,-290.5"/>
<text text-anchor="middle" x="597" y="-298.5" font-family="DejaVuSans" font-size="10.00">../Storage/StorageCharacter.h</text>
</a>
</g>
<!-- Node1&#45;&gt;Node4 -->
<g id="edge6" class="edge"><title>Node1&#45;&gt;Node4</title>
<path fill="none" stroke="midnightblue" d="M477.439,-348.497C500.756,-339.234 534.95,-325.65 560.804,-315.379"/>
<polygon fill="midnightblue" stroke="midnightblue" points="562.263,-318.566 570.264,-311.621 559.678,-312.06 562.263,-318.566"/>
</g>
<!-- Node11 -->
<g id="node25" class="node"><title>Node11</title>
<a xlink:href="cv___trait_8h.html" target="_top" xlink:title="../Datatypes/cv_Trait.h">
<polygon fill="white" stroke="black" points="528,-174.5 528,-195.5 650,-195.5 650,-174.5 528,-174.5"/>
<text text-anchor="middle" x="589" y="-182.5" font-family="DejaVuSans" font-size="10.00">../Datatypes/cv_Trait.h</text>
</a>
</g>
<!-- Node1&#45;&gt;Node11 -->
<g id="edge86" class="edge"><title>Node1&#45;&gt;Node11</title>
<path fill="none" stroke="midnightblue" d="M459.425,-348.377C482.179,-319.688 545.103,-240.348 574.062,-203.835"/>
<polygon fill="midnightblue" stroke="midnightblue" points="576.861,-205.938 580.333,-195.928 571.377,-201.588 576.861,-205.938"/>
</g>
<!-- Node13 -->
<g id="node32" class="node"><title>Node13</title>
<a xlink:href="cv___species_8h.html" target="_top" xlink:title="cv_Species.h">
<polygon fill="white" stroke="black" points="289.5,-58.5 289.5,-79.5 368.5,-79.5 368.5,-58.5 289.5,-58.5"/>
<text text-anchor="middle" x="329" y="-66.5" font-family="DejaVuSans" font-size="10.00">cv_Species.h</text>
</a>
</g>
<!-- Node1&#45;&gt;Node13 -->
<g id="edge84" class="edge"><title>Node1&#45;&gt;Node13</title>
<path fill="none" stroke="midnightblue" d="M379.487,-352.184C268.148,-339.568 66,-307.747 66,-243 66,-243 66,-243 66,-185 66,-147.387 83.6365,-136.762 115,-116 141.52,-98.4445 224.705,-83.7696 279.21,-75.7028"/>
<polygon fill="midnightblue" stroke="midnightblue" points="279.976,-79.1284 289.368,-74.2264 278.969,-72.2012 279.976,-79.1284"/>
</g>
<!-- Node19 -->
<g id="node63" class="node"><title>Node19</title>
<polygon fill="white" stroke="#bfbfbf" points="694.5,-290.5 694.5,-311.5 799.5,-311.5 799.5,-290.5 694.5,-290.5"/>
<text text-anchor="middle" x="747" y="-298.5" font-family="DejaVuSans" font-size="10.00">QXmlStreamWriter</text>
</g>
<!-- Node1&#45;&gt;Node19 -->
<g id="edge88" class="edge"><title>Node1&#45;&gt;Node19</title>
<path fill="none" stroke="midnightblue" d="M504.603,-348.497C555.157,-338.591 630.93,-323.744 684.272,-313.291"/>
<polygon fill="midnightblue" stroke="midnightblue" points="685.153,-316.685 694.293,-311.328 683.807,-309.816 685.153,-316.685"/>
</g>
<!-- Node4&#45;&gt;Node3 -->
<g id="edge82" class="edge"><title>Node4&#45;&gt;Node3</title>
<path fill="none" stroke="midnightblue" d="M582.973,-290.295C556.504,-270.096 499.007,-226.216 467.228,-201.963"/>
<polygon fill="midnightblue" stroke="midnightblue" points="469.066,-198.964 458.993,-195.679 464.82,-204.528 469.066,-198.964"/>
</g>
<!-- Node5 -->
<g id="node9" class="node"><title>Node5</title>
<a xlink:href="cv___identity_8h.html" target="_top" xlink:title="../Datatypes/cv_Identity.h">
<polygon fill="white" stroke="black" points="863.5,-116.5 863.5,-137.5 1000.5,-137.5 1000.5,-116.5 863.5,-116.5"/>
<text text-anchor="middle" x="932" y="-124.5" font-family="DejaVuSans" font-size="10.00">../Datatypes/cv_Identity.h</text>
</a>
</g>
<!-- Node4&#45;&gt;Node5 -->
<g id="edge8" class="edge"><title>Node4&#45;&gt;Node5</title>
<path fill="none" stroke="midnightblue" d="M647.836,-290.473C727.675,-272.933 877.081,-235.713 913,-196 924.822,-182.929 929.376,-163.16 931.088,-148.127"/>
<polygon fill="midnightblue" stroke="midnightblue" points="934.609,-147.992 931.915,-137.745 927.631,-147.435 934.609,-147.992"/>
</g>
<!-- Node9 -->
<g id="node19" class="node"><title>Node9</title>
<a xlink:href="cv___identity_list_8h.html" target="_top" xlink:title="../Datatypes/cv_IdentityList.h">
<polygon fill="white" stroke="black" points="749.5,-174.5 749.5,-195.5 904.5,-195.5 904.5,-174.5 749.5,-174.5"/>
<text text-anchor="middle" x="827" y="-182.5" font-family="DejaVuSans" font-size="10.00">../Datatypes/cv_IdentityList.h</text>
</a>
</g>
<!-- Node4&#45;&gt;Node9 -->
<g id="edge20" class="edge"><title>Node4&#45;&gt;Node9</title>
<path fill="none" stroke="midnightblue" d="M636.961,-290.447C664.522,-282.372 701.538,-269.921 732,-254 759.886,-239.425 788.682,-217.341 807.153,-202.101"/>
<polygon fill="midnightblue" stroke="midnightblue" points="809.456,-204.738 814.872,-195.633 804.96,-199.373 809.456,-204.738"/>
</g>
<!-- Node4&#45;&gt;Node11 -->
<g id="edge28" class="edge"><title>Node4&#45;&gt;Node11</title>
<path fill="none" stroke="midnightblue" d="M596.262,-290.295C594.94,-271.131 592.149,-230.654 590.437,-205.843"/>
<polygon fill="midnightblue" stroke="midnightblue" points="593.916,-205.415 589.736,-195.679 586.933,-205.896 593.916,-205.415"/>
</g>
<!-- Node16 -->
<g id="node45" class="node"><title>Node16</title>
<a xlink:href="cv___derangement_8h.html" target="_top" xlink:title="../Datatypes/cv_Derangement.h">
<polygon fill="white" stroke="black" points="95,-174.5 95,-195.5 265,-195.5 265,-174.5 95,-174.5"/>
<text text-anchor="middle" x="180" y="-182.5" font-family="DejaVuSans" font-size="10.00">../Datatypes/cv_Derangement.h</text>
</a>
</g>
<!-- Node4&#45;&gt;Node16 -->
<g id="edge58" class="edge"><title>Node4&#45;&gt;Node16</title>
<path fill="none" stroke="midnightblue" d="M558.889,-290.398C482.573,-269.169 311.174,-221.49 227.615,-198.245"/>
<polygon fill="midnightblue" stroke="midnightblue" points="228.444,-194.843 217.872,-195.535 226.568,-201.587 228.444,-194.843"/>
</g>
<!-- Node17 -->
<g id="node50" class="node"><title>Node17</title>
<a xlink:href="_storage_template_8h.html" target="_top" xlink:title="StorageTemplate.h">
<polygon fill="white" stroke="black" points="616.5,-232.5 616.5,-253.5 723.5,-253.5 723.5,-232.5 616.5,-232.5"/>
<text text-anchor="middle" x="670" y="-240.5" font-family="DejaVuSans" font-size="10.00">StorageTemplate.h</text>
</a>
</g>
<!-- Node4&#45;&gt;Node17 -->
<g id="edge66" class="edge"><title>Node4&#45;&gt;Node17</title>
<path fill="none" stroke="midnightblue" d="M610.389,-290.362C621.091,-281.859 636.296,-269.779 648.671,-259.947"/>
<polygon fill="midnightblue" stroke="midnightblue" points="651.043,-262.532 656.696,-253.571 646.689,-257.051 651.043,-262.532"/>
</g>
<!-- Node6 -->
<g id="node11" class="node"><title>Node6</title>
<polygon fill="white" stroke="#bfbfbf" points="892.5,-0.5 892.5,-21.5 961.5,-21.5 961.5,-0.5 892.5,-0.5"/>
<text text-anchor="middle" x="927" y="-8.5" font-family="DejaVuSans" font-size="10.00">QStringList</text>
</g>
<!-- Node5&#45;&gt;Node6 -->
<g id="edge10" class="edge"><title>Node5&#45;&gt;Node6</title>
<path fill="none" stroke="midnightblue" d="M944.903,-116.469C959.34,-103.319 979.645,-79.8843 971,-58 966.472,-46.5388 957.684,-36.2323 949.144,-28.2117"/>
<polygon fill="midnightblue" stroke="midnightblue" points="951.33,-25.474 941.501,-21.5208 946.72,-30.7411 951.33,-25.474"/>
</g>
<!-- Node7 -->
<g id="node13" class="node"><title>Node7</title>
<polygon fill="white" stroke="#bfbfbf" points="474.5,-0.5 474.5,-21.5 527.5,-21.5 527.5,-0.5 474.5,-0.5"/>
<text text-anchor="middle" x="501" y="-8.5" font-family="DejaVuSans" font-size="10.00">QString</text>
</g>
<!-- Node5&#45;&gt;Node7 -->
<g id="edge12" class="edge"><title>Node5&#45;&gt;Node7</title>
<path fill="none" stroke="midnightblue" d="M921.542,-116.246C905.569,-100.555 873.415,-71.7601 840,-58 785.756,-35.6626 613.501,-19.8213 537.561,-13.7447"/>
<polygon fill="midnightblue" stroke="midnightblue" points="537.751,-10.2489 527.507,-12.9524 537.201,-17.2273 537.751,-10.2489"/>
</g>
<!-- Node8 -->
<g id="node15" class="node"><title>Node8</title>
<a xlink:href="cv___name_8h.html" target="_top" xlink:title="cv_Name.h">
<polygon fill="white" stroke="black" points="891.5,-58.5 891.5,-79.5 962.5,-79.5 962.5,-58.5 891.5,-58.5"/>
<text text-anchor="middle" x="927" y="-66.5" font-family="DejaVuSans" font-size="10.00">cv_Name.h</text>
</a>
</g>
<!-- Node5&#45;&gt;Node8 -->
<g id="edge14" class="edge"><title>Node5&#45;&gt;Node8</title>
<path fill="none" stroke="midnightblue" d="M931.083,-116.362C930.442,-108.922 929.564,-98.7427 928.787,-89.7276"/>
<polygon fill="midnightblue" stroke="midnightblue" points="932.257,-89.2331 927.911,-79.5707 925.283,-89.8343 932.257,-89.2331"/>
</g>
<!-- Node8&#45;&gt;Node6 -->
<g id="edge16" class="edge"><title>Node8&#45;&gt;Node6</title>
<path fill="none" stroke="midnightblue" d="M927,-58.3619C927,-50.9219 927,-40.7427 927,-31.7276"/>
<polygon fill="midnightblue" stroke="midnightblue" points="930.5,-31.5706 927,-21.5707 923.5,-31.5707 930.5,-31.5706"/>
</g>
<!-- Node8&#45;&gt;Node7 -->
<g id="edge18" class="edge"><title>Node8&#45;&gt;Node7</title>
<path fill="none" stroke="midnightblue" d="M891.486,-60.6034C886.96,-59.6584 882.381,-58.7629 878,-58 754.023,-36.4084 605.438,-20.8944 537.788,-14.392"/>
<polygon fill="midnightblue" stroke="midnightblue" points="537.928,-10.8897 527.641,-13.4263 537.265,-17.8582 537.928,-10.8897"/>
</g>
<!-- Node9&#45;&gt;Node5 -->
<g id="edge24" class="edge"><title>Node9&#45;&gt;Node5</title>
<path fill="none" stroke="midnightblue" d="M846.259,-174.362C862.466,-165.409 885.853,-152.491 904.109,-142.406"/>
<polygon fill="midnightblue" stroke="midnightblue" points="905.802,-145.47 912.863,-137.571 902.418,-139.342 905.802,-145.47"/>
</g>
<!-- Node9&#45;&gt;Node7 -->
<g id="edge22" class="edge"><title>Node9&#45;&gt;Node7</title>
<path fill="none" stroke="midnightblue" d="M822.03,-174.304C809.809,-149.31 775.704,-87.0079 727,-58 695.462,-39.2161 593.331,-23.2478 537.789,-15.6844"/>
<polygon fill="midnightblue" stroke="midnightblue" points="538.038,-12.1866 527.662,-14.3282 537.109,-19.1246 538.038,-12.1866"/>
</g>
<!-- Node10 -->
<g id="node23" class="node"><title>Node10</title>
<polygon fill="white" stroke="#bfbfbf" points="677.5,-58.5 677.5,-79.5 718.5,-79.5 718.5,-58.5 677.5,-58.5"/>
<text text-anchor="middle" x="698" y="-66.5" font-family="DejaVuSans" font-size="10.00">QList</text>
</g>
<!-- Node9&#45;&gt;Node10 -->
<g id="edge26" class="edge"><title>Node9&#45;&gt;Node10</title>
<path fill="none" stroke="midnightblue" d="M815.095,-174.295C792.824,-154.268 744.667,-110.964 717.561,-86.5893"/>
<polygon fill="midnightblue" stroke="midnightblue" points="719.652,-83.7632 709.876,-79.6792 714.972,-88.9682 719.652,-83.7632"/>
</g>
<!-- Node11&#45;&gt;Node6 -->
<g id="edge36" class="edge"><title>Node11&#45;&gt;Node6</title>
<path fill="none" stroke="midnightblue" d="M611.451,-174.386C631.179,-164.997 660.616,-150.833 686,-138 763.429,-98.8541 853.645,-50.595 898.56,-26.3862"/>
<polygon fill="midnightblue" stroke="midnightblue" points="900.297,-29.426 907.436,-21.5973 896.973,-23.2655 900.297,-29.426"/>
</g>
<!-- Node11&#45;&gt;Node7 -->
<g id="edge32" class="edge"><title>Node11&#45;&gt;Node7</title>
<path fill="none" stroke="midnightblue" d="M543.992,-174.41C524.815,-167.43 504.295,-156.106 493,-138 472.458,-105.07 483.877,-57.5276 493.065,-30.9359"/>
<polygon fill="midnightblue" stroke="midnightblue" points="496.355,-32.1305 496.526,-21.537 489.786,-29.7116 496.355,-32.1305"/>
</g>
<!-- Node11&#45;&gt;Node10 -->
<g id="edge34" class="edge"><title>Node11&#45;&gt;Node10</title>
<path fill="none" stroke="midnightblue" d="M613.44,-174.403C629.731,-166.345 650.699,-153.932 665,-138 677.562,-124.005 686.325,-104.377 691.647,-89.6319"/>
<polygon fill="midnightblue" stroke="midnightblue" points="695.047,-90.5024 694.92,-79.9083 688.413,-88.2695 695.047,-90.5024"/>
</g>
<!-- Node12 -->
<g id="node27" class="node"><title>Node12</title>
<polygon fill="white" stroke="#bfbfbf" points="607.5,-116.5 607.5,-137.5 656.5,-137.5 656.5,-116.5 607.5,-116.5"/>
<text text-anchor="middle" x="632" y="-124.5" font-family="DejaVuSans" font-size="10.00">QFlags</text>
</g>
<!-- Node11&#45;&gt;Node12 -->
<g id="edge30" class="edge"><title>Node11&#45;&gt;Node12</title>
<path fill="none" stroke="midnightblue" d="M596.887,-174.362C602.827,-166.35 611.122,-155.161 618.159,-145.67"/>
<polygon fill="midnightblue" stroke="midnightblue" points="621.019,-147.688 624.163,-137.571 615.396,-143.519 621.019,-147.688"/>
</g>
<!-- Node11&#45;&gt;Node13 -->
<g id="edge38" class="edge"><title>Node11&#45;&gt;Node13</title>
<path fill="none" stroke="midnightblue" d="M556.179,-174.414C529.815,-165.585 492.035,-152.194 460,-138 449.78,-133.471 392.961,-103.237 357.592,-84.3234"/>
<polygon fill="midnightblue" stroke="midnightblue" points="359.141,-81.1826 348.673,-79.5504 355.838,-87.3545 359.141,-81.1826"/>
</g>
<!-- Node14 -->
<g id="node35" class="node"><title>Node14</title>
<a xlink:href="cv___trait_detail_8h.html" target="_top" xlink:title="cv_TraitDetail.h">
<polygon fill="white" stroke="black" points="501.5,-116.5 501.5,-137.5 590.5,-137.5 590.5,-116.5 501.5,-116.5"/>
<text text-anchor="middle" x="546" y="-124.5" font-family="DejaVuSans" font-size="10.00">cv_TraitDetail.h</text>
</a>
</g>
<!-- Node11&#45;&gt;Node14 -->
<g id="edge42" class="edge"><title>Node11&#45;&gt;Node14</title>
<path fill="none" stroke="midnightblue" d="M581.113,-174.362C575.173,-166.35 566.878,-155.161 559.841,-145.67"/>
<polygon fill="midnightblue" stroke="midnightblue" points="562.604,-143.519 553.837,-137.571 556.981,-147.688 562.604,-143.519"/>
</g>
<!-- Node15 -->
<g id="node41" class="node"><title>Node15</title>
<a xlink:href="cv___abstract_trait_8h.html" target="_top" xlink:title="cv_AbstractTrait.h">
<polygon fill="white" stroke="black" points="131.5,-116.5 131.5,-137.5 232.5,-137.5 232.5,-116.5 131.5,-116.5"/>
<text text-anchor="middle" x="182" y="-124.5" font-family="DejaVuSans" font-size="10.00">cv_AbstractTrait.h</text>
</a>
</g>
<!-- Node11&#45;&gt;Node15 -->
<g id="edge52" class="edge"><title>Node11&#45;&gt;Node15</title>
<path fill="none" stroke="midnightblue" d="M527.886,-177.686C460.391,-169.398 348.266,-155.005 242.397,-138.171"/>
<polygon fill="midnightblue" stroke="midnightblue" points="242.929,-134.712 232.502,-136.588 241.823,-141.624 242.929,-134.712"/>
</g>
<!-- Node13&#45;&gt;Node7 -->
<g id="edge40" class="edge"><title>Node13&#45;&gt;Node7</title>
<path fill="none" stroke="midnightblue" d="M360.148,-58.4966C389.586,-48.5698 433.741,-33.6802 464.748,-23.2246"/>
<polygon fill="midnightblue" stroke="midnightblue" points="465.96,-26.5095 474.317,-19.9976 463.723,-19.8765 465.96,-26.5095"/>
</g>
<!-- Node14&#45;&gt;Node6 -->
<g id="edge48" class="edge"><title>Node14&#45;&gt;Node6</title>
<path fill="none" stroke="midnightblue" d="M561.122,-116.316C583.571,-100.98 627.535,-72.9347 669,-58 741.083,-32.0372 829.883,-19.8986 882.274,-14.6282"/>
<polygon fill="midnightblue" stroke="midnightblue" points="882.634,-18.1098 892.251,-13.6637 881.96,-11.1423 882.634,-18.1098"/>
</g>
<!-- Node14&#45;&gt;Node7 -->
<g id="edge44" class="edge"><title>Node14&#45;&gt;Node7</title>
<path fill="none" stroke="midnightblue" d="M541.847,-116.295C534.346,-96.9588 518.427,-55.9229 508.827,-31.1767"/>
<polygon fill="midnightblue" stroke="midnightblue" points="512.023,-29.7364 505.143,-21.6792 505.496,-32.2681 512.023,-29.7364"/>
</g>
<!-- Node14&#45;&gt;Node10 -->
<g id="edge46" class="edge"><title>Node14&#45;&gt;Node10</title>
<path fill="none" stroke="midnightblue" d="M573.526,-116.497C600.194,-106.321 640.528,-90.93 668.003,-80.4462"/>
<polygon fill="midnightblue" stroke="midnightblue" points="669.399,-83.6596 677.494,-76.8245 666.904,-77.1196 669.399,-83.6596"/>
</g>
<!-- Node14&#45;&gt;Node13 -->
<g id="edge50" class="edge"><title>Node14&#45;&gt;Node13</title>
<path fill="none" stroke="midnightblue" d="M506.703,-116.497C470.713,-106.877 417.29,-92.5981 378.42,-82.209"/>
<polygon fill="midnightblue" stroke="midnightblue" points="378.935,-78.724 368.371,-79.5231 377.128,-85.4866 378.935,-78.724"/>
</g>
<!-- Node15&#45;&gt;Node7 -->
<g id="edge54" class="edge"><title>Node15&#45;&gt;Node7</title>
<path fill="none" stroke="midnightblue" d="M193.849,-116.337C211.517,-101.029 246.409,-73.0172 281,-58 342.027,-31.5061 419.247,-19.4606 464.089,-14.366"/>
<polygon fill="midnightblue" stroke="midnightblue" points="464.659,-17.825 474.225,-13.2709 463.907,-10.8655 464.659,-17.825"/>
</g>
<!-- Node15&#45;&gt;Node13 -->
<g id="edge56" class="edge"><title>Node15&#45;&gt;Node13</title>
<path fill="none" stroke="midnightblue" d="M208.621,-116.497C232.097,-107.234 266.525,-93.6499 292.556,-83.3793"/>
<polygon fill="midnightblue" stroke="midnightblue" points="294.063,-86.5473 302.081,-79.6212 291.494,-80.0358 294.063,-86.5473"/>
</g>
<!-- Node16&#45;&gt;Node7 -->
<g id="edge60" class="edge"><title>Node16&#45;&gt;Node7</title>
<path fill="none" stroke="midnightblue" d="M156.964,-174.407C132.765,-161.738 100.122,-139.304 115,-116 153.065,-56.3743 374.986,-25.1537 464.041,-14.8886"/>
<polygon fill="midnightblue" stroke="midnightblue" points="464.677,-18.3392 474.222,-13.7402 463.892,-11.3833 464.677,-18.3392"/>
</g>
<!-- Node16&#45;&gt;Node13 -->
<g id="edge62" class="edge"><title>Node16&#45;&gt;Node13</title>
<path fill="none" stroke="midnightblue" d="M160.234,-174.337C137.795,-160.859 106.336,-136.894 123,-116 142.178,-91.9538 224.623,-79.2433 279.22,-73.3356"/>
<polygon fill="midnightblue" stroke="midnightblue" points="279.821,-76.7921 289.405,-72.2769 279.097,-69.8296 279.821,-76.7921"/>
</g>
<!-- Node16&#45;&gt;Node15 -->
<g id="edge64" class="edge"><title>Node16&#45;&gt;Node15</title>
<path fill="none" stroke="midnightblue" d="M180.367,-174.362C180.623,-166.922 180.974,-156.743 181.285,-147.728"/>
<polygon fill="midnightblue" stroke="midnightblue" points="184.789,-147.685 181.635,-137.571 177.793,-147.444 184.789,-147.685"/>
</g>
<!-- Node17&#45;&gt;Node3 -->
<g id="edge80" class="edge"><title>Node17&#45;&gt;Node3</title>
<path fill="none" stroke="midnightblue" d="M627.943,-232.41C590.624,-222.977 534.64,-208.736 486,-196 484.931,-195.72 483.846,-195.435 482.751,-195.147"/>
<polygon fill="midnightblue" stroke="midnightblue" points="483.34,-191.682 472.777,-192.501 481.545,-198.448 483.34,-191.682"/>
</g>
<!-- Node17&#45;&gt;Node6 -->
<g id="edge70" class="edge"><title>Node17&#45;&gt;Node6</title>
<path fill="none" stroke="midnightblue" d="M723.63,-238.106C773.888,-232.257 850.438,-220.069 913,-196 959.525,-178.101 984.506,-181.416 1009,-138 1022.74,-113.644 990.699,-64.3405 986,-58 977.114,-46.0109 964.449,-35.3826 953.129,-27.2792"/>
<polygon fill="midnightblue" stroke="midnightblue" points="955.05,-24.3524 944.82,-21.5939 951.097,-30.1295 955.05,-24.3524"/>
</g>
<!-- Node17&#45;&gt;Node9 -->
<g id="edge74" class="edge"><title>Node17&#45;&gt;Node9</title>
<path fill="none" stroke="midnightblue" d="M698.432,-232.497C723.805,-223.123 761.157,-209.324 789.07,-199.012"/>
<polygon fill="midnightblue" stroke="midnightblue" points="790.348,-202.272 798.515,-195.523 787.922,-195.705 790.348,-202.272"/>
</g>
<!-- Node17&#45;&gt;Node10 -->
<g id="edge68" class="edge"><title>Node17&#45;&gt;Node10</title>
<path fill="none" stroke="midnightblue" d="M671.709,-232.377C676.229,-204.293 688.558,-127.673 694.588,-90.2027"/>
<polygon fill="midnightblue" stroke="midnightblue" points="698.108,-90.3568 696.242,-79.9277 691.197,-89.2446 698.108,-90.3568"/>
</g>
<!-- Node17&#45;&gt;Node11 -->
<g id="edge72" class="edge"><title>Node17&#45;&gt;Node11</title>
<path fill="none" stroke="midnightblue" d="M655.143,-232.362C643.154,-223.777 626.073,-211.546 612.272,-201.664"/>
<polygon fill="midnightblue" stroke="midnightblue" points="613.931,-198.547 603.762,-195.571 609.855,-204.238 613.931,-198.547"/>
</g>
<!-- Node18 -->
<g id="node56" class="node"><title>Node18</title>
<a xlink:href="cv___super_effect_8h.html" target="_top" xlink:title="../Datatypes/cv_SuperEffect.h">
<polygon fill="white" stroke="black" points="250,-116.5 250,-137.5 408,-137.5 408,-116.5 250,-116.5"/>
<text text-anchor="middle" x="329" y="-124.5" font-family="DejaVuSans" font-size="10.00">../Datatypes/cv_SuperEffect.h</text>
</a>
</g>
<!-- Node17&#45;&gt;Node18 -->
<g id="edge76" class="edge"><title>Node17&#45;&gt;Node18</title>
<path fill="none" stroke="midnightblue" d="M627.426,-232.48C596.66,-224.226 554.454,-211.547 519,-196 501.128,-188.163 498.879,-181.821 481,-174 449.055,-160.027 411.657,-148.406 381.95,-140.216"/>
<polygon fill="midnightblue" stroke="midnightblue" points="382.757,-136.808 372.19,-137.571 380.926,-143.565 382.757,-136.808"/>
</g>
<!-- Node18&#45;&gt;Node13 -->
<g id="edge78" class="edge"><title>Node18&#45;&gt;Node13</title>
<path fill="none" stroke="midnightblue" d="M329,-116.362C329,-108.922 329,-98.7427 329,-89.7276"/>
<polygon fill="midnightblue" stroke="midnightblue" points="332.5,-89.5706 329,-79.5707 325.5,-89.5707 332.5,-89.5706"/>
</g>
</g>
</svg>
