<?xml version="1.0" encoding="UTF-8" standalone="no"?>
<!DOCTYPE svg PUBLIC "-//W3C//DTD SVG 1.1//EN"
 "http://www.w3.org/Graphics/SVG/1.1/DTD/svg11.dtd">
<!-- Generated by graphviz version 2.26.3 (20100126.1600)
 -->
<!-- Title: G Pages: 1 -->
<svg width="688pt" height="88pt"
 viewBox="0.00 0.00 688.00 88.00" xmlns="http://www.w3.org/2000/svg" xmlns:xlink="http://www.w3.org/1999/xlink">
<g id="graph1" class="graph" transform="scale(1 1) rotate(0) translate(4 84)">
<title>G</title>
<polygon fill="white" stroke="white" points="-4,5 -4,-84 685,-84 685,5 -4,5"/>
<!-- Node1 -->
<g id="node1" class="node"><title>Node1</title>
<polygon fill="#bfbfbf" stroke="black" points="211.5,-58.5 211.5,-79.5 354.5,-79.5 354.5,-58.5 211.5,-58.5"/>
<text text-anchor="middle" x="283" y="-66.5" font-family="DejaVuSans" font-size="10.00">src/IO/WriteXmlCharacter.h</text>
</g>
<!-- Node2 -->
<g id="node3" class="node"><title>Node2</title>
<polygon fill="white" stroke="#bfbfbf" points="-0.5,-0.5 -0.5,-21.5 38.5,-21.5 38.5,-0.5 -0.5,-0.5"/>
<text text-anchor="middle" x="19" y="-8.5" font-family="DejaVuSans" font-size="10.00">QFile</text>
</g>
<!-- Node1&#45;&gt;Node2 -->
<g id="edge2" class="edge"><title>Node1&#45;&gt;Node2</title>
<path fill="none" stroke="midnightblue" d="M213.284,-58.4657C168.285,-50.8942 108.462,-39.3887 48.3766,-22.0824"/>
<polygon fill="midnightblue" stroke="midnightblue" points="49.3141,-18.71 38.7333,-19.2547 47.3444,-25.4272 49.3141,-18.71"/>
</g>
<!-- Node3 -->
<g id="node5" class="node"><title>Node3</title>
<polygon fill="white" stroke="#bfbfbf" points="55.5,-0.5 55.5,-21.5 110.5,-21.5 110.5,-0.5 55.5,-0.5"/>
<text text-anchor="middle" x="83" y="-8.5" font-family="DejaVuSans" font-size="10.00">QObject</text>
</g>
<!-- Node1&#45;&gt;Node3 -->
<g id="edge4" class="edge"><title>Node1&#45;&gt;Node3</title>
<path fill="none" stroke="midnightblue" d="M245.493,-58.452C214.297,-49.634 168.483,-36.581 120.191,-22.324"/>
<polygon fill="midnightblue" stroke="midnightblue" points="121.085,-18.9386 110.503,-19.4575 119.099,-25.651 121.085,-18.9386"/>
</g>
<!-- Node4 -->
<g id="node7" class="node"><title>Node4</title>
<polygon fill="white" stroke="#bfbfbf" points="128,-0.5 128,-21.5 280,-21.5 280,-0.5 128,-0.5"/>
<text text-anchor="middle" x="204" y="-8.5" font-family="DejaVuSans" font-size="10.00">Storage/StorageCharacter.h</text>
</g>
<!-- Node1&#45;&gt;Node4 -->
<g id="edge6" class="edge"><title>Node1&#45;&gt;Node4</title>
<path fill="none" stroke="midnightblue" d="M268.51,-58.3619C256.817,-49.7773 240.157,-37.5459 226.697,-27.6636"/>
<polygon fill="midnightblue" stroke="midnightblue" points="228.53,-24.6675 218.398,-21.5707 224.387,-30.31 228.53,-24.6675"/>
</g>
<!-- Node5 -->
<g id="node9" class="node"><title>Node5</title>
<polygon fill="white" stroke="#bfbfbf" points="297.5,-0.5 297.5,-21.5 428.5,-21.5 428.5,-0.5 297.5,-0.5"/>
<text text-anchor="middle" x="363" y="-8.5" font-family="DejaVuSans" font-size="10.00">Datatypes/cv_Species.h</text>
</g>
<!-- Node1&#45;&gt;Node5 -->
<g id="edge8" class="edge"><title>Node1&#45;&gt;Node5</title>
<path fill="none" stroke="midnightblue" d="M297.673,-58.3619C309.514,-49.7773 326.385,-37.5459 340.016,-27.6636"/>
<polygon fill="midnightblue" stroke="midnightblue" points="342.378,-30.274 348.42,-21.5707 338.269,-24.6067 342.378,-30.274"/>
</g>
<!-- Node6 -->
<g id="node11" class="node"><title>Node6</title>
<polygon fill="white" stroke="#bfbfbf" points="445.5,-0.5 445.5,-21.5 558.5,-21.5 558.5,-0.5 445.5,-0.5"/>
<text text-anchor="middle" x="502" y="-8.5" font-family="DejaVuSans" font-size="10.00">Datatypes/cv_Trait.h</text>
</g>
<!-- Node1&#45;&gt;Node6 -->
<g id="edge10" class="edge"><title>Node1&#45;&gt;Node6</title>
<path fill="none" stroke="midnightblue" d="M322.659,-58.4966C359.058,-48.8569 413.126,-34.5373 452.375,-24.1427"/>
<polygon fill="midnightblue" stroke="midnightblue" points="453.496,-27.4666 462.266,-21.5231 451.704,-20.6999 453.496,-27.4666"/>
</g>
<!-- Node7 -->
<g id="node13" class="node"><title>Node7</title>
<polygon fill="white" stroke="#bfbfbf" points="575.5,-0.5 575.5,-21.5 680.5,-21.5 680.5,-0.5 575.5,-0.5"/>
<text text-anchor="middle" x="628" y="-8.5" font-family="DejaVuSans" font-size="10.00">QXmlStreamWriter</text>
</g>
<!-- Node1&#45;&gt;Node7 -->
<g id="edge12" class="edge"><title>Node1&#45;&gt;Node7</title>
<path fill="none" stroke="midnightblue" d="M348.185,-58.4859C403.415,-49.5151 484.997,-36.1176 565.16,-22.3029"/>
<polygon fill="midnightblue" stroke="midnightblue" points="566.178,-25.6791 575.436,-20.5283 564.986,-18.7812 566.178,-25.6791"/>
</g>
</g>
</svg>
