<?xml version="1.0" encoding="UTF-8" standalone="no"?>
<!DOCTYPE svg PUBLIC "-//W3C//DTD SVG 1.1//EN"
 "http://www.w3.org/Graphics/SVG/1.1/DTD/svg11.dtd">
<!-- Generated by graphviz version 2.26.3 (20100126.1600)
 -->
<!-- Title: G Pages: 1 -->
<svg width="341pt" height="146pt"
 viewBox="0.00 0.00 341.00 146.00" xmlns="http://www.w3.org/2000/svg" xmlns:xlink="http://www.w3.org/1999/xlink">
<g id="graph1" class="graph" transform="scale(1 1) rotate(0) translate(4 142)">
<title>G</title>
<polygon fill="white" stroke="white" points="-4,5 -4,-142 338,-142 338,5 -4,5"/>
<!-- Node1 -->
<g id="node1" class="node"><title>Node1</title>
<polygon fill="#bfbfbf" stroke="black" points="77.5,-116.5 77.5,-137.5 220.5,-137.5 220.5,-116.5 77.5,-116.5"/>
<text text-anchor="middle" x="149" y="-124.5" font-family="DejaVuSans" font-size="10.00">src/IO/XmlReadCharacter.h</text>
</g>
<!-- Node2 -->
<g id="node3" class="node"><title>Node2</title>
<a xlink:href="_xml_read_character_8cpp.html" target="_top" xlink:title="src/IO/XmlReadCharacter.cpp">
<polygon fill="white" stroke="black" points="-0.5,-58.5 -0.5,-79.5 154.5,-79.5 154.5,-58.5 -0.5,-58.5"/>
<text text-anchor="middle" x="77" y="-66.5" font-family="DejaVuSans" font-size="10.00">src/IO/XmlReadCharacter.cpp</text>
</a>
</g>
<!-- Node1&#45;&gt;Node2 -->
<g id="edge2" class="edge"><title>Node1&#45;&gt;Node2</title>
<path fill="none" stroke="midnightblue" d="M127.866,-109.975C115.646,-100.132 100.654,-88.0545 90.1222,-79.5707"/>
<polygon fill="midnightblue" stroke="midnightblue" points="125.811,-112.814 135.794,-116.362 130.202,-107.363 125.811,-112.814"/>
</g>
<!-- Node3 -->
<g id="node5" class="node"><title>Node3</title>
<a xlink:href="_main_window_8h.html" target="_top" xlink:title="src/MainWindow.h">
<polygon fill="white" stroke="black" points="172,-58.5 172,-79.5 272,-79.5 272,-58.5 172,-58.5"/>
<text text-anchor="middle" x="222" y="-66.5" font-family="DejaVuSans" font-size="10.00">src/MainWindow.h</text>
</a>
</g>
<!-- Node1&#45;&gt;Node3 -->
<g id="edge4" class="edge"><title>Node1&#45;&gt;Node3</title>
<path fill="none" stroke="midnightblue" d="M170.428,-109.975C182.817,-100.132 198.018,-88.0545 208.696,-79.5707"/>
<polygon fill="midnightblue" stroke="midnightblue" points="168.042,-107.401 162.389,-116.362 172.396,-112.881 168.042,-107.401"/>
</g>
<!-- Node4 -->
<g id="node7" class="node"><title>Node4</title>
<a xlink:href="main_8cpp.html" target="_top" xlink:title="src/main.cpp">
<polygon fill="white" stroke="black" points="127,-0.5 127,-21.5 205,-21.5 205,-0.5 127,-0.5"/>
<text text-anchor="middle" x="166" y="-8.5" font-family="DejaVuSans" font-size="10.00">src/main.cpp</text>
</a>
</g>
<!-- Node3&#45;&gt;Node4 -->
<g id="edge6" class="edge"><title>Node3&#45;&gt;Node4</title>
<path fill="none" stroke="midnightblue" d="M204.735,-51.118C195.388,-41.4377 184.161,-29.8098 176.206,-21.5707"/>
<polygon fill="midnightblue" stroke="midnightblue" points="202.265,-53.599 211.729,-58.3619 207.301,-48.7368 202.265,-53.599"/>
</g>
<!-- Node5 -->
<g id="node9" class="node"><title>Node5</title>
<a xlink:href="_main_window_8cpp.html" target="_top" xlink:title="src/MainWindow.cpp">
<polygon fill="white" stroke="black" points="222.5,-0.5 222.5,-21.5 333.5,-21.5 333.5,-0.5 222.5,-0.5"/>
<text text-anchor="middle" x="278" y="-8.5" font-family="DejaVuSans" font-size="10.00">src/MainWindow.cpp</text>
</a>
</g>
<!-- Node3&#45;&gt;Node5 -->
<g id="edge8" class="edge"><title>Node3&#45;&gt;Node5</title>
<path fill="none" stroke="midnightblue" d="M239.265,-51.118C248.612,-41.4377 259.839,-29.8098 267.794,-21.5707"/>
<polygon fill="midnightblue" stroke="midnightblue" points="236.699,-48.7368 232.271,-58.3619 241.735,-53.599 236.699,-48.7368"/>
</g>
</g>
</svg>
