<?xml version="1.0" encoding="UTF-8" standalone="no"?>
<!DOCTYPE svg PUBLIC "-//W3C//DTD SVG 1.1//EN"
 "http://www.w3.org/Graphics/SVG/1.1/DTD/svg11.dtd">
<!-- Generated by graphviz version 2.26.3 (20100126.1600)
 -->
<!-- Title: G Pages: 1 -->
<svg width="547pt" height="320pt"
 viewBox="0.00 0.00 547.00 320.00" xmlns="http://www.w3.org/2000/svg" xmlns:xlink="http://www.w3.org/1999/xlink">
<g id="graph1" class="graph" transform="scale(1 1) rotate(0) translate(4 316)">
<title>G</title>
<polygon fill="white" stroke="white" points="-4,5 -4,-316 544,-316 544,5 -4,5"/>
<!-- Node1 -->
<g id="node1" class="node"><title>Node1</title>
<polygon fill="#bfbfbf" stroke="black" points="205.5,-290.5 205.5,-311.5 360.5,-311.5 360.5,-290.5 205.5,-290.5"/>
<text text-anchor="middle" x="283" y="-298.5" font-family="DejaVuSans" font-size="10.00">src/IO/XmlReadCharacter.cpp</text>
</g>
<!-- Node2 -->
<g id="node3" class="node"><title>Node2</title>
<polygon fill="white" stroke="#bfbfbf" points="82,-232.5 82,-253.5 138,-253.5 138,-232.5 82,-232.5"/>
<text text-anchor="middle" x="110" y="-240.5" font-family="DejaVuSans" font-size="10.00">QDebug</text>
</g>
<!-- Node1&#45;&gt;Node2 -->
<g id="edge2" class="edge"><title>Node1&#45;&gt;Node2</title>
<path fill="none" stroke="midnightblue" d="M251.671,-290.497C222.501,-280.717 178.964,-266.121 147.86,-255.693"/>
<polygon fill="midnightblue" stroke="midnightblue" points="148.826,-252.325 138.232,-252.465 146.601,-258.962 148.826,-252.325"/>
</g>
<!-- Node3 -->
<g id="node5" class="node"><title>Node3</title>
<a xlink:href="_exception_8h_source.html" target="_top" xlink:title="../Exceptions/Exception.h">
<polygon fill="white" stroke="black" points="286,-232.5 286,-253.5 422,-253.5 422,-232.5 286,-232.5"/>
<text text-anchor="middle" x="354" y="-240.5" font-family="DejaVuSans" font-size="10.00">../Exceptions/Exception.h</text>
</a>
</g>
<!-- Node1&#45;&gt;Node3 -->
<g id="edge4" class="edge"><title>Node1&#45;&gt;Node3</title>
<path fill="none" stroke="midnightblue" d="M296.022,-290.362C306.431,-281.859 321.219,-269.779 333.255,-259.947"/>
<polygon fill="midnightblue" stroke="midnightblue" points="335.53,-262.608 341.06,-253.571 331.101,-257.187 335.53,-262.608"/>
</g>
<!-- Node11 -->
<g id="node27" class="node"><title>Node11</title>
<a xlink:href="_config_8h.html" target="_top" xlink:title="../Config/Config.h">
<polygon fill="white" stroke="black" points="440,-232.5 440,-253.5 538,-253.5 538,-232.5 440,-232.5"/>
<text text-anchor="middle" x="489" y="-240.5" font-family="DejaVuSans" font-size="10.00">../Config/Config.h</text>
</a>
</g>
<!-- Node1&#45;&gt;Node11 -->
<g id="edge32" class="edge"><title>Node1&#45;&gt;Node11</title>
<path fill="none" stroke="midnightblue" d="M320.305,-290.497C354.325,-280.918 404.755,-266.72 441.614,-256.342"/>
<polygon fill="midnightblue" stroke="midnightblue" points="442.948,-259.602 451.625,-253.523 441.051,-252.864 442.948,-259.602"/>
</g>
<!-- Node13 -->
<g id="node32" class="node"><title>Node13</title>
<a xlink:href="_xml_read_character_8h.html" target="_top" xlink:title="XmlReadCharacter.h">
<polygon fill="white" stroke="black" points="155.5,-232.5 155.5,-253.5 268.5,-253.5 268.5,-232.5 155.5,-232.5"/>
<text text-anchor="middle" x="212" y="-240.5" font-family="DejaVuSans" font-size="10.00">XmlReadCharacter.h</text>
</a>
</g>
<!-- Node1&#45;&gt;Node13 -->
<g id="edge38" class="edge"><title>Node1&#45;&gt;Node13</title>
<path fill="none" stroke="midnightblue" d="M269.978,-290.362C259.569,-281.859 244.781,-269.779 232.745,-259.947"/>
<polygon fill="midnightblue" stroke="midnightblue" points="234.899,-257.187 224.94,-253.571 230.47,-262.608 234.899,-257.187"/>
</g>
<!-- Node4 -->
<g id="node7" class="node"><title>Node4</title>
<polygon fill="white" stroke="#bfbfbf" points="322.5,-0.5 322.5,-21.5 375.5,-21.5 375.5,-0.5 322.5,-0.5"/>
<text text-anchor="middle" x="349" y="-8.5" font-family="DejaVuSans" font-size="10.00">QString</text>
</g>
<!-- Node3&#45;&gt;Node4 -->
<g id="edge6" class="edge"><title>Node3&#45;&gt;Node4</title>
<path fill="none" stroke="midnightblue" d="M361.03,-232.177C379.012,-203.045 423.452,-120.923 397,-58 392.036,-46.1918 382.497,-35.8648 373.221,-27.9215"/>
<polygon fill="midnightblue" stroke="midnightblue" points="375.262,-25.0721 365.26,-21.5773 370.899,-30.5466 375.262,-25.0721"/>
</g>
<!-- Node5 -->
<g id="node9" class="node"><title>Node5</title>
<a xlink:href="cv___trait_8h.html" target="_top" xlink:title="../Datatypes/cv_Trait.h">
<polygon fill="white" stroke="black" points="184,-174.5 184,-195.5 306,-195.5 306,-174.5 184,-174.5"/>
<text text-anchor="middle" x="245" y="-182.5" font-family="DejaVuSans" font-size="10.00">../Datatypes/cv_Trait.h</text>
</a>
</g>
<!-- Node3&#45;&gt;Node5 -->
<g id="edge8" class="edge"><title>Node3&#45;&gt;Node5</title>
<path fill="none" stroke="midnightblue" d="M334.261,-232.497C317.39,-223.519 292.891,-210.484 273.826,-200.339"/>
<polygon fill="midnightblue" stroke="midnightblue" points="275.433,-197.229 264.961,-195.621 272.144,-203.409 275.433,-197.229"/>
</g>
<!-- Node5&#45;&gt;Node4 -->
<g id="edge12" class="edge"><title>Node5&#45;&gt;Node4</title>
<path fill="none" stroke="midnightblue" d="M199.2,-174.484C164.556,-165.594 120.971,-152.087 109,-138 85.796,-110.696 76.1229,-85.5788 99,-58 125.654,-25.8681 249.294,-15.5619 312.129,-12.3691"/>
<polygon fill="midnightblue" stroke="midnightblue" points="312.569,-15.8523 322.393,-11.8836 312.239,-8.86012 312.569,-15.8523"/>
</g>
<!-- Node6 -->
<g id="node11" class="node"><title>Node6</title>
<polygon fill="white" stroke="#bfbfbf" points="128.5,-116.5 128.5,-137.5 177.5,-137.5 177.5,-116.5 128.5,-116.5"/>
<text text-anchor="middle" x="153" y="-124.5" font-family="DejaVuSans" font-size="10.00">QFlags</text>
</g>
<!-- Node5&#45;&gt;Node6 -->
<g id="edge10" class="edge"><title>Node5&#45;&gt;Node6</title>
<path fill="none" stroke="midnightblue" d="M228.126,-174.362C214.249,-165.614 194.366,-153.079 178.54,-143.101"/>
<polygon fill="midnightblue" stroke="midnightblue" points="180.093,-139.943 169.767,-137.571 176.36,-145.864 180.093,-139.943"/>
</g>
<!-- Node7 -->
<g id="node14" class="node"><title>Node7</title>
<polygon fill="white" stroke="#bfbfbf" points="107.5,-58.5 107.5,-79.5 148.5,-79.5 148.5,-58.5 107.5,-58.5"/>
<text text-anchor="middle" x="128" y="-66.5" font-family="DejaVuSans" font-size="10.00">QList</text>
</g>
<!-- Node5&#45;&gt;Node7 -->
<g id="edge14" class="edge"><title>Node5&#45;&gt;Node7</title>
<path fill="none" stroke="midnightblue" d="M202.244,-174.495C170.019,-165.611 129.766,-152.106 120,-138 110.278,-123.958 113.761,-104.335 118.814,-89.6035"/>
<polygon fill="midnightblue" stroke="midnightblue" points="122.23,-90.4792 122.605,-79.891 115.709,-87.9342 122.23,-90.4792"/>
</g>
<!-- Node8 -->
<g id="node16" class="node"><title>Node8</title>
<polygon fill="white" stroke="#bfbfbf" points="176.5,-58.5 176.5,-79.5 245.5,-79.5 245.5,-58.5 176.5,-58.5"/>
<text text-anchor="middle" x="211" y="-66.5" font-family="DejaVuSans" font-size="10.00">QStringList</text>
</g>
<!-- Node5&#45;&gt;Node8 -->
<g id="edge16" class="edge"><title>Node5&#45;&gt;Node8</title>
<path fill="none" stroke="midnightblue" d="M239.427,-174.451C234.699,-165.103 228.056,-150.965 224,-138 219.06,-122.211 215.704,-103.77 213.641,-89.9263"/>
<polygon fill="midnightblue" stroke="midnightblue" points="217.098,-89.3731 212.258,-79.9483 210.164,-90.3342 217.098,-89.3731"/>
</g>
<!-- Node9 -->
<g id="node18" class="node"><title>Node9</title>
<a xlink:href="cv___species_8h.html" target="_top" xlink:title="cv_Species.h">
<polygon fill="white" stroke="black" points="309.5,-58.5 309.5,-79.5 388.5,-79.5 388.5,-58.5 309.5,-58.5"/>
<text text-anchor="middle" x="349" y="-66.5" font-family="DejaVuSans" font-size="10.00">cv_Species.h</text>
</a>
</g>
<!-- Node5&#45;&gt;Node9 -->
<g id="edge18" class="edge"><title>Node5&#45;&gt;Node9</title>
<path fill="none" stroke="midnightblue" d="M277.064,-174.392C295.061,-166.889 316.54,-155.088 330,-138 340.783,-124.311 345.454,-104.911 347.473,-90.1667"/>
<polygon fill="midnightblue" stroke="midnightblue" points="350.98,-90.2848 348.558,-79.9706 344.019,-89.5443 350.98,-90.2848"/>
</g>
<!-- Node10 -->
<g id="node21" class="node"><title>Node10</title>
<a xlink:href="cv___trait_detail_8h.html" target="_top" xlink:title="cv_TraitDetail.h">
<polygon fill="white" stroke="black" points="232.5,-116.5 232.5,-137.5 321.5,-137.5 321.5,-116.5 232.5,-116.5"/>
<text text-anchor="middle" x="277" y="-124.5" font-family="DejaVuSans" font-size="10.00">cv_TraitDetail.h</text>
</a>
</g>
<!-- Node5&#45;&gt;Node10 -->
<g id="edge22" class="edge"><title>Node5&#45;&gt;Node10</title>
<path fill="none" stroke="midnightblue" d="M250.869,-174.362C255.155,-166.595 261.087,-155.843 266.216,-146.546"/>
<polygon fill="midnightblue" stroke="midnightblue" points="269.402,-148.017 271.168,-137.571 263.273,-144.636 269.402,-148.017"/>
</g>
<!-- Node9&#45;&gt;Node4 -->
<g id="edge20" class="edge"><title>Node9&#45;&gt;Node4</title>
<path fill="none" stroke="midnightblue" d="M349,-58.3619C349,-50.9219 349,-40.7427 349,-31.7276"/>
<polygon fill="midnightblue" stroke="midnightblue" points="352.5,-31.5706 349,-21.5707 345.5,-31.5707 352.5,-31.5706"/>
</g>
<!-- Node10&#45;&gt;Node4 -->
<g id="edge24" class="edge"><title>Node10&#45;&gt;Node4</title>
<path fill="none" stroke="midnightblue" d="M279.171,-116.033C282.339,-101.814 289.178,-76.635 301,-58 308.055,-46.879 318.226,-36.4242 327.39,-28.2117"/>
<polygon fill="midnightblue" stroke="midnightblue" points="329.772,-30.7798 335.082,-21.6114 325.213,-25.4676 329.772,-30.7798"/>
</g>
<!-- Node10&#45;&gt;Node7 -->
<g id="edge26" class="edge"><title>Node10&#45;&gt;Node7</title>
<path fill="none" stroke="midnightblue" d="M250.017,-116.497C224.139,-106.423 185.133,-91.2396 158.223,-80.7646"/>
<polygon fill="midnightblue" stroke="midnightblue" points="159.143,-77.3668 148.554,-77.0009 156.603,-83.8901 159.143,-77.3668"/>
</g>
<!-- Node10&#45;&gt;Node8 -->
<g id="edge28" class="edge"><title>Node10&#45;&gt;Node8</title>
<path fill="none" stroke="midnightblue" d="M264.895,-116.362C255.312,-107.941 241.736,-96.0105 230.607,-86.2308"/>
<polygon fill="midnightblue" stroke="midnightblue" points="232.851,-83.5427 223.029,-79.5707 228.23,-88.8009 232.851,-83.5427"/>
</g>
<!-- Node10&#45;&gt;Node9 -->
<g id="edge30" class="edge"><title>Node10&#45;&gt;Node9</title>
<path fill="none" stroke="midnightblue" d="M290.206,-116.362C300.761,-107.859 315.758,-95.7785 327.963,-85.9466"/>
<polygon fill="midnightblue" stroke="midnightblue" points="330.286,-88.5696 335.878,-79.5707 325.895,-83.1183 330.286,-88.5696"/>
</g>
<!-- Node11&#45;&gt;Node4 -->
<g id="edge34" class="edge"><title>Node11&#45;&gt;Node4</title>
<path fill="none" stroke="midnightblue" d="M486.864,-232.346C480.4,-202.236 458.693,-115.001 414,-58 404.251,-45.5661 390.375,-34.9214 377.946,-26.9224"/>
<polygon fill="midnightblue" stroke="midnightblue" points="379.586,-23.8221 369.231,-21.5778 375.926,-29.7893 379.586,-23.8221"/>
</g>
<!-- Node12 -->
<g id="node30" class="node"><title>Node12</title>
<polygon fill="white" stroke="#bfbfbf" points="490.5,-174.5 490.5,-195.5 539.5,-195.5 539.5,-174.5 490.5,-174.5"/>
<text text-anchor="middle" x="515" y="-182.5" font-family="DejaVuSans" font-size="10.00">QColor</text>
</g>
<!-- Node11&#45;&gt;Node12 -->
<g id="edge36" class="edge"><title>Node11&#45;&gt;Node12</title>
<path fill="none" stroke="midnightblue" d="M493.769,-232.362C497.214,-224.677 501.969,-214.069 506.106,-204.84"/>
<polygon fill="midnightblue" stroke="midnightblue" points="509.365,-206.127 510.261,-195.571 502.977,-203.264 509.365,-206.127"/>
</g>
<!-- Node13&#45;&gt;Node5 -->
<g id="edge44" class="edge"><title>Node13&#45;&gt;Node5</title>
<path fill="none" stroke="midnightblue" d="M218.053,-232.362C222.472,-224.595 228.59,-213.843 233.879,-204.546"/>
<polygon fill="midnightblue" stroke="midnightblue" points="237.082,-205.993 238.986,-195.571 230.998,-202.531 237.082,-205.993"/>
</g>
<!-- Node13&#45;&gt;Node9 -->
<g id="edge42" class="edge"><title>Node13&#45;&gt;Node9</title>
<path fill="none" stroke="midnightblue" d="M248.509,-232.494C269.768,-224.975 296.033,-213.122 315,-196 337.18,-175.977 341.171,-166.837 349,-138 353.309,-122.128 352.996,-103.434 351.78,-89.5101"/>
<polygon fill="midnightblue" stroke="midnightblue" points="355.252,-89.0693 350.681,-79.5114 348.294,-89.8339 355.252,-89.0693"/>
</g>
<!-- Node14 -->
<g id="node34" class="node"><title>Node14</title>
<polygon fill="white" stroke="#bfbfbf" points="127.5,-174.5 127.5,-195.5 166.5,-195.5 166.5,-174.5 127.5,-174.5"/>
<text text-anchor="middle" x="147" y="-182.5" font-family="DejaVuSans" font-size="10.00">QFile</text>
</g>
<!-- Node13&#45;&gt;Node14 -->
<g id="edge40" class="edge"><title>Node13&#45;&gt;Node14</title>
<path fill="none" stroke="midnightblue" d="M200.078,-232.362C190.641,-223.941 177.27,-212.011 166.31,-202.231"/>
<polygon fill="midnightblue" stroke="midnightblue" points="168.638,-199.617 158.846,-195.571 163.978,-204.84 168.638,-199.617"/>
</g>
<!-- Node15 -->
<g id="node38" class="node"><title>Node15</title>
<polygon fill="white" stroke="#bfbfbf" points="-0.5,-174.5 -0.5,-195.5 110.5,-195.5 110.5,-174.5 -0.5,-174.5"/>
<text text-anchor="middle" x="55" y="-182.5" font-family="DejaVuSans" font-size="10.00">QXmlStreamReader</text>
</g>
<!-- Node13&#45;&gt;Node15 -->
<g id="edge46" class="edge"><title>Node13&#45;&gt;Node15</title>
<path fill="none" stroke="midnightblue" d="M183.568,-232.497C158.195,-223.123 120.843,-209.324 92.9295,-199.012"/>
<polygon fill="midnightblue" stroke="midnightblue" points="94.0781,-195.705 83.4848,-195.523 91.6523,-202.272 94.0781,-195.705"/>
</g>
</g>
</svg>
