<?xml version="1.0" encoding="UTF-8" standalone="no"?>
<!DOCTYPE svg PUBLIC "-//W3C//DTD SVG 1.1//EN"
 "http://www.w3.org/Graphics/SVG/1.1/DTD/svg11.dtd">
<!-- Generated by graphviz version 2.26.3 (20100126.1600)
 -->
<!-- Title: G Pages: 1 -->
<svg width="617pt" height="320pt"
 viewBox="0.00 0.00 617.16 320.00" xmlns="http://www.w3.org/2000/svg" xmlns:xlink="http://www.w3.org/1999/xlink">
<g id="graph1" class="graph" transform="scale(1 1) rotate(0) translate(4 316)">
<title>G</title>
<polygon fill="white" stroke="white" points="-4,5 -4,-316 614.161,-316 614.161,5 -4,5"/>
<!-- Node1 -->
<g id="node1" class="node"><title>Node1</title>
<polygon fill="#bfbfbf" stroke="black" points="175.661,-290.5 175.661,-311.5 318.661,-311.5 318.661,-290.5 175.661,-290.5"/>
<text text-anchor="middle" x="247.161" y="-298.5" font-family="DejaVuSans" font-size="10.00">src/IO/XmlWriteCharacter.h</text>
</g>
<!-- Node2 -->
<g id="node3" class="node"><title>Node2</title>
<polygon fill="white" stroke="#bfbfbf" points="18.6614,-232.5 18.6614,-253.5 57.6614,-253.5 57.6614,-232.5 18.6614,-232.5"/>
<text text-anchor="middle" x="38.1614" y="-240.5" font-family="DejaVuSans" font-size="10.00">QFile</text>
</g>
<!-- Node1&#45;&gt;Node2 -->
<g id="edge2" class="edge"><title>Node1&#45;&gt;Node2</title>
<path fill="none" stroke="midnightblue" d="M204.639,-290.417C168.866,-281.329 116.45,-267.582 71.1614,-254 70.0912,-253.679 69.0034,-253.347 67.9061,-253.007"/>
<polygon fill="midnightblue" stroke="midnightblue" points="68.5839,-249.549 57.9927,-249.828 66.4458,-256.215 68.5839,-249.549"/>
</g>
<!-- Node3 -->
<g id="node5" class="node"><title>Node3</title>
<polygon fill="white" stroke="#bfbfbf" points="1.66139,-174.5 1.66139,-195.5 56.6614,-195.5 56.6614,-174.5 1.66139,-174.5"/>
<text text-anchor="middle" x="29.1614" y="-182.5" font-family="DejaVuSans" font-size="10.00">QObject</text>
</g>
<!-- Node1&#45;&gt;Node3 -->
<g id="edge4" class="edge"><title>Node1&#45;&gt;Node3</title>
<path fill="none" stroke="midnightblue" d="M198.299,-290.459C169.6,-282.954 133.349,-271.127 104.161,-254 81.1143,-240.476 59.1567,-218.893 45.0249,-203.468"/>
<polygon fill="midnightblue" stroke="midnightblue" points="47.2919,-200.752 38.0217,-195.622 42.0696,-205.413 47.2919,-200.752"/>
</g>
<!-- Node4 -->
<g id="node7" class="node"><title>Node4</title>
<a xlink:href="_storage_character_8h.html" target="_top" xlink:title="../Storage/StorageCharacter.h">
<polygon fill="white" stroke="black" points="112.661,-232.5 112.661,-253.5 273.661,-253.5 273.661,-232.5 112.661,-232.5"/>
<text text-anchor="middle" x="193.161" y="-240.5" font-family="DejaVuSans" font-size="10.00">../Storage/StorageCharacter.h</text>
</a>
</g>
<!-- Node1&#45;&gt;Node4 -->
<g id="edge6" class="edge"><title>Node1&#45;&gt;Node4</title>
<path fill="none" stroke="midnightblue" d="M237.257,-290.362C229.645,-282.186 218.953,-270.702 210.004,-261.091"/>
<polygon fill="midnightblue" stroke="midnightblue" points="212.379,-258.505 203.003,-253.571 207.256,-263.275 212.379,-258.505"/>
</g>
<!-- Node5 -->
<g id="node9" class="node"><title>Node5</title>
<a xlink:href="cv___trait_8h.html" target="_top" xlink:title="../Datatypes/cv_Trait.h">
<polygon fill="white" stroke="black" points="240.161,-174.5 240.161,-195.5 362.161,-195.5 362.161,-174.5 240.161,-174.5"/>
<text text-anchor="middle" x="301.161" y="-182.5" font-family="DejaVuSans" font-size="10.00">../Datatypes/cv_Trait.h</text>
</a>
</g>
<!-- Node1&#45;&gt;Node5 -->
<g id="edge48" class="edge"><title>Node1&#45;&gt;Node5</title>
<path fill="none" stroke="midnightblue" d="M257.065,-290.187C264.887,-281.124 275.553,-267.529 282.161,-254 289.649,-238.672 294.57,-219.938 297.524,-205.861"/>
<polygon fill="midnightblue" stroke="midnightblue" points="301.022,-206.206 299.483,-195.724 294.149,-204.878 301.022,-206.206"/>
</g>
<!-- Node10 -->
<g id="node19" class="node"><title>Node10</title>
<a xlink:href="cv___species_8h.html" target="_top" xlink:title="cv_Species.h">
<polygon fill="white" stroke="black" points="330.661,-58.5 330.661,-79.5 409.661,-79.5 409.661,-58.5 330.661,-58.5"/>
<text text-anchor="middle" x="370.161" y="-66.5" font-family="DejaVuSans" font-size="10.00">cv_Species.h</text>
</a>
</g>
<!-- Node1&#45;&gt;Node10 -->
<g id="edge46" class="edge"><title>Node1&#45;&gt;Node10</title>
<path fill="none" stroke="midnightblue" d="M272.784,-290.489C319.884,-269.575 418.982,-217.774 458.161,-138 470.219,-113.449 442.351,-95.0221 414.852,-83.4148"/>
<polygon fill="midnightblue" stroke="midnightblue" points="415.793,-80.0229 405.206,-79.5947 413.215,-86.5311 415.793,-80.0229"/>
</g>
<!-- Node14 -->
<g id="node39" class="node"><title>Node14</title>
<polygon fill="white" stroke="#bfbfbf" points="504.661,-232.5 504.661,-253.5 609.661,-253.5 609.661,-232.5 504.661,-232.5"/>
<text text-anchor="middle" x="557.161" y="-240.5" font-family="DejaVuSans" font-size="10.00">QXmlStreamWriter</text>
</g>
<!-- Node1&#45;&gt;Node14 -->
<g id="edge50" class="edge"><title>Node1&#45;&gt;Node14</title>
<path fill="none" stroke="midnightblue" d="M303.3,-290.497C357.176,-280.417 438.401,-265.22 494.392,-254.744"/>
<polygon fill="midnightblue" stroke="midnightblue" points="495.355,-258.125 504.541,-252.845 494.068,-251.244 495.355,-258.125"/>
</g>
<!-- Node4&#45;&gt;Node3 -->
<g id="edge44" class="edge"><title>Node4&#45;&gt;Node3</title>
<path fill="none" stroke="midnightblue" d="M163.462,-232.497C136.178,-222.847 95.6354,-208.509 66.2366,-198.112"/>
<polygon fill="midnightblue" stroke="midnightblue" points="67.3238,-194.784 56.729,-194.75 64.9898,-201.384 67.3238,-194.784"/>
</g>
<!-- Node4&#45;&gt;Node5 -->
<g id="edge8" class="edge"><title>Node4&#45;&gt;Node5</title>
<path fill="none" stroke="midnightblue" d="M212.719,-232.497C229.36,-223.56 253.489,-210.602 272.342,-200.477"/>
<polygon fill="midnightblue" stroke="midnightblue" points="274.23,-203.436 281.384,-195.621 270.918,-197.269 274.23,-203.436"/>
</g>
<!-- Node12 -->
<g id="node28" class="node"><title>Node12</title>
<a xlink:href="cv___name_list_8h.html" target="_top" xlink:title="../Datatypes/cv_NameList.h">
<polygon fill="white" stroke="black" points="73.6614,-174.5 73.6614,-195.5 222.661,-195.5 222.661,-174.5 73.6614,-174.5"/>
<text text-anchor="middle" x="148.161" y="-182.5" font-family="DejaVuSans" font-size="10.00">../Datatypes/cv_NameList.h</text>
</a>
</g>
<!-- Node4&#45;&gt;Node12 -->
<g id="edge32" class="edge"><title>Node4&#45;&gt;Node12</title>
<path fill="none" stroke="midnightblue" d="M184.908,-232.362C178.691,-224.35 170.01,-213.161 162.646,-203.67"/>
<polygon fill="midnightblue" stroke="midnightblue" points="165.258,-201.326 156.363,-195.571 159.727,-205.617 165.258,-201.326"/>
</g>
<!-- Node6 -->
<g id="node11" class="node"><title>Node6</title>
<polygon fill="white" stroke="#bfbfbf" points="400.661,-116.5 400.661,-137.5 449.661,-137.5 449.661,-116.5 400.661,-116.5"/>
<text text-anchor="middle" x="425.161" y="-124.5" font-family="DejaVuSans" font-size="10.00">QFlags</text>
</g>
<!-- Node5&#45;&gt;Node6 -->
<g id="edge10" class="edge"><title>Node5&#45;&gt;Node6</title>
<path fill="none" stroke="midnightblue" d="M323.617,-174.497C343.071,-165.397 371.441,-152.127 393.252,-141.925"/>
<polygon fill="midnightblue" stroke="midnightblue" points="394.879,-145.028 402.454,-137.621 391.913,-138.688 394.879,-145.028"/>
</g>
<!-- Node7 -->
<g id="node13" class="node"><title>Node7</title>
<polygon fill="white" stroke="#bfbfbf" points="88.6614,-0.5 88.6614,-21.5 141.661,-21.5 141.661,-0.5 88.6614,-0.5"/>
<text text-anchor="middle" x="115.161" y="-8.5" font-family="DejaVuSans" font-size="10.00">QString</text>
</g>
<!-- Node5&#45;&gt;Node7 -->
<g id="edge12" class="edge"><title>Node5&#45;&gt;Node7</title>
<path fill="none" stroke="midnightblue" d="M271.642,-174.484C234.08,-159.522 170.023,-128.414 136.161,-80 126.096,-65.6089 120.756,-46.2765 117.985,-31.7362"/>
<polygon fill="midnightblue" stroke="midnightblue" points="121.413,-31.0093 116.332,-21.7126 114.506,-32.149 121.413,-31.0093"/>
</g>
<!-- Node8 -->
<g id="node15" class="node"><title>Node8</title>
<polygon fill="white" stroke="#bfbfbf" points="230.661,-58.5 230.661,-79.5 271.661,-79.5 271.661,-58.5 230.661,-58.5"/>
<text text-anchor="middle" x="251.161" y="-66.5" font-family="DejaVuSans" font-size="10.00">QList</text>
</g>
<!-- Node5&#45;&gt;Node8 -->
<g id="edge14" class="edge"><title>Node5&#45;&gt;Node8</title>
<path fill="none" stroke="midnightblue" d="M282.727,-174.467C270.413,-166.287 255.224,-153.702 248.161,-138 241.342,-122.837 242.79,-103.858 245.55,-89.6444"/>
<polygon fill="midnightblue" stroke="midnightblue" points="248.973,-90.3762 247.801,-79.8463 242.15,-88.8086 248.973,-90.3762"/>
</g>
<!-- Node9 -->
<g id="node17" class="node"><title>Node9</title>
<polygon fill="white" stroke="#bfbfbf" points="144.661,-58.5 144.661,-79.5 213.661,-79.5 213.661,-58.5 144.661,-58.5"/>
<text text-anchor="middle" x="179.161" y="-66.5" font-family="DejaVuSans" font-size="10.00">QStringList</text>
</g>
<!-- Node5&#45;&gt;Node9 -->
<g id="edge16" class="edge"><title>Node5&#45;&gt;Node9</title>
<path fill="none" stroke="midnightblue" d="M285.426,-174.435C272.453,-165.412 253.862,-151.746 239.161,-138 222.453,-122.377 205.545,-102.481 193.955,-88.0716"/>
<polygon fill="midnightblue" stroke="midnightblue" points="196.43,-85.5592 187.476,-79.8961 190.944,-89.9072 196.43,-85.5592"/>
</g>
<!-- Node5&#45;&gt;Node10 -->
<g id="edge18" class="edge"><title>Node5&#45;&gt;Node10</title>
<path fill="none" stroke="midnightblue" d="M317.769,-174.447C329.687,-166.009 345.171,-153.115 354.161,-138 362.892,-123.323 366.858,-104.264 368.661,-89.8969"/>
<polygon fill="midnightblue" stroke="midnightblue" points="372.183,-89.8518 369.692,-79.5539 365.217,-89.1574 372.183,-89.8518"/>
</g>
<!-- Node11 -->
<g id="node22" class="node"><title>Node11</title>
<a xlink:href="cv___trait_detail_8h.html" target="_top" xlink:title="cv_TraitDetail.h">
<polygon fill="white" stroke="black" points="256.661,-116.5 256.661,-137.5 345.661,-137.5 345.661,-116.5 256.661,-116.5"/>
<text text-anchor="middle" x="301.161" y="-124.5" font-family="DejaVuSans" font-size="10.00">cv_TraitDetail.h</text>
</a>
</g>
<!-- Node5&#45;&gt;Node11 -->
<g id="edge22" class="edge"><title>Node5&#45;&gt;Node11</title>
<path fill="none" stroke="midnightblue" d="M301.161,-174.362C301.161,-166.922 301.161,-156.743 301.161,-147.728"/>
<polygon fill="midnightblue" stroke="midnightblue" points="304.661,-147.571 301.161,-137.571 297.661,-147.571 304.661,-147.571"/>
</g>
<!-- Node10&#45;&gt;Node7 -->
<g id="edge20" class="edge"><title>Node10&#45;&gt;Node7</title>
<path fill="none" stroke="midnightblue" d="M330.597,-60.0011C281.724,-48.8848 199.24,-30.1238 151.77,-19.3266"/>
<polygon fill="midnightblue" stroke="midnightblue" points="152.44,-15.8898 141.913,-17.0847 150.888,-22.7155 152.44,-15.8898"/>
</g>
<!-- Node11&#45;&gt;Node7 -->
<g id="edge24" class="edge"><title>Node11&#45;&gt;Node7</title>
<path fill="none" stroke="midnightblue" d="M300.945,-116.291C300.048,-101.183 296.152,-73.7061 280.161,-58 262.052,-40.2126 194.913,-25.2761 152.061,-17.2794"/>
<polygon fill="midnightblue" stroke="midnightblue" points="152.463,-13.7951 141.998,-15.4451 151.208,-20.6816 152.463,-13.7951"/>
</g>
<!-- Node11&#45;&gt;Node8 -->
<g id="edge26" class="edge"><title>Node11&#45;&gt;Node8</title>
<path fill="none" stroke="midnightblue" d="M291.991,-116.362C285.013,-108.268 275.241,-96.9318 267.006,-87.3796"/>
<polygon fill="midnightblue" stroke="midnightblue" points="269.454,-84.8595 260.274,-79.5707 264.153,-89.4301 269.454,-84.8595"/>
</g>
<!-- Node11&#45;&gt;Node9 -->
<g id="edge28" class="edge"><title>Node11&#45;&gt;Node9</title>
<path fill="none" stroke="midnightblue" d="M279.068,-116.497C259.927,-107.397 232.015,-94.1273 210.556,-83.9253"/>
<polygon fill="midnightblue" stroke="midnightblue" points="212.037,-80.7539 201.503,-79.6212 209.031,-87.0758 212.037,-80.7539"/>
</g>
<!-- Node11&#45;&gt;Node10 -->
<g id="edge30" class="edge"><title>Node11&#45;&gt;Node10</title>
<path fill="none" stroke="midnightblue" d="M313.817,-116.362C323.835,-107.941 338.028,-96.0105 349.663,-86.2308"/>
<polygon fill="midnightblue" stroke="midnightblue" points="352.183,-88.6844 357.586,-79.5707 347.679,-83.326 352.183,-88.6844"/>
</g>
<!-- Node12&#45;&gt;Node7 -->
<g id="edge34" class="edge"><title>Node12&#45;&gt;Node7</title>
<path fill="none" stroke="midnightblue" d="M97.4067,-174.489C61.8887,-165.985 18.939,-152.987 8.16139,-138 -22.2762,-95.6746 43.6698,-49.7787 85.0253,-26.4733"/>
<polygon fill="midnightblue" stroke="midnightblue" points="86.8512,-29.4638 93.9342,-21.5845 83.4836,-23.327 86.8512,-29.4638"/>
</g>
<!-- Node12&#45;&gt;Node8 -->
<g id="edge42" class="edge"><title>Node12&#45;&gt;Node8</title>
<path fill="none" stroke="midnightblue" d="M157.667,-174.295C175.296,-154.441 213.239,-111.709 234.98,-87.2239"/>
<polygon fill="midnightblue" stroke="midnightblue" points="237.657,-89.4808 241.679,-79.6792 232.422,-84.833 237.657,-89.4808"/>
</g>
<!-- Node13 -->
<g id="node31" class="node"><title>Node13</title>
<a xlink:href="cv___name_8h.html" target="_top" xlink:title="cv_Name.h">
<polygon fill="white" stroke="black" points="16.6614,-116.5 16.6614,-137.5 87.6614,-137.5 87.6614,-116.5 16.6614,-116.5"/>
<text text-anchor="middle" x="52.1614" y="-124.5" font-family="DejaVuSans" font-size="10.00">cv_Name.h</text>
</a>
</g>
<!-- Node12&#45;&gt;Node13 -->
<g id="edge36" class="edge"><title>Node12&#45;&gt;Node13</title>
<path fill="none" stroke="midnightblue" d="M130.554,-174.362C115.938,-165.532 94.9376,-152.844 78.3502,-142.822"/>
<polygon fill="midnightblue" stroke="midnightblue" points="80.0267,-139.746 69.6576,-137.571 76.4069,-145.738 80.0267,-139.746"/>
</g>
<!-- Node13&#45;&gt;Node7 -->
<g id="edge40" class="edge"><title>Node13&#45;&gt;Node7</title>
<path fill="none" stroke="midnightblue" d="M57.9754,-116.295C68.5707,-96.7861 91.1625,-55.1884 104.561,-30.5177"/>
<polygon fill="midnightblue" stroke="midnightblue" points="107.665,-32.1373 109.361,-21.6792 101.513,-28.7964 107.665,-32.1373"/>
</g>
<!-- Node13&#45;&gt;Node9 -->
<g id="edge38" class="edge"><title>Node13&#45;&gt;Node9</title>
<path fill="none" stroke="midnightblue" d="M75.1601,-116.497C95.1746,-107.356 124.402,-94.0082 146.78,-83.7883"/>
<polygon fill="midnightblue" stroke="midnightblue" points="148.262,-86.9592 155.905,-79.6212 145.354,-80.5918 148.262,-86.9592"/>
</g>
</g>
</svg>
