<?xml version="1.0" encoding="UTF-8" standalone="no"?>
<!DOCTYPE svg PUBLIC "-//W3C//DTD SVG 1.1//EN"
 "http://www.w3.org/Graphics/SVG/1.1/DTD/svg11.dtd">
<!-- Generated by graphviz version 2.26.3 (20100126.1600)
 -->
<!-- Title: G Pages: 1 -->
<svg width="546pt" height="30pt"
 viewBox="0.00 0.00 546.00 30.00" xmlns="http://www.w3.org/2000/svg" xmlns:xlink="http://www.w3.org/1999/xlink">
<g id="graph1" class="graph" transform="scale(1 1) rotate(0) translate(4 26)">
<title>G</title>
<polygon fill="white" stroke="white" points="-4,5 -4,-26 543,-26 543,5 -4,5"/>
<!-- Node1 -->
<g id="node1" class="node"><title>Node1</title>
<polygon fill="#bfbfbf" stroke="black" points="0.5,-0.5 0.5,-21.5 173.5,-21.5 173.5,-0.5 0.5,-0.5"/>
<text text-anchor="middle" x="87" y="-8.5" font-family="DejaVuSans" font-size="10.00">Config::importantTextColorName</text>
</g>
<!-- Node2 -->
<g id="node3" class="node"><title>Node2</title>
<a xlink:href="class_message_box.html#a3d88d4db394fe56dfc110733a09be0b7" target="_top" xlink:title="MessageBox::formatMessage">
<polygon fill="white" stroke="black" points="210,-0.5 210,-21.5 368,-21.5 368,-0.5 210,-0.5"/>
<text text-anchor="middle" x="289" y="-8.5" font-family="DejaVuSans" font-size="10.00">MessageBox::formatMessage</text>
</a>
</g>
<!-- Node1&#45;&gt;Node2 -->
<g id="edge2" class="edge"><title>Node1&#45;&gt;Node2</title>
<path fill="none" stroke="midnightblue" d="M183.806,-11C192.577,-11 201.39,-11 209.98,-11"/>
<polygon fill="midnightblue" stroke="midnightblue" points="183.545,-7.5001 173.545,-11 183.545,-14.5001 183.545,-7.5001"/>
</g>
<!-- Node3 -->
<g id="node5" class="node"><title>Node3</title>
<a xlink:href="class_message_box.html#a476e90f135a7042f4d3b33249dae75b1" target="_top" xlink:title="MessageBox::formatText">
<polygon fill="white" stroke="black" points="404,-0.5 404,-21.5 538,-21.5 538,-0.5 404,-0.5"/>
<text text-anchor="middle" x="471" y="-8.5" font-family="DejaVuSans" font-size="10.00">MessageBox::formatText</text>
</a>
</g>
<!-- Node2&#45;&gt;Node3 -->
<g id="edge4" class="edge"><title>Node2&#45;&gt;Node3</title>
<path fill="none" stroke="midnightblue" d="M378.118,-11C386.733,-11 395.37,-11 403.721,-11"/>
<polygon fill="midnightblue" stroke="midnightblue" points="378.034,-7.5001 368.034,-11 378.034,-14.5001 378.034,-7.5001"/>
</g>
</g>
</svg>
