<?xml version="1.0" encoding="UTF-8" standalone="no"?>
<!DOCTYPE svg PUBLIC "-//W3C//DTD SVG 1.1//EN"
 "http://www.w3.org/Graphics/SVG/1.1/DTD/svg11.dtd">
<!-- Generated by graphviz version 2.26.3 (20100126.1600)
 -->
<!-- Title: G Pages: 1 -->
<svg width="526pt" height="30pt"
 viewBox="0.00 0.00 526.00 30.00" xmlns="http://www.w3.org/2000/svg" xmlns:xlink="http://www.w3.org/1999/xlink">
<g id="graph1" class="graph" transform="scale(1 1) rotate(0) translate(4 26)">
<title>G</title>
<polygon fill="white" stroke="white" points="-4,5 -4,-26 523,-26 523,5 -4,5"/>
<!-- Node1 -->
<g id="node1" class="node"><title>Node1</title>
<polygon fill="#bfbfbf" stroke="black" points="0,-0.5 0,-21.5 158,-21.5 158,-0.5 0,-0.5"/>
<text text-anchor="middle" x="79" y="-8.5" font-family="DejaVuSans" font-size="10.00">StorageTemplate::viceNames</text>
</g>
<!-- Node2 -->
<g id="node3" class="node"><title>Node2</title>
<a xlink:href="class_storage_template.html#a2e80f31564a058b2a7df5f092dc46eba" target="_top" xlink:title="StorageTemplate::traitNames">
<polygon fill="white" stroke="black" points="194,-0.5 194,-21.5 352,-21.5 352,-0.5 194,-0.5"/>
<text text-anchor="middle" x="273" y="-8.5" font-family="DejaVuSans" font-size="10.00">StorageTemplate::traitNames</text>
</a>
</g>
<!-- Node1&#45;&gt;Node2 -->
<g id="edge2" class="edge"><title>Node1&#45;&gt;Node2</title>
<path fill="none" stroke="midnightblue" d="M158.187,-11C166.529,-11 175.054,-11 183.502,-11"/>
<polygon fill="midnightblue" stroke="midnightblue" points="183.752,-14.5001 193.752,-11 183.752,-7.5001 183.752,-14.5001"/>
</g>
<!-- Node3 -->
<g id="node5" class="node"><title>Node3</title>
<a xlink:href="class_storage_template.html#a75022d10255d8f09b675d8c01d2295f3" target="_top" xlink:title="StorageTemplate::traits">
<polygon fill="white" stroke="black" points="388.5,-0.5 388.5,-21.5 517.5,-21.5 517.5,-0.5 388.5,-0.5"/>
<text text-anchor="middle" x="453" y="-8.5" font-family="DejaVuSans" font-size="10.00">StorageTemplate::traits</text>
</a>
</g>
<!-- Node2&#45;&gt;Node3 -->
<g id="edge4" class="edge"><title>Node2&#45;&gt;Node3</title>
<path fill="none" stroke="midnightblue" d="M352.213,-11C360.89,-11 369.703,-11 378.323,-11"/>
<polygon fill="midnightblue" stroke="midnightblue" points="378.334,-14.5001 388.334,-11 378.334,-7.5001 378.334,-14.5001"/>
</g>
</g>
</svg>
