<?xml version="1.0" encoding="UTF-8" standalone="no"?>
<!DOCTYPE svg PUBLIC "-//W3C//DTD SVG 1.1//EN"
 "http://www.w3.org/Graphics/SVG/1.1/DTD/svg11.dtd">
<!-- Generated by graphviz version 2.26.3 (20100126.1600)
 -->
<!-- Title: G Pages: 1 -->
<svg width="642pt" height="109pt"
 viewBox="0.00 0.00 642.00 109.00" xmlns="http://www.w3.org/2000/svg" xmlns:xlink="http://www.w3.org/1999/xlink">
<g id="graph1" class="graph" transform="scale(1 1) rotate(0) translate(4 105)">
<title>G</title>
<polygon fill="white" stroke="white" points="-4,5 -4,-105 639,-105 639,5 -4,5"/>
<!-- Node1 -->
<g id="node1" class="node"><title>Node1</title>
<polygon fill="#bfbfbf" stroke="black" points="0.5,-20.5 0.5,-41.5 175.5,-41.5 175.5,-20.5 0.5,-20.5"/>
<text text-anchor="middle" x="88" y="-28.5" font-family="DejaVuSans" font-size="10.00">CharaTrait::hideTraitIfNotAvailable</text>
</g>
<!-- Node2 -->
<g id="node3" class="node"><title>Node2</title>
<a xlink:href="class_chara_trait.html#abcfeed4a455c49246385c9bc2024ba15" target="_top" xlink:title="CharaTrait::setValue">
<polygon fill="white" stroke="black" points="212,-40.5 212,-61.5 324,-61.5 324,-40.5 212,-40.5"/>
<text text-anchor="middle" x="268" y="-48.5" font-family="DejaVuSans" font-size="10.00">CharaTrait::setValue</text>
</a>
</g>
<!-- Node1&#45;&gt;Node2 -->
<g id="edge2" class="edge"><title>Node1&#45;&gt;Node2</title>
<path fill="none" stroke="midnightblue" d="M175.627,-40.7364C184.399,-41.711 193.201,-42.689 201.699,-43.6332"/>
<polygon fill="midnightblue" stroke="midnightblue" points="201.567,-47.14 211.892,-44.7658 202.34,-40.1828 201.567,-47.14"/>
</g>
<!-- Node6 -->
<g id="node12" class="node"><title>Node6</title>
<a xlink:href="class_chara_trait.html#ae8c46557a34a5586b1fbcac00a7c47d6" target="_top" xlink:title="CharaTrait::species">
<polygon fill="white" stroke="black" points="214.5,-0.5 214.5,-21.5 321.5,-21.5 321.5,-0.5 214.5,-0.5"/>
<text text-anchor="middle" x="268" y="-8.5" font-family="DejaVuSans" font-size="10.00">CharaTrait::species</text>
</a>
</g>
<!-- Node1&#45;&gt;Node6 -->
<g id="edge12" class="edge"><title>Node1&#45;&gt;Node6</title>
<path fill="none" stroke="midnightblue" d="M175.627,-21.2636C185.345,-20.1839 195.099,-19.1001 204.437,-18.0626"/>
<polygon fill="midnightblue" stroke="midnightblue" points="204.832,-21.5403 214.384,-16.9573 204.059,-14.5831 204.832,-21.5403"/>
</g>
<!-- Node3 -->
<g id="node5" class="node"><title>Node3</title>
<a xlink:href="class_chara_trait.html#ab3935a94198f510d3de473a9a72692ac" target="_top" xlink:title="CharaTrait::traitChanged">
<polygon fill="white" stroke="black" points="360.5,-79.5 360.5,-100.5 493.5,-100.5 493.5,-79.5 360.5,-79.5"/>
<text text-anchor="middle" x="427" y="-87.5" font-family="DejaVuSans" font-size="10.00">CharaTrait::traitChanged</text>
</a>
</g>
<!-- Node2&#45;&gt;Node3 -->
<g id="edge4" class="edge"><title>Node2&#45;&gt;Node3</title>
<path fill="none" stroke="midnightblue" d="M311.028,-61.554C330.471,-66.323 353.63,-72.0035 374.121,-77.0296"/>
<polygon fill="midnightblue" stroke="midnightblue" points="373.392,-80.4546 383.938,-79.4376 375.06,-73.6561 373.392,-80.4546"/>
</g>
<!-- Node4 -->
<g id="node7" class="node"><title>Node4</title>
<a xlink:href="class_chara_trait.html#acd1abb86d271f401b9856f2c8e172255" target="_top" xlink:title="CharaTrait::traitPtr">
<polygon fill="white" stroke="black" points="530,-20.5 530,-41.5 634,-41.5 634,-20.5 530,-20.5"/>
<text text-anchor="middle" x="582" y="-28.5" font-family="DejaVuSans" font-size="10.00">CharaTrait::traitPtr</text>
</a>
</g>
<!-- Node2&#45;&gt;Node4 -->
<g id="edge6" class="edge"><title>Node2&#45;&gt;Node4</title>
<path fill="none" stroke="midnightblue" d="M324.137,-47.4244C379.105,-43.9233 462.677,-38.6002 519.677,-34.9696"/>
<polygon fill="midnightblue" stroke="midnightblue" points="520.241,-38.4409 529.998,-34.3122 519.796,-31.4551 520.241,-38.4409"/>
</g>
<!-- Node5 -->
<g id="node9" class="node"><title>Node5</title>
<a xlink:href="class_chara_trait.html#adeed572acc2fa97468285bc3267e9cb8" target="_top" xlink:title="CharaTrait::value">
<polygon fill="white" stroke="black" points="379,-1.5 379,-22.5 475,-22.5 475,-1.5 379,-1.5"/>
<text text-anchor="middle" x="427" y="-9.5" font-family="DejaVuSans" font-size="10.00">CharaTrait::value</text>
</a>
</g>
<!-- Node2&#45;&gt;Node5 -->
<g id="edge8" class="edge"><title>Node2&#45;&gt;Node5</title>
<path fill="none" stroke="midnightblue" d="M311.028,-40.446C330.471,-35.677 353.63,-29.9965 374.121,-24.9704"/>
<polygon fill="midnightblue" stroke="midnightblue" points="375.06,-28.3439 383.938,-22.5624 373.392,-21.5454 375.06,-28.3439"/>
</g>
<!-- Node5&#45;&gt;Node4 -->
<g id="edge10" class="edge"><title>Node5&#45;&gt;Node4</title>
<path fill="none" stroke="midnightblue" d="M475.193,-17.9076C489.273,-19.6335 504.867,-21.545 519.689,-23.3619"/>
<polygon fill="midnightblue" stroke="midnightblue" points="519.448,-26.8584 529.799,-24.6012 520.299,-19.9104 519.448,-26.8584"/>
</g>
</g>
</svg>
