<?xml version="1.0" encoding="UTF-8" standalone="no"?>
<!DOCTYPE svg PUBLIC "-//W3C//DTD SVG 1.1//EN"
 "http://www.w3.org/Graphics/SVG/1.1/DTD/svg11.dtd">
<!-- Generated by graphviz version 2.26.3 (20100126.1600)
 -->
<!-- Title: G Pages: 1 -->
<svg width="846pt" height="659pt"
 viewBox="0.00 0.00 846.00 659.00" xmlns="http://www.w3.org/2000/svg" xmlns:xlink="http://www.w3.org/1999/xlink">
<g id="graph1" class="graph" transform="scale(1 1) rotate(0) translate(4 655)">
<title>G</title>
<polygon fill="white" stroke="white" points="-4,5 -4,-655 843,-655 843,5 -4,5"/>
<!-- Node1 -->
<g id="node1" class="node"><title>Node1</title>
<polygon fill="#bfbfbf" stroke="black" points="0.5,-257.5 0.5,-278.5 119.5,-278.5 119.5,-257.5 0.5,-257.5"/>
<text text-anchor="middle" x="60" y="-265.5" font-family="DejaVuSans" font-size="10.00">CharaTrait::CharaTrait</text>
</g>
<!-- Node2 -->
<g id="node3" class="node"><title>Node2</title>
<a xlink:href="class_chara_trait.html#ab02b27973fec9c68cee320dd61e5c618" target="_top" xlink:title="CharaTrait::checkTraitPrerequisites">
<polygon fill="white" stroke="black" points="156,-569.5 156,-590.5 336,-590.5 336,-569.5 156,-569.5"/>
<text text-anchor="middle" x="246" y="-577.5" font-family="DejaVuSans" font-size="10.00">CharaTrait::checkTraitPrerequisites</text>
</a>
</g>
<!-- Node1&#45;&gt;Node2 -->
<g id="edge2" class="edge"><title>Node1&#45;&gt;Node2</title>
<path fill="none" stroke="midnightblue" d="M60.7961,-278.626C64.3099,-318.307 81.7424,-459.637 156,-540 166.465,-551.326 180.727,-559.636 194.811,-565.65"/>
<polygon fill="midnightblue" stroke="midnightblue" points="193.898,-569.052 204.485,-569.455 196.46,-562.537 193.898,-569.052"/>
</g>
<!-- Node5 -->
<g id="node9" class="node"><title>Node5</title>
<a xlink:href="class_chara_trait.html#abcfeed4a455c49246385c9bc2024ba15" target="_top" xlink:title="CharaTrait::setValue">
<polygon fill="white" stroke="black" points="394,-509.5 394,-530.5 506,-530.5 506,-509.5 394,-509.5"/>
<text text-anchor="middle" x="450" y="-517.5" font-family="DejaVuSans" font-size="10.00">CharaTrait::setValue</text>
</a>
</g>
<!-- Node1&#45;&gt;Node5 -->
<g id="edge58" class="edge"><title>Node1&#45;&gt;Node5</title>
<path fill="none" stroke="midnightblue" d="M61.9253,-278.933C68.4132,-312.317 92.7249,-413.595 156,-462 165.071,-468.939 300.045,-493.651 383.919,-508.487"/>
<polygon fill="midnightblue" stroke="midnightblue" points="383.426,-511.954 393.882,-510.245 384.643,-505.06 383.426,-511.954"/>
</g>
<!-- Node7 -->
<g id="node13" class="node"><title>Node7</title>
<a xlink:href="class_chara_trait.html#ab3935a94198f510d3de473a9a72692ac" target="_top" xlink:title="CharaTrait::traitChanged">
<polygon fill="white" stroke="black" points="564.5,-353.5 564.5,-374.5 697.5,-374.5 697.5,-353.5 564.5,-353.5"/>
<text text-anchor="middle" x="631" y="-361.5" font-family="DejaVuSans" font-size="10.00">CharaTrait::traitChanged</text>
</a>
</g>
<!-- Node1&#45;&gt;Node7 -->
<g id="edge62" class="edge"><title>Node1&#45;&gt;Node7</title>
<path fill="none" stroke="midnightblue" d="M73.029,-278.546C90.6556,-292.156 123.631,-315.348 156,-326 290.771,-370.348 458.149,-372.331 553.96,-368.808"/>
<polygon fill="midnightblue" stroke="midnightblue" points="554.291,-372.298 564.144,-368.403 554.012,-365.303 554.291,-372.298"/>
</g>
<!-- Node8 -->
<g id="node15" class="node"><title>Node8</title>
<a xlink:href="class_chara_trait.html#acd1abb86d271f401b9856f2c8e172255" target="_top" xlink:title="CharaTrait::traitPtr">
<polygon fill="white" stroke="black" points="734,-393.5 734,-414.5 838,-414.5 838,-393.5 734,-393.5"/>
<text text-anchor="middle" x="786" y="-401.5" font-family="DejaVuSans" font-size="10.00">CharaTrait::traitPtr</text>
</a>
</g>
<!-- Node1&#45;&gt;Node8 -->
<g id="edge64" class="edge"><title>Node1&#45;&gt;Node8</title>
<path fill="none" stroke="midnightblue" d="M119.707,-270.245C268.245,-276.16 646.206,-293.361 698,-317 730.518,-331.841 757.938,-364.139 773.152,-384.935"/>
<polygon fill="midnightblue" stroke="midnightblue" points="770.449,-387.174 779.081,-393.317 776.164,-383.132 770.449,-387.174"/>
</g>
<!-- Node11 -->
<g id="node22" class="node"><title>Node11</title>
<a xlink:href="class_chara_trait.html#ab04ba68cad00668e6379a9e3fb1e5d8a" target="_top" xlink:title="CharaTrait::emitSpecialtiesClicked">
<polygon fill="white" stroke="black" points="157,-238.5 157,-259.5 335,-259.5 335,-238.5 157,-238.5"/>
<text text-anchor="middle" x="246" y="-246.5" font-family="DejaVuSans" font-size="10.00">CharaTrait::emitSpecialtiesClicked</text>
</a>
</g>
<!-- Node1&#45;&gt;Node11 -->
<g id="edge22" class="edge"><title>Node1&#45;&gt;Node11</title>
<path fill="none" stroke="midnightblue" d="M119.619,-261.91C128.359,-261.017 137.552,-260.078 146.828,-259.131"/>
<polygon fill="midnightblue" stroke="midnightblue" points="147.315,-262.599 156.907,-258.101 146.603,-255.635 147.315,-262.599"/>
</g>
<!-- Node12 -->
<g id="node24" class="node"><title>Node12</title>
<a xlink:href="class_chara_trait.html#ae6604555d60fe78d7473942e3502060b" target="_top" xlink:title="CharaTrait::specialtiesClicked">
<polygon fill="white" stroke="black" points="372.5,-199.5 372.5,-220.5 527.5,-220.5 527.5,-199.5 372.5,-199.5"/>
<text text-anchor="middle" x="450" y="-207.5" font-family="DejaVuSans" font-size="10.00">CharaTrait::specialtiesClicked</text>
</a>
</g>
<!-- Node1&#45;&gt;Node12 -->
<g id="edge60" class="edge"><title>Node1&#45;&gt;Node12</title>
<path fill="none" stroke="midnightblue" d="M80.3458,-257.486C99.3607,-248.21 128.82,-235.227 156,-229 224.103,-213.398 303.234,-209.036 362.234,-208.362"/>
<polygon fill="midnightblue" stroke="midnightblue" points="362.295,-211.862 372.266,-208.28 362.238,-204.862 362.295,-211.862"/>
</g>
<!-- Node13 -->
<g id="node27" class="node"><title>Node13</title>
<a xlink:href="class_storage_character.html#a50022b948be1e566d902d64095c4470b" target="_top" xlink:title="StorageCharacter::getInstance">
<polygon fill="white" stroke="black" points="164,-160.5 164,-181.5 328,-181.5 328,-160.5 164,-160.5"/>
<text text-anchor="middle" x="246" y="-168.5" font-family="DejaVuSans" font-size="10.00">StorageCharacter::getInstance</text>
</a>
</g>
<!-- Node1&#45;&gt;Node13 -->
<g id="edge28" class="edge"><title>Node1&#45;&gt;Node13</title>
<path fill="none" stroke="midnightblue" d="M71.179,-257.368C88.1851,-241.746 122.165,-212.647 156,-196 165.263,-191.443 175.483,-187.606 185.613,-184.414"/>
<polygon fill="midnightblue" stroke="midnightblue" points="186.674,-187.75 195.263,-181.548 184.681,-181.04 186.674,-187.75"/>
</g>
<!-- Node14 -->
<g id="node29" class="node"><title>Node14</title>
<a xlink:href="class_chara_trait.html#a794ddd73f3604b16fe4b468b4a02f7df" target="_top" xlink:title="CharaTrait::hideDescriptionWidget">
<polygon fill="white" stroke="black" points="157.5,-120.5 157.5,-141.5 334.5,-141.5 334.5,-120.5 157.5,-120.5"/>
<text text-anchor="middle" x="246" y="-128.5" font-family="DejaVuSans" font-size="10.00">CharaTrait::hideDescriptionWidget</text>
</a>
</g>
<!-- Node1&#45;&gt;Node14 -->
<g id="edge30" class="edge"><title>Node1&#45;&gt;Node14</title>
<path fill="none" stroke="midnightblue" d="M65.5335,-257.254C78.1547,-233.892 111.456,-178.382 156,-151 159.43,-148.891 163.055,-147.004 166.804,-145.315"/>
<polygon fill="midnightblue" stroke="midnightblue" points="168.345,-148.468 176.336,-141.511 165.751,-141.967 168.345,-148.468"/>
</g>
<!-- Node17 -->
<g id="node35" class="node"><title>Node17</title>
<a xlink:href="class_chara_trait.html#a06ea530908c65caf8aad3f494f0d2cb8" target="_top" xlink:title="CharaTrait::hideSpecialtyWidget">
<polygon fill="white" stroke="black" points="162.5,-80.5 162.5,-101.5 329.5,-101.5 329.5,-80.5 162.5,-80.5"/>
<text text-anchor="middle" x="246" y="-88.5" font-family="DejaVuSans" font-size="10.00">CharaTrait::hideSpecialtyWidget</text>
</a>
</g>
<!-- Node1&#45;&gt;Node17 -->
<g id="edge36" class="edge"><title>Node1&#45;&gt;Node17</title>
<path fill="none" stroke="midnightblue" d="M63.2904,-257.171C72.6329,-228.367 102.188,-149.444 156,-111 158.67,-109.093 161.489,-107.362 164.417,-105.793"/>
<polygon fill="midnightblue" stroke="midnightblue" points="165.909,-108.959 173.485,-101.553 162.944,-102.618 165.909,-108.959"/>
</g>
<!-- Node19 -->
<g id="node39" class="node"><title>Node19</title>
<a xlink:href="class_chara_trait.html#a8b30fcf229fb59f96c3926a59269194e" target="_top" xlink:title="CharaTrait::hideTraitIfNotAvailable">
<polygon fill="white" stroke="black" points="158.5,-509.5 158.5,-530.5 333.5,-530.5 333.5,-509.5 158.5,-509.5"/>
<text text-anchor="middle" x="246" y="-517.5" font-family="DejaVuSans" font-size="10.00">CharaTrait::hideTraitIfNotAvailable</text>
</a>
</g>
<!-- Node1&#45;&gt;Node19 -->
<g id="edge40" class="edge"><title>Node1&#45;&gt;Node19</title>
<path fill="none" stroke="midnightblue" d="M61.2465,-278.677C66.0535,-314.887 86.7257,-434.141 156,-495 160.527,-498.977 165.635,-502.326 171.062,-505.146"/>
<polygon fill="midnightblue" stroke="midnightblue" points="169.895,-508.46 180.447,-509.409 172.79,-502.086 169.895,-508.46"/>
</g>
<!-- Node21 -->
<g id="node44" class="node"><title>Node21</title>
<a xlink:href="class_chara_trait.html#ace22816278072df97eb782603153600b" target="_top" xlink:title="CharaTrait::setCustomText">
<polygon fill="white" stroke="black" points="379,-315.5 379,-336.5 521,-336.5 521,-315.5 379,-315.5"/>
<text text-anchor="middle" x="450" y="-323.5" font-family="DejaVuSans" font-size="10.00">CharaTrait::setCustomText</text>
</a>
</g>
<!-- Node1&#45;&gt;Node21 -->
<g id="edge46" class="edge"><title>Node1&#45;&gt;Node21</title>
<path fill="none" stroke="midnightblue" d="M84.3543,-278.606C103.462,-286.438 130.931,-296.633 156,-302 226.889,-317.177 309.277,-322.908 368.771,-324.999"/>
<polygon fill="midnightblue" stroke="midnightblue" points="368.751,-328.5 378.86,-325.326 368.979,-321.504 368.751,-328.5"/>
</g>
<!-- Node22 -->
<g id="node48" class="node"><title>Node22</title>
<a xlink:href="class_trait_line.html#a928e4906892bb23afce954034542373d" target="_top" xlink:title="TraitLine::setPossibleValues">
<polygon fill="white" stroke="black" points="172.5,-40.5 172.5,-61.5 319.5,-61.5 319.5,-40.5 172.5,-40.5"/>
<text text-anchor="middle" x="246" y="-48.5" font-family="DejaVuSans" font-size="10.00">TraitLine::setPossibleValues</text>
</a>
</g>
<!-- Node1&#45;&gt;Node22 -->
<g id="edge52" class="edge"><title>Node1&#45;&gt;Node22</title>
<path fill="none" stroke="midnightblue" d="M61.8308,-257.442C68.1693,-224.242 92.3804,-121.197 156,-71 158.297,-69.1875 160.725,-67.5318 163.254,-66.0199"/>
<polygon fill="midnightblue" stroke="midnightblue" points="164.907,-69.1054 172.194,-61.414 161.701,-62.8827 164.907,-69.1054"/>
</g>
<!-- Node24 -->
<g id="node52" class="node"><title>Node24</title>
<a xlink:href="class_chara_trait.html#a5fde2e5e662ac55c7381678f480062a8" target="_top" xlink:title="CharaTrait::setTraitPtr">
<polygon fill="white" stroke="black" points="186.5,-0.5 186.5,-21.5 305.5,-21.5 305.5,-0.5 186.5,-0.5"/>
<text text-anchor="middle" x="246" y="-8.5" font-family="DejaVuSans" font-size="10.00">CharaTrait::setTraitPtr</text>
</a>
</g>
<!-- Node1&#45;&gt;Node24 -->
<g id="edge56" class="edge"><title>Node1&#45;&gt;Node24</title>
<path fill="none" stroke="midnightblue" d="M60.9112,-257.248C64.6988,-219.665 82.6327,-93.0856 156,-31 162.014,-25.911 169.042,-22.0395 176.472,-19.1055"/>
<polygon fill="midnightblue" stroke="midnightblue" points="177.698,-22.3857 186.052,-15.8695 175.458,-15.7538 177.698,-22.3857"/>
</g>
<!-- Node25 -->
<g id="node58" class="node"><title>Node25</title>
<a xlink:href="class_chara_trait.html#a0a5adca1cfd4732d6c4f64299e6d6fd3" target="_top" xlink:title="CharaTrait::updateWidget">
<polygon fill="white" stroke="black" points="177.5,-431.5 177.5,-452.5 314.5,-452.5 314.5,-431.5 177.5,-431.5"/>
<text text-anchor="middle" x="246" y="-439.5" font-family="DejaVuSans" font-size="10.00">CharaTrait::updateWidget</text>
</a>
</g>
<!-- Node1&#45;&gt;Node25 -->
<g id="edge66" class="edge"><title>Node1&#45;&gt;Node25</title>
<path fill="none" stroke="midnightblue" d="M67.7085,-278.551C83.0962,-299.214 119.307,-345.883 156,-379 175.833,-396.901 200.908,-414.074 219.55,-425.957"/>
<polygon fill="midnightblue" stroke="midnightblue" points="217.804,-428.993 228.134,-431.345 221.525,-423.064 217.804,-428.993"/>
</g>
<!-- Node3 -->
<g id="node5" class="node"><title>Node3</title>
<a xlink:href="class_exception.html#a7cb124af6ec64ad88a8721b60c7932fb" target="_top" xlink:title="Exception::description">
<polygon fill="white" stroke="black" points="389,-629.5 389,-650.5 511,-650.5 511,-629.5 389,-629.5"/>
<text text-anchor="middle" x="450" y="-637.5" font-family="DejaVuSans" font-size="10.00">Exception::description</text>
</a>
</g>
<!-- Node2&#45;&gt;Node3 -->
<g id="edge4" class="edge"><title>Node2&#45;&gt;Node3</title>
<path fill="none" stroke="midnightblue" d="M277.437,-590.523C302.837,-598.893 339.569,-610.702 372,-620 380.113,-622.326 388.738,-624.667 397.182,-626.887"/>
<polygon fill="midnightblue" stroke="midnightblue" points="396.411,-630.303 406.97,-629.429 398.171,-623.528 396.411,-630.303"/>
</g>
<!-- Node4 -->
<g id="node7" class="node"><title>Node4</title>
<a xlink:href="class_exception.html#aeaf3a81717287d50938bc72ed67bacd8" target="_top" xlink:title="Exception::message">
<polygon fill="white" stroke="black" points="393.5,-589.5 393.5,-610.5 506.5,-610.5 506.5,-589.5 393.5,-589.5"/>
<text text-anchor="middle" x="450" y="-597.5" font-family="DejaVuSans" font-size="10.00">Exception::message</text>
</a>
</g>
<!-- Node2&#45;&gt;Node4 -->
<g id="edge6" class="edge"><title>Node2&#45;&gt;Node4</title>
<path fill="none" stroke="midnightblue" d="M336.071,-588.831C351.855,-590.378 368.025,-591.963 383.041,-593.435"/>
<polygon fill="midnightblue" stroke="midnightblue" points="382.94,-596.942 393.234,-594.435 383.623,-589.976 382.94,-596.942"/>
</g>
<!-- Node2&#45;&gt;Node5 -->
<g id="edge8" class="edge"><title>Node2&#45;&gt;Node5</title>
<path fill="none" stroke="midnightblue" d="M277.437,-569.477C302.837,-561.107 339.569,-549.298 372,-540 380.113,-537.674 388.738,-535.333 397.182,-533.113"/>
<polygon fill="midnightblue" stroke="midnightblue" points="398.171,-536.472 406.97,-530.571 396.411,-529.697 398.171,-536.472"/>
</g>
<!-- Node6 -->
<g id="node11" class="node"><title>Node6</title>
<a xlink:href="classcv___trait.html#aa1d68882182c6858991571f21ddef507" target="_top" xlink:title="cv_Trait::setValue">
<polygon fill="white" stroke="black" points="581.5,-511.5 581.5,-532.5 680.5,-532.5 680.5,-511.5 581.5,-511.5"/>
<text text-anchor="middle" x="631" y="-519.5" font-family="DejaVuSans" font-size="10.00">cv_Trait::setValue</text>
</a>
</g>
<!-- Node5&#45;&gt;Node6 -->
<g id="edge10" class="edge"><title>Node5&#45;&gt;Node6</title>
<path fill="none" stroke="midnightblue" d="M506.277,-520.622C526.968,-520.85 550.456,-521.11 571.427,-521.342"/>
<polygon fill="midnightblue" stroke="midnightblue" points="571.458,-524.842 581.496,-521.453 571.535,-517.843 571.458,-524.842"/>
</g>
<!-- Node5&#45;&gt;Node7 -->
<g id="edge12" class="edge"><title>Node5&#45;&gt;Node7</title>
<path fill="none" stroke="midnightblue" d="M455.916,-509.344C470.679,-483.744 511.742,-418.36 564,-384 567.071,-381.981 570.354,-380.159 573.754,-378.517"/>
<polygon fill="midnightblue" stroke="midnightblue" points="575.149,-381.727 582.966,-374.576 572.396,-375.291 575.149,-381.727"/>
</g>
<!-- Node5&#45;&gt;Node8 -->
<g id="edge14" class="edge"><title>Node5&#45;&gt;Node8</title>
<path fill="none" stroke="midnightblue" d="M495.256,-530.531C557.511,-543.933 665.559,-562.976 698,-542 730.742,-520.83 712.735,-494.68 734,-462 743.497,-447.406 756.594,-432.821 767.268,-421.927"/>
<polygon fill="midnightblue" stroke="midnightblue" points="769.909,-424.236 774.526,-414.7 764.97,-419.276 769.909,-424.236"/>
</g>
<!-- Node9 -->
<g id="node17" class="node"><title>Node9</title>
<a xlink:href="class_chara_trait.html#adeed572acc2fa97468285bc3267e9cb8" target="_top" xlink:title="CharaTrait::value">
<polygon fill="white" stroke="black" points="583,-471.5 583,-492.5 679,-492.5 679,-471.5 583,-471.5"/>
<text text-anchor="middle" x="631" y="-479.5" font-family="DejaVuSans" font-size="10.00">CharaTrait::value</text>
</a>
</g>
<!-- Node5&#45;&gt;Node9 -->
<g id="edge16" class="edge"><title>Node5&#45;&gt;Node9</title>
<path fill="none" stroke="midnightblue" d="M500.419,-509.415C522.834,-504.709 549.36,-499.14 572.629,-494.255"/>
<polygon fill="midnightblue" stroke="midnightblue" points="573.654,-497.616 582.722,-492.136 572.216,-490.765 573.654,-497.616"/>
</g>
<!-- Node9&#45;&gt;Node8 -->
<g id="edge18" class="edge"><title>Node9&#45;&gt;Node8</title>
<path fill="none" stroke="midnightblue" d="M662.861,-471.475C674.149,-467.391 686.819,-462.396 698,-457 720.432,-446.175 744.578,-431.388 761.893,-420.183"/>
<polygon fill="midnightblue" stroke="midnightblue" points="763.832,-423.097 770.279,-414.69 759.996,-417.241 763.832,-423.097"/>
</g>
<!-- Node10 -->
<g id="node20" class="node"><title>Node10</title>
<a xlink:href="classcv___trait.html#a965fb56fc4ff6e659b4c44752cfaa538" target="_top" xlink:title="cv_Trait::value">
<polygon fill="white" stroke="black" points="744.5,-471.5 744.5,-492.5 827.5,-492.5 827.5,-471.5 744.5,-471.5"/>
<text text-anchor="middle" x="786" y="-479.5" font-family="DejaVuSans" font-size="10.00">cv_Trait::value</text>
</a>
</g>
<!-- Node9&#45;&gt;Node10 -->
<g id="edge20" class="edge"><title>Node9&#45;&gt;Node10</title>
<path fill="none" stroke="midnightblue" d="M679.193,-482C696.651,-482 716.436,-482 734.191,-482"/>
<polygon fill="midnightblue" stroke="midnightblue" points="734.378,-485.5 744.378,-482 734.378,-478.5 734.378,-485.5"/>
</g>
<!-- Node11&#45;&gt;Node8 -->
<g id="edge26" class="edge"><title>Node11&#45;&gt;Node8</title>
<path fill="none" stroke="midnightblue" d="M335.157,-244.495C448.937,-240.31 638.198,-239.064 698,-273 741.484,-297.676 767.689,-353.737 779.155,-383.9"/>
<polygon fill="midnightblue" stroke="midnightblue" points="775.899,-385.188 782.599,-393.395 782.479,-382.801 775.899,-385.188"/>
</g>
<!-- Node11&#45;&gt;Node12 -->
<g id="edge24" class="edge"><title>Node11&#45;&gt;Node12</title>
<path fill="none" stroke="midnightblue" d="M300.937,-238.497C326.783,-233.556 357.794,-227.628 384.821,-222.461"/>
<polygon fill="midnightblue" stroke="midnightblue" points="385.8,-225.837 394.965,-220.521 384.486,-218.961 385.8,-225.837"/>
</g>
<!-- Node15 -->
<g id="node31" class="node"><title>Node15</title>
<a xlink:href="class_chara_trait.html#a6f2348de11d23f9f44eb81335a9edf19" target="_top" xlink:title="CharaTrait::custom">
<polygon fill="white" stroke="black" points="396.5,-159.5 396.5,-180.5 503.5,-180.5 503.5,-159.5 396.5,-159.5"/>
<text text-anchor="middle" x="450" y="-167.5" font-family="DejaVuSans" font-size="10.00">CharaTrait::custom</text>
</a>
</g>
<!-- Node14&#45;&gt;Node15 -->
<g id="edge32" class="edge"><title>Node14&#45;&gt;Node15</title>
<path fill="none" stroke="midnightblue" d="M300.937,-141.503C327.318,-146.546 359.078,-152.618 386.492,-157.859"/>
<polygon fill="midnightblue" stroke="midnightblue" points="385.898,-161.308 396.377,-159.749 387.212,-154.433 385.898,-161.308"/>
</g>
<!-- Node16 -->
<g id="node33" class="node"><title>Node16</title>
<a xlink:href="class_trait_line.html#aba4c8e4ee4f0aab02bb26d4bb63e7dec" target="_top" xlink:title="TraitLine::hideDescription">
<polygon fill="white" stroke="black" points="382,-119.5 382,-140.5 518,-140.5 518,-119.5 382,-119.5"/>
<text text-anchor="middle" x="450" y="-127.5" font-family="DejaVuSans" font-size="10.00">TraitLine::hideDescription</text>
</a>
</g>
<!-- Node14&#45;&gt;Node16 -->
<g id="edge34" class="edge"><title>Node14&#45;&gt;Node16</title>
<path fill="none" stroke="midnightblue" d="M334.587,-130.566C346.936,-130.505 359.552,-130.443 371.693,-130.384"/>
<polygon fill="midnightblue" stroke="midnightblue" points="371.782,-133.884 381.765,-130.334 371.748,-126.884 371.782,-133.884"/>
</g>
<!-- Node18 -->
<g id="node37" class="node"><title>Node18</title>
<a xlink:href="class_trait_line.html#a95f9132e89bcfae9a062573649e98c19" target="_top" xlink:title="TraitLine::hideSpecialties">
<polygon fill="white" stroke="black" points="383,-79.5 383,-100.5 517,-100.5 517,-79.5 383,-79.5"/>
<text text-anchor="middle" x="450" y="-87.5" font-family="DejaVuSans" font-size="10.00">TraitLine::hideSpecialties</text>
</a>
</g>
<!-- Node17&#45;&gt;Node18 -->
<g id="edge38" class="edge"><title>Node17&#45;&gt;Node18</title>
<path fill="none" stroke="midnightblue" d="M329.563,-90.5904C343.819,-90.5205 358.571,-90.4482 372.656,-90.3791"/>
<polygon fill="midnightblue" stroke="midnightblue" points="372.795,-93.8786 382.778,-90.3295 372.761,-86.8787 372.795,-93.8786"/>
</g>
<!-- Node19&#45;&gt;Node5 -->
<g id="edge42" class="edge"><title>Node19&#45;&gt;Node5</title>
<path fill="none" stroke="midnightblue" d="M333.698,-520C350.441,-520 367.708,-520 383.647,-520"/>
<polygon fill="midnightblue" stroke="midnightblue" points="383.91,-523.5 393.91,-520 383.91,-516.5 383.91,-523.5"/>
</g>
<!-- Node20 -->
<g id="node42" class="node"><title>Node20</title>
<a xlink:href="class_chara_trait.html#ae8c46557a34a5586b1fbcac00a7c47d6" target="_top" xlink:title="CharaTrait::species">
<polygon fill="white" stroke="black" points="396.5,-549.5 396.5,-570.5 503.5,-570.5 503.5,-549.5 396.5,-549.5"/>
<text text-anchor="middle" x="450" y="-557.5" font-family="DejaVuSans" font-size="10.00">CharaTrait::species</text>
</a>
</g>
<!-- Node19&#45;&gt;Node20 -->
<g id="edge44" class="edge"><title>Node19&#45;&gt;Node20</title>
<path fill="none" stroke="midnightblue" d="M299.599,-530.51C326.199,-535.725 358.516,-542.062 386.366,-547.523"/>
<polygon fill="midnightblue" stroke="midnightblue" points="385.919,-551.002 396.406,-549.491 387.266,-544.132 385.919,-551.002"/>
</g>
<!-- Node21&#45;&gt;Node7 -->
<g id="edge48" class="edge"><title>Node21&#45;&gt;Node7</title>
<path fill="none" stroke="midnightblue" d="M500.419,-336.585C522.287,-341.176 548.068,-346.589 570.921,-351.387"/>
<polygon fill="midnightblue" stroke="midnightblue" points="570.346,-354.842 580.852,-353.472 571.784,-347.992 570.346,-354.842"/>
</g>
<!-- Node21&#45;&gt;Node8 -->
<g id="edge50" class="edge"><title>Node21&#45;&gt;Node8</title>
<path fill="none" stroke="midnightblue" d="M521.19,-321.489C571.866,-320.575 640.83,-324.07 698,-344 724.318,-353.175 750.151,-372.345 766.947,-386.56"/>
<polygon fill="midnightblue" stroke="midnightblue" points="765.024,-389.528 774.861,-393.463 769.625,-384.252 765.024,-389.528"/>
</g>
<!-- Node23 -->
<g id="node50" class="node"><title>Node23</title>
<a xlink:href="class_trait_dots.html#a5ea410276a2001288a6eaa25ee242bac" target="_top" xlink:title="TraitDots::setAllowedValues">
<polygon fill="white" stroke="black" points="376.5,-39.5 376.5,-60.5 523.5,-60.5 523.5,-39.5 376.5,-39.5"/>
<text text-anchor="middle" x="450" y="-47.5" font-family="DejaVuSans" font-size="10.00">TraitDots::setAllowedValues</text>
</a>
</g>
<!-- Node22&#45;&gt;Node23 -->
<g id="edge54" class="edge"><title>Node22&#45;&gt;Node23</title>
<path fill="none" stroke="midnightblue" d="M319.649,-50.639C334.815,-50.5646 350.89,-50.4858 366.38,-50.4099"/>
<polygon fill="midnightblue" stroke="midnightblue" points="366.477,-53.9096 376.459,-50.3605 366.442,-46.9097 366.477,-53.9096"/>
</g>
<!-- Node25&#45;&gt;Node5 -->
<g id="edge72" class="edge"><title>Node25&#45;&gt;Node5</title>
<path fill="none" stroke="midnightblue" d="M297.279,-452.535C310.287,-456.198 323.975,-460.952 336,-467 354.109,-476.107 354.074,-485.539 372,-495 380.127,-499.289 389.122,-503.006 398.028,-506.166"/>
<polygon fill="midnightblue" stroke="midnightblue" points="397.019,-509.519 407.612,-509.378 399.243,-502.882 397.019,-509.519"/>
</g>
<!-- Node25&#45;&gt;Node8 -->
<g id="edge74" class="edge"><title>Node25&#45;&gt;Node8</title>
<path fill="none" stroke="midnightblue" d="M314.87,-443.172C403.783,-443.79 563.116,-441.859 698,-424 710.746,-422.312 724.363,-419.652 736.982,-416.815"/>
<polygon fill="midnightblue" stroke="midnightblue" points="737.908,-420.193 746.854,-414.518 736.321,-413.375 737.908,-420.193"/>
</g>
<!-- Node25&#45;&gt;Node9 -->
<g id="edge76" class="edge"><title>Node25&#45;&gt;Node9</title>
<path fill="none" stroke="midnightblue" d="M314.632,-450.451C333.238,-452.666 353.383,-454.994 372,-457 440.845,-464.42 520.101,-471.917 572.619,-476.739"/>
<polygon fill="midnightblue" stroke="midnightblue" points="572.478,-480.24 582.755,-477.667 573.116,-473.27 572.478,-480.24"/>
</g>
<!-- Node26 -->
<g id="node60" class="node"><title>Node26</title>
<a xlink:href="class_chara_trait.html#a7cc9b10030c5e6d5030fb898506ee070" target="_top" xlink:title="CharaTrait::customText">
<polygon fill="white" stroke="black" points="568.5,-393.5 568.5,-414.5 693.5,-414.5 693.5,-393.5 568.5,-393.5"/>
<text text-anchor="middle" x="631" y="-401.5" font-family="DejaVuSans" font-size="10.00">CharaTrait::customText</text>
</a>
</g>
<!-- Node25&#45;&gt;Node26 -->
<g id="edge68" class="edge"><title>Node25&#45;&gt;Node26</title>
<path fill="none" stroke="midnightblue" d="M314.655,-434.834C333.261,-432.914 353.4,-430.857 372,-429 434.896,-422.72 506.411,-415.836 558.334,-410.885"/>
<polygon fill="midnightblue" stroke="midnightblue" points="558.826,-414.354 568.449,-409.921 558.162,-407.386 558.826,-414.354"/>
</g>
<!-- Node26&#45;&gt;Node8 -->
<g id="edge70" class="edge"><title>Node26&#45;&gt;Node8</title>
<path fill="none" stroke="midnightblue" d="M693.598,-404C703.45,-404 713.637,-404 723.488,-404"/>
<polygon fill="midnightblue" stroke="midnightblue" points="723.603,-407.5 733.603,-404 723.603,-400.5 723.603,-407.5"/>
</g>
</g>
</svg>
