<?xml version="1.0" encoding="UTF-8" standalone="no"?>
<!DOCTYPE svg PUBLIC "-//W3C//DTD SVG 1.1//EN"
 "http://www.w3.org/Graphics/SVG/1.1/DTD/svg11.dtd">
<!-- Generated by graphviz version 2.26.3 (20100126.1600)
 -->
<!-- Title: G Pages: 1 -->
<svg width="390pt" height="70pt"
 viewBox="0.00 0.00 390.00 70.00" xmlns="http://www.w3.org/2000/svg" xmlns:xlink="http://www.w3.org/1999/xlink">
<g id="graph1" class="graph" transform="scale(1 1) rotate(0) translate(4 66)">
<title>G</title>
<polygon fill="white" stroke="white" points="-4,5 -4,-66 387,-66 387,5 -4,5"/>
<!-- Node1 -->
<g id="node1" class="node"><title>Node1</title>
<polygon fill="#bfbfbf" stroke="black" points="0,-20.5 0,-41.5 166,-41.5 166,-20.5 0,-20.5"/>
<text text-anchor="middle" x="83" y="-28.5" font-family="DejaVuSans" font-size="10.00">StorageTemplate::virtueNames</text>
</g>
<!-- Node2 -->
<g id="node3" class="node"><title>Node2</title>
<a xlink:href="class_info_widget.html#a19f07d861d22be4881361a5a32e86451" target="_top" xlink:title="InfoWidget::InfoWidget">
<polygon fill="white" stroke="black" points="231,-40.5 231,-61.5 353,-61.5 353,-40.5 231,-40.5"/>
<text text-anchor="middle" x="292" y="-48.5" font-family="DejaVuSans" font-size="10.00">InfoWidget::InfoWidget</text>
</a>
</g>
<!-- Node1&#45;&gt;Node2 -->
<g id="edge2" class="edge"><title>Node1&#45;&gt;Node2</title>
<path fill="none" stroke="midnightblue" d="M176.162,-39.9151C194.747,-41.6935 213.816,-43.5183 230.98,-45.1608"/>
<polygon fill="midnightblue" stroke="midnightblue" points="176.491,-36.4306 166.203,-38.962 175.824,-43.3988 176.491,-36.4306"/>
</g>
<!-- Node3 -->
<g id="node5" class="node"><title>Node3</title>
<a xlink:href="class_storage_character.html#a6534667b942bd21253c432fee79a8850" target="_top" xlink:title="StorageCharacter::resetCharacter">
<polygon fill="white" stroke="black" points="202,-0.5 202,-21.5 382,-21.5 382,-0.5 202,-0.5"/>
<text text-anchor="middle" x="292" y="-8.5" font-family="DejaVuSans" font-size="10.00">StorageCharacter::resetCharacter</text>
</a>
</g>
<!-- Node1&#45;&gt;Node3 -->
<g id="edge4" class="edge"><title>Node1&#45;&gt;Node3</title>
<path fill="none" stroke="midnightblue" d="M176.171,-22.0842C184.713,-21.2667 193.358,-20.4394 201.874,-19.6245"/>
<polygon fill="midnightblue" stroke="midnightblue" points="175.824,-18.6012 166.203,-23.038 176.491,-25.5694 175.824,-18.6012"/>
</g>
</g>
</svg>
