<?xml version="1.0" encoding="UTF-8" standalone="no"?>
<!DOCTYPE svg PUBLIC "-//W3C//DTD SVG 1.1//EN"
 "http://www.w3.org/Graphics/SVG/1.1/DTD/svg11.dtd">
<!-- Generated by graphviz version 2.26.3 (20100126.1600)
 -->
<!-- Title: G Pages: 1 -->
<svg width="650pt" height="170pt"
 viewBox="0.00 0.00 650.00 170.00" xmlns="http://www.w3.org/2000/svg" xmlns:xlink="http://www.w3.org/1999/xlink">
<g id="graph1" class="graph" transform="scale(1 1) rotate(0) translate(4 166)">
<title>G</title>
<polygon fill="white" stroke="white" points="-4,5 -4,-166 647,-166 647,5 -4,5"/>
<!-- Node1 -->
<g id="node1" class="node"><title>Node1</title>
<polygon fill="#bfbfbf" stroke="black" points="0,-45.5 0,-66.5 176,-66.5 176,-45.5 0,-45.5"/>
<text text-anchor="middle" x="88" y="-53.5" font-family="DejaVuSans" font-size="10.00">CheckTrait::hideTraitIfNotAvailable</text>
</g>
<!-- Node2 -->
<g id="node3" class="node"><title>Node2</title>
<a xlink:href="class_check_trait.html#a9073e7f8bbac8c351bf829b23a9fc850" target="_top" xlink:title="CheckTrait::setValue">
<polygon fill="white" stroke="black" points="212.5,-70.5 212.5,-91.5 325.5,-91.5 325.5,-70.5 212.5,-70.5"/>
<text text-anchor="middle" x="269" y="-78.5" font-family="DejaVuSans" font-size="10.00">CheckTrait::setValue</text>
</a>
</g>
<!-- Node1&#45;&gt;Node2 -->
<g id="edge2" class="edge"><title>Node1&#45;&gt;Node2</title>
<path fill="none" stroke="midnightblue" d="M164.236,-66.5298C176.841,-68.2708 189.824,-70.0642 202.175,-71.7701"/>
<polygon fill="midnightblue" stroke="midnightblue" points="201.994,-75.2782 212.379,-73.1794 202.952,-68.344 201.994,-75.2782"/>
</g>
<!-- Node8 -->
<g id="node15" class="node"><title>Node8</title>
<a xlink:href="class_check_trait.html#ae1f7c66daf473387e3c8ea8e4857bc14" target="_top" xlink:title="CheckTrait::species">
<polygon fill="white" stroke="black" points="215.5,-20.5 215.5,-41.5 322.5,-41.5 322.5,-20.5 215.5,-20.5"/>
<text text-anchor="middle" x="269" y="-28.5" font-family="DejaVuSans" font-size="10.00">CheckTrait::species</text>
</a>
</g>
<!-- Node1&#45;&gt;Node8 -->
<g id="edge14" class="edge"><title>Node1&#45;&gt;Node8</title>
<path fill="none" stroke="midnightblue" d="M164.236,-45.4702C177.94,-43.5774 192.091,-41.6227 205.391,-39.7858"/>
<polygon fill="midnightblue" stroke="midnightblue" points="205.946,-43.2424 215.373,-38.407 204.988,-36.3082 205.946,-43.2424"/>
</g>
<!-- Node3 -->
<g id="node5" class="node"><title>Node3</title>
<a xlink:href="class_trait.html#aff507cb19b22e5668fc20b471d73d691" target="_top" xlink:title="Trait::setValue">
<polygon fill="white" stroke="black" points="387.5,-120.5 387.5,-141.5 470.5,-141.5 470.5,-120.5 387.5,-120.5"/>
<text text-anchor="middle" x="429" y="-128.5" font-family="DejaVuSans" font-size="10.00">Trait::setValue</text>
</a>
</g>
<!-- Node2&#45;&gt;Node3 -->
<g id="edge4" class="edge"><title>Node2&#45;&gt;Node3</title>
<path fill="none" stroke="midnightblue" d="M301.225,-91.5872C319.1,-97.4116 341.747,-104.712 362,-111 368.934,-113.153 376.286,-115.392 383.481,-117.559"/>
<polygon fill="midnightblue" stroke="midnightblue" points="382.558,-120.936 393.141,-120.454 384.567,-114.23 382.558,-120.936"/>
</g>
<!-- Node6 -->
<g id="node11" class="node"><title>Node6</title>
<a xlink:href="class_check_trait.html#a5dde04a27f8ada588ecb3516630c9e6f" target="_top" xlink:title="CheckTrait::traitPtr">
<polygon fill="white" stroke="black" points="377,-80.5 377,-101.5 481,-101.5 481,-80.5 377,-80.5"/>
<text text-anchor="middle" x="429" y="-88.5" font-family="DejaVuSans" font-size="10.00">CheckTrait::traitPtr</text>
</a>
</g>
<!-- Node2&#45;&gt;Node6 -->
<g id="edge10" class="edge"><title>Node2&#45;&gt;Node6</title>
<path fill="none" stroke="midnightblue" d="M325.861,-84.5538C339.102,-85.3814 353.269,-86.2668 366.731,-87.1082"/>
<polygon fill="midnightblue" stroke="midnightblue" points="366.662,-90.6106 376.861,-87.7413 367.099,-83.6242 366.662,-90.6106"/>
</g>
<!-- Node7 -->
<g id="node13" class="node"><title>Node7</title>
<a xlink:href="class_check_trait.html#a4399a810312044b74f6227955a1879a9" target="_top" xlink:title="CheckTrait::value">
<polygon fill="white" stroke="black" points="380.5,-40.5 380.5,-61.5 477.5,-61.5 477.5,-40.5 380.5,-40.5"/>
<text text-anchor="middle" x="429" y="-48.5" font-family="DejaVuSans" font-size="10.00">CheckTrait::value</text>
</a>
</g>
<!-- Node2&#45;&gt;Node7 -->
<g id="edge12" class="edge"><title>Node2&#45;&gt;Node7</title>
<path fill="none" stroke="midnightblue" d="M325.41,-70.4231C339.957,-67.6955 355.647,-64.7537 370.307,-62.0049"/>
<polygon fill="midnightblue" stroke="midnightblue" points="371.082,-65.4207 380.266,-60.1377 369.792,-58.5406 371.082,-65.4207"/>
</g>
<!-- Node4 -->
<g id="node7" class="node"><title>Node4</title>
<a xlink:href="classcv___trait.html#a965fb56fc4ff6e659b4c44752cfaa538" target="_top" xlink:title="cv_Trait::value">
<polygon fill="white" stroke="black" points="545.5,-140.5 545.5,-161.5 628.5,-161.5 628.5,-140.5 545.5,-140.5"/>
<text text-anchor="middle" x="587" y="-148.5" font-family="DejaVuSans" font-size="10.00">cv_Trait::value</text>
</a>
</g>
<!-- Node3&#45;&gt;Node4 -->
<g id="edge6" class="edge"><title>Node3&#45;&gt;Node4</title>
<path fill="none" stroke="midnightblue" d="M470.513,-136.255C490.392,-138.771 514.394,-141.809 535.432,-144.472"/>
<polygon fill="midnightblue" stroke="midnightblue" points="535.13,-147.962 545.491,-145.746 536.009,-141.017 535.13,-147.962"/>
</g>
<!-- Node5 -->
<g id="node9" class="node"><title>Node5</title>
<a xlink:href="class_trait.html#a953d7925e76098c051e7ade90a25cc03" target="_top" xlink:title="Trait::valueChanged">
<polygon fill="white" stroke="black" points="532,-100.5 532,-121.5 642,-121.5 642,-100.5 532,-100.5"/>
<text text-anchor="middle" x="587" y="-108.5" font-family="DejaVuSans" font-size="10.00">Trait::valueChanged</text>
</a>
</g>
<!-- Node3&#45;&gt;Node5 -->
<g id="edge8" class="edge"><title>Node3&#45;&gt;Node5</title>
<path fill="none" stroke="midnightblue" d="M470.513,-125.745C486.181,-123.762 504.41,-121.454 521.731,-119.262"/>
<polygon fill="midnightblue" stroke="midnightblue" points="522.317,-122.716 531.798,-117.988 521.438,-115.771 522.317,-122.716"/>
</g>
<!-- Node9 -->
<g id="node17" class="node"><title>Node9</title>
<a xlink:href="classcv___abstract_trait.html#a5550607235c2a5875f84d13fb6f9aa3f" target="_top" xlink:title="cv_AbstractTrait::species">
<polygon fill="white" stroke="black" points="362,-0.5 362,-21.5 496,-21.5 496,-0.5 362,-0.5"/>
<text text-anchor="middle" x="429" y="-8.5" font-family="DejaVuSans" font-size="10.00">cv_AbstractTrait::species</text>
</a>
</g>
<!-- Node8&#45;&gt;Node9 -->
<g id="edge16" class="edge"><title>Node8&#45;&gt;Node9</title>
<path fill="none" stroke="midnightblue" d="M322.723,-24.2847C332.021,-23.1224 341.852,-21.8935 351.631,-20.6711"/>
<polygon fill="midnightblue" stroke="midnightblue" points="352.289,-24.1162 361.778,-19.4028 351.421,-17.1702 352.289,-24.1162"/>
</g>
</g>
</svg>
