<?xml version="1.0" encoding="UTF-8" standalone="no"?>
<!DOCTYPE svg PUBLIC "-//W3C//DTD SVG 1.1//EN"
 "http://www.w3.org/Graphics/SVG/1.1/DTD/svg11.dtd">
<!-- Generated by graphviz version 2.26.3 (20100126.1600)
 -->
<!-- Title: G Pages: 1 -->
<svg width="488pt" height="110pt"
 viewBox="0.00 0.00 488.00 110.00" xmlns="http://www.w3.org/2000/svg" xmlns:xlink="http://www.w3.org/1999/xlink">
<g id="graph1" class="graph" transform="scale(1 1) rotate(0) translate(4 106)">
<title>G</title>
<polygon fill="white" stroke="white" points="-4,5 -4,-106 485,-106 485,5 -4,5"/>
<!-- Node1 -->
<g id="node1" class="node"><title>Node1</title>
<polygon fill="#bfbfbf" stroke="black" points="0.5,-60.5 0.5,-81.5 143.5,-81.5 143.5,-60.5 0.5,-60.5"/>
<text text-anchor="middle" x="72" y="-68.5" font-family="DejaVuSans" font-size="10.00">CharaComboTrait::addTrait</text>
</g>
<!-- Node2 -->
<g id="node3" class="node"><title>Node2</title>
<a xlink:href="class_chara_trait.html#ad3abff76332080dfd9e487287537b8a2" target="_top" xlink:title="CharaTrait::setCategory">
<polygon fill="white" stroke="black" points="180.5,-80.5 180.5,-101.5 309.5,-101.5 309.5,-80.5 180.5,-80.5"/>
<text text-anchor="middle" x="245" y="-88.5" font-family="DejaVuSans" font-size="10.00">CharaTrait::setCategory</text>
</a>
</g>
<!-- Node1&#45;&gt;Node2 -->
<g id="edge2" class="edge"><title>Node1&#45;&gt;Node2</title>
<path fill="none" stroke="midnightblue" d="M143.615,-79.2791C152.462,-80.302 161.524,-81.3496 170.414,-82.3774"/>
<polygon fill="midnightblue" stroke="midnightblue" points="170.023,-85.8554 180.359,-83.527 170.827,-78.9017 170.023,-85.8554"/>
</g>
<!-- Node4 -->
<g id="node7" class="node"><title>Node4</title>
<a xlink:href="class_chara_trait.html#a2b019cd655e56e8113ecfcf6913681cc" target="_top" xlink:title="CharaTrait::setType">
<polygon fill="white" stroke="black" points="191.5,-40.5 191.5,-61.5 298.5,-61.5 298.5,-40.5 191.5,-40.5"/>
<text text-anchor="middle" x="245" y="-48.5" font-family="DejaVuSans" font-size="10.00">CharaTrait::setType</text>
</a>
</g>
<!-- Node1&#45;&gt;Node4 -->
<g id="edge6" class="edge"><title>Node1&#45;&gt;Node4</title>
<path fill="none" stroke="midnightblue" d="M143.615,-62.7209C156.105,-61.2768 169.023,-59.7834 181.284,-58.366"/>
<polygon fill="midnightblue" stroke="midnightblue" points="181.872,-61.8214 191.404,-57.1961 181.068,-54.8677 181.872,-61.8214"/>
</g>
<!-- Node3 -->
<g id="node5" class="node"><title>Node3</title>
<a xlink:href="class_chara_trait.html#a1fe9b2316d8daebdf80ddad832ef818a" target="_top" xlink:title="CharaTrait::category">
<polygon fill="white" stroke="black" points="356.5,-80.5 356.5,-101.5 469.5,-101.5 469.5,-80.5 356.5,-80.5"/>
<text text-anchor="middle" x="413" y="-88.5" font-family="DejaVuSans" font-size="10.00">CharaTrait::category</text>
</a>
</g>
<!-- Node2&#45;&gt;Node3 -->
<g id="edge4" class="edge"><title>Node2&#45;&gt;Node3</title>
<path fill="none" stroke="midnightblue" d="M309.953,-91C321.808,-91 334.197,-91 346.107,-91"/>
<polygon fill="midnightblue" stroke="midnightblue" points="346.425,-94.5001 356.425,-91 346.425,-87.5001 346.425,-94.5001"/>
</g>
<!-- Node5 -->
<g id="node9" class="node"><title>Node5</title>
<a xlink:href="class_chara_trait.html#a0eee9e5210d8c2b458db352c8d0d5bb4" target="_top" xlink:title="CharaTrait::type">
<polygon fill="white" stroke="black" points="367,-40.5 367,-61.5 459,-61.5 459,-40.5 367,-40.5"/>
<text text-anchor="middle" x="413" y="-48.5" font-family="DejaVuSans" font-size="10.00">CharaTrait::type</text>
</a>
</g>
<!-- Node4&#45;&gt;Node5 -->
<g id="edge8" class="edge"><title>Node4&#45;&gt;Node5</title>
<path fill="none" stroke="midnightblue" d="M298.618,-51C317.173,-51 338.013,-51 356.771,-51"/>
<polygon fill="midnightblue" stroke="midnightblue" points="356.95,-54.5001 366.95,-51 356.95,-47.5001 356.95,-54.5001"/>
</g>
<!-- Node6 -->
<g id="node11" class="node"><title>Node6</title>
<a xlink:href="class_chara_trait.html#adcc81878a987cc9867bd6198a37a372e" target="_top" xlink:title="CharaTrait::typeChanged">
<polygon fill="white" stroke="black" points="346,-0.5 346,-21.5 480,-21.5 480,-0.5 346,-0.5"/>
<text text-anchor="middle" x="413" y="-8.5" font-family="DejaVuSans" font-size="10.00">CharaTrait::typeChanged</text>
</a>
</g>
<!-- Node4&#45;&gt;Node6 -->
<g id="edge10" class="edge"><title>Node4&#45;&gt;Node6</title>
<path fill="none" stroke="midnightblue" d="M289.14,-40.4905C310.566,-35.3892 336.495,-29.2155 359.081,-23.8378"/>
<polygon fill="midnightblue" stroke="midnightblue" points="359.946,-27.2298 368.863,-21.5087 358.325,-20.4202 359.946,-27.2298"/>
</g>
</g>
</svg>
