<?xml version="1.0" encoding="UTF-8" standalone="no"?>
<!DOCTYPE svg PUBLIC "-//W3C//DTD SVG 1.1//EN"
 "http://www.w3.org/Graphics/SVG/1.1/DTD/svg11.dtd">
<!-- Generated by graphviz version 2.26.3 (20100126.1600)
 -->
<!-- Title: G Pages: 1 -->
<svg width="376pt" height="262pt"
 viewBox="0.00 0.00 376.00 262.00" xmlns="http://www.w3.org/2000/svg" xmlns:xlink="http://www.w3.org/1999/xlink">
<g id="graph1" class="graph" transform="scale(1 1) rotate(0) translate(4 258)">
<title>G</title>
<polygon fill="white" stroke="white" points="-4,5 -4,-258 373,-258 373,5 -4,5"/>
<!-- Node1 -->
<g id="node1" class="node"><title>Node1</title>
<polygon fill="#bfbfbf" stroke="black" points="87.5,-116.5 87.5,-137.5 178.5,-137.5 178.5,-116.5 87.5,-116.5"/>
<text text-anchor="middle" x="133" y="-124.5" font-family="DejaVuSans" font-size="10.00">src.Error.ErrXml</text>
</g>
<!-- Node4 -->
<g id="node7" class="node"><title>Node4</title>
<a xlink:href="classsrc_1_1_error_1_1_err_xml_parsing.html" target="_top" xlink:title="Beim Parsen der XML&#45;Datei trat ein Fehler auf.">
<polygon fill="white" stroke="black" points="-0.5,-58.5 -0.5,-79.5 124.5,-79.5 124.5,-58.5 -0.5,-58.5"/>
<text text-anchor="middle" x="62" y="-66.5" font-family="DejaVuSans" font-size="10.00">src.Error.ErrXmlParsing</text>
</a>
</g>
<!-- Node1&#45;&gt;Node4 -->
<g id="edge6" class="edge"><title>Node1&#45;&gt;Node4</title>
<path fill="none" stroke="midnightblue" d="M112.159,-109.975C100.109,-100.132 85.3254,-88.0545 74.9399,-79.5707"/>
<polygon fill="midnightblue" stroke="midnightblue" points="110.019,-112.746 119.978,-116.362 114.447,-107.325 110.019,-112.746"/>
</g>
<!-- Node5 -->
<g id="node9" class="node"><title>Node5</title>
<a xlink:href="classsrc_1_1_error_1_1_err_xml_version.html" target="_top" xlink:title="Die XML&#45;Datei weist die falsche Version auf.">
<polygon fill="white" stroke="black" points="142,-58.5 142,-79.5 268,-79.5 268,-58.5 142,-58.5"/>
<text text-anchor="middle" x="205" y="-66.5" font-family="DejaVuSans" font-size="10.00">src.Error.ErrXmlVersion</text>
</a>
</g>
<!-- Node1&#45;&gt;Node5 -->
<g id="edge8" class="edge"><title>Node1&#45;&gt;Node5</title>
<path fill="none" stroke="midnightblue" d="M154.134,-109.975C166.354,-100.132 181.346,-88.0545 191.878,-79.5707"/>
<polygon fill="midnightblue" stroke="midnightblue" points="151.798,-107.363 146.206,-116.362 156.189,-112.814 151.798,-107.363"/>
</g>
<!-- Node2 -->
<g id="node2" class="node"><title>Node2</title>
<a xlink:href="classsrc_1_1_error_1_1_err.html" target="_top" xlink:title="Basisklasse für die Ausnahmebehandlung.">
<polygon fill="white" stroke="black" points="96.5,-174.5 96.5,-195.5 169.5,-195.5 169.5,-174.5 96.5,-174.5"/>
<text text-anchor="middle" x="133" y="-182.5" font-family="DejaVuSans" font-size="10.00">src.Error.Err</text>
</a>
</g>
<!-- Node2&#45;&gt;Node1 -->
<g id="edge2" class="edge"><title>Node2&#45;&gt;Node1</title>
<path fill="none" stroke="midnightblue" d="M133,-164.191C133,-155.168 133,-144.994 133,-137.571"/>
<polygon fill="midnightblue" stroke="midnightblue" points="129.5,-164.362 133,-174.362 136.5,-164.362 129.5,-164.362"/>
</g>
<!-- Node3 -->
<g id="node4" class="node"><title>Node3</title>
<a xlink:href="class_exception.html" target="_top" xlink:title="Exception">
<polygon fill="white" stroke="black" points="101.5,-232.5 101.5,-253.5 164.5,-253.5 164.5,-232.5 101.5,-232.5"/>
<text text-anchor="middle" x="133" y="-240.5" font-family="DejaVuSans" font-size="10.00">Exception</text>
</a>
</g>
<!-- Node3&#45;&gt;Node2 -->
<g id="edge4" class="edge"><title>Node3&#45;&gt;Node2</title>
<path fill="none" stroke="midnightblue" d="M133,-222.191C133,-213.168 133,-202.994 133,-195.571"/>
<polygon fill="midnightblue" stroke="midnightblue" points="129.5,-222.362 133,-232.362 136.5,-222.362 129.5,-222.362"/>
</g>
<!-- Node6 -->
<g id="node11" class="node"><title>Node6</title>
<a xlink:href="classsrc_1_1_error_1_1_err_xml_old_version.html" target="_top" xlink:title="Die Version der XML&#45;Datei paßt zwar zu diesem Programm, ist aber zu alt.">
<polygon fill="white" stroke="black" points="50,-0.5 50,-21.5 192,-21.5 192,-0.5 50,-0.5"/>
<text text-anchor="middle" x="121" y="-8.5" font-family="DejaVuSans" font-size="10.00">src.Error.ErrXmlOldVersion</text>
</a>
</g>
<!-- Node5&#45;&gt;Node6 -->
<g id="edge10" class="edge"><title>Node5&#45;&gt;Node6</title>
<path fill="none" stroke="midnightblue" d="M181.162,-52.5407C166.762,-42.5973 148.833,-30.2177 136.309,-21.5707"/>
<polygon fill="midnightblue" stroke="midnightblue" points="179.375,-55.5601 189.593,-58.3619 183.353,-49.7998 179.375,-55.5601"/>
</g>
<!-- Node7 -->
<g id="node13" class="node"><title>Node7</title>
<a xlink:href="classsrc_1_1_error_1_1_err_xml_too_old_version.html" target="_top" xlink:title="Die Version der XML&#45;Datei paßt zwar zu diesem Programm, ist aber viel zu alt.">
<polygon fill="white" stroke="black" points="210,-0.5 210,-21.5 368,-21.5 368,-0.5 210,-0.5"/>
<text text-anchor="middle" x="289" y="-8.5" font-family="DejaVuSans" font-size="10.00">src.Error.ErrXmlTooOldVersion</text>
</a>
</g>
<!-- Node5&#45;&gt;Node7 -->
<g id="edge12" class="edge"><title>Node5&#45;&gt;Node7</title>
<path fill="none" stroke="midnightblue" d="M228.838,-52.5407C243.238,-42.5973 261.167,-30.2177 273.691,-21.5707"/>
<polygon fill="midnightblue" stroke="midnightblue" points="226.647,-49.7998 220.407,-58.3619 230.625,-55.5601 226.647,-49.7998"/>
</g>
</g>
</svg>
