<?xml version="1.0" encoding="UTF-8" standalone="no"?>
<!DOCTYPE svg PUBLIC "-//W3C//DTD SVG 1.1//EN"
 "http://www.w3.org/Graphics/SVG/1.1/DTD/svg11.dtd">
<!-- Generated by graphviz version 2.26.3 (20100126.1600)
 -->
<!-- Title: G Pages: 1 -->
<svg width="490pt" height="90pt"
 viewBox="0.00 0.00 490.00 90.00" xmlns="http://www.w3.org/2000/svg" xmlns:xlink="http://www.w3.org/1999/xlink">
<g id="graph1" class="graph" transform="scale(1 1) rotate(0) translate(4 86)">
<title>G</title>
<polygon fill="white" stroke="white" points="-4,5 -4,-86 487,-86 487,5 -4,5"/>
<!-- Node1 -->
<g id="node1" class="node"><title>Node1</title>
<polygon fill="#bfbfbf" stroke="black" points="0,-20.5 0,-41.5 124,-41.5 124,-20.5 0,-20.5"/>
<text text-anchor="middle" x="62" y="-28.5" font-family="DejaVuSans" font-size="10.00">CheckTrait::setSpecies</text>
</g>
<!-- Node2 -->
<g id="node3" class="node"><title>Node2</title>
<a xlink:href="classcv___abstract_trait.html#ae7f6cc0af48f8d04c228bc87c8f7bd25" target="_top" xlink:title="cv_AbstractTrait::setSpecies">
<polygon fill="white" stroke="black" points="160.5,-60.5 160.5,-81.5 311.5,-81.5 311.5,-60.5 160.5,-60.5"/>
<text text-anchor="middle" x="236" y="-68.5" font-family="DejaVuSans" font-size="10.00">cv_AbstractTrait::setSpecies</text>
</a>
</g>
<!-- Node1&#45;&gt;Node2 -->
<g id="edge2" class="edge"><title>Node1&#45;&gt;Node2</title>
<path fill="none" stroke="midnightblue" d="M107.716,-41.5095C130.007,-46.6337 157.004,-52.8399 180.47,-58.2345"/>
<polygon fill="midnightblue" stroke="midnightblue" points="179.757,-61.6618 190.287,-60.4913 181.325,-54.8398 179.757,-61.6618"/>
</g>
<!-- Node3 -->
<g id="node5" class="node"><title>Node3</title>
<a xlink:href="class_check_trait.html#ae1f7c66daf473387e3c8ea8e4857bc14" target="_top" xlink:title="CheckTrait::species">
<polygon fill="white" stroke="black" points="182.5,-20.5 182.5,-41.5 289.5,-41.5 289.5,-20.5 182.5,-20.5"/>
<text text-anchor="middle" x="236" y="-28.5" font-family="DejaVuSans" font-size="10.00">CheckTrait::species</text>
</a>
</g>
<!-- Node1&#45;&gt;Node3 -->
<g id="edge4" class="edge"><title>Node1&#45;&gt;Node3</title>
<path fill="none" stroke="midnightblue" d="M124.327,-31C139.925,-31 156.677,-31 172.339,-31"/>
<polygon fill="midnightblue" stroke="midnightblue" points="172.451,-34.5001 182.451,-31 172.451,-27.5001 172.451,-34.5001"/>
</g>
<!-- Node4 -->
<g id="node7" class="node"><title>Node4</title>
<a xlink:href="classcv___abstract_trait.html#a5550607235c2a5875f84d13fb6f9aa3f" target="_top" xlink:title="cv_AbstractTrait::species">
<polygon fill="white" stroke="black" points="348,-0.5 348,-21.5 482,-21.5 482,-0.5 348,-0.5"/>
<text text-anchor="middle" x="415" y="-8.5" font-family="DejaVuSans" font-size="10.00">cv_AbstractTrait::species</text>
</a>
</g>
<!-- Node1&#45;&gt;Node4 -->
<g id="edge8" class="edge"><title>Node1&#45;&gt;Node4</title>
<path fill="none" stroke="midnightblue" d="M104.163,-20.4586C121.361,-16.6674 141.514,-12.8671 160,-11 219.442,-4.99634 287.077,-5.32244 337.748,-6.97313"/>
<polygon fill="midnightblue" stroke="midnightblue" points="337.855,-10.4789 347.971,-7.33151 338.1,-3.48321 337.855,-10.4789"/>
</g>
<!-- Node3&#45;&gt;Node4 -->
<g id="edge6" class="edge"><title>Node3&#45;&gt;Node4</title>
<path fill="none" stroke="midnightblue" d="M289.706,-24.9993C304.8,-23.3128 321.521,-21.4445 337.7,-19.6368"/>
<polygon fill="midnightblue" stroke="midnightblue" points="338.135,-23.1101 347.684,-18.5213 337.358,-16.1534 338.135,-23.1101"/>
</g>
</g>
</svg>
