<?xml version="1.0" encoding="UTF-8" standalone="no"?>
<!DOCTYPE svg PUBLIC "-//W3C//DTD SVG 1.1//EN"
 "http://www.w3.org/Graphics/SVG/1.1/DTD/svg11.dtd">
<!-- Generated by graphviz version 2.26.3 (20100126.1600)
 -->
<!-- Title: G Pages: 1 -->
<svg width="492pt" height="70pt"
 viewBox="0.00 0.00 492.00 70.00" xmlns="http://www.w3.org/2000/svg" xmlns:xlink="http://www.w3.org/1999/xlink">
<g id="graph1" class="graph" transform="scale(1 1) rotate(0) translate(4 66)">
<title>G</title>
<polygon fill="white" stroke="white" points="-4,5 -4,-66 489,-66 489,5 -4,5"/>
<!-- Node1 -->
<g id="node1" class="node"><title>Node1</title>
<polygon fill="#bfbfbf" stroke="black" points="0,-20.5 0,-41.5 114,-41.5 114,-20.5 0,-20.5"/>
<text text-anchor="middle" x="57" y="-28.5" font-family="DejaVuSans" font-size="10.00">cv_Species::toString</text>
</g>
<!-- Node2 -->
<g id="node3" class="node"><title>Node2</title>
<a xlink:href="class_chara_species.html#a2ef74664afd983d69d1d4ca50a38dc01" target="_top" xlink:title="CharaSpecies::setSpecies">
<polygon fill="white" stroke="black" points="150.5,-40.5 150.5,-61.5 291.5,-61.5 291.5,-40.5 150.5,-40.5"/>
<text text-anchor="middle" x="221" y="-48.5" font-family="DejaVuSans" font-size="10.00">CharaSpecies::setSpecies</text>
</a>
</g>
<!-- Node1&#45;&gt;Node2 -->
<g id="edge2" class="edge"><title>Node1&#45;&gt;Node2</title>
<path fill="none" stroke="midnightblue" d="M124.329,-39.2108C132.929,-40.2596 141.751,-41.3355 150.401,-42.3903"/>
<polygon fill="midnightblue" stroke="midnightblue" points="124.709,-35.7314 114.359,-37.995 123.862,-42.6799 124.709,-35.7314"/>
</g>
<!-- Node4 -->
<g id="node7" class="node"><title>Node4</title>
<a xlink:href="class_write_xml_character.html#af657074e346540e71b20ab2ccae3bc9c" target="_top" xlink:title="WriteXmlCharacter::write">
<polygon fill="white" stroke="black" points="154,-0.5 154,-21.5 288,-21.5 288,-0.5 154,-0.5"/>
<text text-anchor="middle" x="221" y="-8.5" font-family="DejaVuSans" font-size="10.00">WriteXmlCharacter::write</text>
</a>
</g>
<!-- Node1&#45;&gt;Node4 -->
<g id="edge6" class="edge"><title>Node1&#45;&gt;Node4</title>
<path fill="none" stroke="midnightblue" d="M124.369,-22.7843C134.096,-21.5981 144.106,-20.3773 153.829,-19.1916"/>
<polygon fill="midnightblue" stroke="midnightblue" points="123.862,-19.3201 114.359,-24.005 124.709,-26.2686 123.862,-19.3201"/>
</g>
<!-- Node3 -->
<g id="node5" class="node"><title>Node3</title>
<a xlink:href="class_chara_species.html#a22e279137aff84ecc3c8a537bae41080" target="_top" xlink:title="CharaSpecies::CharaSpecies">
<polygon fill="white" stroke="black" points="328.5,-40.5 328.5,-61.5 483.5,-61.5 483.5,-40.5 328.5,-40.5"/>
<text text-anchor="middle" x="406" y="-48.5" font-family="DejaVuSans" font-size="10.00">CharaSpecies::CharaSpecies</text>
</a>
</g>
<!-- Node2&#45;&gt;Node3 -->
<g id="edge4" class="edge"><title>Node2&#45;&gt;Node3</title>
<path fill="none" stroke="midnightblue" d="M301.905,-51C310.641,-51 319.518,-51 328.216,-51"/>
<polygon fill="midnightblue" stroke="midnightblue" points="301.732,-47.5001 291.732,-51 301.732,-54.5001 301.732,-47.5001"/>
</g>
</g>
</svg>
