<?xml version="1.0" encoding="UTF-8" standalone="no"?>
<!DOCTYPE svg PUBLIC "-//W3C//DTD SVG 1.1//EN"
 "http://www.w3.org/Graphics/SVG/1.1/DTD/svg11.dtd">
<!-- Generated by graphviz version 2.26.3 (20100126.1600)
 -->
<!-- Title: G Pages: 1 -->
<svg width="430pt" height="108pt"
 viewBox="0.00 0.00 430.00 108.00" xmlns="http://www.w3.org/2000/svg" xmlns:xlink="http://www.w3.org/1999/xlink">
<g id="graph1" class="graph" transform="scale(1 1) rotate(0) translate(4 104)">
<title>G</title>
<polygon fill="white" stroke="white" points="-4,5 -4,-104 427,-104 427,5 -4,5"/>
<!-- Node1 -->
<g id="node1" class="node"><title>Node1</title>
<polygon fill="#bfbfbf" stroke="black" points="0,-39.5 0,-60.5 112,-60.5 112,-39.5 0,-39.5"/>
<text text-anchor="middle" x="56" y="-47.5" font-family="DejaVuSans" font-size="10.00">CharaTrait::setValue</text>
</g>
<!-- Node2 -->
<g id="node3" class="node"><title>Node2</title>
<a xlink:href="class_chara_trait.html#ab3935a94198f510d3de473a9a72692ac" target="_top" xlink:title="CharaTrait::traitChanged">
<polygon fill="white" stroke="black" points="148.5,-78.5 148.5,-99.5 281.5,-99.5 281.5,-78.5 148.5,-78.5"/>
<text text-anchor="middle" x="215" y="-86.5" font-family="DejaVuSans" font-size="10.00">CharaTrait::traitChanged</text>
</a>
</g>
<!-- Node1&#45;&gt;Node2 -->
<g id="edge2" class="edge"><title>Node1&#45;&gt;Node2</title>
<path fill="none" stroke="midnightblue" d="M99.0277,-60.554C118.471,-65.323 141.63,-71.0035 162.121,-76.0296"/>
<polygon fill="midnightblue" stroke="midnightblue" points="161.392,-79.4546 171.938,-78.4376 163.06,-72.6561 161.392,-79.4546"/>
</g>
<!-- Node3 -->
<g id="node5" class="node"><title>Node3</title>
<a xlink:href="class_chara_trait.html#acd1abb86d271f401b9856f2c8e172255" target="_top" xlink:title="CharaTrait::traitPtr">
<polygon fill="white" stroke="black" points="318,-19.5 318,-40.5 422,-40.5 422,-19.5 318,-19.5"/>
<text text-anchor="middle" x="370" y="-27.5" font-family="DejaVuSans" font-size="10.00">CharaTrait::traitPtr</text>
</a>
</g>
<!-- Node1&#45;&gt;Node3 -->
<g id="edge4" class="edge"><title>Node1&#45;&gt;Node3</title>
<path fill="none" stroke="midnightblue" d="M112.137,-46.4244C167.105,-42.9233 250.677,-37.6002 307.677,-33.9696"/>
<polygon fill="midnightblue" stroke="midnightblue" points="308.241,-37.4409 317.998,-33.3122 307.796,-30.4551 308.241,-37.4409"/>
</g>
<!-- Node4 -->
<g id="node7" class="node"><title>Node4</title>
<a xlink:href="class_chara_trait.html#adeed572acc2fa97468285bc3267e9cb8" target="_top" xlink:title="CharaTrait::value">
<polygon fill="white" stroke="black" points="167,-0.5 167,-21.5 263,-21.5 263,-0.5 167,-0.5"/>
<text text-anchor="middle" x="215" y="-8.5" font-family="DejaVuSans" font-size="10.00">CharaTrait::value</text>
</a>
</g>
<!-- Node1&#45;&gt;Node4 -->
<g id="edge6" class="edge"><title>Node1&#45;&gt;Node4</title>
<path fill="none" stroke="midnightblue" d="M99.0277,-39.446C118.471,-34.677 141.63,-28.9965 162.121,-23.9704"/>
<polygon fill="midnightblue" stroke="midnightblue" points="163.06,-27.3439 171.938,-21.5624 161.392,-20.5454 163.06,-27.3439"/>
</g>
<!-- Node4&#45;&gt;Node3 -->
<g id="edge8" class="edge"><title>Node4&#45;&gt;Node3</title>
<path fill="none" stroke="midnightblue" d="M263.193,-16.9076C277.273,-18.6335 292.867,-20.545 307.689,-22.3619"/>
<polygon fill="midnightblue" stroke="midnightblue" points="307.448,-25.8584 317.799,-23.6012 308.299,-18.9104 307.448,-25.8584"/>
</g>
</g>
</svg>
