<?xml version="1.0" encoding="UTF-8" standalone="no"?>
<!DOCTYPE svg PUBLIC "-//W3C//DTD SVG 1.1//EN"
 "http://www.w3.org/Graphics/SVG/1.1/DTD/svg11.dtd">
<!-- Generated by graphviz version 2.26.3 (20100126.1600)
 -->
<!-- Title: G Pages: 1 -->
<svg width="352pt" height="70pt"
 viewBox="0.00 0.00 352.00 70.00" xmlns="http://www.w3.org/2000/svg" xmlns:xlink="http://www.w3.org/1999/xlink">
<g id="graph1" class="graph" transform="scale(1 1) rotate(0) translate(4 66)">
<title>G</title>
<polygon fill="white" stroke="white" points="-4,5 -4,-66 349,-66 349,5 -4,5"/>
<!-- Node1 -->
<g id="node1" class="node"><title>Node1</title>
<polygon fill="#bfbfbf" stroke="black" points="0,-20.5 0,-41.5 194,-41.5 194,-20.5 0,-20.5"/>
<text text-anchor="middle" x="97" y="-28.5" font-family="DejaVuSans" font-size="10.00">StorageCharacter::setSkillSpecialties</text>
</g>
<!-- Node2 -->
<g id="node3" class="node"><title>Node2</title>
<a xlink:href="classcv___trait.html#a106364397116c087601df0734531aa82" target="_top" xlink:title="cv_Trait::addDetail">
<polygon fill="white" stroke="black" points="235,-40.5 235,-61.5 339,-61.5 339,-40.5 235,-40.5"/>
<text text-anchor="middle" x="287" y="-48.5" font-family="DejaVuSans" font-size="10.00">cv_Trait::addDetail</text>
</a>
</g>
<!-- Node1&#45;&gt;Node2 -->
<g id="edge2" class="edge"><title>Node1&#45;&gt;Node2</title>
<path fill="none" stroke="midnightblue" d="M194.226,-41.2344C204.662,-42.3328 215.062,-43.4275 224.921,-44.4654"/>
<polygon fill="midnightblue" stroke="midnightblue" points="224.668,-47.958 234.98,-45.5242 225.401,-40.9965 224.668,-47.958"/>
</g>
<!-- Node3 -->
<g id="node5" class="node"><title>Node3</title>
<a xlink:href="classcv___trait.html#ad9d7fbc8d0e542536371aba6f7dcce44" target="_top" xlink:title="cv_Trait::clearDetails">
<polygon fill="white" stroke="black" points="230,-0.5 230,-21.5 344,-21.5 344,-0.5 230,-0.5"/>
<text text-anchor="middle" x="287" y="-8.5" font-family="DejaVuSans" font-size="10.00">cv_Trait::clearDetails</text>
</a>
</g>
<!-- Node1&#45;&gt;Node3 -->
<g id="edge4" class="edge"><title>Node1&#45;&gt;Node3</title>
<path fill="none" stroke="midnightblue" d="M194.226,-20.7656C202.924,-19.8501 211.597,-18.9371 219.954,-18.0575"/>
<polygon fill="midnightblue" stroke="midnightblue" points="220.391,-21.5309 229.97,-17.0032 219.658,-14.5694 220.391,-21.5309"/>
</g>
</g>
</svg>
