<?xml version="1.0" encoding="UTF-8" standalone="no"?>
<!DOCTYPE svg PUBLIC "-//W3C//DTD SVG 1.1//EN"
 "http://www.w3.org/Graphics/SVG/1.1/DTD/svg11.dtd">
<!-- Generated by graphviz version 2.26.3 (20100126.1600)
 -->
<!-- Title: G Pages: 1 -->
<svg width="304pt" height="166pt"
 viewBox="0.00 0.00 304.00 166.00" xmlns="http://www.w3.org/2000/svg" xmlns:xlink="http://www.w3.org/1999/xlink">
<g id="graph1" class="graph" transform="scale(1 1) rotate(0) translate(4 162)">
<title>G</title>
<polygon fill="white" stroke="white" points="-4,5 -4,-162 301,-162 301,5 -4,5"/>
<!-- Node1 -->
<g id="node1" class="node"><title>Node1</title>
<polygon fill="#bfbfbf" stroke="black" points="0,-0.5 0,-21.5 226,-21.5 226,-0.5 0,-0.5"/>
<text text-anchor="middle" x="113" y="-8.5" font-family="DejaVuSans" font-size="10.00">src.Widgets.Components.TraitDots.TraitDots</text>
</g>
<!-- Node2 -->
<g id="node2" class="node"><title>Node2</title>
<polygon fill="white" stroke="#bfbfbf" points="19,-136.5 19,-157.5 75,-157.5 75,-136.5 19,-136.5"/>
<text text-anchor="middle" x="47" y="-144.5" font-family="DejaVuSans" font-size="10.00">QWidget</text>
</g>
<!-- Node2&#45;&gt;Node1 -->
<g id="edge2" class="edge"><title>Node2&#45;&gt;Node1</title>
<path fill="none" stroke="midnightblue" d="M56.6621,-127.09C70.8508,-97.8528 96.8304,-44.3191 107.845,-21.6221"/>
<polygon fill="midnightblue" stroke="midnightblue" points="53.3961,-125.804 52.1789,-136.328 59.6937,-128.86 53.3961,-125.804"/>
</g>
<!-- Node3 -->
<g id="node4" class="node"><title>Node3</title>
<polygon fill="white" stroke="#bfbfbf" points="92.5,-136.5 92.5,-157.5 133.5,-157.5 133.5,-136.5 92.5,-136.5"/>
<text text-anchor="middle" x="113" y="-144.5" font-family="DejaVuSans" font-size="10.00">tuple</text>
</g>
<!-- Node3&#45;&gt;Node1 -->
<g id="edge4" class="edge"><title>Node3&#45;&gt;Node1</title>
<path fill="none" stroke="#9a32cd" stroke-dasharray="5,2" d="M113,-126.319C113,-96.9201 113,-44.1209 113,-21.6221"/>
<polygon fill="#9a32cd" stroke="#9a32cd" points="109.5,-126.328 113,-136.328 116.5,-126.328 109.5,-126.328"/>
<text text-anchor="middle" x="159" y="-109" font-family="DejaVuSans" font-size="10.00">maximumChanged</text>
<text text-anchor="middle" x="159" y="-96" font-family="DejaVuSans" font-size="10.00">activated</text>
<text text-anchor="middle" x="159" y="-83" font-family="DejaVuSans" font-size="10.00">shiftCenter</text>
<text text-anchor="middle" x="159" y="-70" font-family="DejaVuSans" font-size="10.00">valueClicked</text>
<text text-anchor="middle" x="159" y="-57" font-family="DejaVuSans" font-size="10.00">valueChanged</text>
<text text-anchor="middle" x="159" y="-44" font-family="DejaVuSans" font-size="10.00">minimumChanged</text>
</g>
<!-- Node4 -->
<g id="node6" class="node"><title>Node4</title>
<polygon fill="white" stroke="#bfbfbf" points="213.5,-136.5 213.5,-157.5 242.5,-157.5 242.5,-136.5 213.5,-136.5"/>
<text text-anchor="middle" x="228" y="-144.5" font-family="DejaVuSans" font-size="10.00">int</text>
</g>
<!-- Node4&#45;&gt;Node1 -->
<g id="edge6" class="edge"><title>Node4&#45;&gt;Node1</title>
<path fill="none" stroke="#9a32cd" stroke-dasharray="5,2" d="M229.564,-126.28C230.185,-102.478 227.424,-63.6694 206,-40 199.644,-32.9782 181.049,-26.5497 162.14,-21.5394"/>
<polygon fill="#9a32cd" stroke="#9a32cd" points="226.065,-126.182 229.075,-136.34 233.057,-126.521 226.065,-126.182"/>
<text text-anchor="middle" x="262.5" y="-83" font-family="DejaVuSans" font-size="10.00">dotRadiusHalf</text>
<text text-anchor="middle" x="262.5" y="-70" font-family="DejaVuSans" font-size="10.00">j</text>
</g>
</g>
</svg>
