<?xml version="1.0" encoding="UTF-8" standalone="no"?>
<!DOCTYPE svg PUBLIC "-//W3C//DTD SVG 1.1//EN"
 "http://www.w3.org/Graphics/SVG/1.1/DTD/svg11.dtd">
<!-- Generated by graphviz version 2.26.3 (20100126.1600)
 -->
<!-- Title: G Pages: 1 -->
<svg width="302pt" height="70pt"
 viewBox="0.00 0.00 302.00 70.00" xmlns="http://www.w3.org/2000/svg" xmlns:xlink="http://www.w3.org/1999/xlink">
<g id="graph1" class="graph" transform="scale(1 1) rotate(0) translate(4 66)">
<title>G</title>
<polygon fill="white" stroke="white" points="-4,5 -4,-66 299,-66 299,5 -4,5"/>
<!-- Node1 -->
<g id="node1" class="node"><title>Node1</title>
<polygon fill="#bfbfbf" stroke="black" points="0,-20.5 0,-41.5 124,-41.5 124,-20.5 0,-20.5"/>
<text text-anchor="middle" x="62" y="-28.5" font-family="DejaVuSans" font-size="10.00">CheckTrait::setCustom</text>
</g>
<!-- Node2 -->
<g id="node3" class="node"><title>Node2</title>
<a xlink:href="class_check_trait.html#a6fc70482737108eb58606a8eed553e04" target="_top" xlink:title="CheckTrait::traitChanged">
<polygon fill="white" stroke="black" points="160,-40.5 160,-61.5 294,-61.5 294,-40.5 160,-40.5"/>
<text text-anchor="middle" x="227" y="-48.5" font-family="DejaVuSans" font-size="10.00">CheckTrait::traitChanged</text>
</a>
</g>
<!-- Node1&#45;&gt;Node2 -->
<g id="edge2" class="edge"><title>Node1&#45;&gt;Node2</title>
<path fill="none" stroke="midnightblue" d="M124.379,-38.5611C132.71,-39.5709 141.332,-40.6159 149.876,-41.6517"/>
<polygon fill="midnightblue" stroke="midnightblue" points="149.501,-45.1317 159.849,-42.8605 150.343,-38.1825 149.501,-45.1317"/>
</g>
<!-- Node3 -->
<g id="node5" class="node"><title>Node3</title>
<a xlink:href="class_check_trait.html#a85928c20fd7d921c1d9b831168b9964e" target="_top" xlink:title="CheckTrait::traitPtr">
<polygon fill="white" stroke="black" points="175,-0.5 175,-21.5 279,-21.5 279,-0.5 175,-0.5"/>
<text text-anchor="middle" x="227" y="-8.5" font-family="DejaVuSans" font-size="10.00">CheckTrait::traitPtr</text>
</a>
</g>
<!-- Node1&#45;&gt;Node3 -->
<g id="edge4" class="edge"><title>Node1&#45;&gt;Node3</title>
<path fill="none" stroke="midnightblue" d="M124.379,-23.4389C137.615,-21.8345 151.586,-20.141 164.815,-18.5376"/>
<polygon fill="midnightblue" stroke="midnightblue" points="165.255,-22.01 174.761,-17.332 164.413,-15.0608 165.255,-22.01"/>
</g>
</g>
</svg>
