<?xml version="1.0" encoding="UTF-8" standalone="no"?>
<!DOCTYPE svg PUBLIC "-//W3C//DTD SVG 1.1//EN"
 "http://www.w3.org/Graphics/SVG/1.1/DTD/svg11.dtd">
<!-- Generated by graphviz version 2.26.3 (20100126.1600)
 -->
<!-- Title: G Pages: 1 -->
<svg width="468pt" height="386pt"
 viewBox="0.00 0.00 468.00 386.00" xmlns="http://www.w3.org/2000/svg" xmlns:xlink="http://www.w3.org/1999/xlink">
<g id="graph1" class="graph" transform="scale(1 1) rotate(0) translate(4 382)">
<title>G</title>
<polygon fill="white" stroke="white" points="-4,5 -4,-382 465,-382 465,5 -4,5"/>
<!-- Node1 -->
<g id="node1" class="node"><title>Node1</title>
<polygon fill="#bfbfbf" stroke="black" points="0.5,-176.5 0.5,-197.5 119.5,-197.5 119.5,-176.5 0.5,-176.5"/>
<text text-anchor="middle" x="60" y="-184.5" font-family="DejaVuSans" font-size="10.00">cv_AbstractTrait::type</text>
</g>
<!-- Node2 -->
<g id="node3" class="node"><title>Node2</title>
<a xlink:href="class_storage_template.html#a59dec084ce51d53a5a92071883d43b3e" target="_top" xlink:title="StorageTemplate::appendTrait">
<polygon fill="white" stroke="black" points="156,-356.5 156,-377.5 316,-377.5 316,-356.5 156,-356.5"/>
<text text-anchor="middle" x="236" y="-364.5" font-family="DejaVuSans" font-size="10.00">StorageTemplate::appendTrait</text>
</a>
</g>
<!-- Node1&#45;&gt;Node2 -->
<g id="edge2" class="edge"><title>Node1&#45;&gt;Node2</title>
<path fill="none" stroke="midnightblue" d="M66.4236,-207.367C78.3269,-241.68 107.149,-310.804 156,-347 161.176,-350.835 167.005,-353.94 173.096,-356.453"/>
<polygon fill="midnightblue" stroke="midnightblue" points="69.6299,-205.917 63.1495,-197.535 62.9884,-208.129 69.6299,-205.917"/>
</g>
<!-- Node3 -->
<g id="node5" class="node"><title>Node3</title>
<a xlink:href="class_creation.html#a2fc5625819c4f10884e0c31b594700a4" target="_top" xlink:title="Creation::calcPoints">
<polygon fill="white" stroke="black" points="180.5,-316.5 180.5,-337.5 291.5,-337.5 291.5,-316.5 180.5,-316.5"/>
<text text-anchor="middle" x="236" y="-324.5" font-family="DejaVuSans" font-size="10.00">Creation::calcPoints</text>
</a>
</g>
<!-- Node1&#45;&gt;Node3 -->
<g id="edge4" class="edge"><title>Node1&#45;&gt;Node3</title>
<path fill="none" stroke="midnightblue" d="M70.1425,-206.432C85.1888,-233.288 116.003,-281.334 156,-307 163.35,-311.716 171.739,-315.321 180.256,-318.075"/>
<polygon fill="midnightblue" stroke="midnightblue" points="73.1784,-204.689 65.3247,-197.577 67.0295,-208.034 73.1784,-204.689"/>
</g>
<!-- Node4 -->
<g id="node7" class="node"><title>Node4</title>
<a xlink:href="class_chara_trait.html#a21787eb972b4fc8779368a78f4430f14" target="_top" xlink:title="CharaTrait::CharaTrait">
<polygon fill="white" stroke="black" points="176.5,-276.5 176.5,-297.5 295.5,-297.5 295.5,-276.5 176.5,-276.5"/>
<text text-anchor="middle" x="236" y="-284.5" font-family="DejaVuSans" font-size="10.00">CharaTrait::CharaTrait</text>
</a>
</g>
<!-- Node1&#45;&gt;Node4 -->
<g id="edge6" class="edge"><title>Node1&#45;&gt;Node4</title>
<path fill="none" stroke="midnightblue" d="M76.8831,-205.239C94.8047,-223.519 124.799,-251.156 156,-267 163.531,-270.824 171.84,-273.948 180.169,-276.491"/>
<polygon fill="midnightblue" stroke="midnightblue" points="78.9837,-202.373 69.5374,-197.575 73.93,-207.217 78.9837,-202.373"/>
</g>
<!-- Node5 -->
<g id="node9" class="node"><title>Node5</title>
<a xlink:href="class_storage_character.html#aabaae6015f75abfc6411f5a388418a3b" target="_top" xlink:title="StorageCharacter::modifyTrait">
<polygon fill="white" stroke="black" points="156,-236.5 156,-257.5 316,-257.5 316,-236.5 156,-236.5"/>
<text text-anchor="middle" x="236" y="-244.5" font-family="DejaVuSans" font-size="10.00">StorageCharacter::modifyTrait</text>
</a>
</g>
<!-- Node1&#45;&gt;Node5 -->
<g id="edge8" class="edge"><title>Node1&#45;&gt;Node5</title>
<path fill="none" stroke="midnightblue" d="M91.6613,-201.6C110.161,-209.774 134.107,-219.748 156,-227 166.464,-230.466 177.871,-233.657 188.707,-236.424"/>
<polygon fill="midnightblue" stroke="midnightblue" points="93.081,-198.401 82.5234,-197.514 90.2234,-204.791 93.081,-198.401"/>
</g>
<!-- Node6 -->
<g id="node11" class="node"><title>Node6</title>
<a xlink:href="classcv___trait.html#a8c0d39d14efbcce546fbc6212f6e984b" target="_top" xlink:title="cv_Trait::operator==">
<polygon fill="white" stroke="black" points="178,-196.5 178,-217.5 294,-217.5 294,-196.5 178,-196.5"/>
<text text-anchor="middle" x="236" y="-204.5" font-family="DejaVuSans" font-size="10.00">cv_Trait::operator==</text>
</a>
</g>
<!-- Node1&#45;&gt;Node6 -->
<g id="edge10" class="edge"><title>Node1&#45;&gt;Node6</title>
<path fill="none" stroke="midnightblue" d="M129.911,-194.944C145.841,-196.755 162.596,-198.659 177.967,-200.405"/>
<polygon fill="midnightblue" stroke="midnightblue" points="129.917,-191.423 119.586,-193.771 129.126,-198.378 129.917,-191.423"/>
</g>
<!-- Node7 -->
<g id="node13" class="node"><title>Node7</title>
<a xlink:href="class_check_trait.html#a4d08c3a079c757e4a0351b04228b7398" target="_top" xlink:title="CheckTrait::setType">
<polygon fill="white" stroke="black" points="352.5,-118.5 352.5,-139.5 459.5,-139.5 459.5,-118.5 352.5,-118.5"/>
<text text-anchor="middle" x="406" y="-126.5" font-family="DejaVuSans" font-size="10.00">CheckTrait::setType</text>
</a>
</g>
<!-- Node1&#45;&gt;Node7 -->
<g id="edge12" class="edge"><title>Node1&#45;&gt;Node7</title>
<path fill="none" stroke="midnightblue" d="M129.727,-178.017C181.328,-171.038 253.249,-160.614 316,-149 330.795,-146.262 346.859,-142.838 361.265,-139.601"/>
<polygon fill="midnightblue" stroke="midnightblue" points="129.131,-174.566 119.686,-179.367 130.063,-181.503 129.131,-174.566"/>
</g>
<!-- Node8 -->
<g id="node15" class="node"><title>Node8</title>
<a xlink:href="class_chara_trait.html#aa119a2d69592d27154b05a52dfeb21bd" target="_top" xlink:title="CharaTrait::setType">
<polygon fill="white" stroke="black" points="352.5,-39.5 352.5,-60.5 459.5,-60.5 459.5,-39.5 352.5,-39.5"/>
<text text-anchor="middle" x="406" y="-47.5" font-family="DejaVuSans" font-size="10.00">CharaTrait::setType</text>
</a>
</g>
<!-- Node1&#45;&gt;Node8 -->
<g id="edge14" class="edge"><title>Node1&#45;&gt;Node8</title>
<path fill="none" stroke="midnightblue" d="M69.4574,-167.349C83.86,-139.878 114.106,-90.909 156,-69 217.522,-36.8263 299.429,-37.3685 352.437,-42.3489"/>
<polygon fill="midnightblue" stroke="midnightblue" points="66.2661,-165.904 64.8758,-176.407 72.5126,-169.063 66.2661,-165.904"/>
</g>
<!-- Node9 -->
<g id="node17" class="node"><title>Node9</title>
<a xlink:href="class_trait.html#a4c8c6f7af3db42f87732862a91329de8" target="_top" xlink:title="Trait::setType">
<polygon fill="white" stroke="black" points="197,-78.5 197,-99.5 275,-99.5 275,-78.5 197,-78.5"/>
<text text-anchor="middle" x="236" y="-86.5" font-family="DejaVuSans" font-size="10.00">Trait::setType</text>
</a>
</g>
<!-- Node1&#45;&gt;Node9 -->
<g id="edge16" class="edge"><title>Node1&#45;&gt;Node9</title>
<path fill="none" stroke="midnightblue" d="M77.2649,-168.946C95.291,-151.136 125.186,-124.407 156,-109 168.677,-102.662 183.513,-98.2345 196.943,-95.1884"/>
<polygon fill="midnightblue" stroke="midnightblue" points="74.4054,-166.86 69.8572,-176.429 79.3799,-171.785 74.4054,-166.86"/>
</g>
<!-- Node10 -->
<g id="node21" class="node"><title>Node10</title>
<a xlink:href="class_check_trait.html#a94ca29d8920490f02a9f4a73ec1f6500" target="_top" xlink:title="CheckTrait::type">
<polygon fill="white" stroke="black" points="190,-118.5 190,-139.5 282,-139.5 282,-118.5 190,-118.5"/>
<text text-anchor="middle" x="236" y="-126.5" font-family="DejaVuSans" font-size="10.00">CheckTrait::type</text>
</a>
</g>
<!-- Node1&#45;&gt;Node10 -->
<g id="edge22" class="edge"><title>Node1&#45;&gt;Node10</title>
<path fill="none" stroke="midnightblue" d="M99.9232,-172.995C117.138,-167.029 137.522,-160.062 156,-154 170.794,-149.147 187.197,-143.983 201.28,-139.616"/>
<polygon fill="midnightblue" stroke="midnightblue" points="98.4888,-169.788 90.1923,-176.377 100.787,-176.4 98.4888,-169.788"/>
</g>
<!-- Node11 -->
<g id="node24" class="node"><title>Node11</title>
<a xlink:href="class_chara_trait.html#a0de44908d1c0bfd7cf0fa3a1158f8132" target="_top" xlink:title="CharaTrait::type">
<polygon fill="white" stroke="black" points="190,-0.5 190,-21.5 282,-21.5 282,-0.5 190,-0.5"/>
<text text-anchor="middle" x="236" y="-8.5" font-family="DejaVuSans" font-size="10.00">CharaTrait::type</text>
</a>
</g>
<!-- Node1&#45;&gt;Node11 -->
<g id="edge26" class="edge"><title>Node1&#45;&gt;Node11</title>
<path fill="none" stroke="midnightblue" d="M67.5127,-166.704C80.5345,-134.296 110.359,-70.9633 156,-36 165.819,-28.4784 177.937,-23.1955 189.745,-19.4939"/>
<polygon fill="midnightblue" stroke="midnightblue" points="64.096,-165.834 63.7421,-176.423 70.6221,-168.366 64.096,-165.834"/>
</g>
<!-- Node9&#45;&gt;Node7 -->
<g id="edge18" class="edge"><title>Node9&#45;&gt;Node7</title>
<path fill="none" stroke="midnightblue" d="M284.979,-100.525C309.002,-106.177 337.734,-112.937 361.173,-118.452"/>
<polygon fill="midnightblue" stroke="midnightblue" points="285.537,-97.0603 275.001,-98.1768 283.934,-103.874 285.537,-97.0603"/>
</g>
<!-- Node9&#45;&gt;Node8 -->
<g id="edge20" class="edge"><title>Node9&#45;&gt;Node8</title>
<path fill="none" stroke="midnightblue" d="M284.822,-77.7996C308.458,-72.3774 336.681,-65.9026 359.941,-60.5664"/>
<polygon fill="midnightblue" stroke="midnightblue" points="283.966,-74.4051 275.001,-80.0526 285.531,-81.2279 283.966,-74.4051"/>
</g>
<!-- Node10&#45;&gt;Node7 -->
<g id="edge24" class="edge"><title>Node10&#45;&gt;Node7</title>
<path fill="none" stroke="midnightblue" d="M292.211,-129C311.6,-129 333.255,-129 352.427,-129"/>
<polygon fill="midnightblue" stroke="midnightblue" points="292.004,-125.5 282.004,-129 292.004,-132.5 292.004,-125.5"/>
</g>
<!-- Node11&#45;&gt;Node8 -->
<g id="edge28" class="edge"><title>Node11&#45;&gt;Node8</title>
<path fill="none" stroke="midnightblue" d="M291.902,-23.8246C313.954,-28.8835 338.977,-34.6241 359.959,-39.4376"/>
<polygon fill="midnightblue" stroke="midnightblue" points="292.534,-20.3787 282.004,-21.554 290.969,-27.2015 292.534,-20.3787"/>
</g>
</g>
</svg>
