<?xml version="1.0" encoding="UTF-8" standalone="no"?>
<!DOCTYPE svg PUBLIC "-//W3C//DTD SVG 1.1//EN"
 "http://www.w3.org/Graphics/SVG/1.1/DTD/svg11.dtd">
<!-- Generated by graphviz version 2.26.3 (20100126.1600)
 -->
<!-- Title: G Pages: 1 -->
<svg width="484pt" height="70pt"
 viewBox="0.00 0.00 484.00 70.00" xmlns="http://www.w3.org/2000/svg" xmlns:xlink="http://www.w3.org/1999/xlink">
<g id="graph1" class="graph" transform="scale(1 1) rotate(0) translate(4 66)">
<title>G</title>
<polygon fill="white" stroke="white" points="-4,5 -4,-66 481,-66 481,5 -4,5"/>
<!-- Node1 -->
<g id="node1" class="node"><title>Node1</title>
<polygon fill="#bfbfbf" stroke="black" points="0.5,-20.5 0.5,-41.5 107.5,-41.5 107.5,-20.5 0.5,-20.5"/>
<text text-anchor="middle" x="54" y="-28.5" font-family="DejaVuSans" font-size="10.00">CharaTrait::species</text>
</g>
<!-- Node2 -->
<g id="node3" class="node"><title>Node2</title>
<a xlink:href="class_chara_trait.html#a8b30fcf229fb59f96c3926a59269194e" target="_top" xlink:title="CharaTrait::hideTraitIfNotAvailable">
<polygon fill="white" stroke="black" points="144.5,-40.5 144.5,-61.5 319.5,-61.5 319.5,-40.5 144.5,-40.5"/>
<text text-anchor="middle" x="232" y="-48.5" font-family="DejaVuSans" font-size="10.00">CharaTrait::hideTraitIfNotAvailable</text>
</a>
</g>
<!-- Node1&#45;&gt;Node2 -->
<g id="edge2" class="edge"><title>Node1&#45;&gt;Node2</title>
<path fill="none" stroke="midnightblue" d="M117.847,-38.1738C126.482,-39.1441 135.462,-40.1531 144.423,-41.1599"/>
<polygon fill="midnightblue" stroke="midnightblue" points="118.217,-34.6935 107.889,-37.0549 117.436,-41.6497 118.217,-34.6935"/>
</g>
<!-- Node4 -->
<g id="node7" class="node"><title>Node4</title>
<a xlink:href="class_chara_trait.html#a340feb7c80cc516245c80d1ff03a8aec" target="_top" xlink:title="CharaTrait::setSpecies">
<polygon fill="white" stroke="black" points="170.5,-0.5 170.5,-21.5 293.5,-21.5 293.5,-0.5 170.5,-0.5"/>
<text text-anchor="middle" x="232" y="-8.5" font-family="DejaVuSans" font-size="10.00">CharaTrait::setSpecies</text>
</a>
</g>
<!-- Node1&#45;&gt;Node4 -->
<g id="edge6" class="edge"><title>Node1&#45;&gt;Node4</title>
<path fill="none" stroke="midnightblue" d="M118.29,-23.7764C135.307,-21.8643 153.633,-19.8053 170.498,-17.9103"/>
<polygon fill="midnightblue" stroke="midnightblue" points="117.436,-20.3503 107.889,-24.9451 118.217,-27.3065 117.436,-20.3503"/>
</g>
<!-- Node3 -->
<g id="node5" class="node"><title>Node3</title>
<a xlink:href="class_chara_trait.html#acfe4795a41019f6c92e85e82c0a6ab1a" target="_top" xlink:title="CharaTrait::CharaTrait">
<polygon fill="white" stroke="black" points="356.5,-40.5 356.5,-61.5 475.5,-61.5 475.5,-40.5 356.5,-40.5"/>
<text text-anchor="middle" x="416" y="-48.5" font-family="DejaVuSans" font-size="10.00">CharaTrait::CharaTrait</text>
</a>
</g>
<!-- Node2&#45;&gt;Node3 -->
<g id="edge4" class="edge"><title>Node2&#45;&gt;Node3</title>
<path fill="none" stroke="midnightblue" d="M329.868,-51C338.873,-51 347.801,-51 356.308,-51"/>
<polygon fill="midnightblue" stroke="midnightblue" points="329.689,-47.5001 319.689,-51 329.689,-54.5001 329.689,-47.5001"/>
</g>
</g>
</svg>
