<?xml version="1.0" encoding="UTF-8" standalone="no"?>
<!DOCTYPE svg PUBLIC "-//W3C//DTD SVG 1.1//EN"
 "http://www.w3.org/Graphics/SVG/1.1/DTD/svg11.dtd">
<!-- Generated by graphviz version 2.26.3 (20100126.1600)
 -->
<!-- Title: G Pages: 1 -->
<svg width="630pt" height="150pt"
 viewBox="0.00 0.00 630.00 150.00" xmlns="http://www.w3.org/2000/svg" xmlns:xlink="http://www.w3.org/1999/xlink">
<g id="graph1" class="graph" transform="scale(1 1) rotate(0) translate(4 146)">
<title>G</title>
<polygon fill="white" stroke="white" points="-4,5 -4,-146 627,-146 627,5 -4,5"/>
<!-- Node1 -->
<g id="node1" class="node"><title>Node1</title>
<polygon fill="#bfbfbf" stroke="black" points="0.5,-60.5 0.5,-81.5 115.5,-81.5 115.5,-60.5 0.5,-60.5"/>
<text text-anchor="middle" x="58" y="-68.5" font-family="DejaVuSans" font-size="10.00">Storage::traitNames</text>
</g>
<!-- Node2 -->
<g id="node3" class="node"><title>Node2</title>
<a xlink:href="class_storage.html#a7c17b4be8ac03cc24d8971c790036fa5" target="_top" xlink:title="Storage::attributes">
<polygon fill="white" stroke="black" points="152.5,-120.5 152.5,-141.5 259.5,-141.5 259.5,-120.5 152.5,-120.5"/>
<text text-anchor="middle" x="206" y="-128.5" font-family="DejaVuSans" font-size="10.00">Storage::attributes</text>
</a>
</g>
<!-- Node1&#45;&gt;Node2 -->
<g id="edge2" class="edge"><title>Node1&#45;&gt;Node2</title>
<path fill="none" stroke="midnightblue" d="M91.2568,-85.6082C109.169,-93.3606 131.699,-102.926 152,-111 159.989,-114.177 168.705,-117.477 176.757,-120.458"/>
<polygon fill="midnightblue" stroke="midnightblue" points="92.3904,-82.2847 81.824,-81.5089 89.6004,-88.7047 92.3904,-82.2847"/>
</g>
<!-- Node5 -->
<g id="node9" class="node"><title>Node5</title>
<a xlink:href="class_storage.html#a56cf76893245afc6b9cf542b7c1fdbdf" target="_top" xlink:title="Storage::skills">
<polygon fill="white" stroke="black" points="164.5,-80.5 164.5,-101.5 247.5,-101.5 247.5,-80.5 164.5,-80.5"/>
<text text-anchor="middle" x="206" y="-88.5" font-family="DejaVuSans" font-size="10.00">Storage::skills</text>
</a>
</g>
<!-- Node1&#45;&gt;Node5 -->
<g id="edge8" class="edge"><title>Node1&#45;&gt;Node5</title>
<path fill="none" stroke="midnightblue" d="M125.645,-80.1412C138.829,-81.9228 152.283,-83.741 164.318,-85.3673"/>
<polygon fill="midnightblue" stroke="midnightblue" points="126.023,-76.6606 115.644,-78.7898 125.086,-83.5975 126.023,-76.6606"/>
</g>
<!-- Node6 -->
<g id="node12" class="node"><title>Node6</title>
<a xlink:href="class_storage.html#ae5d5f7979d59e2e7ea4186ffbb5c52e3" target="_top" xlink:title="Storage::vices">
<polygon fill="white" stroke="black" points="163.5,-40.5 163.5,-61.5 248.5,-61.5 248.5,-40.5 163.5,-40.5"/>
<text text-anchor="middle" x="206" y="-48.5" font-family="DejaVuSans" font-size="10.00">Storage::vices</text>
</a>
</g>
<!-- Node1&#45;&gt;Node6 -->
<g id="edge12" class="edge"><title>Node1&#45;&gt;Node6</title>
<path fill="none" stroke="midnightblue" d="M125.824,-61.8347C138.619,-60.1055 151.663,-58.3429 163.409,-56.7555"/>
<polygon fill="midnightblue" stroke="midnightblue" points="125.086,-58.4025 115.644,-63.2102 126.023,-65.3394 125.086,-58.4025"/>
</g>
<!-- Node7 -->
<g id="node15" class="node"><title>Node7</title>
<a xlink:href="class_storage.html#adeb4c0d9dcbc7ca6d807cef6e0d20e0b" target="_top" xlink:title="Storage::virtues">
<polygon fill="white" stroke="black" points="159.5,-0.5 159.5,-21.5 252.5,-21.5 252.5,-0.5 159.5,-0.5"/>
<text text-anchor="middle" x="206" y="-8.5" font-family="DejaVuSans" font-size="10.00">Storage::virtues</text>
</a>
</g>
<!-- Node1&#45;&gt;Node7 -->
<g id="edge16" class="edge"><title>Node1&#45;&gt;Node7</title>
<path fill="none" stroke="midnightblue" d="M91.2568,-56.3918C109.169,-48.6394 131.699,-39.0737 152,-31 159.989,-27.8228 168.705,-24.5232 176.757,-21.542"/>
<polygon fill="midnightblue" stroke="midnightblue" points="89.6004,-53.2953 81.824,-60.4911 92.3904,-59.7153 89.6004,-53.2953"/>
</g>
<!-- Node3 -->
<g id="node5" class="node"><title>Node3</title>
<a xlink:href="class_main_window.html#a1ebe4d2e06ddd16007a29bd1b8c09c49" target="_top" xlink:title="MainWindow::storeTemplateData">
<polygon fill="white" stroke="black" points="296.5,-60.5 296.5,-81.5 467.5,-81.5 467.5,-60.5 296.5,-60.5"/>
<text text-anchor="middle" x="382" y="-68.5" font-family="DejaVuSans" font-size="10.00">MainWindow::storeTemplateData</text>
</a>
</g>
<!-- Node2&#45;&gt;Node3 -->
<g id="edge4" class="edge"><title>Node2&#45;&gt;Node3</title>
<path fill="none" stroke="midnightblue" d="M246.929,-117.047C278.682,-106.222 322.02,-91.4478 350.955,-81.5836"/>
<polygon fill="midnightblue" stroke="midnightblue" points="245.396,-113.872 237.06,-120.411 247.655,-120.497 245.396,-113.872"/>
</g>
<!-- Node4 -->
<g id="node7" class="node"><title>Node4</title>
<a xlink:href="class_main_window.html#a43f05c4d3f5d840d070829d3291c9ec7" target="_top" xlink:title="MainWindow::initialize">
<polygon fill="white" stroke="black" points="504,-60.5 504,-81.5 622,-81.5 622,-60.5 504,-60.5"/>
<text text-anchor="middle" x="563" y="-68.5" font-family="DejaVuSans" font-size="10.00">MainWindow::initialize</text>
</a>
</g>
<!-- Node3&#45;&gt;Node4 -->
<g id="edge6" class="edge"><title>Node3&#45;&gt;Node4</title>
<path fill="none" stroke="midnightblue" d="M477.781,-71C486.675,-71 495.5,-71 503.912,-71"/>
<polygon fill="midnightblue" stroke="midnightblue" points="477.73,-67.5001 467.73,-71 477.729,-74.5001 477.73,-67.5001"/>
</g>
<!-- Node5&#45;&gt;Node3 -->
<g id="edge10" class="edge"><title>Node5&#45;&gt;Node3</title>
<path fill="none" stroke="midnightblue" d="M257.997,-85.0912C270.057,-83.7208 283.206,-82.2266 296.288,-80.74"/>
<polygon fill="midnightblue" stroke="midnightblue" points="257.25,-81.6535 247.71,-86.2603 258.041,-88.6087 257.25,-81.6535"/>
</g>
<!-- Node6&#45;&gt;Node3 -->
<g id="edge14" class="edge"><title>Node6&#45;&gt;Node3</title>
<path fill="none" stroke="midnightblue" d="M258.742,-56.9934C270.61,-58.342 283.502,-59.807 296.328,-61.2646"/>
<polygon fill="midnightblue" stroke="midnightblue" points="258.936,-53.493 248.605,-55.8414 258.146,-60.4482 258.936,-53.493"/>
</g>
<!-- Node7&#45;&gt;Node3 -->
<g id="edge18" class="edge"><title>Node7&#45;&gt;Node3</title>
<path fill="none" stroke="midnightblue" d="M246.929,-24.9532C278.682,-35.7778 322.02,-50.5522 350.955,-60.4164"/>
<polygon fill="midnightblue" stroke="midnightblue" points="247.655,-21.5027 237.06,-21.5887 245.396,-28.1283 247.655,-21.5027"/>
</g>
</g>
</svg>
