<?xml version="1.0" encoding="UTF-8" standalone="no"?>
<!DOCTYPE svg PUBLIC "-//W3C//DTD SVG 1.1//EN"
 "http://www.w3.org/Graphics/SVG/1.1/DTD/svg11.dtd">
<!-- Generated by graphviz version 2.26.3 (20100126.1600)
 -->
<!-- Title: G Pages: 1 -->
<svg width="195pt" height="154pt"
 viewBox="0.00 0.00 195.00 154.00" xmlns="http://www.w3.org/2000/svg" xmlns:xlink="http://www.w3.org/1999/xlink">
<g id="graph1" class="graph" transform="scale(1 1) rotate(0) translate(4 150)">
<title>G</title>
<polygon fill="white" stroke="white" points="-4,5 -4,-150 192,-150 192,5 -4,5"/>
<!-- Node1 -->
<g id="node1" class="node"><title>Node1</title>
<polygon fill="#bfbfbf" stroke="black" points="0,-0.5 0,-21.5 128,-21.5 128,-0.5 0,-0.5"/>
<text text-anchor="middle" x="64" y="-8.5" font-family="DejaVuSans" font-size="10.00">src.Datatypes.Trait.Trait</text>
</g>
<!-- Node2 -->
<g id="node2" class="node"><title>Node2</title>
<polygon fill="white" stroke="#bfbfbf" points="4.5,-124.5 4.5,-145.5 59.5,-145.5 59.5,-124.5 4.5,-124.5"/>
<text text-anchor="middle" x="32" y="-132.5" font-family="DejaVuSans" font-size="10.00">QObject</text>
</g>
<!-- Node2&#45;&gt;Node1 -->
<g id="edge2" class="edge"><title>Node2&#45;&gt;Node1</title>
<path fill="none" stroke="midnightblue" d="M37.2651,-114.598C44.1538,-87.9042 55.9706,-42.1138 61.2786,-21.5454"/>
<polygon fill="midnightblue" stroke="midnightblue" points="33.8382,-113.87 34.7283,-124.428 40.6161,-115.62 33.8382,-113.87"/>
</g>
<!-- Node3 -->
<g id="node4" class="node"><title>Node3</title>
<polygon fill="white" stroke="#bfbfbf" points="76.5,-124.5 76.5,-145.5 117.5,-145.5 117.5,-124.5 76.5,-124.5"/>
<text text-anchor="middle" x="97" y="-132.5" font-family="DejaVuSans" font-size="10.00">tuple</text>
</g>
<!-- Node3&#45;&gt;Node1 -->
<g id="edge4" class="edge"><title>Node3&#45;&gt;Node1</title>
<path fill="none" stroke="#9a32cd" stroke-dasharray="5,2" d="M91.5704,-114.598C84.4664,-87.9042 72.2803,-42.1138 66.8064,-21.5454"/>
<polygon fill="#9a32cd" stroke="#9a32cd" points="88.2323,-115.664 94.1864,-124.428 94.9969,-113.864 88.2323,-115.664"/>
<text text-anchor="middle" x="138" y="-96.5" font-family="DejaVuSans" font-size="10.00">specialtiesChanged</text>
<text text-anchor="middle" x="138" y="-83.5" font-family="DejaVuSans" font-size="10.00">traitChanged</text>
<text text-anchor="middle" x="138" y="-70.5" font-family="DejaVuSans" font-size="10.00">valueChanged</text>
<text text-anchor="middle" x="138" y="-57.5" font-family="DejaVuSans" font-size="10.00">availableChanged</text>
<text text-anchor="middle" x="138" y="-44.5" font-family="DejaVuSans" font-size="10.00">customTextChanged</text>
</g>
</g>
</svg>
