<?xml version="1.0" encoding="UTF-8" standalone="no"?>
<!DOCTYPE svg PUBLIC "-//W3C//DTD SVG 1.1//EN"
 "http://www.w3.org/Graphics/SVG/1.1/DTD/svg11.dtd">
<!-- Generated by graphviz version 2.26.3 (20100126.1600)
 -->
<!-- Title: G Pages: 1 -->
<svg width="460pt" height="30pt"
 viewBox="0.00 0.00 460.00 30.00" xmlns="http://www.w3.org/2000/svg" xmlns:xlink="http://www.w3.org/1999/xlink">
<g id="graph1" class="graph" transform="scale(1 1) rotate(0) translate(4 26)">
<title>G</title>
<polygon fill="white" stroke="white" points="-4,5 -4,-26 457,-26 457,5 -4,5"/>
<!-- Node1 -->
<g id="node1" class="node"><title>Node1</title>
<polygon fill="#bfbfbf" stroke="black" points="0,-0.5 0,-21.5 178,-21.5 178,-0.5 0,-0.5"/>
<text text-anchor="middle" x="89" y="-8.5" font-family="DejaVuSans" font-size="10.00">CheckTrait::hideDescriptionWidget</text>
</g>
<!-- Node2 -->
<g id="node3" class="node"><title>Node2</title>
<a xlink:href="class_check_trait.html#a2dccc399d6c44877ca880bdd17d47ac2" target="_top" xlink:title="CheckTrait::custom">
<polygon fill="white" stroke="black" points="214.5,-0.5 214.5,-21.5 321.5,-21.5 321.5,-0.5 214.5,-0.5"/>
<text text-anchor="middle" x="268" y="-8.5" font-family="DejaVuSans" font-size="10.00">CheckTrait::custom</text>
</a>
</g>
<!-- Node1&#45;&gt;Node2 -->
<g id="edge2" class="edge"><title>Node1&#45;&gt;Node2</title>
<path fill="none" stroke="midnightblue" d="M178.238,-11C186.954,-11 195.674,-11 204.066,-11"/>
<polygon fill="midnightblue" stroke="midnightblue" points="204.118,-14.5001 214.118,-11 204.118,-7.5001 204.118,-14.5001"/>
</g>
<!-- Node3 -->
<g id="node5" class="node"><title>Node3</title>
<a xlink:href="classcv___trait.html#af96ea047974ec3f6bb2cd1b0ade7cf13" target="_top" xlink:title="cv_Trait::custom">
<polygon fill="white" stroke="black" points="358,-0.5 358,-21.5 452,-21.5 452,-0.5 358,-0.5"/>
<text text-anchor="middle" x="405" y="-8.5" font-family="DejaVuSans" font-size="10.00">cv_Trait::custom</text>
</a>
</g>
<!-- Node2&#45;&gt;Node3 -->
<g id="edge4" class="edge"><title>Node2&#45;&gt;Node3</title>
<path fill="none" stroke="midnightblue" d="M321.753,-11C330.173,-11 338.906,-11 347.408,-11"/>
<polygon fill="midnightblue" stroke="midnightblue" points="347.629,-14.5001 357.629,-11 347.629,-7.5001 347.629,-14.5001"/>
</g>
</g>
</svg>
