<?xml version="1.0" encoding="UTF-8" standalone="no"?>
<!DOCTYPE svg PUBLIC "-//W3C//DTD SVG 1.1//EN"
 "http://www.w3.org/Graphics/SVG/1.1/DTD/svg11.dtd">
<!-- Generated by graphviz version 2.26.3 (20100126.1600)
 -->
<!-- Title: G Pages: 1 -->
<svg width="237pt" height="146pt"
 viewBox="0.00 0.00 237.00 146.00" xmlns="http://www.w3.org/2000/svg" xmlns:xlink="http://www.w3.org/1999/xlink">
<g id="graph1" class="graph" transform="scale(1 1) rotate(0) translate(4 142)">
<title>G</title>
<polygon fill="white" stroke="white" points="-4,5 -4,-142 234,-142 234,5 -4,5"/>
<!-- Node1 -->
<g id="node1" class="node"><title>Node1</title>
<polygon fill="#bfbfbf" stroke="black" points="0,-0.5 0,-21.5 218,-21.5 218,-0.5 0,-0.5"/>
<text text-anchor="middle" x="109" y="-8.5" font-family="DejaVuSans" font-size="10.00">src.IO.ReadXmlTemplate.ReadXmlTemplate</text>
</g>
<!-- Node2 -->
<g id="node2" class="node"><title>Node2</title>
<polygon fill="white" stroke="#bfbfbf" points="26.5,-58.5 26.5,-79.5 81.5,-79.5 81.5,-58.5 26.5,-58.5"/>
<text text-anchor="middle" x="54" y="-66.5" font-family="DejaVuSans" font-size="10.00">QObject</text>
</g>
<!-- Node2&#45;&gt;Node1 -->
<g id="edge2" class="edge"><title>Node2&#45;&gt;Node1</title>
<path fill="none" stroke="midnightblue" d="M71.2302,-50.8299C80.3546,-41.2078 91.2405,-29.7282 98.9761,-21.5707"/>
<polygon fill="midnightblue" stroke="midnightblue" points="68.4291,-48.6973 64.0878,-58.3619 73.5085,-53.514 68.4291,-48.6973"/>
</g>
<!-- Node3 -->
<g id="node4" class="node"><title>Node3</title>
<a xlink:href="classsrc_1_1_i_o_1_1_read_xml_1_1_read_xml.html" target="_top" xlink:title="Liest aus Xml&#45;Dateien.">
<polygon fill="white" stroke="black" points="98.5,-58.5 98.5,-79.5 229.5,-79.5 229.5,-58.5 98.5,-58.5"/>
<text text-anchor="middle" x="164" y="-66.5" font-family="DejaVuSans" font-size="10.00">src.IO.ReadXml.ReadXml</text>
</a>
</g>
<!-- Node3&#45;&gt;Node1 -->
<g id="edge4" class="edge"><title>Node3&#45;&gt;Node1</title>
<path fill="none" stroke="midnightblue" d="M146.77,-50.8299C137.645,-41.2078 126.76,-29.7282 119.024,-21.5707"/>
<polygon fill="midnightblue" stroke="midnightblue" points="144.492,-53.514 153.912,-58.3619 149.571,-48.6973 144.492,-53.514"/>
</g>
<!-- Node4 -->
<g id="node6" class="node"><title>Node4</title>
<a xlink:href="classobject.html" target="_top" xlink:title="object">
<polygon fill="white" stroke="black" points="141,-116.5 141,-137.5 187,-137.5 187,-116.5 141,-116.5"/>
<text text-anchor="middle" x="164" y="-124.5" font-family="DejaVuSans" font-size="10.00">object</text>
</a>
</g>
<!-- Node4&#45;&gt;Node3 -->
<g id="edge6" class="edge"><title>Node4&#45;&gt;Node3</title>
<path fill="none" stroke="midnightblue" d="M164,-106.191C164,-97.1684 164,-86.9941 164,-79.5707"/>
<polygon fill="midnightblue" stroke="midnightblue" points="160.5,-106.362 164,-116.362 167.5,-106.362 160.5,-106.362"/>
</g>
</g>
</svg>
