<?xml version="1.0" encoding="UTF-8" standalone="no"?>
<!DOCTYPE svg PUBLIC "-//W3C//DTD SVG 1.1//EN"
 "http://www.w3.org/Graphics/SVG/1.1/DTD/svg11.dtd">
<!-- Generated by graphviz version 2.26.3 (20100126.1600)
 -->
<!-- Title: G Pages: 1 -->
<svg width="668pt" height="188pt"
 viewBox="0.00 0.00 668.00 188.00" xmlns="http://www.w3.org/2000/svg" xmlns:xlink="http://www.w3.org/1999/xlink">
<g id="graph1" class="graph" transform="scale(1 1) rotate(0) translate(4 184)">
<title>G</title>
<polygon fill="white" stroke="white" points="-4,5 -4,-184 665,-184 665,5 -4,5"/>
<!-- Node1 -->
<g id="node1" class="node"><title>Node1</title>
<polygon fill="#bfbfbf" stroke="black" points="0.5,-78.5 0.5,-99.5 135.5,-99.5 135.5,-78.5 0.5,-78.5"/>
<text text-anchor="middle" x="68" y="-86.5" font-family="DejaVuSans" font-size="10.00">MeritWidget::MeritWidget</text>
</g>
<!-- Node2 -->
<g id="node3" class="node"><title>Node2</title>
<a xlink:href="class_storage_character.html#a96062a11fe91e1d9826470412fc64449" target="_top" xlink:title="StorageCharacter::addTrait">
<polygon fill="white" stroke="black" points="186,-158.5 186,-179.5 332,-179.5 332,-158.5 186,-158.5"/>
<text text-anchor="middle" x="259" y="-166.5" font-family="DejaVuSans" font-size="10.00">StorageCharacter::addTrait</text>
</a>
</g>
<!-- Node1&#45;&gt;Node2 -->
<g id="edge2" class="edge"><title>Node1&#45;&gt;Node2</title>
<path fill="none" stroke="midnightblue" d="M83.1244,-99.6702C102.743,-113.043 138.439,-135.804 172,-149 178.396,-151.515 185.186,-153.758 192.043,-155.749"/>
<polygon fill="midnightblue" stroke="midnightblue" points="191.529,-159.237 202.097,-158.488 193.369,-152.483 191.529,-159.237"/>
</g>
<!-- Node3 -->
<g id="node5" class="node"><title>Node3</title>
<a xlink:href="classcv___abstract_trait.html#a2c71206d61498c443d25cab1051a546f" target="_top" xlink:title="cv_AbstractTrait::getCategoryList">
<polygon fill="white" stroke="black" points="172,-118.5 172,-139.5 346,-139.5 346,-118.5 172,-118.5"/>
<text text-anchor="middle" x="259" y="-126.5" font-family="DejaVuSans" font-size="10.00">cv_AbstractTrait::getCategoryList</text>
</a>
</g>
<!-- Node1&#45;&gt;Node3 -->
<g id="edge4" class="edge"><title>Node1&#45;&gt;Node3</title>
<path fill="none" stroke="midnightblue" d="M118.183,-99.5095C142.869,-104.679 172.815,-110.951 198.734,-116.379"/>
<polygon fill="midnightblue" stroke="midnightblue" points="198.316,-119.867 208.821,-118.491 199.751,-113.016 198.316,-119.867"/>
</g>
<!-- Node4 -->
<g id="node7" class="node"><title>Node4</title>
<a xlink:href="class_chara_trait.html#abcfeed4a455c49246385c9bc2024ba15" target="_top" xlink:title="CharaTrait::setValue">
<polygon fill="white" stroke="black" points="203,-78.5 203,-99.5 315,-99.5 315,-78.5 203,-78.5"/>
<text text-anchor="middle" x="259" y="-86.5" font-family="DejaVuSans" font-size="10.00">CharaTrait::setValue</text>
</a>
</g>
<!-- Node1&#45;&gt;Node4 -->
<g id="edge6" class="edge"><title>Node1&#45;&gt;Node4</title>
<path fill="none" stroke="midnightblue" d="M135.608,-89C154.17,-89 174.273,-89 192.757,-89"/>
<polygon fill="midnightblue" stroke="midnightblue" points="192.84,-92.5001 202.84,-89 192.84,-85.5001 192.84,-92.5001"/>
</g>
<!-- Node8 -->
<g id="node16" class="node"><title>Node8</title>
<a xlink:href="classcv___abstract_trait.html#add050d72e281131d1591bbf24e87bb15" target="_top" xlink:title="cv_AbstractTrait::toString">
<polygon fill="white" stroke="black" points="382.5,-0.5 382.5,-21.5 519.5,-21.5 519.5,-0.5 382.5,-0.5"/>
<text text-anchor="middle" x="451" y="-8.5" font-family="DejaVuSans" font-size="10.00">cv_AbstractTrait::toString</text>
</a>
</g>
<!-- Node1&#45;&gt;Node8 -->
<g id="edge16" class="edge"><title>Node1&#45;&gt;Node8</title>
<path fill="none" stroke="midnightblue" d="M119.653,-78.4806C189.565,-64.2426 314.154,-38.8694 389.025,-23.6215"/>
<polygon fill="midnightblue" stroke="midnightblue" points="390.149,-26.9646 399.249,-21.5394 388.752,-20.1054 390.149,-26.9646"/>
</g>
<!-- Node9 -->
<g id="node18" class="node"><title>Node9</title>
<a xlink:href="class_storage_template.html#a2c38d76215e4a8651f4bb6eaae03ece2" target="_top" xlink:title="StorageTemplate::traitsPtr">
<polygon fill="white" stroke="black" points="187.5,-0.5 187.5,-21.5 330.5,-21.5 330.5,-0.5 187.5,-0.5"/>
<text text-anchor="middle" x="259" y="-8.5" font-family="DejaVuSans" font-size="10.00">StorageTemplate::traitsPtr</text>
</a>
</g>
<!-- Node1&#45;&gt;Node9 -->
<g id="edge18" class="edge"><title>Node1&#45;&gt;Node9</title>
<path fill="none" stroke="midnightblue" d="M86.2894,-78.3194C106.681,-66.7367 140.893,-48.2647 172,-36 182.855,-31.72 194.732,-27.8196 206.125,-24.4388"/>
<polygon fill="midnightblue" stroke="midnightblue" points="207.333,-27.7335 215.975,-21.6049 205.397,-21.0064 207.333,-27.7335"/>
</g>
<!-- Node5 -->
<g id="node9" class="node"><title>Node5</title>
<a xlink:href="class_chara_trait.html#ab3935a94198f510d3de473a9a72692ac" target="_top" xlink:title="CharaTrait::traitChanged">
<polygon fill="white" stroke="black" points="384.5,-118.5 384.5,-139.5 517.5,-139.5 517.5,-118.5 384.5,-118.5"/>
<text text-anchor="middle" x="451" y="-126.5" font-family="DejaVuSans" font-size="10.00">CharaTrait::traitChanged</text>
</a>
</g>
<!-- Node4&#45;&gt;Node5 -->
<g id="edge8" class="edge"><title>Node4&#45;&gt;Node5</title>
<path fill="none" stroke="midnightblue" d="M309.446,-99.5095C334.371,-104.702 364.63,-111.006 390.764,-116.451"/>
<polygon fill="midnightblue" stroke="midnightblue" points="390.055,-119.878 400.558,-118.491 391.482,-113.025 390.055,-119.878"/>
</g>
<!-- Node6 -->
<g id="node11" class="node"><title>Node6</title>
<a xlink:href="class_chara_trait.html#acd1abb86d271f401b9856f2c8e172255" target="_top" xlink:title="CharaTrait::traitPtr">
<polygon fill="white" stroke="black" points="556,-59.5 556,-80.5 660,-80.5 660,-59.5 556,-59.5"/>
<text text-anchor="middle" x="608" y="-67.5" font-family="DejaVuSans" font-size="10.00">CharaTrait::traitPtr</text>
</a>
</g>
<!-- Node4&#45;&gt;Node6 -->
<g id="edge10" class="edge"><title>Node4&#45;&gt;Node6</title>
<path fill="none" stroke="midnightblue" d="M315.073,-85.9473C378.082,-82.517 480.095,-76.9633 545.587,-73.3978"/>
<polygon fill="midnightblue" stroke="midnightblue" points="545.978,-76.8818 555.773,-72.8433 545.598,-69.8922 545.978,-76.8818"/>
</g>
<!-- Node7 -->
<g id="node13" class="node"><title>Node7</title>
<a xlink:href="class_chara_trait.html#adeed572acc2fa97468285bc3267e9cb8" target="_top" xlink:title="CharaTrait::value">
<polygon fill="white" stroke="black" points="403,-40.5 403,-61.5 499,-61.5 499,-40.5 403,-40.5"/>
<text text-anchor="middle" x="451" y="-48.5" font-family="DejaVuSans" font-size="10.00">CharaTrait::value</text>
</a>
</g>
<!-- Node4&#45;&gt;Node7 -->
<g id="edge12" class="edge"><title>Node4&#45;&gt;Node7</title>
<path fill="none" stroke="midnightblue" d="M312.228,-78.4653C337.309,-73.5013 367.287,-67.5683 392.951,-62.4889"/>
<polygon fill="midnightblue" stroke="midnightblue" points="393.792,-65.8904 402.922,-60.5155 392.433,-59.0236 393.792,-65.8904"/>
</g>
<!-- Node7&#45;&gt;Node6 -->
<g id="edge14" class="edge"><title>Node7&#45;&gt;Node6</title>
<path fill="none" stroke="midnightblue" d="M499.386,-56.8557C514.094,-58.6356 530.464,-60.6167 545.942,-62.4898"/>
<polygon fill="midnightblue" stroke="midnightblue" points="545.609,-65.975 555.957,-63.7018 546.45,-59.0257 545.609,-65.975"/>
</g>
<!-- Node9&#45;&gt;Node8 -->
<g id="edge20" class="edge"><title>Node9&#45;&gt;Node8</title>
<path fill="none" stroke="midnightblue" d="M330.767,-11C344.177,-11 358.263,-11 371.881,-11"/>
<polygon fill="midnightblue" stroke="midnightblue" points="372.185,-14.5001 382.185,-11 372.185,-7.5001 372.185,-14.5001"/>
</g>
</g>
</svg>
