<?xml version="1.0" encoding="UTF-8" standalone="no"?>
<!DOCTYPE svg PUBLIC "-//W3C//DTD SVG 1.1//EN"
 "http://www.w3.org/Graphics/SVG/1.1/DTD/svg11.dtd">
<!-- Generated by graphviz version 2.26.3 (20100126.1600)
 -->
<!-- Title: G Pages: 1 -->
<svg width="618pt" height="226pt"
 viewBox="0.00 0.00 618.00 226.00" xmlns="http://www.w3.org/2000/svg" xmlns:xlink="http://www.w3.org/1999/xlink">
<g id="graph1" class="graph" transform="scale(1 1) rotate(0) translate(4 222)">
<title>G</title>
<polygon fill="white" stroke="white" points="-4,5 -4,-222 615,-222 615,5 -4,5"/>
<!-- Node1 -->
<g id="node1" class="node"><title>Node1</title>
<polygon fill="#bfbfbf" stroke="black" points="0.5,-118.5 0.5,-139.5 137.5,-139.5 137.5,-118.5 0.5,-118.5"/>
<text text-anchor="middle" x="69" y="-126.5" font-family="DejaVuSans" font-size="10.00">CharaTrait::updateWidget</text>
</g>
<!-- Node2 -->
<g id="node3" class="node"><title>Node2</title>
<a xlink:href="class_chara_trait.html#a7cc9b10030c5e6d5030fb898506ee070" target="_top" xlink:title="CharaTrait::customText">
<polygon fill="white" stroke="black" points="174.5,-196.5 174.5,-217.5 299.5,-217.5 299.5,-196.5 174.5,-196.5"/>
<text text-anchor="middle" x="237" y="-204.5" font-family="DejaVuSans" font-size="10.00">CharaTrait::customText</text>
</a>
</g>
<!-- Node1&#45;&gt;Node2 -->
<g id="edge2" class="edge"><title>Node1&#45;&gt;Node2</title>
<path fill="none" stroke="midnightblue" d="M88.8709,-139.702C109.797,-150.812 143.83,-168.433 174,-182 182.187,-185.682 191.09,-189.389 199.554,-192.781"/>
<polygon fill="midnightblue" stroke="midnightblue" points="198.276,-196.039 208.863,-196.456 200.847,-189.528 198.276,-196.039"/>
</g>
<!-- Node3 -->
<g id="node5" class="node"><title>Node3</title>
<a xlink:href="class_chara_trait.html#acd1abb86d271f401b9856f2c8e172255" target="_top" xlink:title="CharaTrait::traitPtr">
<polygon fill="white" stroke="black" points="506,-138.5 506,-159.5 610,-159.5 610,-138.5 506,-138.5"/>
<text text-anchor="middle" x="558" y="-146.5" font-family="DejaVuSans" font-size="10.00">CharaTrait::traitPtr</text>
</a>
</g>
<!-- Node1&#45;&gt;Node3 -->
<g id="edge20" class="edge"><title>Node1&#45;&gt;Node3</title>
<path fill="none" stroke="midnightblue" d="M137.508,-131.802C232.673,-135.694 403.507,-142.681 495.41,-146.44"/>
<polygon fill="midnightblue" stroke="midnightblue" points="495.541,-149.948 505.676,-146.86 495.827,-142.954 495.541,-149.948"/>
</g>
<!-- Node4 -->
<g id="node7" class="node"><title>Node4</title>
<a xlink:href="class_chara_trait.html#abcfeed4a455c49246385c9bc2024ba15" target="_top" xlink:title="CharaTrait::setValue">
<polygon fill="white" stroke="black" points="181,-80.5 181,-101.5 293,-101.5 293,-80.5 181,-80.5"/>
<text text-anchor="middle" x="237" y="-88.5" font-family="DejaVuSans" font-size="10.00">CharaTrait::setValue</text>
</a>
</g>
<!-- Node1&#45;&gt;Node4 -->
<g id="edge6" class="edge"><title>Node1&#45;&gt;Node4</title>
<path fill="none" stroke="midnightblue" d="M115.797,-118.415C135.913,-113.865 159.596,-108.508 180.665,-103.743"/>
<polygon fill="midnightblue" stroke="midnightblue" points="181.472,-107.148 190.454,-101.528 179.928,-100.321 181.472,-107.148"/>
</g>
<!-- Node7 -->
<g id="node14" class="node"><title>Node7</title>
<a xlink:href="class_chara_trait.html#adeed572acc2fa97468285bc3267e9cb8" target="_top" xlink:title="CharaTrait::value">
<polygon fill="white" stroke="black" points="355,-0.5 355,-21.5 451,-21.5 451,-0.5 355,-0.5"/>
<text text-anchor="middle" x="403" y="-8.5" font-family="DejaVuSans" font-size="10.00">CharaTrait::value</text>
</a>
</g>
<!-- Node1&#45;&gt;Node7 -->
<g id="edge22" class="edge"><title>Node1&#45;&gt;Node7</title>
<path fill="none" stroke="midnightblue" d="M85.1044,-118.437C105.194,-105.66 140.935,-84.2242 174,-71 230.349,-48.4634 297.884,-31.9628 344.953,-22.0331"/>
<polygon fill="midnightblue" stroke="midnightblue" points="345.891,-25.4131 354.97,-19.9536 344.468,-18.5592 345.891,-25.4131"/>
</g>
<!-- Node2&#45;&gt;Node3 -->
<g id="edge4" class="edge"><title>Node2&#45;&gt;Node3</title>
<path fill="none" stroke="midnightblue" d="M299.532,-204.564C346.862,-201.694 413.194,-195.47 470,-182 488.67,-177.573 508.756,-170.25 525.018,-163.626"/>
<polygon fill="midnightblue" stroke="midnightblue" points="526.723,-166.706 534.602,-159.623 524.025,-160.247 526.723,-166.706"/>
</g>
<!-- Node4&#45;&gt;Node3 -->
<g id="edge12" class="edge"><title>Node4&#45;&gt;Node3</title>
<path fill="none" stroke="midnightblue" d="M287.562,-101.517C303.083,-104.664 320.228,-108.058 336,-111 389.848,-121.046 451.241,-131.476 495.796,-138.862"/>
<polygon fill="midnightblue" stroke="midnightblue" points="495.452,-142.353 505.889,-140.531 496.594,-135.446 495.452,-142.353"/>
</g>
<!-- Node5 -->
<g id="node9" class="node"><title>Node5</title>
<a xlink:href="classcv___trait.html#aa1d68882182c6858991571f21ddef507" target="_top" xlink:title="cv_Trait::setValue">
<polygon fill="white" stroke="black" points="353.5,-80.5 353.5,-101.5 452.5,-101.5 452.5,-80.5 353.5,-80.5"/>
<text text-anchor="middle" x="403" y="-88.5" font-family="DejaVuSans" font-size="10.00">cv_Trait::setValue</text>
</a>
</g>
<!-- Node4&#45;&gt;Node5 -->
<g id="edge8" class="edge"><title>Node4&#45;&gt;Node5</title>
<path fill="none" stroke="midnightblue" d="M293.2,-91C309.172,-91 326.626,-91 342.824,-91"/>
<polygon fill="midnightblue" stroke="midnightblue" points="343.258,-94.5001 353.258,-91 343.258,-87.5001 343.258,-94.5001"/>
</g>
<!-- Node6 -->
<g id="node11" class="node"><title>Node6</title>
<a xlink:href="class_chara_trait.html#ab3935a94198f510d3de473a9a72692ac" target="_top" xlink:title="CharaTrait::traitChanged">
<polygon fill="white" stroke="black" points="336.5,-40.5 336.5,-61.5 469.5,-61.5 469.5,-40.5 336.5,-40.5"/>
<text text-anchor="middle" x="403" y="-48.5" font-family="DejaVuSans" font-size="10.00">CharaTrait::traitChanged</text>
</a>
</g>
<!-- Node4&#45;&gt;Node6 -->
<g id="edge10" class="edge"><title>Node4&#45;&gt;Node6</title>
<path fill="none" stroke="midnightblue" d="M280.615,-80.4905C301.69,-75.412 327.176,-69.2708 349.423,-63.9102"/>
<polygon fill="midnightblue" stroke="midnightblue" points="350.487,-67.254 359.389,-61.5087 348.847,-60.4488 350.487,-67.254"/>
</g>
<!-- Node4&#45;&gt;Node7 -->
<g id="edge14" class="edge"><title>Node4&#45;&gt;Node7</title>
<path fill="none" stroke="midnightblue" d="M251.775,-80.3865C270.573,-67.2828 304.401,-45.0157 336,-31 341.063,-28.7544 346.449,-26.674 351.883,-24.7712"/>
<polygon fill="midnightblue" stroke="midnightblue" points="353.259,-28.0026 361.655,-21.5406 351.062,-21.3563 353.259,-28.0026"/>
</g>
<!-- Node7&#45;&gt;Node3 -->
<g id="edge16" class="edge"><title>Node7&#45;&gt;Node3</title>
<path fill="none" stroke="midnightblue" d="M451.234,-21.2809C457.861,-23.8455 464.329,-27.0359 470,-31 506.961,-56.8351 534.778,-103.118 548.497,-129.386"/>
<polygon fill="midnightblue" stroke="midnightblue" points="545.415,-131.047 553.054,-138.388 551.661,-127.886 545.415,-131.047"/>
</g>
<!-- Node8 -->
<g id="node17" class="node"><title>Node8</title>
<a xlink:href="classcv___trait.html#a965fb56fc4ff6e659b4c44752cfaa538" target="_top" xlink:title="cv_Trait::value">
<polygon fill="white" stroke="black" points="516.5,-0.5 516.5,-21.5 599.5,-21.5 599.5,-0.5 516.5,-0.5"/>
<text text-anchor="middle" x="558" y="-8.5" font-family="DejaVuSans" font-size="10.00">cv_Trait::value</text>
</a>
</g>
<!-- Node7&#45;&gt;Node8 -->
<g id="edge18" class="edge"><title>Node7&#45;&gt;Node8</title>
<path fill="none" stroke="midnightblue" d="M451.193,-11C468.651,-11 488.436,-11 506.191,-11"/>
<polygon fill="midnightblue" stroke="midnightblue" points="506.378,-14.5001 516.378,-11 506.378,-7.5001 506.378,-14.5001"/>
</g>
</g>
</svg>
