<?xml version="1.0" encoding="UTF-8" standalone="no"?>
<!DOCTYPE svg PUBLIC "-//W3C//DTD SVG 1.1//EN"
 "http://www.w3.org/Graphics/SVG/1.1/DTD/svg11.dtd">
<!-- Generated by graphviz version 2.26.3 (20100126.1600)
 -->
<!-- Title: G Pages: 1 -->
<svg width="262pt" height="70pt"
 viewBox="0.00 0.00 262.00 70.00" xmlns="http://www.w3.org/2000/svg" xmlns:xlink="http://www.w3.org/1999/xlink">
<g id="graph1" class="graph" transform="scale(1 1) rotate(0) translate(4 66)">
<title>G</title>
<polygon fill="white" stroke="white" points="-4,5 -4,-66 259,-66 259,5 -4,5"/>
<!-- Node1 -->
<g id="node1" class="node"><title>Node1</title>
<polygon fill="#bfbfbf" stroke="black" points="0,-20.5 0,-41.5 80,-41.5 80,-20.5 0,-20.5"/>
<text text-anchor="middle" x="40" y="-28.5" font-family="DejaVuSans" font-size="10.00">Config::name</text>
</g>
<!-- Node2 -->
<g id="node3" class="node"><title>Node2</title>
<a xlink:href="class_main_window.html#a8b244be8b7b7db1b08de2a2acb9409db" target="_top" xlink:title="MainWindow::MainWindow">
<polygon fill="white" stroke="black" points="116.5,-40.5 116.5,-61.5 253.5,-61.5 253.5,-40.5 116.5,-40.5"/>
<text text-anchor="middle" x="185" y="-48.5" font-family="DejaVuSans" font-size="10.00">MainWindow::MainWindow</text>
</a>
</g>
<!-- Node1&#45;&gt;Node2 -->
<g id="edge2" class="edge"><title>Node1&#45;&gt;Node2</title>
<path fill="none" stroke="midnightblue" d="M90.1172,-37.9127C98.6215,-39.0857 107.581,-40.3216 116.462,-41.5464"/>
<polygon fill="midnightblue" stroke="midnightblue" points="90.3902,-34.4173 80.0057,-36.518 89.4337,-41.3517 90.3902,-34.4173"/>
</g>
<!-- Node3 -->
<g id="node5" class="node"><title>Node3</title>
<a xlink:href="class_write_xml_character.html#af657074e346540e71b20ab2ccae3bc9c" target="_top" xlink:title="WriteXmlCharacter::write">
<polygon fill="white" stroke="black" points="118,-0.5 118,-21.5 252,-21.5 252,-0.5 118,-0.5"/>
<text text-anchor="middle" x="185" y="-8.5" font-family="DejaVuSans" font-size="10.00">WriteXmlCharacter::write</text>
</a>
</g>
<!-- Node1&#45;&gt;Node3 -->
<g id="edge4" class="edge"><title>Node1&#45;&gt;Node3</title>
<path fill="none" stroke="midnightblue" d="M89.92,-24.1145C98.9256,-22.8723 108.448,-21.559 117.849,-20.2622"/>
<polygon fill="midnightblue" stroke="midnightblue" points="89.4337,-20.6483 80.0057,-25.482 90.3902,-27.5827 89.4337,-20.6483"/>
</g>
</g>
</svg>
