<?xml version="1.0" encoding="UTF-8" standalone="no"?>
<!DOCTYPE svg PUBLIC "-//W3C//DTD SVG 1.1//EN"
 "http://www.w3.org/Graphics/SVG/1.1/DTD/svg11.dtd">
<!-- Generated by graphviz version 2.26.3 (20100126.1600)
 -->
<!-- Title: G Pages: 1 -->
<svg width="410pt" height="390pt"
 viewBox="0.00 0.00 410.00 390.00" xmlns="http://www.w3.org/2000/svg" xmlns:xlink="http://www.w3.org/1999/xlink">
<g id="graph1" class="graph" transform="scale(1 1) rotate(0) translate(4 386)">
<title>G</title>
<polygon fill="white" stroke="white" points="-4,5 -4,-386 407,-386 407,5 -4,5"/>
<!-- Node1 -->
<g id="node1" class="node"><title>Node1</title>
<polygon fill="#bfbfbf" stroke="black" points="0,-180.5 0,-201.5 164,-201.5 164,-180.5 0,-180.5"/>
<text text-anchor="middle" x="82" y="-188.5" font-family="DejaVuSans" font-size="10.00">StorageCharacter::getInstance</text>
</g>
<!-- Node2 -->
<g id="node3" class="node"><title>Node2</title>
<a xlink:href="class_advantages_widget.html#a99d7de9b9f89d58a8361e1fd27162f04" target="_top" xlink:title="AdvantagesWidget::AdvantagesWidget">
<polygon fill="white" stroke="black" points="200.5,-360.5 200.5,-381.5 401.5,-381.5 401.5,-360.5 200.5,-360.5"/>
<text text-anchor="middle" x="301" y="-368.5" font-family="DejaVuSans" font-size="10.00">AdvantagesWidget::AdvantagesWidget</text>
</a>
</g>
<!-- Node1&#45;&gt;Node2 -->
<g id="edge2" class="edge"><title>Node1&#45;&gt;Node2</title>
<path fill="none" stroke="midnightblue" d="M90.8272,-211.235C107.053,-245.869 145.065,-316.143 200,-351 206.037,-354.831 212.654,-357.953 219.521,-360.494"/>
<polygon fill="midnightblue" stroke="midnightblue" points="93.8213,-209.364 86.4963,-201.709 87.449,-212.261 93.8213,-209.364"/>
</g>
<!-- Node3 -->
<g id="node5" class="node"><title>Node3</title>
<a xlink:href="class_attribute_widget.html#ab498116d47f94a62e3b82eaa79976b36" target="_top" xlink:title="AttributeWidget::AttributeWidget">
<polygon fill="white" stroke="black" points="215.5,-320.5 215.5,-341.5 386.5,-341.5 386.5,-320.5 215.5,-320.5"/>
<text text-anchor="middle" x="301" y="-328.5" font-family="DejaVuSans" font-size="10.00">AttributeWidget::AttributeWidget</text>
</a>
</g>
<!-- Node1&#45;&gt;Node3 -->
<g id="edge4" class="edge"><title>Node1&#45;&gt;Node3</title>
<path fill="none" stroke="midnightblue" d="M94.8869,-209.988C114.316,-237.02 153.791,-286.076 200,-311 207.08,-314.819 214.791,-317.913 222.694,-320.419"/>
<polygon fill="midnightblue" stroke="midnightblue" points="97.6986,-207.902 89.0858,-201.732 91.9711,-211.926 97.6986,-207.902"/>
</g>
<!-- Node4 -->
<g id="node7" class="node"><title>Node4</title>
<a xlink:href="class_chara_specialties.html#aa32a59e35e6f834d550c14ab896fbe89" target="_top" xlink:title="CharaSpecialties::CharaSpecialties">
<polygon fill="white" stroke="black" points="209.5,-280.5 209.5,-301.5 392.5,-301.5 392.5,-280.5 209.5,-280.5"/>
<text text-anchor="middle" x="301" y="-288.5" font-family="DejaVuSans" font-size="10.00">CharaSpecialties::CharaSpecialties</text>
</a>
</g>
<!-- Node1&#45;&gt;Node4 -->
<g id="edge6" class="edge"><title>Node1&#45;&gt;Node4</title>
<path fill="none" stroke="midnightblue" d="M101.874,-208.197C124.222,-226.601 162.333,-255.268 200,-271 209.154,-274.823 219.087,-277.929 229.029,-280.448"/>
<polygon fill="midnightblue" stroke="midnightblue" points="104.027,-205.434 94.1147,-201.694 99.5309,-210.799 104.027,-205.434"/>
</g>
<!-- Node5 -->
<g id="node9" class="node"><title>Node5</title>
<a xlink:href="class_chara_species.html#a22e279137aff84ecc3c8a537bae41080" target="_top" xlink:title="CharaSpecies::CharaSpecies">
<polygon fill="white" stroke="black" points="223.5,-240.5 223.5,-261.5 378.5,-261.5 378.5,-240.5 223.5,-240.5"/>
<text text-anchor="middle" x="301" y="-248.5" font-family="DejaVuSans" font-size="10.00">CharaSpecies::CharaSpecies</text>
</a>
</g>
<!-- Node1&#45;&gt;Node5 -->
<g id="edge8" class="edge"><title>Node1&#45;&gt;Node5</title>
<path fill="none" stroke="midnightblue" d="M119.214,-205.016C142.251,-213.341 172.572,-223.669 200,-231 213.211,-234.531 227.545,-237.737 241.152,-240.498"/>
<polygon fill="midnightblue" stroke="midnightblue" points="120.41,-201.727 109.816,-201.585 118.009,-208.303 120.41,-201.727"/>
</g>
<!-- Node6 -->
<g id="node11" class="node"><title>Node6</title>
<a xlink:href="class_chara_trait.html#a21787eb972b4fc8779368a78f4430f14" target="_top" xlink:title="CharaTrait::CharaTrait">
<polygon fill="white" stroke="black" points="241.5,-200.5 241.5,-221.5 360.5,-221.5 360.5,-200.5 241.5,-200.5"/>
<text text-anchor="middle" x="301" y="-208.5" font-family="DejaVuSans" font-size="10.00">CharaTrait::CharaTrait</text>
</a>
</g>
<!-- Node1&#45;&gt;Node6 -->
<g id="edge10" class="edge"><title>Node1&#45;&gt;Node6</title>
<path fill="none" stroke="midnightblue" d="M174.167,-199.417C196.866,-201.49 220.583,-203.656 241.285,-205.547"/>
<polygon fill="midnightblue" stroke="midnightblue" points="174.447,-195.928 164.171,-198.504 173.811,-202.899 174.447,-195.928"/>
</g>
<!-- Node7 -->
<g id="node13" class="node"><title>Node7</title>
<a xlink:href="class_check_trait.html#a3d74335165852938fb58d285bcc25b52" target="_top" xlink:title="CheckTrait::CheckTrait">
<polygon fill="white" stroke="black" points="241,-160.5 241,-181.5 361,-181.5 361,-160.5 241,-160.5"/>
<text text-anchor="middle" x="301" y="-168.5" font-family="DejaVuSans" font-size="10.00">CheckTrait::CheckTrait</text>
</a>
</g>
<!-- Node1&#45;&gt;Node7 -->
<g id="edge12" class="edge"><title>Node1&#45;&gt;Node7</title>
<path fill="none" stroke="midnightblue" d="M174.424,-182.559C196.92,-180.505 220.403,-178.36 240.947,-176.484"/>
<polygon fill="midnightblue" stroke="midnightblue" points="173.811,-179.101 164.171,-183.496 174.447,-186.072 173.811,-179.101"/>
</g>
<!-- Node8 -->
<g id="node15" class="node"><title>Node8</title>
<a xlink:href="class_info_widget.html#a19f07d861d22be4881361a5a32e86451" target="_top" xlink:title="InfoWidget::InfoWidget">
<polygon fill="white" stroke="black" points="240,-120.5 240,-141.5 362,-141.5 362,-120.5 240,-120.5"/>
<text text-anchor="middle" x="301" y="-128.5" font-family="DejaVuSans" font-size="10.00">InfoWidget::InfoWidget</text>
</a>
</g>
<!-- Node1&#45;&gt;Node8 -->
<g id="edge14" class="edge"><title>Node1&#45;&gt;Node8</title>
<path fill="none" stroke="midnightblue" d="M119.214,-176.984C142.251,-168.659 172.572,-158.331 200,-151 213.211,-147.469 227.545,-144.263 241.152,-141.502"/>
<polygon fill="midnightblue" stroke="midnightblue" points="118.009,-173.697 109.816,-180.415 120.41,-180.273 118.009,-173.697"/>
</g>
<!-- Node9 -->
<g id="node17" class="node"><title>Node9</title>
<a xlink:href="class_main_window.html#a8b244be8b7b7db1b08de2a2acb9409db" target="_top" xlink:title="MainWindow::MainWindow">
<polygon fill="white" stroke="black" points="232.5,-80.5 232.5,-101.5 369.5,-101.5 369.5,-80.5 232.5,-80.5"/>
<text text-anchor="middle" x="301" y="-88.5" font-family="DejaVuSans" font-size="10.00">MainWindow::MainWindow</text>
</a>
</g>
<!-- Node1&#45;&gt;Node9 -->
<g id="edge16" class="edge"><title>Node1&#45;&gt;Node9</title>
<path fill="none" stroke="midnightblue" d="M101.874,-173.803C124.222,-155.399 162.333,-126.732 200,-111 210.144,-106.763 221.243,-103.408 232.253,-100.755"/>
<polygon fill="midnightblue" stroke="midnightblue" points="99.5309,-171.201 94.1147,-180.306 104.027,-176.566 99.5309,-171.201"/>
</g>
<!-- Node10 -->
<g id="node19" class="node"><title>Node10</title>
<a xlink:href="class_name_dialog.html#a60603361e8f9986a1e1572a6b5d4b752" target="_top" xlink:title="NameDialog::NameDialog">
<polygon fill="white" stroke="black" points="230.5,-40.5 230.5,-61.5 371.5,-61.5 371.5,-40.5 230.5,-40.5"/>
<text text-anchor="middle" x="301" y="-48.5" font-family="DejaVuSans" font-size="10.00">NameDialog::NameDialog</text>
</a>
</g>
<!-- Node1&#45;&gt;Node10 -->
<g id="edge18" class="edge"><title>Node1&#45;&gt;Node10</title>
<path fill="none" stroke="midnightblue" d="M94.8869,-172.012C114.316,-144.98 153.791,-95.9236 200,-71 209.361,-65.951 219.826,-62.1686 230.378,-59.3368"/>
<polygon fill="midnightblue" stroke="midnightblue" points="91.9711,-170.074 89.0858,-180.268 97.6986,-174.098 91.9711,-170.074"/>
</g>
<!-- Node11 -->
<g id="node21" class="node"><title>Node11</title>
<a xlink:href="class_power_widget.html#a07bb0283ac179fda85ae3f2e38f17b71" target="_top" xlink:title="PowerWidget::PowerWidget">
<polygon fill="white" stroke="black" points="229,-0.5 229,-21.5 373,-21.5 373,-0.5 229,-0.5"/>
<text text-anchor="middle" x="301" y="-8.5" font-family="DejaVuSans" font-size="10.00">PowerWidget::PowerWidget</text>
</a>
</g>
<!-- Node1&#45;&gt;Node11 -->
<g id="edge20" class="edge"><title>Node1&#45;&gt;Node11</title>
<path fill="none" stroke="midnightblue" d="M90.8272,-170.765C107.053,-136.131 145.065,-65.8575 200,-31 208.754,-25.4454 218.726,-21.3811 228.914,-18.4169"/>
<polygon fill="midnightblue" stroke="midnightblue" points="87.449,-169.739 86.4963,-180.291 93.8213,-172.636 87.449,-169.739"/>
</g>
</g>
</svg>
