<?xml version="1.0" encoding="UTF-8" standalone="no"?>
<!DOCTYPE svg PUBLIC "-//W3C//DTD SVG 1.1//EN"
 "http://www.w3.org/Graphics/SVG/1.1/DTD/svg11.dtd">
<!-- Generated by graphviz version 2.26.3 (20100126.1600)
 -->
<!-- Title: G Pages: 1 -->
<svg width="468pt" height="70pt"
 viewBox="0.00 0.00 468.00 70.00" xmlns="http://www.w3.org/2000/svg" xmlns:xlink="http://www.w3.org/1999/xlink">
<g id="graph1" class="graph" transform="scale(1 1) rotate(0) translate(4 66)">
<title>G</title>
<polygon fill="white" stroke="white" points="-4,5 -4,-66 465,-66 465,5 -4,5"/>
<!-- Node1 -->
<g id="node1" class="node"><title>Node1</title>
<polygon fill="#bfbfbf" stroke="black" points="0.5,-20.5 0.5,-41.5 125.5,-41.5 125.5,-20.5 0.5,-20.5"/>
<text text-anchor="middle" x="63" y="-28.5" font-family="DejaVuSans" font-size="10.00">CharaTrait::customText</text>
</g>
<!-- Node2 -->
<g id="node3" class="node"><title>Node2</title>
<a xlink:href="class_chara_trait.html#ace22816278072df97eb782603153600b" target="_top" xlink:title="CharaTrait::setCustomText">
<polygon fill="white" stroke="black" points="162,-40.5 162,-61.5 304,-61.5 304,-40.5 162,-40.5"/>
<text text-anchor="middle" x="233" y="-48.5" font-family="DejaVuSans" font-size="10.00">CharaTrait::setCustomText</text>
</a>
</g>
<!-- Node1&#45;&gt;Node2 -->
<g id="edge2" class="edge"><title>Node1&#45;&gt;Node2</title>
<path fill="none" stroke="midnightblue" d="M135.836,-39.569C144.455,-40.583 153.245,-41.617 161.84,-42.6282"/>
<polygon fill="midnightblue" stroke="midnightblue" points="136.159,-36.0829 125.819,-38.3904 135.341,-43.035 136.159,-36.0829"/>
</g>
<!-- Node4 -->
<g id="node7" class="node"><title>Node4</title>
<a xlink:href="class_chara_trait.html#a0a5adca1cfd4732d6c4f64299e6d6fd3" target="_top" xlink:title="CharaTrait::updateWidget">
<polygon fill="white" stroke="black" points="164.5,-0.5 164.5,-21.5 301.5,-21.5 301.5,-0.5 164.5,-0.5"/>
<text text-anchor="middle" x="233" y="-8.5" font-family="DejaVuSans" font-size="10.00">CharaTrait::updateWidget</text>
</a>
</g>
<!-- Node1&#45;&gt;Node4 -->
<g id="edge6" class="edge"><title>Node1&#45;&gt;Node4</title>
<path fill="none" stroke="midnightblue" d="M135.968,-22.4155C145.415,-21.3041 155.065,-20.1688 164.437,-19.0662"/>
<polygon fill="midnightblue" stroke="midnightblue" points="135.341,-18.965 125.819,-23.6096 136.159,-25.9171 135.341,-18.965"/>
</g>
<!-- Node3 -->
<g id="node5" class="node"><title>Node3</title>
<a xlink:href="class_chara_trait.html#acfe4795a41019f6c92e85e82c0a6ab1a" target="_top" xlink:title="CharaTrait::CharaTrait">
<polygon fill="white" stroke="black" points="340.5,-20.5 340.5,-41.5 459.5,-41.5 459.5,-20.5 340.5,-20.5"/>
<text text-anchor="middle" x="400" y="-28.5" font-family="DejaVuSans" font-size="10.00">CharaTrait::CharaTrait</text>
</a>
</g>
<!-- Node2&#45;&gt;Node3 -->
<g id="edge4" class="edge"><title>Node2&#45;&gt;Node3</title>
<path fill="none" stroke="midnightblue" d="M314.254,-41.2689C323.096,-40.2101 331.971,-39.1472 340.483,-38.1278"/>
<polygon fill="midnightblue" stroke="midnightblue" points="313.82,-37.7958 304.307,-42.4602 314.653,-44.7462 313.82,-37.7958"/>
</g>
<!-- Node4&#45;&gt;Node3 -->
<g id="edge8" class="edge"><title>Node4&#45;&gt;Node3</title>
<path fill="none" stroke="midnightblue" d="M311.83,-20.4407C321.417,-21.5889 331.087,-22.747 340.332,-23.8541"/>
<polygon fill="midnightblue" stroke="midnightblue" points="312.235,-16.9643 301.889,-19.2502 311.402,-23.9146 312.235,-16.9643"/>
</g>
</g>
</svg>
