<?xml version="1.0" encoding="UTF-8" standalone="no"?>
<!DOCTYPE svg PUBLIC "-//W3C//DTD SVG 1.1//EN"
 "http://www.w3.org/Graphics/SVG/1.1/DTD/svg11.dtd">
<!-- Generated by graphviz version 2.26.3 (20100126.1600)
 -->
<!-- Title: G Pages: 1 -->
<svg width="264pt" height="102pt"
 viewBox="0.00 0.00 264.00 102.00" xmlns="http://www.w3.org/2000/svg" xmlns:xlink="http://www.w3.org/1999/xlink">
<g id="graph1" class="graph" transform="scale(1 1) rotate(0) translate(4 98)">
<title>G</title>
<polygon fill="white" stroke="white" points="-4,5 -4,-98 261,-98 261,5 -4,5"/>
<!-- Node1 -->
<g id="node1" class="node"><title>Node1</title>
<polygon fill="#bfbfbf" stroke="black" points="-0.5,-0.5 -0.5,-21.5 256.5,-21.5 256.5,-0.5 -0.5,-0.5"/>
<text text-anchor="middle" x="128" y="-8.5" font-family="DejaVuSans" font-size="10.00">src.Widgets.Components.CheckedList.CheckedList</text>
</g>
<!-- Node2 -->
<g id="node2" class="node"><title>Node2</title>
<polygon fill="white" stroke="#bfbfbf" points="54.5,-72.5 54.5,-93.5 127.5,-93.5 127.5,-72.5 54.5,-72.5"/>
<text text-anchor="middle" x="91" y="-80.5" font-family="DejaVuSans" font-size="10.00">QListWidget</text>
</g>
<!-- Node2&#45;&gt;Node1 -->
<g id="edge2" class="edge"><title>Node2&#45;&gt;Node1</title>
<path fill="none" stroke="midnightblue" d="M101.062,-63.4193C107.972,-49.9734 116.88,-32.6384 122.518,-21.6674"/>
<polygon fill="midnightblue" stroke="midnightblue" points="97.9172,-61.8821 96.4595,-72.3762 104.143,-65.0816 97.9172,-61.8821"/>
</g>
<!-- Node3 -->
<g id="node4" class="node"><title>Node3</title>
<polygon fill="white" stroke="#bfbfbf" points="144.5,-72.5 144.5,-93.5 185.5,-93.5 185.5,-72.5 144.5,-72.5"/>
<text text-anchor="middle" x="165" y="-80.5" font-family="DejaVuSans" font-size="10.00">tuple</text>
</g>
<!-- Node3&#45;&gt;Node1 -->
<g id="edge4" class="edge"><title>Node3&#45;&gt;Node1</title>
<path fill="none" stroke="#9a32cd" stroke-dasharray="5,2" d="M154.938,-63.4193C148.028,-49.9734 139.12,-32.6384 133.482,-21.6674"/>
<polygon fill="#9a32cd" stroke="#9a32cd" points="151.857,-65.0816 159.541,-72.3762 158.083,-61.8821 151.857,-65.0816"/>
<text text-anchor="middle" x="194.5" y="-44.5" font-family="DejaVuSans" font-size="10.00">itemStateChanged</text>
</g>
</g>
</svg>
