<?xml version="1.0" encoding="UTF-8" standalone="no"?>
<!DOCTYPE svg PUBLIC "-//W3C//DTD SVG 1.1//EN"
 "http://www.w3.org/Graphics/SVG/1.1/DTD/svg11.dtd">
<!-- Generated by graphviz version 2.26.3 (20100126.1600)
 -->
<!-- Title: G Pages: 1 -->
<svg width="494pt" height="70pt"
 viewBox="0.00 0.00 494.00 70.00" xmlns="http://www.w3.org/2000/svg" xmlns:xlink="http://www.w3.org/1999/xlink">
<g id="graph1" class="graph" transform="scale(1 1) rotate(0) translate(4 66)">
<title>G</title>
<polygon fill="white" stroke="white" points="-4,5 -4,-66 491,-66 491,5 -4,5"/>
<!-- Node1 -->
<g id="node1" class="node"><title>Node1</title>
<polygon fill="#bfbfbf" stroke="black" points="0.5,-20.5 0.5,-41.5 161.5,-41.5 161.5,-20.5 0.5,-20.5"/>
<text text-anchor="middle" x="81" y="-28.5" font-family="DejaVuSans" font-size="10.00">eNotANumber::eNotANumber</text>
</g>
<!-- Node2 -->
<g id="node3" class="node"><title>Node2</title>
<a xlink:href="class_exception.html#a032056e0558a40affd69325368840a72" target="_top" xlink:title="Exception::setDescription">
<polygon fill="white" stroke="black" points="198,-40.5 198,-61.5 336,-61.5 336,-40.5 198,-40.5"/>
<text text-anchor="middle" x="267" y="-48.5" font-family="DejaVuSans" font-size="10.00">Exception::setDescription</text>
</a>
</g>
<!-- Node1&#45;&gt;Node2 -->
<g id="edge2" class="edge"><title>Node1&#45;&gt;Node2</title>
<path fill="none" stroke="midnightblue" d="M161.501,-39.656C170.18,-40.5893 179.008,-41.5385 187.674,-42.4703"/>
<polygon fill="midnightblue" stroke="midnightblue" points="187.437,-45.9649 197.754,-43.5542 188.185,-39.005 187.437,-45.9649"/>
</g>
<!-- Node3 -->
<g id="node5" class="node"><title>Node3</title>
<a xlink:href="class_exception.html#a16b5202a71fe00abb2c278adca10b415" target="_top" xlink:title="Exception::setMessage">
<polygon fill="white" stroke="black" points="203.5,-0.5 203.5,-21.5 330.5,-21.5 330.5,-0.5 203.5,-0.5"/>
<text text-anchor="middle" x="267" y="-8.5" font-family="DejaVuSans" font-size="10.00">Exception::setMessage</text>
</a>
</g>
<!-- Node1&#45;&gt;Node3 -->
<g id="edge4" class="edge"><title>Node1&#45;&gt;Node3</title>
<path fill="none" stroke="midnightblue" d="M161.501,-22.344C172.14,-21.2 183.002,-20.032 193.515,-18.9016"/>
<polygon fill="midnightblue" stroke="midnightblue" points="193.902,-22.3803 203.47,-17.8312 193.153,-15.4204 193.902,-22.3803"/>
</g>
<!-- Node4 -->
<g id="node7" class="node"><title>Node4</title>
<a xlink:href="class_exception.html#aeaf3a81717287d50938bc72ed67bacd8" target="_top" xlink:title="Exception::message">
<polygon fill="white" stroke="black" points="372.5,-0.5 372.5,-21.5 485.5,-21.5 485.5,-0.5 372.5,-0.5"/>
<text text-anchor="middle" x="429" y="-8.5" font-family="DejaVuSans" font-size="10.00">Exception::message</text>
</a>
</g>
<!-- Node3&#45;&gt;Node4 -->
<g id="edge6" class="edge"><title>Node3&#45;&gt;Node4</title>
<path fill="none" stroke="midnightblue" d="M330.562,-11C340.933,-11 351.705,-11 362.152,-11"/>
<polygon fill="midnightblue" stroke="midnightblue" points="362.465,-14.5001 372.465,-11 362.465,-7.5001 362.465,-14.5001"/>
</g>
</g>
</svg>
