<?xml version="1.0" encoding="UTF-8" standalone="no"?>
<!DOCTYPE svg PUBLIC "-//W3C//DTD SVG 1.1//EN"
 "http://www.w3.org/Graphics/SVG/1.1/DTD/svg11.dtd">
<!-- Generated by graphviz version 2.26.3 (20100126.1600)
 -->
<!-- Title: G Pages: 1 -->
<svg width="282pt" height="70pt"
 viewBox="0.00 0.00 282.00 70.00" xmlns="http://www.w3.org/2000/svg" xmlns:xlink="http://www.w3.org/1999/xlink">
<g id="graph1" class="graph" transform="scale(1 1) rotate(0) translate(4 66)">
<title>G</title>
<polygon fill="white" stroke="white" points="-4,5 -4,-66 279,-66 279,5 -4,5"/>
<!-- Node1 -->
<g id="node1" class="node"><title>Node1</title>
<polygon fill="#bfbfbf" stroke="black" points="0,-20.5 0,-41.5 114,-41.5 114,-20.5 0,-20.5"/>
<text text-anchor="middle" x="57" y="-28.5" font-family="DejaVuSans" font-size="10.00">Storage::addIdentity</text>
</g>
<!-- Node2 -->
<g id="node3" class="node"><title>Node2</title>
<a xlink:href="class_storage.html#a1ee73d4ba0eecf7c68c29f4228241a48" target="_top" xlink:title="Storage::identities">
<polygon fill="white" stroke="black" points="160,-40.5 160,-61.5 264,-61.5 264,-40.5 160,-40.5"/>
<text text-anchor="middle" x="212" y="-48.5" font-family="DejaVuSans" font-size="10.00">Storage::identities</text>
</a>
</g>
<!-- Node1&#45;&gt;Node2 -->
<g id="edge2" class="edge"><title>Node1&#45;&gt;Node2</title>
<path fill="none" stroke="midnightblue" d="M114.276,-38.3904C125.815,-39.8793 137.997,-41.4512 149.698,-42.961"/>
<polygon fill="midnightblue" stroke="midnightblue" points="149.463,-46.4596 159.829,-44.2682 150.359,-39.5172 149.463,-46.4596"/>
</g>
<!-- Node3 -->
<g id="node5" class="node"><title>Node3</title>
<a xlink:href="class_storage.html#ab0a26cef13636b1623ad444d361789b4" target="_top" xlink:title="Storage::insertIdentity">
<polygon fill="white" stroke="black" points="150.5,-0.5 150.5,-21.5 273.5,-21.5 273.5,-0.5 150.5,-0.5"/>
<text text-anchor="middle" x="212" y="-8.5" font-family="DejaVuSans" font-size="10.00">Storage::insertIdentity</text>
</a>
</g>
<!-- Node1&#45;&gt;Node3 -->
<g id="edge4" class="edge"><title>Node1&#45;&gt;Node3</title>
<path fill="none" stroke="midnightblue" d="M114.276,-23.6096C122.706,-22.5219 131.479,-21.3899 140.156,-20.2701"/>
<polygon fill="midnightblue" stroke="midnightblue" points="140.804,-23.7157 150.274,-18.9647 139.908,-16.7733 140.804,-23.7157"/>
</g>
</g>
</svg>
