<?xml version="1.0" encoding="UTF-8" standalone="no"?>
<!DOCTYPE svg PUBLIC "-//W3C//DTD SVG 1.1//EN"
 "http://www.w3.org/Graphics/SVG/1.1/DTD/svg11.dtd">
<!-- Generated by graphviz version 2.26.3 (20100126.1600)
 -->
<!-- Title: G Pages: 1 -->
<svg width="618pt" height="186pt"
 viewBox="0.00 0.00 618.00 186.00" xmlns="http://www.w3.org/2000/svg" xmlns:xlink="http://www.w3.org/1999/xlink">
<g id="graph1" class="graph" transform="scale(1 1) rotate(0) translate(4 182)">
<title>G</title>
<polygon fill="white" stroke="white" points="-4,5 -4,-182 615,-182 615,5 -4,5"/>
<!-- Node1 -->
<g id="node1" class="node"><title>Node1</title>
<polygon fill="#bfbfbf" stroke="black" points="0.5,-88.5 0.5,-109.5 137.5,-109.5 137.5,-88.5 0.5,-88.5"/>
<text text-anchor="middle" x="69" y="-96.5" font-family="DejaVuSans" font-size="10.00">CharaTrait::updateWidget</text>
</g>
<!-- Node2 -->
<g id="node3" class="node"><title>Node2</title>
<a xlink:href="class_chara_trait.html#a7cc9b10030c5e6d5030fb898506ee070" target="_top" xlink:title="CharaTrait::customText">
<polygon fill="white" stroke="black" points="174.5,-156.5 174.5,-177.5 299.5,-177.5 299.5,-156.5 174.5,-156.5"/>
<text text-anchor="middle" x="237" y="-164.5" font-family="DejaVuSans" font-size="10.00">CharaTrait::customText</text>
</a>
</g>
<!-- Node1&#45;&gt;Node2 -->
<g id="edge2" class="edge"><title>Node1&#45;&gt;Node2</title>
<path fill="none" stroke="midnightblue" d="M94.4292,-109.505C115.674,-118.259 146.778,-131.025 174,-142 182.736,-145.522 192.168,-149.286 201.007,-152.796"/>
<polygon fill="midnightblue" stroke="midnightblue" points="199.719,-156.05 210.305,-156.481 202.299,-149.542 199.719,-156.05"/>
</g>
<!-- Node3 -->
<g id="node5" class="node"><title>Node3</title>
<a xlink:href="class_chara_trait.html#acd1abb86d271f401b9856f2c8e172255" target="_top" xlink:title="CharaTrait::traitPtr">
<polygon fill="white" stroke="black" points="506,-98.5 506,-119.5 610,-119.5 610,-98.5 506,-98.5"/>
<text text-anchor="middle" x="558" y="-106.5" font-family="DejaVuSans" font-size="10.00">CharaTrait::traitPtr</text>
</a>
</g>
<!-- Node1&#45;&gt;Node3 -->
<g id="edge16" class="edge"><title>Node1&#45;&gt;Node3</title>
<path fill="none" stroke="midnightblue" d="M137.508,-100.401C232.673,-102.347 403.507,-105.841 495.41,-107.72"/>
<polygon fill="midnightblue" stroke="midnightblue" points="495.606,-111.225 505.676,-107.93 495.749,-104.226 495.606,-111.225"/>
</g>
<!-- Node4 -->
<g id="node7" class="node"><title>Node4</title>
<a xlink:href="class_chara_trait.html#abcfeed4a455c49246385c9bc2024ba15" target="_top" xlink:title="CharaTrait::setValue">
<polygon fill="white" stroke="black" points="181,-59.5 181,-80.5 293,-80.5 293,-59.5 181,-59.5"/>
<text text-anchor="middle" x="237" y="-67.5" font-family="DejaVuSans" font-size="10.00">CharaTrait::setValue</text>
</a>
</g>
<!-- Node1&#45;&gt;Node4 -->
<g id="edge6" class="edge"><title>Node1&#45;&gt;Node4</title>
<path fill="none" stroke="midnightblue" d="M130.127,-88.4483C143.36,-86.1641 157.413,-83.7383 170.829,-81.4223"/>
<polygon fill="midnightblue" stroke="midnightblue" points="171.682,-84.827 180.941,-79.6769 170.491,-77.929 171.682,-84.827"/>
</g>
<!-- Node6 -->
<g id="node12" class="node"><title>Node6</title>
<a xlink:href="class_chara_trait.html#adeed572acc2fa97468285bc3267e9cb8" target="_top" xlink:title="CharaTrait::value">
<polygon fill="white" stroke="black" points="355,-0.5 355,-21.5 451,-21.5 451,-0.5 355,-0.5"/>
<text text-anchor="middle" x="403" y="-8.5" font-family="DejaVuSans" font-size="10.00">CharaTrait::value</text>
</a>
</g>
<!-- Node1&#45;&gt;Node6 -->
<g id="edge18" class="edge"><title>Node1&#45;&gt;Node6</title>
<path fill="none" stroke="midnightblue" d="M87.7342,-88.3733C108.273,-77.1772 142.509,-59.8332 174,-50 230.666,-32.3059 297.879,-22.0657 344.775,-16.5575"/>
<polygon fill="midnightblue" stroke="midnightblue" points="345.218,-20.0297 354.757,-15.4203 344.425,-13.0747 345.218,-20.0297"/>
</g>
<!-- Node2&#45;&gt;Node3 -->
<g id="edge4" class="edge"><title>Node2&#45;&gt;Node3</title>
<path fill="none" stroke="midnightblue" d="M299.532,-164.564C346.862,-161.694 413.194,-155.47 470,-142 488.67,-137.573 508.756,-130.25 525.018,-123.626"/>
<polygon fill="midnightblue" stroke="midnightblue" points="526.723,-126.706 534.602,-119.623 524.025,-120.247 526.723,-126.706"/>
</g>
<!-- Node4&#45;&gt;Node3 -->
<g id="edge10" class="edge"><title>Node4&#45;&gt;Node3</title>
<path fill="none" stroke="midnightblue" d="M293.281,-76.8379C349.851,-83.7108 436.851,-94.281 495.525,-101.41"/>
<polygon fill="midnightblue" stroke="midnightblue" points="495.426,-104.923 505.775,-102.655 496.27,-97.9742 495.426,-104.923"/>
</g>
<!-- Node5 -->
<g id="node9" class="node"><title>Node5</title>
<a xlink:href="class_chara_trait.html#ab3935a94198f510d3de473a9a72692ac" target="_top" xlink:title="CharaTrait::traitChanged">
<polygon fill="white" stroke="black" points="336.5,-40.5 336.5,-61.5 469.5,-61.5 469.5,-40.5 336.5,-40.5"/>
<text text-anchor="middle" x="403" y="-48.5" font-family="DejaVuSans" font-size="10.00">CharaTrait::traitChanged</text>
</a>
</g>
<!-- Node4&#45;&gt;Node5 -->
<g id="edge8" class="edge"><title>Node4&#45;&gt;Node5</title>
<path fill="none" stroke="midnightblue" d="M293.2,-63.5675C303.786,-62.3558 315.024,-61.0696 326.115,-59.8001"/>
<polygon fill="midnightblue" stroke="midnightblue" points="326.699,-63.2562 336.236,-58.6416 325.903,-56.3016 326.699,-63.2562"/>
</g>
<!-- Node4&#45;&gt;Node6 -->
<g id="edge12" class="edge"><title>Node4&#45;&gt;Node6</title>
<path fill="none" stroke="midnightblue" d="M263.508,-59.4929C291.581,-48.3752 332.366,-32.2556 336,-31 342.398,-28.7893 349.188,-26.5926 355.896,-24.5089"/>
<polygon fill="midnightblue" stroke="midnightblue" points="357.064,-27.8119 365.609,-21.5482 355.023,-21.1161 357.064,-27.8119"/>
</g>
<!-- Node6&#45;&gt;Node3 -->
<g id="edge14" class="edge"><title>Node6&#45;&gt;Node3</title>
<path fill="none" stroke="midnightblue" d="M448.074,-21.5017C455.629,-24.0848 463.211,-27.2232 470,-31 498.467,-46.8359 525.635,-73.2334 542.064,-90.8745"/>
<polygon fill="midnightblue" stroke="midnightblue" points="539.501,-93.2586 548.823,-98.2943 544.676,-88.5446 539.501,-93.2586"/>
</g>
</g>
</svg>
