<?xml version="1.0" encoding="UTF-8" standalone="no"?>
<!DOCTYPE svg PUBLIC "-//W3C//DTD SVG 1.1//EN"
 "http://www.w3.org/Graphics/SVG/1.1/DTD/svg11.dtd">
<!-- Generated by graphviz version 2.26.3 (20100126.1600)
 -->
<!-- Title: G Pages: 1 -->
<svg width="150pt" height="262pt"
 viewBox="0.00 0.00 150.00 262.00" xmlns="http://www.w3.org/2000/svg" xmlns:xlink="http://www.w3.org/1999/xlink">
<g id="graph1" class="graph" transform="scale(1 1) rotate(0) translate(4 258)">
<title>G</title>
<polygon fill="white" stroke="white" points="-4,5 -4,-258 147,-258 147,5 -4,5"/>
<!-- Node1 -->
<g id="node1" class="node"><title>Node1</title>
<polygon fill="#bfbfbf" stroke="black" points="0,-0.5 0,-21.5 142,-21.5 142,-0.5 0,-0.5"/>
<text text-anchor="middle" x="71" y="-8.5" font-family="DejaVuSans" font-size="10.00">src.Error.ErrXmlOldVersion</text>
</g>
<!-- Node2 -->
<g id="node2" class="node"><title>Node2</title>
<a xlink:href="classsrc_1_1_error_1_1_err_xml_version.html" target="_top" xlink:title="Die XML&#45;Datei weist die falsche Version auf.">
<polygon fill="white" stroke="black" points="8,-58.5 8,-79.5 134,-79.5 134,-58.5 8,-58.5"/>
<text text-anchor="middle" x="71" y="-66.5" font-family="DejaVuSans" font-size="10.00">src.Error.ErrXmlVersion</text>
</a>
</g>
<!-- Node2&#45;&gt;Node1 -->
<g id="edge2" class="edge"><title>Node2&#45;&gt;Node1</title>
<path fill="none" stroke="midnightblue" d="M71,-48.1906C71,-39.1684 71,-28.9941 71,-21.5707"/>
<polygon fill="midnightblue" stroke="midnightblue" points="67.5001,-48.3619 71,-58.3619 74.5001,-48.3619 67.5001,-48.3619"/>
</g>
<!-- Node3 -->
<g id="node4" class="node"><title>Node3</title>
<a xlink:href="classsrc_1_1_error_1_1_err_xml.html" target="_top" xlink:title="Ausnahme beim Lesen der XML&#45;Datei.">
<polygon fill="white" stroke="black" points="25.5,-116.5 25.5,-137.5 116.5,-137.5 116.5,-116.5 25.5,-116.5"/>
<text text-anchor="middle" x="71" y="-124.5" font-family="DejaVuSans" font-size="10.00">src.Error.ErrXml</text>
</a>
</g>
<!-- Node3&#45;&gt;Node2 -->
<g id="edge4" class="edge"><title>Node3&#45;&gt;Node2</title>
<path fill="none" stroke="midnightblue" d="M71,-106.191C71,-97.1684 71,-86.9941 71,-79.5707"/>
<polygon fill="midnightblue" stroke="midnightblue" points="67.5001,-106.362 71,-116.362 74.5001,-106.362 67.5001,-106.362"/>
</g>
<!-- Node4 -->
<g id="node6" class="node"><title>Node4</title>
<a xlink:href="classsrc_1_1_error_1_1_err.html" target="_top" xlink:title="Basisklasse für die Ausnahmebehandlung.">
<polygon fill="white" stroke="black" points="34.5,-174.5 34.5,-195.5 107.5,-195.5 107.5,-174.5 34.5,-174.5"/>
<text text-anchor="middle" x="71" y="-182.5" font-family="DejaVuSans" font-size="10.00">src.Error.Err</text>
</a>
</g>
<!-- Node4&#45;&gt;Node3 -->
<g id="edge6" class="edge"><title>Node4&#45;&gt;Node3</title>
<path fill="none" stroke="midnightblue" d="M71,-164.191C71,-155.168 71,-144.994 71,-137.571"/>
<polygon fill="midnightblue" stroke="midnightblue" points="67.5001,-164.362 71,-174.362 74.5001,-164.362 67.5001,-164.362"/>
</g>
<!-- Node5 -->
<g id="node8" class="node"><title>Node5</title>
<a xlink:href="class_exception.html" target="_top" xlink:title="Exception">
<polygon fill="white" stroke="black" points="39.5,-232.5 39.5,-253.5 102.5,-253.5 102.5,-232.5 39.5,-232.5"/>
<text text-anchor="middle" x="71" y="-240.5" font-family="DejaVuSans" font-size="10.00">Exception</text>
</a>
</g>
<!-- Node5&#45;&gt;Node4 -->
<g id="edge8" class="edge"><title>Node5&#45;&gt;Node4</title>
<path fill="none" stroke="midnightblue" d="M71,-222.191C71,-213.168 71,-202.994 71,-195.571"/>
<polygon fill="midnightblue" stroke="midnightblue" points="67.5001,-222.362 71,-232.362 74.5001,-222.362 67.5001,-222.362"/>
</g>
</g>
</svg>
