<?xml version="1.0" encoding="UTF-8" standalone="no"?>
<!DOCTYPE svg PUBLIC "-//W3C//DTD SVG 1.1//EN"
 "http://www.w3.org/Graphics/SVG/1.1/DTD/svg11.dtd">
<!-- Generated by graphviz version 2.26.3 (20100126.1600)
 -->
<!-- Title: G Pages: 1 -->
<svg width="246pt" height="146pt"
 viewBox="0.00 0.00 246.00 146.00" xmlns="http://www.w3.org/2000/svg" xmlns:xlink="http://www.w3.org/1999/xlink">
<g id="graph1" class="graph" transform="scale(1 1) rotate(0) translate(4 142)">
<title>G</title>
<polygon fill="white" stroke="white" points="-4,5 -4,-142 243,-142 243,5 -4,5"/>
<!-- Node1 -->
<g id="node1" class="node"><title>Node1</title>
<polygon fill="#bfbfbf" stroke="black" points="0,-0.5 0,-21.5 238,-21.5 238,-0.5 0,-0.5"/>
<text text-anchor="middle" x="119" y="-8.5" font-family="DejaVuSans" font-size="10.00">src.Widgets.Components.CharaTrait.CharaTrait</text>
</g>
<!-- Node2 -->
<g id="node2" class="node"><title>Node2</title>
<a xlink:href="classsrc_1_1_widgets_1_1_components_1_1_trait_line_1_1_trait_line.html" target="_top" xlink:title="Die grafische Darstellung einer einzigen Eigenschaft auf dem Charakterbogen.">
<polygon fill="white" stroke="black" points="9,-58.5 9,-79.5 229,-79.5 229,-58.5 9,-58.5"/>
<text text-anchor="middle" x="119" y="-66.5" font-family="DejaVuSans" font-size="10.00">src.Widgets.Components.TraitLine.TraitLine</text>
</a>
</g>
<!-- Node2&#45;&gt;Node1 -->
<g id="edge2" class="edge"><title>Node2&#45;&gt;Node1</title>
<path fill="none" stroke="midnightblue" d="M119,-48.1906C119,-39.1684 119,-28.9941 119,-21.5707"/>
<polygon fill="midnightblue" stroke="midnightblue" points="115.5,-48.3619 119,-58.3619 122.5,-48.3619 115.5,-48.3619"/>
</g>
<!-- Node3 -->
<g id="node4" class="node"><title>Node3</title>
<polygon fill="white" stroke="#bfbfbf" points="91,-116.5 91,-137.5 147,-137.5 147,-116.5 91,-116.5"/>
<text text-anchor="middle" x="119" y="-124.5" font-family="DejaVuSans" font-size="10.00">QWidget</text>
</g>
<!-- Node3&#45;&gt;Node2 -->
<g id="edge4" class="edge"><title>Node3&#45;&gt;Node2</title>
<path fill="none" stroke="midnightblue" d="M119,-106.191C119,-97.1684 119,-86.9941 119,-79.5707"/>
<polygon fill="midnightblue" stroke="midnightblue" points="115.5,-106.362 119,-116.362 122.5,-106.362 115.5,-106.362"/>
</g>
</g>
</svg>
