<?xml version="1.0" encoding="UTF-8" standalone="no"?>
<!DOCTYPE svg PUBLIC "-//W3C//DTD SVG 1.1//EN"
 "http://www.w3.org/Graphics/SVG/1.1/DTD/svg11.dtd">
<!-- Generated by graphviz version 2.26.3 (20100126.1600)
 -->
<!-- Title: G Pages: 1 -->
<svg width="566pt" height="410pt"
 viewBox="0.00 0.00 566.00 410.00" xmlns="http://www.w3.org/2000/svg" xmlns:xlink="http://www.w3.org/1999/xlink">
<g id="graph1" class="graph" transform="scale(1 1) rotate(0) translate(4 406)">
<title>G</title>
<polygon fill="white" stroke="white" points="-4,5 -4,-406 563,-406 563,5 -4,5"/>
<!-- Node1 -->
<g id="node1" class="node"><title>Node1</title>
<polygon fill="#bfbfbf" stroke="black" points="0.5,-260.5 0.5,-281.5 113.5,-281.5 113.5,-260.5 0.5,-260.5"/>
<text text-anchor="middle" x="57" y="-268.5" font-family="DejaVuSans" font-size="10.00">Exception::message</text>
</g>
<!-- Node2 -->
<g id="node3" class="node"><title>Node2</title>
<a xlink:href="class_attribute_widget.html#ab498116d47f94a62e3b82eaa79976b36" target="_top" xlink:title="AttributeWidget::AttributeWidget">
<polygon fill="white" stroke="black" points="150.5,-380.5 150.5,-401.5 321.5,-401.5 321.5,-380.5 150.5,-380.5"/>
<text text-anchor="middle" x="236" y="-388.5" font-family="DejaVuSans" font-size="10.00">AttributeWidget::AttributeWidget</text>
</a>
</g>
<!-- Node1&#45;&gt;Node2 -->
<g id="edge2" class="edge"><title>Node1&#45;&gt;Node2</title>
<path fill="none" stroke="midnightblue" d="M69.4849,-290.229C85.3807,-313.104 115.021,-350.736 150,-371 156.632,-374.842 163.954,-377.946 171.443,-380.454"/>
<polygon fill="midnightblue" stroke="midnightblue" points="72.2189,-288.024 63.7193,-281.698 66.4193,-291.943 72.2189,-288.024"/>
</g>
<!-- Node3 -->
<g id="node5" class="node"><title>Node3</title>
<a xlink:href="class_trait.html#a8a1b0f1a3a2388e4f7c2d85b7e95fc7e" target="_top" xlink:title="Trait::checkPrerequisites">
<polygon fill="white" stroke="black" points="170,-340.5 170,-361.5 302,-361.5 302,-340.5 170,-340.5"/>
<text text-anchor="middle" x="236" y="-348.5" font-family="DejaVuSans" font-size="10.00">Trait::checkPrerequisites</text>
</a>
</g>
<!-- Node1&#45;&gt;Node3 -->
<g id="edge4" class="edge"><title>Node1&#45;&gt;Node3</title>
<path fill="none" stroke="midnightblue" d="M78.1501,-287.686C96.265,-301.207 123.545,-319.792 150,-331 158.892,-334.767 168.616,-337.892 178.224,-340.461"/>
<polygon fill="midnightblue" stroke="midnightblue" points="80.1141,-284.782 70.0373,-281.51 75.874,-290.352 80.1141,-284.782"/>
</g>
<!-- Node4 -->
<g id="node7" class="node"><title>Node4</title>
<a xlink:href="class_flaw_widget.html#af387a892373d07ce615ad19d6da45448" target="_top" xlink:title="FlawWidget::FlawWidget">
<polygon fill="white" stroke="black" points="172,-300.5 172,-321.5 300,-321.5 300,-300.5 172,-300.5"/>
<text text-anchor="middle" x="236" y="-308.5" font-family="DejaVuSans" font-size="10.00">FlawWidget::FlawWidget</text>
</a>
</g>
<!-- Node1&#45;&gt;Node4 -->
<g id="edge6" class="edge"><title>Node1&#45;&gt;Node4</title>
<path fill="none" stroke="midnightblue" d="M113.806,-283.694C138.023,-289.106 165.941,-295.344 188.974,-300.491"/>
<polygon fill="midnightblue" stroke="midnightblue" points="114.553,-280.275 104.03,-281.51 113.026,-287.106 114.553,-280.275"/>
</g>
<!-- Node5 -->
<g id="node9" class="node"><title>Node5</title>
<a xlink:href="class_merit_widget.html#a3f99dd98cf0c027d9e5a65a6a82d88c8" target="_top" xlink:title="MeritWidget::MeritWidget">
<polygon fill="white" stroke="black" points="168.5,-260.5 168.5,-281.5 303.5,-281.5 303.5,-260.5 168.5,-260.5"/>
<text text-anchor="middle" x="236" y="-268.5" font-family="DejaVuSans" font-size="10.00">MeritWidget::MeritWidget</text>
</a>
</g>
<!-- Node1&#45;&gt;Node5 -->
<g id="edge8" class="edge"><title>Node1&#45;&gt;Node5</title>
<path fill="none" stroke="midnightblue" d="M124.036,-271C138.555,-271 153.917,-271 168.455,-271"/>
<polygon fill="midnightblue" stroke="midnightblue" points="123.637,-267.5 113.637,-271 123.637,-274.5 123.637,-267.5"/>
</g>
<!-- Node6 -->
<g id="node11" class="node"><title>Node6</title>
<a xlink:href="class_power_widget.html#a07bb0283ac179fda85ae3f2e38f17b71" target="_top" xlink:title="PowerWidget::PowerWidget">
<polygon fill="white" stroke="black" points="164,-220.5 164,-241.5 308,-241.5 308,-220.5 164,-220.5"/>
<text text-anchor="middle" x="236" y="-228.5" font-family="DejaVuSans" font-size="10.00">PowerWidget::PowerWidget</text>
</a>
</g>
<!-- Node1&#45;&gt;Node6 -->
<g id="edge10" class="edge"><title>Node1&#45;&gt;Node6</title>
<path fill="none" stroke="midnightblue" d="M113.806,-258.306C138.023,-252.894 165.941,-246.656 188.974,-241.509"/>
<polygon fill="midnightblue" stroke="midnightblue" points="113.026,-254.894 104.03,-260.49 114.553,-261.725 113.026,-254.894"/>
</g>
<!-- Node7 -->
<g id="node13" class="node"><title>Node7</title>
<a xlink:href="class_read_xml_character.html#a5857936ddba1793fd089d9f169ed73de" target="_top" xlink:title="ReadXmlCharacter::read">
<polygon fill="white" stroke="black" points="169.5,-180.5 169.5,-201.5 302.5,-201.5 302.5,-180.5 169.5,-180.5"/>
<text text-anchor="middle" x="236" y="-188.5" font-family="DejaVuSans" font-size="10.00">ReadXmlCharacter::read</text>
</a>
</g>
<!-- Node1&#45;&gt;Node7 -->
<g id="edge12" class="edge"><title>Node1&#45;&gt;Node7</title>
<path fill="none" stroke="midnightblue" d="M78.1501,-254.314C96.265,-240.793 123.545,-222.208 150,-211 158.892,-207.233 168.616,-204.108 178.224,-201.539"/>
<polygon fill="midnightblue" stroke="midnightblue" points="75.874,-251.648 70.0373,-260.49 80.1141,-257.218 75.874,-251.648"/>
</g>
<!-- Node8 -->
<g id="node15" class="node"><title>Node8</title>
<a xlink:href="class_exception.html#a16b5202a71fe00abb2c278adca10b415" target="_top" xlink:title="Exception::setMessage">
<polygon fill="white" stroke="black" points="172.5,-140.5 172.5,-161.5 299.5,-161.5 299.5,-140.5 172.5,-140.5"/>
<text text-anchor="middle" x="236" y="-148.5" font-family="DejaVuSans" font-size="10.00">Exception::setMessage</text>
</a>
</g>
<!-- Node1&#45;&gt;Node8 -->
<g id="edge14" class="edge"><title>Node1&#45;&gt;Node8</title>
<path fill="none" stroke="midnightblue" d="M69.4849,-251.771C85.3807,-228.896 115.021,-191.264 150,-171 156.897,-167.004 164.541,-163.807 172.343,-161.248"/>
<polygon fill="midnightblue" stroke="midnightblue" points="66.4193,-250.057 63.7193,-260.302 72.2189,-253.976 66.4193,-250.057"/>
</g>
<!-- Node9 -->
<g id="node17" class="node"><title>Node9</title>
<a xlink:href="classe_entry.html#af2bff1ad646f97d52c00bf8569548a3b" target="_top" xlink:title="eEntry::eEntry">
<polygon fill="white" stroke="black" points="416.5,-280.5 416.5,-301.5 499.5,-301.5 499.5,-280.5 416.5,-280.5"/>
<text text-anchor="middle" x="458" y="-288.5" font-family="DejaVuSans" font-size="10.00">eEntry::eEntry</text>
</a>
</g>
<!-- Node8&#45;&gt;Node9 -->
<g id="edge16" class="edge"><title>Node8&#45;&gt;Node9</title>
<path fill="none" stroke="midnightblue" d="M309.014,-162.195C313.696,-164.619 318.091,-167.524 322,-171 357.298,-202.39 322.218,-240.162 358,-271 373.96,-284.754 396.69,-290.043 416.447,-291.765"/>
<polygon fill="midnightblue" stroke="midnightblue" points="310.272,-158.925 299.709,-158.102 307.454,-165.332 310.272,-158.925"/>
</g>
<!-- Node10 -->
<g id="node19" class="node"><title>Node10</title>
<a xlink:href="classe_file.html#a85a19ce77ddf85fb9f0225be74c6aaa8" target="_top" xlink:title="eFile::eFile">
<polygon fill="white" stroke="black" points="425.5,-240.5 425.5,-261.5 490.5,-261.5 490.5,-240.5 425.5,-240.5"/>
<text text-anchor="middle" x="458" y="-248.5" font-family="DejaVuSans" font-size="10.00">eFile::eFile</text>
</a>
</g>
<!-- Node8&#45;&gt;Node10 -->
<g id="edge18" class="edge"><title>Node8&#45;&gt;Node10</title>
<path fill="none" stroke="midnightblue" d="M309.171,-163.496C313.7,-165.624 318.027,-168.107 322,-171 347.139,-189.307 332.58,-213.086 358,-231 377.538,-244.769 404.278,-249.577 425.192,-251.047"/>
<polygon fill="midnightblue" stroke="midnightblue" points="310.217,-160.143 299.636,-159.604 307.572,-166.623 310.217,-160.143"/>
</g>
<!-- Node11 -->
<g id="node21" class="node"><title>Node11</title>
<a xlink:href="classe_file_not_deleted.html#a9e586fbfbf59382683a5a7be2f5632d8" target="_top" xlink:title="eFileNotDeleted::eFileNotDeleted">
<polygon fill="white" stroke="black" points="371,-200.5 371,-221.5 545,-221.5 545,-200.5 371,-200.5"/>
<text text-anchor="middle" x="458" y="-208.5" font-family="DejaVuSans" font-size="10.00">eFileNotDeleted::eFileNotDeleted</text>
</a>
</g>
<!-- Node8&#45;&gt;Node11 -->
<g id="edge20" class="edge"><title>Node8&#45;&gt;Node11</title>
<path fill="none" stroke="midnightblue" d="M301.837,-164.306C308.727,-166.292 315.561,-168.519 322,-171 339.079,-177.581 340.82,-184.685 358,-191 368.303,-194.787 379.481,-197.913 390.506,-200.476"/>
<polygon fill="midnightblue" stroke="midnightblue" points="302.308,-160.808 291.74,-161.569 300.476,-167.564 302.308,-160.808"/>
</g>
<!-- Node12 -->
<g id="node23" class="node"><title>Node12</title>
<a xlink:href="classe_missing_user_entry.html#aceba43c80e53b7b00c6c1362df490226" target="_top" xlink:title="eMissingUserEntry::eMissingUserEntry">
<polygon fill="white" stroke="black" points="358.5,-160.5 358.5,-181.5 557.5,-181.5 557.5,-160.5 358.5,-160.5"/>
<text text-anchor="middle" x="458" y="-168.5" font-family="DejaVuSans" font-size="10.00">eMissingUserEntry::eMissingUserEntry</text>
</a>
</g>
<!-- Node8&#45;&gt;Node12 -->
<g id="edge22" class="edge"><title>Node8&#45;&gt;Node12</title>
<path fill="none" stroke="midnightblue" d="M309.683,-157.638C325.269,-159.042 341.965,-160.546 358.33,-162.021"/>
<polygon fill="midnightblue" stroke="midnightblue" points="309.89,-154.143 299.616,-156.731 309.262,-161.114 309.89,-154.143"/>
</g>
<!-- Node13 -->
<g id="node25" class="node"><title>Node13</title>
<a xlink:href="classe_not_a_number.html#a6dabec017857726ad6400354871a8aca" target="_top" xlink:title="eNotANumber::eNotANumber">
<polygon fill="white" stroke="black" points="377.5,-120.5 377.5,-141.5 538.5,-141.5 538.5,-120.5 377.5,-120.5"/>
<text text-anchor="middle" x="458" y="-128.5" font-family="DejaVuSans" font-size="10.00">eNotANumber::eNotANumber</text>
</a>
</g>
<!-- Node8&#45;&gt;Node13 -->
<g id="edge24" class="edge"><title>Node8&#45;&gt;Node13</title>
<path fill="none" stroke="midnightblue" d="M309.741,-144.357C331.423,-142.403 355.251,-140.257 377.342,-138.267"/>
<polygon fill="midnightblue" stroke="midnightblue" points="309.262,-140.886 299.616,-145.269 309.89,-147.857 309.262,-140.886"/>
</g>
<!-- Node14 -->
<g id="node27" class="node"><title>Node14</title>
<a xlink:href="classe_number.html#a27c099a9af640d009a4e25f7454252bf" target="_top" xlink:title="eNumber::eNumber">
<polygon fill="white" stroke="black" points="401.5,-80.5 401.5,-101.5 514.5,-101.5 514.5,-80.5 401.5,-80.5"/>
<text text-anchor="middle" x="458" y="-88.5" font-family="DejaVuSans" font-size="10.00">eNumber::eNumber</text>
</a>
</g>
<!-- Node8&#45;&gt;Node14 -->
<g id="edge26" class="edge"><title>Node8&#45;&gt;Node14</title>
<path fill="none" stroke="midnightblue" d="M274.521,-137.061C298.356,-128.765 329.706,-118.439 358,-111 371.955,-107.331 387.16,-103.971 401.405,-101.095"/>
<polygon fill="midnightblue" stroke="midnightblue" points="273.071,-133.861 264.797,-140.478 275.391,-140.465 273.071,-133.861"/>
</g>
<!-- Node15 -->
<g id="node29" class="node"><title>Node15</title>
<a xlink:href="classe_user_entry.html#a8865bccf1cf63218bd651713b777507d" target="_top" xlink:title="eUserEntry::eUserEntry">
<polygon fill="white" stroke="black" points="394,-40.5 394,-61.5 522,-61.5 522,-40.5 394,-40.5"/>
<text text-anchor="middle" x="458" y="-48.5" font-family="DejaVuSans" font-size="10.00">eUserEntry::eUserEntry</text>
</a>
</g>
<!-- Node8&#45;&gt;Node15 -->
<g id="edge28" class="edge"><title>Node8&#45;&gt;Node15</title>
<path fill="none" stroke="midnightblue" d="M256.658,-133.844C279.86,-115.475 319.346,-86.8392 358,-71 369.304,-66.3679 381.779,-62.7799 393.973,-60.0096"/>
<polygon fill="midnightblue" stroke="midnightblue" points="254.192,-131.336 248.599,-140.333 258.583,-136.788 254.192,-131.336"/>
</g>
<!-- Node16 -->
<g id="node31" class="node"><title>Node16</title>
<a xlink:href="class_exception.html#aeb292f06dab004c0d314c0375dc5ac24" target="_top" xlink:title="Exception::Exception">
<polygon fill="white" stroke="black" points="400,-0.5 400,-21.5 516,-21.5 516,-0.5 400,-0.5"/>
<text text-anchor="middle" x="458" y="-8.5" font-family="DejaVuSans" font-size="10.00">Exception::Exception</text>
</a>
</g>
<!-- Node8&#45;&gt;Node16 -->
<g id="edge30" class="edge"><title>Node8&#45;&gt;Node16</title>
<path fill="none" stroke="midnightblue" d="M249.485,-132.031C269.771,-105.022 310.829,-55.9949 358,-31 370.828,-24.2025 385.699,-19.7076 399.986,-16.7377"/>
<polygon fill="midnightblue" stroke="midnightblue" points="246.524,-130.149 243.422,-140.279 252.165,-134.294 246.524,-130.149"/>
</g>
</g>
</svg>
