<?xml version="1.0" encoding="UTF-8" standalone="no"?>
<!DOCTYPE svg PUBLIC "-//W3C//DTD SVG 1.1//EN"
 "http://www.w3.org/Graphics/SVG/1.1/DTD/svg11.dtd">
<!-- Generated by graphviz version 2.26.3 (20100126.1600)
 -->
<!-- Title: G Pages: 1 -->
<svg width="826pt" height="335pt"
 viewBox="0.00 0.00 826.00 334.90" xmlns="http://www.w3.org/2000/svg" xmlns:xlink="http://www.w3.org/1999/xlink">
<g id="graph1" class="graph" transform="scale(1 1) rotate(0) translate(4 330.896)">
<title>G</title>
<polygon fill="white" stroke="white" points="-4,5 -4,-330.896 823,-330.896 823,5 -4,5"/>
<!-- Node1 -->
<g id="node1" class="node"><title>Node1</title>
<polygon fill="#bfbfbf" stroke="black" points="0,-157.5 0,-178.5 104,-178.5 104,-157.5 0,-157.5"/>
<text text-anchor="middle" x="52" y="-165.5" font-family="DejaVuSans" font-size="10.00">CheckTrait::traitPtr</text>
</g>
<!-- Node2 -->
<g id="node3" class="node"><title>Node2</title>
<a xlink:href="class_check_trait.html#a4ec4f95d6f1ff25331964d85393f0f3f" target="_top" xlink:title="CheckTrait::customText">
<polygon fill="white" stroke="black" points="142,-277.5 142,-298.5 268,-298.5 268,-277.5 142,-277.5"/>
<text text-anchor="middle" x="205" y="-285.5" font-family="DejaVuSans" font-size="10.00">CheckTrait::customText</text>
</a>
</g>
<!-- Node1&#45;&gt;Node2 -->
<g id="edge2" class="edge"><title>Node1&#45;&gt;Node2</title>
<path fill="none" stroke="midnightblue" d="M64.0413,-187.196C79.1323,-209.725 107.054,-246.705 140,-268 145.85,-271.781 152.457,-274.882 159.159,-277.415"/>
<polygon fill="midnightblue" stroke="midnightblue" points="66.95,-185.249 58.5549,-178.786 61.0872,-189.074 66.95,-185.249"/>
</g>
<!-- Node3 -->
<g id="node5" class="node"><title>Node3</title>
<a xlink:href="class_check_trait.html#a894ea83addabc03a7a6ca5a167fe3e49" target="_top" xlink:title="CheckTrait::updateWidget">
<polygon fill="white" stroke="black" points="309.5,-195.5 309.5,-216.5 446.5,-216.5 446.5,-195.5 309.5,-195.5"/>
<text text-anchor="middle" x="378" y="-203.5" font-family="DejaVuSans" font-size="10.00">CheckTrait::updateWidget</text>
</a>
</g>
<!-- Node1&#45;&gt;Node3 -->
<g id="edge30" class="edge"><title>Node1&#45;&gt;Node3</title>
<path fill="none" stroke="midnightblue" d="M57.8119,-188.365C68.2372,-220.587 93.4947,-282.302 140,-308 190.571,-335.944 216.31,-329.346 270,-308 317.213,-289.229 355.717,-238.946 370.958,-216.765"/>
<polygon fill="midnightblue" stroke="midnightblue" points="61.1146,-187.196 54.8358,-178.662 54.4223,-189.249 61.1146,-187.196"/>
</g>
<!-- Node5 -->
<g id="node9" class="node"><title>Node5</title>
<a xlink:href="class_check_trait.html#a435fdd90ff430b86bdcd0da51c3e61e0" target="_top" xlink:title="CheckTrait::setCategory">
<polygon fill="white" stroke="black" points="140,-237.5 140,-258.5 270,-258.5 270,-237.5 140,-237.5"/>
<text text-anchor="middle" x="205" y="-245.5" font-family="DejaVuSans" font-size="10.00">CheckTrait::setCategory</text>
</a>
</g>
<!-- Node1&#45;&gt;Node5 -->
<g id="edge8" class="edge"><title>Node1&#45;&gt;Node5</title>
<path fill="none" stroke="midnightblue" d="M73.1401,-185.103C90.3093,-198.311 115.595,-216.257 140,-228 147.554,-231.635 155.918,-234.792 164.061,-237.456"/>
<polygon fill="midnightblue" stroke="midnightblue" points="74.9796,-182.098 64.9491,-178.686 70.6628,-187.609 74.9796,-182.098"/>
</g>
<!-- Node6 -->
<g id="node11" class="node"><title>Node6</title>
<a xlink:href="class_check_trait.html#aaa686b2552adabe22ccacc80b58adcfd" target="_top" xlink:title="CheckTrait::setCustom">
<polygon fill="white" stroke="black" points="143,-197.5 143,-218.5 267,-218.5 267,-197.5 143,-197.5"/>
<text text-anchor="middle" x="205" y="-205.5" font-family="DejaVuSans" font-size="10.00">CheckTrait::setCustom</text>
</a>
</g>
<!-- Node1&#45;&gt;Node6 -->
<g id="edge10" class="edge"><title>Node1&#45;&gt;Node6</title>
<path fill="none" stroke="midnightblue" d="M101.94,-181.056C122.312,-186.382 145.555,-192.459 164.804,-197.491"/>
<polygon fill="midnightblue" stroke="midnightblue" points="102.759,-177.653 92.1989,-178.51 100.988,-184.425 102.759,-177.653"/>
</g>
<!-- Node7 -->
<g id="node13" class="node"><title>Node7</title>
<a xlink:href="class_check_trait.html#a70a2f81f0fc8e246b3296583ec853b4a" target="_top" xlink:title="CheckTrait::setCustomText">
<polygon fill="white" stroke="black" points="306.5,-0.5 306.5,-21.5 449.5,-21.5 449.5,-0.5 306.5,-0.5"/>
<text text-anchor="middle" x="378" y="-8.5" font-family="DejaVuSans" font-size="10.00">CheckTrait::setCustomText</text>
</a>
</g>
<!-- Node1&#45;&gt;Node7 -->
<g id="edge12" class="edge"><title>Node1&#45;&gt;Node7</title>
<path fill="none" stroke="midnightblue" d="M60.8497,-148.094C73.9709,-121.095 101.273,-73.5426 140,-50 190,-19.6044 256.335,-10.7724 306.271,-9.01899"/>
<polygon fill="midnightblue" stroke="midnightblue" points="57.5902,-146.802 56.5209,-157.342 63.9301,-149.769 57.5902,-146.802"/>
</g>
<!-- Node8 -->
<g id="node16" class="node"><title>Node8</title>
<a xlink:href="class_check_trait.html#a13434736aa94965e0b2d1fe87ead5c06" target="_top" xlink:title="CheckTrait::setSpecies">
<polygon fill="white" stroke="black" points="143,-117.5 143,-138.5 267,-138.5 267,-117.5 143,-117.5"/>
<text text-anchor="middle" x="205" y="-125.5" font-family="DejaVuSans" font-size="10.00">CheckTrait::setSpecies</text>
</a>
</g>
<!-- Node1&#45;&gt;Node8 -->
<g id="edge16" class="edge"><title>Node1&#45;&gt;Node8</title>
<path fill="none" stroke="midnightblue" d="M101.94,-154.944C122.312,-149.618 145.555,-143.541 164.804,-138.509"/>
<polygon fill="midnightblue" stroke="midnightblue" points="100.988,-151.575 92.1989,-157.49 102.759,-158.347 100.988,-151.575"/>
</g>
<!-- Node9 -->
<g id="node18" class="node"><title>Node9</title>
<a xlink:href="class_check_trait.html#ac8c0ce9b6169d62ad48af359efcebf3f" target="_top" xlink:title="CheckTrait::setType">
<polygon fill="white" stroke="black" points="151.5,-77.5 151.5,-98.5 258.5,-98.5 258.5,-77.5 151.5,-77.5"/>
<text text-anchor="middle" x="205" y="-85.5" font-family="DejaVuSans" font-size="10.00">CheckTrait::setType</text>
</a>
</g>
<!-- Node1&#45;&gt;Node9 -->
<g id="edge18" class="edge"><title>Node1&#45;&gt;Node9</title>
<path fill="none" stroke="midnightblue" d="M73.1401,-150.897C90.3093,-137.689 115.595,-119.743 140,-108 147.554,-104.365 155.918,-101.208 164.061,-98.5438"/>
<polygon fill="midnightblue" stroke="midnightblue" points="70.6628,-148.391 64.9491,-157.314 74.9796,-153.902 70.6628,-148.391"/>
</g>
<!-- Node10 -->
<g id="node20" class="node"><title>Node10</title>
<a xlink:href="class_check_trait.html#a9073e7f8bbac8c351bf829b23a9fc850" target="_top" xlink:title="CheckTrait::setValue">
<polygon fill="white" stroke="black" points="321.5,-118.5 321.5,-139.5 434.5,-139.5 434.5,-118.5 321.5,-118.5"/>
<text text-anchor="middle" x="378" y="-126.5" font-family="DejaVuSans" font-size="10.00">CheckTrait::setValue</text>
</a>
</g>
<!-- Node1&#45;&gt;Node10 -->
<g id="edge20" class="edge"><title>Node1&#45;&gt;Node10</title>
<path fill="none" stroke="midnightblue" d="M62.4342,-148.17C76.4052,-124.017 103.699,-84.4106 140,-68 192.648,-44.1996 214.121,-53.3099 270,-68 307.279,-77.8004 345.228,-103.719 364.684,-118.424"/>
<polygon fill="midnightblue" stroke="midnightblue" points="59.2294,-146.732 57.4295,-157.172 65.3476,-150.133 59.2294,-146.732"/>
</g>
<!-- Node13 -->
<g id="node29" class="node"><title>Node13</title>
<a xlink:href="class_check_trait.html#a4399a810312044b74f6227955a1879a9" target="_top" xlink:title="CheckTrait::value">
<polygon fill="white" stroke="black" points="156.5,-157.5 156.5,-178.5 253.5,-178.5 253.5,-157.5 156.5,-157.5"/>
<text text-anchor="middle" x="205" y="-165.5" font-family="DejaVuSans" font-size="10.00">CheckTrait::value</text>
</a>
</g>
<!-- Node1&#45;&gt;Node13 -->
<g id="edge32" class="edge"><title>Node1&#45;&gt;Node13</title>
<path fill="none" stroke="midnightblue" d="M114.29,-168C128.311,-168 142.991,-168 156.357,-168"/>
<polygon fill="midnightblue" stroke="midnightblue" points="114.226,-164.5 104.226,-168 114.226,-171.5 114.226,-164.5"/>
</g>
<!-- Node2&#45;&gt;Node3 -->
<g id="edge4" class="edge"><title>Node2&#45;&gt;Node3</title>
<path fill="none" stroke="midnightblue" d="M254.098,-274.181C259.527,-272.273 264.924,-270.205 270,-268 304.305,-253.097 341.566,-230.022 362.122,-216.626"/>
<polygon fill="midnightblue" stroke="midnightblue" points="252.728,-270.948 244.352,-277.435 254.946,-277.588 252.728,-270.948"/>
</g>
<!-- Node4 -->
<g id="node7" class="node"><title>Node4</title>
<a xlink:href="class_check_trait.html#a0e37d389c1ccaf32a2157463d3c055c6" target="_top" xlink:title="CheckTrait::CheckTrait">
<polygon fill="white" stroke="black" points="698,-117.5 698,-138.5 818,-138.5 818,-117.5 698,-117.5"/>
<text text-anchor="middle" x="758" y="-125.5" font-family="DejaVuSans" font-size="10.00">CheckTrait::CheckTrait</text>
</a>
</g>
<!-- Node3&#45;&gt;Node4 -->
<g id="edge6" class="edge"><title>Node3&#45;&gt;Node4</title>
<path fill="none" stroke="midnightblue" d="M456.684,-199.428C514.222,-193.47 593.798,-182.824 662,-165 687.576,-158.316 715.666,-146.994 734.815,-138.63"/>
<polygon fill="midnightblue" stroke="midnightblue" points="456.163,-195.963 446.566,-200.451 456.867,-202.927 456.163,-195.963"/>
</g>
<!-- Node7&#45;&gt;Node4 -->
<g id="edge14" class="edge"><title>Node7&#45;&gt;Node4</title>
<path fill="none" stroke="midnightblue" d="M459.912,-20.0137C517.848,-28.2244 596.545,-43.1395 662,-69 693.476,-81.4357 726.251,-104.008 744.196,-117.337"/>
<polygon fill="midnightblue" stroke="midnightblue" points="460.092,-16.5056 449.708,-18.6064 459.136,-23.4399 460.092,-16.5056"/>
</g>
<!-- Node10&#45;&gt;Node4 -->
<g id="edge22" class="edge"><title>Node10&#45;&gt;Node4</title>
<path fill="none" stroke="midnightblue" d="M434.558,-141.489C451.057,-144.584 469.174,-147.455 486,-149 563.895,-156.152 584.231,-157.407 662,-149 680.997,-146.946 701.747,-142.67 719.08,-138.509"/>
<polygon fill="midnightblue" stroke="midnightblue" points="435.004,-138.01 424.521,-139.543 433.672,-144.882 435.004,-138.01"/>
</g>
<!-- Node11 -->
<g id="node23" class="node"><title>Node11</title>
<a xlink:href="class_flaw_widget.html#af387a892373d07ce615ad19d6da45448" target="_top" xlink:title="FlawWidget::FlawWidget">
<polygon fill="white" stroke="black" points="510,-118.5 510,-139.5 638,-139.5 638,-118.5 510,-118.5"/>
<text text-anchor="middle" x="574" y="-126.5" font-family="DejaVuSans" font-size="10.00">FlawWidget::FlawWidget</text>
</a>
</g>
<!-- Node10&#45;&gt;Node11 -->
<g id="edge24" class="edge"><title>Node10&#45;&gt;Node11</title>
<path fill="none" stroke="midnightblue" d="M444.823,-129C465.852,-129 489.018,-129 509.856,-129"/>
<polygon fill="midnightblue" stroke="midnightblue" points="444.691,-125.5 434.691,-129 444.691,-132.5 444.691,-125.5"/>
</g>
<!-- Node12 -->
<g id="node25" class="node"><title>Node12</title>
<a xlink:href="class_check_trait.html#a38b03dfbcc01dbb65a9b345423e232db" target="_top" xlink:title="CheckTrait::hideTraitIfNotAvailable">
<polygon fill="white" stroke="black" points="486,-78.5 486,-99.5 662,-99.5 662,-78.5 486,-78.5"/>
<text text-anchor="middle" x="574" y="-86.5" font-family="DejaVuSans" font-size="10.00">CheckTrait::hideTraitIfNotAvailable</text>
</a>
</g>
<!-- Node10&#45;&gt;Node12 -->
<g id="edge26" class="edge"><title>Node10&#45;&gt;Node12</title>
<path fill="none" stroke="midnightblue" d="M439.495,-116.45C466.174,-111.005 497.063,-104.701 522.507,-99.5087"/>
<polygon fill="midnightblue" stroke="midnightblue" points="438.595,-113.061 429.497,-118.49 439.995,-119.92 438.595,-113.061"/>
</g>
<!-- Node12&#45;&gt;Node4 -->
<g id="edge28" class="edge"><title>Node12&#45;&gt;Node4</title>
<path fill="none" stroke="midnightblue" d="M633.861,-101.688C657.885,-106.78 685.253,-112.581 708.167,-117.438"/>
<polygon fill="midnightblue" stroke="midnightblue" points="634.301,-98.2036 623.793,-99.554 632.85,-105.051 634.301,-98.2036"/>
</g>
<!-- Node13&#45;&gt;Node3 -->
<g id="edge36" class="edge"><title>Node13&#45;&gt;Node3</title>
<path fill="none" stroke="midnightblue" d="M262.988,-180.737C284.78,-185.524 309.291,-190.908 330.068,-195.472"/>
<polygon fill="midnightblue" stroke="midnightblue" points="263.708,-177.312 253.19,-178.585 262.206,-184.149 263.708,-177.312"/>
</g>
<!-- Node13&#45;&gt;Node10 -->
<g id="edge34" class="edge"><title>Node13&#45;&gt;Node10</title>
<path fill="none" stroke="midnightblue" d="M261.585,-155.244C284.1,-150.168 309.698,-144.398 331.146,-139.562"/>
<polygon fill="midnightblue" stroke="midnightblue" points="260.802,-151.832 251.816,-157.446 262.341,-158.661 260.802,-151.832"/>
</g>
</g>
</svg>
