<?xml version="1.0" encoding="UTF-8" standalone="no"?>
<!DOCTYPE svg PUBLIC "-//W3C//DTD SVG 1.1//EN"
 "http://www.w3.org/Graphics/SVG/1.1/DTD/svg11.dtd">
<!-- Generated by graphviz version 2.26.3 (20100126.1600)
 -->
<!-- Title: G Pages: 1 -->
<svg width="329pt" height="232pt"
 viewBox="0.00 0.00 329.00 232.00" xmlns="http://www.w3.org/2000/svg" xmlns:xlink="http://www.w3.org/1999/xlink">
<g id="graph1" class="graph" transform="scale(1 1) rotate(0) translate(4 228)">
<title>G</title>
<polygon fill="white" stroke="white" points="-4,5 -4,-228 326,-228 326,5 -4,5"/>
<!-- Node1 -->
<g id="node1" class="node"><title>Node1</title>
<polygon fill="#bfbfbf" stroke="black" points="0,-0.5 0,-21.5 248,-21.5 248,-0.5 0,-0.5"/>
<text text-anchor="middle" x="124" y="-8.5" font-family="DejaVuSans" font-size="10.00">src.Storage.StorageCharacter.StorageCharacter</text>
</g>
<!-- Node2 -->
<g id="node2" class="node"><title>Node2</title>
<polygon fill="white" stroke="#bfbfbf" points="31.5,-202.5 31.5,-223.5 86.5,-223.5 86.5,-202.5 31.5,-202.5"/>
<text text-anchor="middle" x="59" y="-210.5" font-family="DejaVuSans" font-size="10.00">QObject</text>
</g>
<!-- Node2&#45;&gt;Node1 -->
<g id="edge2" class="edge"><title>Node2&#45;&gt;Node1</title>
<path fill="none" stroke="midnightblue" d="M65.5325,-192.699C79.1188,-150.477 110.024,-54.4316 120.473,-21.9612"/>
<polygon fill="midnightblue" stroke="midnightblue" points="62.1346,-191.833 62.4032,-202.424 68.7981,-193.977 62.1346,-191.833"/>
</g>
<!-- Node3 -->
<g id="node4" class="node"><title>Node3</title>
<polygon fill="white" stroke="#bfbfbf" points="103.5,-202.5 103.5,-223.5 144.5,-223.5 144.5,-202.5 103.5,-202.5"/>
<text text-anchor="middle" x="124" y="-210.5" font-family="DejaVuSans" font-size="10.00">tuple</text>
</g>
<!-- Node3&#45;&gt;Node1 -->
<g id="edge4" class="edge"><title>Node3&#45;&gt;Node1</title>
<path fill="none" stroke="#9a32cd" stroke-dasharray="5,2" d="M124,-192.158C124,-149.662 124,-54.2937 124,-21.9612"/>
<polygon fill="#9a32cd" stroke="#9a32cd" points="120.5,-192.424 124,-202.424 127.5,-192.424 120.5,-192.424"/>
<text text-anchor="middle" x="180.5" y="-174.5" font-family="DejaVuSans" font-size="10.00">organisationChanged</text>
<text text-anchor="middle" x="180.5" y="-161.5" font-family="DejaVuSans" font-size="10.00">dateBecomingChanged</text>
<text text-anchor="middle" x="180.5" y="-148.5" font-family="DejaVuSans" font-size="10.00">magicalToolChanged</text>
<text text-anchor="middle" x="180.5" y="-135.5" font-family="DejaVuSans" font-size="10.00">weightChanged</text>
<text text-anchor="middle" x="180.5" y="-122.5" font-family="DejaVuSans" font-size="10.00">speciesChanged</text>
<text text-anchor="middle" x="180.5" y="-109.5" font-family="DejaVuSans" font-size="10.00">eraChanged</text>
<text text-anchor="middle" x="180.5" y="-96.5" font-family="DejaVuSans" font-size="10.00">descriptionChanged</text>
<text text-anchor="middle" x="180.5" y="-83.5" font-family="DejaVuSans" font-size="10.00">hairChanged</text>
<text text-anchor="middle" x="180.5" y="-70.5" font-family="DejaVuSans" font-size="10.00">heightChanged</text>
<text text-anchor="middle" x="180.5" y="-57.5" font-family="DejaVuSans" font-size="10.00">moralityChanged</text>
<text text-anchor="middle" x="180.5" y="-44.5" font-family="DejaVuSans" font-size="10.00">...</text>
</g>
<!-- Node4 -->
<g id="node6" class="node"><title>Node4</title>
<polygon fill="white" stroke="#bfbfbf" points="228.5,-202.5 228.5,-223.5 291.5,-223.5 291.5,-202.5 228.5,-202.5"/>
<text text-anchor="middle" x="260" y="-210.5" font-family="DejaVuSans" font-size="10.00">dictionary</text>
</g>
<!-- Node4&#45;&gt;Node1 -->
<g id="edge6" class="edge"><title>Node4&#45;&gt;Node1</title>
<path fill="none" stroke="#9a32cd" stroke-dasharray="5,2" d="M264.095,-192.228C269.86,-156.412 275.825,-82.7727 238,-40 231.168,-32.2744 211.982,-26.1308 191.254,-21.5234"/>
<polygon fill="#9a32cd" stroke="#9a32cd" points="260.584,-191.983 262.286,-202.441 267.477,-193.204 260.584,-191.983"/>
<text text-anchor="middle" x="294.5" y="-116" font-family="DejaVuSans" font-size="10.00">__traits</text>
<text text-anchor="middle" x="294.5" y="-103" font-family="DejaVuSans" font-size="10.00">__weapons</text>
</g>
</g>
</svg>
