<?xml version="1.0" encoding="UTF-8" standalone="no"?>
<!DOCTYPE svg PUBLIC "-//W3C//DTD SVG 1.1//EN"
 "http://www.w3.org/Graphics/SVG/1.1/DTD/svg11.dtd">
<!-- Generated by graphviz version 2.26.3 (20100126.1600)
 -->
<!-- Title: G Pages: 1 -->
<svg width="722pt" height="148pt"
 viewBox="0.00 0.00 722.00 148.00" xmlns="http://www.w3.org/2000/svg" xmlns:xlink="http://www.w3.org/1999/xlink">
<g id="graph1" class="graph" transform="scale(1 1) rotate(0) translate(4 144)">
<title>G</title>
<polygon fill="white" stroke="white" points="-4,5 -4,-144 719,-144 719,5 -4,5"/>
<!-- Node1 -->
<g id="node1" class="node"><title>Node1</title>
<polygon fill="#bfbfbf" stroke="black" points="0,-39.5 0,-60.5 168,-60.5 168,-39.5 0,-39.5"/>
<text text-anchor="middle" x="84" y="-47.5" font-family="DejaVuSans" font-size="10.00">ReadTemplate::readSoulCreator</text>
</g>
<!-- Node2 -->
<g id="node3" class="node"><title>Node2</title>
<a xlink:href="class_read_template.html#a5984eef9690e258cc42d09206ad0477f" target="_top" xlink:title="ReadTemplate::readTree">
<polygon fill="white" stroke="black" points="204.5,-78.5 204.5,-99.5 335.5,-99.5 335.5,-78.5 204.5,-78.5"/>
<text text-anchor="middle" x="270" y="-86.5" font-family="DejaVuSans" font-size="10.00">ReadTemplate::readTree</text>
</a>
</g>
<!-- Node1&#45;&gt;Node2 -->
<g id="edge2" class="edge"><title>Node1&#45;&gt;Node2</title>
<path fill="none" stroke="midnightblue" d="M134.334,-60.554C157.596,-65.4314 185.404,-71.2621 209.771,-76.3713"/>
<polygon fill="midnightblue" stroke="midnightblue" points="209.12,-79.8109 219.625,-78.4376 210.557,-72.9599 209.12,-79.8109"/>
</g>
<!-- Node5 -->
<g id="node9" class="node"><title>Node5</title>
<a xlink:href="class_read_template.html#a7421603688e1dedca296c0ed3888a4bc" target="_top" xlink:title="ReadTemplate::readUnknownElement">
<polygon fill="white" stroke="black" points="372,-38.5 372,-59.5 566,-59.5 566,-38.5 372,-38.5"/>
<text text-anchor="middle" x="469" y="-46.5" font-family="DejaVuSans" font-size="10.00">ReadTemplate::readUnknownElement</text>
</a>
</g>
<!-- Node1&#45;&gt;Node5 -->
<g id="edge12" class="edge"><title>Node1&#45;&gt;Node5</title>
<path fill="none" stroke="midnightblue" d="M168.014,-49.7818C224.917,-49.634 300.597,-49.4374 361.834,-49.2784"/>
<polygon fill="midnightblue" stroke="midnightblue" points="361.93,-52.7782 371.921,-49.2522 361.912,-45.7782 361.93,-52.7782"/>
</g>
<!-- Node7 -->
<g id="node14" class="node"><title>Node7</title>
<a xlink:href="classcv___species.html#a152c6fe9f8df1fa2bdba478f481955e2" target="_top" xlink:title="cv_Species::toSpecies">
<polygon fill="white" stroke="black" points="208.5,-0.5 208.5,-21.5 331.5,-21.5 331.5,-0.5 208.5,-0.5"/>
<text text-anchor="middle" x="270" y="-8.5" font-family="DejaVuSans" font-size="10.00">cv_Species::toSpecies</text>
</a>
</g>
<!-- Node1&#45;&gt;Node7 -->
<g id="edge14" class="edge"><title>Node1&#45;&gt;Node7</title>
<path fill="none" stroke="midnightblue" d="M134.334,-39.446C157.596,-34.5686 185.404,-28.7379 209.771,-23.6287"/>
<polygon fill="midnightblue" stroke="midnightblue" points="210.557,-27.0401 219.625,-21.5624 209.12,-20.1891 210.557,-27.0401"/>
</g>
<!-- Node3 -->
<g id="node5" class="node"><title>Node3</title>
<a xlink:href="class_read_template.html#a85e90e2466fbabcae68cca7e1aec234c" target="_top" xlink:title="ReadTemplate::readTraits">
<polygon fill="white" stroke="black" points="401,-118.5 401,-139.5 537,-139.5 537,-118.5 401,-118.5"/>
<text text-anchor="middle" x="469" y="-126.5" font-family="DejaVuSans" font-size="10.00">ReadTemplate::readTraits</text>
</a>
</g>
<!-- Node2&#45;&gt;Node3 -->
<g id="edge4" class="edge"><title>Node2&#45;&gt;Node3</title>
<path fill="none" stroke="midnightblue" d="M322.285,-99.5095C348.119,-104.702 379.482,-111.006 406.568,-116.451"/>
<polygon fill="midnightblue" stroke="midnightblue" points="406.225,-119.952 416.719,-118.491 407.605,-113.089 406.225,-119.952"/>
</g>
<!-- Node2&#45;&gt;Node5 -->
<g id="edge8" class="edge"><title>Node2&#45;&gt;Node5</title>
<path fill="none" stroke="midnightblue" d="M322.285,-78.4905C348.119,-73.2977 379.482,-66.9936 406.568,-61.5492"/>
<polygon fill="midnightblue" stroke="midnightblue" points="407.605,-64.9108 416.719,-59.5087 406.225,-58.0481 407.605,-64.9108"/>
</g>
<!-- Node6 -->
<g id="node11" class="node"><title>Node6</title>
<a xlink:href="classcv___trait.html#ac06e3b8607fa52324072b4a6493fac60" target="_top" xlink:title="cv_Trait::toType">
<polygon fill="white" stroke="black" points="424.5,-78.5 424.5,-99.5 513.5,-99.5 513.5,-78.5 424.5,-78.5"/>
<text text-anchor="middle" x="469" y="-86.5" font-family="DejaVuSans" font-size="10.00">cv_Trait::toType</text>
</a>
</g>
<!-- Node2&#45;&gt;Node6 -->
<g id="edge10" class="edge"><title>Node2&#45;&gt;Node6</title>
<path fill="none" stroke="midnightblue" d="M335.712,-89C361.17,-89 389.977,-89 414.281,-89"/>
<polygon fill="midnightblue" stroke="midnightblue" points="414.398,-92.5001 424.398,-89 414.398,-85.5001 414.398,-92.5001"/>
</g>
<!-- Node4 -->
<g id="node7" class="node"><title>Node4</title>
<a xlink:href="classcv___trait.html#a8dbbb4674c121a54bd0830cf90c568bc" target="_top" xlink:title="cv_Trait::toCategory">
<polygon fill="white" stroke="black" points="602.5,-118.5 602.5,-139.5 713.5,-139.5 713.5,-118.5 602.5,-118.5"/>
<text text-anchor="middle" x="658" y="-126.5" font-family="DejaVuSans" font-size="10.00">cv_Trait::toCategory</text>
</a>
</g>
<!-- Node3&#45;&gt;Node4 -->
<g id="edge6" class="edge"><title>Node3&#45;&gt;Node4</title>
<path fill="none" stroke="midnightblue" d="M537.233,-129C555.088,-129 574.301,-129 592.035,-129"/>
<polygon fill="midnightblue" stroke="midnightblue" points="592.284,-132.5 602.284,-129 592.284,-125.5 592.284,-132.5"/>
</g>
</g>
</svg>
