<?xml version="1.0" encoding="UTF-8" standalone="no"?>
<!DOCTYPE svg PUBLIC "-//W3C//DTD SVG 1.1//EN"
 "http://www.w3.org/Graphics/SVG/1.1/DTD/svg11.dtd">
<!-- Generated by graphviz version 2.26.3 (20100126.1600)
 -->
<!-- Title: G Pages: 1 -->
<svg width="278pt" height="110pt"
 viewBox="0.00 0.00 278.00 110.00" xmlns="http://www.w3.org/2000/svg" xmlns:xlink="http://www.w3.org/1999/xlink">
<g id="graph1" class="graph" transform="scale(1 1) rotate(0) translate(4 106)">
<title>G</title>
<polygon fill="white" stroke="white" points="-4,5 -4,-106 275,-106 275,5 -4,5"/>
<!-- Node1 -->
<g id="node1" class="node"><title>Node1</title>
<polygon fill="#bfbfbf" stroke="black" points="0,-40.5 0,-61.5 110,-61.5 110,-40.5 0,-40.5"/>
<text text-anchor="middle" x="55" y="-48.5" font-family="DejaVuSans" font-size="10.00">cv_Trait::setCustom</text>
</g>
<!-- Node2 -->
<g id="node3" class="node"><title>Node2</title>
<a xlink:href="class_check_trait.html#aaa686b2552adabe22ccacc80b58adcfd" target="_top" xlink:title="CheckTrait::setCustom">
<polygon fill="white" stroke="black" points="146,-80.5 146,-101.5 270,-101.5 270,-80.5 146,-80.5"/>
<text text-anchor="middle" x="208" y="-88.5" font-family="DejaVuSans" font-size="10.00">CheckTrait::setCustom</text>
</a>
</g>
<!-- Node1&#45;&gt;Node2 -->
<g id="edge2" class="edge"><title>Node1&#45;&gt;Node2</title>
<path fill="none" stroke="midnightblue" d="M104.94,-64.0561C125.312,-69.3823 148.555,-75.4587 167.804,-80.4913"/>
<polygon fill="midnightblue" stroke="midnightblue" points="105.759,-60.6528 95.1989,-61.5095 103.988,-67.4252 105.759,-60.6528"/>
</g>
<!-- Node3 -->
<g id="node5" class="node"><title>Node3</title>
<a xlink:href="class_chara_trait.html#a620d140e562c4102205d2c2a44af5622" target="_top" xlink:title="CharaTrait::setCustom">
<polygon fill="white" stroke="black" points="146.5,-40.5 146.5,-61.5 269.5,-61.5 269.5,-40.5 146.5,-40.5"/>
<text text-anchor="middle" x="208" y="-48.5" font-family="DejaVuSans" font-size="10.00">CharaTrait::setCustom</text>
</a>
</g>
<!-- Node1&#45;&gt;Node3 -->
<g id="edge4" class="edge"><title>Node1&#45;&gt;Node3</title>
<path fill="none" stroke="midnightblue" d="M120.275,-51C128.927,-51 137.774,-51 146.362,-51"/>
<polygon fill="midnightblue" stroke="midnightblue" points="120.237,-47.5001 110.237,-51 120.236,-54.5001 120.237,-47.5001"/>
</g>
<!-- Node4 -->
<g id="node7" class="node"><title>Node4</title>
<a xlink:href="class_trait.html#af91999c7db93d064bf79f1a72133152a" target="_top" xlink:title="Trait::Trait">
<polygon fill="white" stroke="black" points="177,-0.5 177,-21.5 239,-21.5 239,-0.5 177,-0.5"/>
<text text-anchor="middle" x="208" y="-8.5" font-family="DejaVuSans" font-size="10.00">Trait::Trait</text>
</a>
</g>
<!-- Node1&#45;&gt;Node4 -->
<g id="edge6" class="edge"><title>Node1&#45;&gt;Node4</title>
<path fill="none" stroke="midnightblue" d="M105.058,-37.9129C128.684,-31.7362 156.146,-24.5565 176.761,-19.167"/>
<polygon fill="midnightblue" stroke="midnightblue" points="103.988,-34.5748 95.1989,-40.4905 105.759,-41.3472 103.988,-34.5748"/>
</g>
</g>
</svg>
