<?xml version="1.0" encoding="UTF-8" standalone="no"?>
<!DOCTYPE svg PUBLIC "-//W3C//DTD SVG 1.1//EN"
 "http://www.w3.org/Graphics/SVG/1.1/DTD/svg11.dtd">
<!-- Generated by graphviz version 2.26.3 (20100126.1600)
 -->
<!-- Title: G Pages: 1 -->
<svg width="394pt" height="70pt"
 viewBox="0.00 0.00 394.00 70.00" xmlns="http://www.w3.org/2000/svg" xmlns:xlink="http://www.w3.org/1999/xlink">
<g id="graph1" class="graph" transform="scale(1 1) rotate(0) translate(4 66)">
<title>G</title>
<polygon fill="white" stroke="white" points="-4,5 -4,-66 391,-66 391,5 -4,5"/>
<!-- Node1 -->
<g id="node1" class="node"><title>Node1</title>
<polygon fill="#bfbfbf" stroke="black" points="0.5,-20.5 0.5,-41.5 161.5,-41.5 161.5,-20.5 0.5,-20.5"/>
<text text-anchor="middle" x="81" y="-28.5" font-family="DejaVuSans" font-size="10.00">StorageCharacter::setSpecies</text>
</g>
<!-- Node2 -->
<g id="node3" class="node"><title>Node2</title>
<a xlink:href="class_storage_character.html#a003ec6624532c534b04c93f18f9c381c" target="_top" xlink:title="StorageCharacter::species">
<polygon fill="white" stroke="black" points="220,-40.5 220,-61.5 364,-61.5 364,-40.5 220,-40.5"/>
<text text-anchor="middle" x="292" y="-48.5" font-family="DejaVuSans" font-size="10.00">StorageCharacter::species</text>
</a>
</g>
<!-- Node1&#45;&gt;Node2 -->
<g id="edge2" class="edge"><title>Node1&#45;&gt;Node2</title>
<path fill="none" stroke="midnightblue" d="M161.673,-38.6468C177.325,-40.1303 193.749,-41.6871 209.459,-43.1762"/>
<polygon fill="midnightblue" stroke="midnightblue" points="209.379,-46.6842 219.665,-44.1436 210.04,-39.7155 209.379,-46.6842"/>
</g>
<!-- Node3 -->
<g id="node5" class="node"><title>Node3</title>
<a xlink:href="class_storage_character.html#a42fa91622893ca1b2005df84b3fdd1f3" target="_top" xlink:title="StorageCharacter::speciesChanged">
<polygon fill="white" stroke="black" points="198.5,-0.5 198.5,-21.5 385.5,-21.5 385.5,-0.5 198.5,-0.5"/>
<text text-anchor="middle" x="292" y="-8.5" font-family="DejaVuSans" font-size="10.00">StorageCharacter::speciesChanged</text>
</a>
</g>
<!-- Node1&#45;&gt;Node3 -->
<g id="edge4" class="edge"><title>Node1&#45;&gt;Node3</title>
<path fill="none" stroke="midnightblue" d="M161.673,-23.3532C170.38,-22.528 179.325,-21.6801 188.254,-20.8337"/>
<polygon fill="midnightblue" stroke="midnightblue" points="188.689,-24.3083 198.314,-19.8802 188.029,-17.3395 188.689,-24.3083"/>
</g>
</g>
</svg>
