<?xml version="1.0" encoding="UTF-8" standalone="no"?>
<!DOCTYPE svg PUBLIC "-//W3C//DTD SVG 1.1//EN"
 "http://www.w3.org/Graphics/SVG/1.1/DTD/svg11.dtd">
<!-- Generated by graphviz version 2.26.3 (20100126.1600)
 -->
<!-- Title: G Pages: 1 -->
<svg width="576pt" height="30pt"
 viewBox="0.00 0.00 576.00 30.00" xmlns="http://www.w3.org/2000/svg" xmlns:xlink="http://www.w3.org/1999/xlink">
<g id="graph1" class="graph" transform="scale(1 1) rotate(0) translate(4 26)">
<title>G</title>
<polygon fill="white" stroke="white" points="-4,5 -4,-26 573,-26 573,5 -4,5"/>
<!-- Node1 -->
<g id="node1" class="node"><title>Node1</title>
<polygon fill="#bfbfbf" stroke="black" points="0.5,-0.5 0.5,-21.5 187.5,-21.5 187.5,-0.5 0.5,-0.5"/>
<text text-anchor="middle" x="94" y="-8.5" font-family="DejaVuSans" font-size="10.00">DerangementComboBox::addItems</text>
</g>
<!-- Node2 -->
<g id="node3" class="node"><title>Node2</title>
<a xlink:href="class_derangement_combo_box.html#ae546420453d34191eafe49e5583ff205" target="_top" xlink:title="DerangementComboBox::addItem">
<polygon fill="white" stroke="black" points="224,-0.5 224,-21.5 406,-21.5 406,-0.5 224,-0.5"/>
<text text-anchor="middle" x="315" y="-8.5" font-family="DejaVuSans" font-size="10.00">DerangementComboBox::addItem</text>
</a>
</g>
<!-- Node1&#45;&gt;Node2 -->
<g id="edge2" class="edge"><title>Node1&#45;&gt;Node2</title>
<path fill="none" stroke="midnightblue" d="M187.724,-11C196.349,-11 205.113,-11 213.8,-11"/>
<polygon fill="midnightblue" stroke="midnightblue" points="213.95,-14.5001 223.95,-11 213.95,-7.5001 213.95,-14.5001"/>
</g>
<!-- Node3 -->
<g id="node5" class="node"><title>Node3</title>
<a xlink:href="classcv___abstract_trait.html#a3bbbc5a0073617a70c86741d4c918576" target="_top" xlink:title="cv_AbstractTrait::name">
<polygon fill="white" stroke="black" points="442,-0.5 442,-21.5 568,-21.5 568,-0.5 442,-0.5"/>
<text text-anchor="middle" x="505" y="-8.5" font-family="DejaVuSans" font-size="10.00">cv_AbstractTrait::name</text>
</a>
</g>
<!-- Node2&#45;&gt;Node3 -->
<g id="edge4" class="edge"><title>Node2&#45;&gt;Node3</title>
<path fill="none" stroke="midnightblue" d="M406.104,-11C414.704,-11 423.345,-11 431.747,-11"/>
<polygon fill="midnightblue" stroke="midnightblue" points="431.858,-14.5001 441.858,-11 431.857,-7.5001 431.858,-14.5001"/>
</g>
</g>
</svg>
