<?xml version="1.0" encoding="UTF-8" standalone="no"?>
<!DOCTYPE svg PUBLIC "-//W3C//DTD SVG 1.1//EN"
 "http://www.w3.org/Graphics/SVG/1.1/DTD/svg11.dtd">
<!-- Generated by graphviz version 2.26.3 (20100126.1600)
 -->
<!-- Title: G Pages: 1 -->
<svg width="70pt" height="146pt"
 viewBox="0.00 0.00 70.00 146.00" xmlns="http://www.w3.org/2000/svg" xmlns:xlink="http://www.w3.org/1999/xlink">
<g id="graph1" class="graph" transform="scale(1 1) rotate(0) translate(4 142)">
<title>G</title>
<polygon fill="white" stroke="white" points="-4,5 -4,-142 67,-142 67,5 -4,5"/>
<!-- Node1 -->
<g id="node1" class="node"><title>Node1</title>
<polygon fill="#bfbfbf" stroke="black" points="-0.5,-0.5 -0.5,-21.5 62.5,-21.5 62.5,-0.5 -0.5,-0.5"/>
<text text-anchor="middle" x="31" y="-8.5" font-family="DejaVuSans" font-size="10.00">eTraitType</text>
</g>
<!-- Node2 -->
<g id="node2" class="node"><title>Node2</title>
<a xlink:href="classe_trait.html" target="_top" xlink:title="Ausnahme, falls Fehler bei den Eigenschaften auftritt.">
<polygon fill="white" stroke="black" points="10,-58.5 10,-79.5 52,-79.5 52,-58.5 10,-58.5"/>
<text text-anchor="middle" x="31" y="-66.5" font-family="DejaVuSans" font-size="10.00">eTrait</text>
</a>
</g>
<!-- Node2&#45;&gt;Node1 -->
<g id="edge2" class="edge"><title>Node2&#45;&gt;Node1</title>
<path fill="none" stroke="midnightblue" d="M31,-48.1906C31,-39.1684 31,-28.9941 31,-21.5707"/>
<polygon fill="midnightblue" stroke="midnightblue" points="27.5001,-48.3619 31,-58.3619 34.5001,-48.3619 27.5001,-48.3619"/>
</g>
<!-- Node3 -->
<g id="node4" class="node"><title>Node3</title>
<a xlink:href="class_exception.html" target="_top" xlink:title="Basisklasse für die Ausnahmebehandlung.">
<polygon fill="white" stroke="black" points="-0.5,-116.5 -0.5,-137.5 62.5,-137.5 62.5,-116.5 -0.5,-116.5"/>
<text text-anchor="middle" x="31" y="-124.5" font-family="DejaVuSans" font-size="10.00">Exception</text>
</a>
</g>
<!-- Node3&#45;&gt;Node2 -->
<g id="edge4" class="edge"><title>Node3&#45;&gt;Node2</title>
<path fill="none" stroke="midnightblue" d="M31,-106.191C31,-97.1684 31,-86.9941 31,-79.5707"/>
<polygon fill="midnightblue" stroke="midnightblue" points="27.5001,-106.362 31,-116.362 34.5001,-106.362 27.5001,-106.362"/>
</g>
</g>
</svg>
