<?xml version="1.0" encoding="UTF-8" standalone="no"?>
<!DOCTYPE svg PUBLIC "-//W3C//DTD SVG 1.1//EN"
 "http://www.w3.org/Graphics/SVG/1.1/DTD/svg11.dtd">
<!-- Generated by graphviz version 2.26.3 (20100126.1600)
 -->
<!-- Title: G Pages: 1 -->
<svg width="610pt" height="30pt"
 viewBox="0.00 0.00 610.00 30.00" xmlns="http://www.w3.org/2000/svg" xmlns:xlink="http://www.w3.org/1999/xlink">
<g id="graph1" class="graph" transform="scale(1 1) rotate(0) translate(4 26)">
<title>G</title>
<polygon fill="white" stroke="white" points="-4,5 -4,-26 607,-26 607,5 -4,5"/>
<!-- Node1 -->
<g id="node1" class="node"><title>Node1</title>
<polygon fill="#bfbfbf" stroke="black" points="0.5,-0.5 0.5,-21.5 187.5,-21.5 187.5,-0.5 0.5,-0.5"/>
<text text-anchor="middle" x="94" y="-8.5" font-family="DejaVuSans" font-size="10.00">StorageCharacter::speciesChanged</text>
</g>
<!-- Node2 -->
<g id="node3" class="node"><title>Node2</title>
<a xlink:href="class_storage_character.html#ac708bf6fd9e70736fe84e9529d2dfe18" target="_top" xlink:title="StorageCharacter::setSpecies">
<polygon fill="white" stroke="black" points="224.5,-0.5 224.5,-21.5 385.5,-21.5 385.5,-0.5 224.5,-0.5"/>
<text text-anchor="middle" x="305" y="-8.5" font-family="DejaVuSans" font-size="10.00">StorageCharacter::setSpecies</text>
</a>
</g>
<!-- Node1&#45;&gt;Node2 -->
<g id="edge2" class="edge"><title>Node1&#45;&gt;Node2</title>
<path fill="none" stroke="midnightblue" d="M197.832,-11C206.757,-11 215.698,-11 224.399,-11"/>
<polygon fill="midnightblue" stroke="midnightblue" points="197.776,-7.5001 187.776,-11 197.776,-14.5001 197.776,-7.5001"/>
</g>
<!-- Node3 -->
<g id="node5" class="node"><title>Node3</title>
<a xlink:href="class_storage_character.html#a6534667b942bd21253c432fee79a8850" target="_top" xlink:title="StorageCharacter::resetCharacter">
<polygon fill="white" stroke="black" points="422,-0.5 422,-21.5 602,-21.5 602,-0.5 422,-0.5"/>
<text text-anchor="middle" x="512" y="-8.5" font-family="DejaVuSans" font-size="10.00">StorageCharacter::resetCharacter</text>
</a>
</g>
<!-- Node2&#45;&gt;Node3 -->
<g id="edge4" class="edge"><title>Node2&#45;&gt;Node3</title>
<path fill="none" stroke="midnightblue" d="M395.768,-11C404.469,-11 413.292,-11 421.985,-11"/>
<polygon fill="midnightblue" stroke="midnightblue" points="395.624,-7.5001 385.624,-11 395.624,-14.5001 395.624,-7.5001"/>
</g>
</g>
</svg>
