<?xml version="1.0" encoding="UTF-8" standalone="no"?>
<!DOCTYPE svg PUBLIC "-//W3C//DTD SVG 1.1//EN"
 "http://www.w3.org/Graphics/SVG/1.1/DTD/svg11.dtd">
<!-- Generated by graphviz version 2.26.3 (20100126.1600)
 -->
<!-- Title: G Pages: 1 -->
<svg width="362pt" height="150pt"
 viewBox="0.00 0.00 362.00 150.00" xmlns="http://www.w3.org/2000/svg" xmlns:xlink="http://www.w3.org/1999/xlink">
<g id="graph1" class="graph" transform="scale(1 1) rotate(0) translate(4 146)">
<title>G</title>
<polygon fill="white" stroke="white" points="-4,5 -4,-146 359,-146 359,5 -4,5"/>
<!-- Node1 -->
<g id="node1" class="node"><title>Node1</title>
<polygon fill="#bfbfbf" stroke="black" points="0,-60.5 0,-81.5 146,-81.5 146,-60.5 0,-60.5"/>
<text text-anchor="middle" x="73" y="-68.5" font-family="DejaVuSans" font-size="10.00">StorageCharacter::addTrait</text>
</g>
<!-- Node2 -->
<g id="node3" class="node"><title>Node2</title>
<a xlink:href="class_attribute_widget.html#ab498116d47f94a62e3b82eaa79976b36" target="_top" xlink:title="AttributeWidget::AttributeWidget">
<polygon fill="white" stroke="black" points="182.5,-120.5 182.5,-141.5 353.5,-141.5 353.5,-120.5 182.5,-120.5"/>
<text text-anchor="middle" x="268" y="-128.5" font-family="DejaVuSans" font-size="10.00">AttributeWidget::AttributeWidget</text>
</a>
</g>
<!-- Node1&#45;&gt;Node2 -->
<g id="edge2" class="edge"><title>Node1&#45;&gt;Node2</title>
<path fill="none" stroke="midnightblue" d="M108.647,-85.3444C129.759,-93.521 157.155,-103.583 182,-111 193.457,-114.42 205.916,-117.613 217.703,-120.399"/>
<polygon fill="midnightblue" stroke="midnightblue" points="109.713,-82.0031 99.1249,-81.6195 107.163,-88.522 109.713,-82.0031"/>
</g>
<!-- Node3 -->
<g id="node5" class="node"><title>Node3</title>
<a xlink:href="class_flaw_widget.html#af387a892373d07ce615ad19d6da45448" target="_top" xlink:title="FlawWidget::FlawWidget">
<polygon fill="white" stroke="black" points="204,-80.5 204,-101.5 332,-101.5 332,-80.5 204,-80.5"/>
<text text-anchor="middle" x="268" y="-88.5" font-family="DejaVuSans" font-size="10.00">FlawWidget::FlawWidget</text>
</a>
</g>
<!-- Node1&#45;&gt;Node3 -->
<g id="edge4" class="edge"><title>Node1&#45;&gt;Node3</title>
<path fill="none" stroke="midnightblue" d="M156.469,-79.5609C172.285,-81.1831 188.605,-82.8569 203.716,-84.4068"/>
<polygon fill="midnightblue" stroke="midnightblue" points="156.471,-76.0428 146.166,-78.5042 155.756,-83.0063 156.471,-76.0428"/>
</g>
<!-- Node4 -->
<g id="node7" class="node"><title>Node4</title>
<a xlink:href="class_merit_widget.html#a3f99dd98cf0c027d9e5a65a6a82d88c8" target="_top" xlink:title="MeritWidget::MeritWidget">
<polygon fill="white" stroke="black" points="200.5,-40.5 200.5,-61.5 335.5,-61.5 335.5,-40.5 200.5,-40.5"/>
<text text-anchor="middle" x="268" y="-48.5" font-family="DejaVuSans" font-size="10.00">MeritWidget::MeritWidget</text>
</a>
</g>
<!-- Node1&#45;&gt;Node4 -->
<g id="edge6" class="edge"><title>Node1&#45;&gt;Node4</title>
<path fill="none" stroke="midnightblue" d="M156.239,-62.4627C170.916,-60.9574 186.033,-59.4069 200.222,-57.9516"/>
<polygon fill="midnightblue" stroke="midnightblue" points="155.756,-58.9937 146.166,-63.4958 156.471,-65.9572 155.756,-58.9937"/>
</g>
<!-- Node5 -->
<g id="node9" class="node"><title>Node5</title>
<a xlink:href="class_power_widget.html#a07bb0283ac179fda85ae3f2e38f17b71" target="_top" xlink:title="PowerWidget::PowerWidget">
<polygon fill="white" stroke="black" points="196,-0.5 196,-21.5 340,-21.5 340,-0.5 196,-0.5"/>
<text text-anchor="middle" x="268" y="-8.5" font-family="DejaVuSans" font-size="10.00">PowerWidget::PowerWidget</text>
</a>
</g>
<!-- Node1&#45;&gt;Node5 -->
<g id="edge8" class="edge"><title>Node1&#45;&gt;Node5</title>
<path fill="none" stroke="midnightblue" d="M108.647,-56.6556C129.759,-48.479 157.155,-38.4169 182,-31 193.457,-27.5798 205.916,-24.3871 217.703,-21.6007"/>
<polygon fill="midnightblue" stroke="midnightblue" points="107.163,-53.478 99.1249,-60.3805 109.713,-59.9969 107.163,-53.478"/>
</g>
</g>
</svg>
