<?xml version="1.0" encoding="UTF-8" standalone="no"?>
<!DOCTYPE svg PUBLIC "-//W3C//DTD SVG 1.1//EN"
 "http://www.w3.org/Graphics/SVG/1.1/DTD/svg11.dtd">
<!-- Generated by graphviz version 2.26.3 (20100126.1600)
 -->
<!-- Title: G Pages: 1 -->
<svg width="328pt" height="70pt"
 viewBox="0.00 0.00 328.00 70.00" xmlns="http://www.w3.org/2000/svg" xmlns:xlink="http://www.w3.org/1999/xlink">
<g id="graph1" class="graph" transform="scale(1 1) rotate(0) translate(4 66)">
<title>G</title>
<polygon fill="white" stroke="white" points="-4,5 -4,-66 325,-66 325,5 -4,5"/>
<!-- Node1 -->
<g id="node1" class="node"><title>Node1</title>
<polygon fill="#bfbfbf" stroke="black" points="0,-20.5 0,-41.5 90,-41.5 90,-20.5 0,-20.5"/>
<text text-anchor="middle" x="45" y="-28.5" font-family="DejaVuSans" font-size="10.00">Trait::setDetails</text>
</g>
<!-- Node2 -->
<g id="node3" class="node"><title>Node2</title>
<a xlink:href="class_storage_character.html#a6273e4a5881f52b074bb1e4885ce70a6" target="_top" xlink:title="StorageCharacter::setSkillSpecialties">
<polygon fill="white" stroke="black" points="126,-40.5 126,-61.5 320,-61.5 320,-40.5 126,-40.5"/>
<text text-anchor="middle" x="223" y="-48.5" font-family="DejaVuSans" font-size="10.00">StorageCharacter::setSkillSpecialties</text>
</a>
</g>
<!-- Node1&#45;&gt;Node2 -->
<g id="edge2" class="edge"><title>Node1&#45;&gt;Node2</title>
<path fill="none" stroke="midnightblue" d="M100.555,-37.2421C109.805,-38.2815 119.619,-39.3841 129.507,-40.4952"/>
<polygon fill="midnightblue" stroke="midnightblue" points="100.706,-33.7371 90.3775,-36.0986 99.9241,-40.6934 100.706,-33.7371"/>
</g>
<!-- Node3 -->
<g id="node5" class="node"><title>Node3</title>
<a xlink:href="class_trait.html#af91999c7db93d064bf79f1a72133152a" target="_top" xlink:title="Trait::Trait">
<polygon fill="white" stroke="black" points="192,-0.5 192,-21.5 254,-21.5 254,-0.5 192,-0.5"/>
<text text-anchor="middle" x="223" y="-8.5" font-family="DejaVuSans" font-size="10.00">Trait::Trait</text>
</a>
</g>
<!-- Node1&#45;&gt;Node3 -->
<g id="edge4" class="edge"><title>Node1&#45;&gt;Node3</title>
<path fill="none" stroke="midnightblue" d="M100.356,-24.7802C130.538,-21.389 166.772,-17.3177 191.997,-14.4835"/>
<polygon fill="midnightblue" stroke="midnightblue" points="99.9241,-21.3066 90.3775,-25.9014 100.706,-28.2629 99.9241,-21.3066"/>
</g>
</g>
</svg>
