<?xml version="1.0" encoding="UTF-8" standalone="no"?>
<!DOCTYPE svg PUBLIC "-//W3C//DTD SVG 1.1//EN"
 "http://www.w3.org/Graphics/SVG/1.1/DTD/svg11.dtd">
<!-- Generated by graphviz version 2.26.3 (20100126.1600)
 -->
<!-- Title: G Pages: 1 -->
<svg width="526pt" height="150pt"
 viewBox="0.00 0.00 526.00 150.00" xmlns="http://www.w3.org/2000/svg" xmlns:xlink="http://www.w3.org/1999/xlink">
<g id="graph1" class="graph" transform="scale(1 1) rotate(0) translate(4 146)">
<title>G</title>
<polygon fill="white" stroke="white" points="-4,5 -4,-146 523,-146 523,5 -4,5"/>
<!-- Node1 -->
<g id="node1" class="node"><title>Node1</title>
<polygon fill="#bfbfbf" stroke="black" points="0.5,-60.5 0.5,-81.5 155.5,-81.5 155.5,-60.5 0.5,-60.5"/>
<text text-anchor="middle" x="78" y="-68.5" font-family="DejaVuSans" font-size="10.00">CharaSpecies::CharaSpecies</text>
</g>
<!-- Node2 -->
<g id="node3" class="node"><title>Node2</title>
<a xlink:href="class_storage_character.html#a50022b948be1e566d902d64095c4470b" target="_top" xlink:title="StorageCharacter::getInstance">
<polygon fill="white" stroke="black" points="192,-120.5 192,-141.5 356,-141.5 356,-120.5 192,-120.5"/>
<text text-anchor="middle" x="274" y="-128.5" font-family="DejaVuSans" font-size="10.00">StorageCharacter::getInstance</text>
</a>
</g>
<!-- Node1&#45;&gt;Node2 -->
<g id="edge2" class="edge"><title>Node1&#45;&gt;Node2</title>
<path fill="none" stroke="midnightblue" d="M105.859,-81.6374C128.787,-90.1828 162.239,-102.173 192,-111 200.179,-113.426 208.879,-115.783 217.439,-117.977"/>
<polygon fill="midnightblue" stroke="midnightblue" points="216.834,-121.433 227.385,-120.471 218.537,-114.644 216.834,-121.433"/>
</g>
<!-- Node3 -->
<g id="node5" class="node"><title>Node3</title>
<a xlink:href="class_chara_species.html#a2ef74664afd983d69d1d4ca50a38dc01" target="_top" xlink:title="CharaSpecies::setSpecies">
<polygon fill="white" stroke="black" points="203.5,-80.5 203.5,-101.5 344.5,-101.5 344.5,-80.5 203.5,-80.5"/>
<text text-anchor="middle" x="274" y="-88.5" font-family="DejaVuSans" font-size="10.00">CharaSpecies::setSpecies</text>
</a>
</g>
<!-- Node1&#45;&gt;Node3 -->
<g id="edge4" class="edge"><title>Node1&#45;&gt;Node3</title>
<path fill="none" stroke="midnightblue" d="M155.746,-78.9333C168.02,-80.1857 180.738,-81.4835 193.082,-82.7431"/>
<polygon fill="midnightblue" stroke="midnightblue" points="193.042,-86.2571 203.346,-83.7904 193.753,-79.2933 193.042,-86.2571"/>
</g>
<!-- Node6 -->
<g id="node11" class="node"><title>Node6</title>
<a xlink:href="class_storage_template.html#a1177a73731e317d87d5e79700d02a01a" target="_top" xlink:title="StorageTemplate::species">
<polygon fill="white" stroke="black" points="204,-40.5 204,-61.5 344,-61.5 344,-40.5 204,-40.5"/>
<text text-anchor="middle" x="274" y="-48.5" font-family="DejaVuSans" font-size="10.00">StorageTemplate::species</text>
</a>
</g>
<!-- Node1&#45;&gt;Node6 -->
<g id="edge10" class="edge"><title>Node1&#45;&gt;Node6</title>
<path fill="none" stroke="midnightblue" d="M155.746,-63.0667C168.312,-61.7845 181.342,-60.4549 193.961,-59.1672"/>
<polygon fill="midnightblue" stroke="midnightblue" points="194.383,-62.6424 203.976,-58.1453 193.673,-55.6786 194.383,-62.6424"/>
</g>
<!-- Node7 -->
<g id="node13" class="node"><title>Node7</title>
<a xlink:href="classcv___species.html#a152c6fe9f8df1fa2bdba478f481955e2" target="_top" xlink:title="cv_Species::toSpecies">
<polygon fill="white" stroke="black" points="212.5,-0.5 212.5,-21.5 335.5,-21.5 335.5,-0.5 212.5,-0.5"/>
<text text-anchor="middle" x="274" y="-8.5" font-family="DejaVuSans" font-size="10.00">cv_Species::toSpecies</text>
</a>
</g>
<!-- Node1&#45;&gt;Node7 -->
<g id="edge12" class="edge"><title>Node1&#45;&gt;Node7</title>
<path fill="none" stroke="midnightblue" d="M105.859,-60.3626C128.787,-51.8172 162.239,-39.8274 192,-31 200.179,-28.5741 208.879,-26.2172 217.439,-24.0234"/>
<polygon fill="midnightblue" stroke="midnightblue" points="218.537,-27.3564 227.385,-21.5286 216.834,-20.5667 218.537,-27.3564"/>
</g>
<!-- Node4 -->
<g id="node7" class="node"><title>Node4</title>
<a xlink:href="class_chara_species.html#a7c72b4add56aad4e238ddeffac1f960c" target="_top" xlink:title="CharaSpecies::species">
<polygon fill="white" stroke="black" points="392.5,-100.5 392.5,-121.5 517.5,-121.5 517.5,-100.5 392.5,-100.5"/>
<text text-anchor="middle" x="455" y="-108.5" font-family="DejaVuSans" font-size="10.00">CharaSpecies::species</text>
</a>
</g>
<!-- Node3&#45;&gt;Node4 -->
<g id="edge6" class="edge"><title>Node3&#45;&gt;Node4</title>
<path fill="none" stroke="midnightblue" d="M344.757,-98.8185C356.996,-100.171 369.741,-101.579 382.037,-102.938"/>
<polygon fill="midnightblue" stroke="midnightblue" points="381.916,-106.446 392.24,-104.065 382.685,-99.488 381.916,-106.446"/>
</g>
<!-- Node5 -->
<g id="node9" class="node"><title>Node5</title>
<a xlink:href="classcv___species.html#a6e9c431d497e9df3ab4b9fe79029c368" target="_top" xlink:title="cv_Species::toString">
<polygon fill="white" stroke="black" points="398,-60.5 398,-81.5 512,-81.5 512,-60.5 398,-60.5"/>
<text text-anchor="middle" x="455" y="-68.5" font-family="DejaVuSans" font-size="10.00">cv_Species::toString</text>
</a>
</g>
<!-- Node3&#45;&gt;Node5 -->
<g id="edge8" class="edge"><title>Node3&#45;&gt;Node5</title>
<path fill="none" stroke="midnightblue" d="M344.757,-83.1815C358.959,-81.6123 373.842,-79.9677 387.915,-78.4127"/>
<polygon fill="midnightblue" stroke="midnightblue" points="388.442,-81.8758 397.997,-77.2986 387.673,-74.9182 388.442,-81.8758"/>
</g>
</g>
</svg>
