<?xml version="1.0" encoding="UTF-8" standalone="no"?>
<!DOCTYPE svg PUBLIC "-//W3C//DTD SVG 1.1//EN"
 "http://www.w3.org/Graphics/SVG/1.1/DTD/svg11.dtd">
<!-- Generated by graphviz version 2.26.3 (20100126.1600)
 -->
<!-- Title: G Pages: 1 -->
<svg width="376pt" height="70pt"
 viewBox="0.00 0.00 376.00 70.00" xmlns="http://www.w3.org/2000/svg" xmlns:xlink="http://www.w3.org/1999/xlink">
<g id="graph1" class="graph" transform="scale(1 1) rotate(0) translate(4 66)">
<title>G</title>
<polygon fill="white" stroke="white" points="-4,5 -4,-66 373,-66 373,5 -4,5"/>
<!-- Node1 -->
<g id="node1" class="node"><title>Node1</title>
<polygon fill="#bfbfbf" stroke="black" points="0.5,-20.5 0.5,-41.5 161.5,-41.5 161.5,-20.5 0.5,-20.5"/>
<text text-anchor="middle" x="81" y="-28.5" font-family="DejaVuSans" font-size="10.00">StorageCharacter::addIdentity</text>
</g>
<!-- Node2 -->
<g id="node3" class="node"><title>Node2</title>
<a xlink:href="class_storage_character.html#a44f4c5de39515377617cbe7af782f443" target="_top" xlink:title="StorageCharacter::identities">
<polygon fill="white" stroke="black" points="207,-40.5 207,-61.5 359,-61.5 359,-40.5 207,-40.5"/>
<text text-anchor="middle" x="283" y="-48.5" font-family="DejaVuSans" font-size="10.00">StorageCharacter::identities</text>
</a>
</g>
<!-- Node1&#45;&gt;Node2 -->
<g id="edge2" class="edge"><title>Node1&#45;&gt;Node2</title>
<path fill="none" stroke="midnightblue" d="M161.707,-38.9908C173.181,-40.1268 185.02,-41.299 196.597,-42.4453"/>
<polygon fill="midnightblue" stroke="midnightblue" points="196.392,-45.942 206.688,-43.4444 197.082,-38.976 196.392,-45.942"/>
</g>
<!-- Node3 -->
<g id="node5" class="node"><title>Node3</title>
<a xlink:href="class_storage_character.html#a40e93af3ff7d843e4ca4e93a540179bf" target="_top" xlink:title="StorageCharacter::insertIdentity">
<polygon fill="white" stroke="black" points="198,-0.5 198,-21.5 368,-21.5 368,-0.5 198,-0.5"/>
<text text-anchor="middle" x="283" y="-8.5" font-family="DejaVuSans" font-size="10.00">StorageCharacter::insertIdentity</text>
</a>
</g>
<!-- Node1&#45;&gt;Node3 -->
<g id="edge4" class="edge"><title>Node1&#45;&gt;Node3</title>
<path fill="none" stroke="midnightblue" d="M161.707,-23.0092C170.237,-22.1647 178.969,-21.3001 187.645,-20.4411"/>
<polygon fill="midnightblue" stroke="midnightblue" points="188.182,-23.9051 197.789,-19.4367 187.493,-16.9391 188.182,-23.9051"/>
</g>
</g>
</svg>
