<?xml version="1.0" encoding="UTF-8" standalone="no"?>
<!DOCTYPE svg PUBLIC "-//W3C//DTD SVG 1.1//EN"
 "http://www.w3.org/Graphics/SVG/1.1/DTD/svg11.dtd">
<!-- Generated by graphviz version 2.26.3 (20100126.1600)
 -->
<!-- Title: G Pages: 1 -->
<svg width="346pt" height="150pt"
 viewBox="0.00 0.00 346.00 150.00" xmlns="http://www.w3.org/2000/svg" xmlns:xlink="http://www.w3.org/1999/xlink">
<g id="graph1" class="graph" transform="scale(1 1) rotate(0) translate(4 146)">
<title>G</title>
<polygon fill="white" stroke="white" points="-4,5 -4,-146 343,-146 343,5 -4,5"/>
<!-- Node1 -->
<g id="node1" class="node"><title>Node1</title>
<polygon fill="#bfbfbf" stroke="black" points="0.5,-60.5 0.5,-81.5 137.5,-81.5 137.5,-60.5 0.5,-60.5"/>
<text text-anchor="middle" x="69" y="-68.5" font-family="DejaVuSans" font-size="10.00">MainWindow::MainWindow</text>
</g>
<!-- Node2 -->
<g id="node3" class="node"><title>Node2</title>
<a xlink:href="class_storage_character.html#a50022b948be1e566d902d64095c4470b" target="_top" xlink:title="StorageCharacter::getInstance">
<polygon fill="white" stroke="black" points="174,-120.5 174,-141.5 338,-141.5 338,-120.5 174,-120.5"/>
<text text-anchor="middle" x="256" y="-128.5" font-family="DejaVuSans" font-size="10.00">StorageCharacter::getInstance</text>
</a>
</g>
<!-- Node1&#45;&gt;Node2 -->
<g id="edge2" class="edge"><title>Node1&#45;&gt;Node2</title>
<path fill="none" stroke="midnightblue" d="M94.1505,-81.5972C115.23,-90.2321 146.246,-102.366 174,-111 181.945,-113.472 190.399,-115.831 198.747,-118.006"/>
<polygon fill="midnightblue" stroke="midnightblue" points="197.906,-121.403 208.459,-120.47 199.627,-114.618 197.906,-121.403"/>
</g>
<!-- Node3 -->
<g id="node5" class="node"><title>Node3</title>
<a xlink:href="class_config.html#a207b413a92300d09acb205a2d21a8734" target="_top" xlink:title="Config::name">
<polygon fill="white" stroke="black" points="216,-80.5 216,-101.5 296,-101.5 296,-80.5 216,-80.5"/>
<text text-anchor="middle" x="256" y="-88.5" font-family="DejaVuSans" font-size="10.00">Config::name</text>
</a>
</g>
<!-- Node1&#45;&gt;Node3 -->
<g id="edge4" class="edge"><title>Node1&#45;&gt;Node3</title>
<path fill="none" stroke="midnightblue" d="M137.57,-78.3337C160.234,-80.7576 185.005,-83.407 206.008,-85.6532"/>
<polygon fill="midnightblue" stroke="midnightblue" points="205.674,-89.1374 215.99,-86.7208 206.419,-82.1771 205.674,-89.1374"/>
</g>
<!-- Node4 -->
<g id="node7" class="node"><title>Node4</title>
<a xlink:href="class_config.html#a77bc8861add4e417c0c5987eed2359cb" target="_top" xlink:title="Config::version">
<polygon fill="white" stroke="black" points="212.5,-40.5 212.5,-61.5 299.5,-61.5 299.5,-40.5 212.5,-40.5"/>
<text text-anchor="middle" x="256" y="-48.5" font-family="DejaVuSans" font-size="10.00">Config::version</text>
</a>
</g>
<!-- Node1&#45;&gt;Node4 -->
<g id="edge6" class="edge"><title>Node1&#45;&gt;Node4</title>
<path fill="none" stroke="midnightblue" d="M137.57,-63.6663C158.971,-61.3774 182.253,-58.8874 202.465,-56.7257"/>
<polygon fill="midnightblue" stroke="midnightblue" points="202.851,-60.2044 212.422,-55.6607 202.107,-53.2441 202.851,-60.2044"/>
</g>
<!-- Node5 -->
<g id="node9" class="node"><title>Node5</title>
<a xlink:href="class_config.html#a72065f6cbd1dcea2249353872493748b" target="_top" xlink:title="Config::versionDetail">
<polygon fill="white" stroke="black" points="198.5,-0.5 198.5,-21.5 313.5,-21.5 313.5,-0.5 198.5,-0.5"/>
<text text-anchor="middle" x="256" y="-8.5" font-family="DejaVuSans" font-size="10.00">Config::versionDetail</text>
</a>
</g>
<!-- Node1&#45;&gt;Node5 -->
<g id="edge8" class="edge"><title>Node1&#45;&gt;Node5</title>
<path fill="none" stroke="midnightblue" d="M94.1505,-60.4028C115.23,-51.7679 146.246,-39.634 174,-31 181.945,-28.5284 190.399,-26.1693 198.747,-23.9944"/>
<polygon fill="midnightblue" stroke="midnightblue" points="199.627,-27.3819 208.459,-21.5301 197.906,-20.5969 199.627,-27.3819"/>
</g>
</g>
</svg>
