<?xml version="1.0" encoding="UTF-8" standalone="no"?>
<!DOCTYPE svg PUBLIC "-//W3C//DTD SVG 1.1//EN"
 "http://www.w3.org/Graphics/SVG/1.1/DTD/svg11.dtd">
<!-- Generated by graphviz version 2.26.3 (20100126.1600)
 -->
<!-- Title: G Pages: 1 -->
<svg width="346pt" height="110pt"
 viewBox="0.00 0.00 346.00 110.00" xmlns="http://www.w3.org/2000/svg" xmlns:xlink="http://www.w3.org/1999/xlink">
<g id="graph1" class="graph" transform="scale(1 1) rotate(0) translate(4 106)">
<title>G</title>
<polygon fill="white" stroke="white" points="-4,5 -4,-106 343,-106 343,5 -4,5"/>
<!-- Node1 -->
<g id="node1" class="node"><title>Node1</title>
<polygon fill="#bfbfbf" stroke="black" points="0.5,-40.5 0.5,-61.5 137.5,-61.5 137.5,-40.5 0.5,-40.5"/>
<text text-anchor="middle" x="69" y="-48.5" font-family="DejaVuSans" font-size="10.00">MainWindow::MainWindow</text>
</g>
<!-- Node2 -->
<g id="node3" class="node"><title>Node2</title>
<a xlink:href="class_storage_character.html#a50022b948be1e566d902d64095c4470b" target="_top" xlink:title="StorageCharacter::getInstance">
<polygon fill="white" stroke="black" points="174,-80.5 174,-101.5 338,-101.5 338,-80.5 174,-80.5"/>
<text text-anchor="middle" x="256" y="-88.5" font-family="DejaVuSans" font-size="10.00">StorageCharacter::getInstance</text>
</a>
</g>
<!-- Node1&#45;&gt;Node2 -->
<g id="edge2" class="edge"><title>Node1&#45;&gt;Node2</title>
<path fill="none" stroke="midnightblue" d="M118.132,-61.5095C142.302,-66.6795 171.62,-72.9508 196.996,-78.3788"/>
<polygon fill="midnightblue" stroke="midnightblue" points="196.361,-81.8221 206.872,-80.4913 197.825,-74.9769 196.361,-81.8221"/>
</g>
<!-- Node3 -->
<g id="node5" class="node"><title>Node3</title>
<a xlink:href="class_config.html#a207b413a92300d09acb205a2d21a8734" target="_top" xlink:title="Config::name">
<polygon fill="white" stroke="black" points="216,-40.5 216,-61.5 296,-61.5 296,-40.5 216,-40.5"/>
<text text-anchor="middle" x="256" y="-48.5" font-family="DejaVuSans" font-size="10.00">Config::name</text>
</a>
</g>
<!-- Node1&#45;&gt;Node3 -->
<g id="edge4" class="edge"><title>Node1&#45;&gt;Node3</title>
<path fill="none" stroke="midnightblue" d="M137.57,-51C160.131,-51 184.78,-51 205.721,-51"/>
<polygon fill="midnightblue" stroke="midnightblue" points="205.99,-54.5001 215.99,-51 205.99,-47.5001 205.99,-54.5001"/>
</g>
<!-- Node4 -->
<g id="node7" class="node"><title>Node4</title>
<a xlink:href="class_config.html#a77bc8861add4e417c0c5987eed2359cb" target="_top" xlink:title="Config::version">
<polygon fill="white" stroke="black" points="212.5,-0.5 212.5,-21.5 299.5,-21.5 299.5,-0.5 212.5,-0.5"/>
<text text-anchor="middle" x="256" y="-8.5" font-family="DejaVuSans" font-size="10.00">Config::version</text>
</a>
</g>
<!-- Node1&#45;&gt;Node4 -->
<g id="edge6" class="edge"><title>Node1&#45;&gt;Node4</title>
<path fill="none" stroke="midnightblue" d="M118.132,-40.4905C144.04,-34.9487 175.864,-28.1415 202.406,-22.4639"/>
<polygon fill="midnightblue" stroke="midnightblue" points="203.25,-25.8626 212.297,-20.3482 201.786,-19.0175 203.25,-25.8626"/>
</g>
</g>
</svg>
