<?xml version="1.0" encoding="UTF-8" standalone="no"?>
<!DOCTYPE svg PUBLIC "-//W3C//DTD SVG 1.1//EN"
 "http://www.w3.org/Graphics/SVG/1.1/DTD/svg11.dtd">
<!-- Generated by graphviz version 2.26.3 (20100126.1600)
 -->
<!-- Title: G Pages: 1 -->
<svg width="600pt" height="149pt"
 viewBox="0.00 0.00 600.00 149.00" xmlns="http://www.w3.org/2000/svg" xmlns:xlink="http://www.w3.org/1999/xlink">
<g id="graph1" class="graph" transform="scale(1 1) rotate(0) translate(4 145)">
<title>G</title>
<polygon fill="white" stroke="white" points="-4,5 -4,-145 597,-145 597,5 -4,5"/>
<!-- Node1 -->
<g id="node1" class="node"><title>Node1</title>
<polygon fill="#bfbfbf" stroke="black" points="0,-59.5 0,-80.5 142,-80.5 142,-59.5 0,-59.5"/>
<text text-anchor="middle" x="71" y="-67.5" font-family="DejaVuSans" font-size="10.00">CharaTrait::setCustomText</text>
</g>
<!-- Node2 -->
<g id="node3" class="node"><title>Node2</title>
<a xlink:href="class_chara_trait.html#a7cc9b10030c5e6d5030fb898506ee070" target="_top" xlink:title="CharaTrait::customText">
<polygon fill="white" stroke="black" points="182.5,-118.5 182.5,-139.5 307.5,-139.5 307.5,-118.5 182.5,-118.5"/>
<text text-anchor="middle" x="245" y="-126.5" font-family="DejaVuSans" font-size="10.00">CharaTrait::customText</text>
</a>
</g>
<!-- Node1&#45;&gt;Node2 -->
<g id="edge2" class="edge"><title>Node1&#45;&gt;Node2</title>
<path fill="none" stroke="midnightblue" d="M102.108,-80.548C130.598,-90.2085 172.956,-104.571 204.161,-115.152"/>
<polygon fill="midnightblue" stroke="midnightblue" points="203.274,-118.547 213.869,-118.444 205.522,-111.918 203.274,-118.547"/>
</g>
<!-- Node5 -->
<g id="node9" class="node"><title>Node5</title>
<a xlink:href="class_chara_trait.html#ae8854bf878fa9aab4dafc27a943d05b6" target="_top" xlink:title="CharaTrait::traitPtr">
<polygon fill="white" stroke="black" points="353,-79.5 353,-100.5 457,-100.5 457,-79.5 353,-79.5"/>
<text text-anchor="middle" x="405" y="-87.5" font-family="DejaVuSans" font-size="10.00">CharaTrait::traitPtr</text>
</a>
</g>
<!-- Node1&#45;&gt;Node5 -->
<g id="edge14" class="edge"><title>Node1&#45;&gt;Node5</title>
<path fill="none" stroke="midnightblue" d="M142.242,-74.266C201.761,-77.83 285.79,-82.8617 342.672,-86.2678"/>
<polygon fill="midnightblue" stroke="midnightblue" points="342.774,-89.7801 352.966,-86.8842 343.193,-82.7926 342.774,-89.7801"/>
</g>
<!-- Node6 -->
<g id="node11" class="node"><title>Node6</title>
<a xlink:href="classcv___trait.html#af2625cf5c0ccfb79c13f7a50192a2c27" target="_top" xlink:title="cv_Trait::setCustomText">
<polygon fill="white" stroke="black" points="180.5,-40.5 180.5,-61.5 309.5,-61.5 309.5,-40.5 180.5,-40.5"/>
<text text-anchor="middle" x="245" y="-48.5" font-family="DejaVuSans" font-size="10.00">cv_Trait::setCustomText</text>
</a>
</g>
<!-- Node1&#45;&gt;Node6 -->
<g id="edge10" class="edge"><title>Node1&#45;&gt;Node6</title>
<path fill="none" stroke="midnightblue" d="M142.023,-62.2446C151.34,-61.2273 160.909,-60.1823 170.284,-59.1586"/>
<polygon fill="midnightblue" stroke="midnightblue" points="170.799,-62.6233 180.36,-58.0584 170.039,-55.6647 170.799,-62.6233"/>
</g>
<!-- Node7 -->
<g id="node13" class="node"><title>Node7</title>
<a xlink:href="class_chara_trait.html#ab3935a94198f510d3de473a9a72692ac" target="_top" xlink:title="CharaTrait::traitChanged">
<polygon fill="white" stroke="black" points="178.5,-0.5 178.5,-21.5 311.5,-21.5 311.5,-0.5 178.5,-0.5"/>
<text text-anchor="middle" x="245" y="-8.5" font-family="DejaVuSans" font-size="10.00">CharaTrait::traitChanged</text>
</a>
</g>
<!-- Node1&#45;&gt;Node7 -->
<g id="edge12" class="edge"><title>Node1&#45;&gt;Node7</title>
<path fill="none" stroke="midnightblue" d="M98.5546,-59.4454C120.072,-51.3278 150.784,-40.013 178,-31 184.581,-28.8205 191.56,-26.6181 198.432,-24.5115"/>
<polygon fill="midnightblue" stroke="midnightblue" points="199.807,-27.7525 208.365,-21.5074 197.78,-21.0522 199.807,-27.7525"/>
</g>
<!-- Node3 -->
<g id="node5" class="node"><title>Node3</title>
<a xlink:href="classcv___trait.html#adee2adf82138573180ff0d1486974ff6" target="_top" xlink:title="cv_Trait::customText">
<polygon fill="white" stroke="black" points="348.5,-119.5 348.5,-140.5 461.5,-140.5 461.5,-119.5 348.5,-119.5"/>
<text text-anchor="middle" x="405" y="-127.5" font-family="DejaVuSans" font-size="10.00">cv_Trait::customText</text>
</a>
</g>
<!-- Node2&#45;&gt;Node3 -->
<g id="edge4" class="edge"><title>Node2&#45;&gt;Node3</title>
<path fill="none" stroke="midnightblue" d="M307.777,-129.392C317.823,-129.455 328.25,-129.52 338.382,-129.584"/>
<polygon fill="midnightblue" stroke="midnightblue" points="338.369,-133.084 348.39,-129.646 338.412,-126.084 338.369,-133.084"/>
</g>
<!-- Node2&#45;&gt;Node5 -->
<g id="edge8" class="edge"><title>Node2&#45;&gt;Node5</title>
<path fill="none" stroke="midnightblue" d="M288.298,-118.446C307.864,-113.677 331.168,-107.997 351.788,-102.97"/>
<polygon fill="midnightblue" stroke="midnightblue" points="352.78,-106.331 361.667,-100.562 351.123,-99.5302 352.78,-106.331"/>
</g>
<!-- Node4 -->
<g id="node7" class="node"><title>Node4</title>
<a xlink:href="classcv___trait.html#af96ea047974ec3f6bb2cd1b0ade7cf13" target="_top" xlink:title="cv_Trait::custom">
<polygon fill="white" stroke="black" points="498,-119.5 498,-140.5 592,-140.5 592,-119.5 498,-119.5"/>
<text text-anchor="middle" x="545" y="-127.5" font-family="DejaVuSans" font-size="10.00">cv_Trait::custom</text>
</a>
</g>
<!-- Node3&#45;&gt;Node4 -->
<g id="edge6" class="edge"><title>Node3&#45;&gt;Node4</title>
<path fill="none" stroke="midnightblue" d="M461.54,-130C470.064,-130 478.866,-130 487.412,-130"/>
<polygon fill="midnightblue" stroke="midnightblue" points="487.674,-133.5 497.674,-130 487.674,-126.5 487.674,-133.5"/>
</g>
</g>
</svg>
