<?xml version="1.0" encoding="UTF-8" standalone="no"?>
<!DOCTYPE svg PUBLIC "-//W3C//DTD SVG 1.1//EN"
 "http://www.w3.org/Graphics/SVG/1.1/DTD/svg11.dtd">
<!-- Generated by graphviz version 2.26.3 (20100126.1600)
 -->
<!-- Title: G Pages: 1 -->
<svg width="300pt" height="150pt"
 viewBox="0.00 0.00 300.00 150.00" xmlns="http://www.w3.org/2000/svg" xmlns:xlink="http://www.w3.org/1999/xlink">
<g id="graph1" class="graph" transform="scale(1 1) rotate(0) translate(4 146)">
<title>G</title>
<polygon fill="white" stroke="white" points="-4,5 -4,-146 297,-146 297,5 -4,5"/>
<!-- Node1 -->
<g id="node1" class="node"><title>Node1</title>
<polygon fill="#bfbfbf" stroke="black" points="0,-60.5 0,-81.5 116,-81.5 116,-60.5 0,-60.5"/>
<text text-anchor="middle" x="58" y="-68.5" font-family="DejaVuSans" font-size="10.00">cv_Trait::operator==</text>
</g>
<!-- Node2 -->
<g id="node3" class="node"><title>Node2</title>
<a xlink:href="classcv___abstract_trait.html#a0735a751e8ce6edb85957bcfb2a723f7" target="_top" xlink:title="cv_AbstractTrait::category">
<polygon fill="white" stroke="black" points="152,-120.5 152,-141.5 292,-141.5 292,-120.5 152,-120.5"/>
<text text-anchor="middle" x="222" y="-128.5" font-family="DejaVuSans" font-size="10.00">cv_AbstractTrait::category</text>
</a>
</g>
<!-- Node1&#45;&gt;Node2 -->
<g id="edge2" class="edge"><title>Node1&#45;&gt;Node2</title>
<path fill="none" stroke="midnightblue" d="M80.8627,-81.6727C99.7054,-90.2386 127.257,-102.239 152,-111 158.404,-113.268 165.205,-115.465 171.953,-117.521"/>
<polygon fill="midnightblue" stroke="midnightblue" points="171.168,-120.939 181.751,-120.424 173.157,-114.227 171.168,-120.939"/>
</g>
<!-- Node3 -->
<g id="node5" class="node"><title>Node3</title>
<a xlink:href="classcv___abstract_trait.html#a3bbbc5a0073617a70c86741d4c918576" target="_top" xlink:title="cv_AbstractTrait::name">
<polygon fill="white" stroke="black" points="159,-80.5 159,-101.5 285,-101.5 285,-80.5 159,-80.5"/>
<text text-anchor="middle" x="222" y="-88.5" font-family="DejaVuSans" font-size="10.00">cv_AbstractTrait::name</text>
</a>
</g>
<!-- Node1&#45;&gt;Node3 -->
<g id="edge4" class="edge"><title>Node1&#45;&gt;Node3</title>
<path fill="none" stroke="midnightblue" d="M116.282,-78.1076C126.855,-79.397 138.004,-80.7566 148.939,-82.0901"/>
<polygon fill="midnightblue" stroke="midnightblue" points="148.547,-85.5682 158.898,-83.3046 149.395,-78.6197 148.547,-85.5682"/>
</g>
<!-- Node4 -->
<g id="node7" class="node"><title>Node4</title>
<a xlink:href="classcv___abstract_trait.html#a5550607235c2a5875f84d13fb6f9aa3f" target="_top" xlink:title="cv_AbstractTrait::species">
<polygon fill="white" stroke="black" points="155,-40.5 155,-61.5 289,-61.5 289,-40.5 155,-40.5"/>
<text text-anchor="middle" x="222" y="-48.5" font-family="DejaVuSans" font-size="10.00">cv_AbstractTrait::species</text>
</a>
</g>
<!-- Node1&#45;&gt;Node4 -->
<g id="edge6" class="edge"><title>Node1&#45;&gt;Node4</title>
<path fill="none" stroke="midnightblue" d="M116.282,-63.8924C125.575,-62.7591 135.313,-61.5716 144.959,-60.3953"/>
<polygon fill="midnightblue" stroke="midnightblue" points="145.452,-63.8611 154.955,-59.1762 144.605,-56.9126 145.452,-63.8611"/>
</g>
<!-- Node5 -->
<g id="node9" class="node"><title>Node5</title>
<a xlink:href="classcv___abstract_trait.html#aba0dfcb5b539afe0db14c6e3c4ddd4bc" target="_top" xlink:title="cv_AbstractTrait::type">
<polygon fill="white" stroke="black" points="162.5,-0.5 162.5,-21.5 281.5,-21.5 281.5,-0.5 162.5,-0.5"/>
<text text-anchor="middle" x="222" y="-8.5" font-family="DejaVuSans" font-size="10.00">cv_AbstractTrait::type</text>
</a>
</g>
<!-- Node1&#45;&gt;Node5 -->
<g id="edge8" class="edge"><title>Node1&#45;&gt;Node5</title>
<path fill="none" stroke="midnightblue" d="M80.8627,-60.3273C99.7054,-51.7614 127.257,-39.7613 152,-31 158.404,-28.7325 165.205,-26.5354 171.953,-24.4793"/>
<polygon fill="midnightblue" stroke="midnightblue" points="173.157,-27.7729 181.751,-21.5758 171.168,-21.0615 173.157,-27.7729"/>
</g>
</g>
</svg>
