<?xml version="1.0" encoding="UTF-8" standalone="no"?>
<!DOCTYPE svg PUBLIC "-//W3C//DTD SVG 1.1//EN"
 "http://www.w3.org/Graphics/SVG/1.1/DTD/svg11.dtd">
<!-- Generated by graphviz version 2.26.3 (20100126.1600)
 -->
<!-- Title: G Pages: 1 -->
<svg width="302pt" height="150pt"
 viewBox="0.00 0.00 302.00 150.00" xmlns="http://www.w3.org/2000/svg" xmlns:xlink="http://www.w3.org/1999/xlink">
<g id="graph1" class="graph" transform="scale(1 1) rotate(0) translate(4 146)">
<title>G</title>
<polygon fill="white" stroke="white" points="-4,5 -4,-146 299,-146 299,5 -4,5"/>
<!-- Node1 -->
<g id="node1" class="node"><title>Node1</title>
<polygon fill="#bfbfbf" stroke="black" points="0.5,-60.5 0.5,-81.5 123.5,-81.5 123.5,-60.5 0.5,-60.5"/>
<text text-anchor="middle" x="62" y="-68.5" font-family="DejaVuSans" font-size="10.00">CharaTrait::setCustom</text>
</g>
<!-- Node2 -->
<g id="node3" class="node"><title>Node2</title>
<a xlink:href="classcv___trait.html#af96ea047974ec3f6bb2cd1b0ade7cf13" target="_top" xlink:title="cv_Trait::custom">
<polygon fill="white" stroke="black" points="180,-120.5 180,-141.5 274,-141.5 274,-120.5 180,-120.5"/>
<text text-anchor="middle" x="227" y="-128.5" font-family="DejaVuSans" font-size="10.00">cv_Trait::custom</text>
</a>
</g>
<!-- Node1&#45;&gt;Node2 -->
<g id="edge2" class="edge"><title>Node1&#45;&gt;Node2</title>
<path fill="none" stroke="midnightblue" d="M85.913,-81.5242C105.602,-90.0039 134.349,-101.961 160,-111 166.308,-113.223 173.004,-115.415 179.628,-117.487"/>
<polygon fill="midnightblue" stroke="midnightblue" points="178.644,-120.846 189.23,-120.427 180.693,-114.153 178.644,-120.846"/>
</g>
<!-- Node3 -->
<g id="node5" class="node"><title>Node3</title>
<a xlink:href="classcv___trait.html#a53165218ab534ea949fa036f91da8bd7" target="_top" xlink:title="cv_Trait::setCustom">
<polygon fill="white" stroke="black" points="172,-80.5 172,-101.5 282,-101.5 282,-80.5 172,-80.5"/>
<text text-anchor="middle" x="227" y="-88.5" font-family="DejaVuSans" font-size="10.00">cv_Trait::setCustom</text>
</a>
</g>
<!-- Node1&#45;&gt;Node3 -->
<g id="edge4" class="edge"><title>Node1&#45;&gt;Node3</title>
<path fill="none" stroke="midnightblue" d="M123.909,-78.5042C136.197,-79.9936 149.136,-81.5619 161.538,-83.0652"/>
<polygon fill="midnightblue" stroke="midnightblue" points="161.454,-86.5806 171.803,-84.3094 162.297,-79.6315 161.454,-86.5806"/>
</g>
<!-- Node4 -->
<g id="node7" class="node"><title>Node4</title>
<a xlink:href="class_chara_trait.html#ab3935a94198f510d3de473a9a72692ac" target="_top" xlink:title="CharaTrait::traitChanged">
<polygon fill="white" stroke="black" points="160.5,-40.5 160.5,-61.5 293.5,-61.5 293.5,-40.5 160.5,-40.5"/>
<text text-anchor="middle" x="227" y="-48.5" font-family="DejaVuSans" font-size="10.00">CharaTrait::traitChanged</text>
</a>
</g>
<!-- Node1&#45;&gt;Node4 -->
<g id="edge6" class="edge"><title>Node1&#45;&gt;Node4</title>
<path fill="none" stroke="midnightblue" d="M123.909,-63.4958C132.547,-62.4489 141.505,-61.363 150.373,-60.2881"/>
<polygon fill="midnightblue" stroke="midnightblue" points="150.819,-63.7598 160.325,-59.0818 149.976,-56.8107 150.819,-63.7598"/>
</g>
<!-- Node5 -->
<g id="node9" class="node"><title>Node5</title>
<a xlink:href="class_chara_trait.html#ae8854bf878fa9aab4dafc27a943d05b6" target="_top" xlink:title="CharaTrait::traitPtr">
<polygon fill="white" stroke="black" points="175,-0.5 175,-21.5 279,-21.5 279,-0.5 175,-0.5"/>
<text text-anchor="middle" x="227" y="-8.5" font-family="DejaVuSans" font-size="10.00">CharaTrait::traitPtr</text>
</a>
</g>
<!-- Node1&#45;&gt;Node5 -->
<g id="edge8" class="edge"><title>Node1&#45;&gt;Node5</title>
<path fill="none" stroke="midnightblue" d="M85.913,-60.4758C105.602,-51.9961 134.349,-40.0393 160,-31 166.308,-28.7772 173.004,-26.5848 179.628,-24.5128"/>
<polygon fill="midnightblue" stroke="midnightblue" points="180.693,-27.8473 189.23,-21.5734 178.644,-21.1539 180.693,-27.8473"/>
</g>
</g>
</svg>
