<?xml version="1.0" encoding="UTF-8" standalone="no"?>
<!DOCTYPE svg PUBLIC "-//W3C//DTD SVG 1.1//EN"
 "http://www.w3.org/Graphics/SVG/1.1/DTD/svg11.dtd">
<!-- Generated by graphviz version 2.26.3 (20100126.1600)
 -->
<!-- Title: G Pages: 1 -->
<svg width="978pt" height="30pt"
 viewBox="0.00 0.00 978.00 30.00" xmlns="http://www.w3.org/2000/svg" xmlns:xlink="http://www.w3.org/1999/xlink">
<g id="graph1" class="graph" transform="scale(1 1) rotate(0) translate(4 26)">
<title>G</title>
<polygon fill="white" stroke="white" points="-4,5 -4,-26 975,-26 975,5 -4,5"/>
<!-- Node1 -->
<g id="node1" class="node"><title>Node1</title>
<polygon fill="#bfbfbf" stroke="black" points="0.5,-0.5 0.5,-21.5 129.5,-21.5 129.5,-0.5 0.5,-0.5"/>
<text text-anchor="middle" x="65" y="-8.5" font-family="DejaVuSans" font-size="10.00">ReadTemplate::closeFile</text>
</g>
<!-- Node2 -->
<g id="node3" class="node"><title>Node2</title>
<a xlink:href="class_read_template.html#ad7023d8c02891c892ea33808363bbcd2" target="_top" xlink:title="ReadTemplate::readXml">
<polygon fill="white" stroke="black" points="166.5,-0.5 166.5,-21.5 295.5,-21.5 295.5,-0.5 166.5,-0.5"/>
<text text-anchor="middle" x="231" y="-8.5" font-family="DejaVuSans" font-size="10.00">ReadTemplate::readXml</text>
</a>
</g>
<!-- Node1&#45;&gt;Node2 -->
<g id="edge2" class="edge"><title>Node1&#45;&gt;Node2</title>
<path fill="none" stroke="midnightblue" d="M139.898,-11C148.693,-11 157.609,-11 166.248,-11"/>
<polygon fill="midnightblue" stroke="midnightblue" points="139.655,-7.5001 129.655,-11 139.655,-14.5001 139.655,-7.5001"/>
</g>
<!-- Node3 -->
<g id="node5" class="node"><title>Node3</title>
<a xlink:href="class_read_template.html#a229f7cd3bfc1d0c47caa2cec3a5a0621" target="_top" xlink:title="ReadTemplate::process">
<polygon fill="white" stroke="black" points="332.5,-0.5 332.5,-21.5 459.5,-21.5 459.5,-0.5 332.5,-0.5"/>
<text text-anchor="middle" x="396" y="-8.5" font-family="DejaVuSans" font-size="10.00">ReadTemplate::process</text>
</a>
</g>
<!-- Node2&#45;&gt;Node3 -->
<g id="edge4" class="edge"><title>Node2&#45;&gt;Node3</title>
<path fill="none" stroke="midnightblue" d="M305.971,-11C314.753,-11 323.65,-11 332.259,-11"/>
<polygon fill="midnightblue" stroke="midnightblue" points="305.739,-7.5001 295.739,-11 305.739,-14.5001 305.739,-7.5001"/>
</g>
<!-- Node4 -->
<g id="node7" class="node"><title>Node4</title>
<a xlink:href="class_read_template.html#a3eb0cc39155f082c8c1d71521431e9f4" target="_top" xlink:title="ReadTemplate::read">
<polygon fill="white" stroke="black" points="496.5,-0.5 496.5,-21.5 607.5,-21.5 607.5,-0.5 496.5,-0.5"/>
<text text-anchor="middle" x="552" y="-8.5" font-family="DejaVuSans" font-size="10.00">ReadTemplate::read</text>
</a>
</g>
<!-- Node3&#45;&gt;Node4 -->
<g id="edge6" class="edge"><title>Node3&#45;&gt;Node4</title>
<path fill="none" stroke="midnightblue" d="M469.921,-11C478.845,-11 487.84,-11 496.437,-11"/>
<polygon fill="midnightblue" stroke="midnightblue" points="469.901,-7.5001 459.901,-11 469.901,-14.5001 469.901,-7.5001"/>
</g>
<!-- Node5 -->
<g id="node9" class="node"><title>Node5</title>
<a xlink:href="class_main_window.html#a1ebe4d2e06ddd16007a29bd1b8c09c49" target="_top" xlink:title="MainWindow::storeTemplateData">
<polygon fill="white" stroke="black" points="644.5,-0.5 644.5,-21.5 815.5,-21.5 815.5,-0.5 644.5,-0.5"/>
<text text-anchor="middle" x="730" y="-8.5" font-family="DejaVuSans" font-size="10.00">MainWindow::storeTemplateData</text>
</a>
</g>
<!-- Node4&#45;&gt;Node5 -->
<g id="edge8" class="edge"><title>Node4&#45;&gt;Node5</title>
<path fill="none" stroke="midnightblue" d="M618.109,-11C626.676,-11 635.548,-11 644.375,-11"/>
<polygon fill="midnightblue" stroke="midnightblue" points="617.832,-7.5001 607.832,-11 617.832,-14.5001 617.832,-7.5001"/>
</g>
<!-- Node6 -->
<g id="node11" class="node"><title>Node6</title>
<a xlink:href="class_main_window.html#a43f05c4d3f5d840d070829d3291c9ec7" target="_top" xlink:title="MainWindow::initialize">
<polygon fill="white" stroke="black" points="852,-0.5 852,-21.5 970,-21.5 970,-0.5 852,-0.5"/>
<text text-anchor="middle" x="911" y="-8.5" font-family="DejaVuSans" font-size="10.00">MainWindow::initialize</text>
</a>
</g>
<!-- Node5&#45;&gt;Node6 -->
<g id="edge10" class="edge"><title>Node5&#45;&gt;Node6</title>
<path fill="none" stroke="midnightblue" d="M825.781,-11C834.675,-11 843.5,-11 851.912,-11"/>
<polygon fill="midnightblue" stroke="midnightblue" points="825.73,-7.5001 815.73,-11 825.729,-14.5001 825.73,-7.5001"/>
</g>
</g>
</svg>
