<?xml version="1.0" encoding="UTF-8" standalone="no"?>
<!DOCTYPE svg PUBLIC "-//W3C//DTD SVG 1.1//EN"
 "http://www.w3.org/Graphics/SVG/1.1/DTD/svg11.dtd">
<!-- Generated by graphviz version 2.26.3 (20100126.1600)
 -->
<!-- Title: G Pages: 1 -->
<svg width="616pt" height="510pt"
 viewBox="0.00 0.00 616.00 510.00" xmlns="http://www.w3.org/2000/svg" xmlns:xlink="http://www.w3.org/1999/xlink">
<g id="graph1" class="graph" transform="scale(1 1) rotate(0) translate(4 506)">
<title>G</title>
<polygon fill="white" stroke="white" points="-4,5 -4,-506 613,-506 613,5 -4,5"/>
<!-- Node1 -->
<g id="node1" class="node"><title>Node1</title>
<polygon fill="#bfbfbf" stroke="black" points="0,-240.5 0,-261.5 46,-261.5 46,-240.5 0,-240.5"/>
<text text-anchor="middle" x="23" y="-248.5" font-family="DejaVuSans" font-size="10.00">object</text>
</g>
<!-- Node2 -->
<g id="node3" class="node"><title>Node2</title>
<a xlink:href="classsrc_1_1_calc_1_1_calc_shapes_1_1_calc_shapes.html" target="_top" xlink:title="Einfache Berechnungen betreffend des unterschiedlichen Werwolf&#45;Gestalten.">
<polygon fill="white" stroke="black" points="127.5,-480.5 127.5,-501.5 300.5,-501.5 300.5,-480.5 127.5,-480.5"/>
<text text-anchor="middle" x="214" y="-488.5" font-family="DejaVuSans" font-size="10.00">src.Calc.CalcShapes.CalcShapes</text>
</a>
</g>
<!-- Node1&#45;&gt;Node2 -->
<g id="edge2" class="edge"><title>Node1&#45;&gt;Node2</title>
<path fill="none" stroke="midnightblue" d="M25.6746,-271.817C32.4783,-321.376 52.0538,-444.223 82,-471 94.6132,-482.278 110.766,-488.751 127.415,-492.241"/>
<polygon fill="midnightblue" stroke="midnightblue" points="29.1099,-271.099 24.3183,-261.65 22.1714,-272.025 29.1099,-271.099"/>
</g>
<!-- Node3 -->
<g id="node5" class="node"><title>Node3</title>
<a xlink:href="classsrc_1_1_calc_1_1_connect_prerequisites_1_1_connect_prerequisites.html" target="_top" xlink:title="???">
<polygon fill="white" stroke="black" points="82,-440.5 82,-461.5 346,-461.5 346,-440.5 82,-440.5"/>
<text text-anchor="middle" x="214" y="-448.5" font-family="DejaVuSans" font-size="10.00">src.Calc.ConnectPrerequisites.ConnectPrerequisites</text>
</a>
</g>
<!-- Node1&#45;&gt;Node3 -->
<g id="edge4" class="edge"><title>Node1&#45;&gt;Node3</title>
<path fill="none" stroke="midnightblue" d="M26.914,-271.433C35.4912,-314.005 57.1727,-409.994 82,-431 86.2467,-434.593 90.8573,-437.688 95.7263,-440.347"/>
<polygon fill="midnightblue" stroke="midnightblue" points="30.3466,-270.749 24.9785,-261.615 23.4787,-272.103 30.3466,-270.749"/>
</g>
<!-- Node4 -->
<g id="node7" class="node"><title>Node4</title>
<a xlink:href="classsrc_1_1_config_1_1_config.html" target="_top" xlink:title="Konfigurationsklasse des Programms.">
<polygon fill="white" stroke="black" points="165.5,-400.5 165.5,-421.5 262.5,-421.5 262.5,-400.5 165.5,-400.5"/>
<text text-anchor="middle" x="214" y="-408.5" font-family="DejaVuSans" font-size="10.00">src.Config.Config</text>
</a>
</g>
<!-- Node1&#45;&gt;Node4 -->
<g id="edge6" class="edge"><title>Node1&#45;&gt;Node4</title>
<path fill="none" stroke="midnightblue" d="M25.3962,-271.645C30.1876,-302.828 43.9912,-361.43 82,-391 105.325,-409.146 138.159,-414.178 165.244,-414.658"/>
<polygon fill="midnightblue" stroke="midnightblue" points="28.8319,-270.936 24.0106,-261.502 21.8964,-271.884 28.8319,-270.936"/>
</g>
<!-- Node5 -->
<g id="node9" class="node"><title>Node5</title>
<a xlink:href="classsrc_1_1_global_state_1_1_global_state.html" target="_top" xlink:title="Diese Klasse speichert alle globalen Einstellungen für das Programm.">
<polygon fill="white" stroke="black" points="139.5,-360.5 139.5,-381.5 288.5,-381.5 288.5,-360.5 139.5,-360.5"/>
<text text-anchor="middle" x="214" y="-368.5" font-family="DejaVuSans" font-size="10.00">src.GlobalState.GlobalState</text>
</a>
</g>
<!-- Node1&#45;&gt;Node5 -->
<g id="edge8" class="edge"><title>Node1&#45;&gt;Node5</title>
<path fill="none" stroke="midnightblue" d="M29.0153,-271.149C37.08,-294.414 53.7533,-331.92 82,-351 98.7102,-362.287 119.308,-368.212 139.221,-371.117"/>
<polygon fill="midnightblue" stroke="midnightblue" points="32.3247,-270.008 25.905,-261.58 25.6675,-272.172 32.3247,-270.008"/>
</g>
<!-- Node6 -->
<g id="node11" class="node"><title>Node6</title>
<a xlink:href="classsrc_1_1_i_o_1_1_read_xml_1_1_read_xml.html" target="_top" xlink:title="Liest aus Xml&#45;Dateien.">
<polygon fill="white" stroke="black" points="148.5,-320.5 148.5,-341.5 279.5,-341.5 279.5,-320.5 148.5,-320.5"/>
<text text-anchor="middle" x="214" y="-328.5" font-family="DejaVuSans" font-size="10.00">src.IO.ReadXml.ReadXml</text>
</a>
</g>
<!-- Node1&#45;&gt;Node6 -->
<g id="edge10" class="edge"><title>Node1&#45;&gt;Node6</title>
<path fill="none" stroke="midnightblue" d="M36.5223,-270.274C47.2251,-283.957 63.4285,-301.518 82,-311 102.23,-321.329 126.316,-326.681 148.34,-329.353"/>
<polygon fill="midnightblue" stroke="midnightblue" points="39.1037,-267.881 30.3138,-261.966 33.4964,-272.072 39.1037,-267.881"/>
</g>
<!-- Node9 -->
<g id="node17" class="node"><title>Node9</title>
<a xlink:href="classui_1_1ui___advantages_widget_1_1_ui___advantages_widget.html" target="_top" xlink:title="ui.ui_AdvantagesWidget.Ui_AdvantagesWidget">
<polygon fill="white" stroke="black" points="95,-280.5 95,-301.5 333,-301.5 333,-280.5 95,-280.5"/>
<text text-anchor="middle" x="214" y="-288.5" font-family="DejaVuSans" font-size="10.00">ui.ui_AdvantagesWidget.Ui_AdvantagesWidget</text>
</a>
</g>
<!-- Node1&#45;&gt;Node9 -->
<g id="edge16" class="edge"><title>Node1&#45;&gt;Node9</title>
<path fill="none" stroke="midnightblue" d="M55.7939,-263.26C64.2461,-266.103 73.3891,-268.906 82,-271 97.2021,-274.698 113.564,-277.836 129.418,-280.452"/>
<polygon fill="midnightblue" stroke="midnightblue" points="56.857,-259.924 46.2622,-259.944 54.5571,-266.536 56.857,-259.924"/>
</g>
<!-- Node10 -->
<g id="node19" class="node"><title>Node10</title>
<a xlink:href="classui_1_1ui___info_widget_1_1_ui___info_widget.html" target="_top" xlink:title="ui.ui_InfoWidget.Ui_InfoWidget">
<polygon fill="white" stroke="black" points="135,-240.5 135,-261.5 293,-261.5 293,-240.5 135,-240.5"/>
<text text-anchor="middle" x="214" y="-248.5" font-family="DejaVuSans" font-size="10.00">ui.ui_InfoWidget.Ui_InfoWidget</text>
</a>
</g>
<!-- Node1&#45;&gt;Node10 -->
<g id="edge18" class="edge"><title>Node1&#45;&gt;Node10</title>
<path fill="none" stroke="midnightblue" d="M56.3264,-251C77.9872,-251 107.196,-251 134.587,-251"/>
<polygon fill="midnightblue" stroke="midnightblue" points="56.0391,-247.5 46.0391,-251 56.039,-254.5 56.0391,-247.5"/>
</g>
<!-- Node11 -->
<g id="node21" class="node"><title>Node11</title>
<a xlink:href="classui_1_1ui___item_dialog_1_1_ui___item_dialog.html" target="_top" xlink:title="ui.ui_ItemDialog.Ui_ItemDialog">
<polygon fill="white" stroke="black" points="132.5,-200.5 132.5,-221.5 295.5,-221.5 295.5,-200.5 132.5,-200.5"/>
<text text-anchor="middle" x="214" y="-208.5" font-family="DejaVuSans" font-size="10.00">ui.ui_ItemDialog.Ui_ItemDialog</text>
</a>
</g>
<!-- Node1&#45;&gt;Node11 -->
<g id="edge20" class="edge"><title>Node1&#45;&gt;Node11</title>
<path fill="none" stroke="midnightblue" d="M55.7939,-238.74C64.2461,-235.897 73.3891,-233.094 82,-231 98.1029,-227.083 115.508,-223.794 132.231,-221.088"/>
<polygon fill="midnightblue" stroke="midnightblue" points="54.5571,-235.464 46.2622,-242.056 56.857,-242.076 54.5571,-235.464"/>
</g>
<!-- Node12 -->
<g id="node23" class="node"><title>Node12</title>
<a xlink:href="classui_1_1ui___item_widget_1_1_ui___item_widget.html" target="_top" xlink:title="ui.ui_ItemWidget.Ui_ItemWidget">
<polygon fill="white" stroke="black" points="130.5,-160.5 130.5,-181.5 297.5,-181.5 297.5,-160.5 130.5,-160.5"/>
<text text-anchor="middle" x="214" y="-168.5" font-family="DejaVuSans" font-size="10.00">ui.ui_ItemWidget.Ui_ItemWidget</text>
</a>
</g>
<!-- Node1&#45;&gt;Node12 -->
<g id="edge22" class="edge"><title>Node1&#45;&gt;Node12</title>
<path fill="none" stroke="midnightblue" d="M36.5223,-231.726C47.2251,-218.043 63.4285,-200.482 82,-191 96.863,-183.411 113.807,-178.509 130.486,-175.382"/>
<polygon fill="midnightblue" stroke="midnightblue" points="33.4964,-229.928 30.3138,-240.034 39.1037,-234.119 33.4964,-229.928"/>
</g>
<!-- Node13 -->
<g id="node25" class="node"><title>Node13</title>
<a xlink:href="classui_1_1ui___main_window_1_1_ui___main_window.html" target="_top" xlink:title="ui.ui_MainWindow.Ui_MainWindow">
<polygon fill="white" stroke="black" points="127,-120.5 127,-141.5 301,-141.5 301,-120.5 127,-120.5"/>
<text text-anchor="middle" x="214" y="-128.5" font-family="DejaVuSans" font-size="10.00">ui.ui_MainWindow.Ui_MainWindow</text>
</a>
</g>
<!-- Node1&#45;&gt;Node13 -->
<g id="edge24" class="edge"><title>Node1&#45;&gt;Node13</title>
<path fill="none" stroke="midnightblue" d="M29.0153,-230.851C37.08,-207.586 53.7533,-170.08 82,-151 95.2529,-142.048 110.951,-136.469 126.814,-133.095"/>
<polygon fill="midnightblue" stroke="midnightblue" points="25.6675,-229.828 25.905,-240.42 32.3247,-231.992 25.6675,-229.828"/>
</g>
<!-- Node14 -->
<g id="node27" class="node"><title>Node14</title>
<a xlink:href="classui_1_1ui___name_dialog_1_1_ui___name_dialog.html" target="_top" xlink:title="ui.ui_NameDialog.Ui_NameDialog">
<polygon fill="white" stroke="black" points="125,-80.5 125,-101.5 303,-101.5 303,-80.5 125,-80.5"/>
<text text-anchor="middle" x="214" y="-88.5" font-family="DejaVuSans" font-size="10.00">ui.ui_NameDialog.Ui_NameDialog</text>
</a>
</g>
<!-- Node1&#45;&gt;Node14 -->
<g id="edge26" class="edge"><title>Node1&#45;&gt;Node14</title>
<path fill="none" stroke="midnightblue" d="M25.3962,-230.355C30.1876,-199.172 43.9912,-140.57 82,-111 94.3485,-101.393 109.362,-95.4621 124.777,-91.9361"/>
<polygon fill="midnightblue" stroke="midnightblue" points="21.8964,-230.116 24.0106,-240.498 28.8319,-231.064 21.8964,-230.116"/>
</g>
<!-- Node15 -->
<g id="node29" class="node"><title>Node15</title>
<a xlink:href="classui_1_1ui___select_merits_dialog_1_1_ui___select_merits_dialog.html" target="_top" xlink:title="ui.ui_SelectMeritsDialog.Ui_SelectMeritsDialog">
<polygon fill="white" stroke="black" points="95,-40.5 95,-61.5 333,-61.5 333,-40.5 95,-40.5"/>
<text text-anchor="middle" x="214" y="-48.5" font-family="DejaVuSans" font-size="10.00">ui.ui_SelectMeritsDialog.Ui_SelectMeritsDialog</text>
</a>
</g>
<!-- Node1&#45;&gt;Node15 -->
<g id="edge28" class="edge"><title>Node1&#45;&gt;Node15</title>
<path fill="none" stroke="midnightblue" d="M26.914,-230.567C35.4912,-187.995 57.1727,-92.0058 82,-71 86.2467,-67.407 90.8573,-64.3118 95.7263,-61.6528"/>
<polygon fill="midnightblue" stroke="midnightblue" points="23.4787,-229.897 24.9785,-240.385 30.3466,-231.251 23.4787,-229.897"/>
</g>
<!-- Node16 -->
<g id="node31" class="node"><title>Node16</title>
<a xlink:href="classui_1_1ui___settings_dialog_1_1_ui___settings_dialog.html" target="_top" xlink:title="ui.ui_SettingsDialog.Ui_SettingsDialog">
<polygon fill="white" stroke="black" points="114.5,-0.5 114.5,-21.5 313.5,-21.5 313.5,-0.5 114.5,-0.5"/>
<text text-anchor="middle" x="214" y="-8.5" font-family="DejaVuSans" font-size="10.00">ui.ui_SettingsDialog.Ui_SettingsDialog</text>
</a>
</g>
<!-- Node1&#45;&gt;Node16 -->
<g id="edge30" class="edge"><title>Node1&#45;&gt;Node16</title>
<path fill="none" stroke="midnightblue" d="M25.6746,-230.183C32.4783,-180.624 52.0538,-57.7765 82,-31 91.2439,-22.7345 102.389,-17.0502 114.237,-13.2293"/>
<polygon fill="midnightblue" stroke="midnightblue" points="22.1714,-229.975 24.3183,-240.35 29.1099,-230.901 22.1714,-229.975"/>
</g>
<!-- Node7 -->
<g id="node13" class="node"><title>Node7</title>
<a xlink:href="classsrc_1_1_i_o_1_1_read_xml_character_1_1_read_xml_character.html" target="_top" xlink:title="Liest die gespeicherten Charakterwerte in das Programm.">
<polygon fill="white" stroke="black" points="382.5,-340.5 382.5,-361.5 607.5,-361.5 607.5,-340.5 382.5,-340.5"/>
<text text-anchor="middle" x="495" y="-348.5" font-family="DejaVuSans" font-size="10.00">src.IO.ReadXmlCharacter.ReadXmlCharacter</text>
</a>
</g>
<!-- Node6&#45;&gt;Node7 -->
<g id="edge12" class="edge"><title>Node6&#45;&gt;Node7</title>
<path fill="none" stroke="midnightblue" d="M289.787,-336.394C318.221,-338.418 351.18,-340.764 382.253,-342.975"/>
<polygon fill="midnightblue" stroke="midnightblue" points="289.751,-332.883 279.527,-335.664 289.254,-339.865 289.751,-332.883"/>
</g>
<!-- Node8 -->
<g id="node15" class="node"><title>Node8</title>
<a xlink:href="classsrc_1_1_i_o_1_1_read_xml_template_1_1_read_xml_template.html" target="_top" xlink:title="Liest die Eigenschaften aus den beigefügten xml&#45;Dateien.">
<polygon fill="white" stroke="black" points="386,-300.5 386,-321.5 604,-321.5 604,-300.5 386,-300.5"/>
<text text-anchor="middle" x="495" y="-308.5" font-family="DejaVuSans" font-size="10.00">src.IO.ReadXmlTemplate.ReadXmlTemplate</text>
</a>
</g>
<!-- Node6&#45;&gt;Node8 -->
<g id="edge14" class="edge"><title>Node6&#45;&gt;Node8</title>
<path fill="none" stroke="midnightblue" d="M289.761,-325.608C319.302,-323.505 353.729,-321.055 385.853,-318.768"/>
<polygon fill="midnightblue" stroke="midnightblue" points="289.254,-322.135 279.527,-326.336 289.751,-329.117 289.254,-322.135"/>
</g>
</g>
</svg>
