<?xml version="1.0" encoding="UTF-8" standalone="no"?>
<!DOCTYPE svg PUBLIC "-//W3C//DTD SVG 1.1//EN"
 "http://www.w3.org/Graphics/SVG/1.1/DTD/svg11.dtd">
<!-- Generated by graphviz version 2.26.3 (20100126.1600)
 -->
<!-- Title: G Pages: 1 -->
<svg width="408pt" height="70pt"
 viewBox="0.00 0.00 408.00 70.00" xmlns="http://www.w3.org/2000/svg" xmlns:xlink="http://www.w3.org/1999/xlink">
<g id="graph1" class="graph" transform="scale(1 1) rotate(0) translate(4 66)">
<title>G</title>
<polygon fill="white" stroke="white" points="-4,5 -4,-66 405,-66 405,5 -4,5"/>
<!-- Node1 -->
<g id="node1" class="node"><title>Node1</title>
<polygon fill="#bfbfbf" stroke="black" points="0,-20.5 0,-41.5 170,-41.5 170,-20.5 0,-20.5"/>
<text text-anchor="middle" x="85" y="-28.5" font-family="DejaVuSans" font-size="10.00">StorageCharacter::traitChanged</text>
</g>
<!-- Node2 -->
<g id="node3" class="node"><title>Node2</title>
<a xlink:href="class_storage_character.html#abc0095e926e117b0f61d8eb228021535" target="_top" xlink:title="StorageCharacter::addTrait">
<polygon fill="white" stroke="black" points="230,-40.5 230,-61.5 376,-61.5 376,-40.5 230,-40.5"/>
<text text-anchor="middle" x="303" y="-48.5" font-family="DejaVuSans" font-size="10.00">StorageCharacter::addTrait</text>
</a>
</g>
<!-- Node1&#45;&gt;Node2 -->
<g id="edge2" class="edge"><title>Node1&#45;&gt;Node2</title>
<path fill="none" stroke="midnightblue" d="M180.464,-39.7581C197.024,-41.2775 214.008,-42.8356 229.854,-44.2894"/>
<polygon fill="midnightblue" stroke="midnightblue" points="180.499,-36.2468 170.221,-38.8185 179.86,-43.2175 180.499,-36.2468"/>
</g>
<!-- Node3 -->
<g id="node5" class="node"><title>Node3</title>
<a xlink:href="class_storage_character.html#a6273e4a5881f52b074bb1e4885ce70a6" target="_top" xlink:title="StorageCharacter::setSkillSpecialties">
<polygon fill="white" stroke="black" points="206,-0.5 206,-21.5 400,-21.5 400,-0.5 206,-0.5"/>
<text text-anchor="middle" x="303" y="-8.5" font-family="DejaVuSans" font-size="10.00">StorageCharacter::setSkillSpecialties</text>
</a>
</g>
<!-- Node1&#45;&gt;Node3 -->
<g id="edge4" class="edge"><title>Node1&#45;&gt;Node3</title>
<path fill="none" stroke="midnightblue" d="M180.452,-22.2429C188.896,-21.4682 197.45,-20.6834 205.908,-19.9075"/>
<polygon fill="midnightblue" stroke="midnightblue" points="179.86,-18.7825 170.221,-23.1815 180.499,-25.7532 179.86,-18.7825"/>
</g>
</g>
</svg>
