<?xml version="1.0" encoding="UTF-8" standalone="no"?>
<!DOCTYPE svg PUBLIC "-//W3C//DTD SVG 1.1//EN"
 "http://www.w3.org/Graphics/SVG/1.1/DTD/svg11.dtd">
<!-- Generated by graphviz version 2.26.3 (20100126.1600)
 -->
<!-- Title: G Pages: 1 -->
<svg width="286pt" height="110pt"
 viewBox="0.00 0.00 286.00 110.00" xmlns="http://www.w3.org/2000/svg" xmlns:xlink="http://www.w3.org/1999/xlink">
<g id="graph1" class="graph" transform="scale(1 1) rotate(0) translate(4 106)">
<title>G</title>
<polygon fill="white" stroke="white" points="-4,5 -4,-106 283,-106 283,5 -4,5"/>
<!-- Node1 -->
<g id="node1" class="node"><title>Node1</title>
<polygon fill="#bfbfbf" stroke="black" points="0.5,-40.5 0.5,-61.5 107.5,-61.5 107.5,-40.5 0.5,-40.5"/>
<text text-anchor="middle" x="54" y="-48.5" font-family="DejaVuSans" font-size="10.00">CharaTrait::setType</text>
</g>
<!-- Node2 -->
<g id="node3" class="node"><title>Node2</title>
<a xlink:href="class_chara_trait.html#ab3935a94198f510d3de473a9a72692ac" target="_top" xlink:title="CharaTrait::traitChanged">
<polygon fill="white" stroke="black" points="144.5,-80.5 144.5,-101.5 277.5,-101.5 277.5,-80.5 144.5,-80.5"/>
<text text-anchor="middle" x="211" y="-88.5" font-family="DejaVuSans" font-size="10.00">CharaTrait::traitChanged</text>
</a>
</g>
<!-- Node1&#45;&gt;Node2 -->
<g id="edge2" class="edge"><title>Node1&#45;&gt;Node2</title>
<path fill="none" stroke="midnightblue" d="M95.2499,-61.5095C115.093,-66.5651 139.07,-72.6739 160.043,-78.0173"/>
<polygon fill="midnightblue" stroke="midnightblue" points="159.199,-81.414 169.753,-80.4913 160.927,-74.6307 159.199,-81.414"/>
</g>
<!-- Node3 -->
<g id="node5" class="node"><title>Node3</title>
<a xlink:href="class_chara_trait.html#acd1abb86d271f401b9856f2c8e172255" target="_top" xlink:title="CharaTrait::traitPtr">
<polygon fill="white" stroke="black" points="159,-40.5 159,-61.5 263,-61.5 263,-40.5 159,-40.5"/>
<text text-anchor="middle" x="211" y="-48.5" font-family="DejaVuSans" font-size="10.00">CharaTrait::traitPtr</text>
</a>
</g>
<!-- Node1&#45;&gt;Node3 -->
<g id="edge4" class="edge"><title>Node1&#45;&gt;Node3</title>
<path fill="none" stroke="midnightblue" d="M107.591,-51C120.829,-51 135.12,-51 148.731,-51"/>
<polygon fill="midnightblue" stroke="midnightblue" points="148.978,-54.5001 158.978,-51 148.978,-47.5001 148.978,-54.5001"/>
</g>
<!-- Node4 -->
<g id="node7" class="node"><title>Node4</title>
<a xlink:href="class_chara_trait.html#a0eee9e5210d8c2b458db352c8d0d5bb4" target="_top" xlink:title="CharaTrait::type">
<polygon fill="white" stroke="black" points="165,-0.5 165,-21.5 257,-21.5 257,-0.5 165,-0.5"/>
<text text-anchor="middle" x="211" y="-8.5" font-family="DejaVuSans" font-size="10.00">CharaTrait::type</text>
</a>
</g>
<!-- Node1&#45;&gt;Node4 -->
<g id="edge6" class="edge"><title>Node1&#45;&gt;Node4</title>
<path fill="none" stroke="midnightblue" d="M95.2499,-40.4905C115.093,-35.4349 139.07,-29.3261 160.043,-23.9827"/>
<polygon fill="midnightblue" stroke="midnightblue" points="160.927,-27.3693 169.753,-21.5087 159.199,-20.586 160.927,-27.3693"/>
</g>
</g>
</svg>
