<?xml version="1.0" encoding="UTF-8" standalone="no"?>
<!DOCTYPE svg PUBLIC "-//W3C//DTD SVG 1.1//EN"
 "http://www.w3.org/Graphics/SVG/1.1/DTD/svg11.dtd">
<!-- Generated by graphviz version 2.26.3 (20100126.1600)
 -->
<!-- Title: G Pages: 1 -->
<svg width="1310pt" height="30pt"
 viewBox="0.00 0.00 1310.00 30.00" xmlns="http://www.w3.org/2000/svg" xmlns:xlink="http://www.w3.org/1999/xlink">
<g id="graph1" class="graph" transform="scale(1 1) rotate(0) translate(4 26)">
<title>G</title>
<polygon fill="white" stroke="white" points="-4,5 -4,-26 1307,-26 1307,5 -4,5"/>
<!-- Node1 -->
<g id="node1" class="node"><title>Node1</title>
<polygon fill="#bfbfbf" stroke="black" points="0.5,-0.5 0.5,-21.5 89.5,-21.5 89.5,-0.5 0.5,-0.5"/>
<text text-anchor="middle" x="45" y="-8.5" font-family="DejaVuSans" font-size="10.00">cv_Trait::toType</text>
</g>
<!-- Node2 -->
<g id="node3" class="node"><title>Node2</title>
<a xlink:href="class_read_template.html#a5984eef9690e258cc42d09206ad0477f" target="_top" xlink:title="ReadTemplate::readTree">
<polygon fill="white" stroke="black" points="126.5,-0.5 126.5,-21.5 257.5,-21.5 257.5,-0.5 126.5,-0.5"/>
<text text-anchor="middle" x="192" y="-8.5" font-family="DejaVuSans" font-size="10.00">ReadTemplate::readTree</text>
</a>
</g>
<!-- Node1&#45;&gt;Node2 -->
<g id="edge2" class="edge"><title>Node1&#45;&gt;Node2</title>
<path fill="none" stroke="midnightblue" d="M99.5856,-11C108.353,-11 117.505,-11 126.495,-11"/>
<polygon fill="midnightblue" stroke="midnightblue" points="99.5038,-7.5001 89.5038,-11 99.5037,-14.5001 99.5038,-7.5001"/>
</g>
<!-- Node3 -->
<g id="node5" class="node"><title>Node3</title>
<a xlink:href="class_read_template.html#afadaf1be1c19f9a70a4894a246386ee9" target="_top" xlink:title="ReadTemplate::readSoulCreator">
<polygon fill="white" stroke="black" points="294,-0.5 294,-21.5 462,-21.5 462,-0.5 294,-0.5"/>
<text text-anchor="middle" x="378" y="-8.5" font-family="DejaVuSans" font-size="10.00">ReadTemplate::readSoulCreator</text>
</a>
</g>
<!-- Node2&#45;&gt;Node3 -->
<g id="edge4" class="edge"><title>Node2&#45;&gt;Node3</title>
<path fill="none" stroke="midnightblue" d="M267.593,-11C276.223,-11 285.06,-11 293.792,-11"/>
<polygon fill="midnightblue" stroke="midnightblue" points="267.577,-7.5001 257.577,-11 267.577,-14.5001 267.577,-7.5001"/>
</g>
<!-- Node4 -->
<g id="node7" class="node"><title>Node4</title>
<a xlink:href="class_read_template.html#ad7023d8c02891c892ea33808363bbcd2" target="_top" xlink:title="ReadTemplate::readXml">
<polygon fill="white" stroke="black" points="498.5,-0.5 498.5,-21.5 627.5,-21.5 627.5,-0.5 498.5,-0.5"/>
<text text-anchor="middle" x="563" y="-8.5" font-family="DejaVuSans" font-size="10.00">ReadTemplate::readXml</text>
</a>
</g>
<!-- Node3&#45;&gt;Node4 -->
<g id="edge6" class="edge"><title>Node3&#45;&gt;Node4</title>
<path fill="none" stroke="midnightblue" d="M472.158,-11C481.066,-11 489.954,-11 498.491,-11"/>
<polygon fill="midnightblue" stroke="midnightblue" points="472.109,-7.5001 462.109,-11 472.109,-14.5001 472.109,-7.5001"/>
</g>
<!-- Node5 -->
<g id="node9" class="node"><title>Node5</title>
<a xlink:href="class_read_template.html#a229f7cd3bfc1d0c47caa2cec3a5a0621" target="_top" xlink:title="ReadTemplate::process">
<polygon fill="white" stroke="black" points="664.5,-0.5 664.5,-21.5 791.5,-21.5 791.5,-0.5 664.5,-0.5"/>
<text text-anchor="middle" x="728" y="-8.5" font-family="DejaVuSans" font-size="10.00">ReadTemplate::process</text>
</a>
</g>
<!-- Node4&#45;&gt;Node5 -->
<g id="edge8" class="edge"><title>Node4&#45;&gt;Node5</title>
<path fill="none" stroke="midnightblue" d="M637.971,-11C646.753,-11 655.65,-11 664.259,-11"/>
<polygon fill="midnightblue" stroke="midnightblue" points="637.739,-7.5001 627.739,-11 637.739,-14.5001 637.739,-7.5001"/>
</g>
<!-- Node6 -->
<g id="node11" class="node"><title>Node6</title>
<a xlink:href="class_read_template.html#a3eb0cc39155f082c8c1d71521431e9f4" target="_top" xlink:title="ReadTemplate::read">
<polygon fill="white" stroke="black" points="828.5,-0.5 828.5,-21.5 939.5,-21.5 939.5,-0.5 828.5,-0.5"/>
<text text-anchor="middle" x="884" y="-8.5" font-family="DejaVuSans" font-size="10.00">ReadTemplate::read</text>
</a>
</g>
<!-- Node5&#45;&gt;Node6 -->
<g id="edge10" class="edge"><title>Node5&#45;&gt;Node6</title>
<path fill="none" stroke="midnightblue" d="M801.921,-11C810.845,-11 819.84,-11 828.437,-11"/>
<polygon fill="midnightblue" stroke="midnightblue" points="801.901,-7.5001 791.901,-11 801.901,-14.5001 801.901,-7.5001"/>
</g>
<!-- Node7 -->
<g id="node13" class="node"><title>Node7</title>
<a xlink:href="class_main_window.html#a1ebe4d2e06ddd16007a29bd1b8c09c49" target="_top" xlink:title="MainWindow::storeTemplateData">
<polygon fill="white" stroke="black" points="976.5,-0.5 976.5,-21.5 1147.5,-21.5 1147.5,-0.5 976.5,-0.5"/>
<text text-anchor="middle" x="1062" y="-8.5" font-family="DejaVuSans" font-size="10.00">MainWindow::storeTemplateData</text>
</a>
</g>
<!-- Node6&#45;&gt;Node7 -->
<g id="edge12" class="edge"><title>Node6&#45;&gt;Node7</title>
<path fill="none" stroke="midnightblue" d="M950.109,-11C958.676,-11 967.548,-11 976.375,-11"/>
<polygon fill="midnightblue" stroke="midnightblue" points="949.832,-7.5001 939.832,-11 949.832,-14.5001 949.832,-7.5001"/>
</g>
<!-- Node8 -->
<g id="node15" class="node"><title>Node8</title>
<a xlink:href="class_main_window.html#a43f05c4d3f5d840d070829d3291c9ec7" target="_top" xlink:title="MainWindow::initialize">
<polygon fill="white" stroke="black" points="1184,-0.5 1184,-21.5 1302,-21.5 1302,-0.5 1184,-0.5"/>
<text text-anchor="middle" x="1243" y="-8.5" font-family="DejaVuSans" font-size="10.00">MainWindow::initialize</text>
</a>
</g>
<!-- Node7&#45;&gt;Node8 -->
<g id="edge14" class="edge"><title>Node7&#45;&gt;Node8</title>
<path fill="none" stroke="midnightblue" d="M1157.78,-11C1166.67,-11 1175.5,-11 1183.91,-11"/>
<polygon fill="midnightblue" stroke="midnightblue" points="1157.73,-7.5001 1147.73,-11 1157.73,-14.5001 1157.73,-7.5001"/>
</g>
</g>
</svg>
