<?xml version="1.0" encoding="UTF-8" standalone="no"?>
<!DOCTYPE svg PUBLIC "-//W3C//DTD SVG 1.1//EN"
 "http://www.w3.org/Graphics/SVG/1.1/DTD/svg11.dtd">
<!-- Generated by graphviz version 2.26.3 (20100126.1600)
 -->
<!-- Title: G Pages: 1 -->
<svg width="1518pt" height="550pt"
 viewBox="0.00 0.00 1518.00 550.00" xmlns="http://www.w3.org/2000/svg" xmlns:xlink="http://www.w3.org/1999/xlink">
<g id="graph1" class="graph" transform="scale(1 1) rotate(0) translate(4 546)">
<title>G</title>
<polygon fill="white" stroke="white" points="-4,5 -4,-546 1515,-546 1515,5 -4,5"/>
<!-- Node1 -->
<g id="node1" class="node"><title>Node1</title>
<polygon fill="#bfbfbf" stroke="black" points="0.5,-220.5 0.5,-241.5 171.5,-241.5 171.5,-220.5 0.5,-220.5"/>
<text text-anchor="middle" x="86" y="-228.5" font-family="DejaVuSans" font-size="10.00">MainWindow::storeTemplateData</text>
</g>
<!-- Node2 -->
<g id="node3" class="node"><title>Node2</title>
<a xlink:href="class_storage_template.html#a0f2b3e86a5e9e503e0edd0aed1d7a8f8" target="_top" xlink:title="StorageTemplate::attributes">
<polygon fill="white" stroke="black" points="228.5,-200.5 228.5,-221.5 379.5,-221.5 379.5,-200.5 228.5,-200.5"/>
<text text-anchor="middle" x="304" y="-208.5" font-family="DejaVuSans" font-size="10.00">StorageTemplate::attributes</text>
</a>
</g>
<!-- Node1&#45;&gt;Node2 -->
<g id="edge2" class="edge"><title>Node1&#45;&gt;Node2</title>
<path fill="none" stroke="midnightblue" d="M171.534,-223.153C186.896,-221.743 202.912,-220.274 218.28,-218.864"/>
<polygon fill="midnightblue" stroke="midnightblue" points="218.633,-222.347 228.272,-217.948 217.994,-215.376 218.633,-222.347"/>
</g>
<!-- Node4 -->
<g id="node7" class="node"><title>Node4</title>
<a xlink:href="class_exception.html#a7cb124af6ec64ad88a8721b60c7932fb" target="_top" xlink:title="Exception::description">
<polygon fill="white" stroke="black" points="243,-400.5 243,-421.5 365,-421.5 365,-400.5 243,-400.5"/>
<text text-anchor="middle" x="304" y="-408.5" font-family="DejaVuSans" font-size="10.00">Exception::description</text>
</a>
</g>
<!-- Node1&#45;&gt;Node4 -->
<g id="edge6" class="edge"><title>Node1&#45;&gt;Node4</title>
<path fill="none" stroke="midnightblue" d="M90.7758,-241.68C104.41,-270.847 146.532,-352.259 208,-391 215.668,-395.833 224.299,-399.521 233.161,-402.331"/>
<polygon fill="midnightblue" stroke="midnightblue" points="232.259,-405.713 242.833,-405.048 234.152,-398.973 232.259,-405.713"/>
</g>
<!-- Node5 -->
<g id="node9" class="node"><title>Node5</title>
<a xlink:href="class_storage_template.html#a926d61ca52d1584d57b3731e69432f2f" target="_top" xlink:title="StorageTemplate::meritPrerequisites">
<polygon fill="white" stroke="black" points="208,-360.5 208,-381.5 400,-381.5 400,-360.5 208,-360.5"/>
<text text-anchor="middle" x="304" y="-368.5" font-family="DejaVuSans" font-size="10.00">StorageTemplate::meritPrerequisites</text>
</a>
</g>
<!-- Node1&#45;&gt;Node5 -->
<g id="edge8" class="edge"><title>Node1&#45;&gt;Node5</title>
<path fill="none" stroke="midnightblue" d="M93.4385,-241.69C110.616,-265.495 155.608,-322.97 208,-351 212.278,-353.289 216.794,-355.316 221.44,-357.111"/>
<polygon fill="midnightblue" stroke="midnightblue" points="220.535,-360.502 231.129,-360.48 222.834,-353.89 220.535,-360.502"/>
</g>
<!-- Node6 -->
<g id="node11" class="node"><title>Node6</title>
<a xlink:href="class_storage_template.html#a57e5d21f50128e94ca5c11d1fc5cc256" target="_top" xlink:title="StorageTemplate::merits">
<polygon fill="white" stroke="black" points="236.5,-120.5 236.5,-141.5 371.5,-141.5 371.5,-120.5 236.5,-120.5"/>
<text text-anchor="middle" x="304" y="-128.5" font-family="DejaVuSans" font-size="10.00">StorageTemplate::merits</text>
</a>
</g>
<!-- Node1&#45;&gt;Node6 -->
<g id="edge10" class="edge"><title>Node1&#45;&gt;Node6</title>
<path fill="none" stroke="midnightblue" d="M98.6148,-220.373C119.797,-203.095 164.479,-169.037 208,-151 214.182,-148.438 220.728,-146.191 227.381,-144.224"/>
<polygon fill="midnightblue" stroke="midnightblue" points="228.459,-147.557 237.176,-141.536 226.606,-140.807 228.459,-147.557"/>
</g>
<!-- Node7 -->
<g id="node14" class="node"><title>Node7</title>
<a xlink:href="class_storage_template.html#a8f6996e6b89e4fabb8eeeb31933dc8df" target="_top" xlink:title="StorageTemplate::meritValues">
<polygon fill="white" stroke="black" points="223.5,-280.5 223.5,-301.5 384.5,-301.5 384.5,-280.5 223.5,-280.5"/>
<text text-anchor="middle" x="304" y="-288.5" font-family="DejaVuSans" font-size="10.00">StorageTemplate::meritValues</text>
</a>
</g>
<!-- Node1&#45;&gt;Node7 -->
<g id="edge14" class="edge"><title>Node1&#45;&gt;Node7</title>
<path fill="none" stroke="midnightblue" d="M115.307,-241.629C139.849,-250.282 175.914,-262.426 208,-271 217.683,-273.588 227.99,-276.043 238.122,-278.29"/>
<polygon fill="midnightblue" stroke="midnightblue" points="237.651,-281.769 248.165,-280.464 239.133,-274.927 237.651,-281.769"/>
</g>
<!-- Node8 -->
<g id="node16" class="node"><title>Node8</title>
<a xlink:href="class_exception.html#aeaf3a81717287d50938bc72ed67bacd8" target="_top" xlink:title="Exception::message">
<polygon fill="white" stroke="black" points="247.5,-240.5 247.5,-261.5 360.5,-261.5 360.5,-240.5 247.5,-240.5"/>
<text text-anchor="middle" x="304" y="-248.5" font-family="DejaVuSans" font-size="10.00">Exception::message</text>
</a>
</g>
<!-- Node1&#45;&gt;Node8 -->
<g id="edge16" class="edge"><title>Node1&#45;&gt;Node8</title>
<path fill="none" stroke="midnightblue" d="M171.534,-238.847C193.368,-240.85 216.522,-242.975 237.261,-244.877"/>
<polygon fill="midnightblue" stroke="midnightblue" points="236.953,-248.364 247.231,-245.792 237.593,-241.393 236.953,-248.364"/>
</g>
<!-- Node9 -->
<g id="node18" class="node"><title>Node9</title>
<a xlink:href="class_read_template.html#a3eb0cc39155f082c8c1d71521431e9f4" target="_top" xlink:title="ReadTemplate::read">
<polygon fill="white" stroke="black" points="248.5,-440.5 248.5,-461.5 359.5,-461.5 359.5,-440.5 248.5,-440.5"/>
<text text-anchor="middle" x="304" y="-448.5" font-family="DejaVuSans" font-size="10.00">ReadTemplate::read</text>
</a>
</g>
<!-- Node1&#45;&gt;Node9 -->
<g id="edge18" class="edge"><title>Node1&#45;&gt;Node9</title>
<path fill="none" stroke="midnightblue" d="M89.1775,-241.807C99.7587,-275.772 137.202,-381.072 208,-431 216.948,-437.31 227.458,-441.712 238.182,-444.766"/>
<polygon fill="midnightblue" stroke="midnightblue" points="237.504,-448.204 248.052,-447.208 239.185,-441.409 237.504,-448.204"/>
</g>
<!-- Node23 -->
<g id="node47" class="node"><title>Node23</title>
<a xlink:href="class_storage_template.html#a6bc46cab8cbafede7b8699d056247991" target="_top" xlink:title="StorageTemplate::setTraits">
<polygon fill="white" stroke="black" points="232,-160.5 232,-181.5 376,-181.5 376,-160.5 232,-160.5"/>
<text text-anchor="middle" x="304" y="-168.5" font-family="DejaVuSans" font-size="10.00">StorageTemplate::setTraits</text>
</a>
</g>
<!-- Node1&#45;&gt;Node23 -->
<g id="edge48" class="edge"><title>Node1&#45;&gt;Node23</title>
<path fill="none" stroke="midnightblue" d="M115.307,-220.371C139.849,-211.718 175.914,-199.574 208,-191 217.683,-188.412 227.99,-185.957 238.122,-183.71"/>
<polygon fill="midnightblue" stroke="midnightblue" points="239.133,-187.073 248.165,-181.536 237.651,-180.231 239.133,-187.073"/>
</g>
<!-- Node24 -->
<g id="node49" class="node"><title>Node24</title>
<a xlink:href="class_storage_template.html#adc3718aca51de53cf9a0542ab4eb99f9" target="_top" xlink:title="StorageTemplate::skills">
<polygon fill="white" stroke="black" points="240.5,-0.5 240.5,-21.5 367.5,-21.5 367.5,-0.5 240.5,-0.5"/>
<text text-anchor="middle" x="304" y="-8.5" font-family="DejaVuSans" font-size="10.00">StorageTemplate::skills</text>
</a>
</g>
<!-- Node1&#45;&gt;Node24 -->
<g id="edge50" class="edge"><title>Node1&#45;&gt;Node24</title>
<path fill="none" stroke="midnightblue" d="M89.1775,-220.193C99.7587,-186.228 137.202,-80.9285 208,-31 214.85,-26.1693 222.616,-22.4569 230.692,-19.6114"/>
<polygon fill="midnightblue" stroke="midnightblue" points="231.755,-22.9463 240.279,-16.6542 229.692,-16.2573 231.755,-22.9463"/>
</g>
<!-- Node25 -->
<g id="node52" class="node"><title>Node25</title>
<a xlink:href="class_storage_template.html#aa3ec23f9e68fa63afb8bc2782bf2a7e7" target="_top" xlink:title="StorageTemplate::skillSpecialties">
<polygon fill="white" stroke="black" points="217.5,-80.5 217.5,-101.5 390.5,-101.5 390.5,-80.5 217.5,-80.5"/>
<text text-anchor="middle" x="304" y="-88.5" font-family="DejaVuSans" font-size="10.00">StorageTemplate::skillSpecialties</text>
</a>
</g>
<!-- Node1&#45;&gt;Node25 -->
<g id="edge54" class="edge"><title>Node1&#45;&gt;Node25</title>
<path fill="none" stroke="midnightblue" d="M93.4385,-220.31C110.616,-196.505 155.608,-139.03 208,-111 212.278,-108.711 216.794,-106.684 221.44,-104.889"/>
<polygon fill="midnightblue" stroke="midnightblue" points="222.834,-108.11 231.129,-101.52 220.535,-101.498 222.834,-108.11"/>
</g>
<!-- Node26 -->
<g id="node54" class="node"><title>Node26</title>
<a xlink:href="class_storage_template.html#adb9734d2adcf232c0c70f5024cc81148" target="_top" xlink:title="StorageTemplate::vices">
<polygon fill="white" stroke="black" points="240,-320.5 240,-341.5 368,-341.5 368,-320.5 240,-320.5"/>
<text text-anchor="middle" x="304" y="-328.5" font-family="DejaVuSans" font-size="10.00">StorageTemplate::vices</text>
</a>
</g>
<!-- Node1&#45;&gt;Node26 -->
<g id="edge56" class="edge"><title>Node1&#45;&gt;Node26</title>
<path fill="none" stroke="midnightblue" d="M98.6148,-241.627C119.797,-258.905 164.479,-292.963 208,-311 215.077,-313.933 222.633,-316.453 230.28,-318.614"/>
<polygon fill="midnightblue" stroke="midnightblue" points="229.424,-322.008 239.985,-321.165 231.203,-315.238 229.424,-322.008"/>
</g>
<!-- Node27 -->
<g id="node57" class="node"><title>Node27</title>
<a xlink:href="class_storage_template.html#a52acf3476bbd83b9b94a4f90d39411b2" target="_top" xlink:title="StorageTemplate::virtues">
<polygon fill="white" stroke="black" points="235.5,-40.5 235.5,-61.5 372.5,-61.5 372.5,-40.5 235.5,-40.5"/>
<text text-anchor="middle" x="304" y="-48.5" font-family="DejaVuSans" font-size="10.00">StorageTemplate::virtues</text>
</a>
</g>
<!-- Node1&#45;&gt;Node27 -->
<g id="edge60" class="edge"><title>Node1&#45;&gt;Node27</title>
<path fill="none" stroke="midnightblue" d="M90.7758,-220.32C104.41,-191.153 146.532,-109.741 208,-71 213.435,-67.5747 219.353,-64.7247 225.494,-62.3547"/>
<polygon fill="midnightblue" stroke="midnightblue" points="226.957,-65.5538 235.291,-59.012 224.697,-58.9289 226.957,-65.5538"/>
</g>
<!-- Node3 -->
<g id="node5" class="node"><title>Node3</title>
<a xlink:href="class_storage_template.html#a0dc4d689b066021a4752c99f3ee1c22a" target="_top" xlink:title="StorageTemplate::traitNames">
<polygon fill="white" stroke="black" points="436,-120.5 436,-141.5 594,-141.5 594,-120.5 436,-120.5"/>
<text text-anchor="middle" x="515" y="-128.5" font-family="DejaVuSans" font-size="10.00">StorageTemplate::traitNames</text>
</a>
</g>
<!-- Node2&#45;&gt;Node3 -->
<g id="edge4" class="edge"><title>Node2&#45;&gt;Node3</title>
<path fill="none" stroke="midnightblue" d="M366.918,-200.49C378.087,-197.893 389.499,-194.752 400,-191 432.245,-179.48 466.755,-160.478 489.465,-146.946"/>
<polygon fill="midnightblue" stroke="midnightblue" points="491.397,-149.868 498.142,-141.698 487.774,-143.878 491.397,-149.868"/>
</g>
<!-- Node6&#45;&gt;Node3 -->
<g id="edge12" class="edge"><title>Node6&#45;&gt;Node3</title>
<path fill="none" stroke="midnightblue" d="M371.632,-131C388.922,-131 407.777,-131 425.962,-131"/>
<polygon fill="midnightblue" stroke="midnightblue" points="425.982,-134.5 435.982,-131 425.982,-127.5 425.982,-134.5"/>
</g>
<!-- Node10 -->
<g id="node20" class="node"><title>Node10</title>
<a xlink:href="class_read_template.html#a229f7cd3bfc1d0c47caa2cec3a5a0621" target="_top" xlink:title="ReadTemplate::process">
<polygon fill="white" stroke="black" points="451.5,-440.5 451.5,-461.5 578.5,-461.5 578.5,-440.5 451.5,-440.5"/>
<text text-anchor="middle" x="515" y="-448.5" font-family="DejaVuSans" font-size="10.00">ReadTemplate::process</text>
</a>
</g>
<!-- Node9&#45;&gt;Node10 -->
<g id="edge20" class="edge"><title>Node9&#45;&gt;Node10</title>
<path fill="none" stroke="midnightblue" d="M359.714,-451C384.615,-451 414.317,-451 441.044,-451"/>
<polygon fill="midnightblue" stroke="midnightblue" points="441.126,-454.5 451.126,-451 441.126,-447.5 441.126,-454.5"/>
</g>
<!-- Node11 -->
<g id="node22" class="node"><title>Node11</title>
<a xlink:href="class_read_template.html#ad7023d8c02891c892ea33808363bbcd2" target="_top" xlink:title="ReadTemplate::readXml">
<polygon fill="white" stroke="black" points="630.5,-440.5 630.5,-461.5 759.5,-461.5 759.5,-440.5 630.5,-440.5"/>
<text text-anchor="middle" x="695" y="-448.5" font-family="DejaVuSans" font-size="10.00">ReadTemplate::readXml</text>
</a>
</g>
<!-- Node10&#45;&gt;Node11 -->
<g id="edge22" class="edge"><title>Node10&#45;&gt;Node11</title>
<path fill="none" stroke="midnightblue" d="M578.715,-451C592.093,-451 606.32,-451 620.065,-451"/>
<polygon fill="midnightblue" stroke="midnightblue" points="620.46,-454.5 630.46,-451 620.46,-447.5 620.46,-454.5"/>
</g>
<!-- Node12 -->
<g id="node24" class="node"><title>Node12</title>
<a xlink:href="class_read_template.html#a5402ab76df3fd4144e7a5986e6f858bd" target="_top" xlink:title="ReadTemplate::closeFile">
<polygon fill="white" stroke="black" points="815.5,-520.5 815.5,-541.5 944.5,-541.5 944.5,-520.5 815.5,-520.5"/>
<text text-anchor="middle" x="880" y="-528.5" font-family="DejaVuSans" font-size="10.00">ReadTemplate::closeFile</text>
</a>
</g>
<!-- Node11&#45;&gt;Node12 -->
<g id="edge24" class="edge"><title>Node11&#45;&gt;Node12</title>
<path fill="none" stroke="midnightblue" d="M709.653,-461.654C728.67,-475.009 763.297,-497.752 796,-511 802.161,-513.496 808.708,-515.727 815.323,-517.711"/>
<polygon fill="midnightblue" stroke="midnightblue" points="814.451,-521.101 825.025,-520.441 816.347,-514.363 814.451,-521.101"/>
</g>
<!-- Node13 -->
<g id="node26" class="node"><title>Node13</title>
<a xlink:href="class_config.html#a207b413a92300d09acb205a2d21a8734" target="_top" xlink:title="Config::name">
<polygon fill="white" stroke="black" points="840,-480.5 840,-501.5 920,-501.5 920,-480.5 840,-480.5"/>
<text text-anchor="middle" x="880" y="-488.5" font-family="DejaVuSans" font-size="10.00">Config::name</text>
</a>
</g>
<!-- Node11&#45;&gt;Node13 -->
<g id="edge26" class="edge"><title>Node11&#45;&gt;Node13</title>
<path fill="none" stroke="midnightblue" d="M743.607,-461.51C770.186,-467.257 803.061,-474.365 829.875,-480.162"/>
<polygon fill="midnightblue" stroke="midnightblue" points="829.315,-483.622 839.829,-482.314 830.795,-476.78 829.315,-483.622"/>
</g>
<!-- Node14 -->
<g id="node28" class="node"><title>Node14</title>
<a xlink:href="class_read_template.html#aa726d436306f6d3f138dec06b20f631a" target="_top" xlink:title="ReadTemplate::openFile">
<polygon fill="white" stroke="black" points="816,-440.5 816,-461.5 944,-461.5 944,-440.5 816,-440.5"/>
<text text-anchor="middle" x="880" y="-448.5" font-family="DejaVuSans" font-size="10.00">ReadTemplate::openFile</text>
</a>
</g>
<!-- Node11&#45;&gt;Node14 -->
<g id="edge28" class="edge"><title>Node11&#45;&gt;Node14</title>
<path fill="none" stroke="midnightblue" d="M759.704,-451C774.519,-451 790.384,-451 805.572,-451"/>
<polygon fill="midnightblue" stroke="midnightblue" points="805.957,-454.5 815.957,-451 805.957,-447.5 805.957,-454.5"/>
</g>
<!-- Node15 -->
<g id="node30" class="node"><title>Node15</title>
<a xlink:href="class_read_template.html#afadaf1be1c19f9a70a4894a246386ee9" target="_top" xlink:title="ReadTemplate::readSoulCreator">
<polygon fill="white" stroke="black" points="796,-400.5 796,-421.5 964,-421.5 964,-400.5 796,-400.5"/>
<text text-anchor="middle" x="880" y="-408.5" font-family="DejaVuSans" font-size="10.00">ReadTemplate::readSoulCreator</text>
</a>
</g>
<!-- Node11&#45;&gt;Node15 -->
<g id="edge30" class="edge"><title>Node11&#45;&gt;Node15</title>
<path fill="none" stroke="midnightblue" d="M743.607,-440.49C767.412,-435.343 796.266,-429.105 821.294,-423.693"/>
<polygon fill="midnightblue" stroke="midnightblue" points="822.363,-427.043 831.397,-421.509 820.883,-420.201 822.363,-427.043"/>
</g>
<!-- Node22 -->
<g id="node45" class="node"><title>Node22</title>
<a xlink:href="class_config.html#a77bc8861add4e417c0c5987eed2359cb" target="_top" xlink:title="Config::version">
<polygon fill="white" stroke="black" points="836.5,-360.5 836.5,-381.5 923.5,-381.5 923.5,-360.5 836.5,-360.5"/>
<text text-anchor="middle" x="880" y="-368.5" font-family="DejaVuSans" font-size="10.00">Config::version</text>
</a>
</g>
<!-- Node11&#45;&gt;Node22 -->
<g id="edge46" class="edge"><title>Node11&#45;&gt;Node22</title>
<path fill="none" stroke="midnightblue" d="M709.653,-440.346C728.67,-426.991 763.297,-404.248 796,-391 805.687,-387.076 816.328,-383.806 826.684,-381.124"/>
<polygon fill="midnightblue" stroke="midnightblue" points="827.602,-384.503 836.487,-378.732 825.942,-377.703 827.602,-384.503"/>
</g>
<!-- Node16 -->
<g id="node32" class="node"><title>Node16</title>
<a xlink:href="class_read_template.html#a5984eef9690e258cc42d09206ad0477f" target="_top" xlink:title="ReadTemplate::readTree">
<polygon fill="white" stroke="black" points="1000.5,-439.5 1000.5,-460.5 1131.5,-460.5 1131.5,-439.5 1000.5,-439.5"/>
<text text-anchor="middle" x="1066" y="-447.5" font-family="DejaVuSans" font-size="10.00">ReadTemplate::readTree</text>
</a>
</g>
<!-- Node15&#45;&gt;Node16 -->
<g id="edge32" class="edge"><title>Node15&#45;&gt;Node16</title>
<path fill="none" stroke="midnightblue" d="M930.334,-421.554C953.596,-426.431 981.404,-432.262 1005.77,-437.371"/>
<polygon fill="midnightblue" stroke="midnightblue" points="1005.12,-440.811 1015.63,-439.438 1006.56,-433.96 1005.12,-440.811"/>
</g>
<!-- Node19 -->
<g id="node38" class="node"><title>Node19</title>
<a xlink:href="class_read_template.html#a7421603688e1dedca296c0ed3888a4bc" target="_top" xlink:title="ReadTemplate::readUnknownElement">
<polygon fill="white" stroke="black" points="1168,-399.5 1168,-420.5 1362,-420.5 1362,-399.5 1168,-399.5"/>
<text text-anchor="middle" x="1265" y="-407.5" font-family="DejaVuSans" font-size="10.00">ReadTemplate::readUnknownElement</text>
</a>
</g>
<!-- Node15&#45;&gt;Node19 -->
<g id="edge42" class="edge"><title>Node15&#45;&gt;Node19</title>
<path fill="none" stroke="midnightblue" d="M964.014,-410.782C1020.92,-410.634 1096.6,-410.437 1157.83,-410.278"/>
<polygon fill="midnightblue" stroke="midnightblue" points="1157.93,-413.778 1167.92,-410.252 1157.91,-406.778 1157.93,-413.778"/>
</g>
<!-- Node21 -->
<g id="node43" class="node"><title>Node21</title>
<a xlink:href="classcv___species.html#a152c6fe9f8df1fa2bdba478f481955e2" target="_top" xlink:title="cv_Species::toSpecies">
<polygon fill="white" stroke="black" points="1004.5,-361.5 1004.5,-382.5 1127.5,-382.5 1127.5,-361.5 1004.5,-361.5"/>
<text text-anchor="middle" x="1066" y="-369.5" font-family="DejaVuSans" font-size="10.00">cv_Species::toSpecies</text>
</a>
</g>
<!-- Node15&#45;&gt;Node21 -->
<g id="edge44" class="edge"><title>Node15&#45;&gt;Node21</title>
<path fill="none" stroke="midnightblue" d="M930.334,-400.446C953.596,-395.569 981.404,-389.738 1005.77,-384.629"/>
<polygon fill="midnightblue" stroke="midnightblue" points="1006.56,-388.04 1015.63,-382.562 1005.12,-381.189 1006.56,-388.04"/>
</g>
<!-- Node17 -->
<g id="node34" class="node"><title>Node17</title>
<a xlink:href="class_read_template.html#a85e90e2466fbabcae68cca7e1aec234c" target="_top" xlink:title="ReadTemplate::readTraits">
<polygon fill="white" stroke="black" points="1197,-439.5 1197,-460.5 1333,-460.5 1333,-439.5 1197,-439.5"/>
<text text-anchor="middle" x="1265" y="-447.5" font-family="DejaVuSans" font-size="10.00">ReadTemplate::readTraits</text>
</a>
</g>
<!-- Node16&#45;&gt;Node17 -->
<g id="edge34" class="edge"><title>Node16&#45;&gt;Node17</title>
<path fill="none" stroke="midnightblue" d="M1131.71,-450C1149.38,-450 1168.67,-450 1186.94,-450"/>
<polygon fill="midnightblue" stroke="midnightblue" points="1186.97,-453.5 1196.97,-450 1186.97,-446.5 1186.97,-453.5"/>
</g>
<!-- Node16&#45;&gt;Node19 -->
<g id="edge38" class="edge"><title>Node16&#45;&gt;Node19</title>
<path fill="none" stroke="midnightblue" d="M1118.28,-439.49C1144.12,-434.298 1175.48,-427.994 1202.57,-422.549"/>
<polygon fill="midnightblue" stroke="midnightblue" points="1203.6,-425.911 1212.72,-420.509 1202.23,-419.048 1203.6,-425.911"/>
</g>
<!-- Node20 -->
<g id="node40" class="node"><title>Node20</title>
<a xlink:href="classcv___trait.html#ac06e3b8607fa52324072b4a6493fac60" target="_top" xlink:title="cv_Trait::toType">
<polygon fill="white" stroke="black" points="1220.5,-479.5 1220.5,-500.5 1309.5,-500.5 1309.5,-479.5 1220.5,-479.5"/>
<text text-anchor="middle" x="1265" y="-487.5" font-family="DejaVuSans" font-size="10.00">cv_Trait::toType</text>
</a>
</g>
<!-- Node16&#45;&gt;Node20 -->
<g id="edge40" class="edge"><title>Node16&#45;&gt;Node20</title>
<path fill="none" stroke="midnightblue" d="M1118.28,-460.51C1146.72,-466.224 1181.84,-473.285 1210.6,-479.065"/>
<polygon fill="midnightblue" stroke="midnightblue" points="1209.99,-482.512 1220.48,-481.051 1211.37,-475.649 1209.99,-482.512"/>
</g>
<!-- Node18 -->
<g id="node36" class="node"><title>Node18</title>
<a xlink:href="classcv___trait.html#a8dbbb4674c121a54bd0830cf90c568bc" target="_top" xlink:title="cv_Trait::toCategory">
<polygon fill="white" stroke="black" points="1398.5,-439.5 1398.5,-460.5 1509.5,-460.5 1509.5,-439.5 1398.5,-439.5"/>
<text text-anchor="middle" x="1454" y="-447.5" font-family="DejaVuSans" font-size="10.00">cv_Trait::toCategory</text>
</a>
</g>
<!-- Node17&#45;&gt;Node18 -->
<g id="edge36" class="edge"><title>Node17&#45;&gt;Node18</title>
<path fill="none" stroke="midnightblue" d="M1333.23,-450C1351.09,-450 1370.3,-450 1388.04,-450"/>
<polygon fill="midnightblue" stroke="midnightblue" points="1388.28,-453.5 1398.28,-450 1388.28,-446.5 1388.28,-453.5"/>
</g>
<!-- Node24&#45;&gt;Node3 -->
<g id="edge52" class="edge"><title>Node24&#45;&gt;Node3</title>
<path fill="none" stroke="midnightblue" d="M367.514,-19.4447C378.678,-22.2577 389.935,-26.006 400,-31 440.951,-51.3181 479.01,-89.7624 499.426,-112.61"/>
<polygon fill="midnightblue" stroke="midnightblue" points="496.902,-115.04 506.122,-120.259 502.169,-110.429 496.902,-115.04"/>
</g>
<!-- Node26&#45;&gt;Node3 -->
<g id="edge58" class="edge"><title>Node26&#45;&gt;Node3</title>
<path fill="none" stroke="midnightblue" d="M368.111,-325.051C379.395,-321.999 390.541,-317.525 400,-311 458.622,-270.563 494.008,-189.5 508.03,-151.519"/>
<polygon fill="midnightblue" stroke="midnightblue" points="511.501,-152.206 511.56,-141.612 504.907,-149.857 511.501,-152.206"/>
</g>
<!-- Node27&#45;&gt;Node3 -->
<g id="edge62" class="edge"><title>Node27&#45;&gt;Node3</title>
<path fill="none" stroke="midnightblue" d="M366.918,-61.5096C378.087,-64.1071 389.499,-67.2483 400,-71 432.245,-82.5202 466.755,-101.522 489.465,-115.054"/>
<polygon fill="midnightblue" stroke="midnightblue" points="487.774,-118.122 498.142,-120.302 491.397,-112.132 487.774,-118.122"/>
</g>
</g>
</svg>
