<?xml version="1.0" encoding="UTF-8" standalone="no"?>
<!DOCTYPE svg PUBLIC "-//W3C//DTD SVG 1.1//EN"
 "http://www.w3.org/Graphics/SVG/1.1/DTD/svg11.dtd">
<!-- Generated by graphviz version 2.26.3 (20100126.1600)
 -->
<!-- Title: G Pages: 1 -->
<svg width="502pt" height="70pt"
 viewBox="0.00 0.00 502.00 70.00" xmlns="http://www.w3.org/2000/svg" xmlns:xlink="http://www.w3.org/1999/xlink">
<g id="graph1" class="graph" transform="scale(1 1) rotate(0) translate(4 66)">
<title>G</title>
<polygon fill="white" stroke="white" points="-4,5 -4,-66 499,-66 499,5 -4,5"/>
<!-- Node1 -->
<g id="node1" class="node"><title>Node1</title>
<polygon fill="#bfbfbf" stroke="black" points="0,-20.5 0,-41.5 122,-41.5 122,-20.5 0,-20.5"/>
<text text-anchor="middle" x="61" y="-28.5" font-family="DejaVuSans" font-size="10.00">Exception::description</text>
</g>
<!-- Node2 -->
<g id="node3" class="node"><title>Node2</title>
<a xlink:href="class_chara_trait.html#ab02b27973fec9c68cee320dd61e5c618" target="_top" xlink:title="CharaTrait::checkTraitPrerequisites">
<polygon fill="white" stroke="black" points="158,-40.5 158,-61.5 338,-61.5 338,-40.5 158,-40.5"/>
<text text-anchor="middle" x="248" y="-48.5" font-family="DejaVuSans" font-size="10.00">CharaTrait::checkTraitPrerequisites</text>
</a>
</g>
<!-- Node1&#45;&gt;Node2 -->
<g id="edge2" class="edge"><title>Node1&#45;&gt;Node2</title>
<path fill="none" stroke="midnightblue" d="M132.278,-38.6233C140.633,-39.5169 149.239,-40.4373 157.808,-41.3538"/>
<polygon fill="midnightblue" stroke="midnightblue" points="132.546,-35.1321 122.231,-37.5487 131.802,-42.0924 132.546,-35.1321"/>
</g>
<!-- Node4 -->
<g id="node7" class="node"><title>Node4</title>
<a xlink:href="class_read_xml_character.html#a5857936ddba1793fd089d9f169ed73de" target="_top" xlink:title="ReadXmlCharacter::read">
<polygon fill="white" stroke="black" points="181.5,-0.5 181.5,-21.5 314.5,-21.5 314.5,-0.5 181.5,-0.5"/>
<text text-anchor="middle" x="248" y="-8.5" font-family="DejaVuSans" font-size="10.00">ReadXmlCharacter::read</text>
</a>
</g>
<!-- Node1&#45;&gt;Node4 -->
<g id="edge6" class="edge"><title>Node1&#45;&gt;Node4</title>
<path fill="none" stroke="midnightblue" d="M132.626,-23.3395C148.676,-21.6229 165.637,-19.8089 181.47,-18.1155"/>
<polygon fill="midnightblue" stroke="midnightblue" points="131.802,-19.9076 122.231,-24.4513 132.546,-26.8679 131.802,-19.9076"/>
</g>
<!-- Node3 -->
<g id="node5" class="node"><title>Node3</title>
<a xlink:href="class_chara_trait.html#acfe4795a41019f6c92e85e82c0a6ab1a" target="_top" xlink:title="CharaTrait::CharaTrait">
<polygon fill="white" stroke="black" points="374.5,-40.5 374.5,-61.5 493.5,-61.5 493.5,-40.5 374.5,-40.5"/>
<text text-anchor="middle" x="434" y="-48.5" font-family="DejaVuSans" font-size="10.00">CharaTrait::CharaTrait</text>
</a>
</g>
<!-- Node2&#45;&gt;Node3 -->
<g id="edge4" class="edge"><title>Node2&#45;&gt;Node3</title>
<path fill="none" stroke="midnightblue" d="M348.118,-51C357.06,-51 365.913,-51 374.344,-51"/>
<polygon fill="midnightblue" stroke="midnightblue" points="348.003,-47.5001 338.003,-51 348.003,-54.5001 348.003,-47.5001"/>
</g>
</g>
</svg>
