<?xml version="1.0" encoding="UTF-8" standalone="no"?>
<!DOCTYPE svg PUBLIC "-//W3C//DTD SVG 1.1//EN"
 "http://www.w3.org/Graphics/SVG/1.1/DTD/svg11.dtd">
<!-- Generated by graphviz version 2.26.3 (20100126.1600)
 -->
<!-- Title: G Pages: 1 -->
<svg width="648pt" height="110pt"
 viewBox="0.00 0.00 648.00 109.81" xmlns="http://www.w3.org/2000/svg" xmlns:xlink="http://www.w3.org/1999/xlink">
<g id="graph1" class="graph" transform="scale(1 1) rotate(0) translate(4 105.806)">
<title>G</title>
<polygon fill="white" stroke="white" points="-4,5 -4,-105.806 645,-105.806 645,5 -4,5"/>
<!-- Node1 -->
<g id="node1" class="node"><title>Node1</title>
<polygon fill="#bfbfbf" stroke="black" points="0.5,-25.5 0.5,-46.5 97.5,-46.5 97.5,-25.5 0.5,-25.5"/>
<text text-anchor="middle" x="49" y="-33.5" font-family="DejaVuSans" font-size="10.00">CheckTrait::value</text>
</g>
<!-- Node2 -->
<g id="node3" class="node"><title>Node2</title>
<a xlink:href="class_check_trait.html#a9073e7f8bbac8c351bf829b23a9fc850" target="_top" xlink:title="CheckTrait::setValue">
<polygon fill="white" stroke="black" points="146.5,-50.5 146.5,-71.5 259.5,-71.5 259.5,-50.5 146.5,-50.5"/>
<text text-anchor="middle" x="203" y="-58.5" font-family="DejaVuSans" font-size="10.00">CheckTrait::setValue</text>
</a>
</g>
<!-- Node1&#45;&gt;Node2 -->
<g id="edge2" class="edge"><title>Node1&#45;&gt;Node2</title>
<path fill="none" stroke="midnightblue" d="M107.691,-45.5278C120.339,-47.581 133.686,-49.7477 146.258,-51.7886"/>
<polygon fill="midnightblue" stroke="midnightblue" points="108.158,-42.0579 97.7266,-43.9102 107.036,-48.9674 108.158,-42.0579"/>
</g>
<!-- Node6 -->
<g id="node12" class="node"><title>Node6</title>
<a xlink:href="class_check_trait.html#a894ea83addabc03a7a6ca5a167fe3e49" target="_top" xlink:title="CheckTrait::updateWidget">
<polygon fill="white" stroke="black" points="134.5,-0.5 134.5,-21.5 271.5,-21.5 271.5,-0.5 134.5,-0.5"/>
<text text-anchor="middle" x="203" y="-8.5" font-family="DejaVuSans" font-size="10.00">CheckTrait::updateWidget</text>
</a>
</g>
<!-- Node1&#45;&gt;Node6 -->
<g id="edge12" class="edge"><title>Node1&#45;&gt;Node6</title>
<path fill="none" stroke="midnightblue" d="M107.891,-26.4397C117.822,-24.8276 128.178,-23.1464 138.248,-21.5117"/>
<polygon fill="midnightblue" stroke="midnightblue" points="107.036,-23.0326 97.7266,-28.0898 108.158,-29.9421 107.036,-23.0326"/>
</g>
<!-- Node3 -->
<g id="node5" class="node"><title>Node3</title>
<a xlink:href="class_check_trait.html#a0e37d389c1ccaf32a2157463d3c055c6" target="_top" xlink:title="CheckTrait::CheckTrait">
<polygon fill="white" stroke="black" points="520,-20.5 520,-41.5 640,-41.5 640,-20.5 520,-20.5"/>
<text text-anchor="middle" x="580" y="-28.5" font-family="DejaVuSans" font-size="10.00">CheckTrait::CheckTrait</text>
</a>
</g>
<!-- Node2&#45;&gt;Node3 -->
<g id="edge4" class="edge"><title>Node2&#45;&gt;Node3</title>
<path fill="none" stroke="midnightblue" d="M242.93,-74.6514C298.169,-91.4385 400.533,-114.938 484,-91 517.629,-81.3554 550.905,-56.1153 568.06,-41.6299"/>
<polygon fill="midnightblue" stroke="midnightblue" points="243.768,-71.2465 233.179,-71.6079 241.682,-77.9285 243.768,-71.2465"/>
</g>
<!-- Node4 -->
<g id="node7" class="node"><title>Node4</title>
<a xlink:href="class_flaw_widget.html#af387a892373d07ce615ad19d6da45448" target="_top" xlink:title="FlawWidget::FlawWidget">
<polygon fill="white" stroke="black" points="332,-60.5 332,-81.5 460,-81.5 460,-60.5 332,-60.5"/>
<text text-anchor="middle" x="396" y="-68.5" font-family="DejaVuSans" font-size="10.00">FlawWidget::FlawWidget</text>
</a>
</g>
<!-- Node2&#45;&gt;Node4 -->
<g id="edge6" class="edge"><title>Node2&#45;&gt;Node4</title>
<path fill="none" stroke="midnightblue" d="M269.645,-64.4531C289.824,-65.4987 311.935,-66.6443 331.941,-67.6809"/>
<polygon fill="midnightblue" stroke="midnightblue" points="269.77,-60.955 259.602,-63.9328 269.408,-67.9456 269.77,-60.955"/>
</g>
<!-- Node5 -->
<g id="node9" class="node"><title>Node5</title>
<a xlink:href="class_check_trait.html#a38b03dfbcc01dbb65a9b345423e232db" target="_top" xlink:title="CheckTrait::hideTraitIfNotAvailable">
<polygon fill="white" stroke="black" points="308,-20.5 308,-41.5 484,-41.5 484,-20.5 308,-20.5"/>
<text text-anchor="middle" x="396" y="-28.5" font-family="DejaVuSans" font-size="10.00">CheckTrait::hideTraitIfNotAvailable</text>
</a>
</g>
<!-- Node2&#45;&gt;Node5 -->
<g id="edge8" class="edge"><title>Node2&#45;&gt;Node5</title>
<path fill="none" stroke="midnightblue" d="M269.617,-50.6451C288.532,-47.7049 309.146,-44.5006 328.134,-41.5491"/>
<polygon fill="midnightblue" stroke="midnightblue" points="268.946,-47.2072 259.602,-52.2017 270.021,-54.1241 268.946,-47.2072"/>
</g>
<!-- Node5&#45;&gt;Node3 -->
<g id="edge10" class="edge"><title>Node5&#45;&gt;Node3</title>
<path fill="none" stroke="midnightblue" d="M494.424,-31C503.096,-31 511.691,-31 519.9,-31"/>
<polygon fill="midnightblue" stroke="midnightblue" points="494.228,-27.5001 484.228,-31 494.227,-34.5001 494.228,-27.5001"/>
</g>
<!-- Node6&#45;&gt;Node3 -->
<g id="edge14" class="edge"><title>Node6&#45;&gt;Node3</title>
<path fill="none" stroke="midnightblue" d="M281.911,-6.68862C338.353,-4.65495 416.045,-3.9965 484,-11 502.12,-12.8675 521.864,-16.6678 538.709,-20.459"/>
<polygon fill="midnightblue" stroke="midnightblue" points="281.485,-3.20229 271.626,-7.08282 281.753,-10.1972 281.485,-3.20229"/>
</g>
</g>
</svg>
