<?xml version="1.0" encoding="UTF-8" standalone="no"?>
<!DOCTYPE svg PUBLIC "-//W3C//DTD SVG 1.1//EN"
 "http://www.w3.org/Graphics/SVG/1.1/DTD/svg11.dtd">
<!-- Generated by graphviz version 2.26.3 (20100126.1600)
 -->
<!-- Title: G Pages: 1 -->
<svg width="468pt" height="220pt"
 viewBox="0.00 0.00 468.00 219.72" xmlns="http://www.w3.org/2000/svg" xmlns:xlink="http://www.w3.org/1999/xlink">
<g id="graph1" class="graph" transform="scale(1 1) rotate(0) translate(4 215.715)">
<title>G</title>
<polygon fill="white" stroke="white" points="-4,5 -4,-215.715 465,-215.715 465,5 -4,5"/>
<!-- Node1 -->
<g id="node1" class="node"><title>Node1</title>
<polygon fill="#bfbfbf" stroke="black" points="0.5,-90.2152 0.5,-111.215 89.5,-111.215 89.5,-90.2152 0.5,-90.2152"/>
<text text-anchor="middle" x="45" y="-98.2152" font-family="DejaVuSans" font-size="10.00">cv_Trait::details</text>
</g>
<!-- Node2 -->
<g id="node3" class="node"><title>Node2</title>
<a xlink:href="class_trait.html#ab6460ff9f5e4837d97c857cc06e0fa21" target="_top" xlink:title="Trait::addDetail">
<polygon fill="white" stroke="black" points="171,-190.215 171,-211.215 259,-211.215 259,-190.215 171,-190.215"/>
<text text-anchor="middle" x="215" y="-198.215" font-family="DejaVuSans" font-size="10.00">Trait::addDetail</text>
</a>
</g>
<!-- Node1&#45;&gt;Node2 -->
<g id="edge2" class="edge"><title>Node1&#45;&gt;Node2</title>
<path fill="none" stroke="midnightblue" d="M58.7655,-119.433C73.3701,-137.896 98.1502,-165.497 126,-180.715 139.619,-188.158 155.854,-192.833 170.705,-195.769"/>
<polygon fill="midnightblue" stroke="midnightblue" points="61.4882,-117.232 52.6205,-111.434 55.9372,-121.497 61.4882,-117.232"/>
</g>
<!-- Node3 -->
<g id="node5" class="node"><title>Node3</title>
<a xlink:href="class_trait.html#aa416615b30fcac6dbcfc064d7ad1d40b" target="_top" xlink:title="Trait::clearDetails">
<polygon fill="white" stroke="black" points="166,-150.215 166,-171.215 264,-171.215 264,-150.215 166,-150.215"/>
<text text-anchor="middle" x="215" y="-158.215" font-family="DejaVuSans" font-size="10.00">Trait::clearDetails</text>
</a>
</g>
<!-- Node1&#45;&gt;Node3 -->
<g id="edge4" class="edge"><title>Node1&#45;&gt;Node3</title>
<path fill="none" stroke="midnightblue" d="M72.0817,-116.112C87.4952,-124.354 107.387,-134.134 126,-140.715 138.691,-145.203 152.766,-148.915 165.907,-151.872"/>
<polygon fill="midnightblue" stroke="midnightblue" points="73.5698,-112.937 63.1148,-111.221 70.218,-119.082 73.5698,-112.937"/>
</g>
<!-- Node4 -->
<g id="node7" class="node"><title>Node4</title>
<a xlink:href="class_chara_trait.html#ab04ba68cad00668e6379a9e3fb1e5d8a" target="_top" xlink:title="CharaTrait::emitSpecialtiesClicked">
<polygon fill="white" stroke="black" points="126,-110.215 126,-131.215 304,-131.215 304,-110.215 126,-110.215"/>
<text text-anchor="middle" x="215" y="-118.215" font-family="DejaVuSans" font-size="10.00">CharaTrait::emitSpecialtiesClicked</text>
</a>
</g>
<!-- Node1&#45;&gt;Node4 -->
<g id="edge6" class="edge"><title>Node1&#45;&gt;Node4</title>
<path fill="none" stroke="midnightblue" d="M99.6699,-107.147C108.079,-108.136 116.944,-109.179 125.869,-110.229"/>
<polygon fill="midnightblue" stroke="midnightblue" points="100.006,-103.662 89.6655,-105.97 99.188,-110.615 100.006,-103.662"/>
</g>
<!-- Node6 -->
<g id="node11" class="node"><title>Node6</title>
<a xlink:href="class_storage_character.html#aabaae6015f75abfc6411f5a388418a3b" target="_top" xlink:title="StorageCharacter::modifyTrait">
<polygon fill="white" stroke="black" points="135,-70.2152 135,-91.2152 295,-91.2152 295,-70.2152 135,-70.2152"/>
<text text-anchor="middle" x="215" y="-78.2152" font-family="DejaVuSans" font-size="10.00">StorageCharacter::modifyTrait</text>
</a>
</g>
<!-- Node1&#45;&gt;Node6 -->
<g id="edge10" class="edge"><title>Node1&#45;&gt;Node6</title>
<path fill="none" stroke="midnightblue" d="M99.6991,-94.2801C110.901,-92.9622 122.911,-91.5493 134.795,-90.1511"/>
<polygon fill="midnightblue" stroke="midnightblue" points="99.188,-90.816 89.6655,-95.4605 100.006,-97.768 99.188,-90.816"/>
</g>
<!-- Node7 -->
<g id="node13" class="node"><title>Node7</title>
<a xlink:href="class_trait.html#a8d2ca547e2dd3189858cbd8aa1c52efd" target="_top" xlink:title="Trait::setDetails">
<polygon fill="white" stroke="black" points="170,-30.2152 170,-51.2152 260,-51.2152 260,-30.2152 170,-30.2152"/>
<text text-anchor="middle" x="215" y="-38.2152" font-family="DejaVuSans" font-size="10.00">Trait::setDetails</text>
</a>
</g>
<!-- Node1&#45;&gt;Node7 -->
<g id="edge12" class="edge"><title>Node1&#45;&gt;Node7</title>
<path fill="none" stroke="midnightblue" d="M72.0817,-85.3185C87.4952,-77.0765 107.387,-67.2965 126,-60.7152 139.886,-55.8054 155.428,-51.8234 169.591,-48.743"/>
<polygon fill="midnightblue" stroke="midnightblue" points="70.218,-82.3481 63.1148,-90.2091 73.5698,-88.4935 70.218,-82.3481"/>
</g>
<!-- Node8 -->
<g id="node15" class="node"><title>Node8</title>
<a xlink:href="class_trait.html#af91999c7db93d064bf79f1a72133152a" target="_top" xlink:title="Trait::Trait">
<polygon fill="white" stroke="black" points="369,-11.2152 369,-32.2152 431,-32.2152 431,-11.2152 369,-11.2152"/>
<text text-anchor="middle" x="400" y="-19.2152" font-family="DejaVuSans" font-size="10.00">Trait::Trait</text>
</a>
</g>
<!-- Node1&#45;&gt;Node8 -->
<g id="edge16" class="edge"><title>Node1&#45;&gt;Node8</title>
<path fill="none" stroke="midnightblue" d="M57.4619,-81.6147C71.4597,-62.0958 96.168,-32.9637 126,-20.7152 208.289,13.0711 316.561,-3.03585 368.949,-14.173"/>
<polygon fill="midnightblue" stroke="midnightblue" points="54.4342,-79.8402 51.6395,-90.0599 60.1972,-83.8136 54.4342,-79.8402"/>
</g>
<!-- Node5 -->
<g id="node9" class="node"><title>Node5</title>
<a xlink:href="class_chara_trait.html#a21787eb972b4fc8779368a78f4430f14" target="_top" xlink:title="CharaTrait::CharaTrait">
<polygon fill="white" stroke="black" points="340.5,-110.215 340.5,-131.215 459.5,-131.215 459.5,-110.215 340.5,-110.215"/>
<text text-anchor="middle" x="400" y="-118.215" font-family="DejaVuSans" font-size="10.00">CharaTrait::CharaTrait</text>
</a>
</g>
<!-- Node4&#45;&gt;Node5 -->
<g id="edge8" class="edge"><title>Node4&#45;&gt;Node5</title>
<path fill="none" stroke="midnightblue" d="M314.329,-120.715C323.241,-120.715 332.068,-120.715 340.476,-120.715"/>
<polygon fill="midnightblue" stroke="midnightblue" points="314.249,-117.215 304.249,-120.715 314.249,-124.215 314.249,-117.215"/>
</g>
<!-- Node7&#45;&gt;Node8 -->
<g id="edge14" class="edge"><title>Node7&#45;&gt;Node8</title>
<path fill="none" stroke="midnightblue" d="M270.43,-35.0224C302.619,-31.7165 341.985,-27.6735 368.821,-24.9174"/>
<polygon fill="midnightblue" stroke="midnightblue" points="269.846,-31.5639 260.256,-36.0673 270.561,-38.5273 269.846,-31.5639"/>
</g>
</g>
</svg>
