<?xml version="1.0" encoding="UTF-8" standalone="no"?>
<!DOCTYPE svg PUBLIC "-//W3C//DTD SVG 1.1//EN"
 "http://www.w3.org/Graphics/SVG/1.1/DTD/svg11.dtd">
<!-- Generated by graphviz version 2.26.3 (20100126.1600)
 -->
<!-- Title: G Pages: 1 -->
<svg width="656pt" height="149pt"
 viewBox="0.00 0.00 656.00 149.00" xmlns="http://www.w3.org/2000/svg" xmlns:xlink="http://www.w3.org/1999/xlink">
<g id="graph1" class="graph" transform="scale(1 1) rotate(0) translate(4 145)">
<title>G</title>
<polygon fill="white" stroke="white" points="-4,5 -4,-145 653,-145 653,5 -4,5"/>
<!-- Node1 -->
<g id="node1" class="node"><title>Node1</title>
<polygon fill="#bfbfbf" stroke="black" points="0,-79.5 0,-100.5 180,-100.5 180,-79.5 0,-79.5"/>
<text text-anchor="middle" x="90" y="-87.5" font-family="DejaVuSans" font-size="10.00">CharaTrait::checkTraitPrerequisites</text>
</g>
<!-- Node2 -->
<g id="node3" class="node"><title>Node2</title>
<a xlink:href="class_exception.html#a7cb124af6ec64ad88a8721b60c7932fb" target="_top" xlink:title="Exception::description">
<polygon fill="white" stroke="black" points="216,-119.5 216,-140.5 338,-140.5 338,-119.5 216,-119.5"/>
<text text-anchor="middle" x="277" y="-127.5" font-family="DejaVuSans" font-size="10.00">Exception::description</text>
</a>
</g>
<!-- Node1&#45;&gt;Node2 -->
<g id="edge2" class="edge"><title>Node1&#45;&gt;Node2</title>
<path fill="none" stroke="midnightblue" d="M139.132,-100.51C163.302,-105.679 192.62,-111.951 217.996,-117.379"/>
<polygon fill="midnightblue" stroke="midnightblue" points="217.361,-120.822 227.872,-119.491 218.825,-113.977 217.361,-120.822"/>
</g>
<!-- Node3 -->
<g id="node5" class="node"><title>Node3</title>
<a xlink:href="class_exception.html#aeaf3a81717287d50938bc72ed67bacd8" target="_top" xlink:title="Exception::message">
<polygon fill="white" stroke="black" points="220.5,-79.5 220.5,-100.5 333.5,-100.5 333.5,-79.5 220.5,-79.5"/>
<text text-anchor="middle" x="277" y="-87.5" font-family="DejaVuSans" font-size="10.00">Exception::message</text>
</a>
</g>
<!-- Node1&#45;&gt;Node3 -->
<g id="edge4" class="edge"><title>Node1&#45;&gt;Node3</title>
<path fill="none" stroke="midnightblue" d="M180.213,-90C190.403,-90 200.645,-90 210.454,-90"/>
<polygon fill="midnightblue" stroke="midnightblue" points="210.499,-93.5001 220.499,-90 210.499,-86.5001 210.499,-93.5001"/>
</g>
<!-- Node4 -->
<g id="node7" class="node"><title>Node4</title>
<a xlink:href="class_chara_trait.html#abcfeed4a455c49246385c9bc2024ba15" target="_top" xlink:title="CharaTrait::setValue">
<polygon fill="white" stroke="black" points="221,-39.5 221,-60.5 333,-60.5 333,-39.5 221,-39.5"/>
<text text-anchor="middle" x="277" y="-47.5" font-family="DejaVuSans" font-size="10.00">CharaTrait::setValue</text>
</a>
</g>
<!-- Node1&#45;&gt;Node4 -->
<g id="edge6" class="edge"><title>Node1&#45;&gt;Node4</title>
<path fill="none" stroke="midnightblue" d="M139.132,-79.4905C163.302,-74.3205 192.62,-68.0492 217.996,-62.6212"/>
<polygon fill="midnightblue" stroke="midnightblue" points="218.825,-66.0231 227.872,-60.5087 217.361,-59.1779 218.825,-66.0231"/>
</g>
<!-- Node5 -->
<g id="node9" class="node"><title>Node5</title>
<a xlink:href="class_chara_trait.html#ab3935a94198f510d3de473a9a72692ac" target="_top" xlink:title="CharaTrait::traitChanged">
<polygon fill="white" stroke="black" points="374.5,-78.5 374.5,-99.5 507.5,-99.5 507.5,-78.5 374.5,-78.5"/>
<text text-anchor="middle" x="441" y="-86.5" font-family="DejaVuSans" font-size="10.00">CharaTrait::traitChanged</text>
</a>
</g>
<!-- Node4&#45;&gt;Node5 -->
<g id="edge8" class="edge"><title>Node4&#45;&gt;Node5</title>
<path fill="none" stroke="midnightblue" d="M321.381,-60.554C341.526,-65.3447 365.539,-71.0551 386.746,-76.0981"/>
<polygon fill="midnightblue" stroke="midnightblue" points="386.045,-79.529 396.584,-78.4376 387.665,-72.7189 386.045,-79.529"/>
</g>
<!-- Node6 -->
<g id="node11" class="node"><title>Node6</title>
<a xlink:href="class_chara_trait.html#acd1abb86d271f401b9856f2c8e172255" target="_top" xlink:title="CharaTrait::traitPtr">
<polygon fill="white" stroke="black" points="544,-19.5 544,-40.5 648,-40.5 648,-19.5 544,-19.5"/>
<text text-anchor="middle" x="596" y="-27.5" font-family="DejaVuSans" font-size="10.00">CharaTrait::traitPtr</text>
</a>
</g>
<!-- Node4&#45;&gt;Node6 -->
<g id="edge10" class="edge"><title>Node4&#45;&gt;Node6</title>
<path fill="none" stroke="midnightblue" d="M333.296,-46.4704C389.485,-42.9477 475.618,-37.5475 533.799,-33.8998"/>
<polygon fill="midnightblue" stroke="midnightblue" points="534.202,-37.3814 543.963,-33.2625 533.764,-30.3952 534.202,-37.3814"/>
</g>
<!-- Node7 -->
<g id="node13" class="node"><title>Node7</title>
<a xlink:href="class_chara_trait.html#adeed572acc2fa97468285bc3267e9cb8" target="_top" xlink:title="CharaTrait::value">
<polygon fill="white" stroke="black" points="393,-0.5 393,-21.5 489,-21.5 489,-0.5 393,-0.5"/>
<text text-anchor="middle" x="441" y="-8.5" font-family="DejaVuSans" font-size="10.00">CharaTrait::value</text>
</a>
</g>
<!-- Node4&#45;&gt;Node7 -->
<g id="edge12" class="edge"><title>Node4&#45;&gt;Node7</title>
<path fill="none" stroke="midnightblue" d="M321.381,-39.446C341.526,-34.6553 365.539,-28.9449 386.746,-23.9019"/>
<polygon fill="midnightblue" stroke="midnightblue" points="387.665,-27.2811 396.584,-21.5624 386.045,-20.471 387.665,-27.2811"/>
</g>
<!-- Node7&#45;&gt;Node6 -->
<g id="edge14" class="edge"><title>Node7&#45;&gt;Node6</title>
<path fill="none" stroke="midnightblue" d="M489.193,-16.9076C503.273,-18.6335 518.867,-20.545 533.689,-22.3619"/>
<polygon fill="midnightblue" stroke="midnightblue" points="533.448,-25.8584 543.799,-23.6012 534.299,-18.9104 533.448,-25.8584"/>
</g>
</g>
</svg>
