<?xml version="1.0" encoding="UTF-8" standalone="no"?>
<!DOCTYPE svg PUBLIC "-//W3C//DTD SVG 1.1//EN"
 "http://www.w3.org/Graphics/SVG/1.1/DTD/svg11.dtd">
<!-- Generated by graphviz version 2.26.3 (20100126.1600)
 -->
<!-- Title: G Pages: 1 -->
<svg width="225pt" height="166pt"
 viewBox="0.00 0.00 225.00 166.00" xmlns="http://www.w3.org/2000/svg" xmlns:xlink="http://www.w3.org/1999/xlink">
<g id="graph1" class="graph" transform="scale(1 1) rotate(0) translate(4 162)">
<title>G</title>
<polygon fill="white" stroke="white" points="-4,5 -4,-162 222,-162 222,5 -4,5"/>
<!-- Node1 -->
<g id="node1" class="node"><title>Node1</title>
<polygon fill="#bfbfbf" stroke="black" points="-0.5,-0.5 -0.5,-21.5 214.5,-21.5 214.5,-0.5 -0.5,-0.5"/>
<text text-anchor="middle" x="107" y="-8.5" font-family="DejaVuSans" font-size="10.00">src.Calc.CalcAdvantages.CalcAdvantages</text>
</g>
<!-- Node2 -->
<g id="node2" class="node"><title>Node2</title>
<polygon fill="white" stroke="#bfbfbf" points="47.5,-136.5 47.5,-157.5 102.5,-157.5 102.5,-136.5 47.5,-136.5"/>
<text text-anchor="middle" x="75" y="-144.5" font-family="DejaVuSans" font-size="10.00">QObject</text>
</g>
<!-- Node2&#45;&gt;Node1 -->
<g id="edge2" class="edge"><title>Node2&#45;&gt;Node1</title>
<path fill="none" stroke="midnightblue" d="M79.8662,-126.319C86.7835,-96.9201 99.2069,-44.1209 104.501,-21.6221"/>
<polygon fill="midnightblue" stroke="midnightblue" points="76.3945,-125.792 77.511,-136.328 83.2084,-127.396 76.3945,-125.792"/>
</g>
<!-- Node3 -->
<g id="node4" class="node"><title>Node3</title>
<polygon fill="white" stroke="#bfbfbf" points="119.5,-136.5 119.5,-157.5 160.5,-157.5 160.5,-136.5 119.5,-136.5"/>
<text text-anchor="middle" x="140" y="-144.5" font-family="DejaVuSans" font-size="10.00">tuple</text>
</g>
<!-- Node3&#45;&gt;Node1 -->
<g id="edge4" class="edge"><title>Node3&#45;&gt;Node1</title>
<path fill="none" stroke="#9a32cd" stroke-dasharray="5,2" d="M134.982,-126.319C127.848,-96.9201 115.037,-44.1209 109.577,-21.6221"/>
<polygon fill="#9a32cd" stroke="#9a32cd" points="131.651,-127.436 137.411,-136.328 138.454,-125.785 131.651,-127.436"/>
<text text-anchor="middle" x="174.5" y="-109" font-family="DejaVuSans" font-size="10.00">healthChanged</text>
<text text-anchor="middle" x="174.5" y="-96" font-family="DejaVuSans" font-size="10.00">speedChanged</text>
<text text-anchor="middle" x="174.5" y="-83" font-family="DejaVuSans" font-size="10.00">sizeChanged</text>
<text text-anchor="middle" x="174.5" y="-70" font-family="DejaVuSans" font-size="10.00">willpowerChanged</text>
<text text-anchor="middle" x="174.5" y="-57" font-family="DejaVuSans" font-size="10.00">defenseChanged</text>
<text text-anchor="middle" x="174.5" y="-44" font-family="DejaVuSans" font-size="10.00">initiativeChanged</text>
</g>
</g>
</svg>
