<?xml version="1.0" encoding="UTF-8" standalone="no"?>
<!DOCTYPE svg PUBLIC "-//W3C//DTD SVG 1.1//EN"
 "http://www.w3.org/Graphics/SVG/1.1/DTD/svg11.dtd">
<!-- Generated by graphviz version 2.26.3 (20100126.1600)
 -->
<!-- Title: G Pages: 1 -->
<svg width="428pt" height="70pt"
 viewBox="0.00 0.00 428.00 70.00" xmlns="http://www.w3.org/2000/svg" xmlns:xlink="http://www.w3.org/1999/xlink">
<g id="graph1" class="graph" transform="scale(1 1) rotate(0) translate(4 66)">
<title>G</title>
<polygon fill="white" stroke="white" points="-4,5 -4,-66 425,-66 425,5 -4,5"/>
<!-- Node1 -->
<g id="node1" class="node"><title>Node1</title>
<polygon fill="#bfbfbf" stroke="black" points="0,-20.5 0,-41.5 204,-41.5 204,-20.5 0,-20.5"/>
<text text-anchor="middle" x="102" y="-28.5" font-family="DejaVuSans" font-size="10.00">StorageCharacter::realIdentityChanged</text>
</g>
<!-- Node2 -->
<g id="node3" class="node"><title>Node2</title>
<a xlink:href="class_storage_character.html#a6534667b942bd21253c432fee79a8850" target="_top" xlink:title="StorageCharacter::resetCharacter">
<polygon fill="white" stroke="black" points="240,-40.5 240,-61.5 420,-61.5 420,-40.5 240,-40.5"/>
<text text-anchor="middle" x="330" y="-48.5" font-family="DejaVuSans" font-size="10.00">StorageCharacter::resetCharacter</text>
</a>
</g>
<!-- Node1&#45;&gt;Node2 -->
<g id="edge2" class="edge"><title>Node1&#45;&gt;Node2</title>
<path fill="none" stroke="midnightblue" d="M214.346,-40.8549C222.894,-41.6047 231.454,-42.3556 239.835,-43.0908"/>
<polygon fill="midnightblue" stroke="midnightblue" points="214.596,-37.3635 204.329,-39.9762 213.985,-44.3367 214.596,-37.3635"/>
</g>
<!-- Node3 -->
<g id="node5" class="node"><title>Node3</title>
<a xlink:href="class_storage_character.html#ae4fc2c6b281bfe6411812dc6f3ff41ff" target="_top" xlink:title="StorageCharacter::setRealIdentity">
<polygon fill="white" stroke="black" points="241,-0.5 241,-21.5 419,-21.5 419,-0.5 241,-0.5"/>
<text text-anchor="middle" x="330" y="-8.5" font-family="DejaVuSans" font-size="10.00">StorageCharacter::setRealIdentity</text>
</a>
</g>
<!-- Node1&#45;&gt;Node3 -->
<g id="edge4" class="edge"><title>Node1&#45;&gt;Node3</title>
<path fill="none" stroke="midnightblue" d="M214.36,-21.1439C223.26,-20.3632 232.173,-19.5813 240.883,-18.8173"/>
<polygon fill="midnightblue" stroke="midnightblue" points="213.985,-17.6633 204.329,-22.0238 214.596,-24.6365 213.985,-17.6633"/>
</g>
</g>
</svg>
