<?xml version="1.0" encoding="UTF-8" standalone="no"?>
<!DOCTYPE svg PUBLIC "-//W3C//DTD SVG 1.1//EN"
 "http://www.w3.org/Graphics/SVG/1.1/DTD/svg11.dtd">
<!-- Generated by graphviz version 2.26.3 (20100126.1600)
 -->
<!-- Title: G Pages: 1 -->
<svg width="330pt" height="70pt"
 viewBox="0.00 0.00 330.00 70.00" xmlns="http://www.w3.org/2000/svg" xmlns:xlink="http://www.w3.org/1999/xlink">
<g id="graph1" class="graph" transform="scale(1 1) rotate(0) translate(4 66)">
<title>G</title>
<polygon fill="white" stroke="white" points="-4,5 -4,-66 327,-66 327,5 -4,5"/>
<!-- Node1 -->
<g id="node1" class="node"><title>Node1</title>
<polygon fill="#bfbfbf" stroke="black" points="0.5,-20.5 0.5,-41.5 113.5,-41.5 113.5,-20.5 0.5,-20.5"/>
<text text-anchor="middle" x="57" y="-28.5" font-family="DejaVuSans" font-size="10.00">CharaTrait::category</text>
</g>
<!-- Node2 -->
<g id="node3" class="node"><title>Node2</title>
<a xlink:href="class_attribute_widget.html#ab498116d47f94a62e3b82eaa79976b36" target="_top" xlink:title="AttributeWidget::AttributeWidget">
<polygon fill="white" stroke="black" points="150.5,-40.5 150.5,-61.5 321.5,-61.5 321.5,-40.5 150.5,-40.5"/>
<text text-anchor="middle" x="236" y="-48.5" font-family="DejaVuSans" font-size="10.00">AttributeWidget::AttributeWidget</text>
</a>
</g>
<!-- Node1&#45;&gt;Node2 -->
<g id="edge2" class="edge"><title>Node1&#45;&gt;Node2</title>
<path fill="none" stroke="midnightblue" d="M123.673,-38.4495C132.361,-39.4202 141.356,-40.4253 150.301,-41.4247"/>
<polygon fill="midnightblue" stroke="midnightblue" points="123.964,-34.9603 113.637,-37.3281 123.186,-41.917 123.964,-34.9603"/>
</g>
<!-- Node3 -->
<g id="node5" class="node"><title>Node3</title>
<a xlink:href="class_chara_trait.html#ad3abff76332080dfd9e487287537b8a2" target="_top" xlink:title="CharaTrait::setCategory">
<polygon fill="white" stroke="black" points="171.5,-0.5 171.5,-21.5 300.5,-21.5 300.5,-0.5 171.5,-0.5"/>
<text text-anchor="middle" x="236" y="-8.5" font-family="DejaVuSans" font-size="10.00">CharaTrait::setCategory</text>
</a>
</g>
<!-- Node1&#45;&gt;Node3 -->
<g id="edge4" class="edge"><title>Node1&#45;&gt;Node3</title>
<path fill="none" stroke="midnightblue" d="M123.705,-23.5469C139.276,-21.8072 155.832,-19.9573 171.314,-18.2275"/>
<polygon fill="midnightblue" stroke="midnightblue" points="123.186,-20.083 113.637,-24.6719 123.964,-27.0397 123.186,-20.083"/>
</g>
</g>
</svg>
