<?xml version="1.0" encoding="UTF-8" standalone="no"?>
<!DOCTYPE svg PUBLIC "-//W3C//DTD SVG 1.1//EN"
 "http://www.w3.org/Graphics/SVG/1.1/DTD/svg11.dtd">
<!-- Generated by graphviz version 2.26.3 (20100126.1600)
 -->
<!-- Title: G Pages: 1 -->
<svg width="610pt" height="85pt"
 viewBox="0.00 0.00 610.00 85.27" xmlns="http://www.w3.org/2000/svg" xmlns:xlink="http://www.w3.org/1999/xlink">
<g id="graph1" class="graph" transform="scale(1 1) rotate(0) translate(4 81.2706)">
<title>G</title>
<polygon fill="white" stroke="white" points="-4,5 -4,-81.2706 607,-81.2706 607,5 -4,5"/>
<!-- Node1 -->
<g id="node1" class="node"><title>Node1</title>
<polygon fill="#bfbfbf" stroke="black" points="0.5,-40.5 0.5,-61.5 83.5,-61.5 83.5,-40.5 0.5,-40.5"/>
<text text-anchor="middle" x="42" y="-48.5" font-family="DejaVuSans" font-size="10.00">Trait::setValue</text>
</g>
<!-- Node2 -->
<g id="node3" class="node"><title>Node2</title>
<a xlink:href="class_check_trait.html#a9073e7f8bbac8c351bf829b23a9fc850" target="_top" xlink:title="CheckTrait::setValue">
<polygon fill="white" stroke="black" points="120.5,-40.5 120.5,-61.5 233.5,-61.5 233.5,-40.5 120.5,-40.5"/>
<text text-anchor="middle" x="177" y="-48.5" font-family="DejaVuSans" font-size="10.00">CheckTrait::setValue</text>
</a>
</g>
<!-- Node1&#45;&gt;Node2 -->
<g id="edge2" class="edge"><title>Node1&#45;&gt;Node2</title>
<path fill="none" stroke="midnightblue" d="M93.6597,-51C102.403,-51 111.523,-51 120.385,-51"/>
<polygon fill="midnightblue" stroke="midnightblue" points="93.606,-47.5001 83.606,-51 93.606,-54.5001 93.606,-47.5001"/>
</g>
<!-- Node3 -->
<g id="node5" class="node"><title>Node3</title>
<a xlink:href="class_check_trait.html#a3d74335165852938fb58d285bcc25b52" target="_top" xlink:title="CheckTrait::CheckTrait">
<polygon fill="white" stroke="black" points="482,-39.5 482,-60.5 602,-60.5 602,-39.5 482,-39.5"/>
<text text-anchor="middle" x="542" y="-47.5" font-family="DejaVuSans" font-size="10.00">CheckTrait::CheckTrait</text>
</a>
</g>
<!-- Node2&#45;&gt;Node3 -->
<g id="edge4" class="edge"><title>Node2&#45;&gt;Node3</title>
<path fill="none" stroke="midnightblue" d="M226.832,-63.7483C240.711,-66.7423 255.86,-69.4968 270,-71 347.784,-79.2693 368.231,-79.4066 446,-71 464.997,-68.9464 485.747,-64.6702 503.08,-60.5092"/>
<polygon fill="midnightblue" stroke="midnightblue" points="227.506,-60.3126 216.983,-61.5403 225.975,-67.1431 227.506,-60.3126"/>
</g>
<!-- Node4 -->
<g id="node7" class="node"><title>Node4</title>
<a xlink:href="class_flaw_widget.html#af387a892373d07ce615ad19d6da45448" target="_top" xlink:title="FlawWidget::FlawWidget">
<polygon fill="white" stroke="black" points="294,-40.5 294,-61.5 422,-61.5 422,-40.5 294,-40.5"/>
<text text-anchor="middle" x="358" y="-48.5" font-family="DejaVuSans" font-size="10.00">FlawWidget::FlawWidget</text>
</a>
</g>
<!-- Node2&#45;&gt;Node4 -->
<g id="edge6" class="edge"><title>Node2&#45;&gt;Node4</title>
<path fill="none" stroke="midnightblue" d="M243.795,-51C260.155,-51 277.627,-51 293.86,-51"/>
<polygon fill="midnightblue" stroke="midnightblue" points="243.773,-47.5001 233.773,-51 243.773,-54.5001 243.773,-47.5001"/>
</g>
<!-- Node5 -->
<g id="node9" class="node"><title>Node5</title>
<a xlink:href="class_check_trait.html#a38b03dfbcc01dbb65a9b345423e232db" target="_top" xlink:title="CheckTrait::hideTraitIfNotAvailable">
<polygon fill="white" stroke="black" points="270,-0.5 270,-21.5 446,-21.5 446,-0.5 270,-0.5"/>
<text text-anchor="middle" x="358" y="-8.5" font-family="DejaVuSans" font-size="10.00">CheckTrait::hideTraitIfNotAvailable</text>
</a>
</g>
<!-- Node2&#45;&gt;Node5 -->
<g id="edge8" class="edge"><title>Node2&#45;&gt;Node5</title>
<path fill="none" stroke="midnightblue" d="M234.441,-38.3059C258.928,-32.8944 287.158,-26.6557 310.448,-21.5087"/>
<polygon fill="midnightblue" stroke="midnightblue" points="233.565,-34.915 224.556,-40.4905 235.075,-41.7501 233.565,-34.915"/>
</g>
<!-- Node5&#45;&gt;Node3 -->
<g id="edge10" class="edge"><title>Node5&#45;&gt;Node3</title>
<path fill="none" stroke="midnightblue" d="M417.861,-23.688C441.885,-28.78 469.253,-34.5808 492.167,-39.4376"/>
<polygon fill="midnightblue" stroke="midnightblue" points="418.301,-20.2036 407.793,-21.554 416.85,-27.0515 418.301,-20.2036"/>
</g>
</g>
</svg>
