<?xml version="1.0" encoding="UTF-8" standalone="no"?>
<!DOCTYPE svg PUBLIC "-//W3C//DTD SVG 1.1//EN"
 "http://www.w3.org/Graphics/SVG/1.1/DTD/svg11.dtd">
<!-- Generated by graphviz version 2.26.3 (20100126.1600)
 -->
<!-- Title: G Pages: 1 -->
<svg width="292pt" height="70pt"
 viewBox="0.00 0.00 292.00 70.00" xmlns="http://www.w3.org/2000/svg" xmlns:xlink="http://www.w3.org/1999/xlink">
<g id="graph1" class="graph" transform="scale(1 1) rotate(0) translate(4 66)">
<title>G</title>
<polygon fill="white" stroke="white" points="-4,5 -4,-66 289,-66 289,5 -4,5"/>
<!-- Node1 -->
<g id="node1" class="node"><title>Node1</title>
<polygon fill="#bfbfbf" stroke="black" points="0.5,-20.5 0.5,-41.5 135.5,-41.5 135.5,-20.5 0.5,-20.5"/>
<text text-anchor="middle" x="68" y="-28.5" font-family="DejaVuSans" font-size="10.00">Creation::pointsChanged</text>
</g>
<!-- Node2 -->
<g id="node3" class="node"><title>Node2</title>
<a xlink:href="class_creation.html#a2fc5625819c4f10884e0c31b594700a4" target="_top" xlink:title="Creation::calcPoints">
<polygon fill="white" stroke="black" points="172.5,-40.5 172.5,-61.5 283.5,-61.5 283.5,-40.5 172.5,-40.5"/>
<text text-anchor="middle" x="228" y="-48.5" font-family="DejaVuSans" font-size="10.00">Creation::calcPoints</text>
</a>
</g>
<!-- Node1&#45;&gt;Node2 -->
<g id="edge2" class="edge"><title>Node1&#45;&gt;Node2</title>
<path fill="none" stroke="midnightblue" d="M145.837,-40.7297C154.713,-41.8392 163.625,-42.9531 172.135,-44.0168"/>
<polygon fill="midnightblue" stroke="midnightblue" points="146.211,-37.2493 135.854,-39.4818 145.343,-44.1952 146.211,-37.2493"/>
</g>
<!-- Node3 -->
<g id="node5" class="node"><title>Node3</title>
<a xlink:href="class_creation.html#a30d117b691402f2ba2233125b91070d8" target="_top" xlink:title="Creation::setPoints">
<polygon fill="white" stroke="black" points="174.5,-0.5 174.5,-21.5 281.5,-21.5 281.5,-0.5 174.5,-0.5"/>
<text text-anchor="middle" x="228" y="-8.5" font-family="DejaVuSans" font-size="10.00">Creation::setPoints</text>
</a>
</g>
<!-- Node1&#45;&gt;Node3 -->
<g id="edge4" class="edge"><title>Node1&#45;&gt;Node3</title>
<path fill="none" stroke="midnightblue" d="M145.797,-21.2754C155.375,-20.0782 164.994,-18.8757 174.107,-17.7367"/>
<polygon fill="midnightblue" stroke="midnightblue" points="145.343,-17.8048 135.854,-22.5182 146.211,-24.7507 145.343,-17.8048"/>
</g>
</g>
</svg>
