<?xml version="1.0" encoding="UTF-8" standalone="no"?>
<!DOCTYPE svg PUBLIC "-//W3C//DTD SVG 1.1//EN"
 "http://www.w3.org/Graphics/SVG/1.1/DTD/svg11.dtd">
<!-- Generated by graphviz version 2.26.3 (20100126.1600)
 -->
<!-- Title: G Pages: 1 -->
<svg width="614pt" height="79pt"
 viewBox="0.00 0.00 614.00 79.00" xmlns="http://www.w3.org/2000/svg" xmlns:xlink="http://www.w3.org/1999/xlink">
<g id="graph1" class="graph" transform="scale(1 1) rotate(0) translate(4 75)">
<title>G</title>
<polygon fill="white" stroke="white" points="-4,5 -4,-75 611,-75 611,5 -4,5"/>
<!-- Node1 -->
<g id="node1" class="node"><title>Node1</title>
<polygon fill="#bfbfbf" stroke="black" points="0,-20.5 0,-41.5 186,-41.5 186,-20.5 0,-20.5"/>
<text text-anchor="middle" x="93" y="-28.5" font-family="DejaVuSans" font-size="10.00">StorageCharacter::identityChanged</text>
</g>
<!-- Node2 -->
<g id="node3" class="node"><title>Node2</title>
<a xlink:href="class_storage_character.html#a6a8921fe9bedaadee6d4f680438a8872" target="_top" xlink:title="StorageCharacter::addIdentity">
<polygon fill="white" stroke="black" points="436.5,-49.5 436.5,-70.5 597.5,-70.5 597.5,-49.5 436.5,-49.5"/>
<text text-anchor="middle" x="517" y="-57.5" font-family="DejaVuSans" font-size="10.00">StorageCharacter::addIdentity</text>
</a>
</g>
<!-- Node1&#45;&gt;Node2 -->
<g id="edge2" class="edge"><title>Node1&#45;&gt;Node2</title>
<path fill="none" stroke="midnightblue" d="M161.001,-43.1494C180.625,-46.2187 202.11,-49.1618 222,-51 294.323,-57.684 377,-59.7253 436.39,-60.2161"/>
<polygon fill="midnightblue" stroke="midnightblue" points="161.354,-39.6614 150.927,-41.538 160.248,-46.5736 161.354,-39.6614"/>
</g>
<!-- Node3 -->
<g id="node5" class="node"><title>Node3</title>
<a xlink:href="class_storage_character.html#a802f3481674acdc5cb0a8623de21e919" target="_top" xlink:title="StorageCharacter::insertIdentity">
<polygon fill="white" stroke="black" points="222,-20.5 222,-41.5 392,-41.5 392,-20.5 222,-20.5"/>
<text text-anchor="middle" x="307" y="-28.5" font-family="DejaVuSans" font-size="10.00">StorageCharacter::insertIdentity</text>
</a>
</g>
<!-- Node1&#45;&gt;Node3 -->
<g id="edge4" class="edge"><title>Node1&#45;&gt;Node3</title>
<path fill="none" stroke="midnightblue" d="M196.261,-31C204.82,-31 213.41,-31 221.814,-31"/>
<polygon fill="midnightblue" stroke="midnightblue" points="196.241,-27.5001 186.241,-31 196.241,-34.5001 196.241,-27.5001"/>
</g>
<!-- Node4 -->
<g id="node8" class="node"><title>Node4</title>
<a xlink:href="class_storage_character.html#ae4fc2c6b281bfe6411812dc6f3ff41ff" target="_top" xlink:title="StorageCharacter::setRealIdentity">
<polygon fill="white" stroke="black" points="428,-0.5 428,-21.5 606,-21.5 606,-0.5 428,-0.5"/>
<text text-anchor="middle" x="517" y="-8.5" font-family="DejaVuSans" font-size="10.00">StorageCharacter::setRealIdentity</text>
</a>
</g>
<!-- Node1&#45;&gt;Node4 -->
<g id="edge10" class="edge"><title>Node1&#45;&gt;Node4</title>
<path fill="none" stroke="midnightblue" d="M158.706,-18.8159C178.931,-15.6049 201.316,-12.5939 222,-11 290.936,-5.68784 369.203,-5.97835 427.789,-7.43973"/>
<polygon fill="midnightblue" stroke="midnightblue" points="157.965,-15.3905 148.659,-20.4546 159.092,-22.2992 157.965,-15.3905"/>
</g>
<!-- Node3&#45;&gt;Node2 -->
<g id="edge6" class="edge"><title>Node3&#45;&gt;Node2</title>
<path fill="none" stroke="midnightblue" d="M393.35,-42.9245C409.079,-45.0967 425.386,-47.3485 440.795,-49.4765"/>
<polygon fill="midnightblue" stroke="midnightblue" points="393.497,-39.4116 383.112,-41.5107 392.539,-46.3458 393.497,-39.4116"/>
</g>
<!-- Node3&#45;&gt;Node4 -->
<g id="edge8" class="edge"><title>Node3&#45;&gt;Node4</title>
<path fill="none" stroke="midnightblue" d="M402.339,-21.9201C410.769,-21.1173 419.282,-20.3065 427.66,-19.5086"/>
<polygon fill="midnightblue" stroke="midnightblue" points="401.735,-18.4617 392.112,-22.8941 402.399,-25.4301 401.735,-18.4617"/>
</g>
</g>
</svg>
