<?xml version="1.0" encoding="UTF-8" standalone="no"?>
<!DOCTYPE svg PUBLIC "-//W3C//DTD SVG 1.1//EN"
 "http://www.w3.org/Graphics/SVG/1.1/DTD/svg11.dtd">
<!-- Generated by graphviz version 2.26.3 (20100126.1600)
 -->
<!-- Title: G Pages: 1 -->
<svg width="394pt" height="110pt"
 viewBox="0.00 0.00 394.00 110.00" xmlns="http://www.w3.org/2000/svg" xmlns:xlink="http://www.w3.org/1999/xlink">
<g id="graph1" class="graph" transform="scale(1 1) rotate(0) translate(4 106)">
<title>G</title>
<polygon fill="white" stroke="white" points="-4,5 -4,-106 391,-106 391,5 -4,5"/>
<!-- Node1 -->
<g id="node1" class="node"><title>Node1</title>
<polygon fill="#bfbfbf" stroke="black" points="0,-40.5 0,-61.5 170,-61.5 170,-40.5 0,-40.5"/>
<text text-anchor="middle" x="85" y="-48.5" font-family="DejaVuSans" font-size="10.00">StorageCharacter::traitChanged</text>
</g>
<!-- Node2 -->
<g id="node3" class="node"><title>Node2</title>
<a xlink:href="class_storage_character.html#a2093dc6b7f575513846c3e8cd2fa0985" target="_top" xlink:title="StorageCharacter::addTrait">
<polygon fill="white" stroke="black" points="223,-80.5 223,-101.5 369,-101.5 369,-80.5 223,-80.5"/>
<text text-anchor="middle" x="296" y="-88.5" font-family="DejaVuSans" font-size="10.00">StorageCharacter::addTrait</text>
</a>
</g>
<!-- Node1&#45;&gt;Node2 -->
<g id="edge2" class="edge"><title>Node1&#45;&gt;Node2</title>
<path fill="none" stroke="midnightblue" d="M150.443,-63.4063C179.335,-68.8834 212.934,-75.2528 240.567,-80.4913"/>
<polygon fill="midnightblue" stroke="midnightblue" points="150.915,-59.9334 140.438,-61.5095 149.611,-66.8109 150.915,-59.9334"/>
</g>
<!-- Node3 -->
<g id="node5" class="node"><title>Node3</title>
<a xlink:href="class_storage_character.html#aabaae6015f75abfc6411f5a388418a3b" target="_top" xlink:title="StorageCharacter::modifyTrait">
<polygon fill="white" stroke="black" points="216,-40.5 216,-61.5 376,-61.5 376,-40.5 216,-40.5"/>
<text text-anchor="middle" x="296" y="-48.5" font-family="DejaVuSans" font-size="10.00">StorageCharacter::modifyTrait</text>
</a>
</g>
<!-- Node1&#45;&gt;Node3 -->
<g id="edge4" class="edge"><title>Node1&#45;&gt;Node3</title>
<path fill="none" stroke="midnightblue" d="M180.549,-51C192.376,-51 204.372,-51 215.934,-51"/>
<polygon fill="midnightblue" stroke="midnightblue" points="180.214,-47.5001 170.214,-51 180.214,-54.5001 180.214,-47.5001"/>
</g>
<!-- Node4 -->
<g id="node7" class="node"><title>Node4</title>
<a xlink:href="class_storage_character.html#a6534667b942bd21253c432fee79a8850" target="_top" xlink:title="StorageCharacter::resetCharacter">
<polygon fill="white" stroke="black" points="206,-0.5 206,-21.5 386,-21.5 386,-0.5 206,-0.5"/>
<text text-anchor="middle" x="296" y="-8.5" font-family="DejaVuSans" font-size="10.00">StorageCharacter::resetCharacter</text>
</a>
</g>
<!-- Node1&#45;&gt;Node4 -->
<g id="edge6" class="edge"><title>Node1&#45;&gt;Node4</title>
<path fill="none" stroke="midnightblue" d="M150.443,-38.5937C179.335,-33.1166 212.934,-26.7472 240.567,-21.5087"/>
<polygon fill="midnightblue" stroke="midnightblue" points="149.611,-35.1891 140.438,-40.4905 150.915,-42.0666 149.611,-35.1891"/>
</g>
</g>
</svg>
