<?xml version="1.0" encoding="UTF-8" standalone="no"?>
<!DOCTYPE svg PUBLIC "-//W3C//DTD SVG 1.1//EN"
 "http://www.w3.org/Graphics/SVG/1.1/DTD/svg11.dtd">
<!-- Generated by graphviz version 2.26.3 (20100126.1600)
 -->
<!-- Title: G Pages: 1 -->
<svg width="818pt" height="230pt"
 viewBox="0.00 0.00 818.00 230.00" xmlns="http://www.w3.org/2000/svg" xmlns:xlink="http://www.w3.org/1999/xlink">
<g id="graph1" class="graph" transform="scale(1 1) rotate(0) translate(4 226)">
<title>G</title>
<polygon fill="white" stroke="white" points="-4,5 -4,-226 815,-226 815,5 -4,5"/>
<!-- Node1 -->
<g id="node1" class="node"><title>Node1</title>
<polygon fill="#bfbfbf" stroke="black" points="0.5,-120.5 0.5,-141.5 133.5,-141.5 133.5,-120.5 0.5,-120.5"/>
<text text-anchor="middle" x="67" y="-128.5" font-family="DejaVuSans" font-size="10.00">ReadXmlCharacter::read</text>
</g>
<!-- Node2 -->
<g id="node3" class="node"><title>Node2</title>
<a xlink:href="class_read_xml.html#a0305be8e000422c577df73f8b4be3e81" target="_top" xlink:title="ReadXml::closeFile">
<polygon fill="white" stroke="black" points="207,-200.5 207,-221.5 311,-221.5 311,-200.5 207,-200.5"/>
<text text-anchor="middle" x="259" y="-208.5" font-family="DejaVuSans" font-size="10.00">ReadXml::closeFile</text>
</a>
</g>
<!-- Node1&#45;&gt;Node2 -->
<g id="edge2" class="edge"><title>Node1&#45;&gt;Node2</title>
<path fill="none" stroke="midnightblue" d="M81.952,-141.704C101.354,-155.112 136.676,-177.911 170,-191 178.552,-194.359 187.798,-197.223 196.986,-199.643"/>
<polygon fill="midnightblue" stroke="midnightblue" points="196.348,-203.091 206.896,-202.098 198.031,-196.296 196.348,-203.091"/>
</g>
<!-- Node3 -->
<g id="node5" class="node"><title>Node3</title>
<a xlink:href="class_exception.html#a7cb124af6ec64ad88a8721b60c7932fb" target="_top" xlink:title="Exception::description">
<polygon fill="white" stroke="black" points="198,-160.5 198,-181.5 320,-181.5 320,-160.5 198,-160.5"/>
<text text-anchor="middle" x="259" y="-168.5" font-family="DejaVuSans" font-size="10.00">Exception::description</text>
</a>
</g>
<!-- Node1&#45;&gt;Node3 -->
<g id="edge4" class="edge"><title>Node1&#45;&gt;Node3</title>
<path fill="none" stroke="midnightblue" d="M117.446,-141.51C142.371,-146.702 172.63,-153.006 198.764,-158.451"/>
<polygon fill="midnightblue" stroke="midnightblue" points="198.055,-161.878 208.558,-160.491 199.482,-155.025 198.055,-161.878"/>
</g>
<!-- Node4 -->
<g id="node7" class="node"><title>Node4</title>
<a xlink:href="class_exception.html#aeaf3a81717287d50938bc72ed67bacd8" target="_top" xlink:title="Exception::message">
<polygon fill="white" stroke="black" points="202.5,-120.5 202.5,-141.5 315.5,-141.5 315.5,-120.5 202.5,-120.5"/>
<text text-anchor="middle" x="259" y="-128.5" font-family="DejaVuSans" font-size="10.00">Exception::message</text>
</a>
</g>
<!-- Node1&#45;&gt;Node4 -->
<g id="edge6" class="edge"><title>Node1&#45;&gt;Node4</title>
<path fill="none" stroke="midnightblue" d="M133.613,-131C152.618,-131 173.323,-131 192.33,-131"/>
<polygon fill="midnightblue" stroke="midnightblue" points="192.395,-134.5 202.395,-131 192.395,-127.5 192.395,-134.5"/>
</g>
<!-- Node5 -->
<g id="node9" class="node"><title>Node5</title>
<a xlink:href="class_read_xml.html#a764cf8f1ae5230e93852c5743a54d81c" target="_top" xlink:title="ReadXml::openFile">
<polygon fill="white" stroke="black" points="207.5,-80.5 207.5,-101.5 310.5,-101.5 310.5,-80.5 207.5,-80.5"/>
<text text-anchor="middle" x="259" y="-88.5" font-family="DejaVuSans" font-size="10.00">ReadXml::openFile</text>
</a>
</g>
<!-- Node1&#45;&gt;Node5 -->
<g id="edge8" class="edge"><title>Node1&#45;&gt;Node5</title>
<path fill="none" stroke="midnightblue" d="M117.446,-120.49C142.371,-115.298 172.63,-108.994 198.764,-103.549"/>
<polygon fill="midnightblue" stroke="midnightblue" points="199.482,-106.975 208.558,-101.509 198.055,-100.122 199.482,-106.975"/>
</g>
<!-- Node6 -->
<g id="node11" class="node"><title>Node6</title>
<a xlink:href="class_storage_character.html#ae4fc2c6b281bfe6411812dc6f3ff41ff" target="_top" xlink:title="StorageCharacter::setRealIdentity">
<polygon fill="white" stroke="black" points="170,-40.5 170,-61.5 348,-61.5 348,-40.5 170,-40.5"/>
<text text-anchor="middle" x="259" y="-48.5" font-family="DejaVuSans" font-size="10.00">StorageCharacter::setRealIdentity</text>
</a>
</g>
<!-- Node1&#45;&gt;Node6 -->
<g id="edge10" class="edge"><title>Node1&#45;&gt;Node6</title>
<path fill="none" stroke="midnightblue" d="M81.952,-120.296C101.354,-106.888 136.676,-84.0885 170,-71 176.437,-68.4716 183.269,-66.2237 190.172,-64.2344"/>
<polygon fill="midnightblue" stroke="midnightblue" points="191.557,-67.486 200.3,-61.5021 189.733,-60.7276 191.557,-67.486"/>
</g>
<!-- Node7 -->
<g id="node13" class="node"><title>Node7</title>
<a xlink:href="class_storage_character.html#a282378ee75212c889f7b9d2923472834" target="_top" xlink:title="StorageCharacter::identityChanged">
<polygon fill="white" stroke="black" points="624,-59.5 624,-80.5 810,-80.5 810,-59.5 624,-59.5"/>
<text text-anchor="middle" x="717" y="-67.5" font-family="DejaVuSans" font-size="10.00">StorageCharacter::identityChanged</text>
</a>
</g>
<!-- Node6&#45;&gt;Node7 -->
<g id="edge12" class="edge"><title>Node6&#45;&gt;Node7</title>
<path fill="none" stroke="midnightblue" d="M312.919,-61.545C334.875,-65.3368 360.558,-69.1365 384,-71 460.723,-77.099 547.703,-76.5843 613.524,-74.6851"/>
<polygon fill="midnightblue" stroke="midnightblue" points="614.013,-78.1719 623.902,-74.3692 613.8,-71.1752 614.013,-78.1719"/>
</g>
<!-- Node8 -->
<g id="node15" class="node"><title>Node8</title>
<a xlink:href="class_storage_character.html#a802f3481674acdc5cb0a8623de21e919" target="_top" xlink:title="StorageCharacter::insertIdentity">
<polygon fill="white" stroke="black" points="401,-40.5 401,-61.5 571,-61.5 571,-40.5 401,-40.5"/>
<text text-anchor="middle" x="486" y="-48.5" font-family="DejaVuSans" font-size="10.00">StorageCharacter::insertIdentity</text>
</a>
</g>
<!-- Node6&#45;&gt;Node8 -->
<g id="edge14" class="edge"><title>Node6&#45;&gt;Node8</title>
<path fill="none" stroke="midnightblue" d="M348.065,-51C362.058,-51 376.571,-51 390.698,-51"/>
<polygon fill="midnightblue" stroke="midnightblue" points="390.904,-54.5001 400.903,-51 390.903,-47.5001 390.904,-54.5001"/>
</g>
<!-- Node9 -->
<g id="node18" class="node"><title>Node9</title>
<a xlink:href="class_storage_character.html#a1a573fb4f44cea6f113f9638af0c46da" target="_top" xlink:title="StorageCharacter::realIdentityChanged">
<polygon fill="white" stroke="black" points="384,-0.5 384,-21.5 588,-21.5 588,-0.5 384,-0.5"/>
<text text-anchor="middle" x="486" y="-8.5" font-family="DejaVuSans" font-size="10.00">StorageCharacter::realIdentityChanged</text>
</a>
</g>
<!-- Node6&#45;&gt;Node9 -->
<g id="edge18" class="edge"><title>Node6&#45;&gt;Node9</title>
<path fill="none" stroke="midnightblue" d="M318.642,-40.4905C348.63,-35.2062 385.149,-28.7711 416.412,-23.2622"/>
<polygon fill="midnightblue" stroke="midnightblue" points="417.122,-26.6911 426.363,-21.5087 415.907,-19.7973 417.122,-26.6911"/>
</g>
<!-- Node8&#45;&gt;Node7 -->
<g id="edge16" class="edge"><title>Node8&#45;&gt;Node7</title>
<path fill="none" stroke="midnightblue" d="M571.032,-57.994C584.903,-59.1349 599.406,-60.3278 613.659,-61.5001"/>
<polygon fill="midnightblue" stroke="midnightblue" points="613.728,-65.0175 623.981,-62.3491 614.302,-58.041 613.728,-65.0175"/>
</g>
</g>
</svg>
