<?xml version="1.0" encoding="UTF-8" standalone="no"?>
<!DOCTYPE svg PUBLIC "-//W3C//DTD SVG 1.1//EN"
 "http://www.w3.org/Graphics/SVG/1.1/DTD/svg11.dtd">
<!-- Generated by graphviz version 2.26.3 (20100126.1600)
 -->
<!-- Title: G Pages: 1 -->
<svg width="390pt" height="150pt"
 viewBox="0.00 0.00 390.00 150.00" xmlns="http://www.w3.org/2000/svg" xmlns:xlink="http://www.w3.org/1999/xlink">
<g id="graph1" class="graph" transform="scale(1 1) rotate(0) translate(4 146)">
<title>G</title>
<polygon fill="white" stroke="white" points="-4,5 -4,-146 387,-146 387,5 -4,5"/>
<!-- Node1 -->
<g id="node1" class="node"><title>Node1</title>
<polygon fill="#bfbfbf" stroke="black" points="0,-60.5 0,-81.5 174,-81.5 174,-60.5 0,-60.5"/>
<text text-anchor="middle" x="87" y="-68.5" font-family="DejaVuSans" font-size="10.00">cv_AbstractTrait::getCategoryList</text>
</g>
<!-- Node2 -->
<g id="node3" class="node"><title>Node2</title>
<a xlink:href="class_attribute_widget.html#ab498116d47f94a62e3b82eaa79976b36" target="_top" xlink:title="AttributeWidget::AttributeWidget">
<polygon fill="white" stroke="black" points="210.5,-120.5 210.5,-141.5 381.5,-141.5 381.5,-120.5 210.5,-120.5"/>
<text text-anchor="middle" x="296" y="-128.5" font-family="DejaVuSans" font-size="10.00">AttributeWidget::AttributeWidget</text>
</a>
</g>
<!-- Node1&#45;&gt;Node2 -->
<g id="edge2" class="edge"><title>Node1&#45;&gt;Node2</title>
<path fill="none" stroke="midnightblue" d="M126.578,-84.8282C150.561,-92.9679 181.861,-103.168 210,-111 221.962,-114.329 234.964,-117.554 247.15,-120.407"/>
<polygon fill="midnightblue" stroke="midnightblue" points="127.703,-81.5142 117.109,-81.5927 125.44,-88.1382 127.703,-81.5142"/>
</g>
<!-- Node3 -->
<g id="node5" class="node"><title>Node3</title>
<a xlink:href="class_flaw_widget.html#af387a892373d07ce615ad19d6da45448" target="_top" xlink:title="FlawWidget::FlawWidget">
<polygon fill="white" stroke="black" points="232,-80.5 232,-101.5 360,-101.5 360,-80.5 232,-80.5"/>
<text text-anchor="middle" x="296" y="-88.5" font-family="DejaVuSans" font-size="10.00">FlawWidget::FlawWidget</text>
</a>
</g>
<!-- Node1&#45;&gt;Node3 -->
<g id="edge4" class="edge"><title>Node1&#45;&gt;Node3</title>
<path fill="none" stroke="midnightblue" d="M184.171,-80.2987C200.384,-81.8501 216.833,-83.4242 231.947,-84.8705"/>
<polygon fill="midnightblue" stroke="midnightblue" points="184.409,-76.8056 174.121,-79.337 183.743,-83.7737 184.409,-76.8056"/>
</g>
<!-- Node4 -->
<g id="node7" class="node"><title>Node4</title>
<a xlink:href="class_merit_widget.html#a3f99dd98cf0c027d9e5a65a6a82d88c8" target="_top" xlink:title="MeritWidget::MeritWidget">
<polygon fill="white" stroke="black" points="228.5,-40.5 228.5,-61.5 363.5,-61.5 363.5,-40.5 228.5,-40.5"/>
<text text-anchor="middle" x="296" y="-48.5" font-family="DejaVuSans" font-size="10.00">MeritWidget::MeritWidget</text>
</a>
</g>
<!-- Node1&#45;&gt;Node4 -->
<g id="edge6" class="edge"><title>Node1&#45;&gt;Node4</title>
<path fill="none" stroke="midnightblue" d="M184.389,-61.6805C199.286,-60.2549 214.377,-58.8108 228.442,-57.4648"/>
<polygon fill="midnightblue" stroke="midnightblue" points="183.743,-58.2263 174.121,-62.663 184.409,-65.1944 183.743,-58.2263"/>
</g>
<!-- Node5 -->
<g id="node9" class="node"><title>Node5</title>
<a xlink:href="class_power_widget.html#a07bb0283ac179fda85ae3f2e38f17b71" target="_top" xlink:title="PowerWidget::PowerWidget">
<polygon fill="white" stroke="black" points="224,-0.5 224,-21.5 368,-21.5 368,-0.5 224,-0.5"/>
<text text-anchor="middle" x="296" y="-8.5" font-family="DejaVuSans" font-size="10.00">PowerWidget::PowerWidget</text>
</a>
</g>
<!-- Node1&#45;&gt;Node5 -->
<g id="edge8" class="edge"><title>Node1&#45;&gt;Node5</title>
<path fill="none" stroke="midnightblue" d="M126.578,-57.1718C150.561,-49.0321 181.861,-38.8319 210,-31 221.962,-27.6707 234.964,-24.446 247.15,-21.5929"/>
<polygon fill="midnightblue" stroke="midnightblue" points="125.44,-53.8618 117.109,-60.4073 127.703,-60.4858 125.44,-53.8618"/>
</g>
</g>
</svg>
