<?xml version="1.0" encoding="UTF-8" standalone="no"?>
<!DOCTYPE svg PUBLIC "-//W3C//DTD SVG 1.1//EN"
 "http://www.w3.org/Graphics/SVG/1.1/DTD/svg11.dtd">
<!-- Generated by graphviz version 2.26.3 (20100126.1600)
 -->
<!-- Title: G Pages: 1 -->
<svg width="558pt" height="70pt"
 viewBox="0.00 0.00 558.00 70.00" xmlns="http://www.w3.org/2000/svg" xmlns:xlink="http://www.w3.org/1999/xlink">
<g id="graph1" class="graph" transform="scale(1 1) rotate(0) translate(4 66)">
<title>G</title>
<polygon fill="white" stroke="white" points="-4,5 -4,-66 555,-66 555,5 -4,5"/>
<!-- Node1 -->
<g id="node1" class="node"><title>Node1</title>
<polygon fill="#bfbfbf" stroke="black" points="0,-20.5 0,-41.5 134,-41.5 134,-20.5 0,-20.5"/>
<text text-anchor="middle" x="67" y="-28.5" font-family="DejaVuSans" font-size="10.00">MessageBox::formatText</text>
</g>
<!-- Node2 -->
<g id="node3" class="node"><title>Node2</title>
<a xlink:href="class_message_box.html#a30331edd9374946c3557411f2f15d910" target="_top" xlink:title="MessageBox::formatDescription">
<polygon fill="white" stroke="black" points="170,-40.5 170,-61.5 340,-61.5 340,-40.5 170,-40.5"/>
<text text-anchor="middle" x="255" y="-48.5" font-family="DejaVuSans" font-size="10.00">MessageBox::formatDescription</text>
</a>
</g>
<!-- Node1&#45;&gt;Node2 -->
<g id="edge2" class="edge"><title>Node1&#45;&gt;Node2</title>
<path fill="none" stroke="midnightblue" d="M134.076,-38.1358C142.413,-39.0227 151.059,-39.9425 159.719,-40.8638"/>
<polygon fill="midnightblue" stroke="midnightblue" points="159.561,-44.3666 169.875,-41.9441 160.301,-37.4058 159.561,-44.3666"/>
</g>
<!-- Node3 -->
<g id="node5" class="node"><title>Node3</title>
<a xlink:href="class_message_box.html#a3d88d4db394fe56dfc110733a09be0b7" target="_top" xlink:title="MessageBox::formatMessage">
<polygon fill="white" stroke="black" points="176,-0.5 176,-21.5 334,-21.5 334,-0.5 176,-0.5"/>
<text text-anchor="middle" x="255" y="-8.5" font-family="DejaVuSans" font-size="10.00">MessageBox::formatMessage</text>
</a>
</g>
<!-- Node1&#45;&gt;Node3 -->
<g id="edge4" class="edge"><title>Node1&#45;&gt;Node3</title>
<path fill="none" stroke="midnightblue" d="M134.076,-23.8642C144.305,-22.7761 154.998,-21.6385 165.613,-20.5093"/>
<polygon fill="midnightblue" stroke="midnightblue" points="166.174,-23.9694 175.748,-19.4311 165.434,-17.0087 166.174,-23.9694"/>
</g>
<!-- Node4 -->
<g id="node7" class="node"><title>Node4</title>
<a xlink:href="class_config.html#a1d20df2d98bd5320b1c8a8d3ce68f8d6" target="_top" xlink:title="Config::importantTextColorName">
<polygon fill="white" stroke="black" points="376.5,-0.5 376.5,-21.5 549.5,-21.5 549.5,-0.5 376.5,-0.5"/>
<text text-anchor="middle" x="463" y="-8.5" font-family="DejaVuSans" font-size="10.00">Config::importantTextColorName</text>
</a>
</g>
<!-- Node3&#45;&gt;Node4 -->
<g id="edge6" class="edge"><title>Node3&#45;&gt;Node4</title>
<path fill="none" stroke="midnightblue" d="M334.229,-11C344.669,-11 355.463,-11 366.156,-11"/>
<polygon fill="midnightblue" stroke="midnightblue" points="366.361,-14.5001 376.361,-11 366.361,-7.5001 366.361,-14.5001"/>
</g>
</g>
</svg>
