<?xml version="1.0" encoding="UTF-8" standalone="no"?>
<!DOCTYPE svg PUBLIC "-//W3C//DTD SVG 1.1//EN"
 "http://www.w3.org/Graphics/SVG/1.1/DTD/svg11.dtd">
<!-- Generated by graphviz version 2.26.3 (20100126.1600)
 -->
<!-- Title: G Pages: 1 -->
<svg width="326pt" height="262pt"
 viewBox="0.00 0.00 326.00 262.00" xmlns="http://www.w3.org/2000/svg" xmlns:xlink="http://www.w3.org/1999/xlink">
<g id="graph1" class="graph" transform="scale(1 1) rotate(0) translate(4 258)">
<title>G</title>
<polygon fill="white" stroke="white" points="-4,5 -4,-258 323,-258 323,5 -4,5"/>
<!-- Node1 -->
<g id="node1" class="node"><title>Node1</title>
<polygon fill="#bfbfbf" stroke="black" points="92,-58.5 92,-79.5 218,-79.5 218,-58.5 92,-58.5"/>
<text text-anchor="middle" x="155" y="-66.5" font-family="DejaVuSans" font-size="10.00">src.Error.ErrXmlVersion</text>
</g>
<!-- Node5 -->
<g id="node9" class="node"><title>Node5</title>
<a xlink:href="classsrc_1_1_error_1_1_err_xml_old_version.html" target="_top" xlink:title="Die Version der XML&#45;Datei paßt zwar zu diesem Programm, ist aber zu alt.">
<polygon fill="white" stroke="black" points="0,-0.5 0,-21.5 142,-21.5 142,-0.5 0,-0.5"/>
<text text-anchor="middle" x="71" y="-8.5" font-family="DejaVuSans" font-size="10.00">src.Error.ErrXmlOldVersion</text>
</a>
</g>
<!-- Node1&#45;&gt;Node5 -->
<g id="edge8" class="edge"><title>Node1&#45;&gt;Node5</title>
<path fill="none" stroke="midnightblue" d="M131.162,-52.5407C116.762,-42.5973 98.8325,-30.2177 86.3092,-21.5707"/>
<polygon fill="midnightblue" stroke="midnightblue" points="129.375,-55.5601 139.593,-58.3619 133.353,-49.7998 129.375,-55.5601"/>
</g>
<!-- Node6 -->
<g id="node11" class="node"><title>Node6</title>
<a xlink:href="classsrc_1_1_error_1_1_err_xml_too_old_version.html" target="_top" xlink:title="Die Version der XML&#45;Datei paßt zwar zu diesem Programm, ist aber viel zu alt.">
<polygon fill="white" stroke="black" points="160,-0.5 160,-21.5 318,-21.5 318,-0.5 160,-0.5"/>
<text text-anchor="middle" x="239" y="-8.5" font-family="DejaVuSans" font-size="10.00">src.Error.ErrXmlTooOldVersion</text>
</a>
</g>
<!-- Node1&#45;&gt;Node6 -->
<g id="edge10" class="edge"><title>Node1&#45;&gt;Node6</title>
<path fill="none" stroke="midnightblue" d="M178.838,-52.5407C193.238,-42.5973 211.167,-30.2177 223.691,-21.5707"/>
<polygon fill="midnightblue" stroke="midnightblue" points="176.647,-49.7998 170.407,-58.3619 180.625,-55.5601 176.647,-49.7998"/>
</g>
<!-- Node2 -->
<g id="node2" class="node"><title>Node2</title>
<a xlink:href="classsrc_1_1_error_1_1_err_xml.html" target="_top" xlink:title="Ausnahme beim Lesen der XML&#45;Datei.">
<polygon fill="white" stroke="black" points="109.5,-116.5 109.5,-137.5 200.5,-137.5 200.5,-116.5 109.5,-116.5"/>
<text text-anchor="middle" x="155" y="-124.5" font-family="DejaVuSans" font-size="10.00">src.Error.ErrXml</text>
</a>
</g>
<!-- Node2&#45;&gt;Node1 -->
<g id="edge2" class="edge"><title>Node2&#45;&gt;Node1</title>
<path fill="none" stroke="midnightblue" d="M155,-106.191C155,-97.1684 155,-86.9941 155,-79.5707"/>
<polygon fill="midnightblue" stroke="midnightblue" points="151.5,-106.362 155,-116.362 158.5,-106.362 151.5,-106.362"/>
</g>
<!-- Node3 -->
<g id="node4" class="node"><title>Node3</title>
<a xlink:href="classsrc_1_1_error_1_1_err.html" target="_top" xlink:title="Basisklasse für die Ausnahmebehandlung.">
<polygon fill="white" stroke="black" points="118.5,-174.5 118.5,-195.5 191.5,-195.5 191.5,-174.5 118.5,-174.5"/>
<text text-anchor="middle" x="155" y="-182.5" font-family="DejaVuSans" font-size="10.00">src.Error.Err</text>
</a>
</g>
<!-- Node3&#45;&gt;Node2 -->
<g id="edge4" class="edge"><title>Node3&#45;&gt;Node2</title>
<path fill="none" stroke="midnightblue" d="M155,-164.191C155,-155.168 155,-144.994 155,-137.571"/>
<polygon fill="midnightblue" stroke="midnightblue" points="151.5,-164.362 155,-174.362 158.5,-164.362 151.5,-164.362"/>
</g>
<!-- Node4 -->
<g id="node6" class="node"><title>Node4</title>
<a xlink:href="class_exception.html" target="_top" xlink:title="Exception">
<polygon fill="white" stroke="black" points="123.5,-232.5 123.5,-253.5 186.5,-253.5 186.5,-232.5 123.5,-232.5"/>
<text text-anchor="middle" x="155" y="-240.5" font-family="DejaVuSans" font-size="10.00">Exception</text>
</a>
</g>
<!-- Node4&#45;&gt;Node3 -->
<g id="edge6" class="edge"><title>Node4&#45;&gt;Node3</title>
<path fill="none" stroke="midnightblue" d="M155,-222.191C155,-213.168 155,-202.994 155,-195.571"/>
<polygon fill="midnightblue" stroke="midnightblue" points="151.5,-222.362 155,-232.362 158.5,-222.362 151.5,-222.362"/>
</g>
</g>
</svg>
