<?xml version="1.0" encoding="UTF-8" standalone="no"?>
<!DOCTYPE svg PUBLIC "-//W3C//DTD SVG 1.1//EN"
 "http://www.w3.org/Graphics/SVG/1.1/DTD/svg11.dtd">
<!-- Generated by graphviz version 2.26.3 (20100126.1600)
 -->
<!-- Title: G Pages: 1 -->
<svg width="104pt" height="146pt"
 viewBox="0.00 0.00 104.00 146.00" xmlns="http://www.w3.org/2000/svg" xmlns:xlink="http://www.w3.org/1999/xlink">
<g id="graph1" class="graph" transform="scale(1 1) rotate(0) translate(4 142)">
<title>G</title>
<polygon fill="white" stroke="white" points="-4,5 -4,-142 101,-142 101,5 -4,5"/>
<!-- Node1 -->
<g id="node1" class="node"><title>Node1</title>
<polygon fill="#bfbfbf" stroke="black" points="11,-116.5 11,-137.5 85,-137.5 85,-116.5 11,-116.5"/>
<text text-anchor="middle" x="48" y="-124.5" font-family="DejaVuSans" font-size="10.00">CheckedList</text>
</g>
<!-- Node2 -->
<g id="node3" class="node"><title>Node2</title>
<a xlink:href="class_trait_specialties.html" target="_top" xlink:title="Die darstellung von Spezialisierungen in der GUI.">
<polygon fill="white" stroke="black" points="4,-58.5 4,-79.5 92,-79.5 92,-58.5 4,-58.5"/>
<text text-anchor="middle" x="48" y="-66.5" font-family="DejaVuSans" font-size="10.00">TraitSpecialties</text>
</a>
</g>
<!-- Node1&#45;&gt;Node2 -->
<g id="edge2" class="edge"><title>Node1&#45;&gt;Node2</title>
<path fill="none" stroke="midnightblue" d="M48,-106.191C48,-97.1684 48,-86.9941 48,-79.5707"/>
<polygon fill="midnightblue" stroke="midnightblue" points="44.5001,-106.362 48,-116.362 51.5001,-106.362 44.5001,-106.362"/>
</g>
<!-- Node3 -->
<g id="node5" class="node"><title>Node3</title>
<a xlink:href="class_chara_specialties.html" target="_top" xlink:title="Diese Spezialisierungen werden direkt mit dem Charakter verknüpft.">
<polygon fill="white" stroke="black" points="-0.5,-0.5 -0.5,-21.5 96.5,-21.5 96.5,-0.5 -0.5,-0.5"/>
<text text-anchor="middle" x="48" y="-8.5" font-family="DejaVuSans" font-size="10.00">CharaSpecialties</text>
</a>
</g>
<!-- Node2&#45;&gt;Node3 -->
<g id="edge4" class="edge"><title>Node2&#45;&gt;Node3</title>
<path fill="none" stroke="midnightblue" d="M48,-48.1906C48,-39.1684 48,-28.9941 48,-21.5707"/>
<polygon fill="midnightblue" stroke="midnightblue" points="44.5001,-48.3619 48,-58.3619 51.5001,-48.3619 44.5001,-48.3619"/>
</g>
</g>
</svg>
