<?xml version="1.0" encoding="UTF-8" standalone="no"?>
<!DOCTYPE svg PUBLIC "-//W3C//DTD SVG 1.1//EN"
 "http://www.w3.org/Graphics/SVG/1.1/DTD/svg11.dtd">
<!-- Generated by graphviz version 2.26.3 (20100126.1600)
 -->
<!-- Title: G Pages: 1 -->
<svg width="680pt" height="348pt"
 viewBox="0.00 0.00 680.00 347.84" xmlns="http://www.w3.org/2000/svg" xmlns:xlink="http://www.w3.org/1999/xlink">
<g id="graph1" class="graph" transform="scale(1 1) rotate(0) translate(4 343.842)">
<title>G</title>
<polygon fill="white" stroke="white" points="-4,5 -4,-343.842 677,-343.842 677,5 -4,5"/>
<!-- Node1 -->
<g id="node1" class="node"><title>Node1</title>
<polygon fill="#bfbfbf" stroke="black" points="0.5,-218.5 0.5,-239.5 133.5,-239.5 133.5,-218.5 0.5,-218.5"/>
<text text-anchor="middle" x="67" y="-226.5" font-family="DejaVuSans" font-size="10.00">CharaTrait::traitChanged</text>
</g>
<!-- Node2 -->
<g id="node3" class="node"><title>Node2</title>
<a xlink:href="class_chara_trait.html#acfe4795a41019f6c92e85e82c0a6ab1a" target="_top" xlink:title="CharaTrait::CharaTrait">
<polygon fill="white" stroke="black" points="552.5,-159.5 552.5,-180.5 671.5,-180.5 671.5,-159.5 552.5,-159.5"/>
<text text-anchor="middle" x="612" y="-167.5" font-family="DejaVuSans" font-size="10.00">CharaTrait::CharaTrait</text>
</a>
</g>
<!-- Node1&#45;&gt;Node2 -->
<g id="edge2" class="edge"><title>Node1&#45;&gt;Node2</title>
<path fill="none" stroke="midnightblue" d="M79.6714,-248.087C96.8479,-272.031 130.014,-311.899 170,-328 223.596,-349.581 242.735,-335.68 300,-328 398.634,-314.771 430.324,-319.628 516,-269 555.781,-245.493 590.143,-201.161 604.647,-180.765"/>
<polygon fill="midnightblue" stroke="midnightblue" points="82.4728,-245.985 73.8903,-239.773 76.7256,-249.982 82.4728,-245.985"/>
</g>
<!-- Node3 -->
<g id="node5" class="node"><title>Node3</title>
<a xlink:href="class_chara_trait.html#ad3abff76332080dfd9e487287537b8a2" target="_top" xlink:title="CharaTrait::setCategory">
<polygon fill="white" stroke="black" points="170.5,-297.5 170.5,-318.5 299.5,-318.5 299.5,-297.5 170.5,-297.5"/>
<text text-anchor="middle" x="235" y="-305.5" font-family="DejaVuSans" font-size="10.00">CharaTrait::setCategory</text>
</a>
</g>
<!-- Node1&#45;&gt;Node3 -->
<g id="edge4" class="edge"><title>Node1&#45;&gt;Node3</title>
<path fill="none" stroke="midnightblue" d="M91.4692,-245.085C111.849,-257.968 141.966,-275.837 170,-288 178.124,-291.524 187.066,-294.7 195.651,-297.43"/>
<polygon fill="midnightblue" stroke="midnightblue" points="93.1419,-242 82.8331,-239.555 89.3671,-247.895 93.1419,-242"/>
</g>
<!-- Node4 -->
<g id="node7" class="node"><title>Node4</title>
<a xlink:href="class_chara_trait.html#a620d140e562c4102205d2c2a44af5622" target="_top" xlink:title="CharaTrait::setCustom">
<polygon fill="white" stroke="black" points="173.5,-257.5 173.5,-278.5 296.5,-278.5 296.5,-257.5 173.5,-257.5"/>
<text text-anchor="middle" x="235" y="-265.5" font-family="DejaVuSans" font-size="10.00">CharaTrait::setCustom</text>
</a>
</g>
<!-- Node1&#45;&gt;Node4 -->
<g id="edge6" class="edge"><title>Node1&#45;&gt;Node4</title>
<path fill="none" stroke="midnightblue" d="M122.244,-241.825C144.037,-246.884 168.765,-252.624 189.5,-257.438"/>
<polygon fill="midnightblue" stroke="midnightblue" points="122.996,-238.406 112.463,-239.554 121.413,-245.225 122.996,-238.406"/>
</g>
<!-- Node5 -->
<g id="node9" class="node"><title>Node5</title>
<a xlink:href="class_chara_trait.html#ace22816278072df97eb782603153600b" target="_top" xlink:title="CharaTrait::setCustomText">
<polygon fill="white" stroke="black" points="355,-238.5 355,-259.5 497,-259.5 497,-238.5 355,-238.5"/>
<text text-anchor="middle" x="426" y="-246.5" font-family="DejaVuSans" font-size="10.00">CharaTrait::setCustomText</text>
</a>
</g>
<!-- Node1&#45;&gt;Node5 -->
<g id="edge8" class="edge"><title>Node1&#45;&gt;Node5</title>
<path fill="none" stroke="midnightblue" d="M143.879,-233.283C206.365,-236.764 293.836,-241.637 354.755,-245.031"/>
<polygon fill="midnightblue" stroke="midnightblue" points="143.863,-229.777 133.684,-232.715 143.474,-236.766 143.863,-229.777"/>
</g>
<!-- Node6 -->
<g id="node12" class="node"><title>Node6</title>
<a xlink:href="class_chara_trait.html#a340feb7c80cc516245c80d1ff03a8aec" target="_top" xlink:title="CharaTrait::setSpecies">
<polygon fill="white" stroke="black" points="173.5,-179.5 173.5,-200.5 296.5,-200.5 296.5,-179.5 173.5,-179.5"/>
<text text-anchor="middle" x="235" y="-187.5" font-family="DejaVuSans" font-size="10.00">CharaTrait::setSpecies</text>
</a>
</g>
<!-- Node1&#45;&gt;Node6 -->
<g id="edge12" class="edge"><title>Node1&#45;&gt;Node6</title>
<path fill="none" stroke="midnightblue" d="M122.244,-216.175C144.037,-211.116 168.765,-205.376 189.5,-200.562"/>
<polygon fill="midnightblue" stroke="midnightblue" points="121.413,-212.775 112.463,-218.446 122.996,-219.594 121.413,-212.775"/>
</g>
<!-- Node7 -->
<g id="node14" class="node"><title>Node7</title>
<a xlink:href="class_chara_trait.html#a2b019cd655e56e8113ecfcf6913681cc" target="_top" xlink:title="CharaTrait::setType">
<polygon fill="white" stroke="black" points="181.5,-139.5 181.5,-160.5 288.5,-160.5 288.5,-139.5 181.5,-139.5"/>
<text text-anchor="middle" x="235" y="-147.5" font-family="DejaVuSans" font-size="10.00">CharaTrait::setType</text>
</a>
</g>
<!-- Node1&#45;&gt;Node7 -->
<g id="edge14" class="edge"><title>Node1&#45;&gt;Node7</title>
<path fill="none" stroke="midnightblue" d="M91.4692,-212.915C111.849,-200.032 141.966,-182.163 170,-170 178.124,-166.476 187.066,-163.3 195.651,-160.57"/>
<polygon fill="midnightblue" stroke="midnightblue" points="89.3671,-210.105 82.8331,-218.445 93.1419,-216 89.3671,-210.105"/>
</g>
<!-- Node8 -->
<g id="node16" class="node"><title>Node8</title>
<a xlink:href="class_chara_trait.html#abcfeed4a455c49246385c9bc2024ba15" target="_top" xlink:title="CharaTrait::setValue">
<polygon fill="white" stroke="black" points="179,-99.5 179,-120.5 291,-120.5 291,-99.5 179,-99.5"/>
<text text-anchor="middle" x="235" y="-107.5" font-family="DejaVuSans" font-size="10.00">CharaTrait::setValue</text>
</a>
</g>
<!-- Node1&#45;&gt;Node8 -->
<g id="edge16" class="edge"><title>Node1&#45;&gt;Node8</title>
<path fill="none" stroke="midnightblue" d="M81.6359,-210.381C100.015,-188.193 133.582,-151.438 170,-130 176.41,-126.227 183.602,-123.099 190.802,-120.528"/>
<polygon fill="midnightblue" stroke="midnightblue" points="78.7313,-208.405 75.1485,-218.376 84.1671,-212.816 78.7313,-208.405"/>
</g>
<!-- Node5&#45;&gt;Node2 -->
<g id="edge10" class="edge"><title>Node5&#45;&gt;Node2</title>
<path fill="none" stroke="midnightblue" d="M482.324,-235.61C493.645,-232.292 505.335,-228.405 516,-224 545.516,-211.81 577.376,-192.544 595.961,-180.622"/>
<polygon fill="midnightblue" stroke="midnightblue" points="481.182,-232.296 472.506,-238.377 483.081,-239.033 481.182,-232.296"/>
</g>
<!-- Node8&#45;&gt;Node2 -->
<g id="edge20" class="edge"><title>Node8&#45;&gt;Node2</title>
<path fill="none" stroke="midnightblue" d="M292.796,-125.112C295.323,-126.593 297.741,-128.217 300,-130 324.713,-149.501 308.662,-175.39 336,-191 417.793,-237.704 536.127,-200.583 587.103,-180.617"/>
<polygon fill="midnightblue" stroke="midnightblue" points="294.368,-121.985 283.862,-120.614 291.22,-128.237 294.368,-121.985"/>
</g>
<!-- Node9 -->
<g id="node18" class="node"><title>Node9</title>
<a xlink:href="class_attribute_widget.html#ab498116d47f94a62e3b82eaa79976b36" target="_top" xlink:title="AttributeWidget::AttributeWidget">
<polygon fill="white" stroke="black" points="340.5,-160.5 340.5,-181.5 511.5,-181.5 511.5,-160.5 340.5,-160.5"/>
<text text-anchor="middle" x="426" y="-168.5" font-family="DejaVuSans" font-size="10.00">AttributeWidget::AttributeWidget</text>
</a>
</g>
<!-- Node8&#45;&gt;Node9 -->
<g id="edge18" class="edge"><title>Node8&#45;&gt;Node9</title>
<path fill="none" stroke="midnightblue" d="M284.113,-123.784C289.54,-125.698 294.932,-127.777 300,-130 316.964,-137.439 318.753,-144.244 336,-151 345.538,-154.737 355.932,-157.855 366.158,-160.43"/>
<polygon fill="midnightblue" stroke="midnightblue" points="284.964,-120.378 274.37,-120.523 282.742,-127.016 284.964,-120.378"/>
</g>
<!-- Node10 -->
<g id="node21" class="node"><title>Node10</title>
<a xlink:href="class_chara_trait.html#ab02b27973fec9c68cee320dd61e5c618" target="_top" xlink:title="CharaTrait::checkTraitPrerequisites">
<polygon fill="white" stroke="black" points="336,-120.5 336,-141.5 516,-141.5 516,-120.5 336,-120.5"/>
<text text-anchor="middle" x="426" y="-128.5" font-family="DejaVuSans" font-size="10.00">CharaTrait::checkTraitPrerequisites</text>
</a>
</g>
<!-- Node8&#45;&gt;Node10 -->
<g id="edge22" class="edge"><title>Node8&#45;&gt;Node10</title>
<path fill="none" stroke="midnightblue" d="M301.132,-117.271C312.352,-118.505 324.172,-119.804 335.883,-121.092"/>
<polygon fill="midnightblue" stroke="midnightblue" points="301.338,-113.773 291.016,-116.159 300.573,-120.731 301.338,-113.773"/>
</g>
<!-- Node11 -->
<g id="node24" class="node"><title>Node11</title>
<a xlink:href="class_chara_trait.html#a8b30fcf229fb59f96c3926a59269194e" target="_top" xlink:title="CharaTrait::hideTraitIfNotAvailable">
<polygon fill="white" stroke="black" points="338.5,-80.5 338.5,-101.5 513.5,-101.5 513.5,-80.5 338.5,-80.5"/>
<text text-anchor="middle" x="426" y="-88.5" font-family="DejaVuSans" font-size="10.00">CharaTrait::hideTraitIfNotAvailable</text>
</a>
</g>
<!-- Node8&#45;&gt;Node11 -->
<g id="edge26" class="edge"><title>Node8&#45;&gt;Node11</title>
<path fill="none" stroke="midnightblue" d="M300.971,-103.437C313.04,-102.237 325.808,-100.967 338.391,-99.715"/>
<polygon fill="midnightblue" stroke="midnightblue" points="300.62,-99.955 291.016,-104.428 301.313,-106.921 300.62,-99.955"/>
</g>
<!-- Node12 -->
<g id="node27" class="node"><title>Node12</title>
<a xlink:href="class_merit_widget.html#a3f99dd98cf0c027d9e5a65a6a82d88c8" target="_top" xlink:title="MeritWidget::MeritWidget">
<polygon fill="white" stroke="black" points="358.5,-40.5 358.5,-61.5 493.5,-61.5 493.5,-40.5 358.5,-40.5"/>
<text text-anchor="middle" x="426" y="-48.5" font-family="DejaVuSans" font-size="10.00">MeritWidget::MeritWidget</text>
</a>
</g>
<!-- Node8&#45;&gt;Node12 -->
<g id="edge30" class="edge"><title>Node8&#45;&gt;Node12</title>
<path fill="none" stroke="midnightblue" d="M268.865,-95.4602C288.268,-87.501 313.22,-77.8868 336,-71 347.644,-67.4797 360.307,-64.2869 372.357,-61.5374"/>
<polygon fill="midnightblue" stroke="midnightblue" points="267.435,-92.2639 259.542,-99.3315 270.12,-98.7286 267.435,-92.2639"/>
</g>
<!-- Node13 -->
<g id="node29" class="node"><title>Node13</title>
<a xlink:href="class_chara_trait.html#a0a5adca1cfd4732d6c4f64299e6d6fd3" target="_top" xlink:title="CharaTrait::updateWidget">
<polygon fill="white" stroke="black" points="357.5,-0.5 357.5,-21.5 494.5,-21.5 494.5,-0.5 357.5,-0.5"/>
<text text-anchor="middle" x="426" y="-8.5" font-family="DejaVuSans" font-size="10.00">CharaTrait::updateWidget</text>
</a>
</g>
<!-- Node8&#45;&gt;Node13 -->
<g id="edge32" class="edge"><title>Node8&#45;&gt;Node13</title>
<path fill="none" stroke="midnightblue" d="M252.4,-92.349C271.312,-74.201 303.239,-46.4722 336,-31 344.105,-27.1722 352.971,-24.062 361.876,-21.5387"/>
<polygon fill="midnightblue" stroke="midnightblue" points="249.819,-89.9774 245.127,-99.4764 254.719,-94.9769 249.819,-89.9774"/>
</g>
<!-- Node10&#45;&gt;Node2 -->
<g id="edge24" class="edge"><title>Node10&#45;&gt;Node2</title>
<path fill="none" stroke="midnightblue" d="M486.187,-143.62C510.55,-148.728 538.359,-154.559 561.625,-159.438"/>
<polygon fill="midnightblue" stroke="midnightblue" points="486.84,-140.181 476.334,-141.554 485.403,-147.032 486.84,-140.181"/>
</g>
<!-- Node11&#45;&gt;Node2 -->
<g id="edge28" class="edge"><title>Node11&#45;&gt;Node2</title>
<path fill="none" stroke="midnightblue" d="M496.308,-104.224C503.057,-106.207 509.721,-108.456 516,-111 547.368,-123.706 580.181,-146.183 598.162,-159.423"/>
<polygon fill="midnightblue" stroke="midnightblue" points="496.964,-100.775 486.394,-101.507 495.114,-107.526 496.964,-100.775"/>
</g>
<!-- Node13&#45;&gt;Node2 -->
<g id="edge34" class="edge"><title>Node13&#45;&gt;Node2</title>
<path fill="none" stroke="midnightblue" d="M504.013,-24.3112C508.208,-26.2512 512.239,-28.4678 516,-31 565.63,-64.4118 597.123,-132.84 607.87,-159.26"/>
<polygon fill="midnightblue" stroke="midnightblue" points="505.191,-21.012 494.609,-20.4911 502.557,-27.4974 505.191,-21.012"/>
</g>
</g>
</svg>
