<?xml version="1.0" encoding="UTF-8" standalone="no"?>
<!DOCTYPE svg PUBLIC "-//W3C//DTD SVG 1.1//EN"
 "http://www.w3.org/Graphics/SVG/1.1/DTD/svg11.dtd">
<!-- Generated by graphviz version 2.26.3 (20100126.1600)
 -->
<!-- Title: G Pages: 1 -->
<svg width="474pt" height="230pt"
 viewBox="0.00 0.00 474.00 230.00" xmlns="http://www.w3.org/2000/svg" xmlns:xlink="http://www.w3.org/1999/xlink">
<g id="graph1" class="graph" transform="scale(1 1) rotate(0) translate(4 226)">
<title>G</title>
<polygon fill="white" stroke="white" points="-4,5 -4,-226 471,-226 471,5 -4,5"/>
<!-- Node1 -->
<g id="node1" class="node"><title>Node1</title>
<polygon fill="#bfbfbf" stroke="black" points="0,-100.5 0,-121.5 160,-121.5 160,-100.5 0,-100.5"/>
<text text-anchor="middle" x="80" y="-108.5" font-family="DejaVuSans" font-size="10.00">StorageCharacter::modifyTrait</text>
</g>
<!-- Node2 -->
<g id="node3" class="node"><title>Node2</title>
<a xlink:href="classcv___abstract_trait.html#a0735a751e8ce6edb85957bcfb2a723f7" target="_top" xlink:title="cv_AbstractTrait::category">
<polygon fill="white" stroke="black" points="196,-200.5 196,-221.5 336,-221.5 336,-200.5 196,-200.5"/>
<text text-anchor="middle" x="266" y="-208.5" font-family="DejaVuSans" font-size="10.00">cv_AbstractTrait::category</text>
</a>
</g>
<!-- Node1&#45;&gt;Node2 -->
<g id="edge2" class="edge"><title>Node1&#45;&gt;Node2</title>
<path fill="none" stroke="midnightblue" d="M92.3743,-121.589C112.719,-138.505 155.073,-171.681 196,-191 200.736,-193.236 205.773,-195.272 210.889,-197.114"/>
<polygon fill="midnightblue" stroke="midnightblue" points="210.174,-200.565 220.768,-200.419 212.395,-193.927 210.174,-200.565"/>
</g>
<!-- Node3 -->
<g id="node5" class="node"><title>Node3</title>
<a xlink:href="classcv___trait.html#adee2adf82138573180ff0d1486974ff6" target="_top" xlink:title="cv_Trait::customText">
<polygon fill="white" stroke="black" points="209.5,-160.5 209.5,-181.5 322.5,-181.5 322.5,-160.5 209.5,-160.5"/>
<text text-anchor="middle" x="266" y="-168.5" font-family="DejaVuSans" font-size="10.00">cv_Trait::customText</text>
</a>
</g>
<!-- Node1&#45;&gt;Node3 -->
<g id="edge4" class="edge"><title>Node1&#45;&gt;Node3</title>
<path fill="none" stroke="midnightblue" d="M109.415,-121.633C132.777,-129.959 166.335,-141.655 196,-151 203.125,-153.244 210.691,-155.519 218.114,-157.689"/>
<polygon fill="midnightblue" stroke="midnightblue" points="217.164,-161.057 227.743,-160.471 219.107,-154.333 217.164,-161.057"/>
</g>
<!-- Node5 -->
<g id="node9" class="node"><title>Node5</title>
<a xlink:href="classcv___trait.html#ab81924fd5e51488a35a63e246830e143" target="_top" xlink:title="cv_Trait::details">
<polygon fill="white" stroke="black" points="221.5,-120.5 221.5,-141.5 310.5,-141.5 310.5,-120.5 221.5,-120.5"/>
<text text-anchor="middle" x="266" y="-128.5" font-family="DejaVuSans" font-size="10.00">cv_Trait::details</text>
</a>
</g>
<!-- Node1&#45;&gt;Node5 -->
<g id="edge8" class="edge"><title>Node1&#45;&gt;Node5</title>
<path fill="none" stroke="midnightblue" d="M160.23,-119.627C177.41,-121.474 195.182,-123.385 211.141,-125.101"/>
<polygon fill="midnightblue" stroke="midnightblue" points="211.026,-128.609 221.343,-126.198 211.774,-121.649 211.026,-128.609"/>
</g>
<!-- Node6 -->
<g id="node11" class="node"><title>Node6</title>
<a xlink:href="classcv___abstract_trait.html#a3bbbc5a0073617a70c86741d4c918576" target="_top" xlink:title="cv_AbstractTrait::name">
<polygon fill="white" stroke="black" points="203,-80.5 203,-101.5 329,-101.5 329,-80.5 203,-80.5"/>
<text text-anchor="middle" x="266" y="-88.5" font-family="DejaVuSans" font-size="10.00">cv_AbstractTrait::name</text>
</a>
</g>
<!-- Node1&#45;&gt;Node6 -->
<g id="edge10" class="edge"><title>Node1&#45;&gt;Node6</title>
<path fill="none" stroke="midnightblue" d="M160.23,-102.373C171.034,-101.211 182.072,-100.024 192.747,-98.8767"/>
<polygon fill="midnightblue" stroke="midnightblue" points="193.282,-102.339 202.85,-97.7903 192.533,-95.3796 193.282,-102.339"/>
</g>
<!-- Node7 -->
<g id="node13" class="node"><title>Node7</title>
<a xlink:href="classcv___abstract_trait.html#aba0dfcb5b539afe0db14c6e3c4ddd4bc" target="_top" xlink:title="cv_AbstractTrait::type">
<polygon fill="white" stroke="black" points="206.5,-40.5 206.5,-61.5 325.5,-61.5 325.5,-40.5 206.5,-40.5"/>
<text text-anchor="middle" x="266" y="-48.5" font-family="DejaVuSans" font-size="10.00">cv_AbstractTrait::type</text>
</a>
</g>
<!-- Node1&#45;&gt;Node7 -->
<g id="edge12" class="edge"><title>Node1&#45;&gt;Node7</title>
<path fill="none" stroke="midnightblue" d="M109.415,-100.367C132.777,-92.0411 166.335,-80.345 196,-71 203.125,-68.7556 210.691,-66.4815 218.114,-64.3111"/>
<polygon fill="midnightblue" stroke="midnightblue" points="219.107,-67.6674 227.743,-61.5287 217.164,-60.9426 219.107,-67.6674"/>
</g>
<!-- Node8 -->
<g id="node15" class="node"><title>Node8</title>
<a xlink:href="classcv___trait.html#a965fb56fc4ff6e659b4c44752cfaa538" target="_top" xlink:title="cv_Trait::value">
<polygon fill="white" stroke="black" points="224.5,-0.5 224.5,-21.5 307.5,-21.5 307.5,-0.5 224.5,-0.5"/>
<text text-anchor="middle" x="266" y="-8.5" font-family="DejaVuSans" font-size="10.00">cv_Trait::value</text>
</a>
</g>
<!-- Node1&#45;&gt;Node8 -->
<g id="edge14" class="edge"><title>Node1&#45;&gt;Node8</title>
<path fill="none" stroke="midnightblue" d="M92.3743,-100.411C112.719,-83.4946 155.073,-50.3191 196,-31 201.851,-28.2383 208.16,-25.7815 214.511,-23.6179"/>
<polygon fill="midnightblue" stroke="midnightblue" points="215.993,-26.8196 224.466,-20.4578 213.875,-20.1477 215.993,-26.8196"/>
</g>
<!-- Node4 -->
<g id="node7" class="node"><title>Node4</title>
<a xlink:href="classcv___trait.html#af96ea047974ec3f6bb2cd1b0ade7cf13" target="_top" xlink:title="cv_Trait::custom">
<polygon fill="white" stroke="black" points="372,-160.5 372,-181.5 466,-181.5 466,-160.5 372,-160.5"/>
<text text-anchor="middle" x="419" y="-168.5" font-family="DejaVuSans" font-size="10.00">cv_Trait::custom</text>
</a>
</g>
<!-- Node3&#45;&gt;Node4 -->
<g id="edge6" class="edge"><title>Node3&#45;&gt;Node4</title>
<path fill="none" stroke="midnightblue" d="M322.537,-171C335.299,-171 348.858,-171 361.653,-171"/>
<polygon fill="midnightblue" stroke="midnightblue" points="361.721,-174.5 371.721,-171 361.721,-167.5 361.721,-174.5"/>
</g>
</g>
</svg>
