<?xml version="1.0" encoding="UTF-8" standalone="no"?>
<!DOCTYPE svg PUBLIC "-//W3C//DTD SVG 1.1//EN"
 "http://www.w3.org/Graphics/SVG/1.1/DTD/svg11.dtd">
<!-- Generated by graphviz version 2.26.3 (20100126.1600)
 -->
<!-- Title: G Pages: 1 -->
<svg width="274pt" height="204pt"
 viewBox="0.00 0.00 274.00 204.00" xmlns="http://www.w3.org/2000/svg" xmlns:xlink="http://www.w3.org/1999/xlink">
<g id="graph1" class="graph" transform="scale(1 1) rotate(0) translate(4 200)">
<title>G</title>
<polygon fill="white" stroke="white" points="-4,5 -4,-200 271,-200 271,5 -4,5"/>
<!-- Node1 -->
<g id="node1" class="node"><title>Node1</title>
<polygon fill="#bfbfbf" stroke="black" points="93,-58.5 93,-79.5 185,-79.5 185,-58.5 93,-58.5"/>
<text text-anchor="middle" x="139" y="-66.5" font-family="DejaVuSans" font-size="10.00">src.Error.ErrTrait</text>
</g>
<!-- Node4 -->
<g id="node7" class="node"><title>Node4</title>
<a xlink:href="classsrc_1_1_error_1_1_err_trait_category.html" target="_top" xlink:title="Ausnahme, falls eine falsche Kategorie genutzt wird.">
<polygon fill="white" stroke="black" points="0,-0.5 0,-21.5 136,-21.5 136,-0.5 0,-0.5"/>
<text text-anchor="middle" x="68" y="-8.5" font-family="DejaVuSans" font-size="10.00">src.Error.ErrTraitCategory</text>
</a>
</g>
<!-- Node1&#45;&gt;Node4 -->
<g id="edge6" class="edge"><title>Node1&#45;&gt;Node4</title>
<path fill="none" stroke="midnightblue" d="M118.159,-51.9753C106.109,-42.1315 91.3254,-30.0545 80.9399,-21.5707"/>
<polygon fill="midnightblue" stroke="midnightblue" points="116.019,-54.746 125.978,-58.3619 120.447,-49.3249 116.019,-54.746"/>
</g>
<!-- Node5 -->
<g id="node9" class="node"><title>Node5</title>
<a xlink:href="classsrc_1_1_error_1_1_err_trait_type.html" target="_top" xlink:title="Ausnahme, falls ein falscher Typ genutzt wird.">
<polygon fill="white" stroke="black" points="153.5,-0.5 153.5,-21.5 266.5,-21.5 266.5,-0.5 153.5,-0.5"/>
<text text-anchor="middle" x="210" y="-8.5" font-family="DejaVuSans" font-size="10.00">src.Error.ErrTraitType</text>
</a>
</g>
<!-- Node1&#45;&gt;Node5 -->
<g id="edge8" class="edge"><title>Node1&#45;&gt;Node5</title>
<path fill="none" stroke="midnightblue" d="M159.841,-51.9753C171.891,-42.1315 186.675,-30.0545 197.06,-21.5707"/>
<polygon fill="midnightblue" stroke="midnightblue" points="157.553,-49.3249 152.022,-58.3619 161.981,-54.746 157.553,-49.3249"/>
</g>
<!-- Node2 -->
<g id="node2" class="node"><title>Node2</title>
<a xlink:href="classsrc_1_1_error_1_1_err.html" target="_top" xlink:title="Basisklasse für die Ausnahmebehandlung.">
<polygon fill="white" stroke="black" points="102.5,-116.5 102.5,-137.5 175.5,-137.5 175.5,-116.5 102.5,-116.5"/>
<text text-anchor="middle" x="139" y="-124.5" font-family="DejaVuSans" font-size="10.00">src.Error.Err</text>
</a>
</g>
<!-- Node2&#45;&gt;Node1 -->
<g id="edge2" class="edge"><title>Node2&#45;&gt;Node1</title>
<path fill="none" stroke="midnightblue" d="M139,-106.191C139,-97.1684 139,-86.9941 139,-79.5707"/>
<polygon fill="midnightblue" stroke="midnightblue" points="135.5,-106.362 139,-116.362 142.5,-106.362 135.5,-106.362"/>
</g>
<!-- Node3 -->
<g id="node4" class="node"><title>Node3</title>
<a xlink:href="class_exception.html" target="_top" xlink:title="Exception">
<polygon fill="white" stroke="black" points="107.5,-174.5 107.5,-195.5 170.5,-195.5 170.5,-174.5 107.5,-174.5"/>
<text text-anchor="middle" x="139" y="-182.5" font-family="DejaVuSans" font-size="10.00">Exception</text>
</a>
</g>
<!-- Node3&#45;&gt;Node2 -->
<g id="edge4" class="edge"><title>Node3&#45;&gt;Node2</title>
<path fill="none" stroke="midnightblue" d="M139,-164.191C139,-155.168 139,-144.994 139,-137.571"/>
<polygon fill="midnightblue" stroke="midnightblue" points="135.5,-164.362 139,-174.362 142.5,-164.362 135.5,-164.362"/>
</g>
</g>
</svg>
