<?xml version="1.0" encoding="UTF-8" standalone="no"?>
<!DOCTYPE svg PUBLIC "-//W3C//DTD SVG 1.1//EN"
 "http://www.w3.org/Graphics/SVG/1.1/DTD/svg11.dtd">
<!-- Generated by graphviz version 2.26.3 (20100126.1600)
 -->
<!-- Title: G Pages: 1 -->
<svg width="500pt" height="70pt"
 viewBox="0.00 0.00 500.00 70.00" xmlns="http://www.w3.org/2000/svg" xmlns:xlink="http://www.w3.org/1999/xlink">
<g id="graph1" class="graph" transform="scale(1 1) rotate(0) translate(4 66)">
<title>G</title>
<polygon fill="white" stroke="white" points="-4,5 -4,-66 497,-66 497,5 -4,5"/>
<!-- Node1 -->
<g id="node1" class="node"><title>Node1</title>
<polygon fill="#bfbfbf" stroke="black" points="0,-20.5 0,-41.5 120,-41.5 120,-20.5 0,-20.5"/>
<text text-anchor="middle" x="60" y="-28.5" font-family="DejaVuSans" font-size="10.00">cv_Trait::prerequisites</text>
</g>
<!-- Node2 -->
<g id="node3" class="node"><title>Node2</title>
<a xlink:href="class_chara_trait.html#a873be3dccac875262e6f7b350663b542" target="_top" xlink:title="CharaTrait::checkTraitPrerequisites">
<polygon fill="white" stroke="black" points="156,-40.5 156,-61.5 336,-61.5 336,-40.5 156,-40.5"/>
<text text-anchor="middle" x="246" y="-48.5" font-family="DejaVuSans" font-size="10.00">CharaTrait::checkTraitPrerequisites</text>
</a>
</g>
<!-- Node1&#45;&gt;Node2 -->
<g id="edge2" class="edge"><title>Node1&#45;&gt;Node2</title>
<path fill="none" stroke="midnightblue" d="M130.244,-38.5531C138.658,-39.4579 147.337,-40.3911 155.982,-41.3206"/>
<polygon fill="midnightblue" stroke="midnightblue" points="130.449,-35.0551 120.132,-37.4658 129.7,-42.0149 130.449,-35.0551"/>
</g>
<!-- Node4 -->
<g id="node7" class="node"><title>Node4</title>
<a xlink:href="class_trait.html#af91999c7db93d064bf79f1a72133152a" target="_top" xlink:title="Trait::Trait">
<polygon fill="white" stroke="black" points="215,-0.5 215,-21.5 277,-21.5 277,-0.5 215,-0.5"/>
<text text-anchor="middle" x="246" y="-8.5" font-family="DejaVuSans" font-size="10.00">Trait::Trait</text>
</a>
</g>
<!-- Node1&#45;&gt;Node4 -->
<g id="edge6" class="edge"><title>Node1&#45;&gt;Node4</title>
<path fill="none" stroke="midnightblue" d="M130.313,-23.4394C159.531,-20.2978 191.93,-16.814 214.991,-14.3343"/>
<polygon fill="midnightblue" stroke="midnightblue" points="129.7,-19.9851 120.132,-24.5342 130.449,-26.9449 129.7,-19.9851"/>
</g>
<!-- Node3 -->
<g id="node5" class="node"><title>Node3</title>
<a xlink:href="class_chara_trait.html#a21787eb972b4fc8779368a78f4430f14" target="_top" xlink:title="CharaTrait::CharaTrait">
<polygon fill="white" stroke="black" points="372.5,-40.5 372.5,-61.5 491.5,-61.5 491.5,-40.5 372.5,-40.5"/>
<text text-anchor="middle" x="432" y="-48.5" font-family="DejaVuSans" font-size="10.00">CharaTrait::CharaTrait</text>
</a>
</g>
<!-- Node2&#45;&gt;Node3 -->
<g id="edge4" class="edge"><title>Node2&#45;&gt;Node3</title>
<path fill="none" stroke="midnightblue" d="M346.118,-51C355.06,-51 363.913,-51 372.344,-51"/>
<polygon fill="midnightblue" stroke="midnightblue" points="346.003,-47.5001 336.003,-51 346.003,-54.5001 346.003,-47.5001"/>
</g>
</g>
</svg>
