<?xml version="1.0" encoding="UTF-8" standalone="no"?>
<!DOCTYPE svg PUBLIC "-//W3C//DTD SVG 1.1//EN"
 "http://www.w3.org/Graphics/SVG/1.1/DTD/svg11.dtd">
<!-- Generated by graphviz version 2.26.3 (20100126.1600)
 -->
<!-- Title: G Pages: 1 -->
<svg width="210pt" height="146pt"
 viewBox="0.00 0.00 210.00 146.00" xmlns="http://www.w3.org/2000/svg" xmlns:xlink="http://www.w3.org/1999/xlink">
<g id="graph1" class="graph" transform="scale(1 1) rotate(0) translate(4 142)">
<title>G</title>
<polygon fill="white" stroke="white" points="-4,5 -4,-142 207,-142 207,5 -4,5"/>
<!-- Node1 -->
<g id="node1" class="node"><title>Node1</title>
<polygon fill="#bfbfbf" stroke="black" points="-0.5,-0.5 -0.5,-21.5 202.5,-21.5 202.5,-0.5 -0.5,-0.5"/>
<text text-anchor="middle" x="101" y="-8.5" font-family="DejaVuSans" font-size="10.00">src.Widgets.TraitWidget.AttributeWidget</text>
</g>
<!-- Node2 -->
<g id="node2" class="node"><title>Node2</title>
<a xlink:href="classsrc_1_1_widgets_1_1_trait_widget_1_1_trait_widget.html" target="_top" xlink:title="Grundlage der Widgets für alle Eigenschaften.">
<polygon fill="white" stroke="black" points="10.5,-58.5 10.5,-79.5 191.5,-79.5 191.5,-58.5 10.5,-58.5"/>
<text text-anchor="middle" x="101" y="-66.5" font-family="DejaVuSans" font-size="10.00">src.Widgets.TraitWidget.TraitWidget</text>
</a>
</g>
<!-- Node2&#45;&gt;Node1 -->
<g id="edge2" class="edge"><title>Node2&#45;&gt;Node1</title>
<path fill="none" stroke="midnightblue" d="M101,-48.1906C101,-39.1684 101,-28.9941 101,-21.5707"/>
<polygon fill="midnightblue" stroke="midnightblue" points="97.5001,-48.3619 101,-58.3619 104.5,-48.3619 97.5001,-48.3619"/>
</g>
<!-- Node3 -->
<g id="node4" class="node"><title>Node3</title>
<polygon fill="white" stroke="#bfbfbf" points="73,-116.5 73,-137.5 129,-137.5 129,-116.5 73,-116.5"/>
<text text-anchor="middle" x="101" y="-124.5" font-family="DejaVuSans" font-size="10.00">QWidget</text>
</g>
<!-- Node3&#45;&gt;Node2 -->
<g id="edge4" class="edge"><title>Node3&#45;&gt;Node2</title>
<path fill="none" stroke="midnightblue" d="M101,-106.191C101,-97.1684 101,-86.9941 101,-79.5707"/>
<polygon fill="midnightblue" stroke="midnightblue" points="97.5001,-106.362 101,-116.362 104.5,-106.362 97.5001,-106.362"/>
</g>
</g>
</svg>
