<?xml version="1.0" encoding="UTF-8" standalone="no"?>
<!DOCTYPE svg PUBLIC "-//W3C//DTD SVG 1.1//EN"
 "http://www.w3.org/Graphics/SVG/1.1/DTD/svg11.dtd">
<!-- Generated by graphviz version 2.26.3 (20100126.1600)
 -->
<!-- Title: G Pages: 1 -->
<svg width="432pt" height="108pt"
 viewBox="0.00 0.00 432.00 108.00" xmlns="http://www.w3.org/2000/svg" xmlns:xlink="http://www.w3.org/1999/xlink">
<g id="graph1" class="graph" transform="scale(1 1) rotate(0) translate(4 104)">
<title>G</title>
<polygon fill="white" stroke="white" points="-4,5 -4,-104 429,-104 429,5 -4,5"/>
<!-- Node1 -->
<g id="node1" class="node"><title>Node1</title>
<polygon fill="#bfbfbf" stroke="black" points="0.5,-39.5 0.5,-60.5 113.5,-60.5 113.5,-39.5 0.5,-39.5"/>
<text text-anchor="middle" x="57" y="-47.5" font-family="DejaVuSans" font-size="10.00">CheckTrait::setValue</text>
</g>
<!-- Node2 -->
<g id="node3" class="node"><title>Node2</title>
<a xlink:href="class_check_trait.html#a6fc70482737108eb58606a8eed553e04" target="_top" xlink:title="CheckTrait::traitChanged">
<polygon fill="white" stroke="black" points="150,-78.5 150,-99.5 284,-99.5 284,-78.5 150,-78.5"/>
<text text-anchor="middle" x="217" y="-86.5" font-family="DejaVuSans" font-size="10.00">CheckTrait::traitChanged</text>
</a>
</g>
<!-- Node1&#45;&gt;Node2 -->
<g id="edge2" class="edge"><title>Node1&#45;&gt;Node2</title>
<path fill="none" stroke="midnightblue" d="M100.298,-60.554C119.864,-65.323 143.168,-71.0035 163.788,-76.0296"/>
<polygon fill="midnightblue" stroke="midnightblue" points="163.123,-79.4698 173.667,-78.4376 164.78,-72.6689 163.123,-79.4698"/>
</g>
<!-- Node3 -->
<g id="node5" class="node"><title>Node3</title>
<a xlink:href="class_check_trait.html#a85928c20fd7d921c1d9b831168b9964e" target="_top" xlink:title="CheckTrait::traitPtr">
<polygon fill="white" stroke="black" points="320,-19.5 320,-40.5 424,-40.5 424,-19.5 320,-19.5"/>
<text text-anchor="middle" x="372" y="-27.5" font-family="DejaVuSans" font-size="10.00">CheckTrait::traitPtr</text>
</a>
</g>
<!-- Node1&#45;&gt;Node3 -->
<g id="edge4" class="edge"><title>Node1&#45;&gt;Node3</title>
<path fill="none" stroke="midnightblue" d="M113.679,-46.4013C168.874,-42.8969 252.567,-37.583 309.626,-33.9603"/>
<polygon fill="midnightblue" stroke="midnightblue" points="310.199,-37.431 319.957,-33.3043 309.756,-30.4451 310.199,-37.431"/>
</g>
<!-- Node4 -->
<g id="node7" class="node"><title>Node4</title>
<a xlink:href="class_check_trait.html#a4399a810312044b74f6227955a1879a9" target="_top" xlink:title="CheckTrait::value">
<polygon fill="white" stroke="black" points="168.5,-0.5 168.5,-21.5 265.5,-21.5 265.5,-0.5 168.5,-0.5"/>
<text text-anchor="middle" x="217" y="-8.5" font-family="DejaVuSans" font-size="10.00">CheckTrait::value</text>
</a>
</g>
<!-- Node1&#45;&gt;Node4 -->
<g id="edge6" class="edge"><title>Node1&#45;&gt;Node4</title>
<path fill="none" stroke="midnightblue" d="M100.298,-39.446C119.864,-34.677 143.168,-28.9965 163.788,-23.9704"/>
<polygon fill="midnightblue" stroke="midnightblue" points="164.78,-27.3311 173.667,-21.5624 163.123,-20.5302 164.78,-27.3311"/>
</g>
<!-- Node4&#45;&gt;Node3 -->
<g id="edge8" class="edge"><title>Node4&#45;&gt;Node3</title>
<path fill="none" stroke="midnightblue" d="M265.618,-16.9596C279.612,-18.675 295.072,-20.5702 309.77,-22.3718"/>
<polygon fill="midnightblue" stroke="midnightblue" points="309.444,-25.858 319.796,-23.6008 310.296,-18.91 309.444,-25.858"/>
</g>
</g>
</svg>
