<?xml version="1.0" encoding="UTF-8" standalone="no"?>
<!DOCTYPE svg PUBLIC "-//W3C//DTD SVG 1.1//EN"
 "http://www.w3.org/Graphics/SVG/1.1/DTD/svg11.dtd">
<!-- Generated by graphviz version 2.26.3 (20100126.1600)
 -->
<!-- Title: G Pages: 1 -->
<svg width="506pt" height="70pt"
 viewBox="0.00 0.00 506.00 70.00" xmlns="http://www.w3.org/2000/svg" xmlns:xlink="http://www.w3.org/1999/xlink">
<g id="graph1" class="graph" transform="scale(1 1) rotate(0) translate(4 66)">
<title>G</title>
<polygon fill="white" stroke="white" points="-4,5 -4,-66 503,-66 503,5 -4,5"/>
<!-- Node1 -->
<g id="node1" class="node"><title>Node1</title>
<polygon fill="#bfbfbf" stroke="black" points="0,-20.5 0,-41.5 174,-41.5 174,-20.5 0,-20.5"/>
<text text-anchor="middle" x="87" y="-28.5" font-family="DejaVuSans" font-size="10.00">eFileNotDeleted::eFileNotDeleted</text>
</g>
<!-- Node2 -->
<g id="node3" class="node"><title>Node2</title>
<a xlink:href="class_exception.html#a032056e0558a40affd69325368840a72" target="_top" xlink:title="Exception::setDescription">
<polygon fill="white" stroke="black" points="210,-40.5 210,-61.5 348,-61.5 348,-40.5 210,-40.5"/>
<text text-anchor="middle" x="279" y="-48.5" font-family="DejaVuSans" font-size="10.00">Exception::setDescription</text>
</a>
</g>
<!-- Node1&#45;&gt;Node2 -->
<g id="edge2" class="edge"><title>Node1&#45;&gt;Node2</title>
<path fill="none" stroke="midnightblue" d="M174.012,-40.0637C182.547,-40.9528 191.178,-41.8519 199.631,-42.7324"/>
<polygon fill="midnightblue" stroke="midnightblue" points="199.527,-46.2405 209.836,-43.7954 200.253,-39.2781 199.527,-46.2405"/>
</g>
<!-- Node3 -->
<g id="node5" class="node"><title>Node3</title>
<a xlink:href="class_exception.html#a16b5202a71fe00abb2c278adca10b415" target="_top" xlink:title="Exception::setMessage">
<polygon fill="white" stroke="black" points="215.5,-0.5 215.5,-21.5 342.5,-21.5 342.5,-0.5 215.5,-0.5"/>
<text text-anchor="middle" x="279" y="-8.5" font-family="DejaVuSans" font-size="10.00">Exception::setMessage</text>
</a>
</g>
<!-- Node1&#45;&gt;Node3 -->
<g id="edge4" class="edge"><title>Node1&#45;&gt;Node3</title>
<path fill="none" stroke="midnightblue" d="M174.012,-21.9363C184.43,-20.8511 194.99,-19.751 205.197,-18.6878"/>
<polygon fill="midnightblue" stroke="midnightblue" points="205.683,-22.1562 215.267,-17.6389 204.958,-15.1939 205.683,-22.1562"/>
</g>
<!-- Node4 -->
<g id="node7" class="node"><title>Node4</title>
<a xlink:href="class_exception.html#aeaf3a81717287d50938bc72ed67bacd8" target="_top" xlink:title="Exception::message">
<polygon fill="white" stroke="black" points="384.5,-0.5 384.5,-21.5 497.5,-21.5 497.5,-0.5 384.5,-0.5"/>
<text text-anchor="middle" x="441" y="-8.5" font-family="DejaVuSans" font-size="10.00">Exception::message</text>
</a>
</g>
<!-- Node3&#45;&gt;Node4 -->
<g id="edge6" class="edge"><title>Node3&#45;&gt;Node4</title>
<path fill="none" stroke="midnightblue" d="M342.562,-11C352.933,-11 363.705,-11 374.152,-11"/>
<polygon fill="midnightblue" stroke="midnightblue" points="374.465,-14.5001 384.465,-11 374.465,-7.5001 374.465,-14.5001"/>
</g>
</g>
</svg>
