<?xml version="1.0" encoding="UTF-8" standalone="no"?>
<!DOCTYPE svg PUBLIC "-//W3C//DTD SVG 1.1//EN"
 "http://www.w3.org/Graphics/SVG/1.1/DTD/svg11.dtd">
<!-- Generated by graphviz version 2.26.3 (20100126.1600)
 -->
<!-- Title: G Pages: 1 -->
<svg width="442pt" height="188pt"
 viewBox="0.00 0.00 442.00 188.00" xmlns="http://www.w3.org/2000/svg" xmlns:xlink="http://www.w3.org/1999/xlink">
<g id="graph1" class="graph" transform="scale(1 1) rotate(0) translate(4 184)">
<title>G</title>
<polygon fill="white" stroke="white" points="-4,5 -4,-184 439,-184 439,5 -4,5"/>
<!-- Node1 -->
<g id="node1" class="node"><title>Node1</title>
<polygon fill="#bfbfbf" stroke="black" points="0.5,-80.5 0.5,-101.5 107.5,-101.5 107.5,-80.5 0.5,-80.5"/>
<text text-anchor="middle" x="54" y="-88.5" font-family="DejaVuSans" font-size="10.00">CharaTrait::setType</text>
</g>
<!-- Node2 -->
<g id="node3" class="node"><title>Node2</title>
<a xlink:href="class_trait.html#a4c8c6f7af3db42f87732862a91329de8" target="_top" xlink:title="Trait::setType">
<polygon fill="white" stroke="black" points="172,-0.5 172,-21.5 250,-21.5 250,-0.5 172,-0.5"/>
<text text-anchor="middle" x="211" y="-8.5" font-family="DejaVuSans" font-size="10.00">Trait::setType</text>
</a>
</g>
<!-- Node1&#45;&gt;Node2 -->
<g id="edge2" class="edge"><title>Node1&#45;&gt;Node2</title>
<path fill="none" stroke="midnightblue" d="M67.2675,-80.2942C84.1862,-67.0951 114.764,-44.7298 144,-31 149.697,-28.3248 155.834,-25.913 161.999,-23.7674"/>
<polygon fill="midnightblue" stroke="midnightblue" points="163.232,-27.0467 171.652,-20.6156 161.06,-20.3924 163.232,-27.0467"/>
</g>
<!-- Node3 -->
<g id="node5" class="node"><title>Node3</title>
<a xlink:href="classcv___abstract_trait.html#aba0dfcb5b539afe0db14c6e3c4ddd4bc" target="_top" xlink:title="cv_AbstractTrait::type">
<polygon fill="white" stroke="black" points="314.5,-119.5 314.5,-140.5 433.5,-140.5 433.5,-119.5 314.5,-119.5"/>
<text text-anchor="middle" x="374" y="-127.5" font-family="DejaVuSans" font-size="10.00">cv_AbstractTrait::type</text>
</a>
</g>
<!-- Node1&#45;&gt;Node3 -->
<g id="edge16" class="edge"><title>Node1&#45;&gt;Node3</title>
<path fill="none" stroke="midnightblue" d="M95.9007,-101.555C110.98,-105.023 128.175,-108.599 144,-111 197.401,-119.101 258.338,-123.938 304.067,-126.703"/>
<polygon fill="midnightblue" stroke="midnightblue" points="303.984,-130.204 314.172,-127.296 304.394,-123.216 303.984,-130.204"/>
</g>
<!-- Node5 -->
<g id="node9" class="node"><title>Node5</title>
<a xlink:href="class_chara_trait.html#ab3935a94198f510d3de473a9a72692ac" target="_top" xlink:title="CharaTrait::traitChanged">
<polygon fill="white" stroke="black" points="144.5,-80.5 144.5,-101.5 277.5,-101.5 277.5,-80.5 144.5,-80.5"/>
<text text-anchor="middle" x="211" y="-88.5" font-family="DejaVuSans" font-size="10.00">CharaTrait::traitChanged</text>
</a>
</g>
<!-- Node1&#45;&gt;Node5 -->
<g id="edge8" class="edge"><title>Node1&#45;&gt;Node5</title>
<path fill="none" stroke="midnightblue" d="M107.591,-91C116.175,-91 125.203,-91 134.2,-91"/>
<polygon fill="midnightblue" stroke="midnightblue" points="134.321,-94.5001 144.321,-91 134.321,-87.5001 134.321,-94.5001"/>
</g>
<!-- Node6 -->
<g id="node11" class="node"><title>Node6</title>
<a xlink:href="class_chara_trait.html#ae8854bf878fa9aab4dafc27a943d05b6" target="_top" xlink:title="CharaTrait::traitPtr">
<polygon fill="white" stroke="black" points="159,-40.5 159,-61.5 263,-61.5 263,-40.5 159,-40.5"/>
<text text-anchor="middle" x="211" y="-48.5" font-family="DejaVuSans" font-size="10.00">CharaTrait::traitPtr</text>
</a>
</g>
<!-- Node1&#45;&gt;Node6 -->
<g id="edge10" class="edge"><title>Node1&#45;&gt;Node6</title>
<path fill="none" stroke="midnightblue" d="M95.2499,-80.4905C115.093,-75.4349 139.07,-69.3261 160.043,-63.9827"/>
<polygon fill="midnightblue" stroke="midnightblue" points="160.927,-67.3693 169.753,-61.5087 159.199,-60.586 160.927,-67.3693"/>
</g>
<!-- Node7 -->
<g id="node13" class="node"><title>Node7</title>
<a xlink:href="class_chara_trait.html#a0de44908d1c0bfd7cf0fa3a1158f8132" target="_top" xlink:title="CharaTrait::type">
<polygon fill="white" stroke="black" points="165,-158.5 165,-179.5 257,-179.5 257,-158.5 165,-158.5"/>
<text text-anchor="middle" x="211" y="-166.5" font-family="DejaVuSans" font-size="10.00">CharaTrait::type</text>
</a>
</g>
<!-- Node1&#45;&gt;Node7 -->
<g id="edge12" class="edge"><title>Node1&#45;&gt;Node7</title>
<path fill="none" stroke="midnightblue" d="M70.1146,-101.659C87.7683,-113.054 117.154,-131.208 144,-144 152.143,-147.88 161.061,-151.572 169.658,-154.869"/>
<polygon fill="midnightblue" stroke="midnightblue" points="168.576,-158.201 179.169,-158.413 171.021,-151.642 168.576,-158.201"/>
</g>
<!-- Node2&#45;&gt;Node3 -->
<g id="edge4" class="edge"><title>Node2&#45;&gt;Node3</title>
<path fill="none" stroke="midnightblue" d="M250.338,-19.109C259.8,-22.0236 269.594,-25.8989 278,-31 312.719,-52.0688 343.577,-88.6832 360.447,-110.991"/>
<polygon fill="midnightblue" stroke="midnightblue" points="357.841,-113.354 366.597,-119.319 363.472,-109.196 357.841,-113.354"/>
</g>
<!-- Node4 -->
<g id="node7" class="node"><title>Node4</title>
<a xlink:href="class_trait.html#ae00311fac86b6949a3c6c823fad2c95c" target="_top" xlink:title="Trait::typeChanged">
<polygon fill="white" stroke="black" points="321,-0.5 321,-21.5 427,-21.5 427,-0.5 321,-0.5"/>
<text text-anchor="middle" x="374" y="-8.5" font-family="DejaVuSans" font-size="10.00">Trait::typeChanged</text>
</a>
</g>
<!-- Node2&#45;&gt;Node4 -->
<g id="edge6" class="edge"><title>Node2&#45;&gt;Node4</title>
<path fill="none" stroke="midnightblue" d="M250.043,-11C268.171,-11 290.188,-11 310.608,-11"/>
<polygon fill="midnightblue" stroke="midnightblue" points="310.794,-14.5001 320.794,-11 310.794,-7.5001 310.794,-14.5001"/>
</g>
<!-- Node7&#45;&gt;Node3 -->
<g id="edge14" class="edge"><title>Node7&#45;&gt;Node3</title>
<path fill="none" stroke="midnightblue" d="M255.11,-158.446C275.133,-153.655 299,-147.945 320.077,-142.902"/>
<polygon fill="midnightblue" stroke="midnightblue" points="320.944,-146.293 329.855,-140.562 319.315,-139.486 320.944,-146.293"/>
</g>
</g>
</svg>
