<?xml version="1.0" encoding="UTF-8" standalone="no"?>
<!DOCTYPE svg PUBLIC "-//W3C//DTD SVG 1.1//EN"
 "http://www.w3.org/Graphics/SVG/1.1/DTD/svg11.dtd">
<!-- Generated by graphviz version 2.26.3 (20100126.1600)
 -->
<!-- Title: G Pages: 1 -->
<svg width="372pt" height="70pt"
 viewBox="0.00 0.00 372.00 70.00" xmlns="http://www.w3.org/2000/svg" xmlns:xlink="http://www.w3.org/1999/xlink">
<g id="graph1" class="graph" transform="scale(1 1) rotate(0) translate(4 66)">
<title>G</title>
<polygon fill="white" stroke="white" points="-4,5 -4,-66 369,-66 369,5 -4,5"/>
<!-- Node1 -->
<g id="node1" class="node"><title>Node1</title>
<polygon fill="#bfbfbf" stroke="black" points="0,-20.5 0,-41.5 106,-41.5 106,-20.5 0,-20.5"/>
<text text-anchor="middle" x="53" y="-28.5" font-family="DejaVuSans" font-size="10.00">Trait::typeChanged</text>
</g>
<!-- Node2 -->
<g id="node3" class="node"><title>Node2</title>
<a xlink:href="class_trait.html#a4c8c6f7af3db42f87732862a91329de8" target="_top" xlink:title="Trait::setType">
<polygon fill="white" stroke="black" points="142,-20.5 142,-41.5 220,-41.5 220,-20.5 142,-20.5"/>
<text text-anchor="middle" x="181" y="-28.5" font-family="DejaVuSans" font-size="10.00">Trait::setType</text>
</a>
</g>
<!-- Node1&#45;&gt;Node2 -->
<g id="edge2" class="edge"><title>Node1&#45;&gt;Node2</title>
<path fill="none" stroke="midnightblue" d="M116.34,-31C125.042,-31 133.759,-31 141.85,-31"/>
<polygon fill="midnightblue" stroke="midnightblue" points="116.172,-27.5001 106.172,-31 116.171,-34.5001 116.172,-27.5001"/>
</g>
<!-- Node3 -->
<g id="node5" class="node"><title>Node3</title>
<a xlink:href="class_check_trait.html#ac8c0ce9b6169d62ad48af359efcebf3f" target="_top" xlink:title="CheckTrait::setType">
<polygon fill="white" stroke="black" points="256.5,-40.5 256.5,-61.5 363.5,-61.5 363.5,-40.5 256.5,-40.5"/>
<text text-anchor="middle" x="310" y="-48.5" font-family="DejaVuSans" font-size="10.00">CheckTrait::setType</text>
</a>
</g>
<!-- Node2&#45;&gt;Node3 -->
<g id="edge4" class="edge"><title>Node2&#45;&gt;Node3</title>
<path fill="none" stroke="midnightblue" d="M229.951,-38.5893C238.569,-39.9255 247.582,-41.3227 256.321,-42.6777"/>
<polygon fill="midnightblue" stroke="midnightblue" points="230.473,-35.1284 220.054,-37.0549 229.4,-42.0458 230.473,-35.1284"/>
</g>
<!-- Node4 -->
<g id="node7" class="node"><title>Node4</title>
<a xlink:href="class_chara_trait.html#a2b019cd655e56e8113ecfcf6913681cc" target="_top" xlink:title="CharaTrait::setType">
<polygon fill="white" stroke="black" points="256.5,-0.5 256.5,-21.5 363.5,-21.5 363.5,-0.5 256.5,-0.5"/>
<text text-anchor="middle" x="310" y="-8.5" font-family="DejaVuSans" font-size="10.00">CharaTrait::setType</text>
</a>
</g>
<!-- Node2&#45;&gt;Node4 -->
<g id="edge6" class="edge"><title>Node2&#45;&gt;Node4</title>
<path fill="none" stroke="midnightblue" d="M229.951,-23.4107C238.569,-22.0745 247.582,-20.6773 256.321,-19.3223"/>
<polygon fill="midnightblue" stroke="midnightblue" points="229.4,-19.9542 220.054,-24.9451 230.473,-26.8716 229.4,-19.9542"/>
</g>
</g>
</svg>
