<?xml version="1.0" encoding="UTF-8" standalone="no"?>
<!DOCTYPE svg PUBLIC "-//W3C//DTD SVG 1.1//EN"
 "http://www.w3.org/Graphics/SVG/1.1/DTD/svg11.dtd">
<!-- Generated by graphviz version 2.26.3 (20100126.1600)
 -->
<!-- Title: G Pages: 1 -->
<svg width="574pt" height="350pt"
 viewBox="0.00 0.00 574.00 350.00" xmlns="http://www.w3.org/2000/svg" xmlns:xlink="http://www.w3.org/1999/xlink">
<g id="graph1" class="graph" transform="scale(1 1) rotate(0) translate(4 346)">
<title>G</title>
<polygon fill="white" stroke="white" points="-4,5 -4,-346 571,-346 571,5 -4,5"/>
<!-- Node1 -->
<g id="node1" class="node"><title>Node1</title>
<polygon fill="#bfbfbf" stroke="black" points="0.5,-240.5 0.5,-261.5 113.5,-261.5 113.5,-240.5 0.5,-240.5"/>
<text text-anchor="middle" x="57" y="-248.5" font-family="DejaVuSans" font-size="10.00">Exception::message</text>
</g>
<!-- Node2 -->
<g id="node3" class="node"><title>Node2</title>
<a xlink:href="class_chara_trait.html#ab02b27973fec9c68cee320dd61e5c618" target="_top" xlink:title="CharaTrait::checkTraitPrerequisites">
<polygon fill="white" stroke="black" points="150,-300.5 150,-321.5 330,-321.5 330,-300.5 150,-300.5"/>
<text text-anchor="middle" x="240" y="-308.5" font-family="DejaVuSans" font-size="10.00">CharaTrait::checkTraitPrerequisites</text>
</a>
</g>
<!-- Node1&#45;&gt;Node2 -->
<g id="edge2" class="edge"><title>Node1&#45;&gt;Node2</title>
<path fill="none" stroke="midnightblue" d="M99.1291,-264.813C132.182,-275.65 177.504,-290.509 207.72,-300.416"/>
<polygon fill="midnightblue" stroke="midnightblue" points="99.8882,-261.378 89.2955,-261.589 97.7073,-268.03 99.8882,-261.378"/>
</g>
<!-- Node4 -->
<g id="node7" class="node"><title>Node4</title>
<a xlink:href="class_read_xml_character.html#a5857936ddba1793fd089d9f169ed73de" target="_top" xlink:title="ReadXmlCharacter::read">
<polygon fill="white" stroke="black" points="173.5,-240.5 173.5,-261.5 306.5,-261.5 306.5,-240.5 173.5,-240.5"/>
<text text-anchor="middle" x="240" y="-248.5" font-family="DejaVuSans" font-size="10.00">ReadXmlCharacter::read</text>
</a>
</g>
<!-- Node1&#45;&gt;Node4 -->
<g id="edge6" class="edge"><title>Node1&#45;&gt;Node4</title>
<path fill="none" stroke="midnightblue" d="M124.222,-251C140.197,-251 157.237,-251 173.194,-251"/>
<polygon fill="midnightblue" stroke="midnightblue" points="123.899,-247.5 113.899,-251 123.899,-254.5 123.899,-247.5"/>
</g>
<!-- Node5 -->
<g id="node9" class="node"><title>Node5</title>
<a xlink:href="class_exception.html#a16b5202a71fe00abb2c278adca10b415" target="_top" xlink:title="Exception::setMessage">
<polygon fill="white" stroke="black" points="176.5,-160.5 176.5,-181.5 303.5,-181.5 303.5,-160.5 176.5,-160.5"/>
<text text-anchor="middle" x="240" y="-168.5" font-family="DejaVuSans" font-size="10.00">Exception::setMessage</text>
</a>
</g>
<!-- Node1&#45;&gt;Node5 -->
<g id="edge8" class="edge"><title>Node1&#45;&gt;Node5</title>
<path fill="none" stroke="midnightblue" d="M90.4995,-236.355C126.783,-220.494 183.769,-195.582 215.89,-181.54"/>
<polygon fill="midnightblue" stroke="midnightblue" points="89.0618,-233.164 81.301,-240.377 91.8657,-239.578 89.0618,-233.164"/>
</g>
<!-- Node3 -->
<g id="node5" class="node"><title>Node3</title>
<a xlink:href="class_chara_trait.html#acfe4795a41019f6c92e85e82c0a6ab1a" target="_top" xlink:title="CharaTrait::CharaTrait">
<polygon fill="white" stroke="black" points="406.5,-320.5 406.5,-341.5 525.5,-341.5 525.5,-320.5 406.5,-320.5"/>
<text text-anchor="middle" x="466" y="-328.5" font-family="DejaVuSans" font-size="10.00">CharaTrait::CharaTrait</text>
</a>
</g>
<!-- Node2&#45;&gt;Node3 -->
<g id="edge4" class="edge"><title>Node2&#45;&gt;Node3</title>
<path fill="none" stroke="midnightblue" d="M340.558,-319.899C363.023,-321.887 386.152,-323.934 406.335,-325.72"/>
<polygon fill="midnightblue" stroke="midnightblue" points="340.565,-316.386 330.296,-318.991 339.948,-323.359 340.565,-316.386"/>
</g>
<!-- Node6 -->
<g id="node11" class="node"><title>Node6</title>
<a xlink:href="classe_entry.html#af2bff1ad646f97d52c00bf8569548a3b" target="_top" xlink:title="eEntry::eEntry">
<polygon fill="white" stroke="black" points="424.5,-280.5 424.5,-301.5 507.5,-301.5 507.5,-280.5 424.5,-280.5"/>
<text text-anchor="middle" x="466" y="-288.5" font-family="DejaVuSans" font-size="10.00">eEntry::eEntry</text>
</a>
</g>
<!-- Node5&#45;&gt;Node6 -->
<g id="edge10" class="edge"><title>Node5&#45;&gt;Node6</title>
<path fill="none" stroke="midnightblue" d="M267.697,-186.963C286.177,-198.201 310.558,-214.187 330,-231 348.091,-246.644 345.216,-259.164 366,-271 383.539,-280.988 405.288,-286.047 424.019,-288.585"/>
<polygon fill="midnightblue" stroke="midnightblue" points="269.267,-183.824 258.889,-181.693 265.673,-189.831 269.267,-183.824"/>
</g>
<!-- Node7 -->
<g id="node13" class="node"><title>Node7</title>
<a xlink:href="classe_file.html#a85a19ce77ddf85fb9f0225be74c6aaa8" target="_top" xlink:title="eFile::eFile">
<polygon fill="white" stroke="black" points="433.5,-240.5 433.5,-261.5 498.5,-261.5 498.5,-240.5 433.5,-240.5"/>
<text text-anchor="middle" x="466" y="-248.5" font-family="DejaVuSans" font-size="10.00">eFile::eFile</text>
</a>
</g>
<!-- Node5&#45;&gt;Node7 -->
<g id="edge12" class="edge"><title>Node5&#45;&gt;Node7</title>
<path fill="none" stroke="midnightblue" d="M267.497,-186.538C292.486,-200.059 330.73,-219.276 366,-231 388.009,-238.316 413.679,-243.382 433.5,-246.584"/>
<polygon fill="midnightblue" stroke="midnightblue" points="269.054,-183.4 258.603,-181.662 265.689,-189.538 269.054,-183.4"/>
</g>
<!-- Node8 -->
<g id="node15" class="node"><title>Node8</title>
<a xlink:href="classe_file_not_deleted.html#a9e586fbfbf59382683a5a7be2f5632d8" target="_top" xlink:title="eFileNotDeleted::eFileNotDeleted">
<polygon fill="white" stroke="black" points="379,-200.5 379,-221.5 553,-221.5 553,-200.5 379,-200.5"/>
<text text-anchor="middle" x="466" y="-208.5" font-family="DejaVuSans" font-size="10.00">eFileNotDeleted::eFileNotDeleted</text>
</a>
</g>
<!-- Node5&#45;&gt;Node8 -->
<g id="edge14" class="edge"><title>Node5&#45;&gt;Node8</title>
<path fill="none" stroke="midnightblue" d="M309.286,-183.263C340.412,-188.772 376.77,-195.207 406.626,-200.491"/>
<polygon fill="midnightblue" stroke="midnightblue" points="309.836,-179.806 299.379,-181.51 308.616,-186.699 309.836,-179.806"/>
</g>
<!-- Node9 -->
<g id="node17" class="node"><title>Node9</title>
<a xlink:href="classe_missing_user_entry.html#aceba43c80e53b7b00c6c1362df490226" target="_top" xlink:title="eMissingUserEntry::eMissingUserEntry">
<polygon fill="white" stroke="black" points="366.5,-160.5 366.5,-181.5 565.5,-181.5 565.5,-160.5 366.5,-160.5"/>
<text text-anchor="middle" x="466" y="-168.5" font-family="DejaVuSans" font-size="10.00">eMissingUserEntry::eMissingUserEntry</text>
</a>
</g>
<!-- Node5&#45;&gt;Node9 -->
<g id="edge16" class="edge"><title>Node5&#45;&gt;Node9</title>
<path fill="none" stroke="midnightblue" d="M313.786,-171C330.513,-171 348.55,-171 366.155,-171"/>
<polygon fill="midnightblue" stroke="midnightblue" points="313.555,-167.5 303.555,-171 313.555,-174.5 313.555,-167.5"/>
</g>
<!-- Node10 -->
<g id="node19" class="node"><title>Node10</title>
<a xlink:href="classe_not_a_number.html#a6dabec017857726ad6400354871a8aca" target="_top" xlink:title="eNotANumber::eNotANumber">
<polygon fill="white" stroke="black" points="385.5,-120.5 385.5,-141.5 546.5,-141.5 546.5,-120.5 385.5,-120.5"/>
<text text-anchor="middle" x="466" y="-128.5" font-family="DejaVuSans" font-size="10.00">eNotANumber::eNotANumber</text>
</a>
</g>
<!-- Node5&#45;&gt;Node10 -->
<g id="edge18" class="edge"><title>Node5&#45;&gt;Node10</title>
<path fill="none" stroke="midnightblue" d="M309.286,-158.737C340.412,-153.228 376.77,-146.793 406.626,-141.509"/>
<polygon fill="midnightblue" stroke="midnightblue" points="308.616,-155.301 299.379,-160.49 309.836,-162.194 308.616,-155.301"/>
</g>
<!-- Node11 -->
<g id="node21" class="node"><title>Node11</title>
<a xlink:href="classe_number.html#a27c099a9af640d009a4e25f7454252bf" target="_top" xlink:title="eNumber::eNumber">
<polygon fill="white" stroke="black" points="409.5,-80.5 409.5,-101.5 522.5,-101.5 522.5,-80.5 409.5,-80.5"/>
<text text-anchor="middle" x="466" y="-88.5" font-family="DejaVuSans" font-size="10.00">eNumber::eNumber</text>
</a>
</g>
<!-- Node5&#45;&gt;Node11 -->
<g id="edge20" class="edge"><title>Node5&#45;&gt;Node11</title>
<path fill="none" stroke="midnightblue" d="M267.497,-155.462C292.486,-141.941 330.73,-122.724 366,-111 379.777,-106.421 394.988,-102.723 409.301,-99.8119"/>
<polygon fill="midnightblue" stroke="midnightblue" points="265.689,-152.462 258.603,-160.338 269.054,-158.6 265.689,-152.462"/>
</g>
<!-- Node12 -->
<g id="node23" class="node"><title>Node12</title>
<a xlink:href="classe_user_entry.html#a8865bccf1cf63218bd651713b777507d" target="_top" xlink:title="eUserEntry::eUserEntry">
<polygon fill="white" stroke="black" points="402,-40.5 402,-61.5 530,-61.5 530,-40.5 402,-40.5"/>
<text text-anchor="middle" x="466" y="-48.5" font-family="DejaVuSans" font-size="10.00">eUserEntry::eUserEntry</text>
</a>
</g>
<!-- Node5&#45;&gt;Node12 -->
<g id="edge22" class="edge"><title>Node5&#45;&gt;Node12</title>
<path fill="none" stroke="midnightblue" d="M257.112,-152.902C279.773,-130.086 322.031,-91.385 366,-71 377.163,-65.8243 389.636,-61.9848 401.884,-59.1374"/>
<polygon fill="midnightblue" stroke="midnightblue" points="254.418,-150.651 249.943,-160.255 259.43,-155.538 254.418,-150.651"/>
</g>
<!-- Node13 -->
<g id="node25" class="node"><title>Node13</title>
<a xlink:href="class_exception.html#aeb292f06dab004c0d314c0375dc5ac24" target="_top" xlink:title="Exception::Exception">
<polygon fill="white" stroke="black" points="408,-0.5 408,-21.5 524,-21.5 524,-0.5 408,-0.5"/>
<text text-anchor="middle" x="466" y="-8.5" font-family="DejaVuSans" font-size="10.00">Exception::Exception</text>
</a>
</g>
<!-- Node5&#45;&gt;Node13 -->
<g id="edge24" class="edge"><title>Node5&#45;&gt;Node13</title>
<path fill="none" stroke="midnightblue" d="M251.324,-151.965C270.682,-121.224 313.21,-61.0636 366,-31 378.693,-23.7716 393.59,-19.125 407.953,-16.1469"/>
<polygon fill="midnightblue" stroke="midnightblue" points="248.335,-150.144 246.074,-160.495 254.296,-153.813 248.335,-150.144"/>
</g>
</g>
</svg>
