<?xml version="1.0" encoding="UTF-8" standalone="no"?>
<!DOCTYPE svg PUBLIC "-//W3C//DTD SVG 1.1//EN"
 "http://www.w3.org/Graphics/SVG/1.1/DTD/svg11.dtd">
<!-- Generated by graphviz version 2.26.3 (20100126.1600)
 -->
<!-- Title: G Pages: 1 -->
<svg width="656pt" height="169pt"
 viewBox="0.00 0.00 656.00 169.00" xmlns="http://www.w3.org/2000/svg" xmlns:xlink="http://www.w3.org/1999/xlink">
<g id="graph1" class="graph" transform="scale(1 1) rotate(0) translate(4 165)">
<title>G</title>
<polygon fill="white" stroke="white" points="-4,5 -4,-165 653,-165 653,5 -4,5"/>
<!-- Node1 -->
<g id="node1" class="node"><title>Node1</title>
<polygon fill="#bfbfbf" stroke="black" points="0,-99.5 0,-120.5 180,-120.5 180,-99.5 0,-99.5"/>
<text text-anchor="middle" x="90" y="-107.5" font-family="DejaVuSans" font-size="10.00">CharaTrait::checkTraitPrerequisites</text>
</g>
<!-- Node2 -->
<g id="node3" class="node"><title>Node2</title>
<a xlink:href="class_exception.html#a7cb124af6ec64ad88a8721b60c7932fb" target="_top" xlink:title="Exception::description">
<polygon fill="white" stroke="black" points="216,-139.5 216,-160.5 338,-160.5 338,-139.5 216,-139.5"/>
<text text-anchor="middle" x="277" y="-147.5" font-family="DejaVuSans" font-size="10.00">Exception::description</text>
</a>
</g>
<!-- Node1&#45;&gt;Node2 -->
<g id="edge2" class="edge"><title>Node1&#45;&gt;Node2</title>
<path fill="none" stroke="midnightblue" d="M139.132,-120.51C163.302,-125.679 192.62,-131.951 217.996,-137.379"/>
<polygon fill="midnightblue" stroke="midnightblue" points="217.361,-140.822 227.872,-139.491 218.825,-133.977 217.361,-140.822"/>
</g>
<!-- Node3 -->
<g id="node5" class="node"><title>Node3</title>
<a xlink:href="class_exception.html#aeaf3a81717287d50938bc72ed67bacd8" target="_top" xlink:title="Exception::message">
<polygon fill="white" stroke="black" points="220.5,-99.5 220.5,-120.5 333.5,-120.5 333.5,-99.5 220.5,-99.5"/>
<text text-anchor="middle" x="277" y="-107.5" font-family="DejaVuSans" font-size="10.00">Exception::message</text>
</a>
</g>
<!-- Node1&#45;&gt;Node3 -->
<g id="edge4" class="edge"><title>Node1&#45;&gt;Node3</title>
<path fill="none" stroke="midnightblue" d="M180.213,-110C190.403,-110 200.645,-110 210.454,-110"/>
<polygon fill="midnightblue" stroke="midnightblue" points="210.499,-113.5 220.499,-110 210.499,-106.5 210.499,-113.5"/>
</g>
<!-- Node4 -->
<g id="node7" class="node"><title>Node4</title>
<a xlink:href="class_chara_trait.html#abcfeed4a455c49246385c9bc2024ba15" target="_top" xlink:title="CharaTrait::setValue">
<polygon fill="white" stroke="black" points="221,-59.5 221,-80.5 333,-80.5 333,-59.5 221,-59.5"/>
<text text-anchor="middle" x="277" y="-67.5" font-family="DejaVuSans" font-size="10.00">CharaTrait::setValue</text>
</a>
</g>
<!-- Node1&#45;&gt;Node4 -->
<g id="edge6" class="edge"><title>Node1&#45;&gt;Node4</title>
<path fill="none" stroke="midnightblue" d="M139.132,-99.4905C163.302,-94.3205 192.62,-88.0492 217.996,-82.6212"/>
<polygon fill="midnightblue" stroke="midnightblue" points="218.825,-86.0231 227.872,-80.5087 217.361,-79.1779 218.825,-86.0231"/>
</g>
<!-- Node5 -->
<g id="node9" class="node"><title>Node5</title>
<a xlink:href="classcv___trait.html#aa1d68882182c6858991571f21ddef507" target="_top" xlink:title="cv_Trait::setValue">
<polygon fill="white" stroke="black" points="391.5,-119.5 391.5,-140.5 490.5,-140.5 490.5,-119.5 391.5,-119.5"/>
<text text-anchor="middle" x="441" y="-127.5" font-family="DejaVuSans" font-size="10.00">cv_Trait::setValue</text>
</a>
</g>
<!-- Node4&#45;&gt;Node5 -->
<g id="edge8" class="edge"><title>Node4&#45;&gt;Node5</title>
<path fill="none" stroke="midnightblue" d="M312.909,-80.5129C321.26,-83.3029 330.034,-86.5192 338,-90 354.772,-97.3288 357.131,-102.896 374,-110 379.375,-112.264 385.093,-114.382 390.835,-116.33"/>
<polygon fill="midnightblue" stroke="midnightblue" points="389.874,-119.698 400.466,-119.443 392.027,-113.037 389.874,-119.698"/>
</g>
<!-- Node6 -->
<g id="node11" class="node"><title>Node6</title>
<a xlink:href="class_chara_trait.html#ab3935a94198f510d3de473a9a72692ac" target="_top" xlink:title="CharaTrait::traitChanged">
<polygon fill="white" stroke="black" points="374.5,-79.5 374.5,-100.5 507.5,-100.5 507.5,-79.5 374.5,-79.5"/>
<text text-anchor="middle" x="441" y="-87.5" font-family="DejaVuSans" font-size="10.00">CharaTrait::traitChanged</text>
</a>
</g>
<!-- Node4&#45;&gt;Node6 -->
<g id="edge10" class="edge"><title>Node4&#45;&gt;Node6</title>
<path fill="none" stroke="midnightblue" d="M333.439,-76.8829C343.41,-78.0988 353.941,-79.383 364.356,-80.6531"/>
<polygon fill="midnightblue" stroke="midnightblue" points="363.934,-84.1275 374.284,-81.8639 364.781,-77.179 363.934,-84.1275"/>
</g>
<!-- Node7 -->
<g id="node13" class="node"><title>Node7</title>
<a xlink:href="class_chara_trait.html#acd1abb86d271f401b9856f2c8e172255" target="_top" xlink:title="CharaTrait::traitPtr">
<polygon fill="white" stroke="black" points="544,-40.5 544,-61.5 648,-61.5 648,-40.5 544,-40.5"/>
<text text-anchor="middle" x="596" y="-48.5" font-family="DejaVuSans" font-size="10.00">CharaTrait::traitPtr</text>
</a>
</g>
<!-- Node4&#45;&gt;Node7 -->
<g id="edge12" class="edge"><title>Node4&#45;&gt;Node7</title>
<path fill="none" stroke="midnightblue" d="M333.296,-66.6469C389.485,-63.3003 475.618,-58.1701 533.799,-54.7048"/>
<polygon fill="midnightblue" stroke="midnightblue" points="534.189,-58.1878 543.963,-54.0994 533.773,-51.2002 534.189,-58.1878"/>
</g>
<!-- Node8 -->
<g id="node15" class="node"><title>Node8</title>
<a xlink:href="class_chara_trait.html#adeed572acc2fa97468285bc3267e9cb8" target="_top" xlink:title="CharaTrait::value">
<polygon fill="white" stroke="black" points="393,-1.5 393,-22.5 489,-22.5 489,-1.5 393,-1.5"/>
<text text-anchor="middle" x="441" y="-9.5" font-family="DejaVuSans" font-size="10.00">CharaTrait::value</text>
</a>
</g>
<!-- Node4&#45;&gt;Node8 -->
<g id="edge14" class="edge"><title>Node4&#45;&gt;Node8</title>
<path fill="none" stroke="midnightblue" d="M306.699,-59.4966C333.32,-50.082 372.562,-36.2036 401.761,-25.8773"/>
<polygon fill="midnightblue" stroke="midnightblue" points="402.984,-29.1571 411.245,-22.5231 400.65,-22.5576 402.984,-29.1571"/>
</g>
<!-- Node8&#45;&gt;Node7 -->
<g id="edge16" class="edge"><title>Node8&#45;&gt;Node7</title>
<path fill="none" stroke="midnightblue" d="M482.945,-22.554C501.813,-27.3013 524.27,-32.9518 544.179,-37.9611"/>
<polygon fill="midnightblue" stroke="midnightblue" points="543.469,-41.3917 554.021,-40.4376 545.178,-34.6032 543.469,-41.3917"/>
</g>
<!-- Node9 -->
<g id="node18" class="node"><title>Node9</title>
<a xlink:href="classcv___trait.html#a965fb56fc4ff6e659b4c44752cfaa538" target="_top" xlink:title="cv_Trait::value">
<polygon fill="white" stroke="black" points="554.5,-0.5 554.5,-21.5 637.5,-21.5 637.5,-0.5 554.5,-0.5"/>
<text text-anchor="middle" x="596" y="-8.5" font-family="DejaVuSans" font-size="10.00">cv_Trait::value</text>
</a>
</g>
<!-- Node8&#45;&gt;Node9 -->
<g id="edge18" class="edge"><title>Node8&#45;&gt;Node9</title>
<path fill="none" stroke="midnightblue" d="M489.193,-11.6891C506.651,-11.5764 526.436,-11.4488 544.191,-11.3342"/>
<polygon fill="midnightblue" stroke="midnightblue" points="544.401,-14.8331 554.378,-11.2685 544.356,-7.83321 544.401,-14.8331"/>
</g>
</g>
</svg>
