<?xml version="1.0" encoding="UTF-8" standalone="no"?>
<!DOCTYPE svg PUBLIC "-//W3C//DTD SVG 1.1//EN"
 "http://www.w3.org/Graphics/SVG/1.1/DTD/svg11.dtd">
<!-- Generated by graphviz version 2.26.3 (20100126.1600)
 -->
<!-- Title: G Pages: 1 -->
<svg width="602pt" height="110pt"
 viewBox="0.00 0.00 602.00 110.00" xmlns="http://www.w3.org/2000/svg" xmlns:xlink="http://www.w3.org/1999/xlink">
<g id="graph1" class="graph" transform="scale(1 1) rotate(0) translate(4 106)">
<title>G</title>
<polygon fill="white" stroke="white" points="-4,5 -4,-106 599,-106 599,5 -4,5"/>
<!-- Node1 -->
<g id="node1" class="node"><title>Node1</title>
<polygon fill="#bfbfbf" stroke="black" points="0.5,-20.5 0.5,-41.5 179.5,-41.5 179.5,-20.5 0.5,-20.5"/>
<text text-anchor="middle" x="90" y="-28.5" font-family="DejaVuSans" font-size="10.00">CheckedList::insertCheckableItem</text>
</g>
<!-- Node2 -->
<g id="node3" class="node"><title>Node2</title>
<a xlink:href="class_checked_list.html#a8ebfdcbb7f95d5fa6145c0c35d736344" target="_top" xlink:title="CheckedList::addCheckableItem">
<polygon fill="white" stroke="black" points="216,-40.5 216,-61.5 386,-61.5 386,-40.5 216,-40.5"/>
<text text-anchor="middle" x="301" y="-48.5" font-family="DejaVuSans" font-size="10.00">CheckedList::addCheckableItem</text>
</a>
</g>
<!-- Node1&#45;&gt;Node2 -->
<g id="edge2" class="edge"><title>Node1&#45;&gt;Node2</title>
<path fill="none" stroke="midnightblue" d="M189.967,-40.4755C198.669,-41.3004 207.421,-42.13 215.986,-42.9418"/>
<polygon fill="midnightblue" stroke="midnightblue" points="190.075,-36.9701 179.789,-39.5108 189.414,-43.9389 190.075,-36.9701"/>
</g>
<!-- Node6 -->
<g id="node11" class="node"><title>Node6</title>
<a xlink:href="class_trait_specialties.html#abe51c67538bbfdc1690b5333a468ffa4" target="_top" xlink:title="TraitSpecialties::insertSpecialty">
<polygon fill="white" stroke="black" points="219,-0.5 219,-21.5 383,-21.5 383,-0.5 219,-0.5"/>
<text text-anchor="middle" x="301" y="-8.5" font-family="DejaVuSans" font-size="10.00">TraitSpecialties::insertSpecialty</text>
</a>
</g>
<!-- Node1&#45;&gt;Node6 -->
<g id="edge10" class="edge"><title>Node1&#45;&gt;Node6</title>
<path fill="none" stroke="midnightblue" d="M189.903,-21.5305C199.645,-20.6071 209.45,-19.6777 218.985,-18.7739"/>
<polygon fill="midnightblue" stroke="midnightblue" points="189.414,-18.0611 179.789,-22.4892 190.075,-25.0299 189.414,-18.0611"/>
</g>
<!-- Node3 -->
<g id="node5" class="node"><title>Node3</title>
<a xlink:href="class_trait_specialties.html#afbaa0fc4b3650313cd47de2c68038880" target="_top" xlink:title="TraitSpecialties::addSpecialty">
<polygon fill="white" stroke="black" points="430.5,-80.5 430.5,-101.5 585.5,-101.5 585.5,-80.5 430.5,-80.5"/>
<text text-anchor="middle" x="508" y="-88.5" font-family="DejaVuSans" font-size="10.00">TraitSpecialties::addSpecialty</text>
</a>
</g>
<!-- Node2&#45;&gt;Node3 -->
<g id="edge4" class="edge"><title>Node2&#45;&gt;Node3</title>
<path fill="none" stroke="midnightblue" d="M365.574,-63.4781C393.834,-68.939 426.627,-75.2757 453.617,-80.4913"/>
<polygon fill="midnightblue" stroke="midnightblue" points="365.869,-59.9704 355.387,-61.5095 364.541,-66.8433 365.869,-59.9704"/>
</g>
<!-- Node4 -->
<g id="node7" class="node"><title>Node4</title>
<a xlink:href="class_checked_list.html#aa59e928d0975a31bb928469acd71ba31" target="_top" xlink:title="CheckedList::setCheckableItems">
<polygon fill="white" stroke="black" points="422,-40.5 422,-61.5 594,-61.5 594,-40.5 422,-40.5"/>
<text text-anchor="middle" x="508" y="-48.5" font-family="DejaVuSans" font-size="10.00">CheckedList::setCheckableItems</text>
</a>
</g>
<!-- Node2&#45;&gt;Node4 -->
<g id="edge6" class="edge"><title>Node2&#45;&gt;Node4</title>
<path fill="none" stroke="midnightblue" d="M396.128,-51C404.721,-51 413.392,-51 421.901,-51"/>
<polygon fill="midnightblue" stroke="midnightblue" points="396.091,-47.5001 386.091,-51 396.091,-54.5001 396.091,-47.5001"/>
</g>
<!-- Node5 -->
<g id="node9" class="node"><title>Node5</title>
<a xlink:href="class_trait_specialties.html#ad205bb3458dca2d7884150682e4c343e" target="_top" xlink:title="TraitSpecialties::setSpecialties">
<polygon fill="white" stroke="black" points="427.5,-0.5 427.5,-21.5 588.5,-21.5 588.5,-0.5 427.5,-0.5"/>
<text text-anchor="middle" x="508" y="-8.5" font-family="DejaVuSans" font-size="10.00">TraitSpecialties::setSpecialties</text>
</a>
</g>
<!-- Node2&#45;&gt;Node5 -->
<g id="edge8" class="edge"><title>Node2&#45;&gt;Node5</title>
<path fill="none" stroke="midnightblue" d="M365.574,-38.5219C393.834,-33.061 426.627,-26.7243 453.617,-21.5087"/>
<polygon fill="midnightblue" stroke="midnightblue" points="364.541,-35.1567 355.387,-40.4905 365.869,-42.0296 364.541,-35.1567"/>
</g>
</g>
</svg>
