<?xml version="1.0" encoding="UTF-8" standalone="no"?>
<!DOCTYPE svg PUBLIC "-//W3C//DTD SVG 1.1//EN"
 "http://www.w3.org/Graphics/SVG/1.1/DTD/svg11.dtd">
<!-- Generated by graphviz version 2.26.3 (20100126.1600)
 -->
<!-- Title: G Pages: 1 -->
<svg width="132pt" height="204pt"
 viewBox="0.00 0.00 132.00 204.00" xmlns="http://www.w3.org/2000/svg" xmlns:xlink="http://www.w3.org/1999/xlink">
<g id="graph1" class="graph" transform="scale(1 1) rotate(0) translate(4 200)">
<title>G</title>
<polygon fill="white" stroke="white" points="-4,5 -4,-200 129,-200 129,5 -4,5"/>
<!-- Node1 -->
<g id="node1" class="node"><title>Node1</title>
<polygon fill="#bfbfbf" stroke="black" points="-0.5,-0.5 -0.5,-21.5 124.5,-21.5 124.5,-0.5 -0.5,-0.5"/>
<text text-anchor="middle" x="62" y="-8.5" font-family="DejaVuSans" font-size="10.00">src.Error.ErrXmlParsing</text>
</g>
<!-- Node2 -->
<g id="node2" class="node"><title>Node2</title>
<a xlink:href="classsrc_1_1_error_1_1_err_xml.html" target="_top" xlink:title="Ausnahme beim Lesen der XML&#45;Datei.">
<polygon fill="white" stroke="black" points="16.5,-58.5 16.5,-79.5 107.5,-79.5 107.5,-58.5 16.5,-58.5"/>
<text text-anchor="middle" x="62" y="-66.5" font-family="DejaVuSans" font-size="10.00">src.Error.ErrXml</text>
</a>
</g>
<!-- Node2&#45;&gt;Node1 -->
<g id="edge2" class="edge"><title>Node2&#45;&gt;Node1</title>
<path fill="none" stroke="midnightblue" d="M62,-48.1906C62,-39.1684 62,-28.9941 62,-21.5707"/>
<polygon fill="midnightblue" stroke="midnightblue" points="58.5001,-48.3619 62,-58.3619 65.5001,-48.3619 58.5001,-48.3619"/>
</g>
<!-- Node3 -->
<g id="node4" class="node"><title>Node3</title>
<a xlink:href="classsrc_1_1_error_1_1_err.html" target="_top" xlink:title="Basisklasse für die Ausnahmebehandlung.">
<polygon fill="white" stroke="black" points="25.5,-116.5 25.5,-137.5 98.5,-137.5 98.5,-116.5 25.5,-116.5"/>
<text text-anchor="middle" x="62" y="-124.5" font-family="DejaVuSans" font-size="10.00">src.Error.Err</text>
</a>
</g>
<!-- Node3&#45;&gt;Node2 -->
<g id="edge4" class="edge"><title>Node3&#45;&gt;Node2</title>
<path fill="none" stroke="midnightblue" d="M62,-106.191C62,-97.1684 62,-86.9941 62,-79.5707"/>
<polygon fill="midnightblue" stroke="midnightblue" points="58.5001,-106.362 62,-116.362 65.5001,-106.362 58.5001,-106.362"/>
</g>
<!-- Node4 -->
<g id="node6" class="node"><title>Node4</title>
<a xlink:href="class_exception.html" target="_top" xlink:title="Exception">
<polygon fill="white" stroke="black" points="30.5,-174.5 30.5,-195.5 93.5,-195.5 93.5,-174.5 30.5,-174.5"/>
<text text-anchor="middle" x="62" y="-182.5" font-family="DejaVuSans" font-size="10.00">Exception</text>
</a>
</g>
<!-- Node4&#45;&gt;Node3 -->
<g id="edge6" class="edge"><title>Node4&#45;&gt;Node3</title>
<path fill="none" stroke="midnightblue" d="M62,-164.191C62,-155.168 62,-144.994 62,-137.571"/>
<polygon fill="midnightblue" stroke="midnightblue" points="58.5001,-164.362 62,-174.362 65.5001,-164.362 58.5001,-164.362"/>
</g>
</g>
</svg>
