<?xml version="1.0" encoding="UTF-8" standalone="no"?>
<!DOCTYPE svg PUBLIC "-//W3C//DTD SVG 1.1//EN"
 "http://www.w3.org/Graphics/SVG/1.1/DTD/svg11.dtd">
<!-- Generated by graphviz version 2.26.3 (20100126.1600)
 -->
<!-- Title: G Pages: 1 -->
<svg width="1184pt" height="30pt"
 viewBox="0.00 0.00 1184.00 30.00" xmlns="http://www.w3.org/2000/svg" xmlns:xlink="http://www.w3.org/1999/xlink">
<g id="graph1" class="graph" transform="scale(1 1) rotate(0) translate(4 26)">
<title>G</title>
<polygon fill="white" stroke="white" points="-4,5 -4,-26 1181,-26 1181,5 -4,5"/>
<!-- Node1 -->
<g id="node1" class="node"><title>Node1</title>
<polygon fill="#bfbfbf" stroke="black" points="0.5,-0.5 0.5,-21.5 131.5,-21.5 131.5,-0.5 0.5,-0.5"/>
<text text-anchor="middle" x="66" y="-8.5" font-family="DejaVuSans" font-size="10.00">ReadTemplate::readTree</text>
</g>
<!-- Node2 -->
<g id="node3" class="node"><title>Node2</title>
<a xlink:href="class_read_template.html#afadaf1be1c19f9a70a4894a246386ee9" target="_top" xlink:title="ReadTemplate::readSoulCreator">
<polygon fill="white" stroke="black" points="168,-0.5 168,-21.5 336,-21.5 336,-0.5 168,-0.5"/>
<text text-anchor="middle" x="252" y="-8.5" font-family="DejaVuSans" font-size="10.00">ReadTemplate::readSoulCreator</text>
</a>
</g>
<!-- Node1&#45;&gt;Node2 -->
<g id="edge2" class="edge"><title>Node1&#45;&gt;Node2</title>
<path fill="none" stroke="midnightblue" d="M141.593,-11C150.223,-11 159.06,-11 167.792,-11"/>
<polygon fill="midnightblue" stroke="midnightblue" points="141.577,-7.5001 131.577,-11 141.577,-14.5001 141.577,-7.5001"/>
</g>
<!-- Node3 -->
<g id="node5" class="node"><title>Node3</title>
<a xlink:href="class_read_template.html#ad7023d8c02891c892ea33808363bbcd2" target="_top" xlink:title="ReadTemplate::readXml">
<polygon fill="white" stroke="black" points="372.5,-0.5 372.5,-21.5 501.5,-21.5 501.5,-0.5 372.5,-0.5"/>
<text text-anchor="middle" x="437" y="-8.5" font-family="DejaVuSans" font-size="10.00">ReadTemplate::readXml</text>
</a>
</g>
<!-- Node2&#45;&gt;Node3 -->
<g id="edge4" class="edge"><title>Node2&#45;&gt;Node3</title>
<path fill="none" stroke="midnightblue" d="M346.158,-11C355.066,-11 363.954,-11 372.491,-11"/>
<polygon fill="midnightblue" stroke="midnightblue" points="346.109,-7.5001 336.109,-11 346.109,-14.5001 346.109,-7.5001"/>
</g>
<!-- Node4 -->
<g id="node7" class="node"><title>Node4</title>
<a xlink:href="class_read_template.html#a229f7cd3bfc1d0c47caa2cec3a5a0621" target="_top" xlink:title="ReadTemplate::process">
<polygon fill="white" stroke="black" points="538.5,-0.5 538.5,-21.5 665.5,-21.5 665.5,-0.5 538.5,-0.5"/>
<text text-anchor="middle" x="602" y="-8.5" font-family="DejaVuSans" font-size="10.00">ReadTemplate::process</text>
</a>
</g>
<!-- Node3&#45;&gt;Node4 -->
<g id="edge6" class="edge"><title>Node3&#45;&gt;Node4</title>
<path fill="none" stroke="midnightblue" d="M511.971,-11C520.753,-11 529.65,-11 538.259,-11"/>
<polygon fill="midnightblue" stroke="midnightblue" points="511.739,-7.5001 501.739,-11 511.739,-14.5001 511.739,-7.5001"/>
</g>
<!-- Node5 -->
<g id="node9" class="node"><title>Node5</title>
<a xlink:href="class_read_template.html#a3eb0cc39155f082c8c1d71521431e9f4" target="_top" xlink:title="ReadTemplate::read">
<polygon fill="white" stroke="black" points="702.5,-0.5 702.5,-21.5 813.5,-21.5 813.5,-0.5 702.5,-0.5"/>
<text text-anchor="middle" x="758" y="-8.5" font-family="DejaVuSans" font-size="10.00">ReadTemplate::read</text>
</a>
</g>
<!-- Node4&#45;&gt;Node5 -->
<g id="edge8" class="edge"><title>Node4&#45;&gt;Node5</title>
<path fill="none" stroke="midnightblue" d="M675.921,-11C684.845,-11 693.84,-11 702.437,-11"/>
<polygon fill="midnightblue" stroke="midnightblue" points="675.901,-7.5001 665.901,-11 675.901,-14.5001 675.901,-7.5001"/>
</g>
<!-- Node6 -->
<g id="node11" class="node"><title>Node6</title>
<a xlink:href="class_main_window.html#a1ebe4d2e06ddd16007a29bd1b8c09c49" target="_top" xlink:title="MainWindow::storeTemplateData">
<polygon fill="white" stroke="black" points="850.5,-0.5 850.5,-21.5 1021.5,-21.5 1021.5,-0.5 850.5,-0.5"/>
<text text-anchor="middle" x="936" y="-8.5" font-family="DejaVuSans" font-size="10.00">MainWindow::storeTemplateData</text>
</a>
</g>
<!-- Node5&#45;&gt;Node6 -->
<g id="edge10" class="edge"><title>Node5&#45;&gt;Node6</title>
<path fill="none" stroke="midnightblue" d="M824.109,-11C832.676,-11 841.548,-11 850.375,-11"/>
<polygon fill="midnightblue" stroke="midnightblue" points="823.832,-7.5001 813.832,-11 823.832,-14.5001 823.832,-7.5001"/>
</g>
<!-- Node7 -->
<g id="node13" class="node"><title>Node7</title>
<a xlink:href="class_main_window.html#a43f05c4d3f5d840d070829d3291c9ec7" target="_top" xlink:title="MainWindow::initialize">
<polygon fill="white" stroke="black" points="1058,-0.5 1058,-21.5 1176,-21.5 1176,-0.5 1058,-0.5"/>
<text text-anchor="middle" x="1117" y="-8.5" font-family="DejaVuSans" font-size="10.00">MainWindow::initialize</text>
</a>
</g>
<!-- Node6&#45;&gt;Node7 -->
<g id="edge12" class="edge"><title>Node6&#45;&gt;Node7</title>
<path fill="none" stroke="midnightblue" d="M1031.78,-11C1040.67,-11 1049.5,-11 1057.91,-11"/>
<polygon fill="midnightblue" stroke="midnightblue" points="1031.73,-7.5001 1021.73,-11 1031.73,-14.5001 1031.73,-7.5001"/>
</g>
</g>
</svg>
