<?xml version="1.0" encoding="UTF-8" standalone="no"?>
<!DOCTYPE svg PUBLIC "-//W3C//DTD SVG 1.1//EN"
 "http://www.w3.org/Graphics/SVG/1.1/DTD/svg11.dtd">
<!-- Generated by graphviz version 2.26.3 (20100126.1600)
 -->
<!-- Title: G Pages: 1 -->
<svg width="488pt" height="130pt"
 viewBox="0.00 0.00 488.00 130.00" xmlns="http://www.w3.org/2000/svg" xmlns:xlink="http://www.w3.org/1999/xlink">
<g id="graph1" class="graph" transform="scale(1 1) rotate(0) translate(4 126)">
<title>G</title>
<polygon fill="white" stroke="white" points="-4,5 -4,-126 485,-126 485,5 -4,5"/>
<!-- Node1 -->
<g id="node1" class="node"><title>Node1</title>
<polygon fill="#bfbfbf" stroke="black" points="0,-60.5 0,-81.5 116,-81.5 116,-60.5 0,-60.5"/>
<text text-anchor="middle" x="58" y="-68.5" font-family="DejaVuSans" font-size="10.00">Trait::detailsChanged</text>
</g>
<!-- Node2 -->
<g id="node3" class="node"><title>Node2</title>
<a xlink:href="class_trait.html#ab6460ff9f5e4837d97c857cc06e0fa21" target="_top" xlink:title="Trait::addDetail">
<polygon fill="white" stroke="black" points="157,-100.5 157,-121.5 245,-121.5 245,-100.5 157,-100.5"/>
<text text-anchor="middle" x="201" y="-108.5" font-family="DejaVuSans" font-size="10.00">Trait::addDetail</text>
</a>
</g>
<!-- Node1&#45;&gt;Node2 -->
<g id="edge2" class="edge"><title>Node1&#45;&gt;Node2</title>
<path fill="none" stroke="midnightblue" d="M105.416,-84.2632C124.19,-89.5148 145.473,-95.4681 163.183,-100.422"/>
<polygon fill="midnightblue" stroke="midnightblue" points="106.145,-80.8328 95.5716,-81.5095 104.259,-87.574 106.145,-80.8328"/>
</g>
<!-- Node3 -->
<g id="node5" class="node"><title>Node3</title>
<a xlink:href="class_trait.html#aa416615b30fcac6dbcfc064d7ad1d40b" target="_top" xlink:title="Trait::clearDetails">
<polygon fill="white" stroke="black" points="152,-60.5 152,-81.5 250,-81.5 250,-60.5 152,-60.5"/>
<text text-anchor="middle" x="201" y="-68.5" font-family="DejaVuSans" font-size="10.00">Trait::clearDetails</text>
</a>
</g>
<!-- Node1&#45;&gt;Node3 -->
<g id="edge4" class="edge"><title>Node1&#45;&gt;Node3</title>
<path fill="none" stroke="midnightblue" d="M126.169,-71C134.743,-71 143.38,-71 151.587,-71"/>
<polygon fill="midnightblue" stroke="midnightblue" points="126.164,-67.5001 116.164,-71 126.164,-74.5001 126.164,-67.5001"/>
</g>
<!-- Node4 -->
<g id="node7" class="node"><title>Node4</title>
<a xlink:href="class_trait.html#a8d2ca547e2dd3189858cbd8aa1c52efd" target="_top" xlink:title="Trait::setDetails">
<polygon fill="white" stroke="black" points="156,-20.5 156,-41.5 246,-41.5 246,-20.5 156,-20.5"/>
<text text-anchor="middle" x="201" y="-28.5" font-family="DejaVuSans" font-size="10.00">Trait::setDetails</text>
</a>
</g>
<!-- Node1&#45;&gt;Node4 -->
<g id="edge6" class="edge"><title>Node1&#45;&gt;Node4</title>
<path fill="none" stroke="midnightblue" d="M105.416,-57.7368C124.19,-52.4852 145.473,-46.5319 163.183,-41.5782"/>
<polygon fill="midnightblue" stroke="midnightblue" points="104.259,-54.426 95.5716,-60.4905 106.145,-61.1672 104.259,-54.426"/>
</g>
<!-- Node5 -->
<g id="node9" class="node"><title>Node5</title>
<a xlink:href="class_storage_character.html#a6273e4a5881f52b074bb1e4885ce70a6" target="_top" xlink:title="StorageCharacter::setSkillSpecialties">
<polygon fill="white" stroke="black" points="286,-40.5 286,-61.5 480,-61.5 480,-40.5 286,-40.5"/>
<text text-anchor="middle" x="383" y="-48.5" font-family="DejaVuSans" font-size="10.00">StorageCharacter::setSkillSpecialties</text>
</a>
</g>
<!-- Node4&#45;&gt;Node5 -->
<g id="edge8" class="edge"><title>Node4&#45;&gt;Node5</title>
<path fill="none" stroke="midnightblue" d="M256.433,-37.0915C266.257,-38.1711 276.737,-39.3228 287.302,-40.4837"/>
<polygon fill="midnightblue" stroke="midnightblue" points="256.779,-33.6086 246.457,-35.9953 256.015,-40.5667 256.779,-33.6086"/>
</g>
<!-- Node6 -->
<g id="node11" class="node"><title>Node6</title>
<a xlink:href="class_trait.html#af91999c7db93d064bf79f1a72133152a" target="_top" xlink:title="Trait::Trait">
<polygon fill="white" stroke="black" points="352,-0.5 352,-21.5 414,-21.5 414,-0.5 352,-0.5"/>
<text text-anchor="middle" x="383" y="-8.5" font-family="DejaVuSans" font-size="10.00">Trait::Trait</text>
</a>
</g>
<!-- Node4&#45;&gt;Node6 -->
<g id="edge10" class="edge"><title>Node4&#45;&gt;Node6</title>
<path fill="none" stroke="midnightblue" d="M256.769,-24.8715C287.996,-21.44 325.768,-17.2892 351.81,-14.4275"/>
<polygon fill="midnightblue" stroke="midnightblue" points="256.015,-21.4333 246.457,-26.0047 256.779,-28.3914 256.015,-21.4333"/>
</g>
</g>
</svg>
