<?xml version="1.0" encoding="UTF-8" standalone="no"?>
<!DOCTYPE svg PUBLIC "-//W3C//DTD SVG 1.1//EN"
 "http://www.w3.org/Graphics/SVG/1.1/DTD/svg11.dtd">
<!-- Generated by graphviz version 2.26.3 (20100126.1600)
 -->
<!-- Title: G Pages: 1 -->
<svg width="828pt" height="305pt"
 viewBox="0.00 0.00 828.00 305.00" xmlns="http://www.w3.org/2000/svg" xmlns:xlink="http://www.w3.org/1999/xlink">
<g id="graph1" class="graph" transform="scale(1 1) rotate(0) translate(4 301)">
<title>G</title>
<polygon fill="white" stroke="white" points="-4,5 -4,-301 825,-301 825,5 -4,5"/>
<!-- Node1 -->
<g id="node1" class="node"><title>Node1</title>
<polygon fill="#bfbfbf" stroke="black" points="0,-98.5 0,-119.5 94,-119.5 94,-98.5 0,-98.5"/>
<text text-anchor="middle" x="47" y="-106.5" font-family="DejaVuSans" font-size="10.00">cv_Trait::custom</text>
</g>
<!-- Node2 -->
<g id="node3" class="node"><title>Node2</title>
<a xlink:href="class_check_trait.html#a2dccc399d6c44877ca880bdd17d47ac2" target="_top" xlink:title="CheckTrait::custom">
<polygon fill="white" stroke="black" points="138.5,-235.5 138.5,-256.5 245.5,-256.5 245.5,-235.5 138.5,-235.5"/>
<text text-anchor="middle" x="192" y="-243.5" font-family="DejaVuSans" font-size="10.00">CheckTrait::custom</text>
</a>
</g>
<!-- Node1&#45;&gt;Node2 -->
<g id="edge2" class="edge"><title>Node1&#45;&gt;Node2</title>
<path fill="none" stroke="midnightblue" d="M65.8315,-126.792C96.3861,-155.661 155.842,-211.837 180.675,-235.3"/>
<polygon fill="midnightblue" stroke="midnightblue" points="68.0504,-124.074 58.3779,-119.75 63.243,-129.162 68.0504,-124.074"/>
</g>
<!-- Node5 -->
<g id="node9" class="node"><title>Node5</title>
<a xlink:href="class_chara_trait.html#a6f2348de11d23f9f44eb81335a9edf19" target="_top" xlink:title="CharaTrait::custom">
<polygon fill="white" stroke="black" points="316.5,-76.5 316.5,-97.5 423.5,-97.5 423.5,-76.5 316.5,-76.5"/>
<text text-anchor="middle" x="370" y="-84.5" font-family="DejaVuSans" font-size="10.00">CharaTrait::custom</text>
</a>
</g>
<!-- Node1&#45;&gt;Node5 -->
<g id="edge8" class="edge"><title>Node1&#45;&gt;Node5</title>
<path fill="none" stroke="midnightblue" d="M104.377,-105.092C164.378,-101.005 257.804,-94.6419 316.367,-90.653"/>
<polygon fill="midnightblue" stroke="midnightblue" points="104.052,-101.606 94.3129,-105.777 104.528,-108.59 104.052,-101.606"/>
</g>
<!-- Node8 -->
<g id="node15" class="node"><title>Node8</title>
<a xlink:href="classcv___trait.html#adee2adf82138573180ff0d1486974ff6" target="_top" xlink:title="cv_Trait::customText">
<polygon fill="white" stroke="black" points="135.5,-156.5 135.5,-177.5 248.5,-177.5 248.5,-156.5 135.5,-156.5"/>
<text text-anchor="middle" x="192" y="-164.5" font-family="DejaVuSans" font-size="10.00">cv_Trait::customText</text>
</a>
</g>
<!-- Node1&#45;&gt;Node8 -->
<g id="edge14" class="edge"><title>Node1&#45;&gt;Node8</title>
<path fill="none" stroke="midnightblue" d="M82.6228,-123.249C108.229,-133.491 142.199,-147.079 165.447,-156.379"/>
<polygon fill="midnightblue" stroke="midnightblue" points="83.8431,-119.968 73.2584,-119.503 81.2433,-126.467 83.8431,-119.968"/>
</g>
<!-- Node14 -->
<g id="node29" class="node"><title>Node14</title>
<a xlink:href="class_trait.html#af91999c7db93d064bf79f1a72133152a" target="_top" xlink:title="Trait::Trait">
<polygon fill="white" stroke="black" points="339,-116.5 339,-137.5 401,-137.5 401,-116.5 339,-116.5"/>
<text text-anchor="middle" x="370" y="-124.5" font-family="DejaVuSans" font-size="10.00">Trait::Trait</text>
</a>
</g>
<!-- Node1&#45;&gt;Node14 -->
<g id="edge36" class="edge"><title>Node1&#45;&gt;Node14</title>
<path fill="none" stroke="midnightblue" d="M104.488,-112.204C172.867,-116.014 284.545,-122.238 338.652,-125.253"/>
<polygon fill="midnightblue" stroke="midnightblue" points="104.492,-108.699 94.3129,-111.637 104.103,-115.688 104.492,-108.699"/>
</g>
<!-- Node15 -->
<g id="node31" class="node"><title>Node15</title>
<a xlink:href="class_check_trait.html#aaa686b2552adabe22ccacc80b58adcfd" target="_top" xlink:title="CheckTrait::setCustom">
<polygon fill="white" stroke="black" points="130,-40.5 130,-61.5 254,-61.5 254,-40.5 130,-40.5"/>
<text text-anchor="middle" x="192" y="-48.5" font-family="DejaVuSans" font-size="10.00">CheckTrait::setCustom</text>
</a>
</g>
<!-- Node1&#45;&gt;Node15 -->
<g id="edge32" class="edge"><title>Node1&#45;&gt;Node15</title>
<path fill="none" stroke="midnightblue" d="M82.6228,-94.7509C108.229,-84.5086 142.199,-70.9206 165.447,-61.6212"/>
<polygon fill="midnightblue" stroke="midnightblue" points="81.2433,-91.533 73.2584,-98.4966 83.8431,-98.0323 81.2433,-91.533"/>
</g>
<!-- Node16 -->
<g id="node33" class="node"><title>Node16</title>
<a xlink:href="class_chara_trait.html#a620d140e562c4102205d2c2a44af5622" target="_top" xlink:title="CharaTrait::setCustom">
<polygon fill="white" stroke="black" points="130.5,-0.5 130.5,-21.5 253.5,-21.5 253.5,-0.5 130.5,-0.5"/>
<text text-anchor="middle" x="192" y="-8.5" font-family="DejaVuSans" font-size="10.00">CharaTrait::setCustom</text>
</a>
</g>
<!-- Node1&#45;&gt;Node16 -->
<g id="edge34" class="edge"><title>Node1&#45;&gt;Node16</title>
<path fill="none" stroke="midnightblue" d="M62.3118,-90.4832C77.7435,-72.9115 103.073,-46.8931 130,-31 136.331,-27.2633 143.444,-24.1348 150.534,-21.5465"/>
<polygon fill="midnightblue" stroke="midnightblue" points="59.4193,-88.4796 55.5676,-98.3495 64.7336,-93.0358 59.4193,-88.4796"/>
</g>
<!-- Node3 -->
<g id="node5" class="node"><title>Node3</title>
<a xlink:href="class_check_trait.html#aa15b135c1ef0c0647e9bf49a0735f52a" target="_top" xlink:title="CheckTrait::hideDescriptionWidget">
<polygon fill="white" stroke="black" points="486,-275.5 486,-296.5 664,-296.5 664,-275.5 486,-275.5"/>
<text text-anchor="middle" x="575" y="-283.5" font-family="DejaVuSans" font-size="10.00">CheckTrait::hideDescriptionWidget</text>
</a>
</g>
<!-- Node2&#45;&gt;Node3 -->
<g id="edge4" class="edge"><title>Node2&#45;&gt;Node3</title>
<path fill="none" stroke="midnightblue" d="M244.582,-258.729C259.211,-261.871 275.158,-264.926 290,-267 355.196,-276.11 429.413,-280.881 485.764,-283.363"/>
<polygon fill="midnightblue" stroke="midnightblue" points="245.213,-255.284 234.694,-256.551 243.707,-262.121 245.213,-255.284"/>
</g>
<!-- Node4 -->
<g id="node7" class="node"><title>Node4</title>
<a xlink:href="class_check_trait.html#a3d74335165852938fb58d285bcc25b52" target="_top" xlink:title="CheckTrait::CheckTrait">
<polygon fill="white" stroke="black" points="700,-255.5 700,-276.5 820,-276.5 820,-255.5 700,-255.5"/>
<text text-anchor="middle" x="760" y="-263.5" font-family="DejaVuSans" font-size="10.00">CheckTrait::CheckTrait</text>
</a>
</g>
<!-- Node3&#45;&gt;Node4 -->
<g id="edge6" class="edge"><title>Node3&#45;&gt;Node4</title>
<path fill="none" stroke="midnightblue" d="M674.461,-275.247C683.143,-274.309 691.744,-273.379 699.954,-272.491"/>
<polygon fill="midnightblue" stroke="midnightblue" points="673.814,-271.797 664.249,-276.351 674.567,-278.756 673.814,-271.797"/>
</g>
<!-- Node6 -->
<g id="node11" class="node"><title>Node6</title>
<a xlink:href="class_chara_trait.html#a794ddd73f3604b16fe4b468b4a02f7df" target="_top" xlink:title="CharaTrait::hideDescriptionWidget">
<polygon fill="white" stroke="black" points="486.5,-86.5 486.5,-107.5 663.5,-107.5 663.5,-86.5 486.5,-86.5"/>
<text text-anchor="middle" x="575" y="-94.5" font-family="DejaVuSans" font-size="10.00">CharaTrait::hideDescriptionWidget</text>
</a>
</g>
<!-- Node5&#45;&gt;Node6 -->
<g id="edge10" class="edge"><title>Node5&#45;&gt;Node6</title>
<path fill="none" stroke="midnightblue" d="M433.749,-90.1097C450.424,-90.9231 468.703,-91.8148 486.417,-92.6789"/>
<polygon fill="midnightblue" stroke="midnightblue" points="433.752,-86.6058 423.594,-89.6143 433.411,-93.5975 433.752,-86.6058"/>
</g>
<!-- Node7 -->
<g id="node13" class="node"><title>Node7</title>
<a xlink:href="class_chara_trait.html#a21787eb972b4fc8779368a78f4430f14" target="_top" xlink:title="CharaTrait::CharaTrait">
<polygon fill="white" stroke="black" points="700.5,-111.5 700.5,-132.5 819.5,-132.5 819.5,-111.5 700.5,-111.5"/>
<text text-anchor="middle" x="760" y="-119.5" font-family="DejaVuSans" font-size="10.00">CharaTrait::CharaTrait</text>
</a>
</g>
<!-- Node6&#45;&gt;Node7 -->
<g id="edge12" class="edge"><title>Node6&#45;&gt;Node7</title>
<path fill="none" stroke="midnightblue" d="M663.042,-108.898C675.715,-110.61 688.499,-112.338 700.442,-113.952"/>
<polygon fill="midnightblue" stroke="midnightblue" points="663.299,-105.401 652.92,-107.53 662.362,-112.338 663.299,-105.401"/>
</g>
<!-- Node9 -->
<g id="node17" class="node"><title>Node9</title>
<a xlink:href="class_check_trait.html#a4ec4f95d6f1ff25331964d85393f0f3f" target="_top" xlink:title="CheckTrait::customText">
<polygon fill="white" stroke="black" points="307,-236.5 307,-257.5 433,-257.5 433,-236.5 307,-236.5"/>
<text text-anchor="middle" x="370" y="-244.5" font-family="DejaVuSans" font-size="10.00">CheckTrait::customText</text>
</a>
</g>
<!-- Node8&#45;&gt;Node9 -->
<g id="edge16" class="edge"><title>Node8&#45;&gt;Node9</title>
<path fill="none" stroke="midnightblue" d="M214.55,-183.564C233.754,-196.977 262.525,-215.475 290,-227 298.845,-230.71 308.54,-233.848 318.035,-236.46"/>
<polygon fill="midnightblue" stroke="midnightblue" points="216.367,-180.562 206.188,-177.621 212.312,-186.267 216.367,-180.562"/>
</g>
<!-- Node11 -->
<g id="node22" class="node"><title>Node11</title>
<a xlink:href="class_chara_trait.html#a7cc9b10030c5e6d5030fb898506ee070" target="_top" xlink:title="CharaTrait::customText">
<polygon fill="white" stroke="black" points="307.5,-156.5 307.5,-177.5 432.5,-177.5 432.5,-156.5 307.5,-156.5"/>
<text text-anchor="middle" x="370" y="-164.5" font-family="DejaVuSans" font-size="10.00">CharaTrait::customText</text>
</a>
</g>
<!-- Node8&#45;&gt;Node11 -->
<g id="edge22" class="edge"><title>Node8&#45;&gt;Node11</title>
<path fill="none" stroke="midnightblue" d="M259.034,-167C274.844,-167 291.64,-167 307.253,-167"/>
<polygon fill="midnightblue" stroke="midnightblue" points="258.81,-163.5 248.81,-167 258.81,-170.5 258.81,-163.5"/>
</g>
<!-- Node13 -->
<g id="node27" class="node"><title>Node13</title>
<a xlink:href="class_storage_character.html#aabaae6015f75abfc6411f5a388418a3b" target="_top" xlink:title="StorageCharacter::modifyTrait">
<polygon fill="white" stroke="black" points="290,-196.5 290,-217.5 450,-217.5 450,-196.5 290,-196.5"/>
<text text-anchor="middle" x="370" y="-204.5" font-family="DejaVuSans" font-size="10.00">StorageCharacter::modifyTrait</text>
</a>
</g>
<!-- Node8&#45;&gt;Node13 -->
<g id="edge28" class="edge"><title>Node8&#45;&gt;Node13</title>
<path fill="none" stroke="midnightblue" d="M248.81,-179.766C272.817,-185.161 300.434,-191.367 323.236,-196.491"/>
<polygon fill="midnightblue" stroke="midnightblue" points="249.291,-176.287 238.767,-177.51 247.757,-183.117 249.291,-176.287"/>
</g>
<!-- Node8&#45;&gt;Node14 -->
<g id="edge30" class="edge"><title>Node8&#45;&gt;Node14</title>
<path fill="none" stroke="midnightblue" d="M248.665,-154.266C278.558,-147.549 314.082,-139.566 338.941,-133.98"/>
<polygon fill="midnightblue" stroke="midnightblue" points="247.757,-150.883 238.767,-156.49 249.291,-157.713 247.757,-150.883"/>
</g>
<!-- Node10 -->
<g id="node19" class="node"><title>Node10</title>
<a xlink:href="class_check_trait.html#a70a2f81f0fc8e246b3296583ec853b4a" target="_top" xlink:title="CheckTrait::setCustomText">
<polygon fill="white" stroke="black" points="503.5,-235.5 503.5,-256.5 646.5,-256.5 646.5,-235.5 503.5,-235.5"/>
<text text-anchor="middle" x="575" y="-243.5" font-family="DejaVuSans" font-size="10.00">CheckTrait::setCustomText</text>
</a>
</g>
<!-- Node9&#45;&gt;Node10 -->
<g id="edge18" class="edge"><title>Node9&#45;&gt;Node10</title>
<path fill="none" stroke="midnightblue" d="M443.256,-246.643C462.829,-246.547 483.954,-246.444 503.435,-246.349"/>
<polygon fill="midnightblue" stroke="midnightblue" points="443.162,-243.143 433.179,-246.692 443.196,-250.143 443.162,-243.143"/>
</g>
<!-- Node10&#45;&gt;Node4 -->
<g id="edge20" class="edge"><title>Node10&#45;&gt;Node4</title>
<path fill="none" stroke="midnightblue" d="M656.515,-254.812C671.055,-256.384 685.961,-257.996 699.771,-259.489"/>
<polygon fill="midnightblue" stroke="midnightblue" points="656.844,-251.328 646.526,-253.733 656.092,-258.287 656.844,-251.328"/>
</g>
<!-- Node12 -->
<g id="node24" class="node"><title>Node12</title>
<a xlink:href="class_chara_trait.html#ace22816278072df97eb782603153600b" target="_top" xlink:title="CharaTrait::setCustomText">
<polygon fill="white" stroke="black" points="504,-136.5 504,-157.5 646,-157.5 646,-136.5 504,-136.5"/>
<text text-anchor="middle" x="575" y="-144.5" font-family="DejaVuSans" font-size="10.00">CharaTrait::setCustomText</text>
</a>
</g>
<!-- Node11&#45;&gt;Node12 -->
<g id="edge24" class="edge"><title>Node11&#45;&gt;Node12</title>
<path fill="none" stroke="midnightblue" d="M442.819,-159.896C462.636,-157.962 484.073,-155.871 503.8,-153.946"/>
<polygon fill="midnightblue" stroke="midnightblue" points="442.234,-156.436 432.621,-160.891 442.913,-163.403 442.234,-156.436"/>
</g>
<!-- Node12&#45;&gt;Node7 -->
<g id="edge26" class="edge"><title>Node12&#45;&gt;Node7</title>
<path fill="none" stroke="midnightblue" d="M656.438,-135.995C671.253,-133.993 686.453,-131.939 700.486,-130.042"/>
<polygon fill="midnightblue" stroke="midnightblue" points="655.702,-132.562 646.261,-137.37 656.64,-139.499 655.702,-132.562"/>
</g>
</g>
</svg>
