<?xml version="1.0" encoding="UTF-8" standalone="no"?>
<!DOCTYPE svg PUBLIC "-//W3C//DTD SVG 1.1//EN"
 "http://www.w3.org/Graphics/SVG/1.1/DTD/svg11.dtd">
<!-- Generated by graphviz version 2.26.3 (20100126.1600)
 -->
<!-- Title: G Pages: 1 -->
<svg width="336pt" height="146pt"
 viewBox="0.00 0.00 336.00 146.00" xmlns="http://www.w3.org/2000/svg" xmlns:xlink="http://www.w3.org/1999/xlink">
<g id="graph1" class="graph" transform="scale(1 1) rotate(0) translate(4 142)">
<title>G</title>
<polygon fill="white" stroke="white" points="-4,5 -4,-142 333,-142 333,5 -4,5"/>
<!-- Node1 -->
<g id="node1" class="node"><title>Node1</title>
<polygon fill="#bfbfbf" stroke="black" points="140,-58.5 140,-79.5 184,-79.5 184,-58.5 140,-58.5"/>
<text text-anchor="middle" x="162" y="-66.5" font-family="DejaVuSans" font-size="10.00">ePrint</text>
</g>
<!-- Node3 -->
<g id="node5" class="node"><title>Node3</title>
<a xlink:href="classe_traits_exceed_sheet_capacity.html" target="_top" xlink:title="Ausnahme, falls zu viele Eigenschaften gedruckt werden sollen.">
<polygon fill="white" stroke="black" points="0,-0.5 0,-21.5 152,-21.5 152,-0.5 0,-0.5"/>
<text text-anchor="middle" x="76" y="-8.5" font-family="DejaVuSans" font-size="10.00">eTraitsExceedSheetCapacity</text>
</a>
</g>
<!-- Node1&#45;&gt;Node3 -->
<g id="edge4" class="edge"><title>Node1&#45;&gt;Node3</title>
<path fill="none" stroke="midnightblue" d="M137.595,-52.5407C122.851,-42.5973 104.495,-30.2177 91.6737,-21.5707"/>
<polygon fill="midnightblue" stroke="midnightblue" points="135.979,-55.6722 146.226,-58.3619 139.893,-49.8687 135.979,-55.6722"/>
</g>
<!-- Node4 -->
<g id="node7" class="node"><title>Node4</title>
<a xlink:href="classe_value_exceeds_sheet_capacity.html" target="_top" xlink:title="Ausnahme, falls ein zu großer Wert auf den Charakterbogen gedruckt werden soll.">
<polygon fill="white" stroke="black" points="170,-0.5 170,-21.5 328,-21.5 328,-0.5 170,-0.5"/>
<text text-anchor="middle" x="249" y="-8.5" font-family="DejaVuSans" font-size="10.00">eValueExceedsSheetCapacity</text>
</a>
</g>
<!-- Node1&#45;&gt;Node4 -->
<g id="edge6" class="edge"><title>Node1&#45;&gt;Node4</title>
<path fill="none" stroke="midnightblue" d="M186.689,-52.5407C201.604,-42.5973 220.173,-30.2177 233.144,-21.5707"/>
<polygon fill="midnightblue" stroke="midnightblue" points="184.336,-49.9027 177.957,-58.3619 188.219,-55.727 184.336,-49.9027"/>
</g>
<!-- Node2 -->
<g id="node2" class="node"><title>Node2</title>
<a xlink:href="class_exception.html" target="_top" xlink:title="Basisklasse für die Ausnahmebehandlung.">
<polygon fill="white" stroke="black" points="130.5,-116.5 130.5,-137.5 193.5,-137.5 193.5,-116.5 130.5,-116.5"/>
<text text-anchor="middle" x="162" y="-124.5" font-family="DejaVuSans" font-size="10.00">Exception</text>
</a>
</g>
<!-- Node2&#45;&gt;Node1 -->
<g id="edge2" class="edge"><title>Node2&#45;&gt;Node1</title>
<path fill="none" stroke="midnightblue" d="M162,-106.191C162,-97.1684 162,-86.9941 162,-79.5707"/>
<polygon fill="midnightblue" stroke="midnightblue" points="158.5,-106.362 162,-116.362 165.5,-106.362 158.5,-106.362"/>
</g>
</g>
</svg>
