<?xml version="1.0" encoding="UTF-8" standalone="no"?>
<!DOCTYPE svg PUBLIC "-//W3C//DTD SVG 1.1//EN"
 "http://www.w3.org/Graphics/SVG/1.1/DTD/svg11.dtd">
<!-- Generated by graphviz version 2.26.3 (20100126.1600)
 -->
<!-- Title: G Pages: 1 -->
<svg width="694pt" height="30pt"
 viewBox="0.00 0.00 694.00 30.00" xmlns="http://www.w3.org/2000/svg" xmlns:xlink="http://www.w3.org/1999/xlink">
<g id="graph1" class="graph" transform="scale(1 1) rotate(0) translate(4 26)">
<title>G</title>
<polygon fill="white" stroke="white" points="-4,5 -4,-26 691,-26 691,5 -4,5"/>
<!-- Node1 -->
<g id="node1" class="node"><title>Node1</title>
<polygon fill="#bfbfbf" stroke="black" points="0,-0.5 0,-21.5 166,-21.5 166,-0.5 0,-0.5"/>
<text text-anchor="middle" x="83" y="-8.5" font-family="DejaVuSans" font-size="10.00">StorageTemplate::virtueNames</text>
</g>
<!-- Node2 -->
<g id="node3" class="node"><title>Node2</title>
<a xlink:href="class_storage_template.html#aa1c01bbdf076afcacd1e785d2a4d6573" target="_top" xlink:title="StorageTemplate::traitNames">
<polygon fill="white" stroke="black" points="202,-0.5 202,-21.5 360,-21.5 360,-0.5 202,-0.5"/>
<text text-anchor="middle" x="281" y="-8.5" font-family="DejaVuSans" font-size="10.00">StorageTemplate::traitNames</text>
</a>
</g>
<!-- Node1&#45;&gt;Node2 -->
<g id="edge2" class="edge"><title>Node1&#45;&gt;Node2</title>
<path fill="none" stroke="midnightblue" d="M166.109,-11C174.629,-11 183.309,-11 191.889,-11"/>
<polygon fill="midnightblue" stroke="midnightblue" points="191.9,-14.5001 201.9,-11 191.9,-7.5001 191.9,-14.5001"/>
</g>
<!-- Node3 -->
<g id="node5" class="node"><title>Node3</title>
<a xlink:href="class_storage_template.html#a27993db72787b37c8d45102019abf850" target="_top" xlink:title="StorageTemplate::traits">
<polygon fill="white" stroke="black" points="396.5,-0.5 396.5,-21.5 525.5,-21.5 525.5,-0.5 396.5,-0.5"/>
<text text-anchor="middle" x="461" y="-8.5" font-family="DejaVuSans" font-size="10.00">StorageTemplate::traits</text>
</a>
</g>
<!-- Node2&#45;&gt;Node3 -->
<g id="edge4" class="edge"><title>Node2&#45;&gt;Node3</title>
<path fill="none" stroke="midnightblue" d="M360.213,-11C368.89,-11 377.703,-11 386.323,-11"/>
<polygon fill="midnightblue" stroke="midnightblue" points="386.334,-14.5001 396.334,-11 386.334,-7.5001 386.334,-14.5001"/>
</g>
<!-- Node4 -->
<g id="node7" class="node"><title>Node4</title>
<a xlink:href="class_storage_template.html#aceb757eb50e7326356f589179d78ee89" target="_top" xlink:title="StorageTemplate::trait">
<polygon fill="white" stroke="black" points="562,-0.5 562,-21.5 686,-21.5 686,-0.5 562,-0.5"/>
<text text-anchor="middle" x="624" y="-8.5" font-family="DejaVuSans" font-size="10.00">StorageTemplate::trait</text>
</a>
</g>
<!-- Node3&#45;&gt;Node4 -->
<g id="edge6" class="edge"><title>Node3&#45;&gt;Node4</title>
<path fill="none" stroke="midnightblue" d="M525.89,-11C534.441,-11 543.246,-11 551.908,-11"/>
<polygon fill="midnightblue" stroke="midnightblue" points="551.986,-14.5001 561.986,-11 551.986,-7.5001 551.986,-14.5001"/>
</g>
</g>
</svg>
