<?xml version="1.0" encoding="UTF-8" standalone="no"?>
<!DOCTYPE svg PUBLIC "-//W3C//DTD SVG 1.1//EN"
 "http://www.w3.org/Graphics/SVG/1.1/DTD/svg11.dtd">
<!-- Generated by graphviz version 2.26.3 (20100126.1600)
 -->
<!-- Title: G Pages: 1 -->
<svg width="316pt" height="204pt"
 viewBox="0.00 0.00 316.00 204.00" xmlns="http://www.w3.org/2000/svg" xmlns:xlink="http://www.w3.org/1999/xlink">
<g id="graph1" class="graph" transform="scale(1 1) rotate(0) translate(4 200)">
<title>G</title>
<polygon fill="white" stroke="white" points="-4,5 -4,-200 313,-200 313,5 -4,5"/>
<!-- Node1 -->
<g id="node1" class="node"><title>Node1</title>
<polygon fill="#bfbfbf" stroke="black" points="120.5,-58.5 120.5,-79.5 209.5,-79.5 209.5,-58.5 120.5,-58.5"/>
<text text-anchor="middle" x="165" y="-66.5" font-family="DejaVuSans" font-size="10.00">src.Error.ErrList</text>
</g>
<!-- Node4 -->
<g id="node7" class="node"><title>Node4</title>
<a xlink:href="classsrc_1_1_error_1_1_err_index_exceeds_range.html" target="_top" xlink:title="Index überschreitet Listengröße.">
<polygon fill="white" stroke="black" points="0,-0.5 0,-21.5 168,-21.5 168,-0.5 0,-0.5"/>
<text text-anchor="middle" x="84" y="-8.5" font-family="DejaVuSans" font-size="10.00">src.Error.ErrIndexExceedsRange</text>
</a>
</g>
<!-- Node1&#45;&gt;Node4 -->
<g id="edge6" class="edge"><title>Node1&#45;&gt;Node4</title>
<path fill="none" stroke="midnightblue" d="M141.62,-52.2587C127.802,-42.3641 110.725,-30.1361 98.7625,-21.5707"/>
<polygon fill="midnightblue" stroke="midnightblue" points="139.975,-55.3857 150.143,-58.3619 144.05,-49.6943 139.975,-55.3857"/>
</g>
<!-- Node5 -->
<g id="node9" class="node"><title>Node5</title>
<a xlink:href="classsrc_1_1_error_1_1_err_list_length.html" target="_top" xlink:title="Listenlänge stimmt nicht mit erwartetem Wert überein.">
<polygon fill="white" stroke="black" points="186,-0.5 186,-21.5 308,-21.5 308,-0.5 186,-0.5"/>
<text text-anchor="middle" x="247" y="-8.5" font-family="DejaVuSans" font-size="10.00">src.Error.ErrListLength</text>
</a>
</g>
<!-- Node1&#45;&gt;Node5 -->
<g id="edge8" class="edge"><title>Node1&#45;&gt;Node5</title>
<path fill="none" stroke="midnightblue" d="M188.27,-52.5407C202.328,-42.5973 219.83,-30.2177 232.055,-21.5707"/>
<polygon fill="midnightblue" stroke="midnightblue" points="186.183,-49.7298 180.04,-58.3619 190.225,-55.4447 186.183,-49.7298"/>
</g>
<!-- Node2 -->
<g id="node2" class="node"><title>Node2</title>
<a xlink:href="classsrc_1_1_error_1_1_err.html" target="_top" xlink:title="Basisklasse für die Ausnahmebehandlung.">
<polygon fill="white" stroke="black" points="128.5,-116.5 128.5,-137.5 201.5,-137.5 201.5,-116.5 128.5,-116.5"/>
<text text-anchor="middle" x="165" y="-124.5" font-family="DejaVuSans" font-size="10.00">src.Error.Err</text>
</a>
</g>
<!-- Node2&#45;&gt;Node1 -->
<g id="edge2" class="edge"><title>Node2&#45;&gt;Node1</title>
<path fill="none" stroke="midnightblue" d="M165,-106.191C165,-97.1684 165,-86.9941 165,-79.5707"/>
<polygon fill="midnightblue" stroke="midnightblue" points="161.5,-106.362 165,-116.362 168.5,-106.362 161.5,-106.362"/>
</g>
<!-- Node3 -->
<g id="node4" class="node"><title>Node3</title>
<a xlink:href="class_exception.html" target="_top" xlink:title="Exception">
<polygon fill="white" stroke="black" points="133.5,-174.5 133.5,-195.5 196.5,-195.5 196.5,-174.5 133.5,-174.5"/>
<text text-anchor="middle" x="165" y="-182.5" font-family="DejaVuSans" font-size="10.00">Exception</text>
</a>
</g>
<!-- Node3&#45;&gt;Node2 -->
<g id="edge4" class="edge"><title>Node3&#45;&gt;Node2</title>
<path fill="none" stroke="midnightblue" d="M165,-164.191C165,-155.168 165,-144.994 165,-137.571"/>
<polygon fill="midnightblue" stroke="midnightblue" points="161.5,-164.362 165,-174.362 168.5,-164.362 161.5,-164.362"/>
</g>
</g>
</svg>
