<?xml version="1.0" encoding="UTF-8" standalone="no"?>
<!DOCTYPE svg PUBLIC "-//W3C//DTD SVG 1.1//EN"
 "http://www.w3.org/Graphics/SVG/1.1/DTD/svg11.dtd">
<!-- Generated by graphviz version 2.26.3 (20100126.1600)
 -->
<!-- Title: G Pages: 1 -->
<svg width="230pt" height="70pt"
 viewBox="0.00 0.00 230.00 70.00" xmlns="http://www.w3.org/2000/svg" xmlns:xlink="http://www.w3.org/1999/xlink">
<g id="graph1" class="graph" transform="scale(1 1) rotate(0) translate(4 66)">
<title>G</title>
<polygon fill="white" stroke="white" points="-4,5 -4,-66 227,-66 227,5 -4,5"/>
<!-- Node1 -->
<g id="node1" class="node"><title>Node1</title>
<polygon fill="#bfbfbf" stroke="black" points="0,-20.5 0,-41.5 78,-41.5 78,-20.5 0,-20.5"/>
<text text-anchor="middle" x="39" y="-28.5" font-family="DejaVuSans" font-size="10.00">Trait::setType</text>
</g>
<!-- Node2 -->
<g id="node3" class="node"><title>Node2</title>
<a xlink:href="class_check_trait.html#a4d08c3a079c757e4a0351b04228b7398" target="_top" xlink:title="CheckTrait::setType">
<polygon fill="white" stroke="black" points="114.5,-40.5 114.5,-61.5 221.5,-61.5 221.5,-40.5 114.5,-40.5"/>
<text text-anchor="middle" x="168" y="-48.5" font-family="DejaVuSans" font-size="10.00">CheckTrait::setType</text>
</a>
</g>
<!-- Node1&#45;&gt;Node2 -->
<g id="edge2" class="edge"><title>Node1&#45;&gt;Node2</title>
<path fill="none" stroke="midnightblue" d="M87.9508,-38.5893C96.5693,-39.9255 105.582,-41.3227 114.321,-42.6777"/>
<polygon fill="midnightblue" stroke="midnightblue" points="88.4725,-35.1284 78.0543,-37.0549 87.4,-42.0458 88.4725,-35.1284"/>
</g>
<!-- Node3 -->
<g id="node5" class="node"><title>Node3</title>
<a xlink:href="class_chara_trait.html#aa119a2d69592d27154b05a52dfeb21bd" target="_top" xlink:title="CharaTrait::setType">
<polygon fill="white" stroke="black" points="114.5,-0.5 114.5,-21.5 221.5,-21.5 221.5,-0.5 114.5,-0.5"/>
<text text-anchor="middle" x="168" y="-8.5" font-family="DejaVuSans" font-size="10.00">CharaTrait::setType</text>
</a>
</g>
<!-- Node1&#45;&gt;Node3 -->
<g id="edge4" class="edge"><title>Node1&#45;&gt;Node3</title>
<path fill="none" stroke="midnightblue" d="M87.9508,-23.4107C96.5693,-22.0745 105.582,-20.6773 114.321,-19.3223"/>
<polygon fill="midnightblue" stroke="midnightblue" points="87.4,-19.9542 78.0543,-24.9451 88.4725,-26.8716 87.4,-19.9542"/>
</g>
</g>
</svg>
