<?xml version="1.0" encoding="UTF-8" standalone="no"?>
<!DOCTYPE svg PUBLIC "-//W3C//DTD SVG 1.1//EN"
 "http://www.w3.org/Graphics/SVG/1.1/DTD/svg11.dtd">
<!-- Generated by graphviz version 2.26.3 (20100126.1600)
 -->
<!-- Title: G Pages: 1 -->
<svg width="270pt" height="70pt"
 viewBox="0.00 0.00 270.00 70.00" xmlns="http://www.w3.org/2000/svg" xmlns:xlink="http://www.w3.org/1999/xlink">
<g id="graph1" class="graph" transform="scale(1 1) rotate(0) translate(4 66)">
<title>G</title>
<polygon fill="white" stroke="white" points="-4,5 -4,-66 267,-66 267,5 -4,5"/>
<!-- Node1 -->
<g id="node1" class="node"><title>Node1</title>
<polygon fill="#bfbfbf" stroke="black" points="0.5,-20.5 0.5,-41.5 87.5,-41.5 87.5,-20.5 0.5,-20.5"/>
<text text-anchor="middle" x="44" y="-28.5" font-family="DejaVuSans" font-size="10.00">Config::version</text>
</g>
<!-- Node2 -->
<g id="node3" class="node"><title>Node2</title>
<a xlink:href="class_main_window.html#a8b244be8b7b7db1b08de2a2acb9409db" target="_top" xlink:title="MainWindow::MainWindow">
<polygon fill="white" stroke="black" points="124.5,-40.5 124.5,-61.5 261.5,-61.5 261.5,-40.5 124.5,-40.5"/>
<text text-anchor="middle" x="193" y="-48.5" font-family="DejaVuSans" font-size="10.00">MainWindow::MainWindow</text>
</a>
</g>
<!-- Node1&#45;&gt;Node2 -->
<g id="edge2" class="edge"><title>Node1&#45;&gt;Node2</title>
<path fill="none" stroke="midnightblue" d="M98.0575,-38.256C106.57,-39.3986 115.468,-40.593 124.258,-41.7729"/>
<polygon fill="midnightblue" stroke="midnightblue" points="98.2758,-34.754 87.899,-36.8925 97.3445,-41.6918 98.2758,-34.754"/>
</g>
<!-- Node3 -->
<g id="node5" class="node"><title>Node3</title>
<a xlink:href="class_write_xml_character.html#af657074e346540e71b20ab2ccae3bc9c" target="_top" xlink:title="WriteXmlCharacter::write">
<polygon fill="white" stroke="black" points="126,-0.5 126,-21.5 260,-21.5 260,-0.5 126,-0.5"/>
<text text-anchor="middle" x="193" y="-8.5" font-family="DejaVuSans" font-size="10.00">WriteXmlCharacter::write</text>
</a>
</g>
<!-- Node1&#45;&gt;Node3 -->
<g id="edge4" class="edge"><title>Node1&#45;&gt;Node3</title>
<path fill="none" stroke="midnightblue" d="M97.9393,-23.7598C107.027,-22.54 116.558,-21.2607 125.93,-20.0026"/>
<polygon fill="midnightblue" stroke="midnightblue" points="97.3445,-20.3082 87.899,-25.1075 98.2758,-27.246 97.3445,-20.3082"/>
</g>
</g>
</svg>
