<?xml version="1.0" encoding="UTF-8" standalone="no"?>
<!DOCTYPE svg PUBLIC "-//W3C//DTD SVG 1.1//EN"
 "http://www.w3.org/Graphics/SVG/1.1/DTD/svg11.dtd">
<!-- Generated by graphviz version 2.26.3 (20100126.1600)
 -->
<!-- Title: G Pages: 1 -->
<svg width="402pt" height="546pt"
 viewBox="0.00 0.00 402.00 546.00" xmlns="http://www.w3.org/2000/svg" xmlns:xlink="http://www.w3.org/1999/xlink">
<g id="graph1" class="graph" transform="scale(1 1) rotate(0) translate(4 542)">
<title>G</title>
<polygon fill="white" stroke="white" points="-4,5 -4,-542 399,-542 399,5 -4,5"/>
<!-- Node1 -->
<g id="node1" class="node"><title>Node1</title>
<polygon fill="#bfbfbf" stroke="black" points="0,-260.5 0,-281.5 62,-281.5 62,-260.5 0,-260.5"/>
<text text-anchor="middle" x="31" y="-268.5" font-family="DejaVuSans" font-size="10.00">Trait::Trait</text>
</g>
<!-- Node2 -->
<g id="node3" class="node"><title>Node2</title>
<a xlink:href="classcv___trait.html#a2034742d24b57e2c4e813d3ab7e2083c" target="_top" xlink:title="cv_Trait::age">
<polygon fill="white" stroke="black" points="132,-516.5 132,-537.5 208,-537.5 208,-516.5 132,-516.5"/>
<text text-anchor="middle" x="170" y="-524.5" font-family="DejaVuSans" font-size="10.00">cv_Trait::age</text>
</a>
</g>
<!-- Node1&#45;&gt;Node2 -->
<g id="edge2" class="edge"><title>Node1&#45;&gt;Node2</title>
<path fill="none" stroke="midnightblue" d="M32.7733,-281.722C39.7457,-322.698 66.4463,-468.765 98,-502 104.627,-508.98 113.3,-514.011 122.322,-517.638"/>
<polygon fill="midnightblue" stroke="midnightblue" points="121.184,-520.948 131.778,-520.933 123.486,-514.338 121.184,-520.948"/>
</g>
<!-- Node3 -->
<g id="node5" class="node"><title>Node3</title>
<a xlink:href="classcv___trait.html#af96ea047974ec3f6bb2cd1b0ade7cf13" target="_top" xlink:title="cv_Trait::custom">
<polygon fill="white" stroke="black" points="289,-457.5 289,-478.5 383,-478.5 383,-457.5 289,-457.5"/>
<text text-anchor="middle" x="336" y="-465.5" font-family="DejaVuSans" font-size="10.00">cv_Trait::custom</text>
</a>
</g>
<!-- Node1&#45;&gt;Node3 -->
<g id="edge4" class="edge"><title>Node1&#45;&gt;Node3</title>
<path fill="none" stroke="midnightblue" d="M32.9144,-281.527C39.9915,-319.158 65.932,-445.997 98,-469 156.074,-510.658 244.322,-495.566 295.458,-481.394"/>
<polygon fill="midnightblue" stroke="midnightblue" points="296.534,-484.726 305.17,-478.589 294.592,-478.001 296.534,-484.726"/>
</g>
<!-- Node4 -->
<g id="node7" class="node"><title>Node4</title>
<a xlink:href="classcv___trait.html#adee2adf82138573180ff0d1486974ff6" target="_top" xlink:title="cv_Trait::customText">
<polygon fill="white" stroke="black" points="113.5,-438.5 113.5,-459.5 226.5,-459.5 226.5,-438.5 113.5,-438.5"/>
<text text-anchor="middle" x="170" y="-446.5" font-family="DejaVuSans" font-size="10.00">cv_Trait::customText</text>
</a>
</g>
<!-- Node1&#45;&gt;Node4 -->
<g id="edge6" class="edge"><title>Node1&#45;&gt;Node4</title>
<path fill="none" stroke="midnightblue" d="M32.6492,-281.589C37.4811,-309.09 54.1347,-383.452 98,-424 102.295,-427.97 107.254,-431.315 112.518,-434.131"/>
<polygon fill="midnightblue" stroke="midnightblue" points="111.064,-437.315 121.604,-438.39 114.035,-430.977 111.064,-437.315"/>
</g>
<!-- Node5 -->
<g id="node10" class="node"><title>Node5</title>
<a xlink:href="classcv___trait.html#ab81924fd5e51488a35a63e246830e143" target="_top" xlink:title="cv_Trait::details">
<polygon fill="white" stroke="black" points="291.5,-298.5 291.5,-319.5 380.5,-319.5 380.5,-298.5 291.5,-298.5"/>
<text text-anchor="middle" x="336" y="-306.5" font-family="DejaVuSans" font-size="10.00">cv_Trait::details</text>
</a>
</g>
<!-- Node1&#45;&gt;Node5 -->
<g id="edge10" class="edge"><title>Node1&#45;&gt;Node5</title>
<path fill="none" stroke="midnightblue" d="M33.1373,-281.509C38.7485,-305.992 56.4332,-366.601 98,-391 153.194,-423.398 182.072,-413.465 242,-391 275.712,-378.362 305.282,-347.556 321.871,-327.509"/>
<polygon fill="midnightblue" stroke="midnightblue" points="324.638,-329.653 328.16,-319.661 319.176,-325.276 324.638,-329.653"/>
</g>
<!-- Node6 -->
<g id="node12" class="node"><title>Node6</title>
<a xlink:href="classcv___trait.html#ae3c00932e41ea222aa0080bcd8715406" target="_top" xlink:title="cv_Trait::era">
<polygon fill="white" stroke="black" points="133,-360.5 133,-381.5 207,-381.5 207,-360.5 133,-360.5"/>
<text text-anchor="middle" x="170" y="-368.5" font-family="DejaVuSans" font-size="10.00">cv_Trait::era</text>
</a>
</g>
<!-- Node1&#45;&gt;Node6 -->
<g id="edge12" class="edge"><title>Node1&#45;&gt;Node6</title>
<path fill="none" stroke="midnightblue" d="M36.9348,-281.58C47.1395,-298.789 69.6724,-332.752 98,-351 105.528,-355.849 114.231,-359.538 122.927,-362.338"/>
<polygon fill="midnightblue" stroke="midnightblue" points="122.103,-365.743 132.681,-365.138 124.034,-359.015 122.103,-365.743"/>
</g>
<!-- Node7 -->
<g id="node14" class="node"><title>Node7</title>
<a xlink:href="classcv___trait.html#afbc6b7ce3d7d7be49f456ae6e555ae91" target="_top" xlink:title="cv_Trait::possibleValues">
<polygon fill="white" stroke="black" points="106,-320.5 106,-341.5 234,-341.5 234,-320.5 106,-320.5"/>
<text text-anchor="middle" x="170" y="-328.5" font-family="DejaVuSans" font-size="10.00">cv_Trait::possibleValues</text>
</a>
</g>
<!-- Node1&#45;&gt;Node7 -->
<g id="edge14" class="edge"><title>Node1&#45;&gt;Node7</title>
<path fill="none" stroke="midnightblue" d="M46.0774,-281.603C59.2638,-290.478 79.1952,-302.948 98,-311 103.424,-313.323 109.194,-315.452 115.015,-317.382"/>
<polygon fill="midnightblue" stroke="midnightblue" points="114.22,-320.8 124.808,-320.442 116.308,-314.119 114.22,-320.8"/>
</g>
<!-- Node8 -->
<g id="node16" class="node"><title>Node8</title>
<a xlink:href="classcv___trait.html#a6bc140c1db6f0b138451fb8ab38b0661" target="_top" xlink:title="cv_Trait::prerequisites">
<polygon fill="white" stroke="black" points="110,-280.5 110,-301.5 230,-301.5 230,-280.5 110,-280.5"/>
<text text-anchor="middle" x="170" y="-288.5" font-family="DejaVuSans" font-size="10.00">cv_Trait::prerequisites</text>
</a>
</g>
<!-- Node1&#45;&gt;Node8 -->
<g id="edge16" class="edge"><title>Node1&#45;&gt;Node8</title>
<path fill="none" stroke="midnightblue" d="M62.1943,-275.488C73.4203,-277.104 86.5853,-278.998 99.7848,-280.897"/>
<polygon fill="midnightblue" stroke="midnightblue" points="99.4571,-284.386 109.854,-282.346 100.454,-277.457 99.4571,-284.386"/>
</g>
<!-- Node9 -->
<g id="node18" class="node"><title>Node9</title>
<a xlink:href="classcv___trait.html#a6d097e30d2ea04c5e6eae68e032428a3" target="_top" xlink:title="cv_Trait::setAge">
<polygon fill="white" stroke="black" points="124,-240.5 124,-261.5 216,-261.5 216,-240.5 124,-240.5"/>
<text text-anchor="middle" x="170" y="-248.5" font-family="DejaVuSans" font-size="10.00">cv_Trait::setAge</text>
</a>
</g>
<!-- Node1&#45;&gt;Node9 -->
<g id="edge18" class="edge"><title>Node1&#45;&gt;Node9</title>
<path fill="none" stroke="midnightblue" d="M62.1943,-266.512C77.383,-264.326 96.1214,-261.63 113.692,-259.102"/>
<polygon fill="midnightblue" stroke="midnightblue" points="114.467,-262.526 123.867,-257.638 113.47,-255.598 114.467,-262.526"/>
</g>
<!-- Node10 -->
<g id="node20" class="node"><title>Node10</title>
<a xlink:href="classcv___trait.html#a53165218ab534ea949fa036f91da8bd7" target="_top" xlink:title="cv_Trait::setCustom">
<polygon fill="white" stroke="black" points="115,-200.5 115,-221.5 225,-221.5 225,-200.5 115,-200.5"/>
<text text-anchor="middle" x="170" y="-208.5" font-family="DejaVuSans" font-size="10.00">cv_Trait::setCustom</text>
</a>
</g>
<!-- Node1&#45;&gt;Node10 -->
<g id="edge20" class="edge"><title>Node1&#45;&gt;Node10</title>
<path fill="none" stroke="midnightblue" d="M46.0774,-260.397C59.2638,-251.522 79.1952,-239.052 98,-231 103.424,-228.677 109.194,-226.548 115.015,-224.618"/>
<polygon fill="midnightblue" stroke="midnightblue" points="116.308,-227.881 124.808,-221.558 114.22,-221.2 116.308,-227.881"/>
</g>
<!-- Node11 -->
<g id="node22" class="node"><title>Node11</title>
<a xlink:href="classcv___trait.html#af2625cf5c0ccfb79c13f7a50192a2c27" target="_top" xlink:title="cv_Trait::setCustomText">
<polygon fill="white" stroke="black" points="105.5,-160.5 105.5,-181.5 234.5,-181.5 234.5,-160.5 105.5,-160.5"/>
<text text-anchor="middle" x="170" y="-168.5" font-family="DejaVuSans" font-size="10.00">cv_Trait::setCustomText</text>
</a>
</g>
<!-- Node1&#45;&gt;Node11 -->
<g id="edge22" class="edge"><title>Node1&#45;&gt;Node11</title>
<path fill="none" stroke="midnightblue" d="M36.9348,-260.42C47.1395,-243.211 69.6724,-209.248 98,-191 101.129,-188.985 104.46,-187.17 107.91,-185.536"/>
<polygon fill="midnightblue" stroke="midnightblue" points="109.389,-188.711 117.26,-181.619 106.684,-182.255 109.389,-188.711"/>
</g>
<!-- Node12 -->
<g id="node24" class="node"><title>Node12</title>
<a xlink:href="class_trait.html#a8d2ca547e2dd3189858cbd8aa1c52efd" target="_top" xlink:title="Trait::setDetails">
<polygon fill="white" stroke="black" points="125,-120.5 125,-141.5 215,-141.5 215,-120.5 125,-120.5"/>
<text text-anchor="middle" x="170" y="-128.5" font-family="DejaVuSans" font-size="10.00">Trait::setDetails</text>
</a>
</g>
<!-- Node1&#45;&gt;Node12 -->
<g id="edge24" class="edge"><title>Node1&#45;&gt;Node12</title>
<path fill="none" stroke="midnightblue" d="M33.9339,-260.167C40.8918,-236.58 60.6721,-180.347 98,-151 103.087,-147.001 108.924,-143.801 115.027,-141.241"/>
<polygon fill="midnightblue" stroke="midnightblue" points="116.551,-144.411 124.765,-137.72 114.171,-137.828 116.551,-144.411"/>
</g>
<!-- Node14 -->
<g id="node29" class="node"><title>Node14</title>
<a xlink:href="classcv___trait.html#aa3b34c0a07817c322655e54ae4a7ce7f" target="_top" xlink:title="cv_Trait::setEra">
<polygon fill="white" stroke="black" points="125.5,-80.5 125.5,-101.5 214.5,-101.5 214.5,-80.5 125.5,-80.5"/>
<text text-anchor="middle" x="170" y="-88.5" font-family="DejaVuSans" font-size="10.00">cv_Trait::setEra</text>
</a>
</g>
<!-- Node1&#45;&gt;Node14 -->
<g id="edge30" class="edge"><title>Node1&#45;&gt;Node14</title>
<path fill="none" stroke="midnightblue" d="M32.285,-260.19C36.2937,-231.394 51.2406,-152.226 98,-111 103.165,-106.446 109.284,-102.921 115.738,-100.193"/>
<polygon fill="midnightblue" stroke="midnightblue" points="117.132,-103.412 125.363,-96.7413 114.768,-96.8229 117.132,-103.412"/>
</g>
<!-- Node15 -->
<g id="node31" class="node"><title>Node15</title>
<a xlink:href="classcv___trait.html#a20b4e99f8419eefacf3dd013c2257136" target="_top" xlink:title="cv_Trait::setPossibleValues">
<polygon fill="white" stroke="black" points="98.5,-40.5 98.5,-61.5 241.5,-61.5 241.5,-40.5 98.5,-40.5"/>
<text text-anchor="middle" x="170" y="-48.5" font-family="DejaVuSans" font-size="10.00">cv_Trait::setPossibleValues</text>
</a>
</g>
<!-- Node1&#45;&gt;Node15 -->
<g id="edge32" class="edge"><title>Node1&#45;&gt;Node15</title>
<path fill="none" stroke="midnightblue" d="M33.1846,-260.393C41.0782,-223.037 69.1807,-98.3501 98,-71 99.6439,-69.44 101.399,-67.9997 103.241,-66.6701"/>
<polygon fill="midnightblue" stroke="midnightblue" points="105.044,-69.6702 111.815,-61.5215 101.44,-63.6691 105.044,-69.6702"/>
</g>
<!-- Node16 -->
<g id="node33" class="node"><title>Node16</title>
<a xlink:href="classcv___trait.html#a0b99115c2818972e82ac1f58b2489e81" target="_top" xlink:title="cv_Trait::setPrerequisites">
<polygon fill="white" stroke="black" points="102.5,-0.5 102.5,-21.5 237.5,-21.5 237.5,-0.5 102.5,-0.5"/>
<text text-anchor="middle" x="170" y="-8.5" font-family="DejaVuSans" font-size="10.00">cv_Trait::setPrerequisites</text>
</a>
</g>
<!-- Node1&#45;&gt;Node16 -->
<g id="edge34" class="edge"><title>Node1&#45;&gt;Node16</title>
<path fill="none" stroke="midnightblue" d="M32.5611,-260.379C38.9343,-218.4 64.2535,-64.703 98,-31 99.2937,-29.7079 100.663,-28.4975 102.096,-27.3637"/>
<polygon fill="midnightblue" stroke="midnightblue" points="104.41,-30.0362 110.913,-21.6718 100.613,-24.1553 104.41,-30.0362"/>
</g>
<!-- Node4&#45;&gt;Node3 -->
<g id="edge8" class="edge"><title>Node4&#45;&gt;Node3</title>
<path fill="none" stroke="midnightblue" d="M226.663,-455.486C243.464,-457.409 261.871,-459.515 278.711,-461.443"/>
<polygon fill="midnightblue" stroke="midnightblue" points="278.632,-464.957 288.965,-462.616 279.428,-458.002 278.632,-464.957"/>
</g>
<!-- Node12&#45;&gt;Node5 -->
<g id="edge26" class="edge"><title>Node12&#45;&gt;Node5</title>
<path fill="none" stroke="midnightblue" d="M215.112,-137.879C224.638,-140.818 234.166,-145.013 242,-151 289.37,-187.2 317.656,-254.688 329.49,-288.535"/>
<polygon fill="midnightblue" stroke="midnightblue" points="326.254,-289.895 332.757,-298.26 332.89,-287.666 326.254,-289.895"/>
</g>
<!-- Node13 -->
<g id="node27" class="node"><title>Node13</title>
<a xlink:href="class_trait.html#ac5a2dc044e1ea5691273c8cd8636afc9" target="_top" xlink:title="Trait::detailsChanged">
<polygon fill="white" stroke="black" points="278,-120.5 278,-141.5 394,-141.5 394,-120.5 278,-120.5"/>
<text text-anchor="middle" x="336" y="-128.5" font-family="DejaVuSans" font-size="10.00">Trait::detailsChanged</text>
</a>
</g>
<!-- Node12&#45;&gt;Node13 -->
<g id="edge28" class="edge"><title>Node12&#45;&gt;Node13</title>
<path fill="none" stroke="midnightblue" d="M215.36,-131C231.49,-131 250.025,-131 267.65,-131"/>
<polygon fill="midnightblue" stroke="midnightblue" points="267.898,-134.5 277.898,-131 267.898,-127.5 267.898,-134.5"/>
</g>
</g>
</svg>
