<?xml version="1.0" encoding="UTF-8" standalone="no"?>
<!DOCTYPE svg PUBLIC "-//W3C//DTD SVG 1.1//EN"
 "http://www.w3.org/Graphics/SVG/1.1/DTD/svg11.dtd">
<!-- Generated by graphviz version 2.26.3 (20100126.1600)
 -->
<!-- Title: G Pages: 1 -->
<svg width="496pt" height="30pt"
 viewBox="0.00 0.00 496.00 30.00" xmlns="http://www.w3.org/2000/svg" xmlns:xlink="http://www.w3.org/1999/xlink">
<g id="graph1" class="graph" transform="scale(1 1) rotate(0) translate(4 26)">
<title>G</title>
<polygon fill="white" stroke="white" points="-4,5 -4,-26 493,-26 493,5 -4,5"/>
<!-- Node1 -->
<g id="node1" class="node"><title>Node1</title>
<polygon fill="#bfbfbf" stroke="black" points="0.5,-0.5 0.5,-21.5 119.5,-21.5 119.5,-0.5 0.5,-0.5"/>
<text text-anchor="middle" x="60" y="-8.5" font-family="DejaVuSans" font-size="10.00">CharaTrait::CharaTrait</text>
</g>
<!-- Node2 -->
<g id="node3" class="node"><title>Node2</title>
<a xlink:href="class_trait_line.html#a928e4906892bb23afce954034542373d" target="_top" xlink:title="TraitLine::setPossibleValues">
<polygon fill="white" stroke="black" points="156.5,-0.5 156.5,-21.5 303.5,-21.5 303.5,-0.5 156.5,-0.5"/>
<text text-anchor="middle" x="230" y="-8.5" font-family="DejaVuSans" font-size="10.00">TraitLine::setPossibleValues</text>
</a>
</g>
<!-- Node1&#45;&gt;Node2 -->
<g id="edge2" class="edge"><title>Node1&#45;&gt;Node2</title>
<path fill="none" stroke="midnightblue" d="M119.936,-11C128.479,-11 137.393,-11 146.288,-11"/>
<polygon fill="midnightblue" stroke="midnightblue" points="146.302,-14.5001 156.302,-11 146.302,-7.5001 146.302,-14.5001"/>
</g>
<!-- Node3 -->
<g id="node5" class="node"><title>Node3</title>
<a xlink:href="class_trait_dots.html#a5ea410276a2001288a6eaa25ee242bac" target="_top" xlink:title="TraitDots::setAllowedValues">
<polygon fill="white" stroke="black" points="340.5,-0.5 340.5,-21.5 487.5,-21.5 487.5,-0.5 340.5,-0.5"/>
<text text-anchor="middle" x="414" y="-8.5" font-family="DejaVuSans" font-size="10.00">TraitDots::setAllowedValues</text>
</a>
</g>
<!-- Node2&#45;&gt;Node3 -->
<g id="edge4" class="edge"><title>Node2&#45;&gt;Node3</title>
<path fill="none" stroke="midnightblue" d="M303.515,-11C312.315,-11 321.351,-11 330.281,-11"/>
<polygon fill="midnightblue" stroke="midnightblue" points="330.302,-14.5001 340.302,-11 330.302,-7.5001 330.302,-14.5001"/>
</g>
</g>
</svg>
