<?xml version="1.0" encoding="UTF-8" standalone="no"?>
<!DOCTYPE svg PUBLIC "-//W3C//DTD SVG 1.1//EN"
 "http://www.w3.org/Graphics/SVG/1.1/DTD/svg11.dtd">
<!-- Generated by graphviz version 2.26.3 (20100126.1600)
 -->
<!-- Title: G Pages: 1 -->
<svg width="568pt" height="110pt"
 viewBox="0.00 0.00 568.00 110.00" xmlns="http://www.w3.org/2000/svg" xmlns:xlink="http://www.w3.org/1999/xlink">
<g id="graph1" class="graph" transform="scale(1 1) rotate(0) translate(4 106)">
<title>G</title>
<polygon fill="white" stroke="white" points="-4,5 -4,-106 565,-106 565,5 -4,5"/>
<!-- Node1 -->
<g id="node1" class="node"><title>Node1</title>
<polygon fill="#bfbfbf" stroke="black" points="0,-59.5 0,-80.5 136,-80.5 136,-59.5 0,-59.5"/>
<text text-anchor="middle" x="68" y="-67.5" font-family="DejaVuSans" font-size="10.00">ReadTemplate::readTraits</text>
</g>
<!-- Node2 -->
<g id="node3" class="node"><title>Node2</title>
<a xlink:href="class_read_template.html#a7421603688e1dedca296c0ed3888a4bc" target="_top" xlink:title="ReadTemplate::readUnknownElement">
<polygon fill="white" stroke="black" points="366,-80.5 366,-101.5 560,-101.5 560,-80.5 366,-80.5"/>
<text text-anchor="middle" x="463" y="-88.5" font-family="DejaVuSans" font-size="10.00">ReadTemplate::readUnknownElement</text>
</a>
</g>
<!-- Node1&#45;&gt;Node2 -->
<g id="edge2" class="edge"><title>Node1&#45;&gt;Node2</title>
<path fill="none" stroke="midnightblue" d="M136.353,-73.6339C196.754,-76.8452 285.854,-81.5821 355.746,-85.2979"/>
<polygon fill="midnightblue" stroke="midnightblue" points="355.741,-88.8025 365.913,-85.8384 356.113,-81.8123 355.741,-88.8025"/>
</g>
<!-- Node3 -->
<g id="node5" class="node"><title>Node3</title>
<a xlink:href="class_read_template.html#ac35b7e479a713187f491bbc01b95c69f" target="_top" xlink:title="ReadTemplate::storeTraitData">
<polygon fill="white" stroke="black" points="172.5,-40.5 172.5,-61.5 329.5,-61.5 329.5,-40.5 172.5,-40.5"/>
<text text-anchor="middle" x="251" y="-48.5" font-family="DejaVuSans" font-size="10.00">ReadTemplate::storeTraitData</text>
</a>
</g>
<!-- Node1&#45;&gt;Node3 -->
<g id="edge4" class="edge"><title>Node1&#45;&gt;Node3</title>
<path fill="none" stroke="midnightblue" d="M136.142,-62.9251C144.615,-62.0454 153.374,-61.136 162.101,-60.2299"/>
<polygon fill="midnightblue" stroke="midnightblue" points="162.728,-63.6838 172.313,-59.1697 162.005,-56.7212 162.728,-63.6838"/>
</g>
<!-- Node3&#45;&gt;Node2 -->
<g id="edge6" class="edge"><title>Node3&#45;&gt;Node2</title>
<path fill="none" stroke="midnightblue" d="M306.701,-61.5095C334.465,-66.7481 368.223,-73.1175 397.251,-78.5945"/>
<polygon fill="midnightblue" stroke="midnightblue" points="396.828,-82.0764 407.304,-80.4913 398.126,-75.1978 396.828,-82.0764"/>
</g>
<!-- Node4 -->
<g id="node8" class="node"><title>Node4</title>
<a xlink:href="classcv___trait.html#a776af93d2332bdaa4631e22e6bdb7ace" target="_top" xlink:title="cv_Trait::toAge">
<polygon fill="white" stroke="black" points="420,-40.5 420,-61.5 506,-61.5 506,-40.5 420,-40.5"/>
<text text-anchor="middle" x="463" y="-48.5" font-family="DejaVuSans" font-size="10.00">cv_Trait::toAge</text>
</a>
</g>
<!-- Node3&#45;&gt;Node4 -->
<g id="edge8" class="edge"><title>Node3&#45;&gt;Node4</title>
<path fill="none" stroke="midnightblue" d="M329.64,-51C356.345,-51 385.537,-51 409.782,-51"/>
<polygon fill="midnightblue" stroke="midnightblue" points="409.849,-54.5001 419.849,-51 409.849,-47.5001 409.849,-54.5001"/>
</g>
<!-- Node5 -->
<g id="node10" class="node"><title>Node5</title>
<a xlink:href="classcv___trait.html#a5a4e945a0525b67b5a5154cfff9fb96f" target="_top" xlink:title="cv_Trait::toEra">
<polygon fill="white" stroke="black" points="421.5,-0.5 421.5,-21.5 504.5,-21.5 504.5,-0.5 421.5,-0.5"/>
<text text-anchor="middle" x="463" y="-8.5" font-family="DejaVuSans" font-size="10.00">cv_Trait::toEra</text>
</a>
</g>
<!-- Node3&#45;&gt;Node5 -->
<g id="edge10" class="edge"><title>Node3&#45;&gt;Node5</title>
<path fill="none" stroke="midnightblue" d="M306.701,-40.4905C339.135,-34.3707 379.75,-26.7076 411.448,-20.7269"/>
<polygon fill="midnightblue" stroke="midnightblue" points="412.226,-24.1418 421.404,-18.8483 410.929,-17.2631 412.226,-24.1418"/>
</g>
</g>
</svg>
