<?xml version="1.0" encoding="UTF-8" standalone="no"?>
<!DOCTYPE svg PUBLIC "-//W3C//DTD SVG 1.1//EN"
 "http://www.w3.org/Graphics/SVG/1.1/DTD/svg11.dtd">
<!-- Generated by graphviz version 2.26.3 (20100126.1600)
 -->
<!-- Title: G Pages: 1 -->
<svg width="508pt" height="188pt"
 viewBox="0.00 0.00 508.00 188.00" xmlns="http://www.w3.org/2000/svg" xmlns:xlink="http://www.w3.org/1999/xlink">
<g id="graph1" class="graph" transform="scale(1 1) rotate(0) translate(4 184)">
<title>G</title>
<polygon fill="white" stroke="white" points="-4,5 -4,-184 505,-184 505,5 -4,5"/>
<!-- Node1 -->
<g id="node1" class="node"><title>Node1</title>
<polygon fill="#bfbfbf" stroke="black" points="0.5,-80.5 0.5,-101.5 129.5,-101.5 129.5,-80.5 0.5,-80.5"/>
<text text-anchor="middle" x="65" y="-88.5" font-family="DejaVuSans" font-size="10.00">CharaTrait::setCategory</text>
</g>
<!-- Node2 -->
<g id="node3" class="node"><title>Node2</title>
<a xlink:href="class_chara_trait.html#a1fe9b2316d8daebdf80ddad832ef818a" target="_top" xlink:title="CharaTrait::category">
<polygon fill="white" stroke="black" points="188.5,-158.5 188.5,-179.5 301.5,-179.5 301.5,-158.5 188.5,-158.5"/>
<text text-anchor="middle" x="245" y="-166.5" font-family="DejaVuSans" font-size="10.00">CharaTrait::category</text>
</a>
</g>
<!-- Node1&#45;&gt;Node2 -->
<g id="edge2" class="edge"><title>Node1&#45;&gt;Node2</title>
<path fill="none" stroke="midnightblue" d="M82.7807,-101.565C102.601,-113.047 135.841,-131.431 166,-144 175.861,-148.11 186.65,-151.939 196.997,-155.305"/>
<polygon fill="midnightblue" stroke="midnightblue" points="196.148,-158.707 206.738,-158.383 198.258,-152.032 196.148,-158.707"/>
</g>
<!-- Node3 -->
<g id="node5" class="node"><title>Node3</title>
<a xlink:href="classcv___abstract_trait.html#a0735a751e8ce6edb85957bcfb2a723f7" target="_top" xlink:title="cv_AbstractTrait::category">
<polygon fill="white" stroke="black" points="360,-138.5 360,-159.5 500,-159.5 500,-138.5 360,-138.5"/>
<text text-anchor="middle" x="430" y="-146.5" font-family="DejaVuSans" font-size="10.00">cv_AbstractTrait::category</text>
</a>
</g>
<!-- Node1&#45;&gt;Node3 -->
<g id="edge6" class="edge"><title>Node1&#45;&gt;Node3</title>
<path fill="none" stroke="midnightblue" d="M115.508,-101.543C131.612,-104.759 149.525,-108.185 166,-111 227.534,-121.514 297.47,-131.492 349.896,-138.583"/>
<polygon fill="midnightblue" stroke="midnightblue" points="349.429,-142.052 359.807,-139.918 350.363,-135.115 349.429,-142.052"/>
</g>
<!-- Node4 -->
<g id="node8" class="node"><title>Node4</title>
<a xlink:href="classcv___abstract_trait.html#aa032a829044f50688909a58081c130e4" target="_top" xlink:title="cv_AbstractTrait::setCategory">
<polygon fill="white" stroke="black" points="166.5,-80.5 166.5,-101.5 323.5,-101.5 323.5,-80.5 166.5,-80.5"/>
<text text-anchor="middle" x="245" y="-88.5" font-family="DejaVuSans" font-size="10.00">cv_AbstractTrait::setCategory</text>
</a>
</g>
<!-- Node1&#45;&gt;Node4 -->
<g id="edge8" class="edge"><title>Node1&#45;&gt;Node4</title>
<path fill="none" stroke="midnightblue" d="M129.73,-91C138.371,-91 147.35,-91 156.312,-91"/>
<polygon fill="midnightblue" stroke="midnightblue" points="156.404,-94.5001 166.404,-91 156.404,-87.5001 156.404,-94.5001"/>
</g>
<!-- Node5 -->
<g id="node10" class="node"><title>Node5</title>
<a xlink:href="class_chara_trait.html#ab3935a94198f510d3de473a9a72692ac" target="_top" xlink:title="CharaTrait::traitChanged">
<polygon fill="white" stroke="black" points="178.5,-40.5 178.5,-61.5 311.5,-61.5 311.5,-40.5 178.5,-40.5"/>
<text text-anchor="middle" x="245" y="-48.5" font-family="DejaVuSans" font-size="10.00">CharaTrait::traitChanged</text>
</a>
</g>
<!-- Node1&#45;&gt;Node5 -->
<g id="edge10" class="edge"><title>Node1&#45;&gt;Node5</title>
<path fill="none" stroke="midnightblue" d="M112.293,-80.4905C135.455,-75.3434 163.529,-69.1046 187.88,-63.6933"/>
<polygon fill="midnightblue" stroke="midnightblue" points="188.708,-67.0948 197.711,-61.5087 187.19,-60.2614 188.708,-67.0948"/>
</g>
<!-- Node6 -->
<g id="node12" class="node"><title>Node6</title>
<a xlink:href="class_chara_trait.html#ae8854bf878fa9aab4dafc27a943d05b6" target="_top" xlink:title="CharaTrait::traitPtr">
<polygon fill="white" stroke="black" points="193,-0.5 193,-21.5 297,-21.5 297,-0.5 193,-0.5"/>
<text text-anchor="middle" x="245" y="-8.5" font-family="DejaVuSans" font-size="10.00">CharaTrait::traitPtr</text>
</a>
</g>
<!-- Node1&#45;&gt;Node6 -->
<g id="edge12" class="edge"><title>Node1&#45;&gt;Node6</title>
<path fill="none" stroke="midnightblue" d="M79.6833,-80.4194C98.7312,-67.1416 133.392,-44.4798 166,-31 171.835,-28.588 178.036,-26.4092 184.298,-24.4556"/>
<polygon fill="midnightblue" stroke="midnightblue" points="185.533,-27.7408 194.145,-21.5697 183.565,-21.0233 185.533,-27.7408"/>
</g>
<!-- Node2&#45;&gt;Node3 -->
<g id="edge4" class="edge"><title>Node2&#45;&gt;Node3</title>
<path fill="none" stroke="midnightblue" d="M301.511,-162.891C316.735,-161.245 333.499,-159.433 349.75,-157.676"/>
<polygon fill="midnightblue" stroke="midnightblue" points="350.217,-161.146 359.783,-156.591 349.465,-154.186 350.217,-161.146"/>
</g>
</g>
</svg>
