<?xml version="1.0" encoding="UTF-8" standalone="no"?>
<!DOCTYPE svg PUBLIC "-//W3C//DTD SVG 1.1//EN"
 "http://www.w3.org/Graphics/SVG/1.1/DTD/svg11.dtd">
<!-- Generated by graphviz version 2.26.3 (20100126.1600)
 -->
<!-- Title: G Pages: 1 -->
<svg width="534pt" height="49pt"
 viewBox="0.00 0.00 534.00 49.00" xmlns="http://www.w3.org/2000/svg" xmlns:xlink="http://www.w3.org/1999/xlink">
<g id="graph1" class="graph" transform="scale(1 1) rotate(0) translate(4 45)">
<title>G</title>
<polygon fill="white" stroke="white" points="-4,5 -4,-45 531,-45 531,5 -4,5"/>
<!-- Node1 -->
<g id="node1" class="node"><title>Node1</title>
<polygon fill="#bfbfbf" stroke="black" points="0.5,-19.5 0.5,-40.5 155.5,-40.5 155.5,-19.5 0.5,-19.5"/>
<text text-anchor="middle" x="78" y="-27.5" font-family="DejaVuSans" font-size="10.00">CharaTrait::specialtiesClicked</text>
</g>
<!-- Node2 -->
<g id="node3" class="node"><title>Node2</title>
<a xlink:href="class_chara_trait.html#acfe4795a41019f6c92e85e82c0a6ab1a" target="_top" xlink:title="CharaTrait::CharaTrait">
<polygon fill="white" stroke="black" points="406.5,-19.5 406.5,-40.5 525.5,-40.5 525.5,-19.5 406.5,-19.5"/>
<text text-anchor="middle" x="466" y="-27.5" font-family="DejaVuSans" font-size="10.00">CharaTrait::CharaTrait</text>
</a>
</g>
<!-- Node1&#45;&gt;Node2 -->
<g id="edge2" class="edge"><title>Node1&#45;&gt;Node2</title>
<path fill="none" stroke="midnightblue" d="M165.614,-30.8463C174.526,-30.9091 183.444,-30.9625 192,-31 271.11,-31.347 290.89,-31.412 370,-31 381.75,-30.9388 394.31,-30.8355 406.341,-30.7179"/>
<polygon fill="midnightblue" stroke="midnightblue" points="165.598,-27.3462 155.573,-30.7718 165.546,-34.346 165.598,-27.3462"/>
</g>
<!-- Node3 -->
<g id="node5" class="node"><title>Node3</title>
<a xlink:href="class_chara_trait.html#ab04ba68cad00668e6379a9e3fb1e5d8a" target="_top" xlink:title="CharaTrait::emitSpecialtiesClicked">
<polygon fill="white" stroke="black" points="192,-0.5 192,-21.5 370,-21.5 370,-0.5 192,-0.5"/>
<text text-anchor="middle" x="281" y="-8.5" font-family="DejaVuSans" font-size="10.00">CharaTrait::emitSpecialtiesClicked</text>
</a>
</g>
<!-- Node1&#45;&gt;Node3 -->
<g id="edge4" class="edge"><title>Node1&#45;&gt;Node3</title>
<path fill="none" stroke="midnightblue" d="M165.719,-21.7898C174.394,-20.9779 183.205,-20.1532 191.893,-19.34"/>
<polygon fill="midnightblue" stroke="midnightblue" points="165.245,-18.3188 155.615,-22.7356 165.897,-25.2884 165.245,-18.3188"/>
</g>
<!-- Node3&#45;&gt;Node2 -->
<g id="edge6" class="edge"><title>Node3&#45;&gt;Node2</title>
<path fill="none" stroke="midnightblue" d="M380.329,-21.2013C389.241,-22.1166 398.068,-23.0232 406.476,-23.8868"/>
<polygon fill="midnightblue" stroke="midnightblue" points="380.554,-17.7061 370.249,-20.1661 379.839,-24.6695 380.554,-17.7061"/>
</g>
</g>
</svg>
