<?xml version="1.0" encoding="UTF-8" standalone="no"?>
<!DOCTYPE svg PUBLIC "-//W3C//DTD SVG 1.1//EN"
 "http://www.w3.org/Graphics/SVG/1.1/DTD/svg11.dtd">
<!-- Generated by graphviz version 2.26.3 (20100126.1600)
 -->
<!-- Title: G Pages: 1 -->
<svg width="212pt" height="162pt"
 viewBox="0.00 0.00 212.00 162.00" xmlns="http://www.w3.org/2000/svg" xmlns:xlink="http://www.w3.org/1999/xlink">
<g id="graph1" class="graph" transform="scale(1 1) rotate(0) translate(4 158)">
<title>G</title>
<polygon fill="white" stroke="white" points="-4,5 -4,-158 209,-158 209,5 -4,5"/>
<!-- Node1 -->
<g id="node1" class="node"><title>Node1</title>
<polygon fill="#bfbfbf" stroke="black" points="-0.5,-0.5 -0.5,-21.5 202.5,-21.5 202.5,-0.5 -0.5,-0.5"/>
<text text-anchor="middle" x="101" y="-8.5" font-family="DejaVuSans" font-size="10.00">src.Widgets.TraitWidget.AttributeWidget</text>
</g>
<!-- Node2 -->
<g id="node2" class="node"><title>Node2</title>
<a xlink:href="classsrc_1_1_widgets_1_1_trait_widget_1_1_trait_widget.html" target="_top" xlink:title="Grundlage der Widgets für alle Eigenschaften.">
<polygon fill="white" stroke="black" points="10.5,-60.5 10.5,-81.5 191.5,-81.5 191.5,-60.5 10.5,-60.5"/>
<text text-anchor="middle" x="101" y="-68.5" font-family="DejaVuSans" font-size="10.00">src.Widgets.TraitWidget.TraitWidget</text>
</a>
</g>
<!-- Node2&#45;&gt;Node1 -->
<g id="edge2" class="edge"><title>Node2&#45;&gt;Node1</title>
<path fill="none" stroke="midnightblue" d="M101,-50.2312C101,-40.5922 101,-29.5444 101,-21.6339"/>
<polygon fill="midnightblue" stroke="midnightblue" points="97.5001,-50.2732 101,-60.2732 104.5,-50.2732 97.5001,-50.2732"/>
</g>
<!-- Node3 -->
<g id="node4" class="node"><title>Node3</title>
<polygon fill="white" stroke="#bfbfbf" points="40,-132.5 40,-153.5 96,-153.5 96,-132.5 40,-132.5"/>
<text text-anchor="middle" x="68" y="-140.5" font-family="DejaVuSans" font-size="10.00">QWidget</text>
</g>
<!-- Node3&#45;&gt;Node2 -->
<g id="edge4" class="edge"><title>Node3&#45;&gt;Node2</title>
<path fill="none" stroke="midnightblue" d="M77.1545,-123.027C83.2912,-109.637 91.1312,-92.5318 96.1108,-81.6674"/>
<polygon fill="midnightblue" stroke="midnightblue" points="73.8541,-121.827 72.8693,-132.376 80.2176,-124.744 73.8541,-121.827"/>
</g>
<!-- Node4 -->
<g id="node6" class="node"><title>Node4</title>
<polygon fill="white" stroke="#bfbfbf" points="113.5,-132.5 113.5,-153.5 154.5,-153.5 154.5,-132.5 113.5,-132.5"/>
<text text-anchor="middle" x="134" y="-140.5" font-family="DejaVuSans" font-size="10.00">tuple</text>
</g>
<!-- Node4&#45;&gt;Node2 -->
<g id="edge6" class="edge"><title>Node4&#45;&gt;Node2</title>
<path fill="none" stroke="#9a32cd" stroke-dasharray="5,2" d="M124.846,-123.027C118.709,-109.637 110.869,-92.5318 105.889,-81.6674"/>
<polygon fill="#9a32cd" stroke="#9a32cd" points="121.782,-124.744 129.131,-132.376 128.146,-121.827 121.782,-124.744"/>
<text text-anchor="middle" x="162" y="-104.5" font-family="DejaVuSans" font-size="10.00">maxTraitChanged</text>
</g>
</g>
</svg>
