<?xml version="1.0" encoding="UTF-8" standalone="no"?>
<!DOCTYPE svg PUBLIC "-//W3C//DTD SVG 1.1//EN"
 "http://www.w3.org/Graphics/SVG/1.1/DTD/svg11.dtd">
<!-- Generated by graphviz version 2.26.3 (20100126.1600)
 -->
<!-- Title: G Pages: 1 -->
<svg width="660pt" height="188pt"
 viewBox="0.00 0.00 660.00 188.00" xmlns="http://www.w3.org/2000/svg" xmlns:xlink="http://www.w3.org/1999/xlink">
<g id="graph1" class="graph" transform="scale(1 1) rotate(0) translate(4 184)">
<title>G</title>
<polygon fill="white" stroke="white" points="-4,5 -4,-184 657,-184 657,5 -4,5"/>
<!-- Node1 -->
<g id="node1" class="node"><title>Node1</title>
<polygon fill="#bfbfbf" stroke="black" points="0,-78.5 0,-99.5 128,-99.5 128,-78.5 0,-78.5"/>
<text text-anchor="middle" x="64" y="-86.5" font-family="DejaVuSans" font-size="10.00">FlawWidget::FlawWidget</text>
</g>
<!-- Node2 -->
<g id="node3" class="node"><title>Node2</title>
<a xlink:href="class_storage_character.html#a96062a11fe91e1d9826470412fc64449" target="_top" xlink:title="StorageCharacter::addTrait">
<polygon fill="white" stroke="black" points="178,-158.5 178,-179.5 324,-179.5 324,-158.5 178,-158.5"/>
<text text-anchor="middle" x="251" y="-166.5" font-family="DejaVuSans" font-size="10.00">StorageCharacter::addTrait</text>
</a>
</g>
<!-- Node1&#45;&gt;Node2 -->
<g id="edge2" class="edge"><title>Node1&#45;&gt;Node2</title>
<path fill="none" stroke="midnightblue" d="M78.4745,-99.7017C97.2668,-113.107 131.514,-135.904 164,-149 170.181,-151.492 176.74,-153.71 183.376,-155.678"/>
<polygon fill="midnightblue" stroke="midnightblue" points="182.546,-159.08 193.118,-158.383 184.419,-152.335 182.546,-159.08"/>
</g>
<!-- Node3 -->
<g id="node5" class="node"><title>Node3</title>
<a xlink:href="classcv___abstract_trait.html#a2c71206d61498c443d25cab1051a546f" target="_top" xlink:title="cv_AbstractTrait::getCategoryList">
<polygon fill="white" stroke="black" points="164,-118.5 164,-139.5 338,-139.5 338,-118.5 164,-118.5"/>
<text text-anchor="middle" x="251" y="-126.5" font-family="DejaVuSans" font-size="10.00">cv_AbstractTrait::getCategoryList</text>
</a>
</g>
<!-- Node1&#45;&gt;Node3 -->
<g id="edge4" class="edge"><title>Node1&#45;&gt;Node3</title>
<path fill="none" stroke="midnightblue" d="M113.132,-99.5095C137.302,-104.679 166.62,-110.951 191.996,-116.379"/>
<polygon fill="midnightblue" stroke="midnightblue" points="191.361,-119.822 201.872,-118.491 192.825,-112.977 191.361,-119.822"/>
</g>
<!-- Node4 -->
<g id="node7" class="node"><title>Node4</title>
<a xlink:href="class_check_trait.html#a9073e7f8bbac8c351bf829b23a9fc850" target="_top" xlink:title="CheckTrait::setValue">
<polygon fill="white" stroke="black" points="194.5,-78.5 194.5,-99.5 307.5,-99.5 307.5,-78.5 194.5,-78.5"/>
<text text-anchor="middle" x="251" y="-86.5" font-family="DejaVuSans" font-size="10.00">CheckTrait::setValue</text>
</a>
</g>
<!-- Node1&#45;&gt;Node4 -->
<g id="edge6" class="edge"><title>Node1&#45;&gt;Node4</title>
<path fill="none" stroke="midnightblue" d="M128.093,-89C146.292,-89 166.145,-89 184.483,-89"/>
<polygon fill="midnightblue" stroke="midnightblue" points="184.496,-92.5001 194.495,-89 184.495,-85.5001 184.496,-92.5001"/>
</g>
<!-- Node8 -->
<g id="node16" class="node"><title>Node8</title>
<a xlink:href="classcv___abstract_trait.html#add050d72e281131d1591bbf24e87bb15" target="_top" xlink:title="cv_AbstractTrait::toString">
<polygon fill="white" stroke="black" points="374.5,-0.5 374.5,-21.5 511.5,-21.5 511.5,-0.5 374.5,-0.5"/>
<text text-anchor="middle" x="443" y="-8.5" font-family="DejaVuSans" font-size="10.00">cv_AbstractTrait::toString</text>
</a>
</g>
<!-- Node1&#45;&gt;Node8 -->
<g id="edge16" class="edge"><title>Node1&#45;&gt;Node8</title>
<path fill="none" stroke="midnightblue" d="M115.114,-78.4806C184.295,-64.2426 307.583,-38.8694 381.672,-23.6215"/>
<polygon fill="midnightblue" stroke="midnightblue" points="382.7,-26.9834 391.789,-21.5394 381.289,-20.1271 382.7,-26.9834"/>
</g>
<!-- Node9 -->
<g id="node18" class="node"><title>Node9</title>
<a xlink:href="class_storage_template.html#a2c38d76215e4a8651f4bb6eaae03ece2" target="_top" xlink:title="StorageTemplate::traitsPtr">
<polygon fill="white" stroke="black" points="179.5,-0.5 179.5,-21.5 322.5,-21.5 322.5,-0.5 179.5,-0.5"/>
<text text-anchor="middle" x="251" y="-8.5" font-family="DejaVuSans" font-size="10.00">StorageTemplate::traitsPtr</text>
</a>
</g>
<!-- Node1&#45;&gt;Node9 -->
<g id="edge18" class="edge"><title>Node1&#45;&gt;Node9</title>
<path fill="none" stroke="midnightblue" d="M81.1734,-78.4803C100.686,-66.8679 133.753,-48.2069 164,-36 174.708,-31.6785 186.436,-27.7782 197.717,-24.4133"/>
<polygon fill="midnightblue" stroke="midnightblue" points="198.84,-27.732 207.478,-21.597 196.9,-21.0064 198.84,-27.732"/>
</g>
<!-- Node5 -->
<g id="node9" class="node"><title>Node5</title>
<a xlink:href="class_check_trait.html#a6fc70482737108eb58606a8eed553e04" target="_top" xlink:title="CheckTrait::traitChanged">
<polygon fill="white" stroke="black" points="376,-118.5 376,-139.5 510,-139.5 510,-118.5 376,-118.5"/>
<text text-anchor="middle" x="443" y="-126.5" font-family="DejaVuSans" font-size="10.00">CheckTrait::traitChanged</text>
</a>
</g>
<!-- Node4&#45;&gt;Node5 -->
<g id="edge8" class="edge"><title>Node4&#45;&gt;Node5</title>
<path fill="none" stroke="midnightblue" d="M301.446,-99.5095C326.371,-104.702 356.63,-111.006 382.764,-116.451"/>
<polygon fill="midnightblue" stroke="midnightblue" points="382.055,-119.878 392.558,-118.491 383.482,-113.025 382.055,-119.878"/>
</g>
<!-- Node6 -->
<g id="node11" class="node"><title>Node6</title>
<a xlink:href="class_check_trait.html#a85928c20fd7d921c1d9b831168b9964e" target="_top" xlink:title="CheckTrait::traitPtr">
<polygon fill="white" stroke="black" points="548,-59.5 548,-80.5 652,-80.5 652,-59.5 548,-59.5"/>
<text text-anchor="middle" x="600" y="-67.5" font-family="DejaVuSans" font-size="10.00">CheckTrait::traitPtr</text>
</a>
</g>
<!-- Node4&#45;&gt;Node6 -->
<g id="edge10" class="edge"><title>Node4&#45;&gt;Node6</title>
<path fill="none" stroke="midnightblue" d="M307.85,-85.905C370.919,-82.4714 472.37,-76.9483 537.594,-73.3975"/>
<polygon fill="midnightblue" stroke="midnightblue" points="537.944,-76.8837 547.739,-72.8451 537.564,-69.894 537.944,-76.8837"/>
</g>
<!-- Node7 -->
<g id="node13" class="node"><title>Node7</title>
<a xlink:href="class_check_trait.html#a4399a810312044b74f6227955a1879a9" target="_top" xlink:title="CheckTrait::value">
<polygon fill="white" stroke="black" points="394.5,-40.5 394.5,-61.5 491.5,-61.5 491.5,-40.5 394.5,-40.5"/>
<text text-anchor="middle" x="443" y="-48.5" font-family="DejaVuSans" font-size="10.00">CheckTrait::value</text>
</a>
</g>
<!-- Node4&#45;&gt;Node7 -->
<g id="edge12" class="edge"><title>Node4&#45;&gt;Node7</title>
<path fill="none" stroke="midnightblue" d="M304.228,-78.4653C329.113,-73.5401 358.818,-67.6609 384.349,-62.6081"/>
<polygon fill="midnightblue" stroke="midnightblue" points="385.144,-66.0187 394.274,-60.6437 383.785,-59.1519 385.144,-66.0187"/>
</g>
<!-- Node7&#45;&gt;Node6 -->
<g id="edge14" class="edge"><title>Node7&#45;&gt;Node6</title>
<path fill="none" stroke="midnightblue" d="M491.815,-56.9076C506.436,-58.6769 522.667,-60.6412 538.016,-62.4988"/>
<polygon fill="midnightblue" stroke="midnightblue" points="537.601,-65.974 547.95,-63.7009 538.443,-59.0247 537.601,-65.974"/>
</g>
<!-- Node9&#45;&gt;Node8 -->
<g id="edge20" class="edge"><title>Node9&#45;&gt;Node8</title>
<path fill="none" stroke="midnightblue" d="M322.767,-11C336.177,-11 350.263,-11 363.881,-11"/>
<polygon fill="midnightblue" stroke="midnightblue" points="364.185,-14.5001 374.185,-11 364.185,-7.5001 364.185,-14.5001"/>
</g>
</g>
</svg>
