<?xml version="1.0" encoding="UTF-8" standalone="no"?>
<!DOCTYPE svg PUBLIC "-//W3C//DTD SVG 1.1//EN"
 "http://www.w3.org/Graphics/SVG/1.1/DTD/svg11.dtd">
<!-- Generated by graphviz version 2.26.3 (20100126.1600)
 -->
<!-- Title: G Pages: 1 -->
<svg width="384pt" height="70pt"
 viewBox="0.00 0.00 384.00 70.00" xmlns="http://www.w3.org/2000/svg" xmlns:xlink="http://www.w3.org/1999/xlink">
<g id="graph1" class="graph" transform="scale(1 1) rotate(0) translate(4 66)">
<title>G</title>
<polygon fill="white" stroke="white" points="-4,5 -4,-66 381,-66 381,5 -4,5"/>
<!-- Node1 -->
<g id="node1" class="node"><title>Node1</title>
<polygon fill="#bfbfbf" stroke="black" points="0.5,-20.5 0.5,-41.5 177.5,-41.5 177.5,-20.5 0.5,-20.5"/>
<text text-anchor="middle" x="89" y="-28.5" font-family="DejaVuSans" font-size="10.00">CalcAdvantages::CalcAdvantages</text>
</g>
<!-- Node2 -->
<g id="node3" class="node"><title>Node2</title>
<a xlink:href="class_calc_advantages.html#ac91d31d1779333427049169b66ed8ff6" target="_top" xlink:title="CalcAdvantages::sizeChanged">
<polygon fill="white" stroke="black" points="214.5,-40.5 214.5,-61.5 375.5,-61.5 375.5,-40.5 214.5,-40.5"/>
<text text-anchor="middle" x="295" y="-48.5" font-family="DejaVuSans" font-size="10.00">CalcAdvantages::sizeChanged</text>
</a>
</g>
<!-- Node1&#45;&gt;Node2 -->
<g id="edge2" class="edge"><title>Node1&#45;&gt;Node2</title>
<path fill="none" stroke="midnightblue" d="M177.558,-39.5979C186.432,-40.4594 195.452,-41.3351 204.347,-42.1987"/>
<polygon fill="midnightblue" stroke="midnightblue" points="204.031,-45.6844 214.322,-43.1672 204.707,-38.7172 204.031,-45.6844"/>
</g>
<!-- Node3 -->
<g id="node5" class="node"><title>Node3</title>
<a xlink:href="class_storage_character.html#a2db5654b50bd29cc391c05ec220b2e08" target="_top" xlink:title="StorageCharacter::traits">
<polygon fill="white" stroke="black" points="228.5,-0.5 228.5,-21.5 361.5,-21.5 361.5,-0.5 228.5,-0.5"/>
<text text-anchor="middle" x="295" y="-8.5" font-family="DejaVuSans" font-size="10.00">StorageCharacter::traits</text>
</a>
</g>
<!-- Node1&#45;&gt;Node3 -->
<g id="edge4" class="edge"><title>Node1&#45;&gt;Node3</title>
<path fill="none" stroke="midnightblue" d="M177.558,-22.4021C191.114,-21.086 205.011,-19.7368 218.283,-18.4482"/>
<polygon fill="midnightblue" stroke="midnightblue" points="218.681,-21.9262 228.296,-17.4762 218.004,-14.959 218.681,-21.9262"/>
</g>
</g>
</svg>
