<?xml version="1.0" encoding="UTF-8" standalone="no"?>
<!DOCTYPE svg PUBLIC "-//W3C//DTD SVG 1.1//EN"
 "http://www.w3.org/Graphics/SVG/1.1/DTD/svg11.dtd">
<!-- Generated by graphviz version 2.26.3 (20100126.1600)
 -->
<!-- Title: G Pages: 1 -->
<svg width="540pt" height="70pt"
 viewBox="0.00 0.00 540.00 70.00" xmlns="http://www.w3.org/2000/svg" xmlns:xlink="http://www.w3.org/1999/xlink">
<g id="graph1" class="graph" transform="scale(1 1) rotate(0) translate(4 66)">
<title>G</title>
<polygon fill="white" stroke="white" points="-4,5 -4,-66 537,-66 537,5 -4,5"/>
<!-- Node1 -->
<g id="node1" class="node"><title>Node1</title>
<polygon fill="#bfbfbf" stroke="black" points="92.5,-20.5 92.5,-41.5 271.5,-41.5 271.5,-20.5 92.5,-20.5"/>
<text text-anchor="middle" x="182" y="-28.5" font-family="DejaVuSans" font-size="10.00">src.Datatypes.BasicTrait.BasicTrait</text>
</g>
<!-- Node3 -->
<g id="node5" class="node"><title>Node3</title>
<a xlink:href="classsrc_1_1_datatypes_1_1_standard_trait_1_1_standard_trait.html" target="_top" xlink:title="Speichert alle Eigenschaften einer einzigen Charaktereigenschaft.">
<polygon fill="white" stroke="black" points="311.5,-40.5 311.5,-61.5 528.5,-61.5 528.5,-40.5 311.5,-40.5"/>
<text text-anchor="middle" x="420" y="-48.5" font-family="DejaVuSans" font-size="10.00">src.Datatypes.StandardTrait.StandardTrait</text>
</a>
</g>
<!-- Node1&#45;&gt;Node3 -->
<g id="edge4" class="edge"><title>Node1&#45;&gt;Node3</title>
<path fill="none" stroke="midnightblue" d="M281.713,-39.3792C291.453,-40.1977 301.37,-41.0311 311.193,-41.8566"/>
<polygon fill="midnightblue" stroke="midnightblue" points="281.896,-35.8824 271.638,-38.5326 281.31,-42.8578 281.896,-35.8824"/>
</g>
<!-- Node4 -->
<g id="node7" class="node"><title>Node4</title>
<a xlink:href="classsrc_1_1_datatypes_1_1_sub_power_trait_1_1_sub_power_trait.html" target="_top" xlink:title="Speichert alle Eigenschaften einer einzigen Charaktereigenschaft.">
<polygon fill="white" stroke="black" points="308.5,-0.5 308.5,-21.5 531.5,-21.5 531.5,-0.5 308.5,-0.5"/>
<text text-anchor="middle" x="420" y="-8.5" font-family="DejaVuSans" font-size="10.00">src.Datatypes.SubPowerTrait.SubPowerTrait</text>
</a>
</g>
<!-- Node1&#45;&gt;Node4 -->
<g id="edge6" class="edge"><title>Node1&#45;&gt;Node4</title>
<path fill="none" stroke="midnightblue" d="M281.845,-22.6097C290.605,-21.8736 299.507,-21.1255 308.355,-20.382"/>
<polygon fill="midnightblue" stroke="midnightblue" points="281.31,-19.1422 271.638,-23.4674 281.896,-26.1176 281.31,-19.1422"/>
</g>
<!-- Node2 -->
<g id="node2" class="node"><title>Node2</title>
<polygon fill="white" stroke="#bfbfbf" points="0.5,-20.5 0.5,-41.5 55.5,-41.5 55.5,-20.5 0.5,-20.5"/>
<text text-anchor="middle" x="28" y="-28.5" font-family="DejaVuSans" font-size="10.00">QObject</text>
</g>
<!-- Node2&#45;&gt;Node1 -->
<g id="edge2" class="edge"><title>Node2&#45;&gt;Node1</title>
<path fill="none" stroke="midnightblue" d="M65.544,-31C73.8357,-31 82.9638,-31 92.3497,-31"/>
<polygon fill="midnightblue" stroke="midnightblue" points="65.5321,-27.5001 55.5321,-31 65.5321,-34.5001 65.5321,-27.5001"/>
</g>
</g>
</svg>
