<?xml version="1.0" encoding="UTF-8" standalone="no"?>
<!DOCTYPE svg PUBLIC "-//W3C//DTD SVG 1.1//EN"
 "http://www.w3.org/Graphics/SVG/1.1/DTD/svg11.dtd">
<!-- Generated by graphviz version 2.26.3 (20100126.1600)
 -->
<!-- Title: G Pages: 1 -->
<svg width="166pt" height="262pt"
 viewBox="0.00 0.00 166.00 262.00" xmlns="http://www.w3.org/2000/svg" xmlns:xlink="http://www.w3.org/1999/xlink">
<g id="graph1" class="graph" transform="scale(1 1) rotate(0) translate(4 258)">
<title>G</title>
<polygon fill="white" stroke="white" points="-4,5 -4,-258 163,-258 163,5 -4,5"/>
<!-- Node1 -->
<g id="node1" class="node"><title>Node1</title>
<polygon fill="#bfbfbf" stroke="black" points="0,-0.5 0,-21.5 158,-21.5 158,-0.5 0,-0.5"/>
<text text-anchor="middle" x="79" y="-8.5" font-family="DejaVuSans" font-size="10.00">src.Error.ErrXmlTooOldVersion</text>
</g>
<!-- Node2 -->
<g id="node2" class="node"><title>Node2</title>
<a xlink:href="classsrc_1_1_error_1_1_err_xml_version.html" target="_top" xlink:title="Die XML&#45;Datei weist die falsche Version auf.">
<polygon fill="white" stroke="black" points="16,-58.5 16,-79.5 142,-79.5 142,-58.5 16,-58.5"/>
<text text-anchor="middle" x="79" y="-66.5" font-family="DejaVuSans" font-size="10.00">src.Error.ErrXmlVersion</text>
</a>
</g>
<!-- Node2&#45;&gt;Node1 -->
<g id="edge2" class="edge"><title>Node2&#45;&gt;Node1</title>
<path fill="none" stroke="midnightblue" d="M79,-48.1906C79,-39.1684 79,-28.9941 79,-21.5707"/>
<polygon fill="midnightblue" stroke="midnightblue" points="75.5001,-48.3619 79,-58.3619 82.5001,-48.3619 75.5001,-48.3619"/>
</g>
<!-- Node3 -->
<g id="node4" class="node"><title>Node3</title>
<a xlink:href="classsrc_1_1_error_1_1_err_xml.html" target="_top" xlink:title="Ausnahme beim Lesen der XML&#45;Datei.">
<polygon fill="white" stroke="black" points="33.5,-116.5 33.5,-137.5 124.5,-137.5 124.5,-116.5 33.5,-116.5"/>
<text text-anchor="middle" x="79" y="-124.5" font-family="DejaVuSans" font-size="10.00">src.Error.ErrXml</text>
</a>
</g>
<!-- Node3&#45;&gt;Node2 -->
<g id="edge4" class="edge"><title>Node3&#45;&gt;Node2</title>
<path fill="none" stroke="midnightblue" d="M79,-106.191C79,-97.1684 79,-86.9941 79,-79.5707"/>
<polygon fill="midnightblue" stroke="midnightblue" points="75.5001,-106.362 79,-116.362 82.5001,-106.362 75.5001,-106.362"/>
</g>
<!-- Node4 -->
<g id="node6" class="node"><title>Node4</title>
<a xlink:href="classsrc_1_1_error_1_1_err.html" target="_top" xlink:title="Basisklasse für die Ausnahmebehandlung.">
<polygon fill="white" stroke="black" points="42.5,-174.5 42.5,-195.5 115.5,-195.5 115.5,-174.5 42.5,-174.5"/>
<text text-anchor="middle" x="79" y="-182.5" font-family="DejaVuSans" font-size="10.00">src.Error.Err</text>
</a>
</g>
<!-- Node4&#45;&gt;Node3 -->
<g id="edge6" class="edge"><title>Node4&#45;&gt;Node3</title>
<path fill="none" stroke="midnightblue" d="M79,-164.191C79,-155.168 79,-144.994 79,-137.571"/>
<polygon fill="midnightblue" stroke="midnightblue" points="75.5001,-164.362 79,-174.362 82.5001,-164.362 75.5001,-164.362"/>
</g>
<!-- Node5 -->
<g id="node8" class="node"><title>Node5</title>
<a xlink:href="class_exception.html" target="_top" xlink:title="Exception">
<polygon fill="white" stroke="black" points="47.5,-232.5 47.5,-253.5 110.5,-253.5 110.5,-232.5 47.5,-232.5"/>
<text text-anchor="middle" x="79" y="-240.5" font-family="DejaVuSans" font-size="10.00">Exception</text>
</a>
</g>
<!-- Node5&#45;&gt;Node4 -->
<g id="edge8" class="edge"><title>Node5&#45;&gt;Node4</title>
<path fill="none" stroke="midnightblue" d="M79,-222.191C79,-213.168 79,-202.994 79,-195.571"/>
<polygon fill="midnightblue" stroke="midnightblue" points="75.5001,-222.362 79,-232.362 82.5001,-222.362 75.5001,-222.362"/>
</g>
</g>
</svg>
