<?xml version="1.0" encoding="UTF-8" standalone="no"?>
<!DOCTYPE svg PUBLIC "-//W3C//DTD SVG 1.1//EN"
 "http://www.w3.org/Graphics/SVG/1.1/DTD/svg11.dtd">
<!-- Generated by graphviz version 2.26.3 (20100126.1600)
 -->
<!-- Title: G Pages: 1 -->
<svg width="836pt" height="742pt"
 viewBox="0.00 0.00 836.00 742.00" xmlns="http://www.w3.org/2000/svg" xmlns:xlink="http://www.w3.org/1999/xlink">
<g id="graph1" class="graph" transform="scale(1 1) rotate(0) translate(4 738)">
<title>G</title>
<polygon fill="white" stroke="white" points="-4,5 -4,-738 833,-738 833,5 -4,5"/>
<!-- Node1 -->
<g id="node1" class="node"><title>Node1</title>
<polygon fill="#bfbfbf" stroke="black" points="0.5,-240.5 0.5,-261.5 119.5,-261.5 119.5,-240.5 0.5,-240.5"/>
<text text-anchor="middle" x="60" y="-248.5" font-family="DejaVuSans" font-size="10.00">CharaTrait::CharaTrait</text>
</g>
<!-- Node2 -->
<g id="node3" class="node"><title>Node2</title>
<a xlink:href="class_chara_trait.html#a873be3dccac875262e6f7b350663b542" target="_top" xlink:title="CharaTrait::checkTraitPrerequisites">
<polygon fill="white" stroke="black" points="156,-632.5 156,-653.5 336,-653.5 336,-632.5 156,-632.5"/>
<text text-anchor="middle" x="246" y="-640.5" font-family="DejaVuSans" font-size="10.00">CharaTrait::checkTraitPrerequisites</text>
</a>
</g>
<!-- Node1&#45;&gt;Node2 -->
<g id="edge2" class="edge"><title>Node1&#45;&gt;Node2</title>
<path fill="none" stroke="midnightblue" d="M61.7633,-261.558C68.7116,-301.155 96.7669,-443.73 156,-545 174.656,-576.896 205.137,-607.194 225.381,-625.438"/>
<polygon fill="midnightblue" stroke="midnightblue" points="223.297,-628.267 233.108,-632.265 227.931,-623.021 223.297,-628.267"/>
</g>
<!-- Node7 -->
<g id="node13" class="node"><title>Node7</title>
<a xlink:href="class_chara_trait.html#ab04ba68cad00668e6379a9e3fb1e5d8a" target="_top" xlink:title="CharaTrait::emitSpecialtiesClicked">
<polygon fill="white" stroke="black" points="157,-514.5 157,-535.5 335,-535.5 335,-514.5 157,-514.5"/>
<text text-anchor="middle" x="246" y="-522.5" font-family="DejaVuSans" font-size="10.00">CharaTrait::emitSpecialtiesClicked</text>
</a>
</g>
<!-- Node1&#45;&gt;Node7 -->
<g id="edge12" class="edge"><title>Node1&#45;&gt;Node7</title>
<path fill="none" stroke="midnightblue" d="M60.8354,-261.539C64.4268,-299.589 81.9364,-431.19 156,-499 160.802,-503.397 166.303,-507.054 172.167,-510.096"/>
<polygon fill="midnightblue" stroke="midnightblue" points="171.079,-513.445 181.632,-514.387 173.969,-507.07 171.079,-513.445"/>
</g>
<!-- Node9 -->
<g id="node18" class="node"><title>Node9</title>
<a xlink:href="class_chara_trait.html#ae6604555d60fe78d7473942e3502060b" target="_top" xlink:title="CharaTrait::specialtiesClicked">
<polygon fill="white" stroke="black" points="372.5,-474.5 372.5,-495.5 527.5,-495.5 527.5,-474.5 372.5,-474.5"/>
<text text-anchor="middle" x="450" y="-482.5" font-family="DejaVuSans" font-size="10.00">CharaTrait::specialtiesClicked</text>
</a>
</g>
<!-- Node1&#45;&gt;Node9 -->
<g id="edge64" class="edge"><title>Node1&#45;&gt;Node9</title>
<path fill="none" stroke="midnightblue" d="M61.1934,-261.567C65.7885,-296.775 85.7588,-410.643 156,-460 223.336,-507.315 321.943,-505.09 386.054,-496.869"/>
<polygon fill="midnightblue" stroke="midnightblue" points="386.603,-500.327 396.037,-495.505 385.655,-493.391 386.603,-500.327"/>
</g>
<!-- Node10 -->
<g id="node20" class="node"><title>Node10</title>
<a xlink:href="class_chara_trait.html#ae8854bf878fa9aab4dafc27a943d05b6" target="_top" xlink:title="CharaTrait::traitPtr">
<polygon fill="white" stroke="black" points="579,-416.5 579,-437.5 683,-437.5 683,-416.5 579,-416.5"/>
<text text-anchor="middle" x="631" y="-424.5" font-family="DejaVuSans" font-size="10.00">CharaTrait::traitPtr</text>
</a>
</g>
<!-- Node1&#45;&gt;Node10 -->
<g id="edge68" class="edge"><title>Node1&#45;&gt;Node10</title>
<path fill="none" stroke="midnightblue" d="M67.462,-261.516C82.1524,-281.467 116.821,-324.96 156,-349 286.235,-428.911 472.736,-434.463 568.698,-431.11"/>
<polygon fill="midnightblue" stroke="midnightblue" points="568.966,-434.602 578.82,-430.711 568.69,-427.607 568.966,-434.602"/>
</g>
<!-- Node11 -->
<g id="node22" class="node"><title>Node11</title>
<a xlink:href="class_storage_character.html#a50022b948be1e566d902d64095c4470b" target="_top" xlink:title="StorageCharacter::getInstance">
<polygon fill="white" stroke="black" points="164,-200.5 164,-221.5 328,-221.5 328,-200.5 164,-200.5"/>
<text text-anchor="middle" x="246" y="-208.5" font-family="DejaVuSans" font-size="10.00">StorageCharacter::getInstance</text>
</a>
</g>
<!-- Node1&#45;&gt;Node11 -->
<g id="edge22" class="edge"><title>Node1&#45;&gt;Node11</title>
<path fill="none" stroke="midnightblue" d="M108.869,-240.49C132.91,-235.321 162.071,-229.049 187.312,-223.621"/>
<polygon fill="midnightblue" stroke="midnightblue" points="188.094,-227.033 197.134,-221.509 186.622,-220.189 188.094,-227.033"/>
</g>
<!-- Node12 -->
<g id="node24" class="node"><title>Node12</title>
<a xlink:href="class_chara_trait.html#a794ddd73f3604b16fe4b468b4a02f7df" target="_top" xlink:title="CharaTrait::hideDescriptionWidget">
<polygon fill="white" stroke="black" points="157.5,-240.5 157.5,-261.5 334.5,-261.5 334.5,-240.5 157.5,-240.5"/>
<text text-anchor="middle" x="246" y="-248.5" font-family="DejaVuSans" font-size="10.00">CharaTrait::hideDescriptionWidget</text>
</a>
</g>
<!-- Node1&#45;&gt;Node12 -->
<g id="edge24" class="edge"><title>Node1&#45;&gt;Node12</title>
<path fill="none" stroke="midnightblue" d="M119.619,-251C128.437,-251 137.716,-251 147.076,-251"/>
<polygon fill="midnightblue" stroke="midnightblue" points="147.246,-254.5 157.246,-251 147.246,-247.5 147.246,-254.5"/>
</g>
<!-- Node16 -->
<g id="node32" class="node"><title>Node16</title>
<a xlink:href="class_chara_trait.html#a06ea530908c65caf8aad3f494f0d2cb8" target="_top" xlink:title="CharaTrait::hideSpecialtyWidget">
<polygon fill="white" stroke="black" points="162.5,-160.5 162.5,-181.5 329.5,-181.5 329.5,-160.5 162.5,-160.5"/>
<text text-anchor="middle" x="246" y="-168.5" font-family="DejaVuSans" font-size="10.00">CharaTrait::hideSpecialtyWidget</text>
</a>
</g>
<!-- Node1&#45;&gt;Node16 -->
<g id="edge32" class="edge"><title>Node1&#45;&gt;Node16</title>
<path fill="none" stroke="midnightblue" d="M73.4977,-240.464C91.3759,-227.02 124.352,-203.959 156,-191 162.17,-188.473 168.716,-186.24 175.35,-184.27"/>
<polygon fill="midnightblue" stroke="midnightblue" points="176.398,-187.612 185.102,-181.57 174.531,-180.866 176.398,-187.612"/>
</g>
<!-- Node18 -->
<g id="node36" class="node"><title>Node18</title>
<a xlink:href="class_chara_trait.html#a8b30fcf229fb59f96c3926a59269194e" target="_top" xlink:title="CharaTrait::hideTraitIfNotAvailable">
<polygon fill="white" stroke="black" points="158.5,-120.5 158.5,-141.5 333.5,-141.5 333.5,-120.5 158.5,-120.5"/>
<text text-anchor="middle" x="246" y="-128.5" font-family="DejaVuSans" font-size="10.00">CharaTrait::hideTraitIfNotAvailable</text>
</a>
</g>
<!-- Node1&#45;&gt;Node18 -->
<g id="edge36" class="edge"><title>Node1&#45;&gt;Node18</title>
<path fill="none" stroke="midnightblue" d="M67.0041,-240.271C81.1569,-219.512 115.304,-173.883 156,-151 159.952,-148.778 164.132,-146.802 168.44,-145.046"/>
<polygon fill="midnightblue" stroke="midnightblue" points="169.845,-148.259 178.039,-141.542 167.445,-141.684 169.845,-148.259"/>
</g>
<!-- Node21 -->
<g id="node42" class="node"><title>Node21</title>
<a xlink:href="class_chara_trait.html#ace22816278072df97eb782603153600b" target="_top" xlink:title="CharaTrait::setCustomText">
<polygon fill="white" stroke="black" points="175,-318.5 175,-339.5 317,-339.5 317,-318.5 175,-318.5"/>
<text text-anchor="middle" x="246" y="-326.5" font-family="DejaVuSans" font-size="10.00">CharaTrait::setCustomText</text>
</a>
</g>
<!-- Node1&#45;&gt;Node21 -->
<g id="edge42" class="edge"><title>Node1&#45;&gt;Node21</title>
<path fill="none" stroke="midnightblue" d="M76.4046,-261.616C95.0631,-273.314 126.742,-292.052 156,-304 166.799,-308.41 178.635,-312.315 190.072,-315.652"/>
<polygon fill="midnightblue" stroke="midnightblue" points="189.41,-319.101 199.984,-318.435 191.303,-312.362 189.41,-319.101"/>
</g>
<!-- Node25 -->
<g id="node52" class="node"><title>Node25</title>
<a xlink:href="class_chara_trait.html#ab3935a94198f510d3de473a9a72692ac" target="_top" xlink:title="CharaTrait::traitChanged">
<polygon fill="white" stroke="black" points="383.5,-278.5 383.5,-299.5 516.5,-299.5 516.5,-278.5 383.5,-278.5"/>
<text text-anchor="middle" x="450" y="-286.5" font-family="DejaVuSans" font-size="10.00">CharaTrait::traitChanged</text>
</a>
</g>
<!-- Node1&#45;&gt;Node25 -->
<g id="edge66" class="edge"><title>Node1&#45;&gt;Node25</title>
<path fill="none" stroke="midnightblue" d="M104.22,-261.604C120.42,-265.12 138.958,-268.715 156,-271 229.425,-280.844 313.898,-285.311 373.402,-287.334"/>
<polygon fill="midnightblue" stroke="midnightblue" points="373.363,-290.834 383.471,-287.661 373.59,-283.838 373.363,-290.834"/>
</g>
<!-- Node26 -->
<g id="node55" class="node"><title>Node26</title>
<a xlink:href="class_trait_line.html#a928e4906892bb23afce954034542373d" target="_top" xlink:title="TraitLine::setPossibleValues">
<polygon fill="white" stroke="black" points="172.5,-80.5 172.5,-101.5 319.5,-101.5 319.5,-80.5 172.5,-80.5"/>
<text text-anchor="middle" x="246" y="-88.5" font-family="DejaVuSans" font-size="10.00">TraitLine::setPossibleValues</text>
</a>
</g>
<!-- Node1&#45;&gt;Node26 -->
<g id="edge58" class="edge"><title>Node1&#45;&gt;Node26</title>
<path fill="none" stroke="midnightblue" d="M64.1075,-240.184C74.8013,-213.575 106.184,-144.658 156,-111 158.785,-109.118 161.719,-107.411 164.758,-105.861"/>
<polygon fill="midnightblue" stroke="midnightblue" points="166.443,-108.942 174.15,-101.672 163.592,-102.549 166.443,-108.942"/>
</g>
<!-- Node28 -->
<g id="node59" class="node"><title>Node28</title>
<a xlink:href="class_chara_trait.html#abd56630f06841ee374edce8bc31575cb" target="_top" xlink:title="CharaTrait::setTraitPtr">
<polygon fill="white" stroke="black" points="186.5,-40.5 186.5,-61.5 305.5,-61.5 305.5,-40.5 186.5,-40.5"/>
<text text-anchor="middle" x="246" y="-48.5" font-family="DejaVuSans" font-size="10.00">CharaTrait::setTraitPtr</text>
</a>
</g>
<!-- Node1&#45;&gt;Node28 -->
<g id="edge62" class="edge"><title>Node1&#45;&gt;Node28</title>
<path fill="none" stroke="midnightblue" d="M62.3404,-240.461C69.8651,-209.175 96.4982,-116.21 156,-71 162.183,-66.302 169.255,-62.6663 176.657,-59.8591"/>
<polygon fill="midnightblue" stroke="midnightblue" points="177.763,-63.1799 186.167,-56.7287 175.574,-56.5309 177.763,-63.1799"/>
</g>
<!-- Node29 -->
<g id="node64" class="node"><title>Node29</title>
<a xlink:href="classcv___abstract_trait.html#aba0dfcb5b539afe0db14c6e3c4ddd4bc" target="_top" xlink:title="cv_AbstractTrait::type">
<polygon fill="white" stroke="black" points="186.5,-0.5 186.5,-21.5 305.5,-21.5 305.5,-0.5 186.5,-0.5"/>
<text text-anchor="middle" x="246" y="-8.5" font-family="DejaVuSans" font-size="10.00">cv_AbstractTrait::type</text>
</a>
</g>
<!-- Node1&#45;&gt;Node29 -->
<g id="edge70" class="edge"><title>Node1&#45;&gt;Node29</title>
<path fill="none" stroke="midnightblue" d="M61.2768,-240.262C66.1357,-204.42 86.8429,-87.9622 156,-31 162.081,-25.9914 169.15,-22.1694 176.603,-19.2629"/>
<polygon fill="midnightblue" stroke="midnightblue" points="177.831,-22.543 186.204,-16.0506 175.61,-15.9047 177.831,-22.543"/>
</g>
<!-- Node3 -->
<g id="node5" class="node"><title>Node3</title>
<a xlink:href="class_exception.html#a7cb124af6ec64ad88a8721b60c7932fb" target="_top" xlink:title="Exception::description">
<polygon fill="white" stroke="black" points="389,-672.5 389,-693.5 511,-693.5 511,-672.5 389,-672.5"/>
<text text-anchor="middle" x="450" y="-680.5" font-family="DejaVuSans" font-size="10.00">Exception::description</text>
</a>
</g>
<!-- Node2&#45;&gt;Node3 -->
<g id="edge4" class="edge"><title>Node2&#45;&gt;Node3</title>
<path fill="none" stroke="midnightblue" d="M299.599,-653.51C326.199,-658.725 358.516,-665.062 386.366,-670.523"/>
<polygon fill="midnightblue" stroke="midnightblue" points="385.919,-674.002 396.406,-672.491 387.266,-667.132 385.919,-674.002"/>
</g>
<!-- Node4 -->
<g id="node7" class="node"><title>Node4</title>
<a xlink:href="class_exception.html#aeaf3a81717287d50938bc72ed67bacd8" target="_top" xlink:title="Exception::message">
<polygon fill="white" stroke="black" points="393.5,-632.5 393.5,-653.5 506.5,-653.5 506.5,-632.5 393.5,-632.5"/>
<text text-anchor="middle" x="450" y="-640.5" font-family="DejaVuSans" font-size="10.00">Exception::message</text>
</a>
</g>
<!-- Node2&#45;&gt;Node4 -->
<g id="edge6" class="edge"><title>Node2&#45;&gt;Node4</title>
<path fill="none" stroke="midnightblue" d="M336.071,-643C351.855,-643 368.025,-643 383.041,-643"/>
<polygon fill="midnightblue" stroke="midnightblue" points="383.234,-646.5 393.234,-643 383.234,-639.5 383.234,-646.5"/>
</g>
<!-- Node5 -->
<g id="node9" class="node"><title>Node5</title>
<a xlink:href="classcv___abstract_trait.html#a3bbbc5a0073617a70c86741d4c918576" target="_top" xlink:title="cv_AbstractTrait::name">
<polygon fill="white" stroke="black" points="387,-592.5 387,-613.5 513,-613.5 513,-592.5 387,-592.5"/>
<text text-anchor="middle" x="450" y="-600.5" font-family="DejaVuSans" font-size="10.00">cv_AbstractTrait::name</text>
</a>
</g>
<!-- Node2&#45;&gt;Node5 -->
<g id="edge8" class="edge"><title>Node2&#45;&gt;Node5</title>
<path fill="none" stroke="midnightblue" d="M299.599,-632.49C326.199,-627.275 358.516,-620.938 386.366,-615.477"/>
<polygon fill="midnightblue" stroke="midnightblue" points="387.266,-618.868 396.406,-613.509 385.919,-611.998 387.266,-618.868"/>
</g>
<!-- Node6 -->
<g id="node11" class="node"><title>Node6</title>
<a xlink:href="classcv___trait.html#a6bc140c1db6f0b138451fb8ab38b0661" target="_top" xlink:title="cv_Trait::prerequisites">
<polygon fill="white" stroke="black" points="390,-712.5 390,-733.5 510,-733.5 510,-712.5 390,-712.5"/>
<text text-anchor="middle" x="450" y="-720.5" font-family="DejaVuSans" font-size="10.00">cv_Trait::prerequisites</text>
</a>
</g>
<!-- Node2&#45;&gt;Node6 -->
<g id="edge10" class="edge"><title>Node2&#45;&gt;Node6</title>
<path fill="none" stroke="midnightblue" d="M265.14,-653.554C289.41,-666.596 332.821,-688.8 372,-703 378.535,-705.368 385.473,-707.571 392.412,-709.583"/>
<polygon fill="midnightblue" stroke="midnightblue" points="391.96,-713.09 402.532,-712.392 393.832,-706.345 391.96,-713.09"/>
</g>
<!-- Node7&#45;&gt;Node5 -->
<g id="edge16" class="edge"><title>Node7&#45;&gt;Node5</title>
<path fill="none" stroke="midnightblue" d="M269.44,-535.59C294.558,-546.766 335.719,-564.585 372,-578 382.62,-581.927 394.18,-585.83 405.067,-589.343"/>
<polygon fill="midnightblue" stroke="midnightblue" points="404.24,-592.753 414.83,-592.45 406.362,-586.082 404.24,-592.753"/>
</g>
<!-- Node8 -->
<g id="node15" class="node"><title>Node8</title>
<a xlink:href="classcv___trait.html#ab81924fd5e51488a35a63e246830e143" target="_top" xlink:title="cv_Trait::details">
<polygon fill="white" stroke="black" points="405.5,-514.5 405.5,-535.5 494.5,-535.5 494.5,-514.5 405.5,-514.5"/>
<text text-anchor="middle" x="450" y="-522.5" font-family="DejaVuSans" font-size="10.00">cv_Trait::details</text>
</a>
</g>
<!-- Node7&#45;&gt;Node8 -->
<g id="edge14" class="edge"><title>Node7&#45;&gt;Node8</title>
<path fill="none" stroke="midnightblue" d="M335.181,-525C355.715,-525 376.954,-525 395.497,-525"/>
<polygon fill="midnightblue" stroke="midnightblue" points="395.5,-528.5 405.5,-525 395.5,-521.5 395.5,-528.5"/>
</g>
<!-- Node7&#45;&gt;Node9 -->
<g id="edge18" class="edge"><title>Node7&#45;&gt;Node9</title>
<path fill="none" stroke="midnightblue" d="M299.599,-514.49C326.199,-509.275 358.516,-502.938 386.366,-497.477"/>
<polygon fill="midnightblue" stroke="midnightblue" points="387.266,-500.868 396.406,-495.509 385.919,-493.998 387.266,-500.868"/>
</g>
<!-- Node7&#45;&gt;Node10 -->
<g id="edge20" class="edge"><title>Node7&#45;&gt;Node10</title>
<path fill="none" stroke="midnightblue" d="M274.388,-535.575C327.082,-553.405 442.432,-583.89 528,-545 572.733,-524.669 605.633,-474.25 621.118,-446.347"/>
<polygon fill="midnightblue" stroke="midnightblue" points="624.219,-447.969 625.86,-437.502 618.05,-444.662 624.219,-447.969"/>
</g>
<!-- Node13 -->
<g id="node26" class="node"><title>Node13</title>
<a xlink:href="class_chara_trait.html#a6f2348de11d23f9f44eb81335a9edf19" target="_top" xlink:title="CharaTrait::custom">
<polygon fill="white" stroke="black" points="577.5,-249.5 577.5,-270.5 684.5,-270.5 684.5,-249.5 577.5,-249.5"/>
<text text-anchor="middle" x="631" y="-257.5" font-family="DejaVuSans" font-size="10.00">CharaTrait::custom</text>
</a>
</g>
<!-- Node12&#45;&gt;Node13 -->
<g id="edge26" class="edge"><title>Node12&#45;&gt;Node13</title>
<path fill="none" stroke="midnightblue" d="M334.81,-253.076C405.806,-254.736 503.624,-257.022 567.086,-258.506"/>
<polygon fill="midnightblue" stroke="midnightblue" points="567.276,-262.011 577.355,-258.746 567.439,-255.013 567.276,-262.011"/>
</g>
<!-- Node15 -->
<g id="node30" class="node"><title>Node15</title>
<a xlink:href="class_trait_line.html#aba4c8e4ee4f0aab02bb26d4bb63e7dec" target="_top" xlink:title="TraitLine::hideDescription">
<polygon fill="white" stroke="black" points="382,-200.5 382,-221.5 518,-221.5 518,-200.5 382,-200.5"/>
<text text-anchor="middle" x="450" y="-208.5" font-family="DejaVuSans" font-size="10.00">TraitLine::hideDescription</text>
</a>
</g>
<!-- Node12&#45;&gt;Node15 -->
<g id="edge30" class="edge"><title>Node12&#45;&gt;Node15</title>
<path fill="none" stroke="midnightblue" d="M299.599,-240.49C326.199,-235.275 358.516,-228.938 386.366,-223.477"/>
<polygon fill="midnightblue" stroke="midnightblue" points="387.266,-226.868 396.406,-221.509 385.919,-219.998 387.266,-226.868"/>
</g>
<!-- Node14 -->
<g id="node28" class="node"><title>Node14</title>
<a xlink:href="classcv___trait.html#af96ea047974ec3f6bb2cd1b0ade7cf13" target="_top" xlink:title="cv_Trait::custom">
<polygon fill="white" stroke="black" points="734,-279.5 734,-300.5 828,-300.5 828,-279.5 734,-279.5"/>
<text text-anchor="middle" x="781" y="-287.5" font-family="DejaVuSans" font-size="10.00">cv_Trait::custom</text>
</a>
</g>
<!-- Node13&#45;&gt;Node14 -->
<g id="edge28" class="edge"><title>Node13&#45;&gt;Node14</title>
<path fill="none" stroke="midnightblue" d="M683.884,-270.577C696.79,-273.158 710.654,-275.931 723.752,-278.55"/>
<polygon fill="midnightblue" stroke="midnightblue" points="723.098,-281.989 733.591,-280.518 724.471,-275.125 723.098,-281.989"/>
</g>
<!-- Node17 -->
<g id="node34" class="node"><title>Node17</title>
<a xlink:href="class_trait_line.html#a95f9132e89bcfae9a062573649e98c19" target="_top" xlink:title="TraitLine::hideSpecialties">
<polygon fill="white" stroke="black" points="383,-160.5 383,-181.5 517,-181.5 517,-160.5 383,-160.5"/>
<text text-anchor="middle" x="450" y="-168.5" font-family="DejaVuSans" font-size="10.00">TraitLine::hideSpecialties</text>
</a>
</g>
<!-- Node16&#45;&gt;Node17 -->
<g id="edge34" class="edge"><title>Node16&#45;&gt;Node17</title>
<path fill="none" stroke="midnightblue" d="M329.563,-171C343.819,-171 358.571,-171 372.656,-171"/>
<polygon fill="midnightblue" stroke="midnightblue" points="372.778,-174.5 382.778,-171 372.778,-167.5 372.778,-174.5"/>
</g>
<!-- Node19 -->
<g id="node38" class="node"><title>Node19</title>
<a xlink:href="class_chara_trait.html#ae8c46557a34a5586b1fbcac00a7c47d6" target="_top" xlink:title="CharaTrait::species">
<polygon fill="white" stroke="black" points="396.5,-120.5 396.5,-141.5 503.5,-141.5 503.5,-120.5 396.5,-120.5"/>
<text text-anchor="middle" x="450" y="-128.5" font-family="DejaVuSans" font-size="10.00">CharaTrait::species</text>
</a>
</g>
<!-- Node18&#45;&gt;Node19 -->
<g id="edge38" class="edge"><title>Node18&#45;&gt;Node19</title>
<path fill="none" stroke="midnightblue" d="M333.698,-131C351.316,-131 369.514,-131 386.134,-131"/>
<polygon fill="midnightblue" stroke="midnightblue" points="386.26,-134.5 396.26,-131 386.26,-127.5 386.26,-134.5"/>
</g>
<!-- Node20 -->
<g id="node40" class="node"><title>Node20</title>
<a xlink:href="classcv___abstract_trait.html#a5550607235c2a5875f84d13fb6f9aa3f" target="_top" xlink:title="cv_AbstractTrait::species">
<polygon fill="white" stroke="black" points="564,-120.5 564,-141.5 698,-141.5 698,-120.5 564,-120.5"/>
<text text-anchor="middle" x="631" y="-128.5" font-family="DejaVuSans" font-size="10.00">cv_AbstractTrait::species</text>
</a>
</g>
<!-- Node19&#45;&gt;Node20 -->
<g id="edge40" class="edge"><title>Node19&#45;&gt;Node20</title>
<path fill="none" stroke="midnightblue" d="M503.816,-131C519.436,-131 536.81,-131 553.573,-131"/>
<polygon fill="midnightblue" stroke="midnightblue" points="553.911,-134.5 563.911,-131 553.911,-127.5 553.911,-134.5"/>
</g>
<!-- Node21&#45;&gt;Node10 -->
<g id="edge56" class="edge"><title>Node21&#45;&gt;Node10</title>
<path fill="none" stroke="midnightblue" d="M263.676,-339.516C287.448,-353.16 331.432,-376.671 372,-389 437.428,-408.885 515.42,-418.522 568.603,-423.089"/>
<polygon fill="midnightblue" stroke="midnightblue" points="568.645,-426.604 578.898,-423.936 569.219,-419.628 568.645,-426.604"/>
</g>
<!-- Node22 -->
<g id="node44" class="node"><title>Node22</title>
<a xlink:href="class_chara_trait.html#a7cc9b10030c5e6d5030fb898506ee070" target="_top" xlink:title="CharaTrait::customText">
<polygon fill="white" stroke="black" points="387.5,-318.5 387.5,-339.5 512.5,-339.5 512.5,-318.5 387.5,-318.5"/>
<text text-anchor="middle" x="450" y="-326.5" font-family="DejaVuSans" font-size="10.00">CharaTrait::customText</text>
</a>
</g>
<!-- Node21&#45;&gt;Node22 -->
<g id="edge44" class="edge"><title>Node21&#45;&gt;Node22</title>
<path fill="none" stroke="midnightblue" d="M317.063,-329C336.549,-329 357.699,-329 377.277,-329"/>
<polygon fill="midnightblue" stroke="midnightblue" points="377.354,-332.5 387.354,-329 377.354,-325.5 377.354,-332.5"/>
</g>
<!-- Node24 -->
<g id="node50" class="node"><title>Node24</title>
<a xlink:href="classcv___trait.html#af2625cf5c0ccfb79c13f7a50192a2c27" target="_top" xlink:title="cv_Trait::setCustomText">
<polygon fill="white" stroke="black" points="385.5,-358.5 385.5,-379.5 514.5,-379.5 514.5,-358.5 385.5,-358.5"/>
<text text-anchor="middle" x="450" y="-366.5" font-family="DejaVuSans" font-size="10.00">cv_Trait::setCustomText</text>
</a>
</g>
<!-- Node21&#45;&gt;Node24 -->
<g id="edge52" class="edge"><title>Node21&#45;&gt;Node24</title>
<path fill="none" stroke="midnightblue" d="M299.599,-339.51C326.199,-344.725 358.516,-351.062 386.366,-356.523"/>
<polygon fill="midnightblue" stroke="midnightblue" points="385.919,-360.002 396.406,-358.491 387.266,-353.132 385.919,-360.002"/>
</g>
<!-- Node21&#45;&gt;Node25 -->
<g id="edge54" class="edge"><title>Node21&#45;&gt;Node25</title>
<path fill="none" stroke="midnightblue" d="M299.599,-318.49C326.199,-313.275 358.516,-306.938 386.366,-301.477"/>
<polygon fill="midnightblue" stroke="midnightblue" points="387.266,-304.868 396.406,-299.509 385.919,-297.998 387.266,-304.868"/>
</g>
<!-- Node22&#45;&gt;Node10 -->
<g id="edge50" class="edge"><title>Node22&#45;&gt;Node10</title>
<path fill="none" stroke="midnightblue" d="M503.042,-339.559C511.594,-342.118 520.194,-345.233 528,-349 560.702,-364.78 593.23,-391.791 612.729,-409.52"/>
<polygon fill="midnightblue" stroke="midnightblue" points="610.537,-412.26 620.251,-416.49 615.295,-407.126 610.537,-412.26"/>
</g>
<!-- Node23 -->
<g id="node46" class="node"><title>Node23</title>
<a xlink:href="classcv___trait.html#adee2adf82138573180ff0d1486974ff6" target="_top" xlink:title="cv_Trait::customText">
<polygon fill="white" stroke="black" points="574.5,-299.5 574.5,-320.5 687.5,-320.5 687.5,-299.5 574.5,-299.5"/>
<text text-anchor="middle" x="631" y="-307.5" font-family="DejaVuSans" font-size="10.00">cv_Trait::customText</text>
</a>
</g>
<!-- Node22&#45;&gt;Node23 -->
<g id="edge46" class="edge"><title>Node22&#45;&gt;Node23</title>
<path fill="none" stroke="midnightblue" d="M512.543,-322.435C529.129,-320.694 547.103,-318.807 563.919,-317.042"/>
<polygon fill="midnightblue" stroke="midnightblue" points="564.637,-320.486 574.217,-315.961 563.907,-313.524 564.637,-320.486"/>
</g>
<!-- Node23&#45;&gt;Node14 -->
<g id="edge48" class="edge"><title>Node23&#45;&gt;Node14</title>
<path fill="none" stroke="midnightblue" d="M687.709,-302.439C699.515,-300.865 711.966,-299.205 723.791,-297.628"/>
<polygon fill="midnightblue" stroke="midnightblue" points="724.539,-301.059 733.989,-296.268 723.614,-294.121 724.539,-301.059"/>
</g>
<!-- Node27 -->
<g id="node57" class="node"><title>Node27</title>
<a xlink:href="class_trait_dots.html#a5ea410276a2001288a6eaa25ee242bac" target="_top" xlink:title="TraitDots::setAllowedValues">
<polygon fill="white" stroke="black" points="376.5,-80.5 376.5,-101.5 523.5,-101.5 523.5,-80.5 376.5,-80.5"/>
<text text-anchor="middle" x="450" y="-88.5" font-family="DejaVuSans" font-size="10.00">TraitDots::setAllowedValues</text>
</a>
</g>
<!-- Node26&#45;&gt;Node27 -->
<g id="edge60" class="edge"><title>Node26&#45;&gt;Node27</title>
<path fill="none" stroke="midnightblue" d="M319.649,-91C334.815,-91 350.89,-91 366.38,-91"/>
<polygon fill="midnightblue" stroke="midnightblue" points="366.459,-94.5001 376.459,-91 366.459,-87.5001 366.459,-94.5001"/>
</g>
</g>
</svg>
