<?xml version="1.0" encoding="UTF-8" standalone="no"?>
<!DOCTYPE svg PUBLIC "-//W3C//DTD SVG 1.1//EN"
 "http://www.w3.org/Graphics/SVG/1.1/DTD/svg11.dtd">
<!-- Generated by graphviz version 2.26.3 (20100126.1600)
 -->
<!-- Title: G Pages: 1 -->
<svg width="518pt" height="110pt"
 viewBox="0.00 0.00 518.00 110.00" xmlns="http://www.w3.org/2000/svg" xmlns:xlink="http://www.w3.org/1999/xlink">
<g id="graph1" class="graph" transform="scale(1 1) rotate(0) translate(4 106)">
<title>G</title>
<polygon fill="white" stroke="white" points="-4,5 -4,-106 515,-106 515,5 -4,5"/>
<!-- Node1 -->
<g id="node1" class="node"><title>Node1</title>
<polygon fill="#bfbfbf" stroke="black" points="0.5,-40.5 0.5,-61.5 131.5,-61.5 131.5,-40.5 0.5,-40.5"/>
<text text-anchor="middle" x="66" y="-48.5" font-family="DejaVuSans" font-size="10.00">ReadTemplate::readTree</text>
</g>
<!-- Node2 -->
<g id="node3" class="node"><title>Node2</title>
<a xlink:href="class_read_template.html#a85e90e2466fbabcae68cca7e1aec234c" target="_top" xlink:title="ReadTemplate::readTraits">
<polygon fill="white" stroke="black" points="197,-80.5 197,-101.5 333,-101.5 333,-80.5 197,-80.5"/>
<text text-anchor="middle" x="265" y="-88.5" font-family="DejaVuSans" font-size="10.00">ReadTemplate::readTraits</text>
</a>
</g>
<!-- Node1&#45;&gt;Node2 -->
<g id="edge2" class="edge"><title>Node1&#45;&gt;Node2</title>
<path fill="none" stroke="midnightblue" d="M118.285,-61.5095C144.119,-66.7023 175.482,-73.0064 202.568,-78.4508"/>
<polygon fill="midnightblue" stroke="midnightblue" points="202.225,-81.9519 212.719,-80.4913 203.605,-75.0892 202.225,-81.9519"/>
</g>
<!-- Node4 -->
<g id="node7" class="node"><title>Node4</title>
<a xlink:href="class_read_template.html#a7421603688e1dedca296c0ed3888a4bc" target="_top" xlink:title="ReadTemplate::readUnknownElement">
<polygon fill="white" stroke="black" points="168,-40.5 168,-61.5 362,-61.5 362,-40.5 168,-40.5"/>
<text text-anchor="middle" x="265" y="-48.5" font-family="DejaVuSans" font-size="10.00">ReadTemplate::readUnknownElement</text>
</a>
</g>
<!-- Node1&#45;&gt;Node4 -->
<g id="edge6" class="edge"><title>Node1&#45;&gt;Node4</title>
<path fill="none" stroke="midnightblue" d="M131.712,-51C140.011,-51 148.667,-51 157.407,-51"/>
<polygon fill="midnightblue" stroke="midnightblue" points="157.688,-54.5001 167.688,-51 157.688,-47.5001 157.688,-54.5001"/>
</g>
<!-- Node5 -->
<g id="node9" class="node"><title>Node5</title>
<a xlink:href="classcv___trait.html#ac06e3b8607fa52324072b4a6493fac60" target="_top" xlink:title="cv_Trait::toType">
<polygon fill="white" stroke="black" points="220.5,-0.5 220.5,-21.5 309.5,-21.5 309.5,-0.5 220.5,-0.5"/>
<text text-anchor="middle" x="265" y="-8.5" font-family="DejaVuSans" font-size="10.00">cv_Trait::toType</text>
</a>
</g>
<!-- Node1&#45;&gt;Node5 -->
<g id="edge8" class="edge"><title>Node1&#45;&gt;Node5</title>
<path fill="none" stroke="midnightblue" d="M118.285,-40.4905C146.716,-34.7757 181.843,-27.7151 210.596,-21.9354"/>
<polygon fill="midnightblue" stroke="midnightblue" points="211.366,-25.3508 220.48,-19.9488 209.986,-18.4881 211.366,-25.3508"/>
</g>
<!-- Node3 -->
<g id="node5" class="node"><title>Node3</title>
<a xlink:href="classcv___trait.html#a8dbbb4674c121a54bd0830cf90c568bc" target="_top" xlink:title="cv_Trait::toCategory">
<polygon fill="white" stroke="black" points="398.5,-80.5 398.5,-101.5 509.5,-101.5 509.5,-80.5 398.5,-80.5"/>
<text text-anchor="middle" x="454" y="-88.5" font-family="DejaVuSans" font-size="10.00">cv_Trait::toCategory</text>
</a>
</g>
<!-- Node2&#45;&gt;Node3 -->
<g id="edge4" class="edge"><title>Node2&#45;&gt;Node3</title>
<path fill="none" stroke="midnightblue" d="M333.233,-91C351.088,-91 370.301,-91 388.035,-91"/>
<polygon fill="midnightblue" stroke="midnightblue" points="388.284,-94.5001 398.284,-91 388.284,-87.5001 388.284,-94.5001"/>
</g>
</g>
</svg>
