<?xml version="1.0" encoding="UTF-8" standalone="no"?>
<!DOCTYPE svg PUBLIC "-//W3C//DTD SVG 1.1//EN"
 "http://www.w3.org/Graphics/SVG/1.1/DTD/svg11.dtd">
<!-- Generated by graphviz version 2.26.3 (20100126.1600)
 -->
<!-- Title: G Pages: 1 -->
<svg width="408pt" height="130pt"
 viewBox="0.00 0.00 408.00 130.00" xmlns="http://www.w3.org/2000/svg" xmlns:xlink="http://www.w3.org/1999/xlink">
<g id="graph1" class="graph" transform="scale(1 1) rotate(0) translate(4 126)">
<title>G</title>
<polygon fill="white" stroke="white" points="-4,5 -4,-126 405,-126 405,5 -4,5"/>
<!-- Node1 -->
<g id="node1" class="node"><title>Node1</title>
<polygon fill="#bfbfbf" stroke="black" points="0.5,-40.5 0.5,-61.5 113.5,-61.5 113.5,-40.5 0.5,-40.5"/>
<text text-anchor="middle" x="57" y="-48.5" font-family="DejaVuSans" font-size="10.00">CheckTrait::setValue</text>
</g>
<!-- Node2 -->
<g id="node3" class="node"><title>Node2</title>
<a xlink:href="class_trait.html#aff507cb19b22e5668fc20b471d73d691" target="_top" xlink:title="Trait::setValue">
<polygon fill="white" stroke="black" points="160.5,-80.5 160.5,-101.5 243.5,-101.5 243.5,-80.5 160.5,-80.5"/>
<text text-anchor="middle" x="202" y="-88.5" font-family="DejaVuSans" font-size="10.00">Trait::setValue</text>
</a>
</g>
<!-- Node1&#45;&gt;Node2 -->
<g id="edge2" class="edge"><title>Node1&#45;&gt;Node2</title>
<path fill="none" stroke="midnightblue" d="M95.097,-61.5095C113.175,-66.4965 134.967,-72.5082 154.148,-77.7993"/>
<polygon fill="midnightblue" stroke="midnightblue" points="153.335,-81.2059 163.906,-80.4913 155.197,-74.4579 153.335,-81.2059"/>
</g>
<!-- Node5 -->
<g id="node9" class="node"><title>Node5</title>
<a xlink:href="class_check_trait.html#a5dde04a27f8ada588ecb3516630c9e6f" target="_top" xlink:title="CheckTrait::traitPtr">
<polygon fill="white" stroke="black" points="150,-40.5 150,-61.5 254,-61.5 254,-40.5 150,-40.5"/>
<text text-anchor="middle" x="202" y="-48.5" font-family="DejaVuSans" font-size="10.00">CheckTrait::traitPtr</text>
</a>
</g>
<!-- Node1&#45;&gt;Node5 -->
<g id="edge8" class="edge"><title>Node1&#45;&gt;Node5</title>
<path fill="none" stroke="midnightblue" d="M113.892,-51C122.446,-51 131.304,-51 139.959,-51"/>
<polygon fill="midnightblue" stroke="midnightblue" points="139.996,-54.5001 149.996,-51 139.996,-47.5001 139.996,-54.5001"/>
</g>
<!-- Node6 -->
<g id="node11" class="node"><title>Node6</title>
<a xlink:href="class_check_trait.html#a4399a810312044b74f6227955a1879a9" target="_top" xlink:title="CheckTrait::value">
<polygon fill="white" stroke="black" points="153.5,-0.5 153.5,-21.5 250.5,-21.5 250.5,-0.5 153.5,-0.5"/>
<text text-anchor="middle" x="202" y="-8.5" font-family="DejaVuSans" font-size="10.00">CheckTrait::value</text>
</a>
</g>
<!-- Node1&#45;&gt;Node6 -->
<g id="edge10" class="edge"><title>Node1&#45;&gt;Node6</title>
<path fill="none" stroke="midnightblue" d="M95.097,-40.4905C113.175,-35.5035 134.967,-29.4918 154.148,-24.2007"/>
<polygon fill="midnightblue" stroke="midnightblue" points="155.197,-27.5421 163.906,-21.5087 153.335,-20.7941 155.197,-27.5421"/>
</g>
<!-- Node3 -->
<g id="node5" class="node"><title>Node3</title>
<a xlink:href="classcv___trait.html#a965fb56fc4ff6e659b4c44752cfaa538" target="_top" xlink:title="cv_Trait::value">
<polygon fill="white" stroke="black" points="303.5,-100.5 303.5,-121.5 386.5,-121.5 386.5,-100.5 303.5,-100.5"/>
<text text-anchor="middle" x="345" y="-108.5" font-family="DejaVuSans" font-size="10.00">cv_Trait::value</text>
</a>
</g>
<!-- Node2&#45;&gt;Node3 -->
<g id="edge4" class="edge"><title>Node2&#45;&gt;Node3</title>
<path fill="none" stroke="midnightblue" d="M243.746,-96.8386C259.311,-99.0156 277.166,-101.513 293.506,-103.798"/>
<polygon fill="midnightblue" stroke="midnightblue" points="293.061,-107.27 303.449,-105.189 294.031,-100.337 293.061,-107.27"/>
</g>
<!-- Node4 -->
<g id="node7" class="node"><title>Node4</title>
<a xlink:href="class_trait.html#a953d7925e76098c051e7ade90a25cc03" target="_top" xlink:title="Trait::valueChanged">
<polygon fill="white" stroke="black" points="290,-60.5 290,-81.5 400,-81.5 400,-60.5 290,-60.5"/>
<text text-anchor="middle" x="345" y="-68.5" font-family="DejaVuSans" font-size="10.00">Trait::valueChanged</text>
</a>
</g>
<!-- Node2&#45;&gt;Node4 -->
<g id="edge6" class="edge"><title>Node2&#45;&gt;Node4</title>
<path fill="none" stroke="midnightblue" d="M243.746,-85.1614C255.017,-83.5851 267.488,-81.8408 279.715,-80.1307"/>
<polygon fill="midnightblue" stroke="midnightblue" points="280.478,-83.5582 289.897,-78.7067 279.509,-76.6256 280.478,-83.5582"/>
</g>
</g>
</svg>
