<?xml version="1.0" encoding="UTF-8" standalone="no"?>
<!DOCTYPE svg PUBLIC "-//W3C//DTD SVG 1.1//EN"
 "http://www.w3.org/Graphics/SVG/1.1/DTD/svg11.dtd">
<!-- Generated by graphviz version 2.26.3 (20100126.1600)
 -->
<!-- Title: G Pages: 1 -->
<svg width="504pt" height="30pt"
 viewBox="0.00 0.00 504.00 30.00" xmlns="http://www.w3.org/2000/svg" xmlns:xlink="http://www.w3.org/1999/xlink">
<g id="graph1" class="graph" transform="scale(1 1) rotate(0) translate(4 26)">
<title>G</title>
<polygon fill="white" stroke="white" points="-4,5 -4,-26 501,-26 501,5 -4,5"/>
<!-- Node1 -->
<g id="node1" class="node"><title>Node1</title>
<polygon fill="#bfbfbf" stroke="black" points="0.5,-0.5 0.5,-21.5 125.5,-21.5 125.5,-0.5 0.5,-0.5"/>
<text text-anchor="middle" x="63" y="-8.5" font-family="DejaVuSans" font-size="10.00">CharaSpecies::species</text>
</g>
<!-- Node2 -->
<g id="node3" class="node"><title>Node2</title>
<a xlink:href="class_chara_species.html#a2ef74664afd983d69d1d4ca50a38dc01" target="_top" xlink:title="CharaSpecies::setSpecies">
<polygon fill="white" stroke="black" points="162.5,-0.5 162.5,-21.5 303.5,-21.5 303.5,-0.5 162.5,-0.5"/>
<text text-anchor="middle" x="233" y="-8.5" font-family="DejaVuSans" font-size="10.00">CharaSpecies::setSpecies</text>
</a>
</g>
<!-- Node1&#45;&gt;Node2 -->
<g id="edge2" class="edge"><title>Node1&#45;&gt;Node2</title>
<path fill="none" stroke="midnightblue" d="M136,-11C144.76,-11 153.693,-11 162.418,-11"/>
<polygon fill="midnightblue" stroke="midnightblue" points="135.819,-7.5001 125.819,-11 135.819,-14.5001 135.819,-7.5001"/>
</g>
<!-- Node3 -->
<g id="node5" class="node"><title>Node3</title>
<a xlink:href="class_chara_species.html#a22e279137aff84ecc3c8a537bae41080" target="_top" xlink:title="CharaSpecies::CharaSpecies">
<polygon fill="white" stroke="black" points="340.5,-0.5 340.5,-21.5 495.5,-21.5 495.5,-0.5 340.5,-0.5"/>
<text text-anchor="middle" x="418" y="-8.5" font-family="DejaVuSans" font-size="10.00">CharaSpecies::CharaSpecies</text>
</a>
</g>
<!-- Node2&#45;&gt;Node3 -->
<g id="edge4" class="edge"><title>Node2&#45;&gt;Node3</title>
<path fill="none" stroke="midnightblue" d="M313.905,-11C322.641,-11 331.518,-11 340.216,-11"/>
<polygon fill="midnightblue" stroke="midnightblue" points="313.732,-7.5001 303.732,-11 313.732,-14.5001 313.732,-7.5001"/>
</g>
</g>
</svg>
