<?xml version="1.0" encoding="UTF-8" standalone="no"?>
<!DOCTYPE svg PUBLIC "-//W3C//DTD SVG 1.1//EN"
 "http://www.w3.org/Graphics/SVG/1.1/DTD/svg11.dtd">
<!-- Generated by graphviz version 2.26.3 (20100126.1600)
 -->
<!-- Title: G Pages: 1 -->
<svg width="332pt" height="70pt"
 viewBox="0.00 0.00 332.00 70.00" xmlns="http://www.w3.org/2000/svg" xmlns:xlink="http://www.w3.org/1999/xlink">
<g id="graph1" class="graph" transform="scale(1 1) rotate(0) translate(4 66)">
<title>G</title>
<polygon fill="white" stroke="white" points="-4,5 -4,-66 329,-66 329,5 -4,5"/>
<!-- Node1 -->
<g id="node1" class="node"><title>Node1</title>
<polygon fill="#bfbfbf" stroke="black" points="0.5,-20.5 0.5,-41.5 157.5,-41.5 157.5,-20.5 0.5,-20.5"/>
<text text-anchor="middle" x="79" y="-28.5" font-family="DejaVuSans" font-size="10.00">cv_AbstractTrait::setCategory</text>
</g>
<!-- Node2 -->
<g id="node3" class="node"><title>Node2</title>
<a xlink:href="class_check_trait.html#a51f3c15ba4f54f325627a7ad6ca026a8" target="_top" xlink:title="CheckTrait::setCategory">
<polygon fill="white" stroke="black" points="194,-40.5 194,-61.5 324,-61.5 324,-40.5 194,-40.5"/>
<text text-anchor="middle" x="259" y="-48.5" font-family="DejaVuSans" font-size="10.00">CheckTrait::setCategory</text>
</a>
</g>
<!-- Node1&#45;&gt;Node2 -->
<g id="edge2" class="edge"><title>Node1&#45;&gt;Node2</title>
<path fill="none" stroke="midnightblue" d="M167.666,-40.8517C176.525,-41.8361 185.402,-42.8224 193.952,-43.7725"/>
<polygon fill="midnightblue" stroke="midnightblue" points="168.014,-37.369 157.689,-39.7432 167.241,-44.3262 168.014,-37.369"/>
</g>
<!-- Node3 -->
<g id="node5" class="node"><title>Node3</title>
<a xlink:href="class_chara_trait.html#a73cbb56f5bc87964994e962168d04e69" target="_top" xlink:title="CharaTrait::setCategory">
<polygon fill="white" stroke="black" points="194.5,-0.5 194.5,-21.5 323.5,-21.5 323.5,-0.5 194.5,-0.5"/>
<text text-anchor="middle" x="259" y="-8.5" font-family="DejaVuSans" font-size="10.00">CharaTrait::setCategory</text>
</a>
</g>
<!-- Node1&#45;&gt;Node3 -->
<g id="edge4" class="edge"><title>Node1&#45;&gt;Node3</title>
<path fill="none" stroke="midnightblue" d="M167.744,-21.1396C176.673,-20.1475 185.618,-19.1536 194.228,-18.1969"/>
<polygon fill="midnightblue" stroke="midnightblue" points="167.241,-17.6738 157.689,-22.2568 168.014,-24.631 167.241,-17.6738"/>
</g>
</g>
</svg>
