<?xml version="1.0" encoding="UTF-8" standalone="no"?>
<!DOCTYPE svg PUBLIC "-//W3C//DTD SVG 1.1//EN"
 "http://www.w3.org/Graphics/SVG/1.1/DTD/svg11.dtd">
<!-- Generated by graphviz version 2.26.3 (20100126.1600)
 -->
<!-- Title: G Pages: 1 -->
<svg width="188pt" height="128pt"
 viewBox="0.00 0.00 188.00 128.00" xmlns="http://www.w3.org/2000/svg" xmlns:xlink="http://www.w3.org/1999/xlink">
<g id="graph1" class="graph" transform="scale(1 1) rotate(0) translate(4 124)">
<title>G</title>
<polygon fill="white" stroke="white" points="-4,5 -4,-124 185,-124 185,5 -4,5"/>
<!-- Node1 -->
<g id="node1" class="node"><title>Node1</title>
<polygon fill="#bfbfbf" stroke="black" points="0,-0.5 0,-21.5 158,-21.5 158,-0.5 0,-0.5"/>
<text text-anchor="middle" x="79" y="-8.5" font-family="DejaVuSans" font-size="10.00">src.Datatypes.Identity.Identity</text>
</g>
<!-- Node2 -->
<g id="node2" class="node"><title>Node2</title>
<polygon fill="white" stroke="#bfbfbf" points="19.5,-98.5 19.5,-119.5 74.5,-119.5 74.5,-98.5 19.5,-98.5"/>
<text text-anchor="middle" x="47" y="-106.5" font-family="DejaVuSans" font-size="10.00">QObject</text>
</g>
<!-- Node2&#45;&gt;Node1 -->
<g id="edge2" class="edge"><title>Node2&#45;&gt;Node1</title>
<path fill="none" stroke="midnightblue" d="M53.6871,-88.5208C60.3499,-68.1161 70.3178,-37.5892 75.5346,-21.6129"/>
<polygon fill="midnightblue" stroke="midnightblue" points="50.3238,-87.5454 50.5468,-98.1378 56.978,-89.7182 50.3238,-87.5454"/>
</g>
<!-- Node3 -->
<g id="node4" class="node"><title>Node3</title>
<polygon fill="white" stroke="#bfbfbf" points="91.5,-98.5 91.5,-119.5 132.5,-119.5 132.5,-98.5 91.5,-98.5"/>
<text text-anchor="middle" x="112" y="-106.5" font-family="DejaVuSans" font-size="10.00">tuple</text>
</g>
<!-- Node3&#45;&gt;Node1 -->
<g id="edge4" class="edge"><title>Node3&#45;&gt;Node1</title>
<path fill="none" stroke="#9a32cd" stroke-dasharray="5,2" d="M105.104,-88.5208C98.233,-68.1161 87.9535,-37.5892 82.5737,-21.6129"/>
<polygon fill="#9a32cd" stroke="#9a32cd" points="101.834,-89.7777 108.342,-98.1378 108.468,-87.5438 101.834,-89.7777"/>
<text text-anchor="middle" x="140.5" y="-70.5" font-family="DejaVuSans" font-size="10.00">genderChanged</text>
<text text-anchor="middle" x="140.5" y="-57.5" font-family="DejaVuSans" font-size="10.00">identityChanged</text>
<text text-anchor="middle" x="140.5" y="-44.5" font-family="DejaVuSans" font-size="10.00">nameChanged</text>
</g>
</g>
</svg>
