<?xml version="1.0" encoding="UTF-8" standalone="no"?>
<!DOCTYPE svg PUBLIC "-//W3C//DTD SVG 1.1//EN"
 "http://www.w3.org/Graphics/SVG/1.1/DTD/svg11.dtd">
<!-- Generated by graphviz version 2.26.3 (20100126.1600)
 -->
<!-- Title: G Pages: 1 -->
<svg width="468pt" height="146pt"
 viewBox="0.00 0.00 468.00 146.00" xmlns="http://www.w3.org/2000/svg" xmlns:xlink="http://www.w3.org/1999/xlink">
<g id="graph1" class="graph" transform="scale(1 1) rotate(0) translate(4 142)">
<title>G</title>
<polygon fill="white" stroke="white" points="-4,5 -4,-142 465,-142 465,5 -4,5"/>
<!-- Node1 -->
<g id="node1" class="node"><title>Node1</title>
<polygon fill="#bfbfbf" stroke="black" points="165.5,-58.5 165.5,-79.5 296.5,-79.5 296.5,-58.5 165.5,-58.5"/>
<text text-anchor="middle" x="231" y="-66.5" font-family="DejaVuSans" font-size="10.00">src.IO.ReadXml.ReadXml</text>
</g>
<!-- Node3 -->
<g id="node5" class="node"><title>Node3</title>
<a xlink:href="classsrc_1_1_i_o_1_1_read_xml_character_1_1_read_xml_character.html" target="_top" xlink:title="Liest die gespeicherten Charakterwerte in das Programm.">
<polygon fill="white" stroke="black" points="-0.5,-0.5 -0.5,-21.5 224.5,-21.5 224.5,-0.5 -0.5,-0.5"/>
<text text-anchor="middle" x="112" y="-8.5" font-family="DejaVuSans" font-size="10.00">src.IO.ReadXmlCharacter.ReadXmlCharacter</text>
</a>
</g>
<!-- Node1&#45;&gt;Node3 -->
<g id="edge4" class="edge"><title>Node1&#45;&gt;Node3</title>
<path fill="none" stroke="midnightblue" d="M200.366,-54.0693C179.526,-43.9121 152.451,-30.7157 133.792,-21.6212"/>
<polygon fill="midnightblue" stroke="midnightblue" points="198.927,-57.2615 209.45,-58.4966 201.994,-50.9691 198.927,-57.2615"/>
</g>
<!-- Node4 -->
<g id="node7" class="node"><title>Node4</title>
<a xlink:href="classsrc_1_1_i_o_1_1_read_xml_template_1_1_read_xml_template.html" target="_top" xlink:title="Liest die Eigenschaften aus den beigefügten xml&#45;Dateien.">
<polygon fill="white" stroke="black" points="242,-0.5 242,-21.5 460,-21.5 460,-0.5 242,-0.5"/>
<text text-anchor="middle" x="351" y="-8.5" font-family="DejaVuSans" font-size="10.00">src.IO.ReadXmlTemplate.ReadXmlTemplate</text>
</a>
</g>
<!-- Node1&#45;&gt;Node4 -->
<g id="edge6" class="edge"><title>Node1&#45;&gt;Node4</title>
<path fill="none" stroke="midnightblue" d="M261.891,-54.0693C282.906,-43.9121 310.209,-30.7157 329.025,-21.6212"/>
<polygon fill="midnightblue" stroke="midnightblue" points="260.211,-50.9937 252.731,-58.4966 263.258,-57.2961 260.211,-50.9937"/>
</g>
<!-- Node2 -->
<g id="node2" class="node"><title>Node2</title>
<a xlink:href="classobject.html" target="_top" xlink:title="object">
<polygon fill="white" stroke="black" points="208,-116.5 208,-137.5 254,-137.5 254,-116.5 208,-116.5"/>
<text text-anchor="middle" x="231" y="-124.5" font-family="DejaVuSans" font-size="10.00">object</text>
</a>
</g>
<!-- Node2&#45;&gt;Node1 -->
<g id="edge2" class="edge"><title>Node2&#45;&gt;Node1</title>
<path fill="none" stroke="midnightblue" d="M231,-106.191C231,-97.1684 231,-86.9941 231,-79.5707"/>
<polygon fill="midnightblue" stroke="midnightblue" points="227.5,-106.362 231,-116.362 234.5,-106.362 227.5,-106.362"/>
</g>
</g>
</svg>
