<?xml version="1.0" encoding="UTF-8" standalone="no"?>
<!DOCTYPE svg PUBLIC "-//W3C//DTD SVG 1.1//EN"
 "http://www.w3.org/Graphics/SVG/1.1/DTD/svg11.dtd">
<!-- Generated by graphviz version 2.26.3 (20100126.1600)
 -->
<!-- Title: G Pages: 1 -->
<svg width="278pt" height="70pt"
 viewBox="0.00 0.00 278.00 70.00" xmlns="http://www.w3.org/2000/svg" xmlns:xlink="http://www.w3.org/1999/xlink">
<g id="graph1" class="graph" transform="scale(1 1) rotate(0) translate(4 66)">
<title>G</title>
<polygon fill="white" stroke="white" points="-4,5 -4,-66 275,-66 275,5 -4,5"/>
<!-- Node1 -->
<g id="node1" class="node"><title>Node1</title>
<polygon fill="#bfbfbf" stroke="black" points="0,-20.5 0,-41.5 124,-41.5 124,-20.5 0,-20.5"/>
<text text-anchor="middle" x="62" y="-28.5" font-family="DejaVuSans" font-size="10.00">CheckTrait::setCustom</text>
</g>
<!-- Node2 -->
<g id="node3" class="node"><title>Node2</title>
<a xlink:href="classcv___trait.html#af96ea047974ec3f6bb2cd1b0ade7cf13" target="_top" xlink:title="cv_Trait::custom">
<polygon fill="white" stroke="black" points="168,-40.5 168,-61.5 262,-61.5 262,-40.5 168,-40.5"/>
<text text-anchor="middle" x="215" y="-48.5" font-family="DejaVuSans" font-size="10.00">cv_Trait::custom</text>
</a>
</g>
<!-- Node1&#45;&gt;Node2 -->
<g id="edge2" class="edge"><title>Node1&#45;&gt;Node2</title>
<path fill="none" stroke="midnightblue" d="M124.231,-39.1348C135.265,-40.5772 146.71,-42.0733 157.603,-43.4972"/>
<polygon fill="midnightblue" stroke="midnightblue" points="157.477,-47.0104 167.847,-44.8361 158.385,-40.0694 157.477,-47.0104"/>
</g>
<!-- Node3 -->
<g id="node5" class="node"><title>Node3</title>
<a xlink:href="classcv___trait.html#a53165218ab534ea949fa036f91da8bd7" target="_top" xlink:title="cv_Trait::setCustom">
<polygon fill="white" stroke="black" points="160,-0.5 160,-21.5 270,-21.5 270,-0.5 160,-0.5"/>
<text text-anchor="middle" x="215" y="-8.5" font-family="DejaVuSans" font-size="10.00">cv_Trait::setCustom</text>
</a>
</g>
<!-- Node1&#45;&gt;Node3 -->
<g id="edge4" class="edge"><title>Node1&#45;&gt;Node3</title>
<path fill="none" stroke="midnightblue" d="M124.231,-22.8652C132.583,-21.7735 141.17,-20.6509 149.575,-19.5522"/>
<polygon fill="midnightblue" stroke="midnightblue" points="150.247,-22.9942 159.709,-18.2275 149.34,-16.0533 150.247,-22.9942"/>
</g>
</g>
</svg>
