<?xml version="1.0" encoding="UTF-8" standalone="no"?>
<!DOCTYPE svg PUBLIC "-//W3C//DTD SVG 1.1//EN"
 "http://www.w3.org/Graphics/SVG/1.1/DTD/svg11.dtd">
<!-- Generated by graphviz version 2.26.3 (20100126.1600)
 -->
<!-- Title: G Pages: 1 -->
<svg width="648pt" height="89pt"
 viewBox="0.00 0.00 648.00 89.00" xmlns="http://www.w3.org/2000/svg" xmlns:xlink="http://www.w3.org/1999/xlink">
<g id="graph1" class="graph" transform="scale(1 1) rotate(0) translate(4 85)">
<title>G</title>
<polygon fill="white" stroke="white" points="-4,5 -4,-85 645,-85 645,5 -4,5"/>
<!-- Node1 -->
<g id="node1" class="node"><title>Node1</title>
<polygon fill="#bfbfbf" stroke="black" points="0,-40.5 0,-61.5 178,-61.5 178,-40.5 0,-40.5"/>
<text text-anchor="middle" x="89" y="-48.5" font-family="DejaVuSans" font-size="10.00">StorageCharacter::setRealIdentity</text>
</g>
<!-- Node2 -->
<g id="node3" class="node"><title>Node2</title>
<a xlink:href="class_storage_character.html#a282378ee75212c889f7b9d2923472834" target="_top" xlink:title="StorageCharacter::identityChanged">
<polygon fill="white" stroke="black" points="454,-59.5 454,-80.5 640,-80.5 640,-59.5 454,-59.5"/>
<text text-anchor="middle" x="547" y="-67.5" font-family="DejaVuSans" font-size="10.00">StorageCharacter::identityChanged</text>
</a>
</g>
<!-- Node1&#45;&gt;Node2 -->
<g id="edge2" class="edge"><title>Node1&#45;&gt;Node2</title>
<path fill="none" stroke="midnightblue" d="M142.919,-61.545C164.875,-65.3368 190.558,-69.1365 214,-71 290.723,-77.099 377.703,-76.5843 443.524,-74.6851"/>
<polygon fill="midnightblue" stroke="midnightblue" points="444.013,-78.1719 453.902,-74.3692 443.8,-71.1752 444.013,-78.1719"/>
</g>
<!-- Node3 -->
<g id="node5" class="node"><title>Node3</title>
<a xlink:href="class_storage_character.html#a802f3481674acdc5cb0a8623de21e919" target="_top" xlink:title="StorageCharacter::insertIdentity">
<polygon fill="white" stroke="black" points="231,-40.5 231,-61.5 401,-61.5 401,-40.5 231,-40.5"/>
<text text-anchor="middle" x="316" y="-48.5" font-family="DejaVuSans" font-size="10.00">StorageCharacter::insertIdentity</text>
</a>
</g>
<!-- Node1&#45;&gt;Node3 -->
<g id="edge4" class="edge"><title>Node1&#45;&gt;Node3</title>
<path fill="none" stroke="midnightblue" d="M178.065,-51C192.058,-51 206.571,-51 220.698,-51"/>
<polygon fill="midnightblue" stroke="midnightblue" points="220.904,-54.5001 230.903,-51 220.903,-47.5001 220.904,-54.5001"/>
</g>
<!-- Node4 -->
<g id="node8" class="node"><title>Node4</title>
<a xlink:href="class_storage_character.html#a1a573fb4f44cea6f113f9638af0c46da" target="_top" xlink:title="StorageCharacter::realIdentityChanged">
<polygon fill="white" stroke="black" points="214,-0.5 214,-21.5 418,-21.5 418,-0.5 214,-0.5"/>
<text text-anchor="middle" x="316" y="-8.5" font-family="DejaVuSans" font-size="10.00">StorageCharacter::realIdentityChanged</text>
</a>
</g>
<!-- Node1&#45;&gt;Node4 -->
<g id="edge8" class="edge"><title>Node1&#45;&gt;Node4</title>
<path fill="none" stroke="midnightblue" d="M148.642,-40.4905C178.63,-35.2062 215.149,-28.7711 246.412,-23.2622"/>
<polygon fill="midnightblue" stroke="midnightblue" points="247.122,-26.6911 256.363,-21.5087 245.907,-19.7973 247.122,-26.6911"/>
</g>
<!-- Node3&#45;&gt;Node2 -->
<g id="edge6" class="edge"><title>Node3&#45;&gt;Node2</title>
<path fill="none" stroke="midnightblue" d="M401.032,-57.994C414.903,-59.1349 429.406,-60.3278 443.659,-61.5001"/>
<polygon fill="midnightblue" stroke="midnightblue" points="443.728,-65.0175 453.981,-62.3491 444.302,-58.041 443.728,-65.0175"/>
</g>
</g>
</svg>
