<?xml version="1.0" encoding="UTF-8" standalone="no"?>
<!DOCTYPE svg PUBLIC "-//W3C//DTD SVG 1.1//EN"
 "http://www.w3.org/Graphics/SVG/1.1/DTD/svg11.dtd">
<!-- Generated by graphviz version 2.26.3 (20100126.1600)
 -->
<!-- Title: G Pages: 1 -->
<svg width="476pt" height="212pt"
 viewBox="0.00 0.00 476.00 211.91" xmlns="http://www.w3.org/2000/svg" xmlns:xlink="http://www.w3.org/1999/xlink">
<g id="graph1" class="graph" transform="scale(1 1) rotate(0) translate(4 207.905)">
<title>G</title>
<polygon fill="white" stroke="white" points="-4,5 -4,-207.905 473,-207.905 473,5 -4,5"/>
<!-- Node1 -->
<g id="node1" class="node"><title>Node1</title>
<polygon fill="#bfbfbf" stroke="black" points="0.5,-100.5 0.5,-121.5 133.5,-121.5 133.5,-100.5 0.5,-100.5"/>
<text text-anchor="middle" x="67" y="-108.5" font-family="DejaVuSans" font-size="10.00">CharaTrait::traitChanged</text>
</g>
<!-- Node2 -->
<g id="node3" class="node"><title>Node2</title>
<a xlink:href="class_chara_trait.html#a21787eb972b4fc8779368a78f4430f14" target="_top" xlink:title="CharaTrait::CharaTrait">
<polygon fill="white" stroke="black" points="348.5,-139.5 348.5,-160.5 467.5,-160.5 467.5,-139.5 348.5,-139.5"/>
<text text-anchor="middle" x="408" y="-147.5" font-family="DejaVuSans" font-size="10.00">CharaTrait::CharaTrait</text>
</a>
</g>
<!-- Node1&#45;&gt;Node2 -->
<g id="edge2" class="edge"><title>Node1&#45;&gt;Node2</title>
<path fill="none" stroke="midnightblue" d="M83.0184,-129.152C101.647,-148.753 134.42,-178.806 170,-191 229.702,-211.462 250.17,-203.651 312,-191 340.408,-185.188 370.806,-170.625 389.61,-160.521"/>
<polygon fill="midnightblue" stroke="midnightblue" points="85.5099,-126.691 76.1539,-121.72 80.3676,-131.441 85.5099,-126.691"/>
</g>
<!-- Node3 -->
<g id="node5" class="node"><title>Node3</title>
<a xlink:href="class_chara_trait.html#ad3abff76332080dfd9e487287537b8a2" target="_top" xlink:title="CharaTrait::setCategory">
<polygon fill="white" stroke="black" points="176.5,-160.5 176.5,-181.5 305.5,-181.5 305.5,-160.5 176.5,-160.5"/>
<text text-anchor="middle" x="241" y="-168.5" font-family="DejaVuSans" font-size="10.00">CharaTrait::setCategory</text>
</a>
</g>
<!-- Node1&#45;&gt;Node3 -->
<g id="edge4" class="edge"><title>Node1&#45;&gt;Node3</title>
<path fill="none" stroke="midnightblue" d="M101.414,-125.317C121.288,-133.345 146.859,-143.267 170,-151 179.96,-154.328 190.823,-157.576 200.99,-160.454"/>
<polygon fill="midnightblue" stroke="midnightblue" points="102.732,-122.075 92.1505,-121.546 100.093,-128.558 102.732,-122.075"/>
</g>
<!-- Node4 -->
<g id="node7" class="node"><title>Node4</title>
<a xlink:href="class_chara_trait.html#a620d140e562c4102205d2c2a44af5622" target="_top" xlink:title="CharaTrait::setCustom">
<polygon fill="white" stroke="black" points="179.5,-120.5 179.5,-141.5 302.5,-141.5 302.5,-120.5 179.5,-120.5"/>
<text text-anchor="middle" x="241" y="-128.5" font-family="DejaVuSans" font-size="10.00">CharaTrait::setCustom</text>
</a>
</g>
<!-- Node1&#45;&gt;Node4 -->
<g id="edge6" class="edge"><title>Node1&#45;&gt;Node4</title>
<path fill="none" stroke="midnightblue" d="M144.045,-119.856C155.828,-121.21 167.859,-122.593 179.256,-123.903"/>
<polygon fill="midnightblue" stroke="midnightblue" points="144.11,-116.34 133.775,-118.675 143.31,-123.294 144.11,-116.34"/>
</g>
<!-- Node5 -->
<g id="node9" class="node"><title>Node5</title>
<a xlink:href="class_chara_trait.html#ace22816278072df97eb782603153600b" target="_top" xlink:title="CharaTrait::setCustomText">
<polygon fill="white" stroke="black" points="170,-80.5 170,-101.5 312,-101.5 312,-80.5 170,-80.5"/>
<text text-anchor="middle" x="241" y="-88.5" font-family="DejaVuSans" font-size="10.00">CharaTrait::setCustomText</text>
</a>
</g>
<!-- Node1&#45;&gt;Node5 -->
<g id="edge8" class="edge"><title>Node1&#45;&gt;Node5</title>
<path fill="none" stroke="midnightblue" d="M143.825,-102.17C152.457,-101.177 161.224,-100.17 169.78,-99.1862"/>
<polygon fill="midnightblue" stroke="midnightblue" points="143.31,-98.7056 133.775,-103.325 144.11,-105.66 143.31,-98.7056"/>
</g>
<!-- Node6 -->
<g id="node12" class="node"><title>Node6</title>
<a xlink:href="class_chara_trait.html#a340feb7c80cc516245c80d1ff03a8aec" target="_top" xlink:title="CharaTrait::setSpecies">
<polygon fill="white" stroke="black" points="179.5,-40.5 179.5,-61.5 302.5,-61.5 302.5,-40.5 179.5,-40.5"/>
<text text-anchor="middle" x="241" y="-48.5" font-family="DejaVuSans" font-size="10.00">CharaTrait::setSpecies</text>
</a>
</g>
<!-- Node1&#45;&gt;Node6 -->
<g id="edge12" class="edge"><title>Node1&#45;&gt;Node6</title>
<path fill="none" stroke="midnightblue" d="M101.414,-96.683C121.288,-88.6553 146.859,-78.7328 170,-71 179.96,-67.6718 190.823,-64.4238 200.99,-61.546"/>
<polygon fill="midnightblue" stroke="midnightblue" points="100.093,-93.4418 92.1505,-100.454 102.732,-99.9252 100.093,-93.4418"/>
</g>
<!-- Node7 -->
<g id="node14" class="node"><title>Node7</title>
<a xlink:href="class_chara_trait.html#a2b019cd655e56e8113ecfcf6913681cc" target="_top" xlink:title="CharaTrait::setType">
<polygon fill="white" stroke="black" points="187.5,-0.5 187.5,-21.5 294.5,-21.5 294.5,-0.5 187.5,-0.5"/>
<text text-anchor="middle" x="241" y="-8.5" font-family="DejaVuSans" font-size="10.00">CharaTrait::setType</text>
</a>
</g>
<!-- Node1&#45;&gt;Node7 -->
<g id="edge14" class="edge"><title>Node1&#45;&gt;Node7</title>
<path fill="none" stroke="midnightblue" d="M85.2636,-93.2066C104.757,-75.1322 137.28,-47.5165 170,-31 177.431,-27.249 185.666,-24.1134 193.817,-21.5225"/>
<polygon fill="midnightblue" stroke="midnightblue" points="82.6112,-90.8974 77.7446,-100.308 87.4178,-95.9863 82.6112,-90.8974"/>
</g>
<!-- Node5&#45;&gt;Node2 -->
<g id="edge10" class="edge"><title>Node5&#45;&gt;Node2</title>
<path fill="none" stroke="midnightblue" d="M291.475,-104.469C298.409,-106.537 305.407,-108.74 312,-111 337.016,-119.575 364.956,-131.161 384.214,-139.474"/>
<polygon fill="midnightblue" stroke="midnightblue" points="291.997,-100.976 281.418,-101.545 290.043,-107.698 291.997,-100.976"/>
</g>
</g>
</svg>
