<?xml version="1.0" encoding="UTF-8" standalone="no"?>
<!DOCTYPE svg PUBLIC "-//W3C//DTD SVG 1.1//EN"
 "http://www.w3.org/Graphics/SVG/1.1/DTD/svg11.dtd">
<!-- Generated by graphviz version 2.26.3 (20100126.1600)
 -->
<!-- Title: G Pages: 1 -->
<svg width="370pt" height="70pt"
 viewBox="0.00 0.00 370.00 70.00" xmlns="http://www.w3.org/2000/svg" xmlns:xlink="http://www.w3.org/1999/xlink">
<g id="graph1" class="graph" transform="scale(1 1) rotate(0) translate(4 66)">
<title>G</title>
<polygon fill="white" stroke="white" points="-4,5 -4,-66 367,-66 367,5 -4,5"/>
<!-- Node1 -->
<g id="node1" class="node"><title>Node1</title>
<polygon fill="#bfbfbf" stroke="black" points="0,-20.5 0,-41.5 158,-41.5 158,-20.5 0,-20.5"/>
<text text-anchor="middle" x="79" y="-28.5" font-family="DejaVuSans" font-size="10.00">StorageTemplate::addIdentity</text>
</g>
<!-- Node2 -->
<g id="node3" class="node"><title>Node2</title>
<a xlink:href="class_storage_template.html#a3ac147c022b274fcd3cade93a41fcf37" target="_top" xlink:title="StorageTemplate::identities">
<polygon fill="white" stroke="black" points="204,-40.5 204,-61.5 352,-61.5 352,-40.5 204,-40.5"/>
<text text-anchor="middle" x="278" y="-48.5" font-family="DejaVuSans" font-size="10.00">StorageTemplate::identities</text>
</a>
</g>
<!-- Node1&#45;&gt;Node2 -->
<g id="edge2" class="edge"><title>Node1&#45;&gt;Node2</title>
<path fill="none" stroke="midnightblue" d="M158.222,-38.962C169.874,-40.1331 181.914,-41.3432 193.666,-42.5242"/>
<polygon fill="midnightblue" stroke="midnightblue" points="193.601,-46.0352 203.901,-43.5528 194.301,-39.0703 193.601,-46.0352"/>
</g>
<!-- Node3 -->
<g id="node5" class="node"><title>Node3</title>
<a xlink:href="class_storage_template.html#af619068794751bf90af34bf1e11fad62" target="_top" xlink:title="StorageTemplate::insertIdentity">
<polygon fill="white" stroke="black" points="194.5,-0.5 194.5,-21.5 361.5,-21.5 361.5,-0.5 194.5,-0.5"/>
<text text-anchor="middle" x="278" y="-8.5" font-family="DejaVuSans" font-size="10.00">StorageTemplate::insertIdentity</text>
</a>
</g>
<!-- Node1&#45;&gt;Node3 -->
<g id="edge4" class="edge"><title>Node1&#45;&gt;Node3</title>
<path fill="none" stroke="midnightblue" d="M158.222,-23.038C166.791,-22.1768 175.57,-21.2944 184.29,-20.4181"/>
<polygon fill="midnightblue" stroke="midnightblue" points="184.882,-23.8763 194.482,-19.3937 184.182,-16.9114 184.882,-23.8763"/>
</g>
</g>
</svg>
