<?xml version="1.0" encoding="UTF-8" standalone="no"?>
<!DOCTYPE svg PUBLIC "-//W3C//DTD SVG 1.1//EN"
 "http://www.w3.org/Graphics/SVG/1.1/DTD/svg11.dtd">
<!-- Generated by graphviz version 2.26.3 (20100126.1600)
 -->
<!-- Title: G Pages: 1 -->
<svg width="410pt" height="350pt"
 viewBox="0.00 0.00 410.00 350.00" xmlns="http://www.w3.org/2000/svg" xmlns:xlink="http://www.w3.org/1999/xlink">
<g id="graph1" class="graph" transform="scale(1 1) rotate(0) translate(4 346)">
<title>G</title>
<polygon fill="white" stroke="white" points="-4,5 -4,-346 407,-346 407,5 -4,5"/>
<!-- Node1 -->
<g id="node1" class="node"><title>Node1</title>
<polygon fill="#bfbfbf" stroke="black" points="0,-160.5 0,-181.5 164,-181.5 164,-160.5 0,-160.5"/>
<text text-anchor="middle" x="82" y="-168.5" font-family="DejaVuSans" font-size="10.00">StorageCharacter::getInstance</text>
</g>
<!-- Node2 -->
<g id="node3" class="node"><title>Node2</title>
<a xlink:href="class_advantages_widget.html#a99d7de9b9f89d58a8361e1fd27162f04" target="_top" xlink:title="AdvantagesWidget::AdvantagesWidget">
<polygon fill="white" stroke="black" points="200.5,-320.5 200.5,-341.5 401.5,-341.5 401.5,-320.5 200.5,-320.5"/>
<text text-anchor="middle" x="301" y="-328.5" font-family="DejaVuSans" font-size="10.00">AdvantagesWidget::AdvantagesWidget</text>
</a>
</g>
<!-- Node1&#45;&gt;Node2 -->
<g id="edge2" class="edge"><title>Node1&#45;&gt;Node2</title>
<path fill="none" stroke="midnightblue" d="M92.5126,-190.448C110.29,-221.326 149.355,-281.123 200,-311 206.466,-314.815 213.529,-317.916 220.819,-320.435"/>
<polygon fill="midnightblue" stroke="midnightblue" points="95.4457,-188.522 87.501,-181.513 89.3405,-191.947 95.4457,-188.522"/>
</g>
<!-- Node3 -->
<g id="node5" class="node"><title>Node3</title>
<a xlink:href="class_attribute_widget.html#ab498116d47f94a62e3b82eaa79976b36" target="_top" xlink:title="AttributeWidget::AttributeWidget">
<polygon fill="white" stroke="black" points="215.5,-280.5 215.5,-301.5 386.5,-301.5 386.5,-280.5 215.5,-280.5"/>
<text text-anchor="middle" x="301" y="-288.5" font-family="DejaVuSans" font-size="10.00">AttributeWidget::AttributeWidget</text>
</a>
</g>
<!-- Node1&#45;&gt;Node3 -->
<g id="edge4" class="edge"><title>Node1&#45;&gt;Node3</title>
<path fill="none" stroke="midnightblue" d="M98.052,-189.444C119.076,-212.347 158.207,-250.85 200,-271 207.97,-274.843 216.634,-277.947 225.426,-280.455"/>
<polygon fill="midnightblue" stroke="midnightblue" points="100.444,-186.869 91.1541,-181.774 95.239,-191.55 100.444,-186.869"/>
</g>
<!-- Node4 -->
<g id="node7" class="node"><title>Node4</title>
<a xlink:href="class_chara_specialties.html#aa32a59e35e6f834d550c14ab896fbe89" target="_top" xlink:title="CharaSpecialties::CharaSpecialties">
<polygon fill="white" stroke="black" points="209.5,-240.5 209.5,-261.5 392.5,-261.5 392.5,-240.5 209.5,-240.5"/>
<text text-anchor="middle" x="301" y="-248.5" font-family="DejaVuSans" font-size="10.00">CharaSpecialties::CharaSpecialties</text>
</a>
</g>
<!-- Node1&#45;&gt;Node4 -->
<g id="edge6" class="edge"><title>Node1&#45;&gt;Node4</title>
<path fill="none" stroke="midnightblue" d="M107.828,-186.76C131.143,-200.338 166.783,-219.513 200,-231 210.896,-234.768 222.713,-237.907 234.296,-240.495"/>
<polygon fill="midnightblue" stroke="midnightblue" points="109.321,-183.577 98.9318,-181.501 105.759,-189.603 109.321,-183.577"/>
</g>
<!-- Node5 -->
<g id="node9" class="node"><title>Node5</title>
<a xlink:href="class_chara_species.html#a22e279137aff84ecc3c8a537bae41080" target="_top" xlink:title="CharaSpecies::CharaSpecies">
<polygon fill="white" stroke="black" points="223.5,-200.5 223.5,-221.5 378.5,-221.5 378.5,-200.5 223.5,-200.5"/>
<text text-anchor="middle" x="301" y="-208.5" font-family="DejaVuSans" font-size="10.00">CharaSpecies::CharaSpecies</text>
</a>
</g>
<!-- Node1&#45;&gt;Node5 -->
<g id="edge8" class="edge"><title>Node1&#45;&gt;Node5</title>
<path fill="none" stroke="midnightblue" d="M149.532,-183.335C179.607,-188.828 214.659,-195.23 243.465,-200.491"/>
<polygon fill="midnightblue" stroke="midnightblue" points="150.006,-179.863 139.54,-181.51 148.748,-186.749 150.006,-179.863"/>
</g>
<!-- Node6 -->
<g id="node11" class="node"><title>Node6</title>
<a xlink:href="class_chara_trait.html#acfe4795a41019f6c92e85e82c0a6ab1a" target="_top" xlink:title="CharaTrait::CharaTrait">
<polygon fill="white" stroke="black" points="241.5,-160.5 241.5,-181.5 360.5,-181.5 360.5,-160.5 241.5,-160.5"/>
<text text-anchor="middle" x="301" y="-168.5" font-family="DejaVuSans" font-size="10.00">CharaTrait::CharaTrait</text>
</a>
</g>
<!-- Node1&#45;&gt;Node6 -->
<g id="edge10" class="edge"><title>Node1&#45;&gt;Node6</title>
<path fill="none" stroke="midnightblue" d="M174.473,-171C197.078,-171 220.676,-171 241.285,-171"/>
<polygon fill="midnightblue" stroke="midnightblue" points="174.171,-167.5 164.171,-171 174.171,-174.5 174.171,-167.5"/>
</g>
<!-- Node7 -->
<g id="node13" class="node"><title>Node7</title>
<a xlink:href="class_check_trait.html#a0e37d389c1ccaf32a2157463d3c055c6" target="_top" xlink:title="CheckTrait::CheckTrait">
<polygon fill="white" stroke="black" points="241,-120.5 241,-141.5 361,-141.5 361,-120.5 241,-120.5"/>
<text text-anchor="middle" x="301" y="-128.5" font-family="DejaVuSans" font-size="10.00">CheckTrait::CheckTrait</text>
</a>
</g>
<!-- Node1&#45;&gt;Node7 -->
<g id="edge12" class="edge"><title>Node1&#45;&gt;Node7</title>
<path fill="none" stroke="midnightblue" d="M149.532,-158.665C179.607,-153.172 214.659,-146.77 243.465,-141.509"/>
<polygon fill="midnightblue" stroke="midnightblue" points="148.748,-155.251 139.54,-160.49 150.006,-162.137 148.748,-155.251"/>
</g>
<!-- Node8 -->
<g id="node15" class="node"><title>Node8</title>
<a xlink:href="class_info_widget.html#a19f07d861d22be4881361a5a32e86451" target="_top" xlink:title="InfoWidget::InfoWidget">
<polygon fill="white" stroke="black" points="240,-80.5 240,-101.5 362,-101.5 362,-80.5 240,-80.5"/>
<text text-anchor="middle" x="301" y="-88.5" font-family="DejaVuSans" font-size="10.00">InfoWidget::InfoWidget</text>
</a>
</g>
<!-- Node1&#45;&gt;Node8 -->
<g id="edge14" class="edge"><title>Node1&#45;&gt;Node8</title>
<path fill="none" stroke="midnightblue" d="M107.828,-155.24C131.143,-141.662 166.783,-122.487 200,-111 212.67,-106.618 226.585,-103.088 239.928,-100.285"/>
<polygon fill="midnightblue" stroke="midnightblue" points="105.759,-152.397 98.9318,-160.499 109.321,-158.423 105.759,-152.397"/>
</g>
<!-- Node9 -->
<g id="node17" class="node"><title>Node9</title>
<a xlink:href="class_main_window.html#a8b244be8b7b7db1b08de2a2acb9409db" target="_top" xlink:title="MainWindow::MainWindow">
<polygon fill="white" stroke="black" points="232.5,-40.5 232.5,-61.5 369.5,-61.5 369.5,-40.5 232.5,-40.5"/>
<text text-anchor="middle" x="301" y="-48.5" font-family="DejaVuSans" font-size="10.00">MainWindow::MainWindow</text>
</a>
</g>
<!-- Node1&#45;&gt;Node9 -->
<g id="edge16" class="edge"><title>Node1&#45;&gt;Node9</title>
<path fill="none" stroke="midnightblue" d="M98.052,-152.556C119.076,-129.653 158.207,-91.15 200,-71 210.063,-66.1481 221.233,-62.4732 232.369,-59.6897"/>
<polygon fill="midnightblue" stroke="midnightblue" points="95.239,-150.45 91.1541,-160.226 100.444,-155.131 95.239,-150.45"/>
</g>
<!-- Node10 -->
<g id="node19" class="node"><title>Node10</title>
<a xlink:href="class_name_dialog.html#a60603361e8f9986a1e1572a6b5d4b752" target="_top" xlink:title="NameDialog::NameDialog">
<polygon fill="white" stroke="black" points="230.5,-0.5 230.5,-21.5 371.5,-21.5 371.5,-0.5 230.5,-0.5"/>
<text text-anchor="middle" x="301" y="-8.5" font-family="DejaVuSans" font-size="10.00">NameDialog::NameDialog</text>
</a>
</g>
<!-- Node1&#45;&gt;Node10 -->
<g id="edge18" class="edge"><title>Node1&#45;&gt;Node10</title>
<path fill="none" stroke="midnightblue" d="M92.5126,-151.552C110.29,-120.674 149.355,-60.8765 200,-31 209.238,-25.5506 219.693,-21.5569 230.288,-18.636"/>
<polygon fill="midnightblue" stroke="midnightblue" points="89.3405,-150.053 87.501,-160.487 95.4457,-153.478 89.3405,-150.053"/>
</g>
</g>
</svg>
