<?xml version="1.0" encoding="UTF-8" standalone="no"?>
<!DOCTYPE svg PUBLIC "-//W3C//DTD SVG 1.1//EN"
 "http://www.w3.org/Graphics/SVG/1.1/DTD/svg11.dtd">
<!-- Generated by graphviz version 2.26.3 (20100126.1600)
 -->
<!-- Title: G Pages: 1 -->
<svg width="410pt" height="150pt"
 viewBox="0.00 0.00 410.00 150.00" xmlns="http://www.w3.org/2000/svg" xmlns:xlink="http://www.w3.org/1999/xlink">
<g id="graph1" class="graph" transform="scale(1 1) rotate(0) translate(4 146)">
<title>G</title>
<polygon fill="white" stroke="white" points="-4,5 -4,-146 407,-146 407,5 -4,5"/>
<!-- Node1 -->
<g id="node1" class="node"><title>Node1</title>
<polygon fill="#bfbfbf" stroke="black" points="0.5,-60.5 0.5,-81.5 201.5,-81.5 201.5,-60.5 0.5,-60.5"/>
<text text-anchor="middle" x="101" y="-68.5" font-family="DejaVuSans" font-size="10.00">AdvantagesWidget::AdvantagesWidget</text>
</g>
<!-- Node2 -->
<g id="node3" class="node"><title>Node2</title>
<a xlink:href="class_storage_template.html#ab1cbf91553890c5a7ec6b5e7dd8aca09" target="_top" xlink:title="StorageTemplate::fuelMax">
<polygon fill="white" stroke="black" points="249.5,-120.5 249.5,-141.5 390.5,-141.5 390.5,-120.5 249.5,-120.5"/>
<text text-anchor="middle" x="320" y="-128.5" font-family="DejaVuSans" font-size="10.00">StorageTemplate::fuelMax</text>
</a>
</g>
<!-- Node1&#45;&gt;Node2 -->
<g id="edge2" class="edge"><title>Node1&#45;&gt;Node2</title>
<path fill="none" stroke="midnightblue" d="M135.507,-81.5404C163.138,-89.8678 202.936,-101.61 238,-111 246.836,-113.366 256.238,-115.767 265.405,-118.046"/>
<polygon fill="midnightblue" stroke="midnightblue" points="264.675,-121.471 275.222,-120.463 266.348,-114.674 264.675,-121.471"/>
</g>
<!-- Node3 -->
<g id="node5" class="node"><title>Node3</title>
<a xlink:href="class_storage_character.html#a50022b948be1e566d902d64095c4470b" target="_top" xlink:title="StorageCharacter::getInstance">
<polygon fill="white" stroke="black" points="238,-80.5 238,-101.5 402,-101.5 402,-80.5 238,-80.5"/>
<text text-anchor="middle" x="320" y="-88.5" font-family="DejaVuSans" font-size="10.00">StorageCharacter::getInstance</text>
</a>
</g>
<!-- Node1&#45;&gt;Node3 -->
<g id="edge4" class="edge"><title>Node1&#45;&gt;Node3</title>
<path fill="none" stroke="midnightblue" d="M201.527,-80.1805C210.255,-80.9776 219.06,-81.7817 227.718,-82.5724"/>
<polygon fill="midnightblue" stroke="midnightblue" points="227.523,-86.0691 237.8,-83.4932 228.16,-79.0981 227.523,-86.0691"/>
</g>
<!-- Node4 -->
<g id="node7" class="node"><title>Node4</title>
<a xlink:href="class_storage_character.html#a003ec6624532c534b04c93f18f9c381c" target="_top" xlink:title="StorageCharacter::species">
<polygon fill="white" stroke="black" points="248,-40.5 248,-61.5 392,-61.5 392,-40.5 248,-40.5"/>
<text text-anchor="middle" x="320" y="-48.5" font-family="DejaVuSans" font-size="10.00">StorageCharacter::species</text>
</a>
</g>
<!-- Node1&#45;&gt;Node4 -->
<g id="edge6" class="edge"><title>Node1&#45;&gt;Node4</title>
<path fill="none" stroke="midnightblue" d="M201.527,-61.8195C213.615,-60.7155 225.851,-59.5981 237.638,-58.5216"/>
<polygon fill="midnightblue" stroke="midnightblue" points="238.227,-61.9825 247.867,-57.5875 237.59,-55.0115 238.227,-61.9825"/>
</g>
<!-- Node5 -->
<g id="node9" class="node"><title>Node5</title>
<a xlink:href="class_storage_character.html#a976fa01b0a773d46a67ddf00670ea5e3" target="_top" xlink:title="StorageCharacter::superTrait">
<polygon fill="white" stroke="black" points="242.5,-0.5 242.5,-21.5 397.5,-21.5 397.5,-0.5 242.5,-0.5"/>
<text text-anchor="middle" x="320" y="-8.5" font-family="DejaVuSans" font-size="10.00">StorageCharacter::superTrait</text>
</a>
</g>
<!-- Node1&#45;&gt;Node5 -->
<g id="edge8" class="edge"><title>Node1&#45;&gt;Node5</title>
<path fill="none" stroke="midnightblue" d="M135.507,-60.4596C163.138,-52.1322 202.936,-40.3899 238,-31 246.836,-28.6339 256.238,-26.2325 265.405,-23.9538"/>
<polygon fill="midnightblue" stroke="midnightblue" points="266.348,-27.3261 275.222,-21.5368 264.675,-20.5291 266.348,-27.3261"/>
</g>
</g>
</svg>
