<?xml version="1.0" encoding="UTF-8" standalone="no"?>
<!DOCTYPE svg PUBLIC "-//W3C//DTD SVG 1.1//EN"
 "http://www.w3.org/Graphics/SVG/1.1/DTD/svg11.dtd">
<!-- Generated by graphviz version 2.26.3 (20100126.1600)
 -->
<!-- Title: G Pages: 1 -->
<svg width="358pt" height="70pt"
 viewBox="0.00 0.00 358.00 70.00" xmlns="http://www.w3.org/2000/svg" xmlns:xlink="http://www.w3.org/1999/xlink">
<g id="graph1" class="graph" transform="scale(1 1) rotate(0) translate(4 66)">
<title>G</title>
<polygon fill="white" stroke="white" points="-4,5 -4,-66 355,-66 355,5 -4,5"/>
<!-- Node1 -->
<g id="node1" class="node"><title>Node1</title>
<polygon fill="#bfbfbf" stroke="black" points="0.5,-20.5 0.5,-41.5 177.5,-41.5 177.5,-20.5 0.5,-20.5"/>
<text text-anchor="middle" x="89" y="-28.5" font-family="DejaVuSans" font-size="10.00">CharaTrait::hideDescriptionWidget</text>
</g>
<!-- Node2 -->
<g id="node3" class="node"><title>Node2</title>
<a xlink:href="class_chara_trait.html#a6f2348de11d23f9f44eb81335a9edf19" target="_top" xlink:title="CharaTrait::custom">
<polygon fill="white" stroke="black" points="228.5,-40.5 228.5,-61.5 335.5,-61.5 335.5,-40.5 228.5,-40.5"/>
<text text-anchor="middle" x="282" y="-48.5" font-family="DejaVuSans" font-size="10.00">CharaTrait::custom</text>
</a>
</g>
<!-- Node1&#45;&gt;Node2 -->
<g id="edge2" class="edge"><title>Node1&#45;&gt;Node2</title>
<path fill="none" stroke="midnightblue" d="M177.592,-40.1805C191.275,-41.5985 205.173,-43.0386 218.173,-44.3858"/>
<polygon fill="midnightblue" stroke="midnightblue" points="218.077,-47.8946 228.385,-45.444 218.799,-40.9318 218.077,-47.8946"/>
</g>
<!-- Node3 -->
<g id="node5" class="node"><title>Node3</title>
<a xlink:href="class_trait_line.html#aba4c8e4ee4f0aab02bb26d4bb63e7dec" target="_top" xlink:title="TraitLine::hideDescription">
<polygon fill="white" stroke="black" points="214,-0.5 214,-21.5 350,-21.5 350,-0.5 214,-0.5"/>
<text text-anchor="middle" x="282" y="-8.5" font-family="DejaVuSans" font-size="10.00">TraitLine::hideDescription</text>
</a>
</g>
<!-- Node1&#45;&gt;Node3 -->
<g id="edge4" class="edge"><title>Node1&#45;&gt;Node3</title>
<path fill="none" stroke="midnightblue" d="M177.592,-21.8195C186.352,-20.9117 195.201,-19.9948 203.845,-19.099"/>
<polygon fill="midnightblue" stroke="midnightblue" points="204.295,-22.5711 213.881,-18.0589 203.574,-15.6084 204.295,-22.5711"/>
</g>
</g>
</svg>
