<?xml version="1.0" encoding="UTF-8" standalone="no"?>
<!DOCTYPE svg PUBLIC "-//W3C//DTD SVG 1.1//EN"
 "http://www.w3.org/Graphics/SVG/1.1/DTD/svg11.dtd">
<!-- Generated by graphviz version 2.26.3 (20100126.1600)
 -->
<!-- Title: G Pages: 1 -->
<svg width="646pt" height="30pt"
 viewBox="0.00 0.00 646.00 30.00" xmlns="http://www.w3.org/2000/svg" xmlns:xlink="http://www.w3.org/1999/xlink">
<g id="graph1" class="graph" transform="scale(1 1) rotate(0) translate(4 26)">
<title>G</title>
<polygon fill="white" stroke="white" points="-4,5 -4,-26 643,-26 643,5 -4,5"/>
<!-- Node1 -->
<g id="node1" class="node"><title>Node1</title>
<polygon fill="#bfbfbf" stroke="black" points="0.5,-0.5 0.5,-21.5 127.5,-21.5 127.5,-0.5 0.5,-0.5"/>
<text text-anchor="middle" x="64" y="-8.5" font-family="DejaVuSans" font-size="10.00">ReadTemplate::process</text>
</g>
<!-- Node2 -->
<g id="node3" class="node"><title>Node2</title>
<a xlink:href="class_read_template.html#a3eb0cc39155f082c8c1d71521431e9f4" target="_top" xlink:title="ReadTemplate::read">
<polygon fill="white" stroke="black" points="164.5,-0.5 164.5,-21.5 275.5,-21.5 275.5,-0.5 164.5,-0.5"/>
<text text-anchor="middle" x="220" y="-8.5" font-family="DejaVuSans" font-size="10.00">ReadTemplate::read</text>
</a>
</g>
<!-- Node1&#45;&gt;Node2 -->
<g id="edge2" class="edge"><title>Node1&#45;&gt;Node2</title>
<path fill="none" stroke="midnightblue" d="M137.921,-11C146.845,-11 155.84,-11 164.437,-11"/>
<polygon fill="midnightblue" stroke="midnightblue" points="137.901,-7.5001 127.901,-11 137.901,-14.5001 137.901,-7.5001"/>
</g>
<!-- Node3 -->
<g id="node5" class="node"><title>Node3</title>
<a xlink:href="class_main_window.html#a1ebe4d2e06ddd16007a29bd1b8c09c49" target="_top" xlink:title="MainWindow::storeTemplateData">
<polygon fill="white" stroke="black" points="312.5,-0.5 312.5,-21.5 483.5,-21.5 483.5,-0.5 312.5,-0.5"/>
<text text-anchor="middle" x="398" y="-8.5" font-family="DejaVuSans" font-size="10.00">MainWindow::storeTemplateData</text>
</a>
</g>
<!-- Node2&#45;&gt;Node3 -->
<g id="edge4" class="edge"><title>Node2&#45;&gt;Node3</title>
<path fill="none" stroke="midnightblue" d="M286.109,-11C294.676,-11 303.548,-11 312.375,-11"/>
<polygon fill="midnightblue" stroke="midnightblue" points="285.832,-7.5001 275.832,-11 285.832,-14.5001 285.832,-7.5001"/>
</g>
<!-- Node4 -->
<g id="node7" class="node"><title>Node4</title>
<a xlink:href="class_main_window.html#a43f05c4d3f5d840d070829d3291c9ec7" target="_top" xlink:title="MainWindow::initialize">
<polygon fill="white" stroke="black" points="520,-0.5 520,-21.5 638,-21.5 638,-0.5 520,-0.5"/>
<text text-anchor="middle" x="579" y="-8.5" font-family="DejaVuSans" font-size="10.00">MainWindow::initialize</text>
</a>
</g>
<!-- Node3&#45;&gt;Node4 -->
<g id="edge6" class="edge"><title>Node3&#45;&gt;Node4</title>
<path fill="none" stroke="midnightblue" d="M493.781,-11C502.675,-11 511.5,-11 519.912,-11"/>
<polygon fill="midnightblue" stroke="midnightblue" points="493.73,-7.5001 483.73,-11 493.729,-14.5001 493.73,-7.5001"/>
</g>
</g>
</svg>
