<?xml version="1.0" encoding="UTF-8" standalone="no"?>
<!DOCTYPE svg PUBLIC "-//W3C//DTD SVG 1.1//EN"
 "http://www.w3.org/Graphics/SVG/1.1/DTD/svg11.dtd">
<!-- Generated by graphviz version 2.26.3 (20100126.1600)
 -->
<!-- Title: G Pages: 1 -->
<svg width="350pt" height="150pt"
 viewBox="0.00 0.00 350.00 150.00" xmlns="http://www.w3.org/2000/svg" xmlns:xlink="http://www.w3.org/1999/xlink">
<g id="graph1" class="graph" transform="scale(1 1) rotate(0) translate(4 146)">
<title>G</title>
<polygon fill="white" stroke="white" points="-4,5 -4,-146 347,-146 347,5 -4,5"/>
<!-- Node1 -->
<g id="node1" class="node"><title>Node1</title>
<polygon fill="#bfbfbf" stroke="black" points="0,-60.5 0,-81.5 180,-81.5 180,-60.5 0,-60.5"/>
<text text-anchor="middle" x="90" y="-68.5" font-family="DejaVuSans" font-size="10.00">CharaTrait::checkTraitPrerequisites</text>
</g>
<!-- Node2 -->
<g id="node3" class="node"><title>Node2</title>
<a xlink:href="class_exception.html#a7cb124af6ec64ad88a8721b60c7932fb" target="_top" xlink:title="Exception::description">
<polygon fill="white" stroke="black" points="218,-120.5 218,-141.5 340,-141.5 340,-120.5 218,-120.5"/>
<text text-anchor="middle" x="279" y="-128.5" font-family="DejaVuSans" font-size="10.00">Exception::description</text>
</a>
</g>
<!-- Node1&#45;&gt;Node2 -->
<g id="edge2" class="edge"><title>Node1&#45;&gt;Node2</title>
<path fill="none" stroke="midnightblue" d="M123.354,-81.5887C154.701,-91.5401 201.779,-106.485 235.948,-117.333"/>
<polygon fill="midnightblue" stroke="midnightblue" points="235.071,-120.727 245.662,-120.416 237.19,-114.055 235.071,-120.727"/>
</g>
<!-- Node3 -->
<g id="node5" class="node"><title>Node3</title>
<a xlink:href="class_exception.html#aeaf3a81717287d50938bc72ed67bacd8" target="_top" xlink:title="Exception::message">
<polygon fill="white" stroke="black" points="222.5,-80.5 222.5,-101.5 335.5,-101.5 335.5,-80.5 222.5,-80.5"/>
<text text-anchor="middle" x="279" y="-88.5" font-family="DejaVuSans" font-size="10.00">Exception::message</text>
</a>
</g>
<!-- Node1&#45;&gt;Node3 -->
<g id="edge4" class="edge"><title>Node1&#45;&gt;Node3</title>
<path fill="none" stroke="midnightblue" d="M180.072,-80.5314C190.91,-81.6784 201.827,-82.8335 212.249,-83.9364"/>
<polygon fill="midnightblue" stroke="midnightblue" points="212.173,-87.4478 222.486,-85.0197 212.91,-80.4867 212.173,-87.4478"/>
</g>
<!-- Node4 -->
<g id="node7" class="node"><title>Node4</title>
<a xlink:href="classcv___abstract_trait.html#a3bbbc5a0073617a70c86741d4c918576" target="_top" xlink:title="cv_AbstractTrait::name">
<polygon fill="white" stroke="black" points="216,-40.5 216,-61.5 342,-61.5 342,-40.5 216,-40.5"/>
<text text-anchor="middle" x="279" y="-48.5" font-family="DejaVuSans" font-size="10.00">cv_AbstractTrait::name</text>
</a>
</g>
<!-- Node1&#45;&gt;Node4 -->
<g id="edge6" class="edge"><title>Node1&#45;&gt;Node4</title>
<path fill="none" stroke="midnightblue" d="M180.072,-61.4686C188.656,-60.5602 197.289,-59.6466 205.687,-58.758"/>
<polygon fill="midnightblue" stroke="midnightblue" points="206.219,-62.2214 215.795,-57.6884 205.482,-55.2602 206.219,-62.2214"/>
</g>
<!-- Node5 -->
<g id="node9" class="node"><title>Node5</title>
<a xlink:href="classcv___trait.html#a6bc140c1db6f0b138451fb8ab38b0661" target="_top" xlink:title="cv_Trait::prerequisites">
<polygon fill="white" stroke="black" points="219,-0.5 219,-21.5 339,-21.5 339,-0.5 219,-0.5"/>
<text text-anchor="middle" x="279" y="-8.5" font-family="DejaVuSans" font-size="10.00">cv_Trait::prerequisites</text>
</a>
</g>
<!-- Node1&#45;&gt;Node5 -->
<g id="edge8" class="edge"><title>Node1&#45;&gt;Node5</title>
<path fill="none" stroke="midnightblue" d="M123.354,-60.4113C154.701,-50.4599 201.779,-35.5146 235.948,-24.6673"/>
<polygon fill="midnightblue" stroke="midnightblue" points="237.19,-27.9454 245.662,-21.5836 235.071,-21.2735 237.19,-27.9454"/>
</g>
</g>
</svg>
