<?xml version="1.0" encoding="UTF-8" standalone="no"?>
<!DOCTYPE svg PUBLIC "-//W3C//DTD SVG 1.1//EN"
 "http://www.w3.org/Graphics/SVG/1.1/DTD/svg11.dtd">
<!-- Generated by graphviz version 2.26.3 (20100126.1600)
 -->
<!-- Title: G Pages: 1 -->
<svg width="1504pt" height="30pt"
 viewBox="0.00 0.00 1504.00 30.00" xmlns="http://www.w3.org/2000/svg" xmlns:xlink="http://www.w3.org/1999/xlink">
<g id="graph1" class="graph" transform="scale(1 1) rotate(0) translate(4 26)">
<title>G</title>
<polygon fill="white" stroke="white" points="-4,5 -4,-26 1501,-26 1501,5 -4,5"/>
<!-- Node1 -->
<g id="node1" class="node"><title>Node1</title>
<polygon fill="#bfbfbf" stroke="black" points="0.5,-0.5 0.5,-21.5 111.5,-21.5 111.5,-0.5 0.5,-0.5"/>
<text text-anchor="middle" x="56" y="-8.5" font-family="DejaVuSans" font-size="10.00">cv_Trait::toCategory</text>
</g>
<!-- Node2 -->
<g id="node3" class="node"><title>Node2</title>
<a xlink:href="class_read_template.html#a85e90e2466fbabcae68cca7e1aec234c" target="_top" xlink:title="ReadTemplate::readTraits">
<polygon fill="white" stroke="black" points="148,-0.5 148,-21.5 284,-21.5 284,-0.5 148,-0.5"/>
<text text-anchor="middle" x="216" y="-8.5" font-family="DejaVuSans" font-size="10.00">ReadTemplate::readTraits</text>
</a>
</g>
<!-- Node1&#45;&gt;Node2 -->
<g id="edge2" class="edge"><title>Node1&#45;&gt;Node2</title>
<path fill="none" stroke="midnightblue" d="M121.57,-11C130.253,-11 139.17,-11 147.894,-11"/>
<polygon fill="midnightblue" stroke="midnightblue" points="121.511,-7.5001 111.511,-11 121.511,-14.5001 121.511,-7.5001"/>
</g>
<!-- Node3 -->
<g id="node5" class="node"><title>Node3</title>
<a xlink:href="class_read_template.html#a5984eef9690e258cc42d09206ad0477f" target="_top" xlink:title="ReadTemplate::readTree">
<polygon fill="white" stroke="black" points="320.5,-0.5 320.5,-21.5 451.5,-21.5 451.5,-0.5 320.5,-0.5"/>
<text text-anchor="middle" x="386" y="-8.5" font-family="DejaVuSans" font-size="10.00">ReadTemplate::readTree</text>
</a>
</g>
<!-- Node2&#45;&gt;Node3 -->
<g id="edge4" class="edge"><title>Node2&#45;&gt;Node3</title>
<path fill="none" stroke="midnightblue" d="M294.307,-11C303.002,-11 311.79,-11 320.306,-11"/>
<polygon fill="midnightblue" stroke="midnightblue" points="294.166,-7.5001 284.166,-11 294.166,-14.5001 294.166,-7.5001"/>
</g>
<!-- Node4 -->
<g id="node7" class="node"><title>Node4</title>
<a xlink:href="class_read_template.html#afadaf1be1c19f9a70a4894a246386ee9" target="_top" xlink:title="ReadTemplate::readSoulCreator">
<polygon fill="white" stroke="black" points="488,-0.5 488,-21.5 656,-21.5 656,-0.5 488,-0.5"/>
<text text-anchor="middle" x="572" y="-8.5" font-family="DejaVuSans" font-size="10.00">ReadTemplate::readSoulCreator</text>
</a>
</g>
<!-- Node3&#45;&gt;Node4 -->
<g id="edge6" class="edge"><title>Node3&#45;&gt;Node4</title>
<path fill="none" stroke="midnightblue" d="M461.593,-11C470.223,-11 479.06,-11 487.792,-11"/>
<polygon fill="midnightblue" stroke="midnightblue" points="461.577,-7.5001 451.577,-11 461.577,-14.5001 461.577,-7.5001"/>
</g>
<!-- Node5 -->
<g id="node9" class="node"><title>Node5</title>
<a xlink:href="class_read_template.html#ad7023d8c02891c892ea33808363bbcd2" target="_top" xlink:title="ReadTemplate::readXml">
<polygon fill="white" stroke="black" points="692.5,-0.5 692.5,-21.5 821.5,-21.5 821.5,-0.5 692.5,-0.5"/>
<text text-anchor="middle" x="757" y="-8.5" font-family="DejaVuSans" font-size="10.00">ReadTemplate::readXml</text>
</a>
</g>
<!-- Node4&#45;&gt;Node5 -->
<g id="edge8" class="edge"><title>Node4&#45;&gt;Node5</title>
<path fill="none" stroke="midnightblue" d="M666.158,-11C675.066,-11 683.954,-11 692.491,-11"/>
<polygon fill="midnightblue" stroke="midnightblue" points="666.109,-7.5001 656.109,-11 666.109,-14.5001 666.109,-7.5001"/>
</g>
<!-- Node6 -->
<g id="node11" class="node"><title>Node6</title>
<a xlink:href="class_read_template.html#a229f7cd3bfc1d0c47caa2cec3a5a0621" target="_top" xlink:title="ReadTemplate::process">
<polygon fill="white" stroke="black" points="858.5,-0.5 858.5,-21.5 985.5,-21.5 985.5,-0.5 858.5,-0.5"/>
<text text-anchor="middle" x="922" y="-8.5" font-family="DejaVuSans" font-size="10.00">ReadTemplate::process</text>
</a>
</g>
<!-- Node5&#45;&gt;Node6 -->
<g id="edge10" class="edge"><title>Node5&#45;&gt;Node6</title>
<path fill="none" stroke="midnightblue" d="M831.971,-11C840.753,-11 849.65,-11 858.259,-11"/>
<polygon fill="midnightblue" stroke="midnightblue" points="831.739,-7.5001 821.739,-11 831.739,-14.5001 831.739,-7.5001"/>
</g>
<!-- Node7 -->
<g id="node13" class="node"><title>Node7</title>
<a xlink:href="class_read_template.html#a3eb0cc39155f082c8c1d71521431e9f4" target="_top" xlink:title="ReadTemplate::read">
<polygon fill="white" stroke="black" points="1022.5,-0.5 1022.5,-21.5 1133.5,-21.5 1133.5,-0.5 1022.5,-0.5"/>
<text text-anchor="middle" x="1078" y="-8.5" font-family="DejaVuSans" font-size="10.00">ReadTemplate::read</text>
</a>
</g>
<!-- Node6&#45;&gt;Node7 -->
<g id="edge12" class="edge"><title>Node6&#45;&gt;Node7</title>
<path fill="none" stroke="midnightblue" d="M995.921,-11C1004.84,-11 1013.84,-11 1022.44,-11"/>
<polygon fill="midnightblue" stroke="midnightblue" points="995.901,-7.5001 985.901,-11 995.901,-14.5001 995.901,-7.5001"/>
</g>
<!-- Node8 -->
<g id="node15" class="node"><title>Node8</title>
<a xlink:href="class_main_window.html#a1ebe4d2e06ddd16007a29bd1b8c09c49" target="_top" xlink:title="MainWindow::storeTemplateData">
<polygon fill="white" stroke="black" points="1170.5,-0.5 1170.5,-21.5 1341.5,-21.5 1341.5,-0.5 1170.5,-0.5"/>
<text text-anchor="middle" x="1256" y="-8.5" font-family="DejaVuSans" font-size="10.00">MainWindow::storeTemplateData</text>
</a>
</g>
<!-- Node7&#45;&gt;Node8 -->
<g id="edge14" class="edge"><title>Node7&#45;&gt;Node8</title>
<path fill="none" stroke="midnightblue" d="M1144.11,-11C1152.68,-11 1161.55,-11 1170.37,-11"/>
<polygon fill="midnightblue" stroke="midnightblue" points="1143.83,-7.5001 1133.83,-11 1143.83,-14.5001 1143.83,-7.5001"/>
</g>
<!-- Node9 -->
<g id="node17" class="node"><title>Node9</title>
<a xlink:href="class_main_window.html#a43f05c4d3f5d840d070829d3291c9ec7" target="_top" xlink:title="MainWindow::initialize">
<polygon fill="white" stroke="black" points="1378,-0.5 1378,-21.5 1496,-21.5 1496,-0.5 1378,-0.5"/>
<text text-anchor="middle" x="1437" y="-8.5" font-family="DejaVuSans" font-size="10.00">MainWindow::initialize</text>
</a>
</g>
<!-- Node8&#45;&gt;Node9 -->
<g id="edge16" class="edge"><title>Node8&#45;&gt;Node9</title>
<path fill="none" stroke="midnightblue" d="M1351.78,-11C1360.67,-11 1369.5,-11 1377.91,-11"/>
<polygon fill="midnightblue" stroke="midnightblue" points="1351.73,-7.5001 1341.73,-11 1351.73,-14.5001 1351.73,-7.5001"/>
</g>
</g>
</svg>
