<?xml version="1.0" encoding="UTF-8" standalone="no"?>
<!DOCTYPE svg PUBLIC "-//W3C//DTD SVG 1.1//EN"
 "http://www.w3.org/Graphics/SVG/1.1/DTD/svg11.dtd">
<!-- Generated by graphviz version 2.26.3 (20100126.1600)
 -->
<!-- Title: G Pages: 1 -->
<svg width="288pt" height="146pt"
 viewBox="0.00 0.00 288.00 146.00" xmlns="http://www.w3.org/2000/svg" xmlns:xlink="http://www.w3.org/1999/xlink">
<g id="graph1" class="graph" transform="scale(1 1) rotate(0) translate(4 142)">
<title>G</title>
<polygon fill="white" stroke="white" points="-4,5 -4,-142 285,-142 285,5 -4,5"/>
<!-- Node1 -->
<g id="node1" class="node"><title>Node1</title>
<polygon fill="#bfbfbf" stroke="black" points="131,-58.5 131,-79.5 173,-79.5 173,-58.5 131,-58.5"/>
<text text-anchor="middle" x="152" y="-66.5" font-family="DejaVuSans" font-size="10.00">eTrait</text>
</g>
<!-- Node3 -->
<g id="node5" class="node"><title>Node3</title>
<a xlink:href="classe_trait_category.html" target="_top" xlink:title="Ausnahme, falls eine falsche Kategorie genutzt wird.">
<polygon fill="white" stroke="black" points="0,-0.5 0,-21.5 86,-21.5 86,-0.5 0,-0.5"/>
<text text-anchor="middle" x="43" y="-8.5" font-family="DejaVuSans" font-size="10.00">eTraitCategory</text>
</a>
</g>
<!-- Node1&#45;&gt;Node3 -->
<g id="edge4" class="edge"><title>Node1&#45;&gt;Node3</title>
<path fill="none" stroke="midnightblue" d="M123.423,-53.794C104.406,-43.6746 79.898,-30.6338 62.9606,-21.6212"/>
<polygon fill="midnightblue" stroke="midnightblue" points="121.789,-56.8889 132.261,-58.4966 125.077,-50.7093 121.789,-56.8889"/>
</g>
<!-- Node4 -->
<g id="node7" class="node"><title>Node4</title>
<a xlink:href="classe_trait_not_existing.html" target="_top" xlink:title="Ausnahme, falls eine spezifizierte Eigenscahft nicht existiert.">
<polygon fill="white" stroke="black" points="104,-0.5 104,-21.5 200,-21.5 200,-0.5 104,-0.5"/>
<text text-anchor="middle" x="152" y="-8.5" font-family="DejaVuSans" font-size="10.00">eTraitNotExisting</text>
</a>
</g>
<!-- Node1&#45;&gt;Node4 -->
<g id="edge6" class="edge"><title>Node1&#45;&gt;Node4</title>
<path fill="none" stroke="midnightblue" d="M152,-48.1906C152,-39.1684 152,-28.9941 152,-21.5707"/>
<polygon fill="midnightblue" stroke="midnightblue" points="148.5,-48.3619 152,-58.3619 155.5,-48.3619 148.5,-48.3619"/>
</g>
<!-- Node5 -->
<g id="node9" class="node"><title>Node5</title>
<a xlink:href="classe_trait_type.html" target="_top" xlink:title="Ausnahme, falls ein falscher Typ genutzt wird.">
<polygon fill="white" stroke="black" points="217.5,-0.5 217.5,-21.5 280.5,-21.5 280.5,-0.5 217.5,-0.5"/>
<text text-anchor="middle" x="249" y="-8.5" font-family="DejaVuSans" font-size="10.00">eTraitType</text>
</a>
</g>
<!-- Node1&#45;&gt;Node5 -->
<g id="edge8" class="edge"><title>Node1&#45;&gt;Node5</title>
<path fill="none" stroke="midnightblue" d="M178.59,-53.1009C195.373,-43.0658 216.587,-30.3808 231.321,-21.5707"/>
<polygon fill="midnightblue" stroke="midnightblue" points="176.578,-50.226 169.791,-58.3619 180.17,-56.2339 176.578,-50.226"/>
</g>
<!-- Node2 -->
<g id="node2" class="node"><title>Node2</title>
<a xlink:href="class_exception.html" target="_top" xlink:title="Basisklasse für die Ausnahmebehandlung.">
<polygon fill="white" stroke="black" points="120.5,-116.5 120.5,-137.5 183.5,-137.5 183.5,-116.5 120.5,-116.5"/>
<text text-anchor="middle" x="152" y="-124.5" font-family="DejaVuSans" font-size="10.00">Exception</text>
</a>
</g>
<!-- Node2&#45;&gt;Node1 -->
<g id="edge2" class="edge"><title>Node2&#45;&gt;Node1</title>
<path fill="none" stroke="midnightblue" d="M152,-106.191C152,-97.1684 152,-86.9941 152,-79.5707"/>
<polygon fill="midnightblue" stroke="midnightblue" points="148.5,-106.362 152,-116.362 155.5,-106.362 148.5,-106.362"/>
</g>
</g>
</svg>
