<?xml version="1.0" encoding="UTF-8" standalone="no"?>
<!DOCTYPE svg PUBLIC "-//W3C//DTD SVG 1.1//EN"
 "http://www.w3.org/Graphics/SVG/1.1/DTD/svg11.dtd">
<!-- Generated by graphviz version 2.26.3 (20100126.1600)
 -->
<!-- Title: G Pages: 1 -->
<svg width="460pt" height="108pt"
 viewBox="0.00 0.00 460.00 108.00" xmlns="http://www.w3.org/2000/svg" xmlns:xlink="http://www.w3.org/1999/xlink">
<g id="graph1" class="graph" transform="scale(1 1) rotate(0) translate(4 104)">
<title>G</title>
<polygon fill="white" stroke="white" points="-4,5 -4,-104 457,-104 457,5 -4,5"/>
<!-- Node1 -->
<g id="node1" class="node"><title>Node1</title>
<polygon fill="#bfbfbf" stroke="black" points="0,-39.5 0,-60.5 142,-60.5 142,-39.5 0,-39.5"/>
<text text-anchor="middle" x="71" y="-47.5" font-family="DejaVuSans" font-size="10.00">CharaTrait::setCustomText</text>
</g>
<!-- Node2 -->
<g id="node3" class="node"><title>Node2</title>
<a xlink:href="class_chara_trait.html#a7cc9b10030c5e6d5030fb898506ee070" target="_top" xlink:title="CharaTrait::customText">
<polygon fill="white" stroke="black" points="182.5,-78.5 182.5,-99.5 307.5,-99.5 307.5,-78.5 182.5,-78.5"/>
<text text-anchor="middle" x="245" y="-86.5" font-family="DejaVuSans" font-size="10.00">CharaTrait::customText</text>
</a>
</g>
<!-- Node1&#45;&gt;Node2 -->
<g id="edge2" class="edge"><title>Node1&#45;&gt;Node2</title>
<path fill="none" stroke="midnightblue" d="M118.087,-60.554C139.654,-65.388 165.4,-71.1586 188.048,-76.2349"/>
<polygon fill="midnightblue" stroke="midnightblue" points="187.352,-79.6657 197.875,-78.4376 188.883,-72.8351 187.352,-79.6657"/>
</g>
<!-- Node3 -->
<g id="node5" class="node"><title>Node3</title>
<a xlink:href="class_chara_trait.html#acd1abb86d271f401b9856f2c8e172255" target="_top" xlink:title="CharaTrait::traitPtr">
<polygon fill="white" stroke="black" points="348,-58.5 348,-79.5 452,-79.5 452,-58.5 348,-58.5"/>
<text text-anchor="middle" x="400" y="-66.5" font-family="DejaVuSans" font-size="10.00">CharaTrait::traitPtr</text>
</a>
</g>
<!-- Node1&#45;&gt;Node3 -->
<g id="edge8" class="edge"><title>Node1&#45;&gt;Node3</title>
<path fill="none" stroke="midnightblue" d="M142.388,-54.1227C200.655,-57.4877 282.161,-62.1947 337.79,-65.4073"/>
<polygon fill="midnightblue" stroke="midnightblue" points="337.68,-68.9067 347.865,-65.9891 338.083,-61.9183 337.68,-68.9067"/>
</g>
<!-- Node4 -->
<g id="node7" class="node"><title>Node4</title>
<a xlink:href="class_chara_trait.html#ab3935a94198f510d3de473a9a72692ac" target="_top" xlink:title="CharaTrait::traitChanged">
<polygon fill="white" stroke="black" points="178.5,-0.5 178.5,-21.5 311.5,-21.5 311.5,-0.5 178.5,-0.5"/>
<text text-anchor="middle" x="245" y="-8.5" font-family="DejaVuSans" font-size="10.00">CharaTrait::traitChanged</text>
</a>
</g>
<!-- Node1&#45;&gt;Node4 -->
<g id="edge6" class="edge"><title>Node1&#45;&gt;Node4</title>
<path fill="none" stroke="midnightblue" d="M118.087,-39.446C139.654,-34.612 165.4,-28.8414 188.048,-23.7651"/>
<polygon fill="midnightblue" stroke="midnightblue" points="188.883,-27.1649 197.875,-21.5624 187.352,-20.3343 188.883,-27.1649"/>
</g>
<!-- Node2&#45;&gt;Node3 -->
<g id="edge4" class="edge"><title>Node2&#45;&gt;Node3</title>
<path fill="none" stroke="midnightblue" d="M307.598,-80.9229C317.45,-79.6516 327.637,-78.3372 337.488,-77.0661"/>
<polygon fill="midnightblue" stroke="midnightblue" points="338.134,-80.5119 347.603,-75.7608 337.238,-73.5694 338.134,-80.5119"/>
</g>
</g>
</svg>
