<?xml version="1.0" encoding="UTF-8" standalone="no"?>
<!DOCTYPE svg PUBLIC "-//W3C//DTD SVG 1.1//EN"
 "http://www.w3.org/Graphics/SVG/1.1/DTD/svg11.dtd">
<!-- Generated by graphviz version 2.26.3 (20100126.1600)
 -->
<!-- Title: G Pages: 1 -->
<svg width="388pt" height="102pt"
 viewBox="0.00 0.00 388.00 102.00" xmlns="http://www.w3.org/2000/svg" xmlns:xlink="http://www.w3.org/1999/xlink">
<g id="graph1" class="graph" transform="scale(1 1) rotate(0) translate(4 98)">
<title>G</title>
<polygon fill="white" stroke="white" points="-4,5 -4,-98 385,-98 385,5 -4,5"/>
<!-- Node1 -->
<g id="node1" class="node"><title>Node1</title>
<polygon fill="#bfbfbf" stroke="black" points="0,-0.5 0,-21.5 380,-21.5 380,-0.5 0,-0.5"/>
<text text-anchor="middle" x="190" y="-8.5" font-family="DejaVuSans" font-size="10.00">src.Widgets.Components.DerangementComboBox.DerangementComboBox</text>
</g>
<!-- Node2 -->
<g id="node2" class="node"><title>Node2</title>
<polygon fill="white" stroke="#bfbfbf" points="113.5,-72.5 113.5,-93.5 190.5,-93.5 190.5,-72.5 113.5,-72.5"/>
<text text-anchor="middle" x="152" y="-80.5" font-family="DejaVuSans" font-size="10.00">QComboBox</text>
</g>
<!-- Node2&#45;&gt;Node1 -->
<g id="edge2" class="edge"><title>Node2&#45;&gt;Node1</title>
<path fill="none" stroke="midnightblue" d="M162.334,-63.4193C169.431,-49.9734 178.58,-32.6384 184.37,-21.6674"/>
<polygon fill="midnightblue" stroke="midnightblue" points="159.179,-61.8986 157.607,-72.3762 165.37,-65.166 159.179,-61.8986"/>
</g>
<!-- Node3 -->
<g id="node4" class="node"><title>Node3</title>
<polygon fill="white" stroke="#bfbfbf" points="207.5,-72.5 207.5,-93.5 248.5,-93.5 248.5,-72.5 207.5,-72.5"/>
<text text-anchor="middle" x="228" y="-80.5" font-family="DejaVuSans" font-size="10.00">tuple</text>
</g>
<!-- Node3&#45;&gt;Node1 -->
<g id="edge4" class="edge"><title>Node3&#45;&gt;Node1</title>
<path fill="none" stroke="#9a32cd" stroke-dasharray="5,2" d="M217.666,-63.4193C210.569,-49.9734 201.42,-32.6384 195.63,-21.6674"/>
<polygon fill="#9a32cd" stroke="#9a32cd" points="214.63,-65.166 222.393,-72.3762 220.821,-61.8986 214.63,-65.166"/>
<text text-anchor="middle" x="266.5" y="-44.5" font-family="DejaVuSans" font-size="10.00">derangementChanged</text>
</g>
</g>
</svg>
