<?xml version="1.0" encoding="UTF-8" standalone="no"?>
<!DOCTYPE svg PUBLIC "-//W3C//DTD SVG 1.1//EN"
 "http://www.w3.org/Graphics/SVG/1.1/DTD/svg11.dtd">
<!-- Generated by graphviz version 2.26.3 (20100126.1600)
 -->
<!-- Title: G Pages: 1 -->
<svg width="402pt" height="70pt"
 viewBox="0.00 0.00 402.00 70.00" xmlns="http://www.w3.org/2000/svg" xmlns:xlink="http://www.w3.org/1999/xlink">
<g id="graph1" class="graph" transform="scale(1 1) rotate(0) translate(4 66)">
<title>G</title>
<polygon fill="white" stroke="white" points="-4,5 -4,-66 399,-66 399,5 -4,5"/>
<!-- Node1 -->
<g id="node1" class="node"><title>Node1</title>
<polygon fill="#bfbfbf" stroke="black" points="0.5,-20.5 0.5,-41.5 155.5,-41.5 155.5,-20.5 0.5,-20.5"/>
<text text-anchor="middle" x="78" y="-28.5" font-family="DejaVuSans" font-size="10.00">StorageCharacter::superTrait</text>
</g>
<!-- Node2 -->
<g id="node3" class="node"><title>Node2</title>
<a xlink:href="class_advantages_widget.html#a99d7de9b9f89d58a8361e1fd27162f04" target="_top" xlink:title="AdvantagesWidget::AdvantagesWidget">
<polygon fill="white" stroke="black" points="192.5,-40.5 192.5,-61.5 393.5,-61.5 393.5,-40.5 192.5,-40.5"/>
<text text-anchor="middle" x="293" y="-48.5" font-family="DejaVuSans" font-size="10.00">AdvantagesWidget::AdvantagesWidget</text>
</a>
</g>
<!-- Node1&#45;&gt;Node2 -->
<g id="edge2" class="edge"><title>Node1&#45;&gt;Node2</title>
<path fill="none" stroke="midnightblue" d="M165.779,-39.1655C174.515,-39.9782 183.432,-40.8076 192.287,-41.6313"/>
<polygon fill="midnightblue" stroke="midnightblue" points="165.901,-35.6618 155.62,-38.2205 165.253,-42.6317 165.901,-35.6618"/>
</g>
<!-- Node3 -->
<g id="node5" class="node"><title>Node3</title>
<a xlink:href="class_write_xml_character.html#af657074e346540e71b20ab2ccae3bc9c" target="_top" xlink:title="WriteXmlCharacter::write">
<polygon fill="white" stroke="black" points="226,-0.5 226,-21.5 360,-21.5 360,-0.5 226,-0.5"/>
<text text-anchor="middle" x="293" y="-8.5" font-family="DejaVuSans" font-size="10.00">WriteXmlCharacter::write</text>
</a>
</g>
<!-- Node1&#45;&gt;Node3 -->
<g id="edge4" class="edge"><title>Node1&#45;&gt;Node3</title>
<path fill="none" stroke="midnightblue" d="M165.691,-22.8427C185.75,-20.9767 206.762,-19.0221 225.802,-17.251"/>
<polygon fill="midnightblue" stroke="midnightblue" points="165.253,-19.3683 155.62,-23.7795 165.901,-26.3382 165.253,-19.3683"/>
</g>
</g>
</svg>
