<?xml version="1.0" encoding="UTF-8" standalone="no"?>
<!DOCTYPE svg PUBLIC "-//W3C//DTD SVG 1.1//EN"
 "http://www.w3.org/Graphics/SVG/1.1/DTD/svg11.dtd">
<!-- Generated by graphviz version 2.26.3 (20100126.1600)
 -->
<!-- Title: G Pages: 1 -->
<svg width="350pt" height="70pt"
 viewBox="0.00 0.00 350.00 70.00" xmlns="http://www.w3.org/2000/svg" xmlns:xlink="http://www.w3.org/1999/xlink">
<g id="graph1" class="graph" transform="scale(1 1) rotate(0) translate(4 66)">
<title>G</title>
<polygon fill="white" stroke="white" points="-4,5 -4,-66 347,-66 347,5 -4,5"/>
<!-- Node1 -->
<g id="node1" class="node"><title>Node1</title>
<polygon fill="#bfbfbf" stroke="black" points="0.5,-20.5 0.5,-41.5 141.5,-41.5 141.5,-20.5 0.5,-20.5"/>
<text text-anchor="middle" x="71" y="-28.5" font-family="DejaVuSans" font-size="10.00">NameDialog::NameDialog</text>
</g>
<!-- Node2 -->
<g id="node3" class="node"><title>Node2</title>
<a xlink:href="class_storage_character.html#a50022b948be1e566d902d64095c4470b" target="_top" xlink:title="StorageCharacter::getInstance">
<polygon fill="white" stroke="black" points="178,-40.5 178,-61.5 342,-61.5 342,-40.5 178,-40.5"/>
<text text-anchor="middle" x="260" y="-48.5" font-family="DejaVuSans" font-size="10.00">StorageCharacter::getInstance</text>
</a>
</g>
<!-- Node1&#45;&gt;Node2 -->
<g id="edge2" class="edge"><title>Node1&#45;&gt;Node2</title>
<path fill="none" stroke="midnightblue" d="M141.645,-38.4757C150.254,-39.3866 159.145,-40.3275 168.006,-41.2652"/>
<polygon fill="midnightblue" stroke="midnightblue" points="167.669,-44.749 177.982,-42.3208 168.406,-37.7878 167.669,-44.749"/>
</g>
<!-- Node3 -->
<g id="node5" class="node"><title>Node3</title>
<a xlink:href="class_storage_character.html#abb7991be121ab6479a23a293841ef01e" target="_top" xlink:title="StorageCharacter::identities">
<polygon fill="white" stroke="black" points="184,-0.5 184,-21.5 336,-21.5 336,-0.5 184,-0.5"/>
<text text-anchor="middle" x="260" y="-8.5" font-family="DejaVuSans" font-size="10.00">StorageCharacter::identities</text>
</a>
</g>
<!-- Node1&#45;&gt;Node3 -->
<g id="edge4" class="edge"><title>Node1&#45;&gt;Node3</title>
<path fill="none" stroke="midnightblue" d="M141.645,-23.5243C152.054,-22.4228 162.876,-21.2777 173.559,-20.1471"/>
<polygon fill="midnightblue" stroke="midnightblue" points="174.166,-23.6026 183.742,-19.0696 173.429,-16.6415 174.166,-23.6026"/>
</g>
</g>
</svg>
