<?xml version="1.0" encoding="UTF-8" standalone="no"?>
<!DOCTYPE svg PUBLIC "-//W3C//DTD SVG 1.1//EN"
 "http://www.w3.org/Graphics/SVG/1.1/DTD/svg11.dtd">
<!-- Generated by graphviz version 2.26.3 (20100126.1600)
 -->
<!-- Title: G Pages: 1 -->
<svg width="488pt" height="110pt"
 viewBox="0.00 0.00 488.00 110.00" xmlns="http://www.w3.org/2000/svg" xmlns:xlink="http://www.w3.org/1999/xlink">
<g id="graph1" class="graph" transform="scale(1 1) rotate(0) translate(4 106)">
<title>G</title>
<polygon fill="white" stroke="white" points="-4,5 -4,-106 485,-106 485,5 -4,5"/>
<!-- Node1 -->
<g id="node1" class="node"><title>Node1</title>
<polygon fill="#bfbfbf" stroke="black" points="0,-40.5 0,-61.5 116,-61.5 116,-40.5 0,-40.5"/>
<text text-anchor="middle" x="58" y="-48.5" font-family="DejaVuSans" font-size="10.00">Trait::detailsChanged</text>
</g>
<!-- Node2 -->
<g id="node3" class="node"><title>Node2</title>
<a xlink:href="class_trait.html#ab6460ff9f5e4837d97c857cc06e0fa21" target="_top" xlink:title="Trait::addDetail">
<polygon fill="white" stroke="black" points="157,-80.5 157,-101.5 245,-101.5 245,-80.5 157,-80.5"/>
<text text-anchor="middle" x="201" y="-88.5" font-family="DejaVuSans" font-size="10.00">Trait::addDetail</text>
</a>
</g>
<!-- Node1&#45;&gt;Node2 -->
<g id="edge2" class="edge"><title>Node1&#45;&gt;Node2</title>
<path fill="none" stroke="midnightblue" d="M105.416,-64.2632C124.19,-69.5148 145.473,-75.4681 163.183,-80.4218"/>
<polygon fill="midnightblue" stroke="midnightblue" points="106.145,-60.8328 95.5716,-61.5095 104.259,-67.574 106.145,-60.8328"/>
</g>
<!-- Node4 -->
<g id="node7" class="node"><title>Node4</title>
<a xlink:href="class_trait.html#aa416615b30fcac6dbcfc064d7ad1d40b" target="_top" xlink:title="Trait::clearDetails">
<polygon fill="white" stroke="black" points="152,-40.5 152,-61.5 250,-61.5 250,-40.5 152,-40.5"/>
<text text-anchor="middle" x="201" y="-48.5" font-family="DejaVuSans" font-size="10.00">Trait::clearDetails</text>
</a>
</g>
<!-- Node1&#45;&gt;Node4 -->
<g id="edge6" class="edge"><title>Node1&#45;&gt;Node4</title>
<path fill="none" stroke="midnightblue" d="M126.169,-51C134.743,-51 143.38,-51 151.587,-51"/>
<polygon fill="midnightblue" stroke="midnightblue" points="126.164,-47.5001 116.164,-51 126.164,-54.5001 126.164,-47.5001"/>
</g>
<!-- Node5 -->
<g id="node10" class="node"><title>Node5</title>
<a xlink:href="class_trait.html#a8d2ca547e2dd3189858cbd8aa1c52efd" target="_top" xlink:title="Trait::setDetails">
<polygon fill="white" stroke="black" points="156,-0.5 156,-21.5 246,-21.5 246,-0.5 156,-0.5"/>
<text text-anchor="middle" x="201" y="-8.5" font-family="DejaVuSans" font-size="10.00">Trait::setDetails</text>
</a>
</g>
<!-- Node1&#45;&gt;Node5 -->
<g id="edge10" class="edge"><title>Node1&#45;&gt;Node5</title>
<path fill="none" stroke="midnightblue" d="M105.416,-37.7368C124.19,-32.4852 145.473,-26.5319 163.183,-21.5782"/>
<polygon fill="midnightblue" stroke="midnightblue" points="104.259,-34.426 95.5716,-40.4905 106.145,-41.1672 104.259,-34.426"/>
</g>
<!-- Node3 -->
<g id="node5" class="node"><title>Node3</title>
<a xlink:href="class_storage_character.html#a6273e4a5881f52b074bb1e4885ce70a6" target="_top" xlink:title="StorageCharacter::setSkillSpecialties">
<polygon fill="white" stroke="black" points="286,-60.5 286,-81.5 480,-81.5 480,-60.5 286,-60.5"/>
<text text-anchor="middle" x="383" y="-68.5" font-family="DejaVuSans" font-size="10.00">StorageCharacter::setSkillSpecialties</text>
</a>
</g>
<!-- Node2&#45;&gt;Node3 -->
<g id="edge4" class="edge"><title>Node2&#45;&gt;Node3</title>
<path fill="none" stroke="midnightblue" d="M255.3,-85.033C265.405,-83.9225 276.237,-82.7322 287.162,-81.5317"/>
<polygon fill="midnightblue" stroke="midnightblue" points="254.615,-81.5871 245.057,-86.1586 255.38,-88.5452 254.615,-81.5871"/>
</g>
<!-- Node4&#45;&gt;Node3 -->
<g id="edge8" class="edge"><title>Node4&#45;&gt;Node3</title>
<path fill="none" stroke="midnightblue" d="M260.273,-57.5135C269.003,-58.4729 278.179,-59.4812 287.417,-60.4964"/>
<polygon fill="midnightblue" stroke="midnightblue" points="260.574,-54.0256 250.252,-56.4123 259.81,-60.9838 260.574,-54.0256"/>
</g>
<!-- Node6 -->
<g id="node12" class="node"><title>Node6</title>
<a xlink:href="class_trait.html#af91999c7db93d064bf79f1a72133152a" target="_top" xlink:title="Trait::Trait">
<polygon fill="white" stroke="black" points="352,-0.5 352,-21.5 414,-21.5 414,-0.5 352,-0.5"/>
<text text-anchor="middle" x="383" y="-8.5" font-family="DejaVuSans" font-size="10.00">Trait::Trait</text>
</a>
</g>
<!-- Node5&#45;&gt;Node6 -->
<g id="edge12" class="edge"><title>Node5&#45;&gt;Node6</title>
<path fill="none" stroke="midnightblue" d="M256.769,-11C287.996,-11 325.768,-11 351.81,-11"/>
<polygon fill="midnightblue" stroke="midnightblue" points="256.457,-7.5001 246.457,-11 256.457,-14.5001 256.457,-7.5001"/>
</g>
</g>
</svg>
