<?xml version="1.0" encoding="UTF-8" standalone="no"?>
<!DOCTYPE svg PUBLIC "-//W3C//DTD SVG 1.1//EN"
 "http://www.w3.org/Graphics/SVG/1.1/DTD/svg11.dtd">
<!-- Generated by graphviz version 2.26.3 (20100126.1600)
 -->
<!-- Title: G Pages: 1 -->
<svg width="470pt" height="30pt"
 viewBox="0.00 0.00 470.00 30.00" xmlns="http://www.w3.org/2000/svg" xmlns:xlink="http://www.w3.org/1999/xlink">
<g id="graph1" class="graph" transform="scale(1 1) rotate(0) translate(4 26)">
<title>G</title>
<polygon fill="white" stroke="white" points="-4,5 -4,-26 467,-26 467,5 -4,5"/>
<!-- Node1 -->
<g id="node1" class="node"><title>Node1</title>
<polygon fill="#bfbfbf" stroke="black" points="0,-0.5 0,-21.5 126,-21.5 126,-0.5 0,-0.5"/>
<text text-anchor="middle" x="63" y="-8.5" font-family="DejaVuSans" font-size="10.00">CheckTrait::customText</text>
</g>
<!-- Node2 -->
<g id="node3" class="node"><title>Node2</title>
<a xlink:href="class_check_trait.html#a70a2f81f0fc8e246b3296583ec853b4a" target="_top" xlink:title="CheckTrait::setCustomText">
<polygon fill="white" stroke="black" points="162.5,-0.5 162.5,-21.5 305.5,-21.5 305.5,-0.5 162.5,-0.5"/>
<text text-anchor="middle" x="234" y="-8.5" font-family="DejaVuSans" font-size="10.00">CheckTrait::setCustomText</text>
</a>
</g>
<!-- Node1&#45;&gt;Node2 -->
<g id="edge2" class="edge"><title>Node1&#45;&gt;Node2</title>
<path fill="none" stroke="midnightblue" d="M136.265,-11C144.934,-11 153.775,-11 162.421,-11"/>
<polygon fill="midnightblue" stroke="midnightblue" points="136.188,-7.5001 126.188,-11 136.188,-14.5001 136.188,-7.5001"/>
</g>
<!-- Node3 -->
<g id="node5" class="node"><title>Node3</title>
<a xlink:href="class_check_trait.html#a3d74335165852938fb58d285bcc25b52" target="_top" xlink:title="CheckTrait::CheckTrait">
<polygon fill="white" stroke="black" points="342,-0.5 342,-21.5 462,-21.5 462,-0.5 342,-0.5"/>
<text text-anchor="middle" x="402" y="-8.5" font-family="DejaVuSans" font-size="10.00">CheckTrait::CheckTrait</text>
</a>
</g>
<!-- Node2&#45;&gt;Node3 -->
<g id="edge4" class="edge"><title>Node2&#45;&gt;Node3</title>
<path fill="none" stroke="midnightblue" d="M315.952,-11C324.686,-11 333.451,-11 341.866,-11"/>
<polygon fill="midnightblue" stroke="midnightblue" points="315.734,-7.5001 305.734,-11 315.734,-14.5001 315.734,-7.5001"/>
</g>
</g>
</svg>
