<?xml version="1.0" encoding="UTF-8" standalone="no"?>
<!DOCTYPE svg PUBLIC "-//W3C//DTD SVG 1.1//EN"
 "http://www.w3.org/Graphics/SVG/1.1/DTD/svg11.dtd">
<!-- Generated by graphviz version 2.26.3 (20100126.1600)
 -->
<!-- Title: G Pages: 1 -->
<svg width="396pt" height="110pt"
 viewBox="0.00 0.00 396.00 110.00" xmlns="http://www.w3.org/2000/svg" xmlns:xlink="http://www.w3.org/1999/xlink">
<g id="graph1" class="graph" transform="scale(1 1) rotate(0) translate(4 106)">
<title>G</title>
<polygon fill="white" stroke="white" points="-4,5 -4,-106 393,-106 393,5 -4,5"/>
<!-- Node1 -->
<g id="node1" class="node"><title>Node1</title>
<polygon fill="#bfbfbf" stroke="black" points="0.5,-40.5 0.5,-61.5 157.5,-61.5 157.5,-40.5 0.5,-40.5"/>
<text text-anchor="middle" x="79" y="-48.5" font-family="DejaVuSans" font-size="10.00">ReadTemplate::storeTraitData</text>
</g>
<!-- Node2 -->
<g id="node3" class="node"><title>Node2</title>
<a xlink:href="class_read_template.html#a7421603688e1dedca296c0ed3888a4bc" target="_top" xlink:title="ReadTemplate::readUnknownElement">
<polygon fill="white" stroke="black" points="194,-80.5 194,-101.5 388,-101.5 388,-80.5 194,-80.5"/>
<text text-anchor="middle" x="291" y="-88.5" font-family="DejaVuSans" font-size="10.00">ReadTemplate::readUnknownElement</text>
</a>
</g>
<!-- Node1&#45;&gt;Node2 -->
<g id="edge2" class="edge"><title>Node1&#45;&gt;Node2</title>
<path fill="none" stroke="midnightblue" d="M134.701,-61.5095C162.465,-66.7481 196.223,-73.1175 225.251,-78.5945"/>
<polygon fill="midnightblue" stroke="midnightblue" points="224.828,-82.0764 235.304,-80.4913 226.126,-75.1978 224.828,-82.0764"/>
</g>
<!-- Node3 -->
<g id="node5" class="node"><title>Node3</title>
<a xlink:href="classcv___trait.html#a776af93d2332bdaa4631e22e6bdb7ace" target="_top" xlink:title="cv_Trait::toAge">
<polygon fill="white" stroke="black" points="248,-40.5 248,-61.5 334,-61.5 334,-40.5 248,-40.5"/>
<text text-anchor="middle" x="291" y="-48.5" font-family="DejaVuSans" font-size="10.00">cv_Trait::toAge</text>
</a>
</g>
<!-- Node1&#45;&gt;Node3 -->
<g id="edge4" class="edge"><title>Node1&#45;&gt;Node3</title>
<path fill="none" stroke="midnightblue" d="M157.64,-51C184.345,-51 213.537,-51 237.782,-51"/>
<polygon fill="midnightblue" stroke="midnightblue" points="237.849,-54.5001 247.849,-51 237.849,-47.5001 237.849,-54.5001"/>
</g>
<!-- Node4 -->
<g id="node7" class="node"><title>Node4</title>
<a xlink:href="classcv___trait.html#a5a4e945a0525b67b5a5154cfff9fb96f" target="_top" xlink:title="cv_Trait::toEra">
<polygon fill="white" stroke="black" points="249.5,-0.5 249.5,-21.5 332.5,-21.5 332.5,-0.5 249.5,-0.5"/>
<text text-anchor="middle" x="291" y="-8.5" font-family="DejaVuSans" font-size="10.00">cv_Trait::toEra</text>
</a>
</g>
<!-- Node1&#45;&gt;Node4 -->
<g id="edge6" class="edge"><title>Node1&#45;&gt;Node4</title>
<path fill="none" stroke="midnightblue" d="M134.701,-40.4905C167.135,-34.3707 207.75,-26.7076 239.448,-20.7269"/>
<polygon fill="midnightblue" stroke="midnightblue" points="240.226,-24.1418 249.404,-18.8483 238.929,-17.2631 240.226,-24.1418"/>
</g>
</g>
</svg>
