<?xml version="1.0" encoding="UTF-8" standalone="no"?>
<!DOCTYPE svg PUBLIC "-//W3C//DTD SVG 1.1//EN"
 "http://www.w3.org/Graphics/SVG/1.1/DTD/svg11.dtd">
<!-- Generated by graphviz version 2.26.3 (20100126.1600)
 -->
<!-- Title: G Pages: 1 -->
<svg width="790pt" height="306pt"
 viewBox="0.00 0.00 790.00 306.00" xmlns="http://www.w3.org/2000/svg" xmlns:xlink="http://www.w3.org/1999/xlink">
<g id="graph1" class="graph" transform="scale(1 1) rotate(0) translate(4 302)">
<title>G</title>
<polygon fill="white" stroke="white" points="-4,5 -4,-302 787,-302 787,5 -4,5"/>
<!-- Node1 -->
<g id="node1" class="node"><title>Node1</title>
<polygon fill="#bfbfbf" stroke="black" points="0.5,-140.5 0.5,-161.5 129.5,-161.5 129.5,-140.5 0.5,-140.5"/>
<text text-anchor="middle" x="65" y="-148.5" font-family="DejaVuSans" font-size="10.00">StorageTemplate::traits</text>
</g>
<!-- Node2 -->
<g id="node3" class="node"><title>Node2</title>
<a xlink:href="class_storage_template.html#a6dffd32ca3fdb1b7642c1b3c64ca2a0c" target="_top" xlink:title="StorageTemplate::attributes">
<polygon fill="white" stroke="black" points="186.5,-276.5 186.5,-297.5 337.5,-297.5 337.5,-276.5 186.5,-276.5"/>
<text text-anchor="middle" x="262" y="-284.5" font-family="DejaVuSans" font-size="10.00">StorageTemplate::attributes</text>
</a>
</g>
<!-- Node1&#45;&gt;Node2 -->
<g id="edge2" class="edge"><title>Node1&#45;&gt;Node2</title>
<path fill="none" stroke="midnightblue" d="M77.3077,-170.358C94.2281,-195.361 127.049,-238.458 166,-262 176.318,-268.236 188.171,-272.931 199.948,-276.461"/>
<polygon fill="midnightblue" stroke="midnightblue" points="80.0501,-168.159 71.6216,-161.739 74.2072,-172.014 80.0501,-168.159"/>
</g>
<!-- Node3 -->
<g id="node5" class="node"><title>Node3</title>
<a xlink:href="class_storage_template.html#ada340e5acda2a32b7157c6c29cd64399" target="_top" xlink:title="StorageTemplate::breedNames">
<polygon fill="white" stroke="black" points="396.5,-239.5 396.5,-260.5 563.5,-260.5 563.5,-239.5 396.5,-239.5"/>
<text text-anchor="middle" x="480" y="-247.5" font-family="DejaVuSans" font-size="10.00">StorageTemplate::breedNames</text>
</a>
</g>
<!-- Node1&#45;&gt;Node3 -->
<g id="edge4" class="edge"><title>Node1&#45;&gt;Node3</title>
<path fill="none" stroke="midnightblue" d="M85.236,-167.775C104.655,-182.868 135.462,-204.27 166,-215 241.037,-241.367 331.807,-249.093 396.415,-250.837"/>
<polygon fill="midnightblue" stroke="midnightblue" points="87.4061,-165.029 77.4008,-161.544 83.0491,-170.507 87.4061,-165.029"/>
</g>
<!-- Node5 -->
<g id="node9" class="node"><title>Node5</title>
<a xlink:href="class_storage_template.html#a6db02d80cae1dc3bfc10e586e9aef016" target="_top" xlink:title="StorageTemplate::factionNames">
<polygon fill="white" stroke="black" points="394.5,-199.5 394.5,-220.5 565.5,-220.5 565.5,-199.5 394.5,-199.5"/>
<text text-anchor="middle" x="480" y="-207.5" font-family="DejaVuSans" font-size="10.00">StorageTemplate::factionNames</text>
</a>
</g>
<!-- Node1&#45;&gt;Node5 -->
<g id="edge8" class="edge"><title>Node1&#45;&gt;Node5</title>
<path fill="none" stroke="midnightblue" d="M95.1159,-165.845C114.789,-174.803 141.319,-185.513 166,-191 241.97,-207.89 330.656,-211.863 394.363,-212.067"/>
<polygon fill="midnightblue" stroke="midnightblue" points="96.5895,-162.671 86.047,-161.619 93.6328,-169.016 96.5895,-162.671"/>
</g>
<!-- Node6 -->
<g id="node12" class="node"><title>Node6</title>
<a xlink:href="class_storage_template.html#a926d61ca52d1584d57b3731e69432f2f" target="_top" xlink:title="StorageTemplate::meritPrerequisites">
<polygon fill="white" stroke="black" points="166,-120.5 166,-141.5 358,-141.5 358,-120.5 166,-120.5"/>
<text text-anchor="middle" x="262" y="-128.5" font-family="DejaVuSans" font-size="10.00">StorageTemplate::meritPrerequisites</text>
</a>
</g>
<!-- Node1&#45;&gt;Node6 -->
<g id="edge12" class="edge"><title>Node1&#45;&gt;Node6</title>
<path fill="none" stroke="midnightblue" d="M139.507,-143.436C148.144,-142.559 157.043,-141.655 165.917,-140.755"/>
<polygon fill="midnightblue" stroke="midnightblue" points="139.1,-139.959 129.505,-144.451 139.808,-146.923 139.1,-139.959"/>
</g>
<!-- Node7 -->
<g id="node14" class="node"><title>Node7</title>
<a xlink:href="class_storage_template.html#a8f6996e6b89e4fabb8eeeb31933dc8df" target="_top" xlink:title="StorageTemplate::meritValues">
<polygon fill="white" stroke="black" points="181.5,-80.5 181.5,-101.5 342.5,-101.5 342.5,-80.5 181.5,-80.5"/>
<text text-anchor="middle" x="262" y="-88.5" font-family="DejaVuSans" font-size="10.00">StorageTemplate::meritValues</text>
</a>
</g>
<!-- Node1&#45;&gt;Node7 -->
<g id="edge14" class="edge"><title>Node1&#45;&gt;Node7</title>
<path fill="none" stroke="midnightblue" d="M97.622,-136.426C117.162,-128.116 142.664,-117.995 166,-111 177.986,-107.407 191.003,-104.229 203.471,-101.523"/>
<polygon fill="midnightblue" stroke="midnightblue" points="96.0648,-133.286 88.2679,-140.46 98.8364,-139.714 96.0648,-133.286"/>
</g>
<!-- Node8 -->
<g id="node16" class="node"><title>Node8</title>
<a xlink:href="class_storage_template.html#a420027cdeb52f7d0f61a8f12fff911c3" target="_top" xlink:title="StorageTemplate::skills">
<polygon fill="white" stroke="black" points="198.5,-40.5 198.5,-61.5 325.5,-61.5 325.5,-40.5 198.5,-40.5"/>
<text text-anchor="middle" x="262" y="-48.5" font-family="DejaVuSans" font-size="10.00">StorageTemplate::skills</text>
</a>
</g>
<!-- Node1&#45;&gt;Node8 -->
<g id="edge16" class="edge"><title>Node1&#45;&gt;Node8</title>
<path fill="none" stroke="midnightblue" d="M82.3148,-133.03C101.157,-114.574 133.026,-86.4288 166,-71 176.1,-66.2741 187.316,-62.6573 198.416,-59.8913"/>
<polygon fill="midnightblue" stroke="midnightblue" points="79.6625,-130.733 75.0721,-140.282 84.6153,-135.68 79.6625,-130.733"/>
</g>
<!-- Node9 -->
<g id="node18" class="node"><title>Node9</title>
<a xlink:href="class_storage_template.html#aa1c01bbdf076afcacd1e785d2a4d6573" target="_top" xlink:title="StorageTemplate::traitNames">
<polygon fill="white" stroke="black" points="183,-160.5 183,-181.5 341,-181.5 341,-160.5 183,-160.5"/>
<text text-anchor="middle" x="262" y="-168.5" font-family="DejaVuSans" font-size="10.00">StorageTemplate::traitNames</text>
</a>
</g>
<!-- Node1&#45;&gt;Node9 -->
<g id="edge18" class="edge"><title>Node1&#45;&gt;Node9</title>
<path fill="none" stroke="midnightblue" d="M139.659,-158.58C153.797,-160.015 168.632,-161.521 182.901,-162.97"/>
<polygon fill="midnightblue" stroke="midnightblue" points="139.808,-155.077 129.505,-157.549 139.1,-162.041 139.808,-155.077"/>
</g>
<!-- Node13 -->
<g id="node29" class="node"><title>Node13</title>
<a xlink:href="class_storage_template.html#a27993db72787b37c8d45102019abf850" target="_top" xlink:title="StorageTemplate::traits">
<polygon fill="white" stroke="black" points="197.5,-0.5 197.5,-21.5 326.5,-21.5 326.5,-0.5 197.5,-0.5"/>
<text text-anchor="middle" x="262" y="-8.5" font-family="DejaVuSans" font-size="10.00">StorageTemplate::traits</text>
</a>
</g>
<!-- Node1&#45;&gt;Node13 -->
<g id="edge32" class="edge"><title>Node1&#45;&gt;Node13</title>
<path fill="none" stroke="midnightblue" d="M75.7913,-131.346C91.765,-104.225 124.355,-55.866 166,-31 175.501,-25.327 186.366,-21.2454 197.291,-18.3129"/>
<polygon fill="midnightblue" stroke="midnightblue" points="72.6,-129.876 70.672,-140.294 78.6759,-133.352 72.6,-129.876"/>
</g>
<!-- Node4 -->
<g id="node7" class="node"><title>Node4</title>
<a xlink:href="class_info_widget.html#a19f07d861d22be4881361a5a32e86451" target="_top" xlink:title="InfoWidget::InfoWidget">
<polygon fill="white" stroke="black" points="631,-189.5 631,-210.5 753,-210.5 753,-189.5 631,-189.5"/>
<text text-anchor="middle" x="692" y="-197.5" font-family="DejaVuSans" font-size="10.00">InfoWidget::InfoWidget</text>
</a>
</g>
<!-- Node3&#45;&gt;Node4 -->
<g id="edge6" class="edge"><title>Node3&#45;&gt;Node4</title>
<path fill="none" stroke="midnightblue" d="M535.525,-237.132C545.666,-234.769 556.152,-232.318 566,-230 593.251,-223.587 623.797,-216.316 647.988,-210.539"/>
<polygon fill="midnightblue" stroke="midnightblue" points="534.481,-233.781 525.535,-239.457 536.068,-240.599 534.481,-233.781"/>
</g>
<!-- Node5&#45;&gt;Node4 -->
<g id="edge10" class="edge"><title>Node5&#45;&gt;Node4</title>
<path fill="none" stroke="midnightblue" d="M575.666,-205.487C594.407,-204.603 613.583,-203.699 630.821,-202.886"/>
<polygon fill="midnightblue" stroke="midnightblue" points="575.441,-201.994 565.617,-205.961 575.771,-208.986 575.441,-201.994"/>
</g>
<!-- Node10 -->
<g id="node20" class="node"><title>Node10</title>
<a xlink:href="class_storage_template.html#ad86a34d5b7fb0bd4f6bbb8a75f1cf5f5" target="_top" xlink:title="StorageTemplate::viceNames">
<polygon fill="white" stroke="black" points="401,-159.5 401,-180.5 559,-180.5 559,-159.5 401,-159.5"/>
<text text-anchor="middle" x="480" y="-167.5" font-family="DejaVuSans" font-size="10.00">StorageTemplate::viceNames</text>
</a>
</g>
<!-- Node9&#45;&gt;Node10 -->
<g id="edge20" class="edge"><title>Node9&#45;&gt;Node10</title>
<path fill="none" stroke="midnightblue" d="M351.173,-170.591C367.646,-170.515 384.743,-170.437 400.892,-170.363"/>
<polygon fill="midnightblue" stroke="midnightblue" points="350.995,-167.092 341.011,-170.638 351.027,-174.092 350.995,-167.092"/>
</g>
<!-- Node12 -->
<g id="node25" class="node"><title>Node12</title>
<a xlink:href="class_storage_template.html#a6b5bc4437780ff4334b25241926512fe" target="_top" xlink:title="StorageTemplate::virtueNames">
<polygon fill="white" stroke="black" points="397,-119.5 397,-140.5 563,-140.5 563,-119.5 397,-119.5"/>
<text text-anchor="middle" x="480" y="-127.5" font-family="DejaVuSans" font-size="10.00">StorageTemplate::virtueNames</text>
</a>
</g>
<!-- Node9&#45;&gt;Node12 -->
<g id="edge26" class="edge"><title>Node9&#45;&gt;Node12</title>
<path fill="none" stroke="midnightblue" d="M328.016,-158.584C358.63,-152.826 394.632,-146.056 423.909,-140.549"/>
<polygon fill="midnightblue" stroke="midnightblue" points="327.038,-155.207 317.857,-160.495 328.332,-162.086 327.038,-155.207"/>
</g>
<!-- Node10&#45;&gt;Node4 -->
<g id="edge22" class="edge"><title>Node10&#45;&gt;Node4</title>
<path fill="none" stroke="midnightblue" d="M564.501,-181.958C586.62,-185.088 610.042,-188.402 630.694,-191.325"/>
<polygon fill="midnightblue" stroke="midnightblue" points="564.837,-178.47 554.445,-180.535 563.856,-185.401 564.837,-178.47"/>
</g>
<!-- Node11 -->
<g id="node23" class="node"><title>Node11</title>
<a xlink:href="class_storage_character.html#a6534667b942bd21253c432fee79a8850" target="_top" xlink:title="StorageCharacter::resetCharacter">
<polygon fill="white" stroke="black" points="602,-129.5 602,-150.5 782,-150.5 782,-129.5 602,-129.5"/>
<text text-anchor="middle" x="692" y="-137.5" font-family="DejaVuSans" font-size="10.00">StorageCharacter::resetCharacter</text>
</a>
</g>
<!-- Node10&#45;&gt;Node11 -->
<g id="edge24" class="edge"><title>Node10&#45;&gt;Node11</title>
<path fill="none" stroke="midnightblue" d="M564.67,-158.018C582.222,-155.535 600.588,-152.936 617.734,-150.509"/>
<polygon fill="midnightblue" stroke="midnightblue" points="563.856,-154.599 554.445,-159.465 564.837,-161.53 563.856,-154.599"/>
</g>
<!-- Node12&#45;&gt;Node4 -->
<g id="edge28" class="edge"><title>Node12&#45;&gt;Node4</title>
<path fill="none" stroke="midnightblue" d="M541.089,-143.017C549.512,-145.157 558.008,-147.5 566,-150 602.387,-161.381 643.179,-178.38 668.229,-189.33"/>
<polygon fill="midnightblue" stroke="midnightblue" points="541.817,-139.592 531.271,-140.601 540.145,-146.389 541.817,-139.592"/>
</g>
<!-- Node12&#45;&gt;Node11 -->
<g id="edge30" class="edge"><title>Node12&#45;&gt;Node11</title>
<path fill="none" stroke="midnightblue" d="M573.337,-134.403C582.761,-134.847 592.319,-135.298 601.71,-135.741"/>
<polygon fill="midnightblue" stroke="midnightblue" points="573.333,-130.899 563.18,-133.924 573.003,-137.891 573.333,-130.899"/>
</g>
</g>
</svg>
