<?xml version="1.0" encoding="UTF-8" standalone="no"?>
<!DOCTYPE svg PUBLIC "-//W3C//DTD SVG 1.1//EN"
 "http://www.w3.org/Graphics/SVG/1.1/DTD/svg11.dtd">
<!-- Generated by graphviz version 2.26.3 (20100126.1600)
 -->
<!-- Title: G Pages: 1 -->
<svg width="382pt" height="70pt"
 viewBox="0.00 0.00 382.00 70.00" xmlns="http://www.w3.org/2000/svg" xmlns:xlink="http://www.w3.org/1999/xlink">
<g id="graph1" class="graph" transform="scale(1 1) rotate(0) translate(4 66)">
<title>G</title>
<polygon fill="white" stroke="white" points="-4,5 -4,-66 379,-66 379,5 -4,5"/>
<!-- Node1 -->
<g id="node1" class="node"><title>Node1</title>
<polygon fill="#bfbfbf" stroke="black" points="0,-20.5 0,-41.5 158,-41.5 158,-20.5 0,-20.5"/>
<text text-anchor="middle" x="79" y="-28.5" font-family="DejaVuSans" font-size="10.00">StorageTemplate::viceNames</text>
</g>
<!-- Node2 -->
<g id="node3" class="node"><title>Node2</title>
<a xlink:href="class_info_widget.html#a19f07d861d22be4881361a5a32e86451" target="_top" xlink:title="InfoWidget::InfoWidget">
<polygon fill="white" stroke="black" points="223,-40.5 223,-61.5 345,-61.5 345,-40.5 223,-40.5"/>
<text text-anchor="middle" x="284" y="-48.5" font-family="DejaVuSans" font-size="10.00">InfoWidget::InfoWidget</text>
</a>
</g>
<!-- Node1&#45;&gt;Node2 -->
<g id="edge2" class="edge"><title>Node1&#45;&gt;Node2</title>
<path fill="none" stroke="midnightblue" d="M168.382,-39.7202C186.739,-41.5111 205.666,-43.3576 222.756,-45.025"/>
<polygon fill="midnightblue" stroke="midnightblue" points="168.551,-36.2201 158.258,-38.7325 167.871,-43.1871 168.551,-36.2201"/>
</g>
<!-- Node3 -->
<g id="node5" class="node"><title>Node3</title>
<a xlink:href="class_storage_character.html#a6534667b942bd21253c432fee79a8850" target="_top" xlink:title="StorageCharacter::resetCharacter">
<polygon fill="white" stroke="black" points="194,-0.5 194,-21.5 374,-21.5 374,-0.5 194,-0.5"/>
<text text-anchor="middle" x="284" y="-8.5" font-family="DejaVuSans" font-size="10.00">StorageCharacter::resetCharacter</text>
</a>
</g>
<!-- Node1&#45;&gt;Node3 -->
<g id="edge4" class="edge"><title>Node1&#45;&gt;Node3</title>
<path fill="none" stroke="midnightblue" d="M168.412,-22.2769C176.797,-21.4589 185.301,-20.6292 193.694,-19.8104"/>
<polygon fill="midnightblue" stroke="midnightblue" points="167.871,-18.8129 158.258,-23.2675 168.551,-25.7799 167.871,-18.8129"/>
</g>
</g>
</svg>
