<?xml version="1.0" encoding="UTF-8" standalone="no"?>
<!DOCTYPE svg PUBLIC "-//W3C//DTD SVG 1.1//EN"
 "http://www.w3.org/Graphics/SVG/1.1/DTD/svg11.dtd">
<!-- Generated by graphviz version 2.26.3 (20100126.1600)
 -->
<!-- Title: G Pages: 1 -->
<svg width="217pt" height="140pt"
 viewBox="0.00 0.00 217.00 140.00" xmlns="http://www.w3.org/2000/svg" xmlns:xlink="http://www.w3.org/1999/xlink">
<g id="graph1" class="graph" transform="scale(1 1) rotate(0) translate(4 136)">
<title>G</title>
<polygon fill="white" stroke="white" points="-4,5 -4,-136 214,-136 214,5 -4,5"/>
<!-- Node1 -->
<g id="node1" class="node"><title>Node1</title>
<polygon fill="#bfbfbf" stroke="black" points="-0.5,-0.5 -0.5,-21.5 140.5,-21.5 140.5,-0.5 -0.5,-0.5"/>
<text text-anchor="middle" x="70" y="-8.5" font-family="DejaVuSans" font-size="10.00">src.Calc.Creation.Creation</text>
</g>
<!-- Node2 -->
<g id="node2" class="node"><title>Node2</title>
<polygon fill="white" stroke="#bfbfbf" points="10.5,-110.5 10.5,-131.5 65.5,-131.5 65.5,-110.5 10.5,-110.5"/>
<text text-anchor="middle" x="38" y="-118.5" font-family="DejaVuSans" font-size="10.00">QObject</text>
</g>
<!-- Node2&#45;&gt;Node1 -->
<g id="edge2" class="edge"><title>Node2&#45;&gt;Node1</title>
<path fill="none" stroke="midnightblue" d="M43.9525,-100.538C50.7466,-77.1836 61.6007,-39.8727 66.894,-21.677"/>
<polygon fill="midnightblue" stroke="midnightblue" points="40.501,-99.8731 41.0683,-110.453 47.2223,-101.828 40.501,-99.8731"/>
</g>
<!-- Node3 -->
<g id="node4" class="node"><title>Node3</title>
<polygon fill="white" stroke="#bfbfbf" points="82.5,-110.5 82.5,-131.5 123.5,-131.5 123.5,-110.5 82.5,-110.5"/>
<text text-anchor="middle" x="103" y="-118.5" font-family="DejaVuSans" font-size="10.00">tuple</text>
</g>
<!-- Node3&#45;&gt;Node1 -->
<g id="edge4" class="edge"><title>Node3&#45;&gt;Node1</title>
<path fill="none" stroke="#9a32cd" stroke-dasharray="5,2" d="M96.9563,-100.854C89.9565,-77.5217 78.6865,-39.955 73.2031,-21.677"/>
<polygon fill="#9a32cd" stroke="#9a32cd" points="93.6099,-101.88 99.8358,-110.453 100.315,-99.8687 93.6099,-101.88"/>
<text text-anchor="middle" x="151.5" y="-83" font-family="DejaVuSans" font-size="10.00">pointsChangedPositive</text>
<text text-anchor="middle" x="151.5" y="-70" font-family="DejaVuSans" font-size="10.00">pointsChangedZero</text>
<text text-anchor="middle" x="151.5" y="-57" font-family="DejaVuSans" font-size="10.00">pointsChanged</text>
<text text-anchor="middle" x="151.5" y="-44" font-family="DejaVuSans" font-size="10.00">pointsChangedNegative</text>
</g>
</g>
</svg>
