<?xml version="1.0" encoding="UTF-8" standalone="no"?>
<!DOCTYPE svg PUBLIC "-//W3C//DTD SVG 1.1//EN"
 "http://www.w3.org/Graphics/SVG/1.1/DTD/svg11.dtd">
<!-- Generated by graphviz version 2.26.3 (20100126.1600)
 -->
<!-- Title: G Pages: 1 -->
<svg width="568pt" height="350pt"
 viewBox="0.00 0.00 568.00 350.00" xmlns="http://www.w3.org/2000/svg" xmlns:xlink="http://www.w3.org/1999/xlink">
<g id="graph1" class="graph" transform="scale(1 1) rotate(0) translate(4 346)">
<title>G</title>
<polygon fill="white" stroke="white" points="-4,5 -4,-346 565,-346 565,5 -4,5"/>
<!-- Node1 -->
<g id="node1" class="node"><title>Node1</title>
<polygon fill="#bfbfbf" stroke="black" points="0.5,-160.5 0.5,-181.5 171.5,-181.5 171.5,-160.5 0.5,-160.5"/>
<text text-anchor="middle" x="86" y="-168.5" font-family="DejaVuSans" font-size="10.00">AttributeWidget::AttributeWidget</text>
</g>
<!-- Node2 -->
<g id="node3" class="node"><title>Node2</title>
<a xlink:href="class_storage_character.html#a96062a11fe91e1d9826470412fc64449" target="_top" xlink:title="StorageCharacter::addTrait">
<polygon fill="white" stroke="black" points="223,-320.5 223,-341.5 369,-341.5 369,-320.5 223,-320.5"/>
<text text-anchor="middle" x="296" y="-328.5" font-family="DejaVuSans" font-size="10.00">StorageCharacter::addTrait</text>
</a>
</g>
<!-- Node1&#45;&gt;Node2 -->
<g id="edge2" class="edge"><title>Node1&#45;&gt;Node2</title>
<path fill="none" stroke="midnightblue" d="M92.0685,-181.806C107.595,-208.391 151.547,-277.258 208,-311 211.631,-313.17 215.475,-315.105 219.447,-316.83"/>
<polygon fill="midnightblue" stroke="midnightblue" points="218.316,-320.146 228.905,-320.487 220.84,-313.617 218.316,-320.146"/>
</g>
<!-- Node3 -->
<g id="node5" class="node"><title>Node3</title>
<a xlink:href="class_chara_trait.html#a1fe9b2316d8daebdf80ddad832ef818a" target="_top" xlink:title="CharaTrait::category">
<polygon fill="white" stroke="black" points="239.5,-280.5 239.5,-301.5 352.5,-301.5 352.5,-280.5 239.5,-280.5"/>
<text text-anchor="middle" x="296" y="-288.5" font-family="DejaVuSans" font-size="10.00">CharaTrait::category</text>
</a>
</g>
<!-- Node1&#45;&gt;Node3 -->
<g id="edge4" class="edge"><title>Node1&#45;&gt;Node3</title>
<path fill="none" stroke="midnightblue" d="M95.6039,-181.646C114.822,-202.261 160.277,-247.649 208,-271 214.752,-274.304 222.064,-277.071 229.488,-279.388"/>
<polygon fill="midnightblue" stroke="midnightblue" points="228.7,-282.803 239.277,-282.181 230.621,-276.072 228.7,-282.803"/>
</g>
<!-- Node5 -->
<g id="node9" class="node"><title>Node5</title>
<a xlink:href="class_exception.html#a7cb124af6ec64ad88a8721b60c7932fb" target="_top" xlink:title="Exception::description">
<polygon fill="white" stroke="black" points="235,-240.5 235,-261.5 357,-261.5 357,-240.5 235,-240.5"/>
<text text-anchor="middle" x="296" y="-248.5" font-family="DejaVuSans" font-size="10.00">Exception::description</text>
</a>
</g>
<!-- Node1&#45;&gt;Node5 -->
<g id="edge8" class="edge"><title>Node1&#45;&gt;Node5</title>
<path fill="none" stroke="midnightblue" d="M104.019,-181.534C127.325,-194.762 169.507,-217.372 208,-231 215.269,-233.574 222.996,-235.897 230.736,-237.971"/>
<polygon fill="midnightblue" stroke="midnightblue" points="229.958,-241.385 240.513,-240.465 231.689,-234.602 229.958,-241.385"/>
</g>
<!-- Node6 -->
<g id="node11" class="node"><title>Node6</title>
<a xlink:href="classcv___abstract_trait.html#a2c71206d61498c443d25cab1051a546f" target="_top" xlink:title="cv_AbstractTrait::getCategoryList">
<polygon fill="white" stroke="black" points="209,-200.5 209,-221.5 383,-221.5 383,-200.5 209,-200.5"/>
<text text-anchor="middle" x="296" y="-208.5" font-family="DejaVuSans" font-size="10.00">cv_AbstractTrait::getCategoryList</text>
</a>
</g>
<!-- Node1&#45;&gt;Node6 -->
<g id="edge10" class="edge"><title>Node1&#45;&gt;Node6</title>
<path fill="none" stroke="midnightblue" d="M141.175,-181.51C168.678,-186.748 202.117,-193.118 230.871,-198.595"/>
<polygon fill="midnightblue" stroke="midnightblue" points="230.351,-202.058 240.829,-200.491 231.661,-195.182 230.351,-202.058"/>
</g>
<!-- Node7 -->
<g id="node13" class="node"><title>Node7</title>
<a xlink:href="class_storage_character.html#a50022b948be1e566d902d64095c4470b" target="_top" xlink:title="StorageCharacter::getInstance">
<polygon fill="white" stroke="black" points="214,-160.5 214,-181.5 378,-181.5 378,-160.5 214,-160.5"/>
<text text-anchor="middle" x="296" y="-168.5" font-family="DejaVuSans" font-size="10.00">StorageCharacter::getInstance</text>
</a>
</g>
<!-- Node1&#45;&gt;Node7 -->
<g id="edge12" class="edge"><title>Node1&#45;&gt;Node7</title>
<path fill="none" stroke="midnightblue" d="M171.718,-171C182.289,-171 193.131,-171 203.793,-171"/>
<polygon fill="midnightblue" stroke="midnightblue" points="203.947,-174.5 213.947,-171 203.947,-167.5 203.947,-174.5"/>
</g>
<!-- Node8 -->
<g id="node15" class="node"><title>Node8</title>
<a xlink:href="class_exception.html#aeaf3a81717287d50938bc72ed67bacd8" target="_top" xlink:title="Exception::message">
<polygon fill="white" stroke="black" points="239.5,-120.5 239.5,-141.5 352.5,-141.5 352.5,-120.5 239.5,-120.5"/>
<text text-anchor="middle" x="296" y="-128.5" font-family="DejaVuSans" font-size="10.00">Exception::message</text>
</a>
</g>
<!-- Node1&#45;&gt;Node8 -->
<g id="edge14" class="edge"><title>Node1&#45;&gt;Node8</title>
<path fill="none" stroke="midnightblue" d="M141.175,-160.49C168.678,-155.252 202.117,-148.882 230.871,-143.405"/>
<polygon fill="midnightblue" stroke="midnightblue" points="231.661,-146.818 240.829,-141.509 230.351,-139.942 231.661,-146.818"/>
</g>
<!-- Node9 -->
<g id="node17" class="node"><title>Node9</title>
<a xlink:href="class_attribute_widget.html#aa54e0d5d9c9feeed7baa78cd5a2bd969" target="_top" xlink:title="AttributeWidget::speciesChanged">
<polygon fill="white" stroke="black" points="208,-80.5 208,-101.5 384,-101.5 384,-80.5 208,-80.5"/>
<text text-anchor="middle" x="296" y="-88.5" font-family="DejaVuSans" font-size="10.00">AttributeWidget::speciesChanged</text>
</a>
</g>
<!-- Node1&#45;&gt;Node9 -->
<g id="edge16" class="edge"><title>Node1&#45;&gt;Node9</title>
<path fill="none" stroke="midnightblue" d="M104.019,-160.466C127.325,-147.238 169.507,-124.628 208,-111 215.269,-108.426 222.996,-106.103 230.736,-104.029"/>
<polygon fill="midnightblue" stroke="midnightblue" points="231.689,-107.398 240.513,-101.535 229.958,-100.615 231.689,-107.398"/>
</g>
<!-- Node10 -->
<g id="node19" class="node"><title>Node10</title>
<a xlink:href="classcv___abstract_trait.html#add050d72e281131d1591bbf24e87bb15" target="_top" xlink:title="cv_AbstractTrait::toString">
<polygon fill="white" stroke="black" points="227.5,-40.5 227.5,-61.5 364.5,-61.5 364.5,-40.5 227.5,-40.5"/>
<text text-anchor="middle" x="296" y="-48.5" font-family="DejaVuSans" font-size="10.00">cv_AbstractTrait::toString</text>
</a>
</g>
<!-- Node1&#45;&gt;Node10 -->
<g id="edge18" class="edge"><title>Node1&#45;&gt;Node10</title>
<path fill="none" stroke="midnightblue" d="M95.6039,-160.354C114.822,-139.739 160.277,-94.3509 208,-71 212.838,-68.633 217.963,-66.541 223.211,-64.6929"/>
<polygon fill="midnightblue" stroke="midnightblue" points="224.307,-68.017 232.755,-61.623 222.164,-61.3532 224.307,-68.017"/>
</g>
<!-- Node11 -->
<g id="node21" class="node"><title>Node11</title>
<a xlink:href="class_storage_template.html#a5dee996b5f02d1e39bde1040c1a9a839" target="_top" xlink:title="StorageTemplate::traits2">
<polygon fill="white" stroke="black" points="228.5,-0.5 228.5,-21.5 363.5,-21.5 363.5,-0.5 228.5,-0.5"/>
<text text-anchor="middle" x="296" y="-8.5" font-family="DejaVuSans" font-size="10.00">StorageTemplate::traits2</text>
</a>
</g>
<!-- Node1&#45;&gt;Node11 -->
<g id="edge20" class="edge"><title>Node1&#45;&gt;Node11</title>
<path fill="none" stroke="midnightblue" d="M92.0685,-160.194C107.595,-133.609 151.547,-64.7424 208,-31 211.631,-28.8297 215.475,-26.8947 219.447,-25.1696"/>
<polygon fill="midnightblue" stroke="midnightblue" points="220.84,-28.3834 228.905,-21.513 218.316,-21.8543 220.84,-28.3834"/>
</g>
<!-- Node4 -->
<g id="node7" class="node"><title>Node4</title>
<a xlink:href="classcv___abstract_trait.html#a0735a751e8ce6edb85957bcfb2a723f7" target="_top" xlink:title="cv_AbstractTrait::category">
<polygon fill="white" stroke="black" points="420,-280.5 420,-301.5 560,-301.5 560,-280.5 420,-280.5"/>
<text text-anchor="middle" x="490" y="-288.5" font-family="DejaVuSans" font-size="10.00">cv_AbstractTrait::category</text>
</a>
</g>
<!-- Node3&#45;&gt;Node4 -->
<g id="edge6" class="edge"><title>Node3&#45;&gt;Node4</title>
<path fill="none" stroke="midnightblue" d="M352.634,-291C370.457,-291 390.493,-291 409.637,-291"/>
<polygon fill="midnightblue" stroke="midnightblue" points="409.854,-294.5 419.854,-291 409.854,-287.5 409.854,-294.5"/>
</g>
</g>
</svg>
