<?xml version="1.0" encoding="UTF-8" standalone="no"?>
<!DOCTYPE svg PUBLIC "-//W3C//DTD SVG 1.1//EN"
 "http://www.w3.org/Graphics/SVG/1.1/DTD/svg11.dtd">
<!-- Generated by graphviz version 2.26.3 (20100126.1600)
 -->
<!-- Title: G Pages: 1 -->
<svg width="716pt" height="190pt"
 viewBox="0.00 0.00 716.00 190.00" xmlns="http://www.w3.org/2000/svg" xmlns:xlink="http://www.w3.org/1999/xlink">
<g id="graph1" class="graph" transform="scale(1 1) rotate(0) translate(4 186)">
<title>G</title>
<polygon fill="white" stroke="white" points="-4,5 -4,-186 713,-186 713,5 -4,5"/>
<!-- Node1 -->
<g id="node1" class="node"><title>Node1</title>
<polygon fill="#bfbfbf" stroke="black" points="0,-80.5 0,-101.5 158,-101.5 158,-80.5 0,-80.5"/>
<text text-anchor="middle" x="79" y="-88.5" font-family="DejaVuSans" font-size="10.00">StorageTemplate::traitNames</text>
</g>
<!-- Node2 -->
<g id="node3" class="node"><title>Node2</title>
<a xlink:href="class_storage_template.html#a0f2b3e86a5e9e503e0edd0aed1d7a8f8" target="_top" xlink:title="StorageTemplate::attributes">
<polygon fill="white" stroke="black" points="194.5,-160.5 194.5,-181.5 345.5,-181.5 345.5,-160.5 194.5,-160.5"/>
<text text-anchor="middle" x="270" y="-168.5" font-family="DejaVuSans" font-size="10.00">StorageTemplate::attributes</text>
</a>
</g>
<!-- Node1&#45;&gt;Node2 -->
<g id="edge2" class="edge"><title>Node1&#45;&gt;Node2</title>
<path fill="none" stroke="midnightblue" d="M105.085,-106.764C127.896,-120.019 162.25,-138.718 194,-151 203.289,-154.593 213.46,-157.764 223.255,-160.46"/>
<polygon fill="midnightblue" stroke="midnightblue" points="106.745,-103.68 96.3512,-101.627 103.196,-109.714 106.745,-103.68"/>
</g>
<!-- Node5 -->
<g id="node9" class="node"><title>Node5</title>
<a xlink:href="class_storage_template.html#a57e5d21f50128e94ca5c11d1fc5cc256" target="_top" xlink:title="StorageTemplate::merits">
<polygon fill="white" stroke="black" points="202.5,-120.5 202.5,-141.5 337.5,-141.5 337.5,-120.5 202.5,-120.5"/>
<text text-anchor="middle" x="270" y="-128.5" font-family="DejaVuSans" font-size="10.00">StorageTemplate::merits</text>
</a>
</g>
<!-- Node1&#45;&gt;Node5 -->
<g id="edge8" class="edge"><title>Node1&#45;&gt;Node5</title>
<path fill="none" stroke="midnightblue" d="M139.27,-103.622C165.189,-109.05 195.135,-115.321 219.821,-120.491"/>
<polygon fill="midnightblue" stroke="midnightblue" points="139.688,-100.134 129.183,-101.51 138.253,-106.985 139.688,-100.134"/>
</g>
<!-- Node6 -->
<g id="node12" class="node"><title>Node6</title>
<a xlink:href="class_storage_template.html#adc3718aca51de53cf9a0542ab4eb99f9" target="_top" xlink:title="StorageTemplate::skills">
<polygon fill="white" stroke="black" points="206.5,-80.5 206.5,-101.5 333.5,-101.5 333.5,-80.5 206.5,-80.5"/>
<text text-anchor="middle" x="270" y="-88.5" font-family="DejaVuSans" font-size="10.00">StorageTemplate::skills</text>
</a>
</g>
<!-- Node1&#45;&gt;Node6 -->
<g id="edge12" class="edge"><title>Node1&#45;&gt;Node6</title>
<path fill="none" stroke="midnightblue" d="M168.33,-91C181.191,-91 194.202,-91 206.424,-91"/>
<polygon fill="midnightblue" stroke="midnightblue" points="168.066,-87.5001 158.066,-91 168.066,-94.5001 168.066,-87.5001"/>
</g>
<!-- Node7 -->
<g id="node15" class="node"><title>Node7</title>
<a xlink:href="class_storage_template.html#adb9734d2adcf232c0c70f5024cc81148" target="_top" xlink:title="StorageTemplate::vices">
<polygon fill="white" stroke="black" points="206,-40.5 206,-61.5 334,-61.5 334,-40.5 206,-40.5"/>
<text text-anchor="middle" x="270" y="-48.5" font-family="DejaVuSans" font-size="10.00">StorageTemplate::vices</text>
</a>
</g>
<!-- Node1&#45;&gt;Node7 -->
<g id="edge16" class="edge"><title>Node1&#45;&gt;Node7</title>
<path fill="none" stroke="midnightblue" d="M139.27,-78.378C165.189,-72.9499 195.135,-66.6785 219.821,-61.5087"/>
<polygon fill="midnightblue" stroke="midnightblue" points="138.253,-75.0149 129.183,-80.4905 139.688,-81.8663 138.253,-75.0149"/>
</g>
<!-- Node8 -->
<g id="node18" class="node"><title>Node8</title>
<a xlink:href="class_storage_template.html#a52acf3476bbd83b9b94a4f90d39411b2" target="_top" xlink:title="StorageTemplate::virtues">
<polygon fill="white" stroke="black" points="201.5,-0.5 201.5,-21.5 338.5,-21.5 338.5,-0.5 201.5,-0.5"/>
<text text-anchor="middle" x="270" y="-8.5" font-family="DejaVuSans" font-size="10.00">StorageTemplate::virtues</text>
</a>
</g>
<!-- Node1&#45;&gt;Node8 -->
<g id="edge20" class="edge"><title>Node1&#45;&gt;Node8</title>
<path fill="none" stroke="midnightblue" d="M105.085,-75.2356C127.896,-61.9811 162.25,-43.282 194,-31 203.289,-27.4067 213.46,-24.2364 223.255,-21.54"/>
<polygon fill="midnightblue" stroke="midnightblue" points="103.196,-72.2862 96.3512,-80.3731 106.745,-78.3199 103.196,-72.2862"/>
</g>
<!-- Node3 -->
<g id="node5" class="node"><title>Node3</title>
<a xlink:href="class_main_window.html#a1ebe4d2e06ddd16007a29bd1b8c09c49" target="_top" xlink:title="MainWindow::storeTemplateData">
<polygon fill="white" stroke="black" points="382.5,-80.5 382.5,-101.5 553.5,-101.5 553.5,-80.5 382.5,-80.5"/>
<text text-anchor="middle" x="468" y="-88.5" font-family="DejaVuSans" font-size="10.00">MainWindow::storeTemplateData</text>
</a>
</g>
<!-- Node2&#45;&gt;Node3 -->
<g id="edge4" class="edge"><title>Node2&#45;&gt;Node3</title>
<path fill="none" stroke="midnightblue" d="M326.134,-157.59C332.891,-155.577 339.645,-153.372 346,-151 384.035,-136.805 426.034,-114.6 449.5,-101.556"/>
<polygon fill="midnightblue" stroke="midnightblue" points="324.935,-154.293 316.278,-160.4 326.854,-161.024 324.935,-154.293"/>
</g>
<!-- Node4 -->
<g id="node7" class="node"><title>Node4</title>
<a xlink:href="class_main_window.html#a43f05c4d3f5d840d070829d3291c9ec7" target="_top" xlink:title="MainWindow::initialize">
<polygon fill="white" stroke="black" points="590,-80.5 590,-101.5 708,-101.5 708,-80.5 590,-80.5"/>
<text text-anchor="middle" x="649" y="-88.5" font-family="DejaVuSans" font-size="10.00">MainWindow::initialize</text>
</a>
</g>
<!-- Node3&#45;&gt;Node4 -->
<g id="edge6" class="edge"><title>Node3&#45;&gt;Node4</title>
<path fill="none" stroke="midnightblue" d="M563.781,-91C572.675,-91 581.5,-91 589.912,-91"/>
<polygon fill="midnightblue" stroke="midnightblue" points="563.73,-87.5001 553.73,-91 563.729,-94.5001 563.73,-87.5001"/>
</g>
<!-- Node5&#45;&gt;Node3 -->
<g id="edge10" class="edge"><title>Node5&#45;&gt;Node3</title>
<path fill="none" stroke="midnightblue" d="M332.123,-118.45C359.073,-113.005 390.278,-106.701 415.982,-101.509"/>
<polygon fill="midnightblue" stroke="midnightblue" points="331.131,-115.08 322.022,-120.49 332.517,-121.941 331.131,-115.08"/>
</g>
<!-- Node6&#45;&gt;Node3 -->
<g id="edge14" class="edge"><title>Node6&#45;&gt;Node3</title>
<path fill="none" stroke="midnightblue" d="M344.073,-91C356.558,-91 369.608,-91 382.358,-91"/>
<polygon fill="midnightblue" stroke="midnightblue" points="343.738,-87.5001 333.738,-91 343.738,-94.5001 343.738,-87.5001"/>
</g>
<!-- Node7&#45;&gt;Node3 -->
<g id="edge18" class="edge"><title>Node7&#45;&gt;Node3</title>
<path fill="none" stroke="midnightblue" d="M332.123,-63.55C359.073,-68.9946 390.278,-75.2986 415.982,-80.4913"/>
<polygon fill="midnightblue" stroke="midnightblue" points="332.517,-60.0591 322.022,-61.5095 331.131,-66.9205 332.517,-60.0591"/>
</g>
<!-- Node8&#45;&gt;Node3 -->
<g id="edge22" class="edge"><title>Node8&#45;&gt;Node3</title>
<path fill="none" stroke="midnightblue" d="M326.134,-24.4099C332.891,-26.4232 339.645,-28.6282 346,-31 384.035,-45.195 426.034,-67.4004 449.5,-80.4444"/>
<polygon fill="midnightblue" stroke="midnightblue" points="326.854,-20.9757 316.278,-21.5999 324.935,-27.7075 326.854,-20.9757"/>
</g>
</g>
</svg>
