<?xml version="1.0" encoding="UTF-8" standalone="no"?>
<!DOCTYPE svg PUBLIC "-//W3C//DTD SVG 1.1//EN"
 "http://www.w3.org/Graphics/SVG/1.1/DTD/svg11.dtd">
<!-- Generated by graphviz version 2.26.3 (20100126.1600)
 -->
<!-- Title: G Pages: 1 -->
<svg width="378pt" height="110pt"
 viewBox="0.00 0.00 378.00 110.00" xmlns="http://www.w3.org/2000/svg" xmlns:xlink="http://www.w3.org/1999/xlink">
<g id="graph1" class="graph" transform="scale(1 1) rotate(0) translate(4 106)">
<title>G</title>
<polygon fill="white" stroke="white" points="-4,5 -4,-106 375,-106 375,5 -4,5"/>
<!-- Node1 -->
<g id="node1" class="node"><title>Node1</title>
<polygon fill="#bfbfbf" stroke="black" points="0,-40.5 0,-61.5 178,-61.5 178,-40.5 0,-40.5"/>
<text text-anchor="middle" x="89" y="-48.5" font-family="DejaVuSans" font-size="10.00">CharaTrait::emitSpecialtiesClicked</text>
</g>
<!-- Node2 -->
<g id="node3" class="node"><title>Node2</title>
<a xlink:href="classcv___trait.html#ab81924fd5e51488a35a63e246830e143" target="_top" xlink:title="cv_Trait::details">
<polygon fill="white" stroke="black" points="247.5,-80.5 247.5,-101.5 336.5,-101.5 336.5,-80.5 247.5,-80.5"/>
<text text-anchor="middle" x="292" y="-88.5" font-family="DejaVuSans" font-size="10.00">cv_Trait::details</text>
</a>
</g>
<!-- Node1&#45;&gt;Node2 -->
<g id="edge2" class="edge"><title>Node1&#45;&gt;Node2</title>
<path fill="none" stroke="midnightblue" d="M142.336,-61.5095C171.549,-67.2657 207.691,-74.3873 237.14,-80.1901"/>
<polygon fill="midnightblue" stroke="midnightblue" points="236.766,-83.6838 247.254,-82.1832 238.12,-76.8158 236.766,-83.6838"/>
</g>
<!-- Node3 -->
<g id="node5" class="node"><title>Node3</title>
<a xlink:href="class_chara_trait.html#ae6604555d60fe78d7473942e3502060b" target="_top" xlink:title="CharaTrait::specialtiesClicked">
<polygon fill="white" stroke="black" points="214.5,-40.5 214.5,-61.5 369.5,-61.5 369.5,-40.5 214.5,-40.5"/>
<text text-anchor="middle" x="292" y="-48.5" font-family="DejaVuSans" font-size="10.00">CharaTrait::specialtiesClicked</text>
</a>
</g>
<!-- Node1&#45;&gt;Node3 -->
<g id="edge4" class="edge"><title>Node1&#45;&gt;Node3</title>
<path fill="none" stroke="midnightblue" d="M178.039,-51C186.768,-51 195.621,-51 204.336,-51"/>
<polygon fill="midnightblue" stroke="midnightblue" points="204.487,-54.5001 214.487,-51 204.487,-47.5001 204.487,-54.5001"/>
</g>
<!-- Node4 -->
<g id="node7" class="node"><title>Node4</title>
<a xlink:href="class_chara_trait.html#ae8854bf878fa9aab4dafc27a943d05b6" target="_top" xlink:title="CharaTrait::traitPtr">
<polygon fill="white" stroke="black" points="240,-0.5 240,-21.5 344,-21.5 344,-0.5 240,-0.5"/>
<text text-anchor="middle" x="292" y="-8.5" font-family="DejaVuSans" font-size="10.00">CharaTrait::traitPtr</text>
</a>
</g>
<!-- Node1&#45;&gt;Node4 -->
<g id="edge6" class="edge"><title>Node1&#45;&gt;Node4</title>
<path fill="none" stroke="midnightblue" d="M142.336,-40.4905C169.119,-35.2129 201.728,-28.7876 229.662,-23.2834"/>
<polygon fill="midnightblue" stroke="midnightblue" points="230.588,-26.6683 239.722,-21.301 229.234,-19.8004 230.588,-26.6683"/>
</g>
</g>
</svg>
