<?xml version="1.0" encoding="UTF-8" standalone="no"?>
<!DOCTYPE svg PUBLIC "-//W3C//DTD SVG 1.1//EN"
 "http://www.w3.org/Graphics/SVG/1.1/DTD/svg11.dtd">
<!-- Generated by graphviz version 2.26.3 (20100126.1600)
 -->
<!-- Title: G Pages: 1 -->
<svg width="864pt" height="402pt"
 viewBox="0.00 0.00 864.00 402.18" xmlns="http://www.w3.org/2000/svg" xmlns:xlink="http://www.w3.org/1999/xlink">
<g id="graph1" class="graph" transform="scale(1 1) rotate(0) translate(4 398.184)">
<title>G</title>
<polygon fill="white" stroke="white" points="-4,5 -4,-398.184 861,-398.184 861,5 -4,5"/>
<!-- Node1 -->
<g id="node1" class="node"><title>Node1</title>
<polygon fill="#bfbfbf" stroke="black" points="0,-181.728 0,-202.728 104,-202.728 104,-181.728 0,-181.728"/>
<text text-anchor="middle" x="52" y="-189.728" font-family="DejaVuSans" font-size="10.00">CharaTrait::traitPtr</text>
</g>
<!-- Node2 -->
<g id="node3" class="node"><title>Node2</title>
<a xlink:href="class_chara_trait.html#acfe4795a41019f6c92e85e82c0a6ab1a" target="_top" xlink:title="CharaTrait::CharaTrait">
<polygon fill="white" stroke="black" points="736.5,-261.728 736.5,-282.728 855.5,-282.728 855.5,-261.728 736.5,-261.728"/>
<text text-anchor="middle" x="796" y="-269.728" font-family="DejaVuSans" font-size="10.00">CharaTrait::CharaTrait</text>
</a>
</g>
<!-- Node1&#45;&gt;Node2 -->
<g id="edge2" class="edge"><title>Node1&#45;&gt;Node2</title>
<path fill="none" stroke="midnightblue" d="M57.4337,-212.685C67.5423,-246.398 92.6389,-313.089 140,-345.228 201.684,-387.086 231.647,-363.881 306,-369.228 480.741,-381.795 537.97,-423.85 700,-357.228 739.324,-341.059 773.408,-301.702 788.181,-282.758"/>
<polygon fill="midnightblue" stroke="midnightblue" points="60.7757,-211.642 54.669,-202.984 54.0437,-213.56 60.7757,-211.642"/>
</g>
<!-- Node3 -->
<g id="node5" class="node"><title>Node3</title>
<a xlink:href="class_chara_trait.html#a7cc9b10030c5e6d5030fb898506ee070" target="_top" xlink:title="CharaTrait::customText">
<polygon fill="white" stroke="black" points="332.5,-83.728 332.5,-104.728 457.5,-104.728 457.5,-83.728 332.5,-83.728"/>
<text text-anchor="middle" x="395" y="-91.728" font-family="DejaVuSans" font-size="10.00">CharaTrait::customText</text>
</a>
</g>
<!-- Node1&#45;&gt;Node3 -->
<g id="edge4" class="edge"><title>Node1&#45;&gt;Node3</title>
<path fill="none" stroke="midnightblue" d="M57.9024,-172.144C68.4549,-140.367 93.8875,-79.5132 140,-54.228 219.175,-10.8136 331.694,-60.5246 376.014,-83.6583"/>
<polygon fill="midnightblue" stroke="midnightblue" points="54.5546,-171.123 54.8858,-181.712 61.2307,-173.227 54.5546,-171.123"/>
</g>
<!-- Node4 -->
<g id="node7" class="node"><title>Node4</title>
<a xlink:href="class_chara_trait.html#a0a5adca1cfd4732d6c4f64299e6d6fd3" target="_top" xlink:title="CharaTrait::updateWidget">
<polygon fill="white" stroke="black" points="541.5,-102.728 541.5,-123.728 678.5,-123.728 678.5,-102.728 541.5,-102.728"/>
<text text-anchor="middle" x="610" y="-110.728" font-family="DejaVuSans" font-size="10.00">CharaTrait::updateWidget</text>
</a>
</g>
<!-- Node1&#45;&gt;Node4 -->
<g id="edge44" class="edge"><title>Node1&#45;&gt;Node4</title>
<path fill="none" stroke="midnightblue" d="M104.4,-179.428C116.075,-176.826 128.424,-174.265 140,-172.228 281.738,-147.288 449.325,-128.875 541.186,-119.72"/>
<polygon fill="midnightblue" stroke="midnightblue" points="103.325,-176.083 94.3505,-181.714 104.878,-182.909 103.325,-176.083"/>
</g>
<!-- Node5 -->
<g id="node10" class="node"><title>Node5</title>
<a xlink:href="class_chara_trait.html#ab04ba68cad00668e6379a9e3fb1e5d8a" target="_top" xlink:title="CharaTrait::emitSpecialtiesClicked">
<polygon fill="white" stroke="black" points="306,-338.728 306,-359.728 484,-359.728 484,-338.728 306,-338.728"/>
<text text-anchor="middle" x="395" y="-346.728" font-family="DejaVuSans" font-size="10.00">CharaTrait::emitSpecialtiesClicked</text>
</a>
</g>
<!-- Node1&#45;&gt;Node5 -->
<g id="edge10" class="edge"><title>Node1&#45;&gt;Node5</title>
<path fill="none" stroke="midnightblue" d="M60.4433,-212.341C73.2361,-240.089 100.319,-289.381 140,-313.228 189.531,-342.994 254.049,-351.88 305.794,-353.383"/>
<polygon fill="midnightblue" stroke="midnightblue" points="63.4935,-210.585 56.2436,-202.859 57.0933,-213.42 63.4935,-210.585"/>
</g>
<!-- Node6 -->
<g id="node13" class="node"><title>Node6</title>
<a xlink:href="class_chara_trait.html#ad3abff76332080dfd9e487287537b8a2" target="_top" xlink:title="CharaTrait::setCategory">
<polygon fill="white" stroke="black" points="140.5,-221.728 140.5,-242.728 269.5,-242.728 269.5,-221.728 140.5,-221.728"/>
<text text-anchor="middle" x="205" y="-229.728" font-family="DejaVuSans" font-size="10.00">CharaTrait::setCategory</text>
</a>
</g>
<!-- Node1&#45;&gt;Node6 -->
<g id="edge14" class="edge"><title>Node1&#45;&gt;Node6</title>
<path fill="none" stroke="midnightblue" d="M101.94,-205.284C122.312,-210.61 145.555,-216.687 164.804,-221.719"/>
<polygon fill="midnightblue" stroke="midnightblue" points="102.759,-201.881 92.1989,-202.738 100.988,-208.653 102.759,-201.881"/>
</g>
<!-- Node7 -->
<g id="node15" class="node"><title>Node7</title>
<a xlink:href="class_chara_trait.html#a620d140e562c4102205d2c2a44af5622" target="_top" xlink:title="CharaTrait::setCustom">
<polygon fill="white" stroke="black" points="143.5,-181.728 143.5,-202.728 266.5,-202.728 266.5,-181.728 143.5,-181.728"/>
<text text-anchor="middle" x="205" y="-189.728" font-family="DejaVuSans" font-size="10.00">CharaTrait::setCustom</text>
</a>
</g>
<!-- Node1&#45;&gt;Node7 -->
<g id="edge16" class="edge"><title>Node1&#45;&gt;Node7</title>
<path fill="none" stroke="midnightblue" d="M114.405,-192.228C123.922,-192.228 133.741,-192.228 143.244,-192.228"/>
<polygon fill="midnightblue" stroke="midnightblue" points="114.226,-188.728 104.226,-192.228 114.226,-195.728 114.226,-188.728"/>
</g>
<!-- Node8 -->
<g id="node17" class="node"><title>Node8</title>
<a xlink:href="class_chara_trait.html#ace22816278072df97eb782603153600b" target="_top" xlink:title="CharaTrait::setCustomText">
<polygon fill="white" stroke="black" points="324,-5.728 324,-26.728 466,-26.728 466,-5.728 324,-5.728"/>
<text text-anchor="middle" x="395" y="-13.728" font-family="DejaVuSans" font-size="10.00">CharaTrait::setCustomText</text>
</a>
</g>
<!-- Node1&#45;&gt;Node8 -->
<g id="edge18" class="edge"><title>Node1&#45;&gt;Node8</title>
<path fill="none" stroke="midnightblue" d="M56.5901,-171.45C65.6551,-135.926 89.5147,-64.2543 140,-32.228 201.055,6.50318 287.74,2.39919 342.664,-5.69409"/>
<polygon fill="midnightblue" stroke="midnightblue" points="53.0804,-171.078 54.1518,-181.618 59.8874,-172.71 53.0804,-171.078"/>
</g>
<!-- Node9 -->
<g id="node20" class="node"><title>Node9</title>
<a xlink:href="class_chara_trait.html#a340feb7c80cc516245c80d1ff03a8aec" target="_top" xlink:title="CharaTrait::setSpecies">
<polygon fill="white" stroke="black" points="143.5,-103.728 143.5,-124.728 266.5,-124.728 266.5,-103.728 143.5,-103.728"/>
<text text-anchor="middle" x="205" y="-111.728" font-family="DejaVuSans" font-size="10.00">CharaTrait::setSpecies</text>
</a>
</g>
<!-- Node1&#45;&gt;Node9 -->
<g id="edge22" class="edge"><title>Node1&#45;&gt;Node9</title>
<path fill="none" stroke="midnightblue" d="M76.1409,-176.115C93.4712,-164.943 117.623,-150.166 140,-139.228 150.862,-133.919 163.157,-128.943 174.107,-124.849"/>
<polygon fill="midnightblue" stroke="midnightblue" points="74.2103,-173.195 67.7455,-181.589 78.0338,-179.059 74.2103,-173.195"/>
</g>
<!-- Node10 -->
<g id="node22" class="node"><title>Node10</title>
<a xlink:href="class_chara_trait.html#a2b019cd655e56e8113ecfcf6913681cc" target="_top" xlink:title="CharaTrait::setType">
<polygon fill="white" stroke="black" points="151.5,-63.728 151.5,-84.728 258.5,-84.728 258.5,-63.728 151.5,-63.728"/>
<text text-anchor="middle" x="205" y="-71.728" font-family="DejaVuSans" font-size="10.00">CharaTrait::setType</text>
</a>
</g>
<!-- Node1&#45;&gt;Node10 -->
<g id="edge24" class="edge"><title>Node1&#45;&gt;Node10</title>
<path fill="none" stroke="midnightblue" d="M64.3348,-173.129C79.5598,-151.031 107.464,-115.028 140,-94.228 145.969,-90.4123 152.71,-87.2866 159.534,-84.737"/>
<polygon fill="midnightblue" stroke="midnightblue" points="61.2742,-171.408 58.6095,-181.663 67.0873,-175.308 61.2742,-171.408"/>
</g>
<!-- Node11 -->
<g id="node24" class="node"><title>Node11</title>
<a xlink:href="class_chara_trait.html#abcfeed4a455c49246385c9bc2024ba15" target="_top" xlink:title="CharaTrait::setValue">
<polygon fill="white" stroke="black" points="339,-251.728 339,-272.728 451,-272.728 451,-251.728 339,-251.728"/>
<text text-anchor="middle" x="395" y="-259.728" font-family="DejaVuSans" font-size="10.00">CharaTrait::setValue</text>
</a>
</g>
<!-- Node1&#45;&gt;Node11 -->
<g id="edge26" class="edge"><title>Node1&#45;&gt;Node11</title>
<path fill="none" stroke="midnightblue" d="M62.4342,-212.058C76.4052,-236.211 103.699,-275.817 140,-292.228 219.003,-327.943 325.156,-292.07 371.599,-272.774"/>
<polygon fill="midnightblue" stroke="midnightblue" points="65.3476,-210.095 57.4295,-203.056 59.2294,-213.496 65.3476,-210.095"/>
</g>
<!-- Node16 -->
<g id="node39" class="node"><title>Node16</title>
<a xlink:href="class_chara_trait.html#adeed572acc2fa97468285bc3267e9cb8" target="_top" xlink:title="CharaTrait::value">
<polygon fill="white" stroke="black" points="157,-261.728 157,-282.728 253,-282.728 253,-261.728 157,-261.728"/>
<text text-anchor="middle" x="205" y="-269.728" font-family="DejaVuSans" font-size="10.00">CharaTrait::value</text>
</a>
</g>
<!-- Node1&#45;&gt;Node16 -->
<g id="edge46" class="edge"><title>Node1&#45;&gt;Node16</title>
<path fill="none" stroke="midnightblue" d="M73.1401,-209.331C90.3093,-222.539 115.595,-240.485 140,-252.228 147.554,-255.863 155.918,-259.02 164.061,-261.684"/>
<polygon fill="midnightblue" stroke="midnightblue" points="74.9796,-206.326 64.9491,-202.914 70.6628,-211.837 74.9796,-206.326"/>
</g>
<!-- Node3&#45;&gt;Node4 -->
<g id="edge6" class="edge"><title>Node3&#45;&gt;Node4</title>
<path fill="none" stroke="midnightblue" d="M467.758,-100.658C491.473,-102.753 517.715,-105.073 541.135,-107.142"/>
<polygon fill="midnightblue" stroke="midnightblue" points="468.034,-97.1686 457.765,-99.7747 467.418,-104.141 468.034,-97.1686"/>
</g>
<!-- Node4&#45;&gt;Node2 -->
<g id="edge8" class="edge"><title>Node4&#45;&gt;Node2</title>
<path fill="none" stroke="midnightblue" d="M688.013,-126.539C692.208,-128.479 696.239,-130.696 700,-133.228 749.63,-166.64 781.123,-235.068 791.87,-261.488"/>
<polygon fill="midnightblue" stroke="midnightblue" points="689.191,-123.24 678.609,-122.719 686.557,-129.725 689.191,-123.24"/>
</g>
<!-- Node5&#45;&gt;Node2 -->
<g id="edge12" class="edge"><title>Node5&#45;&gt;Node2</title>
<path fill="none" stroke="midnightblue" d="M494.508,-355.467C555.214,-356.33 633.638,-352.121 700,-331.228 732.841,-320.888 765.901,-296.879 783.356,-282.883"/>
<polygon fill="midnightblue" stroke="midnightblue" points="494.221,-351.96 484.155,-355.268 494.086,-358.959 494.221,-351.96"/>
</g>
<!-- Node8&#45;&gt;Node2 -->
<g id="edge20" class="edge"><title>Node8&#45;&gt;Node2</title>
<path fill="none" stroke="midnightblue" d="M476.247,-19.0515C542.646,-25.2016 635.717,-43.0379 700,-93.228 758.369,-138.801 785.576,-230.057 793.469,-261.381"/>
<polygon fill="midnightblue" stroke="midnightblue" points="476.502,-15.5606 466.239,-18.1939 475.904,-22.535 476.502,-15.5606"/>
</g>
<!-- Node11&#45;&gt;Node2 -->
<g id="edge30" class="edge"><title>Node11&#45;&gt;Node2</title>
<path fill="none" stroke="midnightblue" d="M461.187,-263.879C537.723,-265.787 662.601,-268.901 736.28,-270.739"/>
<polygon fill="midnightblue" stroke="midnightblue" points="461.264,-260.379 451.18,-263.629 461.089,-267.377 461.264,-260.379"/>
</g>
<!-- Node11&#45;&gt;Node4 -->
<g id="edge42" class="edge"><title>Node11&#45;&gt;Node4</title>
<path fill="none" stroke="midnightblue" d="M437.06,-247.61C453.385,-240.253 471.195,-229.932 484,-216.228 511.452,-186.848 488.992,-158.826 520,-133.228 526.295,-128.031 533.654,-124.111 541.403,-121.166"/>
<polygon fill="midnightblue" stroke="midnightblue" points="435.502,-244.469 427.668,-251.602 438.241,-250.911 435.502,-244.469"/>
</g>
<!-- Node12 -->
<g id="node26" class="node"><title>Node12</title>
<a xlink:href="class_attribute_widget.html#ab498116d47f94a62e3b82eaa79976b36" target="_top" xlink:title="AttributeWidget::AttributeWidget">
<polygon fill="white" stroke="black" points="524.5,-222.728 524.5,-243.728 695.5,-243.728 695.5,-222.728 524.5,-222.728"/>
<text text-anchor="middle" x="610" y="-230.728" font-family="DejaVuSans" font-size="10.00">AttributeWidget::AttributeWidget</text>
</a>
</g>
<!-- Node11&#45;&gt;Node12 -->
<g id="edge28" class="edge"><title>Node11&#45;&gt;Node12</title>
<path fill="none" stroke="midnightblue" d="M461.255,-253.291C483.587,-250.279 508.719,-246.889 531.88,-243.765"/>
<polygon fill="midnightblue" stroke="midnightblue" points="460.65,-249.841 451.208,-254.646 461.586,-256.778 460.65,-249.841"/>
</g>
<!-- Node13 -->
<g id="node29" class="node"><title>Node13</title>
<a xlink:href="class_chara_trait.html#ab02b27973fec9c68cee320dd61e5c618" target="_top" xlink:title="CharaTrait::checkTraitPrerequisites">
<polygon fill="white" stroke="black" points="520,-142.728 520,-163.728 700,-163.728 700,-142.728 520,-142.728"/>
<text text-anchor="middle" x="610" y="-150.728" font-family="DejaVuSans" font-size="10.00">CharaTrait::checkTraitPrerequisites</text>
</a>
</g>
<!-- Node11&#45;&gt;Node13 -->
<g id="edge32" class="edge"><title>Node11&#45;&gt;Node13</title>
<path fill="none" stroke="midnightblue" d="M431.526,-247.361C448.437,-239.506 468.227,-228.864 484,-216.228 503.452,-200.645 498.702,-186.175 520,-173.228 526.291,-169.403 533.228,-166.307 540.374,-163.802"/>
<polygon fill="midnightblue" stroke="midnightblue" points="429.644,-244.369 421.954,-251.657 432.51,-250.755 429.644,-244.369"/>
</g>
<!-- Node14 -->
<g id="node32" class="node"><title>Node14</title>
<a xlink:href="class_chara_trait.html#a8b30fcf229fb59f96c3926a59269194e" target="_top" xlink:title="CharaTrait::hideTraitIfNotAvailable">
<polygon fill="white" stroke="black" points="522.5,-300.728 522.5,-321.728 697.5,-321.728 697.5,-300.728 522.5,-300.728"/>
<text text-anchor="middle" x="610" y="-308.728" font-family="DejaVuSans" font-size="10.00">CharaTrait::hideTraitIfNotAvailable</text>
</a>
</g>
<!-- Node11&#45;&gt;Node14 -->
<g id="edge36" class="edge"><title>Node11&#45;&gt;Node14</title>
<path fill="none" stroke="midnightblue" d="M451.184,-275.033C486.162,-283.004 530.61,-293.134 563.583,-300.649"/>
<polygon fill="midnightblue" stroke="midnightblue" points="451.651,-271.549 441.123,-272.74 450.095,-278.374 451.651,-271.549"/>
</g>
<!-- Node15 -->
<g id="node35" class="node"><title>Node15</title>
<a xlink:href="class_merit_widget.html#a3f99dd98cf0c027d9e5a65a6a82d88c8" target="_top" xlink:title="MeritWidget::MeritWidget">
<polygon fill="white" stroke="black" points="542.5,-182.728 542.5,-203.728 677.5,-203.728 677.5,-182.728 542.5,-182.728"/>
<text text-anchor="middle" x="610" y="-190.728" font-family="DejaVuSans" font-size="10.00">MeritWidget::MeritWidget</text>
</a>
</g>
<!-- Node11&#45;&gt;Node15 -->
<g id="edge40" class="edge"><title>Node11&#45;&gt;Node15</title>
<path fill="none" stroke="midnightblue" d="M427.921,-247.704C452.844,-237.108 488.115,-222.956 520,-213.228 531.482,-209.725 543.961,-206.558 555.868,-203.83"/>
<polygon fill="midnightblue" stroke="midnightblue" points="426.382,-244.555 418.575,-251.717 429.144,-250.988 426.382,-244.555"/>
</g>
<!-- Node13&#45;&gt;Node2 -->
<g id="edge34" class="edge"><title>Node13&#45;&gt;Node2</title>
<path fill="none" stroke="midnightblue" d="M687.547,-167.298C691.858,-169.048 696.042,-171.016 700,-173.228 740.542,-195.891 774.768,-241.059 788.969,-261.608"/>
<polygon fill="midnightblue" stroke="midnightblue" points="688.536,-163.934 677.942,-163.804 686.143,-170.512 688.536,-163.934"/>
</g>
<!-- Node14&#45;&gt;Node2 -->
<g id="edge38" class="edge"><title>Node14&#45;&gt;Node2</title>
<path fill="none" stroke="midnightblue" d="M670.187,-298.608C694.55,-293.5 722.359,-287.669 745.625,-282.79"/>
<polygon fill="midnightblue" stroke="midnightblue" points="669.403,-295.196 660.334,-300.674 670.84,-302.047 669.403,-295.196"/>
</g>
<!-- Node16&#45;&gt;Node4 -->
<g id="edge50" class="edge"><title>Node16&#45;&gt;Node4</title>
<path fill="none" stroke="midnightblue" d="M251.146,-258.527C257.506,-256.494 263.933,-254.362 270,-252.228 366.539,-218.264 397.701,-222.234 484,-167.228 502.559,-155.399 500.559,-143.542 520,-133.228 527.211,-129.402 535.121,-126.307 543.165,-123.804"/>
<polygon fill="midnightblue" stroke="midnightblue" points="249.76,-255.293 241.268,-261.628 251.857,-261.972 249.76,-255.293"/>
</g>
<!-- Node16&#45;&gt;Node11 -->
<g id="edge48" class="edge"><title>Node16&#45;&gt;Node11</title>
<path fill="none" stroke="midnightblue" d="M263.477,-269.15C287.48,-267.887 315.153,-266.43 338.904,-265.18"/>
<polygon fill="midnightblue" stroke="midnightblue" points="263.239,-265.658 253.437,-269.679 263.607,-272.648 263.239,-265.658"/>
</g>
</g>
</svg>
