<?xml version="1.0" encoding="UTF-8" standalone="no"?>
<!DOCTYPE svg PUBLIC "-//W3C//DTD SVG 1.1//EN"
 "http://www.w3.org/Graphics/SVG/1.1/DTD/svg11.dtd">
<!-- Generated by graphviz version 2.26.3 (20100126.1600)
 -->
<!-- Title: G Pages: 1 -->
<svg width="448pt" height="108pt"
 viewBox="0.00 0.00 448.00 108.00" xmlns="http://www.w3.org/2000/svg" xmlns:xlink="http://www.w3.org/1999/xlink">
<g id="graph1" class="graph" transform="scale(1 1) rotate(0) translate(4 104)">
<title>G</title>
<polygon fill="white" stroke="white" points="-4,5 -4,-104 445,-104 445,5 -4,5"/>
<!-- Node1 -->
<g id="node1" class="node"><title>Node1</title>
<polygon fill="#bfbfbf" stroke="black" points="0.5,-39.5 0.5,-60.5 137.5,-60.5 137.5,-39.5 0.5,-39.5"/>
<text text-anchor="middle" x="69" y="-47.5" font-family="DejaVuSans" font-size="10.00">CheckTrait::updateWidget</text>
</g>
<!-- Node2 -->
<g id="node3" class="node"><title>Node2</title>
<a xlink:href="class_check_trait.html#a4ec4f95d6f1ff25331964d85393f0f3f" target="_top" xlink:title="CheckTrait::customText">
<polygon fill="white" stroke="black" points="174,-78.5 174,-99.5 300,-99.5 300,-78.5 174,-78.5"/>
<text text-anchor="middle" x="237" y="-86.5" font-family="DejaVuSans" font-size="10.00">CheckTrait::customText</text>
</a>
</g>
<!-- Node1&#45;&gt;Node2 -->
<g id="edge2" class="edge"><title>Node1&#45;&gt;Node2</title>
<path fill="none" stroke="midnightblue" d="M114.463,-60.554C135.194,-65.3664 159.922,-71.1068 181.717,-76.1665"/>
<polygon fill="midnightblue" stroke="midnightblue" points="180.968,-79.5856 191.5,-78.4376 182.551,-72.7669 180.968,-79.5856"/>
</g>
<!-- Node3 -->
<g id="node5" class="node"><title>Node3</title>
<a xlink:href="class_check_trait.html#a85928c20fd7d921c1d9b831168b9964e" target="_top" xlink:title="CheckTrait::traitPtr">
<polygon fill="white" stroke="black" points="336,-40.5 336,-61.5 440,-61.5 440,-40.5 336,-40.5"/>
<text text-anchor="middle" x="388" y="-48.5" font-family="DejaVuSans" font-size="10.00">CheckTrait::traitPtr</text>
</a>
</g>
<!-- Node1&#45;&gt;Node3 -->
<g id="edge6" class="edge"><title>Node1&#45;&gt;Node3</title>
<path fill="none" stroke="midnightblue" d="M137.826,-50.2158C193.576,-50.3905 271.458,-50.6347 325.453,-50.8039"/>
<polygon fill="midnightblue" stroke="midnightblue" points="325.572,-54.3042 335.583,-50.8357 325.594,-47.3043 325.572,-54.3042"/>
</g>
<!-- Node4 -->
<g id="node8" class="node"><title>Node4</title>
<a xlink:href="class_check_trait.html#a4399a810312044b74f6227955a1879a9" target="_top" xlink:title="CheckTrait::value">
<polygon fill="white" stroke="black" points="188.5,-0.5 188.5,-21.5 285.5,-21.5 285.5,-0.5 188.5,-0.5"/>
<text text-anchor="middle" x="237" y="-8.5" font-family="DejaVuSans" font-size="10.00">CheckTrait::value</text>
</a>
</g>
<!-- Node1&#45;&gt;Node4 -->
<g id="edge8" class="edge"><title>Node1&#45;&gt;Node4</title>
<path fill="none" stroke="midnightblue" d="M114.463,-39.446C135.194,-34.6336 159.922,-28.8932 181.717,-23.8335"/>
<polygon fill="midnightblue" stroke="midnightblue" points="182.551,-27.2331 191.5,-21.5624 180.968,-20.4144 182.551,-27.2331"/>
</g>
<!-- Node2&#45;&gt;Node3 -->
<g id="edge4" class="edge"><title>Node2&#45;&gt;Node3</title>
<path fill="none" stroke="midnightblue" d="M279.062,-78.4149C296.815,-73.9472 317.659,-68.7017 336.335,-64.0018"/>
<polygon fill="midnightblue" stroke="midnightblue" points="337.32,-67.3631 346.164,-61.5284 335.612,-60.5747 337.32,-67.3631"/>
</g>
<!-- Node4&#45;&gt;Node3 -->
<g id="edge10" class="edge"><title>Node4&#45;&gt;Node3</title>
<path fill="none" stroke="midnightblue" d="M276.673,-21.5095C295.585,-26.5193 318.402,-32.5634 338.442,-37.8721"/>
<polygon fill="midnightblue" stroke="midnightblue" points="337.767,-41.3138 348.33,-40.4913 339.559,-34.5472 337.767,-41.3138"/>
</g>
<!-- Node5 -->
<g id="node11" class="node"><title>Node5</title>
<a xlink:href="classcv___trait.html#a965fb56fc4ff6e659b4c44752cfaa538" target="_top" xlink:title="cv_Trait::value">
<polygon fill="white" stroke="black" points="346.5,-0.5 346.5,-21.5 429.5,-21.5 429.5,-0.5 346.5,-0.5"/>
<text text-anchor="middle" x="388" y="-8.5" font-family="DejaVuSans" font-size="10.00">cv_Trait::value</text>
</a>
</g>
<!-- Node4&#45;&gt;Node5 -->
<g id="edge12" class="edge"><title>Node4&#45;&gt;Node5</title>
<path fill="none" stroke="midnightblue" d="M285.609,-11C301.592,-11 319.425,-11 335.673,-11"/>
<polygon fill="midnightblue" stroke="midnightblue" points="336.085,-14.5001 346.085,-11 336.085,-7.5001 336.085,-14.5001"/>
</g>
</g>
</svg>
