<?xml version="1.0" encoding="UTF-8" standalone="no"?>
<!DOCTYPE svg PUBLIC "-//W3C//DTD SVG 1.1//EN"
 "http://www.w3.org/Graphics/SVG/1.1/DTD/svg11.dtd">
<!-- Generated by graphviz version 2.26.3 (20100126.1600)
 -->
<!-- Title: G Pages: 1 -->
<svg width="612pt" height="30pt"
 viewBox="0.00 0.00 612.00 30.00" xmlns="http://www.w3.org/2000/svg" xmlns:xlink="http://www.w3.org/1999/xlink">
<g id="graph1" class="graph" transform="scale(1 1) rotate(0) translate(4 26)">
<title>G</title>
<polygon fill="white" stroke="white" points="-4,5 -4,-26 609,-26 609,5 -4,5"/>
<!-- Node1 -->
<g id="node1" class="node"><title>Node1</title>
<polygon fill="#bfbfbf" stroke="black" points="0,-0.5 0,-21.5 190,-21.5 190,-0.5 0,-0.5"/>
<text text-anchor="middle" x="95" y="-8.5" font-family="DejaVuSans" font-size="10.00">StorageCharacter::moralityChanged</text>
</g>
<!-- Node2 -->
<g id="node3" class="node"><title>Node2</title>
<a xlink:href="class_storage_character.html#aaaaa83765f09e957f5592def8849765f" target="_top" xlink:title="StorageCharacter::setMorality">
<polygon fill="white" stroke="black" points="226.5,-0.5 226.5,-21.5 387.5,-21.5 387.5,-0.5 226.5,-0.5"/>
<text text-anchor="middle" x="307" y="-8.5" font-family="DejaVuSans" font-size="10.00">StorageCharacter::setMorality</text>
</a>
</g>
<!-- Node1&#45;&gt;Node2 -->
<g id="edge2" class="edge"><title>Node1&#45;&gt;Node2</title>
<path fill="none" stroke="midnightblue" d="M200.395,-11C209.139,-11 217.888,-11 226.404,-11"/>
<polygon fill="midnightblue" stroke="midnightblue" points="200.148,-7.5001 190.148,-11 200.148,-14.5001 200.148,-7.5001"/>
</g>
<!-- Node3 -->
<g id="node5" class="node"><title>Node3</title>
<a xlink:href="class_storage_character.html#a6534667b942bd21253c432fee79a8850" target="_top" xlink:title="StorageCharacter::resetCharacter">
<polygon fill="white" stroke="black" points="424,-0.5 424,-21.5 604,-21.5 604,-0.5 424,-0.5"/>
<text text-anchor="middle" x="514" y="-8.5" font-family="DejaVuSans" font-size="10.00">StorageCharacter::resetCharacter</text>
</a>
</g>
<!-- Node2&#45;&gt;Node3 -->
<g id="edge4" class="edge"><title>Node2&#45;&gt;Node3</title>
<path fill="none" stroke="midnightblue" d="M397.768,-11C406.469,-11 415.292,-11 423.985,-11"/>
<polygon fill="midnightblue" stroke="midnightblue" points="397.624,-7.5001 387.624,-11 397.624,-14.5001 397.624,-7.5001"/>
</g>
</g>
</svg>
