<?xml version="1.0" encoding="UTF-8" standalone="no"?>
<!DOCTYPE svg PUBLIC "-//W3C//DTD SVG 1.1//EN"
 "http://www.w3.org/Graphics/SVG/1.1/DTD/svg11.dtd">
<!-- Generated by graphviz version 2.26.3 (20100126.1600)
 -->
<!-- Title: G Pages: 1 -->
<svg width="706pt" height="187pt"
 viewBox="0.00 0.00 706.00 187.00" xmlns="http://www.w3.org/2000/svg" xmlns:xlink="http://www.w3.org/1999/xlink">
<g id="graph1" class="graph" transform="scale(1 1) rotate(0) translate(4 183)">
<title>G</title>
<polygon fill="white" stroke="white" points="-4,5 -4,-183 703,-183 703,5 -4,5"/>
<!-- Node1 -->
<g id="node1" class="node"><title>Node1</title>
<polygon fill="#bfbfbf" stroke="black" points="0,-80.5 0,-101.5 122,-101.5 122,-80.5 0,-80.5"/>
<text text-anchor="middle" x="61" y="-88.5" font-family="DejaVuSans" font-size="10.00">InfoWidget::InfoWidget</text>
</g>
<!-- Node2 -->
<g id="node3" class="node"><title>Node2</title>
<a xlink:href="class_storage_template.html#ada340e5acda2a32b7157c6c29cd64399" target="_top" xlink:title="StorageTemplate::breedNames">
<polygon fill="white" stroke="black" points="362.5,-157.5 362.5,-178.5 529.5,-178.5 529.5,-157.5 362.5,-157.5"/>
<text text-anchor="middle" x="446" y="-165.5" font-family="DejaVuSans" font-size="10.00">StorageTemplate::breedNames</text>
</a>
</g>
<!-- Node1&#45;&gt;Node2 -->
<g id="edge2" class="edge"><title>Node1&#45;&gt;Node2</title>
<path fill="none" stroke="midnightblue" d="M82.0128,-101.563C101.292,-110.79 130.886,-123.803 158,-131 221.66,-147.897 295.358,-157.185 352.265,-162.228"/>
<polygon fill="midnightblue" stroke="midnightblue" points="352.065,-165.724 362.328,-163.092 352.664,-158.75 352.065,-165.724"/>
</g>
<!-- Node4 -->
<g id="node7" class="node"><title>Node4</title>
<a xlink:href="class_storage_template.html#a6db02d80cae1dc3bfc10e586e9aef016" target="_top" xlink:title="StorageTemplate::factionNames">
<polygon fill="white" stroke="black" points="360.5,-117.5 360.5,-138.5 531.5,-138.5 531.5,-117.5 360.5,-117.5"/>
<text text-anchor="middle" x="446" y="-125.5" font-family="DejaVuSans" font-size="10.00">StorageTemplate::factionNames</text>
</a>
</g>
<!-- Node1&#45;&gt;Node4 -->
<g id="edge6" class="edge"><title>Node1&#45;&gt;Node4</title>
<path fill="none" stroke="midnightblue" d="M105.197,-101.515C121.681,-105.066 140.612,-108.706 158,-111 221.693,-119.401 293.861,-123.652 350.021,-125.801"/>
<polygon fill="midnightblue" stroke="midnightblue" points="350.194,-129.31 360.315,-126.179 350.45,-122.315 350.194,-129.31"/>
</g>
<!-- Node5 -->
<g id="node10" class="node"><title>Node5</title>
<a xlink:href="class_storage_character.html#a50022b948be1e566d902d64095c4470b" target="_top" xlink:title="StorageCharacter::getInstance">
<polygon fill="white" stroke="black" points="159,-80.5 159,-101.5 323,-101.5 323,-80.5 159,-80.5"/>
<text text-anchor="middle" x="241" y="-88.5" font-family="DejaVuSans" font-size="10.00">StorageCharacter::getInstance</text>
</a>
</g>
<!-- Node1&#45;&gt;Node5 -->
<g id="edge10" class="edge"><title>Node1&#45;&gt;Node5</title>
<path fill="none" stroke="midnightblue" d="M122.191,-91C130.781,-91 139.762,-91 148.773,-91"/>
<polygon fill="midnightblue" stroke="midnightblue" points="148.94,-94.5001 158.94,-91 148.94,-87.5001 148.94,-94.5001"/>
</g>
<!-- Node6 -->
<g id="node12" class="node"><title>Node6</title>
<a xlink:href="class_storage_template.html#ad86a34d5b7fb0bd4f6bbb8a75f1cf5f5" target="_top" xlink:title="StorageTemplate::viceNames">
<polygon fill="white" stroke="black" points="162,-40.5 162,-61.5 320,-61.5 320,-40.5 162,-40.5"/>
<text text-anchor="middle" x="241" y="-48.5" font-family="DejaVuSans" font-size="10.00">StorageTemplate::viceNames</text>
</a>
</g>
<!-- Node1&#45;&gt;Node6 -->
<g id="edge12" class="edge"><title>Node1&#45;&gt;Node6</title>
<path fill="none" stroke="midnightblue" d="M108.293,-80.4905C131.455,-75.3434 159.529,-69.1046 183.88,-63.6933"/>
<polygon fill="midnightblue" stroke="midnightblue" points="184.708,-67.0948 193.711,-61.5087 183.19,-60.2614 184.708,-67.0948"/>
</g>
<!-- Node8 -->
<g id="node17" class="node"><title>Node8</title>
<a xlink:href="class_storage_template.html#a6b5bc4437780ff4334b25241926512fe" target="_top" xlink:title="StorageTemplate::virtueNames">
<polygon fill="white" stroke="black" points="158,-0.5 158,-21.5 324,-21.5 324,-0.5 158,-0.5"/>
<text text-anchor="middle" x="241" y="-8.5" font-family="DejaVuSans" font-size="10.00">StorageTemplate::virtueNames</text>
</a>
</g>
<!-- Node1&#45;&gt;Node8 -->
<g id="edge18" class="edge"><title>Node1&#45;&gt;Node8</title>
<path fill="none" stroke="midnightblue" d="M75.0073,-80.3276C93.2009,-66.9529 126.384,-44.1887 158,-31 163.835,-28.5658 170.03,-26.3876 176.303,-24.4475"/>
<polygon fill="midnightblue" stroke="midnightblue" points="177.549,-27.7308 186.184,-21.5924 175.606,-21.0059 177.549,-27.7308"/>
</g>
<!-- Node3 -->
<g id="node5" class="node"><title>Node3</title>
<a xlink:href="class_storage_template.html#a75022d10255d8f09b675d8c01d2295f3" target="_top" xlink:title="StorageTemplate::traits">
<polygon fill="white" stroke="black" points="568.5,-117.5 568.5,-138.5 697.5,-138.5 697.5,-117.5 568.5,-117.5"/>
<text text-anchor="middle" x="633" y="-125.5" font-family="DejaVuSans" font-size="10.00">StorageTemplate::traits</text>
</a>
</g>
<!-- Node2&#45;&gt;Node3 -->
<g id="edge4" class="edge"><title>Node2&#45;&gt;Node3</title>
<path fill="none" stroke="midnightblue" d="M495.132,-157.49C519.302,-152.321 548.62,-146.049 573.996,-140.621"/>
<polygon fill="midnightblue" stroke="midnightblue" points="574.825,-144.023 583.872,-138.509 573.361,-137.178 574.825,-144.023"/>
</g>
<!-- Node4&#45;&gt;Node3 -->
<g id="edge8" class="edge"><title>Node4&#45;&gt;Node3</title>
<path fill="none" stroke="midnightblue" d="M531.565,-128C540.481,-128 549.495,-128 558.278,-128"/>
<polygon fill="midnightblue" stroke="midnightblue" points="558.464,-131.5 568.464,-128 558.464,-124.5 558.464,-131.5"/>
</g>
<!-- Node7 -->
<g id="node14" class="node"><title>Node7</title>
<a xlink:href="class_storage_template.html#a2e80f31564a058b2a7df5f092dc46eba" target="_top" xlink:title="StorageTemplate::traitNames">
<polygon fill="white" stroke="black" points="367,-40.5 367,-61.5 525,-61.5 525,-40.5 367,-40.5"/>
<text text-anchor="middle" x="446" y="-48.5" font-family="DejaVuSans" font-size="10.00">StorageTemplate::traitNames</text>
</a>
</g>
<!-- Node6&#45;&gt;Node7 -->
<g id="edge14" class="edge"><title>Node6&#45;&gt;Node7</title>
<path fill="none" stroke="midnightblue" d="M320.258,-51C332.23,-51 344.647,-51 356.81,-51"/>
<polygon fill="midnightblue" stroke="midnightblue" points="356.952,-54.5001 366.952,-51 356.952,-47.5001 356.952,-54.5001"/>
</g>
<!-- Node7&#45;&gt;Node3 -->
<g id="edge16" class="edge"><title>Node7&#45;&gt;Node3</title>
<path fill="none" stroke="midnightblue" d="M471.609,-61.5451C504.39,-75.0431 561.327,-98.4875 598.067,-113.616"/>
<polygon fill="midnightblue" stroke="midnightblue" points="596.821,-116.888 607.4,-117.459 599.486,-110.415 596.821,-116.888"/>
</g>
<!-- Node8&#45;&gt;Node7 -->
<g id="edge20" class="edge"><title>Node8&#45;&gt;Node7</title>
<path fill="none" stroke="midnightblue" d="M294.861,-21.5095C321.592,-26.7252 354.067,-33.0619 382.054,-38.5227"/>
<polygon fill="midnightblue" stroke="midnightblue" points="381.658,-42.0113 392.143,-40.4913 382.998,-35.1409 381.658,-42.0113"/>
</g>
</g>
</svg>
