<?xml version="1.0" encoding="UTF-8" standalone="no"?>
<!DOCTYPE svg PUBLIC "-//W3C//DTD SVG 1.1//EN"
 "http://www.w3.org/Graphics/SVG/1.1/DTD/svg11.dtd">
<!-- Generated by graphviz version 2.26.3 (20100126.1600)
 -->
<!-- Title: G Pages: 1 -->
<svg width="416pt" height="70pt"
 viewBox="0.00 0.00 416.00 70.00" xmlns="http://www.w3.org/2000/svg" xmlns:xlink="http://www.w3.org/1999/xlink">
<g id="graph1" class="graph" transform="scale(1 1) rotate(0) translate(4 66)">
<title>G</title>
<polygon fill="white" stroke="white" points="-4,5 -4,-66 413,-66 413,5 -4,5"/>
<!-- Node1 -->
<g id="node1" class="node"><title>Node1</title>
<polygon fill="#bfbfbf" stroke="black" points="0.5,-20.5 0.5,-41.5 83.5,-41.5 83.5,-20.5 0.5,-20.5"/>
<text text-anchor="middle" x="42" y="-28.5" font-family="DejaVuSans" font-size="10.00">eEntry::eEntry</text>
</g>
<!-- Node2 -->
<g id="node3" class="node"><title>Node2</title>
<a xlink:href="class_exception.html#a032056e0558a40affd69325368840a72" target="_top" xlink:title="Exception::setDescription">
<polygon fill="white" stroke="black" points="120,-40.5 120,-61.5 258,-61.5 258,-40.5 120,-40.5"/>
<text text-anchor="middle" x="189" y="-48.5" font-family="DejaVuSans" font-size="10.00">Exception::setDescription</text>
</a>
</g>
<!-- Node1&#45;&gt;Node2 -->
<g id="edge2" class="edge"><title>Node1&#45;&gt;Node2</title>
<path fill="none" stroke="midnightblue" d="M83.7311,-36.6777C91.9335,-37.7937 100.79,-38.9986 109.76,-40.2191"/>
<polygon fill="midnightblue" stroke="midnightblue" points="109.528,-43.7196 119.909,-41.5998 110.472,-36.7836 109.528,-43.7196"/>
</g>
<!-- Node3 -->
<g id="node5" class="node"><title>Node3</title>
<a xlink:href="class_exception.html#a16b5202a71fe00abb2c278adca10b415" target="_top" xlink:title="Exception::setMessage">
<polygon fill="white" stroke="black" points="125.5,-0.5 125.5,-21.5 252.5,-21.5 252.5,-0.5 125.5,-0.5"/>
<text text-anchor="middle" x="189" y="-8.5" font-family="DejaVuSans" font-size="10.00">Exception::setMessage</text>
</a>
</g>
<!-- Node1&#45;&gt;Node3 -->
<g id="edge4" class="edge"><title>Node1&#45;&gt;Node3</title>
<path fill="none" stroke="midnightblue" d="M83.7311,-25.3223C93.6742,-23.9695 104.578,-22.486 115.482,-21.0024"/>
<polygon fill="midnightblue" stroke="midnightblue" points="116.032,-24.46 125.469,-19.6437 115.088,-17.5239 116.032,-24.46"/>
</g>
<!-- Node4 -->
<g id="node7" class="node"><title>Node4</title>
<a xlink:href="class_exception.html#aeaf3a81717287d50938bc72ed67bacd8" target="_top" xlink:title="Exception::message">
<polygon fill="white" stroke="black" points="294.5,-0.5 294.5,-21.5 407.5,-21.5 407.5,-0.5 294.5,-0.5"/>
<text text-anchor="middle" x="351" y="-8.5" font-family="DejaVuSans" font-size="10.00">Exception::message</text>
</a>
</g>
<!-- Node3&#45;&gt;Node4 -->
<g id="edge6" class="edge"><title>Node3&#45;&gt;Node4</title>
<path fill="none" stroke="midnightblue" d="M252.562,-11C262.933,-11 273.705,-11 284.152,-11"/>
<polygon fill="midnightblue" stroke="midnightblue" points="284.465,-14.5001 294.465,-11 284.465,-7.5001 284.465,-14.5001"/>
</g>
</g>
</svg>
