<?xml version="1.0" encoding="UTF-8" standalone="no"?>
<!DOCTYPE svg PUBLIC "-//W3C//DTD SVG 1.1//EN"
 "http://www.w3.org/Graphics/SVG/1.1/DTD/svg11.dtd">
<!-- Generated by graphviz version 2.26.3 (20100126.1600)
 -->
<!-- Title: G Pages: 1 -->
<svg width="234pt" height="162pt"
 viewBox="0.00 0.00 234.00 162.00" xmlns="http://www.w3.org/2000/svg" xmlns:xlink="http://www.w3.org/1999/xlink">
<g id="graph1" class="graph" transform="scale(1 1) rotate(0) translate(4 158)">
<title>G</title>
<polygon fill="white" stroke="white" points="-4,5 -4,-158 231,-158 231,5 -4,5"/>
<!-- Node1 -->
<g id="node1" class="node"><title>Node1</title>
<polygon fill="#bfbfbf" stroke="black" points="0,-0.5 0,-21.5 226,-21.5 226,-0.5 0,-0.5"/>
<text text-anchor="middle" x="113" y="-8.5" font-family="DejaVuSans" font-size="10.00">src.Widgets.AttributeWidget.AttributeWidget</text>
</g>
<!-- Node2 -->
<g id="node2" class="node"><title>Node2</title>
<a xlink:href="classsrc_1_1_widgets_1_1_trait_widget_1_1_trait_widget.html" target="_top" xlink:title="Grundlage der Widgets für alle Eigenschaften.">
<polygon fill="white" stroke="black" points="22.5,-60.5 22.5,-81.5 203.5,-81.5 203.5,-60.5 22.5,-60.5"/>
<text text-anchor="middle" x="113" y="-68.5" font-family="DejaVuSans" font-size="10.00">src.Widgets.TraitWidget.TraitWidget</text>
</a>
</g>
<!-- Node2&#45;&gt;Node1 -->
<g id="edge2" class="edge"><title>Node2&#45;&gt;Node1</title>
<path fill="none" stroke="midnightblue" d="M113,-50.2312C113,-40.5922 113,-29.5444 113,-21.6339"/>
<polygon fill="midnightblue" stroke="midnightblue" points="109.5,-50.2732 113,-60.2732 116.5,-50.2732 109.5,-50.2732"/>
</g>
<!-- Node3 -->
<g id="node4" class="node"><title>Node3</title>
<polygon fill="white" stroke="#bfbfbf" points="52,-132.5 52,-153.5 108,-153.5 108,-132.5 52,-132.5"/>
<text text-anchor="middle" x="80" y="-140.5" font-family="DejaVuSans" font-size="10.00">QWidget</text>
</g>
<!-- Node3&#45;&gt;Node2 -->
<g id="edge4" class="edge"><title>Node3&#45;&gt;Node2</title>
<path fill="none" stroke="midnightblue" d="M89.1545,-123.027C95.2912,-109.637 103.131,-92.5318 108.111,-81.6674"/>
<polygon fill="midnightblue" stroke="midnightblue" points="85.8541,-121.827 84.8693,-132.376 92.2176,-124.744 85.8541,-121.827"/>
</g>
<!-- Node4 -->
<g id="node6" class="node"><title>Node4</title>
<polygon fill="white" stroke="#bfbfbf" points="125.5,-132.5 125.5,-153.5 166.5,-153.5 166.5,-132.5 125.5,-132.5"/>
<text text-anchor="middle" x="146" y="-140.5" font-family="DejaVuSans" font-size="10.00">tuple</text>
</g>
<!-- Node4&#45;&gt;Node2 -->
<g id="edge6" class="edge"><title>Node4&#45;&gt;Node2</title>
<path fill="none" stroke="#9a32cd" stroke-dasharray="5,2" d="M136.846,-123.027C130.709,-109.637 122.869,-92.5318 117.889,-81.6674"/>
<polygon fill="#9a32cd" stroke="#9a32cd" points="133.782,-124.744 141.131,-132.376 140.146,-121.827 133.782,-124.744"/>
<text text-anchor="middle" x="174" y="-104.5" font-family="DejaVuSans" font-size="10.00">maxTraitChanged</text>
</g>
</g>
</svg>
