<?xml version="1.0" encoding="UTF-8" standalone="no"?>
<!DOCTYPE svg PUBLIC "-//W3C//DTD SVG 1.1//EN"
 "http://www.w3.org/Graphics/SVG/1.1/DTD/svg11.dtd">
<!-- Generated by graphviz version 2.26.3 (20100126.1600)
 -->
<!-- Title: G Pages: 1 -->
<svg width="770pt" height="266pt"
 viewBox="0.00 0.00 770.00 266.00" xmlns="http://www.w3.org/2000/svg" xmlns:xlink="http://www.w3.org/1999/xlink">
<g id="graph1" class="graph" transform="scale(1 1) rotate(0) translate(4 262)">
<title>G</title>
<polygon fill="white" stroke="white" points="-4,5 -4,-262 767,-262 767,5 -4,5"/>
<!-- Node1 -->
<g id="node1" class="node"><title>Node1</title>
<polygon fill="#bfbfbf" stroke="black" points="0.5,-120.5 0.5,-141.5 129.5,-141.5 129.5,-120.5 0.5,-120.5"/>
<text text-anchor="middle" x="65" y="-128.5" font-family="DejaVuSans" font-size="10.00">StorageTemplate::traits</text>
</g>
<!-- Node2 -->
<g id="node3" class="node"><title>Node2</title>
<a xlink:href="class_attribute_widget.html#ab498116d47f94a62e3b82eaa79976b36" target="_top" xlink:title="AttributeWidget::AttributeWidget">
<polygon fill="white" stroke="black" points="166.5,-236.5 166.5,-257.5 337.5,-257.5 337.5,-236.5 166.5,-236.5"/>
<text text-anchor="middle" x="252" y="-244.5" font-family="DejaVuSans" font-size="10.00">AttributeWidget::AttributeWidget</text>
</a>
</g>
<!-- Node1&#45;&gt;Node2 -->
<g id="edge2" class="edge"><title>Node1&#45;&gt;Node2</title>
<path fill="none" stroke="midnightblue" d="M80.6505,-149.398C99.0787,-169.943 131.566,-202.823 166,-222 176.867,-228.052 189.341,-232.763 201.356,-236.38"/>
<polygon fill="midnightblue" stroke="midnightblue" points="83.0957,-146.878 73.8659,-141.676 77.8372,-151.499 83.0957,-146.878"/>
</g>
<!-- Node3 -->
<g id="node5" class="node"><title>Node3</title>
<a xlink:href="class_storage_template.html#ada340e5acda2a32b7157c6c29cd64399" target="_top" xlink:title="StorageTemplate::breedNames">
<polygon fill="white" stroke="black" points="376.5,-199.5 376.5,-220.5 543.5,-220.5 543.5,-199.5 376.5,-199.5"/>
<text text-anchor="middle" x="460" y="-207.5" font-family="DejaVuSans" font-size="10.00">StorageTemplate::breedNames</text>
</a>
</g>
<!-- Node1&#45;&gt;Node3 -->
<g id="edge4" class="edge"><title>Node1&#45;&gt;Node3</title>
<path fill="none" stroke="midnightblue" d="M95.5942,-145.827C115.267,-154.751 141.621,-165.591 166,-172 235.56,-190.287 316.789,-199.933 376.216,-204.922"/>
<polygon fill="midnightblue" stroke="midnightblue" points="97.0569,-142.647 86.5112,-141.627 94.1192,-149.001 97.0569,-142.647"/>
</g>
<!-- Node5 -->
<g id="node9" class="node"><title>Node5</title>
<a xlink:href="class_storage_template.html#a6db02d80cae1dc3bfc10e586e9aef016" target="_top" xlink:title="StorageTemplate::factionNames">
<polygon fill="white" stroke="black" points="374.5,-159.5 374.5,-180.5 545.5,-180.5 545.5,-159.5 374.5,-159.5"/>
<text text-anchor="middle" x="460" y="-167.5" font-family="DejaVuSans" font-size="10.00">StorageTemplate::factionNames</text>
</a>
</g>
<!-- Node1&#45;&gt;Node5 -->
<g id="edge8" class="edge"><title>Node1&#45;&gt;Node5</title>
<path fill="none" stroke="midnightblue" d="M121.375,-143.518C135.857,-146.361 151.455,-149.098 166,-151 235.862,-160.135 315.664,-164.94 374.482,-167.43"/>
<polygon fill="midnightblue" stroke="midnightblue" points="122.048,-140.084 111.554,-141.543 120.667,-146.946 122.048,-140.084"/>
</g>
<!-- Node6 -->
<g id="node12" class="node"><title>Node6</title>
<a xlink:href="class_flaw_widget.html#af387a892373d07ce615ad19d6da45448" target="_top" xlink:title="FlawWidget::FlawWidget">
<polygon fill="white" stroke="black" points="188,-80.5 188,-101.5 316,-101.5 316,-80.5 188,-80.5"/>
<text text-anchor="middle" x="252" y="-88.5" font-family="DejaVuSans" font-size="10.00">FlawWidget::FlawWidget</text>
</a>
</g>
<!-- Node1&#45;&gt;Node6 -->
<g id="edge12" class="edge"><title>Node1&#45;&gt;Node6</title>
<path fill="none" stroke="midnightblue" d="M124.008,-118.378C149.384,-112.95 178.703,-106.679 202.872,-101.509"/>
<polygon fill="midnightblue" stroke="midnightblue" points="123.179,-114.976 114.132,-120.49 124.643,-121.821 123.179,-114.976"/>
</g>
<!-- Node7 -->
<g id="node14" class="node"><title>Node7</title>
<a xlink:href="class_merit_widget.html#a3f99dd98cf0c027d9e5a65a6a82d88c8" target="_top" xlink:title="MeritWidget::MeritWidget">
<polygon fill="white" stroke="black" points="184.5,-40.5 184.5,-61.5 319.5,-61.5 319.5,-40.5 184.5,-40.5"/>
<text text-anchor="middle" x="252" y="-48.5" font-family="DejaVuSans" font-size="10.00">MeritWidget::MeritWidget</text>
</a>
</g>
<!-- Node1&#45;&gt;Node7 -->
<g id="edge14" class="edge"><title>Node1&#45;&gt;Node7</title>
<path fill="none" stroke="midnightblue" d="M87.9998,-114.534C107.809,-101.056 137.611,-82.4138 166,-71 175.245,-67.2832 185.339,-64.1645 195.256,-61.5798"/>
<polygon fill="midnightblue" stroke="midnightblue" points="85.8728,-111.75 79.6425,-120.319 89.8569,-117.505 85.8728,-111.75"/>
</g>
<!-- Node8 -->
<g id="node16" class="node"><title>Node8</title>
<a xlink:href="class_power_widget.html#a07bb0283ac179fda85ae3f2e38f17b71" target="_top" xlink:title="PowerWidget::PowerWidget">
<polygon fill="white" stroke="black" points="180,-0.5 180,-21.5 324,-21.5 324,-0.5 180,-0.5"/>
<text text-anchor="middle" x="252" y="-8.5" font-family="DejaVuSans" font-size="10.00">PowerWidget::PowerWidget</text>
</a>
</g>
<!-- Node1&#45;&gt;Node8 -->
<g id="edge16" class="edge"><title>Node1&#45;&gt;Node8</title>
<path fill="none" stroke="midnightblue" d="M78.7111,-112.099C96.3044,-89.2787 129.004,-51.4259 166,-31 172.978,-27.1473 180.67,-24.0346 188.497,-21.5202"/>
<polygon fill="midnightblue" stroke="midnightblue" points="75.7441,-110.221 72.5287,-120.316 81.3377,-114.429 75.7441,-110.221"/>
</g>
<!-- Node9 -->
<g id="node18" class="node"><title>Node9</title>
<a xlink:href="class_storage_template.html#a2e80f31564a058b2a7df5f092dc46eba" target="_top" xlink:title="StorageTemplate::traitNames">
<polygon fill="white" stroke="black" points="173,-120.5 173,-141.5 331,-141.5 331,-120.5 173,-120.5"/>
<text text-anchor="middle" x="252" y="-128.5" font-family="DejaVuSans" font-size="10.00">StorageTemplate::traitNames</text>
</a>
</g>
<!-- Node1&#45;&gt;Node9 -->
<g id="edge18" class="edge"><title>Node1&#45;&gt;Node9</title>
<path fill="none" stroke="midnightblue" d="M139.888,-131C150.734,-131 161.928,-131 172.854,-131"/>
<polygon fill="midnightblue" stroke="midnightblue" points="139.617,-127.5 129.617,-131 139.617,-134.5 139.617,-127.5"/>
</g>
<!-- Node4 -->
<g id="node7" class="node"><title>Node4</title>
<a xlink:href="class_info_widget.html#a19f07d861d22be4881361a5a32e86451" target="_top" xlink:title="InfoWidget::InfoWidget">
<polygon fill="white" stroke="black" points="611,-149.5 611,-170.5 733,-170.5 733,-149.5 611,-149.5"/>
<text text-anchor="middle" x="672" y="-157.5" font-family="DejaVuSans" font-size="10.00">InfoWidget::InfoWidget</text>
</a>
</g>
<!-- Node3&#45;&gt;Node4 -->
<g id="edge6" class="edge"><title>Node3&#45;&gt;Node4</title>
<path fill="none" stroke="midnightblue" d="M515.525,-197.132C525.666,-194.769 536.152,-192.318 546,-190 573.251,-183.587 603.797,-176.316 627.988,-170.539"/>
<polygon fill="midnightblue" stroke="midnightblue" points="514.481,-193.781 505.535,-199.457 516.068,-200.599 514.481,-193.781"/>
</g>
<!-- Node5&#45;&gt;Node4 -->
<g id="edge10" class="edge"><title>Node5&#45;&gt;Node4</title>
<path fill="none" stroke="midnightblue" d="M555.666,-165.487C574.407,-164.603 593.583,-163.699 610.821,-162.886"/>
<polygon fill="midnightblue" stroke="midnightblue" points="555.441,-161.994 545.617,-165.961 555.771,-168.986 555.441,-161.994"/>
</g>
<!-- Node10 -->
<g id="node20" class="node"><title>Node10</title>
<a xlink:href="class_storage_template.html#ad86a34d5b7fb0bd4f6bbb8a75f1cf5f5" target="_top" xlink:title="StorageTemplate::viceNames">
<polygon fill="white" stroke="black" points="381,-119.5 381,-140.5 539,-140.5 539,-119.5 381,-119.5"/>
<text text-anchor="middle" x="460" y="-127.5" font-family="DejaVuSans" font-size="10.00">StorageTemplate::viceNames</text>
</a>
</g>
<!-- Node9&#45;&gt;Node10 -->
<g id="edge20" class="edge"><title>Node9&#45;&gt;Node10</title>
<path fill="none" stroke="midnightblue" d="M341.256,-130.571C354.469,-130.507 368.006,-130.442 380.991,-130.38"/>
<polygon fill="midnightblue" stroke="midnightblue" points="341.212,-127.071 331.229,-130.619 341.246,-134.071 341.212,-127.071"/>
</g>
<!-- Node12 -->
<g id="node25" class="node"><title>Node12</title>
<a xlink:href="class_storage_template.html#a6b5bc4437780ff4334b25241926512fe" target="_top" xlink:title="StorageTemplate::virtueNames">
<polygon fill="white" stroke="black" points="377,-79.5 377,-100.5 543,-100.5 543,-79.5 377,-79.5"/>
<text text-anchor="middle" x="460" y="-87.5" font-family="DejaVuSans" font-size="10.00">StorageTemplate::virtueNames</text>
</a>
</g>
<!-- Node9&#45;&gt;Node12 -->
<g id="edge26" class="edge"><title>Node9&#45;&gt;Node12</title>
<path fill="none" stroke="midnightblue" d="M315.369,-118.509C344.496,-112.768 378.669,-106.032 406.482,-100.549"/>
<polygon fill="midnightblue" stroke="midnightblue" points="314.429,-115.127 305.295,-120.495 315.783,-121.995 314.429,-115.127"/>
</g>
<!-- Node10&#45;&gt;Node4 -->
<g id="edge22" class="edge"><title>Node10&#45;&gt;Node4</title>
<path fill="none" stroke="midnightblue" d="M544.501,-141.958C566.62,-145.088 590.042,-148.402 610.694,-151.325"/>
<polygon fill="midnightblue" stroke="midnightblue" points="544.837,-138.47 534.445,-140.535 543.856,-145.401 544.837,-138.47"/>
</g>
<!-- Node11 -->
<g id="node23" class="node"><title>Node11</title>
<a xlink:href="class_storage_character.html#a6534667b942bd21253c432fee79a8850" target="_top" xlink:title="StorageCharacter::resetCharacter">
<polygon fill="white" stroke="black" points="582,-89.5 582,-110.5 762,-110.5 762,-89.5 582,-89.5"/>
<text text-anchor="middle" x="672" y="-97.5" font-family="DejaVuSans" font-size="10.00">StorageCharacter::resetCharacter</text>
</a>
</g>
<!-- Node10&#45;&gt;Node11 -->
<g id="edge24" class="edge"><title>Node10&#45;&gt;Node11</title>
<path fill="none" stroke="midnightblue" d="M544.67,-118.018C562.222,-115.535 580.588,-112.936 597.734,-110.509"/>
<polygon fill="midnightblue" stroke="midnightblue" points="543.856,-114.599 534.445,-119.465 544.837,-121.53 543.856,-114.599"/>
</g>
<!-- Node12&#45;&gt;Node4 -->
<g id="edge28" class="edge"><title>Node12&#45;&gt;Node4</title>
<path fill="none" stroke="midnightblue" d="M521.089,-103.017C529.512,-105.157 538.008,-107.5 546,-110 582.387,-121.381 623.179,-138.38 648.229,-149.33"/>
<polygon fill="midnightblue" stroke="midnightblue" points="521.817,-99.5917 511.271,-100.601 520.145,-106.389 521.817,-99.5917"/>
</g>
<!-- Node12&#45;&gt;Node11 -->
<g id="edge30" class="edge"><title>Node12&#45;&gt;Node11</title>
<path fill="none" stroke="midnightblue" d="M553.337,-94.4027C562.761,-94.8472 572.319,-95.2981 581.71,-95.741"/>
<polygon fill="midnightblue" stroke="midnightblue" points="553.333,-90.8987 543.18,-93.9236 553.003,-97.8909 553.333,-90.8987"/>
</g>
</g>
</svg>
