<?xml version="1.0" encoding="UTF-8" standalone="no"?>
<!DOCTYPE svg PUBLIC "-//W3C//DTD SVG 1.1//EN"
 "http://www.w3.org/Graphics/SVG/1.1/DTD/svg11.dtd">
<!-- Generated by graphviz version 2.26.3 (20100126.1600)
 -->
<!-- Title: G Pages: 1 -->
<svg width="492pt" height="228pt"
 viewBox="0.00 0.00 492.00 228.00" xmlns="http://www.w3.org/2000/svg" xmlns:xlink="http://www.w3.org/1999/xlink">
<g id="graph1" class="graph" transform="scale(1 1) rotate(0) translate(4 224)">
<title>G</title>
<polygon fill="white" stroke="white" points="-4,5 -4,-224 489,-224 489,5 -4,5"/>
<!-- Node1 -->
<g id="node1" class="node"><title>Node1</title>
<polygon fill="#bfbfbf" stroke="black" points="0,-100.5 0,-121.5 112,-121.5 112,-100.5 0,-100.5"/>
<text text-anchor="middle" x="56" y="-108.5" font-family="DejaVuSans" font-size="10.00">CharaTrait::setValue</text>
</g>
<!-- Node2 -->
<g id="node3" class="node"><title>Node2</title>
<a xlink:href="class_attribute_widget.html#ab498116d47f94a62e3b82eaa79976b36" target="_top" xlink:title="AttributeWidget::AttributeWidget">
<polygon fill="white" stroke="black" points="152.5,-198.5 152.5,-219.5 323.5,-219.5 323.5,-198.5 152.5,-198.5"/>
<text text-anchor="middle" x="238" y="-206.5" font-family="DejaVuSans" font-size="10.00">AttributeWidget::AttributeWidget</text>
</a>
</g>
<!-- Node1&#45;&gt;Node2 -->
<g id="edge2" class="edge"><title>Node1&#45;&gt;Node2</title>
<path fill="none" stroke="midnightblue" d="M73.5594,-128.532C91.0359,-145.057 119.321,-169.402 148,-184 159.851,-190.032 173.343,-194.765 186.211,-198.412"/>
<polygon fill="midnightblue" stroke="midnightblue" points="75.9538,-125.979 66.3277,-121.553 71.0928,-131.016 75.9538,-125.979"/>
</g>
<!-- Node3 -->
<g id="node5" class="node"><title>Node3</title>
<a xlink:href="class_chara_trait.html#acfe4795a41019f6c92e85e82c0a6ab1a" target="_top" xlink:title="CharaTrait::CharaTrait">
<polygon fill="white" stroke="black" points="364.5,-100.5 364.5,-121.5 483.5,-121.5 483.5,-100.5 364.5,-100.5"/>
<text text-anchor="middle" x="424" y="-108.5" font-family="DejaVuSans" font-size="10.00">CharaTrait::CharaTrait</text>
</a>
</g>
<!-- Node1&#45;&gt;Node3 -->
<g id="edge4" class="edge"><title>Node1&#45;&gt;Node3</title>
<path fill="none" stroke="midnightblue" d="M83.4747,-126.498C101.263,-135.621 125.268,-146.272 148,-151 226.324,-167.29 249.554,-166.689 328,-151 355.974,-145.405 385.986,-131.48 404.864,-121.638"/>
<polygon fill="midnightblue" stroke="midnightblue" points="84.7558,-123.216 74.2797,-121.634 81.4827,-129.404 84.7558,-123.216"/>
</g>
<!-- Node4 -->
<g id="node7" class="node"><title>Node4</title>
<a xlink:href="class_chara_trait.html#ab02b27973fec9c68cee320dd61e5c618" target="_top" xlink:title="CharaTrait::checkTraitPrerequisites">
<polygon fill="white" stroke="black" points="148,-120.5 148,-141.5 328,-141.5 328,-120.5 148,-120.5"/>
<text text-anchor="middle" x="238" y="-128.5" font-family="DejaVuSans" font-size="10.00">CharaTrait::checkTraitPrerequisites</text>
</a>
</g>
<!-- Node1&#45;&gt;Node4 -->
<g id="edge6" class="edge"><title>Node1&#45;&gt;Node4</title>
<path fill="none" stroke="midnightblue" d="M122.158,-118.27C130.552,-119.193 139.252,-120.149 147.94,-121.103"/>
<polygon fill="midnightblue" stroke="midnightblue" points="122.414,-114.777 112.091,-117.164 121.649,-121.735 122.414,-114.777"/>
</g>
<!-- Node5 -->
<g id="node10" class="node"><title>Node5</title>
<a xlink:href="class_chara_trait.html#a8b30fcf229fb59f96c3926a59269194e" target="_top" xlink:title="CharaTrait::hideTraitIfNotAvailable">
<polygon fill="white" stroke="black" points="150.5,-80.5 150.5,-101.5 325.5,-101.5 325.5,-80.5 150.5,-80.5"/>
<text text-anchor="middle" x="238" y="-88.5" font-family="DejaVuSans" font-size="10.00">CharaTrait::hideTraitIfNotAvailable</text>
</a>
</g>
<!-- Node1&#45;&gt;Node5 -->
<g id="edge10" class="edge"><title>Node1&#45;&gt;Node5</title>
<path fill="none" stroke="midnightblue" d="M122.226,-103.722C131.358,-102.719 140.85,-101.676 150.294,-100.638"/>
<polygon fill="midnightblue" stroke="midnightblue" points="121.649,-100.265 112.091,-104.836 122.414,-107.223 121.649,-100.265"/>
</g>
<!-- Node6 -->
<g id="node13" class="node"><title>Node6</title>
<a xlink:href="class_merit_widget.html#a3f99dd98cf0c027d9e5a65a6a82d88c8" target="_top" xlink:title="MeritWidget::MeritWidget">
<polygon fill="white" stroke="black" points="170.5,-40.5 170.5,-61.5 305.5,-61.5 305.5,-40.5 170.5,-40.5"/>
<text text-anchor="middle" x="238" y="-48.5" font-family="DejaVuSans" font-size="10.00">MeritWidget::MeritWidget</text>
</a>
</g>
<!-- Node1&#45;&gt;Node6 -->
<g id="edge14" class="edge"><title>Node1&#45;&gt;Node6</title>
<path fill="none" stroke="midnightblue" d="M86.3463,-96.0552C104.013,-87.8013 126.898,-77.8621 148,-71 159.112,-67.3866 171.205,-64.2077 182.815,-61.5093"/>
<polygon fill="midnightblue" stroke="midnightblue" points="84.6466,-92.9877 77.1129,-100.437 87.6478,-99.3117 84.6466,-92.9877"/>
</g>
<!-- Node7 -->
<g id="node15" class="node"><title>Node7</title>
<a xlink:href="class_chara_trait.html#a0a5adca1cfd4732d6c4f64299e6d6fd3" target="_top" xlink:title="CharaTrait::updateWidget">
<polygon fill="white" stroke="black" points="169.5,-0.5 169.5,-21.5 306.5,-21.5 306.5,-0.5 169.5,-0.5"/>
<text text-anchor="middle" x="238" y="-8.5" font-family="DejaVuSans" font-size="10.00">CharaTrait::updateWidget</text>
</a>
</g>
<!-- Node1&#45;&gt;Node7 -->
<g id="edge16" class="edge"><title>Node1&#45;&gt;Node7</title>
<path fill="none" stroke="midnightblue" d="M71.7126,-92.8174C88.6675,-74.3857 117.381,-46.446 148,-31 155.574,-27.1792 163.87,-24.0832 172.263,-21.5757"/>
<polygon fill="midnightblue" stroke="midnightblue" points="69.0669,-90.5251 64.9899,-100.304 74.2753,-95.2019 69.0669,-90.5251"/>
</g>
<!-- Node4&#45;&gt;Node3 -->
<g id="edge8" class="edge"><title>Node4&#45;&gt;Node3</title>
<path fill="none" stroke="midnightblue" d="M338.118,-120.235C347.06,-119.273 355.913,-118.321 364.344,-117.415"/>
<polygon fill="midnightblue" stroke="midnightblue" points="337.572,-116.773 328.003,-121.322 338.32,-123.733 337.572,-116.773"/>
</g>
<!-- Node5&#45;&gt;Node3 -->
<g id="edge12" class="edge"><title>Node5&#45;&gt;Node3</title>
<path fill="none" stroke="midnightblue" d="M335.694,-101.505C345.419,-102.55 355.074,-103.589 364.235,-104.574"/>
<polygon fill="midnightblue" stroke="midnightblue" points="335.87,-98.0036 325.554,-100.414 335.122,-104.963 335.87,-98.0036"/>
</g>
<!-- Node7&#45;&gt;Node3 -->
<g id="edge18" class="edge"><title>Node7&#45;&gt;Node3</title>
<path fill="none" stroke="midnightblue" d="M312.757,-24.6622C318.017,-26.516 323.152,-28.6177 328,-31 364.217,-48.7953 398.484,-82.9633 414.516,-100.318"/>
<polygon fill="midnightblue" stroke="midnightblue" points="313.777,-21.3139 303.186,-21.5861 311.635,-27.9782 313.777,-21.3139"/>
</g>
</g>
</svg>
