<?xml version="1.0" encoding="UTF-8" standalone="no"?>
<!DOCTYPE svg PUBLIC "-//W3C//DTD SVG 1.1//EN"
 "http://www.w3.org/Graphics/SVG/1.1/DTD/svg11.dtd">
<!-- Generated by graphviz version 2.26.3 (20100126.1600)
 -->
<!-- Title: G Pages: 1 -->
<svg width="330pt" height="70pt"
 viewBox="0.00 0.00 330.00 70.00" xmlns="http://www.w3.org/2000/svg" xmlns:xlink="http://www.w3.org/1999/xlink">
<g id="graph1" class="graph" transform="scale(1 1) rotate(0) translate(4 66)">
<title>G</title>
<polygon fill="white" stroke="white" points="-4,5 -4,-66 327,-66 327,5 -4,5"/>
<!-- Node1 -->
<g id="node1" class="node"><title>Node1</title>
<polygon fill="#bfbfbf" stroke="black" points="0,-20.5 0,-41.5 160,-41.5 160,-20.5 0,-20.5"/>
<text text-anchor="middle" x="80" y="-28.5" font-family="DejaVuSans" font-size="10.00">StorageTemplate::appendTrait</text>
</g>
<!-- Node2 -->
<g id="node3" class="node"><title>Node2</title>
<a xlink:href="classcv___abstract_trait.html#a3bbbc5a0073617a70c86741d4c918576" target="_top" xlink:title="cv_AbstractTrait::name">
<polygon fill="white" stroke="black" points="196,-40.5 196,-61.5 322,-61.5 322,-40.5 196,-40.5"/>
<text text-anchor="middle" x="259" y="-48.5" font-family="DejaVuSans" font-size="10.00">cv_AbstractTrait::name</text>
</a>
</g>
<!-- Node1&#45;&gt;Node2 -->
<g id="edge2" class="edge"><title>Node1&#45;&gt;Node2</title>
<path fill="none" stroke="midnightblue" d="M160.076,-39.9471C168.613,-40.9009 177.266,-41.8677 185.719,-42.8121"/>
<polygon fill="midnightblue" stroke="midnightblue" points="185.582,-46.3186 195.909,-43.9507 186.36,-39.3619 185.582,-46.3186"/>
</g>
<!-- Node3 -->
<g id="node5" class="node"><title>Node3</title>
<a xlink:href="classcv___abstract_trait.html#aba0dfcb5b539afe0db14c6e3c4ddd4bc" target="_top" xlink:title="cv_AbstractTrait::type">
<polygon fill="white" stroke="black" points="199.5,-0.5 199.5,-21.5 318.5,-21.5 318.5,-0.5 199.5,-0.5"/>
<text text-anchor="middle" x="259" y="-8.5" font-family="DejaVuSans" font-size="10.00">cv_AbstractTrait::type</text>
</a>
</g>
<!-- Node1&#45;&gt;Node3 -->
<g id="edge4" class="edge"><title>Node1&#45;&gt;Node3</title>
<path fill="none" stroke="midnightblue" d="M160.076,-22.0529C169.783,-20.9684 179.64,-19.8671 189.182,-18.8009"/>
<polygon fill="midnightblue" stroke="midnightblue" points="189.842,-22.249 199.392,-17.6601 189.065,-15.2923 189.842,-22.249"/>
</g>
</g>
</svg>
