<?xml version="1.0" encoding="UTF-8" standalone="no"?>
<!DOCTYPE svg PUBLIC "-//W3C//DTD SVG 1.1//EN"
 "http://www.w3.org/Graphics/SVG/1.1/DTD/svg11.dtd">
<!-- Generated by graphviz version 2.26.3 (20100126.1600)
 -->
<!-- Title: G Pages: 1 -->
<svg width="826pt" height="321pt"
 viewBox="0.00 0.00 826.00 321.36" xmlns="http://www.w3.org/2000/svg" xmlns:xlink="http://www.w3.org/1999/xlink">
<g id="graph1" class="graph" transform="scale(1 1) rotate(0) translate(4 317.355)">
<title>G</title>
<polygon fill="white" stroke="white" points="-4,5 -4,-317.355 823,-317.355 823,5 -4,5"/>
<!-- Node1 -->
<g id="node1" class="node"><title>Node1</title>
<polygon fill="#bfbfbf" stroke="black" points="0,-146.255 0,-167.255 104,-167.255 104,-146.255 0,-146.255"/>
<text text-anchor="middle" x="52" y="-154.255" font-family="DejaVuSans" font-size="10.00">CheckTrait::traitPtr</text>
</g>
<!-- Node2 -->
<g id="node3" class="node"><title>Node2</title>
<a xlink:href="class_check_trait.html#a4ec4f95d6f1ff25331964d85393f0f3f" target="_top" xlink:title="CheckTrait::customText">
<polygon fill="white" stroke="black" points="142,-264.255 142,-285.255 268,-285.255 268,-264.255 142,-264.255"/>
<text text-anchor="middle" x="205" y="-272.255" font-family="DejaVuSans" font-size="10.00">CheckTrait::customText</text>
</a>
</g>
<!-- Node1&#45;&gt;Node2 -->
<g id="edge2" class="edge"><title>Node1&#45;&gt;Node2</title>
<path fill="none" stroke="midnightblue" d="M65.5425,-175.45C81.3574,-196.115 109.295,-229.192 140,-249.755 148.84,-255.675 159.284,-260.479 169.183,-264.235"/>
<polygon fill="midnightblue" stroke="midnightblue" points="68.3296,-173.332 59.5341,-167.426 62.7264,-177.528 68.3296,-173.332"/>
</g>
<!-- Node3 -->
<g id="node5" class="node"><title>Node3</title>
<a xlink:href="class_check_trait.html#a70a2f81f0fc8e246b3296583ec853b4a" target="_top" xlink:title="CheckTrait::setCustomText">
<polygon fill="white" stroke="black" points="306.5,-264.255 306.5,-285.255 449.5,-285.255 449.5,-264.255 306.5,-264.255"/>
<text text-anchor="middle" x="378" y="-272.255" font-family="DejaVuSans" font-size="10.00">CheckTrait::setCustomText</text>
</a>
</g>
<!-- Node1&#45;&gt;Node3 -->
<g id="edge16" class="edge"><title>Node1&#45;&gt;Node3</title>
<path fill="none" stroke="midnightblue" d="M57.9024,-176.839C68.4549,-208.616 93.8875,-269.469 140,-294.755 209.444,-332.833 307.748,-302.958 353.192,-285.333"/>
<polygon fill="midnightblue" stroke="midnightblue" points="61.2307,-175.755 54.8858,-167.27 54.5546,-177.86 61.2307,-175.755"/>
</g>
<!-- Node5 -->
<g id="node9" class="node"><title>Node5</title>
<a xlink:href="class_check_trait.html#a894ea83addabc03a7a6ca5a167fe3e49" target="_top" xlink:title="CheckTrait::updateWidget">
<polygon fill="white" stroke="black" points="309.5,-218.255 309.5,-239.255 446.5,-239.255 446.5,-218.255 309.5,-218.255"/>
<text text-anchor="middle" x="378" y="-226.255" font-family="DejaVuSans" font-size="10.00">CheckTrait::updateWidget</text>
</a>
</g>
<!-- Node1&#45;&gt;Node5 -->
<g id="edge32" class="edge"><title>Node1&#45;&gt;Node5</title>
<path fill="none" stroke="midnightblue" d="M71.0029,-174.342C87.7674,-188.649 113.583,-207.871 140,-216.755 194.802,-235.183 260.696,-237.068 309.241,-234.979"/>
<polygon fill="midnightblue" stroke="midnightblue" points="72.9243,-171.37 63.1059,-167.389 68.2986,-176.624 72.9243,-171.37"/>
</g>
<!-- Node6 -->
<g id="node12" class="node"><title>Node6</title>
<a xlink:href="class_check_trait.html#a435fdd90ff430b86bdcd0da51c3e61e0" target="_top" xlink:title="CheckTrait::setCategory">
<polygon fill="white" stroke="black" points="140,-186.255 140,-207.255 270,-207.255 270,-186.255 140,-186.255"/>
<text text-anchor="middle" x="205" y="-194.255" font-family="DejaVuSans" font-size="10.00">CheckTrait::setCategory</text>
</a>
</g>
<!-- Node1&#45;&gt;Node6 -->
<g id="edge12" class="edge"><title>Node1&#45;&gt;Node6</title>
<path fill="none" stroke="midnightblue" d="M101.94,-169.811C122.312,-175.137 145.555,-181.213 164.804,-186.246"/>
<polygon fill="midnightblue" stroke="midnightblue" points="102.759,-166.407 92.1989,-167.264 100.988,-173.18 102.759,-166.407"/>
</g>
<!-- Node7 -->
<g id="node14" class="node"><title>Node7</title>
<a xlink:href="class_check_trait.html#aaa686b2552adabe22ccacc80b58adcfd" target="_top" xlink:title="CheckTrait::setCustom">
<polygon fill="white" stroke="black" points="143,-146.255 143,-167.255 267,-167.255 267,-146.255 143,-146.255"/>
<text text-anchor="middle" x="205" y="-154.255" font-family="DejaVuSans" font-size="10.00">CheckTrait::setCustom</text>
</a>
</g>
<!-- Node1&#45;&gt;Node7 -->
<g id="edge14" class="edge"><title>Node1&#45;&gt;Node7</title>
<path fill="none" stroke="midnightblue" d="M114.334,-156.755C123.784,-156.755 133.533,-156.755 142.976,-156.755"/>
<polygon fill="midnightblue" stroke="midnightblue" points="114.226,-153.255 104.226,-156.755 114.226,-160.255 114.226,-153.255"/>
</g>
<!-- Node8 -->
<g id="node17" class="node"><title>Node8</title>
<a xlink:href="class_check_trait.html#a13434736aa94965e0b2d1fe87ead5c06" target="_top" xlink:title="CheckTrait::setSpecies">
<polygon fill="white" stroke="black" points="143,-106.255 143,-127.255 267,-127.255 267,-106.255 143,-106.255"/>
<text text-anchor="middle" x="205" y="-114.255" font-family="DejaVuSans" font-size="10.00">CheckTrait::setSpecies</text>
</a>
</g>
<!-- Node1&#45;&gt;Node8 -->
<g id="edge18" class="edge"><title>Node1&#45;&gt;Node8</title>
<path fill="none" stroke="midnightblue" d="M101.94,-143.698C122.312,-138.372 145.555,-132.296 164.804,-127.263"/>
<polygon fill="midnightblue" stroke="midnightblue" points="100.988,-140.329 92.1989,-146.245 102.759,-147.102 100.988,-140.329"/>
</g>
<!-- Node9 -->
<g id="node19" class="node"><title>Node9</title>
<a xlink:href="class_check_trait.html#ac8c0ce9b6169d62ad48af359efcebf3f" target="_top" xlink:title="CheckTrait::setType">
<polygon fill="white" stroke="black" points="151.5,-66.2546 151.5,-87.2546 258.5,-87.2546 258.5,-66.2546 151.5,-66.2546"/>
<text text-anchor="middle" x="205" y="-74.2546" font-family="DejaVuSans" font-size="10.00">CheckTrait::setType</text>
</a>
</g>
<!-- Node1&#45;&gt;Node9 -->
<g id="edge20" class="edge"><title>Node1&#45;&gt;Node9</title>
<path fill="none" stroke="midnightblue" d="M73.1401,-139.651C90.3093,-126.444 115.595,-108.497 140,-96.7546 147.554,-93.12 155.918,-89.9631 164.061,-87.2984"/>
<polygon fill="midnightblue" stroke="midnightblue" points="70.6628,-137.146 64.9491,-146.068 74.9796,-142.656 70.6628,-137.146"/>
</g>
<!-- Node10 -->
<g id="node21" class="node"><title>Node10</title>
<a xlink:href="class_check_trait.html#a9073e7f8bbac8c351bf829b23a9fc850" target="_top" xlink:title="CheckTrait::setValue">
<polygon fill="white" stroke="black" points="321.5,-66.2546 321.5,-87.2546 434.5,-87.2546 434.5,-66.2546 321.5,-66.2546"/>
<text text-anchor="middle" x="378" y="-74.2546" font-family="DejaVuSans" font-size="10.00">CheckTrait::setValue</text>
</a>
</g>
<!-- Node1&#45;&gt;Node10 -->
<g id="edge22" class="edge"><title>Node1&#45;&gt;Node10</title>
<path fill="none" stroke="midnightblue" d="M57.8119,-136.39C68.2372,-104.167 93.4947,-42.4522 140,-16.7546 190.571,11.1894 214.069,-2.26154 270,-16.7546 306.959,-26.3316 344.735,-51.5982 364.324,-66.1059"/>
<polygon fill="midnightblue" stroke="midnightblue" points="54.4223,-135.506 54.8358,-146.092 61.1146,-137.558 54.4223,-135.506"/>
</g>
<!-- Node13 -->
<g id="node30" class="node"><title>Node13</title>
<a xlink:href="class_check_trait.html#a4399a810312044b74f6227955a1879a9" target="_top" xlink:title="CheckTrait::value">
<polygon fill="white" stroke="black" points="156.5,-26.2546 156.5,-47.2546 253.5,-47.2546 253.5,-26.2546 156.5,-26.2546"/>
<text text-anchor="middle" x="205" y="-34.2546" font-family="DejaVuSans" font-size="10.00">CheckTrait::value</text>
</a>
</g>
<!-- Node1&#45;&gt;Node13 -->
<g id="edge34" class="edge"><title>Node1&#45;&gt;Node13</title>
<path fill="none" stroke="midnightblue" d="M64.0413,-137.559C79.1323,-115.03 107.054,-78.0496 140,-56.7546 145.85,-52.9731 152.457,-49.8724 159.159,-47.3394"/>
<polygon fill="midnightblue" stroke="midnightblue" points="61.0872,-135.681 58.5549,-145.969 66.95,-139.506 61.0872,-135.681"/>
</g>
<!-- Node2&#45;&gt;Node3 -->
<g id="edge4" class="edge"><title>Node2&#45;&gt;Node3</title>
<path fill="none" stroke="midnightblue" d="M278.691,-274.755C287.868,-274.755 297.241,-274.755 306.385,-274.755"/>
<polygon fill="midnightblue" stroke="midnightblue" points="278.437,-271.255 268.436,-274.755 278.436,-278.255 278.437,-271.255"/>
</g>
<!-- Node2&#45;&gt;Node5 -->
<g id="edge8" class="edge"><title>Node2&#45;&gt;Node5</title>
<path fill="none" stroke="midnightblue" d="M254.586,-261.57C281.214,-254.489 313.587,-245.882 338.495,-239.259"/>
<polygon fill="midnightblue" stroke="midnightblue" points="253.454,-258.249 244.69,-264.201 255.253,-265.014 253.454,-258.249"/>
</g>
<!-- Node4 -->
<g id="node7" class="node"><title>Node4</title>
<a xlink:href="class_check_trait.html#a0e37d389c1ccaf32a2157463d3c055c6" target="_top" xlink:title="CheckTrait::CheckTrait">
<polygon fill="white" stroke="black" points="698,-189.255 698,-210.255 818,-210.255 818,-189.255 698,-189.255"/>
<text text-anchor="middle" x="758" y="-197.255" font-family="DejaVuSans" font-size="10.00">CheckTrait::CheckTrait</text>
</a>
</g>
<!-- Node3&#45;&gt;Node4 -->
<g id="edge6" class="edge"><title>Node3&#45;&gt;Node4</title>
<path fill="none" stroke="midnightblue" d="M459.699,-263.884C516.726,-255.651 594.426,-243.142 662,-227.755 683.329,-222.898 706.918,-216.039 725.376,-210.325"/>
<polygon fill="midnightblue" stroke="midnightblue" points="459.061,-260.439 449.657,-265.32 460.052,-267.369 459.061,-260.439"/>
</g>
<!-- Node5&#45;&gt;Node4 -->
<g id="edge10" class="edge"><title>Node5&#45;&gt;Node4</title>
<path fill="none" stroke="midnightblue" d="M457.142,-222.715C528.787,-217.247 632.773,-209.311 697.832,-204.346"/>
<polygon fill="midnightblue" stroke="midnightblue" points="456.52,-219.252 446.815,-223.503 457.053,-226.232 456.52,-219.252"/>
</g>
<!-- Node10&#45;&gt;Node4 -->
<g id="edge24" class="edge"><title>Node10&#45;&gt;Node4</title>
<path fill="none" stroke="midnightblue" d="M402.474,-92.9656C423.757,-106.413 455.833,-125.146 486,-136.755 556.459,-163.868 641.864,-181.31 697.949,-190.812"/>
<polygon fill="midnightblue" stroke="midnightblue" points="404.082,-89.8388 393.775,-87.3834 400.301,-95.73 404.082,-89.8388"/>
</g>
<!-- Node11 -->
<g id="node24" class="node"><title>Node11</title>
<a xlink:href="class_flaw_widget.html#af387a892373d07ce615ad19d6da45448" target="_top" xlink:title="FlawWidget::FlawWidget">
<polygon fill="white" stroke="black" points="510,-106.255 510,-127.255 638,-127.255 638,-106.255 510,-106.255"/>
<text text-anchor="middle" x="574" y="-114.255" font-family="DejaVuSans" font-size="10.00">FlawWidget::FlawWidget</text>
</a>
</g>
<!-- Node10&#45;&gt;Node11 -->
<g id="edge26" class="edge"><title>Node10&#45;&gt;Node11</title>
<path fill="none" stroke="midnightblue" d="M439.495,-89.3046C466.174,-94.7492 497.063,-101.053 522.507,-106.246"/>
<polygon fill="midnightblue" stroke="midnightblue" points="439.995,-85.8345 429.497,-87.2641 438.595,-92.6931 439.995,-85.8345"/>
</g>
<!-- Node12 -->
<g id="node26" class="node"><title>Node12</title>
<a xlink:href="class_check_trait.html#a38b03dfbcc01dbb65a9b345423e232db" target="_top" xlink:title="CheckTrait::hideTraitIfNotAvailable">
<polygon fill="white" stroke="black" points="486,-66.2546 486,-87.2546 662,-87.2546 662,-66.2546 486,-66.2546"/>
<text text-anchor="middle" x="574" y="-74.2546" font-family="DejaVuSans" font-size="10.00">CheckTrait::hideTraitIfNotAvailable</text>
</a>
</g>
<!-- Node10&#45;&gt;Node12 -->
<g id="edge28" class="edge"><title>Node10&#45;&gt;Node12</title>
<path fill="none" stroke="midnightblue" d="M444.997,-76.7546C458.093,-76.7546 472.012,-76.7546 485.678,-76.7546"/>
<polygon fill="midnightblue" stroke="midnightblue" points="444.691,-73.2547 434.691,-76.7546 444.691,-80.2547 444.691,-73.2547"/>
</g>
<!-- Node12&#45;&gt;Node4 -->
<g id="edge30" class="edge"><title>Node12&#45;&gt;Node4</title>
<path fill="none" stroke="midnightblue" d="M650.218,-90.9654C654.3,-92.6799 658.257,-94.6013 662,-96.7546 703.319,-120.523 737.392,-167.844 751.283,-189.046"/>
<polygon fill="midnightblue" stroke="midnightblue" points="651.102,-87.5591 640.509,-87.3284 648.646,-94.1142 651.102,-87.5591"/>
</g>
<!-- Node13&#45;&gt;Node5 -->
<g id="edge38" class="edge"><title>Node13&#45;&gt;Node5</title>
<path fill="none" stroke="midnightblue" d="M262.589,-51.8595C265.185,-53.3423 267.673,-54.9694 270,-56.7546 299.936,-79.7161 355.292,-184.481 372.65,-218.239"/>
<polygon fill="midnightblue" stroke="midnightblue" points="263.947,-48.6269 253.429,-47.3536 260.857,-54.9081 263.947,-48.6269"/>
</g>
<!-- Node13&#45;&gt;Node10 -->
<g id="edge36" class="edge"><title>Node13&#45;&gt;Node10</title>
<path fill="none" stroke="midnightblue" d="M260.214,-49.5209C283.546,-54.9156 310.388,-61.1218 332.55,-66.2459"/>
<polygon fill="midnightblue" stroke="midnightblue" points="260.985,-46.1069 250.454,-47.2641 259.408,-52.9269 260.985,-46.1069"/>
</g>
</g>
</svg>
