<?xml version="1.0" encoding="UTF-8" standalone="no"?>
<!DOCTYPE svg PUBLIC "-//W3C//DTD SVG 1.1//EN"
 "http://www.w3.org/Graphics/SVG/1.1/DTD/svg11.dtd">
<!-- Generated by graphviz version 2.26.3 (20100126.1600)
 -->
<!-- Title: G Pages: 1 -->
<svg width="306pt" height="200pt"
 viewBox="0.00 0.00 306.00 200.00" xmlns="http://www.w3.org/2000/svg" xmlns:xlink="http://www.w3.org/1999/xlink">
<g id="graph1" class="graph" transform="scale(1 1) rotate(0) translate(4 196)">
<title>G</title>
<polygon fill="white" stroke="white" points="-4,5 -4,-196 303,-196 303,5 -4,5"/>
<!-- Node1 -->
<g id="node1" class="node"><title>Node1</title>
<polygon fill="#bfbfbf" stroke="black" points="73.5,-0.5 73.5,-21.5 290.5,-21.5 290.5,-0.5 73.5,-0.5"/>
<text text-anchor="middle" x="182" y="-8.5" font-family="DejaVuSans" font-size="10.00">src.Datatypes.StandardTrait.StandardTrait</text>
</g>
<!-- Node2 -->
<g id="node2" class="node"><title>Node2</title>
<a xlink:href="classsrc_1_1_datatypes_1_1_basic_trait_1_1_basic_trait.html" target="_top" xlink:title="Speichert alle Eigenschaften einer einzigen Charaktereigenschaft.">
<polygon fill="white" stroke="black" points="-0.5,-60.5 -0.5,-81.5 178.5,-81.5 178.5,-60.5 -0.5,-60.5"/>
<text text-anchor="middle" x="89" y="-68.5" font-family="DejaVuSans" font-size="10.00">src.Datatypes.BasicTrait.BasicTrait</text>
</a>
</g>
<!-- Node2&#45;&gt;Node1 -->
<g id="edge2" class="edge"><title>Node2&#45;&gt;Node1</title>
<path fill="none" stroke="midnightblue" d="M114.162,-54.7663C130.482,-44.2376 151.279,-30.8203 165.517,-21.6339"/>
<polygon fill="midnightblue" stroke="midnightblue" points="112.132,-51.9108 105.627,-60.2732 115.927,-57.7929 112.132,-51.9108"/>
</g>
<!-- Node3 -->
<g id="node4" class="node"><title>Node3</title>
<polygon fill="white" stroke="#bfbfbf" points="40.5,-170.5 40.5,-191.5 95.5,-191.5 95.5,-170.5 40.5,-170.5"/>
<text text-anchor="middle" x="68" y="-178.5" font-family="DejaVuSans" font-size="10.00">QObject</text>
</g>
<!-- Node3&#45;&gt;Node2 -->
<g id="edge4" class="edge"><title>Node3&#45;&gt;Node2</title>
<path fill="none" stroke="midnightblue" d="M71.1817,-160.372C73.8054,-143.961 77.7717,-120.439 82,-100 83.2591,-93.9137 84.8759,-87.1612 86.2384,-81.7045"/>
<polygon fill="midnightblue" stroke="midnightblue" points="67.6893,-160.051 69.5931,-170.473 74.6043,-161.138 67.6893,-160.051"/>
</g>
<!-- Node4 -->
<g id="node6" class="node"><title>Node4</title>
<polygon fill="white" stroke="#bfbfbf" points="152.5,-170.5 152.5,-191.5 193.5,-191.5 193.5,-170.5 152.5,-170.5"/>
<text text-anchor="middle" x="173" y="-178.5" font-family="DejaVuSans" font-size="10.00">tuple</text>
</g>
<!-- Node4&#45;&gt;Node1 -->
<g id="edge8" class="edge"><title>Node4&#45;&gt;Node1</title>
<path fill="none" stroke="#9a32cd" stroke-dasharray="5,2" d="M193.568,-162.812C196.191,-159.493 198.485,-155.851 200,-152 218.071,-106.071 196.92,-45.8467 186.801,-21.6961"/>
<polygon fill="#9a32cd" stroke="#9a32cd" points="190.837,-160.611 186.626,-170.332 195.98,-165.359 190.837,-160.611"/>
<text text-anchor="middle" x="251" y="-68.5" font-family="DejaVuSans" font-size="10.00">specialtiesChanged</text>
</g>
<!-- Node4&#45;&gt;Node2 -->
<g id="edge6" class="edge"><title>Node4&#45;&gt;Node2</title>
<path fill="none" stroke="#9a32cd" stroke-dasharray="5,2" d="M142.261,-175.644C127.913,-171.559 111.861,-164.419 102,-152 85.7042,-131.477 86.1178,-98.6109 87.6395,-81.7473"/>
<polygon fill="#9a32cd" stroke="#9a32cd" points="141.749,-179.122 152.295,-178.111 143.42,-172.325 141.749,-179.122"/>
<text text-anchor="middle" x="151" y="-143" font-family="DejaVuSans" font-size="10.00">traitChanged</text>
<text text-anchor="middle" x="151" y="-130" font-family="DejaVuSans" font-size="10.00">valueChanged</text>
<text text-anchor="middle" x="151" y="-117" font-family="DejaVuSans" font-size="10.00">availableChanged</text>
<text text-anchor="middle" x="151" y="-104" font-family="DejaVuSans" font-size="10.00">customTextChanged</text>
</g>
</g>
</svg>
