<?xml version="1.0" encoding="UTF-8" standalone="no"?>
<!DOCTYPE svg PUBLIC "-//W3C//DTD SVG 1.1//EN"
 "http://www.w3.org/Graphics/SVG/1.1/DTD/svg11.dtd">
<!-- Generated by graphviz version 2.26.3 (20100126.1600)
 -->
<!-- Title: G Pages: 1 -->
<svg width="394pt" height="70pt"
 viewBox="0.00 0.00 394.00 70.00" xmlns="http://www.w3.org/2000/svg" xmlns:xlink="http://www.w3.org/1999/xlink">
<g id="graph1" class="graph" transform="scale(1 1) rotate(0) translate(4 66)">
<title>G</title>
<polygon fill="white" stroke="white" points="-4,5 -4,-66 391,-66 391,5 -4,5"/>
<!-- Node1 -->
<g id="node1" class="node"><title>Node1</title>
<polygon fill="#bfbfbf" stroke="black" points="0,-20.5 0,-41.5 170,-41.5 170,-20.5 0,-20.5"/>
<text text-anchor="middle" x="85" y="-28.5" font-family="DejaVuSans" font-size="10.00">StorageCharacter::traitChanged</text>
</g>
<!-- Node2 -->
<g id="node3" class="node"><title>Node2</title>
<a xlink:href="class_storage_character.html#aabaae6015f75abfc6411f5a388418a3b" target="_top" xlink:title="StorageCharacter::modifyTrait">
<polygon fill="white" stroke="black" points="216,-40.5 216,-61.5 376,-61.5 376,-40.5 216,-40.5"/>
<text text-anchor="middle" x="296" y="-48.5" font-family="DejaVuSans" font-size="10.00">StorageCharacter::modifyTrait</text>
</a>
</g>
<!-- Node1&#45;&gt;Node2 -->
<g id="edge2" class="edge"><title>Node1&#45;&gt;Node2</title>
<path fill="none" stroke="midnightblue" d="M180.19,-40.0228C192.134,-41.1548 204.255,-42.3038 215.934,-43.4108"/>
<polygon fill="midnightblue" stroke="midnightblue" points="180.499,-36.5365 170.214,-39.0771 179.839,-43.5052 180.499,-36.5365"/>
</g>
<!-- Node3 -->
<g id="node5" class="node"><title>Node3</title>
<a xlink:href="class_storage_character.html#a6534667b942bd21253c432fee79a8850" target="_top" xlink:title="StorageCharacter::resetCharacter">
<polygon fill="white" stroke="black" points="206,-0.5 206,-21.5 386,-21.5 386,-0.5 206,-0.5"/>
<text text-anchor="middle" x="296" y="-8.5" font-family="DejaVuSans" font-size="10.00">StorageCharacter::resetCharacter</text>
</a>
</g>
<!-- Node1&#45;&gt;Node3 -->
<g id="edge4" class="edge"><title>Node1&#45;&gt;Node3</title>
<path fill="none" stroke="midnightblue" d="M180.223,-21.9741C188.797,-21.1614 197.462,-20.3401 205.99,-19.5318"/>
<polygon fill="midnightblue" stroke="midnightblue" points="179.839,-18.4948 170.214,-22.9229 180.499,-25.4635 179.839,-18.4948"/>
</g>
</g>
</svg>
