<?xml version="1.0" encoding="UTF-8" standalone="no"?>
<!DOCTYPE svg PUBLIC "-//W3C//DTD SVG 1.1//EN"
 "http://www.w3.org/Graphics/SVG/1.1/DTD/svg11.dtd">
<!-- Generated by graphviz version 2.26.3 (20100126.1600)
 -->
<!-- Title: G Pages: 1 -->
<svg width="230pt" height="88pt"
 viewBox="0.00 0.00 230.00 88.00" xmlns="http://www.w3.org/2000/svg" xmlns:xlink="http://www.w3.org/1999/xlink">
<g id="graph1" class="graph" transform="scale(1 1) rotate(0) translate(4 84)">
<title>G</title>
<polygon fill="white" stroke="white" points="-4,5 -4,-84 227,-84 227,5 -4,5"/>
<!-- Node1 -->
<g id="node1" class="node"><title>Node1</title>
<polygon fill="#bfbfbf" stroke="black" points="83,-58.5 83,-79.5 141,-79.5 141,-58.5 83,-58.5"/>
<text text-anchor="middle" x="112" y="-66.5" font-family="DejaVuSans" font-size="10.00">ReadXml</text>
</g>
<!-- Node2 -->
<g id="node3" class="node"><title>Node2</title>
<a xlink:href="class_read_xml_character.html" target="_top" xlink:title="Liest die gespeicherten Charakterwerte in das Programm.">
<polygon fill="white" stroke="black" points="-0.5,-0.5 -0.5,-21.5 104.5,-21.5 104.5,-0.5 -0.5,-0.5"/>
<text text-anchor="middle" x="52" y="-8.5" font-family="DejaVuSans" font-size="10.00">ReadXmlCharacter</text>
</a>
</g>
<!-- Node1&#45;&gt;Node2 -->
<g id="edge2" class="edge"><title>Node1&#45;&gt;Node2</title>
<path fill="none" stroke="midnightblue" d="M93.7983,-51.405C83.7259,-41.6683 71.5428,-29.8914 62.9352,-21.5707"/>
<polygon fill="midnightblue" stroke="midnightblue" points="91.3726,-53.9281 100.995,-58.3619 96.2378,-48.8952 91.3726,-53.9281"/>
</g>
<!-- Node3 -->
<g id="node5" class="node"><title>Node3</title>
<a xlink:href="class_read_xml_template.html" target="_top" xlink:title="Liest die Eigenschaften aus den beigefügten xml&#45;Dateien.">
<polygon fill="white" stroke="black" points="121.5,-0.5 121.5,-21.5 222.5,-21.5 222.5,-0.5 121.5,-0.5"/>
<text text-anchor="middle" x="172" y="-8.5" font-family="DejaVuSans" font-size="10.00">ReadXmlTemplate</text>
</a>
</g>
<!-- Node1&#45;&gt;Node3 -->
<g id="edge4" class="edge"><title>Node1&#45;&gt;Node3</title>
<path fill="none" stroke="midnightblue" d="M130.202,-51.405C140.274,-41.6683 152.457,-29.8914 161.065,-21.5707"/>
<polygon fill="midnightblue" stroke="midnightblue" points="127.762,-48.8952 123.005,-58.3619 132.627,-53.9281 127.762,-48.8952"/>
</g>
</g>
</svg>
