<?xml version="1.0" encoding="UTF-8" standalone="no"?>
<!DOCTYPE svg PUBLIC "-//W3C//DTD SVG 1.1//EN"
 "http://www.w3.org/Graphics/SVG/1.1/DTD/svg11.dtd">
<!-- Generated by graphviz version 2.26.3 (20100126.1600)
 -->
<!-- Title: G Pages: 1 -->
<svg width="354pt" height="150pt"
 viewBox="0.00 0.00 354.00 150.00" xmlns="http://www.w3.org/2000/svg" xmlns:xlink="http://www.w3.org/1999/xlink">
<g id="graph1" class="graph" transform="scale(1 1) rotate(0) translate(4 146)">
<title>G</title>
<polygon fill="white" stroke="white" points="-4,5 -4,-146 351,-146 351,5 -4,5"/>
<!-- Node1 -->
<g id="node1" class="node"><title>Node1</title>
<polygon fill="#bfbfbf" stroke="black" points="0.5,-60.5 0.5,-81.5 137.5,-81.5 137.5,-60.5 0.5,-60.5"/>
<text text-anchor="middle" x="69" y="-68.5" font-family="DejaVuSans" font-size="10.00">cv_AbstractTrait::toString</text>
</g>
<!-- Node2 -->
<g id="node3" class="node"><title>Node2</title>
<a xlink:href="class_attribute_widget.html#ab498116d47f94a62e3b82eaa79976b36" target="_top" xlink:title="AttributeWidget::AttributeWidget">
<polygon fill="white" stroke="black" points="174.5,-120.5 174.5,-141.5 345.5,-141.5 345.5,-120.5 174.5,-120.5"/>
<text text-anchor="middle" x="260" y="-128.5" font-family="DejaVuSans" font-size="10.00">AttributeWidget::AttributeWidget</text>
</a>
</g>
<!-- Node1&#45;&gt;Node2 -->
<g id="edge2" class="edge"><title>Node1&#45;&gt;Node2</title>
<path fill="none" stroke="midnightblue" d="M103.159,-85.3598C123.497,-93.5692 149.949,-103.659 174,-111 185.289,-114.446 197.568,-117.628 209.219,-120.394"/>
<polygon fill="midnightblue" stroke="midnightblue" points="104.285,-82.039 93.7036,-81.5011 101.64,-88.5201 104.285,-82.039"/>
</g>
<!-- Node3 -->
<g id="node5" class="node"><title>Node3</title>
<a xlink:href="class_flaw_widget.html#af387a892373d07ce615ad19d6da45448" target="_top" xlink:title="FlawWidget::FlawWidget">
<polygon fill="white" stroke="black" points="196,-80.5 196,-101.5 324,-101.5 324,-80.5 196,-80.5"/>
<text text-anchor="middle" x="260" y="-88.5" font-family="DejaVuSans" font-size="10.00">FlawWidget::FlawWidget</text>
</a>
</g>
<!-- Node1&#45;&gt;Node3 -->
<g id="edge4" class="edge"><title>Node1&#45;&gt;Node3</title>
<path fill="none" stroke="midnightblue" d="M148.019,-79.2742C163.91,-80.9383 180.43,-82.668 195.744,-84.2717"/>
<polygon fill="midnightblue" stroke="midnightblue" points="147.996,-75.7527 137.686,-78.1922 147.267,-82.7147 147.996,-75.7527"/>
</g>
<!-- Node4 -->
<g id="node7" class="node"><title>Node4</title>
<a xlink:href="class_merit_widget.html#a3f99dd98cf0c027d9e5a65a6a82d88c8" target="_top" xlink:title="MeritWidget::MeritWidget">
<polygon fill="white" stroke="black" points="192.5,-40.5 192.5,-61.5 327.5,-61.5 327.5,-40.5 192.5,-40.5"/>
<text text-anchor="middle" x="260" y="-48.5" font-family="DejaVuSans" font-size="10.00">MeritWidget::MeritWidget</text>
</a>
</g>
<!-- Node1&#45;&gt;Node4 -->
<g id="edge6" class="edge"><title>Node1&#45;&gt;Node4</title>
<path fill="none" stroke="midnightblue" d="M147.796,-62.7491C162.552,-61.204 177.858,-59.6013 192.244,-58.0949"/>
<polygon fill="midnightblue" stroke="midnightblue" points="147.267,-59.2853 137.686,-63.8078 147.996,-66.2473 147.267,-59.2853"/>
</g>
<!-- Node5 -->
<g id="node9" class="node"><title>Node5</title>
<a xlink:href="class_power_widget.html#a07bb0283ac179fda85ae3f2e38f17b71" target="_top" xlink:title="PowerWidget::PowerWidget">
<polygon fill="white" stroke="black" points="188,-0.5 188,-21.5 332,-21.5 332,-0.5 188,-0.5"/>
<text text-anchor="middle" x="260" y="-8.5" font-family="DejaVuSans" font-size="10.00">PowerWidget::PowerWidget</text>
</a>
</g>
<!-- Node1&#45;&gt;Node5 -->
<g id="edge8" class="edge"><title>Node1&#45;&gt;Node5</title>
<path fill="none" stroke="midnightblue" d="M103.159,-56.6402C123.497,-48.4308 149.949,-38.3407 174,-31 185.289,-27.5543 197.568,-24.3721 209.219,-21.6065"/>
<polygon fill="midnightblue" stroke="midnightblue" points="101.64,-53.4799 93.7036,-60.4989 104.285,-59.961 101.64,-53.4799"/>
</g>
</g>
</svg>
