<?xml version="1.0" encoding="UTF-8" standalone="no"?>
<!DOCTYPE svg PUBLIC "-//W3C//DTD SVG 1.1//EN"
 "http://www.w3.org/Graphics/SVG/1.1/DTD/svg11.dtd">
<!-- Generated by graphviz version 2.26.3 (20100126.1600)
 -->
<!-- Title: G Pages: 1 -->
<svg width="288pt" height="70pt"
 viewBox="0.00 0.00 288.00 70.00" xmlns="http://www.w3.org/2000/svg" xmlns:xlink="http://www.w3.org/1999/xlink">
<g id="graph1" class="graph" transform="scale(1 1) rotate(0) translate(4 66)">
<title>G</title>
<polygon fill="white" stroke="white" points="-4,5 -4,-66 285,-66 285,5 -4,5"/>
<!-- Node1 -->
<g id="node1" class="node"><title>Node1</title>
<polygon fill="#bfbfbf" stroke="black" points="0.5,-20.5 0.5,-41.5 107.5,-41.5 107.5,-20.5 0.5,-20.5"/>
<text text-anchor="middle" x="54" y="-28.5" font-family="DejaVuSans" font-size="10.00">Creation::setPoints</text>
</g>
<!-- Node2 -->
<g id="node3" class="node"><title>Node2</title>
<a xlink:href="class_creation.html#acba05004d03b7b682c3b7416ee5911d6" target="_top" xlink:title="Creation::points">
<polygon fill="white" stroke="black" points="166,-40.5 166,-61.5 258,-61.5 258,-40.5 166,-40.5"/>
<text text-anchor="middle" x="212" y="-48.5" font-family="DejaVuSans" font-size="10.00">Creation::points</text>
</a>
</g>
<!-- Node1&#45;&gt;Node2 -->
<g id="edge2" class="edge"><title>Node1&#45;&gt;Node2</title>
<path fill="none" stroke="midnightblue" d="M107.933,-37.8269C123.406,-39.7856 140.311,-41.9254 155.911,-43.9001"/>
<polygon fill="midnightblue" stroke="midnightblue" points="155.585,-47.3867 165.946,-45.1703 156.464,-40.4422 155.585,-47.3867"/>
</g>
<!-- Node3 -->
<g id="node5" class="node"><title>Node3</title>
<a xlink:href="class_creation.html#afc4376d9cab2b0a0083447299d1cf133" target="_top" xlink:title="Creation::pointsChanged">
<polygon fill="white" stroke="black" points="144.5,-0.5 144.5,-21.5 279.5,-21.5 279.5,-0.5 144.5,-0.5"/>
<text text-anchor="middle" x="212" y="-8.5" font-family="DejaVuSans" font-size="10.00">Creation::pointsChanged</text>
</a>
</g>
<!-- Node1&#45;&gt;Node3 -->
<g id="edge4" class="edge"><title>Node1&#45;&gt;Node3</title>
<path fill="none" stroke="midnightblue" d="M107.933,-24.1731C116.442,-23.096 125.383,-21.9642 134.303,-20.8351"/>
<polygon fill="midnightblue" stroke="midnightblue" points="134.858,-24.2928 144.339,-19.5646 133.979,-17.3482 134.858,-24.2928"/>
</g>
</g>
</svg>
