<?xml version="1.0" encoding="UTF-8" standalone="no"?>
<!DOCTYPE svg PUBLIC "-//W3C//DTD SVG 1.1//EN"
 "http://www.w3.org/Graphics/SVG/1.1/DTD/svg11.dtd">
<!-- Generated by graphviz version 2.26.3 (20100126.1600)
 -->
<!-- Title: G Pages: 1 -->
<svg width="806pt" height="110pt"
 viewBox="0.00 0.00 806.00 110.00" xmlns="http://www.w3.org/2000/svg" xmlns:xlink="http://www.w3.org/1999/xlink">
<g id="graph1" class="graph" transform="scale(1 1) rotate(0) translate(4 106)">
<title>G</title>
<polygon fill="white" stroke="white" points="-4,5 -4,-106 803,-106 803,5 -4,5"/>
<!-- Node1 -->
<g id="node1" class="node"><title>Node1</title>
<polygon fill="#bfbfbf" stroke="black" points="0.5,-60.5 0.5,-81.5 83.5,-81.5 83.5,-60.5 0.5,-60.5"/>
<text text-anchor="middle" x="42" y="-68.5" font-family="DejaVuSans" font-size="10.00">cv_Trait::value</text>
</g>
<!-- Node2 -->
<g id="node3" class="node"><title>Node2</title>
<a xlink:href="class_storage_character.html#aabaae6015f75abfc6411f5a388418a3b" target="_top" xlink:title="StorageCharacter::modifyTrait">
<polygon fill="white" stroke="black" points="120,-80.5 120,-101.5 280,-101.5 280,-80.5 120,-80.5"/>
<text text-anchor="middle" x="200" y="-88.5" font-family="DejaVuSans" font-size="10.00">StorageCharacter::modifyTrait</text>
</a>
</g>
<!-- Node1&#45;&gt;Node2 -->
<g id="edge2" class="edge"><title>Node1&#45;&gt;Node2</title>
<path fill="none" stroke="midnightblue" d="M93.5648,-77.5272C102.026,-78.5982 110.967,-79.73 119.926,-80.864"/>
<polygon fill="midnightblue" stroke="midnightblue" points="93.873,-74.0384 83.5126,-76.2548 92.9939,-80.9829 93.873,-74.0384"/>
</g>
<!-- Node3 -->
<g id="node5" class="node"><title>Node3</title>
<a xlink:href="class_trait.html#aff507cb19b22e5668fc20b471d73d691" target="_top" xlink:title="Trait::setValue">
<polygon fill="white" stroke="black" points="158.5,-40.5 158.5,-61.5 241.5,-61.5 241.5,-40.5 158.5,-40.5"/>
<text text-anchor="middle" x="200" y="-48.5" font-family="DejaVuSans" font-size="10.00">Trait::setValue</text>
</a>
</g>
<!-- Node1&#45;&gt;Node3 -->
<g id="edge4" class="edge"><title>Node1&#45;&gt;Node3</title>
<path fill="none" stroke="midnightblue" d="M93.5716,-64.4719C114.61,-61.8088 138.612,-58.7706 158.491,-56.2544"/>
<polygon fill="midnightblue" stroke="midnightblue" points="92.9939,-61.0171 83.5126,-65.7452 93.873,-67.9616 92.9939,-61.0171"/>
</g>
<!-- Node4 -->
<g id="node7" class="node"><title>Node4</title>
<a xlink:href="class_check_trait.html#a9073e7f8bbac8c351bf829b23a9fc850" target="_top" xlink:title="CheckTrait::setValue">
<polygon fill="white" stroke="black" points="316.5,-40.5 316.5,-61.5 429.5,-61.5 429.5,-40.5 316.5,-40.5"/>
<text text-anchor="middle" x="373" y="-48.5" font-family="DejaVuSans" font-size="10.00">CheckTrait::setValue</text>
</a>
</g>
<!-- Node3&#45;&gt;Node4 -->
<g id="edge6" class="edge"><title>Node3&#45;&gt;Node4</title>
<path fill="none" stroke="midnightblue" d="M251.908,-51C272.267,-51 295.688,-51 316.473,-51"/>
<polygon fill="midnightblue" stroke="midnightblue" points="251.879,-47.5001 241.878,-51 251.878,-54.5001 251.879,-47.5001"/>
</g>
<!-- Node5 -->
<g id="node9" class="node"><title>Node5</title>
<a xlink:href="class_check_trait.html#a3d74335165852938fb58d285bcc25b52" target="_top" xlink:title="CheckTrait::CheckTrait">
<polygon fill="white" stroke="black" points="678,-39.5 678,-60.5 798,-60.5 798,-39.5 678,-39.5"/>
<text text-anchor="middle" x="738" y="-47.5" font-family="DejaVuSans" font-size="10.00">CheckTrait::CheckTrait</text>
</a>
</g>
<!-- Node4&#45;&gt;Node5 -->
<g id="edge8" class="edge"><title>Node4&#45;&gt;Node5</title>
<path fill="none" stroke="midnightblue" d="M422.832,-63.7483C436.711,-66.7423 451.86,-69.4968 466,-71 543.784,-79.2693 564.231,-79.4066 642,-71 660.997,-68.9464 681.747,-64.6702 699.08,-60.5092"/>
<polygon fill="midnightblue" stroke="midnightblue" points="423.506,-60.3126 412.983,-61.5403 421.975,-67.1431 423.506,-60.3126"/>
</g>
<!-- Node6 -->
<g id="node11" class="node"><title>Node6</title>
<a xlink:href="class_flaw_widget.html#af387a892373d07ce615ad19d6da45448" target="_top" xlink:title="FlawWidget::FlawWidget">
<polygon fill="white" stroke="black" points="490,-40.5 490,-61.5 618,-61.5 618,-40.5 490,-40.5"/>
<text text-anchor="middle" x="554" y="-48.5" font-family="DejaVuSans" font-size="10.00">FlawWidget::FlawWidget</text>
</a>
</g>
<!-- Node4&#45;&gt;Node6 -->
<g id="edge10" class="edge"><title>Node4&#45;&gt;Node6</title>
<path fill="none" stroke="midnightblue" d="M439.795,-51C456.155,-51 473.627,-51 489.86,-51"/>
<polygon fill="midnightblue" stroke="midnightblue" points="439.773,-47.5001 429.773,-51 439.773,-54.5001 439.773,-47.5001"/>
</g>
<!-- Node7 -->
<g id="node13" class="node"><title>Node7</title>
<a xlink:href="class_check_trait.html#a38b03dfbcc01dbb65a9b345423e232db" target="_top" xlink:title="CheckTrait::hideTraitIfNotAvailable">
<polygon fill="white" stroke="black" points="466,-0.5 466,-21.5 642,-21.5 642,-0.5 466,-0.5"/>
<text text-anchor="middle" x="554" y="-8.5" font-family="DejaVuSans" font-size="10.00">CheckTrait::hideTraitIfNotAvailable</text>
</a>
</g>
<!-- Node4&#45;&gt;Node7 -->
<g id="edge12" class="edge"><title>Node4&#45;&gt;Node7</title>
<path fill="none" stroke="midnightblue" d="M430.441,-38.3059C454.928,-32.8944 483.158,-26.6557 506.448,-21.5087"/>
<polygon fill="midnightblue" stroke="midnightblue" points="429.565,-34.915 420.556,-40.4905 431.075,-41.7501 429.565,-34.915"/>
</g>
<!-- Node7&#45;&gt;Node5 -->
<g id="edge14" class="edge"><title>Node7&#45;&gt;Node5</title>
<path fill="none" stroke="midnightblue" d="M613.861,-23.688C637.885,-28.78 665.253,-34.5808 688.167,-39.4376"/>
<polygon fill="midnightblue" stroke="midnightblue" points="614.301,-20.2036 603.793,-21.554 612.85,-27.0515 614.301,-20.2036"/>
</g>
</g>
</svg>
