<?xml version="1.0" encoding="UTF-8" standalone="no"?>
<!DOCTYPE svg PUBLIC "-//W3C//DTD SVG 1.1//EN"
 "http://www.w3.org/Graphics/SVG/1.1/DTD/svg11.dtd">
<!-- Generated by graphviz version 2.26.3 (20100126.1600)
 -->
<!-- Title: G Pages: 1 -->
<svg width="446pt" height="70pt"
 viewBox="0.00 0.00 446.00 70.00" xmlns="http://www.w3.org/2000/svg" xmlns:xlink="http://www.w3.org/1999/xlink">
<g id="graph1" class="graph" transform="scale(1 1) rotate(0) translate(4 66)">
<title>G</title>
<polygon fill="white" stroke="white" points="-4,5 -4,-66 443,-66 443,5 -4,5"/>
<!-- Node1 -->
<g id="node1" class="node"><title>Node1</title>
<polygon fill="#bfbfbf" stroke="black" points="0.5,-20.5 0.5,-41.5 113.5,-41.5 113.5,-20.5 0.5,-20.5"/>
<text text-anchor="middle" x="57" y="-28.5" font-family="DejaVuSans" font-size="10.00">eNumber::eNumber</text>
</g>
<!-- Node2 -->
<g id="node3" class="node"><title>Node2</title>
<a xlink:href="class_exception.html#a032056e0558a40affd69325368840a72" target="_top" xlink:title="Exception::setDescription">
<polygon fill="white" stroke="black" points="150,-40.5 150,-61.5 288,-61.5 288,-40.5 150,-40.5"/>
<text text-anchor="middle" x="219" y="-48.5" font-family="DejaVuSans" font-size="10.00">Exception::setDescription</text>
</a>
</g>
<!-- Node1&#45;&gt;Node2 -->
<g id="edge2" class="edge"><title>Node1&#45;&gt;Node2</title>
<path fill="none" stroke="midnightblue" d="M113.66,-37.995C122.145,-39.0426 131.024,-40.1387 139.872,-41.2312"/>
<polygon fill="midnightblue" stroke="midnightblue" points="139.474,-44.7085 149.828,-42.4602 140.332,-37.7612 139.474,-44.7085"/>
</g>
<!-- Node3 -->
<g id="node5" class="node"><title>Node3</title>
<a xlink:href="class_exception.html#a16b5202a71fe00abb2c278adca10b415" target="_top" xlink:title="Exception::setMessage">
<polygon fill="white" stroke="black" points="155.5,-0.5 155.5,-21.5 282.5,-21.5 282.5,-0.5 155.5,-0.5"/>
<text text-anchor="middle" x="219" y="-8.5" font-family="DejaVuSans" font-size="10.00">Exception::setMessage</text>
</a>
</g>
<!-- Node1&#45;&gt;Node3 -->
<g id="edge4" class="edge"><title>Node1&#45;&gt;Node3</title>
<path fill="none" stroke="midnightblue" d="M113.66,-24.005C123.893,-22.7416 134.698,-21.4077 145.333,-20.0947"/>
<polygon fill="midnightblue" stroke="midnightblue" points="145.957,-23.5443 155.453,-18.8453 145.099,-16.5971 145.957,-23.5443"/>
</g>
<!-- Node4 -->
<g id="node7" class="node"><title>Node4</title>
<a xlink:href="class_exception.html#aeaf3a81717287d50938bc72ed67bacd8" target="_top" xlink:title="Exception::message">
<polygon fill="white" stroke="black" points="324.5,-0.5 324.5,-21.5 437.5,-21.5 437.5,-0.5 324.5,-0.5"/>
<text text-anchor="middle" x="381" y="-8.5" font-family="DejaVuSans" font-size="10.00">Exception::message</text>
</a>
</g>
<!-- Node3&#45;&gt;Node4 -->
<g id="edge6" class="edge"><title>Node3&#45;&gt;Node4</title>
<path fill="none" stroke="midnightblue" d="M282.562,-11C292.933,-11 303.705,-11 314.152,-11"/>
<polygon fill="midnightblue" stroke="midnightblue" points="314.465,-14.5001 324.465,-11 314.465,-7.5001 314.465,-14.5001"/>
</g>
</g>
</svg>
