<?xml version="1.0" encoding="UTF-8" standalone="no"?>
<!DOCTYPE svg PUBLIC "-//W3C//DTD SVG 1.1//EN"
 "http://www.w3.org/Graphics/SVG/1.1/DTD/svg11.dtd">
<!-- Generated by graphviz version 2.26.3 (20100126.1600)
 -->
<!-- Title: G Pages: 1 -->
<svg width="770pt" height="226pt"
 viewBox="0.00 0.00 770.00 226.00" xmlns="http://www.w3.org/2000/svg" xmlns:xlink="http://www.w3.org/1999/xlink">
<g id="graph1" class="graph" transform="scale(1 1) rotate(0) translate(4 222)">
<title>G</title>
<polygon fill="white" stroke="white" points="-4,5 -4,-222 767,-222 767,5 -4,5"/>
<!-- Node1 -->
<g id="node1" class="node"><title>Node1</title>
<polygon fill="#bfbfbf" stroke="black" points="0.5,-99.5 0.5,-120.5 129.5,-120.5 129.5,-99.5 0.5,-99.5"/>
<text text-anchor="middle" x="65" y="-107.5" font-family="DejaVuSans" font-size="10.00">StorageTemplate::traits</text>
</g>
<!-- Node2 -->
<g id="node3" class="node"><title>Node2</title>
<a xlink:href="class_attribute_widget.html#ab498116d47f94a62e3b82eaa79976b36" target="_top" xlink:title="AttributeWidget::AttributeWidget">
<polygon fill="white" stroke="black" points="166.5,-196.5 166.5,-217.5 337.5,-217.5 337.5,-196.5 166.5,-196.5"/>
<text text-anchor="middle" x="252" y="-204.5" font-family="DejaVuSans" font-size="10.00">AttributeWidget::AttributeWidget</text>
</a>
</g>
<!-- Node1&#45;&gt;Node2 -->
<g id="edge2" class="edge"><title>Node1&#45;&gt;Node2</title>
<path fill="none" stroke="midnightblue" d="M84.7323,-127.156C104.215,-143.318 135.444,-167.198 166,-182 178.174,-187.897 192.006,-192.674 204.963,-196.41"/>
<polygon fill="midnightblue" stroke="midnightblue" points="86.7949,-124.317 76.895,-120.543 82.2805,-129.667 86.7949,-124.317"/>
</g>
<!-- Node3 -->
<g id="node5" class="node"><title>Node3</title>
<a xlink:href="class_storage_template.html#ada340e5acda2a32b7157c6c29cd64399" target="_top" xlink:title="StorageTemplate::breedNames">
<polygon fill="white" stroke="black" points="376.5,-159.5 376.5,-180.5 543.5,-180.5 543.5,-159.5 376.5,-159.5"/>
<text text-anchor="middle" x="460" y="-167.5" font-family="DejaVuSans" font-size="10.00">StorageTemplate::breedNames</text>
</a>
</g>
<!-- Node1&#45;&gt;Node3 -->
<g id="edge4" class="edge"><title>Node1&#45;&gt;Node3</title>
<path fill="none" stroke="midnightblue" d="M117.099,-122.897C132.756,-126.493 150.019,-130.182 166,-133 236.548,-145.441 317.335,-155.295 376.349,-161.695"/>
<polygon fill="midnightblue" stroke="midnightblue" points="117.607,-119.421 107.073,-120.558 116.016,-126.238 117.607,-119.421"/>
</g>
<!-- Node5 -->
<g id="node9" class="node"><title>Node5</title>
<a xlink:href="class_storage_template.html#a6db02d80cae1dc3bfc10e586e9aef016" target="_top" xlink:title="StorageTemplate::factionNames">
<polygon fill="white" stroke="black" points="374.5,-119.5 374.5,-140.5 545.5,-140.5 545.5,-119.5 374.5,-119.5"/>
<text text-anchor="middle" x="460" y="-127.5" font-family="DejaVuSans" font-size="10.00">StorageTemplate::factionNames</text>
</a>
</g>
<!-- Node1&#45;&gt;Node5 -->
<g id="edge8" class="edge"><title>Node1&#45;&gt;Node5</title>
<path fill="none" stroke="midnightblue" d="M139.824,-113.789C206.661,-117.173 304.532,-122.128 374.452,-125.668"/>
<polygon fill="midnightblue" stroke="midnightblue" points="139.948,-110.29 129.784,-113.28 139.594,-117.281 139.948,-110.29"/>
</g>
<!-- Node6 -->
<g id="node12" class="node"><title>Node6</title>
<a xlink:href="class_flaw_widget.html#af387a892373d07ce615ad19d6da45448" target="_top" xlink:title="FlawWidget::FlawWidget">
<polygon fill="white" stroke="black" points="188,-40.5 188,-61.5 316,-61.5 316,-40.5 188,-40.5"/>
<text text-anchor="middle" x="252" y="-48.5" font-family="DejaVuSans" font-size="10.00">FlawWidget::FlawWidget</text>
</a>
</g>
<!-- Node1&#45;&gt;Node6 -->
<g id="edge12" class="edge"><title>Node1&#45;&gt;Node6</title>
<path fill="none" stroke="midnightblue" d="M98.8909,-95.5459C118.303,-87.614 143.254,-77.9987 166,-71 177.281,-67.5288 189.557,-64.3364 201.207,-61.569"/>
<polygon fill="midnightblue" stroke="midnightblue" points="97.4683,-92.3467 89.5637,-99.4013 100.142,-98.8158 97.4683,-92.3467"/>
</g>
<!-- Node7 -->
<g id="node14" class="node"><title>Node7</title>
<a xlink:href="class_merit_widget.html#a3f99dd98cf0c027d9e5a65a6a82d88c8" target="_top" xlink:title="MeritWidget::MeritWidget">
<polygon fill="white" stroke="black" points="184.5,-0.5 184.5,-21.5 319.5,-21.5 319.5,-0.5 184.5,-0.5"/>
<text text-anchor="middle" x="252" y="-8.5" font-family="DejaVuSans" font-size="10.00">MeritWidget::MeritWidget</text>
</a>
</g>
<!-- Node1&#45;&gt;Node7 -->
<g id="edge14" class="edge"><title>Node1&#45;&gt;Node7</title>
<path fill="none" stroke="midnightblue" d="M82.7368,-92.1203C101.711,-74.0208 133.491,-46.5489 166,-31 174.021,-27.1638 182.821,-24.0392 191.637,-21.5008"/>
<polygon fill="midnightblue" stroke="midnightblue" points="80.1466,-89.7573 75.424,-99.2413 85.0302,-94.7723 80.1466,-89.7573"/>
</g>
<!-- Node8 -->
<g id="node16" class="node"><title>Node8</title>
<a xlink:href="class_storage_template.html#aa1c01bbdf076afcacd1e785d2a4d6573" target="_top" xlink:title="StorageTemplate::traitNames">
<polygon fill="white" stroke="black" points="173,-80.5 173,-101.5 331,-101.5 331,-80.5 173,-80.5"/>
<text text-anchor="middle" x="252" y="-88.5" font-family="DejaVuSans" font-size="10.00">StorageTemplate::traitNames</text>
</a>
</g>
<!-- Node1&#45;&gt;Node8 -->
<g id="edge16" class="edge"><title>Node1&#45;&gt;Node8</title>
<path fill="none" stroke="midnightblue" d="M139.888,-102.391C150.734,-101.289 161.928,-100.152 172.854,-99.0416"/>
<polygon fill="midnightblue" stroke="midnightblue" points="139.212,-98.9417 129.617,-103.435 139.919,-105.906 139.212,-98.9417"/>
</g>
<!-- Node4 -->
<g id="node7" class="node"><title>Node4</title>
<a xlink:href="class_info_widget.html#a19f07d861d22be4881361a5a32e86451" target="_top" xlink:title="InfoWidget::InfoWidget">
<polygon fill="white" stroke="black" points="611,-109.5 611,-130.5 733,-130.5 733,-109.5 611,-109.5"/>
<text text-anchor="middle" x="672" y="-117.5" font-family="DejaVuSans" font-size="10.00">InfoWidget::InfoWidget</text>
</a>
</g>
<!-- Node3&#45;&gt;Node4 -->
<g id="edge6" class="edge"><title>Node3&#45;&gt;Node4</title>
<path fill="none" stroke="midnightblue" d="M515.525,-157.132C525.666,-154.769 536.152,-152.318 546,-150 573.251,-143.587 603.797,-136.316 627.988,-130.539"/>
<polygon fill="midnightblue" stroke="midnightblue" points="514.481,-153.781 505.535,-159.457 516.068,-160.599 514.481,-153.781"/>
</g>
<!-- Node5&#45;&gt;Node4 -->
<g id="edge10" class="edge"><title>Node5&#45;&gt;Node4</title>
<path fill="none" stroke="midnightblue" d="M555.666,-125.487C574.407,-124.603 593.583,-123.699 610.821,-122.886"/>
<polygon fill="midnightblue" stroke="midnightblue" points="555.441,-121.994 545.617,-125.961 555.771,-128.986 555.441,-121.994"/>
</g>
<!-- Node9 -->
<g id="node18" class="node"><title>Node9</title>
<a xlink:href="class_storage_template.html#ad86a34d5b7fb0bd4f6bbb8a75f1cf5f5" target="_top" xlink:title="StorageTemplate::viceNames">
<polygon fill="white" stroke="black" points="381,-79.5 381,-100.5 539,-100.5 539,-79.5 381,-79.5"/>
<text text-anchor="middle" x="460" y="-87.5" font-family="DejaVuSans" font-size="10.00">StorageTemplate::viceNames</text>
</a>
</g>
<!-- Node8&#45;&gt;Node9 -->
<g id="edge18" class="edge"><title>Node8&#45;&gt;Node9</title>
<path fill="none" stroke="midnightblue" d="M341.256,-90.5709C354.469,-90.5074 368.006,-90.4423 380.991,-90.3799"/>
<polygon fill="midnightblue" stroke="midnightblue" points="341.212,-87.071 331.229,-90.6191 341.246,-94.0709 341.212,-87.071"/>
</g>
<!-- Node11 -->
<g id="node23" class="node"><title>Node11</title>
<a xlink:href="class_storage_template.html#a6b5bc4437780ff4334b25241926512fe" target="_top" xlink:title="StorageTemplate::virtueNames">
<polygon fill="white" stroke="black" points="377,-39.5 377,-60.5 543,-60.5 543,-39.5 377,-39.5"/>
<text text-anchor="middle" x="460" y="-47.5" font-family="DejaVuSans" font-size="10.00">StorageTemplate::virtueNames</text>
</a>
</g>
<!-- Node8&#45;&gt;Node11 -->
<g id="edge24" class="edge"><title>Node8&#45;&gt;Node11</title>
<path fill="none" stroke="midnightblue" d="M315.369,-78.5091C344.496,-72.7676 378.669,-66.0316 406.482,-60.5492"/>
<polygon fill="midnightblue" stroke="midnightblue" points="314.429,-75.1268 305.295,-80.4947 315.783,-81.9946 314.429,-75.1268"/>
</g>
<!-- Node9&#45;&gt;Node4 -->
<g id="edge20" class="edge"><title>Node9&#45;&gt;Node4</title>
<path fill="none" stroke="midnightblue" d="M544.501,-101.958C566.62,-105.088 590.042,-108.402 610.694,-111.325"/>
<polygon fill="midnightblue" stroke="midnightblue" points="544.837,-98.4704 534.445,-100.535 543.856,-105.401 544.837,-98.4704"/>
</g>
<!-- Node10 -->
<g id="node21" class="node"><title>Node10</title>
<a xlink:href="class_storage_character.html#a6534667b942bd21253c432fee79a8850" target="_top" xlink:title="StorageCharacter::resetCharacter">
<polygon fill="white" stroke="black" points="582,-49.5 582,-70.5 762,-70.5 762,-49.5 582,-49.5"/>
<text text-anchor="middle" x="672" y="-57.5" font-family="DejaVuSans" font-size="10.00">StorageCharacter::resetCharacter</text>
</a>
</g>
<!-- Node9&#45;&gt;Node10 -->
<g id="edge22" class="edge"><title>Node9&#45;&gt;Node10</title>
<path fill="none" stroke="midnightblue" d="M544.67,-78.0184C562.222,-75.5346 580.588,-72.9356 597.734,-70.5093"/>
<polygon fill="midnightblue" stroke="midnightblue" points="543.856,-74.5986 534.445,-79.4653 544.837,-81.5296 543.856,-74.5986"/>
</g>
<!-- Node11&#45;&gt;Node4 -->
<g id="edge26" class="edge"><title>Node11&#45;&gt;Node4</title>
<path fill="none" stroke="midnightblue" d="M521.089,-63.0168C529.512,-65.157 538.008,-67.5004 546,-70 582.387,-81.3809 623.179,-98.3805 648.229,-109.33"/>
<polygon fill="midnightblue" stroke="midnightblue" points="521.817,-59.5917 511.271,-60.6006 520.145,-66.3889 521.817,-59.5917"/>
</g>
<!-- Node11&#45;&gt;Node10 -->
<g id="edge28" class="edge"><title>Node11&#45;&gt;Node10</title>
<path fill="none" stroke="midnightblue" d="M553.337,-54.4027C562.761,-54.8472 572.319,-55.2981 581.71,-55.741"/>
<polygon fill="midnightblue" stroke="midnightblue" points="553.333,-50.8987 543.18,-53.9236 553.003,-57.8909 553.333,-50.8987"/>
</g>
</g>
</svg>
