<?xml version="1.0" encoding="UTF-8" standalone="no"?>
<!DOCTYPE svg PUBLIC "-//W3C//DTD SVG 1.1//EN"
 "http://www.w3.org/Graphics/SVG/1.1/DTD/svg11.dtd">
<!-- Generated by graphviz version 2.26.3 (20100126.1600)
 -->
<!-- Title: G Pages: 1 -->
<svg width="302pt" height="190pt"
 viewBox="0.00 0.00 302.00 190.00" xmlns="http://www.w3.org/2000/svg" xmlns:xlink="http://www.w3.org/1999/xlink">
<g id="graph1" class="graph" transform="scale(1 1) rotate(0) translate(4 186)">
<title>G</title>
<polygon fill="white" stroke="white" points="-4,5 -4,-186 299,-186 299,5 -4,5"/>
<!-- Node1 -->
<g id="node1" class="node"><title>Node1</title>
<polygon fill="#bfbfbf" stroke="black" points="0,-80.5 0,-101.5 132,-101.5 132,-80.5 0,-80.5"/>
<text text-anchor="middle" x="66" y="-88.5" font-family="DejaVuSans" font-size="10.00">Trait::checkPrerequisites</text>
</g>
<!-- Node2 -->
<g id="node3" class="node"><title>Node2</title>
<a xlink:href="class_exception.html#a7cb124af6ec64ad88a8721b60c7932fb" target="_top" xlink:title="Exception::description">
<polygon fill="white" stroke="black" points="170,-160.5 170,-181.5 292,-181.5 292,-160.5 170,-160.5"/>
<text text-anchor="middle" x="231" y="-168.5" font-family="DejaVuSans" font-size="10.00">Exception::description</text>
</a>
</g>
<!-- Node1&#45;&gt;Node2 -->
<g id="edge2" class="edge"><title>Node1&#45;&gt;Node2</title>
<path fill="none" stroke="midnightblue" d="M81.656,-101.718C101.183,-114.726 135.915,-136.689 168,-151 172.79,-153.136 177.877,-155.148 183.003,-157.01"/>
<polygon fill="midnightblue" stroke="midnightblue" points="182.247,-160.451 192.841,-160.402 184.528,-153.833 182.247,-160.451"/>
</g>
<!-- Node3 -->
<g id="node5" class="node"><title>Node3</title>
<a xlink:href="class_exception.html#aeaf3a81717287d50938bc72ed67bacd8" target="_top" xlink:title="Exception::message">
<polygon fill="white" stroke="black" points="174.5,-120.5 174.5,-141.5 287.5,-141.5 287.5,-120.5 174.5,-120.5"/>
<text text-anchor="middle" x="231" y="-128.5" font-family="DejaVuSans" font-size="10.00">Exception::message</text>
</a>
</g>
<!-- Node1&#45;&gt;Node3 -->
<g id="edge4" class="edge"><title>Node1&#45;&gt;Node3</title>
<path fill="none" stroke="midnightblue" d="M109.352,-101.51C130.3,-106.588 155.633,-112.729 177.746,-118.09"/>
<polygon fill="midnightblue" stroke="midnightblue" points="177.108,-121.537 187.652,-120.491 178.758,-114.734 177.108,-121.537"/>
</g>
<!-- Node4 -->
<g id="node7" class="node"><title>Node4</title>
<a xlink:href="classcv___abstract_trait.html#a3bbbc5a0073617a70c86741d4c918576" target="_top" xlink:title="cv_AbstractTrait::name">
<polygon fill="white" stroke="black" points="168,-80.5 168,-101.5 294,-101.5 294,-80.5 168,-80.5"/>
<text text-anchor="middle" x="231" y="-88.5" font-family="DejaVuSans" font-size="10.00">cv_AbstractTrait::name</text>
</a>
</g>
<!-- Node1&#45;&gt;Node4 -->
<g id="edge6" class="edge"><title>Node1&#45;&gt;Node4</title>
<path fill="none" stroke="midnightblue" d="M132.161,-91C140.511,-91 149.094,-91 157.548,-91"/>
<polygon fill="midnightblue" stroke="midnightblue" points="157.773,-94.5001 167.773,-91 157.772,-87.5001 157.773,-94.5001"/>
</g>
<!-- Node5 -->
<g id="node9" class="node"><title>Node5</title>
<a xlink:href="class_trait.html#acb5c6e66ed14d1d6105a40c0babad47c" target="_top" xlink:title="Trait::prerequisitePtrs">
<polygon fill="white" stroke="black" points="172,-40.5 172,-61.5 290,-61.5 290,-40.5 172,-40.5"/>
<text text-anchor="middle" x="231" y="-48.5" font-family="DejaVuSans" font-size="10.00">Trait::prerequisitePtrs</text>
</a>
</g>
<!-- Node1&#45;&gt;Node5 -->
<g id="edge8" class="edge"><title>Node1&#45;&gt;Node5</title>
<path fill="none" stroke="midnightblue" d="M109.352,-80.4905C130.3,-75.412 155.633,-69.2708 177.746,-63.9102"/>
<polygon fill="midnightblue" stroke="midnightblue" points="178.758,-67.2663 187.652,-61.5087 177.108,-60.4633 178.758,-67.2663"/>
</g>
<!-- Node6 -->
<g id="node11" class="node"><title>Node6</title>
<a xlink:href="classcv___trait.html#a6bc140c1db6f0b138451fb8ab38b0661" target="_top" xlink:title="cv_Trait::prerequisites">
<polygon fill="white" stroke="black" points="171,-0.5 171,-21.5 291,-21.5 291,-0.5 171,-0.5"/>
<text text-anchor="middle" x="231" y="-8.5" font-family="DejaVuSans" font-size="10.00">cv_Trait::prerequisites</text>
</a>
</g>
<!-- Node1&#45;&gt;Node6 -->
<g id="edge10" class="edge"><title>Node1&#45;&gt;Node6</title>
<path fill="none" stroke="midnightblue" d="M81.656,-80.2817C101.183,-67.2745 135.915,-45.3112 168,-31 172.79,-28.8636 177.877,-26.8525 183.003,-24.9901"/>
<polygon fill="midnightblue" stroke="midnightblue" points="184.528,-28.1667 192.841,-21.5982 182.247,-21.549 184.528,-28.1667"/>
</g>
</g>
</svg>
