<?xml version="1.0" encoding="UTF-8" standalone="no"?>
<!DOCTYPE svg PUBLIC "-//W3C//DTD SVG 1.1//EN"
 "http://www.w3.org/Graphics/SVG/1.1/DTD/svg11.dtd">
<!-- Generated by graphviz version 2.26.3 (20100126.1600)
 -->
<!-- Title: G Pages: 1 -->
<svg width="474pt" height="110pt"
 viewBox="0.00 0.00 474.00 110.00" xmlns="http://www.w3.org/2000/svg" xmlns:xlink="http://www.w3.org/1999/xlink">
<g id="graph1" class="graph" transform="scale(1 1) rotate(0) translate(4 106)">
<title>G</title>
<polygon fill="white" stroke="white" points="-4,5 -4,-106 471,-106 471,5 -4,5"/>
<!-- Node1 -->
<g id="node1" class="node"><title>Node1</title>
<polygon fill="#bfbfbf" stroke="black" points="0.5,-40.5 0.5,-61.5 129.5,-61.5 129.5,-40.5 0.5,-40.5"/>
<text text-anchor="middle" x="65" y="-48.5" font-family="DejaVuSans" font-size="10.00">cv_Trait::setCustomText</text>
</g>
<!-- Node2 -->
<g id="node3" class="node"><title>Node2</title>
<a xlink:href="class_check_trait.html#a70a2f81f0fc8e246b3296583ec853b4a" target="_top" xlink:title="CheckTrait::setCustomText">
<polygon fill="white" stroke="black" points="166.5,-80.5 166.5,-101.5 309.5,-101.5 309.5,-80.5 166.5,-80.5"/>
<text text-anchor="middle" x="238" y="-88.5" font-family="DejaVuSans" font-size="10.00">CheckTrait::setCustomText</text>
</a>
</g>
<!-- Node1&#45;&gt;Node2 -->
<g id="edge2" class="edge"><title>Node1&#45;&gt;Node2</title>
<path fill="none" stroke="midnightblue" d="M120.214,-63.7663C143.546,-69.161 170.388,-75.3672 192.55,-80.4913"/>
<polygon fill="midnightblue" stroke="midnightblue" points="120.985,-60.3523 110.454,-61.5095 119.408,-67.1724 120.985,-60.3523"/>
</g>
<!-- Node4 -->
<g id="node7" class="node"><title>Node4</title>
<a xlink:href="class_chara_trait.html#ace22816278072df97eb782603153600b" target="_top" xlink:title="CharaTrait::setCustomText">
<polygon fill="white" stroke="black" points="167,-40.5 167,-61.5 309,-61.5 309,-40.5 167,-40.5"/>
<text text-anchor="middle" x="238" y="-48.5" font-family="DejaVuSans" font-size="10.00">CharaTrait::setCustomText</text>
</a>
</g>
<!-- Node1&#45;&gt;Node4 -->
<g id="edge6" class="edge"><title>Node1&#45;&gt;Node4</title>
<path fill="none" stroke="midnightblue" d="M139.935,-51C148.895,-51 158.023,-51 166.926,-51"/>
<polygon fill="midnightblue" stroke="midnightblue" points="139.911,-47.5001 129.911,-51 139.911,-54.5001 139.911,-47.5001"/>
</g>
<!-- Node6 -->
<g id="node11" class="node"><title>Node6</title>
<a xlink:href="class_trait.html#af91999c7db93d064bf79f1a72133152a" target="_top" xlink:title="Trait::Trait">
<polygon fill="white" stroke="black" points="207,-0.5 207,-21.5 269,-21.5 269,-0.5 207,-0.5"/>
<text text-anchor="middle" x="238" y="-8.5" font-family="DejaVuSans" font-size="10.00">Trait::Trait</text>
</a>
</g>
<!-- Node1&#45;&gt;Node6 -->
<g id="edge10" class="edge"><title>Node1&#45;&gt;Node6</title>
<path fill="none" stroke="midnightblue" d="M120.319,-38.2094C148.899,-31.6014 182.722,-23.7811 206.756,-18.2242"/>
<polygon fill="midnightblue" stroke="midnightblue" points="119.408,-34.8276 110.454,-40.4905 120.985,-41.6477 119.408,-34.8276"/>
</g>
<!-- Node3 -->
<g id="node5" class="node"><title>Node3</title>
<a xlink:href="class_check_trait.html#a3d74335165852938fb58d285bcc25b52" target="_top" xlink:title="CheckTrait::CheckTrait">
<polygon fill="white" stroke="black" points="346,-80.5 346,-101.5 466,-101.5 466,-80.5 346,-80.5"/>
<text text-anchor="middle" x="406" y="-88.5" font-family="DejaVuSans" font-size="10.00">CheckTrait::CheckTrait</text>
</a>
</g>
<!-- Node2&#45;&gt;Node3 -->
<g id="edge4" class="edge"><title>Node2&#45;&gt;Node3</title>
<path fill="none" stroke="midnightblue" d="M319.952,-91C328.686,-91 337.451,-91 345.866,-91"/>
<polygon fill="midnightblue" stroke="midnightblue" points="319.734,-87.5001 309.734,-91 319.734,-94.5001 319.734,-87.5001"/>
</g>
<!-- Node5 -->
<g id="node9" class="node"><title>Node5</title>
<a xlink:href="class_chara_trait.html#a21787eb972b4fc8779368a78f4430f14" target="_top" xlink:title="CharaTrait::CharaTrait">
<polygon fill="white" stroke="black" points="346.5,-40.5 346.5,-61.5 465.5,-61.5 465.5,-40.5 346.5,-40.5"/>
<text text-anchor="middle" x="406" y="-48.5" font-family="DejaVuSans" font-size="10.00">CharaTrait::CharaTrait</text>
</a>
</g>
<!-- Node4&#45;&gt;Node5 -->
<g id="edge8" class="edge"><title>Node4&#45;&gt;Node5</title>
<path fill="none" stroke="midnightblue" d="M319.433,-51C328.489,-51 337.586,-51 346.3,-51"/>
<polygon fill="midnightblue" stroke="midnightblue" points="319.247,-47.5001 309.247,-51 319.247,-54.5001 319.247,-47.5001"/>
</g>
</g>
</svg>
