<?xml version="1.0" encoding="UTF-8" standalone="no"?>
<!DOCTYPE svg PUBLIC "-//W3C//DTD SVG 1.1//EN"
 "http://www.w3.org/Graphics/SVG/1.1/DTD/svg11.dtd">
<!-- Generated by graphviz version 2.26.3 (20100126.1600)
 -->
<!-- Title: G Pages: 1 -->
<svg width="846pt" height="618pt"
 viewBox="0.00 0.00 846.00 618.00" xmlns="http://www.w3.org/2000/svg" xmlns:xlink="http://www.w3.org/1999/xlink">
<g id="graph1" class="graph" transform="scale(1 1) rotate(0) translate(4 614)">
<title>G</title>
<polygon fill="white" stroke="white" points="-4,5 -4,-614 843,-614 843,5 -4,5"/>
<!-- Node1 -->
<g id="node1" class="node"><title>Node1</title>
<polygon fill="#bfbfbf" stroke="black" points="0.5,-258.5 0.5,-279.5 119.5,-279.5 119.5,-258.5 0.5,-258.5"/>
<text text-anchor="middle" x="60" y="-266.5" font-family="DejaVuSans" font-size="10.00">CharaTrait::CharaTrait</text>
</g>
<!-- Node2 -->
<g id="node3" class="node"><title>Node2</title>
<a xlink:href="class_chara_trait.html#ab02b27973fec9c68cee320dd61e5c618" target="_top" xlink:title="CharaTrait::checkTraitPrerequisites">
<polygon fill="white" stroke="black" points="156,-548.5 156,-569.5 336,-569.5 336,-548.5 156,-548.5"/>
<text text-anchor="middle" x="246" y="-556.5" font-family="DejaVuSans" font-size="10.00">CharaTrait::checkTraitPrerequisites</text>
</a>
</g>
<!-- Node1&#45;&gt;Node2 -->
<g id="edge2" class="edge"><title>Node1&#45;&gt;Node2</title>
<path fill="none" stroke="midnightblue" d="M60.5267,-279.716C63.0839,-319.666 77.5576,-461.348 156,-534 160.164,-537.857 164.872,-541.126 169.897,-543.897"/>
<polygon fill="midnightblue" stroke="midnightblue" points="168.704,-547.206 179.235,-548.365 171.725,-540.892 168.704,-547.206"/>
</g>
<!-- Node5 -->
<g id="node9" class="node"><title>Node5</title>
<a xlink:href="class_chara_trait.html#abcfeed4a455c49246385c9bc2024ba15" target="_top" xlink:title="CharaTrait::setValue">
<polygon fill="white" stroke="black" points="394,-470.5 394,-491.5 506,-491.5 506,-470.5 394,-470.5"/>
<text text-anchor="middle" x="450" y="-478.5" font-family="DejaVuSans" font-size="10.00">CharaTrait::setValue</text>
</a>
</g>
<!-- Node1&#45;&gt;Node5 -->
<g id="edge58" class="edge"><title>Node1&#45;&gt;Node5</title>
<path fill="none" stroke="midnightblue" d="M61.6235,-279.707C67.3464,-313.301 89.9309,-416.999 156,-461 225.78,-507.473 326.698,-502.643 390.294,-493.148"/>
<polygon fill="midnightblue" stroke="midnightblue" points="391.225,-496.545 400.556,-491.527 390.133,-489.631 391.225,-496.545"/>
</g>
<!-- Node6 -->
<g id="node11" class="node"><title>Node6</title>
<a xlink:href="class_chara_trait.html#ab3935a94198f510d3de473a9a72692ac" target="_top" xlink:title="CharaTrait::traitChanged">
<polygon fill="white" stroke="black" points="564.5,-506.5 564.5,-527.5 697.5,-527.5 697.5,-506.5 564.5,-506.5"/>
<text text-anchor="middle" x="631" y="-514.5" font-family="DejaVuSans" font-size="10.00">CharaTrait::traitChanged</text>
</a>
</g>
<!-- Node1&#45;&gt;Node6 -->
<g id="edge62" class="edge"><title>Node1&#45;&gt;Node6</title>
<path fill="none" stroke="midnightblue" d="M60.7609,-279.666C64.0494,-316.87 80.5284,-441.482 156,-494 218.392,-537.417 436.772,-530.276 554.466,-522.845"/>
<polygon fill="midnightblue" stroke="midnightblue" points="554.741,-526.334 564.494,-522.196 554.289,-519.349 554.741,-526.334"/>
</g>
<!-- Node7 -->
<g id="node13" class="node"><title>Node7</title>
<a xlink:href="class_chara_trait.html#acd1abb86d271f401b9856f2c8e172255" target="_top" xlink:title="CharaTrait::traitPtr">
<polygon fill="white" stroke="black" points="734,-351.5 734,-372.5 838,-372.5 838,-351.5 734,-351.5"/>
<text text-anchor="middle" x="786" y="-359.5" font-family="DejaVuSans" font-size="10.00">CharaTrait::traitPtr</text>
</a>
</g>
<!-- Node1&#45;&gt;Node7 -->
<g id="edge64" class="edge"><title>Node1&#45;&gt;Node7</title>
<path fill="none" stroke="midnightblue" d="M80.3418,-279.667C99.3539,-289.101 128.812,-302.365 156,-309 359.189,-358.586 608.941,-363.718 723.364,-363.102"/>
<polygon fill="midnightblue" stroke="midnightblue" points="723.704,-366.6 733.679,-363.028 723.654,-359.6 723.704,-366.6"/>
</g>
<!-- Node9 -->
<g id="node18" class="node"><title>Node9</title>
<a xlink:href="class_chara_trait.html#ab04ba68cad00668e6379a9e3fb1e5d8a" target="_top" xlink:title="CharaTrait::emitSpecialtiesClicked">
<polygon fill="white" stroke="black" points="157,-238.5 157,-259.5 335,-259.5 335,-238.5 157,-238.5"/>
<text text-anchor="middle" x="246" y="-246.5" font-family="DejaVuSans" font-size="10.00">CharaTrait::emitSpecialtiesClicked</text>
</a>
</g>
<!-- Node1&#45;&gt;Node9 -->
<g id="edge18" class="edge"><title>Node1&#45;&gt;Node9</title>
<path fill="none" stroke="midnightblue" d="M119.619,-262.589C128.359,-261.65 137.552,-260.661 146.828,-259.664"/>
<polygon fill="midnightblue" stroke="midnightblue" points="147.339,-263.129 156.907,-258.58 146.59,-256.169 147.339,-263.129"/>
</g>
<!-- Node10 -->
<g id="node20" class="node"><title>Node10</title>
<a xlink:href="class_chara_trait.html#ae6604555d60fe78d7473942e3502060b" target="_top" xlink:title="CharaTrait::specialtiesClicked">
<polygon fill="white" stroke="black" points="372.5,-160.5 372.5,-181.5 527.5,-181.5 527.5,-160.5 372.5,-160.5"/>
<text text-anchor="middle" x="450" y="-168.5" font-family="DejaVuSans" font-size="10.00">CharaTrait::specialtiesClicked</text>
</a>
</g>
<!-- Node1&#45;&gt;Node10 -->
<g id="edge60" class="edge"><title>Node1&#45;&gt;Node10</title>
<path fill="none" stroke="midnightblue" d="M82.0356,-258.33C101.2,-249.414 129.912,-236.921 156,-229 196.77,-216.621 305.726,-196.339 378.923,-183.335"/>
<polygon fill="midnightblue" stroke="midnightblue" points="379.767,-186.74 389.003,-181.549 378.546,-179.847 379.767,-186.74"/>
</g>
<!-- Node11 -->
<g id="node23" class="node"><title>Node11</title>
<a xlink:href="class_storage_character.html#a50022b948be1e566d902d64095c4470b" target="_top" xlink:title="StorageCharacter::getInstance">
<polygon fill="white" stroke="black" points="164,-160.5 164,-181.5 328,-181.5 328,-160.5 164,-160.5"/>
<text text-anchor="middle" x="246" y="-168.5" font-family="DejaVuSans" font-size="10.00">StorageCharacter::getInstance</text>
</a>
</g>
<!-- Node1&#45;&gt;Node11 -->
<g id="edge24" class="edge"><title>Node1&#45;&gt;Node11</title>
<path fill="none" stroke="midnightblue" d="M70.8699,-258.473C87.7432,-242.688 121.863,-212.936 156,-196 165.043,-191.514 175.01,-187.731 184.916,-184.575"/>
<polygon fill="midnightblue" stroke="midnightblue" points="186.191,-187.847 194.766,-181.625 184.183,-181.141 186.191,-187.847"/>
</g>
<!-- Node12 -->
<g id="node25" class="node"><title>Node12</title>
<a xlink:href="class_chara_trait.html#a794ddd73f3604b16fe4b468b4a02f7df" target="_top" xlink:title="CharaTrait::hideDescriptionWidget">
<polygon fill="white" stroke="black" points="157.5,-120.5 157.5,-141.5 334.5,-141.5 334.5,-120.5 157.5,-120.5"/>
<text text-anchor="middle" x="246" y="-128.5" font-family="DejaVuSans" font-size="10.00">CharaTrait::hideDescriptionWidget</text>
</a>
</g>
<!-- Node1&#45;&gt;Node12 -->
<g id="edge26" class="edge"><title>Node1&#45;&gt;Node12</title>
<path fill="none" stroke="midnightblue" d="M65.5082,-258.162C78.0788,-234.601 111.285,-178.615 156,-151 159.351,-148.93 162.89,-147.074 166.549,-145.408"/>
<polygon fill="midnightblue" stroke="midnightblue" points="167.893,-148.64 175.855,-141.65 165.271,-142.15 167.893,-148.64"/>
</g>
<!-- Node15 -->
<g id="node31" class="node"><title>Node15</title>
<a xlink:href="class_chara_trait.html#a06ea530908c65caf8aad3f494f0d2cb8" target="_top" xlink:title="CharaTrait::hideSpecialtyWidget">
<polygon fill="white" stroke="black" points="162.5,-80.5 162.5,-101.5 329.5,-101.5 329.5,-80.5 162.5,-80.5"/>
<text text-anchor="middle" x="246" y="-88.5" font-family="DejaVuSans" font-size="10.00">CharaTrait::hideSpecialtyWidget</text>
</a>
</g>
<!-- Node1&#45;&gt;Node15 -->
<g id="edge32" class="edge"><title>Node1&#45;&gt;Node15</title>
<path fill="none" stroke="midnightblue" d="M63.269,-258.104C72.5582,-229.118 101.993,-149.698 156,-111 158.667,-109.089 161.484,-107.355 164.41,-105.784"/>
<polygon fill="midnightblue" stroke="midnightblue" points="165.903,-108.949 173.474,-101.537 162.934,-102.611 165.903,-108.949"/>
</g>
<!-- Node17 -->
<g id="node35" class="node"><title>Node17</title>
<a xlink:href="class_chara_trait.html#a8b30fcf229fb59f96c3926a59269194e" target="_top" xlink:title="CharaTrait::hideTraitIfNotAvailable">
<polygon fill="white" stroke="black" points="158.5,-430.5 158.5,-451.5 333.5,-451.5 333.5,-430.5 158.5,-430.5"/>
<text text-anchor="middle" x="246" y="-438.5" font-family="DejaVuSans" font-size="10.00">CharaTrait::hideTraitIfNotAvailable</text>
</a>
</g>
<!-- Node1&#45;&gt;Node17 -->
<g id="edge36" class="edge"><title>Node1&#45;&gt;Node17</title>
<path fill="none" stroke="midnightblue" d="M63.9518,-279.681C74.4945,-306.676 105.941,-378.102 156,-415 162.515,-419.802 169.898,-423.72 177.566,-426.916"/>
<polygon fill="midnightblue" stroke="midnightblue" points="176.429,-430.227 187.021,-430.466 178.89,-423.674 176.429,-430.227"/>
</g>
<!-- Node19 -->
<g id="node40" class="node"><title>Node19</title>
<a xlink:href="class_chara_trait.html#ace22816278072df97eb782603153600b" target="_top" xlink:title="CharaTrait::setCustomText">
<polygon fill="white" stroke="black" points="379,-390.5 379,-411.5 521,-411.5 521,-390.5 379,-390.5"/>
<text text-anchor="middle" x="450" y="-398.5" font-family="DejaVuSans" font-size="10.00">CharaTrait::setCustomText</text>
</a>
</g>
<!-- Node1&#45;&gt;Node19 -->
<g id="edge42" class="edge"><title>Node1&#45;&gt;Node19</title>
<path fill="none" stroke="midnightblue" d="M65.7392,-279.595C78.5303,-302.008 111.769,-353.966 156,-376 222.236,-408.997 307.336,-412.715 368.919,-409.69"/>
<polygon fill="midnightblue" stroke="midnightblue" points="369.189,-413.181 378.978,-409.126 368.798,-406.192 369.189,-413.181"/>
</g>
<!-- Node21 -->
<g id="node47" class="node"><title>Node21</title>
<a xlink:href="class_trait_line.html#a928e4906892bb23afce954034542373d" target="_top" xlink:title="TraitLine::setPossibleValues">
<polygon fill="white" stroke="black" points="172.5,-40.5 172.5,-61.5 319.5,-61.5 319.5,-40.5 172.5,-40.5"/>
<text text-anchor="middle" x="246" y="-48.5" font-family="DejaVuSans" font-size="10.00">TraitLine::setPossibleValues</text>
</a>
</g>
<!-- Node1&#45;&gt;Node21 -->
<g id="edge52" class="edge"><title>Node1&#45;&gt;Node21</title>
<path fill="none" stroke="midnightblue" d="M61.813,-258.389C68.0984,-225.024 92.1695,-121.467 156,-71 158.295,-69.1852 160.722,-67.5276 163.249,-66.014"/>
<polygon fill="midnightblue" stroke="midnightblue" points="164.903,-69.0991 172.185,-61.4035 161.694,-62.8782 164.903,-69.0991"/>
</g>
<!-- Node23 -->
<g id="node51" class="node"><title>Node23</title>
<a xlink:href="class_chara_trait.html#a5fde2e5e662ac55c7381678f480062a8" target="_top" xlink:title="CharaTrait::setTraitPtr">
<polygon fill="white" stroke="black" points="186.5,-0.5 186.5,-21.5 305.5,-21.5 305.5,-0.5 186.5,-0.5"/>
<text text-anchor="middle" x="246" y="-8.5" font-family="DejaVuSans" font-size="10.00">CharaTrait::setTraitPtr</text>
</a>
</g>
<!-- Node1&#45;&gt;Node23 -->
<g id="edge56" class="edge"><title>Node1&#45;&gt;Node23</title>
<path fill="none" stroke="midnightblue" d="M60.8698,-258.464C64.5489,-221.054 82.2423,-93.5086 156,-31 162.01,-25.9066 169.036,-22.0324 176.465,-19.0969"/>
<polygon fill="midnightblue" stroke="midnightblue" points="177.691,-22.3771 186.044,-15.8596 175.45,-15.7455 177.691,-22.3771"/>
</g>
<!-- Node24 -->
<g id="node57" class="node"><title>Node24</title>
<a xlink:href="class_chara_trait.html#a0a5adca1cfd4732d6c4f64299e6d6fd3" target="_top" xlink:title="CharaTrait::updateWidget">
<polygon fill="white" stroke="black" points="177.5,-278.5 177.5,-299.5 314.5,-299.5 314.5,-278.5 177.5,-278.5"/>
<text text-anchor="middle" x="246" y="-286.5" font-family="DejaVuSans" font-size="10.00">CharaTrait::updateWidget</text>
</a>
</g>
<!-- Node1&#45;&gt;Node24 -->
<g id="edge66" class="edge"><title>Node1&#45;&gt;Node24</title>
<path fill="none" stroke="midnightblue" d="M119.619,-275.411C134.699,-277.032 151.128,-278.799 167.001,-280.505"/>
<polygon fill="midnightblue" stroke="midnightblue" points="167.014,-284.027 177.331,-281.616 167.763,-277.067 167.014,-284.027"/>
</g>
<!-- Node3 -->
<g id="node5" class="node"><title>Node3</title>
<a xlink:href="class_exception.html#a7cb124af6ec64ad88a8721b60c7932fb" target="_top" xlink:title="Exception::description">
<polygon fill="white" stroke="black" points="389,-588.5 389,-609.5 511,-609.5 511,-588.5 389,-588.5"/>
<text text-anchor="middle" x="450" y="-596.5" font-family="DejaVuSans" font-size="10.00">Exception::description</text>
</a>
</g>
<!-- Node2&#45;&gt;Node3 -->
<g id="edge4" class="edge"><title>Node2&#45;&gt;Node3</title>
<path fill="none" stroke="midnightblue" d="M299.599,-569.51C326.199,-574.725 358.516,-581.062 386.366,-586.523"/>
<polygon fill="midnightblue" stroke="midnightblue" points="385.919,-590.002 396.406,-588.491 387.266,-583.132 385.919,-590.002"/>
</g>
<!-- Node4 -->
<g id="node7" class="node"><title>Node4</title>
<a xlink:href="class_exception.html#aeaf3a81717287d50938bc72ed67bacd8" target="_top" xlink:title="Exception::message">
<polygon fill="white" stroke="black" points="393.5,-548.5 393.5,-569.5 506.5,-569.5 506.5,-548.5 393.5,-548.5"/>
<text text-anchor="middle" x="450" y="-556.5" font-family="DejaVuSans" font-size="10.00">Exception::message</text>
</a>
</g>
<!-- Node2&#45;&gt;Node4 -->
<g id="edge6" class="edge"><title>Node2&#45;&gt;Node4</title>
<path fill="none" stroke="midnightblue" d="M336.071,-559C351.855,-559 368.025,-559 383.041,-559"/>
<polygon fill="midnightblue" stroke="midnightblue" points="383.234,-562.5 393.234,-559 383.234,-555.5 383.234,-562.5"/>
</g>
<!-- Node2&#45;&gt;Node5 -->
<g id="edge8" class="edge"><title>Node2&#45;&gt;Node5</title>
<path fill="none" stroke="midnightblue" d="M273.512,-548.481C309.481,-534.728 372.623,-510.585 412.824,-495.214"/>
<polygon fill="midnightblue" stroke="midnightblue" points="414.182,-498.442 422.272,-491.602 411.681,-491.904 414.182,-498.442"/>
</g>
<!-- Node5&#45;&gt;Node6 -->
<g id="edge10" class="edge"><title>Node5&#45;&gt;Node6</title>
<path fill="none" stroke="midnightblue" d="M502.839,-491.509C523.287,-495.576 546.857,-500.264 568.164,-504.502"/>
<polygon fill="midnightblue" stroke="midnightblue" points="567.604,-507.959 578.095,-506.477 568.97,-501.094 567.604,-507.959"/>
</g>
<!-- Node5&#45;&gt;Node7 -->
<g id="edge12" class="edge"><title>Node5&#45;&gt;Node7</title>
<path fill="none" stroke="midnightblue" d="M506.042,-480.143C558.083,-477.394 636.56,-468.172 698,-439 727.42,-425.031 754.526,-398.33 770.665,-380.341"/>
<polygon fill="midnightblue" stroke="midnightblue" points="773.338,-382.601 777.277,-372.766 768.064,-377.998 773.338,-382.601"/>
</g>
<!-- Node8 -->
<g id="node15" class="node"><title>Node8</title>
<a xlink:href="class_chara_trait.html#adeed572acc2fa97468285bc3267e9cb8" target="_top" xlink:title="CharaTrait::value">
<polygon fill="white" stroke="black" points="583,-390.5 583,-411.5 679,-411.5 679,-390.5 583,-390.5"/>
<text text-anchor="middle" x="631" y="-398.5" font-family="DejaVuSans" font-size="10.00">CharaTrait::value</text>
</a>
</g>
<!-- Node5&#45;&gt;Node8 -->
<g id="edge14" class="edge"><title>Node5&#45;&gt;Node8</title>
<path fill="none" stroke="midnightblue" d="M499.769,-470.435C509.295,-467.801 519.076,-464.66 528,-461 556.725,-449.218 587.156,-430.64 607.428,-417.277"/>
<polygon fill="midnightblue" stroke="midnightblue" points="609.623,-420.019 615.985,-411.547 605.728,-414.203 609.623,-420.019"/>
</g>
<!-- Node8&#45;&gt;Node7 -->
<g id="edge16" class="edge"><title>Node8&#45;&gt;Node7</title>
<path fill="none" stroke="midnightblue" d="M672.945,-390.446C691.813,-385.699 714.27,-380.048 734.179,-375.039"/>
<polygon fill="midnightblue" stroke="midnightblue" points="735.178,-378.397 744.021,-372.562 733.469,-371.608 735.178,-378.397"/>
</g>
<!-- Node9&#45;&gt;Node7 -->
<g id="edge22" class="edge"><title>Node9&#45;&gt;Node7</title>
<path fill="none" stroke="midnightblue" d="M306.302,-238.448C396.152,-225.617 568.471,-212.316 698,-271 731.807,-286.316 759.305,-321.025 774.107,-342.876"/>
<polygon fill="midnightblue" stroke="midnightblue" points="771.252,-344.906 779.654,-351.359 777.111,-341.074 771.252,-344.906"/>
</g>
<!-- Node9&#45;&gt;Node10 -->
<g id="edge20" class="edge"><title>Node9&#45;&gt;Node10</title>
<path fill="none" stroke="midnightblue" d="M297.279,-238.465C310.287,-234.802 323.975,-230.048 336,-224 354.109,-214.893 354.074,-205.461 372,-196 380.127,-191.711 389.122,-187.994 398.028,-184.834"/>
<polygon fill="midnightblue" stroke="midnightblue" points="399.243,-188.118 407.612,-181.622 397.019,-181.481 399.243,-188.118"/>
</g>
<!-- Node13 -->
<g id="node27" class="node"><title>Node13</title>
<a xlink:href="class_chara_trait.html#a6f2348de11d23f9f44eb81335a9edf19" target="_top" xlink:title="CharaTrait::custom">
<polygon fill="white" stroke="black" points="396.5,-120.5 396.5,-141.5 503.5,-141.5 503.5,-120.5 396.5,-120.5"/>
<text text-anchor="middle" x="450" y="-128.5" font-family="DejaVuSans" font-size="10.00">CharaTrait::custom</text>
</a>
</g>
<!-- Node12&#45;&gt;Node13 -->
<g id="edge28" class="edge"><title>Node12&#45;&gt;Node13</title>
<path fill="none" stroke="midnightblue" d="M334.587,-131C352.04,-131 370.026,-131 386.454,-131"/>
<polygon fill="midnightblue" stroke="midnightblue" points="386.462,-134.5 396.462,-131 386.462,-127.5 386.462,-134.5"/>
</g>
<!-- Node14 -->
<g id="node29" class="node"><title>Node14</title>
<a xlink:href="class_trait_line.html#aba4c8e4ee4f0aab02bb26d4bb63e7dec" target="_top" xlink:title="TraitLine::hideDescription">
<polygon fill="white" stroke="black" points="382,-80.5 382,-101.5 518,-101.5 518,-80.5 382,-80.5"/>
<text text-anchor="middle" x="450" y="-88.5" font-family="DejaVuSans" font-size="10.00">TraitLine::hideDescription</text>
</a>
</g>
<!-- Node12&#45;&gt;Node14 -->
<g id="edge30" class="edge"><title>Node12&#45;&gt;Node14</title>
<path fill="none" stroke="midnightblue" d="M299.599,-120.49C326.199,-115.275 358.516,-108.938 386.366,-103.477"/>
<polygon fill="midnightblue" stroke="midnightblue" points="387.266,-106.868 396.406,-101.509 385.919,-99.9983 387.266,-106.868"/>
</g>
<!-- Node16 -->
<g id="node33" class="node"><title>Node16</title>
<a xlink:href="class_trait_line.html#a95f9132e89bcfae9a062573649e98c19" target="_top" xlink:title="TraitLine::hideSpecialties">
<polygon fill="white" stroke="black" points="383,-40.5 383,-61.5 517,-61.5 517,-40.5 383,-40.5"/>
<text text-anchor="middle" x="450" y="-48.5" font-family="DejaVuSans" font-size="10.00">TraitLine::hideSpecialties</text>
</a>
</g>
<!-- Node15&#45;&gt;Node16 -->
<g id="edge34" class="edge"><title>Node15&#45;&gt;Node16</title>
<path fill="none" stroke="midnightblue" d="M299.599,-80.4905C326.199,-75.2748 358.516,-68.9381 386.366,-63.4773"/>
<polygon fill="midnightblue" stroke="midnightblue" points="387.266,-66.8675 396.406,-61.5087 385.919,-59.9983 387.266,-66.8675"/>
</g>
<!-- Node17&#45;&gt;Node5 -->
<g id="edge38" class="edge"><title>Node17&#45;&gt;Node5</title>
<path fill="none" stroke="midnightblue" d="M299.599,-451.51C326.199,-456.725 358.516,-463.062 386.366,-468.523"/>
<polygon fill="midnightblue" stroke="midnightblue" points="385.919,-472.002 396.406,-470.491 387.266,-465.132 385.919,-472.002"/>
</g>
<!-- Node18 -->
<g id="node38" class="node"><title>Node18</title>
<a xlink:href="class_chara_trait.html#ae8c46557a34a5586b1fbcac00a7c47d6" target="_top" xlink:title="CharaTrait::species">
<polygon fill="white" stroke="black" points="396.5,-430.5 396.5,-451.5 503.5,-451.5 503.5,-430.5 396.5,-430.5"/>
<text text-anchor="middle" x="450" y="-438.5" font-family="DejaVuSans" font-size="10.00">CharaTrait::species</text>
</a>
</g>
<!-- Node17&#45;&gt;Node18 -->
<g id="edge40" class="edge"><title>Node17&#45;&gt;Node18</title>
<path fill="none" stroke="midnightblue" d="M333.698,-441C351.316,-441 369.514,-441 386.134,-441"/>
<polygon fill="midnightblue" stroke="midnightblue" points="386.26,-444.5 396.26,-441 386.26,-437.5 386.26,-444.5"/>
</g>
<!-- Node19&#45;&gt;Node6 -->
<g id="edge48" class="edge"><title>Node19&#45;&gt;Node6</title>
<path fill="none" stroke="midnightblue" d="M505.449,-411.534C513.265,-414.062 521.009,-417.175 528,-421 530.475,-422.354 582.961,-471.695 612.029,-499.096"/>
<polygon fill="midnightblue" stroke="midnightblue" points="609.87,-501.871 619.546,-506.185 614.672,-496.778 609.87,-501.871"/>
</g>
<!-- Node19&#45;&gt;Node7 -->
<g id="edge50" class="edge"><title>Node19&#45;&gt;Node7</title>
<path fill="none" stroke="midnightblue" d="M499.133,-411.544C519.151,-415.335 542.58,-419.135 564,-421 623.331,-426.165 641.022,-438.333 698,-421 724.524,-412.931 750.321,-393.911 767.051,-379.632"/>
<polygon fill="midnightblue" stroke="midnightblue" points="769.747,-381.922 774.93,-372.681 765.116,-376.673 769.747,-381.922"/>
</g>
<!-- Node20 -->
<g id="node42" class="node"><title>Node20</title>
<a xlink:href="class_chara_trait.html#a7cc9b10030c5e6d5030fb898506ee070" target="_top" xlink:title="CharaTrait::customText">
<polygon fill="white" stroke="black" points="568.5,-312.5 568.5,-333.5 693.5,-333.5 693.5,-312.5 568.5,-312.5"/>
<text text-anchor="middle" x="631" y="-320.5" font-family="DejaVuSans" font-size="10.00">CharaTrait::customText</text>
</a>
</g>
<!-- Node19&#45;&gt;Node20 -->
<g id="edge44" class="edge"><title>Node19&#45;&gt;Node20</title>
<path fill="none" stroke="midnightblue" d="M474.41,-390.481C505.987,-376.873 561.165,-353.095 596.877,-337.705"/>
<polygon fill="midnightblue" stroke="midnightblue" points="598.6,-340.774 606.398,-333.602 595.829,-334.345 598.6,-340.774"/>
</g>
<!-- Node20&#45;&gt;Node7 -->
<g id="edge46" class="edge"><title>Node20&#45;&gt;Node7</title>
<path fill="none" stroke="midnightblue" d="M672.945,-333.554C691.813,-338.301 714.27,-343.952 734.179,-348.961"/>
<polygon fill="midnightblue" stroke="midnightblue" points="733.469,-352.392 744.021,-351.438 735.178,-345.603 733.469,-352.392"/>
</g>
<!-- Node22 -->
<g id="node49" class="node"><title>Node22</title>
<a xlink:href="class_trait_dots.html#a5ea410276a2001288a6eaa25ee242bac" target="_top" xlink:title="TraitDots::setAllowedValues">
<polygon fill="white" stroke="black" points="376.5,-0.5 376.5,-21.5 523.5,-21.5 523.5,-0.5 376.5,-0.5"/>
<text text-anchor="middle" x="450" y="-8.5" font-family="DejaVuSans" font-size="10.00">TraitDots::setAllowedValues</text>
</a>
</g>
<!-- Node21&#45;&gt;Node22 -->
<g id="edge54" class="edge"><title>Node21&#45;&gt;Node22</title>
<path fill="none" stroke="midnightblue" d="M299.599,-40.4905C326.199,-35.2748 358.516,-28.9381 386.366,-23.4773"/>
<polygon fill="midnightblue" stroke="midnightblue" points="387.266,-26.8675 396.406,-21.5087 385.919,-19.9983 387.266,-26.8675"/>
</g>
<!-- Node24&#45;&gt;Node5 -->
<g id="edge70" class="edge"><title>Node24&#45;&gt;Node5</title>
<path fill="none" stroke="midnightblue" d="M253.223,-299.713C277.487,-335.581 355.482,-449.826 372,-461 375.816,-463.581 379.941,-465.829 384.234,-467.787"/>
<polygon fill="midnightblue" stroke="midnightblue" points="383.258,-471.167 393.843,-471.627 385.856,-464.666 383.258,-471.167"/>
</g>
<!-- Node24&#45;&gt;Node7 -->
<g id="edge72" class="edge"><title>Node24&#45;&gt;Node7</title>
<path fill="none" stroke="midnightblue" d="M314.786,-279.065C405.313,-268.668 568.159,-259.295 698,-303 724.127,-311.794 749.824,-330.514 766.64,-344.523"/>
<polygon fill="midnightblue" stroke="midnightblue" points="764.712,-347.481 774.579,-351.342 769.273,-342.171 764.712,-347.481"/>
</g>
<!-- Node24&#45;&gt;Node8 -->
<g id="edge74" class="edge"><title>Node24&#45;&gt;Node8</title>
<path fill="none" stroke="midnightblue" d="M282.22,-299.537C352.534,-319.992 507.409,-365.046 584.919,-387.595"/>
<polygon fill="midnightblue" stroke="midnightblue" points="584.297,-391.059 594.877,-390.491 586.253,-384.337 584.297,-391.059"/>
</g>
<!-- Node24&#45;&gt;Node20 -->
<g id="edge68" class="edge"><title>Node24&#45;&gt;Node20</title>
<path fill="none" stroke="midnightblue" d="M314.754,-293.133C371.906,-296.805 455.337,-302.714 528,-310 537.819,-310.985 548.149,-312.143 558.322,-313.355"/>
<polygon fill="midnightblue" stroke="midnightblue" points="558.07,-316.85 568.419,-314.581 558.914,-309.901 558.07,-316.85"/>
</g>
</g>
</svg>
