<?xml version="1.0" encoding="UTF-8" standalone="no"?>
<!DOCTYPE svg PUBLIC "-//W3C//DTD SVG 1.1//EN"
 "http://www.w3.org/Graphics/SVG/1.1/DTD/svg11.dtd">
<!-- Generated by graphviz version 2.26.3 (20100126.1600)
 -->
<!-- Title: G Pages: 1 -->
<svg width="338pt" height="230pt"
 viewBox="0.00 0.00 338.00 230.00" xmlns="http://www.w3.org/2000/svg" xmlns:xlink="http://www.w3.org/1999/xlink">
<g id="graph1" class="graph" transform="scale(1 1) rotate(0) translate(4 226)">
<title>G</title>
<polygon fill="white" stroke="white" points="-4,5 -4,-226 335,-226 335,5 -4,5"/>
<!-- Node1 -->
<g id="node1" class="node"><title>Node1</title>
<polygon fill="#bfbfbf" stroke="black" points="0,-100.5 0,-121.5 122,-121.5 122,-100.5 0,-100.5"/>
<text text-anchor="middle" x="61" y="-108.5" font-family="DejaVuSans" font-size="10.00">Exception::description</text>
</g>
<!-- Node2 -->
<g id="node3" class="node"><title>Node2</title>
<a xlink:href="class_attribute_widget.html#ab498116d47f94a62e3b82eaa79976b36" target="_top" xlink:title="AttributeWidget::AttributeWidget">
<polygon fill="white" stroke="black" points="158.5,-200.5 158.5,-221.5 329.5,-221.5 329.5,-200.5 158.5,-200.5"/>
<text text-anchor="middle" x="244" y="-208.5" font-family="DejaVuSans" font-size="10.00">AttributeWidget::AttributeWidget</text>
</a>
</g>
<!-- Node1&#45;&gt;Node2 -->
<g id="edge2" class="edge"><title>Node1&#45;&gt;Node2</title>
<path fill="none" stroke="midnightblue" d="M78.0437,-129.339C96.1396,-147.698 126.436,-175.398 158,-191 165.695,-194.804 174.139,-197.9 182.636,-200.417"/>
<polygon fill="midnightblue" stroke="midnightblue" points="80.0849,-126.413 70.6271,-121.638 75.0429,-131.269 80.0849,-126.413"/>
</g>
<!-- Node3 -->
<g id="node5" class="node"><title>Node3</title>
<a xlink:href="class_trait.html#a8a1b0f1a3a2388e4f7c2d85b7e95fc7e" target="_top" xlink:title="Trait::checkPrerequisites">
<polygon fill="white" stroke="black" points="178,-160.5 178,-181.5 310,-181.5 310,-160.5 178,-160.5"/>
<text text-anchor="middle" x="244" y="-168.5" font-family="DejaVuSans" font-size="10.00">Trait::checkPrerequisites</text>
</a>
</g>
<!-- Node1&#45;&gt;Node3 -->
<g id="edge4" class="edge"><title>Node1&#45;&gt;Node3</title>
<path fill="none" stroke="midnightblue" d="M92.9617,-125.72C111.644,-133.933 135.84,-143.906 158,-151 168.949,-154.505 180.865,-157.673 192.24,-160.401"/>
<polygon fill="midnightblue" stroke="midnightblue" points="94.2934,-122.481 83.7344,-121.61 91.4452,-128.876 94.2934,-122.481"/>
</g>
<!-- Node4 -->
<g id="node7" class="node"><title>Node4</title>
<a xlink:href="class_flaw_widget.html#af387a892373d07ce615ad19d6da45448" target="_top" xlink:title="FlawWidget::FlawWidget">
<polygon fill="white" stroke="black" points="180,-120.5 180,-141.5 308,-141.5 308,-120.5 180,-120.5"/>
<text text-anchor="middle" x="244" y="-128.5" font-family="DejaVuSans" font-size="10.00">FlawWidget::FlawWidget</text>
</a>
</g>
<!-- Node1&#45;&gt;Node4 -->
<g id="edge6" class="edge"><title>Node1&#45;&gt;Node4</title>
<path fill="none" stroke="midnightblue" d="M132.321,-118.795C147.948,-120.503 164.402,-122.301 179.733,-123.976"/>
<polygon fill="midnightblue" stroke="midnightblue" points="132.512,-115.295 122.191,-117.688 131.751,-122.253 132.512,-115.295"/>
</g>
<!-- Node5 -->
<g id="node9" class="node"><title>Node5</title>
<a xlink:href="class_merit_widget.html#a3f99dd98cf0c027d9e5a65a6a82d88c8" target="_top" xlink:title="MeritWidget::MeritWidget">
<polygon fill="white" stroke="black" points="176.5,-80.5 176.5,-101.5 311.5,-101.5 311.5,-80.5 176.5,-80.5"/>
<text text-anchor="middle" x="244" y="-88.5" font-family="DejaVuSans" font-size="10.00">MeritWidget::MeritWidget</text>
</a>
</g>
<!-- Node1&#45;&gt;Node5 -->
<g id="edge8" class="edge"><title>Node1&#45;&gt;Node5</title>
<path fill="none" stroke="midnightblue" d="M132.524,-103.183C146.913,-101.611 161.995,-99.9623 176.25,-98.4044"/>
<polygon fill="midnightblue" stroke="midnightblue" points="131.751,-99.7467 122.191,-104.312 132.512,-106.705 131.751,-99.7467"/>
</g>
<!-- Node6 -->
<g id="node11" class="node"><title>Node6</title>
<a xlink:href="class_power_widget.html#a07bb0283ac179fda85ae3f2e38f17b71" target="_top" xlink:title="PowerWidget::PowerWidget">
<polygon fill="white" stroke="black" points="172,-40.5 172,-61.5 316,-61.5 316,-40.5 172,-40.5"/>
<text text-anchor="middle" x="244" y="-48.5" font-family="DejaVuSans" font-size="10.00">PowerWidget::PowerWidget</text>
</a>
</g>
<!-- Node1&#45;&gt;Node6 -->
<g id="edge10" class="edge"><title>Node1&#45;&gt;Node6</title>
<path fill="none" stroke="midnightblue" d="M92.9617,-96.2803C111.644,-88.0672 135.84,-78.0939 158,-71 168.949,-67.4949 180.865,-64.3269 192.24,-61.5994"/>
<polygon fill="midnightblue" stroke="midnightblue" points="91.4452,-93.1242 83.7344,-100.39 94.2934,-99.5186 91.4452,-93.1242"/>
</g>
<!-- Node7 -->
<g id="node13" class="node"><title>Node7</title>
<a xlink:href="class_read_xml_character.html#a5857936ddba1793fd089d9f169ed73de" target="_top" xlink:title="ReadXmlCharacter::read">
<polygon fill="white" stroke="black" points="177.5,-0.5 177.5,-21.5 310.5,-21.5 310.5,-0.5 177.5,-0.5"/>
<text text-anchor="middle" x="244" y="-8.5" font-family="DejaVuSans" font-size="10.00">ReadXmlCharacter::read</text>
</a>
</g>
<!-- Node1&#45;&gt;Node7 -->
<g id="edge12" class="edge"><title>Node1&#45;&gt;Node7</title>
<path fill="none" stroke="midnightblue" d="M78.0437,-92.6612C96.1396,-74.3019 126.436,-46.6017 158,-31 165.695,-27.1962 174.139,-24.0995 182.636,-21.5826"/>
<polygon fill="midnightblue" stroke="midnightblue" points="75.0429,-90.7315 70.6271,-100.362 80.0849,-95.5873 75.0429,-90.7315"/>
</g>
</g>
</svg>
