<?xml version="1.0" encoding="UTF-8" standalone="no"?>
<!DOCTYPE svg PUBLIC "-//W3C//DTD SVG 1.1//EN"
 "http://www.w3.org/Graphics/SVG/1.1/DTD/svg11.dtd">
<!-- Generated by graphviz version 2.26.3 (20100126.1600)
 -->
<!-- Title: G Pages: 1 -->
<svg width="542pt" height="222pt"
 viewBox="0.00 0.00 542.00 222.20" xmlns="http://www.w3.org/2000/svg" xmlns:xlink="http://www.w3.org/1999/xlink">
<g id="graph1" class="graph" transform="scale(1 1) rotate(0) translate(4 218.2)">
<title>G</title>
<polygon fill="white" stroke="white" points="-4,5 -4,-218.2 539,-218.2 539,5 -4,5"/>
<!-- Node1 -->
<g id="node1" class="node"><title>Node1</title>
<polygon fill="#bfbfbf" stroke="black" points="0.5,-92.7002 0.5,-113.7 89.5,-113.7 89.5,-92.7002 0.5,-92.7002"/>
<text text-anchor="middle" x="45" y="-100.7" font-family="DejaVuSans" font-size="10.00">cv_Trait::details</text>
</g>
<!-- Node2 -->
<g id="node3" class="node"><title>Node2</title>
<a xlink:href="class_trait.html#ab6460ff9f5e4837d97c857cc06e0fa21" target="_top" xlink:title="Trait::addDetail">
<polygon fill="white" stroke="black" points="171,-192.7 171,-213.7 259,-213.7 259,-192.7 171,-192.7"/>
<text text-anchor="middle" x="215" y="-200.7" font-family="DejaVuSans" font-size="10.00">Trait::addDetail</text>
</a>
</g>
<!-- Node1&#45;&gt;Node2 -->
<g id="edge2" class="edge"><title>Node1&#45;&gt;Node2</title>
<path fill="none" stroke="midnightblue" d="M58.7655,-121.918C73.3701,-140.381 98.1502,-167.982 126,-183.2 139.619,-190.642 155.854,-195.318 170.705,-198.254"/>
<polygon fill="midnightblue" stroke="midnightblue" points="61.4882,-119.717 52.6205,-113.919 55.9372,-123.982 61.4882,-119.717"/>
</g>
<!-- Node4 -->
<g id="node7" class="node"><title>Node4</title>
<a xlink:href="class_trait.html#aa416615b30fcac6dbcfc064d7ad1d40b" target="_top" xlink:title="Trait::clearDetails">
<polygon fill="white" stroke="black" points="166,-152.7 166,-173.7 264,-173.7 264,-152.7 166,-152.7"/>
<text text-anchor="middle" x="215" y="-160.7" font-family="DejaVuSans" font-size="10.00">Trait::clearDetails</text>
</a>
</g>
<!-- Node1&#45;&gt;Node4 -->
<g id="edge6" class="edge"><title>Node1&#45;&gt;Node4</title>
<path fill="none" stroke="midnightblue" d="M72.0817,-118.597C87.4952,-126.839 107.387,-136.619 126,-143.2 138.691,-147.688 152.766,-151.4 165.907,-154.357"/>
<polygon fill="midnightblue" stroke="midnightblue" points="73.5698,-115.422 63.1148,-113.706 70.218,-121.567 73.5698,-115.422"/>
</g>
<!-- Node5 -->
<g id="node10" class="node"><title>Node5</title>
<a xlink:href="class_chara_trait.html#ab04ba68cad00668e6379a9e3fb1e5d8a" target="_top" xlink:title="CharaTrait::emitSpecialtiesClicked">
<polygon fill="white" stroke="black" points="126,-112.7 126,-133.7 304,-133.7 304,-112.7 126,-112.7"/>
<text text-anchor="middle" x="215" y="-120.7" font-family="DejaVuSans" font-size="10.00">CharaTrait::emitSpecialtiesClicked</text>
</a>
</g>
<!-- Node1&#45;&gt;Node5 -->
<g id="edge10" class="edge"><title>Node1&#45;&gt;Node5</title>
<path fill="none" stroke="midnightblue" d="M99.6699,-109.632C108.079,-110.621 116.944,-111.664 125.869,-112.714"/>
<polygon fill="midnightblue" stroke="midnightblue" points="100.006,-106.147 89.6655,-108.455 99.188,-113.1 100.006,-106.147"/>
</g>
<!-- Node7 -->
<g id="node14" class="node"><title>Node7</title>
<a xlink:href="class_storage_character.html#aabaae6015f75abfc6411f5a388418a3b" target="_top" xlink:title="StorageCharacter::modifyTrait">
<polygon fill="white" stroke="black" points="135,-72.7002 135,-93.7002 295,-93.7002 295,-72.7002 135,-72.7002"/>
<text text-anchor="middle" x="215" y="-80.7002" font-family="DejaVuSans" font-size="10.00">StorageCharacter::modifyTrait</text>
</a>
</g>
<!-- Node1&#45;&gt;Node7 -->
<g id="edge14" class="edge"><title>Node1&#45;&gt;Node7</title>
<path fill="none" stroke="midnightblue" d="M99.6991,-96.765C110.901,-95.4471 122.911,-94.0342 134.795,-92.6361"/>
<polygon fill="midnightblue" stroke="midnightblue" points="99.188,-93.3009 89.6655,-97.9454 100.006,-100.253 99.188,-93.3009"/>
</g>
<!-- Node8 -->
<g id="node16" class="node"><title>Node8</title>
<a xlink:href="class_trait.html#a8d2ca547e2dd3189858cbd8aa1c52efd" target="_top" xlink:title="Trait::setDetails">
<polygon fill="white" stroke="black" points="170,-32.7002 170,-53.7002 260,-53.7002 260,-32.7002 170,-32.7002"/>
<text text-anchor="middle" x="215" y="-40.7002" font-family="DejaVuSans" font-size="10.00">Trait::setDetails</text>
</a>
</g>
<!-- Node1&#45;&gt;Node8 -->
<g id="edge16" class="edge"><title>Node1&#45;&gt;Node8</title>
<path fill="none" stroke="midnightblue" d="M72.0817,-87.8034C87.4952,-79.5615 107.387,-69.7815 126,-63.2002 139.886,-58.2903 155.428,-54.3083 169.591,-51.228"/>
<polygon fill="midnightblue" stroke="midnightblue" points="70.218,-84.8331 63.1148,-92.6941 73.5698,-90.9785 70.218,-84.8331"/>
</g>
<!-- Node9 -->
<g id="node18" class="node"><title>Node9</title>
<a xlink:href="class_trait.html#af91999c7db93d064bf79f1a72133152a" target="_top" xlink:title="Trait::Trait">
<polygon fill="white" stroke="black" points="406,-13.7002 406,-34.7002 468,-34.7002 468,-13.7002 406,-13.7002"/>
<text text-anchor="middle" x="437" y="-21.7002" font-family="DejaVuSans" font-size="10.00">Trait::Trait</text>
</a>
</g>
<!-- Node1&#45;&gt;Node9 -->
<g id="edge20" class="edge"><title>Node1&#45;&gt;Node9</title>
<path fill="none" stroke="midnightblue" d="M57.4619,-84.0997C71.4597,-64.5808 96.168,-35.4486 126,-23.2002 221.649,16.0713 348.226,-3.9706 405.937,-16.5628"/>
<polygon fill="midnightblue" stroke="midnightblue" points="54.4342,-82.3252 51.6395,-92.5448 60.1972,-86.2985 54.4342,-82.3252"/>
</g>
<!-- Node3 -->
<g id="node5" class="node"><title>Node3</title>
<a xlink:href="class_storage_character.html#a6273e4a5881f52b074bb1e4885ce70a6" target="_top" xlink:title="StorageCharacter::setSkillSpecialties">
<polygon fill="white" stroke="black" points="340,-172.7 340,-193.7 534,-193.7 534,-172.7 340,-172.7"/>
<text text-anchor="middle" x="437" y="-180.7" font-family="DejaVuSans" font-size="10.00">StorageCharacter::setSkillSpecialties</text>
</a>
</g>
<!-- Node2&#45;&gt;Node3 -->
<g id="edge4" class="edge"><title>Node2&#45;&gt;Node3</title>
<path fill="none" stroke="midnightblue" d="M269.234,-198.314C290.489,-196.399 315.543,-194.142 339.717,-191.964"/>
<polygon fill="midnightblue" stroke="midnightblue" points="268.771,-194.842 259.125,-199.225 269.399,-201.813 268.771,-194.842"/>
</g>
<!-- Node4&#45;&gt;Node3 -->
<g id="edge8" class="edge"><title>Node4&#45;&gt;Node3</title>
<path fill="none" stroke="midnightblue" d="M274.468,-168.558C294.509,-170.363 317.432,-172.428 339.617,-174.427"/>
<polygon fill="midnightblue" stroke="midnightblue" points="274.543,-165.05 264.269,-167.639 273.915,-172.022 274.543,-165.05"/>
</g>
<!-- Node6 -->
<g id="node12" class="node"><title>Node6</title>
<a xlink:href="class_chara_trait.html#a21787eb972b4fc8779368a78f4430f14" target="_top" xlink:title="CharaTrait::CharaTrait">
<polygon fill="white" stroke="black" points="377.5,-112.7 377.5,-133.7 496.5,-133.7 496.5,-112.7 377.5,-112.7"/>
<text text-anchor="middle" x="437" y="-120.7" font-family="DejaVuSans" font-size="10.00">CharaTrait::CharaTrait</text>
</a>
</g>
<!-- Node5&#45;&gt;Node6 -->
<g id="edge12" class="edge"><title>Node5&#45;&gt;Node6</title>
<path fill="none" stroke="midnightblue" d="M314.181,-123.2C335.697,-123.2 357.812,-123.2 377.243,-123.2"/>
<polygon fill="midnightblue" stroke="midnightblue" points="314.017,-119.7 304.017,-123.2 314.017,-126.7 314.017,-119.7"/>
</g>
<!-- Node8&#45;&gt;Node9 -->
<g id="edge18" class="edge"><title>Node8&#45;&gt;Node9</title>
<path fill="none" stroke="midnightblue" d="M270.174,-38.4782C312.953,-34.8169 370.688,-29.8755 405.808,-26.8698"/>
<polygon fill="midnightblue" stroke="midnightblue" points="269.858,-34.9923 260.193,-39.3324 270.455,-41.9668 269.858,-34.9923"/>
</g>
</g>
</svg>
