<?xml version="1.0" encoding="UTF-8" standalone="no"?>
<!DOCTYPE svg PUBLIC "-//W3C//DTD SVG 1.1//EN"
 "http://www.w3.org/Graphics/SVG/1.1/DTD/svg11.dtd">
<!-- Generated by graphviz version 2.26.3 (20100126.1600)
 -->
<!-- Title: G Pages: 1 -->
<svg width="486pt" height="30pt"
 viewBox="0.00 0.00 486.00 30.00" xmlns="http://www.w3.org/2000/svg" xmlns:xlink="http://www.w3.org/1999/xlink">
<g id="graph1" class="graph" transform="scale(1 1) rotate(0) translate(4 26)">
<title>G</title>
<polygon fill="white" stroke="white" points="-4,5 -4,-26 483,-26 483,5 -4,5"/>
<!-- Node1 -->
<g id="node1" class="node"><title>Node1</title>
<polygon fill="#bfbfbf" stroke="black" points="0.5,-0.5 0.5,-21.5 107.5,-21.5 107.5,-0.5 0.5,-0.5"/>
<text text-anchor="middle" x="54" y="-8.5" font-family="DejaVuSans" font-size="10.00">CheckTrait::custom</text>
</g>
<!-- Node2 -->
<g id="node3" class="node"><title>Node2</title>
<a xlink:href="class_check_trait.html#aa15b135c1ef0c0647e9bf49a0735f52a" target="_top" xlink:title="CheckTrait::hideDescriptionWidget">
<polygon fill="white" stroke="black" points="144,-0.5 144,-21.5 322,-21.5 322,-0.5 144,-0.5"/>
<text text-anchor="middle" x="233" y="-8.5" font-family="DejaVuSans" font-size="10.00">CheckTrait::hideDescriptionWidget</text>
</a>
</g>
<!-- Node1&#45;&gt;Node2 -->
<g id="edge2" class="edge"><title>Node1&#45;&gt;Node2</title>
<path fill="none" stroke="midnightblue" d="M117.83,-11C126.283,-11 135.071,-11 143.854,-11"/>
<polygon fill="midnightblue" stroke="midnightblue" points="117.706,-7.5001 107.706,-11 117.706,-14.5001 117.706,-7.5001"/>
</g>
<!-- Node3 -->
<g id="node5" class="node"><title>Node3</title>
<a xlink:href="class_check_trait.html#a3d74335165852938fb58d285bcc25b52" target="_top" xlink:title="CheckTrait::CheckTrait">
<polygon fill="white" stroke="black" points="358,-0.5 358,-21.5 478,-21.5 478,-0.5 358,-0.5"/>
<text text-anchor="middle" x="418" y="-8.5" font-family="DejaVuSans" font-size="10.00">CheckTrait::CheckTrait</text>
</a>
</g>
<!-- Node2&#45;&gt;Node3 -->
<g id="edge4" class="edge"><title>Node2&#45;&gt;Node3</title>
<path fill="none" stroke="midnightblue" d="M332.461,-11C341.143,-11 349.744,-11 357.954,-11"/>
<polygon fill="midnightblue" stroke="midnightblue" points="332.249,-7.5001 322.249,-11 332.249,-14.5001 332.249,-7.5001"/>
</g>
</g>
</svg>
