<?xml version="1.0" encoding="UTF-8" standalone="no"?>
<!DOCTYPE svg PUBLIC "-//W3C//DTD SVG 1.1//EN"
 "http://www.w3.org/Graphics/SVG/1.1/DTD/svg11.dtd">
<!-- Generated by graphviz version 2.26.3 (20100126.1600)
 -->
<!-- Title: G Pages: 1 -->
<svg width="706pt" height="308pt"
 viewBox="0.00 0.00 706.00 308.00" xmlns="http://www.w3.org/2000/svg" xmlns:xlink="http://www.w3.org/1999/xlink">
<g id="graph1" class="graph" transform="scale(1 1) rotate(0) translate(4 304)">
<title>G</title>
<polygon fill="white" stroke="white" points="-4,5 -4,-304 703,-304 703,5 -4,5"/>
<!-- Node1 -->
<g id="node1" class="node"><title>Node1</title>
<polygon fill="#bfbfbf" stroke="black" points="0.5,-138.5 0.5,-159.5 171.5,-159.5 171.5,-138.5 0.5,-138.5"/>
<text text-anchor="middle" x="86" y="-146.5" font-family="DejaVuSans" font-size="10.00">AttributeWidget::AttributeWidget</text>
</g>
<!-- Node2 -->
<g id="node3" class="node"><title>Node2</title>
<a xlink:href="class_storage_character.html#a96062a11fe91e1d9826470412fc64449" target="_top" xlink:title="StorageCharacter::addTrait">
<polygon fill="white" stroke="black" points="223,-278.5 223,-299.5 369,-299.5 369,-278.5 223,-278.5"/>
<text text-anchor="middle" x="296" y="-286.5" font-family="DejaVuSans" font-size="10.00">StorageCharacter::addTrait</text>
</a>
</g>
<!-- Node1&#45;&gt;Node2 -->
<g id="edge2" class="edge"><title>Node1&#45;&gt;Node2</title>
<path fill="none" stroke="midnightblue" d="M93.4752,-159.623C110.728,-183.288 155.864,-240.497 208,-269 212.163,-271.276 216.572,-273.293 221.111,-275.081"/>
<polygon fill="midnightblue" stroke="midnightblue" points="219.979,-278.393 230.574,-278.439 222.32,-271.796 219.979,-278.393"/>
</g>
<!-- Node3 -->
<g id="node5" class="node"><title>Node3</title>
<a xlink:href="class_chara_trait.html#a1fe9b2316d8daebdf80ddad832ef818a" target="_top" xlink:title="CharaTrait::category">
<polygon fill="white" stroke="black" points="239.5,-238.5 239.5,-259.5 352.5,-259.5 352.5,-238.5 239.5,-238.5"/>
<text text-anchor="middle" x="296" y="-246.5" font-family="DejaVuSans" font-size="10.00">CharaTrait::category</text>
</a>
</g>
<!-- Node1&#45;&gt;Node3 -->
<g id="edge4" class="edge"><title>Node1&#45;&gt;Node3</title>
<path fill="none" stroke="midnightblue" d="M98.6518,-159.539C119.887,-176.69 164.644,-210.57 208,-229 214.741,-231.865 221.954,-234.351 229.243,-236.501"/>
<polygon fill="midnightblue" stroke="midnightblue" points="228.622,-239.959 239.192,-239.227 230.472,-233.208 228.622,-239.959"/>
</g>
<!-- Node4 -->
<g id="node7" class="node"><title>Node4</title>
<a xlink:href="classcv___abstract_trait.html#a2c71206d61498c443d25cab1051a546f" target="_top" xlink:title="cv_AbstractTrait::getCategoryList">
<polygon fill="white" stroke="black" points="209,-198.5 209,-219.5 383,-219.5 383,-198.5 209,-198.5"/>
<text text-anchor="middle" x="296" y="-206.5" font-family="DejaVuSans" font-size="10.00">cv_AbstractTrait::getCategoryList</text>
</a>
</g>
<!-- Node1&#45;&gt;Node4 -->
<g id="edge6" class="edge"><title>Node1&#45;&gt;Node4</title>
<path fill="none" stroke="midnightblue" d="M115.844,-159.65C140.399,-168.202 176.207,-180.196 208,-189 217.077,-191.514 226.744,-193.95 236.223,-196.206"/>
<polygon fill="midnightblue" stroke="midnightblue" points="235.467,-199.623 246,-198.488 237.058,-192.807 235.467,-199.623"/>
</g>
<!-- Node5 -->
<g id="node9" class="node"><title>Node5</title>
<a xlink:href="class_storage_character.html#a50022b948be1e566d902d64095c4470b" target="_top" xlink:title="StorageCharacter::getInstance">
<polygon fill="white" stroke="black" points="214,-158.5 214,-179.5 378,-179.5 378,-158.5 214,-158.5"/>
<text text-anchor="middle" x="296" y="-166.5" font-family="DejaVuSans" font-size="10.00">StorageCharacter::getInstance</text>
</a>
</g>
<!-- Node1&#45;&gt;Node5 -->
<g id="edge8" class="edge"><title>Node1&#45;&gt;Node5</title>
<path fill="none" stroke="midnightblue" d="M171.718,-157.164C182.289,-158.17 193.131,-159.203 203.793,-160.218"/>
<polygon fill="midnightblue" stroke="midnightblue" points="203.66,-163.721 213.947,-161.185 204.324,-156.753 203.66,-163.721"/>
</g>
<!-- Node6 -->
<g id="node11" class="node"><title>Node6</title>
<a xlink:href="class_chara_trait.html#abcfeed4a455c49246385c9bc2024ba15" target="_top" xlink:title="CharaTrait::setValue">
<polygon fill="white" stroke="black" points="240,-118.5 240,-139.5 352,-139.5 352,-118.5 240,-118.5"/>
<text text-anchor="middle" x="296" y="-126.5" font-family="DejaVuSans" font-size="10.00">CharaTrait::setValue</text>
</a>
</g>
<!-- Node1&#45;&gt;Node6 -->
<g id="edge10" class="edge"><title>Node1&#45;&gt;Node6</title>
<path fill="none" stroke="midnightblue" d="M171.718,-140.836C191.143,-138.986 211.481,-137.049 229.946,-135.291"/>
<polygon fill="midnightblue" stroke="midnightblue" points="230.371,-138.766 239.994,-134.334 229.707,-131.798 230.371,-138.766"/>
</g>
<!-- Node10 -->
<g id="node20" class="node"><title>Node10</title>
<a xlink:href="class_attribute_widget.html#aa54e0d5d9c9feeed7baa78cd5a2bd969" target="_top" xlink:title="AttributeWidget::speciesChanged">
<polygon fill="white" stroke="black" points="208,-78.5 208,-99.5 384,-99.5 384,-78.5 208,-78.5"/>
<text text-anchor="middle" x="296" y="-86.5" font-family="DejaVuSans" font-size="10.00">AttributeWidget::speciesChanged</text>
</a>
</g>
<!-- Node1&#45;&gt;Node10 -->
<g id="edge20" class="edge"><title>Node1&#45;&gt;Node10</title>
<path fill="none" stroke="midnightblue" d="M115.844,-138.35C140.399,-129.798 176.207,-117.804 208,-109 217.077,-106.486 226.744,-104.05 236.223,-101.794"/>
<polygon fill="midnightblue" stroke="midnightblue" points="237.058,-105.193 246,-99.5123 235.467,-98.3767 237.058,-105.193"/>
</g>
<!-- Node11 -->
<g id="node22" class="node"><title>Node11</title>
<a xlink:href="classcv___abstract_trait.html#add050d72e281131d1591bbf24e87bb15" target="_top" xlink:title="cv_AbstractTrait::toString">
<polygon fill="white" stroke="black" points="420.5,-20.5 420.5,-41.5 557.5,-41.5 557.5,-20.5 420.5,-20.5"/>
<text text-anchor="middle" x="489" y="-28.5" font-family="DejaVuSans" font-size="10.00">cv_AbstractTrait::toString</text>
</a>
</g>
<!-- Node1&#45;&gt;Node11 -->
<g id="edge22" class="edge"><title>Node1&#45;&gt;Node11</title>
<path fill="none" stroke="midnightblue" d="M98.141,-138.309C118.984,-120.619 163.629,-85.57 208,-69 273.367,-44.5889 352.492,-35.5602 410.101,-32.3637"/>
<polygon fill="midnightblue" stroke="midnightblue" points="410.428,-35.8517 420.237,-31.8489 410.073,-28.8607 410.428,-35.8517"/>
</g>
<!-- Node12 -->
<g id="node24" class="node"><title>Node12</title>
<a xlink:href="class_storage_template.html#a2c38d76215e4a8651f4bb6eaae03ece2" target="_top" xlink:title="StorageTemplate::traitsPtr">
<polygon fill="white" stroke="black" points="224.5,-0.5 224.5,-21.5 367.5,-21.5 367.5,-0.5 224.5,-0.5"/>
<text text-anchor="middle" x="296" y="-8.5" font-family="DejaVuSans" font-size="10.00">StorageTemplate::traitsPtr</text>
</a>
</g>
<!-- Node1&#45;&gt;Node12 -->
<g id="edge24" class="edge"><title>Node1&#45;&gt;Node12</title>
<path fill="none" stroke="midnightblue" d="M94.5527,-138.2C112.9,-115.759 158.418,-63.8618 208,-36 216.033,-31.4861 224.944,-27.7341 233.924,-24.6306"/>
<polygon fill="midnightblue" stroke="midnightblue" points="235.201,-27.8968 243.656,-21.5121 233.064,-21.2307 235.201,-27.8968"/>
</g>
<!-- Node7 -->
<g id="node13" class="node"><title>Node7</title>
<a xlink:href="class_chara_trait.html#ab3935a94198f510d3de473a9a72692ac" target="_top" xlink:title="CharaTrait::traitChanged">
<polygon fill="white" stroke="black" points="422.5,-157.5 422.5,-178.5 555.5,-178.5 555.5,-157.5 422.5,-157.5"/>
<text text-anchor="middle" x="489" y="-165.5" font-family="DejaVuSans" font-size="10.00">CharaTrait::traitChanged</text>
</a>
</g>
<!-- Node6&#45;&gt;Node7 -->
<g id="edge12" class="edge"><title>Node6&#45;&gt;Node7</title>
<path fill="none" stroke="midnightblue" d="M347.974,-139.503C372.32,-144.422 401.508,-150.32 426.997,-155.471"/>
<polygon fill="midnightblue" stroke="midnightblue" points="426.438,-158.929 436.933,-157.479 427.824,-152.067 426.438,-158.929"/>
</g>
<!-- Node8 -->
<g id="node15" class="node"><title>Node8</title>
<a xlink:href="class_chara_trait.html#acd1abb86d271f401b9856f2c8e172255" target="_top" xlink:title="CharaTrait::traitPtr">
<polygon fill="white" stroke="black" points="594,-98.5 594,-119.5 698,-119.5 698,-98.5 594,-98.5"/>
<text text-anchor="middle" x="646" y="-106.5" font-family="DejaVuSans" font-size="10.00">CharaTrait::traitPtr</text>
</a>
</g>
<!-- Node6&#45;&gt;Node8 -->
<g id="edge14" class="edge"><title>Node6&#45;&gt;Node8</title>
<path fill="none" stroke="midnightblue" d="M352.234,-125.787C415.515,-122.171 518.025,-116.313 583.694,-112.56"/>
<polygon fill="midnightblue" stroke="midnightblue" points="584.122,-116.042 593.906,-111.977 583.722,-109.053 584.122,-116.042"/>
</g>
<!-- Node9 -->
<g id="node17" class="node"><title>Node9</title>
<a xlink:href="class_chara_trait.html#adeed572acc2fa97468285bc3267e9cb8" target="_top" xlink:title="CharaTrait::value">
<polygon fill="white" stroke="black" points="441,-79.5 441,-100.5 537,-100.5 537,-79.5 441,-79.5"/>
<text text-anchor="middle" x="489" y="-87.5" font-family="DejaVuSans" font-size="10.00">CharaTrait::value</text>
</a>
</g>
<!-- Node6&#45;&gt;Node9 -->
<g id="edge16" class="edge"><title>Node6&#45;&gt;Node9</title>
<path fill="none" stroke="midnightblue" d="M347.974,-118.497C373.615,-113.316 404.628,-107.049 431.035,-101.713"/>
<polygon fill="midnightblue" stroke="midnightblue" points="431.8,-105.129 440.909,-99.7179 430.414,-98.268 431.8,-105.129"/>
</g>
<!-- Node9&#45;&gt;Node8 -->
<g id="edge18" class="edge"><title>Node9&#45;&gt;Node8</title>
<path fill="none" stroke="midnightblue" d="M537.386,-95.8557C552.094,-97.6356 568.464,-99.6167 583.942,-101.49"/>
<polygon fill="midnightblue" stroke="midnightblue" points="583.609,-104.975 593.957,-102.702 584.45,-98.0257 583.609,-104.975"/>
</g>
<!-- Node12&#45;&gt;Node11 -->
<g id="edge26" class="edge"><title>Node12&#45;&gt;Node11</title>
<path fill="none" stroke="midnightblue" d="M367.592,-18.4188C381.49,-19.8591 396.128,-21.376 410.242,-22.8386"/>
<polygon fill="midnightblue" stroke="midnightblue" points="410.101,-26.3426 420.408,-23.892 410.822,-19.3799 410.101,-26.3426"/>
</g>
</g>
</svg>
