<?xml version="1.0" encoding="UTF-8" standalone="no"?>
<!DOCTYPE svg PUBLIC "-//W3C//DTD SVG 1.1//EN"
 "http://www.w3.org/Graphics/SVG/1.1/DTD/svg11.dtd">
<!-- Generated by graphviz version 2.26.3 (20100126.1600)
 -->
<!-- Title: G Pages: 1 -->
<svg width="362pt" height="270pt"
 viewBox="0.00 0.00 362.00 270.00" xmlns="http://www.w3.org/2000/svg" xmlns:xlink="http://www.w3.org/1999/xlink">
<g id="graph1" class="graph" transform="scale(1 1) rotate(0) translate(4 266)">
<title>G</title>
<polygon fill="white" stroke="white" points="-4,5 -4,-266 359,-266 359,5 -4,5"/>
<!-- Node1 -->
<g id="node1" class="node"><title>Node1</title>
<polygon fill="#bfbfbf" stroke="black" points="0,-120.5 0,-141.5 144,-141.5 144,-120.5 0,-120.5"/>
<text text-anchor="middle" x="72" y="-128.5" font-family="DejaVuSans" font-size="10.00">PowerWidget::PowerWidget</text>
</g>
<!-- Node2 -->
<g id="node3" class="node"><title>Node2</title>
<a xlink:href="class_storage_character.html#a2093dc6b7f575513846c3e8cd2fa0985" target="_top" xlink:title="StorageCharacter::addTrait">
<polygon fill="white" stroke="black" points="194,-240.5 194,-261.5 340,-261.5 340,-240.5 194,-240.5"/>
<text text-anchor="middle" x="267" y="-248.5" font-family="DejaVuSans" font-size="10.00">StorageCharacter::addTrait</text>
</a>
</g>
<!-- Node1&#45;&gt;Node2 -->
<g id="edge2" class="edge"><title>Node1&#45;&gt;Node2</title>
<path fill="none" stroke="midnightblue" d="M80.2246,-141.677C96.7512,-162.346 136.177,-207.825 180,-231 184.311,-233.28 188.877,-235.302 193.57,-237.094"/>
<polygon fill="midnightblue" stroke="midnightblue" points="192.746,-240.512 203.34,-240.461 195.026,-233.894 192.746,-240.512"/>
</g>
<!-- Node3 -->
<g id="node5" class="node"><title>Node3</title>
<a xlink:href="class_exception.html#a7cb124af6ec64ad88a8721b60c7932fb" target="_top" xlink:title="Exception::description">
<polygon fill="white" stroke="black" points="206,-200.5 206,-221.5 328,-221.5 328,-200.5 206,-200.5"/>
<text text-anchor="middle" x="267" y="-208.5" font-family="DejaVuSans" font-size="10.00">Exception::description</text>
</a>
</g>
<!-- Node1&#45;&gt;Node3 -->
<g id="edge4" class="edge"><title>Node1&#45;&gt;Node3</title>
<path fill="none" stroke="midnightblue" d="M87.772,-141.638C108.215,-154.976 145.358,-177.702 180,-191 186.665,-193.558 193.748,-195.844 200.883,-197.871"/>
<polygon fill="midnightblue" stroke="midnightblue" points="200.045,-201.27 210.61,-200.478 201.857,-194.509 200.045,-201.27"/>
</g>
<!-- Node4 -->
<g id="node7" class="node"><title>Node4</title>
<a xlink:href="classcv___abstract_trait.html#a2c71206d61498c443d25cab1051a546f" target="_top" xlink:title="cv_AbstractTrait::getCategoryList">
<polygon fill="white" stroke="black" points="180,-160.5 180,-181.5 354,-181.5 354,-160.5 180,-160.5"/>
<text text-anchor="middle" x="267" y="-168.5" font-family="DejaVuSans" font-size="10.00">cv_AbstractTrait::getCategoryList</text>
</a>
</g>
<!-- Node1&#45;&gt;Node4 -->
<g id="edge6" class="edge"><title>Node1&#45;&gt;Node4</title>
<path fill="none" stroke="midnightblue" d="M123.234,-141.51C148.549,-146.702 179.281,-153.006 205.823,-158.451"/>
<polygon fill="midnightblue" stroke="midnightblue" points="205.271,-161.91 215.77,-160.491 206.677,-155.053 205.271,-161.91"/>
</g>
<!-- Node5 -->
<g id="node9" class="node"><title>Node5</title>
<a xlink:href="class_storage_character.html#a50022b948be1e566d902d64095c4470b" target="_top" xlink:title="StorageCharacter::getInstance">
<polygon fill="white" stroke="black" points="185,-120.5 185,-141.5 349,-141.5 349,-120.5 185,-120.5"/>
<text text-anchor="middle" x="267" y="-128.5" font-family="DejaVuSans" font-size="10.00">StorageCharacter::getInstance</text>
</a>
</g>
<!-- Node1&#45;&gt;Node5 -->
<g id="edge8" class="edge"><title>Node1&#45;&gt;Node5</title>
<path fill="none" stroke="midnightblue" d="M144.057,-131C153.984,-131 164.289,-131 174.521,-131"/>
<polygon fill="midnightblue" stroke="midnightblue" points="174.711,-134.5 184.711,-131 174.711,-127.5 174.711,-134.5"/>
</g>
<!-- Node6 -->
<g id="node11" class="node"><title>Node6</title>
<a xlink:href="class_exception.html#aeaf3a81717287d50938bc72ed67bacd8" target="_top" xlink:title="Exception::message">
<polygon fill="white" stroke="black" points="210.5,-80.5 210.5,-101.5 323.5,-101.5 323.5,-80.5 210.5,-80.5"/>
<text text-anchor="middle" x="267" y="-88.5" font-family="DejaVuSans" font-size="10.00">Exception::message</text>
</a>
</g>
<!-- Node1&#45;&gt;Node6 -->
<g id="edge10" class="edge"><title>Node1&#45;&gt;Node6</title>
<path fill="none" stroke="midnightblue" d="M123.234,-120.49C148.549,-115.298 179.281,-108.994 205.823,-103.549"/>
<polygon fill="midnightblue" stroke="midnightblue" points="206.677,-106.947 215.77,-101.509 205.271,-100.09 206.677,-106.947"/>
</g>
<!-- Node7 -->
<g id="node13" class="node"><title>Node7</title>
<a xlink:href="classcv___abstract_trait.html#add050d72e281131d1591bbf24e87bb15" target="_top" xlink:title="cv_AbstractTrait::toString">
<polygon fill="white" stroke="black" points="198.5,-40.5 198.5,-61.5 335.5,-61.5 335.5,-40.5 198.5,-40.5"/>
<text text-anchor="middle" x="267" y="-48.5" font-family="DejaVuSans" font-size="10.00">cv_AbstractTrait::toString</text>
</a>
</g>
<!-- Node1&#45;&gt;Node7 -->
<g id="edge12" class="edge"><title>Node1&#45;&gt;Node7</title>
<path fill="none" stroke="midnightblue" d="M87.772,-120.362C108.215,-107.024 145.358,-84.2984 180,-71 186.665,-68.4416 193.748,-66.1564 200.883,-64.1288"/>
<polygon fill="midnightblue" stroke="midnightblue" points="201.857,-67.4914 210.61,-61.5223 200.045,-60.7299 201.857,-67.4914"/>
</g>
<!-- Node8 -->
<g id="node15" class="node"><title>Node8</title>
<a xlink:href="class_storage_template.html#a75022d10255d8f09b675d8c01d2295f3" target="_top" xlink:title="StorageTemplate::traits">
<polygon fill="white" stroke="black" points="202.5,-0.5 202.5,-21.5 331.5,-21.5 331.5,-0.5 202.5,-0.5"/>
<text text-anchor="middle" x="267" y="-8.5" font-family="DejaVuSans" font-size="10.00">StorageTemplate::traits</text>
</a>
</g>
<!-- Node1&#45;&gt;Node8 -->
<g id="edge14" class="edge"><title>Node1&#45;&gt;Node8</title>
<path fill="none" stroke="midnightblue" d="M80.2246,-120.323C96.7512,-99.6536 136.177,-54.1754 180,-31 184.311,-28.72 188.877,-26.6983 193.57,-24.9059"/>
<polygon fill="midnightblue" stroke="midnightblue" points="195.026,-28.1063 203.34,-21.5394 192.746,-21.4881 195.026,-28.1063"/>
</g>
</g>
</svg>
