<?xml version="1.0" encoding="UTF-8" standalone="no"?>
<!DOCTYPE svg PUBLIC "-//W3C//DTD SVG 1.1//EN"
 "http://www.w3.org/Graphics/SVG/1.1/DTD/svg11.dtd">
<!-- Generated by graphviz version 2.26.3 (20100126.1600)
 -->
<!-- Title: G Pages: 1 -->
<svg width="676pt" height="250pt"
 viewBox="0.00 0.00 676.00 249.64" xmlns="http://www.w3.org/2000/svg" xmlns:xlink="http://www.w3.org/1999/xlink">
<g id="graph1" class="graph" transform="scale(1 1) rotate(0) translate(4 245.645)">
<title>G</title>
<polygon fill="white" stroke="white" points="-4,5 -4,-245.645 673,-245.645 673,5 -4,5"/>
<!-- Node1 -->
<g id="node1" class="node"><title>Node1</title>
<polygon fill="#bfbfbf" stroke="black" points="0,-119.5 0,-140.5 134,-140.5 134,-119.5 0,-119.5"/>
<text text-anchor="middle" x="67" y="-127.5" font-family="DejaVuSans" font-size="10.00">CheckTrait::traitChanged</text>
</g>
<!-- Node2 -->
<g id="node3" class="node"><title>Node2</title>
<a xlink:href="class_check_trait.html#a0e37d389c1ccaf32a2157463d3c055c6" target="_top" xlink:title="CheckTrait::CheckTrait">
<polygon fill="white" stroke="black" points="548,-99.5 548,-120.5 668,-120.5 668,-99.5 548,-99.5"/>
<text text-anchor="middle" x="608" y="-107.5" font-family="DejaVuSans" font-size="10.00">CheckTrait::CheckTrait</text>
</a>
</g>
<!-- Node1&#45;&gt;Node2 -->
<g id="edge2" class="edge"><title>Node1&#45;&gt;Node2</title>
<path fill="none" stroke="midnightblue" d="M79.6714,-149.087C96.8479,-173.031 130.014,-212.899 170,-229 223.596,-250.581 243.139,-239.25 300,-229 414.523,-208.355 541.09,-145.625 588.588,-120.535"/>
<polygon fill="midnightblue" stroke="midnightblue" points="82.4728,-146.985 73.8903,-140.773 76.7256,-150.982 82.4728,-146.985"/>
</g>
<!-- Node3 -->
<g id="node5" class="node"><title>Node3</title>
<a xlink:href="class_check_trait.html#a435fdd90ff430b86bdcd0da51c3e61e0" target="_top" xlink:title="CheckTrait::setCategory">
<polygon fill="white" stroke="black" points="170,-198.5 170,-219.5 300,-219.5 300,-198.5 170,-198.5"/>
<text text-anchor="middle" x="235" y="-206.5" font-family="DejaVuSans" font-size="10.00">CheckTrait::setCategory</text>
</a>
</g>
<!-- Node1&#45;&gt;Node3 -->
<g id="edge4" class="edge"><title>Node1&#45;&gt;Node3</title>
<path fill="none" stroke="midnightblue" d="M91.4692,-146.085C111.849,-158.968 141.966,-176.837 170,-189 178.124,-192.524 187.066,-195.7 195.651,-198.43"/>
<polygon fill="midnightblue" stroke="midnightblue" points="93.1419,-143 82.8331,-140.555 89.3671,-148.895 93.1419,-143"/>
</g>
<!-- Node4 -->
<g id="node7" class="node"><title>Node4</title>
<a xlink:href="class_check_trait.html#aaa686b2552adabe22ccacc80b58adcfd" target="_top" xlink:title="CheckTrait::setCustom">
<polygon fill="white" stroke="black" points="173,-158.5 173,-179.5 297,-179.5 297,-158.5 173,-158.5"/>
<text text-anchor="middle" x="235" y="-166.5" font-family="DejaVuSans" font-size="10.00">CheckTrait::setCustom</text>
</a>
</g>
<!-- Node1&#45;&gt;Node4 -->
<g id="edge6" class="edge"><title>Node1&#45;&gt;Node4</title>
<path fill="none" stroke="midnightblue" d="M122.244,-142.825C144.037,-147.884 168.765,-153.624 189.5,-158.438"/>
<polygon fill="midnightblue" stroke="midnightblue" points="122.996,-139.406 112.463,-140.554 121.413,-146.225 122.996,-139.406"/>
</g>
<!-- Node5 -->
<g id="node9" class="node"><title>Node5</title>
<a xlink:href="class_check_trait.html#a70a2f81f0fc8e246b3296583ec853b4a" target="_top" xlink:title="CheckTrait::setCustomText">
<polygon fill="white" stroke="black" points="352.5,-119.5 352.5,-140.5 495.5,-140.5 495.5,-119.5 352.5,-119.5"/>
<text text-anchor="middle" x="424" y="-127.5" font-family="DejaVuSans" font-size="10.00">CheckTrait::setCustomText</text>
</a>
</g>
<!-- Node1&#45;&gt;Node5 -->
<g id="edge8" class="edge"><title>Node1&#45;&gt;Node5</title>
<path fill="none" stroke="midnightblue" d="M144.233,-130C206.009,-130 291.969,-130 352.252,-130"/>
<polygon fill="midnightblue" stroke="midnightblue" points="144.149,-126.5 134.149,-130 144.149,-133.5 144.149,-126.5"/>
</g>
<!-- Node6 -->
<g id="node12" class="node"><title>Node6</title>
<a xlink:href="class_check_trait.html#a13434736aa94965e0b2d1fe87ead5c06" target="_top" xlink:title="CheckTrait::setSpecies">
<polygon fill="white" stroke="black" points="173,-80.5 173,-101.5 297,-101.5 297,-80.5 173,-80.5"/>
<text text-anchor="middle" x="235" y="-88.5" font-family="DejaVuSans" font-size="10.00">CheckTrait::setSpecies</text>
</a>
</g>
<!-- Node1&#45;&gt;Node6 -->
<g id="edge12" class="edge"><title>Node1&#45;&gt;Node6</title>
<path fill="none" stroke="midnightblue" d="M122.244,-117.175C144.037,-112.116 168.765,-106.376 189.5,-101.562"/>
<polygon fill="midnightblue" stroke="midnightblue" points="121.413,-113.775 112.463,-119.446 122.996,-120.594 121.413,-113.775"/>
</g>
<!-- Node7 -->
<g id="node14" class="node"><title>Node7</title>
<a xlink:href="class_check_trait.html#ac8c0ce9b6169d62ad48af359efcebf3f" target="_top" xlink:title="CheckTrait::setType">
<polygon fill="white" stroke="black" points="181.5,-40.5 181.5,-61.5 288.5,-61.5 288.5,-40.5 181.5,-40.5"/>
<text text-anchor="middle" x="235" y="-48.5" font-family="DejaVuSans" font-size="10.00">CheckTrait::setType</text>
</a>
</g>
<!-- Node1&#45;&gt;Node7 -->
<g id="edge14" class="edge"><title>Node1&#45;&gt;Node7</title>
<path fill="none" stroke="midnightblue" d="M91.4692,-113.915C111.849,-101.032 141.966,-83.1628 170,-71 178.124,-67.4756 187.066,-64.2996 195.651,-61.5705"/>
<polygon fill="midnightblue" stroke="midnightblue" points="89.3671,-111.105 82.8331,-119.445 93.1419,-117 89.3671,-111.105"/>
</g>
<!-- Node8 -->
<g id="node16" class="node"><title>Node8</title>
<a xlink:href="class_check_trait.html#a9073e7f8bbac8c351bf829b23a9fc850" target="_top" xlink:title="CheckTrait::setValue">
<polygon fill="white" stroke="black" points="178.5,-0.5 178.5,-21.5 291.5,-21.5 291.5,-0.5 178.5,-0.5"/>
<text text-anchor="middle" x="235" y="-8.5" font-family="DejaVuSans" font-size="10.00">CheckTrait::setValue</text>
</a>
</g>
<!-- Node1&#45;&gt;Node8 -->
<g id="edge16" class="edge"><title>Node1&#45;&gt;Node8</title>
<path fill="none" stroke="midnightblue" d="M81.6359,-111.381C100.015,-89.1935 133.582,-52.4383 170,-31 176.41,-27.2265 183.602,-24.0991 190.802,-21.5282"/>
<polygon fill="midnightblue" stroke="midnightblue" points="78.7313,-109.405 75.1485,-119.376 84.1671,-113.816 78.7313,-109.405"/>
</g>
<!-- Node5&#45;&gt;Node2 -->
<g id="edge10" class="edge"><title>Node5&#45;&gt;Node2</title>
<path fill="none" stroke="midnightblue" d="M505.872,-121.101C519.993,-119.566 534.436,-117.996 547.849,-116.538"/>
<polygon fill="midnightblue" stroke="midnightblue" points="505.229,-117.65 495.666,-122.21 505.986,-124.609 505.229,-117.65"/>
</g>
<!-- Node8&#45;&gt;Node2 -->
<g id="edge18" class="edge"><title>Node8&#45;&gt;Node2</title>
<path fill="none" stroke="midnightblue" d="M289.934,-25.49C293.438,-27.1437 296.828,-28.9747 300,-31 320.159,-43.8712 314.899,-59.7396 336,-71 371.616,-90.0064 479.029,-100.928 547.736,-106.148"/>
<polygon fill="midnightblue" stroke="midnightblue" points="291.037,-22.1574 280.462,-21.515 288.329,-28.612 291.037,-22.1574"/>
</g>
<!-- Node9 -->
<g id="node19" class="node"><title>Node9</title>
<a xlink:href="class_flaw_widget.html#af387a892373d07ce615ad19d6da45448" target="_top" xlink:title="FlawWidget::FlawWidget">
<polygon fill="white" stroke="black" points="360,-40.5 360,-61.5 488,-61.5 488,-40.5 360,-40.5"/>
<text text-anchor="middle" x="424" y="-48.5" font-family="DejaVuSans" font-size="10.00">FlawWidget::FlawWidget</text>
</a>
</g>
<!-- Node8&#45;&gt;Node9 -->
<g id="edge20" class="edge"><title>Node8&#45;&gt;Node9</title>
<path fill="none" stroke="midnightblue" d="M294.639,-23.622C320.287,-29.0501 349.919,-35.3215 374.346,-40.4913"/>
<polygon fill="midnightblue" stroke="midnightblue" points="295.166,-20.156 284.658,-21.5095 293.716,-27.0043 295.166,-20.156"/>
</g>
<!-- Node10 -->
<g id="node21" class="node"><title>Node10</title>
<a xlink:href="class_check_trait.html#a38b03dfbcc01dbb65a9b345423e232db" target="_top" xlink:title="CheckTrait::hideTraitIfNotAvailable">
<polygon fill="white" stroke="black" points="336,-0.5 336,-21.5 512,-21.5 512,-0.5 336,-0.5"/>
<text text-anchor="middle" x="424" y="-8.5" font-family="DejaVuSans" font-size="10.00">CheckTrait::hideTraitIfNotAvailable</text>
</a>
</g>
<!-- Node8&#45;&gt;Node10 -->
<g id="edge22" class="edge"><title>Node8&#45;&gt;Node10</title>
<path fill="none" stroke="midnightblue" d="M302.027,-11C312.987,-11 324.487,-11 335.863,-11"/>
<polygon fill="midnightblue" stroke="midnightblue" points="301.706,-7.5001 291.706,-11 301.706,-14.5001 301.706,-7.5001"/>
</g>
<!-- Node10&#45;&gt;Node2 -->
<g id="edge24" class="edge"><title>Node10&#45;&gt;Node2</title>
<path fill="none" stroke="midnightblue" d="M496.794,-24.6824C502.041,-26.5329 507.165,-28.6283 512,-31 548.045,-48.6798 582.39,-82.3722 598.477,-99.4758"/>
<polygon fill="midnightblue" stroke="midnightblue" points="497.843,-21.3432 487.252,-21.6091 495.697,-28.0062 497.843,-21.3432"/>
</g>
</g>
</svg>
