<?xml version="1.0" encoding="UTF-8" standalone="no"?>
<!DOCTYPE svg PUBLIC "-//W3C//DTD SVG 1.1//EN"
 "http://www.w3.org/Graphics/SVG/1.1/DTD/svg11.dtd">
<!-- Generated by graphviz version 2.26.3 (20100126.1600)
 -->
<!-- Title: G Pages: 1 -->
<svg width="468pt" height="70pt"
 viewBox="0.00 0.00 468.00 70.00" xmlns="http://www.w3.org/2000/svg" xmlns:xlink="http://www.w3.org/1999/xlink">
<g id="graph1" class="graph" transform="scale(1 1) rotate(0) translate(4 66)">
<title>G</title>
<polygon fill="white" stroke="white" points="-4,5 -4,-66 465,-66 465,5 -4,5"/>
<!-- Node1 -->
<g id="node1" class="node"><title>Node1</title>
<polygon fill="#bfbfbf" stroke="black" points="0.5,-20.5 0.5,-41.5 107.5,-41.5 107.5,-20.5 0.5,-20.5"/>
<text text-anchor="middle" x="54" y="-28.5" font-family="DejaVuSans" font-size="10.00">CharaTrait::setType</text>
</g>
<!-- Node2 -->
<g id="node3" class="node"><title>Node2</title>
<a xlink:href="class_chara_combo_trait.html#ab69360c1b6ebc0c9486033fd0be32e05" target="_top" xlink:title="CharaComboTrait::addTrait">
<polygon fill="white" stroke="black" points="144.5,-40.5 144.5,-61.5 287.5,-61.5 287.5,-40.5 144.5,-40.5"/>
<text text-anchor="middle" x="216" y="-48.5" font-family="DejaVuSans" font-size="10.00">CharaComboTrait::addTrait</text>
</a>
</g>
<!-- Node1&#45;&gt;Node2 -->
<g id="edge2" class="edge"><title>Node1&#45;&gt;Node2</title>
<path fill="none" stroke="midnightblue" d="M117.983,-38.8991C126.663,-39.9708 135.617,-41.0761 144.419,-42.1629"/>
<polygon fill="midnightblue" stroke="midnightblue" points="118.297,-35.4114 107.944,-37.6597 117.439,-42.3587 118.297,-35.4114"/>
</g>
<!-- Node4 -->
<g id="node7" class="node"><title>Node4</title>
<a xlink:href="class_chara_trait.html#aa5178b75c9a0e6ab10a1280b48fd130a" target="_top" xlink:title="CharaTrait::CharaTrait">
<polygon fill="white" stroke="black" points="156.5,-0.5 156.5,-21.5 275.5,-21.5 275.5,-0.5 156.5,-0.5"/>
<text text-anchor="middle" x="216" y="-8.5" font-family="DejaVuSans" font-size="10.00">CharaTrait::CharaTrait</text>
</a>
</g>
<!-- Node1&#45;&gt;Node4 -->
<g id="edge6" class="edge"><title>Node1&#45;&gt;Node4</title>
<path fill="none" stroke="midnightblue" d="M117.963,-23.1034C130.643,-21.5379 143.907,-19.9004 156.434,-18.3539"/>
<polygon fill="midnightblue" stroke="midnightblue" points="117.439,-19.6413 107.944,-24.3403 118.297,-26.5886 117.439,-19.6413"/>
</g>
<!-- Node3 -->
<g id="node5" class="node"><title>Node3</title>
<a xlink:href="class_merit_widget.html#a3f99dd98cf0c027d9e5a65a6a82d88c8" target="_top" xlink:title="MeritWidget::MeritWidget">
<polygon fill="white" stroke="black" points="324.5,-40.5 324.5,-61.5 459.5,-61.5 459.5,-40.5 324.5,-40.5"/>
<text text-anchor="middle" x="392" y="-48.5" font-family="DejaVuSans" font-size="10.00">MeritWidget::MeritWidget</text>
</a>
</g>
<!-- Node2&#45;&gt;Node3 -->
<g id="edge4" class="edge"><title>Node2&#45;&gt;Node3</title>
<path fill="none" stroke="midnightblue" d="M297.656,-51C306.627,-51 315.685,-51 324.457,-51"/>
<polygon fill="midnightblue" stroke="midnightblue" points="297.586,-47.5001 287.586,-51 297.586,-54.5001 297.586,-47.5001"/>
</g>
</g>
</svg>
