<?xml version="1.0" encoding="UTF-8" standalone="no"?>
<!DOCTYPE svg PUBLIC "-//W3C//DTD SVG 1.1//EN"
 "http://www.w3.org/Graphics/SVG/1.1/DTD/svg11.dtd">
<!-- Generated by graphviz version 2.26.3 (20100126.1600)
 -->
<!-- Title: G Pages: 1 -->
<svg width="390pt" height="190pt"
 viewBox="0.00 0.00 390.00 190.00" xmlns="http://www.w3.org/2000/svg" xmlns:xlink="http://www.w3.org/1999/xlink">
<g id="graph1" class="graph" transform="scale(1 1) rotate(0) translate(4 186)">
<title>G</title>
<polygon fill="white" stroke="white" points="-4,5 -4,-186 387,-186 387,5 -4,5"/>
<!-- Node1 -->
<g id="node1" class="node"><title>Node1</title>
<polygon fill="#bfbfbf" stroke="black" points="0,-80.5 0,-101.5 174,-101.5 174,-80.5 0,-80.5"/>
<text text-anchor="middle" x="87" y="-88.5" font-family="DejaVuSans" font-size="10.00">cv_AbstractTrait::getCategoryList</text>
</g>
<!-- Node2 -->
<g id="node3" class="node"><title>Node2</title>
<a xlink:href="class_attribute_widget.html#ab498116d47f94a62e3b82eaa79976b36" target="_top" xlink:title="AttributeWidget::AttributeWidget">
<polygon fill="white" stroke="black" points="210.5,-160.5 210.5,-181.5 381.5,-181.5 381.5,-160.5 210.5,-160.5"/>
<text text-anchor="middle" x="296" y="-168.5" font-family="DejaVuSans" font-size="10.00">AttributeWidget::AttributeWidget</text>
</a>
</g>
<!-- Node1&#45;&gt;Node2 -->
<g id="edge2" class="edge"><title>Node1&#45;&gt;Node2</title>
<path fill="none" stroke="midnightblue" d="M114.631,-106.72C139.062,-120.069 176.002,-138.929 210,-151 220.256,-154.642 231.439,-157.802 242.244,-160.467"/>
<polygon fill="midnightblue" stroke="midnightblue" points="116.044,-103.502 105.599,-101.724 112.656,-109.627 116.044,-103.502"/>
</g>
<!-- Node3 -->
<g id="node5" class="node"><title>Node3</title>
<a xlink:href="class_creation.html#a2fc5625819c4f10884e0c31b594700a4" target="_top" xlink:title="Creation::calcPoints">
<polygon fill="white" stroke="black" points="240.5,-120.5 240.5,-141.5 351.5,-141.5 351.5,-120.5 240.5,-120.5"/>
<text text-anchor="middle" x="296" y="-128.5" font-family="DejaVuSans" font-size="10.00">Creation::calcPoints</text>
</a>
</g>
<!-- Node1&#45;&gt;Node3 -->
<g id="edge4" class="edge"><title>Node1&#45;&gt;Node3</title>
<path fill="none" stroke="midnightblue" d="M151.823,-103.406C180.441,-108.883 213.721,-115.253 241.092,-120.491"/>
<polygon fill="midnightblue" stroke="midnightblue" points="152.392,-99.9518 141.912,-101.51 151.076,-106.827 152.392,-99.9518"/>
</g>
<!-- Node4 -->
<g id="node7" class="node"><title>Node4</title>
<a xlink:href="class_flaw_widget.html#af387a892373d07ce615ad19d6da45448" target="_top" xlink:title="FlawWidget::FlawWidget">
<polygon fill="white" stroke="black" points="232,-80.5 232,-101.5 360,-101.5 360,-80.5 232,-80.5"/>
<text text-anchor="middle" x="296" y="-88.5" font-family="DejaVuSans" font-size="10.00">FlawWidget::FlawWidget</text>
</a>
</g>
<!-- Node1&#45;&gt;Node4 -->
<g id="edge6" class="edge"><title>Node1&#45;&gt;Node4</title>
<path fill="none" stroke="midnightblue" d="M184.171,-91C200.384,-91 216.833,-91 231.947,-91"/>
<polygon fill="midnightblue" stroke="midnightblue" points="184.121,-87.5001 174.121,-91 184.121,-94.5001 184.121,-87.5001"/>
</g>
<!-- Node5 -->
<g id="node9" class="node"><title>Node5</title>
<a xlink:href="class_merit_widget.html#a3f99dd98cf0c027d9e5a65a6a82d88c8" target="_top" xlink:title="MeritWidget::MeritWidget">
<polygon fill="white" stroke="black" points="228.5,-40.5 228.5,-61.5 363.5,-61.5 363.5,-40.5 228.5,-40.5"/>
<text text-anchor="middle" x="296" y="-48.5" font-family="DejaVuSans" font-size="10.00">MeritWidget::MeritWidget</text>
</a>
</g>
<!-- Node1&#45;&gt;Node5 -->
<g id="edge8" class="edge"><title>Node1&#45;&gt;Node5</title>
<path fill="none" stroke="midnightblue" d="M151.823,-78.5937C180.441,-73.1166 213.721,-66.7472 241.092,-61.5087"/>
<polygon fill="midnightblue" stroke="midnightblue" points="151.076,-75.173 141.912,-80.4905 152.392,-82.0482 151.076,-75.173"/>
</g>
<!-- Node6 -->
<g id="node11" class="node"><title>Node6</title>
<a xlink:href="class_power_widget.html#a07bb0283ac179fda85ae3f2e38f17b71" target="_top" xlink:title="PowerWidget::PowerWidget">
<polygon fill="white" stroke="black" points="224,-0.5 224,-21.5 368,-21.5 368,-0.5 224,-0.5"/>
<text text-anchor="middle" x="296" y="-8.5" font-family="DejaVuSans" font-size="10.00">PowerWidget::PowerWidget</text>
</a>
</g>
<!-- Node1&#45;&gt;Node6 -->
<g id="edge10" class="edge"><title>Node1&#45;&gt;Node6</title>
<path fill="none" stroke="midnightblue" d="M114.631,-75.2802C139.062,-61.9313 176.002,-43.071 210,-31 220.256,-27.3585 231.439,-24.1984 242.244,-21.533"/>
<polygon fill="midnightblue" stroke="midnightblue" points="112.656,-72.373 105.599,-80.2759 116.044,-78.4984 112.656,-72.373"/>
</g>
</g>
</svg>
