<?xml version="1.0" encoding="UTF-8" standalone="no"?>
<!DOCTYPE svg PUBLIC "-//W3C//DTD SVG 1.1//EN"
 "http://www.w3.org/Graphics/SVG/1.1/DTD/svg11.dtd">
<!-- Generated by graphviz version 2.26.3 (20100126.1600)
 -->
<!-- Title: G Pages: 1 -->
<svg width="358pt" height="550pt"
 viewBox="0.00 0.00 358.00 550.00" xmlns="http://www.w3.org/2000/svg" xmlns:xlink="http://www.w3.org/1999/xlink">
<g id="graph1" class="graph" transform="scale(1 1) rotate(0) translate(4 546)">
<title>G</title>
<polygon fill="white" stroke="white" points="-4,5 -4,-546 355,-546 355,5 -4,5"/>
<!-- Node1 -->
<g id="node1" class="node"><title>Node1</title>
<polygon fill="#bfbfbf" stroke="black" points="0,-260.5 0,-281.5 134,-281.5 134,-260.5 0,-260.5"/>
<text text-anchor="middle" x="67" y="-268.5" font-family="DejaVuSans" font-size="10.00">WriteXmlCharacter::write</text>
</g>
<!-- Node2 -->
<g id="node3" class="node"><title>Node2</title>
<a xlink:href="class_storage_character.html#aebd9f331aba3edea9185648a9b0bf4e3" target="_top" xlink:title="StorageCharacter::armorFirearms">
<polygon fill="white" stroke="black" points="170.5,-520.5 170.5,-541.5 349.5,-541.5 349.5,-520.5 170.5,-520.5"/>
<text text-anchor="middle" x="260" y="-528.5" font-family="DejaVuSans" font-size="10.00">StorageCharacter::armorFirearms</text>
</a>
</g>
<!-- Node1&#45;&gt;Node2 -->
<g id="edge2" class="edge"><title>Node1&#45;&gt;Node2</title>
<path fill="none" stroke="midnightblue" d="M68.1685,-281.642C72.9103,-319.425 94.2435,-448.216 170,-511 171.995,-512.653 174.097,-514.178 176.286,-515.582"/>
<polygon fill="midnightblue" stroke="midnightblue" points="174.658,-518.681 185.108,-520.429 178.029,-512.546 174.658,-518.681"/>
</g>
<!-- Node3 -->
<g id="node5" class="node"><title>Node3</title>
<a xlink:href="class_storage_character.html#a640f61c0b394d9cbe74082574f015dcb" target="_top" xlink:title="StorageCharacter::armorGeneral">
<polygon fill="white" stroke="black" points="172.5,-480.5 172.5,-501.5 347.5,-501.5 347.5,-480.5 172.5,-480.5"/>
<text text-anchor="middle" x="260" y="-488.5" font-family="DejaVuSans" font-size="10.00">StorageCharacter::armorGeneral</text>
</a>
</g>
<!-- Node1&#45;&gt;Node3 -->
<g id="edge4" class="edge"><title>Node1&#45;&gt;Node3</title>
<path fill="none" stroke="midnightblue" d="M69.1661,-281.732C76.5657,-315.478 104.125,-420.196 170,-471 172.317,-472.787 174.762,-474.421 177.305,-475.914"/>
<polygon fill="midnightblue" stroke="midnightblue" points="175.783,-479.067 186.285,-480.469 178.95,-472.824 175.783,-479.067"/>
</g>
<!-- Node4 -->
<g id="node7" class="node"><title>Node4</title>
<a xlink:href="class_storage_character.html#a7289161f542dffad44323ac280284cae" target="_top" xlink:title="StorageCharacter::breed">
<polygon fill="white" stroke="black" points="192,-440.5 192,-461.5 328,-461.5 328,-440.5 192,-440.5"/>
<text text-anchor="middle" x="260" y="-448.5" font-family="DejaVuSans" font-size="10.00">StorageCharacter::breed</text>
</a>
</g>
<!-- Node1&#45;&gt;Node4 -->
<g id="edge6" class="edge"><title>Node1&#45;&gt;Node4</title>
<path fill="none" stroke="midnightblue" d="M70.56,-281.621C80.8648,-310.64 113.629,-391.706 170,-431 173.796,-433.646 177.882,-435.949 182.144,-437.953"/>
<polygon fill="midnightblue" stroke="midnightblue" points="181.132,-441.322 191.712,-441.881 183.79,-434.846 181.132,-441.322"/>
</g>
<!-- Node5 -->
<g id="node9" class="node"><title>Node5</title>
<a xlink:href="class_storage_character.html#a79c0c6ceb638d44bb65cedeebbeee2bb" target="_top" xlink:title="StorageCharacter::faction">
<polygon fill="white" stroke="black" points="190,-400.5 190,-421.5 330,-421.5 330,-400.5 190,-400.5"/>
<text text-anchor="middle" x="260" y="-408.5" font-family="DejaVuSans" font-size="10.00">StorageCharacter::faction</text>
</a>
</g>
<!-- Node1&#45;&gt;Node5 -->
<g id="edge8" class="edge"><title>Node1&#45;&gt;Node5</title>
<path fill="none" stroke="midnightblue" d="M72.8691,-281.661C86.5297,-305.405 122.905,-362.765 170,-391 173.453,-393.07 177.097,-394.927 180.861,-396.592"/>
<polygon fill="midnightblue" stroke="midnightblue" points="179.834,-399.949 190.421,-400.348 182.394,-393.434 179.834,-399.949"/>
</g>
<!-- Node6 -->
<g id="node11" class="node"><title>Node6</title>
<a xlink:href="class_storage_character.html#abb7991be121ab6479a23a293841ef01e" target="_top" xlink:title="StorageCharacter::identities">
<polygon fill="white" stroke="black" points="184,-360.5 184,-381.5 336,-381.5 336,-360.5 184,-360.5"/>
<text text-anchor="middle" x="260" y="-368.5" font-family="DejaVuSans" font-size="10.00">StorageCharacter::identities</text>
</a>
</g>
<!-- Node1&#45;&gt;Node6 -->
<g id="edge10" class="edge"><title>Node1&#45;&gt;Node6</title>
<path fill="none" stroke="midnightblue" d="M77.3432,-281.654C94.7847,-298.969 131.888,-333.08 170,-351 175.07,-353.384 180.435,-355.49 185.922,-357.349"/>
<polygon fill="midnightblue" stroke="midnightblue" points="185.301,-360.82 195.888,-360.436 187.372,-354.134 185.301,-360.82"/>
</g>
<!-- Node7 -->
<g id="node13" class="node"><title>Node7</title>
<a xlink:href="class_storage_character.html#aff97992ee48b10183016f991408b3ec8" target="_top" xlink:title="StorageCharacter::morality">
<polygon fill="white" stroke="black" points="186.5,-320.5 186.5,-341.5 333.5,-341.5 333.5,-320.5 186.5,-320.5"/>
<text text-anchor="middle" x="260" y="-328.5" font-family="DejaVuSans" font-size="10.00">StorageCharacter::morality</text>
</a>
</g>
<!-- Node1&#45;&gt;Node7 -->
<g id="edge12" class="edge"><title>Node1&#45;&gt;Node7</title>
<path fill="none" stroke="midnightblue" d="M91.1908,-281.598C111.835,-290.349 142.465,-302.647 170,-311 178.458,-313.566 187.454,-315.955 196.363,-318.125"/>
<polygon fill="midnightblue" stroke="midnightblue" points="195.816,-321.592 206.352,-320.479 197.421,-314.778 195.816,-321.592"/>
</g>
<!-- Node8 -->
<g id="node15" class="node"><title>Node8</title>
<a xlink:href="class_config.html#a207b413a92300d09acb205a2d21a8734" target="_top" xlink:title="Config::name">
<polygon fill="white" stroke="black" points="220,-280.5 220,-301.5 300,-301.5 300,-280.5 220,-280.5"/>
<text text-anchor="middle" x="260" y="-288.5" font-family="DejaVuSans" font-size="10.00">Config::name</text>
</a>
</g>
<!-- Node1&#45;&gt;Node8 -->
<g id="edge14" class="edge"><title>Node1&#45;&gt;Node8</title>
<path fill="none" stroke="midnightblue" d="M134.231,-277.967C159.042,-280.538 186.705,-283.405 209.756,-285.793"/>
<polygon fill="midnightblue" stroke="midnightblue" points="209.688,-289.305 219.995,-286.854 210.409,-282.342 209.688,-289.305"/>
</g>
<!-- Node9 -->
<g id="node17" class="node"><title>Node9</title>
<a xlink:href="class_storage_character.html#a003ec6624532c534b04c93f18f9c381c" target="_top" xlink:title="StorageCharacter::species">
<polygon fill="white" stroke="black" points="188,-240.5 188,-261.5 332,-261.5 332,-240.5 188,-240.5"/>
<text text-anchor="middle" x="260" y="-248.5" font-family="DejaVuSans" font-size="10.00">StorageCharacter::species</text>
</a>
</g>
<!-- Node1&#45;&gt;Node9 -->
<g id="edge16" class="edge"><title>Node1&#45;&gt;Node9</title>
<path fill="none" stroke="midnightblue" d="M134.231,-264.033C148.285,-262.577 163.254,-261.025 177.781,-259.52"/>
<polygon fill="midnightblue" stroke="midnightblue" points="178.166,-262.999 187.752,-258.487 177.444,-256.036 178.166,-262.999"/>
</g>
<!-- Node10 -->
<g id="node19" class="node"><title>Node10</title>
<a xlink:href="class_storage_character.html#a976fa01b0a773d46a67ddf00670ea5e3" target="_top" xlink:title="StorageCharacter::superTrait">
<polygon fill="white" stroke="black" points="182.5,-200.5 182.5,-221.5 337.5,-221.5 337.5,-200.5 182.5,-200.5"/>
<text text-anchor="middle" x="260" y="-208.5" font-family="DejaVuSans" font-size="10.00">StorageCharacter::superTrait</text>
</a>
</g>
<!-- Node1&#45;&gt;Node10 -->
<g id="edge18" class="edge"><title>Node1&#45;&gt;Node10</title>
<path fill="none" stroke="midnightblue" d="M91.1908,-260.402C111.835,-251.651 142.465,-239.353 170,-231 178.458,-228.434 187.454,-226.045 196.363,-223.875"/>
<polygon fill="midnightblue" stroke="midnightblue" points="197.421,-227.222 206.352,-221.521 195.816,-220.408 197.421,-227.222"/>
</g>
<!-- Node11 -->
<g id="node21" class="node"><title>Node11</title>
<a xlink:href="classcv___species.html#a6e9c431d497e9df3ab4b9fe79029c368" target="_top" xlink:title="cv_Species::toString">
<polygon fill="white" stroke="black" points="203,-160.5 203,-181.5 317,-181.5 317,-160.5 203,-160.5"/>
<text text-anchor="middle" x="260" y="-168.5" font-family="DejaVuSans" font-size="10.00">cv_Species::toString</text>
</a>
</g>
<!-- Node1&#45;&gt;Node11 -->
<g id="edge20" class="edge"><title>Node1&#45;&gt;Node11</title>
<path fill="none" stroke="midnightblue" d="M77.3432,-260.346C94.7847,-243.031 131.888,-208.92 170,-191 177.208,-187.611 185.015,-184.783 192.916,-182.427"/>
<polygon fill="midnightblue" stroke="midnightblue" points="193.847,-185.801 202.565,-179.782 191.995,-179.051 193.847,-185.801"/>
</g>
<!-- Node12 -->
<g id="node23" class="node"><title>Node12</title>
<a xlink:href="classcv___identity.html#a904c4574f12e1c2eb8ec29a5b2974e0f" target="_top" xlink:title="cv_Identity::toXmlString">
<polygon fill="white" stroke="black" points="195.5,-120.5 195.5,-141.5 324.5,-141.5 324.5,-120.5 195.5,-120.5"/>
<text text-anchor="middle" x="260" y="-128.5" font-family="DejaVuSans" font-size="10.00">cv_Identity::toXmlString</text>
</a>
</g>
<!-- Node1&#45;&gt;Node12 -->
<g id="edge22" class="edge"><title>Node1&#45;&gt;Node12</title>
<path fill="none" stroke="midnightblue" d="M72.8691,-260.339C86.5297,-236.595 122.905,-179.235 170,-151 174.805,-148.119 179.978,-145.653 185.329,-143.54"/>
<polygon fill="midnightblue" stroke="midnightblue" points="186.835,-146.721 195.112,-140.108 184.517,-140.116 186.835,-146.721"/>
</g>
<!-- Node13 -->
<g id="node25" class="node"><title>Node13</title>
<a xlink:href="class_config.html#a77bc8861add4e417c0c5987eed2359cb" target="_top" xlink:title="Config::version">
<polygon fill="white" stroke="black" points="216.5,-80.5 216.5,-101.5 303.5,-101.5 303.5,-80.5 216.5,-80.5"/>
<text text-anchor="middle" x="260" y="-88.5" font-family="DejaVuSans" font-size="10.00">Config::version</text>
</a>
</g>
<!-- Node1&#45;&gt;Node13 -->
<g id="edge24" class="edge"><title>Node1&#45;&gt;Node13</title>
<path fill="none" stroke="midnightblue" d="M70.56,-260.379C80.8648,-231.36 113.629,-150.294 170,-111 180.672,-103.561 193.639,-98.8297 206.368,-95.8364"/>
<polygon fill="midnightblue" stroke="midnightblue" points="207.37,-99.2046 216.477,-93.7901 205.981,-92.3438 207.37,-99.2046"/>
</g>
<!-- Node14 -->
<g id="node27" class="node"><title>Node14</title>
<a xlink:href="class_storage_character.html#a20ff5ed1b72c4438fcf739b357b44ef8" target="_top" xlink:title="StorageCharacter::vice">
<polygon fill="white" stroke="black" points="196.5,-40.5 196.5,-61.5 323.5,-61.5 323.5,-40.5 196.5,-40.5"/>
<text text-anchor="middle" x="260" y="-48.5" font-family="DejaVuSans" font-size="10.00">StorageCharacter::vice</text>
</a>
</g>
<!-- Node1&#45;&gt;Node14 -->
<g id="edge26" class="edge"><title>Node1&#45;&gt;Node14</title>
<path fill="none" stroke="midnightblue" d="M69.1661,-260.268C76.5657,-226.522 104.125,-121.804 170,-71 175.074,-67.087 180.762,-63.9087 186.747,-61.331"/>
<polygon fill="midnightblue" stroke="midnightblue" points="188.202,-64.5242 196.353,-57.7555 185.76,-57.9639 188.202,-64.5242"/>
</g>
<!-- Node15 -->
<g id="node29" class="node"><title>Node15</title>
<a xlink:href="class_storage_character.html#a0012a37875e6dc6e093cf50f25c16de3" target="_top" xlink:title="StorageCharacter::virtue">
<polygon fill="white" stroke="black" points="192.5,-0.5 192.5,-21.5 327.5,-21.5 327.5,-0.5 192.5,-0.5"/>
<text text-anchor="middle" x="260" y="-8.5" font-family="DejaVuSans" font-size="10.00">StorageCharacter::virtue</text>
</a>
</g>
<!-- Node1&#45;&gt;Node15 -->
<g id="edge28" class="edge"><title>Node1&#45;&gt;Node15</title>
<path fill="none" stroke="midnightblue" d="M68.1685,-260.358C72.9103,-222.575 94.2435,-93.7842 170,-31 173.98,-27.7013 178.389,-24.9166 183.054,-22.5688"/>
<polygon fill="midnightblue" stroke="midnightblue" points="184.507,-25.7535 192.297,-18.5718 181.729,-19.3285 184.507,-25.7535"/>
</g>
</g>
</svg>
