<?xml version="1.0" encoding="UTF-8" standalone="no"?>
<!DOCTYPE svg PUBLIC "-//W3C//DTD SVG 1.1//EN"
 "http://www.w3.org/Graphics/SVG/1.1/DTD/svg11.dtd">
<!-- Generated by graphviz version 2.26.3 (20100126.1600)
 -->
<!-- Title: G Pages: 1 -->
<svg width="498pt" height="228pt"
 viewBox="0.00 0.00 498.00 228.00" xmlns="http://www.w3.org/2000/svg" xmlns:xlink="http://www.w3.org/1999/xlink">
<g id="graph1" class="graph" transform="scale(1 1) rotate(0) translate(4 224)">
<title>G</title>
<polygon fill="white" stroke="white" points="-4,5 -4,-224 495,-224 495,5 -4,5"/>
<!-- Node1 -->
<g id="node1" class="node"><title>Node1</title>
<polygon fill="#bfbfbf" stroke="black" points="0.5,-98.5 0.5,-119.5 119.5,-119.5 119.5,-98.5 0.5,-98.5"/>
<text text-anchor="middle" x="60" y="-106.5" font-family="DejaVuSans" font-size="10.00">CharaTrait::CharaTrait</text>
</g>
<!-- Node2 -->
<g id="node3" class="node"><title>Node2</title>
<a xlink:href="class_storage_character.html#a50022b948be1e566d902d64095c4470b" target="_top" xlink:title="StorageCharacter::getInstance">
<polygon fill="white" stroke="black" points="156,-198.5 156,-219.5 320,-219.5 320,-198.5 156,-198.5"/>
<text text-anchor="middle" x="238" y="-206.5" font-family="DejaVuSans" font-size="10.00">StorageCharacter::getInstance</text>
</a>
</g>
<!-- Node1&#45;&gt;Node2 -->
<g id="edge2" class="edge"><title>Node1&#45;&gt;Node2</title>
<path fill="none" stroke="midnightblue" d="M69.5257,-119.598C85.6171,-136.834 119.968,-170.833 156,-189 160.625,-191.332 165.535,-193.401 170.565,-195.235"/>
<polygon fill="midnightblue" stroke="midnightblue" points="169.746,-198.651 180.339,-198.481 171.952,-192.008 169.746,-198.651"/>
</g>
<!-- Node3 -->
<g id="node5" class="node"><title>Node3</title>
<a xlink:href="class_chara_trait.html#ad3abff76332080dfd9e487287537b8a2" target="_top" xlink:title="CharaTrait::setCategory">
<polygon fill="white" stroke="black" points="173.5,-158.5 173.5,-179.5 302.5,-179.5 302.5,-158.5 173.5,-158.5"/>
<text text-anchor="middle" x="238" y="-166.5" font-family="DejaVuSans" font-size="10.00">CharaTrait::setCategory</text>
</a>
</g>
<!-- Node1&#45;&gt;Node3 -->
<g id="edge4" class="edge"><title>Node1&#45;&gt;Node3</title>
<path fill="none" stroke="midnightblue" d="M82.5108,-119.552C101.73,-128.276 130.266,-140.557 156,-149 163.622,-151.501 171.734,-153.846 179.777,-155.989"/>
<polygon fill="midnightblue" stroke="midnightblue" points="178.96,-159.393 189.517,-158.499 180.707,-152.614 178.96,-159.393"/>
</g>
<!-- Node5 -->
<g id="node9" class="node"><title>Node5</title>
<a xlink:href="class_chara_trait.html#a2b019cd655e56e8113ecfcf6913681cc" target="_top" xlink:title="CharaTrait::setType">
<polygon fill="white" stroke="black" points="184.5,-118.5 184.5,-139.5 291.5,-139.5 291.5,-118.5 184.5,-118.5"/>
<text text-anchor="middle" x="238" y="-126.5" font-family="DejaVuSans" font-size="10.00">CharaTrait::setType</text>
</a>
</g>
<!-- Node1&#45;&gt;Node5 -->
<g id="edge8" class="edge"><title>Node1&#45;&gt;Node5</title>
<path fill="none" stroke="midnightblue" d="M119.767,-115.715C137.243,-117.679 156.412,-119.833 174.132,-121.824"/>
<polygon fill="midnightblue" stroke="midnightblue" points="174.046,-125.336 184.374,-122.975 174.828,-118.38 174.046,-125.336"/>
</g>
<!-- Node7 -->
<g id="node13" class="node"><title>Node7</title>
<a xlink:href="class_chara_trait.html#adcc81878a987cc9867bd6198a37a372e" target="_top" xlink:title="CharaTrait::typeChanged">
<polygon fill="white" stroke="black" points="356,-78.5 356,-99.5 490,-99.5 490,-78.5 356,-78.5"/>
<text text-anchor="middle" x="423" y="-86.5" font-family="DejaVuSans" font-size="10.00">CharaTrait::typeChanged</text>
</a>
</g>
<!-- Node1&#45;&gt;Node7 -->
<g id="edge16" class="edge"><title>Node1&#45;&gt;Node7</title>
<path fill="none" stroke="midnightblue" d="M119.536,-105.72C181.235,-102.32 277.932,-96.9927 345.544,-93.2676"/>
<polygon fill="midnightblue" stroke="midnightblue" points="345.926,-96.7519 355.718,-92.707 345.54,-89.7625 345.926,-96.7519"/>
</g>
<!-- Node8 -->
<g id="node15" class="node"><title>Node8</title>
<a xlink:href="class_chara_trait.html#ae6604555d60fe78d7473942e3502060b" target="_top" xlink:title="CharaTrait::specialtiesClicked">
<polygon fill="white" stroke="black" points="160.5,-40.5 160.5,-61.5 315.5,-61.5 315.5,-40.5 160.5,-40.5"/>
<text text-anchor="middle" x="238" y="-48.5" font-family="DejaVuSans" font-size="10.00">CharaTrait::specialtiesClicked</text>
</a>
</g>
<!-- Node1&#45;&gt;Node8 -->
<g id="edge14" class="edge"><title>Node1&#45;&gt;Node8</title>
<path fill="none" stroke="midnightblue" d="M89.747,-98.4726C108.662,-91.8536 133.703,-83.2288 156,-76 167.835,-72.1631 180.684,-68.1663 192.623,-64.5232"/>
<polygon fill="midnightblue" stroke="midnightblue" points="193.843,-67.8106 202.396,-61.5574 191.81,-61.1123 193.843,-67.8106"/>
</g>
<!-- Node9 -->
<g id="node18" class="node"><title>Node9</title>
<a xlink:href="class_chara_trait.html#a11fd0e3c489d77a3a2c045de95e54662" target="_top" xlink:title="CharaTrait::valueChanged">
<polygon fill="white" stroke="black" points="168.5,-0.5 168.5,-21.5 307.5,-21.5 307.5,-0.5 168.5,-0.5"/>
<text text-anchor="middle" x="238" y="-8.5" font-family="DejaVuSans" font-size="10.00">CharaTrait::valueChanged</text>
</a>
</g>
<!-- Node1&#45;&gt;Node9 -->
<g id="edge18" class="edge"><title>Node1&#45;&gt;Node9</title>
<path fill="none" stroke="midnightblue" d="M69.8454,-98.4051C86.1274,-81.5325 120.415,-48.6647 156,-31 160.639,-28.6972 165.56,-26.649 170.597,-24.829"/>
<polygon fill="midnightblue" stroke="midnightblue" points="171.98,-28.0583 180.382,-21.6035 169.789,-21.4102 171.98,-28.0583"/>
</g>
<!-- Node4 -->
<g id="node7" class="node"><title>Node4</title>
<a xlink:href="class_chara_trait.html#a1fe9b2316d8daebdf80ddad832ef818a" target="_top" xlink:title="CharaTrait::category">
<polygon fill="white" stroke="black" points="366.5,-158.5 366.5,-179.5 479.5,-179.5 479.5,-158.5 366.5,-158.5"/>
<text text-anchor="middle" x="423" y="-166.5" font-family="DejaVuSans" font-size="10.00">CharaTrait::category</text>
</a>
</g>
<!-- Node3&#45;&gt;Node4 -->
<g id="edge6" class="edge"><title>Node3&#45;&gt;Node4</title>
<path fill="none" stroke="midnightblue" d="M302.704,-169C320.037,-169 338.806,-169 356.248,-169"/>
<polygon fill="midnightblue" stroke="midnightblue" points="356.343,-172.5 366.343,-169 356.343,-165.5 356.343,-172.5"/>
</g>
<!-- Node6 -->
<g id="node11" class="node"><title>Node6</title>
<a xlink:href="class_chara_trait.html#a0eee9e5210d8c2b458db352c8d0d5bb4" target="_top" xlink:title="CharaTrait::type">
<polygon fill="white" stroke="black" points="377,-118.5 377,-139.5 469,-139.5 469,-118.5 377,-118.5"/>
<text text-anchor="middle" x="423" y="-126.5" font-family="DejaVuSans" font-size="10.00">CharaTrait::type</text>
</a>
</g>
<!-- Node5&#45;&gt;Node6 -->
<g id="edge10" class="edge"><title>Node5&#45;&gt;Node6</title>
<path fill="none" stroke="midnightblue" d="M291.51,-129C315.028,-129 342.662,-129 366.512,-129"/>
<polygon fill="midnightblue" stroke="midnightblue" points="366.826,-132.5 376.826,-129 366.826,-125.5 366.826,-132.5"/>
</g>
<!-- Node5&#45;&gt;Node7 -->
<g id="edge12" class="edge"><title>Node5&#45;&gt;Node7</title>
<path fill="none" stroke="midnightblue" d="M286.607,-118.49C310.412,-113.343 339.266,-107.105 364.294,-101.693"/>
<polygon fill="midnightblue" stroke="midnightblue" points="365.363,-105.043 374.397,-99.5087 363.883,-98.2012 365.363,-105.043"/>
</g>
</g>
</svg>
