<?xml version="1.0" encoding="UTF-8" standalone="no"?>
<!DOCTYPE svg PUBLIC "-//W3C//DTD SVG 1.1//EN"
 "http://www.w3.org/Graphics/SVG/1.1/DTD/svg11.dtd">
<!-- Generated by graphviz version 2.26.3 (20100126.1600)
 -->
<!-- Title: G Pages: 1 -->
<svg width="864pt" height="467pt"
 viewBox="0.00 0.00 864.00 467.43" xmlns="http://www.w3.org/2000/svg" xmlns:xlink="http://www.w3.org/1999/xlink">
<g id="graph1" class="graph" transform="scale(1 1) rotate(0) translate(4 463.426)">
<title>G</title>
<polygon fill="white" stroke="white" points="-4,5 -4,-463.426 861,-463.426 861,5 -4,5"/>
<!-- Node1 -->
<g id="node1" class="node"><title>Node1</title>
<polygon fill="#bfbfbf" stroke="black" points="0,-197.5 0,-218.5 104,-218.5 104,-197.5 0,-197.5"/>
<text text-anchor="middle" x="52" y="-205.5" font-family="DejaVuSans" font-size="10.00">CharaTrait::traitPtr</text>
</g>
<!-- Node2 -->
<g id="node3" class="node"><title>Node2</title>
<a xlink:href="class_chara_trait.html#acfe4795a41019f6c92e85e82c0a6ab1a" target="_top" xlink:title="CharaTrait::CharaTrait">
<polygon fill="white" stroke="black" points="736.5,-274.5 736.5,-295.5 855.5,-295.5 855.5,-274.5 736.5,-274.5"/>
<text text-anchor="middle" x="796" y="-282.5" font-family="DejaVuSans" font-size="10.00">CharaTrait::CharaTrait</text>
</a>
</g>
<!-- Node1&#45;&gt;Node2 -->
<g id="edge2" class="edge"><title>Node1&#45;&gt;Node2</title>
<path fill="none" stroke="midnightblue" d="M56.0772,-228.575C64.5244,-265.102 87.6954,-340.566 140,-374 349.712,-508.051 470.023,-465.181 700,-370 739.286,-353.74 773.389,-314.427 788.174,-295.512"/>
<polygon fill="midnightblue" stroke="midnightblue" points="59.4498,-227.612 53.9124,-218.58 52.6084,-229.094 59.4498,-227.612"/>
</g>
<!-- Node3 -->
<g id="node5" class="node"><title>Node3</title>
<a xlink:href="class_chara_trait.html#a7cc9b10030c5e6d5030fb898506ee070" target="_top" xlink:title="CharaTrait::customText">
<polygon fill="white" stroke="black" points="142.5,-314.5 142.5,-335.5 267.5,-335.5 267.5,-314.5 142.5,-314.5"/>
<text text-anchor="middle" x="205" y="-322.5" font-family="DejaVuSans" font-size="10.00">CharaTrait::customText</text>
</a>
</g>
<!-- Node1&#45;&gt;Node3 -->
<g id="edge4" class="edge"><title>Node1&#45;&gt;Node3</title>
<path fill="none" stroke="midnightblue" d="M65.7993,-226.76C81.6904,-247.213 109.55,-279.727 140,-300 148.856,-305.896 159.305,-310.693 169.204,-314.45"/>
<polygon fill="midnightblue" stroke="midnightblue" points="68.3983,-224.395 59.5611,-218.551 62.8249,-228.631 68.3983,-224.395"/>
</g>
<!-- Node4 -->
<g id="node7" class="node"><title>Node4</title>
<a xlink:href="class_chara_trait.html#ace22816278072df97eb782603153600b" target="_top" xlink:title="CharaTrait::setCustomText">
<polygon fill="white" stroke="black" points="324,-352.5 324,-373.5 466,-373.5 466,-352.5 324,-352.5"/>
<text text-anchor="middle" x="395" y="-360.5" font-family="DejaVuSans" font-size="10.00">CharaTrait::setCustomText</text>
</a>
</g>
<!-- Node1&#45;&gt;Node4 -->
<g id="edge22" class="edge"><title>Node1&#45;&gt;Node4</title>
<path fill="none" stroke="midnightblue" d="M58.4618,-228.437C69.5464,-259.704 95.4085,-318.564 140,-345 198.123,-379.459 277.305,-379.297 331.939,-373.506"/>
<polygon fill="midnightblue" stroke="midnightblue" points="61.6649,-226.982 55.1509,-218.627 55.0324,-229.221 61.6649,-226.982"/>
</g>
<!-- Node5 -->
<g id="node10" class="node"><title>Node5</title>
<a xlink:href="class_chara_trait.html#a0a5adca1cfd4732d6c4f64299e6d6fd3" target="_top" xlink:title="CharaTrait::updateWidget">
<polygon fill="white" stroke="black" points="541.5,-313.5 541.5,-334.5 678.5,-334.5 678.5,-313.5 541.5,-313.5"/>
<text text-anchor="middle" x="610" y="-321.5" font-family="DejaVuSans" font-size="10.00">CharaTrait::updateWidget</text>
</a>
</g>
<!-- Node1&#45;&gt;Node5 -->
<g id="edge46" class="edge"><title>Node1&#45;&gt;Node5</title>
<path fill="none" stroke="midnightblue" d="M71.7963,-225.297C88.7045,-239.03 114.304,-257.455 140,-267 211.947,-293.724 429.039,-311.791 541.225,-319.61"/>
<polygon fill="midnightblue" stroke="midnightblue" points="73.7119,-222.337 63.7921,-218.616 69.2261,-227.711 73.7119,-222.337"/>
</g>
<!-- Node6 -->
<g id="node13" class="node"><title>Node6</title>
<a xlink:href="class_chara_trait.html#ab04ba68cad00668e6379a9e3fb1e5d8a" target="_top" xlink:title="CharaTrait::emitSpecialtiesClicked">
<polygon fill="white" stroke="black" points="306,-116.5 306,-137.5 484,-137.5 484,-116.5 306,-116.5"/>
<text text-anchor="middle" x="395" y="-124.5" font-family="DejaVuSans" font-size="10.00">CharaTrait::emitSpecialtiesClicked</text>
</a>
</g>
<!-- Node1&#45;&gt;Node6 -->
<g id="edge14" class="edge"><title>Node1&#45;&gt;Node6</title>
<path fill="none" stroke="midnightblue" d="M106.506,-195.128C174.007,-179.188 287.712,-152.336 350.317,-137.552"/>
<polygon fill="midnightblue" stroke="midnightblue" points="105.418,-191.789 96.4896,-197.494 107.026,-198.602 105.418,-191.789"/>
</g>
<!-- Node7 -->
<g id="node16" class="node"><title>Node7</title>
<a xlink:href="class_chara_trait.html#ad3abff76332080dfd9e487287537b8a2" target="_top" xlink:title="CharaTrait::setCategory">
<polygon fill="white" stroke="black" points="140.5,-120.5 140.5,-141.5 269.5,-141.5 269.5,-120.5 140.5,-120.5"/>
<text text-anchor="middle" x="205" y="-128.5" font-family="DejaVuSans" font-size="10.00">CharaTrait::setCategory</text>
</a>
</g>
<!-- Node1&#45;&gt;Node7 -->
<g id="edge18" class="edge"><title>Node1&#45;&gt;Node7</title>
<path fill="none" stroke="midnightblue" d="M76.9786,-191.725C94.2661,-180.842 118.028,-166.625 140,-156 150.993,-150.684 163.43,-145.671 174.46,-141.55"/>
<polygon fill="midnightblue" stroke="midnightblue" points="74.6475,-189.06 68.093,-197.384 78.4078,-194.964 74.6475,-189.06"/>
</g>
<!-- Node8 -->
<g id="node18" class="node"><title>Node8</title>
<a xlink:href="class_chara_trait.html#a620d140e562c4102205d2c2a44af5622" target="_top" xlink:title="CharaTrait::setCustom">
<polygon fill="white" stroke="black" points="143.5,-80.5 143.5,-101.5 266.5,-101.5 266.5,-80.5 143.5,-80.5"/>
<text text-anchor="middle" x="205" y="-88.5" font-family="DejaVuSans" font-size="10.00">CharaTrait::setCustom</text>
</a>
</g>
<!-- Node1&#45;&gt;Node8 -->
<g id="edge20" class="edge"><title>Node1&#45;&gt;Node8</title>
<path fill="none" stroke="midnightblue" d="M64.6186,-188.759C79.9385,-166.863 107.763,-131.493 140,-111 145.978,-107.2 152.725,-104.082 159.551,-101.536"/>
<polygon fill="midnightblue" stroke="midnightblue" points="61.5814,-187.001 58.842,-197.235 67.3659,-190.943 61.5814,-187.001"/>
</g>
<!-- Node9 -->
<g id="node21" class="node"><title>Node9</title>
<a xlink:href="class_chara_trait.html#a340feb7c80cc516245c80d1ff03a8aec" target="_top" xlink:title="CharaTrait::setSpecies">
<polygon fill="white" stroke="black" points="143.5,-40.5 143.5,-61.5 266.5,-61.5 266.5,-40.5 143.5,-40.5"/>
<text text-anchor="middle" x="205" y="-48.5" font-family="DejaVuSans" font-size="10.00">CharaTrait::setSpecies</text>
</a>
</g>
<!-- Node1&#45;&gt;Node9 -->
<g id="edge24" class="edge"><title>Node1&#45;&gt;Node9</title>
<path fill="none" stroke="midnightblue" d="M59.618,-187.87C71.9508,-157.972 99.1085,-102.032 140,-71 145.079,-67.1458 150.907,-64.0276 156.943,-61.5066"/>
<polygon fill="midnightblue" stroke="midnightblue" points="56.3206,-186.69 55.8758,-197.276 62.8247,-189.278 56.3206,-186.69"/>
</g>
<!-- Node10 -->
<g id="node23" class="node"><title>Node10</title>
<a xlink:href="class_chara_trait.html#a2b019cd655e56e8113ecfcf6913681cc" target="_top" xlink:title="CharaTrait::setType">
<polygon fill="white" stroke="black" points="151.5,-0.5 151.5,-21.5 258.5,-21.5 258.5,-0.5 151.5,-0.5"/>
<text text-anchor="middle" x="205" y="-8.5" font-family="DejaVuSans" font-size="10.00">CharaTrait::setType</text>
</a>
</g>
<!-- Node1&#45;&gt;Node10 -->
<g id="edge26" class="edge"><title>Node1&#45;&gt;Node10</title>
<path fill="none" stroke="midnightblue" d="M56.5747,-187.369C65.8172,-150.513 90.2145,-73.2714 140,-31 144.5,-27.1791 149.722,-24.0878 155.212,-21.5868"/>
<polygon fill="midnightblue" stroke="midnightblue" points="53.0914,-186.889 54.1816,-197.427 59.9013,-188.509 53.0914,-186.889"/>
</g>
<!-- Node11 -->
<g id="node25" class="node"><title>Node11</title>
<a xlink:href="class_chara_trait.html#abcfeed4a455c49246385c9bc2024ba15" target="_top" xlink:title="CharaTrait::setValue">
<polygon fill="white" stroke="black" points="339,-197.5 339,-218.5 451,-218.5 451,-197.5 339,-197.5"/>
<text text-anchor="middle" x="395" y="-205.5" font-family="DejaVuSans" font-size="10.00">CharaTrait::setValue</text>
</a>
</g>
<!-- Node1&#45;&gt;Node11 -->
<g id="edge28" class="edge"><title>Node1&#45;&gt;Node11</title>
<path fill="none" stroke="midnightblue" d="M114.463,-208C178.554,-208 277.358,-208 338.99,-208"/>
<polygon fill="midnightblue" stroke="midnightblue" points="114.094,-204.5 104.094,-208 114.094,-211.5 114.094,-204.5"/>
</g>
<!-- Node16 -->
<g id="node40" class="node"><title>Node16</title>
<a xlink:href="class_chara_trait.html#adeed572acc2fa97468285bc3267e9cb8" target="_top" xlink:title="CharaTrait::value">
<polygon fill="white" stroke="black" points="157,-236.5 157,-257.5 253,-257.5 253,-236.5 157,-236.5"/>
<text text-anchor="middle" x="205" y="-244.5" font-family="DejaVuSans" font-size="10.00">CharaTrait::value</text>
</a>
</g>
<!-- Node1&#45;&gt;Node16 -->
<g id="edge48" class="edge"><title>Node1&#45;&gt;Node16</title>
<path fill="none" stroke="midnightblue" d="M103.118,-221.03C122.766,-226.038 144.934,-231.689 163.563,-236.438"/>
<polygon fill="midnightblue" stroke="midnightblue" points="103.959,-217.633 93.404,-218.554 102.23,-224.416 103.959,-217.633"/>
</g>
<!-- Node3&#45;&gt;Node4 -->
<g id="edge6" class="edge"><title>Node3&#45;&gt;Node4</title>
<path fill="none" stroke="midnightblue" d="M267.792,-337.558C291.901,-342.38 319.149,-347.83 342.224,-352.445"/>
<polygon fill="midnightblue" stroke="midnightblue" points="268.166,-334.064 257.673,-335.535 266.793,-340.928 268.166,-334.064"/>
</g>
<!-- Node3&#45;&gt;Node5 -->
<g id="edge10" class="edge"><title>Node3&#45;&gt;Node5</title>
<path fill="none" stroke="midnightblue" d="M278.109,-324.819C352.869,-324.635 468.115,-324.35 541.252,-324.17"/>
<polygon fill="midnightblue" stroke="midnightblue" points="277.828,-321.32 267.837,-324.845 277.846,-328.32 277.828,-321.32"/>
</g>
<!-- Node4&#45;&gt;Node2 -->
<g id="edge8" class="edge"><title>Node4&#45;&gt;Node2</title>
<path fill="none" stroke="midnightblue" d="M476.329,-368.49C538.923,-370.22 626.815,-367.173 700,-344 732.824,-333.607 765.89,-309.618 783.351,-295.639"/>
<polygon fill="midnightblue" stroke="midnightblue" points="476.226,-364.985 466.117,-368.159 475.999,-371.981 476.226,-364.985"/>
</g>
<!-- Node5&#45;&gt;Node2 -->
<g id="edge12" class="edge"><title>Node5&#45;&gt;Node2</title>
<path fill="none" stroke="midnightblue" d="M670.187,-311.38C694.55,-306.272 722.359,-300.441 745.625,-295.562"/>
<polygon fill="midnightblue" stroke="midnightblue" points="669.403,-307.968 660.334,-313.446 670.84,-314.819 669.403,-307.968"/>
</g>
<!-- Node6&#45;&gt;Node2 -->
<g id="edge16" class="edge"><title>Node6&#45;&gt;Node2</title>
<path fill="none" stroke="midnightblue" d="M429.07,-112.845C488.727,-90.4751 613.93,-54.4936 700,-106 764.15,-144.389 787.887,-241.953 794.152,-274.356"/>
<polygon fill="midnightblue" stroke="midnightblue" points="427.81,-109.58 419.734,-116.437 430.324,-116.113 427.81,-109.58"/>
</g>
<!-- Node11&#45;&gt;Node2 -->
<g id="edge32" class="edge"><title>Node11&#45;&gt;Node2</title>
<path fill="none" stroke="midnightblue" d="M458.106,-221.723C467.073,-224.807 475.967,-228.529 484,-233 502.965,-243.556 500.054,-257.441 520,-266 589.738,-295.925 678.527,-296.149 736.287,-291.935"/>
<polygon fill="midnightblue" stroke="midnightblue" points="458.974,-218.326 448.383,-218.621 456.847,-224.995 458.974,-218.326"/>
</g>
<!-- Node11&#45;&gt;Node5 -->
<g id="edge44" class="edge"><title>Node11&#45;&gt;Node5</title>
<path fill="none" stroke="midnightblue" d="M460.904,-219.955C469.198,-223.289 477.159,-227.551 484,-233 510.135,-253.818 493.835,-278.219 520,-299 527.873,-305.253 537.212,-309.944 546.844,-313.462"/>
<polygon fill="midnightblue" stroke="midnightblue" points="462.034,-216.643 451.44,-216.573 459.678,-223.234 462.034,-216.643"/>
</g>
<!-- Node12 -->
<g id="node27" class="node"><title>Node12</title>
<a xlink:href="class_attribute_widget.html#ab498116d47f94a62e3b82eaa79976b36" target="_top" xlink:title="AttributeWidget::AttributeWidget">
<polygon fill="white" stroke="black" points="524.5,-155.5 524.5,-176.5 695.5,-176.5 695.5,-155.5 524.5,-155.5"/>
<text text-anchor="middle" x="610" y="-163.5" font-family="DejaVuSans" font-size="10.00">AttributeWidget::AttributeWidget</text>
</a>
</g>
<!-- Node11&#45;&gt;Node12 -->
<g id="edge30" class="edge"><title>Node11&#45;&gt;Node12</title>
<path fill="none" stroke="midnightblue" d="M458.798,-195.537C489.729,-189.495 526.479,-182.316 556.002,-176.548"/>
<polygon fill="midnightblue" stroke="midnightblue" points="458.119,-192.103 448.976,-197.456 459.462,-198.974 458.119,-192.103"/>
</g>
<!-- Node13 -->
<g id="node30" class="node"><title>Node13</title>
<a xlink:href="class_chara_trait.html#ab02b27973fec9c68cee320dd61e5c618" target="_top" xlink:title="CharaTrait::checkTraitPrerequisites">
<polygon fill="white" stroke="black" points="520,-235.5 520,-256.5 700,-256.5 700,-235.5 520,-235.5"/>
<text text-anchor="middle" x="610" y="-243.5" font-family="DejaVuSans" font-size="10.00">CharaTrait::checkTraitPrerequisites</text>
</a>
</g>
<!-- Node11&#45;&gt;Node13 -->
<g id="edge34" class="edge"><title>Node11&#45;&gt;Node13</title>
<path fill="none" stroke="midnightblue" d="M461.076,-219.679C489.562,-224.713 522.63,-230.558 550.359,-235.459"/>
<polygon fill="midnightblue" stroke="midnightblue" points="461.664,-216.228 451.208,-217.934 460.446,-223.122 461.664,-216.228"/>
</g>
<!-- Node14 -->
<g id="node33" class="node"><title>Node14</title>
<a xlink:href="class_chara_trait.html#a8b30fcf229fb59f96c3926a59269194e" target="_top" xlink:title="CharaTrait::hideTraitIfNotAvailable">
<polygon fill="white" stroke="black" points="522.5,-195.5 522.5,-216.5 697.5,-216.5 697.5,-195.5 522.5,-195.5"/>
<text text-anchor="middle" x="610" y="-203.5" font-family="DejaVuSans" font-size="10.00">CharaTrait::hideTraitIfNotAvailable</text>
</a>
</g>
<!-- Node11&#45;&gt;Node14 -->
<g id="edge38" class="edge"><title>Node11&#45;&gt;Node14</title>
<path fill="none" stroke="midnightblue" d="M461.396,-207.382C480.7,-207.203 502.086,-207.004 522.478,-206.814"/>
<polygon fill="midnightblue" stroke="midnightblue" points="461.175,-203.884 451.208,-207.477 461.24,-210.884 461.175,-203.884"/>
</g>
<!-- Node15 -->
<g id="node36" class="node"><title>Node15</title>
<a xlink:href="class_merit_widget.html#a3f99dd98cf0c027d9e5a65a6a82d88c8" target="_top" xlink:title="MeritWidget::MeritWidget">
<polygon fill="white" stroke="black" points="542.5,-115.5 542.5,-136.5 677.5,-136.5 677.5,-115.5 542.5,-115.5"/>
<text text-anchor="middle" x="610" y="-123.5" font-family="DejaVuSans" font-size="10.00">MeritWidget::MeritWidget</text>
</a>
</g>
<!-- Node11&#45;&gt;Node15 -->
<g id="edge42" class="edge"><title>Node11&#45;&gt;Node15</title>
<path fill="none" stroke="midnightblue" d="M421.827,-192.311C446.592,-178.413 484.759,-158.449 520,-146 530.414,-142.322 541.752,-139.173 552.76,-136.536"/>
<polygon fill="midnightblue" stroke="midnightblue" points="419.991,-189.329 413.026,-197.313 423.449,-195.415 419.991,-189.329"/>
</g>
<!-- Node13&#45;&gt;Node2 -->
<g id="edge36" class="edge"><title>Node13&#45;&gt;Node2</title>
<path fill="none" stroke="midnightblue" d="M670.187,-258.62C694.55,-263.728 722.359,-269.559 745.625,-274.438"/>
<polygon fill="midnightblue" stroke="midnightblue" points="670.84,-255.181 660.334,-256.554 669.403,-262.032 670.84,-255.181"/>
</g>
<!-- Node14&#45;&gt;Node2 -->
<g id="edge40" class="edge"><title>Node14&#45;&gt;Node2</title>
<path fill="none" stroke="midnightblue" d="M680.308,-219.224C687.057,-221.207 693.721,-223.456 700,-226 731.368,-238.706 764.181,-261.183 782.162,-274.423"/>
<polygon fill="midnightblue" stroke="midnightblue" points="680.964,-215.775 670.394,-216.507 679.114,-222.526 680.964,-215.775"/>
</g>
<!-- Node16&#45;&gt;Node5 -->
<g id="edge52" class="edge"><title>Node16&#45;&gt;Node5</title>
<path fill="none" stroke="midnightblue" d="M263.488,-244.926C320.968,-244.571 410.504,-248.561 484,-272 501.648,-277.628 503.162,-285.28 520,-293 537.426,-300.99 557.538,-308.104 574.325,-313.495"/>
<polygon fill="midnightblue" stroke="midnightblue" points="263.101,-241.43 253.14,-245.039 263.177,-248.43 263.101,-241.43"/>
</g>
<!-- Node16&#45;&gt;Node11 -->
<g id="edge50" class="edge"><title>Node16&#45;&gt;Node11</title>
<path fill="none" stroke="midnightblue" d="M263.404,-235.012C289.044,-229.749 318.883,-223.624 343.659,-218.539"/>
<polygon fill="midnightblue" stroke="midnightblue" points="262.529,-231.618 253.437,-237.058 263.936,-238.475 262.529,-231.618"/>
</g>
</g>
</svg>
