<?xml version="1.0" encoding="UTF-8" standalone="no"?>
<!DOCTYPE svg PUBLIC "-//W3C//DTD SVG 1.1//EN"
 "http://www.w3.org/Graphics/SVG/1.1/DTD/svg11.dtd">
<!-- Generated by graphviz version 2.26.3 (20100126.1600)
 -->
<!-- Title: G Pages: 1 -->
<svg width="378pt" height="70pt"
 viewBox="0.00 0.00 378.00 70.00" xmlns="http://www.w3.org/2000/svg" xmlns:xlink="http://www.w3.org/1999/xlink">
<g id="graph1" class="graph" transform="scale(1 1) rotate(0) translate(4 66)">
<title>G</title>
<polygon fill="white" stroke="white" points="-4,5 -4,-66 375,-66 375,5 -4,5"/>
<!-- Node1 -->
<g id="node1" class="node"><title>Node1</title>
<polygon fill="#bfbfbf" stroke="black" points="0,-20.5 0,-41.5 178,-41.5 178,-20.5 0,-20.5"/>
<text text-anchor="middle" x="89" y="-28.5" font-family="DejaVuSans" font-size="10.00">CharaTrait::emitSpecialtiesClicked</text>
</g>
<!-- Node2 -->
<g id="node3" class="node"><title>Node2</title>
<a xlink:href="class_chara_trait.html#ae6604555d60fe78d7473942e3502060b" target="_top" xlink:title="CharaTrait::specialtiesClicked">
<polygon fill="white" stroke="black" points="214.5,-40.5 214.5,-61.5 369.5,-61.5 369.5,-40.5 214.5,-40.5"/>
<text text-anchor="middle" x="292" y="-48.5" font-family="DejaVuSans" font-size="10.00">CharaTrait::specialtiesClicked</text>
</a>
</g>
<!-- Node1&#45;&gt;Node2 -->
<g id="edge2" class="edge"><title>Node1&#45;&gt;Node2</title>
<path fill="none" stroke="midnightblue" d="M178.039,-39.7723C186.768,-40.6323 195.621,-41.5046 204.336,-42.3632"/>
<polygon fill="midnightblue" stroke="midnightblue" points="204.192,-45.8659 214.487,-43.3633 204.879,-38.8996 204.192,-45.8659"/>
</g>
<!-- Node3 -->
<g id="node5" class="node"><title>Node3</title>
<a xlink:href="class_chara_trait.html#acd1abb86d271f401b9856f2c8e172255" target="_top" xlink:title="CharaTrait::traitPtr">
<polygon fill="white" stroke="black" points="240,-0.5 240,-21.5 344,-21.5 344,-0.5 240,-0.5"/>
<text text-anchor="middle" x="292" y="-8.5" font-family="DejaVuSans" font-size="10.00">CharaTrait::traitPtr</text>
</a>
</g>
<!-- Node1&#45;&gt;Node3 -->
<g id="edge4" class="edge"><title>Node1&#45;&gt;Node3</title>
<path fill="none" stroke="midnightblue" d="M178.039,-22.2277C195.506,-20.5068 213.474,-18.7366 229.83,-17.1252"/>
<polygon fill="midnightblue" stroke="midnightblue" points="230.178,-20.6079 239.786,-16.1442 229.491,-13.6416 230.178,-20.6079"/>
</g>
</g>
</svg>
