<?xml version="1.0" encoding="UTF-8" standalone="no"?>
<!DOCTYPE svg PUBLIC "-//W3C//DTD SVG 1.1//EN"
 "http://www.w3.org/Graphics/SVG/1.1/DTD/svg11.dtd">
<!-- Generated by graphviz version 2.26.3 (20100126.1600)
 -->
<!-- Title: G Pages: 1 -->
<svg width="386pt" height="110pt"
 viewBox="0.00 0.00 386.00 110.00" xmlns="http://www.w3.org/2000/svg" xmlns:xlink="http://www.w3.org/1999/xlink">
<g id="graph1" class="graph" transform="scale(1 1) rotate(0) translate(4 106)">
<title>G</title>
<polygon fill="white" stroke="white" points="-4,5 -4,-106 383,-106 383,5 -4,5"/>
<!-- Node1 -->
<g id="node1" class="node"><title>Node1</title>
<polygon fill="#bfbfbf" stroke="black" points="0,-40.5 0,-61.5 170,-61.5 170,-40.5 0,-40.5"/>
<text text-anchor="middle" x="85" y="-48.5" font-family="DejaVuSans" font-size="10.00">CheckedList::addCheckableItem</text>
</g>
<!-- Node2 -->
<g id="node3" class="node"><title>Node2</title>
<a xlink:href="class_trait_specialties.html#afbaa0fc4b3650313cd47de2c68038880" target="_top" xlink:title="TraitSpecialties::addSpecialty">
<polygon fill="white" stroke="black" points="214.5,-80.5 214.5,-101.5 369.5,-101.5 369.5,-80.5 214.5,-80.5"/>
<text text-anchor="middle" x="292" y="-88.5" font-family="DejaVuSans" font-size="10.00">TraitSpecialties::addSpecialty</text>
</a>
</g>
<!-- Node1&#45;&gt;Node2 -->
<g id="edge2" class="edge"><title>Node1&#45;&gt;Node2</title>
<path fill="none" stroke="midnightblue" d="M149.574,-63.4781C177.834,-68.939 210.627,-75.2757 237.617,-80.4913"/>
<polygon fill="midnightblue" stroke="midnightblue" points="149.869,-59.9704 139.387,-61.5095 148.541,-66.8433 149.869,-59.9704"/>
</g>
<!-- Node3 -->
<g id="node5" class="node"><title>Node3</title>
<a xlink:href="class_checked_list.html#aa59e928d0975a31bb928469acd71ba31" target="_top" xlink:title="CheckedList::setCheckableItems">
<polygon fill="white" stroke="black" points="206,-40.5 206,-61.5 378,-61.5 378,-40.5 206,-40.5"/>
<text text-anchor="middle" x="292" y="-48.5" font-family="DejaVuSans" font-size="10.00">CheckedList::setCheckableItems</text>
</a>
</g>
<!-- Node1&#45;&gt;Node3 -->
<g id="edge4" class="edge"><title>Node1&#45;&gt;Node3</title>
<path fill="none" stroke="midnightblue" d="M180.128,-51C188.721,-51 197.392,-51 205.901,-51"/>
<polygon fill="midnightblue" stroke="midnightblue" points="180.091,-47.5001 170.091,-51 180.091,-54.5001 180.091,-47.5001"/>
</g>
<!-- Node4 -->
<g id="node7" class="node"><title>Node4</title>
<a xlink:href="class_trait_specialties.html#ad205bb3458dca2d7884150682e4c343e" target="_top" xlink:title="TraitSpecialties::setSpecialties">
<polygon fill="white" stroke="black" points="211.5,-0.5 211.5,-21.5 372.5,-21.5 372.5,-0.5 211.5,-0.5"/>
<text text-anchor="middle" x="292" y="-8.5" font-family="DejaVuSans" font-size="10.00">TraitSpecialties::setSpecialties</text>
</a>
</g>
<!-- Node1&#45;&gt;Node4 -->
<g id="edge6" class="edge"><title>Node1&#45;&gt;Node4</title>
<path fill="none" stroke="midnightblue" d="M149.574,-38.5219C177.834,-33.061 210.627,-26.7243 237.617,-21.5087"/>
<polygon fill="midnightblue" stroke="midnightblue" points="148.541,-35.1567 139.387,-40.4905 149.869,-42.0296 148.541,-35.1567"/>
</g>
</g>
</svg>
