<?xml version="1.0" encoding="UTF-8" standalone="no"?>
<!DOCTYPE svg PUBLIC "-//W3C//DTD SVG 1.1//EN"
 "http://www.w3.org/Graphics/SVG/1.1/DTD/svg11.dtd">
<!-- Generated by graphviz version 2.26.3 (20100126.1600)
 -->
<!-- Title: G Pages: 1 -->
<svg width="542pt" height="267pt"
 viewBox="0.00 0.00 542.00 266.58" xmlns="http://www.w3.org/2000/svg" xmlns:xlink="http://www.w3.org/1999/xlink">
<g id="graph1" class="graph" transform="scale(1 1) rotate(0) translate(4 262.575)">
<title>G</title>
<polygon fill="white" stroke="white" points="-4,5 -4,-262.575 539,-262.575 539,5 -4,5"/>
<!-- Node1 -->
<g id="node1" class="node"><title>Node1</title>
<polygon fill="#bfbfbf" stroke="black" points="0.5,-117.075 0.5,-138.075 89.5,-138.075 89.5,-117.075 0.5,-117.075"/>
<text text-anchor="middle" x="45" y="-125.075" font-family="DejaVuSans" font-size="10.00">cv_Trait::details</text>
</g>
<!-- Node2 -->
<g id="node3" class="node"><title>Node2</title>
<a xlink:href="class_trait.html#ab6460ff9f5e4837d97c857cc06e0fa21" target="_top" xlink:title="Trait::addDetail">
<polygon fill="white" stroke="black" points="171,-237.075 171,-258.075 259,-258.075 259,-237.075 171,-237.075"/>
<text text-anchor="middle" x="215" y="-245.075" font-family="DejaVuSans" font-size="10.00">Trait::addDetail</text>
</a>
</g>
<!-- Node1&#45;&gt;Node2 -->
<g id="edge2" class="edge"><title>Node1&#45;&gt;Node2</title>
<path fill="none" stroke="midnightblue" d="M55.4149,-147.169C68.6733,-170.129 93.7775,-207.574 126,-227.575 139.321,-235.844 155.649,-240.708 170.666,-243.564"/>
<polygon fill="midnightblue" stroke="midnightblue" points="58.4003,-145.336 50.4718,-138.308 52.2873,-148.746 58.4003,-145.336"/>
</g>
<!-- Node3 -->
<g id="node5" class="node"><title>Node3</title>
<a xlink:href="class_trait.html#aa416615b30fcac6dbcfc064d7ad1d40b" target="_top" xlink:title="Trait::clearDetails">
<polygon fill="white" stroke="black" points="166,-197.075 166,-218.075 264,-218.075 264,-197.075 166,-197.075"/>
<text text-anchor="middle" x="215" y="-205.075" font-family="DejaVuSans" font-size="10.00">Trait::clearDetails</text>
</a>
</g>
<!-- Node1&#45;&gt;Node3 -->
<g id="edge4" class="edge"><title>Node1&#45;&gt;Node3</title>
<path fill="none" stroke="midnightblue" d="M63.8865,-145.173C79.4324,-158.719 102.639,-176.881 126,-187.575 138.384,-193.244 152.491,-197.361 165.767,-200.329"/>
<polygon fill="midnightblue" stroke="midnightblue" points="65.8734,-142.254 56.0856,-138.198 61.2077,-147.473 65.8734,-142.254"/>
</g>
<!-- Node4 -->
<g id="node7" class="node"><title>Node4</title>
<a xlink:href="class_chara_trait.html#ab04ba68cad00668e6379a9e3fb1e5d8a" target="_top" xlink:title="CharaTrait::emitSpecialtiesClicked">
<polygon fill="white" stroke="black" points="126,-157.075 126,-178.075 304,-178.075 304,-157.075 126,-157.075"/>
<text text-anchor="middle" x="215" y="-165.075" font-family="DejaVuSans" font-size="10.00">CharaTrait::emitSpecialtiesClicked</text>
</a>
</g>
<!-- Node1&#45;&gt;Node4 -->
<g id="edge6" class="edge"><title>Node1&#45;&gt;Node4</title>
<path fill="none" stroke="midnightblue" d="M96.902,-140.562C106.565,-142.931 116.583,-145.355 126,-147.575 139.41,-150.737 153.985,-154.06 167.383,-157.069"/>
<polygon fill="midnightblue" stroke="midnightblue" points="97.5468,-137.116 87,-138.123 95.8729,-143.913 97.5468,-137.116"/>
</g>
<!-- Node6 -->
<g id="node11" class="node"><title>Node6</title>
<a xlink:href="class_storage_character.html#aabaae6015f75abfc6411f5a388418a3b" target="_top" xlink:title="StorageCharacter::modifyTrait">
<polygon fill="white" stroke="black" points="135,-117.075 135,-138.075 295,-138.075 295,-117.075 135,-117.075"/>
<text text-anchor="middle" x="215" y="-125.075" font-family="DejaVuSans" font-size="10.00">StorageCharacter::modifyTrait</text>
</a>
</g>
<!-- Node1&#45;&gt;Node6 -->
<g id="edge10" class="edge"><title>Node1&#45;&gt;Node6</title>
<path fill="none" stroke="midnightblue" d="M99.6991,-127.575C110.901,-127.575 122.911,-127.575 134.795,-127.575"/>
<polygon fill="midnightblue" stroke="midnightblue" points="99.6655,-124.075 89.6655,-127.575 99.6655,-131.075 99.6655,-124.075"/>
</g>
<!-- Node7 -->
<g id="node13" class="node"><title>Node7</title>
<a xlink:href="class_trait.html#a8d2ca547e2dd3189858cbd8aa1c52efd" target="_top" xlink:title="Trait::setDetails">
<polygon fill="white" stroke="black" points="170,-39.075 170,-60.075 260,-60.075 260,-39.075 170,-39.075"/>
<text text-anchor="middle" x="215" y="-47.075" font-family="DejaVuSans" font-size="10.00">Trait::setDetails</text>
</a>
</g>
<!-- Node1&#45;&gt;Node7 -->
<g id="edge12" class="edge"><title>Node1&#45;&gt;Node7</title>
<path fill="none" stroke="midnightblue" d="M66.3234,-111.011C82.0768,-99.4424 104.443,-84.3737 126,-74.575 139.734,-68.3323 155.382,-63.3034 169.686,-59.4386"/>
<polygon fill="midnightblue" stroke="midnightblue" points="64.2039,-108.226 58.2989,-117.022 68.4008,-113.828 64.2039,-108.226"/>
</g>
<!-- Node8 -->
<g id="node15" class="node"><title>Node8</title>
<a xlink:href="class_storage_character.html#a6273e4a5881f52b074bb1e4885ce70a6" target="_top" xlink:title="StorageCharacter::setSkillSpecialties">
<polygon fill="white" stroke="black" points="340,-59.075 340,-80.075 534,-80.075 534,-59.075 340,-59.075"/>
<text text-anchor="middle" x="437" y="-67.075" font-family="DejaVuSans" font-size="10.00">StorageCharacter::setSkillSpecialties</text>
</a>
</g>
<!-- Node1&#45;&gt;Node8 -->
<g id="edge18" class="edge"><title>Node1&#45;&gt;Node8</title>
<path fill="none" stroke="midnightblue" d="M93.5092,-114.589C104.162,-112.02 115.42,-109.52 126,-107.575 197.152,-94.4931 278.316,-84.7474 339.883,-78.4024"/>
<polygon fill="midnightblue" stroke="midnightblue" points="92.3913,-111.26 83.5233,-117.057 94.0711,-118.055 92.3913,-111.26"/>
</g>
<!-- Node9 -->
<g id="node17" class="node"><title>Node9</title>
<a xlink:href="class_trait.html#af91999c7db93d064bf79f1a72133152a" target="_top" xlink:title="Trait::Trait">
<polygon fill="white" stroke="black" points="406,-10.075 406,-31.075 468,-31.075 468,-10.075 406,-10.075"/>
<text text-anchor="middle" x="437" y="-18.075" font-family="DejaVuSans" font-size="10.00">Trait::Trait</text>
</a>
</g>
<!-- Node1&#45;&gt;Node9 -->
<g id="edge20" class="edge"><title>Node1&#45;&gt;Node9</title>
<path fill="none" stroke="midnightblue" d="M54.727,-107.663C67.4474,-84.1378 92.1612,-46.1096 126,-29.575 219.181,15.9558 347.528,-1.7471 405.878,-13.4442"/>
<polygon fill="midnightblue" stroke="midnightblue" points="51.5103,-106.264 50.018,-116.753 57.7258,-109.484 51.5103,-106.264"/>
</g>
<!-- Node5 -->
<g id="node9" class="node"><title>Node5</title>
<a xlink:href="class_chara_trait.html#a21787eb972b4fc8779368a78f4430f14" target="_top" xlink:title="CharaTrait::CharaTrait">
<polygon fill="white" stroke="black" points="377.5,-157.075 377.5,-178.075 496.5,-178.075 496.5,-157.075 377.5,-157.075"/>
<text text-anchor="middle" x="437" y="-165.075" font-family="DejaVuSans" font-size="10.00">CharaTrait::CharaTrait</text>
</a>
</g>
<!-- Node4&#45;&gt;Node5 -->
<g id="edge8" class="edge"><title>Node4&#45;&gt;Node5</title>
<path fill="none" stroke="midnightblue" d="M314.181,-167.575C335.697,-167.575 357.812,-167.575 377.243,-167.575"/>
<polygon fill="midnightblue" stroke="midnightblue" points="314.017,-164.075 304.017,-167.575 314.017,-171.075 314.017,-164.075"/>
</g>
<!-- Node7&#45;&gt;Node8 -->
<g id="edge14" class="edge"><title>Node7&#45;&gt;Node8</title>
<path fill="none" stroke="midnightblue" d="M270.202,-54.5482C291.222,-56.4419 315.849,-58.6606 339.629,-60.8029"/>
<polygon fill="midnightblue" stroke="midnightblue" points="270.466,-51.0579 260.193,-53.6464 269.838,-58.0297 270.466,-51.0579"/>
</g>
<!-- Node7&#45;&gt;Node9 -->
<g id="edge16" class="edge"><title>Node7&#45;&gt;Node9</title>
<path fill="none" stroke="midnightblue" d="M270.174,-42.3677C312.953,-36.7794 370.688,-29.2373 405.808,-24.6497"/>
<polygon fill="midnightblue" stroke="midnightblue" points="269.655,-38.9056 260.193,-43.6715 270.562,-45.8466 269.655,-38.9056"/>
</g>
</g>
</svg>
