<?xml version="1.0" encoding="UTF-8" standalone="no"?>
<!DOCTYPE svg PUBLIC "-//W3C//DTD SVG 1.1//EN"
 "http://www.w3.org/Graphics/SVG/1.1/DTD/svg11.dtd">
<!-- Generated by graphviz version 2.26.3 (20100126.1600)
 -->
<!-- Title: G Pages: 1 -->
<svg width="574pt" height="30pt"
 viewBox="0.00 0.00 574.00 30.00" xmlns="http://www.w3.org/2000/svg" xmlns:xlink="http://www.w3.org/1999/xlink">
<g id="graph1" class="graph" transform="scale(1 1) rotate(0) translate(4 26)">
<title>G</title>
<polygon fill="white" stroke="white" points="-4,5 -4,-26 571,-26 571,5 -4,5"/>
<!-- Node1 -->
<g id="node1" class="node"><title>Node1</title>
<polygon fill="#bfbfbf" stroke="black" points="0,-0.5 0,-21.5 170,-21.5 170,-0.5 0,-0.5"/>
<text text-anchor="middle" x="85" y="-8.5" font-family="DejaVuSans" font-size="10.00">StorageCharacter::viceChanged</text>
</g>
<!-- Node2 -->
<g id="node3" class="node"><title>Node2</title>
<a xlink:href="class_storage_character.html#a87224c378e7576e028c9f9a697bd23e8" target="_top" xlink:title="StorageCharacter::setVice">
<polygon fill="white" stroke="black" points="206.5,-0.5 206.5,-21.5 349.5,-21.5 349.5,-0.5 206.5,-0.5"/>
<text text-anchor="middle" x="278" y="-8.5" font-family="DejaVuSans" font-size="10.00">StorageCharacter::setVice</text>
</a>
</g>
<!-- Node1&#45;&gt;Node2 -->
<g id="edge2" class="edge"><title>Node1&#45;&gt;Node2</title>
<path fill="none" stroke="midnightblue" d="M180.393,-11C189.082,-11 197.784,-11 206.215,-11"/>
<polygon fill="midnightblue" stroke="midnightblue" points="180.214,-7.5001 170.214,-11 180.214,-14.5001 180.214,-7.5001"/>
</g>
<!-- Node3 -->
<g id="node5" class="node"><title>Node3</title>
<a xlink:href="class_storage_character.html#a6534667b942bd21253c432fee79a8850" target="_top" xlink:title="StorageCharacter::resetCharacter">
<polygon fill="white" stroke="black" points="386,-0.5 386,-21.5 566,-21.5 566,-0.5 386,-0.5"/>
<text text-anchor="middle" x="476" y="-8.5" font-family="DejaVuSans" font-size="10.00">StorageCharacter::resetCharacter</text>
</a>
</g>
<!-- Node2&#45;&gt;Node3 -->
<g id="edge4" class="edge"><title>Node2&#45;&gt;Node3</title>
<path fill="none" stroke="midnightblue" d="M359.776,-11C368.39,-11 377.183,-11 385.884,-11"/>
<polygon fill="midnightblue" stroke="midnightblue" points="359.763,-7.5001 349.762,-11 359.762,-14.5001 359.763,-7.5001"/>
</g>
</g>
</svg>
