<?xml version="1.0" encoding="UTF-8" standalone="no"?>
<!DOCTYPE svg PUBLIC "-//W3C//DTD SVG 1.1//EN"
 "http://www.w3.org/Graphics/SVG/1.1/DTD/svg11.dtd">
<!-- Generated by graphviz version 2.26.3 (20100126.1600)
 -->
<!-- Title: G Pages: 1 -->
<svg width="502pt" height="30pt"
 viewBox="0.00 0.00 502.00 30.00" xmlns="http://www.w3.org/2000/svg" xmlns:xlink="http://www.w3.org/1999/xlink">
<g id="graph1" class="graph" transform="scale(1 1) rotate(0) translate(4 26)">
<title>G</title>
<polygon fill="white" stroke="white" points="-4,5 -4,-26 499,-26 499,5 -4,5"/>
<!-- Node1 -->
<g id="node1" class="node"><title>Node1</title>
<polygon fill="#bfbfbf" stroke="black" points="0.5,-0.5 0.5,-21.5 167.5,-21.5 167.5,-0.5 0.5,-0.5"/>
<text text-anchor="middle" x="84" y="-8.5" font-family="DejaVuSans" font-size="10.00">StorageTemplate::breedNames</text>
</g>
<!-- Node2 -->
<g id="node3" class="node"><title>Node2</title>
<a xlink:href="class_storage_template.html#a5d5beec85c0760ed8129a2585e7a94d4" target="_top" xlink:title="StorageTemplate::traits">
<polygon fill="white" stroke="black" points="204.5,-0.5 204.5,-21.5 333.5,-21.5 333.5,-0.5 204.5,-0.5"/>
<text text-anchor="middle" x="269" y="-8.5" font-family="DejaVuSans" font-size="10.00">StorageTemplate::traits</text>
</a>
</g>
<!-- Node1&#45;&gt;Node2 -->
<g id="edge2" class="edge"><title>Node1&#45;&gt;Node2</title>
<path fill="none" stroke="midnightblue" d="M167.57,-11C176.448,-11 185.437,-11 194.205,-11"/>
<polygon fill="midnightblue" stroke="midnightblue" points="194.378,-14.5001 204.378,-11 194.378,-7.5001 194.378,-14.5001"/>
</g>
<!-- Node3 -->
<g id="node5" class="node"><title>Node3</title>
<a xlink:href="class_storage_template.html#aceb757eb50e7326356f589179d78ee89" target="_top" xlink:title="StorageTemplate::trait">
<polygon fill="white" stroke="black" points="370,-0.5 370,-21.5 494,-21.5 494,-0.5 370,-0.5"/>
<text text-anchor="middle" x="432" y="-8.5" font-family="DejaVuSans" font-size="10.00">StorageTemplate::trait</text>
</a>
</g>
<!-- Node2&#45;&gt;Node3 -->
<g id="edge4" class="edge"><title>Node2&#45;&gt;Node3</title>
<path fill="none" stroke="midnightblue" d="M333.89,-11C342.441,-11 351.246,-11 359.908,-11"/>
<polygon fill="midnightblue" stroke="midnightblue" points="359.986,-14.5001 369.986,-11 359.986,-7.5001 359.986,-14.5001"/>
</g>
</g>
</svg>
