<?xml version="1.0" encoding="UTF-8" standalone="no"?>
<!DOCTYPE svg PUBLIC "-//W3C//DTD SVG 1.1//EN"
 "http://www.w3.org/Graphics/SVG/1.1/DTD/svg11.dtd">
<!-- Generated by graphviz version 2.26.3 (20100126.1600)
 -->
<!-- Title: G Pages: 1 -->
<svg width="684pt" height="590pt"
 viewBox="0.00 0.00 684.00 590.00" xmlns="http://www.w3.org/2000/svg" xmlns:xlink="http://www.w3.org/1999/xlink">
<g id="graph1" class="graph" transform="scale(1 1) rotate(0) translate(4 586)">
<title>G</title>
<polygon fill="white" stroke="white" points="-4,5 -4,-586 681,-586 681,5 -4,5"/>
<!-- Node1 -->
<g id="node1" class="node"><title>Node1</title>
<polygon fill="#bfbfbf" stroke="black" points="0.5,-340.5 0.5,-361.5 63.5,-361.5 63.5,-340.5 0.5,-340.5"/>
<text text-anchor="middle" x="32" y="-348.5" font-family="DejaVuSans" font-size="10.00">Exception</text>
</g>
<!-- Node2 -->
<g id="node3" class="node"><title>Node2</title>
<a xlink:href="classe_dir.html" target="_top" xlink:title="Ausnahme im Verzeichnis&#45;Management.">
<polygon fill="white" stroke="black" points="130,-550.5 130,-571.5 166,-571.5 166,-550.5 130,-550.5"/>
<text text-anchor="middle" x="148" y="-558.5" font-family="DejaVuSans" font-size="10.00">eDir</text>
</a>
</g>
<!-- Node1&#45;&gt;Node2 -->
<g id="edge2" class="edge"><title>Node1&#45;&gt;Node2</title>
<path fill="none" stroke="midnightblue" d="M35.3535,-371.735C42.0621,-407.657 60.059,-482.28 100,-531 107.975,-540.728 119.975,-548.228 129.981,-553.296"/>
<polygon fill="midnightblue" stroke="midnightblue" points="38.7356,-370.758 33.5586,-361.514 31.8411,-371.969 38.7356,-370.758"/>
</g>
<!-- Node4 -->
<g id="node7" class="node"><title>Node4</title>
<a xlink:href="classe_entry.html" target="_top" xlink:title="Ausnahme, falls Fehler bei einer Eingabe auftreten.">
<polygon fill="white" stroke="black" points="124.5,-500.5 124.5,-521.5 171.5,-521.5 171.5,-500.5 124.5,-500.5"/>
<text text-anchor="middle" x="148" y="-508.5" font-family="DejaVuSans" font-size="10.00">eEntry</text>
</a>
</g>
<!-- Node1&#45;&gt;Node4 -->
<g id="edge6" class="edge"><title>Node1&#45;&gt;Node4</title>
<path fill="none" stroke="midnightblue" d="M40.5794,-370.955C51.9114,-395.951 73.5585,-439.339 100,-471 109.457,-482.323 122.412,-492.905 132.481,-500.337"/>
<polygon fill="midnightblue" stroke="midnightblue" points="43.7506,-369.472 36.4973,-361.749 37.3515,-372.309 43.7506,-369.472"/>
</g>
<!-- Node7 -->
<g id="node13" class="node"><title>Node7</title>
<a xlink:href="classe_file.html" target="_top" xlink:title="Ausnahme im Datei&#45;Management.">
<polygon fill="white" stroke="black" points="129,-440.5 129,-461.5 167,-461.5 167,-440.5 129,-440.5"/>
<text text-anchor="middle" x="148" y="-448.5" font-family="DejaVuSans" font-size="10.00">eFile</text>
</a>
</g>
<!-- Node1&#45;&gt;Node7 -->
<g id="edge12" class="edge"><title>Node1&#45;&gt;Node7</title>
<path fill="none" stroke="midnightblue" d="M44.3456,-370.175C56.627,-387.965 76.9307,-414.161 100,-431 108.604,-437.281 119.475,-442.021 128.694,-445.306"/>
<polygon fill="midnightblue" stroke="midnightblue" points="47.1597,-368.087 38.6824,-361.732 41.3463,-371.987 47.1597,-368.087"/>
</g>
<!-- Node10 -->
<g id="node19" class="node"><title>Node10</title>
<a xlink:href="classe_gender.html" target="_top" xlink:title="Ausnahme, falls Fehler bei den Geschlechtern auftritt.">
<polygon fill="white" stroke="black" points="119,-400.5 119,-421.5 177,-421.5 177,-400.5 119,-400.5"/>
<text text-anchor="middle" x="148" y="-408.5" font-family="DejaVuSans" font-size="10.00">eGender</text>
</a>
</g>
<!-- Node1&#45;&gt;Node10 -->
<g id="edge18" class="edge"><title>Node1&#45;&gt;Node10</title>
<path fill="none" stroke="midnightblue" d="M57.0224,-366.83C69.6755,-374.547 85.4075,-383.711 100,-391 106.623,-394.308 113.927,-397.549 120.798,-400.426"/>
<polygon fill="midnightblue" stroke="midnightblue" points="58.761,-363.79 48.4135,-361.514 55.0832,-369.746 58.761,-363.79"/>
</g>
<!-- Node12 -->
<g id="node23" class="node"><title>Node12</title>
<a xlink:href="classe_number.html" target="_top" xlink:title="Ausnahme bei Zahlen.">
<polygon fill="white" stroke="black" points="117,-360.5 117,-381.5 179,-381.5 179,-360.5 117,-360.5"/>
<text text-anchor="middle" x="148" y="-368.5" font-family="DejaVuSans" font-size="10.00">eNumber</text>
</a>
</g>
<!-- Node1&#45;&gt;Node12 -->
<g id="edge22" class="edge"><title>Node1&#45;&gt;Node12</title>
<path fill="none" stroke="midnightblue" d="M73.7249,-358.194C87.9133,-360.64 103.516,-363.33 116.742,-365.611"/>
<polygon fill="midnightblue" stroke="midnightblue" points="74.1468,-354.715 63.6975,-356.465 72.9574,-361.613 74.1468,-354.715"/>
</g>
<!-- Node14 -->
<g id="node27" class="node"><title>Node14</title>
<a xlink:href="classe_print.html" target="_top" xlink:title="Ausnahme, falls beim Audrucken ein Fehler entsteht.">
<polygon fill="white" stroke="black" points="126,-320.5 126,-341.5 170,-341.5 170,-320.5 126,-320.5"/>
<text text-anchor="middle" x="148" y="-328.5" font-family="DejaVuSans" font-size="10.00">ePrint</text>
</a>
</g>
<!-- Node1&#45;&gt;Node14 -->
<g id="edge26" class="edge"><title>Node1&#45;&gt;Node14</title>
<path fill="none" stroke="midnightblue" d="M73.7652,-343.799C91.384,-340.761 111.177,-337.349 125.891,-334.812"/>
<polygon fill="midnightblue" stroke="midnightblue" points="72.9574,-340.387 63.6975,-345.535 74.1468,-347.285 72.9574,-340.387"/>
</g>
<!-- Node17 -->
<g id="node33" class="node"><title>Node17</title>
<a xlink:href="classe_species.html" target="_top" xlink:title="Ausnahme, falls Fehler bei den Spezies auftritt.">
<polygon fill="white" stroke="black" points="118,-260.5 118,-281.5 178,-281.5 178,-260.5 118,-260.5"/>
<text text-anchor="middle" x="148" y="-268.5" font-family="DejaVuSans" font-size="10.00">eSpecies</text>
</a>
</g>
<!-- Node1&#45;&gt;Node17 -->
<g id="edge32" class="edge"><title>Node1&#45;&gt;Node17</title>
<path fill="none" stroke="midnightblue" d="M56.1662,-334.334C79.1626,-318.474 113.07,-295.089 132.604,-281.618"/>
<polygon fill="midnightblue" stroke="midnightblue" points="53.8893,-331.652 47.6443,-340.211 57.8635,-337.415 53.8893,-331.652"/>
</g>
<!-- Node19 -->
<g id="node37" class="node"><title>Node19</title>
<a xlink:href="classe_trait.html" target="_top" xlink:title="Ausnahme, falls Fehler bei den Eigenschaften auftritt.">
<polygon fill="white" stroke="black" points="127,-180.5 127,-201.5 169,-201.5 169,-180.5 127,-180.5"/>
<text text-anchor="middle" x="148" y="-188.5" font-family="DejaVuSans" font-size="10.00">eTrait</text>
</a>
</g>
<!-- Node1&#45;&gt;Node19 -->
<g id="edge36" class="edge"><title>Node1&#45;&gt;Node19</title>
<path fill="none" stroke="midnightblue" d="M44.3472,-331.909C57.6557,-311.557 79.6703,-278.537 100,-251 112.994,-233.4 129.039,-213.726 138.893,-201.858"/>
<polygon fill="midnightblue" stroke="midnightblue" points="41.4052,-330.013 38.8825,-340.303 47.2716,-333.832 41.4052,-330.013"/>
</g>
<!-- Node23 -->
<g id="node45" class="node"><title>Node23</title>
<a xlink:href="classe_werewolf_shape.html" target="_top" xlink:title="Ausnahme, falls Fehler Bei den Gestalten der Werwölfe auftritt.">
<polygon fill="white" stroke="black" points="100.5,-100.5 100.5,-121.5 195.5,-121.5 195.5,-100.5 100.5,-100.5"/>
<text text-anchor="middle" x="148" y="-108.5" font-family="DejaVuSans" font-size="10.00">eWerewolfShape</text>
</a>
</g>
<!-- Node1&#45;&gt;Node23 -->
<g id="edge44" class="edge"><title>Node1&#45;&gt;Node23</title>
<path fill="none" stroke="midnightblue" d="M37.4495,-330.53C47.094,-296.139 69.1062,-225.212 100,-171 110.7,-152.224 127.079,-133.184 137.665,-121.734"/>
<polygon fill="midnightblue" stroke="midnightblue" points="34.0274,-329.774 34.7571,-340.344 40.778,-331.626 34.0274,-329.774"/>
</g>
<!-- Node25 -->
<g id="node49" class="node"><title>Node25</title>
<a xlink:href="classe_xml.html" target="_top" xlink:title="Ausnahme beim Lesen der XML&#45;Datei.">
<polygon fill="white" stroke="black" points="127.5,-40.5 127.5,-61.5 168.5,-61.5 168.5,-40.5 127.5,-40.5"/>
<text text-anchor="middle" x="148" y="-48.5" font-family="DejaVuSans" font-size="10.00">eXml</text>
</a>
</g>
<!-- Node1&#45;&gt;Node25 -->
<g id="edge48" class="edge"><title>Node1&#45;&gt;Node25</title>
<path fill="none" stroke="midnightblue" d="M33.1549,-330.432C36.6044,-284.161 49.9623,-169.769 100,-91 107.678,-78.9137 120.2,-68.6566 130.529,-61.5558"/>
<polygon fill="midnightblue" stroke="midnightblue" points="29.6614,-330.219 32.4887,-340.43 36.6459,-330.685 29.6614,-330.219"/>
</g>
<!-- Node3 -->
<g id="node5" class="node"><title>Node3</title>
<a xlink:href="classe_dir_not_created.html" target="_top" xlink:title="Verzeichnis kann nicht angelegt werden.">
<polygon fill="white" stroke="black" points="265,-560.5 265,-581.5 357,-581.5 357,-560.5 265,-560.5"/>
<text text-anchor="middle" x="311" y="-568.5" font-family="DejaVuSans" font-size="10.00">eDirNotCreated</text>
</a>
</g>
<!-- Node2&#45;&gt;Node3 -->
<g id="edge4" class="edge"><title>Node2&#45;&gt;Node3</title>
<path fill="none" stroke="midnightblue" d="M176.07,-562.722C200.421,-564.216 236.15,-566.408 264.725,-568.161"/>
<polygon fill="midnightblue" stroke="midnightblue" points="176.262,-559.227 166.067,-562.108 175.834,-566.214 176.262,-559.227"/>
</g>
<!-- Node5 -->
<g id="node9" class="node"><title>Node5</title>
<a xlink:href="classe_user_entry.html" target="_top" xlink:title="Ausnahme, falls Fehler bei einer Benutzereingabe auftreten.">
<polygon fill="white" stroke="black" points="276,-520.5 276,-541.5 346,-541.5 346,-520.5 276,-520.5"/>
<text text-anchor="middle" x="311" y="-528.5" font-family="DejaVuSans" font-size="10.00">eUserEntry</text>
</a>
</g>
<!-- Node4&#45;&gt;Node5 -->
<g id="edge8" class="edge"><title>Node4&#45;&gt;Node5</title>
<path fill="none" stroke="midnightblue" d="M181.648,-515.129C209.158,-518.504 247.931,-523.262 275.843,-526.686"/>
<polygon fill="midnightblue" stroke="midnightblue" points="182.053,-511.652 171.702,-513.908 181.201,-518.6 182.053,-511.652"/>
</g>
<!-- Node6 -->
<g id="node11" class="node"><title>Node6</title>
<a xlink:href="classe_missing_user_entry.html" target="_top" xlink:title="Ausnahme, falls Fehler bei einer Benutzereingabe auftreten.">
<polygon fill="white" stroke="black" points="426.5,-520.5 426.5,-541.5 531.5,-541.5 531.5,-520.5 426.5,-520.5"/>
<text text-anchor="middle" x="479" y="-528.5" font-family="DejaVuSans" font-size="10.00">eMissingUserEntry</text>
</a>
</g>
<!-- Node5&#45;&gt;Node6 -->
<g id="edge10" class="edge"><title>Node5&#45;&gt;Node6</title>
<path fill="none" stroke="midnightblue" d="M356.417,-531C377.97,-531 403.853,-531 426.27,-531"/>
<polygon fill="midnightblue" stroke="midnightblue" points="356.218,-527.5 346.218,-531 356.218,-534.5 356.218,-527.5"/>
</g>
<!-- Node8 -->
<g id="node15" class="node"><title>Node8</title>
<a xlink:href="classe_file_not_deleted.html" target="_top" xlink:title="Datei kann nicht gelöscht werden.">
<polygon fill="white" stroke="black" points="265,-480.5 265,-501.5 357,-501.5 357,-480.5 265,-480.5"/>
<text text-anchor="middle" x="311" y="-488.5" font-family="DejaVuSans" font-size="10.00">eFileNotDeleted</text>
</a>
</g>
<!-- Node7&#45;&gt;Node8 -->
<g id="edge14" class="edge"><title>Node7&#45;&gt;Node8</title>
<path fill="none" stroke="midnightblue" d="M176.739,-458.052C202.023,-464.257 239.191,-473.378 268.013,-480.451"/>
<polygon fill="midnightblue" stroke="midnightblue" points="177.563,-454.651 167.017,-455.667 175.895,-461.449 177.563,-454.651"/>
</g>
<!-- Node9 -->
<g id="node17" class="node"><title>Node9</title>
<a xlink:href="classe_file_not_opened.html" target="_top" xlink:title="Datei kann nicht geöffnet werden.">
<polygon fill="white" stroke="black" points="265,-440.5 265,-461.5 357,-461.5 357,-440.5 265,-440.5"/>
<text text-anchor="middle" x="311" y="-448.5" font-family="DejaVuSans" font-size="10.00">eFileNotOpened</text>
</a>
</g>
<!-- Node7&#45;&gt;Node9 -->
<g id="edge16" class="edge"><title>Node7&#45;&gt;Node9</title>
<path fill="none" stroke="midnightblue" d="M177.072,-451C201.462,-451 236.736,-451 264.961,-451"/>
<polygon fill="midnightblue" stroke="midnightblue" points="177.017,-447.5 167.017,-451 177.017,-454.5 177.017,-447.5"/>
</g>
<!-- Node11 -->
<g id="node21" class="node"><title>Node11</title>
<a xlink:href="classe_gender_not_existing.html" target="_top" xlink:title="Ausnahme, falls das spezifizierte Geschlecht nicht existiert.">
<polygon fill="white" stroke="black" points="255,-400.5 255,-421.5 367,-421.5 367,-400.5 255,-400.5"/>
<text text-anchor="middle" x="311" y="-408.5" font-family="DejaVuSans" font-size="10.00">eGenderNotExisting</text>
</a>
</g>
<!-- Node10&#45;&gt;Node11 -->
<g id="edge20" class="edge"><title>Node10&#45;&gt;Node11</title>
<path fill="none" stroke="midnightblue" d="M187.242,-411C207.472,-411 232.503,-411 254.75,-411"/>
<polygon fill="midnightblue" stroke="midnightblue" points="187.141,-407.5 177.141,-411 187.141,-414.5 187.141,-407.5"/>
</g>
<!-- Node13 -->
<g id="node25" class="node"><title>Node13</title>
<a xlink:href="classe_not_a_number.html" target="_top" xlink:title="Ausnahme beim Fehlen einer Zahl.">
<polygon fill="white" stroke="black" points="268,-360.5 268,-381.5 354,-381.5 354,-360.5 268,-360.5"/>
<text text-anchor="middle" x="311" y="-368.5" font-family="DejaVuSans" font-size="10.00">eNotANumber</text>
</a>
</g>
<!-- Node12&#45;&gt;Node13 -->
<g id="edge24" class="edge"><title>Node12&#45;&gt;Node13</title>
<path fill="none" stroke="midnightblue" d="M189.245,-371C213.235,-371 243.438,-371 267.76,-371"/>
<polygon fill="midnightblue" stroke="midnightblue" points="189.043,-367.5 179.043,-371 189.043,-374.5 189.043,-367.5"/>
</g>
<!-- Node15 -->
<g id="node29" class="node"><title>Node15</title>
<a xlink:href="classe_traits_exceed_sheet_capacity.html" target="_top" xlink:title="Ausnahme, falls zu viele Eigenschaften gedruckt werden sollen.">
<polygon fill="white" stroke="black" points="235,-320.5 235,-341.5 387,-341.5 387,-320.5 235,-320.5"/>
<text text-anchor="middle" x="311" y="-328.5" font-family="DejaVuSans" font-size="10.00">eTraitsExceedSheetCapacity</text>
</a>
</g>
<!-- Node14&#45;&gt;Node15 -->
<g id="edge28" class="edge"><title>Node14&#45;&gt;Node15</title>
<path fill="none" stroke="midnightblue" d="M180.506,-331C196.179,-331 215.694,-331 234.818,-331"/>
<polygon fill="midnightblue" stroke="midnightblue" points="180.323,-327.5 170.323,-331 180.323,-334.5 180.323,-327.5"/>
</g>
<!-- Node16 -->
<g id="node31" class="node"><title>Node16</title>
<a xlink:href="classe_value_exceeds_sheet_capacity.html" target="_top" xlink:title="Ausnahme, falls ein zu großer Wert auf den Charakterbogen gedruckt werden soll.">
<polygon fill="white" stroke="black" points="232,-280.5 232,-301.5 390,-301.5 390,-280.5 232,-280.5"/>
<text text-anchor="middle" x="311" y="-288.5" font-family="DejaVuSans" font-size="10.00">eValueExceedsSheetCapacity</text>
</a>
</g>
<!-- Node14&#45;&gt;Node16 -->
<g id="edge30" class="edge"><title>Node14&#45;&gt;Node16</title>
<path fill="none" stroke="midnightblue" d="M180.114,-323.119C205.307,-316.937 240.608,-308.274 268.2,-301.503"/>
<polygon fill="midnightblue" stroke="midnightblue" points="179.2,-319.74 170.323,-325.522 180.869,-326.538 179.2,-319.74"/>
</g>
<!-- Node18 -->
<g id="node35" class="node"><title>Node18</title>
<a xlink:href="classe_species_not_existing.html" target="_top" xlink:title="Ausnahme, falls eine spezifizierte Spezies nicht existiert.">
<polygon fill="white" stroke="black" points="254,-240.5 254,-261.5 368,-261.5 368,-240.5 254,-240.5"/>
<text text-anchor="middle" x="311" y="-248.5" font-family="DejaVuSans" font-size="10.00">eSpeciesNotExisting</text>
</a>
</g>
<!-- Node17&#45;&gt;Node18 -->
<g id="edge34" class="edge"><title>Node17&#45;&gt;Node18</title>
<path fill="none" stroke="midnightblue" d="M188.455,-266.036C208.187,-263.615 232.263,-260.661 253.835,-258.014"/>
<polygon fill="midnightblue" stroke="midnightblue" points="187.776,-262.593 178.277,-267.285 188.629,-269.541 187.776,-262.593"/>
</g>
<!-- Node20 -->
<g id="node39" class="node"><title>Node20</title>
<a xlink:href="classe_trait_category.html" target="_top" xlink:title="Ausnahme, falls eine falsche Kategorie genutzt wird.">
<polygon fill="white" stroke="black" points="268,-200.5 268,-221.5 354,-221.5 354,-200.5 268,-200.5"/>
<text text-anchor="middle" x="311" y="-208.5" font-family="DejaVuSans" font-size="10.00">eTraitCategory</text>
</a>
</g>
<!-- Node19&#45;&gt;Node20 -->
<g id="edge38" class="edge"><title>Node19&#45;&gt;Node20</title>
<path fill="none" stroke="midnightblue" d="M179.405,-194.853C204.573,-197.941 240.152,-202.307 267.97,-205.72"/>
<polygon fill="midnightblue" stroke="midnightblue" points="179.661,-191.359 169.309,-193.615 178.809,-198.307 179.661,-191.359"/>
</g>
<!-- Node21 -->
<g id="node41" class="node"><title>Node21</title>
<a xlink:href="classe_trait_not_existing.html" target="_top" xlink:title="Ausnahme, falls eine spezifizierte Eigenscahft nicht existiert.">
<polygon fill="white" stroke="black" points="263,-160.5 263,-181.5 359,-181.5 359,-160.5 263,-160.5"/>
<text text-anchor="middle" x="311" y="-168.5" font-family="DejaVuSans" font-size="10.00">eTraitNotExisting</text>
</a>
</g>
<!-- Node19&#45;&gt;Node21 -->
<g id="edge40" class="edge"><title>Node19&#45;&gt;Node21</title>
<path fill="none" stroke="midnightblue" d="M179.484,-187.137C203.153,-184.233 235.997,-180.203 262.942,-176.897"/>
<polygon fill="midnightblue" stroke="midnightblue" points="178.809,-183.693 169.309,-188.385 179.661,-190.641 178.809,-183.693"/>
</g>
<!-- Node22 -->
<g id="node43" class="node"><title>Node22</title>
<a xlink:href="classe_trait_type.html" target="_top" xlink:title="Ausnahme, falls ein falscher Typ genutzt wird.">
<polygon fill="white" stroke="black" points="279.5,-120.5 279.5,-141.5 342.5,-141.5 342.5,-120.5 279.5,-120.5"/>
<text text-anchor="middle" x="311" y="-128.5" font-family="DejaVuSans" font-size="10.00">eTraitType</text>
</a>
</g>
<!-- Node19&#45;&gt;Node22 -->
<g id="edge42" class="edge"><title>Node19&#45;&gt;Node22</title>
<path fill="none" stroke="midnightblue" d="M176.856,-175.526C192.791,-167.427 213.126,-157.808 232,-151 247.305,-145.479 264.801,-140.883 279.432,-137.494"/>
<polygon fill="midnightblue" stroke="midnightblue" points="174.832,-172.633 167.556,-180.334 178.047,-178.851 174.832,-172.633"/>
</g>
<!-- Node24 -->
<g id="node47" class="node"><title>Node24</title>
<a xlink:href="classe_werewolf_shape_not_existing.html" target="_top" xlink:title="Ausnahme, falls eine ungültige Werwolf&#45;Gestalt gewählt wird.">
<polygon fill="white" stroke="black" points="236.5,-80.5 236.5,-101.5 385.5,-101.5 385.5,-80.5 236.5,-80.5"/>
<text text-anchor="middle" x="311" y="-88.5" font-family="DejaVuSans" font-size="10.00">eWerewolfShapeNotExisting</text>
</a>
</g>
<!-- Node23&#45;&gt;Node24 -->
<g id="edge46" class="edge"><title>Node23&#45;&gt;Node24</title>
<path fill="none" stroke="midnightblue" d="M205.711,-103.919C215.634,-102.701 226.073,-101.42 236.365,-100.158"/>
<polygon fill="midnightblue" stroke="midnightblue" points="205.084,-100.47 195.585,-105.161 205.936,-107.417 205.084,-100.47"/>
</g>
<!-- Node26 -->
<g id="node51" class="node"><title>Node26</title>
<a xlink:href="classe_xml_error.html" target="_top" xlink:title="Beim Parsen der XML&#45;Datei trat ein Fehler auf.">
<polygon fill="white" stroke="black" points="279,-40.5 279,-61.5 343,-61.5 343,-40.5 279,-40.5"/>
<text text-anchor="middle" x="311" y="-48.5" font-family="DejaVuSans" font-size="10.00">eXmlError</text>
</a>
</g>
<!-- Node25&#45;&gt;Node26 -->
<g id="edge50" class="edge"><title>Node25&#45;&gt;Node26</title>
<path fill="none" stroke="midnightblue" d="M178.863,-51C207.428,-51 249.739,-51 278.742,-51"/>
<polygon fill="midnightblue" stroke="midnightblue" points="178.644,-47.5001 168.644,-51 178.644,-54.5001 178.644,-47.5001"/>
</g>
<!-- Node27 -->
<g id="node53" class="node"><title>Node27</title>
<a xlink:href="classe_xml_version.html" target="_top" xlink:title="Die XML&#45;Datei weist die falsche Version auf.">
<polygon fill="white" stroke="black" points="273,-0.5 273,-21.5 349,-21.5 349,-0.5 273,-0.5"/>
<text text-anchor="middle" x="311" y="-8.5" font-family="DejaVuSans" font-size="10.00">eXmlVersion</text>
</a>
</g>
<!-- Node25&#45;&gt;Node27 -->
<g id="edge52" class="edge"><title>Node25&#45;&gt;Node27</title>
<path fill="none" stroke="midnightblue" d="M178.576,-43.4966C205.262,-36.9481 244.1,-27.4171 272.821,-20.3691"/>
<polygon fill="midnightblue" stroke="midnightblue" points="177.522,-40.1515 168.644,-45.934 179.19,-46.9498 177.522,-40.1515"/>
</g>
<!-- Node28 -->
<g id="node55" class="node"><title>Node28</title>
<a xlink:href="classe_xml_old_version.html" target="_top" xlink:title="Die Version der XML&#45;Datei paßt zwar zu diesem programm, ist aber zu alt.">
<polygon fill="white" stroke="black" points="433,-0.5 433,-21.5 525,-21.5 525,-0.5 433,-0.5"/>
<text text-anchor="middle" x="479" y="-8.5" font-family="DejaVuSans" font-size="10.00">eXmlOldVersion</text>
</a>
</g>
<!-- Node27&#45;&gt;Node28 -->
<g id="edge54" class="edge"><title>Node27&#45;&gt;Node28</title>
<path fill="none" stroke="midnightblue" d="M359.412,-11C382.557,-11 410.125,-11 432.956,-11"/>
<polygon fill="midnightblue" stroke="midnightblue" points="359.122,-7.5001 349.122,-11 359.122,-14.5001 359.122,-7.5001"/>
</g>
<!-- Node29 -->
<g id="node57" class="node"><title>Node29</title>
<a xlink:href="classe_xml_too_old_version.html" target="_top" xlink:title="Die Version der XML&#45;Datei paßt zwar zu diesem Programm, ist aber viel zu alt.">
<polygon fill="white" stroke="black" points="568.5,-0.5 568.5,-21.5 675.5,-21.5 675.5,-0.5 568.5,-0.5"/>
<text text-anchor="middle" x="622" y="-8.5" font-family="DejaVuSans" font-size="10.00">eXmlTooOldVersion</text>
</a>
</g>
<!-- Node28&#45;&gt;Node29 -->
<g id="edge56" class="edge"><title>Node28&#45;&gt;Node29</title>
<path fill="none" stroke="midnightblue" d="M535.28,-11C546.161,-11 557.536,-11 568.331,-11"/>
<polygon fill="midnightblue" stroke="midnightblue" points="535.033,-7.5001 525.033,-11 535.033,-14.5001 535.033,-7.5001"/>
</g>
</g>
</svg>
