<?xml version="1.0" encoding="UTF-8" standalone="no"?>
<!DOCTYPE svg PUBLIC "-//W3C//DTD SVG 1.1//EN"
 "http://www.w3.org/Graphics/SVG/1.1/DTD/svg11.dtd">
<!-- Generated by graphviz version 2.26.3 (20100126.1600)
 -->
<!-- Title: G Pages: 1 -->
<svg width="662pt" height="188pt"
 viewBox="0.00 0.00 662.00 188.00" xmlns="http://www.w3.org/2000/svg" xmlns:xlink="http://www.w3.org/1999/xlink">
<g id="graph1" class="graph" transform="scale(1 1) rotate(0) translate(4 184)">
<title>G</title>
<polygon fill="white" stroke="white" points="-4,5 -4,-184 659,-184 659,5 -4,5"/>
<!-- Node1 -->
<g id="node1" class="node"><title>Node1</title>
<polygon fill="#bfbfbf" stroke="black" points="0,-80.5 0,-101.5 134,-101.5 134,-80.5 0,-80.5"/>
<text text-anchor="middle" x="67" y="-88.5" font-family="DejaVuSans" font-size="10.00">cv_AbstractTrait::species</text>
</g>
<!-- Node2 -->
<g id="node3" class="node"><title>Node2</title>
<a xlink:href="classcv___trait.html#a8c0d39d14efbcce546fbc6212f6e984b" target="_top" xlink:title="cv_Trait::operator==">
<polygon fill="white" stroke="black" points="170,-158.5 170,-179.5 286,-179.5 286,-158.5 170,-158.5"/>
<text text-anchor="middle" x="228" y="-166.5" font-family="DejaVuSans" font-size="10.00">cv_Trait::operator==</text>
</a>
</g>
<!-- Node1&#45;&gt;Node2 -->
<g id="edge2" class="edge"><title>Node1&#45;&gt;Node2</title>
<path fill="none" stroke="midnightblue" d="M95.3839,-106.268C115.926,-117.154 144.452,-131.938 170,-144 180.51,-148.962 192.261,-154.101 202.422,-158.42"/>
<polygon fill="midnightblue" stroke="midnightblue" points="97.0188,-103.173 86.5469,-101.564 93.7297,-109.352 97.0188,-103.173"/>
</g>
<!-- Node3 -->
<g id="node5" class="node"><title>Node3</title>
<a xlink:href="class_check_trait.html#a13434736aa94965e0b2d1fe87ead5c06" target="_top" xlink:title="CheckTrait::setSpecies">
<polygon fill="white" stroke="black" points="348,-120.5 348,-141.5 472,-141.5 472,-120.5 348,-120.5"/>
<text text-anchor="middle" x="410" y="-128.5" font-family="DejaVuSans" font-size="10.00">CheckTrait::setSpecies</text>
</a>
</g>
<!-- Node1&#45;&gt;Node3 -->
<g id="edge4" class="edge"><title>Node1&#45;&gt;Node3</title>
<path fill="none" stroke="midnightblue" d="M125.185,-103.442C139.766,-106.244 155.412,-108.982 170,-111 230.158,-119.322 299.312,-124.639 347.888,-127.682"/>
<polygon fill="midnightblue" stroke="midnightblue" points="125.773,-99.9908 115.287,-101.5 124.426,-106.86 125.773,-99.9908"/>
</g>
<!-- Node4 -->
<g id="node7" class="node"><title>Node4</title>
<a xlink:href="class_chara_trait.html#a340feb7c80cc516245c80d1ff03a8aec" target="_top" xlink:title="CharaTrait::setSpecies">
<polygon fill="white" stroke="black" points="348.5,-40.5 348.5,-61.5 471.5,-61.5 471.5,-40.5 348.5,-40.5"/>
<text text-anchor="middle" x="410" y="-48.5" font-family="DejaVuSans" font-size="10.00">CharaTrait::setSpecies</text>
</a>
</g>
<!-- Node1&#45;&gt;Node4 -->
<g id="edge6" class="edge"><title>Node1&#45;&gt;Node4</title>
<path fill="none" stroke="midnightblue" d="M125.185,-78.558C139.766,-75.756 155.412,-73.018 170,-71 230.365,-62.6493 299.788,-57.3244 348.389,-54.2868"/>
<polygon fill="midnightblue" stroke="midnightblue" points="124.426,-75.1402 115.287,-80.5 125.773,-82.0092 124.426,-75.1402"/>
</g>
<!-- Node5 -->
<g id="node9" class="node"><title>Node5</title>
<a xlink:href="class_check_trait.html#ae1f7c66daf473387e3c8ea8e4857bc14" target="_top" xlink:title="CheckTrait::species">
<polygon fill="white" stroke="black" points="174.5,-80.5 174.5,-101.5 281.5,-101.5 281.5,-80.5 174.5,-80.5"/>
<text text-anchor="middle" x="228" y="-88.5" font-family="DejaVuSans" font-size="10.00">CheckTrait::species</text>
</a>
</g>
<!-- Node1&#45;&gt;Node5 -->
<g id="edge8" class="edge"><title>Node1&#45;&gt;Node5</title>
<path fill="none" stroke="midnightblue" d="M144.367,-91C154.433,-91 164.564,-91 174.13,-91"/>
<polygon fill="midnightblue" stroke="midnightblue" points="144.346,-87.5001 134.346,-91 144.346,-94.5001 144.346,-87.5001"/>
</g>
<!-- Node8 -->
<g id="node16" class="node"><title>Node8</title>
<a xlink:href="class_chara_trait.html#ae8c46557a34a5586b1fbcac00a7c47d6" target="_top" xlink:title="CharaTrait::species">
<polygon fill="white" stroke="black" points="174.5,-2.5 174.5,-23.5 281.5,-23.5 281.5,-2.5 174.5,-2.5"/>
<text text-anchor="middle" x="228" y="-10.5" font-family="DejaVuSans" font-size="10.00">CharaTrait::species</text>
</a>
</g>
<!-- Node1&#45;&gt;Node8 -->
<g id="edge16" class="edge"><title>Node1&#45;&gt;Node8</title>
<path fill="none" stroke="midnightblue" d="M95.3839,-75.7324C115.926,-64.846 144.452,-50.0618 170,-38 180.51,-33.0378 192.261,-27.8987 202.422,-23.58"/>
<polygon fill="midnightblue" stroke="midnightblue" points="93.7297,-72.6479 86.5469,-80.4362 97.0188,-78.8271 93.7297,-72.6479"/>
</g>
<!-- Node5&#45;&gt;Node3 -->
<g id="edge14" class="edge"><title>Node5&#45;&gt;Node3</title>
<path fill="none" stroke="midnightblue" d="M285.758,-103.694C310.38,-109.106 338.767,-115.344 362.185,-120.491"/>
<polygon fill="midnightblue" stroke="midnightblue" points="286.337,-100.238 275.818,-101.51 284.834,-107.075 286.337,-100.238"/>
</g>
<!-- Node6 -->
<g id="node11" class="node"><title>Node6</title>
<a xlink:href="class_check_trait.html#a38b03dfbcc01dbb65a9b345423e232db" target="_top" xlink:title="CheckTrait::hideTraitIfNotAvailable">
<polygon fill="white" stroke="black" points="322,-80.5 322,-101.5 498,-101.5 498,-80.5 322,-80.5"/>
<text text-anchor="middle" x="410" y="-88.5" font-family="DejaVuSans" font-size="10.00">CheckTrait::hideTraitIfNotAvailable</text>
</a>
</g>
<!-- Node5&#45;&gt;Node6 -->
<g id="edge10" class="edge"><title>Node5&#45;&gt;Node6</title>
<path fill="none" stroke="midnightblue" d="M291.647,-91C301.45,-91 311.72,-91 321.94,-91"/>
<polygon fill="midnightblue" stroke="midnightblue" points="291.622,-87.5001 281.622,-91 291.622,-94.5001 291.622,-87.5001"/>
</g>
<!-- Node7 -->
<g id="node13" class="node"><title>Node7</title>
<a xlink:href="class_check_trait.html#a3d74335165852938fb58d285bcc25b52" target="_top" xlink:title="CheckTrait::CheckTrait">
<polygon fill="white" stroke="black" points="534,-80.5 534,-101.5 654,-101.5 654,-80.5 534,-80.5"/>
<text text-anchor="middle" x="594" y="-88.5" font-family="DejaVuSans" font-size="10.00">CheckTrait::CheckTrait</text>
</a>
</g>
<!-- Node6&#45;&gt;Node7 -->
<g id="edge12" class="edge"><title>Node6&#45;&gt;Node7</title>
<path fill="none" stroke="midnightblue" d="M508.424,-91C517.096,-91 525.691,-91 533.9,-91"/>
<polygon fill="midnightblue" stroke="midnightblue" points="508.228,-87.5001 498.228,-91 508.227,-94.5001 508.228,-87.5001"/>
</g>
<!-- Node8&#45;&gt;Node4 -->
<g id="edge22" class="edge"><title>Node8&#45;&gt;Node4</title>
<path fill="none" stroke="midnightblue" d="M288.695,-25.6727C311.698,-30.4755 337.618,-35.8873 359.575,-40.4716"/>
<polygon fill="midnightblue" stroke="midnightblue" points="289.201,-22.2029 278.697,-23.5851 287.771,-29.0552 289.201,-22.2029"/>
</g>
<!-- Node9 -->
<g id="node18" class="node"><title>Node9</title>
<a xlink:href="class_chara_trait.html#a8b30fcf229fb59f96c3926a59269194e" target="_top" xlink:title="CharaTrait::hideTraitIfNotAvailable">
<polygon fill="white" stroke="black" points="322.5,-0.5 322.5,-21.5 497.5,-21.5 497.5,-0.5 322.5,-0.5"/>
<text text-anchor="middle" x="410" y="-8.5" font-family="DejaVuSans" font-size="10.00">CharaTrait::hideTraitIfNotAvailable</text>
</a>
</g>
<!-- Node8&#45;&gt;Node9 -->
<g id="edge18" class="edge"><title>Node8&#45;&gt;Node9</title>
<path fill="none" stroke="midnightblue" d="M291.731,-12.2997C301.618,-12.191 311.978,-12.0772 322.282,-11.9639"/>
<polygon fill="midnightblue" stroke="midnightblue" points="291.583,-8.80098 281.622,-12.4108 291.66,-15.8006 291.583,-8.80098"/>
</g>
<!-- Node10 -->
<g id="node20" class="node"><title>Node10</title>
<a xlink:href="class_chara_trait.html#a21787eb972b4fc8779368a78f4430f14" target="_top" xlink:title="CharaTrait::CharaTrait">
<polygon fill="white" stroke="black" points="534.5,-0.5 534.5,-21.5 653.5,-21.5 653.5,-0.5 534.5,-0.5"/>
<text text-anchor="middle" x="594" y="-8.5" font-family="DejaVuSans" font-size="10.00">CharaTrait::CharaTrait</text>
</a>
</g>
<!-- Node9&#45;&gt;Node10 -->
<g id="edge20" class="edge"><title>Node9&#45;&gt;Node10</title>
<path fill="none" stroke="midnightblue" d="M507.868,-11C516.873,-11 525.801,-11 534.308,-11"/>
<polygon fill="midnightblue" stroke="midnightblue" points="507.689,-7.5001 497.689,-11 507.689,-14.5001 507.689,-7.5001"/>
</g>
</g>
</svg>
