<?xml version="1.0" encoding="UTF-8" standalone="no"?>
<!DOCTYPE svg PUBLIC "-//W3C//DTD SVG 1.1//EN"
 "http://www.w3.org/Graphics/SVG/1.1/DTD/svg11.dtd">
<!-- Generated by graphviz version 2.26.3 (20100126.1600)
 -->
<!-- Title: G Pages: 1 -->
<svg width="480pt" height="70pt"
 viewBox="0.00 0.00 480.00 70.00" xmlns="http://www.w3.org/2000/svg" xmlns:xlink="http://www.w3.org/1999/xlink">
<g id="graph1" class="graph" transform="scale(1 1) rotate(0) translate(4 66)">
<title>G</title>
<polygon fill="white" stroke="white" points="-4,5 -4,-66 477,-66 477,5 -4,5"/>
<!-- Node1 -->
<g id="node1" class="node"><title>Node1</title>
<polygon fill="#bfbfbf" stroke="black" points="0,-20.5 0,-41.5 194,-41.5 194,-20.5 0,-20.5"/>
<text text-anchor="middle" x="97" y="-28.5" font-family="DejaVuSans" font-size="10.00">StorageCharacter::setSkillSpecialties</text>
</g>
<!-- Node2 -->
<g id="node3" class="node"><title>Node2</title>
<a xlink:href="classcv___trait.html#ab81924fd5e51488a35a63e246830e143" target="_top" xlink:title="cv_Trait::details">
<polygon fill="white" stroke="black" points="369.5,-40.5 369.5,-61.5 458.5,-61.5 458.5,-40.5 369.5,-40.5"/>
<text text-anchor="middle" x="414" y="-48.5" font-family="DejaVuSans" font-size="10.00">cv_Trait::details</text>
</a>
</g>
<!-- Node1&#45;&gt;Node2 -->
<g id="edge2" class="edge"><title>Node1&#45;&gt;Node2</title>
<path fill="none" stroke="midnightblue" d="M194.265,-37.1366C248.465,-40.5561 313.953,-44.6879 359.262,-47.5465"/>
<polygon fill="midnightblue" stroke="midnightblue" points="359.267,-51.0537 369.468,-48.1904 359.708,-44.0676 359.267,-51.0537"/>
</g>
<!-- Node3 -->
<g id="node5" class="node"><title>Node3</title>
<a xlink:href="class_trait.html#a8d2ca547e2dd3189858cbd8aa1c52efd" target="_top" xlink:title="Trait::setDetails">
<polygon fill="white" stroke="black" points="230,-1.5 230,-22.5 320,-22.5 320,-1.5 230,-1.5"/>
<text text-anchor="middle" x="275" y="-9.5" font-family="DejaVuSans" font-size="10.00">Trait::setDetails</text>
</a>
</g>
<!-- Node1&#45;&gt;Node3 -->
<g id="edge4" class="edge"><title>Node1&#45;&gt;Node3</title>
<path fill="none" stroke="midnightblue" d="M194.073,-20.6383C202.768,-19.7102 211.359,-18.7932 219.51,-17.9231"/>
<polygon fill="midnightblue" stroke="midnightblue" points="220.004,-21.3904 229.576,-16.8487 219.261,-14.4299 220.004,-21.3904"/>
</g>
<!-- Node3&#45;&gt;Node2 -->
<g id="edge6" class="edge"><title>Node3&#45;&gt;Node2</title>
<path fill="none" stroke="midnightblue" d="M312.615,-22.554C329.149,-27.1929 348.757,-32.6943 366.302,-37.617"/>
<polygon fill="midnightblue" stroke="midnightblue" points="365.781,-41.106 376.355,-40.4376 367.672,-34.3662 365.781,-41.106"/>
</g>
<!-- Node4 -->
<g id="node8" class="node"><title>Node4</title>
<a xlink:href="class_trait.html#ad83afc8c75c12274528a49fe56d10271" target="_top" xlink:title="Trait::detailsChanged">
<polygon fill="white" stroke="black" points="356,-0.5 356,-21.5 472,-21.5 472,-0.5 356,-0.5"/>
<text text-anchor="middle" x="414" y="-8.5" font-family="DejaVuSans" font-size="10.00">Trait::detailsChanged</text>
</a>
</g>
<!-- Node3&#45;&gt;Node4 -->
<g id="edge8" class="edge"><title>Node3&#45;&gt;Node4</title>
<path fill="none" stroke="midnightblue" d="M320.129,-11.6753C328.334,-11.6163 337.057,-11.5535 345.755,-11.491"/>
<polygon fill="midnightblue" stroke="midnightblue" points="345.945,-14.9898 355.92,-11.4178 345.895,-7.98997 345.945,-14.9898"/>
</g>
</g>
</svg>
