<?xml version="1.0" encoding="UTF-8" standalone="no"?>
<!DOCTYPE svg PUBLIC "-//W3C//DTD SVG 1.1//EN"
 "http://www.w3.org/Graphics/SVG/1.1/DTD/svg11.dtd">
<!-- Generated by graphviz version 2.26.3 (20100126.1600)
 -->
<!-- Title: G Pages: 1 -->
<svg width="264pt" height="162pt"
 viewBox="0.00 0.00 264.00 162.00" xmlns="http://www.w3.org/2000/svg" xmlns:xlink="http://www.w3.org/1999/xlink">
<g id="graph1" class="graph" transform="scale(1 1) rotate(0) translate(4 158)">
<title>G</title>
<polygon fill="white" stroke="white" points="-4,5 -4,-158 261,-158 261,5 -4,5"/>
<!-- Node1 -->
<g id="node1" class="node"><title>Node1</title>
<polygon fill="#bfbfbf" stroke="black" points="37.5,-0.5 37.5,-21.5 218.5,-21.5 218.5,-0.5 37.5,-0.5"/>
<text text-anchor="middle" x="128" y="-8.5" font-family="DejaVuSans" font-size="10.00">src.Widgets.Specialties.Specialties</text>
</g>
<!-- Node2 -->
<g id="node2" class="node"><title>Node2</title>
<a xlink:href="classsrc_1_1_widgets_1_1_components_1_1_checked_list_1_1_checked_list.html" target="_top" xlink:title="Erzeugt eine Liste, in welcher der Inhalt abgehakt werden kann.">
<polygon fill="white" stroke="black" points="-0.5,-60.5 -0.5,-81.5 256.5,-81.5 256.5,-60.5 -0.5,-60.5"/>
<text text-anchor="middle" x="128" y="-68.5" font-family="DejaVuSans" font-size="10.00">src.Widgets.Components.CheckedList.CheckedList</text>
</a>
</g>
<!-- Node2&#45;&gt;Node1 -->
<g id="edge2" class="edge"><title>Node2&#45;&gt;Node1</title>
<path fill="none" stroke="midnightblue" d="M128,-50.2312C128,-40.5922 128,-29.5444 128,-21.6339"/>
<polygon fill="midnightblue" stroke="midnightblue" points="124.5,-50.2732 128,-60.2732 131.5,-50.2732 124.5,-50.2732"/>
</g>
<!-- Node3 -->
<g id="node4" class="node"><title>Node3</title>
<polygon fill="white" stroke="#bfbfbf" points="54.5,-132.5 54.5,-153.5 127.5,-153.5 127.5,-132.5 54.5,-132.5"/>
<text text-anchor="middle" x="91" y="-140.5" font-family="DejaVuSans" font-size="10.00">QListWidget</text>
</g>
<!-- Node3&#45;&gt;Node2 -->
<g id="edge4" class="edge"><title>Node3&#45;&gt;Node2</title>
<path fill="none" stroke="midnightblue" d="M101.062,-123.419C107.972,-109.973 116.88,-92.6384 122.518,-81.6674"/>
<polygon fill="midnightblue" stroke="midnightblue" points="97.9172,-121.882 96.4595,-132.376 104.143,-125.082 97.9172,-121.882"/>
</g>
<!-- Node4 -->
<g id="node6" class="node"><title>Node4</title>
<polygon fill="white" stroke="#bfbfbf" points="144.5,-132.5 144.5,-153.5 185.5,-153.5 185.5,-132.5 144.5,-132.5"/>
<text text-anchor="middle" x="165" y="-140.5" font-family="DejaVuSans" font-size="10.00">tuple</text>
</g>
<!-- Node4&#45;&gt;Node2 -->
<g id="edge6" class="edge"><title>Node4&#45;&gt;Node2</title>
<path fill="none" stroke="#9a32cd" stroke-dasharray="5,2" d="M154.938,-123.419C148.028,-109.973 139.12,-92.6384 133.482,-81.6674"/>
<polygon fill="#9a32cd" stroke="#9a32cd" points="151.857,-125.082 159.541,-132.376 158.083,-121.882 151.857,-125.082"/>
<text text-anchor="middle" x="194.5" y="-104.5" font-family="DejaVuSans" font-size="10.00">itemStateChanged</text>
</g>
</g>
</svg>
