<?xml version="1.0" encoding="UTF-8" standalone="no"?>
<!DOCTYPE svg PUBLIC "-//W3C//DTD SVG 1.1//EN"
 "http://www.w3.org/Graphics/SVG/1.1/DTD/svg11.dtd">
<!-- Generated by graphviz version 2.26.3 (20100126.1600)
 -->
<!-- Title: G Pages: 1 -->
<svg width="246pt" height="70pt"
 viewBox="0.00 0.00 246.00 70.00" xmlns="http://www.w3.org/2000/svg" xmlns:xlink="http://www.w3.org/1999/xlink">
<g id="graph1" class="graph" transform="scale(1 1) rotate(0) translate(4 66)">
<title>G</title>
<polygon fill="white" stroke="white" points="-4,5 -4,-66 243,-66 243,5 -4,5"/>
<!-- Node1 -->
<g id="node1" class="node"><title>Node1</title>
<polygon fill="#bfbfbf" stroke="black" points="0.5,-20.5 0.5,-41.5 97.5,-41.5 97.5,-20.5 0.5,-20.5"/>
<text text-anchor="middle" x="49" y="-28.5" font-family="DejaVuSans" font-size="10.00">CheckTrait::value</text>
</g>
<!-- Node2 -->
<g id="node3" class="node"><title>Node2</title>
<a xlink:href="class_check_trait.html#a85928c20fd7d921c1d9b831168b9964e" target="_top" xlink:title="CheckTrait::traitPtr">
<polygon fill="white" stroke="black" points="134,-40.5 134,-61.5 238,-61.5 238,-40.5 134,-40.5"/>
<text text-anchor="middle" x="186" y="-48.5" font-family="DejaVuSans" font-size="10.00">CheckTrait::traitPtr</text>
</a>
</g>
<!-- Node1&#45;&gt;Node2 -->
<g id="edge2" class="edge"><title>Node1&#45;&gt;Node2</title>
<path fill="none" stroke="midnightblue" d="M97.6868,-38.1076C106.089,-39.3342 114.927,-40.6243 123.631,-41.8951"/>
<polygon fill="midnightblue" stroke="midnightblue" points="123.354,-45.3915 133.754,-43.3729 124.365,-38.465 123.354,-45.3915"/>
</g>
<!-- Node3 -->
<g id="node5" class="node"><title>Node3</title>
<a xlink:href="classcv___trait.html#a965fb56fc4ff6e659b4c44752cfaa538" target="_top" xlink:title="cv_Trait::value">
<polygon fill="white" stroke="black" points="144.5,-0.5 144.5,-21.5 227.5,-21.5 227.5,-0.5 144.5,-0.5"/>
<text text-anchor="middle" x="186" y="-8.5" font-family="DejaVuSans" font-size="10.00">cv_Trait::value</text>
</a>
</g>
<!-- Node1&#45;&gt;Node3 -->
<g id="edge4" class="edge"><title>Node1&#45;&gt;Node3</title>
<path fill="none" stroke="midnightblue" d="M97.6868,-23.8924C109.465,-22.173 122.098,-20.3288 134.021,-18.5882"/>
<polygon fill="midnightblue" stroke="midnightblue" points="134.887,-21.999 144.276,-17.091 133.876,-15.0724 134.887,-21.999"/>
</g>
</g>
</svg>
