<?xml version="1.0" encoding="UTF-8" standalone="no"?>
<!DOCTYPE svg PUBLIC "-//W3C//DTD SVG 1.1//EN"
 "http://www.w3.org/Graphics/SVG/1.1/DTD/svg11.dtd">
<!-- Generated by graphviz version 2.26.3 (20100126.1600)
 -->
<!-- Title: G Pages: 1 -->
<svg width="526pt" height="30pt"
 viewBox="0.00 0.00 526.00 30.00" xmlns="http://www.w3.org/2000/svg" xmlns:xlink="http://www.w3.org/1999/xlink">
<g id="graph1" class="graph" transform="scale(1 1) rotate(0) translate(4 26)">
<title>G</title>
<polygon fill="white" stroke="white" points="-4,5 -4,-26 523,-26 523,5 -4,5"/>
<!-- Node1 -->
<g id="node1" class="node"><title>Node1</title>
<polygon fill="#bfbfbf" stroke="black" points="0,-0.5 0,-21.5 192,-21.5 192,-0.5 0,-0.5"/>
<text text-anchor="middle" x="96" y="-8.5" font-family="DejaVuSans" font-size="10.00">StorageTemplate::meritPrerequisites</text>
</g>
<!-- Node2 -->
<g id="node3" class="node"><title>Node2</title>
<a xlink:href="class_storage_template.html#a5d5beec85c0760ed8129a2585e7a94d4" target="_top" xlink:title="StorageTemplate::traits">
<polygon fill="white" stroke="black" points="228.5,-0.5 228.5,-21.5 357.5,-21.5 357.5,-0.5 228.5,-0.5"/>
<text text-anchor="middle" x="293" y="-8.5" font-family="DejaVuSans" font-size="10.00">StorageTemplate::traits</text>
</a>
</g>
<!-- Node1&#45;&gt;Node2 -->
<g id="edge2" class="edge"><title>Node1&#45;&gt;Node2</title>
<path fill="none" stroke="midnightblue" d="M192.192,-11C200.941,-11 209.714,-11 218.236,-11"/>
<polygon fill="midnightblue" stroke="midnightblue" points="218.486,-14.5001 228.486,-11 218.486,-7.5001 218.486,-14.5001"/>
</g>
<!-- Node3 -->
<g id="node5" class="node"><title>Node3</title>
<a xlink:href="class_storage_template.html#aceb757eb50e7326356f589179d78ee89" target="_top" xlink:title="StorageTemplate::trait">
<polygon fill="white" stroke="black" points="394,-0.5 394,-21.5 518,-21.5 518,-0.5 394,-0.5"/>
<text text-anchor="middle" x="456" y="-8.5" font-family="DejaVuSans" font-size="10.00">StorageTemplate::trait</text>
</a>
</g>
<!-- Node2&#45;&gt;Node3 -->
<g id="edge4" class="edge"><title>Node2&#45;&gt;Node3</title>
<path fill="none" stroke="midnightblue" d="M357.89,-11C366.441,-11 375.246,-11 383.908,-11"/>
<polygon fill="midnightblue" stroke="midnightblue" points="383.986,-14.5001 393.986,-11 383.986,-7.5001 383.986,-14.5001"/>
</g>
</g>
</svg>
