<?xml version="1.0" encoding="UTF-8" standalone="no"?>
<!DOCTYPE svg PUBLIC "-//W3C//DTD SVG 1.1//EN"
 "http://www.w3.org/Graphics/SVG/1.1/DTD/svg11.dtd">
<!-- Generated by graphviz version 2.26.3 (20100126.1600)
 -->
<!-- Title: G Pages: 1 -->
<svg width="258pt" height="70pt"
 viewBox="0.00 0.00 258.00 70.00" xmlns="http://www.w3.org/2000/svg" xmlns:xlink="http://www.w3.org/1999/xlink">
<g id="graph1" class="graph" transform="scale(1 1) rotate(0) translate(4 66)">
<title>G</title>
<polygon fill="white" stroke="white" points="-4,5 -4,-66 255,-66 255,5 -4,5"/>
<!-- Node1 -->
<g id="node1" class="node"><title>Node1</title>
<polygon fill="#bfbfbf" stroke="black" points="0,-20.5 0,-41.5 98,-41.5 98,-20.5 0,-20.5"/>
<text text-anchor="middle" x="49" y="-28.5" font-family="DejaVuSans" font-size="10.00">Trait::clearDetails</text>
</g>
<!-- Node2 -->
<g id="node3" class="node"><title>Node2</title>
<a xlink:href="classcv___trait.html#ab81924fd5e51488a35a63e246830e143" target="_top" xlink:title="cv_Trait::details">
<polygon fill="white" stroke="black" points="147.5,-40.5 147.5,-61.5 236.5,-61.5 236.5,-40.5 147.5,-40.5"/>
<text text-anchor="middle" x="192" y="-48.5" font-family="DejaVuSans" font-size="10.00">cv_Trait::details</text>
</a>
</g>
<!-- Node1&#45;&gt;Node2 -->
<g id="edge2" class="edge"><title>Node1&#45;&gt;Node2</title>
<path fill="none" stroke="midnightblue" d="M98.2125,-37.8829C110.835,-39.6482 124.487,-41.5576 137.365,-43.3587"/>
<polygon fill="midnightblue" stroke="midnightblue" points="137.104,-46.8562 147.492,-44.7751 138.073,-39.9236 137.104,-46.8562"/>
</g>
<!-- Node3 -->
<g id="node5" class="node"><title>Node3</title>
<a xlink:href="class_trait.html#ad83afc8c75c12274528a49fe56d10271" target="_top" xlink:title="Trait::detailsChanged">
<polygon fill="white" stroke="black" points="134,-0.5 134,-21.5 250,-21.5 250,-0.5 134,-0.5"/>
<text text-anchor="middle" x="192" y="-8.5" font-family="DejaVuSans" font-size="10.00">Trait::detailsChanged</text>
</a>
</g>
<!-- Node1&#45;&gt;Node3 -->
<g id="edge4" class="edge"><title>Node1&#45;&gt;Node3</title>
<path fill="none" stroke="midnightblue" d="M98.2125,-24.1171C106.458,-22.9639 115.143,-21.7492 123.765,-20.5434"/>
<polygon fill="midnightblue" stroke="midnightblue" points="124.408,-23.9876 133.827,-19.1361 123.438,-17.0551 124.408,-23.9876"/>
</g>
</g>
</svg>
