<?xml version="1.0" encoding="UTF-8" standalone="no"?>
<!DOCTYPE svg PUBLIC "-//W3C//DTD SVG 1.1//EN"
 "http://www.w3.org/Graphics/SVG/1.1/DTD/svg11.dtd">
<!-- Generated by graphviz version 2.26.3 (20100126.1600)
 -->
<!-- Title: G Pages: 1 -->
<svg width="488pt" height="70pt"
 viewBox="0.00 0.00 488.00 70.00" xmlns="http://www.w3.org/2000/svg" xmlns:xlink="http://www.w3.org/1999/xlink">
<g id="graph1" class="graph" transform="scale(1 1) rotate(0) translate(4 66)">
<title>G</title>
<polygon fill="white" stroke="white" points="-4,5 -4,-66 485,-66 485,5 -4,5"/>
<!-- Node1 -->
<g id="node1" class="node"><title>Node1</title>
<polygon fill="#bfbfbf" stroke="black" points="0,-20.5 0,-41.5 194,-41.5 194,-20.5 0,-20.5"/>
<text text-anchor="middle" x="97" y="-28.5" font-family="DejaVuSans" font-size="10.00">StorageCharacter::setSkillSpecialties</text>
</g>
<!-- Node2 -->
<g id="node3" class="node"><title>Node2</title>
<a xlink:href="class_trait.html#ab6460ff9f5e4837d97c857cc06e0fa21" target="_top" xlink:title="Trait::addDetail">
<polygon fill="white" stroke="black" points="235,-40.5 235,-61.5 323,-61.5 323,-40.5 235,-40.5"/>
<text text-anchor="middle" x="279" y="-48.5" font-family="DejaVuSans" font-size="10.00">Trait::addDetail</text>
</a>
</g>
<!-- Node1&#45;&gt;Node2 -->
<g id="edge2" class="edge"><title>Node1&#45;&gt;Node2</title>
<path fill="none" stroke="midnightblue" d="M192.797,-41.5271C203.729,-42.7285 214.568,-43.9196 224.682,-45.031"/>
<polygon fill="midnightblue" stroke="midnightblue" points="224.609,-48.544 234.932,-46.1574 225.374,-41.5859 224.609,-48.544"/>
</g>
<!-- Node5 -->
<g id="node9" class="node"><title>Node5</title>
<a xlink:href="class_trait.html#aa416615b30fcac6dbcfc064d7ad1d40b" target="_top" xlink:title="Trait::clearDetails">
<polygon fill="white" stroke="black" points="230,-0.5 230,-21.5 328,-21.5 328,-0.5 230,-0.5"/>
<text text-anchor="middle" x="279" y="-8.5" font-family="DejaVuSans" font-size="10.00">Trait::clearDetails</text>
</a>
</g>
<!-- Node1&#45;&gt;Node5 -->
<g id="edge8" class="edge"><title>Node1&#45;&gt;Node5</title>
<path fill="none" stroke="midnightblue" d="M192.797,-20.4729C202.03,-19.4583 211.196,-18.451 219.915,-17.4928"/>
<polygon fill="midnightblue" stroke="midnightblue" points="220.365,-20.9646 229.922,-16.3931 219.6,-14.0065 220.365,-20.9646"/>
</g>
<!-- Node3 -->
<g id="node5" class="node"><title>Node3</title>
<a xlink:href="classcv___trait.html#ab81924fd5e51488a35a63e246830e143" target="_top" xlink:title="cv_Trait::details">
<polygon fill="white" stroke="black" points="377.5,-40.5 377.5,-61.5 466.5,-61.5 466.5,-40.5 377.5,-40.5"/>
<text text-anchor="middle" x="422" y="-48.5" font-family="DejaVuSans" font-size="10.00">cv_Trait::details</text>
</a>
</g>
<!-- Node2&#45;&gt;Node3 -->
<g id="edge4" class="edge"><title>Node2&#45;&gt;Node3</title>
<path fill="none" stroke="midnightblue" d="M323.072,-51C336.939,-51 352.429,-51 366.96,-51"/>
<polygon fill="midnightblue" stroke="midnightblue" points="367.335,-54.5001 377.334,-51 367.334,-47.5001 367.335,-54.5001"/>
</g>
<!-- Node4 -->
<g id="node7" class="node"><title>Node4</title>
<a xlink:href="class_trait.html#ad83afc8c75c12274528a49fe56d10271" target="_top" xlink:title="Trait::detailsChanged">
<polygon fill="white" stroke="black" points="364,-0.5 364,-21.5 480,-21.5 480,-0.5 364,-0.5"/>
<text text-anchor="middle" x="422" y="-8.5" font-family="DejaVuSans" font-size="10.00">Trait::detailsChanged</text>
</a>
</g>
<!-- Node2&#45;&gt;Node4 -->
<g id="edge6" class="edge"><title>Node2&#45;&gt;Node4</title>
<path fill="none" stroke="midnightblue" d="M316.572,-40.4905C334.248,-35.546 355.526,-29.5942 374.323,-24.3361"/>
<polygon fill="midnightblue" stroke="midnightblue" points="375.495,-27.6427 384.183,-21.5782 373.61,-20.9015 375.495,-27.6427"/>
</g>
<!-- Node5&#45;&gt;Node3 -->
<g id="edge10" class="edge"><title>Node5&#45;&gt;Node3</title>
<path fill="none" stroke="midnightblue" d="M316.572,-21.5095C334.248,-26.454 355.526,-32.4058 374.323,-37.6639"/>
<polygon fill="midnightblue" stroke="midnightblue" points="373.61,-41.0985 384.183,-40.4218 375.495,-34.3573 373.61,-41.0985"/>
</g>
<!-- Node5&#45;&gt;Node4 -->
<g id="edge12" class="edge"><title>Node5&#45;&gt;Node4</title>
<path fill="none" stroke="midnightblue" d="M328.212,-11C336.458,-11 345.143,-11 353.765,-11"/>
<polygon fill="midnightblue" stroke="midnightblue" points="353.827,-14.5001 363.827,-11 353.827,-7.5001 353.827,-14.5001"/>
</g>
</g>
</svg>
