<?xml version="1.0" encoding="UTF-8" standalone="no"?>
<!DOCTYPE svg PUBLIC "-//W3C//DTD SVG 1.1//EN"
 "http://www.w3.org/Graphics/SVG/1.1/DTD/svg11.dtd">
<!-- Generated by graphviz version 2.26.3 (20100126.1600)
 -->
<!-- Title: G Pages: 1 -->
<svg width="486pt" height="30pt"
 viewBox="0.00 0.00 486.00 30.00" xmlns="http://www.w3.org/2000/svg" xmlns:xlink="http://www.w3.org/1999/xlink">
<g id="graph1" class="graph" transform="scale(1 1) rotate(0) translate(4 26)">
<title>G</title>
<polygon fill="white" stroke="white" points="-4,5 -4,-26 483,-26 483,5 -4,5"/>
<!-- Node1 -->
<g id="node1" class="node"><title>Node1</title>
<polygon fill="#bfbfbf" stroke="black" points="0.5,-0.5 0.5,-21.5 107.5,-21.5 107.5,-0.5 0.5,-0.5"/>
<text text-anchor="middle" x="54" y="-8.5" font-family="DejaVuSans" font-size="10.00">CharaTrait::custom</text>
</g>
<!-- Node2 -->
<g id="node3" class="node"><title>Node2</title>
<a xlink:href="class_chara_trait.html#a794ddd73f3604b16fe4b468b4a02f7df" target="_top" xlink:title="CharaTrait::hideDescriptionWidget">
<polygon fill="white" stroke="black" points="144.5,-0.5 144.5,-21.5 321.5,-21.5 321.5,-0.5 144.5,-0.5"/>
<text text-anchor="middle" x="233" y="-8.5" font-family="DejaVuSans" font-size="10.00">CharaTrait::hideDescriptionWidget</text>
</a>
</g>
<!-- Node1&#45;&gt;Node2 -->
<g id="edge2" class="edge"><title>Node1&#45;&gt;Node2</title>
<path fill="none" stroke="midnightblue" d="M117.922,-11C126.455,-11 135.326,-11 144.188,-11"/>
<polygon fill="midnightblue" stroke="midnightblue" points="117.706,-7.5001 107.706,-11 117.706,-14.5001 117.706,-7.5001"/>
</g>
<!-- Node3 -->
<g id="node5" class="node"><title>Node3</title>
<a xlink:href="class_chara_trait.html#a21787eb972b4fc8779368a78f4430f14" target="_top" xlink:title="CharaTrait::CharaTrait">
<polygon fill="white" stroke="black" points="358.5,-0.5 358.5,-21.5 477.5,-21.5 477.5,-0.5 358.5,-0.5"/>
<text text-anchor="middle" x="418" y="-8.5" font-family="DejaVuSans" font-size="10.00">CharaTrait::CharaTrait</text>
</a>
</g>
<!-- Node2&#45;&gt;Node3 -->
<g id="edge4" class="edge"><title>Node2&#45;&gt;Node3</title>
<path fill="none" stroke="midnightblue" d="M331.902,-11C340.918,-11 349.853,-11 358.361,-11"/>
<polygon fill="midnightblue" stroke="midnightblue" points="331.707,-7.5001 321.707,-11 331.707,-14.5001 331.707,-7.5001"/>
</g>
</g>
</svg>
