<?xml version="1.0" encoding="UTF-8" standalone="no"?>
<!DOCTYPE svg PUBLIC "-//W3C//DTD SVG 1.1//EN"
 "http://www.w3.org/Graphics/SVG/1.1/DTD/svg11.dtd">
<!-- Generated by graphviz version 2.26.3 (20100126.1600)
 -->
<!-- Title: G Pages: 1 -->
<svg width="502pt" height="30pt"
 viewBox="0.00 0.00 502.00 30.00" xmlns="http://www.w3.org/2000/svg" xmlns:xlink="http://www.w3.org/1999/xlink">
<g id="graph1" class="graph" transform="scale(1 1) rotate(0) translate(4 26)">
<title>G</title>
<polygon fill="white" stroke="white" points="-4,5 -4,-26 499,-26 499,5 -4,5"/>
<!-- Node1 -->
<g id="node1" class="node"><title>Node1</title>
<polygon fill="#bfbfbf" stroke="black" points="0,-0.5 0,-21.5 134,-21.5 134,-0.5 0,-0.5"/>
<text text-anchor="middle" x="67" y="-8.5" font-family="DejaVuSans" font-size="10.00">TraitLine::hideSpecialties</text>
</g>
<!-- Node2 -->
<g id="node3" class="node"><title>Node2</title>
<a xlink:href="class_chara_trait.html#a06ea530908c65caf8aad3f494f0d2cb8" target="_top" xlink:title="CharaTrait::hideSpecialtyWidget">
<polygon fill="white" stroke="black" points="170.5,-0.5 170.5,-21.5 337.5,-21.5 337.5,-0.5 170.5,-0.5"/>
<text text-anchor="middle" x="254" y="-8.5" font-family="DejaVuSans" font-size="10.00">CharaTrait::hideSpecialtyWidget</text>
</a>
</g>
<!-- Node1&#45;&gt;Node2 -->
<g id="edge2" class="edge"><title>Node1&#45;&gt;Node2</title>
<path fill="none" stroke="midnightblue" d="M144.266,-11C152.891,-11 161.706,-11 170.405,-11"/>
<polygon fill="midnightblue" stroke="midnightblue" points="144.247,-7.5001 134.247,-11 144.247,-14.5001 144.247,-7.5001"/>
</g>
<!-- Node3 -->
<g id="node5" class="node"><title>Node3</title>
<a xlink:href="class_chara_trait.html#acfe4795a41019f6c92e85e82c0a6ab1a" target="_top" xlink:title="CharaTrait::CharaTrait">
<polygon fill="white" stroke="black" points="374.5,-0.5 374.5,-21.5 493.5,-21.5 493.5,-0.5 374.5,-0.5"/>
<text text-anchor="middle" x="434" y="-8.5" font-family="DejaVuSans" font-size="10.00">CharaTrait::CharaTrait</text>
</a>
</g>
<!-- Node2&#45;&gt;Node3 -->
<g id="edge4" class="edge"><title>Node2&#45;&gt;Node3</title>
<path fill="none" stroke="midnightblue" d="M347.86,-11C356.878,-11 365.844,-11 374.395,-11"/>
<polygon fill="midnightblue" stroke="midnightblue" points="347.677,-7.5001 337.677,-11 347.676,-14.5001 347.677,-7.5001"/>
</g>
</g>
</svg>
