<?xml version="1.0" encoding="UTF-8" standalone="no"?>
<!DOCTYPE svg PUBLIC "-//W3C//DTD SVG 1.1//EN"
 "http://www.w3.org/Graphics/SVG/1.1/DTD/svg11.dtd">
<!-- Generated by graphviz version 2.26.3 (20100126.1600)
 -->
<!-- Title: G Pages: 1 -->
<svg width="832pt" height="343pt"
 viewBox="0.00 0.00 832.00 343.00" xmlns="http://www.w3.org/2000/svg" xmlns:xlink="http://www.w3.org/1999/xlink">
<g id="graph1" class="graph" transform="scale(1 1) rotate(0) translate(4 339)">
<title>G</title>
<polygon fill="white" stroke="white" points="-4,5 -4,-339 829,-339 829,5 -4,5"/>
<!-- Node1 -->
<g id="node1" class="node"><title>Node1</title>
<polygon fill="#bfbfbf" stroke="black" points="0,-156.5 0,-177.5 120,-177.5 120,-156.5 0,-156.5"/>
<text text-anchor="middle" x="60" y="-164.5" font-family="DejaVuSans" font-size="10.00">CheckTrait::CheckTrait</text>
</g>
<!-- Node2 -->
<g id="node3" class="node"><title>Node2</title>
<a xlink:href="class_storage_character.html#a50022b948be1e566d902d64095c4470b" target="_top" xlink:title="StorageCharacter::getInstance">
<polygon fill="white" stroke="black" points="163,-313.5 163,-334.5 327,-334.5 327,-313.5 163,-313.5"/>
<text text-anchor="middle" x="245" y="-321.5" font-family="DejaVuSans" font-size="10.00">StorageCharacter::getInstance</text>
</a>
</g>
<!-- Node1&#45;&gt;Node2 -->
<g id="edge2" class="edge"><title>Node1&#45;&gt;Node2</title>
<path fill="none" stroke="midnightblue" d="M64.1812,-177.579C75.0431,-203.606 106.779,-271.022 156,-304 158.917,-305.954 161.996,-307.72 165.188,-309.316"/>
<polygon fill="midnightblue" stroke="midnightblue" points="163.875,-312.562 174.439,-313.375 166.688,-306.152 163.875,-312.562"/>
</g>
<!-- Node3 -->
<g id="node5" class="node"><title>Node3</title>
<a xlink:href="class_check_trait.html#aa15b135c1ef0c0647e9bf49a0735f52a" target="_top" xlink:title="CheckTrait::hideDescriptionWidget">
<polygon fill="white" stroke="black" points="156,-273.5 156,-294.5 334,-294.5 334,-273.5 156,-273.5"/>
<text text-anchor="middle" x="245" y="-281.5" font-family="DejaVuSans" font-size="10.00">CheckTrait::hideDescriptionWidget</text>
</a>
</g>
<!-- Node1&#45;&gt;Node3 -->
<g id="edge4" class="edge"><title>Node1&#45;&gt;Node3</title>
<path fill="none" stroke="midnightblue" d="M68.0195,-177.552C83.1192,-196.682 117.715,-237.131 156,-259 163.88,-263.501 172.622,-267.234 181.459,-270.318"/>
<polygon fill="midnightblue" stroke="midnightblue" points="180.459,-273.673 191.051,-273.415 182.61,-267.011 180.459,-273.673"/>
</g>
<!-- Node5 -->
<g id="node9" class="node"><title>Node5</title>
<a xlink:href="class_check_trait.html#a38b03dfbcc01dbb65a9b345423e232db" target="_top" xlink:title="CheckTrait::hideTraitIfNotAvailable">
<polygon fill="white" stroke="black" points="157,-156.5 157,-177.5 333,-177.5 333,-156.5 157,-156.5"/>
<text text-anchor="middle" x="245" y="-164.5" font-family="DejaVuSans" font-size="10.00">CheckTrait::hideTraitIfNotAvailable</text>
</a>
</g>
<!-- Node1&#45;&gt;Node5 -->
<g id="edge8" class="edge"><title>Node1&#45;&gt;Node5</title>
<path fill="none" stroke="midnightblue" d="M120.064,-167C128.573,-167 137.501,-167 146.505,-167"/>
<polygon fill="midnightblue" stroke="midnightblue" points="146.685,-170.5 156.685,-167 146.685,-163.5 146.685,-170.5"/>
</g>
<!-- Node6 -->
<g id="node11" class="node"><title>Node6</title>
<a xlink:href="class_check_trait.html#a9073e7f8bbac8c351bf829b23a9fc850" target="_top" xlink:title="CheckTrait::setValue">
<polygon fill="white" stroke="black" points="385.5,-115.5 385.5,-136.5 498.5,-136.5 498.5,-115.5 385.5,-115.5"/>
<text text-anchor="middle" x="442" y="-123.5" font-family="DejaVuSans" font-size="10.00">CheckTrait::setValue</text>
</a>
</g>
<!-- Node1&#45;&gt;Node6 -->
<g id="edge34" class="edge"><title>Node1&#45;&gt;Node6</title>
<path fill="none" stroke="midnightblue" d="M104.717,-156.405C120.804,-152.934 139.141,-149.365 156,-147 230.651,-136.53 317.042,-131.099 375.173,-128.409"/>
<polygon fill="midnightblue" stroke="midnightblue" points="375.497,-131.898 385.33,-127.953 375.183,-124.905 375.497,-131.898"/>
</g>
<!-- Node7 -->
<g id="node13" class="node"><title>Node7</title>
<a xlink:href="class_check_trait.html#a6fc70482737108eb58606a8eed553e04" target="_top" xlink:title="CheckTrait::traitChanged">
<polygon fill="white" stroke="black" points="550,-233.5 550,-254.5 684,-254.5 684,-233.5 550,-233.5"/>
<text text-anchor="middle" x="617" y="-241.5" font-family="DejaVuSans" font-size="10.00">CheckTrait::traitChanged</text>
</a>
</g>
<!-- Node1&#45;&gt;Node7 -->
<g id="edge38" class="edge"><title>Node1&#45;&gt;Node7</title>
<path fill="none" stroke="midnightblue" d="M79.5784,-177.571C98.537,-187.268 128.388,-201.132 156,-208 287.971,-240.824 447.145,-245.971 539.734,-245.697"/>
<polygon fill="midnightblue" stroke="midnightblue" points="539.88,-249.196 549.862,-245.644 539.843,-242.196 539.88,-249.196"/>
</g>
<!-- Node11 -->
<g id="node22" class="node"><title>Node11</title>
<a xlink:href="class_check_trait.html#a70a2f81f0fc8e246b3296583ec853b4a" target="_top" xlink:title="CheckTrait::setCustomText">
<polygon fill="white" stroke="black" points="370.5,-195.5 370.5,-216.5 513.5,-216.5 513.5,-195.5 370.5,-195.5"/>
<text text-anchor="middle" x="442" y="-203.5" font-family="DejaVuSans" font-size="10.00">CheckTrait::setCustomText</text>
</a>
</g>
<!-- Node1&#45;&gt;Node11 -->
<g id="edge22" class="edge"><title>Node1&#45;&gt;Node11</title>
<path fill="none" stroke="midnightblue" d="M104.226,-177.556C120.427,-181.067 138.964,-184.671 156,-187 224.488,-196.363 302.858,-201.159 360.221,-203.588"/>
<polygon fill="midnightblue" stroke="midnightblue" points="360.185,-207.089 370.319,-204 360.471,-200.095 360.185,-207.089"/>
</g>
<!-- Node13 -->
<g id="node29" class="node"><title>Node13</title>
<a xlink:href="class_check_trait.html#afaf1ac221b2b07813b11a940c26942d4" target="_top" xlink:title="CheckTrait::setTraitPtr">
<polygon fill="white" stroke="black" points="185.5,-40.5 185.5,-61.5 304.5,-61.5 304.5,-40.5 185.5,-40.5"/>
<text text-anchor="middle" x="245" y="-48.5" font-family="DejaVuSans" font-size="10.00">CheckTrait::setTraitPtr</text>
</a>
</g>
<!-- Node1&#45;&gt;Node13 -->
<g id="edge32" class="edge"><title>Node1&#45;&gt;Node13</title>
<path fill="none" stroke="midnightblue" d="M68.2859,-156.268C83.5531,-137.232 118.054,-97.5383 156,-76 163.893,-71.5201 172.641,-67.7996 181.482,-64.7215"/>
<polygon fill="midnightblue" stroke="midnightblue" points="182.632,-68.0281 191.075,-61.628 180.484,-61.3659 182.632,-68.0281"/>
</g>
<!-- Node14 -->
<g id="node32" class="node"><title>Node14</title>
<a xlink:href="class_check_trait.html#ab3eeaf83829a18b9c621d3a073cde5ba" target="_top" xlink:title="CheckTrait::stateChanged">
<polygon fill="white" stroke="black" points="175.5,-0.5 175.5,-21.5 314.5,-21.5 314.5,-0.5 175.5,-0.5"/>
<text text-anchor="middle" x="245" y="-8.5" font-family="DejaVuSans" font-size="10.00">CheckTrait::stateChanged</text>
</a>
</g>
<!-- Node1&#45;&gt;Node14 -->
<g id="edge36" class="edge"><title>Node1&#45;&gt;Node14</title>
<path fill="none" stroke="midnightblue" d="M64.204,-156.497C75.1179,-130.659 106.963,-63.7327 156,-31 159.149,-28.8981 162.486,-27.0143 165.948,-25.3263"/>
<polygon fill="midnightblue" stroke="midnightblue" points="167.545,-28.4501 175.363,-21.2998 164.792,-22.014 167.545,-28.4501"/>
</g>
<!-- Node15 -->
<g id="node35" class="node"><title>Node15</title>
<a xlink:href="class_check_trait.html#a894ea83addabc03a7a6ca5a167fe3e49" target="_top" xlink:title="CheckTrait::updateWidget">
<polygon fill="white" stroke="black" points="373.5,-75.5 373.5,-96.5 510.5,-96.5 510.5,-75.5 373.5,-75.5"/>
<text text-anchor="middle" x="442" y="-83.5" font-family="DejaVuSans" font-size="10.00">CheckTrait::updateWidget</text>
</a>
</g>
<!-- Node1&#45;&gt;Node15 -->
<g id="edge40" class="edge"><title>Node1&#45;&gt;Node15</title>
<path fill="none" stroke="midnightblue" d="M80.4002,-156.405C99.4525,-146.97 128.937,-133.528 156,-126 224.577,-106.925 305.056,-96.7047 363.142,-91.3847"/>
<polygon fill="midnightblue" stroke="midnightblue" points="363.703,-94.8487 373.355,-90.4785 363.085,-87.8761 363.703,-94.8487"/>
</g>
<!-- Node4 -->
<g id="node7" class="node"><title>Node4</title>
<a xlink:href="class_check_trait.html#a2dccc399d6c44877ca880bdd17d47ac2" target="_top" xlink:title="CheckTrait::custom">
<polygon fill="white" stroke="black" points="388.5,-273.5 388.5,-294.5 495.5,-294.5 495.5,-273.5 388.5,-273.5"/>
<text text-anchor="middle" x="442" y="-281.5" font-family="DejaVuSans" font-size="10.00">CheckTrait::custom</text>
</a>
</g>
<!-- Node3&#45;&gt;Node4 -->
<g id="edge6" class="edge"><title>Node3&#45;&gt;Node4</title>
<path fill="none" stroke="midnightblue" d="M334.278,-284C349.105,-284 364.214,-284 378.244,-284"/>
<polygon fill="midnightblue" stroke="midnightblue" points="378.25,-287.5 388.25,-284 378.25,-280.5 378.25,-287.5"/>
</g>
<!-- Node5&#45;&gt;Node6 -->
<g id="edge10" class="edge"><title>Node5&#45;&gt;Node6</title>
<path fill="none" stroke="midnightblue" d="M295.477,-156.495C321.672,-151.043 353.866,-144.343 381.4,-138.612"/>
<polygon fill="midnightblue" stroke="midnightblue" points="382.236,-142.013 391.313,-136.549 380.809,-135.16 382.236,-142.013"/>
</g>
<!-- Node10 -->
<g id="node20" class="node"><title>Node10</title>
<a xlink:href="class_check_trait.html#ae1f7c66daf473387e3c8ea8e4857bc14" target="_top" xlink:title="CheckTrait::species">
<polygon fill="white" stroke="black" points="388.5,-155.5 388.5,-176.5 495.5,-176.5 495.5,-155.5 388.5,-155.5"/>
<text text-anchor="middle" x="442" y="-163.5" font-family="DejaVuSans" font-size="10.00">CheckTrait::species</text>
</a>
</g>
<!-- Node5&#45;&gt;Node10 -->
<g id="edge20" class="edge"><title>Node5&#45;&gt;Node10</title>
<path fill="none" stroke="midnightblue" d="M333.128,-166.553C348.297,-166.476 363.797,-166.397 378.169,-166.324"/>
<polygon fill="midnightblue" stroke="midnightblue" points="378.431,-169.823 388.413,-166.272 378.395,-162.823 378.431,-169.823"/>
</g>
<!-- Node6&#45;&gt;Node7 -->
<g id="edge12" class="edge"><title>Node6&#45;&gt;Node7</title>
<path fill="none" stroke="midnightblue" d="M493.862,-136.544C500.904,-139.066 507.823,-142.175 514,-146 534.334,-158.592 532.925,-169.252 550,-186 564.735,-200.453 582.426,-215.686 595.929,-226.913"/>
<polygon fill="midnightblue" stroke="midnightblue" points="593.787,-229.684 603.731,-233.342 598.239,-224.282 593.787,-229.684"/>
</g>
<!-- Node8 -->
<g id="node15" class="node"><title>Node8</title>
<a xlink:href="class_check_trait.html#a85928c20fd7d921c1d9b831168b9964e" target="_top" xlink:title="CheckTrait::traitPtr">
<polygon fill="white" stroke="black" points="720,-116.5 720,-137.5 824,-137.5 824,-116.5 720,-116.5"/>
<text text-anchor="middle" x="772" y="-124.5" font-family="DejaVuSans" font-size="10.00">CheckTrait::traitPtr</text>
</a>
</g>
<!-- Node6&#45;&gt;Node8 -->
<g id="edge14" class="edge"><title>Node6&#45;&gt;Node8</title>
<path fill="none" stroke="midnightblue" d="M498.729,-126.172C557.435,-126.35 648.881,-126.627 709.598,-126.811"/>
<polygon fill="midnightblue" stroke="midnightblue" points="709.804,-130.311 719.814,-126.842 709.825,-123.311 709.804,-130.311"/>
</g>
<!-- Node9 -->
<g id="node17" class="node"><title>Node9</title>
<a xlink:href="class_check_trait.html#a4399a810312044b74f6227955a1879a9" target="_top" xlink:title="CheckTrait::value">
<polygon fill="white" stroke="black" points="568.5,-77.5 568.5,-98.5 665.5,-98.5 665.5,-77.5 568.5,-77.5"/>
<text text-anchor="middle" x="617" y="-85.5" font-family="DejaVuSans" font-size="10.00">CheckTrait::value</text>
</a>
</g>
<!-- Node6&#45;&gt;Node9 -->
<g id="edge16" class="edge"><title>Node6&#45;&gt;Node9</title>
<path fill="none" stroke="midnightblue" d="M490.747,-115.415C511.796,-110.844 536.594,-105.46 558.615,-100.678"/>
<polygon fill="midnightblue" stroke="midnightblue" points="559.485,-104.071 568.514,-98.5284 557.999,-97.2301 559.485,-104.071"/>
</g>
<!-- Node9&#45;&gt;Node8 -->
<g id="edge18" class="edge"><title>Node9&#45;&gt;Node8</title>
<path fill="none" stroke="midnightblue" d="M658.945,-98.554C677.813,-103.301 700.27,-108.952 720.179,-113.961"/>
<polygon fill="midnightblue" stroke="midnightblue" points="719.469,-117.392 730.021,-116.438 721.178,-110.603 719.469,-117.392"/>
</g>
<!-- Node11&#45;&gt;Node7 -->
<g id="edge28" class="edge"><title>Node11&#45;&gt;Node7</title>
<path fill="none" stroke="midnightblue" d="M490.747,-216.585C511.796,-221.156 536.594,-226.54 558.615,-231.322"/>
<polygon fill="midnightblue" stroke="midnightblue" points="557.999,-234.77 568.514,-233.472 559.485,-227.929 557.999,-234.77"/>
</g>
<!-- Node11&#45;&gt;Node8 -->
<g id="edge30" class="edge"><title>Node11&#45;&gt;Node8</title>
<path fill="none" stroke="midnightblue" d="M513.581,-209.414C562.815,-209.538 628.987,-205.246 684,-186 710.021,-176.897 735.736,-158.23 752.585,-144.318"/>
<polygon fill="midnightblue" stroke="midnightblue" points="755.191,-146.696 760.542,-137.552 750.657,-141.364 755.191,-146.696"/>
</g>
<!-- Node12 -->
<g id="node24" class="node"><title>Node12</title>
<a xlink:href="class_check_trait.html#a4ec4f95d6f1ff25331964d85393f0f3f" target="_top" xlink:title="CheckTrait::customText">
<polygon fill="white" stroke="black" points="554,-155.5 554,-176.5 680,-176.5 680,-155.5 554,-155.5"/>
<text text-anchor="middle" x="617" y="-163.5" font-family="DejaVuSans" font-size="10.00">CheckTrait::customText</text>
</a>
</g>
<!-- Node11&#45;&gt;Node12 -->
<g id="edge24" class="edge"><title>Node11&#45;&gt;Node12</title>
<path fill="none" stroke="midnightblue" d="M487.979,-195.49C510.398,-190.366 537.55,-184.16 561.151,-178.765"/>
<polygon fill="midnightblue" stroke="midnightblue" points="562.056,-182.149 571.024,-176.509 560.496,-175.325 562.056,-182.149"/>
</g>
<!-- Node12&#45;&gt;Node8 -->
<g id="edge26" class="edge"><title>Node12&#45;&gt;Node8</title>
<path fill="none" stroke="midnightblue" d="M658.945,-155.446C677.813,-150.699 700.27,-145.048 720.179,-140.039"/>
<polygon fill="midnightblue" stroke="midnightblue" points="721.178,-143.397 730.021,-137.562 719.469,-136.608 721.178,-143.397"/>
</g>
<!-- Node15&#45;&gt;Node8 -->
<g id="edge44" class="edge"><title>Node15&#45;&gt;Node8</title>
<path fill="none" stroke="midnightblue" d="M477.755,-75.3964C525.779,-62.9263 613.263,-46.4813 684,-68 710.524,-76.0688 736.321,-95.0889 753.051,-109.368"/>
<polygon fill="midnightblue" stroke="midnightblue" points="751.116,-112.327 760.93,-116.319 755.747,-107.078 751.116,-112.327"/>
</g>
<!-- Node15&#45;&gt;Node9 -->
<g id="edge46" class="edge"><title>Node15&#45;&gt;Node9</title>
<path fill="none" stroke="midnightblue" d="M510.662,-86.7847C526.301,-86.9634 542.782,-87.1518 557.977,-87.3254"/>
<polygon fill="midnightblue" stroke="midnightblue" points="558.225,-90.8284 568.265,-87.443 558.305,-83.8289 558.225,-90.8284"/>
</g>
<!-- Node15&#45;&gt;Node12 -->
<g id="edge42" class="edge"><title>Node15&#45;&gt;Node12</title>
<path fill="none" stroke="midnightblue" d="M486.78,-96.517C495.933,-99.1989 505.394,-102.369 514,-106 542.44,-117.998 572.705,-136.383 593.014,-149.64"/>
<polygon fill="midnightblue" stroke="midnightblue" points="591.332,-152.724 601.602,-155.328 595.198,-146.888 591.332,-152.724"/>
</g>
</g>
</svg>
