<?xml version="1.0" encoding="UTF-8" standalone="no"?>
<!DOCTYPE svg PUBLIC "-//W3C//DTD SVG 1.1//EN"
 "http://www.w3.org/Graphics/SVG/1.1/DTD/svg11.dtd">
<!-- Generated by graphviz version 2.26.3 (20100126.1600)
 -->
<!-- Title: G Pages: 1 -->
<svg width="486pt" height="30pt"
 viewBox="0.00 0.00 486.00 30.00" xmlns="http://www.w3.org/2000/svg" xmlns:xlink="http://www.w3.org/1999/xlink">
<g id="graph1" class="graph" transform="scale(1 1) rotate(0) translate(4 26)">
<title>G</title>
<polygon fill="white" stroke="white" points="-4,5 -4,-26 483,-26 483,5 -4,5"/>
<!-- Node1 -->
<g id="node1" class="node"><title>Node1</title>
<polygon fill="#bfbfbf" stroke="black" points="0.5,-0.5 0.5,-21.5 111.5,-21.5 111.5,-0.5 0.5,-0.5"/>
<text text-anchor="middle" x="56" y="-8.5" font-family="DejaVuSans" font-size="10.00">cv_Character::toEra</text>
</g>
<!-- Node2 -->
<g id="node3" class="node"><title>Node2</title>
<a xlink:href="class_read_template.html#ac35b7e479a713187f491bbc01b95c69f" target="_top" xlink:title="ReadTemplate::storeTraitData">
<polygon fill="white" stroke="black" points="148.5,-0.5 148.5,-21.5 305.5,-21.5 305.5,-0.5 148.5,-0.5"/>
<text text-anchor="middle" x="227" y="-8.5" font-family="DejaVuSans" font-size="10.00">ReadTemplate::storeTraitData</text>
</a>
</g>
<!-- Node1&#45;&gt;Node2 -->
<g id="edge2" class="edge"><title>Node1&#45;&gt;Node2</title>
<path fill="none" stroke="midnightblue" d="M121.658,-11C130.431,-11 139.499,-11 148.465,-11"/>
<polygon fill="midnightblue" stroke="midnightblue" points="121.519,-7.5001 111.519,-11 121.519,-14.5001 121.519,-7.5001"/>
</g>
<!-- Node3 -->
<g id="node5" class="node"><title>Node3</title>
<a xlink:href="class_read_template.html#ad079297b59fa808daac606ad797ac980" target="_top" xlink:title="ReadTemplate::readTraits">
<polygon fill="white" stroke="black" points="342,-0.5 342,-21.5 478,-21.5 478,-0.5 342,-0.5"/>
<text text-anchor="middle" x="410" y="-8.5" font-family="DejaVuSans" font-size="10.00">ReadTemplate::readTraits</text>
</a>
</g>
<!-- Node2&#45;&gt;Node3 -->
<g id="edge4" class="edge"><title>Node2&#45;&gt;Node3</title>
<path fill="none" stroke="midnightblue" d="M315.858,-11C324.566,-11 333.305,-11 341.76,-11"/>
<polygon fill="midnightblue" stroke="midnightblue" points="315.671,-7.5001 305.671,-11 315.67,-14.5001 315.671,-7.5001"/>
</g>
</g>
</svg>
