<?xml version="1.0" encoding="UTF-8" standalone="no"?>
<!DOCTYPE svg PUBLIC "-//W3C//DTD SVG 1.1//EN"
 "http://www.w3.org/Graphics/SVG/1.1/DTD/svg11.dtd">
<!-- Generated by graphviz version 2.26.3 (20100126.1600)
 -->
<!-- Title: G Pages: 1 -->
<svg width="686pt" height="30pt"
 viewBox="0.00 0.00 686.00 30.00" xmlns="http://www.w3.org/2000/svg" xmlns:xlink="http://www.w3.org/1999/xlink">
<g id="graph1" class="graph" transform="scale(1 1) rotate(0) translate(4 26)">
<title>G</title>
<polygon fill="white" stroke="white" points="-4,5 -4,-26 683,-26 683,5 -4,5"/>
<!-- Node1 -->
<g id="node1" class="node"><title>Node1</title>
<polygon fill="#bfbfbf" stroke="black" points="0,-0.5 0,-21.5 158,-21.5 158,-0.5 0,-0.5"/>
<text text-anchor="middle" x="79" y="-8.5" font-family="DejaVuSans" font-size="10.00">StorageTemplate::viceNames</text>
</g>
<!-- Node2 -->
<g id="node3" class="node"><title>Node2</title>
<a xlink:href="class_storage_template.html#aa1c01bbdf076afcacd1e785d2a4d6573" target="_top" xlink:title="StorageTemplate::traitNames">
<polygon fill="white" stroke="black" points="194,-0.5 194,-21.5 352,-21.5 352,-0.5 194,-0.5"/>
<text text-anchor="middle" x="273" y="-8.5" font-family="DejaVuSans" font-size="10.00">StorageTemplate::traitNames</text>
</a>
</g>
<!-- Node1&#45;&gt;Node2 -->
<g id="edge2" class="edge"><title>Node1&#45;&gt;Node2</title>
<path fill="none" stroke="midnightblue" d="M158.187,-11C166.529,-11 175.054,-11 183.502,-11"/>
<polygon fill="midnightblue" stroke="midnightblue" points="183.752,-14.5001 193.752,-11 183.752,-7.5001 183.752,-14.5001"/>
</g>
<!-- Node3 -->
<g id="node5" class="node"><title>Node3</title>
<a xlink:href="class_storage_template.html#a5d5beec85c0760ed8129a2585e7a94d4" target="_top" xlink:title="StorageTemplate::traits">
<polygon fill="white" stroke="black" points="388.5,-0.5 388.5,-21.5 517.5,-21.5 517.5,-0.5 388.5,-0.5"/>
<text text-anchor="middle" x="453" y="-8.5" font-family="DejaVuSans" font-size="10.00">StorageTemplate::traits</text>
</a>
</g>
<!-- Node2&#45;&gt;Node3 -->
<g id="edge4" class="edge"><title>Node2&#45;&gt;Node3</title>
<path fill="none" stroke="midnightblue" d="M352.213,-11C360.89,-11 369.703,-11 378.323,-11"/>
<polygon fill="midnightblue" stroke="midnightblue" points="378.334,-14.5001 388.334,-11 378.334,-7.5001 378.334,-14.5001"/>
</g>
<!-- Node4 -->
<g id="node7" class="node"><title>Node4</title>
<a xlink:href="class_storage_template.html#aceb757eb50e7326356f589179d78ee89" target="_top" xlink:title="StorageTemplate::trait">
<polygon fill="white" stroke="black" points="554,-0.5 554,-21.5 678,-21.5 678,-0.5 554,-0.5"/>
<text text-anchor="middle" x="616" y="-8.5" font-family="DejaVuSans" font-size="10.00">StorageTemplate::trait</text>
</a>
</g>
<!-- Node3&#45;&gt;Node4 -->
<g id="edge6" class="edge"><title>Node3&#45;&gt;Node4</title>
<path fill="none" stroke="midnightblue" d="M517.89,-11C526.441,-11 535.246,-11 543.908,-11"/>
<polygon fill="midnightblue" stroke="midnightblue" points="543.986,-14.5001 553.986,-11 543.986,-7.5001 543.986,-14.5001"/>
</g>
</g>
</svg>
