<?xml version="1.0" encoding="UTF-8" standalone="no"?>
<!DOCTYPE svg PUBLIC "-//W3C//DTD SVG 1.1//EN"
 "http://www.w3.org/Graphics/SVG/1.1/DTD/svg11.dtd">
<!-- Generated by graphviz version 2.26.3 (20100126.1600)
 -->
<!-- Title: G Pages: 1 -->
<svg width="240pt" height="146pt"
 viewBox="0.00 0.00 240.00 146.00" xmlns="http://www.w3.org/2000/svg" xmlns:xlink="http://www.w3.org/1999/xlink">
<g id="graph1" class="graph" transform="scale(1 1) rotate(0) translate(4 142)">
<title>G</title>
<polygon fill="white" stroke="white" points="-4,5 -4,-142 237,-142 237,5 -4,5"/>
<!-- Node1 -->
<g id="node1" class="node"><title>Node1</title>
<polygon fill="#bfbfbf" stroke="black" points="-0.5,-0.5 -0.5,-21.5 224.5,-21.5 224.5,-0.5 -0.5,-0.5"/>
<text text-anchor="middle" x="112" y="-8.5" font-family="DejaVuSans" font-size="10.00">src.IO.ReadXmlCharacter.ReadXmlCharacter</text>
</g>
<!-- Node2 -->
<g id="node2" class="node"><title>Node2</title>
<polygon fill="white" stroke="#bfbfbf" points="29.5,-58.5 29.5,-79.5 84.5,-79.5 84.5,-58.5 29.5,-58.5"/>
<text text-anchor="middle" x="57" y="-66.5" font-family="DejaVuSans" font-size="10.00">QObject</text>
</g>
<!-- Node2&#45;&gt;Node1 -->
<g id="edge2" class="edge"><title>Node2&#45;&gt;Node1</title>
<path fill="none" stroke="midnightblue" d="M74.2302,-50.8299C83.3546,-41.2078 94.2405,-29.7282 101.976,-21.5707"/>
<polygon fill="midnightblue" stroke="midnightblue" points="71.4291,-48.6973 67.0878,-58.3619 76.5085,-53.514 71.4291,-48.6973"/>
</g>
<!-- Node3 -->
<g id="node4" class="node"><title>Node3</title>
<a xlink:href="classsrc_1_1_i_o_1_1_read_xml_1_1_read_xml.html" target="_top" xlink:title="Liest aus Xml&#45;Dateien.">
<polygon fill="white" stroke="black" points="101.5,-58.5 101.5,-79.5 232.5,-79.5 232.5,-58.5 101.5,-58.5"/>
<text text-anchor="middle" x="167" y="-66.5" font-family="DejaVuSans" font-size="10.00">src.IO.ReadXml.ReadXml</text>
</a>
</g>
<!-- Node3&#45;&gt;Node1 -->
<g id="edge4" class="edge"><title>Node3&#45;&gt;Node1</title>
<path fill="none" stroke="midnightblue" d="M149.77,-50.8299C140.645,-41.2078 129.76,-29.7282 122.024,-21.5707"/>
<polygon fill="midnightblue" stroke="midnightblue" points="147.492,-53.514 156.912,-58.3619 152.571,-48.6973 147.492,-53.514"/>
</g>
<!-- Node4 -->
<g id="node6" class="node"><title>Node4</title>
<a xlink:href="classobject.html" target="_top" xlink:title="object">
<polygon fill="white" stroke="black" points="144,-116.5 144,-137.5 190,-137.5 190,-116.5 144,-116.5"/>
<text text-anchor="middle" x="167" y="-124.5" font-family="DejaVuSans" font-size="10.00">object</text>
</a>
</g>
<!-- Node4&#45;&gt;Node3 -->
<g id="edge6" class="edge"><title>Node4&#45;&gt;Node3</title>
<path fill="none" stroke="midnightblue" d="M167,-106.191C167,-97.1684 167,-86.9941 167,-79.5707"/>
<polygon fill="midnightblue" stroke="midnightblue" points="163.5,-106.362 167,-116.362 170.5,-106.362 163.5,-106.362"/>
</g>
</g>
</svg>
