<?xml version="1.0" encoding="UTF-8" standalone="no"?>
<!DOCTYPE svg PUBLIC "-//W3C//DTD SVG 1.1//EN"
 "http://www.w3.org/Graphics/SVG/1.1/DTD/svg11.dtd">
<!-- Generated by graphviz version 2.26.3 (20100126.1600)
 -->
<!-- Title: G Pages: 1 -->
<svg width="285pt" height="162pt"
 viewBox="0.00 0.00 285.00 162.00" xmlns="http://www.w3.org/2000/svg" xmlns:xlink="http://www.w3.org/1999/xlink">
<g id="graph1" class="graph" transform="scale(1 1) rotate(0) translate(4 158)">
<title>G</title>
<polygon fill="white" stroke="white" points="-4,5 -4,-158 282,-158 282,5 -4,5"/>
<!-- Node1 -->
<g id="node1" class="node"><title>Node1</title>
<polygon fill="#bfbfbf" stroke="black" points="24.5,-0.5 24.5,-21.5 249.5,-21.5 249.5,-0.5 24.5,-0.5"/>
<text text-anchor="middle" x="137" y="-8.5" font-family="DejaVuSans" font-size="10.00">src.IO.ReadXmlCharacter.ReadXmlCharacter</text>
</g>
<!-- Node2 -->
<g id="node2" class="node"><title>Node2</title>
<polygon fill="white" stroke="#bfbfbf" points="-0.5,-72.5 -0.5,-93.5 54.5,-93.5 54.5,-72.5 -0.5,-72.5"/>
<text text-anchor="middle" x="27" y="-80.5" font-family="DejaVuSans" font-size="10.00">QObject</text>
</g>
<!-- Node2&#45;&gt;Node1 -->
<g id="edge2" class="edge"><title>Node2&#45;&gt;Node1</title>
<path fill="none" stroke="midnightblue" d="M51.6765,-66.8481C72.7548,-53.0514 102.477,-33.597 120.703,-21.6674"/>
<polygon fill="midnightblue" stroke="midnightblue" points="49.6811,-63.9711 43.2309,-72.3762 53.5147,-69.828 49.6811,-63.9711"/>
</g>
<!-- Node3 -->
<g id="node4" class="node"><title>Node3</title>
<a xlink:href="classsrc_1_1_i_o_1_1_read_xml_1_1_read_xml.html" target="_top" xlink:title="Liest aus Xml&#45;Dateien.">
<polygon fill="white" stroke="black" points="71.5,-72.5 71.5,-93.5 202.5,-93.5 202.5,-72.5 71.5,-72.5"/>
<text text-anchor="middle" x="137" y="-80.5" font-family="DejaVuSans" font-size="10.00">src.IO.ReadXml.ReadXml</text>
</a>
</g>
<!-- Node3&#45;&gt;Node1 -->
<g id="edge4" class="edge"><title>Node3&#45;&gt;Node1</title>
<path fill="none" stroke="midnightblue" d="M137,-62.2348C137,-48.969 137,-32.3188 137,-21.6674"/>
<polygon fill="midnightblue" stroke="midnightblue" points="133.5,-62.3761 137,-72.3762 140.5,-62.3762 133.5,-62.3761"/>
</g>
<!-- Node4 -->
<g id="node6" class="node"><title>Node4</title>
<a xlink:href="classobject.html" target="_top" xlink:title="object">
<polygon fill="white" stroke="black" points="114,-132.5 114,-153.5 160,-153.5 160,-132.5 114,-132.5"/>
<text text-anchor="middle" x="137" y="-140.5" font-family="DejaVuSans" font-size="10.00">object</text>
</a>
</g>
<!-- Node4&#45;&gt;Node3 -->
<g id="edge6" class="edge"><title>Node4&#45;&gt;Node3</title>
<path fill="none" stroke="midnightblue" d="M137,-122.231C137,-112.592 137,-101.544 137,-93.6339"/>
<polygon fill="midnightblue" stroke="midnightblue" points="133.5,-122.273 137,-132.273 140.5,-122.273 133.5,-122.273"/>
</g>
<!-- Node5 -->
<g id="node8" class="node"><title>Node5</title>
<polygon fill="white" stroke="#bfbfbf" points="219.5,-72.5 219.5,-93.5 260.5,-93.5 260.5,-72.5 219.5,-72.5"/>
<text text-anchor="middle" x="240" y="-80.5" font-family="DejaVuSans" font-size="10.00">tuple</text>
</g>
<!-- Node5&#45;&gt;Node1 -->
<g id="edge8" class="edge"><title>Node5&#45;&gt;Node1</title>
<path fill="none" stroke="#9a32cd" stroke-dasharray="5,2" d="M216.363,-66.4772C196.661,-52.7046 169.174,-33.4905 152.26,-21.6674"/>
<polygon fill="#9a32cd" stroke="#9a32cd" points="214.601,-69.5155 224.802,-72.3762 218.611,-63.7782 214.601,-69.5155"/>
<text text-anchor="middle" x="237.5" y="-44.5" font-family="DejaVuSans" font-size="10.00">exceptionRaised</text>
</g>
</g>
</svg>
