<?xml version="1.0" encoding="UTF-8" standalone="no"?>
<!DOCTYPE svg PUBLIC "-//W3C//DTD SVG 1.1//EN"
 "http://www.w3.org/Graphics/SVG/1.1/DTD/svg11.dtd">
<!-- Generated by graphviz version 2.26.3 (20100126.1600)
 -->
<!-- Title: G Pages: 1 -->
<svg width="330pt" height="270pt"
 viewBox="0.00 0.00 330.00 270.00" xmlns="http://www.w3.org/2000/svg" xmlns:xlink="http://www.w3.org/1999/xlink">
<g id="graph1" class="graph" transform="scale(1 1) rotate(0) translate(4 266)">
<title>G</title>
<polygon fill="white" stroke="white" points="-4,5 -4,-266 327,-266 327,5 -4,5"/>
<!-- Node1 -->
<g id="node1" class="node"><title>Node1</title>
<polygon fill="#bfbfbf" stroke="black" points="0.5,-120.5 0.5,-141.5 111.5,-141.5 111.5,-120.5 0.5,-120.5"/>
<text text-anchor="middle" x="56" y="-128.5" font-family="DejaVuSans" font-size="10.00">Creation::calcPoints</text>
</g>
<!-- Node2 -->
<g id="node3" class="node"><title>Node2</title>
<a xlink:href="class_storage_template.html#a5a93e89c57e3651cb8b8e02064bfa88b" target="_top" xlink:title="StorageTemplate::creationPoints">
<polygon fill="white" stroke="black" points="148.5,-240.5 148.5,-261.5 321.5,-261.5 321.5,-240.5 148.5,-240.5"/>
<text text-anchor="middle" x="235" y="-248.5" font-family="DejaVuSans" font-size="10.00">StorageTemplate::creationPoints</text>
</a>
</g>
<!-- Node1&#45;&gt;Node2 -->
<g id="edge2" class="edge"><title>Node1&#45;&gt;Node2</title>
<path fill="none" stroke="midnightblue" d="M62.6124,-141.709C76.0006,-162.432 108.432,-208.002 148,-231 151.693,-233.147 155.6,-235.063 159.631,-236.773"/>
<polygon fill="midnightblue" stroke="midnightblue" points="158.629,-240.136 169.22,-240.403 161.107,-233.59 158.629,-240.136"/>
</g>
<!-- Node3 -->
<g id="node5" class="node"><title>Node3</title>
<a xlink:href="classcv___abstract_trait.html#a2c71206d61498c443d25cab1051a546f" target="_top" xlink:title="cv_AbstractTrait::getCategoryList">
<polygon fill="white" stroke="black" points="148,-200.5 148,-221.5 322,-221.5 322,-200.5 148,-200.5"/>
<text text-anchor="middle" x="235" y="-208.5" font-family="DejaVuSans" font-size="10.00">cv_AbstractTrait::getCategoryList</text>
</a>
</g>
<!-- Node1&#45;&gt;Node3 -->
<g id="edge4" class="edge"><title>Node1&#45;&gt;Node3</title>
<path fill="none" stroke="midnightblue" d="M68.8718,-141.529C85.9365,-154.966 117.464,-178.02 148,-191 153.803,-193.467 159.96,-195.655 166.21,-197.59"/>
<polygon fill="midnightblue" stroke="midnightblue" points="165.494,-201.026 176.072,-200.427 167.43,-194.299 165.494,-201.026"/>
</g>
<!-- Node4 -->
<g id="node7" class="node"><title>Node4</title>
<a xlink:href="classcv___creation_points_list.html#a4ff0731279c6490ae83649264bb36c01" target="_top" xlink:title="cv_CreationPointsList::pointList">
<polygon fill="white" stroke="black" points="152.5,-160.5 152.5,-181.5 317.5,-181.5 317.5,-160.5 152.5,-160.5"/>
<text text-anchor="middle" x="235" y="-168.5" font-family="DejaVuSans" font-size="10.00">cv_CreationPointsList::pointList</text>
</a>
</g>
<!-- Node1&#45;&gt;Node4 -->
<g id="edge6" class="edge"><title>Node1&#45;&gt;Node4</title>
<path fill="none" stroke="midnightblue" d="M103.03,-141.51C126.063,-146.657 153.982,-152.895 178.198,-158.307"/>
<polygon fill="midnightblue" stroke="midnightblue" points="177.451,-161.726 187.974,-160.491 178.978,-154.895 177.451,-161.726"/>
</g>
<!-- Node5 -->
<g id="node9" class="node"><title>Node5</title>
<a xlink:href="class_creation.html#a39e54cf85df2c019dd2646c977366021" target="_top" xlink:title="Creation::pointsChanged">
<polygon fill="white" stroke="black" points="167.5,-120.5 167.5,-141.5 302.5,-141.5 302.5,-120.5 167.5,-120.5"/>
<text text-anchor="middle" x="235" y="-128.5" font-family="DejaVuSans" font-size="10.00">Creation::pointsChanged</text>
</a>
</g>
<!-- Node1&#45;&gt;Node5 -->
<g id="edge8" class="edge"><title>Node1&#45;&gt;Node5</title>
<path fill="none" stroke="midnightblue" d="M111.656,-131C126.136,-131 142.002,-131 157.391,-131"/>
<polygon fill="midnightblue" stroke="midnightblue" points="157.416,-134.5 167.415,-131 157.415,-127.5 157.416,-134.5"/>
</g>
<!-- Node6 -->
<g id="node11" class="node"><title>Node6</title>
<a xlink:href="class_storage_character.html#a003ec6624532c534b04c93f18f9c381c" target="_top" xlink:title="StorageCharacter::species">
<polygon fill="white" stroke="black" points="163,-80.5 163,-101.5 307,-101.5 307,-80.5 163,-80.5"/>
<text text-anchor="middle" x="235" y="-88.5" font-family="DejaVuSans" font-size="10.00">StorageCharacter::species</text>
</a>
</g>
<!-- Node1&#45;&gt;Node6 -->
<g id="edge10" class="edge"><title>Node1&#45;&gt;Node6</title>
<path fill="none" stroke="midnightblue" d="M103.03,-120.49C126.063,-115.343 153.982,-109.105 178.198,-103.693"/>
<polygon fill="midnightblue" stroke="midnightblue" points="178.978,-107.105 187.974,-101.509 177.451,-100.274 178.978,-107.105"/>
</g>
<!-- Node7 -->
<g id="node13" class="node"><title>Node7</title>
<a xlink:href="class_storage_character.html#a2db5654b50bd29cc391c05ec220b2e08" target="_top" xlink:title="StorageCharacter::traits">
<polygon fill="white" stroke="black" points="168.5,-40.5 168.5,-61.5 301.5,-61.5 301.5,-40.5 168.5,-40.5"/>
<text text-anchor="middle" x="235" y="-48.5" font-family="DejaVuSans" font-size="10.00">StorageCharacter::traits</text>
</a>
</g>
<!-- Node1&#45;&gt;Node7 -->
<g id="edge12" class="edge"><title>Node1&#45;&gt;Node7</title>
<path fill="none" stroke="midnightblue" d="M68.8718,-120.471C85.9365,-107.034 117.464,-83.9798 148,-71 153.803,-68.5332 159.96,-66.3453 166.21,-64.41"/>
<polygon fill="midnightblue" stroke="midnightblue" points="167.43,-67.7011 176.072,-61.5729 165.494,-60.9739 167.43,-67.7011"/>
</g>
<!-- Node8 -->
<g id="node15" class="node"><title>Node8</title>
<a xlink:href="classcv___abstract_trait.html#aba0dfcb5b539afe0db14c6e3c4ddd4bc" target="_top" xlink:title="cv_AbstractTrait::type">
<polygon fill="white" stroke="black" points="175.5,-0.5 175.5,-21.5 294.5,-21.5 294.5,-0.5 175.5,-0.5"/>
<text text-anchor="middle" x="235" y="-8.5" font-family="DejaVuSans" font-size="10.00">cv_AbstractTrait::type</text>
</a>
</g>
<!-- Node1&#45;&gt;Node8 -->
<g id="edge14" class="edge"><title>Node1&#45;&gt;Node8</title>
<path fill="none" stroke="midnightblue" d="M62.6124,-120.291C76.0006,-99.5676 108.432,-53.9978 148,-31 153.452,-27.8313 159.368,-25.1646 165.464,-22.9204"/>
<polygon fill="midnightblue" stroke="midnightblue" points="166.747,-26.183 175.15,-19.7301 164.557,-19.5344 166.747,-26.183"/>
</g>
</g>
</svg>
