<?xml version="1.0" encoding="UTF-8" standalone="no"?>
<!DOCTYPE svg PUBLIC "-//W3C//DTD SVG 1.1//EN"
 "http://www.w3.org/Graphics/SVG/1.1/DTD/svg11.dtd">
<!-- Generated by graphviz version 2.26.3 (20100126.1600)
 -->
<!-- Title: G Pages: 1 -->
<svg width="588pt" height="310pt"
 viewBox="0.00 0.00 588.00 310.00" xmlns="http://www.w3.org/2000/svg" xmlns:xlink="http://www.w3.org/1999/xlink">
<g id="graph1" class="graph" transform="scale(1 1) rotate(0) translate(4 306)">
<title>G</title>
<polygon fill="white" stroke="white" points="-4,5 -4,-306 585,-306 585,5 -4,5"/>
<!-- Node1 -->
<g id="node1" class="node"><title>Node1</title>
<polygon fill="#bfbfbf" stroke="black" points="0,-140.5 0,-161.5 126,-161.5 126,-140.5 0,-140.5"/>
<text text-anchor="middle" x="63" y="-148.5" font-family="DejaVuSans" font-size="10.00">cv_AbstractTrait::name</text>
</g>
<!-- Node2 -->
<g id="node3" class="node"><title>Node2</title>
<a xlink:href="class_storage_character.html#a647f9a298613000dac06739b6e0f25c4" target="_top" xlink:title="StorageCharacter::addDerangement">
<polygon fill="white" stroke="black" points="162.5,-280.5 162.5,-301.5 355.5,-301.5 355.5,-280.5 162.5,-280.5"/>
<text text-anchor="middle" x="259" y="-288.5" font-family="DejaVuSans" font-size="10.00">StorageCharacter::addDerangement</text>
</a>
</g>
<!-- Node1&#45;&gt;Node2 -->
<g id="edge2" class="edge"><title>Node1&#45;&gt;Node2</title>
<path fill="none" stroke="midnightblue" d="M73.4698,-170.666C88.9987,-197.801 120.791,-246.177 162,-271 168.333,-274.815 175.276,-277.913 182.444,-280.426"/>
<polygon fill="midnightblue" stroke="midnightblue" points="76.4124,-168.756 68.4971,-161.713 70.2929,-172.155 76.4124,-168.756"/>
</g>
<!-- Node3 -->
<g id="node5" class="node"><title>Node3</title>
<a xlink:href="class_derangement_combo_box.html#ae546420453d34191eafe49e5583ff205" target="_top" xlink:title="DerangementComboBox::addItem">
<polygon fill="white" stroke="black" points="168,-240.5 168,-261.5 350,-261.5 350,-240.5 168,-240.5"/>
<text text-anchor="middle" x="259" y="-248.5" font-family="DejaVuSans" font-size="10.00">DerangementComboBox::addItem</text>
</a>
</g>
<!-- Node1&#45;&gt;Node3 -->
<g id="edge4" class="edge"><title>Node1&#45;&gt;Node3</title>
<path fill="none" stroke="midnightblue" d="M79.8946,-168.994C98.2992,-187.471 129.484,-215.633 162,-231 170.162,-234.857 179.055,-237.973 188.037,-240.491"/>
<polygon fill="midnightblue" stroke="midnightblue" points="82.3075,-166.455 72.8228,-161.734 77.2931,-171.34 82.3075,-166.455"/>
</g>
<!-- Node5 -->
<g id="node9" class="node"><title>Node5</title>
<a xlink:href="class_trait.html#a2978f151799625492ce4bae4b3db5c04" target="_top" xlink:title="Trait::addPrerequisitePtrs">
<polygon fill="white" stroke="black" points="191,-200.5 191,-221.5 327,-221.5 327,-200.5 191,-200.5"/>
<text text-anchor="middle" x="259" y="-208.5" font-family="DejaVuSans" font-size="10.00">Trait::addPrerequisitePtrs</text>
</a>
</g>
<!-- Node1&#45;&gt;Node5 -->
<g id="edge8" class="edge"><title>Node1&#45;&gt;Node5</title>
<path fill="none" stroke="midnightblue" d="M94.9418,-165.621C114.083,-173.948 139.079,-184.069 162,-191 173.932,-194.608 186.886,-197.777 199.325,-200.466"/>
<polygon fill="midnightblue" stroke="midnightblue" points="96.3416,-162.413 85.7797,-161.578 93.5157,-168.817 96.3416,-162.413"/>
</g>
<!-- Node6 -->
<g id="node11" class="node"><title>Node6</title>
<a xlink:href="class_storage_template.html#a59dec084ce51d53a5a92071883d43b3e" target="_top" xlink:title="StorageTemplate::appendTrait">
<polygon fill="white" stroke="black" points="179,-160.5 179,-181.5 339,-181.5 339,-160.5 179,-160.5"/>
<text text-anchor="middle" x="259" y="-168.5" font-family="DejaVuSans" font-size="10.00">StorageTemplate::appendTrait</text>
</a>
</g>
<!-- Node1&#45;&gt;Node6 -->
<g id="edge10" class="edge"><title>Node1&#45;&gt;Node6</title>
<path fill="none" stroke="midnightblue" d="M136.092,-158.458C150.022,-159.88 164.67,-161.374 178.807,-162.817"/>
<polygon fill="midnightblue" stroke="midnightblue" points="136.398,-154.972 126.095,-157.438 135.688,-161.935 136.398,-154.972"/>
</g>
<!-- Node7 -->
<g id="node13" class="node"><title>Node7</title>
<a xlink:href="class_trait.html#a8a1b0f1a3a2388e4f7c2d85b7e95fc7e" target="_top" xlink:title="Trait::checkPrerequisites">
<polygon fill="white" stroke="black" points="193,-120.5 193,-141.5 325,-141.5 325,-120.5 193,-120.5"/>
<text text-anchor="middle" x="259" y="-128.5" font-family="DejaVuSans" font-size="10.00">Trait::checkPrerequisites</text>
</a>
</g>
<!-- Node1&#45;&gt;Node7 -->
<g id="edge12" class="edge"><title>Node1&#45;&gt;Node7</title>
<path fill="none" stroke="midnightblue" d="M136.282,-143.522C154.888,-141.624 174.766,-139.595 192.987,-137.736"/>
<polygon fill="midnightblue" stroke="midnightblue" points="135.688,-140.065 126.095,-144.562 136.398,-147.028 135.688,-140.065"/>
</g>
<!-- Node8 -->
<g id="node15" class="node"><title>Node8</title>
<a xlink:href="class_check_trait.html#a3d74335165852938fb58d285bcc25b52" target="_top" xlink:title="CheckTrait::CheckTrait">
<polygon fill="white" stroke="black" points="199,-80.5 199,-101.5 319,-101.5 319,-80.5 199,-80.5"/>
<text text-anchor="middle" x="259" y="-88.5" font-family="DejaVuSans" font-size="10.00">CheckTrait::CheckTrait</text>
</a>
</g>
<!-- Node1&#45;&gt;Node8 -->
<g id="edge14" class="edge"><title>Node1&#45;&gt;Node8</title>
<path fill="none" stroke="midnightblue" d="M94.9418,-136.379C114.083,-128.052 139.079,-117.931 162,-111 173.932,-107.392 186.886,-104.223 199.325,-101.534"/>
<polygon fill="midnightblue" stroke="midnightblue" points="93.5157,-133.183 85.7797,-140.422 96.3416,-139.587 93.5157,-133.183"/>
</g>
<!-- Node9 -->
<g id="node17" class="node"><title>Node9</title>
<a xlink:href="class_storage_character.html#aabaae6015f75abfc6411f5a388418a3b" target="_top" xlink:title="StorageCharacter::modifyTrait">
<polygon fill="white" stroke="black" points="179,-40.5 179,-61.5 339,-61.5 339,-40.5 179,-40.5"/>
<text text-anchor="middle" x="259" y="-48.5" font-family="DejaVuSans" font-size="10.00">StorageCharacter::modifyTrait</text>
</a>
</g>
<!-- Node1&#45;&gt;Node9 -->
<g id="edge16" class="edge"><title>Node1&#45;&gt;Node9</title>
<path fill="none" stroke="midnightblue" d="M79.8946,-133.006C98.2992,-114.529 129.484,-86.3671 162,-71 170.162,-67.1428 179.055,-64.0265 188.037,-61.5095"/>
<polygon fill="midnightblue" stroke="midnightblue" points="77.2931,-130.66 72.8228,-140.266 82.3075,-135.545 77.2931,-130.66"/>
</g>
<!-- Node10 -->
<g id="node19" class="node"><title>Node10</title>
<a xlink:href="classcv___trait.html#a8c0d39d14efbcce546fbc6212f6e984b" target="_top" xlink:title="cv_Trait::operator==">
<polygon fill="white" stroke="black" points="201,-0.5 201,-21.5 317,-21.5 317,-0.5 201,-0.5"/>
<text text-anchor="middle" x="259" y="-8.5" font-family="DejaVuSans" font-size="10.00">cv_Trait::operator==</text>
</a>
</g>
<!-- Node1&#45;&gt;Node10 -->
<g id="edge18" class="edge"><title>Node1&#45;&gt;Node10</title>
<path fill="none" stroke="midnightblue" d="M73.4698,-131.334C88.9987,-104.199 120.791,-55.8235 162,-31 173.709,-23.9466 187.501,-19.3452 200.952,-16.3531"/>
<polygon fill="midnightblue" stroke="midnightblue" points="70.2929,-129.845 68.4971,-140.287 76.4124,-133.244 70.2929,-129.845"/>
</g>
<!-- Node4 -->
<g id="node7" class="node"><title>Node4</title>
<a xlink:href="class_derangement_combo_box.html#a0409299e60bfceec9d91625ca7bfe58b" target="_top" xlink:title="DerangementComboBox::addItems">
<polygon fill="white" stroke="black" points="392.5,-240.5 392.5,-261.5 579.5,-261.5 579.5,-240.5 392.5,-240.5"/>
<text text-anchor="middle" x="486" y="-248.5" font-family="DejaVuSans" font-size="10.00">DerangementComboBox::addItems</text>
</a>
</g>
<!-- Node3&#45;&gt;Node4 -->
<g id="edge6" class="edge"><title>Node3&#45;&gt;Node4</title>
<path fill="none" stroke="midnightblue" d="M360.219,-251C370.915,-251 381.758,-251 392.362,-251"/>
<polygon fill="midnightblue" stroke="midnightblue" points="360.022,-247.5 350.022,-251 360.022,-254.5 360.022,-247.5"/>
</g>
</g>
</svg>
