<?xml version="1.0" encoding="UTF-8" standalone="no"?>
<!DOCTYPE svg PUBLIC "-//W3C//DTD SVG 1.1//EN"
 "http://www.w3.org/Graphics/SVG/1.1/DTD/svg11.dtd">
<!-- Generated by graphviz version 2.26.3 (20100126.1600)
 -->
<!-- Title: G Pages: 1 -->
<svg width="356pt" height="70pt"
 viewBox="0.00 0.00 356.00 70.00" xmlns="http://www.w3.org/2000/svg" xmlns:xlink="http://www.w3.org/1999/xlink">
<g id="graph1" class="graph" transform="scale(1 1) rotate(0) translate(4 66)">
<title>G</title>
<polygon fill="white" stroke="white" points="-4,5 -4,-66 353,-66 353,5 -4,5"/>
<!-- Node1 -->
<g id="node1" class="node"><title>Node1</title>
<polygon fill="#bfbfbf" stroke="black" points="0.5,-20.5 0.5,-41.5 133.5,-41.5 133.5,-20.5 0.5,-20.5"/>
<text text-anchor="middle" x="67" y="-28.5" font-family="DejaVuSans" font-size="10.00">StorageCharacter::traits</text>
</g>
<!-- Node2 -->
<g id="node3" class="node"><title>Node2</title>
<a xlink:href="class_calc_advantages.html#a6efd3ae9b2a4cd9fb606ff5f29f0c44e" target="_top" xlink:title="CalcAdvantages::CalcAdvantages">
<polygon fill="white" stroke="black" points="170.5,-40.5 170.5,-61.5 347.5,-61.5 347.5,-40.5 170.5,-40.5"/>
<text text-anchor="middle" x="259" y="-48.5" font-family="DejaVuSans" font-size="10.00">CalcAdvantages::CalcAdvantages</text>
</a>
</g>
<!-- Node1&#45;&gt;Node2 -->
<g id="edge2" class="edge"><title>Node1&#45;&gt;Node2</title>
<path fill="none" stroke="midnightblue" d="M143.712,-38.9908C152.416,-39.8975 161.341,-40.8272 170.185,-41.7484"/>
<polygon fill="midnightblue" stroke="midnightblue" points="143.922,-35.4939 133.613,-37.9389 143.197,-42.4562 143.922,-35.4939"/>
</g>
<!-- Node3 -->
<g id="node5" class="node"><title>Node3</title>
<a xlink:href="class_creation.html#a2fc5625819c4f10884e0c31b594700a4" target="_top" xlink:title="Creation::calcPoints">
<polygon fill="white" stroke="black" points="203.5,-0.5 203.5,-21.5 314.5,-21.5 314.5,-0.5 203.5,-0.5"/>
<text text-anchor="middle" x="259" y="-8.5" font-family="DejaVuSans" font-size="10.00">Creation::calcPoints</text>
</a>
</g>
<!-- Node1&#45;&gt;Node3 -->
<g id="edge4" class="edge"><title>Node1&#45;&gt;Node3</title>
<path fill="none" stroke="midnightblue" d="M143.611,-23.0197C163.566,-20.941 184.688,-18.7408 203.331,-16.7989"/>
<polygon fill="midnightblue" stroke="midnightblue" points="143.197,-19.5438 133.613,-24.0611 143.922,-26.5061 143.197,-19.5438"/>
</g>
</g>
</svg>
