<?xml version="1.0" encoding="UTF-8" standalone="no"?>
<!DOCTYPE svg PUBLIC "-//W3C//DTD SVG 1.1//EN"
 "http://www.w3.org/Graphics/SVG/1.1/DTD/svg11.dtd">
<!-- Generated by graphviz version 2.26.3 (20100126.1600)
 -->
<!-- Title: G Pages: 1 -->
<svg width="354pt" height="230pt"
 viewBox="0.00 0.00 354.00 230.00" xmlns="http://www.w3.org/2000/svg" xmlns:xlink="http://www.w3.org/1999/xlink">
<g id="graph1" class="graph" transform="scale(1 1) rotate(0) translate(4 226)">
<title>G</title>
<polygon fill="white" stroke="white" points="-4,5 -4,-226 351,-226 351,5 -4,5"/>
<!-- Node1 -->
<g id="node1" class="node"><title>Node1</title>
<polygon fill="#bfbfbf" stroke="black" points="0.5,-100.5 0.5,-121.5 135.5,-121.5 135.5,-100.5 0.5,-100.5"/>
<text text-anchor="middle" x="68" y="-108.5" font-family="DejaVuSans" font-size="10.00">MeritWidget::MeritWidget</text>
</g>
<!-- Node2 -->
<g id="node3" class="node"><title>Node2</title>
<a xlink:href="class_storage_character.html#a96062a11fe91e1d9826470412fc64449" target="_top" xlink:title="StorageCharacter::addTrait">
<polygon fill="white" stroke="black" points="186,-200.5 186,-221.5 332,-221.5 332,-200.5 186,-200.5"/>
<text text-anchor="middle" x="259" y="-208.5" font-family="DejaVuSans" font-size="10.00">StorageCharacter::addTrait</text>
</a>
</g>
<!-- Node1&#45;&gt;Node2 -->
<g id="edge2" class="edge"><title>Node1&#45;&gt;Node2</title>
<path fill="none" stroke="midnightblue" d="M78.48,-121.618C96.1433,-138.882 133.681,-172.921 172,-191 177.208,-193.457 182.737,-195.622 188.384,-197.528"/>
<polygon fill="midnightblue" stroke="midnightblue" points="187.375,-200.88 197.963,-200.498 189.448,-194.194 187.375,-200.88"/>
</g>
<!-- Node3 -->
<g id="node5" class="node"><title>Node3</title>
<a xlink:href="class_exception.html#a7cb124af6ec64ad88a8721b60c7932fb" target="_top" xlink:title="Exception::description">
<polygon fill="white" stroke="black" points="198,-160.5 198,-181.5 320,-181.5 320,-160.5 198,-160.5"/>
<text text-anchor="middle" x="259" y="-168.5" font-family="DejaVuSans" font-size="10.00">Exception::description</text>
</a>
</g>
<!-- Node1&#45;&gt;Node3 -->
<g id="edge4" class="edge"><title>Node1&#45;&gt;Node3</title>
<path fill="none" stroke="midnightblue" d="M92.4524,-121.533C113.313,-130.245 144.249,-142.52 172,-151 180.292,-153.534 189.115,-155.915 197.84,-158.09"/>
<polygon fill="midnightblue" stroke="midnightblue" points="197.074,-161.506 207.617,-160.455 198.72,-154.702 197.074,-161.506"/>
</g>
<!-- Node4 -->
<g id="node7" class="node"><title>Node4</title>
<a xlink:href="classcv___abstract_trait.html#a2c71206d61498c443d25cab1051a546f" target="_top" xlink:title="cv_AbstractTrait::getCategoryList">
<polygon fill="white" stroke="black" points="172,-120.5 172,-141.5 346,-141.5 346,-120.5 172,-120.5"/>
<text text-anchor="middle" x="259" y="-128.5" font-family="DejaVuSans" font-size="10.00">cv_AbstractTrait::getCategoryList</text>
</a>
</g>
<!-- Node1&#45;&gt;Node4 -->
<g id="edge6" class="edge"><title>Node1&#45;&gt;Node4</title>
<path fill="none" stroke="midnightblue" d="M135.608,-118.079C144.107,-118.969 152.929,-119.893 161.77,-120.819"/>
<polygon fill="midnightblue" stroke="midnightblue" points="161.435,-124.303 171.745,-121.863 162.164,-117.341 161.435,-124.303"/>
</g>
<!-- Node5 -->
<g id="node9" class="node"><title>Node5</title>
<a xlink:href="class_exception.html#aeaf3a81717287d50938bc72ed67bacd8" target="_top" xlink:title="Exception::message">
<polygon fill="white" stroke="black" points="202.5,-80.5 202.5,-101.5 315.5,-101.5 315.5,-80.5 202.5,-80.5"/>
<text text-anchor="middle" x="259" y="-88.5" font-family="DejaVuSans" font-size="10.00">Exception::message</text>
</a>
</g>
<!-- Node1&#45;&gt;Node5 -->
<g id="edge8" class="edge"><title>Node1&#45;&gt;Node5</title>
<path fill="none" stroke="midnightblue" d="M135.608,-103.921C153.989,-101.996 173.881,-99.913 192.216,-97.9931"/>
<polygon fill="midnightblue" stroke="midnightblue" points="192.641,-101.468 202.222,-96.9453 191.912,-94.5058 192.641,-101.468"/>
</g>
<!-- Node6 -->
<g id="node11" class="node"><title>Node6</title>
<a xlink:href="classcv___abstract_trait.html#add050d72e281131d1591bbf24e87bb15" target="_top" xlink:title="cv_AbstractTrait::toString">
<polygon fill="white" stroke="black" points="190.5,-40.5 190.5,-61.5 327.5,-61.5 327.5,-40.5 190.5,-40.5"/>
<text text-anchor="middle" x="259" y="-48.5" font-family="DejaVuSans" font-size="10.00">cv_AbstractTrait::toString</text>
</a>
</g>
<!-- Node1&#45;&gt;Node6 -->
<g id="edge10" class="edge"><title>Node1&#45;&gt;Node6</title>
<path fill="none" stroke="midnightblue" d="M92.4524,-100.467C113.313,-91.7554 144.249,-79.48 172,-71 180.292,-68.4662 189.115,-66.0846 197.84,-63.9098"/>
<polygon fill="midnightblue" stroke="midnightblue" points="198.72,-67.2981 207.617,-61.5452 197.074,-60.4943 198.72,-67.2981"/>
</g>
<!-- Node7 -->
<g id="node13" class="node"><title>Node7</title>
<a xlink:href="class_storage_template.html#a5dee996b5f02d1e39bde1040c1a9a839" target="_top" xlink:title="StorageTemplate::traits2">
<polygon fill="white" stroke="black" points="191.5,-0.5 191.5,-21.5 326.5,-21.5 326.5,-0.5 191.5,-0.5"/>
<text text-anchor="middle" x="259" y="-8.5" font-family="DejaVuSans" font-size="10.00">StorageTemplate::traits2</text>
</a>
</g>
<!-- Node1&#45;&gt;Node7 -->
<g id="edge12" class="edge"><title>Node1&#45;&gt;Node7</title>
<path fill="none" stroke="midnightblue" d="M78.48,-100.382C96.1433,-83.1182 133.681,-49.0787 172,-31 177.208,-28.5429 182.737,-26.3777 188.384,-24.4715"/>
<polygon fill="midnightblue" stroke="midnightblue" points="189.448,-27.8061 197.963,-21.5022 187.375,-21.12 189.448,-27.8061"/>
</g>
</g>
</svg>
