<?xml version="1.0" encoding="UTF-8" standalone="no"?>
<!DOCTYPE svg PUBLIC "-//W3C//DTD SVG 1.1//EN"
 "http://www.w3.org/Graphics/SVG/1.1/DTD/svg11.dtd">
<!-- Generated by graphviz version 2.26.3 (20100126.1600)
 -->
<!-- Title: G Pages: 1 -->
<svg width="248pt" height="70pt"
 viewBox="0.00 0.00 248.00 70.00" xmlns="http://www.w3.org/2000/svg" xmlns:xlink="http://www.w3.org/1999/xlink">
<g id="graph1" class="graph" transform="scale(1 1) rotate(0) translate(4 66)">
<title>G</title>
<polygon fill="white" stroke="white" points="-4,5 -4,-66 245,-66 245,5 -4,5"/>
<!-- Node1 -->
<g id="node1" class="node"><title>Node1</title>
<polygon fill="#bfbfbf" stroke="black" points="0,-20.5 0,-41.5 88,-41.5 88,-20.5 0,-20.5"/>
<text text-anchor="middle" x="44" y="-28.5" font-family="DejaVuSans" font-size="10.00">Trait::addDetail</text>
</g>
<!-- Node2 -->
<g id="node3" class="node"><title>Node2</title>
<a xlink:href="classcv___trait.html#ab81924fd5e51488a35a63e246830e143" target="_top" xlink:title="cv_Trait::details">
<polygon fill="white" stroke="black" points="137.5,-40.5 137.5,-61.5 226.5,-61.5 226.5,-40.5 137.5,-40.5"/>
<text text-anchor="middle" x="182" y="-48.5" font-family="DejaVuSans" font-size="10.00">cv_Trait::details</text>
</a>
</g>
<!-- Node1&#45;&gt;Node2 -->
<g id="edge2" class="edge"><title>Node1&#45;&gt;Node2</title>
<path fill="none" stroke="midnightblue" d="M88.0435,-37.3831C100.492,-39.1872 114.193,-41.1728 127.191,-43.0567"/>
<polygon fill="midnightblue" stroke="midnightblue" points="127.029,-46.5697 137.428,-44.5402 128.033,-39.642 127.029,-46.5697"/>
</g>
<!-- Node3 -->
<g id="node5" class="node"><title>Node3</title>
<a xlink:href="class_trait.html#ac5a2dc044e1ea5691273c8cd8636afc9" target="_top" xlink:title="Trait::detailsChanged">
<polygon fill="white" stroke="black" points="124,-0.5 124,-21.5 240,-21.5 240,-0.5 124,-0.5"/>
<text text-anchor="middle" x="182" y="-8.5" font-family="DejaVuSans" font-size="10.00">Trait::detailsChanged</text>
</a>
</g>
<!-- Node1&#45;&gt;Node3 -->
<g id="edge4" class="edge"><title>Node1&#45;&gt;Node3</title>
<path fill="none" stroke="midnightblue" d="M88.0435,-24.6169C96.2076,-23.4337 104.91,-22.1724 113.601,-20.913"/>
<polygon fill="midnightblue" stroke="midnightblue" points="114.369,-24.3383 123.763,-19.4401 113.364,-17.4107 114.369,-24.3383"/>
</g>
</g>
</svg>
