<?xml version="1.0" encoding="UTF-8" standalone="no"?>
<!DOCTYPE svg PUBLIC "-//W3C//DTD SVG 1.1//EN"
 "http://www.w3.org/Graphics/SVG/1.1/DTD/svg11.dtd">
<!-- Generated by graphviz version 2.26.3 (20100126.1600)
 -->
<!-- Title: G Pages: 1 -->
<svg width="552pt" height="226pt"
 viewBox="0.00 0.00 552.00 226.00" xmlns="http://www.w3.org/2000/svg" xmlns:xlink="http://www.w3.org/1999/xlink">
<g id="graph1" class="graph" transform="scale(1 1) rotate(0) translate(4 222)">
<title>G</title>
<polygon fill="white" stroke="white" points="-4,5 -4,-222 549,-222 549,5 -4,5"/>
<!-- Node1 -->
<g id="node1" class="node"><title>Node1</title>
<polygon fill="#bfbfbf" stroke="black" points="0,-98.5 0,-119.5 140,-119.5 140,-98.5 0,-98.5"/>
<text text-anchor="middle" x="70" y="-106.5" font-family="DejaVuSans" font-size="10.00">cv_AbstractTrait::category</text>
</g>
<!-- Node2 -->
<g id="node3" class="node"><title>Node2</title>
<a xlink:href="class_check_trait.html#ae987ceb5b1be28de9dc4700d42e00b66" target="_top" xlink:title="CheckTrait::category">
<polygon fill="white" stroke="black" points="199.5,-196.5 199.5,-217.5 312.5,-217.5 312.5,-196.5 199.5,-196.5"/>
<text text-anchor="middle" x="256" y="-204.5" font-family="DejaVuSans" font-size="10.00">CheckTrait::category</text>
</a>
</g>
<!-- Node1&#45;&gt;Node2 -->
<g id="edge2" class="edge"><title>Node1&#45;&gt;Node2</title>
<path fill="none" stroke="midnightblue" d="M90.6064,-125.994C111.162,-142.248 144.181,-166.512 176,-182 187.906,-187.795 201.456,-192.629 213.977,-196.453"/>
<polygon fill="midnightblue" stroke="midnightblue" points="92.5891,-123.098 82.5996,-119.568 88.2075,-128.557 92.5891,-123.098"/>
</g>
<!-- Node3 -->
<g id="node5" class="node"><title>Node3</title>
<a xlink:href="class_check_trait.html#a51f3c15ba4f54f325627a7ad6ca026a8" target="_top" xlink:title="CheckTrait::setCategory">
<polygon fill="white" stroke="black" points="393,-177.5 393,-198.5 523,-198.5 523,-177.5 393,-177.5"/>
<text text-anchor="middle" x="458" y="-185.5" font-family="DejaVuSans" font-size="10.00">CheckTrait::setCategory</text>
</a>
</g>
<!-- Node1&#45;&gt;Node3 -->
<g id="edge16" class="edge"><title>Node1&#45;&gt;Node3</title>
<path fill="none" stroke="midnightblue" d="M102.767,-123.541C123.408,-132.151 150.822,-142.594 176,-149 249.045,-167.584 335.135,-177.866 392.807,-183.143"/>
<polygon fill="midnightblue" stroke="midnightblue" points="104.079,-120.295 93.5063,-119.612 101.345,-126.739 104.079,-120.295"/>
</g>
<!-- Node4 -->
<g id="node7" class="node"><title>Node4</title>
<a xlink:href="class_chara_trait.html#a09c7510a4bfc6569908bca307131e913" target="_top" xlink:title="CharaTrait::category">
<polygon fill="white" stroke="black" points="199.5,-118.5 199.5,-139.5 312.5,-139.5 312.5,-118.5 199.5,-118.5"/>
<text text-anchor="middle" x="256" y="-126.5" font-family="DejaVuSans" font-size="10.00">CharaTrait::category</text>
</a>
</g>
<!-- Node1&#45;&gt;Node4 -->
<g id="edge6" class="edge"><title>Node1&#45;&gt;Node4</title>
<path fill="none" stroke="midnightblue" d="M150.251,-117.629C166.774,-119.406 183.843,-121.241 199.321,-122.905"/>
<polygon fill="midnightblue" stroke="midnightblue" points="150.37,-114.122 140.054,-116.533 149.622,-121.082 150.37,-114.122"/>
</g>
<!-- Node6 -->
<g id="node11" class="node"><title>Node6</title>
<a xlink:href="class_chara_trait.html#a73cbb56f5bc87964994e962168d04e69" target="_top" xlink:title="CharaTrait::setCategory">
<polygon fill="white" stroke="black" points="393.5,-79.5 393.5,-100.5 522.5,-100.5 522.5,-79.5 393.5,-79.5"/>
<text text-anchor="middle" x="458" y="-87.5" font-family="DejaVuSans" font-size="10.00">CharaTrait::setCategory</text>
</a>
</g>
<!-- Node1&#45;&gt;Node6 -->
<g id="edge18" class="edge"><title>Node1&#45;&gt;Node6</title>
<path fill="none" stroke="midnightblue" d="M150.648,-105.051C222.66,-101.524 326.77,-96.4262 393.416,-93.1626"/>
<polygon fill="midnightblue" stroke="midnightblue" points="150.081,-101.574 140.264,-105.559 150.423,-108.566 150.081,-101.574"/>
</g>
<!-- Node7 -->
<g id="node13" class="node"><title>Node7</title>
<a xlink:href="class_storage_character.html#aabaae6015f75abfc6411f5a388418a3b" target="_top" xlink:title="StorageCharacter::modifyTrait">
<polygon fill="white" stroke="black" points="176,-40.5 176,-61.5 336,-61.5 336,-40.5 176,-40.5"/>
<text text-anchor="middle" x="256" y="-48.5" font-family="DejaVuSans" font-size="10.00">StorageCharacter::modifyTrait</text>
</a>
</g>
<!-- Node1&#45;&gt;Node7 -->
<g id="edge12" class="edge"><title>Node1&#45;&gt;Node7</title>
<path fill="none" stroke="midnightblue" d="M113.573,-95.4127C146.758,-85.0646 191.779,-71.0258 222.254,-61.5231"/>
<polygon fill="midnightblue" stroke="midnightblue" points="112.188,-92.1783 103.683,-98.4966 114.272,-98.861 112.188,-92.1783"/>
</g>
<!-- Node8 -->
<g id="node15" class="node"><title>Node8</title>
<a xlink:href="classcv___trait.html#a8c0d39d14efbcce546fbc6212f6e984b" target="_top" xlink:title="cv_Trait::operator==">
<polygon fill="white" stroke="black" points="198,-0.5 198,-21.5 314,-21.5 314,-0.5 198,-0.5"/>
<text text-anchor="middle" x="256" y="-8.5" font-family="DejaVuSans" font-size="10.00">cv_Trait::operator==</text>
</a>
</g>
<!-- Node1&#45;&gt;Node8 -->
<g id="edge14" class="edge"><title>Node1&#45;&gt;Node8</title>
<path fill="none" stroke="midnightblue" d="M88.6098,-91.7422C108.708,-74.0051 142.383,-46.8132 176,-31 184.032,-27.2219 192.866,-24.1007 201.642,-21.5398"/>
<polygon fill="midnightblue" stroke="midnightblue" points="86.21,-89.1931 81.1115,-98.4806 90.8889,-94.3997 86.21,-89.1931"/>
</g>
<!-- Node2&#45;&gt;Node3 -->
<g id="edge4" class="edge"><title>Node2&#45;&gt;Node3</title>
<path fill="none" stroke="midnightblue" d="M322.71,-200.725C345.289,-198.602 370.463,-196.234 392.914,-194.122"/>
<polygon fill="midnightblue" stroke="midnightblue" points="322.165,-197.261 312.537,-201.682 322.821,-204.23 322.165,-197.261"/>
</g>
<!-- Node5 -->
<g id="node9" class="node"><title>Node5</title>
<a xlink:href="class_attribute_widget.html#ab498116d47f94a62e3b82eaa79976b36" target="_top" xlink:title="AttributeWidget::AttributeWidget">
<polygon fill="white" stroke="black" points="372.5,-119.5 372.5,-140.5 543.5,-140.5 543.5,-119.5 372.5,-119.5"/>
<text text-anchor="middle" x="458" y="-127.5" font-family="DejaVuSans" font-size="10.00">AttributeWidget::AttributeWidget</text>
</a>
</g>
<!-- Node4&#45;&gt;Node5 -->
<g id="edge8" class="edge"><title>Node4&#45;&gt;Node5</title>
<path fill="none" stroke="midnightblue" d="M322.764,-129.331C338.636,-129.409 355.788,-129.494 372.373,-129.576"/>
<polygon fill="midnightblue" stroke="midnightblue" points="322.554,-125.83 312.537,-129.28 322.519,-132.829 322.554,-125.83"/>
</g>
<!-- Node4&#45;&gt;Node6 -->
<g id="edge10" class="edge"><title>Node4&#45;&gt;Node6</title>
<path fill="none" stroke="midnightblue" d="M320.438,-116.559C347.19,-111.394 377.899,-105.465 403.505,-100.521"/>
<polygon fill="midnightblue" stroke="midnightblue" points="319.553,-113.165 310.398,-118.497 320.88,-120.038 319.553,-113.165"/>
</g>
</g>
</svg>
