<?xml version="1.0" encoding="UTF-8" standalone="no"?>
<!DOCTYPE svg PUBLIC "-//W3C//DTD SVG 1.1//EN"
 "http://www.w3.org/Graphics/SVG/1.1/DTD/svg11.dtd">
<!-- Generated by graphviz version 2.26.3 (20100126.1600)
 -->
<!-- Title: G Pages: 1 -->
<svg width="392pt" height="70pt"
 viewBox="0.00 0.00 392.00 70.00" xmlns="http://www.w3.org/2000/svg" xmlns:xlink="http://www.w3.org/1999/xlink">
<g id="graph1" class="graph" transform="scale(1 1) rotate(0) translate(4 66)">
<title>G</title>
<polygon fill="white" stroke="white" points="-4,5 -4,-66 389,-66 389,5 -4,5"/>
<!-- Node1 -->
<g id="node1" class="node"><title>Node1</title>
<polygon fill="#bfbfbf" stroke="black" points="0,-20.5 0,-41.5 170,-41.5 170,-20.5 0,-20.5"/>
<text text-anchor="middle" x="85" y="-28.5" font-family="DejaVuSans" font-size="10.00">StorageCharacter::insertIdentity</text>
</g>
<!-- Node2 -->
<g id="node3" class="node"><title>Node2</title>
<a xlink:href="class_storage_character.html#a6a8921fe9bedaadee6d4f680438a8872" target="_top" xlink:title="StorageCharacter::addIdentity">
<polygon fill="white" stroke="black" points="214.5,-40.5 214.5,-61.5 375.5,-61.5 375.5,-40.5 214.5,-40.5"/>
<text text-anchor="middle" x="295" y="-48.5" font-family="DejaVuSans" font-size="10.00">StorageCharacter::addIdentity</text>
</a>
</g>
<!-- Node1&#45;&gt;Node2 -->
<g id="edge2" class="edge"><title>Node1&#45;&gt;Node2</title>
<path fill="none" stroke="midnightblue" d="M180.072,-40.0544C191.466,-41.1396 203.018,-42.2398 214.184,-43.3032"/>
<polygon fill="midnightblue" stroke="midnightblue" points="180.399,-36.5699 170.112,-39.1059 179.735,-43.5383 180.399,-36.5699"/>
</g>
<!-- Node3 -->
<g id="node5" class="node"><title>Node3</title>
<a xlink:href="class_storage_character.html#ae4fc2c6b281bfe6411812dc6f3ff41ff" target="_top" xlink:title="StorageCharacter::setRealIdentity">
<polygon fill="white" stroke="black" points="206,-0.5 206,-21.5 384,-21.5 384,-0.5 206,-0.5"/>
<text text-anchor="middle" x="295" y="-8.5" font-family="DejaVuSans" font-size="10.00">StorageCharacter::setRealIdentity</text>
</a>
</g>
<!-- Node1&#45;&gt;Node3 -->
<g id="edge4" class="edge"><title>Node1&#45;&gt;Node3</title>
<path fill="none" stroke="midnightblue" d="M180.339,-21.9201C188.769,-21.1173 197.282,-20.3065 205.66,-19.5086"/>
<polygon fill="midnightblue" stroke="midnightblue" points="179.735,-18.4617 170.112,-22.8941 180.399,-25.4301 179.735,-18.4617"/>
</g>
</g>
</svg>
