<?xml version="1.0" encoding="UTF-8" standalone="no"?>
<!DOCTYPE svg PUBLIC "-//W3C//DTD SVG 1.1//EN"
 "http://www.w3.org/Graphics/SVG/1.1/DTD/svg11.dtd">
<!-- Generated by graphviz version 2.26.3 (20100126.1600)
 -->
<!-- Title: G Pages: 1 -->
<svg width="590pt" height="30pt"
 viewBox="0.00 0.00 590.00 30.00" xmlns="http://www.w3.org/2000/svg" xmlns:xlink="http://www.w3.org/1999/xlink">
<g id="graph1" class="graph" transform="scale(1 1) rotate(0) translate(4 26)">
<title>G</title>
<polygon fill="white" stroke="white" points="-4,5 -4,-26 587,-26 587,5 -4,5"/>
<!-- Node1 -->
<g id="node1" class="node"><title>Node1</title>
<polygon fill="#bfbfbf" stroke="black" points="0,-0.5 0,-21.5 178,-21.5 178,-0.5 0,-0.5"/>
<text text-anchor="middle" x="89" y="-8.5" font-family="DejaVuSans" font-size="10.00">StorageCharacter::virtueChanged</text>
</g>
<!-- Node2 -->
<g id="node3" class="node"><title>Node2</title>
<a xlink:href="class_storage_character.html#add675d3174e7b9331ad95401f80da7ee" target="_top" xlink:title="StorageCharacter::setVirtue">
<polygon fill="white" stroke="black" points="214,-0.5 214,-21.5 366,-21.5 366,-0.5 214,-0.5"/>
<text text-anchor="middle" x="290" y="-8.5" font-family="DejaVuSans" font-size="10.00">StorageCharacter::setVirtue</text>
</a>
</g>
<!-- Node1&#45;&gt;Node2 -->
<g id="edge2" class="edge"><title>Node1&#45;&gt;Node2</title>
<path fill="none" stroke="midnightblue" d="M188.176,-11C196.83,-11 205.497,-11 213.92,-11"/>
<polygon fill="midnightblue" stroke="midnightblue" points="188.039,-7.5001 178.039,-11 188.039,-14.5001 188.039,-7.5001"/>
</g>
<!-- Node3 -->
<g id="node5" class="node"><title>Node3</title>
<a xlink:href="class_storage_character.html#a6534667b942bd21253c432fee79a8850" target="_top" xlink:title="StorageCharacter::resetCharacter">
<polygon fill="white" stroke="black" points="402,-0.5 402,-21.5 582,-21.5 582,-0.5 402,-0.5"/>
<text text-anchor="middle" x="492" y="-8.5" font-family="DejaVuSans" font-size="10.00">StorageCharacter::resetCharacter</text>
</a>
</g>
<!-- Node2&#45;&gt;Node3 -->
<g id="edge4" class="edge"><title>Node2&#45;&gt;Node3</title>
<path fill="none" stroke="midnightblue" d="M376.268,-11C384.69,-11 393.252,-11 401.713,-11"/>
<polygon fill="midnightblue" stroke="midnightblue" points="376.08,-7.5001 366.08,-11 376.08,-14.5001 376.08,-7.5001"/>
</g>
</g>
</svg>
