<?xml version="1.0" encoding="UTF-8" standalone="no"?>
<!DOCTYPE svg PUBLIC "-//W3C//DTD SVG 1.1//EN"
 "http://www.w3.org/Graphics/SVG/1.1/DTD/svg11.dtd">
<!-- Generated by graphviz version 2.26.3 (20100126.1600)
 -->
<!-- Title: G Pages: 1 -->
<svg width="586pt" height="30pt"
 viewBox="0.00 0.00 586.00 30.00" xmlns="http://www.w3.org/2000/svg" xmlns:xlink="http://www.w3.org/1999/xlink">
<g id="graph1" class="graph" transform="scale(1 1) rotate(0) translate(4 26)">
<title>G</title>
<polygon fill="white" stroke="white" points="-4,5 -4,-26 583,-26 583,5 -4,5"/>
<!-- Node1 -->
<g id="node1" class="node"><title>Node1</title>
<polygon fill="#bfbfbf" stroke="black" points="0.5,-0.5 0.5,-21.5 155.5,-21.5 155.5,-0.5 0.5,-0.5"/>
<text text-anchor="middle" x="78" y="-8.5" font-family="DejaVuSans" font-size="10.00">TraitSpecialties::addSpecialty</text>
</g>
<!-- Node2 -->
<g id="node3" class="node"><title>Node2</title>
<a xlink:href="class_checked_list.html#a8ebfdcbb7f95d5fa6145c0c35d736344" target="_top" xlink:title="CheckedList::addCheckableItem">
<polygon fill="white" stroke="black" points="192,-0.5 192,-21.5 362,-21.5 362,-0.5 192,-0.5"/>
<text text-anchor="middle" x="277" y="-8.5" font-family="DejaVuSans" font-size="10.00">CheckedList::addCheckableItem</text>
</a>
</g>
<!-- Node1&#45;&gt;Node2 -->
<g id="edge2" class="edge"><title>Node1&#45;&gt;Node2</title>
<path fill="none" stroke="midnightblue" d="M155.508,-11C164.058,-11 172.836,-11 181.572,-11"/>
<polygon fill="midnightblue" stroke="midnightblue" points="181.792,-14.5001 191.792,-11 181.792,-7.5001 181.792,-14.5001"/>
</g>
<!-- Node3 -->
<g id="node5" class="node"><title>Node3</title>
<a xlink:href="class_checked_list.html#abfbc8fd08369c8a50da66c4e423b5e9f" target="_top" xlink:title="CheckedList::insertCheckableItem">
<polygon fill="white" stroke="black" points="398.5,-0.5 398.5,-21.5 577.5,-21.5 577.5,-0.5 398.5,-0.5"/>
<text text-anchor="middle" x="488" y="-8.5" font-family="DejaVuSans" font-size="10.00">CheckedList::insertCheckableItem</text>
</a>
</g>
<!-- Node2&#45;&gt;Node3 -->
<g id="edge4" class="edge"><title>Node2&#45;&gt;Node3</title>
<path fill="none" stroke="midnightblue" d="M362.214,-11C370.763,-11 379.497,-11 388.18,-11"/>
<polygon fill="midnightblue" stroke="midnightblue" points="388.335,-14.5001 398.335,-11 388.335,-7.5001 388.335,-14.5001"/>
</g>
</g>
</svg>
