<?xml version="1.0" encoding="UTF-8" standalone="no"?>
<!DOCTYPE svg PUBLIC "-//W3C//DTD SVG 1.1//EN"
 "http://www.w3.org/Graphics/SVG/1.1/DTD/svg11.dtd">
<!-- Generated by graphviz version 2.26.3 (20100126.1600)
 -->
<!-- Title: G Pages: 1 -->
<svg width="1016pt" height="30pt"
 viewBox="0.00 0.00 1016.00 30.00" xmlns="http://www.w3.org/2000/svg" xmlns:xlink="http://www.w3.org/1999/xlink">
<g id="graph1" class="graph" transform="scale(1 1) rotate(0) translate(4 26)">
<title>G</title>
<polygon fill="white" stroke="white" points="-4,5 -4,-26 1013,-26 1013,5 -4,5"/>
<!-- Node1 -->
<g id="node1" class="node"><title>Node1</title>
<polygon fill="#bfbfbf" stroke="black" points="0,-0.5 0,-21.5 168,-21.5 168,-0.5 0,-0.5"/>
<text text-anchor="middle" x="84" y="-8.5" font-family="DejaVuSans" font-size="10.00">ReadTemplate::readSoulCreator</text>
</g>
<!-- Node2 -->
<g id="node3" class="node"><title>Node2</title>
<a xlink:href="class_read_template.html#ad7023d8c02891c892ea33808363bbcd2" target="_top" xlink:title="ReadTemplate::readXml">
<polygon fill="white" stroke="black" points="204.5,-0.5 204.5,-21.5 333.5,-21.5 333.5,-0.5 204.5,-0.5"/>
<text text-anchor="middle" x="269" y="-8.5" font-family="DejaVuSans" font-size="10.00">ReadTemplate::readXml</text>
</a>
</g>
<!-- Node1&#45;&gt;Node2 -->
<g id="edge2" class="edge"><title>Node1&#45;&gt;Node2</title>
<path fill="none" stroke="midnightblue" d="M178.158,-11C187.066,-11 195.954,-11 204.491,-11"/>
<polygon fill="midnightblue" stroke="midnightblue" points="178.109,-7.5001 168.109,-11 178.109,-14.5001 178.109,-7.5001"/>
</g>
<!-- Node3 -->
<g id="node5" class="node"><title>Node3</title>
<a xlink:href="class_read_template.html#a229f7cd3bfc1d0c47caa2cec3a5a0621" target="_top" xlink:title="ReadTemplate::process">
<polygon fill="white" stroke="black" points="370.5,-0.5 370.5,-21.5 497.5,-21.5 497.5,-0.5 370.5,-0.5"/>
<text text-anchor="middle" x="434" y="-8.5" font-family="DejaVuSans" font-size="10.00">ReadTemplate::process</text>
</a>
</g>
<!-- Node2&#45;&gt;Node3 -->
<g id="edge4" class="edge"><title>Node2&#45;&gt;Node3</title>
<path fill="none" stroke="midnightblue" d="M343.971,-11C352.753,-11 361.65,-11 370.259,-11"/>
<polygon fill="midnightblue" stroke="midnightblue" points="343.739,-7.5001 333.739,-11 343.739,-14.5001 343.739,-7.5001"/>
</g>
<!-- Node4 -->
<g id="node7" class="node"><title>Node4</title>
<a xlink:href="class_read_template.html#a3eb0cc39155f082c8c1d71521431e9f4" target="_top" xlink:title="ReadTemplate::read">
<polygon fill="white" stroke="black" points="534.5,-0.5 534.5,-21.5 645.5,-21.5 645.5,-0.5 534.5,-0.5"/>
<text text-anchor="middle" x="590" y="-8.5" font-family="DejaVuSans" font-size="10.00">ReadTemplate::read</text>
</a>
</g>
<!-- Node3&#45;&gt;Node4 -->
<g id="edge6" class="edge"><title>Node3&#45;&gt;Node4</title>
<path fill="none" stroke="midnightblue" d="M507.921,-11C516.845,-11 525.84,-11 534.437,-11"/>
<polygon fill="midnightblue" stroke="midnightblue" points="507.901,-7.5001 497.901,-11 507.901,-14.5001 507.901,-7.5001"/>
</g>
<!-- Node5 -->
<g id="node9" class="node"><title>Node5</title>
<a xlink:href="class_main_window.html#a1ebe4d2e06ddd16007a29bd1b8c09c49" target="_top" xlink:title="MainWindow::storeTemplateData">
<polygon fill="white" stroke="black" points="682.5,-0.5 682.5,-21.5 853.5,-21.5 853.5,-0.5 682.5,-0.5"/>
<text text-anchor="middle" x="768" y="-8.5" font-family="DejaVuSans" font-size="10.00">MainWindow::storeTemplateData</text>
</a>
</g>
<!-- Node4&#45;&gt;Node5 -->
<g id="edge8" class="edge"><title>Node4&#45;&gt;Node5</title>
<path fill="none" stroke="midnightblue" d="M656.109,-11C664.676,-11 673.548,-11 682.375,-11"/>
<polygon fill="midnightblue" stroke="midnightblue" points="655.832,-7.5001 645.832,-11 655.832,-14.5001 655.832,-7.5001"/>
</g>
<!-- Node6 -->
<g id="node11" class="node"><title>Node6</title>
<a xlink:href="class_main_window.html#a43f05c4d3f5d840d070829d3291c9ec7" target="_top" xlink:title="MainWindow::initialize">
<polygon fill="white" stroke="black" points="890,-0.5 890,-21.5 1008,-21.5 1008,-0.5 890,-0.5"/>
<text text-anchor="middle" x="949" y="-8.5" font-family="DejaVuSans" font-size="10.00">MainWindow::initialize</text>
</a>
</g>
<!-- Node5&#45;&gt;Node6 -->
<g id="edge10" class="edge"><title>Node5&#45;&gt;Node6</title>
<path fill="none" stroke="midnightblue" d="M863.781,-11C872.675,-11 881.5,-11 889.912,-11"/>
<polygon fill="midnightblue" stroke="midnightblue" points="863.73,-7.5001 853.73,-11 863.729,-14.5001 863.73,-7.5001"/>
</g>
</g>
</svg>
