<?xml version="1.0" encoding="UTF-8" standalone="no"?>
<!DOCTYPE svg PUBLIC "-//W3C//DTD SVG 1.1//EN"
 "http://www.w3.org/Graphics/SVG/1.1/DTD/svg11.dtd">
<!-- Generated by graphviz version 2.26.3 (20100126.1600)
 -->
<!-- Title: G Pages: 1 -->
<svg width="630pt" height="327pt"
 viewBox="0.00 0.00 630.00 326.75" xmlns="http://www.w3.org/2000/svg" xmlns:xlink="http://www.w3.org/1999/xlink">
<g id="graph1" class="graph" transform="scale(1 1) rotate(0) translate(4 322.746)">
<title>G</title>
<polygon fill="white" stroke="white" points="-4,5 -4,-322.746 627,-322.746 627,5 -4,5"/>
<!-- Node1 -->
<g id="node1" class="node"><title>Node1</title>
<polygon fill="#bfbfbf" stroke="black" points="0.5,-189.5 0.5,-210.5 99.5,-210.5 99.5,-189.5 0.5,-189.5"/>
<text text-anchor="middle" x="50" y="-197.5" font-family="DejaVuSans" font-size="10.00">cv_Trait::setValue</text>
</g>
<!-- Node2 -->
<g id="node3" class="node"><title>Node2</title>
<a xlink:href="class_check_trait.html#a9073e7f8bbac8c351bf829b23a9fc850" target="_top" xlink:title="CheckTrait::setValue">
<polygon fill="white" stroke="black" points="136.5,-258.5 136.5,-279.5 249.5,-279.5 249.5,-258.5 136.5,-258.5"/>
<text text-anchor="middle" x="193" y="-266.5" font-family="DejaVuSans" font-size="10.00">CheckTrait::setValue</text>
</a>
</g>
<!-- Node1&#45;&gt;Node2 -->
<g id="edge2" class="edge"><title>Node1&#45;&gt;Node2</title>
<path fill="none" stroke="midnightblue" d="M81.1282,-215.02C108.34,-228.15 147.157,-246.88 171.179,-258.471"/>
<polygon fill="midnightblue" stroke="midnightblue" points="82.5578,-211.824 72.0304,-210.63 79.5157,-218.128 82.5578,-211.824"/>
</g>
<!-- Node6 -->
<g id="node12" class="node"><title>Node6</title>
<a xlink:href="class_chara_trait.html#abcfeed4a455c49246385c9bc2024ba15" target="_top" xlink:title="CharaTrait::setValue">
<polygon fill="white" stroke="black" points="137,-120.5 137,-141.5 249,-141.5 249,-120.5 137,-120.5"/>
<text text-anchor="middle" x="193" y="-128.5" font-family="DejaVuSans" font-size="10.00">CharaTrait::setValue</text>
</a>
</g>
<!-- Node1&#45;&gt;Node6 -->
<g id="edge12" class="edge"><title>Node1&#45;&gt;Node6</title>
<path fill="none" stroke="midnightblue" d="M81.1282,-184.98C108.34,-171.85 147.157,-153.12 171.179,-141.529"/>
<polygon fill="midnightblue" stroke="midnightblue" points="79.5157,-181.872 72.0304,-189.37 82.5578,-188.176 79.5157,-181.872"/>
</g>
<!-- Node3 -->
<g id="node5" class="node"><title>Node3</title>
<a xlink:href="class_check_trait.html#a0e37d389c1ccaf32a2157463d3c055c6" target="_top" xlink:title="CheckTrait::CheckTrait">
<polygon fill="white" stroke="black" points="502,-277.5 502,-298.5 622,-298.5 622,-277.5 502,-277.5"/>
<text text-anchor="middle" x="562" y="-285.5" font-family="DejaVuSans" font-size="10.00">CheckTrait::CheckTrait</text>
</a>
</g>
<!-- Node2&#45;&gt;Node3 -->
<g id="edge4" class="edge"><title>Node2&#45;&gt;Node3</title>
<path fill="none" stroke="midnightblue" d="M220.794,-284.499C238.783,-293.623 263.051,-304.274 286,-309 364.356,-325.136 386.463,-317.598 466,-309 484.997,-306.946 505.747,-302.67 523.08,-298.509"/>
<polygon fill="midnightblue" stroke="midnightblue" points="221.977,-281.168 211.494,-279.635 218.733,-287.371 221.977,-281.168"/>
</g>
<!-- Node4 -->
<g id="node7" class="node"><title>Node4</title>
<a xlink:href="class_flaw_widget.html#af387a892373d07ce615ad19d6da45448" target="_top" xlink:title="FlawWidget::FlawWidget">
<polygon fill="white" stroke="black" points="312,-278.5 312,-299.5 440,-299.5 440,-278.5 312,-278.5"/>
<text text-anchor="middle" x="376" y="-286.5" font-family="DejaVuSans" font-size="10.00">FlawWidget::FlawWidget</text>
</a>
</g>
<!-- Node2&#45;&gt;Node4 -->
<g id="edge6" class="edge"><title>Node2&#45;&gt;Node4</title>
<path fill="none" stroke="midnightblue" d="M260.214,-276.346C277.062,-278.187 295.095,-280.158 311.793,-281.983"/>
<polygon fill="midnightblue" stroke="midnightblue" points="260.22,-272.826 249.899,-275.218 259.46,-279.784 260.22,-272.826"/>
</g>
<!-- Node5 -->
<g id="node9" class="node"><title>Node5</title>
<a xlink:href="class_check_trait.html#a38b03dfbcc01dbb65a9b345423e232db" target="_top" xlink:title="CheckTrait::hideTraitIfNotAvailable">
<polygon fill="white" stroke="black" points="288,-238.5 288,-259.5 464,-259.5 464,-238.5 288,-238.5"/>
<text text-anchor="middle" x="376" y="-246.5" font-family="DejaVuSans" font-size="10.00">CheckTrait::hideTraitIfNotAvailable</text>
</a>
</g>
<!-- Node2&#45;&gt;Node5 -->
<g id="edge8" class="edge"><title>Node2&#45;&gt;Node5</title>
<path fill="none" stroke="midnightblue" d="M259.987,-261.679C269.072,-260.686 278.505,-259.655 287.89,-258.63"/>
<polygon fill="midnightblue" stroke="midnightblue" points="259.46,-258.216 249.899,-262.782 260.22,-265.174 259.46,-258.216"/>
</g>
<!-- Node5&#45;&gt;Node3 -->
<g id="edge10" class="edge"><title>Node5&#45;&gt;Node3</title>
<path fill="none" stroke="midnightblue" d="M436.187,-261.62C460.55,-266.728 488.359,-272.559 511.625,-277.438"/>
<polygon fill="midnightblue" stroke="midnightblue" points="436.84,-258.181 426.334,-259.554 435.403,-265.032 436.84,-258.181"/>
</g>
<!-- Node7 -->
<g id="node14" class="node"><title>Node7</title>
<a xlink:href="class_attribute_widget.html#ab498116d47f94a62e3b82eaa79976b36" target="_top" xlink:title="AttributeWidget::AttributeWidget">
<polygon fill="white" stroke="black" points="290.5,-198.5 290.5,-219.5 461.5,-219.5 461.5,-198.5 290.5,-198.5"/>
<text text-anchor="middle" x="376" y="-206.5" font-family="DejaVuSans" font-size="10.00">AttributeWidget::AttributeWidget</text>
</a>
</g>
<!-- Node6&#45;&gt;Node7 -->
<g id="edge14" class="edge"><title>Node6&#45;&gt;Node7</title>
<path fill="none" stroke="midnightblue" d="M217.405,-147.134C235.685,-158.659 261.636,-173.858 286,-184 299.774,-189.734 315.271,-194.575 329.474,-198.425"/>
<polygon fill="midnightblue" stroke="midnightblue" points="219.15,-144.096 208.841,-141.65 215.375,-149.99 219.15,-144.096"/>
</g>
<!-- Node8 -->
<g id="node16" class="node"><title>Node8</title>
<a xlink:href="class_chara_trait.html#acfe4795a41019f6c92e85e82c0a6ab1a" target="_top" xlink:title="CharaTrait::CharaTrait">
<polygon fill="white" stroke="black" points="502.5,-100.5 502.5,-121.5 621.5,-121.5 621.5,-100.5 502.5,-100.5"/>
<text text-anchor="middle" x="562" y="-108.5" font-family="DejaVuSans" font-size="10.00">CharaTrait::CharaTrait</text>
</a>
</g>
<!-- Node6&#45;&gt;Node8 -->
<g id="edge16" class="edge"><title>Node6&#45;&gt;Node8</title>
<path fill="none" stroke="midnightblue" d="M242.832,-143.748C256.711,-146.742 271.86,-149.497 286,-151 365.552,-159.457 387.554,-166.689 466,-151 493.974,-145.405 523.986,-131.48 542.864,-121.638"/>
<polygon fill="midnightblue" stroke="midnightblue" points="243.506,-140.313 232.983,-141.54 241.975,-147.143 243.506,-140.313"/>
</g>
<!-- Node9 -->
<g id="node18" class="node"><title>Node9</title>
<a xlink:href="class_chara_trait.html#ab02b27973fec9c68cee320dd61e5c618" target="_top" xlink:title="CharaTrait::checkTraitPrerequisites">
<polygon fill="white" stroke="black" points="286,-120.5 286,-141.5 466,-141.5 466,-120.5 286,-120.5"/>
<text text-anchor="middle" x="376" y="-128.5" font-family="DejaVuSans" font-size="10.00">CharaTrait::checkTraitPrerequisites</text>
</a>
</g>
<!-- Node6&#45;&gt;Node9 -->
<g id="edge18" class="edge"><title>Node6&#45;&gt;Node9</title>
<path fill="none" stroke="midnightblue" d="M259.616,-131C268.136,-131 276.968,-131 285.784,-131"/>
<polygon fill="midnightblue" stroke="midnightblue" points="259.399,-127.5 249.399,-131 259.399,-134.5 259.399,-127.5"/>
</g>
<!-- Node10 -->
<g id="node21" class="node"><title>Node10</title>
<a xlink:href="class_chara_trait.html#a8b30fcf229fb59f96c3926a59269194e" target="_top" xlink:title="CharaTrait::hideTraitIfNotAvailable">
<polygon fill="white" stroke="black" points="288.5,-80.5 288.5,-101.5 463.5,-101.5 463.5,-80.5 288.5,-80.5"/>
<text text-anchor="middle" x="376" y="-88.5" font-family="DejaVuSans" font-size="10.00">CharaTrait::hideTraitIfNotAvailable</text>
</a>
</g>
<!-- Node6&#45;&gt;Node10 -->
<g id="edge22" class="edge"><title>Node6&#45;&gt;Node10</title>
<path fill="none" stroke="midnightblue" d="M251.076,-118.306C275.833,-112.894 304.375,-106.656 327.923,-101.509"/>
<polygon fill="midnightblue" stroke="midnightblue" points="250.103,-114.936 241.081,-120.49 251.598,-121.774 250.103,-114.936"/>
</g>
<!-- Node11 -->
<g id="node24" class="node"><title>Node11</title>
<a xlink:href="class_merit_widget.html#a3f99dd98cf0c027d9e5a65a6a82d88c8" target="_top" xlink:title="MeritWidget::MeritWidget">
<polygon fill="white" stroke="black" points="308.5,-40.5 308.5,-61.5 443.5,-61.5 443.5,-40.5 308.5,-40.5"/>
<text text-anchor="middle" x="376" y="-48.5" font-family="DejaVuSans" font-size="10.00">MeritWidget::MeritWidget</text>
</a>
</g>
<!-- Node6&#45;&gt;Node11 -->
<g id="edge26" class="edge"><title>Node6&#45;&gt;Node11</title>
<path fill="none" stroke="midnightblue" d="M214.122,-114.246C232.219,-100.685 259.49,-82.0778 286,-71 295.009,-67.2355 304.834,-64.1294 314.576,-61.5818"/>
<polygon fill="midnightblue" stroke="midnightblue" points="211.835,-111.589 206.018,-120.443 216.087,-117.149 211.835,-111.589"/>
</g>
<!-- Node12 -->
<g id="node26" class="node"><title>Node12</title>
<a xlink:href="class_chara_trait.html#a0a5adca1cfd4732d6c4f64299e6d6fd3" target="_top" xlink:title="CharaTrait::updateWidget">
<polygon fill="white" stroke="black" points="307.5,-0.5 307.5,-21.5 444.5,-21.5 444.5,-0.5 307.5,-0.5"/>
<text text-anchor="middle" x="376" y="-8.5" font-family="DejaVuSans" font-size="10.00">CharaTrait::updateWidget</text>
</a>
</g>
<!-- Node6&#45;&gt;Node12 -->
<g id="edge28" class="edge"><title>Node6&#45;&gt;Node12</title>
<path fill="none" stroke="midnightblue" d="M205.452,-111.714C221.314,-88.7813 250.922,-51.092 286,-31 292.667,-27.1814 299.998,-24.0917 307.509,-21.5917"/>
<polygon fill="midnightblue" stroke="midnightblue" points="202.376,-110.016 199.699,-120.267 208.184,-113.922 202.376,-110.016"/>
</g>
<!-- Node9&#45;&gt;Node8 -->
<g id="edge20" class="edge"><title>Node9&#45;&gt;Node8</title>
<path fill="none" stroke="midnightblue" d="M476.118,-120.235C485.06,-119.273 493.913,-118.321 502.344,-117.415"/>
<polygon fill="midnightblue" stroke="midnightblue" points="475.572,-116.773 466.003,-121.322 476.32,-123.733 475.572,-116.773"/>
</g>
<!-- Node10&#45;&gt;Node8 -->
<g id="edge24" class="edge"><title>Node10&#45;&gt;Node8</title>
<path fill="none" stroke="midnightblue" d="M473.694,-101.505C483.419,-102.55 493.074,-103.589 502.235,-104.574"/>
<polygon fill="midnightblue" stroke="midnightblue" points="473.87,-98.0036 463.554,-100.414 473.122,-104.963 473.87,-98.0036"/>
</g>
<!-- Node12&#45;&gt;Node8 -->
<g id="edge30" class="edge"><title>Node12&#45;&gt;Node8</title>
<path fill="none" stroke="midnightblue" d="M450.757,-24.6622C456.017,-26.516 461.152,-28.6177 466,-31 502.217,-48.7953 536.484,-82.9633 552.516,-100.318"/>
<polygon fill="midnightblue" stroke="midnightblue" points="451.777,-21.3139 441.186,-21.5861 449.635,-27.9782 451.777,-21.3139"/>
</g>
</g>
</svg>
