<?xml version="1.0" encoding="UTF-8" standalone="no"?>
<!DOCTYPE svg PUBLIC "-//W3C//DTD SVG 1.1//EN"
 "http://www.w3.org/Graphics/SVG/1.1/DTD/svg11.dtd">
<!-- Generated by graphviz version 2.26.3 (20100126.1600)
 -->
<!-- Title: G Pages: 1 -->
<svg width="316pt" height="110pt"
 viewBox="0.00 0.00 316.00 110.00" xmlns="http://www.w3.org/2000/svg" xmlns:xlink="http://www.w3.org/1999/xlink">
<g id="graph1" class="graph" transform="scale(1 1) rotate(0) translate(4 106)">
<title>G</title>
<polygon fill="white" stroke="white" points="-4,5 -4,-106 313,-106 313,5 -4,5"/>
<!-- Node1 -->
<g id="node1" class="node"><title>Node1</title>
<polygon fill="#bfbfbf" stroke="black" points="0.5,-40.5 0.5,-61.5 149.5,-61.5 149.5,-40.5 0.5,-40.5"/>
<text text-anchor="middle" x="75" y="-48.5" font-family="DejaVuSans" font-size="10.00">MainWindow::saveCharacter</text>
</g>
<!-- Node2 -->
<g id="node3" class="node"><title>Node2</title>
<a xlink:href="class_exception.html#a7cb124af6ec64ad88a8721b60c7932fb" target="_top" xlink:title="Exception::description">
<polygon fill="white" stroke="black" points="186,-80.5 186,-101.5 308,-101.5 308,-80.5 186,-80.5"/>
<text text-anchor="middle" x="247" y="-88.5" font-family="DejaVuSans" font-size="10.00">Exception::description</text>
</a>
</g>
<!-- Node1&#45;&gt;Node2 -->
<g id="edge2" class="edge"><title>Node1&#45;&gt;Node2</title>
<path fill="none" stroke="midnightblue" d="M120.191,-61.5095C142.127,-66.6108 168.673,-72.7845 191.798,-78.1622"/>
<polygon fill="midnightblue" stroke="midnightblue" points="191.28,-81.6351 201.813,-80.4913 192.865,-74.817 191.28,-81.6351"/>
</g>
<!-- Node3 -->
<g id="node5" class="node"><title>Node3</title>
<a xlink:href="class_exception.html#aeaf3a81717287d50938bc72ed67bacd8" target="_top" xlink:title="Exception::message">
<polygon fill="white" stroke="black" points="190.5,-40.5 190.5,-61.5 303.5,-61.5 303.5,-40.5 190.5,-40.5"/>
<text text-anchor="middle" x="247" y="-48.5" font-family="DejaVuSans" font-size="10.00">Exception::message</text>
</a>
</g>
<!-- Node1&#45;&gt;Node3 -->
<g id="edge4" class="edge"><title>Node1&#45;&gt;Node3</title>
<path fill="none" stroke="midnightblue" d="M149.691,-51C159.784,-51 170.089,-51 180.036,-51"/>
<polygon fill="midnightblue" stroke="midnightblue" points="180.248,-54.5001 190.248,-51 180.248,-47.5001 180.248,-54.5001"/>
</g>
<!-- Node4 -->
<g id="node7" class="node"><title>Node4</title>
<a xlink:href="class_config.html#a51a7741458f76f7d2bac25543fb4cba8" target="_top" xlink:title="Config::saveDir">
<polygon fill="white" stroke="black" points="202.5,-0.5 202.5,-21.5 291.5,-21.5 291.5,-0.5 202.5,-0.5"/>
<text text-anchor="middle" x="247" y="-8.5" font-family="DejaVuSans" font-size="10.00">Config::saveDir</text>
</a>
</g>
<!-- Node1&#45;&gt;Node4 -->
<g id="edge6" class="edge"><title>Node1&#45;&gt;Node4</title>
<path fill="none" stroke="midnightblue" d="M120.191,-40.4905C142.399,-35.3258 169.334,-29.0619 192.658,-23.6377"/>
<polygon fill="midnightblue" stroke="midnightblue" points="193.461,-27.0443 202.409,-21.3701 191.876,-20.2263 193.461,-27.0443"/>
</g>
</g>
</svg>
