<?xml version="1.0" encoding="UTF-8" standalone="no"?>
<!DOCTYPE svg PUBLIC "-//W3C//DTD SVG 1.1//EN"
 "http://www.w3.org/Graphics/SVG/1.1/DTD/svg11.dtd">
<!-- Generated by graphviz version 2.26.3 (20100126.1600)
 -->
<!-- Title: G Pages: 1 -->
<svg width="606pt" height="150pt"
 viewBox="0.00 0.00 606.00 150.00" xmlns="http://www.w3.org/2000/svg" xmlns:xlink="http://www.w3.org/1999/xlink">
<g id="graph1" class="graph" transform="scale(1 1) rotate(0) translate(4 146)">
<title>G</title>
<polygon fill="white" stroke="white" points="-4,5 -4,-146 603,-146 603,5 -4,5"/>
<!-- Node1 -->
<g id="node1" class="node"><title>Node1</title>
<polygon fill="#bfbfbf" stroke="black" points="0,-60.5 0,-81.5 144,-81.5 144,-60.5 0,-60.5"/>
<text text-anchor="middle" x="72" y="-68.5" font-family="DejaVuSans" font-size="10.00">StorageCharacter::species</text>
</g>
<!-- Node2 -->
<g id="node3" class="node"><title>Node2</title>
<a xlink:href="class_advantages_widget.html#a99d7de9b9f89d58a8361e1fd27162f04" target="_top" xlink:title="AdvantagesWidget::AdvantagesWidget">
<polygon fill="white" stroke="black" points="180.5,-120.5 180.5,-141.5 381.5,-141.5 381.5,-120.5 180.5,-120.5"/>
<text text-anchor="middle" x="281" y="-128.5" font-family="DejaVuSans" font-size="10.00">AdvantagesWidget::AdvantagesWidget</text>
</a>
</g>
<!-- Node1&#45;&gt;Node2 -->
<g id="edge2" class="edge"><title>Node1&#45;&gt;Node2</title>
<path fill="none" stroke="midnightblue" d="M106.383,-85.3316C127.375,-93.6787 154.916,-103.92 180,-111 192.73,-114.593 206.54,-117.78 219.742,-120.496"/>
<polygon fill="midnightblue" stroke="midnightblue" points="107.521,-82.0169 96.9375,-81.5283 104.906,-88.5103 107.521,-82.0169"/>
</g>
<!-- Node3 -->
<g id="node5" class="node"><title>Node3</title>
<a xlink:href="class_draw_sheet.html#a4ecacd2a87e4bdcae52df69601a19fa4" target="_top" xlink:title="DrawSheet::print">
<polygon fill="white" stroke="black" points="232.5,-80.5 232.5,-101.5 329.5,-101.5 329.5,-80.5 232.5,-80.5"/>
<text text-anchor="middle" x="281" y="-88.5" font-family="DejaVuSans" font-size="10.00">DrawSheet::print</text>
</a>
</g>
<!-- Node1&#45;&gt;Node3 -->
<g id="edge4" class="edge"><title>Node1&#45;&gt;Node3</title>
<path fill="none" stroke="midnightblue" d="M154.251,-78.8709C180.721,-81.4039 209.188,-84.1281 232.426,-86.3517"/>
<polygon fill="midnightblue" stroke="midnightblue" points="154.507,-75.3795 144.219,-77.9109 153.84,-82.3476 154.507,-75.3795"/>
</g>
<!-- Node4 -->
<g id="node7" class="node"><title>Node4</title>
<a xlink:href="class_storage_character.html#ac708bf6fd9e70736fe84e9529d2dfe18" target="_top" xlink:title="StorageCharacter::setSpecies">
<polygon fill="white" stroke="black" points="200.5,-40.5 200.5,-61.5 361.5,-61.5 361.5,-40.5 200.5,-40.5"/>
<text text-anchor="middle" x="281" y="-48.5" font-family="DejaVuSans" font-size="10.00">StorageCharacter::setSpecies</text>
</a>
</g>
<!-- Node1&#45;&gt;Node4 -->
<g id="edge6" class="edge"><title>Node1&#45;&gt;Node4</title>
<path fill="none" stroke="midnightblue" d="M154.507,-63.1046C169.539,-61.6662 185.206,-60.1669 200.188,-58.7332"/>
<polygon fill="midnightblue" stroke="midnightblue" points="153.84,-59.6524 144.219,-64.0891 154.507,-66.6205 153.84,-59.6524"/>
</g>
<!-- Node6 -->
<g id="node11" class="node"><title>Node6</title>
<a xlink:href="class_write_xml_character.html#af657074e346540e71b20ab2ccae3bc9c" target="_top" xlink:title="WriteXmlCharacter::write">
<polygon fill="white" stroke="black" points="214,-0.5 214,-21.5 348,-21.5 348,-0.5 214,-0.5"/>
<text text-anchor="middle" x="281" y="-8.5" font-family="DejaVuSans" font-size="10.00">WriteXmlCharacter::write</text>
</a>
</g>
<!-- Node1&#45;&gt;Node6 -->
<g id="edge10" class="edge"><title>Node1&#45;&gt;Node6</title>
<path fill="none" stroke="midnightblue" d="M106.383,-56.6684C127.375,-48.3213 154.916,-38.0801 180,-31 192.73,-27.4068 206.54,-24.2198 219.742,-21.5044"/>
<polygon fill="midnightblue" stroke="midnightblue" points="104.906,-53.4897 96.9375,-60.4717 107.521,-59.9831 104.906,-53.4897"/>
</g>
<!-- Node5 -->
<g id="node9" class="node"><title>Node5</title>
<a xlink:href="class_storage_character.html#a6534667b942bd21253c432fee79a8850" target="_top" xlink:title="StorageCharacter::resetCharacter">
<polygon fill="white" stroke="black" points="418,-40.5 418,-61.5 598,-61.5 598,-40.5 418,-40.5"/>
<text text-anchor="middle" x="508" y="-48.5" font-family="DejaVuSans" font-size="10.00">StorageCharacter::resetCharacter</text>
</a>
</g>
<!-- Node4&#45;&gt;Node5 -->
<g id="edge8" class="edge"><title>Node4&#45;&gt;Node5</title>
<path fill="none" stroke="midnightblue" d="M372.038,-51C387.16,-51 402.837,-51 417.935,-51"/>
<polygon fill="midnightblue" stroke="midnightblue" points="371.671,-47.5001 361.671,-51 371.671,-54.5001 371.671,-47.5001"/>
</g>
</g>
</svg>
