<?xml version="1.0" encoding="UTF-8" standalone="no"?>
<!DOCTYPE svg PUBLIC "-//W3C//DTD SVG 1.1//EN"
 "http://www.w3.org/Graphics/SVG/1.1/DTD/svg11.dtd">
<!-- Generated by graphviz version 2.26.3 (20100126.1600)
 -->
<!-- Title: G Pages: 1 -->
<svg width="408pt" height="146pt"
 viewBox="0.00 0.00 408.00 146.00" xmlns="http://www.w3.org/2000/svg" xmlns:xlink="http://www.w3.org/1999/xlink">
<g id="graph1" class="graph" transform="scale(1 1) rotate(0) translate(4 142)">
<title>G</title>
<polygon fill="white" stroke="white" points="-4,5 -4,-142 405,-142 405,5 -4,5"/>
<!-- Node1 -->
<g id="node1" class="node"><title>Node1</title>
<polygon fill="#bfbfbf" stroke="black" points="114.5,-58.5 114.5,-79.5 295.5,-79.5 295.5,-58.5 114.5,-58.5"/>
<text text-anchor="middle" x="205" y="-66.5" font-family="DejaVuSans" font-size="10.00">src.Widgets.TraitWidget.TraitWidget</text>
</g>
<!-- Node3 -->
<g id="node5" class="node"><title>Node3</title>
<a xlink:href="classsrc_1_1_widgets_1_1_trait_widget_1_1_attribute_widget.html" target="_top" xlink:title="Das Widget, in welchem sämtliche Attribute angeordnet sind.">
<polygon fill="white" stroke="black" points="-0.5,-0.5 -0.5,-21.5 202.5,-21.5 202.5,-0.5 -0.5,-0.5"/>
<text text-anchor="middle" x="101" y="-8.5" font-family="DejaVuSans" font-size="10.00">src.Widgets.TraitWidget.AttributeWidget</text>
</a>
</g>
<!-- Node1&#45;&gt;Node3 -->
<g id="edge4" class="edge"><title>Node1&#45;&gt;Node3</title>
<path fill="none" stroke="midnightblue" d="M176.99,-53.379C158.919,-43.3011 135.898,-30.4624 119.954,-21.5707"/>
<polygon fill="midnightblue" stroke="midnightblue" points="175.486,-56.548 185.925,-58.3619 178.896,-50.4344 175.486,-56.548"/>
</g>
<!-- Node4 -->
<g id="node7" class="node"><title>Node4</title>
<a xlink:href="classsrc_1_1_widgets_1_1_trait_widget_1_1_skill_widget.html" target="_top" xlink:title="Das Widget, in welchem sämtliche Fertigkeiten angeordnet sind.">
<polygon fill="white" stroke="black" points="220,-0.5 220,-21.5 400,-21.5 400,-0.5 220,-0.5"/>
<text text-anchor="middle" x="310" y="-8.5" font-family="DejaVuSans" font-size="10.00">src.Widgets.TraitWidget.SkillWidget</text>
</a>
</g>
<!-- Node1&#45;&gt;Node4 -->
<g id="edge6" class="edge"><title>Node1&#45;&gt;Node4</title>
<path fill="none" stroke="midnightblue" d="M233.029,-53.5175C251.311,-43.4189 274.692,-30.5032 290.863,-21.5707"/>
<polygon fill="midnightblue" stroke="midnightblue" points="231.32,-50.463 224.259,-58.3619 234.704,-56.5903 231.32,-50.463"/>
</g>
<!-- Node2 -->
<g id="node2" class="node"><title>Node2</title>
<polygon fill="white" stroke="#bfbfbf" points="177,-116.5 177,-137.5 233,-137.5 233,-116.5 177,-116.5"/>
<text text-anchor="middle" x="205" y="-124.5" font-family="DejaVuSans" font-size="10.00">QWidget</text>
</g>
<!-- Node2&#45;&gt;Node1 -->
<g id="edge2" class="edge"><title>Node2&#45;&gt;Node1</title>
<path fill="none" stroke="midnightblue" d="M205,-106.191C205,-97.1684 205,-86.9941 205,-79.5707"/>
<polygon fill="midnightblue" stroke="midnightblue" points="201.5,-106.362 205,-116.362 208.5,-106.362 201.5,-106.362"/>
</g>
</g>
</svg>
