<?xml version="1.0" encoding="UTF-8" standalone="no"?>
<!DOCTYPE svg PUBLIC "-//W3C//DTD SVG 1.1//EN"
 "http://www.w3.org/Graphics/SVG/1.1/DTD/svg11.dtd">
<!-- Generated by graphviz version 2.26.3 (20100126.1600)
 -->
<!-- Title: G Pages: 1 -->
<svg width="384pt" height="110pt"
 viewBox="0.00 0.00 384.00 110.00" xmlns="http://www.w3.org/2000/svg" xmlns:xlink="http://www.w3.org/1999/xlink">
<g id="graph1" class="graph" transform="scale(1 1) rotate(0) translate(4 106)">
<title>G</title>
<polygon fill="white" stroke="white" points="-4,5 -4,-106 381,-106 381,5 -4,5"/>
<!-- Node1 -->
<g id="node1" class="node"><title>Node1</title>
<polygon fill="#bfbfbf" stroke="black" points="0,-40.5 0,-61.5 206,-61.5 206,-40.5 0,-40.5"/>
<text text-anchor="middle" x="103" y="-48.5" font-family="DejaVuSans" font-size="10.00">XmlWriteCharacter::writeCharacterTraits</text>
</g>
<!-- Node2 -->
<g id="node3" class="node"><title>Node2</title>
<a xlink:href="class_exception.html#aeaf3a81717287d50938bc72ed67bacd8" target="_top" xlink:title="Exception::message">
<polygon fill="white" stroke="black" points="252.5,-80.5 252.5,-101.5 365.5,-101.5 365.5,-80.5 252.5,-80.5"/>
<text text-anchor="middle" x="309" y="-88.5" font-family="DejaVuSans" font-size="10.00">Exception::message</text>
</a>
</g>
<!-- Node1&#45;&gt;Node2 -->
<g id="edge2" class="edge"><title>Node1&#45;&gt;Node2</title>
<path fill="none" stroke="midnightblue" d="M157.124,-61.5095C183.985,-66.7252 216.619,-73.0619 244.742,-78.5227"/>
<polygon fill="midnightblue" stroke="midnightblue" points="244.396,-82.0209 254.88,-80.4913 245.731,-75.1492 244.396,-82.0209"/>
</g>
<!-- Node3 -->
<g id="node5" class="node"><title>Node3</title>
<a xlink:href="classcv___trait.html#a920c534878c753e4ed6d692ab7c6473d" target="_top" xlink:title="cv_Trait::toString">
<polygon fill="white" stroke="black" points="261,-40.5 261,-61.5 357,-61.5 357,-40.5 261,-40.5"/>
<text text-anchor="middle" x="309" y="-48.5" font-family="DejaVuSans" font-size="10.00">cv_Trait::toString</text>
</a>
</g>
<!-- Node1&#45;&gt;Node3 -->
<g id="edge4" class="edge"><title>Node1&#45;&gt;Node3</title>
<path fill="none" stroke="midnightblue" d="M206.302,-51C221.501,-51 236.692,-51 250.55,-51"/>
<polygon fill="midnightblue" stroke="midnightblue" points="250.866,-54.5001 260.866,-51 250.866,-47.5001 250.866,-54.5001"/>
</g>
<!-- Node4 -->
<g id="node7" class="node"><title>Node4</title>
<a xlink:href="class_storage_character.html#a96cb116fee13bcdc51c810b03799aaca" target="_top" xlink:title="StorageCharacter::traits">
<polygon fill="white" stroke="black" points="242.5,-0.5 242.5,-21.5 375.5,-21.5 375.5,-0.5 242.5,-0.5"/>
<text text-anchor="middle" x="309" y="-8.5" font-family="DejaVuSans" font-size="10.00">StorageCharacter::traits</text>
</a>
</g>
<!-- Node1&#45;&gt;Node4 -->
<g id="edge6" class="edge"><title>Node1&#45;&gt;Node4</title>
<path fill="none" stroke="midnightblue" d="M157.124,-40.4905C183.985,-35.2748 216.619,-28.9381 244.742,-23.4773"/>
<polygon fill="midnightblue" stroke="midnightblue" points="245.731,-26.8508 254.88,-21.5087 244.396,-19.9791 245.731,-26.8508"/>
</g>
</g>
</svg>
