<?xml version="1.0" encoding="UTF-8" standalone="no"?>
<!DOCTYPE svg PUBLIC "-//W3C//DTD SVG 1.1//EN"
 "http://www.w3.org/Graphics/SVG/1.1/DTD/svg11.dtd">
<!-- Generated by graphviz version 2.26.3 (20100126.1600)
 -->
<!-- Title: G Pages: 1 -->
<svg width="264pt" height="154pt"
 viewBox="0.00 0.00 264.00 154.00" xmlns="http://www.w3.org/2000/svg" xmlns:xlink="http://www.w3.org/1999/xlink">
<g id="graph1" class="graph" transform="scale(1 1) rotate(0) translate(4 150)">
<title>G</title>
<polygon fill="white" stroke="white" points="-4,5 -4,-150 261,-150 261,5 -4,5"/>
<!-- Node1 -->
<g id="node1" class="node"><title>Node1</title>
<polygon fill="#bfbfbf" stroke="black" points="0,-0.5 0,-21.5 256,-21.5 256,-0.5 0,-0.5"/>
<text text-anchor="middle" x="128" y="-8.5" font-family="DejaVuSans" font-size="10.00">src.Widgets.AdvantagesWidget.AdvantagesWidget</text>
</g>
<!-- Node2 -->
<g id="node2" class="node"><title>Node2</title>
<polygon fill="white" stroke="#bfbfbf" points="67,-124.5 67,-145.5 123,-145.5 123,-124.5 67,-124.5"/>
<text text-anchor="middle" x="95" y="-132.5" font-family="DejaVuSans" font-size="10.00">QWidget</text>
</g>
<!-- Node2&#45;&gt;Node1 -->
<g id="edge2" class="edge"><title>Node2&#45;&gt;Node1</title>
<path fill="none" stroke="midnightblue" d="M100.43,-114.598C107.534,-87.9042 119.72,-42.1138 125.194,-21.5454"/>
<polygon fill="midnightblue" stroke="midnightblue" points="97.0031,-113.864 97.8136,-124.428 103.768,-115.664 97.0031,-113.864"/>
</g>
<!-- Node3 -->
<g id="node4" class="node"><title>Node3</title>
<polygon fill="white" stroke="#bfbfbf" points="140.5,-124.5 140.5,-145.5 181.5,-145.5 181.5,-124.5 140.5,-124.5"/>
<text text-anchor="middle" x="161" y="-132.5" font-family="DejaVuSans" font-size="10.00">tuple</text>
</g>
<!-- Node3&#45;&gt;Node1 -->
<g id="edge4" class="edge"><title>Node3&#45;&gt;Node1</title>
<path fill="none" stroke="#9a32cd" stroke-dasharray="5,2" d="M155.57,-114.598C148.466,-87.9042 136.28,-42.1138 130.806,-21.5454"/>
<polygon fill="#9a32cd" stroke="#9a32cd" points="152.232,-115.664 158.186,-124.428 158.997,-113.864 152.232,-115.664"/>
<text text-anchor="middle" x="194.5" y="-96.5" font-family="DejaVuSans" font-size="10.00">healthChanged</text>
<text text-anchor="middle" x="194.5" y="-83.5" font-family="DejaVuSans" font-size="10.00">speedChanged</text>
<text text-anchor="middle" x="194.5" y="-70.5" font-family="DejaVuSans" font-size="10.00">sizeChanged</text>
<text text-anchor="middle" x="194.5" y="-57.5" font-family="DejaVuSans" font-size="10.00">defenseChanged</text>
<text text-anchor="middle" x="194.5" y="-44.5" font-family="DejaVuSans" font-size="10.00">initiativeChanged</text>
</g>
</g>
</svg>
