<?xml version="1.0" encoding="UTF-8" standalone="no"?>
<!DOCTYPE svg PUBLIC "-//W3C//DTD SVG 1.1//EN"
 "http://www.w3.org/Graphics/SVG/1.1/DTD/svg11.dtd">
<!-- Generated by graphviz version 2.26.3 (20100126.1600)
 -->
<!-- Title: G Pages: 1 -->
<svg width="980pt" height="310pt"
 viewBox="0.00 0.00 980.00 310.00" xmlns="http://www.w3.org/2000/svg" xmlns:xlink="http://www.w3.org/1999/xlink">
<g id="graph1" class="graph" transform="scale(1 1) rotate(0) translate(4 306)">
<title>G</title>
<polygon fill="white" stroke="white" points="-4,5 -4,-306 977,-306 977,5 -4,5"/>
<!-- Node1 -->
<g id="node1" class="node"><title>Node1</title>
<polygon fill="#bfbfbf" stroke="black" points="0,-140.5 0,-161.5 180,-161.5 180,-140.5 0,-140.5"/>
<text text-anchor="middle" x="90" y="-148.5" font-family="DejaVuSans" font-size="10.00">StorageCharacter::resetCharacter</text>
</g>
<!-- Node2 -->
<g id="node3" class="node"><title>Node2</title>
<a xlink:href="class_storage_character.html#a1a573fb4f44cea6f113f9638af0c46da" target="_top" xlink:title="StorageCharacter::realIdentityChanged">
<polygon fill="white" stroke="black" points="216,-280.5 216,-301.5 420,-301.5 420,-280.5 216,-280.5"/>
<text text-anchor="middle" x="318" y="-288.5" font-family="DejaVuSans" font-size="10.00">StorageCharacter::realIdentityChanged</text>
</a>
</g>
<!-- Node1&#45;&gt;Node2 -->
<g id="edge2" class="edge"><title>Node1&#45;&gt;Node2</title>
<path fill="none" stroke="midnightblue" d="M97.7464,-161.73C115.618,-185.615 162.336,-243.245 216,-271 220.542,-273.349 225.328,-275.423 230.249,-277.254"/>
<polygon fill="midnightblue" stroke="midnightblue" points="229.254,-280.612 239.848,-280.485 231.487,-273.978 229.254,-280.612"/>
</g>
<!-- Node3 -->
<g id="node5" class="node"><title>Node3</title>
<a xlink:href="class_storage_character.html#aaaaa83765f09e957f5592def8849765f" target="_top" xlink:title="StorageCharacter::setMorality">
<polygon fill="white" stroke="black" points="237.5,-240.5 237.5,-261.5 398.5,-261.5 398.5,-240.5 237.5,-240.5"/>
<text text-anchor="middle" x="318" y="-248.5" font-family="DejaVuSans" font-size="10.00">StorageCharacter::setMorality</text>
</a>
</g>
<!-- Node1&#45;&gt;Node3 -->
<g id="edge4" class="edge"><title>Node1&#45;&gt;Node3</title>
<path fill="none" stroke="midnightblue" d="M103.07,-161.667C125.005,-179 171.236,-213.138 216,-231 222.419,-233.561 229.2,-235.804 236.091,-237.766"/>
<polygon fill="midnightblue" stroke="midnightblue" points="235.675,-241.275 246.237,-240.443 237.461,-234.507 235.675,-241.275"/>
</g>
<!-- Node5 -->
<g id="node9" class="node"><title>Node5</title>
<a xlink:href="class_storage_character.html#ac708bf6fd9e70736fe84e9529d2dfe18" target="_top" xlink:title="StorageCharacter::setSpecies">
<polygon fill="white" stroke="black" points="237.5,-200.5 237.5,-221.5 398.5,-221.5 398.5,-200.5 237.5,-200.5"/>
<text text-anchor="middle" x="318" y="-208.5" font-family="DejaVuSans" font-size="10.00">StorageCharacter::setSpecies</text>
</a>
</g>
<!-- Node1&#45;&gt;Node5 -->
<g id="edge8" class="edge"><title>Node1&#45;&gt;Node5</title>
<path fill="none" stroke="midnightblue" d="M119.764,-161.505C145.122,-170.2 182.648,-182.466 216,-191 226.44,-193.671 237.56,-196.185 248.474,-198.469"/>
<polygon fill="midnightblue" stroke="midnightblue" points="247.916,-201.927 258.415,-200.499 249.318,-195.069 247.916,-201.927"/>
</g>
<!-- Node8 -->
<g id="node15" class="node"><title>Node8</title>
<a xlink:href="class_storage_character.html#a87224c378e7576e028c9f9a697bd23e8" target="_top" xlink:title="StorageCharacter::setVice">
<polygon fill="white" stroke="black" points="246.5,-160.5 246.5,-181.5 389.5,-181.5 389.5,-160.5 246.5,-160.5"/>
<text text-anchor="middle" x="318" y="-168.5" font-family="DejaVuSans" font-size="10.00">StorageCharacter::setVice</text>
</a>
</g>
<!-- Node1&#45;&gt;Node8 -->
<g id="edge14" class="edge"><title>Node1&#45;&gt;Node8</title>
<path fill="none" stroke="midnightblue" d="M180.112,-158.905C198.701,-160.535 218.177,-162.244 236.442,-163.846"/>
<polygon fill="midnightblue" stroke="midnightblue" points="236.183,-167.336 246.451,-164.724 236.795,-160.363 236.183,-167.336"/>
</g>
<!-- Node10 -->
<g id="node19" class="node"><title>Node10</title>
<a xlink:href="class_storage_character.html#add675d3174e7b9331ad95401f80da7ee" target="_top" xlink:title="StorageCharacter::setVirtue">
<polygon fill="white" stroke="black" points="242,-120.5 242,-141.5 394,-141.5 394,-120.5 242,-120.5"/>
<text text-anchor="middle" x="318" y="-128.5" font-family="DejaVuSans" font-size="10.00">StorageCharacter::setVirtue</text>
</a>
</g>
<!-- Node1&#45;&gt;Node10 -->
<g id="edge18" class="edge"><title>Node1&#45;&gt;Node10</title>
<path fill="none" stroke="midnightblue" d="M180.112,-143.095C197.017,-141.613 214.655,-140.065 231.449,-138.592"/>
<polygon fill="midnightblue" stroke="midnightblue" points="232.126,-142.046 241.782,-137.686 231.515,-135.073 232.126,-142.046"/>
</g>
<!-- Node12 -->
<g id="node23" class="node"><title>Node12</title>
<a xlink:href="class_storage_character.html#ace2a365b231b39b1857f115c7361166f" target="_top" xlink:title="StorageCharacter::traitChanged">
<polygon fill="white" stroke="black" points="233,-80.5 233,-101.5 403,-101.5 403,-80.5 233,-80.5"/>
<text text-anchor="middle" x="318" y="-88.5" font-family="DejaVuSans" font-size="10.00">StorageCharacter::traitChanged</text>
</a>
</g>
<!-- Node1&#45;&gt;Node12 -->
<g id="edge22" class="edge"><title>Node1&#45;&gt;Node12</title>
<path fill="none" stroke="midnightblue" d="M119.764,-140.495C145.122,-131.8 182.648,-119.534 216,-111 226.44,-108.329 237.56,-105.815 248.474,-103.531"/>
<polygon fill="midnightblue" stroke="midnightblue" points="249.318,-106.931 258.415,-101.501 247.916,-100.073 249.318,-106.931"/>
</g>
<!-- Node13 -->
<g id="node25" class="node"><title>Node13</title>
<a xlink:href="class_storage_template.html#ad86a34d5b7fb0bd4f6bbb8a75f1cf5f5" target="_top" xlink:title="StorageTemplate::viceNames">
<polygon fill="white" stroke="black" points="239,-40.5 239,-61.5 397,-61.5 397,-40.5 239,-40.5"/>
<text text-anchor="middle" x="318" y="-48.5" font-family="DejaVuSans" font-size="10.00">StorageTemplate::viceNames</text>
</a>
</g>
<!-- Node1&#45;&gt;Node13 -->
<g id="edge24" class="edge"><title>Node1&#45;&gt;Node13</title>
<path fill="none" stroke="midnightblue" d="M103.07,-140.333C125.005,-123 171.236,-88.8617 216,-71 222.419,-68.4388 229.2,-66.1963 236.091,-64.2345"/>
<polygon fill="midnightblue" stroke="midnightblue" points="237.461,-67.4927 246.237,-61.5566 235.675,-60.7245 237.461,-67.4927"/>
</g>
<!-- Node17 -->
<g id="node33" class="node"><title>Node17</title>
<a xlink:href="class_storage_template.html#a6b5bc4437780ff4334b25241926512fe" target="_top" xlink:title="StorageTemplate::virtueNames">
<polygon fill="white" stroke="black" points="235,-0.5 235,-21.5 401,-21.5 401,-0.5 235,-0.5"/>
<text text-anchor="middle" x="318" y="-8.5" font-family="DejaVuSans" font-size="10.00">StorageTemplate::virtueNames</text>
</a>
</g>
<!-- Node1&#45;&gt;Node17 -->
<g id="edge32" class="edge"><title>Node1&#45;&gt;Node17</title>
<path fill="none" stroke="midnightblue" d="M97.7464,-140.27C115.618,-116.385 162.336,-58.7553 216,-31 220.542,-28.6509 225.328,-26.5768 230.249,-24.7457"/>
<polygon fill="midnightblue" stroke="midnightblue" points="231.487,-28.0219 239.848,-21.5151 229.254,-21.3875 231.487,-28.0219"/>
</g>
<!-- Node4 -->
<g id="node7" class="node"><title>Node4</title>
<a xlink:href="class_storage_character.html#aa42c8c70147f95fc49d497cde543d765" target="_top" xlink:title="StorageCharacter::moralityChanged">
<polygon fill="white" stroke="black" points="456,-280.5 456,-301.5 646,-301.5 646,-280.5 456,-280.5"/>
<text text-anchor="middle" x="551" y="-288.5" font-family="DejaVuSans" font-size="10.00">StorageCharacter::moralityChanged</text>
</a>
</g>
<!-- Node3&#45;&gt;Node4 -->
<g id="edge6" class="edge"><title>Node3&#45;&gt;Node4</title>
<path fill="none" stroke="midnightblue" d="M379.218,-261.51C409.999,-266.794 447.483,-273.229 479.573,-278.738"/>
<polygon fill="midnightblue" stroke="midnightblue" points="479.339,-282.249 489.787,-280.491 480.523,-275.35 479.339,-282.249"/>
</g>
<!-- Node6 -->
<g id="node11" class="node"><title>Node6</title>
<a xlink:href="class_storage_character.html#a003ec6624532c534b04c93f18f9c381c" target="_top" xlink:title="StorageCharacter::species">
<polygon fill="white" stroke="black" points="479,-240.5 479,-261.5 623,-261.5 623,-240.5 479,-240.5"/>
<text text-anchor="middle" x="551" y="-248.5" font-family="DejaVuSans" font-size="10.00">StorageCharacter::species</text>
</a>
</g>
<!-- Node5&#45;&gt;Node6 -->
<g id="edge10" class="edge"><title>Node5&#45;&gt;Node6</title>
<path fill="none" stroke="midnightblue" d="M379.218,-221.51C409.999,-226.794 447.483,-233.229 479.573,-238.738"/>
<polygon fill="midnightblue" stroke="midnightblue" points="479.339,-242.249 489.787,-240.491 480.523,-235.35 479.339,-242.249"/>
</g>
<!-- Node7 -->
<g id="node13" class="node"><title>Node7</title>
<a xlink:href="class_storage_character.html#a42fa91622893ca1b2005df84b3fdd1f3" target="_top" xlink:title="StorageCharacter::speciesChanged">
<polygon fill="white" stroke="black" points="457.5,-200.5 457.5,-221.5 644.5,-221.5 644.5,-200.5 457.5,-200.5"/>
<text text-anchor="middle" x="551" y="-208.5" font-family="DejaVuSans" font-size="10.00">StorageCharacter::speciesChanged</text>
</a>
</g>
<!-- Node5&#45;&gt;Node7 -->
<g id="edge12" class="edge"><title>Node5&#45;&gt;Node7</title>
<path fill="none" stroke="midnightblue" d="M398.512,-211C414.198,-211 430.849,-211 447.165,-211"/>
<polygon fill="midnightblue" stroke="midnightblue" points="447.269,-214.5 457.269,-211 447.269,-207.5 447.269,-214.5"/>
</g>
<!-- Node9 -->
<g id="node17" class="node"><title>Node9</title>
<a xlink:href="class_storage_character.html#a790e4c2bd2375f7da84afaf5c5ebfa07" target="_top" xlink:title="StorageCharacter::viceChanged">
<polygon fill="white" stroke="black" points="466,-160.5 466,-181.5 636,-181.5 636,-160.5 466,-160.5"/>
<text text-anchor="middle" x="551" y="-168.5" font-family="DejaVuSans" font-size="10.00">StorageCharacter::viceChanged</text>
</a>
</g>
<!-- Node8&#45;&gt;Node9 -->
<g id="edge16" class="edge"><title>Node8&#45;&gt;Node9</title>
<path fill="none" stroke="midnightblue" d="M389.809,-171C410.681,-171 433.808,-171 455.876,-171"/>
<polygon fill="midnightblue" stroke="midnightblue" points="455.929,-174.5 465.929,-171 455.929,-167.5 455.929,-174.5"/>
</g>
<!-- Node11 -->
<g id="node21" class="node"><title>Node11</title>
<a xlink:href="class_storage_character.html#a9ed85dd892ba396b932bff9f167dffb0" target="_top" xlink:title="StorageCharacter::virtueChanged">
<polygon fill="white" stroke="black" points="462,-120.5 462,-141.5 640,-141.5 640,-120.5 462,-120.5"/>
<text text-anchor="middle" x="551" y="-128.5" font-family="DejaVuSans" font-size="10.00">StorageCharacter::virtueChanged</text>
</a>
</g>
<!-- Node10&#45;&gt;Node11 -->
<g id="edge20" class="edge"><title>Node10&#45;&gt;Node11</title>
<path fill="none" stroke="midnightblue" d="M394.293,-131C412.715,-131 432.666,-131 451.963,-131"/>
<polygon fill="midnightblue" stroke="midnightblue" points="451.983,-134.5 461.983,-131 451.983,-127.5 451.983,-134.5"/>
</g>
<!-- Node14 -->
<g id="node27" class="node"><title>Node14</title>
<a xlink:href="class_storage_template.html#aa1c01bbdf076afcacd1e785d2a4d6573" target="_top" xlink:title="StorageTemplate::traitNames">
<polygon fill="white" stroke="black" points="472,-20.5 472,-41.5 630,-41.5 630,-20.5 472,-20.5"/>
<text text-anchor="middle" x="551" y="-28.5" font-family="DejaVuSans" font-size="10.00">StorageTemplate::traitNames</text>
</a>
</g>
<!-- Node13&#45;&gt;Node14 -->
<g id="edge26" class="edge"><title>Node13&#45;&gt;Node14</title>
<path fill="none" stroke="midnightblue" d="M397.208,-44.201C417.936,-42.4218 440.425,-40.4914 461.642,-38.6702"/>
<polygon fill="midnightblue" stroke="midnightblue" points="461.951,-42.1567 471.615,-37.8142 461.352,-35.1823 461.951,-42.1567"/>
</g>
<!-- Node15 -->
<g id="node29" class="node"><title>Node15</title>
<a xlink:href="class_storage_template.html#a5d5beec85c0760ed8129a2585e7a94d4" target="_top" xlink:title="StorageTemplate::traits">
<polygon fill="white" stroke="black" points="682.5,-20.5 682.5,-41.5 811.5,-41.5 811.5,-20.5 682.5,-20.5"/>
<text text-anchor="middle" x="747" y="-28.5" font-family="DejaVuSans" font-size="10.00">StorageTemplate::traits</text>
</a>
</g>
<!-- Node14&#45;&gt;Node15 -->
<g id="edge28" class="edge"><title>Node14&#45;&gt;Node15</title>
<path fill="none" stroke="midnightblue" d="M630.156,-31C643.956,-31 658.274,-31 671.959,-31"/>
<polygon fill="midnightblue" stroke="midnightblue" points="672.282,-34.5001 682.282,-31 672.282,-27.5001 672.282,-34.5001"/>
</g>
<!-- Node16 -->
<g id="node31" class="node"><title>Node16</title>
<a xlink:href="class_storage_template.html#aceb757eb50e7326356f589179d78ee89" target="_top" xlink:title="StorageTemplate::trait">
<polygon fill="white" stroke="black" points="848,-20.5 848,-41.5 972,-41.5 972,-20.5 848,-20.5"/>
<text text-anchor="middle" x="910" y="-28.5" font-family="DejaVuSans" font-size="10.00">StorageTemplate::trait</text>
</a>
</g>
<!-- Node15&#45;&gt;Node16 -->
<g id="edge30" class="edge"><title>Node15&#45;&gt;Node16</title>
<path fill="none" stroke="midnightblue" d="M811.89,-31C820.441,-31 829.246,-31 837.908,-31"/>
<polygon fill="midnightblue" stroke="midnightblue" points="837.986,-34.5001 847.986,-31 837.986,-27.5001 837.986,-34.5001"/>
</g>
<!-- Node17&#45;&gt;Node14 -->
<g id="edge34" class="edge"><title>Node17&#45;&gt;Node14</title>
<path fill="none" stroke="midnightblue" d="M401.132,-18.1358C420.809,-19.8248 441.873,-21.6329 461.807,-23.344"/>
<polygon fill="midnightblue" stroke="midnightblue" points="461.539,-26.8337 471.802,-24.2019 462.138,-19.8594 461.539,-26.8337"/>
</g>
</g>
</svg>
