<?xml version="1.0" encoding="UTF-8" standalone="no"?>
<!DOCTYPE svg PUBLIC "-//W3C//DTD SVG 1.1//EN"
 "http://www.w3.org/Graphics/SVG/1.1/DTD/svg11.dtd">
<!-- Generated by graphviz version 2.26.3 (20100126.1600)
 -->
<!-- Title: G Pages: 1 -->
<svg width="460pt" height="30pt"
 viewBox="0.00 0.00 460.00 30.00" xmlns="http://www.w3.org/2000/svg" xmlns:xlink="http://www.w3.org/1999/xlink">
<g id="graph1" class="graph" transform="scale(1 1) rotate(0) translate(4 26)">
<title>G</title>
<polygon fill="white" stroke="white" points="-4,5 -4,-26 457,-26 457,5 -4,5"/>
<!-- Node1 -->
<g id="node1" class="node"><title>Node1</title>
<polygon fill="#bfbfbf" stroke="black" points="0,-0.5 0,-21.5 86,-21.5 86,-0.5 0,-0.5"/>
<text text-anchor="middle" x="43" y="-8.5" font-family="DejaVuSans" font-size="10.00">cv_Trait::toAge</text>
</g>
<!-- Node2 -->
<g id="node3" class="node"><title>Node2</title>
<a xlink:href="class_read_template.html#ac35b7e479a713187f491bbc01b95c69f" target="_top" xlink:title="ReadTemplate::storeTraitData">
<polygon fill="white" stroke="black" points="122.5,-0.5 122.5,-21.5 279.5,-21.5 279.5,-0.5 122.5,-0.5"/>
<text text-anchor="middle" x="201" y="-8.5" font-family="DejaVuSans" font-size="10.00">ReadTemplate::storeTraitData</text>
</a>
</g>
<!-- Node1&#45;&gt;Node2 -->
<g id="edge2" class="edge"><title>Node1&#45;&gt;Node2</title>
<path fill="none" stroke="midnightblue" d="M96.1977,-11C104.618,-11 113.478,-11 122.333,-11"/>
<polygon fill="midnightblue" stroke="midnightblue" points="96.1742,-7.5001 86.1742,-11 96.1742,-14.5001 96.1742,-7.5001"/>
</g>
<!-- Node3 -->
<g id="node5" class="node"><title>Node3</title>
<a xlink:href="class_read_template.html#ad079297b59fa808daac606ad797ac980" target="_top" xlink:title="ReadTemplate::readTraits">
<polygon fill="white" stroke="black" points="316,-0.5 316,-21.5 452,-21.5 452,-0.5 316,-0.5"/>
<text text-anchor="middle" x="384" y="-8.5" font-family="DejaVuSans" font-size="10.00">ReadTemplate::readTraits</text>
</a>
</g>
<!-- Node2&#45;&gt;Node3 -->
<g id="edge4" class="edge"><title>Node2&#45;&gt;Node3</title>
<path fill="none" stroke="midnightblue" d="M289.858,-11C298.566,-11 307.305,-11 315.76,-11"/>
<polygon fill="midnightblue" stroke="midnightblue" points="289.671,-7.5001 279.671,-11 289.67,-14.5001 289.671,-7.5001"/>
</g>
</g>
</svg>
