<?xml version="1.0" encoding="UTF-8" standalone="no"?>
<!DOCTYPE svg PUBLIC "-//W3C//DTD SVG 1.1//EN"
 "http://www.w3.org/Graphics/SVG/1.1/DTD/svg11.dtd">
<!-- Generated by graphviz version 2.26.3 (20100126.1600)
 -->
<!-- Title: G Pages: 1 -->
<svg width="546pt" height="70pt"
 viewBox="0.00 0.00 546.00 70.00" xmlns="http://www.w3.org/2000/svg" xmlns:xlink="http://www.w3.org/1999/xlink">
<g id="graph1" class="graph" transform="scale(1 1) rotate(0) translate(4 66)">
<title>G</title>
<polygon fill="white" stroke="white" points="-4,5 -4,-66 543,-66 543,5 -4,5"/>
<!-- Node1 -->
<g id="node1" class="node"><title>Node1</title>
<polygon fill="#bfbfbf" stroke="black" points="0.5,-20.5 0.5,-41.5 213.5,-41.5 213.5,-20.5 0.5,-20.5"/>
<text text-anchor="middle" x="107" y="-28.5" font-family="DejaVuSans" font-size="10.00">eDatabaseNotOpen::eDatabaseNotOpen</text>
</g>
<!-- Node2 -->
<g id="node3" class="node"><title>Node2</title>
<a xlink:href="class_exception.html#a032056e0558a40affd69325368840a72" target="_top" xlink:title="Exception::setDescription">
<polygon fill="white" stroke="black" points="250,-40.5 250,-61.5 388,-61.5 388,-40.5 250,-40.5"/>
<text text-anchor="middle" x="319" y="-48.5" font-family="DejaVuSans" font-size="10.00">Exception::setDescription</text>
</a>
</g>
<!-- Node1&#45;&gt;Node2 -->
<g id="edge2" class="edge"><title>Node1&#45;&gt;Node2</title>
<path fill="none" stroke="midnightblue" d="M213.621,-41.0586C222.344,-41.8815 231.062,-42.704 239.538,-43.5036"/>
<polygon fill="midnightblue" stroke="midnightblue" points="239.456,-47.0113 249.74,-44.4661 240.113,-40.0422 239.456,-47.0113"/>
</g>
<!-- Node3 -->
<g id="node5" class="node"><title>Node3</title>
<a xlink:href="class_exception.html#a16b5202a71fe00abb2c278adca10b415" target="_top" xlink:title="Exception::setMessage">
<polygon fill="white" stroke="black" points="255.5,-0.5 255.5,-21.5 382.5,-21.5 382.5,-0.5 255.5,-0.5"/>
<text text-anchor="middle" x="319" y="-8.5" font-family="DejaVuSans" font-size="10.00">Exception::setMessage</text>
</a>
</g>
<!-- Node1&#45;&gt;Node3 -->
<g id="edge4" class="edge"><title>Node1&#45;&gt;Node3</title>
<path fill="none" stroke="midnightblue" d="M213.621,-20.9414C224.293,-19.9346 234.956,-18.9286 245.179,-17.9643"/>
<polygon fill="midnightblue" stroke="midnightblue" points="245.611,-21.4391 255.238,-17.0153 244.954,-14.4701 245.611,-21.4391"/>
</g>
<!-- Node4 -->
<g id="node7" class="node"><title>Node4</title>
<a xlink:href="class_exception.html#aeaf3a81717287d50938bc72ed67bacd8" target="_top" xlink:title="Exception::message">
<polygon fill="white" stroke="black" points="424.5,-0.5 424.5,-21.5 537.5,-21.5 537.5,-0.5 424.5,-0.5"/>
<text text-anchor="middle" x="481" y="-8.5" font-family="DejaVuSans" font-size="10.00">Exception::message</text>
</a>
</g>
<!-- Node3&#45;&gt;Node4 -->
<g id="edge6" class="edge"><title>Node3&#45;&gt;Node4</title>
<path fill="none" stroke="midnightblue" d="M382.562,-11C392.933,-11 403.705,-11 414.152,-11"/>
<polygon fill="midnightblue" stroke="midnightblue" points="414.465,-14.5001 424.465,-11 414.465,-7.5001 414.465,-14.5001"/>
</g>
</g>
</svg>
