<?xml version="1.0" encoding="UTF-8" standalone="no"?>
<!DOCTYPE svg PUBLIC "-//W3C//DTD SVG 1.1//EN"
 "http://www.w3.org/Graphics/SVG/1.1/DTD/svg11.dtd">
<!-- Generated by graphviz version 2.26.3 (20100126.1600)
 -->
<!-- Title: G Pages: 1 -->
<svg width="834pt" height="582pt"
 viewBox="0.00 0.00 834.00 582.00" xmlns="http://www.w3.org/2000/svg" xmlns:xlink="http://www.w3.org/1999/xlink">
<g id="graph1" class="graph" transform="scale(1 1) rotate(0) translate(4 578)">
<title>G</title>
<polygon fill="white" stroke="white" points="-4,5 -4,-578 831,-578 831,5 -4,5"/>
<!-- Node1 -->
<g id="node1" class="node"><title>Node1</title>
<polygon fill="#bfbfbf" stroke="black" points="0.5,-200.5 0.5,-221.5 119.5,-221.5 119.5,-200.5 0.5,-200.5"/>
<text text-anchor="middle" x="60" y="-208.5" font-family="DejaVuSans" font-size="10.00">CharaTrait::CharaTrait</text>
</g>
<!-- Node2 -->
<g id="node3" class="node"><title>Node2</title>
<a xlink:href="class_chara_trait.html#ab04ba68cad00668e6379a9e3fb1e5d8a" target="_top" xlink:title="CharaTrait::emitSpecialtiesClicked">
<polygon fill="white" stroke="black" points="156,-512.5 156,-533.5 334,-533.5 334,-512.5 156,-512.5"/>
<text text-anchor="middle" x="245" y="-520.5" font-family="DejaVuSans" font-size="10.00">CharaTrait::emitSpecialtiesClicked</text>
</a>
</g>
<!-- Node1&#45;&gt;Node2 -->
<g id="edge2" class="edge"><title>Node1&#45;&gt;Node2</title>
<path fill="none" stroke="midnightblue" d="M62.193,-221.745C72.0316,-268.965 113.48,-457.512 156,-498 160.068,-501.874 164.687,-505.155 169.631,-507.935"/>
<polygon fill="midnightblue" stroke="midnightblue" points="168.308,-511.183 178.831,-512.414 171.372,-504.89 168.308,-511.183"/>
</g>
<!-- Node4 -->
<g id="node7" class="node"><title>Node4</title>
<a xlink:href="class_chara_trait.html#ae6604555d60fe78d7473942e3502060b" target="_top" xlink:title="CharaTrait::specialtiesClicked">
<polygon fill="white" stroke="black" points="370.5,-474.5 370.5,-495.5 525.5,-495.5 525.5,-474.5 370.5,-474.5"/>
<text text-anchor="middle" x="448" y="-482.5" font-family="DejaVuSans" font-size="10.00">CharaTrait::specialtiesClicked</text>
</a>
</g>
<!-- Node1&#45;&gt;Node4 -->
<g id="edge52" class="edge"><title>Node1&#45;&gt;Node4</title>
<path fill="none" stroke="midnightblue" d="M60.3654,-221.55C62.3495,-260.797 75.051,-399.211 156,-460 222.715,-510.1 323.767,-506.275 387.796,-497.052"/>
<polygon fill="midnightblue" stroke="midnightblue" points="388.386,-500.503 397.743,-495.533 387.329,-493.583 388.386,-500.503"/>
</g>
<!-- Node5 -->
<g id="node9" class="node"><title>Node5</title>
<a xlink:href="class_chara_trait.html#ae8854bf878fa9aab4dafc27a943d05b6" target="_top" xlink:title="CharaTrait::traitPtr">
<polygon fill="white" stroke="black" points="577,-416.5 577,-437.5 681,-437.5 681,-416.5 577,-416.5"/>
<text text-anchor="middle" x="629" y="-424.5" font-family="DejaVuSans" font-size="10.00">CharaTrait::traitPtr</text>
</a>
</g>
<!-- Node1&#45;&gt;Node5 -->
<g id="edge54" class="edge"><title>Node1&#45;&gt;Node5</title>
<path fill="none" stroke="midnightblue" d="M64.5088,-221.775C75.8904,-247.668 108.314,-313.841 156,-349 279.088,-439.754 469.162,-440.413 566.649,-433.555"/>
<polygon fill="midnightblue" stroke="midnightblue" points="566.935,-437.044 576.644,-432.802 566.409,-430.063 566.935,-437.044"/>
</g>
<!-- Node6 -->
<g id="node11" class="node"><title>Node6</title>
<a xlink:href="class_storage_character.html#a50022b948be1e566d902d64095c4470b" target="_top" xlink:title="StorageCharacter::getInstance">
<polygon fill="white" stroke="black" points="163,-200.5 163,-221.5 327,-221.5 327,-200.5 163,-200.5"/>
<text text-anchor="middle" x="245" y="-208.5" font-family="DejaVuSans" font-size="10.00">StorageCharacter::getInstance</text>
</a>
</g>
<!-- Node1&#45;&gt;Node6 -->
<g id="edge10" class="edge"><title>Node1&#45;&gt;Node6</title>
<path fill="none" stroke="midnightblue" d="M119.553,-211C130.148,-211 141.405,-211 152.659,-211"/>
<polygon fill="midnightblue" stroke="midnightblue" points="152.975,-214.5 162.975,-211 152.975,-207.5 152.975,-214.5"/>
</g>
<!-- Node7 -->
<g id="node13" class="node"><title>Node7</title>
<a xlink:href="class_chara_trait.html#a794ddd73f3604b16fe4b468b4a02f7df" target="_top" xlink:title="CharaTrait::hideDescriptionWidget">
<polygon fill="white" stroke="black" points="156.5,-240.5 156.5,-261.5 333.5,-261.5 333.5,-240.5 156.5,-240.5"/>
<text text-anchor="middle" x="245" y="-248.5" font-family="DejaVuSans" font-size="10.00">CharaTrait::hideDescriptionWidget</text>
</a>
</g>
<!-- Node1&#45;&gt;Node7 -->
<g id="edge12" class="edge"><title>Node1&#45;&gt;Node7</title>
<path fill="none" stroke="midnightblue" d="M108.607,-221.51C132.412,-226.657 161.266,-232.895 186.294,-238.307"/>
<polygon fill="midnightblue" stroke="midnightblue" points="185.883,-241.799 196.397,-240.491 187.363,-234.957 185.883,-241.799"/>
</g>
<!-- Node11 -->
<g id="node21" class="node"><title>Node11</title>
<a xlink:href="class_chara_trait.html#a6ccfc01fdf16b09ebfbdac163dc611b1" target="_top" xlink:title="CharaTrait::hideSpecialtyWidget">
<polygon fill="white" stroke="black" points="161.5,-160.5 161.5,-181.5 328.5,-181.5 328.5,-160.5 161.5,-160.5"/>
<text text-anchor="middle" x="245" y="-168.5" font-family="DejaVuSans" font-size="10.00">CharaTrait::hideSpecialtyWidget</text>
</a>
</g>
<!-- Node1&#45;&gt;Node11 -->
<g id="edge20" class="edge"><title>Node1&#45;&gt;Node11</title>
<path fill="none" stroke="midnightblue" d="M108.607,-200.49C132.412,-195.343 161.266,-189.105 186.294,-183.693"/>
<polygon fill="midnightblue" stroke="midnightblue" points="187.363,-187.043 196.397,-181.509 185.883,-180.201 187.363,-187.043"/>
</g>
<!-- Node13 -->
<g id="node25" class="node"><title>Node13</title>
<a xlink:href="class_chara_trait.html#a8b30fcf229fb59f96c3926a59269194e" target="_top" xlink:title="CharaTrait::hideTraitIfNotAvailable">
<polygon fill="white" stroke="black" points="157.5,-120.5 157.5,-141.5 332.5,-141.5 332.5,-120.5 157.5,-120.5"/>
<text text-anchor="middle" x="245" y="-128.5" font-family="DejaVuSans" font-size="10.00">CharaTrait::hideTraitIfNotAvailable</text>
</a>
</g>
<!-- Node1&#45;&gt;Node13 -->
<g id="edge24" class="edge"><title>Node1&#45;&gt;Node13</title>
<path fill="none" stroke="midnightblue" d="M73.5024,-200.476C91.3858,-187.044 124.367,-163.996 156,-151 162.102,-148.493 168.575,-146.272 175.136,-144.311"/>
<polygon fill="midnightblue" stroke="midnightblue" points="176.088,-147.679 184.779,-141.62 174.207,-140.937 176.088,-147.679"/>
</g>
<!-- Node16 -->
<g id="node31" class="node"><title>Node16</title>
<a xlink:href="class_chara_trait.html#ace22816278072df97eb782603153600b" target="_top" xlink:title="CharaTrait::setCustomText">
<polygon fill="white" stroke="black" points="174,-318.5 174,-339.5 316,-339.5 316,-318.5 174,-318.5"/>
<text text-anchor="middle" x="245" y="-326.5" font-family="DejaVuSans" font-size="10.00">CharaTrait::setCustomText</text>
</a>
</g>
<!-- Node1&#45;&gt;Node16 -->
<g id="edge30" class="edge"><title>Node1&#45;&gt;Node16</title>
<path fill="none" stroke="midnightblue" d="M76.7438,-221.68C109.352,-242.478 181.529,-288.515 219.891,-312.984"/>
<polygon fill="midnightblue" stroke="midnightblue" points="218.114,-316.003 228.427,-318.429 221.879,-310.101 218.114,-316.003"/>
</g>
<!-- Node21 -->
<g id="node44" class="node"><title>Node21</title>
<a xlink:href="class_trait_line.html#a928e4906892bb23afce954034542373d" target="_top" xlink:title="TraitLine::setPossibleValues">
<polygon fill="white" stroke="black" points="171.5,-80.5 171.5,-101.5 318.5,-101.5 318.5,-80.5 171.5,-80.5"/>
<text text-anchor="middle" x="245" y="-88.5" font-family="DejaVuSans" font-size="10.00">TraitLine::setPossibleValues</text>
</a>
</g>
<!-- Node1&#45;&gt;Node21 -->
<g id="edge46" class="edge"><title>Node1&#45;&gt;Node21</title>
<path fill="none" stroke="midnightblue" d="M67.0089,-200.28C81.1701,-179.536 115.331,-133.932 156,-111 159.908,-108.797 164.041,-106.836 168.301,-105.091"/>
<polygon fill="midnightblue" stroke="midnightblue" points="169.611,-108.338 177.792,-101.606 167.199,-101.767 169.611,-108.338"/>
</g>
<!-- Node23 -->
<g id="node48" class="node"><title>Node23</title>
<a xlink:href="class_chara_trait.html#abd56630f06841ee374edce8bc31575cb" target="_top" xlink:title="CharaTrait::setTraitPtr">
<polygon fill="white" stroke="black" points="185.5,-40.5 185.5,-61.5 304.5,-61.5 304.5,-40.5 185.5,-40.5"/>
<text text-anchor="middle" x="245" y="-48.5" font-family="DejaVuSans" font-size="10.00">CharaTrait::setTraitPtr</text>
</a>
</g>
<!-- Node1&#45;&gt;Node23 -->
<g id="edge50" class="edge"><title>Node1&#45;&gt;Node23</title>
<path fill="none" stroke="midnightblue" d="M64.1124,-200.191C74.8176,-173.599 106.224,-104.717 156,-71 162.04,-66.9089 168.787,-63.6425 175.792,-61.0365"/>
<polygon fill="midnightblue" stroke="midnightblue" points="177.044,-64.3097 185.462,-57.8768 174.87,-57.6559 177.044,-64.3097"/>
</g>
<!-- Node24 -->
<g id="node52" class="node"><title>Node24</title>
<a xlink:href="classcv___abstract_trait.html#aba0dfcb5b539afe0db14c6e3c4ddd4bc" target="_top" xlink:title="cv_AbstractTrait::type">
<polygon fill="white" stroke="black" points="185.5,-0.5 185.5,-21.5 304.5,-21.5 304.5,-0.5 185.5,-0.5"/>
<text text-anchor="middle" x="245" y="-8.5" font-family="DejaVuSans" font-size="10.00">cv_AbstractTrait::type</text>
</a>
</g>
<!-- Node1&#45;&gt;Node24 -->
<g id="edge56" class="edge"><title>Node1&#45;&gt;Node24</title>
<path fill="none" stroke="midnightblue" d="M62.3454,-200.467C69.884,-169.2 96.552,-76.2812 156,-31 161.89,-26.5138 168.596,-22.9992 175.625,-20.2509"/>
<polygon fill="midnightblue" stroke="midnightblue" points="177.011,-23.4771 185.363,-16.9588 174.769,-16.8458 177.011,-23.4771"/>
</g>
<!-- Node3 -->
<g id="node5" class="node"><title>Node3</title>
<a xlink:href="classcv___trait.html#ab81924fd5e51488a35a63e246830e143" target="_top" xlink:title="cv_Trait::details">
<polygon fill="white" stroke="black" points="403.5,-552.5 403.5,-573.5 492.5,-573.5 492.5,-552.5 403.5,-552.5"/>
<text text-anchor="middle" x="448" y="-560.5" font-family="DejaVuSans" font-size="10.00">cv_Trait::details</text>
</a>
</g>
<!-- Node2&#45;&gt;Node3 -->
<g id="edge4" class="edge"><title>Node2&#45;&gt;Node3</title>
<path fill="none" stroke="midnightblue" d="M298.336,-533.51C327.549,-539.266 363.691,-546.387 393.14,-552.19"/>
<polygon fill="midnightblue" stroke="midnightblue" points="392.766,-555.684 403.254,-554.183 394.12,-548.816 392.766,-555.684"/>
</g>
<!-- Node2&#45;&gt;Node4 -->
<g id="edge6" class="edge"><title>Node2&#45;&gt;Node4</title>
<path fill="none" stroke="midnightblue" d="M301.277,-512.465C326.138,-507.812 355.549,-502.306 381.486,-497.451"/>
<polygon fill="midnightblue" stroke="midnightblue" points="382.428,-500.835 391.613,-495.555 381.14,-493.955 382.428,-500.835"/>
</g>
<!-- Node2&#45;&gt;Node5 -->
<g id="edge8" class="edge"><title>Node2&#45;&gt;Node5</title>
<path fill="none" stroke="midnightblue" d="M334.114,-530.198C390.767,-531.681 464.718,-527.791 526,-505 560.4,-492.206 592.904,-463.902 611.882,-445.141"/>
<polygon fill="midnightblue" stroke="midnightblue" points="614.63,-447.339 619.154,-437.758 609.643,-442.427 614.63,-447.339"/>
</g>
<!-- Node8 -->
<g id="node15" class="node"><title>Node8</title>
<a xlink:href="class_chara_trait.html#a6f2348de11d23f9f44eb81335a9edf19" target="_top" xlink:title="CharaTrait::custom">
<polygon fill="white" stroke="black" points="575.5,-263.5 575.5,-284.5 682.5,-284.5 682.5,-263.5 575.5,-263.5"/>
<text text-anchor="middle" x="629" y="-271.5" font-family="DejaVuSans" font-size="10.00">CharaTrait::custom</text>
</a>
</g>
<!-- Node7&#45;&gt;Node8 -->
<g id="edge14" class="edge"><title>Node7&#45;&gt;Node8</title>
<path fill="none" stroke="midnightblue" d="M333.58,-256.306C404.391,-260.547 501.955,-266.391 565.252,-270.182"/>
<polygon fill="midnightblue" stroke="midnightblue" points="565.303,-273.691 575.494,-270.795 565.721,-266.703 565.303,-273.691"/>
</g>
<!-- Node10 -->
<g id="node19" class="node"><title>Node10</title>
<a xlink:href="class_trait_line.html#aba4c8e4ee4f0aab02bb26d4bb63e7dec" target="_top" xlink:title="TraitLine::hideDescription">
<polygon fill="white" stroke="black" points="380,-200.5 380,-221.5 516,-221.5 516,-200.5 380,-200.5"/>
<text text-anchor="middle" x="448" y="-208.5" font-family="DejaVuSans" font-size="10.00">TraitLine::hideDescription</text>
</a>
</g>
<!-- Node7&#45;&gt;Node10 -->
<g id="edge18" class="edge"><title>Node7&#45;&gt;Node10</title>
<path fill="none" stroke="midnightblue" d="M298.336,-240.49C324.805,-235.275 356.964,-228.938 384.678,-223.477"/>
<polygon fill="midnightblue" stroke="midnightblue" points="385.534,-226.876 394.668,-221.509 384.18,-220.008 385.534,-226.876"/>
</g>
<!-- Node9 -->
<g id="node17" class="node"><title>Node9</title>
<a xlink:href="classcv___trait.html#af96ea047974ec3f6bb2cd1b0ade7cf13" target="_top" xlink:title="cv_Trait::custom">
<polygon fill="white" stroke="black" points="732,-312.5 732,-333.5 826,-333.5 826,-312.5 732,-312.5"/>
<text text-anchor="middle" x="779" y="-320.5" font-family="DejaVuSans" font-size="10.00">cv_Trait::custom</text>
</a>
</g>
<!-- Node8&#45;&gt;Node9 -->
<g id="edge16" class="edge"><title>Node8&#45;&gt;Node9</title>
<path fill="none" stroke="midnightblue" d="M661.179,-284.512C683.347,-291.753 713.021,-301.447 737.043,-309.294"/>
<polygon fill="midnightblue" stroke="midnightblue" points="736.023,-312.643 746.616,-312.421 738.197,-305.989 736.023,-312.643"/>
</g>
<!-- Node12 -->
<g id="node23" class="node"><title>Node12</title>
<a xlink:href="class_trait_line.html#a95f9132e89bcfae9a062573649e98c19" target="_top" xlink:title="TraitLine::hideSpecialties">
<polygon fill="white" stroke="black" points="381,-160.5 381,-181.5 515,-181.5 515,-160.5 381,-160.5"/>
<text text-anchor="middle" x="448" y="-168.5" font-family="DejaVuSans" font-size="10.00">TraitLine::hideSpecialties</text>
</a>
</g>
<!-- Node11&#45;&gt;Node12 -->
<g id="edge22" class="edge"><title>Node11&#45;&gt;Node12</title>
<path fill="none" stroke="midnightblue" d="M328.74,-171C342.578,-171 356.87,-171 370.545,-171"/>
<polygon fill="midnightblue" stroke="midnightblue" points="370.864,-174.5 380.864,-171 370.864,-167.5 370.864,-174.5"/>
</g>
<!-- Node14 -->
<g id="node27" class="node"><title>Node14</title>
<a xlink:href="class_chara_trait.html#ae8c46557a34a5586b1fbcac00a7c47d6" target="_top" xlink:title="CharaTrait::species">
<polygon fill="white" stroke="black" points="394.5,-120.5 394.5,-141.5 501.5,-141.5 501.5,-120.5 394.5,-120.5"/>
<text text-anchor="middle" x="448" y="-128.5" font-family="DejaVuSans" font-size="10.00">CharaTrait::species</text>
</a>
</g>
<!-- Node13&#45;&gt;Node14 -->
<g id="edge26" class="edge"><title>Node13&#45;&gt;Node14</title>
<path fill="none" stroke="midnightblue" d="M332.563,-131C349.981,-131 367.956,-131 384.386,-131"/>
<polygon fill="midnightblue" stroke="midnightblue" points="384.397,-134.5 394.397,-131 384.396,-127.5 384.397,-134.5"/>
</g>
<!-- Node15 -->
<g id="node29" class="node"><title>Node15</title>
<a xlink:href="classcv___abstract_trait.html#a5550607235c2a5875f84d13fb6f9aa3f" target="_top" xlink:title="cv_AbstractTrait::species">
<polygon fill="white" stroke="black" points="562,-120.5 562,-141.5 696,-141.5 696,-120.5 562,-120.5"/>
<text text-anchor="middle" x="629" y="-128.5" font-family="DejaVuSans" font-size="10.00">cv_AbstractTrait::species</text>
</a>
</g>
<!-- Node14&#45;&gt;Node15 -->
<g id="edge28" class="edge"><title>Node14&#45;&gt;Node15</title>
<path fill="none" stroke="midnightblue" d="M501.816,-131C517.436,-131 534.81,-131 551.573,-131"/>
<polygon fill="midnightblue" stroke="midnightblue" points="551.911,-134.5 561.911,-131 551.911,-127.5 551.911,-134.5"/>
</g>
<!-- Node16&#45;&gt;Node5 -->
<g id="edge44" class="edge"><title>Node16&#45;&gt;Node5</title>
<path fill="none" stroke="midnightblue" d="M262.524,-339.521C286.094,-353.171 329.714,-376.688 370,-389 435.397,-408.986 513.395,-418.606 566.588,-423.141"/>
<polygon fill="midnightblue" stroke="midnightblue" points="566.633,-426.656 576.884,-423.981 567.202,-419.679 566.633,-426.656"/>
</g>
<!-- Node17 -->
<g id="node33" class="node"><title>Node17</title>
<a xlink:href="class_chara_trait.html#a7cc9b10030c5e6d5030fb898506ee070" target="_top" xlink:title="CharaTrait::customText">
<polygon fill="white" stroke="black" points="385.5,-358.5 385.5,-379.5 510.5,-379.5 510.5,-358.5 385.5,-358.5"/>
<text text-anchor="middle" x="448" y="-366.5" font-family="DejaVuSans" font-size="10.00">CharaTrait::customText</text>
</a>
</g>
<!-- Node16&#45;&gt;Node17 -->
<g id="edge32" class="edge"><title>Node16&#45;&gt;Node17</title>
<path fill="none" stroke="midnightblue" d="M298.336,-339.51C324.805,-344.725 356.964,-351.062 384.678,-356.523"/>
<polygon fill="midnightblue" stroke="midnightblue" points="384.18,-359.992 394.668,-358.491 385.534,-353.124 384.18,-359.992"/>
</g>
<!-- Node19 -->
<g id="node39" class="node"><title>Node19</title>
<a xlink:href="classcv___trait.html#af2625cf5c0ccfb79c13f7a50192a2c27" target="_top" xlink:title="cv_Trait::setCustomText">
<polygon fill="white" stroke="black" points="383.5,-318.5 383.5,-339.5 512.5,-339.5 512.5,-318.5 383.5,-318.5"/>
<text text-anchor="middle" x="448" y="-326.5" font-family="DejaVuSans" font-size="10.00">cv_Trait::setCustomText</text>
</a>
</g>
<!-- Node16&#45;&gt;Node19 -->
<g id="edge40" class="edge"><title>Node16&#45;&gt;Node19</title>
<path fill="none" stroke="midnightblue" d="M316.285,-329C334.696,-329 354.566,-329 373.153,-329"/>
<polygon fill="midnightblue" stroke="midnightblue" points="373.33,-332.5 383.33,-329 373.33,-325.5 373.33,-332.5"/>
</g>
<!-- Node20 -->
<g id="node41" class="node"><title>Node20</title>
<a xlink:href="class_chara_trait.html#ab3935a94198f510d3de473a9a72692ac" target="_top" xlink:title="CharaTrait::traitChanged">
<polygon fill="white" stroke="black" points="381.5,-278.5 381.5,-299.5 514.5,-299.5 514.5,-278.5 381.5,-278.5"/>
<text text-anchor="middle" x="448" y="-286.5" font-family="DejaVuSans" font-size="10.00">CharaTrait::traitChanged</text>
</a>
</g>
<!-- Node16&#45;&gt;Node20 -->
<g id="edge42" class="edge"><title>Node16&#45;&gt;Node20</title>
<path fill="none" stroke="midnightblue" d="M298.336,-318.49C324.805,-313.275 356.964,-306.938 384.678,-301.477"/>
<polygon fill="midnightblue" stroke="midnightblue" points="385.534,-304.876 394.668,-299.509 384.18,-298.008 385.534,-304.876"/>
</g>
<!-- Node17&#45;&gt;Node5 -->
<g id="edge38" class="edge"><title>Node17&#45;&gt;Node5</title>
<path fill="none" stroke="midnightblue" d="M480.778,-379.503C510.413,-389 554.222,-403.038 586.531,-413.391"/>
<polygon fill="midnightblue" stroke="midnightblue" points="585.57,-416.758 596.161,-416.477 587.706,-410.092 585.57,-416.758"/>
</g>
<!-- Node18 -->
<g id="node35" class="node"><title>Node18</title>
<a xlink:href="classcv___trait.html#adee2adf82138573180ff0d1486974ff6" target="_top" xlink:title="cv_Trait::customText">
<polygon fill="white" stroke="black" points="572.5,-337.5 572.5,-358.5 685.5,-358.5 685.5,-337.5 572.5,-337.5"/>
<text text-anchor="middle" x="629" y="-345.5" font-family="DejaVuSans" font-size="10.00">cv_Trait::customText</text>
</a>
</g>
<!-- Node17&#45;&gt;Node18 -->
<g id="edge34" class="edge"><title>Node17&#45;&gt;Node18</title>
<path fill="none" stroke="midnightblue" d="M510.543,-361.744C527.129,-359.819 545.103,-357.734 561.919,-355.783"/>
<polygon fill="midnightblue" stroke="midnightblue" points="562.687,-359.217 572.217,-354.588 561.881,-352.264 562.687,-359.217"/>
</g>
<!-- Node18&#45;&gt;Node9 -->
<g id="edge36" class="edge"><title>Node18&#45;&gt;Node9</title>
<path fill="none" stroke="midnightblue" d="M685.709,-338.549C697.515,-336.581 709.966,-334.506 721.791,-332.535"/>
<polygon fill="midnightblue" stroke="midnightblue" points="722.701,-335.932 731.989,-330.835 721.55,-329.027 722.701,-335.932"/>
</g>
<!-- Node22 -->
<g id="node46" class="node"><title>Node22</title>
<a xlink:href="class_trait_dots.html#a5ea410276a2001288a6eaa25ee242bac" target="_top" xlink:title="TraitDots::setAllowedValues">
<polygon fill="white" stroke="black" points="374.5,-80.5 374.5,-101.5 521.5,-101.5 521.5,-80.5 374.5,-80.5"/>
<text text-anchor="middle" x="448" y="-88.5" font-family="DejaVuSans" font-size="10.00">TraitDots::setAllowedValues</text>
</a>
</g>
<!-- Node21&#45;&gt;Node22 -->
<g id="edge48" class="edge"><title>Node21&#45;&gt;Node22</title>
<path fill="none" stroke="midnightblue" d="M318.575,-91C333.325,-91 348.929,-91 364.002,-91"/>
<polygon fill="midnightblue" stroke="midnightblue" points="364.336,-94.5001 374.336,-91 364.336,-87.5001 364.336,-94.5001"/>
</g>
</g>
</svg>
