<?xml version="1.0" encoding="UTF-8" standalone="no"?>
<!DOCTYPE svg PUBLIC "-//W3C//DTD SVG 1.1//EN"
 "http://www.w3.org/Graphics/SVG/1.1/DTD/svg11.dtd">
<!-- Generated by graphviz version 2.26.3 (20100126.1600)
 -->
<!-- Title: G Pages: 1 -->
<svg width="358pt" height="110pt"
 viewBox="0.00 0.00 358.00 110.00" xmlns="http://www.w3.org/2000/svg" xmlns:xlink="http://www.w3.org/1999/xlink">
<g id="graph1" class="graph" transform="scale(1 1) rotate(0) translate(4 106)">
<title>G</title>
<polygon fill="white" stroke="white" points="-4,5 -4,-106 355,-106 355,5 -4,5"/>
<!-- Node1 -->
<g id="node1" class="node"><title>Node1</title>
<polygon fill="#bfbfbf" stroke="black" points="0,-40.5 0,-61.5 152,-61.5 152,-40.5 0,-40.5"/>
<text text-anchor="middle" x="76" y="-48.5" font-family="DejaVuSans" font-size="10.00">StorageCharacter::identities</text>
</g>
<!-- Node2 -->
<g id="node3" class="node"><title>Node2</title>
<a xlink:href="class_storage_character.html#a6a8921fe9bedaadee6d4f680438a8872" target="_top" xlink:title="StorageCharacter::addIdentity">
<polygon fill="white" stroke="black" points="188.5,-80.5 188.5,-101.5 349.5,-101.5 349.5,-80.5 188.5,-80.5"/>
<text text-anchor="middle" x="269" y="-88.5" font-family="DejaVuSans" font-size="10.00">StorageCharacter::addIdentity</text>
</a>
</g>
<!-- Node1&#45;&gt;Node2 -->
<g id="edge2" class="edge"><title>Node1&#45;&gt;Node2</title>
<path fill="none" stroke="midnightblue" d="M136.554,-63.55C162.824,-68.9946 193.241,-75.2986 218.295,-80.4913"/>
<polygon fill="midnightblue" stroke="midnightblue" points="137.211,-60.1119 126.708,-61.5095 135.79,-66.9662 137.211,-60.1119"/>
</g>
<!-- Node3 -->
<g id="node5" class="node"><title>Node3</title>
<a xlink:href="class_name_dialog.html#a60603361e8f9986a1e1572a6b5d4b752" target="_top" xlink:title="NameDialog::NameDialog">
<polygon fill="white" stroke="black" points="198.5,-40.5 198.5,-61.5 339.5,-61.5 339.5,-40.5 198.5,-40.5"/>
<text text-anchor="middle" x="269" y="-48.5" font-family="DejaVuSans" font-size="10.00">NameDialog::NameDialog</text>
</a>
</g>
<!-- Node1&#45;&gt;Node3 -->
<g id="edge4" class="edge"><title>Node1&#45;&gt;Node3</title>
<path fill="none" stroke="midnightblue" d="M162.126,-51C174.26,-51 186.616,-51 198.414,-51"/>
<polygon fill="midnightblue" stroke="midnightblue" points="162.002,-47.5001 152.002,-51 162.002,-54.5001 162.002,-47.5001"/>
</g>
<!-- Node4 -->
<g id="node7" class="node"><title>Node4</title>
<a xlink:href="class_write_xml_character.html#af657074e346540e71b20ab2ccae3bc9c" target="_top" xlink:title="WriteXmlCharacter::write">
<polygon fill="white" stroke="black" points="202,-0.5 202,-21.5 336,-21.5 336,-0.5 202,-0.5"/>
<text text-anchor="middle" x="269" y="-8.5" font-family="DejaVuSans" font-size="10.00">WriteXmlCharacter::write</text>
</a>
</g>
<!-- Node1&#45;&gt;Node4 -->
<g id="edge6" class="edge"><title>Node1&#45;&gt;Node4</title>
<path fill="none" stroke="midnightblue" d="M136.554,-38.45C162.824,-33.0054 193.241,-26.7014 218.295,-21.5087"/>
<polygon fill="midnightblue" stroke="midnightblue" points="135.79,-35.0338 126.708,-40.4905 137.211,-41.8881 135.79,-35.0338"/>
</g>
</g>
</svg>
