<?xml version="1.0" encoding="UTF-8" standalone="no"?>
<!DOCTYPE svg PUBLIC "-//W3C//DTD SVG 1.1//EN"
 "http://www.w3.org/Graphics/SVG/1.1/DTD/svg11.dtd">
<!-- Generated by graphviz version 2.26.3 (20100126.1600)
 -->
<!-- Title: G Pages: 1 -->
<svg width="346pt" height="70pt"
 viewBox="0.00 0.00 346.00 70.00" xmlns="http://www.w3.org/2000/svg" xmlns:xlink="http://www.w3.org/1999/xlink">
<g id="graph1" class="graph" transform="scale(1 1) rotate(0) translate(4 66)">
<title>G</title>
<polygon fill="white" stroke="white" points="-4,5 -4,-66 343,-66 343,5 -4,5"/>
<!-- Node1 -->
<g id="node1" class="node"><title>Node1</title>
<polygon fill="#bfbfbf" stroke="black" points="0,-20.5 0,-41.5 188,-41.5 188,-20.5 0,-20.5"/>
<text text-anchor="middle" x="94" y="-28.5" font-family="DejaVuSans" font-size="10.00">CharaComboTrait::CharaComboTrait</text>
</g>
<!-- Node2 -->
<g id="node3" class="node"><title>Node2</title>
<a xlink:href="class_trait_line.html#a888938ff3cda0292ba1600cd267902d6" target="_top" xlink:title="TraitLine::labelName">
<polygon fill="white" stroke="black" points="224.5,-40.5 224.5,-61.5 337.5,-61.5 337.5,-40.5 224.5,-40.5"/>
<text text-anchor="middle" x="281" y="-48.5" font-family="DejaVuSans" font-size="10.00">TraitLine::labelName</text>
</a>
</g>
<!-- Node1&#45;&gt;Node2 -->
<g id="edge2" class="edge"><title>Node1&#45;&gt;Node2</title>
<path fill="none" stroke="midnightblue" d="M188.048,-41.0586C196.842,-41.9991 205.629,-42.9389 214.099,-43.8448"/>
<polygon fill="midnightblue" stroke="midnightblue" points="213.936,-47.3472 224.251,-44.9306 214.68,-40.3869 213.936,-47.3472"/>
</g>
<!-- Node3 -->
<g id="node5" class="node"><title>Node3</title>
<a xlink:href="class_trait_line.html#a1b05c776caa9b9310999571c442bf1e2" target="_top" xlink:title="TraitLine::layout">
<polygon fill="white" stroke="black" points="235.5,-0.5 235.5,-21.5 326.5,-21.5 326.5,-0.5 235.5,-0.5"/>
<text text-anchor="middle" x="281" y="-8.5" font-family="DejaVuSans" font-size="10.00">TraitLine::layout</text>
</a>
</g>
<!-- Node1&#45;&gt;Node3 -->
<g id="edge4" class="edge"><title>Node1&#45;&gt;Node3</title>
<path fill="none" stroke="midnightblue" d="M188.048,-20.9414C200.71,-19.5872 213.358,-18.2344 225.065,-16.9824"/>
<polygon fill="midnightblue" stroke="midnightblue" points="225.515,-20.4543 235.086,-15.9106 224.771,-13.4939 225.515,-20.4543"/>
</g>
</g>
</svg>
