<?xml version="1.0" encoding="UTF-8" standalone="no"?>
<!DOCTYPE svg PUBLIC "-//W3C//DTD SVG 1.1//EN"
 "http://www.w3.org/Graphics/SVG/1.1/DTD/svg11.dtd">
<!-- Generated by graphviz version 2.26.3 (20100126.1600)
 -->
<!-- Title: G Pages: 1 -->
<svg width="310pt" height="204pt"
 viewBox="0.00 0.00 310.00 204.00" xmlns="http://www.w3.org/2000/svg" xmlns:xlink="http://www.w3.org/1999/xlink">
<g id="graph1" class="graph" transform="scale(1 1) rotate(0) translate(4 200)">
<title>G</title>
<polygon fill="white" stroke="white" points="-4,5 -4,-200 307,-200 307,5 -4,5"/>
<!-- Node1 -->
<g id="node1" class="node"><title>Node1</title>
<polygon fill="#bfbfbf" stroke="black" points="107,-58.5 107,-79.5 195,-79.5 195,-58.5 107,-58.5"/>
<text text-anchor="middle" x="151" y="-66.5" font-family="DejaVuSans" font-size="10.00">src.Error.ErrFile</text>
</g>
<!-- Node4 -->
<g id="node7" class="node"><title>Node4</title>
<a xlink:href="classsrc_1_1_error_1_1_err_file_not_deleted.html" target="_top" xlink:title="Datei kann nicht gelöscht werden.">
<polygon fill="white" stroke="black" points="-0.5,-0.5 -0.5,-21.5 142.5,-21.5 142.5,-0.5 -0.5,-0.5"/>
<text text-anchor="middle" x="71" y="-8.5" font-family="DejaVuSans" font-size="10.00">src.Error.ErrFileNotDeleted</text>
</a>
</g>
<!-- Node1&#45;&gt;Node4 -->
<g id="edge6" class="edge"><title>Node1&#45;&gt;Node4</title>
<path fill="none" stroke="midnightblue" d="M127.908,-52.2587C114.261,-42.3641 97.3946,-30.1361 85.5802,-21.5707"/>
<polygon fill="midnightblue" stroke="midnightblue" points="126.176,-55.3258 136.327,-58.3619 130.285,-49.6585 126.176,-55.3258"/>
</g>
<!-- Node5 -->
<g id="node9" class="node"><title>Node5</title>
<a xlink:href="classsrc_1_1_error_1_1_err_file_not_opened.html" target="_top" xlink:title="Datei kann nicht geöffnet werden.">
<polygon fill="white" stroke="black" points="159.5,-0.5 159.5,-21.5 302.5,-21.5 302.5,-0.5 159.5,-0.5"/>
<text text-anchor="middle" x="231" y="-8.5" font-family="DejaVuSans" font-size="10.00">src.Error.ErrFileNotOpened</text>
</a>
</g>
<!-- Node1&#45;&gt;Node5 -->
<g id="edge8" class="edge"><title>Node1&#45;&gt;Node5</title>
<path fill="none" stroke="midnightblue" d="M174.092,-52.2587C187.739,-42.3641 204.605,-30.1361 216.42,-21.5707"/>
<polygon fill="midnightblue" stroke="midnightblue" points="171.715,-49.6585 165.673,-58.3619 175.824,-55.3258 171.715,-49.6585"/>
</g>
<!-- Node2 -->
<g id="node2" class="node"><title>Node2</title>
<a xlink:href="classsrc_1_1_error_1_1_err.html" target="_top" xlink:title="Basisklasse für die Ausnahmebehandlung.">
<polygon fill="white" stroke="black" points="114.5,-116.5 114.5,-137.5 187.5,-137.5 187.5,-116.5 114.5,-116.5"/>
<text text-anchor="middle" x="151" y="-124.5" font-family="DejaVuSans" font-size="10.00">src.Error.Err</text>
</a>
</g>
<!-- Node2&#45;&gt;Node1 -->
<g id="edge2" class="edge"><title>Node2&#45;&gt;Node1</title>
<path fill="none" stroke="midnightblue" d="M151,-106.191C151,-97.1684 151,-86.9941 151,-79.5707"/>
<polygon fill="midnightblue" stroke="midnightblue" points="147.5,-106.362 151,-116.362 154.5,-106.362 147.5,-106.362"/>
</g>
<!-- Node3 -->
<g id="node4" class="node"><title>Node3</title>
<a xlink:href="class_exception.html" target="_top" xlink:title="Exception">
<polygon fill="white" stroke="black" points="119.5,-174.5 119.5,-195.5 182.5,-195.5 182.5,-174.5 119.5,-174.5"/>
<text text-anchor="middle" x="151" y="-182.5" font-family="DejaVuSans" font-size="10.00">Exception</text>
</a>
</g>
<!-- Node3&#45;&gt;Node2 -->
<g id="edge4" class="edge"><title>Node3&#45;&gt;Node2</title>
<path fill="none" stroke="midnightblue" d="M151,-164.191C151,-155.168 151,-144.994 151,-137.571"/>
<polygon fill="midnightblue" stroke="midnightblue" points="147.5,-164.362 151,-174.362 154.5,-164.362 147.5,-164.362"/>
</g>
</g>
</svg>
