<?xml version="1.0" encoding="UTF-8" standalone="no"?>
<!DOCTYPE svg PUBLIC "-//W3C//DTD SVG 1.1//EN"
 "http://www.w3.org/Graphics/SVG/1.1/DTD/svg11.dtd">
<!-- Generated by graphviz version 2.26.3 (20100126.1600)
 -->
<!-- Title: G Pages: 1 -->
<svg width="756pt" height="85pt"
 viewBox="0.00 0.00 756.00 85.27" xmlns="http://www.w3.org/2000/svg" xmlns:xlink="http://www.w3.org/1999/xlink">
<g id="graph1" class="graph" transform="scale(1 1) rotate(0) translate(4 81.2706)">
<title>G</title>
<polygon fill="white" stroke="white" points="-4,5 -4,-81.2706 753,-81.2706 753,5 -4,5"/>
<!-- Node1 -->
<g id="node1" class="node"><title>Node1</title>
<polygon fill="#bfbfbf" stroke="black" points="0,-40.5 0,-61.5 110,-61.5 110,-40.5 0,-40.5"/>
<text text-anchor="middle" x="55" y="-48.5" font-family="DejaVuSans" font-size="10.00">Trait::valueChanged</text>
</g>
<!-- Node2 -->
<g id="node3" class="node"><title>Node2</title>
<a xlink:href="class_trait.html#aff507cb19b22e5668fc20b471d73d691" target="_top" xlink:title="Trait::setValue">
<polygon fill="white" stroke="black" points="146.5,-40.5 146.5,-61.5 229.5,-61.5 229.5,-40.5 146.5,-40.5"/>
<text text-anchor="middle" x="188" y="-48.5" font-family="DejaVuSans" font-size="10.00">Trait::setValue</text>
</a>
</g>
<!-- Node1&#45;&gt;Node2 -->
<g id="edge2" class="edge"><title>Node1&#45;&gt;Node2</title>
<path fill="none" stroke="midnightblue" d="M120.448,-51C129.178,-51 137.931,-51 146.106,-51"/>
<polygon fill="midnightblue" stroke="midnightblue" points="120.249,-47.5001 110.249,-51 120.248,-54.5001 120.249,-47.5001"/>
</g>
<!-- Node3 -->
<g id="node5" class="node"><title>Node3</title>
<a xlink:href="class_check_trait.html#a9073e7f8bbac8c351bf829b23a9fc850" target="_top" xlink:title="CheckTrait::setValue">
<polygon fill="white" stroke="black" points="266.5,-40.5 266.5,-61.5 379.5,-61.5 379.5,-40.5 266.5,-40.5"/>
<text text-anchor="middle" x="323" y="-48.5" font-family="DejaVuSans" font-size="10.00">CheckTrait::setValue</text>
</a>
</g>
<!-- Node2&#45;&gt;Node3 -->
<g id="edge4" class="edge"><title>Node2&#45;&gt;Node3</title>
<path fill="none" stroke="midnightblue" d="M239.66,-51C248.403,-51 257.523,-51 266.385,-51"/>
<polygon fill="midnightblue" stroke="midnightblue" points="239.606,-47.5001 229.606,-51 239.606,-54.5001 239.606,-47.5001"/>
</g>
<!-- Node4 -->
<g id="node7" class="node"><title>Node4</title>
<a xlink:href="class_check_trait.html#a3d74335165852938fb58d285bcc25b52" target="_top" xlink:title="CheckTrait::CheckTrait">
<polygon fill="white" stroke="black" points="628,-39.5 628,-60.5 748,-60.5 748,-39.5 628,-39.5"/>
<text text-anchor="middle" x="688" y="-47.5" font-family="DejaVuSans" font-size="10.00">CheckTrait::CheckTrait</text>
</a>
</g>
<!-- Node3&#45;&gt;Node4 -->
<g id="edge6" class="edge"><title>Node3&#45;&gt;Node4</title>
<path fill="none" stroke="midnightblue" d="M372.832,-63.7483C386.711,-66.7423 401.86,-69.4968 416,-71 493.784,-79.2693 514.231,-79.4066 592,-71 610.997,-68.9464 631.747,-64.6702 649.08,-60.5092"/>
<polygon fill="midnightblue" stroke="midnightblue" points="373.506,-60.3126 362.983,-61.5403 371.975,-67.1431 373.506,-60.3126"/>
</g>
<!-- Node5 -->
<g id="node9" class="node"><title>Node5</title>
<a xlink:href="class_flaw_widget.html#af387a892373d07ce615ad19d6da45448" target="_top" xlink:title="FlawWidget::FlawWidget">
<polygon fill="white" stroke="black" points="440,-40.5 440,-61.5 568,-61.5 568,-40.5 440,-40.5"/>
<text text-anchor="middle" x="504" y="-48.5" font-family="DejaVuSans" font-size="10.00">FlawWidget::FlawWidget</text>
</a>
</g>
<!-- Node3&#45;&gt;Node5 -->
<g id="edge8" class="edge"><title>Node3&#45;&gt;Node5</title>
<path fill="none" stroke="midnightblue" d="M389.795,-51C406.155,-51 423.627,-51 439.86,-51"/>
<polygon fill="midnightblue" stroke="midnightblue" points="389.773,-47.5001 379.773,-51 389.773,-54.5001 389.773,-47.5001"/>
</g>
<!-- Node6 -->
<g id="node11" class="node"><title>Node6</title>
<a xlink:href="class_check_trait.html#a38b03dfbcc01dbb65a9b345423e232db" target="_top" xlink:title="CheckTrait::hideTraitIfNotAvailable">
<polygon fill="white" stroke="black" points="416,-0.5 416,-21.5 592,-21.5 592,-0.5 416,-0.5"/>
<text text-anchor="middle" x="504" y="-8.5" font-family="DejaVuSans" font-size="10.00">CheckTrait::hideTraitIfNotAvailable</text>
</a>
</g>
<!-- Node3&#45;&gt;Node6 -->
<g id="edge10" class="edge"><title>Node3&#45;&gt;Node6</title>
<path fill="none" stroke="midnightblue" d="M380.441,-38.3059C404.928,-32.8944 433.158,-26.6557 456.448,-21.5087"/>
<polygon fill="midnightblue" stroke="midnightblue" points="379.565,-34.915 370.556,-40.4905 381.075,-41.7501 379.565,-34.915"/>
</g>
<!-- Node6&#45;&gt;Node4 -->
<g id="edge12" class="edge"><title>Node6&#45;&gt;Node4</title>
<path fill="none" stroke="midnightblue" d="M563.861,-23.688C587.885,-28.78 615.253,-34.5808 638.167,-39.4376"/>
<polygon fill="midnightblue" stroke="midnightblue" points="564.301,-20.2036 553.793,-21.554 562.85,-27.0515 564.301,-20.2036"/>
</g>
</g>
</svg>
