<?xml version="1.0" encoding="UTF-8" standalone="no"?>
<!DOCTYPE svg PUBLIC "-//W3C//DTD SVG 1.1//EN"
 "http://www.w3.org/Graphics/SVG/1.1/DTD/svg11.dtd">
<!-- Generated by graphviz version 2.26.3 (20100126.1600)
 -->
<!-- Title: G Pages: 1 -->
<svg width="464pt" height="49pt"
 viewBox="0.00 0.00 464.00 49.00" xmlns="http://www.w3.org/2000/svg" xmlns:xlink="http://www.w3.org/1999/xlink">
<g id="graph1" class="graph" transform="scale(1 1) rotate(0) translate(4 45)">
<title>G</title>
<polygon fill="white" stroke="white" points="-4,5 -4,-45 461,-45 461,5 -4,5"/>
<!-- Node1 -->
<g id="node1" class="node"><title>Node1</title>
<polygon fill="#bfbfbf" stroke="black" points="0.5,-19.5 0.5,-40.5 129.5,-40.5 129.5,-19.5 0.5,-19.5"/>
<text text-anchor="middle" x="65" y="-27.5" font-family="DejaVuSans" font-size="10.00">StorageTemplate::traits</text>
</g>
<!-- Node2 -->
<g id="node3" class="node"><title>Node2</title>
<a xlink:href="class_storage_template.html#aceb757eb50e7326356f589179d78ee89" target="_top" xlink:title="StorageTemplate::trait">
<polygon fill="white" stroke="black" points="332,-19.5 332,-40.5 456,-40.5 456,-19.5 332,-19.5"/>
<text text-anchor="middle" x="394" y="-27.5" font-family="DejaVuSans" font-size="10.00">StorageTemplate::trait</text>
</a>
</g>
<!-- Node1&#45;&gt;Node2 -->
<g id="edge2" class="edge"><title>Node1&#45;&gt;Node2</title>
<path fill="none" stroke="midnightblue" d="M129.656,-30.7353C141.734,-30.8456 154.251,-30.9418 166,-31 223.777,-31.286 238.223,-31.2948 296,-31 304.316,-30.9576 313.028,-30.8949 321.683,-30.8212"/>
<polygon fill="midnightblue" stroke="midnightblue" points="321.821,-34.3202 331.789,-30.7303 321.758,-27.3205 321.821,-34.3202"/>
</g>
<!-- Node3 -->
<g id="node5" class="node"><title>Node3</title>
<a xlink:href="class_storage_template.html#a5d5beec85c0760ed8129a2585e7a94d4" target="_top" xlink:title="StorageTemplate::traits">
<polygon fill="white" stroke="black" points="166.5,-0.5 166.5,-21.5 295.5,-21.5 295.5,-0.5 166.5,-0.5"/>
<text text-anchor="middle" x="231" y="-8.5" font-family="DejaVuSans" font-size="10.00">StorageTemplate::traits</text>
</a>
</g>
<!-- Node1&#45;&gt;Node3 -->
<g id="edge4" class="edge"><title>Node1&#45;&gt;Node3</title>
<path fill="none" stroke="midnightblue" d="M129.655,-22.5997C138.386,-21.6004 147.402,-20.5684 156.29,-19.5512"/>
<polygon fill="midnightblue" stroke="midnightblue" points="156.711,-23.0259 166.248,-18.4114 155.915,-16.0713 156.711,-23.0259"/>
</g>
<!-- Node3&#45;&gt;Node2 -->
<g id="edge6" class="edge"><title>Node3&#45;&gt;Node2</title>
<path fill="none" stroke="midnightblue" d="M295.89,-18.5639C304.441,-19.5606 313.246,-20.587 321.908,-21.5966"/>
<polygon fill="midnightblue" stroke="midnightblue" points="321.648,-25.09 331.986,-22.7714 322.459,-18.137 321.648,-25.09"/>
</g>
</g>
</svg>
