<?xml version="1.0" encoding="UTF-8" standalone="no"?>
<!DOCTYPE svg PUBLIC "-//W3C//DTD SVG 1.1//EN"
 "http://www.w3.org/Graphics/SVG/1.1/DTD/svg11.dtd">
<!-- Generated by graphviz version 2.26.3 (20100126.1600)
 -->
<!-- Title: G Pages: 1 -->
<svg width="508pt" height="108pt"
 viewBox="0.00 0.00 508.00 108.00" xmlns="http://www.w3.org/2000/svg" xmlns:xlink="http://www.w3.org/1999/xlink">
<g id="graph1" class="graph" transform="scale(1 1) rotate(0) translate(4 104)">
<title>G</title>
<polygon fill="white" stroke="white" points="-4,5 -4,-104 505,-104 505,5 -4,5"/>
<!-- Node1 -->
<g id="node1" class="node"><title>Node1</title>
<polygon fill="#bfbfbf" stroke="black" points="0,-39.5 0,-60.5 130,-60.5 130,-39.5 0,-39.5"/>
<text text-anchor="middle" x="65" y="-47.5" font-family="DejaVuSans" font-size="10.00">CheckTrait::setCategory</text>
</g>
<!-- Node2 -->
<g id="node3" class="node"><title>Node2</title>
<a xlink:href="class_check_trait.html#afaae5fe6f014343ff07514b615ce9036" target="_top" xlink:title="CheckTrait::category">
<polygon fill="white" stroke="black" points="188.5,-78.5 188.5,-99.5 301.5,-99.5 301.5,-78.5 188.5,-78.5"/>
<text text-anchor="middle" x="245" y="-86.5" font-family="DejaVuSans" font-size="10.00">CheckTrait::category</text>
</a>
</g>
<!-- Node1&#45;&gt;Node2 -->
<g id="edge2" class="edge"><title>Node1&#45;&gt;Node2</title>
<path fill="none" stroke="midnightblue" d="M113.711,-60.554C136.122,-65.4097 162.894,-71.2103 186.399,-76.3031"/>
<polygon fill="midnightblue" stroke="midnightblue" points="185.736,-79.7406 196.25,-78.4376 187.218,-72.8994 185.736,-79.7406"/>
</g>
<!-- Node3 -->
<g id="node5" class="node"><title>Node3</title>
<a xlink:href="classcv___abstract_trait.html#a0735a751e8ce6edb85957bcfb2a723f7" target="_top" xlink:title="cv_AbstractTrait::category">
<polygon fill="white" stroke="black" points="360,-58.5 360,-79.5 500,-79.5 500,-58.5 360,-58.5"/>
<text text-anchor="middle" x="430" y="-66.5" font-family="DejaVuSans" font-size="10.00">cv_AbstractTrait::category</text>
</a>
</g>
<!-- Node1&#45;&gt;Node3 -->
<g id="edge6" class="edge"><title>Node1&#45;&gt;Node3</title>
<path fill="none" stroke="midnightblue" d="M130.255,-53.3968C191.566,-56.5884 283.494,-61.3737 349.369,-64.8028"/>
<polygon fill="midnightblue" stroke="midnightblue" points="349.54,-68.3163 359.709,-65.341 349.904,-61.3258 349.54,-68.3163"/>
</g>
<!-- Node4 -->
<g id="node8" class="node"><title>Node4</title>
<a xlink:href="classcv___abstract_trait.html#aa032a829044f50688909a58081c130e4" target="_top" xlink:title="cv_AbstractTrait::setCategory">
<polygon fill="white" stroke="black" points="166.5,-0.5 166.5,-21.5 323.5,-21.5 323.5,-0.5 166.5,-0.5"/>
<text text-anchor="middle" x="245" y="-8.5" font-family="DejaVuSans" font-size="10.00">cv_AbstractTrait::setCategory</text>
</a>
</g>
<!-- Node1&#45;&gt;Node4 -->
<g id="edge8" class="edge"><title>Node1&#45;&gt;Node4</title>
<path fill="none" stroke="midnightblue" d="M113.711,-39.446C136.122,-34.5903 162.894,-28.7897 186.399,-23.6969"/>
<polygon fill="midnightblue" stroke="midnightblue" points="187.218,-27.1006 196.25,-21.5624 185.736,-20.2594 187.218,-27.1006"/>
</g>
<!-- Node2&#45;&gt;Node3 -->
<g id="edge4" class="edge"><title>Node2&#45;&gt;Node3</title>
<path fill="none" stroke="midnightblue" d="M301.511,-82.8907C316.735,-81.2449 333.499,-79.4326 349.75,-77.6757"/>
<polygon fill="midnightblue" stroke="midnightblue" points="350.217,-81.1456 359.783,-76.591 349.465,-74.1862 350.217,-81.1456"/>
</g>
</g>
</svg>
