<?xml version="1.0" encoding="UTF-8" standalone="no"?>
<!DOCTYPE svg PUBLIC "-//W3C//DTD SVG 1.1//EN"
 "http://www.w3.org/Graphics/SVG/1.1/DTD/svg11.dtd">
<!-- Generated by graphviz version 2.26.3 (20100126.1600)
 -->
<!-- Title: G Pages: 1 -->
<svg width="454pt" height="30pt"
 viewBox="0.00 0.00 454.00 30.00" xmlns="http://www.w3.org/2000/svg" xmlns:xlink="http://www.w3.org/1999/xlink">
<g id="graph1" class="graph" transform="scale(1 1) rotate(0) translate(4 26)">
<title>G</title>
<polygon fill="white" stroke="white" points="-4,5 -4,-26 451,-26 451,5 -4,5"/>
<!-- Node1 -->
<g id="node1" class="node"><title>Node1</title>
<polygon fill="#bfbfbf" stroke="black" points="0.5,-0.5 0.5,-21.5 83.5,-21.5 83.5,-0.5 0.5,-0.5"/>
<text text-anchor="middle" x="42" y="-8.5" font-family="DejaVuSans" font-size="10.00">Storage::skills</text>
</g>
<!-- Node2 -->
<g id="node3" class="node"><title>Node2</title>
<a xlink:href="class_main_window.html#a1ebe4d2e06ddd16007a29bd1b8c09c49" target="_top" xlink:title="MainWindow::storeTemplateData">
<polygon fill="white" stroke="black" points="120.5,-0.5 120.5,-21.5 291.5,-21.5 291.5,-0.5 120.5,-0.5"/>
<text text-anchor="middle" x="206" y="-8.5" font-family="DejaVuSans" font-size="10.00">MainWindow::storeTemplateData</text>
</a>
</g>
<!-- Node1&#45;&gt;Node2 -->
<g id="edge2" class="edge"><title>Node1&#45;&gt;Node2</title>
<path fill="none" stroke="midnightblue" d="M93.8233,-11C102.259,-11 111.19,-11 120.182,-11"/>
<polygon fill="midnightblue" stroke="midnightblue" points="93.8085,-7.5001 83.8085,-11 93.8084,-14.5001 93.8085,-7.5001"/>
</g>
<!-- Node3 -->
<g id="node5" class="node"><title>Node3</title>
<a xlink:href="class_main_window.html#a43f05c4d3f5d840d070829d3291c9ec7" target="_top" xlink:title="MainWindow::initialize">
<polygon fill="white" stroke="black" points="328,-0.5 328,-21.5 446,-21.5 446,-0.5 328,-0.5"/>
<text text-anchor="middle" x="387" y="-8.5" font-family="DejaVuSans" font-size="10.00">MainWindow::initialize</text>
</a>
</g>
<!-- Node2&#45;&gt;Node3 -->
<g id="edge4" class="edge"><title>Node2&#45;&gt;Node3</title>
<path fill="none" stroke="midnightblue" d="M301.781,-11C310.675,-11 319.5,-11 327.912,-11"/>
<polygon fill="midnightblue" stroke="midnightblue" points="301.73,-7.5001 291.73,-11 301.729,-14.5001 301.73,-7.5001"/>
</g>
</g>
</svg>
