<?xml version="1.0" encoding="UTF-8" standalone="no"?>
<!DOCTYPE svg PUBLIC "-//W3C//DTD SVG 1.1//EN"
 "http://www.w3.org/Graphics/SVG/1.1/DTD/svg11.dtd">
<!-- Generated by graphviz version 2.26.3 (20100126.1600)
 -->
<!-- Title: G Pages: 1 -->
<svg width="242pt" height="70pt"
 viewBox="0.00 0.00 242.00 70.00" xmlns="http://www.w3.org/2000/svg" xmlns:xlink="http://www.w3.org/1999/xlink">
<g id="graph1" class="graph" transform="scale(1 1) rotate(0) translate(4 66)">
<title>G</title>
<polygon fill="white" stroke="white" points="-4,5 -4,-66 239,-66 239,5 -4,5"/>
<!-- Node1 -->
<g id="node1" class="node"><title>Node1</title>
<polygon fill="#bfbfbf" stroke="black" points="0,-20.5 0,-41.5 78,-41.5 78,-20.5 0,-20.5"/>
<text text-anchor="middle" x="39" y="-28.5" font-family="DejaVuSans" font-size="10.00">Trait::setType</text>
</g>
<!-- Node2 -->
<g id="node3" class="node"><title>Node2</title>
<a xlink:href="classcv___abstract_trait.html#aba0dfcb5b539afe0db14c6e3c4ddd4bc" target="_top" xlink:title="cv_AbstractTrait::type">
<polygon fill="white" stroke="black" points="114.5,-40.5 114.5,-61.5 233.5,-61.5 233.5,-40.5 114.5,-40.5"/>
<text text-anchor="middle" x="174" y="-48.5" font-family="DejaVuSans" font-size="10.00">cv_AbstractTrait::type</text>
</a>
</g>
<!-- Node1&#45;&gt;Node2 -->
<g id="edge2" class="edge"><title>Node1&#45;&gt;Node2</title>
<path fill="none" stroke="midnightblue" d="M78.0476,-36.7848C86.3081,-38.0086 95.2646,-39.3355 104.274,-40.6702"/>
<polygon fill="midnightblue" stroke="midnightblue" points="104.029,-44.172 114.434,-42.1754 105.055,-37.2476 104.029,-44.172"/>
</g>
<!-- Node3 -->
<g id="node5" class="node"><title>Node3</title>
<a xlink:href="class_trait.html#ae00311fac86b6949a3c6c823fad2c95c" target="_top" xlink:title="Trait::typeChanged">
<polygon fill="white" stroke="black" points="121,-0.5 121,-21.5 227,-21.5 227,-0.5 121,-0.5"/>
<text text-anchor="middle" x="174" y="-8.5" font-family="DejaVuSans" font-size="10.00">Trait::typeChanged</text>
</a>
</g>
<!-- Node1&#45;&gt;Node3 -->
<g id="edge4" class="edge"><title>Node1&#45;&gt;Node3</title>
<path fill="none" stroke="midnightblue" d="M78.0476,-25.2152C88.3024,-23.6959 99.6296,-22.0178 110.799,-20.3631"/>
<polygon fill="midnightblue" stroke="midnightblue" points="111.598,-23.783 120.977,-18.8552 110.572,-16.8586 111.598,-23.783"/>
</g>
</g>
</svg>
