<?xml version="1.0" encoding="UTF-8" standalone="no"?>
<!DOCTYPE svg PUBLIC "-//W3C//DTD SVG 1.1//EN"
 "http://www.w3.org/Graphics/SVG/1.1/DTD/svg11.dtd">
<!-- Generated by graphviz version 2.26.3 (20100126.1600)
 -->
<!-- Title: G Pages: 1 -->
<svg width="606pt" height="190pt"
 viewBox="0.00 0.00 606.00 190.00" xmlns="http://www.w3.org/2000/svg" xmlns:xlink="http://www.w3.org/1999/xlink">
<g id="graph1" class="graph" transform="scale(1 1) rotate(0) translate(4 186)">
<title>G</title>
<polygon fill="white" stroke="white" points="-4,5 -4,-186 603,-186 603,5 -4,5"/>
<!-- Node1 -->
<g id="node1" class="node"><title>Node1</title>
<polygon fill="#bfbfbf" stroke="black" points="0,-80.5 0,-101.5 144,-101.5 144,-80.5 0,-80.5"/>
<text text-anchor="middle" x="72" y="-88.5" font-family="DejaVuSans" font-size="10.00">StorageCharacter::species</text>
</g>
<!-- Node2 -->
<g id="node3" class="node"><title>Node2</title>
<a xlink:href="class_advantages_widget.html#a99d7de9b9f89d58a8361e1fd27162f04" target="_top" xlink:title="AdvantagesWidget::AdvantagesWidget">
<polygon fill="white" stroke="black" points="180.5,-160.5 180.5,-181.5 381.5,-181.5 381.5,-160.5 180.5,-160.5"/>
<text text-anchor="middle" x="281" y="-168.5" font-family="DejaVuSans" font-size="10.00">AdvantagesWidget::AdvantagesWidget</text>
</a>
</g>
<!-- Node1&#45;&gt;Node2 -->
<g id="edge2" class="edge"><title>Node1&#45;&gt;Node2</title>
<path fill="none" stroke="midnightblue" d="M96.0143,-107.222C117.237,-120.84 149.475,-139.813 180,-151 190.322,-154.783 201.513,-157.903 212.561,-160.459"/>
<polygon fill="midnightblue" stroke="midnightblue" points="97.6447,-104.107 87.3577,-101.571 93.8182,-109.968 97.6447,-104.107"/>
</g>
<!-- Node3 -->
<g id="node5" class="node"><title>Node3</title>
<a xlink:href="class_creation.html#a2fc5625819c4f10884e0c31b594700a4" target="_top" xlink:title="Creation::calcPoints">
<polygon fill="white" stroke="black" points="225.5,-120.5 225.5,-141.5 336.5,-141.5 336.5,-120.5 225.5,-120.5"/>
<text text-anchor="middle" x="281" y="-128.5" font-family="DejaVuSans" font-size="10.00">Creation::calcPoints</text>
</a>
</g>
<!-- Node1&#45;&gt;Node3 -->
<g id="edge4" class="edge"><title>Node1&#45;&gt;Node3</title>
<path fill="none" stroke="midnightblue" d="M136.823,-103.406C165.441,-108.883 198.721,-115.253 226.092,-120.491"/>
<polygon fill="midnightblue" stroke="midnightblue" points="137.392,-99.9518 126.912,-101.51 136.076,-106.827 137.392,-99.9518"/>
</g>
<!-- Node4 -->
<g id="node7" class="node"><title>Node4</title>
<a xlink:href="class_draw_sheet.html#a4ecacd2a87e4bdcae52df69601a19fa4" target="_top" xlink:title="DrawSheet::print">
<polygon fill="white" stroke="black" points="232.5,-80.5 232.5,-101.5 329.5,-101.5 329.5,-80.5 232.5,-80.5"/>
<text text-anchor="middle" x="281" y="-88.5" font-family="DejaVuSans" font-size="10.00">DrawSheet::print</text>
</a>
</g>
<!-- Node1&#45;&gt;Node4 -->
<g id="edge6" class="edge"><title>Node1&#45;&gt;Node4</title>
<path fill="none" stroke="midnightblue" d="M154.251,-91C180.721,-91 209.188,-91 232.426,-91"/>
<polygon fill="midnightblue" stroke="midnightblue" points="154.219,-87.5001 144.219,-91 154.219,-94.5001 154.219,-87.5001"/>
</g>
<!-- Node5 -->
<g id="node9" class="node"><title>Node5</title>
<a xlink:href="class_storage_character.html#ac708bf6fd9e70736fe84e9529d2dfe18" target="_top" xlink:title="StorageCharacter::setSpecies">
<polygon fill="white" stroke="black" points="200.5,-40.5 200.5,-61.5 361.5,-61.5 361.5,-40.5 200.5,-40.5"/>
<text text-anchor="middle" x="281" y="-48.5" font-family="DejaVuSans" font-size="10.00">StorageCharacter::setSpecies</text>
</a>
</g>
<!-- Node1&#45;&gt;Node5 -->
<g id="edge8" class="edge"><title>Node1&#45;&gt;Node5</title>
<path fill="none" stroke="midnightblue" d="M136.823,-78.5937C165.441,-73.1166 198.721,-66.7472 226.092,-61.5087"/>
<polygon fill="midnightblue" stroke="midnightblue" points="136.076,-75.173 126.912,-80.4905 137.392,-82.0482 136.076,-75.173"/>
</g>
<!-- Node7 -->
<g id="node13" class="node"><title>Node7</title>
<a xlink:href="class_write_xml_character.html#af657074e346540e71b20ab2ccae3bc9c" target="_top" xlink:title="WriteXmlCharacter::write">
<polygon fill="white" stroke="black" points="214,-0.5 214,-21.5 348,-21.5 348,-0.5 214,-0.5"/>
<text text-anchor="middle" x="281" y="-8.5" font-family="DejaVuSans" font-size="10.00">WriteXmlCharacter::write</text>
</a>
</g>
<!-- Node1&#45;&gt;Node7 -->
<g id="edge12" class="edge"><title>Node1&#45;&gt;Node7</title>
<path fill="none" stroke="midnightblue" d="M96.0143,-74.7777C117.237,-61.1602 149.475,-42.1874 180,-31 190.741,-27.0633 202.425,-23.8449 213.907,-21.2318"/>
<polygon fill="midnightblue" stroke="midnightblue" points="93.8182,-72.0315 87.3577,-80.4287 97.6447,-77.8931 93.8182,-72.0315"/>
</g>
<!-- Node6 -->
<g id="node11" class="node"><title>Node6</title>
<a xlink:href="class_storage_character.html#a6534667b942bd21253c432fee79a8850" target="_top" xlink:title="StorageCharacter::resetCharacter">
<polygon fill="white" stroke="black" points="418,-40.5 418,-61.5 598,-61.5 598,-40.5 418,-40.5"/>
<text text-anchor="middle" x="508" y="-48.5" font-family="DejaVuSans" font-size="10.00">StorageCharacter::resetCharacter</text>
</a>
</g>
<!-- Node5&#45;&gt;Node6 -->
<g id="edge10" class="edge"><title>Node5&#45;&gt;Node6</title>
<path fill="none" stroke="midnightblue" d="M372.038,-51C387.16,-51 402.837,-51 417.935,-51"/>
<polygon fill="midnightblue" stroke="midnightblue" points="371.671,-47.5001 361.671,-51 371.671,-54.5001 371.671,-47.5001"/>
</g>
</g>
</svg>
