<?xml version="1.0" encoding="UTF-8" standalone="no"?>
<!DOCTYPE svg PUBLIC "-//W3C//DTD SVG 1.1//EN"
 "http://www.w3.org/Graphics/SVG/1.1/DTD/svg11.dtd">
<!-- Generated by graphviz version 2.26.3 (20100126.1600)
 -->
<!-- Title: G Pages: 1 -->
<svg width="1052pt" height="190pt"
 viewBox="0.00 0.00 1052.00 190.00" xmlns="http://www.w3.org/2000/svg" xmlns:xlink="http://www.w3.org/1999/xlink">
<g id="graph1" class="graph" transform="scale(1 1) rotate(0) translate(4 186)">
<title>G</title>
<polygon fill="white" stroke="white" points="-4,5 -4,-186 1049,-186 1049,5 -4,5"/>
<!-- Node1 -->
<g id="node1" class="node"><title>Node1</title>
<polygon fill="#bfbfbf" stroke="black" points="0.5,-80.5 0.5,-101.5 127.5,-101.5 127.5,-80.5 0.5,-80.5"/>
<text text-anchor="middle" x="64" y="-88.5" font-family="DejaVuSans" font-size="10.00">ReadTemplate::process</text>
</g>
<!-- Node2 -->
<g id="node3" class="node"><title>Node2</title>
<a xlink:href="class_read_template.html#ad7023d8c02891c892ea33808363bbcd2" target="_top" xlink:title="ReadTemplate::readXml">
<polygon fill="white" stroke="black" points="164.5,-80.5 164.5,-101.5 293.5,-101.5 293.5,-80.5 164.5,-80.5"/>
<text text-anchor="middle" x="229" y="-88.5" font-family="DejaVuSans" font-size="10.00">ReadTemplate::readXml</text>
</a>
</g>
<!-- Node1&#45;&gt;Node2 -->
<g id="edge2" class="edge"><title>Node1&#45;&gt;Node2</title>
<path fill="none" stroke="midnightblue" d="M127.793,-91C136.397,-91 145.287,-91 154.063,-91"/>
<polygon fill="midnightblue" stroke="midnightblue" points="154.287,-94.5001 164.287,-91 154.287,-87.5001 154.287,-94.5001"/>
</g>
<!-- Node3 -->
<g id="node5" class="node"><title>Node3</title>
<a xlink:href="class_read_template.html#a5402ab76df3fd4144e7a5986e6f858bd" target="_top" xlink:title="ReadTemplate::closeFile">
<polygon fill="white" stroke="black" points="349.5,-160.5 349.5,-181.5 478.5,-181.5 478.5,-160.5 349.5,-160.5"/>
<text text-anchor="middle" x="414" y="-168.5" font-family="DejaVuSans" font-size="10.00">ReadTemplate::closeFile</text>
</a>
</g>
<!-- Node2&#45;&gt;Node3 -->
<g id="edge4" class="edge"><title>Node2&#45;&gt;Node3</title>
<path fill="none" stroke="midnightblue" d="M243.653,-101.654C262.67,-115.009 297.297,-137.752 330,-151 336.161,-153.496 342.708,-155.727 349.323,-157.711"/>
<polygon fill="midnightblue" stroke="midnightblue" points="348.451,-161.101 359.025,-160.441 350.347,-154.363 348.451,-161.101"/>
</g>
<!-- Node4 -->
<g id="node7" class="node"><title>Node4</title>
<a xlink:href="class_config.html#a207b413a92300d09acb205a2d21a8734" target="_top" xlink:title="Config::name">
<polygon fill="white" stroke="black" points="374,-120.5 374,-141.5 454,-141.5 454,-120.5 374,-120.5"/>
<text text-anchor="middle" x="414" y="-128.5" font-family="DejaVuSans" font-size="10.00">Config::name</text>
</a>
</g>
<!-- Node2&#45;&gt;Node4 -->
<g id="edge6" class="edge"><title>Node2&#45;&gt;Node4</title>
<path fill="none" stroke="midnightblue" d="M277.607,-101.51C304.186,-107.257 337.061,-114.365 363.875,-120.162"/>
<polygon fill="midnightblue" stroke="midnightblue" points="363.315,-123.622 373.829,-122.314 364.795,-116.78 363.315,-123.622"/>
</g>
<!-- Node5 -->
<g id="node9" class="node"><title>Node5</title>
<a xlink:href="class_read_template.html#aa726d436306f6d3f138dec06b20f631a" target="_top" xlink:title="ReadTemplate::openFile">
<polygon fill="white" stroke="black" points="350,-80.5 350,-101.5 478,-101.5 478,-80.5 350,-80.5"/>
<text text-anchor="middle" x="414" y="-88.5" font-family="DejaVuSans" font-size="10.00">ReadTemplate::openFile</text>
</a>
</g>
<!-- Node2&#45;&gt;Node5 -->
<g id="edge8" class="edge"><title>Node2&#45;&gt;Node5</title>
<path fill="none" stroke="midnightblue" d="M293.704,-91C308.519,-91 324.384,-91 339.572,-91"/>
<polygon fill="midnightblue" stroke="midnightblue" points="339.957,-94.5001 349.957,-91 339.957,-87.5001 339.957,-94.5001"/>
</g>
<!-- Node6 -->
<g id="node11" class="node"><title>Node6</title>
<a xlink:href="class_read_template.html#afadaf1be1c19f9a70a4894a246386ee9" target="_top" xlink:title="ReadTemplate::readSoulCreator">
<polygon fill="white" stroke="black" points="330,-40.5 330,-61.5 498,-61.5 498,-40.5 330,-40.5"/>
<text text-anchor="middle" x="414" y="-48.5" font-family="DejaVuSans" font-size="10.00">ReadTemplate::readSoulCreator</text>
</a>
</g>
<!-- Node2&#45;&gt;Node6 -->
<g id="edge10" class="edge"><title>Node2&#45;&gt;Node6</title>
<path fill="none" stroke="midnightblue" d="M277.607,-80.4905C301.412,-75.3434 330.266,-69.1046 355.294,-63.6933"/>
<polygon fill="midnightblue" stroke="midnightblue" points="356.363,-67.0431 365.397,-61.5087 354.883,-60.2012 356.363,-67.0431"/>
</g>
<!-- Node13 -->
<g id="node26" class="node"><title>Node13</title>
<a xlink:href="class_config.html#a77bc8861add4e417c0c5987eed2359cb" target="_top" xlink:title="Config::version">
<polygon fill="white" stroke="black" points="370.5,-0.5 370.5,-21.5 457.5,-21.5 457.5,-0.5 370.5,-0.5"/>
<text text-anchor="middle" x="414" y="-8.5" font-family="DejaVuSans" font-size="10.00">Config::version</text>
</a>
</g>
<!-- Node2&#45;&gt;Node13 -->
<g id="edge26" class="edge"><title>Node2&#45;&gt;Node13</title>
<path fill="none" stroke="midnightblue" d="M243.653,-80.3462C262.67,-66.9911 297.297,-44.2477 330,-31 339.687,-27.0759 350.328,-23.8058 360.684,-21.1245"/>
<polygon fill="midnightblue" stroke="midnightblue" points="361.602,-24.5035 370.487,-18.7321 359.942,-17.7031 361.602,-24.5035"/>
</g>
<!-- Node7 -->
<g id="node13" class="node"><title>Node7</title>
<a xlink:href="class_read_template.html#a5984eef9690e258cc42d09206ad0477f" target="_top" xlink:title="ReadTemplate::readTree">
<polygon fill="white" stroke="black" points="534.5,-79.5 534.5,-100.5 665.5,-100.5 665.5,-79.5 534.5,-79.5"/>
<text text-anchor="middle" x="600" y="-87.5" font-family="DejaVuSans" font-size="10.00">ReadTemplate::readTree</text>
</a>
</g>
<!-- Node6&#45;&gt;Node7 -->
<g id="edge12" class="edge"><title>Node6&#45;&gt;Node7</title>
<path fill="none" stroke="midnightblue" d="M464.334,-61.554C487.596,-66.4314 515.404,-72.2621 539.771,-77.3713"/>
<polygon fill="midnightblue" stroke="midnightblue" points="539.12,-80.8109 549.625,-79.4376 540.557,-73.9599 539.12,-80.8109"/>
</g>
<!-- Node10 -->
<g id="node19" class="node"><title>Node10</title>
<a xlink:href="class_read_template.html#a7421603688e1dedca296c0ed3888a4bc" target="_top" xlink:title="ReadTemplate::readUnknownElement">
<polygon fill="white" stroke="black" points="702,-39.5 702,-60.5 896,-60.5 896,-39.5 702,-39.5"/>
<text text-anchor="middle" x="799" y="-47.5" font-family="DejaVuSans" font-size="10.00">ReadTemplate::readUnknownElement</text>
</a>
</g>
<!-- Node6&#45;&gt;Node10 -->
<g id="edge22" class="edge"><title>Node6&#45;&gt;Node10</title>
<path fill="none" stroke="midnightblue" d="M498.014,-50.7818C554.917,-50.634 630.597,-50.4374 691.834,-50.2784"/>
<polygon fill="midnightblue" stroke="midnightblue" points="691.93,-53.7782 701.921,-50.2522 691.912,-46.7782 691.93,-53.7782"/>
</g>
<!-- Node12 -->
<g id="node24" class="node"><title>Node12</title>
<a xlink:href="classcv___species.html#a152c6fe9f8df1fa2bdba478f481955e2" target="_top" xlink:title="cv_Species::toSpecies">
<polygon fill="white" stroke="black" points="538.5,-1.5 538.5,-22.5 661.5,-22.5 661.5,-1.5 538.5,-1.5"/>
<text text-anchor="middle" x="600" y="-9.5" font-family="DejaVuSans" font-size="10.00">cv_Species::toSpecies</text>
</a>
</g>
<!-- Node6&#45;&gt;Node12 -->
<g id="edge24" class="edge"><title>Node6&#45;&gt;Node12</title>
<path fill="none" stroke="midnightblue" d="M464.334,-40.446C487.596,-35.5686 515.404,-29.7379 539.771,-24.6287"/>
<polygon fill="midnightblue" stroke="midnightblue" points="540.557,-28.0401 549.625,-22.5624 539.12,-21.1891 540.557,-28.0401"/>
</g>
<!-- Node8 -->
<g id="node15" class="node"><title>Node8</title>
<a xlink:href="class_read_template.html#a85e90e2466fbabcae68cca7e1aec234c" target="_top" xlink:title="ReadTemplate::readTraits">
<polygon fill="white" stroke="black" points="731,-119.5 731,-140.5 867,-140.5 867,-119.5 731,-119.5"/>
<text text-anchor="middle" x="799" y="-127.5" font-family="DejaVuSans" font-size="10.00">ReadTemplate::readTraits</text>
</a>
</g>
<!-- Node7&#45;&gt;Node8 -->
<g id="edge14" class="edge"><title>Node7&#45;&gt;Node8</title>
<path fill="none" stroke="midnightblue" d="M652.285,-100.51C678.119,-105.702 709.482,-112.006 736.568,-117.451"/>
<polygon fill="midnightblue" stroke="midnightblue" points="736.225,-120.952 746.719,-119.491 737.605,-114.089 736.225,-120.952"/>
</g>
<!-- Node7&#45;&gt;Node10 -->
<g id="edge18" class="edge"><title>Node7&#45;&gt;Node10</title>
<path fill="none" stroke="midnightblue" d="M652.285,-79.4905C678.119,-74.2977 709.482,-67.9936 736.568,-62.5492"/>
<polygon fill="midnightblue" stroke="midnightblue" points="737.605,-65.9108 746.719,-60.5087 736.225,-59.0481 737.605,-65.9108"/>
</g>
<!-- Node11 -->
<g id="node21" class="node"><title>Node11</title>
<a xlink:href="classcv___trait.html#ac06e3b8607fa52324072b4a6493fac60" target="_top" xlink:title="cv_Trait::toType">
<polygon fill="white" stroke="black" points="754.5,-79.5 754.5,-100.5 843.5,-100.5 843.5,-79.5 754.5,-79.5"/>
<text text-anchor="middle" x="799" y="-87.5" font-family="DejaVuSans" font-size="10.00">cv_Trait::toType</text>
</a>
</g>
<!-- Node7&#45;&gt;Node11 -->
<g id="edge20" class="edge"><title>Node7&#45;&gt;Node11</title>
<path fill="none" stroke="midnightblue" d="M665.712,-90C691.17,-90 719.977,-90 744.281,-90"/>
<polygon fill="midnightblue" stroke="midnightblue" points="744.398,-93.5001 754.398,-90 744.398,-86.5001 744.398,-93.5001"/>
</g>
<!-- Node9 -->
<g id="node17" class="node"><title>Node9</title>
<a xlink:href="classcv___trait.html#a8dbbb4674c121a54bd0830cf90c568bc" target="_top" xlink:title="cv_Trait::toCategory">
<polygon fill="white" stroke="black" points="932.5,-119.5 932.5,-140.5 1043.5,-140.5 1043.5,-119.5 932.5,-119.5"/>
<text text-anchor="middle" x="988" y="-127.5" font-family="DejaVuSans" font-size="10.00">cv_Trait::toCategory</text>
</a>
</g>
<!-- Node8&#45;&gt;Node9 -->
<g id="edge16" class="edge"><title>Node8&#45;&gt;Node9</title>
<path fill="none" stroke="midnightblue" d="M867.233,-130C885.088,-130 904.301,-130 922.035,-130"/>
<polygon fill="midnightblue" stroke="midnightblue" points="922.284,-133.5 932.284,-130 922.284,-126.5 922.284,-133.5"/>
</g>
</g>
</svg>
