<?xml version="1.0" encoding="UTF-8" standalone="no"?>
<!DOCTYPE svg PUBLIC "-//W3C//DTD SVG 1.1//EN"
 "http://www.w3.org/Graphics/SVG/1.1/DTD/svg11.dtd">
<!-- Generated by graphviz version 2.26.3 (20100126.1600)
 -->
<!-- Title: G Pages: 1 -->
<svg width="976pt" height="30pt"
 viewBox="0.00 0.00 976.00 30.00" xmlns="http://www.w3.org/2000/svg" xmlns:xlink="http://www.w3.org/1999/xlink">
<g id="graph1" class="graph" transform="scale(1 1) rotate(0) translate(4 26)">
<title>G</title>
<polygon fill="white" stroke="white" points="-4,5 -4,-26 973,-26 973,5 -4,5"/>
<!-- Node1 -->
<g id="node1" class="node"><title>Node1</title>
<polygon fill="#bfbfbf" stroke="black" points="0,-0.5 0,-21.5 128,-21.5 128,-0.5 0,-0.5"/>
<text text-anchor="middle" x="64" y="-8.5" font-family="DejaVuSans" font-size="10.00">ReadTemplate::openFile</text>
</g>
<!-- Node2 -->
<g id="node3" class="node"><title>Node2</title>
<a xlink:href="class_read_template.html#ad7023d8c02891c892ea33808363bbcd2" target="_top" xlink:title="ReadTemplate::readXml">
<polygon fill="white" stroke="black" points="164.5,-0.5 164.5,-21.5 293.5,-21.5 293.5,-0.5 164.5,-0.5"/>
<text text-anchor="middle" x="229" y="-8.5" font-family="DejaVuSans" font-size="10.00">ReadTemplate::readXml</text>
</a>
</g>
<!-- Node1&#45;&gt;Node2 -->
<g id="edge2" class="edge"><title>Node1&#45;&gt;Node2</title>
<path fill="none" stroke="midnightblue" d="M138.37,-11C147.044,-11 155.839,-11 164.367,-11"/>
<polygon fill="midnightblue" stroke="midnightblue" points="138.266,-7.5001 128.266,-11 138.266,-14.5001 138.266,-7.5001"/>
</g>
<!-- Node3 -->
<g id="node5" class="node"><title>Node3</title>
<a xlink:href="class_read_template.html#a229f7cd3bfc1d0c47caa2cec3a5a0621" target="_top" xlink:title="ReadTemplate::process">
<polygon fill="white" stroke="black" points="330.5,-0.5 330.5,-21.5 457.5,-21.5 457.5,-0.5 330.5,-0.5"/>
<text text-anchor="middle" x="394" y="-8.5" font-family="DejaVuSans" font-size="10.00">ReadTemplate::process</text>
</a>
</g>
<!-- Node2&#45;&gt;Node3 -->
<g id="edge4" class="edge"><title>Node2&#45;&gt;Node3</title>
<path fill="none" stroke="midnightblue" d="M303.971,-11C312.753,-11 321.65,-11 330.259,-11"/>
<polygon fill="midnightblue" stroke="midnightblue" points="303.739,-7.5001 293.739,-11 303.739,-14.5001 303.739,-7.5001"/>
</g>
<!-- Node4 -->
<g id="node7" class="node"><title>Node4</title>
<a xlink:href="class_read_template.html#a3eb0cc39155f082c8c1d71521431e9f4" target="_top" xlink:title="ReadTemplate::read">
<polygon fill="white" stroke="black" points="494.5,-0.5 494.5,-21.5 605.5,-21.5 605.5,-0.5 494.5,-0.5"/>
<text text-anchor="middle" x="550" y="-8.5" font-family="DejaVuSans" font-size="10.00">ReadTemplate::read</text>
</a>
</g>
<!-- Node3&#45;&gt;Node4 -->
<g id="edge6" class="edge"><title>Node3&#45;&gt;Node4</title>
<path fill="none" stroke="midnightblue" d="M467.921,-11C476.845,-11 485.84,-11 494.437,-11"/>
<polygon fill="midnightblue" stroke="midnightblue" points="467.901,-7.5001 457.901,-11 467.901,-14.5001 467.901,-7.5001"/>
</g>
<!-- Node5 -->
<g id="node9" class="node"><title>Node5</title>
<a xlink:href="class_main_window.html#a1ebe4d2e06ddd16007a29bd1b8c09c49" target="_top" xlink:title="MainWindow::storeTemplateData">
<polygon fill="white" stroke="black" points="642.5,-0.5 642.5,-21.5 813.5,-21.5 813.5,-0.5 642.5,-0.5"/>
<text text-anchor="middle" x="728" y="-8.5" font-family="DejaVuSans" font-size="10.00">MainWindow::storeTemplateData</text>
</a>
</g>
<!-- Node4&#45;&gt;Node5 -->
<g id="edge8" class="edge"><title>Node4&#45;&gt;Node5</title>
<path fill="none" stroke="midnightblue" d="M616.109,-11C624.676,-11 633.548,-11 642.375,-11"/>
<polygon fill="midnightblue" stroke="midnightblue" points="615.832,-7.5001 605.832,-11 615.832,-14.5001 615.832,-7.5001"/>
</g>
<!-- Node6 -->
<g id="node11" class="node"><title>Node6</title>
<a xlink:href="class_main_window.html#a43f05c4d3f5d840d070829d3291c9ec7" target="_top" xlink:title="MainWindow::initialize">
<polygon fill="white" stroke="black" points="850,-0.5 850,-21.5 968,-21.5 968,-0.5 850,-0.5"/>
<text text-anchor="middle" x="909" y="-8.5" font-family="DejaVuSans" font-size="10.00">MainWindow::initialize</text>
</a>
</g>
<!-- Node5&#45;&gt;Node6 -->
<g id="edge10" class="edge"><title>Node5&#45;&gt;Node6</title>
<path fill="none" stroke="midnightblue" d="M823.781,-11C832.675,-11 841.5,-11 849.912,-11"/>
<polygon fill="midnightblue" stroke="midnightblue" points="823.73,-7.5001 813.73,-11 823.729,-14.5001 823.73,-7.5001"/>
</g>
</g>
</svg>
