<?xml version="1.0" encoding="UTF-8" standalone="no"?>
<!DOCTYPE svg PUBLIC "-//W3C//DTD SVG 1.1//EN"
 "http://www.w3.org/Graphics/SVG/1.1/DTD/svg11.dtd">
<!-- Generated by graphviz version 2.26.3 (20100126.1600)
 -->
<!-- Title: G Pages: 1 -->
<svg width="468pt" height="30pt"
 viewBox="0.00 0.00 468.00 30.00" xmlns="http://www.w3.org/2000/svg" xmlns:xlink="http://www.w3.org/1999/xlink">
<g id="graph1" class="graph" transform="scale(1 1) rotate(0) translate(4 26)">
<title>G</title>
<polygon fill="white" stroke="white" points="-4,5 -4,-26 465,-26 465,5 -4,5"/>
<!-- Node1 -->
<g id="node1" class="node"><title>Node1</title>
<polygon fill="#bfbfbf" stroke="black" points="0.5,-0.5 0.5,-21.5 125.5,-21.5 125.5,-0.5 0.5,-0.5"/>
<text text-anchor="middle" x="63" y="-8.5" font-family="DejaVuSans" font-size="10.00">CharaTrait::customText</text>
</g>
<!-- Node2 -->
<g id="node3" class="node"><title>Node2</title>
<a xlink:href="class_chara_trait.html#ace22816278072df97eb782603153600b" target="_top" xlink:title="CharaTrait::setCustomText">
<polygon fill="white" stroke="black" points="162,-0.5 162,-21.5 304,-21.5 304,-0.5 162,-0.5"/>
<text text-anchor="middle" x="233" y="-8.5" font-family="DejaVuSans" font-size="10.00">CharaTrait::setCustomText</text>
</a>
</g>
<!-- Node1&#45;&gt;Node2 -->
<g id="edge2" class="edge"><title>Node1&#45;&gt;Node2</title>
<path fill="none" stroke="midnightblue" d="M135.836,-11C144.455,-11 153.245,-11 161.84,-11"/>
<polygon fill="midnightblue" stroke="midnightblue" points="135.819,-7.5001 125.819,-11 135.819,-14.5001 135.819,-7.5001"/>
</g>
<!-- Node3 -->
<g id="node5" class="node"><title>Node3</title>
<a xlink:href="class_chara_trait.html#a21787eb972b4fc8779368a78f4430f14" target="_top" xlink:title="CharaTrait::CharaTrait">
<polygon fill="white" stroke="black" points="340.5,-0.5 340.5,-21.5 459.5,-21.5 459.5,-0.5 340.5,-0.5"/>
<text text-anchor="middle" x="400" y="-8.5" font-family="DejaVuSans" font-size="10.00">CharaTrait::CharaTrait</text>
</a>
</g>
<!-- Node2&#45;&gt;Node3 -->
<g id="edge4" class="edge"><title>Node2&#45;&gt;Node3</title>
<path fill="none" stroke="midnightblue" d="M314.54,-11C323.287,-11 332.062,-11 340.483,-11"/>
<polygon fill="midnightblue" stroke="midnightblue" points="314.307,-7.5001 304.307,-11 314.307,-14.5001 314.307,-7.5001"/>
</g>
</g>
</svg>
