<?xml version="1.0" encoding="UTF-8" standalone="no"?>
<!DOCTYPE svg PUBLIC "-//W3C//DTD SVG 1.1//EN"
 "http://www.w3.org/Graphics/SVG/1.1/DTD/svg11.dtd">
<!-- Generated by graphviz version 2.26.3 (20100126.1600)
 -->
<!-- Title: G Pages: 1 -->
<svg width="470pt" height="70pt"
 viewBox="0.00 0.00 470.00 70.00" xmlns="http://www.w3.org/2000/svg" xmlns:xlink="http://www.w3.org/1999/xlink">
<g id="graph1" class="graph" transform="scale(1 1) rotate(0) translate(4 66)">
<title>G</title>
<polygon fill="white" stroke="white" points="-4,5 -4,-66 467,-66 467,5 -4,5"/>
<!-- Node1 -->
<g id="node1" class="node"><title>Node1</title>
<polygon fill="#bfbfbf" stroke="black" points="0,-20.5 0,-41.5 126,-41.5 126,-20.5 0,-20.5"/>
<text text-anchor="middle" x="63" y="-28.5" font-family="DejaVuSans" font-size="10.00">CheckTrait::customText</text>
</g>
<!-- Node2 -->
<g id="node3" class="node"><title>Node2</title>
<a xlink:href="class_check_trait.html#a70a2f81f0fc8e246b3296583ec853b4a" target="_top" xlink:title="CheckTrait::setCustomText">
<polygon fill="white" stroke="black" points="162.5,-40.5 162.5,-61.5 305.5,-61.5 305.5,-40.5 162.5,-40.5"/>
<text text-anchor="middle" x="234" y="-48.5" font-family="DejaVuSans" font-size="10.00">CheckTrait::setCustomText</text>
</a>
</g>
<!-- Node1&#45;&gt;Node2 -->
<g id="edge2" class="edge"><title>Node1&#45;&gt;Node2</title>
<path fill="none" stroke="midnightblue" d="M136.265,-39.569C144.934,-40.583 153.775,-41.617 162.421,-42.6282"/>
<polygon fill="midnightblue" stroke="midnightblue" points="136.527,-36.0759 126.188,-38.3904 135.714,-43.0285 136.527,-36.0759"/>
</g>
<!-- Node4 -->
<g id="node7" class="node"><title>Node4</title>
<a xlink:href="class_check_trait.html#a894ea83addabc03a7a6ca5a167fe3e49" target="_top" xlink:title="CheckTrait::updateWidget">
<polygon fill="white" stroke="black" points="165.5,-0.5 165.5,-21.5 302.5,-21.5 302.5,-0.5 165.5,-0.5"/>
<text text-anchor="middle" x="234" y="-8.5" font-family="DejaVuSans" font-size="10.00">CheckTrait::updateWidget</text>
</a>
</g>
<!-- Node1&#45;&gt;Node4 -->
<g id="edge6" class="edge"><title>Node1&#45;&gt;Node4</title>
<path fill="none" stroke="midnightblue" d="M136.169,-22.4422C145.842,-21.3109 155.73,-20.1544 165.323,-19.0323"/>
<polygon fill="midnightblue" stroke="midnightblue" points="135.714,-18.9715 126.188,-23.6096 136.527,-25.9241 135.714,-18.9715"/>
</g>
<!-- Node3 -->
<g id="node5" class="node"><title>Node3</title>
<a xlink:href="class_check_trait.html#a0e37d389c1ccaf32a2157463d3c055c6" target="_top" xlink:title="CheckTrait::CheckTrait">
<polygon fill="white" stroke="black" points="342,-20.5 342,-41.5 462,-41.5 462,-20.5 342,-20.5"/>
<text text-anchor="middle" x="402" y="-28.5" font-family="DejaVuSans" font-size="10.00">CheckTrait::CheckTrait</text>
</a>
</g>
<!-- Node2&#45;&gt;Node3 -->
<g id="edge4" class="edge"><title>Node2&#45;&gt;Node3</title>
<path fill="none" stroke="midnightblue" d="M315.667,-41.2777C324.496,-40.2267 333.359,-39.1715 341.866,-38.1588"/>
<polygon fill="midnightblue" stroke="midnightblue" points="315.251,-37.8025 305.734,-42.4602 316.078,-44.7534 315.251,-37.8025"/>
</g>
<!-- Node4&#45;&gt;Node3 -->
<g id="edge8" class="edge"><title>Node4&#45;&gt;Node3</title>
<path fill="none" stroke="midnightblue" d="M312.916,-20.3948C322.661,-21.5549 332.497,-22.7258 341.898,-23.845"/>
<polygon fill="midnightblue" stroke="midnightblue" points="313.16,-16.8992 302.817,-19.1925 312.333,-23.8501 313.16,-16.8992"/>
</g>
</g>
</svg>
