<?xml version="1.0" encoding="UTF-8" standalone="no"?>
<!DOCTYPE svg PUBLIC "-//W3C//DTD SVG 1.1//EN"
 "http://www.w3.org/Graphics/SVG/1.1/DTD/svg11.dtd">
<!-- Generated by graphviz version 2.26.3 (20100126.1600)
 -->
<!-- Title: G Pages: 1 -->
<svg width="532pt" height="70pt"
 viewBox="0.00 0.00 532.00 70.00" xmlns="http://www.w3.org/2000/svg" xmlns:xlink="http://www.w3.org/1999/xlink">
<g id="graph1" class="graph" transform="scale(1 1) rotate(0) translate(4 66)">
<title>G</title>
<polygon fill="white" stroke="white" points="-4,5 -4,-66 529,-66 529,5 -4,5"/>
<!-- Node1 -->
<g id="node1" class="node"><title>Node1</title>
<polygon fill="#bfbfbf" stroke="black" points="0.5,-20.5 0.5,-41.5 199.5,-41.5 199.5,-20.5 0.5,-20.5"/>
<text text-anchor="middle" x="100" y="-28.5" font-family="DejaVuSans" font-size="10.00">eMissingUserEntry::eMissingUserEntry</text>
</g>
<!-- Node2 -->
<g id="node3" class="node"><title>Node2</title>
<a xlink:href="class_exception.html#a032056e0558a40affd69325368840a72" target="_top" xlink:title="Exception::setDescription">
<polygon fill="white" stroke="black" points="236,-40.5 236,-61.5 374,-61.5 374,-40.5 236,-40.5"/>
<text text-anchor="middle" x="305" y="-48.5" font-family="DejaVuSans" font-size="10.00">Exception::setDescription</text>
</a>
</g>
<!-- Node1&#45;&gt;Node2 -->
<g id="edge2" class="edge"><title>Node1&#45;&gt;Node2</title>
<path fill="none" stroke="midnightblue" d="M199.798,-40.7364C208.485,-41.5839 217.198,-42.4339 225.687,-43.2621"/>
<polygon fill="midnightblue" stroke="midnightblue" points="225.621,-46.7722 235.913,-44.2598 226.301,-39.8053 225.621,-46.7722"/>
</g>
<!-- Node3 -->
<g id="node5" class="node"><title>Node3</title>
<a xlink:href="class_exception.html#a16b5202a71fe00abb2c278adca10b415" target="_top" xlink:title="Exception::setMessage">
<polygon fill="white" stroke="black" points="241.5,-0.5 241.5,-21.5 368.5,-21.5 368.5,-0.5 241.5,-0.5"/>
<text text-anchor="middle" x="305" y="-8.5" font-family="DejaVuSans" font-size="10.00">Exception::setMessage</text>
</a>
</g>
<!-- Node1&#45;&gt;Node3 -->
<g id="edge4" class="edge"><title>Node1&#45;&gt;Node3</title>
<path fill="none" stroke="midnightblue" d="M199.798,-21.2636C210.413,-20.228 221.067,-19.1886 231.304,-18.1899"/>
<polygon fill="midnightblue" stroke="midnightblue" points="231.772,-21.6609 241.385,-17.2064 231.092,-14.694 231.772,-21.6609"/>
</g>
<!-- Node4 -->
<g id="node7" class="node"><title>Node4</title>
<a xlink:href="class_exception.html#aeaf3a81717287d50938bc72ed67bacd8" target="_top" xlink:title="Exception::message">
<polygon fill="white" stroke="black" points="410.5,-0.5 410.5,-21.5 523.5,-21.5 523.5,-0.5 410.5,-0.5"/>
<text text-anchor="middle" x="467" y="-8.5" font-family="DejaVuSans" font-size="10.00">Exception::message</text>
</a>
</g>
<!-- Node3&#45;&gt;Node4 -->
<g id="edge6" class="edge"><title>Node3&#45;&gt;Node4</title>
<path fill="none" stroke="midnightblue" d="M368.562,-11C378.933,-11 389.705,-11 400.152,-11"/>
<polygon fill="midnightblue" stroke="midnightblue" points="400.465,-14.5001 410.465,-11 400.465,-7.5001 400.465,-14.5001"/>
</g>
</g>
</svg>
