<?xml version="1.0" encoding="UTF-8" standalone="no"?>
<!DOCTYPE svg PUBLIC "-//W3C//DTD SVG 1.1//EN"
 "http://www.w3.org/Graphics/SVG/1.1/DTD/svg11.dtd">
<!-- Generated by graphviz version 2.26.3 (20100126.1600)
 -->
<!-- Title: G Pages: 1 -->
<svg width="314pt" height="232pt"
 viewBox="0.00 0.00 314.00 232.00" xmlns="http://www.w3.org/2000/svg" xmlns:xlink="http://www.w3.org/1999/xlink">
<g id="graph1" class="graph" transform="scale(1 1) rotate(0) translate(4 228)">
<title>G</title>
<polygon fill="white" stroke="white" points="-4,5 -4,-228 311,-228 311,5 -4,5"/>
<!-- Node1 -->
<g id="node1" class="node"><title>Node1</title>
<polygon fill="#bfbfbf" stroke="black" points="0,-0.5 0,-21.5 242,-21.5 242,-0.5 0,-0.5"/>
<text text-anchor="middle" x="121" y="-8.5" font-family="DejaVuSans" font-size="10.00">src.Storage.StorageTemplate.StorageTemplate</text>
</g>
<!-- Node2 -->
<g id="node2" class="node"><title>Node2</title>
<polygon fill="white" stroke="#bfbfbf" points="17.5,-202.5 17.5,-223.5 72.5,-223.5 72.5,-202.5 17.5,-202.5"/>
<text text-anchor="middle" x="45" y="-210.5" font-family="DejaVuSans" font-size="10.00">QObject</text>
</g>
<!-- Node2&#45;&gt;Node1 -->
<g id="edge2" class="edge"><title>Node2&#45;&gt;Node1</title>
<path fill="none" stroke="midnightblue" d="M52.5371,-192.967C68.37,-150.885 104.633,-54.5006 116.876,-21.9612"/>
<polygon fill="midnightblue" stroke="midnightblue" points="49.2247,-191.832 48.9791,-202.424 55.7764,-194.297 49.2247,-191.832"/>
</g>
<!-- Node3 -->
<g id="node4" class="node"><title>Node3</title>
<polygon fill="white" stroke="#bfbfbf" points="89.5,-202.5 89.5,-223.5 152.5,-223.5 152.5,-202.5 89.5,-202.5"/>
<text text-anchor="middle" x="121" y="-210.5" font-family="DejaVuSans" font-size="10.00">dictionary</text>
</g>
<!-- Node3&#45;&gt;Node1 -->
<g id="edge4" class="edge"><title>Node3&#45;&gt;Node1</title>
<path fill="none" stroke="#9a32cd" stroke-dasharray="5,2" d="M121,-192.158C121,-149.662 121,-54.2937 121,-21.9612"/>
<polygon fill="#9a32cd" stroke="#9a32cd" points="117.5,-192.424 121,-202.424 124.5,-192.424 117.5,-192.424"/>
<text text-anchor="middle" x="176.5" y="-174.5" font-family="DejaVuSans" font-size="10.00">__derangements</text>
<text text-anchor="middle" x="176.5" y="-161.5" font-family="DejaVuSans" font-size="10.00">__creationPointsList</text>
<text text-anchor="middle" x="176.5" y="-148.5" font-family="DejaVuSans" font-size="10.00">__equipment</text>
<text text-anchor="middle" x="176.5" y="-135.5" font-family="DejaVuSans" font-size="10.00">__species</text>
<text text-anchor="middle" x="176.5" y="-122.5" font-family="DejaVuSans" font-size="10.00">__armor</text>
<text text-anchor="middle" x="176.5" y="-109.5" font-family="DejaVuSans" font-size="10.00">__bonusTraits</text>
<text text-anchor="middle" x="176.5" y="-96.5" font-family="DejaVuSans" font-size="10.00">__subPowers</text>
<text text-anchor="middle" x="176.5" y="-83.5" font-family="DejaVuSans" font-size="10.00">__powerstat</text>
<text text-anchor="middle" x="176.5" y="-70.5" font-family="DejaVuSans" font-size="10.00">__speciesGroupNames</text>
<text text-anchor="middle" x="176.5" y="-57.5" font-family="DejaVuSans" font-size="10.00">__traits</text>
<text text-anchor="middle" x="176.5" y="-44.5" font-family="DejaVuSans" font-size="10.00">...</text>
</g>
<!-- Node4 -->
<g id="node6" class="node"><title>Node4</title>
<polygon fill="white" stroke="#bfbfbf" points="240,-202.5 240,-223.5 270,-223.5 270,-202.5 240,-202.5"/>
<text text-anchor="middle" x="255" y="-210.5" font-family="DejaVuSans" font-size="10.00">list</text>
</g>
<!-- Node4&#45;&gt;Node1 -->
<g id="edge6" class="edge"><title>Node4&#45;&gt;Node1</title>
<path fill="none" stroke="#9a32cd" stroke-dasharray="5,2" d="M259.076,-192.245C264.812,-156.455 270.734,-82.8532 233,-40 226.23,-32.312 207.075,-26.1465 186.479,-21.5108"/>
<polygon fill="#9a32cd" stroke="#9a32cd" points="255.567,-191.994 257.276,-202.45 262.46,-193.21 255.567,-191.994"/>
<text text-anchor="middle" x="284.5" y="-116" font-family="DejaVuSans" font-size="10.00">__vices</text>
<text text-anchor="middle" x="284.5" y="-103" font-family="DejaVuSans" font-size="10.00">__virtues</text>
</g>
</g>
</svg>
