<?xml version="1.0" encoding="UTF-8" standalone="no"?>
<!DOCTYPE svg PUBLIC "-//W3C//DTD SVG 1.1//EN"
 "http://www.w3.org/Graphics/SVG/1.1/DTD/svg11.dtd">
<!-- Generated by graphviz version 2.26.3 (20100126.1600)
 -->
<!-- Title: G Pages: 1 -->
<svg width="286pt" height="70pt"
 viewBox="0.00 0.00 286.00 70.00" xmlns="http://www.w3.org/2000/svg" xmlns:xlink="http://www.w3.org/1999/xlink">
<g id="graph1" class="graph" transform="scale(1 1) rotate(0) translate(4 66)">
<title>G</title>
<polygon fill="white" stroke="white" points="-4,5 -4,-66 283,-66 283,5 -4,5"/>
<!-- Node1 -->
<g id="node1" class="node"><title>Node1</title>
<polygon fill="#bfbfbf" stroke="black" points="0.5,-20.5 0.5,-41.5 89.5,-41.5 89.5,-20.5 0.5,-20.5"/>
<text text-anchor="middle" x="45" y="-28.5" font-family="DejaVuSans" font-size="10.00">Config::saveDir</text>
</g>
<!-- Node2 -->
<g id="node3" class="node"><title>Node2</title>
<a xlink:href="class_main_window.html#a1ef45a535e8ed4098477521c5087485f" target="_top" xlink:title="MainWindow::openCharacter">
<polygon fill="white" stroke="black" points="126.5,-40.5 126.5,-61.5 277.5,-61.5 277.5,-40.5 126.5,-40.5"/>
<text text-anchor="middle" x="202" y="-48.5" font-family="DejaVuSans" font-size="10.00">MainWindow::openCharacter</text>
</a>
</g>
<!-- Node1&#45;&gt;Node2 -->
<g id="edge2" class="edge"><title>Node1&#45;&gt;Node2</title>
<path fill="none" stroke="midnightblue" d="M99.5414,-37.948C108.23,-39.0548 117.351,-40.2167 126.421,-41.3721"/>
<polygon fill="midnightblue" stroke="midnightblue" points="99.9321,-34.4695 89.5699,-36.6777 99.0475,-41.4134 99.9321,-34.4695"/>
</g>
<!-- Node3 -->
<g id="node5" class="node"><title>Node3</title>
<a xlink:href="class_main_window.html#ac0b8eb0ffaef9243966a4ef8176ea0f4" target="_top" xlink:title="MainWindow::saveCharacter">
<polygon fill="white" stroke="black" points="127.5,-0.5 127.5,-21.5 276.5,-21.5 276.5,-0.5 127.5,-0.5"/>
<text text-anchor="middle" x="202" y="-8.5" font-family="DejaVuSans" font-size="10.00">MainWindow::saveCharacter</text>
</a>
</g>
<!-- Node1&#45;&gt;Node3 -->
<g id="edge4" class="edge"><title>Node1&#45;&gt;Node3</title>
<path fill="none" stroke="midnightblue" d="M99.4923,-24.0583C108.481,-22.9132 117.934,-21.709 127.315,-20.514"/>
<polygon fill="midnightblue" stroke="midnightblue" points="99.0475,-20.5866 89.5699,-25.3223 99.9321,-27.5305 99.0475,-20.5866"/>
</g>
</g>
</svg>
