<?xml version="1.0" encoding="UTF-8" standalone="no"?>
<!DOCTYPE svg PUBLIC "-//W3C//DTD SVG 1.1//EN"
 "http://www.w3.org/Graphics/SVG/1.1/DTD/svg11.dtd">
<!-- Generated by graphviz version 2.26.3 (20100126.1600)
 -->
<!-- Title: G Pages: 1 -->
<svg width="490pt" height="85pt"
 viewBox="0.00 0.00 490.00 85.27" xmlns="http://www.w3.org/2000/svg" xmlns:xlink="http://www.w3.org/1999/xlink">
<g id="graph1" class="graph" transform="scale(1 1) rotate(0) translate(4 81.2706)">
<title>G</title>
<polygon fill="white" stroke="white" points="-4,5 -4,-81.2706 487,-81.2706 487,5 -4,5"/>
<!-- Node1 -->
<g id="node1" class="node"><title>Node1</title>
<polygon fill="#bfbfbf" stroke="black" points="0.5,-40.5 0.5,-61.5 113.5,-61.5 113.5,-40.5 0.5,-40.5"/>
<text text-anchor="middle" x="57" y="-48.5" font-family="DejaVuSans" font-size="10.00">CheckTrait::setValue</text>
</g>
<!-- Node2 -->
<g id="node3" class="node"><title>Node2</title>
<a xlink:href="class_check_trait.html#a3d74335165852938fb58d285bcc25b52" target="_top" xlink:title="CheckTrait::CheckTrait">
<polygon fill="white" stroke="black" points="362,-39.5 362,-60.5 482,-60.5 482,-39.5 362,-39.5"/>
<text text-anchor="middle" x="422" y="-47.5" font-family="DejaVuSans" font-size="10.00">CheckTrait::CheckTrait</text>
</a>
</g>
<!-- Node1&#45;&gt;Node2 -->
<g id="edge2" class="edge"><title>Node1&#45;&gt;Node2</title>
<path fill="none" stroke="midnightblue" d="M106.832,-63.7483C120.711,-66.7423 135.86,-69.4968 150,-71 227.784,-79.2693 248.231,-79.4066 326,-71 344.997,-68.9464 365.747,-64.6702 383.08,-60.5092"/>
<polygon fill="midnightblue" stroke="midnightblue" points="107.506,-60.3126 96.9826,-61.5403 105.975,-67.1431 107.506,-60.3126"/>
</g>
<!-- Node3 -->
<g id="node5" class="node"><title>Node3</title>
<a xlink:href="class_flaw_widget.html#af387a892373d07ce615ad19d6da45448" target="_top" xlink:title="FlawWidget::FlawWidget">
<polygon fill="white" stroke="black" points="174,-40.5 174,-61.5 302,-61.5 302,-40.5 174,-40.5"/>
<text text-anchor="middle" x="238" y="-48.5" font-family="DejaVuSans" font-size="10.00">FlawWidget::FlawWidget</text>
</a>
</g>
<!-- Node1&#45;&gt;Node3 -->
<g id="edge4" class="edge"><title>Node1&#45;&gt;Node3</title>
<path fill="none" stroke="midnightblue" d="M123.795,-51C140.155,-51 157.627,-51 173.86,-51"/>
<polygon fill="midnightblue" stroke="midnightblue" points="123.773,-47.5001 113.773,-51 123.773,-54.5001 123.773,-47.5001"/>
</g>
<!-- Node4 -->
<g id="node7" class="node"><title>Node4</title>
<a xlink:href="class_check_trait.html#a38b03dfbcc01dbb65a9b345423e232db" target="_top" xlink:title="CheckTrait::hideTraitIfNotAvailable">
<polygon fill="white" stroke="black" points="150,-0.5 150,-21.5 326,-21.5 326,-0.5 150,-0.5"/>
<text text-anchor="middle" x="238" y="-8.5" font-family="DejaVuSans" font-size="10.00">CheckTrait::hideTraitIfNotAvailable</text>
</a>
</g>
<!-- Node1&#45;&gt;Node4 -->
<g id="edge6" class="edge"><title>Node1&#45;&gt;Node4</title>
<path fill="none" stroke="midnightblue" d="M114.441,-38.3059C138.928,-32.8944 167.158,-26.6557 190.448,-21.5087"/>
<polygon fill="midnightblue" stroke="midnightblue" points="113.565,-34.915 104.556,-40.4905 115.075,-41.7501 113.565,-34.915"/>
</g>
<!-- Node4&#45;&gt;Node2 -->
<g id="edge8" class="edge"><title>Node4&#45;&gt;Node2</title>
<path fill="none" stroke="midnightblue" d="M297.861,-23.688C321.885,-28.78 349.253,-34.5808 372.167,-39.4376"/>
<polygon fill="midnightblue" stroke="midnightblue" points="298.301,-20.2036 287.793,-21.554 296.85,-27.0515 298.301,-20.2036"/>
</g>
</g>
</svg>
