<?xml version="1.0" encoding="UTF-8" standalone="no"?>
<!DOCTYPE svg PUBLIC "-//W3C//DTD SVG 1.1//EN"
 "http://www.w3.org/Graphics/SVG/1.1/DTD/svg11.dtd">
<!-- Generated by graphviz version 2.26.3 (20100126.1600)
 -->
<!-- Title: G Pages: 1 -->
<svg width="462pt" height="108pt"
 viewBox="0.00 0.00 462.00 108.00" xmlns="http://www.w3.org/2000/svg" xmlns:xlink="http://www.w3.org/1999/xlink">
<g id="graph1" class="graph" transform="scale(1 1) rotate(0) translate(4 104)">
<title>G</title>
<polygon fill="white" stroke="white" points="-4,5 -4,-104 459,-104 459,5 -4,5"/>
<!-- Node1 -->
<g id="node1" class="node"><title>Node1</title>
<polygon fill="#bfbfbf" stroke="black" points="0.5,-39.5 0.5,-60.5 143.5,-60.5 143.5,-39.5 0.5,-39.5"/>
<text text-anchor="middle" x="72" y="-47.5" font-family="DejaVuSans" font-size="10.00">CheckTrait::setCustomText</text>
</g>
<!-- Node2 -->
<g id="node3" class="node"><title>Node2</title>
<a xlink:href="class_check_trait.html#a4ec4f95d6f1ff25331964d85393f0f3f" target="_top" xlink:title="CheckTrait::customText">
<polygon fill="white" stroke="black" points="184,-78.5 184,-99.5 310,-99.5 310,-78.5 184,-78.5"/>
<text text-anchor="middle" x="247" y="-86.5" font-family="DejaVuSans" font-size="10.00">CheckTrait::customText</text>
</a>
</g>
<!-- Node1&#45;&gt;Node2 -->
<g id="edge2" class="edge"><title>Node1&#45;&gt;Node2</title>
<path fill="none" stroke="midnightblue" d="M119.358,-60.554C141.049,-65.388 166.942,-71.1586 189.721,-76.2349"/>
<polygon fill="midnightblue" stroke="midnightblue" points="189.083,-79.6785 199.605,-78.4376 190.605,-72.8461 189.083,-79.6785"/>
</g>
<!-- Node3 -->
<g id="node5" class="node"><title>Node3</title>
<a xlink:href="class_check_trait.html#a85928c20fd7d921c1d9b831168b9964e" target="_top" xlink:title="CheckTrait::traitPtr">
<polygon fill="white" stroke="black" points="350,-58.5 350,-79.5 454,-79.5 454,-58.5 350,-58.5"/>
<text text-anchor="middle" x="402" y="-66.5" font-family="DejaVuSans" font-size="10.00">CheckTrait::traitPtr</text>
</a>
</g>
<!-- Node1&#45;&gt;Node3 -->
<g id="edge8" class="edge"><title>Node1&#45;&gt;Node3</title>
<path fill="none" stroke="midnightblue" d="M143.605,-54.1227C202.138,-57.4928 284.052,-62.2091 339.856,-65.422"/>
<polygon fill="midnightblue" stroke="midnightblue" points="339.776,-68.9231 349.961,-66.0038 340.179,-61.9347 339.776,-68.9231"/>
</g>
<!-- Node4 -->
<g id="node7" class="node"><title>Node4</title>
<a xlink:href="class_check_trait.html#a6fc70482737108eb58606a8eed553e04" target="_top" xlink:title="CheckTrait::traitChanged">
<polygon fill="white" stroke="black" points="180,-0.5 180,-21.5 314,-21.5 314,-0.5 180,-0.5"/>
<text text-anchor="middle" x="247" y="-8.5" font-family="DejaVuSans" font-size="10.00">CheckTrait::traitChanged</text>
</a>
</g>
<!-- Node1&#45;&gt;Node4 -->
<g id="edge6" class="edge"><title>Node1&#45;&gt;Node4</title>
<path fill="none" stroke="midnightblue" d="M119.358,-39.446C141.049,-34.612 166.942,-28.8414 189.721,-23.7651"/>
<polygon fill="midnightblue" stroke="midnightblue" points="190.605,-27.1539 199.605,-21.5624 189.083,-20.3215 190.605,-27.1539"/>
</g>
<!-- Node2&#45;&gt;Node3 -->
<g id="edge4" class="edge"><title>Node2&#45;&gt;Node3</title>
<path fill="none" stroke="midnightblue" d="M310.044,-80.8652C319.873,-79.597 330.023,-78.2874 339.832,-77.0217"/>
<polygon fill="midnightblue" stroke="midnightblue" points="340.432,-80.4733 349.902,-75.7223 339.536,-73.5309 340.432,-80.4733"/>
</g>
</g>
</svg>
