<?xml version="1.0" encoding="UTF-8" standalone="no"?>
<!DOCTYPE svg PUBLIC "-//W3C//DTD SVG 1.1//EN"
 "http://www.w3.org/Graphics/SVG/1.1/DTD/svg11.dtd">
<!-- Generated by graphviz version 2.26.3 (20100126.1600)
 -->
<!-- Title: G Pages: 1 -->
<svg width="460pt" height="70pt"
 viewBox="0.00 0.00 460.00 70.00" xmlns="http://www.w3.org/2000/svg" xmlns:xlink="http://www.w3.org/1999/xlink">
<g id="graph1" class="graph" transform="scale(1 1) rotate(0) translate(4 66)">
<title>G</title>
<polygon fill="white" stroke="white" points="-4,5 -4,-66 457,-66 457,5 -4,5"/>
<!-- Node1 -->
<g id="node1" class="node"><title>Node1</title>
<polygon fill="#bfbfbf" stroke="black" points="0.5,-20.5 0.5,-41.5 193.5,-41.5 193.5,-20.5 0.5,-20.5"/>
<text text-anchor="middle" x="97" y="-28.5" font-family="DejaVuSans" font-size="10.00">StorageCharacter::addDerangement</text>
</g>
<!-- Node2 -->
<g id="node3" class="node"><title>Node2</title>
<a xlink:href="class_storage_character.html#ad57fa3bab4be7871a87f38104f1bef5b" target="_top" xlink:title="StorageCharacter::derangementsChanged">
<polygon fill="white" stroke="black" points="230.5,-40.5 230.5,-61.5 451.5,-61.5 451.5,-40.5 230.5,-40.5"/>
<text text-anchor="middle" x="341" y="-48.5" font-family="DejaVuSans" font-size="10.00">StorageCharacter::derangementsChanged</text>
</a>
</g>
<!-- Node1&#45;&gt;Node2 -->
<g id="edge2" class="edge"><title>Node1&#45;&gt;Node2</title>
<path fill="none" stroke="midnightblue" d="M193.786,-38.9333C202.486,-39.6464 211.365,-40.3742 220.236,-41.1013"/>
<polygon fill="midnightblue" stroke="midnightblue" points="219.985,-44.5924 230.238,-41.9211 220.557,-37.6158 219.985,-44.5924"/>
</g>
<!-- Node3 -->
<g id="node5" class="node"><title>Node3</title>
<a xlink:href="classcv___abstract_trait.html#a3bbbc5a0073617a70c86741d4c918576" target="_top" xlink:title="cv_AbstractTrait::name">
<polygon fill="white" stroke="black" points="278,-0.5 278,-21.5 404,-21.5 404,-0.5 278,-0.5"/>
<text text-anchor="middle" x="341" y="-8.5" font-family="DejaVuSans" font-size="10.00">cv_AbstractTrait::name</text>
</a>
</g>
<!-- Node1&#45;&gt;Node3 -->
<g id="edge4" class="edge"><title>Node1&#45;&gt;Node3</title>
<path fill="none" stroke="midnightblue" d="M193.786,-23.0667C218.357,-21.0527 244.355,-18.9217 267.554,-17.0202"/>
<polygon fill="midnightblue" stroke="midnightblue" points="267.975,-20.4975 277.656,-16.1922 267.403,-13.5209 267.975,-20.4975"/>
</g>
</g>
</svg>
