<?xml version="1.0" encoding="UTF-8" standalone="no"?>
<!DOCTYPE svg PUBLIC "-//W3C//DTD SVG 1.1//EN"
 "http://www.w3.org/Graphics/SVG/1.1/DTD/svg11.dtd">
<!-- Generated by graphviz version 2.26.3 (20100126.1600)
 -->
<!-- Title: G Pages: 1 -->
<svg width="241pt" height="200pt"
 viewBox="0.00 0.00 241.00 200.00" xmlns="http://www.w3.org/2000/svg" xmlns:xlink="http://www.w3.org/1999/xlink">
<g id="graph1" class="graph" transform="scale(1 1) rotate(0) translate(4 196)">
<title>G</title>
<polygon fill="white" stroke="white" points="-4,5 -4,-196 238,-196 238,5 -4,5"/>
<!-- Node1 -->
<g id="node1" class="node"><title>Node1</title>
<polygon fill="#bfbfbf" stroke="black" points="-0.5,-0.5 -0.5,-21.5 222.5,-21.5 222.5,-0.5 -0.5,-0.5"/>
<text text-anchor="middle" x="111" y="-8.5" font-family="DejaVuSans" font-size="10.00">src.Datatypes.SubPowerTrait.SubPowerTrait</text>
</g>
<!-- Node2 -->
<g id="node2" class="node"><title>Node2</title>
<a xlink:href="classsrc_1_1_datatypes_1_1_basic_trait_1_1_basic_trait.html" target="_top" xlink:title="Speichert alle Eigenschaften einer einzigen Charaktereigenschaft.">
<polygon fill="white" stroke="black" points="21.5,-60.5 21.5,-81.5 200.5,-81.5 200.5,-60.5 21.5,-60.5"/>
<text text-anchor="middle" x="111" y="-68.5" font-family="DejaVuSans" font-size="10.00">src.Datatypes.BasicTrait.BasicTrait</text>
</a>
</g>
<!-- Node2&#45;&gt;Node1 -->
<g id="edge2" class="edge"><title>Node2&#45;&gt;Node1</title>
<path fill="none" stroke="midnightblue" d="M111,-50.2312C111,-40.5922 111,-29.5444 111,-21.6339"/>
<polygon fill="midnightblue" stroke="midnightblue" points="107.5,-50.2732 111,-60.2732 114.5,-50.2732 107.5,-50.2732"/>
</g>
<!-- Node3 -->
<g id="node4" class="node"><title>Node3</title>
<polygon fill="white" stroke="#bfbfbf" points="51.5,-170.5 51.5,-191.5 106.5,-191.5 106.5,-170.5 51.5,-170.5"/>
<text text-anchor="middle" x="79" y="-178.5" font-family="DejaVuSans" font-size="10.00">QObject</text>
</g>
<!-- Node3&#45;&gt;Node2 -->
<g id="edge4" class="edge"><title>Node3&#45;&gt;Node2</title>
<path fill="none" stroke="midnightblue" d="M84.9525,-160.538C91.7466,-137.184 102.601,-99.8727 107.894,-81.677"/>
<polygon fill="midnightblue" stroke="midnightblue" points="81.501,-159.873 82.0683,-170.453 88.2223,-161.828 81.501,-159.873"/>
</g>
<!-- Node4 -->
<g id="node6" class="node"><title>Node4</title>
<polygon fill="white" stroke="#bfbfbf" points="123.5,-170.5 123.5,-191.5 164.5,-191.5 164.5,-170.5 123.5,-170.5"/>
<text text-anchor="middle" x="144" y="-178.5" font-family="DejaVuSans" font-size="10.00">tuple</text>
</g>
<!-- Node4&#45;&gt;Node2 -->
<g id="edge6" class="edge"><title>Node4&#45;&gt;Node2</title>
<path fill="none" stroke="#9a32cd" stroke-dasharray="5,2" d="M137.956,-160.854C130.957,-137.522 119.687,-99.955 114.203,-81.677"/>
<polygon fill="#9a32cd" stroke="#9a32cd" points="134.61,-161.88 140.836,-170.453 141.315,-159.869 134.61,-161.88"/>
<text text-anchor="middle" x="184" y="-143" font-family="DejaVuSans" font-size="10.00">traitChanged</text>
<text text-anchor="middle" x="184" y="-130" font-family="DejaVuSans" font-size="10.00">valueChanged</text>
<text text-anchor="middle" x="184" y="-117" font-family="DejaVuSans" font-size="10.00">availableChanged</text>
<text text-anchor="middle" x="184" y="-104" font-family="DejaVuSans" font-size="10.00">customTextChanged</text>
</g>
</g>
</svg>
