<?xml version="1.0" encoding="UTF-8" standalone="no"?>
<!DOCTYPE svg PUBLIC "-//W3C//DTD SVG 1.1//EN"
 "http://www.w3.org/Graphics/SVG/1.1/DTD/svg11.dtd">
<!-- Generated by graphviz version 2.26.3 (20100126.1600)
 -->
<!-- Title: G Pages: 1 -->
<svg width="176pt" height="146pt"
 viewBox="0.00 0.00 176.00 146.00" xmlns="http://www.w3.org/2000/svg" xmlns:xlink="http://www.w3.org/1999/xlink">
<g id="graph1" class="graph" transform="scale(1 1) rotate(0) translate(4 142)">
<title>G</title>
<polygon fill="white" stroke="white" points="-4,5 -4,-142 173,-142 173,5 -4,5"/>
<!-- Node1 -->
<g id="node1" class="node"><title>Node1</title>
<polygon fill="#bfbfbf" stroke="black" points="49,-116.5 49,-137.5 141,-137.5 141,-116.5 49,-116.5"/>
<text text-anchor="middle" x="95" y="-124.5" font-family="DejaVuSans" font-size="10.00">cv_AbstractTrait</text>
</g>
<!-- Node2 -->
<g id="node3" class="node"><title>Node2</title>
<a xlink:href="classcv___derangement.html" target="_top" xlink:title="Datentyp für Geistesstörungen.">
<polygon fill="white" stroke="black" points="-0.5,-58.5 -0.5,-79.5 98.5,-79.5 98.5,-58.5 -0.5,-58.5"/>
<text text-anchor="middle" x="49" y="-66.5" font-family="DejaVuSans" font-size="10.00">cv_Derangement</text>
</a>
</g>
<!-- Node1&#45;&gt;Node2 -->
<g id="edge2" class="edge"><title>Node1&#45;&gt;Node2</title>
<path fill="none" stroke="midnightblue" d="M80.1296,-108.25C72.5948,-98.75 63.724,-87.5651 57.3836,-79.5707"/>
<polygon fill="midnightblue" stroke="midnightblue" points="77.6067,-110.702 86.5629,-116.362 83.0912,-106.352 77.6067,-110.702"/>
</g>
<!-- Node3 -->
<g id="node5" class="node"><title>Node3</title>
<a xlink:href="classcv___trait.html" target="_top" xlink:title="Speichert alle Eigenschaften einer einzigen Charaktereigenschaft.">
<polygon fill="white" stroke="black" points="116,-58.5 116,-79.5 168,-79.5 168,-58.5 116,-58.5"/>
<text text-anchor="middle" x="142" y="-66.5" font-family="DejaVuSans" font-size="10.00">cv_Trait</text>
</a>
</g>
<!-- Node1&#45;&gt;Node3 -->
<g id="edge4" class="edge"><title>Node1&#45;&gt;Node3</title>
<path fill="none" stroke="midnightblue" d="M109.958,-108.541C117.707,-98.9786 126.89,-87.6467 133.434,-79.5707"/>
<polygon fill="midnightblue" stroke="midnightblue" points="107.197,-106.389 103.621,-116.362 112.636,-110.796 107.197,-106.389"/>
</g>
<!-- Node4 -->
<g id="node7" class="node"><title>Node4</title>
<a xlink:href="class_trait.html" target="_top" xlink:title="Speichert alle Eigenschaften einer einzigen Charaktereigenschaft.">
<polygon fill="white" stroke="black" points="124,-0.5 124,-21.5 160,-21.5 160,-0.5 124,-0.5"/>
<text text-anchor="middle" x="142" y="-8.5" font-family="DejaVuSans" font-size="10.00">Trait</text>
</a>
</g>
<!-- Node3&#45;&gt;Node4 -->
<g id="edge6" class="edge"><title>Node3&#45;&gt;Node4</title>
<path fill="none" stroke="midnightblue" d="M142,-48.1906C142,-39.1684 142,-28.9941 142,-21.5707"/>
<polygon fill="midnightblue" stroke="midnightblue" points="138.5,-48.3619 142,-58.3619 145.5,-48.3619 138.5,-48.3619"/>
</g>
</g>
</svg>
