<?xml version="1.0" encoding="UTF-8" standalone="no"?>
<!DOCTYPE svg PUBLIC "-//W3C//DTD SVG 1.1//EN"
 "http://www.w3.org/Graphics/SVG/1.1/DTD/svg11.dtd">
<!-- Generated by graphviz version 2.26.3 (20100126.1600)
 -->
<!-- Title: G Pages: 1 -->
<svg width="468pt" height="346pt"
 viewBox="0.00 0.00 468.00 346.00" xmlns="http://www.w3.org/2000/svg" xmlns:xlink="http://www.w3.org/1999/xlink">
<g id="graph1" class="graph" transform="scale(1 1) rotate(0) translate(4 342)">
<title>G</title>
<polygon fill="white" stroke="white" points="-4,5 -4,-342 465,-342 465,5 -4,5"/>
<!-- Node1 -->
<g id="node1" class="node"><title>Node1</title>
<polygon fill="#bfbfbf" stroke="black" points="0.5,-157.5 0.5,-178.5 119.5,-178.5 119.5,-157.5 0.5,-157.5"/>
<text text-anchor="middle" x="60" y="-165.5" font-family="DejaVuSans" font-size="10.00">cv_AbstractTrait::type</text>
</g>
<!-- Node2 -->
<g id="node3" class="node"><title>Node2</title>
<a xlink:href="class_storage_template.html#a59dec084ce51d53a5a92071883d43b3e" target="_top" xlink:title="StorageTemplate::appendTrait">
<polygon fill="white" stroke="black" points="156,-316.5 156,-337.5 316,-337.5 316,-316.5 156,-316.5"/>
<text text-anchor="middle" x="236" y="-324.5" font-family="DejaVuSans" font-size="10.00">StorageTemplate::appendTrait</text>
</a>
</g>
<!-- Node1&#45;&gt;Node2 -->
<g id="edge2" class="edge"><title>Node1&#45;&gt;Node2</title>
<path fill="none" stroke="midnightblue" d="M68.1405,-187.868C81.6874,-218.367 111.809,-276.398 156,-307 161.532,-310.831 167.729,-313.929 174.161,-316.435"/>
<polygon fill="midnightblue" stroke="midnightblue" points="71.3479,-186.466 64.1854,-178.659 64.9161,-189.229 71.3479,-186.466"/>
</g>
<!-- Node3 -->
<g id="node5" class="node"><title>Node3</title>
<a xlink:href="class_chara_trait.html#a21787eb972b4fc8779368a78f4430f14" target="_top" xlink:title="CharaTrait::CharaTrait">
<polygon fill="white" stroke="black" points="176.5,-276.5 176.5,-297.5 295.5,-297.5 295.5,-276.5 176.5,-276.5"/>
<text text-anchor="middle" x="236" y="-284.5" font-family="DejaVuSans" font-size="10.00">CharaTrait::CharaTrait</text>
</a>
</g>
<!-- Node1&#45;&gt;Node3 -->
<g id="edge4" class="edge"><title>Node1&#45;&gt;Node3</title>
<path fill="none" stroke="midnightblue" d="M73.1353,-186.928C89.7905,-209.466 120.633,-246.614 156,-267 162.574,-270.789 169.855,-273.867 177.268,-276.365"/>
<polygon fill="midnightblue" stroke="midnightblue" points="75.7686,-184.596 67.0843,-178.526 70.0884,-188.686 75.7686,-184.596"/>
</g>
<!-- Node4 -->
<g id="node7" class="node"><title>Node4</title>
<a xlink:href="class_storage_character.html#aabaae6015f75abfc6411f5a388418a3b" target="_top" xlink:title="StorageCharacter::modifyTrait">
<polygon fill="white" stroke="black" points="156,-236.5 156,-257.5 316,-257.5 316,-236.5 156,-236.5"/>
<text text-anchor="middle" x="236" y="-244.5" font-family="DejaVuSans" font-size="10.00">StorageCharacter::modifyTrait</text>
</a>
</g>
<!-- Node1&#45;&gt;Node4 -->
<g id="edge6" class="edge"><title>Node1&#45;&gt;Node4</title>
<path fill="none" stroke="midnightblue" d="M82.4068,-184.521C101.212,-197.694 129.223,-215.741 156,-227 164.842,-230.718 174.536,-233.86 184.029,-236.472"/>
<polygon fill="midnightblue" stroke="midnightblue" points="84.3808,-181.63 74.2063,-178.676 80.3176,-187.33 84.3808,-181.63"/>
</g>
<!-- Node5 -->
<g id="node9" class="node"><title>Node5</title>
<a xlink:href="classcv___trait.html#a8c0d39d14efbcce546fbc6212f6e984b" target="_top" xlink:title="cv_Trait::operator==">
<polygon fill="white" stroke="black" points="178,-196.5 178,-217.5 294,-217.5 294,-196.5 178,-196.5"/>
<text text-anchor="middle" x="236" y="-204.5" font-family="DejaVuSans" font-size="10.00">cv_Trait::operator==</text>
</a>
</g>
<!-- Node1&#45;&gt;Node5 -->
<g id="edge8" class="edge"><title>Node1&#45;&gt;Node5</title>
<path fill="none" stroke="midnightblue" d="M117.567,-180.756C140.472,-185.832 166.514,-191.602 188.334,-196.438"/>
<polygon fill="midnightblue" stroke="midnightblue" points="118.149,-177.3 107.628,-178.554 116.634,-184.135 118.149,-177.3"/>
</g>
<!-- Node6 -->
<g id="node11" class="node"><title>Node6</title>
<a xlink:href="class_check_trait.html#a4d08c3a079c757e4a0351b04228b7398" target="_top" xlink:title="CheckTrait::setType">
<polygon fill="white" stroke="black" points="352.5,-118.5 352.5,-139.5 459.5,-139.5 459.5,-118.5 352.5,-118.5"/>
<text text-anchor="middle" x="406" y="-126.5" font-family="DejaVuSans" font-size="10.00">CheckTrait::setType</text>
</a>
</g>
<!-- Node1&#45;&gt;Node6 -->
<g id="edge10" class="edge"><title>Node1&#45;&gt;Node6</title>
<path fill="none" stroke="midnightblue" d="M129.804,-165.545C181.443,-163.069 253.378,-158.232 316,-149 331.993,-146.642 349.376,-143.032 364.562,-139.524"/>
<polygon fill="midnightblue" stroke="midnightblue" points="129.583,-162.052 119.755,-166.01 129.906,-169.044 129.583,-162.052"/>
</g>
<!-- Node7 -->
<g id="node13" class="node"><title>Node7</title>
<a xlink:href="class_chara_trait.html#aa119a2d69592d27154b05a52dfeb21bd" target="_top" xlink:title="CharaTrait::setType">
<polygon fill="white" stroke="black" points="352.5,-39.5 352.5,-60.5 459.5,-60.5 459.5,-39.5 352.5,-39.5"/>
<text text-anchor="middle" x="406" y="-47.5" font-family="DejaVuSans" font-size="10.00">CharaTrait::setType</text>
</a>
</g>
<!-- Node1&#45;&gt;Node7 -->
<g id="edge12" class="edge"><title>Node1&#45;&gt;Node7</title>
<path fill="none" stroke="midnightblue" d="M72.14,-148.724C88.1422,-125.226 118.682,-86.4922 156,-69 218.47,-39.7187 299.418,-39.4125 352.017,-43.4267"/>
<polygon fill="midnightblue" stroke="midnightblue" points="69.1396,-146.916 66.5541,-157.191 74.9826,-150.771 69.1396,-146.916"/>
</g>
<!-- Node8 -->
<g id="node15" class="node"><title>Node8</title>
<a xlink:href="class_trait.html#a4c8c6f7af3db42f87732862a91329de8" target="_top" xlink:title="Trait::setType">
<polygon fill="white" stroke="black" points="197,-78.5 197,-99.5 275,-99.5 275,-78.5 197,-78.5"/>
<text text-anchor="middle" x="236" y="-86.5" font-family="DejaVuSans" font-size="10.00">Trait::setType</text>
</a>
</g>
<!-- Node1&#45;&gt;Node8 -->
<g id="edge14" class="edge"><title>Node1&#45;&gt;Node8</title>
<path fill="none" stroke="midnightblue" d="M82.4068,-151.479C101.212,-138.306 129.223,-120.259 156,-109 168.933,-103.562 183.688,-99.3565 196.975,-96.2369"/>
<polygon fill="midnightblue" stroke="midnightblue" points="80.3176,-148.67 74.2063,-157.324 84.3808,-154.37 80.3176,-148.67"/>
</g>
<!-- Node9 -->
<g id="node19" class="node"><title>Node9</title>
<a xlink:href="class_check_trait.html#a94ca29d8920490f02a9f4a73ec1f6500" target="_top" xlink:title="CheckTrait::type">
<polygon fill="white" stroke="black" points="190,-118.5 190,-139.5 282,-139.5 282,-118.5 190,-118.5"/>
<text text-anchor="middle" x="236" y="-126.5" font-family="DejaVuSans" font-size="10.00">CheckTrait::type</text>
</a>
</g>
<!-- Node1&#45;&gt;Node9 -->
<g id="edge20" class="edge"><title>Node1&#45;&gt;Node9</title>
<path fill="none" stroke="midnightblue" d="M117.459,-155.268C140.924,-150.068 167.697,-144.135 189.854,-139.225"/>
<polygon fill="midnightblue" stroke="midnightblue" points="116.634,-151.865 107.628,-157.446 118.149,-158.7 116.634,-151.865"/>
</g>
<!-- Node10 -->
<g id="node22" class="node"><title>Node10</title>
<a xlink:href="class_chara_trait.html#a0de44908d1c0bfd7cf0fa3a1158f8132" target="_top" xlink:title="CharaTrait::type">
<polygon fill="white" stroke="black" points="190,-0.5 190,-21.5 282,-21.5 282,-0.5 190,-0.5"/>
<text text-anchor="middle" x="236" y="-8.5" font-family="DejaVuSans" font-size="10.00">CharaTrait::type</text>
</a>
</g>
<!-- Node1&#45;&gt;Node10 -->
<g id="edge24" class="edge"><title>Node1&#45;&gt;Node10</title>
<path fill="none" stroke="midnightblue" d="M69.2346,-148.203C83.6977,-119.326 114.4,-65.8522 156,-36 165.931,-28.8737 177.958,-23.7324 189.636,-20.0407"/>
<polygon fill="midnightblue" stroke="midnightblue" points="66.0306,-146.789 64.8048,-157.313 72.3257,-149.85 66.0306,-146.789"/>
</g>
<!-- Node8&#45;&gt;Node6 -->
<g id="edge16" class="edge"><title>Node8&#45;&gt;Node6</title>
<path fill="none" stroke="midnightblue" d="M284.979,-100.525C309.002,-106.177 337.734,-112.937 361.173,-118.452"/>
<polygon fill="midnightblue" stroke="midnightblue" points="285.537,-97.0603 275.001,-98.1768 283.934,-103.874 285.537,-97.0603"/>
</g>
<!-- Node8&#45;&gt;Node7 -->
<g id="edge18" class="edge"><title>Node8&#45;&gt;Node7</title>
<path fill="none" stroke="midnightblue" d="M284.822,-77.7996C308.458,-72.3774 336.681,-65.9026 359.941,-60.5664"/>
<polygon fill="midnightblue" stroke="midnightblue" points="283.966,-74.4051 275.001,-80.0526 285.531,-81.2279 283.966,-74.4051"/>
</g>
<!-- Node9&#45;&gt;Node6 -->
<g id="edge22" class="edge"><title>Node9&#45;&gt;Node6</title>
<path fill="none" stroke="midnightblue" d="M292.211,-129C311.6,-129 333.255,-129 352.427,-129"/>
<polygon fill="midnightblue" stroke="midnightblue" points="292.004,-125.5 282.004,-129 292.004,-132.5 292.004,-125.5"/>
</g>
<!-- Node10&#45;&gt;Node7 -->
<g id="edge26" class="edge"><title>Node10&#45;&gt;Node7</title>
<path fill="none" stroke="midnightblue" d="M291.902,-23.8246C313.954,-28.8835 338.977,-34.6241 359.959,-39.4376"/>
<polygon fill="midnightblue" stroke="midnightblue" points="292.534,-20.3787 282.004,-21.554 290.969,-27.2015 292.534,-20.3787"/>
</g>
</g>
</svg>
