<?xml version="1.0" encoding="UTF-8" standalone="no"?>
<!DOCTYPE svg PUBLIC "-//W3C//DTD SVG 1.1//EN"
 "http://www.w3.org/Graphics/SVG/1.1/DTD/svg11.dtd">
<!-- Generated by graphviz version 2.26.3 (20100126.1600)
 -->
<!-- Title: G Pages: 1 -->
<svg width="598pt" height="108pt"
 viewBox="0.00 0.00 598.00 108.00" xmlns="http://www.w3.org/2000/svg" xmlns:xlink="http://www.w3.org/1999/xlink">
<g id="graph1" class="graph" transform="scale(1 1) rotate(0) translate(4 104)">
<title>G</title>
<polygon fill="white" stroke="white" points="-4,5 -4,-104 595,-104 595,5 -4,5"/>
<!-- Node1 -->
<g id="node1" class="node"><title>Node1</title>
<polygon fill="#bfbfbf" stroke="black" points="0.5,-39.5 0.5,-60.5 161.5,-60.5 161.5,-39.5 0.5,-39.5"/>
<text text-anchor="middle" x="81" y="-47.5" font-family="DejaVuSans" font-size="10.00">StorageCharacter::addIdentity</text>
</g>
<!-- Node2 -->
<g id="node3" class="node"><title>Node2</title>
<a xlink:href="class_storage_character.html#abb7991be121ab6479a23a293841ef01e" target="_top" xlink:title="StorageCharacter::identities">
<polygon fill="white" stroke="black" points="207,-78.5 207,-99.5 359,-99.5 359,-78.5 207,-78.5"/>
<text text-anchor="middle" x="283" y="-86.5" font-family="DejaVuSans" font-size="10.00">StorageCharacter::identities</text>
</a>
</g>
<!-- Node1&#45;&gt;Node2 -->
<g id="edge2" class="edge"><title>Node1&#45;&gt;Node2</title>
<path fill="none" stroke="midnightblue" d="M135.398,-60.5026C160.991,-65.4439 191.698,-71.3724 218.46,-76.5393"/>
<polygon fill="midnightblue" stroke="midnightblue" points="218.023,-80.0194 228.505,-78.4787 219.35,-73.1464 218.023,-80.0194"/>
</g>
<!-- Node3 -->
<g id="node5" class="node"><title>Node3</title>
<a xlink:href="class_storage_character.html#a282378ee75212c889f7b9d2923472834" target="_top" xlink:title="StorageCharacter::identityChanged">
<polygon fill="white" stroke="black" points="404,-19.5 404,-40.5 590,-40.5 590,-19.5 404,-19.5"/>
<text text-anchor="middle" x="497" y="-27.5" font-family="DejaVuSans" font-size="10.00">StorageCharacter::identityChanged</text>
</a>
</g>
<!-- Node1&#45;&gt;Node3 -->
<g id="edge4" class="edge"><title>Node1&#45;&gt;Node3</title>
<path fill="none" stroke="midnightblue" d="M161.702,-46.1201C227.8,-42.9423 321.763,-38.4248 393.411,-34.9802"/>
<polygon fill="midnightblue" stroke="midnightblue" points="393.994,-38.4564 403.814,-34.4801 393.657,-31.4644 393.994,-38.4564"/>
</g>
<!-- Node4 -->
<g id="node7" class="node"><title>Node4</title>
<a xlink:href="class_storage_character.html#a802f3481674acdc5cb0a8623de21e919" target="_top" xlink:title="StorageCharacter::insertIdentity">
<polygon fill="white" stroke="black" points="198,-0.5 198,-21.5 368,-21.5 368,-0.5 198,-0.5"/>
<text text-anchor="middle" x="283" y="-8.5" font-family="DejaVuSans" font-size="10.00">StorageCharacter::insertIdentity</text>
</a>
</g>
<!-- Node1&#45;&gt;Node4 -->
<g id="edge6" class="edge"><title>Node1&#45;&gt;Node4</title>
<path fill="none" stroke="midnightblue" d="M135.398,-39.4974C160.991,-34.5561 191.698,-28.6276 218.46,-23.4607"/>
<polygon fill="midnightblue" stroke="midnightblue" points="219.35,-26.8536 228.505,-21.5213 218.023,-19.9806 219.35,-26.8536"/>
</g>
<!-- Node4&#45;&gt;Node3 -->
<g id="edge8" class="edge"><title>Node4&#45;&gt;Node3</title>
<path fill="none" stroke="midnightblue" d="M368.193,-18.5639C376.571,-19.3077 385.135,-20.068 393.668,-20.8256"/>
<polygon fill="midnightblue" stroke="midnightblue" points="393.387,-24.3144 403.657,-21.7125 394.006,-17.3418 393.387,-24.3144"/>
</g>
</g>
</svg>
