<?xml version="1.0" encoding="UTF-8" standalone="no"?>
<!DOCTYPE svg PUBLIC "-//W3C//DTD SVG 1.1//EN"
 "http://www.w3.org/Graphics/SVG/1.1/DTD/svg11.dtd">
<!-- Generated by graphviz version 2.26.3 (20100126.1600)
 -->
<!-- Title: G Pages: 1 -->
<svg width="342pt" height="102pt"
 viewBox="0.00 0.00 342.00 102.00" xmlns="http://www.w3.org/2000/svg" xmlns:xlink="http://www.w3.org/1999/xlink">
<g id="graph1" class="graph" transform="scale(1 1) rotate(0) translate(4 98)">
<title>G</title>
<polygon fill="white" stroke="white" points="-4,5 -4,-98 339,-98 339,5 -4,5"/>
<!-- Node1 -->
<g id="node1" class="node"><title>Node1</title>
<polygon fill="#bfbfbf" stroke="black" points="0,-0.5 0,-21.5 334,-21.5 334,-0.5 0,-0.5"/>
<text text-anchor="middle" x="167" y="-8.5" font-family="DejaVuSans" font-size="10.00">src.Widgets.Components.DefocusableTextEdit.DefocusableTextEdit</text>
</g>
<!-- Node2 -->
<g id="node2" class="node"><title>Node2</title>
<polygon fill="white" stroke="#bfbfbf" points="86.5,-72.5 86.5,-93.5 169.5,-93.5 169.5,-72.5 86.5,-72.5"/>
<text text-anchor="middle" x="128" y="-80.5" font-family="DejaVuSans" font-size="10.00">QPlainTextEdit</text>
</g>
<!-- Node2&#45;&gt;Node1 -->
<g id="edge2" class="edge"><title>Node2&#45;&gt;Node1</title>
<path fill="none" stroke="midnightblue" d="M138.606,-63.4193C145.889,-49.9734 155.279,-32.6384 161.222,-21.6674"/>
<polygon fill="midnightblue" stroke="midnightblue" points="135.44,-61.9162 133.755,-72.3762 141.595,-65.2502 135.44,-61.9162"/>
</g>
<!-- Node3 -->
<g id="node4" class="node"><title>Node3</title>
<polygon fill="white" stroke="#bfbfbf" points="186.5,-72.5 186.5,-93.5 227.5,-93.5 227.5,-72.5 186.5,-72.5"/>
<text text-anchor="middle" x="207" y="-80.5" font-family="DejaVuSans" font-size="10.00">tuple</text>
</g>
<!-- Node3&#45;&gt;Node1 -->
<g id="edge4" class="edge"><title>Node3&#45;&gt;Node1</title>
<path fill="none" stroke="#9a32cd" stroke-dasharray="5,2" d="M196.122,-63.4193C188.652,-49.9734 179.021,-32.6384 172.926,-21.6674"/>
<polygon fill="#9a32cd" stroke="#9a32cd" points="193.182,-65.3343 201.098,-72.3762 199.301,-61.9348 193.182,-65.3343"/>
<text text-anchor="middle" x="213" y="-44.5" font-family="DejaVuSans" font-size="10.00">focusLost</text>
</g>
</g>
</svg>
