<?xml version="1.0" encoding="UTF-8" standalone="no"?>
<!DOCTYPE svg PUBLIC "-//W3C//DTD SVG 1.1//EN"
 "http://www.w3.org/Graphics/SVG/1.1/DTD/svg11.dtd">
<!-- Generated by graphviz version 2.26.3 (20100126.1600)
 -->
<!-- Title: G Pages: 1 -->
<svg width="652pt" height="70pt"
 viewBox="0.00 0.00 652.00 70.00" xmlns="http://www.w3.org/2000/svg" xmlns:xlink="http://www.w3.org/1999/xlink">
<g id="graph1" class="graph" transform="scale(1 1) rotate(0) translate(4 66)">
<title>G</title>
<polygon fill="white" stroke="white" points="-4,5 -4,-66 649,-66 649,5 -4,5"/>
<!-- Node1 -->
<g id="node1" class="node"><title>Node1</title>
<polygon fill="#bfbfbf" stroke="black" points="0.5,-20.5 0.5,-41.5 181.5,-41.5 181.5,-20.5 0.5,-20.5"/>
<text text-anchor="middle" x="91" y="-28.5" font-family="DejaVuSans" font-size="10.00">ExceptionMessageBox::formatText</text>
</g>
<!-- Node2 -->
<g id="node3" class="node"><title>Node2</title>
<a xlink:href="class_exception_message_box.html#a51bf62d6ab50c13d39a08708308e27fd" target="_top" xlink:title="ExceptionMessageBox::formatDescription">
<polygon fill="white" stroke="black" points="218,-40.5 218,-61.5 434,-61.5 434,-40.5 218,-40.5"/>
<text text-anchor="middle" x="326" y="-48.5" font-family="DejaVuSans" font-size="10.00">ExceptionMessageBox::formatDescription</text>
</a>
</g>
<!-- Node1&#45;&gt;Node2 -->
<g id="edge2" class="edge"><title>Node1&#45;&gt;Node2</title>
<path fill="none" stroke="midnightblue" d="M181.521,-38.7039C190.164,-39.4395 199.012,-40.1925 207.866,-40.946"/>
<polygon fill="midnightblue" stroke="midnightblue" points="207.592,-44.4353 217.853,-41.796 208.186,-37.4605 207.592,-44.4353"/>
</g>
<!-- Node3 -->
<g id="node5" class="node"><title>Node3</title>
<a xlink:href="class_exception_message_box.html#a6775e42f736db0b3f01cdd887acbc350" target="_top" xlink:title="ExceptionMessageBox::formatMessage">
<polygon fill="white" stroke="black" points="223.5,-0.5 223.5,-21.5 428.5,-21.5 428.5,-0.5 223.5,-0.5"/>
<text text-anchor="middle" x="326" y="-8.5" font-family="DejaVuSans" font-size="10.00">ExceptionMessageBox::formatMessage</text>
</a>
</g>
<!-- Node1&#45;&gt;Node3 -->
<g id="edge4" class="edge"><title>Node1&#45;&gt;Node3</title>
<path fill="none" stroke="midnightblue" d="M181.521,-23.2961C191.907,-22.4122 202.591,-21.5029 213.223,-20.5981"/>
<polygon fill="midnightblue" stroke="midnightblue" points="213.722,-24.0683 223.389,-19.7329 213.128,-17.0936 213.722,-24.0683"/>
</g>
<!-- Node4 -->
<g id="node7" class="node"><title>Node4</title>
<a xlink:href="class_config.html#a1d20df2d98bd5320b1c8a8d3ce68f8d6" target="_top" xlink:title="Config::importantTextColorName">
<polygon fill="white" stroke="black" points="470.5,-0.5 470.5,-21.5 643.5,-21.5 643.5,-0.5 470.5,-0.5"/>
<text text-anchor="middle" x="557" y="-8.5" font-family="DejaVuSans" font-size="10.00">Config::importantTextColorName</text>
</a>
</g>
<!-- Node3&#45;&gt;Node4 -->
<g id="edge6" class="edge"><title>Node3&#45;&gt;Node4</title>
<path fill="none" stroke="midnightblue" d="M428.665,-11C439.058,-11 449.591,-11 459.923,-11"/>
<polygon fill="midnightblue" stroke="midnightblue" points="460.174,-14.5001 470.174,-11 460.174,-7.5001 460.174,-14.5001"/>
</g>
</g>
</svg>
