<?xml version="1.0" encoding="UTF-8" standalone="no"?>
<!DOCTYPE svg PUBLIC "-//W3C//DTD SVG 1.1//EN"
 "http://www.w3.org/Graphics/SVG/1.1/DTD/svg11.dtd">
<!-- Generated by graphviz version 2.26.3 (20100126.1600)
 -->
<!-- Title: G Pages: 1 -->
<svg width="1440pt" height="123pt"
 viewBox="0.00 0.00 1440.00 123.17" xmlns="http://www.w3.org/2000/svg" xmlns:xlink="http://www.w3.org/1999/xlink">
<g id="graph1" class="graph" transform="scale(1 1) rotate(0) translate(4 119.173)">
<title>G</title>
<polygon fill="white" stroke="white" points="-4,5 -4,-119.173 1437,-119.173 1437,5 -4,5"/>
<!-- Node1 -->
<g id="node1" class="node"><title>Node1</title>
<polygon fill="#bfbfbf" stroke="black" points="0,-58.5 0,-79.5 194,-79.5 194,-58.5 0,-58.5"/>
<text text-anchor="middle" x="97" y="-66.5" font-family="DejaVuSans" font-size="10.00">ReadTemplate::readUnknownElement</text>
</g>
<!-- Node2 -->
<g id="node3" class="node"><title>Node2</title>
<a xlink:href="class_read_template.html#afadaf1be1c19f9a70a4894a246386ee9" target="_top" xlink:title="ReadTemplate::readSoulCreator">
<polygon fill="white" stroke="black" points="424,-88.5 424,-109.5 592,-109.5 592,-88.5 424,-88.5"/>
<text text-anchor="middle" x="508" y="-96.5" font-family="DejaVuSans" font-size="10.00">ReadTemplate::readSoulCreator</text>
</a>
</g>
<!-- Node1&#45;&gt;Node2 -->
<g id="edge2" class="edge"><title>Node1&#45;&gt;Node2</title>
<path fill="none" stroke="midnightblue" d="M133.297,-83.0594C159.672,-92.4947 196.473,-104.067 230,-109 296.296,-118.754 372.392,-114.997 428.19,-109.51"/>
<polygon fill="midnightblue" stroke="midnightblue" points="134.322,-79.7075 123.728,-79.5662 131.921,-86.2831 134.322,-79.7075"/>
</g>
<!-- Node8 -->
<g id="node15" class="node"><title>Node8</title>
<a xlink:href="class_read_template.html#ad079297b59fa808daac606ad797ac980" target="_top" xlink:title="ReadTemplate::readTraits">
<polygon fill="white" stroke="black" points="440,-29.5 440,-50.5 576,-50.5 576,-29.5 440,-29.5"/>
<text text-anchor="middle" x="508" y="-37.5" font-family="DejaVuSans" font-size="10.00">ReadTemplate::readTraits</text>
</a>
</g>
<!-- Node1&#45;&gt;Node8 -->
<g id="edge14" class="edge"><title>Node1&#45;&gt;Node8</title>
<path fill="none" stroke="midnightblue" d="M204.489,-61.4156C278.919,-56.1639 375.748,-49.3316 439.791,-44.8128"/>
<polygon fill="midnightblue" stroke="midnightblue" points="203.87,-57.9505 194.141,-62.1458 204.363,-64.9332 203.87,-57.9505"/>
</g>
<!-- Node9 -->
<g id="node17" class="node"><title>Node9</title>
<a xlink:href="class_read_template.html#a5984eef9690e258cc42d09206ad0477f" target="_top" xlink:title="ReadTemplate::readTree">
<polygon fill="white" stroke="black" points="243.5,-78.5 243.5,-99.5 374.5,-99.5 374.5,-78.5 243.5,-78.5"/>
<text text-anchor="middle" x="309" y="-86.5" font-family="DejaVuSans" font-size="10.00">ReadTemplate::readTree</text>
</a>
</g>
<!-- Node1&#45;&gt;Node9 -->
<g id="edge16" class="edge"><title>Node1&#45;&gt;Node9</title>
<path fill="none" stroke="midnightblue" d="M204.192,-79.1125C217.527,-80.3705 230.837,-81.6261 243.277,-82.7997"/>
<polygon fill="midnightblue" stroke="midnightblue" points="204.288,-75.6061 194.004,-78.1513 203.631,-82.5751 204.288,-75.6061"/>
</g>
<!-- Node10 -->
<g id="node20" class="node"><title>Node10</title>
<a xlink:href="class_read_template.html#ac35b7e479a713187f491bbc01b95c69f" target="_top" xlink:title="ReadTemplate::storeTraitData">
<polygon fill="white" stroke="black" points="230.5,-0.5 230.5,-21.5 387.5,-21.5 387.5,-0.5 230.5,-0.5"/>
<text text-anchor="middle" x="309" y="-8.5" font-family="DejaVuSans" font-size="10.00">ReadTemplate::storeTraitData</text>
</a>
</g>
<!-- Node1&#45;&gt;Node10 -->
<g id="edge20" class="edge"><title>Node1&#45;&gt;Node10</title>
<path fill="none" stroke="midnightblue" d="M145.203,-55.8123C183.158,-45.4285 235.353,-31.1487 270.536,-21.5231"/>
<polygon fill="midnightblue" stroke="midnightblue" points="144.114,-52.4818 135.392,-58.4966 145.961,-59.2336 144.114,-52.4818"/>
</g>
<!-- Node3 -->
<g id="node5" class="node"><title>Node3</title>
<a xlink:href="class_read_template.html#ad7023d8c02891c892ea33808363bbcd2" target="_top" xlink:title="ReadTemplate::readXml">
<polygon fill="white" stroke="black" points="628.5,-88.5 628.5,-109.5 757.5,-109.5 757.5,-88.5 628.5,-88.5"/>
<text text-anchor="middle" x="693" y="-96.5" font-family="DejaVuSans" font-size="10.00">ReadTemplate::readXml</text>
</a>
</g>
<!-- Node2&#45;&gt;Node3 -->
<g id="edge4" class="edge"><title>Node2&#45;&gt;Node3</title>
<path fill="none" stroke="midnightblue" d="M602.158,-99C611.066,-99 619.954,-99 628.491,-99"/>
<polygon fill="midnightblue" stroke="midnightblue" points="602.109,-95.5001 592.109,-99 602.109,-102.5 602.109,-95.5001"/>
</g>
<!-- Node4 -->
<g id="node7" class="node"><title>Node4</title>
<a xlink:href="class_read_template.html#a229f7cd3bfc1d0c47caa2cec3a5a0621" target="_top" xlink:title="ReadTemplate::process">
<polygon fill="white" stroke="black" points="794.5,-88.5 794.5,-109.5 921.5,-109.5 921.5,-88.5 794.5,-88.5"/>
<text text-anchor="middle" x="858" y="-96.5" font-family="DejaVuSans" font-size="10.00">ReadTemplate::process</text>
</a>
</g>
<!-- Node3&#45;&gt;Node4 -->
<g id="edge6" class="edge"><title>Node3&#45;&gt;Node4</title>
<path fill="none" stroke="midnightblue" d="M767.971,-99C776.753,-99 785.65,-99 794.259,-99"/>
<polygon fill="midnightblue" stroke="midnightblue" points="767.739,-95.5001 757.739,-99 767.739,-102.5 767.739,-95.5001"/>
</g>
<!-- Node5 -->
<g id="node9" class="node"><title>Node5</title>
<a xlink:href="class_read_template.html#a3eb0cc39155f082c8c1d71521431e9f4" target="_top" xlink:title="ReadTemplate::read">
<polygon fill="white" stroke="black" points="958.5,-88.5 958.5,-109.5 1069.5,-109.5 1069.5,-88.5 958.5,-88.5"/>
<text text-anchor="middle" x="1014" y="-96.5" font-family="DejaVuSans" font-size="10.00">ReadTemplate::read</text>
</a>
</g>
<!-- Node4&#45;&gt;Node5 -->
<g id="edge8" class="edge"><title>Node4&#45;&gt;Node5</title>
<path fill="none" stroke="midnightblue" d="M931.921,-99C940.845,-99 949.84,-99 958.437,-99"/>
<polygon fill="midnightblue" stroke="midnightblue" points="931.901,-95.5001 921.901,-99 931.901,-102.5 931.901,-95.5001"/>
</g>
<!-- Node6 -->
<g id="node11" class="node"><title>Node6</title>
<a xlink:href="class_main_window.html#a1ebe4d2e06ddd16007a29bd1b8c09c49" target="_top" xlink:title="MainWindow::storeTemplateData">
<polygon fill="white" stroke="black" points="1106.5,-88.5 1106.5,-109.5 1277.5,-109.5 1277.5,-88.5 1106.5,-88.5"/>
<text text-anchor="middle" x="1192" y="-96.5" font-family="DejaVuSans" font-size="10.00">MainWindow::storeTemplateData</text>
</a>
</g>
<!-- Node5&#45;&gt;Node6 -->
<g id="edge10" class="edge"><title>Node5&#45;&gt;Node6</title>
<path fill="none" stroke="midnightblue" d="M1080.11,-99C1088.68,-99 1097.55,-99 1106.37,-99"/>
<polygon fill="midnightblue" stroke="midnightblue" points="1079.83,-95.5001 1069.83,-99 1079.83,-102.5 1079.83,-95.5001"/>
</g>
<!-- Node7 -->
<g id="node13" class="node"><title>Node7</title>
<a xlink:href="class_main_window.html#a43f05c4d3f5d840d070829d3291c9ec7" target="_top" xlink:title="MainWindow::initialize">
<polygon fill="white" stroke="black" points="1314,-88.5 1314,-109.5 1432,-109.5 1432,-88.5 1314,-88.5"/>
<text text-anchor="middle" x="1373" y="-96.5" font-family="DejaVuSans" font-size="10.00">MainWindow::initialize</text>
</a>
</g>
<!-- Node6&#45;&gt;Node7 -->
<g id="edge12" class="edge"><title>Node6&#45;&gt;Node7</title>
<path fill="none" stroke="midnightblue" d="M1287.78,-99C1296.67,-99 1305.5,-99 1313.91,-99"/>
<polygon fill="midnightblue" stroke="midnightblue" points="1287.73,-95.5001 1277.73,-99 1287.73,-102.5 1287.73,-95.5001"/>
</g>
<!-- Node9&#45;&gt;Node2 -->
<g id="edge18" class="edge"><title>Node9&#45;&gt;Node2</title>
<path fill="none" stroke="midnightblue" d="M384.823,-92.8102C397.601,-93.4523 410.932,-94.1222 423.905,-94.7741"/>
<polygon fill="midnightblue" stroke="midnightblue" points="384.875,-89.3085 374.712,-92.3021 384.523,-96.2997 384.875,-89.3085"/>
</g>
<!-- Node10&#45;&gt;Node8 -->
<g id="edge22" class="edge"><title>Node10&#45;&gt;Node8</title>
<path fill="none" stroke="midnightblue" d="M391.104,-22.9648C407.287,-25.3232 424.104,-27.774 439.77,-30.0569"/>
<polygon fill="midnightblue" stroke="midnightblue" points="391.525,-19.4894 381.125,-21.5107 390.516,-26.4162 391.525,-19.4894"/>
</g>
</g>
</svg>
