<?xml version="1.0" encoding="UTF-8" standalone="no"?>
<!DOCTYPE svg PUBLIC "-//W3C//DTD SVG 1.1//EN"
 "http://www.w3.org/Graphics/SVG/1.1/DTD/svg11.dtd">
<!-- Generated by graphviz version 2.26.3 (20100126.1600)
 -->
<!-- Title: G Pages: 1 -->
<svg width="219pt" height="140pt"
 viewBox="0.00 0.00 219.00 140.00" xmlns="http://www.w3.org/2000/svg" xmlns:xlink="http://www.w3.org/1999/xlink">
<g id="graph1" class="graph" transform="scale(1 1) rotate(0) translate(4 136)">
<title>G</title>
<polygon fill="white" stroke="white" points="-4,5 -4,-136 216,-136 216,5 -4,5"/>
<!-- Node1 -->
<g id="node1" class="node"><title>Node1</title>
<polygon fill="#bfbfbf" stroke="black" points="-0.5,-0.5 -0.5,-21.5 178.5,-21.5 178.5,-0.5 -0.5,-0.5"/>
<text text-anchor="middle" x="89" y="-8.5" font-family="DejaVuSans" font-size="10.00">src.Datatypes.BasicTrait.BasicTrait</text>
</g>
<!-- Node2 -->
<g id="node2" class="node"><title>Node2</title>
<polygon fill="white" stroke="#bfbfbf" points="29.5,-110.5 29.5,-131.5 84.5,-131.5 84.5,-110.5 29.5,-110.5"/>
<text text-anchor="middle" x="57" y="-118.5" font-family="DejaVuSans" font-size="10.00">QObject</text>
</g>
<!-- Node2&#45;&gt;Node1 -->
<g id="edge2" class="edge"><title>Node2&#45;&gt;Node1</title>
<path fill="none" stroke="midnightblue" d="M62.9525,-100.538C69.7466,-77.1836 80.6007,-39.8727 85.894,-21.677"/>
<polygon fill="midnightblue" stroke="midnightblue" points="59.501,-99.8731 60.0683,-110.453 66.2223,-101.828 59.501,-99.8731"/>
</g>
<!-- Node3 -->
<g id="node4" class="node"><title>Node3</title>
<polygon fill="white" stroke="#bfbfbf" points="101.5,-110.5 101.5,-131.5 142.5,-131.5 142.5,-110.5 101.5,-110.5"/>
<text text-anchor="middle" x="122" y="-118.5" font-family="DejaVuSans" font-size="10.00">tuple</text>
</g>
<!-- Node3&#45;&gt;Node1 -->
<g id="edge4" class="edge"><title>Node3&#45;&gt;Node1</title>
<path fill="none" stroke="#9a32cd" stroke-dasharray="5,2" d="M115.956,-100.854C108.957,-77.5217 97.6865,-39.955 92.2031,-21.677"/>
<polygon fill="#9a32cd" stroke="#9a32cd" points="112.61,-101.88 118.836,-110.453 119.315,-99.8687 112.61,-101.88"/>
<text text-anchor="middle" x="162" y="-83" font-family="DejaVuSans" font-size="10.00">traitChanged</text>
<text text-anchor="middle" x="162" y="-70" font-family="DejaVuSans" font-size="10.00">valueChanged</text>
<text text-anchor="middle" x="162" y="-57" font-family="DejaVuSans" font-size="10.00">availableChanged</text>
<text text-anchor="middle" x="162" y="-44" font-family="DejaVuSans" font-size="10.00">customTextChanged</text>
</g>
</g>
</svg>
