<?xml version="1.0" encoding="UTF-8" standalone="no"?>
<!DOCTYPE svg PUBLIC "-//W3C//DTD SVG 1.1//EN"
 "http://www.w3.org/Graphics/SVG/1.1/DTD/svg11.dtd">
<!-- Generated by graphviz version 2.26.3 (20100126.1600)
 -->
<!-- Title: G Pages: 1 -->
<svg width="656pt" height="270pt"
 viewBox="0.00 0.00 656.00 270.00" xmlns="http://www.w3.org/2000/svg" xmlns:xlink="http://www.w3.org/1999/xlink">
<g id="graph1" class="graph" transform="scale(1 1) rotate(0) translate(4 266)">
<title>G</title>
<polygon fill="white" stroke="white" points="-4,5 -4,-266 653,-266 653,5 -4,5"/>
<!-- Node1 -->
<g id="node1" class="node"><title>Node1</title>
<polygon fill="#bfbfbf" stroke="black" points="0,-120.5 0,-141.5 128,-141.5 128,-120.5 0,-120.5"/>
<text text-anchor="middle" x="64" y="-128.5" font-family="DejaVuSans" font-size="10.00">FlawWidget::FlawWidget</text>
</g>
<!-- Node2 -->
<g id="node3" class="node"><title>Node2</title>
<a xlink:href="class_storage_character.html#a96062a11fe91e1d9826470412fc64449" target="_top" xlink:title="StorageCharacter::addTrait">
<polygon fill="white" stroke="black" points="178,-240.5 178,-261.5 324,-261.5 324,-240.5 178,-240.5"/>
<text text-anchor="middle" x="251" y="-248.5" font-family="DejaVuSans" font-size="10.00">StorageCharacter::addTrait</text>
</a>
</g>
<!-- Node1&#45;&gt;Node2 -->
<g id="edge2" class="edge"><title>Node1&#45;&gt;Node2</title>
<path fill="none" stroke="midnightblue" d="M71.4229,-141.695C86.388,-162.396 122.33,-207.927 164,-231 167.998,-233.213 172.228,-235.182 176.586,-236.934"/>
<polygon fill="midnightblue" stroke="midnightblue" points="175.691,-240.332 186.285,-240.431 178.065,-233.746 175.691,-240.332"/>
</g>
<!-- Node3 -->
<g id="node5" class="node"><title>Node3</title>
<a xlink:href="class_exception.html#a7cb124af6ec64ad88a8721b60c7932fb" target="_top" xlink:title="Exception::description">
<polygon fill="white" stroke="black" points="190,-200.5 190,-221.5 312,-221.5 312,-200.5 190,-200.5"/>
<text text-anchor="middle" x="251" y="-208.5" font-family="DejaVuSans" font-size="10.00">Exception::description</text>
</a>
</g>
<!-- Node1&#45;&gt;Node3 -->
<g id="edge4" class="edge"><title>Node1&#45;&gt;Node3</title>
<path fill="none" stroke="midnightblue" d="M78.4745,-141.702C97.2668,-155.107 131.514,-177.904 164,-191 170.181,-193.492 176.74,-195.71 183.376,-197.678"/>
<polygon fill="midnightblue" stroke="midnightblue" points="182.546,-201.08 193.118,-200.383 184.419,-194.335 182.546,-201.08"/>
</g>
<!-- Node4 -->
<g id="node7" class="node"><title>Node4</title>
<a xlink:href="classcv___abstract_trait.html#a2c71206d61498c443d25cab1051a546f" target="_top" xlink:title="cv_AbstractTrait::getCategoryList">
<polygon fill="white" stroke="black" points="164,-160.5 164,-181.5 338,-181.5 338,-160.5 164,-160.5"/>
<text text-anchor="middle" x="251" y="-168.5" font-family="DejaVuSans" font-size="10.00">cv_AbstractTrait::getCategoryList</text>
</a>
</g>
<!-- Node1&#45;&gt;Node4 -->
<g id="edge6" class="edge"><title>Node1&#45;&gt;Node4</title>
<path fill="none" stroke="midnightblue" d="M113.132,-141.51C137.302,-146.679 166.62,-152.951 191.996,-158.379"/>
<polygon fill="midnightblue" stroke="midnightblue" points="191.361,-161.822 201.872,-160.491 192.825,-154.977 191.361,-161.822"/>
</g>
<!-- Node5 -->
<g id="node9" class="node"><title>Node5</title>
<a xlink:href="class_exception.html#aeaf3a81717287d50938bc72ed67bacd8" target="_top" xlink:title="Exception::message">
<polygon fill="white" stroke="black" points="194.5,-120.5 194.5,-141.5 307.5,-141.5 307.5,-120.5 194.5,-120.5"/>
<text text-anchor="middle" x="251" y="-128.5" font-family="DejaVuSans" font-size="10.00">Exception::message</text>
</a>
</g>
<!-- Node1&#45;&gt;Node5 -->
<g id="edge8" class="edge"><title>Node1&#45;&gt;Node5</title>
<path fill="none" stroke="midnightblue" d="M128.093,-131C146.292,-131 166.145,-131 184.483,-131"/>
<polygon fill="midnightblue" stroke="midnightblue" points="184.496,-134.5 194.495,-131 184.495,-127.5 184.496,-134.5"/>
</g>
<!-- Node6 -->
<g id="node11" class="node"><title>Node6</title>
<a xlink:href="class_check_trait.html#a9073e7f8bbac8c351bf829b23a9fc850" target="_top" xlink:title="CheckTrait::setValue">
<polygon fill="white" stroke="black" points="194.5,-80.5 194.5,-101.5 307.5,-101.5 307.5,-80.5 194.5,-80.5"/>
<text text-anchor="middle" x="251" y="-88.5" font-family="DejaVuSans" font-size="10.00">CheckTrait::setValue</text>
</a>
</g>
<!-- Node1&#45;&gt;Node6 -->
<g id="edge10" class="edge"><title>Node1&#45;&gt;Node6</title>
<path fill="none" stroke="midnightblue" d="M113.132,-120.49C137.302,-115.321 166.62,-109.049 191.996,-103.621"/>
<polygon fill="midnightblue" stroke="midnightblue" points="192.825,-107.023 201.872,-101.509 191.361,-100.178 192.825,-107.023"/>
</g>
<!-- Node10 -->
<g id="node20" class="node"><title>Node10</title>
<a xlink:href="classcv___abstract_trait.html#add050d72e281131d1591bbf24e87bb15" target="_top" xlink:title="cv_AbstractTrait::toString">
<polygon fill="white" stroke="black" points="182.5,-40.5 182.5,-61.5 319.5,-61.5 319.5,-40.5 182.5,-40.5"/>
<text text-anchor="middle" x="251" y="-48.5" font-family="DejaVuSans" font-size="10.00">cv_AbstractTrait::toString</text>
</a>
</g>
<!-- Node1&#45;&gt;Node10 -->
<g id="edge20" class="edge"><title>Node1&#45;&gt;Node10</title>
<path fill="none" stroke="midnightblue" d="M78.4745,-120.298C97.2668,-106.893 131.514,-84.0956 164,-71 170.181,-68.5084 176.74,-66.2895 183.376,-64.3221"/>
<polygon fill="midnightblue" stroke="midnightblue" points="184.419,-67.665 193.118,-61.617 182.546,-60.9202 184.419,-67.665"/>
</g>
<!-- Node11 -->
<g id="node22" class="node"><title>Node11</title>
<a xlink:href="class_storage_template.html#adee5213746a1f99f82f6229a7061d360" target="_top" xlink:title="StorageTemplate::traits">
<polygon fill="white" stroke="black" points="186.5,-0.5 186.5,-21.5 315.5,-21.5 315.5,-0.5 186.5,-0.5"/>
<text text-anchor="middle" x="251" y="-8.5" font-family="DejaVuSans" font-size="10.00">StorageTemplate::traits</text>
</a>
</g>
<!-- Node1&#45;&gt;Node11 -->
<g id="edge22" class="edge"><title>Node1&#45;&gt;Node11</title>
<path fill="none" stroke="midnightblue" d="M71.4229,-120.305C86.388,-99.6038 122.33,-54.0728 164,-31 167.998,-28.7865 172.228,-26.8176 176.586,-25.0663"/>
<polygon fill="midnightblue" stroke="midnightblue" points="178.065,-28.2536 186.285,-21.5694 175.691,-21.6685 178.065,-28.2536"/>
</g>
<!-- Node7 -->
<g id="node13" class="node"><title>Node7</title>
<a xlink:href="class_check_trait.html#a6fc70482737108eb58606a8eed553e04" target="_top" xlink:title="CheckTrait::traitChanged">
<polygon fill="white" stroke="black" points="374,-119.5 374,-140.5 508,-140.5 508,-119.5 374,-119.5"/>
<text text-anchor="middle" x="441" y="-127.5" font-family="DejaVuSans" font-size="10.00">CheckTrait::traitChanged</text>
</a>
</g>
<!-- Node6&#45;&gt;Node7 -->
<g id="edge12" class="edge"><title>Node6&#45;&gt;Node7</title>
<path fill="none" stroke="midnightblue" d="M302.166,-101.503C326.027,-106.4 354.613,-112.268 379.628,-117.403"/>
<polygon fill="midnightblue" stroke="midnightblue" points="379.243,-120.896 389.742,-119.479 380.65,-114.039 379.243,-120.896"/>
</g>
<!-- Node8 -->
<g id="node15" class="node"><title>Node8</title>
<a xlink:href="class_check_trait.html#a85928c20fd7d921c1d9b831168b9964e" target="_top" xlink:title="CheckTrait::traitPtr">
<polygon fill="white" stroke="black" points="544,-60.5 544,-81.5 648,-81.5 648,-60.5 544,-60.5"/>
<text text-anchor="middle" x="596" y="-68.5" font-family="DejaVuSans" font-size="10.00">CheckTrait::traitPtr</text>
</a>
</g>
<!-- Node6&#45;&gt;Node8 -->
<g id="edge14" class="edge"><title>Node6&#45;&gt;Node8</title>
<path fill="none" stroke="midnightblue" d="M307.583,-87.7198C369.823,-84.1117 469.533,-78.3314 533.891,-74.6005"/>
<polygon fill="midnightblue" stroke="midnightblue" points="534.125,-78.0929 543.906,-74.02 533.72,-71.1047 534.125,-78.0929"/>
</g>
<!-- Node9 -->
<g id="node17" class="node"><title>Node9</title>
<a xlink:href="class_check_trait.html#a4399a810312044b74f6227955a1879a9" target="_top" xlink:title="CheckTrait::value">
<polygon fill="white" stroke="black" points="392.5,-41.5 392.5,-62.5 489.5,-62.5 489.5,-41.5 392.5,-41.5"/>
<text text-anchor="middle" x="441" y="-49.5" font-family="DejaVuSans" font-size="10.00">CheckTrait::value</text>
</a>
</g>
<!-- Node6&#45;&gt;Node9 -->
<g id="edge16" class="edge"><title>Node6&#45;&gt;Node9</title>
<path fill="none" stroke="midnightblue" d="M302.166,-80.4974C326.91,-75.4186 356.734,-69.2967 382.388,-64.0309"/>
<polygon fill="midnightblue" stroke="midnightblue" points="383.27,-67.4229 392.362,-61.9836 381.862,-60.5659 383.27,-67.4229"/>
</g>
<!-- Node9&#45;&gt;Node8 -->
<g id="edge18" class="edge"><title>Node9&#45;&gt;Node8</title>
<path fill="none" stroke="midnightblue" d="M489.618,-57.9596C503.612,-59.675 519.072,-61.5702 533.77,-63.3718"/>
<polygon fill="midnightblue" stroke="midnightblue" points="533.444,-66.858 543.796,-64.6008 534.296,-59.91 533.444,-66.858"/>
</g>
</g>
</svg>
