<?xml version="1.0" encoding="UTF-8" standalone="no"?>
<!DOCTYPE svg PUBLIC "-//W3C//DTD SVG 1.1//EN"
 "http://www.w3.org/Graphics/SVG/1.1/DTD/svg11.dtd">
<!-- Generated by graphviz version 2.26.3 (20100126.1600)
 -->
<!-- Title: G Pages: 1 -->
<svg width="396pt" height="146pt"
 viewBox="0.00 0.00 396.00 146.00" xmlns="http://www.w3.org/2000/svg" xmlns:xlink="http://www.w3.org/1999/xlink">
<g id="graph1" class="graph" transform="scale(1 1) rotate(0) translate(4 142)">
<title>G</title>
<polygon fill="white" stroke="white" points="-4,5 -4,-142 393,-142 393,5 -4,5"/>
<!-- Node1 -->
<g id="node1" class="node"><title>Node1</title>
<polygon fill="#bfbfbf" stroke="black" points="70,-116.5 70,-137.5 268,-137.5 268,-116.5 70,-116.5"/>
<text text-anchor="middle" x="169" y="-124.5" font-family="DejaVuSans" font-size="10.00">src/Datatypes/cv_CreationPoints2.cpp</text>
</g>
<!-- Node2 -->
<g id="node3" class="node"><title>Node2</title>
<polygon fill="white" stroke="#bfbfbf" points="-0.5,-58.5 -0.5,-79.5 88.5,-79.5 88.5,-58.5 -0.5,-58.5"/>
<text text-anchor="middle" x="44" y="-66.5" font-family="DejaVuSans" font-size="10.00">Config/Config.h</text>
</g>
<!-- Node1&#45;&gt;Node2 -->
<g id="edge2" class="edge"><title>Node1&#45;&gt;Node2</title>
<path fill="none" stroke="midnightblue" d="M146.363,-116.497C126.752,-107.397 98.1536,-94.1273 76.1667,-83.9253"/>
<polygon fill="midnightblue" stroke="midnightblue" points="77.4348,-80.6554 66.8906,-79.6212 74.4885,-87.0051 77.4348,-80.6554"/>
</g>
<!-- Node3 -->
<g id="node5" class="node"><title>Node3</title>
<polygon fill="white" stroke="#bfbfbf" points="105.5,-58.5 105.5,-79.5 232.5,-79.5 232.5,-58.5 105.5,-58.5"/>
<text text-anchor="middle" x="169" y="-66.5" font-family="DejaVuSans" font-size="10.00">Exceptions/Exception.h</text>
</g>
<!-- Node1&#45;&gt;Node3 -->
<g id="edge4" class="edge"><title>Node1&#45;&gt;Node3</title>
<path fill="none" stroke="midnightblue" d="M169,-116.362C169,-108.922 169,-98.7427 169,-89.7276"/>
<polygon fill="midnightblue" stroke="midnightblue" points="172.5,-89.5706 169,-79.5707 165.5,-89.5707 172.5,-89.5706"/>
</g>
<!-- Node4 -->
<g id="node7" class="node"><title>Node4</title>
<a xlink:href="cv___creation_points2_8h.html" target="_top" xlink:title="cv_CreationPoints2.h">
<polygon fill="white" stroke="black" points="249.5,-58.5 249.5,-79.5 366.5,-79.5 366.5,-58.5 249.5,-58.5"/>
<text text-anchor="middle" x="308" y="-66.5" font-family="DejaVuSans" font-size="10.00">cv_CreationPoints2.h</text>
</a>
</g>
<!-- Node1&#45;&gt;Node4 -->
<g id="edge6" class="edge"><title>Node1&#45;&gt;Node4</title>
<path fill="none" stroke="midnightblue" d="M194.172,-116.497C216.273,-107.275 248.639,-93.7695 273.213,-83.5153"/>
<polygon fill="midnightblue" stroke="midnightblue" points="274.665,-86.7022 282.546,-79.6212 271.969,-80.2421 274.665,-86.7022"/>
</g>
<!-- Node5 -->
<g id="node9" class="node"><title>Node5</title>
<polygon fill="white" stroke="#bfbfbf" points="187.5,-0.5 187.5,-21.5 318.5,-21.5 318.5,-0.5 187.5,-0.5"/>
<text text-anchor="middle" x="253" y="-8.5" font-family="DejaVuSans" font-size="10.00">Datatypes/cv_Species.h</text>
</g>
<!-- Node4&#45;&gt;Node5 -->
<g id="edge8" class="edge"><title>Node4&#45;&gt;Node5</title>
<path fill="none" stroke="midnightblue" d="M297.912,-58.3619C290.159,-50.1861 279.27,-38.7025 270.155,-29.0907"/>
<polygon fill="midnightblue" stroke="midnightblue" points="272.445,-26.4186 263.024,-21.5707 267.365,-31.2352 272.445,-26.4186"/>
</g>
<!-- Node6 -->
<g id="node11" class="node"><title>Node6</title>
<polygon fill="white" stroke="#bfbfbf" points="335.5,-0.5 335.5,-21.5 388.5,-21.5 388.5,-0.5 335.5,-0.5"/>
<text text-anchor="middle" x="362" y="-8.5" font-family="DejaVuSans" font-size="10.00">QString</text>
</g>
<!-- Node4&#45;&gt;Node6 -->
<g id="edge10" class="edge"><title>Node4&#45;&gt;Node6</title>
<path fill="none" stroke="midnightblue" d="M317.904,-58.3619C325.516,-50.1861 336.208,-38.7025 345.157,-29.0907"/>
<polygon fill="midnightblue" stroke="midnightblue" points="347.906,-31.2746 352.158,-21.5707 342.783,-26.5046 347.906,-31.2746"/>
</g>
</g>
</svg>
