<?xml version="1.0" encoding="UTF-8" standalone="no"?>
<!DOCTYPE svg PUBLIC "-//W3C//DTD SVG 1.1//EN"
 "http://www.w3.org/Graphics/SVG/1.1/DTD/svg11.dtd">
<!-- Generated by graphviz version 2.26.3 (20100126.1600)
 -->
<!-- Title: G Pages: 1 -->
<svg width="297pt" height="146pt"
 viewBox="0.00 0.00 297.00 146.00" xmlns="http://www.w3.org/2000/svg" xmlns:xlink="http://www.w3.org/1999/xlink">
<g id="graph1" class="graph" transform="scale(1 1) rotate(0) translate(4 142)">
<title>G</title>
<polygon fill="white" stroke="white" points="-4,5 -4,-142 294,-142 294,5 -4,5"/>
<!-- Node1 -->
<g id="node1" class="node"><title>Node1</title>
<polygon fill="#bfbfbf" stroke="black" points="0,-116.5 0,-137.5 198,-137.5 198,-116.5 0,-116.5"/>
<text text-anchor="middle" x="99" y="-124.5" font-family="DejaVuSans" font-size="10.00">src/Datatypes/cv_CreationPoints2.cpp</text>
</g>
<!-- Node2 -->
<g id="node3" class="node"><title>Node2</title>
<polygon fill="white" stroke="#bfbfbf" points="9.5,-58.5 9.5,-79.5 78.5,-79.5 78.5,-58.5 9.5,-58.5"/>
<text text-anchor="middle" x="44" y="-66.5" font-family="DejaVuSans" font-size="10.00">QStringList</text>
</g>
<!-- Node1&#45;&gt;Node2 -->
<g id="edge2" class="edge"><title>Node1&#45;&gt;Node2</title>
<path fill="none" stroke="midnightblue" d="M88.9122,-116.362C81.1592,-108.186 70.2696,-96.7025 61.1549,-87.0907"/>
<polygon fill="midnightblue" stroke="midnightblue" points="63.4445,-84.4186 54.0239,-79.5707 58.3651,-89.2352 63.4445,-84.4186"/>
</g>
<!-- Node3 -->
<g id="node5" class="node"><title>Node3</title>
<a xlink:href="cv___creation_points2_8h.html" target="_top" xlink:title="cv_CreationPoints2.h">
<polygon fill="white" stroke="black" points="95.5,-58.5 95.5,-79.5 212.5,-79.5 212.5,-58.5 95.5,-58.5"/>
<text text-anchor="middle" x="154" y="-66.5" font-family="DejaVuSans" font-size="10.00">cv_CreationPoints2.h</text>
</a>
</g>
<!-- Node1&#45;&gt;Node3 -->
<g id="edge4" class="edge"><title>Node1&#45;&gt;Node3</title>
<path fill="none" stroke="midnightblue" d="M109.088,-116.362C116.841,-108.186 127.73,-96.7025 136.845,-87.0907"/>
<polygon fill="midnightblue" stroke="midnightblue" points="139.635,-89.2352 143.976,-79.5707 134.555,-84.4186 139.635,-89.2352"/>
</g>
<!-- Node4 -->
<g id="node7" class="node"><title>Node4</title>
<polygon fill="white" stroke="#bfbfbf" points="30.5,-0.5 30.5,-21.5 71.5,-21.5 71.5,-0.5 30.5,-0.5"/>
<text text-anchor="middle" x="51" y="-8.5" font-family="DejaVuSans" font-size="10.00">QList</text>
</g>
<!-- Node3&#45;&gt;Node4 -->
<g id="edge6" class="edge"><title>Node3&#45;&gt;Node4</title>
<path fill="none" stroke="midnightblue" d="M135.108,-58.3619C119.282,-49.4502 96.4774,-36.6087 78.6053,-26.5447"/>
<polygon fill="midnightblue" stroke="midnightblue" points="80.2029,-23.4276 69.772,-21.5707 76.7682,-29.5271 80.2029,-23.4276"/>
</g>
<!-- Node5 -->
<g id="node9" class="node"><title>Node5</title>
<polygon fill="white" stroke="#bfbfbf" points="88.5,-0.5 88.5,-21.5 219.5,-21.5 219.5,-0.5 88.5,-0.5"/>
<text text-anchor="middle" x="154" y="-8.5" font-family="DejaVuSans" font-size="10.00">Datatypes/cv_Species.h</text>
</g>
<!-- Node3&#45;&gt;Node5 -->
<g id="edge8" class="edge"><title>Node3&#45;&gt;Node5</title>
<path fill="none" stroke="midnightblue" d="M154,-58.3619C154,-50.9219 154,-40.7427 154,-31.7276"/>
<polygon fill="midnightblue" stroke="midnightblue" points="157.5,-31.5706 154,-21.5707 150.5,-31.5707 157.5,-31.5706"/>
</g>
<!-- Node6 -->
<g id="node11" class="node"><title>Node6</title>
<polygon fill="white" stroke="#bfbfbf" points="236.5,-0.5 236.5,-21.5 289.5,-21.5 289.5,-0.5 236.5,-0.5"/>
<text text-anchor="middle" x="263" y="-8.5" font-family="DejaVuSans" font-size="10.00">QString</text>
</g>
<!-- Node3&#45;&gt;Node6 -->
<g id="edge10" class="edge"><title>Node3&#45;&gt;Node6</title>
<path fill="none" stroke="midnightblue" d="M173.739,-58.4966C190.61,-49.5194 215.109,-36.4835 234.174,-26.3387"/>
<polygon fill="midnightblue" stroke="midnightblue" points="235.856,-29.4086 243.039,-21.6212 232.567,-23.2289 235.856,-29.4086"/>
</g>
</g>
</svg>
