<?xml version="1.0" encoding="UTF-8" standalone="no"?>
<!DOCTYPE svg PUBLIC "-//W3C//DTD SVG 1.1//EN"
 "http://www.w3.org/Graphics/SVG/1.1/DTD/svg11.dtd">
<!-- Generated by graphviz version 2.26.3 (20100126.1600)
 -->
<!-- Title: G Pages: 1 -->
<svg width="253pt" height="146pt"
 viewBox="0.00 0.00 253.00 146.00" xmlns="http://www.w3.org/2000/svg" xmlns:xlink="http://www.w3.org/1999/xlink">
<g id="graph1" class="graph" transform="scale(1 1) rotate(0) translate(4 142)">
<title>G</title>
<polygon fill="white" stroke="white" points="-4,5 -4,-142 250,-142 250,5 -4,5"/>
<!-- Node1 -->
<g id="node1" class="node"><title>Node1</title>
<polygon fill="#bfbfbf" stroke="black" points="0,-116.5 0,-137.5 158,-137.5 158,-116.5 0,-116.5"/>
<text text-anchor="middle" x="79" y="-124.5" font-family="DejaVuSans" font-size="10.00">src/Datatypes/cv_TraitDetail.h</text>
</g>
<!-- Node2 -->
<g id="node3" class="node"><title>Node2</title>
<polygon fill="white" stroke="#bfbfbf" points="73.5,-0.5 73.5,-21.5 126.5,-21.5 126.5,-0.5 73.5,-0.5"/>
<text text-anchor="middle" x="100" y="-8.5" font-family="DejaVuSans" font-size="10.00">QString</text>
</g>
<!-- Node1&#45;&gt;Node2 -->
<g id="edge2" class="edge"><title>Node1&#45;&gt;Node2</title>
<path fill="none" stroke="midnightblue" d="M55.8103,-116.351C31.9127,-103.8 -0.0198919,-81.639 14,-58 24.8151,-39.7646 45.4767,-28.1459 63.8371,-21.023"/>
<polygon fill="midnightblue" stroke="midnightblue" points="65.1945,-24.2551 73.443,-17.6059 62.8483,-17.66 65.1945,-24.2551"/>
</g>
<!-- Node3 -->
<g id="node5" class="node"><title>Node3</title>
<polygon fill="white" stroke="#bfbfbf" points="22.5,-58.5 22.5,-79.5 63.5,-79.5 63.5,-58.5 22.5,-58.5"/>
<text text-anchor="middle" x="43" y="-66.5" font-family="DejaVuSans" font-size="10.00">QList</text>
</g>
<!-- Node1&#45;&gt;Node3 -->
<g id="edge4" class="edge"><title>Node1&#45;&gt;Node3</title>
<path fill="none" stroke="midnightblue" d="M72.397,-116.362C67.5254,-108.513 60.7616,-97.6159 54.95,-88.2527"/>
<polygon fill="midnightblue" stroke="midnightblue" points="57.8085,-86.2213 49.5611,-79.5707 51.861,-89.9129 57.8085,-86.2213"/>
</g>
<!-- Node4 -->
<g id="node7" class="node"><title>Node4</title>
<polygon fill="white" stroke="#bfbfbf" points="80.5,-58.5 80.5,-79.5 149.5,-79.5 149.5,-58.5 80.5,-58.5"/>
<text text-anchor="middle" x="115" y="-66.5" font-family="DejaVuSans" font-size="10.00">QStringList</text>
</g>
<!-- Node1&#45;&gt;Node4 -->
<g id="edge6" class="edge"><title>Node1&#45;&gt;Node4</title>
<path fill="none" stroke="midnightblue" d="M85.603,-116.362C90.4746,-108.513 97.2384,-97.6159 103.05,-88.2527"/>
<polygon fill="midnightblue" stroke="midnightblue" points="106.139,-89.9129 108.439,-79.5707 100.191,-86.2213 106.139,-89.9129"/>
</g>
<!-- Node5 -->
<g id="node9" class="node"><title>Node5</title>
<a xlink:href="cv___species_8h.html" target="_top" xlink:title="cv_Species.h">
<polygon fill="white" stroke="black" points="166.5,-58.5 166.5,-79.5 245.5,-79.5 245.5,-58.5 166.5,-58.5"/>
<text text-anchor="middle" x="206" y="-66.5" font-family="DejaVuSans" font-size="10.00">cv_Species.h</text>
</a>
</g>
<!-- Node1&#45;&gt;Node5 -->
<g id="edge8" class="edge"><title>Node1&#45;&gt;Node5</title>
<path fill="none" stroke="midnightblue" d="M101.999,-116.497C122.013,-107.356 151.241,-94.0082 173.619,-83.7883"/>
<polygon fill="midnightblue" stroke="midnightblue" points="175.101,-86.9592 182.743,-79.6212 172.193,-80.5918 175.101,-86.9592"/>
</g>
<!-- Node5&#45;&gt;Node2 -->
<g id="edge10" class="edge"><title>Node5&#45;&gt;Node2</title>
<path fill="none" stroke="midnightblue" d="M186.558,-58.3619C170.196,-49.4094 146.587,-36.4908 128.157,-26.4064"/>
<polygon fill="midnightblue" stroke="midnightblue" points="129.771,-23.3004 119.319,-21.5707 126.411,-29.4412 129.771,-23.3004"/>
</g>
</g>
</svg>
