<?xml version="1.0" encoding="UTF-8" standalone="no"?>
<!DOCTYPE svg PUBLIC "-//W3C//DTD SVG 1.1//EN"
 "http://www.w3.org/Graphics/SVG/1.1/DTD/svg11.dtd">
<!-- Generated by graphviz version 2.26.3 (20100126.1600)
 -->
<!-- Title: G Pages: 1 -->
<svg width="178pt" height="146pt"
 viewBox="0.00 0.00 178.00 146.00" xmlns="http://www.w3.org/2000/svg" xmlns:xlink="http://www.w3.org/1999/xlink">
<g id="graph1" class="graph" transform="scale(1 1) rotate(0) translate(4 142)">
<title>G</title>
<polygon fill="white" stroke="white" points="-4,5 -4,-142 175,-142 175,5 -4,5"/>
<!-- Node1 -->
<g id="node1" class="node"><title>Node1</title>
<polygon fill="#bfbfbf" stroke="black" points="-0.5,-116.5 -0.5,-137.5 170.5,-137.5 170.5,-116.5 -0.5,-116.5"/>
<text text-anchor="middle" x="85" y="-124.5" font-family="DejaVuSans" font-size="10.00">src/Datatypes/cv_AbstractTrait.h</text>
</g>
<!-- Node2 -->
<g id="node3" class="node"><title>Node2</title>
<polygon fill="white" stroke="#bfbfbf" points="58.5,-0.5 58.5,-21.5 111.5,-21.5 111.5,-0.5 58.5,-0.5"/>
<text text-anchor="middle" x="85" y="-8.5" font-family="DejaVuSans" font-size="10.00">QString</text>
</g>
<!-- Node1&#45;&gt;Node2 -->
<g id="edge2" class="edge"><title>Node1&#45;&gt;Node2</title>
<path fill="none" stroke="midnightblue" d="M80.8699,-116.372C77.4523,-106.974 72.8667,-92.806 71,-80 69.5896,-70.3245 69.5896,-67.6755 71,-58 72.3126,-48.9958 74.9692,-39.3181 77.619,-31.0986"/>
<polygon fill="midnightblue" stroke="midnightblue" points="80.9337,-32.2223 80.8699,-21.6276 74.3129,-29.9496 80.9337,-32.2223"/>
</g>
<!-- Node3 -->
<g id="node5" class="node"><title>Node3</title>
<a xlink:href="cv___species_8h.html" target="_top" xlink:title="cv_Species.h">
<polygon fill="white" stroke="black" points="79.5,-58.5 79.5,-79.5 158.5,-79.5 158.5,-58.5 79.5,-58.5"/>
<text text-anchor="middle" x="119" y="-66.5" font-family="DejaVuSans" font-size="10.00">cv_Species.h</text>
</a>
</g>
<!-- Node1&#45;&gt;Node3 -->
<g id="edge4" class="edge"><title>Node1&#45;&gt;Node3</title>
<path fill="none" stroke="midnightblue" d="M91.2361,-116.362C95.8371,-108.513 102.225,-97.6159 107.714,-88.2527"/>
<polygon fill="midnightblue" stroke="midnightblue" points="110.766,-89.9677 112.803,-79.5707 104.727,-86.4276 110.766,-89.9677"/>
</g>
<!-- Node3&#45;&gt;Node2 -->
<g id="edge6" class="edge"><title>Node3&#45;&gt;Node2</title>
<path fill="none" stroke="midnightblue" d="M112.764,-58.3619C108.163,-50.5131 101.775,-39.6159 96.2861,-30.2527"/>
<polygon fill="midnightblue" stroke="midnightblue" points="99.2733,-28.4276 91.1966,-21.5707 93.2344,-31.9677 99.2733,-28.4276"/>
</g>
</g>
</svg>
