<?xml version="1.0" encoding="UTF-8" standalone="no"?>
<!DOCTYPE svg PUBLIC "-//W3C//DTD SVG 1.1//EN"
 "http://www.w3.org/Graphics/SVG/1.1/DTD/svg11.dtd">
<!-- Generated by graphviz version 2.26.3 (20100126.1600)
 -->
<!-- Title: G Pages: 1 -->
<svg width="541pt" height="204pt"
 viewBox="0.00 0.00 541.00 204.00" xmlns="http://www.w3.org/2000/svg" xmlns:xlink="http://www.w3.org/1999/xlink">
<g id="graph1" class="graph" transform="scale(1 1) rotate(0) translate(4 200)">
<title>G</title>
<polygon fill="white" stroke="white" points="-4,5 -4,-200 538,-200 538,5 -4,5"/>
<!-- Node1 -->
<g id="node1" class="node"><title>Node1</title>
<polygon fill="#bfbfbf" stroke="black" points="256,-174.5 256,-195.5 414,-195.5 414,-174.5 256,-174.5"/>
<text text-anchor="middle" x="335" y="-182.5" font-family="DejaVuSans" font-size="10.00">src/Datatypes/cv_TraitDetail.h</text>
</g>
<!-- Node2 -->
<g id="node3" class="node"><title>Node2</title>
<a xlink:href="cv___trait_8h.html" target="_top" xlink:title="src/Datatypes/cv_Trait.h">
<polygon fill="white" stroke="black" points="158.5,-116.5 158.5,-137.5 289.5,-137.5 289.5,-116.5 158.5,-116.5"/>
<text text-anchor="middle" x="224" y="-124.5" font-family="DejaVuSans" font-size="10.00">src/Datatypes/cv_Trait.h</text>
</a>
</g>
<!-- Node1&#45;&gt;Node2 -->
<g id="edge2" class="edge"><title>Node1&#45;&gt;Node2</title>
<path fill="none" stroke="midnightblue" d="M305.899,-169.794C286.532,-159.675 261.575,-146.634 244.327,-137.621"/>
<polygon fill="midnightblue" stroke="midnightblue" points="304.415,-172.968 314.899,-174.497 307.657,-166.763 304.415,-172.968"/>
</g>
<!-- Node4 -->
<g id="node7" class="node"><title>Node4</title>
<a xlink:href="_trait_8h.html" target="_top" xlink:title="src/Datatypes/Trait.h">
<polygon fill="white" stroke="black" points="287.5,-58.5 287.5,-79.5 402.5,-79.5 402.5,-58.5 287.5,-58.5"/>
<text text-anchor="middle" x="345" y="-66.5" font-family="DejaVuSans" font-size="10.00">src/Datatypes/Trait.h</text>
</a>
</g>
<!-- Node1&#45;&gt;Node4 -->
<g id="edge14" class="edge"><title>Node1&#45;&gt;Node4</title>
<path fill="none" stroke="midnightblue" d="M336.8,-164.123C338.94,-139.298 342.429,-98.8235 344.079,-79.6792"/>
<polygon fill="midnightblue" stroke="midnightblue" points="333.295,-164.031 335.923,-174.295 340.269,-164.633 333.295,-164.031"/>
</g>
<!-- Node7 -->
<g id="node13" class="node"><title>Node7</title>
<a xlink:href="cv___trait_detail_8cpp.html" target="_top" xlink:title="src/Datatypes/cv_TraitDetail.cpp">
<polygon fill="white" stroke="black" points="363,-116.5 363,-137.5 533,-137.5 533,-116.5 363,-116.5"/>
<text text-anchor="middle" x="448" y="-124.5" font-family="DejaVuSans" font-size="10.00">src/Datatypes/cv_TraitDetail.cpp</text>
</a>
</g>
<!-- Node1&#45;&gt;Node7 -->
<g id="edge12" class="edge"><title>Node1&#45;&gt;Node7</title>
<path fill="none" stroke="midnightblue" d="M364.625,-169.794C384.341,-159.675 409.748,-146.634 427.307,-137.621"/>
<polygon fill="midnightblue" stroke="midnightblue" points="362.762,-166.816 355.463,-174.497 365.958,-173.044 362.762,-166.816"/>
</g>
<!-- Node3 -->
<g id="node5" class="node"><title>Node3</title>
<a xlink:href="cv___trait_8cpp.html" target="_top" xlink:title="src/Datatypes/cv_Trait.cpp">
<polygon fill="white" stroke="black" points="0,-58.5 0,-79.5 142,-79.5 142,-58.5 0,-58.5"/>
<text text-anchor="middle" x="71" y="-66.5" font-family="DejaVuSans" font-size="10.00">src/Datatypes/cv_Trait.cpp</text>
</a>
</g>
<!-- Node2&#45;&gt;Node3 -->
<g id="edge4" class="edge"><title>Node2&#45;&gt;Node3</title>
<path fill="none" stroke="midnightblue" d="M186.737,-112.874C159.587,-102.582 123.395,-88.862 98.7591,-79.5231"/>
<polygon fill="midnightblue" stroke="midnightblue" points="185.702,-116.225 196.293,-116.497 188.183,-109.679 185.702,-116.225"/>
</g>
<!-- Node2&#45;&gt;Node4 -->
<g id="edge6" class="edge"><title>Node2&#45;&gt;Node4</title>
<path fill="none" stroke="midnightblue" d="M255.149,-112.069C276.339,-101.912 303.869,-88.7157 322.842,-79.6212"/>
<polygon fill="midnightblue" stroke="midnightblue" points="253.417,-109.018 245.912,-116.497 256.443,-115.33 253.417,-109.018"/>
</g>
<!-- Node6 -->
<g id="node11" class="node"><title>Node6</title>
<a xlink:href="_main_window_8cpp.html" target="_top" xlink:title="src/MainWindow.cpp">
<polygon fill="white" stroke="black" points="159.5,-58.5 159.5,-79.5 270.5,-79.5 270.5,-58.5 159.5,-58.5"/>
<text text-anchor="middle" x="215" y="-66.5" font-family="DejaVuSans" font-size="10.00">src/MainWindow.cpp</text>
</a>
</g>
<!-- Node2&#45;&gt;Node6 -->
<g id="edge10" class="edge"><title>Node2&#45;&gt;Node6</title>
<path fill="none" stroke="midnightblue" d="M220.771,-106.191C219.371,-97.1684 217.792,-86.9941 216.64,-79.5707"/>
<polygon fill="midnightblue" stroke="midnightblue" points="217.357,-107.017 222.349,-116.362 224.274,-105.943 217.357,-107.017"/>
</g>
<!-- Node5 -->
<g id="node9" class="node"><title>Node5</title>
<a xlink:href="_trait_8cpp.html" target="_top" xlink:title="src/Datatypes/Trait.cpp">
<polygon fill="white" stroke="black" points="282,-0.5 282,-21.5 408,-21.5 408,-0.5 282,-0.5"/>
<text text-anchor="middle" x="345" y="-8.5" font-family="DejaVuSans" font-size="10.00">src/Datatypes/Trait.cpp</text>
</a>
</g>
<!-- Node4&#45;&gt;Node5 -->
<g id="edge8" class="edge"><title>Node4&#45;&gt;Node5</title>
<path fill="none" stroke="midnightblue" d="M345,-48.1906C345,-39.1684 345,-28.9941 345,-21.5707"/>
<polygon fill="midnightblue" stroke="midnightblue" points="341.5,-48.3619 345,-58.3619 348.5,-48.3619 341.5,-48.3619"/>
</g>
</g>
</svg>
