<?xml version="1.0" encoding="UTF-8" standalone="no"?>
<!DOCTYPE svg PUBLIC "-//W3C//DTD SVG 1.1//EN"
 "http://www.w3.org/Graphics/SVG/1.1/DTD/svg11.dtd">
<!-- Generated by graphviz version 2.26.3 (20100126.1600)
 -->
<!-- Title: G Pages: 1 -->
<svg width="266pt" height="204pt"
 viewBox="0.00 0.00 266.00 204.00" xmlns="http://www.w3.org/2000/svg" xmlns:xlink="http://www.w3.org/1999/xlink">
<g id="graph1" class="graph" transform="scale(1 1) rotate(0) translate(4 200)">
<title>G</title>
<polygon fill="white" stroke="white" points="-4,5 -4,-200 263,-200 263,5 -4,5"/>
<!-- Node1 -->
<g id="node1" class="node"><title>Node1</title>
<polygon fill="#bfbfbf" stroke="black" points="44,-174.5 44,-195.5 200,-195.5 200,-174.5 44,-174.5"/>
<text text-anchor="middle" x="122" y="-182.5" font-family="DejaVuSans" font-size="10.00">src/Datatypes/cv_Identity.cpp</text>
</g>
<!-- Node2 -->
<g id="node3" class="node"><title>Node2</title>
<polygon fill="white" stroke="#bfbfbf" points="-0.5,-116.5 -0.5,-137.5 126.5,-137.5 126.5,-116.5 -0.5,-116.5"/>
<text text-anchor="middle" x="63" y="-124.5" font-family="DejaVuSans" font-size="10.00">Exceptions/Exception.h</text>
</g>
<!-- Node1&#45;&gt;Node2 -->
<g id="edge2" class="edge"><title>Node1&#45;&gt;Node2</title>
<path fill="none" stroke="midnightblue" d="M111.178,-174.362C102.779,-166.104 90.9462,-154.472 81.1098,-144.803"/>
<polygon fill="midnightblue" stroke="midnightblue" points="83.3378,-142.085 73.7529,-137.571 78.4305,-147.077 83.3378,-142.085"/>
</g>
<!-- Node3 -->
<g id="node5" class="node"><title>Node3</title>
<a xlink:href="cv___identity_8h.html" target="_top" xlink:title="cv_Identity.h">
<polygon fill="white" stroke="black" points="143.5,-116.5 143.5,-137.5 218.5,-137.5 218.5,-116.5 143.5,-116.5"/>
<text text-anchor="middle" x="181" y="-124.5" font-family="DejaVuSans" font-size="10.00">cv_Identity.h</text>
</a>
</g>
<!-- Node1&#45;&gt;Node3 -->
<g id="edge4" class="edge"><title>Node1&#45;&gt;Node3</title>
<path fill="none" stroke="midnightblue" d="M132.822,-174.362C141.221,-166.104 153.054,-154.472 162.89,-144.803"/>
<polygon fill="midnightblue" stroke="midnightblue" points="165.569,-147.077 170.247,-137.571 160.662,-142.085 165.569,-147.077"/>
</g>
<!-- Node4 -->
<g id="node7" class="node"><title>Node4</title>
<polygon fill="white" stroke="#bfbfbf" points="95.5,-0.5 95.5,-21.5 164.5,-21.5 164.5,-0.5 95.5,-0.5"/>
<text text-anchor="middle" x="130" y="-8.5" font-family="DejaVuSans" font-size="10.00">QStringList</text>
</g>
<!-- Node3&#45;&gt;Node4 -->
<g id="edge6" class="edge"><title>Node3&#45;&gt;Node4</title>
<path fill="none" stroke="midnightblue" d="M166.929,-116.297C156.752,-107.691 143.662,-94.6518 137,-80 130.157,-64.9513 128.641,-46.1975 128.706,-32.0414"/>
<polygon fill="midnightblue" stroke="midnightblue" points="132.21,-31.9374 129.025,-21.8327 125.214,-31.7183 132.21,-31.9374"/>
</g>
<!-- Node5 -->
<g id="node9" class="node"><title>Node5</title>
<polygon fill="white" stroke="#bfbfbf" points="205.5,-0.5 205.5,-21.5 258.5,-21.5 258.5,-0.5 205.5,-0.5"/>
<text text-anchor="middle" x="232" y="-8.5" font-family="DejaVuSans" font-size="10.00">QString</text>
</g>
<!-- Node3&#45;&gt;Node5 -->
<g id="edge8" class="edge"><title>Node3&#45;&gt;Node5</title>
<path fill="none" stroke="midnightblue" d="M195.071,-116.297C205.248,-107.691 218.338,-94.6518 225,-80 231.843,-64.9513 233.359,-46.1975 233.294,-32.0414"/>
<polygon fill="midnightblue" stroke="midnightblue" points="236.786,-31.7183 232.975,-21.8327 229.79,-31.9374 236.786,-31.7183"/>
</g>
<!-- Node6 -->
<g id="node11" class="node"><title>Node6</title>
<a xlink:href="cv___name_8h.html" target="_top" xlink:title="cv_Name.h">
<polygon fill="white" stroke="black" points="145.5,-58.5 145.5,-79.5 216.5,-79.5 216.5,-58.5 145.5,-58.5"/>
<text text-anchor="middle" x="181" y="-66.5" font-family="DejaVuSans" font-size="10.00">cv_Name.h</text>
</a>
</g>
<!-- Node3&#45;&gt;Node6 -->
<g id="edge10" class="edge"><title>Node3&#45;&gt;Node6</title>
<path fill="none" stroke="midnightblue" d="M181,-116.362C181,-108.922 181,-98.7427 181,-89.7276"/>
<polygon fill="midnightblue" stroke="midnightblue" points="184.5,-89.5706 181,-79.5707 177.5,-89.5707 184.5,-89.5706"/>
</g>
<!-- Node6&#45;&gt;Node4 -->
<g id="edge12" class="edge"><title>Node6&#45;&gt;Node4</title>
<path fill="none" stroke="midnightblue" d="M171.646,-58.3619C164.457,-50.1861 154.359,-38.7025 145.907,-29.0907"/>
<polygon fill="midnightblue" stroke="midnightblue" points="148.527,-26.7692 139.295,-21.5707 143.27,-31.3916 148.527,-26.7692"/>
</g>
<!-- Node6&#45;&gt;Node5 -->
<g id="edge14" class="edge"><title>Node6&#45;&gt;Node5</title>
<path fill="none" stroke="midnightblue" d="M190.354,-58.3619C197.543,-50.1861 207.641,-38.7025 216.093,-29.0907"/>
<polygon fill="midnightblue" stroke="midnightblue" points="218.73,-31.3916 222.705,-21.5707 213.473,-26.7692 218.73,-31.3916"/>
</g>
</g>
</svg>
