<?xml version="1.0" encoding="UTF-8" standalone="no"?>
<!DOCTYPE svg PUBLIC "-//W3C//DTD SVG 1.1//EN"
 "http://www.w3.org/Graphics/SVG/1.1/DTD/svg11.dtd">
<!-- Generated by graphviz version 2.26.3 (20100126.1600)
 -->
<!-- Title: G Pages: 1 -->
<svg width="230pt" height="146pt"
 viewBox="0.00 0.00 230.00 146.00" xmlns="http://www.w3.org/2000/svg" xmlns:xlink="http://www.w3.org/1999/xlink">
<g id="graph1" class="graph" transform="scale(1 1) rotate(0) translate(4 142)">
<title>G</title>
<polygon fill="white" stroke="white" points="-4,5 -4,-142 227,-142 227,5 -4,5"/>
<!-- Node1 -->
<g id="node1" class="node"><title>Node1</title>
<polygon fill="#bfbfbf" stroke="black" points="43,-116.5 43,-137.5 203,-137.5 203,-116.5 43,-116.5"/>
<text text-anchor="middle" x="123" y="-124.5" font-family="DejaVuSans" font-size="10.00">src/Datatypes/cv_Species.cpp</text>
</g>
<!-- Node2 -->
<g id="node3" class="node"><title>Node2</title>
<polygon fill="white" stroke="#bfbfbf" points="-0.5,-58.5 -0.5,-79.5 126.5,-79.5 126.5,-58.5 -0.5,-58.5"/>
<text text-anchor="middle" x="63" y="-66.5" font-family="DejaVuSans" font-size="10.00">Exceptions/Exception.h</text>
</g>
<!-- Node1&#45;&gt;Node2 -->
<g id="edge2" class="edge"><title>Node1&#45;&gt;Node2</title>
<path fill="none" stroke="midnightblue" d="M111.995,-116.362C103.453,-108.104 91.4198,-96.4725 81.4168,-86.8029"/>
<polygon fill="midnightblue" stroke="midnightblue" points="83.5577,-84.0044 73.9352,-79.5707 78.6925,-89.0374 83.5577,-84.0044"/>
</g>
<!-- Node3 -->
<g id="node5" class="node"><title>Node3</title>
<a xlink:href="cv___species_8h.html" target="_top" xlink:title="cv_Species.h">
<polygon fill="white" stroke="black" points="143.5,-58.5 143.5,-79.5 222.5,-79.5 222.5,-58.5 143.5,-58.5"/>
<text text-anchor="middle" x="183" y="-66.5" font-family="DejaVuSans" font-size="10.00">cv_Species.h</text>
</a>
</g>
<!-- Node1&#45;&gt;Node3 -->
<g id="edge4" class="edge"><title>Node1&#45;&gt;Node3</title>
<path fill="none" stroke="midnightblue" d="M134.005,-116.362C142.547,-108.104 154.58,-96.4725 164.583,-86.8029"/>
<polygon fill="midnightblue" stroke="midnightblue" points="167.308,-89.0374 172.065,-79.5707 162.442,-84.0044 167.308,-89.0374"/>
</g>
<!-- Node4 -->
<g id="node7" class="node"><title>Node4</title>
<polygon fill="white" stroke="#bfbfbf" points="156.5,-0.5 156.5,-21.5 209.5,-21.5 209.5,-0.5 156.5,-0.5"/>
<text text-anchor="middle" x="183" y="-8.5" font-family="DejaVuSans" font-size="10.00">QString</text>
</g>
<!-- Node3&#45;&gt;Node4 -->
<g id="edge6" class="edge"><title>Node3&#45;&gt;Node4</title>
<path fill="none" stroke="midnightblue" d="M183,-58.3619C183,-50.9219 183,-40.7427 183,-31.7276"/>
<polygon fill="midnightblue" stroke="midnightblue" points="186.5,-31.5706 183,-21.5707 179.5,-31.5707 186.5,-31.5706"/>
</g>
</g>
</svg>
