<?xml version="1.0" encoding="UTF-8" standalone="no"?>
<!DOCTYPE svg PUBLIC "-//W3C//DTD SVG 1.1//EN"
 "http://www.w3.org/Graphics/SVG/1.1/DTD/svg11.dtd">
<!-- Generated by graphviz version 2.26.3 (20100126.1600)
 -->
<!-- Title: G Pages: 1 -->
<svg width="965pt" height="320pt"
 viewBox="0.00 0.00 965.34 320.00" xmlns="http://www.w3.org/2000/svg" xmlns:xlink="http://www.w3.org/1999/xlink">
<g id="graph1" class="graph" transform="scale(1 1) rotate(0) translate(4 316)">
<title>G</title>
<polygon fill="white" stroke="white" points="-4,5 -4,-316 962.344,-316 962.344,5 -4,5"/>
<!-- Node1 -->
<g id="node1" class="node"><title>Node1</title>
<polygon fill="#bfbfbf" stroke="black" points="573,-290.5 573,-311.5 751,-311.5 751,-290.5 573,-290.5"/>
<text text-anchor="middle" x="662" y="-298.5" font-family="DejaVuSans" font-size="10.00">src/Datatypes/cv_SuperEffect.cpp</text>
</g>
<!-- Node2 -->
<g id="node3" class="node"><title>Node2</title>
<a xlink:href="_exception_8h_source.html" target="_top" xlink:title="../Exceptions/Exception.h">
<polygon fill="white" stroke="black" points="476,-232.5 476,-253.5 612,-253.5 612,-232.5 476,-232.5"/>
<text text-anchor="middle" x="544" y="-240.5" font-family="DejaVuSans" font-size="10.00">../Exceptions/Exception.h</text>
</a>
</g>
<!-- Node1&#45;&gt;Node2 -->
<g id="edge2" class="edge"><title>Node1&#45;&gt;Node2</title>
<path fill="none" stroke="midnightblue" d="M640.631,-290.497C622.201,-281.438 595.363,-268.246 574.645,-258.063"/>
<polygon fill="midnightblue" stroke="midnightblue" points="576.127,-254.891 565.609,-253.621 573.039,-261.174 576.127,-254.891"/>
</g>
<!-- Node17 -->
<g id="node47" class="node"><title>Node17</title>
<a xlink:href="cv___super_effect_8h.html" target="_top" xlink:title="cv_SuperEffect.h">
<polygon fill="white" stroke="black" points="731.5,-232.5 731.5,-253.5 828.5,-253.5 828.5,-232.5 731.5,-232.5"/>
<text text-anchor="middle" x="780" y="-240.5" font-family="DejaVuSans" font-size="10.00">cv_SuperEffect.h</text>
</a>
</g>
<!-- Node1&#45;&gt;Node17 -->
<g id="edge60" class="edge"><title>Node1&#45;&gt;Node17</title>
<path fill="none" stroke="midnightblue" d="M683.369,-290.497C701.799,-281.438 728.637,-268.246 749.355,-258.063"/>
<polygon fill="midnightblue" stroke="midnightblue" points="750.961,-261.174 758.391,-253.621 747.873,-254.891 750.961,-261.174"/>
</g>
<!-- Node3 -->
<g id="node5" class="node"><title>Node3</title>
<polygon fill="white" stroke="#bfbfbf" points="513.5,-0.5 513.5,-21.5 566.5,-21.5 566.5,-0.5 513.5,-0.5"/>
<text text-anchor="middle" x="540" y="-8.5" font-family="DejaVuSans" font-size="10.00">QString</text>
</g>
<!-- Node2&#45;&gt;Node3 -->
<g id="edge4" class="edge"><title>Node2&#45;&gt;Node3</title>
<path fill="none" stroke="midnightblue" d="M592.775,-232.479C651.775,-216.759 741.543,-181.699 727,-116 720.855,-88.238 721.556,-76.5432 700,-58 681.487,-42.0739 617.89,-26.7273 576.669,-18.1128"/>
<polygon fill="midnightblue" stroke="midnightblue" points="577.211,-14.6512 566.712,-16.0714 575.805,-21.5086 577.211,-14.6512"/>
</g>
<!-- Node4 -->
<g id="node7" class="node"><title>Node4</title>
<a xlink:href="cv___trait_8h.html" target="_top" xlink:title="../Datatypes/cv_Trait.h">
<polygon fill="white" stroke="black" points="432,-174.5 432,-195.5 554,-195.5 554,-174.5 432,-174.5"/>
<text text-anchor="middle" x="493" y="-182.5" font-family="DejaVuSans" font-size="10.00">../Datatypes/cv_Trait.h</text>
</a>
</g>
<!-- Node2&#45;&gt;Node4 -->
<g id="edge6" class="edge"><title>Node2&#45;&gt;Node4</title>
<path fill="none" stroke="midnightblue" d="M534.646,-232.362C527.457,-224.186 517.359,-212.702 508.907,-203.091"/>
<polygon fill="midnightblue" stroke="midnightblue" points="511.527,-200.769 502.295,-195.571 506.27,-205.392 511.527,-200.769"/>
</g>
<!-- Node11 -->
<g id="node29" class="node"><title>Node11</title>
<a xlink:href="cv___shape_8h.html" target="_top" xlink:title="../Datatypes/cv_Shape.h">
<polygon fill="white" stroke="black" points="0,-58.5 0,-79.5 134,-79.5 134,-58.5 0,-58.5"/>
<text text-anchor="middle" x="67" y="-66.5" font-family="DejaVuSans" font-size="10.00">../Datatypes/cv_Shape.h</text>
</a>
</g>
<!-- Node2&#45;&gt;Node11 -->
<g id="edge36" class="edge"><title>Node2&#45;&gt;Node11</title>
<path fill="none" stroke="midnightblue" d="M475.829,-239.931C384.748,-234.867 229.012,-222.552 179,-196 131.877,-170.982 95.2792,-117.609 77.9661,-88.6574"/>
<polygon fill="midnightblue" stroke="midnightblue" points="80.8985,-86.7376 72.8466,-79.8515 74.8469,-90.2558 80.8985,-86.7376"/>
</g>
<!-- Node12 -->
<g id="node32" class="node"><title>Node12</title>
<a xlink:href="cv___identity_8h.html" target="_top" xlink:title="../Datatypes/cv_Identity.h">
<polygon fill="white" stroke="black" points="187.5,-174.5 187.5,-195.5 324.5,-195.5 324.5,-174.5 187.5,-174.5"/>
<text text-anchor="middle" x="256" y="-182.5" font-family="DejaVuSans" font-size="10.00">../Datatypes/cv_Identity.h</text>
</a>
</g>
<!-- Node2&#45;&gt;Node12 -->
<g id="edge40" class="edge"><title>Node2&#45;&gt;Node12</title>
<path fill="none" stroke="midnightblue" d="M491.845,-232.497C443.064,-222.673 370.149,-207.988 318.323,-197.551"/>
<polygon fill="midnightblue" stroke="midnightblue" points="318.747,-194.066 308.252,-195.523 317.365,-200.929 318.747,-194.066"/>
</g>
<!-- Node14 -->
<g id="node40" class="node"><title>Node14</title>
<a xlink:href="_config_8h.html" target="_top" xlink:title="../Config/Config.h">
<polygon fill="white" stroke="black" points="853,-174.5 853,-195.5 951,-195.5 951,-174.5 853,-174.5"/>
<text text-anchor="middle" x="902" y="-182.5" font-family="DejaVuSans" font-size="10.00">../Config/Config.h</text>
</a>
</g>
<!-- Node2&#45;&gt;Node14 -->
<g id="edge52" class="edge"><title>Node2&#45;&gt;Node14</title>
<path fill="none" stroke="midnightblue" d="M608.831,-232.497C675.486,-221.698 778.391,-205.026 842.88,-194.578"/>
<polygon fill="midnightblue" stroke="midnightblue" points="843.577,-198.011 852.888,-192.957 842.457,-191.101 843.577,-198.011"/>
</g>
<!-- Node4&#45;&gt;Node3 -->
<g id="edge10" class="edge"><title>Node4&#45;&gt;Node3</title>
<path fill="none" stroke="midnightblue" d="M442.605,-174.49C407.447,-164.375 369.116,-146.09 383,-116 405.7,-66.8026 464.503,-37.3706 503.347,-22.6848"/>
<polygon fill="midnightblue" stroke="midnightblue" points="505.034,-25.7961 513.243,-19.0974 502.648,-19.2152 505.034,-25.7961"/>
</g>
<!-- Node5 -->
<g id="node9" class="node"><title>Node5</title>
<polygon fill="white" stroke="#bfbfbf" points="391.5,-116.5 391.5,-137.5 440.5,-137.5 440.5,-116.5 391.5,-116.5"/>
<text text-anchor="middle" x="416" y="-124.5" font-family="DejaVuSans" font-size="10.00">QFlags</text>
</g>
<!-- Node4&#45;&gt;Node5 -->
<g id="edge8" class="edge"><title>Node4&#45;&gt;Node5</title>
<path fill="none" stroke="midnightblue" d="M478.877,-174.362C467.48,-165.777 451.242,-153.546 438.122,-143.664"/>
<polygon fill="midnightblue" stroke="midnightblue" points="440.127,-140.792 430.033,-137.571 435.915,-146.383 440.127,-140.792"/>
</g>
<!-- Node6 -->
<g id="node12" class="node"><title>Node6</title>
<polygon fill="white" stroke="#bfbfbf" points="459.5,-58.5 459.5,-79.5 500.5,-79.5 500.5,-58.5 459.5,-58.5"/>
<text text-anchor="middle" x="480" y="-66.5" font-family="DejaVuSans" font-size="10.00">QList</text>
</g>
<!-- Node4&#45;&gt;Node6 -->
<g id="edge12" class="edge"><title>Node4&#45;&gt;Node6</title>
<path fill="none" stroke="midnightblue" d="M491.538,-174.182C490.271,-164.662 488.423,-150.422 487,-138 485.159,-121.925 483.322,-103.715 481.992,-90.0398"/>
<polygon fill="midnightblue" stroke="midnightblue" points="485.445,-89.3853 481.005,-79.7658 478.477,-90.0547 485.445,-89.3853"/>
</g>
<!-- Node7 -->
<g id="node14" class="node"><title>Node7</title>
<polygon fill="white" stroke="#bfbfbf" points="263.5,-58.5 263.5,-79.5 332.5,-79.5 332.5,-58.5 263.5,-58.5"/>
<text text-anchor="middle" x="298" y="-66.5" font-family="DejaVuSans" font-size="10.00">QStringList</text>
</g>
<!-- Node4&#45;&gt;Node7 -->
<g id="edge14" class="edge"><title>Node4&#45;&gt;Node7</title>
<path fill="none" stroke="midnightblue" d="M435.348,-174.489C407.69,-167.433 375.181,-156.025 350,-138 331.92,-125.058 317.343,-103.969 308.274,-88.507"/>
<polygon fill="midnightblue" stroke="midnightblue" points="311.298,-86.7441 303.358,-79.7303 305.191,-90.1652 311.298,-86.7441"/>
</g>
<!-- Node8 -->
<g id="node16" class="node"><title>Node8</title>
<a xlink:href="cv___species_8h.html" target="_top" xlink:title="cv_Species.h">
<polygon fill="white" stroke="black" points="612.5,-58.5 612.5,-79.5 691.5,-79.5 691.5,-58.5 612.5,-58.5"/>
<text text-anchor="middle" x="652" y="-66.5" font-family="DejaVuSans" font-size="10.00">cv_Species.h</text>
</a>
</g>
<!-- Node4&#45;&gt;Node8 -->
<g id="edge16" class="edge"><title>Node4&#45;&gt;Node8</title>
<path fill="none" stroke="midnightblue" d="M554.038,-180.268C611.502,-174.395 691.573,-162.062 711,-138 725.968,-119.461 702.684,-98.7566 681.106,-84.9085"/>
<polygon fill="midnightblue" stroke="midnightblue" points="682.75,-81.8116 672.389,-79.5987 679.109,-87.7899 682.75,-81.8116"/>
</g>
<!-- Node9 -->
<g id="node19" class="node"><title>Node9</title>
<a xlink:href="cv___trait_detail_8h.html" target="_top" xlink:title="cv_TraitDetail.h">
<polygon fill="white" stroke="black" points="495.5,-116.5 495.5,-137.5 584.5,-137.5 584.5,-116.5 495.5,-116.5"/>
<text text-anchor="middle" x="540" y="-124.5" font-family="DejaVuSans" font-size="10.00">cv_TraitDetail.h</text>
</a>
</g>
<!-- Node4&#45;&gt;Node9 -->
<g id="edge20" class="edge"><title>Node4&#45;&gt;Node9</title>
<path fill="none" stroke="midnightblue" d="M501.621,-174.362C508.18,-166.268 517.366,-154.932 525.106,-145.38"/>
<polygon fill="midnightblue" stroke="midnightblue" points="527.858,-147.544 531.434,-137.571 522.419,-143.136 527.858,-147.544"/>
</g>
<!-- Node10 -->
<g id="node25" class="node"><title>Node10</title>
<a xlink:href="cv___abstract_trait_8h.html" target="_top" xlink:title="cv_AbstractTrait.h">
<polygon fill="white" stroke="black" points="601.5,-116.5 601.5,-137.5 702.5,-137.5 702.5,-116.5 601.5,-116.5"/>
<text text-anchor="middle" x="652" y="-124.5" font-family="DejaVuSans" font-size="10.00">cv_AbstractTrait.h</text>
</a>
</g>
<!-- Node4&#45;&gt;Node10 -->
<g id="edge30" class="edge"><title>Node4&#45;&gt;Node10</title>
<path fill="none" stroke="midnightblue" d="M521.794,-174.497C547.491,-165.123 585.318,-151.324 613.587,-141.012"/>
<polygon fill="midnightblue" stroke="midnightblue" points="614.957,-144.238 623.152,-137.523 612.558,-137.662 614.957,-144.238"/>
</g>
<!-- Node8&#45;&gt;Node3 -->
<g id="edge18" class="edge"><title>Node8&#45;&gt;Node3</title>
<path fill="none" stroke="midnightblue" d="M631.718,-58.4966C614.382,-49.5194 589.21,-36.4835 569.62,-26.3387"/>
<polygon fill="midnightblue" stroke="midnightblue" points="570.999,-23.1118 560.51,-21.6212 567.78,-29.3278 570.999,-23.1118"/>
</g>
<!-- Node9&#45;&gt;Node3 -->
<g id="edge22" class="edge"><title>Node9&#45;&gt;Node3</title>
<path fill="none" stroke="midnightblue" d="M540,-116.295C540,-97.1314 540,-56.654 540,-31.8434"/>
<polygon fill="midnightblue" stroke="midnightblue" points="543.5,-31.6792 540,-21.6792 536.5,-31.6792 543.5,-31.6792"/>
</g>
<!-- Node9&#45;&gt;Node6 -->
<g id="edge24" class="edge"><title>Node9&#45;&gt;Node6</title>
<path fill="none" stroke="midnightblue" d="M528.995,-116.362C520.453,-108.104 508.42,-96.4725 498.417,-86.8029"/>
<polygon fill="midnightblue" stroke="midnightblue" points="500.558,-84.0044 490.935,-79.5707 495.692,-89.0374 500.558,-84.0044"/>
</g>
<!-- Node9&#45;&gt;Node7 -->
<g id="edge26" class="edge"><title>Node9&#45;&gt;Node7</title>
<path fill="none" stroke="midnightblue" d="M496.176,-116.497C452.707,-106.078 386.431,-90.1942 342.669,-79.7058"/>
<polygon fill="midnightblue" stroke="midnightblue" points="343.414,-76.2854 332.874,-77.3582 341.783,-83.0926 343.414,-76.2854"/>
</g>
<!-- Node9&#45;&gt;Node8 -->
<g id="edge28" class="edge"><title>Node9&#45;&gt;Node8</title>
<path fill="none" stroke="midnightblue" d="M560.282,-116.497C577.618,-107.519 602.79,-94.4835 622.38,-84.3387"/>
<polygon fill="midnightblue" stroke="midnightblue" points="624.22,-87.3278 631.49,-79.6212 621.001,-81.1118 624.22,-87.3278"/>
</g>
<!-- Node10&#45;&gt;Node3 -->
<g id="edge32" class="edge"><title>Node10&#45;&gt;Node3</title>
<path fill="none" stroke="midnightblue" d="M640.793,-116.322C630.968,-106.891 616.365,-92.7038 604,-80 587.615,-63.1654 569.446,-43.4752 556.666,-29.4475"/>
<polygon fill="midnightblue" stroke="midnightblue" points="559.133,-26.9569 549.819,-21.9069 553.951,-31.6629 559.133,-26.9569"/>
</g>
<!-- Node10&#45;&gt;Node8 -->
<g id="edge34" class="edge"><title>Node10&#45;&gt;Node8</title>
<path fill="none" stroke="midnightblue" d="M652,-116.362C652,-108.922 652,-98.7427 652,-89.7276"/>
<polygon fill="midnightblue" stroke="midnightblue" points="655.5,-89.5706 652,-79.5707 648.5,-89.5707 655.5,-89.5706"/>
</g>
<!-- Node11&#45;&gt;Node3 -->
<g id="edge38" class="edge"><title>Node11&#45;&gt;Node3</title>
<path fill="none" stroke="midnightblue" d="M134.173,-59.7954C138.851,-59.1797 143.495,-58.5759 148,-58 278.633,-41.2996 433.991,-23.1925 503.375,-15.1976"/>
<polygon fill="midnightblue" stroke="midnightblue" points="503.831,-18.6682 513.365,-14.0478 503.031,-11.7141 503.831,-18.6682"/>
</g>
<!-- Node12&#45;&gt;Node3 -->
<g id="edge44" class="edge"><title>Node12&#45;&gt;Node3</title>
<path fill="none" stroke="midnightblue" d="M225.643,-174.407C209.275,-166.959 190.525,-155.209 181,-138 158.459,-97.2737 232.469,-59.3403 235,-58 280.937,-33.6749 432.462,-19.2229 503.12,-13.6522"/>
<polygon fill="midnightblue" stroke="midnightblue" points="503.636,-17.1229 513.338,-12.8643 503.098,-10.1436 503.636,-17.1229"/>
</g>
<!-- Node12&#45;&gt;Node7 -->
<g id="edge42" class="edge"><title>Node12&#45;&gt;Node7</title>
<path fill="none" stroke="midnightblue" d="M259.876,-174.295C266.877,-154.959 281.735,-113.923 290.695,-89.1767"/>
<polygon fill="midnightblue" stroke="midnightblue" points="294.02,-90.2734 294.133,-79.6792 287.438,-87.8903 294.02,-90.2734"/>
</g>
<!-- Node13 -->
<g id="node36" class="node"><title>Node13</title>
<a xlink:href="cv___name_8h.html" target="_top" xlink:title="cv_Name.h">
<polygon fill="white" stroke="black" points="189.5,-116.5 189.5,-137.5 260.5,-137.5 260.5,-116.5 189.5,-116.5"/>
<text text-anchor="middle" x="225" y="-124.5" font-family="DejaVuSans" font-size="10.00">cv_Name.h</text>
</a>
</g>
<!-- Node12&#45;&gt;Node13 -->
<g id="edge46" class="edge"><title>Node12&#45;&gt;Node13</title>
<path fill="none" stroke="midnightblue" d="M250.314,-174.362C246.163,-166.595 240.416,-155.843 235.447,-146.546"/>
<polygon fill="midnightblue" stroke="midnightblue" points="238.45,-144.74 230.65,-137.571 232.277,-148.04 238.45,-144.74"/>
</g>
<!-- Node13&#45;&gt;Node3 -->
<g id="edge50" class="edge"><title>Node13&#45;&gt;Node3</title>
<path fill="none" stroke="midnightblue" d="M226.414,-116.446C229.077,-101.009 236.352,-72.5343 255,-58 293.014,-28.3721 434.617,-16.739 502.819,-12.7814"/>
<polygon fill="midnightblue" stroke="midnightblue" points="503.317,-16.2592 513.108,-12.2105 502.929,-9.26996 503.317,-16.2592"/>
</g>
<!-- Node13&#45;&gt;Node7 -->
<g id="edge48" class="edge"><title>Node13&#45;&gt;Node7</title>
<path fill="none" stroke="midnightblue" d="M238.389,-116.362C249.091,-107.859 264.296,-95.7785 276.671,-85.9466"/>
<polygon fill="midnightblue" stroke="midnightblue" points="279.043,-88.5318 284.696,-79.5707 274.689,-83.0511 279.043,-88.5318"/>
</g>
<!-- Node14&#45;&gt;Node3 -->
<g id="edge54" class="edge"><title>Node14&#45;&gt;Node3</title>
<path fill="none" stroke="midnightblue" d="M919.691,-174.315C939.773,-160.814 967.926,-136.824 953,-116 908.698,-54.1921 669.218,-23.9412 576.599,-14.4223"/>
<polygon fill="midnightblue" stroke="midnightblue" points="576.865,-10.9314 566.565,-13.4135 576.164,-17.8963 576.865,-10.9314"/>
</g>
<!-- Node15 -->
<g id="node43" class="node"><title>Node15</title>
<polygon fill="white" stroke="#bfbfbf" points="833.5,-116.5 833.5,-137.5 882.5,-137.5 882.5,-116.5 833.5,-116.5"/>
<text text-anchor="middle" x="858" y="-124.5" font-family="DejaVuSans" font-size="10.00">QColor</text>
</g>
<!-- Node14&#45;&gt;Node15 -->
<g id="edge56" class="edge"><title>Node14&#45;&gt;Node15</title>
<path fill="none" stroke="midnightblue" d="M893.93,-174.362C887.851,-166.35 879.363,-155.161 872.163,-145.67"/>
<polygon fill="midnightblue" stroke="midnightblue" points="874.851,-143.422 866.019,-137.571 869.275,-147.653 874.851,-143.422"/>
</g>
<!-- Node16 -->
<g id="node45" class="node"><title>Node16</title>
<polygon fill="white" stroke="#bfbfbf" points="899.5,-116.5 899.5,-137.5 944.5,-137.5 944.5,-116.5 899.5,-116.5"/>
<text text-anchor="middle" x="922" y="-124.5" font-family="DejaVuSans" font-size="10.00">QFont</text>
</g>
<!-- Node14&#45;&gt;Node16 -->
<g id="edge58" class="edge"><title>Node14&#45;&gt;Node16</title>
<path fill="none" stroke="midnightblue" d="M905.668,-174.362C908.29,-166.758 911.899,-156.294 915.057,-147.135"/>
<polygon fill="midnightblue" stroke="midnightblue" points="918.404,-148.165 918.355,-137.571 911.786,-145.883 918.404,-148.165"/>
</g>
<!-- Node17&#45;&gt;Node8 -->
<g id="edge62" class="edge"><title>Node17&#45;&gt;Node8</title>
<path fill="none" stroke="midnightblue" d="M777.86,-232.309C772.717,-208.891 757.744,-152.266 727,-116 715.833,-102.827 700.017,-92.1624 685.785,-84.3421"/>
<polygon fill="midnightblue" stroke="midnightblue" points="687.212,-81.1386 676.727,-79.616 683.974,-87.3447 687.212,-81.1386"/>
</g>
</g>
</svg>
