<?xml version="1.0" encoding="UTF-8" standalone="no"?>
<!DOCTYPE svg PUBLIC "-//W3C//DTD SVG 1.1//EN"
 "http://www.w3.org/Graphics/SVG/1.1/DTD/svg11.dtd">
<!-- Generated by graphviz version 2.26.3 (20100126.1600)
 -->
<!-- Title: G Pages: 1 -->
<svg width="151pt" height="88pt"
 viewBox="0.00 0.00 151.00 88.00" xmlns="http://www.w3.org/2000/svg" xmlns:xlink="http://www.w3.org/1999/xlink">
<g id="graph1" class="graph" transform="scale(1 1) rotate(0) translate(4 84)">
<title>G</title>
<polygon fill="white" stroke="white" points="-4,5 -4,-84 148,-84 148,5 -4,5"/>
<!-- Node1 -->
<g id="node1" class="node"><title>Node1</title>
<polygon fill="#bfbfbf" stroke="black" points="3,-58.5 3,-79.5 143,-79.5 143,-58.5 3,-58.5"/>
<text text-anchor="middle" x="73" y="-66.5" font-family="DejaVuSans" font-size="10.00">src/Datatypes/cv_Name.h</text>
</g>
<!-- Node2 -->
<g id="node3" class="node"><title>Node2</title>
<polygon fill="white" stroke="#bfbfbf" points="-0.5,-0.5 -0.5,-21.5 68.5,-21.5 68.5,-0.5 -0.5,-0.5"/>
<text text-anchor="middle" x="34" y="-8.5" font-family="DejaVuSans" font-size="10.00">QStringList</text>
</g>
<!-- Node1&#45;&gt;Node2 -->
<g id="edge2" class="edge"><title>Node1&#45;&gt;Node2</title>
<path fill="none" stroke="midnightblue" d="M65.8468,-58.3619C60.5142,-50.4313 53.0888,-39.3885 46.7494,-29.9606"/>
<polygon fill="midnightblue" stroke="midnightblue" points="49.5923,-27.9161 41.1079,-21.5707 43.7834,-31.8221 49.5923,-27.9161"/>
</g>
<!-- Node3 -->
<g id="node5" class="node"><title>Node3</title>
<polygon fill="white" stroke="#bfbfbf" points="85.5,-0.5 85.5,-21.5 138.5,-21.5 138.5,-0.5 85.5,-0.5"/>
<text text-anchor="middle" x="112" y="-8.5" font-family="DejaVuSans" font-size="10.00">QString</text>
</g>
<!-- Node1&#45;&gt;Node3 -->
<g id="edge4" class="edge"><title>Node1&#45;&gt;Node3</title>
<path fill="none" stroke="midnightblue" d="M80.1532,-58.3619C85.4858,-50.4313 92.9112,-39.3885 99.2506,-29.9606"/>
<polygon fill="midnightblue" stroke="midnightblue" points="102.217,-31.8221 104.892,-21.5707 96.4077,-27.9161 102.217,-31.8221"/>
</g>
</g>
</svg>
