<?xml version="1.0" encoding="UTF-8" standalone="no"?>
<!DOCTYPE svg PUBLIC "-//W3C//DTD SVG 1.1//EN"
 "http://www.w3.org/Graphics/SVG/1.1/DTD/svg11.dtd">
<!-- Generated by graphviz version 2.26.3 (20100126.1600)
 -->
<!-- Title: G Pages: 1 -->
<svg width="455pt" height="204pt"
 viewBox="0.00 0.00 455.00 204.00" xmlns="http://www.w3.org/2000/svg" xmlns:xlink="http://www.w3.org/1999/xlink">
<g id="graph1" class="graph" transform="scale(1 1) rotate(0) translate(4 200)">
<title>G</title>
<polygon fill="white" stroke="white" points="-4,5 -4,-200 452,-200 452,5 -4,5"/>
<!-- Node1 -->
<g id="node1" class="node"><title>Node1</title>
<polygon fill="#bfbfbf" stroke="black" points="166.5,-174.5 166.5,-195.5 297.5,-195.5 297.5,-174.5 166.5,-174.5"/>
<text text-anchor="middle" x="232" y="-182.5" font-family="DejaVuSans" font-size="10.00">src/Datatypes/cv_Trait.h</text>
</g>
<!-- Node2 -->
<g id="node3" class="node"><title>Node2</title>
<polygon fill="white" stroke="#bfbfbf" points="-0.5,-116.5 -0.5,-137.5 48.5,-137.5 48.5,-116.5 -0.5,-116.5"/>
<text text-anchor="middle" x="24" y="-124.5" font-family="DejaVuSans" font-size="10.00">QFlags</text>
</g>
<!-- Node1&#45;&gt;Node2 -->
<g id="edge2" class="edge"><title>Node1&#45;&gt;Node2</title>
<path fill="none" stroke="midnightblue" d="M193.479,-174.492C158.998,-165.053 107.08,-150.756 62,-138 60.7733,-137.653 59.5247,-137.298 58.2638,-136.939"/>
<polygon fill="midnightblue" stroke="midnightblue" points="59.0947,-133.536 48.5173,-134.144 57.165,-140.265 59.0947,-133.536"/>
</g>
<!-- Node3 -->
<g id="node5" class="node"><title>Node3</title>
<polygon fill="white" stroke="#bfbfbf" points="160.5,-0.5 160.5,-21.5 213.5,-21.5 213.5,-0.5 160.5,-0.5"/>
<text text-anchor="middle" x="187" y="-8.5" font-family="DejaVuSans" font-size="10.00">QString</text>
</g>
<!-- Node1&#45;&gt;Node3 -->
<g id="edge4" class="edge"><title>Node1&#45;&gt;Node3</title>
<path fill="none" stroke="midnightblue" d="M182.681,-174.433C147.846,-165.853 105.558,-152.785 95,-138 66.4104,-97.9666 124.01,-51.1778 160.375,-27.113"/>
<polygon fill="midnightblue" stroke="midnightblue" points="162.58,-29.8559 169.097,-21.5024 158.793,-23.9687 162.58,-29.8559"/>
</g>
<!-- Node4 -->
<g id="node7" class="node"><title>Node4</title>
<polygon fill="white" stroke="#bfbfbf" points="320.5,-58.5 320.5,-79.5 361.5,-79.5 361.5,-58.5 320.5,-58.5"/>
<text text-anchor="middle" x="341" y="-66.5" font-family="DejaVuSans" font-size="10.00">QList</text>
</g>
<!-- Node1&#45;&gt;Node4 -->
<g id="edge6" class="edge"><title>Node1&#45;&gt;Node4</title>
<path fill="none" stroke="midnightblue" d="M274.756,-174.495C306.981,-165.611 347.234,-152.106 357,-138 367.106,-123.403 360.724,-103.325 353.238,-88.5901"/>
<polygon fill="midnightblue" stroke="midnightblue" points="356.254,-86.8125 348.32,-79.7903 350.143,-90.2272 356.254,-86.8125"/>
</g>
<!-- Node5 -->
<g id="node9" class="node"><title>Node5</title>
<polygon fill="white" stroke="#bfbfbf" points="378.5,-58.5 378.5,-79.5 447.5,-79.5 447.5,-58.5 378.5,-58.5"/>
<text text-anchor="middle" x="413" y="-66.5" font-family="DejaVuSans" font-size="10.00">QStringList</text>
</g>
<!-- Node1&#45;&gt;Node5 -->
<g id="edge8" class="edge"><title>Node1&#45;&gt;Node5</title>
<path fill="none" stroke="midnightblue" d="M294.381,-174.442C320.805,-167.53 350.594,-156.252 373,-138 388.613,-125.281 399.396,-104.744 405.798,-89.3766"/>
<polygon fill="midnightblue" stroke="midnightblue" points="409.189,-90.3125 409.536,-79.7234 402.661,-87.785 409.189,-90.3125"/>
</g>
<!-- Node6 -->
<g id="node11" class="node"><title>Node6</title>
<a xlink:href="cv___species_8h.html" target="_top" xlink:title="cv_Species.h">
<polygon fill="white" stroke="black" points="184.5,-58.5 184.5,-79.5 263.5,-79.5 263.5,-58.5 184.5,-58.5"/>
<text text-anchor="middle" x="224" y="-66.5" font-family="DejaVuSans" font-size="10.00">cv_Species.h</text>
</a>
</g>
<!-- Node1&#45;&gt;Node6 -->
<g id="edge10" class="edge"><title>Node1&#45;&gt;Node6</title>
<path fill="none" stroke="midnightblue" d="M231.262,-174.295C229.94,-155.131 227.149,-114.654 225.437,-89.8434"/>
<polygon fill="midnightblue" stroke="midnightblue" points="228.916,-89.4147 224.736,-79.6792 221.933,-89.8963 228.916,-89.4147"/>
</g>
<!-- Node7 -->
<g id="node14" class="node"><title>Node7</title>
<a xlink:href="cv___trait_detail_8h.html" target="_top" xlink:title="cv_TraitDetail.h">
<polygon fill="white" stroke="black" points="259.5,-116.5 259.5,-137.5 348.5,-137.5 348.5,-116.5 259.5,-116.5"/>
<text text-anchor="middle" x="304" y="-124.5" font-family="DejaVuSans" font-size="10.00">cv_TraitDetail.h</text>
</a>
</g>
<!-- Node1&#45;&gt;Node7 -->
<g id="edge14" class="edge"><title>Node1&#45;&gt;Node7</title>
<path fill="none" stroke="midnightblue" d="M245.206,-174.362C255.761,-165.859 270.758,-153.779 282.963,-143.947"/>
<polygon fill="midnightblue" stroke="midnightblue" points="285.286,-146.57 290.878,-137.571 280.895,-141.118 285.286,-146.57"/>
</g>
<!-- Node8 -->
<g id="node20" class="node"><title>Node8</title>
<a xlink:href="cv___abstract_trait_8h.html" target="_top" xlink:title="cv_AbstractTrait.h">
<polygon fill="white" stroke="black" points="103.5,-116.5 103.5,-137.5 204.5,-137.5 204.5,-116.5 103.5,-116.5"/>
<text text-anchor="middle" x="154" y="-124.5" font-family="DejaVuSans" font-size="10.00">cv_AbstractTrait.h</text>
</a>
</g>
<!-- Node1&#45;&gt;Node8 -->
<g id="edge24" class="edge"><title>Node1&#45;&gt;Node8</title>
<path fill="none" stroke="midnightblue" d="M217.694,-174.362C206.149,-165.777 189.7,-153.546 176.41,-143.664"/>
<polygon fill="midnightblue" stroke="midnightblue" points="178.329,-140.729 168.216,-137.571 174.152,-146.346 178.329,-140.729"/>
</g>
<!-- Node6&#45;&gt;Node3 -->
<g id="edge12" class="edge"><title>Node6&#45;&gt;Node3</title>
<path fill="none" stroke="midnightblue" d="M217.214,-58.3619C212.207,-50.5131 205.255,-39.6159 199.282,-30.2527"/>
<polygon fill="midnightblue" stroke="midnightblue" points="202.072,-28.1189 193.743,-21.5707 196.171,-31.8837 202.072,-28.1189"/>
</g>
<!-- Node7&#45;&gt;Node3 -->
<g id="edge16" class="edge"><title>Node7&#45;&gt;Node3</title>
<path fill="none" stroke="midnightblue" d="M301.36,-116.476C297.234,-101.839 288.021,-75.1984 272,-58 258.549,-43.5601 239.632,-32.5002 223.058,-24.7477"/>
<polygon fill="midnightblue" stroke="midnightblue" points="224.189,-21.4208 213.629,-20.5648 221.351,-27.8194 224.189,-21.4208"/>
</g>
<!-- Node7&#45;&gt;Node4 -->
<g id="edge18" class="edge"><title>Node7&#45;&gt;Node4</title>
<path fill="none" stroke="midnightblue" d="M310.786,-116.362C315.793,-108.513 322.745,-97.6159 328.718,-88.2527"/>
<polygon fill="midnightblue" stroke="midnightblue" points="331.829,-89.8837 334.257,-79.5707 325.928,-86.1189 331.829,-89.8837"/>
</g>
<!-- Node7&#45;&gt;Node5 -->
<g id="edge20" class="edge"><title>Node7&#45;&gt;Node5</title>
<path fill="none" stroke="midnightblue" d="M323.739,-116.497C340.61,-107.519 365.109,-94.4835 384.174,-84.3387"/>
<polygon fill="midnightblue" stroke="midnightblue" points="385.856,-87.4086 393.039,-79.6212 382.567,-81.2289 385.856,-87.4086"/>
</g>
<!-- Node7&#45;&gt;Node6 -->
<g id="edge22" class="edge"><title>Node7&#45;&gt;Node6</title>
<path fill="none" stroke="midnightblue" d="M289.327,-116.362C277.486,-107.777 260.615,-95.5459 246.984,-85.6636"/>
<polygon fill="midnightblue" stroke="midnightblue" points="248.731,-82.6067 238.58,-79.5707 244.622,-88.274 248.731,-82.6067"/>
</g>
<!-- Node8&#45;&gt;Node3 -->
<g id="edge26" class="edge"><title>Node8&#45;&gt;Node3</title>
<path fill="none" stroke="midnightblue" d="M157.045,-116.295C162.522,-97.0451 174.116,-56.2889 181.166,-31.5091"/>
<polygon fill="midnightblue" stroke="midnightblue" points="184.592,-32.2553 183.962,-21.6792 177.859,-30.3399 184.592,-32.2553"/>
</g>
<!-- Node8&#45;&gt;Node6 -->
<g id="edge28" class="edge"><title>Node8&#45;&gt;Node6</title>
<path fill="none" stroke="midnightblue" d="M166.839,-116.362C177.002,-107.941 191.401,-96.0105 203.204,-86.2308"/>
<polygon fill="midnightblue" stroke="midnightblue" points="205.775,-88.6459 211.242,-79.5707 201.309,-83.2558 205.775,-88.6459"/>
</g>
</g>
</svg>
