<?xml version="1.0" encoding="UTF-8" standalone="no"?>
<!DOCTYPE svg PUBLIC "-//W3C//DTD SVG 1.1//EN"
 "http://www.w3.org/Graphics/SVG/1.1/DTD/svg11.dtd">
<!-- Generated by graphviz version 2.26.3 (20100126.1600)
 -->
<!-- Title: G Pages: 1 -->
<svg width="952pt" height="320pt"
 viewBox="0.00 0.00 952.00 320.00" xmlns="http://www.w3.org/2000/svg" xmlns:xlink="http://www.w3.org/1999/xlink">
<g id="graph1" class="graph" transform="scale(1 1) rotate(0) translate(4 316)">
<title>G</title>
<polygon fill="white" stroke="white" points="-4,5 -4,-316 949,-316 949,5 -4,5"/>
<!-- Node1 -->
<g id="node1" class="node"><title>Node1</title>
<polygon fill="#bfbfbf" stroke="black" points="251,-290.5 251,-311.5 433,-311.5 433,-290.5 251,-290.5"/>
<text text-anchor="middle" x="342" y="-298.5" font-family="DejaVuSans" font-size="10.00">src/Datatypes/cv_AbstractTrait.cpp</text>
</g>
<!-- Node2 -->
<g id="node3" class="node"><title>Node2</title>
<a xlink:href="_exception_8h_source.html" target="_top" xlink:title="../Exceptions/Exception.h">
<polygon fill="white" stroke="black" points="523,-232.5 523,-253.5 659,-253.5 659,-232.5 523,-232.5"/>
<text text-anchor="middle" x="591" y="-240.5" font-family="DejaVuSans" font-size="10.00">../Exceptions/Exception.h</text>
</a>
</g>
<!-- Node1&#45;&gt;Node2 -->
<g id="edge2" class="edge"><title>Node1&#45;&gt;Node2</title>
<path fill="none" stroke="midnightblue" d="M387.092,-290.497C428.916,-280.755 491.259,-266.233 535.993,-255.813"/>
<polygon fill="midnightblue" stroke="midnightblue" points="536.878,-259.2 545.823,-253.523 535.29,-252.383 536.878,-259.2"/>
</g>
<!-- Node10 -->
<g id="node25" class="node"><title>Node10</title>
<a xlink:href="cv___abstract_trait_8h.html" target="_top" xlink:title="cv_AbstractTrait.h">
<polygon fill="white" stroke="black" points="-0.5,-116.5 -0.5,-137.5 100.5,-137.5 100.5,-116.5 -0.5,-116.5"/>
<text text-anchor="middle" x="50" y="-124.5" font-family="DejaVuSans" font-size="10.00">cv_AbstractTrait.h</text>
</a>
</g>
<!-- Node1&#45;&gt;Node10 -->
<g id="edge60" class="edge"><title>Node1&#45;&gt;Node10</title>
<path fill="none" stroke="midnightblue" d="M324.174,-290.377C274.691,-260.891 135.426,-177.905 76.6758,-142.896"/>
<polygon fill="midnightblue" stroke="midnightblue" points="78.3462,-139.817 67.9641,-137.705 74.7629,-145.83 78.3462,-139.817"/>
</g>
<!-- Node3 -->
<g id="node5" class="node"><title>Node3</title>
<polygon fill="white" stroke="#bfbfbf" points="488.5,-0.5 488.5,-21.5 541.5,-21.5 541.5,-0.5 488.5,-0.5"/>
<text text-anchor="middle" x="515" y="-8.5" font-family="DejaVuSans" font-size="10.00">QString</text>
</g>
<!-- Node2&#45;&gt;Node3 -->
<g id="edge4" class="edge"><title>Node2&#45;&gt;Node3</title>
<path fill="none" stroke="midnightblue" d="M631.602,-232.47C693.636,-214.298 801.031,-173.4 763,-116 715.472,-44.265 608.102,-21.4046 551.5,-14.2209"/>
<polygon fill="midnightblue" stroke="midnightblue" points="551.887,-10.7424 541.547,-13.0537 551.071,-17.6948 551.887,-10.7424"/>
</g>
<!-- Node4 -->
<g id="node7" class="node"><title>Node4</title>
<a xlink:href="cv___trait_8h.html" target="_top" xlink:title="../Datatypes/cv_Trait.h">
<polygon fill="white" stroke="black" points="251,-174.5 251,-195.5 373,-195.5 373,-174.5 251,-174.5"/>
<text text-anchor="middle" x="312" y="-182.5" font-family="DejaVuSans" font-size="10.00">../Datatypes/cv_Trait.h</text>
</a>
</g>
<!-- Node2&#45;&gt;Node4 -->
<g id="edge6" class="edge"><title>Node2&#45;&gt;Node4</title>
<path fill="none" stroke="midnightblue" d="M540.475,-232.497C493.317,-222.693 422.876,-208.05 372.69,-197.616"/>
<polygon fill="midnightblue" stroke="midnightblue" points="373.123,-194.132 362.62,-195.523 371.698,-200.985 373.123,-194.132"/>
</g>
<!-- Node11 -->
<g id="node29" class="node"><title>Node11</title>
<a xlink:href="cv___shape_8h.html" target="_top" xlink:title="../Datatypes/cv_Shape.h">
<polygon fill="white" stroke="black" points="810,-58.5 810,-79.5 944,-79.5 944,-58.5 810,-58.5"/>
<text text-anchor="middle" x="877" y="-66.5" font-family="DejaVuSans" font-size="10.00">../Datatypes/cv_Shape.h</text>
</a>
</g>
<!-- Node2&#45;&gt;Node11 -->
<g id="edge36" class="edge"><title>Node2&#45;&gt;Node11</title>
<path fill="none" stroke="midnightblue" d="M659.176,-233.063C709.948,-224.623 774.105,-211.441 796,-196 834.28,-169.005 858.646,-117.613 869.829,-89.1793"/>
<polygon fill="midnightblue" stroke="midnightblue" points="873.223,-90.0966 873.471,-79.5047 866.672,-87.6305 873.223,-90.0966"/>
</g>
<!-- Node12 -->
<g id="node32" class="node"><title>Node12</title>
<a xlink:href="cv___identity_8h.html" target="_top" xlink:title="../Datatypes/cv_Identity.h">
<polygon fill="white" stroke="black" points="450.5,-174.5 450.5,-195.5 587.5,-195.5 587.5,-174.5 450.5,-174.5"/>
<text text-anchor="middle" x="519" y="-182.5" font-family="DejaVuSans" font-size="10.00">../Datatypes/cv_Identity.h</text>
</a>
</g>
<!-- Node2&#45;&gt;Node12 -->
<g id="edge40" class="edge"><title>Node2&#45;&gt;Node12</title>
<path fill="none" stroke="midnightblue" d="M577.794,-232.362C567.239,-223.859 552.242,-211.779 540.037,-201.947"/>
<polygon fill="midnightblue" stroke="midnightblue" points="542.105,-199.118 532.122,-195.571 537.714,-204.57 542.105,-199.118"/>
</g>
<!-- Node14 -->
<g id="node40" class="node"><title>Node14</title>
<a xlink:href="_config_8h.html" target="_top" xlink:title="../Config/Config.h">
<polygon fill="white" stroke="black" points="614,-174.5 614,-195.5 712,-195.5 712,-174.5 614,-174.5"/>
<text text-anchor="middle" x="663" y="-182.5" font-family="DejaVuSans" font-size="10.00">../Config/Config.h</text>
</a>
</g>
<!-- Node2&#45;&gt;Node14 -->
<g id="edge52" class="edge"><title>Node2&#45;&gt;Node14</title>
<path fill="none" stroke="midnightblue" d="M604.206,-232.362C614.761,-223.859 629.758,-211.779 641.963,-201.947"/>
<polygon fill="midnightblue" stroke="midnightblue" points="644.286,-204.57 649.878,-195.571 639.895,-199.118 644.286,-204.57"/>
</g>
<!-- Node4&#45;&gt;Node3 -->
<g id="edge10" class="edge"><title>Node4&#45;&gt;Node3</title>
<path fill="none" stroke="midnightblue" d="M316.975,-174.271C328.596,-150.276 359.779,-91.7413 402,-58 424.511,-40.01 454.886,-27.8901 478.475,-20.4698"/>
<polygon fill="midnightblue" stroke="midnightblue" points="479.553,-23.8003 488.126,-17.574 477.542,-17.0956 479.553,-23.8003"/>
</g>
<!-- Node5 -->
<g id="node9" class="node"><title>Node5</title>
<polygon fill="white" stroke="#bfbfbf" points="261.5,-116.5 261.5,-137.5 310.5,-137.5 310.5,-116.5 261.5,-116.5"/>
<text text-anchor="middle" x="286" y="-124.5" font-family="DejaVuSans" font-size="10.00">QFlags</text>
</g>
<!-- Node4&#45;&gt;Node5 -->
<g id="edge8" class="edge"><title>Node4&#45;&gt;Node5</title>
<path fill="none" stroke="midnightblue" d="M307.231,-174.362C303.786,-166.677 299.031,-156.069 294.894,-146.84"/>
<polygon fill="midnightblue" stroke="midnightblue" points="298.023,-145.264 290.739,-137.571 291.635,-148.127 298.023,-145.264"/>
</g>
<!-- Node6 -->
<g id="node12" class="node"><title>Node6</title>
<polygon fill="white" stroke="#bfbfbf" points="304.5,-58.5 304.5,-79.5 345.5,-79.5 345.5,-58.5 304.5,-58.5"/>
<text text-anchor="middle" x="325" y="-66.5" font-family="DejaVuSans" font-size="10.00">QList</text>
</g>
<!-- Node4&#45;&gt;Node6 -->
<g id="edge12" class="edge"><title>Node4&#45;&gt;Node6</title>
<path fill="none" stroke="midnightblue" d="M313.801,-174.198C315.34,-164.688 317.533,-150.453 319,-138 320.891,-121.953 322.45,-103.741 323.504,-90.0586"/>
<polygon fill="midnightblue" stroke="midnightblue" points="327.018,-90.009 324.268,-79.7773 320.037,-89.4907 327.018,-90.009"/>
</g>
<!-- Node7 -->
<g id="node14" class="node"><title>Node7</title>
<polygon fill="white" stroke="#bfbfbf" points="410.5,-58.5 410.5,-79.5 479.5,-79.5 479.5,-58.5 410.5,-58.5"/>
<text text-anchor="middle" x="445" y="-66.5" font-family="DejaVuSans" font-size="10.00">QStringList</text>
</g>
<!-- Node4&#45;&gt;Node7 -->
<g id="edge14" class="edge"><title>Node4&#45;&gt;Node7</title>
<path fill="none" stroke="midnightblue" d="M334.241,-174.326C350.657,-165.827 373.004,-152.909 390,-138 406.785,-123.276 422.285,-102.952 432.523,-88.1773"/>
<polygon fill="midnightblue" stroke="midnightblue" points="435.488,-90.0412 438.182,-79.7946 429.686,-86.1246 435.488,-90.0412"/>
</g>
<!-- Node8 -->
<g id="node16" class="node"><title>Node8</title>
<a xlink:href="cv___species_8h.html" target="_top" xlink:title="cv_Species.h">
<polygon fill="white" stroke="black" points="139.5,-58.5 139.5,-79.5 218.5,-79.5 218.5,-58.5 139.5,-58.5"/>
<text text-anchor="middle" x="179" y="-66.5" font-family="DejaVuSans" font-size="10.00">cv_Species.h</text>
</a>
</g>
<!-- Node4&#45;&gt;Node8 -->
<g id="edge16" class="edge"><title>Node4&#45;&gt;Node8</title>
<path fill="none" stroke="midnightblue" d="M250.999,-175.464C209.463,-167.582 159.787,-154.937 147,-138 135.185,-122.35 147.845,-101.639 160.561,-87.0038"/>
<polygon fill="midnightblue" stroke="midnightblue" points="163.228,-89.2754 167.476,-79.5694 158.102,-84.508 163.228,-89.2754"/>
</g>
<!-- Node9 -->
<g id="node19" class="node"><title>Node9</title>
<a xlink:href="cv___trait_detail_8h.html" target="_top" xlink:title="cv_TraitDetail.h">
<polygon fill="white" stroke="black" points="155.5,-116.5 155.5,-137.5 244.5,-137.5 244.5,-116.5 155.5,-116.5"/>
<text text-anchor="middle" x="200" y="-124.5" font-family="DejaVuSans" font-size="10.00">cv_TraitDetail.h</text>
</a>
</g>
<!-- Node4&#45;&gt;Node9 -->
<g id="edge20" class="edge"><title>Node4&#45;&gt;Node9</title>
<path fill="none" stroke="midnightblue" d="M291.718,-174.497C274.382,-165.519 249.21,-152.484 229.62,-142.339"/>
<polygon fill="midnightblue" stroke="midnightblue" points="230.999,-139.112 220.51,-137.621 227.78,-145.328 230.999,-139.112"/>
</g>
<!-- Node4&#45;&gt;Node10 -->
<g id="edge30" class="edge"><title>Node4&#45;&gt;Node10</title>
<path fill="none" stroke="midnightblue" d="M264.554,-174.497C220.454,-164.734 154.672,-150.172 107.583,-139.747"/>
<polygon fill="midnightblue" stroke="midnightblue" points="108.055,-136.267 97.5352,-137.523 106.542,-143.102 108.055,-136.267"/>
</g>
<!-- Node8&#45;&gt;Node3 -->
<g id="edge18" class="edge"><title>Node8&#45;&gt;Node3</title>
<path fill="none" stroke="midnightblue" d="M218.532,-62.1761C284.098,-50.8581 414.42,-28.3621 478.162,-17.3589"/>
<polygon fill="midnightblue" stroke="midnightblue" points="478.907,-20.7822 488.166,-15.6321 477.716,-13.8842 478.907,-20.7822"/>
</g>
<!-- Node9&#45;&gt;Node3 -->
<g id="edge22" class="edge"><title>Node9&#45;&gt;Node3</title>
<path fill="none" stroke="midnightblue" d="M211.429,-116.326C228.485,-101.003 262.225,-72.9737 296,-58 356.556,-31.1529 433.489,-19.2243 478.192,-14.2474"/>
<polygon fill="midnightblue" stroke="midnightblue" points="478.72,-17.7112 488.297,-13.1804 477.985,-10.7499 478.72,-17.7112"/>
</g>
<!-- Node9&#45;&gt;Node6 -->
<g id="edge24" class="edge"><title>Node9&#45;&gt;Node6</title>
<path fill="none" stroke="midnightblue" d="M222.637,-116.497C242.861,-107.113 272.643,-93.2938 294.875,-82.9781"/>
<polygon fill="midnightblue" stroke="midnightblue" points="296.595,-86.0383 304.193,-78.6543 293.649,-79.6885 296.595,-86.0383"/>
</g>
<!-- Node9&#45;&gt;Node7 -->
<g id="edge26" class="edge"><title>Node9&#45;&gt;Node7</title>
<path fill="none" stroke="midnightblue" d="M244.368,-116.497C288.631,-106.018 356.254,-90.0093 400.548,-79.5234"/>
<polygon fill="midnightblue" stroke="midnightblue" points="401.527,-82.8884 410.452,-77.1788 399.914,-76.0767 401.527,-82.8884"/>
</g>
<!-- Node9&#45;&gt;Node8 -->
<g id="edge28" class="edge"><title>Node9&#45;&gt;Node8</title>
<path fill="none" stroke="midnightblue" d="M196.148,-116.362C193.395,-108.758 189.606,-98.294 186.29,-89.1349"/>
<polygon fill="midnightblue" stroke="midnightblue" points="189.523,-87.7818 182.827,-79.5707 182.941,-90.1649 189.523,-87.7818"/>
</g>
<!-- Node10&#45;&gt;Node3 -->
<g id="edge32" class="edge"><title>Node10&#45;&gt;Node3</title>
<path fill="none" stroke="midnightblue" d="M58.6746,-116.425C72.2624,-100.688 100.215,-71.515 131,-58 192.851,-30.8465 394.577,-17.3471 478.184,-12.8088"/>
<polygon fill="midnightblue" stroke="midnightblue" points="478.443,-16.3001 488.243,-12.2753 478.072,-9.30994 478.443,-16.3001"/>
</g>
<!-- Node10&#45;&gt;Node8 -->
<g id="edge34" class="edge"><title>Node10&#45;&gt;Node8</title>
<path fill="none" stroke="midnightblue" d="M73.3609,-116.497C93.6906,-107.356 123.378,-94.0082 146.109,-83.7883"/>
<polygon fill="midnightblue" stroke="midnightblue" points="147.692,-86.9142 155.377,-79.6212 144.821,-80.5298 147.692,-86.9142"/>
</g>
<!-- Node11&#45;&gt;Node3 -->
<g id="edge38" class="edge"><title>Node11&#45;&gt;Node3</title>
<path fill="none" stroke="midnightblue" d="M811.445,-58.4966C735.366,-46.3072 612.585,-26.6351 551.685,-16.8777"/>
<polygon fill="midnightblue" stroke="midnightblue" points="552.185,-13.4133 541.758,-15.2871 551.078,-20.3252 552.185,-13.4133"/>
</g>
<!-- Node12&#45;&gt;Node3 -->
<g id="edge44" class="edge"><title>Node12&#45;&gt;Node3</title>
<path fill="none" stroke="midnightblue" d="M532.21,-174.198C541.682,-165.541 553.672,-152.48 559,-138 562.376,-128.824 560.927,-125.586 559,-116 552.706,-84.6937 536.831,-51.0818 525.976,-30.5435"/>
<polygon fill="midnightblue" stroke="midnightblue" points="528.958,-28.7005 521.114,-21.5786 522.805,-32.0377 528.958,-28.7005"/>
</g>
<!-- Node12&#45;&gt;Node7 -->
<g id="edge42" class="edge"><title>Node12&#45;&gt;Node7</title>
<path fill="none" stroke="midnightblue" d="M505.183,-174.323C494.609,-165.542 480.305,-152.261 471,-138 461.3,-123.135 454.48,-104.131 450.266,-89.8318"/>
<polygon fill="midnightblue" stroke="midnightblue" points="453.577,-88.6725 447.547,-79.9612 446.829,-90.5316 453.577,-88.6725"/>
</g>
<!-- Node13 -->
<g id="node36" class="node"><title>Node13</title>
<a xlink:href="cv___name_8h.html" target="_top" xlink:title="cv_Name.h">
<polygon fill="white" stroke="black" points="479.5,-116.5 479.5,-137.5 550.5,-137.5 550.5,-116.5 479.5,-116.5"/>
<text text-anchor="middle" x="515" y="-124.5" font-family="DejaVuSans" font-size="10.00">cv_Name.h</text>
</a>
</g>
<!-- Node12&#45;&gt;Node13 -->
<g id="edge46" class="edge"><title>Node12&#45;&gt;Node13</title>
<path fill="none" stroke="midnightblue" d="M518.266,-174.362C517.753,-166.922 517.051,-156.743 516.429,-147.728"/>
<polygon fill="midnightblue" stroke="midnightblue" points="519.909,-147.306 515.729,-137.571 512.925,-147.788 519.909,-147.306"/>
</g>
<!-- Node13&#45;&gt;Node3 -->
<g id="edge50" class="edge"><title>Node13&#45;&gt;Node3</title>
<path fill="none" stroke="midnightblue" d="M515,-116.295C515,-97.1314 515,-56.654 515,-31.8434"/>
<polygon fill="midnightblue" stroke="midnightblue" points="518.5,-31.6792 515,-21.6792 511.5,-31.6792 518.5,-31.6792"/>
</g>
<!-- Node13&#45;&gt;Node7 -->
<g id="edge48" class="edge"><title>Node13&#45;&gt;Node7</title>
<path fill="none" stroke="midnightblue" d="M502.161,-116.362C491.998,-107.941 477.599,-96.0105 465.796,-86.2308"/>
<polygon fill="midnightblue" stroke="midnightblue" points="467.691,-83.2558 457.758,-79.5707 463.225,-88.6459 467.691,-83.2558"/>
</g>
<!-- Node14&#45;&gt;Node3 -->
<g id="edge54" class="edge"><title>Node14&#45;&gt;Node3</title>
<path fill="none" stroke="midnightblue" d="M654.465,-174.313C636.8,-152.276 594.801,-100.306 558,-58 549.553,-48.2894 539.9,-37.6948 531.883,-29.0267"/>
<polygon fill="midnightblue" stroke="midnightblue" points="534.433,-26.6299 525.061,-21.6884 529.306,-31.3957 534.433,-26.6299"/>
</g>
<!-- Node15 -->
<g id="node43" class="node"><title>Node15</title>
<polygon fill="white" stroke="#bfbfbf" points="643.5,-116.5 643.5,-137.5 692.5,-137.5 692.5,-116.5 643.5,-116.5"/>
<text text-anchor="middle" x="668" y="-124.5" font-family="DejaVuSans" font-size="10.00">QColor</text>
</g>
<!-- Node14&#45;&gt;Node15 -->
<g id="edge56" class="edge"><title>Node14&#45;&gt;Node15</title>
<path fill="none" stroke="midnightblue" d="M663.917,-174.362C664.558,-166.922 665.436,-156.743 666.213,-147.728"/>
<polygon fill="midnightblue" stroke="midnightblue" points="669.717,-147.834 667.089,-137.571 662.743,-147.233 669.717,-147.834"/>
</g>
<!-- Node16 -->
<g id="node45" class="node"><title>Node16</title>
<polygon fill="white" stroke="#bfbfbf" points="709.5,-116.5 709.5,-137.5 754.5,-137.5 754.5,-116.5 709.5,-116.5"/>
<text text-anchor="middle" x="732" y="-124.5" font-family="DejaVuSans" font-size="10.00">QFont</text>
</g>
<!-- Node14&#45;&gt;Node16 -->
<g id="edge58" class="edge"><title>Node14&#45;&gt;Node16</title>
<path fill="none" stroke="midnightblue" d="M675.656,-174.362C685.674,-165.941 699.867,-154.011 711.501,-144.231"/>
<polygon fill="midnightblue" stroke="midnightblue" points="714.022,-146.684 719.425,-137.571 709.518,-141.326 714.022,-146.684"/>
</g>
</g>
</svg>
