<?xml version="1.0" encoding="UTF-8" standalone="no"?>
<!DOCTYPE svg PUBLIC "-//W3C//DTD SVG 1.1//EN"
 "http://www.w3.org/Graphics/SVG/1.1/DTD/svg11.dtd">
<!-- Generated by graphviz version 2.26.3 (20100126.1600)
 -->
<!-- Title: G Pages: 1 -->
<svg width="312pt" height="146pt"
 viewBox="0.00 0.00 312.00 146.00" xmlns="http://www.w3.org/2000/svg" xmlns:xlink="http://www.w3.org/1999/xlink">
<g id="graph1" class="graph" transform="scale(1 1) rotate(0) translate(4 142)">
<title>G</title>
<polygon fill="white" stroke="white" points="-4,5 -4,-142 309,-142 309,5 -4,5"/>
<!-- Node1 -->
<g id="node1" class="node"><title>Node1</title>
<polygon fill="#bfbfbf" stroke="black" points="9.5,-116.5 9.5,-137.5 218.5,-137.5 218.5,-116.5 9.5,-116.5"/>
<text text-anchor="middle" x="114" y="-124.5" font-family="DejaVuSans" font-size="10.00">src/Datatypes/cv_CreationPointsList.cpp</text>
</g>
<!-- Node2 -->
<g id="node3" class="node"><title>Node2</title>
<polygon fill="white" stroke="#bfbfbf" points="-0.5,-58.5 -0.5,-79.5 68.5,-79.5 68.5,-58.5 -0.5,-58.5"/>
<text text-anchor="middle" x="34" y="-66.5" font-family="DejaVuSans" font-size="10.00">QStringList</text>
</g>
<!-- Node1&#45;&gt;Node2 -->
<g id="edge2" class="edge"><title>Node1&#45;&gt;Node2</title>
<path fill="none" stroke="midnightblue" d="M99.3268,-116.362C87.4859,-107.777 70.615,-95.5459 56.9842,-85.6636"/>
<polygon fill="midnightblue" stroke="midnightblue" points="58.7307,-82.6067 48.5802,-79.5707 54.6219,-88.274 58.7307,-82.6067"/>
</g>
<!-- Node3 -->
<g id="node5" class="node"><title>Node3</title>
<polygon fill="white" stroke="#bfbfbf" points="86,-58.5 86,-79.5 142,-79.5 142,-58.5 86,-58.5"/>
<text text-anchor="middle" x="114" y="-66.5" font-family="DejaVuSans" font-size="10.00">QDebug</text>
</g>
<!-- Node1&#45;&gt;Node3 -->
<g id="edge4" class="edge"><title>Node1&#45;&gt;Node3</title>
<path fill="none" stroke="midnightblue" d="M114,-116.362C114,-108.922 114,-98.7427 114,-89.7276"/>
<polygon fill="midnightblue" stroke="midnightblue" points="117.5,-89.5706 114,-79.5707 110.5,-89.5707 117.5,-89.5706"/>
</g>
<!-- Node4 -->
<g id="node7" class="node"><title>Node4</title>
<a xlink:href="cv___creation_points_list_8h.html" target="_top" xlink:title="cv_CreationPointsList.h">
<polygon fill="white" stroke="black" points="160,-58.5 160,-79.5 288,-79.5 288,-58.5 160,-58.5"/>
<text text-anchor="middle" x="224" y="-66.5" font-family="DejaVuSans" font-size="10.00">cv_CreationPointsList.h</text>
</a>
</g>
<!-- Node1&#45;&gt;Node4 -->
<g id="edge6" class="edge"><title>Node1&#45;&gt;Node4</title>
<path fill="none" stroke="midnightblue" d="M133.92,-116.497C150.946,-107.519 175.669,-94.4835 194.909,-84.3387"/>
<polygon fill="midnightblue" stroke="midnightblue" points="196.643,-87.3814 203.856,-79.6212 193.378,-81.1894 196.643,-87.3814"/>
</g>
<!-- Node5 -->
<g id="node9" class="node"><title>Node5</title>
<polygon fill="white" stroke="#bfbfbf" points="82,-0.5 82,-21.5 246,-21.5 246,-0.5 82,-0.5"/>
<text text-anchor="middle" x="164" y="-8.5" font-family="DejaVuSans" font-size="10.00">Datatypes/cv_CreationPoints.h</text>
</g>
<!-- Node4&#45;&gt;Node5 -->
<g id="edge8" class="edge"><title>Node4&#45;&gt;Node5</title>
<path fill="none" stroke="midnightblue" d="M212.995,-58.3619C204.453,-50.1043 192.42,-38.4725 182.417,-28.8029"/>
<polygon fill="midnightblue" stroke="midnightblue" points="184.558,-26.0044 174.935,-21.5707 179.692,-31.0374 184.558,-26.0044"/>
</g>
<!-- Node6 -->
<g id="node11" class="node"><title>Node6</title>
<polygon fill="white" stroke="#bfbfbf" points="263.5,-0.5 263.5,-21.5 304.5,-21.5 304.5,-0.5 263.5,-0.5"/>
<text text-anchor="middle" x="284" y="-8.5" font-family="DejaVuSans" font-size="10.00">QList</text>
</g>
<!-- Node4&#45;&gt;Node6 -->
<g id="edge10" class="edge"><title>Node4&#45;&gt;Node6</title>
<path fill="none" stroke="midnightblue" d="M235.005,-58.3619C243.547,-50.1043 255.58,-38.4725 265.583,-28.8029"/>
<polygon fill="midnightblue" stroke="midnightblue" points="268.308,-31.0374 273.065,-21.5707 263.442,-26.0044 268.308,-31.0374"/>
</g>
</g>
</svg>
