<?xml version="1.0" encoding="UTF-8" standalone="no"?>
<!DOCTYPE svg PUBLIC "-//W3C//DTD SVG 1.1//EN"
 "http://www.w3.org/Graphics/SVG/1.1/DTD/svg11.dtd">
<!-- Generated by graphviz version 2.26.3 (20100126.1600)
 -->
<!-- Title: G Pages: 1 -->
<svg width="368pt" height="88pt"
 viewBox="0.00 0.00 368.00 88.00" xmlns="http://www.w3.org/2000/svg" xmlns:xlink="http://www.w3.org/1999/xlink">
<g id="graph1" class="graph" transform="scale(1 1) rotate(0) translate(4 84)">
<title>G</title>
<polygon fill="white" stroke="white" points="-4,5 -4,-84 365,-84 365,5 -4,5"/>
<!-- Node1 -->
<g id="node1" class="node"><title>Node1</title>
<polygon fill="#bfbfbf" stroke="black" points="32.5,-58.5 32.5,-79.5 213.5,-79.5 213.5,-58.5 32.5,-58.5"/>
<text text-anchor="middle" x="123" y="-66.5" font-family="DejaVuSans" font-size="10.00">src/Datatypes/cv_CreationPoints.h</text>
</g>
<!-- Node2 -->
<g id="node3" class="node"><title>Node2</title>
<polygon fill="white" stroke="#bfbfbf" points="-0.5,-0.5 -0.5,-21.5 40.5,-21.5 40.5,-0.5 -0.5,-0.5"/>
<text text-anchor="middle" x="20" y="-8.5" font-family="DejaVuSans" font-size="10.00">QList</text>
</g>
<!-- Node1&#45;&gt;Node2 -->
<g id="edge2" class="edge"><title>Node1&#45;&gt;Node2</title>
<path fill="none" stroke="midnightblue" d="M104.108,-58.3619C88.2823,-49.4502 65.4774,-36.6087 47.6053,-26.5447"/>
<polygon fill="midnightblue" stroke="midnightblue" points="49.2029,-23.4276 38.772,-21.5707 45.7682,-29.5271 49.2029,-23.4276"/>
</g>
<!-- Node3 -->
<g id="node5" class="node"><title>Node3</title>
<polygon fill="white" stroke="#bfbfbf" points="57.5,-0.5 57.5,-21.5 188.5,-21.5 188.5,-0.5 57.5,-0.5"/>
<text text-anchor="middle" x="123" y="-8.5" font-family="DejaVuSans" font-size="10.00">Datatypes/cv_Species.h</text>
</g>
<!-- Node1&#45;&gt;Node3 -->
<g id="edge4" class="edge"><title>Node1&#45;&gt;Node3</title>
<path fill="none" stroke="midnightblue" d="M123,-58.3619C123,-50.9219 123,-40.7427 123,-31.7276"/>
<polygon fill="midnightblue" stroke="midnightblue" points="126.5,-31.5706 123,-21.5707 119.5,-31.5707 126.5,-31.5706"/>
</g>
<!-- Node4 -->
<g id="node7" class="node"><title>Node4</title>
<polygon fill="white" stroke="#bfbfbf" points="206,-0.5 206,-21.5 360,-21.5 360,-0.5 206,-0.5"/>
<text text-anchor="middle" x="283" y="-8.5" font-family="DejaVuSans" font-size="10.00">Datatypes/cv_AbstractTrait.h</text>
</g>
<!-- Node1&#45;&gt;Node4 -->
<g id="edge6" class="edge"><title>Node1&#45;&gt;Node4</title>
<path fill="none" stroke="midnightblue" d="M151.975,-58.4966C177.833,-49.1229 215.899,-35.3242 244.346,-25.0122"/>
<polygon fill="midnightblue" stroke="midnightblue" points="245.762,-28.2216 253.971,-21.5231 243.377,-21.6406 245.762,-28.2216"/>
</g>
</g>
</svg>
