<?xml version="1.0" encoding="UTF-8" standalone="no"?>
<!DOCTYPE svg PUBLIC "-//W3C//DTD SVG 1.1//EN"
 "http://www.w3.org/Graphics/SVG/1.1/DTD/svg11.dtd">
<!-- Generated by graphviz version 2.26.3 (20100126.1600)
 -->
<!-- Title: G Pages: 1 -->
<svg width="190pt" height="204pt"
 viewBox="0.00 0.00 190.00 204.00" xmlns="http://www.w3.org/2000/svg" xmlns:xlink="http://www.w3.org/1999/xlink">
<g id="graph1" class="graph" transform="scale(1 1) rotate(0) translate(4 200)">
<title>G</title>
<polygon fill="white" stroke="white" points="-4,5 -4,-200 187,-200 187,5 -4,5"/>
<!-- Node1 -->
<g id="node1" class="node"><title>Node1</title>
<polygon fill="#bfbfbf" stroke="black" points="5,-174.5 5,-195.5 173,-195.5 173,-174.5 5,-174.5"/>
<text text-anchor="middle" x="89" y="-182.5" font-family="DejaVuSans" font-size="10.00">src/Datatypes/cv_NameList.cpp</text>
</g>
<!-- Node2 -->
<g id="node3" class="node"><title>Node2</title>
<a xlink:href="cv___name_list_8h.html" target="_top" xlink:title="cv_NameList.h">
<polygon fill="white" stroke="black" points="45.5,-116.5 45.5,-137.5 132.5,-137.5 132.5,-116.5 45.5,-116.5"/>
<text text-anchor="middle" x="89" y="-124.5" font-family="DejaVuSans" font-size="10.00">cv_NameList.h</text>
</a>
</g>
<!-- Node1&#45;&gt;Node2 -->
<g id="edge2" class="edge"><title>Node1&#45;&gt;Node2</title>
<path fill="none" stroke="midnightblue" d="M89,-174.362C89,-166.922 89,-156.743 89,-147.728"/>
<polygon fill="midnightblue" stroke="midnightblue" points="92.5001,-147.571 89,-137.571 85.5001,-147.571 92.5001,-147.571"/>
</g>
<!-- Node3 -->
<g id="node5" class="node"><title>Node3</title>
<polygon fill="white" stroke="#bfbfbf" points="-0.5,-0.5 -0.5,-21.5 52.5,-21.5 52.5,-0.5 -0.5,-0.5"/>
<text text-anchor="middle" x="26" y="-8.5" font-family="DejaVuSans" font-size="10.00">QString</text>
</g>
<!-- Node2&#45;&gt;Node3 -->
<g id="edge4" class="edge"><title>Node2&#45;&gt;Node3</title>
<path fill="none" stroke="midnightblue" d="M76.0272,-116.311C66.1645,-107.523 52.9747,-94.2377 45,-80 36.6636,-65.1165 31.804,-46.3507 29.0897,-32.1479"/>
<polygon fill="midnightblue" stroke="midnightblue" points="32.4737,-31.1693 27.3475,-21.8972 25.5727,-32.3423 32.4737,-31.1693"/>
</g>
<!-- Node4 -->
<g id="node7" class="node"><title>Node4</title>
<a xlink:href="cv___name_8h.html" target="_top" xlink:title="cv_Name.h">
<polygon fill="white" stroke="black" points="53.5,-58.5 53.5,-79.5 124.5,-79.5 124.5,-58.5 53.5,-58.5"/>
<text text-anchor="middle" x="89" y="-66.5" font-family="DejaVuSans" font-size="10.00">cv_Name.h</text>
</a>
</g>
<!-- Node2&#45;&gt;Node4 -->
<g id="edge6" class="edge"><title>Node2&#45;&gt;Node4</title>
<path fill="none" stroke="midnightblue" d="M89,-116.362C89,-108.922 89,-98.7427 89,-89.7276"/>
<polygon fill="midnightblue" stroke="midnightblue" points="92.5001,-89.5706 89,-79.5707 85.5001,-89.5707 92.5001,-89.5706"/>
</g>
<!-- Node6 -->
<g id="node12" class="node"><title>Node6</title>
<polygon fill="white" stroke="#bfbfbf" points="141.5,-58.5 141.5,-79.5 182.5,-79.5 182.5,-58.5 141.5,-58.5"/>
<text text-anchor="middle" x="162" y="-66.5" font-family="DejaVuSans" font-size="10.00">QList</text>
</g>
<!-- Node2&#45;&gt;Node6 -->
<g id="edge12" class="edge"><title>Node2&#45;&gt;Node6</title>
<path fill="none" stroke="midnightblue" d="M102.389,-116.362C113.091,-107.859 128.296,-95.7785 140.671,-85.9466"/>
<polygon fill="midnightblue" stroke="midnightblue" points="143.043,-88.5318 148.696,-79.5707 138.689,-83.0511 143.043,-88.5318"/>
</g>
<!-- Node4&#45;&gt;Node3 -->
<g id="edge10" class="edge"><title>Node4&#45;&gt;Node3</title>
<path fill="none" stroke="midnightblue" d="M77.4448,-58.3619C68.3866,-50.0226 55.5903,-38.2418 45.0263,-28.5162"/>
<polygon fill="midnightblue" stroke="midnightblue" points="47.2095,-25.7688 37.4819,-21.5707 42.4683,-30.9187 47.2095,-25.7688"/>
</g>
<!-- Node5 -->
<g id="node9" class="node"><title>Node5</title>
<polygon fill="white" stroke="#bfbfbf" points="69.5,-0.5 69.5,-21.5 138.5,-21.5 138.5,-0.5 69.5,-0.5"/>
<text text-anchor="middle" x="104" y="-8.5" font-family="DejaVuSans" font-size="10.00">QStringList</text>
</g>
<!-- Node4&#45;&gt;Node5 -->
<g id="edge8" class="edge"><title>Node4&#45;&gt;Node5</title>
<path fill="none" stroke="midnightblue" d="M91.7512,-58.3619C93.6965,-50.8401 96.3659,-40.5187 98.7162,-31.4308"/>
<polygon fill="midnightblue" stroke="midnightblue" points="102.151,-32.1285 101.266,-21.5707 95.3738,-30.3758 102.151,-32.1285"/>
</g>
</g>
</svg>
