<?xml version="1.0" encoding="UTF-8" standalone="no"?>
<!DOCTYPE svg PUBLIC "-//W3C//DTD SVG 1.1//EN"
 "http://www.w3.org/Graphics/SVG/1.1/DTD/svg11.dtd">
<!-- Generated by graphviz version 2.26.3 (20100126.1600)
 -->
<!-- Title: G Pages: 1 -->
<svg width="224pt" height="146pt"
 viewBox="0.00 0.00 224.00 146.00" xmlns="http://www.w3.org/2000/svg" xmlns:xlink="http://www.w3.org/1999/xlink">
<g id="graph1" class="graph" transform="scale(1 1) rotate(0) translate(4 142)">
<title>G</title>
<polygon fill="white" stroke="white" points="-4,5 -4,-142 221,-142 221,5 -4,5"/>
<!-- Node1 -->
<g id="node1" class="node"><title>Node1</title>
<polygon fill="#bfbfbf" stroke="black" points="6,-116.5 6,-137.5 198,-137.5 198,-116.5 6,-116.5"/>
<text text-anchor="middle" x="102" y="-124.5" font-family="DejaVuSans" font-size="10.00">src/Datatypes/cv_CreationPoints.cpp</text>
</g>
<!-- Node2 -->
<g id="node3" class="node"><title>Node2</title>
<polygon fill="white" stroke="#bfbfbf" points="-0.5,-58.5 -0.5,-79.5 88.5,-79.5 88.5,-58.5 -0.5,-58.5"/>
<text text-anchor="middle" x="44" y="-66.5" font-family="DejaVuSans" font-size="10.00">Config/Config.h</text>
</g>
<!-- Node1&#45;&gt;Node2 -->
<g id="edge2" class="edge"><title>Node1&#45;&gt;Node2</title>
<path fill="none" stroke="midnightblue" d="M91.3619,-116.362C83.1043,-108.104 71.4725,-96.4725 61.8029,-86.8029"/>
<polygon fill="midnightblue" stroke="midnightblue" points="64.1166,-84.1669 54.5707,-79.5707 59.1669,-89.1166 64.1166,-84.1669"/>
</g>
<!-- Node3 -->
<g id="node5" class="node"><title>Node3</title>
<a xlink:href="cv___creation_points_8h.html" target="_top" xlink:title="cv_CreationPoints.h">
<polygon fill="white" stroke="black" points="105.5,-58.5 105.5,-79.5 216.5,-79.5 216.5,-58.5 105.5,-58.5"/>
<text text-anchor="middle" x="161" y="-66.5" font-family="DejaVuSans" font-size="10.00">cv_CreationPoints.h</text>
</a>
</g>
<!-- Node1&#45;&gt;Node3 -->
<g id="edge4" class="edge"><title>Node1&#45;&gt;Node3</title>
<path fill="none" stroke="midnightblue" d="M112.822,-116.362C121.221,-108.104 133.054,-96.4725 142.89,-86.8029"/>
<polygon fill="midnightblue" stroke="midnightblue" points="145.569,-89.077 150.247,-79.5707 140.662,-84.0851 145.569,-89.077"/>
</g>
<!-- Node4 -->
<g id="node7" class="node"><title>Node4</title>
<polygon fill="white" stroke="#bfbfbf" points="134.5,-0.5 134.5,-21.5 187.5,-21.5 187.5,-0.5 134.5,-0.5"/>
<text text-anchor="middle" x="161" y="-8.5" font-family="DejaVuSans" font-size="10.00">QString</text>
</g>
<!-- Node3&#45;&gt;Node4 -->
<g id="edge6" class="edge"><title>Node3&#45;&gt;Node4</title>
<path fill="none" stroke="midnightblue" d="M161,-58.3619C161,-50.9219 161,-40.7427 161,-31.7276"/>
<polygon fill="midnightblue" stroke="midnightblue" points="164.5,-31.5706 161,-21.5707 157.5,-31.5707 164.5,-31.5706"/>
</g>
</g>
</svg>
