<?xml version="1.0" encoding="UTF-8" standalone="no"?>
<!DOCTYPE svg PUBLIC "-//W3C//DTD SVG 1.1//EN"
 "http://www.w3.org/Graphics/SVG/1.1/DTD/svg11.dtd">
<!-- Generated by graphviz version 2.26.3 (20100126.1600)
 -->
<!-- Title: G Pages: 1 -->
<svg width="174pt" height="146pt"
 viewBox="0.00 0.00 174.00 146.00" xmlns="http://www.w3.org/2000/svg" xmlns:xlink="http://www.w3.org/1999/xlink">
<g id="graph1" class="graph" transform="scale(1 1) rotate(0) translate(4 142)">
<title>G</title>
<polygon fill="white" stroke="white" points="-4,5 -4,-142 171,-142 171,5 -4,5"/>
<!-- Node1 -->
<g id="node1" class="node"><title>Node1</title>
<polygon fill="#bfbfbf" stroke="black" points="-0.5,-116.5 -0.5,-137.5 166.5,-137.5 166.5,-116.5 -0.5,-116.5"/>
<text text-anchor="middle" x="83" y="-124.5" font-family="DejaVuSans" font-size="10.00">src/Datatypes/cv_SuperEffect.h</text>
</g>
<!-- Node2 -->
<g id="node3" class="node"><title>Node2</title>
<a xlink:href="cv___species_8h.html" target="_top" xlink:title="cv_Species.h">
<polygon fill="white" stroke="black" points="43.5,-58.5 43.5,-79.5 122.5,-79.5 122.5,-58.5 43.5,-58.5"/>
<text text-anchor="middle" x="83" y="-66.5" font-family="DejaVuSans" font-size="10.00">cv_Species.h</text>
</a>
</g>
<!-- Node1&#45;&gt;Node2 -->
<g id="edge2" class="edge"><title>Node1&#45;&gt;Node2</title>
<path fill="none" stroke="midnightblue" d="M83,-116.362C83,-108.922 83,-98.7427 83,-89.7276"/>
<polygon fill="midnightblue" stroke="midnightblue" points="86.5001,-89.5706 83,-79.5707 79.5001,-89.5707 86.5001,-89.5706"/>
</g>
<!-- Node3 -->
<g id="node5" class="node"><title>Node3</title>
<polygon fill="white" stroke="#bfbfbf" points="56.5,-0.5 56.5,-21.5 109.5,-21.5 109.5,-0.5 56.5,-0.5"/>
<text text-anchor="middle" x="83" y="-8.5" font-family="DejaVuSans" font-size="10.00">QString</text>
</g>
<!-- Node2&#45;&gt;Node3 -->
<g id="edge4" class="edge"><title>Node2&#45;&gt;Node3</title>
<path fill="none" stroke="midnightblue" d="M83,-58.3619C83,-50.9219 83,-40.7427 83,-31.7276"/>
<polygon fill="midnightblue" stroke="midnightblue" points="86.5001,-31.5706 83,-21.5707 79.5001,-31.5707 86.5001,-31.5706"/>
</g>
</g>
</svg>
