<?xml version="1.0" encoding="UTF-8" standalone="no"?>
<!DOCTYPE svg PUBLIC "-//W3C//DTD SVG 1.1//EN"
 "http://www.w3.org/Graphics/SVG/1.1/DTD/svg11.dtd">
<!-- Generated by graphviz version 2.26.3 (20100126.1600)
 -->
<!-- Title: G Pages: 1 -->
<svg width="186pt" height="204pt"
 viewBox="0.00 0.00 186.00 204.00" xmlns="http://www.w3.org/2000/svg" xmlns:xlink="http://www.w3.org/1999/xlink">
<g id="graph1" class="graph" transform="scale(1 1) rotate(0) translate(4 200)">
<title>G</title>
<polygon fill="white" stroke="white" points="-4,5 -4,-200 183,-200 183,5 -4,5"/>
<!-- Node1 -->
<g id="node1" class="node"><title>Node1</title>
<polygon fill="#bfbfbf" stroke="black" points="0,-174.5 0,-195.5 178,-195.5 178,-174.5 0,-174.5"/>
<text text-anchor="middle" x="89" y="-182.5" font-family="DejaVuSans" font-size="10.00">src/Datatypes/cv_SuperEffect.cpp</text>
</g>
<!-- Node2 -->
<g id="node3" class="node"><title>Node2</title>
<a xlink:href="cv___super_effect_8h.html" target="_top" xlink:title="cv_SuperEffect.h">
<polygon fill="white" stroke="black" points="40.5,-116.5 40.5,-137.5 137.5,-137.5 137.5,-116.5 40.5,-116.5"/>
<text text-anchor="middle" x="89" y="-124.5" font-family="DejaVuSans" font-size="10.00">cv_SuperEffect.h</text>
</a>
</g>
<!-- Node1&#45;&gt;Node2 -->
<g id="edge2" class="edge"><title>Node1&#45;&gt;Node2</title>
<path fill="none" stroke="midnightblue" d="M89,-174.362C89,-166.922 89,-156.743 89,-147.728"/>
<polygon fill="midnightblue" stroke="midnightblue" points="92.5001,-147.571 89,-137.571 85.5001,-147.571 92.5001,-147.571"/>
</g>
<!-- Node3 -->
<g id="node5" class="node"><title>Node3</title>
<a xlink:href="cv___species_8h.html" target="_top" xlink:title="cv_Species.h">
<polygon fill="white" stroke="black" points="49.5,-58.5 49.5,-79.5 128.5,-79.5 128.5,-58.5 49.5,-58.5"/>
<text text-anchor="middle" x="89" y="-66.5" font-family="DejaVuSans" font-size="10.00">cv_Species.h</text>
</a>
</g>
<!-- Node2&#45;&gt;Node3 -->
<g id="edge4" class="edge"><title>Node2&#45;&gt;Node3</title>
<path fill="none" stroke="midnightblue" d="M89,-116.362C89,-108.922 89,-98.7427 89,-89.7276"/>
<polygon fill="midnightblue" stroke="midnightblue" points="92.5001,-89.5706 89,-79.5707 85.5001,-89.5707 92.5001,-89.5706"/>
</g>
<!-- Node4 -->
<g id="node7" class="node"><title>Node4</title>
<polygon fill="white" stroke="#bfbfbf" points="62.5,-0.5 62.5,-21.5 115.5,-21.5 115.5,-0.5 62.5,-0.5"/>
<text text-anchor="middle" x="89" y="-8.5" font-family="DejaVuSans" font-size="10.00">QString</text>
</g>
<!-- Node3&#45;&gt;Node4 -->
<g id="edge6" class="edge"><title>Node3&#45;&gt;Node4</title>
<path fill="none" stroke="midnightblue" d="M89,-58.3619C89,-50.9219 89,-40.7427 89,-31.7276"/>
<polygon fill="midnightblue" stroke="midnightblue" points="92.5001,-31.5706 89,-21.5707 85.5001,-31.5707 92.5001,-31.5706"/>
</g>
</g>
</svg>
