<?xml version="1.0" encoding="UTF-8" standalone="no"?>
<!DOCTYPE svg PUBLIC "-//W3C//DTD SVG 1.1//EN"
 "http://www.w3.org/Graphics/SVG/1.1/DTD/svg11.dtd">
<!-- Generated by graphviz version 2.26.3 (20100126.1600)
 -->
<!-- Title: G Pages: 1 -->
<svg width="184pt" height="204pt"
 viewBox="0.00 0.00 184.00 204.00" xmlns="http://www.w3.org/2000/svg" xmlns:xlink="http://www.w3.org/1999/xlink">
<g id="graph1" class="graph" transform="scale(1 1) rotate(0) translate(4 200)">
<title>G</title>
<polygon fill="white" stroke="white" points="-4,5 -4,-200 181,-200 181,5 -4,5"/>
<!-- Node1 -->
<g id="node1" class="node"><title>Node1</title>
<polygon fill="#bfbfbf" stroke="black" points="-0.5,-174.5 -0.5,-195.5 162.5,-195.5 162.5,-174.5 -0.5,-174.5"/>
<text text-anchor="middle" x="81" y="-182.5" font-family="DejaVuSans" font-size="10.00">src/Datatypes/cv_IdentityList.h</text>
</g>
<!-- Node2 -->
<g id="node3" class="node"><title>Node2</title>
<polygon fill="white" stroke="#bfbfbf" points="9.5,-0.5 9.5,-21.5 62.5,-21.5 62.5,-0.5 9.5,-0.5"/>
<text text-anchor="middle" x="36" y="-8.5" font-family="DejaVuSans" font-size="10.00">QString</text>
</g>
<!-- Node1&#45;&gt;Node2 -->
<g id="edge2" class="edge"><title>Node1&#45;&gt;Node2</title>
<path fill="none" stroke="midnightblue" d="M65.4015,-174.271C54.6072,-165.831 41.1238,-153.012 35,-138 20.6442,-102.808 26.0744,-57.4283 31.154,-31.536"/>
<polygon fill="midnightblue" stroke="midnightblue" points="34.5848,-32.2294 33.2508,-21.7189 27.7392,-30.7673 34.5848,-32.2294"/>
</g>
<!-- Node3 -->
<g id="node5" class="node"><title>Node3</title>
<a xlink:href="cv___identity_8h.html" target="_top" xlink:title="cv_Identity.h">
<polygon fill="white" stroke="black" points="43.5,-116.5 43.5,-137.5 118.5,-137.5 118.5,-116.5 43.5,-116.5"/>
<text text-anchor="middle" x="81" y="-124.5" font-family="DejaVuSans" font-size="10.00">cv_Identity.h</text>
</a>
</g>
<!-- Node1&#45;&gt;Node3 -->
<g id="edge4" class="edge"><title>Node1&#45;&gt;Node3</title>
<path fill="none" stroke="midnightblue" d="M81,-174.362C81,-166.922 81,-156.743 81,-147.728"/>
<polygon fill="midnightblue" stroke="midnightblue" points="84.5001,-147.571 81,-137.571 77.5001,-147.571 84.5001,-147.571"/>
</g>
<!-- Node6 -->
<g id="node14" class="node"><title>Node6</title>
<polygon fill="white" stroke="#bfbfbf" points="135.5,-116.5 135.5,-137.5 176.5,-137.5 176.5,-116.5 135.5,-116.5"/>
<text text-anchor="middle" x="156" y="-124.5" font-family="DejaVuSans" font-size="10.00">QList</text>
</g>
<!-- Node1&#45;&gt;Node6 -->
<g id="edge16" class="edge"><title>Node1&#45;&gt;Node6</title>
<path fill="none" stroke="midnightblue" d="M94.7562,-174.362C105.751,-165.859 121.373,-153.779 134.086,-143.947"/>
<polygon fill="midnightblue" stroke="midnightblue" points="136.562,-146.457 142.331,-137.571 132.279,-140.919 136.562,-146.457"/>
</g>
<!-- Node3&#45;&gt;Node2 -->
<g id="edge8" class="edge"><title>Node3&#45;&gt;Node2</title>
<path fill="none" stroke="midnightblue" d="M74.0338,-116.161C68.2981,-106.863 60.279,-92.9531 55,-80 48.5617,-64.2024 43.5643,-45.503 40.3141,-31.5583"/>
<polygon fill="midnightblue" stroke="midnightblue" points="43.6739,-30.5432 38.0879,-21.5406 36.8406,-32.0618 43.6739,-30.5432"/>
</g>
<!-- Node4 -->
<g id="node7" class="node"><title>Node4</title>
<polygon fill="white" stroke="#bfbfbf" points="103.5,-0.5 103.5,-21.5 172.5,-21.5 172.5,-0.5 103.5,-0.5"/>
<text text-anchor="middle" x="138" y="-8.5" font-family="DejaVuSans" font-size="10.00">QStringList</text>
</g>
<!-- Node3&#45;&gt;Node4 -->
<g id="edge6" class="edge"><title>Node3&#45;&gt;Node4</title>
<path fill="none" stroke="midnightblue" d="M104.022,-116.371C118.089,-108.508 134.887,-96.3304 143,-80 150.409,-65.0856 148.326,-46.0855 144.859,-31.8008"/>
<polygon fill="midnightblue" stroke="midnightblue" points="148.16,-30.6132 142.072,-21.9422 141.424,-32.5172 148.16,-30.6132"/>
</g>
<!-- Node5 -->
<g id="node10" class="node"><title>Node5</title>
<a xlink:href="cv___name_8h.html" target="_top" xlink:title="cv_Name.h">
<polygon fill="white" stroke="black" points="63.5,-58.5 63.5,-79.5 134.5,-79.5 134.5,-58.5 63.5,-58.5"/>
<text text-anchor="middle" x="99" y="-66.5" font-family="DejaVuSans" font-size="10.00">cv_Name.h</text>
</a>
</g>
<!-- Node3&#45;&gt;Node5 -->
<g id="edge10" class="edge"><title>Node3&#45;&gt;Node5</title>
<path fill="none" stroke="midnightblue" d="M84.3015,-116.362C86.6612,-108.758 89.9088,-98.294 92.7512,-89.1349"/>
<polygon fill="midnightblue" stroke="midnightblue" points="96.0981,-90.1587 95.7195,-79.5707 89.4127,-88.0839 96.0981,-90.1587"/>
</g>
<!-- Node5&#45;&gt;Node2 -->
<g id="edge14" class="edge"><title>Node5&#45;&gt;Node2</title>
<path fill="none" stroke="midnightblue" d="M87.4448,-58.3619C78.3866,-50.0226 65.5903,-38.2418 55.0263,-28.5162"/>
<polygon fill="midnightblue" stroke="midnightblue" points="57.2095,-25.7688 47.4819,-21.5707 52.4683,-30.9187 57.2095,-25.7688"/>
</g>
<!-- Node5&#45;&gt;Node4 -->
<g id="edge12" class="edge"><title>Node5&#45;&gt;Node4</title>
<path fill="none" stroke="midnightblue" d="M106.153,-58.3619C111.486,-50.4313 118.911,-39.3885 125.251,-29.9606"/>
<polygon fill="midnightblue" stroke="midnightblue" points="128.217,-31.8221 130.892,-21.5707 122.408,-27.9161 128.217,-31.8221"/>
</g>
</g>
</svg>
