<?xml version="1.0" encoding="UTF-8" standalone="no"?>
<!DOCTYPE svg PUBLIC "-//W3C//DTD SVG 1.1//EN"
 "http://www.w3.org/Graphics/SVG/1.1/DTD/svg11.dtd">
<!-- Generated by graphviz version 2.26.3 (20100126.1600)
 -->
<!-- Title: G Pages: 1 -->
<svg width="273pt" height="204pt"
 viewBox="0.00 0.00 273.00 204.00" xmlns="http://www.w3.org/2000/svg" xmlns:xlink="http://www.w3.org/1999/xlink">
<g id="graph1" class="graph" transform="scale(1 1) rotate(0) translate(4 200)">
<title>G</title>
<polygon fill="white" stroke="white" points="-4,5 -4,-200 270,-200 270,5 -4,5"/>
<!-- Node1 -->
<g id="node1" class="node"><title>Node1</title>
<polygon fill="#bfbfbf" stroke="black" points="38.5,-174.5 38.5,-195.5 217.5,-195.5 217.5,-174.5 38.5,-174.5"/>
<text text-anchor="middle" x="128" y="-182.5" font-family="DejaVuSans" font-size="10.00">src/Datatypes/cv_SpeciesTitle.cpp</text>
</g>
<!-- Node2 -->
<g id="node3" class="node"><title>Node2</title>
<polygon fill="white" stroke="#bfbfbf" points="-0.5,-116.5 -0.5,-137.5 126.5,-137.5 126.5,-116.5 -0.5,-116.5"/>
<text text-anchor="middle" x="63" y="-124.5" font-family="DejaVuSans" font-size="10.00">Exceptions/Exception.h</text>
</g>
<!-- Node1&#45;&gt;Node2 -->
<g id="edge2" class="edge"><title>Node1&#45;&gt;Node2</title>
<path fill="none" stroke="midnightblue" d="M116.078,-174.362C106.641,-165.941 93.2704,-154.011 82.3104,-144.231"/>
<polygon fill="midnightblue" stroke="midnightblue" points="84.6381,-141.617 74.8464,-137.571 79.9776,-146.84 84.6381,-141.617"/>
</g>
<!-- Node3 -->
<g id="node5" class="node"><title>Node3</title>
<a xlink:href="cv___species_title_8h.html" target="_top" xlink:title="cv_SpeciesTitle.h">
<polygon fill="white" stroke="black" points="144,-116.5 144,-137.5 242,-137.5 242,-116.5 144,-116.5"/>
<text text-anchor="middle" x="193" y="-124.5" font-family="DejaVuSans" font-size="10.00">cv_SpeciesTitle.h</text>
</a>
</g>
<!-- Node1&#45;&gt;Node3 -->
<g id="edge4" class="edge"><title>Node1&#45;&gt;Node3</title>
<path fill="none" stroke="midnightblue" d="M139.922,-174.362C149.359,-165.941 162.73,-154.011 173.69,-144.231"/>
<polygon fill="midnightblue" stroke="midnightblue" points="176.022,-146.84 181.154,-137.571 171.362,-141.617 176.022,-146.84"/>
</g>
<!-- Node4 -->
<g id="node7" class="node"><title>Node4</title>
<polygon fill="white" stroke="#bfbfbf" points="165.5,-0.5 165.5,-21.5 218.5,-21.5 218.5,-0.5 165.5,-0.5"/>
<text text-anchor="middle" x="192" y="-8.5" font-family="DejaVuSans" font-size="10.00">QString</text>
</g>
<!-- Node3&#45;&gt;Node4 -->
<g id="edge6" class="edge"><title>Node3&#45;&gt;Node4</title>
<path fill="none" stroke="midnightblue" d="M188.576,-116.401C184.916,-107.021 180.003,-92.8641 178,-80 175.448,-63.6083 179.536,-45.2036 183.942,-31.5273"/>
<polygon fill="midnightblue" stroke="midnightblue" points="187.383,-32.2965 187.422,-21.7018 180.784,-29.9593 187.383,-32.2965"/>
</g>
<!-- Node5 -->
<g id="node9" class="node"><title>Node5</title>
<a xlink:href="cv___species_8h.html" target="_top" xlink:title="cv_Species.h">
<polygon fill="white" stroke="black" points="186.5,-58.5 186.5,-79.5 265.5,-79.5 265.5,-58.5 186.5,-58.5"/>
<text text-anchor="middle" x="226" y="-66.5" font-family="DejaVuSans" font-size="10.00">cv_Species.h</text>
</a>
</g>
<!-- Node3&#45;&gt;Node5 -->
<g id="edge8" class="edge"><title>Node3&#45;&gt;Node5</title>
<path fill="none" stroke="midnightblue" d="M199.053,-116.362C203.472,-108.595 209.59,-97.8426 214.879,-88.5458"/>
<polygon fill="midnightblue" stroke="midnightblue" points="218.082,-89.9932 219.986,-79.5707 211.998,-86.5315 218.082,-89.9932"/>
</g>
<!-- Node5&#45;&gt;Node4 -->
<g id="edge10" class="edge"><title>Node5&#45;&gt;Node4</title>
<path fill="none" stroke="midnightblue" d="M219.764,-58.3619C215.163,-50.5131 208.775,-39.6159 203.286,-30.2527"/>
<polygon fill="midnightblue" stroke="midnightblue" points="206.273,-28.4276 198.197,-21.5707 200.234,-31.9677 206.273,-28.4276"/>
</g>
</g>
</svg>
