<?xml version="1.0" encoding="UTF-8" standalone="no"?>
<!DOCTYPE svg PUBLIC "-//W3C//DTD SVG 1.1//EN"
 "http://www.w3.org/Graphics/SVG/1.1/DTD/svg11.dtd">
<!-- Generated by graphviz version 2.26.3 (20100126.1600)
 -->
<!-- Title: G Pages: 1 -->
<svg width="965pt" height="320pt"
 viewBox="0.00 0.00 965.34 320.00" xmlns="http://www.w3.org/2000/svg" xmlns:xlink="http://www.w3.org/1999/xlink">
<g id="graph1" class="graph" transform="scale(1 1) rotate(0) translate(4 316)">
<title>G</title>
<polygon fill="white" stroke="white" points="-4,5 -4,-316 962.344,-316 962.344,5 -4,5"/>
<!-- Node1 -->
<g id="node1" class="node"><title>Node1</title>
<polygon fill="#bfbfbf" stroke="black" points="677,-290.5 677,-311.5 837,-311.5 837,-290.5 677,-290.5"/>
<text text-anchor="middle" x="757" y="-298.5" font-family="DejaVuSans" font-size="10.00">src/Datatypes/cv_Species.cpp</text>
</g>
<!-- Node2 -->
<g id="node3" class="node"><title>Node2</title>
<a xlink:href="_exception_8h_source.html" target="_top" xlink:title="../Exceptions/Exception.h">
<polygon fill="white" stroke="black" points="520,-232.5 520,-253.5 656,-253.5 656,-232.5 520,-232.5"/>
<text text-anchor="middle" x="588" y="-240.5" font-family="DejaVuSans" font-size="10.00">../Exceptions/Exception.h</text>
</a>
</g>
<!-- Node1&#45;&gt;Node2 -->
<g id="edge2" class="edge"><title>Node1&#45;&gt;Node2</title>
<path fill="none" stroke="midnightblue" d="M726.395,-290.497C698.963,-281.082 658.524,-267.204 628.436,-256.877"/>
<polygon fill="midnightblue" stroke="midnightblue" points="629.257,-253.459 618.662,-253.523 626.984,-260.08 629.257,-253.459"/>
</g>
<!-- Node8 -->
<g id="node16" class="node"><title>Node8</title>
<a xlink:href="cv___species_8h.html" target="_top" xlink:title="cv_Species.h">
<polygon fill="white" stroke="black" points="612.5,-58.5 612.5,-79.5 691.5,-79.5 691.5,-58.5 612.5,-58.5"/>
<text text-anchor="middle" x="652" y="-66.5" font-family="DejaVuSans" font-size="10.00">cv_Species.h</text>
</a>
</g>
<!-- Node1&#45;&gt;Node8 -->
<g id="edge60" class="edge"><title>Node1&#45;&gt;Node8</title>
<path fill="none" stroke="midnightblue" d="M758.14,-290.312C760.802,-260.112 764.601,-172.662 727,-116 717.8,-102.136 702.965,-91.5917 688.907,-84.0391"/>
<polygon fill="midnightblue" stroke="midnightblue" points="690.357,-80.8511 679.849,-79.5031 687.223,-87.1102 690.357,-80.8511"/>
</g>
<!-- Node3 -->
<g id="node5" class="node"><title>Node3</title>
<polygon fill="white" stroke="#bfbfbf" points="513.5,-0.5 513.5,-21.5 566.5,-21.5 566.5,-0.5 513.5,-0.5"/>
<text text-anchor="middle" x="540" y="-8.5" font-family="DejaVuSans" font-size="10.00">QString</text>
</g>
<!-- Node2&#45;&gt;Node3 -->
<g id="edge4" class="edge"><title>Node2&#45;&gt;Node3</title>
<path fill="none" stroke="midnightblue" d="M617.885,-232.449C662.504,-214.641 739.999,-174.724 727,-116 720.855,-88.238 721.556,-76.5432 700,-58 681.487,-42.0739 617.89,-26.7273 576.669,-18.1128"/>
<polygon fill="midnightblue" stroke="midnightblue" points="577.211,-14.6512 566.712,-16.0714 575.805,-21.5086 577.211,-14.6512"/>
</g>
<!-- Node4 -->
<g id="node7" class="node"><title>Node4</title>
<a xlink:href="cv___trait_8h.html" target="_top" xlink:title="../Datatypes/cv_Trait.h">
<polygon fill="white" stroke="black" points="443,-174.5 443,-195.5 565,-195.5 565,-174.5 443,-174.5"/>
<text text-anchor="middle" x="504" y="-182.5" font-family="DejaVuSans" font-size="10.00">../Datatypes/cv_Trait.h</text>
</a>
</g>
<!-- Node2&#45;&gt;Node4 -->
<g id="edge6" class="edge"><title>Node2&#45;&gt;Node4</title>
<path fill="none" stroke="midnightblue" d="M572.593,-232.362C560.042,-223.696 542.108,-211.313 527.725,-201.382"/>
<polygon fill="midnightblue" stroke="midnightblue" points="529.527,-198.372 519.309,-195.571 525.55,-204.133 529.527,-198.372"/>
</g>
<!-- Node11 -->
<g id="node29" class="node"><title>Node11</title>
<a xlink:href="cv___shape_8h.html" target="_top" xlink:title="../Datatypes/cv_Shape.h">
<polygon fill="white" stroke="black" points="0,-58.5 0,-79.5 134,-79.5 134,-58.5 0,-58.5"/>
<text text-anchor="middle" x="67" y="-66.5" font-family="DejaVuSans" font-size="10.00">../Datatypes/cv_Shape.h</text>
</a>
</g>
<!-- Node2&#45;&gt;Node11 -->
<g id="edge36" class="edge"><title>Node2&#45;&gt;Node11</title>
<path fill="none" stroke="midnightblue" d="M519.868,-240.988C419.503,-237.05 237.577,-225.915 180,-196 132.236,-171.183 95.1749,-117.267 77.8097,-88.3099"/>
<polygon fill="midnightblue" stroke="midnightblue" points="80.7485,-86.4014 72.6886,-79.5247 74.7009,-89.9267 80.7485,-86.4014"/>
</g>
<!-- Node12 -->
<g id="node32" class="node"><title>Node12</title>
<a xlink:href="cv___identity_8h.html" target="_top" xlink:title="../Datatypes/cv_Identity.h">
<polygon fill="white" stroke="black" points="188.5,-174.5 188.5,-195.5 325.5,-195.5 325.5,-174.5 188.5,-174.5"/>
<text text-anchor="middle" x="257" y="-182.5" font-family="DejaVuSans" font-size="10.00">../Datatypes/cv_Identity.h</text>
</a>
</g>
<!-- Node2&#45;&gt;Node12 -->
<g id="edge40" class="edge"><title>Node2&#45;&gt;Node12</title>
<path fill="none" stroke="midnightblue" d="M528.058,-232.497C471.527,-222.591 386.794,-207.743 327.144,-197.291"/>
<polygon fill="midnightblue" stroke="midnightblue" points="327.508,-193.802 317.054,-195.523 326.3,-200.697 327.508,-193.802"/>
</g>
<!-- Node14 -->
<g id="node40" class="node"><title>Node14</title>
<a xlink:href="_config_8h.html" target="_top" xlink:title="../Config/Config.h">
<polygon fill="white" stroke="black" points="853,-174.5 853,-195.5 951,-195.5 951,-174.5 853,-174.5"/>
<text text-anchor="middle" x="902" y="-182.5" font-family="DejaVuSans" font-size="10.00">../Config/Config.h</text>
</a>
</g>
<!-- Node2&#45;&gt;Node14 -->
<g id="edge52" class="edge"><title>Node2&#45;&gt;Node14</title>
<path fill="none" stroke="midnightblue" d="M644.863,-232.497C700.881,-222.149 786.09,-206.41 842.878,-195.921"/>
<polygon fill="midnightblue" stroke="midnightblue" points="843.589,-199.349 852.786,-194.09 842.317,-192.465 843.589,-199.349"/>
</g>
<!-- Node4&#45;&gt;Node3 -->
<g id="edge10" class="edge"><title>Node4&#45;&gt;Node3</title>
<path fill="none" stroke="midnightblue" d="M444.037,-174.481C406.872,-164.748 368.715,-146.961 383,-116 405.7,-66.8026 464.503,-37.3706 503.347,-22.6848"/>
<polygon fill="midnightblue" stroke="midnightblue" points="505.034,-25.7961 513.243,-19.0974 502.648,-19.2152 505.034,-25.7961"/>
</g>
<!-- Node5 -->
<g id="node9" class="node"><title>Node5</title>
<polygon fill="white" stroke="#bfbfbf" points="391.5,-116.5 391.5,-137.5 440.5,-137.5 440.5,-116.5 391.5,-116.5"/>
<text text-anchor="middle" x="416" y="-124.5" font-family="DejaVuSans" font-size="10.00">QFlags</text>
</g>
<!-- Node4&#45;&gt;Node5 -->
<g id="edge8" class="edge"><title>Node4&#45;&gt;Node5</title>
<path fill="none" stroke="midnightblue" d="M487.859,-174.362C474.586,-165.614 455.568,-153.079 440.43,-143.101"/>
<polygon fill="midnightblue" stroke="midnightblue" points="442.314,-140.151 432.038,-137.571 438.462,-145.996 442.314,-140.151"/>
</g>
<!-- Node6 -->
<g id="node12" class="node"><title>Node6</title>
<polygon fill="white" stroke="#bfbfbf" points="459.5,-58.5 459.5,-79.5 500.5,-79.5 500.5,-58.5 459.5,-58.5"/>
<text text-anchor="middle" x="480" y="-66.5" font-family="DejaVuSans" font-size="10.00">QList</text>
</g>
<!-- Node4&#45;&gt;Node6 -->
<g id="edge12" class="edge"><title>Node4&#45;&gt;Node6</title>
<path fill="none" stroke="midnightblue" d="M499.314,-174.399C495.374,-165.018 489.931,-150.859 487,-138 483.405,-122.225 481.655,-104 480.804,-90.2426"/>
<polygon fill="midnightblue" stroke="midnightblue" points="484.281,-89.6998 480.28,-79.8896 477.29,-90.0538 484.281,-89.6998"/>
</g>
<!-- Node7 -->
<g id="node14" class="node"><title>Node7</title>
<polygon fill="white" stroke="#bfbfbf" points="263.5,-58.5 263.5,-79.5 332.5,-79.5 332.5,-58.5 263.5,-58.5"/>
<text text-anchor="middle" x="298" y="-66.5" font-family="DejaVuSans" font-size="10.00">QStringList</text>
</g>
<!-- Node4&#45;&gt;Node7 -->
<g id="edge14" class="edge"><title>Node4&#45;&gt;Node7</title>
<path fill="none" stroke="midnightblue" d="M442.684,-175.498C412.742,-168.666 377.368,-157.153 350,-138 331.681,-125.18 317.065,-103.896 308.051,-88.3503"/>
<polygon fill="midnightblue" stroke="midnightblue" points="311.081,-86.5975 303.179,-79.54 304.955,-89.9849 311.081,-86.5975"/>
</g>
<!-- Node4&#45;&gt;Node8 -->
<g id="edge16" class="edge"><title>Node4&#45;&gt;Node8</title>
<path fill="none" stroke="midnightblue" d="M565.09,-179.462C619.419,-173.123 692.979,-160.571 711,-138 725.866,-119.38 702.601,-98.6898 681.055,-84.8675"/>
<polygon fill="midnightblue" stroke="midnightblue" points="682.713,-81.7793 672.352,-79.5687 679.073,-87.7585 682.713,-81.7793"/>
</g>
<!-- Node9 -->
<g id="node19" class="node"><title>Node9</title>
<a xlink:href="cv___trait_detail_8h.html" target="_top" xlink:title="cv_TraitDetail.h">
<polygon fill="white" stroke="black" points="495.5,-116.5 495.5,-137.5 584.5,-137.5 584.5,-116.5 495.5,-116.5"/>
<text text-anchor="middle" x="540" y="-124.5" font-family="DejaVuSans" font-size="10.00">cv_TraitDetail.h</text>
</a>
</g>
<!-- Node4&#45;&gt;Node9 -->
<g id="edge20" class="edge"><title>Node4&#45;&gt;Node9</title>
<path fill="none" stroke="midnightblue" d="M510.603,-174.362C515.475,-166.513 522.238,-155.616 528.05,-146.253"/>
<polygon fill="midnightblue" stroke="midnightblue" points="531.139,-147.913 533.439,-137.571 525.191,-144.221 531.139,-147.913"/>
</g>
<!-- Node10 -->
<g id="node25" class="node"><title>Node10</title>
<a xlink:href="cv___abstract_trait_8h.html" target="_top" xlink:title="cv_AbstractTrait.h">
<polygon fill="white" stroke="black" points="601.5,-116.5 601.5,-137.5 702.5,-137.5 702.5,-116.5 601.5,-116.5"/>
<text text-anchor="middle" x="652" y="-124.5" font-family="DejaVuSans" font-size="10.00">cv_AbstractTrait.h</text>
</a>
</g>
<!-- Node4&#45;&gt;Node10 -->
<g id="edge30" class="edge"><title>Node4&#45;&gt;Node10</title>
<path fill="none" stroke="midnightblue" d="M530.802,-174.497C554.438,-165.234 589.1,-151.65 615.308,-141.379"/>
<polygon fill="midnightblue" stroke="midnightblue" points="616.864,-144.529 624.898,-137.621 614.31,-138.011 616.864,-144.529"/>
</g>
<!-- Node8&#45;&gt;Node3 -->
<g id="edge18" class="edge"><title>Node8&#45;&gt;Node3</title>
<path fill="none" stroke="midnightblue" d="M631.718,-58.4966C614.382,-49.5194 589.21,-36.4835 569.62,-26.3387"/>
<polygon fill="midnightblue" stroke="midnightblue" points="570.999,-23.1118 560.51,-21.6212 567.78,-29.3278 570.999,-23.1118"/>
</g>
<!-- Node9&#45;&gt;Node3 -->
<g id="edge22" class="edge"><title>Node9&#45;&gt;Node3</title>
<path fill="none" stroke="midnightblue" d="M540,-116.295C540,-97.1314 540,-56.654 540,-31.8434"/>
<polygon fill="midnightblue" stroke="midnightblue" points="543.5,-31.6792 540,-21.6792 536.5,-31.6792 543.5,-31.6792"/>
</g>
<!-- Node9&#45;&gt;Node6 -->
<g id="edge24" class="edge"><title>Node9&#45;&gt;Node6</title>
<path fill="none" stroke="midnightblue" d="M528.995,-116.362C520.453,-108.104 508.42,-96.4725 498.417,-86.8029"/>
<polygon fill="midnightblue" stroke="midnightblue" points="500.558,-84.0044 490.935,-79.5707 495.692,-89.0374 500.558,-84.0044"/>
</g>
<!-- Node9&#45;&gt;Node7 -->
<g id="edge26" class="edge"><title>Node9&#45;&gt;Node7</title>
<path fill="none" stroke="midnightblue" d="M496.176,-116.497C452.707,-106.078 386.431,-90.1942 342.669,-79.7058"/>
<polygon fill="midnightblue" stroke="midnightblue" points="343.414,-76.2854 332.874,-77.3582 341.783,-83.0926 343.414,-76.2854"/>
</g>
<!-- Node9&#45;&gt;Node8 -->
<g id="edge28" class="edge"><title>Node9&#45;&gt;Node8</title>
<path fill="none" stroke="midnightblue" d="M560.282,-116.497C577.618,-107.519 602.79,-94.4835 622.38,-84.3387"/>
<polygon fill="midnightblue" stroke="midnightblue" points="624.22,-87.3278 631.49,-79.6212 621.001,-81.1118 624.22,-87.3278"/>
</g>
<!-- Node10&#45;&gt;Node3 -->
<g id="edge32" class="edge"><title>Node10&#45;&gt;Node3</title>
<path fill="none" stroke="midnightblue" d="M640.793,-116.322C630.968,-106.891 616.365,-92.7038 604,-80 587.615,-63.1654 569.446,-43.4752 556.666,-29.4475"/>
<polygon fill="midnightblue" stroke="midnightblue" points="559.133,-26.9569 549.819,-21.9069 553.951,-31.6629 559.133,-26.9569"/>
</g>
<!-- Node10&#45;&gt;Node8 -->
<g id="edge34" class="edge"><title>Node10&#45;&gt;Node8</title>
<path fill="none" stroke="midnightblue" d="M652,-116.362C652,-108.922 652,-98.7427 652,-89.7276"/>
<polygon fill="midnightblue" stroke="midnightblue" points="655.5,-89.5706 652,-79.5707 648.5,-89.5707 655.5,-89.5706"/>
</g>
<!-- Node11&#45;&gt;Node3 -->
<g id="edge38" class="edge"><title>Node11&#45;&gt;Node3</title>
<path fill="none" stroke="midnightblue" d="M134.173,-59.7954C138.851,-59.1797 143.495,-58.5759 148,-58 278.633,-41.2996 433.991,-23.1925 503.375,-15.1976"/>
<polygon fill="midnightblue" stroke="midnightblue" points="503.831,-18.6682 513.365,-14.0478 503.031,-11.7141 503.831,-18.6682"/>
</g>
<!-- Node12&#45;&gt;Node3 -->
<g id="edge44" class="edge"><title>Node12&#45;&gt;Node3</title>
<path fill="none" stroke="midnightblue" d="M225.862,-174.334C209.371,-166.911 190.592,-155.21 181,-138 158.337,-97.3384 232.029,-59.5734 235,-58 280.937,-33.6749 432.462,-19.2229 503.12,-13.6522"/>
<polygon fill="midnightblue" stroke="midnightblue" points="503.636,-17.1229 513.338,-12.8643 503.098,-10.1436 503.636,-17.1229"/>
</g>
<!-- Node12&#45;&gt;Node7 -->
<g id="edge42" class="edge"><title>Node12&#45;&gt;Node7</title>
<path fill="none" stroke="midnightblue" d="M260.784,-174.295C267.618,-154.959 282.122,-113.923 290.869,-89.1767"/>
<polygon fill="midnightblue" stroke="midnightblue" points="294.193,-90.274 294.225,-79.6792 287.593,-87.9412 294.193,-90.274"/>
</g>
<!-- Node13 -->
<g id="node36" class="node"><title>Node13</title>
<a xlink:href="cv___name_8h.html" target="_top" xlink:title="cv_Name.h">
<polygon fill="white" stroke="black" points="189.5,-116.5 189.5,-137.5 260.5,-137.5 260.5,-116.5 189.5,-116.5"/>
<text text-anchor="middle" x="225" y="-124.5" font-family="DejaVuSans" font-size="10.00">cv_Name.h</text>
</a>
</g>
<!-- Node12&#45;&gt;Node13 -->
<g id="edge46" class="edge"><title>Node12&#45;&gt;Node13</title>
<path fill="none" stroke="midnightblue" d="M251.131,-174.362C246.845,-166.595 240.913,-155.843 235.784,-146.546"/>
<polygon fill="midnightblue" stroke="midnightblue" points="238.727,-144.636 230.832,-137.571 232.598,-148.017 238.727,-144.636"/>
</g>
<!-- Node13&#45;&gt;Node3 -->
<g id="edge50" class="edge"><title>Node13&#45;&gt;Node3</title>
<path fill="none" stroke="midnightblue" d="M226.414,-116.446C229.077,-101.009 236.352,-72.5343 255,-58 293.014,-28.3721 434.617,-16.739 502.819,-12.7814"/>
<polygon fill="midnightblue" stroke="midnightblue" points="503.317,-16.2592 513.108,-12.2105 502.929,-9.26996 503.317,-16.2592"/>
</g>
<!-- Node13&#45;&gt;Node7 -->
<g id="edge48" class="edge"><title>Node13&#45;&gt;Node7</title>
<path fill="none" stroke="midnightblue" d="M238.389,-116.362C249.091,-107.859 264.296,-95.7785 276.671,-85.9466"/>
<polygon fill="midnightblue" stroke="midnightblue" points="279.043,-88.5318 284.696,-79.5707 274.689,-83.0511 279.043,-88.5318"/>
</g>
<!-- Node14&#45;&gt;Node3 -->
<g id="edge54" class="edge"><title>Node14&#45;&gt;Node3</title>
<path fill="none" stroke="midnightblue" d="M919.691,-174.315C939.773,-160.814 967.926,-136.824 953,-116 908.698,-54.1921 669.218,-23.9412 576.599,-14.4223"/>
<polygon fill="midnightblue" stroke="midnightblue" points="576.865,-10.9314 566.565,-13.4135 576.164,-17.8963 576.865,-10.9314"/>
</g>
<!-- Node15 -->
<g id="node43" class="node"><title>Node15</title>
<polygon fill="white" stroke="#bfbfbf" points="833.5,-116.5 833.5,-137.5 882.5,-137.5 882.5,-116.5 833.5,-116.5"/>
<text text-anchor="middle" x="858" y="-124.5" font-family="DejaVuSans" font-size="10.00">QColor</text>
</g>
<!-- Node14&#45;&gt;Node15 -->
<g id="edge56" class="edge"><title>Node14&#45;&gt;Node15</title>
<path fill="none" stroke="midnightblue" d="M893.93,-174.362C887.851,-166.35 879.363,-155.161 872.163,-145.67"/>
<polygon fill="midnightblue" stroke="midnightblue" points="874.851,-143.422 866.019,-137.571 869.275,-147.653 874.851,-143.422"/>
</g>
<!-- Node16 -->
<g id="node45" class="node"><title>Node16</title>
<polygon fill="white" stroke="#bfbfbf" points="899.5,-116.5 899.5,-137.5 944.5,-137.5 944.5,-116.5 899.5,-116.5"/>
<text text-anchor="middle" x="922" y="-124.5" font-family="DejaVuSans" font-size="10.00">QFont</text>
</g>
<!-- Node14&#45;&gt;Node16 -->
<g id="edge58" class="edge"><title>Node14&#45;&gt;Node16</title>
<path fill="none" stroke="midnightblue" d="M905.668,-174.362C908.29,-166.758 911.899,-156.294 915.057,-147.135"/>
<polygon fill="midnightblue" stroke="midnightblue" points="918.404,-148.165 918.355,-137.571 911.786,-145.883 918.404,-148.165"/>
</g>
</g>
</svg>
