<?xml version="1.0" encoding="UTF-8" standalone="no"?>
<!DOCTYPE svg PUBLIC "-//W3C//DTD SVG 1.1//EN"
 "http://www.w3.org/Graphics/SVG/1.1/DTD/svg11.dtd">
<!-- Generated by graphviz version 2.26.3 (20100126.1600)
 -->
<!-- Title: G Pages: 1 -->
<svg width="194pt" height="262pt"
 viewBox="0.00 0.00 194.00 262.00" xmlns="http://www.w3.org/2000/svg" xmlns:xlink="http://www.w3.org/1999/xlink">
<g id="graph1" class="graph" transform="scale(1 1) rotate(0) translate(4 258)">
<title>G</title>
<polygon fill="white" stroke="white" points="-4,5 -4,-258 191,-258 191,5 -4,5"/>
<!-- Node1 -->
<g id="node1" class="node"><title>Node1</title>
<polygon fill="#bfbfbf" stroke="black" points="4,-232.5 4,-253.5 178,-253.5 178,-232.5 4,-232.5"/>
<text text-anchor="middle" x="91" y="-240.5" font-family="DejaVuSans" font-size="10.00">src/Datatypes/cv_IdentityList.cpp</text>
</g>
<!-- Node2 -->
<g id="node3" class="node"><title>Node2</title>
<a xlink:href="cv___identity_list_8h.html" target="_top" xlink:title="cv_IdentityList.h">
<polygon fill="white" stroke="black" points="44.5,-174.5 44.5,-195.5 137.5,-195.5 137.5,-174.5 44.5,-174.5"/>
<text text-anchor="middle" x="91" y="-182.5" font-family="DejaVuSans" font-size="10.00">cv_IdentityList.h</text>
</a>
</g>
<!-- Node1&#45;&gt;Node2 -->
<g id="edge2" class="edge"><title>Node1&#45;&gt;Node2</title>
<path fill="none" stroke="midnightblue" d="M91,-232.362C91,-224.922 91,-214.743 91,-205.728"/>
<polygon fill="midnightblue" stroke="midnightblue" points="94.5001,-205.571 91,-195.571 87.5001,-205.571 94.5001,-205.571"/>
</g>
<!-- Node3 -->
<g id="node5" class="node"><title>Node3</title>
<polygon fill="white" stroke="#bfbfbf" points="-0.5,-0.5 -0.5,-21.5 52.5,-21.5 52.5,-0.5 -0.5,-0.5"/>
<text text-anchor="middle" x="26" y="-8.5" font-family="DejaVuSans" font-size="10.00">QString</text>
</g>
<!-- Node2&#45;&gt;Node3 -->
<g id="edge4" class="edge"><title>Node2&#45;&gt;Node3</title>
<path fill="none" stroke="midnightblue" d="M76.4946,-174.336C65.9616,-165.752 52.3222,-152.721 45,-138 27.8751,-103.572 25.201,-57.8868 25.2791,-31.7408"/>
<polygon fill="midnightblue" stroke="midnightblue" points="28.7823,-31.5762 25.4566,-21.5169 21.7834,-31.4546 28.7823,-31.5762"/>
</g>
<!-- Node4 -->
<g id="node7" class="node"><title>Node4</title>
<a xlink:href="cv___identity_8h.html" target="_top" xlink:title="cv_Identity.h">
<polygon fill="white" stroke="black" points="53.5,-116.5 53.5,-137.5 128.5,-137.5 128.5,-116.5 53.5,-116.5"/>
<text text-anchor="middle" x="91" y="-124.5" font-family="DejaVuSans" font-size="10.00">cv_Identity.h</text>
</a>
</g>
<!-- Node2&#45;&gt;Node4 -->
<g id="edge6" class="edge"><title>Node2&#45;&gt;Node4</title>
<path fill="none" stroke="midnightblue" d="M91,-174.362C91,-166.922 91,-156.743 91,-147.728"/>
<polygon fill="midnightblue" stroke="midnightblue" points="94.5001,-147.571 91,-137.571 87.5001,-147.571 94.5001,-147.571"/>
</g>
<!-- Node7 -->
<g id="node14" class="node"><title>Node7</title>
<polygon fill="white" stroke="#bfbfbf" points="145.5,-116.5 145.5,-137.5 186.5,-137.5 186.5,-116.5 145.5,-116.5"/>
<text text-anchor="middle" x="166" y="-124.5" font-family="DejaVuSans" font-size="10.00">QList</text>
</g>
<!-- Node2&#45;&gt;Node7 -->
<g id="edge14" class="edge"><title>Node2&#45;&gt;Node7</title>
<path fill="none" stroke="midnightblue" d="M104.756,-174.362C115.751,-165.859 131.373,-153.779 144.086,-143.947"/>
<polygon fill="midnightblue" stroke="midnightblue" points="146.562,-146.457 152.331,-137.571 142.279,-140.919 146.562,-146.457"/>
</g>
<!-- Node5 -->
<g id="node9" class="node"><title>Node5</title>
<a xlink:href="cv___name_8h.html" target="_top" xlink:title="cv_Name.h">
<polygon fill="white" stroke="black" points="55.5,-58.5 55.5,-79.5 126.5,-79.5 126.5,-58.5 55.5,-58.5"/>
<text text-anchor="middle" x="91" y="-66.5" font-family="DejaVuSans" font-size="10.00">cv_Name.h</text>
</a>
</g>
<!-- Node4&#45;&gt;Node5 -->
<g id="edge8" class="edge"><title>Node4&#45;&gt;Node5</title>
<path fill="none" stroke="midnightblue" d="M91,-116.362C91,-108.922 91,-98.7427 91,-89.7276"/>
<polygon fill="midnightblue" stroke="midnightblue" points="94.5001,-89.5706 91,-79.5707 87.5001,-89.5707 94.5001,-89.5706"/>
</g>
<!-- Node5&#45;&gt;Node3 -->
<g id="edge12" class="edge"><title>Node5&#45;&gt;Node3</title>
<path fill="none" stroke="midnightblue" d="M79.078,-58.3619C69.6405,-49.9408 56.2704,-38.0105 45.3104,-28.2308"/>
<polygon fill="midnightblue" stroke="midnightblue" points="47.6381,-25.6171 37.8464,-21.5707 42.9776,-30.8401 47.6381,-25.6171"/>
</g>
<!-- Node6 -->
<g id="node11" class="node"><title>Node6</title>
<polygon fill="white" stroke="#bfbfbf" points="69.5,-0.5 69.5,-21.5 138.5,-21.5 138.5,-0.5 69.5,-0.5"/>
<text text-anchor="middle" x="104" y="-8.5" font-family="DejaVuSans" font-size="10.00">QStringList</text>
</g>
<!-- Node5&#45;&gt;Node6 -->
<g id="edge10" class="edge"><title>Node5&#45;&gt;Node6</title>
<path fill="none" stroke="midnightblue" d="M93.3844,-58.3619C95.0703,-50.8401 97.3837,-40.5187 99.4207,-31.4308"/>
<polygon fill="midnightblue" stroke="midnightblue" points="102.859,-32.0941 101.631,-21.5707 96.0283,-30.563 102.859,-32.0941"/>
</g>
</g>
</svg>
