<?xml version="1.0" encoding="UTF-8" standalone="no"?>
<!DOCTYPE svg PUBLIC "-//W3C//DTD SVG 1.1//EN"
 "http://www.w3.org/Graphics/SVG/1.1/DTD/svg11.dtd">
<!-- Generated by graphviz version 2.26.3 (20100126.1600)
 -->
<!-- Title: G Pages: 1 -->
<svg width="769pt" height="204pt"
 viewBox="0.00 0.00 769.00 204.00" xmlns="http://www.w3.org/2000/svg" xmlns:xlink="http://www.w3.org/1999/xlink">
<g id="graph1" class="graph" transform="scale(1 1) rotate(0) translate(4 200)">
<title>G</title>
<polygon fill="white" stroke="white" points="-4,5 -4,-200 766,-200 766,5 -4,5"/>
<!-- Node1 -->
<g id="node1" class="node"><title>Node1</title>
<polygon fill="#bfbfbf" stroke="black" points="203.5,-174.5 203.5,-195.5 374.5,-195.5 374.5,-174.5 203.5,-174.5"/>
<text text-anchor="middle" x="289" y="-182.5" font-family="DejaVuSans" font-size="10.00">src/Datatypes/cv_AbstractTrait.h</text>
</g>
<!-- Node2 -->
<g id="node3" class="node"><title>Node2</title>
<a xlink:href="cv___abstract_trait_8cpp.html" target="_top" xlink:title="src/Datatypes/cv_AbstractTrait.cpp">
<polygon fill="white" stroke="black" points="0,-116.5 0,-137.5 182,-137.5 182,-116.5 0,-116.5"/>
<text text-anchor="middle" x="91" y="-124.5" font-family="DejaVuSans" font-size="10.00">src/Datatypes/cv_AbstractTrait.cpp</text>
</a>
</g>
<!-- Node1&#45;&gt;Node2 -->
<g id="edge2" class="edge"><title>Node1&#45;&gt;Node2</title>
<path fill="none" stroke="midnightblue" d="M243.527,-171.68C208.117,-161.307 159.644,-147.108 126.924,-137.523"/>
<polygon fill="midnightblue" stroke="midnightblue" points="242.563,-175.044 253.144,-174.497 244.531,-168.327 242.563,-175.044"/>
</g>
<!-- Node3 -->
<g id="node5" class="node"><title>Node3</title>
<a xlink:href="cv___derangement_8h.html" target="_top" xlink:title="src/Datatypes/cv_Derangement.h">
<polygon fill="white" stroke="black" points="200,-116.5 200,-137.5 378,-137.5 378,-116.5 200,-116.5"/>
<text text-anchor="middle" x="289" y="-124.5" font-family="DejaVuSans" font-size="10.00">src/Datatypes/cv_Derangement.h</text>
</a>
</g>
<!-- Node1&#45;&gt;Node3 -->
<g id="edge4" class="edge"><title>Node1&#45;&gt;Node3</title>
<path fill="none" stroke="midnightblue" d="M289,-164.191C289,-155.168 289,-144.994 289,-137.571"/>
<polygon fill="midnightblue" stroke="midnightblue" points="285.5,-164.362 289,-174.362 292.5,-164.362 285.5,-164.362"/>
</g>
<!-- Node5 -->
<g id="node9" class="node"><title>Node5</title>
<a xlink:href="cv___trait_8h.html" target="_top" xlink:title="src/Datatypes/cv_Trait.h">
<polygon fill="white" stroke="black" points="437.5,-116.5 437.5,-137.5 568.5,-137.5 568.5,-116.5 437.5,-116.5"/>
<text text-anchor="middle" x="503" y="-124.5" font-family="DejaVuSans" font-size="10.00">src/Datatypes/cv_Trait.h</text>
</a>
</g>
<!-- Node1&#45;&gt;Node5 -->
<g id="edge8" class="edge"><title>Node1&#45;&gt;Node5</title>
<path fill="none" stroke="midnightblue" d="M337.658,-171.812C375.971,-161.428 428.658,-147.149 464.174,-137.523"/>
<polygon fill="midnightblue" stroke="midnightblue" points="336.49,-168.503 327.754,-174.497 338.321,-175.259 336.49,-168.503"/>
</g>
<!-- Node4 -->
<g id="node7" class="node"><title>Node4</title>
<a xlink:href="cv___derangement_8cpp.html" target="_top" xlink:title="src/Datatypes/cv_Derangement.cpp">
<polygon fill="white" stroke="black" points="152.5,-58.5 152.5,-79.5 341.5,-79.5 341.5,-58.5 152.5,-58.5"/>
<text text-anchor="middle" x="247" y="-66.5" font-family="DejaVuSans" font-size="10.00">src/Datatypes/cv_Derangement.cpp</text>
</a>
</g>
<!-- Node3&#45;&gt;Node4 -->
<g id="edge6" class="edge"><title>Node3&#45;&gt;Node4</title>
<path fill="none" stroke="midnightblue" d="M275.423,-108.25C268.543,-98.75 260.444,-87.5651 254.655,-79.5707"/>
<polygon fill="midnightblue" stroke="midnightblue" points="272.597,-110.315 281.297,-116.362 278.266,-106.21 272.597,-110.315"/>
</g>
<!-- Node6 -->
<g id="node11" class="node"><title>Node6</title>
<a xlink:href="cv___trait_8cpp.html" target="_top" xlink:title="src/Datatypes/cv_Trait.cpp">
<polygon fill="white" stroke="black" points="359,-58.5 359,-79.5 501,-79.5 501,-58.5 359,-58.5"/>
<text text-anchor="middle" x="430" y="-66.5" font-family="DejaVuSans" font-size="10.00">src/Datatypes/cv_Trait.cpp</text>
</a>
</g>
<!-- Node5&#45;&gt;Node6 -->
<g id="edge10" class="edge"><title>Node5&#45;&gt;Node6</title>
<path fill="none" stroke="midnightblue" d="M481.572,-109.975C469.183,-100.132 453.982,-88.0545 443.304,-79.5707"/>
<polygon fill="midnightblue" stroke="midnightblue" points="479.604,-112.881 489.611,-116.362 483.958,-107.401 479.604,-112.881"/>
</g>
<!-- Node7 -->
<g id="node13" class="node"><title>Node7</title>
<a xlink:href="_trait_8h.html" target="_top" xlink:title="src/Datatypes/Trait.h">
<polygon fill="white" stroke="black" points="518.5,-58.5 518.5,-79.5 633.5,-79.5 633.5,-58.5 518.5,-58.5"/>
<text text-anchor="middle" x="576" y="-66.5" font-family="DejaVuSans" font-size="10.00">src/Datatypes/Trait.h</text>
</a>
</g>
<!-- Node5&#45;&gt;Node7 -->
<g id="edge12" class="edge"><title>Node5&#45;&gt;Node7</title>
<path fill="none" stroke="midnightblue" d="M524.428,-109.975C536.817,-100.132 552.018,-88.0545 562.696,-79.5707"/>
<polygon fill="midnightblue" stroke="midnightblue" points="522.042,-107.401 516.389,-116.362 526.396,-112.881 522.042,-107.401"/>
</g>
<!-- Node9 -->
<g id="node17" class="node"><title>Node9</title>
<a xlink:href="_main_window_8cpp.html" target="_top" xlink:title="src/MainWindow.cpp">
<polygon fill="white" stroke="black" points="650.5,-58.5 650.5,-79.5 761.5,-79.5 761.5,-58.5 650.5,-58.5"/>
<text text-anchor="middle" x="706" y="-66.5" font-family="DejaVuSans" font-size="10.00">src/MainWindow.cpp</text>
</a>
</g>
<!-- Node5&#45;&gt;Node9 -->
<g id="edge16" class="edge"><title>Node5&#45;&gt;Node9</title>
<path fill="none" stroke="midnightblue" d="M549.622,-113.68C585.925,-103.307 635.623,-89.1078 669.169,-79.5231"/>
<polygon fill="midnightblue" stroke="midnightblue" points="548.415,-110.384 539.762,-116.497 550.339,-117.115 548.415,-110.384"/>
</g>
<!-- Node8 -->
<g id="node15" class="node"><title>Node8</title>
<a xlink:href="_trait_8cpp.html" target="_top" xlink:title="src/Datatypes/Trait.cpp">
<polygon fill="white" stroke="black" points="513,-0.5 513,-21.5 639,-21.5 639,-0.5 513,-0.5"/>
<text text-anchor="middle" x="576" y="-8.5" font-family="DejaVuSans" font-size="10.00">src/Datatypes/Trait.cpp</text>
</a>
</g>
<!-- Node7&#45;&gt;Node8 -->
<g id="edge14" class="edge"><title>Node7&#45;&gt;Node8</title>
<path fill="none" stroke="midnightblue" d="M576,-48.1906C576,-39.1684 576,-28.9941 576,-21.5707"/>
<polygon fill="midnightblue" stroke="midnightblue" points="572.5,-48.3619 576,-58.3619 579.5,-48.3619 572.5,-48.3619"/>
</g>
</g>
</svg>
