<?xml version="1.0" encoding="UTF-8" standalone="no"?>
<!DOCTYPE svg PUBLIC "-//W3C//DTD SVG 1.1//EN"
 "http://www.w3.org/Graphics/SVG/1.1/DTD/svg11.dtd">
<!-- Generated by graphviz version 2.26.3 (20100126.1600)
 -->
<!-- Title: G Pages: 1 -->
<svg width="878pt" height="320pt"
 viewBox="0.00 0.00 878.05 320.00" xmlns="http://www.w3.org/2000/svg" xmlns:xlink="http://www.w3.org/1999/xlink">
<g id="graph1" class="graph" transform="scale(1 1) rotate(0) translate(4 316)">
<title>G</title>
<polygon fill="white" stroke="white" points="-4,5 -4,-316 875.051,-316 875.051,5 -4,5"/>
<!-- Node1 -->
<g id="node1" class="node"><title>Node1</title>
<polygon fill="#bfbfbf" stroke="black" points="620.551,-290.5 620.551,-311.5 773.551,-311.5 773.551,-290.5 620.551,-290.5"/>
<text text-anchor="middle" x="697.051" y="-298.5" font-family="DejaVuSans" font-size="10.00">src/Datatypes/cv_Shape.cpp</text>
</g>
<!-- Node2 -->
<g id="node3" class="node"><title>Node2</title>
<a xlink:href="_exception_8h_source.html" target="_top" xlink:title="../Exceptions/Exception.h">
<polygon fill="white" stroke="black" points="553.051,-232.5 553.051,-253.5 689.051,-253.5 689.051,-232.5 553.051,-232.5"/>
<text text-anchor="middle" x="621.051" y="-240.5" font-family="DejaVuSans" font-size="10.00">../Exceptions/Exception.h</text>
</a>
</g>
<!-- Node1&#45;&gt;Node2 -->
<g id="edge2" class="edge"><title>Node1&#45;&gt;Node2</title>
<path fill="none" stroke="midnightblue" d="M683.111,-290.362C671.862,-281.777 655.835,-269.546 642.886,-259.664"/>
<polygon fill="midnightblue" stroke="midnightblue" points="644.975,-256.855 634.902,-253.571 640.728,-262.42 644.975,-256.855"/>
</g>
<!-- Node11 -->
<g id="node29" class="node"><title>Node11</title>
<a xlink:href="cv___shape_8h.html" target="_top" xlink:title="../Datatypes/cv_Shape.h">
<polygon fill="white" stroke="black" points="736.051,-174.5 736.051,-195.5 870.051,-195.5 870.051,-174.5 736.051,-174.5"/>
<text text-anchor="middle" x="803.051" y="-182.5" font-family="DejaVuSans" font-size="10.00">../Datatypes/cv_Shape.h</text>
</a>
</g>
<!-- Node1&#45;&gt;Node11 -->
<g id="edge60" class="edge"><title>Node1&#45;&gt;Node11</title>
<path fill="none" stroke="midnightblue" d="M706.833,-290.295C724.976,-270.441 764.024,-227.709 786.398,-203.224"/>
<polygon fill="midnightblue" stroke="midnightblue" points="789.13,-205.422 793.292,-195.679 783.963,-200.7 789.13,-205.422"/>
</g>
<!-- Node3 -->
<g id="node5" class="node"><title>Node3</title>
<polygon fill="white" stroke="#bfbfbf" points="449.551,-0.5 449.551,-21.5 502.551,-21.5 502.551,-0.5 449.551,-0.5"/>
<text text-anchor="middle" x="476.051" y="-8.5" font-family="DejaVuSans" font-size="10.00">QString</text>
</g>
<!-- Node2&#45;&gt;Node3 -->
<g id="edge4" class="edge"><title>Node2&#45;&gt;Node3</title>
<path fill="none" stroke="midnightblue" d="M618.581,-232.349C611.184,-202.247 586.835,-115.03 541.051,-58 531.159,-45.6789 517.268,-35.0471 504.865,-27.0274"/>
<polygon fill="midnightblue" stroke="midnightblue" points="506.523,-23.9378 496.175,-21.6627 502.846,-29.8941 506.523,-23.9378"/>
</g>
<!-- Node4 -->
<g id="node7" class="node"><title>Node4</title>
<a xlink:href="cv___trait_8h.html" target="_top" xlink:title="../Datatypes/cv_Trait.h">
<polygon fill="white" stroke="black" points="311.051,-174.5 311.051,-195.5 433.051,-195.5 433.051,-174.5 311.051,-174.5"/>
<text text-anchor="middle" x="372.051" y="-182.5" font-family="DejaVuSans" font-size="10.00">../Datatypes/cv_Trait.h</text>
</a>
</g>
<!-- Node2&#45;&gt;Node4 -->
<g id="edge6" class="edge"><title>Node2&#45;&gt;Node4</title>
<path fill="none" stroke="midnightblue" d="M575.959,-232.497C534.135,-222.755 471.792,-208.233 427.058,-197.813"/>
<polygon fill="midnightblue" stroke="midnightblue" points="427.761,-194.383 417.227,-195.523 426.173,-201.2 427.761,-194.383"/>
</g>
<!-- Node2&#45;&gt;Node11 -->
<g id="edge36" class="edge"><title>Node2&#45;&gt;Node11</title>
<path fill="none" stroke="midnightblue" d="M654.01,-232.497C683.809,-223 727.86,-208.962 760.348,-198.609"/>
<polygon fill="midnightblue" stroke="midnightblue" points="761.565,-201.894 770.03,-195.523 759.44,-195.225 761.565,-201.894"/>
</g>
<!-- Node12 -->
<g id="node32" class="node"><title>Node12</title>
<a xlink:href="cv___identity_8h.html" target="_top" xlink:title="../Datatypes/cv_Identity.h">
<polygon fill="white" stroke="black" points="12.5509,-174.5 12.5509,-195.5 149.551,-195.5 149.551,-174.5 12.5509,-174.5"/>
<text text-anchor="middle" x="81.0509" y="-182.5" font-family="DejaVuSans" font-size="10.00">../Datatypes/cv_Identity.h</text>
</a>
</g>
<!-- Node2&#45;&gt;Node12 -->
<g id="edge40" class="edge"><title>Node2&#45;&gt;Node12</title>
<path fill="none" stroke="midnightblue" d="M552.933,-235.684C452.677,-224.915 265.835,-204.847 159.818,-193.46"/>
<polygon fill="midnightblue" stroke="midnightblue" points="160.133,-189.974 149.816,-192.386 159.385,-196.934 160.133,-189.974"/>
</g>
<!-- Node14 -->
<g id="node40" class="node"><title>Node14</title>
<a xlink:href="_config_8h.html" target="_top" xlink:title="../Config/Config.h">
<polygon fill="white" stroke="black" points="620.051,-174.5 620.051,-195.5 718.051,-195.5 718.051,-174.5 620.051,-174.5"/>
<text text-anchor="middle" x="669.051" y="-182.5" font-family="DejaVuSans" font-size="10.00">../Config/Config.h</text>
</a>
</g>
<!-- Node2&#45;&gt;Node14 -->
<g id="edge52" class="edge"><title>Node2&#45;&gt;Node14</title>
<path fill="none" stroke="midnightblue" d="M629.855,-232.362C636.553,-224.268 645.935,-212.932 653.84,-203.38"/>
<polygon fill="midnightblue" stroke="midnightblue" points="656.623,-205.506 660.303,-195.571 651.231,-201.043 656.623,-205.506"/>
</g>
<!-- Node4&#45;&gt;Node3 -->
<g id="edge10" class="edge"><title>Node4&#45;&gt;Node3</title>
<path fill="none" stroke="midnightblue" d="M433.187,-175.197C474.045,-167.254 522.523,-154.65 535.051,-138 561.279,-103.141 521.752,-54.754 495.764,-28.9298"/>
<polygon fill="midnightblue" stroke="midnightblue" points="497.856,-26.086 488.221,-21.6797 493.005,-31.1328 497.856,-26.086"/>
</g>
<!-- Node5 -->
<g id="node9" class="node"><title>Node5</title>
<polygon fill="white" stroke="#bfbfbf" points="321.551,-116.5 321.551,-137.5 370.551,-137.5 370.551,-116.5 321.551,-116.5"/>
<text text-anchor="middle" x="346.051" y="-124.5" font-family="DejaVuSans" font-size="10.00">QFlags</text>
</g>
<!-- Node4&#45;&gt;Node5 -->
<g id="edge8" class="edge"><title>Node4&#45;&gt;Node5</title>
<path fill="none" stroke="midnightblue" d="M367.282,-174.362C363.837,-166.677 359.082,-156.069 354.945,-146.84"/>
<polygon fill="midnightblue" stroke="midnightblue" points="358.074,-145.264 350.789,-137.571 351.686,-148.127 358.074,-145.264"/>
</g>
<!-- Node6 -->
<g id="node12" class="node"><title>Node6</title>
<polygon fill="white" stroke="#bfbfbf" points="220.551,-58.5 220.551,-79.5 261.551,-79.5 261.551,-58.5 220.551,-58.5"/>
<text text-anchor="middle" x="241.051" y="-66.5" font-family="DejaVuSans" font-size="10.00">QList</text>
</g>
<!-- Node4&#45;&gt;Node6 -->
<g id="edge12" class="edge"><title>Node4&#45;&gt;Node6</title>
<path fill="none" stroke="midnightblue" d="M311.05,-175.464C269.514,-167.582 219.837,-154.937 207.051,-138 195.102,-122.172 208.456,-101.489 221.779,-86.9099"/>
<polygon fill="midnightblue" stroke="midnightblue" points="224.528,-89.1049 229.016,-79.5077 219.523,-84.2112 224.528,-89.1049"/>
</g>
<!-- Node7 -->
<g id="node14" class="node"><title>Node7</title>
<polygon fill="white" stroke="#bfbfbf" points="105.551,-58.5 105.551,-79.5 174.551,-79.5 174.551,-58.5 105.551,-58.5"/>
<text text-anchor="middle" x="140.051" y="-66.5" font-family="DejaVuSans" font-size="10.00">QStringList</text>
</g>
<!-- Node4&#45;&gt;Node7 -->
<g id="edge14" class="edge"><title>Node4&#45;&gt;Node7</title>
<path fill="none" stroke="midnightblue" d="M310.797,-177.48C275.962,-171.057 232.712,-159.307 199.051,-138 179.012,-125.316 162.147,-103.705 151.647,-88.0428"/>
<polygon fill="midnightblue" stroke="midnightblue" points="154.581,-86.1344 146.225,-79.6211 148.696,-89.9239 154.581,-86.1344"/>
</g>
<!-- Node8 -->
<g id="node16" class="node"><title>Node8</title>
<a xlink:href="cv___species_8h.html" target="_top" xlink:title="cv_Species.h">
<polygon fill="white" stroke="black" points="364.551,-58.5 364.551,-79.5 443.551,-79.5 443.551,-58.5 364.551,-58.5"/>
<text text-anchor="middle" x="404.051" y="-66.5" font-family="DejaVuSans" font-size="10.00">cv_Species.h</text>
</a>
</g>
<!-- Node4&#45;&gt;Node8 -->
<g id="edge16" class="edge"><title>Node4&#45;&gt;Node8</title>
<path fill="none" stroke="midnightblue" d="M375.004,-174.295C380.314,-155.045 391.557,-114.289 398.393,-89.5091"/>
<polygon fill="midnightblue" stroke="midnightblue" points="401.82,-90.2499 401.105,-79.6792 395.072,-88.3884 401.82,-90.2499"/>
</g>
<!-- Node9 -->
<g id="node19" class="node"><title>Node9</title>
<a xlink:href="cv___trait_detail_8h.html" target="_top" xlink:title="cv_TraitDetail.h">
<polygon fill="white" stroke="black" points="215.551,-116.5 215.551,-137.5 304.551,-137.5 304.551,-116.5 215.551,-116.5"/>
<text text-anchor="middle" x="260.051" y="-124.5" font-family="DejaVuSans" font-size="10.00">cv_TraitDetail.h</text>
</a>
</g>
<!-- Node4&#45;&gt;Node9 -->
<g id="edge20" class="edge"><title>Node4&#45;&gt;Node9</title>
<path fill="none" stroke="midnightblue" d="M351.769,-174.497C334.433,-165.519 309.26,-152.484 289.67,-142.339"/>
<polygon fill="midnightblue" stroke="midnightblue" points="291.05,-139.112 280.561,-137.621 287.831,-145.328 291.05,-139.112"/>
</g>
<!-- Node10 -->
<g id="node25" class="node"><title>Node10</title>
<a xlink:href="cv___abstract_trait_8h.html" target="_top" xlink:title="cv_AbstractTrait.h">
<polygon fill="white" stroke="black" points="425.551,-116.5 425.551,-137.5 526.551,-137.5 526.551,-116.5 425.551,-116.5"/>
<text text-anchor="middle" x="476.051" y="-124.5" font-family="DejaVuSans" font-size="10.00">cv_AbstractTrait.h</text>
</a>
</g>
<!-- Node4&#45;&gt;Node10 -->
<g id="edge30" class="edge"><title>Node4&#45;&gt;Node10</title>
<path fill="none" stroke="midnightblue" d="M391.126,-174.362C407.106,-165.45 430.132,-152.609 448.178,-142.545"/>
<polygon fill="midnightblue" stroke="midnightblue" points="450.068,-145.498 457.097,-137.571 446.658,-139.385 450.068,-145.498"/>
</g>
<!-- Node8&#45;&gt;Node3 -->
<g id="edge18" class="edge"><title>Node8&#45;&gt;Node3</title>
<path fill="none" stroke="midnightblue" d="M417.257,-58.3619C427.812,-49.859 442.809,-37.7785 455.014,-27.9466"/>
<polygon fill="midnightblue" stroke="midnightblue" points="457.337,-30.5696 462.929,-21.5707 452.945,-25.1183 457.337,-30.5696"/>
</g>
<!-- Node9&#45;&gt;Node3 -->
<g id="edge22" class="edge"><title>Node9&#45;&gt;Node3</title>
<path fill="none" stroke="midnightblue" d="M272.718,-116.303C290.463,-101.7 324.138,-75.3614 356.051,-58 382.998,-43.3397 415.503,-30.9011 439.881,-22.5097"/>
<polygon fill="midnightblue" stroke="midnightblue" points="441.104,-25.791 449.46,-19.2765 438.865,-19.1587 441.104,-25.791"/>
</g>
<!-- Node9&#45;&gt;Node6 -->
<g id="edge24" class="edge"><title>Node9&#45;&gt;Node6</title>
<path fill="none" stroke="midnightblue" d="M256.566,-116.362C254.075,-108.758 250.647,-98.294 247.647,-89.1349"/>
<polygon fill="midnightblue" stroke="midnightblue" points="250.953,-87.9841 244.514,-79.5707 244.301,-90.1634 250.953,-87.9841"/>
</g>
<!-- Node9&#45;&gt;Node7 -->
<g id="edge26" class="edge"><title>Node9&#45;&gt;Node7</title>
<path fill="none" stroke="midnightblue" d="M238.32,-116.497C219.577,-107.438 192.284,-94.2462 171.215,-84.0628"/>
<polygon fill="midnightblue" stroke="midnightblue" points="172.552,-80.8217 162.026,-79.6212 169.506,-87.1242 172.552,-80.8217"/>
</g>
<!-- Node9&#45;&gt;Node8 -->
<g id="edge28" class="edge"><title>Node9&#45;&gt;Node8</title>
<path fill="none" stroke="midnightblue" d="M286.128,-116.497C309.126,-107.234 342.851,-93.6499 368.35,-83.3793"/>
<polygon fill="midnightblue" stroke="midnightblue" points="369.713,-86.6039 377.681,-79.6212 367.097,-80.1108 369.713,-86.6039"/>
</g>
<!-- Node10&#45;&gt;Node3 -->
<g id="edge32" class="edge"><title>Node10&#45;&gt;Node3</title>
<path fill="none" stroke="midnightblue" d="M476.051,-116.295C476.051,-97.1314 476.051,-56.654 476.051,-31.8434"/>
<polygon fill="midnightblue" stroke="midnightblue" points="479.551,-31.6792 476.051,-21.6792 472.551,-31.6792 479.551,-31.6792"/>
</g>
<!-- Node10&#45;&gt;Node8 -->
<g id="edge34" class="edge"><title>Node10&#45;&gt;Node8</title>
<path fill="none" stroke="midnightblue" d="M462.845,-116.362C452.29,-107.859 437.293,-95.7785 425.088,-85.9466"/>
<polygon fill="midnightblue" stroke="midnightblue" points="427.156,-83.1183 417.173,-79.5707 422.765,-88.5696 427.156,-83.1183"/>
</g>
<!-- Node11&#45;&gt;Node3 -->
<g id="edge38" class="edge"><title>Node11&#45;&gt;Node3</title>
<path fill="none" stroke="midnightblue" d="M801.793,-174.44C799.478,-159.513 793.202,-132.255 777.051,-116 703.666,-42.1462 575.599,-20.135 512.84,-13.6546"/>
<polygon fill="midnightblue" stroke="midnightblue" points="512.915,-10.1459 502.627,-12.6788 512.249,-17.1141 512.915,-10.1459"/>
</g>
<!-- Node12&#45;&gt;Node3 -->
<g id="edge44" class="edge"><title>Node12&#45;&gt;Node3</title>
<path fill="none" stroke="midnightblue" d="M49.9124,-174.334C33.4221,-166.911 14.6428,-155.21 5.05088,-138 -20.5965,-91.9837 62.4557,-61.4091 70.0509,-58 135.689,-28.538 352.105,-16.26 439.231,-12.4289"/>
<polygon fill="midnightblue" stroke="midnightblue" points="439.597,-15.9166 449.438,-11.993 439.298,-8.92295 439.597,-15.9166"/>
</g>
<!-- Node12&#45;&gt;Node7 -->
<g id="edge42" class="edge"><title>Node12&#45;&gt;Node7</title>
<path fill="none" stroke="midnightblue" d="M86.4957,-174.295C96.3744,-154.872 117.389,-113.556 129.957,-88.8462"/>
<polygon fill="midnightblue" stroke="midnightblue" points="133.205,-90.1793 134.619,-79.6792 126.966,-87.0058 133.205,-90.1793"/>
</g>
<!-- Node13 -->
<g id="node36" class="node"><title>Node13</title>
<a xlink:href="cv___name_8h.html" target="_top" xlink:title="cv_Name.h">
<polygon fill="white" stroke="black" points="13.5509,-116.5 13.5509,-137.5 84.5509,-137.5 84.5509,-116.5 13.5509,-116.5"/>
<text text-anchor="middle" x="49.0509" y="-124.5" font-family="DejaVuSans" font-size="10.00">cv_Name.h</text>
</a>
</g>
<!-- Node12&#45;&gt;Node13 -->
<g id="edge46" class="edge"><title>Node12&#45;&gt;Node13</title>
<path fill="none" stroke="midnightblue" d="M75.1816,-174.362C70.8963,-166.595 64.964,-155.843 59.8348,-146.546"/>
<polygon fill="midnightblue" stroke="midnightblue" points="62.7783,-144.636 54.883,-137.571 56.6493,-148.017 62.7783,-144.636"/>
</g>
<!-- Node13&#45;&gt;Node3 -->
<g id="edge50" class="edge"><title>Node13&#45;&gt;Node3</title>
<path fill="none" stroke="midnightblue" d="M53.0652,-116.478C59.646,-100.811 74.315,-71.7273 97.0509,-58 154.204,-23.4927 355.978,-14.1912 439.468,-11.793"/>
<polygon fill="midnightblue" stroke="midnightblue" points="439.609,-15.2906 449.51,-11.5218 439.419,-8.29314 439.609,-15.2906"/>
</g>
<!-- Node13&#45;&gt;Node7 -->
<g id="edge48" class="edge"><title>Node13&#45;&gt;Node7</title>
<path fill="none" stroke="midnightblue" d="M65.7417,-116.362C79.4672,-107.614 99.1345,-95.0786 114.788,-85.1015"/>
<polygon fill="midnightblue" stroke="midnightblue" points="116.914,-87.8969 123.466,-79.5707 113.152,-81.994 116.914,-87.8969"/>
</g>
<!-- Node14&#45;&gt;Node3 -->
<g id="edge54" class="edge"><title>Node14&#45;&gt;Node3</title>
<path fill="none" stroke="midnightblue" d="M664.244,-174.179C651.222,-145.035 615.6,-66.5216 606.051,-58 579.817,-34.5888 541.033,-22.5803 512.655,-16.5908"/>
<polygon fill="midnightblue" stroke="midnightblue" points="513.199,-13.131 502.713,-14.6465 511.855,-20.0008 513.199,-13.131"/>
</g>
<!-- Node15 -->
<g id="node43" class="node"><title>Node15</title>
<polygon fill="white" stroke="#bfbfbf" points="657.551,-116.5 657.551,-137.5 706.551,-137.5 706.551,-116.5 657.551,-116.5"/>
<text text-anchor="middle" x="682.051" y="-124.5" font-family="DejaVuSans" font-size="10.00">QColor</text>
</g>
<!-- Node14&#45;&gt;Node15 -->
<g id="edge56" class="edge"><title>Node14&#45;&gt;Node15</title>
<path fill="none" stroke="midnightblue" d="M671.435,-174.362C673.121,-166.84 675.435,-156.519 677.472,-147.431"/>
<polygon fill="midnightblue" stroke="midnightblue" points="680.91,-148.094 679.682,-137.571 674.079,-146.563 680.91,-148.094"/>
</g>
<!-- Node16 -->
<g id="node45" class="node"><title>Node16</title>
<polygon fill="white" stroke="#bfbfbf" points="723.551,-116.5 723.551,-137.5 768.551,-137.5 768.551,-116.5 723.551,-116.5"/>
<text text-anchor="middle" x="746.051" y="-124.5" font-family="DejaVuSans" font-size="10.00">QFont</text>
</g>
<!-- Node14&#45;&gt;Node16 -->
<g id="edge58" class="edge"><title>Node14&#45;&gt;Node16</title>
<path fill="none" stroke="midnightblue" d="M683.174,-174.362C694.571,-165.777 710.809,-153.546 723.929,-143.664"/>
<polygon fill="midnightblue" stroke="midnightblue" points="726.136,-146.383 732.017,-137.571 721.924,-140.792 726.136,-146.383"/>
</g>
</g>
</svg>
