<?xml version="1.0" encoding="UTF-8" standalone="no"?>
<!DOCTYPE svg PUBLIC "-//W3C//DTD SVG 1.1//EN"
 "http://www.w3.org/Graphics/SVG/1.1/DTD/svg11.dtd">
<!-- Generated by graphviz version 2.26.3 (20100126.1600)
 -->
<!-- Title: G Pages: 1 -->
<svg width="176pt" height="146pt"
 viewBox="0.00 0.00 176.00 146.00" xmlns="http://www.w3.org/2000/svg" xmlns:xlink="http://www.w3.org/1999/xlink">
<g id="graph1" class="graph" transform="scale(1 1) rotate(0) translate(4 142)">
<title>G</title>
<polygon fill="white" stroke="white" points="-4,5 -4,-142 173,-142 173,5 -4,5"/>
<!-- Node1 -->
<g id="node1" class="node"><title>Node1</title>
<polygon fill="#bfbfbf" stroke="black" points="0,-116.5 0,-137.5 168,-137.5 168,-116.5 0,-116.5"/>
<text text-anchor="middle" x="84" y="-124.5" font-family="DejaVuSans" font-size="10.00">src/Datatypes/cv_SpeciesTitle.h</text>
</g>
<!-- Node2 -->
<g id="node3" class="node"><title>Node2</title>
<polygon fill="white" stroke="#bfbfbf" points="57.5,-0.5 57.5,-21.5 110.5,-21.5 110.5,-0.5 57.5,-0.5"/>
<text text-anchor="middle" x="84" y="-8.5" font-family="DejaVuSans" font-size="10.00">QString</text>
</g>
<!-- Node1&#45;&gt;Node2 -->
<g id="edge2" class="edge"><title>Node1&#45;&gt;Node2</title>
<path fill="none" stroke="midnightblue" d="M79.8699,-116.372C76.4523,-106.974 71.8667,-92.806 70,-80 68.5896,-70.3245 68.5896,-67.6755 70,-58 71.3126,-48.9958 73.9692,-39.3181 76.619,-31.0986"/>
<polygon fill="midnightblue" stroke="midnightblue" points="79.9337,-32.2223 79.8699,-21.6276 73.3129,-29.9496 79.9337,-32.2223"/>
</g>
<!-- Node3 -->
<g id="node5" class="node"><title>Node3</title>
<a xlink:href="cv___species_8h.html" target="_top" xlink:title="cv_Species.h">
<polygon fill="white" stroke="black" points="78.5,-58.5 78.5,-79.5 157.5,-79.5 157.5,-58.5 78.5,-58.5"/>
<text text-anchor="middle" x="118" y="-66.5" font-family="DejaVuSans" font-size="10.00">cv_Species.h</text>
</a>
</g>
<!-- Node1&#45;&gt;Node3 -->
<g id="edge4" class="edge"><title>Node1&#45;&gt;Node3</title>
<path fill="none" stroke="midnightblue" d="M90.2361,-116.362C94.8371,-108.513 101.225,-97.6159 106.714,-88.2527"/>
<polygon fill="midnightblue" stroke="midnightblue" points="109.766,-89.9677 111.803,-79.5707 103.727,-86.4276 109.766,-89.9677"/>
</g>
<!-- Node3&#45;&gt;Node2 -->
<g id="edge6" class="edge"><title>Node3&#45;&gt;Node2</title>
<path fill="none" stroke="midnightblue" d="M111.764,-58.3619C107.163,-50.5131 100.775,-39.6159 95.2861,-30.2527"/>
<polygon fill="midnightblue" stroke="midnightblue" points="98.2733,-28.4276 90.1966,-21.5707 92.2344,-31.9677 98.2733,-28.4276"/>
</g>
</g>
</svg>
