<?xml version="1.0" encoding="UTF-8" standalone="no"?>
<!DOCTYPE svg PUBLIC "-//W3C//DTD SVG 1.1//EN"
 "http://www.w3.org/Graphics/SVG/1.1/DTD/svg11.dtd">
<!-- Generated by graphviz version 2.26.3 (20100126.1600)
 -->
<!-- Title: G Pages: 1 -->
<svg width="204pt" height="146pt"
 viewBox="0.00 0.00 204.00 146.00" xmlns="http://www.w3.org/2000/svg" xmlns:xlink="http://www.w3.org/1999/xlink">
<g id="graph1" class="graph" transform="scale(1 1) rotate(0) translate(4 142)">
<title>G</title>
<polygon fill="white" stroke="white" points="-4,5 -4,-142 201,-142 201,5 -4,5"/>
<!-- Node1 -->
<g id="node1" class="node"><title>Node1</title>
<polygon fill="#bfbfbf" stroke="black" points="5,-116.5 5,-137.5 175,-137.5 175,-116.5 5,-116.5"/>
<text text-anchor="middle" x="90" y="-124.5" font-family="DejaVuSans" font-size="10.00">src/Datatypes/cv_TraitDetail.cpp</text>
</g>
<!-- Node2 -->
<g id="node3" class="node"><title>Node2</title>
<a xlink:href="cv___trait_detail_8h.html" target="_top" xlink:title="cv_TraitDetail.h">
<polygon fill="white" stroke="black" points="45.5,-58.5 45.5,-79.5 134.5,-79.5 134.5,-58.5 45.5,-58.5"/>
<text text-anchor="middle" x="90" y="-66.5" font-family="DejaVuSans" font-size="10.00">cv_TraitDetail.h</text>
</a>
</g>
<!-- Node1&#45;&gt;Node2 -->
<g id="edge2" class="edge"><title>Node1&#45;&gt;Node2</title>
<path fill="none" stroke="midnightblue" d="M90,-116.362C90,-108.922 90,-98.7427 90,-89.7276"/>
<polygon fill="midnightblue" stroke="midnightblue" points="93.5001,-89.5706 90,-79.5707 86.5001,-89.5707 93.5001,-89.5706"/>
</g>
<!-- Node3 -->
<g id="node5" class="node"><title>Node3</title>
<polygon fill="white" stroke="#bfbfbf" points="-0.5,-0.5 -0.5,-21.5 52.5,-21.5 52.5,-0.5 -0.5,-0.5"/>
<text text-anchor="middle" x="26" y="-8.5" font-family="DejaVuSans" font-size="10.00">QString</text>
</g>
<!-- Node2&#45;&gt;Node3 -->
<g id="edge4" class="edge"><title>Node2&#45;&gt;Node3</title>
<path fill="none" stroke="midnightblue" d="M78.2614,-58.3619C69.0594,-50.0226 56.0599,-38.2418 45.3283,-28.5162"/>
<polygon fill="midnightblue" stroke="midnightblue" points="47.4244,-25.6924 37.6642,-21.5707 42.7237,-30.8793 47.4244,-25.6924"/>
</g>
<!-- Node4 -->
<g id="node7" class="node"><title>Node4</title>
<polygon fill="white" stroke="#bfbfbf" points="69.5,-0.5 69.5,-21.5 110.5,-21.5 110.5,-0.5 69.5,-0.5"/>
<text text-anchor="middle" x="90" y="-8.5" font-family="DejaVuSans" font-size="10.00">QList</text>
</g>
<!-- Node2&#45;&gt;Node4 -->
<g id="edge6" class="edge"><title>Node2&#45;&gt;Node4</title>
<path fill="none" stroke="midnightblue" d="M90,-58.3619C90,-50.9219 90,-40.7427 90,-31.7276"/>
<polygon fill="midnightblue" stroke="midnightblue" points="93.5001,-31.5706 90,-21.5707 86.5001,-31.5707 93.5001,-31.5706"/>
</g>
<!-- Node5 -->
<g id="node9" class="node"><title>Node5</title>
<polygon fill="white" stroke="#bfbfbf" points="127.5,-0.5 127.5,-21.5 196.5,-21.5 196.5,-0.5 127.5,-0.5"/>
<text text-anchor="middle" x="162" y="-8.5" font-family="DejaVuSans" font-size="10.00">QStringList</text>
</g>
<!-- Node2&#45;&gt;Node5 -->
<g id="edge8" class="edge"><title>Node2&#45;&gt;Node5</title>
<path fill="none" stroke="midnightblue" d="M103.206,-58.3619C113.761,-49.859 128.758,-37.7785 140.963,-27.9466"/>
<polygon fill="midnightblue" stroke="midnightblue" points="143.286,-30.5696 148.878,-21.5707 138.895,-25.1183 143.286,-30.5696"/>
</g>
</g>
</svg>
