<?xml version="1.0" encoding="UTF-8" standalone="no"?>
<!DOCTYPE svg PUBLIC "-//W3C//DTD SVG 1.1//EN"
 "http://www.w3.org/Graphics/SVG/1.1/DTD/svg11.dtd">
<!-- Generated by graphviz version 2.26.3 (20100126.1600)
 -->
<!-- Title: G Pages: 1 -->
<svg width="196pt" height="262pt"
 viewBox="0.00 0.00 196.00 262.00" xmlns="http://www.w3.org/2000/svg" xmlns:xlink="http://www.w3.org/1999/xlink">
<g id="graph1" class="graph" transform="scale(1 1) rotate(0) translate(4 258)">
<title>G</title>
<polygon fill="white" stroke="white" points="-4,5 -4,-258 193,-258 193,5 -4,5"/>
<!-- Node1 -->
<g id="node1" class="node"><title>Node1</title>
<polygon fill="#bfbfbf" stroke="black" points="-0.5,-232.5 -0.5,-253.5 188.5,-253.5 188.5,-232.5 -0.5,-232.5"/>
<text text-anchor="middle" x="94" y="-240.5" font-family="DejaVuSans" font-size="10.00">src/Datatypes/cv_Derangement.cpp</text>
</g>
<!-- Node2 -->
<g id="node3" class="node"><title>Node2</title>
<a xlink:href="cv___derangement_8h.html" target="_top" xlink:title="cv_Derangement.h">
<polygon fill="white" stroke="black" points="40,-174.5 40,-195.5 148,-195.5 148,-174.5 40,-174.5"/>
<text text-anchor="middle" x="94" y="-182.5" font-family="DejaVuSans" font-size="10.00">cv_Derangement.h</text>
</a>
</g>
<!-- Node1&#45;&gt;Node2 -->
<g id="edge2" class="edge"><title>Node1&#45;&gt;Node2</title>
<path fill="none" stroke="midnightblue" d="M94,-232.362C94,-224.922 94,-214.743 94,-205.728"/>
<polygon fill="midnightblue" stroke="midnightblue" points="97.5001,-205.571 94,-195.571 90.5001,-205.571 97.5001,-205.571"/>
</g>
<!-- Node3 -->
<g id="node5" class="node"><title>Node3</title>
<a xlink:href="cv___abstract_trait_8h.html" target="_top" xlink:title="cv_AbstractTrait.h">
<polygon fill="white" stroke="black" points="43.5,-116.5 43.5,-137.5 144.5,-137.5 144.5,-116.5 43.5,-116.5"/>
<text text-anchor="middle" x="94" y="-124.5" font-family="DejaVuSans" font-size="10.00">cv_AbstractTrait.h</text>
</a>
</g>
<!-- Node2&#45;&gt;Node3 -->
<g id="edge4" class="edge"><title>Node2&#45;&gt;Node3</title>
<path fill="none" stroke="midnightblue" d="M94,-174.362C94,-166.922 94,-156.743 94,-147.728"/>
<polygon fill="midnightblue" stroke="midnightblue" points="97.5001,-147.571 94,-137.571 90.5001,-147.571 97.5001,-147.571"/>
</g>
<!-- Node4 -->
<g id="node7" class="node"><title>Node4</title>
<polygon fill="white" stroke="#bfbfbf" points="35.5,-58.5 35.5,-79.5 76.5,-79.5 76.5,-58.5 35.5,-58.5"/>
<text text-anchor="middle" x="56" y="-66.5" font-family="DejaVuSans" font-size="10.00">QList</text>
</g>
<!-- Node3&#45;&gt;Node4 -->
<g id="edge6" class="edge"><title>Node3&#45;&gt;Node4</title>
<path fill="none" stroke="midnightblue" d="M87.0302,-116.362C81.8343,-108.431 74.5994,-97.3885 68.4225,-87.9606"/>
<polygon fill="midnightblue" stroke="midnightblue" points="71.3335,-86.0172 62.9256,-79.5707 65.4783,-89.8534 71.3335,-86.0172"/>
</g>
<!-- Node5 -->
<g id="node9" class="node"><title>Node5</title>
<a xlink:href="cv___species_8h.html" target="_top" xlink:title="cv_Species.h">
<polygon fill="white" stroke="black" points="93.5,-58.5 93.5,-79.5 172.5,-79.5 172.5,-58.5 93.5,-58.5"/>
<text text-anchor="middle" x="133" y="-66.5" font-family="DejaVuSans" font-size="10.00">cv_Species.h</text>
</a>
</g>
<!-- Node3&#45;&gt;Node5 -->
<g id="edge8" class="edge"><title>Node3&#45;&gt;Node5</title>
<path fill="none" stroke="midnightblue" d="M101.153,-116.362C106.486,-108.431 113.911,-97.3885 120.251,-87.9606"/>
<polygon fill="midnightblue" stroke="midnightblue" points="123.217,-89.8221 125.892,-79.5707 117.408,-85.9161 123.217,-89.8221"/>
</g>
<!-- Node6 -->
<g id="node11" class="node"><title>Node6</title>
<polygon fill="white" stroke="#bfbfbf" points="106.5,-0.5 106.5,-21.5 159.5,-21.5 159.5,-0.5 106.5,-0.5"/>
<text text-anchor="middle" x="133" y="-8.5" font-family="DejaVuSans" font-size="10.00">QString</text>
</g>
<!-- Node5&#45;&gt;Node6 -->
<g id="edge10" class="edge"><title>Node5&#45;&gt;Node6</title>
<path fill="none" stroke="midnightblue" d="M133,-58.3619C133,-50.9219 133,-40.7427 133,-31.7276"/>
<polygon fill="midnightblue" stroke="midnightblue" points="136.5,-31.5706 133,-21.5707 129.5,-31.5707 136.5,-31.5706"/>
</g>
</g>
</svg>
