<?xml version="1.0" encoding="UTF-8" standalone="no"?>
<!DOCTYPE svg PUBLIC "-//W3C//DTD SVG 1.1//EN"
 "http://www.w3.org/Graphics/SVG/1.1/DTD/svg11.dtd">
<!-- Generated by graphviz version 2.26.3 (20100126.1600)
 -->
<!-- Title: G Pages: 1 -->
<svg width="673pt" height="146pt"
 viewBox="0.00 0.00 673.00 146.00" xmlns="http://www.w3.org/2000/svg" xmlns:xlink="http://www.w3.org/1999/xlink">
<g id="graph1" class="graph" transform="scale(1 1) rotate(0) translate(4 142)">
<title>G</title>
<polygon fill="white" stroke="white" points="-4,5 -4,-142 670,-142 670,5 -4,5"/>
<!-- Node1 -->
<g id="node1" class="node"><title>Node1</title>
<polygon fill="#bfbfbf" stroke="black" points="203.5,-116.5 203.5,-137.5 374.5,-137.5 374.5,-116.5 203.5,-116.5"/>
<text text-anchor="middle" x="289" y="-124.5" font-family="DejaVuSans" font-size="10.00">src/Datatypes/cv_AbstractTrait.h</text>
</g>
<!-- Node2 -->
<g id="node3" class="node"><title>Node2</title>
<a xlink:href="cv___abstract_trait_8cpp.html" target="_top" xlink:title="src/Datatypes/cv_AbstractTrait.cpp">
<polygon fill="white" stroke="black" points="0,-58.5 0,-79.5 182,-79.5 182,-58.5 0,-58.5"/>
<text text-anchor="middle" x="91" y="-66.5" font-family="DejaVuSans" font-size="10.00">src/Datatypes/cv_AbstractTrait.cpp</text>
</a>
</g>
<!-- Node1&#45;&gt;Node2 -->
<g id="edge2" class="edge"><title>Node1&#45;&gt;Node2</title>
<path fill="none" stroke="midnightblue" d="M243.527,-113.68C208.117,-103.307 159.644,-89.1078 126.924,-79.5231"/>
<polygon fill="midnightblue" stroke="midnightblue" points="242.563,-117.044 253.144,-116.497 244.531,-110.327 242.563,-117.044"/>
</g>
<!-- Node3 -->
<g id="node5" class="node"><title>Node3</title>
<a xlink:href="cv___derangement_8h.html" target="_top" xlink:title="src/Datatypes/cv_Derangement.h">
<polygon fill="white" stroke="black" points="200,-58.5 200,-79.5 378,-79.5 378,-58.5 200,-58.5"/>
<text text-anchor="middle" x="289" y="-66.5" font-family="DejaVuSans" font-size="10.00">src/Datatypes/cv_Derangement.h</text>
</a>
</g>
<!-- Node1&#45;&gt;Node3 -->
<g id="edge4" class="edge"><title>Node1&#45;&gt;Node3</title>
<path fill="none" stroke="midnightblue" d="M289,-106.191C289,-97.1684 289,-86.9941 289,-79.5707"/>
<polygon fill="midnightblue" stroke="midnightblue" points="285.5,-106.362 289,-116.362 292.5,-106.362 285.5,-106.362"/>
</g>
<!-- Node5 -->
<g id="node9" class="node"><title>Node5</title>
<a xlink:href="cv___trait_8h.html" target="_top" xlink:title="src/Datatypes/cv_Trait.h">
<polygon fill="white" stroke="black" points="400.5,-58.5 400.5,-79.5 531.5,-79.5 531.5,-58.5 400.5,-58.5"/>
<text text-anchor="middle" x="466" y="-66.5" font-family="DejaVuSans" font-size="10.00">src/Datatypes/cv_Trait.h</text>
</a>
</g>
<!-- Node1&#45;&gt;Node5 -->
<g id="edge8" class="edge"><title>Node1&#45;&gt;Node5</title>
<path fill="none" stroke="midnightblue" d="M330.874,-113.279C362.413,-102.944 405.012,-88.9849 433.887,-79.5231"/>
<polygon fill="midnightblue" stroke="midnightblue" points="329.466,-110.057 321.053,-116.497 331.646,-116.709 329.466,-110.057"/>
</g>
<!-- Node4 -->
<g id="node7" class="node"><title>Node4</title>
<a xlink:href="cv___derangement_8cpp.html" target="_top" xlink:title="src/Datatypes/cv_Derangement.cpp">
<polygon fill="white" stroke="black" points="188.5,-0.5 188.5,-21.5 377.5,-21.5 377.5,-0.5 188.5,-0.5"/>
<text text-anchor="middle" x="283" y="-8.5" font-family="DejaVuSans" font-size="10.00">src/Datatypes/cv_Derangement.cpp</text>
</a>
</g>
<!-- Node3&#45;&gt;Node4 -->
<g id="edge6" class="edge"><title>Node3&#45;&gt;Node4</title>
<path fill="none" stroke="midnightblue" d="M286.847,-48.1906C285.914,-39.1684 284.861,-28.9941 284.094,-21.5707"/>
<polygon fill="midnightblue" stroke="midnightblue" points="283.389,-48.7752 287.9,-58.3619 290.352,-48.0548 283.389,-48.7752"/>
</g>
<!-- Node6 -->
<g id="node11" class="node"><title>Node6</title>
<a xlink:href="cv___trait_8cpp.html" target="_top" xlink:title="src/Datatypes/cv_Trait.cpp">
<polygon fill="white" stroke="black" points="395,-0.5 395,-21.5 537,-21.5 537,-0.5 395,-0.5"/>
<text text-anchor="middle" x="466" y="-8.5" font-family="DejaVuSans" font-size="10.00">src/Datatypes/cv_Trait.cpp</text>
</a>
</g>
<!-- Node5&#45;&gt;Node6 -->
<g id="edge10" class="edge"><title>Node5&#45;&gt;Node6</title>
<path fill="none" stroke="midnightblue" d="M466,-48.1906C466,-39.1684 466,-28.9941 466,-21.5707"/>
<polygon fill="midnightblue" stroke="midnightblue" points="462.5,-48.3619 466,-58.3619 469.5,-48.3619 462.5,-48.3619"/>
</g>
<!-- Node7 -->
<g id="node13" class="node"><title>Node7</title>
<a xlink:href="_main_window_8cpp.html" target="_top" xlink:title="src/MainWindow.cpp">
<polygon fill="white" stroke="black" points="554.5,-0.5 554.5,-21.5 665.5,-21.5 665.5,-0.5 554.5,-0.5"/>
<text text-anchor="middle" x="610" y="-8.5" font-family="DejaVuSans" font-size="10.00">src/MainWindow.cpp</text>
</a>
</g>
<!-- Node5&#45;&gt;Node7 -->
<g id="edge12" class="edge"><title>Node5&#45;&gt;Node7</title>
<path fill="none" stroke="midnightblue" d="M501.377,-54.7509C526.806,-44.5086 560.542,-30.9206 583.63,-21.6212"/>
<polygon fill="midnightblue" stroke="midnightblue" points="500.046,-51.5139 492.077,-58.4966 502.661,-58.007 500.046,-51.5139"/>
</g>
</g>
</svg>
