<?xml version="1.0" encoding="UTF-8" standalone="no"?>
<!DOCTYPE svg PUBLIC "-//W3C//DTD SVG 1.1//EN"
 "http://www.w3.org/Graphics/SVG/1.1/DTD/svg11.dtd">
<!-- Generated by graphviz version 2.26.3 (20100126.1600)
 -->
<!-- Title: G Pages: 1 -->
<svg width="190pt" height="262pt"
 viewBox="0.00 0.00 190.00 262.00" xmlns="http://www.w3.org/2000/svg" xmlns:xlink="http://www.w3.org/1999/xlink">
<g id="graph1" class="graph" transform="scale(1 1) rotate(0) translate(4 258)">
<title>G</title>
<polygon fill="white" stroke="white" points="-4,5 -4,-258 187,-258 187,5 -4,5"/>
<!-- Node1 -->
<g id="node1" class="node"><title>Node1</title>
<polygon fill="#bfbfbf" stroke="black" points="0,-232.5 0,-253.5 174,-253.5 174,-232.5 0,-232.5"/>
<text text-anchor="middle" x="87" y="-240.5" font-family="DejaVuSans" font-size="10.00">src/Datatypes/cv_IdentityList.cpp</text>
</g>
<!-- Node2 -->
<g id="node3" class="node"><title>Node2</title>
<a xlink:href="cv___identity_list_8h.html" target="_top" xlink:title="cv_IdentityList.h">
<polygon fill="white" stroke="black" points="40.5,-174.5 40.5,-195.5 133.5,-195.5 133.5,-174.5 40.5,-174.5"/>
<text text-anchor="middle" x="87" y="-182.5" font-family="DejaVuSans" font-size="10.00">cv_IdentityList.h</text>
</a>
</g>
<!-- Node1&#45;&gt;Node2 -->
<g id="edge2" class="edge"><title>Node1&#45;&gt;Node2</title>
<path fill="none" stroke="midnightblue" d="M87,-232.362C87,-224.922 87,-214.743 87,-205.728"/>
<polygon fill="midnightblue" stroke="midnightblue" points="90.5001,-205.571 87,-195.571 83.5001,-205.571 90.5001,-205.571"/>
</g>
<!-- Node3 -->
<g id="node5" class="node"><title>Node3</title>
<polygon fill="white" stroke="#bfbfbf" points="15.5,-0.5 15.5,-21.5 68.5,-21.5 68.5,-0.5 15.5,-0.5"/>
<text text-anchor="middle" x="42" y="-8.5" font-family="DejaVuSans" font-size="10.00">QString</text>
</g>
<!-- Node2&#45;&gt;Node3 -->
<g id="edge4" class="edge"><title>Node2&#45;&gt;Node3</title>
<path fill="none" stroke="midnightblue" d="M71.4015,-174.271C60.6072,-165.831 47.1238,-153.012 41,-138 26.6442,-102.808 32.0744,-57.4283 37.154,-31.536"/>
<polygon fill="midnightblue" stroke="midnightblue" points="40.5848,-32.2294 39.2508,-21.7189 33.7392,-30.7673 40.5848,-32.2294"/>
</g>
<!-- Node4 -->
<g id="node7" class="node"><title>Node4</title>
<a xlink:href="cv___identity_8h.html" target="_top" xlink:title="cv_Identity.h">
<polygon fill="white" stroke="black" points="49.5,-116.5 49.5,-137.5 124.5,-137.5 124.5,-116.5 49.5,-116.5"/>
<text text-anchor="middle" x="87" y="-124.5" font-family="DejaVuSans" font-size="10.00">cv_Identity.h</text>
</a>
</g>
<!-- Node2&#45;&gt;Node4 -->
<g id="edge6" class="edge"><title>Node2&#45;&gt;Node4</title>
<path fill="none" stroke="midnightblue" d="M87,-174.362C87,-166.922 87,-156.743 87,-147.728"/>
<polygon fill="midnightblue" stroke="midnightblue" points="90.5001,-147.571 87,-137.571 83.5001,-147.571 90.5001,-147.571"/>
</g>
<!-- Node7 -->
<g id="node16" class="node"><title>Node7</title>
<polygon fill="white" stroke="#bfbfbf" points="141.5,-116.5 141.5,-137.5 182.5,-137.5 182.5,-116.5 141.5,-116.5"/>
<text text-anchor="middle" x="162" y="-124.5" font-family="DejaVuSans" font-size="10.00">QList</text>
</g>
<!-- Node2&#45;&gt;Node7 -->
<g id="edge18" class="edge"><title>Node2&#45;&gt;Node7</title>
<path fill="none" stroke="midnightblue" d="M100.756,-174.362C111.751,-165.859 127.373,-153.779 140.086,-143.947"/>
<polygon fill="midnightblue" stroke="midnightblue" points="142.562,-146.457 148.331,-137.571 138.279,-140.919 142.562,-146.457"/>
</g>
<!-- Node4&#45;&gt;Node3 -->
<g id="edge10" class="edge"><title>Node4&#45;&gt;Node3</title>
<path fill="none" stroke="midnightblue" d="M80.0338,-116.161C74.2981,-106.863 66.279,-92.9531 61,-80 54.5617,-64.2024 49.5643,-45.503 46.3141,-31.5583"/>
<polygon fill="midnightblue" stroke="midnightblue" points="49.6739,-30.5432 44.0879,-21.5406 42.8406,-32.0618 49.6739,-30.5432"/>
</g>
<!-- Node5 -->
<g id="node9" class="node"><title>Node5</title>
<polygon fill="white" stroke="#bfbfbf" points="109.5,-0.5 109.5,-21.5 178.5,-21.5 178.5,-0.5 109.5,-0.5"/>
<text text-anchor="middle" x="144" y="-8.5" font-family="DejaVuSans" font-size="10.00">QStringList</text>
</g>
<!-- Node4&#45;&gt;Node5 -->
<g id="edge8" class="edge"><title>Node4&#45;&gt;Node5</title>
<path fill="none" stroke="midnightblue" d="M110.022,-116.371C124.089,-108.508 140.887,-96.3304 149,-80 156.409,-65.0856 154.326,-46.0855 150.859,-31.8008"/>
<polygon fill="midnightblue" stroke="midnightblue" points="154.16,-30.6132 148.072,-21.9422 147.424,-32.5172 154.16,-30.6132"/>
</g>
<!-- Node6 -->
<g id="node12" class="node"><title>Node6</title>
<a xlink:href="cv___name_8h.html" target="_top" xlink:title="cv_Name.h">
<polygon fill="white" stroke="black" points="69.5,-58.5 69.5,-79.5 140.5,-79.5 140.5,-58.5 69.5,-58.5"/>
<text text-anchor="middle" x="105" y="-66.5" font-family="DejaVuSans" font-size="10.00">cv_Name.h</text>
</a>
</g>
<!-- Node4&#45;&gt;Node6 -->
<g id="edge12" class="edge"><title>Node4&#45;&gt;Node6</title>
<path fill="none" stroke="midnightblue" d="M90.3015,-116.362C92.6612,-108.758 95.9088,-98.294 98.7512,-89.1349"/>
<polygon fill="midnightblue" stroke="midnightblue" points="102.098,-90.1587 101.719,-79.5707 95.4127,-88.0839 102.098,-90.1587"/>
</g>
<!-- Node6&#45;&gt;Node3 -->
<g id="edge16" class="edge"><title>Node6&#45;&gt;Node3</title>
<path fill="none" stroke="midnightblue" d="M93.4448,-58.3619C84.3866,-50.0226 71.5903,-38.2418 61.0263,-28.5162"/>
<polygon fill="midnightblue" stroke="midnightblue" points="63.2095,-25.7688 53.4819,-21.5707 58.4683,-30.9187 63.2095,-25.7688"/>
</g>
<!-- Node6&#45;&gt;Node5 -->
<g id="edge14" class="edge"><title>Node6&#45;&gt;Node5</title>
<path fill="none" stroke="midnightblue" d="M112.153,-58.3619C117.486,-50.4313 124.911,-39.3885 131.251,-29.9606"/>
<polygon fill="midnightblue" stroke="midnightblue" points="134.217,-31.8221 136.892,-21.5707 128.408,-27.9161 134.217,-31.8221"/>
</g>
</g>
</svg>
