<?xml version="1.0" encoding="UTF-8" standalone="no"?>
<!DOCTYPE svg PUBLIC "-//W3C//DTD SVG 1.1//EN"
 "http://www.w3.org/Graphics/SVG/1.1/DTD/svg11.dtd">
<!-- Generated by graphviz version 2.26.3 (20100126.1600)
 -->
<!-- Title: G Pages: 1 -->
<svg width="5600pt" height="262pt"
 viewBox="0.00 0.00 5600.00 262.00" xmlns="http://www.w3.org/2000/svg" xmlns:xlink="http://www.w3.org/1999/xlink">
<g id="graph1" class="graph" transform="scale(1 1) rotate(0) translate(4 258)">
<title>G</title>
<polygon fill="white" stroke="white" points="-4,5 -4,-258 5597,-258 5597,5 -4,5"/>
<!-- Node1 -->
<g id="node1" class="node"><title>Node1</title>
<polygon fill="#bfbfbf" stroke="black" points="4935,-232.5 4935,-253.5 5077,-253.5 5077,-232.5 4935,-232.5"/>
<text text-anchor="middle" x="5006" y="-240.5" font-family="DejaVuSans" font-size="10.00">src/Datatypes/cv_Shape.h</text>
</g>
<!-- Node2 -->
<g id="node3" class="node"><title>Node2</title>
<a xlink:href="_exception_8h_source.html" target="_top" xlink:title="src/Exceptions/Exception.h">
<polygon fill="white" stroke="black" points="2732,-174.5 2732,-195.5 2876,-195.5 2876,-174.5 2732,-174.5"/>
<text text-anchor="middle" x="2804" y="-182.5" font-family="DejaVuSans" font-size="10.00">src/Exceptions/Exception.h</text>
</a>
</g>
<!-- Node1&#45;&gt;Node2 -->
<g id="edge2" class="edge"><title>Node1&#45;&gt;Node2</title>
<path fill="none" stroke="midnightblue" d="M4924.9,-240.864C4576.16,-231.678 3206.76,-195.608 2876.13,-186.9"/>
<polygon fill="midnightblue" stroke="midnightblue" points="4924.83,-244.363 4934.92,-241.128 4925.02,-237.366 4924.83,-244.363"/>
</g>
<!-- Node8 -->
<g id="node15" class="node"><title>Node8</title>
<a xlink:href="cv___shape_8cpp.html" target="_top" xlink:title="src/Datatypes/cv_Shape.cpp">
<polygon fill="white" stroke="black" points="-0.5,-116.5 -0.5,-137.5 152.5,-137.5 152.5,-116.5 -0.5,-116.5"/>
<text text-anchor="middle" x="76" y="-124.5" font-family="DejaVuSans" font-size="10.00">src/Datatypes/cv_Shape.cpp</text>
</a>
</g>
<!-- Node1&#45;&gt;Node8 -->
<g id="edge98" class="edge"><title>Node1&#45;&gt;Node8</title>
<path fill="none" stroke="midnightblue" d="M4924.3,-242.16C4370.38,-236.323 1157.79,-200.205 181,-138 171.854,-137.418 162.275,-136.643 152.782,-135.774"/>
<polygon fill="midnightblue" stroke="midnightblue" points="4924.56,-245.663 4934.59,-242.268 4924.63,-238.663 4924.56,-245.663"/>
</g>
<!-- Node26 -->
<g id="node52" class="node"><title>Node26</title>
<a xlink:href="_attribute_widget_8cpp.html" target="_top" xlink:title="src/Widgets/AttributeWidget.cpp">
<polygon fill="white" stroke="black" points="4921.5,-116.5 4921.5,-137.5 5090.5,-137.5 5090.5,-116.5 4921.5,-116.5"/>
<text text-anchor="middle" x="5006" y="-124.5" font-family="DejaVuSans" font-size="10.00">src/Widgets/AttributeWidget.cpp</text>
</a>
</g>
<!-- Node1&#45;&gt;Node26 -->
<g id="edge102" class="edge"><title>Node1&#45;&gt;Node26</title>
<path fill="none" stroke="midnightblue" d="M5006,-222.123C5006,-197.298 5006,-156.824 5006,-137.679"/>
<polygon fill="midnightblue" stroke="midnightblue" points="5002.5,-222.295 5006,-232.295 5009.5,-222.295 5002.5,-222.295"/>
</g>
<!-- Node37 -->
<g id="node75" class="node"><title>Node37</title>
<a xlink:href="_calc_advantages_8h.html" target="_top" xlink:title="src/Calc/CalcAdvantages.h">
<polygon fill="white" stroke="black" points="5113.5,-174.5 5113.5,-195.5 5256.5,-195.5 5256.5,-174.5 5113.5,-174.5"/>
<text text-anchor="middle" x="5185" y="-182.5" font-family="DejaVuSans" font-size="10.00">src/Calc/CalcAdvantages.h</text>
</a>
</g>
<!-- Node1&#45;&gt;Node37 -->
<g id="edge76" class="edge"><title>Node1&#45;&gt;Node37</title>
<path fill="none" stroke="midnightblue" d="M5047.93,-229.413C5079.87,-219.065 5123.2,-205.026 5152.52,-195.523"/>
<polygon fill="midnightblue" stroke="midnightblue" points="5046.85,-226.085 5038.42,-232.497 5049.01,-232.744 5046.85,-226.085"/>
</g>
<!-- Node38 -->
<g id="node78" class="node"><title>Node38</title>
<a xlink:href="_draw_sheet_8h.html" target="_top" xlink:title="src/Draw/DrawSheet.h">
<polygon fill="white" stroke="black" points="5470,-116.5 5470,-137.5 5592,-137.5 5592,-116.5 5470,-116.5"/>
<text text-anchor="middle" x="5531" y="-124.5" font-family="DejaVuSans" font-size="10.00">src/Draw/DrawSheet.h</text>
</a>
</g>
<!-- Node1&#45;&gt;Node38 -->
<g id="edge100" class="edge"><title>Node1&#45;&gt;Node38</title>
<path fill="none" stroke="midnightblue" d="M5081.84,-230.765C5133.63,-222.036 5203.7,-209.493 5265,-196 5347.24,-177.898 5442.52,-151.958 5493.77,-137.593"/>
<polygon fill="midnightblue" stroke="midnightblue" points="5081.02,-227.354 5071.73,-232.459 5082.17,-234.257 5081.02,-227.354"/>
</g>
<!-- Node3 -->
<g id="node5" class="node"><title>Node3</title>
<a xlink:href="_calc_advantages_8cpp.html" target="_top" xlink:title="src/Calc/CalcAdvantages.cpp">
<polygon fill="white" stroke="black" points="5107.5,-116.5 5107.5,-137.5 5262.5,-137.5 5262.5,-116.5 5107.5,-116.5"/>
<text text-anchor="middle" x="5185" y="-124.5" font-family="DejaVuSans" font-size="10.00">src/Calc/CalcAdvantages.cpp</text>
</a>
</g>
<!-- Node2&#45;&gt;Node3 -->
<g id="edge4" class="edge"><title>Node2&#45;&gt;Node3</title>
<path fill="none" stroke="midnightblue" d="M2886.24,-184.494C3242.66,-182.121 4655.76,-170.791 5099,-138 5101.7,-137.8 5104.45,-137.574 5107.22,-137.326"/>
<polygon fill="midnightblue" stroke="midnightblue" points="2885.98,-180.996 2876.01,-184.562 2886.03,-187.996 2885.98,-180.996"/>
</g>
<!-- Node4 -->
<g id="node7" class="node"><title>Node4</title>
<a xlink:href="_config_8cpp.html" target="_top" xlink:title="src/Config/Config.cpp">
<polygon fill="white" stroke="black" points="2661.5,-116.5 2661.5,-137.5 2778.5,-137.5 2778.5,-116.5 2661.5,-116.5"/>
<text text-anchor="middle" x="2720" y="-124.5" font-family="DejaVuSans" font-size="10.00">src/Config/Config.cpp</text>
</a>
</g>
<!-- Node2&#45;&gt;Node4 -->
<g id="edge6" class="edge"><title>Node2&#45;&gt;Node4</title>
<path fill="none" stroke="midnightblue" d="M2780.16,-168.541C2765.76,-158.597 2747.83,-146.218 2735.31,-137.571"/>
<polygon fill="midnightblue" stroke="midnightblue" points="2778.38,-171.56 2788.59,-174.362 2782.35,-165.8 2778.38,-171.56"/>
</g>
<!-- Node5 -->
<g id="node9" class="node"><title>Node5</title>
<a xlink:href="cv___abstract_trait_8cpp.html" target="_top" xlink:title="src/Datatypes/cv_AbstractTrait.cpp">
<polygon fill="white" stroke="black" points="2796,-116.5 2796,-137.5 2978,-137.5 2978,-116.5 2796,-116.5"/>
<text text-anchor="middle" x="2887" y="-124.5" font-family="DejaVuSans" font-size="10.00">src/Datatypes/cv_AbstractTrait.cpp</text>
</a>
</g>
<!-- Node2&#45;&gt;Node5 -->
<g id="edge8" class="edge"><title>Node2&#45;&gt;Node5</title>
<path fill="none" stroke="midnightblue" d="M2827.55,-168.541C2841.78,-158.597 2859.5,-146.218 2871.87,-137.571"/>
<polygon fill="midnightblue" stroke="midnightblue" points="2825.42,-165.765 2819.22,-174.362 2829.43,-171.503 2825.42,-165.765"/>
</g>
<!-- Node6 -->
<g id="node11" class="node"><title>Node6</title>
<a xlink:href="cv___derangement_8cpp.html" target="_top" xlink:title="src/Datatypes/cv_Derangement.cpp">
<polygon fill="white" stroke="black" points="2995.5,-116.5 2995.5,-137.5 3184.5,-137.5 3184.5,-116.5 2995.5,-116.5"/>
<text text-anchor="middle" x="3090" y="-124.5" font-family="DejaVuSans" font-size="10.00">src/Datatypes/cv_Derangement.cpp</text>
</a>
</g>
<!-- Node2&#45;&gt;Node6 -->
<g id="edge10" class="edge"><title>Node2&#45;&gt;Node6</title>
<path fill="none" stroke="midnightblue" d="M2865.79,-172.47C2917.23,-162.038 2989.64,-147.354 3038.11,-137.523"/>
<polygon fill="midnightblue" stroke="midnightblue" points="2864.9,-169.079 2855.79,-174.497 2866.29,-175.939 2864.9,-169.079"/>
</g>
<!-- Node7 -->
<g id="node13" class="node"><title>Node7</title>
<a xlink:href="cv___identity_8cpp.html" target="_top" xlink:title="src/Datatypes/cv_Identity.cpp">
<polygon fill="white" stroke="black" points="3202,-116.5 3202,-137.5 3358,-137.5 3358,-116.5 3202,-116.5"/>
<text text-anchor="middle" x="3280" y="-124.5" font-family="DejaVuSans" font-size="10.00">src/Datatypes/cv_Identity.cpp</text>
</a>
</g>
<!-- Node2&#45;&gt;Node7 -->
<g id="edge12" class="edge"><title>Node2&#45;&gt;Node7</title>
<path fill="none" stroke="midnightblue" d="M2886.41,-175.177C2965.16,-165.759 3087.2,-151.08 3193,-138 3195.87,-137.645 3198.79,-137.282 3201.75,-136.915"/>
<polygon fill="midnightblue" stroke="midnightblue" points="2885.58,-171.751 2876.07,-176.413 2886.41,-178.702 2885.58,-171.751"/>
</g>
<!-- Node2&#45;&gt;Node8 -->
<g id="edge14" class="edge"><title>Node2&#45;&gt;Node8</title>
<path fill="none" stroke="midnightblue" d="M2721.89,-184.687C2333.81,-183.031 680.925,-173.957 166,-138 161.603,-137.693 157.091,-137.322 152.543,-136.903"/>
<polygon fill="midnightblue" stroke="midnightblue" points="2721.9,-188.187 2731.91,-184.729 2721.93,-181.187 2721.9,-188.187"/>
</g>
<!-- Node9 -->
<g id="node17" class="node"><title>Node9</title>
<a xlink:href="cv___species_8cpp.html" target="_top" xlink:title="src/Datatypes/cv_Species.cpp">
<polygon fill="white" stroke="black" points="3376,-116.5 3376,-137.5 3536,-137.5 3536,-116.5 3376,-116.5"/>
<text text-anchor="middle" x="3456" y="-124.5" font-family="DejaVuSans" font-size="10.00">src/Datatypes/cv_Species.cpp</text>
</a>
</g>
<!-- Node2&#45;&gt;Node9 -->
<g id="edge16" class="edge"><title>Node2&#45;&gt;Node9</title>
<path fill="none" stroke="midnightblue" d="M2886.08,-179.174C2995.79,-171.151 3196.23,-155.674 3367,-138 3369.94,-137.695 3372.94,-137.376 3375.96,-137.044"/>
<polygon fill="midnightblue" stroke="midnightblue" points="2885.79,-175.685 2876.07,-179.903 2886.3,-182.667 2885.79,-175.685"/>
</g>
<!-- Node10 -->
<g id="node19" class="node"><title>Node10</title>
<a xlink:href="cv___super_effect_8cpp.html" target="_top" xlink:title="src/Datatypes/cv_SuperEffect.cpp">
<polygon fill="white" stroke="black" points="3554,-116.5 3554,-137.5 3732,-137.5 3732,-116.5 3554,-116.5"/>
<text text-anchor="middle" x="3643" y="-124.5" font-family="DejaVuSans" font-size="10.00">src/Datatypes/cv_SuperEffect.cpp</text>
</a>
</g>
<!-- Node2&#45;&gt;Node10 -->
<g id="edge18" class="edge"><title>Node2&#45;&gt;Node10</title>
<path fill="none" stroke="midnightblue" d="M2886.13,-181.093C3022.93,-174.292 3306.04,-158.977 3545,-138 3547.9,-137.745 3550.85,-137.476 3553.82,-137.195"/>
<polygon fill="midnightblue" stroke="midnightblue" points="2885.95,-177.597 2876.14,-181.587 2886.3,-184.588 2885.95,-177.597"/>
</g>
<!-- Node11 -->
<g id="node21" class="node"><title>Node11</title>
<a xlink:href="cv___trait_8cpp.html" target="_top" xlink:title="src/Datatypes/cv_Trait.cpp">
<polygon fill="white" stroke="black" points="3750,-116.5 3750,-137.5 3892,-137.5 3892,-116.5 3750,-116.5"/>
<text text-anchor="middle" x="3821" y="-124.5" font-family="DejaVuSans" font-size="10.00">src/Datatypes/cv_Trait.cpp</text>
</a>
</g>
<!-- Node2&#45;&gt;Node11 -->
<g id="edge20" class="edge"><title>Node2&#45;&gt;Node11</title>
<path fill="none" stroke="midnightblue" d="M2886.61,-183.257C3050.07,-179.276 3426.21,-167.481 3741,-138 3743.93,-137.725 3746.92,-137.422 3749.94,-137.096"/>
<polygon fill="midnightblue" stroke="midnightblue" points="2886.07,-179.768 2876.16,-183.508 2886.24,-186.766 2886.07,-179.768"/>
</g>
<!-- Node12 -->
<g id="node23" class="node"><title>Node12</title>
<a xlink:href="_draw_sheet_8cpp.html" target="_top" xlink:title="src/Draw/DrawSheet.cpp">
<polygon fill="white" stroke="black" points="5084,-58.5 5084,-79.5 5218,-79.5 5218,-58.5 5084,-58.5"/>
<text text-anchor="middle" x="5151" y="-66.5" font-family="DejaVuSans" font-size="10.00">src/Draw/DrawSheet.cpp</text>
</a>
</g>
<!-- Node2&#45;&gt;Node12 -->
<g id="edge22" class="edge"><title>Node2&#45;&gt;Node12</title>
<path fill="none" stroke="midnightblue" d="M2886.53,-183.735C3125.09,-179.762 3804.7,-166.089 3901,-138 3919.73,-132.536 3920.24,-121.371 3939,-116 4056.14,-82.4666 4913.4,-87.755 5035,-80 5050.85,-78.9893 5067.88,-77.5641 5083.89,-76.0737"/>
<polygon fill="midnightblue" stroke="midnightblue" points="2886.13,-180.242 2876.19,-183.906 2886.24,-187.241 2886.13,-180.242"/>
</g>
<!-- Node13 -->
<g id="node25" class="node"><title>Node13</title>
<a xlink:href="_exception_8cpp.html" target="_top" xlink:title="src/Exceptions/Exception.cpp">
<polygon fill="white" stroke="black" points="3947.5,-116.5 3947.5,-137.5 4102.5,-137.5 4102.5,-116.5 3947.5,-116.5"/>
<text text-anchor="middle" x="4025" y="-124.5" font-family="DejaVuSans" font-size="10.00">src/Exceptions/Exception.cpp</text>
</a>
</g>
<!-- Node2&#45;&gt;Node13 -->
<g id="edge24" class="edge"><title>Node2&#45;&gt;Node13</title>
<path fill="none" stroke="midnightblue" d="M2886.18,-183.798C3072.73,-180.583 3542.45,-169.758 3934,-138 3938.28,-137.653 3942.67,-137.256 3947.1,-136.825"/>
<polygon fill="midnightblue" stroke="midnightblue" points="2886.11,-180.298 2876.17,-183.967 2886.23,-187.297 2886.11,-180.298"/>
</g>
<!-- Node14 -->
<g id="node27" class="node"><title>Node14</title>
<a xlink:href="_read_xml_8cpp.html" target="_top" xlink:title="src/IO/ReadXml.cpp">
<polygon fill="white" stroke="black" points="4120,-116.5 4120,-137.5 4228,-137.5 4228,-116.5 4120,-116.5"/>
<text text-anchor="middle" x="4174" y="-124.5" font-family="DejaVuSans" font-size="10.00">src/IO/ReadXml.cpp</text>
</a>
</g>
<!-- Node2&#45;&gt;Node14 -->
<g id="edge26" class="edge"><title>Node2&#45;&gt;Node14</title>
<path fill="none" stroke="midnightblue" d="M2886.43,-183.514C3134.54,-178.808 3871.98,-163.045 4111,-138 4113.87,-137.699 4116.81,-137.346 4119.77,-136.954"/>
<polygon fill="midnightblue" stroke="midnightblue" points="2886.33,-180.015 2876.4,-183.704 2886.46,-187.014 2886.33,-180.015"/>
</g>
<!-- Node15 -->
<g id="node29" class="node"><title>Node15</title>
<a xlink:href="_read_xml_character_8cpp.html" target="_top" xlink:title="src/IO/ReadXmlCharacter.cpp">
<polygon fill="white" stroke="black" points="4245.5,-116.5 4245.5,-137.5 4400.5,-137.5 4400.5,-116.5 4245.5,-116.5"/>
<text text-anchor="middle" x="4323" y="-124.5" font-family="DejaVuSans" font-size="10.00">src/IO/ReadXmlCharacter.cpp</text>
</a>
</g>
<!-- Node2&#45;&gt;Node15 -->
<g id="edge28" class="edge"><title>Node2&#45;&gt;Node15</title>
<path fill="none" stroke="midnightblue" d="M2886.47,-183.321C3150.29,-177.787 3971.8,-159.262 4237,-138 4239.7,-137.783 4242.45,-137.543 4245.22,-137.283"/>
<polygon fill="midnightblue" stroke="midnightblue" points="2886.12,-179.827 2876.2,-183.536 2886.27,-186.826 2886.12,-179.827"/>
</g>
<!-- Node16 -->
<g id="node31" class="node"><title>Node16</title>
<a xlink:href="_read_xml_template_8cpp.html" target="_top" xlink:title="src/IO/ReadXmlTemplate.cpp">
<polygon fill="white" stroke="black" points="4418,-116.5 4418,-137.5 4570,-137.5 4570,-116.5 4418,-116.5"/>
<text text-anchor="middle" x="4494" y="-124.5" font-family="DejaVuSans" font-size="10.00">src/IO/ReadXmlTemplate.cpp</text>
</a>
</g>
<!-- Node2&#45;&gt;Node16 -->
<g id="edge30" class="edge"><title>Node2&#45;&gt;Node16</title>
<path fill="none" stroke="midnightblue" d="M2886.52,-183.67C3170.83,-178.916 4108.59,-161.778 4409,-138 4411.82,-137.777 4414.69,-137.526 4417.58,-137.254"/>
<polygon fill="midnightblue" stroke="midnightblue" points="2886.23,-180.174 2876.28,-183.84 2886.34,-187.173 2886.23,-180.174"/>
</g>
<!-- Node17 -->
<g id="node33" class="node"><title>Node17</title>
<a xlink:href="_settings_8cpp.html" target="_top" xlink:title="src/IO/Settings.cpp">
<polygon fill="white" stroke="black" points="4587.5,-116.5 4587.5,-137.5 4694.5,-137.5 4694.5,-116.5 4587.5,-116.5"/>
<text text-anchor="middle" x="4641" y="-124.5" font-family="DejaVuSans" font-size="10.00">src/IO/Settings.cpp</text>
</a>
</g>
<!-- Node2&#45;&gt;Node17 -->
<g id="edge32" class="edge"><title>Node2&#45;&gt;Node17</title>
<path fill="none" stroke="midnightblue" d="M2886.49,-184.449C3189.98,-182.169 4244.29,-171.932 4579,-138 4581.72,-137.724 4584.5,-137.398 4587.3,-137.032"/>
<polygon fill="midnightblue" stroke="midnightblue" points="2886.41,-180.95 2876.44,-184.524 2886.46,-187.95 2886.41,-180.95"/>
</g>
<!-- Node18 -->
<g id="node35" class="node"><title>Node18</title>
<a xlink:href="_write_xml_character_8cpp.html" target="_top" xlink:title="src/IO/WriteXmlCharacter.cpp">
<polygon fill="white" stroke="black" points="4711.5,-116.5 4711.5,-137.5 4866.5,-137.5 4866.5,-116.5 4711.5,-116.5"/>
<text text-anchor="middle" x="4789" y="-124.5" font-family="DejaVuSans" font-size="10.00">src/IO/WriteXmlCharacter.cpp</text>
</a>
</g>
<!-- Node2&#45;&gt;Node18 -->
<g id="edge34" class="edge"><title>Node2&#45;&gt;Node18</title>
<path fill="none" stroke="midnightblue" d="M2886.03,-184.091C3202.16,-180.412 4341.81,-165.496 4703,-138 4705.7,-137.794 4708.45,-137.563 4711.22,-137.311"/>
<polygon fill="midnightblue" stroke="midnightblue" points="2885.98,-180.591 2876.02,-184.206 2886.06,-187.59 2885.98,-180.591"/>
</g>
<!-- Node19 -->
<g id="node37" class="node"><title>Node19</title>
<a xlink:href="_message_box_8h.html" target="_top" xlink:title="src/Widgets/Dialogs/MessageBox.h">
<polygon fill="white" stroke="black" points="208,-116.5 208,-137.5 390,-137.5 390,-116.5 208,-116.5"/>
<text text-anchor="middle" x="299" y="-124.5" font-family="DejaVuSans" font-size="10.00">src/Widgets/Dialogs/MessageBox.h</text>
</a>
</g>
<!-- Node2&#45;&gt;Node19 -->
<g id="edge36" class="edge"><title>Node2&#45;&gt;Node19</title>
<path fill="none" stroke="midnightblue" d="M2721.76,-184.389C2354.91,-181.508 865.424,-168.149 399,-138 396.124,-137.814 393.204,-137.606 390.256,-137.381"/>
<polygon fill="midnightblue" stroke="midnightblue" points="2721.74,-187.888 2731.77,-184.467 2721.8,-180.889 2721.74,-187.888"/>
</g>
<!-- Node20 -->
<g id="node39" class="node"><title>Node20</title>
<a xlink:href="_main_window_8cpp.html" target="_top" xlink:title="src/MainWindow.cpp">
<polygon fill="white" stroke="black" points="740.5,-0.5 740.5,-21.5 851.5,-21.5 851.5,-0.5 740.5,-0.5"/>
<text text-anchor="middle" x="796" y="-8.5" font-family="DejaVuSans" font-size="10.00">src/MainWindow.cpp</text>
</a>
</g>
<!-- Node2&#45;&gt;Node20 -->
<g id="edge44" class="edge"><title>Node2&#45;&gt;Node20</title>
<path fill="none" stroke="midnightblue" d="M2721.6,-184.489C2350.57,-182.012 851.305,-170.033 815,-138 781.231,-108.205 788.924,-46.3577 793.672,-21.5914"/>
<polygon fill="midnightblue" stroke="midnightblue" points="2721.71,-187.99 2731.73,-184.556 2721.75,-180.99 2721.71,-187.99"/>
</g>
<!-- Node21 -->
<g id="node41" class="node"><title>Node21</title>
<a xlink:href="_chara_trait_8cpp.html" target="_top" xlink:title="src/Widgets/CharaTrait.cpp">
<polygon fill="white" stroke="black" points="108.5,-58.5 108.5,-79.5 251.5,-79.5 251.5,-58.5 108.5,-58.5"/>
<text text-anchor="middle" x="180" y="-66.5" font-family="DejaVuSans" font-size="10.00">src/Widgets/CharaTrait.cpp</text>
</a>
</g>
<!-- Node2&#45;&gt;Node21 -->
<g id="edge56" class="edge"><title>Node2&#45;&gt;Node21</title>
<path fill="none" stroke="midnightblue" d="M2721.6,-184.179C2281.23,-179.714 224.523,-157.811 199,-138 181.235,-124.21 179.093,-95.4274 179.362,-79.7461"/>
<polygon fill="midnightblue" stroke="midnightblue" points="2721.66,-187.68 2731.7,-184.282 2721.73,-180.681 2721.66,-187.68"/>
</g>
<!-- Node23 -->
<g id="node46" class="node"><title>Node23</title>
<a xlink:href="_string_bool_parser_8cpp.html" target="_top" xlink:title="src/Parser/StringBoolParser.cpp">
<polygon fill="white" stroke="black" points="408,-116.5 408,-137.5 574,-137.5 574,-116.5 408,-116.5"/>
<text text-anchor="middle" x="491" y="-124.5" font-family="DejaVuSans" font-size="10.00">src/Parser/StringBoolParser.cpp</text>
</a>
</g>
<!-- Node2&#45;&gt;Node23 -->
<g id="edge46" class="edge"><title>Node2&#45;&gt;Node23</title>
<path fill="none" stroke="midnightblue" d="M2721.81,-184.339C2372.69,-181.366 1011,-168.043 583,-138 580.112,-137.797 577.175,-137.569 574.21,-137.319"/>
<polygon fill="midnightblue" stroke="midnightblue" points="2721.81,-187.839 2731.84,-184.424 2721.87,-180.84 2721.81,-187.839"/>
</g>
<!-- Node24 -->
<g id="node48" class="node"><title>Node24</title>
<a xlink:href="_storage_template_8cpp.html" target="_top" xlink:title="src/Storage/StorageTemplate.cpp">
<polygon fill="white" stroke="black" points="591.5,-116.5 591.5,-137.5 768.5,-137.5 768.5,-116.5 591.5,-116.5"/>
<text text-anchor="middle" x="680" y="-124.5" font-family="DejaVuSans" font-size="10.00">src/Storage/StorageTemplate.cpp</text>
</a>
</g>
<!-- Node2&#45;&gt;Node24 -->
<g id="edge48" class="edge"><title>Node2&#45;&gt;Node24</title>
<path fill="none" stroke="midnightblue" d="M2721.45,-184.01C2391.76,-179.913 1168.7,-163.301 782,-138 777.646,-137.715 773.19,-137.384 768.694,-137.018"/>
<polygon fill="midnightblue" stroke="midnightblue" points="2721.83,-187.515 2731.87,-184.139 2721.91,-180.515 2721.83,-187.515"/>
</g>
<!-- Node25 -->
<g id="node50" class="node"><title>Node25</title>
<a xlink:href="_advantages_widget_8cpp.html" target="_top" xlink:title="src/Widgets/AdvantagesWidget.cpp">
<polygon fill="white" stroke="black" points="4842,-58.5 4842,-79.5 5026,-79.5 5026,-58.5 4842,-58.5"/>
<text text-anchor="middle" x="4934" y="-66.5" font-family="DejaVuSans" font-size="10.00">src/Widgets/AdvantagesWidget.cpp</text>
</a>
</g>
<!-- Node2&#45;&gt;Node25 -->
<g id="edge50" class="edge"><title>Node2&#45;&gt;Node25</title>
<path fill="none" stroke="midnightblue" d="M2886.31,-184.046C3265.7,-179.537 4829.33,-159.669 4875,-138 4901.06,-125.636 4920.01,-95.6893 4928.7,-79.616"/>
<polygon fill="midnightblue" stroke="midnightblue" points="2886.19,-180.547 2876.23,-184.166 2886.27,-187.547 2886.19,-180.547"/>
</g>
<!-- Node2&#45;&gt;Node26 -->
<g id="edge52" class="edge"><title>Node2&#45;&gt;Node26</title>
<path fill="none" stroke="midnightblue" d="M2886.26,-184.147C3223.86,-180.496 4504.23,-165.116 4908,-138 4912.36,-137.707 4916.82,-137.364 4921.32,-136.983"/>
<polygon fill="midnightblue" stroke="midnightblue" points="2886.03,-180.65 2876.07,-184.257 2886.11,-187.649 2886.03,-180.65"/>
</g>
<!-- Node27 -->
<g id="node54" class="node"><title>Node27</title>
<a xlink:href="_chara_species_8cpp.html" target="_top" xlink:title="src/Widgets/CharaSpecies.cpp">
<polygon fill="white" stroke="black" points="823.5,-116.5 823.5,-137.5 984.5,-137.5 984.5,-116.5 823.5,-116.5"/>
<text text-anchor="middle" x="904" y="-124.5" font-family="DejaVuSans" font-size="10.00">src/Widgets/CharaSpecies.cpp</text>
</a>
</g>
<!-- Node2&#45;&gt;Node27 -->
<g id="edge54" class="edge"><title>Node2&#45;&gt;Node27</title>
<path fill="none" stroke="midnightblue" d="M2721.46,-183.924C2414.08,-179.749 1335.88,-163.578 993,-138 990.361,-137.803 987.679,-137.584 984.973,-137.346"/>
<polygon fill="midnightblue" stroke="midnightblue" points="2721.59,-187.425 2731.63,-184.061 2721.68,-180.426 2721.59,-187.425"/>
</g>
<!-- Node28 -->
<g id="node57" class="node"><title>Node28</title>
<a xlink:href="_check_trait_8cpp.html" target="_top" xlink:title="src/Widgets/CheckTrait.cpp">
<polygon fill="white" stroke="black" points="1001.5,-116.5 1001.5,-137.5 1144.5,-137.5 1144.5,-116.5 1001.5,-116.5"/>
<text text-anchor="middle" x="1073" y="-124.5" font-family="DejaVuSans" font-size="10.00">src/Widgets/CheckTrait.cpp</text>
</a>
</g>
<!-- Node2&#45;&gt;Node28 -->
<g id="edge58" class="edge"><title>Node2&#45;&gt;Node28</title>
<path fill="none" stroke="midnightblue" d="M2721.53,-183.835C2432,-179.558 1462.78,-163.631 1153,-138 1150.35,-137.78 1147.64,-137.533 1144.92,-137.262"/>
<polygon fill="midnightblue" stroke="midnightblue" points="2721.49,-187.334 2731.54,-183.982 2721.59,-180.335 2721.49,-187.334"/>
</g>
<!-- Node29 -->
<g id="node59" class="node"><title>Node29</title>
<a xlink:href="_name_dialog_8cpp.html" target="_top" xlink:title="src/Widgets/Dialogs/NameDialog.cpp">
<polygon fill="white" stroke="black" points="1162,-116.5 1162,-137.5 1354,-137.5 1354,-116.5 1162,-116.5"/>
<text text-anchor="middle" x="1258" y="-124.5" font-family="DejaVuSans" font-size="10.00">src/Widgets/Dialogs/NameDialog.cpp</text>
</a>
</g>
<!-- Node2&#45;&gt;Node29 -->
<g id="edge60" class="edge"><title>Node2&#45;&gt;Node29</title>
<path fill="none" stroke="midnightblue" d="M2721.75,-184.382C2501.35,-182.28 1879.22,-173.413 1363,-138 1360.07,-137.799 1357.1,-137.581 1354.11,-137.347"/>
<polygon fill="midnightblue" stroke="midnightblue" points="2721.9,-187.884 2731.94,-184.477 2721.97,-180.884 2721.9,-187.884"/>
</g>
<!-- Node30 -->
<g id="node61" class="node"><title>Node30</title>
<a xlink:href="_select_merits_dialog_8cpp.html" target="_top" xlink:title="src/Widgets/Dialogs/SelectMeritsDialog.cpp">
<polygon fill="white" stroke="black" points="1372,-116.5 1372,-137.5 1594,-137.5 1594,-116.5 1372,-116.5"/>
<text text-anchor="middle" x="1483" y="-124.5" font-family="DejaVuSans" font-size="10.00">src/Widgets/Dialogs/SelectMeritsDialog.cpp</text>
</a>
</g>
<!-- Node2&#45;&gt;Node30 -->
<g id="edge62" class="edge"><title>Node2&#45;&gt;Node30</title>
<path fill="none" stroke="midnightblue" d="M2721.7,-183.262C2527.04,-178.829 2023.12,-165.457 1603,-138 1600.08,-137.809 1597.12,-137.606 1594.13,-137.393"/>
<polygon fill="midnightblue" stroke="midnightblue" points="2721.77,-186.765 2731.84,-183.492 2721.93,-179.767 2721.77,-186.765"/>
</g>
<!-- Node31 -->
<g id="node63" class="node"><title>Node31</title>
<a xlink:href="_settings_dialog_8cpp.html" target="_top" xlink:title="src/Widgets/Dialogs/SettingsDialog.cpp">
<polygon fill="white" stroke="black" points="1611.5,-116.5 1611.5,-137.5 1814.5,-137.5 1814.5,-116.5 1611.5,-116.5"/>
<text text-anchor="middle" x="1713" y="-124.5" font-family="DejaVuSans" font-size="10.00">src/Widgets/Dialogs/SettingsDialog.cpp</text>
</a>
</g>
<!-- Node2&#45;&gt;Node31 -->
<g id="edge64" class="edge"><title>Node2&#45;&gt;Node31</title>
<path fill="none" stroke="midnightblue" d="M2721.88,-182.503C2553.26,-177.06 2155.86,-162.6 1823,-138 1820.22,-137.795 1817.41,-137.578 1814.57,-137.351"/>
<polygon fill="midnightblue" stroke="midnightblue" points="2721.82,-186.003 2731.92,-182.826 2722.04,-179.007 2721.82,-186.003"/>
</g>
<!-- Node32 -->
<g id="node65" class="node"><title>Node32</title>
<a xlink:href="_flaw_widget_8cpp.html" target="_top" xlink:title="src/Widgets/FlawWidget.cpp">
<polygon fill="white" stroke="black" points="1831.5,-116.5 1831.5,-137.5 1978.5,-137.5 1978.5,-116.5 1831.5,-116.5"/>
<text text-anchor="middle" x="1905" y="-124.5" font-family="DejaVuSans" font-size="10.00">src/Widgets/FlawWidget.cpp</text>
</a>
</g>
<!-- Node2&#45;&gt;Node32 -->
<g id="edge66" class="edge"><title>Node2&#45;&gt;Node32</title>
<path fill="none" stroke="midnightblue" d="M2721.4,-182.321C2573.75,-177.072 2254.94,-163.641 1987,-138 1984.28,-137.74 1981.52,-137.458 1978.73,-137.159"/>
<polygon fill="midnightblue" stroke="midnightblue" points="2721.61,-185.831 2731.73,-182.685 2721.86,-178.835 2721.61,-185.831"/>
</g>
<!-- Node33 -->
<g id="node67" class="node"><title>Node33</title>
<a xlink:href="_info_widget_8cpp.html" target="_top" xlink:title="src/Widgets/InfoWidget.cpp">
<polygon fill="white" stroke="black" points="1996,-116.5 1996,-137.5 2140,-137.5 2140,-116.5 1996,-116.5"/>
<text text-anchor="middle" x="2068" y="-124.5" font-family="DejaVuSans" font-size="10.00">src/Widgets/InfoWidget.cpp</text>
</a>
</g>
<!-- Node2&#45;&gt;Node33 -->
<g id="edge68" class="edge"><title>Node2&#45;&gt;Node33</title>
<path fill="none" stroke="midnightblue" d="M2721.46,-180.759C2597.12,-173.989 2354.43,-159.298 2149,-138 2146.18,-137.707 2143.3,-137.393 2140.4,-137.063"/>
<polygon fill="midnightblue" stroke="midnightblue" points="2721.49,-184.265 2731.66,-181.311 2721.87,-177.275 2721.49,-184.265"/>
</g>
<!-- Node34 -->
<g id="node69" class="node"><title>Node34</title>
<a xlink:href="_merit_widget_8cpp.html" target="_top" xlink:title="src/Widgets/MeritWidget.cpp">
<polygon fill="white" stroke="black" points="2157.5,-116.5 2157.5,-137.5 2308.5,-137.5 2308.5,-116.5 2157.5,-116.5"/>
<text text-anchor="middle" x="2233" y="-124.5" font-family="DejaVuSans" font-size="10.00">src/Widgets/MeritWidget.cpp</text>
</a>
</g>
<!-- Node2&#45;&gt;Node34 -->
<g id="edge70" class="edge"><title>Node2&#45;&gt;Node34</title>
<path fill="none" stroke="midnightblue" d="M2721.7,-177.917C2624.79,-169.378 2459.04,-154.149 2317,-138 2314.22,-137.684 2311.4,-137.355 2308.54,-137.016"/>
<polygon fill="midnightblue" stroke="midnightblue" points="2721.45,-181.409 2731.72,-178.798 2722.07,-174.436 2721.45,-181.409"/>
</g>
<!-- Node35 -->
<g id="node71" class="node"><title>Node35</title>
<a xlink:href="_power_widget_8cpp.html" target="_top" xlink:title="src/Widgets/PowerWidget.cpp">
<polygon fill="white" stroke="black" points="2325.5,-116.5 2325.5,-137.5 2480.5,-137.5 2480.5,-116.5 2325.5,-116.5"/>
<text text-anchor="middle" x="2403" y="-124.5" font-family="DejaVuSans" font-size="10.00">src/Widgets/PowerWidget.cpp</text>
</a>
</g>
<!-- Node2&#45;&gt;Node35 -->
<g id="edge72" class="edge"><title>Node2&#45;&gt;Node35</title>
<path fill="none" stroke="midnightblue" d="M2721.87,-173.12C2649.58,-162.665 2545.32,-147.585 2475.93,-137.548"/>
<polygon fill="midnightblue" stroke="midnightblue" points="2721.45,-176.596 2731.85,-174.564 2722.45,-169.668 2721.45,-176.596"/>
</g>
<!-- Node36 -->
<g id="node73" class="node"><title>Node36</title>
<a xlink:href="_skill_widget_8cpp.html" target="_top" xlink:title="src/Widgets/SkillWidget.cpp">
<polygon fill="white" stroke="black" points="2498,-116.5 2498,-137.5 2644,-137.5 2644,-116.5 2498,-116.5"/>
<text text-anchor="middle" x="2571" y="-124.5" font-family="DejaVuSans" font-size="10.00">src/Widgets/SkillWidget.cpp</text>
</a>
</g>
<!-- Node2&#45;&gt;Node36 -->
<g id="edge74" class="edge"><title>Node2&#45;&gt;Node36</title>
<path fill="none" stroke="midnightblue" d="M2752.08,-172.077C2710.29,-161.672 2652.27,-147.231 2613.27,-137.523"/>
<polygon fill="midnightblue" stroke="midnightblue" points="2751.26,-175.477 2761.81,-174.497 2752.95,-168.685 2751.26,-175.477"/>
</g>
<!-- Node19&#45;&gt;Node20 -->
<g id="edge38" class="edge"><title>Node19&#45;&gt;Node20</title>
<path fill="none" stroke="midnightblue" d="M354.248,-114.105C453.376,-90.9685 659.59,-42.838 750.862,-21.5352"/>
<polygon fill="midnightblue" stroke="midnightblue" points="353.366,-110.717 344.423,-116.398 354.957,-117.534 353.366,-110.717"/>
</g>
<!-- Node19&#45;&gt;Node21 -->
<g id="edge40" class="edge"><title>Node19&#45;&gt;Node21</title>
<path fill="none" stroke="midnightblue" d="M268.366,-112.069C247.526,-101.912 220.451,-88.7157 201.792,-79.6212"/>
<polygon fill="midnightblue" stroke="midnightblue" points="266.927,-115.262 277.45,-116.497 269.994,-108.969 266.927,-115.262"/>
</g>
<!-- Node22 -->
<g id="node43" class="node"><title>Node22</title>
<a xlink:href="_message_box_8cpp.html" target="_top" xlink:title="src/Widgets/Dialogs/MessageBox.cpp">
<polygon fill="white" stroke="black" points="269,-58.5 269,-79.5 463,-79.5 463,-58.5 269,-58.5"/>
<text text-anchor="middle" x="366" y="-66.5" font-family="DejaVuSans" font-size="10.00">src/Widgets/Dialogs/MessageBox.cpp</text>
</a>
</g>
<!-- Node19&#45;&gt;Node22 -->
<g id="edge42" class="edge"><title>Node19&#45;&gt;Node22</title>
<path fill="none" stroke="midnightblue" d="M318.995,-109.691C330.306,-99.8996 344.083,-87.973 353.789,-79.5707"/>
<polygon fill="midnightblue" stroke="midnightblue" points="316.559,-107.171 311.289,-116.362 321.14,-112.463 316.559,-107.171"/>
</g>
<!-- Node37&#45;&gt;Node3 -->
<g id="edge78" class="edge"><title>Node37&#45;&gt;Node3</title>
<path fill="none" stroke="midnightblue" d="M5185,-164.191C5185,-155.168 5185,-144.994 5185,-137.571"/>
<polygon fill="midnightblue" stroke="midnightblue" points="5181.5,-164.362 5185,-174.362 5188.5,-164.362 5181.5,-164.362"/>
</g>
<!-- Node37&#45;&gt;Node26 -->
<g id="edge96" class="edge"><title>Node37&#45;&gt;Node26</title>
<path fill="none" stroke="midnightblue" d="M5143.07,-171.413C5111.13,-161.065 5067.8,-147.026 5038.48,-137.523"/>
<polygon fill="midnightblue" stroke="midnightblue" points="5141.99,-174.744 5152.58,-174.497 5144.15,-168.085 5141.99,-174.744"/>
</g>
<!-- Node37&#45;&gt;Node38 -->
<g id="edge80" class="edge"><title>Node37&#45;&gt;Node38</title>
<path fill="none" stroke="midnightblue" d="M5257.52,-172.843C5320.49,-162.288 5410.63,-147.177 5469.97,-137.231"/>
<polygon fill="midnightblue" stroke="midnightblue" points="5256.94,-169.391 5247.66,-174.497 5258.1,-176.295 5256.94,-169.391"/>
</g>
<!-- Node41 -->
<g id="node86" class="node"><title>Node41</title>
<a xlink:href="_advantages_widget_8h.html" target="_top" xlink:title="src/Widgets/AdvantagesWidget.h">
<polygon fill="white" stroke="black" points="5279.5,-116.5 5279.5,-137.5 5452.5,-137.5 5452.5,-116.5 5279.5,-116.5"/>
<text text-anchor="middle" x="5366" y="-124.5" font-family="DejaVuSans" font-size="10.00">src/Widgets/AdvantagesWidget.h</text>
</a>
</g>
<!-- Node37&#45;&gt;Node41 -->
<g id="edge90" class="edge"><title>Node37&#45;&gt;Node41</title>
<path fill="none" stroke="midnightblue" d="M5227.4,-171.413C5259.69,-161.065 5303.51,-147.026 5333.16,-137.523"/>
<polygon fill="midnightblue" stroke="midnightblue" points="5226.23,-168.112 5217.78,-174.497 5228.37,-174.778 5226.23,-168.112"/>
</g>
<!-- Node38&#45;&gt;Node12 -->
<g id="edge82" class="edge"><title>Node38&#45;&gt;Node12</title>
<path fill="none" stroke="midnightblue" d="M5459.87,-115.831C5370.42,-102.04 5278.67,-88.1777 5218.14,-79.0723"/>
<polygon fill="midnightblue" stroke="midnightblue" points="5459.5,-119.316 5469.92,-117.382 5460.57,-112.398 5459.5,-119.316"/>
</g>
<!-- Node39 -->
<g id="node81" class="node"><title>Node39</title>
<a xlink:href="_main_window_8h.html" target="_top" xlink:title="src/MainWindow.h">
<polygon fill="white" stroke="black" points="5316,-58.5 5316,-79.5 5416,-79.5 5416,-58.5 5316,-58.5"/>
<text text-anchor="middle" x="5366" y="-66.5" font-family="DejaVuSans" font-size="10.00">src/MainWindow.h</text>
</a>
</g>
<!-- Node38&#45;&gt;Node39 -->
<g id="edge84" class="edge"><title>Node38&#45;&gt;Node39</title>
<path fill="none" stroke="midnightblue" d="M5491.58,-113.144C5462.22,-102.823 5422.74,-88.9439 5395.94,-79.5231"/>
<polygon fill="midnightblue" stroke="midnightblue" points="5490.52,-116.482 5501.12,-116.497 5492.85,-109.878 5490.52,-116.482"/>
</g>
<!-- Node39&#45;&gt;Node20 -->
<g id="edge88" class="edge"><title>Node39&#45;&gt;Node20</title>
<path fill="none" stroke="midnightblue" d="M5305.68,-63.3228C5281.27,-61.2618 5252.82,-59.157 5227,-58 4317,-17.2143 1298.91,-11.6675 851.608,-11.0652"/>
<polygon fill="midnightblue" stroke="midnightblue" points="5305.6,-66.8295 5315.87,-64.2005 5306.2,-59.8553 5305.6,-66.8295"/>
</g>
<!-- Node40 -->
<g id="node83" class="node"><title>Node40</title>
<a xlink:href="main_8cpp.html" target="_top" xlink:title="src/main.cpp">
<polygon fill="white" stroke="black" points="5327,-0.5 5327,-21.5 5405,-21.5 5405,-0.5 5327,-0.5"/>
<text text-anchor="middle" x="5366" y="-8.5" font-family="DejaVuSans" font-size="10.00">src/main.cpp</text>
</a>
</g>
<!-- Node39&#45;&gt;Node40 -->
<g id="edge86" class="edge"><title>Node39&#45;&gt;Node40</title>
<path fill="none" stroke="midnightblue" d="M5366,-48.1906C5366,-39.1684 5366,-28.9941 5366,-21.5707"/>
<polygon fill="midnightblue" stroke="midnightblue" points="5362.5,-48.3619 5366,-58.3619 5369.5,-48.3619 5362.5,-48.3619"/>
</g>
<!-- Node41&#45;&gt;Node25 -->
<g id="edge94" class="edge"><title>Node41&#45;&gt;Node25</title>
<path fill="none" stroke="midnightblue" d="M5277.49,-115.116C5199.55,-104.652 5087.12,-89.5583 5012.38,-79.5231"/>
<polygon fill="midnightblue" stroke="midnightblue" points="5277.39,-118.635 5287.77,-116.497 5278.32,-111.697 5277.39,-118.635"/>
</g>
<!-- Node41&#45;&gt;Node39 -->
<g id="edge92" class="edge"><title>Node41&#45;&gt;Node39</title>
<path fill="none" stroke="midnightblue" d="M5366,-106.191C5366,-97.1684 5366,-86.9941 5366,-79.5707"/>
<polygon fill="midnightblue" stroke="midnightblue" points="5362.5,-106.362 5366,-116.362 5369.5,-106.362 5362.5,-106.362"/>
</g>
</g>
</svg>
