<?xml version="1.0" encoding="UTF-8" standalone="no"?>
<!DOCTYPE svg PUBLIC "-//W3C//DTD SVG 1.1//EN"
 "http://www.w3.org/Graphics/SVG/1.1/DTD/svg11.dtd">
<!-- Generated by graphviz version 2.26.3 (20100126.1600)
 -->
<!-- Title: G Pages: 1 -->
<svg width="416pt" height="204pt"
 viewBox="0.00 0.00 416.00 204.00" xmlns="http://www.w3.org/2000/svg" xmlns:xlink="http://www.w3.org/1999/xlink">
<g id="graph1" class="graph" transform="scale(1 1) rotate(0) translate(4 200)">
<title>G</title>
<polygon fill="white" stroke="white" points="-4,5 -4,-200 413,-200 413,5 -4,5"/>
<!-- Node1 -->
<g id="node1" class="node"><title>Node1</title>
<polygon fill="#bfbfbf" stroke="black" points="179,-174.5 179,-195.5 319,-195.5 319,-174.5 179,-174.5"/>
<text text-anchor="middle" x="249" y="-182.5" font-family="DejaVuSans" font-size="10.00">src/Datatypes/cv_Name.h</text>
</g>
<!-- Node2 -->
<g id="node3" class="node"><title>Node2</title>
<a xlink:href="cv___identity_8h.html" target="_top" xlink:title="src/Datatypes/cv_Identity.h">
<polygon fill="white" stroke="black" points="93.5,-116.5 93.5,-137.5 238.5,-137.5 238.5,-116.5 93.5,-116.5"/>
<text text-anchor="middle" x="166" y="-124.5" font-family="DejaVuSans" font-size="10.00">src/Datatypes/cv_Identity.h</text>
</a>
</g>
<!-- Node1&#45;&gt;Node2 -->
<g id="edge2" class="edge"><title>Node1&#45;&gt;Node2</title>
<path fill="none" stroke="midnightblue" d="M225.446,-168.541C211.217,-158.597 193.501,-146.218 181.127,-137.571"/>
<polygon fill="midnightblue" stroke="midnightblue" points="223.575,-171.503 233.777,-174.362 227.584,-165.765 223.575,-171.503"/>
</g>
<!-- Node6 -->
<g id="node11" class="node"><title>Node6</title>
<a xlink:href="cv___name_8cpp.html" target="_top" xlink:title="src/Datatypes/cv_Name.cpp">
<polygon fill="white" stroke="black" points="256,-116.5 256,-137.5 408,-137.5 408,-116.5 256,-116.5"/>
<text text-anchor="middle" x="332" y="-124.5" font-family="DejaVuSans" font-size="10.00">src/Datatypes/cv_Name.cpp</text>
</a>
</g>
<!-- Node1&#45;&gt;Node6 -->
<g id="edge10" class="edge"><title>Node1&#45;&gt;Node6</title>
<path fill="none" stroke="midnightblue" d="M272.554,-168.541C286.783,-158.597 304.499,-146.218 316.873,-137.571"/>
<polygon fill="midnightblue" stroke="midnightblue" points="270.416,-165.765 264.223,-174.362 274.425,-171.503 270.416,-165.765"/>
</g>
<!-- Node3 -->
<g id="node5" class="node"><title>Node3</title>
<a xlink:href="cv___identity_8cpp.html" target="_top" xlink:title="src/Datatypes/cv_Identity.cpp">
<polygon fill="white" stroke="black" points="0,-58.5 0,-79.5 156,-79.5 156,-58.5 0,-58.5"/>
<text text-anchor="middle" x="78" y="-66.5" font-family="DejaVuSans" font-size="10.00">src/Datatypes/cv_Identity.cpp</text>
</a>
</g>
<!-- Node2&#45;&gt;Node3 -->
<g id="edge4" class="edge"><title>Node2&#45;&gt;Node3</title>
<path fill="none" stroke="midnightblue" d="M141.453,-110.821C126.296,-100.831 107.282,-88.2993 94.0382,-79.5707"/>
<polygon fill="midnightblue" stroke="midnightblue" points="139.584,-113.781 149.859,-116.362 143.436,-107.936 139.584,-113.781"/>
</g>
<!-- Node4 -->
<g id="node7" class="node"><title>Node4</title>
<a xlink:href="cv___identity_list_8h.html" target="_top" xlink:title="src/Datatypes/cv_IdentityList.h">
<polygon fill="white" stroke="black" points="173.5,-58.5 173.5,-79.5 336.5,-79.5 336.5,-58.5 173.5,-58.5"/>
<text text-anchor="middle" x="255" y="-66.5" font-family="DejaVuSans" font-size="10.00">src/Datatypes/cv_IdentityList.h</text>
</a>
</g>
<!-- Node2&#45;&gt;Node4 -->
<g id="edge6" class="edge"><title>Node2&#45;&gt;Node4</title>
<path fill="none" stroke="midnightblue" d="M190.826,-110.821C206.156,-100.831 225.386,-88.2993 238.78,-79.5707"/>
<polygon fill="midnightblue" stroke="midnightblue" points="188.791,-107.97 182.324,-116.362 192.613,-113.834 188.791,-107.97"/>
</g>
<!-- Node5 -->
<g id="node9" class="node"><title>Node5</title>
<a xlink:href="cv___identity_list_8cpp.html" target="_top" xlink:title="src/Datatypes/cv_IdentityList.cpp">
<polygon fill="white" stroke="black" points="168,-0.5 168,-21.5 342,-21.5 342,-0.5 168,-0.5"/>
<text text-anchor="middle" x="255" y="-8.5" font-family="DejaVuSans" font-size="10.00">src/Datatypes/cv_IdentityList.cpp</text>
</a>
</g>
<!-- Node4&#45;&gt;Node5 -->
<g id="edge8" class="edge"><title>Node4&#45;&gt;Node5</title>
<path fill="none" stroke="midnightblue" d="M255,-48.1906C255,-39.1684 255,-28.9941 255,-21.5707"/>
<polygon fill="midnightblue" stroke="midnightblue" points="251.5,-48.3619 255,-58.3619 258.5,-48.3619 251.5,-48.3619"/>
</g>
</g>
</svg>
