<?xml version="1.0" encoding="UTF-8" standalone="no"?>
<!DOCTYPE svg PUBLIC "-//W3C//DTD SVG 1.1//EN"
 "http://www.w3.org/Graphics/SVG/1.1/DTD/svg11.dtd">
<!-- Generated by graphviz version 2.26.3 (20100126.1600)
 -->
<!-- Title: G Pages: 1 -->
<svg width="683pt" height="204pt"
 viewBox="0.00 0.00 683.00 204.00" xmlns="http://www.w3.org/2000/svg" xmlns:xlink="http://www.w3.org/1999/xlink">
<g id="graph1" class="graph" transform="scale(1 1) rotate(0) translate(4 200)">
<title>G</title>
<polygon fill="white" stroke="white" points="-4,5 -4,-200 680,-200 680,5 -4,5"/>
<!-- Node1 -->
<g id="node1" class="node"><title>Node1</title>
<polygon fill="#bfbfbf" stroke="black" points="203.5,-174.5 203.5,-195.5 374.5,-195.5 374.5,-174.5 203.5,-174.5"/>
<text text-anchor="middle" x="289" y="-182.5" font-family="DejaVuSans" font-size="10.00">src/Datatypes/cv_AbstractTrait.h</text>
</g>
<!-- Node2 -->
<g id="node3" class="node"><title>Node2</title>
<a xlink:href="cv___abstract_trait_8cpp.html" target="_top" xlink:title="src/Datatypes/cv_AbstractTrait.cpp">
<polygon fill="white" stroke="black" points="0,-116.5 0,-137.5 182,-137.5 182,-116.5 0,-116.5"/>
<text text-anchor="middle" x="91" y="-124.5" font-family="DejaVuSans" font-size="10.00">src/Datatypes/cv_AbstractTrait.cpp</text>
</a>
</g>
<!-- Node1&#45;&gt;Node2 -->
<g id="edge2" class="edge"><title>Node1&#45;&gt;Node2</title>
<path fill="none" stroke="midnightblue" d="M243.527,-171.68C208.117,-161.307 159.644,-147.108 126.924,-137.523"/>
<polygon fill="midnightblue" stroke="midnightblue" points="242.563,-175.044 253.144,-174.497 244.531,-168.327 242.563,-175.044"/>
</g>
<!-- Node3 -->
<g id="node5" class="node"><title>Node3</title>
<a xlink:href="cv___derangement_8h.html" target="_top" xlink:title="src/Datatypes/cv_Derangement.h">
<polygon fill="white" stroke="black" points="200,-116.5 200,-137.5 378,-137.5 378,-116.5 200,-116.5"/>
<text text-anchor="middle" x="289" y="-124.5" font-family="DejaVuSans" font-size="10.00">src/Datatypes/cv_Derangement.h</text>
</a>
</g>
<!-- Node1&#45;&gt;Node3 -->
<g id="edge4" class="edge"><title>Node1&#45;&gt;Node3</title>
<path fill="none" stroke="midnightblue" d="M289,-164.191C289,-155.168 289,-144.994 289,-137.571"/>
<polygon fill="midnightblue" stroke="midnightblue" points="285.5,-164.362 289,-174.362 292.5,-164.362 285.5,-164.362"/>
</g>
<!-- Node5 -->
<g id="node9" class="node"><title>Node5</title>
<a xlink:href="cv___trait_8h.html" target="_top" xlink:title="src/Datatypes/cv_Trait.h">
<polygon fill="white" stroke="black" points="400.5,-116.5 400.5,-137.5 531.5,-137.5 531.5,-116.5 400.5,-116.5"/>
<text text-anchor="middle" x="466" y="-124.5" font-family="DejaVuSans" font-size="10.00">src/Datatypes/cv_Trait.h</text>
</a>
</g>
<!-- Node1&#45;&gt;Node5 -->
<g id="edge8" class="edge"><title>Node1&#45;&gt;Node5</title>
<path fill="none" stroke="midnightblue" d="M330.874,-171.279C362.413,-160.944 405.012,-146.985 433.887,-137.523"/>
<polygon fill="midnightblue" stroke="midnightblue" points="329.466,-168.057 321.053,-174.497 331.646,-174.709 329.466,-168.057"/>
</g>
<!-- Node4 -->
<g id="node7" class="node"><title>Node4</title>
<a xlink:href="cv___derangement_8cpp.html" target="_top" xlink:title="src/Datatypes/cv_Derangement.cpp">
<polygon fill="white" stroke="black" points="188.5,-58.5 188.5,-79.5 377.5,-79.5 377.5,-58.5 188.5,-58.5"/>
<text text-anchor="middle" x="283" y="-66.5" font-family="DejaVuSans" font-size="10.00">src/Datatypes/cv_Derangement.cpp</text>
</a>
</g>
<!-- Node3&#45;&gt;Node4 -->
<g id="edge6" class="edge"><title>Node3&#45;&gt;Node4</title>
<path fill="none" stroke="midnightblue" d="M286.847,-106.191C285.914,-97.1684 284.861,-86.9941 284.094,-79.5707"/>
<polygon fill="midnightblue" stroke="midnightblue" points="283.389,-106.775 287.9,-116.362 290.352,-106.055 283.389,-106.775"/>
</g>
<!-- Node6 -->
<g id="node11" class="node"><title>Node6</title>
<a xlink:href="cv___trait_8cpp.html" target="_top" xlink:title="src/Datatypes/cv_Trait.cpp">
<polygon fill="white" stroke="black" points="395,-58.5 395,-79.5 537,-79.5 537,-58.5 395,-58.5"/>
<text text-anchor="middle" x="466" y="-66.5" font-family="DejaVuSans" font-size="10.00">src/Datatypes/cv_Trait.cpp</text>
</a>
</g>
<!-- Node5&#45;&gt;Node6 -->
<g id="edge10" class="edge"><title>Node5&#45;&gt;Node6</title>
<path fill="none" stroke="midnightblue" d="M466,-106.191C466,-97.1684 466,-86.9941 466,-79.5707"/>
<polygon fill="midnightblue" stroke="midnightblue" points="462.5,-106.362 466,-116.362 469.5,-106.362 462.5,-106.362"/>
</g>
<!-- Node7 -->
<g id="node13" class="node"><title>Node7</title>
<a xlink:href="_trait_8h.html" target="_top" xlink:title="src/Datatypes/Trait.h">
<polygon fill="white" stroke="black" points="554.5,-58.5 554.5,-79.5 669.5,-79.5 669.5,-58.5 554.5,-58.5"/>
<text text-anchor="middle" x="612" y="-66.5" font-family="DejaVuSans" font-size="10.00">src/Datatypes/Trait.h</text>
</a>
</g>
<!-- Node5&#45;&gt;Node7 -->
<g id="edge12" class="edge"><title>Node5&#45;&gt;Node7</title>
<path fill="none" stroke="midnightblue" d="M501.868,-112.751C527.651,-102.509 561.855,-88.9206 585.264,-79.6212"/>
<polygon fill="midnightblue" stroke="midnightblue" points="500.441,-109.552 492.439,-116.497 503.025,-116.057 500.441,-109.552"/>
</g>
<!-- Node8 -->
<g id="node15" class="node"><title>Node8</title>
<a xlink:href="_trait_8cpp.html" target="_top" xlink:title="src/Datatypes/Trait.cpp">
<polygon fill="white" stroke="black" points="549,-0.5 549,-21.5 675,-21.5 675,-0.5 549,-0.5"/>
<text text-anchor="middle" x="612" y="-8.5" font-family="DejaVuSans" font-size="10.00">src/Datatypes/Trait.cpp</text>
</a>
</g>
<!-- Node7&#45;&gt;Node8 -->
<g id="edge14" class="edge"><title>Node7&#45;&gt;Node8</title>
<path fill="none" stroke="midnightblue" d="M612,-48.1906C612,-39.1684 612,-28.9941 612,-21.5707"/>
<polygon fill="midnightblue" stroke="midnightblue" points="608.5,-48.3619 612,-58.3619 615.5,-48.3619 608.5,-48.3619"/>
</g>
</g>
</svg>
