<?xml version="1.0" encoding="UTF-8" standalone="no"?>
<!DOCTYPE svg PUBLIC "-//W3C//DTD SVG 1.1//EN"
 "http://www.w3.org/Graphics/SVG/1.1/DTD/svg11.dtd">
<!-- Generated by graphviz version 2.26.3 (20100126.1600)
 -->
<!-- Title: G Pages: 1 -->
<svg width="259pt" height="204pt"
 viewBox="0.00 0.00 259.00 204.00" xmlns="http://www.w3.org/2000/svg" xmlns:xlink="http://www.w3.org/1999/xlink">
<g id="graph1" class="graph" transform="scale(1 1) rotate(0) translate(4 200)">
<title>G</title>
<polygon fill="white" stroke="white" points="-4,5 -4,-200 256,-200 256,5 -4,5"/>
<!-- Node1 -->
<g id="node1" class="node"><title>Node1</title>
<polygon fill="#bfbfbf" stroke="black" points="0,-174.5 0,-195.5 170,-195.5 170,-174.5 0,-174.5"/>
<text text-anchor="middle" x="85" y="-182.5" font-family="DejaVuSans" font-size="10.00">src/Datatypes/cv_TraitDetail.cpp</text>
</g>
<!-- Node2 -->
<g id="node3" class="node"><title>Node2</title>
<a xlink:href="cv___trait_detail_8h.html" target="_top" xlink:title="cv_TraitDetail.h">
<polygon fill="white" stroke="black" points="40.5,-116.5 40.5,-137.5 129.5,-137.5 129.5,-116.5 40.5,-116.5"/>
<text text-anchor="middle" x="85" y="-124.5" font-family="DejaVuSans" font-size="10.00">cv_TraitDetail.h</text>
</a>
</g>
<!-- Node1&#45;&gt;Node2 -->
<g id="edge2" class="edge"><title>Node1&#45;&gt;Node2</title>
<path fill="none" stroke="midnightblue" d="M85,-174.362C85,-166.922 85,-156.743 85,-147.728"/>
<polygon fill="midnightblue" stroke="midnightblue" points="88.5001,-147.571 85,-137.571 81.5001,-147.571 88.5001,-147.571"/>
</g>
<!-- Node3 -->
<g id="node5" class="node"><title>Node3</title>
<polygon fill="white" stroke="#bfbfbf" points="79.5,-0.5 79.5,-21.5 132.5,-21.5 132.5,-0.5 79.5,-0.5"/>
<text text-anchor="middle" x="106" y="-8.5" font-family="DejaVuSans" font-size="10.00">QString</text>
</g>
<!-- Node2&#45;&gt;Node3 -->
<g id="edge4" class="edge"><title>Node2&#45;&gt;Node3</title>
<path fill="none" stroke="midnightblue" d="M61.8103,-116.351C37.9127,-103.8 5.98011,-81.639 20,-58 30.8151,-39.7646 51.4767,-28.1459 69.8371,-21.023"/>
<polygon fill="midnightblue" stroke="midnightblue" points="71.1945,-24.2551 79.443,-17.6059 68.8483,-17.66 71.1945,-24.2551"/>
</g>
<!-- Node4 -->
<g id="node7" class="node"><title>Node4</title>
<polygon fill="white" stroke="#bfbfbf" points="28.5,-58.5 28.5,-79.5 69.5,-79.5 69.5,-58.5 28.5,-58.5"/>
<text text-anchor="middle" x="49" y="-66.5" font-family="DejaVuSans" font-size="10.00">QList</text>
</g>
<!-- Node2&#45;&gt;Node4 -->
<g id="edge6" class="edge"><title>Node2&#45;&gt;Node4</title>
<path fill="none" stroke="midnightblue" d="M78.397,-116.362C73.5254,-108.513 66.7616,-97.6159 60.95,-88.2527"/>
<polygon fill="midnightblue" stroke="midnightblue" points="63.8085,-86.2213 55.5611,-79.5707 57.861,-89.9129 63.8085,-86.2213"/>
</g>
<!-- Node5 -->
<g id="node9" class="node"><title>Node5</title>
<polygon fill="white" stroke="#bfbfbf" points="86.5,-58.5 86.5,-79.5 155.5,-79.5 155.5,-58.5 86.5,-58.5"/>
<text text-anchor="middle" x="121" y="-66.5" font-family="DejaVuSans" font-size="10.00">QStringList</text>
</g>
<!-- Node2&#45;&gt;Node5 -->
<g id="edge8" class="edge"><title>Node2&#45;&gt;Node5</title>
<path fill="none" stroke="midnightblue" d="M91.603,-116.362C96.4746,-108.513 103.238,-97.6159 109.05,-88.2527"/>
<polygon fill="midnightblue" stroke="midnightblue" points="112.139,-89.9129 114.439,-79.5707 106.191,-86.2213 112.139,-89.9129"/>
</g>
<!-- Node6 -->
<g id="node11" class="node"><title>Node6</title>
<a xlink:href="cv___species_8h.html" target="_top" xlink:title="cv_Species.h">
<polygon fill="white" stroke="black" points="172.5,-58.5 172.5,-79.5 251.5,-79.5 251.5,-58.5 172.5,-58.5"/>
<text text-anchor="middle" x="212" y="-66.5" font-family="DejaVuSans" font-size="10.00">cv_Species.h</text>
</a>
</g>
<!-- Node2&#45;&gt;Node6 -->
<g id="edge10" class="edge"><title>Node2&#45;&gt;Node6</title>
<path fill="none" stroke="midnightblue" d="M107.999,-116.497C128.013,-107.356 157.241,-94.0082 179.619,-83.7883"/>
<polygon fill="midnightblue" stroke="midnightblue" points="181.101,-86.9592 188.743,-79.6212 178.193,-80.5918 181.101,-86.9592"/>
</g>
<!-- Node6&#45;&gt;Node3 -->
<g id="edge12" class="edge"><title>Node6&#45;&gt;Node3</title>
<path fill="none" stroke="midnightblue" d="M192.558,-58.3619C176.196,-49.4094 152.587,-36.4908 134.157,-26.4064"/>
<polygon fill="midnightblue" stroke="midnightblue" points="135.771,-23.3004 125.319,-21.5707 132.411,-29.4412 135.771,-23.3004"/>
</g>
</g>
</svg>
