<?xml version="1.0" encoding="UTF-8" standalone="no"?>
<!DOCTYPE svg PUBLIC "-//W3C//DTD SVG 1.1//EN"
 "http://www.w3.org/Graphics/SVG/1.1/DTD/svg11.dtd">
<!-- Generated by graphviz version 2.26.3 (20100126.1600)
 -->
<!-- Title: G Pages: 1 -->
<svg width="419pt" height="262pt"
 viewBox="0.00 0.00 418.98 262.00" xmlns="http://www.w3.org/2000/svg" xmlns:xlink="http://www.w3.org/1999/xlink">
<g id="graph1" class="graph" transform="scale(1 1) rotate(0) translate(4 258)">
<title>G</title>
<polygon fill="white" stroke="white" points="-4,5 -4,-258 415.977,-258 415.977,5 -4,5"/>
<!-- Node1 -->
<g id="node1" class="node"><title>Node1</title>
<polygon fill="#bfbfbf" stroke="black" points="172.977,-232.5 172.977,-253.5 330.977,-253.5 330.977,-232.5 172.977,-232.5"/>
<text text-anchor="middle" x="251.977" y="-240.5" font-family="DejaVuSans" font-size="10.00">src/Datatypes/cv_Character.h</text>
</g>
<!-- Node2 -->
<g id="node3" class="node"><title>Node2</title>
<a xlink:href="cv___character_8cpp.html" target="_top" xlink:title="src/Datatypes/cv_Character.cpp">
<polygon fill="white" stroke="black" points="0.476785,-174.5 0.476785,-195.5 169.477,-195.5 169.477,-174.5 0.476785,-174.5"/>
<text text-anchor="middle" x="84.9768" y="-182.5" font-family="DejaVuSans" font-size="10.00">src/Datatypes/cv_Character.cpp</text>
</a>
</g>
<!-- Node1&#45;&gt;Node2 -->
<g id="edge2" class="edge"><title>Node1&#45;&gt;Node2</title>
<path fill="none" stroke="midnightblue" d="M212.082,-229.144C182.363,-218.823 142.402,-204.944 115.276,-195.523"/>
<polygon fill="midnightblue" stroke="midnightblue" points="211.14,-232.522 221.734,-232.497 213.436,-225.909 211.14,-232.522"/>
</g>
<!-- Node3 -->
<g id="node5" class="node"><title>Node3</title>
<a xlink:href="cv___trait_8h.html" target="_top" xlink:title="src/Datatypes/cv_Trait.h">
<polygon fill="white" stroke="black" points="186.477,-174.5 186.477,-195.5 317.477,-195.5 317.477,-174.5 186.477,-174.5"/>
<text text-anchor="middle" x="251.977" y="-182.5" font-family="DejaVuSans" font-size="10.00">src/Datatypes/cv_Trait.h</text>
</a>
</g>
<!-- Node1&#45;&gt;Node3 -->
<g id="edge4" class="edge"><title>Node1&#45;&gt;Node3</title>
<path fill="none" stroke="midnightblue" d="M251.977,-222.191C251.977,-213.168 251.977,-202.994 251.977,-195.571"/>
<polygon fill="midnightblue" stroke="midnightblue" points="248.477,-222.362 251.977,-232.362 255.477,-222.362 248.477,-222.362"/>
</g>
<!-- Node7 -->
<g id="node13" class="node"><title>Node7</title>
<a xlink:href="_storage_8h.html" target="_top" xlink:title="src/Storage/Storage.h">
<polygon fill="white" stroke="black" points="282.977,-58.5 282.977,-79.5 404.977,-79.5 404.977,-58.5 282.977,-58.5"/>
<text text-anchor="middle" x="343.977" y="-66.5" font-family="DejaVuSans" font-size="10.00">src/Storage/Storage.h</text>
</a>
</g>
<!-- Node1&#45;&gt;Node7 -->
<g id="edge24" class="edge"><title>Node1&#45;&gt;Node7</title>
<path fill="none" stroke="midnightblue" d="M285.021,-227.757C299.145,-219.908 314.896,-209.192 325.977,-196 349.852,-167.576 352.332,-153.046 349.977,-116 349.184,-103.522 347.217,-89.2921 345.75,-79.7899"/>
<polygon fill="midnightblue" stroke="midnightblue" points="283.249,-224.735 276.039,-232.499 286.517,-230.925 283.249,-224.735"/>
</g>
<!-- Node4 -->
<g id="node7" class="node"><title>Node4</title>
<a xlink:href="cv___trait_8cpp.html" target="_top" xlink:title="src/Datatypes/cv_Trait.cpp">
<polygon fill="white" stroke="black" points="180.977,-116.5 180.977,-137.5 322.977,-137.5 322.977,-116.5 180.977,-116.5"/>
<text text-anchor="middle" x="251.977" y="-124.5" font-family="DejaVuSans" font-size="10.00">src/Datatypes/cv_Trait.cpp</text>
</a>
</g>
<!-- Node3&#45;&gt;Node4 -->
<g id="edge6" class="edge"><title>Node3&#45;&gt;Node4</title>
<path fill="none" stroke="midnightblue" d="M251.977,-164.191C251.977,-155.168 251.977,-144.994 251.977,-137.571"/>
<polygon fill="midnightblue" stroke="midnightblue" points="248.477,-164.362 251.977,-174.362 255.477,-164.362 248.477,-164.362"/>
</g>
<!-- Node5 -->
<g id="node9" class="node"><title>Node5</title>
<a xlink:href="_read_template_8h.html" target="_top" xlink:title="src/Read/ReadTemplate.h">
<polygon fill="white" stroke="black" points="26.9768,-116.5 26.9768,-137.5 162.977,-137.5 162.977,-116.5 26.9768,-116.5"/>
<text text-anchor="middle" x="94.9768" y="-124.5" font-family="DejaVuSans" font-size="10.00">src/Read/ReadTemplate.h</text>
</a>
</g>
<!-- Node3&#45;&gt;Node5 -->
<g id="edge8" class="edge"><title>Node3&#45;&gt;Node5</title>
<path fill="none" stroke="midnightblue" d="M214.106,-171.009C186.205,-160.702 148.852,-146.903 123.462,-137.523"/>
<polygon fill="midnightblue" stroke="midnightblue" points="212.952,-174.314 223.545,-174.497 215.378,-167.748 212.952,-174.314"/>
</g>
<!-- Node6 -->
<g id="node11" class="node"><title>Node6</title>
<a xlink:href="_main_window_8cpp.html" target="_top" xlink:title="src/MainWindow.cpp">
<polygon fill="white" stroke="black" points="143.477,-0.5 143.477,-21.5 254.477,-21.5 254.477,-0.5 143.477,-0.5"/>
<text text-anchor="middle" x="198.977" y="-8.5" font-family="DejaVuSans" font-size="10.00">src/MainWindow.cpp</text>
</a>
</g>
<!-- Node3&#45;&gt;Node6 -->
<g id="edge20" class="edge"><title>Node3&#45;&gt;Node6</title>
<path fill="none" stroke="midnightblue" d="M179.647,-172.698C112.908,-161.007 23.3231,-144.302 17.9768,-138 -5.03161,-110.878 -5.8213,-86.1039 15.9768,-58 31.5571,-37.9125 95.357,-24.9199 143.274,-17.7946"/>
<polygon fill="midnightblue" stroke="midnightblue" points="179.277,-176.186 189.73,-174.457 180.48,-169.291 179.277,-176.186"/>
</g>
<!-- Node3&#45;&gt;Node7 -->
<g id="edge22" class="edge"><title>Node3&#45;&gt;Node7</title>
<path fill="none" stroke="midnightblue" d="M291.828,-170.131C306.625,-162.669 322.177,-152.145 331.977,-138 344.164,-120.41 345.266,-94.3927 344.764,-79.85"/>
<polygon fill="midnightblue" stroke="midnightblue" points="290.333,-166.966 282.77,-174.387 293.31,-173.302 290.333,-166.966"/>
</g>
<!-- Node5&#45;&gt;Node6 -->
<g id="edge10" class="edge"><title>Node5&#45;&gt;Node6</title>
<path fill="none" stroke="midnightblue" d="M136.571,-112.137C152.184,-104.676 168.83,-94.1511 179.977,-80 193.508,-62.8214 197.415,-36.6501 198.534,-21.9706"/>
<polygon fill="midnightblue" stroke="midnightblue" points="134.745,-109.119 127.041,-116.392 137.599,-115.511 134.745,-109.119"/>
</g>
<!-- Node5&#45;&gt;Node7 -->
<g id="edge12" class="edge"><title>Node5&#45;&gt;Node7</title>
<path fill="none" stroke="midnightblue" d="M149.894,-114.208C194.603,-103.794 256.949,-89.2716 298.8,-79.5231"/>
<polygon fill="midnightblue" stroke="midnightblue" points="149.014,-110.819 140.069,-116.497 150.602,-117.637 149.014,-110.819"/>
</g>
<!-- Node9 -->
<g id="node18" class="node"><title>Node9</title>
<a xlink:href="_read_template_8cpp.html" target="_top" xlink:title="src/Read/ReadTemplate.cpp">
<polygon fill="white" stroke="black" points="24.4768,-58.5 24.4768,-79.5 171.477,-79.5 171.477,-58.5 24.4768,-58.5"/>
<text text-anchor="middle" x="97.9768" y="-66.5" font-family="DejaVuSans" font-size="10.00">src/Read/ReadTemplate.cpp</text>
</a>
</g>
<!-- Node5&#45;&gt;Node9 -->
<g id="edge18" class="edge"><title>Node5&#45;&gt;Node9</title>
<path fill="none" stroke="midnightblue" d="M96.0531,-106.191C96.5198,-97.1684 97.0461,-86.9941 97.43,-79.5707"/>
<polygon fill="midnightblue" stroke="midnightblue" points="92.5483,-106.194 95.527,-116.362 99.539,-106.556 92.5483,-106.194"/>
</g>
<!-- Node7&#45;&gt;Node6 -->
<g id="edge14" class="edge"><title>Node7&#45;&gt;Node6</title>
<path fill="none" stroke="midnightblue" d="M308.354,-54.7509C282.748,-44.5086 248.778,-30.9206 225.53,-21.6212"/>
<polygon fill="midnightblue" stroke="midnightblue" points="307.134,-58.0323 317.718,-58.4966 309.733,-51.533 307.134,-58.0323"/>
</g>
<!-- Node8 -->
<g id="node16" class="node"><title>Node8</title>
<a xlink:href="_storage_8cpp.html" target="_top" xlink:title="src/Storage/Storage.cpp">
<polygon fill="white" stroke="black" points="276.977,-0.5 276.977,-21.5 410.977,-21.5 410.977,-0.5 276.977,-0.5"/>
<text text-anchor="middle" x="343.977" y="-8.5" font-family="DejaVuSans" font-size="10.00">src/Storage/Storage.cpp</text>
</a>
</g>
<!-- Node7&#45;&gt;Node8 -->
<g id="edge16" class="edge"><title>Node7&#45;&gt;Node8</title>
<path fill="none" stroke="midnightblue" d="M343.977,-48.1906C343.977,-39.1684 343.977,-28.9941 343.977,-21.5707"/>
<polygon fill="midnightblue" stroke="midnightblue" points="340.477,-48.3619 343.977,-58.3619 347.477,-48.3619 340.477,-48.3619"/>
</g>
</g>
</svg>
