<?xml version="1.0" encoding="UTF-8" standalone="no"?>
<!DOCTYPE svg PUBLIC "-//W3C//DTD SVG 1.1//EN"
 "http://www.w3.org/Graphics/SVG/1.1/DTD/svg11.dtd">
<!-- Generated by graphviz version 2.26.3 (20100126.1600)
 -->
<!-- Title: G Pages: 1 -->
<svg width="807pt" height="320pt"
 viewBox="0.00 0.00 806.67 320.00" xmlns="http://www.w3.org/2000/svg" xmlns:xlink="http://www.w3.org/1999/xlink">
<g id="graph1" class="graph" transform="scale(1 1) rotate(0) translate(4 316)">
<title>G</title>
<polygon fill="white" stroke="white" points="-4,5 -4,-316 803.674,-316 803.674,5 -4,5"/>
<!-- Node1 -->
<g id="node1" class="node"><title>Node1</title>
<polygon fill="#bfbfbf" stroke="black" points="355.674,-290.5 355.674,-311.5 497.674,-311.5 497.674,-290.5 355.674,-290.5"/>
<text text-anchor="middle" x="426.674" y="-298.5" font-family="DejaVuSans" font-size="10.00">src/Datatypes/cv_Trait.cpp</text>
</g>
<!-- Node2 -->
<g id="node3" class="node"><title>Node2</title>
<a xlink:href="_exception_8h_source.html" target="_top" xlink:title="../Exceptions/Exception.h">
<polygon fill="white" stroke="black" points="446.674,-232.5 446.674,-253.5 582.674,-253.5 582.674,-232.5 446.674,-232.5"/>
<text text-anchor="middle" x="514.674" y="-240.5" font-family="DejaVuSans" font-size="10.00">../Exceptions/Exception.h</text>
</a>
</g>
<!-- Node1&#45;&gt;Node2 -->
<g id="edge2" class="edge"><title>Node1&#45;&gt;Node2</title>
<path fill="none" stroke="midnightblue" d="M442.815,-290.362C456.088,-281.614 475.107,-269.079 490.245,-259.101"/>
<polygon fill="midnightblue" stroke="midnightblue" points="492.213,-261.996 498.636,-253.571 488.36,-256.151 492.213,-261.996"/>
</g>
<!-- Node4 -->
<g id="node7" class="node"><title>Node4</title>
<a xlink:href="cv___trait_8h.html" target="_top" xlink:title="../Datatypes/cv_Trait.h">
<polygon fill="white" stroke="black" points="144.674,-174.5 144.674,-195.5 266.674,-195.5 266.674,-174.5 144.674,-174.5"/>
<text text-anchor="middle" x="205.674" y="-182.5" font-family="DejaVuSans" font-size="10.00">../Datatypes/cv_Trait.h</text>
</a>
</g>
<!-- Node1&#45;&gt;Node4 -->
<g id="edge60" class="edge"><title>Node1&#45;&gt;Node4</title>
<path fill="none" stroke="midnightblue" d="M406.279,-290.295C366.874,-269.612 280.166,-224.099 234.736,-200.254"/>
<polygon fill="midnightblue" stroke="midnightblue" points="236.182,-197.06 225.701,-195.512 232.929,-203.258 236.182,-197.06"/>
</g>
<!-- Node3 -->
<g id="node5" class="node"><title>Node3</title>
<polygon fill="white" stroke="#bfbfbf" points="436.174,-0.5 436.174,-21.5 489.174,-21.5 489.174,-0.5 436.174,-0.5"/>
<text text-anchor="middle" x="462.674" y="-8.5" font-family="DejaVuSans" font-size="10.00">QString</text>
</g>
<!-- Node2&#45;&gt;Node3 -->
<g id="edge4" class="edge"><title>Node2&#45;&gt;Node3</title>
<path fill="none" stroke="midnightblue" d="M523.119,-232.148C529.621,-223.063 538.084,-209.457 541.674,-196 544.195,-186.553 542.83,-183.709 541.674,-174 535.408,-121.335 540.555,-103.719 513.674,-58 506.809,-46.3231 496.128,-35.8325 486.312,-27.7406"/>
<polygon fill="midnightblue" stroke="midnightblue" points="488.406,-24.9351 478.372,-21.5342 484.095,-30.4502 488.406,-24.9351"/>
</g>
<!-- Node2&#45;&gt;Node4 -->
<g id="edge6" class="edge"><title>Node2&#45;&gt;Node4</title>
<path fill="none" stroke="midnightblue" d="M458.717,-232.497C406.161,-222.632 327.495,-207.866 271.848,-197.421"/>
<polygon fill="midnightblue" stroke="midnightblue" points="272.211,-193.928 261.737,-195.523 270.92,-200.808 272.211,-193.928"/>
</g>
<!-- Node11 -->
<g id="node29" class="node"><title>Node11</title>
<a xlink:href="cv___shape_8h.html" target="_top" xlink:title="../Datatypes/cv_Shape.h">
<polygon fill="white" stroke="black" points="664.674,-58.5 664.674,-79.5 798.674,-79.5 798.674,-58.5 664.674,-58.5"/>
<text text-anchor="middle" x="731.674" y="-66.5" font-family="DejaVuSans" font-size="10.00">../Datatypes/cv_Shape.h</text>
</a>
</g>
<!-- Node2&#45;&gt;Node11 -->
<g id="edge36" class="edge"><title>Node2&#45;&gt;Node11</title>
<path fill="none" stroke="midnightblue" d="M575.899,-232.436C623.042,-223.466 683.6,-209.872 704.674,-196 731.701,-178.21 738.358,-168.667 748.674,-138 754.119,-121.815 748.707,-102.962 742.586,-89.0571"/>
<polygon fill="midnightblue" stroke="midnightblue" points="745.665,-87.3834 738.149,-79.9152 739.367,-90.4399 745.665,-87.3834"/>
</g>
<!-- Node12 -->
<g id="node32" class="node"><title>Node12</title>
<a xlink:href="cv___identity_8h.html" target="_top" xlink:title="../Datatypes/cv_Identity.h">
<polygon fill="white" stroke="black" points="396.174,-174.5 396.174,-195.5 533.174,-195.5 533.174,-174.5 396.174,-174.5"/>
<text text-anchor="middle" x="464.674" y="-182.5" font-family="DejaVuSans" font-size="10.00">../Datatypes/cv_Identity.h</text>
</a>
</g>
<!-- Node2&#45;&gt;Node12 -->
<g id="edge40" class="edge"><title>Node2&#45;&gt;Node12</title>
<path fill="none" stroke="midnightblue" d="M505.504,-232.362C498.526,-224.268 488.754,-212.932 480.519,-203.38"/>
<polygon fill="midnightblue" stroke="midnightblue" points="482.967,-200.859 473.787,-195.571 477.665,-205.43 482.967,-200.859"/>
</g>
<!-- Node14 -->
<g id="node40" class="node"><title>Node14</title>
<a xlink:href="_config_8h.html" target="_top" xlink:title="../Config/Config.h">
<polygon fill="white" stroke="black" points="597.674,-174.5 597.674,-195.5 695.674,-195.5 695.674,-174.5 597.674,-174.5"/>
<text text-anchor="middle" x="646.674" y="-182.5" font-family="DejaVuSans" font-size="10.00">../Config/Config.h</text>
</a>
</g>
<!-- Node2&#45;&gt;Node14 -->
<g id="edge52" class="edge"><title>Node2&#45;&gt;Node14</title>
<path fill="none" stroke="midnightblue" d="M538.579,-232.497C559.474,-223.315 590.031,-209.889 613.329,-199.652"/>
<polygon fill="midnightblue" stroke="midnightblue" points="614.755,-202.848 622.502,-195.621 611.939,-196.44 614.755,-202.848"/>
</g>
<!-- Node4&#45;&gt;Node3 -->
<g id="edge10" class="edge"><title>Node4&#45;&gt;Node3</title>
<path fill="none" stroke="midnightblue" d="M144.658,-178.835C92.6504,-172.171 23.6915,-159.504 6.67434,-138 -15.1926,-110.367 24.1281,-68.7403 40.6743,-58 72.6712,-37.2305 328.814,-19.3207 425.715,-13.2245"/>
<polygon fill="midnightblue" stroke="midnightblue" points="426.158,-16.7038 435.921,-12.5892 425.723,-9.71736 426.158,-16.7038"/>
</g>
<!-- Node5 -->
<g id="node9" class="node"><title>Node5</title>
<polygon fill="white" stroke="#bfbfbf" points="23.1743,-116.5 23.1743,-137.5 72.1743,-137.5 72.1743,-116.5 23.1743,-116.5"/>
<text text-anchor="middle" x="47.6743" y="-124.5" font-family="DejaVuSans" font-size="10.00">QFlags</text>
</g>
<!-- Node4&#45;&gt;Node5 -->
<g id="edge8" class="edge"><title>Node4&#45;&gt;Node5</title>
<path fill="none" stroke="midnightblue" d="M177.062,-174.497C150.254,-164.656 110.16,-149.938 81.7183,-139.497"/>
<polygon fill="midnightblue" stroke="midnightblue" points="82.7787,-136.158 72.1851,-135.998 80.3665,-142.729 82.7787,-136.158"/>
</g>
<!-- Node6 -->
<g id="node12" class="node"><title>Node6</title>
<polygon fill="white" stroke="#bfbfbf" points="49.1743,-58.5 49.1743,-79.5 90.1743,-79.5 90.1743,-58.5 49.1743,-58.5"/>
<text text-anchor="middle" x="69.6743" y="-66.5" font-family="DejaVuSans" font-size="10.00">QList</text>
</g>
<!-- Node4&#45;&gt;Node6 -->
<g id="edge12" class="edge"><title>Node4&#45;&gt;Node6</title>
<path fill="none" stroke="midnightblue" d="M144.646,-178.146C95.0172,-171.166 30.684,-158.427 14.6743,-138 0.452225,-119.854 21.9611,-99.1962 42.1044,-85.2516"/>
<polygon fill="midnightblue" stroke="midnightblue" points="44.1046,-88.1254 50.5456,-79.7132 40.2645,-82.2727 44.1046,-88.1254"/>
</g>
<!-- Node7 -->
<g id="node14" class="node"><title>Node7</title>
<polygon fill="white" stroke="#bfbfbf" points="354.174,-58.5 354.174,-79.5 423.174,-79.5 423.174,-58.5 354.174,-58.5"/>
<text text-anchor="middle" x="388.674" y="-66.5" font-family="DejaVuSans" font-size="10.00">QStringList</text>
</g>
<!-- Node4&#45;&gt;Node7 -->
<g id="edge14" class="edge"><title>Node4&#45;&gt;Node7</title>
<path fill="none" stroke="midnightblue" d="M262.035,-174.453C288.492,-167.417 319.273,-156.037 342.674,-138 359.418,-125.095 372.088,-104.293 379.849,-88.8998"/>
<polygon fill="midnightblue" stroke="midnightblue" points="383.089,-90.2351 384.233,-79.7022 376.771,-87.223 383.089,-90.2351"/>
</g>
<!-- Node8 -->
<g id="node16" class="node"><title>Node8</title>
<a xlink:href="cv___species_8h.html" target="_top" xlink:title="cv_Species.h">
<polygon fill="white" stroke="black" points="183.174,-58.5 183.174,-79.5 262.174,-79.5 262.174,-58.5 183.174,-58.5"/>
<text text-anchor="middle" x="222.674" y="-66.5" font-family="DejaVuSans" font-size="10.00">cv_Species.h</text>
</a>
</g>
<!-- Node4&#45;&gt;Node8 -->
<g id="edge16" class="edge"><title>Node4&#45;&gt;Node8</title>
<path fill="none" stroke="midnightblue" d="M207.243,-174.295C210.052,-155.131 215.984,-114.654 219.62,-89.8434"/>
<polygon fill="midnightblue" stroke="midnightblue" points="223.122,-90.0811 221.109,-79.6792 216.196,-89.066 223.122,-90.0811"/>
</g>
<!-- Node9 -->
<g id="node19" class="node"><title>Node9</title>
<a xlink:href="cv___trait_detail_8h.html" target="_top" xlink:title="cv_TraitDetail.h">
<polygon fill="white" stroke="black" points="89.1743,-116.5 89.1743,-137.5 178.174,-137.5 178.174,-116.5 89.1743,-116.5"/>
<text text-anchor="middle" x="133.674" y="-124.5" font-family="DejaVuSans" font-size="10.00">cv_TraitDetail.h</text>
</a>
</g>
<!-- Node4&#45;&gt;Node9 -->
<g id="edge20" class="edge"><title>Node4&#45;&gt;Node9</title>
<path fill="none" stroke="midnightblue" d="M192.468,-174.362C181.913,-165.859 166.917,-153.779 154.711,-143.947"/>
<polygon fill="midnightblue" stroke="midnightblue" points="156.78,-141.118 146.797,-137.571 152.388,-146.57 156.78,-141.118"/>
</g>
<!-- Node10 -->
<g id="node25" class="node"><title>Node10</title>
<a xlink:href="cv___abstract_trait_8h.html" target="_top" xlink:title="cv_AbstractTrait.h">
<polygon fill="white" stroke="black" points="233.174,-116.5 233.174,-137.5 334.174,-137.5 334.174,-116.5 233.174,-116.5"/>
<text text-anchor="middle" x="283.674" y="-124.5" font-family="DejaVuSans" font-size="10.00">cv_AbstractTrait.h</text>
</a>
</g>
<!-- Node4&#45;&gt;Node10 -->
<g id="edge30" class="edge"><title>Node4&#45;&gt;Node10</title>
<path fill="none" stroke="midnightblue" d="M219.981,-174.362C231.526,-165.777 247.975,-153.546 261.265,-143.664"/>
<polygon fill="midnightblue" stroke="midnightblue" points="263.522,-146.346 269.459,-137.571 259.346,-140.729 263.522,-146.346"/>
</g>
<!-- Node8&#45;&gt;Node3 -->
<g id="edge18" class="edge"><title>Node8&#45;&gt;Node3</title>
<path fill="none" stroke="midnightblue" d="M262.305,-59.4225C307.883,-48.4079 382.088,-30.475 426.263,-19.7994"/>
<polygon fill="midnightblue" stroke="midnightblue" points="427.114,-23.1946 436.012,-17.4434 425.469,-16.3905 427.114,-23.1946"/>
</g>
<!-- Node9&#45;&gt;Node3 -->
<g id="edge22" class="edge"><title>Node9&#45;&gt;Node3</title>
<path fill="none" stroke="midnightblue" d="M136.803,-116.36C141.967,-100.815 153.833,-72.2037 174.674,-58 214.909,-30.5796 357.09,-17.839 425.441,-13.1925"/>
<polygon fill="midnightblue" stroke="midnightblue" points="426.002,-16.6633 435.751,-12.5152 425.543,-9.67837 426.002,-16.6633"/>
</g>
<!-- Node9&#45;&gt;Node6 -->
<g id="edge24" class="edge"><title>Node9&#45;&gt;Node6</title>
<path fill="none" stroke="midnightblue" d="M121.936,-116.362C112.734,-108.023 99.7343,-96.2418 89.0026,-86.5162"/>
<polygon fill="midnightblue" stroke="midnightblue" points="91.0987,-83.6924 81.3385,-79.5707 86.3981,-88.8793 91.0987,-83.6924"/>
</g>
<!-- Node9&#45;&gt;Node7 -->
<g id="edge26" class="edge"><title>Node9&#45;&gt;Node7</title>
<path fill="none" stroke="midnightblue" d="M178.384,-116.831C224.959,-106.237 297.503,-89.7369 344.048,-79.1503"/>
<polygon fill="midnightblue" stroke="midnightblue" points="344.879,-82.5509 353.853,-76.9201 343.326,-75.7252 344.879,-82.5509"/>
</g>
<!-- Node9&#45;&gt;Node8 -->
<g id="edge28" class="edge"><title>Node9&#45;&gt;Node8</title>
<path fill="none" stroke="midnightblue" d="M149.998,-116.362C163.422,-107.614 182.657,-95.0786 197.967,-85.1015"/>
<polygon fill="midnightblue" stroke="midnightblue" points="199.987,-87.9628 206.454,-79.5707 196.165,-82.0982 199.987,-87.9628"/>
</g>
<!-- Node10&#45;&gt;Node3 -->
<g id="edge32" class="edge"><title>Node10&#45;&gt;Node3</title>
<path fill="none" stroke="midnightblue" d="M290.892,-116.263C301.386,-101.371 322.184,-74.431 345.674,-58 370.159,-40.8734 401.797,-28.6483 425.998,-20.967"/>
<polygon fill="midnightblue" stroke="midnightblue" points="427.331,-24.2198 435.873,-17.9521 425.287,-17.5249 427.331,-24.2198"/>
</g>
<!-- Node10&#45;&gt;Node8 -->
<g id="edge34" class="edge"><title>Node10&#45;&gt;Node8</title>
<path fill="none" stroke="midnightblue" d="M272.486,-116.362C263.715,-108.023 251.325,-96.2418 241.097,-86.5162"/>
<polygon fill="midnightblue" stroke="midnightblue" points="243.451,-83.9248 233.792,-79.5707 238.627,-88.9978 243.451,-83.9248"/>
</g>
<!-- Node11&#45;&gt;Node3 -->
<g id="edge38" class="edge"><title>Node11&#45;&gt;Node3</title>
<path fill="none" stroke="midnightblue" d="M682.96,-58.4966C630.065,-47.0918 546.79,-29.1365 499.223,-18.8803"/>
<polygon fill="midnightblue" stroke="midnightblue" points="499.868,-15.4391 489.355,-16.7527 498.392,-22.2818 499.868,-15.4391"/>
</g>
<!-- Node12&#45;&gt;Node3 -->
<g id="edge44" class="edge"><title>Node12&#45;&gt;Node3</title>
<path fill="none" stroke="midnightblue" d="M478.531,-174.337C488.468,-165.753 501.055,-152.722 506.674,-138 521.2,-99.945 495.458,-54.7375 477.609,-29.8261"/>
<polygon fill="midnightblue" stroke="midnightblue" points="480.268,-27.5361 471.48,-21.6174 474.659,-31.7242 480.268,-27.5361"/>
</g>
<!-- Node12&#45;&gt;Node7 -->
<g id="edge42" class="edge"><title>Node12&#45;&gt;Node7</title>
<path fill="none" stroke="midnightblue" d="M452.059,-174.448C442.009,-165.537 428.109,-152.019 418.674,-138 408.562,-122.974 400.603,-103.983 395.431,-89.7306"/>
<polygon fill="midnightblue" stroke="midnightblue" points="398.607,-88.2055 392.03,-79.8991 391.992,-90.4939 398.607,-88.2055"/>
</g>
<!-- Node13 -->
<g id="node36" class="node"><title>Node13</title>
<a xlink:href="cv___name_8h.html" target="_top" xlink:title="cv_Name.h">
<polygon fill="white" stroke="black" points="427.174,-116.5 427.174,-137.5 498.174,-137.5 498.174,-116.5 427.174,-116.5"/>
<text text-anchor="middle" x="462.674" y="-124.5" font-family="DejaVuSans" font-size="10.00">cv_Name.h</text>
</a>
</g>
<!-- Node12&#45;&gt;Node13 -->
<g id="edge46" class="edge"><title>Node12&#45;&gt;Node13</title>
<path fill="none" stroke="midnightblue" d="M464.308,-174.362C464.051,-166.922 463.7,-156.743 463.389,-147.728"/>
<polygon fill="midnightblue" stroke="midnightblue" points="466.881,-147.444 463.039,-137.571 459.886,-147.685 466.881,-147.444"/>
</g>
<!-- Node13&#45;&gt;Node3 -->
<g id="edge50" class="edge"><title>Node13&#45;&gt;Node3</title>
<path fill="none" stroke="midnightblue" d="M462.674,-116.295C462.674,-97.1314 462.674,-56.654 462.674,-31.8434"/>
<polygon fill="midnightblue" stroke="midnightblue" points="466.174,-31.6792 462.674,-21.6792 459.174,-31.6792 466.174,-31.6792"/>
</g>
<!-- Node13&#45;&gt;Node7 -->
<g id="edge48" class="edge"><title>Node13&#45;&gt;Node7</title>
<path fill="none" stroke="midnightblue" d="M449.102,-116.362C438.253,-107.859 422.84,-95.7785 410.296,-85.9466"/>
<polygon fill="midnightblue" stroke="midnightblue" points="412.191,-82.9848 402.161,-79.5707 407.873,-88.4942 412.191,-82.9848"/>
</g>
<!-- Node14&#45;&gt;Node3 -->
<g id="edge54" class="edge"><title>Node14&#45;&gt;Node3</title>
<path fill="none" stroke="midnightblue" d="M640.648,-174.193C635.354,-164.68 627.46,-150.444 620.674,-138 601.349,-102.561 607.679,-85.0028 577.674,-58 555.411,-37.9642 523.462,-25.8354 498.887,-18.9308"/>
<polygon fill="midnightblue" stroke="midnightblue" points="499.756,-15.5404 489.193,-16.3675 497.966,-22.3078 499.756,-15.5404"/>
</g>
<!-- Node15 -->
<g id="node43" class="node"><title>Node15</title>
<polygon fill="white" stroke="#bfbfbf" points="629.174,-116.5 629.174,-137.5 678.174,-137.5 678.174,-116.5 629.174,-116.5"/>
<text text-anchor="middle" x="653.674" y="-124.5" font-family="DejaVuSans" font-size="10.00">QColor</text>
</g>
<!-- Node14&#45;&gt;Node15 -->
<g id="edge56" class="edge"><title>Node14&#45;&gt;Node15</title>
<path fill="none" stroke="midnightblue" d="M647.958,-174.362C648.856,-166.922 650.085,-156.743 651.173,-147.728"/>
<polygon fill="midnightblue" stroke="midnightblue" points="654.675,-147.918 652.399,-137.571 647.725,-147.079 654.675,-147.918"/>
</g>
<!-- Node16 -->
<g id="node45" class="node"><title>Node16</title>
<polygon fill="white" stroke="#bfbfbf" points="695.174,-116.5 695.174,-137.5 740.174,-137.5 740.174,-116.5 695.174,-116.5"/>
<text text-anchor="middle" x="717.674" y="-124.5" font-family="DejaVuSans" font-size="10.00">QFont</text>
</g>
<!-- Node14&#45;&gt;Node16 -->
<g id="edge58" class="edge"><title>Node14&#45;&gt;Node16</title>
<path fill="none" stroke="midnightblue" d="M659.697,-174.362C670.106,-165.859 684.894,-153.779 696.929,-143.947"/>
<polygon fill="midnightblue" stroke="midnightblue" points="699.204,-146.608 704.734,-137.571 694.776,-141.187 699.204,-146.608"/>
</g>
</g>
</svg>
