<?xml version="1.0" encoding="UTF-8" standalone="no"?>
<!DOCTYPE svg PUBLIC "-//W3C//DTD SVG 1.1//EN"
 "http://www.w3.org/Graphics/SVG/1.1/DTD/svg11.dtd">
<!-- Generated by graphviz version 2.26.3 (20100126.1600)
 -->
<!-- Title: G Pages: 1 -->
<svg width="3666pt" height="320pt"
 viewBox="0.00 0.00 3666.00 320.00" xmlns="http://www.w3.org/2000/svg" xmlns:xlink="http://www.w3.org/1999/xlink">
<g id="graph1" class="graph" transform="scale(1 1) rotate(0) translate(4 316)">
<title>G</title>
<polygon fill="white" stroke="white" points="-4,5 -4,-316 3663,-316 3663,5 -4,5"/>
<!-- Node1 -->
<g id="node1" class="node"><title>Node1</title>
<polygon fill="#bfbfbf" stroke="black" points="3188,-290.5 3188,-311.5 3366,-311.5 3366,-290.5 3188,-290.5"/>
<text text-anchor="middle" x="3277" y="-298.5" font-family="DejaVuSans" font-size="10.00">src/Datatypes/cv_Derangement.h</text>
</g>
<!-- Node2 -->
<g id="node3" class="node"><title>Node2</title>
<a xlink:href="_storage_character_8h.html" target="_top" xlink:title="src/Storage/StorageCharacter.h">
<polygon fill="white" stroke="black" points="1890.5,-232.5 1890.5,-253.5 2059.5,-253.5 2059.5,-232.5 1890.5,-232.5"/>
<text text-anchor="middle" x="1975" y="-240.5" font-family="DejaVuSans" font-size="10.00">src/Storage/StorageCharacter.h</text>
</a>
</g>
<!-- Node1&#45;&gt;Node2 -->
<g id="edge2" class="edge"><title>Node1&#45;&gt;Node2</title>
<path fill="none" stroke="midnightblue" d="M3177.71,-296.577C2930.45,-285.562 2290.49,-257.054 2059.62,-246.77"/>
<polygon fill="midnightblue" stroke="midnightblue" points="3177.62,-300.076 3187.76,-297.025 3177.93,-293.083 3177.62,-300.076"/>
</g>
<!-- Node27 -->
<g id="node65" class="node"><title>Node27</title>
<a xlink:href="_morality_widget_8cpp.html" target="_top" xlink:title="src/Widgets/MoralityWidget.cpp">
<polygon fill="white" stroke="black" points="3206,-116.5 3206,-137.5 3370,-137.5 3370,-116.5 3206,-116.5"/>
<text text-anchor="middle" x="3288" y="-124.5" font-family="DejaVuSans" font-size="10.00">src/Widgets/MoralityWidget.cpp</text>
</a>
</g>
<!-- Node1&#45;&gt;Node27 -->
<g id="edge136" class="edge"><title>Node1&#45;&gt;Node27</title>
<path fill="none" stroke="midnightblue" d="M3255.34,-283.108C3247.35,-275.132 3239.21,-265.041 3235,-254 3231.51,-244.865 3232.74,-241.512 3235,-232 3243.84,-194.853 3268.05,-155.949 3280.45,-137.676"/>
<polygon fill="midnightblue" stroke="midnightblue" points="3253.43,-286.106 3263.14,-290.337 3258.19,-280.972 3253.43,-286.106"/>
</g>
<!-- Node41 -->
<g id="node105" class="node"><title>Node41</title>
<a xlink:href="cv___derangement_8cpp.html" target="_top" xlink:title="src/Datatypes/cv_Derangement.cpp">
<polygon fill="white" stroke="black" points="3243.5,-232.5 3243.5,-253.5 3432.5,-253.5 3432.5,-232.5 3243.5,-232.5"/>
<text text-anchor="middle" x="3338" y="-240.5" font-family="DejaVuSans" font-size="10.00">src/Datatypes/cv_Derangement.cpp</text>
</a>
</g>
<!-- Node1&#45;&gt;Node41 -->
<g id="edge128" class="edge"><title>Node1&#45;&gt;Node41</title>
<path fill="none" stroke="midnightblue" d="M3295.51,-283.405C3305.75,-273.668 3318.13,-261.891 3326.88,-253.571"/>
<polygon fill="midnightblue" stroke="midnightblue" points="3293.02,-280.935 3288.19,-290.362 3297.85,-286.008 3293.02,-280.935"/>
</g>
<!-- Node42 -->
<g id="node107" class="node"><title>Node42</title>
<a xlink:href="_derangement_combo_box_8h.html" target="_top" xlink:title="src/Widgets/DerangementComboBox.h">
<polygon fill="white" stroke="black" points="3449.5,-232.5 3449.5,-253.5 3652.5,-253.5 3652.5,-232.5 3449.5,-232.5"/>
<text text-anchor="middle" x="3551" y="-240.5" font-family="DejaVuSans" font-size="10.00">src/Widgets/DerangementComboBox.h</text>
</a>
</g>
<!-- Node1&#45;&gt;Node42 -->
<g id="edge130" class="edge"><title>Node1&#45;&gt;Node42</title>
<path fill="none" stroke="midnightblue" d="M3336.5,-288.404C3385.76,-277.977 3454.94,-263.333 3501.29,-253.523"/>
<polygon fill="midnightblue" stroke="midnightblue" points="3335.68,-285.002 3326.62,-290.497 3337.13,-291.85 3335.68,-285.002"/>
</g>
<!-- Node3 -->
<g id="node5" class="node"><title>Node3</title>
<a xlink:href="_calc_advantages_8h.html" target="_top" xlink:title="src/Calc/CalcAdvantages.h">
<polygon fill="white" stroke="black" points="2057.5,-174.5 2057.5,-195.5 2200.5,-195.5 2200.5,-174.5 2057.5,-174.5"/>
<text text-anchor="middle" x="2129" y="-182.5" font-family="DejaVuSans" font-size="10.00">src/Calc/CalcAdvantages.h</text>
</a>
</g>
<!-- Node2&#45;&gt;Node3 -->
<g id="edge4" class="edge"><title>Node2&#45;&gt;Node3</title>
<path fill="none" stroke="midnightblue" d="M2012.51,-228.874C2039.83,-218.582 2076.26,-204.862 2101.06,-195.523"/>
<polygon fill="midnightblue" stroke="midnightblue" points="2011.01,-225.697 2002.89,-232.497 2013.48,-232.247 2011.01,-225.697"/>
</g>
<!-- Node5 -->
<g id="node9" class="node"><title>Node5</title>
<a xlink:href="_draw_sheet_8h.html" target="_top" xlink:title="src/Draw/DrawSheet.h">
<polygon fill="white" stroke="black" points="2224,-116.5 2224,-137.5 2346,-137.5 2346,-116.5 2224,-116.5"/>
<text text-anchor="middle" x="2285" y="-124.5" font-family="DejaVuSans" font-size="10.00">src/Draw/DrawSheet.h</text>
</a>
</g>
<!-- Node2&#45;&gt;Node5 -->
<g id="edge26" class="edge"><title>Node2&#45;&gt;Node5</title>
<path fill="none" stroke="midnightblue" d="M2059.26,-230.912C2115.24,-221.966 2183.05,-209.107 2209,-196 2237.79,-181.458 2263.86,-152.987 2276.67,-137.552"/>
<polygon fill="midnightblue" stroke="midnightblue" points="2058.65,-227.465 2049.31,-232.48 2059.74,-234.379 2058.65,-227.465"/>
</g>
<!-- Node7 -->
<g id="node13" class="node"><title>Node7</title>
<a xlink:href="_main_window_8h.html" target="_top" xlink:title="src/MainWindow.h">
<polygon fill="white" stroke="black" points="1831,-58.5 1831,-79.5 1931,-79.5 1931,-58.5 1831,-58.5"/>
<text text-anchor="middle" x="1881" y="-66.5" font-family="DejaVuSans" font-size="10.00">src/MainWindow.h</text>
</a>
</g>
<!-- Node2&#45;&gt;Node7 -->
<g id="edge40" class="edge"><title>Node2&#45;&gt;Node7</title>
<path fill="none" stroke="midnightblue" d="M1990.44,-224.255C1996.2,-216.095 2002.05,-206.1 2005,-196 2015.37,-160.487 2007.39,-142.908 1982,-116 1965.41,-98.4168 1940.94,-86.7991 1920.24,-79.5132"/>
<polygon fill="midnightblue" stroke="midnightblue" points="1987.6,-222.214 1984.37,-232.306 1993.18,-226.429 1987.6,-222.214"/>
</g>
<!-- Node9 -->
<g id="node17" class="node"><title>Node9</title>
<a xlink:href="_main_window_8cpp.html" target="_top" xlink:title="src/MainWindow.cpp">
<polygon fill="white" stroke="black" points="2582.5,-0.5 2582.5,-21.5 2693.5,-21.5 2693.5,-0.5 2582.5,-0.5"/>
<text text-anchor="middle" x="2638" y="-8.5" font-family="DejaVuSans" font-size="10.00">src/MainWindow.cpp</text>
</a>
</g>
<!-- Node2&#45;&gt;Node9 -->
<g id="edge98" class="edge"><title>Node2&#45;&gt;Node9</title>
<path fill="none" stroke="midnightblue" d="M2069.59,-240.979C2347,-234.831 3140.19,-215.573 3159,-196 3299.34,-49.979 2854.4,-18.9872 2693.64,-12.6036"/>
<polygon fill="midnightblue" stroke="midnightblue" points="2069.47,-237.481 2059.55,-241.201 2069.62,-244.479 2069.47,-237.481"/>
</g>
<!-- Node10 -->
<g id="node19" class="node"><title>Node10</title>
<a xlink:href="_advantages_widget_8h.html" target="_top" xlink:title="src/Widgets/AdvantagesWidget.h">
<polygon fill="white" stroke="black" points="2363.5,-116.5 2363.5,-137.5 2536.5,-137.5 2536.5,-116.5 2363.5,-116.5"/>
<text text-anchor="middle" x="2450" y="-124.5" font-family="DejaVuSans" font-size="10.00">src/Widgets/AdvantagesWidget.h</text>
</a>
</g>
<!-- Node2&#45;&gt;Node10 -->
<g id="edge90" class="edge"><title>Node2&#45;&gt;Node10</title>
<path fill="none" stroke="midnightblue" d="M2059.7,-230.902C2111.56,-222.746 2179.06,-210.784 2238,-196 2305.01,-179.192 2381.65,-152.277 2421.9,-137.521"/>
<polygon fill="midnightblue" stroke="midnightblue" points="2058.89,-227.486 2049.55,-232.482 2059.97,-234.403 2058.89,-227.486"/>
</g>
<!-- Node13 -->
<g id="node27" class="node"><title>Node13</title>
<a xlink:href="_read_xml_character_8h.html" target="_top" xlink:title="src/IO/ReadXmlCharacter.h">
<polygon fill="white" stroke="black" points="472.5,-174.5 472.5,-195.5 615.5,-195.5 615.5,-174.5 472.5,-174.5"/>
<text text-anchor="middle" x="544" y="-182.5" font-family="DejaVuSans" font-size="10.00">src/IO/ReadXmlCharacter.h</text>
</a>
</g>
<!-- Node2&#45;&gt;Node13 -->
<g id="edge28" class="edge"><title>Node2&#45;&gt;Node13</title>
<path fill="none" stroke="midnightblue" d="M1880.3,-242.272C1661.44,-240.021 1103.74,-231.024 639,-196 631.384,-195.426 623.438,-194.703 615.526,-193.903"/>
<polygon fill="midnightblue" stroke="midnightblue" points="1880.43,-245.773 1890.46,-242.374 1880.5,-238.774 1880.43,-245.773"/>
</g>
<!-- Node15 -->
<g id="node32" class="node"><title>Node15</title>
<a xlink:href="_write_xml_character_8h.html" target="_top" xlink:title="src/IO/WriteXmlCharacter.h">
<polygon fill="white" stroke="black" points="1853.5,-174.5 1853.5,-195.5 1996.5,-195.5 1996.5,-174.5 1853.5,-174.5"/>
<text text-anchor="middle" x="1925" y="-182.5" font-family="DejaVuSans" font-size="10.00">src/IO/WriteXmlCharacter.h</text>
</a>
</g>
<!-- Node2&#45;&gt;Node15 -->
<g id="edge34" class="edge"><title>Node2&#45;&gt;Node15</title>
<path fill="none" stroke="midnightblue" d="M1959.09,-224.541C1950.84,-214.979 1941.07,-203.647 1934.11,-195.571"/>
<polygon fill="midnightblue" stroke="midnightblue" points="1956.65,-227.073 1965.83,-232.362 1961.95,-222.502 1956.65,-227.073"/>
</g>
<!-- Node17 -->
<g id="node38" class="node"><title>Node17</title>
<a xlink:href="_info_widget_8h.html" target="_top" xlink:title="src/Widgets/InfoWidget.h">
<polygon fill="white" stroke="black" points="2731.5,-116.5 2731.5,-137.5 2864.5,-137.5 2864.5,-116.5 2731.5,-116.5"/>
<text text-anchor="middle" x="2798" y="-124.5" font-family="DejaVuSans" font-size="10.00">src/Widgets/InfoWidget.h</text>
</a>
</g>
<!-- Node2&#45;&gt;Node17 -->
<g id="edge42" class="edge"><title>Node2&#45;&gt;Node17</title>
<path fill="none" stroke="midnightblue" d="M2069.86,-240.332C2256.51,-234.597 2658.51,-219.662 2717,-196 2748.34,-183.322 2776.26,-153.511 2789.64,-137.54"/>
<polygon fill="midnightblue" stroke="midnightblue" points="2069.67,-236.836 2059.78,-240.639 2069.88,-243.833 2069.67,-236.836"/>
</g>
<!-- Node19 -->
<g id="node43" class="node"><title>Node19</title>
<a xlink:href="_chara_species_8h.html" target="_top" xlink:title="src/Widgets/CharaSpecies.h">
<polygon fill="white" stroke="black" points="2559.5,-174.5 2559.5,-195.5 2708.5,-195.5 2708.5,-174.5 2559.5,-174.5"/>
<text text-anchor="middle" x="2634" y="-182.5" font-family="DejaVuSans" font-size="10.00">src/Widgets/CharaSpecies.h</text>
</a>
</g>
<!-- Node2&#45;&gt;Node19 -->
<g id="edge48" class="edge"><title>Node2&#45;&gt;Node19</title>
<path fill="none" stroke="midnightblue" d="M2069.91,-234.646C2202.05,-223.016 2438.75,-202.184 2559.18,-191.585"/>
<polygon fill="midnightblue" stroke="midnightblue" points="2069.46,-231.173 2059.8,-235.536 2070.07,-238.146 2069.46,-231.173"/>
</g>
<!-- Node20 -->
<g id="node46" class="node"><title>Node20</title>
<a xlink:href="_chara_species_8cpp.html" target="_top" xlink:title="src/Widgets/CharaSpecies.cpp">
<polygon fill="white" stroke="black" points="2553.5,-116.5 2553.5,-137.5 2714.5,-137.5 2714.5,-116.5 2553.5,-116.5"/>
<text text-anchor="middle" x="2634" y="-124.5" font-family="DejaVuSans" font-size="10.00">src/Widgets/CharaSpecies.cpp</text>
</a>
</g>
<!-- Node2&#45;&gt;Node20 -->
<g id="edge114" class="edge"><title>Node2&#45;&gt;Node20</title>
<path fill="none" stroke="midnightblue" d="M2062.79,-231.096C2126.08,-222.223 2213.48,-209.374 2290,-196 2395.75,-177.516 2518.95,-151.778 2585.44,-137.535"/>
<polygon fill="midnightblue" stroke="midnightblue" points="2062.26,-227.636 2052.85,-232.486 2063.23,-234.569 2062.26,-227.636"/>
</g>
<!-- Node21 -->
<g id="node48" class="node"><title>Node21</title>
<a xlink:href="_attribute_widget_8h.html" target="_top" xlink:title="src/Widgets/AttributeWidget.h">
<polygon fill="white" stroke="black" points="1678,-174.5 1678,-195.5 1836,-195.5 1836,-174.5 1678,-174.5"/>
<text text-anchor="middle" x="1757" y="-182.5" font-family="DejaVuSans" font-size="10.00">src/Widgets/AttributeWidget.h</text>
</a>
</g>
<!-- Node2&#45;&gt;Node21 -->
<g id="edge54" class="edge"><title>Node2&#45;&gt;Node21</title>
<path fill="none" stroke="midnightblue" d="M1925.43,-229.812C1886.4,-219.428 1832.73,-205.149 1796.55,-195.523"/>
<polygon fill="midnightblue" stroke="midnightblue" points="1924.96,-233.308 1935.52,-232.497 1926.76,-226.543 1924.96,-233.308"/>
</g>
<!-- Node22 -->
<g id="node52" class="node"><title>Node22</title>
<a xlink:href="_skill_widget_8h.html" target="_top" xlink:title="src/Widgets/SkillWidget.h">
<polygon fill="white" stroke="black" points="648,-174.5 648,-195.5 782,-195.5 782,-174.5 648,-174.5"/>
<text text-anchor="middle" x="715" y="-182.5" font-family="DejaVuSans" font-size="10.00">src/Widgets/SkillWidget.h</text>
</a>
</g>
<!-- Node2&#45;&gt;Node22 -->
<g id="edge60" class="edge"><title>Node2&#45;&gt;Node22</title>
<path fill="none" stroke="midnightblue" d="M1880.13,-240.511C1638.05,-233.954 1001.66,-215.373 791,-196 788.079,-195.731 785.099,-195.428 782.092,-195.097"/>
<polygon fill="midnightblue" stroke="midnightblue" points="1880.23,-244.015 1890.32,-240.786 1880.42,-237.017 1880.23,-244.015"/>
</g>
<!-- Node24 -->
<g id="node57" class="node"><title>Node24</title>
<a xlink:href="_merit_widget_8h.html" target="_top" xlink:title="src/Widgets/MeritWidget.h">
<polygon fill="white" stroke="black" points="800,-174.5 800,-195.5 940,-195.5 940,-174.5 800,-174.5"/>
<text text-anchor="middle" x="870" y="-182.5" font-family="DejaVuSans" font-size="10.00">src/Widgets/MeritWidget.h</text>
</a>
</g>
<!-- Node2&#45;&gt;Node24 -->
<g id="edge66" class="edge"><title>Node2&#45;&gt;Node24</title>
<path fill="none" stroke="midnightblue" d="M1880.33,-241.59C1699.16,-238.242 1290.99,-227.574 949,-196 946.104,-195.733 943.152,-195.435 940.172,-195.114"/>
<polygon fill="midnightblue" stroke="midnightblue" points="1880.3,-245.09 1890.36,-241.772 1880.43,-238.091 1880.3,-245.09"/>
</g>
<!-- Node26 -->
<g id="node62" class="node"><title>Node26</title>
<a xlink:href="_morality_widget_8h.html" target="_top" xlink:title="src/Widgets/MoralityWidget.h">
<polygon fill="white" stroke="black" points="2997.5,-174.5 2997.5,-195.5 3150.5,-195.5 3150.5,-174.5 2997.5,-174.5"/>
<text text-anchor="middle" x="3074" y="-182.5" font-family="DejaVuSans" font-size="10.00">src/Widgets/MoralityWidget.h</text>
</a>
</g>
<!-- Node2&#45;&gt;Node26 -->
<g id="edge72" class="edge"><title>Node2&#45;&gt;Node26</title>
<path fill="none" stroke="midnightblue" d="M2069.83,-241.21C2249.48,-237.241 2651.68,-225.594 2989,-196 2991.67,-195.766 2994.38,-195.51 2997.12,-195.238"/>
<polygon fill="midnightblue" stroke="midnightblue" points="2069.54,-237.715 2059.62,-241.432 2069.7,-244.714 2069.54,-237.715"/>
</g>
<!-- Node28 -->
<g id="node67" class="node"><title>Node28</title>
<a xlink:href="_power_widget_8h.html" target="_top" xlink:title="src/Widgets/PowerWidget.h">
<polygon fill="white" stroke="black" points="1304,-174.5 1304,-195.5 1448,-195.5 1448,-174.5 1304,-174.5"/>
<text text-anchor="middle" x="1376" y="-182.5" font-family="DejaVuSans" font-size="10.00">src/Widgets/PowerWidget.h</text>
</a>
</g>
<!-- Node2&#45;&gt;Node28 -->
<g id="edge78" class="edge"><title>Node2&#45;&gt;Node28</title>
<path fill="none" stroke="midnightblue" d="M1880.23,-235.406C1777.01,-226.885 1607.1,-212.128 1461,-196 1456.86,-195.543 1452.61,-195.054 1448.32,-194.546"/>
<polygon fill="midnightblue" stroke="midnightblue" points="1880.06,-238.904 1890.32,-236.236 1880.64,-231.927 1880.06,-238.904"/>
</g>
<!-- Node30 -->
<g id="node72" class="node"><title>Node30</title>
<a xlink:href="_flaw_widget_8h.html" target="_top" xlink:title="src/Widgets/FlawWidget.h">
<polygon fill="white" stroke="black" points="291,-174.5 291,-195.5 427,-195.5 427,-174.5 291,-174.5"/>
<text text-anchor="middle" x="359" y="-182.5" font-family="DejaVuSans" font-size="10.00">src/Widgets/FlawWidget.h</text>
</a>
</g>
<!-- Node2&#45;&gt;Node30 -->
<g id="edge84" class="edge"><title>Node2&#45;&gt;Node30</title>
<path fill="none" stroke="midnightblue" d="M1880.09,-242.461C1641.72,-240.583 998.68,-232.274 464,-196 452.114,-195.194 439.494,-194.088 427.28,-192.886"/>
<polygon fill="midnightblue" stroke="midnightblue" points="1880.08,-245.961 1890.11,-242.538 1880.14,-238.961 1880.08,-245.961"/>
</g>
<!-- Node32 -->
<g id="node78" class="node"><title>Node32</title>
<a xlink:href="_chara_specialties_8h.html" target="_top" xlink:title="src/Widgets/CharaSpecialties.h">
<polygon fill="white" stroke="black" points="1470,-174.5 1470,-195.5 1634,-195.5 1634,-174.5 1470,-174.5"/>
<text text-anchor="middle" x="1552" y="-182.5" font-family="DejaVuSans" font-size="10.00">src/Widgets/CharaSpecialties.h</text>
</a>
</g>
<!-- Node2&#45;&gt;Node32 -->
<g id="edge92" class="edge"><title>Node2&#45;&gt;Node32</title>
<path fill="none" stroke="midnightblue" d="M1888.33,-231.116C1812.02,-220.652 1701.93,-205.558 1628.75,-195.523"/>
<polygon fill="midnightblue" stroke="midnightblue" points="1888.02,-234.606 1898.4,-232.497 1888.97,-227.671 1888.02,-234.606"/>
</g>
<!-- Node34 -->
<g id="node84" class="node"><title>Node34</title>
<a xlink:href="_storage_character_8cpp.html" target="_top" xlink:title="src/Storage/StorageCharacter.cpp">
<polygon fill="white" stroke="black" points="958,-174.5 958,-195.5 1138,-195.5 1138,-174.5 958,-174.5"/>
<text text-anchor="middle" x="1048" y="-182.5" font-family="DejaVuSans" font-size="10.00">src/Storage/StorageCharacter.cpp</text>
</a>
</g>
<!-- Node2&#45;&gt;Node34 -->
<g id="edge100" class="edge"><title>Node2&#45;&gt;Node34</title>
<path fill="none" stroke="midnightblue" d="M1879.9,-239.272C1725.81,-232.855 1412.08,-218.234 1147,-196 1144.07,-195.754 1141.09,-195.493 1138.09,-195.218"/>
<polygon fill="midnightblue" stroke="midnightblue" points="1880.13,-242.784 1890.26,-239.701 1880.42,-235.79 1880.13,-242.784"/>
</g>
<!-- Node35 -->
<g id="node86" class="node"><title>Node35</title>
<a xlink:href="_chara_trait_8h.html" target="_top" xlink:title="src/Widgets/CharaTrait.h">
<polygon fill="white" stroke="black" points="1155.5,-174.5 1155.5,-195.5 1286.5,-195.5 1286.5,-174.5 1155.5,-174.5"/>
<text text-anchor="middle" x="1221" y="-182.5" font-family="DejaVuSans" font-size="10.00">src/Widgets/CharaTrait.h</text>
</a>
</g>
<!-- Node2&#45;&gt;Node35 -->
<g id="edge102" class="edge"><title>Node2&#45;&gt;Node35</title>
<path fill="none" stroke="midnightblue" d="M1880.22,-238.804C1748.62,-232.442 1503.25,-218.639 1295,-196 1292.29,-195.705 1289.52,-195.385 1286.73,-195.045"/>
<polygon fill="midnightblue" stroke="midnightblue" points="1880.11,-242.303 1890.27,-239.286 1880.45,-235.311 1880.11,-242.303"/>
</g>
<!-- Node37 -->
<g id="node95" class="node"><title>Node37</title>
<a xlink:href="_check_trait_8h.html" target="_top" xlink:title="src/Widgets/CheckTrait.h">
<polygon fill="white" stroke="black" points="141,-174.5 141,-195.5 273,-195.5 273,-174.5 141,-174.5"/>
<text text-anchor="middle" x="207" y="-182.5" font-family="DejaVuSans" font-size="10.00">src/Widgets/CheckTrait.h</text>
</a>
</g>
<!-- Node2&#45;&gt;Node37 -->
<g id="edge116" class="edge"><title>Node2&#45;&gt;Node37</title>
<path fill="none" stroke="midnightblue" d="M1880.19,-241.841C1571.33,-237.833 595.991,-223.289 282,-196 279.116,-195.749 276.173,-195.46 273.204,-195.142"/>
<polygon fill="midnightblue" stroke="midnightblue" points="1880.41,-245.344 1890.46,-241.973 1880.5,-238.344 1880.41,-245.344"/>
</g>
<!-- Node39 -->
<g id="node100" class="node"><title>Node39</title>
<a xlink:href="_name_dialog_8h.html" target="_top" xlink:title="src/Widgets/Dialogs/NameDialog.h">
<polygon fill="white" stroke="black" points="2799.5,-174.5 2799.5,-195.5 2980.5,-195.5 2980.5,-174.5 2799.5,-174.5"/>
<text text-anchor="middle" x="2890" y="-182.5" font-family="DejaVuSans" font-size="10.00">src/Widgets/Dialogs/NameDialog.h</text>
</a>
</g>
<!-- Node2&#45;&gt;Node39 -->
<g id="edge122" class="edge"><title>Node2&#45;&gt;Node39</title>
<path fill="none" stroke="midnightblue" d="M2069.57,-238.336C2218.3,-230.789 2515.92,-214.83 2768,-196 2778.18,-195.24 2788.83,-194.378 2799.42,-193.479"/>
<polygon fill="midnightblue" stroke="midnightblue" points="2069.37,-234.842 2059.56,-238.843 2069.72,-241.833 2069.37,-234.842"/>
</g>
<!-- Node4 -->
<g id="node7" class="node"><title>Node4</title>
<a xlink:href="_calc_advantages_8cpp.html" target="_top" xlink:title="src/Calc/CalcAdvantages.cpp">
<polygon fill="white" stroke="black" points="2051.5,-116.5 2051.5,-137.5 2206.5,-137.5 2206.5,-116.5 2051.5,-116.5"/>
<text text-anchor="middle" x="2129" y="-124.5" font-family="DejaVuSans" font-size="10.00">src/Calc/CalcAdvantages.cpp</text>
</a>
</g>
<!-- Node3&#45;&gt;Node4 -->
<g id="edge6" class="edge"><title>Node3&#45;&gt;Node4</title>
<path fill="none" stroke="midnightblue" d="M2129,-164.191C2129,-155.168 2129,-144.994 2129,-137.571"/>
<polygon fill="midnightblue" stroke="midnightblue" points="2125.5,-164.362 2129,-174.362 2132.5,-164.362 2125.5,-164.362"/>
</g>
<!-- Node3&#45;&gt;Node5 -->
<g id="edge8" class="edge"><title>Node3&#45;&gt;Node5</title>
<path fill="none" stroke="midnightblue" d="M2166.63,-171.009C2194.35,-160.702 2231.47,-146.903 2256.7,-137.523"/>
<polygon fill="midnightblue" stroke="midnightblue" points="2165.4,-167.731 2157.25,-174.497 2167.84,-174.292 2165.4,-167.731"/>
</g>
<!-- Node3&#45;&gt;Node10 -->
<g id="edge18" class="edge"><title>Node3&#45;&gt;Node10</title>
<path fill="none" stroke="midnightblue" d="M2197.27,-172.665C2255.06,-162.222 2337.01,-147.415 2391.76,-137.523"/>
<polygon fill="midnightblue" stroke="midnightblue" points="2196.35,-169.274 2187.13,-174.497 2197.59,-176.163 2196.35,-169.274"/>
</g>
<!-- Node12 -->
<g id="node24" class="node"><title>Node12</title>
<a xlink:href="_attribute_widget_8cpp.html" target="_top" xlink:title="src/Widgets/AttributeWidget.cpp">
<polygon fill="white" stroke="black" points="1579.5,-116.5 1579.5,-137.5 1748.5,-137.5 1748.5,-116.5 1579.5,-116.5"/>
<text text-anchor="middle" x="1664" y="-124.5" font-family="DejaVuSans" font-size="10.00">src/Widgets/AttributeWidget.cpp</text>
</a>
</g>
<!-- Node3&#45;&gt;Node12 -->
<g id="edge24" class="edge"><title>Node3&#45;&gt;Node12</title>
<path fill="none" stroke="midnightblue" d="M2047.36,-174.817C1963.4,-164.345 1833.26,-148.111 1748.33,-137.518"/>
<polygon fill="midnightblue" stroke="midnightblue" points="2047.01,-178.3 2057.36,-176.065 2047.87,-171.354 2047.01,-178.3"/>
</g>
<!-- Node6 -->
<g id="node11" class="node"><title>Node6</title>
<a xlink:href="_draw_sheet_8cpp.html" target="_top" xlink:title="src/Draw/DrawSheet.cpp">
<polygon fill="white" stroke="black" points="2212,-58.5 2212,-79.5 2346,-79.5 2346,-58.5 2212,-58.5"/>
<text text-anchor="middle" x="2279" y="-66.5" font-family="DejaVuSans" font-size="10.00">src/Draw/DrawSheet.cpp</text>
</a>
</g>
<!-- Node5&#45;&gt;Node6 -->
<g id="edge10" class="edge"><title>Node5&#45;&gt;Node6</title>
<path fill="none" stroke="midnightblue" d="M2282.85,-106.191C2281.91,-97.1684 2280.86,-86.9941 2280.09,-79.5707"/>
<polygon fill="midnightblue" stroke="midnightblue" points="2279.39,-106.775 2283.9,-116.362 2286.35,-106.055 2279.39,-106.775"/>
</g>
<!-- Node5&#45;&gt;Node7 -->
<g id="edge12" class="edge"><title>Node5&#45;&gt;Node7</title>
<path fill="none" stroke="midnightblue" d="M2213.95,-115.861C2107.28,-100.034 1994.5,-84.4494 1931.11,-75.7964"/>
<polygon fill="midnightblue" stroke="midnightblue" points="2213.52,-119.334 2223.93,-117.343 2214.55,-112.411 2213.52,-119.334"/>
</g>
<!-- Node8 -->
<g id="node15" class="node"><title>Node8</title>
<a xlink:href="main_8cpp.html" target="_top" xlink:title="src/main.cpp">
<polygon fill="white" stroke="black" points="1842,-0.5 1842,-21.5 1920,-21.5 1920,-0.5 1842,-0.5"/>
<text text-anchor="middle" x="1881" y="-8.5" font-family="DejaVuSans" font-size="10.00">src/main.cpp</text>
</a>
</g>
<!-- Node7&#45;&gt;Node8 -->
<g id="edge14" class="edge"><title>Node7&#45;&gt;Node8</title>
<path fill="none" stroke="midnightblue" d="M1881,-48.1906C1881,-39.1684 1881,-28.9941 1881,-21.5707"/>
<polygon fill="midnightblue" stroke="midnightblue" points="1877.5,-48.3619 1881,-58.3619 1884.5,-48.3619 1877.5,-48.3619"/>
</g>
<!-- Node7&#45;&gt;Node9 -->
<g id="edge16" class="edge"><title>Node7&#45;&gt;Node9</title>
<path fill="none" stroke="midnightblue" d="M1941.62,-64.3554C2085.16,-53.3574 2444.13,-25.8539 2582.45,-15.2564"/>
<polygon fill="midnightblue" stroke="midnightblue" points="1940.96,-60.8957 1931.26,-65.1495 1941.49,-67.8753 1940.96,-60.8957"/>
</g>
<!-- Node10&#45;&gt;Node7 -->
<g id="edge20" class="edge"><title>Node10&#45;&gt;Node7</title>
<path fill="none" stroke="midnightblue" d="M2353.25,-115.824C2193.17,-98.6951 2015.96,-81.7068 1931.19,-73.7032"/>
<polygon fill="midnightblue" stroke="midnightblue" points="2352.97,-119.313 2363.29,-116.9 2353.72,-112.353 2352.97,-119.313"/>
</g>
<!-- Node11 -->
<g id="node22" class="node"><title>Node11</title>
<a xlink:href="_advantages_widget_8cpp.html" target="_top" xlink:title="src/Widgets/AdvantagesWidget.cpp">
<polygon fill="white" stroke="black" points="2364,-58.5 2364,-79.5 2548,-79.5 2548,-58.5 2364,-58.5"/>
<text text-anchor="middle" x="2456" y="-66.5" font-family="DejaVuSans" font-size="10.00">src/Widgets/AdvantagesWidget.cpp</text>
</a>
</g>
<!-- Node10&#45;&gt;Node11 -->
<g id="edge22" class="edge"><title>Node10&#45;&gt;Node11</title>
<path fill="none" stroke="midnightblue" d="M2452.15,-106.191C2453.09,-97.1684 2454.14,-86.9941 2454.91,-79.5707"/>
<polygon fill="midnightblue" stroke="midnightblue" points="2448.65,-106.055 2451.1,-116.362 2455.61,-106.775 2448.65,-106.055"/>
</g>
<!-- Node13&#45;&gt;Node7 -->
<g id="edge32" class="edge"><title>Node13&#45;&gt;Node7</title>
<path fill="none" stroke="midnightblue" d="M557.751,-166.397C571.256,-149.781 593.503,-126.495 619,-116 675.895,-92.5803 1603.54,-74.0914 1830.96,-69.8959"/>
<polygon fill="midnightblue" stroke="midnightblue" points="554.915,-164.34 551.514,-174.374 560.43,-168.652 554.915,-164.34"/>
</g>
<!-- Node14 -->
<g id="node29" class="node"><title>Node14</title>
<a xlink:href="_read_xml_character_8cpp.html" target="_top" xlink:title="src/IO/ReadXmlCharacter.cpp">
<polygon fill="white" stroke="black" points="361.5,-116.5 361.5,-137.5 516.5,-137.5 516.5,-116.5 361.5,-116.5"/>
<text text-anchor="middle" x="439" y="-124.5" font-family="DejaVuSans" font-size="10.00">src/IO/ReadXmlCharacter.cpp</text>
</a>
</g>
<!-- Node13&#45;&gt;Node14 -->
<g id="edge30" class="edge"><title>Node13&#45;&gt;Node14</title>
<path fill="none" stroke="midnightblue" d="M515.971,-169.517C497.689,-159.419 474.308,-146.503 458.137,-137.571"/>
<polygon fill="midnightblue" stroke="midnightblue" points="514.296,-172.59 524.741,-174.362 517.68,-166.463 514.296,-172.59"/>
</g>
<!-- Node15&#45;&gt;Node7 -->
<g id="edge38" class="edge"><title>Node15&#45;&gt;Node7</title>
<path fill="none" stroke="midnightblue" d="M1947.24,-167.618C1962.22,-153.705 1977.48,-133.667 1967,-116 1956.5,-98.2922 1936.71,-86.8239 1918.76,-79.6527"/>
<polygon fill="midnightblue" stroke="midnightblue" points="1944.82,-165.085 1939.57,-174.29 1949.41,-170.366 1944.82,-165.085"/>
</g>
<!-- Node16 -->
<g id="node34" class="node"><title>Node16</title>
<a xlink:href="_write_xml_character_8cpp.html" target="_top" xlink:title="src/IO/WriteXmlCharacter.cpp">
<polygon fill="white" stroke="black" points="1803.5,-116.5 1803.5,-137.5 1958.5,-137.5 1958.5,-116.5 1803.5,-116.5"/>
<text text-anchor="middle" x="1881" y="-124.5" font-family="DejaVuSans" font-size="10.00">src/IO/WriteXmlCharacter.cpp</text>
</a>
</g>
<!-- Node15&#45;&gt;Node16 -->
<g id="edge36" class="edge"><title>Node15&#45;&gt;Node16</title>
<path fill="none" stroke="midnightblue" d="M1910.78,-166.25C1903.57,-156.75 1895.08,-145.565 1889.02,-137.571"/>
<polygon fill="midnightblue" stroke="midnightblue" points="1908.1,-168.51 1916.93,-174.362 1913.67,-164.28 1908.1,-168.51"/>
</g>
<!-- Node17&#45;&gt;Node7 -->
<g id="edge44" class="edge"><title>Node17&#45;&gt;Node7</title>
<path fill="none" stroke="midnightblue" d="M2720.99,-115.87C2415.57,-85.4873 2060.86,-73.7417 1931.42,-70.2344"/>
<polygon fill="midnightblue" stroke="midnightblue" points="2721.08,-119.396 2731.38,-116.912 2721.78,-112.431 2721.08,-119.396"/>
</g>
<!-- Node18 -->
<g id="node41" class="node"><title>Node18</title>
<a xlink:href="_info_widget_8cpp.html" target="_top" xlink:title="src/Widgets/InfoWidget.cpp">
<polygon fill="white" stroke="black" points="2866,-58.5 2866,-79.5 3010,-79.5 3010,-58.5 2866,-58.5"/>
<text text-anchor="middle" x="2938" y="-66.5" font-family="DejaVuSans" font-size="10.00">src/Widgets/InfoWidget.cpp</text>
</a>
</g>
<!-- Node17&#45;&gt;Node18 -->
<g id="edge46" class="edge"><title>Node17&#45;&gt;Node18</title>
<path fill="none" stroke="midnightblue" d="M2832.72,-112.615C2857.41,-102.389 2890.01,-88.8796 2912.36,-79.6212"/>
<polygon fill="midnightblue" stroke="midnightblue" points="2831.25,-109.436 2823.35,-116.497 2833.93,-115.903 2831.25,-109.436"/>
</g>
<!-- Node19&#45;&gt;Node17 -->
<g id="edge50" class="edge"><title>Node19&#45;&gt;Node17</title>
<path fill="none" stroke="midnightblue" d="M2673.18,-171.144C2702.36,-160.823 2741.61,-146.944 2768.25,-137.523"/>
<polygon fill="midnightblue" stroke="midnightblue" points="2671.96,-167.863 2663.7,-174.497 2674.29,-174.462 2671.96,-167.863"/>
</g>
<!-- Node19&#45;&gt;Node20 -->
<g id="edge52" class="edge"><title>Node19&#45;&gt;Node20</title>
<path fill="none" stroke="midnightblue" d="M2634,-164.191C2634,-155.168 2634,-144.994 2634,-137.571"/>
<polygon fill="midnightblue" stroke="midnightblue" points="2630.5,-164.362 2634,-174.362 2637.5,-164.362 2630.5,-164.362"/>
</g>
<!-- Node21&#45;&gt;Node7 -->
<g id="edge56" class="edge"><title>Node21&#45;&gt;Node7</title>
<path fill="none" stroke="midnightblue" d="M1764.36,-165.112C1770.68,-150.171 1780.99,-129.963 1795,-116 1811.39,-99.664 1834.64,-87.4203 1852.83,-79.5314"/>
<polygon fill="midnightblue" stroke="midnightblue" points="1761.09,-163.888 1760.63,-174.473 1767.59,-166.481 1761.09,-163.888"/>
</g>
<!-- Node21&#45;&gt;Node12 -->
<g id="edge58" class="edge"><title>Node21&#45;&gt;Node12</title>
<path fill="none" stroke="midnightblue" d="M1731.06,-168.821C1715.04,-158.831 1694.95,-146.299 1680.95,-137.571"/>
<polygon fill="midnightblue" stroke="midnightblue" points="1729.61,-172.04 1739.94,-174.362 1733.31,-166.1 1729.61,-172.04"/>
</g>
<!-- Node22&#45;&gt;Node7 -->
<g id="edge62" class="edge"><title>Node22&#45;&gt;Node7</title>
<path fill="none" stroke="midnightblue" d="M674.816,-170.574C643.995,-157.421 609.866,-136.905 630,-116 651.19,-93.9986 1600.45,-74.384 1830.96,-69.9397"/>
<polygon fill="midnightblue" stroke="midnightblue" points="673.63,-173.871 684.211,-174.412 676.277,-167.39 673.63,-173.871"/>
</g>
<!-- Node23 -->
<g id="node55" class="node"><title>Node23</title>
<a xlink:href="_skill_widget_8cpp.html" target="_top" xlink:title="src/Widgets/SkillWidget.cpp">
<polygon fill="white" stroke="black" points="648,-116.5 648,-137.5 794,-137.5 794,-116.5 648,-116.5"/>
<text text-anchor="middle" x="721" y="-124.5" font-family="DejaVuSans" font-size="10.00">src/Widgets/SkillWidget.cpp</text>
</a>
</g>
<!-- Node22&#45;&gt;Node23 -->
<g id="edge64" class="edge"><title>Node22&#45;&gt;Node23</title>
<path fill="none" stroke="midnightblue" d="M717.153,-164.191C718.086,-155.168 719.139,-144.994 719.906,-137.571"/>
<polygon fill="midnightblue" stroke="midnightblue" points="713.648,-164.055 716.1,-174.362 720.611,-164.775 713.648,-164.055"/>
</g>
<!-- Node24&#45;&gt;Node7 -->
<g id="edge68" class="edge"><title>Node24&#45;&gt;Node7</title>
<path fill="none" stroke="midnightblue" d="M789.84,-173.744C727.063,-164.108 648.755,-149.939 639,-138 632.814,-130.428 632.218,-123.043 639,-116 660.023,-94.1659 1601.42,-74.4437 1830.94,-69.954"/>
<polygon fill="midnightblue" stroke="midnightblue" points="789.357,-177.211 799.769,-175.251 790.407,-170.29 789.357,-177.211"/>
</g>
<!-- Node25 -->
<g id="node60" class="node"><title>Node25</title>
<a xlink:href="_merit_widget_8cpp.html" target="_top" xlink:title="src/Widgets/MeritWidget.cpp">
<polygon fill="white" stroke="black" points="811.5,-116.5 811.5,-137.5 962.5,-137.5 962.5,-116.5 811.5,-116.5"/>
<text text-anchor="middle" x="887" y="-124.5" font-family="DejaVuSans" font-size="10.00">src/Widgets/MeritWidget.cpp</text>
</a>
</g>
<!-- Node24&#45;&gt;Node25 -->
<g id="edge70" class="edge"><title>Node24&#45;&gt;Node25</title>
<path fill="none" stroke="midnightblue" d="M876.012,-164.488C878.678,-155.392 881.702,-145.076 883.902,-137.571"/>
<polygon fill="midnightblue" stroke="midnightblue" points="872.572,-163.781 873.118,-174.362 879.29,-165.75 872.572,-163.781"/>
</g>
<!-- Node26&#45;&gt;Node7 -->
<g id="edge74" class="edge"><title>Node26&#45;&gt;Node7</title>
<path fill="none" stroke="midnightblue" d="M3084.22,-165.035C3090.53,-149.605 3095.3,-128.786 3083,-116 3077.92,-110.723 2158.38,-78.5912 1931.27,-70.733"/>
<polygon fill="midnightblue" stroke="midnightblue" points="3080.98,-163.707 3080.02,-174.258 3087.35,-166.608 3080.98,-163.707"/>
</g>
<!-- Node26&#45;&gt;Node27 -->
<g id="edge76" class="edge"><title>Node26&#45;&gt;Node27</title>
<path fill="none" stroke="midnightblue" d="M3122.66,-171.812C3160.97,-161.428 3213.66,-147.149 3249.17,-137.523"/>
<polygon fill="midnightblue" stroke="midnightblue" points="3121.49,-168.503 3112.75,-174.497 3123.32,-175.259 3121.49,-168.503"/>
</g>
<!-- Node28&#45;&gt;Node7 -->
<g id="edge80" class="edge"><title>Node28&#45;&gt;Node7</title>
<path fill="none" stroke="midnightblue" d="M1356.17,-167.163C1341.88,-152.193 1327.32,-130.924 1341,-116 1373.75,-80.2761 1703.45,-71.6118 1831,-69.5901"/>
<polygon fill="midnightblue" stroke="midnightblue" points="1353.89,-169.826 1363.47,-174.35 1358.8,-164.839 1353.89,-169.826"/>
</g>
<!-- Node29 -->
<g id="node70" class="node"><title>Node29</title>
<a xlink:href="_power_widget_8cpp.html" target="_top" xlink:title="src/Widgets/PowerWidget.cpp">
<polygon fill="white" stroke="black" points="1139.5,-116.5 1139.5,-137.5 1294.5,-137.5 1294.5,-116.5 1139.5,-116.5"/>
<text text-anchor="middle" x="1217" y="-124.5" font-family="DejaVuSans" font-size="10.00">src/Widgets/PowerWidget.cpp</text>
</a>
</g>
<!-- Node28&#45;&gt;Node29 -->
<g id="edge82" class="edge"><title>Node28&#45;&gt;Node29</title>
<path fill="none" stroke="midnightblue" d="M1337.65,-171.009C1309.39,-160.702 1271.56,-146.903 1245.85,-137.523"/>
<polygon fill="midnightblue" stroke="midnightblue" points="1336.61,-174.358 1347.21,-174.497 1339.01,-167.782 1336.61,-174.358"/>
</g>
<!-- Node30&#45;&gt;Node7 -->
<g id="edge86" class="edge"><title>Node30&#45;&gt;Node7</title>
<path fill="none" stroke="midnightblue" d="M349.887,-164.789C344.461,-149.344 340.758,-128.625 353,-116 379.314,-88.8641 1569.48,-72.7974 1830.68,-69.5946"/>
<polygon fill="midnightblue" stroke="midnightblue" points="346.793,-166.479 353.744,-174.475 353.296,-163.89 346.793,-166.479"/>
</g>
<!-- Node31 -->
<g id="node75" class="node"><title>Node31</title>
<a xlink:href="_flaw_widget_8cpp.html" target="_top" xlink:title="src/Widgets/FlawWidget.cpp">
<polygon fill="white" stroke="black" points="159.5,-116.5 159.5,-137.5 306.5,-137.5 306.5,-116.5 159.5,-116.5"/>
<text text-anchor="middle" x="233" y="-124.5" font-family="DejaVuSans" font-size="10.00">src/Widgets/FlawWidget.cpp</text>
</a>
</g>
<!-- Node30&#45;&gt;Node31 -->
<g id="edge88" class="edge"><title>Node30&#45;&gt;Node31</title>
<path fill="none" stroke="midnightblue" d="M326.862,-170.206C304.757,-160.031 275.92,-146.757 256.074,-137.621"/>
<polygon fill="midnightblue" stroke="midnightblue" points="325.635,-173.494 336.182,-174.497 328.562,-167.136 325.635,-173.494"/>
</g>
<!-- Node32&#45;&gt;Node7 -->
<g id="edge94" class="edge"><title>Node32&#45;&gt;Node7</title>
<path fill="none" stroke="midnightblue" d="M1552.03,-164.03C1553.23,-148.467 1557.54,-127.952 1571,-116 1608.54,-82.652 1752.99,-72.9596 1830.75,-70.1469"/>
<polygon fill="midnightblue" stroke="midnightblue" points="1548.52,-164.16 1551.61,-174.294 1555.51,-164.444 1548.52,-164.16"/>
</g>
<!-- Node33 -->
<g id="node81" class="node"><title>Node33</title>
<a xlink:href="_chara_specialties_8cpp.html" target="_top" xlink:title="src/Widgets/CharaSpecialties.cpp">
<polygon fill="white" stroke="black" points="1349.5,-116.5 1349.5,-137.5 1524.5,-137.5 1524.5,-116.5 1349.5,-116.5"/>
<text text-anchor="middle" x="1437" y="-124.5" font-family="DejaVuSans" font-size="10.00">src/Widgets/CharaSpecialties.cpp</text>
</a>
</g>
<!-- Node32&#45;&gt;Node33 -->
<g id="edge96" class="edge"><title>Node32&#45;&gt;Node33</title>
<path fill="none" stroke="midnightblue" d="M1522.12,-169.932C1502.02,-159.793 1476.01,-146.675 1458.06,-137.621"/>
<polygon fill="midnightblue" stroke="midnightblue" points="1520.67,-173.118 1531.17,-174.497 1523.82,-166.868 1520.67,-173.118"/>
</g>
<!-- Node35&#45;&gt;Node12 -->
<g id="edge104" class="edge"><title>Node35&#45;&gt;Node12</title>
<path fill="none" stroke="midnightblue" d="M1296.68,-173.786C1399.37,-159.684 1506.8,-146.194 1579.3,-137.279"/>
<polygon fill="midnightblue" stroke="midnightblue" points="1296.19,-170.321 1286.76,-175.152 1297.14,-177.255 1296.19,-170.321"/>
</g>
<!-- Node35&#45;&gt;Node23 -->
<g id="edge112" class="edge"><title>Node35&#45;&gt;Node23</title>
<path fill="none" stroke="midnightblue" d="M1145.06,-173.792C992.771,-154.751 952.361,-155.83 803,-138 800.148,-137.659 797.24,-137.305 794.304,-136.941"/>
<polygon fill="midnightblue" stroke="midnightblue" points="1144.89,-177.299 1155.25,-175.076 1145.77,-170.354 1144.89,-177.299"/>
</g>
<!-- Node35&#45;&gt;Node25 -->
<g id="edge108" class="edge"><title>Node35&#45;&gt;Node25</title>
<path fill="none" stroke="midnightblue" d="M1150.34,-172.73C1090.18,-162.283 1004.68,-147.435 947.598,-137.523"/>
<polygon fill="midnightblue" stroke="midnightblue" points="1150.06,-176.234 1160.52,-174.497 1151.26,-169.337 1150.06,-176.234"/>
</g>
<!-- Node35&#45;&gt;Node29 -->
<g id="edge110" class="edge"><title>Node35&#45;&gt;Node29</title>
<path fill="none" stroke="midnightblue" d="M1219.56,-164.191C1218.94,-155.168 1218.24,-144.994 1217.73,-137.571"/>
<polygon fill="midnightblue" stroke="midnightblue" points="1216.09,-164.626 1220.27,-174.362 1223.07,-164.145 1216.09,-164.626"/>
</g>
<!-- Node36 -->
<g id="node89" class="node"><title>Node36</title>
<a xlink:href="_chara_trait_8cpp.html" target="_top" xlink:title="src/Widgets/CharaTrait.cpp">
<polygon fill="white" stroke="black" points="979.5,-116.5 979.5,-137.5 1122.5,-137.5 1122.5,-116.5 979.5,-116.5"/>
<text text-anchor="middle" x="1051" y="-124.5" font-family="DejaVuSans" font-size="10.00">src/Widgets/CharaTrait.cpp</text>
</a>
</g>
<!-- Node35&#45;&gt;Node36 -->
<g id="edge106" class="edge"><title>Node35&#45;&gt;Node36</title>
<path fill="none" stroke="midnightblue" d="M1180.39,-171.144C1150.14,-160.823 1109.46,-146.944 1081.84,-137.523"/>
<polygon fill="midnightblue" stroke="midnightblue" points="1179.62,-174.58 1190.21,-174.497 1181.88,-167.955 1179.62,-174.58"/>
</g>
<!-- Node37&#45;&gt;Node31 -->
<g id="edge120" class="edge"><title>Node37&#45;&gt;Node31</title>
<path fill="none" stroke="midnightblue" d="M215.93,-165.079C220.071,-155.842 224.824,-145.239 228.261,-137.571"/>
<polygon fill="midnightblue" stroke="midnightblue" points="212.666,-163.805 211.769,-174.362 219.053,-166.669 212.666,-163.805"/>
</g>
<!-- Node38 -->
<g id="node97" class="node"><title>Node38</title>
<a xlink:href="_check_trait_8cpp.html" target="_top" xlink:title="src/Widgets/CheckTrait.cpp">
<polygon fill="white" stroke="black" points="-0.5,-116.5 -0.5,-137.5 142.5,-137.5 142.5,-116.5 -0.5,-116.5"/>
<text text-anchor="middle" x="71" y="-124.5" font-family="DejaVuSans" font-size="10.00">src/Widgets/CheckTrait.cpp</text>
</a>
</g>
<!-- Node37&#45;&gt;Node38 -->
<g id="edge118" class="edge"><title>Node37&#45;&gt;Node38</title>
<path fill="none" stroke="midnightblue" d="M172.952,-170.479C149.011,-160.269 117.518,-146.839 95.9049,-137.621"/>
<polygon fill="midnightblue" stroke="midnightblue" points="171.8,-173.793 182.371,-174.497 174.546,-167.354 171.8,-173.793"/>
</g>
<!-- Node39&#45;&gt;Node18 -->
<g id="edge126" class="edge"><title>Node39&#45;&gt;Node18</title>
<path fill="none" stroke="midnightblue" d="M2986.54,-172.75C3028.25,-165.286 3070.4,-154.036 3083,-138 3107.97,-106.214 3058.14,-88.2991 3010.23,-78.7396"/>
<polygon fill="midnightblue" stroke="midnightblue" points="2985.8,-169.327 2976.54,-174.473 2986.98,-176.225 2985.8,-169.327"/>
</g>
<!-- Node40 -->
<g id="node102" class="node"><title>Node40</title>
<a xlink:href="_name_dialog_8cpp.html" target="_top" xlink:title="src/Widgets/Dialogs/NameDialog.cpp">
<polygon fill="white" stroke="black" points="2882,-116.5 2882,-137.5 3074,-137.5 3074,-116.5 2882,-116.5"/>
<text text-anchor="middle" x="2978" y="-124.5" font-family="DejaVuSans" font-size="10.00">src/Widgets/Dialogs/NameDialog.cpp</text>
</a>
</g>
<!-- Node39&#45;&gt;Node40 -->
<g id="edge124" class="edge"><title>Node39&#45;&gt;Node40</title>
<path fill="none" stroke="midnightblue" d="M2914.55,-168.821C2929.7,-158.831 2948.72,-146.299 2961.96,-137.571"/>
<polygon fill="midnightblue" stroke="midnightblue" points="2912.56,-165.936 2906.14,-174.362 2916.42,-171.781 2912.56,-165.936"/>
</g>
<!-- Node42&#45;&gt;Node27 -->
<g id="edge134" class="edge"><title>Node42&#45;&gt;Node27</title>
<path fill="none" stroke="midnightblue" d="M3514.28,-228.71C3491.36,-219.643 3461.31,-207.494 3435,-196 3390.05,-176.36 3338.29,-151.542 3309.75,-137.658"/>
<polygon fill="midnightblue" stroke="midnightblue" points="3513.05,-231.986 3523.64,-232.395 3515.62,-225.474 3513.05,-231.986"/>
</g>
<!-- Node43 -->
<g id="node109" class="node"><title>Node43</title>
<a xlink:href="_derangement_combo_box_8cpp.html" target="_top" xlink:title="src/Widgets/DerangementComboBox.cpp">
<polygon fill="white" stroke="black" points="3444,-174.5 3444,-195.5 3658,-195.5 3658,-174.5 3444,-174.5"/>
<text text-anchor="middle" x="3551" y="-182.5" font-family="DejaVuSans" font-size="10.00">src/Widgets/DerangementComboBox.cpp</text>
</a>
</g>
<!-- Node42&#45;&gt;Node43 -->
<g id="edge132" class="edge"><title>Node42&#45;&gt;Node43</title>
<path fill="none" stroke="midnightblue" d="M3551,-222.191C3551,-213.168 3551,-202.994 3551,-195.571"/>
<polygon fill="midnightblue" stroke="midnightblue" points="3547.5,-222.362 3551,-232.362 3554.5,-222.362 3547.5,-222.362"/>
</g>
</g>
</svg>
