<?xml version="1.0" encoding="UTF-8" standalone="no"?>
<!DOCTYPE svg PUBLIC "-//W3C//DTD SVG 1.1//EN"
 "http://www.w3.org/Graphics/SVG/1.1/DTD/svg11.dtd">
<!-- Generated by graphviz version 2.26.3 (20100126.1600)
 -->
<!-- Title: G Pages: 1 -->
<svg width="368pt" height="146pt"
 viewBox="0.00 0.00 368.00 146.00" xmlns="http://www.w3.org/2000/svg" xmlns:xlink="http://www.w3.org/1999/xlink">
<g id="graph1" class="graph" transform="scale(1 1) rotate(0) translate(4 142)">
<title>G</title>
<polygon fill="white" stroke="white" points="-4,5 -4,-142 365,-142 365,5 -4,5"/>
<!-- Node1 -->
<g id="node1" class="node"><title>Node1</title>
<polygon fill="#bfbfbf" stroke="black" points="73,-116.5 73,-137.5 265,-137.5 265,-116.5 73,-116.5"/>
<text text-anchor="middle" x="169" y="-124.5" font-family="DejaVuSans" font-size="10.00">src/Datatypes/cv_CreationPoints.cpp</text>
</g>
<!-- Node2 -->
<g id="node3" class="node"><title>Node2</title>
<polygon fill="white" stroke="#bfbfbf" points="-0.5,-58.5 -0.5,-79.5 88.5,-79.5 88.5,-58.5 -0.5,-58.5"/>
<text text-anchor="middle" x="44" y="-66.5" font-family="DejaVuSans" font-size="10.00">Config/Config.h</text>
</g>
<!-- Node1&#45;&gt;Node2 -->
<g id="edge2" class="edge"><title>Node1&#45;&gt;Node2</title>
<path fill="none" stroke="midnightblue" d="M146.363,-116.497C126.752,-107.397 98.1536,-94.1273 76.1667,-83.9253"/>
<polygon fill="midnightblue" stroke="midnightblue" points="77.4348,-80.6554 66.8906,-79.6212 74.4885,-87.0051 77.4348,-80.6554"/>
</g>
<!-- Node3 -->
<g id="node5" class="node"><title>Node3</title>
<polygon fill="white" stroke="#bfbfbf" points="105.5,-58.5 105.5,-79.5 232.5,-79.5 232.5,-58.5 105.5,-58.5"/>
<text text-anchor="middle" x="169" y="-66.5" font-family="DejaVuSans" font-size="10.00">Exceptions/Exception.h</text>
</g>
<!-- Node1&#45;&gt;Node3 -->
<g id="edge4" class="edge"><title>Node1&#45;&gt;Node3</title>
<path fill="none" stroke="midnightblue" d="M169,-116.362C169,-108.922 169,-98.7427 169,-89.7276"/>
<polygon fill="midnightblue" stroke="midnightblue" points="172.5,-89.5706 169,-79.5707 165.5,-89.5707 172.5,-89.5706"/>
</g>
<!-- Node4 -->
<g id="node7" class="node"><title>Node4</title>
<a xlink:href="cv___creation_points_8h.html" target="_top" xlink:title="cv_CreationPoints.h">
<polygon fill="white" stroke="black" points="249.5,-58.5 249.5,-79.5 360.5,-79.5 360.5,-58.5 249.5,-58.5"/>
<text text-anchor="middle" x="305" y="-66.5" font-family="DejaVuSans" font-size="10.00">cv_CreationPoints.h</text>
</a>
</g>
<!-- Node1&#45;&gt;Node4 -->
<g id="edge6" class="edge"><title>Node1&#45;&gt;Node4</title>
<path fill="none" stroke="midnightblue" d="M193.629,-116.497C215.157,-107.315 246.64,-93.8889 270.645,-83.6516"/>
<polygon fill="midnightblue" stroke="midnightblue" points="272.27,-86.7636 280.095,-79.6212 269.524,-80.3247 272.27,-86.7636"/>
</g>
<!-- Node5 -->
<g id="node9" class="node"><title>Node5</title>
<polygon fill="white" stroke="#bfbfbf" points="278.5,-0.5 278.5,-21.5 331.5,-21.5 331.5,-0.5 278.5,-0.5"/>
<text text-anchor="middle" x="305" y="-8.5" font-family="DejaVuSans" font-size="10.00">QString</text>
</g>
<!-- Node4&#45;&gt;Node5 -->
<g id="edge8" class="edge"><title>Node4&#45;&gt;Node5</title>
<path fill="none" stroke="midnightblue" d="M305,-58.3619C305,-50.9219 305,-40.7427 305,-31.7276"/>
<polygon fill="midnightblue" stroke="midnightblue" points="308.5,-31.5706 305,-21.5707 301.5,-31.5707 308.5,-31.5706"/>
</g>
</g>
</svg>
