<?xml version="1.0" encoding="UTF-8" standalone="no"?>
<!DOCTYPE svg PUBLIC "-//W3C//DTD SVG 1.1//EN"
 "http://www.w3.org/Graphics/SVG/1.1/DTD/svg11.dtd">
<!-- Generated by graphviz version 2.26.3 (20100126.1600)
 -->
<!-- Title: G Pages: 1 -->
<svg width="225pt" height="204pt"
 viewBox="0.00 0.00 225.00 204.00" xmlns="http://www.w3.org/2000/svg" xmlns:xlink="http://www.w3.org/1999/xlink">
<g id="graph1" class="graph" transform="scale(1 1) rotate(0) translate(4 200)">
<title>G</title>
<polygon fill="white" stroke="white" points="-4,5 -4,-200 222,-200 222,5 -4,5"/>
<!-- Node1 -->
<g id="node1" class="node"><title>Node1</title>
<polygon fill="#bfbfbf" stroke="black" points="0,-174.5 0,-195.5 178,-195.5 178,-174.5 0,-174.5"/>
<text text-anchor="middle" x="89" y="-182.5" font-family="DejaVuSans" font-size="10.00">src/Datatypes/cv_Derangement.h</text>
</g>
<!-- Node2 -->
<g id="node3" class="node"><title>Node2</title>
<polygon fill="white" stroke="#bfbfbf" points="82.5,-0.5 82.5,-21.5 135.5,-21.5 135.5,-0.5 82.5,-0.5"/>
<text text-anchor="middle" x="109" y="-8.5" font-family="DejaVuSans" font-size="10.00">QString</text>
</g>
<!-- Node1&#45;&gt;Node2 -->
<g id="edge2" class="edge"><title>Node1&#45;&gt;Node2</title>
<path fill="none" stroke="midnightblue" d="M82.4771,-174.406C69.6356,-152.106 43.7626,-99.003 61,-58 65.9641,-46.1918 75.5035,-35.8648 84.7787,-27.9215"/>
<polygon fill="midnightblue" stroke="midnightblue" points="87.1007,-30.5466 92.7401,-21.5773 82.7382,-25.0721 87.1007,-30.5466"/>
</g>
<!-- Node3 -->
<g id="node5" class="node"><title>Node3</title>
<a xlink:href="cv___species_8h.html" target="_top" xlink:title="cv_Species.h">
<polygon fill="white" stroke="black" points="69.5,-58.5 69.5,-79.5 148.5,-79.5 148.5,-58.5 69.5,-58.5"/>
<text text-anchor="middle" x="109" y="-66.5" font-family="DejaVuSans" font-size="10.00">cv_Species.h</text>
</a>
</g>
<!-- Node1&#45;&gt;Node3 -->
<g id="edge4" class="edge"><title>Node1&#45;&gt;Node3</title>
<path fill="none" stroke="midnightblue" d="M90.8457,-174.295C94.1498,-155.131 101.129,-114.654 105.406,-89.8434"/>
<polygon fill="midnightblue" stroke="midnightblue" points="108.909,-90.1285 107.159,-79.6792 102.01,-88.9391 108.909,-90.1285"/>
</g>
<!-- Node4 -->
<g id="node8" class="node"><title>Node4</title>
<a xlink:href="cv___abstract_trait_8h.html" target="_top" xlink:title="cv_AbstractTrait.h">
<polygon fill="white" stroke="black" points="116.5,-116.5 116.5,-137.5 217.5,-137.5 217.5,-116.5 116.5,-116.5"/>
<text text-anchor="middle" x="167" y="-124.5" font-family="DejaVuSans" font-size="10.00">cv_AbstractTrait.h</text>
</a>
</g>
<!-- Node1&#45;&gt;Node4 -->
<g id="edge8" class="edge"><title>Node1&#45;&gt;Node4</title>
<path fill="none" stroke="midnightblue" d="M103.306,-174.362C114.851,-165.777 131.3,-153.546 144.59,-143.664"/>
<polygon fill="midnightblue" stroke="midnightblue" points="146.848,-146.346 152.784,-137.571 142.671,-140.729 146.848,-146.346"/>
</g>
<!-- Node3&#45;&gt;Node2 -->
<g id="edge6" class="edge"><title>Node3&#45;&gt;Node2</title>
<path fill="none" stroke="midnightblue" d="M109,-58.3619C109,-50.9219 109,-40.7427 109,-31.7276"/>
<polygon fill="midnightblue" stroke="midnightblue" points="112.5,-31.5706 109,-21.5707 105.5,-31.5707 112.5,-31.5706"/>
</g>
<!-- Node4&#45;&gt;Node2 -->
<g id="edge10" class="edge"><title>Node4&#45;&gt;Node2</title>
<path fill="none" stroke="midnightblue" d="M167.515,-116.077C167.729,-101.906 166.537,-76.7785 157,-58 151.118,-46.4184 141.269,-36.0182 132.018,-27.9635"/>
<polygon fill="midnightblue" stroke="midnightblue" points="134.109,-25.152 124.157,-21.5182 129.671,-30.5652 134.109,-25.152"/>
</g>
<!-- Node4&#45;&gt;Node3 -->
<g id="edge12" class="edge"><title>Node4&#45;&gt;Node3</title>
<path fill="none" stroke="midnightblue" d="M156.362,-116.362C148.104,-108.104 136.472,-96.4725 126.803,-86.8029"/>
<polygon fill="midnightblue" stroke="midnightblue" points="129.117,-84.1669 119.571,-79.5707 124.167,-89.1166 129.117,-84.1669"/>
</g>
</g>
</svg>
