<?xml version="1.0" encoding="UTF-8" standalone="no"?>
<!DOCTYPE svg PUBLIC "-//W3C//DTD SVG 1.1//EN"
 "http://www.w3.org/Graphics/SVG/1.1/DTD/svg11.dtd">
<!-- Generated by graphviz version 2.26.3 (20100126.1600)
 -->
<!-- Title: G Pages: 1 -->
<svg width="410pt" height="146pt"
 viewBox="0.00 0.00 410.00 146.00" xmlns="http://www.w3.org/2000/svg" xmlns:xlink="http://www.w3.org/1999/xlink">
<g id="graph1" class="graph" transform="scale(1 1) rotate(0) translate(4 142)">
<title>G</title>
<polygon fill="white" stroke="white" points="-4,5 -4,-142 407,-142 407,5 -4,5"/>
<!-- Node1 -->
<g id="node1" class="node"><title>Node1</title>
<polygon fill="#bfbfbf" stroke="black" points="151.5,-116.5 151.5,-137.5 282.5,-137.5 282.5,-116.5 151.5,-116.5"/>
<text text-anchor="middle" x="217" y="-124.5" font-family="DejaVuSans" font-size="10.00">src/Datatypes/cv_Trait.h</text>
</g>
<!-- Node2 -->
<g id="node3" class="node"><title>Node2</title>
<a xlink:href="cv___trait_8cpp.html" target="_top" xlink:title="src/Datatypes/cv_Trait.cpp">
<polygon fill="white" stroke="black" points="0,-58.5 0,-79.5 142,-79.5 142,-58.5 0,-58.5"/>
<text text-anchor="middle" x="71" y="-66.5" font-family="DejaVuSans" font-size="10.00">src/Datatypes/cv_Trait.cpp</text>
</a>
</g>
<!-- Node1&#45;&gt;Node2 -->
<g id="edge2" class="edge"><title>Node1&#45;&gt;Node2</title>
<path fill="none" stroke="midnightblue" d="M181.132,-112.751C155.349,-102.509 121.145,-88.9206 97.7362,-79.6212"/>
<polygon fill="midnightblue" stroke="midnightblue" points="179.975,-116.057 190.561,-116.497 182.559,-109.552 179.975,-116.057"/>
</g>
<!-- Node3 -->
<g id="node5" class="node"><title>Node3</title>
<a xlink:href="_trait_8h.html" target="_top" xlink:title="src/Datatypes/Trait.h">
<polygon fill="white" stroke="black" points="159.5,-58.5 159.5,-79.5 274.5,-79.5 274.5,-58.5 159.5,-58.5"/>
<text text-anchor="middle" x="217" y="-66.5" font-family="DejaVuSans" font-size="10.00">src/Datatypes/Trait.h</text>
</a>
</g>
<!-- Node1&#45;&gt;Node3 -->
<g id="edge4" class="edge"><title>Node1&#45;&gt;Node3</title>
<path fill="none" stroke="midnightblue" d="M217,-106.191C217,-97.1684 217,-86.9941 217,-79.5707"/>
<polygon fill="midnightblue" stroke="midnightblue" points="213.5,-106.362 217,-116.362 220.5,-106.362 213.5,-106.362"/>
</g>
<!-- Node5 -->
<g id="node9" class="node"><title>Node5</title>
<a xlink:href="_main_window_8cpp.html" target="_top" xlink:title="src/MainWindow.cpp">
<polygon fill="white" stroke="black" points="291.5,-58.5 291.5,-79.5 402.5,-79.5 402.5,-58.5 291.5,-58.5"/>
<text text-anchor="middle" x="347" y="-66.5" font-family="DejaVuSans" font-size="10.00">src/MainWindow.cpp</text>
</a>
</g>
<!-- Node1&#45;&gt;Node5 -->
<g id="edge8" class="edge"><title>Node1&#45;&gt;Node5</title>
<path fill="none" stroke="midnightblue" d="M249.852,-112.343C272.698,-102.15 302.626,-88.7977 323.194,-79.6212"/>
<polygon fill="midnightblue" stroke="midnightblue" points="248.248,-109.226 240.542,-116.497 251.1,-115.618 248.248,-109.226"/>
</g>
<!-- Node4 -->
<g id="node7" class="node"><title>Node4</title>
<a xlink:href="_trait_8cpp.html" target="_top" xlink:title="src/Datatypes/Trait.cpp">
<polygon fill="white" stroke="black" points="154,-0.5 154,-21.5 280,-21.5 280,-0.5 154,-0.5"/>
<text text-anchor="middle" x="217" y="-8.5" font-family="DejaVuSans" font-size="10.00">src/Datatypes/Trait.cpp</text>
</a>
</g>
<!-- Node3&#45;&gt;Node4 -->
<g id="edge6" class="edge"><title>Node3&#45;&gt;Node4</title>
<path fill="none" stroke="midnightblue" d="M217,-48.1906C217,-39.1684 217,-28.9941 217,-21.5707"/>
<polygon fill="midnightblue" stroke="midnightblue" points="213.5,-48.3619 217,-58.3619 220.5,-48.3619 213.5,-48.3619"/>
</g>
</g>
</svg>
