<?xml version="1.0" encoding="UTF-8" standalone="no"?>
<!DOCTYPE svg PUBLIC "-//W3C//DTD SVG 1.1//EN"
 "http://www.w3.org/Graphics/SVG/1.1/DTD/svg11.dtd">
<!-- Generated by graphviz version 2.26.3 (20100126.1600)
 -->
<!-- Title: G Pages: 1 -->
<svg width="288pt" height="146pt"
 viewBox="0.00 0.00 288.00 146.00" xmlns="http://www.w3.org/2000/svg" xmlns:xlink="http://www.w3.org/1999/xlink">
<g id="graph1" class="graph" transform="scale(1 1) rotate(0) translate(4 142)">
<title>G</title>
<polygon fill="white" stroke="white" points="-4,5 -4,-142 285,-142 285,5 -4,5"/>
<!-- Node1 -->
<g id="node1" class="node"><title>Node1</title>
<polygon fill="#bfbfbf" stroke="black" points="78.5,-116.5 78.5,-137.5 209.5,-137.5 209.5,-116.5 78.5,-116.5"/>
<text text-anchor="middle" x="144" y="-124.5" font-family="DejaVuSans" font-size="10.00">src/Datatypes/cv_Trait.h</text>
</g>
<!-- Node2 -->
<g id="node3" class="node"><title>Node2</title>
<a xlink:href="cv___trait_8cpp.html" target="_top" xlink:title="src/Datatypes/cv_Trait.cpp">
<polygon fill="white" stroke="black" points="0,-58.5 0,-79.5 142,-79.5 142,-58.5 0,-58.5"/>
<text text-anchor="middle" x="71" y="-66.5" font-family="DejaVuSans" font-size="10.00">src/Datatypes/cv_Trait.cpp</text>
</a>
</g>
<!-- Node1&#45;&gt;Node2 -->
<g id="edge2" class="edge"><title>Node1&#45;&gt;Node2</title>
<path fill="none" stroke="midnightblue" d="M122.572,-109.975C110.183,-100.132 94.9824,-88.0545 84.3044,-79.5707"/>
<polygon fill="midnightblue" stroke="midnightblue" points="120.604,-112.881 130.611,-116.362 124.958,-107.401 120.604,-112.881"/>
</g>
<!-- Node3 -->
<g id="node5" class="node"><title>Node3</title>
<a xlink:href="_trait_8h.html" target="_top" xlink:title="src/Datatypes/Trait.h">
<polygon fill="white" stroke="black" points="159.5,-58.5 159.5,-79.5 274.5,-79.5 274.5,-58.5 159.5,-58.5"/>
<text text-anchor="middle" x="217" y="-66.5" font-family="DejaVuSans" font-size="10.00">src/Datatypes/Trait.h</text>
</a>
</g>
<!-- Node1&#45;&gt;Node3 -->
<g id="edge4" class="edge"><title>Node1&#45;&gt;Node3</title>
<path fill="none" stroke="midnightblue" d="M165.428,-109.975C177.817,-100.132 193.018,-88.0545 203.696,-79.5707"/>
<polygon fill="midnightblue" stroke="midnightblue" points="163.042,-107.401 157.389,-116.362 167.396,-112.881 163.042,-107.401"/>
</g>
<!-- Node4 -->
<g id="node7" class="node"><title>Node4</title>
<a xlink:href="_trait_8cpp.html" target="_top" xlink:title="src/Datatypes/Trait.cpp">
<polygon fill="white" stroke="black" points="154,-0.5 154,-21.5 280,-21.5 280,-0.5 154,-0.5"/>
<text text-anchor="middle" x="217" y="-8.5" font-family="DejaVuSans" font-size="10.00">src/Datatypes/Trait.cpp</text>
</a>
</g>
<!-- Node3&#45;&gt;Node4 -->
<g id="edge6" class="edge"><title>Node3&#45;&gt;Node4</title>
<path fill="none" stroke="midnightblue" d="M217,-48.1906C217,-39.1684 217,-28.9941 217,-21.5707"/>
<polygon fill="midnightblue" stroke="midnightblue" points="213.5,-48.3619 217,-58.3619 220.5,-48.3619 213.5,-48.3619"/>
</g>
</g>
</svg>
