<?xml version="1.0" encoding="UTF-8" standalone="no"?>
<!DOCTYPE svg PUBLIC "-//W3C//DTD SVG 1.1//EN"
 "http://www.w3.org/Graphics/SVG/1.1/DTD/svg11.dtd">
<!-- Generated by graphviz version 2.26.3 (20100126.1600)
 -->
<!-- Title: G Pages: 1 -->
<svg width="178pt" height="146pt"
 viewBox="0.00 0.00 178.00 146.00" xmlns="http://www.w3.org/2000/svg" xmlns:xlink="http://www.w3.org/1999/xlink">
<g id="graph1" class="graph" transform="scale(1 1) rotate(0) translate(4 142)">
<title>G</title>
<polygon fill="white" stroke="white" points="-4,5 -4,-142 175,-142 175,5 -4,5"/>
<!-- Node1 -->
<g id="node1" class="node"><title>Node1</title>
<polygon fill="#bfbfbf" stroke="black" points="-0.5,-116.5 -0.5,-137.5 170.5,-137.5 170.5,-116.5 -0.5,-116.5"/>
<text text-anchor="middle" x="85" y="-124.5" font-family="DejaVuSans" font-size="10.00">src/Datatypes/cv_AbstractTrait.h</text>
</g>
<!-- Node2 -->
<g id="node3" class="node"><title>Node2</title>
<polygon fill="white" stroke="#bfbfbf" points="26.5,-58.5 26.5,-79.5 67.5,-79.5 67.5,-58.5 26.5,-58.5"/>
<text text-anchor="middle" x="47" y="-66.5" font-family="DejaVuSans" font-size="10.00">QList</text>
</g>
<!-- Node1&#45;&gt;Node2 -->
<g id="edge2" class="edge"><title>Node1&#45;&gt;Node2</title>
<path fill="none" stroke="midnightblue" d="M78.0302,-116.362C72.8343,-108.431 65.5994,-97.3885 59.4225,-87.9606"/>
<polygon fill="midnightblue" stroke="midnightblue" points="62.3335,-86.0172 53.9256,-79.5707 56.4783,-89.8534 62.3335,-86.0172"/>
</g>
<!-- Node3 -->
<g id="node5" class="node"><title>Node3</title>
<a xlink:href="cv___species_8h.html" target="_top" xlink:title="cv_Species.h">
<polygon fill="white" stroke="black" points="84.5,-58.5 84.5,-79.5 163.5,-79.5 163.5,-58.5 84.5,-58.5"/>
<text text-anchor="middle" x="124" y="-66.5" font-family="DejaVuSans" font-size="10.00">cv_Species.h</text>
</a>
</g>
<!-- Node1&#45;&gt;Node3 -->
<g id="edge4" class="edge"><title>Node1&#45;&gt;Node3</title>
<path fill="none" stroke="midnightblue" d="M92.1532,-116.362C97.4858,-108.431 104.911,-97.3885 111.251,-87.9606"/>
<polygon fill="midnightblue" stroke="midnightblue" points="114.217,-89.8221 116.892,-79.5707 108.408,-85.9161 114.217,-89.8221"/>
</g>
<!-- Node4 -->
<g id="node7" class="node"><title>Node4</title>
<polygon fill="white" stroke="#bfbfbf" points="97.5,-0.5 97.5,-21.5 150.5,-21.5 150.5,-0.5 97.5,-0.5"/>
<text text-anchor="middle" x="124" y="-8.5" font-family="DejaVuSans" font-size="10.00">QString</text>
</g>
<!-- Node3&#45;&gt;Node4 -->
<g id="edge6" class="edge"><title>Node3&#45;&gt;Node4</title>
<path fill="none" stroke="midnightblue" d="M124,-58.3619C124,-50.9219 124,-40.7427 124,-31.7276"/>
<polygon fill="midnightblue" stroke="midnightblue" points="127.5,-31.5706 124,-21.5707 120.5,-31.5707 127.5,-31.5706"/>
</g>
</g>
</svg>
