<?xml version="1.0" encoding="UTF-8" standalone="no"?>
<!DOCTYPE svg PUBLIC "-//W3C//DTD SVG 1.1//EN"
 "http://www.w3.org/Graphics/SVG/1.1/DTD/svg11.dtd">
<!-- Generated by graphviz version 2.26.3 (20100126.1600)
 -->
<!-- Title: G Pages: 1 -->
<svg width="224pt" height="146pt"
 viewBox="0.00 0.00 224.00 146.00" xmlns="http://www.w3.org/2000/svg" xmlns:xlink="http://www.w3.org/1999/xlink">
<g id="graph1" class="graph" transform="scale(1 1) rotate(0) translate(4 142)">
<title>G</title>
<polygon fill="white" stroke="white" points="-4,5 -4,-142 221,-142 221,5 -4,5"/>
<!-- Node1 -->
<g id="node1" class="node"><title>Node1</title>
<polygon fill="#bfbfbf" stroke="black" points="44.5,-116.5 44.5,-137.5 197.5,-137.5 197.5,-116.5 44.5,-116.5"/>
<text text-anchor="middle" x="121" y="-124.5" font-family="DejaVuSans" font-size="10.00">src/Datatypes/cv_Shape.cpp</text>
</g>
<!-- Node2 -->
<g id="node3" class="node"><title>Node2</title>
<polygon fill="white" stroke="#bfbfbf" points="-0.5,-58.5 -0.5,-79.5 126.5,-79.5 126.5,-58.5 -0.5,-58.5"/>
<text text-anchor="middle" x="63" y="-66.5" font-family="DejaVuSans" font-size="10.00">Exceptions/Exception.h</text>
</g>
<!-- Node1&#45;&gt;Node2 -->
<g id="edge2" class="edge"><title>Node1&#45;&gt;Node2</title>
<path fill="none" stroke="midnightblue" d="M110.362,-116.362C102.104,-108.104 90.4725,-96.4725 80.8029,-86.8029"/>
<polygon fill="midnightblue" stroke="midnightblue" points="83.1166,-84.1669 73.5707,-79.5707 78.1669,-89.1166 83.1166,-84.1669"/>
</g>
<!-- Node3 -->
<g id="node5" class="node"><title>Node3</title>
<a xlink:href="cv___shape_8h.html" target="_top" xlink:title="cv_Shape.h">
<polygon fill="white" stroke="black" points="144,-58.5 144,-79.5 216,-79.5 216,-58.5 144,-58.5"/>
<text text-anchor="middle" x="180" y="-66.5" font-family="DejaVuSans" font-size="10.00">cv_Shape.h</text>
</a>
</g>
<!-- Node1&#45;&gt;Node3 -->
<g id="edge4" class="edge"><title>Node1&#45;&gt;Node3</title>
<path fill="none" stroke="midnightblue" d="M131.822,-116.362C140.221,-108.104 152.054,-96.4725 161.89,-86.8029"/>
<polygon fill="midnightblue" stroke="midnightblue" points="164.569,-89.077 169.247,-79.5707 159.662,-84.0851 164.569,-89.077"/>
</g>
<!-- Node4 -->
<g id="node7" class="node"><title>Node4</title>
<polygon fill="white" stroke="#bfbfbf" points="153.5,-0.5 153.5,-21.5 206.5,-21.5 206.5,-0.5 153.5,-0.5"/>
<text text-anchor="middle" x="180" y="-8.5" font-family="DejaVuSans" font-size="10.00">QString</text>
</g>
<!-- Node3&#45;&gt;Node4 -->
<g id="edge6" class="edge"><title>Node3&#45;&gt;Node4</title>
<path fill="none" stroke="midnightblue" d="M180,-58.3619C180,-50.9219 180,-40.7427 180,-31.7276"/>
<polygon fill="midnightblue" stroke="midnightblue" points="183.5,-31.5706 180,-21.5707 176.5,-31.5707 183.5,-31.5706"/>
</g>
</g>
</svg>
