<?xml version="1.0" encoding="UTF-8" standalone="no"?>
<!DOCTYPE svg PUBLIC "-//W3C//DTD SVG 1.1//EN"
 "http://www.w3.org/Graphics/SVG/1.1/DTD/svg11.dtd">
<!-- Generated by graphviz version 2.26.3 (20100126.1600)
 -->
<!-- Title: G Pages: 1 -->
<svg width="1301pt" height="262pt"
 viewBox="0.00 0.00 1301.00 262.00" xmlns="http://www.w3.org/2000/svg" xmlns:xlink="http://www.w3.org/1999/xlink">
<g id="graph1" class="graph" transform="scale(1 1) rotate(0) translate(4 258)">
<title>G</title>
<polygon fill="white" stroke="white" points="-4,5 -4,-258 1298,-258 1298,5 -4,5"/>
<!-- Node1 -->
<g id="node1" class="node"><title>Node1</title>
<polygon fill="#bfbfbf" stroke="black" points="523.5,-232.5 523.5,-253.5 672.5,-253.5 672.5,-232.5 523.5,-232.5"/>
<text text-anchor="middle" x="598" y="-240.5" font-family="DejaVuSans" font-size="10.00">src/Datatypes/cv_Species.h</text>
</g>
<!-- Node2 -->
<g id="node3" class="node"><title>Node2</title>
<a xlink:href="cv___abstract_trait_8h.html" target="_top" xlink:title="src/Datatypes/cv_AbstractTrait.h">
<polygon fill="white" stroke="black" points="236.5,-174.5 236.5,-195.5 407.5,-195.5 407.5,-174.5 236.5,-174.5"/>
<text text-anchor="middle" x="322" y="-182.5" font-family="DejaVuSans" font-size="10.00">src/Datatypes/cv_AbstractTrait.h</text>
</a>
</g>
<!-- Node1&#45;&gt;Node2 -->
<g id="edge2" class="edge"><title>Node1&#45;&gt;Node2</title>
<path fill="none" stroke="midnightblue" d="M538.063,-230.404C488.442,-219.977 418.757,-205.333 372.075,-195.523"/>
<polygon fill="midnightblue" stroke="midnightblue" points="537.512,-233.865 548.018,-232.497 538.952,-227.015 537.512,-233.865"/>
</g>
<!-- Node4 -->
<g id="node7" class="node"><title>Node4</title>
<a xlink:href="cv___derangement_8h.html" target="_top" xlink:title="src/Datatypes/cv_Derangement.h">
<polygon fill="white" stroke="black" points="5,-116.5 5,-137.5 183,-137.5 183,-116.5 5,-116.5"/>
<text text-anchor="middle" x="94" y="-124.5" font-family="DejaVuSans" font-size="10.00">src/Datatypes/cv_Derangement.h</text>
</a>
</g>
<!-- Node1&#45;&gt;Node4 -->
<g id="edge20" class="edge"><title>Node1&#45;&gt;Node4</title>
<path fill="none" stroke="midnightblue" d="M513.242,-235.68C420.933,-227.099 279.561,-212.002 228,-196 182.766,-181.961 134.51,-153.282 110.118,-137.682"/>
<polygon fill="midnightblue" stroke="midnightblue" points="513.13,-239.185 523.409,-236.618 513.772,-232.214 513.13,-239.185"/>
</g>
<!-- Node6 -->
<g id="node11" class="node"><title>Node6</title>
<a xlink:href="cv___trait_8h.html" target="_top" xlink:title="src/Datatypes/cv_Trait.h">
<polygon fill="white" stroke="black" points="400.5,-116.5 400.5,-137.5 531.5,-137.5 531.5,-116.5 400.5,-116.5"/>
<text text-anchor="middle" x="466" y="-124.5" font-family="DejaVuSans" font-size="10.00">src/Datatypes/cv_Trait.h</text>
</a>
</g>
<!-- Node1&#45;&gt;Node6 -->
<g id="edge32" class="edge"><title>Node1&#45;&gt;Node6</title>
<path fill="none" stroke="midnightblue" d="M572.619,-226.975C559.694,-218.379 544.006,-207.258 531,-196 509.349,-177.259 487.101,-152.118 475.07,-137.934"/>
<polygon fill="midnightblue" stroke="midnightblue" points="570.774,-229.95 581.059,-232.493 574.605,-224.091 570.774,-229.95"/>
</g>
<!-- Node8 -->
<g id="node15" class="node"><title>Node8</title>
<a xlink:href="_trait_8h.html" target="_top" xlink:title="src/Datatypes/Trait.h">
<polygon fill="white" stroke="black" points="538.5,-58.5 538.5,-79.5 653.5,-79.5 653.5,-58.5 538.5,-58.5"/>
<text text-anchor="middle" x="596" y="-66.5" font-family="DejaVuSans" font-size="10.00">src/Datatypes/Trait.h</text>
</a>
</g>
<!-- Node1&#45;&gt;Node8 -->
<g id="edge42" class="edge"><title>Node1&#45;&gt;Node8</title>
<path fill="none" stroke="midnightblue" d="M580.472,-224.493C573.969,-216.396 567.362,-206.382 564,-196 550.272,-153.601 576.323,-101.68 589.288,-79.6717"/>
<polygon fill="midnightblue" stroke="midnightblue" points="577.899,-226.869 587.071,-232.173 583.208,-222.307 577.899,-226.869"/>
</g>
<!-- Node11 -->
<g id="node22" class="node"><title>Node11</title>
<a xlink:href="cv___species_8cpp.html" target="_top" xlink:title="src/Datatypes/cv_Species.cpp">
<polygon fill="white" stroke="black" points="749,-174.5 749,-195.5 909,-195.5 909,-174.5 749,-174.5"/>
<text text-anchor="middle" x="829" y="-182.5" font-family="DejaVuSans" font-size="10.00">src/Datatypes/cv_Species.cpp</text>
</a>
</g>
<!-- Node1&#45;&gt;Node11 -->
<g id="edge22" class="edge"><title>Node1&#45;&gt;Node11</title>
<path fill="none" stroke="midnightblue" d="M649.733,-230.011C691.153,-219.611 748.508,-205.21 787.089,-195.523"/>
<polygon fill="midnightblue" stroke="midnightblue" points="648.679,-226.667 639.832,-232.497 650.384,-233.456 648.679,-226.667"/>
</g>
<!-- Node12 -->
<g id="node24" class="node"><title>Node12</title>
<a xlink:href="cv___species_title_8h.html" target="_top" xlink:title="src/Datatypes/cv_SpeciesTitle.h">
<polygon fill="white" stroke="black" points="927,-174.5 927,-195.5 1095,-195.5 1095,-174.5 927,-174.5"/>
<text text-anchor="middle" x="1011" y="-182.5" font-family="DejaVuSans" font-size="10.00">src/Datatypes/cv_SpeciesTitle.h</text>
</a>
</g>
<!-- Node1&#45;&gt;Node12 -->
<g id="edge24" class="edge"><title>Node1&#45;&gt;Node12</title>
<path fill="none" stroke="midnightblue" d="M683.078,-231.052C757.57,-220.591 864.756,-205.538 936.069,-195.523"/>
<polygon fill="midnightblue" stroke="midnightblue" points="682.207,-227.64 672.791,-232.497 683.181,-234.572 682.207,-227.64"/>
</g>
<!-- Node14 -->
<g id="node28" class="node"><title>Node14</title>
<a xlink:href="cv___super_effect_8h.html" target="_top" xlink:title="src/Datatypes/cv_SuperEffect.h">
<polygon fill="white" stroke="black" points="1117.5,-174.5 1117.5,-195.5 1284.5,-195.5 1284.5,-174.5 1117.5,-174.5"/>
<text text-anchor="middle" x="1201" y="-182.5" font-family="DejaVuSans" font-size="10.00">src/Datatypes/cv_SuperEffect.h</text>
</a>
</g>
<!-- Node1&#45;&gt;Node14 -->
<g id="edge28" class="edge"><title>Node1&#45;&gt;Node14</title>
<path fill="none" stroke="midnightblue" d="M682.735,-235.659C783.276,-226.825 955.944,-211.269 1104,-196 1108.38,-195.548 1112.88,-195.074 1117.41,-194.588"/>
<polygon fill="midnightblue" stroke="midnightblue" points="682.292,-232.184 672.636,-236.545 682.904,-239.157 682.292,-232.184"/>
</g>
<!-- Node16 -->
<g id="node33" class="node"><title>Node16</title>
<a xlink:href="cv___trait_detail_8h.html" target="_top" xlink:title="src/Datatypes/cv_TraitDetail.h">
<polygon fill="white" stroke="black" points="573,-174.5 573,-195.5 731,-195.5 731,-174.5 573,-174.5"/>
<text text-anchor="middle" x="652" y="-182.5" font-family="DejaVuSans" font-size="10.00">src/Datatypes/cv_TraitDetail.h</text>
</a>
</g>
<!-- Node1&#45;&gt;Node16 -->
<g id="edge34" class="edge"><title>Node1&#45;&gt;Node16</title>
<path fill="none" stroke="midnightblue" d="M614.917,-224.83C623.875,-215.208 634.563,-203.728 642.158,-195.571"/>
<polygon fill="midnightblue" stroke="midnightblue" points="612.157,-222.658 607.904,-232.362 617.28,-227.428 612.157,-222.658"/>
</g>
<!-- Node3 -->
<g id="node5" class="node"><title>Node3</title>
<a xlink:href="cv___abstract_trait_8cpp.html" target="_top" xlink:title="src/Datatypes/cv_AbstractTrait.cpp">
<polygon fill="white" stroke="black" points="201,-116.5 201,-137.5 383,-137.5 383,-116.5 201,-116.5"/>
<text text-anchor="middle" x="292" y="-124.5" font-family="DejaVuSans" font-size="10.00">src/Datatypes/cv_AbstractTrait.cpp</text>
</a>
</g>
<!-- Node2&#45;&gt;Node3 -->
<g id="edge4" class="edge"><title>Node2&#45;&gt;Node3</title>
<path fill="none" stroke="midnightblue" d="M311.848,-165.373C307.035,-156.068 301.476,-145.32 297.468,-137.571"/>
<polygon fill="midnightblue" stroke="midnightblue" points="308.794,-167.088 316.498,-174.362 315.012,-163.872 308.794,-167.088"/>
</g>
<!-- Node2&#45;&gt;Node4 -->
<g id="edge6" class="edge"><title>Node2&#45;&gt;Node4</title>
<path fill="none" stroke="midnightblue" d="M270.939,-172.011C230.057,-161.611 173.447,-147.21 135.367,-137.523"/>
<polygon fill="midnightblue" stroke="midnightblue" points="270.157,-175.423 280.711,-174.497 271.882,-168.639 270.157,-175.423"/>
</g>
<!-- Node2&#45;&gt;Node6 -->
<g id="edge10" class="edge"><title>Node2&#45;&gt;Node6</title>
<path fill="none" stroke="midnightblue" d="M357.377,-170.751C382.806,-160.509 416.542,-146.921 439.63,-137.621"/>
<polygon fill="midnightblue" stroke="midnightblue" points="356.046,-167.514 348.077,-174.497 358.661,-174.007 356.046,-167.514"/>
</g>
<!-- Node5 -->
<g id="node9" class="node"><title>Node5</title>
<a xlink:href="cv___derangement_8cpp.html" target="_top" xlink:title="src/Datatypes/cv_Derangement.cpp">
<polygon fill="white" stroke="black" points="-0.5,-58.5 -0.5,-79.5 188.5,-79.5 188.5,-58.5 -0.5,-58.5"/>
<text text-anchor="middle" x="94" y="-66.5" font-family="DejaVuSans" font-size="10.00">src/Datatypes/cv_Derangement.cpp</text>
</a>
</g>
<!-- Node4&#45;&gt;Node5 -->
<g id="edge8" class="edge"><title>Node4&#45;&gt;Node5</title>
<path fill="none" stroke="midnightblue" d="M94,-106.191C94,-97.1684 94,-86.9941 94,-79.5707"/>
<polygon fill="midnightblue" stroke="midnightblue" points="90.5001,-106.362 94,-116.362 97.5001,-106.362 90.5001,-106.362"/>
</g>
<!-- Node7 -->
<g id="node13" class="node"><title>Node7</title>
<a xlink:href="cv___trait_8cpp.html" target="_top" xlink:title="src/Datatypes/cv_Trait.cpp">
<polygon fill="white" stroke="black" points="251,-58.5 251,-79.5 393,-79.5 393,-58.5 251,-58.5"/>
<text text-anchor="middle" x="322" y="-66.5" font-family="DejaVuSans" font-size="10.00">src/Datatypes/cv_Trait.cpp</text>
</a>
</g>
<!-- Node6&#45;&gt;Node7 -->
<g id="edge12" class="edge"><title>Node6&#45;&gt;Node7</title>
<path fill="none" stroke="midnightblue" d="M430.623,-112.751C405.194,-102.509 371.458,-88.9206 348.37,-79.6212"/>
<polygon fill="midnightblue" stroke="midnightblue" points="429.339,-116.007 439.923,-116.497 431.954,-109.514 429.339,-116.007"/>
</g>
<!-- Node6&#45;&gt;Node8 -->
<g id="edge14" class="edge"><title>Node6&#45;&gt;Node8</title>
<path fill="none" stroke="midnightblue" d="M498.852,-112.343C521.698,-102.15 551.626,-88.7977 572.194,-79.6212"/>
<polygon fill="midnightblue" stroke="midnightblue" points="497.248,-109.226 489.542,-116.497 500.1,-115.618 497.248,-109.226"/>
</g>
<!-- Node10 -->
<g id="node19" class="node"><title>Node10</title>
<a xlink:href="_main_window_8cpp.html" target="_top" xlink:title="src/MainWindow.cpp">
<polygon fill="white" stroke="black" points="410.5,-58.5 410.5,-79.5 521.5,-79.5 521.5,-58.5 410.5,-58.5"/>
<text text-anchor="middle" x="466" y="-66.5" font-family="DejaVuSans" font-size="10.00">src/MainWindow.cpp</text>
</a>
</g>
<!-- Node6&#45;&gt;Node10 -->
<g id="edge18" class="edge"><title>Node6&#45;&gt;Node10</title>
<path fill="none" stroke="midnightblue" d="M466,-106.191C466,-97.1684 466,-86.9941 466,-79.5707"/>
<polygon fill="midnightblue" stroke="midnightblue" points="462.5,-106.362 466,-116.362 469.5,-106.362 462.5,-106.362"/>
</g>
<!-- Node9 -->
<g id="node17" class="node"><title>Node9</title>
<a xlink:href="_trait_8cpp.html" target="_top" xlink:title="src/Datatypes/Trait.cpp">
<polygon fill="white" stroke="black" points="533,-0.5 533,-21.5 659,-21.5 659,-0.5 533,-0.5"/>
<text text-anchor="middle" x="596" y="-8.5" font-family="DejaVuSans" font-size="10.00">src/Datatypes/Trait.cpp</text>
</a>
</g>
<!-- Node8&#45;&gt;Node9 -->
<g id="edge16" class="edge"><title>Node8&#45;&gt;Node9</title>
<path fill="none" stroke="midnightblue" d="M596,-48.1906C596,-39.1684 596,-28.9941 596,-21.5707"/>
<polygon fill="midnightblue" stroke="midnightblue" points="592.5,-48.3619 596,-58.3619 599.5,-48.3619 592.5,-48.3619"/>
</g>
<!-- Node13 -->
<g id="node26" class="node"><title>Node13</title>
<a xlink:href="cv___species_title_8cpp.html" target="_top" xlink:title="src/Datatypes/cv_SpeciesTitle.cpp">
<polygon fill="white" stroke="black" points="918.5,-116.5 918.5,-137.5 1097.5,-137.5 1097.5,-116.5 918.5,-116.5"/>
<text text-anchor="middle" x="1008" y="-124.5" font-family="DejaVuSans" font-size="10.00">src/Datatypes/cv_SpeciesTitle.cpp</text>
</a>
</g>
<!-- Node12&#45;&gt;Node13 -->
<g id="edge26" class="edge"><title>Node12&#45;&gt;Node13</title>
<path fill="none" stroke="midnightblue" d="M1009.92,-164.191C1009.46,-155.168 1008.93,-144.994 1008.55,-137.571"/>
<polygon fill="midnightblue" stroke="midnightblue" points="1006.44,-164.556 1010.45,-174.362 1013.43,-164.194 1006.44,-164.556"/>
</g>
<!-- Node15 -->
<g id="node30" class="node"><title>Node15</title>
<a xlink:href="cv___super_effect_8cpp.html" target="_top" xlink:title="src/Datatypes/cv_SuperEffect.cpp">
<polygon fill="white" stroke="black" points="1115,-116.5 1115,-137.5 1293,-137.5 1293,-116.5 1115,-116.5"/>
<text text-anchor="middle" x="1204" y="-124.5" font-family="DejaVuSans" font-size="10.00">src/Datatypes/cv_SuperEffect.cpp</text>
</a>
</g>
<!-- Node14&#45;&gt;Node15 -->
<g id="edge30" class="edge"><title>Node14&#45;&gt;Node15</title>
<path fill="none" stroke="midnightblue" d="M1202.08,-164.191C1202.54,-155.168 1203.07,-144.994 1203.45,-137.571"/>
<polygon fill="midnightblue" stroke="midnightblue" points="1198.57,-164.194 1201.55,-174.362 1205.56,-164.556 1198.57,-164.194"/>
</g>
<!-- Node16&#45;&gt;Node6 -->
<g id="edge36" class="edge"><title>Node16&#45;&gt;Node6</title>
<path fill="none" stroke="midnightblue" d="M608.427,-171.413C575.242,-161.065 530.221,-147.026 499.746,-137.523"/>
<polygon fill="midnightblue" stroke="midnightblue" points="607.728,-174.861 618.317,-174.497 609.812,-168.178 607.728,-174.861"/>
</g>
<!-- Node16&#45;&gt;Node8 -->
<g id="edge40" class="edge"><title>Node16&#45;&gt;Node8</title>
<path fill="none" stroke="midnightblue" d="M635.175,-166.387C628.442,-158.159 621.092,-148.077 616,-138 606.213,-118.631 600.49,-93.7152 597.829,-79.7411"/>
<polygon fill="midnightblue" stroke="midnightblue" points="632.696,-168.874 641.847,-174.212 638.022,-164.332 632.696,-168.874"/>
</g>
<!-- Node17 -->
<g id="node36" class="node"><title>Node17</title>
<a xlink:href="cv___trait_detail_8cpp.html" target="_top" xlink:title="src/Datatypes/cv_TraitDetail.cpp">
<polygon fill="white" stroke="black" points="625,-116.5 625,-137.5 795,-137.5 795,-116.5 625,-116.5"/>
<text text-anchor="middle" x="710" y="-124.5" font-family="DejaVuSans" font-size="10.00">src/Datatypes/cv_TraitDetail.cpp</text>
</a>
</g>
<!-- Node16&#45;&gt;Node17 -->
<g id="edge38" class="edge"><title>Node16&#45;&gt;Node17</title>
<path fill="none" stroke="midnightblue" d="M669.882,-167.118C679.562,-157.438 691.19,-145.81 699.429,-137.571"/>
<polygon fill="midnightblue" stroke="midnightblue" points="667.234,-164.816 662.638,-174.362 672.184,-169.766 667.234,-164.816"/>
</g>
</g>
</svg>
