<?xml version="1.0" encoding="UTF-8" standalone="no"?>
<!DOCTYPE svg PUBLIC "-//W3C//DTD SVG 1.1//EN"
 "http://www.w3.org/Graphics/SVG/1.1/DTD/svg11.dtd">
<!-- Generated by graphviz version 2.26.3 (20100126.1600)
 -->
<!-- Title: G Pages: 1 -->
<svg width="395pt" height="146pt"
 viewBox="0.00 0.00 395.00 146.00" xmlns="http://www.w3.org/2000/svg" xmlns:xlink="http://www.w3.org/1999/xlink">
<g id="graph1" class="graph" transform="scale(1 1) rotate(0) translate(4 142)">
<title>G</title>
<polygon fill="white" stroke="white" points="-4,5 -4,-142 392,-142 392,5 -4,5"/>
<!-- Node1 -->
<g id="node1" class="node"><title>Node1</title>
<polygon fill="#bfbfbf" stroke="black" points="0,-116.5 0,-137.5 192,-137.5 192,-116.5 0,-116.5"/>
<text text-anchor="middle" x="96" y="-124.5" font-family="DejaVuSans" font-size="10.00">src/Datatypes/cv_CreationPoints.cpp</text>
</g>
<!-- Node2 -->
<g id="node3" class="node"><title>Node2</title>
<polygon fill="white" stroke="#bfbfbf" points="8.5,-58.5 8.5,-79.5 77.5,-79.5 77.5,-58.5 8.5,-58.5"/>
<text text-anchor="middle" x="43" y="-66.5" font-family="DejaVuSans" font-size="10.00">QStringList</text>
</g>
<!-- Node1&#45;&gt;Node2 -->
<g id="edge2" class="edge"><title>Node1&#45;&gt;Node2</title>
<path fill="none" stroke="midnightblue" d="M86.279,-116.362C78.808,-108.186 68.3143,-96.7025 59.5311,-87.0907"/>
<polygon fill="midnightblue" stroke="midnightblue" points="61.9889,-84.5918 52.6594,-79.5707 56.8214,-89.3138 61.9889,-84.5918"/>
</g>
<!-- Node3 -->
<g id="node5" class="node"><title>Node3</title>
<a xlink:href="cv___creation_points_8h.html" target="_top" xlink:title="cv_CreationPoints.h">
<polygon fill="white" stroke="black" points="94.5,-58.5 94.5,-79.5 205.5,-79.5 205.5,-58.5 94.5,-58.5"/>
<text text-anchor="middle" x="150" y="-66.5" font-family="DejaVuSans" font-size="10.00">cv_CreationPoints.h</text>
</a>
</g>
<!-- Node1&#45;&gt;Node3 -->
<g id="edge4" class="edge"><title>Node1&#45;&gt;Node3</title>
<path fill="none" stroke="midnightblue" d="M105.904,-116.362C113.516,-108.186 124.208,-96.7025 133.157,-87.0907"/>
<polygon fill="midnightblue" stroke="midnightblue" points="135.906,-89.2746 140.158,-79.5707 130.783,-84.5046 135.906,-89.2746"/>
</g>
<!-- Node4 -->
<g id="node7" class="node"><title>Node4</title>
<polygon fill="white" stroke="#bfbfbf" points="26.5,-0.5 26.5,-21.5 67.5,-21.5 67.5,-0.5 26.5,-0.5"/>
<text text-anchor="middle" x="47" y="-8.5" font-family="DejaVuSans" font-size="10.00">QList</text>
</g>
<!-- Node3&#45;&gt;Node4 -->
<g id="edge6" class="edge"><title>Node3&#45;&gt;Node4</title>
<path fill="none" stroke="midnightblue" d="M131.108,-58.3619C115.282,-49.4502 92.4774,-36.6087 74.6053,-26.5447"/>
<polygon fill="midnightblue" stroke="midnightblue" points="76.2029,-23.4276 65.772,-21.5707 72.7682,-29.5271 76.2029,-23.4276"/>
</g>
<!-- Node5 -->
<g id="node9" class="node"><title>Node5</title>
<polygon fill="white" stroke="#bfbfbf" points="84.5,-0.5 84.5,-21.5 215.5,-21.5 215.5,-0.5 84.5,-0.5"/>
<text text-anchor="middle" x="150" y="-8.5" font-family="DejaVuSans" font-size="10.00">Datatypes/cv_Species.h</text>
</g>
<!-- Node3&#45;&gt;Node5 -->
<g id="edge8" class="edge"><title>Node3&#45;&gt;Node5</title>
<path fill="none" stroke="midnightblue" d="M150,-58.3619C150,-50.9219 150,-40.7427 150,-31.7276"/>
<polygon fill="midnightblue" stroke="midnightblue" points="153.5,-31.5706 150,-21.5707 146.5,-31.5707 153.5,-31.5706"/>
</g>
<!-- Node6 -->
<g id="node11" class="node"><title>Node6</title>
<polygon fill="white" stroke="#bfbfbf" points="233,-0.5 233,-21.5 387,-21.5 387,-0.5 233,-0.5"/>
<text text-anchor="middle" x="310" y="-8.5" font-family="DejaVuSans" font-size="10.00">Datatypes/cv_AbstractTrait.h</text>
</g>
<!-- Node3&#45;&gt;Node6 -->
<g id="edge10" class="edge"><title>Node3&#45;&gt;Node6</title>
<path fill="none" stroke="midnightblue" d="M178.975,-58.4966C204.833,-49.1229 242.899,-35.3242 271.346,-25.0122"/>
<polygon fill="midnightblue" stroke="midnightblue" points="272.762,-28.2216 280.971,-21.5231 270.377,-21.6406 272.762,-28.2216"/>
</g>
</g>
</svg>
