<?xml version="1.0" encoding="UTF-8" standalone="no"?>
<!DOCTYPE svg PUBLIC "-//W3C//DTD SVG 1.1//EN"
 "http://www.w3.org/Graphics/SVG/1.1/DTD/svg11.dtd">
<!-- Generated by graphviz version 2.26.3 (20100126.1600)
 -->
<!-- Title: G Pages: 1 -->
<svg width="248pt" height="204pt"
 viewBox="0.00 0.00 248.00 204.00" xmlns="http://www.w3.org/2000/svg" xmlns:xlink="http://www.w3.org/1999/xlink">
<g id="graph1" class="graph" transform="scale(1 1) rotate(0) translate(4 200)">
<title>G</title>
<polygon fill="white" stroke="white" points="-4,5 -4,-200 245,-200 245,5 -4,5"/>
<!-- Node1 -->
<g id="node1" class="node"><title>Node1</title>
<polygon fill="#bfbfbf" stroke="black" points="38,-174.5 38,-195.5 216,-195.5 216,-174.5 38,-174.5"/>
<text text-anchor="middle" x="127" y="-182.5" font-family="DejaVuSans" font-size="10.00">src/Datatypes/cv_SuperEffect.cpp</text>
</g>
<!-- Node2 -->
<g id="node3" class="node"><title>Node2</title>
<polygon fill="white" stroke="#bfbfbf" points="-0.5,-116.5 -0.5,-137.5 126.5,-137.5 126.5,-116.5 -0.5,-116.5"/>
<text text-anchor="middle" x="63" y="-124.5" font-family="DejaVuSans" font-size="10.00">Exceptions/Exception.h</text>
</g>
<!-- Node1&#45;&gt;Node2 -->
<g id="edge2" class="edge"><title>Node1&#45;&gt;Node2</title>
<path fill="none" stroke="midnightblue" d="M115.261,-174.362C106.059,-166.023 93.0599,-154.242 82.3283,-144.516"/>
<polygon fill="midnightblue" stroke="midnightblue" points="84.4244,-141.692 74.6642,-137.571 79.7237,-146.879 84.4244,-141.692"/>
</g>
<!-- Node3 -->
<g id="node5" class="node"><title>Node3</title>
<a xlink:href="cv___super_effect_8h.html" target="_top" xlink:title="cv_SuperEffect.h">
<polygon fill="white" stroke="black" points="143.5,-116.5 143.5,-137.5 240.5,-137.5 240.5,-116.5 143.5,-116.5"/>
<text text-anchor="middle" x="192" y="-124.5" font-family="DejaVuSans" font-size="10.00">cv_SuperEffect.h</text>
</a>
</g>
<!-- Node1&#45;&gt;Node3 -->
<g id="edge4" class="edge"><title>Node1&#45;&gt;Node3</title>
<path fill="none" stroke="midnightblue" d="M138.922,-174.362C148.359,-165.941 161.73,-154.011 172.69,-144.231"/>
<polygon fill="midnightblue" stroke="midnightblue" points="175.022,-146.84 180.154,-137.571 170.362,-141.617 175.022,-146.84"/>
</g>
<!-- Node4 -->
<g id="node7" class="node"><title>Node4</title>
<a xlink:href="cv___species_8h.html" target="_top" xlink:title="cv_Species.h">
<polygon fill="white" stroke="black" points="152.5,-58.5 152.5,-79.5 231.5,-79.5 231.5,-58.5 152.5,-58.5"/>
<text text-anchor="middle" x="192" y="-66.5" font-family="DejaVuSans" font-size="10.00">cv_Species.h</text>
</a>
</g>
<!-- Node3&#45;&gt;Node4 -->
<g id="edge6" class="edge"><title>Node3&#45;&gt;Node4</title>
<path fill="none" stroke="midnightblue" d="M192,-116.362C192,-108.922 192,-98.7427 192,-89.7276"/>
<polygon fill="midnightblue" stroke="midnightblue" points="195.5,-89.5706 192,-79.5707 188.5,-89.5707 195.5,-89.5706"/>
</g>
<!-- Node5 -->
<g id="node9" class="node"><title>Node5</title>
<polygon fill="white" stroke="#bfbfbf" points="165.5,-0.5 165.5,-21.5 218.5,-21.5 218.5,-0.5 165.5,-0.5"/>
<text text-anchor="middle" x="192" y="-8.5" font-family="DejaVuSans" font-size="10.00">QString</text>
</g>
<!-- Node4&#45;&gt;Node5 -->
<g id="edge8" class="edge"><title>Node4&#45;&gt;Node5</title>
<path fill="none" stroke="midnightblue" d="M192,-58.3619C192,-50.9219 192,-40.7427 192,-31.7276"/>
<polygon fill="midnightblue" stroke="midnightblue" points="195.5,-31.5706 192,-21.5707 188.5,-31.5707 195.5,-31.5706"/>
</g>
</g>
</svg>
