<?xml version="1.0" encoding="UTF-8" standalone="no"?>
<!DOCTYPE svg PUBLIC "-//W3C//DTD SVG 1.1//EN"
 "http://www.w3.org/Graphics/SVG/1.1/DTD/svg11.dtd">
<!-- Generated by graphviz version 2.26.3 (20100126.1600)
 -->
<!-- Title: G Pages: 1 -->
<svg width="274pt" height="204pt"
 viewBox="0.00 0.00 274.00 204.00" xmlns="http://www.w3.org/2000/svg" xmlns:xlink="http://www.w3.org/1999/xlink">
<g id="graph1" class="graph" transform="scale(1 1) rotate(0) translate(4 200)">
<title>G</title>
<polygon fill="white" stroke="white" points="-4,5 -4,-200 271,-200 271,5 -4,5"/>
<!-- Node1 -->
<g id="node1" class="node"><title>Node1</title>
<polygon fill="#bfbfbf" stroke="black" points="37,-174.5 37,-195.5 219,-195.5 219,-174.5 37,-174.5"/>
<text text-anchor="middle" x="128" y="-182.5" font-family="DejaVuSans" font-size="10.00">src/Datatypes/cv_AbstractTrait.cpp</text>
</g>
<!-- Node2 -->
<g id="node3" class="node"><title>Node2</title>
<polygon fill="white" stroke="#bfbfbf" points="-0.5,-116.5 -0.5,-137.5 126.5,-137.5 126.5,-116.5 -0.5,-116.5"/>
<text text-anchor="middle" x="63" y="-124.5" font-family="DejaVuSans" font-size="10.00">Exceptions/Exception.h</text>
</g>
<!-- Node1&#45;&gt;Node2 -->
<g id="edge2" class="edge"><title>Node1&#45;&gt;Node2</title>
<path fill="none" stroke="midnightblue" d="M116.078,-174.362C106.641,-165.941 93.2704,-154.011 82.3104,-144.231"/>
<polygon fill="midnightblue" stroke="midnightblue" points="84.6381,-141.617 74.8464,-137.571 79.9776,-146.84 84.6381,-141.617"/>
</g>
<!-- Node3 -->
<g id="node5" class="node"><title>Node3</title>
<a xlink:href="cv___abstract_trait_8h.html" target="_top" xlink:title="cv_AbstractTrait.h">
<polygon fill="white" stroke="black" points="143.5,-116.5 143.5,-137.5 244.5,-137.5 244.5,-116.5 143.5,-116.5"/>
<text text-anchor="middle" x="194" y="-124.5" font-family="DejaVuSans" font-size="10.00">cv_AbstractTrait.h</text>
</a>
</g>
<!-- Node1&#45;&gt;Node3 -->
<g id="edge4" class="edge"><title>Node1&#45;&gt;Node3</title>
<path fill="none" stroke="midnightblue" d="M140.105,-174.362C149.688,-165.941 163.264,-154.011 174.393,-144.231"/>
<polygon fill="midnightblue" stroke="midnightblue" points="176.77,-146.801 181.971,-137.571 172.149,-141.543 176.77,-146.801"/>
</g>
<!-- Node4 -->
<g id="node7" class="node"><title>Node4</title>
<polygon fill="white" stroke="#bfbfbf" points="166.5,-0.5 166.5,-21.5 219.5,-21.5 219.5,-0.5 166.5,-0.5"/>
<text text-anchor="middle" x="193" y="-8.5" font-family="DejaVuSans" font-size="10.00">QString</text>
</g>
<!-- Node3&#45;&gt;Node4 -->
<g id="edge6" class="edge"><title>Node3&#45;&gt;Node4</title>
<path fill="none" stroke="midnightblue" d="M189.576,-116.401C185.916,-107.021 181.003,-92.8641 179,-80 176.448,-63.6083 180.536,-45.2036 184.942,-31.5273"/>
<polygon fill="midnightblue" stroke="midnightblue" points="188.383,-32.2965 188.422,-21.7018 181.784,-29.9593 188.383,-32.2965"/>
</g>
<!-- Node5 -->
<g id="node9" class="node"><title>Node5</title>
<a xlink:href="cv___species_8h.html" target="_top" xlink:title="cv_Species.h">
<polygon fill="white" stroke="black" points="187.5,-58.5 187.5,-79.5 266.5,-79.5 266.5,-58.5 187.5,-58.5"/>
<text text-anchor="middle" x="227" y="-66.5" font-family="DejaVuSans" font-size="10.00">cv_Species.h</text>
</a>
</g>
<!-- Node3&#45;&gt;Node5 -->
<g id="edge8" class="edge"><title>Node3&#45;&gt;Node5</title>
<path fill="none" stroke="midnightblue" d="M200.053,-116.362C204.472,-108.595 210.59,-97.8426 215.879,-88.5458"/>
<polygon fill="midnightblue" stroke="midnightblue" points="219.082,-89.9932 220.986,-79.5707 212.998,-86.5315 219.082,-89.9932"/>
</g>
<!-- Node5&#45;&gt;Node4 -->
<g id="edge10" class="edge"><title>Node5&#45;&gt;Node4</title>
<path fill="none" stroke="midnightblue" d="M220.764,-58.3619C216.163,-50.5131 209.775,-39.6159 204.286,-30.2527"/>
<polygon fill="midnightblue" stroke="midnightblue" points="207.273,-28.4276 199.197,-21.5707 201.234,-31.9677 207.273,-28.4276"/>
</g>
</g>
</svg>
