<?xml version="1.0" encoding="UTF-8" standalone="no"?>
<!DOCTYPE svg PUBLIC "-//W3C//DTD SVG 1.1//EN"
 "http://www.w3.org/Graphics/SVG/1.1/DTD/svg11.dtd">
<!-- Generated by graphviz version 2.26.3 (20100126.1600)
 -->
<!-- Title: G Pages: 1 -->
<svg width="278pt" height="113pt"
 viewBox="0.00 0.00 278.00 113.00" xmlns="http://www.w3.org/2000/svg" xmlns:xlink="http://www.w3.org/1999/xlink">
<g id="graph1" class="graph" transform="scale(1 1) rotate(0) translate(4 109)">
<title>G</title>
<polygon fill="white" stroke="white" points="-4,5 -4,-109 275,-109 275,5 -4,5"/>
<g id="graph2" class="cluster"><title>clusterdir_fe91baa19b8d9fa0126a0b4ccb04bbf8</title>
<a xlink:href="dir_fe91baa19b8d9fa0126a0b4ccb04bbf8.html" target="_top" xlink:title="src">
<polygon fill="#ddddee" stroke="black" points="8,-8 8,-97 262,-97 262,-8 8,-8"/>
<text text-anchor="middle" x="135" y="-84" font-family="DejaVuSans" font-size="10.00">src</text>
</a>
</g>
<g id="graph3" class="cluster"><title>clusterdir_097a176dc82a4f7a1b6f4e57abbe225a</title>
<a xlink:href="dir_097a176dc82a4f7a1b6f4e57abbe225a.html" target="_top">
<polygon fill="#eeeeff" stroke="black" points="16,-16 16,-68 254,-68 254,-16 16,-16"/>
</a>
</g>
<!-- dir_097a176dc82a4f7a1b6f4e57abbe225a -->
<g id="node3" class="node"><title>dir_097a176dc82a4f7a1b6f4e57abbe225a</title>
<text text-anchor="middle" x="219" y="-39.5" font-family="DejaVuSans" font-size="10.00">Widgets</text>
</g>
<!-- dir_19b51dd330e2d5d596d10e502eeb0676 -->
<g id="node4" class="node"><title>dir_19b51dd330e2d5d596d10e502eeb0676</title>
<a xlink:href="dir_19b51dd330e2d5d596d10e502eeb0676.html" target="_top" xlink:title="Components">
<polygon fill="white" stroke="black" points="174,-60 96,-60 96,-24 174,-24 174,-60"/>
<text text-anchor="middle" x="135" y="-39.5" font-family="DejaVuSans" font-size="10.00">Components</text>
</a>
</g>
<!-- dir_b0e8863f2bb80f27c9ebc566d1e0e8e3 -->
<g id="node5" class="node"><title>dir_b0e8863f2bb80f27c9ebc566d1e0e8e3</title>
<a xlink:href="dir_b0e8863f2bb80f27c9ebc566d1e0e8e3.html" target="_top" xlink:title="Dialogs">
<polygon fill="white" stroke="black" points="78,-60 24,-60 24,-24 78,-24 78,-60"/>
<text text-anchor="middle" x="51" y="-39.5" font-family="DejaVuSans" font-size="10.00">Dialogs</text>
</a>
</g>
</g>
</svg>
