<?xml version="1.0" encoding="UTF-8" standalone="no"?>
<!DOCTYPE svg PUBLIC "-//W3C//DTD SVG 1.1//EN"
 "http://www.w3.org/Graphics/SVG/1.1/DTD/svg11.dtd">
<!-- Generated by graphviz version 2.26.3 (20100126.1600)
 -->
<!-- Title: G Pages: 1 -->
<svg width="146pt" height="153pt"
 viewBox="0.00 0.00 146.00 153.00" xmlns="http://www.w3.org/2000/svg" xmlns:xlink="http://www.w3.org/1999/xlink">
<g id="graph1" class="graph" transform="scale(1 1) rotate(0) translate(4 149)">
<title>G</title>
<polygon fill="white" stroke="white" points="-4,5 -4,-149 143,-149 143,5 -4,5"/>
<g id="graph2" class="cluster"><title>clusterdir_927be10b65126484d1c3bd58a0a5f267</title>
<a xlink:href="dir_927be10b65126484d1c3bd58a0a5f267.html" target="_top" xlink:title="src">
<polygon fill="#ddddee" stroke="black" points="31,-64 31,-137 101,-137 101,-64 31,-64"/>
<text text-anchor="middle" x="66" y="-124" font-family="DejaVuSans" font-size="10.00">src</text>
</a>
</g>
<!-- dir_263d32c092cb861960c664f76eec260f -->
<g id="node2" class="node"><title>dir_263d32c092cb861960c664f76eec260f</title>
<a xlink:href="dir_263d32c092cb861960c664f76eec260f.html" target="_top" xlink:title="Read">
<polygon fill="#eeeeff" stroke="black" points="93,-108 39,-108 39,-72 93,-72 93,-108"/>
<text text-anchor="middle" x="66" y="-87.5" font-family="DejaVuSans" font-size="10.00">Read</text>
</a>
</g>
<!-- dir_1444c9855d2f59b3e89b59437656ba05 -->
<g id="node3" class="node"><title>dir_1444c9855d2f59b3e89b59437656ba05</title>
<a xlink:href="dir_1444c9855d2f59b3e89b59437656ba05.html" target="_top" xlink:title="Config">
<polygon fill="none" stroke="black" points="54,-36 2.13163e-14,-36 0,-1.77636e-14 54,-3.55271e-15 54,-36"/>
<text text-anchor="middle" x="27" y="-15.5" font-family="DejaVuSans" font-size="10.00">Config</text>
</a>
</g>
<!-- dir_263d32c092cb861960c664f76eec260f&#45;&gt;dir_1444c9855d2f59b3e89b59437656ba05 -->
<g id="edge3" class="edge"><title>dir_263d32c092cb861960c664f76eec260f&#45;&gt;dir_1444c9855d2f59b3e89b59437656ba05</title>
<path fill="none" stroke="black" d="M56.1587,-71.8314C51.8043,-63.7925 46.5902,-54.1666 41.7831,-45.2918"/>
<polygon fill="black" stroke="black" points="44.8143,-43.5392 36.9739,-36.4133 38.6592,-46.8732 44.8143,-43.5392"/>
<a xlink:href="dir_000004_000001.html" target="_top" xlink:title="1">
<text text-anchor="middle" x="49.0228" y="-42.8476" font-family="DejaVuSans" font-size="10.00">1</text>
</a>
</g>
<!-- dir_a3a22eb43f288fab1662d1622a9f0e96 -->
<g id="node4" class="node"><title>dir_a3a22eb43f288fab1662d1622a9f0e96</title>
<a xlink:href="dir_a3a22eb43f288fab1662d1622a9f0e96.html" target="_top" xlink:title="Datatypes">
<polygon fill="none" stroke="black" points="138,-36 72,-36 72,-1.77636e-14 138,-3.55271e-15 138,-36"/>
<text text-anchor="middle" x="105" y="-15.5" font-family="DejaVuSans" font-size="10.00">Datatypes</text>
</a>
</g>
<!-- dir_263d32c092cb861960c664f76eec260f&#45;&gt;dir_a3a22eb43f288fab1662d1622a9f0e96 -->
<g id="edge5" class="edge"><title>dir_263d32c092cb861960c664f76eec260f&#45;&gt;dir_a3a22eb43f288fab1662d1622a9f0e96</title>
<path fill="none" stroke="black" d="M75.8413,-71.8314C80.1957,-63.7925 85.4098,-54.1666 90.2169,-45.2918"/>
<polygon fill="black" stroke="black" points="93.3408,-46.8732 95.0261,-36.4133 87.1857,-43.5392 93.3408,-46.8732"/>
<a xlink:href="dir_000004_000002.html" target="_top" xlink:title="2">
<text text-anchor="middle" x="94.1253" y="-48.8862" font-family="DejaVuSans" font-size="10.00">2</text>
</a>
</g>
</g>
</svg>
