<?xml version="1.0" encoding="UTF-8" standalone="no"?>
<!DOCTYPE svg PUBLIC "-//W3C//DTD SVG 1.1//EN"
 "http://www.w3.org/Graphics/SVG/1.1/DTD/svg11.dtd">
<!-- Generated by graphviz version 2.26.3 (20100126.1600)
 -->
<!-- Title: G Pages: 1 -->
<svg width="538pt" height="76pt"
 viewBox="0.00 0.00 538.00 76.00" xmlns="http://www.w3.org/2000/svg" xmlns:xlink="http://www.w3.org/1999/xlink">
<g id="graph1" class="graph" transform="scale(1 1) rotate(0) translate(4 72)">
<title>G</title>
<polygon fill="white" stroke="white" points="-4,5 -4,-72 535,-72 535,5 -4,5"/>
<g id="graph2" class="cluster"><title>clusterdir_fe91baa19b8d9fa0126a0b4ccb04bbf8</title>
<a xlink:href="dir_fe91baa19b8d9fa0126a0b4ccb04bbf8.html" target="_top">
<polygon fill="#eeeeff" stroke="black" points="8,-8 8,-60 522,-60 522,-8 8,-8"/>
</a>
</g>
<!-- dir_fe91baa19b8d9fa0126a0b4ccb04bbf8 -->
<g id="node2" class="node"><title>dir_fe91baa19b8d9fa0126a0b4ccb04bbf8</title>
<text text-anchor="middle" x="487" y="-31.5" font-family="DejaVuSans" font-size="10.00">src</text>
</g>
<!-- dir_f6a850590684af213d250e8e189dff6f -->
<g id="node3" class="node"><title>dir_f6a850590684af213d250e8e189dff6f</title>
<a xlink:href="dir_f6a850590684af213d250e8e189dff6f.html" target="_top" xlink:title="Calc">
<polygon fill="white" stroke="black" points="442,-52 388,-52 388,-16 442,-16 442,-52"/>
<text text-anchor="middle" x="415" y="-31.5" font-family="DejaVuSans" font-size="10.00">Calc</text>
</a>
</g>
<!-- dir_93aeb083ef12d21b5eb9f68cf6b927ce -->
<g id="node4" class="node"><title>dir_93aeb083ef12d21b5eb9f68cf6b927ce</title>
<a xlink:href="dir_93aeb083ef12d21b5eb9f68cf6b927ce.html" target="_top" xlink:title="Datatypes">
<polygon fill="white" stroke="red" points="370,-52 304,-52 304,-16 370,-16 370,-52"/>
<text text-anchor="middle" x="337" y="-31.5" font-family="DejaVuSans" font-size="10.00">Datatypes</text>
</a>
</g>
<!-- dir_8d5e64a79548462e78040d4c3b043258 -->
<g id="node5" class="node"><title>dir_8d5e64a79548462e78040d4c3b043258</title>
<a xlink:href="dir_8d5e64a79548462e78040d4c3b043258.html" target="_top" xlink:title="Draw">
<polygon fill="white" stroke="black" points="286,-52 232,-52 232,-16 286,-16 286,-52"/>
<text text-anchor="middle" x="259" y="-31.5" font-family="DejaVuSans" font-size="10.00">Draw</text>
</a>
</g>
<!-- dir_cc59fe34e7b6ab5f28d3054f010326f5 -->
<g id="node6" class="node"><title>dir_cc59fe34e7b6ab5f28d3054f010326f5</title>
<a xlink:href="dir_cc59fe34e7b6ab5f28d3054f010326f5.html" target="_top" xlink:title="IO">
<polygon fill="white" stroke="black" points="214,-52 160,-52 160,-16 214,-16 214,-52"/>
<text text-anchor="middle" x="187" y="-31.5" font-family="DejaVuSans" font-size="10.00">IO</text>
</a>
</g>
<!-- dir_d16f20ad1bcce6f36c1659937b850f67 -->
<g id="node7" class="node"><title>dir_d16f20ad1bcce6f36c1659937b850f67</title>
<a xlink:href="dir_d16f20ad1bcce6f36c1659937b850f67.html" target="_top" xlink:title="Storage">
<polygon fill="white" stroke="black" points="142,-52 88,-52 88,-16 142,-16 142,-52"/>
<text text-anchor="middle" x="115" y="-31.5" font-family="DejaVuSans" font-size="10.00">Storage</text>
</a>
</g>
<!-- dir_097a176dc82a4f7a1b6f4e57abbe225a -->
<g id="node8" class="node"><title>dir_097a176dc82a4f7a1b6f4e57abbe225a</title>
<a xlink:href="dir_097a176dc82a4f7a1b6f4e57abbe225a.html" target="_top" xlink:title="Widgets">
<polygon fill="white" stroke="red" points="70,-52 16,-52 16,-16 70,-16 70,-52"/>
<text text-anchor="middle" x="43" y="-31.5" font-family="DejaVuSans" font-size="10.00">Widgets</text>
</a>
</g>
</g>
</svg>
