<?xml version="1.0" encoding="UTF-8" standalone="no"?>
<!DOCTYPE svg PUBLIC "-//W3C//DTD SVG 1.1//EN"
 "http://www.w3.org/Graphics/SVG/1.1/DTD/svg11.dtd">
<!-- Generated by graphviz version 2.26.3 (20100126.1600)
 -->
<!-- Title: G Pages: 1 -->
<svg width="538pt" height="148pt"
 viewBox="0.00 0.00 538.00 148.00" xmlns="http://www.w3.org/2000/svg" xmlns:xlink="http://www.w3.org/1999/xlink">
<g id="graph1" class="graph" transform="scale(1 1) rotate(0) translate(4 144)">
<title>G</title>
<polygon fill="white" stroke="white" points="-4,5 -4,-144 535,-144 535,5 -4,5"/>
<g id="graph2" class="cluster"><title>clusterdir_927be10b65126484d1c3bd58a0a5f267</title>
<a xlink:href="dir_927be10b65126484d1c3bd58a0a5f267.html" target="_top">
<polygon fill="#eeeeff" stroke="black" points="8,-8 8,-132 522,-132 522,-8 8,-8"/>
</a>
</g>
<!-- dir_927be10b65126484d1c3bd58a0a5f267 -->
<g id="node2" class="node"><title>dir_927be10b65126484d1c3bd58a0a5f267</title>
<text text-anchor="middle" x="271" y="-103.5" font-family="DejaVuSans" font-size="10.00">src</text>
</g>
<!-- dir_759016c8807118dc52b630efe201af7e -->
<g id="node3" class="node"><title>dir_759016c8807118dc52b630efe201af7e</title>
<a xlink:href="dir_759016c8807118dc52b630efe201af7e.html" target="_top" xlink:title="Calc">
<polygon fill="white" stroke="black" points="70,-52 16,-52 16,-16 70,-16 70,-52"/>
<text text-anchor="middle" x="43" y="-31.5" font-family="DejaVuSans" font-size="10.00">Calc</text>
</a>
</g>
<!-- dir_927be10b65126484d1c3bd58a0a5f267&#45;&gt;dir_759016c8807118dc52b630efe201af7e -->
<g id="edge9" class="edge"><title>dir_927be10b65126484d1c3bd58a0a5f267&#45;&gt;dir_759016c8807118dc52b630efe201af7e</title>
<path fill="none" stroke="black" d="M243.889,-96.3621C235.619,-93.5386 226.473,-90.5322 218,-88 159.842,-70.6187 140.628,-73.9922 79.9372,-51.9669"/>
<polygon fill="black" stroke="black" points="80.8447,-48.5704 70.2518,-48.3679 78.4064,-55.132 80.8447,-48.5704"/>
<a xlink:href="dir_000000_000001.html" target="_top" xlink:title="2">
<text text-anchor="middle" x="85.2031" y="-44.6609" font-family="DejaVuSans" font-size="10.00">2</text>
</a>
</g>
<!-- dir_1444c9855d2f59b3e89b59437656ba05 -->
<g id="node4" class="node"><title>dir_1444c9855d2f59b3e89b59437656ba05</title>
<a xlink:href="dir_1444c9855d2f59b3e89b59437656ba05.html" target="_top" xlink:title="Config">
<polygon fill="white" stroke="black" points="142,-52 88,-52 88,-16 142,-16 142,-52"/>
<text text-anchor="middle" x="115" y="-31.5" font-family="DejaVuSans" font-size="10.00">Config</text>
</a>
</g>
<!-- dir_927be10b65126484d1c3bd58a0a5f267&#45;&gt;dir_1444c9855d2f59b3e89b59437656ba05 -->
<g id="edge5" class="edge"><title>dir_927be10b65126484d1c3bd58a0a5f267&#45;&gt;dir_1444c9855d2f59b3e89b59437656ba05</title>
<path fill="none" stroke="black" d="M243.689,-94.0898C221.179,-84.1903 188.235,-69.5129 151.489,-52.1525"/>
<polygon fill="black" stroke="black" points="152.604,-48.8076 142.069,-47.6824 149.603,-55.1316 152.604,-48.8076"/>
<a xlink:href="dir_000000_000002.html" target="_top" xlink:title="1">
<text text-anchor="middle" x="157.068" y="-45.2835" font-family="DejaVuSans" font-size="10.00">1</text>
</a>
</g>
<!-- dir_a3a22eb43f288fab1662d1622a9f0e96 -->
<g id="node5" class="node"><title>dir_a3a22eb43f288fab1662d1622a9f0e96</title>
<a xlink:href="dir_a3a22eb43f288fab1662d1622a9f0e96.html" target="_top" xlink:title="Datatypes">
<polygon fill="white" stroke="black" points="226,-52 160,-52 160,-16 226,-16 226,-52"/>
<text text-anchor="middle" x="193" y="-31.5" font-family="DejaVuSans" font-size="10.00">Datatypes</text>
</a>
</g>
<!-- dir_927be10b65126484d1c3bd58a0a5f267&#45;&gt;dir_a3a22eb43f288fab1662d1622a9f0e96 -->
<g id="edge15" class="edge"><title>dir_927be10b65126484d1c3bd58a0a5f267&#45;&gt;dir_a3a22eb43f288fab1662d1622a9f0e96</title>
<path fill="none" stroke="black" d="M251.317,-87.8314C241.895,-79.1337 230.46,-68.5783 220.22,-59.1265"/>
<polygon fill="black" stroke="black" points="222.398,-56.3738 212.676,-52.1628 217.65,-61.5175 222.398,-56.3738"/>
<a xlink:href="dir_000000_000003.html" target="_top" xlink:title="2">
<text text-anchor="middle" x="226.966" y="-54.2257" font-family="DejaVuSans" font-size="10.00">2</text>
</a>
</g>
<!-- dir_ea7dd78835306cf84afd084f9f7febd4 -->
<g id="node6" class="node"><title>dir_ea7dd78835306cf84afd084f9f7febd4</title>
<a xlink:href="dir_ea7dd78835306cf84afd084f9f7febd4.html" target="_top" xlink:title="Draw">
<polygon fill="white" stroke="black" points="298,-52 244,-52 244,-16 298,-16 298,-52"/>
<text text-anchor="middle" x="271" y="-31.5" font-family="DejaVuSans" font-size="10.00">Draw</text>
</a>
</g>
<!-- dir_927be10b65126484d1c3bd58a0a5f267&#45;&gt;dir_ea7dd78835306cf84afd084f9f7febd4 -->
<g id="edge11" class="edge"><title>dir_927be10b65126484d1c3bd58a0a5f267&#45;&gt;dir_ea7dd78835306cf84afd084f9f7febd4</title>
<path fill="none" stroke="black" d="M271,-87.8314C271,-80.131 271,-70.9743 271,-62.4166"/>
<polygon fill="black" stroke="black" points="274.5,-62.4132 271,-52.4133 267.5,-62.4133 274.5,-62.4132"/>
<a xlink:href="dir_000000_000004.html" target="_top" xlink:title="1">
<text text-anchor="middle" x="277.339" y="-63.5079" font-family="DejaVuSans" font-size="10.00">1</text>
</a>
</g>
<!-- dir_079ce77b2fd3157f11c98742374eea4a -->
<g id="node8" class="node"><title>dir_079ce77b2fd3157f11c98742374eea4a</title>
<a xlink:href="dir_079ce77b2fd3157f11c98742374eea4a.html" target="_top" xlink:title="IO">
<polygon fill="white" stroke="black" points="370,-52 316,-52 316,-16 370,-16 370,-52"/>
<text text-anchor="middle" x="343" y="-31.5" font-family="DejaVuSans" font-size="10.00">IO</text>
</a>
</g>
<!-- dir_927be10b65126484d1c3bd58a0a5f267&#45;&gt;dir_079ce77b2fd3157f11c98742374eea4a -->
<g id="edge3" class="edge"><title>dir_927be10b65126484d1c3bd58a0a5f267&#45;&gt;dir_079ce77b2fd3157f11c98742374eea4a</title>
<path fill="none" stroke="black" d="M289.169,-87.8314C297.715,-79.2848 308.056,-68.9443 317.38,-59.6198"/>
<polygon fill="black" stroke="black" points="319.991,-61.9592 324.587,-52.4133 315.041,-57.0095 319.991,-61.9592"/>
<a xlink:href="dir_000000_000006.html" target="_top" xlink:title="4">
<text text-anchor="middle" x="319.456" y="-64.0087" font-family="DejaVuSans" font-size="10.00">4</text>
</a>
</g>
<!-- dir_665068cc650dcfd53928de23d65f6c21 -->
<g id="node10" class="node"><title>dir_665068cc650dcfd53928de23d65f6c21</title>
<a xlink:href="dir_665068cc650dcfd53928de23d65f6c21.html" target="_top" xlink:title="Storage">
<polygon fill="white" stroke="black" points="442,-52 388,-52 388,-16 442,-16 442,-52"/>
<text text-anchor="middle" x="415" y="-31.5" font-family="DejaVuSans" font-size="10.00">Storage</text>
</a>
</g>
<!-- dir_927be10b65126484d1c3bd58a0a5f267&#45;&gt;dir_665068cc650dcfd53928de23d65f6c21 -->
<g id="edge7" class="edge"><title>dir_927be10b65126484d1c3bd58a0a5f267&#45;&gt;dir_665068cc650dcfd53928de23d65f6c21</title>
<path fill="none" stroke="black" d="M298.085,-92.4574C320.769,-81.1153 353.357,-64.8217 378.368,-52.316"/>
<polygon fill="black" stroke="black" points="380.168,-55.3294 387.547,-47.7267 377.037,-49.0684 380.168,-55.3294"/>
<a xlink:href="dir_000000_000008.html" target="_top" xlink:title="4">
<text text-anchor="middle" x="378.222" y="-56.9764" font-family="DejaVuSans" font-size="10.00">4</text>
</a>
</g>
<!-- dir_779b7fe04c534e1c9e8a4f91546856d6 -->
<g id="node11" class="node"><title>dir_779b7fe04c534e1c9e8a4f91546856d6</title>
<a xlink:href="dir_779b7fe04c534e1c9e8a4f91546856d6.html" target="_top" xlink:title="Widgets">
<polygon fill="white" stroke="red" points="514,-52 460,-52 460,-16 514,-16 514,-52"/>
<text text-anchor="middle" x="487" y="-31.5" font-family="DejaVuSans" font-size="10.00">Widgets</text>
</a>
</g>
<!-- dir_927be10b65126484d1c3bd58a0a5f267&#45;&gt;dir_779b7fe04c534e1c9e8a4f91546856d6 -->
<g id="edge13" class="edge"><title>dir_927be10b65126484d1c3bd58a0a5f267&#45;&gt;dir_779b7fe04c534e1c9e8a4f91546856d6</title>
<path fill="none" stroke="black" d="M298.023,-99.4472C331.859,-90.9103 391.61,-74.7399 450.299,-51.9671"/>
<polygon fill="black" stroke="black" points="451.688,-55.1819 459.705,-48.2557 449.118,-48.6704 451.688,-55.1819"/>
<a xlink:href="dir_000000_000009.html" target="_top" xlink:title="16">
<text text-anchor="middle" x="449.386" y="-56.6423" font-family="DejaVuSans" font-size="10.00">16</text>
</a>
</g>
<!-- dir_2df0f5fca2d48e40d7b6fdc4ae9d4c5a -->
<g id="node7" class="node"><title>dir_2df0f5fca2d48e40d7b6fdc4ae9d4c5a</title>
<a xlink:href="dir_2df0f5fca2d48e40d7b6fdc4ae9d4c5a.html" target="_top" xlink:title="Exceptions">
<polygon fill="white" stroke="black" points="209,-124 141,-124 141,-88 209,-88 209,-124"/>
<text text-anchor="middle" x="175" y="-103.5" font-family="DejaVuSans" font-size="10.00">Exceptions</text>
</a>
</g>
<!-- dir_0ebb47c5303c373633d25021b6f80160 -->
<g id="node9" class="node"><title>dir_0ebb47c5303c373633d25021b6f80160</title>
<a xlink:href="dir_0ebb47c5303c373633d25021b6f80160.html" target="_top" xlink:title="Parser">
<polygon fill="white" stroke="black" points="88,-124 34,-124 34,-88 88,-88 88,-124"/>
<text text-anchor="middle" x="61" y="-103.5" font-family="DejaVuSans" font-size="10.00">Parser</text>
</a>
</g>
</g>
</svg>
