<?xml version="1.0" encoding="UTF-8" standalone="no"?>
<!DOCTYPE svg PUBLIC "-//W3C//DTD SVG 1.1//EN"
 "http://www.w3.org/Graphics/SVG/1.1/DTD/svg11.dtd">
<!-- Generated by graphviz version 2.26.3 (20100126.1600)
 -->
<!-- Title: G Pages: 1 -->
<svg width="408pt" height="148pt"
 viewBox="0.00 0.00 408.00 148.00" xmlns="http://www.w3.org/2000/svg" xmlns:xlink="http://www.w3.org/1999/xlink">
<g id="graph1" class="graph" transform="scale(1 1) rotate(0) translate(4 144)">
<title>G</title>
<polygon fill="white" stroke="white" points="-4,5 -4,-144 405,-144 405,5 -4,5"/>
<g id="graph2" class="cluster"><title>clusterdir_927be10b65126484d1c3bd58a0a5f267</title>
<a xlink:href="dir_927be10b65126484d1c3bd58a0a5f267.html" target="_top">
<polygon fill="#eeeeff" stroke="black" points="8,-8 8,-132 392,-132 392,-8 8,-8"/>
</a>
</g>
<!-- dir_927be10b65126484d1c3bd58a0a5f267 -->
<g id="node2" class="node"><title>dir_927be10b65126484d1c3bd58a0a5f267</title>
<text text-anchor="middle" x="357" y="-103.5" font-family="DejaVuSans" font-size="10.00">src</text>
</g>
<!-- dir_759016c8807118dc52b630efe201af7e -->
<g id="node3" class="node"><title>dir_759016c8807118dc52b630efe201af7e</title>
<a xlink:href="dir_759016c8807118dc52b630efe201af7e.html" target="_top" xlink:title="Calc">
<polygon fill="white" stroke="black" points="96,-52 42,-52 42,-16 96,-16 96,-52"/>
<text text-anchor="middle" x="69" y="-31.5" font-family="DejaVuSans" font-size="10.00">Calc</text>
</a>
</g>
<!-- dir_927be10b65126484d1c3bd58a0a5f267&#45;&gt;dir_759016c8807118dc52b630efe201af7e -->
<g id="edge7" class="edge"><title>dir_927be10b65126484d1c3bd58a0a5f267&#45;&gt;dir_759016c8807118dc52b630efe201af7e</title>
<path fill="none" stroke="black" d="M329.84,-91.3686C326.906,-90.1065 323.924,-88.9508 321,-88 231.429,-58.873 199.609,-80.594 105.747,-51.691"/>
<polygon fill="black" stroke="black" points="106.75,-48.3373 96.1596,-48.6314 104.622,-55.006 106.75,-48.3373"/>
<a xlink:href="dir_000000_000001.html" target="_top" xlink:title="1">
<text text-anchor="middle" x="111.038" y="-44.2251" font-family="DejaVuSans" font-size="10.00">1</text>
</a>
</g>
<!-- dir_ea7dd78835306cf84afd084f9f7febd4 -->
<g id="node6" class="node"><title>dir_ea7dd78835306cf84afd084f9f7febd4</title>
<a xlink:href="dir_ea7dd78835306cf84afd084f9f7febd4.html" target="_top" xlink:title="Draw">
<polygon fill="white" stroke="black" points="168,-52 114,-52 114,-16 168,-16 168,-52"/>
<text text-anchor="middle" x="141" y="-31.5" font-family="DejaVuSans" font-size="10.00">Draw</text>
</a>
</g>
<!-- dir_927be10b65126484d1c3bd58a0a5f267&#45;&gt;dir_ea7dd78835306cf84afd084f9f7febd4 -->
<g id="edge9" class="edge"><title>dir_927be10b65126484d1c3bd58a0a5f267&#45;&gt;dir_ea7dd78835306cf84afd084f9f7febd4</title>
<path fill="none" stroke="black" d="M329.758,-91.6071C326.839,-90.2985 323.884,-89.0667 321,-88 262.028,-66.1849 240.862,-74.0432 177.852,-51.8868"/>
<polygon fill="black" stroke="black" points="178.837,-48.5206 168.242,-48.3929 176.445,-55.0993 178.837,-48.5206"/>
<a xlink:href="dir_000000_000004.html" target="_top" xlink:title="1">
<text text-anchor="middle" x="183.185" y="-44.5804" font-family="DejaVuSans" font-size="10.00">1</text>
</a>
</g>
<!-- dir_079ce77b2fd3157f11c98742374eea4a -->
<g id="node8" class="node"><title>dir_079ce77b2fd3157f11c98742374eea4a</title>
<a xlink:href="dir_079ce77b2fd3157f11c98742374eea4a.html" target="_top" xlink:title="IO">
<polygon fill="white" stroke="black" points="240,-52 186,-52 186,-16 240,-16 240,-52"/>
<text text-anchor="middle" x="213" y="-31.5" font-family="DejaVuSans" font-size="10.00">IO</text>
</a>
</g>
<!-- dir_927be10b65126484d1c3bd58a0a5f267&#45;&gt;dir_079ce77b2fd3157f11c98742374eea4a -->
<g id="edge3" class="edge"><title>dir_927be10b65126484d1c3bd58a0a5f267&#45;&gt;dir_079ce77b2fd3157f11c98742374eea4a</title>
<path fill="none" stroke="black" d="M329.915,-92.4574C307.231,-81.1153 274.643,-64.8217 249.632,-52.316"/>
<polygon fill="black" stroke="black" points="250.963,-49.0684 240.453,-47.7267 247.832,-55.3294 250.963,-49.0684"/>
<a xlink:href="dir_000000_000006.html" target="_top" xlink:title="4">
<text text-anchor="middle" x="255.448" y="-45.6364" font-family="DejaVuSans" font-size="10.00">4</text>
</a>
</g>
<!-- dir_665068cc650dcfd53928de23d65f6c21 -->
<g id="node10" class="node"><title>dir_665068cc650dcfd53928de23d65f6c21</title>
<a xlink:href="dir_665068cc650dcfd53928de23d65f6c21.html" target="_top" xlink:title="Storage">
<polygon fill="white" stroke="black" points="312,-52 258,-52 258,-16 312,-16 312,-52"/>
<text text-anchor="middle" x="285" y="-31.5" font-family="DejaVuSans" font-size="10.00">Storage</text>
</a>
</g>
<!-- dir_927be10b65126484d1c3bd58a0a5f267&#45;&gt;dir_665068cc650dcfd53928de23d65f6c21 -->
<g id="edge5" class="edge"><title>dir_927be10b65126484d1c3bd58a0a5f267&#45;&gt;dir_665068cc650dcfd53928de23d65f6c21</title>
<path fill="none" stroke="black" d="M338.831,-87.8314C330.285,-79.2848 319.944,-68.9443 310.62,-59.6198"/>
<polygon fill="black" stroke="black" points="312.959,-57.0095 303.413,-52.4133 308.009,-61.9592 312.959,-57.0095"/>
<a xlink:href="dir_000000_000008.html" target="_top" xlink:title="1">
<text text-anchor="middle" x="317.509" y="-55.0436" font-family="DejaVuSans" font-size="10.00">1</text>
</a>
</g>
<!-- dir_779b7fe04c534e1c9e8a4f91546856d6 -->
<g id="node11" class="node"><title>dir_779b7fe04c534e1c9e8a4f91546856d6</title>
<a xlink:href="dir_779b7fe04c534e1c9e8a4f91546856d6.html" target="_top" xlink:title="Widgets">
<polygon fill="white" stroke="red" points="384,-52 330,-52 330,-16 384,-16 384,-52"/>
<text text-anchor="middle" x="357" y="-31.5" font-family="DejaVuSans" font-size="10.00">Widgets</text>
</a>
</g>
<!-- dir_927be10b65126484d1c3bd58a0a5f267&#45;&gt;dir_779b7fe04c534e1c9e8a4f91546856d6 -->
<g id="edge11" class="edge"><title>dir_927be10b65126484d1c3bd58a0a5f267&#45;&gt;dir_779b7fe04c534e1c9e8a4f91546856d6</title>
<path fill="none" stroke="black" d="M357,-87.8314C357,-80.131 357,-70.9743 357,-62.4166"/>
<polygon fill="black" stroke="black" points="360.5,-62.4132 357,-52.4133 353.5,-62.4133 360.5,-62.4132"/>
<a xlink:href="dir_000000_000009.html" target="_top" xlink:title="15">
<text text-anchor="middle" x="363.339" y="-63.5079" font-family="DejaVuSans" font-size="10.00">15</text>
</a>
</g>
<!-- dir_1444c9855d2f59b3e89b59437656ba05 -->
<g id="node4" class="node"><title>dir_1444c9855d2f59b3e89b59437656ba05</title>
<a xlink:href="dir_1444c9855d2f59b3e89b59437656ba05.html" target="_top" xlink:title="Config">
<polygon fill="white" stroke="black" points="312,-124 258,-124 258,-88 312,-88 312,-124"/>
<text text-anchor="middle" x="285" y="-103.5" font-family="DejaVuSans" font-size="10.00">Config</text>
</a>
</g>
<!-- dir_a3a22eb43f288fab1662d1622a9f0e96 -->
<g id="node5" class="node"><title>dir_a3a22eb43f288fab1662d1622a9f0e96</title>
<a xlink:href="dir_a3a22eb43f288fab1662d1622a9f0e96.html" target="_top" xlink:title="Datatypes">
<polygon fill="white" stroke="black" points="240,-124 174,-124 174,-88 240,-88 240,-124"/>
<text text-anchor="middle" x="207" y="-103.5" font-family="DejaVuSans" font-size="10.00">Datatypes</text>
</a>
</g>
<!-- dir_2df0f5fca2d48e40d7b6fdc4ae9d4c5a -->
<g id="node7" class="node"><title>dir_2df0f5fca2d48e40d7b6fdc4ae9d4c5a</title>
<a xlink:href="dir_2df0f5fca2d48e40d7b6fdc4ae9d4c5a.html" target="_top" xlink:title="Exceptions">
<polygon fill="white" stroke="black" points="156,-124 88,-124 88,-88 156,-88 156,-124"/>
<text text-anchor="middle" x="122" y="-103.5" font-family="DejaVuSans" font-size="10.00">Exceptions</text>
</a>
</g>
<!-- dir_0ebb47c5303c373633d25021b6f80160 -->
<g id="node9" class="node"><title>dir_0ebb47c5303c373633d25021b6f80160</title>
<a xlink:href="dir_0ebb47c5303c373633d25021b6f80160.html" target="_top" xlink:title="Parser">
<polygon fill="white" stroke="black" points="70,-124 16,-124 16,-88 70,-88 70,-124"/>
<text text-anchor="middle" x="43" y="-103.5" font-family="DejaVuSans" font-size="10.00">Parser</text>
</a>
</g>
</g>
</svg>
