<?xml version="1.0" encoding="UTF-8" standalone="no"?>
<!DOCTYPE svg PUBLIC "-//W3C//DTD SVG 1.1//EN"
 "http://www.w3.org/Graphics/SVG/1.1/DTD/svg11.dtd">
<!-- Generated by graphviz version 2.26.3 (20100126.1600)
 -->
<!-- Title: G Pages: 1 -->
<svg width="261pt" height="305pt"
 viewBox="0.00 0.00 261.19 305.00" xmlns="http://www.w3.org/2000/svg" xmlns:xlink="http://www.w3.org/1999/xlink">
<g id="graph1" class="graph" transform="scale(1 1) rotate(0) translate(4 301)">
<title>G</title>
<polygon fill="white" stroke="white" points="-4,5 -4,-301 258.186,-301 258.186,5 -4,5"/>
<g id="graph2" class="cluster"><title>clusterdir_927be10b65126484d1c3bd58a0a5f267</title>
<a xlink:href="dir_927be10b65126484d1c3bd58a0a5f267.html" target="_top" xlink:title="src">
<polygon fill="#ddddee" stroke="black" points="75.186,-128 75.186,-289 161.186,-289 161.186,-128 75.186,-128"/>
<text text-anchor="middle" x="118.186" y="-276" font-family="DejaVuSans" font-size="10.00">src</text>
</a>
</g>
<g id="graph3" class="cluster"><title>clusterdir_779b7fe04c534e1c9e8a4f91546856d6</title>
<a xlink:href="dir_779b7fe04c534e1c9e8a4f91546856d6.html" target="_top">
<polygon fill="#eeeeff" stroke="black" points="83.186,-136 83.186,-260 153.186,-260 153.186,-136 83.186,-136"/>
</a>
</g>
<!-- dir_779b7fe04c534e1c9e8a4f91546856d6 -->
<g id="node3" class="node"><title>dir_779b7fe04c534e1c9e8a4f91546856d6</title>
<text text-anchor="middle" x="118.186" y="-231.5" font-family="DejaVuSans" font-size="10.00">Widgets</text>
</g>
<!-- dir_c6cfa1dc0e7677ddb576f1ee38af1535 -->
<g id="node4" class="node"><title>dir_c6cfa1dc0e7677ddb576f1ee38af1535</title>
<a xlink:href="dir_c6cfa1dc0e7677ddb576f1ee38af1535.html" target="_top" xlink:title="Dialogs">
<polygon fill="white" stroke="black" points="145.186,-180 91.186,-180 91.186,-144 145.186,-144 145.186,-180"/>
<text text-anchor="middle" x="118.186" y="-159.5" font-family="DejaVuSans" font-size="10.00">Dialogs</text>
</a>
</g>
<!-- dir_779b7fe04c534e1c9e8a4f91546856d6&#45;&gt;dir_c6cfa1dc0e7677ddb576f1ee38af1535 -->
<g id="edge22" class="edge"><title>dir_779b7fe04c534e1c9e8a4f91546856d6&#45;&gt;dir_c6cfa1dc0e7677ddb576f1ee38af1535</title>
<path fill="none" stroke="black" d="M118.186,-215.831C118.186,-208.131 118.186,-198.974 118.186,-190.417"/>
<polygon fill="black" stroke="black" points="121.686,-190.413 118.186,-180.413 114.686,-190.413 121.686,-190.413"/>
<a xlink:href="dir_000009_000010.html" target="_top" xlink:title="4">
<text text-anchor="middle" x="124.525" y="-191.508" font-family="DejaVuSans" font-size="10.00">4</text>
</a>
</g>
<!-- dir_0ebb47c5303c373633d25021b6f80160 -->
<g id="node7" class="node"><title>dir_0ebb47c5303c373633d25021b6f80160</title>
<a xlink:href="dir_0ebb47c5303c373633d25021b6f80160.html" target="_top" xlink:title="Parser">
<polygon fill="none" stroke="black" points="253.186,-108 199.186,-108 199.186,-72 253.186,-72 253.186,-108"/>
<text text-anchor="middle" x="226.186" y="-87.5" font-family="DejaVuSans" font-size="10.00">Parser</text>
</a>
</g>
<!-- dir_779b7fe04c534e1c9e8a4f91546856d6&#45;&gt;dir_0ebb47c5303c373633d25021b6f80160 -->
<g id="edge18" class="edge"><title>dir_779b7fe04c534e1c9e8a4f91546856d6&#45;&gt;dir_0ebb47c5303c373633d25021b6f80160</title>
<path fill="none" stroke="black" d="M131.864,-215.762C150.772,-190.552 185.003,-144.91 206.615,-116.095"/>
<polygon fill="black" stroke="black" points="209.419,-118.19 212.619,-108.09 203.819,-113.99 209.419,-118.19"/>
<a xlink:href="dir_000009_000007.html" target="_top" xlink:title="1">
<text text-anchor="middle" x="209.533" y="-120.269" font-family="DejaVuSans" font-size="10.00">1</text>
</a>
</g>
<!-- dir_759016c8807118dc52b630efe201af7e -->
<g id="node8" class="node"><title>dir_759016c8807118dc52b630efe201af7e</title>
<a xlink:href="dir_759016c8807118dc52b630efe201af7e.html" target="_top" xlink:title="Calc">
<polygon fill="none" stroke="black" points="67.186,-180 13.186,-180 13.186,-144 67.186,-144 67.186,-180"/>
<text text-anchor="middle" x="40.186" y="-159.5" font-family="DejaVuSans" font-size="10.00">Calc</text>
</a>
</g>
<!-- dir_779b7fe04c534e1c9e8a4f91546856d6&#45;&gt;dir_759016c8807118dc52b630efe201af7e -->
<g id="edge20" class="edge"><title>dir_779b7fe04c534e1c9e8a4f91546856d6&#45;&gt;dir_759016c8807118dc52b630efe201af7e</title>
<path fill="none" stroke="black" d="M98.5033,-215.831C89.0809,-207.134 77.6459,-196.578 67.4064,-187.127"/>
<polygon fill="black" stroke="black" points="69.5845,-184.374 59.8624,-180.163 64.8365,-189.517 69.5845,-184.374"/>
<a xlink:href="dir_000009_000001.html" target="_top" xlink:title="2">
<text text-anchor="middle" x="74.1516" y="-182.226" font-family="DejaVuSans" font-size="10.00">2</text>
</a>
</g>
<!-- dir_1444c9855d2f59b3e89b59437656ba05 -->
<g id="node5" class="node"><title>dir_1444c9855d2f59b3e89b59437656ba05</title>
<a xlink:href="dir_1444c9855d2f59b3e89b59437656ba05.html" target="_top" xlink:title="Config">
<polygon fill="none" stroke="black" points="179.186,-36 125.186,-36 125.186,-1.77636e-14 179.186,-3.55271e-15 179.186,-36"/>
<text text-anchor="middle" x="152.186" y="-15.5" font-family="DejaVuSans" font-size="10.00">Config</text>
</a>
</g>
<!-- dir_c6cfa1dc0e7677ddb576f1ee38af1535&#45;&gt;dir_1444c9855d2f59b3e89b59437656ba05 -->
<g id="edge24" class="edge"><title>dir_c6cfa1dc0e7677ddb576f1ee38af1535&#45;&gt;dir_1444c9855d2f59b3e89b59437656ba05</title>
<path fill="none" stroke="black" d="M130.516,-143.866C136.698,-133.769 143.613,-120.702 147.186,-108 152.826,-87.9452 153.953,-64.4104 153.734,-46.4381"/>
<polygon fill="black" stroke="black" points="157.23,-46.2109 153.464,-36.3079 150.232,-46.3978 157.23,-46.2109"/>
<a xlink:href="dir_000010_000002.html" target="_top" xlink:title="3">
<text text-anchor="middle" x="160.164" y="-47.2285" font-family="DejaVuSans" font-size="10.00">3</text>
</a>
</g>
<!-- dir_665068cc650dcfd53928de23d65f6c21 -->
<g id="node6" class="node"><title>dir_665068cc650dcfd53928de23d65f6c21</title>
<a xlink:href="dir_665068cc650dcfd53928de23d65f6c21.html" target="_top" xlink:title="Storage">
<polygon fill="none" stroke="black" points="67.186,-108 13.186,-108 13.186,-72 67.186,-72 67.186,-108"/>
<text text-anchor="middle" x="40.186" y="-87.5" font-family="DejaVuSans" font-size="10.00">Storage</text>
</a>
</g>
<!-- dir_c6cfa1dc0e7677ddb576f1ee38af1535&#45;&gt;dir_665068cc650dcfd53928de23d65f6c21 -->
<g id="edge26" class="edge"><title>dir_c6cfa1dc0e7677ddb576f1ee38af1535&#45;&gt;dir_665068cc650dcfd53928de23d65f6c21</title>
<path fill="none" stroke="black" d="M102.586,-143.871C97.803,-138.596 92.4182,-132.93 87.186,-128 82.4752,-123.561 77.3056,-119.055 72.1719,-114.771"/>
<polygon fill="black" stroke="black" points="74.1646,-111.88 64.2052,-108.266 69.737,-117.302 74.1646,-111.88"/>
<a xlink:href="dir_000010_000008.html" target="_top" xlink:title="2">
<text text-anchor="middle" x="78.7446" y="-109.454" font-family="DejaVuSans" font-size="10.00">2</text>
</a>
</g>
<!-- dir_a3a22eb43f288fab1662d1622a9f0e96 -->
<g id="node9" class="node"><title>dir_a3a22eb43f288fab1662d1622a9f0e96</title>
<a xlink:href="dir_a3a22eb43f288fab1662d1622a9f0e96.html" target="_top" xlink:title="Datatypes">
<polygon fill="none" stroke="black" points="90.186,-36 24.186,-36 24.186,-1.77636e-14 90.186,-3.55271e-15 90.186,-36"/>
<text text-anchor="middle" x="57.186" y="-15.5" font-family="DejaVuSans" font-size="10.00">Datatypes</text>
</a>
</g>
<!-- dir_c6cfa1dc0e7677ddb576f1ee38af1535&#45;&gt;dir_a3a22eb43f288fab1662d1622a9f0e96 -->
<g id="edge28" class="edge"><title>dir_c6cfa1dc0e7677ddb576f1ee38af1535&#45;&gt;dir_a3a22eb43f288fab1662d1622a9f0e96</title>
<path fill="none" stroke="black" d="M110.46,-143.762C99.9643,-118.985 81.1079,-74.4714 68.8751,-45.5939"/>
<polygon fill="black" stroke="black" points="71.9724,-43.9323 64.849,-36.0896 65.5269,-46.6628 71.9724,-43.9323"/>
<a xlink:href="dir_000010_000003.html" target="_top" xlink:title="2">
<text text-anchor="middle" x="75.9888" y="-43.6347" font-family="DejaVuSans" font-size="10.00">2</text>
</a>
</g>
<!-- dir_665068cc650dcfd53928de23d65f6c21&#45;&gt;dir_1444c9855d2f59b3e89b59437656ba05 -->
<g id="edge4" class="edge"><title>dir_665068cc650dcfd53928de23d65f6c21&#45;&gt;dir_1444c9855d2f59b3e89b59437656ba05</title>
<path fill="none" stroke="black" d="M67.2981,-72.5708C82.0466,-63.0896 100.476,-51.2419 116.392,-41.0107"/>
<polygon fill="black" stroke="black" points="118.416,-43.87 124.935,-35.5182 114.631,-37.9817 118.416,-43.87"/>
<a xlink:href="dir_000008_000002.html" target="_top" xlink:title="2">
<text text-anchor="middle" x="116.928" y="-45.7021" font-family="DejaVuSans" font-size="10.00">2</text>
</a>
</g>
<!-- dir_665068cc650dcfd53928de23d65f6c21&#45;&gt;dir_a3a22eb43f288fab1662d1622a9f0e96 -->
<g id="edge6" class="edge"><title>dir_665068cc650dcfd53928de23d65f6c21&#45;&gt;dir_a3a22eb43f288fab1662d1622a9f0e96</title>
<path fill="none" stroke="black" d="M44.4759,-71.8314C46.294,-64.131 48.456,-54.9743 50.4766,-46.4166"/>
<polygon fill="black" stroke="black" points="53.9468,-46.95 52.8385,-36.4133 47.1341,-45.3414 53.9468,-46.95"/>
<a xlink:href="dir_000008_000003.html" target="_top" xlink:title="7">
<text text-anchor="middle" x="55.8841" y="-48.6008" font-family="DejaVuSans" font-size="10.00">7</text>
</a>
</g>
<!-- dir_0ebb47c5303c373633d25021b6f80160&#45;&gt;dir_1444c9855d2f59b3e89b59437656ba05 -->
<g id="edge14" class="edge"><title>dir_0ebb47c5303c373633d25021b6f80160&#45;&gt;dir_1444c9855d2f59b3e89b59437656ba05</title>
<path fill="none" stroke="black" d="M207.513,-71.8314C198.661,-63.219 187.937,-52.7851 178.297,-43.4048"/>
<polygon fill="black" stroke="black" points="180.461,-40.6279 170.853,-36.1628 175.58,-45.645 180.461,-40.6279"/>
<a xlink:href="dir_000007_000002.html" target="_top" xlink:title="1">
<text text-anchor="middle" x="185.018" y="-38.5996" font-family="DejaVuSans" font-size="10.00">1</text>
</a>
</g>
<!-- dir_0ebb47c5303c373633d25021b6f80160&#45;&gt;dir_a3a22eb43f288fab1662d1622a9f0e96 -->
<g id="edge16" class="edge"><title>dir_0ebb47c5303c373633d25021b6f80160&#45;&gt;dir_a3a22eb43f288fab1662d1622a9f0e96</title>
<path fill="none" stroke="black" d="M199.033,-78.432C172.228,-67.0121 130.846,-49.3818 99.684,-36.1057"/>
<polygon fill="black" stroke="black" points="100.94,-32.8365 90.3686,-32.137 98.1967,-39.2765 100.94,-32.8365"/>
<a xlink:href="dir_000007_000003.html" target="_top" xlink:title="2">
<text text-anchor="middle" x="105.36" y="-29.1333" font-family="DejaVuSans" font-size="10.00">2</text>
</a>
</g>
<!-- dir_759016c8807118dc52b630efe201af7e&#45;&gt;dir_1444c9855d2f59b3e89b59437656ba05 -->
<g id="edge8" class="edge"><title>dir_759016c8807118dc52b630efe201af7e&#45;&gt;dir_1444c9855d2f59b3e89b59437656ba05</title>
<path fill="none" stroke="black" d="M54.3709,-143.762C73.979,-118.552 109.478,-72.9103 131.89,-44.0952"/>
<polygon fill="black" stroke="black" points="134.74,-46.132 138.116,-36.0896 129.214,-41.8344 134.74,-46.132"/>
<a xlink:href="dir_000001_000002.html" target="_top" xlink:title="1">
<text text-anchor="middle" x="134.774" y="-48.2125" font-family="DejaVuSans" font-size="10.00">1</text>
</a>
</g>
<!-- dir_759016c8807118dc52b630efe201af7e&#45;&gt;dir_665068cc650dcfd53928de23d65f6c21 -->
<g id="edge10" class="edge"><title>dir_759016c8807118dc52b630efe201af7e&#45;&gt;dir_665068cc650dcfd53928de23d65f6c21</title>
<path fill="none" stroke="black" d="M40.186,-143.831C40.186,-136.131 40.186,-126.974 40.186,-118.417"/>
<polygon fill="black" stroke="black" points="43.6861,-118.413 40.186,-108.413 36.6861,-118.413 43.6861,-118.413"/>
<a xlink:href="dir_000001_000008.html" target="_top" xlink:title="1">
<text text-anchor="middle" x="46.5253" y="-119.508" font-family="DejaVuSans" font-size="10.00">1</text>
</a>
</g>
<!-- dir_759016c8807118dc52b630efe201af7e&#45;&gt;dir_a3a22eb43f288fab1662d1622a9f0e96 -->
<g id="edge12" class="edge"><title>dir_759016c8807118dc52b630efe201af7e&#45;&gt;dir_a3a22eb43f288fab1662d1622a9f0e96</title>
<path fill="none" stroke="black" d="M24.1956,-143.917C16.5322,-134.037 8.16945,-121.156 4.18603,-108 -0.450512,-92.6865 -1.86776,-86.8105 4.18603,-72 8.64523,-61.0907 16.4886,-51.1954 24.7963,-42.9434"/>
<polygon fill="black" stroke="black" points="27.1906,-45.4965 32.1432,-36.1305 22.4308,-40.3637 27.1906,-45.4965"/>
<a xlink:href="dir_000001_000003.html" target="_top" xlink:title="1">
<text text-anchor="middle" x="26.4854" y="-47.5225" font-family="DejaVuSans" font-size="10.00">1</text>
</a>
</g>
</g>
</svg>
