<?xml version="1.0" encoding="UTF-8" standalone="no"?>
<!DOCTYPE svg PUBLIC "-//W3C//DTD SVG 1.1//EN"
 "http://www.w3.org/Graphics/SVG/1.1/DTD/svg11.dtd">
<!-- Generated by graphviz version 2.26.3 (20100126.1600)
 -->
<!-- Title: G Pages: 1 -->
<svg width="624pt" height="148pt"
 viewBox="0.00 0.00 624.00 148.00" xmlns="http://www.w3.org/2000/svg" xmlns:xlink="http://www.w3.org/1999/xlink">
<g id="graph1" class="graph" transform="scale(1 1) rotate(0) translate(4 144)">
<title>G</title>
<polygon fill="white" stroke="white" points="-4,5 -4,-144 621,-144 621,5 -4,5"/>
<g id="graph2" class="cluster"><title>clusterdir_927be10b65126484d1c3bd58a0a5f267</title>
<a xlink:href="dir_927be10b65126484d1c3bd58a0a5f267.html" target="_top">
<polygon fill="#eeeeff" stroke="black" points="8,-8 8,-132 608,-132 608,-8 8,-8"/>
</a>
</g>
<!-- dir_927be10b65126484d1c3bd58a0a5f267 -->
<g id="node2" class="node"><title>dir_927be10b65126484d1c3bd58a0a5f267</title>
<text text-anchor="middle" x="310" y="-103.5" font-family="DejaVuSans" font-size="10.00">src</text>
</g>
<!-- dir_759016c8807118dc52b630efe201af7e -->
<g id="node3" class="node"><title>dir_759016c8807118dc52b630efe201af7e</title>
<a xlink:href="dir_759016c8807118dc52b630efe201af7e.html" target="_top" xlink:title="Calc">
<polygon fill="white" stroke="black" points="70,-52 16,-52 16,-16 70,-16 70,-52"/>
<text text-anchor="middle" x="43" y="-31.5" font-family="DejaVuSans" font-size="10.00">Calc</text>
</a>
</g>
<!-- dir_927be10b65126484d1c3bd58a0a5f267&#45;&gt;dir_759016c8807118dc52b630efe201af7e -->
<g id="edge11" class="edge"><title>dir_927be10b65126484d1c3bd58a0a5f267&#45;&gt;dir_759016c8807118dc52b630efe201af7e</title>
<path fill="none" stroke="black" d="M282.732,-101.757C240.617,-94.7537 157.308,-79.1029 79.6635,-51.8231"/>
<polygon fill="black" stroke="black" points="80.8203,-48.5198 70.2258,-48.4385 78.4572,-55.1089 80.8203,-48.5198"/>
<a xlink:href="dir_000000_000001.html" target="_top" xlink:title="2">
<text text-anchor="middle" x="85.1624" y="-44.5606" font-family="DejaVuSans" font-size="10.00">2</text>
</a>
</g>
<!-- dir_1444c9855d2f59b3e89b59437656ba05 -->
<g id="node4" class="node"><title>dir_1444c9855d2f59b3e89b59437656ba05</title>
<a xlink:href="dir_1444c9855d2f59b3e89b59437656ba05.html" target="_top" xlink:title="Config">
<polygon fill="white" stroke="black" points="142,-52 88,-52 88,-16 142,-16 142,-52"/>
<text text-anchor="middle" x="115" y="-31.5" font-family="DejaVuSans" font-size="10.00">Config</text>
</a>
</g>
<!-- dir_927be10b65126484d1c3bd58a0a5f267&#45;&gt;dir_1444c9855d2f59b3e89b59437656ba05 -->
<g id="edge5" class="edge"><title>dir_927be10b65126484d1c3bd58a0a5f267&#45;&gt;dir_1444c9855d2f59b3e89b59437656ba05</title>
<path fill="none" stroke="black" d="M282.859,-98.0201C252.745,-88.9001 202.644,-72.9397 151.83,-52.0982"/>
<polygon fill="black" stroke="black" points="152.915,-48.7591 142.338,-48.1504 150.227,-55.2223 152.915,-48.7591"/>
<a xlink:href="dir_000000_000002.html" target="_top" xlink:title="1">
<text text-anchor="middle" x="157.325" y="-45.0179" font-family="DejaVuSans" font-size="10.00">1</text>
</a>
</g>
<!-- dir_a3a22eb43f288fab1662d1622a9f0e96 -->
<g id="node5" class="node"><title>dir_a3a22eb43f288fab1662d1622a9f0e96</title>
<a xlink:href="dir_a3a22eb43f288fab1662d1622a9f0e96.html" target="_top" xlink:title="Datatypes">
<polygon fill="white" stroke="black" points="226,-52 160,-52 160,-16 226,-16 226,-52"/>
<text text-anchor="middle" x="193" y="-31.5" font-family="DejaVuSans" font-size="10.00">Datatypes</text>
</a>
</g>
<!-- dir_927be10b65126484d1c3bd58a0a5f267&#45;&gt;dir_a3a22eb43f288fab1662d1622a9f0e96 -->
<g id="edge17" class="edge"><title>dir_927be10b65126484d1c3bd58a0a5f267&#45;&gt;dir_a3a22eb43f288fab1662d1622a9f0e96</title>
<path fill="none" stroke="black" d="M282.864,-89.3008C267.458,-79.8201 247.931,-67.8039 231.019,-57.3962"/>
<polygon fill="black" stroke="black" points="232.799,-54.3824 222.449,-52.1222 229.131,-60.344 232.799,-54.3824"/>
<a xlink:href="dir_000000_000003.html" target="_top" xlink:title="2">
<text text-anchor="middle" x="237.349" y="-51.3482" font-family="DejaVuSans" font-size="10.00">2</text>
</a>
</g>
<!-- dir_ea7dd78835306cf84afd084f9f7febd4 -->
<g id="node6" class="node"><title>dir_ea7dd78835306cf84afd084f9f7febd4</title>
<a xlink:href="dir_ea7dd78835306cf84afd084f9f7febd4.html" target="_top" xlink:title="Draw">
<polygon fill="white" stroke="black" points="298,-52 244,-52 244,-16 298,-16 298,-52"/>
<text text-anchor="middle" x="271" y="-31.5" font-family="DejaVuSans" font-size="10.00">Draw</text>
</a>
</g>
<!-- dir_927be10b65126484d1c3bd58a0a5f267&#45;&gt;dir_ea7dd78835306cf84afd084f9f7febd4 -->
<g id="edge13" class="edge"><title>dir_927be10b65126484d1c3bd58a0a5f267&#45;&gt;dir_ea7dd78835306cf84afd084f9f7febd4</title>
<path fill="none" stroke="black" d="M300.159,-87.8314C295.804,-79.7925 290.59,-70.1666 285.783,-61.2918"/>
<polygon fill="black" stroke="black" points="288.814,-59.5392 280.974,-52.4133 282.659,-62.8732 288.814,-59.5392"/>
<a xlink:href="dir_000000_000004.html" target="_top" xlink:title="1">
<text text-anchor="middle" x="293.023" y="-58.8476" font-family="DejaVuSans" font-size="10.00">1</text>
</a>
</g>
<!-- dir_2df0f5fca2d48e40d7b6fdc4ae9d4c5a -->
<g id="node7" class="node"><title>dir_2df0f5fca2d48e40d7b6fdc4ae9d4c5a</title>
<a xlink:href="dir_2df0f5fca2d48e40d7b6fdc4ae9d4c5a.html" target="_top" xlink:title="Exceptions">
<polygon fill="white" stroke="black" points="384,-52 316,-52 316,-16 384,-16 384,-52"/>
<text text-anchor="middle" x="350" y="-31.5" font-family="DejaVuSans" font-size="10.00">Exceptions</text>
</a>
</g>
<!-- dir_927be10b65126484d1c3bd58a0a5f267&#45;&gt;dir_2df0f5fca2d48e40d7b6fdc4ae9d4c5a -->
<g id="edge9" class="edge"><title>dir_927be10b65126484d1c3bd58a0a5f267&#45;&gt;dir_2df0f5fca2d48e40d7b6fdc4ae9d4c5a</title>
<path fill="none" stroke="black" d="M320.094,-87.8314C324.56,-79.7925 329.907,-70.1666 334.838,-61.2918"/>
<polygon fill="black" stroke="black" points="337.973,-62.8546 339.77,-52.4133 331.854,-59.4551 337.973,-62.8546"/>
<a xlink:href="dir_000000_000005.html" target="_top" xlink:title="1">
<text text-anchor="middle" x="338.71" y="-64.8757" font-family="DejaVuSans" font-size="10.00">1</text>
</a>
</g>
<!-- dir_079ce77b2fd3157f11c98742374eea4a -->
<g id="node8" class="node"><title>dir_079ce77b2fd3157f11c98742374eea4a</title>
<a xlink:href="dir_079ce77b2fd3157f11c98742374eea4a.html" target="_top" xlink:title="IO">
<polygon fill="white" stroke="black" points="456,-52 402,-52 402,-16 456,-16 456,-52"/>
<text text-anchor="middle" x="429" y="-31.5" font-family="DejaVuSans" font-size="10.00">IO</text>
</a>
</g>
<!-- dir_927be10b65126484d1c3bd58a0a5f267&#45;&gt;dir_079ce77b2fd3157f11c98742374eea4a -->
<g id="edge3" class="edge"><title>dir_927be10b65126484d1c3bd58a0a5f267&#45;&gt;dir_079ce77b2fd3157f11c98742374eea4a</title>
<path fill="none" stroke="black" d="M337.003,-89.6621C353.47,-79.6986 374.728,-66.8366 392.661,-55.9868"/>
<polygon fill="black" stroke="black" points="394.948,-58.6937 401.692,-50.5225 391.324,-52.7046 394.948,-58.6937"/>
<a xlink:href="dir_000000_000006.html" target="_top" xlink:title="4">
<text text-anchor="middle" x="393.342" y="-60.4837" font-family="DejaVuSans" font-size="10.00">4</text>
</a>
</g>
<!-- dir_665068cc650dcfd53928de23d65f6c21 -->
<g id="node10" class="node"><title>dir_665068cc650dcfd53928de23d65f6c21</title>
<a xlink:href="dir_665068cc650dcfd53928de23d65f6c21.html" target="_top" xlink:title="Storage">
<polygon fill="white" stroke="black" points="528,-52 474,-52 474,-16 528,-16 528,-52"/>
<text text-anchor="middle" x="501" y="-31.5" font-family="DejaVuSans" font-size="10.00">Storage</text>
</a>
</g>
<!-- dir_927be10b65126484d1c3bd58a0a5f267&#45;&gt;dir_665068cc650dcfd53928de23d65f6c21 -->
<g id="edge7" class="edge"><title>dir_927be10b65126484d1c3bd58a0a5f267&#45;&gt;dir_665068cc650dcfd53928de23d65f6c21</title>
<path fill="none" stroke="black" d="M337.279,-97.6687C366.723,-88.4236 415.067,-72.5137 464.428,-52.0091"/>
<polygon fill="black" stroke="black" points="465.793,-55.2321 473.652,-48.1275 463.078,-48.7801 465.793,-55.2321"/>
<a xlink:href="dir_000000_000008.html" target="_top" xlink:title="4">
<text text-anchor="middle" x="463.581" y="-56.7433" font-family="DejaVuSans" font-size="10.00">4</text>
</a>
</g>
<!-- dir_779b7fe04c534e1c9e8a4f91546856d6 -->
<g id="node11" class="node"><title>dir_779b7fe04c534e1c9e8a4f91546856d6</title>
<a xlink:href="dir_779b7fe04c534e1c9e8a4f91546856d6.html" target="_top" xlink:title="Widgets">
<polygon fill="white" stroke="red" points="600,-52 546,-52 546,-16 600,-16 600,-52"/>
<text text-anchor="middle" x="573" y="-31.5" font-family="DejaVuSans" font-size="10.00">Widgets</text>
</a>
</g>
<!-- dir_927be10b65126484d1c3bd58a0a5f267&#45;&gt;dir_779b7fe04c534e1c9e8a4f91546856d6 -->
<g id="edge15" class="edge"><title>dir_927be10b65126484d1c3bd58a0a5f267&#45;&gt;dir_779b7fe04c534e1c9e8a4f91546856d6</title>
<path fill="none" stroke="black" d="M337.144,-101.63C378.555,-94.522 459.913,-78.8193 536.035,-51.9376"/>
<polygon fill="black" stroke="black" points="537.55,-55.1119 545.77,-48.4269 535.176,-48.527 537.55,-55.1119"/>
<a xlink:href="dir_000000_000009.html" target="_top" xlink:title="16">
<text text-anchor="middle" x="535.132" y="-56.5022" font-family="DejaVuSans" font-size="10.00">16</text>
</a>
</g>
<!-- dir_0ebb47c5303c373633d25021b6f80160 -->
<g id="node9" class="node"><title>dir_0ebb47c5303c373633d25021b6f80160</title>
<a xlink:href="dir_0ebb47c5303c373633d25021b6f80160.html" target="_top" xlink:title="Parser">
<polygon fill="white" stroke="black" points="187,-124 133,-124 133,-88 187,-88 187,-124"/>
<text text-anchor="middle" x="160" y="-103.5" font-family="DejaVuSans" font-size="10.00">Parser</text>
</a>
</g>
</g>
</svg>
