<?xml version="1.0" encoding="UTF-8" standalone="no"?>
<!DOCTYPE svg PUBLIC "-//W3C//DTD SVG 1.1//EN"
 "http://www.w3.org/Graphics/SVG/1.1/DTD/svg11.dtd">
<!-- Generated by graphviz version 2.26.3 (20100126.1600)
 -->
<!-- Title: G Pages: 1 -->
<svg width="167pt" height="297pt"
 viewBox="0.00 0.00 167.24 297.00" xmlns="http://www.w3.org/2000/svg" xmlns:xlink="http://www.w3.org/1999/xlink">
<g id="graph1" class="graph" transform="scale(1 1) rotate(0) translate(4 293)">
<title>G</title>
<polygon fill="white" stroke="white" points="-4,5 -4,-293 164.237,-293 164.237,5 -4,5"/>
<g id="graph2" class="cluster"><title>clusterdir_927be10b65126484d1c3bd58a0a5f267</title>
<a xlink:href="dir_927be10b65126484d1c3bd58a0a5f267.html" target="_top" xlink:title="src">
<polygon fill="#ddddee" stroke="black" points="57,-208 57,-281 127,-281 127,-208 57,-208"/>
<text text-anchor="middle" x="92" y="-268" font-family="DejaVuSans" font-size="10.00">src</text>
</a>
</g>
<!-- dir_ea7dd78835306cf84afd084f9f7febd4 -->
<g id="node2" class="node"><title>dir_ea7dd78835306cf84afd084f9f7febd4</title>
<a xlink:href="dir_ea7dd78835306cf84afd084f9f7febd4.html" target="_top" xlink:title="Draw">
<polygon fill="#eeeeff" stroke="black" points="119,-252 65,-252 65,-216 119,-216 119,-252"/>
<text text-anchor="middle" x="92" y="-231.5" font-family="DejaVuSans" font-size="10.00">Draw</text>
</a>
</g>
<!-- dir_1444c9855d2f59b3e89b59437656ba05 -->
<g id="node3" class="node"><title>dir_1444c9855d2f59b3e89b59437656ba05</title>
<a xlink:href="dir_1444c9855d2f59b3e89b59437656ba05.html" target="_top" xlink:title="Config">
<polygon fill="none" stroke="black" points="54,-36 2.13163e-14,-36 0,-1.77636e-14 54,-3.55271e-15 54,-36"/>
<text text-anchor="middle" x="27" y="-15.5" font-family="DejaVuSans" font-size="10.00">Config</text>
</a>
</g>
<!-- dir_ea7dd78835306cf84afd084f9f7febd4&#45;&gt;dir_1444c9855d2f59b3e89b59437656ba05 -->
<g id="edge13" class="edge"><title>dir_ea7dd78835306cf84afd084f9f7febd4&#45;&gt;dir_1444c9855d2f59b3e89b59437656ba05</title>
<path fill="none" stroke="black" d="M64.7308,-218.416C51.3398,-209.145 36.5031,-196.052 29,-180 8.79474,-136.774 14.4896,-79.6994 20.6312,-46.1111"/>
<polygon fill="black" stroke="black" points="24.1087,-46.5665 22.6087,-36.0784 17.2408,-45.2128 24.1087,-46.5665"/>
<a xlink:href="dir_000004_000002.html" target="_top" xlink:title="1">
<text text-anchor="middle" x="26.1993" y="-48.1423" font-family="DejaVuSans" font-size="10.00">1</text>
</a>
</g>
<!-- dir_665068cc650dcfd53928de23d65f6c21 -->
<g id="node4" class="node"><title>dir_665068cc650dcfd53928de23d65f6c21</title>
<a xlink:href="dir_665068cc650dcfd53928de23d65f6c21.html" target="_top" xlink:title="Storage">
<polygon fill="none" stroke="black" points="147,-108 93,-108 93,-72 147,-72 147,-108"/>
<text text-anchor="middle" x="120" y="-87.5" font-family="DejaVuSans" font-size="10.00">Storage</text>
</a>
</g>
<!-- dir_ea7dd78835306cf84afd084f9f7febd4&#45;&gt;dir_665068cc650dcfd53928de23d65f6c21 -->
<g id="edge15" class="edge"><title>dir_ea7dd78835306cf84afd084f9f7febd4&#45;&gt;dir_665068cc650dcfd53928de23d65f6c21</title>
<path fill="none" stroke="black" d="M95.5462,-215.762C100.343,-191.093 108.944,-146.86 114.561,-117.973"/>
<polygon fill="black" stroke="black" points="118.009,-118.574 116.483,-108.09 111.138,-117.238 118.009,-118.574"/>
<a xlink:href="dir_000004_000008.html" target="_top" xlink:title="2">
<text text-anchor="middle" x="120.111" y="-120.144" font-family="DejaVuSans" font-size="10.00">2</text>
</a>
</g>
<!-- dir_759016c8807118dc52b630efe201af7e -->
<g id="node5" class="node"><title>dir_759016c8807118dc52b630efe201af7e</title>
<a xlink:href="dir_759016c8807118dc52b630efe201af7e.html" target="_top" xlink:title="Calc">
<polygon fill="none" stroke="black" points="92,-180 38,-180 38,-144 92,-144 92,-180"/>
<text text-anchor="middle" x="65" y="-159.5" font-family="DejaVuSans" font-size="10.00">Calc</text>
</a>
</g>
<!-- dir_ea7dd78835306cf84afd084f9f7febd4&#45;&gt;dir_759016c8807118dc52b630efe201af7e -->
<g id="edge17" class="edge"><title>dir_ea7dd78835306cf84afd084f9f7febd4&#45;&gt;dir_759016c8807118dc52b630efe201af7e</title>
<path fill="none" stroke="black" d="M85.1868,-215.831C82.2356,-207.962 78.7142,-198.571 75.445,-189.853"/>
<polygon fill="black" stroke="black" points="78.6934,-188.548 71.905,-180.413 72.1391,-191.006 78.6934,-188.548"/>
<a xlink:href="dir_000004_000001.html" target="_top" xlink:title="1">
<text text-anchor="middle" x="82.614" y="-188.416" font-family="DejaVuSans" font-size="10.00">1</text>
</a>
</g>
<!-- dir_a3a22eb43f288fab1662d1622a9f0e96 -->
<g id="node6" class="node"><title>dir_a3a22eb43f288fab1662d1622a9f0e96</title>
<a xlink:href="dir_a3a22eb43f288fab1662d1622a9f0e96.html" target="_top" xlink:title="Datatypes">
<polygon fill="none" stroke="black" points="153,-36 87,-36 87,-1.77636e-14 153,-3.55271e-15 153,-36"/>
<text text-anchor="middle" x="120" y="-15.5" font-family="DejaVuSans" font-size="10.00">Datatypes</text>
</a>
</g>
<!-- dir_ea7dd78835306cf84afd084f9f7febd4&#45;&gt;dir_a3a22eb43f288fab1662d1622a9f0e96 -->
<g id="edge19" class="edge"><title>dir_ea7dd78835306cf84afd084f9f7febd4&#45;&gt;dir_a3a22eb43f288fab1662d1622a9f0e96</title>
<path fill="none" stroke="black" d="M104.745,-215.881C120.449,-192.329 146.248,-149.31 156,-108 159.676,-92.428 160.637,-87.3135 156,-72 153.044,-62.2355 147.675,-52.6229 141.97,-44.2762"/>
<polygon fill="black" stroke="black" points="144.713,-42.0973 135.99,-36.0831 139.059,-46.2239 144.713,-42.0973"/>
<a xlink:href="dir_000004_000003.html" target="_top" xlink:title="2">
<text text-anchor="middle" x="149.125" y="-40.827" font-family="DejaVuSans" font-size="10.00">2</text>
</a>
</g>
<!-- dir_665068cc650dcfd53928de23d65f6c21&#45;&gt;dir_1444c9855d2f59b3e89b59437656ba05 -->
<g id="edge3" class="edge"><title>dir_665068cc650dcfd53928de23d65f6c21&#45;&gt;dir_1444c9855d2f59b3e89b59437656ba05</title>
<path fill="none" stroke="black" d="M96.5322,-71.8314C84.9673,-62.8779 70.8596,-51.9558 58.3817,-42.2955"/>
<polygon fill="black" stroke="black" points="60.5102,-39.5171 50.4603,-36.1628 56.225,-45.0521 60.5102,-39.5171"/>
<a xlink:href="dir_000008_000002.html" target="_top" xlink:title="2">
<text text-anchor="middle" x="65.0906" y="-36.9725" font-family="DejaVuSans" font-size="10.00">2</text>
</a>
</g>
<!-- dir_665068cc650dcfd53928de23d65f6c21&#45;&gt;dir_a3a22eb43f288fab1662d1622a9f0e96 -->
<g id="edge5" class="edge"><title>dir_665068cc650dcfd53928de23d65f6c21&#45;&gt;dir_a3a22eb43f288fab1662d1622a9f0e96</title>
<path fill="none" stroke="black" d="M120,-71.8314C120,-64.131 120,-54.9743 120,-46.4166"/>
<polygon fill="black" stroke="black" points="123.5,-46.4132 120,-36.4133 116.5,-46.4133 123.5,-46.4132"/>
<a xlink:href="dir_000008_000003.html" target="_top" xlink:title="7">
<text text-anchor="middle" x="126.339" y="-47.5079" font-family="DejaVuSans" font-size="10.00">7</text>
</a>
</g>
<!-- dir_759016c8807118dc52b630efe201af7e&#45;&gt;dir_1444c9855d2f59b3e89b59437656ba05 -->
<g id="edge7" class="edge"><title>dir_759016c8807118dc52b630efe201af7e&#45;&gt;dir_1444c9855d2f59b3e89b59437656ba05</title>
<path fill="none" stroke="black" d="M60.1873,-143.762C53.6773,-119.093 42.0047,-74.8598 34.3818,-45.9731"/>
<polygon fill="black" stroke="black" points="37.7094,-44.8656 31.7736,-36.0896 30.9411,-46.6517 37.7094,-44.8656"/>
<a xlink:href="dir_000001_000002.html" target="_top" xlink:title="1">
<text text-anchor="middle" x="41.3718" y="-45.1168" font-family="DejaVuSans" font-size="10.00">1</text>
</a>
</g>
<!-- dir_759016c8807118dc52b630efe201af7e&#45;&gt;dir_665068cc650dcfd53928de23d65f6c21 -->
<g id="edge9" class="edge"><title>dir_759016c8807118dc52b630efe201af7e&#45;&gt;dir_665068cc650dcfd53928de23d65f6c21</title>
<path fill="none" stroke="black" d="M78.8788,-143.831C85.2136,-135.539 92.8384,-125.557 99.7926,-116.453"/>
<polygon fill="black" stroke="black" points="102.645,-118.485 105.934,-108.413 97.0825,-114.235 102.645,-118.485"/>
<a xlink:href="dir_000001_000008.html" target="_top" xlink:title="1">
<text text-anchor="middle" x="102.719" y="-120.565" font-family="DejaVuSans" font-size="10.00">1</text>
</a>
</g>
<!-- dir_759016c8807118dc52b630efe201af7e&#45;&gt;dir_a3a22eb43f288fab1662d1622a9f0e96 -->
<g id="edge11" class="edge"><title>dir_759016c8807118dc52b630efe201af7e&#45;&gt;dir_a3a22eb43f288fab1662d1622a9f0e96</title>
<path fill="none" stroke="black" d="M66.7905,-143.808C69.0888,-125.188 74.0345,-95.7008 84,-72 87.9544,-62.5953 93.6152,-53.0879 99.2805,-44.727"/>
<polygon fill="black" stroke="black" points="102.196,-46.6664 105.115,-36.4815 96.4816,-42.6231 102.196,-46.6664"/>
<a xlink:href="dir_000001_000003.html" target="_top" xlink:title="1">
<text text-anchor="middle" x="102.437" y="-48.7406" font-family="DejaVuSans" font-size="10.00">1</text>
</a>
</g>
</g>
</svg>
