<?xml version="1.0" encoding="UTF-8" standalone="no"?>
<!DOCTYPE svg PUBLIC "-//W3C//DTD SVG 1.1//EN"
 "http://www.w3.org/Graphics/SVG/1.1/DTD/svg11.dtd">
<!-- Generated by graphviz version 2.26.3 (20100126.1600)
 -->
<!-- Title: G Pages: 1 -->
<svg width="208pt" height="70pt"
 viewBox="0.00 0.00 208.00 70.00" xmlns="http://www.w3.org/2000/svg" xmlns:xlink="http://www.w3.org/1999/xlink">
<g id="graph1" class="graph" transform="scale(1 1) rotate(0) translate(4 66)">
<title>G</title>
<polygon fill="white" stroke="white" points="-4,5 -4,-66 205,-66 205,5 -4,5"/>
<!-- Node1 -->
<g id="node1" class="node"><title>Node1</title>
<a xlink:href="class_read_xml.html" target="_top" xlink:title="List aus Xml&#45;Dateien.">
<polygon fill="white" stroke="black" points="0,-20.5 0,-41.5 58,-41.5 58,-20.5 0,-20.5"/>
<text text-anchor="middle" x="29" y="-28.5" font-family="DejaVuSans" font-size="10.00">ReadXml</text>
</a>
</g>
<!-- Node2 -->
<g id="node3" class="node"><title>Node2</title>
<a xlink:href="class_read_xml_character.html" target="_top" xlink:title="Liest die gespeicherten Charakterwerte in das Programm.">
<polygon fill="white" stroke="black" points="94.5,-40.5 94.5,-61.5 199.5,-61.5 199.5,-40.5 94.5,-40.5"/>
<text text-anchor="middle" x="147" y="-48.5" font-family="DejaVuSans" font-size="10.00">ReadXmlCharacter</text>
</a>
</g>
<!-- Node1&#45;&gt;Node2 -->
<g id="edge2" class="edge"><title>Node1&#45;&gt;Node2</title>
<path fill="none" stroke="midnightblue" d="M68.0481,-37.6183C76.4397,-39.0406 85.4417,-40.5664 94.2554,-42.0602"/>
<polygon fill="midnightblue" stroke="midnightblue" points="68.6128,-34.1642 58.1685,-35.9438 67.443,-41.0658 68.6128,-34.1642"/>
</g>
<!-- Node3 -->
<g id="node5" class="node"><title>Node3</title>
<a xlink:href="class_read_xml_template.html" target="_top" xlink:title="Liest die Eigenschaften aus den beigefügten xml&#45;Dateien.">
<polygon fill="white" stroke="black" points="96.5,-0.5 96.5,-21.5 197.5,-21.5 197.5,-0.5 96.5,-0.5"/>
<text text-anchor="middle" x="147" y="-8.5" font-family="DejaVuSans" font-size="10.00">ReadXmlTemplate</text>
</a>
</g>
<!-- Node1&#45;&gt;Node3 -->
<g id="edge4" class="edge"><title>Node1&#45;&gt;Node3</title>
<path fill="none" stroke="midnightblue" d="M68.2696,-24.3441C77.1889,-22.8324 86.7882,-21.2054 96.1119,-19.6251"/>
<polygon fill="midnightblue" stroke="midnightblue" points="67.443,-20.9342 58.1685,-26.0562 68.6128,-27.8358 67.443,-20.9342"/>
</g>
</g>
</svg>
