<?xml version="1.0" encoding="UTF-8" standalone="no"?>
<!DOCTYPE svg PUBLIC "-//W3C//DTD SVG 1.1//EN"
 "http://www.w3.org/Graphics/SVG/1.1/DTD/svg11.dtd">
<!-- Generated by graphviz version 2.26.3 (20100126.1600)
 -->
<!-- Title: G Pages: 1 -->
<svg width="340pt" height="30pt"
 viewBox="0.00 0.00 340.00 30.00" xmlns="http://www.w3.org/2000/svg" xmlns:xlink="http://www.w3.org/1999/xlink">
<g id="graph1" class="graph" transform="scale(1 1) rotate(0) translate(4 26)">
<title>G</title>
<polygon fill="white" stroke="white" points="-4,5 -4,-26 337,-26 337,5 -4,5"/>
<!-- Node1 -->
<g id="node1" class="node"><title>Node1</title>
<a xlink:href="class_checked_list.html" target="_top" xlink:title="Erzeugt eine Liste, in welcher der Inhalt abgehakt werden kann.">
<polygon fill="white" stroke="black" points="0,-0.5 0,-21.5 74,-21.5 74,-0.5 0,-0.5"/>
<text text-anchor="middle" x="37" y="-8.5" font-family="DejaVuSans" font-size="10.00">CheckedList</text>
</a>
</g>
<!-- Node2 -->
<g id="node3" class="node"><title>Node2</title>
<a xlink:href="class_trait_specialties.html" target="_top" xlink:title="Die darstellung von Spezialisierungen in der GUI.">
<polygon fill="white" stroke="black" points="110,-0.5 110,-21.5 198,-21.5 198,-0.5 110,-0.5"/>
<text text-anchor="middle" x="154" y="-8.5" font-family="DejaVuSans" font-size="10.00">TraitSpecialties</text>
</a>
</g>
<!-- Node1&#45;&gt;Node2 -->
<g id="edge2" class="edge"><title>Node1&#45;&gt;Node2</title>
<path fill="none" stroke="midnightblue" d="M84.1544,-11C92.6392,-11 101.455,-11 109.851,-11"/>
<polygon fill="midnightblue" stroke="midnightblue" points="84.0196,-7.5001 74.0195,-11 84.0195,-14.5001 84.0196,-7.5001"/>
</g>
<!-- Node3 -->
<g id="node5" class="node"><title>Node3</title>
<a xlink:href="class_chara_specialties.html" target="_top" xlink:title="Diese Spezialisierungen werden direkt mit dem Charakter verknüpft.">
<polygon fill="white" stroke="black" points="234.5,-0.5 234.5,-21.5 331.5,-21.5 331.5,-0.5 234.5,-0.5"/>
<text text-anchor="middle" x="283" y="-8.5" font-family="DejaVuSans" font-size="10.00">CharaSpecialties</text>
</a>
</g>
<!-- Node2&#45;&gt;Node3 -->
<g id="edge4" class="edge"><title>Node2&#45;&gt;Node3</title>
<path fill="none" stroke="midnightblue" d="M208.085,-11C216.782,-11 225.739,-11 234.3,-11"/>
<polygon fill="midnightblue" stroke="midnightblue" points="208.034,-7.5001 198.034,-11 208.034,-14.5001 208.034,-7.5001"/>
</g>
</g>
</svg>
