<?xml version="1.0" encoding="UTF-8" standalone="no"?>
<!DOCTYPE svg PUBLIC "-//W3C//DTD SVG 1.1//EN"
 "http://www.w3.org/Graphics/SVG/1.1/DTD/svg11.dtd">
<!-- Generated by graphviz version 2.26.3 (20100126.1600)
 -->
<!-- Title: G Pages: 1 -->
<svg width="448pt" height="70pt"
 viewBox="0.00 0.00 448.00 70.00" xmlns="http://www.w3.org/2000/svg" xmlns:xlink="http://www.w3.org/1999/xlink">
<g id="graph1" class="graph" transform="scale(1 1) rotate(0) translate(4 66)">
<title>G</title>
<polygon fill="white" stroke="white" points="-4,5 -4,-66 445,-66 445,5 -4,5"/>
<!-- Node1 -->
<g id="node1" class="node"><title>Node1</title>
<a xlink:href="classsrc_1_1_datatypes_1_1_basic_trait_1_1_basic_trait.html" target="_top" xlink:title="Speichert alle Eigenschaften einer einzigen Charaktereigenschaft.">
<polygon fill="white" stroke="black" points="0.5,-20.5 0.5,-41.5 179.5,-41.5 179.5,-20.5 0.5,-20.5"/>
<text text-anchor="middle" x="90" y="-28.5" font-family="DejaVuSans" font-size="10.00">src.Datatypes.BasicTrait.BasicTrait</text>
</a>
</g>
<!-- Node2 -->
<g id="node3" class="node"><title>Node2</title>
<a xlink:href="classsrc_1_1_datatypes_1_1_standard_trait_1_1_standard_trait.html" target="_top" xlink:title="Speichert alle Eigenschaften einer einzigen Charaktereigenschaft.">
<polygon fill="white" stroke="black" points="219.5,-40.5 219.5,-61.5 436.5,-61.5 436.5,-40.5 219.5,-40.5"/>
<text text-anchor="middle" x="328" y="-48.5" font-family="DejaVuSans" font-size="10.00">src.Datatypes.StandardTrait.StandardTrait</text>
</a>
</g>
<!-- Node1&#45;&gt;Node2 -->
<g id="edge2" class="edge"><title>Node1&#45;&gt;Node2</title>
<path fill="none" stroke="midnightblue" d="M189.713,-39.3792C199.453,-40.1977 209.37,-41.0311 219.193,-41.8566"/>
<polygon fill="midnightblue" stroke="midnightblue" points="189.896,-35.8824 179.638,-38.5326 189.31,-42.8578 189.896,-35.8824"/>
</g>
<!-- Node3 -->
<g id="node5" class="node"><title>Node3</title>
<a xlink:href="classsrc_1_1_datatypes_1_1_sub_power_trait_1_1_sub_power_trait.html" target="_top" xlink:title="Speichert alle Eigenschaften einer einzigen Charaktereigenschaft.">
<polygon fill="white" stroke="black" points="216.5,-0.5 216.5,-21.5 439.5,-21.5 439.5,-0.5 216.5,-0.5"/>
<text text-anchor="middle" x="328" y="-8.5" font-family="DejaVuSans" font-size="10.00">src.Datatypes.SubPowerTrait.SubPowerTrait</text>
</a>
</g>
<!-- Node1&#45;&gt;Node3 -->
<g id="edge4" class="edge"><title>Node1&#45;&gt;Node3</title>
<path fill="none" stroke="midnightblue" d="M189.845,-22.6097C198.605,-21.8736 207.507,-21.1255 216.355,-20.382"/>
<polygon fill="midnightblue" stroke="midnightblue" points="189.31,-19.1422 179.638,-23.4674 189.896,-26.1176 189.31,-19.1422"/>
</g>
</g>
</svg>
