<?xml version="1.0" encoding="UTF-8" standalone="no"?>
<!DOCTYPE svg PUBLIC "-//W3C//DTD SVG 1.1//EN"
 "http://www.w3.org/Graphics/SVG/1.1/DTD/svg11.dtd">
<!-- Generated by graphviz version 2.26.3 (20100126.1600)
 -->
<!-- Title: G Pages: 1 -->
<svg width="726pt" height="370pt"
 viewBox="0.00 0.00 726.00 370.00" xmlns="http://www.w3.org/2000/svg" xmlns:xlink="http://www.w3.org/1999/xlink">
<g id="graph1" class="graph" transform="scale(1 1) rotate(0) translate(4 366)">
<title>G</title>
<polygon fill="white" stroke="white" points="-4,5 -4,-366 723,-366 723,5 -4,5"/>
<!-- Node1 -->
<g id="node1" class="node"><title>Node1</title>
<a xlink:href="class_exception.html" target="_top" xlink:title="Exception">
<polygon fill="white" stroke="black" points="0.5,-180.5 0.5,-201.5 63.5,-201.5 63.5,-180.5 0.5,-180.5"/>
<text text-anchor="middle" x="32" y="-188.5" font-family="DejaVuSans" font-size="10.00">Exception</text>
</a>
</g>
<!-- Node2 -->
<g id="node3" class="node"><title>Node2</title>
<a xlink:href="classsrc_1_1_error_1_1_err.html" target="_top" xlink:title="Basisklasse für die Ausnahmebehandlung.">
<polygon fill="white" stroke="black" points="100.5,-180.5 100.5,-201.5 173.5,-201.5 173.5,-180.5 100.5,-180.5"/>
<text text-anchor="middle" x="137" y="-188.5" font-family="DejaVuSans" font-size="10.00">src.Error.Err</text>
</a>
</g>
<!-- Node1&#45;&gt;Node2 -->
<g id="edge2" class="edge"><title>Node1&#45;&gt;Node2</title>
<path fill="none" stroke="midnightblue" d="M73.6142,-191C82.4497,-191 91.7153,-191 100.35,-191"/>
<polygon fill="midnightblue" stroke="midnightblue" points="73.5035,-187.5 63.5035,-191 73.5034,-194.5 73.5035,-187.5"/>
</g>
<!-- Node3 -->
<g id="node5" class="node"><title>Node3</title>
<a xlink:href="classsrc_1_1_error_1_1_err_file.html" target="_top" xlink:title="Ausnahme im Datei&#45;Management.">
<polygon fill="white" stroke="black" points="221,-300.5 221,-321.5 309,-321.5 309,-300.5 221,-300.5"/>
<text text-anchor="middle" x="265" y="-308.5" font-family="DejaVuSans" font-size="10.00">src.Error.ErrFile</text>
</a>
</g>
<!-- Node2&#45;&gt;Node3 -->
<g id="edge4" class="edge"><title>Node2&#45;&gt;Node3</title>
<path fill="none" stroke="midnightblue" d="M155.972,-208.786C182.904,-234.035 231.398,-279.498 253.482,-300.202"/>
<polygon fill="midnightblue" stroke="midnightblue" points="158.048,-205.935 148.359,-201.649 153.261,-211.042 158.048,-205.935"/>
</g>
<!-- Node6 -->
<g id="node11" class="node"><title>Node6</title>
<a xlink:href="classsrc_1_1_error_1_1_err_list.html" target="_top" xlink:title="Ausnahme bei Listen.">
<polygon fill="white" stroke="black" points="220.5,-220.5 220.5,-241.5 309.5,-241.5 309.5,-220.5 220.5,-220.5"/>
<text text-anchor="middle" x="265" y="-228.5" font-family="DejaVuSans" font-size="10.00">src.Error.ErrList</text>
</a>
</g>
<!-- Node2&#45;&gt;Node6 -->
<g id="edge10" class="edge"><title>Node2&#45;&gt;Node6</title>
<path fill="none" stroke="midnightblue" d="M180.607,-204.627C197.123,-209.789 215.663,-215.582 231.15,-220.422"/>
<polygon fill="midnightblue" stroke="midnightblue" points="181.219,-201.152 170.63,-201.51 179.131,-207.833 181.219,-201.152"/>
</g>
<!-- Node9 -->
<g id="node17" class="node"><title>Node9</title>
<a xlink:href="classsrc_1_1_error_1_1_err_species.html" target="_top" xlink:title="src.Error.ErrSpecies">
<polygon fill="white" stroke="black" points="210,-180.5 210,-201.5 320,-201.5 320,-180.5 210,-180.5"/>
<text text-anchor="middle" x="265" y="-188.5" font-family="DejaVuSans" font-size="10.00">src.Error.ErrSpecies</text>
</a>
</g>
<!-- Node2&#45;&gt;Node9 -->
<g id="edge16" class="edge"><title>Node2&#45;&gt;Node9</title>
<path fill="none" stroke="midnightblue" d="M183.72,-191C192.163,-191 201.04,-191 209.701,-191"/>
<polygon fill="midnightblue" stroke="midnightblue" points="183.68,-187.5 173.68,-191 183.68,-194.5 183.68,-187.5"/>
</g>
<!-- Node11 -->
<g id="node21" class="node"><title>Node11</title>
<a xlink:href="classsrc_1_1_error_1_1_err_trait.html" target="_top" xlink:title="Ausnahme, falls Fehler bei den Eigenschaften auftritt.">
<polygon fill="white" stroke="black" points="219,-140.5 219,-161.5 311,-161.5 311,-140.5 219,-140.5"/>
<text text-anchor="middle" x="265" y="-148.5" font-family="DejaVuSans" font-size="10.00">src.Error.ErrTrait</text>
</a>
</g>
<!-- Node2&#45;&gt;Node11 -->
<g id="edge20" class="edge"><title>Node2&#45;&gt;Node11</title>
<path fill="none" stroke="midnightblue" d="M180.607,-177.373C197.123,-172.211 215.663,-166.418 231.15,-161.578"/>
<polygon fill="midnightblue" stroke="midnightblue" points="179.131,-174.167 170.63,-180.49 181.219,-180.848 179.131,-174.167"/>
</g>
<!-- Node14 -->
<g id="node27" class="node"><title>Node14</title>
<a xlink:href="classsrc_1_1_error_1_1_err_xml.html" target="_top" xlink:title="Ausnahme beim Lesen der XML&#45;Datei.">
<polygon fill="white" stroke="black" points="219.5,-60.5 219.5,-81.5 310.5,-81.5 310.5,-60.5 219.5,-60.5"/>
<text text-anchor="middle" x="265" y="-68.5" font-family="DejaVuSans" font-size="10.00">src.Error.ErrXml</text>
</a>
</g>
<!-- Node2&#45;&gt;Node14 -->
<g id="edge26" class="edge"><title>Node2&#45;&gt;Node14</title>
<path fill="none" stroke="midnightblue" d="M155.972,-173.214C182.904,-147.965 231.398,-102.502 253.482,-81.7978"/>
<polygon fill="midnightblue" stroke="midnightblue" points="153.261,-170.958 148.359,-180.351 158.048,-176.065 153.261,-170.958"/>
</g>
<!-- Node4 -->
<g id="node7" class="node"><title>Node4</title>
<a xlink:href="classsrc_1_1_error_1_1_err_file_not_deleted.html" target="_top" xlink:title="Datei kann nicht gelöscht werden.">
<polygon fill="white" stroke="black" points="368.5,-340.5 368.5,-361.5 511.5,-361.5 511.5,-340.5 368.5,-340.5"/>
<text text-anchor="middle" x="440" y="-348.5" font-family="DejaVuSans" font-size="10.00">src.Error.ErrFileNotDeleted</text>
</a>
</g>
<!-- Node3&#45;&gt;Node4 -->
<g id="edge6" class="edge"><title>Node3&#45;&gt;Node4</title>
<path fill="none" stroke="midnightblue" d="M319.173,-323.382C343.157,-328.865 371.07,-335.245 394.021,-340.49"/>
<polygon fill="midnightblue" stroke="midnightblue" points="319.688,-319.91 309.16,-321.094 318.129,-326.734 319.688,-319.91"/>
</g>
<!-- Node5 -->
<g id="node9" class="node"><title>Node5</title>
<a xlink:href="classsrc_1_1_error_1_1_err_file_not_opened.html" target="_top" xlink:title="Datei kann nicht geöffnet werden.">
<polygon fill="white" stroke="black" points="368.5,-300.5 368.5,-321.5 511.5,-321.5 511.5,-300.5 368.5,-300.5"/>
<text text-anchor="middle" x="440" y="-308.5" font-family="DejaVuSans" font-size="10.00">src.Error.ErrFileNotOpened</text>
</a>
</g>
<!-- Node3&#45;&gt;Node5 -->
<g id="edge8" class="edge"><title>Node3&#45;&gt;Node5</title>
<path fill="none" stroke="midnightblue" d="M319.554,-311C334.98,-311 352.004,-311 368.276,-311"/>
<polygon fill="midnightblue" stroke="midnightblue" points="319.16,-307.5 309.16,-311 319.16,-314.5 319.16,-307.5"/>
</g>
<!-- Node7 -->
<g id="node13" class="node"><title>Node7</title>
<a xlink:href="classsrc_1_1_error_1_1_err_index_exceeds_range.html" target="_top" xlink:title="Index überschreitet Listengröße.">
<polygon fill="white" stroke="black" points="356,-260.5 356,-281.5 524,-281.5 524,-260.5 356,-260.5"/>
<text text-anchor="middle" x="440" y="-268.5" font-family="DejaVuSans" font-size="10.00">src.Error.ErrIndexExceedsRange</text>
</a>
</g>
<!-- Node6&#45;&gt;Node7 -->
<g id="edge12" class="edge"><title>Node6&#45;&gt;Node7</title>
<path fill="none" stroke="midnightblue" d="M319.581,-243.476C343.447,-248.931 371.137,-255.26 393.943,-260.473"/>
<polygon fill="midnightblue" stroke="midnightblue" points="320.141,-240.014 309.613,-241.197 318.581,-246.838 320.141,-240.014"/>
</g>
<!-- Node8 -->
<g id="node15" class="node"><title>Node8</title>
<a xlink:href="classsrc_1_1_error_1_1_err_list_length.html" target="_top" xlink:title="Listenlänge stimmt nicht mit erwartetem Wert überein.">
<polygon fill="white" stroke="black" points="379,-220.5 379,-241.5 501,-241.5 501,-220.5 379,-220.5"/>
<text text-anchor="middle" x="440" y="-228.5" font-family="DejaVuSans" font-size="10.00">src.Error.ErrListLength</text>
</a>
</g>
<!-- Node6&#45;&gt;Node8 -->
<g id="edge14" class="edge"><title>Node6&#45;&gt;Node8</title>
<path fill="none" stroke="midnightblue" d="M319.782,-231C338.57,-231 359.71,-231 378.962,-231"/>
<polygon fill="midnightblue" stroke="midnightblue" points="319.613,-227.5 309.613,-231 319.613,-234.5 319.613,-227.5"/>
</g>
<!-- Node10 -->
<g id="node19" class="node"><title>Node10</title>
<a xlink:href="classsrc_1_1_error_1_1_err_species_not_existing.html" target="_top" xlink:title="src.Error.ErrSpeciesNotExisting">
<polygon fill="white" stroke="black" points="358,-180.5 358,-201.5 522,-201.5 522,-180.5 358,-180.5"/>
<text text-anchor="middle" x="440" y="-188.5" font-family="DejaVuSans" font-size="10.00">src.Error.ErrSpeciesNotExisting</text>
</a>
</g>
<!-- Node9&#45;&gt;Node10 -->
<g id="edge18" class="edge"><title>Node9&#45;&gt;Node10</title>
<path fill="none" stroke="midnightblue" d="M330.621,-191C339.498,-191 348.696,-191 357.816,-191"/>
<polygon fill="midnightblue" stroke="midnightblue" points="330.371,-187.5 320.371,-191 330.371,-194.5 330.371,-187.5"/>
</g>
<!-- Node12 -->
<g id="node23" class="node"><title>Node12</title>
<a xlink:href="classsrc_1_1_error_1_1_err_trait_category.html" target="_top" xlink:title="Ausnahme, falls eine falsche Kategorie genutzt wird.">
<polygon fill="white" stroke="black" points="372,-140.5 372,-161.5 508,-161.5 508,-140.5 372,-140.5"/>
<text text-anchor="middle" x="440" y="-148.5" font-family="DejaVuSans" font-size="10.00">src.Error.ErrTraitCategory</text>
</a>
</g>
<!-- Node11&#45;&gt;Node12 -->
<g id="edge22" class="edge"><title>Node11&#45;&gt;Node12</title>
<path fill="none" stroke="midnightblue" d="M321.707,-151C337.722,-151 355.314,-151 371.923,-151"/>
<polygon fill="midnightblue" stroke="midnightblue" points="321.437,-147.5 311.437,-151 321.437,-154.5 321.437,-147.5"/>
</g>
<!-- Node13 -->
<g id="node25" class="node"><title>Node13</title>
<a xlink:href="classsrc_1_1_error_1_1_err_trait_type.html" target="_top" xlink:title="Ausnahme, falls ein falscher Typ genutzt wird.">
<polygon fill="white" stroke="black" points="383.5,-100.5 383.5,-121.5 496.5,-121.5 496.5,-100.5 383.5,-100.5"/>
<text text-anchor="middle" x="440" y="-108.5" font-family="DejaVuSans" font-size="10.00">src.Error.ErrTraitType</text>
</a>
</g>
<!-- Node11&#45;&gt;Node13 -->
<g id="edge24" class="edge"><title>Node11&#45;&gt;Node13</title>
<path fill="none" stroke="midnightblue" d="M320.853,-138.234C344.454,-132.839 371.607,-126.633 394.024,-121.509"/>
<polygon fill="midnightblue" stroke="midnightblue" points="319.948,-134.85 310.979,-140.49 321.508,-141.674 319.948,-134.85"/>
</g>
<!-- Node15 -->
<g id="node29" class="node"><title>Node15</title>
<a xlink:href="classsrc_1_1_error_1_1_err_xml_parsing.html" target="_top" xlink:title="Beim Parsen der XML&#45;Datei trat ein Fehler auf.">
<polygon fill="white" stroke="black" points="377.5,-60.5 377.5,-81.5 502.5,-81.5 502.5,-60.5 377.5,-60.5"/>
<text text-anchor="middle" x="440" y="-68.5" font-family="DejaVuSans" font-size="10.00">src.Error.ErrXmlParsing</text>
</a>
</g>
<!-- Node14&#45;&gt;Node15 -->
<g id="edge28" class="edge"><title>Node14&#45;&gt;Node15</title>
<path fill="none" stroke="midnightblue" d="M320.583,-71C338.612,-71 358.737,-71 377.251,-71"/>
<polygon fill="midnightblue" stroke="midnightblue" points="320.522,-67.5001 310.522,-71 320.522,-74.5001 320.522,-67.5001"/>
</g>
<!-- Node16 -->
<g id="node31" class="node"><title>Node16</title>
<a xlink:href="classsrc_1_1_error_1_1_err_xml_version.html" target="_top" xlink:title="Die XML&#45;Datei weist die falsche Version auf.">
<polygon fill="white" stroke="black" points="377,-20.5 377,-41.5 503,-41.5 503,-20.5 377,-20.5"/>
<text text-anchor="middle" x="440" y="-28.5" font-family="DejaVuSans" font-size="10.00">src.Error.ErrXmlVersion</text>
</a>
</g>
<!-- Node14&#45;&gt;Node16 -->
<g id="edge30" class="edge"><title>Node14&#45;&gt;Node16</title>
<path fill="none" stroke="midnightblue" d="M320.401,-58.3369C344.027,-52.9368 371.276,-46.7082 393.793,-41.5616"/>
<polygon fill="midnightblue" stroke="midnightblue" points="319.491,-54.9546 310.522,-60.5949 321.051,-61.7786 319.491,-54.9546"/>
</g>
<!-- Node17 -->
<g id="node33" class="node"><title>Node17</title>
<a xlink:href="classsrc_1_1_error_1_1_err_xml_old_version.html" target="_top" xlink:title="Die Version der XML&#45;Datei paßt zwar zu diesem Programm, ist aber zu alt.">
<polygon fill="white" stroke="black" points="568,-40.5 568,-61.5 710,-61.5 710,-40.5 568,-40.5"/>
<text text-anchor="middle" x="639" y="-48.5" font-family="DejaVuSans" font-size="10.00">src.Error.ErrXmlOldVersion</text>
</a>
</g>
<!-- Node16&#45;&gt;Node17 -->
<g id="edge32" class="edge"><title>Node16&#45;&gt;Node17</title>
<path fill="none" stroke="midnightblue" d="M513.552,-38.3922C531.335,-40.1794 550.306,-42.086 567.97,-43.8613"/>
<polygon fill="midnightblue" stroke="midnightblue" points="513.538,-34.8732 503.238,-37.3556 512.838,-41.8381 513.538,-34.8732"/>
</g>
<!-- Node18 -->
<g id="node35" class="node"><title>Node18</title>
<a xlink:href="classsrc_1_1_error_1_1_err_xml_too_old_version.html" target="_top" xlink:title="Die Version der XML&#45;Datei paßt zwar zu diesem Programm, ist aber viel zu alt.">
<polygon fill="white" stroke="black" points="560,-0.5 560,-21.5 718,-21.5 718,-0.5 560,-0.5"/>
<text text-anchor="middle" x="639" y="-8.5" font-family="DejaVuSans" font-size="10.00">src.Error.ErrXmlTooOldVersion</text>
</a>
</g>
<!-- Node16&#45;&gt;Node18 -->
<g id="edge34" class="edge"><title>Node16&#45;&gt;Node18</title>
<path fill="none" stroke="midnightblue" d="M513.527,-23.6103C528.614,-22.0941 544.557,-20.4917 559.833,-18.9565"/>
<polygon fill="midnightblue" stroke="midnightblue" points="512.838,-20.1619 503.238,-24.6444 513.538,-27.1268 512.838,-20.1619"/>
</g>
</g>
</svg>
