<?xml version="1.0" encoding="utf-8"?>
<!-- Generator: Adobe Illustrator 11.0, SVG Export Plug-In . SVG Version: 6.0.0 Build 78)  -->
<!DOCTYPE svg PUBLIC "-//W3C//DTD SVG 1.0//EN"    "http://www.w3.org/TR/2001/REC-SVG-20010904/DTD/svg10.dtd" [
	<!ENTITY ns_flows "http://ns.adobe.com/Flows/1.0/">
	<!ENTITY ns_extend "http://ns.adobe.com/Extensibility/1.0/">
	<!ENTITY ns_ai "http://ns.adobe.com/AdobeIllustrator/10.0/">
	<!ENTITY ns_graphs "http://ns.adobe.com/Graphs/1.0/">
	<!ENTITY ns_vars "http://ns.adobe.com/Variables/1.0/">
	<!ENTITY ns_imrep "http://ns.adobe.com/ImageReplacement/1.0/">
	<!ENTITY ns_sfw "http://ns.adobe.com/SaveForWeb/1.0/">
	<!ENTITY ns_custom "http://ns.adobe.com/GenericCustomNamespace/1.0/">
	<!ENTITY ns_adobe_xpath "http://ns.adobe.com/XPath/1.0/">
	<!ENTITY ns_svg "http://www.w3.org/2000/svg">
	<!ENTITY ns_xlink "http://www.w3.org/1999/xlink">
]>
<svg 
	 xmlns:x="&ns_extend;" xmlns:i="&ns_ai;" xmlns:graph="&ns_graphs;" i:viewOrigin="51.4839 430.75" i:rulerOrigin="0 0" i:pageBounds="0 841.8896 595.2754 0"
	 xmlns="&ns_svg;" xmlns:xlink="&ns_xlink;" xmlns:a="http://ns.adobe.com/AdobeSVGViewerExtensions/3.0/"
	 width="495.409" height="24.239" viewBox="0 0 495.409 24.239" overflow="visible" enable-background="new 0 0 495.409 24.239"
	 xml:space="preserve">
	<metadata>
		<variableSets  xmlns="&ns_vars;">
			<variableSet  varSetName="binding1" locked="none">
				<variables></variables>
				<v:sampleDataSets  xmlns="&ns_custom;" xmlns:v="&ns_vars;"></v:sampleDataSets>
			</variableSet>
		</variableSets>
		<sfw  xmlns="&ns_sfw;">
			<slices></slices>
			<sliceSourceBounds  x="51.484" y="406.511" width="495.409" height="24.239" bottomLeftOrigin="true"></sliceSourceBounds>
		</sfw>
<?xpacket begin='﻿' id='W5M0MpCehiHzreSzNTczkc9d'?><x:xmpmeta xmlns:x='adobe:ns:meta/' x:xmptk='XMP toolkit 3.0-29, framework 1.6'>
<rdf:RDF xmlns:rdf='http://www.w3.org/1999/02/22-rdf-syntax-ns#' xmlns:iX='http://ns.adobe.com/iX/1.0/'>

 <rdf:Description rdf:about=''
  xmlns:pdf='http://ns.adobe.com/pdf/1.3/'>
 </rdf:Description>

 <rdf:Description rdf:about=''
  xmlns:tiff='http://ns.adobe.com/tiff/1.0/'>
 </rdf:Description>

 <rdf:Description rdf:about=''
  xmlns:xap='http://ns.adobe.com/xap/1.0/'
  xmlns:xapGImg='http://ns.adobe.com/xap/1.0/g/img/'>
  <xap:CreateDate>2008-08-10T12:08:53Z</xap:CreateDate>
  <xap:ModifyDate>2008-08-10T12:08:53Z</xap:ModifyDate>
  <xap:CreatorTool>Illustrator</xap:CreatorTool>
  <xap:Thumbnails>
   <rdf:Alt>
    <rdf:li rdf:parseType='Resource'>
     <xapGImg:format>JPEG</xapGImg:format>
     <xapGImg:width>256</xapGImg:width>
     <xapGImg:height>16</xapGImg:height>
     <xapGImg:image>/9j/4AAQSkZJRgABAgEASABIAAD/7QAsUGhvdG9zaG9wIDMuMAA4QklNA+0AAAAAABAASAAAAAEA&#xA;AQBIAAAAAQAB/+4ADkFkb2JlAGTAAAAAAf/bAIQABgQEBAUEBgUFBgkGBQYJCwgGBggLDAoKCwoK&#xA;DBAMDAwMDAwQDA4PEA8ODBMTFBQTExwbGxscHx8fHx8fHx8fHwEHBwcNDA0YEBAYGhURFRofHx8f&#xA;Hx8fHx8fHx8fHx8fHx8fHx8fHx8fHx8fHx8fHx8fHx8fHx8fHx8fHx8fHx8f/8AAEQgAEAEAAwER&#xA;AAIRAQMRAf/EAaIAAAAHAQEBAQEAAAAAAAAAAAQFAwIGAQAHCAkKCwEAAgIDAQEBAQEAAAAAAAAA&#xA;AQACAwQFBgcICQoLEAACAQMDAgQCBgcDBAIGAnMBAgMRBAAFIRIxQVEGE2EicYEUMpGhBxWxQiPB&#xA;UtHhMxZi8CRygvElQzRTkqKyY3PCNUQnk6OzNhdUZHTD0uIIJoMJChgZhJRFRqS0VtNVKBry4/PE&#xA;1OT0ZXWFlaW1xdXl9WZ2hpamtsbW5vY3R1dnd4eXp7fH1+f3OEhYaHiImKi4yNjo+Ck5SVlpeYmZ&#xA;qbnJ2en5KjpKWmp6ipqqusra6voRAAICAQIDBQUEBQYECAMDbQEAAhEDBCESMUEFURNhIgZxgZEy&#xA;obHwFMHR4SNCFVJicvEzJDRDghaSUyWiY7LCB3PSNeJEgxdUkwgJChgZJjZFGidkdFU38qOzwygp&#xA;0+PzhJSktMTU5PRldYWVpbXF1eX1RlZmdoaWprbG1ub2R1dnd4eXp7fH1+f3OEhYaHiImKi4yNjo&#xA;+DlJWWl5iZmpucnZ6fkqOkpaanqKmqq6ytrq+v/aAAwDAQACEQMRAD8A6t5F06DzdLqGr6lNcSXJ&#xA;Fq9rqNvdTQPE0sIeaBUjZAnpSEgVG4I9icbHHislwMERksny3tmyeVp0HGPXdUVewMsT9qfakidv&#xA;xy3w/MuV4X9Iqi+WQafWNV1G4A6g3BhrvXrbiE4+H5lfC8y2PKWgkhpIJLhh+1cTzznpTrK7+GHw&#xA;4p8GKnJ5K8tu/qLbPC/Z4Li4gI+RikTwweFFHgxWt5Pg5ho9U1SIL0UXszj6fUL1+nE4/Mo8Hzl8&#xA;1g8nmjBtc1Zw3Y3IWnyKopx8PzK+D/Sl8208ieXyeV0Lq/fu15d3M4+XF5Cn4Y+EOq+BHrv8SiD5&#xA;N8p8QBpFohFDzSFEeoFAS6gN+OHw49zLwYdwU28naUFpbTX1me31e9ulUU2+wZGj/wCFweGOiPBH&#xA;Sx8S5PLd9HUQ+YdTRT+yfqcv4zW0jfjhEK6lfDP84/Z+ppvK88rA3Wu6nOB+yJYbcf8ATrFAcTC+&#xA;pXwr5k/j3N3HlK2l4+lqWp2xUdY76dqnxIlaQfhTAcfmVOId5+bk8uajHUR+Y9TCnswsX7U6yWrt&#xA;+OER8yvhn+cfs/Uov5JtLly+p6lqWog1Ppy3LQx1P/FdqLdPwweGDztHgg8yT8f1Lv8AA2iIoFrJ&#xA;fWZAADW9/eJsP8n1Sp+kY+GOi+BHpY+JWjyfcIf3PmLV41/l9aGT8ZoZD+OPh+ZXwf6UnL5NYuWu&#xA;Ne1e4B6qblYR0p/x7pCcfD8yvg/0pfNfL5F8uTD99Hcynrykvbx2r48mmJricUSpwRP9pUW8jxqp&#xA;S01vV7OPskd2ZQB4D6wsx/HHw/Mo8DuMh8Vp8gafMT9f1PVb9D1imvpVT/gYTEMfCHUlfy46kn4q&#xA;yfl75NUMP0Yj8vtNI0jt/wAE7FsfCj3J/Lw7nP5G0da/U57/AE8k1P1W9uUU/wCwZ2j7/wAuPhDp&#xA;svgR6WPiVh8nXnAoPM2sBT29S2JFfBjblvxx8PzK+Cf50vs/U3D5F0xSDdXup37D7JuL+5oNqbLG&#xA;8a/hj4Y62VGAdST8S235feVGYsbabmTy5i7uw1a1ryEta4+FFfy8O77SpHyDZo1bTVtXs1BqI4r6&#xA;Z061+zMZcfC8yjwB0Mh8VaDyldwin+JNWkHhJJbN+P1euPh+ZSMR/nS+z9TZ8mwuvC41bVZ13BBv&#xA;JIq1Pf0PS+WPh+ZXwe8y+ahH+WnkeOQy/otXmO5mllmlkr485HZq/Tj4Ue5H5bH3OuPI9mtXg1jV&#xA;7OBBy9CG9mZAB1oJPVf6AcTj8ypwDvkPi85fTdPupZdYWG/M9ppralaaj9alkCScRJE7zzMY5GH2&#xA;WClQCGHFvtZjV1cLhB335XdsxHknzjo08yeVNcit9JmdpI9NvIfVWAuasInHJuNSaD/by/w5D6S5&#xA;Pgzj9B27mb2cdxHaxR3M31i4VAJpgoQO9N2Cj7NT2y0OUAa3VcKXYq7FXYq7FXYq7FXYq7FXYq7F&#xA;XYq7FXYq7FXYq7FXYq7FXYq7FXYq7FXYq7FXYq7FXYq7FWIaj+Wflv0r6fSLKGy1S7Uj1mMjRAk1&#xA;J9Hn6anrxIX4TuOmVSxCtnHlpo70KL//2Q==</xapGImg:image>
    </rdf:li>
   </rdf:Alt>
  </xap:Thumbnails>
 </rdf:Description>

 <rdf:Description rdf:about=''
  xmlns:dc='http://purl.org/dc/elements/1.1/'>
  <dc:format>image/svg+xml</dc:format>
 </rdf:Description>

</rdf:RDF>
</x:xmpmeta>
                                                                                                                                                                                                                                                                                                                                                                                                                                                                                                                                                                                                                                                                                                                                                                                                                                                                                                                                                                                                                                                                                                                                                                                                                                                                                                                                                                                                                                                                                                                                                                                                                                                                                                                                                                                                                                                                                                                                                                                                                                                                                                                                <?xpacket end='w'?>
			</metadata>
		<g id="Ebene_1" i:layer="yes" i:dimmedPercent="50" i:rgbTrio="#4F008000FFFF">
			<path i:knockout="Off" fill="#377E49" d="M15.883,21.045c0.118,0,0.213,0.046,0.213,0.14c0,0.021-1.723,2.481-2.124,2.481
				c-0.189,0-0.213-0.253-0.189-0.46C13.925,22.011,15.341,21.045,15.883,21.045 M14.114,21.229c0.093,0,0.164,0.045,0.164,0.139
				c0,0.021-1.534,2.229-1.887,2.229c-0.189,0-0.213-0.207-0.189-0.391C12.343,22.103,13.594,21.229,14.114,21.229 M12.391,21.205
				c0.118,0,0.189,0.069,0.189,0.139c0,0.093-1.394,2.114-1.818,2.114c-0.189,0-0.189-0.206-0.165-0.367
				C10.715,22.056,11.919,21.205,12.391,21.205 M10.808,21.045c0.119,0,0.189,0.069,0.189,0.14c0,0.137-1.32,2.113-1.816,2.113
				c-0.189,0-0.189-0.207-0.166-0.368C9.157,21.803,10.479,21.045,10.808,21.045 M9.228,20.815c0.094,0,0.165,0.045,0.165,0.138
				c0,0.184-1.321,1.862-1.864,1.862c-0.189,0-0.165-0.207-0.142-0.367C7.576,21.597,8.639,20.815,9.228,20.815 M7.67,20.378
				c0.095,0,0.166,0.047,0.166,0.115s-1.582,1.701-1.842,1.701c-0.118,0-0.165-0.069-0.165-0.184c0-0.046,0-0.115,0.024-0.184
				C5.971,21.413,6.868,20.378,7.67,20.378 M6.349,19.758c0.118,0,0.189,0.046,0.189,0.115c0,0.161-1.298,1.517-1.771,1.517
				c-0.094,0-0.165-0.046-0.165-0.16c0-0.045,0.024-0.115,0.047-0.185C5.004,19.987,6.065,19.758,6.349,19.758 M5.004,18.953
				c0.141,0,0.236,0.069,0.236,0.138c0,0.069-1.441,1.219-1.63,1.219c-0.07,0-0.118-0.047-0.118-0.138c0-0.047,0-0.093,0.025-0.162
				C3.658,19.644,4.39,18.953,5.004,18.953 M3.941,18.172c0.095,0,0.165,0.022,0.165,0.093c0,0.114-1.11,0.987-1.439,0.987
				c-0.071,0-0.118-0.045-0.118-0.114c0-0.047,0-0.093,0.047-0.162C2.62,18.93,3.044,18.172,3.941,18.172 M2.996,17.298
				c0.096,0,0.285,0,0.285,0.092c0,0.115-0.968,0.644-1.275,0.644c-0.094,0-0.141-0.021-0.141-0.091
				c0-0.023,0.022-0.094,0.047-0.139C2.147,17.46,2.572,17.298,2.996,17.298 M2.431,16.265c0.047,0,0.189,0,0.189,0.09
				c0,0.115-0.992,0.576-1.133,0.576c-0.095,0-0.142-0.022-0.142-0.068c0-0.047,0.024-0.094,0.071-0.139
				C1.487,16.608,2.029,16.265,2.431,16.265 M1.958,15.229c0.118,0,0.189,0.023,0.189,0.092c0,0.162-0.613,0.482-1.038,0.482
				c-0.094,0-0.164-0.021-0.164-0.068c0-0.045,0.022-0.092,0.07-0.137C1.132,15.459,1.747,15.229,1.958,15.229 M1.558,14.379
				c0.094,0,0.354,0,0.354,0.114c0,0.047-0.945,0.392-0.992,0.392c-0.094,0-0.142-0.024-0.142-0.069c0-0.023,0-0.068,0.048-0.114
				C0.849,14.677,1.132,14.379,1.558,14.379 M1.463,13.413c0.071,0,0.213,0,0.213,0.115c0,0.138-0.945,0.346-0.945,0.346
				c-0.046,0-0.141,0-0.141-0.069c0-0.024,0-0.069,0.047-0.114C0.756,13.552,1.204,13.413,1.463,13.413 M0.567,10.885
				c0.023-0.068,0.306-0.252,0.495-0.252c0.142,0,0.259,0.068,0.259,0.115c0,0.091-0.59,0.298-0.684,0.298
				c-0.024,0-0.118-0.023-0.118-0.093L0.567,10.885z M1.227,12.54c0.094,0,0.353,0,0.353,0.091c0,0.07-0.92,0.392-0.967,0.392
				c-0.071,0-0.118-0.022-0.118-0.068s0-0.069,0.047-0.115C0.567,12.815,0.849,12.54,1.227,12.54 M1.109,9.737
				c0.071,0,0.283,0,0.283,0.091c0,0.045-0.779,0.322-0.825,0.322c-0.072,0-0.118-0.024-0.118-0.069c0-0.024,0.022-0.046,0.07-0.092
				C0.519,9.966,0.756,9.737,1.109,9.737 M1.085,11.644c0.024,0,0.354,0.023,0.354,0.115c0,0.045-0.802,0.344-0.849,0.344
				c-0.095,0-0.141-0.022-0.141-0.068c0-0.022,0.022-0.068,0.07-0.115C0.59,11.851,0.873,11.644,1.085,11.644 M3.823,12.471
				c0-0.184-0.024-0.575-0.213-0.575c-0.047,0-0.118,0.047-0.211,0.116c-0.096,0.091-0.662,0.599-0.662,1.585
				c0,1.357,1.347,1.932,2.007,1.932c0.826,0,1.887-0.668,1.887-1.977c0-0.299-0.046-0.598-0.118-0.896
				c-0.164-0.621-0.849-1.311-0.873-1.907c0.378,0.274,0.638,0.437,1.062,0.437c0.685,0,0.874-1.288,0.874-1.863
				c0-0.322-0.047-0.598-0.189-0.735C6.82,7.896,6.538,7.943,6.042,7.461C5.759,7.184,5.64,6.862,5.64,6.449
				c0-0.346,0.213-3.195,2.785-3.195c0.26,0,0.897,0.115,1.558,0.23c0.637,0.092,4.273,0.907,4.484,0.907
				c0.071,0,3.98,0.694,15.303,0.693c6.233-0.001,13.87-1.308,22.342-2.258c11.782-1.323,17.783,0.013,22.976,0.616
				C82.011,4.245,89.761,4.88,97.22,4.879c6.778-0.001,12.988-0.343,19.814-1.643c9.695-1.848,13.293-2.116,29.087,0.206
				c8.239,1.211,16.778,2.26,24.24,2.258c6.932-0.002,13.58-2.042,19.813-2.044c1.306,0,9.439,1.958,27.135,2.085
				c2.854,0.021,12.105-2.723,15.258-2.702c6.8,0.047,21.537,2.653,29.473,2.702c9.16,0.058,16.186-2.754,26.352-2.702
				c5.903,0.03,12.974,2.339,19.07,2.365c8.011,0.035,20.3-3.064,28.434-3.039c8.246,0.024,20.654,3.366,28.778,3.376
				c9.359,0.012,15.087-2.689,23.925-2.702c18.913-0.026,20.921,2.548,34.675,2.365c21.735-0.289,35.979-3.368,38.14-3.039
				c7.812,1.187,7.803,2.723,12.723,2.719c6.342-0.006,10.423-1.456,10.489-1.462c1.368-0.093,1.793-0.896,2.737-0.989
				c0,0.597-0.496,1.494-0.496,2.046c0,0.115,0.095,0.988,1.038,0.988c1.017,0,1.629-0.483,2.433-1.356
				c0.589-0.667,1.014-0.897,1.438-0.897c1.583,0,2.433,2.185,2.621,2.967c0.165,0.665,0.165,0.872,0.165,2.758
				c-0.118-0.024-0.236-0.048-0.354-0.048c-0.639,0-1.605,0.438-1.605,1.197c0,0.689,0.521,0.941,1.321,0.941
				c0.709,0,0.804,0.666,0.804,1.219c0,0.734-1.676,3.172-4.155,4.574c-0.612,0.345-2.549,0.851-2.714,0.851
				c-0.047,0-0.071-0.024-0.071-0.045c0-0.048,0.024-0.093,0.097-0.14c0.471-0.321,1.038-0.92,1.038-1.334
				c0-0.619-0.992-1.354-1.983-1.354c-0.756,0-1.889,0.344-2.337,0.667c-0.26,0.137-0.779,0.275-1.273,0.275
				c-1.865,0-2.55-2.252-2.55-3.631c0-1.91,1.676-4.599,4.768-4.599c2.266,0,3.754,2.092,3.754,2.965
				c0,1.449-1.11,2.185-2.054,2.185c-1.346,0-1.56-0.989-1.56-1.402c0-0.667,0.403-1.08,1.039-1.08c0.142,0,0.826,0.206,0.969,0.206
				c0.046,0,0.093-0.022,0.093-0.068c0-0.093-0.613-0.874-1.77-0.874c-1.251,0-1.911,0.781-1.911,2.115
				c0,1.172,1.013,2.252,2.785,2.252c2.005,0,3.279-2.045,3.279-3.011c0-2.712-2.359-4.138-4.673-4.138
				c-3.682,0-5.688,3.011-5.688,6.252c0,3.127,2.88,5.977,6.42,5.977c5.169,0,8.119-4.115,8.309-4.367
				c0.022-0.047,0.047-0.068,0.068-0.068c0,0,0.025,0.021,0.025,0.068c0,2.459,0,5.103-1.274,5.793
				c-0.331,0.185-1.817,0.987-1.817,1.127c0,0.159,0.99,0.159,0.99,0.252c0,0.207-0.542,1.012-0.542,1.195
				c0,0.207,0.261,0.346,0.4,0.346c0.26,0,1.369-0.783,1.44-0.783c0.117,0,0.117,0.301,0.117,0.414c0,0.139-0.235,0.689-0.235,0.805
				c0,0.23,0.188,0.345,0.638,0.345c0.543,0,0.754-0.506,0.754-1.149c0-0.781-0.802-1.057-1.085-1.332
				c-0.142-0.139-0.213-0.231-0.213-0.322c0-0.299,0.662-0.874,0.874-1.035c0.377-0.344,0.73-0.734,0.73-1.932
				c0-0.803-0.164-9.584-0.164-11.4c0-4.205-3.841-7.046-4.358-7.046c-1.18,0-4.407,0.822-5.894,1.352
				c-0.827,0.298-4.84,1.35-5.549,1.35c-0.033,0-6.241,1.013-18.031-2.026c-9.105-2.348-9.014,3.715-39.181,2.702
				c-8.865-0.298-15.484-2.069-26.352-2.018c-9.652,0.046-16.645,0.329-27.046,2.018c-7.955,1.291-24.983-2.761-33.287-2.702
				c-13.816,0.098-21.712,2.652-28.086,2.702c-7.279,0.056-11.181-2.078-17.336-2.026c-6.394,0.051-19.765,2.026-27.394,2.363
				c-5.841,0.258-25.289-2.409-30.512-2.363c-7.349,0.064-10.191,2.65-15.951,2.7c-13.37,0.118-16.353-1.194-17.452-1.194
				c-5.811,0-14.122-0.884-20.445,0.584c-7.409,1.72-17.074,0.382-25.505-0.616c-9.279-1.1-14.553-1.79-21.29-2.258
				c-5.902-0.411-11.17,0.615-25.505,2.277c-6.897,0.801-13.798-0.002-20.445-0.002c-6.786-0.002-13.993-1.864-20.236-1.865
				c-9.909-0.001-16.863,1.225-24.24,2.052C24.513,4.896,16.248,2.707,16.202,2.702C14.243,2.518,9.53,0.676,6.84,0.676
				c-1.156,0-3.323,1.703-4.244,2.922C1.699,4.794,0,5.667,0,12.356c0,5.472,2.572,8.021,4.295,9.584
				c2.029,1.816,6.773,2.299,9.393,2.299c0.992,0,1.11,0,1.228-0.205c0.85-1.518,1.652-2.53,3.02-3.311
				c0.095-0.07,0.142-0.115,0.142-0.162c0-0.184-0.943-0.184-0.991-0.184c-0.567,0-3.115,0.299-3.634,0.299
				c-2.574,0-5.736-0.643-7.907-2.046c-1.345-0.851-3.752-2.39-3.752-8.826c0-4.459,2.808-7.586,4.248-7.586
				c0.236,0,0.354,0.115,0.354,0.323c0,0.275-0.236,0.688-0.661,1.034C4.319,4.771,3.87,5.851,3.87,8.104
				c0,1.47,0.236,1.815,1.511,3.815c0.33,0.552,0.472,0.966,0.472,1.311c0,0.713-0.613,1.195-1.063,1.195
				c-0.4,0-0.991-0.574-0.991-1.264L3.823,12.471z"/>
		</g>
	</svg>
