<?xml version="1.0" encoding="UTF-8" standalone="no"?>
<!-- Created with Inkscape (http://www.inkscape.org/) -->

<svg
   xmlns:dc="http://purl.org/dc/elements/1.1/"
   xmlns:cc="http://creativecommons.org/ns#"
   xmlns:rdf="http://www.w3.org/1999/02/22-rdf-syntax-ns#"
   xmlns:svg="http://www.w3.org/2000/svg"
   xmlns="http://www.w3.org/2000/svg"
   xmlns:sodipodi="http://sodipodi.sourceforge.net/DTD/sodipodi-0.dtd"
   xmlns:inkscape="http://www.inkscape.org/namespaces/inkscape"
   width="152.78"
   height="152.78"
   id="svg4993"
   version="1.1"
   inkscape:version="0.48.2 r9819"
   sodipodi:docname="Breed-Mekhet.svg">
  <defs
     id="defs4995" />
  <sodipodi:namedview
     id="base"
     pagecolor="#ffffff"
     bordercolor="#666666"
     borderopacity="1.0"
     inkscape:pageopacity="0.0"
     inkscape:pageshadow="2"
     inkscape:zoom="2.0858817"
     inkscape:cx="146.02096"
     inkscape:cy="56.710934"
     inkscape:document-units="px"
     inkscape:current-layer="layer1"
     showgrid="false"
     inkscape:window-width="1606"
     inkscape:window-height="1029"
     inkscape:window-x="70"
     inkscape:window-y="-4"
     inkscape:window-maximized="1"
     fit-margin-top="0"
     fit-margin-left="0"
     fit-margin-right="0"
     fit-margin-bottom="0" />
  <g
     inkscape:label="Ebene 1"
     inkscape:groupmode="layer"
     id="layer1"
     transform="translate(-138.8125,-466.37625)">
    <path
       style="color:#000000;fill:#000000;fill-opacity:1;fill-rule:nonzero;stroke:none;stroke-width:1;marker:none;visibility:visible;display:inline;overflow:visible;enable-background:accumulate"
       d="m 214.0625,467.34375 c -2.31789,3.92434 -4.46529,8.1803 -4.40625,12.75 0.0243,1.88487 -0.089,4.33493 1.21875,6.09375 1.51936,2.04345 4.04214,3.37567 4.25,5.28125 0.46716,4.2828 -1.39552,5.9765 -3.34375,8.90625 l -7.96875,-18.8125 -0.65625,23.15625 -16.84375,-29.125 8.15625,28.625 -14.25,-14.0625 5.9375,15.28125 c -0.68936,-1.20153 -1.35998,-2.5474 -2.03125,-4.0625 -1.59069,-3.5903 -7.00696,-4.10192 -10.6875,-3.90625 -2.10404,0.11186 -4.37166,0.14215 -6.25,-0.8125 -2.97036,-1.50967 -6.875,-7.25 -6.875,-7.25 0.75763,4.49434 1.57168,7.73197 4.5625,11.1875 1.23362,1.4253 2.99148,2.99834 5.125,3.5 2.47879,0.58284 4.76846,0.979 6.28125,2.15625 2.084,1.62176 3.09285,4.70907 4.0625,8.375 l -18.40625,-7.6875 16.78125,17.53125 -34.3125,-9.4375 26.5625,14.5625 -19.21875,-0.25 24.9375,11.28125 c -3.29538,-0.35143 -7.12105,-1.05348 -12.15625,-3.3125 -3.58284,-1.60741 -7.92432,1.61325 -10.53125,4.21875 -1.49029,1.48948 -3.18353,3.01717 -5.21875,3.5625 -3.21847,0.86235 -9.96875,-0.78125 -9.96875,-0.78125 3.56743,2.83664 6.37203,4.70989 10.90625,5.28125 1.87025,0.23571 4.23396,0.20923 6.15625,-0.84375 2.23336,-1.22324 4.18166,-2.45833 6.09375,-2.59375 1.7051,-0.12077 3.49504,0.51243 5.40625,1.53125 L 151.1875,554 l 23.40625,1 -30.8125,16.46875 30.9375,-8.15625 -14.34375,13.8125 25.28125,-9.03125 c -2.82282,2.22169 -6.54918,4.94366 -11.53125,6.75 -4.99662,1.81162 -6.26945,6.00091 -5.375,9.21875 0.56428,2.03005 0.7833,3.59476 -0.34375,5.375 -1.78232,2.81523 -8.65625,6.65625 -8.65625,6.65625 4.54567,-0.33163 8.24728,-1.44115 11.96875,-4.09375 1.53503,-1.0941 3.45626,-3.07923 4.15625,-5.15625 0.81335,-2.41302 1.44201,-4.14491 3.125,-5.0625 1.33841,-0.72972 3.21155,-1.26676 5.34375,-1.75 l -6.46875,15.15625 16.1875,-14.65625 -9.25,31.25 L 201,584.4375 201.03125,605.5 210.125,585.78125 c -0.31591,1.84265 -0.78803,3.95591 -1.65625,6.65625 -1.59663,4.96587 1.29292,7.64909 3.90625,9.46875 1.72913,1.204 2.9173,3.93518 3.46875,5.96875 0.87203,3.21585 -0.875,11.28125 -0.875,11.28125 2.49371,-3.5285 4.23962,-6.739 5.625,-11.28125 0.58834,-1.929 1.40251,-6.36213 0.34375,-8.28125 -1.22995,-2.22967 -3.54632,-4.08833 -3.6875,-6 -0.14061,-1.90399 0.36244,-3.7346 1.25,-5.6875 l 7.84375,18.5 L 227,583.9375 l 16.46875,28.46875 -8.3125,-29.15625 14.78125,14.59375 -8,-20.5625 c 1.37106,1.1164 2.6406,2.60095 3.5,4.9375 1.35557,3.68552 5.34576,7.27013 9.03125,7.3125 2.10688,0.0242 4.42482,-0.0211 6.5,0.34375 3.37619,0.59368 6.65929,8.60791 6.59375,8.75 -0.46589,-4.53388 -0.89477,-10.07734 -3.65625,-13.71875 -1.139,-1.50201 -3.49611,-3.94852 -5.6875,-3.90625 -2.17481,0.0419 -3.56937,0.60725 -5.5,-2.15625 -1.04746,-1.49933 -1.88568,-3.28462 -2.59375,-5.34375 l 18.09375,7.5625 -16.59375,-17.375 33.75,9.25 -26.59375,-14.59375 19.65625,0.28125 -19.65625,-8.875 c 1.90102,0.34675 4.04669,0.80059 6.90625,1.34375 5.9817,1.1362 7.37012,-1.92389 9.84375,-4.65625 1.41409,-1.56201 3.49453,-2.60378 5.5,-3.25 3.17141,-1.02192 10.5625,0.40625 10.5625,0.40625 -4.43862,-4.1271 -15.01944,-8.0286 -18.59375,-6 -2.21458,1.2569 -5.22205,4.26931 -7.125,4.5 -1.78138,0.21596 -3.20191,-0.2825 -4.71875,-1.15625 L 278.96875,534 255.25,532.96875 286,516.5 l -30.375,8 14.1875,-13.625 -13.6875,4.875 c 0.49679,-0.28245 0.98866,-0.56164 1.53125,-0.84375 3.48411,-1.81152 3.67484,-7.21383 3.25,-10.875 -0.24287,-2.09297 -0.42939,-4.37828 0.40625,-6.3125 1.32147,-3.05874 6.8125,-7.3125 6.8125,-7.3125 -4.43833,1.03647 -7.61274,2.04948 -10.875,5.25 -1.34562,1.32009 -2.78863,3.18309 -3.15625,5.34375 -0.4271,2.51033 -0.70064,4.79173 -1.78125,6.375 -1.50617,2.2068 -4.56409,3.44663 -8.21875,4.65625 l 8.21875,-19.25 -16.75,15.15625 9.4375,-31.75 -15.84375,26.71875 -0.0312,-20.40625 -4.96875,10.75 c 0.10083,-3.52115 -3.01434,-7.55729 -5.625,-9.53125 -1.68066,-1.27078 -2.86687,-3.09061 -3.6875,-5.03125 -1.29771,-3.06889 -0.78125,-11.34375 -0.78125,-11.34375 z m 1.09375,39.71875 c 10.94024,0.11552 21.73937,4.30142 29.4375,11.375 1.98583,1.82473 2.61695,3.78494 0.59375,5.8125 -5.59412,5.60617 -14.31654,12.61624 -23.0625,19.21875 8.61048,6.92604 16.80446,13.94114 21.8125,19.875 1.33185,1.57807 1.28774,4.57323 0,6.1875 -9.15017,11.47032 -28.42741,12.74339 -42.78125,9.5 -2.22539,-0.50285 -2.00947,-1.02427 -4.21875,-1.59375 -0.69184,-0.17833 -0.32213,-1.05698 -0.46875,-1.46875 -0.99988,-2.80817 -6.34375,-2.40625 -6.34375,-2.40625 0.86472,-0.43236 6.15472,0.10514 7.09375,1.9375 0.39486,0.77049 1.57313,1.39295 2.4375,1.34375 1.75942,-0.10011 2.95417,-0.88422 5.5625,-1.09375 0.58248,-0.0468 0.68475,-1.44308 0.1875,-1.75 -0.77897,-0.48081 -3.9846,-3.79697 -6.25,-4.6875 -1.04884,-0.4123 -1.25,3.375 -1.25,3.375 0,0 0.1642,-3.19788 0.1875,-4.6875 0.0182,-1.1632 -0.14835,-2.52545 -0.0937,-3.6875 0.0613,-1.30289 2.2655,-1.19008 3.75,0.125 0.59201,0.52445 0.9029,0.917 1.46875,1 2.3643,0.3469 3.49989,0.26305 3.84375,1.96875 0.11171,0.55412 0.80152,0.49343 1.78125,1.09375 1.62515,0.9958 3.86868,3.03076 4.3125,5.125 8.56429,0.24928 14.71451,-0.4661 19.25,-3.96875 3.03768,-2.34592 2.69742,-5.3846 1.0625,-7.46875 -3.2598,-4.15551 -9.51898,-9.34469 -16.5625,-14.8125 -12.79211,9.42995 -24.28125,17.125 -24.28125,17.125 0,0 10.71791,-8.38388 22.46875,-18.5 -9.77962,-7.5227 -20.69435,-15.463 -27.40625,-22.03125 -1.80107,-1.76253 -1.58399,-5.18052 0.28125,-6.875 7.76624,-7.05525 17.53434,-10.13318 27.1875,-10.03125 z m 0.3125,5.375 c -6.4563,10e-4 -12.78469,1.51271 -17.3125,4.9375 -3.00671,2.27425 -3.66038,4.05995 -0.875,6.375 6.17018,5.12829 14.51319,11.4874 22.6875,18 6.35269,-5.60774 12.63204,-11.45608 17.375,-16.53125 2.2054,-2.35988 1.60824,-4.89225 0,-6.1875 -5.08375,-4.09436 -13.57405,-6.59567 -21.875,-6.59375 z"
       id="path2985"
       inkscape:connector-curvature="0" />
    <path
       transform="matrix(0.89410469,0.44785801,-0.44785801,0.89410469,119.48268,-110.21612)"
       style="color:#000000;fill:#000000;fill-opacity:1;fill-rule:nonzero;stroke:none;stroke-width:1;marker:none;visibility:visible;display:inline;overflow:visible;enable-background:accumulate"
       inkscape:transform-center-x="0.066224947"
       inkscape:transform-center-y="0.57698422"
       d="m 381.6653,567.8515 c -0.29163,0.41578 -0.78007,0.91956 -1.74233,0.91956 -0.96225,0 -1.40756,-0.53764 -1.74232,-0.91956 -0.54113,-0.61737 0.0169,-0.86213 1.74232,-0.91956 1.68972,-0.0562 2.15455,0.33184 1.74233,0.91956 z"
       id="path3011"
       inkscape:connector-curvature="0"
       sodipodi:nodetypes="sssss" />
  </g>
  <metadata
     id="metadata6480">
    <rdf:RDF>
      <cc:Work
         rdf:about="">
        <dc:title />
        <dc:format>image/svg+xml</dc:format>
        <dc:type
           rdf:resource="http://purl.org/dc/dcmitype/StillImage" />
      </cc:Work>
    </rdf:RDF>
  </metadata>
</svg>
