<?xml version="1.0" encoding="UTF-8" standalone="no"?>
<!-- Created with Inkscape (http://www.inkscape.org/) -->

<svg
   xmlns:dc="http://purl.org/dc/elements/1.1/"
   xmlns:cc="http://creativecommons.org/ns#"
   xmlns:rdf="http://www.w3.org/1999/02/22-rdf-syntax-ns#"
   xmlns:svg="http://www.w3.org/2000/svg"
   xmlns="http://www.w3.org/2000/svg"
   xmlns:sodipodi="http://sodipodi.sourceforge.net/DTD/sodipodi-0.dtd"
   xmlns:inkscape="http://www.inkscape.org/namespaces/inkscape"
   width="154.10001"
   height="154.10001"
   id="svg4592"
   version="1.1"
   inkscape:version="0.48.2 r9819"
   sodipodi:docname="Breed-Ventrue.svg">
  <metadata
     id="metadata28">
    <rdf:RDF>
      <cc:Work
         rdf:about="">
        <dc:format>image/svg+xml</dc:format>
        <dc:type
           rdf:resource="http://purl.org/dc/dcmitype/StillImage" />
      </cc:Work>
    </rdf:RDF>
  </metadata>
  <defs
     id="defs4594" />
  <sodipodi:namedview
     id="base"
     pagecolor="#ffffff"
     bordercolor="#666666"
     borderopacity="1.0"
     inkscape:pageopacity="0.0"
     inkscape:pageshadow="2"
     inkscape:zoom="1.1306641"
     inkscape:cx="51.12508"
     inkscape:cy="56.136844"
     inkscape:document-units="px"
     inkscape:current-layer="layer1"
     showgrid="false"
     inkscape:window-width="1606"
     inkscape:window-height="1029"
     inkscape:window-x="70"
     inkscape:window-y="-4"
     inkscape:window-maximized="1"
     fit-margin-top="0"
     fit-margin-left="0"
     fit-margin-right="0"
     fit-margin-bottom="0" />
  <g
     inkscape:label="Ebene 1"
     inkscape:groupmode="layer"
     id="layer1"
     transform="translate(-207.41835,-672.8343)">
    <path
       d="m 325.12098,743.14954 c 0,1.135 -0.92,2.055 -2.055,2.055 l -77.72875,0 c -1.135,0 -2.05625,-0.92 -2.05625,-2.055 0,-1.135 0.92125,-2.055 2.05625,-2.055 l 77.72875,0 c 1.135,0 2.055,0.92 2.055,2.055"
       style="fill:#000000;fill-opacity:1;fill-rule:evenodd;stroke:none"
       id="path476"
       inkscape:connector-curvature="0" />
    <path
       d="m 325.12098,760.68104 c 0,1.135 -0.92,2.055 -2.055,2.055 l -77.72875,0 c -1.135,0 -2.05625,-0.92 -2.05625,-2.055 0,-1.135 0.92125,-2.055 2.05625,-2.055 l 77.72875,0 c 1.135,0 2.055,0.92 2.055,2.055"
       style="fill:#000000;fill-opacity:1;fill-rule:evenodd;stroke:none"
       id="path480"
       inkscape:connector-curvature="0" />
    <path
       style="fill:#000000;fill-opacity:1;fill-rule:evenodd;stroke:none"
       d="m 245.6996,746.05461 0,11.5 76.625,0 0,-11.5 -76.625,0 z m 14.84375,2.40625 c 1.81142,0 3.28125,1.50236 3.28125,3.3125 0,1.81014 -1.46983,3.28125 -3.28125,3.28125 -1.80928,0 -3.28125,-1.4709 -3.28125,-3.28125 0,-1.81035 1.47197,-3.3125 3.28125,-3.3125 z m 23.4375,0 c 1.81144,0 3.3125,1.50236 3.3125,3.3125 0,1.81014 -1.50107,3.28125 -3.3125,3.28125 -1.80926,0 -3.28125,-1.4709 -3.28125,-3.28125 0,-1.81035 1.47199,-3.3125 3.28125,-3.3125 z m 23.46875,0 c 1.81143,0 3.28125,1.50236 3.28125,3.3125 0,1.81014 -1.46982,3.28125 -3.28125,3.28125 -1.80927,0 -3.28125,-1.4709 -3.28125,-3.28125 0,-1.81035 1.47198,-3.3125 3.28125,-3.3125 z"
       id="path482"
       inkscape:connector-curvature="0" />
    <path
       d="m 221.41835,672.87966 c 17.3475,-0.0438 35.02875,0.10375 52.79125,-0.0438 -2.74875,1.54875 -4.8175,3.20625 -6.86125,5.80875 -2.25125,2.86625 -3.83875,6.62 -3.46,11.915 0.48625,6.7875 3.8975,13.79625 5.18875,19.2175 -3.515,0.95 -5.975,1.93125 -7.87875,5.18875 -3.00625,5.14 3.33375,15.41625 3.33375,15.41625 0,0 1.6725,-5.905 3.96875,-6 2.69375,-0.11 4.47125,4.48125 4.42,7.11125 -0.0625,3.245 -1.74125,5.59375 -2.7875,8.18375 -3.80125,10e-4 -6.43625,0 -9.69625,10e-4 -0.51,-0.4975 -4.3775,-3.6675 -6.24875,-6.16 -3.01125,-4.01125 -3.26875,-5.1375 -1.6375,-6.83 2.80625,-2.1775 6.17625,4.16125 6.17625,4.16125 0,0 1.56125,-5.775 1.31875,-8.38875 -0.60875,-6.5275 -4.40875,-10.6375 -12.3,-9.80125 -2.76,-8.89625 -5.24625,-18.7975 -9.8,-26.52 -1.53875,-2.6075 -2.725,-5.35375 -4.6125,-7.3025 -2.9375,-3.03375 -6.99875,-5.09875 -11.915,-5.9575"
       style="fill:#000000;fill-opacity:1;fill-rule:evenodd;stroke:none"
       id="path486"
       inkscape:connector-curvature="0" />
    <path
       d="m 293.29135,672.87966 c 17.36625,-0.0438 35.37,-0.0438 52.79625,-0.0438 -9.5425,1.5925 -13.6075,7.91125 -17.43625,15.225 -3.85375,7.36375 -5.76,16.4775 -8.6475,24.59875 -7.2025,-0.7025 -11.2325,2.99375 -11.915,9.60875 -0.27125,2.63125 1.28375,8.2475 1.28375,8.2475 0,0 3.2025,-5.67125 5.82625,-4.02 2.0475,1.28375 0.3125,4.22625 -0.905,6.19125 -2.15375,3.4775 -4.60375,4.94125 -6.6125,6.99125 l -9.54125,0 c -1.48875,-2.3275 -2.85375,-5.92375 -2.9275,-7.99375 -0.095,-2.69625 1.67375,-7.415 4.42,-7.3025 2.34375,0.0963 4.75875,5.91125 4.75875,5.91125 0,0 5.18125,-10.65375 2.54375,-15.3275 -1.8825,-3.33875 -4.385,-4.29 -8.07125,-5.18875 1.3425,-6.14375 4.81625,-12.78375 5.18875,-19.98625 0.44875,-8.65375 -4.97375,-13.79 -10.76125,-16.91125"
       style="fill:#000000;fill-opacity:1;fill-rule:evenodd;stroke:none"
       id="path490"
       inkscape:connector-curvature="0" />
    <path
       style="fill:#000000;fill-opacity:1;fill-rule:evenodd;stroke:none"
       d="m 284.2621,697.49211 c -1.28,-0.075 -2.6925,1.34 -3.28125,2.09375 -2.5475,3.2625 -4.52375,9.19625 -5.1875,13.84375 -3.55875,-3.9475 -11.91375,-1.7725 -13.4375,2.875 -1.11625,3.4025 -0.065,7.7575 1.71875,10.96875 0.4525,-2.90125 2.7675,-4.945 5.59375,-4.4375 2.835,0.50875 4.93125,5.1425 4.78125,9.03125 -0.12,3.14875 -1.45125,5.83 -2.53125,7.8125 l 24.59375,0 c -1.24,-1.81875 -2.75375,-4.98375 -2.84375,-8 -0.12125,-3.9625 2.11375,-8.42625 5,-8.84375 2.9725,-0.43125 4.73625,1.7975 5.5625,4.4375 1.4675,-3.43125 2.68875,-7.535 1.5625,-10.96875 -1.05,-3.19875 -5.345,-5.44625 -9.25,-5 -1.7425,0.1975 -3.04125,1.4825 -4.21875,1.9375 -0.9175,-5.1175 -2.65625,-10.52875 -5.375,-13.84375 -0.56625,-0.6925 -1.82625,-1.85505 -2.6875,-1.90625 z m -0.34375,17.84375 c 1.04387,0 1.96416,0.61675 2.59375,1.5625 0.62959,0.94575 1,2.22918 1,3.625 0,1.39582 -0.37041,2.67925 -1,3.625 -0.62959,0.94575 -1.54988,1.5625 -2.59375,1.5625 -1.04387,0 -1.93291,-0.61675 -2.5625,-1.5625 -0.62959,-0.94575 -1.03125,-2.22918 -1.03125,-3.625 0,-1.39582 0.40166,-2.67925 1.03125,-3.625 0.62959,-0.94575 1.51863,-1.5625 2.5625,-1.5625 z"
       id="path494"
       inkscape:connector-curvature="0" />
    <path
       d="m 243.90235,716.50316 c 2.38375,-2.27375 6.87375,-3.0925 10.185,-1.5375 3.75625,1.76375 4.81125,7.33125 4.2275,12.68375 -1.33375,-1.0375 -1.96625,-2.57875 -3.65125,-2.8825 -2.565,-0.46125 -4.4025,1.12625 -4.42,3.45875 -0.0187,2.475 1.52375,4.88875 3.2675,6.72625 1.84125,1.93875 3.70375,3.39125 4.88875,4.72625 l -12.93375,0 c -3.67875,-10.6 -13.93125,-25.2775 -22.895,-33.1675 10.335,-1.9825 17.35625,3.75625 21.33125,9.9925"
       style="fill:#000000;fill-opacity:1;fill-rule:evenodd;stroke:none"
       id="path498"
       inkscape:connector-curvature="0" />
    <path
       d="m 345.56297,706.51016 c -11.835,10.29375 -17.64125,20.01625 -22.6775,33.1675 l -13.42125,0 c 2.53125,-2.34875 8.355,-6.17875 8.425,-11.26 0.03,-2.14625 -1.43375,-4.055 -4.2275,-3.65125 -1.85375,0.26875 -2.4675,1.77125 -3.84375,2.8825 -0.59375,-5.31375 0.48,-10.9225 4.22875,-12.6825 3.1775,-1.4925 7.8225,-0.87375 9.9925,1.53625 4.24875,-6.02625 11.04625,-12.055 21.52375,-9.9925"
       style="fill:#000000;fill-opacity:1;fill-rule:evenodd;stroke:none"
       id="path502"
       inkscape:connector-curvature="0" />
    <path
       d="m 233.76547,721.11516 c 2.145,1.89 3.44625,4.625 4.80375,7.3025 -4.50375,2.04 -7.315,-4.0125 -4.80375,-7.3025"
       style="fill:#000000;fill-opacity:1;fill-rule:evenodd;stroke:none"
       id="path506"
       inkscape:connector-curvature="0" />
    <path
       d="m 333.61623,721.11516 c 3.095,2.66125 0.41625,9.25375 -4.42125,7.495 1.045,-2.9275 2.86,-5.085 4.42125,-7.495"
       style="fill:#000000;fill-opacity:1;fill-rule:evenodd;stroke:none"
       id="path510"
       inkscape:connector-curvature="0" />
    <path
       d="m 244.86347,748.68829 0,6.34125 c -4.25375,0.41 -4.25375,-6.75125 0,-6.34125"
       style="fill:#000000;fill-opacity:1;fill-rule:evenodd;stroke:none"
       id="path514"
       inkscape:connector-curvature="0" />
    <path
       d="m 323.27085,748.68829 c 4.25375,-0.41 4.25375,6.75125 0,6.34125 l 0,-6.34125 z"
       style="fill:#000000;fill-opacity:1;fill-rule:evenodd;stroke:none"
       id="path518"
       inkscape:connector-curvature="0" />
    <path
       d="m 304.24497,764.09429 -19.985,62.84 -20.56375,-62.84 40.54875,0 z"
       style="fill:#000000;fill-opacity:1;fill-rule:evenodd;stroke:none"
       id="path522"
       inkscape:connector-curvature="0" />
    <path
       style="fill:#000000;fill-opacity:1;fill-rule:evenodd;stroke:none"
       d="m 260.54335,749.27336 c -1.37574,0 -2.46875,1.12285 -2.46875,2.5 0,1.37715 1.09301,2.46875 2.46875,2.46875 1.37856,0 2.5,-1.09139 2.5,-2.46875 0,-1.37736 -1.12144,-2.5 -2.5,-2.5 z"
       id="path526"
       inkscape:connector-curvature="0" />
    <path
       style="fill:#000000;fill-opacity:1;fill-rule:evenodd;stroke:none"
       d="m 283.91835,716.11711 c -0.71863,0 -1.38084,0.46075 -1.90625,1.25 -0.52541,0.78925 -0.875,1.90457 -0.875,3.15625 0,1.25168 0.34959,2.367 0.875,3.15625 0.52541,0.78925 1.18762,1.25 1.90625,1.25 0.71864,0 1.41209,-0.46075 1.9375,-1.25 0.52541,-0.78925 0.875,-1.90457 0.875,-3.15625 0,-1.25168 -0.34959,-2.367 -0.875,-3.15625 -0.52541,-0.78925 -1.21886,-1.25 -1.9375,-1.25 z"
       id="path3799"
       inkscape:connector-curvature="0" />
    <path
       style="fill:#000000;fill-opacity:1;fill-rule:evenodd;stroke:none"
       d="m 283.98085,749.27336 c -1.37572,0 -2.46875,1.12285 -2.46875,2.5 0,1.37715 1.09303,2.46875 2.46875,2.46875 1.37857,0 2.5,-1.09139 2.5,-2.46875 0,-1.37736 -1.12142,-2.5 -2.5,-2.5 z"
       id="path3827"
       inkscape:connector-curvature="0" />
    <path
       style="fill:#000000;fill-opacity:1;fill-rule:evenodd;stroke:none"
       d="m 307.4496,749.27336 c -1.37573,0 -2.5,1.12285 -2.5,2.5 0,1.37715 1.12427,2.46875 2.5,2.46875 1.37857,0 2.46875,-1.09139 2.46875,-2.46875 0,-1.37736 -1.09018,-2.5 -2.46875,-2.5 z"
       id="path3843"
       inkscape:connector-curvature="0" />
  </g>
</svg>
