<?xml version="1.0" encoding="UTF-8" standalone="no"?>
<!-- Created with Inkscape (http://www.inkscape.org/) -->

<svg
   xmlns:dc="http://purl.org/dc/elements/1.1/"
   xmlns:cc="http://creativecommons.org/ns#"
   xmlns:rdf="http://www.w3.org/1999/02/22-rdf-syntax-ns#"
   xmlns:svg="http://www.w3.org/2000/svg"
   xmlns="http://www.w3.org/2000/svg"
   xmlns:sodipodi="http://sodipodi.sourceforge.net/DTD/sodipodi-0.dtd"
   xmlns:inkscape="http://www.inkscape.org/namespaces/inkscape"
   width="122.97"
   height="122.97"
   id="svg4706"
   version="1.1"
   inkscape:version="0.48.2 r9819"
   sodipodi:docname="Breed-Nosferatu.svg">
  <defs
     id="defs4708">
    <clipPath
       clipPathUnits="userSpaceOnUse"
       id="clipPath382">
      <path
         inkscape:connector-curvature="0"
         d="m 471,312 90.744,0 0,-100.504 -90.744,0 0,100.504 z"
         id="path384" />
    </clipPath>
    <clipPath
       clipPathUnits="userSpaceOnUse"
       id="clipPath386">
      <path
         inkscape:connector-curvature="0"
         d="m 472,212.496 88.744,0 0,98.504 -88.744,0 0,-98.504 z"
         id="path388" />
    </clipPath>
  </defs>
  <sodipodi:namedview
     id="base"
     pagecolor="#ffffff"
     bordercolor="#666666"
     borderopacity="1.0"
     inkscape:pageopacity="0.0"
     inkscape:pageshadow="2"
     inkscape:zoom="1.1306641"
     inkscape:cx="238.17442"
     inkscape:cy="57.213209"
     inkscape:document-units="px"
     inkscape:current-layer="layer1"
     showgrid="false"
     fit-margin-top="0"
     fit-margin-left="0"
     fit-margin-right="0"
     fit-margin-bottom="0"
     inkscape:window-width="1606"
     inkscape:window-height="1029"
     inkscape:window-x="70"
     inkscape:window-y="-4"
     inkscape:window-maximized="1" />
  <g
     inkscape:label="Ebene 1"
     inkscape:groupmode="layer"
     id="layer1"
     transform="translate(-382.49665,-555.73622)">
    <path
       d="m 465.90955,638.51085 c 0.39625,3.8325 -0.285,8.08875 -1.215,10.575 1.4725,0.59625 3.82,1.32875 5.59125,0.85125 1.5475,-4.71 -1.3425,-8.315 -2.675,-11.66875 -0.83375,-0.18625 -0.9425,0.3525 -1.70125,0.2425 m 4.98375,-1.70125 c -0.36875,0.6025 -1.05625,0.88875 -1.70125,1.215 1.655,2.95625 3.765,6.6425 3.03875,11.1825 2.5325,-1.6 4.4075,-3.8575 5.46875,-6.92875 -1.3075,-2.78375 -3.42625,-4.7575 -6.80625,-5.46875 m -12.03375,10.21 c 2.08875,-0.14375 3.02875,0.86 4.61875,1.215 1.19,-2.4975 1.15125,-6.22375 1.09375,-9.96625 -1.99875,-0.0675 -2.9325,-1.20125 -4.4975,-1.7025 -0.41125,3.4775 -0.37875,7.40125 -1.215,10.45375 m -11.9125,-8.75125 c -0.46,0.925 -0.6925,2.8475 -0.6075,4.25375 0.23375,3.84875 4.525,8.3075 8.265,7.17125 0.0712,-0.8 -0.05,-1.4075 -0.36375,-1.8225 -0.90625,-0.135 -1.9725,0.2125 -2.5525,0 -0.23125,-1.05875 1.63875,-1.02375 2.67375,-1.21625 -0.4925,-1.875 -1.925,-3.11 -2.67375,-4.86125 -0.8225,-1.92375 -0.77,-4.28 -1.7025,-5.835 -0.91375,0.655 -2.61375,1.45625 -3.03875,2.31 m 5.10625,-3.40375 c -0.5325,5.6425 2.31875,8.18375 4.1325,11.79 0.59,-0.0225 1.1625,-0.0275 1.45875,0.24375 0.4875,-1.6925 0.405,-3.90125 0.6075,-6.0775 0.1625,-1.76 -0.0213,-4.03375 0.48625,-5.34875 -1.90375,-0.98625 -4.34625,-1.12625 -6.685,-0.6075 m 26.61875,1.215 c -0.5725,-2.33875 -2.86875,-5.4675 -5.105,-5.59125 -0.59875,-0.0337 -1.95125,0.42125 -2.5525,0.72875 -0.835,0.42875 -1.22875,1.15125 -2.06625,1.945 0.3525,0.45875 0.3875,1.23375 0.73,1.7025 0.57875,-0.19125 0.525,-1.015 1.215,-1.09375 0.6425,0.14875 0.59375,1.14125 0.6075,1.58 3.41125,0.51875 5.585,2.275 7.05,4.74 0.55875,-1.28 0.45125,-2.67 0.12125,-4.01125 m -12.7625,-6.19875 c 0.7575,0.62 1.8125,0.9425 2.1875,1.945 1.1175,-0.545 1.6925,-1.63 2.9175,-2.06625 -1.52375,-0.715 -3.745,-0.98875 -5.105,0.12125 m -22.24375,3.7675 c -1.0425,-0.82125 -0.94375,-2.78375 -1.21625,-4.375 -0.63625,1.07125 -1.4975,2.175 -2.06625,3.4025 -0.46875,1.0125 -1.2875,2.99125 -1.45875,4.01125 -0.34875,2.08875 -1.08875,2.5475 -1.8225,4.13375 -0.2375,0.51125 -0.18375,1.04625 -0.365,1.58 -0.6175,1.815 -1.68125,4.02125 -1.945,5.83375 -0.43,2.955 0.47125,6.07125 -0.365,8.995 5.7575,1.745 5.335,-4.6825 8.50875,-6.32 0.38125,-0.95625 0.39,-2.285 0.9725,-3.03875 0.50625,0.83125 1.23125,1.4425 1.45875,2.5525 1.0125,1.66125 3.01,2.3075 4.4975,3.525 0.76375,0.625 1.3325,1.53125 1.82375,1.8225 1.19375,0.71 2.19875,-0.0312 3.525,0 -0.24125,-0.73125 -0.0713,-1.87375 -0.12125,-2.795 -5.05875,-0.015 -9.05,-3.29 -10.6975,-7.29375 -1.9675,-4.785 0.52375,-9.8575 3.2825,-11.91125 -1.34375,-1.33125 -1.81,-3.53875 -3.03875,-4.98375 -0.3275,1.61625 -0.43125,3.45875 -0.9725,4.86125 m -33.0625,-11.5475 c 2.2075,1.72375 5.43625,3.955 9.48125,2.675 0.96,-1.67125 2.58,-5.57375 -0.1225,-6.4425 -1.90625,2.46875 -5.34875,3.4025 -9.35875,3.7675 m 13.61375,-1.8225 c -0.38875,0.3275 -0.80625,-0.0937 -1.3375,0 -0.11625,1.34125 -0.2825,2.63375 -0.72875,3.64625 2.80875,-0.595 3.77875,-3.02875 5.105,-5.105 -2.16,0.0125 -3.765,-0.53 -5.47,-0.9725 0.2175,1.4025 2.385,0.85625 2.43125,2.43125 M 405.4983,616.2671 c -1.26125,0.625 -1.36375,1.7725 -2.06625,2.91625 -1.07375,1.74625 -2.82875,3.56375 -3.40375,4.8625 -0.92,2.07375 -0.425,3.2275 0.48625,4.61875 0.90375,1.38 1.89,1.8325 2.795,2.9175 0.92875,1.1125 1.30125,2.20375 2.18875,2.9175 0.785,0.6325 1.85625,1.18875 2.43,1.3375 1.3775,0.35375 2.0675,0.12625 3.04,0.72875 0.7275,0.45125 2.61,2.0325 3.03875,2.5525 1.1075,1.345 1.41875,3.01875 3.28125,3.89 1.12,0.5225 2.375,0.745 3.64625,1.3375 0.93625,0.435 2.7325,1.54375 3.525,1.45875 1.09,-0.1175 1.5775,-2.00125 2.31,-3.40375 0.81,-1.5525 1.91625,-2.7875 2.5525,-4.61875 0.38375,-1.10375 0.33625,-2.6475 0.48625,-4.01125 0.0988,-0.89375 0.4375,-1.74125 0.48625,-2.31 0.08,-0.91875 -0.09,-2.1575 0,-2.79625 0.25375,-1.81 2.01625,-2.675 2.67375,-4.1325 0.56625,0.006 1.19875,0.44125 1.58125,0.24375 0.75125,-1.485 -0.97625,-2.55 -1.7025,-3.6475 -1.4875,-0.1325 -1.87875,-1.3625 -3.28125,-1.58 -2.17,4.12 -5.4375,8.10125 -11.305,8.26625 -1.70625,0.0475 -4.1925,-0.18 -5.835,-0.9725 -0.6925,-0.335 -1.33875,-1.135 -2.06625,-1.7025 -2.68875,-2.09625 -3.925,-4.7775 -4.4975,-8.8725 l -0.2425,0 -0.12125,0 z m 81.31875,17.38125 c 0.7025,-0.44625 1.905,-1.435 2.06625,-2.1875 0.19625,-0.91875 -0.38125,-1.8475 -0.48625,-2.67375 -0.27875,-2.1925 0.5425,-3.81125 0.2425,-5.47 -0.0913,-0.5125 -0.6225,-1.1975 -0.85,-1.82375 -0.35625,-0.97625 -0.5075,-2.155 -0.9725,-2.9175 -0.35625,-0.5825 -2.25875,-2.54 -2.79625,-2.67375 -0.95375,-0.2375 -3.565,0.13375 -4.37625,0.2425 -1.725,0.23375 -3.4575,-0.37125 -5.105,-0.48625 -7.85125,-0.5475 -16.0275,-0.0725 -17.50375,5.71375 0.755,0.2175 1.5275,0.4175 2.31,0.6075 0.62625,2.47375 2.515,3.0175 2.9175,5.59125 0.0787,0.505 -0.1225,1.11 0,1.7025 0.12125,0.5925 0.7675,1.0675 0.9725,1.58 0.0763,0.1925 0.0113,0.62375 0.12125,0.9725 0.44125,1.39 1.48875,3.74125 2.43125,3.7675 0.6975,0.02 1.27125,-0.6925 1.33625,-1.09375 0.31125,-1.88 -3.4275,-3.875 -3.03875,-5.95625 0.18875,-1.00125 1.8075,-1.23625 3.16125,-1.3375 3.71125,-0.27625 7.96875,1.07375 10.69625,3.16125 0.6225,0.47625 2.16625,2.08125 2.43125,2.67375 0.57625,1.29125 0.36375,2.2125 1.09375,3.40375 1.245,-0.88625 3.70625,-1.75375 5.34875,-2.79625 m -77.6725,-20.05625 c -0.62875,-0.26375 -1.155,-0.625 -1.3375,-0.48625 -0.4275,1.26 0.17125,1.5325 0.365,2.43125 0.15375,0.71125 0.0163,1.58875 0.2425,2.18875 0.30625,0.80625 1.15375,1.55375 1.095,2.5525 4.3075,0.4725 8.02875,-1.455 9.9675,-4.13375 -0.1425,-0.7525 0.375,-1.48375 0,-2.06625 -2.99625,0.735 -8.13,0.44 -10.3325,-0.48625 m 2.1875,-6.9275 c -0.89125,1.57875 -2.58,2.3625 -3.03875,4.375 2.32875,1.98625 7.8025,2.15125 11.42625,1.7025 0.41125,-1.0475 0.58125,-2.33625 1.09375,-3.2825 -3.59625,-0.495 -6.6725,-1.51125 -9.48125,-2.795 m 10.45375,-2.0675 c -1.8175,-0.9775 -3.2475,-2.3425 -6.0775,-2.30875 -0.83,1.35875 -2.30375,2.07125 -3.2825,3.28125 2.69875,1.07125 5.57125,1.965 8.7525,2.5525 0.2425,-1.19375 1.03875,-2.36375 0.6075,-3.525 m -0.48625,-4.4975 c -0.4175,-1.7325 -1.8475,-5.37125 -3.64625,-4.49625 0.08,1.605 -0.14875,3.7725 -0.6075,5.22625 1.81125,0.37625 3.64,0.735 4.74,1.82375 -0.37,-0.5825 -0.25875,-1.60875 -0.48625,-2.55375 m 69.8925,5.2275 c -1.2125,-0.87125 -3.20625,-0.81875 -4.86125,-1.3375 -3.26625,-1.02375 -5.06875,-3.435 -7.53625,-5.59125 0.0188,-1.83875 -1.7325,-2.365 -2.5525,-3.525 -1.39625,-1.97375 -1.63375,-5 -4.13375,-5.95625 0.007,1.11 1.2575,1.575 1.7025,2.31 0.88625,1.4625 0.75375,3.1225 1.33625,4.4975 0.51,1.2025 1.27625,2.67625 2.0675,3.7675 0.575,0.795 1.21375,1.41125 1.8225,2.43125 0.91,1.52125 3.2225,3.26125 4.8625,4.1325 2.06375,1.0975 5.33125,0.96125 7.53625,2.31 1.18125,1.07875 1.39875,2.565 1.945,4.01125 0.19625,0.52125 0.62125,0.95 0.85,1.45875 0.39625,0.88 0.56625,1.67625 0.9725,2.43125 0.945,1.74875 2.41875,3.73625 3.2825,5.83375 0.0488,1.2875 0.57375,2.3725 0.6075,3.76875 0.03,1.23 -0.3575,2.7225 -0.2425,4.1325 0.1875,2.30125 0.4375,3.46625 -0.48625,4.98375 -0.5175,0.8475 -2.045,2.6525 -2.795,3.40375 -1.62375,1.62125 -3.5875,1.97625 -5.47125,2.9175 -0.135,0.0662 -0.23625,0.155 -0.365,0.2425 -1.53875,1.04125 -3.455,2.3625 -5.22625,3.76875 -2.56125,2.0325 -4.47125,3.52375 -5.95625,6.0775 -0.725,3.7225 -2.0975,9.19875 -7.17125,8.38625 -0.55375,-0.0888 -1.05625,-0.5425 -1.70125,-0.6075 -0.83625,-0.085 -2.435,0.1825 -3.2825,0.6075 -2.275,1.1425 -2.90625,4.60125 -6.80625,4.74125 -2.97625,0.10625 -4.29625,-1.37125 -6.0775,-2.67375 -0.7975,-0.58375 -1.6475,-1.71875 -2.675,-1.945 -0.7175,-0.15875 -1.3575,0.1075 -1.945,0 -1.21125,-0.2225 -1.805,-1.03625 -3.03875,-1.58125 -2.735,-0.0113 -4.10625,2.03375 -5.835,3.40375 -0.71125,0.565 -1.69375,0.965 -2.06625,1.58 -0.33375,0.55375 -0.28875,1.29625 -0.48625,1.945 -0.35125,1.1575 -0.995,2.325 -1.45875,3.525 -0.9625,2.49625 -1.2725,4.9725 -2.43,7.1725 -1.2275,0.83875 -2.23375,1.89875 -3.6475,2.5525 -1.5925,0.04 -1.6775,0.34875 -3.28125,0.12125 -1.12625,-1.27125 -1.76875,-2.16625 -3.2825,-2.79625 -1.76875,-0.735 -4.1,-0.25 -6.0775,-1.09375 -1.5825,-0.675 -3.32375,-4.025 -3.64625,-6.32 -0.3175,-2.26375 0.12125,-4.60125 -0.12125,-6.8075 -0.15625,-1.4225 -0.46875,-2.845 -0.73,-4.25375 -0.26125,-1.41375 -0.415,-2.97875 -0.85125,-4.13375 -0.5375,-1.42875 -2.435,-2.12875 -3.7675,-3.525 -0.69,-0.7225 -1.5725,-1.91375 -1.945,-2.795 -0.67625,-1.60125 -1.075,-3.04625 -2.67375,-3.6475 -0.585,-0.21875 -1.24,-0.003 -1.82375,-0.2425 -1.41,-0.5825 -1.84,-2.38 -3.64625,-2.79625 -0.75375,-1.3225 -1.0475,-2.585 -1.70125,-3.88875 -0.94375,-1.88 -2.68125,-3.0675 -3.64625,-4.62 -0.675,-1.08375 -1.225,-2.36375 -2.0675,-3.525 -1.04375,-1.43875 -1.84125,-2.3825 -2.06625,-4.25375 -0.2425,-2.02375 -0.0263,-4.13 0.2425,-5.95625 0.2425,-1.63875 1.48875,-3.3625 2.0675,-5.105 0.255,-0.77125 0.32375,-1.685 0.6075,-2.31 0.2575,-0.56625 0.88125,-0.9275 1.33625,-1.58 0.4725,-0.675 0.5375,-1.33 1.095,-1.8225 1.17,-1.035 2.935,-1.66125 4.61875,-2.31 0.58375,-0.225 0.96375,-0.63625 1.45875,-0.85125 0.555,-0.24125 1.17375,-0.2175 1.70125,-0.48625 1.005,-0.51 1.7575,-1.52625 2.67375,-2.30875 1.03625,-0.88375 2.3075,-1.42375 3.2825,-2.43125 0.56,-0.57875 1.0575,-1.40875 1.58,-2.06625 0.56125,-0.70625 1.3075,-1.35125 1.7025,-1.945 0.2875,-0.435 0.315,-1.0425 0.6075,-1.45875 0.3325,-0.4725 0.91625,-0.735 1.215,-1.215 0.6825,-1.09375 0.81625,-2.62375 1.21625,-4.01125 -1.07125,2.21 -3.34125,3.2225 -3.89,5.955 -2.41,0.88125 -3.5175,3.39625 -5.59125,4.62 -0.41,0.24125 -0.95,0.22875 -1.3375,0.48625 -0.975,0.64625 -1.49625,1.9225 -2.67375,2.43 -0.41,0.1775 -0.965,0.0937 -1.3375,0.24375 -1.21375,0.49 -2.015,1.7425 -3.64625,1.70125 -0.80625,-2.0525 -0.0163,-4.70875 0.365,-6.685 -0.27875,-3.9475 0.055,-8.4075 1.58,-11.5475 0.9675,-1.9925 2.03625,-3.15375 2.91625,-5.47 0.86875,-2.28375 1.66125,-4.5075 2.79625,-6.8075 0.54125,-1.095 1.0925,-2.39 1.70125,-3.03875 2.24875,-2.39125 6.0275,-3.79375 9.23875,-5.47 1.77125,-0.92375 3.29625,-2.12 5.22625,-2.91625 3.55375,-1.46625 7.5725,-2.43875 11.9125,-3.2825 3.16,-0.61375 6.12375,-1.66875 9.11625,-2.1875 0.94125,-0.16375 2.20125,-0.35625 3.16,-0.365 1.26375,-0.0125 2.56125,0.4925 3.89,0.6075 3.8175,0.33 7.97375,0.18875 11.42625,0.48625 3.2325,0.28 6.21875,1.52375 9.11625,2.43125 1.57,0.4925 2.995,0.9 4.255,1.58 1.1875,0.64125 2.04625,1.67625 3.28125,2.43125 0.39625,0.2425 0.91875,0.23 1.3375,0.48625 1.1525,0.7075 2.30625,1.6525 3.525,2.43125 2.28125,1.45875 3.95,2.4775 5.59125,4.4975 0.5775,0.71 1.38,1.93125 1.58,2.43125 0.79625,1.99625 0.3825,4.135 0.9725,5.95625 0.34625,1.0675 0.9575,1.89875 1.45875,3.03875 -0.0362,2.655 0.88875,5.165 1.215,7.9 0.3875,3.23875 -0.18375,6.52375 0.1225,9.725 0.1725,1.81125 0.865,3.96 -0.1225,5.59125"
       style="fill:#000000;fill-opacity:1;fill-rule:evenodd;stroke:none"
       id="path400"
       inkscape:connector-curvature="0" />
  </g>
  <metadata
     id="metadata4960">
    <rdf:RDF>
      <cc:Work
         rdf:about="">
        <dc:title />
        <dc:format>image/svg+xml</dc:format>
        <dc:type
           rdf:resource="http://purl.org/dc/dcmitype/StillImage" />
      </cc:Work>
    </rdf:RDF>
  </metadata>
</svg>
