<?xml version="1.0" encoding="UTF-8" standalone="no"?>
<!-- Created with Inkscape (http://www.inkscape.org/) -->

<svg
   xmlns:dc="http://purl.org/dc/elements/1.1/"
   xmlns:cc="http://creativecommons.org/ns#"
   xmlns:rdf="http://www.w3.org/1999/02/22-rdf-syntax-ns#"
   xmlns:svg="http://www.w3.org/2000/svg"
   xmlns="http://www.w3.org/2000/svg"
   xmlns:xlink="http://www.w3.org/1999/xlink"
   xmlns:sodipodi="http://sodipodi.sourceforge.net/DTD/sodipodi-0.dtd"
   xmlns:inkscape="http://www.inkscape.org/namespaces/inkscape"
   width="234.38"
   height="234.38"
   id="svg5202"
   version="1.1"
   inkscape:version="0.48.2 r9819"
   sodipodi:docname="Breed-Julii.svg">
  <defs
     id="defs5204" />
  <sodipodi:namedview
     id="base"
     pagecolor="#ffffff"
     bordercolor="#666666"
     borderopacity="1.0"
     inkscape:pageopacity="0.0"
     inkscape:pageshadow="2"
     inkscape:zoom="1.5990005"
     inkscape:cx="114.52165"
     inkscape:cy="54.238736"
     inkscape:document-units="px"
     inkscape:current-layer="layer1"
     showgrid="false"
     fit-margin-top="0"
     fit-margin-left="0"
     fit-margin-right="0"
     fit-margin-bottom="0"
     inkscape:window-width="1606"
     inkscape:window-height="1029"
     inkscape:window-x="70"
     inkscape:window-y="-4"
     inkscape:window-maximized="1" />
  <g
     inkscape:label="Ebene 1"
     inkscape:groupmode="layer"
     id="layer1"
     transform="translate(-20.0625,-468.5575)">
    <g
       id="g6183"
       transform="translate(2,0)">
      <path
         id="path5281"
         d="m 134.375,468.5625 c -63.140934,0 -114.3125,52.46649 -114.3125,117.1875 0,64.72101 51.171566,117.1875 114.3125,117.1875 63.14093,0 114.34375,-52.46649 114.34375,-117.1875 0,-64.72101 -51.20282,-117.1875 -114.34375,-117.1875 z m 1.03125,3.625 c 61.42391,0 111.21875,49.76359 111.21875,111.1875 0,61.42391 -49.79484,111.21875 -111.21875,111.21875 -61.423907,0 -111.21875,-49.79484 -111.21875,-111.21875 0,-61.42391 49.794843,-111.1875 111.21875,-111.1875 z"
         style="color:#000000;fill:#000000;fill-opacity:1;fill-rule:nonzero;stroke:none;stroke-width:2.80972672;marker:none;visibility:visible;display:inline;overflow:visible;enable-background:accumulate"
         inkscape:connector-curvature="0" />
      <path
         transform="matrix(1.4338461,0,0,1.4338461,-415.52015,-251.99596)"
         d="m 455.92677,583.39001 c 0,39.68742 -32.17301,71.86043 -71.86042,71.86043 -39.68742,0 -71.86043,-32.17301 -71.86043,-71.86043 0,-39.68741 32.17301,-71.86042 71.86043,-71.86042 39.68741,0 71.86042,32.17301 71.86042,71.86042 z"
         sodipodi:ry="71.860428"
         sodipodi:rx="71.860428"
         sodipodi:cy="583.39001"
         sodipodi:cx="384.06635"
         id="path5287"
         style="color:#000000;fill:none;stroke:#000000;stroke-width:1.3948499;marker:none;visibility:visible;display:inline;overflow:visible;enable-background:accumulate"
         sodipodi:type="arc" />
      <path
         sodipodi:type="arc"
         style="color:#000000;fill:none;stroke:#000000;stroke-width:1.50812089;marker:none;visibility:visible;display:inline;overflow:visible;enable-background:accumulate"
         id="path5289"
         sodipodi:cx="384.06635"
         sodipodi:cy="583.39001"
         sodipodi:rx="71.860428"
         sodipodi:ry="71.860428"
         d="m 455.92677,583.39001 c 0,39.68742 -32.17301,71.86043 -71.86042,71.86043 -39.68742,0 -71.86043,-32.17301 -71.86043,-71.86043 0,-39.68741 32.17301,-71.86042 71.86043,-71.86042 39.68741,0 71.86042,32.17301 71.86042,71.86042 z"
         transform="matrix(1.3261538,0,0,1.3261538,-372.6114,-192.04377)" />
      <path
         transform="matrix(0,1.879518,-1.879518,0,1227.5525,-128.05451)"
         d="m 413.47384,580.51556 c 0,20.27112 -16.43298,36.7041 -36.7041,36.7041 -20.27111,0 -36.70409,-16.43298 -36.70409,-36.7041 0,-20.27111 16.43298,-36.70409 36.70409,-36.70409 20.27112,0 36.7041,16.43298 36.7041,36.70409 z"
         sodipodi:ry="36.704094"
         sodipodi:rx="36.704094"
         sodipodi:cy="580.51556"
         sodipodi:cx="376.76974"
         id="path5291"
         style="color:#000000;fill:none;stroke:none;stroke-width:1.06410253;marker:none;visibility:visible;display:inline;overflow:visible;enable-background:accumulate"
         sodipodi:type="arc" />
      <text
         sodipodi:linespacing="125%"
         id="text5293"
         style="font-size:28px;font-style:normal;font-weight:normal;line-height:125%;letter-spacing:0px;word-spacing:0px;fill:none;stroke:#000000;stroke-width:2;font-family:Bitstream Vera Sans"
         xml:space="preserve"><textPath
           id="textPath5297"
           startOffset="50%"
           xlink:href="#path5291"><tspan
   id="tspan5295"
   style="font-size:28px;font-style:normal;font-variant:normal;font-weight:bold;font-stretch:normal;text-align:center;letter-spacing:11.3499918px;text-anchor:middle;fill:none;stroke:#000000;stroke-width:2;font-family:TeXGyreHeros;-inkscape-font-specification:TeXGyreHeros Bold">IVLII</tspan></textPath></text>
      <path
         inkscape:connector-curvature="0"
         id="path5302"
         d="m 137.71875,514.46875 c -6.41104,0 -11.59375,5.21396 -11.59375,11.625 0,6.41104 5.18271,11.59375 11.59375,11.59375 5.66562,0 10.38579,-4.06893 11.40625,-9.4375 -1.22353,2.82241 -4.04037,4.78125 -7.3125,4.78125 -4.39614,0 -7.9375,-3.54136 -7.9375,-7.9375 0,-4.39614 3.54136,-7.96875 7.9375,-7.96875 1.92331,0 3.68656,0.67697 5.0625,1.8125 -2.12454,-2.71909 -5.43814,-4.46875 -9.15625,-4.46875 z"
         style="color:#000000;fill:none;stroke:#000000;stroke-width:2;stroke-linecap:square;stroke-linejoin:round;stroke-miterlimit:4;stroke-opacity:1;stroke-dasharray:none;stroke-dashoffset:0;marker:none;visibility:visible;display:inline;overflow:visible;enable-background:accumulate" />
      <g
         transform="matrix(0.4488847,0,0,0.4488847,254.79447,658.19541)"
         id="g6165">
        <path
           style="fill:#000000"
           d="m -265.46838,29.22894 c -1.925,-0.71468 -6.80541,-1.60066 -10.84534,-1.96886 -11.04442,-1.00656 -11.15466,-1.1185 -11.15466,-11.32609 0,-7.43915 -0.39815,-9.46067 -2.91077,-14.77862 -1.60092,-3.38836 -4.97037,-8.57354 -7.48766,-11.52262 -2.52545,-2.95864 -4.85559,-6.84752 -5.19867,-8.6763 -0.46136,-2.45929 -0.0418,-20.18553 0.52277,-22.08412 0.0409,-0.1375 1.86868,-0.25 4.06179,-0.25 5.91116,0 8.08403,3.89083 13.10175,23.46063 0.55854,2.17835 1.38331,4.42835 1.83283,5 0.44952,0.57165 1.35607,2.83937 2.01454,5.03937 1.64519,5.49663 4.705,11.16064 8.91363,16.5 3.61487,4.58606 9.0504,9.98712 10.0799,10.01597 0.31344,0.009 2.14489,1.35398 4.06989,2.98932 1.925,1.63534 4.08757,3.46932 4.80571,4.0755 0.71814,0.60618 1.16409,1.84848 0.991,2.76068 -0.40687,2.14426 -7.87865,2.59102 -12.79671,0.76514 z"
           id="path6161"
           inkscape:connector-curvature="0" />
        <path
           style="fill:#000000"
           d="m -328.46838,0.6951 c -4.20504,-0.96341 -7.57609,-3.87792 -10.32308,-8.92504 -1.44239,-2.65016 -5.76172,-8.33391 -9.59849,-12.63056 -5.58874,-6.25862 -7.185,-8.78684 -8.02719,-12.71385 -1.43193,-6.67687 -1.2903,-16.27177 0.42518,-28.80332 3.03506,-22.17114 8.94793,-29.65575 23.52358,-29.77651 6.81196,-0.0564 13.34061,2.04705 15.87244,5.11399 2.43028,2.94392 6.76641,2.03661 11.61179,-2.42971 2.44174,-2.25072 4.67637,-4.83841 4.96583,-5.75042 0.70441,-2.21942 9.84604,-6.34975 12.20376,-5.51386 3.5917,1.27338 6.40083,4.60663 5.72196,6.78955 -0.62419,2.00709 -5.60018,9.04682 -7.82262,11.06696 -0.60507,0.55 -2.05667,2.24048 -3.22578,3.75662 -1.1691,1.51614 -4.25434,4.51568 -6.8561,6.66565 -4.69166,3.87696 -4.80118,3.90904 -13.35087,3.91003 -9.12416,0.001 -17.62041,1.92729 -17.62041,3.99482 0,0.68155 1.08946,1.78676 2.42103,2.45603 3.96829,1.99453 3.50434,3.41399 -2.39642,7.33188 -6.18586,4.10717 -6.62217,5.83795 -2.10295,8.34201 1.60691,0.89037 3.80931,3.32933 4.89422,5.41992 1.72436,3.32274 2.30048,3.71796 4.57835,3.1407 10.09937,-2.55937 12.74668,-1.59669 12.87617,4.68235 0.0488,2.365 0.79539,6.26907 1.65914,8.67572 2.19289,6.10997 2.0412,6.88356 -2.05089,10.4596 -1.99175,1.74057 -5.37088,5.51355 -7.50919,8.3844 -4.42679,5.94333 -6.32486,7.16513 -9.86946,6.35304 z"
           id="path6159"
           inkscape:connector-curvature="0" />
        <path
           style="fill:#000000"
           d="m -217.10738,13.25855 c -2.80049,-3.38335 -6.49843,-5.10338 -19.861,-9.238 -2.75,-0.85089 -10.175,-2.12298 -16.5,-2.82685 -14.01379,-1.5595 -17.98419,-3.40992 -17.99368,-8.38599 -0.0127,-6.66008 3.89427,-13.20464 13.44046,-22.51407 14.74024,-14.37467 17.26606,-16.18346 22.32538,-15.98766 5.50286,0.21297 6.83528,1.35292 7.51634,6.43062 0.3057,2.27918 1.46804,4.9419 2.62968,6.02413 2.33443,2.17485 2.59581,4.03268 0.98961,7.0339 -0.85923,1.60549 -1.72717,1.91382 -4.06894,1.44547 -6.23506,-1.24701 -23.79838,5.06663 -23.82571,8.56484 -0.0158,2.025 2.93037,3.12066 6.19085,2.30233 3.58291,-0.89926 7.36644,0.98147 12.86703,6.39599 3.39783,3.34464 6.32837,5.23401 9.26547,5.97358 4.78971,1.20606 6.53219,2.79254 9.49566,8.64549 4.18646,8.2684 2.58509,12.24481 -2.47115,6.13622 z"
           id="path6155"
           inkscape:connector-curvature="0" />
        <path
           style="fill:#000000"
           d="m -191.46838,-2.80148 c -6.13375,-1.35931 -9.80474,-3.3163 -10.45542,-5.57371 -0.23819,-0.82637 -0.88436,-4.04384 -1.43592,-7.14994 -0.70084,-3.94672 -2.37397,-7.69188 -5.55575,-12.43611 -5.00406,-7.46134 -5.17568,-7.95207 -3.18839,-9.11674 3.86867,-2.26727 6.30504,-13.72179 3.17416,-14.92322 -0.84607,-0.32467 -3.50452,1.1621 -6.31435,3.53139 -2.66918,2.25068 -5.59607,4.09214 -6.50421,4.09214 -0.90814,0 -2.98216,-1.2375 -4.60893,-2.75 -1.62678,-1.5125 -4.11729,-3.55851 -5.53448,-4.54668 -3.56647,-2.48683 -3.24649,-5.11059 0.92329,-7.57082 3.83206,-2.26097 4.50661,-5.00487 1.93781,-7.8825 -0.85921,-0.9625 -2.68423,-3.49436 -4.05561,-5.62635 l -2.49342,-3.87636 2.27941,-2.42631 c 1.92917,-2.05352 2.05295,-2.56952 0.80561,-3.35834 -0.81059,-0.51261 -2.8238,-0.94168 -4.4738,-0.95349 -1.65,-0.0118 -4.20719,-0.65129 -5.68264,-1.42106 -1.47545,-0.76977 -4.17545,-1.71629 -6,-2.10338 -6.38298,-1.35416 -18.94714,-8.72285 -24.9953,-14.65936 -3.2642,-3.20394 -6.81633,-5.82535 -7.89363,-5.82535 -4.07452,0 -13.08399,-6.31531 -19.72392,-13.82575 -8.83782,-9.99648 -13.11242,-14.33788 -16.45926,-16.71646 -4.72068,-3.35498 -6.38662,-17.23022 -2.25892,-18.81417 2.13956,-0.82103 9.0976,6.8644 11.1869,12.35638 2.86131,7.52129 5.99647,11.67385 11.64379,15.42233 2.96449,1.96772 5.72899,3.57767 6.14333,3.57767 0.41433,0 3.01403,1.8 5.77712,4 2.76308,2.2 6.10793,4 7.433,4 1.32506,0 4.17335,0.9 6.32953,2 2.15618,1.1 4.72575,2.01975 5.71016,2.04389 2.95473,0.0725 9.15688,2.592 13.09185,5.31839 2.35612,1.63246 5.75451,2.80377 9.36546,3.22794 5.23801,0.6153 5.86839,0.46483 8.31883,-1.98561 3.63891,-3.63891 2.94406,-5.87536 -2.21284,-7.12225 -5.2201,-1.26218 -6.04823,-2.09019 -6.45216,-6.45116 -0.24862,-2.68414 -0.99992,-3.81517 -3.3213,-5 -1.65,-0.84216 -3.20134,-1.65754 -3.44743,-1.81197 -0.72817,-0.45692 3.10375,-6.5391 5.62074,-8.92148 1.27968,-1.21124 2.32669,-3.30282 2.32669,-4.64797 0,-2.74663 10.66699,-14.67226 13.07443,-14.61713 0.78406,0.0179 3.82369,0.86086 6.75473,1.87313 6.95466,2.40187 9.28594,5.88861 12.21733,18.27258 l 2.29094,9.67836 -2.73686,6.09853 c -1.50527,3.3542 -2.58936,6.87393 -2.40908,7.82164 0.18028,0.94771 2.6693,2.98026 5.53115,4.51678 2.86185,1.53652 6.19124,4.18102 7.39865,5.87666 2.05428,2.88497 2.11868,3.47627 1.00264,9.20633 -0.65595,3.36784 -1.27188,8.18803 -1.36873,10.71154 -0.16631,4.33347 0.13089,4.88866 5.35314,10 6.89824,6.75173 8.01242,11.1206 7.17458,28.13257 -0.55208,11.20966 -0.4819,11.76398 2.0325,16.05448 1.95704,3.33944 3.79486,4.95582 7.39445,6.50351 9.04817,3.89038 9.6462,3.85598 14.74986,-0.8484 4.26449,-3.93088 5.03724,-4.25464 10.32488,-4.32592 4.42313,-0.0596 6.92939,0.55792 11.08466,2.73125 5.73407,2.99909 5.68102,2.96304 11.38073,7.73312 3.9873,3.33697 4.576,5.00078 2.40649,6.80132 -0.99892,0.82902 -2.72195,0.70566 -6.71776,-0.48097 -6.85405,-2.03543 -19.23898,-1.99803 -24.19483,0.0731 -2.06586,0.86334 -6.56586,1.84076 -10,2.17205 -3.8083,0.36738 -7.87367,1.53138 -10.42197,2.98403 -2.29794,1.30993 -4.54794,2.33558 -5,2.27922 -0.45206,-0.0564 -3.29693,-0.65096 -6.32193,-1.32134 z"
           id="path6153"
           inkscape:connector-curvature="0" />
        <path
           style="fill:#000000"
           d="m -339.4518,-100.00994 c -3.8262,-1.61279 -6.66042,-5.63842 -8.58131,-12.18855 -2.82537,-9.63442 -2.93106,-12.67416 -0.55666,-16.00871 3.01701,-4.23699 12.17845,-9.17047 17.02952,-9.17047 4.43886,0 9.45515,3.46543 10.49025,7.24705 0.55938,2.04363 4.33266,5.22179 11.85162,9.9824 3.04558,1.9283 3.44151,4.2722 1.2182,7.21168 -0.80751,1.06762 -1.4682,3.19802 -1.4682,4.73422 0,1.66111 -1.11452,3.9955 -2.75,5.75995 -2.68262,2.89416 -3.01703,2.97417 -13.64861,3.26578 -6.56089,0.17995 -11.96773,-0.15173 -13.58481,-0.83335 z"
           id="path6151"
           inkscape:connector-curvature="0" />
        <path
           style="fill:#000000"
           d="m -394.1736,-20.17432 c -0.66287,-0.42132 -2.3843,-3.34149 -3.8254,-6.48927 -3.00915,-6.57284 -3.5425,-16.04378 -1.72964,-30.71408 1.45804,-11.799 2.26265,-15.07817 4.47865,-18.25263 2.37303,-3.3994 8.52148,-14.62298 13.83089,-25.24737 2.19884,-4.4 6.45551,-11.57832 9.45927,-15.95183 7.79061,-11.34324 10.65548,-12.56885 8.51405,-3.64236 -0.92964,3.87517 -0.93643,7.0631 -0.0299,14.03807 1.38082,10.62417 0.5416,14.34658 -4.49481,19.93683 -1.79339,1.99061 -4.82904,6.58099 -6.74589,10.20085 -4.20003,7.93154 -6.80855,12.07713 -8.44323,13.41844 -1.96876,1.61543 -3.30878,6.27402 -3.30878,11.50305 0,2.68006 -0.71187,7.93827 -1.58194,11.6849 -1.0076,4.33883 -1.35375,8.64439 -0.95343,11.85889 0.34568,2.77577 0.33441,5.81327 -0.025,6.75 -0.68469,1.78428 -3.09546,2.20905 -5.1448,0.90651 z"
           id="path6147"
           inkscape:connector-curvature="0" />
        <path
           style="fill:#000000"
           d="m -428.42375,-55.74245 c -0.83053,-2.51651 -1.92152,-3.59625 -4.32756,-4.28292 -2.90584,-0.82931 -3.44374,-1.62578 -5.56008,-8.23268 -3.13434,-9.78501 -2.50499,-12.67071 4.40199,-20.18377 3.2582,-3.54411 5.44102,-6.83087 5.44102,-8.19276 0,-4.0358 3.3316,-8.41073 11.02291,-14.47487 9.5682,-7.54396 19.75973,-17.84948 22.97709,-23.23408 1.375,-2.30122 4.32258,-6.5128 6.55019,-9.35908 8.32088,-10.63187 8.80516,-11.59927 8.65543,-17.29022 -0.14116,-5.36506 2.33801,-13.41129 6.73116,-21.84628 2.68293,-5.1513 2.72485,-6.96302 0.12896,-5.57374 -1.06384,0.56935 -3.29144,1.03518 -4.95023,1.03518 -2.3601,0 -3.84228,0.99356 -6.81574,4.56886 -2.08987,2.51288 -6.49977,6.39253 -9.79977,8.62145 -3.3,2.22892 -7.35,5.30058 -9,6.8259 -1.65,1.52532 -5.37189,3.95801 -8.27086,5.40597 -4.32172,2.15858 -5.37101,2.37168 -5.82701,1.18338 -0.30587,-0.7971 -0.0569,-2.38217 0.55335,-3.52237 0.9672,-1.80723 0.68854,-2.33046 -2.173,-4.08012 -1.90777,-1.16648 -3.91068,-1.7049 -4.78248,-1.28562 -0.825,0.39678 -5.36659,0.71713 -10.09241,0.71191 -7.81877,-0.009 -9.20261,-0.32104 -15.36938,-3.46943 -6.62366,-3.38166 -14.53821,-10.08493 -14.53821,-12.31322 0,-0.6149 -1.18321,-3.59946 -2.62936,-6.63236 -1.44615,-3.03289 -3.12635,-6.58134 -3.73379,-7.88545 -2.24749,-2.84962 -6.97939,-8.71495 -1.13685,-5.30067 1.1,0.20803 2.69734,0.99494 3.54965,1.74868 2.47851,2.19188 9.83136,4.42309 14.57608,4.42309 4.3325,0 4.37427,-0.0334 4.37427,-3.5 0,-5.20658 3.01154,-4.60135 9.65945,1.94126 4.88017,4.80287 6.33288,5.62413 12.3821,7 12.46757,2.83569 12.90429,1.75654 2.94334,-7.27306 -3.84169,-3.48248 -6.98444,-6.63248 -6.98389,-7 0.002,-1.27199 12.51137,-0.59787 15.499,0.83523 1.65,0.79147 5.34329,3.13948 8.2073,5.2178 7.7913,5.6539 15.20607,4.88994 10.39536,-1.07106 -6.04117,-7.48568 -8.10266,-10.62309 -8.10266,-12.33159 0,-2.3787 2.7687,-3.49864 4.88592,-1.97634 6.60157,4.74656 20.71542,8.97667 24.03079,7.20234 2.49747,-1.33661 2.52872,-1.73428 0.51489,-6.55405 -1.82445,-4.36652 -0.81275,-6.30007 2.39745,-4.58202 1.12408,0.60159 4.20989,1.20578 6.85736,1.34264 4.71364,0.24368 4.81987,0.18447 5.11582,-2.85192 0.2349,-2.40999 -0.26635,-3.47331 -2.25,-4.77305 -2.88057,-1.88743 -3.39842,-5.67901 -1.04266,-7.63412 2.00422,-1.66336 8.40981,-0.75724 13.53623,1.9148 7.80917,4.07036 9.56218,1.48132 2.87351,-4.24393 -2.99504,-2.56365 -3.99271,-4.11142 -3.75,-5.81771 0.46847,-3.29343 3.23286,-3.4702 11.24895,-0.71934 5.72226,1.9637 8.26718,3.64073 14.72121,9.70093 8.68223,8.15242 11.37113,8.66185 7.18224,1.36074 -4.56183,-7.95114 -8.17767,-11.93941 -12.89476,-14.22291 -5.08306,-2.46067 -5.68908,-5.25824 -1.25058,-5.77313 2.97982,-0.34568 10.96274,3.37177 15.57543,7.2531 7.45352,6.27172 8.53334,-0.84216 1.18302,-7.79373 -2.23845,-2.11702 -3.92246,-3.99658 -3.74224,-4.17679 0.48611,-0.48611 6.77601,-0.85918 11.02262,-0.65379 4.31689,0.2088 10.21517,4.774 11.19091,8.66162 0.73813,2.94095 4.31106,5.20091 5.82655,3.68542 1.57592,-1.57592 0.005,-7.61913 -2.75513,-10.59708 -2.93594,-3.16794 -3.07588,-4.2014 -0.72753,-5.37291 2.32765,-1.16119 16.2551,0.88936 19.08958,2.81058 1.8871,1.27908 6.11476,9.39266 10.01598,19.22236 0.73429,1.85014 1.57974,2.5399 2.62265,2.1397 2.57617,-0.98857 2.81452,-4.83713 0.60057,-9.69706 -1.14333,-2.50976 -2.07878,-4.93981 -2.07878,-5.4001 0,-0.4603 3.2625,-0.93356 7.25,-1.0517 l 7.25,-0.21479 2.75,4.35169 c 1.5125,2.39342 2.75,4.83434 2.75,5.42425 0,1.58322 5.07021,5.29236 6.24333,4.56734 0.59463,-0.36751 0.77761,-2.85774 0.44605,-6.07031 -0.66894,-6.4814 -0.13529,-8.27931 2.45745,-8.27931 1.06306,0 3.60977,-0.8555 5.65935,-1.90112 2.45089,-1.25035 6.97287,-2.12766 13.21017,-2.5629 5.21601,-0.36398 12.10521,-1.32962 15.30935,-2.14587 l 5.82569,-1.4841 5.17431,3.40467 c 2.84586,1.87256 6.21088,3.94743 7.47781,4.61081 2.79103,1.46143 6.18762,6.78499 6.19275,9.70607 0.002,1.17015 0.66752,2.67844 1.47881,3.35175 1.77936,1.47674 2.85764,-0.63378 4.46503,-8.73939 0.82421,-4.15621 0.73314,-6.14986 -0.43394,-9.5 -0.81238,-2.33196 -1.4836,-4.80242 -1.49161,-5.48992 -0.0216,-1.85577 3.80081,-1.51361 6.83108,0.61146 1.4599,1.02381 4.3274,2.16649 6.37222,2.53929 6.1024,1.11255 6.78215,2.46601 6.78215,13.50401 0,5.36905 0.26899,10.0309 0.59777,10.35967 2.46856,2.46856 7.57254,-6.23861 8.36154,-14.26443 0.49446,-5.02973 0.75104,-5.5 3.00086,-5.5 1.6816,0 3.18482,1.07532 4.75,3.39788 1.89865,2.81742 2.28383,4.69657 2.2547,11 -0.0193,4.18117 -0.67851,10.52712 -1.46487,14.10212 -0.78636,3.575 -1.44555,8.75077 -1.46487,11.50172 -0.0345,4.91406 -0.11596,5.04459 -4.64749,7.44857 -2.5368,1.34577 -6.2493,3.75342 -8.25,5.35034 -2.0007,1.59693 -6.14979,4.17601 -9.22019,5.7313 -7.455,3.77628 -19.9829,15.619 -20.06708,18.96956 -0.15321,6.09849 -0.95642,7.68983 -5.03964,9.98473 -6.33593,3.56099 -17.32349,3.4323 -25.39275,-0.2974 l -6.08202,-2.81118 -4.71492,2.50695 c -2.59321,1.37882 -6.8313,2.77325 -9.41798,3.09873 -7.43428,0.93547 -11.47043,2.26283 -15.16183,4.98626 -4.10068,3.02539 -8.55157,3.31387 -9.97895,0.64679 -0.55445,-1.03599 -2.60588,-2.18337 -4.55874,-2.54973 -1.95286,-0.36636 -5.45255,-1.94631 -7.7771,-3.51101 -9.19968,-6.19248 -17.0154,-9.54121 -21.47348,-9.20054 -4.13644,0.31609 -4.29985,0.21154 -6.27516,-4.01527 -1.11548,-2.3869 -2.78938,-5.54657 -3.7198,-7.02148 -1.60918,-2.5509 -1.59576,-2.78761 0.27517,-4.8544 1.08176,-1.19501 3.54183,-4.80952 5.46683,-8.03224 1.925,-3.22273 5.2685,-8.35975 7.43,-11.4156 5.44338,-7.69569 3.78056,-8.61377 -4.94308,-2.72918 -9.07112,6.11899 -18.30187,15.70978 -19.07223,19.81611 -0.3735,1.99096 -2.55867,5.08264 -5.98156,8.46301 -2.96619,2.92934 -6.60371,7.71887 -8.08338,10.64339 -2.53609,5.01248 -2.86693,5.28417 -5.77107,4.73935 -2.503,-0.46956 -3.57906,-0.0501 -5.73794,2.23664 -3.37942,3.57959 -9.36086,14.60481 -10.74988,19.81458 -1.54784,5.80548 -4.79456,9.01771 -11.59086,11.46777 -3.3,1.18964 -7.575,3.67925 -9.5,5.53247 -1.925,1.85322 -6.72381,5.3113 -10.66401,7.68462 -6.54483,3.94218 -10.26094,7.55531 -14.33599,13.93872 -0.825,1.29233 -7.96038,8.75239 -15.85641,16.57792 l -14.3564,14.22823 -0.84831,7.56429 c -0.46656,4.16036 -1.31868,10.10881 -1.89359,13.21879 -0.57491,3.10998 -1.04529,5.79686 -1.04529,5.97085 0,0.17399 -0.4151,0.31634 -0.92245,0.31634 -0.50734,0 -1.42216,-1.51415 -2.03292,-3.36478 z"
           id="path6145"
           inkscape:connector-curvature="0"
           sodipodi:nodetypes="ssssssssssssssssccsscsssccsssssscsssssssssssssssssssssscssscssssssscsscssssscsscssscssscsssssssssssscsssssssssssssssssssssssscsssss" />
        <path
           style="fill:#000000"
           d="m -266.80171,26.95566 c -0.36667,-0.36666 -0.65299,-1.37916 -0.63626,-2.25 0.025,-1.3003 0.22011,-1.2571 1.09166,0.24167 1.07678,1.85169 0.76461,3.22835 -0.4554,2.00833 z"
           id="path6143"
           inkscape:connector-curvature="0" />
        <path
           style="fill:#000000"
           d="m -98.96838,-61.66162 c -1.1,-0.64148 -3.575,-2.14767 -5.5,-3.34709 -1.925,-1.19941 -4.99281,-2.49051 -6.81736,-2.86911 -1.82455,-0.37859 -4.494,-1.2988 -5.93211,-2.0449 -1.43811,-0.7461 -4.89771,-1.64178 -7.68801,-1.99041 -4.81556,-0.60166 -5.21269,-0.88357 -7.81789,-5.54972 -1.50955,-2.70373 -2.74463,-5.56946 -2.74463,-6.36829 0,-2.97718 -2.41991,-6.59673 -5.707,-8.53616 -1.92254,-1.13433 -4.03312,-3.53749 -4.87373,-5.54934 -0.99352,-2.37783 -3.012,-4.44141 -6.11808,-6.2548 -6.00632,-3.5066 -8.10191,-5.56406 -8.89806,-8.73616 -1.49743,-5.96623 7.29324,-9.82526 19.46338,-8.54426 5.83314,0.61398 6.6709,1.01254 10,4.7574 5.5728,6.26877 9.14682,11.77723 14.95835,23.05456 6.36987,12.36079 9.28536,14.77181 19.17514,15.85727 5.73483,0.62943 6.88259,1.13027 9.75,4.2546 1.7875,1.94766 3.25,4.09611 3.25,4.77435 0,0.67823 0.73607,1.96922 1.63571,2.86887 2.14375,2.14374 1.0223,3.05171 -5.43493,4.40036 -6.46696,1.35067 -8.12804,1.32317 -10.70078,-0.17717 z"
           id="path6133"
           inkscape:connector-curvature="0" />
        <path
           style="fill:#000000"
           d="m -81.36864,-87.38345 c -4.62015,-1.57697 -11.20869,-3.16797 -14.64121,-3.53556 -6.09187,-0.65239 -6.39341,-0.8271 -12.62303,-7.31351 -3.51014,-3.65483 -8.38729,-9.84263 -10.83811,-13.75066 -2.45082,-3.90804 -6.15284,-8.38186 -8.22672,-9.94183 -2.07387,-1.55997 -3.77067,-3.26295 -3.77067,-3.78439 0,-1.71052 10.33809,0.0963 16.3045,2.84965 6.83709,3.1551 9.26259,5.30932 13.24511,11.76372 1.8864,3.05724 3.85196,4.97753 5.45039,5.32484 5.45068,1.18434 14.61143,4.80702 16.56445,6.55053 1.13545,1.01365 2.51376,1.84299 3.06291,1.84299 0.54915,0 2.26332,1.32023 3.80925,2.93384 2.39675,2.50167 2.71225,3.45915 2.14178,6.5 -0.36796,1.96139 -0.98613,3.53498 -1.3737,3.49688 -0.38758,-0.0381 -4.48481,-1.35953 -9.10495,-2.9365 z"
           id="path6129"
           inkscape:connector-curvature="0" />
        <path
           style="fill:#000000"
           d="m -178.57714,-123.73252 c -3.70683,-1.17627 -6.89124,-3.31726 -6.89124,-4.63323 0,-0.40875 3.0375,-0.99399 6.75,-1.30053 8.32576,-0.68746 23.63682,-5.6114 24.02689,-7.72691 0.33826,-1.83451 -8.74483,-8.8281 -13.08079,-10.07164 -4.27163,-1.22508 -13.56693,-0.0363 -17.31413,2.2144 -1.80795,1.08589 -4.99588,1.87276 -7.58732,1.87276 -3.98687,0 -4.91215,-0.4725 -8.5721,-4.37738 -3.69483,-3.94211 -8.21212,-10.33167 -8.21694,-11.62262 -0.001,-0.275 6.40979,-0.54732 14.24626,-0.60515 11.74262,-0.0867 15.52549,-0.50019 21.51208,-2.35163 3.99517,-1.23557 7.91845,-1.99534 8.7184,-1.68837 0.79995,0.30697 2.1625,2.26521 3.02789,4.35164 1.91477,4.61647 8.39521,10.93823 13.32373,12.9975 2.81311,1.17539 5.60526,1.36316 12.38439,0.83284 10.15618,-0.7945 17.25407,0.39237 25.59927,4.28059 l 5.68237,2.64755 -8.5,0.60391 c -4.675,0.33215 -10.07203,1.12753 -11.9934,1.76751 -1.92137,0.63999 -5.41886,1.16361 -7.7722,1.16361 -2.99933,0 -6.65772,1.1961 -12.2344,4 -4.37558,2.2 -8.84845,4 -9.93971,4 -1.09125,0 -5.48874,1.11926 -9.77219,2.48723 -8.67836,2.77155 -8.39021,2.74665 -13.39686,1.15792 z"
           id="path6123"
           inkscape:connector-curvature="0" />
        <path
           style="fill:#000000"
           d="m -278.02373,-129.56041 c -1.89456,-1.66344 -3.44465,-3.78256 -3.44465,-4.70915 0,-0.9266 1.51321,-6.16748 3.36268,-11.64641 l 3.36268,-9.9617 2.53455,5.5 c 6.3382,13.75396 6.89606,15.45956 5.90719,18.06049 -2.17959,5.73277 -7.03301,6.87415 -11.72245,2.75677 z"
           id="path6117"
           inkscape:connector-curvature="0" />
        <path
           style="fill:#000000"
           d="m -143.82283,-154.29166 c -4.94746,-1.41767 -6.06318,-2.17397 -7.20173,-4.88179 -0.741,-1.76232 -1.79434,-3.20422 -2.34075,-3.20422 -0.54642,0 -1.13064,-2.1375 -1.29828,-4.75 -0.30085,-4.68861 -0.35245,-4.75396 -3.99237,-5.05664 -6.05112,-0.50319 -5.89321,-5.95808 0.30956,-10.69336 2.16134,-1.65 5.10958,-3.9 6.55163,-5 1.44206,-1.1 3.79292,-3.33855 5.22415,-4.97456 8.44764,-9.65632 11.86077,-12.52544 14.90037,-12.52544 3.97491,0 4.30083,0.67127 2.65305,5.46434 -0.74859,2.1775 -1.1507,4.16948 -0.89357,4.4266 1.09855,1.09855 7.50933,-3.09152 10.58423,-6.91782 3.14059,-3.90805 3.56662,-4.11545 7.24529,-3.52721 3.02147,0.48316 4.38558,0.19972 6.01068,-1.24893 1.1562,-1.03066 5.70219,-2.91048 10.10219,-4.17737 12.91529,-3.7187 23.04364,-7.90494 25.53072,-10.55231 2.29393,-2.44178 4.96928,-3.29309 4.96928,-1.58125 0,3.54307 -16.44337,21.95115 -21.54025,24.11395 -1.78271,0.75647 -7.60495,6.1236 -10.78898,9.94564 -2.27939,2.73612 -2.71171,4.02259 -2.22451,6.6196 0.71478,3.81012 -2.62506,13.61356 -5.67794,16.66644 -2.00359,2.00359 -6.34896,2.09038 -12.39558,0.24757 -1.74882,-0.53298 -2.46041,0.0338 -4,3.18622 -1.28391,2.62888 -3.58814,4.85639 -7.3285,7.08453 -6.12207,3.64691 -6.28215,3.66177 -14.39869,1.33601 z"
           id="path6109"
           inkscape:connector-curvature="0" />
        <path
           style="fill:#000000"
           d="m -72.29019,-167.96541 c -1.70418,-1.19366 -3.47101,-1.42213 -7.11839,-0.92048 -5.93473,0.81623 -10.71491,-1.26947 -11.6748,-5.09396 -0.82133,-3.27242 0.39852,-15.43205 1.7062,-17.0077 0.54623,-0.65818 3.49795,-2.42217 6.55937,-3.91998 5.68902,-2.78338 13.80936,-10.19318 14.88515,-13.58267 0.64743,-2.0399 3.46428,-2.63174 3.46428,-0.72788 0,0.63777 -2.475,3.75436 -5.5,6.92576 -7.67896,8.05059 -7.49673,11.20512 0.80179,13.87897 5.598,1.80372 4.08676,3.53568 -3.08511,3.53568 -9.54564,0 -9.76052,1.24204 -1.64324,9.49826 3.80961,3.87482 7.07656,7.48537 7.25989,8.02344 0.5244,1.53906 -3.15361,1.1427 -5.65514,-0.60944 z"
           id="path6107"
           inkscape:connector-curvature="0" />
        <path
           style="fill:#000000"
           d="m -125.6847,-215.4011 c -1.47658,-0.89323 -1.63873,-2.18634 -1.16085,-9.25741 0.3055,-4.52054 1.17199,-10.24416 1.92551,-12.71916 0.75353,-2.475 1.50092,-6.3 1.66086,-8.5 0.4103,-5.64366 3.26394,-5.43862 6.95869,0.5 4.17684,6.7135 4.26645,7.03969 2.85628,10.39746 -0.71664,1.7064 -1.35275,4.45254 -1.41358,6.10254 -0.16517,4.48047 2.94022,3.93656 5.7093,-1 3.31747,-5.91418 5.24181,-5.32803 4.92458,1.5 -0.43777,9.42253 -0.37366,9.33661 -8.45478,11.33052 -11.14106,2.74891 -11.17566,2.75329 -13.00601,1.64605 z"
           id="path6101"
           inkscape:connector-curvature="0" />
        <path
           style="fill:#000000"
           d="m -98.45307,-221.56431 c 0.0271,-4.08858 1.4651,-5.37113 4.48136,-3.99683 3.91756,1.78496 3.12968,5.57487 -1.24667,5.99683 -2.82383,0.27227 -3.24799,0.01 -3.23469,-2 z"
           id="path6095"
           inkscape:connector-curvature="0" />
      </g>
    </g>
  </g>
  <metadata
     id="metadata6210">
    <rdf:RDF>
      <cc:Work
         rdf:about="">
        <dc:title />
        <dc:format>image/svg+xml</dc:format>
        <dc:type
           rdf:resource="http://purl.org/dc/dcmitype/StillImage" />
      </cc:Work>
    </rdf:RDF>
  </metadata>
</svg>
