<?xml version="1.0" encoding="UTF-8" standalone="no"?>
<!-- Created with Inkscape (http://www.inkscape.org/) -->

<svg
   xmlns:dc="http://purl.org/dc/elements/1.1/"
   xmlns:cc="http://creativecommons.org/ns#"
   xmlns:rdf="http://www.w3.org/1999/02/22-rdf-syntax-ns#"
   xmlns:svg="http://www.w3.org/2000/svg"
   xmlns="http://www.w3.org/2000/svg"
   xmlns:sodipodi="http://sodipodi.sourceforge.net/DTD/sodipodi-0.dtd"
   xmlns:inkscape="http://www.inkscape.org/namespaces/inkscape"
   width="265.12"
   height="265.12"
   id="svg4085"
   version="1.1"
   inkscape:version="0.48.2 r9819"
   sodipodi:docname="Faction-Unaligned.svg">
  <metadata
     id="metadata7">
    <rdf:RDF>
      <cc:Work
         rdf:about="">
        <dc:format>image/svg+xml</dc:format>
        <dc:type
           rdf:resource="http://purl.org/dc/dcmitype/StillImage" />
      </cc:Work>
    </rdf:RDF>
  </metadata>
  <defs
     id="defs4087" />
  <sodipodi:namedview
     id="base"
     pagecolor="#ffffff"
     bordercolor="#666666"
     borderopacity="1.0"
     inkscape:pageopacity="0.0"
     inkscape:pageshadow="2"
     inkscape:zoom="1.1306641"
     inkscape:cx="-131.19575"
     inkscape:cy="57.249735"
     inkscape:document-units="px"
     inkscape:current-layer="layer1"
     showgrid="false"
     inkscape:window-width="1606"
     inkscape:window-height="1029"
     inkscape:window-x="70"
     inkscape:window-y="-4"
     inkscape:window-maximized="1"
     inkscape:object-paths="true"
     inkscape:object-nodes="true"
     fit-margin-top="0"
     fit-margin-left="0"
     fit-margin-right="0"
     fit-margin-bottom="0" />
  <g
     inkscape:label="Ebene 1"
     inkscape:groupmode="layer"
     id="layer1"
     transform="translate(-499.26969,-433.255)">
    <path
       style="fill:#000000;fill-opacity:1;stroke:none"
       d="m 630.59375,433.25 c -20.77098,18.30515 -23.32141,35.47211 -25.65625,52.625 -3.03482,-6.46637 -4.40752,-15.417 -5.09375,-25.40625 -7.5043,39.62138 3.58238,62.04624 19.46875,80.03125 -15.64635,4.95189 -28.41193,0.33221 -40.25,-7.3125 0.46061,2.10973 1.2978,4.4101 0.65625,5.96875 -7.13997,2.08113 -12.83035,-9.8658 -16.125,-18.5625 -0.67456,0.0307 -1.45209,24.15271 10.65625,31.59375 8.03389,4.93713 15.75674,15.88832 17.875,22.25 -1.73087,-7.3584 -4.44676,-20.34475 -3.28125,-21.3125 0.69261,-0.5751 6.54075,3.83235 9.90625,7.0625 -1.57343,-2.86701 -8.26422,-9.62686 -1.0625,-7.65625 1.67757,0.45904 6.39368,3.2303 11.875,4.875 3.58628,1.07608 7.52454,0.38734 11.0625,2.78125 -5.97753,-8.76391 -2.47383,-8.82637 2,-5.3125 1.83293,1.43963 1.74726,4.39299 3.96875,5.75 -4.09791,7.35041 -5.32946,12.75447 -3.53125,16.125 -0.0902,-3.86022 1.58477,-5.31011 3.53125,-6.40625 l 0.4375,38.46875 c -1.98998,13.48765 -5.96875,26.02288 -5.96875,40.46875 0.69892,-4.07144 2.26536,-6.0893 4.4375,-6.625 1.90384,8.34482 2.77613,16.53811 -0.4375,24.96875 -1.45101,-0.60115 -2.07159,-1.62193 -2.65625,-2.65625 0,2.78813 1.24134,7.36551 0,7.96875 -3.83432,1.86334 -6.28138,-6.72311 -7.75,-11.9375 -1.17988,10.24627 2.8103,19.31303 10.21875,28.8125 2.04441,2.62143 5.53557,4.55268 6.59375,8.5625 1.05818,-4.00982 4.54934,-5.94107 6.59375,-8.5625 7.40845,-9.49947 11.39863,-18.56623 10.21875,-28.8125 -1.46862,5.21439 -3.91568,13.80084 -7.75,11.9375 -1.24134,-0.60324 0,-5.18062 0,-7.96875 -0.58466,1.03432 -1.20524,2.0551 -2.65625,2.65625 -3.21363,-8.43064 -2.34134,-16.62393 -0.4375,-24.96875 2.17214,0.5357 3.73858,2.55356 4.4375,6.625 0,-14.44587 -3.97877,-26.9811 -5.96875,-40.46875 l 0.4375,-38.46875 c 1.94648,1.09614 3.62145,2.54603 3.53125,6.40625 1.79821,-3.37053 0.56666,-8.77459 -3.53125,-16.125 2.22149,-1.35701 2.13582,-4.31037 3.96875,-5.75 4.47383,-3.51387 7.97753,-3.45141 2,5.3125 3.53796,-2.39391 7.47622,-1.70517 11.0625,-2.78125 5.48132,-1.6447 10.19743,-4.41596 11.875,-4.875 7.20172,-1.97061 0.51093,4.78924 -1.0625,7.65625 3.3655,-3.23015 9.21364,-7.6376 9.90625,-7.0625 1.16551,0.96775 -1.55038,13.9541 -3.28125,21.3125 2.11826,-6.36168 9.84111,-17.31287 17.875,-22.25 12.10834,-7.44104 11.33081,-31.56305 10.65625,-31.59375 -3.29465,8.6967 -8.98503,20.64363 -16.125,18.5625 -0.64155,-1.55865 0.19564,-3.85902 0.65625,-5.96875 -11.83807,7.64471 -24.60365,12.26439 -40.25,7.3125 15.88637,-17.98501 26.97305,-40.40987 19.46875,-80.03125 -0.68623,9.98925 -2.05893,18.93988 -5.09375,25.40625 -2.33484,-17.15289 -4.88527,-34.31985 -25.65625,-52.625 3.43415,5.39958 8.40211,11.74425 9.5,17.28125 -3.12593,-3.39698 -4.07071,-4.13304 -9.0625,-8 13.17253,19.49214 24.96021,37.93196 4,73.40625 4.02191,-4.21695 8.16008,-9.61393 11.59375,-14.125 -1.65782,6.41217 -4.64734,12.80659 -8.0625,19.21875 5.02667,-5.18698 9.15672,-10.62095 12.5625,-16.25 -2.65517,10.53656 -7.84725,19.63949 -17.875,29.3125 l -3.53125,-16.15625 -3.53125,16.15625 c -10.02775,-9.67301 -15.21983,-18.77594 -17.875,-29.3125 3.40578,5.62905 7.53583,11.06302 12.5625,16.25 -3.41516,-6.41216 -6.40468,-12.80658 -8.0625,-19.21875 3.43367,4.51107 7.57184,9.90805 11.59375,14.125 -20.96021,-35.47429 -9.17253,-53.91411 4,-73.40625 -4.99179,3.86696 -5.93657,4.60302 -9.0625,8 1.09789,-5.537 6.06585,-11.88167 9.5,-17.28125 z"
       id="path4157"
       inkscape:connector-curvature="0" />
  </g>
</svg>
