<?xml version="1.0" encoding="UTF-8" standalone="no"?>
<svg
     xmlns:dc="http://purl.org/dc/elements/1.1/"
     xmlns:cc="http://creativecommons.org/ns#"
     xmlns:rdf="http://www.w3.org/1999/02/22-rdf-syntax-ns#"
     xmlns:svg="http://www.w3.org/2000/svg"
     xmlns="http://www.w3.org/2000/svg"
     xmlns:sodipodi="http://sodipodi.sourceforge.net/DTD/sodipodi-0.dtd"
     xmlns:inkscape="http://www.inkscape.org/namespaces/inkscape"
     version="1.1"
     width="301.76001"
     height="301.76001"
     id="svg2838"
     inkscape:version="0.48.2 r9819"
     sodipodi:docname="fairy.svg">
    <defs
         id="defs9" />
    <sodipodi:namedview
         pagecolor="#ffffff"
         bordercolor="#666666"
         borderopacity="1"
         objecttolerance="10"
         gridtolerance="10"
         guidetolerance="10"
         inkscape:pageopacity="0"
         inkscape:pageshadow="2"
         inkscape:window-width="640"
         inkscape:window-height="480"
         id="namedview7"
         showgrid="false"
         fit-margin-top="0"
         fit-margin-left="0"
         fit-margin-right="0"
         fit-margin-bottom="0"
         inkscape:zoom="0.59162572"
         inkscape:cx="102.85601"
         inkscape:cy="150.87907"
         inkscape:window-x="85"
         inkscape:window-y="0"
         inkscape:window-maximized="0"
         inkscape:current-layer="svg2838" />
    <metadata
         id="metadata3">
        <rdf:RDF>
            <cc:Work
                 rdf:about="">
                <dc:title>Fairy</dc:title>
                <dc:description>Fairy silhouette</dc:description>
                <dc:subject>
                    <rdf:Bag>
                        <rdf:li>fairy</rdf:li>
                        <rdf:li>silhouette</rdf:li>
                        <rdf:li>black</rdf:li>
                        <rdf:li>magic</rdf:li>
                    </rdf:Bag>
                </dc:subject>
                <dc:publisher>
                    <cc:Agent
                         rdf:about="http://www.openclipart.org">
                        <dc:title>Open Clip Art Library</dc:title>
                    </cc:Agent>
                </dc:publisher>
                <dc:creator>
                    <cc:Agent>
                        <dc:title>Jakub Jankiewicz</dc:title>
                    </cc:Agent>
                </dc:creator>
                <dc:rights>
                    <cc:Agent>
                        <dc:title>Jakub Jankiewicz</dc:title>
                    </cc:Agent>
                </dc:rights>
                <dc:date />
                <dc:format>image/svg+xml</dc:format>
                <dc:type
                     rdf:resource="http://purl.org/dc/dcmitype/StillImage" />
                <cc:license
                     rdf:resource="http://web.resource.org/cc/PublicDomain" />
                <dc:language>pl</dc:language>
            </cc:Work>
            <cc:License
                 rdf:about="http://web.resource.org/cc/PublicDomain">
                <cc:permits
                     rdf:resource="http://web.resource.org/cc/Reproduction" />
                <cc:permits
                     rdf:resource="http://web.resource.org/cc/Distribution" />
                <cc:permits
                     rdf:resource="http://web.resource.org/cc/DerivativeWorks" />
            </cc:License>
        </rdf:RDF>
    </metadata>
    <g
         id="layer1"
         transform="translate(9.388283,-48.569497)">
        <path
             d="m 73.329446,187.16184 c 2.25907,-1.28594 5.86592,-0.29888 7.43148,1.59709 8.41158,10.18681 16.070718,15.9261 31.749994,16.5625 -10.19715,-2.34249 -18.804916,-7.53754 -19.937496,-13.25 -1.13257,-5.71246 4.43713,-11.11664 13.718746,-4.6875 9.28162,6.42915 18.27976,9.55023 29.46876,13.75 11.189,4.19978 9.8612,7.84523 13.125,9.1875 2.74822,1.13027 -1.56405,-3.02339 -0.125,-5.15625 1.49573,-2.21688 5.70411,-2.94075 9.40625,-3.4375 4.65965,-0.62524 8.39216,-0.85594 8.40625,-1.84375 0.0132,-0.92325 -5.14227,-0.63504 -10.84375,-0.53125 -5.7015,0.1038 -10.40973,0.47007 -18.6875,-2.6875 -8.20612,-3.13025 -22.1449,-14.02954 -21.81251,-21.53125 0.5173,-11.67479 11.46561,-12.57147 16.75,-9.71875 4.23529,2.28637 9.73504,6.71386 12.90626,20.34375 1.63941,-4.98748 0.72989,-10.01698 0.90625,-13.5 0.20025,-3.95482 8.13977,-6.8782 11.9375,-0.78125 3.72753,5.98427 16.40713,14.16973 32.40625,10.71875 -11.0624,-1.99987 -17.21682,-5.37376 -18.53125,-9.34375 -1.31443,-3.97 4.05467,-8.50539 16.09375,-1.03125 -4.76674,-4.80657 -4.63253,-9.78382 4.21875,-13.375 13.06053,-5.29899 41.09234,-9.66573 46.90625,-34.40625 -11.22567,16.27812 -32.31694,21.82306 -49.15625,24.71875 24.53733,-9.70764 40.10567,-31.45671 39.3125,-46.65625 -6.83148,20.59594 -32.96612,33.2502 -47.3125,37.1875 26.51525,-18.99594 38.66594,-45.80147 34.25,-61 -4.91204,23.04653 -19.13767,38.87122 -37.78125,43.25 14.4613,-20.20082 21.12359,-51.12827 9.40625,-72.96875 7.70051,45.80052 -41.24487,94.01548 -80.15626,95.4375 2.6581,-4.40106 0.56362,-11.05231 -2.5,-13.75 2.78617,11.95536 -12.879266,21.8786 -20.437494,21.71875 1.38057,-2.89479 0.1584,-11.42376 -1.84375,-13.625 0.45669,7.90887 -3.32367,13.79481 -6.90183,15.48144 -3.57816,1.68663 -8.66833,0.97924 -10.57913,-2.2998 -3.19572,-5.48405 5.7874,-16.41954 12.19971,-19.68164 6.922,-3.52139 15.757718,-11.00166 13.968748,-16.71875 -2.496198,4.51657 -6.379048,9.1985 -12.781248,7.4375 8.41877,-4.99049 10.85727,-18.24727 7.125,-23.09375 0.47948,5.50558 -2.71772,10.02647 -8.53125,11.375 5.63992,-7.50784 4.80458,-15.6493 0.34375,-21.3125 1.01482,5.26409 1.75029,9.97207 -4.75,13.46875 2.6706,-6.98769 1.15958,-17.49603 -5.1875,-23.0625 4.5182,10.24176 0.17569,17.58392 -8.90625,23.5 -2.75036,1.79162 -5.54348,-0.3311 -4.96875,-5.34375 -2.24323,2.22243 -3.37789,5.49109 -2.84375,8.71875 -2.17078,1.30992 -3.5827,0.52023 -4.25,-3.375 -2.43944,5.54894 1.29439,7.4226 -1.0625,11 -1.3754,2.08765 -3.72074,1.43578 -2.28125,-2.4375 -2.57987,1.92467 -2.35185,4.54633 -1.625,6.71875 -1.37013,0.53529 -2.5678,0.68819 -2.71875,-3.5 -2.76331,5.76116 0.64493,7.1011 -1.40625,9.625 -3.89798,4.79634 -5.30901,10.03699 -3.65625,13.125 1.41547,2.64466 -0.92055,7.18403 -0.5625,7.78125 0.35806,0.59722 1.1634,0.49113 2.03125,0.625 0.69769,0.10765 1.31482,0.91849 1.90625,1.4375 1.34229,1.17792 1.37695,2.27069 2.0625,3.6875 0.68555,1.4168 0.73835,4.14723 3.28125,4.5 2.5429,0.35277 12.54712,-4.36439 17.34375,3.15625 4.79664,7.52064 1.03801,13.88762 -3.75,18.59375 -4.788,4.70612 -10.73597,7.64324 -8.09375,12.6875 2.64223,5.04426 26.723,16.67003 32.59375,28.0625 5.72598,11.11153 2.58331,23.80273 20.999994,36.59375 18.4167,12.79102 32.88732,32.28377 47.31251,45.34375 14.42519,13.05998 26.56979,28.90518 28.9375,35.0625 3.07451,7.99533 6.34348,15.63826 8.59375,14.75 2.25027,-0.88826 -1.74382,-10.40329 -1.8125,-15.65625 -0.12417,-9.49817 3.28808,-12.40742 1.15625,-16.375 -2.13183,-3.96758 -12.26035,-0.5884 -18.1875,-10.125 -6.46686,-10.40498 -4.85095,-13.97752 -13.4375,-23.15625 -8.58657,-9.17874 -21.28345,-13.44146 -29.09376,-24.15625 -4.77689,-6.55331 -7.93968,-12.00787 -13.28125,-21.84375 -3.39201,-6.24601 -6.12824,-13.31819 -10.53125,-19.09375 -4.980486,-6.53306 -10.642076,-6.44775 -14.687494,-8.96875 -4.8984,-3.05255 -10.63486,-8.38814 -13.9375,-13.09375 -3.42279,-4.8768 -1.56556,-9.3424 0.69352,-10.62834 z"
             id="path2822"
             style="fill:#000000;stroke:none"
             inkscape:connector-curvature="0" />
    </g>
</svg>
