<?xml version="1.0" encoding="UTF-8" standalone="no"?>
<!-- Created with Inkscape (http://www.inkscape.org/) -->

<svg
     xmlns:dc="http://purl.org/dc/elements/1.1/"
     xmlns:cc="http://creativecommons.org/ns#"
     xmlns:rdf="http://www.w3.org/1999/02/22-rdf-syntax-ns#"
     xmlns:svg="http://www.w3.org/2000/svg"
     xmlns="http://www.w3.org/2000/svg"
     xmlns:sodipodi="http://sodipodi.sourceforge.net/DTD/sodipodi-0.dtd"
     xmlns:inkscape="http://www.inkscape.org/namespaces/inkscape"
     version="1.1"
     width="176.5"
     height="176.5"
     id="svg2"
     inkscape:version="0.48.2 r9819"
     sodipodi:docname="pentagram.svg">
    <defs
         id="defs9" />
    <sodipodi:namedview
         pagecolor="#ffffff"
         bordercolor="#666666"
         borderopacity="1"
         objecttolerance="10"
         gridtolerance="10"
         guidetolerance="10"
         inkscape:pageopacity="0"
         inkscape:pageshadow="2"
         inkscape:window-width="640"
         inkscape:window-height="480"
         id="namedview7"
         showgrid="false"
         inkscape:zoom="1.4076442"
         inkscape:cx="88.25"
         inkscape:cy="83.828003"
         inkscape:window-x="85"
         inkscape:window-y="0"
         inkscape:window-maximized="0"
         inkscape:current-layer="svg2" />
    <metadata
         id="metadata3">
        <rdf:RDF>
            <cc:Work
                 rdf:about="">
                <dc:title>Pentagram</dc:title>
                <dc:description>Symbol of Pentagram</dc:description>
                <dc:subject>
                    <rdf:Bag>
                        <rdf:li>symbol</rdf:li>
                        <rdf:li>pentagram</rdf:li>
                        <rdf:li>wicca</rdf:li>
                        <rdf:li>witchcraft</rdf:li>
                        <rdf:li>witch</rdf:li>
                        <rdf:li>pagan</rdf:li>
                        <rdf:li>magic</rdf:li>
                        <rdf:li>circle</rdf:li>
                        <rdf:li>pentacle</rdf:li>
                        <rdf:li>black</rdf:li>
                        <rdf:li>circle</rdf:li>
                    </rdf:Bag>
                </dc:subject>
                <dc:publisher>
                    <cc:Agent
                         rdf:about="http://www.openclipart.org">
                        <dc:title>Open Clip Art Library</dc:title>
                    </cc:Agent>
                </dc:publisher>
                <dc:creator>
                    <cc:Agent>
                        <dc:title>Jakub Jankiewicz</dc:title>
                    </cc:Agent>
                </dc:creator>
                <dc:rights>
                    <cc:Agent>
                        <dc:title>Jakub Jankiewicz</dc:title>
                    </cc:Agent>
                </dc:rights>
                <dc:date />
                <dc:format>image/svg+xml</dc:format>
                <dc:type
                     rdf:resource="http://purl.org/dc/dcmitype/StillImage" />
                <cc:license
                     rdf:resource="http://web.resource.org/cc/PublicDomain" />
                <dc:language>pl</dc:language>
            </cc:Work>
            <cc:License
                 rdf:about="http://web.resource.org/cc/PublicDomain">
                <cc:permits
                     rdf:resource="http://web.resource.org/cc/Reproduction" />
                <cc:permits
                     rdf:resource="http://web.resource.org/cc/Distribution" />
                <cc:permits
                     rdf:resource="http://web.resource.org/cc/DerivativeWorks" />
            </cc:License>
        </rdf:RDF>
    </metadata>
    <g
         id="layer1"
         transform="translate(0,3.8439941)">
        <path
             d="M 87.906253,0.5 58.4375,92.593755 l 5.96875,4.8125 22.750003,-71.750005 11.6875,35.062505 8.687497,-0.25 L 87.906253,0.5 z m 7.09375,11.96875 2.46875,8.1875 C 121.17691,23.7053 141.14249,38.708755 151.15625,59.406255 L 160,59.781255 C 149.10187,33.72076 124.38715,14.90445 95.000003,12.46875 z m -13.8125,0.0625 C 51.23846,15.3294 26.243338,35.15851 16,62.250005 l 8.53125,0 C 33.94736,40.326595 54.29016,24.21253 78.718753,20.78125 l 2.46875,-8.25 z M 176,61.968755 l -97.812497,1.625 -2.15625,7.21875 77.281247,-0.875 -32.40625,23.875 2,7.625005 L 176,61.968755 z m -111.5,1.875 -64,1.0625 79.281253,56.437505 6.71875,-5.21875 -61.562503,-44.718755 37.40625,-0.4375 2.15625,-7.125 z m 47,8.78125 -8.59375,0.25 24.21875,72.750005 -30.187497,-21.9375 -7.15625,4.78125 L 141.9375,165.62501 111.5,72.625005 z m 52.78125,0.8125 -7.15625,4.8125 c 0.6132,3.71504 0.9375,7.51717 0.9375,11.40625 0,19.918035 -8.37005,37.874585 -21.78125,50.562505 l 2.34375,8.53125 c 16.72779,-14.21786 27.34375,-35.42317 27.34375,-59.093755 0,-5.56319 -0.57343,-10.98809 -1.6875,-16.21875 z m -152.0625,2.6875 c -0.773945,4.39417 -1.1875,8.91496 -1.1875,13.53125 0,23.178335 10.183506,43.982925 26.3125,58.187505 L 39.875,139.43751 C 26.933388,126.79885 18.90625,109.16715 18.90625,89.656255 c 0,-3.036 0.185141,-6.0355 0.5625,-8.96875 l -7.25,-4.5625 z M 110,101.87501 l -61.34375,45.25 11.5625,-36.5 L 54,106.37501 34.5625,167.09376 112.15625,109.40626 110,101.87501 z m 8.5625,50.5625 c -9.0953,4.36532 -19.299527,6.8125 -30.062497,6.8125 -10.73589,0 -20.91858,-2.43655 -30.000003,-6.78125 l -7.40625,5.0625 c 11.08951,6.13013 23.839503,9.625 37.406253,9.625 13.563487,0 26.318597,-3.49762 37.406247,-9.625 l -7.34375,-5.09375 z"
             id="path3019"
             style="fill:#000000;stroke:#000000;stroke-width:1px;stroke-linecap:butt;stroke-linejoin:miter;stroke-opacity:1"
             inkscape:connector-curvature="0" />
    </g>
</svg>
