<?xml version="1.0" encoding="UTF-8" standalone="no"?>
<!-- Created with Inkscape (http://www.inkscape.org/) -->

<svg
     xmlns:dc="http://purl.org/dc/elements/1.1/"
     xmlns:cc="http://creativecommons.org/ns#"
     xmlns:rdf="http://www.w3.org/1999/02/22-rdf-syntax-ns#"
     xmlns:svg="http://www.w3.org/2000/svg"
     xmlns="http://www.w3.org/2000/svg"
     xmlns:sodipodi="http://sodipodi.sourceforge.net/DTD/sodipodi-0.dtd"
     xmlns:inkscape="http://www.inkscape.org/namespaces/inkscape"
     width="327.03"
     height="327.03"
     id="svg2"
     version="1.1"
     inkscape:version="0.48.2 r9819"
     sodipodi:docname="teeth.svg">
    <defs
         id="defs4" />
    <sodipodi:namedview
         id="base"
         pagecolor="#ffffff"
         bordercolor="#666666"
         borderopacity="1.0"
         inkscape:pageopacity="0.0"
         inkscape:pageshadow="2"
         inkscape:zoom="0.49497475"
         inkscape:cx="0.28052133"
         inkscape:cy="-117.17083"
         inkscape:document-units="px"
         inkscape:current-layer="layer1"
         showgrid="false"
         inkscape:object-paths="true"
         inkscape:snap-global="false"
         inkscape:object-nodes="true"
         inkscape:snap-intersection-paths="false"
         fit-margin-top="0"
         fit-margin-left="0"
         fit-margin-right="0"
         fit-margin-bottom="0"
         inkscape:window-width="1835"
         inkscape:window-height="1060"
         inkscape:window-x="83"
         inkscape:window-y="-3"
         inkscape:window-maximized="1" />
    <metadata
         id="metadata7">
        <rdf:RDF>
            <cc:Work
                 rdf:about="">
                <dc:format>image/svg+xml</dc:format>
                <dc:type
                     rdf:resource="http://purl.org/dc/dcmitype/StillImage" />
                <dc:title />
            </cc:Work>
        </rdf:RDF>
    </metadata>
    <g
         inkscape:groupmode="layer"
         id="layer5"
         inkscape:label="Mundraum"
         style="display:inline"
         transform="translate(-167.0625,-411.4913)">
        <path
             id="path3037"
             d="m 389.625,411.5 c -35.0413,0.76748 -162.10312,49.02222 -187.5625,112.5 10.62457,45.26045 19.15019,88.065 45.6875,122 42.83429,54.77502 92.25879,89.34333 122.25,92.4375 14.87298,1.53443 48.72798,-18.01619 35.34375,-57.5 -10.76646,-31.76131 -2.52572,-53.7921 2.59375,-82.78125 16.92908,-10.52102 88.2773,-109.46464 29.90625,-155.78125 -4.90841,-3.89475 -15.20301,6.75084 -19.28125,4.625 -4.07824,-2.12583 -2.53853,-26.47598 -22.125,-34.625 -1.53019,-0.63664 -3.8429,-0.94004 -6.8125,-0.875 z"
             style="fill:#000000;stroke:none;display:inline"
             inkscape:connector-curvature="0"
             sodipodi:nodetypes="scssscssss" />
    </g>
    <g
         inkscape:groupmode="layer"
         id="layer2"
         inkscape:label="Zähne"
         style="display:inline"
         transform="translate(-167.0625,-411.4913)">
        <path
             style="fill:#ffffff;stroke:none"
             d="m 250.16249,505.49085 c 0.13198,-1.35556 1.50223,-3.51966 3.0518,-5.58402 l 15.09266,-5.61957 c -0.15567,2.88835 -0.39651,8.42793 -2.14526,10.63352 -4.20226,-0.29341 -10.16156,-0.30465 -15.9992,0.57007 z"
             id="path3015"
             inkscape:connector-curvature="0"
             sodipodi:nodetypes="ccccc" />
        <path
             style="fill:#ffffff;stroke:none"
             d="m 269.4796,492.69657 c -2.48554,35.46923 9.22597,64.08397 15.25255,67.96918 1.21884,-33.25039 14.99198,-61.13568 27.97443,-80.97556 z"
             id="path3019"
             inkscape:connector-curvature="0"
             sodipodi:nodetypes="cccc" />
        <path
             sodipodi:nodetypes="sccss"
             inkscape:connector-curvature="0"
             id="path3021"
             d="m 307.78876,500.59545 c -1.11038,-1.14953 2.28172,-18.55511 4.91782,-19.89511 l 37.81085,-5.04841 c 0.63633,3.73048 -1.70175,30.39403 -6.76645,31.32242 -3.00062,0.55003 -28.07112,1.79051 -35.96222,-6.3789 z"
             style="fill:#ffffff;stroke:none" />
        <path
             style="fill:#ffffff;stroke:none"
             d="m 349.43026,511.2268 c -3.16882,-2.43607 0.49289,-32.56836 3.52886,-33.65844 l 35.79054,10.60895 c 1.18559,4.00511 -1.32178,33.74074 -7.7766,33.97407 -1.75383,0.0634 -8.32193,-3.12214 -16.40263,-6.04657 -5.96573,-2.15902 -11.31569,-1.9379 -15.14017,-4.87801 z"
             id="path3023"
             inkscape:connector-curvature="0"
             sodipodi:nodetypes="sccsss" />
        <path
             sodipodi:nodetypes="sccsss"
             inkscape:connector-curvature="0"
             id="path3025"
             d="m 387.05653,525.49457 c -2.87407,-2.31026 2.41311,-32.32892 3.40259,-35.42621 11.15279,3.13683 19.82544,6.82059 27.96186,14.64956 0.86266,4.48951 -3.43753,35.09723 -9.54437,34.85795 -2.14065,-0.0839 -5.05961,-2.13476 -10.59425,-7.9406 -2.60954,-2.7374 -7.5941,-3.22142 -11.22583,-6.1407 z"
             style="fill:#ffffff;stroke:none" />
        <path
             style="fill:#ffffff;stroke:none"
             d="m 407.24121,537.18438 c 0.0925,4.71561 -6.23985,12.43328 -3.78807,15.15229 2.9351,3.25501 10.84495,-4.09704 13.13198,-7.82868 6.08912,-9.93531 11.36422,-30.55711 11.36422,-30.55711 l -8.20749,-8.33376 c 0,0 -12.72265,20.25201 -12.50064,31.56726 z"
             id="path3027"
             inkscape:connector-curvature="0"
             sodipodi:nodetypes="sssccs" />
        <path
             sodipodi:nodetypes="cccc"
             inkscape:connector-curvature="0"
             id="path3029"
             d="m 433.17513,526.98972 c -6.12834,25.79262 -20.47446,43.7347 -46.81981,63.67603 12.43191,-31.16848 15.52152,-76.35795 15.46213,-99.15831 10.45258,11.82739 26.64383,15.04678 31.35768,35.48228 z"
             style="fill:#ffffff;stroke:none" />
    </g>
    <g
         inkscape:label="Lippen"
         inkscape:groupmode="layer"
         id="layer1"
         style="display:inline"
         transform="translate(-167.0625,-411.4913)">
        <path
             style="fill:#000000;stroke:none"
             d="m 389.625,411.5 c -35.0413,0.76748 -162.10312,49.02222 -187.5625,112.5 10.62457,45.26045 19.15019,88.065 45.6875,122 42.83429,54.77502 92.25879,89.34333 122.25,92.4375 14.87298,1.53443 48.72798,-18.01619 35.34375,-57.5 -10.76646,-31.76131 -2.52572,-53.7921 2.59375,-82.78125 16.92908,-10.52102 88.27733,-109.46467 29.90625,-155.78125 -1.80455,-1.43188 -4.33711,-0.89846 -7.02113,0.2431 -4.61657,1.96352 -9.68122,5.72619 -12.26012,4.3819 -4.07824,-2.12584 -2.53853,-26.47598 -22.125,-34.625 -1.53019,-0.63664 -3.8429,-0.94004 -6.8125,-0.875 z m -52.875,67.6875 c 4.46111,-0.0321 8.81555,0.13436 13.1875,0.4375 13.00351,0.90163 25.42554,6.73667 45.40625,13.5 41.62912,14.09116 52.34645,46.24452 8.0625,102.4375 -7.19144,19.29562 -11.71845,35.99023 -14,49.375 -1.50864,8.85051 -2.21785,20.51024 -2.09375,27.1875 0.16117,8.6719 -13.42029,5.09514 -20.1875,3.78125 -6.7451,-1.30961 -9.87024,-3.11088 -18.875,-8.375 C 339.5617,662.45212 328.49869,658.03503 316.78125,650.75 301.99354,641.5561 287.07079,630.85497 271.5,617.625 247.81306,597.49902 228.31948,561.20081 207.15625,525.75 270.38399,489.10484 305.52223,479.41238 336.75,479.1875 z"
             id="path2996"
             inkscape:connector-curvature="0"
             sodipodi:nodetypes="scssscsssssssscsssssscs" />
    </g>
    <g
         inkscape:groupmode="layer"
         id="layer4"
         inkscape:label="Blut"
         style="display:inline"
         transform="translate(-167.0625,-411.4913)">
        <path
             style="fill:#000000;stroke:none"
             d="m 296.96875,498.78125 c -1.85994,1.72595 -3.70037,3.05854 -5.5,4.84375 -1.55002,1.64346 -3.31254,3.16824 -5.59375,3.53125 -2.05599,0.1728 -6.59904,-0.2159 -5.75,3.09375 0.92705,1.92988 1.32911,3.98117 1.34375,6.125 -0.23958,1.59172 1.0098,3.97785 -0.59375,5.03125 -1.98908,-0.94785 -4.17452,-0.002 -6.125,-0.75 -1.0362,-2.24813 -3.18224,-3.52194 -4.5625,-5.59375 -0.13122,-0.3111 -0.35357,-0.64404 -0.5625,-0.875 1.6138,19.37431 6.94226,34.76932 11.46875,42.15625 0.40734,0.16416 0.81306,0.33 1.21875,0.46875 1.30235,0.5111 2.18351,0.1815 2.65625,-0.53125 0.0694,-0.98638 0.15929,-1.96113 0.25,-2.9375 -0.14511,-0.50491 -0.37393,-0.98777 -0.6875,-1.375 -1.32459,-1.86398 0.69325,-3.64343 1.125,-5.375 0.0645,-2.36223 0.36024,-4.7559 -0.65625,-7.03125 -0.83736,-2.38654 -0.51368,-5.03778 -0.1875,-7.5 0.93711,-1.91661 -0.48327,-4.11037 0.78125,-5.96875 0.51571,-1.967 2.29265,-3.15297 3.46875,-4.71875 1.37888,-1.01416 2.82442,-2.04081 4.15625,-3.1875 0.72134,-2.00028 1.46727,-3.97588 2.25,-5.90625 -0.69107,0.98069 -0.95251,2.75043 -2.125,3.28125 -1.86365,0.39244 -3.24715,2.88665 -5.21875,2.03125 -2.49816,-1.58803 -0.56087,-5.58774 0.71875,-7.59375 1.89942,-1.97165 3.44604,-4.36784 5.84375,-5.75 1.10663,-1.38205 3.26431,-3.60347 2.28125,-5.46875 z"
             id="path3051"
             inkscape:connector-curvature="0" />
        <path
             style="fill:#000000;stroke:none"
             d="m 329.53125,487.34375 c -0.0134,-0.005 -0.0369,0.0142 -0.0625,0.0312 -2.1335,1.42233 -4.38677,2.39646 -6.34375,3.9375 -1.28163,1.00924 -3.07901,0.89683 -4.65625,1 -1.46861,0.0961 -2.7419,0.66347 -3.875,1.5 -1.08878,0.80381 -1.69604,2.39013 -1.53125,3.6875 0.12367,0.97362 1.41798,1.00147 1.96875,1.75 0.9751,1.32522 2.04222,2.67366 2.5,4.25 0.22127,0.76192 0.43648,1.55009 0.90625,2.15625 2.62998,0.61877 5.402,1.04712 8.15625,1.3125 0.21838,-0.18158 0.43748,-0.36137 0.625,-0.5625 0.8367,-0.89747 1.34324,-2.0506 2.03125,-3.0625 0.74289,-1.09262 1.31487,-2.23115 1.96875,-3.375 0.48733,-0.85251 0.80664,-1.80187 1.625,-2.4375 0.71224,-0.5532 1.68603,-1.28183 1.53125,-2.28125 -0.23087,-1.49077 -2.34097,-1.76331 -3.15625,-0.40625 -0.74727,1.24385 -2.23432,1.70173 -3.21875,2.75 -1.23323,1.3132 -2.39232,3.0224 -4.21875,3.4375 -1.27768,0.29038 -3.01552,0.98001 -3.96875,0 -0.88056,-0.9053 -1.41083,-2.88246 -0.15625,-3.90625 1.51802,-1.23877 3.3507,-2.01173 4.8125,-3.34375 1.84295,-1.67933 4.13471,-3.19937 4.90625,-5.6875 0.0641,-0.20693 0.25034,-0.71652 0.15625,-0.75 z"
             id="path3054"
             inkscape:connector-curvature="0" />
        <path
             style="fill:#000000;stroke:none"
             d="m 428.03125,537.375 c -3.39569,0.82282 -4.46716,4.76039 -6.25,7.4375 -1.5752,2.36533 -2.47542,5.12007 -4.0625,7.46875 -2.16206,3.19959 -4.42084,-1.88951 -6.90625,-0.0937 -2.50815,1.81219 -3.65551,4.84889 -5.0625,7.5 -1.23499,2.32702 -6.30608,1.65389 -5.125,5.1875 0.83646,2.50254 2.92028,5.13444 0.8125,8 -1.55268,2.1109 -3.25439,5.70021 -5.84375,5.34375 -3.12434,-0.4301 -1.34738,-4.26473 -0.65625,-6.21875 0.78364,-2.21555 1.73395,-4.29007 0.40625,-6.75 -0.29893,-0.55385 -0.65085,-1.03128 -1.03125,-1.40625 -2.08851,9.46131 -4.70346,18.62598 -7.96875,26.8125 5.2623,-3.98314 10.04004,-7.87914 14.375,-11.78125 0.48149,-1.06321 0.98563,-2.12102 1.75,-3.0625 1.92591,-2.37214 2.08938,-5.68641 4.21875,-8 2.40452,-2.61254 4.1403,-5.88539 7.25,-7.75 2.87632,-1.72467 4.24323,-4.88534 6.71875,-6.96875 2.30873,-1.94303 3.40375,-4.76951 4.9375,-7.28125 1.36216,-2.23074 1.97527,-4.90252 2.46875,-7.46875 0.0611,-0.31791 0.28391,-1.04512 -0.0312,-0.96875 z"
             id="path3059"
             inkscape:connector-curvature="0" />
    </g>
</svg>
