<?xml version="1.0" encoding="UTF-8" standalone="no"?>
<!-- Created with Inkscape (http://www.inkscape.org/) -->
<svg
   xmlns:dc="http://purl.org/dc/elements/1.1/"
   xmlns:cc="http://creativecommons.org/ns#"
   xmlns:rdf="http://www.w3.org/1999/02/22-rdf-syntax-ns#"
   xmlns:svg="http://www.w3.org/2000/svg"
   xmlns="http://www.w3.org/2000/svg"
   xmlns:sodipodi="http://sodipodi.sourceforge.net/DTD/sodipodi-0.dtd"
   xmlns:inkscape="http://www.inkscape.org/namespaces/inkscape"
   id="svg2"
   sodipodi:version="0.32"
   inkscape:version="0.46"
   width="319.28659"
   height="389.11081"
   version="1.0"
   sodipodi:docname="femaleprofile.svg"
   inkscape:output_extension="org.inkscape.output.svg.inkscape">
  <metadata
     id="metadata7">
    <rdf:RDF>
      <cc:Work
         rdf:about="">
        <dc:format>image/svg+xml</dc:format>
        <dc:type
           rdf:resource="http://purl.org/dc/dcmitype/StillImage" />
        <dc:title>Female Profile</dc:title>
        <dc:date>08.24.11</dc:date>
        <dc:creator>
          <cc:Agent>
            <dc:title>Studio-Hades</dc:title>
          </cc:Agent>
        </dc:creator>
        <cc:license
           rdf:resource="http://creativecommons.org/licenses/publicdomain/" />
        <dc:publisher>
          <cc:Agent>
            <dc:title>Acheron Mint</dc:title>
          </cc:Agent>
        </dc:publisher>
        <dc:description>Female Profle</dc:description>
        <dc:rights>
          <cc:Agent>
            <dc:title>Public Domain</dc:title>
          </cc:Agent>
        </dc:rights>
      </cc:Work>
      <cc:License
         rdf:about="http://creativecommons.org/licenses/publicdomain/">
        <cc:permits
           rdf:resource="http://creativecommons.org/ns#Reproduction" />
        <cc:permits
           rdf:resource="http://creativecommons.org/ns#Distribution" />
        <cc:permits
           rdf:resource="http://creativecommons.org/ns#DerivativeWorks" />
      </cc:License>
    </rdf:RDF>
  </metadata>
  <defs
     id="defs5">
    <linearGradient
       id="linearGradient3608">
      <stop
         id="stop3610"
         offset="0"
         style="stop-color:#333333;stop-opacity:1" />
      <stop
         id="stop3616"
         offset="1"
         style="stop-color:#000000;stop-opacity:1" />
    </linearGradient>
    <linearGradient
       id="linearGradient3588">
      <stop
         id="stop3590"
         offset="0"
         style="stop-color:#cdde87;stop-opacity:1" />
      <stop
         id="stop3596"
         offset="1"
         style="stop-color:#445500;stop-opacity:1" />
    </linearGradient>
    <linearGradient
       id="linearGradient3576">
      <stop
         style="stop-color:#c8ab37;stop-opacity:1"
         offset="0"
         id="stop3578" />
      <stop
         style="stop-color:#786721;stop-opacity:1"
         offset="1"
         id="stop3584" />
    </linearGradient>
    <linearGradient
       id="linearGradient3556">
      <stop
         style="stop-color:#ff9955;stop-opacity:1"
         offset="0"
         id="stop3558" />
      <stop
         id="stop3560"
         offset="0.2679567"
         style="stop-color:#d38d5f;stop-opacity:1" />
      <stop
         style="stop-color:#c87137;stop-opacity:1"
         offset="0.74985868"
         id="stop3562" />
      <stop
         style="stop-color:#c87137;stop-opacity:1"
         offset="1"
         id="stop3564" />
    </linearGradient>
    <linearGradient
       id="linearGradient3474">
      <stop
         id="stop3476"
         offset="0"
         style="stop-color:#c87137;stop-opacity:1" />
      <stop
         style="stop-color:#c87137;stop-opacity:1"
         offset="0.2562013"
         id="stop3478" />
      <stop
         id="stop3480"
         offset="0.43624884"
         style="stop-color:#c87137;stop-opacity:1" />
      <stop
         id="stop3482"
         offset="1"
         style="stop-color:#28170b;stop-opacity:1" />
    </linearGradient>
    <linearGradient
       id="linearGradient3282">
      <stop
         style="stop-color:#5b3821;stop-opacity:1"
         offset="0"
         id="stop3284" />
      <stop
         id="stop3290"
         offset="0.5"
         style="stop-color:#e9c6af;stop-opacity:1" />
      <stop
         style="stop-color:#76533c;stop-opacity:1;"
         offset="0.75"
         id="stop3292" />
      <stop
         style="stop-color:#502d16;stop-opacity:1"
         offset="1"
         id="stop3286" />
    </linearGradient>
    <linearGradient
       id="linearGradient3208">
      <stop
         id="stop3210"
         offset="0"
         style="stop-color:#ff9955;stop-opacity:1" />
      <stop
         style="stop-color:#ffb380;stop-opacity:1"
         offset="0.5"
         id="stop3338" />
      <stop
         id="stop3340"
         offset="0.75"
         style="stop-color:#ff9955;stop-opacity:1" />
      <stop
         id="stop3212"
         offset="1"
         style="stop-color:#c87137;stop-opacity:1" />
    </linearGradient>
    <linearGradient
       id="linearGradient3180">
      <stop
         style="stop-color:#cdde87;stop-opacity:1"
         offset="0"
         id="stop3182" />
      <stop
         id="stop3318"
         offset="0.33192685"
         style="stop-color:#9aab54;stop-opacity:1;" />
      <stop
         style="stop-color:#80913a;stop-opacity:1;"
         offset="0.59836942"
         id="stop3320" />
      <stop
         style="stop-color:#445500;stop-opacity:1"
         offset="1"
         id="stop3184" />
    </linearGradient>
    <inkscape:perspective
       sodipodi:type="inkscape:persp3d"
       inkscape:vp_x="0 : 526.18109 : 1"
       inkscape:vp_y="0 : 1000 : 0"
       inkscape:vp_z="744.09448 : 526.18109 : 1"
       inkscape:persp3d-origin="372.04724 : 350.78739 : 1"
       id="perspective9" />
    <inkscape:perspective
       id="perspective2482"
       inkscape:persp3d-origin="372.04724 : 350.78739 : 1"
       inkscape:vp_z="744.09448 : 526.18109 : 1"
       inkscape:vp_y="0 : 1000 : 0"
       inkscape:vp_x="0 : 526.18109 : 1"
       sodipodi:type="inkscape:persp3d" />
  </defs>
  <sodipodi:namedview
     inkscape:window-height="480"
     inkscape:window-width="640"
     inkscape:pageshadow="2"
     inkscape:pageopacity="0.0"
     guidetolerance="10.0"
     gridtolerance="10.0"
     objecttolerance="10.0"
     borderopacity="1.0"
     bordercolor="#666666"
     pagecolor="#ffffff"
     id="base"
     showgrid="false"
     inkscape:zoom="0.43166667"
     inkscape:cx="243.10488"
     inkscape:cy="259.28095"
     inkscape:current-layer="svg2"
     showguides="true"
     inkscape:guide-bbox="true" />
  <path
     style="fill:#000000;fill-rule:evenodd;stroke:#000000;stroke-width:0.47445476px;stroke-linecap:butt;stroke-linejoin:miter;stroke-opacity:1"
     d="M 233.23868,0.23765487 C 230.20754,0.21305287 227.15024,1.2546889 225.07107,2.2341809 C 208.41533,10.080702 197.43349,4.8806729 188.43352,5.1122909 C 181.79774,5.2830649 176.2373,11.99219 170.28328,10.661079 C 162.17901,10.612158 154.0875,8.6748079 146.19531,10.090643 C 127.87703,13.376877 110.63364,18.026917 96.7748,29.433614 C 78.807264,43.068423 53.613726,64.158552 51.943705,102.34572 L 52.851217,109.39839 L 48.832235,160.01163 C 48.832235,160.01164 39.774779,209.32327 34.415758,210.96195 C -1.0046861,258.02536 -18.691682,326.88144 30.578278,369.51727 L 49.791605,381.05563 C 77.748615,395.18408 125.88238,392.20322 166.08279,355.10079 L 123.79273,361.84231 C 101.00163,356.8735 103.37125,341.12571 96.878519,329.17187 L 95.919145,322.43036 C 105.22195,331.58491 110.52806,359.0281 126.67084,352.22268 C 136.46318,359.59689 145.64358,348.29207 155.19265,342.57712 C 141.59045,343.79408 128.50838,341.91412 118.99588,318.59288 L 109.37625,305.13577 C 109.37625,305.13576 109.42242,303.40308 113.9916,295.54207 C 119.28492,299.90217 124.56537,304.75607 129.70452,309.95855 C 142.73234,323.14689 152.64867,332.83649 160.48215,340.13981 C 158.70165,340.6604 156.9416,341.5304 155.19265,342.57712 C 157.53443,342.36761 159.88836,342.09977 162.24531,341.79926 C 187.38764,365.00767 188.54789,360.63422 195.14911,359.66428 C 197.31083,331.52993 208.49701,303.8358 224.75993,275.68052 L 261.94199,283.17398 C 270.95658,282.61966 273.46719,282.92879 279.5218,275.47309 C 282.05416,271.85473 286.2327,267.42093 285.09651,260.30467 C 283.83156,254.03282 278.02636,250.95846 287.22268,242.36187 L 295.31251,237.15015 C 295.00381,232.00893 297.49332,229.0624 293.34191,227.76389 L 300.29086,222.55217 C 297.37657,217.47743 293.81077,218.40158 295.64958,204.376 L 314.16283,194.34151 C 318.60608,192.09729 319.58889,187.54743 318.8041,181.81785 C 303.24719,169.72259 293.49198,158.62326 288.12998,143.97927 L 292.91497,136.16378 C 296.59447,130.91018 294.21244,126.66684 293.60242,122.12816 L 278.63979,67.851551 C 277.15097,55.892204 294.81198,43.048347 285.26293,34.594906 C 279.07596,29.117796 272.73893,15.139067 249.31461,6.2272339 C 246.11485,7.6134059 242.87505,5.9101549 239.77277,2.7786879 C 237.93193,0.92052787 235.59624,0.25678887 233.23868,0.23765487 z M 160.24879,202.06833 L 160.24879,206.03545 C 153.79347,209.2747 149.15122,218.30616 149.15121,228.95662 C 149.15121,242.32495 156.46081,253.20014 165.48643,253.20015 C 174.51205,253.20015 181.84757,242.32495 181.84757,228.95662 C 181.84757,219.99144 178.54398,212.16579 173.65404,207.98012 L 173.65404,203.62407 C 181.19247,207.9724 186.46292,217.94536 186.46292,229.55298 C 186.46292,245.1546 176.94263,257.8155 165.20121,257.8155 C 153.45979,257.81551 143.9395,245.15459 143.9395,229.55298 C 143.93951,216.21566 150.89193,205.03637 160.24879,202.06833 z"
     id="path2506"
     sodipodi:nodetypes="csscsccccccccccccccccscccccccccccccccccccscscccsssccsssc" />
  <text
     xml:space="preserve"
     style="font-size:60px;font-style:normal;font-variant:normal;font-weight:normal;font-stretch:normal;text-align:start;line-height:125%;writing-mode:lr-tb;text-anchor:start;fill:#000000;fill-opacity:1;stroke:none;stroke-width:1px;stroke-linecap:butt;stroke-linejoin:miter;stroke-opacity:1;font-family:BadaBoom BB;-inkscape-font-specification:BadaBoom BB"
     x="-99.84819"
     y="164.04166"
     id="text2416"
     sodipodi:linespacing="125%"><tspan
       sodipodi:role="line"
       id="tspan2418"
       x="-99.84819"
       y="164.04166" /></text>
</svg>
