<?xml version="1.0" encoding="UTF-8" standalone="no"?>
<!-- Created with Inkscape (http://www.inkscape.org/) -->

<svg
   xmlns:dc="http://purl.org/dc/elements/1.1/"
   xmlns:cc="http://creativecommons.org/ns#"
   xmlns:rdf="http://www.w3.org/1999/02/22-rdf-syntax-ns#"
   xmlns:svg="http://www.w3.org/2000/svg"
   xmlns="http://www.w3.org/2000/svg"
   xmlns:sodipodi="http://sodipodi.sourceforge.net/DTD/sodipodi-0.dtd"
   xmlns:inkscape="http://www.inkscape.org/namespaces/inkscape"
   width="1000"
   height="800"
   id="svg3073"
   version="1.1"
   inkscape:version="0.48.0 r9654"
   sodipodi:docname="MaleComicGen.svg"
   inkscape:export-filename="C:\Documents and Settings\Alejandro\Escritorio\SLV\MaleComicGen.png"
   inkscape:export-xdpi="90"
   inkscape:export-ydpi="90">
  <defs
     id="defs3075" />
  <sodipodi:namedview
     id="base"
     pagecolor="#ffffff"
     bordercolor="#666666"
     borderopacity="1.0"
     inkscape:pageopacity="0.0"
     inkscape:pageshadow="2"
     inkscape:zoom="0.35"
     inkscape:cx="568.87007"
     inkscape:cy="431.06519"
     inkscape:document-units="px"
     inkscape:current-layer="layer1"
     showgrid="false"
     fit-margin-top="0"
     fit-margin-left="0"
     fit-margin-right="0"
     fit-margin-bottom="0"
     showborder="false"
     inkscape:window-width="879"
     inkscape:window-height="592"
     inkscape:window-x="41"
     inkscape:window-y="13"
     inkscape:window-maximized="0" />
  <metadata
     id="metadata3078">
    <rdf:RDF>
      <cc:Work
         rdf:about="">
        <dc:format>image/svg+xml</dc:format>
        <dc:type
           rdf:resource="http://purl.org/dc/dcmitype/StillImage" />
        <dc:title />
      </cc:Work>
    </rdf:RDF>
  </metadata>
  <g
     inkscape:label="Capa 1"
     inkscape:groupmode="layer"
     id="layer1"
     transform="translate(502.16348,-309.52255)">
    <g
       id="g3085"
       transform="translate(-4.3133483e-6,-9.0344051e-6)">
      <g
         transform="matrix(1.2040766,0,0,1.222642,-253.29946,58.634201)"
         id="g3152">
        <path
           sodipodi:nodetypes="cscsssssscsssszsscssssssssssszzscsssssssccssccssssssssscsssssssssssssssssssssscsccssssssssssssccssssscssc"
           inkscape:connector-curvature="0"
           id="path2987"
           d="m 210.21671,205.20354 c 14.09567,0.18156 22.01229,8.32575 26.58153,15.46183 4.56924,7.13609 1.79722,14.94912 2.83842,23.60315 0.75419,-1.96027 2.21576,-3.50637 4.16115,-0.4659 1.9454,3.04048 0.4167,9.93162 -1.54469,13.81319 -1.96138,3.88157 -5.29184,3.88525 -5.42092,10.81284 -0.0873,4.68766 -3.58149,6.30028 -3.50724,12.88431 0.0719,6.3767 -2.11683,11.128 2.98543,14.81497 5.10226,3.68697 18.86918,13.07112 24.7979,14.8249 18.25831,5.40103 27.58912,3.15778 39.69984,18.21826 4.84925,6.18145 8.44307,12.56815 9.95394,20.60775 1.51087,8.0396 -1.45833,14.86925 -0.89782,25.36278 0.56051,10.49353 4.43707,21.54362 5.19894,31.29968 0.76187,9.75606 -3.10517,23.69276 -2.64544,34.22092 0.45973,10.52816 5.34198,18.78817 5.65282,32.8833 0.31085,14.09514 -0.91943,24.44618 -0.69986,33.24112 0.21702,8.69318 -0.95325,13.74329 -0.024,21.69361 0.92922,7.95032 0.27955,14.88893 1.95964,21.76151 -0.0237,2.16551 -0.87117,7.50036 -1.30313,14.77168 -0.33098,5.57152 0.33849,9.62775 -1.04968,14.1151 -1.63529,5.28622 -2.03457,4.99724 -4.30688,7.799 -1.45617,1.79547 -2.35602,6.24722 -4.47977,8.47435 -2.2702,2.38069 -5.74608,2.48455 -6.5966,2.60735 -4.67934,0.67562 3.07772,-24.38191 2.67367,-27.49034 -0.41923,-3.2252 -0.51694,-5.80118 -7.53399,-11.80081 -3.38628,-2.89528 -7.3038,11.82938 -10.86173,15.76083 -2.36474,2.613 -3.65098,3.72619 -6.43967,3.24428 -3.21174,-0.55502 5.07601,-20.55343 7.84937,-27.94527 3.23871,-8.63215 7.20736,-14.752 7.79137,-23.66318 0.58401,-8.91118 -4.4023,-12.48803 -6.16469,-21.27367 -1.7624,-8.78565 -2.86802,-8.87608 -5.42091,-27.70837 -2.55289,-18.83229 2.04737,-22.99888 0.25594,-35.8526 -1.79143,-12.85372 -11.90842,-31.73689 -11.72559,-48.52404 -0.83095,9.23328 -1.01316,20.24975 -2.24954,28.8141 -1.23638,8.56435 -4.9048,12.15585 -4.77901,20.54978 0.12579,8.39393 1.76409,17.88647 1.4337,27.71832 -0.21718,6.4629 10.2506,24.90464 10.51385,59.25985 0.12092,15.78086 1.84269,39.48966 0.9558,56.87034 -0.88689,17.38068 -5.14829,34.64892 -6.69063,46.3565 -1.54234,11.70758 -5.12914,37.24239 -5.25692,45.40069 -0.28895,18.44856 4.23384,23.67487 3.82322,42.7587 -0.0693,21.67546 -9.0725,46.16616 -12.42546,64.18013 -1.70532,9.83719 0.42813,12.08945 0.9558,17.87174 0.52767,5.78229 -2.06775,8.94437 -1.9116,13.05664 0.15615,4.11228 1.02886,10.50171 0.9558,15.65956 1.45758,12.15427 18.22713,20.17824 10.99174,24.73068 -9.14266,5.27132 -40.83443,4.27244 -48.746,-0.4779 -10.35697,-6.21864 0.0495,-10.08612 1.91161,-16.70253 1.86207,-6.6164 3.61218,-11.11194 3.82322,-16.25468 0.21104,-5.14273 -2.27899,-12.39734 -1.91162,-18.03404 0.36737,-5.63669 1.51256,-9.4475 1.91161,-22.32012 0.39905,-12.87262 -4.9031,-46.96046 -4.77902,-62.85765 0.12408,-15.89718 1.53502,-25.20655 1.43372,-39.22103 -0.1013,-14.01447 -1.86337,-19.1026 -4.30113,-33.45313 -2.43776,-14.35053 -3.84043,-28.98971 -5.25692,-43.01118 -1.41649,-14.02147 -1.09023,-37.59435 -2.86741,-59.25986 -0.82137,16.08875 0.82033,46.41053 -0.4779,58.78196 -1.29823,12.37143 -1.03251,21.18458 -3.34532,32.97523 -2.31281,11.79065 -5.62031,26.94655 -5.25692,36.79846 0.36339,9.85191 3.18206,14.80021 5.25693,24.95309 2.07487,10.15288 2.32493,16.31718 1.43369,27.92872 -0.89124,11.61153 -4.59454,31.9304 -5.73481,43.19152 -1.14027,11.26113 -1.87478,21.98021 -0.47791,31.34015 1.39687,9.35994 3.15621,12.42659 3.82322,17.93665 0.66701,5.51005 2.74193,10.88379 0.4779,14.84412 -2.26403,3.96034 -6.37163,1.38467 -10.99174,3.71103 -4.62012,2.32635 0.1807,9.16946 -16.24866,11.13309 -8.11023,0.96934 -26.93967,3.92674 -34.88685,-3.7862 -9.91712,-9.62479 21.89934,-22.91517 26.28461,-37.89625 4.38527,-14.98109 0.90297,-18.61297 -1.4337,-33.73889 -2.33667,-15.12592 -7.97747,-36.55678 -9.46965,-52.98402 -1.49219,-16.42724 1.76332,-32.21377 0.38951,-47.58882 -1.37381,-15.37505 -3.86259,-32.2279 -6.69063,-49.70181 -2.82804,-17.47391 -7.30523,-38.28407 -7.16853,-58.30405 0.0502,-7.35197 2.41939,-23.56727 3.48349,-37.88837 1.97216,-26.54238 14.42671,-48.0194 15.04867,-55.30422 0.81166,-9.50665 -0.1969,-23.49909 0.5909,-29.95567 0.79808,-6.5408 -3.09741,-11.37698 -3.79623,-17.05679 -1.83049,-14.87766 -0.39068,-16.33653 -2.56345,-31.45371 0.4725,20.41482 -9.7899,34.7719 -10.85177,41.66942 -1.50611,9.78309 1.36284,29.05984 -2.38952,41.57746 -3.61793,18.76332 -11.34616,29.78984 -12.13532,49.33989 -0.12211,7.29083 7.73573,19.11477 6.91236,22.89995 -1.59959,7.35372 0.54662,12.65709 -0.64735,14.56693 -0.96914,1.55022 -5.84051,2.24068 -7.62597,7.68472 -1.83198,5.58589 -3.71475,1.93203 -8.65348,2.68127 -3.94252,0.59811 -3.15484,-1.0194 -7.59934,-1.60506 -4.55477,-0.60021 -3.7065,-2.87081 -6.72244,-4.44608 -2.24008,-1.17002 -10.013602,-1.94571 -10.130941,-12.25669 -0.0515,-4.52519 -0.869605,-7.86209 3.409441,-16.08757 4.84306,-9.30968 8.11244,-27.6286 7.82829,-43.18336 -0.23054,-12.6195 -0.89373,-35.29848 0,-51.61342 0.82024,-14.97329 4.90903,-15.36194 7.64643,-28.19622 2.85462,-13.38384 -4.00834,-13.39796 5.42092,-50.85557 4.5875,-18.22379 -2.61706,-25.91594 7.22651,-39.58387 7.04363,-11.32999 20.04586,-9.45044 36.88044,-14.97894 6.32394,-4.16505 19.87224,-8.56118 22.15744,-13.57922 2.2852,-5.01804 0.37171,-9.18177 0.4779,-15.05392 0.10536,-5.82637 -4.80172,-9.38827 -4.54006,-13.38125 0.30352,-4.6318 -3.03445,-7.21688 -4.30112,-10.2749 -1.26667,-3.05802 -2.83907,-12.89057 -1.43371,-15.58979 1.40537,-2.69922 2.5639,0.0796 3.86421,2.23255 -0.81422,-5.91841 -1.07125,-20.03321 3.9632,-26.54757 5.03445,-6.51437 14.35977,-12.66153 23.68513,-12.54142 z"
           style="fill:#deaa87;stroke:none;display:inline" />
        <path
           style="fill:#999999;stroke:none;display:inline"
           d="m 162.43408,473.57671 0.78726,-7.863 c 44.76782,13.8231 74.58354,4.58555 103.37876,-2.73443 l 0.82543,7.83388 c -38.78017,22.37449 -73.74994,24.07383 -104.99145,2.76355 z"
           id="path3051"
           inkscape:connector-curvature="0"
           sodipodi:nodetypes="ccccc" />
        <path
           style="fill:#b3b3b3;stroke:none;display:inline"
           d="m 209.4359,582.31889 c -16.80685,3.00966 -55.28857,7.62428 -64.21487,-5.75287 -0.40155,-5.92189 0.004,-14.32163 0.38052,-21.46775 0.59697,-11.31853 1.42398,-22.66951 3.37118,-33.83525 1.76769,-10.13635 4.48096,-20.10753 7.51722,-29.93868 1.77932,-5.76129 6.25535,-18.64608 6.25535,-18.64608 12.55887,6.37968 51.17047,14.40258 104.51759,-2.34352 0,0 5.81139,24.97143 7.59992,34.23789 2.17914,11.29019 3.61533,38.69764 3.81973,50.87274 0.0746,4.44175 -0.51222,14.13963 -0.5967,22.41886 3.63869,13.35126 -64.31665,13.7631 -66.81777,4.52213 -0.11747,-3.77722 -1.91655,-32.80149 -1.91655,-32.80149 0,0 -0.43313,5.61962 -0.40323,12.34134 0.0333,7.49248 0.533,16.35431 0.59935,20.32927 z"
           id="path3049"
           inkscape:connector-curvature="0"
           sodipodi:nodetypes="ccsssccsscccscc" />
        <path
           style="color:#000000;fill:#a05a2c;fill-opacity:1;fill-rule:nonzero;stroke:none;stroke-width:10;marker:none;visibility:visible;display:inline;overflow:visible;enable-background:accumulate"
           d="m 248.95812,325.18339 c -2.76364,0.56098 -4.48298,-0.0703 -7.05712,1.36265 -3.10455,1.34781 -4.83374,0.93383 -8.16345,1.50928 -1.88635,0.34903 -11.82251,4.90683 -10.93919,3.47775 0.85981,-1.39104 11.82995,-5.66472 13.23925,-5.92352 6.03739,-1.27704 5.04387,-0.40707 11.02437,-1.89884 2.02029,-0.39835 7.31475,-1.68011 9.37361,-1.54719 1.32976,-0.76483 -2.89746,1.3114 -3.75556,2.59461 -0.4231,0.91539 -3.19721,-0.44554 -3.72191,0.42526 z"
           id="path3842"
           inkscape:connector-curvature="0"
           sodipodi:nodetypes="cccsccccc" />
        <path
           style="color:#000000;fill:#a05a2c;fill-opacity:1;fill-rule:nonzero;stroke:none;stroke-width:10;marker:none;visibility:visible;display:inline;overflow:visible;enable-background:accumulate"
           d="m 185.71818,326.14024 c -2.33115,-0.87782 -4.05552,-0.3106 -5.38011,-0.93029 -1.4198,0.10597 -1.94166,0.6653 -3.19699,-0.20851 -1.41524,-1.4675 -4.33061,-1.46517 -6.12441,-2.57304 1.77561,-1.25338 12.05602,0.81844 13.1572,1.30868 4.10312,1.84776 7.66914,1.75315 12.02002,2.74131 2.13804,0.47597 4.8608,1.17898 6.87491,2.04849 1.02966,1.02132 -3.86648,1.91847 -4.04922,0.66298 -2.11102,-0.0925 -4.01039,-1.34867 -7.14966,-0.97547 -3.75949,-1.27861 -3.52664,-1.95954 -6.15174,-2.07415 z"
           id="path3844"
           inkscape:connector-curvature="0"
           sodipodi:nodetypes="cccccccccc" />
        <path
           style="color:#000000;fill:#a05a2c;fill-opacity:1;fill-rule:nonzero;stroke:none;stroke-width:10;marker:none;visibility:visible;display:inline;overflow:visible;enable-background:accumulate"
           d="m 207.0154,391.66863 c -1.13672,3.1731 -8.77946,3.72535 -12.24414,3.69746 -8.84946,-0.0712 -12.80787,0.93171 -21.6443,0.71249 -2.50446,-0.0621 -10.83061,0.61426 -15.35147,-3.75238 2.70247,3.76077 4.86256,4.39588 7.90195,5.07649 4.00085,1.19134 14.24511,0.18767 18.31211,0.32548 9.11029,0.30871 12.82172,-0.46131 21.9279,-1.07471 2.4539,-0.76732 3.26751,-6.21161 3.10384,-9.09634 0.53901,-2.57512 0.71133,-8.87227 0.60807,-11.98653 -0.64059,6.40251 -0.49469,10.18223 -2.61396,16.09804 z"
           id="path3846"
           inkscape:connector-curvature="0"
           sodipodi:nodetypes="cssccscccc" />
        <path
           style="color:#000000;fill:#a05a2c;fill-opacity:1;fill-rule:nonzero;stroke:none;stroke-width:10;marker:none;visibility:visible;display:inline;overflow:visible;enable-background:accumulate"
           d="m 269.91215,389.62278 c -3.13209,3.05382 -10.76895,10.02176 -13.04783,9.5436 -9.9785,-0.0179 -26.68464,-0.41724 -36.63907,-1.31412 -2.05795,-0.36649 -5.61193,-3.35764 -8.02589,-6.87927 5.21259,3.10098 6.90616,4.34579 8.55941,4.9154 8.69607,-0.47246 25.6181,0.80715 33.59953,0.9415 4.17358,0.75245 16.43778,-9.42909 22.3124,-20.04833 -0.27601,3.52383 1.24723,3.16635 -4.67664,15.97451 0.003,-5.40251 0.33503,-5.48983 -2.08191,-3.13329 z"
           id="path3848"
           inkscape:connector-curvature="0"
           sodipodi:nodetypes="scccccccs" />
        <path
           style="color:#000000;fill:#a05a2c;fill-opacity:1;fill-rule:nonzero;stroke:none;stroke-width:10;marker:none;visibility:visible;display:inline;overflow:visible;enable-background:accumulate"
           d="m 205.04263,423.66648 c -0.11816,4.31492 1.64662,8.19479 1.3004,12.50637 -0.13468,4.04251 -1.72983,5.84539 -3.388,7.25256 3.64895,0.64091 3.56658,12.16237 1.49907,11.29016 -6.62663,5.70792 -19.43359,-1.43815 -16.19704,0.37404 1.16734,4.6362 5.02511,3.46821 8.32739,2.96252 2.81283,-0.30896 3.31704,1.66017 6.09845,0.71642 1.86609,-0.67809 4.64649,-1.25348 4.4626,-3.03566 -0.44479,-4.02014 2.02076,-12.46693 4.06935,-11.48994 -2.92836,-3.54637 -3.63802,-6.38947 -3.3025,-10.9848 0.0409,-1.83358 2.6825,-9.48776 2.41525,-11.30469 -0.79532,-0.36486 -1.62548,-0.90761 -2.46896,-0.96928 -1.91612,1.65818 -3.73382,0.30586 -2.81601,2.6823 z m -15.84019,34.44275 c -0.23388,-0.0222 0.11224,0.10978 0,0 z"
           id="path3852"
           inkscape:connector-curvature="0"
           sodipodi:nodetypes="ccccccccccccccc" />
        <path
           style="color:#000000;fill:#a05a2c;fill-opacity:1;fill-rule:nonzero;stroke:none;stroke-width:10;marker:none;visibility:visible;display:inline;overflow:visible;enable-background:accumulate"
           d="m 199.88874,439.44115 c -3.26914,0.82325 -5.68566,2.83583 -10.91577,0.93447 -2.43373,-0.88476 -2.1417,-1.77324 -2.35555,-2.9129 1.89947,-0.67936 2.61412,1.57984 4.59346,1.31006 2.53866,-0.18512 3.14103,-0.92208 5.62092,-0.39749 0.86162,0.0373 3.41909,-0.20335 4.6616,-1.84715 0.71778,-4.24696 2.84949,0.0741 -1.60466,2.91301 z"
           id="path3854"
           inkscape:connector-curvature="0"
           sodipodi:nodetypes="csccccc" />
        <path
           style="color:#000000;fill:#a05a2c;fill-opacity:1;fill-rule:nonzero;stroke:none;stroke-width:10;marker:none;visibility:visible;display:inline;overflow:visible;enable-background:accumulate"
           id="path3856"
           d="m 211.42752,434.79786 c 3.78941,0.23561 5.62448,3.96035 9.42066,4.14804 1.88127,0.003 6.40153,-0.62606 8.28116,-0.56546 0.33139,-0.14018 6.55648,-1.64083 6.2251,-1.50065 l -4.5962,3.00521 c -3.0415,1.1347 -10.30073,1.76526 -13.53375,1.67666 -4.11445,-0.20531 -2.84481,-2.40053 -4.29366,-4.77962 -0.3153,-0.1812 -1.81861,-2.16538 -1.50331,-1.98418 z"
           inkscape:connector-curvature="0"
           sodipodi:nodetypes="cccccccc" />
        <path
           style="color:#000000;fill:#a05a2c;fill-opacity:1;fill-rule:nonzero;stroke:none;stroke-width:10;marker:none;visibility:visible;display:inline;overflow:visible;enable-background:accumulate"
           d="m 224.71697,456.84896 c 1.44185,0.31504 13.42064,-5.72941 13.71109,-4.4279 0.16759,0.88213 -7.50246,4.67458 -7.87288,5.52059 -8.028,1.07274 -5.907,2.3234 -13.78856,0.71129 -0.87027,-0.56507 -2.78144,-1.38171 -3.45498,-2.87606 -0.67354,-1.49435 -1.51043,-6.38332 0.15842,-5.33703 1.55007,6.59859 8.55218,6.56476 11.24691,6.40911 z"
           id="path3858"
           inkscape:connector-curvature="0"
           sodipodi:nodetypes="cccczcc" />
        <path
           style="color:#000000;fill:#a05a2c;fill-opacity:1;fill-rule:nonzero;stroke:none;stroke-width:10;marker:none;visibility:visible;display:inline;overflow:visible;enable-background:accumulate"
           id="path3864"
           d="m 196.24096,422.18036 c 0.22826,2.75344 -7.25399,10.23071 -10.80849,10.88467 -2.39146,0.43994 -6.01771,1.60411 -4.41114,-0.52809 l 0.33156,-2.1577 c 3.4941,4.36925 8.15246,-4.42389 10.39968,-5.38653 1.55101,-0.66443 2.51546,-0.34581 4.48839,-2.81235 z"
           inkscape:connector-curvature="0"
           sodipodi:nodetypes="csccsc" />
        <path
           style="color:#000000;fill:#a05a2c;fill-opacity:1;fill-rule:nonzero;stroke:none;stroke-width:10;marker:none;visibility:visible;display:inline;overflow:visible;enable-background:accumulate"
           id="path3866"
           d="m 181.64955,437.51144 c 0.59904,3.34028 0.43198,6.69548 0.20612,7.10402 -0.45841,0.82917 -1.56445,5.35358 -2.04945,6.06037 -1.38348,2.01612 -0.75041,2.62391 -2.39062,4.4335 -0.23286,0.37472 -2.96881,1.94301 -2.73595,1.5683 l 2.82842,-5.3033 c 2.29959,-3.45361 -0.26258,-6.68966 2.99209,-7.88561 0.24698,-2.7115 -0.0178,-4.44615 1.14939,-5.97728 z"
           inkscape:connector-curvature="0"
           sodipodi:nodetypes="cssccccc" />
        <path
           style="color:#000000;fill:#a05a2c;fill-opacity:1;fill-rule:nonzero;stroke:none;stroke-width:10;marker:none;visibility:visible;display:inline;overflow:visible;enable-background:accumulate"
           d="m 190.60976,279.10769 c 3.22797,5.93435 4.45676,8.7809 7.39219,10.55181 3.14199,1.89552 5.345,6.87197 10.28147,9.15208 3.81941,1.92127 10.69344,0.16091 13.08435,-1.99973 1.93679,-1.75026 5.39591,-4.86619 7.15272,-8.08334 1.84354,-3.37596 1.9664,-6.87193 3.19815,-9.39101 0.56599,-1.33745 -4.90257,4.04409 -5.27692,5.23184 -1.14439,1.22227 -2.05925,4.14244 -3.68715,4.78383 -5.93924,4.08471 -15.23058,4.86211 -21.03072,0.36811 -4.63996,-3.77264 -7.05496,-6.28986 -11.11409,-10.61359 z"
           id="path3798"
           inkscape:connector-curvature="0"
           sodipodi:nodetypes="cscssccccc" />
        <path
           style="color:#000000;fill:#a05a2c;fill-opacity:1;fill-rule:nonzero;stroke:none;stroke-width:10;marker:none;visibility:visible;display:inline;overflow:visible;enable-background:accumulate"
           d="m 232.58126,266.41698 c -0.30725,0.55058 -2.36416,2.70229 -5.44624,3.36492 3.55765,0.71479 3.96894,-1.09427 3.97624,4.66504 0.84896,3.33848 1.96924,1.00778 3.46017,-2.33608 0.47847,-1.0731 0.70998,-2.75709 0.95507,-3.96338 0.35903,-2.90779 0.47451,-3.031 0.89348,-4.22858 0.42965,-1.41281 -0.077,-1.42741 0.66275,-2.72596 -2.08043,1.41042 -3.44606,2.27701 -3.74118,3.61888 z"
           id="path3830"
           inkscape:connector-curvature="0"
           sodipodi:nodetypes="cccsccccc" />
        <path
           style="color:#000000;fill:#a05a2c;fill-opacity:1;fill-rule:nonzero;stroke:none;stroke-width:10;marker:none;visibility:visible;display:inline;overflow:visible;enable-background:accumulate"
           d="m 231.90634,244.70298 c -2.0647,0.31011 -6.11717,-0.022 -7.99906,1.09161 -1.73358,1.12557 -6.88134,1.8935 -8.93909,1.42823 -2.00661,0.16326 -1.84131,2.16563 -1.91992,4.06862 -0.58716,3.43635 1.78384,5.42661 0.99356,8.85194 -0.28453,1.07429 2.32849,3.99638 2.95208,2.91818 0.68612,-0.98786 -1.24472,-2.95988 -1.16144,-4.07424 -0.0971,-2.68745 -1.23638,-4.12835 -0.98332,-6.82915 0.18978,-1.07148 2.71334,-3.38222 3.90024,-3.31702 1.537,-0.0373 3.21037,0.39445 4.60664,-0.47151 1.535,-0.67704 2.50826,-1.75005 3.53193,-2.25841 1.85229,-0.64878 4.40833,0.19342 5.01838,-1.40825 z"
           id="path3832"
           inkscape:connector-curvature="0"
           sodipodi:nodetypes="cccccccccccc" />
        <path
           style="color:#000000;fill:#a05a2c;fill-opacity:1;fill-rule:nonzero;stroke:none;stroke-width:10;marker:none;visibility:visible;display:inline;overflow:visible;enable-background:accumulate"
           d="m 188.59303,245.80725 c 2.07156,0.22326 8.16847,1.14535 10.26571,1.10658 1.25018,-0.0402 2.99968,0.0495 4.22255,0.40114 0.72697,0.18673 2.43099,1.08714 2.84304,1.83508 0.16174,0.82334 -3.65542,-1.19314 -4.23987,-0.98593 -1.17598,-0.25878 -3.46967,-0.0161 -4.67618,0.10493 -2.50939,0.25293 -4.41181,0.77014 -6.75227,-0.22482 0.0979,-0.58364 -3.56701,-2.01099 -1.66298,-2.23698 z"
           id="path3836"
           inkscape:connector-curvature="0"
           sodipodi:nodetypes="cccccccc" />
        <path
           style="color:#000000;fill:#a05a2c;fill-opacity:1;fill-rule:nonzero;stroke:none;stroke-width:10;marker:none;visibility:visible;display:inline;overflow:visible;enable-background:accumulate"
           d="m 240.2086,246.19872 c -0.6574,0.75279 -0.55325,1.44094 -0.77213,2.36637 -0.21685,0.90086 -0.30518,1.3299 -0.94008,2.00619 -0.36022,0.53757 -0.6041,2.92158 0.0309,3.19856 0.48759,0.14371 0.92915,-2.50069 1.18943,-2.90108 1.19155,-1.27817 1.10905,-1.64003 1.27989,-3.35276 0.61993,-1.23472 1.09769,-2.06826 1.43172,-3.19693 -1.2556,-0.99524 -1.75595,0.90745 -2.2197,1.87965 z"
           id="path3838"
           inkscape:connector-curvature="0"
           sodipodi:nodetypes="cccccccc" />
        <path
           style="color:#000000;fill:#a05a2c;fill-opacity:1;fill-rule:nonzero;stroke:none;stroke-width:10;marker:none;visibility:visible;display:inline;overflow:visible;enable-background:accumulate"
           id="path3948"
           d="m 222.6679,306.30545 c 0.37698,2.51974 0.78306,5.25733 0.63397,7.79547 0.0726,0.89622 0.72686,2.20229 1.48471,2.83329 0.6412,0.56046 6.54164,-0.24022 7.39602,-0.20435 0.33688,0.15188 -3.90146,2.24163 -4.23833,2.08976 l -4.47754,2.44998 c -1.93175,-0.52511 -0.79454,-1.16986 -1.98576,-2.84191 -1.34739,-2.00549 -0.68288,-3.10538 -0.82715,-5.50952 -0.14908,-2.53814 0.51044,-7.47225 0.88742,-9.99199 0,-0.36641 1.12666,3.01286 1.12666,3.37927 z"
           inkscape:connector-curvature="0"
           sodipodi:nodetypes="cccccccccc" />
        <path
           style="color:#000000;fill:#a05a2c;fill-opacity:1;fill-rule:nonzero;stroke:none;stroke-width:10;marker:none;visibility:visible;display:inline;overflow:visible;enable-background:accumulate"
           id="path3950"
           d="m 131.75672,559.66748 c -3.18135,-4.22727 0.35264,-2.80103 -0.67179,-5.77214 3.50687,-2.84541 4.10075,-2.43329 2.42939,2.8e-4 0.56256,1.20253 0.93427,3.61725 1.00484,5.01139 -3.492,0.23927 -0.40944,0.48434 -2.01314,4.70928 0,0.35827 0.36187,-2.0625 -0.7493,-3.94881 z"
           inkscape:connector-curvature="0"
           sodipodi:nodetypes="cccccc" />
        <path
           style="color:#000000;fill:#a05a2c;fill-opacity:1;fill-rule:nonzero;stroke:none;stroke-width:10;marker:none;visibility:visible;display:inline;overflow:visible;enable-background:accumulate"
           d="m 157.77549,392.3262 c -0.0146,16.75733 -4.99605,26.28775 -10.82503,41.50533 -0.50076,-11.96755 0.39049,-14.07814 1.69738,-17.75771 3.72135,-10.47744 0.47811,-10.60114 -1.40795,-20.79751 -0.18679,-1.87758 -0.99797,-34.56248 1.1407,-34.60241 0.87257,-0.0868 3.00162,24.78499 9.3949,31.6523 z"
           id="path3952"
           inkscape:connector-curvature="0"
           sodipodi:nodetypes="ccsccc" />
        <path
           style="color:#000000;fill:#a05a2c;fill-opacity:1;fill-rule:nonzero;stroke:none;stroke-width:10;marker:none;visibility:visible;display:inline;overflow:visible;enable-background:accumulate"
           d="m 279.42664,409.85486 c 2.22827,5.44201 6.86274,15.28583 7.33886,21.25076 -4.91665,-11.036 -4.53604,-2.21789 -5.23581,-11.64107 -0.42047,-5.66235 -4.59656,-7.85915 -5.32407,-13.55556 0.35664,-1.79102 -0.21575,-8.18052 1.21332,-13.62549 0.58865,10.12868 1.61322,17.44423 2.0077,17.57136 z"
           id="path3954"
           inkscape:connector-curvature="0"
           sodipodi:nodetypes="ccsccc" />
        <path
           style="color:#000000;fill:#a05a2c;fill-opacity:1;fill-rule:nonzero;stroke:none;stroke-width:10;marker:none;visibility:visible;display:inline;overflow:visible;enable-background:accumulate"
           d="m 205.50367,718.04074 c 2.19832,21.44753 -4.12814,17.50896 -4.98066,38.85977 -3.47194,-1.11029 -3.96356,-10.42693 -0.79612,-17.27695 4.97567,-10.76051 -0.0505,-2.84622 1.90993,-14.44075 1.25309,-11.13123 1.04131,-8.12685 0.029,-19.30281 -0.0521,-2.9934 1.74,10.57681 3.83788,12.16074 z"
           id="path3956"
           inkscape:connector-curvature="0"
           sodipodi:nodetypes="ccsccc"
           inkscape:transform-center-x="4.1937859"
           inkscape:transform-center-y="8.296842" />
        <path
           style="color:#000000;fill:#a05a2c;fill-opacity:1;fill-rule:nonzero;stroke:none;stroke-width:10;marker:none;visibility:visible;display:inline;overflow:visible;enable-background:accumulate"
           d="m 228.26493,847.95298 c 5.33948,-0.61741 7.38119,-1.67469 4.31037,2.9571 1.79319,4.34955 6.84662,-1.60512 10.46148,0.7397 3.89852,1.9491 1.45528,-3.3292 7.04439,-1.95684 3.7361,5.31273 3.94199,0.18049 7.92851,0.0489 3.36076,-1.94652 5.03259,3.83995 5.84491,-0.79278 -0.94217,-5.24431 -4.32367,-1.86102 -7.8277,-0.86847 -4.22749,0.37441 -8.92133,-3.65761 -13.16053,-1.22704 -4.46101,0.58254 -23.04399,-4.47263 -14.60143,1.09948 z"
           id="path3958"
           inkscape:connector-curvature="0"
           sodipodi:nodetypes="ccccccccc" />
        <path
           style="color:#000000;fill:#a05a2c;fill-opacity:1;fill-rule:nonzero;stroke:none;stroke-width:10;marker:none;visibility:visible;display:inline;overflow:visible;enable-background:accumulate"
           d="m 151.60869,834.98423 c -3.66455,-1.17781 -6.51065,3.01513 -4.15544,6.03434 2.8368,-5.45787 8.80381,-2.16472 10.65162,-1.13989 3.15197,1.50031 4.621,-1.08598 7.64379,0.84844 2.40413,-2.74765 5.35208,-4.88341 7.97941,-1.0936 1.34281,2.9437 1.38367,-5.07395 5.94312,-7.18059 -1.43881,-4.06882 -2.34923,0.0185 -4.6522,2.83607 -1.76405,0.9945 -5.01381,1.01702 -5.16742,-1.22969 -3.05843,-0.71134 -5.37332,3.09797 -7.76141,0.68686 -3.07289,-3.11677 -1.83225,2.27745 -4.92115,0.0573 -3.13516,0.83543 1.71911,-3.49686 -5.56032,0.18072 z"
           id="path3960"
           inkscape:connector-curvature="0"
           sodipodi:nodetypes="cccccccccccc" />
        <path
           style="color:#000000;fill:#a05a2c;fill-opacity:1;fill-rule:nonzero;stroke:none;stroke-width:10;marker:none;visibility:visible;display:inline;overflow:visible;enable-background:accumulate"
           d="m 194.61609,824.51 c 2.09973,-0.44024 6.94817,-1.99771 6.09234,-5.02588 0.87927,-2.57306 2.71113,-0.36207 1.97827,2.64874 -0.21421,1.54907 0.59551,2.8916 -1.96951,2.79979 -4.73907,-0.16964 -1.97625,0.80179 -6.1011,-0.42265 z"
           id="path3962"
           inkscape:connector-curvature="0"
           sodipodi:nodetypes="cccsc" />
        <path
           style="color:#000000;fill:#a05a2c;fill-opacity:1;fill-rule:nonzero;stroke:none;stroke-width:10;marker:none;visibility:visible;display:inline;overflow:visible;enable-background:accumulate"
           d="m 257.24773,694.80817 c -6.55577,3.6421 -5.78857,6.91861 -11.81036,6.5642 -5.49445,-0.32337 -14.99654,-4.56184 -17.09104,-10.27895 -2.15539,-6.43564 5.63861,-0.40965 6.98016,3.63641 3.67226,3.8715 10.01206,-1.80536 14.4812,0.39367 4.73401,1.57453 7.21428,-4.82946 13.27367,-3.85091 0,0 -2.65165,1.76782 -5.83363,3.53558 z"
           id="path3964"
           inkscape:connector-curvature="0"
           sodipodi:nodetypes="ssccccs" />
        <path
           style="color:#000000;fill:#a05a2c;fill-opacity:1;fill-rule:nonzero;stroke:none;stroke-width:10;marker:none;visibility:visible;display:inline;overflow:visible;enable-background:accumulate"
           d="m 172.24511,693.4336 c 4.70973,-0.48901 7.05184,-0.40832 11.69898,-1.472 0.98724,-2.5342 5.66402,-4.33899 7.73802,-1.83289 2.02004,3.02585 -11.11093,8.48297 -13.93522,8.95396 -4.72564,0.79369 -8.0445,-2.26107 -12.80311,-2.99421 -2.11658,-0.0258 -3.72895,-3.61869 -2.30484,-5.58184 0.34733,-0.77922 9.09276,3.60825 9.60617,2.92698 z"
           id="path3966"
           inkscape:connector-curvature="0"
           sodipodi:nodetypes="ccccccc" />
        <path
           style="color:#000000;fill:#a05a2c;fill-opacity:1;fill-rule:nonzero;stroke:none;stroke-width:10;marker:none;visibility:visible;display:inline;overflow:visible;enable-background:accumulate"
           d="m 308.44194,589.52611 c 0.004,-2.06239 -0.26812,-3.28121 3.24432,-5.51425 2.27729,-2.49422 2.75246,-2.62122 3.52164,-5.95287 0.36259,-2.29524 0.79488,-2.2649 0.85271,-4.97883 1.08871,1.89869 0.32222,4.1532 -0.91378,7.11627 -1.43528,2.93899 -1.02764,3.9473 -3.9461,5.76665 -2.90365,1.81011 -0.21822,4.88294 -4.07438,10.36596 1.41977,-3.60965 1.31221,-5.23943 1.31559,-6.80293 z"
           id="path3968"
           inkscape:connector-curvature="0"
           sodipodi:nodetypes="sccccscs" />
        <path
           style="color:#000000;fill:#a05a2c;fill-opacity:1;fill-rule:nonzero;stroke:none;stroke-width:10;marker:none;visibility:visible;display:inline;overflow:visible;enable-background:accumulate"
           id="path3970"
           d="m 125.50978,569.48293 c -2.58564,0.53741 -5.88084,0.45768 -7.99044,-0.83471 -2.00499,-1.29409 -2.05152,1.39108 -3.81028,-0.21169 -1.32745,-1.1385 -1.49288,-2.88836 -2.95695,-3.84934 -0.2895,-0.25238 -5.46068,-0.9296 -6.70572,-2.12277 -1.43371,-1.37397 -2.27004,-3.28558 -2.27004,-3.28558 1.79119,3.06373 6.98158,4.5546 9.47703,4.30443 1.7485,-0.17529 2.23356,2.35828 3.25221,3.25903 0.90348,0.55618 2.26464,-1.42472 7.26225,1.76051 2.26315,1.44241 6.44459,-0.68089 7.21228,-0.58211 0.34702,0.0891 0.28173,0.75526 -3.47034,1.56223 z"
           inkscape:connector-curvature="0"
           sodipodi:nodetypes="ccccscscscc" />
        <path
           style="color:#000000;fill:#4d4d4d;fill-opacity:1;fill-rule:nonzero;stroke:none;stroke-width:10;marker:none;visibility:visible;display:inline;overflow:visible;enable-background:accumulate"
           id="path3858-1"
           d="m 230.21593,527.77939 c -1.15421,4.90541 -6.22702,15.7 -20.86441,21.80548 18.32759,-2.76951 18.97297,-12.45234 20.60976,-14.72067 3.18397,-4.4125 6.34215,-9.02419 6.45864,-11.80683 0.96194,-22.9774 -1.61259,-20.12313 -6.20399,4.72202 z"
           inkscape:connector-curvature="0"
           sodipodi:nodetypes="ccssc" />
        <path
           style="color:#000000;fill:#4d4d4d;fill-opacity:1;fill-rule:nonzero;stroke:none;stroke-width:10;marker:none;visibility:visible;display:inline;overflow:visible;enable-background:accumulate"
           d="m 204.91768,552.59139 c 0.84777,3.14013 1.94516,4.33332 4.56687,12.24061 -0.0233,-2.43178 -0.18814,-4.82726 -0.18844,-7.25392 l 0.0625,-8 c -6.55725,0.73055 -11.2999,-3.25974 -15.34723,-5.031 0,0 2.86801,4.79864 10.9063,8.04431 z"
           id="path3095"
           inkscape:connector-curvature="0"
           sodipodi:nodetypes="cccccc" />
        <path
           style="color:#000000;fill:#a05a2c;fill-opacity:1;fill-rule:nonzero;stroke:none;stroke-width:10;marker:none;visibility:visible;display:inline;overflow:visible;enable-background:accumulate"
           d="m 307.60849,585.53061 c 0.26273,-1.27027 0.78638,-0.46834 3.60274,-8.74008 -0.40322,2.70532 -0.48124,5.87386 -2.75556,9.29896 -1.89275,2.85047 -0.3377,5.77901 -4.19386,11.26203 1.41977,-3.60965 3.02999,-10.28981 3.34668,-11.82091 z"
           id="path3968-7"
           inkscape:connector-curvature="0"
           sodipodi:nodetypes="scscs" />
      </g>
      <g
         transform="matrix(0.66666665,0,0,0.66666665,-200.72117,369.84087)"
         id="g3292">
        <path
           style="fill:#ffeeaa;stroke:none;display:inline"
           d="m -249.19192,-90.47431 c 25.4584,0.332974 39.75673,15.269117 48.0093,28.356424 8.25257,13.087325 3.24599,27.416133 5.12651,43.287304 1.36216,-3.595063 4.00192,-6.430553 7.51552,-0.854444 3.51361,5.576128 0.75261,18.214224 -2.78989,25.3328798 -3.54248,7.1186562 -9.55767,7.1254052 -9.7908,19.8303482 -0.15768,8.596995 -6.46859,11.554481 -6.33448,23.629348 0.12986,11.694632 -3.82324,20.40834 5.39203,27.170107 9.21526,6.761766 34.0799,23.971953 44.78785,27.188313 32.97661,9.90529 49.82912,5.79126 71.702476,33.41162 8.758302,11.33655 15.249154,23.04952 17.977959,37.79385 2.728805,14.74433 -2.633912,27.26966 -1.621566,46.5144 1.012345,19.24475 8.013858,39.5102 9.389883,57.40246 1.376025,17.89225 -5.608294,43.45164 -4.777969,62.7599 0.830326,19.30825 9.64823,34.45681 10.209643,60.30675 0.561431,25.84997 -1.660596,44.83339 -1.264028,60.96299 0.391963,15.94297 -1.721679,25.20468 -0.04335,39.78527 1.678278,14.5806 0.5049,27.30575 3.539335,39.90981 -0.04281,3.97146 -1.573433,13.75538 -2.353602,27.09071 -0.597788,10.21796 0.611352,17.65694 -1.895843,25.88657 -2.953521,9.69474 -3.674667,9.16476 -7.77872,14.30308 -2.63001,3.29283 -4.255243,11.45717 -8.090979,15.54165 -4.100242,4.36609 -10.378081,4.55657 -11.914218,4.78178 -8.451426,1.23906 5.558716,-44.71552 4.828955,-50.41627 -0.757177,-5.91489 -0.933653,-10.63915 -13.607251,-21.64225 -6.116011,-5.30983 -13.191495,21.69465 -19.617525,28.90478 -4.271,4.79215 -6.59409,6.8337 -11.63079,5.94989 -5.80077,-1.01788 9.16786,-37.69423 14.17687,-51.25059 5.84948,-15.83104 13.017313,-27.05462 14.072102,-43.39739 1.054789,-16.34278 -7.951052,-22.90259 -11.134132,-39.01513 -3.1831,-16.11256 -5.17998,-16.2784 -9.79079,-50.81612 -4.61081,-34.53773 3.69779,-42.1791 0.46226,-65.75235 -3.23553,-23.57324 -21.50798,-58.20428 -21.17777,-88.99129 -1.50079,16.93349 -1.82988,37.13729 -4.06292,52.84399 -2.23305,15.7067 -8.85864,22.29338 -8.63144,37.68754 0.22719,15.39416 3.18614,32.80312 2.58942,50.83437 -0.39225,11.85272 18.51376,45.67419 18.98922,108.68038 0.2184,28.94151 3.32811,72.42257 1.72629,104.29809 -1.60183,31.87553 -9.2984,63.54484 -12.08405,85.01611 -2.78564,21.47127 -9.26381,68.30117 -9.4946,83.26319 -0.52188,33.83397 7.6468,43.41883 6.90517,78.41787 -0.12516,39.75199 -16.38597,84.66703 -22.4418,117.70398 -3.08001,18.04105 0.77325,22.17161 1.72628,32.77609 0.95303,10.6045 -3.73459,16.4037 -3.45257,23.9454 0.28203,7.5418 1.85824,19.2598 1.72629,28.7191 2.63255,22.2905 32.92029,37.0061 19.85234,45.3551 -16.51269,9.6674 -73.75167,7.8355 -88.04088,-0.8764 -18.70587,-11.4048 0.0894,-18.4976 3.45259,-30.6318 3.36311,-12.1343 6.52401,-20.3789 6.90518,-29.8105 0.38116,-9.4316 -4.11612,-22.7363 -3.45261,-33.0738 0.66351,-10.33747 2.73186,-17.32636 3.45259,-40.93427 0.72073,-23.60791 -8.85556,-86.12374 -8.63146,-115.2786 0.2241,-29.15484 2.77242,-46.22788 2.58946,-71.92992 -0.18296,-25.70202 -3.36546,-35.03346 -7.76833,-61.3518 -4.40288,-26.31834 -6.93626,-53.16606 -9.4946,-78.88091 -2.55835,-25.71486 -1.96908,-68.94665 -5.17888,-108.6804 -1.48348,29.50618 1.48161,85.1152 -0.86314,107.80394 -2.34475,22.68875 -1.86483,38.85174 -6.04203,60.47536 -4.1772,21.62361 -10.15093,49.41897 -9.4946,67.48701 0.65632,18.06804 5.74716,27.14304 9.49462,45.76304 3.74745,18.62001 4.19909,29.92511 2.58941,51.22024 -1.60969,21.29512 -8.29827,58.55918 -10.35773,79.21165 -2.05946,20.6525 -3.38607,40.31089 -0.86316,57.47666 2.52291,17.1658 5.70048,22.7899 6.90517,32.8952 1.2047,10.1052 4.95225,19.9604 0.86315,27.2235 -4.0891,7.2632 -11.5079,2.5395 -19.85235,6.8059 -8.34447,4.2665 0.32637,16.8165 -29.34695,20.4177 -14.648,1.7777 -48.65613,7.2015 -63.00965,-6.9437 -17.91146,-17.6516 39.55272,-42.0256 47.47302,-69.5004 7.9203,-27.47473 1.63087,-34.13546 -2.58943,-61.87584 -4.22029,-27.74038 -14.40822,-67.04378 -17.10327,-97.17073 -2.69507,-30.12696 3.18476,-59.07887 0.7035,-87.27614 -2.48126,-28.19727 -6.97628,-59.10478 -12.08405,-91.15128 -5.10776,-32.0465 -13.19408,-70.21157 -12.94719,-106.92747 0.0907,-13.48324 4.3697,-43.2215 6.29159,-69.48587 3.56194,-48.67774 26.05629,-88.0658 27.17962,-101.42589 1.46595,-17.43485 -0.35562,-43.09646 1.06724,-54.93759 1.44142,-11.99559 -5.59428,-20.86496 -6.85643,-31.28152 -3.30608,-27.28508 -0.70561,-29.9606 -4.62989,-57.68495 0.85339,37.44003 -17.68168,63.77038 -19.59954,76.42018 -2.72021,17.94182 2.46145,53.29467 -4.31575,76.25152 -6.5344,34.41124 -20.49247,54.63347 -21.91778,90.48754 -0.22054,13.37111 13.97162,35.05578 12.48452,41.99766 -2.88905,13.48645 0.98725,23.21263 -1.16919,26.71521 -1.75038,2.84304 -10.54863,4.10932 -13.77338,14.09349 -3.30877,10.24431 -6.70927,3.54327 -15.62918,4.91735 -7.12064,1.09691 -5.698,-1.86954 -13.72528,-2.94362 -8.22644,-1.10076 -6.69437,-5.26496 -12.1415,-8.15395 -4.04584,-2.14577 -18.08572,-3.56836 -18.29764,-22.47831 -0.093,-8.29903 -1.57061,-14.41879 6.15784,-29.50401 8.74712,-17.07361 14.652,-50.66983 14.13879,-79.19669 -0.41638,-23.14369 -1.61418,-64.7361 0,-94.6571 1.48145,-27.46046 8.86627,-28.17323 13.81033,-51.71082 5.15577,-24.54547 -7.23952,-24.57137 9.79081,-93.26724 8.28555,-33.42175 -4.72672,-47.52887 13.0519,-72.59535 12.72161,-20.77878 36.20513,-17.33176 66.61032,-27.47082 11.42176,-7.638549 35.89154,-15.700889 40.01888,-24.903789 4.12733,-9.202899 0.67135,-16.839026 0.86314,-27.608332 0.19029,-10.685347 -8.67246,-17.21774 -8.19987,-24.540717 0.54819,-8.49455 -5.48057,-13.235491 -7.76832,-18.8437869 -2.28775,-5.60829549 -5.12768,-23.6408281 -2.58944,-28.5910981 2.53826,-4.95027 4.6307,0.145984 6.97921,4.094414 -1.47058,-10.854145 -1.93481,-36.740166 7.15799,-48.687261 9.0928,-11.947113 25.93539,-23.220777 42.77807,-23.0005 z"
           id="path3062"
           inkscape:connector-curvature="0"
           sodipodi:nodetypes="cscsssssscsssszsscssssssssssszzscsssssssccssccssssssssscsssssssssssssssssssssscsccssssssssssssccssssscssc" />
        <path
           sodipodi:nodetypes="ccccc"
           inkscape:connector-curvature="0"
           id="path3064"
           d="m -335.49284,401.71215 1.42188,-14.42045 c 80.85583,25.35106 134.70645,8.40973 186.71392,-5.01484 l 1.49082,14.36705 c -70.04144,41.03398 -133.20086,44.15051 -189.62662,5.06824 z"
           style="fill:#999999;stroke:none;display:inline" />
        <path
           sodipodi:nodetypes="ccsssccsscccscc"
           inkscape:connector-curvature="0"
           id="path3066"
           d="m -250.60215,601.14129 c -30.3551,5.5196 -99.85751,13.98265 -115.97943,-10.55055 -0.72525,-10.86053 0.007,-26.26534 0.68726,-39.37106 1.0782,-20.75777 2.57187,-41.57504 6.08874,-62.0526 3.19265,-18.58969 8.09313,-36.87646 13.57696,-54.90643 3.21366,-10.56599 11.29788,-34.19622 11.29788,-34.19622 22.68276,11.7001 92.41975,26.4138 188.77078,-4.29793 0,0 10.49604,45.79668 13.72633,62.79102 3.93577,20.70579 6.5297,70.97004 6.89887,93.29873 0.13473,8.146 -0.92513,25.93156 -1.07771,41.11536 6.57189,24.48571 -116.16326,25.24101 -120.68057,8.29342 -0.21217,-6.92729 -3.46151,-60.15672 -3.46151,-60.15672 0,0 -0.78228,10.30617 -0.72828,22.63356 0.0601,13.74093 0.96266,29.9932 1.08249,37.28313 z"
           style="fill:#b3b3b3;stroke:none;display:inline" />
        <path
           sodipodi:nodetypes="ccssc"
           inkscape:connector-curvature="0"
           d="m -213.07103,501.11786 c -2.08463,8.99634 -11.24671,28.79322 -37.68352,39.99045 33.10173,-5.07918 34.26736,-22.83713 37.22359,-26.99717 5.75062,-8.09236 11.45466,-16.55003 11.66505,-21.65329 1.73737,-42.1397 -2.91252,-36.90507 -11.20512,8.66001 z"
           id="path3122"
           style="color:#000000;fill:#4d4d4d;fill-opacity:1;fill-rule:nonzero;stroke:none;stroke-width:10;marker:none;visibility:visible;display:inline;overflow:visible;enable-background:accumulate" />
        <path
           sodipodi:nodetypes="cccccc"
           inkscape:connector-curvature="0"
           id="path3124"
           d="m -258.76257,546.62215 c 1.53117,5.75889 3.51318,7.94715 8.24829,22.44883 -0.0421,-4.4598 -0.33981,-8.85302 -0.34035,-13.30342 l 0.11288,-14.67171 c -11.84314,1.33981 -20.40891,-5.97824 -27.71886,-9.22666 0,0 5.17996,8.80052 19.69804,14.75296 z"
           style="color:#000000;fill:#4d4d4d;fill-opacity:1;fill-rule:nonzero;stroke:none;stroke-width:10;marker:none;visibility:visible;display:inline;overflow:visible;enable-background:accumulate" />
        <g
           id="g3262"
           style="fill:#a05a2c">
          <path
             style="color:#000000;fill:#a05a2c;fill-opacity:1;fill-rule:nonzero;stroke:none;stroke-width:10;marker:none;visibility:visible;display:inline;overflow:visible;enable-background:accumulate"
             d="m -179.22048,129.5643 c -4.99145,1.02881 -8.09678,-0.12893 -12.74597,2.49905 -5.60717,2.47183 -8.73029,1.7126 -14.74413,2.76796 -3.40696,0.64011 -21.35281,8.99894 -19.75743,6.37806 1.55291,-2.55111 21.36625,-10.38888 23.9116,-10.86351 10.90422,-2.34205 9.10981,-0.74655 19.91128,-3.48241 3.64888,-0.73055 13.21128,-3.08125 16.92982,-2.83748 2.4017,-1.40267 -5.23315,2.40505 -6.78297,4.75841 -0.76417,1.6788 -5.77453,-0.8171 -6.7222,0.77992 z"
             id="path3068"
             inkscape:connector-curvature="0"
             sodipodi:nodetypes="cccsccccc" />
          <path
             style="color:#000000;fill:#a05a2c;fill-opacity:1;fill-rule:nonzero;stroke:none;stroke-width:10;marker:none;visibility:visible;display:inline;overflow:visible;enable-background:accumulate"
             d="m -293.43908,131.31912 c -4.21032,-1.60989 -7.32473,-0.56963 -9.71709,-1.70611 -2.56433,0.19434 -3.50687,1.22013 -5.77414,-0.3824 -2.55608,-2.69134 -7.82158,-2.68707 -11.06138,-4.71886 3.20695,-2.29866 21.77455,1.50098 23.76341,2.40007 7.41071,3.38872 13.85135,3.21521 21.70954,5.02746 3.86154,0.87291 8.77916,2.1622 12.41688,3.75685 1.85968,1.87307 -6.98331,3.51841 -7.31336,1.21588 -3.81275,-0.16964 -7.24323,-2.47341 -12.91311,-1.78897 -6.79007,-2.34493 -6.36952,-3.59373 -11.11075,-3.80392 z"
             id="path3070"
             inkscape:connector-curvature="0"
             sodipodi:nodetypes="cccccccccc" />
          <path
             style="color:#000000;fill:#a05a2c;fill-opacity:1;fill-rule:nonzero;stroke:none;stroke-width:10;marker:none;visibility:visible;display:inline;overflow:visible;enable-background:accumulate"
             d="m -254.97385,251.49577 c -2.05305,5.81934 -15.85672,6.83215 -22.11433,6.781 -15.98314,-0.13058 -23.13248,1.70872 -39.09209,1.30668 -4.52334,-0.11389 -19.56132,1.12653 -27.72652,-6.88173 4.88097,6.89712 8.78235,8.06189 14.27183,9.3101 7.226,2.18487 25.72831,0.34418 33.07378,0.59692 16.45423,0.56616 23.1575,-0.84603 39.6043,-1.97098 4.43203,-1.40724 5.9015,-11.39186 5.6059,-16.68235 0.97351,-4.72268 1.28474,-16.27142 1.09824,-21.98285 -1.15698,11.74196 -0.89347,18.67383 -4.72111,29.52321 z"
             id="path3072"
             inkscape:connector-curvature="0"
             sodipodi:nodetypes="cssccscccc" />
          <path
             style="color:#000000;fill:#a05a2c;fill-opacity:1;fill-rule:nonzero;stroke:none;stroke-width:10;marker:none;visibility:visible;display:inline;overflow:visible;enable-background:accumulate"
             d="m -141.37509,247.74375 c -5.65692,5.6006 -19.44997,18.37954 -23.56588,17.50261 -18.02232,-0.0328 -48.19553,-0.7652 -66.17437,-2.41005 -3.7169,-0.67212 -10.1358,-6.15778 -14.49568,-12.61632 9.41453,5.68708 12.47331,7.97002 15.45927,9.01466 15.70611,-0.86647 46.26924,1.48028 60.68462,1.72668 7.53796,1.37996 29.68851,-17.29261 40.29875,-36.7679 -0.4985,6.46257 2.25264,5.80697 -8.44655,29.29666 0.005,-9.908 0.60511,-10.06814 -3.76016,-5.74634 z"
             id="path3074"
             inkscape:connector-curvature="0"
             sodipodi:nodetypes="scccccccs" />
          <path
             style="color:#000000;fill:#a05a2c;fill-opacity:1;fill-rule:nonzero;stroke:none;stroke-width:10;marker:none;visibility:visible;display:inline;overflow:visible;enable-background:accumulate"
             d="m -258.5369,310.17864 c -0.21341,7.9134 2.97398,15.02894 2.34867,22.93622 -0.24325,7.41381 -3.12427,10.72023 -6.11912,13.30093 6.59043,1.1754 6.44166,22.30533 2.7075,20.70573 -11.96846,10.46811 -35.0993,-2.63751 -29.25372,0.68598 2.10835,8.50262 9.07593,6.36057 15.04022,5.43315 5.0803,-0.56662 5.99096,3.04469 11.01451,1.31389 3.37037,-1.2436 8.39209,-2.29884 8.05996,-5.56729 -0.80334,-7.37279 3.64973,-22.86389 7.34972,-21.07213 -5.28896,-6.50391 -6.57068,-11.71805 -5.9647,-20.14571 0.0739,-3.36272 4.84491,-17.4002 4.36222,-20.73239 -1.43644,-0.66914 -2.9358,-1.66452 -4.45922,-1.77762 -3.46074,3.04104 -6.74371,0.56094 -5.08604,4.91924 z m -28.6092,63.16673 c -0.42242,-0.0407 0.20271,0.20133 0,0 z"
             id="path3076"
             inkscape:connector-curvature="0"
             sodipodi:nodetypes="ccccccccccccccc" />
          <path
             style="color:#000000;fill:#a05a2c;fill-opacity:1;fill-rule:nonzero;stroke:none;stroke-width:10;marker:none;visibility:visible;display:inline;overflow:visible;enable-background:accumulate"
             d="m -267.84542,339.1088 c -5.90444,1.50981 -10.26895,5.20081 -19.71513,1.71378 -4.3956,-1.62261 -3.86816,-3.25205 -4.2544,-5.34215 3.43066,-1.24592 4.7214,2.89737 8.29632,2.4026 4.58511,-0.3395 5.67306,-1.69106 10.15203,-0.72898 1.55618,0.0684 6.17527,-0.37293 8.41938,-3.3876 1.2964,-7.78877 5.14651,0.13589 -2.8982,5.34235 z"
             id="path3078"
             inkscape:connector-curvature="0"
             sodipodi:nodetypes="csccccc" />
          <path
             style="color:#000000;fill:#a05a2c;fill-opacity:1;fill-rule:nonzero;stroke:none;stroke-width:10;marker:none;visibility:visible;display:inline;overflow:visible;enable-background:accumulate"
             id="path3080"
             d="m -247.00506,330.59318 c 6.84411,0.4321 10.15846,7.26313 17.0148,7.60735 3.39779,0.005 11.5619,-1.14817 14.95673,-1.03703 0.59852,-0.25709 11.84175,-3.00922 11.24324,-2.75214 l -8.30126,5.51144 c -5.4933,2.081 -18.60431,3.23743 -24.44351,3.07494 -7.43117,-0.37653 -5.13806,-4.40249 -7.75485,-8.76565 -0.56946,-0.33231 -3.28461,-3.97123 -2.71515,-3.63891 z"
             inkscape:connector-curvature="0"
             sodipodi:nodetypes="cccccccc" />
          <path
             style="color:#000000;fill:#a05a2c;fill-opacity:1;fill-rule:nonzero;stroke:none;stroke-width:10;marker:none;visibility:visible;display:inline;overflow:visible;enable-background:accumulate"
             d="m -223.00278,371.03408 c 2.60414,0.57777 24.23922,-10.50753 24.7638,-8.12061 0.30269,1.6178 -13.5503,8.57301 -14.21932,10.12456 -14.49949,1.96737 -10.66872,4.26103 -24.90373,1.30448 -1.57181,-1.03632 -5.0236,-2.534 -6.24009,-5.27459 -1.21649,-2.74058 -2.72801,-11.70677 0.28613,-9.78791 2.7996,12.10157 15.44622,12.03953 20.31321,11.75407 z"
             id="path3082"
             inkscape:connector-curvature="0"
             sodipodi:nodetypes="cccczcc" />
          <path
             style="color:#000000;fill:#a05a2c;fill-opacity:1;fill-rule:nonzero;stroke:none;stroke-width:10;marker:none;visibility:visible;display:inline;overflow:visible;enable-background:accumulate"
             id="path3084"
             d="m -274.43373,307.45315 c 0.41227,5.04971 -13.10154,18.76274 -19.52137,19.96208 -4.31925,0.80684 -10.86868,2.94188 -7.96703,-0.9685 l 0.59884,-3.95714 c 6.31074,8.01304 14.72428,-8.11325 18.78301,-9.87869 2.80131,-1.21854 4.54321,-0.63421 8.10655,-5.15775 z"
             inkscape:connector-curvature="0"
             sodipodi:nodetypes="csccsc" />
          <path
             style="color:#000000;fill:#a05a2c;fill-opacity:1;fill-rule:nonzero;stroke:none;stroke-width:10;marker:none;visibility:visible;display:inline;overflow:visible;enable-background:accumulate"
             id="path3086"
             d="m -300.78749,335.56978 c 1.08193,6.12595 0.7802,12.27927 0.37228,13.02851 -0.82795,1.52067 -2.82558,9.81827 -3.70155,11.1145 -2.49872,3.69749 -1.35532,4.81215 -4.31773,8.13087 -0.42057,0.68722 -5.36201,3.56341 -4.94144,2.87621 l 5.10845,-9.72606 c 4.15332,-6.33379 -0.47425,-12.26859 5.40406,-14.46192 0.44607,-4.97279 -0.0322,-8.15407 2.07593,-10.96211 z"
             inkscape:connector-curvature="0"
             sodipodi:nodetypes="cssccccc" />
          <path
             style="color:#000000;fill:#a05a2c;fill-opacity:1;fill-rule:nonzero;stroke:none;stroke-width:10;marker:none;visibility:visible;display:inline;overflow:visible;enable-background:accumulate"
             d="m -284.60432,45.063166 c 5.83008,10.883379 8.04942,16.103846 13.35114,19.35163 5.6748,3.476313 9.65369,12.602938 18.56952,16.784576 6.89829,3.523538 19.31358,0.295103 23.63184,-3.667431 3.49806,-3.209912 9.74563,-8.924413 12.91863,-14.824547 3.32965,-6.191385 3.55155,-12.602865 5.77623,-17.222764 1.02224,-2.452834 -8.85461,7.416711 -9.53073,9.595 -2.0669,2.241598 -3.71924,7.597082 -6.65941,8.773368 -10.72695,7.491207 -27.50818,8.91693 -37.9839,0.6751 -8.3803,-6.918882 -12.74207,-11.535371 -20.07332,-19.464932 z"
             id="path3088"
             inkscape:connector-curvature="0"
             sodipodi:nodetypes="cscssccccc" />
          <path
             style="color:#000000;fill:#a05a2c;fill-opacity:1;fill-rule:nonzero;stroke:none;stroke-width:10;marker:none;visibility:visible;display:inline;overflow:visible;enable-background:accumulate"
             d="m -208.79897,21.788874 c -0.55493,1.009743 -4.26995,4.9559 -9.83654,6.171139 6.42553,1.310898 7.16837,-2.006851 7.18155,8.55551 1.53332,6.122649 3.55667,1.848232 6.24946,-4.284284 0.86418,-1.968026 1.28231,-5.056401 1.72497,-7.268692 0.64845,-5.332779 0.85702,-5.558742 1.61373,-7.755059 0.776,-2.591042 -0.13907,-2.617818 1.197,-4.99931 -3.75749,2.586658 -6.22398,4.175952 -6.757,6.636892 z"
             id="path3090"
             inkscape:connector-curvature="0"
             sodipodi:nodetypes="cccsccccc" />
          <path
             style="color:#000000;fill:#a05a2c;fill-opacity:1;fill-rule:nonzero;stroke:none;stroke-width:10;marker:none;visibility:visible;display:inline;overflow:visible;enable-background:accumulate"
             d="m -210.01795,-18.033799 c -3.72909,0.568731 -11.04832,-0.04035 -14.44723,2.001973 -3.13104,2.064253 -12.42849,3.472609 -16.14502,2.619321 -3.62417,0.299412 -3.32562,3.9716849 -3.4676,7.4616982 -1.06047,6.30213873 3.22182,9.9522019 1.79449,16.2341308 -0.5139,1.970208 4.20552,7.329213 5.33179,5.351834 1.23922,-1.811699 -2.2481,-5.428311 -2.09769,-7.4720057 -0.17537,-4.9286838 -2.23304,-7.5712411 -1.77599,-12.5244084 0.34277,-1.9650546 4.9006,-6.2028659 7.04428,-6.0832919 2.776,-0.06841 5.7983,0.7234067 8.32012,-0.864732 2.77239,-1.241666 4.53021,-3.209527 6.37908,-4.14184 3.34544,-1.189839 7.96195,0.354725 9.06377,-2.582679 z"
             id="path3092"
             inkscape:connector-curvature="0"
             sodipodi:nodetypes="cccccccccccc" />
          <path
             style="color:#000000;fill:#a05a2c;fill-opacity:1;fill-rule:nonzero;stroke:none;stroke-width:10;marker:none;visibility:visible;display:inline;overflow:visible;enable-background:accumulate"
             d="m -288.24677,-16.008608 c 3.74148,0.40945 14.7532,2.100529 18.54105,2.029426 2.25797,-0.07372 5.41777,0.09078 7.62641,0.735676 1.313,0.342456 4.39065,1.993775 5.13486,3.3654691 0.29212,1.5099751 -6.60211,-2.1881741 -7.65769,-1.8081591 -2.12396,-0.474593 -6.26662,-0.02953 -8.44572,0.192438 -4.53225,0.463864 -7.96824,1.412408 -12.19538,-0.412312 0.17682,-1.070374 -6.44243,-3.688081 -3.00353,-4.102538 z"
             id="path3094"
             inkscape:connector-curvature="0"
             sodipodi:nodetypes="cccccccc" />
          <path
             style="color:#000000;fill:#a05a2c;fill-opacity:1;fill-rule:nonzero;stroke:none;stroke-width:10;marker:none;visibility:visible;display:inline;overflow:visible;enable-background:accumulate"
             d="m -195.02312,-15.290667 c -1.18734,1.380589 -0.99923,2.642631 -1.39455,4.339835 -0.39166,1.6521441 -0.55119,2.4389875 -1.6979,3.6792784 -0.6506,0.9858835 -1.09107,5.3580696 0.0558,5.8660407 0.88065,0.2635588 1.67815,-4.586173 2.14825,-5.3204734 2.15208,-2.3441165 2.00307,-3.0077543 2.31163,-6.1488377 1.11966,-2.264431 1.98255,-3.793112 2.58585,-5.863051 -2.26776,-1.825234 -3.17145,1.664229 -4.00903,3.447208 z"
             id="path3096"
             inkscape:connector-curvature="0"
             sodipodi:nodetypes="cccccccc" />
          <path
             style="color:#000000;fill:#a05a2c;fill-opacity:1;fill-rule:nonzero;stroke:none;stroke-width:10;marker:none;visibility:visible;display:inline;overflow:visible;enable-background:accumulate"
             id="path3098"
             d="m -226.70364,94.942852 c 0.68087,4.62111 1.4143,9.641748 1.14502,14.296608 0.13113,1.64363 1.3128,4.03891 2.68156,5.19614 1.15808,1.02787 11.81495,-0.44055 13.35806,-0.37477 0.60845,0.27855 -7.04648,4.11107 -7.65491,3.83255 l -8.08695,4.49317 c -3.48896,-0.96303 -1.43503,-2.14548 -3.58651,-5.21196 -2.43354,-3.67799 -1.23336,-5.69515 -1.49393,-10.10425 -0.26925,-4.65486 0.92192,-13.703834 1.60278,-18.324944 0,-0.671983 2.03488,5.525474 2.03488,6.197456 z"
             inkscape:connector-curvature="0"
             sodipodi:nodetypes="cccccccccc" />
          <path
             style="color:#000000;fill:#a05a2c;fill-opacity:1;fill-rule:nonzero;stroke:none;stroke-width:10;marker:none;visibility:visible;display:inline;overflow:visible;enable-background:accumulate"
             id="path3100"
             d="m -390.89967,559.59944 c -5.74589,-7.75266 0.6369,-5.13698 -1.21333,-10.58589 6.33381,-5.21838 7.40642,-4.46256 4.38775,5.1e-4 1.01605,2.2054 1.6874,6.63391 1.81486,9.19071 -6.30695,0.43881 -0.7395,0.88826 -3.63596,8.63664 0,0.65706 0.65358,-3.78255 -1.35332,-7.24197 z"
             inkscape:connector-curvature="0"
             sodipodi:nodetypes="cccccc" />
          <path
             style="color:#000000;fill:#a05a2c;fill-opacity:1;fill-rule:nonzero;stroke:none;stroke-width:10;marker:none;visibility:visible;display:inline;overflow:visible;enable-background:accumulate"
             d="m -343.90679,252.70172 c -0.0264,30.73233 -9.02344,48.21077 -19.55124,76.11924 -0.90443,-21.94804 0.70527,-25.81878 3.06566,-32.56698 6.72118,-19.21524 0.86352,-19.4421 -2.54292,-38.14186 -0.33736,-3.44341 -1.80245,-63.38631 2.06023,-63.45954 1.57597,-0.15919 5.42128,45.45475 16.96827,58.04914 z"
             id="path3102"
             inkscape:connector-curvature="0"
             sodipodi:nodetypes="ccsccc" />
          <path
             style="color:#000000;fill:#a05a2c;fill-opacity:1;fill-rule:nonzero;stroke:none;stroke-width:10;marker:none;visibility:visible;display:inline;overflow:visible;enable-background:accumulate"
             d="m -124.19083,284.84864 c 4.02451,9.98044 12.39489,28.03365 13.25482,38.97311 -8.88003,-20.23962 -8.19261,-4.06753 -9.45647,-21.3493 -0.75942,-10.38454 -8.30192,-14.41339 -9.61588,-24.86039 0.64413,-3.28467 -0.38967,-15.00277 2.19139,-24.98865 1.06317,18.57563 2.91366,31.99208 3.62614,32.22523 z"
             id="path3104"
             inkscape:connector-curvature="0"
             sodipodi:nodetypes="ccsccc" />
          <path
             style="color:#000000;fill:#a05a2c;fill-opacity:1;fill-rule:nonzero;stroke:none;stroke-width:10;marker:none;visibility:visible;display:inline;overflow:visible;enable-background:accumulate"
             d="m -257.70421,850.05014 c 3.97042,39.33398 -7.45589,32.11078 -8.99564,71.26738 -6.27073,-2.03623 -7.15865,-19.1226 -1.43789,-31.68529 8.98663,-19.73437 -0.0912,-5.21986 3.44955,-26.4838 2.26323,-20.41426 1.88073,-14.90434 0.0524,-35.40064 -0.0941,-5.48978 3.14264,19.39748 6.93165,22.30235 z"
             id="path3106"
             inkscape:connector-curvature="0"
             sodipodi:nodetypes="ccsccc"
             inkscape:transform-center-x="4.1937859"
             inkscape:transform-center-y="8.296842" />
          <path
             style="color:#000000;fill:#a05a2c;fill-opacity:1;fill-rule:nonzero;stroke:none;stroke-width:10;marker:none;visibility:visible;display:inline;overflow:visible;enable-background:accumulate"
             d="m -216.59476,1088.3044 c 9.64372,-1.1323 13.33128,-3.0713 7.78502,5.4232 3.23871,7.9769 12.36579,-2.9437 18.89464,1.3566 7.04117,3.5746 2.6284,-6.1057 12.72298,-3.5888 6.74782,9.7434 7.11968,0.331 14.3198,0.09 6.06992,-3.5699 9.08943,7.0423 10.55658,-1.4539 -1.70167,-9.6179 -7.80905,-3.4131 -14.13773,-1.5928 -7.63533,0.6867 -16.11295,-6.7079 -23.76943,-2.2503 -8.0571,1.0683 -41.62009,-8.2027 -26.37186,2.0164 z"
             id="path3108"
             inkscape:connector-curvature="0"
             sodipodi:nodetypes="ccccccccc" />
          <path
             style="color:#000000;fill:#a05a2c;fill-opacity:1;fill-rule:nonzero;stroke:none;stroke-width:10;marker:none;visibility:visible;display:inline;overflow:visible;enable-background:accumulate"
             d="m -355.04474,1064.5202 c -6.61859,-2.1601 -11.75898,5.5296 -7.5052,11.0667 5.12359,-10.0095 15.90069,-3.97 19.23805,-2.0905 5.69282,2.7515 8.34606,-1.9916 13.80556,1.556 4.34214,-5.0391 9.66648,-8.956 14.41174,-2.0056 2.42526,5.3986 2.49906,-9.3054 10.73395,-13.1689 -2.59865,-7.4621 -4.24298,0.034 -8.4024,5.2012 -3.18608,1.8239 -9.05552,1.8652 -9.33296,-2.2552 -5.52387,-1.3046 -9.70483,5.6816 -14.018,1.2597 -5.54999,-5.7161 -3.30925,4.1767 -8.88816,0.1051 -5.66246,1.5321 3.10491,-6.4131 -10.04258,0.3314 z"
             id="path3110"
             inkscape:connector-curvature="0"
             sodipodi:nodetypes="cccccccccccc" />
          <path
             style="color:#000000;fill:#a05a2c;fill-opacity:1;fill-rule:nonzero;stroke:none;stroke-width:10;marker:none;visibility:visible;display:inline;overflow:visible;enable-background:accumulate"
             d="m -277.36843,1045.3108 c 3.79235,-0.8074 12.54919,-3.6637 11.00347,-9.2173 1.58806,-4.7189 4.89661,-0.664 3.57298,4.8577 -0.38689,2.841 1.07556,5.3031 -3.55716,5.1347 -8.55931,-0.3111 -3.56934,1.4705 -11.01929,-0.7751 z"
             id="path3112"
             inkscape:connector-curvature="0"
             sodipodi:nodetypes="cccsc" />
          <path
             style="color:#000000;fill:#a05a2c;fill-opacity:1;fill-rule:nonzero;stroke:none;stroke-width:10;marker:none;visibility:visible;display:inline;overflow:visible;enable-background:accumulate"
             d="m -164.24849,807.44247 c -11.84048,6.67947 -10.45482,12.68847 -21.33087,12.0385 -9.92361,-0.59305 -27.08547,-8.36625 -30.86838,-18.85122 -3.89288,-11.80272 10.18398,-0.75128 12.60697,6.66904 6.63252,7.10019 18.08293,-3.31096 26.15471,0.72198 8.55017,2.88763 13.02982,-8.85705 23.97377,-7.06243 0,0 -4.78918,3.24212 -10.5362,6.48413 z"
             id="path3114"
             inkscape:connector-curvature="0"
             sodipodi:nodetypes="ssccccs" />
          <path
             style="color:#000000;fill:#a05a2c;fill-opacity:1;fill-rule:nonzero;stroke:none;stroke-width:10;marker:none;visibility:visible;display:inline;overflow:visible;enable-background:accumulate"
             d="m -317.77299,804.92156 c 8.50631,-0.89683 12.73643,-0.74885 21.1297,-2.6996 1.78307,-4.64763 10.22987,-7.95755 13.97575,-3.36145 3.64843,5.5493 -20.06761,15.55745 -25.1686,16.42123 -8.53505,1.4556 -14.52929,-4.14672 -23.12389,-5.49127 -3.82279,-0.0473 -6.73491,-6.63654 -4.16281,-10.23689 0.62732,-1.42906 16.42257,6.6174 17.34985,5.36798 z"
             id="path3116"
             inkscape:connector-curvature="0"
             sodipodi:nodetypes="ccccccc" />
          <path
             style="color:#000000;fill:#a05a2c;fill-opacity:1;fill-rule:nonzero;stroke:none;stroke-width:10;marker:none;visibility:visible;display:inline;overflow:visible;enable-background:accumulate"
             d="m -71.785866,614.35906 c 0.0072,-3.78234 -0.484256,-6.01761 5.859614,-10.11293 4.113048,-4.5743 4.971259,-4.80722 6.360487,-10.91734 0.654879,-4.20939 1.435644,-4.15374 1.540092,-9.13099 1.966335,3.48213 0.581966,7.61681 -1.650392,13.05098 -2.59228,5.38999 -1.856036,7.2392 -7.12711,10.57582 -5.244325,3.31967 -0.39413,8.95513 -7.358798,19.01079 2.564268,-6.61997 2.370002,-9.60893 2.376107,-12.47633 z"
             id="path3118"
             inkscape:connector-curvature="0"
             sodipodi:nodetypes="sccccscs" />
          <path
             style="color:#000000;fill:#a05a2c;fill-opacity:1;fill-rule:nonzero;stroke:none;stroke-width:10;marker:none;visibility:visible;display:inline;overflow:visible;enable-background:accumulate"
             id="path3120"
             d="m -402.18237,577.60061 c -4.66996,0.98559 -10.62147,0.83937 -14.43165,-1.53082 -3.62124,-2.37332 -3.70528,2.55118 -6.8818,-0.38824 -2.39753,-2.08796 -2.69632,-5.29714 -5.34059,-7.05954 -0.52287,-0.46286 -9.86262,-1.70486 -12.1113,-3.89308 -2.58945,-2.51982 -4.09996,-6.02564 -4.09996,-6.02564 3.2351,5.61877 12.60954,8.35297 17.11661,7.89417 3.15799,-0.32148 4.03406,4.325 5.87386,5.97694 1.63179,1.02001 4.0902,-2.61289 13.11646,3.22871 4.08751,2.64533 11.63967,-1.24873 13.02621,-1.06757 0.62675,0.16341 0.50883,1.38512 -6.26784,2.86507 z"
             inkscape:connector-curvature="0"
             sodipodi:nodetypes="ccccscscscc" />
          <path
             style="color:#000000;fill:#a05a2c;fill-opacity:1;fill-rule:nonzero;stroke:none;stroke-width:10;marker:none;visibility:visible;display:inline;overflow:visible;enable-background:accumulate"
             d="m -73.291173,607.03146 c 0.474521,-2.32962 1.420293,-0.85891 6.506963,-16.02898 -0.728262,4.96146 -0.869175,10.77244 -4.976858,17.05395 -3.418524,5.22766 -0.609925,10.59849 -7.574593,20.65415 2.564267,-6.61997 5.47251,-18.87114 6.044488,-21.67912 z"
             id="path3126"
             inkscape:connector-curvature="0"
             sodipodi:nodetypes="scscs" />
        </g>
      </g>
      <g
         transform="matrix(0.66666665,0,0,0.66666665,-147.38783,369.84087)"
         id="g3328">
        <path
           sodipodi:nodetypes="cscsssssscsssszsscssssssssssszzscsssssssccssccssssssssscsssssssssssssssssssssscsccssssssssssssccssssscssc"
           inkscape:connector-curvature="0"
           id="path3130"
           d="m 770.80808,-90.47431 c 25.4584,0.332974 39.75673,15.269117 48.0093,28.356424 8.25257,13.087325 3.24599,27.416133 5.12651,43.287304 1.36216,-3.595063 4.00192,-6.430553 7.51552,-0.854444 3.51361,5.576128 0.75261,18.214224 -2.78989,25.3328798 -3.54248,7.1186562 -9.55767,7.1254052 -9.7908,19.8303482 -0.15768,8.596995 -6.46859,11.554481 -6.33448,23.629348 0.12986,11.694632 -3.82324,20.40834 5.39203,27.170107 9.21526,6.761766 34.0799,23.971953 44.78785,27.188313 32.97661,9.90529 49.82912,5.79126 71.70248,33.41162 8.7583,11.33655 15.24915,23.04952 17.97795,37.79385 2.72881,14.74433 -2.63391,27.26966 -1.62156,46.5144 1.01234,19.24475 8.01386,39.5102 9.38988,57.40246 1.37603,17.89225 -5.60829,43.45164 -4.77797,62.7599 0.83033,19.30825 9.64823,34.45681 10.20965,60.30675 0.56143,25.84997 -1.6606,44.83339 -1.26403,60.96299 0.39196,15.94297 -1.72168,25.20468 -0.0433,39.78527 1.67828,14.5806 0.5049,27.30575 3.53934,39.90981 -0.0428,3.97146 -1.57344,13.75538 -2.35361,27.09071 -0.59778,10.21796 0.61136,17.65694 -1.89584,25.88657 -2.95352,9.69474 -3.67467,9.16476 -7.77872,14.30308 -2.63001,3.29283 -4.25524,11.45717 -8.09098,15.54165 -4.10024,4.36609 -10.37808,4.55657 -11.91422,4.78178 -8.45142,1.23906 5.55872,-44.71552 4.82896,-50.41627 -0.75718,-5.91489 -0.93365,-10.63915 -13.60725,-21.64225 -6.11601,-5.30983 -13.1915,21.69465 -19.61753,28.90478 -4.271,4.79215 -6.59409,6.8337 -11.63079,5.94989 -5.80077,-1.01788 9.16786,-37.69423 14.17687,-51.25059 5.84948,-15.83104 13.01732,-27.05462 14.07211,-43.39739 1.05478,-16.34278 -7.95106,-22.90259 -11.13414,-39.01513 -3.1831,-16.11256 -5.17998,-16.2784 -9.79079,-50.81612 -4.61081,-34.53773 3.69779,-42.1791 0.46226,-65.75235 -3.23553,-23.57324 -21.50798,-58.20428 -21.17777,-88.99129 -1.50079,16.93349 -1.82988,37.13729 -4.06292,52.84399 -2.23305,15.7067 -8.85864,22.29338 -8.63144,37.68754 0.22719,15.39416 3.18614,32.80312 2.58942,50.83437 -0.39225,11.85272 18.51376,45.67419 18.98922,108.68038 0.2184,28.94151 3.32811,72.42257 1.72629,104.29809 -1.60183,31.87553 -9.2984,63.54484 -12.08405,85.01611 -2.78564,21.47127 -9.26381,68.30117 -9.4946,83.26319 -0.52188,33.83397 7.6468,43.41883 6.90517,78.41787 -0.12516,39.75199 -16.38597,84.66703 -22.4418,117.70398 -3.08001,18.04105 0.77325,22.17161 1.72628,32.77609 0.95303,10.6045 -3.73459,16.4037 -3.45257,23.9454 0.28203,7.5418 1.85824,19.2598 1.72629,28.7191 2.63255,22.2905 32.92029,37.0061 19.85234,45.3551 -16.51269,9.6674 -73.75167,7.8355 -88.04088,-0.8764 -18.70587,-11.4048 0.0894,-18.4976 3.45259,-30.6318 3.36311,-12.1343 6.52401,-20.3789 6.90518,-29.8105 0.38116,-9.4316 -4.11612,-22.7363 -3.45261,-33.0738 0.66351,-10.33747 2.73186,-17.32636 3.45259,-40.93427 0.72073,-23.60791 -8.85556,-86.12374 -8.63146,-115.2786 0.2241,-29.15484 2.77242,-46.22788 2.58946,-71.92992 -0.18296,-25.70202 -3.36546,-35.03346 -7.76833,-61.3518 -4.40288,-26.31834 -6.93626,-53.16606 -9.4946,-78.88091 -2.55835,-25.71486 -1.96908,-68.94665 -5.17888,-108.6804 -1.48348,29.50618 1.48161,85.1152 -0.86314,107.80394 -2.34475,22.68875 -1.86483,38.85174 -6.04203,60.47536 -4.1772,21.62361 -10.15093,49.41897 -9.4946,67.48701 0.65632,18.06804 5.74716,27.14304 9.49462,45.76304 3.74745,18.62001 4.19909,29.92511 2.58941,51.22024 -1.60969,21.29512 -8.29827,58.55918 -10.35773,79.21165 -2.05946,20.6525 -3.38607,40.31089 -0.86316,57.47666 2.52291,17.1658 5.70048,22.7899 6.90517,32.8952 1.2047,10.1052 4.95225,19.9604 0.86315,27.2235 -4.0891,7.2632 -11.5079,2.5395 -19.85235,6.8059 -8.34447,4.2665 0.32637,16.8165 -29.34695,20.4177 -14.648,1.7777 -48.65613,7.2015 -63.00965,-6.9437 -17.91146,-17.6516 39.55272,-42.0256 47.47302,-69.5004 7.9203,-27.47473 1.63087,-34.13546 -2.58943,-61.87584 -4.22029,-27.74038 -14.40822,-67.04378 -17.10327,-97.17073 -2.69507,-30.12696 3.18476,-59.07887 0.7035,-87.27614 -2.48126,-28.19727 -6.97628,-59.10478 -12.08405,-91.15128 -5.10776,-32.0465 -13.19408,-70.21157 -12.94719,-106.92747 0.0907,-13.48324 4.3697,-43.2215 6.29159,-69.48587 3.56194,-48.67774 26.05629,-88.0658 27.17962,-101.42589 1.46595,-17.43485 -0.35562,-43.09646 1.06724,-54.93759 1.44142,-11.99559 -5.59428,-20.86496 -6.85643,-31.28152 -3.30608,-27.28508 -0.70561,-29.9606 -4.62989,-57.68495 0.85339,37.44003 -17.68168,63.77038 -19.59954,76.42018 -2.72021,17.94182 2.46145,53.29467 -4.31575,76.25152 -6.5344,34.41124 -20.49247,54.63347 -21.91778,90.48754 -0.22054,13.37111 13.97162,35.05578 12.48452,41.99766 -2.88905,13.48645 0.98725,23.21263 -1.16919,26.71521 -1.75038,2.84304 -10.54863,4.10932 -13.77338,14.09349 -3.30877,10.24431 -6.70927,3.54327 -15.62918,4.91735 -7.12064,1.09691 -5.698,-1.86954 -13.72528,-2.94362 -8.22644,-1.10076 -6.69437,-5.26496 -12.1415,-8.15395 -4.04584,-2.14577 -18.08572,-3.56836 -18.29764,-22.47831 -0.093,-8.29903 -1.57061,-14.41879 6.15784,-29.50401 8.74712,-17.07361 14.652,-50.66983 14.13879,-79.19669 -0.41638,-23.14369 -1.61418,-64.7361 0,-94.6571 1.48145,-27.46046 8.86627,-28.17323 13.81033,-51.71082 5.15577,-24.54547 -7.23952,-24.57137 9.79081,-93.26724 8.28555,-33.42175 -4.72672,-47.52887 13.0519,-72.59535 12.72161,-20.77878 36.20513,-17.33176 66.61032,-27.47082 11.42176,-7.638549 35.89154,-15.700889 40.01888,-24.903789 4.12733,-9.202899 0.67135,-16.839026 0.86314,-27.608332 0.19029,-10.685347 -8.67246,-17.21774 -8.19987,-24.540717 0.54819,-8.49455 -5.48057,-13.235491 -7.76832,-18.8437869 -2.28775,-5.60829549 -5.12768,-23.6408281 -2.58944,-28.5910981 2.53826,-4.95027 4.6307,0.145984 6.97921,4.094414 -1.47058,-10.854145 -1.93481,-36.740166 7.15799,-48.687261 9.0928,-11.947113 25.93539,-23.220777 42.77807,-23.0005 z"
           style="fill:#502d16;stroke:none;display:inline" />
        <path
           style="fill:#999999;stroke:none;display:inline"
           d="m 684.50716,401.71215 1.42188,-14.42045 c 80.85583,25.35106 134.70645,8.40973 186.71392,-5.01484 l 1.49082,14.36705 c -70.04144,41.03398 -133.20086,44.15051 -189.62662,5.06824 z"
           id="path3132"
           inkscape:connector-curvature="0"
           sodipodi:nodetypes="ccccc" />
        <path
           style="fill:#b3b3b3;stroke:none;display:inline"
           d="m 769.39785,601.14129 c -30.3551,5.5196 -99.85751,13.98265 -115.97943,-10.55055 -0.72525,-10.86053 0.007,-26.26534 0.68726,-39.37106 1.0782,-20.75777 2.57187,-41.57504 6.08874,-62.0526 3.19265,-18.58969 8.09313,-36.87646 13.57696,-54.90643 3.21366,-10.56599 11.29788,-34.19622 11.29788,-34.19622 22.68276,11.7001 92.41975,26.4138 188.77078,-4.29793 0,0 10.49604,45.79668 13.72633,62.79102 3.93577,20.70579 6.5297,70.97004 6.89887,93.29873 0.13473,8.146 -0.92513,25.93156 -1.07771,41.11536 6.57189,24.48571 -116.16326,25.24101 -120.68057,8.29342 -0.21217,-6.92729 -3.46151,-60.15672 -3.46151,-60.15672 0,0 -0.78228,10.30617 -0.72828,22.63356 0.0601,13.74093 0.96266,29.9932 1.08249,37.28313 z"
           id="path3134"
           inkscape:connector-curvature="0"
           sodipodi:nodetypes="ccsssccsscccscc" />
        <path
           style="color:#000000;fill:#2b1100;fill-opacity:1;fill-rule:nonzero;stroke:none;stroke-width:10;marker:none;visibility:visible;display:inline;overflow:visible;enable-background:accumulate"
           d="m 840.77952,129.5643 c -4.99145,1.02881 -8.09678,-0.12893 -12.74597,2.49905 -5.60717,2.47183 -8.73029,1.7126 -14.74413,2.76796 -3.40696,0.64011 -21.35281,8.99894 -19.75743,6.37806 1.55291,-2.55111 21.36625,-10.38888 23.9116,-10.86351 10.90422,-2.34205 9.10981,-0.74655 19.91128,-3.48241 3.64888,-0.73055 13.21128,-3.08125 16.92982,-2.83748 2.4017,-1.40267 -5.23315,2.40505 -6.78297,4.75841 -0.76417,1.6788 -5.77453,-0.8171 -6.7222,0.77992 z"
           id="path3136"
           inkscape:connector-curvature="0"
           sodipodi:nodetypes="cccsccccc" />
        <path
           style="color:#000000;fill:#2b1100;fill-opacity:1;fill-rule:nonzero;stroke:none;stroke-width:10;marker:none;visibility:visible;display:inline;overflow:visible;enable-background:accumulate"
           d="m 726.56092,131.31912 c -4.21032,-1.60989 -7.32473,-0.56963 -9.71709,-1.70611 -2.56433,0.19434 -3.50687,1.22013 -5.77414,-0.3824 -2.55608,-2.69134 -7.82158,-2.68707 -11.06138,-4.71886 3.20695,-2.29866 21.77455,1.50098 23.76341,2.40007 7.41071,3.38872 13.85135,3.21521 21.70954,5.02746 3.86154,0.87291 8.77916,2.1622 12.41688,3.75685 1.85968,1.87307 -6.98331,3.51841 -7.31336,1.21588 -3.81275,-0.16964 -7.24323,-2.47341 -12.91311,-1.78897 -6.79007,-2.34493 -6.36952,-3.59373 -11.11075,-3.80392 z"
           id="path3138"
           inkscape:connector-curvature="0"
           sodipodi:nodetypes="cccccccccc" />
        <path
           style="color:#000000;fill:#2b1100;fill-opacity:1;fill-rule:nonzero;stroke:none;stroke-width:10;marker:none;visibility:visible;display:inline;overflow:visible;enable-background:accumulate"
           d="m 765.02615,251.49577 c -2.05305,5.81934 -15.85672,6.83215 -22.11433,6.781 -15.98314,-0.13058 -23.13248,1.70872 -39.09209,1.30668 -4.52334,-0.11389 -19.56132,1.12653 -27.72652,-6.88173 4.88097,6.89712 8.78235,8.06189 14.27183,9.3101 7.226,2.18487 25.72831,0.34418 33.07378,0.59692 16.45423,0.56616 23.1575,-0.84603 39.6043,-1.97098 4.43203,-1.40724 5.9015,-11.39186 5.6059,-16.68235 0.97351,-4.72268 1.28474,-16.27142 1.09824,-21.98285 -1.15698,11.74196 -0.89347,18.67383 -4.72111,29.52321 z"
           id="path3140"
           inkscape:connector-curvature="0"
           sodipodi:nodetypes="cssccscccc" />
        <path
           style="color:#000000;fill:#2b1100;fill-opacity:1;fill-rule:nonzero;stroke:none;stroke-width:10;marker:none;visibility:visible;display:inline;overflow:visible;enable-background:accumulate"
           d="m 878.62491,247.74375 c -5.65692,5.6006 -19.44997,18.37954 -23.56588,17.50261 -18.02232,-0.0328 -48.19553,-0.7652 -66.17437,-2.41005 -3.7169,-0.67212 -10.1358,-6.15778 -14.49568,-12.61632 9.41453,5.68708 12.47331,7.97002 15.45927,9.01466 15.70611,-0.86647 46.26924,1.48028 60.68462,1.72668 7.53796,1.37996 29.68851,-17.29261 40.29875,-36.7679 -0.4985,6.46257 2.25264,5.80697 -8.44655,29.29666 0.005,-9.908 0.60511,-10.06814 -3.76016,-5.74634 z"
           id="path3142"
           inkscape:connector-curvature="0"
           sodipodi:nodetypes="scccccccs" />
        <path
           style="color:#000000;fill:#2b1100;fill-opacity:1;fill-rule:nonzero;stroke:none;stroke-width:10;marker:none;visibility:visible;display:inline;overflow:visible;enable-background:accumulate"
           d="m 761.4631,310.17864 c -0.21341,7.9134 2.97398,15.02894 2.34867,22.93622 -0.24325,7.41381 -3.12427,10.72023 -6.11912,13.30093 6.59043,1.1754 6.44166,22.30533 2.7075,20.70573 -11.96846,10.46811 -35.0993,-2.63751 -29.25372,0.68598 2.10835,8.50262 9.07593,6.36057 15.04022,5.43315 5.0803,-0.56662 5.99096,3.04469 11.01451,1.31389 3.37037,-1.2436 8.39209,-2.29884 8.05996,-5.56729 -0.80334,-7.37279 3.64973,-22.86389 7.34972,-21.07213 -5.28896,-6.50391 -6.57068,-11.71805 -5.9647,-20.14571 0.0739,-3.36272 4.84491,-17.4002 4.36222,-20.73239 -1.43644,-0.66914 -2.9358,-1.66452 -4.45922,-1.77762 -3.46074,3.04104 -6.74371,0.56094 -5.08604,4.91924 z m -28.6092,63.16673 c -0.42242,-0.0407 0.20271,0.20133 0,0 z"
           id="path3144"
           inkscape:connector-curvature="0"
           sodipodi:nodetypes="ccccccccccccccc" />
        <path
           style="color:#000000;fill:#2b1100;fill-opacity:1;fill-rule:nonzero;stroke:none;stroke-width:10;marker:none;visibility:visible;display:inline;overflow:visible;enable-background:accumulate"
           d="m 752.15458,339.1088 c -5.90444,1.50981 -10.26895,5.20081 -19.71513,1.71378 -4.3956,-1.62261 -3.86816,-3.25205 -4.2544,-5.34215 3.43066,-1.24592 4.7214,2.89737 8.29632,2.4026 4.58511,-0.3395 5.67306,-1.69106 10.15203,-0.72898 1.55618,0.0684 6.17527,-0.37293 8.41938,-3.3876 1.2964,-7.78877 5.14651,0.13589 -2.8982,5.34235 z"
           id="path3146"
           inkscape:connector-curvature="0"
           sodipodi:nodetypes="csccccc" />
        <path
           style="color:#000000;fill:#2b1100;fill-opacity:1;fill-rule:nonzero;stroke:none;stroke-width:10;marker:none;visibility:visible;display:inline;overflow:visible;enable-background:accumulate"
           id="path3148"
           d="m 772.99494,330.59318 c 6.84411,0.4321 10.15846,7.26313 17.0148,7.60735 3.39779,0.005 11.5619,-1.14817 14.95673,-1.03703 0.59852,-0.25709 11.84175,-3.00922 11.24324,-2.75214 l -8.30126,5.51144 c -5.4933,2.081 -18.60431,3.23743 -24.44351,3.07494 -7.43117,-0.37653 -5.13806,-4.40249 -7.75485,-8.76565 -0.56946,-0.33231 -3.28461,-3.97123 -2.71515,-3.63891 z"
           inkscape:connector-curvature="0"
           sodipodi:nodetypes="cccccccc" />
        <path
           style="color:#000000;fill:#2b1100;fill-opacity:1;fill-rule:nonzero;stroke:none;stroke-width:10;marker:none;visibility:visible;display:inline;overflow:visible;enable-background:accumulate"
           d="m 796.99722,371.03408 c 2.60414,0.57777 24.23922,-10.50753 24.7638,-8.12061 0.30269,1.6178 -13.5503,8.57301 -14.21932,10.12456 -14.49949,1.96737 -10.66872,4.26103 -24.90373,1.30448 -1.57181,-1.03632 -5.0236,-2.534 -6.24009,-5.27459 -1.21649,-2.74058 -2.72801,-11.70677 0.28613,-9.78791 2.7996,12.10157 15.44622,12.03953 20.31321,11.75407 z"
           id="path3150"
           inkscape:connector-curvature="0"
           sodipodi:nodetypes="cccczcc" />
        <path
           style="color:#000000;fill:#2b1100;fill-opacity:1;fill-rule:nonzero;stroke:none;stroke-width:10;marker:none;visibility:visible;display:inline;overflow:visible;enable-background:accumulate"
           id="path3152"
           d="m 745.56627,307.45315 c 0.41227,5.04971 -13.10154,18.76274 -19.52137,19.96208 -4.31925,0.80684 -10.86868,2.94188 -7.96703,-0.9685 l 0.59884,-3.95714 c 6.31074,8.01304 14.72428,-8.11325 18.78301,-9.87869 2.80131,-1.21854 4.54321,-0.63421 8.10655,-5.15775 z"
           inkscape:connector-curvature="0"
           sodipodi:nodetypes="csccsc" />
        <path
           style="color:#000000;fill:#2b1100;fill-opacity:1;fill-rule:nonzero;stroke:none;stroke-width:10;marker:none;visibility:visible;display:inline;overflow:visible;enable-background:accumulate"
           id="path3154"
           d="m 719.21251,335.56978 c 1.08193,6.12595 0.7802,12.27927 0.37228,13.02851 -0.82795,1.52067 -2.82558,9.81827 -3.70155,11.1145 -2.49872,3.69749 -1.35532,4.81215 -4.31773,8.13087 -0.42057,0.68722 -5.36201,3.56341 -4.94144,2.87621 l 5.10845,-9.72606 c 4.15332,-6.33379 -0.47425,-12.26859 5.40406,-14.46192 0.44607,-4.97279 -0.0322,-8.15407 2.07593,-10.96211 z"
           inkscape:connector-curvature="0"
           sodipodi:nodetypes="cssccccc" />
        <path
           style="color:#000000;fill:#2b1100;fill-opacity:1;fill-rule:nonzero;stroke:none;stroke-width:10;marker:none;visibility:visible;display:inline;overflow:visible;enable-background:accumulate"
           d="m 735.39568,45.063166 c 5.83008,10.883379 8.04942,16.103846 13.35114,19.35163 5.6748,3.476313 9.65369,12.602938 18.56952,16.784576 6.89829,3.523538 19.31358,0.295103 23.63184,-3.667431 3.49806,-3.209912 9.74563,-8.924413 12.91863,-14.824547 3.32965,-6.191385 3.55155,-12.602865 5.77623,-17.222764 1.02224,-2.452834 -8.85461,7.416711 -9.53073,9.595 -2.0669,2.241598 -3.71924,7.597082 -6.65941,8.773368 -10.72695,7.491207 -27.50818,8.91693 -37.9839,0.6751 -8.3803,-6.918882 -12.74207,-11.535371 -20.07332,-19.464932 z"
           id="path3156"
           inkscape:connector-curvature="0"
           sodipodi:nodetypes="cscssccccc" />
        <path
           style="color:#000000;fill:#2b1100;fill-opacity:1;fill-rule:nonzero;stroke:none;stroke-width:10;marker:none;visibility:visible;display:inline;overflow:visible;enable-background:accumulate"
           d="m 811.20103,21.788874 c -0.55493,1.009743 -4.26995,4.9559 -9.83654,6.171139 6.42553,1.310898 7.16837,-2.006851 7.18155,8.55551 1.53332,6.122649 3.55667,1.848232 6.24946,-4.284284 0.86418,-1.968026 1.28231,-5.056401 1.72497,-7.268692 0.64845,-5.332779 0.85702,-5.558742 1.61373,-7.755059 0.776,-2.591042 -0.13907,-2.617818 1.197,-4.99931 -3.75749,2.586658 -6.22398,4.175952 -6.757,6.636892 z"
           id="path3158"
           inkscape:connector-curvature="0"
           sodipodi:nodetypes="cccsccccc" />
        <path
           style="color:#000000;fill:#2b1100;fill-opacity:1;fill-rule:nonzero;stroke:none;stroke-width:10;marker:none;visibility:visible;display:inline;overflow:visible;enable-background:accumulate"
           d="m 809.98205,-18.033799 c -3.72909,0.568731 -11.04832,-0.04035 -14.44723,2.001973 -3.13104,2.064253 -12.42849,3.472609 -16.14502,2.619321 -3.62417,0.299412 -3.32562,3.9716849 -3.4676,7.4616982 -1.06047,6.30213873 3.22182,9.9522019 1.79449,16.2341308 -0.5139,1.970208 4.20552,7.329213 5.33179,5.351834 1.23922,-1.811699 -2.2481,-5.428311 -2.09769,-7.4720057 -0.17537,-4.9286838 -2.23304,-7.5712411 -1.77599,-12.5244084 0.34277,-1.9650546 4.9006,-6.2028659 7.04428,-6.0832919 2.776,-0.06841 5.7983,0.7234067 8.32012,-0.864732 2.77239,-1.241666 4.53021,-3.209527 6.37908,-4.14184 3.34544,-1.189839 7.96195,0.354725 9.06377,-2.582679 z"
           id="path3160"
           inkscape:connector-curvature="0"
           sodipodi:nodetypes="cccccccccccc" />
        <path
           style="color:#000000;fill:#2b1100;fill-opacity:1;fill-rule:nonzero;stroke:none;stroke-width:10;marker:none;visibility:visible;display:inline;overflow:visible;enable-background:accumulate"
           d="m 731.75323,-16.008608 c 3.74148,0.40945 14.7532,2.100529 18.54105,2.029426 2.25797,-0.07372 5.41777,0.09078 7.62641,0.735676 1.313,0.342456 4.39065,1.993775 5.13486,3.3654691 0.29212,1.5099751 -6.60211,-2.1881741 -7.65769,-1.8081591 -2.12396,-0.474593 -6.26662,-0.02953 -8.44572,0.192438 -4.53225,0.463864 -7.96824,1.412408 -12.19538,-0.412312 0.17682,-1.070374 -6.44243,-3.688081 -3.00353,-4.102538 z"
           id="path3162"
           inkscape:connector-curvature="0"
           sodipodi:nodetypes="cccccccc" />
        <path
           style="color:#000000;fill:#2b1100;fill-opacity:1;fill-rule:nonzero;stroke:none;stroke-width:10;marker:none;visibility:visible;display:inline;overflow:visible;enable-background:accumulate"
           d="m 824.97688,-15.290667 c -1.18734,1.380589 -0.99923,2.642631 -1.39455,4.339835 -0.39166,1.6521441 -0.55119,2.4389875 -1.6979,3.6792784 -0.6506,0.9858835 -1.09107,5.3580696 0.0558,5.8660407 0.88065,0.2635588 1.67815,-4.586173 2.14825,-5.3204734 2.15208,-2.3441165 2.00307,-3.0077543 2.31163,-6.1488377 1.11966,-2.264431 1.98255,-3.793112 2.58585,-5.863051 -2.26776,-1.825234 -3.17145,1.664229 -4.00903,3.447208 z"
           id="path3164"
           inkscape:connector-curvature="0"
           sodipodi:nodetypes="cccccccc" />
        <path
           style="color:#000000;fill:#2b1100;fill-opacity:1;fill-rule:nonzero;stroke:none;stroke-width:10;marker:none;visibility:visible;display:inline;overflow:visible;enable-background:accumulate"
           id="path3166"
           d="m 793.29636,94.942852 c 0.68087,4.62111 1.4143,9.641748 1.14502,14.296608 0.13113,1.64363 1.3128,4.03891 2.68156,5.19614 1.15808,1.02787 11.81495,-0.44055 13.35806,-0.37477 0.60845,0.27855 -7.04648,4.11107 -7.65491,3.83255 l -8.08695,4.49317 c -3.48896,-0.96303 -1.43503,-2.14548 -3.58651,-5.21196 -2.43354,-3.67799 -1.23336,-5.69515 -1.49393,-10.10425 -0.26925,-4.65486 0.92192,-13.703834 1.60278,-18.324944 0,-0.671983 2.03488,5.525474 2.03488,6.197456 z"
           inkscape:connector-curvature="0"
           sodipodi:nodetypes="cccccccccc" />
        <path
           style="color:#000000;fill:#2b1100;fill-opacity:1;fill-rule:nonzero;stroke:none;stroke-width:10;marker:none;visibility:visible;display:inline;overflow:visible;enable-background:accumulate"
           id="path3168"
           d="m 629.10033,559.59944 c -5.74589,-7.75266 0.6369,-5.13698 -1.21333,-10.58589 6.33381,-5.21838 7.40642,-4.46256 4.38775,5.1e-4 1.01605,2.2054 1.6874,6.63391 1.81486,9.19071 -6.30695,0.43881 -0.7395,0.88826 -3.63596,8.63664 0,0.65706 0.65358,-3.78255 -1.35332,-7.24197 z"
           inkscape:connector-curvature="0"
           sodipodi:nodetypes="cccccc" />
        <path
           style="color:#000000;fill:#2b1100;fill-opacity:1;fill-rule:nonzero;stroke:none;stroke-width:10;marker:none;visibility:visible;display:inline;overflow:visible;enable-background:accumulate"
           d="m 676.09321,252.70172 c -0.0264,30.73233 -9.02344,48.21077 -19.55124,76.11924 -0.90443,-21.94804 0.70527,-25.81878 3.06566,-32.56698 6.72118,-19.21524 0.86352,-19.4421 -2.54292,-38.14186 -0.33736,-3.44341 -1.80245,-63.38631 2.06023,-63.45954 1.57597,-0.15919 5.42128,45.45475 16.96827,58.04914 z"
           id="path3170"
           inkscape:connector-curvature="0"
           sodipodi:nodetypes="ccsccc" />
        <path
           style="color:#000000;fill:#2b1100;fill-opacity:1;fill-rule:nonzero;stroke:none;stroke-width:10;marker:none;visibility:visible;display:inline;overflow:visible;enable-background:accumulate"
           d="m 895.80917,284.84864 c 4.02451,9.98044 12.39489,28.03365 13.25482,38.97311 -8.88003,-20.23962 -8.19261,-4.06753 -9.45647,-21.3493 -0.75942,-10.38454 -8.30192,-14.41339 -9.61588,-24.86039 0.64413,-3.28467 -0.38967,-15.00277 2.19139,-24.98865 1.06317,18.57563 2.91366,31.99208 3.62614,32.22523 z"
           id="path3172"
           inkscape:connector-curvature="0"
           sodipodi:nodetypes="ccsccc" />
        <path
           style="color:#000000;fill:#2b1100;fill-opacity:1;fill-rule:nonzero;stroke:none;stroke-width:10;marker:none;visibility:visible;display:inline;overflow:visible;enable-background:accumulate"
           d="m 762.29579,850.05014 c 3.97042,39.33398 -7.45589,32.11078 -8.99564,71.26738 -6.27073,-2.03623 -7.15865,-19.1226 -1.43789,-31.68529 8.98663,-19.73437 -0.0912,-5.21986 3.44955,-26.4838 2.26323,-20.41426 1.88073,-14.90434 0.0524,-35.40064 -0.0941,-5.48978 3.14264,19.39748 6.93165,22.30235 z"
           id="path3174"
           inkscape:connector-curvature="0"
           sodipodi:nodetypes="ccsccc"
           inkscape:transform-center-x="4.1937859"
           inkscape:transform-center-y="8.296842" />
        <path
           style="color:#000000;fill:#2b1100;fill-opacity:1;fill-rule:nonzero;stroke:none;stroke-width:10;marker:none;visibility:visible;display:inline;overflow:visible;enable-background:accumulate"
           d="m 803.40524,1088.3044 c 9.64372,-1.1323 13.33128,-3.0713 7.78502,5.4232 3.23871,7.9769 12.36579,-2.9437 18.89464,1.3566 7.04117,3.5746 2.6284,-6.1057 12.72298,-3.5888 6.74782,9.7434 7.11968,0.331 14.3198,0.09 6.06992,-3.5699 9.08943,7.0423 10.55658,-1.4539 -1.70167,-9.6179 -7.80905,-3.4131 -14.13773,-1.5928 -7.63533,0.6867 -16.11295,-6.7079 -23.76943,-2.2503 -8.0571,1.0683 -41.62009,-8.2027 -26.37186,2.0164 z"
           id="path3176"
           inkscape:connector-curvature="0"
           sodipodi:nodetypes="ccccccccc" />
        <path
           style="color:#000000;fill:#2b1100;fill-opacity:1;fill-rule:nonzero;stroke:none;stroke-width:10;marker:none;visibility:visible;display:inline;overflow:visible;enable-background:accumulate"
           d="m 664.95526,1064.5202 c -6.61859,-2.1601 -11.75898,5.5296 -7.5052,11.0667 5.12359,-10.0095 15.90069,-3.97 19.23805,-2.0905 5.69282,2.7515 8.34606,-1.9916 13.80556,1.556 4.34214,-5.0391 9.66648,-8.956 14.41174,-2.0056 2.42526,5.3986 2.49906,-9.3054 10.73395,-13.1689 -2.59865,-7.4621 -4.24298,0.034 -8.4024,5.2012 -3.18608,1.8239 -9.05552,1.8652 -9.33296,-2.2552 -5.52387,-1.3046 -9.70483,5.6816 -14.018,1.2597 -5.54999,-5.7161 -3.30925,4.1767 -8.88816,0.1051 -5.66246,1.5321 3.10491,-6.4131 -10.04258,0.3314 z"
           id="path3178"
           inkscape:connector-curvature="0"
           sodipodi:nodetypes="cccccccccccc" />
        <path
           style="color:#000000;fill:#2b1100;fill-opacity:1;fill-rule:nonzero;stroke:none;stroke-width:10;marker:none;visibility:visible;display:inline;overflow:visible;enable-background:accumulate"
           d="m 742.63157,1045.3108 c 3.79235,-0.8074 12.54919,-3.6637 11.00347,-9.2173 1.58806,-4.7189 4.89661,-0.664 3.57298,4.8577 -0.38689,2.841 1.07556,5.3031 -3.55716,5.1347 -8.55931,-0.3111 -3.56934,1.4705 -11.01929,-0.7751 z"
           id="path3180"
           inkscape:connector-curvature="0"
           sodipodi:nodetypes="cccsc" />
        <path
           style="color:#000000;fill:#2b1100;fill-opacity:1;fill-rule:nonzero;stroke:none;stroke-width:10;marker:none;visibility:visible;display:inline;overflow:visible;enable-background:accumulate"
           d="m 855.75151,807.44247 c -11.84048,6.67947 -10.45482,12.68847 -21.33087,12.0385 -9.92361,-0.59305 -27.08547,-8.36625 -30.86838,-18.85122 -3.89288,-11.80272 10.18398,-0.75128 12.60697,6.66904 6.63252,7.10019 18.08293,-3.31096 26.15471,0.72198 8.55017,2.88763 13.02982,-8.85705 23.97377,-7.06243 0,0 -4.78918,3.24212 -10.5362,6.48413 z"
           id="path3182"
           inkscape:connector-curvature="0"
           sodipodi:nodetypes="ssccccs" />
        <path
           style="color:#000000;fill:#2b1100;fill-opacity:1;fill-rule:nonzero;stroke:none;stroke-width:10;marker:none;visibility:visible;display:inline;overflow:visible;enable-background:accumulate"
           d="m 702.22701,804.92156 c 8.50631,-0.89683 12.73643,-0.74885 21.1297,-2.6996 1.78307,-4.64763 10.22987,-7.95755 13.97575,-3.36145 3.64843,5.5493 -20.06761,15.55745 -25.1686,16.42123 -8.53505,1.4556 -14.52929,-4.14672 -23.12389,-5.49127 -3.82279,-0.0473 -6.73491,-6.63654 -4.16281,-10.23689 0.62732,-1.42906 16.42257,6.6174 17.34985,5.36798 z"
           id="path3184"
           inkscape:connector-curvature="0"
           sodipodi:nodetypes="ccccccc" />
        <path
           style="color:#000000;fill:#2b1100;fill-opacity:1;fill-rule:nonzero;stroke:none;stroke-width:10;marker:none;visibility:visible;display:inline;overflow:visible;enable-background:accumulate"
           d="m 948.21413,614.35906 c 0.007,-3.78234 -0.48425,-6.01761 5.85962,-10.11293 4.11305,-4.5743 4.97126,-4.80722 6.36048,-10.91734 0.65488,-4.20939 1.43565,-4.15374 1.5401,-9.13099 1.96633,3.48213 0.58196,7.61681 -1.65039,13.05098 -2.59229,5.38999 -1.85604,7.2392 -7.12711,10.57582 -5.24433,3.31967 -0.39414,8.95513 -7.3588,19.01079 2.56426,-6.61997 2.37,-9.60893 2.3761,-12.47633 z"
           id="path3186"
           inkscape:connector-curvature="0"
           sodipodi:nodetypes="sccccscs" />
        <path
           style="color:#000000;fill:#2b1100;fill-opacity:1;fill-rule:nonzero;stroke:none;stroke-width:10;marker:none;visibility:visible;display:inline;overflow:visible;enable-background:accumulate"
           id="path3188"
           d="m 617.81763,577.60061 c -4.66996,0.98559 -10.62147,0.83937 -14.43165,-1.53082 -3.62124,-2.37332 -3.70528,2.55118 -6.8818,-0.38824 -2.39753,-2.08796 -2.69632,-5.29714 -5.34059,-7.05954 -0.52287,-0.46286 -9.86262,-1.70486 -12.1113,-3.89308 -2.58945,-2.51982 -4.09996,-6.02564 -4.09996,-6.02564 3.2351,5.61877 12.60954,8.35297 17.11661,7.89417 3.15799,-0.32148 4.03406,4.325 5.87386,5.97694 1.63179,1.02001 4.0902,-2.61289 13.11646,3.22871 4.08751,2.64533 11.63967,-1.24873 13.02621,-1.06757 0.62675,0.16341 0.50883,1.38512 -6.26784,2.86507 z"
           inkscape:connector-curvature="0"
           sodipodi:nodetypes="ccccscscscc" />
        <path
           style="color:#000000;fill:#4d4d4d;fill-opacity:1;fill-rule:nonzero;stroke:none;stroke-width:10;marker:none;visibility:visible;display:inline;overflow:visible;enable-background:accumulate"
           id="path3190"
           d="m 806.92897,501.11786 c -2.08463,8.99634 -11.24671,28.79322 -37.68352,39.99045 33.10173,-5.07918 34.26736,-22.83713 37.22359,-26.99717 5.75062,-8.09236 11.45466,-16.55003 11.66505,-21.65329 1.73737,-42.1397 -2.91252,-36.90507 -11.20512,8.66001 z"
           inkscape:connector-curvature="0"
           sodipodi:nodetypes="ccssc" />
        <path
           style="color:#000000;fill:#4d4d4d;fill-opacity:1;fill-rule:nonzero;stroke:none;stroke-width:10;marker:none;visibility:visible;display:inline;overflow:visible;enable-background:accumulate"
           d="m 761.23743,546.62215 c 1.53117,5.75889 3.51318,7.94715 8.24829,22.44883 -0.0421,-4.4598 -0.33981,-8.85302 -0.34035,-13.30342 l 0.11288,-14.67171 c -11.84314,1.33981 -20.40891,-5.97824 -27.71886,-9.22666 0,0 5.17996,8.80052 19.69804,14.75296 z"
           id="path3192"
           inkscape:connector-curvature="0"
           sodipodi:nodetypes="cccccc" />
        <path
           style="color:#000000;fill:#2b1100;fill-opacity:1;fill-rule:nonzero;stroke:none;stroke-width:10;marker:none;visibility:visible;display:inline;overflow:visible;enable-background:accumulate"
           d="m 946.70883,607.03146 c 0.47452,-2.32962 1.42029,-0.85891 6.50696,-16.02898 -0.72826,4.96146 -0.86918,10.77244 -4.97686,17.05395 -3.41852,5.22766 -0.60992,10.59849 -7.57459,20.65415 2.56427,-6.61997 5.47251,-18.87114 6.04449,-21.67912 z"
           id="path3194"
           inkscape:connector-curvature="0"
           sodipodi:nodetypes="scscs" />
      </g>
    </g>
  </g>
</svg>
