<?xml version="1.0" encoding="UTF-8" standalone="no"?>
<!-- Created with Inkscape (http://www.inkscape.org/) -->
<svg
   xmlns:dc="http://purl.org/dc/elements/1.1/"
   xmlns:cc="http://creativecommons.org/ns#"
   xmlns:rdf="http://www.w3.org/1999/02/22-rdf-syntax-ns#"
   xmlns:svg="http://www.w3.org/2000/svg"
   xmlns="http://www.w3.org/2000/svg"
   xmlns:sodipodi="http://sodipodi.sourceforge.net/DTD/sodipodi-0.dtd"
   xmlns:inkscape="http://www.inkscape.org/namespaces/inkscape"
   width="284.47598"
   height="926.01123"
   id="svg3610"
   sodipodi:version="0.32"
   inkscape:version="0.46"
   version="1.0"
   sodipodi:docname="rejon_Person_Outline_3.svg"
   inkscape:output_extension="org.inkscape.output.svg.inkscape">
  <title
     id="title3635">Person Outline</title>
  <defs
     id="defs3612">
    <inkscape:perspective
       sodipodi:type="inkscape:persp3d"
       inkscape:vp_x="0 : 526.18109 : 1"
       inkscape:vp_y="0 : 1000 : 0"
       inkscape:vp_z="744.09448 : 526.18109 : 1"
       inkscape:persp3d-origin="372.04724 : 350.78739 : 1"
       id="perspective3618" />
    <inkscape:perspective
       id="perspective3602"
       inkscape:persp3d-origin="0.5 : 0.33333333 : 1"
       inkscape:vp_z="1 : 0.5 : 1"
       inkscape:vp_y="0 : 1000 : 0"
       inkscape:vp_x="0 : 0.5 : 1"
       sodipodi:type="inkscape:persp3d" />
  </defs>
  <sodipodi:namedview
     id="base"
     pagecolor="#ffffff"
     bordercolor="#666666"
     borderopacity="1.0"
     inkscape:pageopacity="0.0"
     inkscape:pageshadow="2"
     inkscape:zoom="0.35"
     inkscape:cx="743.57143"
     inkscape:cy="508.57143"
     inkscape:document-units="px"
     inkscape:current-layer="layer1"
     showgrid="false"
     showguides="true"
     inkscape:guide-bbox="true"
     inkscape:window-width="778"
     inkscape:window-height="716"
     inkscape:window-x="132"
     inkscape:window-y="50" />
  <metadata
     id="metadata3615">
    <rdf:RDF>
      <cc:Work
         rdf:about="">
        <dc:format>image/svg+xml</dc:format>
        <dc:type
           rdf:resource="http://purl.org/dc/dcmitype/StillImage" />
        <dc:title>Person Outline</dc:title>
        <dc:contributor>
          <cc:Agent>
            <dc:title>Fabricatorz, Lu Fang, Jon Phillips</dc:title>
          </cc:Agent>
        </dc:contributor>
        <cc:license
           rdf:resource="http://creativecommons.org/licenses/publicdomain/" />
      </cc:Work>
      <cc:License
         rdf:about="http://creativecommons.org/licenses/publicdomain/">
        <cc:permits
           rdf:resource="http://creativecommons.org/ns#Reproduction" />
        <cc:permits
           rdf:resource="http://creativecommons.org/ns#Distribution" />
        <cc:permits
           rdf:resource="http://creativecommons.org/ns#DerivativeWorks" />
      </cc:License>
    </rdf:RDF>
  </metadata>
  <g
     inkscape:label="Layer 1"
     inkscape:groupmode="layer"
     id="layer1"
     transform="translate(-271.64725,-41.007513)">
    <path
       d="M 363.7044,144.14656 C 363.7044,144.14656 360.5649,147.28111 357.4254,144.77107 C 354.2958,142.2615 347.3919,126.57898 347.3919,126.57898 C 347.3919,126.57898 347.3919,117.79519 347.3919,117.79519 C 347.3919,117.79519 346.7674,113.40089 346.7674,113.40089 C 346.7674,113.40089 342.3782,109.01162 342.3782,109.01162 C 342.3782,109.01162 335.4742,101.47773 340.4883,87.049965 C 345.5075,72.622172 353.6714,56.93449 359.9454,52.545238 C 366.2145,48.150938 377.5077,44.391551 377.5077,44.391551 C 377.5077,44.391551 384.4116,42.506821 384.4116,42.506821 C 384.4116,42.506821 393.1954,41.87671 393.1954,41.87671 C 393.1954,41.87671 394.4451,38.737251 406.9982,44.391427 C 419.5462,50.030496 424.5655,55.059746 433.974,64.463226 C 443.3876,73.871854 445.8972,75.131743 446.522,82.03059 C 447.1566,88.929535 446.522,97.093418 446.522,97.093418 C 446.522,97.093418 445.2622,102.11256 447.7819,107.12668 C 450.2864,112.15098 453.426,110.8912 449.0316,117.79508 C 444.6373,124.69404 440.253,129.71329 440.253,129.71329 C 440.253,129.71329 435.2287,134.72751 435.2287,134.72751 C 435.2287,134.72751 432.7192,131.59297 432.7192,136.61717 C 432.7192,141.6314 430.2145,148.54042 430.2145,148.54042 C 430.2145,148.54042 432.7192,174.88631 432.7192,174.88631 C 432.7192,174.88631 434.6038,176.77117 441.5079,178.0259 C 448.4069,179.28074 458.4453,185.55472 468.4837,185.55472 C 478.5172,185.55472 480.4069,185.55472 480.4069,185.55472 C 480.4069,185.55472 483.5414,189.31411 475.3826,191.82872 C 467.229,194.33842 465.974,194.33842 470.9882,197.47294 C 476.0125,200.61252 485.421,203.74692 485.421,203.74692 C 485.421,203.74692 498.5991,205.63177 506.128,211.90576 C 513.6568,218.17977 529.3444,247.03532 529.3444,250.8048 C 529.3444,254.56418 538.123,258.95859 535.6185,263.35291 C 533.1039,267.74216 532.4789,270.25184 532.4789,270.25184 C 532.4789,270.25184 533.1045,275.27604 536.8732,280.92027 C 540.6378,286.56425 546.9117,305.38634 548.7914,311.03561 C 550.6711,316.67973 550.0463,319.81919 553.1857,328.59792 C 556.3202,337.3815 556.9452,347.42508 555.0655,349.93465 C 553.1857,352.43928 554.4354,358.71822 551.296,366.24717 C 548.1614,373.77094 550.6715,377.5404 545.6519,381.30483 C 540.6378,385.0642 529.9693,388.83367 529.9693,388.83367 C 529.9693,388.83367 525.575,389.45929 525.575,389.45929 C 525.575,389.45929 526.2051,402.63236 528.0845,410.79098 C 529.9693,418.94476 528.0845,432.1279 534.3586,449.69011 C 540.6378,467.25747 545.6519,499.8824 545.6519,499.8824 C 545.6519,499.8824 541.8875,509.29091 536.2383,514.94006 C 530.5942,520.58932 503.6184,528.74301 503.6184,528.74301 C 503.6184,528.74301 508.0077,622.22369 504.8731,635.40169 C 501.7337,648.57473 499.8539,656.7385 496.7144,658.6182 C 493.5749,660.49789 499.2239,693.12282 497.3445,700.65164 C 495.4648,708.18059 493.5749,728.88236 493.5749,728.88236 C 493.5749,728.88236 495.4648,742.69037 495.4648,742.69037 C 495.4648,742.69037 501.1088,748.96436 501.1088,748.96436 C 501.1088,748.96436 502.3587,762.13237 502.3587,762.13237 C 502.3587,762.13237 501.1088,798.52674 496.7145,811.0697 C 492.3253,823.62285 494.205,827.38737 494.205,833.03653 C 494.205,838.68062 486.676,863.15187 486.676,863.15187 C 486.676,863.15187 491.0704,898.28143 491.0704,898.28143 C 491.0704,898.28143 496.7145,905.18543 496.7145,905.18543 C 496.7145,905.18543 514.2819,917.73353 520.5609,922.12795 C 526.8299,926.5172 545.0271,939.06531 545.0271,939.06531 C 545.0271,939.06531 552.551,945.33929 551.9312,949.72857 C 551.2965,954.12287 546.9118,960.39204 546.9118,960.39204 C 546.9118,960.39204 531.8491,971.68519 509.2627,964.78635 C 486.676,957.88741 451.5415,939.06531 451.5415,939.06531 C 451.5415,939.06531 430.8396,928.40194 430.8396,928.40194 C 430.8396,928.40194 426.4453,922.75267 426.4453,922.75267 C 426.4453,922.75267 425.8197,917.73353 425.8197,917.73353 C 425.8197,917.73353 428.9541,913.96911 428.9541,913.96911 C 428.9541,913.96911 432.0937,911.45954 432.0937,911.45954 C 432.0937,911.45954 432.0937,905.81532 432.0937,905.81532 C 432.0937,905.81532 425.1947,897.65659 423.9349,892.00745 C 422.6851,886.36826 422.0551,793.50749 423.3104,780.33454 C 424.5653,767.15656 425.1952,757.11814 426.4449,753.34858 C 427.6998,749.59425 428.9545,746.44961 428.9545,746.44961 C 428.9545,746.44961 427.0698,738.30099 427.0698,738.30099 C 427.0698,738.30099 427.0698,730.7671 427.0698,730.7671 C 427.0698,730.7671 432.7191,715.07943 432.7191,715.07943 C 432.7191,715.07943 419.546,664.26219 419.546,652.96906 C 419.546,641.67074 417.0364,602.77675 417.0364,602.77675 C 417.0364,602.77675 409.5026,577.0556 409.5026,577.0556 C 409.5026,577.0556 406.998,568.89689 406.998,568.89689 C 406.998,568.89689 402.6037,575.16583 398.8443,579.56517 C 395.0798,583.94951 397.5845,588.34394 391.9403,600.89202 C 386.2912,613.44507 373.7431,649.83452 373.7431,649.83452 C 373.7431,649.83452 363.7046,689.36343 363.7046,689.36343 C 363.7046,689.36343 354.921,778.45485 354.921,778.45485 C 354.921,778.45485 339.2333,898.28143 339.2333,898.28143 C 339.2333,898.28143 339.2333,909.57481 339.2333,913.33911 C 339.2333,917.10364 329.8248,930.90648 329.1948,935.30078 C 328.5748,939.69509 333.5893,942.83466 327.3152,949.72857 C 321.0412,956.63257 319.1616,966.67096 312.2575,966.04613 C 305.3585,965.41603 278.3777,964.78635 273.9883,958.51225 C 269.599,952.2332 272.7285,917.73353 272.7285,917.73353 C 272.7285,917.73353 277.1279,911.45954 277.1279,911.45954 C 277.1279,911.45954 277.1279,873.81524 277.1279,873.81524 C 277.1279,873.81524 301.5942,687.47376 301.5942,687.47376 C 301.5942,687.47376 299.7145,663.00746 299.7145,663.00746 C 299.7145,663.00746 297.1999,620.96885 297.1999,620.96885 C 297.1999,620.96885 302.2241,536.27185 302.2241,536.27185 C 302.2241,536.27185 304.7287,523.09386 304.7287,523.09386 C 304.7287,523.09386 300.3393,516.82479 300.3393,516.82479 C 300.3393,516.82479 288.4161,513.68533 288.4161,513.68533 C 288.4161,513.68533 292.8105,485.45461 292.8105,485.45461 C 292.8105,485.45461 312.2575,391.33899 312.2575,391.33899 C 312.2575,391.33899 304.1038,379.42582 304.1038,379.42582 C 304.1038,379.42582 294.0654,312.91609 294.0654,312.91609 C 294.0654,312.91609 304.1038,228.21897 304.1038,228.21897 C 304.1038,228.21897 319.7913,213.78624 326.0654,210.64666 C 332.3394,207.50709 346.1373,198.09857 346.1373,198.09857 C 346.1373,198.09857 353.0413,189.94488 353.0413,189.94488 C 353.0413,189.94488 364.3346,179.90637 368.099,178.02667 C 371.8584,176.14699 372.4934,174.88709 372.4934,174.88709 C 372.4934,174.88709 369.9787,162.339 369.3538,157.31975 C 368.7282,152.30059 363.7046,144.14691 363.7046,144.14691 L 363.7044,144.14656 z"
       style="fill:#2e3436;fill-opacity:1;fill-rule:evenodd;stroke:none"
       id="path3449" />
  </g>
</svg>
