<?xml version="1.0" encoding="UTF-8" standalone="no"?>
<!-- Created with Inkscape (http://www.inkscape.org/) -->

<svg
     xmlns:dc="http://purl.org/dc/elements/1.1/"
     xmlns:cc="http://creativecommons.org/ns#"
     xmlns:rdf="http://www.w3.org/1999/02/22-rdf-syntax-ns#"
     xmlns:svg="http://www.w3.org/2000/svg"
     xmlns="http://www.w3.org/2000/svg"
     xmlns:sodipodi="http://sodipodi.sourceforge.net/DTD/sodipodi-0.dtd"
     xmlns:inkscape="http://www.inkscape.org/namespaces/inkscape"
     width="210mm"
     height="297mm"
     id="svg2"
     version="1.1"
     inkscape:version="0.48.1 r9760"
     sodipodi:docname="Neues Dokument 1">
    <defs
         id="defs4" />
    <sodipodi:namedview
         id="base"
         pagecolor="#ffffff"
         bordercolor="#666666"
         borderopacity="1.0"
         inkscape:pageopacity="0.0"
         inkscape:pageshadow="2"
         inkscape:zoom="0.49497475"
         inkscape:cx="-288.98324"
         inkscape:cy="165.02586"
         inkscape:document-units="px"
         inkscape:current-layer="layer1"
         showgrid="false"
         inkscape:window-width="1835"
         inkscape:window-height="1060"
         inkscape:window-x="83"
         inkscape:window-y="-3"
         inkscape:window-maximized="1" />
    <metadata
         id="metadata7">
        <rdf:RDF>
            <cc:Work
                 rdf:about="">
                <dc:format>image/svg+xml</dc:format>
                <dc:type
                     rdf:resource="http://purl.org/dc/dcmitype/StillImage" />
                <dc:title></dc:title>
            </cc:Work>
        </rdf:RDF>
    </metadata>
    <g
         inkscape:label="Ebene 1"
         inkscape:groupmode="layer"
         id="layer1">
        <g
             id="g3044"
             transform="translate(0,250)">
            <path
                 style="fill:#949494"
                 d="m 435.46425,545.7483 c -23.16432,-2.05763 -48.48307,-12.35023 -78.72067,-32.00161 -14.32198,-9.30783 -38.07073,-22.71575 -56.87671,-32.1111 -11.92067,-5.9555 -23.33617,-12.90771 -23.98935,-14.60989 -0.31733,-0.82695 0.67545,-4.01535 2.20619,-7.08535 2.73202,-5.47924 3.0176,-5.70424 15.54258,-12.24586 13.88303,-7.2509 24.49313,-14.03686 40.0529,-25.61683 49.76518,-37.03649 73.8487,-49.38846 102.68768,-52.66652 7.67923,-0.87289 18.39403,0.86486 27.28563,4.42523 10.94085,4.38093 15.03936,4.13041 22.36529,-1.36703 9.02999,-6.7762 17.20746,-8.14677 30.25601,-5.07101 16.15846,3.80882 29.74579,16.18563 35.16267,32.02998 1.81527,5.30966 1.81541,19.98803 2.2e-4,24.43024 -3.91511,9.58126 -11.86849,16.98924 -19.84703,18.48603 l -3.71957,0.69779 2.94913,1.5452 c 3.96059,2.07517 6.15362,4.71637 9.35846,11.27098 2.51233,5.13828 2.6852,6.35498 2.62848,18.5 -0.0569,12.18958 -0.27965,13.63331 -3.57279,23.159 -4.57209,13.22521 -8.76053,20.00122 -17.5162,28.33749 -17.78459,16.93271 -46.08937,23.46089 -86.25292,19.89326 z m -3.34738,-72.52004 c 1.98164,-0.53106 2.25,-1.248 2.25,-6.01109 0,-4.88513 -0.24806,-5.50243 -2.5651,-6.38337 -1.4108,-0.53639 -7.6557,-0.97525 -13.87755,-0.97525 -11.79691,0 -12.63283,0.28106 -13.98741,4.70292 -0.56973,1.85985 -0.005,2.54914 3.62761,4.42602 7.53062,3.89112 18.67468,5.81596 24.55245,4.24077 z m 28.61971,-1.61971 c 0.95389,-3.55942 0.72835,-10.69826 -0.40489,-12.81574 -0.76711,-1.43335 -2.10547,-1.93426 -5.16809,-1.93426 -5.54654,0 -16.99269,2.00294 -18.54673,3.24546 -1.44181,1.15279 -1.70374,5.75454 -0.32755,5.75454 0.50734,0 1.45444,1.61196 2.10466,3.58214 0.96122,2.91252 1.58324,3.49343 3.32755,3.10757 1.69563,-0.37509 14.85215,0.48602 17.77871,1.16364 0.34835,0.0807 0.90471,-0.86585 1.23634,-2.10335 z m 18.63029,-5.16821 c 0,-9.00721 -0.42141,-10.23123 -4.19417,-12.1822 -3.36101,-1.73805 -7.13827,-1.21474 -10.66969,1.47819 -2.12051,1.61702 -2.37788,2.64264 -2.5,9.96255 l -0.13614,8.15996 8.75,-1.4e-4 8.75,-1.5e-4 0,-7.41821 z m 5.37475,2.46583 c 4.37771,-1.6644 6.56478,-15.85482 2.87525,-18.65557 -2.61965,-1.9886 -6.33437,-1.66141 -8.94116,0.78753 l -2.32005,2.17958 2.05937,2.1921 c 1.51969,1.61764 2.08258,3.60154 2.14795,7.57042 0.12102,7.34734 0.18847,7.443 4.17864,5.92594 z m -82.08152,-4.36939 c 0.90913,-2.36915 -3.37335,-3.84396 -12.67012,-4.36336 -6.67773,-0.37307 -10.01531,-0.12368 -12.45168,0.93043 -3.2351,1.39969 -3.02245,1.45765 7.57207,2.06382 5.99536,0.34303 11.99322,1.06028 13.32858,1.5939 3.29596,1.31708 3.63644,1.29895 4.22115,-0.22479 z m -41.91542,-6.67823 c -7.71188,-3.99072 -10.71535,-4.70668 -13.18189,-3.14225 -0.87559,0.55536 0.76731,1.55167 5,3.03218 15.06235,5.26851 18.23276,5.31116 8.18189,0.11007 z m 71.98657,-12.74834 c 5.7145,-0.67955 7.264,-1.28088 9.25,-3.58974 2.02763,-2.35726 2.38562,-3.83426 2.38562,-9.84268 l 0,-7.06924 -3.24866,0.64973 c -1.78677,0.35736 -7.97427,0.88793 -13.75,1.17905 -13.25202,0.66796 -27.67078,4.69997 -29.28811,8.19002 -0.88845,1.91719 -0.599,2.75045 1.86769,5.37671 5.81048,6.18635 8.02643,7.0052 17.41908,6.43681 4.675,-0.28291 11.58897,-0.88171 15.36438,-1.33066 z m -55.06913,-2.26926 c 1.57117,-1.23588 2.80863,-1.62333 3.19387,-1 1.96106,3.17305 11.01691,-1.83937 11.71163,-6.4824 0.2759,-1.84397 -0.16885,-1.97163 -5.70075,-1.6364 -5.26395,0.31899 -6.83433,0.95072 -12.80112,5.14962 -4.05441,2.85314 -6.27565,4.99662 -5.5,5.30746 2.84376,1.13964 6.65997,0.57819 9.09637,-1.33828 z m 83.38965,0.89562 c 1.54831,-0.61709 6.63563,-1.40459 11.30517,-1.75 9.77481,-0.72305 10.30294,-1.24015 11.52774,-11.28693 0.65242,-5.35172 0.54774,-5.75203 -1.9284,-7.37446 -1.44004,-0.94356 -4.5643,-1.9349 -6.94279,-2.20299 -4.76901,-0.53754 -17.78753,2.37806 -25.13949,5.63018 -4.38089,1.93788 -4.50713,2.11991 -4.50713,6.49906 0,3.91621 0.42889,4.83246 3.27988,7.00703 2.96064,2.25818 7.10636,4.37024 8.90502,4.5367 0.3767,0.0349 1.9517,-0.4415 3.5,-1.05859 z m 26.1151,-4.07802 c 0.93333,-0.93333 1.2,-0.93333 1.2,0 0,1.94493 3.838,1.37121 4.96942,-0.74285 0.73822,-1.37938 0.6932,-2.70352 -0.15522,-4.5656 l -1.195,-2.62273 -1.87096,3.31559 c -1.02902,1.82357 -1.5547,2.41559 -1.16817,1.31559 1.77113,-5.04032 1.60451,-7.31542 -0.70489,-9.62482 l -2.32277,-2.32278 -1.20666,7.20676 c -0.66366,3.96371 -1.48951,7.66442 -1.83522,8.2238 -0.88451,1.43117 2.83394,1.27257 4.28947,-0.18296 z"
                 id="path3068"
                 inkscape:connector-curvature="0" />
            <path
                 style="fill:#404040;fill-opacity:1"
                 d="m 437.36687,545.65906 c -12.80448,-1.03439 -22.9234,-3.54232 -37.88386,-9.38936 -14.92987,-5.83508 -24.34711,-10.80796 -40.40506,-21.33636 -16.19102,-10.61563 -24.93403,-15.5968 -53.42587,-30.4384 -25.13815,-13.09464 -28.994,-15.41996 -29.63614,-17.87249 -0.25001,-0.95486 0.73917,-4.08939 2.19818,-6.96563 2.56584,-5.0582 3.09515,-5.46147 16.15673,-12.30957 15.07934,-7.90599 19.98165,-11.07617 41.31643,-26.71807 36.28795,-26.60503 57.9235,-39.53738 76.36614,-45.6468 12.82241,-4.24763 20.86687,-5.44158 33.18324,-4.92503 8.65653,0.36306 11.74421,0.93474 16.63021,3.07908 12.98459,5.6986 16.5725,5.54092 24.8125,-1.09045 7.88209,-6.34334 19.71922,-7.69789 32.80602,-3.75406 12.66298,3.8161 23.54823,13.44588 29.59741,26.18374 3.36048,7.07621 3.69675,8.55755 3.70756,16.33246 0.007,4.70274 -0.60113,10.35043 -1.35036,12.55043 -3.14495,9.23461 -10.38894,16.09173 -19.72195,18.6687 -3.34899,0.9247 -3.5376,1.14161 -1.79651,2.06608 3.37311,1.79102 7.56155,6.13513 9.44588,9.79694 3.94761,7.6714 5.08048,22.7589 2.52313,33.60315 -3.76903,15.98237 -8.78632,26.29446 -17.23168,35.41645 -13.98484,15.1053 -33.67606,22.20942 -64.292,23.19502 -6.875,0.22132 -17.225,0.0207 -23,-0.44583 z m -5.25,-72.4308 c 1.9777,-0.53 2.25,-1.25022 2.25,-5.95116 0,-4.26414 -0.39206,-5.55801 -1.93426,-6.38337 -1.06384,-0.56935 -7.36003,-1.03518 -13.99152,-1.03518 -10.77276,0 -12.18398,0.2029 -13.24666,1.90451 -1.11305,1.78229 -1.34754,1.80089 -3.65365,0.28987 -3.46777,-2.27217 -19.43236,-2.91612 -24.17391,-0.97507 -3.65761,1.49731 -2.81477,1.63818 24.25,4.05311 0.9625,0.0859 1.75,0.50058 1.75,0.92154 0,1.11081 7.76372,4.91806 13,6.37507 4.93457,1.37306 12.23022,1.74395 15.75,0.80068 z m 47.42471,-3.61971 0.1747,-4.25 0.37788,4.14945 c 0.36086,3.96261 0.49934,4.11711 3.07529,3.43116 4.43736,-1.18161 7.26141,-7.2852 6.95367,-15.02893 -0.24174,-6.08314 -0.43689,-6.55357 -3.44598,-8.30685 -2.92987,-1.70712 -3.43167,-1.73341 -6.15965,-0.32272 -3.72491,1.92623 -4.33536,3.54422 -2.27013,6.01695 1.4099,1.68809 1.21124,1.65574 -1.53486,-0.25 -4.75106,-3.29713 -8.79188,-2.71625 -13.99013,2.01111 -1.397,1.27045 -2.37614,1.57546 -2.80902,0.87504 -1.31775,-2.13216 -20.00036,-0.37096 -23.29648,2.19615 -0.745,0.58022 -1.25,3.32206 -1.25,6.78678 l 0,5.81326 11.15255,0.0502 c 6.13391,0.0276 11.38391,0.28154 11.66667,0.5643 0.28276,0.28276 5.16411,0.51411 10.84745,0.51411 l 10.33333,-1e-5 0.17471,-4.25 z m -17.94271,-4.75 c 0,-1.925 0.2058,-2.7125 0.45733,-1.75 0.25152,0.9625 0.25152,2.5375 0,3.5 -0.25153,0.9625 -0.45733,0.175 -0.45733,-1.75 z m -100.59173,-7.05234 c -7.95723,-3.99663 -10.96459,-4.66083 -13.58811,-3.00105 -1.12254,0.71016 -0.7855,1.08123 1.5,1.65148 1.62131,0.40454 5.19784,1.78106 7.94784,3.05894 2.75,1.27789 6.575,2.30427 8.5,2.28086 3.2899,-0.04 3.02818,-0.27955 -4.35973,-3.99023 z m -19.6025,-9.02857 3.46223,-3.08092 -3.61803,2.08092 c -1.98992,1.1445 -4.37898,2.08091 -5.30902,2.08091 -0.93004,0 -1.41287,0.45 -1.07295,1 1.05965,1.71454 2.94801,1.11349 6.53777,-2.08091 z m 85.14649,-3.05072 c 0.92634,-0.4776 3.62634,-0.87452 6,-0.88203 9.71487,-0.0307 11.81574,-2.59422 11.81574,-14.41763 0,-7.33098 -0.071,-7.54841 -2.67636,-8.20233 -1.5402,-0.38657 -3.98115,-0.10403 -5.75,0.66556 -1.6905,0.7355 -5.54864,1.4504 -8.57364,1.58866 -3.1594,0.14441 -10.81956,2.01713 -18,4.40056 -11.57175,3.84105 -13.25986,4.14123 -22.73243,4.04221 l -10.23244,-0.10696 -8.09881,4.40011 -8.0988,4.40011 4.75938,1.62169 c 5.96804,2.03351 10.78348,2.0732 12.41914,0.10235 0.89687,-1.08066 2.23278,-1.33702 4.62686,-0.88788 3.99416,0.74931 7.55229,-1.22104 10.2674,-5.68568 l 1.81481,-2.98422 2.97198,3.28855 c 6.95808,7.69927 8.97227,9.01349 14.98842,9.77969 6.09059,0.77567 11.65194,0.34501 14.49875,-1.12276 z m 36.932,-2.47667 c 3.5781,-0.91666 8.36041,-1.40818 11.12064,-1.14296 4.29824,0.41301 5.08085,0.17216 6.9593,-2.1417 1.22461,-1.50847 1.85311,-1.86962 1.49151,-0.85704 -0.73967,2.07126 2.19811,2.46418 4.11229,0.55 0.93333,-0.93333 1.2,-0.93333 1.2,0 0,0.66 0.92296,1.2 2.05103,1.2 3.18623,0 4.9972,-5.35969 3.86275,-11.4321 -1.12478,-6.02068 -1.90872,-7.03035 -1.92909,-2.48457 -0.008,1.87917 -0.39603,4.01727 -0.86135,4.75133 -0.49098,0.77456 -0.63457,-0.86597 -0.34216,-3.90919 0.41349,-4.30325 0.17496,-5.48437 -1.32978,-6.58467 -3.42711,-2.50596 -4.44077,-1.6504 -4.63165,3.9092 l -0.18025,5.25 -0.37591,-4.78357 -0.37591,-4.78358 -17.69384,0.40772 c -9.73161,0.22424 -18.48134,0.7375 -19.44384,1.14056 -1.43737,0.60193 -1.75,2.02244 -1.75,7.95154 0,7.84586 0.92658,9.44028 7.5,12.9057 3.7406,1.97199 3.13881,1.96897 10.61626,0.0533 z m 20.04163,-8.3917 c 0,-1.375 0.22698,-1.9375 0.50439,-1.25 0.27741,0.6875 0.27741,1.8125 0,2.5 -0.27741,0.6875 -0.50439,0.125 -0.50439,-1.25 z"
                 id="path3066"
                 inkscape:connector-curvature="0" />
            <path
                 style="fill:#625e5f"
                 d="m 437.86687,545.71169 c -10.46757,-0.83568 -21.90635,-3.12126 -27,-5.39486 -1.65,-0.73649 -7.275,-2.96407 -12.5,-4.95017 -12.2625,-4.66117 -25.38855,-11.69274 -41,-21.96352 -11.81872,-7.77555 -24.07792,-14.62371 -56.5,-31.5617 -7.7,-4.02265 -16.3625,-8.80884 -19.25,-10.63598 -6.15869,-3.89707 -6.556,-5.75831 -2.70138,-12.65499 2.31065,-4.1342 3.65674,-5.11573 14.41624,-10.51197 12.70727,-6.3731 23.14163,-13.08449 43.03514,-27.68023 21.06733,-15.45697 39.9582,-27.97514 51.75,-34.2925 6.1875,-3.31491 11.25,-5.81049 11.25,-5.54574 0,0.26476 0.73302,-0.25165 1.62894,-1.14756 0.89592,-0.89592 2.24592,-1.39218 3,-1.10282 0.75408,0.28937 1.37106,0.0421 1.37106,-0.54947 0,-0.59159 0.675,-0.81659 1.5,-0.5 0.825,0.31658 1.5,0.0916 1.5,-0.5 0,-0.59159 0.69837,-0.80762 1.55194,-0.48007 1.00614,0.38609 1.30283,0.19247 0.84363,-0.55054 -0.48178,-0.77953 -0.0182,-0.9656 1.44944,-0.5818 1.36848,0.35786 1.91999,0.17955 1.50775,-0.48747 -0.41709,-0.67485 0.28826,-0.87237 1.96835,-0.5512 1.4401,0.2753 2.41327,0.16868 2.1626,-0.23691 -0.95504,-1.54528 8.53111,-3.13749 21.51629,-3.61141 9.92798,-0.36234 13.10311,-0.20282 12,0.60291 -1.1638,0.85005 -0.86636,0.9481 1.32705,0.43749 1.55487,-0.36197 3.80487,-0.20947 5,0.33888 5.59251,2.56596 12.43073,5.18077 14.96042,5.72058 4.06442,0.86731 9.75844,-1.00692 13.35018,-4.39432 1.72571,-1.62753 3.41321,-2.68358 3.75,-2.34679 0.33679,0.3368 0.61235,0.0608 0.61235,-0.61333 0,-0.67413 0.45,-0.94757 1,-0.60765 0.55,0.33992 1,0.0933 1,-0.54797 0,-0.64131 0.64593,-0.91814 1.43539,-0.6152 0.78947,0.30295 1.61512,0.0136 1.83479,-0.64301 0.26594,-0.79489 3.04434,-1.18251 8.31461,-1.15997 9.65116,0.0413 15.73474,1.14012 14.78849,2.67118 -0.42301,0.68445 -0.22196,0.81949 0.52905,0.35534 1.76272,-1.08943 6.32585,0.2614 5.48406,1.62346 -0.41791,0.67619 -0.24643,0.8477 0.42973,0.42981 1.39191,-0.86024 6.76762,1.82013 7.97407,3.97594 0.48928,0.87429 1.1847,1.55109 1.54538,1.504 1.61255,-0.21054 12.12473,12.65932 14.50565,17.75899 2.12278,4.54674 2.70759,7.48634 3.00056,15.08251 0.41251,10.69547 -0.6858,15.52441 -4.9359,21.70171 -3.26452,4.74483 -8.01677,7.9937 -15.35876,10.50003 -2.77591,0.94761 -4.27528,1.75448 -3.33192,1.79305 0.94337,0.0386 3.33238,1.49002 5.30892,3.22545 10.98976,9.64914 12.2682,30.70773 3.39027,55.84468 -3.75038,10.61879 -13.59286,22.93119 -23.71028,29.66021 -7.57506,5.03811 -20.96137,9.97333 -31.85781,11.74521 -11.23326,1.82666 -30.94673,2.47756 -43.8463,1.44772 z m 15.81363,-56.39778 c 7.44839,-1.5553 13.50673,-2.30461 15.58241,-1.92729 2.29552,0.41729 3.66782,0.18871 4.23469,-0.70536 0.64961,-1.02456 0.8421,-0.95422 0.85396,0.31207 0.0115,1.23162 1.31001,1.77252 5.26531,2.19334 9.04774,0.96262 20.75,0.83943 20.75,-0.21844 0,-0.54745 -0.94682,-2.70858 -2.10405,-4.80252 l -2.10406,-3.80716 3.07716,3.5 c 1.69243,1.925 3.08925,3.8375 3.10405,4.25 0.0879,2.44956 14.0269,-3.08469 14.0269,-5.56914 0,-0.77613 -0.94627,-2.70933 -2.10283,-4.296 -1.785,-2.44882 -1.62221,-2.37822 1.07701,0.46711 l 3.17984,3.35196 2.54264,-2.35196 c 3.40244,-3.1473 6.89895,-8.75199 9.36835,-15.0169 3.40491,-8.63832 1.79963,-8.91065 -6.43219,-1.09123 -8.49418,8.06864 -16.64457,12.35032 -28.92582,15.19573 -24.82853,5.75246 -40.73842,5.45997 -67.3409,-1.23799 -21.15658,-5.3268 -50.21964,-9.53823 -51.52896,-7.46689 -1.08731,1.72011 0.83202,3.04543 12.66286,8.74381 26.72798,12.87368 41.72532,15.29794 64.81363,10.47686 z m 22.56137,-15.08036 c 2.86015,-0.57203 3.13773,-0.9746 3.27519,-4.75 l 0.1502,-4.125 0.5998,4.5 c 0.65509,4.91476 0.60236,4.87178 3.84654,3.13554 3.89394,-2.08397 6.38546,-8.42035 6.04966,-15.38535 -0.27604,-5.72555 -0.51538,-6.27518 -3.48612,-8.00575 -2.9298,-1.70673 -3.43173,-1.73299 -6.15965,-0.32233 -3.72491,1.92623 -4.33536,3.54422 -2.27013,6.01695 1.4099,1.68809 1.21124,1.65574 -1.53486,-0.25 -4.75106,-3.29713 -8.79188,-2.71625 -13.99013,2.01111 -1.397,1.27045 -2.37614,1.57546 -2.80902,0.87504 -1.31775,-2.13216 -20.00036,-0.37096 -23.29648,2.19615 -0.74779,0.5824 -1.25,3.33492 -1.25,6.85108 l 0,5.87756 9.25,0.0992 c 7.53076,0.0808 21.96532,1.00141 27.375,1.74592 0.61875,0.0852 2.53125,-0.12642 4.25,-0.47017 z m -14.643,-9.375 c 0,-1.925 0.2058,-2.7125 0.45733,-1.75 0.25152,0.9625 0.25152,2.5375 0,3.5 -0.25153,0.9625 -0.45733,0.175 -0.45733,-1.75 z m -27.42212,3.03037 c 0.43198,-7.6249 -0.35028,-8.03037 -15.49254,-8.03037 -11.01182,0 -12.42499,0.19951 -13.48978,1.90451 -1.11027,1.77782 -1.3521,1.79791 -3.63526,0.30192 -3.21363,-2.10565 -18.56109,-2.89988 -23.64082,-1.22342 -2.02702,0.66898 -3.41155,1.49026 -3.07673,1.82507 0.33481,0.33481 5.65246,0.95667 11.817,1.3819 15.58013,1.07473 16.10861,1.15428 17.00795,2.56004 2.32068,3.62748 14.63291,7.24046 23.7003,6.95478 l 6.5,-0.2048 0.30988,-5.46963 z m -59.37464,2.07441 c 0.66133,-1.07005 -1.75413,-2.11858 -4.76703,-2.06934 -2.07627,0.0339 -2.0622,0.096 0.33179,1.46456 2.96836,1.69687 3.69874,1.79646 4.43524,0.60478 z m -13.79497,-12.15712 c -7.82236,-3.92888 -10.04432,-4.49732 -13.05848,-3.34067 -2.3358,0.89633 -1.92065,2.39107 0.66821,2.40588 1.2375,0.007 4.5,1.09658 7.25,2.42112 2.75,1.32455 6.8,2.4202 9,2.43479 l 4,0.0265 -7.85973,-3.94765 z m 172.35973,-2.50668 c 0,-0.85746 -0.45734,-1.27636 -1.01631,-0.9309 -0.55897,0.34546 -0.75742,1.04702 -0.44098,1.55902 0.85723,1.38704 1.45729,1.12841 1.45729,-0.62812 z m -192.27871,-6.04197 c 4.12531,-3.14653 3.61932,-4.48979 -0.56808,-1.5081 -1.62908,1.16 -3.70654,2.10909 -4.6166,2.10909 -0.91005,0 -1.37653,0.45 -1.03661,1 0.98442,1.59283 2.56839,1.18521 6.22129,-1.60099 z m 85.46297,-3.53064 c 0.92634,-0.4776 3.62634,-0.87452 6,-0.88203 9.81547,-0.031 11.81574,-2.54841 11.81574,-14.87026 0,-7.95709 -0.009,-7.98439 -2.75,-8.3348 -1.5125,-0.19337 -4.43608,0.46016 -6.49684,1.45228 -2.31775,1.11585 -5.75046,1.75486 -9,1.6754 -3.83616,-0.0938 -8.49006,1.00239 -17.25316,4.06392 -11.39747,3.98188 -12.54569,4.187 -22.86792,4.08517 -6.64303,-0.0655 -11.38721,0.32376 -12.20373,1.00142 -0.73471,0.60974 -4.10369,2.58748 -7.48663,4.39495 l -6.15081,3.28633 4.78268,1.62963 c 5.98971,2.04089 10.80477,2.08357 12.44245,0.11029 0.89687,-1.08066 2.23278,-1.33702 4.62686,-0.88788 3.99416,0.74931 7.55229,-1.22104 10.2674,-5.68568 l 1.81481,-2.98422 2.97198,3.28855 c 6.95808,7.69927 8.97227,9.01349 14.98842,9.77969 6.09059,0.77567 11.65194,0.34501 14.49875,-1.12276 z m 36.932,-2.47667 c 3.5781,-0.91666 8.36041,-1.40818 11.12064,-1.14296 4.29824,0.41301 5.08085,0.17216 6.9593,-2.1417 1.22461,-1.50847 1.85311,-1.86962 1.49151,-0.85704 -0.73967,2.07126 2.19811,2.46418 4.11229,0.55 0.93333,-0.93333 1.2,-0.93333 1.2,0 0,0.66 0.92296,1.2 2.05103,1.2 3.18623,0 4.9972,-5.35969 3.86275,-11.4321 -1.12478,-6.02068 -1.90872,-7.03035 -1.92909,-2.48457 -0.008,1.87917 -0.39603,4.01727 -0.86135,4.75133 -0.49335,0.7783 -0.64257,-0.78276 -0.35795,-3.74483 0.53034,-5.51938 -0.70497,-8.08983 -3.88783,-8.08983 -1.57484,0 -1.90739,0.84647 -2.06254,5.25 l -0.18498,5.25 -0.35902,-5 -0.35901,-5 -7.206,0.10723 c -3.96331,0.059 -8.4553,0.44822 -9.98222,0.86498 -1.52691,0.41677 -4.46023,0.33031 -6.51847,-0.19213 -2.44153,-0.61972 -5.73444,-0.58494 -9.4738,0.10007 l -5.73152,1.04996 0,7.61063 c 0,8.28158 0.85257,9.79319 7.5,13.29763 3.7406,1.97199 3.13881,1.96897 10.61626,0.0533 z m 20.04163,-8.3917 c 0,-1.375 0.22698,-1.9375 0.50439,-1.25 0.27741,0.6875 0.27741,1.8125 0,2.5 -0.27741,0.6875 -0.50439,0.125 -0.50439,-1.25 z m 21.09211,-67.66228 c -0.6875,-0.27741 -1.8125,-0.27741 -2.5,0 -0.6875,0.27741 -0.125,0.50439 1.25,0.50439 1.375,0 1.9375,-0.22698 1.25,-0.50439 z"
                 id="path3062"
                 inkscape:connector-curvature="0" />
            <path
                 style="fill:#262626;fill-opacity:1"
                 d="m 430.86687,544.7863 c -9.04043,-1.04533 -13.24187,-2.22018 -28.90042,-8.08141 -15.3974,-5.76347 -27.72315,-12.20126 -44.59958,-23.29453 -12.21759,-8.03091 -25.17416,-15.28327 -55.5,-31.06578 -8.25,-4.29356 -17.3625,-9.30378 -20.25,-11.13383 -6.17315,-3.91243 -6.55795,-5.76012 -2.65424,-12.74462 2.30461,-4.1234 3.62253,-5.13718 11.75,-9.03847 13.06081,-6.26937 22.82206,-12.4038 41.85188,-26.30173 28.218,-20.60827 44.6433,-31.40073 58.50936,-38.44434 7.31115,-3.71388 13.293,-6.48828 13.293,-6.16533 0,0.32295 0.6039,0.086 1.34201,-0.52659 0.7381,-0.61257 1.6381,-0.81767 2,-0.45578 0.36189,0.3619 0.65799,0.0848 0.65799,-0.61566 0,-0.7213 0.65052,-1.02403 1.5,-0.69805 0.825,0.31658 1.5,0.0916 1.5,-0.5 0,-0.59159 0.675,-0.81659 1.5,-0.5 0.825,0.31658 1.5,0.0872 1.5,-0.50965 0,-0.59688 0.90062,-0.84973 2.00138,-0.56187 1.24729,0.32617 1.75647,0.1271 1.35138,-0.52836 -0.41709,-0.67485 0.28826,-0.87237 1.96835,-0.5512 1.4401,0.2753 2.41223,0.167 2.16028,-0.24066 -0.74444,-1.20454 4.24095,-1.95901 17.42163,-2.63653 10.03291,-0.51572 12.24973,-0.38953 11.60084,0.66039 -0.60673,0.98172 -0.19835,1.14639 1.67623,0.6759 1.49463,-0.37513 4.63011,0.20743 7.89915,1.46763 15.37869,5.9284 17.93105,6.02009 24.40316,0.87671 2.03121,-1.61421 4.55362,-3.20804 5.60536,-3.54184 1.05173,-0.33381 1.91224,-1.07475 1.91224,-1.64653 0,-0.57178 0.675,-0.78058 1.5,-0.46399 0.825,0.31658 1.5,0.14662 1.5,-0.37768 0,-0.5493 2.64866,-0.76814 6.25,-0.5164 4.45236,0.31123 5.38713,0.19625 3.25,-0.39977 -2.53783,-0.70776 -2.32376,-0.77743 1.38957,-0.45222 2.41427,0.21144 5.47832,0.38444 6.80902,0.38444 1.33069,0 2.1815,0.38499 1.89069,0.85554 -0.29082,0.47055 0.64951,0.63031 2.08961,0.35501 1.68009,-0.32117 2.38544,-0.12365 1.96835,0.5512 -0.41224,0.66702 0.13927,0.84533 1.50775,0.48747 1.61873,-0.42331 1.95281,-0.23266 1.33734,0.7632 -0.59646,0.96508 -0.36616,1.15314 0.84363,0.6889 0.91522,-0.3512 1.66404,-0.2168 1.66404,0.29868 0,0.51548 0.64021,0.69156 1.42268,0.3913 0.78248,-0.30027 2.35748,0.38886 3.5,1.53138 1.14253,1.14253 2.09163,1.73982 2.10912,1.32732 0.0175,-0.4125 0.71187,0.15 1.54305,1.25 0.83118,1.1 1.71493,1.88929 1.96387,1.75398 1.19255,-0.6482 11.97522,12.61175 14.31075,17.59859 3.62158,7.73284 4.32685,23.27637 1.36825,30.15494 -3.69585,8.59265 -10.59493,14.67061 -19.31913,17.0198 l -4.38367,1.18039 3.68887,1.89251 c 8.47561,4.34825 11.96084,12.68192 12.08619,28.89979 0.0807,10.44575 -0.21292,12.41674 -3.20336,21.5 -4.80685,14.60051 -8.48279,20.93622 -17.11572,29.5 -10.89124,10.804 -22.08407,16.00164 -42.01002,19.50829 -9.17012,1.61379 -37.08449,1.85052 -49.46088,0.41946 z m 22.81363,-55.47239 c 7.44839,-1.5553 13.50673,-2.30461 15.58241,-1.92729 2.29552,0.41729 3.66782,0.18871 4.23469,-0.70536 0.64961,-1.02456 0.8421,-0.95422 0.85396,0.31207 0.0115,1.23162 1.31001,1.77252 5.26531,2.19334 9.04774,0.96262 20.75,0.83943 20.75,-0.21844 0,-0.54745 -0.94682,-2.70858 -2.10405,-4.80252 l -2.10406,-3.80716 3.07716,3.5 c 1.69243,1.925 3.08925,3.8375 3.10405,4.25 0.0879,2.44956 14.0269,-3.08469 14.0269,-5.56914 0,-0.77613 -0.94627,-2.70933 -2.10283,-4.296 -1.785,-2.44882 -1.62221,-2.37822 1.07701,0.46711 l 3.17984,3.35196 2.54264,-2.35196 c 3.40244,-3.1473 6.89895,-8.75199 9.36835,-15.0169 3.40491,-8.63832 1.79963,-8.91065 -6.43219,-1.09123 -8.49418,8.06864 -16.64457,12.35032 -28.92582,15.19573 -24.82853,5.75246 -40.73842,5.45997 -67.3409,-1.23799 -21.15658,-5.3268 -50.21964,-9.53823 -51.52896,-7.46689 -1.08731,1.72011 0.83202,3.04543 12.66286,8.74381 26.72798,12.87368 41.72532,15.29794 64.81363,10.47686 z m 29.87675,-16.07464 c 4.36128,-0.83232 6.80962,-6.12558 6.80962,-14.72227 0,-6.91686 -0.12473,-7.30091 -2.90429,-8.94284 -3.88046,-2.29224 -5.78758,-2.1535 -10.94778,0.79643 -2.39364,1.36838 -5.41549,2.48796 -6.71521,2.48796 -1.29972,0 -3.95379,1.39662 -5.89792,3.10359 -1.94414,1.70698 -3.5348,2.60698 -3.5348,2 0,-2.58849 -23.64243,-0.19898 -24.67581,2.49396 -0.35102,0.91474 -1.06906,1.08439 -2.17415,0.51369 -5.06263,-2.61449 -25.85496,-2.26346 -28.6013,0.48287 -1.13488,1.13489 -1.83071,1.11193 -4.34708,-0.14339 -4.23237,-2.11139 -19.58716,-2.17619 -24.20166,-0.10213 -1.925,0.86522 -3.275,1.62222 -3,1.68221 0.275,0.06 6.01082,0.45799 12.74627,0.88441 11.02605,0.69807 12.85218,1.09293 18.32724,3.96288 10.13879,5.31461 15.46996,6.24926 31.92649,5.59726 7.975,-0.31596 19,-0.15245 24.5,0.36336 9.38726,0.88037 16.42144,0.73839 22.69038,-0.45799 z m -108.75514,-3.27594 c 0.66133,-1.07005 -1.75413,-2.11858 -4.76703,-2.06934 -2.07627,0.0339 -2.0622,0.096 0.33179,1.46456 2.96836,1.69687 3.69874,1.79646 4.43524,0.60478 z m -6.43524,-8.45271 c 0,-0.19135 -3.38191,-2.01935 -7.51535,-4.06221 -5.01013,-2.47614 -8.56794,-3.61021 -10.67299,-3.40207 -3.72336,0.36815 -5.14275,2.80579 -1.64499,2.82508 1.28333,0.007 4.58333,1.09658 7.33333,2.42112 4.14343,1.9957 12.5,3.47854 12.5,2.21808 z m 165,-6.21109 c 0,-0.85746 -0.45734,-1.27636 -1.01631,-0.9309 -0.55897,0.34546 -0.75742,1.04702 -0.44098,1.55902 0.85723,1.38704 1.45729,1.12841 1.45729,-0.62812 z m -192.03449,-6.06541 c 3.93858,-3.3141 3.31398,-4.12588 -1.10273,-1.4332 -1.84953,1.12759 -4.17684,2.05184 -5.1718,2.05389 -0.99496,0.002 -1.5309,0.45374 -1.19098,1.00374 1.08991,1.7635 4.25857,1.07403 7.46551,-1.62443 z m 90.88808,-3.67774 c 10.73744,-1.69801 12.01109,-3.11377 12.32287,-13.69783 l 0.22093,-7.5 0.35158,7 c 0.34159,6.80127 0.45861,7.07625 4.12195,9.68593 5.27243,3.75597 8.0011,4.19785 14.41252,2.334 3.06931,-0.89227 7.97366,-1.59591 10.89856,-1.56364 2.9249,0.0323 8.14686,-0.21048 11.60435,-0.53946 7.63578,-0.72653 8.71227,-2.02275 9.68912,-11.66683 0.62718,-6.19181 0.52755,-6.75 -1.20475,-6.75 -1.03865,0 -2.7032,-0.59575 -3.69898,-1.32389 -1.37903,-1.00836 -6.01242,-1.25383 -19.44113,-1.02994 -9.69684,0.16168 -19.65561,0.66379 -22.13061,1.11582 -2.475,0.45203 -5.85,0.5583 -7.5,0.23617 -1.89644,-0.37025 -4.6145,0.11397 -7.38901,1.31635 -2.91922,1.2651 -5.57082,1.71028 -7.91809,1.32937 -2.61294,-0.42403 -6.66551,0.50567 -15.61099,3.58131 -10.75526,3.69787 -13.45447,4.22427 -24.58191,4.79392 -12.1965,0.62438 -12.67862,0.7379 -19.85685,4.67518 -6.44991,3.53779 -7.06631,4.11222 -5,4.65953 1.29627,0.34334 4.40547,1.25592 6.90934,2.02795 3.97721,1.2263 4.98814,1.21114 8,-0.12001 1.89613,-0.83804 5.02251,-1.4462 6.94751,-1.35148 3.7532,0.18467 8.27905,-3.06341 9.46203,-6.79065 0.53734,-1.693 1.37434,-1.18738 6.51067,3.93303 5.82714,5.80908 7.18849,6.51897 14.0273,7.3147 3.9911,0.46438 7.10122,0.18897 18.85359,-1.66953 z m 59.22536,-18.28116 c 0.048,-1.16495 0.28494,-1.4019 0.60416,-0.60417 0.28887,0.72187 0.25335,1.58437 -0.0789,1.91667 -0.3323,0.33229 -0.56864,-0.25834 -0.52522,-1.3125 z m -62.82895,-55.07895 c -0.6875,-0.27741 -1.8125,-0.27741 -2.5,0 -0.6875,0.27741 -0.125,0.50439 1.25,0.50439 1.375,0 1.9375,-0.22698 1.25,-0.50439 z m 7.47917,-0.94189 c -0.3323,-0.33229 -1.1948,-0.36781 -1.91667,-0.0789 -0.79773,0.31922 -0.56078,0.55618 0.60417,0.60416 1.05416,0.0434 1.64479,-0.19292 1.3125,-0.52522 z"
                 id="path3060"
                 inkscape:connector-curvature="0" />
            <path
                 style="fill:#1a1a1a;fill-opacity:1"
                 d="m 430.36687,544.71758 c -4.125,-0.48366 -10.2,-1.77087 -13.5,-2.86046 -3.3,-1.08959 -4.65,-1.77048 -3,-1.51308 11.78419,1.83831 42.5,3.71499 42.5,2.59666 0,-0.98831 -50.69717,-27.71795 -60.06551,-31.66902 -10.78774,-4.54969 -25.39086,-8.86103 -38.20895,-11.28057 -11.01362,-2.07893 -23.72554,-3.58793 -23.72554,-2.8164 0,0.26144 2.25,1.91917 5,3.68384 6.569,4.21531 6.41251,4.98685 -0.25,1.23261 -2.8875,-1.62707 -15.825,-8.49124 -28.75,-15.25372 -12.925,-6.76247 -25.8625,-13.7936 -28.75,-15.62473 -6.17278,-3.9145 -6.55775,-5.76244 -2.65508,-12.74507 2.27629,-4.07273 3.63814,-5.14072 11.09103,-8.69784 13.33542,-6.36474 23.28435,-12.64413 44.77643,-28.26122 10.97931,-7.97805 20.22253,-14.34477 20.54047,-14.14827 0.31795,0.1965 1.90988,-0.25607 3.53762,-1.00571 24.6335,-11.34474 41.68057,-16.26279 64.16019,-18.51012 15.44089,-1.54366 27.60019,-0.13705 43.92724,5.08159 16.57111,5.29664 23.05758,5.21303 34.82635,-0.44892 12.3272,-5.9306 20.40435,-6.53636 27.31832,-2.04878 7.13113,4.62853 23.22743,24.22375 23.22743,28.27647 0,3.01398 -3.37801,10.26107 -6.52762,14.00416 -3.58851,4.26471 -9.01045,7.6788 -14.57379,9.17686 l -4.38367,1.18039 3.68887,1.89251 c 6.38752,3.27699 11.93686,12.89959 11.69286,20.27552 l -0.10335,3.12427 -0.97952,-3.68033 c -1.25216,-4.70479 -9.4065,-13.3175 -13.31637,-14.06492 -2.5622,-0.48979 -3.76532,0.26769 -9.9559,6.2682 -8.53931,8.27714 -17.19097,13.65924 -23.41058,14.56349 -2.54701,0.3703 -5.98093,1.38811 -7.63093,2.26181 -3.66694,1.94169 -20.24592,2.11245 -40.5,0.41714 l -13.5,-1.12997 18.5,0.62776 c 31.36507,1.06433 33.90047,0.76556 36.91899,-4.35046 1.5907,-2.69604 2.08101,-5.22985 2.08101,-10.75427 0,-6.91686 -0.12473,-7.30091 -2.90429,-8.94284 -3.88046,-2.29224 -5.78758,-2.1535 -10.94778,0.79643 -2.39364,1.36838 -5.41549,2.48796 -6.71521,2.48796 -1.29972,0 -3.95379,1.39662 -5.89792,3.10359 -1.94414,1.70698 -3.5348,2.60698 -3.5348,2 0,-2.58849 -23.64243,-0.19898 -24.67581,2.49396 -0.35102,0.91474 -1.06906,1.08439 -2.17415,0.51369 -5.06263,-2.61449 -25.85496,-2.26346 -28.6013,0.48287 -1.13488,1.13489 -1.83071,1.11193 -4.34708,-0.14339 -4.153,-2.07179 -19.55766,-2.17455 -24.17064,-0.16124 -2.88517,1.25923 -3.13761,1.5946 -1.5,1.99282 1.08294,0.26333 -0.006,0.30754 -2.42059,0.0982 -2.41427,-0.20929 -6.01427,-0.44439 -8,-0.52244 l -3.61043,-0.14191 3.96908,-0.6081 3.96908,-0.60809 -7.60855,-3.75 c -8.05706,-3.97105 -13.17092,-4.74942 -14.58637,-2.22016 -0.76844,1.37313 -1.23123,1.37313 -4.51757,0 -5.11558,-2.13742 -6.16022,-1.96521 -10.33983,1.70454 -4.74308,4.16448 -6.72913,8.7325 -5.36107,12.33077 0.95852,2.52111 0.87719,2.62706 -1.54926,2.01806 -4.31568,-1.08317 -21.50517,-2.53017 -30.3805,-2.55741 l -8.40499,-0.0258 1.86089,2.05626 c 3.92384,4.33579 30.78861,17.77772 40.62219,20.32553 5.98389,1.55038 8.29297,0.88415 10.012,-2.8887 0.76217,-1.67278 0.7791,-3.59255 0.0568,-6.43829 -0.56607,-2.23014 -0.9211,-4.0548 -0.78895,-4.0548 0.13214,0 7.1718,3.3203 15.64367,7.37845 18.93454,9.06992 32.18059,14.74399 45.9034,19.66314 5.775,2.07013 14.1,5.21221 18.5,6.98238 32.9196,13.24395 56.89455,17.72074 71.56684,13.36354 12.56539,-3.73152 30.59936,-14.75155 43.18316,-26.38796 4.2625,-3.94159 7.75,-6.98278 7.75,-6.75819 0,1.66486 -5.42595,15.78719 -7.69287,20.02255 -4.33712,8.10315 -16.47764,19.5414 -25.35196,23.88548 -15.02255,7.35371 -28.7599,9.89885 -52.45517,9.71845 -9.35,-0.0712 -20.375,-0.52515 -24.5,-1.00881 z m -89.03449,-95.48346 c 3.93858,-3.3141 3.31398,-4.12588 -1.10273,-1.4332 -1.84953,1.12759 -4.17684,2.05184 -5.1718,2.05389 -0.99496,0.002 -1.5309,0.45374 -1.19098,1.00374 1.08991,1.7635 4.25857,1.07403 7.46551,-1.62443 z m 90.88808,-3.67774 c 10.73744,-1.69801 12.01109,-3.11377 12.32287,-13.69783 l 0.22093,-7.5 0.35158,7 c 0.34159,6.80127 0.45861,7.07625 4.12195,9.68593 5.27243,3.75597 8.0011,4.19785 14.41252,2.334 3.06931,-0.89227 7.97366,-1.59591 10.89856,-1.56364 2.9249,0.0323 8.14686,-0.21048 11.60435,-0.53946 7.63578,-0.72653 8.71227,-2.02275 9.68912,-11.66683 0.62718,-6.19181 0.52755,-6.75 -1.20475,-6.75 -1.03865,0 -2.7032,-0.59575 -3.69898,-1.32389 -1.37903,-1.00836 -6.01242,-1.25383 -19.44113,-1.02994 -9.69684,0.16168 -19.65561,0.66379 -22.13061,1.11582 -2.475,0.45203 -5.85,0.5583 -7.5,0.23617 -1.89644,-0.37025 -4.6145,0.11397 -7.38901,1.31635 -2.91922,1.2651 -5.57082,1.71028 -7.91809,1.32937 -2.61294,-0.42403 -6.66551,0.50567 -15.61099,3.58131 -10.75526,3.69787 -13.45447,4.22427 -24.58191,4.79392 -12.1965,0.62438 -12.67862,0.7379 -19.85685,4.67518 -6.44991,3.53779 -7.06631,4.11222 -5,4.65953 1.29627,0.34334 4.40547,1.25592 6.90934,2.02795 3.97721,1.2263 4.98814,1.21114 8,-0.12001 1.89613,-0.83804 5.02251,-1.4462 6.94751,-1.35148 3.7532,0.18467 8.27905,-3.06341 9.46203,-6.79065 0.53734,-1.693 1.37434,-1.18738 6.51067,3.93303 5.82714,5.80908 7.18849,6.51897 14.0273,7.3147 3.9911,0.46438 7.10122,0.18897 18.85359,-1.66953 z m 59.22536,-18.28116 c 0.048,-1.16495 0.28494,-1.4019 0.60416,-0.60417 0.28887,0.72187 0.25335,1.58437 -0.0789,1.91667 -0.3323,0.33229 -0.56864,-0.25834 -0.52522,-1.3125 z m -17.89035,69.58333 c -0.0306,-6.69935 0.26305,-9.77607 0.8114,-8.5 1.04642,2.43515 1.04642,11.88763 0,16 -0.49944,1.96276 -0.77998,-0.63033 -0.8114,-7.5 z m 14.50188,3.25 c -0.32346,-2.6125 -0.86609,-6.325 -1.20586,-8.25 -0.49023,-2.77744 -0.3903,-3.14406 0.48402,-1.77588 1.12853,1.76599 2.72683,14.77588 1.81526,14.77588 -0.27793,0 -0.76996,-2.1375 -1.09342,-4.75 z m 15.02192,-2.89357 c -0.98317,-3.85747 -2.91663,-9.22823 -4.29656,-11.93501 l -2.50897,-4.92142 2.55907,3 c 4.43632,5.2007 6.67922,10.90191 6.34153,16.11945 l -0.30747,4.75057 -1.7876,-7.01359 z m 15.45081,-10.20604 c -0.63648,-2.12437 -2.29435,-5.61477 -3.68415,-7.75644 l -2.52691,-3.89395 3.50597,3.89584 c 1.92829,2.14271 3.79307,5.4262 4.14397,7.29663 0.89725,4.78277 -0.0526,5.08505 -1.43888,0.45792 z m 23.03174,-2.65039 c 0.0204,-1.65 0.2445,-2.20394 0.49804,-1.23097 0.25354,0.97297 0.23687,2.32297 -0.0371,3 -0.27393,0.67703 -0.48137,-0.11903 -0.46099,-1.76903 z m -172.11891,-1 c -0.13462,-4.14961 2.12823,-9.57883 6.0717,-14.56769 l 4.07948,-5.16093 9.28023,0.40588 c 7.94837,0.34764 10.12069,0.84481 15.13639,3.46419 7.78701,4.06666 12.15062,5.41745 20.70823,6.41042 l 7.14793,0.8294 -9.06964,-0.3048 c -8.32448,-0.27976 -9.78079,-0.65224 -17.72522,-4.5335 -7.30688,-3.56979 -9.91121,-4.31476 -16.71394,-4.78103 -7.10912,-0.48727 -8.23395,-0.32908 -9.54888,1.34286 -1.98067,2.51844 -6.37868,10.96531 -8.00077,15.36635 -0.84744,2.29926 -1.32323,2.83197 -1.36551,1.52885 z m 173.23383,-8 c 0.006,-3.3 0.1923,-4.52944 0.41486,-2.73209 0.22256,1.79735 0.21797,4.49735 -0.0102,6 -0.22818,1.50265 -0.41027,0.0321 -0.40466,-3.26791 z m -192.72499,0.83379 c 1.07555,-4.58299 3.35407,-8.92781 5.97146,-11.38672 3.23844,-3.04236 3.0847,-1.99717 -0.48406,3.29073 -1.61025,2.38593 -3.2351,5.56274 -3.61078,7.05958 -0.37568,1.49683 -1.10124,2.97997 -1.61236,3.29586 -0.54463,0.3366 -0.65402,-0.59868 -0.26426,-2.25945 z m 187.93881,-7.22595 c -0.34938,-1.59069 -1.95022,-4.96569 -3.55744,-7.5 -1.60721,-2.53431 -2.4885,-4.60784 -1.95841,-4.60784 1.60108,0 5.81205,7.24782 6.53621,11.25 0.79264,4.38063 -0.0846,5.11817 -1.02036,0.85784 z m -185.02369,-9.66407 c -3.3,-1.27868 -5.1,-2.34584 -4,-2.37146 1.1,-0.0256 4.25,1.03714 7,2.36168 6.30856,3.03854 4.82897,3.04336 -3,0.01 z m 118.84549,-81.20908 c -0.63498,-0.40408 1.00955,-0.73469 3.65451,-0.73469 2.64496,0 4.60043,0.3375 4.34549,0.75 -0.5937,0.96064 -6.48408,0.94936 -8,-0.0153 z m -63.34549,-1.23469 c 0,-0.55 0.47656,-1 1.05902,-1 0.58246,0 0.7809,0.45 0.44098,1 -0.33992,0.55 -0.81648,1 -1.05902,1 -0.24254,0 -0.44098,-0.45 -0.44098,-1 z m 126,-0.059 c 0,-0.58246 0.45,-0.7809 1,-0.44098 0.55,0.33992 1,0.81647 1,1.05901 0,0.24255 -0.45,0.44099 -1,0.44099 -0.55,0 -1,-0.47656 -1,-1.05902 z m -120,-1.76039 c 0,-1.77958 13.53664,-4.4119 25.39761,-4.93878 9.10335,-0.40438 11.72353,-0.24684 11.15641,0.67079 -0.49822,0.80613 -3.74289,1.16028 -9.89761,1.08029 -9.26582,-0.12041 -14.31375,0.26007 -18.40641,1.38736 -1.2375,0.34086 -3.15169,0.81924 -4.25376,1.06306 -1.10207,0.24381 -2.45207,0.72037 -3,1.05901 -0.54793,0.33864 -0.99624,0.19386 -0.99624,-0.32173 z m 117,-0.23961 c 0,-0.58246 0.45,-0.7809 1,-0.44098 0.55,0.33992 1,0.81648 1,1.05902 0,0.24254 -0.45,0.44098 -1,0.44098 -0.55,0 -1,-0.47656 -1,-1.05902 z m -4,-2.44098 c -1.375,-0.78602 -2.02351,-1.44508 -1.44113,-1.46456 0.58238,-0.0195 1.93238,0.62525 3,1.43276 2.46898,1.86744 1.68038,1.88353 -1.55887,0.0318 z m -72.5,-0.5 c -1.31874,-0.56668 -1.48906,-0.87815 -0.5,-0.9144 0.825,-0.0302 2.175,0.38124 3,0.9144 1.82797,1.18132 0.24909,1.18132 -2.5,0 z m 37.5,-3 c 0,-0.55 0.47656,-1 1.05902,-1 0.58246,0 0.7809,0.45 0.44098,1 -0.33992,0.55 -0.81648,1 -1.05902,1 -0.24254,0 -0.44098,-0.45 -0.44098,-1 z m 24.50951,0.17618 c -0.20808,-0.20808 -2.09534,-0.60514 -4.19392,-0.88236 -8.75444,-1.15643 -11.85077,-2.18364 -4.81559,-1.59757 7.13226,0.59416 17.98213,3.25166 12.19392,2.9867 -1.54335,-0.0707 -2.97633,-0.29869 -3.18441,-0.50677 z m -21.50951,-1.2698 c 0,-0.49851 0.9,-0.90638 2,-0.90638 1.1,0 2,0.17252 2,0.38337 0,0.21085 -0.9,0.61872 -2,0.90638 -1.1,0.28766 -2,0.11514 -2,-0.38337 z"
                 id="path3058"
                 inkscape:connector-curvature="0" />
            <path
                 style="fill:#1a1a1a;fill-opacity:1"
                 d="m 430.36687,544.71758 c -4.125,-0.48366 -10.2,-1.77367 -13.5,-2.86668 -3.3,-1.09301 -4.875,-1.74886 -3.5,-1.45744 9.05747,1.91966 45.9848,4.115 44.5,2.64554 -1.46632,-1.45118 -45.48904,-24.80812 -56,-29.71168 -17.26999,-8.05677 -36.13628,-13.25457 -57.98052,-15.97405 -6.03929,-0.75186 -11.1189,-1.22864 -11.28802,-1.05951 -0.16913,0.16913 1.9596,1.7623 4.73052,3.54039 6.12506,3.93044 6.68563,5.17178 0.78802,1.74501 -2.3375,-1.35819 -14.375,-7.77184 -26.75,-14.25256 -29.20414,-15.29405 -34.42219,-18.46527 -34.80872,-21.15473 -0.1698,-1.18143 0.84449,-4.42381 2.25398,-7.2053 2.38838,-4.71323 3.19165,-5.35913 11.80872,-9.49516 13.30136,-6.3844 22.85642,-12.41544 43.38696,-27.38534 9.97751,-7.27514 18.89157,-13.22752 19.80901,-13.22752 1.00624,0 1.38498,-0.45807 0.95456,-1.15451 -0.43484,-0.70359 -0.27507,-0.88353 0.40907,-0.4607 0.61743,0.38159 7.09944,-1.85846 14.40446,-4.9779 15.91541,-6.7963 25.75602,-9.7526 41.32087,-12.41354 21.09883,-3.60703 39.04495,-2.38158 57.58804,3.93237 4.74483,1.61562 10.1841,3.22961 12.08728,3.58665 5.13462,0.96326 13.91569,-1.00497 23.11865,-5.18193 9.88057,-4.48451 17.62426,-5.4382 22.72773,-2.7991 7.39658,3.82492 25.93939,25.11893 25.93939,29.78802 0,2.59653 -3.59192,10.04221 -6.52762,13.53109 -3.58851,4.26471 -9.01045,7.6788 -14.57379,9.17686 l -4.38367,1.18039 3.68887,1.89251 c 6.3869,3.27667 11.93558,12.89732 11.69385,20.27552 l -0.10236,3.12427 -0.72722,-3.03426 c -1.74104,-7.26438 -10.01746,-15.46574 -15.60729,-15.46574 -0.90121,0 -4.98054,3.2625 -9.06518,7.25 -8.67124,8.46502 -14.76208,12.24981 -22.39559,13.9164 -3.025,0.66044 -6.60496,1.90568 -7.95547,2.7672 -2.92936,1.86872 -24.08077,2.03823 -35.54453,0.28487 -6.08763,-0.93109 -5.30559,-0.98272 6,-0.39606 13.95615,0.7242 21.12961,0.64379 26.16899,-0.29334 4.88541,-0.90849 7.33101,-5.86927 7.33101,-14.87062 0,-6.91686 -0.12473,-7.30091 -2.90429,-8.94284 -3.88046,-2.29224 -5.78758,-2.1535 -10.94778,0.79643 -2.39364,1.36838 -5.41549,2.48796 -6.71521,2.48796 -1.29972,0 -3.95379,1.39662 -5.89792,3.10359 -1.94414,1.70698 -3.5348,2.60698 -3.5348,2 0,-2.58849 -23.64243,-0.19898 -24.67581,2.49396 -0.35102,0.91474 -1.06906,1.08439 -2.17415,0.51369 -5.06263,-2.61449 -25.85496,-2.26346 -28.6013,0.48287 -1.13488,1.13489 -1.83071,1.11193 -4.34708,-0.14339 -4.153,-2.07179 -19.55766,-2.17455 -24.17064,-0.16124 -2.87995,1.25695 -3.13465,1.59422 -1.5,1.98633 1.08294,0.25977 0.39398,0.30893 -1.53102,0.10925 -1.925,-0.19968 -5.3,-0.42724 -7.5,-0.5057 l -4,-0.14264 3.46203,-0.61836 3.46203,-0.61836 -7.6015,-3.75 c -7.93566,-3.91485 -13.48315,-4.79806 -14.44201,-2.29931 -0.4736,1.23417 -1.27729,1.16666 -5.3845,-0.45225 l -4.82781,-1.90294 -4.04824,2.93253 c -4.85378,3.51606 -7.4666,8.15707 -6.87223,12.20677 l 0.43594,2.97024 -4.09186,-0.71507 c -6.67015,-1.16563 -34.74082,-2.06315 -35.31637,-1.12919 -0.29175,0.47343 0.76442,1.9393 2.34704,3.25749 4.49919,3.74745 35.10846,18.4309 40.99527,19.66567 4.75079,0.99649 5.50896,0.91133 7.43929,-0.8356 1.81766,-1.64496 2.0816,-2.76245 1.71023,-7.24078 -0.29653,-3.57574 -0.0865,-5.14335 0.64677,-4.82678 0.59725,0.25787 9.63592,4.49308 20.08592,9.4116 19.33315,9.09956 23.50718,10.83771 50,20.82105 37.38512,14.0879 51.14931,17.73883 66.5,17.63902 11.03807,-0.0718 16.72714,-1.76069 29.87271,-8.86838 10.79887,-5.83884 17.76703,-10.95533 26.87729,-19.73508 3.9875,-3.84285 7.25,-6.76476 7.25,-6.49314 0,1.73492 -5.36578,15.76029 -7.69287,20.10806 -4.33712,8.10315 -16.47764,19.5414 -25.35196,23.88548 -15.02255,7.35371 -28.7599,9.89885 -52.45517,9.71845 -9.35,-0.0712 -20.375,-0.52515 -24.5,-1.00881 z m -89.03449,-95.48346 c 3.93858,-3.3141 3.31398,-4.12588 -1.10273,-1.4332 -1.84953,1.12759 -4.17684,2.05184 -5.1718,2.05389 -0.99496,0.002 -1.5309,0.45374 -1.19098,1.00374 1.08991,1.7635 4.25857,1.07403 7.46551,-1.62443 z m 90.88808,-3.67774 c 10.73744,-1.69801 12.01109,-3.11377 12.32287,-13.69783 l 0.22093,-7.5 0.35158,7 c 0.34159,6.80127 0.45861,7.07625 4.12195,9.68593 5.27243,3.75597 8.0011,4.19785 14.41252,2.334 3.06931,-0.89227 7.97366,-1.59591 10.89856,-1.56364 2.9249,0.0323 8.14686,-0.21048 11.60435,-0.53946 7.63578,-0.72653 8.71227,-2.02275 9.68912,-11.66683 0.62718,-6.19181 0.52755,-6.75 -1.20475,-6.75 -1.03865,0 -2.7032,-0.59575 -3.69898,-1.32389 -1.37903,-1.00836 -6.01242,-1.25383 -19.44113,-1.02994 -9.69684,0.16168 -19.65561,0.66379 -22.13061,1.11582 -2.475,0.45203 -5.85,0.5583 -7.5,0.23617 -1.89644,-0.37025 -4.6145,0.11397 -7.38901,1.31635 -2.91922,1.2651 -5.57082,1.71028 -7.91809,1.32937 -2.61294,-0.42403 -6.66551,0.50567 -15.61099,3.58131 -10.75526,3.69787 -13.45447,4.22427 -24.58191,4.79392 -12.1965,0.62438 -12.67862,0.7379 -19.85685,4.67518 -6.44991,3.53779 -7.06631,4.11222 -5,4.65953 1.29627,0.34334 4.40547,1.25592 6.90934,2.02795 3.97721,1.2263 4.98814,1.21114 8,-0.12001 1.89613,-0.83804 5.02251,-1.4462 6.94751,-1.35148 3.7532,0.18467 8.27905,-3.06341 9.46203,-6.79065 0.53734,-1.693 1.37434,-1.18738 6.51067,3.93303 5.82714,5.80908 7.18849,6.51897 14.0273,7.3147 3.9911,0.46438 7.10122,0.18897 18.85359,-1.66953 z m 59.22536,-18.28116 c 0.048,-1.16495 0.28494,-1.4019 0.60416,-0.60417 0.28887,0.72187 0.25335,1.58437 -0.0789,1.91667 -0.3323,0.33229 -0.56864,-0.25834 -0.52522,-1.3125 z m 13,73 c 0.048,-1.16495 0.28494,-1.4019 0.60416,-0.60417 0.28887,0.72187 0.25335,1.58437 -0.0789,1.91667 -0.3323,0.33229 -0.56864,-0.25834 -0.52522,-1.3125 z m -0.92912,-3.63816 c -0.0824,-0.94681 -1.25007,-4.20931 -2.5948,-7.25 -1.34474,-3.04068 -2.2637,-5.52851 -2.04215,-5.52851 0.22154,0 1.57849,2.00614 3.01543,4.4581 1.68997,2.88371 2.46407,5.44406 2.19199,7.25 -0.23135,1.53554 -0.48806,2.01723 -0.57047,1.07041 z m 14.09951,-13.02851 c -1.07509,-2.9383 -1.04816,-3.06383 0.28076,-1.30887 1.27176,1.67947 2.02282,4.55887 1.18914,4.55887 -0.15442,0 -0.81588,-1.4625 -1.4699,-3.25 z m 23.90855,1.25 c 0,-1.375 0.22698,-1.9375 0.50439,-1.25 0.27741,0.6875 0.27741,1.8125 0,2.5 -0.27741,0.6875 -0.50439,0.125 -0.50439,-1.25 z m -171.12616,-5 c 0.0201,-2.4763 3.51667,-9.39418 5.55979,-11 1.70901,-1.34322 1.78312,-1.33888 0.70907,0.0415 -0.65967,0.84783 -2.34277,3.99783 -3.74023,7 -1.39745,3.00218 -2.53534,4.7835 -2.52863,3.9585 z m 172.04722,-0.58333 c 0.048,-1.16495 0.28494,-1.4019 0.60416,-0.60417 0.28887,0.72187 0.25335,1.58437 -0.0789,1.91667 -0.33229,0.33229 -0.56864,-0.25834 -0.52522,-1.3125 z m -191.57198,-5.41667 c 0.71912,-2.37986 4.2252,-8 4.99073,-8 0.36102,0 -4.42903,9.05332 -5.29093,10 -0.25038,0.275 -0.11529,-0.625 0.3002,-2 z m 62.96045,-0.3972 c -2.21792,-0.69487 -6.95517,-2.70219 -10.52721,-4.4607 -4.55447,-2.24216 -8.87636,-3.46874 -14.46742,-4.10594 l -7.97279,-0.90863 8.69385,0.25402 c 7.44938,0.21766 9.52496,0.68805 14.5,3.28611 7.64086,3.99021 11.94751,5.33846 20.07792,6.28565 l 6.72823,0.78384 -6.5,0.0645 c -3.575,0.0355 -8.31466,-0.504 -10.53258,-1.19888 z m 21.28258,-0.30853 c 1.2375,-0.23836 3.2625,-0.23836 4.5,0 1.2375,0.23835 0.225,0.43337 -2.25,0.43337 -2.475,0 -3.4875,-0.19502 -2.25,-0.43337 z m 107.40789,-1.29427 c 0,-1.375 0.22698,-1.9375 0.50439,-1.25 0.27741,0.6875 0.27741,1.8125 0,2.5 -0.27741,0.6875 -0.50439,0.125 -0.50439,-1.25 z m -7.96384,-10.76238 -2.30595,-3.73762 2.55595,2.80576 c 1.40577,1.54317 2.55595,3.23067 2.55595,3.75 0,1.50708 -0.36144,1.14407 -2.80595,-2.81814 z m -182.19405,-2.28693 c -2.475,-1.01306 -3.825,-1.8546 -3,-1.87008 0.825,-0.0155 3.3,0.82361 5.5,1.86467 5.10846,2.41736 3.40164,2.42106 -2.5,0.005 z M 473.4502,378.50219 c 1.10778,-0.94744 6.95921,-1.52148 6.40736,-0.62858 -0.3348,0.54172 -2.00717,0.98494 -3.71637,0.98494 -1.70921,0 -2.92015,-0.16036 -2.69099,-0.35636 z m -55.08333,-5.2563 c 7.19509,-2.26233 15.85839,-3.38273 25,-3.23317 8.26989,0.13529 8.17431,0.15988 -3.53084,0.90828 -6.61696,0.42307 -14.78192,1.48209 -18.14435,2.35338 -7.45146,1.93087 -9.50049,1.91331 -3.32481,-0.0285 z m 109,-0.88734 c -1.375,-0.78602 -2.02351,-1.44508 -1.44113,-1.46456 0.58238,-0.0195 1.93238,0.62525 3,1.43276 2.46898,1.86744 1.68038,1.88353 -1.55887,0.0318 z m -73.1875,-1.18311 c 0.72187,-0.28887 1.58437,-0.25335 1.91667,0.0789 0.33229,0.33229 -0.25834,0.56864 -1.3125,0.52522 -1.16495,-0.048 -1.4019,-0.28494 -0.60417,-0.60416 z m 62.1875,-2.36347 c -1.925,-0.46194 -6.2,-1.28139 -9.5,-1.82102 l -6,-0.98113 7,0.56406 c 3.85,0.31024 8.8,1.13171 11,1.8255 4.50577,1.42093 2.84455,1.69509 -2.5,0.41259 z m -20.25,-1.6157 c 0.6875,-0.27741 1.8125,-0.27741 2.5,0 0.6875,0.27741 0.125,0.50439 -1.25,0.50439 -1.375,0 -1.9375,-0.22698 -1.25,-0.50439 z"
                 id="path3056"
                 inkscape:connector-curvature="0" />
            <path
                 style="fill:#0d0d0d;fill-opacity:1"
                 d="m 430.95346,544.79394 c -7.15259,-0.8295 -19.92945,-3.92587 -19.20189,-4.65342 0.22738,-0.22738 2.14634,0.0459 4.26436,0.60729 7.63699,2.02422 36.19761,3.22299 50.6507,2.12594 35.92794,-2.72707 55.44192,-13.48513 68.20144,-37.59946 1.43058,-2.70366 2.30199,-3.79074 1.93648,-2.41574 -3.01621,11.34651 -16.952,27.01556 -29.48251,33.14939 -15.0235,7.35418 -28.76054,9.89909 -52.45517,9.71782 -9.35,-0.0715 -20.11103,-0.49085 -23.91341,-0.93182 z m -98.08659,-46.0079 c -4.95,-2.72158 -16.52084,-8.8603 -25.71298,-13.64159 -9.19214,-4.7813 -16.58039,-8.82586 -16.41833,-8.98793 0.51625,-0.51624 12.65651,4.69644 22.84128,9.8074 9.01649,4.52468 28.79003,16.53871 28.79003,17.49227 0,0.57357 0.35175,0.74649 -9.5,-4.67015 z m 121.5,-24.43045 -8.5,-1.33728 12,0.67012 c 12.90798,0.72082 20.13996,0.63439 25.16899,-0.30081 4.88541,-0.90849 7.33101,-5.86927 7.33101,-14.87062 0,-6.91686 -0.12473,-7.30091 -2.90429,-8.94284 -3.88046,-2.29224 -5.78758,-2.1535 -10.94778,0.79643 -2.39364,1.36838 -5.41549,2.48796 -6.71521,2.48796 -1.29972,0 -3.95379,1.39662 -5.89792,3.10359 -1.94414,1.70698 -3.5348,2.60698 -3.5348,2 0,-2.58849 -23.64243,-0.19898 -24.67581,2.49396 -0.35102,0.91474 -1.06906,1.08439 -2.17415,0.51369 -5.06263,-2.61449 -25.85496,-2.26346 -28.6013,0.48287 -1.13488,1.13489 -1.83071,1.11193 -4.34708,-0.14339 -4.2715,-2.13091 -19.55375,-2.16932 -24.41954,-0.0614 -2.07033,0.8969 -6.05861,1.55231 -9,1.47901 -4.61124,-0.11493 -4.84241,-0.21018 -1.82009,-0.75 l 3.46203,-0.61836 -7.6015,-3.75 c -7.84035,-3.86783 -13.12735,-4.74624 -14.52287,-2.41291 -0.64529,1.07894 -1.86158,0.89486 -6.29969,-0.9534 -3.025,-1.25976 -4.74703,-2.31146 -3.82673,-2.33709 1.7633,-0.0491 8.21829,-4.98837 7.48174,-5.72492 -0.2362,-0.2362 -1.9427,0.49311 -3.79223,1.62069 -1.84953,1.12759 -4.17684,2.05184 -5.1718,2.05389 -0.99496,0.002 -1.59579,0.34874 -1.33519,0.77041 0.26061,0.42166 -5.45034,0.79652 -12.69098,0.83302 -9.64855,0.0486 -15.43512,0.61348 -21.66481,2.11477 -4.675,1.12663 -10.3,2.36005 -12.5,2.74095 -2.2,0.3809 -5.03809,1.3614 -6.30687,2.17888 l -2.30687,1.48634 1.57223,-3.04035 c 1.18858,-2.29846 3.82561,-4.12194 10.80687,-7.47284 13.11475,-6.29488 22.80846,-12.38025 42.23464,-26.51342 21.72736,-15.80736 20.3591,-14.84856 18.5,-12.9637 -0.825,0.83643 -5.70285,4.82131 -10.83966,8.8553 -10.76622,8.45481 -10.64358,9.71825 0.83974,8.65099 7.61529,-0.70777 13.80141,-2.64701 18.0151,-5.64742 2.66617,-1.89848 2.85191,-2.44543 2.46918,-7.27105 l -0.41387,-5.21814 1.10684,4.25 c 0.60876,2.3375 1.51322,4.25 2.00991,4.25 0.4967,0 4.25029,-2.25868 8.34133,-5.01928 13.55625,-9.14766 27.3678,-14.98072 35.47143,-14.98072 5.74812,0 13.11941,2.67356 17.89073,6.48895 2.4149,1.93108 4.9577,3.51105 5.65066,3.51105 0.69296,0 1.70813,-1.6875 2.25592,-3.75 l 0.99599,-3.75 0.10335,4.375 c 0.10317,4.36721 0.10901,4.37387 3.28043,3.73958 3.96344,-0.79268 3.71628,-0.50403 5.37723,-6.27993 l 1.39027,-4.83465 -0.23063,4.76425 c -0.18977,3.92019 0.0366,4.64824 1.27771,4.10941 8.25616,-3.58442 19.7137,-4.09687 22.79122,-1.01935 1.39045,1.39045 1.46334,2.2669 0.48979,5.88962 -1.50133,5.58666 -0.5682,6.39861 5.69269,4.95342 3.3938,-0.78338 5.84296,-0.84052 7.58805,-0.17704 4.40567,1.67503 6.9564,1.10588 11.73747,-2.61902 4.31741,-3.36366 6.65601,-7.40285 8.04854,-13.90129 0.23572,-1.1 0.48078,0.0423 0.54458,2.53856 0.0707,2.76756 -0.66442,6.06931 -1.884,8.46144 -2.40687,4.72094 -2.51174,6.8454 -0.44016,8.91699 1.40614,1.40613 1.92348,1.40883 5.25,0.0274 2.02959,-0.84286 5.49016,-2.66071 7.69016,-4.03967 l 4,-2.50721 -3,2.60444 c -1.65,1.43244 -4.575,3.46062 -6.5,4.50706 l -3.5,1.90261 4.78984,0.0442 c 6.16497,0.0569 11.52356,-2.68235 18.77156,-9.59577 l 5.65058,-5.38975 0.64401,6.16155 c 0.92609,8.86038 0.79282,19.86252 -0.28618,23.62477 -0.51161,1.78387 -0.62411,3.23224 -0.25,3.21861 0.3741,-0.0136 2.70519,-1.51244 5.18019,-3.33068 5.04797,-3.70845 9.52775,-9.65607 11.55606,-15.34252 0.74589,-2.0911 1.37591,-3.05182 1.40005,-2.13491 0.0702,2.66469 -3.43296,10.05772 -6.48373,13.68335 -6.41058,7.61854 -15.08814,10.85124 -24.53148,9.13883 -5.51115,-0.99936 -6.33638,-0.90798 -9.50929,1.05299 -5.15779,3.18769 -8.59895,8.26272 -9.19634,13.5628 l -0.51762,4.5923 3.09151,-1.59868 c 5.22537,-2.70214 4.78122,-1.7833 -1.0399,2.15131 -3.05139,2.0625 -8.69102,5.91579 -12.53251,8.56286 l -6.98453,4.81286 -10.87611,0.3543 c -6.09308,0.1985 -14.61419,-0.23379 -19.37611,-0.98298 z m -22.14641,-28.79921 c 10.73744,-1.69801 12.01109,-3.11377 12.32287,-13.69783 l 0.22093,-7.5 0.35158,7 c 0.34159,6.80127 0.45861,7.07625 4.12195,9.68593 5.27243,3.75597 8.0011,4.19785 14.41252,2.334 3.06931,-0.89227 7.97366,-1.59591 10.89856,-1.56364 2.9249,0.0323 8.14686,-0.21048 11.60435,-0.53946 7.63578,-0.72653 8.71227,-2.02275 9.68912,-11.66683 0.62718,-6.19181 0.52755,-6.75 -1.20475,-6.75 -1.03865,0 -2.7032,-0.59575 -3.69898,-1.32389 -1.37903,-1.00836 -6.01242,-1.25383 -19.44113,-1.02994 -9.69684,0.16168 -19.65561,0.66379 -22.13061,1.11582 -2.475,0.45203 -5.85,0.5583 -7.5,0.23617 -1.89644,-0.37025 -4.6145,0.11397 -7.38901,1.31635 -2.91922,1.2651 -5.57082,1.71028 -7.91809,1.32937 -2.61294,-0.42403 -6.66551,0.50567 -15.61099,3.58131 -10.75526,3.69787 -13.45447,4.22427 -24.58191,4.79392 -12.1965,0.62438 -12.67862,0.7379 -19.85685,4.67518 -6.44991,3.53779 -7.06631,4.11222 -5,4.65953 1.29627,0.34334 4.40547,1.25592 6.90934,2.02795 3.97721,1.2263 4.98814,1.21114 8,-0.12001 1.89613,-0.83804 5.02251,-1.4462 6.94751,-1.35148 3.7532,0.18467 8.27905,-3.06341 9.46203,-6.79065 0.53734,-1.693 1.37434,-1.18738 6.51067,3.93303 5.82714,5.80908 7.18849,6.51897 14.0273,7.3147 3.9911,0.46438 7.10122,0.18897 18.85359,-1.66953 z m 59.22536,-18.28116 c 0.048,-1.16495 0.28494,-1.4019 0.60416,-0.60417 0.28887,0.72187 0.25335,1.58437 -0.0789,1.91667 -0.3323,0.33229 -0.56864,-0.25834 -0.52522,-1.3125 z m -76.31862,46.50065 c -2.05682,-0.48498 -6.88512,-2.4658 -10.72955,-4.40182 -4.38461,-2.20805 -9.51337,-3.87312 -13.76033,-4.46734 l -6.77045,-0.94729 7.13913,0.30811 c 5.84941,0.25245 8.50086,0.98096 14.67691,4.03261 4.25785,2.10384 10.72431,4.30178 14.86087,5.0512 6.33612,1.1479 6.7166,1.32534 2.82309,1.31651 -2.475,-0.006 -6.18285,-0.407 -8.23967,-0.89198 z m 126.3459,-8.41732 c -0.22525,-3.58192 -4.73882,-11.89064 -9.16858,-16.8778 -4.30295,-4.8444 -4.31058,-4.86641 -1.11542,-3.21413 5.88785,3.04473 12.26229,14.88149 10.89018,20.22208 -0.44336,1.72566 -0.49011,1.71563 -0.60618,-0.13015 z m -166.29373,-2.18311 c 0.72187,-0.28888 1.58437,-0.25335 1.91667,0.079 0.33229,0.33229 -0.25834,0.56864 -1.3125,0.52522 -1.16495,-0.048 -1.4019,-0.28495 -0.60417,-0.60417 z m -23.8125,-4.81689 c -1.925,-0.74131 -2.825,-1.36178 -2,-1.37882 0.825,-0.017 2.85,0.58718 4.5,1.3427 3.86206,1.76841 2.0657,1.79436 -2.5,0.0361 z M 473.4502,378.50219 c 0.22917,-0.196 1.99167,-0.64537 3.91667,-0.9986 2.46242,-0.45185 3.05532,-0.35075 2,0.34104 -1.35564,0.88866 -6.90843,1.50578 -5.91667,0.65756 z m -55.08333,-5.2563 c 7.19509,-2.26233 15.85839,-3.38273 25,-3.23317 8.26989,0.13529 8.17431,0.15988 -3.53084,0.90828 -6.61696,0.42307 -14.78192,1.48209 -18.14435,2.35338 -7.45146,1.93087 -9.50049,1.91331 -3.32481,-0.0285 z m 109,-0.88734 c -1.375,-0.78602 -2.02351,-1.44508 -1.44113,-1.46456 0.58238,-0.0195 1.93238,0.62525 3,1.43276 2.46898,1.86744 1.68038,1.88353 -1.55887,0.0318 z m -73.1875,-1.18311 c 0.72187,-0.28887 1.58437,-0.25335 1.91667,0.0789 0.33229,0.33229 -0.25834,0.56864 -1.3125,0.52522 -1.16495,-0.048 -1.4019,-0.28494 -0.60417,-0.60416 z m 62.1875,-2.36347 c -1.925,-0.46194 -6.2,-1.28139 -9.5,-1.82102 l -6,-0.98113 7,0.56406 c 3.85,0.31024 8.8,1.13171 11,1.8255 4.50577,1.42093 2.84455,1.69509 -2.5,0.41259 z m -20.25,-1.6157 c 0.6875,-0.27741 1.8125,-0.27741 2.5,0 0.6875,0.27741 0.125,0.50439 -1.25,0.50439 -1.375,0 -1.9375,-0.22698 -1.25,-0.50439 z"
                 id="path3054"
                 inkscape:connector-curvature="0" />
            <path
                 style="fill:#323131"
                 d="m 430.17035,544.71531 c -11.94526,-1.36834 -14.04276,-2.91876 -2.80348,-2.07226 19.16733,1.4436 45.66028,0.7186 56.67917,-1.55108 23.15955,-4.77041 38.94307,-14.94583 48.57083,-31.31294 4.60154,-7.82258 4.92258,-6.92647 0.51573,1.43954 -4.70271,8.92769 -16.44378,20.20423 -25.81056,24.78937 -15.02255,7.35371 -28.7599,9.89885 -52.45517,9.71845 -9.35,-0.0712 -20.46343,-0.52617 -24.69652,-1.01108 z m -14.99098,-3.53987 c 0.72187,-0.28887 1.58437,-0.25335 1.91667,0.0789 0.33229,0.33229 -0.25834,0.56864 -1.3125,0.52522 -1.16495,-0.048 -1.4019,-0.28494 -0.60417,-0.60416 z m -83.3125,-42.90803 c -4.4,-2.43072 -15.06814,-8.11146 -23.70698,-12.62386 -8.63885,-4.5124 -15.547,-8.36435 -15.35145,-8.5599 1.44623,-1.44624 45.04636,21.51931 47.06965,24.79305 0.79963,1.29383 1.14977,1.45158 -8.01122,-3.60929 z m 128,-23.3931 c -2.45921,-0.43062 1.00758,-0.68722 9,-0.66614 7.15,0.0189 13.97982,-0.29704 15.17739,-0.70201 3.95219,-1.33645 6.32261,-6.95606 6.32261,-14.98916 0,-6.91686 -0.12473,-7.30091 -2.90429,-8.94284 -3.88046,-2.29224 -5.78758,-2.1535 -10.94778,0.79643 -2.39364,1.36838 -5.41549,2.48796 -6.71521,2.48796 -1.29972,0 -3.95379,1.39662 -5.89792,3.10359 -1.94414,1.70698 -3.5348,2.60698 -3.5348,2 0,-2.58849 -23.64243,-0.19898 -24.67581,2.49396 -0.35102,0.91474 -1.06906,1.08439 -2.17415,0.51369 -5.06263,-2.61449 -25.85496,-2.26346 -28.6013,0.48287 -1.13488,1.13489 -1.83071,1.11193 -4.34708,-0.14339 -4.2715,-2.13091 -19.55375,-2.16932 -24.41954,-0.0614 -2.04484,0.88585 -5.86984,1.5574 -8.5,1.49233 -3.93165,-0.0973 -4.25803,-0.23076 -1.83524,-0.75062 2.81073,-0.60309 2.59636,-0.80554 -4.63947,-4.38168 -7.67728,-3.79432 -12.48957,-4.66723 -14.52253,-2.63426 -0.82017,0.82016 -2.33455,0.64942 -5.72529,-0.64552 l -4.61016,-1.76063 2.77528,-1.69243 c 3.1159,-1.90013 5.98135,-5.00566 4.64773,-5.03713 -0.47984,-0.0113 3.06033,-1.35246 7.86705,-2.9803 4.80671,-1.62784 11.44421,-4.32505 14.75,-5.9938 3.30578,-1.66876 6.01051,-2.80883 6.01051,-2.53349 0,0.27533 -3.00157,2.0138 -6.67016,3.86327 -5.93594,2.99253 -6.40376,3.43314 -4.25,4.00284 1.33109,0.35208 4.46878,1.27181 6.97265,2.04384 3.97721,1.2263 4.98814,1.21114 8,-0.12001 1.89613,-0.83804 5.02251,-1.4462 6.94751,-1.35148 3.78918,0.18644 8.28166,-3.07165 9.49151,-6.88353 0.58361,-1.8388 1.09875,-1.56228 5.32729,2.85969 2.57466,2.69244 5.80679,5.59787 7.18252,6.45652 3.43118,2.14154 15.394,2.37802 26.35728,0.52103 11.29727,-1.91355 12.50429,-3.21909 12.81786,-13.86399 l 0.22093,-7.5 0.35158,7 c 0.34159,6.80127 0.45861,7.07625 4.12195,9.68593 5.27243,3.75597 8.0011,4.19785 14.41252,2.334 3.06931,-0.89227 7.97366,-1.59591 10.89856,-1.56364 2.9249,0.0323 8.14686,-0.21048 11.60435,-0.53946 7.63578,-0.72653 8.71227,-2.02275 9.68912,-11.66683 0.63603,-6.2792 0.5464,-6.75 -1.28509,-6.75 -1.08285,0 -3.03116,-0.89567 -4.3296,-1.99038 l -2.36078,-1.99037 4.02372,1.36618 c 3.8757,1.31592 9.82935,0.98986 14.97628,-0.82021 1.31153,-0.46124 1.13941,-0.17543 -0.5,0.83027 -1.375,0.8435 -1.95484,1.54958 -1.28854,1.56907 0.6663,0.0195 1.70898,1.94794 2.31708,4.28544 0.6081,2.3375 2.50666,6.33805 4.21903,8.89011 2.86717,4.27314 3.49922,4.67719 7.99178,5.10887 2.68311,0.25781 5.41439,1.04849 6.06951,1.75706 0.94496,1.02205 0.83197,1.16201 -0.54668,0.6772 -0.9558,-0.33612 -3.8808,-0.88945 -6.5,-1.22962 -4.44582,-0.57741 -5.04626,-0.37384 -9.0384,3.06431 -4.92309,4.23991 -6.89024,7.57199 -7.37848,12.49812 -0.34834,3.51462 -0.0406,3.71997 3.6547,2.43864 1.1,-0.38142 -0.25,0.83656 -3,2.70662 -2.75,1.87006 -7.60381,5.32504 -10.78625,7.67773 -4.32636,3.19835 -7.22786,4.51374 -11.5,5.21349 -6.35594,1.04107 -14.64243,1.02636 -20.71375,-0.0368 z m -45.25311,-1.56187 c -2.88922,-0.77797 -7.84043,-2.76104 -11.0027,-4.40683 -3.16227,-1.64578 -8.22337,-3.43939 -11.24689,-3.9858 l -5.4973,-0.99346 6,0.4777 c 4.10826,0.32709 7.89174,1.47269 12,3.63348 3.3,1.73567 9.15,3.94733 13,4.91478 3.85,0.96745 5.875,1.76252 4.5,1.76681 -1.375,0.004 -4.8639,-0.62871 -7.75311,-1.40668 z m 34.50311,-0.15962 c 1.2375,-0.23836 3.2625,-0.23836 4.5,0 1.2375,0.23835 0.225,0.43337 -2.25,0.43337 -2.475,0 -3.4875,-0.19502 -2.25,-0.43337 z m 92.31918,-8.29427 c -0.19755,-3.34009 -5.43849,-12.76492 -9.37651,-16.86187 l -4.19267,-4.36188 3.26972,1.64775 c 1.79834,0.90626 4.54633,3.41007 6.10663,5.56401 3.03261,4.18639 5.68352,12.00255 4.81127,14.18596 -0.39953,1.00013 -0.55153,0.95737 -0.61844,-0.17397 z M 296.36687,453.23562 c 9.16712,-2.90331 21.26304,-4.46531 29.27197,-3.78001 4.27459,0.36576 7.94395,0.94355 8.15415,1.28398 0.2102,0.34043 -5.76219,0.65301 -13.27197,0.69462 -9.15577,0.0507 -15.89839,0.62727 -20.4662,1.75 -8.14329,2.00154 -9.92381,2.02637 -3.68795,0.0514 z m -11,-0.99167 c 0,-0.2725 2.52271,-1.61112 5.60602,-2.97471 11.52272,-5.09589 30.23069,-17.21783 50.88145,-32.96893 1.93189,-1.47353 3.51253,-2.43427 3.51253,-2.13499 0,0.79729 -26.48697,21.6424 -33.5,26.36432 -3.3,2.22192 -7.54867,4.836 -9.44149,5.80908 -4.14947,2.1332 -17.05851,6.60199 -17.05851,5.90523 z m 54.5,-5.3854 c 0.33992,-0.55 1.06803,-1 1.61803,-1 0.55,0 0.72189,0.45 0.38197,1 -0.33992,0.55 -1.06803,1 -1.61803,1 -0.55,0 -0.72189,-0.45 -0.38197,-1 z m 195.4026,-7.77882 c 6.18015,-3.09353 12.66464,-10.07543 15.23181,-16.40021 0.96462,-2.37653 1.77899,-3.7306 1.80972,-3.00905 0.11052,2.59519 -4.9367,11.78745 -8.15686,14.85568 -3.64955,3.47736 -10.43444,7.35264 -12.77246,7.29515 -0.83315,-0.0205 0.91636,-1.25419 3.88779,-2.74157 z m -157.1526,-6.88346 c 0.6875,-0.27741 1.8125,-0.27741 2.5,0 0.6875,0.27741 0.125,0.50438 -1.25,0.50438 -1.375,0 -1.9375,-0.22697 -1.25,-0.50438 z m 11.75,-0.35257 c 3.85,-0.49409 11.70039,-2.25498 17.44531,-3.9131 5.74493,-1.65811 10.62323,-2.83685 10.84067,-2.6194 0.21745,0.21745 -4.03294,1.83828 -9.44531,3.60184 -6.91781,2.2541 -12.21682,3.29894 -17.84067,3.51775 l -8,0.31126 7,-0.89835 z m 101.57895,-4.56848 c 0.048,-1.16495 0.28494,-1.4019 0.60416,-0.60417 0.28887,0.72187 0.25335,1.58437 -0.0789,1.91667 -0.3323,0.33229 -0.56864,-0.25834 -0.52522,-1.3125 z m -60.57895,-3.89575 c 2.75,-0.73926 5.13547,-1.21091 5.30105,-1.04813 0.55181,0.54251 -6.06818,2.52822 -8.20027,2.45972 -1.15543,-0.0371 0.14922,-0.67234 2.89922,-1.41159 z m 11,-1.40734 c -2.40008,-0.32163 -1.70018,-0.66081 3.5,-1.69614 7.79176,-1.5513 13.23542,-1.78762 11,-0.47754 -2.23259,1.30843 -11.07033,2.63328 -14.5,2.17368 z m 32.75,-1.80291 c 0.9625,-0.25152 2.5375,-0.25152 3.5,0 0.9625,0.25153 0.175,0.45733 -1.75,0.45733 -1.925,0 -2.7125,-0.2058 -1.75,-0.45733 z m 34.75,-1.7403 c 0,-0.275 0.9,-0.98167 2,-1.57037 1.1,-0.5887 2,-0.84537 2,-0.57037 0,0.275 -0.9,0.98167 -2,1.57037 -1.1,0.5887 -2,0.84537 -2,0.57037 z m -163,-4.94793 c 0,-0.20765 0.7875,-0.99515 1.75,-1.75 1.58606,-1.24387 1.62143,-1.2085 0.37755,0.37756 -1.30636,1.66575 -2.12755,2.19548 -2.12755,1.37244 z m 127.08333,-34.9788 c 0.22917,-0.196 1.99167,-0.64537 3.91667,-0.9986 2.46242,-0.45185 3.05532,-0.35075 2,0.34104 -1.35564,0.88866 -6.90843,1.50578 -5.91667,0.65756 z m -55.08333,-5.2563 c 7.19509,-2.26233 15.85839,-3.38273 25,-3.23317 8.26989,0.13529 8.17431,0.15988 -3.53084,0.90828 -6.61696,0.42307 -14.78192,1.48209 -18.14435,2.35338 -7.45146,1.93087 -9.50049,1.91331 -3.32481,-0.0285 z m 109,-0.88734 c -1.375,-0.78602 -2.02351,-1.44508 -1.44113,-1.46456 0.58238,-0.0195 1.93238,0.62525 3,1.43276 2.46898,1.86744 1.68038,1.88353 -1.55887,0.0318 z m -73.1875,-1.18311 c 0.72187,-0.28887 1.58437,-0.25335 1.91667,0.0789 0.33229,0.33229 -0.25834,0.56864 -1.3125,0.52522 -1.16495,-0.048 -1.4019,-0.28494 -0.60417,-0.60416 z m 62.1875,-2.36347 c -1.925,-0.46194 -6.2,-1.28139 -9.5,-1.82102 l -6,-0.98113 7,0.56406 c 3.85,0.31024 8.8,1.13171 11,1.8255 4.50577,1.42093 2.84455,1.69509 -2.5,0.41259 z m -20.25,-1.6157 c 0.6875,-0.27741 1.8125,-0.27741 2.5,0 0.6875,0.27741 0.125,0.50439 -1.25,0.50439 -1.375,0 -1.9375,-0.22698 -1.25,-0.50439 z"
                 id="path3052"
                 inkscape:connector-curvature="0" />
            <path
                 style="fill:#000000"
                 d="m 433.0269,544.79581 c -4.86198,-0.43113 -9.01821,-0.96211 -9.23606,-1.17995 -0.21784,-0.21785 10.73514,-0.37191 24.33997,-0.34236 13.60484,0.0296 26.53606,-0.28063 28.73606,-0.68929 13.73787,-2.55191 17.76752,-3.38525 18.25,-3.77415 0.1375,-0.11083 0.7,-0.31401 1.25,-0.45151 0.55,-0.1375 1.225,-0.3625 1.5,-0.5 0.275,-0.1375 0.8405,-0.30625 1.25666,-0.375 1.5389,-0.25423 12.75489,-6.15098 13.07667,-6.875 0.18334,-0.4125 0.97084,-0.75 1.75,-0.75 0.77917,0 1.41667,-0.45 1.41667,-1 0,-0.55 0.58603,-1 1.30229,-1 0.71626,0 4.4079,-3.2625 8.20365,-7.25 6.13925,-6.4494 6.51998,-6.70979 3.44771,-2.35806 -9.44465,13.37792 -27.28818,22.7477 -49.77523,26.13736 -10.22207,1.54086 -30.67508,1.72417 -45.51839,0.40796 z m 98.33997,-32.64815 c 0,-0.57432 0.7875,-1.66182 1.75,-2.41667 1.61876,-1.26951 1.63998,-1.22245 0.28297,0.62756 -0.80687,1.1 -1.59437,2.1875 -1.75,2.41667 -0.15563,0.22916 -0.28297,-0.0532 -0.28297,-0.62756 z m -192.55,-10.18355 c -0.5225,-0.49194 -8.15,-4.6261 -16.95,-9.18702 -20.94398,-10.85497 -30.18452,-15.88714 -29.2053,-15.90447 3.89338,-0.0689 45.259,21.83676 47.21652,25.00408 0.75761,1.22585 0.19698,1.27203 -1.06122,0.0874 z m 121.05,-27.0898 c -2.45921,-0.43062 1.00758,-0.68722 9,-0.66614 7.15,0.0189 13.99016,-0.30032 15.20035,-0.70929 4.09866,-1.3851 6.29965,-6.58858 6.29965,-14.89335 0,-6.88599 -0.20689,-7.65252 -2.46482,-9.13197 -3.23002,-2.11639 -6.27912,-2.03979 -10.8129,0.27167 -2.03534,1.03767 -5.16798,2.16451 -6.96144,2.5041 -1.79346,0.33958 -4.59411,1.68458 -6.22366,2.98889 -2.29195,1.83448 -3.34393,2.13345 -4.64593,1.32034 -2.12218,-1.32532 -21.44654,1.05922 -22.91408,2.8275 -0.69691,0.83973 -2.27049,0.95392 -5.23673,0.38002 -2.33224,-0.45124 -8.62794,-0.84003 -13.99044,-0.86398 -8.2968,-0.0371 -10.03443,0.24088 -11.65835,1.8648 -1.68583,1.68583 -2.14375,1.74346 -3.92724,0.49426 -1.1543,-0.80851 -5.79724,-1.67271 -10.84165,-2.01799 -7.55158,-0.5169 -9.58451,-0.29995 -14.10978,1.50573 -2.90786,1.16031 -7.18286,2.05041 -9.5,1.97801 -4.17836,-0.13056 -4.18505,-0.13672 -0.81392,-0.75 3.39334,-0.61732 3.38491,-0.62552 -5.00157,-4.86836 -9.12486,-4.6164 -11.33394,-5.03346 -14.58814,-2.75412 -1.92042,1.34511 -2.57275,1.30184 -6.47251,-0.42937 -2.38526,-1.05888 -3.58387,-1.95702 -2.66357,-1.99587 2.19327,-0.0926 8.23002,-5.18942 7.06904,-5.96839 -0.49368,-0.33124 3.41235,-2.03587 8.68005,-3.78808 5.2677,-1.7522 8.74189,-2.56731 7.72041,-1.81135 -1.68812,1.24933 -1.22635,1.5661 5.0714,3.47898 6.93131,2.10532 11.05461,1.81938 12.7244,-0.88241 0.4299,-0.69558 1.3787,-0.68414 2.95853,0.0357 3.02193,1.37689 8.11852,-1.12901 10.40737,-5.1171 l 1.63028,-2.84059 6.20014,5.79993 6.20015,5.79993 7.83248,0.68788 c 4.88516,0.42903 8.89179,0.2828 10.64758,-0.38862 1.5483,-0.59207 4.6983,-1.12135 7,-1.17618 6.37888,-0.15193 8.96887,-1.19797 11.21358,-4.52889 l 2.05116,-3.04372 4.45189,3.41761 c 3.97658,3.05273 4.93319,3.3578 8.96008,2.85738 2.4795,-0.30812 8.10819,-0.82678 12.50819,-1.15256 4.4,-0.32579 8.675,-0.83739 9.5,-1.1369 4.39964,-1.59722 8.05362,-1.139 11.05476,1.3863 3.92238,3.30046 8.67544,3.34689 11.31026,0.11046 1.61209,-1.98017 1.79344,-3.38085 1.27015,-9.81 -0.96391,-11.84241 -0.92236,-11.77513 -7.18046,-11.62714 -3.95755,0.0936 -5.84843,-0.34546 -7.1655,-1.66378 -1.71949,-1.72113 -1.63242,-1.73571 2.23451,-0.37419 3.8869,1.36855 9.75357,1.06705 14.97628,-0.76967 1.31153,-0.46124 1.13941,-0.17543 -0.5,0.83028 -1.375,0.8435 -1.95484,1.54958 -1.28854,1.56907 0.6663,0.0195 1.70898,1.94793 2.31708,4.28543 0.6081,2.3375 2.50666,6.33805 4.21903,8.89012 2.86717,4.27314 3.49922,4.67718 7.99178,5.10886 2.68311,0.25781 5.41439,1.04849 6.06951,1.75707 0.94496,1.02205 0.83197,1.16201 -0.54668,0.67719 -0.9558,-0.33612 -3.8808,-0.88944 -6.5,-1.22962 -4.44582,-0.57741 -5.04626,-0.37384 -9.0384,3.06431 -4.92309,4.23991 -6.89024,7.572 -7.37848,12.49812 -0.34834,3.51462 -0.0406,3.71997 3.6547,2.43865 1.1,-0.38142 -0.25,0.83656 -3,2.70662 -2.75,1.87006 -7.60381,5.32503 -10.78625,7.67772 -4.32636,3.19835 -7.22786,4.51374 -11.5,5.21349 -6.35594,1.04107 -14.64243,1.02636 -20.71375,-0.0368 z m -45.25311,-1.56187 c -2.88922,-0.77797 -7.84043,-2.76104 -11.0027,-4.40683 -3.16227,-1.64578 -8.22337,-3.43939 -11.24689,-3.9858 l -5.4973,-0.99346 6,0.4777 c 4.10826,0.32709 7.89174,1.47269 12,3.63348 3.3,1.73567 9.15,3.94733 13,4.91478 3.85,0.96745 5.875,1.76252 4.5,1.76681 -1.375,0.004 -4.8639,-0.62871 -7.75311,-1.40668 z m 34.50311,-0.15962 c 1.2375,-0.23836 3.2625,-0.23836 4.5,0 1.2375,0.23835 0.225,0.43337 -2.25,0.43337 -2.475,0 -3.4875,-0.19502 -2.25,-0.43337 z m 91.75,-10.29427 c -0.33992,-0.55 -0.14148,-1 0.44098,-1 0.58246,0 1.05902,0.45 1.05902,1 0,0.55 -0.19844,1 -0.44098,1 -0.24254,0 -0.7191,-0.45 -1.05902,-1 z m -0.87593,-2.79925 c -0.40816,-0.66041 -0.4584,-1.20075 -0.11166,-1.20075 0.34675,0 -0.0767,-0.70714 -0.94098,-1.57143 -0.86429,-0.86428 -1.57143,-2.15134 -1.57143,-2.86012 0,-0.70878 -1.575,-2.95868 -3.5,-4.99977 -4.22692,-4.48185 -4.46089,-5.38908 -0.69898,-2.71037 3.05295,2.17389 8.58873,11.47244 7.95745,13.36627 -0.29775,0.89327 -0.57115,0.88753 -1.1344,-0.0238 z m -243.62407,-6.82368 c 9.16712,-2.90331 21.26304,-4.46531 29.27197,-3.78001 4.27459,0.36576 7.94395,0.94355 8.15415,1.28398 0.2102,0.34043 -5.76219,0.65301 -13.27197,0.69462 -9.15577,0.0507 -15.89839,0.62727 -20.4662,1.75 -8.14329,2.00154 -9.92381,2.02637 -3.68795,0.0514 z m -11,-0.87345 c 0,-0.20748 4.34746,-2.50615 9.66103,-5.10816 5.31356,-2.60201 15.32606,-8.53317 22.25,-13.18037 10.63899,-7.14066 15.46603,-10.64563 26.83897,-19.4881 0.6875,-0.53454 1.25,-0.72533 1.25,-0.42398 0,0.80013 -26.46899,21.63406 -33.5,26.36808 -3.3,2.22192 -7.54867,4.836 -9.44149,5.80908 -3.76599,1.93606 -17.05851,6.62972 -17.05851,6.02345 z m 54.5,-5.50362 c 0.33992,-0.55 1.06803,-1 1.61803,-1 0.55,0 0.72189,0.45 0.38197,1 -0.33992,0.55 -1.06803,1 -1.61803,1 -0.55,0 -0.72189,-0.45 -0.38197,-1 z m 191.5,-6 c 0.825,-0.53316 2.175,-0.94464 3,-0.9144 0.98906,0.0362 0.81874,0.34772 -0.5,0.9144 -2.74909,1.18132 -4.32797,1.18132 -2.5,0 z m 5.03161,-1.71482 c 0.0174,-0.43185 2.0873,-2.03333 4.59981,-3.55884 2.51251,-1.52552 4.80077,-3.66302 5.08502,-4.75 0.28425,-1.08699 0.93017,-1.97634 1.43538,-1.97634 1.37571,0 -0.5637,3.11454 -3.81576,6.12781 -3.21742,2.98117 -7.35183,5.3343 -7.30445,4.15737 z m -158.28161,-6.94746 c 0.6875,-0.27741 1.8125,-0.27741 2.5,0 0.6875,0.27741 0.125,0.50438 -1.25,0.50438 -1.375,0 -1.9375,-0.22697 -1.25,-0.50438 z m 11.4309,-0.37983 c 3.6745,-0.42859 7.612,-1.07477 8.75,-1.43596 1.13801,-0.36119 2.0691,-0.23755 2.0691,0.27476 0,1.09514 -7.52418,2.25942 -13.38957,2.07188 -3.14313,-0.10049 -2.53823,-0.3148 2.57047,-0.91068 z m 12.3191,-1.95789 c 0.33992,-0.55 1.37898,-0.99311 2.30902,-0.98469 1.45727,0.0132 1.48367,0.14929 0.19098,0.98469 -1.95837,1.2656 -3.28218,1.2656 -2.5,0 z m 4.5,-1 c 0,-0.55 0.47656,-1 1.05902,-1 0.58246,0 0.7809,0.45 0.44098,1 -0.33992,0.55 -0.81648,1 -1.05902,1 -0.24254,0 -0.44098,-0.45 -0.44098,-1 z m 3,-1 c 0,-0.55 0.47656,-1 1.05902,-1 0.58246,0 0.7809,0.45 0.44098,1 -0.33992,0.55 -0.81648,1 -1.05902,1 -0.24254,0 -0.44098,-0.45 -0.44098,-1 z m 3,-1 c 0,-0.55 0.47656,-1 1.05902,-1 0.58246,0 0.7809,0.45 0.44098,1 -0.33992,0.55 -0.81648,1 -1.05902,1 -0.24254,0 -0.44098,-0.45 -0.44098,-1 z m 33.5,-6.60701 c 3.85,-0.78049 8.125,-1.28339 9.5,-1.11755 4.40629,0.53145 -4.78524,2.72489 -11,2.62502 l -5.5,-0.0884 7,-1.41908 z m 28.75,-0.0823 c 0.9625,-0.25153 2.5375,-0.25153 3.5,0 0.9625,0.25153 0.175,0.45732 -1.75,0.45732 -1.925,0 -2.7125,-0.20579 -1.75,-0.45732 z m 34.75,-1.7403 c 0,-0.275 0.9,-0.98167 2,-1.57037 1.1,-0.5887 2,-0.84537 2,-0.57037 0,0.275 -0.9,0.98167 -2,1.57037 -1.1,0.5887 -2,0.84537 -2,0.57037 z m -163,-4.94793 c 0,-0.20765 0.7875,-0.99515 1.75,-1.75 1.58606,-1.24387 1.62143,-1.2085 0.37755,0.37756 -1.30636,1.66575 -2.12755,2.19548 -2.12755,1.37244 z M 474.6359,378.16556 c 0.97297,-0.25354 2.32297,-0.23687 3,0.037 0.67703,0.27392 -0.11903,0.48137 -1.76903,0.46099 -1.65,-0.0204 -2.20394,-0.2445 -1.23097,-0.49805 z m -47,-7 c 0.97297,-0.25354 2.32297,-0.23687 3,0.037 0.67703,0.27393 -0.11903,0.48137 -1.76903,0.46099 -1.65,-0.0204 -2.20394,-0.2445 -1.23097,-0.49804 z m 10.01114,-1.04328 c 2.6291,-0.20668 6.6791,-0.20418 9,0.006 2.32091,0.20972 0.16983,0.37882 -4.78017,0.37577 -4.95,-0.003 -6.84892,-0.17464 -4.21983,-0.38131 z m 74.53233,-2.94684 c 0.72187,-0.28887 1.58438,-0.25335 1.91667,0.0789 0.33229,0.33229 -0.25834,0.56864 -1.3125,0.52522 -1.16495,-0.048 -1.4019,-0.28494 -0.60417,-0.60416 z"
                 id="path3050"
                 inkscape:connector-curvature="0" />
            <path
                 style="fill:#000000"
                 d="m 433.0269,544.79581 c -4.86198,-0.43113 -9.0133,-0.9572 -9.22515,-1.16904 -0.21184,-0.21185 10.74114,-0.35886 24.33997,-0.3267 22.38203,0.0529 28.39078,-0.2674 36.22515,-1.93121 1.375,-0.29201 3.85,-0.76596 5.5,-1.05322 11.19796,-1.94953 24.21294,-9.16774 33.87223,-18.78581 6.78565,-6.7567 7.40677,-7.18637 4.5,-3.11302 -9.46081,13.25775 -27.33911,22.60133 -49.69381,25.97104 -10.22207,1.54086 -30.67508,1.72417 -45.51839,0.40796 z m 98.33997,-32.64815 c 0,-0.57432 0.7875,-1.66182 1.75,-2.41667 1.61876,-1.26951 1.63998,-1.22245 0.28297,0.62756 -0.80687,1.1 -1.59437,2.1875 -1.75,2.41667 -0.15563,0.22916 -0.28297,-0.0532 -0.28297,-0.62756 z m -199,-13.82317 c -2.475,-1.36697 -12.15,-6.52156 -21.5,-11.45464 -9.35,-4.93308 -16.70238,-8.9787 -16.33862,-8.99027 3.21185,-0.10214 34.12698,15.79203 40.83862,20.99606 3.36962,2.61272 2.4088,2.4362 -3,-0.55115 z m 128.5,-23.46594 -4,-0.71619 4,-0.043 c 2.2,-0.0236 6.475,0.29913 9.5,0.7173 l 5.5,0.7603 -5.5,-10e-4 c -3.025,-6.1e-4 -7.3,-0.3234 -9.5,-0.7173 z m 18.5,-0.66614 c 6.08791,-0.9589 7.03723,-1.54124 9.57685,-5.87478 2.39799,-4.09186 2.58443,-5.12874 1.96397,-10.92246 -0.55951,-5.22464 -1.12534,-6.68959 -3.07799,-7.96902 -3.15893,-2.06981 -6.23408,-1.97845 -10.74055,0.31908 -2.03534,1.03767 -5.16798,2.16451 -6.96144,2.5041 -1.79346,0.33958 -4.59411,1.68458 -6.22366,2.98889 -2.29195,1.83448 -3.34393,2.13345 -4.64593,1.32034 -2.12218,-1.32532 -21.44654,1.05922 -22.91408,2.8275 -0.69691,0.83973 -2.27049,0.95392 -5.23673,0.38002 -2.33224,-0.45124 -8.62794,-0.84003 -13.99044,-0.86398 -8.2968,-0.0371 -10.03443,0.24088 -11.65835,1.8648 -1.68583,1.68583 -2.14375,1.74346 -3.92724,0.49426 -1.15475,-0.80883 -5.79525,-1.67208 -10.84165,-2.01684 -7.41731,-0.50674 -9.61925,-0.28549 -13.82276,1.38889 l -5,1.99165 -9.41927,-4.88316 c -9.92719,-5.14647 -12.40171,-5.71088 -15.60822,-3.56007 -1.66658,1.11788 -2.67045,1.04877 -6.47251,-0.44561 -2.475,-0.97279 -3.67716,-1.79318 -2.67147,-1.82309 1.00569,-0.0299 3.6648,-1.85438 5.90913,-4.05438 2.24434,-2.2 4.69294,-4 5.44135,-4 0.7484,0 4.16429,-1.11741 7.59086,-2.48313 3.42657,-1.36573 5.39438,-1.84334 4.3729,-1.06136 -1.70263,1.30344 -1.28051,1.59695 5.0714,3.52629 6.93131,2.10532 11.05461,1.81938 12.7244,-0.88241 0.4299,-0.69558 1.3787,-0.68414 2.95853,0.0357 3.02193,1.37689 8.11852,-1.12901 10.40737,-5.1171 l 1.63028,-2.84059 6.20014,5.79993 6.20015,5.79993 7.83248,0.68788 c 4.88516,0.42903 8.89179,0.28279 10.64758,-0.38862 1.5483,-0.59207 4.6983,-1.12135 7,-1.17618 6.37888,-0.15193 8.96887,-1.19797 11.21358,-4.5289 l 2.05116,-3.04371 4.45189,3.41761 c 3.97658,3.05273 4.93319,3.3578 8.96008,2.85738 2.4795,-0.30812 8.10819,-0.82678 12.50819,-1.15257 4.4,-0.32578 8.675,-0.83738 9.5,-1.13689 4.39964,-1.59722 8.05362,-1.139 11.05476,1.3863 3.92238,3.30046 8.67544,3.34688 11.31026,0.11046 1.61209,-1.98017 1.79344,-3.38085 1.27015,-9.81 -0.95533,-11.73708 -1.20777,-12.248 -5.67819,-11.49273 -2.57342,0.43478 -4.75971,0.12899 -6.86629,-0.96037 -4.26711,-2.20661 -3.88649,-2.90624 0.56844,-1.04486 3.39212,1.41732 6.4179,1.38083 12.84087,-0.15486 1.63324,-0.3905 1.72493,-0.2856 0.5,0.572 -1.01513,0.71072 -1.09594,1.05515 -0.25,1.06551 0.6875,0.008 1.25,0.87801 1.25,1.93241 0,2.86313 3.3739,10.18537 6.29002,13.65098 l 2.56897,3.05306 -3.17949,1.78972 c -4.62506,2.60342 -8.42409,7.60551 -9.86338,12.98685 -1.00408,3.75411 -1.00719,4.86617 -0.0153,5.47917 0.83198,0.5142 -1.33165,2.60804 -6.52819,6.31762 -9.93163,7.08976 -11.43277,7.83459 -15.45686,7.66932 -2.6139,-0.10736 -2.78657,-0.21953 -0.81574,-0.52996 z m -68.39491,-1.90214 c -2.14221,-0.78505 -4.47892,-1.91205 -5.19271,-2.50444 -0.71379,-0.59239 -3.46108,-1.92232 -6.10509,-2.9554 -2.64401,-1.03308 -4.00856,-1.89938 -3.03233,-1.92511 0.97623,-0.0257 4.91838,1.53623 8.76033,3.471 3.84195,1.93478 8.66822,3.91457 10.72504,4.39955 2.67085,0.62976 3.02516,0.89035 1.23967,0.91177 -1.375,0.0165 -4.25271,-0.61233 -6.39491,-1.39737 z m 39.66394,0.87529 c 0.97297,-0.25354 2.32297,-0.23687 3,0.037 0.67703,0.27393 -0.11903,0.48137 -1.76903,0.46099 -1.65,-0.0204 -2.20394,-0.2445 -1.23097,-0.49804 z m -60.51903,-8.96929 c 0.6875,-0.27741 1.8125,-0.27741 2.5,0 0.6875,0.27741 0.125,0.50438 -1.25,0.50438 -1.375,0 -1.9375,-0.22697 -1.25,-0.50438 z m -24.9375,-2.02083 c 0.72187,-0.28887 1.58437,-0.25335 1.91667,0.079 0.33229,0.33229 -0.25834,0.56864 -1.3125,0.52522 -1.16495,-0.048 -1.4019,-0.28495 -0.60417,-0.60417 z m 174.87852,-2.84268 c -1.05936,-3.17116 -5.3431,-9.85824 -6.57912,-10.27024 -0.62415,-0.20805 -1.63174,-1.30678 -2.23909,-2.44162 l -1.10427,-2.06335 2.91675,2.0769 c 3.1627,2.25205 8.71431,11.5253 8.06536,13.47215 -0.22426,0.67279 -0.68998,0.33268 -1.05963,-0.77384 z m -239.87852,-7.15732 c 0.72188,-0.28888 1.58438,-0.25335 1.91667,0.079 0.33229,0.33229 -0.25834,0.56864 -1.3125,0.52522 -1.16495,-0.048 -1.4019,-0.28495 -0.60417,-0.60417 z m -12.8125,-0.79081 c 0,-0.19512 3.75095,-2.17033 8.33545,-4.38936 8.13514,-3.93763 27.95597,-16.72642 40.1031,-25.87532 3.3338,-2.51093 5.16145,-3.64519 4.06145,-2.52058 -3.46467,3.54217 -21.65656,17.36812 -30.23897,22.98179 -6.68261,4.37103 -22.26103,11.23157 -22.26103,9.80347 z m 20,-0.78131 c 4.36507,-1.05151 25.08139,-1.06524 26.12226,-0.0173 0.42203,0.4249 -6.07033,0.79231 -14.42747,0.81648 -10.26056,0.0297 -14.05823,-0.22984 -11.69479,-0.79918 z m 215.5,-8.74477 c -1.92824,-0.82859 -1.92138,-0.86195 0.19098,-0.92972 1.20504,-0.0387 2.4691,0.37972 2.80902,0.92972 0.731,1.18278 -0.24752,1.18278 -3,0 z m 15.99894,-4.22173 c 1.64942,-1.25305 4.5379,-3.85327 6.41884,-5.77827 1.88094,-1.925 2.93264,-2.6 2.33711,-1.5 -1.46191,2.7003 -6.19206,6.99662 -9.25489,8.40608 -2.12593,0.97832 -2.05127,0.80957 0.49894,-1.12781 z m -146.99894,-5.89251 c 3.3,-0.4787 6.5625,-1.0847 7.25,-1.34667 0.6875,-0.26198 1.25,-0.10161 1.25,0.35637 0,0.90227 -7.66277,2.18005 -11.88957,1.9826 -1.43574,-0.0671 0.0896,-0.5136 3.38957,-0.9923 z m 54.5,-11.34313 c 9.78038,-1.81309 10.71024,-1.85287 9.25323,-0.39586 -0.63072,0.63072 -4.65822,1.29064 -8.95,1.46649 l -7.80323,0.31972 7.5,-1.39035 z m -104,-3.92019 c 0,-0.20765 0.7875,-0.99515 1.75,-1.75 1.58606,-1.24387 1.62143,-1.2085 0.37755,0.37756 -1.30636,1.66575 -2.12755,2.19548 -2.12755,1.37244 z m 85.26903,-45.31543 c 0.97297,-0.25354 2.32297,-0.23687 3,0.037 0.67703,0.27393 -0.11903,0.48137 -1.76903,0.46099 -1.65,-0.0204 -2.20394,-0.2445 -1.23097,-0.49804 z m 10.01114,-1.04328 c 2.6291,-0.20668 6.6791,-0.20418 9,0.006 2.32091,0.20972 0.16983,0.37882 -4.78017,0.37577 -4.95,-0.003 -6.84892,-0.17464 -4.21983,-0.38131 z m 74.53233,-2.94684 c 0.72187,-0.28887 1.58438,-0.25335 1.91667,0.0789 0.33229,0.33229 -0.25834,0.56864 -1.3125,0.52522 -1.16495,-0.048 -1.4019,-0.28494 -0.60417,-0.60416 z"
                 id="path3048"
                 inkscape:connector-curvature="0" />
            <path
                 style="fill:#030202"
                 d="m 433.0269,544.79581 c -4.86198,-0.43113 -8.987,-0.93088 -9.16669,-1.11056 -0.1797,-0.17969 11.89829,-0.32891 26.83997,-0.33161 32.0656,-0.006 39.59738,-1.23994 55.66669,-9.12141 7.78408,-3.81784 10.9259,-6.09929 17.39432,-12.631 6.65513,-6.72025 7.3615,-7.22493 4.5,-3.21518 -9.48432,13.29014 -27.34025,22.62893 -49.7159,26.0018 -10.22207,1.54086 -30.67508,1.72417 -45.51839,0.40796 z M 313.86687,488.32812 c -9.9,-5.19022 -17.55,-9.43767 -17,-9.43879 2.63041,-0.005 35.5,17.2009 35.5,18.58319 0,0.5772 0.75774,0.95175 -18.5,-9.1444 z m 166.3125,-14.15268 c 0.72187,-0.28887 1.58437,-0.25335 1.91667,0.0789 0.33229,0.3323 -0.25834,0.56864 -1.3125,0.52522 -1.16495,-0.048 -1.4019,-0.28494 -0.60417,-0.60416 z m 8.1875,-2.6807 c 0,-0.275 1.35,-1.46129 3,-2.63619 1.65,-1.1749 3,-1.91119 3,-1.63619 0,0.275 -1.35,1.46129 -3,2.63619 -1.65,1.1749 -3,1.91119 -3,1.63619 z m -86,-3.63619 c -1.925,-1.05389 -3.14015,-1.93503 -2.70034,-1.95808 1.0597,-0.0555 6.70034,2.87723 6.70034,3.48376 0,0.65451 -0.0585,0.63219 -4,-1.52568 z m 93,-1.37756 c 0,-0.20765 0.7875,-0.99515 1.75,-1.75 1.58606,-1.24387 1.62143,-1.2085 0.37756,0.37756 -1.30637,1.66575 -2.12756,2.19548 -2.12756,1.37244 z m -132.9174,-8.73611 c -9.98757,-5.18218 -11.52377,-5.5537 -15.49049,-3.74635 -1.91218,0.87125 -3.22591,0.84013 -5.57284,-0.132 l -3.07084,-1.27198 4.21235,-3.618 c 2.31679,-1.9899 6.79587,-4.56207 9.95352,-5.71594 l 5.74117,-2.09795 7.0638,2.36912 c 7.1878,2.41071 10.98803,2.34832 13.11565,-0.21531 0.8381,-1.00984 1.68754,-1.08587 3.40241,-0.30452 2.97936,1.35749 8.0951,-1.17663 10.36714,-5.13543 l 1.63028,-2.8406 6.20014,5.79993 6.20015,5.79994 7.83248,0.68787 c 4.88516,0.42904 8.89179,0.2828 10.64758,-0.38862 1.5483,-0.59207 4.6983,-1.12135 7,-1.17617 6.37888,-0.15194 8.96887,-1.19798 11.21358,-4.5289 l 2.05116,-3.04371 4.45189,3.4176 c 3.97658,3.05274 4.93319,3.3578 8.96008,2.85739 2.4795,-0.30813 8.10819,-0.82678 12.50819,-1.15257 4.4,-0.32579 8.675,-0.83739 9.5,-1.13689 4.38822,-1.59308 8.05408,-1.13861 11.03272,1.36775 l 3.06871,2.58214 -2.22549,2.36893 c -2.0559,2.1884 -2.40001,2.25458 -4.51553,0.86843 -3.0584,-2.00394 -6.17173,-1.89092 -10.63813,0.38619 -2.03534,1.03767 -5.16798,2.16451 -6.96144,2.5041 -1.79346,0.33958 -4.59411,1.68458 -6.22366,2.98889 -2.29195,1.83448 -3.34393,2.13345 -4.64593,1.32034 -2.12218,-1.32532 -21.44654,1.05922 -22.91408,2.8275 -0.69691,0.83973 -2.27049,0.95392 -5.23673,0.38002 -2.33224,-0.45124 -8.62794,-0.84003 -13.99044,-0.86398 -8.2968,-0.0371 -10.03443,0.24088 -11.65835,1.8648 -1.68583,1.68583 -2.14375,1.74346 -3.92724,0.49426 -1.1543,-0.80851 -5.79724,-1.67271 -10.84165,-2.01799 -7.42566,-0.50828 -9.61452,-0.28784 -13.82276,1.39206 l -5,1.99598 -9.4174,-4.88633 z m 176.49756,-0.95167 c -1.05592,-2.18433 -3.53092,-5.86607 -5.5,-8.18165 -3.57119,-4.19959 -3.57252,-4.20474 -0.52914,-2.05517 3.04992,2.15419 8.88873,11.52458 8.27437,13.27908 -0.17897,0.51109 -1.18932,-0.85793 -2.24523,-3.04226 z m -222.33016,-6.6697 c 2.6125,-0.206 6.8875,-0.206 9.5,0 2.6125,0.206 0.475,0.37454 -4.75,0.37454 -5.225,0 -7.3625,-0.16854 -4.75,-0.37454 z m -18.82718,-3.78608 c 7.45221,-3.8813 15.81092,-9.19734 27.32718,-17.37977 3.9875,-2.83316 7.25,-4.97899 7.25,-4.76851 0,0.66547 -18.24865,14.26047 -24.34149,18.13409 -5.91542,3.76082 -10.11698,5.75511 -14.65851,6.95775 -1.375,0.36412 0.61527,-0.96049 4.42282,-2.94356 z M 538.86687,437.707 c 1.65,-1.24408 4.53848,-3.85642 6.41884,-5.8052 1.88036,-1.94879 2.93158,-2.64325 2.33605,-1.54325 -1.45055,2.67931 -6.17118,6.98072 -9.25489,8.43302 -2.0892,0.98392 -2.00704,0.8057 0.5,-1.08457 z m -146.6875,-5.53156 c 0.72187,-0.28888 1.58437,-0.25335 1.91667,0.079 0.33229,0.33229 -0.25834,0.56864 -1.3125,0.52522 -1.16495,-0.048 -1.4019,-0.28495 -0.60417,-0.60417 z m 4.9375,-0.97917 c 0.6875,-0.27741 1.8125,-0.27741 2.5,0 0.6875,0.27741 0.125,0.50438 -1.25,0.50438 -1.375,0 -1.9375,-0.22697 -1.25,-0.50438 z m 98,-9 c 0.6875,-0.27741 1.8125,-0.27741 2.5,0 0.6875,0.27741 0.125,0.50438 -1.25,0.50438 -1.375,0 -1.9375,-0.22697 -1.25,-0.50438 z m -53.66667,-0.71252 c 0.22917,-0.20614 3.11667,-0.6346 6.41667,-0.95212 3.88694,-0.37401 5.11956,-0.27711 3.5,0.27512 -2.46603,0.84086 -10.72569,1.40473 -9.91667,0.677 z m -13.8143,-50.31819 c 0.97297,-0.25354 2.32297,-0.23687 3,0.037 0.67703,0.27393 -0.11903,0.48137 -1.76903,0.46099 -1.65,-0.0204 -2.20394,-0.2445 -1.23097,-0.49804 z m 10.01114,-1.04328 c 2.6291,-0.20668 6.6791,-0.20418 9,0.006 2.32091,0.20972 0.16983,0.37882 -4.78017,0.37577 -4.95,-0.003 -6.84892,-0.17464 -4.21983,-0.38131 z m 74.53233,-2.94684 c 0.72187,-0.28887 1.58438,-0.25335 1.91667,0.0789 0.33229,0.33229 -0.25834,0.56864 -1.3125,0.52522 -1.16495,-0.048 -1.4019,-0.28494 -0.60417,-0.60416 z"
                 id="path3046"
                 inkscape:connector-curvature="0" />
        </g>
    </g>
</svg>
