<?xml version="1.0" encoding="UTF-8" standalone="no"?>
<!-- Created with Inkscape (http://www.inkscape.org/) -->

<svg
     xmlns:dc="http://purl.org/dc/elements/1.1/"
     xmlns:cc="http://creativecommons.org/ns#"
     xmlns:rdf="http://www.w3.org/1999/02/22-rdf-syntax-ns#"
     xmlns:svg="http://www.w3.org/2000/svg"
     xmlns="http://www.w3.org/2000/svg"
     xmlns:sodipodi="http://sodipodi.sourceforge.net/DTD/sodipodi-0.dtd"
     xmlns:inkscape="http://www.inkscape.org/namespaces/inkscape"
     width="568.90997"
     height="568.90997"
     id="svg2"
     version="1.1"
     inkscape:version="0.48.3.1 r9886"
     sodipodi:docname="evolution.svg">
    <sodipodi:namedview
         id="base"
         pagecolor="#ffffff"
         bordercolor="#666666"
         borderopacity="1.0"
         inkscape:pageopacity="0.0"
         inkscape:pageshadow="2"
         inkscape:zoom="0.98994949"
         inkscape:cx="362.46223"
         inkscape:cy="344.0087"
         inkscape:document-units="px"
         inkscape:current-layer="layer1"
         showgrid="false"
         showguides="true"
         inkscape:guide-bbox="true"
         inkscape:window-width="1835"
         inkscape:window-height="1060"
         inkscape:window-x="83"
         inkscape:window-y="-3"
         inkscape:window-maximized="1"
         inkscape:snap-global="false"
         fit-margin-top="0"
         fit-margin-left="0"
         fit-margin-right="0"
         fit-margin-bottom="0">
        <sodipodi:guide
             id="guide3105"
             position="190.00264,220.57879"
             orientation="1,0" />
        <sodipodi:guide
             orientation="0,1"
             position="562.24276,-416.16129"
             id="guide5368" />
        <sodipodi:guide
             orientation="1,0"
             position="964.38563,908.83867"
             id="guide5372" />
    </sodipodi:namedview>
    <defs
         id="defs4" />
    <metadata
         id="metadata7">
        <rdf:RDF>
            <cc:Work
                 rdf:about="">
                <dc:format>image/svg+xml</dc:format>
                <dc:type
                     rdf:resource="http://purl.org/dc/dcmitype/StillImage" />
            </cc:Work>
        </rdf:RDF>
    </metadata>
    <g
         id="layer1"
         inkscape:groupmode="layer"
         inkscape:label="Ebene 1"
         transform="translate(-166.32867,-184.43373)">
        <path
             inkscape:connector-curvature="0"
             id="path3095"
             d="m 356.34375,184.4375 c -31.1842,0.0217 -37.54824,0.31598 -49.625,2.15625 -18.82224,2.86817 -22.82382,3.82812 -32.875,7.875 -20.2149,8.13907 -42.47181,26.98455 -57.0625,48.3125 -6.58175,9.62089 -17.68954,31.22471 -22.59375,43.96875 -1.80665,4.69476 -3.99798,9.88125 -4.875,11.53125 -0.87703,1.65 -1.59075,3.48456 -1.59375,4.0625 -0.007,1.13971 -13.09954,33.75317 -15.34375,38.21875 -0.75454,1.5014 -2.44608,6.54375 -3.75,11.21875 -2.16002,7.74444 -2.36555,10.32223 -2.28125,29 0.0913,20.22972 0.15912,20.6714 3.65625,33.5 5.61966,20.61473 16.7452,50.5 18.8125,50.5 0.87757,0 1.32477,-1.4962 2.4375,-8.5 1.14929,-7.23387 6.45114,-22.14646 9.5625,-26.84375 4.11939,-6.21915 15.78608,-15.08891 17.53125,-13.34375 0.37609,0.3761 -1.46642,5.0675 -4.09375,10.4375 -6.44362,13.1701 -7.96498,16.56114 -11.03125,24.75 -1.44161,3.85 -3.44959,9.025 -4.46875,11.5 -1.01916,2.475 -3.77195,12.15 -6.125,21.5 -3.95315,15.70806 -4.28845,18.02595 -4.34375,30.5 -0.0667,15.06173 0.89903,19.00808 8.46875,34.5 3.95253,8.0891 15.33814,24.5 17,24.5 0.49608,0 2.44087,-2.38668 4.3125,-5.3125 15.47492,-24.19119 37.96627,-30.94028 56.65625,-17 7.16552,5.34454 11.28959,12.11455 11.8125,19.34375 0.74364,10.28068 -4.60562,23.15868 -9.875,23.78125 -3.43885,0.40629 -8.86803,-3.50939 -11.25,-8.125 -2.52346,-4.88978 -3.31924,-15.77369 -1.75,-23.75 0.66152,-3.36221 0.90832,-6.40419 0.5625,-6.75 -1.06658,-1.06659 -11.37384,4.90375 -16.625,9.625 -10.72363,9.64146 -11.4588,17.96641 -2.71875,30.375 1.03847,1.47436 3.07281,5.74936 4.53125,9.5 2.54496,6.54481 2.68252,7.85927 3.3125,32.8125 0.7206,28.54307 1.05055,30.3578 7.5625,41.46875 5.40629,9.22445 7.86602,11.61474 20.8125,20.0625 22.06634,14.39859 27.1297,19.48452 32.1875,32.46875 3.89589,10.00142 9.59455,15.72475 18,18 3.51861,0.95244 8.76203,2.10737 11.65625,2.5625 1.79265,0.28187 7.08177,0.43887 13.40625,0.5 l 0,-209.75 c -0.90058,-0.0913 -1.73577,0.9509 -2.9375,2.8125 -1.37417,2.12872 -3.53454,6.8 -4.78125,10.375 -1.24672,3.575 -3.69681,8.525 -5.46875,11 -3.61926,5.05531 -6.4375,13.45538 -6.4375,19.1875 0,2.10018 -0.42495,3.8125 -0.9375,3.8125 -2.19923,0 -9.27124,-12.56985 -12.53125,-22.28125 -4.48202,-13.3517 -2.99312,-24.06502 5.0625,-36.375 4.72778,-7.22463 25.54299,-28.34375 27.9375,-28.34375 0.0254,0 0.0635,0.026 0.0937,0.0312 l 0,-319.375 z m -95.125,237.15625 c 10.33196,-0.16456 24.12999,0.44063 30,1.65625 8.94961,1.85338 22.42667,8.0629 34.25,15.78125 4.1928,2.73709 8.24162,5.20898 9,5.5 0.76147,0.2922 3.19829,-1.19882 5.4375,-3.34375 4.7967,-4.59473 4.86217,-5.76736 -1.03125,15.59375 l -4,14.5 -10.3125,10.03125 c -11.6054,11.23765 -22.99434,18.13038 -31.65625,19.15625 -6.18547,0.73258 -17.58128,-1.11192 -27.3125,-4.40625 -4.19342,-1.41961 -8.29993,-2.3166 -9.125,-2 -0.89425,0.34316 -1.78455,2.52726 -2.1875,5.40625 -0.37177,2.65624 -0.9103,6.275 -1.21875,8.0625 -0.30845,1.7875 -0.95485,3.25 -1.4375,3.25 -1.05302,0 -8.84308,-14.85617 -10.75,-20.5 -0.74334,-2.2 -2.12166,-8.05 -3.03125,-13 l -1.625,-9 -5.5,0 c -6.53298,0 -6.51602,0.15159 -1.78125,-11 3.14094,-7.39773 10.88416,-19.24796 16.5625,-25.375 1.74784,-1.88598 2.2163,-3.29352 1.8125,-5.3125 -0.41854,-2.0927 -0.0547,-3.01171 1.5,-3.84375 1.25737,-0.67293 6.20707,-1.05752 12.40625,-1.15625 z M 342.9375,428.25 c 1.09519,-0.0937 2.78125,1.80539 2.78125,3.59375 0,1.00019 -0.44897,2.09694 -1,2.4375 -1.17337,0.72518 -3.31378,-4.20715 -2.4375,-5.625 0.16165,-0.26156 0.40351,-0.38462 0.65625,-0.40625 z m -61.90625,191.53125 c 0.70523,0 2.06363,2.1375 3,4.75 1.35487,3.78013 1.6915,8.27214 1.6875,22 -0.006,20.85835 -0.7564,21.65553 -7.0625,7.5 -3.49557,-7.84666 -4.40986,-11.1165 -4.6875,-16.75 -0.31204,-6.33132 -0.0543,-7.50151 2.71875,-12.25 1.68624,-2.8875 3.63853,-5.25 4.34375,-5.25 z m 31.1875,12.53125 c 0.34286,-0.003 0.67462,0.23712 1.0625,0.625 1.98836,1.98836 3.36965,13.91526 3.40625,29.53125 0.017,7.25504 -0.37733,13.44242 -0.875,13.75 -1.92172,1.18768 -8.20525,-11.84068 -10.09375,-20.9375 -1.54629,-7.44843 -0.64165,-13.10989 3.09375,-19 1.8057,-2.8473 2.65196,-3.96308 3.40625,-3.96875 z m 33.96875,8.46875 c 2.48055,0 3.92445,9.87292 3.96875,26.90625 0.0291,11.18745 -0.30417,16.55537 -1.0625,16.8125 -1.25837,0.42668 -7.64869,-12.13691 -9.28125,-18.21875 -1.42851,-5.32166 -1.39418,-13.72289 0.0937,-17.1875 1.90805,-4.44281 4.83346,-8.3125 6.28125,-8.3125 z"
             style="fill:#030303" />
        <path
             inkscape:connector-curvature="0"
             id="path4051"
             d="m 511.67886,410.49267 c -2.75085,-0.70048 -6.73628,-3.0337 -9.26255,-5.42269 l -2.80837,-2.65562 -7.70267,0.17157 c -9.51937,0.21203 -13.73819,-0.43883 -16.24656,-2.50643 -0.99451,-0.81971 -1.95507,-2.15941 -2.13462,-2.97713 -0.5496,-2.5026 -1.4336,-2.83686 -4.09495,-1.54855 -1.73902,0.84182 -2.83282,1.0495 -4.29568,0.81558 -1.82964,-0.29258 -2.07013,-0.17803 -3.55061,1.69118 -1.43118,1.80695 -4.41456,4.09936 -5.33521,4.09936 -0.19717,0 0.13637,-0.62966 0.74237,-1.39925 3.65089,-4.64074 3.17061,-10.5857 -1.22364,-15.14784 -3.76411,-3.90784 -6.57079,-3.96121 -14.85843,-0.28251 -7.89457,3.50414 -11.91509,3.82826 -17.21366,1.38775 -6.22389,-2.8666 -10.98095,-10.98436 -10.98095,-18.73829 0,-1.97018 -0.28737,-2.74685 -1.54781,-4.18231 -0.85117,-0.96956 -2.20139,-1.90639 -3.00015,-2.08185 -1.55974,-0.34256 -4.69825,0.72608 -6.24591,2.12666 -0.8472,0.7668 -0.909,0.7448 -0.909,-0.32412 0,-1.96864 1.55804,-4.54443 3.45969,-5.71971 1.73916,-1.07489 4.92596,-1.41612 7.98876,-0.85541 0.77831,0.14248 1.0539,-0.12614 1.1718,-1.14189 0.21862,-1.88346 -2.09855,-4.42656 -5.3392,-5.85969 -1.92509,-0.85138 -2.76519,-1.53812 -2.99333,-2.44678 -0.56181,-2.23872 -1.38374,-2.4374 -3.56481,-0.86166 -1.09721,0.79272 -2.7733,1.70417 -3.72448,2.02546 -2.17525,0.73465 -8.17272,0.75933 -10.06742,0.0415 -1.46285,-0.55427 -3.72206,-2.40181 -3.72206,-3.04389 0,-0.19598 1.89399,-0.45574 4.20888,-0.57724 5.12896,-0.2692 6.92862,-1.20026 8.73482,-4.51902 1.88746,-3.46772 1.75179,-5.67905 -0.45144,-7.35954 -3.02828,-2.30974 -3.49862,-6.10305 -1.29297,-10.4266 0.51594,-1.01121 1.29823,-2.1375 1.73844,-2.50286 1.22066,-1.01309 0.97761,-1.96301 -1.10843,-4.33302 -2.83026,-3.21528 -5.18577,-10.8808 -5.20581,-16.94108 l -0.0142,-2.67131 -2.67129,-0.002 c -3.09136,-0.002 -5.22498,-1.09322 -7.12494,-3.64357 -1.56385,-2.09934 -1.95777,-3.71788 -1.46542,-6.02198 l 0.38057,-1.78087 1.36726,2.148 c 1.46712,2.30498 3.59889,3.70344 5.64545,3.70344 2.17795,0 5.91223,-2.3619 7.42537,-4.69647 1.65549,-2.55416 5.8084,-6.58711 9.48557,-9.21194 6.21836,-4.43859 8.52728,-8.50979 8.56052,-15.09433 0.0199,-3.87477 -0.13636,-4.61243 -1.50462,-7.08652 -1.54013,-2.78633 -5.04727,-5.63398 -6.93871,-5.63398 -0.48837,0 -1.02945,-0.22898 -1.20247,-0.50883 -0.50543,-0.81774 6.3604,-0.56232 8.65002,0.32178 3.7151,1.43466 3.9296,1.32845 4.67694,-2.31597 1.18528,-5.77962 5.27626,-11.17191 10.42922,-13.74691 3.82917,-1.91342 6.96527,-2.03769 11.47273,-0.45463 1.74527,0.61296 3.30884,0.97886 3.47462,0.8131 0.16577,-0.16575 -0.10513,-1.5935 -0.60372,-3.17278 -0.81425,-2.58317 -0.83101,-3.08192 -0.16735,-4.96854 1.00546,-2.85762 1.82936,-2.95369 2.5409,-0.2963 0.75288,2.81184 2.0369,4.99391 2.93879,4.99391 0.38837,0 2.07623,-1.14482 3.7509,-2.54404 1.67451,-1.39923 4.51088,-3.36403 6.30301,-4.36623 1.79214,-1.00221 3.38541,-2.02786 3.54081,-2.27923 0.1554,-0.25138 0,-0.97698 -0.34917,-1.61242 -0.34746,-0.63544 -0.7587,-2.07124 -0.91396,-3.19064 -0.2145,-1.54599 -0.53199,-2.07103 -1.32109,-2.18397 -1.60591,-0.22988 -5.21234,2.69527 -6.44096,5.22411 -1.38941,2.85988 -2.14854,2.44074 -1.70775,-0.94285 0.74066,-5.68456 3.77619,-9.96209 9.26837,-13.06054 2.74047,-1.54611 3.32886,-1.67813 7.55138,-1.69435 4.37649,-0.0168 4.71572,0.0644 7.65592,1.83145 3.00016,1.80319 5.05736,3.78981 10.05492,9.70943 l 2.44629,2.89759 7.22124,0.009 c 3.97179,0.006 9.3519,0.23324 11.95572,0.50754 4.02762,0.42427 4.97071,0.37652 6.31737,-0.3199 1.04394,-0.53981 2.33109,-0.73431 3.77917,-0.57107 2.09243,0.23583 2.28264,0.1419 4.02677,-1.98651 1.5495,-1.89089 4.03528,-3.74472 5.02113,-3.74472 0.14816,0 -0.46068,1.03556 -1.35277,2.30127 -1.30248,1.8477 -1.62636,2.81697 -1.64327,4.91797 l -0.0213,2.61673 4.83392,3.25708 c 2.65851,1.79139 5.4186,3.81424 6.13355,4.4952 0.71495,0.68094 1.58644,1.23808 1.93675,1.23808 0.35015,0 3.07146,-1.0602 6.04746,-2.35604 3.80516,-1.65687 6.33683,-2.43038 8.53098,-2.60651 9.93047,-0.79712 17.53569,6.81842 19.09556,19.12158 0.55884,4.40794 1.41769,5.99651 3.77449,6.98124 1.9579,0.81804 4.11441,0.37725 6.20684,-1.26869 1.64356,-1.29281 1.91686,-1.08693 1.50094,1.1304 -0.69593,3.70954 -5.65811,6.54939 -9.51242,5.44397 -2.53251,-0.72632 -3.00882,-0.62354 -3.00669,0.64872 0,2.13115 1.86146,4.30541 5.1774,6.05883 2.33633,1.23545 3.26181,2.02238 3.38284,2.87665 0.2483,1.75225 1.41612,1.89712 3.53597,0.43864 1.04196,-0.71683 2.58138,-1.5751 3.42091,-1.90727 2.07696,-0.82179 8.84576,-0.81432 10.43079,0.0113 1.43274,0.74644 3.56169,2.58137 3.56169,3.06971 0,0.17681 -1.54554,0.31541 -3.43456,0.308 -5.01048,-0.0197 -7.80835,1.37224 -9.51057,4.73148 -1.88063,3.71129 -1.73261,5.37113 0.67973,7.62256 1.08983,1.01711 2.14273,2.38707 2.33989,3.04438 0.62475,2.08291 -0.24291,5.55997 -2.06204,8.26304 -0.96282,1.43076 -1.75051,2.78315 -1.75051,3.00527 0,0.22215 0.72205,1.17225 1.60449,2.11136 2.91989,3.10699 4.89087,8.87589 5.45112,15.95445 l 0.32218,4.07056 3.053,0.26177 c 3.33497,0.28597 5.03108,1.17723 6.80404,3.57531 1.35844,1.83734 1.80293,4.20632 1.18969,6.33931 l -0.43895,1.52648 -0.65941,-1.27206 c -1.08997,-2.10223 -3.14334,-4.0128 -4.95579,-4.61095 -1.45731,-0.48095 -1.97325,-0.40782 -3.50685,0.49705 -0.98911,0.58354 -2.12582,1.06097 -2.52598,1.06097 -0.40031,0 -1.32948,0.97312 -2.06473,2.16249 -1.86232,3.01227 -4.88619,6.08439 -9.38983,9.53948 -6.41808,4.92373 -8.17286,7.36855 -9.16666,12.77141 -1.20844,6.56998 1.2789,12.19596 6.50204,14.70577 1.45589,0.69963 2.65751,1.44378 2.6703,1.65367 0.0412,0.69213 -5.78807,0.35268 -7.86361,-0.45787 -3.95645,-1.54507 -4.39198,-1.3518 -5.14088,2.28164 -1.18728,5.76117 -5.33507,11.22207 -10.47426,13.79013 -3.85929,1.92849 -6.49067,1.996 -11.32443,0.29047 -1.94357,-0.68578 -3.63925,-1.14144 -3.7681,-1.01259 -0.12926,0.12884 0.1449,1.40795 0.60814,2.84247 0.46337,1.43451 0.84237,3.04722 0.84237,3.58376 0,1.36935 -1.37337,4.5046 -1.97325,4.5046 -0.27431,0 -0.86994,-1.27694 -1.32365,-2.83762 -1.8376,-6.32149 -9.50574,-11.2963 -13.30736,-8.63348 -1.51982,1.06446 -4.72182,4.33171 -5.29515,5.40277 -1.03329,1.93083 -0.53895,4.69471 1.40206,7.83917 1.03982,1.68464 2.01289,3.97583 2.16246,5.09157 0.19079,1.42463 0.54748,2.08161 1.19765,2.20663 1.55392,0.29877 4.81246,-2.29234 6.41794,-5.10357 1.19808,-2.09761 1.58361,-2.46195 1.85563,-1.75316 0.52034,1.35607 -0.6459,6.33309 -2.04257,8.71633 -2.82046,4.81273 -8.50441,8.39896 -13.77158,8.68911 -1.67906,0.0925 -3.51083,0.0515 -4.07052,-0.0909 z m -3.39719,-14.77801 c -0.2476,-1.27652 -1.43658,-1.45179 -1.43658,-0.21177 0,0.625 0.32843,1.06003 0.80047,1.06003 0.47389,0 0.73342,-0.34618 0.63611,-0.84826 z m -11.59178,-18.6141 c 1.82822,-3.86468 1.96757,-6.89135 0.43142,-9.3768 -2.13321,-3.45159 -3.48768,-0.93714 -3.49805,6.49349 0,2.96176 0.14518,5.53765 0.33169,5.72422 0.75714,0.75705 1.29921,0.19389 2.73494,-2.84091 z m -49.37679,1.34108 c 7.20846,-2.26876 6.79338,-1.99829 6.38128,-4.15768 -0.1983,-1.03949 -0.44434,-5.5535 -0.54647,-10.03111 l -0.18594,-8.14112 -2.06119,-3.98467 c -2.87784,-5.56346 -2.8027,-6.97022 0.5408,-10.10916 1.43103,-1.34355 2.91932,-2.44282 3.30727,-2.44282 0.38794,0 0.85529,-0.0573 1.0384,-0.12728 0.18325,-0.0699 0.28382,1.73797 0.22345,4.01763 -0.10512,3.99679 -0.0526,4.21032 1.50064,5.97862 1.16625,1.32829 2.02425,1.83381 3.11237,1.83381 1.28686,0 1.64483,-0.32199 2.49502,-2.24392 2.33464,-5.27794 1.59198,-8.58801 -2.69233,-11.99919 -3.06037,-2.43674 -4.04083,-2.73762 -7.99046,-2.45193 -2.42669,0.17552 -3.50998,0.57979 -5.82359,2.17325 -1.56329,1.07671 -3.59066,3.06139 -4.50534,4.41044 -0.91468,1.34904 -1.81813,2.45871 -2.00777,2.46593 -0.82391,0.0314 -5.56875,-7.95254 -6.48044,-10.9044 -1.66529,-5.39179 -1.78845,-8.53861 -0.56779,-14.52348 1.35433,-6.64054 3.46666,-12.88257 6.68883,-19.76545 1.36684,-2.91967 2.48507,-5.3911 2.48507,-5.49203 0,-0.57525 -1.95323,-0.0239 -3.40571,0.96132 -1.99655,1.3544 -5.46633,7.69365 -6.00187,10.96565 -0.20342,1.24245 -0.60059,2.10774 -0.91893,2.00164 -0.7955,-0.2652 -3.20386,-6.31819 -5.00736,-12.58568 -1.83447,-6.37473 -2.43009,-14.19518 -1.49497,-19.62728 0.67888,-3.94365 6.31226,-18.72133 10.59302,-27.78798 3.37559,-7.14929 3.32261,-7.75929 -0.64621,-7.43016 -3.1395,0.26034 -5.85995,2.0419 -7.56671,4.95533 -0.89266,1.5237 -0.91638,1.96037 -0.31564,5.82223 0.57957,3.72506 0.55756,4.35293 -0.20442,5.82639 -0.72589,1.40359 -2.93878,3.24135 -4.56401,3.79039 -0.24873,0.0839 -0.47772,2.20288 -0.50883,4.7086 -0.0824,6.61338 -1.311,8.84977 -9.17333,16.69763 -4.23132,4.22356 -6.62335,7.05179 -7.56687,8.94698 -2.5399,5.10179 -1.55547,9.86277 3.2702,15.81537 3.50728,4.32634 4.00006,5.18105 4.00006,6.93763 0,2.02853 0.62333,2.4355 3.46282,2.26088 2.24685,-0.13823 5.18705,0.72015 5.18705,1.5142 0,0.23512 -0.87206,0.66232 -1.93802,0.94937 -2.62428,0.70664 -6.58997,3.40276 -7.44925,5.06449 -1.10985,2.14612 -1.42663,4.80531 -0.83455,7.00414 0.54846,2.03693 1.0296,2.43604 4.52167,3.75126 2.13293,0.80328 3.19435,2.84797 3.53214,6.80405 0.14546,1.7037 0.57233,3.45244 0.94848,3.88611 1.50378,1.73356 2.31504,5.52487 2.77089,12.94965 0.67518,10.99681 2.08107,15.59731 5.90044,19.30653 2.04868,1.9897 2.78863,2.19544 3.74607,1.04172 0.35045,-0.42228 2.75767,-1.77874 5.34913,-3.01437 2.59147,-1.23564 5.08037,-2.77283 5.53097,-3.416 0.92277,-1.31757 1.09025,-5.08244 0.29234,-6.57343 -0.71623,-1.33817 0.55358,-1.34251 1.76302,-0.006 2.10905,2.33048 1.28771,7.98361 -1.77382,12.21004 -1.48331,2.04758 -1.85378,3.07961 -1.11624,3.10957 0.20995,0.009 2.32796,-0.59706 4.70663,-1.34573 z m 60.2049,-3.54676 c 2.0457,-4.17112 2.26929,-6.74212 0.81197,-9.335 -1.45121,-2.58221 -2.51462,-2.51102 -3.33866,0.22347 -0.65189,2.16311 -0.92036,11.0448 -0.35115,11.61402 0.81509,0.81509 1.57464,0.15462 2.87784,-2.50249 z m -33.33252,-3.26414 c 0.26578,-7.21466 -1.27435,-10.09219 -3.47219,-6.48745 -1.312,2.15171 -1.30845,6.03971 0.0142,8.94086 0.80559,1.7752 1.22024,2.16743 2.15139,2.03528 1.08031,-0.15336 1.16342,-0.43724 1.31257,-4.48869 z m 10.76958,3.8292 c 0.43866,-0.52865 0.51352,-1.69316 0.25371,-3.94335 -0.68271,-5.91065 -1.95493,-7.07339 -3.79437,-3.46785 -1.69937,3.33108 -1.22478,7.01057 1.00729,7.80828 1.31172,0.46877 1.88988,0.37813 2.53337,-0.39708 z m 47.83979,-1.7691 c 0,-0.26619 -0.34348,-1.80259 -0.76325,-3.41422 -1.44084,-5.53196 -0.73839,-9.60251 2.03348,-11.78283 1.76558,-1.3888 2.34572,-1.03778 1.74526,1.05598 -1.41242,4.92491 1.33586,11.63891 5.68481,13.88784 3.01436,1.55882 6.71312,0.64566 9.99355,-2.46733 2.05535,-1.9504 2.43634,-3.88958 1.66386,-8.46954 -0.54946,-3.25774 -0.51651,-3.74611 0.35413,-5.23668 0.52802,-0.90414 1.85607,-2.25242 2.95115,-2.99617 l 1.99129,-1.35229 0.0298,-4.26039 c 0.0426,-6.25046 1.38558,-8.68456 8.99079,-16.29903 3.3114,-3.31558 6.70802,-7.22639 7.54769,-8.69069 2.89333,-5.04487 1.67224,-10.87339 -3.5391,-16.89473 -2.48507,-2.87117 -3.57433,-4.87476 -3.57433,-6.57394 0,-1.67292 -0.60372,-1.97549 -4.12123,-2.06579 -2.1342,-0.0548 -3.25513,-0.35026 -4.04665,-1.06667 l -1.09494,-0.99091 2.14356,-0.36593 c 3.20798,-0.54765 7.07153,-3.24094 8.19389,-5.71201 1.95862,-4.31218 0.83769,-8.51756 -2.51049,-9.41915 -1.06582,-0.28699 -2.41618,-1.03955 -3.00072,-1.67235 -1.20092,-1.29996 -2.17114,-4.38761 -2.17526,-6.92345 0,-0.93629 -0.43482,-2.31011 -0.96283,-3.05293 -1.54014,-2.1671 -2.10039,-4.94098 -2.59943,-12.8713 -0.54647,-8.68329 -1.09621,-11.30748 -3.21919,-15.36703 -2.21219,-4.22988 -5.9503,-6.80966 -6.77052,-4.6724 -0.15824,0.41248 -1.52934,1.35739 -3.04674,2.09982 -1.51741,0.74242 -2.88239,1.54952 -3.03325,1.79357 -0.15086,0.24404 0.30697,1.53158 1.01724,2.86118 2.2271,4.16857 6.19847,13.84459 8.61492,20.9894 3.77292,11.15583 4.14184,18.16688 1.51301,28.74835 -1.25447,5.04932 -4.47651,14.3552 -5.25993,15.1918 -0.22473,0.2398 -0.681,-0.90505 -1.01425,-2.54411 -1.25717,-6.1828 -5.46577,-12.39328 -8.39859,-12.39328 -1.10175,0 -1.05602,0.15075 2.51349,8.2882 1.56996,3.57904 3.58981,9.07429 4.48872,12.21168 1.40149,4.89173 1.63247,6.50168 1.62253,11.30138 -0.0142,6.4982 -0.90715,9.55673 -4.32253,14.79896 -2.46816,3.78831 -3.58314,4.88096 -3.9296,3.85093 -0.35414,-1.05287 -4.666,-5.79089 -6.4286,-7.06398 -5.00934,-3.61801 -13.25109,-1.59703 -16.07695,3.9423 -1.82992,3.58699 -0.90714,9.22449 1.79953,10.99332 0.88143,0.57596 1.25815,0.53657 2.58493,-0.27029 2.48394,-1.5106 3.41225,-4.06481 2.99319,-8.23642 -0.19404,-1.93241 -0.20001,-3.51345 -0.0142,-3.51345 1.43289,0 5.524,3.49929 6.68713,5.71983 0.91283,1.74288 0.61467,2.96777 -1.91132,7.84884 l -1.98447,3.83488 0.14063,7.92104 0.14063,7.92105 2.54403,0.86792 c 3.0689,1.04697 3.81624,1.14703 3.81624,0.51102 z m -68.94512,-6.73491 c 0,-4.64738 -0.18836,-6.59171 -0.69833,-7.20531 -0.99863,-1.20184 -1.35788,-1.06573 -2.55865,0.96958 -1.55633,2.63773 -1.40547,5.87027 0.45755,9.80855 2.25395,4.76431 2.79943,4.06803 2.79943,-3.57282 z m 53.78469,3.63664 c 2.00934,-4.05637 2.26446,-6.49019 0.95019,-9.06638 -2.32966,-4.56654 -4.10731,-1.564 -4.10731,6.93774 0,6.27824 0.82575,6.83495 3.15712,2.12864 z m -37.04663,-23.00358 c 0.33965,-2.21601 5.26703,-12.59329 5.97972,-12.59329 0.67304,0 5.58764,10.25122 5.95995,12.43187 0.20542,1.20349 0.66368,2.11949 1.10162,2.20203 1.52096,0.28665 5.07484,-8.04698 5.07484,-11.90037 0,-2.77097 -3.69891,-9.19372 -7.5082,-13.03714 -1.87225,-1.889 -3.8134,-3.43454 -4.31371,-3.43454 -0.50045,0 -2.74006,1.74875 -4.97725,3.88611 -7.57865,7.24067 -8.81493,12.39812 -4.95322,20.66446 2.10706,4.51029 3.14035,5.01636 3.63625,1.78087 z m 44.25978,-26.74907 c 1.41968,-2.83578 2.7507,-6.87881 2.96151,-8.99554 0.12785,-1.28164 0.37602,-1.53011 1.54852,-1.54918 2.40893,-0.0392 2.64275,-0.84024 1.12676,-3.85878 -0.75515,-1.50324 -2.35637,-4.12082 -3.55856,-5.81686 -1.20219,-1.69604 -2.26247,-3.75675 -2.35622,-4.57938 l -0.17019,-1.49568 -7.63234,0 -7.63235,0 -4.4569,2.14133 c -2.45126,1.17774 -5.50298,2.86098 -6.78131,3.74056 l -2.32441,1.59922 -1.21938,-1.14548 c -1.92382,-1.80744 -2.04059,-0.26507 -0.41295,5.45701 1.35177,4.7522 1.57593,5.1516 4.55194,8.10808 5.82245,5.78433 11.6736,7.48278 18.24481,5.29601 4.02464,-1.33927 4.86431,-1.14176 4.86431,1.14417 0,1.73727 0.83811,3.08727 1.61756,2.60552 0.24035,-0.14855 0.97349,-1.3415 1.6292,-2.651 z m -71.17463,0.42029 c 0.18893,-1.11792 0.49519,-2.12338 0.68072,-2.23434 0.18551,-0.11095 1.94015,0.21809 3.89905,0.73123 6.79368,1.77957 9.55446,1.26911 15.29652,-2.82834 4.99414,-3.5637 6.59181,-5.85246 8.1365,-11.65605 0.7273,-2.73281 1.18955,-5.10159 1.02717,-5.26399 -0.16236,-0.16238 -0.82433,0.20178 -1.4708,0.80922 -0.64663,0.60744 -1.36216,1.10445 -1.59,1.10445 -0.22786,0 -1.741,-0.90559 -3.36253,-2.01242 -1.62139,-1.10683 -4.51131,-2.74962 -6.42192,-3.65064 -3.41409,-1.61006 -3.60502,-1.63887 -11.10611,-1.67652 l -7.63234,-0.0384 -0.16989,1.20158 c -0.0938,0.66088 -1.12392,2.50453 -2.28975,4.09701 -2.64986,3.61951 -5.16091,8.85398 -4.75493,9.91177 0.22217,0.57916 0.7158,0.71799 1.7893,0.50327 1.46186,-0.29237 1.48984,-0.25466 2.01146,2.70615 0.73442,4.16931 3.54265,10.32855 4.70933,10.32855 0.65884,0 0.99806,-0.55247 1.24822,-2.03262 z m 29.59553,-24.13742 c -0.16833,-0.43858 -0.54221,-0.79742 -0.83087,-0.79742 -0.58539,0 -0.71906,1.67133 -0.17699,2.21336 0.55855,0.55858 1.34282,-0.54314 1.00786,-1.41594 z m 10.02409,-0.30653 c -0.67759,-0.67758 -1.96431,0.7248 -1.44126,1.57093 0.25427,0.4114 0.59335,0.345 1.16682,-0.22849 0.56437,-0.56438 0.64719,-0.96963 0.27444,-1.34244 z"
             style="fill:#000000;fill-opacity:1" />
        <path
             inkscape:connector-curvature="0"
             id="path5257"
             d="m 564.60528,737.39094 c -0.75686,-0.48146 -0.85544,-2.03791 -0.3109,-4.90859 0.63339,-3.33891 0.71345,-8.94937 0.15308,-10.72571 -1.05788,-3.35328 -1.49197,-4.2945 -2.58276,-5.60008 -1.09462,-1.31021 -1.18215,-1.59195 -1.18215,-3.80591 0,-1.92931 -0.13372,-2.52468 -0.69249,-3.08346 -0.38087,-0.38088 -0.81915,-0.6925 -0.97396,-0.6925 -0.61455,0 -2.14316,1.9955 -2.36033,3.0812 -0.17513,0.87578 -0.50583,1.26689 -1.38,1.63214 -1.43128,0.59802 -4.6514,0.62621 -5.43236,0.0475 -0.33628,-0.24917 -0.73983,-1.31421 -0.9511,-2.51028 -0.54469,-3.08344 -0.63994,-3.28934 -1.52158,-3.28934 -0.81459,0 -1.26848,0.75148 -1.73054,2.86534 -0.28479,1.30267 -1.12396,2.06784 -2.91668,2.6595 -2.04237,0.67404 -3.2918,0.0443 -3.42635,-1.72693 -0.0981,-1.29078 -0.6272,-3.63771 -1.22239,-5.4217 -0.29805,-0.89327 -0.24601,-1.37604 0.27218,-2.52517 0.57491,-1.27488 0.58634,-1.47513 0.11129,-1.95018 -0.7265,-0.72649 -2.92807,-0.29761 -3.58002,0.6974 -0.42928,0.65517 -0.79952,2.73129 -1.44236,8.0876 -0.12604,1.05009 -0.44063,1.68216 -1.09404,2.19786 -0.95733,0.75564 -1.40648,0.76329 -6.5034,0.11088 -1.98901,-0.25459 -2.05594,-0.21042 -4.28172,2.82464 -1.04484,1.42472 -1.21924,1.9423 -1.26536,3.75499 -0.0294,1.15638 -0.228,2.95946 -0.44129,4.00686 -0.5622,2.76084 -0.14446,7.3266 0.90284,9.86802 1.24219,3.01424 1.27803,3.21082 0.69256,3.79631 -0.53966,0.53966 -2.3105,0.74781 -2.31483,0.27209 0,-0.14283 -0.54081,-0.62633 -1.19884,-1.07445 -0.65804,-0.44811 -1.70873,-1.50956 -2.33481,-2.35875 -0.62605,-0.84919 -1.48187,-1.97688 -1.90172,-2.50597 -1.27945,-1.61223 -3.00335,-5.20964 -4.33013,-9.03599 -1.76949,-5.10307 -2.11979,-7.16603 -1.84737,-10.87904 0.18584,-2.5324 0.116,-3.44702 -0.35894,-4.70205 -0.41298,-1.09134 -0.60712,-2.75098 -0.64801,-5.53995 -0.0367,-2.5063 -0.26062,-4.62336 -0.60406,-5.71306 -0.30009,-0.95218 -0.73706,-2.5882 -0.97101,-3.63559 -0.60701,-2.71745 -1.71368,-5.9713 -2.23745,-6.57868 -1.02579,-1.18953 -1.60634,-2.93191 -1.73788,-5.21578 -0.19912,-3.45775 -0.54298,-5.54971 -1.08905,-6.62597 -0.69702,-1.37368 -0.58277,-2.20374 0.39119,-2.84188 0.47609,-0.31196 0.86562,-0.852 0.86562,-1.20012 0,-0.34812 0.39143,-1.36911 0.86984,-2.26886 0.47841,-0.89977 0.79508,-1.75684 0.70375,-1.90462 -0.29252,-0.47333 0.65551,-4.32279 1.28294,-5.20925 0.75004,-1.05967 0.77611,-2.38245 0.0669,-3.39494 -0.47616,-0.6798 -0.84418,-0.76953 -3.1561,-0.76953 -2.4919,0 -2.66074,0.0508 -3.5294,1.06259 -0.50174,0.58443 -1.57448,1.76217 -2.38383,2.61721 -0.80936,0.85505 -1.47155,1.779 -1.47155,2.05323 0,0.74262 -2.58781,3.26938 -3.34842,3.26938 -0.36269,0 -1.36358,-0.7401 -2.22418,-1.64467 -2.52524,-2.65425 -2.48594,-2.55402 -1.69892,-4.33325 0.86208,-1.94881 0.64872,-2.55993 -1.07389,-3.07603 -1.15466,-0.34594 -1.51901,-0.31246 -2.53123,0.23265 l -1.1824,0.63676 -1.97855,-1.36111 c -2.34624,-1.61405 -4.67399,-4.11212 -5.5306,-5.93526 -0.33908,-0.72163 -0.78819,-1.42322 -0.99808,-1.5591 -0.52384,-0.33913 -0.51969,-8.17292 0.005,-8.50829 0.21236,-0.13589 0.50001,-0.63659 0.63917,-1.11268 1.11239,-3.80512 4.43403,-11.24796 6.72186,-15.06173 l 1.24624,-2.07747 0.11547,-6.40556 c 0.0635,-3.52305 0.14345,-7.88576 0.17763,-9.6949 0.0343,-1.80914 0.177,-3.46601 0.3174,-3.68194 0.38534,-0.59264 3.36472,-1.9085 3.76339,-1.66212 0.69945,0.43227 2.00086,-0.22285 2.70457,-1.36148 0.99248,-1.60588 0.93292,-2.83459 -0.17251,-3.55889 -0.83988,-0.55032 -0.9539,-0.54985 -1.89777,0.008 -0.75942,0.44859 -1.1691,0.50497 -1.68051,0.23126 -0.37197,-0.19907 -1.11931,-0.36195 -1.66077,-0.36195 -1.67929,0 -2.52351,-0.86431 -2.52351,-2.58358 0,-1.41036 0.0951,-1.56133 1.50472,-2.38741 3.40758,-1.99698 5.62644,-2.3303 9.28058,-1.39414 3.307,0.84721 6.84075,0.5295 8.71232,-0.7833 0.79765,-0.5595 1.498,-1.34556 1.55631,-1.7468 0.12136,-0.83468 -1.91197,-3.07496 -3.57777,-3.94198 -0.71932,-0.37439 -1.40333,-1.26728 -2.18104,-2.847 -0.7374,-1.49785 -1.5007,-2.51646 -2.18589,-2.917 -0.98181,-0.57396 -1.03583,-0.70885 -0.80062,-2.00045 0.39091,-2.14685 0.23628,-4.35825 -0.35005,-5.00614 -0.88951,-0.98291 -0.62231,-1.54328 1.58566,-3.32541 1.16498,-0.94028 2.60623,-2.11711 3.20279,-2.61517 1.5704,-1.31113 3.96929,-2.44899 4.6845,-2.22199 0.33956,0.10776 0.8267,0.58709 1.08258,1.06516 0.25584,0.47808 0.8651,0.96301 1.35386,1.07762 0.48876,0.11463 1.4641,0.52367 2.16743,0.90898 1.18981,0.65185 1.33758,0.66204 2.12447,0.14646 0.92765,-0.60784 2.30983,-3.16967 2.30983,-4.28127 0,-0.38645 -0.30767,-0.98105 -0.68366,-1.32133 -0.93272,-0.8441 -1.16394,-1.74048 -0.68148,-2.64197 0.51414,-0.96069 2.0244,-2.30109 2.92326,-2.59447 0.38087,-0.12431 1.4159,-0.75267 2.30008,-1.39634 0.88417,-0.64368 2.2694,-1.40382 3.07824,-1.68919 0.80882,-0.28538 1.97387,-0.8299 2.58895,-1.21005 0.6151,-0.38015 1.8787,-0.7795 2.80799,-0.88746 0.92925,-0.10795 2.39076,-0.49083 3.24772,-0.85085 4.47731,-1.88098 6.11627,-2.3418 8.25379,-2.32067 1.46129,0.0144 2.28865,-0.13063 2.47625,-0.43421 0.38596,-0.62448 9.83932,-0.69592 10.45619,-0.079 0.23074,0.23073 1.05484,0.4195 1.83133,0.4195 1.68206,0 2.94884,0.7874 2.95618,1.83743 0.009,1.33234 0.45127,1.58635 2.94739,1.69403 l 2.41414,0.10413 0.059,1.5572 c 0.0433,1.14275 0.25269,1.69567 0.78691,2.07748 0.4004,0.28616 1.25692,0.92151 1.90339,1.41189 0.75721,0.57439 2.03455,1.04516 3.59016,1.32316 2.29873,0.41081 2.53774,0.38786 4.97618,-0.4778 l 2.56143,-0.90932 1.67293,0.7171 c 2.38837,1.02377 6.92742,4.31155 9.27507,6.71825 2.63937,2.70572 2.66898,3.52766 0.25734,7.14497 -2.0529,3.0792 -3.69871,6.31725 -4.00106,7.87177 -0.17038,0.87614 -0.0859,1.17057 0.38794,1.35241 0.45033,0.17281 1.22779,-0.40332 3.03052,-2.24573 1.33364,-1.363 3.2614,-2.95683 4.28393,-3.54186 1.168,-0.66825 1.85914,-1.29592 1.85914,-1.68838 0,-1.20635 0.89955,-1.54543 2.33491,-0.88013 2.89784,1.3432 3.45159,2.67017 2.16629,5.19123 -0.98108,1.92434 -0.89906,3.31274 0.25969,4.3969 1.33786,1.25171 2.97006,2.00866 4.33126,2.00866 1.55521,0 2.16754,0.53532 2.97048,2.59685 0.37087,0.95218 1.09169,2.64153 1.60181,3.75412 0.51009,1.11259 1.13209,2.98232 1.38218,4.15496 0.25013,1.17263 0.69748,3.14484 0.99415,4.38267 1.35199,5.64092 1.52064,7.96926 0.80263,11.07988 -0.37737,1.63489 -0.60801,1.98825 -1.62999,2.49724 -0.65475,0.32609 -1.61891,0.67963 -2.14261,0.78565 -1.12104,0.22696 -1.20888,0.88071 -0.29351,2.18451 0.85249,1.21428 1.25508,5.17938 0.65874,6.4882 -0.45542,0.99953 -0.49257,0.94651 1.81152,2.58676 l 0.72958,0.51937 -0.88712,1.90435 c -0.48793,1.04739 -0.88868,2.29394 -0.89051,2.7701 -0.0139,3.54405 3.18938,12.02677 5.59402,14.81396 0.5397,0.62554 0.98127,1.41971 0.98127,1.76481 0,0.34511 0.31027,0.98522 0.68952,1.42247 0.61309,0.70691 0.67701,1.20197 0.57694,4.46763 -0.0797,2.60173 -0.28018,3.97549 -0.68737,4.71135 -0.31615,0.5713 -0.57577,1.22906 -0.57695,1.46167 -0.004,0.84262 -1.66111,4.14958 -2.17851,4.34812 -0.29175,0.11196 -1.25123,-0.25352 -2.13219,-0.81219 -1.94351,-1.23255 -2.04472,-1.23824 -2.75453,-0.15492 -0.39652,0.60518 -0.50115,1.25412 -0.3523,2.18507 0.19341,1.20941 0.1009,1.42159 -1.06685,2.44688 -0.70327,0.61746 -1.42692,1.65972 -1.60818,2.31613 -0.38274,1.38626 -0.7867,1.45509 -2.84933,0.48553 -0.95121,-0.44712 -2.38491,-0.74323 -3.8915,-0.80374 -1.312,-0.0527 -2.86432,-0.30326 -3.44966,-0.55678 -0.6357,-0.27535 -1.45482,-0.36295 -2.03416,-0.21754 -0.9037,0.22681 -0.9573,0.33776 -0.7847,1.62455 0.32402,2.41561 1.36189,2.89134 4.14278,1.89893 1.00885,-0.36004 1.54938,-0.37533 2.42372,-0.0686 1.55347,0.54503 1.99092,0.86567 1.99092,1.45925 0,0.28038 -0.19477,0.56564 -0.43281,0.63389 -3.78842,1.08623 -4.1576,1.50907 -3.23433,3.70483 0.67221,1.5987 0.23313,2.22371 -2.02294,2.87957 -1.82724,0.53119 -1.92014,0.61926 -3.10365,2.94153 -1.22509,2.40389 -2.28616,6.11749 -2.28616,8.00126 0,0.8283 -0.24691,1.13619 -1.37117,1.70975 -0.75416,0.38474 -1.88379,0.70448 -2.51029,0.71054 -0.62653,0.006 -1.44315,0.24094 -1.81478,0.52197 -0.44812,0.33888 -1.06035,0.4388 -1.81779,0.29671 -1.20415,-0.2259 -1.40895,0.0649 -0.82117,1.16593 0.17656,0.33067 0.40391,0.87005 0.50525,1.19861 0.11028,0.35758 0.80921,0.75475 1.74107,0.98939 2.00515,0.5049 2.47164,1.26467 2.77689,4.5226 0.26491,2.8273 -0.18226,4.85842 -1.56074,7.08886 -0.50579,0.81842 -0.66721,1.71721 -0.66721,3.71514 0,1.44954 -0.21727,3.22298 -0.48285,3.94096 -0.26553,0.71799 -0.66807,2.84061 -0.89449,4.71693 -0.39877,3.30431 -1.29108,6.2722 -2.73029,9.08103 -0.38253,0.74654 -0.79758,1.92481 -0.9223,2.61839 -0.14002,0.77848 -0.6785,1.69886 -1.40714,2.40508 -0.64922,0.62922 -1.18035,1.32762 -1.18035,1.552 0,0.22439 -0.92812,1.3624 -2.06253,2.52893 -2.00054,2.05723 -3.00954,2.51809 -4.0559,1.8525 z m 7.76309,-46.3468 c 0.98095,-0.26289 0.98725,-0.91321 0.0214,-2.21952 -1.43762,-1.94448 -2.94393,-0.94448 -1.89398,1.25736 0.59815,1.25429 0.6613,1.28675 1.87254,0.96216 z m -14.80204,-6.10353 c 0,-0.23955 -0.4085,-1.20294 -0.90779,-2.14086 -0.49929,-0.93791 -1.27882,-2.80641 -1.7323,-4.1522 -0.45348,-1.3458 -1.07884,-2.99224 -1.3897,-3.65877 -1.58899,-3.40689 -1.84542,-4.19353 -2.20088,-6.7518 -0.54544,-3.92575 -2.46517,-8.48303 -3.57343,-8.48303 -0.17888,0 -1.62615,-1.33653 -3.21612,-2.97006 -1.80754,-1.85702 -3.10995,-2.9275 -3.47541,-2.85653 -0.32146,0.0624 -0.84013,0.58094 -1.15255,1.15226 -1.28929,2.35764 -3.25403,7.41645 -3.6904,9.50213 -0.25681,1.22735 -1.15363,4.03209 -1.99296,6.23273 -1.53914,4.03544 -2.57288,8.87808 -2.01436,9.43658 0.49531,0.49531 1.3639,-0.0518 1.81631,-1.14393 0.53522,-1.29217 1.90501,-2.38711 2.98631,-2.38711 0.5822,0 1.04441,0.36237 1.5456,1.21186 0.82577,1.39956 1.9232,1.59565 2.89853,0.51794 0.56653,-0.62601 0.58513,-0.87262 0.18995,-2.51984 -0.3746,-1.56155 -0.35998,-1.99997 0.10094,-3.02822 0.91239,-2.03536 2.45897,-3.949 3.48241,-4.30892 0.86585,-0.3045 1.06893,-0.227 1.80581,0.68926 0.45666,0.5678 1.14109,1.85715 1.52099,2.86523 0.37987,1.00808 1.00595,2.25926 1.39126,2.7804 0.3853,0.52115 0.82296,1.7219 0.97256,2.66834 0.37558,2.37552 1.80184,4.64406 3.64633,5.79966 0.84508,0.52945 1.72656,1.19165 1.95885,1.47154 0.51768,0.62377 1.03005,0.66025 1.03005,0.0733 z m 27.39453,-38.20053 c 1.92752,-1.86776 2.14206,-2.37825 2.07184,-4.93042 -0.0848,-3.08054 0.35712,-3.52299 3.51825,-3.52299 l 2.40762,0 1.51687,-1.64468 c 1.42218,-1.54201 1.96429,-2.85653 1.178,-2.85653 -0.19043,0 -0.34624,-0.51418 -0.34624,-1.14261 0,-1.32248 -0.52,-1.97361 -1.57615,-1.97361 -0.40985,0 -1.2746,-0.35625 -1.92168,-0.79166 l -1.1765,-0.79166 -0.23905,-3.59349 c -0.18736,-2.81577 -0.13116,-3.80221 0.25969,-4.55796 0.27429,-0.53046 0.49873,-1.35482 0.49873,-1.83192 0,-0.47709 0.38952,-1.44143 0.86562,-2.14298 0.97083,-1.43059 1.07921,-2.66672 0.34624,-3.9489 -0.27215,-0.47609 -0.50036,-1.19711 -0.50708,-1.60227 -0.0191,-1.13726 -0.83463,-1.65232 -1.80796,-1.14163 -1.78888,0.93862 -3.39803,2.4723 -3.39803,3.2387 0,1.59484 -2.45336,2.81789 -6.27246,3.12693 -2.98163,0.24127 -2.9835,0.2409 -3.75272,-0.73698 -0.6069,-0.77158 -0.72567,-1.25306 -0.56182,-2.27782 0.1823,-1.13999 0.12232,-1.29942 -0.4888,-1.29942 -0.38312,0 -0.69658,0.1236 -0.69658,0.27467 0,0.15107 -0.76815,1.18316 -1.70699,2.29352 -0.93885,1.11037 -1.88981,2.4602 -2.11325,2.99963 -0.27426,0.66213 -0.81648,1.11347 -1.66891,1.38921 -1.53889,0.4978 -5.17749,2.34936 -5.43471,2.76553 -0.1026,0.166 -0.99768,0.84293 -1.98905,1.50429 -0.99141,0.66136 -2.83991,2.26219 -4.10777,3.55741 -3.21344,3.28275 -4.57115,6.04497 -3.22511,6.5615 0.29095,0.11164 0.69128,0.50624 0.88965,0.87688 0.50507,0.94376 -0.11305,1.57528 -1.88192,1.9227 -1.31196,0.25769 -1.45105,0.38644 -1.5524,1.43722 -0.13652,1.41538 1.01751,2.80666 2.33571,2.81589 0.95886,0.007 2.8334,1.93709 3.29578,3.39393 0.37669,1.18676 1.45493,1.42761 4.00271,0.89406 4.60339,-0.96404 9.79577,-0.43165 13.67134,1.40179 3.45218,1.63316 4.44089,1.91392 6.33693,1.79953 1.58906,-0.0959 2.01658,-0.28988 3.2302,-1.46586 z m -86.04058,0.17548 c 1.49998,-0.39587 3.07083,-0.80222 3.49072,-0.90301 0.46861,-0.11246 1.10474,0.0852 1.647,0.51173 1.22259,0.9617 4.91212,1.27201 7.63067,0.64179 1.14262,-0.26488 3.63559,-0.89927 5.53995,-1.40975 5.30761,-1.42276 6.69263,-1.59024 8.39471,-1.01511 2.39287,0.80855 4.01303,-0.56777 3.69061,-3.13517 -0.17281,-1.37595 0.16571,-2.54439 2.48348,-8.57193 l 0.62176,-1.61695 -1.35819,-1.67239 c -5.30006,-6.5262 -10.33061,-10.15542 -14.07672,-10.15542 -1.08233,0 -2.55807,-0.30601 -3.64168,-0.75515 l -1.82191,-0.75514 -1.51203,0.75514 c -0.83161,0.41533 -1.77538,0.75515 -2.09724,0.75515 -0.32188,0 -1.0527,0.24175 -1.62404,0.53721 -1.30712,0.67592 -2.11778,0.42179 -3.33332,-1.04495 -1.16719,-1.40838 -1.58352,-1.49218 -3.47056,-0.69857 -1.62348,0.68276 -1.63114,0.70993 -1.10851,3.93081 0.29684,1.82934 0.25781,2.50791 -0.22887,3.98184 -0.3227,0.97718 -0.77549,2.08833 -1.00619,2.46919 -0.23074,0.38088 -0.62352,1.47155 -0.87289,2.42373 -0.24937,0.95218 -0.67705,2.0806 -0.95041,2.50761 -0.66739,1.04251 -0.35005,1.69611 1.12215,2.31123 0.88656,0.37042 1.22692,0.72748 1.22692,1.28705 0,0.85408 -1.25016,2.37715 -1.95123,2.37715 -0.46044,0 -1.85748,1.32569 -1.85748,1.76265 0,0.1359 0.45535,0.40582 1.01191,0.59984 1.78248,0.62137 2.15071,2.41524 0.80949,3.94361 -0.51996,0.59252 -0.39057,1.65757 0.20137,1.65757 0.1723,0 1.54052,-0.32389 3.04053,-0.71976 z"
             style="fill:#010101" />
        <path
             style="fill:#030303"
             d="m 427.27533,415.5595 c -13.52506,-0.01 -15.074,0.0507 -19.48099,0.72229 -6.21484,0.94703 -7.53618,1.26399 -10.85488,2.60021 -6.67472,2.68742 -14.02364,8.90994 -18.84128,15.95214 -2.1732,3.17668 -5.84084,10.30997 -7.46015,14.51788 -0.59653,1.55015 -1.32008,3.26265 -1.60965,3.80746 -0.28959,0.5448 -0.52525,1.15055 -0.52624,1.34138 -0.002,0.37632 -4.32529,11.14483 -5.0663,12.61931 -0.24914,0.49574 -0.80766,2.16066 -1.2382,3.70428 -0.7132,2.55711 -0.78107,3.40826 -0.75324,9.5754 0.0301,6.67958 0.0525,6.82542 1.20725,11.06125 1.85553,6.8067 5.52904,16.67441 6.21163,16.67441 0.28976,0 0.43742,-0.49403 0.80483,-2.80659 0.37948,-2.38852 2.13008,-7.31246 3.15741,-8.86344 1.36016,-2.05347 5.21234,-4.98215 5.78858,-4.40592 0.12418,0.12419 -0.48419,1.67322 -1.3517,3.44632 -2.1276,4.34859 -2.62993,5.46826 -3.64237,8.17211 -0.476,1.27122 -1.13901,2.97993 -1.47552,3.79715 -0.33652,0.81721 -1.24545,4.01176 -2.02239,7.099 -1.30528,5.18659 -1.41599,5.95192 -1.43425,10.07069 -0.022,4.97317 0.29685,6.2762 2.79627,11.39143 1.30506,2.67091 5.06444,8.08956 5.61316,8.08956 0.1638,0 0.80595,-0.78805 1.42393,-1.75411 5.10961,-7.9876 12.53596,-10.21606 18.70714,-5.61317 2.36595,1.76469 3.72767,4.00006 3.90029,6.38704 0.24553,3.39454 -1.5207,7.64668 -3.26058,7.85225 -1.13545,0.13415 -2.92807,-1.15875 -3.7146,-2.68277 -0.8332,-1.61454 -1.09592,-5.20825 -0.57783,-7.84193 0.21855,-1.11015 0.29997,-2.11457 0.18576,-2.22875 -0.35214,-0.35218 -3.75554,1.61915 -5.48934,3.17804 -3.54079,3.18348 -3.78358,5.93227 -0.89771,10.02941 0.34289,0.48682 1.01463,1.89837 1.49613,3.13677 0.84033,2.16101 0.88579,2.59503 1.09378,10.83424 0.2379,9.42454 0.34686,10.02373 2.497,13.69242 1.78512,3.04579 2.59725,3.83503 6.87204,6.62436 7.28596,4.75422 8.95782,6.43352 10.62784,10.72074 1.28637,3.30233 3.16797,5.1921 5.94335,5.94336 1.16183,0.31448 2.89309,0.69582 3.84875,0.8461 0.95563,0.15026 4.78976,0.21607 8.51264,0.15477 7.05222,-0.11611 10.75833,-0.67638 12.6709,-1.92952 1.22668,-0.80375 2.42792,-2.5259 3.36374,-4.82898 1.88655,-4.64283 3.64011,-6.4588 10.21517,-10.57628 4.00933,-2.51077 5.10059,-3.50618 6.93392,-6.28386 2.60223,-3.94276 3.13313,-6.64337 3.13677,-16.09659 0.003,-7.65904 0.17133,-8.46784 2.81689,-12.98045 2.336,-3.98458 2.09787,-6.03061 -1.05248,-9.04917 -1.25956,-1.20687 -4.86793,-3.47727 -5.53061,-3.47727 -0.11141,0 -0.10355,1.67156 0.0104,3.7146 0.29183,5.23713 -0.43878,7.43085 -2.90979,8.70866 -1.50298,0.77721 -2.45348,0.36811 -3.35344,-1.44457 -1.76448,-3.55387 -1.92783,-6.55355 -0.49529,-8.9563 3.16048,-5.30101 9.60275,-7.30228 14.87903,-4.62261 1.84049,0.93473 5.3961,4.42349 6.74818,6.61405 0.65734,1.06497 1.31127,1.92952 1.45487,1.92952 0.83805,0 5.01656,-6.32326 6.65534,-10.07068 1.47128,-3.3644 1.90748,-5.42323 1.89857,-9.0079 -0.0185,-7.44615 -2.88101,-17.47313 -8.12051,-28.4373 -1.16344,-2.43465 -2.02935,-4.50215 -1.92954,-4.60197 0.61953,-0.61955 5.03085,2.92905 6.23227,5.0147 0.97666,1.69545 2.71922,7.11839 3.02325,9.41032 0.12441,0.93763 0.33623,1.70252 0.47468,1.70252 0.53734,0 3.94606,-8.48536 5.49965,-13.70274 1.94928,-6.54611 2.22545,-8.39064 2.22875,-14.69329 0.002,-5.47766 -0.0875,-6.48713 -0.87703,-9.80241 -0.89276,-3.74874 -3.24204,-10.93991 -4.45752,-13.64082 -0.36618,-0.81358 -1.05303,-2.52592 -1.51681,-3.79715 -0.99225,-2.71953 -3.29368,-7.96442 -4.93216,-11.22633 -4.30959,-8.57941 -11.26656,-15.63779 -20.41994,-20.73983 -3.46016,-1.92866 -7.49296,-3.15601 -13.47577,-4.09638 -5.27731,-0.82949 -5.98202,-0.86682 -20.16197,-0.87706 z m -3.28126,9.98815 a 2.3115357,2.3115357 0 0 1 1.92954,1.0731 l 8.07926,12.836 23.22653,0 a 2.3115357,2.3115357 0 0 1 1.12472,4.33369 l -15.9831,8.97694 15.15764,24.09329 a 2.3115357,2.3115357 0 0 1 -3.11617,3.22964 l -29.88187,-17.30383 -29.37625,16.499 a 2.3115357,2.3115357 0 0 1 -3.11613,-3.21932 l 14.40438,-23.75279 -14.76554,-8.54357 a 2.3115357,2.3115357 0 0 1 1.16598,-4.31305 l 21.38991,0 7.75937,-12.79473 a 2.3115357,2.3115357 0 0 1 2.00173,-1.11437 z m 0.0103,6.7069 -4.36463,7.2022 8.89436,0 -4.52973,-7.2022 z m -22.55585,11.8248 7.38792,4.28211 2.60021,-4.28211 -9.98813,0 z m 15.39493,0 -4.0035,6.59341 11.72161,6.78946 11.30889,-6.34577 -4.42655,-7.0371 -14.60045,0 z m 20.05883,0 3.00265,4.76707 8.49196,-4.76707 -11.49461,0 z m -26.45619,10.55565 -9.88495,16.30295 19.31591,-10.84456 -9.43096,-5.45839 z m 27.89045,0.40241 -9.1214,5.11789 19.40876,11.23666 -10.28736,-16.35455 z m 18.01576,38.80722 c 1.8782,0.004 3.57771,0.0884 4.58134,0.25796 1.32437,0.22375 1.3984,0.29273 1.2279,1.14534 -0.19016,0.95081 -0.0532,1.19084 2.64149,4.67419 1.78984,2.3137 4.1271,6.93248 4.18924,8.2753 l 0.0516,1.06278 -1.55808,-0.0929 c -1.74992,-0.0996 -1.58708,-0.35627 -2.25973,3.59078 -0.34775,2.04078 -0.85476,3.52538 -2.36288,6.97518 -0.78393,1.79319 -1.99037,3.40611 -2.31131,3.08518 -0.12405,-0.12402 -0.40266,-1.32046 -0.6191,-2.66212 -0.46153,-2.86093 -0.53724,-2.89697 -3.97254,-1.65094 -3.32259,1.20516 -7.78622,1.75273 -9.94686,1.21757 -2.56334,-0.6349 -6.08487,-2.96457 -9.66828,-6.39737 l -3.16771,-3.0439 -0.82547,-2.97167 c -2.45639,-8.88349 -2.48597,-9.21323 -0.72232,-7.01647 0.54676,0.68101 1.17732,1.2382 1.40329,1.2382 0.22601,0 1.66137,-0.81428 3.18838,-1.81602 4.24868,-2.78715 8.32199,-4.6649 11.52559,-5.30362 1.83468,-0.3658 5.47515,-0.57384 8.60545,-0.56751 z m -63.58147,0.0309 c 3.41144,-0.0543 7.96736,0.14549 9.90558,0.54687 2.95501,0.61197 7.40496,2.66226 11.30889,5.21076 1.3844,0.90374 2.72126,1.71993 2.97167,1.81602 0.25144,0.0965 1.05604,-0.39583 1.79536,-1.10406 1.58381,-1.51712 1.60543,-1.9043 -0.34049,5.14884 l -1.32074,4.78771 -3.40505,3.31218 c -3.83194,3.71051 -7.5924,5.9864 -10.45248,6.32513 -2.04237,0.24189 -5.80511,-0.36714 -9.01818,-1.45488 -1.38461,-0.46874 -2.74055,-0.76491 -3.01295,-0.66038 -0.29529,0.11331 -0.58925,0.83447 -0.72232,1.78507 -0.12276,0.87706 -0.30054,2.07193 -0.40239,2.66213 -0.10183,0.59021 -0.3153,1.07311 -0.47465,1.07311 -0.34772,0 -2.91987,-4.9053 -3.5495,-6.76882 -0.24546,-0.72641 -0.70056,-2.658 -1.00086,-4.29243 l -0.53656,-2.97167 -1.81602,0 c -2.15713,0 -2.15151,0.05 -0.58816,-3.63205 1.03711,-2.44263 3.59378,-6.35542 5.46871,-8.37848 0.57723,-0.62273 0.73179,-1.08748 0.59847,-1.75411 -0.13819,-0.69099 -0.0181,-0.99443 0.49527,-1.26916 0.41518,-0.22219 2.0495,-0.34918 4.0964,-0.38178 z m 37.77536,1.7438 c 0.087,-0.0202 0.16163,-0.003 0.21667,0.0516 0.0956,0.0956 -0.0211,0.64749 -0.25794,1.22788 -0.43159,1.05787 -0.91832,1.05887 -0.91832,0 0,-0.48654 0.58258,-1.19179 0.95959,-1.27948 z m -10.79297,0.454 c 0.36162,-0.0309 0.91835,0.59612 0.91835,1.18661 0,0.33025 -0.14825,0.69238 -0.33018,0.80483 -0.38748,0.23945 -1.09418,-1.38914 -0.80486,-1.8573 0.0534,-0.0864 0.13325,-0.12699 0.21669,-0.13414 z m 4.39561,24.93939 c 0.7033,0 7.04865,6.18187 8.28563,8.06893 0.48488,0.7398 1.13406,1.71284 1.43423,2.16685 1.98859,3.00777 2.56585,7.00078 1.48584,10.29769 -1.00935,3.08121 -3.79355,8.19275 -4.45751,8.19275 -0.17937,0 -0.31986,-0.57161 -0.31986,-1.26916 -3e-5,-1.7366 -0.7659,-4.13951 -1.83669,-5.75762 -0.49096,-0.74193 -1.54263,-2.83515 -2.33191,-4.65356 -1.90425,-4.38691 -2.14053,-4.61082 -3.19871,-2.97168 -0.45368,0.70287 -1.16705,2.24527 -1.57869,3.42568 -0.41164,1.18041 -1.22063,2.81484 -1.80572,3.63205 -1.19498,1.66919 -2.12554,4.44279 -2.12554,6.33545 -4e-5,0.69345 -0.14034,1.25884 -0.30959,1.25884 -0.72611,0 -3.06122,-4.15039 -4.13763,-7.35697 -1.47989,-4.40855 -0.98831,-7.94594 1.67157,-12.01053 1.56102,-2.38547 8.43395,-9.35872 9.22458,-9.35872 z m -24.83622,38.30162 c 0.23284,0 0.68137,0.70577 0.99056,1.56839 0.44737,1.24814 0.55722,2.73135 0.55722,7.2641 -0.002,6.88714 -0.24975,7.15036 -2.33198,2.47639 -1.15419,-2.59086 -1.45608,-3.67051 -1.54771,-5.53062 -0.10305,-2.09051 -0.0179,-2.47689 0.89768,-4.04478 0.55676,-0.95341 1.20138,-1.73348 1.43423,-1.73348 z m 55.05857,0 c 0.52734,-0.0231 1.19938,0.85769 2.0224,2.62085 1.03024,2.20703 0.68011,4.75529 -1.18659,8.74995 -0.81302,1.73979 -1.62548,3.15741 -1.81603,3.15741 -0.63531,0 -0.78343,-1.69029 -0.58816,-6.72756 0.20195,-5.20881 0.6895,-7.76208 1.56838,-7.80065 z m -44.76085,4.13765 c 0.11318,-6.8e-4 0.22274,0.0783 0.35079,0.20637 0.65651,0.65653 1.11249,4.59463 1.12471,9.75081 0.005,2.39552 -0.12458,4.43851 -0.28891,4.54006 -0.63452,0.39216 -2.70924,-3.90962 -3.3328,-6.91327 -0.51057,-2.45937 -0.21188,-4.32871 1.0215,-6.27354 0.59622,-0.94014 0.87562,-1.30856 1.12471,-1.31043 z m 34.50448,0.22701 c 0.86069,-0.0863 2.58611,3.17918 2.62082,5.04565 0.0276,1.48165 -1.07374,5.04891 -2.28034,7.36729 -0.58694,1.12777 -1.20227,2.04302 -1.36202,2.04302 -0.5561,0 -0.70187,-1.68588 -0.54685,-6.19099 0.16456,-4.78327 0.73361,-7.95569 1.48583,-8.24434 0.0259,-0.01 0.0548,-0.0179 0.0826,-0.0206 z m -23.28848,2.56926 c 0.81906,0 1.29589,3.2599 1.31041,8.88407 0.01,3.69395 -0.10041,5.46636 -0.35079,5.55126 -0.41551,0.14089 -2.52553,-4.00744 -3.06456,-6.01558 -0.47167,-1.75714 -0.46034,-4.53111 0.0309,-5.67508 0.63006,-1.46695 1.59599,-2.74467 2.074,-2.74467 z m 12.17563,0 c 0.66476,0 2.15429,2.63312 2.39384,4.23051 0.29714,1.98132 -0.57261,5.5797 -1.97078,8.13084 -1.88711,3.44327 -2.30794,2.78151 -2.08433,-3.30187 0.1988,-5.40768 0.86891,-9.05948 1.66127,-9.05948 z"
             id="path5306"
             inkscape:connector-curvature="0" />
        <path
             inkscape:connector-curvature="0"
             id="path3023"
             d="m 662.90336,615.18118 c -0.44875,-0.2774 -0.42201,-0.6155 0.14277,-1.8057 1.30827,-2.7569 0.60183,-8.3599 -0.74594,-5.9162 -0.24475,0.4438 -1.16013,1.514 -2.03418,2.3784 -1.81763,1.7974 -3.49671,2.0596 -4.69694,0.7333 -1.02488,-1.1324 -1.302,-1.0725 -2.90639,0.6287 -1.69678,1.7991 -2.8486,1.8528 -4.4919,0.2095 -0.69148,-0.6915 -1.35694,-1.2572 -1.4788,-1.2572 -0.12187,0 -0.78888,0.4773 -1.48225,1.0607 -1.56739,1.3189 -2.57583,1.0938 -4.38875,-0.9798 l -1.33768,-1.53 -1.05547,0.9916 c -0.85851,0.8065 -1.34346,0.9448 -2.59886,0.7411 -1.62826,-0.2642 -3.33864,-1.571 -3.74915,-2.8644 -0.36186,-1.1401 -1.38829,-0.9371 -1.70829,0.3379 -0.15319,0.6104 -0.0625,2.2822 0.20156,3.7152 0.26404,1.433 0.48008,2.8195 0.48008,3.081 0,0.9827 -1.56022,0.4202 -3.04005,-1.096 -2.21367,-2.268 -2.9244,-4.5548 -2.98522,-9.6049 -0.0467,-3.8811 0.0329,-4.3514 0.8916,-5.2655 1.26762,-1.3493 1.18699,-2.1405 -0.2744,-2.6922 -1.74989,-0.6605 -3.81159,-3.6735 -3.81159,-5.5703 0,-1.8241 0.60286,-2.5354 2.14878,-2.5354 2.11503,0 4.05463,3.8575 3.47992,6.9209 -0.24697,1.3165 -0.18097,1.4606 0.669,1.4606 0.91115,0 0.93229,-0.088 0.62615,-2.6192 -0.17425,-1.4406 -0.3633,-3.3658 -0.4201,-4.2781 -0.0877,-1.4094 -0.27351,-1.7044 -1.23493,-1.9616 -1.77055,-0.4735 -2.33529,-1.1739 -2.33529,-2.8961 0,-1.1979 -0.2583,-1.7978 -1.03837,-2.4114 -0.57111,-0.4492 -1.22811,-1.3158 -1.46001,-1.9257 -1.05633,-2.7784 1.21906,-21.6947 3.16674,-26.3266 1.34487,-3.19839 1.40302,-7.25503 0.12725,-8.87691 -0.54391,-0.69148 -1.00629,-2.11532 -1.20914,-3.72343 -0.18066,-1.4321 -0.6634,-3.73531 -1.07277,-5.11826 -0.40937,-1.38295 -0.7784,-3.92883 -0.82007,-5.65751 -0.0905,-3.75586 -1.28834,-6.87067 -2.92971,-7.61853 -1.4683,-0.669 -2.17578,0.0253 -1.41849,1.39218 0.30104,0.54335 0.66831,2.11941 0.81615,3.50236 0.37619,3.51889 1.21768,8.55284 1.69195,10.12154 0.44903,1.48522 0.398,14.74962 -0.0578,15.03136 -0.16143,0.1 -0.63355,-0.19437 -1.04916,-0.65361 -0.60759,-0.67137 -0.8509,-2.12702 -1.24172,-7.4287 -0.52777,-7.15944 -0.76175,-7.93525 -3.56853,-11.83215 -0.91307,-1.26771 -1.88307,-3.05925 -2.15554,-3.98122 -0.27247,-0.92196 -0.86955,-2.09651 -1.32684,-2.6101 -1.0216,-1.14738 -1.53214,-3.81574 -0.93431,-4.88323 0.33969,-0.60657 0.29656,-0.83926 -0.18723,-1.01002 -0.98247,-0.34677 -3.78813,-3.5052 -4.44009,-4.99836 -0.32385,-0.7417 -0.58881,-1.84981 -0.58881,-2.46249 0,-1.12323 -2.55412,-8.01733 -3.5684,-9.63187 -1.21329,-1.93131 -2.53373,-8.15527 -1.50012,-7.07083 0.20871,0.21896 1.26273,2.15714 2.34226,4.30707 1.07954,2.14992 2.02986,3.84187 2.11183,3.7599 0.082,-0.082 -0.0417,-0.89807 -0.27474,-1.81356 -0.23308,-0.9155 -0.56639,-2.32733 -0.74068,-3.1374 -0.41299,-1.91945 -1.57504,-3.66049 -2.93744,-4.40099 -0.59963,-0.32591 -2.51515,-1.96638 -4.25673,-3.64549 -3.27195,-3.15458 -3.5606,-3.63104 -7.90452,-13.04756 -0.94092,-2.03969 -1.71077,-3.85721 -1.71077,-4.03893 0,-1.11126 -2.74833,-5.98216 -3.54658,-6.28565 -2.17759,-0.82792 -13.22299,-20.42067 -15.35168,-27.23138 -0.89175,-2.85315 -2.89365,-13.95838 -2.89365,-16.05206 0,-0.66237 0.28288,-1.48719 0.62861,-1.83293 0.63034,-0.63033 0.73274,-1.95596 0.82092,-10.62655 0.0365,-3.5867 1.00175,-7.55439 2.12949,-8.75311 0.83621,-0.88883 2.0289,-0.24746 1.67467,0.90055 -0.15915,0.5158 -0.55265,3.29512 -0.87443,6.17626 -0.50704,4.53986 -0.50287,5.96497 0.0313,10.68642 0.88925,7.86009 1.15212,9.05766 3.74702,17.07082 2.19562,6.78013 2.52893,7.49425 5.29574,11.34598 2.52267,3.51188 2.87316,4.20621 2.40684,4.76809 -0.46569,0.56113 -0.33186,0.8416 0.91191,1.91102 0.80173,0.68934 2.78358,1.87767 4.40411,2.64072 3.62524,1.70701 4.20818,2.3523 4.52506,5.00904 0.24084,2.01915 1.88689,6.50948 3.47196,9.47124 l 0.76247,1.42471 0.22364,-1.46676 c 0.20497,-1.34429 0.36361,-1.48565 1.89994,-1.69297 2.70255,-0.36469 7.46233,-4.17713 9.30256,-7.45107 0.81873,-1.45661 1.8422,-2.86921 2.27438,-3.13911 0.43218,-0.2699 0.78578,-0.84741 0.78578,-1.28337 0,-0.88294 -1.56291,-3.61556 -2.06791,-3.61556 -0.80739,0 -5.01091,-5.66262 -5.42537,-7.30858 -0.24477,-0.97206 -0.82763,-2.25378 -1.29524,-2.84826 -0.46762,-0.59447 -0.85021,-1.28675 -0.85021,-1.53838 0,-0.25164 -0.45682,-1.3534 -1.01516,-2.44835 -0.55834,-1.09496 -1.29733,-2.93375 -1.64221,-4.0862 -1.43306,-4.78887 -4.59765,-13.5024 -5.34886,-14.72783 -0.86,-1.40288 -2.0395,-4.91746 -2.04704,-6.09957 -0.003,-0.39148 0.45707,-1.20987 1.02126,-1.81864 l 1.02578,-1.10684 -1.02578,-2.31949 c -0.56419,-1.27573 -1.02579,-2.83869 -1.02579,-3.47327 0,-1.43916 -0.77667,-2.10149 -3.04596,-2.59754 -5.76853,-1.26095 -8.42505,-1.24252 -9.83195,0.0682 -0.42719,0.39799 -1.60655,2.12016 -2.62081,3.82704 -1.01425,1.70688 -1.90537,3.18515 -1.98026,3.28503 -0.0749,0.0999 -0.36526,-0.0475 -0.64528,-0.32753 -0.69505,-0.69505 0.87846,-3.64368 3.7768,-7.07741 2.10325,-2.49178 2.19326,-2.69675 1.93232,-4.40029 -0.51632,-3.37084 -1.91361,-5.13938 -4.06052,-5.13938 -2.71952,0 -1.43502,-1.95038 3.86399,-5.86705 1.87105,-1.38295 4.36153,-3.22164 5.53441,-4.08598 1.17288,-0.86435 2.4479,-1.57153 2.83337,-1.57153 0.38548,0 2.1701,-0.56576 3.96583,-1.25723 1.79573,-0.69147 3.74253,-1.25723 4.32623,-1.25723 1.65881,0 5.69032,-1.28584 6.84778,-2.18409 2.63096,-2.04175 3.49048,-5.21898 2.50497,-9.25967 -0.25094,-1.02891 -0.28986,-2.53864 -0.0939,-3.64294 l 0.33464,-1.88584 2.44009,-0.26329 c 2.849,-0.30741 4.07983,-1.10658 6.00352,-3.89804 1.38005,-2.00259 1.85713,-4.50625 0.96386,-5.05832 -0.23049,-0.14245 -0.41908,-0.88623 -0.41908,-1.65284 0,-1.019 0.27778,-1.57584 1.03295,-2.07064 1.59086,-1.04237 2.22716,-0.83254 3.66619,1.20903 0.73109,1.03721 1.47452,1.88584 1.65205,1.88584 0.17753,0 1.07641,-1.08436 1.99749,-2.40969 0.92109,-1.32532 2.05543,-2.88114 2.52075,-3.45737 1.00757,-1.24771 1.10307,-2.09537 0.23607,-2.09537 -0.34574,0 -0.62685,-0.33002 -0.62468,-0.73338 0.006,-1.18869 2.43649,-5.08171 4.39414,-7.03935 1.68399,-1.684 5.43382,-3.96138 6.52262,-3.96138 0.25942,0 0.95116,-0.37716 1.53721,-0.83815 0.58604,-0.46098 1.39802,-0.83815 1.80439,-0.83815 0.40637,0 1.55959,-0.46919 2.5627,-1.04264 1.00312,-0.57345 2.22236,-1.04491 2.70942,-1.04769 0.80301,-0.005 2.686,-1.77027 5.50256,-5.15977 0.75277,-0.90591 1.29566,-1.13085 2.72398,-1.12864 1.0302,0.002 2.28205,0.33125 2.96308,0.78028 1.15166,0.75934 3.22105,3.42247 3.22105,4.14522 0,0.7568 2.39585,2.60974 4.67976,3.61931 1.69551,0.74949 2.79277,0.98195 3.83588,0.81268 1.17169,-0.19014 1.54839,-0.0739 1.90214,0.58713 0.24262,0.45332 1.76434,1.89334 3.38162,3.20004 2.45987,1.98748 3.175,2.87103 4.37504,5.40539 0.78899,1.66626 1.85295,4.25535 2.36436,5.75355 0.85062,2.49191 2.96353,5.44798 3.89404,5.44798 0.20963,0 0.94144,-0.47146 1.62625,-1.04769 2.44965,-2.06125 5.06106,-0.83924 4.03002,1.88584 -0.49132,1.29856 -0.0335,6.24555 0.66635,7.20071 0.65564,0.89479 5.10521,2.53846 8.00034,2.95533 1.46739,0.21129 1.73274,2.05797 0.65552,4.56203 -0.78468,1.82405 -0.92147,2.74781 -0.76571,5.17114 0.22479,3.49735 0.65575,4.29549 3.19511,5.91738 2.26009,1.44352 3.10934,1.72403 6.89197,2.27646 3.03552,0.44332 6.28771,1.85771 7.59311,3.30228 0.43908,0.4859 1.06747,0.88345 1.39643,0.88345 0.32895,0 2.26436,1.60296 4.3009,3.56214 2.03654,1.95918 3.8886,3.56214 4.11569,3.56214 0.77418,0 4.47183,4.20028 5.81753,6.60835 1.46813,2.62713 1.68098,3.66405 0.81996,3.99446 -0.72858,0.27958 -1.07125,0.0173 -2.68112,-2.05227 -1.41589,-1.82017 -5.90238,-4.21971 -7.05951,-3.77568 -0.98701,0.37875 -1.13774,1.38337 -0.42263,2.81685 0.36702,0.7357 0.6673,1.61777 0.6673,1.96016 0,0.34238 1.00106,1.77493 2.22457,3.18345 2.67239,3.07646 4.06156,5.28669 4.06156,6.4621 0,0.95858 -0.90688,1.75969 -1.15372,1.01916 -0.33884,-1.01653 -3.53978,-5.46563 -4.83657,-6.72253 -1.55617,-1.5083 -3.18263,-1.73001 -8.53091,-1.16287 -3.62798,0.38472 -4.78055,1.38156 -5.52455,4.7781 -0.62997,2.87598 -0.61579,3.4254 0.0884,3.4254 1.08068,0 1.70009,1.31526 1.6505,3.5047 -0.0377,1.66298 -0.5411,3.18615 -2.21256,6.69434 -1.19009,2.49784 -2.92689,6.82386 -3.85955,9.61337 -0.93267,2.78952 -1.85886,5.36614 -2.05821,5.72582 -0.19936,0.35968 -0.63487,1.34773 -0.9678,2.19567 -0.63461,1.61625 -5.19047,8.8481 -5.70444,9.05506 -1.06545,0.42903 -1.77234,1.36083 -1.85795,2.44906 -0.0546,0.69346 -0.61665,2.31848 -1.2491,3.61117 l -1.14991,2.35033 1.67307,3.57024 c 2.16071,4.61084 4.02746,6.96724 5.51948,6.96724 1.88104,0 6.67854,1.70545 7.30219,2.59583 0.5649,0.80652 0.60288,0.80898 0.99222,0.0643 1.05333,-2.01466 2.60198,-7.57046 2.60198,-9.33462 0,-2.65338 1.52629,-4.22148 4.10892,-4.22148 0.96697,0 1.75814,-0.17381 1.75814,-0.38623 0,-0.21243 0.81973,-0.91962 1.82163,-1.57154 1.00189,-0.65191 2.16503,-1.63987 2.58475,-2.19547 0.75177,-0.99517 0.74961,-1.00665 -0.14591,-0.77247 -0.61739,0.16146 -0.81412,0.0842 -0.61319,-0.24095 0.1627,-0.26327 1.17379,-1.80444 2.24685,-3.42482 3.10601,-4.69023 4.08381,-6.9776 6.62821,-15.50534 3.08061,-10.32487 3.81834,-14.66467 3.82041,-22.47398 8.3e-4,-3.42443 0.14485,-4.57298 0.62285,-4.96968 0.51621,-0.42842 0.69572,-0.32116 1.05825,0.63238 0.24013,0.63157 0.63053,2.0137 0.86756,3.0714 0.60185,2.68555 0.57997,14.86611 -0.0317,17.66329 -0.27723,1.2677 -0.55711,2.77637 -0.62197,3.3526 -0.0649,0.57623 -0.43783,1.66222 -0.82882,2.41331 -0.4276,0.8214 -0.61636,1.82345 -0.47365,2.51445 0.15112,0.73175 -0.12382,1.98562 -0.75732,3.45375 -4.36278,10.1107 -5.3264,12.21433 -6.50873,14.20894 -0.73854,1.24591 -1.98578,3.54211 -2.77166,5.10265 -0.78588,1.56055 -1.8,3.09731 -2.2536,3.41502 -1.19579,0.83757 -3.68903,5.11766 -7.02322,12.05662 -4.20279,8.74666 -7.11127,13.23406 -10.77942,16.63126 -2.97216,2.75261 -5.69969,6.82135 -5.69969,8.5024 0,0.39012 -0.11869,0.828 -0.26375,0.97307 -0.14507,0.14506 -0.30354,1.54372 -0.35217,3.10814 -0.0486,1.56441 -0.40663,3.73357 -0.79558,4.82037 -0.39479,1.10311 -0.59227,2.43384 -0.44704,3.01246 0.31588,1.25858 -0.35312,2.52381 -4.01,7.58381 -3.9077,5.40707 -4.3977,6.1299 -5.17742,7.63774 -0.38442,0.7434 -1.42975,2.06348 -2.32297,2.93353 -1.33294,1.29836 -1.74069,2.10215 -2.27484,4.48432 -0.43166,1.92505 -0.51799,3.15057 -0.25641,3.63936 0.72102,1.34723 0.43001,4.95818 -0.61533,7.6353 -0.55535,1.42226 -1.14418,3.05739 -1.30851,3.63362 -0.38662,1.35569 -0.99181,2.09539 -1.71428,2.09539 -0.78,0 -0.74392,-1.99444 0.08,-4.42119 0.50636,-1.49143 0.59148,-2.77728 0.37071,-5.59945 -0.23334,-2.98275 -0.15862,-3.91088 0.40212,-4.99522 0.37878,-0.7325 0.85269,-2.63781 1.05311,-4.23402 0.20043,-1.59622 0.4886,-3.10314 0.64038,-3.34873 0.15178,-0.24558 0.33829,-1.36276 0.41447,-2.48261 0.0762,-1.11985 0.36376,-2.457 0.63907,-2.97143 0.59648,-1.11452 0.2792,-1.60569 -0.57778,-0.89446 -0.98927,0.82103 -3.1803,6.53817 -3.1803,8.29851 0,0.89136 -0.77727,3.87467 -1.72726,6.62956 -2.43663,7.06598 -2.39177,9.34537 0.3872,19.67654 1.60272,5.9583 1.97608,11.0339 1.09621,14.9024 -0.3621,1.592 -1.00312,3.3203 -1.4245,3.8407 -0.75199,0.9287 -0.78222,0.9316 -1.63554,0.1594 -0.68851,-0.6231 -0.90773,-0.666 -1.05367,-0.2059 -0.4964,1.5647 -0.77812,3.4518 -1.08773,7.2861 -0.18611,2.3049 -0.64002,5.2843 -1.00868,6.6208 -0.88188,3.1972 -0.84559,4.5679 0.15461,5.8394 1.47991,1.8814 1.91967,4.5233 1.375,8.2603 -0.54032,3.7071 -1.52715,5.9733 -3.314,7.6104 -1.43493,1.3146 -2.33731,1.6708 -3.07619,1.2142 z m -8.88487,-14.3327 c 0.69671,-0.6967 0.62938,-2.223 -0.12573,-2.8497 -0.84664,-0.7027 -0.78889,-1.6178 0.20495,-3.2479 0.94956,-1.5573 1.8664,-1.7433 2.52533,-0.5121 0.56258,1.0512 1.38355,0.6472 1.01898,-0.5014 -0.15842,-0.4992 0.11837,-1.6293 0.68418,-2.7935 1.72522,-3.5499 1.81701,-3.8348 1.37705,-4.2748 -0.27635,-0.2764 -1.04313,-0.061 -2.27549,0.6392 -1.02228,0.5807 -2.83071,1.532 -4.01874,2.1139 -1.18803,0.5819 -2.46097,1.5172 -2.82876,2.0785 -0.76612,1.1693 -0.88204,2.9642 -0.21794,3.3746 0.24793,0.1532 0.39704,0.9658 0.33135,1.8058 -0.0801,1.0249 0.19875,2.0441 0.84785,3.0987 1.01124,1.643 1.63398,1.9117 2.47697,1.0687 z m -8.26501,-3.9834 c 0.58874,-1.5485 0.0963,-4.0628 -1.00703,-5.1415 -1.22186,-1.1946 -4.81252,-3.7826 -5.24814,-3.7826 -0.72305,0 -1.19501,1.9686 -1.00468,4.1907 0.18613,2.173 0.28469,2.3446 1.72169,2.9985 0.83835,0.3815 1.92371,0.8107 2.41192,0.9537 0.4882,0.143 1.22462,0.6323 1.63648,1.0874 0.95281,1.0529 0.97477,1.0484 1.48976,-0.3062 z m 18.20296,-8.9306 c 1.19427,-1.3197 1.29951,-4.8078 0.21792,-7.2226 -1.08771,-2.4284 -1.9155,-2.6633 -1.47628,-0.419 0.51208,2.6165 0.47463,2.8307 -0.48957,2.7996 -0.80176,-0.026 -0.90101,0.1874 -0.87827,1.8859 0.0226,1.6853 0.90157,3.75 1.61246,3.7876 0.13714,0.01 0.59333,-0.367 1.01374,-0.8315 z m -28.85421,-2.42 c 0.26324,-1.0483 2.87891,-2.6024 4.38012,-2.6024 0.53955,0 1.57748,0.713 2.51293,1.7263 1.28383,1.3906 1.79127,1.6767 2.60971,1.4713 1.65954,-0.4165 2.33301,-2.5227 2.68473,-8.3962 0.31434,-5.2493 1.10559,-7.4525 1.20853,-3.365 0.0294,1.1676 0.26514,3.1098 0.52385,4.3162 0.2587,1.2063 0.47038,2.8329 0.47038,3.6147 0,0.7817 0.20021,1.5451 0.44492,1.6963 0.24471,0.1513 0.61905,0.733 0.83186,1.2927 0.81454,2.1424 2.82113,1.4318 4.03108,-1.4277 0.7616,-1.7998 2.06162,-2.389 4.05632,-1.8382 1.94806,0.5379 1.94999,0.2967 0.0287,-3.5918 -1.36783,-2.7682 -2.68769,-3.964 -2.68769,-2.435 0,1.4359 -2.21498,7.4468 -3.13385,8.5045 -0.91629,1.0547 -1.06304,1.098 -1.67683,0.4946 -0.69756,-0.6857 -0.57815,-1.7265 0.72957,-6.3585 0.32309,-1.1444 0.31154,-1.8619 -0.0425,-2.6389 -0.6798,-1.492 -0.61835,-3.1231 0.11765,-3.1231 1.0323,0 1.23312,-0.9208 0.3553,-1.6291 -0.46071,-0.3717 -0.98589,-1.053 -1.16704,-1.514 -1.02588,-2.6105 -1.97076,-76.86977 -1.05842,-83.18311 0.38677,-2.67648 0.22086,-4.61312 -0.3952,-4.61312 -0.17236,0 -0.47321,1.55582 -0.66855,3.45737 -0.37891,3.68855 -0.51687,48.89014 -0.20881,68.41406 0.21917,13.89 -0.0707,15.8847 -2.47372,17.0203 l -1.43128,0.6764 -0.19163,3.9334 c -0.10539,2.1634 -0.17978,5.2064 -0.16532,6.7622 0.0182,1.9515 -0.13128,2.8287 -0.48186,2.8287 -0.58615,0 -3.19463,-4.8764 -3.19439,-5.9718 3.1e-4,-1.4023 -1.1477,-0.7193 -2.68638,1.5981 -1.71042,2.5761 -2.8185,2.8777 -3.17728,0.865 -0.20514,-1.1508 -0.23803,-1.1656 -0.91698,-0.4132 -1.5032,1.6659 -2.01686,4.4567 -1.12646,6.1204 0.4655,0.8698 0.48514,0.8712 1.06588,0.077 0.32541,-0.4449 0.7001,-1.2408 0.83264,-1.7686 z m -6.70373,-3.5172 c -0.27634,-3.5836 -0.6249,-4.3926 -1.7126,-3.9752 -1.34642,0.5166 0.054,7.4044 1.50552,7.4044 0.33244,0 0.39353,-1.0114 0.20708,-3.4292 z m 58.88955,-87.52705 c 0.62455,-0.84474 1.54619,-1.42632 2.73456,-1.72555 2.3911,-0.60208 5.98524,-4.44281 8.86222,-9.47025 1.18464,-2.07012 2.15389,-3.88292 2.15389,-4.02843 0,-0.14552 -0.34017,-0.26458 -0.75594,-0.26458 -0.41577,0 -1.40583,-0.6715 -2.20014,-1.49223 -0.79431,-0.82072 -2.19854,-1.84109 -3.12051,-2.26748 -0.92196,-0.4264 -2.90209,-1.93493 -4.40029,-3.35229 -3.0347,-2.87099 -5.21153,-4.6221 -5.7458,-4.6221 -0.19456,0 -1.7902,1.58868 -3.54588,3.5304 -2.35137,2.60054 -3.38526,4.11826 -3.92539,5.76228 -0.4033,1.22754 -0.98895,2.60387 -1.30145,3.05852 -0.86925,1.26463 -0.69696,2.19015 0.88755,4.76771 0.86592,1.40863 1.6967,3.52633 2.05048,5.22682 0.63629,3.05835 1.55056,4.38901 3.76664,5.4821 2.09524,1.03348 3.46353,0.85117 4.54006,-0.60492 z m -70.99576,-0.21633 c 0.51227,-0.3588 0.93483,-0.87741 0.93902,-1.15245 0.004,-0.27505 0.56995,-1.32995 1.25723,-2.34422 0.68728,-1.01427 1.2496,-2.15445 1.2496,-2.53372 0,-0.37927 0.84863,-2.06602 1.88584,-3.74833 1.59617,-2.58892 1.88573,-3.39057 1.88518,-5.21917 -3.8e-4,-1.26773 -0.30341,-2.71156 -0.73338,-3.49423 -1.94741,-3.54492 -7.84231,-10.60984 -8.85273,-10.60984 -0.24303,0 -1.06134,0.52612 -1.81845,1.16916 -0.75712,0.64303 -1.86841,1.38112 -2.46953,1.6402 -0.60113,0.25908 -2.76984,2.05507 -4.81937,3.9911 -2.04952,1.93603 -4.29216,3.75269 -4.98363,4.03701 -0.69148,0.28433 -1.72402,0.90275 -2.29455,1.37427 l -1.03733,0.85729 1.4564,2.73941 c 1.60871,3.0259 6.50304,8.74581 8.79022,10.27296 0.80672,0.53865 2.08687,1.23412 2.84477,1.54548 0.75791,0.31136 1.56602,0.91741 1.79581,1.34678 0.53088,0.99196 3.55878,1.07116 4.9049,0.1283 z m 57.70988,-16.63447 c 0.95321,-0.82594 2.47694,-4.05019 2.09696,-4.43724 -0.28565,-0.29097 -4.01151,2.14789 -4.40524,2.88358 -1.23308,2.30405 0.27262,3.31751 2.30828,1.55366 z m -45.31875,-0.20954 c 0.11065,-0.40336 0.31891,-1.43213 0.46279,-2.28615 0.24126,-1.43206 0.15775,-1.60647 -1.07418,-2.24353 -3.38493,-1.75042 -5.94689,-4.28706 -7.6743,-7.59849 -1.83764,-3.52274 -3.17404,-4.50431 -3.17404,-2.33128 0,1.3229 3.39843,6.81493 6.14113,9.92435 0.88647,1.005 2.12857,2.60154 2.76023,3.54787 1.21304,1.81734 2.22367,2.20732 2.55837,0.98723 z m 51.06957,-7.9746 c 2.36066,-2.4749 3.85847,-4.80791 3.38848,-5.2779 -1.04853,-1.04853 -4.79832,1.71484 -5.50994,4.06049 -0.73588,2.42561 -0.91993,3.63927 -0.55187,3.63927 0.1998,0 1.4028,-1.08984 2.67333,-2.42186 z m -38.56218,0.52814 c 0.42304,-0.92846 0.33855,-1.20421 -0.70172,-2.29001 -0.65047,-0.67895 -1.3424,-1.13573 -1.53762,-1.01508 -0.58226,0.35986 -0.40249,2.12319 0.27366,2.68435 0.34574,0.28694 0.62862,0.78149 0.62862,1.099 0,0.94817 0.82093,0.65452 1.33706,-0.47826 z m 38.056,-14.3989 c 0,-0.20227 -0.28287,-0.60253 -0.62861,-0.88947 -0.34574,-0.28693 -0.62861,-0.85299 -0.62861,-1.25789 0,-0.72161 1.5644,-4.56962 2.75201,-6.76919 0.33033,-0.61179 0.60059,-1.37556 0.60059,-1.69726 0,-0.3217 0.21853,-0.80343 0.48562,-1.07053 0.2671,-0.26709 0.89304,-1.67204 1.39098,-3.12211 0.59048,-1.71952 1.21532,-2.77696 1.79658,-3.04038 1.10644,-0.50144 2.19387,-3.24841 2.19387,-5.54196 0,-0.9499 0.28733,-4.3186 0.6385,-7.48599 0.73756,-6.65232 0.47423,-9.05158 -1.41422,-12.8855 l -1.19695,-2.43006 1.16956,-3.22745 c 3.11657,-8.60035 3.75177,-10.08793 6.47812,-15.1711 1.84503,-3.43999 1.91388,-7.12241 0.25631,-13.70859 -1.49178,-5.92741 -2.3193,-8.08331 -3.1027,-8.08331 -0.31172,0 -1.37555,-0.84863 -2.36407,-1.88584 -0.98853,-1.03721 -1.96891,-1.88584 -2.17863,-1.88584 -1.13597,0 0.19301,3.76609 2.14432,6.07659 0.38932,0.46098 1.23003,1.92616 1.86825,3.25595 0.63823,1.32979 1.34097,2.52939 1.56166,2.66578 0.35807,0.2213 0.12353,8.54565 -0.27957,9.92241 -0.25988,0.88761 -2.38598,7.99748 -2.8438,9.5099 -0.2442,0.80672 -1.23143,3.16402 -2.19386,5.23844 -2.30081,4.95919 -2.62623,5.89259 -2.92213,8.38151 -0.34325,2.88706 -1.55403,7.83785 -2.09164,8.55249 -0.24414,0.32454 -0.46022,1.64462 -0.48017,2.93353 -0.0723,4.66879 -0.66174,7.08036 -2.69999,11.04592 -2.0837,4.05401 -3.04692,4.88632 -3.5117,3.03447 -0.26646,-1.06168 -1.76901,-2.00643 -2.50083,-1.57244 -0.5529,0.32788 -0.0205,4.89951 0.72804,6.25211 0.98647,1.78244 1.82367,4.66146 2.1724,7.47068 0.17168,1.38295 0.64247,3.28596 1.04621,4.22892 0.8705,2.03314 3.75446,4.45756 3.75446,3.15621 z m -57.27313,-1.74792 c 1.66889,-1.31275 3.90807,-6.34638 5.30401,-11.92334 1.32449,-5.29146 1.68557,-10.06235 0.73718,-9.74013 -0.32174,0.10932 -0.54708,1.05245 -0.58407,2.44461 -0.0331,1.24664 -0.0803,2.50235 -0.10477,2.79046 -0.0525,0.61781 -1.30176,0.71835 -1.30176,0.10477 0,-0.23049 -0.42432,-0.42623 -0.94292,-0.43498 -0.60617,-0.0102 -1.39193,-0.62408 -2.20015,-1.71881 -0.69147,-0.9366 -1.76618,-2.39097 -2.38824,-3.23193 -0.62206,-0.84096 -1.32925,-2.43407 -1.57153,-3.54025 -0.56069,-2.55991 -0.56839,-6.28431 -0.0141,-6.83856 0.23452,-0.23452 0.59963,-1.03045 0.81138,-1.76874 0.3119,-1.08754 0.23954,-1.47994 -0.38117,-2.06711 -0.42138,-0.39862 -0.83557,-1.10193 -0.92042,-1.56291 -0.0864,-0.46964 -0.54577,-0.89425 -1.04469,-0.96575 -1.11537,-0.15983 -2.03922,-2.47597 -2.69307,-6.75162 -0.26136,-1.70914 -0.73872,-3.85442 -1.0608,-4.76728 -0.32208,-0.91286 -0.58559,-2.13807 -0.58559,-2.7227 0,-0.58462 -0.44603,-1.83385 -0.99117,-2.77606 -0.54514,-0.94222 -1.23378,-2.46746 -1.53031,-3.38942 -0.29652,-0.92197 -0.78276,-2.05347 -1.08051,-2.51445 -0.29776,-0.46099 -0.757,-2.06395 -1.02054,-3.56214 -0.26353,-1.4982 -0.65504,-3.66691 -0.87,-4.81937 -0.7577,-4.06207 0.10866,-7.90666 3.21082,-14.24855 1.80822,-3.69663 2.62779,-4.90039 4.1372,-6.07659 1.70075,-1.32531 3.52655,-3.9773 3.05966,-4.44419 -0.3968,-0.3968 -1.43072,0.33619 -2.11992,1.5029 -0.3974,0.67274 -2.04663,2.58996 -3.66496,4.26048 -2.01927,2.08438 -3.38709,3.97435 -4.35975,6.02404 -1.92727,4.06133 -3.1692,7.87386 -3.17538,9.7479 -0.003,0.85674 -0.0292,2.31205 -0.0585,3.23401 -0.0294,0.92197 0.0584,2.93273 0.19497,4.46837 0.20463,2.30054 0.51284,3.16837 1.75078,4.9296 1.86466,2.65286 4.4213,8.04711 4.425,9.33627 0.002,0.52926 0.37745,1.52805 0.83539,2.21952 0.96962,1.46408 1.0902,3.07265 0.25437,3.39339 -0.32108,0.12321 -1.12256,1.39023 -1.78107,2.8156 -1.19672,2.59036 -1.19729,2.59577 -1.19729,11.39217 0,4.84031 0.13582,9.27203 0.30182,9.84826 0.166,0.57623 1.06178,1.84955 1.99061,2.82961 1.39836,1.47548 1.68879,2.07244 1.68879,3.4713 0,0.97129 0.44533,2.56821 1.04768,3.7569 0.57623,1.13713 1.04769,2.27654 1.04769,2.53202 0,0.25547 0.77125,1.7627 1.71388,3.34939 0.94263,1.58669 1.81609,3.64694 1.94102,4.57833 0.18849,1.40526 0.38641,1.69343 1.16313,1.69343 0.51479,0 1.4271,-0.3863 2.02734,-0.85845 z m 28.77602,-27.63866 c 0,-0.23049 -0.0832,-0.41907 -0.1848,-0.41907 -0.10165,0 -0.30136,0.18858 -0.44381,0.41907 -0.14245,0.2305 -0.0593,0.41908 0.1848,0.41908 0.2441,0 0.44381,-0.18858 0.44381,-0.41908 z m -1.79463,-18.64884 c -0.0297,-1.2677 -0.18807,-2.30491 -0.35197,-2.30491 -0.47774,0 -0.5925,0.72409 -0.43286,2.7313 0.21291,2.67703 0.84939,2.33123 0.78483,-0.42639 z m 3.38459,-15.05107 c 0.0745,-2.13145 -0.0498,-3.63245 -0.31431,-3.79592 -0.29165,-0.18025 -0.4375,0.9952 -0.4375,3.52601 0,2.08803 0.14144,3.7962 0.31431,3.79593 0.17287,-2.6e-4 0.36974,-1.58697 0.4375,-3.52602 z m -2.62898,-13.40283 c -0.17602,-7.169 -0.37177,-17.43089 -0.43499,-22.80421 -0.0632,-5.37333 -0.22138,-9.8761 -0.35145,-10.00617 -0.13007,-0.13007 0.0257,-0.74356 0.34621,-1.3633 0.68742,-1.32932 0.59388,-12.53027 -0.11919,-14.27271 -0.23581,-0.57623 -0.54456,-1.40924 -0.68612,-1.85114 -0.1704,-0.53197 -0.39801,-0.66282 -0.67359,-0.38724 -0.27557,0.27557 -0.19997,1.34865 0.22374,3.17564 0.50032,2.15734 0.55792,3.56771 0.264,6.46383 -0.53315,5.25326 -0.22254,32.95049 0.57026,50.85036 0.18804,4.2455 0.11667,3.88738 0.70251,3.52531 0.35342,-0.21842 0.39492,-3.70646 0.15862,-13.33037 z m 2.28699,3.90996 c -0.52869,-1.60195 -0.59701,-1.65865 -0.92623,-0.76868 -0.44483,1.2025 0.41999,3.57522 1.06722,2.928 0.29369,-0.29369 0.24904,-0.97752 -0.14099,-2.15932 z m 0.40418,-9.29638 c 0.0133,-0.40336 -0.16443,-0.73338 -0.39492,-0.73338 -0.23639,0 -0.39807,1.05048 -0.37089,2.40968 0.0477,2.38392 0.0519,2.39176 0.39493,0.73338 0.1907,-0.92196 0.3576,-2.00632 0.37088,-2.40968 z m 1.2782,-9.36676 c 0.23336,-1.82064 0.40831,-3.59314 0.38877,-3.93887 -0.19639,-3.47594 0.0267,-9.38048 0.36725,-9.72106 0.26972,-0.26972 0.29178,-0.83908 0.0595,-1.53519 -0.57752,-1.73064 -1.24775,-13.96585 -0.96206,-17.5628 0.18507,-2.33014 0.12898,-3.12106 -0.1997,-2.816 -0.81045,0.75219 -1.15115,7.26513 -0.99723,19.06279 0.2063,15.81252 0.20637,15.79652 -0.0708,18.80404 -0.1353,1.46831 -0.11793,2.87686 0.0386,3.13012 0.36878,0.59671 0.84443,-1.27837 1.37567,-5.42303 z m 30.59566,-0.32199 c 0,-0.95465 -3.40214,-4.9261 -4.10337,-4.79003 -1.16951,0.22694 -0.9721,1.00305 0.81345,3.19805 1.67229,2.05578 3.28992,2.83854 3.28992,1.59198 z m -16.33983,231.58904 c 0.005,-0.9338 1.93843,-5.1083 2.81347,-6.0752 0.88233,-0.975 2.49392,-0.9347 3.03474,0.076 0.73468,1.3727 0.48859,2.4923 -0.85743,3.9008 -2.5003,2.6163 -4.99954,3.6672 -4.99078,2.0985 z m 2.37066,-7.9275 c -0.43417,-0.4342 -0.32945,-2.1927 0.1909,-3.2055 0.77138,-1.5015 2.5675,-3.2203 3.36506,-3.2203 2.12606,0 1.55033,4.1976 -0.84782,6.1813 -0.67876,0.5615 -2.24935,0.7033 -2.70814,0.2445 z m -48.75994,-1.8189 c -1.21991,-0.4915 -1.88769,-1.832 -1.7288,-3.4704 0.21387,-2.2052 1.33086,-1.9308 3.04446,0.748 1.88451,2.9459 1.45338,3.838 -1.31566,2.7224 z m 52.25224,-7.5062 c 0,-0.8272 0.53417,-1.7106 1.03441,-1.7106 0.33473,0 0.45291,0.3806 0.32538,1.0477 -0.18459,0.9657 -1.35979,1.5386 -1.35979,0.6629 z m -51.58626,-23.6072 c -0.30693,-0.8037 -0.0596,-6.34392 0.29645,-6.63938 0.71005,-0.58929 1.38094,0.47613 1.68174,2.67071 0.35266,2.57287 -0.0555,4.07337 -1.10801,4.07337 -0.45659,0 -0.84817,-0.047 -0.87018,-0.1047 z"
             style="fill:#000000;fill-opacity:1" />
    </g>
</svg>
