<?xml version="1.0" encoding="UTF-8" standalone="no"?>
<!-- Created with Inkscape (http://www.inkscape.org/) -->

<svg
     xmlns:dc="http://purl.org/dc/elements/1.1/"
     xmlns:cc="http://creativecommons.org/ns#"
     xmlns:rdf="http://www.w3.org/1999/02/22-rdf-syntax-ns#"
     xmlns:svg="http://www.w3.org/2000/svg"
     xmlns="http://www.w3.org/2000/svg"
     xmlns:sodipodi="http://sodipodi.sourceforge.net/DTD/sodipodi-0.dtd"
     xmlns:inkscape="http://www.inkscape.org/namespaces/inkscape"
     id="svg2"
     sodipodi:version="0.32"
     inkscape:version="0.48.2 r9819"
     width="332.79001"
     height="332.79001"
     version="1.0"
     sodipodi:docname="oldwitch.svg"
     inkscape:output_extension="org.inkscape.output.svg.inkscape">
    <metadata
         id="metadata7">
        <rdf:RDF>
            <cc:Work
                 rdf:about="">
                <dc:format>image/svg+xml</dc:format>
                <dc:type
                     rdf:resource="http://purl.org/dc/dcmitype/StillImage" />
                <dc:title>Old Witch</dc:title>
                <dc:date>08.24.11</dc:date>
                <dc:creator>
                    <cc:Agent>
                        <dc:title>Studio-Hades</dc:title>
                    </cc:Agent>
                </dc:creator>
                <cc:license
                     rdf:resource="http://creativecommons.org/licenses/publicdomain/" />
                <dc:publisher>
                    <cc:Agent>
                        <dc:title>Acheron Mint</dc:title>
                    </cc:Agent>
                </dc:publisher>
                <dc:description>Old Witch</dc:description>
                <dc:rights>
                    <cc:Agent>
                        <dc:title>Public Domain</dc:title>
                    </cc:Agent>
                </dc:rights>
            </cc:Work>
            <cc:License
                 rdf:about="http://creativecommons.org/licenses/publicdomain/">
                <cc:permits
                     rdf:resource="http://creativecommons.org/ns#Reproduction" />
                <cc:permits
                     rdf:resource="http://creativecommons.org/ns#Distribution" />
                <cc:permits
                     rdf:resource="http://creativecommons.org/ns#DerivativeWorks" />
            </cc:License>
        </rdf:RDF>
    </metadata>
    <defs
         id="defs5" />
    <sodipodi:namedview
         inkscape:window-height="480"
         inkscape:window-width="640"
         inkscape:pageshadow="2"
         inkscape:pageopacity="0.0"
         guidetolerance="10.0"
         gridtolerance="10.0"
         objecttolerance="10.0"
         borderopacity="1.0"
         bordercolor="#666666"
         pagecolor="#ffffff"
         id="base"
         showgrid="false"
         inkscape:zoom="0.61046886"
         inkscape:cx="287.39517"
         inkscape:cy="127.2496"
         inkscape:current-layer="svg2"
         showguides="true"
         inkscape:guide-bbox="true"
         inkscape:window-x="85"
         inkscape:window-y="0"
         inkscape:window-maximized="0" />
    <path
         style="fill:#000000;fill-rule:evenodd;stroke:#000000;stroke-width:0.34133697px;stroke-linecap:butt;stroke-linejoin:miter;stroke-opacity:1"
         d="m 211.11221,29.53285 c -17.73546,-0.07244 -37.14902,5.91824 -58.62964,20.35155 -14.49645,10.95716 -60.602757,81.86094 -73.303962,89.03053 -0.90267,0.50955 12.498857,-6.37559 18.367818,-14.67554 19.728774,-27.90061 46.107934,-61.07244 44.657764,-57.80886 -13.57201,18.63406 -31.69471,35.34171 -35.98364,58.14464 -7.555228,25.22161 -22.596357,68.17386 -50.580887,83.24166 -2.43497,1.31107 17.795109,-7.16273 22.282714,-12.44958 13.174718,-15.52117 31.847563,-51.11772 31.655903,-49.73167 -15.597175,35.16436 -28.382902,75.30581 -59.525037,100.20949 -0.106692,0.0812 -0.153105,0.15018 -0.186537,0.2052 -0.0057,0.009 -0.01503,0.0101 -0.01865,0.0187 -11.42434,7.12411 -26.642455,7.47341 -37.513274,-1.6229 -10.6799915,-8.93664 -13.6167105,-25.68721 -4.1225405,-36.50595 6.9576605,-7.92836 19.7813245,-10.04667 27.7758575,-2.55561 5.489625,5.14389 6.913727,14.45076 1.268476,19.92252 -1.751692,1.69785 -4.259198,2.77209 -6.678145,2.89138 -2.418957,0.11928 -4.70273,-0.67125 -6.342371,-2.64888 -0.846145,-1.02057 -1.400202,-2.53326 -1.380398,-3.89869 0.0198,-1.36544 0.516537,-2.4931 1.716173,-3.22715 0.366932,-0.22452 1.137627,-0.41007 1.678857,-0.33577 0.521408,0.0716 0.696642,0.17323 0.802125,0.57827 -0.01045,0.0687 -0.04365,0.15458 -0.05596,0.18654 -0.0134,0.0348 -0.0288,-0.0167 0.186545,-0.16789 0.215335,-0.1512 0.764009,-0.13708 0.895394,-0.056 l -1.212515,1.95867 c 0.421377,0.26018 1.22656,0.25411 1.641558,-0.0373 0.414997,-0.29139 0.531928,-0.61115 0.634234,-0.87674 0.102305,-0.26557 0.157389,-0.49718 0.186536,-0.7275 0.02915,-0.23033 0.06732,-0.39121 -0.01865,-0.76482 -0.324838,-1.41171 -1.595163,-2.21159 -2.742142,-2.36906 -1.146989,-0.15746 -2.27839,0.0952 -3.189839,0.65289 -1.915895,1.17233 -2.788325,3.20625 -2.816757,5.16717 -0.02843,1.96093 0.679181,3.91527 1.902709,5.39102 2.131332,2.57067 5.22246,3.61777 8.226427,3.46965 3.003983,-0.14814 5.977337,-1.43662 8.151819,-3.54427 6.700087,-6.49416 5.086041,-17.2886 -1.268475,-23.24293 -9.035536,-8.4665 -23.350923,-6.1211 -31.0962815,2.70483 -6.510569,7.41889 -7.70144,17.33072 -4.85005,26.07835 1.710832,5.24858 4.882979,10.07015 9.2337505,13.71072 22.586847,15.53164 41.323574,3.53708 57.398472,-13.41225 12.386259,-13.54291 28.368197,-36.6841 27.458746,-34.3794 -15.255797,31.72259 -47.568742,78.36827 -67.750891,109.21147 4.754594,-4.64853 78.480994,-65.68973 93.288274,-67.51969 19.82814,-2.45046 43.096,-0.383 54.91749,11.58415 17.63998,17.85734 27.65684,27.16152 33.82832,31.88755 8.32389,6.37434 14.49226,11.33442 18.09444,10.80514 1.47594,-15.19392 -5.60519,-28.27791 5.83014,-40.249 -0.10572,-16.33139 6.02115,-20.20766 10.6328,-27.10432 14.29608,5.12783 13.12395,5.12373 26.47008,4.40235 6.48536,-0.39879 8.31022,-0.1764 12.66609,-5.54025 1.82186,-2.60315 4.80937,-5.79297 3.99196,-10.91261 l 5.39103,-11.90128 5.82006,-3.74946 -3.56292,-5.3164 -14.13977,-0.22385 13.41225,-1.69752 4.29044,-3.2831 c -2.09663,-3.65093 -4.64333,-6.43707 -3.32043,-16.52748 3.28289,2.57722 7.33603,1.30316 11.37078,0.12102 l 16.79962,0.17881 c 4.69357,0.72472 8.42934,2.40725 12.3985,3.85638 0.84042,-0.42449 -4.43205,-6.7091 -7.08489,-10.23743 0.60074,-0.58072 0.98866,-1.39001 0.98866,-2.29444 l 0,-0.72752 c 0,-1.76056 -1.41063,-3.17118 -3.17119,-3.17118 -0.11004,0 -0.22868,-0.0108 -0.33577,0 -0.67526,0.0682 -1.27102,0.35967 -1.75348,0.78347 -1.01177,-1.23487 -2.08005,-2.52251 -3.17119,-3.82408 0.0798,-0.27809 0.13058,-0.57222 0.13058,-0.87674 l 0,-0.72751 c 0,-1.76056 -1.42928,-3.18984 -3.18984,-3.18984 -0.30452,0 -0.59865,0.0507 -0.87674,0.13058 -6.54051,-7.72971 -12.82313,-15.14411 -13.07648,-16.99383 l -13.1884,-5.09255 4.15984,-6.77141 c 0.60913,-6.05276 2.41437,-12.69534 -4.47697,-14.99785 l -0.54096,-1.06329 c 0.39576,-0.53134 0.63423,-1.18985 0.63423,-1.90271 l 0,-0.72751 c 0,-1.76055 -1.42928,-3.17118 -3.18984,-3.17118 -0.11004,0 -0.21002,-0.0108 -0.31712,0 -0.0199,0.002 -0.0361,0.0163 -0.056,0.0187 L 273.71513,74.13467 c 1.2685,-2.55773 1.50756,-3.13266 1.54828,-3.17119 10e-4,0.14424 -0.0424,0.72985 1.30579,-0.59693 2.43831,-4.52896 6.12479,-5.46505 2.83542,-9.17778 C 259.3723,42.68542 237.03327,29.63871 211.11221,29.53285 z"
         id="path2506"
         sodipodi:nodetypes="ccssccssccscssssssssscssccsssssssssssssccccssscccccccccccccccccccssccccsccccccccsscccccc"
         inkscape:connector-curvature="0" />
</svg>
