<?xml version="1.0" encoding="UTF-8" standalone="no"?>
<!-- Created with Inkscape (http://www.inkscape.org/) -->

<svg
   xmlns:dc="http://purl.org/dc/elements/1.1/"
   xmlns:cc="http://creativecommons.org/ns#"
   xmlns:rdf="http://www.w3.org/1999/02/22-rdf-syntax-ns#"
   xmlns:svg="http://www.w3.org/2000/svg"
   xmlns="http://www.w3.org/2000/svg"
   xmlns:sodipodi="http://sodipodi.sourceforge.net/DTD/sodipodi-0.dtd"
   xmlns:inkscape="http://www.inkscape.org/namespaces/inkscape"
   width="60.11718"
   height="58.75"
   id="svg3018"
   version="1.1"
   inkscape:version="0.48.2 r9819"
   sodipodi:docname="New document 4">
  <defs
     id="defs3020" />
  <sodipodi:namedview
     id="base"
     pagecolor="#ffffff"
     bordercolor="#666666"
     borderopacity="1.0"
     inkscape:pageopacity="0.0"
     inkscape:pageshadow="2"
     inkscape:zoom="0.35"
     inkscape:cx="-14.94141"
     inkscape:cy="17.946427"
     inkscape:document-units="px"
     inkscape:current-layer="layer1"
     showgrid="false"
     fit-margin-top="0"
     fit-margin-left="0"
     fit-margin-right="0"
     fit-margin-bottom="0"
     inkscape:window-width="472"
     inkscape:window-height="444"
     inkscape:window-x="1200"
     inkscape:window-y="577"
     inkscape:window-maximized="0" />
  <metadata
     id="metadata3023">
    <rdf:RDF>
      <cc:Work
         rdf:about="">
        <dc:format>image/svg+xml</dc:format>
        <dc:type
           rdf:resource="http://purl.org/dc/dcmitype/StillImage" />
        <dc:title></dc:title>
      </cc:Work>
    </rdf:RDF>
  </metadata>
  <g
     inkscape:label="Layer 1"
     inkscape:groupmode="layer"
     id="layer1"
     transform="translate(-389.94141,-491.55861)">
    <path
       inkscape:connector-curvature="0"
       id="path2990"
       style="font-size:80px;font-style:normal;font-variant:normal;font-weight:normal;font-stretch:normal;text-align:start;line-height:125%;letter-spacing:0px;word-spacing:0px;writing-mode:lr-tb;text-anchor:start;fill:#000000;fill-opacity:1;stroke:none;font-family:Sans;-inkscape-font-specification:Sans"
       d="m 412.40235,513.31643 c -4.27086,3e-5 -7.91669,1.48441 -10.9375,4.45312 -2.99481,2.96878 -4.49221,6.58857 -4.49219,10.85938 -2e-5,4.27085 1.49738,7.81251 4.49219,10.625 3.02081,2.8125 6.66664,4.21875 10.9375,4.21875 4.19267,0 7.81246,-1.40625 10.85937,-4.21875 3.04683,-2.81249 4.57027,-6.35415 4.57031,-10.625 -4e-5,-4.27081 -1.52348,-7.8906 -4.57031,-10.85938 -3.04691,-2.96871 -6.6667,-4.45309 -10.85937,-4.45312 m 16.09374,30.58593 c -4.37504,4.27084 -9.73961,6.40625 -16.09374,6.40625 -6.11982,0 -11.39325,-2.05729 -15.82032,-6.17187 -4.42709,-4.14062 -6.64063,-9.30988 -6.64062,-15.50781 -1e-5,-6.19789 2.23957,-11.51039 6.71875,-15.9375 4.50519,-4.45309 9.75258,-6.56246 15.74219,-6.32813 5.93746,0.20838 10.36454,1.65369 13.28124,4.33594 l 14.10156,-13.59375 -14.49218,0 5.46875,-5.54688 19.29687,0 0,19.21875 -5.58594,5.58594 0,-14.57031 -13.98437,13.59375 c 2.91662,3.80211 4.37495,8.21617 4.375,13.24219 -5e-5,6.04168 -2.12245,11.13282 -6.36719,15.27343" />
  </g>
</svg>
