<?xml version="1.0" encoding="UTF-8" standalone="no"?>
<!-- Created with Inkscape (http://www.inkscape.org/) -->

<svg
   xmlns:dc="http://purl.org/dc/elements/1.1/"
   xmlns:cc="http://creativecommons.org/ns#"
   xmlns:rdf="http://www.w3.org/1999/02/22-rdf-syntax-ns#"
   xmlns:svg="http://www.w3.org/2000/svg"
   xmlns="http://www.w3.org/2000/svg"
   xmlns:sodipodi="http://sodipodi.sourceforge.net/DTD/sodipodi-0.dtd"
   xmlns:inkscape="http://www.inkscape.org/namespaces/inkscape"
   width="154.03"
   height="154.03"
   id="svg3008"
   version="1.1"
   inkscape:version="0.48.2 r9819"
   sodipodi:docname="New document 2">
  <defs
     id="defs3010" />
  <sodipodi:namedview
     id="base"
     pagecolor="#ffffff"
     bordercolor="#666666"
     borderopacity="1.0"
     inkscape:pageopacity="0.0"
     inkscape:pageshadow="2"
     inkscape:zoom="1.4"
     inkscape:cx="146.87504"
     inkscape:cy="56.580144"
     inkscape:document-units="px"
     inkscape:current-layer="layer1"
     showgrid="false"
     fit-margin-top="0"
     fit-margin-left="0"
     fit-margin-right="0"
     fit-margin-bottom="0"
     inkscape:window-width="472"
     inkscape:window-height="444"
     inkscape:window-x="1200"
     inkscape:window-y="577"
     inkscape:window-maximized="0" />
  <metadata
     id="metadata3013">
    <rdf:RDF>
      <cc:Work
         rdf:about="">
        <dc:format>image/svg+xml</dc:format>
        <dc:type
           rdf:resource="http://purl.org/dc/dcmitype/StillImage" />
        <dc:title></dc:title>
      </cc:Work>
    </rdf:RDF>
  </metadata>
  <g
     inkscape:label="Layer 1"
     inkscape:groupmode="layer"
     id="layer1"
     transform="translate(-202.98449,-257.37601)">
    <path
       inkscape:connector-curvature="0"
       id="path3206"
       style="fill:#010101"
       d="m 219.741,396.41041 c -4.861,-1.29254 -12.5971,-8.17662 -14.9097,-13.26763 -3.7019,-8.1496 -1.6438,-20.86292 4.4336,-27.3877 8.6541,-9.2911 26.1191,-9.56886 35.0385,-0.55724 9.646,9.7458 9.7721,25.33616 0.2818,34.82653 -6.6332,6.63312 -15.4203,8.89181 -24.8442,6.38604 z m 105.57872,-0.23324 c -8.5644,-2.67945 -15.2946,-10.78534 -16.8434,-20.28625 -1.5776,-9.67731 5.7306,-22.30893 14.9424,-25.82696 7.0078,-2.67631 17.2684,-1.72841 22.7131,2.09829 2.3459,1.64872 5.61409,4.917 7.26289,7.26284 3.8166,5.43045 4.7741,15.7064 2.1128,22.67494 -4.5054,11.79727 -17.74359,17.97046 -30.18779,14.07714 z m -50.96711,-16.59353 c -11.23491,-1.18496 -15.46811,-4.22186 -17.95051,-12.87767 -2.2835,-7.96224 -5.7956,-13.51118 -11.1293,-17.58374 -4.691,-3.58188 -12.5027,-6.51816 -17.3409,-6.51816 -3.256,0 -4.9791,-3.23597 -4.9791,-9.35089 0,-5.44622 3.7559,-9.30772 13.2281,-13.60019 7.5828,-3.43627 9.3081,-3.69999 10.1336,-1.54892 0.3166,0.825 0.9631,1.5 1.4367,1.5 0.4735,0 7.7643,-5.175 16.2016,-11.5 20.65222,-15.48175 22.26712,-15.47256 34.04272,0.19388 3.8755,5.15597 7.2772,9.97613 7.5594,10.71147 0.4819,1.2559 -11.3466,10.65325 -13.2813,10.55147 -0.4514,-0.0238 -4.0723,-4.52376 -8.0465,-10 -4.48001,-6.17339 -7.89991,-9.95446 -9.00001,-9.9506 -2.0591,0.007 -25.13651,17.47108 -25.97521,19.65688 -0.6484,1.68973 4.8179,7.78295 8.9013,9.92222 3.8433,2.01346 6.3298,1.75537 8.0477,-0.83532 1.4032,-2.11621 2.2876,-2.26948 14.87192,-2.57764 l 13.38,-0.32764 7.2184,-5.42236 c 3.9701,-2.9823 7.5914,-5.42236 8.0473,-5.42236 0.4559,0 2.3826,2.45338 4.2816,5.45195 l 3.4527,5.45195 12.1276,0.048 c 12.8974,0.0511 15.2021,0.85858 13.926,4.87913 -0.527,1.66068 -1.8171,1.98763 -9.3326,2.36526 -10.4966,0.52742 -16.3161,2.83858 -22.0658,8.76318 -6.3725,6.56644 -8.643,12.15492 -8.6496,21.28919 l -0.006,7.74871 -11,-0.13449 c -6.05,-0.074 -14.19501,-0.47148 -18.10021,-0.88336 z m -8.02551,-83.44658 c -1.0083,-2.62758 0.1683,-3.87368 4.68561,-4.96265 4.223,-1.018 4.4557,-1.26095 4.7593,-4.96855 0.3777,-4.61243 -0.9695,-5.81572 -5.56921,-4.97397 -3.6457,0.66719 -4.0094,-0.13533 -1.4777,-3.26078 2.48801,-3.07149 5.51741,-4.36704 10.21171,-4.36704 8.32821,0 13.40481,5.26879 12.82081,13.30622 l -0.3048,4.19378 -6.5197,0 c -5.64931,0 -7.19621,0.43386 -11.58751,3.25 -5.75431,3.69021 -6.23931,3.81343 -7.01851,1.78299 z" />
  </g>
</svg>
