<?xml version="1.0" encoding="UTF-8" standalone="no"?>
<!-- Created with Inkscape (http://www.inkscape.org/) -->

<svg
     xmlns:dc="http://purl.org/dc/elements/1.1/"
     xmlns:cc="http://creativecommons.org/ns#"
     xmlns:rdf="http://www.w3.org/1999/02/22-rdf-syntax-ns#"
     xmlns:svg="http://www.w3.org/2000/svg"
     xmlns="http://www.w3.org/2000/svg"
     xmlns:sodipodi="http://sodipodi.sourceforge.net/DTD/sodipodi-0.dtd"
     xmlns:inkscape="http://www.inkscape.org/namespaces/inkscape"
     width="252.10001"
     height="252.10001"
     id="svg3008"
     version="1.1"
     inkscape:version="0.48.2 r9819"
     sodipodi:docname="Neues Dokument 2">
    <defs
         id="defs3010" />
    <sodipodi:namedview
         id="base"
         pagecolor="#ffffff"
         bordercolor="#666666"
         borderopacity="1.0"
         inkscape:pageopacity="0.0"
         inkscape:pageshadow="2"
         inkscape:zoom="0.35"
         inkscape:cx="187.47629"
         inkscape:cy="68.868812"
         inkscape:document-units="px"
         inkscape:current-layer="layer1"
         showgrid="false"
         fit-margin-top="0"
         fit-margin-left="0"
         fit-margin-right="0"
         fit-margin-bottom="0"
         inkscape:window-width="590"
         inkscape:window-height="414"
         inkscape:window-x="1326"
         inkscape:window-y="639"
         inkscape:window-maximized="0" />
    <metadata
         id="metadata3013">
        <rdf:RDF>
            <cc:Work
                 rdf:about="">
                <dc:format>image/svg+xml</dc:format>
                <dc:type
                     rdf:resource="http://purl.org/dc/dcmitype/StillImage" />
                <dc:title></dc:title>
            </cc:Work>
        </rdf:RDF>
    </metadata>
    <g
         inkscape:label="Ebene 1"
         inkscape:groupmode="layer"
         id="layer1"
         transform="translate(-162.52371,-349.13099)">
        <path
             inkscape:connector-curvature="0"
             id="path3431"
             style="fill:#010101"
             d="m 191.22751,540.45802 c -8.6392,-2.2522 -13.7038,-9.1027 -13.7038,-18.53608 0,-6.3568 1.8469,-10.8519 5.8386,-14.2108 9.635,-8.1073 24.8073,-5.3494 30.0403,5.4605 3.2686,6.7522 2.8824,13.3851 -1.1289,19.38728 -4.9464,7.4014 -12.3281,10.1719 -21.0462,7.8991 z m 156.79621,-1.4131 c -6.6748,-4.1596 -10.50542,-10.15978 -10.49442,-16.43808 0.0209,-11.9267 8.99058,-20.3559 20.68423,-19.4378 12.33448,0.9684 20.98992,13.1032 17.30663,24.2637 -1.5572,4.71828 -6.58043,10.41748 -10.6987,12.13818 -4.74158,1.9812 -13.19961,1.7163 -16.79774,-0.526 z M 164.27371,519.83994 c -1.5759,-0.9162 -1.75,-3.0397 -1.75,-21.3469 l 0,-20.3295 6.5486,-17.3705 c 3.6017,-9.5538 7.1983,-18.3621 7.9924,-19.5741 0.7987,-1.219 2.8994,-2.452 4.7014,-2.7595 4.7041,-0.8028 47.80469,-3.1571 48.32219,-2.6396 0.2395,0.2395 0.4354,15.1623 0.4354,33.1617 0,28.9197 0.184,32.797 1.5818,33.3334 0.87,0.3338 24.49498,0.607 52.5,0.607 28.54242,0 50.91822,0.3856 50.91822,0.8775 0,0.4827 -0.6638,1.4285 -1.47512,2.1018 -0.81131,0.6734 -2.47619,4.3325 -3.6997,8.1314 l -2.22459,6.9071 -51.5503,-0.2589 -51.55031,-0.2589 -1.6767,-5.2345 c -3.61499,-11.2854 -12.96159,-19.3633 -24.18429,-20.9015 -7.9188,-1.0854 -19.9513,4.0975 -24.8538,10.7056 -1.0485,1.4133 -2.9473,5.4443 -4.2195,8.9579 -2.4778,6.843 -3.0976,7.4708 -5.8157,5.8905 z m 27.7259,-42.4733 c 8.8133,-0.8555 17.0366,-1.9708 18.2741,-2.4786 2.1928,-0.8998 2.25,-1.306 2.25,-15.9761 0,-12.5244 -0.2545,-15.1505 -1.5151,-15.6342 -2.7639,-1.0606 -30.6604,1.3898 -32.0692,2.8169 -2.3986,2.4297 -11.5906,27.9941 -10.9638,30.4917 0.7228,2.8799 1.9732,2.9205 24.024,0.7803 z m 193.19078,42.8886 c -0.36667,-0.3667 -0.66667,-1.6215 -0.66667,-2.7885 0,-2.1827 -2.18573,-6.9546 -5.40243,-11.7948 l -1.82759,-2.75 18.66273,0 18.66272,0 -0.29771,6.25 -0.29772,6.25 -8,2.6846 c -7.61335,2.5549 -19.22913,3.7529 -20.83333,2.1487 z m -139.66668,-65.8333 0,-39.5 84.5,0 84.50001,0 0,39.5 0,39.5 -84.50001,0 -84.5,0 0,-39.5 z" />
    </g>
</svg>
