<?xml version="1.0" encoding="UTF-8" standalone="no"?>
<!-- Created with Inkscape (http://www.inkscape.org/) -->

<svg
     xmlns:dc="http://purl.org/dc/elements/1.1/"
     xmlns:cc="http://creativecommons.org/ns#"
     xmlns:rdf="http://www.w3.org/1999/02/22-rdf-syntax-ns#"
     xmlns:svg="http://www.w3.org/2000/svg"
     xmlns="http://www.w3.org/2000/svg"
     xmlns:sodipodi="http://sodipodi.sourceforge.net/DTD/sodipodi-0.dtd"
     xmlns:inkscape="http://www.inkscape.org/namespaces/inkscape"
     width="294.42001"
     height="294.42001"
     id="svg2706"
     sodipodi:version="0.32"
     inkscape:version="0.48.2 r9819"
     sodipodi:docname="wolfhead.svg"
     inkscape:output_extension="org.inkscape.output.svg.inkscape"
     version="1.0">
    <defs
         id="defs2708">
        <linearGradient
             id="linearGradient3549">
            <stop
                 style="stop-color:#000000;stop-opacity:1;"
                 offset="0"
                 id="stop3551" />
            <stop
                 id="stop3561"
                 offset="1"
                 style="stop-color:#5b5b5b;stop-opacity:1;" />
        </linearGradient>
        <inkscape:perspective
             sodipodi:type="inkscape:persp3d"
             inkscape:vp_x="0 : 526.18109 : 1"
             inkscape:vp_y="0 : 1000 : 0"
             inkscape:vp_z="744.09448 : 526.18109 : 1"
             inkscape:persp3d-origin="372.04724 : 350.78739 : 1"
             id="perspective2714" />
    </defs>
    <sodipodi:namedview
         id="base"
         pagecolor="#ffffff"
         bordercolor="#666666"
         borderopacity="1.0"
         gridtolerance="10000"
         guidetolerance="10"
         objecttolerance="10"
         inkscape:pageopacity="0.0"
         inkscape:pageshadow="2"
         inkscape:zoom="1.4"
         inkscape:cx="122.61123"
         inkscape:cy="153.73837"
         inkscape:document-units="px"
         inkscape:current-layer="layer1"
         showgrid="false"
         inkscape:window-width="640"
         inkscape:window-height="675"
         inkscape:window-x="729"
         inkscape:window-y="150"
         showguides="true"
         inkscape:guide-bbox="true"
         inkscape:window-maximized="0" />
    <metadata
         id="metadata2711">
        <rdf:RDF>
            <cc:Work
                 rdf:about="">
                <dc:format>image/svg+xml</dc:format>
                <dc:type
                     rdf:resource="http://purl.org/dc/dcmitype/StillImage" />
                <dc:title>Wolf Head Howl</dc:title>
                <dc:date>12/23/2008</dc:date>
                <dc:creator>
                    <cc:Agent>
                        <dc:title>Choochus</dc:title>
                    </cc:Agent>
                </dc:creator>
                <dc:rights>
                    <cc:Agent>
                        <dc:title />
                    </cc:Agent>
                </dc:rights>
                <dc:subject>
                    <rdf:Bag>
                        <rdf:li>animal</rdf:li>
                        <rdf:li>wolf</rdf:li>
                        <rdf:li>silhouette</rdf:li>
                        <rdf:li>howl</rdf:li>
                    </rdf:Bag>
                </dc:subject>
                <dc:description>The head of a wolf howling</dc:description>
                <cc:license
                     rdf:resource="http://creativecommons.org/licenses/publicdomain/" />
            </cc:Work>
            <cc:License
                 rdf:about="http://creativecommons.org/licenses/publicdomain/">
                <cc:permits
                     rdf:resource="http://creativecommons.org/ns#Reproduction" />
                <cc:permits
                     rdf:resource="http://creativecommons.org/ns#Distribution" />
                <cc:permits
                     rdf:resource="http://creativecommons.org/ns#DerivativeWorks" />
            </cc:License>
        </rdf:RDF>
    </metadata>
    <g
         inkscape:label="Layer 1"
         inkscape:groupmode="layer"
         id="layer1"
         transform="translate(-260.22087,-345.12622)">
        <path
             style="fill:#000000;fill-opacity:1;stroke:none;display:inline"
             d="m 471.57556,345.12577 c -0.96531,0 -6.13538,7.04445 -11.46875,15.625 -14.35928,23.10172 -38.50655,54.10055 -43.6875,56.09375 -2.49264,0.95895 -7.42954,2.00166 -10.96875,2.3125 -6.5094,0.57172 -14.52457,7.47502 -32.3125,27.8125 -7.68492,8.78639 -12.87527,12.1042 -26.09375,16.65625 -10.15965,3.49868 -19.03974,8.38404 -23.09375,12.71875 -6.02811,6.44546 -6.30745,7.47493 -3.375,12.40625 1.76156,2.96229 8.93804,8.49856 15.9375,12.28125 l 12.71875,6.875 -3.1875,11.28125 c -1.76317,6.21187 -3.23648,14.68 -3.25,18.8125 -0.0135,4.1325 -2.40285,12.32542 -5.3125,18.1875 -5.61068,11.30379 -13.58786,41.66509 -14.75,56.125 -0.40694,5.06363 -20.60041,27.23292 -25.01094,27.23294 92.22148,0 112.13597,0 195.33359,0 -0.0345,-7.71922 -1.92028,-18.71026 -2.94765,-19.38919 -2.80889,-1.85615 0.0288,-30.72649 3.625,-36.875 4.76457,-8.14629 3.77515,-22.99326 -2.5,-37.40625 -4.65889,-10.70071 -5.66926,-16.67847 -5.6875,-34.28125 -0.0142,-13.62847 1.14978,-23.69283 3.1875,-27.90625 1.75337,-3.6254 4.30108,-13.00525 5.65625,-20.84375 2.59798,-15.02682 11.0476,-32.97679 18.03125,-38.25 6.99815,-5.28415 10.6499,-19.4736 7.25,-28.25 -4.00649,-10.34219 -8.31391,-13.84317 -12.46875,-10.15625 -2.41128,2.13974 -4.45105,2.19593 -7.90625,0.21875 -4.08266,-2.33626 -4.60882,-2.01314 -4.125,2.59375 0.30392,2.894 -0.81067,5.79955 -2.5,6.4375 -2.38632,0.90114 -2.78402,-1.05323 -1.78125,-8.71875 0.70987,-5.42665 0.14996,-13.45108 -1.21875,-17.84375 -2.42397,-7.77919 -14.57866,-23.75 -18.09375,-23.75 z"
             id="path4352"
             sodipodi:nodetypes="cssssssscccsssccssssssssssssssc"
             inkscape:connector-curvature="0" />
    </g>
</svg>
