<?xml version="1.0" encoding="UTF-8" standalone="no"?>
<!-- Created with Inkscape (http://www.inkscape.org/) -->

<svg
   xmlns:dc="http://purl.org/dc/elements/1.1/"
   xmlns:cc="http://creativecommons.org/ns#"
   xmlns:rdf="http://www.w3.org/1999/02/22-rdf-syntax-ns#"
   xmlns:svg="http://www.w3.org/2000/svg"
   xmlns="http://www.w3.org/2000/svg"
   xmlns:sodipodi="http://sodipodi.sourceforge.net/DTD/sodipodi-0.dtd"
   xmlns:inkscape="http://www.inkscape.org/namespaces/inkscape"
   id="svg2"
   version="1.1"
   inkscape:version="0.48.2 r9819"
   width="584.10999"
   height="584.10999"
   sodipodi:docname="Breed-Moros.svg">
  <metadata
     id="metadata8">
    <rdf:RDF>
      <cc:Work
         rdf:about="">
        <dc:format>image/svg+xml</dc:format>
        <dc:type
           rdf:resource="http://purl.org/dc/dcmitype/StillImage" />
        <dc:title />
      </cc:Work>
    </rdf:RDF>
  </metadata>
  <defs
     id="defs6" />
  <sodipodi:namedview
     pagecolor="#ffffff"
     bordercolor="#666666"
     borderopacity="1"
     objecttolerance="10"
     gridtolerance="10"
     guidetolerance="10"
     inkscape:pageopacity="0"
     inkscape:pageshadow="2"
     inkscape:window-width="1606"
     inkscape:window-height="1029"
     id="namedview4"
     showgrid="false"
     fit-margin-top="0"
     fit-margin-left="0"
     fit-margin-right="0"
     fit-margin-bottom="0"
     inkscape:zoom="0.80821918"
     inkscape:cx="-55.137212"
     inkscape:cy="392.75882"
     inkscape:window-x="70"
     inkscape:window-y="-4"
     inkscape:window-maximized="1"
     inkscape:current-layer="svg2" />
  <path
     inkscape:connector-curvature="0"
     id="path2989"
     d="m 170.17112,583.36002 c 0.0291,-1.42361 1.50023,-2.89268 5.98469,-5.97618 9.02216,-6.2036 18.24607,-18.05072 24.1699,-31.04362 4.0881,-8.96654 10.6072,-27.05608 12.87644,-35.7302 1.00719,-3.85 2.54376,-9.25 3.41459,-12 3.52162,-11.12097 8.12499,-41.24648 6.55011,-42.86541 -0.46865,-0.48176 -2.4447,0.35713 -4.45745,1.89234 -1.98858,1.51676 -4.95086,3.48119 -6.58284,4.36541 -6.64975,3.60286 -29.87884,25.67598 -44.69268,42.4686 -10.2118,11.57586 -17.22578,21.31213 -22.27807,30.92472 -1.53493,2.92039 -3.07904,4.64613 -4,4.47049 -1.31883,-0.25151 -1.50049,-10.22957 -1.50403,-82.61411 -0.002,-45.28042 0.37834,-82.56436 0.84569,-82.8532 0.46735,-0.28883 2.94416,1.48594 5.50403,3.94394 12.17534,11.69083 22.56227,16.22286 43.15431,18.82912 14.7919,1.87216 18.65785,1.64504 53,-3.11375 22.32452,-3.09351 52.2505,-10.46401 65,-16.00893 3.575,-1.55481 9.65,-4.04112 13.5,-5.52513 8.61605,-3.32112 18.62182,-8.2634 28.5,-14.07738 9.92578,-5.842 8.70962,-5.01813 17.63205,-11.94459 19.35531,-15.02549 42.9269,-44.46779 54.29173,-67.81359 6.74834,-13.86255 7.40857,-15.64021 10.61406,-28.57853 2.47326,-9.98282 3.07729,-36.29026 1.09407,-47.65061 -3.44575,-19.7381 -9.01152,-31.22226 -23.35534,-48.1904 -7.88984,-9.33336 -21.80921,-19.95615 -43.1003,-32.89271 -4.44788,-2.70256 -23.02956,-10.62264 -32.67627,-13.92763 -7.99046,-2.73755 -25.00509,-6.96662 -33.35153,-8.289675 -3.10666,-0.492462 -11.49847,-1.819599 -18.64847,-2.949192 -14.05603,-2.220645 -23.5,-2.674752 -23.5,-1.129984 0,1.022985 29.27095,46.095551 51.32365,79.030201 7.18135,10.725 15.74697,23.55 19.03471,28.5 7.11049,10.70549 26.03275,29.90284 37.39301,37.9366 11.34321,8.02171 13.66488,10.08088 12.85092,11.39789 -0.53387,0.86382 -14.55333,1.16551 -54.16131,1.16551 -50.51655,0 -53.44098,-0.0971 -53.44098,-1.77503 0,-0.97626 3.38383,-5.13627 7.51961,-9.24445 9.90296,-9.83687 11.48039,-13.87087 11.48039,-29.3591 0,-16.53312 0.85813,-14.46529 -23.49732,-56.62142 -6.51406,-11.275 -13.24723,-22.97225 -14.9626,-25.99389 -1.71537,-3.02164 -3.83725,-5.63224 -4.71528,-5.80133 -1.00588,-0.19372 -2.50156,1.2837 -4.04326,3.99389 -1.34576,2.36573 -5.06506,8.80133 -8.26512,14.30133 -27.12825,46.62585 -28.94036,50.08351 -30.55844,58.30803 -1.42011,7.21829 -0.77212,22.65316 1.20289,28.65231 0.86792,2.63633 4.05537,6.7368 9.53424,12.26523 5.35661,5.40508 8.03033,8.82635 7.65736,9.7983 -0.50013,1.3033 -7.39031,1.46047 -54.12957,1.23476 -39.69303,-0.19168 -53.65704,-0.56039 -53.94494,-1.42438 -0.21365,-0.64116 4.0239,-4.32095 9.41679,-8.17732 9.851,-7.04429 31.54934,-26.60317 36.27353,-32.69696 2.88887,-3.72638 12.83594,-18.1124 18.03172,-26.07849 1.925,-2.95139 5.57141,-8.4071 8.10313,-12.12382 5.46269,-8.01953 12.02115,-18.28599 17.41285,-27.25766 2.14847,-3.575 9.88629,-15.66722 17.19516,-26.8716 7.30887,-11.20437 13.28886,-20.991863 13.28886,-21.749985 0,-1.127536 -4.41347,-1.416635 -24.25,-1.588468 -37.65988,-0.326227 -51.87812,0.257293 -68.59993,2.815357 -5.14246,0.786682 -13.60524,1.871585 -18.80619,2.410886 -5.20095,0.53931 -12.69349,1.68124 -16.65008,2.53763 -3.95659,0.85638 -11.018804,2.15706 -15.693804,2.89041 -7.13632,1.11943 -29.72247,5.37348 -37.77848,7.11548 -1.70654,0.36901 2.18876,-5.2245 15.51815,-22.2835 9.78814,-12.52691 19.36346,-24.884638 21.27848,-27.461619 C 91.088976,60.347629 98.730806,50.9784 106.15581,42.1041 130.41474,13.110023 133.25978,9.6683695 136.9436,4.8600302 c 3.49549,-4.5625291 7.11224,-6.5378279 5.82404,-3.1808156 -0.33119,0.8630515 -1.54454,6.1505515 -2.69634,11.7500004 -2.32921,11.323338 -2.10885,16.930756 1.08779,27.680816 3.74919,12.608262 16.48434,21.675537 40.99672,29.189179 13.27403,4.068813 35.5889,4.311786 70,0.762188 23.1078,-2.383633 42.88491,-2.912948 69.9753,-1.872822 27.36137,1.05053 31.0594,1.485052 63.5247,7.464205 20.63811,3.800934 56.11231,18.033711 65.88803,26.435249 1.71159,1.47099 6.58714,5.2218 10.83457,8.33514 15.30526,11.21867 35.03198,33.73121 43.76716,49.94799 4.82508,8.95771 13.72172,30.81166 16.58461,40.73886 2.66555,9.24294 4.70983,25.4148 4.61395,36.5 -0.0333,3.85 -0.98807,12.175 -2.12171,18.5 -6.07577,33.89882 -21.22993,65.57833 -41.5633,86.88733 -11.77453,12.3395 -25.05085,22.08923 -43.00331,31.58034 -3.3,1.74465 -7.35,3.92152 -9,4.83751 -6.37689,3.54007 -12.66081,6.01763 -31,12.22237 -20.61454,6.97455 -26.26396,8.35752 -49,11.99513 -8.25,1.31994 -17.475,3.10764 -20.5,3.97266 -10.78123,3.08299 -16.58368,4.62644 -22.55558,5.9998 -12.7164,2.92438 -50.76924,19.64213 -60.60758,26.62671 -1.78694,1.26861 -2.88145,3.18273 -3.32663,5.81771 -0.77205,4.56976 1.99861,35.00463 3.92004,43.06044 0.72151,3.025 1.80637,7.975 2.41081,11 0.60443,3.025 1.6341,7.975 2.28815,11 1.43934,6.65695 14.26002,32.18327 22.2305,44.26153 3.25824,4.93746 9.67904,12.56336 14.71102,17.4721 4.9111,4.79081 8.92927,9.06062 8.92927,9.48847 0,0.42784 -29.025,0.7779 -64.5,0.7779 -35.475,0 -64.49311,-0.3375 -64.48469,-0.75 z"
     style="fill:#000000;fill-opacity:1" />
</svg>
