<?xml version="1.0" encoding="UTF-8" standalone="no"?>
<!-- Created with Inkscape (http://www.inkscape.org/) -->

<svg
     xmlns:dc="http://purl.org/dc/elements/1.1/"
     xmlns:cc="http://creativecommons.org/ns#"
     xmlns:rdf="http://www.w3.org/1999/02/22-rdf-syntax-ns#"
     xmlns:svg="http://www.w3.org/2000/svg"
     xmlns="http://www.w3.org/2000/svg"
     xmlns:sodipodi="http://sodipodi.sourceforge.net/DTD/sodipodi-0.dtd"
     xmlns:inkscape="http://www.inkscape.org/namespaces/inkscape"
     id="svg2"
     version="1.1"
     inkscape:version="0.48.2 r9819"
	 viewBox="0 0 425.92194 163.33752"
     sodipodi:docname="Power-Forces.svg">
    <metadata
         id="metadata8">
        <rdf:RDF>
            <cc:Work
                 rdf:about="">
                <dc:format>image/svg+xml</dc:format>
                <dc:type
                     rdf:resource="http://purl.org/dc/dcmitype/StillImage" />
                <dc:title></dc:title>
            </cc:Work>
        </rdf:RDF>
    </metadata>
    <defs
         id="defs6" />
    <sodipodi:namedview
         pagecolor="#ffffff"
         bordercolor="#666666"
         borderopacity="1"
         objecttolerance="10"
         gridtolerance="10"
         guidetolerance="10"
         inkscape:pageopacity="0"
         inkscape:pageshadow="2"
         inkscape:window-width="1835"
         inkscape:window-height="1060"
         id="namedview4"
         showgrid="false"
         fit-margin-top="0"
         fit-margin-left="0"
         fit-margin-right="0"
         fit-margin-bottom="0"
         inkscape:zoom="0.90769231"
         inkscape:cx="208.55854"
         inkscape:cy="87.620016"
         inkscape:window-x="83"
         inkscape:window-y="-3"
         inkscape:window-maximized="1"
         inkscape:current-layer="svg2" />
    <path
         inkscape:connector-curvature="0"
         id="path3940"
         d="m 189.42195,163.01005 c -1.1,-0.24723 -4.475,-0.94199 -7.5,-1.54389 -13.32241,-2.65087 -27.53816,-8.70831 -39.70103,-16.91693 -2.41958,-1.63296 -4.71417,-2.99715 -5.0991,-3.03154 -0.38493,-0.0344 -3.39987,-3.23586 -6.69987,-7.11437 -3.3,-3.87851 -6.59115,-7.67188 -7.31368,-8.42972 -1.94161,-2.0365 -8.18632,-14.54356 -8.18632,-16.39578 0,-0.87868 -0.50704,-2.10464 -1.12676,-2.72436 -1.43703,-1.43703 -1.58835,-21.682677 -0.17544,-23.472787 0.56453,-0.71525 1.34463,-2.65045 1.73356,-4.30045 1.27601,-5.41346 7.2778,-14.87865 13.79147,-21.75 l 6.39864,-6.75 -67.810737,0 c -76.9632348,0 -71.5417748,0.72564 -63.0607348,-8.4404 7.1052098,-7.67907 20.7231948,-22.97779 25.1258928,-28.22693 1.306741,-1.55797 4.006741,-4.6642598 6,-6.9028698 l 3.624107,-4.07019 0.01537,6.07104 c 0.01888,7.4553698 2.105922,10.7158398 8.424732,13.1614698 4.048794,1.56705 8.003837,1.65684 44.87674,1.01884 22.24015,-0.38482 56.639,-0.38287 76.44189,0.004 l 36.00525,0.70398 -6.47968,2.59037 c -7.53219,3.01115 -22.7843,11.82852 -22.7843,13.17182 0,0.50521 -0.51025,0.91857 -1.13388,0.91857 -1.2547,0 -13.86612,12.58417 -13.86612,13.83616 0,0.43269 -0.7875,1.66158 -1.75,2.73086 -2.6163,2.90654 -5.8929,9.36046 -7.32749,14.43298 -0.69997,2.475 -1.7481,5.12167 -2.32917,5.88149 -1.40499,1.8372 -1.40451,24.130867 5.8e-4,27.216347 0.60166,1.32119 1.89431,4.87716 2.87255,7.90216 3.86214,11.94277 16.00301,26.51558 26.66758,32.00938 13.48684,6.94767 35.89489,9.18054 51.36595,5.1184 12.63636,-3.31785 28.57625,-11.92788 38.33147,-20.70498 9.09073,-8.17923 18.00045,-23.65241 20.07195,-34.858197 2.1122,-11.42589 0.75227,-30.35143 -2.5443,-35.40814 -5.62836,-8.6335 -31.07847,-8.75607 -40.63208,-0.1957 l -3.22704,2.89155 0.30583,14.82384 c 0.46026,22.30927 -2.20956,31.676937 -11.76604,41.283847 -7.38357,7.42254 -11.92987,9.42508 -21.53979,9.48779 -8.40473,0.0549 -11.11985,-0.97265 -17.62995,-6.67182 -2.81372,-2.46323 -5.87005,-10.07253 -5.87005,-14.61457 0,-4.3933 4.56905,-12.392837 8.65966,-15.161397 3.16941,-2.14509 4.8177,-2.5 11.61055,-2.5 l 7.91675,0 4.30686,4.82567 c 2.70547,3.03137 4.76291,6.56369 5.5334,9.499997 l 1.22653,4.67433 2.31176,-5 c 2.55824,-5.533127 3.18249,-14.499717 1.3369,-19.202947 -2.94961,-7.51668 -5.81758,-12.22461 -10.19011,-16.72761 -2.7751,-2.85791 -4.56167,-5.51959 -4.25,-6.33179 0.29573,-0.77067 0.5377,-1.83244 0.5377,-2.35949 0,-1.29654 7.61997,-8.53267 12.25,-11.63293 2.0625,-1.38105 3.75,-2.9012 3.75,-3.37812 0,-0.47691 0.48142,-0.86711 1.06982,-0.86711 0.58841,0 2.95091,-1.29116 5.25,-2.86924 4.93669,-3.3885 14.80937,-8.09874 23.18655,-11.06225 11.97444,-4.23608 21.37251,-5.23871 51.99363,-5.54692 15.95,-0.16054 34.175,-0.79806 40.5,-1.41672 24.01581,-2.34902 42.8126,-5.74674 45.45,-8.21558 0.5225,-0.48911 1.53218,-0.88929 2.24373,-0.88929 1.92974,0 21.53421,-8.9459898 23.55627,-10.74929982 0.9625,-0.85837 1.75,-1.0896 1.75,-0.51384 0,2.47257002 -10.04476,11.86538982 -21.32623,19.94206982 -6.69557,4.79353 -12.76841,9.30176 -13.4952,10.01829 -0.72678,0.71653 -1.62678,1.31141 -2,1.32196 -0.37321,0.0106 -2.47857,1.62375 -4.67857,3.58488 -2.2,1.96114 -5.575,4.61695 -7.5,5.90181 -2.66949,1.78177 -8.61428,6.59545 -9.40554,7.61596 -0.052,0.067 -7.91627,0.4045 -17.47626,0.75 l -17.38179,0.62817 -0.24488,10 c -0.31937,13.04235 -1.99005,22.3623 -5.9043,32.93735 -2.67452,7.225687 -9.66993,20.536657 -13.43413,25.562647 -5.65682,7.55303 -20.89359,23 -22.68702,23 -0.80634,0 -1.46608,0.45 -1.46608,1 0,0.55 -0.675,1 -1.5,1 -0.825,0 -1.5,0.40537 -1.5,0.90082 0,0.86862 -15.35235,8.62588 -21.5,10.86356 -1.65,0.60058 -6.6,2.07214 -11,3.27014 -4.4,1.198 -9.35,2.64463 -11,3.21474 -2.96173,1.02333 -49.12457,2.05161 -53,1.18057 z"
         style="fill:#000000;fill-opacity:1" />
</svg>
