<?xml version="1.0" encoding="UTF-8" standalone="no"?>
<!-- Created with Inkscape (http://www.inkscape.org/) -->

<svg
     xmlns:dc="http://purl.org/dc/elements/1.1/"
     xmlns:cc="http://creativecommons.org/ns#"
     xmlns:rdf="http://www.w3.org/1999/02/22-rdf-syntax-ns#"
     xmlns:svg="http://www.w3.org/2000/svg"
     xmlns="http://www.w3.org/2000/svg"
     xmlns:sodipodi="http://sodipodi.sourceforge.net/DTD/sodipodi-0.dtd"
     xmlns:inkscape="http://www.inkscape.org/namespaces/inkscape"
     id="svg2"
     version="1.1"
     inkscape:version="0.48.2 r9819"
	 viewBox="0 0 321.35208 254.09776"
     sodipodi:docname="Arcanum-Fate.png">
    <metadata
         id="metadata8">
        <rdf:RDF>
            <cc:Work
                 rdf:about="">
                <dc:format>image/svg+xml</dc:format>
                <dc:type
                     rdf:resource="http://purl.org/dc/dcmitype/StillImage" />
                <dc:title></dc:title>
            </cc:Work>
        </rdf:RDF>
    </metadata>
    <defs
         id="defs6" />
    <sodipodi:namedview
         pagecolor="#ffffff"
         bordercolor="#666666"
         borderopacity="1"
         objecttolerance="10"
         gridtolerance="10"
         guidetolerance="10"
         inkscape:pageopacity="0"
         inkscape:pageshadow="2"
         inkscape:window-width="1835"
         inkscape:window-height="1060"
         id="namedview4"
         showgrid="false"
         fit-margin-top="0"
         fit-margin-left="0"
         fit-margin-right="0"
         fit-margin-bottom="0"
         inkscape:zoom="0.9254902"
         inkscape:cx="436.40088"
         inkscape:cy="118.63209"
         inkscape:window-x="83"
         inkscape:window-y="-3"
         inkscape:window-maximized="1"
         inkscape:current-layer="svg2" />
    <path
         inkscape:connector-curvature="0"
         id="path2989"
         d="m 123.00004,253.86269 c -14.26137,-2.48492 -23.89978,-6.47972 -29.98808,-12.4291 -9.18242,-8.97289 -13.574,-23.25724 -10.54712,-34.3063 1.67022,-6.09682 9.17693,-20.6937 10.64211,-20.6937 0.41263,0 1.34488,-0.58609 2.07166,-1.30242 2.15804,-2.12699 9.58673,-4.69722 13.59167,-4.70253 12.38657,-0.0164 24.22976,10.47188 24.22976,21.45783 0,5.10977 -4.39867,12.76889 -8.64452,15.05214 -4.32157,2.32398 -16.4089,2.83472 -17.11277,0.7231 -0.22516,-0.67547 -1.00687,-1.22812 -1.73715,-1.22812 -0.73027,0 -2.49338,-1.38524 -3.918,-3.07831 -2.13958,-2.54275 -2.69878,-2.79543 -3.21417,-1.45234 -0.34317,0.89428 -0.37767,3.4621 -0.0767,5.70627 0.71824,5.35488 5.99697,10.78551 13.95548,14.35708 5.43485,2.43901 6.86976,2.65491 15.12612,2.27594 9.78111,-0.44896 12.98072,-1.73398 26.53684,-10.65769 6.30706,-4.15181 17.96156,-15.47676 23.31161,-22.65245 2.04973,-2.74917 4.09743,-5.4485 4.55043,-5.9985 0.453,-0.55 1.14341,-1.675 1.53423,-2.5 0.39082,-0.825 1.6026,-2.85 2.69285,-4.5 1.09025,-1.65 3.60588,-6.375 5.5903,-10.5 1.98443,-4.125 4.1786,-8.625 4.87595,-10 0.69735,-1.375 2.04487,-4.975 2.9945,-8 4.92192,-15.67853 14.34224,-38.3097 22.26959,-53.5 10.29934,-19.735493 30.07405,-43.833453 48.94221,-59.642208 2.84727,-2.38559 5.01863,-4.495648 4.82526,-4.689019 -0.46499,-0.464993 -59.60018,-0.40402 -60.06614,0.06193 -0.19834,0.198342 0.33589,1.690074 1.18718,3.314959 4.05201,7.734182 5.37586,13.0522 5.37636,21.597373 0.002,27.563218 -12.36127,47.381725 -36.40633,58.361745 -6.65543,3.03915 -22.41488,6.50541 -29.43985,6.47523 -10.95726,-0.0471 -30.70875,-5.18465 -36.15332,-9.40386 -0.825,-0.63933 -2.77297,-1.80052 -4.32882,-2.58044 C 111.08234,117.129 99.83529,105.02685 96.45155,98.748409 87.91075,82.901186 87.09808,58.970937 94.61169,44.570748 95.36848,43.120313 95.99045,41.443488 95.99384,40.844471 95.99784,40.067428 82.246,39.892059 48,40.232453 21.6,40.494859 0,40.379883 0,39.976949 0,39.574016 3.81706,33.999424 8.48236,27.588968 13.14765,21.178512 19.56015,12.348535 22.73236,7.9667967 L 28.5,0 29.04887,4.7429379 c 0.38774,3.3505694 1.34824,5.5425721 3.27183,7.4667961 l 2.72301,2.723859 47.22817,0.5 47.22816,0.5 -3.5,2.437736 c -8.26785,5.758525 -15.02786,14.639159 -19.23752,25.272343 -2.97025,7.502538 -3.00084,25.083395 -0.056,32.211126 2.08222,5.039932 7.57755,11.392772 11.5602,13.364114 6.5138,3.224237 11.89393,5.214681 14.09512,5.214681 1.35934,0 2.62179,0.45078 2.80544,1.001734 0.59903,1.797062 21.50467,3.186185 30.83054,2.048603 10.54095,-1.285799 23.74227,-5.864931 29.52571,-10.241565 7.37108,-5.578083 12.14771,-18.619698 11.01816,-30.082845 -1.56041,-15.835705 -8.75883,-28.7728 -21.54165,-38.714953 -2.48316,-1.931337 -2.03231,-1.94466 66.92602,-1.977705 l 69.42602,-0.03327 -4.92602,3.444105 c -2.70931,1.894258 -5.37884,3.806758 -5.9323,4.25 -14.49329,11.607217 -25.07859,21.925432 -32.62919,31.805895 -1.26092,1.65 -2.87127,3.359861 -3.57856,3.79969 -0.70728,0.43983 -1.28597,1.199556 -1.28597,1.688282 0,0.488725 -1.35,2.366652 -3,4.173171 -1.65,1.806519 -3,3.638188 -3,4.070377 0,0.432189 -1.35,2.649419 -3,4.927177 -1.65,2.277759 -3,4.503879 -3,4.946932 0,0.443054 -1.16262,2.513037 -2.58361,4.599962 -2.46853,3.625403 -8.34613,15.365559 -12.61131,25.190326 -3.2267,7.43265 -8.48698,22.9784 -10.69402,31.60408 -2.47755,9.68295 -7.29557,23.89355 -9.49322,28 -0.88304,1.65 -1.60829,3.32623 -1.61168,3.72496 -0.0154,1.81208 -10.50032,23.49123 -17.30226,35.77504 -4.67894,8.44983 -9.4601,13.88776 -24.61826,28 -8.58079,7.98872 -16.86,12.14722 -31.08564,15.61378 -5.75359,1.40206 -23.69574,2.5653 -28,1.81532 z"
         style="fill:#000000;fill-opacity:1" />
</svg>
