<?xml version="1.0" encoding="UTF-8" standalone="no"?>
<!-- Created with Inkscape (http://www.inkscape.org/) -->

<svg
     xmlns:dc="http://purl.org/dc/elements/1.1/"
     xmlns:cc="http://creativecommons.org/ns#"
     xmlns:rdf="http://www.w3.org/1999/02/22-rdf-syntax-ns#"
     xmlns:svg="http://www.w3.org/2000/svg"
     xmlns="http://www.w3.org/2000/svg"
     xmlns:sodipodi="http://sodipodi.sourceforge.net/DTD/sodipodi-0.dtd"
     xmlns:inkscape="http://www.inkscape.org/namespaces/inkscape"
     id="svg2"
     version="1.1"
     inkscape:version="0.48.2 r9819"
	 viewBox="0 0 521.48041 364.25174"
     sodipodi:docname="Power-Space.svg">
    <metadata
         id="metadata8">
        <rdf:RDF>
            <cc:Work
                 rdf:about="">
                <dc:format>image/svg+xml</dc:format>
                <dc:type
                     rdf:resource="http://purl.org/dc/dcmitype/StillImage" />
                <dc:title></dc:title>
            </cc:Work>
        </rdf:RDF>
    </metadata>
    <defs
         id="defs6" />
    <sodipodi:namedview
         pagecolor="#ffffff"
         bordercolor="#666666"
         borderopacity="1"
         objecttolerance="10"
         gridtolerance="10"
         guidetolerance="10"
         inkscape:pageopacity="0"
         inkscape:pageshadow="2"
         inkscape:window-width="1835"
         inkscape:window-height="1060"
         id="namedview4"
         showgrid="false"
         fit-margin-top="0"
         fit-margin-left="0"
         fit-margin-right="0"
         fit-margin-bottom="0"
         inkscape:zoom="0.45384615"
         inkscape:cx="326.23438"
         inkscape:cy="-9.8289007"
         inkscape:window-x="83"
         inkscape:window-y="-3"
         inkscape:window-maximized="1"
         inkscape:current-layer="svg2" />
    <path
         inkscape:connector-curvature="0"
         id="path4405"
         d="m 0.0242488,363.88678 c -0.35956,-0.35794 3.32257,-1.17279 8.18252,-1.81076 10.0140602,-1.31457 34.3508602,-5.50571 44.8362802,-7.72144 22.02715,-4.65468 66.024931,-16.00172 67.910911,-17.51424 1.37659,-1.10399 7.6386,-2.56753 9.48261,-2.21625 0.76644,0.14601 1.66644,-0.11754 2,-0.58566 0.62909,-0.88286 13.51946,-5.81056 23.10648,-8.83309 3.025,-0.9537 5.96345,-2.09736 6.52989,-2.54146 0.56644,-0.44409 4.39144,-2.12564 8.5,-3.73677 9.65672,-3.78679 27.32516,-11.50179 27.97011,-12.21327 0.275,-0.30337 7.025,-3.80499 15,-7.78139 14.1265,-7.04357 22.45484,-11.82531 36.23801,-20.80613 3.70591,-2.41469 7.15591,-4.39035 7.66667,-4.39035 0.51076,0 1.07865,-0.3375 1.26199,-0.75 0.18333,-0.4125 2.58333,-2.29211 5.33333,-4.17692 12.2685,-8.40864 36.03945,-28.56026 45.60112,-38.65796 11.8375,-12.5011 18.57114,-20.3773 21.23592,-24.83919 1.01037,-1.69176 2.55252,-3.63378 3.427,-4.3156 0.87448,-0.68181 1.24756,-1.58181 0.82908,-2 -0.41848,-0.41818 -46.17313,-0.60885 -101.677,-0.42371 -83.74291,0.27933 -100.90656,0.10916 -100.85993,-1 0.0309,-0.73514 2.75962,-3.58662 6.06382,-6.33662 3.30419,-2.75 7.29387,-6.125 8.86594,-7.5 1.57207,-1.375 3.45586,-2.95386 4.18618,-3.50858 2.11481,-1.60629 20.2756,-16.93045 20.82787,-17.57464 0.275,-0.32078 3.65,-3.2196 7.5,-6.44184 3.85,-3.22223 7.225,-6.10978 7.5,-6.41677 0.72784,-0.81252 8.02846,-7.04943 12.57735,-10.74483 2.15746,-1.75266 7.29765,-6.04303 11.42265,-9.53416 4.125,-3.49113 9.49588,-7.90713 11.93529,-9.81334 2.43941,-1.90621 5.18975,-4.19118 6.11186,-5.07771 0.92212,-0.88652 3.08874,-2.44605 4.81472,-3.4656 1.72597,-1.01956 3.13813,-2.1851 3.13813,-2.5901 0,-0.40499 2.1375,-2.19907 4.75,-3.98684 5.84958,-4.00295 7.49597,-5.57554 6.48885,-6.19798 -0.42708,-0.26394 -53.86803,-0.7844 -118.75768,-1.15657 C 65.134579,96.85484 11.857459,96.369 11.630609,96.14738 c -0.5439,-0.5314 1.31338,-4.39713 3.32058,-6.91141 1.90425,-2.38532 17.46259,-23.76909 26.59186,-36.54851 3.575,-5.00439 7.06457,-9.85323 7.7546,-10.77519 0.69003,-0.92197 3.97288,-5.5013 7.29522,-10.1763 3.32234,-4.675 7.25777,-10.03525 8.7454,-11.91166 1.48763,-1.87641 3.37978,-4.4124 4.20478,-5.63554 3.45977,-5.1294101 10.38596,-14.3999501 10.59796,-14.1851001 0.12606,0.12777 0.71615,3.73839 1.31131,8.02361 1.29601,9.3315001 2.88441,12.6876301 7.76516,16.4070001 l 3.67653,2.80169 139.574521,-0.31263 139.57452,-0.31264 -4.57403,4.31264 c -6.07044,5.72351 -13.55847,12.40201 -19.41117,17.31263 -6.97747,5.85433 -36.90008,31.74688 -44.9182,38.86848 -3.79686,3.37234 -8.10303,7.03152 -9.56926,8.13152 -1.46623,1.1 -4.6597,3.87569 -7.0966,6.16819 -2.43691,2.29251 -5.78074,5.20115 -7.43074,6.46365 -1.65,1.26249 -5.025,4.19221 -7.5,6.51048 -2.475,2.31828 -8.775,7.87564 -14,12.3497 -20.70593,17.73006 -19.33798,16.54693 -26.02405,22.50798 -2.46757,2.2 -6.43706,5.575 -8.82108,7.5 -2.38402,1.925 -5.53165,4.53494 -6.99473,5.79986 -1.46307,1.26492 -3.89764,3.04944 -5.41014,3.96561 -1.5125,0.91616 -2.75,2.00991 -2.75,2.43055 0,1.19108 142.29851,1.49237 143.5695,0.30398 0.58823,-0.55 2.06908,-5.5 3.29077,-11 1.2217,-5.5 2.76542,-11.8 3.4305,-14 1.35223,-4.47301 1.67601,-36.02895 0.47456,-46.25 l -0.73467,-6.25 55.98467,0 c 30.79157,0 55.98467,0.37396 55.98467,0.83102 0,0.45706 -1.06178,1.39927 -2.35952,2.09379 -1.29773,0.69453 -3.11614,2.68307 -4.0409,4.41898 -0.92476,1.73592 -3.49061,6.30621 -5.70188,10.15621 -4.51928,7.86842 -8.17469,16.53673 -10.86596,25.76715 -2.84129,9.74494 -8.62631,20.53311 -15.0722,36.23285 -4.68865,11.41977 -15.72622,26.76732 -21.95954,35.64197 -1.01942,1.45139 -19.57758,23.5121 -21.65487,26.15772 -2.75621,3.51029 -5.85001,5.92295 -8.72639,8.67518 -2.84092,2.73618 -9.20484,7.88874 -14.14203,11.45014 -4.93719,3.5614 -9.51222,6.94024 -10.16673,7.50852 -0.6545,0.56829 -2.73035,1.89841 -4.61299,2.95583 -1.88264,1.05741 -4.49713,2.52739 -5.80998,3.2666 -1.31286,0.73922 -2.61201,1.6005 -2.88701,1.91395 -1.59116,1.81365 -12.93099,9.44485 -22,14.80502 -12.38202,7.31831 -47.13873,24.47761 -57,28.14075 -1.925,0.71508 -5.36474,2.11857 -7.64388,3.11888 -13.31999,5.84611 -40.43069,14.82793 -73.85612,24.46865 -11.49463,3.31534 -44.61829,10.41033 -70,14.9938 -7.01428,1.26665 -22.607121,3.25971 -50.000001,6.39094 -6.9643,0.79608 -26.6965,2.07598 -52.6825102,3.41717 -4.22539,0.21808 -7.97672,0.10364 -8.33629,-0.25431 z M 42.277519,228.70586 c -14.44589,-3.6257 -24.85947,-17.55286 -24.85947,-33.24714 0,-8.19498 3.27788,-15.83371 9.77508,-22.77974 9.57568,-10.23718 22.1537,-13.3885 35.49699,-8.89347 7.29857,2.45871 11.75747,5.79062 16.49564,12.32634 4.73127,6.52621 6.35729,11.53951 6.35729,19.60062 0,14.36846 -6.22402,24.50848 -18.86132,30.72837 -5.95348,2.93021 -17.48836,4.0008 -24.40421,2.26502 z m 434.765531,-0.3104 c -9.37298,-3.10093 -16.02406,-8.98119 -20.53992,-18.15949 -2.08992,-4.24767 -2.46008,-6.42942 -2.46008,-14.5 0,-8.06286 0.37102,-10.254 2.45257,-14.48418 3.03177,-6.16125 9.01925,-12.0906 16.13436,-15.97772 4.84398,-2.64636 6.35926,-2.96037 14.41307,-2.98677 7.67257,-0.0252 9.81121,0.35602 14.5,2.58441 7.27427,3.45716 13.60599,9.93107 17.24348,17.63068 2.69529,5.70524 2.92442,7.00378 2.55865,14.5 -0.47279,9.68928 -2.79787,15.28805 -9.39695,22.62781 -5.84689,6.50316 -12.50369,9.34064 -22.90518,9.76343 -4.83501,0.19653 -9.5825,-0.19837 -12,-0.99817 z"
         style="fill:#000000;fill-opacity:1"
         sodipodi:nodetypes="ssssssscssssscsssssssssscssssssssscscsssssscsscccssssssssssssssssscssssssssscscsssssssssssssssssssssssssssssss" />
</svg>
