<?xml version="1.0" encoding="UTF-8" standalone="no"?>
<!-- Created with Inkscape (http://www.inkscape.org/) -->

<svg
     xmlns:dc="http://purl.org/dc/elements/1.1/"
     xmlns:cc="http://creativecommons.org/ns#"
     xmlns:rdf="http://www.w3.org/1999/02/22-rdf-syntax-ns#"
     xmlns:svg="http://www.w3.org/2000/svg"
     xmlns="http://www.w3.org/2000/svg"
     xmlns:sodipodi="http://sodipodi.sourceforge.net/DTD/sodipodi-0.dtd"
     xmlns:inkscape="http://www.inkscape.org/namespaces/inkscape"
     id="svg2"
     version="1.1"
     inkscape:version="0.48.2 r9819"
     viewBox="0 0 182.8287 259.86243"
     sodipodi:docname="Arcanum-Forces.png">
    <metadata
         id="metadata8">
        <rdf:RDF>
            <cc:Work
                 rdf:about="">
                <dc:format>image/svg+xml</dc:format>
                <dc:type
                     rdf:resource="http://purl.org/dc/dcmitype/StillImage" />
                <dc:title></dc:title>
            </cc:Work>
        </rdf:RDF>
    </metadata>
    <defs
         id="defs6" />
    <sodipodi:namedview
         pagecolor="#ffffff"
         bordercolor="#666666"
         borderopacity="1"
         objecttolerance="10"
         gridtolerance="10"
         guidetolerance="10"
         inkscape:pageopacity="0"
         inkscape:pageshadow="2"
         inkscape:window-width="1835"
         inkscape:window-height="1060"
         id="namedview4"
         showgrid="false"
         fit-margin-top="0"
         fit-margin-left="0"
         fit-margin-right="0"
         fit-margin-bottom="0"
         inkscape:zoom="0.90769231"
         inkscape:cx="90.984051"
         inkscape:cy="120.52372"
         inkscape:window-x="83"
         inkscape:window-y="-3"
         inkscape:window-maximized="1"
         inkscape:current-layer="svg2" />
    <path
         inkscape:connector-curvature="0"
         id="path2989"
         d="m 76.984051,258.49306 c -4.125,-0.70191 -10.978904,-2.44971 -15.230897,-3.884 -7.179998,-2.42196 -27.326612,-13.00165 -36.112606,-18.96399 -5.786626,-3.92691 -14.092932,-6.67076 -20.1940105,-6.67076 -3.004368,0 -5.45529896,-0.3375 -5.446513957079,-0.75 0.0087999971,-0.4125 1.412531957079,-2.325 3.119435957079,-4.25 1.706905,-1.925 4.737217,-5.525 6.734027,-8 1.9968105,-2.475 3.8666735,-4.725 4.1552505,-5 0.288578,-0.275 4.113519,-4.9951 8.499871,-10.48911 4.386351,-5.49401 9.437742,-11.49514 11.225314,-13.33585 1.787571,-1.8407 3.266312,-3.64561 3.286092,-4.01089 0.01978,-0.36528 1.099611,-1.96489 2.399626,-3.55469 l 2.363662,-2.89054 -0.649625,5.39054 c -0.357294,2.9648 -0.649626,10.56554 -0.649626,16.89054 0,10.28921 0.262759,12.01453 2.495657,16.38696 6.259834,12.25792 23.253467,23.06999 39.504343,25.13433 5.81846,0.73912 18.966719,-1.69842 24.563849,-4.55386 10.19855,-5.20292 18.66822,-16.23816 29.90792,-38.96743 5.82663,-11.7828 6.41782,-13.35053 9.23893,-24.5 1.98355,-7.83934 2.25688,-11.25684 2.11945,-26.5 -0.17657,-19.58534 -1.93145,-29.13415 -7.50815,-40.85402 C 135.59163,94.161781 126.17417,81.742012 119.25034,76.692589 111.23614,70.847975 97.505511,63.963205 85.707265,59.873523 75.6824,56.398557 73.452516,55.982694 64.823145,55.978737 c -8.970042,-0.0041 -15.114439,1.197546 -23.339094,4.564427 -1.674338,0.685415 -1.519881,0.176557 0.948572,-3.125065 1.621715,-2.169086 3.652037,-4.618793 4.511827,-5.443793 0.85979,-0.825 4.017463,-4.425 7.017051,-8 2.999588,-3.575 6.672691,-7.85 8.16245,-9.5 1.489759,-1.65 6.455229,-7.455971 11.034377,-12.902157 4.579148,-5.446187 10.350723,-12.0365931 12.825723,-14.6453481 2.475,-2.608755 4.575,-5.0527843 4.666667,-5.4311762 0.234034,-0.96607409 1.333333,-1.98576332 1.333333,-1.23677543 0,0.33983211 -0.619509,3.00233213 -1.376687,5.91666673 -2.246128,8.64522 -2.956325,19.242172 -1.653545,24.67277 0.644445,2.686347 1.279439,5.618217 1.411098,6.515267 0.131659,0.897049 0.774824,2.166443 1.429257,2.820876 0.654432,0.654432 1.189877,1.722514 1.189877,2.373515 0,2.817391 7.993679,8.329786 15.184379,10.471058 9.38532,2.794797 25.73686,10.999154 32.88852,16.501763 10.17801,7.831135 20.67521,19.978717 25.36134,29.348668 4.93983,9.877247 13.90855,35.599667 15.6664,44.931467 1.46638,7.78446 0.65979,28.68239 -1.49672,38.77884 -2.91114,13.62943 -10.34863,30.44465 -16.53547,37.38457 -2.20643,2.475 -4.02446,4.81206 -4.04007,5.19346 -0.0156,0.38141 -1.35391,1.47648 -2.974,2.43349 -1.62009,0.95701 -2.74178,2.06983 -2.49265,2.47293 0.60989,0.98682 -8.65209,8.71597 -16.04959,13.39345 -6.7976,4.29814 -17.94383,9.24534 -27.51214,12.21111 -15.174878,4.70358 -20.37002,5.1336 -33.999999,2.81431 z m 1.916066,-93.28325 c -5.629794,-3.78125 -7.916066,-8.00795 -7.916066,-14.63467 0,-5.64271 3.23089,-10.45154 8.969961,-13.35083 5.477434,-2.76711 8.228679,-2.82123 13.464315,-0.26484 4.53505,2.21432 8.199593,6.9342 9.176623,11.81936 0.93147,4.65731 -2.02011,11.64308 -6.297948,14.90595 -4.492231,3.42639 -13.403006,4.20752 -17.396885,1.52503 z"
         style="fill:#000000;fill-opacity:1" />
</svg>
