<?xml version="1.0" encoding="UTF-8" standalone="no"?>
<!-- Created with Inkscape (http://www.inkscape.org/) -->

<svg
   xmlns:dc="http://purl.org/dc/elements/1.1/"
   xmlns:cc="http://creativecommons.org/ns#"
   xmlns:rdf="http://www.w3.org/1999/02/22-rdf-syntax-ns#"
   xmlns:svg="http://www.w3.org/2000/svg"
   xmlns="http://www.w3.org/2000/svg"
   xmlns:sodipodi="http://sodipodi.sourceforge.net/DTD/sodipodi-0.dtd"
   xmlns:inkscape="http://www.inkscape.org/namespaces/inkscape"
   width="1946.59"
   height="1946.59"
   id="svg2"
   version="1.1"
   inkscape:version="0.48.2 r9819"
   sodipodi:docname="Breed-Beast.svg">
  <defs
     id="defs4" />
  <sodipodi:namedview
     id="base"
     pagecolor="#ffffff"
     bordercolor="#666666"
     borderopacity="1.0"
     inkscape:pageopacity="0.0"
     inkscape:pageshadow="2"
     inkscape:zoom="0.24748737"
     inkscape:cx="2327.6854"
     inkscape:cy="485.57141"
     inkscape:document-units="px"
     inkscape:current-layer="layer1"
     showgrid="false"
     fit-margin-top="0"
     fit-margin-left="0"
     fit-margin-right="0"
     fit-margin-bottom="0"
     inkscape:window-width="1606"
     inkscape:window-height="1029"
     inkscape:window-x="70"
     inkscape:window-y="-4"
     inkscape:window-maximized="1" />
  <metadata
     id="metadata7">
    <rdf:RDF>
      <cc:Work
         rdf:about="">
        <dc:format>image/svg+xml</dc:format>
        <dc:type
           rdf:resource="http://purl.org/dc/dcmitype/StillImage" />
        <dc:title></dc:title>
      </cc:Work>
    </rdf:RDF>
  </metadata>
  <g
     inkscape:label="Layer 1"
     inkscape:groupmode="layer"
     id="layer1"
     transform="translate(41.482677,466.21575)">
    <path
       style="fill:#000000;fill-opacity:1"
       d="M 972.2322,1140.3743 C 1036.9701,1086.5146 1042.8746,977.945 959.0695,941.2232 882.63294,928.0649 822.46686,858.035 805.6539,783.0634 791.96017,715.6946 830.92004,640.03256 755.34772,595.19628 c -2.55365,-62.48 -8.8111,-122.67203 -31.26922,-182.16538 68.38401,-55.03078 28.25279,-127.04948 25.74502,-195.25784 37.36745,-75.90216 73.62523,-153.34029 130.56245,-217.78945 11.81572,-63.85552 75.32328,-104.84806 127.34623,-52.72211 77.81,28.77738 142.8144,110.8608 128.1426,196.26777 0.8289,62.58132 -26.5915,116.34478 -52.6426,167.78323 0.2354,73.62034 56.1143,164.44428 -21.1154,223.69789 -10.236,49.69589 -64.10214,68.99214 -73.4901,102.61431 4.59273,74.2357 -74.71054,152.9623 7.50712,213.1556 49.59428,46.4974 85.98178,114.0357 71.49088,180.7441 19.7998,54.0251 -63.0693,85.309 -95.3925,108.8499 z m -23.7664,-936.344 c 30.54119,-45.42838 54.7942,-29.74962 78.6912,-7.3059 15.7031,-5.25173 51.3692,8.49967 37.6096,-41.415 23.75,-44.06413 -29.6318,-92.65367 -49.0344,-131.0258 -49.04676,-16.28533 -99.39364,-32.32059 -110.77846,33.84714 -25.41741,15.68065 -57.16024,109.52359 -14.89001,65.39533 1.28639,34.76132 -0.36998,105.24742 32.87017,40.28313 2.83032,11.04606 7.71223,53.32045 25.5319,40.2211 z M 318.9208,871.4569 C 313.64821,813.4499 302.8271,728.6626 275.2449,695.7227 262.87415,666.1868 249.75475,654.25347 227.36111,654.84159 219.70371,600.04814 161.12876,619.13599 127.6071,643.0287 81.602808,664.5233 84.871774,823.4352 85.9391,789.8094 55.431086,732.5365 71.731697,638.7936 71.2322,594.3455 45.232033,578.79045 27.027469,566.66971 -1.928,545.9623 -43.994328,554.59729 -40.506938,664.8289 -41.421672,570.84674 -43.173659,479.28255 -7.144759,390.05245 60.8976,328.04377 124.69835,254.44314 215.61753,201.12416 247.38633,103.57587 275.51832,63.95813 291.17843,25.10179 314.58414,-12.57645 301.55643,-100.10281 454.22021,-118.65462 434.0493,-67.7084 354.39176,-117.07462 337.87269,28.59821 409.9962,51.652 c 38.82449,83.67129 123.29625,126.13665 199.5912,167.0028 55.22607,16.20501 124.09103,32.13179 135.1835,100.5428 -21.89353,60.80139 -69.23153,115.29493 -22.5387,176.7305 -6.57857,59.34555 22.75614,117.80211 35.75,168.3024 -19.13084,9.9559 -39.23458,-24.54085 -31.6903,22.3289 -51.43945,6.8308 -1.5111,171.8641 -8.0031,146.1337 -48.9671,-58.8015 -12.91584,-168.6038 -110.5839,-186.8837 -1.92797,33.7228 -31.24883,-6.83506 -41.4509,29.4866 -53.21209,24.555 -44.64311,102.5278 -41.48431,154.9009 -34.71293,-11.9154 -6.93484,-146.592 -76.53709,-158.0409 -48.69693,25.9023 -68.99142,8.9294 -89.277,66.3448 -29.19067,34.8716 -31.34951,100.6781 -40.0348,132.9561 z m -9.6284,-200.7792 c 24.43439,-40.04378 -51.35225,-133.09916 -35.1766,-40.5395 4.32908,3.56179 41.69713,77.1856 35.1766,40.5395 z m 100.1745,-6.2574 c 16.9387,-23.4237 24.57504,-91.6573 -18.4156,-42.8929 -1.5242,12.21103 -5.49475,53.6735 18.4156,42.8929 z m 74.0777,-4.8609 c -1.80741,-38.90629 -11.49091,-145.59074 -30.7616,-48.0856 -12.41821,18.81227 17.51507,57.5213 30.7616,48.0856 z m 49.1182,1 c 56.75495,-18.46541 4.40754,-127.90095 -15.68831,-88.1654 14.90109,24.64541 -0.0919,74.3898 15.68831,88.1654 z m 168.0428,-28.4889 c 18.48793,-42.0599 5.62335,-103.43189 -32.628,-120.0111 21.69818,32.3712 23.49161,98.37217 32.628,120.0111 z m -34.8245,-4.591 c -6.24562,-38.69363 -67.48647,-137.40388 -44.7017,-131.1701 -16.57647,28.85978 13.52878,115.34513 -35.3002,46.775 -10.95662,39.33928 -0.38905,107.25837 24.99656,57.8554 13.65978,7.62119 47.81364,25.53977 55.00534,26.5397 z m -420.227,-35.8719 c 0.51727,-27.9381 -2.10991,-127.70536 -24.3797,-50.5011 -34.97128,24.60342 1.18153,74.21382 24.3797,50.5011 z m 105.1811,-1.8619 c 28.03176,-22.57949 -3.87127,-145.23944 -9.22704,-51.43202 7.39088,12.7794 -3.60351,50.87173 9.22704,51.43202 z m -44.101,-49.9363 c -11.99064,-70.26153 -30.28951,52.35963 -1.3769,19.1545 l 0.66231,-10.02162 0.71459,-9.13288 z m 247.498,3.893 c 18.88057,-39.03056 -41.99737,-51.77906 -10.18216,-3.57431 l 9.43166,7.65921 0.75,-4.0849 5e-4,0 z m -488.432,-3.404 c 26.407644,2.08784 59.04063,-129.07885 6.8742,-51.9231 -26.173325,1.01432 -23.453341,58.64672 -6.8742,51.9231 z m 71.8892,-21.9317 c 46.50197,1.94969 78.68058,-86.48899 16.71691,-21.52882 -21.20186,-15.50652 -34.75294,31.63578 -16.71691,21.52882 z M 28.5257,520.1826 C 17.103952,476.33793 15.19258,460.2044 1.2322,515.5179 c 9.268121,0.27563 18.165679,3.35652 27.2935,4.6647 z M 508.2602,509.383 c 17.6529,-36.42312 -19.19029,-130.26443 -4.17769,-49.28329 -1.14011,14.8697 -11.79656,49.83392 4.17769,49.28329 z M 58.7386,458.4806 c 12.422696,-21.96479 40.873968,-131.7232 0.0699,-60.1712 -19.457183,6.61533 -32.447754,91.39252 -0.0699,60.1712 z m 203.8237,4.5033 c 21.7983,-74.65036 -37.52559,-50.94429 0,0 z m 124.8694,-22.713 c -6.18427,-71.49265 -25.46452,-20.26599 0,0 z m -185.3475,-5.2913 c 10.67546,-42.72984 -38.13496,28.45467 0,0 z m 398.8313,-28.3813 c -55.62233,-75.07224 -2.24907,10.65497 0,0 z M 133.6787,396.0594 c 19.74331,-25.4685 47.97521,-77.30499 1.5183,-30.6441 -4.99426,2.24614 -9.44625,36.47098 -1.5183,30.6441 z M 264.665,328.0212 c -0.43839,-32.97905 -15.78763,-2.85544 0,0 z m 1277.2134,516.7882 c -1.7381,-60.0156 -41.9673,-147.4842 -68.5132,-172.0828 -37.4598,-17.1086 -104.3971,-28.94666 -104.7373,41.714 -2.152,42.6616 -41.2353,161.1037 -26.8687,55.3688 3.4998,-51.1124 -11.1479,-105.0651 -62.2072,-123.6084 -20.7235,-27.72007 -111.3051,9.17234 -104.2892,86.1084 8.0268,30.3114 -51.7641,128.0838 -20.9039,49.5 18.0177,-51.397 2.354,-157.62094 -44.8051,-130.5248 -24.927,7.30727 -27.8873,-39.11235 -63.7095,-42.87 54.1272,-56.1924 88.2482,-124.72128 82.9636,-205.27618 -26.4647,-65.36279 -25.2345,-120.31486 30.3274,-169.56773 68.6041,-22.0634 134.3864,-47.71017 194.779,-91.03727 60.743,-49.88164 125.5879,-117.15727 147.3785,-190.4855 18.8007,-70.30609 -106.05,-38.01404 -80.0801,-37.40022 52.4784,-88.4873 126.9341,22.41368 145.9954,77.5983 30.3362,71.64807 71.1523,150.50555 125.5108,211.1005 90.0498,86.2057 206.5688,176.11925 208.9609,312.77622 5.2672,44.38651 6.4445,114.64337 -11.2313,32.61562 -31.8012,-48.05093 -57.8062,14.16325 -84.1177,19.24285 -35.6522,18.10628 4.9892,110.00861 -17.21,162.32811 -4.203,36.3775 -29.3121,68.1907 -9.416,13.5 -5.271,-66.3912 -33.554,-137.65542 -103.0583,-145.27 -37.2564,-1.85121 -35.8293,57.30332 -64.6575,36.29454 -32.4601,52.66686 -53.4701,88.40406 -61.3046,160.45526 1.245,7.2448 -4.0968,84.5909 -8.806,49.5203 z m 17.1311,-184.4467 c 35.3861,-22.21827 43.5831,-139.84194 -2.4862,-61.09538 -8.4861,5.49288 -7.6305,78.70888 2.4862,61.09538 z m -91.0327,-14.3033 c 34.1214,-43.38035 -57.9018,-93.75241 -23.2721,-21.5077 -3.3399,8.02936 12.2135,30.58301 23.2721,21.5077 z m -78.5708,-2.7039 c 52.3868,-12.62851 -3.8169,-152.80744 -3.434,-57.1287 10.2028,10.09245 -22.6069,67.96853 3.434,57.1287 z m -53.2027,-4.5461 c -14.018,-25.02552 36.9063,-118.3213 -12.0404,-88.6165 -30.5946,23.70994 -17.1134,87.3106 12.0404,88.6165 z m -169.6154,-34 c -6.4646,-40.4276 60.1172,-161.65184 -6.818,-77.7205 -4.4493,8.979 -7.1947,119.17317 6.818,77.7205 z m 40.1128,2.5 c 36.5166,-29.53939 51.5456,-16.56072 72.3799,-5 -4.6248,-37.38541 15.2626,-109.35718 -30.8816,-48.37311 3.6908,-33.29148 -2.5389,-123.20026 -27.7525,-43.21972 0.8877,3.03074 -42.2595,129.56635 -13.7458,96.59283 z m -97.2861,4 c 63.8747,-63.42194 -49.4872,-14.40704 0,0 z m 514.2908,-31.4834 c 79.9074,6.80909 -22.8117,-152.7551 -3.8568,-47.5166 -6.1058,7.77661 -7.3936,51.72365 3.8568,47.5166 z m -105.3486,-29.5166 c 8.7075,-44.28602 -15.33,-101.89695 -15.0787,-23.19123 -16.0901,19.79295 20.22,74.68553 15.0787,23.19123 l 0,0 z m -394.1157,1.8798 c 24.3275,-24.84597 -41.5107,4.17567 0,0 z m 444.8113,-10.8387 c 31.8147,-61.70292 -35.5993,-42.37238 -10.8359,10.4589 l 10.8359,-10.4589 0,0 z M 1323.053,518.796 c 24.962,-53.41132 -35.1853,-24.95235 -13.3139,10.691 l 4.6839,-3.0135 8.63,-7.6775 0,0 z m 480.771,4.7634 c 34.5061,-35.7403 -78.3174,-119.19719 -32.2265,-42.92592 7.5334,33.39772 6.4112,42.65663 32.2265,42.92592 z m -70.949,-22.4628 c 14.9512,-22.05291 -99.9416,-55.19876 -60.8475,-41.34591 6.193,31.76025 37.0707,36.14253 60.8475,41.34591 z m 116.6748,-2.2179 c 32.9131,-2.82974 -20.8517,-76.61679 -7.3241,-10.8579 -2.2815,7.73774 -20.4548,24.09703 7.3241,10.8579 z m -486.2232,-17.5693 c -8.0183,-26.53795 11.3301,-127.09849 -10.7106,-44.0019 3.6141,6.31618 -4.7831,82.52676 10.7106,44.0019 z m 458.1154,-38.0013 c 25.8541,-32.12011 -72.8403,-140.40929 -29.8152,-52.96641 -7.3679,14.62172 13.8091,74.92062 29.8152,52.96641 z m -216.3544,2.7513 c 26.3614,-33.89712 -15.4292,-77.09885 -8.7426,-17.12736 -1.6182,-8.47514 4.0486,30.32119 8.7426,17.12736 z m -120.4883,-27.25 c 21.8308,-91.90688 -25.1565,9.23017 0,0 z m 192.2925,4.4826 c -14.3165,-52.50625 -34.3392,8.76605 0,0 z m -409.5361,-37.384 c 34.9035,-39.02724 8.0604,-23.59445 -8.1235,8.4731 l 8.1235,-8.4731 z m 465.9407,-20.2019 c -8.1046,-44.10751 -56.0414,-45.93382 -11.654,-0.76035 6.5979,10.01023 13.4066,25.39682 11.654,0.76035 z M 1603.2015,310.342 c 11.3755,-35.91111 -14.1981,-1.05459 0,0 z"
       id="path4094"
       inkscape:connector-curvature="0" />
  </g>
</svg>
