<?xml version="1.0" encoding="UTF-8" standalone="no"?>
<!-- Created with Inkscape (http://www.inkscape.org/) -->

<svg
   xmlns:dc="http://purl.org/dc/elements/1.1/"
   xmlns:cc="http://creativecommons.org/ns#"
   xmlns:rdf="http://www.w3.org/1999/02/22-rdf-syntax-ns#"
   xmlns:svg="http://www.w3.org/2000/svg"
   xmlns="http://www.w3.org/2000/svg"
   xmlns:sodipodi="http://sodipodi.sourceforge.net/DTD/sodipodi-0.dtd"
   xmlns:inkscape="http://www.inkscape.org/namespaces/inkscape"
   width="1361.08"
   height="1361.08"
   id="svg2"
   version="1.1"
   inkscape:version="0.48.2 r9819"
   sodipodi:docname="Breed-Fairest.svg">
  <defs
     id="defs4" />
  <sodipodi:namedview
     id="base"
     pagecolor="#ffffff"
     bordercolor="#666666"
     borderopacity="1.0"
     inkscape:pageopacity="0.0"
     inkscape:pageshadow="2"
     inkscape:zoom="0.24748737"
     inkscape:cx="-420.914"
     inkscape:cy="755.51482"
     inkscape:document-units="px"
     inkscape:current-layer="layer1"
     showgrid="false"
     fit-margin-top="0"
     fit-margin-left="0"
     fit-margin-right="0"
     fit-margin-bottom="0"
     inkscape:window-width="1606"
     inkscape:window-height="1029"
     inkscape:window-x="70"
     inkscape:window-y="-4"
     inkscape:window-maximized="1" />
  <metadata
     id="metadata7">
    <rdf:RDF>
      <cc:Work
         rdf:about="">
        <dc:format>image/svg+xml</dc:format>
        <dc:type
           rdf:resource="http://purl.org/dc/dcmitype/StillImage" />
        <dc:title></dc:title>
      </cc:Work>
    </rdf:RDF>
  </metadata>
  <g
     inkscape:label="Layer 1"
     inkscape:groupmode="layer"
     id="layer1"
     transform="translate(-782.45719,74.336017)">
    <path
       inkscape:connector-curvature="0"
       id="path4410"
       d="m 1511.1843,1286.447 c -2.5456,-0.3775 -5.4706,-1.1377 -6.5,-1.6894 -4.1591,-2.2287 -27.5793,-28.8448 -31.1217,-35.3685 -5.1196,-9.4285 -2.4693,-10.9563 18.5188,-10.6761 14.1187,0.1886 14.1342,0.1863 18.3566,-2.7321 2.3243,-1.6065 8.497,-8.0959 13.717,-14.4209 5.22,-6.325 13.1322,-15.325 17.5827,-20 4.4504,-4.675 10.0097,-10.6375 12.3539,-13.25 2.4872,-2.7719 5.1266,-4.75 6.3377,-4.75 1.1415,0 4.5454,-0.718 7.5641,-1.5956 l 5.4886,-1.5956 6.2179,3.0611 c 8.5862,4.227 19.6127,15.581 19.6127,20.1953 0,4.3861 -4.8855,11.8249 -13.3459,20.3208 -3.7714,3.7874 -14.6339,15.9374 -24.1389,27 -19.6064,22.8197 -26.2381,29.5384 -32.1531,32.5749 -5.188,2.6633 -12.4807,3.8173 -18.4904,2.9261 z m -193.0693,-5.767 c -4.732,-1.0086 -6.1804,-2.2596 -8.592,-7.4209 -4.9882,-10.6759 -4.0512,-12.9679 7.4517,-18.2293 3.9392,-1.8017 9.9343,-5.1584 13.3224,-7.4593 18.8419,-12.7953 29.6772,-14.0332 79.0155,-9.0276 10.725,1.0881 23.2237,1.9871 27.7748,1.9977 8.0971,0.019 8.2971,0.078 9.319,2.766 1.826,4.8029 1.2274,15.6359 -1.1722,21.2141 -2.1074,4.8987 -7.7319,11.0021 -10.2064,11.0752 -0.6683,0.02 -9.0902,0.1999 -18.7152,0.4002 -9.625,0.2003 -28.075,1.2886 -41,2.4184 -27.5662,2.4097 -51.9833,3.3768 -57.1976,2.2655 z m -17.9339,-31.8766 c -1.4474,-0.9589 -14.9055,-12.9934 -29.9069,-26.7434 -15.0015,-13.75 -28.6673,-26.0264 -30.3685,-27.2809 -5.6621,-4.1754 -12.6187,-11.4729 -13.2197,-13.8677 -1.4994,-5.9738 0.4234,-9.4441 11.4096,-20.5928 9.8408,-9.9863 10.8787,-10.7586 14.4591,-10.7586 5.1404,0 9.143,2.1481 15.7579,8.4567 5.7002,5.4363 38.6022,32.3966 50,40.9707 9.235,6.9471 12.8995,10.5375 15.0876,14.7828 2.1745,4.2185 2.4005,8.3242 0.627,11.3881 -2.1157,3.6552 -20.9077,23.1687 -23.4099,24.3087 -3.4755,1.5836 -7.4232,1.3326 -10.4362,-0.6636 z m -111.3685,-5.7917 c -15.4,-1.2669 -31.9578,-2.3368 -36.7951,-2.3775 l -8.7952,-0.074 -7.3979,-4.992 c -8.5879,-5.7951 -11.9116,-9.7352 -13.6292,-16.1571 -1.1158,-4.1718 -0.8755,-6.4647 2.5127,-23.9818 4.127,-21.337 4.982,-24.3111 7.9409,-27.6191 3.955,-4.4218 6.1399,-2.7766 18.4351,13.8813 5.1707,7.0054 8.0112,9.9574 10.4188,10.8276 1.8204,0.658 11.8599,1.6212 22.3099,2.1405 36.4092,1.8091 47.2181,2.6888 49.7783,4.0512 1.3947,0.7421 5.0527,3.7374 8.1288,6.656 l 5.5929,5.3066 0,12.3184 c 0,16.9745 -0.3663,18.3765 -5.398,20.6616 -5.456,2.4778 -16.857,2.3401 -53.102,-0.6415 z m 249.6359,-11.5723 c -49.8303,-0.8775 -48.4277,-0.6841 -51.7746,-7.1388 -1.197,-2.3084 -1.8146,-6.7 -2.1472,-15.267 l -0.4669,-12.0264 4.1477,-2.8743 4.1476,-2.8744 54.5689,-1.0373 c 36.6424,-0.6965 55.1142,-0.7065 56.2288,-0.03 0.9129,0.5538 2.5409,2.7759 3.6178,4.938 1.6919,3.397 1.9347,5.817 1.7874,17.811 -0.1369,11.1454 -0.4855,14.2279 -1.7695,15.6468 -2.1923,2.4224 -9.1125,4.0052 -16.6687,3.8124 -3.469,-0.088 -26.721,-0.5204 -51.6713,-0.9597 z m 370.5193,-23.2768 c -4.6524,-1.7329 -7.2807,-4.1044 -13.9671,-12.6026 -2.8129,-3.575 -7.9323,-9.6884 -11.3764,-13.5853 -5.9758,-6.7615 -10.2424,-14.0358 -10.2897,-17.5434 -0.041,-3.0572 4.9335,-3.9594 20.1743,-3.6591 l 14.5998,0.2878 4.352,-3.0978 c 2.3935,-1.7038 9.9132,-9.5788 16.7104,-17.5 27.5595,-32.1171 30.7078,-35.0476 39.6468,-36.9033 7.7135,-1.6013 11.6003,-0.1969 20.9947,7.5858 10.1823,8.4355 11.4506,10.0656 11.4778,14.7518 0.029,4.9321 -3.5663,10.1811 -15.5217,22.6635 -5.0044,5.225 -16.9694,18.725 -26.5889,30 -17.8885,20.9671 -21.0198,24.0049 -28.8672,28.0056 -5.6388,2.8747 -15.8611,3.6395 -21.3448,1.597 z m -188.8278,-5.2399 c -5.0783,-0.9132 -10.5112,-8.5863 -11.5469,-16.3083 -0.8184,-6.1012 3.4054,-8.8558 23.8032,-15.5241 10.23,-3.3442 18.9626,-6.8421 21.5832,-8.6451 6.9436,-4.7773 13.9294,-5.4163 38.3133,-3.5043 11.2859,0.8849 28.1698,2.0562 37.5198,2.6027 18.9936,1.1104 18.8263,1.0382 19.9619,8.6107 1.2642,8.4306 -2.0344,18.8833 -7.5244,23.8432 -2.1688,1.9594 -4.5045,3.5777 -5.1904,3.5963 -0.6859,0.019 -9.1221,0.2065 -18.7471,0.4174 -9.625,0.2109 -27.85,1.3037 -40.5,2.4285 -23.4405,2.0841 -52.8495,3.3503 -57.6726,2.483 z m -301.7046,-16.3061 c -1.8574,-0.4708 -4.3977,-1.6887 -5.6451,-2.7063 -1.2473,-1.0177 -5.8026,-4.7052 -10.1228,-8.1945 -4.3202,-3.4894 -8.6324,-7.3144 -9.5826,-8.5 -4.0935,-5.1075 -0.8753,-12.9514 6.88,-16.7693 5.6307,-2.772 2.7531,-2.7053 77.8477,-1.804 41.1518,0.4938 47.3946,0.7708 50.1712,2.2257 3.7438,1.9617 6.5753,5.7251 8.2951,11.0252 1.5116,4.6585 1.0045,18.0958 -0.7491,19.8494 -0.8826,0.8827 -8.3312,1.4676 -25.4822,2.0011 -30.8284,0.9589 -74.4421,2.6989 -82.235,3.2807 -3.3,0.2464 -7.5197,0.063 -9.3772,-0.408 z m -154.1228,-2.1843 c -3.5632,-1.4002 -8.5551,-6.4237 -13.288,-13.3723 -4.3543,-6.3929 -38.434,-50.5792 -47.3066,-61.336 -6.4588,-7.8302 -8.4054,-11.7481 -8.4054,-16.9172 0,-5.6019 3.0907,-9.5682 13.0348,-16.7275 13.4035,-9.6499 13.6445,-9.4906 45.5732,30.1248 13.4891,16.7365 27.0305,33.2259 30.092,36.643 9.1784,10.2446 10.6458,12.945 10.0307,18.4592 -0.4852,4.3509 -1.1428,5.3285 -7.7608,11.5379 -10.589,9.9353 -17.2435,13.4452 -21.9699,11.5881 z m 280.6424,-3.0175 c 0.5836,-0.7452 10.4172,-14.1798 21.8525,-29.8548 11.4354,-15.675 22.4146,-30.2246 24.3983,-32.3324 9.288,-9.869 16.3886,-9.0564 29.1848,3.3401 10.8281,10.4898 10.3351,12.0386 -12.8574,40.3904 -10.7509,13.1425 -14.9517,17.5827 -17,17.969 -1.4963,0.2822 -12.6023,0.8122 -24.68,1.1777 -18.3978,0.5569 -21.7873,0.445 -20.8982,-0.69 z m 91.8702,-4.2513 c -3.2679,-3.2679 -5.2964,-10.9445 -6.4708,-24.4875 -0.9274,-10.6955 -0.8647,-11.5559 1.0359,-14.225 1.1835,-1.6622 3.5581,-3.2513 5.7226,-3.8298 15.3697,-4.1075 86.8107,-19.0612 91.065,-19.0612 2.2518,0 5.8746,0.7124 8.0507,1.583 3.9141,1.5662 3.979,1.6793 6.0708,10.5895 3.7282,15.8801 4.6637,24.5675 2.9775,27.6505 -3.3578,6.1389 -14.2552,9.3017 -57.4643,16.6781 -8.8,1.5023 -21.0548,3.8041 -27.233,5.1151 -14.8398,3.1492 -20.5956,3.1461 -23.7544,-0.013 z m 451.9874,-5.6606 c -29.0994,-9.7667 -56.2632,-26.3584 -74.345,-45.41 -9.6045,-10.1196 -12.4068,-16.2668 -10.5572,-23.1585 0.4279,-1.5946 1.6112,-2.2729 4.7363,-2.7153 2.2912,-0.3244 9.7909,-2.1932 16.6659,-4.153 14.6591,-4.1787 22.4413,-5.1707 25.9318,-3.3055 1.3376,0.7146 3.8837,3.7744 5.6581,6.7994 4.5001,7.6716 9.0792,11.2886 22.9101,18.0961 10.1471,4.9943 13.3124,6.0693 20.5,6.9619 4.675,0.5806 9.5548,1.7432 10.8441,2.5835 1.2893,0.8404 3.5018,4.0566 4.9167,7.1471 6.959,15.2006 -0.5714,41.2465 -11.9108,41.1967 -1.8425,-0.01 -8.75,-1.8272 -15.35,-4.0424 z m -899.8752,-12.412 c -2.1314,-0.7597 -4.1882,-1.7525 -4.5708,-2.2061 -0.3826,-0.4536 -2.9057,-3.5248 -5.6069,-6.8248 -5.7079,-6.9731 -20.4808,-23.705 -46.2403,-52.3721 -18.7414,-20.8569 -24.1809,-28.4015 -24.1974,-33.5622 -0.012,-3.8651 3.2607,-10.4922 6.9077,-13.9863 l 2.9222,-2.7996 18.2183,7.2706 c 10.02,3.9988 20.6477,8.9038 23.6171,10.8998 9.3301,6.2718 25.1958,26.8085 47.858,61.9481 l 11.8654,18.3983 -6.1777,5.8066 c -4.5038,4.2333 -7.5874,6.2253 -11.3805,7.3517 -6.2719,1.8626 -8.1723,1.8735 -13.2151,0.076 z m 650.5192,-5.5866 c -49.2104,-0.9465 -47.9113,-0.7499 -50.8125,-7.6934 -0.9942,-2.3793 -1.5572,-7.4609 -1.6665,-15.0396 l -0.165,-11.4461 3.6028,-2.9383 3.6028,-2.9384 44.3972,-0.9961 c 24.4185,-0.5478 49.5248,-0.8603 55.7919,-0.6942 10.8296,0.2868 11.4862,0.4258 13.2405,2.8018 2.9158,3.9491 4.0409,12.3187 3.3071,24.5997 -0.6613,11.0665 -0.6725,11.1051 -3.7497,12.9228 -4.001,2.3635 -10.9665,2.5101 -67.5486,1.4218 z m -532.2861,-8.8954 -11.6421,-0.5489 -6.7663,-7.5 c -8.2585,-9.154 -23.5551,-28.2277 -23.046,-28.7368 0.2035,-0.2035 17.466,-0.8392 38.3612,-1.4128 48.65,-1.3354 52.1173,-0.7517 54.3508,9.1496 0.7166,3.1768 0.6564,7.537 -0.205,14.8284 -1.0156,8.5974 -1.5712,10.5571 -3.3153,11.6934 -4.8975,3.1909 -18.445,3.908 -47.7373,2.5271 z m 385.4081,-47.5908 c 0.6555,-17.959 0.9873,-18.8186 9.2491,-23.9581 5.607,-3.488 -1.5957,-3.2629 77.4849,-2.4221 32.7884,0.3486 49.1479,0.8757 50.5,1.6271 3.1391,1.7443 6.2657,5.4899 7.9523,9.5265 1.7279,4.1356 2.1087,17.1629 0.6163,21.0881 l -0.9314,2.4499 -26.8186,0.5948 c -65.0921,1.4436 -102.6465,3.4706 -115.7234,6.2461 l -2.9048,0.6165 0.5756,-15.7688 z m 157.2307,2.4571 c 2.1502,-2.9784 8.6859,-11.7152 14.5239,-19.4152 5.8379,-7.7 13.4937,-18.2325 17.0128,-23.4056 8.5156,-12.518 15.0425,-19.5075 20.1096,-21.5349 5.3605,-2.1449 8.72,-1.3415 12.9556,3.0981 1.8708,1.9608 5.6937,5.2773 8.4954,7.3701 2.8017,2.0927 5.673,5.2025 6.3805,6.9107 1.1567,2.7926 1.0282,3.6038 -1.2748,8.0426 -2.4661,4.7533 -23.3896,31.4031 -30.7948,39.2227 -3.4951,3.6906 -3.7899,3.7963 -10.5903,3.7963 -3.8473,0 -14.5849,0.2993 -23.8613,0.6652 l -16.8661,0.6652 3.9095,-5.4152 z m 89.8452,0.6117 c -3.4122,-2.39 -5.3395,-8.9336 -6.8474,-23.2484 -1.4007,-13.297 -1.3918,-13.4984 0.7243,-16.3605 2.4441,-3.3058 1.7121,-3.0215 16.2812,-6.3235 36.7573,-8.3308 76.7501,-16.5945 80.3107,-16.5945 2.2819,0 5.9292,0.7124 8.1052,1.583 3.9127,1.5656 3.981,1.6846 6.1734,10.75 2.9112,12.0374 3.6496,25.9629 1.6326,30.7901 -1.1693,2.7986 -2.2318,3.7314 -4.8592,4.2658 -1.8495,0.3762 -20.2377,3.5901 -40.8627,7.1419 -20.625,3.5518 -39.975,7.1301 -43,7.9517 -7.0545,1.916 -14.9577,1.9358 -17.6581,0.044 z M 1144.7089,1083.81 c -13.5992,-15.4814 -39.1501,-45.9385 -55.8963,-66.6291 -7.7638,-9.5926 -16.533,-16.7425 -23.75,-19.3646 -2.6125,-0.9492 -4.75,-2.0185 -4.75,-2.3764 0,-1.7189 13.9232,-13.3714 20.7571,-17.3718 8.8865,-5.202 14.6542,-5.8662 21.9971,-2.5332 5.31,2.4103 8.1553,5.4045 14.7531,15.5251 5.4417,8.3472 43.2589,57.9473 51.4648,67.5 12.6389,14.7132 13.9351,22.5625 5.3036,32.1166 -2.9437,3.2584 -12.7254,9.8834 -14.5925,9.8834 -0.3153,0 -7.1944,-7.5375 -15.2869,-16.75 z m -209.45622,-29.1462 c -17.29203,-8.7429 -36.60202,-17.7803 -42.91108,-20.0831 -13.88246,-5.0671 -12.7805,-4.496 -27.34587,-14.1712 -6.4993,-4.3172 -12.25279,-7.8495 -12.78554,-7.8495 -2.26879,0 -5.21989,-9.4943 -5.28406,-17 -0.0553,-6.47 0.38733,-8.4613 3.22318,-14.5 1.80801,-3.85 5.98446,-11.1655 9.281,-16.2568 8.60333,-13.287 11.42148,-20.0548 14.46737,-34.7432 4.67969,-22.5673 5.26316,-22.7801 5.34448,-1.9499 0.0877,22.4597 1.7369,44.2295 3.56474,47.0549 2.64711,4.0917 13.21301,9.8885 56.87346,31.2027 24.27274,11.8495 45.12327,22.5903 46.33451,23.8684 1.21124,1.2781 2.56124,2.3382 3,2.3557 0.43876,0.017 1.65202,0.6784 2.69613,1.4687 1.36816,1.0356 1.61175,1.7949 0.87215,2.7182 -0.56444,0.7047 -2.88354,6.4563 -5.15357,12.7813 -2.27003,6.325 -4.95387,12.625 -5.96409,14 -2.80017,3.8113 -8.0892,7 -11.6107,7 -2.09824,0 -13.73947,-5.348 -34.60211,-15.8962 z m 109.31412,-5.606 c -8.1148,-4.1262 -29.8759,-14.8586 -48.35807,-23.8498 -37.98838,-18.4805 -35.51531,-16.3771 -33.93244,-28.8614 1.60631,-12.6694 6.11521,-22.7247 10.8661,-24.2326 1.1162,-0.3542 13.70744,4.3497 32.25071,12.0485 16.7307,6.9463 38.0695,15.7445 47.4195,19.5516 19.9467,8.1217 24.114,10.7224 26.7588,16.6995 1.6495,3.7276 1.7658,4.9917 0.809,8.7916 -1.926,7.6486 -8.9059,22.7547 -11.6,25.1048 -4.3413,3.787 -7.9953,2.9944 -24.2136,-5.2522 z m 843.8424,-17.7478 c -6.7035,-17.664 -0.9134,-34.3467 15.8674,-45.7173 13.6763,-9.267 20.4898,-10.5681 50.8969,-9.7187 21.1384,0.5904 30.0003,1.8129 41.9364,5.7849 7.3165,2.4348 19.585,10.2947 24.1056,15.4433 2.7601,3.1436 3.0947,4.2037 3.0751,9.7426 -0.036,10.3219 -6.1119,20.6652 -14.5326,24.7416 -5.9922,2.9008 -8.8371,2.2533 -19.9323,-4.537 -16.7073,-10.2249 -29.9795,-14.2235 -41.2806,-12.4371 -6.2075,0.9813 -9.5495,3.1604 -14.0099,9.1348 l -3.2774,4.3899 -17.2226,2.7354 c -21.4364,3.4047 -24.4802,3.4567 -25.626,0.4376 z m -880.0966,-58.8242 c -4.125,-1.653 -17.39998,-6.4061 -29.49998,-10.5624 -12.1,-4.1563 -25.6,-9.4259 -30,-11.7102 l -8,-4.1532 -0.62579,-7 c -0.34418,-3.85 -0.68098,-12.4 -0.74845,-19 -0.21653,-21.185 3.02521,-23.3713 21.69791,-14.6337 5.87198,2.7477 22.15133,9.7681 36.17633,15.6008 37.23748,15.4866 37.68048,15.7162 38.90878,20.1649 0.6889,2.4948 0.697,5.2052 0.025,8.2876 -1.3047,5.9834 -9.7418,22.8327 -12.3468,24.6573 -3.0426,2.1311 -7.2642,1.6839 -15.5868,-1.6511 z m 421.9161,-11.9286 c -7.4712,-0.423 -19.52,-1.5554 -26.7752,-2.5163 -12.5973,-1.6684 -13.1639,-1.8424 -12.5851,-3.864 1.2424,-4.3395 9.4686,-21.1837 28.6267,-58.6169 10.8372,-21.17503 20.0091,-39.76026 20.3819,-41.30054 l 0.6778,-2.8005 -5.3711,0.63233 c -2.9541,0.34778 -10.4799,1.52418 -16.724,2.61421 -6.2442,1.09004 -11.4821,1.84072 -11.6399,1.66818 -0.3021,-0.33042 16.4881,-27.64913 37.7493,-61.42027 11.7789,-18.70953 25.7384,-42.91903 25.742,-44.64344 0,-1.28233 -8.9168,-0.80133 -23.4697,1.26564 -16.1804,2.29814 -17.5288,2.36624 -17.5288,0.88524 0,-3.34346 19.0663,-32.79248 46.8749,-72.40088 9.6536,-13.75 22.4218,-32.19349 28.3737,-40.98554 l 10.8215,-15.98553 -2.785,-0.8342 c -1.5318,-0.4588 -9.6562,-1.14031 -18.0542,-1.51446 l -15.2691,-0.68027 9.8276,-16.5 c 5.4052,-9.075 20.188,-33.15 32.8506,-53.5 22.539,-36.22232 39.36,-64.00039 39.36,-64.99879 0,-0.27566 -4.3875,-0.51453 -9.75,-0.53081 -5.3625,-0.0163 -16.05,-0.68193 -23.75,-1.47923 -7.7,-0.79729 -15.0185,-1.45897 -16.2634,-1.4704 -2.178,-0.02 -2.2097,-0.14342 -0.8401,-3.27077 0.7828,-1.7875 3.9308,-8.99567 6.9956,-16.01815 3.0648,-7.02248 11.2607,-27.94748 18.2132,-46.5 6.9525,-18.55252 13.2605,-34.947 14.0178,-36.43219 0.7573,-1.48519 1.3769,-3.12782 1.3769,-3.65028 0,-0.52247 -3.2625,-0.0999 -7.25,0.93904 -10.9749,2.85951 -27.3701,5.91158 -31.7559,5.91158 l -3.9045,0 2.3533,-6.25 c 7.6836,-20.40658 29.3377,-66.91184 39.1923,-84.1711 6.4826,-11.3535 12.0569,-18.5789 14.3333,-18.5789 5.8784,0 49.3534,21.01369 64.9328,31.38526 24.6198,16.39009 47.9363,48.50303 56.7173,78.11474 3.6749,12.39253 3.9147,26.67609 0.5708,34 -3.4396,7.53365 -6.8088,11.91736 -10.9531,14.25126 -9.134,5.14382 -11.3622,10.10289 -16.6744,37.10953 -3.9198,19.92774 -6.7346,43.42987 -9.0593,75.63921 -0.8734,12.1 -3.3476,40 -5.4984,62 -7.6618,78.37296 -10.8353,140.3747 -9.0916,177.62976 1.8136,38.74752 3.1631,46.40458 10.1197,57.42138 8.0311,12.71835 7.9472,17.26738 -0.6355,34.44886 -5.0188,10.04703 -6.8281,12.57433 -14.3207,20.00293 -12.7695,12.6606 -28.1356,23.7323 -43.4191,31.2847 -15.5092,7.6639 -47.4354,20.5063 -60.0638,24.1609 -27.1963,7.8704 -63.3159,11.4379 -96.6771,9.5487 z m -519.41608,-5.9331 c -7.94132,-0.35 -13.90862,-1.0891 -15.33501,-1.8992 -5.64896,-3.2085 -7.29196,-13.3609 -5.20537,-32.1649 0.51876,-4.675 1.87276,-22.9 3.00888,-40.5 3.19921,-49.56006 3.73301,-55.03788 5.8226,-59.75097 3.05074,-6.88094 3.94035,-7.24978 16.58596,-6.87668 6.11762,0.1805 11.89203,0.73903 12.83202,1.24119 0.94,0.50215 2.59494,2.91562 3.67765,5.36327 1.91475,4.32862 1.9446,5.8933 1.09188,57.23672 -0.6812,41.01567 -1.2303,54.66727 -2.4625,61.22107 -1.62599,8.6483 -4.77394,17.2071 -6.20988,16.8839 -0.44343,-0.1 -6.65623,-0.4393 -13.80623,-0.7544 z m 454.99998,0.2172 c -16.6718,-2.3285 -55.8045,-16.087 -82.5,-29.0059 -10.5968,-5.1282 -12.2896,-6.3589 -21.5543,-15.6704 -10.802,-10.8565 -22.129,-26.7507 -30.0911,-42.22417 -3.9262,-7.63016 -4.3928,-9.20246 -3.7957,-12.79023 0.9519,-5.7198 3.8428,-11.03038 10.1199,-18.59063 11.7182,-14.11343 15.3465,-29.22232 16.8101,-70 0.3257,-9.075 1.0318,-24.375 1.5691,-34 0.5372,-9.625 2.0983,-45.4 3.4691,-79.5 1.3707,-34.1 2.9666,-71.9 3.5464,-84 1.4525,-30.31568 0.7337,-44.98687 -5.5857,-114 -3.6283,-39.62308 -2.71,-36.5232 -14.5489,-49.11415 -11.5356,-12.26831 -12.9461,-15.30708 -11.0463,-23.79662 1.5257,-6.81742 8.0931,-20.40704 11.2285,-23.23452 1.3084,-1.17991 8.0039,-6.31892 14.8789,-11.42003 6.875,-5.10111 22.0264,-16.61623 33.6698,-25.58916 26.2181,-20.20497 38.8779,-28.523 56.8302,-37.33999 21.7235,-10.6691 44.1425,-17.76039 68,-21.50889 12.2685,-1.92761 42.5505,-3.03501 55.7869,-2.04009 9.4074,0.70711 9.7619,0.81914 9.1415,2.88954 -0.3549,1.18465 -4.9247,13.40391 -10.1551,27.15391 -5.2303,13.75 -15.9279,41.875 -23.7723,62.5 -14.7327,38.73591 -21.4828,57.22861 -24.5916,67.37155 l -1.7996,5.87155 4.9936,-0.66243 c 2.7465,-0.36433 12.0593,-3.09054 20.6951,-6.05823 14.3676,-4.9374 18.0532,-6.04297 26.5871,-7.97525 2.7545,-0.62367 2.8591,-0.52079 2.3023,2.26346 -0.3209,1.60426 -7.6289,19.29065 -16.2402,39.30309 -16.2018,37.65288 -28.8378,68.82943 -28.1683,69.49899 0.2115,0.21144 7.8087,-0.71025 16.8828,-2.0482 9.074,-1.33796 20.451,-2.75337 25.282,-3.14535 l 8.7838,-0.71271 -0.7166,2.39676 c -1.0236,3.42399 -11.8027,23.8484 -35.3051,66.89677 -20.4119,37.38757 -38.2063,71.07806 -38.2063,72.3367 0,1.33422 3.9913,0.58097 17.1039,-3.22792 7.3679,-2.14018 14.6249,-4.17156 16.1268,-4.5142 4.2856,-0.97771 5.7587,-3.84491 -29.2382,56.90542 -34.5923,60.04779 -49.526,88.47774 -46.9338,89.34973 0.5719,0.19236 10.7271,-2.43562 22.5672,-5.83995 11.8402,-3.40433 21.759,-5.95827 22.0418,-5.67542 0.2828,0.28284 -7.7634,16.86082 -17.8806,36.83995 -19.9173,39.33227 -28.4625,57.48352 -27.5104,58.43572 0.5336,0.5336 18.6426,-1.48988 28.9733,-3.23738 3.3931,-0.57396 3.75,-0.42408 3.75,1.57481 0,3.88167 -16.2949,51.34087 -25.5115,74.30257 -0.3864,0.9625 -1.2168,1.6826 -1.8455,1.6002 -0.6286,-0.082 -2.493,-0.3384 -4.143,-0.5689 z M 950.39957,877.58411 c -9.84522,-1.56595 -10.92891,-6.89531 -9.25709,-45.52414 0.61889,-14.3 1.55012,-38.375 2.06939,-53.5 0.51927,-15.125 1.45392,-29.1998 2.07699,-31.27733 1.64772,-5.49405 6.45129,-10.49028 11.36511,-11.82094 6.46599,-1.75099 24.18113,-0.68756 29.65865,1.78039 8.67487,3.90855 8.28694,1.82268 7.0625,37.97453 -2.86567,84.60993 -3.32809,90.70781 -7.41656,97.80239 l -2.14594,3.72376 -13,0.44011 c -7.15,0.24206 -13.675,0.58929 -14.5,0.77163 -0.825,0.18234 -3.48587,0.0157 -5.91305,-0.3704 z m -96.39491,-8.37228 c -8.20521,-1.85527 -10.9328,-4.83227 -11.49041,-12.54108 -0.23781,-3.28778 0.28982,-25.47021 1.17253,-49.29428 2.87032,-77.46896 2.50565,-73.89631 8.11544,-79.5061 l 3.3104,-3.3104 11.85,0.0245 c 13.53463,0.0279 19.87761,1.18416 23.1,4.21084 2.04498,1.92077 2.24979,3.03143 2.24773,12.18902 -0.006,25.6107 -5.37882,120.55072 -6.99316,123.56716 -2.46875,4.6129 -19.98955,7.2206 -31.31253,4.66039 z M 919.18364,750.5476 c -0.89594,-0.52336 -6.36878,-5.57218 -12.16187,-11.2196 -8.16245,-7.9572 -10.80689,-11.20279 -11.75041,-14.42157 -1.62723,-5.55127 -0.58511,-10.29573 3.31605,-15.09704 3.90611,-4.80741 32.18189,-36.52502 49.58422,-55.61981 6.95254,-7.62871 15.2255,-17.52871 18.38435,-22 3.15885,-4.47129 7.3184,-10.00262 9.24344,-12.29186 l 3.50008,-4.16225 -6.48812,2.50741 c -6.46486,2.49842 -6.49977,2.5006 -9.74004,0.60818 -4.43896,-2.59249 -7.32629,-7.19766 -10.18344,-16.24212 -4.84558,-15.33899 -5.18063,-23.42375 -1.22116,-29.46667 0.96527,-1.47319 4.3201,-3.40868 8.85022,-5.10591 11.99337,-4.49339 34.56254,-13.89703 65.10854,-27.12805 15.8471,-6.86417 31.1604,-12.97271 34.0296,-13.57453 12.0334,-2.52403 16.8818,5.32389 19.7685,31.99875 l 1.22,11.27255 -2.8033,2.92598 c -3.7641,3.92887 -13.9045,9.13805 -27.1297,13.9366 -5.9939,2.1748 -15.173,5.71891 -20.398,7.87579 -5.225,2.15688 -16.3771,6.3486 -24.7825,9.31493 -12.73194,4.49321 -14.9016,5.53933 -13.00001,6.26809 18.16241,6.96058 29.83471,17.24069 32.24301,28.39736 1.133,5.24895 -2.2315,10.4767 -16.5636,25.73614 -25.59616,27.2523 -63.27884,68.68317 -68.69118,75.52367 -7.26242,9.17877 -15.10241,13.02035 -20.33468,9.96396 z m 92.34276,-13.11082 c -5.2347,-2.59113 -8.9383,-7.77213 -13.59165,-19.01346 -5.95021,-14.37418 -5.8135,-23.0002 0.44802,-28.26892 3.51663,-2.95907 92.65603,-32.59658 98.02153,-32.59069 5.0517,0.006 9.6797,3.21569 10.378,7.19856 1.5211,8.67547 2.4892,13.0435 4.9107,22.15718 2.9756,11.19914 3.1861,14.36642 1.2576,18.92264 -2.0347,4.80732 -4.2525,6.16715 -14.138,8.6684 -4.95,1.25247 -20.25,6.02317 -34,10.60155 -23.4412,7.80529 -45.4792,14.44893 -47.9234,14.44714 -0.5921,-4.3e-4 -3.0054,-0.95551 -5.3628,-2.1224 z m 224.6593,-18.33708 c -0.2532,-0.25316 -10.042,-1.15661 -21.7531,-2.00769 -24.2909,-1.7653 -32.4108,-3.31399 -39.9495,-7.61954 -4.3,-2.45581 -5.7845,-4.03427 -7.736,-8.22573 -3.7358,-8.02373 -3.3279,-20.36739 1.2417,-37.57748 1.6489,-6.21023 1.8398,-6.45541 6.7603,-8.68168 7.2744,-3.29128 17.877,-4.40261 44.6659,-4.68171 l 23.6024,-0.2459 -0.3794,19 c -0.6529,32.69063 -3.2968,53.19526 -6.4523,50.03973 z m 414.6937,-37.71971 c 0.8545,-22.84069 2.2661,-36.97321 4.2803,-42.85371 1.7109,-4.995 2.1215,-5.45499 4.7626,-5.33505 1.5897,0.0722 14.5903,0.65428 28.8903,1.29353 37.368,1.67047 40.3906,2.35423 45,10.17974 2.9419,4.99453 2.755,21.3761 -0.3709,32.51684 -2.057,7.33089 -2.664,8.37357 -6.2364,10.71248 -3.6573,2.39453 -5.4535,2.70381 -23.6751,4.0764 -10.8447,0.8169 -24.8926,1.74776 -31.2176,2.06859 -6.325,0.32083 -13.8555,0.82584 -16.7345,1.12226 l -5.2345,0.53894 0.5358,-14.32002 z m -524.5668,-39.86412 c -35.4048,-0.68349 -40.9615,-1.29905 -48.9314,-5.42044 -4.0577,-2.09832 -7.8821,-7.02468 -8.6561,-11.15017 -1.0308,-5.49458 0.1997,-23.29029 2.0112,-29.08787 2.3263,-7.44483 5.6687,-10.95741 12.4129,-13.04465 5.1586,-1.59653 10.3432,-1.72165 58.1634,-1.40367 l 52.5,0.3491 4.6772,2.52022 c 2.5725,1.38612 5.9204,3.81771 7.4397,5.40354 l 2.7624,2.88332 -0.2306,14.24736 c -0.3626,22.40281 -2.2668,30.01944 -8.4472,33.78784 -3.5954,2.19224 -6.0091,2.22222 -73.7015,0.91542 z M 1707.715,629.0643 c -3.0784,-1.40812 -6.4183,-3.99921 -8.4315,-6.54115 l -3.3339,-4.20935 1.022,-18.12691 c 1.1431,-20.27438 2.5271,-24.88072 8.6314,-28.72863 3.0652,-1.93224 4.2441,-1.99413 26.2096,-1.37605 12.65,0.35595 36.95,0.99023 54,1.4095 27.9843,0.68815 31.5837,0.97052 37,2.90264 7.1737,2.55901 11.8944,7.20577 13.5475,13.33527 2.0594,7.63592 -0.6438,29.51288 -4.3446,35.16103 -0.8676,1.32422 -4.0739,3.81654 -7.1251,5.53849 l -5.5475,3.13083 -53.2651,-0.0819 -53.2652,-0.0819 -5.0976,-2.3318 z m -487.9024,-50.61608 c -28.6993,-1.36283 -39.1009,-2.47525 -42.7561,-4.57265 -5.2762,-3.02752 -7.7452,-9.17922 -7.7369,-19.27749 0.01,-8.93669 2.9554,-23.80556 5.4856,-27.66708 2.5983,-3.96558 9.5603,-5.38254 31.5074,-6.41263 11.275,-0.52919 25.6508,-1.45265 31.9463,-2.05213 13.3675,-1.27292 13.498,-1.20247 14.6359,7.9054 1.172,9.38028 -0.2434,37.84388 -2.272,45.68833 l -1.8102,7 -5.5,0.1215 c -3.025,0.0668 -13.6,-0.26314 -23.5,-0.73325 z m 442.5158,-31.55391 c 0.019,-19.07713 1.3878,-36.81741 3.5864,-46.48381 l 1.6217,-7.12999 9.6381,0.67133 c 23.7788,1.65631 44.3485,4.55787 49.7088,7.01192 6.3589,2.91116 10.704,8.40471 12.4698,15.76547 1.6068,6.69785 0.6771,23.23844 -1.7892,31.83074 -1.6898,5.8873 -2.2451,6.68852 -5.8918,8.5 -8.3506,4.14821 -9.6138,4.30737 -39.6096,4.99082 l -29.75,0.67785 0.016,-15.83433 z m 140.2956,6.77615 c -3.1562,-1.986 -5.293,-6.75018 -5.3058,-11.8292 0,-1.2203 -1.4059,-7.23491 -3.1174,-13.36582 -2.3844,-8.54151 -3.0116,-12.53284 -2.683,-17.07557 0.6126,-8.4688 2.6366,-10.16886 16.4077,-13.78187 6.0585,-1.58952 24.0366,-7.15012 39.9513,-12.35689 36.9657,-12.09399 38.1766,-12.39497 43.4781,-10.80662 2.2841,0.68434 6.1176,3.05518 8.5188,5.26852 8.4441,7.78355 14.0837,29.60704 10.1051,39.10361 -2.0076,4.7919 -1.9513,4.76811 -44.2823,18.69627 -18.6361,6.13186 -37.3358,12.46558 -41.5549,14.07494 -10.5566,4.02682 -17.3692,4.68303 -21.5176,2.07263 z m 218.9363,-66.93541 c -9.1116,-3.24284 -9.1622,-3.3511 -8.6476,-18.51072 1.1412,-33.61884 2.7308,-67.47377 4.3456,-92.55038 1.7223,-26.74562 1.8195,-27.42881 4.1589,-29.21578 3.6086,-2.75647 12.349,-4.20505 22.0427,-3.65324 10.8523,0.61775 15.6175,2.7491 18.2632,8.16858 1.8895,3.87066 1.8804,4.56621 -0.8313,63.5 -1.508,32.77255 -3.0427,61.61146 -3.4105,64.08646 -0.621,4.17917 -1.0252,4.67686 -5.6687,6.98067 -6.836,3.39156 -22.3571,4.00436 -30.2523,1.19441 z M 1920.4395,476.1092 c -2.4052,-0.77601 -5.6451,-2.62955 -7.1997,-4.11898 -2.7968,-2.67951 -2.8216,-2.80937 -2.354,-12.31915 0.793,-16.1259 3.3402,-76.54529 4.0098,-95.1111 0.5623,-15.59151 0.8935,-18.06872 3.0367,-22.71487 2.1302,-4.61779 2.8908,-5.34555 6.643,-6.35625 5.9618,-1.6059 30.3,-0.80526 34.2373,1.12629 5.3079,2.60393 5.8009,6.072 5.039,35.44483 -2.3787,91.70766 -2.1378,86.57169 -4.3881,93.55761 -1.1912,3.69782 -3.2455,7.62274 -4.7107,9 -2.4639,2.31598 -3.3059,2.4543 -16.2693,2.67247 -9.5944,0.16147 -14.9749,-0.19064 -18.044,-1.18085 z m 57.2076,-77.54913 c -1.191,-0.48022 -3.3196,-3.17093 -4.7302,-5.97935 -2.1566,-4.29369 -2.4791,-6.01441 -2.027,-10.81349 0.2957,-3.13899 0.9316,-27.53226 1.4132,-54.20726 0.8983,-49.76206 1.5096,-57.07046 5.5918,-66.84835 l 1.3978,-3.34836 13.26,0.37424 c 23.1561,0.65354 25.1665,3.79601 22.3098,34.87143 -1.4987,16.30372 -3.6505,46.61087 -5.4988,77.45104 -1.0045,16.76008 -2.4866,23.20578 -6.2592,27.22153 -1.9747,2.102 -2.9596,2.27356 -12.7162,2.21508 -5.8166,-0.0349 -11.5502,-0.45629 -12.7412,-0.93651 z m -27.3892,-88.45059 c -1.955,-0.72026 -5.537,-2.3209 -7.9599,-3.55697 -2.4229,-1.23608 -16.9487,-7.37769 -32.2795,-13.64804 -34.4207,-14.0782 -39.4508,-16.5578 -40.8311,-20.12778 -1.8545,-4.79642 -0.4238,-11.58661 4.6859,-22.24039 5.0109,-10.44789 7.4829,-12.97633 12.6865,-12.97633 4.4133,0 61.9396,20.39974 70.8615,25.12865 6.0078,3.18431 6.4067,3.62101 7.1905,7.87135 0.4564,2.475 0.9093,11.025 1.0065,19 0.1431,11.74319 -0.1446,15.21297 -1.5135,18.25 -1.5829,3.512 -1.9631,3.74553 -5.9912,3.67954 -2.3655,-0.0388 -5.9006,-0.65977 -7.8557,-1.38003 z m 75.117,-30.04951 c -0.043,-13.2 -0.5247,-28.05 -1.0697,-33 -0.9491,-8.61931 -1.1496,-9.14328 -4.7418,-12.38729 -2.3187,-2.09402 -22.1729,-12.50252 -52.0008,-27.26137 -26.5375,-13.13074 -48.25,-24.24809 -48.25,-24.70523 0,-0.45714 -1.5973,-1.68953 -3.5495,-2.73864 -2.3014,-1.2368 -3.3728,-2.43487 -3.047,-3.40747 2.8164,-8.40969 7.8787,-21.63284 9.4936,-24.79822 5.2672,-10.32463 13.0424,-11.92134 25.3012,-5.19583 17.4238,9.55923 55.3323,27.93612 63.932,30.99231 12.2359,4.3484 17.7543,7.11566 26.8949,13.48669 4.1389,2.8848 9.3605,6.18132 11.6035,7.32562 5.412,2.76102 8.3713,9.33163 8.3713,18.5873 0,8.29056 -2.4053,14.79585 -9.7085,26.25771 -11.9349,18.73075 -14.1086,23.7809 -17.8548,41.48087 -4.8313,22.82721 -5.2857,22.43516 -5.3744,-4.63645 z m -124.5623,-51.43773 c -15.95,-6.48003 -35.975,-14.5897 -44.5,-18.0215 -8.525,-3.4318 -18.1288,-7.62964 -21.3419,-9.32852 -6.4753,-3.42378 -10.6581,-8.5453 -10.6581,-13.05004 0,-6.62997 5.9742,-23.72552 9.7905,-28.01624 0.9402,-1.0571 3.1317,-2.52408 4.8699,-3.25994 2.9605,-1.25335 3.814,-1.05532 13.4999,3.13201 5.6869,2.45848 28.4221,13.36016 50.5229,24.22596 l 40.1832,19.756 0.067,7.14466 c 0.042,4.52493 -0.6765,9.55121 -1.9604,13.70789 -2.0958,6.78544 -7.4739,15.00532 -10.0202,15.31494 -0.7989,0.0971 -14.5026,-5.1252 -30.4526,-11.60522 z m -98,9.05889 c -5.3214,-2.44107 -8.5742,-5.85892 -15.8188,-16.62116 -6.6538,-9.88449 -41.9941,-56.13586 -51.7388,-67.71259 -3.3737,-4.00808 -6.991,-8.95698 -8.0382,-10.99757 -2.2292,-4.34344 -2.4579,-10.53146 -0.5571,-15.07196 1.7035,-4.06892 8.1491,-9.92216 14.4331,-13.10649 l 4.852,-2.4587 9.2717,10.66684 c 5.0994,5.86676 21.4932,25.5199 36.4305,43.67365 14.9373,18.15375 29.6353,35.40094 32.6622,38.32709 3.3108,3.20061 8.5853,6.82622 13.2389,9.10017 l 7.7355,3.77991 -3.2355,3.56281 c -5.1354,5.65489 -14.6489,12.78074 -21.2026,15.88119 -7.0201,3.32109 -12.2991,3.60705 -18.0329,0.97681 z m -878.61759,-3.58228 c -13.73392,-2.55731 -18.91823,-3.97369 -23.5176,-6.42513 -8.97902,-4.78577 -17.31624,-11.75332 -19.0613,-15.92982 -4.88764,-11.69777 7.572,-32.18393 19.57421,-32.18393 3.18529,0 9.27036,2.60521 14.21222,6.08469 5.01757,3.5328 18.53567,9.76353 24.58201,11.3303 8.188,2.12172 16.81927,1.99926 21.90549,-0.31079 2.42118,-1.09966 5.67077,-3.91684 8,-6.93551 3.01672,-3.90964 4.73085,-5.22013 7.42258,-5.67471 1.925,-0.3251 8.45,-1.47337 14.5,-2.55171 6.05,-1.07834 14.04868,-1.95649 17.77478,-1.95144 6.4579,0.009 6.8253,0.13777 7.8573,2.75917 0.5954,1.5125 1.3058,6.575 1.5787,11.25 0.6184,10.59593 -1.6935,17.53997 -8.2775,24.86303 -16.36389,18.20054 -45.07013,23.39973 -86.55089,15.67585 z m 171.07909,-57.31423 c -4.5966,-2.35753 -18.5684,-13.75797 -19.3467,-15.78602 -1.1407,-2.97269 -0.6023,-5.91825 1.873,-10.24801 2.2805,-3.98896 20.4762,-27.03069 29.2256,-37.00921 l 3.7866,-4.31859 23.8704,-0.59069 c 23.2831,-0.57616 23.8446,-0.54372 22.8175,1.31859 -0.5791,1.0501 -5.5694,7.75928 -11.0894,14.90928 -5.5201,7.15 -14.1894,19.075 -19.2652,26.5 -10.3967,15.20858 -17.8073,23.63406 -22.5512,25.6396 -4.1685,1.76231 -5.1618,1.71809 -9.3206,-0.41495 z M 969.77836,174.6822 c -6.15349,-1.58465 -6.75482,-2.42468 -9.14538,-12.77544 -1.25079,-5.41573 -2.56654,-12.60888 -2.92388,-15.98476 -0.6859,-6.47987 0.8657,-15.5048 2.96521,-17.24725 0.65229,-0.54135 19.01539,-3.93486 40.80689,-7.54113 21.7915,-3.60628 42.8477,-7.23565 46.7915,-8.06526 13.5987,-2.86057 17.4286,-1.70488 20.8431,6.2894 1.9492,4.56353 4.1883,18.73691 4.194,26.54784 0,2.25332 -0.8297,5.01473 -2.0077,6.66915 -2.3334,3.27688 -4.0497,3.73743 -46.4895,12.47507 -14.85,3.05737 -30.14998,6.43515 -33.99998,7.50618 -8.39714,2.336 -16.88709,3.19419 -21.03426,2.1262 z m 913.23884,-10.718 c -1.5375,-0.83363 -7.9323,-3.50105 -14.2107,-5.92761 -14.0219,-5.41934 -23.9707,-10.41303 -28.1867,-14.14804 -6.2843,-5.56727 -21.7826,-26.23907 -37.9088,-50.56327 -9.0191,-13.60409 -16.3984,-25.35501 -16.3984,-26.11316 0,-2.0871 9.473,-10.51047 14.2681,-12.68718 4.6873,-2.12774 11.8257,-2.52544 16.4425,-0.91603 1.7811,0.62092 5.1838,3.76292 8.3387,7.69993 6.1946,7.73018 12.7027,15.13713 41.5168,47.25113 30.1379,33.58928 31.3758,35.45125 29.2192,43.94781 -0.9188,3.61988 -7.9377,13.11345 -9.6203,13.01215 -0.3657,-0.022 -1.9229,-0.7221 -3.4604,-1.55573 z m -701.9117,-22.55393 c -5.8083,-0.82946 -8.1243,-2.09886 -11.154,-6.11373 -4.3802,-5.80428 -5.7182,-14.56475 -3.5435,-23.20106 l 1.0954,-4.35013 11.1546,-0.58011 c 6.135,-0.31907 25.1046,-0.82705 42.1546,-1.12886 35.5491,-0.62926 61.1967,-1.97103 77,-4.0283 6.05,-0.78758 11.7551,-1.4356 12.6781,-1.44004 2.481,-0.0119 3.1908,8.29439 1.8366,21.49193 -1.0019,9.76416 -1.4313,11.31899 -3.8217,13.83928 -5.9713,6.29566 -3.191,6.03772 -65.7718,6.10205 -31.3933,0.0323 -59.1261,-0.23369 -61.6283,-0.59103 z m 601.2071,0.029 c -3.3151,-1.31805 -7.2126,-5.08235 -12.8174,-12.3793 -9.1887,-11.96295 -43.7065,-54.15859 -49.4914,-60.5 -13.9807,-15.3255 -12.796,-22.51584 5.5576,-33.73138 4.6131,-2.81904 8.9428,-5.79458 9.6215,-6.61232 0.9384,-1.13072 1.9843,-1.2716 4.367,-0.58825 4.2023,1.20521 8.7414,5.7223 16.0094,15.93195 5.6959,8.00125 23.1613,30.65316 42.7924,55.5 4.78,6.05 9.4267,12.44015 10.3259,14.20034 3.7735,7.38627 1.4558,12.4337 -10.2235,22.26423 -8.6303,7.26411 -10.7728,8.04919 -16.1415,5.9147 z M 952.53052,119.0609 c -1.25515,-0.9126 -3.22298,-3.66092 -4.37296,-6.10738 -5.27692,-11.22618 -30.58831,-25.32163 -45.56161,-25.37243 -5.76141,-0.0195 -6.47353,-0.27796 -9.72427,-3.5287 -4.85304,-4.85304 -6.98153,-12.49815 -6.28973,-22.59141 0.62533,-9.12333 4.45688,-18.65137 9.05688,-22.52201 3.66167,-3.0811 5.20594,-2.89647 21.77848,2.60372 28.36244,9.41308 55.24084,25.9124 73.04583,44.83922 8.81629,9.37177 10.84946,13.12739 10.84946,20.04068 l 0,5.06032 -4.24998,1.14616 c -10.71559,2.88982 -30.81499,7.08269 -36.25,7.56199 -4.6274,0.40808 -6.52207,0.14953 -8.2821,-1.13016 z M 1022.6514,107.31 c -6.221,-4.50818 -15.8818,-13.10473 -17.5822,-15.64522 -2.5247,-3.7721 -2.1634,-7.24307 1.2434,-11.94608 1.65,-2.27776 3,-4.57238 3,-5.09915 0,-0.52677 1.4958,-2.09869 3.3241,-3.49315 4.2199,-3.21869 25.9852,-27.82458 39.6759,-44.854 15.2007,-18.90765 21.0283,-22.32011 36.7204,-21.50241 9.9905,0.52061 12.7678,2.19803 21.7145,13.11515 3.3358,4.07053 8.5937,10.2751 11.6842,13.78792 6.5172,7.40782 8.8809,11.60188 8.8809,15.75782 0,3.96886 -2.6119,4.55259 -20.5631,4.5955 -13.6279,0.0326 -14.1916,0.11846 -18.2159,2.77523 -2.284,1.50789 -12.1509,12.08289 -21.9264,23.5 -23.008,26.87187 -24.81,28.64713 -30.5436,30.09087 -7.5039,1.88952 -13.856,1.49463 -17.4122,-1.08248 z m 630.6612,-1.97614 c -6.6438,-2.41808 -8.3764,-10.43776 -5.8805,-27.219 1.1054,-7.43245 1.165,-7.5419 4.75,-8.72895 2.3298,-0.77142 13.1248,-1.33104 30.1305,-1.56196 l 26.5,-0.35985 9,10.18032 c 4.95,5.59918 12.0651,14.17076 15.8113,19.04795 l 6.8114,8.86763 -17.8994,0 c -9.8447,0 -28.6598,0.23574 -41.8113,0.52386 -17.981,0.39393 -24.7801,0.2079 -27.412,-0.75 z m -554.3451,-5.58991 c -3.4987,-3.89022 -4.5654,-9.17534 -4.611,-22.84506 l -0.044,-13.1611 3.25,-2.74241 3.25,-2.7424 53.7585,0.603 c 57.8458,0.64886 57.1141,0.57678 61.1516,6.02332 1.8135,2.44649 2.1331,4.51123 2.4167,15.61392 l 0.3267,12.79462 -3.6453,3.00475 -3.6452,3.00476 -35.1815,0.64251 c -19.3498,0.35338 -44.1815,0.91546 -55.1815,1.24908 -19.2993,0.58532 -20.0646,0.53469 -21.8451,-1.44499 z m 298.3066,-0.9593 c -1.9038,-0.97645 -6.9142,-4.58097 -11.1342,-8.01005 -13.0901,-10.63666 -12.867,-11.36223 13.3026,-43.26015 l 12.9164,-15.74358 16.2269,-0.68386 c 8.9247,-0.37613 19.8055,-0.53607 24.1795,-0.35544 l 7.9528,0.32843 -14.0153,18.5 c -7.7084,10.175 -16.8708,22.775 -20.3608,28 -8.9811,13.44565 -13.46,18.54593 -18.3761,20.9258 -5.2225,2.52816 -6.2873,2.55792 -10.6918,0.29885 z m -124.4615,-1.89674 c -7.0194,-1.54458 -6.9562,-1.44361 -10.9436,-17.4979 -4.1881,-16.86195 -4.1386,-20.40162 0.3477,-24.88796 4.1967,-4.19668 13.2317,-6.48414 51.1839,-12.95861 19.0234,-3.24531 36.5734,-6.3582 39,-6.91755 15.7764,-3.63655 19.9151,0.96048 22.3369,24.81038 1.1193,11.02212 1.0768,11.78511 -0.8209,14.74177 -2.3075,3.59529 -5.5359,4.47956 -48.604,13.31285 -13.475,2.76373 -28.9452,6.1599 -34.3782,7.54704 -9.404,2.401 -13.6485,2.8343 -18.1218,1.84998 z m 302.5,-32.39029 c -4.675,-0.414 -27.7916,-0.7783 -51.3703,-0.80955 -39.8746,-0.0529 -43.1239,-0.18768 -46.5,-1.92944 -7.4978,-3.86819 -11.3743,-14.40425 -9.3348,-25.37122 0.6227,-3.34829 1.3014,-6.25698 1.5081,-6.46378 0.2068,-0.20679 19.2358,-0.81794 42.2865,-1.35811 23.0508,-0.54017 49.1105,-1.47697 57.9105,-2.08177 11.4094,-0.78413 16.796,-0.79195 18.7742,-0.0273 1.5257,0.5898 6.0814,3.95675 10.1236,7.4821 4.0422,3.52535 8.5544,7.19919 10.027,8.16407 3.4686,2.27272 5.9007,7.02449 5.1421,10.0467 -0.9025,3.59602 -6.5588,9.50158 -11.0583,11.54566 -4.3319,1.96791 -11.8669,2.18776 -27.5086,0.8026 z m 70.5,-2.92451 c -2.2,-1.09192 -6.7183,-4.35407 -10.0407,-7.24921 -3.3225,-2.89515 -15.6675,-13.1389 -27.4334,-22.7639 -11.766,-9.625 -24.1226,-19.76108 -27.4593,-22.52462 -7.157,-5.92777 -10.93,-12.35305 -10.1717,-17.32201 0.6016,-3.94199 5.6707,-10.8858 15.2145,-20.841343 7.1811,-7.491011 11.1321,-9.346695 16.8464,-7.912493 1.3579,0.340809 12.6752,9.952835 25.1497,21.360056 21.2673,19.44779 26.1392,23.8265 42.2675,37.98864 11.6833,10.2591 11.4706,14.1511 -1.5692,28.71345 -11.7144,13.08211 -14.8147,14.51665 -22.8038,10.55143 z m -429.5,-8.08359 c -22.5571,-0.9882 -51.569,-2.8594 -55.8222,-3.6004 -3.9835,-0.69401 -5.1778,-3.16487 -5.1778,-10.71272 0,-10.31093 4.4785,-19.79355 10.8691,-23.01404 1.7403,-0.877 6.6932,-1.33292 14.6309,-1.34682 6.6,-0.0116 21.45,-0.75673 33,-1.65594 11.55,-0.89922 26.802,-2.07699 33.8932,-2.61727 17.0985,-1.30273 35.2724,-1.15401 39.6068,0.32411 2.6671,0.90951 4.124,2.38348 6.1218,6.19356 7.1288,13.59522 3.969,16.97636 -24.1881,25.88201 -9.9633,3.15124 -16.1244,5.71485 -19.4968,8.11255 -5.5586,3.95203 -3.0229,3.76737 -33.4369,2.43496 z m 548.3312,-9.17955 c -1.6836,-1.7875 -6.2727,-7.56564 -10.198,-12.84031 -3.9252,-5.27467 -8.3483,-10.14231 -9.829,-10.81698 -3.9243,-1.78803 -16.0808,-2.89701 -39.3042,-3.58554 -11.275,-0.33429 -23.6135,-1.08863 -27.4189,-1.67632 -6.4744,-0.99988 -7.3575,-1.46238 -13.7471,-7.19969 l -6.8282,-6.13116 0.4241,-14.80952 c 0.2716,-9.48622 0.8568,-15.330933 1.6279,-16.260099 0.6621,-0.797817 3.6823,-2.171092 6.7116,-3.051721 6.2652,-1.821337 14.1751,-1.559313 49.7306,1.647387 11.55,1.041676 26.85,2.203924 34,2.582772 l 13,0.688815 6,3.994203 c 11.887,7.913193 14.5,11.900963 14.5,22.129003 0,5.59705 -3.5376,24.60477 -7.1161,38.2349 -1.4982,5.70651 -4.49,10.34426 -6.673,10.34426 -1.0002,0 -3.1961,-1.4625 -4.8797,-3.25 z M 1323.8126,28.8095 c -2.2,-1.62096 -7.3293,-6.11625 -11.3985,-9.98953 -7.0573,-6.71757 -7.3716,-7.20783 -6.8161,-10.63122 0.3203,-1.97388 1.7371,-5.10284 3.1485,-6.95322 1.4114,-1.85039 2.5661,-3.63759 2.5661,-3.97157 0,-0.33397 3.2777,-3.89149 7.2838,-7.90561 4.0062,-4.01411 15.1874,-16.523383 24.8473,-27.798383 25.8481,-30.169972 31.0195,-34.442988 43.194,-35.690104 8.7269,-0.893958 13.3045,0.993998 20.6967,8.536096 9.3721,9.562107 22.2097,24.72904 24.0876,28.458102 5.1398,10.206633 3.742,11.112035 -17.2288,11.160104 -15.3593,0.03521 -15.684,0.08115 -19.5,2.759318 -2.1343,1.497935 -13.1106,13.422937 -24.3917,26.499997 -14.5683,16.88762 -21.6419,24.33009 -24.414,25.6872 -2.2707,1.11165 -6.8663,2.09374 -10.9889,2.34837 -6.6105,0.40829 -7.3544,0.23989 -11.086,-2.50955 z m 77.3785,-6.88154 c -3.7478,-4.31755 -4.3069,-6.87436 -4.6984,-21.48642 l -0.3917,-14.61842 3.6635,-2.79424 3.6634,-2.79424 53.5213,0.64592 c 57.4405,0.69322 56.7944,0.62943 60.7735,6.00044 1.7915,2.41819 2.1613,4.68151 2.5899,15.85009 l 0.5,13.02908 -3.7661,2.76689 -3.7661,2.76689 -32.2339,0.64095 c -17.7286,0.35252 -42.5839,0.91547 -55.2339,1.251 -21.6384,0.57394 -23.096,0.49947 -24.6215,-1.25794 z m 127.1024,-45.68621 c -0.2855,-0.304325 -14.9105,-1.255063 -32.5,-2.112753 -17.5895,-0.857689 -32.9741,-1.834047 -34.1881,-2.169684 -6.3706,-1.761303 -5.2839,-20.78591 1.6939,-29.655667 3.6288,-4.612605 5.6793,-5.190544 19.0133,-5.358836 11.1982,-0.141336 31.0473,-1.428307 67.7689,-4.393992 19.819,-1.600607 35.1014,-1.304126 39.2112,0.760703 4.4294,2.225403 7.7351,7.16624 8.5845,12.830793 0.8369,5.58038 -0.061,6.711433 -8.6372,10.885418 -3.6443,1.773568 -10.6313,5.697976 -15.5267,8.720907 -13.2566,8.186034 -18.6519,9.912517 -32.9007,10.528044 -6.6,0.285111 -12.2336,0.269391 -12.5191,-0.03493 z"
       style="fill:#000000;fill-opacity:1" />
  </g>
</svg>
