<?xml version="1.0" encoding="UTF-8" standalone="no"?>
<!-- Created with Inkscape (http://www.inkscape.org/) -->

<svg
   xmlns:dc="http://purl.org/dc/elements/1.1/"
   xmlns:cc="http://creativecommons.org/ns#"
   xmlns:rdf="http://www.w3.org/1999/02/22-rdf-syntax-ns#"
   xmlns:svg="http://www.w3.org/2000/svg"
   xmlns="http://www.w3.org/2000/svg"
   xmlns:sodipodi="http://sodipodi.sourceforge.net/DTD/sodipodi-0.dtd"
   xmlns:inkscape="http://www.inkscape.org/namespaces/inkscape"
   id="svg2"
   version="1.1"
   inkscape:version="0.48.2 r9819"
   width="624.71002"
   height="624.71002"
   sodipodi:docname="Breed-Obrimos.svg">
  <metadata
     id="metadata8">
    <rdf:RDF>
      <cc:Work
         rdf:about="">
        <dc:format>image/svg+xml</dc:format>
        <dc:type
           rdf:resource="http://purl.org/dc/dcmitype/StillImage" />
        <dc:title />
      </cc:Work>
    </rdf:RDF>
  </metadata>
  <defs
     id="defs6" />
  <sodipodi:namedview
     pagecolor="#ffffff"
     bordercolor="#666666"
     borderopacity="1"
     objecttolerance="10"
     gridtolerance="10"
     guidetolerance="10"
     inkscape:pageopacity="0"
     inkscape:pageshadow="2"
     inkscape:window-width="1606"
     inkscape:window-height="1029"
     id="namedview4"
     showgrid="false"
     fit-margin-top="0"
     fit-margin-left="0"
     fit-margin-right="0"
     fit-margin-bottom="0"
     inkscape:zoom="0.3776"
     inkscape:cx="-331.69326"
     inkscape:cy="289.84913"
     inkscape:window-x="70"
     inkscape:window-y="-4"
     inkscape:window-maximized="1"
     inkscape:current-layer="svg2" />
  <path
     inkscape:connector-curvature="0"
     id="path2989"
     d="m 287.60432,623.4696 c -8.3063,-2.30069 -20.13829,-12.09256 -26.72875,-22.12008 -1.44567,-2.19962 -4.05446,-8.27431 -5.7973,-13.49931 -2.96466,-8.888 -3.13675,-10.17643 -2.67129,-20 0.524,-11.05904 2.94625,-19.3027 11.16561,-38 13.02379,-29.62637 15.13813,-36.16024 16.07552,-49.67767 0.73613,-10.61517 0.86765,-10.43681 -9.0286,-12.24415 -16.03822,-2.92904 -34.8076,-11.98671 -72.29105,-34.88601 -10.65904,-6.51179 -16.3425,-8.27384 -28.68274,-8.89254 -5.5,-0.27576 -10.35529,-0.83378 -10.78954,-1.24004 -0.72427,-0.67761 20.95681,-27.78206 34.48284,-43.10848 12.6673,-14.35339 26.57119,-30.80751 29.3544,-34.73854 5.27492,-7.45036 6.52239,-5.43037 4.01312,6.49831 -2.4442,11.61929 -3.07291,30.78674 -1.2433,37.90414 4.03272,15.68776 17.52196,31.76907 33.29056,39.68764 4.89056,2.4559 12.86528,5.86749 17.7216,7.58131 7.93951,2.80189 9.99978,3.11603 20.43611,3.11603 12.95346,0 21.04474,-1.59249 31.11976,-6.12487 7.32948,-3.29726 19.02152,-13.27896 25.47198,-21.74587 8.94897,-11.74646 25.86968,-41.94142 31.49326,-56.19965 6.11008,-15.49173 11.13231,-42.45307 11.14579,-59.83513 l 0.003,-4.40553 -74.75,0.65329 c -41.1125,0.35931 -105.0125,0.94924 -142,1.31096 -75.32788,0.73666 -70.65402,1.20456 -63.93356,-6.40032 1.82446,-2.06408 9.11138,-10.95288 16.19358,-19.75288 7.0822,-8.8 15.15231,-18.73838 17.93357,-22.08528 2.78125,-3.3469 10.38631,-12.6844 16.90012,-20.75 6.5138,-8.0656 12.42744,-14.66472 13.14142,-14.66472 0.96846,0 0.68584,1.96822 -1.11283,7.75 -2.99161,9.61643 -4.27307,26.98935 -2.40769,32.64148 1.50218,4.55167 6.19054,10.10421 10.43425,12.35757 4.17411,2.2164 33.27661,2.55582 131.60156,1.53489 l 75.5,-0.78394 -0.28382,-3 c -0.62301,-6.58531 -6.86862,-25.46083 -11.31295,-34.19007 -8.95081,-17.58057 -22.40846,-34.85915 -32.81926,-42.13739 -13.68346,-9.56617 -39.43213,-21.96378 -59.59811,-28.69561 -8.53277,-2.84842 -12.00907,-3.44542 -23.5,-4.03579 -12.57087,-0.64585 -14.14544,-0.51682 -23.20728,1.90167 -5.34678,1.42699 -11.96932,3.73363 -14.71675,5.12586 -5.2061,2.63813 -7.06183,3.09046 -7.06183,1.7213 0,-0.73679 8.08791,-10.48155 35.79383,-43.12637 5.33839,-6.29003 11.73117,-13.74008 14.20617,-16.55567 2.475,-2.815593 9.675,-11.158405 16,-18.539582 6.325,-7.381178 13.40207,-15.456128 15.72682,-17.944335 3.79948,-4.066624 4.22916,-4.289578 4.25,-2.205232 0.0127,1.275328 -1.07888,6.675328 -2.42585,12 -1.43265,5.663411 -2.73522,14.501249 -3.13864,21.295453 -0.61315,10.326506 -0.44536,12.418356 1.51328,18.866766 6.40602,21.09041 11.45965,26.01213 33.78293,32.9011 12.07306,3.72575 31.96715,13.09894 41.79146,19.69023 9.86938,6.62153 25.75268,20.6393 33.00281,29.12655 8.74955,10.24254 19.15932,30.23716 25.56261,49.09952 5.69817,16.78525 6.4206,17.53781 10.74641,11.19468 2.08256,-3.05375 2.31894,-4.31059 1.87945,-9.99308 -0.49327,-6.37793 -1.32008,-9.19504 -7.54498,-25.70714 -1.7017,-4.51393 -2.68984,-8.45694 -2.19586,-8.76223 1.04507,-0.64589 73.39083,73.76601 73.87288,75.98264 0.27894,1.28264 -3.15294,1.50278 -25,1.60361 -13.92782,0.0643 -28.24832,0.40179 -31.82332,0.75 -6.18005,0.60196 -6.48887,0.75618 -6.27387,3.13312 1.77318,19.60308 1.34749,29.0632 -2.33074,51.79691 -3.23498,19.99415 -11.88865,43.71964 -20.74299,56.87036 -6.08906,9.04366 -22.10632,26.70029 -30.1524,33.2385 -13.68592,11.12112 -26.79476,18.68516 -45.02892,25.98252 -9.41409,3.76754 -27.90071,9.0823 -31.66206,9.10259 -2.74553,0.0148 -2.97656,1.49159 -1.83499,11.72936 1.43098,12.83313 3.29176,18.79771 12.56611,40.27976 16.45144,38.10624 18.23163,47.38269 12.37003,64.45934 -3.82736,11.15026 -5.10547,13.64531 -10.55364,20.60219 -6.39633,8.1676 -12.75856,12.70515 -22.33999,15.9329 -6.59877,2.22296 -16.81053,2.49387 -23.55794,0.62496 z m 18.16648,-36.32567 c 7.61984,-8.31893 7.14822,-21.20658 -1.65574,-45.24499 -4.53061,-12.37045 -4.49063,-12.33132 -6.88685,-6.74118 -1.1328,2.64272 -3.72653,10.06714 -5.76385,16.4987 -3.1565,9.96468 -3.69303,12.99105 -3.62862,20.46746 0.0668,7.75857 0.38385,9.23952 2.73981,12.79962 4.61575,6.97487 10.10554,7.77706 15.19525,2.22039 z M 287.34049,49.25998 C 264.12373,37.690578 271.09174,2.460684 297.05787,0.12947984 c 11.16279,-1.00218027 20.37448,4.01936096 25.40017,13.84631216 3.73857,7.310194 4.30662,12.233515 2.23407,19.362847 -2.08877,7.185104 -9.7725,15.407498 -16.16241,17.295456 -7.05856,2.085516 -15.32201,1.549633 -21.18921,-1.374115 z"
     style="fill:#000000;fill-opacity:1" />
</svg>
