<?xml version="1.0" encoding="UTF-8" standalone="no"?>
<!-- Created with Inkscape (http://www.inkscape.org/) -->

<svg
   xmlns:dc="http://purl.org/dc/elements/1.1/"
   xmlns:cc="http://creativecommons.org/ns#"
   xmlns:rdf="http://www.w3.org/1999/02/22-rdf-syntax-ns#"
   xmlns:svg="http://www.w3.org/2000/svg"
   xmlns="http://www.w3.org/2000/svg"
   xmlns:sodipodi="http://sodipodi.sourceforge.net/DTD/sodipodi-0.dtd"
   xmlns:inkscape="http://www.inkscape.org/namespaces/inkscape"
   id="svg2"
   version="1.1"
   inkscape:version="0.48.2 r9819"
   width="436.76001"
   height="436.76001"
   sodipodi:docname="Breed-Acanthus.svg">
  <metadata
     id="metadata8">
    <rdf:RDF>
      <cc:Work
         rdf:about="">
        <dc:format>image/svg+xml</dc:format>
        <dc:type
           rdf:resource="http://purl.org/dc/dcmitype/StillImage" />
        <dc:title />
      </cc:Work>
    </rdf:RDF>
  </metadata>
  <defs
     id="defs6" />
  <sodipodi:namedview
     pagecolor="#ffffff"
     bordercolor="#666666"
     borderopacity="1"
     objecttolerance="10"
     gridtolerance="10"
     guidetolerance="10"
     inkscape:pageopacity="0"
     inkscape:pageshadow="2"
     inkscape:window-width="1606"
     inkscape:window-height="1029"
     id="namedview4"
     showgrid="false"
     fit-margin-top="0"
     fit-margin-left="0"
     fit-margin-right="0"
     fit-margin-bottom="0"
     inkscape:zoom="0.834386"
     inkscape:cx="-39.479307"
     inkscape:cy="107.86844"
     inkscape:window-x="70"
     inkscape:window-y="-4"
     inkscape:window-maximized="1"
     inkscape:current-layer="svg2" />
  <path
     inkscape:connector-curvature="0"
     id="path2989"
     d="m 59.803924,419.34863 c -18.40912,-3.95872 -34.21682,-17.29897 -40.76443,-34.40141 -4.6385,-12.11586 -5.26509,-21.29303 -2.26626,-33.19238 2.77365,-11.00582 6.25944,-17.16708 14.4201,-25.48803 l 7.16677,-7.30753 -7.61478,-4.42449 C 9.525584,302.20528 -3.048506,276.2083 0.638574,252.28897 c 2.42226,-15.71404 7.44859,-25.64919 18.65117,-36.86637 13.61884,-13.63659 26.22299,-18.81803 46.01418,-18.91599 30.16762,-0.14931 50.892686,13.24676 55.508866,35.87928 2.92793,14.35528 -4.02574,28.4948 -16.50419,33.55943 -8.036396,3.26174 -19.227976,2.64802 -25.505276,-1.39864 -2.47467,-1.5953 -5.80713,-4.43747 -7.40548,-6.31593 -3.2581,-3.8291 -6.59392,-12.88522 -6.59392,-17.90124 0,-5.57273 3.88925,-14.23158 8.60111,-19.14916 2.41281,-2.51814 4.20178,-4.76358 3.97549,-4.98986 -0.22628,-0.22629 -2.22914,-0.65524 -4.45079,-0.95322 -7.44942,-0.99918 -19.67533,5.60377 -25.78392,13.92534 -7.33511,9.99242 -9.09491,21.2437 -5.12781,32.78461 1.83714,5.34451 3.48329,7.76144 9.26013,13.59599 11.03214,11.14236 9.32481,10.85892 60.427466,10.03183 23.341,-0.37777 46.52422,-0.86499 51.51826,-1.08272 4.99403,-0.21772 30.90506,-0.6783 57.58006,-1.02351 26.675,-0.34521 51.875,-1.08079 56,-1.63463 28.28259,-3.7973 49.10145,-24.56331 55.45276,-55.31197 1.63755,-7.92787 2.18024,-44.79054 0.90125,-61.21835 l -0.634,-8.14336 -8.11,4.30862 c -19.98284,10.61634 -39.23193,15.90627 -69.11001,18.99248 -28.56028,2.95008 -56.75696,0.91817 -84.77021,-6.10872 -14.92836,-3.74466 -33.67821,-11.66498 -43.87144,-18.53221 -9.40983,-6.33946 -18.85562,-19.21904 -23.38246,-31.8826 -2.04821,-5.72978 -5.216296,-20.34234 -6.486666,-29.9193 -2.02594,-15.272923 -6.17411,-30.021536 -10.00481,-35.571549 -4.75114,-6.883577 -14.76015,-17.157546 -20.23311,-20.768723 -6.40794,-4.2281 -18.00059,-10.119409 -30.2513,-15.373515 -2.25301,-0.966276 56.70046,-1.522421 118.629706,-1.119107 l 40.1297,0.261344 -11.3797,5.683513 c -15.99435,7.988265 -23.33292,13.238129 -31.28285,22.379118 -11.34515,13.044888 -16.30212,26.291174 -15.37224,41.078579 0.7941,12.62816 6.44557,25.46125 15.27893,34.69463 6.36924,6.65768 24.78346,15.51049 39.49645,18.98831 13.68057,3.23376 16.80765,3.755 27,4.50045 41.01995,3.00012 85.95029,-9.51632 103.25604,-28.76448 6.44421,-7.16752 9.49527,-12.82153 11.75244,-21.77885 3.64259,-14.455184 2.06051,-29.244753 -4.34322,-40.601422 -5.04889,-8.95392 -13.51254,-18.950097 -20.38947,-24.081421 -6.25521,-4.667426 -15.91555,-9.598427 -18.8043,-9.598427 -0.80932,0 -1.47149,-0.45 -1.47149,-1 0,-1.187203 30.57778,-1.290471 99.81128,-0.337085 l 48.13993,0.662915 -5.56064,2.26001 c -15.23987,6.193947 -26.8831,20.050488 -33.53868,39.914161 l -2.34543,7 -0.28665,95.749999 c -0.15766,52.6625 -0.65477,95.75 -1.1047,95.75 -0.44992,0 -1.08636,3.80209 -1.41431,8.4491 -1.73906,24.64273 -17.34791,44.79277 -41.23893,53.23685 l -7.96187,2.81405 -41,0.27956 c -22.55,0.15375 -81.05,0.61446 -130,1.02379 l -88.999996,0.74424 -7.7917,3.86596 c -8.38081,4.15826 -13.23037,8.84854 -17.22349,16.65785 -3.32493,6.50251 -5.48481,15.6596 -5.48481,23.25351 0,5.59121 0.54217,7.58944 3.75,13.82102 2.98663,5.80187 4.84036,8.04606 9.1063,11.02438 8.00213,5.5868 14.17968,7.36835 20.53538,5.92224 10.12368,-2.30343 17.587006,-10.33167 21.218916,-22.82502 1.73916,-5.98248 1.32942,-7.42821 -1.40412,-4.9544 -2.4166,2.187 -9.699376,4.68687 -13.654066,4.68687 -12.0865,0 -23.60431,-11.68681 -23.53045,-23.87573 0.0121,-1.99335 0.94001,-5.64927 2.06207,-8.12427 4.03971,-8.91065 9.73553,-12.84973 19.80061,-13.69355 6.37818,-0.53472 7.51073,-0.32242 13.293756,2.49197 7.34649,3.57526 11.49598,8.86567 15.40891,19.64566 2.82918,7.79431 3.29089,21.09122 0.99501,28.65535 -5.30858,17.48992 -16.9071,27.98416 -35.393826,32.02403 -9.92326,2.16851 -16.0809,2.23646 -25.18849,0.27795 z"
     style="fill:#000000;fill-opacity:1" />
</svg>
