<?xml version="1.0" encoding="UTF-8" standalone="no"?>
<!-- Created with Inkscape (http://www.inkscape.org/) -->

<svg
     xmlns:dc="http://purl.org/dc/elements/1.1/"
     xmlns:cc="http://creativecommons.org/ns#"
     xmlns:rdf="http://www.w3.org/1999/02/22-rdf-syntax-ns#"
     xmlns:svg="http://www.w3.org/2000/svg"
     xmlns="http://www.w3.org/2000/svg"
     xmlns:sodipodi="http://sodipodi.sourceforge.net/DTD/sodipodi-0.dtd"
     xmlns:inkscape="http://www.inkscape.org/namespaces/inkscape"
     id="svg2"
     version="1.1"
     inkscape:version="0.48.2 r9819"
	 viewBox="0 0 263.45508 344.6824"
     sodipodi:docname="Power-Spirit.svg">
    <metadata
         id="metadata8">
        <rdf:RDF>
            <cc:Work
                 rdf:about="">
                <dc:format>image/svg+xml</dc:format>
                <dc:type
                     rdf:resource="http://purl.org/dc/dcmitype/StillImage" />
                <dc:title></dc:title>
            </cc:Work>
        </rdf:RDF>
    </metadata>
    <defs
         id="defs6" />
    <sodipodi:namedview
         pagecolor="#ffffff"
         bordercolor="#666666"
         borderopacity="1"
         objecttolerance="10"
         gridtolerance="10"
         guidetolerance="10"
         inkscape:pageopacity="0"
         inkscape:pageshadow="2"
         inkscape:window-width="1835"
         inkscape:window-height="1060"
         id="namedview4"
         showgrid="false"
         fit-margin-top="0"
         fit-margin-left="0"
         fit-margin-right="0"
         fit-margin-bottom="0"
         inkscape:zoom="1.2836708"
         inkscape:cx="493.41068"
         inkscape:cy="30.488246"
         inkscape:window-x="83"
         inkscape:window-y="-3"
         inkscape:window-maximized="1"
         inkscape:current-layer="svg2" />
    <path
         inkscape:connector-curvature="0"
         id="path4497"
         d="m 73,344.10722 c -5.51592,-1.48626 -10.33432,-3.92131 -15.68929,-7.92881 -7.67816,-5.74612 -11.44842,-10.18552 -15.45959,-18.20337 -3.11902,-6.23455 -3.60959,-8.25581 -4.07308,-16.78167 -0.96273,-17.70939 2.27492,-28.42906 12.52803,-41.47964 12.30085,-15.65701 36.43716,-29.14951 63.19393,-35.3262 16.20966,-3.74193 22.95334,-5.47474 29,-7.45165 7.24353,-2.36822 25.23638,-11.45064 29.03996,-14.65878 1.35302,-1.14121 5.5436,-4.66267 9.3124,-7.82547 9.54953,-8.01404 17.53069,-20.73051 21.30886,-33.95163 1.91958,-6.71728 3.22109,-58.5 1.47034,-58.5 -0.6426,0 -3.29759,1.10309 -5.89997,2.45131 -2.60237,1.34823 -8.78159,3.69683 -13.73159,5.21912 -8.37638,2.57603 -10.2126,2.76765 -26.5,2.76546 -20.03675,-0.003 -24.01514,-0.79105 -41,-8.12454 C 98.39283,96.49328 84.4375,86.66624 75.53734,75.46633 L 69.5,67.86898 l 0,47.4717 0,47.47171 -5.08181,3.8438 c -2.795,2.1141 -7.38784,5.54248 -10.20633,7.61863 -2.81848,2.07615 -5.36916,4.10115 -5.66818,4.5 -0.47478,0.63328 -6.65291,5.70922 -12.45622,10.23399 -1.88052,1.46623 -1.90121,0.4187 -1.23604,-62.58613 C 35.30296,83.65206 35.1797,59.71094 34.48073,54.42267 32.50036,39.43963 30.69055,32.49469 25.85905,21.33805 23.74117,16.44756 15.4608,9.6883 7.33847,6.21973 L 0,3.0859 48,3.0652 c 47.81989,-0.0206 47.99062,-0.0134 45.5,1.93481 -1.375,1.07554 -2.96312,1.96553 -3.52916,1.97776 -1.94883,0.0421 -8.00832,6.80593 -10.44526,11.65936 -3.663,7.29529 -3.8497,15.05522 -0.59547,24.7494 3.22246,9.59955 6.63409,14.69387 14.77262,22.05882 7.9794,7.22094 22.93212,14.63086 35.79727,17.73957 7.92027,1.91384 12.1606,2.29004 25.5,2.26235 14.02909,-0.0291 17.29341,-0.36445 26.5,-2.72216 10.6341,-2.72328 32.12274,-12.47199 37.09424,-16.82848 1.32317,-1.15948 4.30386,-3.42226 6.62376,-5.02841 8.85494,-6.13056 21.23657,-21.12339 27.34623,-33.11336 C 257.0425,18.96641 261.5,6.4051 261.5,2.57368 261.5,1.15816 261.95,0 262.5,0 c 1.27741,0 1.27503,6.77016 -0.0167,47.5 -2.47004,77.88326 -2.72772,82.30228 -5.36468,92 -4.49537,16.53222 -11.80511,35.5 -13.68088,35.5 -0.42141,0 -2.16807,2.27834 -3.88147,5.06297 -3.98125,6.47036 -15.05483,17.26876 -26.59698,25.93604 C 204.10211,212.65009 191.17461,220 188.33344,220 c -0.78839,0 -1.86094,0.37719 -2.38344,0.83821 -1.23253,1.08748 -14.65428,5.68877 -20.45,7.01073 -2.475,0.56453 -10.2623,2.18709 -17.30511,3.60568 -24.93201,5.02192 -50.75732,14.85306 -63.19489,24.05693 -6.10841,4.52026 -14.3081,13.17255 -18.35313,19.36617 -5.34272,8.18062 -7.48206,15.54192 -7.39213,25.43574 0.0584,6.42461 0.55331,8.76668 2.78425,13.17607 1.49228,2.94943 4.11898,6.68711 5.83712,8.30595 5.28443,4.97901 17.18511,7.67802 23.12389,5.24437 1.83627,-0.75249 1.7544,-0.91568 -1,-1.99334 C 86.00338,323.48283 81.90628,319.49022 78.6644,314 c -2.09273,-3.5441 -2.65238,-5.77453 -2.63461,-10.5 0.0558,-14.83585 14.22396,-25.32987 28.56833,-21.15985 7.01161,2.03833 11.70918,6.43011 16.48471,15.41166 2.02397,3.80655 2.4136,5.94521 2.39521,13.14713 -0.0268,10.49791 -1.77968,14.89634 -8.96372,22.4924 -7.62273,8.05992 -14.66911,10.88813 -28.01432,11.24413 -5.775,0.15406 -11.85,-0.0837 -13.5,-0.52825 z"
         style="fill:#000000;fill-opacity:1" />
</svg>
