<?xml version="1.0" encoding="UTF-8" standalone="no"?>
<!-- Created with Inkscape (http://www.inkscape.org/) -->

<svg
     xmlns:dc="http://purl.org/dc/elements/1.1/"
     xmlns:cc="http://creativecommons.org/ns#"
     xmlns:rdf="http://www.w3.org/1999/02/22-rdf-syntax-ns#"
     xmlns:svg="http://www.w3.org/2000/svg"
     xmlns="http://www.w3.org/2000/svg"
     xmlns:sodipodi="http://sodipodi.sourceforge.net/DTD/sodipodi-0.dtd"
     xmlns:inkscape="http://www.inkscape.org/namespaces/inkscape"
     id="svg2"
     version="1.1"
     inkscape:version="0.48.2 r9819"
	 viewBox="0 0 249.77196 165.41367"
     sodipodi:docname="Power-Mind.svg">
    <metadata
         id="metadata8">
        <rdf:RDF>
            <cc:Work
                 rdf:about="">
                <dc:format>image/svg+xml</dc:format>
                <dc:type
                     rdf:resource="http://purl.org/dc/dcmitype/StillImage" />
                <dc:title></dc:title>
            </cc:Work>
        </rdf:RDF>
    </metadata>
    <defs
         id="defs6" />
    <sodipodi:namedview
         pagecolor="#ffffff"
         bordercolor="#666666"
         borderopacity="1"
         objecttolerance="10"
         gridtolerance="10"
         guidetolerance="10"
         inkscape:pageopacity="0"
         inkscape:pageshadow="2"
         inkscape:window-width="1835"
         inkscape:window-height="1060"
         id="namedview4"
         showgrid="false"
         fit-margin-top="0"
         fit-margin-left="0"
         fit-margin-right="0"
         fit-margin-bottom="0"
         inkscape:zoom="0.90769231"
         inkscape:cx="151.49035"
         inkscape:cy="64.313942"
         inkscape:window-x="83"
         inkscape:window-y="-3"
         inkscape:window-maximized="1"
         inkscape:current-layer="svg2" />
    <path
         inkscape:connector-curvature="0"
         id="path4221"
         d="m 119.88659,164.98756 c -7.00303,-1.23849 -9.11243,-2.3715 -14.74276,-7.91869 C 97.750949,149.78514 94.689359,142.70092 94.525919,132.5 c -0.14211,-8.86945 1.06232,-13.31564 7.583261,-27.99362 2.19756,-4.94649 5.33311,-13.04649 6.96789,-18 2.76246,-8.37049 2.96749,-10.02335 2.90386,-23.41011 -0.0377,-7.92205 -0.18679,-14.51675 -0.3314,-14.65489 -0.14462,-0.13814 -25.237941,0.0569 -55.762941,0.43337 -30.525,0.37649 -55.66158973,0.5846 -55.85908973,0.46246 -0.1975,-0.12213 0.69031,-1.71047 1.97292003,-3.52964 3.05795,-4.33719 3.2087,-4.53375 7.61345,-9.92674 4.5419997,-5.56104 5.7676897,-7.08216 10.2864697,-12.76571 1.91744,-2.41169 4.61125,-5.60832 5.98625,-7.10363 1.375,-1.49531 4.3,-5.23802 6.5,-8.31713 L 38.802572,0 38.386589,15.67044 c 0,8.39896 0.210317,9.39638 2.5,11.8561 1.375,1.47711 3.52736,3.08242 4.783023,3.56736 1.255662,0.48494 36.913629,0.90109 79.239928,0.92479 82.59435,0.0462 79.5084,0.21984 85.22705,-4.79427 3.09148,-2.71061 1.95091,-12.57218 -2.71502,-23.47442 -1.22388,-2.85968 1.23945,-2.05067 4.74835,1.55947 6.11253,6.28887 27.23495,28.36669 32.58909,34.06313 2.95483,3.14374 5.20483,5.86618 5,6.04986 -0.451,0.40445 -39.92989,1.56579 -82.87242,2.43785 l -31.5,0.63969 0.18442,16.81852 c 0.10143,9.25018 0.60188,17.35018 1.11211,18 0.51023,0.64981 1.24764,2.51587 1.63867,4.14679 0.39104,1.63092 1.64086,5.00592 2.77737,7.5 1.13652,2.49408 4.10834,9.48469 6.60405,15.53469 4.31212,10.4533 4.54127,11.497 4.61051,21 0.0665,9.12277 -0.17566,10.47201 -2.7602,15.38069 -1.55819,2.95938 -4.93319,7.47238 -7.5,10.0289 -7.23291,7.20389 -13.72724,9.57052 -22.16693,8.07797 z m 8.35055,-22.99231 c 4.82,-5.72825 4.47194,-14.75137 -1.15728,-30.00152 -1.52136,-4.12155 -3.19973,-7.40286 -3.7297,-7.29179 -1.26892,0.26593 -6.36499,15.33158 -7.50809,22.19638 -1.16243,6.98091 0.17104,12.94011 3.5471,15.85168 3.51316,3.02981 5.82975,2.8322 8.84797,-0.75475 z"
         style="fill:#000000;fill-opacity:1"
         sodipodi:nodetypes="sssssscscsssscccssssssscscsssssssssssssss" />
</svg>
