<?xml version="1.0" encoding="UTF-8" standalone="no"?>
<!-- Created with Inkscape (http://www.inkscape.org/) -->

<svg
     xmlns:dc="http://purl.org/dc/elements/1.1/"
     xmlns:cc="http://creativecommons.org/ns#"
     xmlns:rdf="http://www.w3.org/1999/02/22-rdf-syntax-ns#"
     xmlns:svg="http://www.w3.org/2000/svg"
     xmlns="http://www.w3.org/2000/svg"
     xmlns:sodipodi="http://sodipodi.sourceforge.net/DTD/sodipodi-0.dtd"
     xmlns:inkscape="http://www.inkscape.org/namespaces/inkscape"
     viewBox="0 0 340.25446 297.80471"
     id="svg2"
     version="1.1"
     inkscape:version="0.48.2 r9819"
     sodipodi:docname="Arcanum-Death.svg"
     width="100%"
     height="100%">
    <defs
         id="defs4" />
    <sodipodi:namedview
         id="base"
         pagecolor="#ffffff"
         bordercolor="#666666"
         borderopacity="1.0"
         inkscape:pageopacity="0.0"
         inkscape:pageshadow="2"
         inkscape:zoom="0.49497475"
         inkscape:cx="149.09628"
         inkscape:cy="301.19877"
         inkscape:document-units="px"
         inkscape:current-layer="layer1"
         showgrid="false"
         fit-margin-top="0"
         fit-margin-left="0"
         fit-margin-right="0"
         fit-margin-bottom="0"
         inkscape:window-width="1835"
         inkscape:window-height="1060"
         inkscape:window-x="83"
         inkscape:window-y="-3"
         inkscape:window-maximized="1" />
    <metadata
         id="metadata7">
        <rdf:RDF>
            <cc:Work
                 rdf:about="">
                <dc:format>image/svg+xml</dc:format>
                <dc:type
                     rdf:resource="http://purl.org/dc/dcmitype/StillImage" />
                <dc:title />
            </cc:Work>
        </rdf:RDF>
    </metadata>
    <g
         inkscape:label="Ebene 1"
         inkscape:groupmode="layer"
         id="layer1"
         transform="translate(-75,-374.98606)">
        <path
             inkscape:connector-curvature="0"
             id="path3095"
             d="m 177.4779,670.04077 c 0.3821,-1.5125 1.3214,-6.30316 2.08733,-10.64591 0.76594,-4.34275 1.61114,-8.61775 1.87822,-9.5 1.14559,-3.78423 4.49671,-48.95238 4.71892,-63.60409 0.13346,-8.8 0.62053,-16.79343 1.08238,-17.76318 0.76301,-1.6021 1.17847,-1.49202 4.54749,1.20485 8.18544,6.55238 17.14853,8.03488 36.99864,6.1196 22.63561,-2.18405 48.088,-8.75027 63.93341,-15.621 7.7953,-3.38012 13.6192,-7.07456 21.60401,-9.44027 1.83167,-0.54268 20.66433,-12.0962 28.1895,-18.18207 11.13651,-9.00649 15.17493,-13.15804 22.67117,-23.30632 8.6054,-11.64983 14.32211,-22.90528 16.84695,-37.01161 3.62408,-20.2478 -0.86573,-38.83031 -12.24825,-53.80853 -6.40522,-8.42861 -12.20895,-12.811 -24.46918,-19.32118 -15.03602,-7.98413 -36.61593,-9.63686 -57.66569,-4.41641 -17.06302,4.23171 -26.75949,9.74696 -36.6966,20.87263 -16.07501,17.99771 -19.5216,44.55606 -8.3622,66.17349 9.98122,19.33512 32.40903,29.91257 50.83942,23.88017 8.63296,-2.82563 11.77688,-6.96048 17.33886,-12.49553 8.57401,-8.5325 12.31784,-24.05588 8.85392,-36.88464 -3.95881,-14.66162 -11.23175,-21.91711 -21.84144,-21.78906 -4.67972,0.0565 -11.82697,2.9157 -12.5253,5.01067 -0.19967,0.59901 1.21278,1.60917 3.13877,2.2448 4.49317,1.48288 9.31318,6.97834 10.18183,11.60867 1.50282,8.0107 -3.84251,16.57507 -11.4057,18.27441 -9.15884,2.05785 -16.01617,-1.89134 -20.28517,-11.6824 -1.96502,-4.50682 -2.51264,-12.92489 -1.03633,-15.93066 0.46908,-0.95504 1.70658,-3.53643 2.75,-5.73643 2.14247,-4.51726 9.62746,-12.21344 13.39714,-13.77513 12.78761,-5.29763 20.91193,-6.02365 30.49829,-2.72546 11.95675,4.11373 20.23981,13.18348 25.95018,28.41484 2.55621,6.81819 2.62734,22.08475 0.13786,29.58575 -2.76972,8.3454 -9.23394,19.52302 -13.90623,24.04601 -5.80036,5.61499 -15.99284,12.75001 -19.36607,13.55675 -1.54772,0.37016 -3.26403,1.01327 -3.81403,1.42914 -1.50485,1.13785 -16.8846,1.44251 -60.25,1.19349 -25.34974,-0.14557 -39.25,-0.57954 -39.25,-1.22539 0,-0.55 0.84401,-1 1.87557,-1 1.03156,0 4.35594,-1.09694 7.3875,-2.43764 7.22142,-3.19365 10.23693,-7.33603 10.23693,-14.06236 0,-5.1712 -1.78636,-8.92074 -8.57559,-18 -4.27612,-5.71849 -6.60228,-9.02612 -13.7969,-19.61824 -7.64153,-11.25006 -13.1394,-18.91624 -14.82337,-20.66955 -0.99827,-1.03937 -1.82873,-0.46068 -4.30519,3 -1.68758,2.35829 -3.82404,5.18779 -4.74769,6.28779 -6.02346,7.17352 -26.34486,35.00413 -29.01827,39.74117 -5.41738,9.59906 -3.89913,18.54428 3.90795,23.02493 5.59185,3.20929 3.48721,3.7339 -14.9797,3.7339 -25.80009,0 -60.16124,-1.19165 -60.16124,-2.0864 0,-0.4226 2.5875,-1.97298 5.75,-3.4453 14.78614,-6.88375 19.37309,-9.24302 27.75,-14.27304 18.81073,-11.29513 37.19833,-28.57347 52.82028,-49.63379 1.19885,-1.61619 3.92133,-4.76619 6.04997,-7 2.12864,-2.23381 6.53636,-7.54897 9.79494,-11.81147 3.25858,-4.2625 6.47946,-7.75 7.15751,-7.75 1.50614,0 2.63997,1.31224 9.93646,11.5 3.15129,4.4 7.98215,11.12076 10.73523,14.93502 1.66853,2.31167 2.29094,7.80588 5.00561,6.93502 1.24899,-0.40067 0.0114,-2.62335 0.0171,-3.93502 0.0206,-4.7357 2.55429,-16.62692 5.50514,-21.94206 17.59195,-31.68704 49.38976,-53.7553 81.97776,-54.92695 54.05159,-1.94334 93.97651,2.20793 111.79011,50.60644 10.77918,29.28642 5.96265,44.16693 -6.57836,70.67487 -3.55614,7.51662 -23.64427,28.05769 -33.8346,34.93032 -9.64849,6.50719 -17.09006,10.84296 -34.29546,19.98198 -2.99398,1.59031 -8.90431,4.1566 -28.58169,12.41028 -5.225,2.19163 -12.65,5.03807 -16.5,6.32544 -3.85,1.28737 -9.25,3.30679 -12,4.4876 -7.69297,3.30326 -30.61676,14.95261 -33.94122,17.24814 -11.83368,8.17115 -26.58267,20.02245 -32.05878,25.7603 -3.85,4.03402 -7.85694,8.23067 -8.9043,9.3259 -7.6931,8.04466 -21.00102,31.43027 -23.57789,41.43272 -0.60219,2.3375 -1.35134,4.25 -1.66476,4.25 -0.31343,0 -0.25724,-1.2375 0.12485,-2.75 z"
             style="fill:#000000;fill-opacity:1"
             sodipodi:nodetypes="ssssssssssssssssssssssssssssssssssssssssssssssssssssssssssssssssssssssssss" />
    </g>
</svg>
