<?xml version="1.0" encoding="UTF-8" standalone="no"?>
<!-- Created with Inkscape (http://www.inkscape.org/) -->

<svg
   xmlns:dc="http://purl.org/dc/elements/1.1/"
   xmlns:cc="http://creativecommons.org/ns#"
   xmlns:rdf="http://www.w3.org/1999/02/22-rdf-syntax-ns#"
   xmlns:svg="http://www.w3.org/2000/svg"
   xmlns="http://www.w3.org/2000/svg"
   xmlns:sodipodi="http://sodipodi.sourceforge.net/DTD/sodipodi-0.dtd"
   xmlns:inkscape="http://www.inkscape.org/namespaces/inkscape"
   width="475.64999"
   height="475.64999"
   id="svg4771"
   version="1.1"
   inkscape:version="0.48.2 r9819"
   sodipodi:docname="Faction-BloodTalons.svg">
  <defs
     id="defs4773">
    <clipPath
       clipPathUnits="userSpaceOnUse"
       id="clipPath118">
      <path
         inkscape:connector-curvature="0"
         d="m 384.923,403 274.577,0 0,-382.521 -274.577,0 0,382.521 z"
         id="path120" />
    </clipPath>
  </defs>
  <sodipodi:namedview
     id="base"
     pagecolor="#ffffff"
     bordercolor="#666666"
     borderopacity="1.0"
     inkscape:pageopacity="0.0"
     inkscape:pageshadow="2"
     inkscape:zoom="0.98994949"
     inkscape:cx="236.61002"
     inkscape:cy="158.66513"
     inkscape:document-units="px"
     inkscape:current-layer="layer1"
     showgrid="false"
     fit-margin-top="0"
     fit-margin-left="0"
     fit-margin-right="0"
     fit-margin-bottom="0"
     inkscape:window-width="1606"
     inkscape:window-height="1029"
     inkscape:window-x="70"
     inkscape:window-y="-4"
     inkscape:window-maximized="1" />
  <metadata
     id="metadata4776">
    <rdf:RDF>
      <cc:Work
         rdf:about="">
        <dc:format>image/svg+xml</dc:format>
        <dc:type
           rdf:resource="http://purl.org/dc/dcmitype/StillImage" />
      </cc:Work>
    </rdf:RDF>
  </metadata>
  <g
     inkscape:label="Layer 1"
     inkscape:groupmode="layer"
     id="layer1"
     transform="translate(-185.79277,-367.19755)">
    <path
       style="fill:#000000;fill-opacity:1;fill-rule:nonzero;stroke:none"
       d="m 463.13652,367.19555 c -1.58209,0.0937 -3.18656,0.96875 -5.15625,0.5 -4.24875,1.125 -9.125,1.25 -12.625,3.25 -1.12625,0.5 -2.25,2.75 -3.5,1.25 -1.875,0.375 -2,3.25 -4.5,3 -1.74875,5 -5.75,8.25 -8,12.875 -3.375,4.25 -5.5,9.625 -8.5,14 -1,1.5 -1.5,3.375 -3,4.625 -1.125,3.625 -3.625,6.375 -5,9.75 -2.125,2.75 -3.125,6.25 -5.125,9 -0.5,1.125 -2.125,1.875 -1.5,3.125 -2,3.25 -3.5,6.75 -5.25,9.875 -1,2 -0.75,4.625 -1.625,6.625 0,3.25 -0.125,7.125 0,9.75 0.625,0.625 -0.25,2.375 0.75,2.75 0.5,4.25 1.375,8 4.625,10.125 4.75,2.25 7.625,6.375 9.625,11.125 1.375,-0.375 0.625,-2.5 2.5,-2.375 0.25,0.625 -0.5,0.75 -0.75,1 0.125,0.5 -0.25,2 -0.875,2.5 -0.625,2 1,2.375 0.875,4 1.125,0.5 0.875,-0.75 1,-1.25 1.75,-2.375 2.75,-5.5 4.25,-8 -0.25,-1.625 1.625,-2.75 1.25,-3.75 0.75,-0.875 0.75,-2.625 1.75,-3.25 0,-3.375 3.625,-4.75 3.625,-7.625 1.87375,-2.375 3,-5.125 4.125,-8.125 0.87375,-0.75 0.62625,-2.875 2.75,-2.25 0.37625,-1.875 2.37625,-2.125 2.5,-4.125 0.25125,0 0.50125,-0.125 0.625,0.125 -0.12375,0.375 0.25,0.875 -0.25,0.875 0.24875,2 -1.62625,2.25 -0.875,4.375 0.875,1.375 1.625,-0.125 2.5,-0.625 0.125,-2.125 2.875,-2.875 2.125,-4.875 -0.625,-0.75 -3,-0.875 -1.875,-2.5 l -0.25,0 c -0.25,-0.25 -0.875,-0.25 -0.625,-0.875 0.125,0 0.125,-0.125 0.375,-0.125 l 0,-1 c 1.37375,-1.125 0.875,-3.625 2.375,-4.5 1.875,-0.75 2.74875,-2.625 3.875,-4.125 -0.125,-2 1.625,-2.625 1.75,-4.5 1.375,-2.375 3.12625,-5.375 5.875,-6.125 -0.24875,0.75 -0.75,1.625 -1.125,2.125 -0.875,1.5 1.25,1.875 2.25,2.5 0.625,0 -0.375,-1.5 0.875,-1.125 0.25,-1.125 1.37625,-1.5 1.75,-2.5 0.75125,-0.125 -0.25,-1.75 0.875,-1.5 3.75,-5.75 7,-11.875 11.5,-17 1.875,-2 3.125,-5 5.625,-6.375 3.625,-4.625 6.625,-9.625 6.625,-16.875 -0.75,-4 -3,-7 -5.125,-10.125 -1.875,-0.875 -3,-2.875 -5.875,-2.5 -1.5,-0.75 -4.125,-1 -5.625,-0.875 -0.53125,-0.21875 -1.06639,-0.28125 -1.59375,-0.25 z m -31.6875,4.375 c -0.34534,-0.0295 -0.69492,0.15625 -0.96875,0.625 0.25125,1 0.62375,1.875 1.5,2.25 l 0.5,-0.625 c 0.42969,-1.11719 -0.27151,-2.18521 -1.03125,-2.25 z m -2.71875,10.25 -0.125,0.25 c -1.62375,-0.625 -1.25,1.375 -2.75,0.625 -1.5,1.25 -2.625,3.5 -2.5,5.25 0.125,0.875 1.25,0.75 1.625,1.5 2.125,-1.125 3.375,-3.375 4.75,-5.125 0.25,-1.25 -0.25,-2 -1,-2.5 z m -52.25,0.875 c -0.75,0.375 -1.5,0.5 -2.375,0.625 -0.25,1.25 -2.375,0 -2.5,1.125 l -0.5,-0.25 c -1.125,1.125 -3.625,0.375 -5.375,0.625 -6.5,4.125 -13.875,8.375 -17.125,15.625 -2.125,3.25 -4.5,6.25 -6.875,9.25 -0.875,3.125 -3.125,5.375 -3.875,8.5 -1.25,1.375 -1.5,3.375 -2.125,5 0.25,2.125 -1.5,3.125 -1.5,5 -0.5,0.375 -0.375,1.375 -1.25,1.25 0,0 -0.125,-0.125 -0.125,-0.25 l -0.75,0.25 c -4.125,7.625 -7.875,15.5 -10.5,24 -2,3 -2.125,7.125 -4.5,9.625 -0.5,3.375 -2.75,5.125 -3.625,8.125 -0.625,1.625 -2.5,2.875 -1.75,4.75 l -2,6.375 c -1.125,4.75 -4.5,8.125 -5.25,13.375 -0.125,0.625 -0.875,1 -0.625,1.875 -1.75,2.375 -2.375,5.75 -4.5,7.875 -1,2.25 -1.5,4.875 -3,6.875 -0.375,1.25 -0.25,2.75 -1.125,3.625 0.5,2.625 -0.75,4.25 -1.875,5.625 -0.75,1.25 -0.875,2.875 -1.75,3.875 0.125,1 -1.5,1.5 -0.625,2.25 -1,1.375 -1.125,2.875 -1.5,4.5 -1.5,1.375 -0.875,2.375 -1.5,4.25 0,1.625 -1.25,2.25 -1.125,3.875 -1.375,1.125 -1,3.125 -1.75,4.625 -0.5,0.25 -0.375,0.75 -0.375,1.375 0.125,0.125 0.5,-0.125 0.625,0.125 l -1,2 c -0.625,2.5 -1,3.25 -1.625,5.875 l -0.375,0 c -1.125,1.875 -1.625,5.125 -2.125,6.75 -2,1.75 -1.125,5.375 -3,7.125 l 0.75,0.625 c 1.375,-0.25 -0.25,-2.875 1.375,-2.5 -0.125,0.25 0.25,0.875 -0.375,0.875 1.125,1.375 -0.75,1.875 -0.375,3.25 -1.75,-0.25 -1,1.75 -2,2.125 -1,2 -1.5,4.375 -2.75,6.125 -1.625,1.5 -1.5,4.25 -2.625,6 -1.75,3 -2.125,6.75 -3.625,9.75 l 0.875,0.75 c 0.75,-1.375 1.75,-3.25 1.5,-4.75 1.125,0 0.875,-1.375 1.375,-2.125 l 0.125,0.125 c -0.875,4.125 -2.5,7.5 -3.625,11.5 -1,2 -1.625,4.875 -1.75,6.875 -1,1.625 -0.625,4.25 -1.5,6 -0.25,2.5 -0.625,4.75 -2,6.625 -1.25,0.25 -0.625,1.875 -1.625,2.375 0.125,2.12625 -1.5,2.75 -1.75,4.625 -0.875,1.875 -0.75,3.25 -1.375,4.625 l -0.125,0 c -0.625,3.375 -1.625,6.49875 -0.375,9.125 0.5,1.25 1.5,0.25 2,-0.125 0.5,-2.25 0.125,-5.12625 1.5,-6.75 -0.25,-2.5 0.375,-2.75 0.875,-4.75 -0.875,-1.625 0.5,-3 0.5,-4.5 0.625,-0.875 0.5,-2.25 1.125,-3.375 1.25,-1 0.625,-3.5 1.75,-4.75 0.875,-1.25 1,-1.99875 1.125,-3.625 l 0.125,0.125 -0.375,-1 c 1,-2.62625 1.5,-5.5 3,-7.75 -0.875,-1.75 3.125,-2.375 0.875,-4.375 0.375,-0.375 0.5,-1.375 1,-1.25 l 0,0.5 0.5,0 c -0.125,-0.875 0.25,-1.5 0.875,-1.875 -0.25,-1.5 1.125,-1.625 0.875,-3.125 0.625,-2.375 2.5,-3.75 2.875,-6.375 0.375,-1 1.125,-2.75 1.125,-3.375 0.875,-0.75 0.5,-2.625 1.75,-3.25 -0.125,-2.375 1.625,-3.375 1.75,-5.375 0.375,-1.375 1.375,-2.25 1.125,-3.5 -0.5,1.25 -1,2.375 -1.5,3.5 -1.625,2.125 -1.75,5.75 -3.75,7.125 l 0,-0.375 c 0.875,-0.625 0.5,-2.25 1.5,-2.875 -0.125,-1.5 1.5,-2.25 0.875,-3.375 1.125,-2 1.875,-4.125 2.875,-6.25 -0.5,-0.875 0.875,-1.5 0.125,-2.25 1.5,-2.5 3.125,-5.125 3.875,-8.125 -1.125,0.375 -0.75,2.375 -1.75,3 -0.25,0 -0.5,0.125 -0.625,-0.125 0.875,-1.375 1,-3.125 1.75,-4.5 0.5,-0.625 0.375,-1.625 1.25,-1.75 0.375,-1.625 0.875,-3 2.375,-3.625 0.75,2.25 -1.75,3 -1.375,5.375 -1.375,2.125 -2,4.75 -3,7.25 l 0.5,0.25 c 1,-0.875 0.5,-3 1.75,-3.625 -0.125,-1.875 1.375,-2.625 1.125,-4.75 0.125,0 0.5,-0.125 0.625,0.125 0,0.375 -0.25,0.625 -0.375,0.75 l 0.5,0.25 c 0.25,-0.625 0.5,-1.75 1.5,-1.75 -0.125,-1.625 1.125,-2.375 1.375,-3.875 1.125,-0.625 0.75,-2.875 1.625,-3.875 -1.375,-4 1,-6.875 1.75,-10 0.25,-1.125 1.875,-0.625 2.625,-1.125 0.375,-1 1.25,-2.5 0.875,-3.625 0.125,-1.125 1.375,-1.75 1.375,-3.125 1.25,-0.75 0.625,-2.75 2,-3.125 -0.25,1.75 -1,3.625 -1.625,5.5 1.125,1.5 -0.875,2 -0.625,3.5 -1.5,1 -1.125,3.125 -2,4.625 -1.375,4.125 -3.875,7.125 -4.5,11.5 0,0.75 0.875,0.5 1.125,0.875 0.75,-0.375 0.875,-1.125 0.75,-2.25 1,-0.75 0.625,-2.375 1.5,-3.125 0.25,-1.625 0.75,-3.125 1.125,-4.75 0.5,0 0.625,-0.75 1,-1.25 -0.875,-0.625 0.375,-1.25 0.625,-1.625 0.75,-1.75 2,-3.25 2.375,-5.375 1.125,-1.75 1.375,-4.375 2.75,-5.875 -0.375,-2.5 1.75,-3.25 1.625,-5.75 1,-0.125 1,-1.875 1.125,-2.5 -0.25,0.375 -0.5,1.25 -1,1 -0.625,-1.625 0.875,-1.875 1,-3.25 l 0.625,0.625 c 1.25,-0.875 1,-2.875 2.25,-3.5 2.5,-5.375 5.25,-10.25 7.5,-15.75 0,-2.875 1,-5 1.5,-7.5 0.125,-2.625 0.75,-4.875 1.875,-6.875 2.5,-4.75 5.375,-9.5 9.875,-12.625 0.75,-1.625 3.375,-1.375 3.25,-3.75 1.5,-1.625 2,-4 3,-6.125 0.75,-1.5 0.875,-3.75 2.25,-4.375 -1,1.375 -0.25,3.875 -1.75,4.875 0.625,2.375 -2.375,3.5 -2.125,6.25 0.125,0.5 0.5,1.25 1.25,1 1.875,-0.625 2.875,-2.875 4.75,-3.375 -0.125,1 -1.125,2.125 -0.25,3.125 1.625,-0.25 2.25,-2.125 2.75,-3.75 0.75,-1.875 1.625,-2.75 2.25,-4.625 l 0.625,0.375 c -1.5,0.625 0.5,1.75 -0.625,2.625 1,1.375 -0.375,3.125 0,4.125 -0.5,1.5 -1.125,3 -1.75,4.375 -0.875,2.75 -2,5.125 -3.625,7.25 -1,3.625 -4,6 -4.5,10 0.5,-0.25 0.875,-0.75 0.875,-1.5 1.25,-0.375 0.625,-2.25 1.75,-3 0.125,-2.75 3.875,-2.75 3.5,-5.875 -0.125,-1.125 1.875,-1.375 1,-2.375 1,-2.25 2.625,-4.25 3.875,-6.375 0.25,-3.125 1.75,-4.875 2.25,-7.875 1.25,-0.75 0.375,-3.5 2.25,-3.875 0.5,-1.75 1.375,-3.25 2.625,-4.5 0.375,-2.125 1.75,-3.625 2.5,-5.5 2,-0.75 0.75,-3.875 2.375,-5 0.25,-1.625 1.625,-2.625 2.375,-4 -0.5,-2.125 2.125,-2.125 2.125,-4 3.25,-3 4.375,-7.5 7,-11.25 1.25,-0.75 1,-2.75 2.25,-3.5 -1,-0.875 0.625,-1.25 0.875,-1.875 0.625,-3.125 3.375,-5 4.75,-7.75 3.625,-1.5 4.5,-5.75 6.125,-9 -0.75,-0.375 0.25,-1.125 0.125,-1.375 -0.25,-2.375 2,-3.875 2.5,-6 1.25,-1.5 2.5,-3.5 1.5,-5.875 1,-0.875 -0.625,-1 -0.25,-2.25 -1.625,-1.5 -1.5,-4.25 -3.625,-5.375 -3,0.5 -5.125,0.5 -8.25,0 z m 152.375,13.25 c -1.625,1.625 -4.5,1.5 -5.75,3.5 -0.75125,0.875 -0.625,1.125 -0.25,2.125 2.125,2.125 4.24875,-0.5 6.25,-1 1.5,-1 0.75,-2.125 0.5,-3.75 0.25,-0.25 0.62375,-0.125 1,-0.125 0,-0.875 -1.5,-0.125 -1.75,-0.75 z m -13.5,5.375 c -0.875,1.125 -2,-0.125 -3.25,0.875 -0.375,1.375 0.625,1.75 1.25,2.25 1.5,-0.25 2.25125,-1.75 2.75,-3.125 l -0.75,0 z m 24.1875,2.875 c -2.06876,-0.0889 -3.40516,1.20313 -4.9375,0.875 -2.12375,1 -5.24875,-0.125 -7.25,0.375 -3.87375,1.625 -7.99875,2.75 -11.5,4.875 -4.87375,1.625 -8.50125,4.875 -12.75,7.5 -3.25125,3 -7.00125,5.75 -9.75,9.25 -2.75,1.875 -4.875,5 -7,7.375 1.62375,1.375 1.375,-1.25 2.75,-1.25 0,1.75 2.25,0.625 3.375,1 l 0,-0.375 c 1.375,-1.25 2.125,-3 3.875,-4.125 0.99875,-0.25 0.37375,-2.25 2,-1.375 -3.50125,4.125 -6.125,8.625 -9.625,12.625 -0.75125,0.5 -0.875,1.875 -2.125,1.75 -0.625,1.5 -0.87375,3.125 -2.375,3.875 -1.62375,2.875 -3.75125,5.25 -5.375,7.875 -0.5,1.625 -3.25,2.25 -1.875,4.5 0.25,2.25 0.875,4.125 0.625,6.75 0.5,2.125 0.5,5.125 0,7.25 -0.75,2.625 1.25,3.375 1.75,5 1.875,0.875 1.375,3.5 2.75,4.625 1.75,3.75 2.75,8.75 2.75,13.125 1.875,-1.375 2.49875,-4.375 5.25,-5.125 1.25,-2.125 3.12625,-3.25 4.75,-4.875 0.625,-0.125 0,-1.25 0.625,-1.5 0,0.125 0.125,0.25 0.125,0.375 l 1,-1.25 c 0.5,-0.75 1.50125,-1 2,-1.75 2.00125,-0.75 2.24875,-3.25 4.5,-3.625 1.12375,-0.625 1.37625,-2.25 2.75,-2.25 l 0,0.125 0.875,-1.75 c 0.625,0.25 0.75,-0.375 1.125,-0.625 1.74875,-1.25 3.37625,-2.625 4.875,-4.25 1.37625,-0.5 2.00125,-2.375 3.75,-2.625 2.125,-1.5 3.99875,-3.375 6.625,-4.5 0,0.375 0.375,0.125 0.375,0.625 -3.87625,3 -7.37625,6.375 -10.375,10.25 -2.25125,1.25 -2.875,3.625 -4.5,5.5 0,0.625 -1.125,-0.125 -0.75,0.875 -0.13966,0.27931 -0.58116,0.74463 -0.84375,1 3.21516,0.35048 3.22611,-2.62933 5.34375,-3.875 1.37625,-0.125 1.75125,-1.375 2.875,-1.75 2.87625,-3.375 6.125,-7.125 9.875,-9.625 0.25,-3.125 3.49875,0.125 3.75,-3 1.875,-0.625 2.375,-2.5 4.25,-3 0.24875,-0.75 1.5,-0.625 1.5,-1.5 1.75125,-0.25 2.62625,-1.875 4.375,-2.125 0.37625,-1.375 2.25,-1 3.25,-1.75 1.99875,-0.125 2.25125,-2.125 4.5,-1.875 l 0,-0.25 c 3.37625,-0.75 5.625,-3 7.875,-5.125 0.625,-1 2.49875,-1.125 2.625,-2.5 1.37375,-0.625 2.125,-2.375 3.125,-3.5 0.875,-0.375 1.25,-1.625 2.25,-2.125 0.75,-1.25 0.87625,-3.25 0.375,-4.75 0.625,-1.25 -10e-4,-3.5 0.25,-4.5 -0.125,-0.625 0.25125,-1.5 -0.25,-1.875 0.50125,-1.5 -1.125,-1.5 -0.875,-2.75 -2.125,-1.125 -2.25125,-3.625 -3.375,-5.5 -3.50125,-0.625 -4.50125,-4.125 -6.875,-6.125 -0.75125,-1.25 -2.125,-2.125 -2.375,-3.75 l -0.5,0 c -0.87375,-1.5 -2.74875,-1.75 -3.75,-3.25 -1.625,-0.5 -3.24875,-1.625 -4.75,-1.375 l 0,-0.125 c -0.32797,-0.0781 -0.64196,-0.1123 -0.9375,-0.125 z m -160.1875,4.875 c 0.125,0.5 -0.25,1 -0.75,0.75 l 0.75,-0.75 z m 74.5,10.5 c 0,0.5 -0.37375,1.625 -0.875,2 0,-0.875 0.5,-1.375 0.875,-2 z m -3.25,9.875 c 2.14875,2.70625 5.28125,14.625 6.15625,18.625 0.5625,2.93 -0.23375,13.34125 -3.03125,19.375 0.625,1.875 -1.5,2.5 -2.375,3.5 -6.375,2.875 -10.75,9.25 -15.5,14 -1.375,3.125 -2.33,6.90875 -2.625,10.375 0.1775,2.315 0.53125,11.045 4.5,13.375 2.74875,5.125 -1.125,9.625 -1.875,14.125 -1.125,2.625 -11.625,29 -12.875,30.25 -0.875,-0.625 -8.375,-27.625 -9.75,-30.25 0.125,-2.125 -1,-4.375 -0.625,-6.125 -0.5,-5.375 2,-10.5 2.625,-15 l 0.125,0 c 0,-1 -0.21875,-13.625 -0.59375,-13.625 -0.375,-1.875 -3.97,-8.4075 -4.71875,-9.90625 -2.59625,-6.6075 -9.8125,-6.46875 -12.4375,-12.21875 0.625,-1.5 -2.46875,-1.845 -1.84375,-3.34375 -2.00625,-3.30375 0.47875,-23.01625 2.84375,-27.53125 0.625,-1 0.875,-2.5 2,-3 0,-0.25 0.125,-0.75 -0.125,-0.75 -3,1.125 -6,2.375 -8.375,4.5 -5.375,4.75 -14.035,12.84875 -14.375,33.625 0.25,1.75 0.625,4.875 -0.375,6.375 -2.375,1.375 -2.82375,3.76125 -4.5,5.875 -4.22375,4.49375 -3.125,14.875 -3,17.875 0,4.75 3,7.625 4.875,11.125 2.125,3.125 5.125,5.25 7.75,7.875 1.5,1.25 0.875,4 1.875,5.75 -0.875,3.25 -0.375,25.375 -1.875,26.25 0,2.375 -0.625,4.25 -0.875,6.375 -0.25,1 -3.5,-1.5 -4,-2.75 -4.25,-4.25 -7.375,-9.125 -11.75,-13.25 -0.875,-1 -1.5,-2.25 -2.125,-3.625 1,-6.75 -1.125,-11.25 -5.125,-14.5 -0.625,-0.375 -0.875,-1 -1.5,-1.375 -2.75,-3.125 -6.125,-5.375 -11.25,-5.25 -6.125,0.625 -6.625,-5.5 -9.75,-8.5 -4.64,-8.05375 -4,-29.375 -1.125,-34.125 -1.75,1.375 -3.875,2.125 -5.25,3.875 -2,3 -4.5,5.5 -6,8.75 -4.6525,9.67125 -3.25,22.625 -2.125,26.75 0.375,1.625 2.75,8.75 2.125,11.625 -1.25,0.875 -0.125,3.375 -0.875,4.5 -1.4175,1.605 -3.54125,12.5775 0,19.125 1.5,2.875 1.5,7.125 4.625,8.625 2.92375,3.94 11,3.625 11.625,3.625 1.625,1.5 3.5,2.375 4.75,4.375 1.25,2.625 3.375,4.375 4.5,7.125 3.125,2.875 3.5,7.5 5.375,11.25 1.75,3.375 3.375,6.625 6.25,9.25 0.625,1.5 9.125,5.25 9.75,8.5 -0.125,1.75125 3.75,15.25 4.375,15.75 2.625,6.375 6.5,11.75 10.5,17.125 1.125,1.37625 1.375,3.37375 2.125,5.125 0,4.74875 3,8 2.5,12.875 0,0 0.5,13.74875 0.75,19.625 0,0.12375 -1,22.75 -1.125,23.375 -0.625,1.625 -1.75,8.375 -2.75,9.5 -0.75,3.62625 -5.5,11.12625 -6,12 -3.5,6.62625 -8.125,12.25125 -13.625,17.375 -1.74,1.57625 -5,3.00125 -4.625,3.875 3.375,1.5 8.5,1.62625 12.75,1.125 3.93875,-0.35625 6.25,-2.5 7.75,-2.75 0.625,3.25125 -4.625,14.375 -5,16.25 -0.5,1.25 -4,7.25 -5.625,8.75 -1.875,4.75 -8.52375,11.0225 -10.25,12.625 0.125,0.87375 1.25,0.37625 1.875,0.5 3,-1.37375 16.25,-11.00125 16.75,-12 1,-0.12625 1.125,-1.75125 2.125,-1.625 -0.375,1.99875 -0.61875,16.24125 -6,25 -3.5,6.25 -6.125,13.125 -10.5,18.75 -0.875,0.87375 -2.125,2.25 -1.875,3.125 0.5,-0.12625 1.375,0.24875 1.5,-0.25 2.5,-1.75125 5.5,-3.12375 7.75,-5.125 3.75,-2.12375 6.75,-5.5 9.875,-8.375 1.25,-1.875 8.75,-12 9.625,-13.25 l 0.125,0.125 c -0.125,0.49875 -2.38875,12.87625 -3,15.375 -0.625,2.62375 -5.625,14.875 -7.5,18.25 -2.125,4.625 -5.25,8.75 -7.875,13.125 -3,4.75 -5.75,10.12625 -9.875,14 0.625,-0.375 2.125,0 2.75,-0.5 3.125,-2.375 6.5,-3.875 9.625,-6.375 1,-0.875 2,-2.25 3.125,-3 2.375,-2.875 10.36125,-10.625 15.625,-18 2.2875,-2.535 4.75,-7.75 6,-8.375 0.25,0.375 0,0.99875 0.125,1.5 0.875,2.37375 2.30125,16.84625 4.75,22.5 2.38875,5.2 4.375,9 7.5,12.75 0.75,0.12375 0.125,1.625 1.375,1 l 0,-0.875 c -1,-1.99875 -2.375,-13 -2.125,-16.5 -0.75,-1.875 0.47625,-15.71625 1.625,-18 1.25,0.12375 0.25,1.875 1,2.25 0,2.99875 1.125,5.625 0.875,8.25 0.0437,3.9375 2.125,7.62625 3.125,9.375 -0.60375,-3.315 -0.125,-7.5 0.25,-9.5 1.5,-2 2.45,-3.8425 3.375,-6.75 0.25,-2.125 0.25,-4.25 1.5,-5.75 1.75,1.5 4.87375,17.25 4.625,20.5 0,0.125 -0.125,13.875 -0.25,14.5 -0.12625,0.75 -0.12625,1.625 0.75,1.625 l 1,-1.75 c 2.62625,-2.625 5.885,-11.6425 6.90625,-15 0.86625,-1.95125 0.5925,-4.75 2.21875,-5.375 1.49875,3.375 3.5,6.25 5.625,9.25 2.74875,1.625 3.87625,4.875 7.125,5.75 0.625,0.375 2,0.5 2.625,0.375 -1,-0.87375 -4.375,-12.25125 -4.75,-14.25 0,0 -0.25,-4.375 -0.75,-6.375 2.375,1.5 13.51125,9.08 21.375,10.625 4.5,0.75 8.37375,2.25125 13.5,2.125 -1,-1.25 -2.375,-2 -3.5,-2.875 -5.00375,-3.0375 -19.75125,-22.12625 -21.75,-25.125 -0.71625,-0.92 -1.25,-2 -1.375,-3.25 2.875,1.37625 4.76375,5.2 7.59375,7.0625 1.7725,1.20375 10.65625,6.81375 15.65625,7.6875 0.25,-1.12375 -0.99875,-1.25125 -1.125,-2.125 -10.37375,-12.18125 -11.87625,-19.12625 -12.625,-20.625 -0.25,-0.75125 -3.5,-11.75 -3.25,-13.625 0.125,-1.37375 -0.5,-3.75125 -0.5,-5.375 0.625,0.12375 2.20125,1.04875 4.46875,1.5 6.2275,2.14375 23.9475,2.935 25.53125,2.75 0.5,-0.24875 1.625,0.375 1.625,-0.5 -4.62625,-1.25 -8.125,-4.25 -11.125,-7.75 -1.5,-2.375 -14.375,-22.5 -14,-24.375 1.875,0.125 4.37625,0.37375 6.125,1.125 9.18625,2.41875 22.5175,1.12125 25.625,0 0,-0.25 0.125,-0.75 -0.125,-0.75 -4.375,-1 -8.25,-2.87625 -12,-4.5 -4,-2.875 -8.50125,-5.12625 -11.875,-8.75 -1.62625,-1.50125 -3,-3.00125 -4.25,-4.75 -2.5,-2.00125 -3.375,-5.24875 -5,-7.875 -2.25,-2.25 2.125,-1 2.75,-2.25 2.99875,0.50125 10.875,-3.37625 10.125,-5.5 -10.695,0.68875 -19.6625,-14.0575 -21.375,-19.125 -0.375,-1.5 -4.53875,-21.715 -3.875,-33.125 0,0 1.125,-11.25 0.875,-13.5 4.25,-5.5 3.75,-14.625 7.5,-20.5 -0.25125,-0.87375 0.5,-1.25 0.625,-1.875 1.62375,-3.875 1.5,-9.125 3.625,-12.875 -0.25,-1.375 0.375,-2.125 0.625,-3.25 -1.25,-3.625 2.00125,-3.625 3,-5.75 1.37625,-4.875 12.25125,-15.375 13.125,-15.25 1.75125,-3.125 5.125,-5.375 6.625,-8.75 2.74875,-2.5 5.75125,-4.5 9,-6.25 2.25,-1.625 9.315,-2.53625 12,-4.875 0.625,-2.5 3.1875,-3.875 3.4375,-6.625 0.87375,-1.625 0.68875,-3.875 1.4375,-5.625 0.935,-4.2875 -0.25125,-7.125 -0.375,-10.625 -1,-2.375 0.625,-4.25 0.875,-6.375 1.37375,-2.5 3,-12.75 3.625,-15.375 0.94,-3.89 -1.285,-23.39125 -10.28125,-31.5 -0.875,-1 -2.34375,-2.25 -3.59375,-2 l 1.125,2.75 c 1.74875,3.625 1.65375,7.275 1.25,11.875 0.24875,2.625 -1.71875,11.9175 -3.875,14.75 -2.09,4.36375 -4.875,4.625 -7.375,7 -2.00125,-0.5 -5.08875,0.86625 -7.34375,0.90625 -2.375,0.25 -7.53,5.34375 -9.65625,7.46875 -6.85625,4.9175 -4.24875,16.875 -3.125,18.25 -0.99875,0.375 -0.62625,1.875 -2,1.875 -1.5,1.75 -3.75,2.5 -5.625,3.875 -2.25,3.375 -5.50125,5.375 -8.75,7.5 -1.12625,1.875 -3.12375,3.5 -4.875,4.375 0,-2 -0.375,-4.25 0.25,-5.875 -0.87625,-2.625 2.87375,-13 3.25,-13.625 -0.125,-1.25 4.625,-27.625 7.125,-29.125 7.36,-0.1475 10.75,-10 10.875,-11.625 4.03375,-16.36625 -5.37375,-26.375 -7.125,-28.5 2.3125,-23.5 -6.10875,-31.96875 -6.625,-33 -1.75,-2.375 -3.37625,-4 -5.375,-6.25 -3.375,-2.625 -6.5,-5.25 -10.375,-7.25 z m 117,0.375 c -0.5,0.875 -1.875,0.5 -2.375,1.5 -0.25,1.375 0.12625,2.375 0.875,3.125 2.25125,0 1.24875,-1.5 2,-3.125 -1.125,-0.5 0.75,-1.25 -0.5,-1.5 z m -195.625,1.75 c -1,0 -0.25,1.25 -0.875,1.5 -0.125,1 0.125,1.75 0.875,2 2,0.125 0.875,-2.5 2.625,-2.625 -0.25,0 -0.5,0.125 -0.625,-0.125 -0.375,-0.5 -1,-0.875 -2,-0.75 z m 74.125,2.375 c -0.87375,2.25 -2.25,3.875 -3,6.25 0.125,-0.125 0.25,0 0.25,0.125 2.5,-0.25 2.74875,-3.375 4.125,-5.125 -0.75125,-0.125 -0.87375,-1.125 -1.375,-1.25 z m 28.6875,7.125 c -0.62516,0 -1.43813,0.4375 -1.6875,0.875 0.125,1.125 1.37625,1.5 1.75,2.375 1.37625,-0.25 -0.5,-1 0.5,-1.5 0.5,-1.3125 0.0627,-1.75 -0.5625,-1.75 z m -36.4375,2.875 0.75,0.25 -0.625,1.375 -0.125,-1.625 z m -85.875,9 0.125,0.125 0,0.25 -0.125,-0.375 z m -2.375,0.875 c -0.125,0.875 -0.25,2.5 -1,3.25 -0.25,1.5 -0.625,3 -2,3.5 0.125,-2.375 1.75,-3.625 2.125,-5.875 l 0.875,-0.875 z m 2.125,0 c -0.25,0.625 -0.125,2.375 -1.25,2.5 0.375,-0.875 0.375,-2.125 1.25,-2.5 z m 78.53125,7.5 c -0.2907,0.0366 -0.49219,0.34375 -0.53125,1.125 0.24875,0.875 1.25,1.625 1.625,1.875 l 0.625,-1.125 c -0.0868,-0.6875 -1.0792,-1.95557 -1.71875,-1.875 z m -86.03125,0.25 c 0.25,0.25 0.25,1 -0.125,1.125 l -0.25,0 0.375,-1.125 z m -0.75,2.125 c -0.5,0.375 -0.25,1.375 -1.125,1.375 0.25,-0.5 0.625,-1.25 1.125,-1.375 z m 168.625,4.25 0,0.375 -0.5,0 c 0.12625,-0.125 0.375,-0.375 0.5,-0.375 z m 80.375,3.25 -0.625,0.25 c 0.0145,0.008 0.0172,0.0232 0.0312,0.0312 0.22373,-0.0385 0.43204,-0.11913 0.59375,-0.28125 z m -0.59375,0.28125 c -0.46631,0.0803 -1.02442,-0.0312 -1.53125,-0.0312 -0.5,0.75 -1.375,1 -1.25,2.125 -1.125,-0.25 -1.62625,0.5 -2.5,0.625 -0.625,0.625 -0.24875,1.5 0.25,2 2.37625,0.125 2.375,-0.125 4.125,-1 0.49679,-0.99358 3.08114,-2.47362 0.90625,-3.71875 z m -18.4375,6.59375 c -0.34375,0 -0.65625,0.0625 -0.84375,0.375 -3.25125,-0.875 -4.12375,1.375 -7,1.125 -0.12375,1.75 -1.5,-0.75 -1.625,0.875 -1.25,-0.125 -2.12625,1.375 -3.125,0.375 -5.125,2 -10.87625,3.125 -15.375,6 -3.75,3.625 -9.125,5 -12.75,9 -0.375,0.5 -1.625,0.5 -1.875,0 -1.375,1.75 -3.375,3.25 -5.25,4.5 -0.49875,0.625 -1.25125,0.75 -1.375,1.625 l 0.125,0 c 0.50125,2.375 0.75125,5 1,7.5 0.625,2.625 0,6 0.625,8.5 0.37625,1.875 -0.62625,3.25 -0.25,4.375 -1.5,1.875 -0.24875,5.25 -1.625,7.125 0,0.875 -0.49875,2.875 -1,4.125 -1.875,2.5 -1.74875,7 -1.25,10.5 -1.25,3.625 1.125,8 -1,11 0.875,-0.25 1.25125,0.375 1.375,0.875 0.37625,-1.25 2,-1.125 2.625,-2.375 2.62375,-1.125 4.12625,-3.625 6.375,-5.125 2.12625,-1.75 4.5,-3.625 6.75,-5.375 0.375,-0.875 1.625,-0.625 1.875,-1.5 l 0.75,0.25 c 1,-1.625 2.75,-2.25 4,-3.875 1.25,-0.5 1.62375,-1.875 3.125,-2.125 1.37375,-2.25 4.25125,-2.75 6.375,-4.125 0.37625,-1.125 1.24875,-2 2.375,-2.5 1.75,-2.25 4.50125,-3.75 6.625,-5.625 1.00125,3 2.75,-0.5 4.25,-0.125 0.375,1.75 -1.62375,1.5 -2.375,2.375 -0.625,0.875 -0.625,1.625 0,2.5 1.00125,0.25 1.75,-0.125 2.125,-0.875 2.75,-1.125 4.74875,-3.625 7.5,-4.75 1.62375,0 1.875,-1.125 2.75,-2.125 1.75,-0.75 2.5,-2 4.25,-3 0.5,-1.75 2.5,-2 3.25,-3.625 0,-0.75 1.37375,0.25 1,-0.75 1.25,-0.875 2.125,-2.25 3.125,-3.5 1.5,-0.125 1.37625,-2.125 2.875,-2.375 0.50125,-0.25 0.25125,-1.25 1.25,-1.125 l 0,-0.5 c 0,-0.5 0.25,-0.875 0.875,-0.75 0.25,-1.375 -0.625,-3.75 -0.375,-5.25 -0.50125,-0.125 -0.125,-1 -0.25,-1.5 1.125,-2.25 -0.87625,-3.625 -0.625,-6 -1.50125,-1.75 -3,-3.625 -4.5,-5.375 -3.87625,-1.5 -5.375,-6.875 -10.5,-5.875 -0.625,-1.375 -2.12625,-2 -3.25,-2.875 -0.3125,0.0625 -0.6875,0 -1.03125,0 z m -75.09375,7.8125 c -1.32162,0.1571 -3.20312,2.51562 -4.75,2.6875 -0.625,2 -2,3.25 -2.75,5.125 -0.625,0.625 0,1.75 0.625,2 1.375,-0.125 1.625,-1.5 2.875,-1.875 0.50125,-0.25 0.25125,-1.25 1.25,-1.125 1.25,-1.875 2.75,-3.5 4.125,-5.25 -0.27344,-1.25 -0.77426,-1.63391 -1.375,-1.5625 z m 3,2.4375 c -0.875,0.75 -1.87375,1.75 -2.625,2.625 0.25125,0.875 0.625,1.75 1.625,1.75 -0.12375,-0.875 0.87375,-2 1.75,-2.75 0.25,-0.875 -0.25125,-1.25 -0.75,-1.625 z m -188,9.875 0.375,0.25 -0.25,0.5 -0.125,-0.75 z m -3.46875,0.4375 c 0.22656,-0.0137 0.4375,0.15625 0.59375,0.5625 -1.5,2.75 -3,5.5 -4.5,8.125 -0.5,1.75 -1.375,3.125 -1.625,4.875 -1,1.125 -1.375,2.375 -1.75,3.875 -0.5,-0.25 -0.5,0.375 -0.875,0.625 l 0,0.25 -0.375,0 c 0.25,-1.25 1.75,-2.125 1.125,-3.5 0.75,-0.25 0.25,-1.75 1.125,-2 0.25,-1.625 2.375,-2.5 1.625,-4.25 1.625,-1.5 2,-4 3.25,-6 -0.0937,-0.9375 0.72656,-2.52148 1.40625,-2.5625 z m 119.46875,0.1875 c -1.74875,1.875 -2.75,4.25 -4.25,6.25 -1.125,4.125 -4.5,6.75 -5.25,11.125 -1.25,1.625 -1.75,3.75 -2.75,5.375 -2.25,3.375 1.625,4.75 1.25,8.125 1,2.875 1.5,6.125 3,8.75 0.25,1.25 0.375,2.75 1,3.75 2.25,-3.25 3.625,-6.875 6,-10 0.25,-0.5 0.625,-1.125 0.875,-1.75 0,-1.375 1.25,-1.875 1.25,-3.25 0.5,-1.75 1.25,-3.25 1.625,-5.125 0.37375,-4.25 3.75125,-7.625 1.625,-12.5 -0.12375,-4.5 -3.125,-7.125 -4.375,-10.75 z m -60,12.625 c -0.75,2.25 -1.875,4.5 -3,6.5 0.25,1 -0.25,1.625 -0.5,2.125 -0.375,1.375 -1.75,2.125 -1.5,3.75 3.125,2.5 2.625,7.375 2.625,12 0.625,0.125 0.625,0.875 0.625,1.5 1,0.5 1.375,1.75 2.125,2.625 3.125,2.875 5.875,6 8.375,9.375 0.5,-1.25 0.875,-3.25 0.75,-4.375 0,-0.375 0.25,-0.5 0.625,-0.75 0.5,-5.75 1.5,-12.5 0.25,-18.25 1.25,-6.625 -5.625,-7.125 -7.5,-11.5 -1.375,-0.625 -1.625,-2.5 -2.875,-3 z m -62,5 0.125,0.5 0,0.25 -0.125,-0.75 z m -6.375,1 0.125,0.125 0,0.25 -0.125,-0.375 z m 5.75,0.25 0.375,0 0,0.5 -0.375,0 0,-0.5 z m 277.53125,2.09375 c -1.5204,0.15552 -2.01563,1.78125 -3.65625,1.78125 l -0.5,-0.875 c -1,0.75 -2.00125,1 -2.75,1.75 -0.75,1.625 -2.75,2.5 -1.5,4.75 0.5,0.75 1.375,1 2.5,0.875 0.37375,-1 1.25,-1.625 2.375,-1.875 1.625,-1.875 4.375,-2.875 5,-5.25 -0.25,-0.375 -0.99875,-0.5 -0.75,-1.125 -0.26547,-0.0469 -0.50155,-0.0535 -0.71875,-0.0312 z m -213.65625,0.75 c -0.0596,0.42298 -0.0993,0.90625 -0.625,0.90625 0,-0.43403 0.40899,-0.61958 0.625,-0.90625 z m 200.125,7.40625 c -0.625,0.625 -1.25,1.125 -2.125,1.5 0.12375,0.625 -0.50125,2 0.625,1.875 0.875,-0.75 1,-2.375 2.25,-3.125 l -0.75,-0.25 z m -4.25,1.125 c -0.625,0.75 -2.375,0.25 -2.875,1.25 -1.25,1 -0.25,1.625 0.5,2.5 1.625,-0.625 2.74875,-1.75 3.5,-3.375 l -1.125,-0.375 z m -5.96875,1.25 c -0.15812,0.0215 -0.28156,0.0937 -0.40625,0.25 -4,-0.625 -3.50125,3.375 -5.625,4.875 0.75,0.5 0.49875,2.375 2.25,1.625 l 0,-0.5 c -0.12625,-0.625 0.625,-0.375 0.875,-0.375 l 0,-0.375 c 0.375,-0.25 0.49875,-0.75 1.25,-0.625 0.75,-1.625 3.75125,-1.25 3,-4.125 -0.28031,-0.375 -0.86937,-0.81445 -1.34375,-0.75 z m 11.71875,3.25 -0.375,1.5 c 0.12625,1 1.24875,1.125 2,1.375 l 0.25,-0.875 c -0.125,-1.125 -0.75,-1.875 -1.875,-2 z m -278.375,2.125 c 0.75,0.125 0.25,1.25 0.125,1.625 -0.25,1.125 -1.375,1.625 -1.25,3 -0.75,0.25 -0.375,-1 -0.75,-1.375 0.75,-0.875 1.875,-1.75 1.875,-3.25 z m -5.25,10.5 c 0.125,1.75 -1.875,2 -1.5,3.75 l -0.5,0 c 1.125,-0.875 0.125,-3.375 2,-3.75 z m -2.125,0.25 -1.5,4.5 c -0.125,-0.875 -0.625,-1.875 0.375,-3 0.375,-0.375 0.5,-1.25 1.125,-1.5 z m -2.625,5.125 0.75,0 c -0.625,0.625 -0.625,1.75 -1.125,2.625 -0.625,-0.875 1,-1.375 0.375,-2.625 z m -0.875,3 c 0.625,2 -1.625,2.625 -1.375,4.625 -0.875,2.375 -1.625,4.875 -2.75,7 1,-2.125 1.125,-5.125 2.375,-7.25 0.625,-1.5 1.125,-2.875 1.75,-4.375 z m -0.15625,7.875 c 0.0623,-0.0227 0.17187,-0.0312 0.28125,0 -0.125,0.5 -0.5,1 -1,1.25 l -0.25,-0.375 c 1.09375,0.54688 0.53296,-0.71606 0.96875,-0.875 z m 2.90625,4.65625 c -0.67163,-0.0598 -0.375,0.71875 -1.25,0.71875 -0.25,1.5 -0.875,2.625 -1.5,3.875 -1,1 -0.25,3.25 -1.75,3.875 l 0.25,0.5 c -2.625,3.75 -2.125,8 -3.875,12.375 -0.125,2 1.5,0.75 2.25,1.125 0,-2.625 1.125,-4.5 1.75,-6.5 l -0.125,0 c 0.125,-1.75 1.5,-3.125 2.25,-4.625 -0.75,-1.125 0.25,-2.25 0.375,-3.25 l 2.625,-6.375 -0.625,-1.625 c -0.14063,-0.0469 -0.27905,-0.0852 -0.375,-0.0937 z m -1.875,4.59375 0.5,0 c -0.125,1 -0.875,1.625 -0.625,2.875 l -0.375,0 0.5,-2.875 z m 59.5,1.5 c -0.375,1.625 -1.125,2.625 -1.25,4.375 0.875,0.375 0.125,-0.75 0.75,-0.625 0,-1.375 1.125,-2.25 0.875,-3.75 l -0.375,0 z m 1.75,2.125 -1.5,3.625 c -0.75,6.75 -5.25,11 -7.75,16.625 -0.75,3 -2.25,5.5 -3.375,8.25 -0.875,1 -0.75,2.62625 -1.125,4 -1.375,3.62625 -2.875,6.75125 -4,10.375 0.25,1.5 -1,1.75 -0.5,3.5 -0.875,1.125 -1.125,2.625 -1.875,3.75 0,-0.125 -0.125,-0.24875 -0.125,-0.375 -4.375,2.62625 -9.25,4.62375 -14.25,6.375 -1.5,1.25 -4.375,0.875 -5.5,2.625 -1.125,0.125 -2,-0.12375 -2.5,-0.875 -1.75,-0.125 -3.125,0.12625 -4.25,0.875 -3.375,2.125 -7.5,3.24875 -11.125,4.875 -1.25,1.25 -3.5,1.125 -4.625,2.375 -2.375,0.375 -4.125,1.625 -6.25,2.375 -0.875,1 -3.75,1.375 -2.625,3.5 1.375,1 2,-0.75 3.125,-0.75 1.125,-0.75125 2.5,-1.87375 3.75,-1.375 -2.875,1.37625 -4.875,3.75 -8.125,4.625 -3.75,2.37625 -8,3.62625 -11.5,6.25 -0.5,0.625 -1.25,0.25 -1.5,1 -2.375,0.75125 -3.375,2.875 -5.875,3.5 -0.75,0.75 0.125,1.49875 0.25,2.25 3.625,0.37375 4.75,-2.875 8.25,-2.625 1.5,-2.5 4.5,-3.5 6.75,-5.125 2.5,-0.75 3.5,-3.375 6.75,-3 l 0,-0.625 c 0.5,-0.75 1.5,-1.12375 2.125,-1.625 0.75,-0.25 3,-0.25 4.375,0 0.125,0.375 -0.125,0.625 -0.25,0.75 0.5,0.25 0.5,-0.375 0.875,-0.625 1.625,0.25 2.375,-1.12625 3.75,-1.5 1.625,-1.12625 3.875,-1.87375 5.5,-3.25 1.25,0.5 2.5,-0.75 3.75,-1.25 0.25,0.12625 0.125,0.5 0.125,0.625 l 0.5,0 c -0.75,-1.74875 1.25,-0.87625 1.625,-1.75 2.125,0.49875 2.625,-1.25 4.375,-1.25 0.875,-0.12625 0,1.25 0.875,1.25 1.25,-1.37625 3.625,-1.375 4.625,-3 1.5,-0.25 2.5,-1.37375 4.125,-1.5 0.75,-1.5 3.25,-0.75 4.375,-1.875 1.875,0.5 4,-2.5 4.5,0.625 -0.125,0.12625 -0.25,0.24875 -0.375,0.125 l 0,1.375 c -1.25,0.875 -1,3.00125 -2.5,3.5 -2.75,-1.12375 -4.875,0.875 -7.125,1.5 -0.375,0.25 -0.375,1.625 0,1.875 1.75,1.25 2.125,-1 3.5,-1.125 1.125,0.875 2.375,-0.37625 3.5,-0.25 -1.875,4.74875 -2.875,9.75 -4.875,14.125 -2,2.625 -2.125,6.75 -3.875,9.375 -1.125,3.25 -2,6.75 -3.625,9.5 -1.625,4.375 -2.75,9 -4.75,13 -0.125,3.25 -1.5,5.375 -1.875,8.5 -0.875,2.62625 -1.75,5.24875 -2.625,8 0,1.37375 -1.25,1.99875 -1.25,3.375 0.375,0.12375 0.75,-0.125 0.875,0.125 -1.375,4.5 -2.375,9 -4.5,13 -0.125,0.375 -0.625,1.49875 0.25,1.625 l 0.5,-0.875 c 2.25,-1.875 2.625,-4.62625 3.625,-7.25 -0.25,-1 -0.125,-1.50125 -0.625,-2.5 1.5,-1.12625 0.75,-3.75 2,-5 -0.625,-1.625 1.625,-2.625 1.625,-4.5 0.25,-2.12375 2,-3.125 2,-5.375 1.5,-0.875 0.875,-3.12625 2.125,-4.25 1.875,-2.25125 2.75,-6.125 3.875,-8.625 l 0.125,0 c -0.125,-1.5 0.875,-1.875 0.875,-3.25 1.125,-1.49875 1.5,-3.625 2.125,-5.5 0.875,-2 1.875,-4.25 2.5,-6.125 -0.125,-0.875 0.875,-2.25125 0.5,-3 0.125,-0.12625 0.125,-0.25 0.25,-0.125 l 0,-1.125 c 1.375,-0.12625 1,-1.75 1.5,-2.625 0.25,-1 1.375,-1 1,-2.25 0.25,-0.25 0.375,-1.12625 1,-0.75 l -0.25,1.625 c -1.5,2.12625 -2,4.875 -3,7.375 0.375,1.75 -1,2.125 -1,3.75 -0.875,1.375 -1.125,3.5 -1.625,4.75 -0.5,2.62375 -2,5.49875 -2.375,8.125 -0.625,3.125 -1.75,6.37375 -2.5,9.625 l 0.75,-1.5 c 1.25,-5.25125 4.125,-8.875 4.875,-14.5 l 0.5,-0.25 c -0.625,-2.5 2.25,-3.75 2.125,-6.625 1.125,-1.625 1.375,-3.875 2,-5.875 2.125,-4.62375 3,-8.37375 5.125,-13.125 0.5,-0.75 0.75,-1.49875 1.5,-2 0.25,0.25 0.125,0.625 0.125,0.875 1.375,-0.5 2.125,-2.00125 2.25,-3.5 0.75,-1.50125 1.125,-4 1.375,-5.125 1.625,-2 0.75,-6.5 4.5,-6.625 0.75,0.875 1.5,-0.37625 2.125,-0.125 -0.25,2.5 -1.875,4 -2.125,6.375 l 0.125,0 c 0.125,1.25 -0.75,2.37625 -0.375,4 0.5,-0.37375 0.75,-1.25 1.125,-1.875 1.5,-0.37375 0.25,-3.125 2.25,-2.625 -0.5,-1 -0.375,-1.12625 0,-2.125 -0.5,-2.37625 2.25,-2.25 2.125,-4.25 1,-0.74875 -0.625,-1.37375 0.5,-2.125 1.375,0.625 2.5,-0.875 4.125,-0.875 1.75,0.125 2.625,-1.25 4.5,-0.75 2.125,1.75125 3.25,-1.25 5.125,-0.875 -0.25,0.875 0.375,1.125 0.625,1.625 1.75,-0.24875 3.125,-2.25125 5,-1.5 0.25,-1.25 2.125,10e-4 2.5,-1.125 0.875,0 1.25,-1.37375 2.125,-0.625 0.375,-0.5 1.5,-0.37625 2.125,-0.125 -1.375,1.37375 -1.25,3.87375 -2.75,5 -0.5,1.74875 -1.375,3.375 -2.125,4.875 -3.25,7.62625 -6.75,15 -9.75,22.75 l -0.375,0.375 c 0.125,1.37625 -0.875,1.875 -1.25,2.75 0.5,3.00125 -2.125,4.87625 -2.375,7.875 -1.25,1.25 -1.375,3.125 -2.125,4.625 -0.25,1.5 -0.875,2.625 -1.5,3.875 -1,5 -2.5,9.5 -4.5,13.875 l 0.25,0.375 c -1.625,3.125 -2.75,6.5 -3.5,10.25 0.25,1 -0.5,2.62375 -0.625,4 -0.5,3.87375 -2.75,6.5 -2.75,10.625 1.5,1.12375 -0.125,2.75 -0.25,3.75 -0.25,1.12375 0.375,1.50125 1,1.75 0.75,-0.125 -0.25,-1.625 0.875,-1.25 -0.75,-0.625 0.25,-1.25125 0.375,-1.75 -0.375,-1.25 0.625,-1.375 0.25,-2.625 1.125,-1.375 -0.125,-2.5 1.25,-3.75 -0.625,-2.5 0.875,-3.87625 1,-5.5 -0.375,-0.75125 0.25,-1.87375 -0.125,-2.125 0.625,-1.875 1.25,-3.75 1.75,-5.5 0.125,0 0.25,0.12625 0.25,0.25 l 1,0 c -0.25,-1.74875 1.625,-2.625 0.75,-4.25 0.875,-0.625 0.75,-2.00125 1,-3.125 -0.75,-0.75125 0.25,-1.49875 0.375,-2.25 0.625,-1.74875 0.875,-4.375 3.25,-4.5 1.25,-4.625 3.125,-8.625 4.5,-13.125 0.25,-2 2.5,-2.24875 2.625,-4.25 0.625,-0.625 0.375,-2.125 1.25,-2.75 -0.25,-1.125 0.625,-2 0.375,-2.5 1.25,-0.87375 1.125,-2.74875 2.375,-3.75 1.25,-1.625 1.75,-3.99875 3.125,-5 l 0,0.375 c 0,2.12375 -1.75,4.125 -2.375,6.375 -0.375,1.12625 -1.25,2.24875 -0.875,3 -1.25,1.25 -1.25,3.375 -2.375,4.5 -0.75,2.75 -1.875,5 -2.75,7.5 -1.25,1.875 -1.125,4.75 -2.375,6.625 -1.125,2.00125 -1.625,4.50125 -2.75,6.5 0,0.875 -0.25,2.00125 0.875,1.875 0.375,-0.25 1.25,-1 0.5,-1.625 1,-1.875 1.625,-4.125 2.75,-6 l 1.625,-4.375 c -0.375,0 0.125,-0.75 0.625,-0.875 0.125,-1.375 1.25,-2.24875 1.25,-3.875 0.625,-1.125 0.375,-1.25125 1.25,-2.125 1.5,-3.50125 2.875,-7 4.625,-10.5 1.25,-0.625 0.5,-2.875 1.875,-3.625 l 0,-0.5 c 0.375,-1.25 0.5,-1.75 1.25,-3 1.875,-4.75 4.75,-8.875 6.75,-13.5 0.25,-0.625 1.375,-0.375 1.375,-1.25 l -0.625,0 c 0.625,-1.5 0.25,-1.625 1.25,-2.875 1.25,0.75 1.375,-1.25 2.125,-1.875 0.625,1 -0.625,1.25 -0.125,2.375 -1.25,1.125 -1.25,3.25 -2.5,4.375 0.5,0.37625 0.25,1.62625 1.375,1.25 1.875,-3 3.125,-6.00125 5,-9 1.75,-0.37625 1.25,-2.625 2.5,-3.5 0.375,-0.625 0.625,-1.25 0.875,-1.875 0.25,-1.375 1.375,-1.75 0,-3 -0.625,-0.125 -0.125,-1.625 -1.25,-1 -0.5,2.24875 -1.875,3.87375 -2.75,5.625 -0.5,1.875 -1.25,3.75 -2.875,4.375 0.625,-2.62625 2.25,-4.75 3.375,-7.125 0.375,-1.5 1.5,-2.62625 2,-4.125 -2.625,-2.75125 -4,-6.5 -6,-9.75 0.125,-0.75 -0.125,-1.12625 -0.5,-1.5 0.125,-1.75125 -0.25,-3.25 -1,-4.5 0.625,-1.375 -1.25,-1.25 -0.5,-2.875 -0.875,-0.74875 -1.625,0.25 -2.5,0.375 -5.125,1.125 -9.5,3.625 -14.625,4.75 -2.125,0.125 -3.625,0.37625 -5.125,0.75 l 0.25,-1.625 c 1,-1.75125 1.75,-4 2.625,-5.375 -0.125,-1.25 1.25,-3.00125 1.625,-4.625 1.875,-2.75125 2.25,-6.625 4.25,-9.375 0.625,0 -0.375,-1.5 0.875,-1.125 -0.5,-1.5 -1.5,-2.5 -2.625,-3.5 -0.5,1.75 -1.125,3.375 -1.75,5.125 -0.625,1 -1.25,2 -1.75,3 -0.125,5.125 -3.5,7.75125 -4.875,12 -1.75,2.62625 -2.5,6.125 -5.125,8.125 0.25,1.5 -1.875,0.5 -2.25,1 0.125,-0.5 -0.125,-1.12625 0.25,-1.5 1.75,-1.875 1.875,-4.99875 3.375,-7 2.875,-0.49875 2,-4.24875 3,-6.375 1.875,-2.125 3.875,-4 4.125,-7.375 1,-1.125 2,-3.125 3.125,-4.5 1.375,-2 1.125,-4.375 -0.125,-6.375 -2.375,-3.875 -3.25,-8.375 -5.75,-12 z m -4.25,5.375 -0.5,1 0.375,0 c 0.375,-0.125 0.375,-0.75 0.125,-1 z m 176.5625,1.21875 c -0.85576,-0.0352 -1.53219,0.53125 -2.5625,0.53125 l 0,2.25 c 0.375,1.25 2.12625,0.375 3,0.75 l 0,0.5 c -2.74875,-0.625 -4.5,1.875 -6.75,0.125 -0.50125,0.5 -1.62375,0.375 -2.375,0.125 0.25125,-0.5 -0.37375,-0.625 -0.625,-0.75 -0.74875,1.5 -3.25,0.75 -4.5,1.875 -1.12625,-0.5 -2.875,-0.375 -3.875,-0.875 -1.125,0.25 -3.50125,-0.875 -3.375,1 1.5,0.625 4.125,-0.125 4.5,1.75 0.37375,1.125 2.62375,0.5 3.125,0.625 0,-0.75 1.125,-0.5 1.75,-0.625 0.75,-0.625 2.62625,0.125 3,-0.25 0.375,-0.125 0.99875,0 0.75,0.625 -1.75,-0.125 -3.25,0.75 -4.5,0.375 l 0,0.25 c -1.99875,-0.125 -3.12625,1 -5.125,1 -4.25125,0.75 -5.875,2.25 -10.75,2.125 -1.5,0.375 -3.25,0.375 -4.375,1.125 -2.5,0.125 -4.37375,1.125 -6.625,1.5 -1.99875,1.75 -2.25,5 -4.875,6.375 -0.5,2.87625 0,6.62625 -1.875,8.625 -0.375,0.875 -0.5,2.75 -0.25,3.375 -0.75,1 -1,2.62375 -1.25,4 -1.375,3.99875 -3.25,7.62375 -4.125,11.875 l 1,0.5 c 1.75,0.12625 3.75,0.49875 4.375,2 -0.875,1.25 -1.75,-0.25 -3,0.25 -0.625,1.25 -2,0 -3,0 -1.25,0.37625 -0.12625,1.49875 0,2.25 -1.125,0.12375 -1.125,1.25125 -1.5,2 1.99875,-0.12375 3.625,-0.74875 5.875,-0.5 3.5,-1.25 8.62375,-0.24875 12.625,-1 2.625,1.5 6.75,0.875 10,1.75 0.25,1.375 3,0.5 3.625,0.75 0.75,0.12625 2.625,-0.5 2.25,0.75 -1.12625,-0.37625 -1.25,0.62625 -2.25,0.25 -0.5,0.25 -0.5,1.375 0,1.5 2.5,0.25 6.5,0.375 8.375,-0.125 1.62625,0.125 3.25,-0.37375 4.5,0 1.25,-0.25 2.75125,-0.87625 3.875,-0.375 0.625,-0.25125 2.24875,0.375 3,-0.125 l 0,0.125 1.375,-0.5 c 0.25125,-0.12375 2,-10e-4 2.375,0.5 0,1.12375 0.5,3.12625 0.75,4.75 0.75125,0.5 1.625,0.87625 2.875,0.75 0.25,-1.25 2.25125,-0.125 2.5,-1.25 1.62625,0.75125 1.625,-1.5 2.875,-0.25 0.49875,-0.87375 1.87625,-0.87375 2.75,-1.25 1.75125,-1.875 4.75125,-0.24875 6.875,0 1.5,-0.625 3,-1.25125 4.75,-1.5 1.25,-1.62625 2.5,-3.12375 3.5,-5.125 1.25,-0.625 1.625,-2.375 3.125,-3 1,-1.62625 0.74875,-3.12375 0.375,-5.125 0.25,-0.49875 0.74875,-0.87625 1.5,-1.125 0.74875,-2.00125 3,-2.625 3.875,-4.5 0.375,-0.875 0.25,-2.125 1.125,-2.75 0.25,-1.625 0.75,-3.75 0.75,-5.125 l 0.25,0 c -1,-2.25 -1.125,-5.375 -2.125,-7.75 -0.99875,-1.5 -0.625,-3.875 -1.5,-5.375 -0.375,-2.375 -2.25125,-3.375 -3.875,-4.875 -1.50125,-2.625 -3.62625,-5.125 -7,-5.75 -2.62625,-1 -5.37625,-1.75 -8,-2.875 -0.375,-0.875 -1.625,-0.625 -2.25,-1.125 -1.5,0.125 -2.87375,1.125 -4.25,0.375 -2.62375,1.5 -3.375,-1.375 -5.875,-1.125 -0.12375,-1.25 1.5,-1.25 0.875,-3 -0.99875,-1 -2.875,-1.125 -4.75,-1 -0.34375,-0.1875 -0.65225,-0.26953 -0.9375,-0.28125 z m -243.5625,2.03125 c -0.25,0.5 -0.25,1.125 0.25,1.25 -0.125,-1 1,-0.5 1.25,-0.875 -1,0.75 -0.25,3.125 -1.75,3.375 -0.875,-0.875 1,-2 -0.5,-2.375 0.25,-0.25 0.125,-1.25 0.75,-1.375 z m -1,2.125 0.125,0.5 0,0.25 -0.125,-0.75 z m 63.25,1.4375 c -1.01514,0.0684 -1.09375,1.39062 -1.75,1.9375 -1.125,1.875 -1.75,4 -1.875,6.5 0.5,1.375 1.375,0.25 2.25,0.25 l -0.25,-0.75 c 0.375,-0.125 0.125,-0.5 0.625,-0.5 0.5,-2 1.125,-4 1.75,-6 l -0.25,-1.375 c -0.1875,-0.0469 -0.35498,-0.0723 -0.5,-0.0625 z m -66,11.4375 0.125,0.5 0,-0.25 -0.125,-0.25 z m 256.5,39 0.75,0.375 c -0.75125,0.99875 -2.00125,1.625 -3.5,1.625 0.75,-0.625 0.87375,-2.25 2.625,-1.625 l 0.125,-0.375 z m 3.25,1.875 0.5,0 0,0.75 -0.5,-0.75 z m -14.53125,2.125 c -1.78738,0.0382 -1.71766,3.79688 -4.34375,2.375 -1.49875,0.75 -3,1.24875 -4.5,2.125 -0.125,1.25 0.12375,2.375 1.25,2.75 1.875,0.37625 3.12625,-0.375 4.75,-0.5 0.87625,0.5 1.375,-1.12625 2.625,-1 0.375,-1.25 0.375,-1.5 0,-2.75 0,-0.25 0.37625,-0.125 0.5,-0.25 0.12625,0.125 0.25,0.25 0.25,0.375 l 1,0 c 0.87625,-1 -0.5,-2.12625 0.25,-3 l -0.875,0.125 c -0.34375,-0.17172 -0.65091,-0.25546 -0.90625,-0.25 z m -5.21875,1.75 0,0.5 0.5,0 0,-0.5 -0.5,0 z m -206.875,2.125 c -1.53345,0.15244 -2.96875,1.59375 -4,2.625 0.375,0.75 0,2.25 1.375,2 0.75,-1.875 3.375,-1.00125 4.75,-2.125 0.5,-0.25125 0.5,-1.5 0,-1.75 -0.70312,-0.62461 -1.42798,-0.81929 -2.125,-0.75 z m 41.875,0.875 -0.625,1 c -0.75,0.625 -0.875,2 -1.75,2.25 -0.5,1 -0.5,1.375 0,2.25 0.875,0.125 1.625,1.12625 2.5,0.375 -0.25,-0.875 0.625,-0.875 0.125,-1.5 1,-0.625 0.625,-2.25 1.375,-3 -0.5,-0.37375 -0.75,-1.25 -1.625,-1.375 z m 183.25,0.625 c -0.50125,1.25 -0.375,1.75 0,3.125 1.62375,0.625 1.375,-1.25 2,-1.625 -0.625,-0.49875 -1.00125,-1.5 -2,-1.5 z m -8.25,0.84375 c -0.15033,-0.01 -0.31281,0.0625 -0.5,0.28125 -0.625,0.125 -1.25,1.12625 -1.875,0.375 l -1,0 0,0.75 c -1.12625,0.49875 -2.12375,0.875 -3.625,0.75 -0.74875,0.50125 -10e-4,1.62375 0.125,1.75 1.12375,0 1.74875,-0.5 2.625,-0.75 0.99875,-1 1.125,0.75125 1.5,1.25 1,0.12625 1.62625,-0.125 2.375,-0.625 1.00125,1.125 1.00125,-0.875 1.875,-0.625 0.875,-0.75 -0.25,-1.25 -0.25,-2.125 -0.46875,-0.18656 -0.799,-1.00166 -1.25,-1.03125 z m -189.875,1.84375 c -0.26093,0.28079 -0.5816,0.51627 -1.125,0.3125 -1.125,0.375 -0.875,1.62375 -1.5,2.375 -1.875,0.74875 -0.875,3.5 -2,4.75 -0.5,1.375 0.75,1.50125 1.25,2 1.5,0 1.375,-1.875 2.25,-2.75 0,-1.625 1,-2.74875 1.5,-4.125 1.10325,-1.10325 -0.62322,-1.812 -0.375,-2.5625 z m 164.375,4.75 c -0.34277,0.0754 -0.51562,0.32812 -0.375,0.9375 0.12375,0.875 0.375,1.74875 1.625,1.375 0.5,-0.625 1.125,-1.125 0.875,-2.25 -0.54688,0.15625 -1.55371,-0.18823 -2.125,-0.0625 z m -154.875,4.5625 -0.625,0.25 c -2.375,4.49875 -4.375,9.125 -7.25,13.25 -1,0.50125 -0.25,2.62375 -2,2.375 -0.75,2.74875 -2.125,5.125 -3.625,7.25 -1.25,4.125 -4.75,6.37375 -6.125,10.5 -1.5,0.74875 -1.5,3.12625 -2.5,4 l 0.25,0.125 c -2,2.75 -3.375,5.99875 -5,9 -1.25,0.375 -0.625,2.125 -1.625,2.75 -4.375,7.125 -7.875,14.62375 -12.375,21.625 -2.125,5.74875 -6.25,10.5 -8.625,16.125 -2.25,4.50125 -5.375,8.49875 -7.25,13.25 -0.375,0.87375 -0.375,2.125 -1.125,2.625 -0.75,2.12625 -1.375,4.87625 -0.625,7.25 -0.25,1.625 1,2.25 0.625,4 1.5,1.50125 0.75,4.5 1.75,6.25 0,2.625 1.25,4.375 1.25,7 0.375,0.625 0.125,1.75 0.875,2.125 0.875,-0.49875 0.125,-2.12625 0.625,-3 l 0.375,0 c 0.5,1.37375 1.5,2.25125 2.25,3.625 1.625,0.50125 2.875,1.875 4.375,1.875 1.25,-0.625 2,0.87375 3,-0.125 1.25,0.12375 2.875,-1.37625 4.625,-1 l 0,0.375 0.5,0 c 0.25,-0.25125 0.375,-0.99875 1.125,-0.875 0,-3 3.625,-2.25 4.5,-4.5 0.75,-1.25 1,-2.74875 2.125,-3.625 1.625,-3.375 4.375,-5.87625 5.375,-9.75 0.25,-1.50125 2.125,-2.87375 0.75,-4.5 -0.25,0.875 -0.5,1.75 -1,2.375 -1.5,0.87625 -0.875,-1.75 -1.625,-2.375 -0.75,-0.375 -1.5,-1.375 -2.375,-0.625 -0.375,0 -0.125,-0.37625 -0.25,-0.5 0.125,-0.12625 0.25,-0.25 0.375,-0.25 l 0,-1.625 c 0.5,-2.75125 1.375,-5.25 2.375,-7.625 0,-1.25 1,-2.25 0.625,-3.125 2.125,-0.75 0.625,-4.12625 2.375,-5.25 -1.25,-1.5 1,-1.75 0.25,-3.5 1.25,-1.625 1.375,-4.62375 2.125,-6 l -0.25,0 c -1.625,2.25 -2,5.25 -3.5,7.5 -0.5,0.50125 0,2.00125 -1.125,1.875 -0.125,-0.12375 -0.25,-0.25 -0.25,-0.375 0.125,0 0.25,-0.125 0.375,-0.125 l -0.375,-1 c 1.375,-1.12375 0.875,-3.25 1.875,-4.5 -1,-3.49875 0.375,-6.75 1.625,-9.25 0.875,-4.24875 2.125,-8.25125 3.75,-12.125 -0.375,-0.625 0.5,-1.62625 0.625,-2.5 -0.25,-0.75125 -0.625,-1.375 -1.625,-1.125 l 0,0.5 c -0.125,0.49875 -0.375,0.875 -1,0.75 -0.25,-1.5 1.25,-2.25 1.125,-3.875 1.625,-3.75 4,-7.625 4.75,-11.375 -1.75,0.625 -0.75,3.75 -2.25,4.75 -2,1.875 -1.625,5.75 -4,7 -0.25,-0.625 -0.625,-1.125 -1.5,-1.125 -1,-0.625 0.5,-1.25 -0.125,-1.875 0.5,-0.25 0.625,-1 1,-1.5 0.625,-2.5 2.375,-4.5 2.75,-7.25 1.125,-1 1.375,-2.5 2,-3.75 0.875,-3.62375 3.125,-6.37375 4,-10 0.875,-2.125 1.75,-4.25125 2.625,-6.375 1.125,-1.00125 0.375,-3.25125 1.875,-3.75 -1.125,-1.25 1.25,-1.125 0.5,-2.625 1.5,-1.375 2.125,-3.375 3,-5 0.875,-1.875 2.125,-3.375 2.5,-5.625 1.25,-0.875 0.875,-2.99875 2,-3.875 0.875,-0.75 1,-2.375 1.125,-3.125 z m 45.25,5.375 c -2.25,3.25 -3.875,6.87375 -6.625,9.875 -3.125,5.87375 -6.875,11.125 -9.375,17.375 -0.625,0.5 -1,1.24875 -1.125,2 -0.75,0.99875 -1.875,2.24875 -1.75,3.125 -1.25,2.125 -2.375,4.25 -3.625,6.375 -0.375,1.625 -1.875,2.375 -1.75,4.25 1.125,-0.625 1.375,-2.125 2.5,-3 0.25,-1.875 1.625,-3.24875 2.375,-4.75 0.75,-0.875 1.625,-1.50125 1.5,-2.875 1.5,-1.50125 2.125,-3.625 3.25,-5.5 1.25,-1.125 1.625,-3.00125 3.125,-3.875 0.25,0.12375 0.125,0.375 0.125,0.5 l 1,0 c 0.5,-1 1.625,-2.25 1.375,-3.25 1.375,-0.75 1.5,-2.87375 2.625,-4 0.875,-1.37375 1.625,-3.375 2.75,-4.25 -1.125,2.375 -2.375,4.75 -3.5,7.25 -0.375,1.74875 -1.875,2.625 -2.125,4.5 -1.125,1 -1.375,2.74875 -2.375,3.875 -1.25,2.5 -3,4.5 -4,7 l 0.5,0 c 1.625,-2.5 2.75,-5.25 4.75,-7.5 1,-2.625 2.875,-4.74875 4.25,-7.125 0.5,-3.625 4.125,-5 5.75,-7.875 0.625,-0.25 -0.25,-1.75 0.875,-1.75 l 0,-10.375 -0.5,0 z m -58.34375,19.5 c 0.10352,-0.0254 0.21875,-0.0312 0.34375,0 0.125,0.5 -0.25,0.875 -0.75,0.75 -0.0937,-0.375 0.0957,-0.67383 0.40625,-0.75 z m -3.28125,9 c 0.0844,0.42188 -0.34495,0.63208 -0.59375,0.90625 0.0875,-0.42095 0.1593,-0.90625 0.59375,-0.90625 z m -1.625,2.75 0.375,0 c -0.5,1.25 -1.125,2.62625 -1.75,4 -1.5,2 -1.75,4.74875 -3.25,6.75 -0.75,2.62375 -2.375,4.875 -3,7.625 l -0.5,0 c 1,-4.12375 3.875,-6.99875 4.5,-11.5 2,-1.875 2.25,-4.625 3.625,-6.875 z m -16.5,1.75 0,0.75 0.375,0 0,-0.75 -0.375,0 z m 36.25,3.625 -1.125,1.75 c -0.625,0.625 -0.25,1.50125 0.25,2 0.875,1.00125 1.5,-0.5 2,-0.875 -0.125,-1.25 0.25,-2.74875 -1.125,-2.875 z m -28.125,13.5 c 0.0184,0.16526 -0.034,0.31683 -0.0625,0.46875 -0.16546,0.88112 -0.95588,1.59007 -1.0625,2.65625 -0.32812,-0.98547 0.78052,-1.60092 1.0625,-2.65625 0.0403,-0.15076 0.0625,-0.29703 0.0625,-0.46875 z m 44.90625,0.5625 c -1.73633,0.11196 -2.03125,1.96875 -2.90625,3.0625 -0.25,0.625 -0.875,1.62375 -0.625,2 -0.5,1.625 0.75,1.62625 1.625,2 0.125,-0.5 0.75,-0.12375 1.25,-0.25 -0.375,-2.5 1.875,-3.25 1.75,-5.5 l -0.25,-1.25 c -0.3125,-0.0627 -0.5957,-0.0785 -0.84375,-0.0625 z m -46.78125,3.5625 c -0.125,0.74875 -0.125,2.375 -1.125,2.625 0.875,-0.375 0,-2.25125 1.125,-2.625 z m 2.875,5.5 0,0.375 -0.5,0 c 0.125,-0.12625 0.375,-0.375 0.5,-0.375 z m -23.25,0.875 c -1.125,0.625 -0.375,2.62625 -0.625,4 0.25,1.625 -3.125,2.625 -0.625,3.875 2.375,-0.375 2.125,-3.37375 3.75,-4.5 -0.375,-1.125 -0.125,-2.87375 -1.25,-3.375 l 0,0.125 -1.25,-0.125 z m 3,3.875 0.125,0.5 0,-0.375 -0.125,-0.125 z m 33,1.75 c -1.125,0.375 -1.375,1.625 -2.125,2.5 -0.25,1.75125 -1.75,3.125 -1.75,5 0.5,0.875 -1,1.375 0.125,1.75 0.25,0.37375 0.125,2.12625 0.125,3.25 l 2,0.625 c 0.875,-2.37375 0.5,-3.75 1.5,-6 1.875,-1.25 -1.375,-4.125 1.625,-4.5 -0.125,-0.875 -0.25,-2.25 -1.5,-2.625 z m 0.875,4 0.75,0.375 0,-0.125 -0.75,-0.25 z m -4.5,23.625 c 0.125,1.99875 -1.625,2.99875 -0.625,5 l 1.375,0.25 c -0.125,-1.625 1.5,-2 0.875,-3.875 -0.5,-0.37375 -0.75,-1.25125 -1.625,-1.375 z m -46.125,3.625 c -0.375,1.25 -0.625,2.375 -1,3.625 -0.375,0.74875 1,0.99875 0,1.5 0.375,0.375 0.875,1.12375 1.5,1 2.375,-0.50125 0.125,-2.625 0.75,-4.5 -0.375,-0.625 -0.375,-1.625 -1.25,-1.625 z m 2.375,3.625 0.125,0.375 0,-0.25 -0.125,-0.125 z"
       id="path126"
       inkscape:connector-curvature="0" />
  </g>
</svg>
